OFF
256 0 0
0.427859 -0.003853 -0.825333
-0.412431 0.413345 0.414184
0.860415 0.443559 0.000711
-0.018080 -0.406374 -0.860537
0.440322 -0.872551 -0.003324
-0.430870 0.008831 -0.868284
0.441104 -0.871537 -0.005419
-0.014800 -0.406334 -0.859556
0.432157 -0.416085 0.402582
-0.413423 0.413080 0.413165
0.432758 -0.417014 0.403897
0.446194 0.895211 0.015210
-0.000424 0.860466 0.424607
-0.838623 0.424020 -0.007043
-0.431490 0.007091 -0.867639
-0.841169 0.421166 -0.007169
-0.019071 -0.876385 -0.427107
0.408430 -0.450198 -0.417799
0.001557 0.862251 0.425944
0.448292 0.893660 0.016775
0.002827 0.863092 0.426358
0.409321 -0.451131 -0.418443
0.027782 0.424740 -0.845303
-0.424688 0.875260 -0.014978
0.847626 -0.002362 0.428521
-0.843104 0.014849 -0.417666
-0.839780 0.422122 -0.006008
0.852684 -0.441417 0.009249
-0.014252 -0.876627 0.406923
0.851686 -0.443100 0.007520
-0.407983 0.367846 -0.407836
0.432725 -0.415194 0.405101
-0.418816 -0.849093 -0.010026
0.846707 -0.005995 0.428888
-0.429555 0.010084 -0.867208
0.408086 -0.450511 -0.420075
0.426209 -0.006063 -0.824253
0.027546 0.425477 -0.846689
-0.016326 -0.406254 -0.859556
-0.415417 -0.405554 0.432544
-0.412694 0.412649 0.413485
-0.421525 -0.396227 -0.436878
-0.845740 0.015132 -0.417723
-0.017245 -0.405549 -0.862746
0.847007 -0.003029 -0.393150
0.852684 -0.441708 0.008864
-0.418360 -0.849949 -0.011556
0.426659 -0.006205 -0.824238
-0.853933 -0.425164 -0.002558
0.411382 -0.001450 0.854830
-0.413380 0.413285 0.414746
0.446983 0.895414 0.016155
0.445591 0.893979 0.016053
-0.412331 0.411908 0.413832
0.412155 0.000294 0.856013
0.428613 -0.004673 -0.825705
-0.839380 0.422811 -0.005025
0.422158 0.454668 -0.395369
-0.423118 0.875267 -0.018140
0.852530 -0.442953 0.008692
0.396796 0.391619 0.390025
-0.846390 0.015301 -0.418200
0.447353 0.894270 0.014491
-0.000870 0.848921 -0.434747
-0.016602 0.416071 0.864845
-0.415395 -0.405988 0.431916
0.001421 0.860412 0.424841
-0.854151 -0.425219 -0.003979
-0.016323 -0.406631 -0.859748
0.009749 -0.428188 0.856229
-0.416833 -0.849084 -0.012265
-0.860306 0.006354 0.405194
0.422458 0.455291 -0.393098
-0.421514 -0.396865 -0.437392
0.860592 0.443055 -0.000276
0.852627 -0.441072 0.006292
-0.423120 -0.395655 -0.436096
0.431782 -0.416734 0.404020
0.422572 0.454583 -0.394203
0.426474 -0.005436 -0.824677
0.409646 0.000575 0.855118
-0.434031 0.008087 0.862411
0.858991 0.444482 -0.001095
0.433411 -0.414375 0.402999
0.447133 0.894053 0.016522
0.845877 -0.001751 -0.391666
-0.846069 0.016234 -0.417144
0.428855 -0.002934 -0.824508
0.432914 -0.417257 0.405906
-0.861441 0.005669 0.406977
0.407730 -0.449606 -0.420969
-0.427897 0.009791 -0.867565
-0.423671 0.874600 -0.017026
0.434892 -0.416919 0.403869
0.413679 0.001466 0.855803
-0.860313 0.005037 0.406757
0.009346 -0.427863 0.855039
0.411301 0.001585 0.854726
0.396049 0.390909 0.388707
-0.429691 0.009047 -0.869122
-0.003346 0.849480 -0.435707
0.434142 -0.416036 0.404298
-0.018495 -0.875178 -0.426640
-0.423931 0.874133 -0.015988
-0.841093 0.421366 -0.003969
0.427921 -0.004274 -0.825362
0.441276 -0.871002 -0.004588
-0.404574 0.368217 -0.407209
0.422914 0.452820 -0.395334
0.422581 0.452304 -0.394512
0.848908 -0.001405 -0.393623
-0.415218 -0.849739 -0.011605
0.029057 0.428443 -0.846311
0.447274 0.894536 0.016210
-0.430255 0.009265 -0.867370
-0.424787 0.873727 -0.017984
0.846293 -0.003144 0.430192
0.397196 0.391041 0.390112
0.852450 -0.440865 0.006746
-0.001753 0.849906 -0.433871
-0.423428 0.873961 -0.017201
-0.415139 -0.404169 0.433757
-0.013861 -0.875044 0.405940
0.447367 0.894742 0.016738
-0.846803 0.014408 -0.418916
0.851864 -0.442578 0.007491
-0.839445 0.421527 -0.005222
-0.012151 -0.875069 0.406248
-0.428273 0.009470 -0.870365
0.409296 -0.450745 -0.419494
-0.432477 0.006823 0.862072
-0.429955 0.008029 -0.867532
-0.019320 -0.874931 -0.425847
-0.019853 0.414742 0.863809
-0.422126 -0.398079 -0.435696
-0.016383 -0.406453 -0.859274
-0.852939 -0.422908 -0.004802
0.448100 0.893079 0.016261
-0.421134 -0.398283 -0.436730
-0.845889 0.013463 -0.418163
0.423201 0.452736 -0.393400
0.431887 -0.416810 0.404922
0.428166 -0.005435 -0.824807
-0.404237 0.366480 -0.410119
0.860605 0.443099 -0.001266
0.861758 0.442842 -0.001774
-0.423798 0.873785 -0.016235
-0.433005 0.007581 0.861990
-0.019563 0.416709 0.863329
0.000048 0.862024 0.424780
-0.845861 0.014862 -0.416539
-0.016885 -0.407478 -0.861686
-0.429219 0.008573 -0.868313
-0.860679 0.005945 0.407199
0.396013 0.392374 0.389896
0.422356 0.453981 -0.395425
0.859417 0.442670 0.000648
-0.422011 -0.396526 -0.435446
0.439269 -0.871508 -0.005422
0.445657 0.893438 0.016925
-0.431276 0.010091 -0.867768
0.396422 0.391048 0.388690
0.030249 0.427124 -0.846123
-0.433708 0.008050 0.860383
-0.003770 0.849531 -0.436087
-0.000438 0.860815 0.425106
-0.415935 -0.403591 0.428900
-0.422685 0.874583 -0.016756
0.432659 -0.415229 0.403777
0.423264 0.455472 -0.393591
0.007128 -0.426060 0.855801
-0.017717 -0.875353 -0.426159
0.433266 -0.417353 0.406365
-0.020531 0.413630 0.863491
-0.415501 -0.402410 0.431960
0.432907 -0.414509 0.405691
0.429854 -0.003487 -0.824962
-0.842055 0.423489 -0.006769
0.006980 -0.426720 0.856126
0.848130 -0.003846 0.430000
0.448308 0.895271 0.015945
-0.421751 -0.397348 -0.435798
0.441206 -0.870949 -0.004949
0.001455 0.863021 0.425175
0.854658 -0.442105 0.010148
-0.432863 0.008659 0.862009
-0.001097 0.848730 -0.435310
0.411776 0.001975 0.855622
0.433643 -0.417511 0.405277
0.847412 -0.000755 -0.394321
0.427600 -0.004536 -0.824062
0.413031 0.001653 0.853550
-0.422538 0.874782 -0.017340
0.447577 0.895400 0.014281
0.398872 0.388490 0.388257
-0.423555 -0.395266 -0.436131
0.423362 0.452526 -0.393355
-0.845230 0.016300 -0.416555
0.447608 0.893678 0.014260
0.432639 -0.417035 0.406366
0.423501 0.453265 -0.393359
0.396793 0.392748 0.388596
0.408908 -0.449928 -0.418924
-0.418715 -0.849035 -0.010643
-0.411146 0.412668 0.413035
-0.003208 0.850561 -0.435811
0.001460 0.861028 0.423799
0.000408 0.860499 0.426771
-0.854952 -0.424803 -0.002298
-0.003165 0.848627 -0.434374
-0.424730 0.875677 -0.016236
0.431889 -0.416442 0.404433
-0.845665 0.014618 -0.418215
-0.854842 -0.426307 -0.004635
-0.863471 0.004017 0.406832
0.027508 0.427214 -0.845420
-0.018281 -0.875904 -0.426384
-0.413385 0.411743 0.412830
0.433629 -0.416444 0.405603
-0.838328 0.422068 -0.005668
0.851997 -0.445158 0.006742
0.847822 0.000603 -0.392927
0.410391 0.001542 0.854946
0.027422 0.425616 -0.844438
0.423522 0.456452 -0.394503
0.846233 -0.001262 -0.391852
-0.418347 -0.847874 -0.010907
0.859392 0.441204 0.000270
-0.402622 0.366689 -0.408231
0.413011 0.001769 0.856702
-0.412730 0.413763 0.412923
0.448678 0.893280 0.015059
-0.853936 -0.425582 -0.003657
-0.434307 0.008530 0.860250
-0.021081 0.415942 0.867344
-0.433755 0.007642 0.862781
0.440705 -0.871917 -0.003697
-0.423215 0.873721 -0.017632
-0.014544 -0.875961 0.406916
-0.860380 0.006207 0.406707
-0.431745 0.010381 -0.866335
-0.424334 0.873017 -0.016687
0.428285 -0.004483 -0.824350
0.433701 -0.417273 0.405609
0.845193 -0.001214 -0.392244
-0.019932 0.414656 0.864755
0.439706 -0.871419 -0.004694
-0.021048 0.415128 0.866342
0.431075 -0.416526 0.406549
0.862357 0.442984 0.001381
-0.420456 -0.397335 -0.438310
-0.424138 0.874452 -0.016804
-0.019056 -0.876273 -0.426844
-0.853387 -0.424234 -0.002892
-0.414142 0.413315 0.414888
0.860831 0.443162 -0.000027
