OFF
256 0 0
-0.013168 0.067652 -0.561230
-0.014023 0.068485 -0.560836
-0.735638 0.083025 0.205494
0.390538 0.449727 0.199672
0.715962 -0.266720 -0.157895
0.719695 -0.649668 0.200888
-0.363219 -0.289754 -0.517670
0.713600 -0.264970 -0.157404
-0.014905 0.068878 -0.561900
0.352080 0.431904 -0.503031
-0.730415 0.444541 -0.174556
0.390438 0.451271 0.199521
-0.009312 0.815419 0.214206
-0.737053 -0.276941 -0.146963
-0.004943 -0.601144 0.198114
0.019831 -0.237508 0.532006
-0.014187 0.070688 -0.563014
-0.005899 -0.601591 0.197316
0.353082 -0.658508 -0.170044
-0.362162 -0.290147 -0.519290
0.345030 -0.266200 -0.563707
-0.348748 -0.616325 0.550049
0.719739 -0.650040 0.198874
0.766594 -0.283443 0.576775
0.355834 0.802630 -0.161588
-0.351150 -0.615436 0.549517
-0.742981 -0.267126 0.566896
-0.729514 -0.637669 0.208005
-0.744112 -0.264918 0.565539
-0.000202 0.821550 -0.516953
0.717029 -0.651494 0.200806
0.000027 0.821000 -0.515290
-0.728933 0.072140 -0.504411
-0.014387 0.068601 -0.561429
0.352391 0.432655 -0.502526
0.727674 0.074897 -0.561843
0.346961 -0.264495 -0.562887
0.346871 -0.264076 -0.565503
-0.351665 -0.616382 0.549792
0.713536 -0.266400 -0.157688
0.741894 0.094030 0.214454
0.715442 -0.266593 -0.158079
0.394139 0.116768 0.573570
0.389805 0.449759 0.200260
-0.359766 0.431843 -0.510227
0.767679 -0.280490 0.575740
0.725504 0.074189 -0.560509
-0.736392 0.084996 0.204972
0.745888 0.430220 -0.163525
-0.346898 -0.614524 -0.156900
-0.352043 -0.616565 0.551806
-0.348406 -0.614746 -0.157253
0.743696 0.092484 0.213393
-0.344839 -0.612959 -0.156527
-0.728461 0.073223 -0.503403
-0.349670 0.824785 -0.145951
0.346606 -0.647128 0.564509
0.744869 0.429991 -0.165956
-0.744594 -0.265071 0.566129
-0.353214 -0.617835 0.550849
-0.378897 0.112409 0.557317
0.728006 0.075508 -0.561011
0.351568 0.432849 -0.500436
-0.007726 0.815868 0.214947
-0.005150 -0.599857 0.197568
-0.730119 -0.636702 0.208902
0.725987 0.076580 -0.561878
0.396128 0.114412 0.573147
-0.730331 0.072550 -0.503622
0.715055 -0.267156 -0.161725
-0.011424 0.440511 0.533478
-0.016041 0.070132 -0.561425
-0.352268 -0.616281 0.552736
-0.352583 -0.616992 0.550863
-0.378483 0.112239 0.556536
-0.743400 -0.266402 0.566753
-0.727206 0.072431 -0.503336
-0.013562 0.439352 0.532485
0.350433 0.433011 -0.502183
-0.349471 0.824808 -0.147714
-0.352543 -0.615560 0.550342
0.767766 -0.282663 0.576567
-0.729088 0.072316 -0.504387
-0.013489 0.440085 0.534409
0.345478 -0.645896 0.565078
-0.349738 0.826298 -0.144926
-0.379493 0.113674 0.557104
-0.013202 -0.659867 -0.544058
-0.736743 0.083473 0.205032
-0.361981 -0.287858 -0.518221
-0.731351 -0.638580 0.210244
0.352352 -0.660563 -0.171566
0.394921 0.115269 0.573731
-0.351896 -0.617902 0.549920
-0.736169 -0.277500 -0.149130
-0.731071 0.443603 -0.174891
0.767848 -0.283039 0.575974
0.741789 0.093693 0.213522
0.019777 -0.235385 0.529318
0.346325 -0.265915 -0.561860
0.346861 -0.265011 -0.565112
-0.005287 -0.601140 0.198398
0.351505 0.432703 -0.500437
-0.012382 0.440293 0.533478
-0.734871 0.084935 0.204082
0.346431 -0.263887 -0.563200
-0.014379 0.069700 -0.561133
-0.742778 -0.266455 0.567294
0.726336 0.074554 -0.560466
0.350124 0.433083 -0.499347
-0.013438 0.069511 -0.560341
-0.361841 -0.288072 -0.516997
0.720585 -0.650624 0.200094
0.744282 0.093888 0.213290
0.742158 0.094143 0.214432
0.390270 0.449406 0.200824
0.345697 -0.648023 0.566096
-0.728622 0.072526 -0.505410
-0.744591 -0.266525 0.564227
-0.741830 -0.265720 0.566680
-0.729506 0.073193 -0.504072
0.347445 -0.645075 0.566276
0.720497 -0.649647 0.199297
0.727732 0.075638 -0.561994
-0.730039 -0.636719 0.208631
-0.005512 -0.601000 0.198724
0.351981 -0.658435 -0.171192
-0.011845 -0.658243 -0.543792
-0.012831 0.070348 -0.562017
0.356305 0.799898 -0.163067
-0.013574 0.069768 -0.560208
-0.742017 -0.267915 0.566512
-0.359016 0.433518 -0.509505
0.020806 -0.234830 0.529164
0.742104 0.094328 0.212961
0.718488 -0.647398 0.199243
-0.003890 -0.602786 0.199527
0.396993 0.113227 0.572870
-0.378775 0.113327 0.555427
0.714475 -0.267985 -0.159162
0.715265 -0.265156 -0.161857
0.726644 0.075924 -0.561511
-0.011562 -0.657642 -0.543466
0.727419 0.075002 -0.562282
-0.366925 0.448370 0.171202
-0.735310 -0.277044 -0.149218
0.768063 -0.281398 0.576562
0.768160 -0.281729 0.575664
-0.347059 -0.613568 -0.156626
0.352540 0.433063 -0.499439
-0.730792 0.443480 -0.175306
0.388765 0.448120 0.199782
0.713195 -0.264532 -0.159573
-0.348645 -0.615132 -0.158373
-0.367030 0.447571 0.166893
-0.004845 -0.600741 0.200202
-0.013179 -0.657933 -0.542759
0.718115 -0.650080 0.201430
0.745970 0.427535 -0.165392
-0.346254 -0.614667 -0.158622
0.353103 -0.659605 -0.171767
-0.346272 -0.613685 -0.158221
0.740098 0.095901 0.213406
-0.012605 -0.657479 -0.544955
0.345032 -0.267033 -0.562736
-0.364971 0.450463 0.169043
-0.012588 0.440229 0.533351
0.397211 0.117041 0.573525
0.390880 0.447861 0.199948
-0.727318 0.073509 -0.505236
0.719598 -0.650698 0.198121
0.714294 -0.267877 -0.160324
-0.349844 0.827650 -0.146523
-0.741694 -0.265749 0.565049
0.765800 -0.280472 0.575135
-0.367910 0.448557 0.168081
-0.729762 0.072166 -0.501264
0.722034 -0.649069 0.199065
-0.009745 0.816969 0.214626
-0.350611 -0.616144 0.551081
0.747312 0.429145 -0.161993
-0.728527 0.073891 -0.503047
0.719560 -0.650571 0.202235
-0.729819 0.444868 -0.172637
0.742031 0.093449 0.213647
-0.359625 0.432156 -0.509508
-0.735602 -0.276790 -0.149660
-0.377136 0.112378 0.554002
-0.367224 0.450137 0.168657
0.353745 -0.660972 -0.170084
0.353699 -0.659926 -0.173023
-0.345647 -0.612382 -0.157329
0.354919 0.801926 -0.162368
0.353094 -0.658630 -0.170301
-0.359859 0.432347 -0.508912
0.719853 -0.650165 0.201432
-0.006453 0.814462 0.214989
-0.001041 0.821260 -0.518648
0.714397 -0.265786 -0.160086
0.390225 0.449286 0.198631
-0.730605 0.444416 -0.174175
-0.730622 0.441891 -0.173817
-0.362935 -0.288211 -0.520240
-0.741571 -0.265389 0.566819
-0.366490 0.449942 0.168069
-0.014454 0.440920 0.533841
-0.005717 -0.601252 0.197509
-0.014272 -0.658248 -0.544259
-0.013558 0.069301 -0.561164
0.743937 0.427210 -0.164727
0.393302 0.116605 0.571674
-0.729994 -0.637369 0.209542
0.352802 0.432425 -0.500317
-0.008285 0.813153 0.213451
0.720346 -0.650411 0.200085
-0.014907 0.069587 -0.560361
-0.735357 -0.278788 -0.149285
-0.732090 0.447037 -0.172968
-0.732902 0.443479 -0.172643
0.714915 -0.268349 -0.161224
0.021822 -0.235368 0.530155
-0.729633 -0.636847 0.208893
-0.730860 0.445700 -0.172710
-0.736732 -0.278406 -0.148690
0.719452 -0.649639 0.200629
0.727523 0.075068 -0.561343
0.350865 0.432608 -0.501362
-0.360716 0.430739 -0.507993
0.351793 0.432671 -0.501578
-0.007577 0.815462 0.213854
-0.012535 0.069181 -0.561462
0.352220 0.431275 -0.500524
0.349254 0.432585 -0.502037
0.741816 0.095177 0.214037
-0.005545 -0.601823 0.197193
-0.728673 0.072443 -0.502881
0.767862 -0.284434 0.576682
-0.013860 0.438230 0.534906
-0.731224 0.443936 -0.174915
-0.014262 0.070682 -0.560869
0.390924 0.448193 0.201136
-0.005059 -0.600338 0.198364
-0.013341 0.067802 -0.561628
0.743285 0.096107 0.213246
-0.737076 -0.279447 -0.147457
0.720753 -0.649879 0.199701
0.724798 0.074487 -0.561225
-0.735787 0.085113 0.202767
-0.349817 0.826192 -0.143461
-0.737025 -0.277519 -0.148513
0.347532 -0.265345 -0.563264
0.712876 -0.265925 -0.159331
0.355130 0.800898 -0.165259
0.000753 0.821945 -0.515922
-0.001613 0.821408 -0.515143
-0.742509 -0.266411 0.564432
