OFF
256 0 0
-0.357753 -0.645022 0.582222
0.732978 -0.637313 0.186403
0.361871 -0.629878 0.565408
0.354589 -0.643644 -0.164176
0.370780 -0.305965 -0.545261
0.740242 -0.274093 -0.173893
0.737232 -0.274010 -0.173439
0.347041 0.465703 0.180906
-0.369759 -0.295990 -0.538320
0.356228 0.431817 -0.498981
-0.734248 -0.285527 0.576135
0.742137 0.072317 0.178392
0.733082 -0.637498 0.186434
-0.010213 0.838144 0.179897
-0.370843 -0.294940 -0.538943
-0.725401 0.104837 -0.513622
0.012533 -0.679238 -0.535124
0.354252 -0.643206 -0.164882
0.370685 0.076701 0.558354
-0.746438 0.462351 -0.158305
0.012665 0.848820 -0.529331
-0.007415 -0.302417 0.568799
0.738831 -0.274885 -0.171716
-0.720266 0.085432 0.179287
0.363385 -0.629348 0.567809
-0.009541 -0.300428 0.568727
-0.735338 -0.284118 0.576203
0.020040 0.478127 0.570904
0.354874 -0.644427 -0.164879
0.362757 -0.631810 0.568070
-0.359628 -0.646641 0.584660
0.370238 0.073378 0.555889
-0.010590 0.838813 0.182796
0.733503 -0.636192 0.186213
0.018590 0.478678 0.569713
-0.719968 0.086634 0.177592
0.362145 -0.630403 0.566194
0.368767 0.074452 0.557494
0.018695 0.478526 0.571164
0.737292 -0.273955 -0.174886
0.012616 0.848786 -0.533469
0.012570 -0.678096 -0.533209
-0.358224 -0.646941 0.582873
0.365478 0.849021 -0.179531
0.733123 -0.638135 0.185517
-0.719088 0.088780 0.177237
-0.350727 0.453428 0.171846
0.731209 -0.269167 0.588510
0.730489 0.107960 -0.530062
-0.370405 -0.294676 -0.539984
0.742449 0.073141 0.178076
-0.719261 0.086769 0.178013
0.736687 -0.274560 -0.173484
0.356006 -0.645141 -0.165063
0.739998 -0.274106 -0.172906
-0.353429 0.453804 0.173420
-0.739349 -0.267791 -0.172988
-0.738616 -0.269632 -0.171511
-0.030079 -0.650647 0.207644
0.733010 -0.637901 0.183614
0.361773 -0.630973 0.567510
-0.389891 0.085305 0.571788
-0.357511 0.443797 -0.521048
0.013038 0.846202 -0.530631
-0.718791 0.088177 0.178312
0.012775 0.847456 -0.532108
-0.743811 -0.639174 0.195518
0.013583 0.846430 -0.532481
-0.009667 0.837810 0.182495
-0.746559 0.463131 -0.160183
0.355512 0.436418 -0.498859
-0.361344 0.808389 -0.176504
0.371533 -0.306701 -0.545971
0.737036 -0.275107 -0.172916
-0.738165 -0.268352 -0.169661
-0.726269 0.103098 -0.515349
0.363585 0.850684 -0.179272
0.370536 0.073851 0.558858
0.355325 -0.643531 -0.163543
0.371759 -0.306262 -0.544207
-0.358778 0.444340 -0.522036
-0.009705 0.838095 0.181446
0.012392 0.847362 -0.533509
-0.736808 -0.269305 -0.171224
-0.725497 0.103791 -0.513506
0.348153 0.465367 0.180490
-0.740256 -0.640302 0.195351
-0.350348 0.453840 0.172994
-0.369473 -0.295133 -0.538161
-0.723545 0.102871 -0.514677
-0.359217 -0.646676 0.583666
0.730040 0.109064 -0.529856
0.347736 0.465376 0.180176
0.018144 0.477665 0.571696
-0.724294 0.104237 -0.515088
0.737283 -0.275170 -0.173515
0.355358 -0.645398 -0.163762
-0.370364 -0.296980 -0.539056
-0.718674 0.086539 0.178034
0.729943 -0.269131 0.588684
0.743441 0.071558 0.179928
-0.357977 0.444045 -0.520937
-0.007918 -0.301673 0.567969
0.346933 0.467065 0.179153
0.013303 0.847591 -0.531744
0.371025 -0.306562 -0.544288
-0.008187 0.839513 0.181456
-0.362745 0.809137 -0.178891
-0.368388 -0.295531 -0.539917
-0.734059 -0.285948 0.576828
-0.351696 0.455706 0.171625
0.348112 0.467264 0.178968
-0.719570 0.087131 0.177866
0.014800 0.846181 -0.533472
-0.008325 -0.299033 0.568681
-0.029075 -0.649666 0.207980
-0.356576 0.442746 -0.520260
0.743682 0.071602 0.179892
0.737610 -0.273216 -0.172595
0.370129 0.073277 0.557527
-0.741900 -0.638601 0.196801
0.732212 -0.269901 0.588959
-0.363090 0.809276 -0.176194
-0.739932 -0.266927 -0.171378
-0.372256 -0.298014 -0.539124
-0.354635 -0.633329 -0.152936
0.731210 -0.640003 0.183708
-0.390938 0.086582 0.572902
-0.745524 0.463394 -0.159031
-0.008146 -0.301536 0.568334
-0.356757 -0.631440 -0.153954
0.363350 -0.632788 0.565625
0.354895 0.435793 -0.502315
0.016170 0.847974 -0.531854
-0.360775 0.810531 -0.177046
-0.030174 -0.650648 0.207668
-0.006418 -0.300884 0.567476
0.014381 -0.679757 -0.535378
-0.745985 0.462268 -0.158747
0.361747 -0.631680 0.566354
0.737580 -0.275446 -0.176438
-0.362013 0.811125 -0.176268
-0.391763 0.084302 0.571651
-0.352900 0.455685 0.173586
-0.361934 0.809635 -0.175032
0.348105 0.464634 0.179588
-0.718993 0.087940 0.178630
0.737914 -0.272257 -0.171599
-0.356987 -0.645516 0.580666
-0.361852 0.809854 -0.176881
-0.363719 0.809312 -0.177609
0.365853 0.851904 -0.180781
-0.354605 -0.631850 -0.152959
0.740439 0.465284 -0.182740
0.731914 -0.268219 0.587110
-0.361972 0.810988 -0.175405
-0.720792 0.085255 0.180596
-0.371673 -0.296768 -0.539303
-0.747024 0.462776 -0.158289
-0.357933 0.443920 -0.521251
-0.725759 0.102949 -0.515071
0.732063 -0.634785 0.185776
-0.357850 -0.645431 0.582178
0.731235 -0.267658 0.591820
-0.030234 -0.651252 0.209878
0.739988 -0.273749 -0.172758
-0.389612 0.084481 0.574417
-0.390834 0.084973 0.573420
-0.719706 0.086845 0.178468
-0.357118 0.443972 -0.520102
-0.008773 0.837891 0.181105
-0.353799 0.453958 0.172934
-0.364116 0.808437 -0.176472
-0.739723 -0.269401 -0.171505
0.015097 0.846777 -0.530666
-0.740975 -0.640105 0.194807
0.738662 0.465195 -0.181110
-0.029396 -0.651095 0.206857
0.737209 0.465561 -0.182930
-0.369595 -0.296767 -0.538719
-0.007884 0.839149 0.180073
-0.737980 -0.268691 -0.171063
-0.007136 -0.300124 0.567186
0.363142 -0.632725 0.565804
0.731288 -0.268418 0.589620
-0.743774 0.463921 -0.160272
-0.389692 0.084372 0.572025
-0.746162 0.462183 -0.157271
0.738039 -0.274792 -0.172989
0.012813 -0.680071 -0.536321
0.737594 0.465029 -0.182976
0.738509 -0.271510 -0.171935
-0.352018 0.454493 0.171214
0.014271 0.846781 -0.531426
0.364517 0.853114 -0.180000
-0.746565 0.461957 -0.158370
0.020095 0.478736 0.569233
-0.392578 0.084829 0.573668
-0.358554 -0.646730 0.582913
0.015767 0.075241 -0.488601
0.369452 0.075674 0.556415
0.732254 -0.638648 0.183639
-0.030747 -0.650346 0.207327
-0.009043 0.839944 0.181096
0.348050 0.466684 0.178797
0.744131 0.073544 0.179270
-0.007304 0.839337 0.179661
-0.735897 -0.285100 0.576725
0.368990 0.075011 0.555326
0.370827 -0.305548 -0.543100
-0.008719 0.838851 0.180229
0.733352 -0.637251 0.185651
0.739119 -0.273076 -0.172134
-0.391442 0.085927 0.574042
0.736780 -0.274731 -0.172753
-0.720053 0.087329 0.178486
0.369392 -0.306180 -0.545374
0.732307 -0.637452 0.185067
-0.008982 0.838522 0.181986
-0.357851 0.443629 -0.522011
-0.351722 0.455050 0.171272
0.363044 0.851207 -0.177274
0.730010 -0.267905 0.591910
-0.725891 0.102057 -0.514187
0.730384 -0.268272 0.591890
-0.720234 0.088689 0.179790
0.738471 0.467130 -0.181797
0.364175 0.850659 -0.179541
0.368165 0.071593 0.557635
-0.734299 -0.284557 0.577133
0.739946 0.464162 -0.182243
0.743043 0.074499 0.178537
0.368342 0.073859 0.557444
0.012941 -0.678563 -0.534327
-0.357559 0.444234 -0.519321
0.731450 -0.268841 0.589208
-0.008191 -0.302179 0.566803
-0.391380 0.085217 0.574150
-0.725773 0.103316 -0.513997
0.362210 -0.628846 0.566727
-0.360168 0.442595 -0.519481
0.732773 -0.637829 0.185724
-0.007823 -0.299251 0.567264
-0.390161 0.085788 0.572756
-0.727873 0.103783 -0.514138
-0.357086 0.443859 -0.521078
0.015199 0.073821 -0.490596
0.738544 -0.272516 -0.171116
0.366692 0.850629 -0.176720
0.739751 -0.273835 -0.174682
0.018005 0.477925 0.569696
0.017071 0.074548 -0.489531
0.744780 0.072242 0.179216
0.354218 0.435231 -0.499222
0.368945 0.073670 0.556292
0.355879 -0.644547 -0.164354
