OFF
256 0 0
-0.723122 -0.663722 0.199354
-0.001396 -0.651078 0.200028
-0.344363 0.441056 0.176380
0.350233 0.814736 -0.169980
0.692636 -0.284519 0.578949
0.361608 0.478459 0.178932
0.348183 0.436946 -0.536650
-0.365419 0.060258 0.542320
0.017420 -0.296187 0.565127
-0.351363 0.829559 -0.175539
-0.013352 0.066965 -0.549279
0.362472 -0.251967 -0.515652
0.348117 0.435976 -0.535677
0.350001 0.815662 -0.173061
-0.723256 -0.663096 0.199020
-0.740219 -0.277111 0.560848
0.363177 0.478936 0.178953
-0.008234 0.818832 -0.524253
0.017936 -0.298595 0.565440
0.368236 -0.637354 -0.152580
0.694639 -0.285028 0.577933
-0.722865 -0.662196 0.198563
0.741835 0.459217 -0.183951
-0.001803 0.426724 0.575500
0.364231 0.122820 0.568936
-0.003053 0.427587 0.574346
0.351227 0.815533 -0.171090
0.368575 -0.652811 0.557137
0.027500 0.840082 0.203579
-0.370601 -0.636480 0.573652
-0.344513 0.444347 0.176901
-0.375568 0.451070 -0.520439
0.369322 -0.636724 -0.150681
-0.343904 0.442951 0.175648
0.361359 -0.249576 -0.515902
0.738152 0.087283 -0.534292
-0.013359 0.063651 -0.547871
0.360910 -0.249587 -0.515487
0.722345 -0.636646 0.215577
-0.372502 -0.628479 -0.164653
-0.700097 0.076130 -0.529817
0.346513 0.433961 -0.536349
-0.702350 0.073898 -0.529626
0.358971 -0.250916 -0.516183
0.743699 -0.268235 -0.148706
-0.372347 -0.627484 -0.164321
-0.002627 -0.650875 0.198882
-0.708202 0.097137 0.194765
0.745153 -0.267059 -0.145870
0.006159 -0.623120 -0.497411
-0.708318 0.095503 0.193163
-0.366422 0.060112 0.541053
-0.016398 0.064602 -0.549721
0.347167 0.437425 -0.537183
0.693511 -0.283628 0.580139
0.004652 -0.624812 -0.496975
-0.700229 0.074201 -0.530442
-0.707750 0.098294 0.196015
0.368433 -0.652019 0.555616
-0.007355 0.819293 -0.526131
-0.701427 0.076045 -0.530105
-0.365792 0.057014 0.542208
-0.706940 0.097312 0.193909
0.021060 -0.300167 0.564697
0.743346 0.459430 -0.183239
0.741965 0.458452 -0.182887
0.366766 0.121909 0.567697
-0.371947 -0.627423 -0.164380
-0.001034 0.428025 0.574874
0.693174 -0.283198 0.578843
0.693632 -0.281632 0.579222
0.365346 0.123246 0.567018
0.350795 0.813999 -0.172197
-0.002148 0.425053 0.573921
0.349734 0.435936 -0.536815
0.004017 -0.623257 -0.497371
0.693468 -0.282358 0.579951
-0.003786 0.426010 0.576435
0.003394 -0.622103 -0.498287
0.736609 0.089082 -0.535045
-0.707550 0.097501 0.197397
0.362068 0.477380 0.179564
0.350441 0.814742 -0.170845
0.360807 -0.251570 -0.516775
-0.739126 -0.275171 0.561703
0.741971 0.459516 -0.183110
0.006269 -0.621115 -0.496538
0.745494 -0.268524 -0.146200
0.722618 -0.637283 0.216148
-0.003638 0.425800 0.573121
-0.351675 0.829184 -0.174366
0.746118 -0.269339 -0.148530
-0.351787 0.830227 -0.174015
0.704021 0.107285 0.185340
0.745915 -0.268570 -0.150015
-0.345924 0.442278 0.176200
-0.757982 0.467440 -0.155420
-0.700326 0.075753 -0.531593
-0.370101 -0.637874 0.574152
0.346266 0.436868 -0.536411
0.365978 0.122163 0.565801
-0.344242 0.444024 0.176128
0.367378 -0.654122 0.556675
0.367777 -0.654068 0.555764
-0.375252 0.451100 -0.522174
-0.345446 -0.309546 -0.553667
-0.372004 -0.628010 -0.163156
0.017393 -0.299760 0.565517
0.370386 -0.637558 -0.151760
0.369447 -0.653691 0.555762
0.743278 -0.267886 -0.148738
0.368412 -0.639223 -0.150619
0.743484 -0.266992 -0.148703
-0.373498 0.454167 -0.521593
0.744673 -0.268116 -0.150201
-0.015730 0.064636 -0.550403
0.028286 0.842124 0.205137
-0.001945 0.426080 0.573183
-0.344101 0.444221 0.176319
-0.759282 0.467090 -0.152445
-0.348312 -0.311344 -0.553462
0.367187 -0.654951 0.555515
0.704048 0.107271 0.185858
0.364742 0.123162 0.566867
0.737850 0.087283 -0.535828
-0.014501 0.064455 -0.550239
-0.369411 -0.635078 0.573901
0.702667 0.106503 0.183261
-0.375337 0.451265 -0.522422
0.350134 0.813576 -0.171763
-0.371217 -0.628505 -0.165605
-0.344350 0.441475 0.175867
0.693401 -0.283930 0.579005
-0.758077 0.466079 -0.154970
0.020689 -0.297962 0.565155
0.366759 -0.652114 0.556606
0.363007 0.478399 0.179981
0.362106 -0.250281 -0.514673
0.704474 0.108291 0.183796
-0.375688 0.450822 -0.520607
-0.368485 -0.637499 0.574080
-0.344013 0.443735 0.177721
-0.008379 0.821015 -0.524922
0.722878 -0.636470 0.215199
-0.014465 0.064393 -0.547896
0.691953 -0.284086 0.581478
0.743407 -0.267072 -0.146614
-0.756081 0.467735 -0.154422
-0.012662 0.065503 -0.547398
0.704083 0.104706 0.184880
-0.014688 0.064955 -0.549361
-0.374259 -0.627631 -0.163042
-0.736917 -0.265433 -0.159799
-0.347492 -0.310062 -0.554215
0.027274 0.840131 0.202056
0.003392 -0.623349 -0.495391
-0.700047 0.073961 -0.528105
-0.344752 0.442174 0.177345
0.346419 0.435388 -0.536011
0.361490 -0.251483 -0.514826
-0.014860 0.063605 -0.548287
-0.346156 -0.310631 -0.553228
0.003542 -0.625051 -0.496510
-0.373345 0.451195 -0.520196
-0.371697 -0.628966 -0.165300
-0.347323 -0.310735 -0.553027
0.368612 -0.638819 -0.150915
0.362274 -0.250154 -0.515165
-0.376622 0.449690 -0.521024
-0.702452 0.075938 -0.528142
-0.723933 -0.660435 0.199238
-0.709262 0.097851 0.195699
0.743335 0.458837 -0.180919
0.363229 0.479172 0.179049
0.703607 0.108329 0.185962
-0.722883 -0.661737 0.199376
-0.008367 0.820060 -0.527027
0.741717 0.460484 -0.182074
0.693385 -0.285064 0.578401
-0.000861 -0.649622 0.199223
0.365792 -0.651597 0.555998
-0.371367 -0.627809 -0.163814
-0.375320 0.450744 -0.521187
-0.345496 0.443599 0.175374
-0.701730 0.075632 -0.529031
0.736795 0.086402 -0.532567
-0.375986 0.450127 -0.522097
-0.701204 0.077352 -0.531026
-0.351962 0.827579 -0.174382
-0.369288 -0.638090 0.572525
0.347004 0.435394 -0.536470
0.368468 -0.637134 -0.151845
0.371080 -0.636675 -0.150330
-0.003619 0.428303 0.574911
0.744920 -0.267726 -0.148811
0.027247 0.840264 0.203438
-0.348528 -0.312072 -0.555531
-0.371928 -0.629430 -0.162137
-0.352145 0.831003 -0.173298
0.738752 0.087439 -0.535190
0.738860 0.089012 -0.534827
0.005307 -0.623611 -0.496800
-0.737159 -0.267990 -0.160078
-0.344958 0.444376 0.174763
0.005511 -0.623664 -0.497263
-0.001664 0.427962 0.574795
-0.373530 -0.626522 -0.164185
0.361485 -0.247963 -0.512747
0.368645 -0.636362 -0.149788
0.364329 0.121100 0.568768
-0.346887 -0.308696 -0.554700
-0.002489 -0.648882 0.195953
-0.723297 -0.662339 0.197545
-0.372889 -0.627565 -0.164899
0.737616 0.087317 -0.534594
0.362818 -0.250805 -0.516455
0.028409 0.841513 0.201584
0.723058 -0.636904 0.216558
0.745146 -0.270312 -0.147496
0.743948 -0.267426 -0.149064
-0.707871 0.096454 0.194159
-0.373411 -0.628367 -0.163966
0.703642 0.106540 0.184222
-0.345647 0.443020 0.175803
-0.345422 0.443040 0.175092
0.702522 0.106870 0.184607
0.364819 0.123611 0.569460
0.723840 -0.637336 0.216707
-0.739190 -0.276215 0.559780
-0.368319 0.059930 0.540518
-0.365946 0.060675 0.541726
-0.008928 0.821388 -0.527187
-0.353262 0.829845 -0.176018
-0.736704 -0.265728 -0.161068
0.369232 -0.636473 -0.150823
-0.372062 -0.627721 -0.164757
-0.345014 -0.312209 -0.555727
0.362859 0.478953 0.181034
0.346828 0.436504 -0.536818
-0.757923 0.466830 -0.152826
-0.367303 0.060349 0.540388
-0.350059 0.829150 -0.174639
0.368613 -0.636677 -0.150620
-0.705791 0.096667 0.195318
-0.345503 0.444340 0.174972
-0.722974 -0.662582 0.199805
-0.008727 0.819836 -0.526317
-0.759372 0.467631 -0.155159
0.347464 0.434256 -0.536845
0.017270 -0.298041 0.563980
0.747294 -0.269126 -0.148076
-0.007307 0.820395 -0.524664
0.363371 0.479288 0.178832
-0.000374 0.425559 0.573803
0.692709 -0.283792 0.579196
0.744648 -0.266777 -0.148072
