OFF
256 0 0
0.588591 -0.390688 0.587493
-0.587511 -0.392544 -0.588423
-0.587629 -0.391041 -0.586746
0.196690 -0.000041 0.589307
0.196236 0.784564 -0.195344
0.194137 0.000611 0.587662
-0.587258 -0.394254 0.195532
-0.590375 0.394338 -0.587610
0.195925 0.784298 0.587365
0.588728 0.392366 0.587521
0.587411 -0.783367 0.196053
-0.589247 0.000048 -0.196238
-0.589949 -0.000210 0.588672
0.195972 -0.783524 0.587119
-0.196127 0.390980 0.587340
0.196274 -0.784570 -0.195718
-0.588720 0.393155 -0.588996
-0.589301 0.393191 -0.588551
-0.587645 0.391427 -0.590544
0.587407 0.001423 -0.588592
0.588987 -0.000400 -0.587286
0.195436 0.392075 -0.587761
-0.196552 -0.784306 -0.588901
0.195943 0.391608 -0.589385
0.588312 -0.784340 0.196717
-0.587408 -0.393250 -0.587012
-0.588675 -0.784258 -0.194515
-0.589047 -0.390564 0.195595
0.588502 0.393065 -0.197539
-0.587434 0.391966 -0.589081
0.195805 0.785272 0.588284
0.587993 -0.391452 -0.196417
-0.196186 -0.784242 -0.590240
0.587819 0.391493 -0.196890
0.196941 0.784659 -0.196793
0.197535 0.392778 -0.589826
-0.197749 0.390871 0.588819
-0.587821 -0.784746 -0.194603
-0.196681 -0.391276 0.588770
0.196537 0.786150 0.587875
-0.587349 -0.783013 -0.196015
0.196874 0.000331 0.586546
0.586090 0.785201 0.195609
-0.196825 0.393833 0.588124
0.588222 0.783479 0.196091
0.197439 0.783120 0.589488
-0.589484 0.783974 -0.196262
-0.587688 -0.392966 -0.588778
-0.197127 -0.784297 -0.589817
-0.589901 0.391000 -0.587683
-0.588319 -0.784502 -0.197474
0.196519 -0.391535 -0.588433
-0.196310 -0.785230 0.196721
-0.197353 -0.783754 0.195262
0.588440 0.000699 0.195646
-0.588536 -0.783025 -0.194805
0.590176 -0.785134 0.197572
0.196627 0.000616 0.588965
-0.196977 -0.784587 -0.587674
-0.589223 0.783853 -0.196704
-0.196886 0.785887 0.195941
-0.196009 -0.784852 0.196175
-0.197272 0.392881 0.589470
0.587892 -0.001941 -0.587119
0.196480 -0.000670 0.587335
0.586322 0.391032 -0.196306
-0.197350 -0.785319 -0.588691
-0.589845 0.392764 0.193686
0.585173 0.000469 -0.588265
0.587297 0.784133 0.195382
-0.195606 0.393696 0.588123
0.196774 -0.784102 0.588576
0.586680 -0.392442 -0.196823
0.197468 0.390940 -0.587700
-0.197417 0.391255 0.589724
-0.195411 0.786803 -0.588935
-0.197502 -0.785427 -0.588187
-0.587416 0.784531 -0.195750
0.587836 0.394094 -0.195243
0.586488 -0.786749 0.195287
-0.587381 0.392545 -0.588219
0.588726 0.393641 -0.196659
-0.589018 -0.391379 -0.587837
0.588408 -0.390732 -0.196132
-0.588429 0.785245 -0.194018
0.588511 -0.392857 0.587555
0.197409 0.785089 0.587168
-0.589450 -0.783625 -0.195897
0.195397 -0.785744 -0.195554
0.589066 0.000995 0.197018
-0.589745 0.001282 0.590642
0.196551 0.392062 -0.587229
0.588916 -0.784181 0.196293
0.588770 -0.000179 -0.588103
0.588472 -0.392680 -0.196749
-0.588395 -0.390226 0.197237
0.194424 -0.784547 0.590392
0.587811 -0.001670 0.196605
-0.588878 0.784199 -0.196159
0.588432 0.390493 -0.195944
0.196268 0.392585 -0.588933
-0.590257 -0.393173 0.195296
0.588988 -0.393824 -0.195015
0.589199 0.392314 -0.194972
-0.197527 0.000259 -0.588946
0.194212 -0.785792 0.584682
-0.587451 -0.392229 0.194707
-0.589683 0.391909 -0.588402
0.196279 0.392730 -0.588724
0.196881 -0.000148 0.588560
0.194975 -0.392298 -0.588698
-0.587771 -0.000287 -0.195565
-0.197402 -0.783698 0.195270
-0.196907 -0.000472 -0.587836
0.198110 -0.784939 0.588804
-0.195130 -0.784720 0.195790
-0.194783 -0.782473 -0.588637
0.196501 -0.783987 0.587008
-0.195909 -0.391329 0.587576
-0.587921 0.392212 0.195091
0.589270 -0.393237 -0.194642
0.194601 -0.785959 0.590301
0.588512 -0.392406 -0.195511
-0.196859 -0.784870 -0.589613
-0.588966 0.392599 -0.589225
-0.589477 0.783878 -0.196670
0.589276 0.392579 0.586816
0.586098 0.393039 0.589408
0.587469 -0.786452 0.197094
0.195404 0.000238 0.587848
0.587951 0.000108 -0.588933
0.194508 -0.392269 -0.587516
0.590114 -0.785357 0.195841
-0.197139 0.393616 0.587960
-0.588276 0.393233 -0.590617
-0.197000 0.782773 0.196553
-0.588903 -0.390892 -0.587357
0.196803 -0.784536 0.588317
-0.586704 0.392378 -0.587098
0.198061 0.783832 0.586646
-0.195735 0.784543 -0.589746
-0.197055 0.391199 0.590638
0.197024 0.391946 -0.586954
0.195850 0.784718 0.587604
-0.588312 -0.786065 -0.195556
0.588519 -0.000368 0.196284
-0.588153 0.391832 -0.588838
0.196603 -0.001763 0.588821
-0.195487 -0.393388 0.589101
0.588172 -0.784775 0.196705
-0.588564 0.392846 0.195472
-0.588143 -0.785140 -0.194420
-0.588317 -0.784819 -0.197325
-0.587987 -0.000240 -0.196278
-0.196161 0.784101 0.195783
0.587153 -0.393014 0.591530
0.587076 -0.000118 -0.588628
-0.586620 0.000942 -0.196457
-0.588448 -0.783394 -0.196408
-0.195581 -0.784852 -0.587180
0.197562 0.784204 0.587697
-0.587376 0.391202 -0.587772
0.194621 -0.784997 -0.195417
0.588593 0.784142 0.196307
-0.588947 0.783340 -0.196323
-0.586753 -0.001696 0.586977
-0.195937 -0.001788 -0.588891
0.195939 -0.392491 -0.586169
0.590953 0.391736 -0.197425
-0.196450 0.393782 0.586462
0.587927 0.392885 0.592045
0.587513 0.391789 0.586769
-0.590322 -0.391522 -0.588208
0.590542 0.391656 0.589611
0.588966 0.392806 -0.196483
0.588320 -0.784041 0.196539
-0.196748 0.786147 -0.587810
0.589806 -0.001203 0.195207
0.589754 0.391963 -0.197090
0.588054 0.000166 -0.589243
-0.196666 0.000263 -0.586455
0.589695 0.392145 -0.195712
-0.588991 0.394165 0.196245
-0.196021 -0.783766 0.196344
-0.590686 -0.783822 -0.195288
0.587093 -0.000849 -0.589209
0.195530 -0.785623 -0.197140
0.588891 -0.786159 0.195208
0.196362 -0.000665 0.588897
0.589528 0.392337 0.587513
0.590626 0.393906 0.588974
-0.587732 0.000604 -0.196091
-0.197151 -0.785445 0.195204
0.588097 -0.783895 0.196022
0.587298 0.392998 0.589106
-0.193450 0.390540 0.587700
-0.589089 -0.391101 0.197444
-0.197572 -0.784528 -0.590169
-0.587986 0.783190 -0.197354
-0.588910 0.392861 -0.586408
-0.196332 0.000999 -0.586860
-0.195473 -0.000396 -0.587900
-0.195368 0.784827 0.197565
0.587369 -0.393315 -0.194830
-0.196175 0.392332 0.588047
-0.195149 0.392446 0.588043
-0.586936 -0.785057 -0.195930
-0.196903 -0.784209 -0.588868
0.196609 -0.784390 -0.196676
0.589271 0.000497 -0.588170
-0.588898 0.003067 -0.196378
-0.587630 0.391195 -0.588068
-0.196318 0.785056 0.194432
0.589852 0.394188 0.588888
0.198333 0.391516 -0.587459
0.587654 -0.393142 0.586854
-0.588915 -0.000890 0.587176
0.195608 -0.785293 0.588552
0.588739 0.784534 0.195484
0.197567 0.785254 0.588732
0.195984 0.783005 -0.197725
-0.197364 0.785149 -0.589510
-0.586086 0.001548 -0.197505
0.195659 0.000899 0.587623
0.195762 0.392658 -0.588302
-0.587713 -0.784940 -0.196296
-0.194415 0.785332 -0.588315
0.195056 -0.392061 -0.587810
0.588491 -0.390631 0.589405
0.589440 -0.002037 0.194924
0.587847 -0.392735 0.586617
-0.589274 -0.002350 0.587764
-0.587044 0.392549 0.198056
-0.587849 0.001909 0.587436
0.589724 0.393554 -0.196767
-0.587894 -0.785468 -0.195716
-0.587630 0.000645 -0.195022
-0.194877 0.000521 -0.589257
0.196170 -0.784322 -0.196576
0.196800 -0.391796 -0.588571
0.195079 -0.392460 -0.586650
-0.196661 0.786281 0.195175
0.194637 0.784377 -0.195834
0.194655 0.784762 0.587416
-0.587061 -0.001413 0.588180
-0.197172 0.391087 0.587172
-0.196617 -0.391930 0.586556
-0.589540 0.000591 -0.196069
0.587831 -0.000171 -0.588813
0.196951 -0.000251 0.589196
0.589052 -0.393053 -0.194328
-0.195780 -0.785138 -0.590222
-0.586558 -0.000291 0.587779
0.587427 0.392442 -0.195537
0.195607 0.000552 0.588190
0.195972 0.785218 -0.195743
