OFF
256 0 0
-0.184439 0.770147 -0.603564
-0.184917 -0.004329 -0.549230
-0.590792 -0.389002 0.193388
0.206916 -0.387045 -0.598054
0.593656 0.398912 -0.228707
-0.555682 0.772255 -0.164749
-0.579220 -0.399702 -0.547476
-0.183991 -0.004547 -0.547517
0.171520 0.403139 -0.580268
-0.591925 -0.388588 0.190557
-0.590465 -0.388721 0.192680
0.564656 -0.396551 0.580384
-0.590919 -0.389242 0.189727
-0.173222 -0.767552 -0.555340
0.178696 -0.770097 0.556158
-0.184997 -0.004835 -0.548086
-0.565928 0.388914 0.206042
-0.184353 0.344723 0.587176
0.564492 -0.397034 0.582646
-0.183815 0.769827 -0.603255
-0.183985 -0.757770 0.164253
-0.173012 -0.766041 -0.554406
-0.565763 0.388465 0.206694
-0.567535 0.388904 0.206366
0.206152 -0.385936 -0.599668
-0.565450 0.389250 -0.554094
-0.561041 -0.002588 -0.191615
0.564415 -0.384409 -0.179162
0.563061 0.000416 0.206208
0.178498 -0.009460 0.553179
0.178054 -0.010014 0.554436
-0.183010 -0.757356 0.163080
-0.183132 0.769350 -0.603367
0.179597 -0.770479 0.554913
0.593330 0.397940 -0.227515
0.555316 0.395992 0.571926
-0.173099 -0.766161 -0.553861
-0.553702 0.769476 -0.166047
-0.173203 -0.768140 -0.555399
-0.185342 -0.755278 0.163244
-0.182710 0.344048 0.586803
-0.188361 -0.368052 0.543177
0.558079 0.394825 0.574179
0.169679 0.402829 -0.579808
-0.578168 -0.400461 -0.544288
0.190639 0.774193 -0.212676
-0.566215 0.387817 -0.553199
0.206766 -0.386587 -0.598265
0.179525 -0.009406 0.552655
-0.589735 -0.387670 0.190955
0.178271 -0.770037 0.555114
0.561811 -0.395912 0.582318
0.565087 0.000956 -0.591003
-0.555464 0.769825 -0.163837
0.558344 0.396257 0.574290
0.566118 0.000119 -0.590594
0.177732 -0.010035 0.553775
-0.187692 -0.369770 0.544152
-0.173633 -0.766086 -0.555259
0.565276 -0.395667 0.580345
-0.185345 -0.002782 -0.549256
0.176838 -0.008800 0.554225
0.563025 0.001713 0.205707
0.562731 0.001843 0.207104
-0.577202 -0.400446 -0.545998
-0.172847 -0.765756 -0.555540
0.205598 -0.387049 -0.598399
0.563143 -0.383940 -0.176244
-0.561640 -0.002078 -0.190149
0.566107 -0.395468 0.581731
0.559433 0.734856 0.182718
0.565930 -0.000767 -0.594035
0.187926 0.775343 -0.211183
0.160956 0.794145 0.586327
-0.187852 0.767936 0.208596
0.164126 0.793140 0.585718
-0.185007 -0.757271 0.163750
-0.566814 0.387406 -0.553764
-0.563368 -0.001947 -0.188600
-0.183812 0.770555 -0.602348
-0.563085 -0.778628 -0.185938
0.190799 0.774506 -0.211975
0.171580 0.403189 -0.579015
-0.565914 0.388851 0.204533
0.163908 0.792440 0.587087
0.560505 0.735173 0.181830
-0.564031 -0.776518 -0.186258
-0.187478 -0.368778 0.543160
-0.587943 -0.390506 0.192606
0.566134 -0.383717 -0.179426
-0.565661 0.387367 0.203935
-0.181384 0.344768 0.589066
-0.559965 -0.003744 -0.188547
0.595128 0.399188 -0.228361
-0.184218 0.769051 -0.602749
-0.555453 0.769514 -0.164718
0.190297 0.774871 -0.213164
-0.568147 0.388758 -0.552296
-0.189360 -0.369572 0.541941
0.188101 0.774554 -0.212534
-0.566303 0.386828 0.204884
0.178704 -0.010413 0.554670
-0.565458 0.387741 0.204821
0.177854 -0.009129 0.552253
0.179766 -0.769457 0.554847
-0.555222 0.771573 -0.166103
-0.578925 -0.398976 -0.545556
0.564052 0.000596 -0.592911
-0.555037 0.772463 -0.166220
0.200264 -0.771912 -0.182571
0.179138 -0.008583 0.553800
0.563089 -0.395693 0.582067
0.178842 -0.770616 0.556744
-0.187072 -0.370268 0.542366
0.178596 -0.009376 0.553321
0.200810 -0.770526 -0.181140
0.559443 0.738017 0.181095
0.170054 0.403924 -0.580576
-0.565428 0.387115 -0.552967
0.564170 -0.000398 -0.591025
0.170738 0.404139 -0.579425
-0.566476 0.386780 -0.553320
-0.567159 0.387971 -0.553507
0.178706 -0.010294 0.555220
-0.183668 -0.756169 0.163111
0.563725 -0.396143 0.582576
-0.578009 -0.400273 -0.548414
-0.185219 -0.004534 -0.549567
-0.559742 -0.001264 -0.189297
-0.561702 -0.778446 -0.185120
-0.182127 0.770523 -0.602760
0.189802 0.773389 -0.212605
0.165071 0.793826 0.586698
0.176667 -0.769583 0.555804
-0.589845 -0.387782 0.192893
-0.182766 0.346196 0.587005
-0.577571 -0.398777 -0.547686
0.593992 0.400901 -0.229186
0.565587 0.001554 -0.592619
-0.182737 0.769398 -0.602633
0.190673 0.777302 -0.212143
0.204709 -0.385027 -0.597117
-0.184011 0.344448 0.588221
0.560700 0.736764 0.180887
-0.554356 0.770650 -0.166841
0.206372 -0.384847 -0.598336
0.564960 -0.383583 -0.178270
-0.185275 -0.369110 0.543086
-0.586369 0.009103 0.576567
-0.579107 -0.400307 -0.547139
0.565179 -0.385321 -0.179121
0.161307 0.791596 0.586655
0.189127 0.773791 -0.211206
-0.561418 -0.000581 -0.189799
0.566214 -0.000270 -0.593336
0.599219 -0.764569 0.205796
0.565368 -0.396175 0.582072
0.164113 0.795108 0.585235
-0.183004 -0.755365 0.163709
-0.560358 -0.001134 -0.188523
0.563648 0.001716 0.207080
0.178292 -0.008321 0.554132
-0.555296 0.772030 -0.164884
-0.187648 -0.369018 0.542198
0.560000 0.738051 0.181661
0.170371 0.403495 -0.578579
-0.187398 -0.368633 0.544193
0.170969 0.404162 -0.582158
0.190259 0.774238 -0.211117
-0.577873 -0.397781 -0.545398
-0.172924 -0.765473 -0.556790
-0.578849 -0.398995 -0.544818
-0.183794 0.345297 0.587747
0.562298 0.003509 0.206397
-0.186803 -0.369647 0.544097
0.169906 0.404733 -0.579291
-0.566011 0.387999 0.206514
-0.189205 0.770967 0.209626
-0.173016 -0.765597 -0.554971
0.557308 0.396037 0.570913
-0.188662 -0.369035 0.542707
-0.578875 -0.399078 -0.546573
0.162512 0.793870 0.586140
0.162838 0.795256 0.585734
-0.182525 0.768433 -0.600489
-0.183205 -0.754932 0.163734
-0.590111 -0.389567 0.189460
-0.567827 0.387860 -0.552367
0.594882 0.396757 -0.227676
0.562100 0.003349 0.207136
0.598797 -0.764276 0.203540
0.189380 0.775156 -0.213019
-0.578872 -0.400835 -0.545244
0.188566 0.776034 -0.211958
-0.552844 0.770373 -0.166131
-0.186757 -0.368376 0.544507
-0.586403 0.008756 0.576195
0.162208 0.793357 0.585473
-0.567371 0.386346 -0.553059
0.170079 0.403810 -0.580861
0.564048 -0.382500 -0.179104
-0.183209 0.770367 -0.603646
-0.590196 -0.387405 0.192171
-0.182331 0.342637 0.588387
-0.563153 -0.775806 -0.185780
-0.181543 0.771281 -0.602119
0.564967 -0.383470 -0.178713
0.561422 0.736607 0.181458
0.164283 0.793748 0.585815
-0.185014 -0.756315 0.164859
-0.185636 -0.754953 0.165287
0.171981 0.404696 -0.578978
0.564243 -0.383086 -0.177675
0.202874 -0.772229 -0.181101
0.564811 -0.382926 -0.177749
0.178611 -0.010009 0.554697
0.170475 0.404924 -0.581086
0.564238 -0.396551 0.582504
0.177384 -0.769724 0.554158
-0.183422 0.770566 -0.600605
-0.188190 0.768916 0.207650
-0.561080 -0.004202 -0.190155
0.206539 -0.383523 -0.598210
-0.184241 -0.003851 -0.546721
0.566005 0.001857 -0.592510
0.557204 0.395410 0.573155
-0.186980 0.768481 0.209957
-0.563051 -0.777092 -0.186291
-0.566956 0.387645 -0.553584
-0.186792 0.769432 0.210498
0.560975 0.737330 0.182027
0.597640 -0.765284 0.201294
0.170917 0.404974 -0.581855
0.564373 -0.383849 -0.179063
-0.184555 0.768574 -0.603378
-0.182096 0.768703 -0.602517
-0.183229 -0.005842 -0.549155
0.592910 0.395974 -0.228118
-0.554208 0.771484 -0.164531
-0.577848 -0.399381 -0.546063
0.563011 0.000824 0.205500
-0.566261 0.387990 -0.554634
-0.580131 -0.399468 -0.545392
-0.561841 -0.778563 -0.185100
-0.587716 0.008311 0.575743
0.566235 -0.382125 -0.179309
0.564280 -0.395444 0.582030
-0.565068 0.387246 0.206955
0.169831 0.404487 -0.577616
0.558584 0.394486 0.574553
-0.560767 -0.778844 -0.183785
-0.589245 -0.388781 0.191493
-0.562590 -0.777768 -0.184929
-0.182472 0.345331 0.587093
-0.185952 -0.369107 0.544243
0.597693 -0.765485 0.203202
