OFF
256 0 0
-0.464439 -0.374051 0.545469
-0.799825 0.012390 0.555862
0.634179 0.384846 0.163415
0.631616 0.011288 -0.184048
0.657207 -0.724457 -0.201945
-0.074602 -0.374872 -0.565330
-0.437435 0.358511 -0.166343
0.277002 0.748022 -0.591484
0.280019 0.351197 0.541489
-0.843971 0.013517 -0.208381
-0.844889 0.014671 -0.209694
0.635627 0.384024 0.164527
0.625058 0.702056 -0.216227
-0.819477 0.361136 0.168991
0.652196 0.003292 0.526076
-0.436490 0.360822 -0.166728
-0.075113 -0.732526 -0.207562
0.632758 0.011486 -0.183167
0.621853 -0.369533 0.159488
-0.075784 -0.735442 -0.208151
0.280680 0.350387 0.542158
0.252341 -0.346996 0.505355
0.633608 0.011811 -0.185780
0.278782 0.350045 0.542048
0.657149 -0.724909 -0.202299
-0.436717 0.361179 -0.166281
0.289233 -0.727540 -0.554568
-0.473095 -0.368906 -0.197398
-0.472044 -0.368972 -0.197411
-0.062681 -0.725316 0.515356
0.633040 0.012448 -0.185978
-0.080686 0.731090 0.554783
-0.855604 -0.359426 0.165904
-0.101071 0.734628 -0.200736
0.658101 -0.368317 -0.572187
-0.464792 -0.375923 0.545461
0.280168 0.349425 0.542902
0.239194 0.748759 0.163750
-0.472556 -0.368988 -0.197880
0.251449 -0.346248 0.506559
0.251851 -0.347916 0.506577
0.653981 0.381327 -0.591485
0.658798 -0.726171 -0.201469
-0.462996 -0.374318 0.544198
-0.445025 0.001885 -0.555387
-0.856326 -0.358900 0.166485
-0.083225 0.732202 0.556061
0.637543 0.383317 0.163830
-0.472117 -0.367211 -0.198070
-0.062182 0.357816 -0.557208
-0.442839 0.369421 0.550863
-0.101397 0.735420 -0.199845
0.650749 0.002477 0.526523
0.252060 -0.346339 0.507921
0.277501 0.746539 -0.588438
0.238670 0.749261 0.164623
-0.429754 0.727685 0.189630
-0.444671 0.000561 -0.556502
-0.844823 0.014542 -0.206945
-0.101709 0.735422 -0.199801
0.275235 -0.766856 0.150702
0.635113 0.384865 0.165453
-0.427099 0.729628 0.189522
0.277041 0.746885 -0.590070
-0.063538 0.355534 -0.556572
0.277668 0.747893 -0.590114
-0.101132 0.735116 -0.200397
0.274881 -0.766703 0.148739
-0.428007 0.730434 0.191092
-0.444750 0.000632 -0.555081
0.632611 0.009331 -0.184375
-0.445525 0.002502 -0.556673
0.633765 0.384825 0.162821
-0.853736 -0.359319 0.166494
0.651091 0.001963 0.527179
-0.801308 0.011395 0.555370
-0.444178 0.002152 -0.556597
-0.081975 0.730484 0.556710
-0.081656 0.729218 0.555064
-0.817411 0.359246 0.171074
-0.074709 -0.374990 -0.566811
0.633239 0.011190 -0.184808
-0.817804 0.360428 0.170170
-0.471665 -0.368590 -0.197226
-0.473026 -0.368797 -0.197807
-0.436247 0.359296 -0.168299
0.652719 0.380064 -0.592544
-0.436760 0.361184 -0.167250
0.276481 0.747289 -0.590885
0.286880 -0.723692 -0.553459
-0.061351 0.358573 -0.556285
0.652953 0.381279 -0.593131
-0.077110 -0.736038 -0.208993
0.275161 -0.768418 0.149824
-0.122226 -0.002948 0.544961
0.621249 -0.370136 0.161022
-0.818873 0.361881 0.170161
-0.843132 0.016793 -0.209485
-0.854471 -0.359522 0.164363
-0.082834 0.731391 0.556289
-0.061437 0.358028 -0.557233
0.252155 -0.348214 0.506122
0.304602 -0.013218 -0.577443
-0.464425 -0.374208 0.545095
0.651246 0.002296 0.527964
0.657277 -0.724974 -0.201427
-0.062822 -0.724350 0.515094
0.252811 -0.346678 0.507679
-0.080680 0.731323 0.555385
-0.075540 -0.735103 -0.209367
-0.460181 -0.735206 0.148500
0.276959 0.747206 -0.589374
-0.441813 0.368639 0.550229
-0.445740 0.001145 -0.555719
-0.856065 -0.357925 0.164945
-0.429620 0.729200 0.189609
0.626520 0.704173 -0.217020
0.275608 -0.768417 0.150043
-0.853593 -0.358454 0.164298
-0.445001 0.002081 -0.557594
-0.845024 0.013827 -0.212643
-0.082460 0.728808 0.557137
0.305462 -0.014418 -0.575438
-0.082450 0.731572 0.555536
-0.101970 0.734872 -0.201060
0.624373 0.702955 -0.216798
-0.428611 0.727432 0.188129
-0.441424 0.370141 0.548467
0.288465 -0.725697 -0.554148
0.274845 -0.766611 0.149587
-0.122688 -0.005312 0.543266
-0.074786 -0.377327 -0.564152
-0.430881 0.729077 0.190652
0.290199 -0.726868 -0.554830
-0.061655 0.359257 -0.557582
0.622823 -0.370406 0.161907
0.633954 0.010383 -0.187229
0.620994 -0.368926 0.159671
0.633795 0.382057 0.165488
-0.465283 -0.375138 0.545275
-0.101358 0.734536 -0.200606
0.634794 0.382713 0.165866
0.239179 0.749200 0.163296
0.274426 -0.766729 0.149698
0.658960 -0.372097 -0.572283
0.651753 0.001629 0.525570
-0.082519 0.733471 0.554302
0.304375 -0.016015 -0.575872
-0.459294 -0.738392 0.150617
0.652484 0.382908 -0.593213
0.275076 -0.769767 0.150396
-0.083361 0.730103 0.557436
-0.842622 0.012925 -0.207450
-0.063839 -0.725580 0.516844
-0.443305 0.002453 -0.556929
-0.465814 -0.374966 0.543785
-0.075642 -0.736397 -0.209039
-0.473113 -0.367385 -0.197212
-0.446656 0.000707 -0.555002
0.238646 0.748201 0.164662
0.652535 0.380925 -0.592676
0.251257 -0.346777 0.506066
-0.431016 0.728840 0.190469
0.657572 -0.726191 -0.201077
-0.855608 -0.362140 0.166064
-0.076214 -0.736695 -0.210295
0.278412 0.746906 -0.590938
-0.444410 0.001132 -0.557171
0.658908 -0.725378 -0.202430
0.632199 0.010169 -0.183594
-0.854767 -0.359655 0.165867
0.623710 -0.368639 0.160373
0.280254 0.351955 0.540966
-0.073640 -0.375969 -0.563997
0.272783 -0.767655 0.149742
0.250815 -0.347365 0.506807
0.277504 0.746647 -0.586936
0.275664 -0.768198 0.149115
-0.461207 -0.736987 0.148905
-0.471254 -0.367847 -0.196155
0.624470 0.704065 -0.216801
-0.444093 0.003091 -0.557137
-0.102078 0.734250 -0.201275
0.288547 -0.728051 -0.553967
0.625641 0.704466 -0.216147
0.276813 0.747542 -0.591156
0.652008 0.003400 0.526507
0.635298 0.385397 0.163839
-0.062794 0.357512 -0.558800
-0.428678 0.730118 0.188776
-0.435509 0.359433 -0.167359
-0.061966 -0.724671 0.514337
-0.820188 0.362115 0.170255
-0.459603 -0.737352 0.150921
-0.442022 0.368511 0.549578
-0.444566 -0.000029 -0.556142
0.635051 0.384350 0.165347
0.276724 0.351764 0.540804
-0.818559 0.360840 0.169779
0.289195 -0.724228 -0.554378
0.276591 0.745851 -0.588873
0.252540 -0.346711 0.506221
0.620449 -0.368828 0.158854
-0.818612 0.362819 0.170492
-0.073901 -0.377384 -0.564921
-0.817335 0.361027 0.170845
-0.124333 -0.004776 0.542344
0.657285 -0.724802 -0.203213
-0.459825 -0.737217 0.149953
-0.122515 -0.003123 0.544046
-0.441282 0.368497 0.550594
0.278258 0.745807 -0.590480
0.652752 0.380681 -0.593484
-0.102270 0.733216 -0.200465
0.288519 -0.726429 -0.553874
-0.441960 0.369265 0.549641
0.658806 -0.372503 -0.574270
0.632562 0.010642 -0.186902
-0.798718 0.009521 0.555714
0.274502 -0.767993 0.149007
-0.842612 0.015713 -0.206964
-0.443489 0.367918 0.549304
-0.472855 -0.368002 -0.197815
-0.427222 0.728785 0.188980
-0.062279 -0.723343 0.515964
-0.123921 -0.005830 0.543555
0.239997 0.749048 0.163247
-0.471561 -0.366636 -0.198657
-0.463596 -0.372958 0.542487
-0.082989 0.731694 0.553126
-0.060588 0.359002 -0.557141
0.252265 -0.345972 0.507900
-0.445125 0.000405 -0.555769
-0.062305 0.359786 -0.556308
0.277312 0.747680 -0.590420
0.277566 0.748540 -0.590468
-0.075417 -0.735231 -0.210261
0.658406 -0.367202 -0.572458
-0.060650 0.358917 -0.555820
0.276357 0.747824 -0.590682
-0.124770 -0.003230 0.543482
-0.472557 -0.368002 -0.198521
-0.854346 -0.358847 0.167372
-0.459598 -0.736254 0.149272
0.250753 -0.347185 0.504736
-0.442916 0.368963 0.549561
-0.853498 -0.359704 0.166280
-0.436865 0.358979 -0.166178
-0.472161 -0.367329 -0.196470
-0.459076 -0.737638 0.151507
-0.471374 -0.365884 -0.199509
-0.818543 0.360703 0.170934
-0.076495 -0.736781 -0.208928
-0.444215 0.002217 -0.555811
0.623974 0.701590 -0.216280
-0.062668 0.357745 -0.557546
