OFF
256 0 0
0.264338 -0.724202 -0.552913
-0.817305 -0.361099 0.169370
0.637503 -0.379235 -0.568108
0.640574 0.724389 -0.185827
0.635081 -0.007149 0.534700
0.270031 0.355327 0.529563
-0.830375 0.003483 -0.204749
-0.423079 0.734088 0.180077
0.277069 -0.370549 0.543333
0.660099 -0.726490 -0.189961
0.639489 0.342278 -0.581305
-0.454979 -0.354770 -0.186998
0.659816 -0.726486 -0.190564
0.627966 -0.376196 0.174681
0.635924 -0.377709 -0.567843
0.635864 -0.379814 -0.565963
0.639686 0.343999 0.180222
0.309955 0.723635 0.172166
0.274456 0.739677 -0.564115
-0.086275 0.725381 -0.205131
0.658818 -0.725590 -0.190132
0.637213 -0.380254 -0.567233
0.271091 0.355279 0.532650
0.270686 0.355324 0.530971
-0.817396 0.356846 0.159095
-0.062176 0.733476 0.525851
-0.817409 0.359328 0.160225
0.263659 -0.723450 -0.552279
-0.817645 -0.363611 0.165920
-0.491408 0.007534 -0.568883
0.263404 -0.722715 -0.551849
0.263133 -0.725210 -0.552115
-0.440347 0.379223 0.513475
0.638526 -0.007719 0.534767
-0.095110 0.351522 -0.582942
0.636211 0.341895 -0.581660
0.623998 -0.375729 0.174889
-0.817569 -0.360640 0.173328
-0.063017 0.734239 0.525450
0.274910 -0.369583 0.540597
0.642821 0.724752 -0.187052
0.635817 -0.380524 -0.566210
0.636799 -0.008566 0.534150
0.636539 -0.007461 0.534392
-0.094840 0.354391 -0.584469
0.309312 0.723410 0.170960
-0.489963 0.008091 -0.569137
0.272365 0.736445 -0.563523
-0.831564 0.000469 -0.205835
0.624945 -0.378017 0.175000
-0.425183 0.374841 -0.213700
-0.087715 0.724373 -0.206430
-0.062437 0.734936 0.525392
-0.456567 -0.354777 -0.185956
0.641137 0.342485 0.181442
-0.460535 -0.728575 0.167127
0.309076 0.722788 0.170829
-0.439148 0.378556 0.513261
-0.792469 0.005368 0.511476
-0.095075 0.353127 -0.585302
0.640278 0.725566 -0.186184
0.261678 -0.715884 0.156642
-0.104420 -0.358140 -0.557477
-0.453395 -0.342309 0.510580
-0.437787 0.378756 0.512585
-0.104892 -0.357764 -0.554689
0.262756 -0.724141 -0.551590
0.264082 -0.724431 -0.552220
0.658674 -0.725467 -0.193116
0.636622 0.341260 -0.582736
-0.793438 0.005495 0.513334
0.661270 -0.726682 -0.191901
-0.106193 -0.356036 -0.555246
0.272736 -0.006821 -0.547960
0.660694 -0.724901 -0.192144
0.636850 -0.007862 0.534538
0.625410 -0.376010 0.175295
-0.452051 -0.340815 0.511582
0.262516 -0.724854 -0.552816
0.263803 -0.723989 -0.551900
-0.489193 0.007267 -0.568552
-0.111155 -0.733489 -0.196428
0.636500 -0.378974 -0.567579
-0.455330 -0.354038 -0.187835
0.641024 0.725854 -0.185339
-0.423133 0.735170 0.182587
0.269622 0.357363 0.531975
-0.080341 0.023147 0.532964
-0.081115 -0.728812 0.527941
0.659877 -0.729010 -0.190394
0.640988 0.725295 -0.186719
-0.819108 0.358823 0.159646
0.261321 -0.725506 -0.551156
-0.832348 -0.002525 -0.205218
-0.103480 -0.358355 -0.557044
0.627263 -0.006978 -0.190440
-0.461289 -0.726301 0.170265
0.636511 -0.380221 -0.567258
-0.488331 0.008718 -0.568463
0.659749 -0.728314 -0.189619
0.634048 -0.007131 0.533538
0.626711 -0.004862 -0.191247
0.624473 -0.376818 0.174579
-0.089199 0.725064 -0.206037
-0.108592 -0.733978 -0.197643
-0.109747 -0.731453 -0.195648
-0.794038 0.004508 0.512571
-0.424949 0.736184 0.178989
-0.438748 0.377647 0.513690
-0.450940 -0.342308 0.512583
-0.490196 0.008130 -0.569059
0.637031 -0.006776 0.534953
-0.088005 0.723993 -0.205433
0.308013 0.724802 0.172808
-0.451698 -0.341545 0.512297
-0.460005 -0.728230 0.170638
-0.456173 -0.353127 -0.188692
-0.094160 0.353358 -0.584168
-0.489531 0.008589 -0.568351
0.263615 -0.724014 -0.549917
0.626185 -0.376628 0.174062
-0.109396 -0.733276 -0.196417
0.625800 -0.377379 0.174783
0.638000 0.342549 -0.581932
0.624733 -0.376474 0.178485
-0.094882 0.353768 -0.585038
0.636328 0.342305 -0.583582
-0.061253 0.734678 0.526065
-0.422434 0.736068 0.180092
-0.104373 -0.358165 -0.556021
-0.817020 0.357804 0.161740
0.275783 -0.369965 0.542385
-0.094379 0.353002 -0.585847
-0.456196 -0.353519 -0.188503
-0.460258 -0.731222 0.169881
-0.438703 0.379622 0.511333
0.273750 -0.009985 -0.546783
-0.105766 -0.359718 -0.554820
0.662243 -0.725956 -0.190832
-0.820085 0.357477 0.161244
0.661418 -0.727369 -0.191887
0.272500 -0.008075 -0.545999
0.273905 0.736048 -0.562156
0.262625 -0.715853 0.156883
0.262498 -0.717337 0.154652
0.625454 -0.006274 -0.189400
0.639292 0.725118 -0.186960
0.272333 0.737355 -0.562765
0.626263 -0.005249 -0.189865
0.276147 -0.370888 0.541953
-0.455056 -0.353767 -0.188527
-0.490574 0.007219 -0.568569
0.628368 -0.005747 -0.189666
0.263122 -0.724523 -0.551042
0.262865 -0.717241 0.155573
-0.818147 0.357188 0.159160
0.263162 -0.723627 -0.551396
-0.456752 -0.353195 -0.185816
-0.489320 0.008973 -0.570268
0.273141 0.737510 -0.561374
-0.081393 -0.732626 0.528226
0.269759 0.353029 0.531315
0.635928 0.341544 -0.581539
0.273787 -0.009106 -0.547938
-0.109665 -0.733948 -0.197530
-0.093161 0.350725 -0.587405
0.270287 0.355986 0.530326
0.273680 0.739553 -0.562812
0.662221 -0.727446 -0.192002
0.263908 -0.723435 -0.549549
-0.062008 0.734636 0.526411
0.263332 -0.717166 0.158212
-0.438363 0.380150 0.510983
0.269884 0.356141 0.530892
-0.431046 0.377633 -0.213773
-0.794738 0.003486 0.513752
0.635312 -0.005843 0.535228
-0.088861 0.725853 -0.205351
-0.490451 0.007905 -0.569129
-0.105014 -0.360129 -0.554518
-0.450999 -0.340124 0.510063
0.640971 0.342879 0.181542
-0.063499 0.734078 0.526877
0.637060 -0.379170 -0.566841
-0.094298 0.350766 -0.585520
0.638161 -0.008761 0.535330
0.274769 -0.009464 -0.546305
-0.081125 -0.728876 0.528723
-0.106405 -0.354713 -0.556885
-0.457948 -0.353560 -0.187975
0.661085 -0.725686 -0.190161
-0.093290 0.352423 -0.583507
-0.103899 -0.358791 -0.556297
-0.793472 0.004535 0.513785
0.638898 0.723298 -0.184719
0.661029 -0.724985 -0.191956
0.308519 0.723522 0.171646
-0.427773 0.372800 -0.211534
-0.427786 0.373675 -0.215263
-0.109759 -0.732843 -0.195268
0.625590 -0.378477 0.173928
-0.832034 -0.001506 -0.205085
-0.438613 0.380151 0.512069
-0.424029 0.735248 0.178302
0.639174 0.342453 0.181083
0.623172 -0.377101 0.176018
-0.440069 0.380584 0.512648
-0.453255 -0.341160 0.510560
-0.061811 0.735824 0.524677
-0.093586 0.352578 -0.586176
-0.059910 0.735307 0.524699
-0.458757 -0.351750 -0.185467
-0.456325 -0.353912 -0.187192
0.624897 -0.377778 0.176278
-0.089520 0.723993 -0.203834
0.271424 0.356463 0.530414
0.308964 0.723007 0.172595
-0.430582 0.372765 -0.212840
0.261665 -0.716711 0.156410
-0.105932 -0.356194 -0.555267
-0.087795 0.724586 -0.206831
-0.453479 -0.340807 0.510063
-0.079836 -0.730673 0.529676
0.637748 -0.377618 -0.567390
0.628335 -0.006686 -0.189412
0.637257 0.341839 -0.583593
-0.094758 0.351727 -0.583709
-0.460111 -0.729282 0.170004
0.268956 0.355169 0.532863
0.271515 -0.009643 -0.546832
0.634527 -0.005996 0.533991
-0.109929 -0.732652 -0.197187
-0.816484 0.357349 0.162275
-0.061409 0.734482 0.525692
-0.490469 0.009862 -0.569628
-0.491559 0.008976 -0.566931
0.277434 -0.369030 0.542289
-0.103792 -0.357658 -0.555170
-0.085812 0.725431 -0.204707
-0.104595 -0.357806 -0.557040
-0.831749 -0.001984 -0.206211
-0.458216 -0.354772 -0.188314
0.659042 -0.727137 -0.190329
0.635601 -0.007657 0.535817
-0.794730 0.003474 0.512342
0.264963 -0.724493 -0.550873
0.636274 -0.380561 -0.569520
-0.830267 -0.000473 -0.203589
0.271383 0.354843 0.533202
-0.832958 -0.001668 -0.207709
-0.109824 -0.732237 -0.198211
-0.095675 0.352375 -0.585998
-0.078567 0.022037 0.533768
0.264486 -0.723714 -0.551930
0.274040 0.736556 -0.563541
-0.794291 0.004283 0.513800
