OFF
256 0 0
0.273079 -0.328814 0.519719
0.267301 0.729030 -0.542270
0.652869 0.730973 -0.196682
-0.075453 -0.716141 0.535706
-0.806581 -0.008272 0.535485
-0.439930 -0.704741 0.174607
-0.080326 -0.341288 -0.561086
-0.442305 -0.705309 0.174544
-0.077645 -0.342207 -0.560804
-0.444621 -0.008243 -0.579075
0.621780 -0.370359 0.147352
-0.445891 -0.008725 -0.580293
0.265817 -0.009629 -0.561248
0.628756 -0.727256 -0.196291
-0.077561 -0.341209 -0.562842
-0.088237 0.336263 -0.540123
0.272557 -0.330114 0.522380
-0.106550 0.682618 -0.185698
0.270159 -0.704925 0.135826
0.653346 0.730744 -0.198632
-0.436422 -0.345265 0.525385
0.652897 0.730512 -0.197994
-0.083857 0.685534 0.498113
0.268374 0.713514 0.148305
-0.816888 -0.369006 0.175214
-0.094686 0.036936 0.501443
-0.080327 -0.340478 -0.562146
-0.432076 0.327908 -0.163363
0.269943 -0.704345 0.135795
-0.435495 -0.342959 0.522753
0.267076 0.714559 0.146905
-0.806509 -0.010024 0.532743
0.628719 -0.347264 -0.532146
0.273517 -0.328655 0.521721
0.628655 -0.349825 -0.531246
0.634167 -0.013510 0.522152
-0.440187 -0.705705 0.174750
-0.074515 -0.717839 0.537112
0.268291 0.713374 0.146902
-0.073981 -0.716667 0.536217
0.265217 -0.720697 -0.569380
-0.435665 -0.342561 0.523950
-0.078057 -0.339935 -0.561575
0.271743 -0.329770 0.521173
0.635196 -0.014100 0.522612
-0.096696 -0.707546 -0.193600
-0.805958 -0.009399 -0.180715
0.653919 0.728979 -0.199400
-0.084332 0.687110 0.499422
0.653666 0.730560 -0.198731
0.651700 0.730142 -0.197847
0.273201 -0.330727 0.520078
0.284045 0.348880 0.509857
-0.442059 -0.705101 0.175697
-0.073405 -0.715581 0.535644
-0.436785 -0.344251 0.525489
-0.442301 -0.703196 0.174567
-0.108202 0.685927 -0.184387
-0.816601 -0.368715 0.174450
-0.088718 0.335581 -0.540909
-0.433408 0.705482 0.169849
-0.073059 -0.715316 0.535845
0.631486 0.378622 0.145174
0.269610 -0.329645 0.521267
0.269951 0.713745 0.148064
-0.082632 0.685302 0.499772
-0.433329 0.704066 0.171371
0.654054 0.730676 -0.198649
0.282850 0.348183 0.509290
-0.435343 -0.346127 0.524583
-0.439738 -0.705986 0.173662
-0.805221 -0.011120 0.535890
0.264697 -0.719029 -0.567755
0.265389 -0.010728 -0.559438
0.651307 -0.004999 -0.204754
-0.430653 0.702446 0.167173
-0.446985 -0.009141 -0.581409
-0.075802 -0.715653 0.535162
0.652006 -0.002824 -0.206100
0.283278 0.348270 0.511587
-0.801988 -0.009487 -0.178040
-0.084083 0.685574 0.500695
0.619350 0.362423 -0.542548
0.620703 0.361292 -0.541954
-0.084688 0.686681 0.500000
-0.097281 -0.704876 -0.192123
-0.812429 0.378477 0.179328
-0.077696 -0.341409 -0.559799
0.633996 -0.013514 0.523066
-0.442006 -0.705396 0.175299
-0.078896 -0.339601 -0.560934
0.650742 -0.005324 -0.206913
-0.078714 -0.340422 -0.561156
-0.431613 0.704110 0.170851
0.626607 -0.725619 -0.195516
0.630989 -0.349044 -0.532092
0.651208 -0.003753 -0.205638
-0.099543 -0.705577 -0.192773
0.273073 -0.331635 0.520386
-0.803956 -0.012324 -0.178957
0.621635 0.360275 -0.541252
-0.817115 -0.367801 0.174483
0.267760 0.729238 -0.539385
0.282915 0.349141 0.509172
-0.106726 0.685328 -0.185317
0.628568 -0.347856 -0.532433
0.626648 -0.726125 -0.196162
0.636725 -0.013659 0.522540
0.281585 0.349429 0.509306
-0.436358 -0.343573 0.522025
-0.083844 0.686201 0.498599
0.654622 0.730453 -0.200525
0.653294 0.729834 -0.198822
-0.445430 -0.008497 -0.581348
-0.806225 -0.007972 -0.181278
-0.441449 -0.705066 0.175810
0.267853 0.712534 0.147499
0.627544 -0.348606 -0.531055
-0.072936 -0.715596 0.535952
0.281236 0.346483 0.510519
-0.092164 0.039823 0.501859
0.265630 -0.012062 -0.557764
0.619833 0.359864 -0.541760
-0.806326 -0.012015 0.535183
0.281809 0.347943 0.511201
-0.082775 0.686478 0.497611
-0.807376 -0.009699 0.533753
0.270310 -0.703603 0.135409
-0.083026 0.685413 0.499322
0.266925 0.728881 -0.540289
-0.450389 -0.333476 -0.204693
-0.078753 -0.339320 -0.562420
0.628904 -0.348799 -0.531507
0.272446 -0.330044 0.520116
0.627933 -0.725940 -0.196231
-0.078627 -0.339817 -0.563634
-0.435860 -0.343048 0.525055
-0.074460 -0.714001 0.533150
-0.446086 -0.009258 -0.582180
0.269001 0.712190 0.147696
0.621199 0.360305 -0.540411
0.632306 0.376535 0.144384
-0.106933 0.683779 -0.184213
0.654237 0.729954 -0.198459
-0.444956 -0.009942 -0.579634
0.651259 -0.003833 -0.205352
0.267832 0.714171 0.148215
0.620630 -0.370364 0.148268
-0.446078 -0.009763 -0.577288
0.265172 -0.720865 -0.569001
0.269036 0.711387 0.149583
-0.449430 -0.333084 -0.204949
-0.812770 0.381520 0.181082
0.284095 0.347486 0.510624
-0.441155 -0.704154 0.174307
0.283228 0.347097 0.510645
0.633136 0.377044 0.143821
-0.805248 -0.009979 -0.181075
0.266604 0.729194 -0.540252
0.272108 -0.703092 0.136612
0.630174 -0.347986 -0.531264
0.263989 -0.718310 -0.568138
0.628999 -0.347388 -0.530996
-0.804833 -0.010055 -0.178608
0.634196 -0.012380 0.524255
-0.803922 -0.009128 -0.178716
-0.445207 -0.006991 -0.579853
-0.094630 0.037242 0.502262
0.633004 -0.013481 0.524014
0.620594 0.362353 -0.540525
0.648262 -0.004780 -0.204909
0.620204 -0.369707 0.148631
-0.807756 -0.010364 0.534359
0.631818 0.377388 0.144232
-0.451164 -0.334821 -0.204072
-0.086199 0.335508 -0.541272
0.634033 -0.013909 0.522285
-0.452114 -0.334673 -0.204351
-0.446148 -0.006866 -0.579359
0.270273 0.712345 0.147634
-0.818081 -0.367711 0.175617
-0.108354 0.685783 -0.185712
-0.085395 0.335567 -0.539498
-0.087912 0.335232 -0.540825
0.281697 0.348098 0.509847
-0.444210 -0.009250 -0.581712
-0.816864 -0.368860 0.173635
-0.816372 -0.367397 0.175292
-0.097545 -0.704684 -0.192214
0.266664 0.727520 -0.540944
0.631313 -0.349600 -0.530990
-0.430514 0.327670 -0.163067
-0.458204 0.354666 0.520425
-0.815019 0.380291 0.180479
-0.450037 -0.335043 -0.203825
0.619726 -0.370289 0.149019
0.269264 -0.703524 0.137448
-0.440512 -0.704863 0.175494
-0.084508 0.686218 0.498554
-0.434887 -0.344098 0.522864
0.271276 -0.704130 0.136154
-0.074283 -0.715364 0.534810
-0.082553 0.687248 0.497505
0.620619 0.358972 -0.543370
0.654236 0.730759 -0.196872
0.653178 0.730025 -0.196512
-0.437910 -0.343601 0.524571
0.626255 -0.729206 -0.195815
0.264893 -0.011408 -0.559730
0.269219 -0.703765 0.135890
0.284305 0.346785 0.508665
-0.805399 -0.009856 -0.177805
-0.806073 -0.011741 0.533355
-0.098879 -0.704892 -0.192155
-0.077988 -0.342616 -0.561941
-0.446692 -0.007629 -0.578002
-0.097943 -0.706002 -0.191326
0.633637 0.377789 0.144945
0.620761 -0.367251 0.148835
0.634868 -0.015039 0.520520
0.271085 -0.328830 0.520668
0.273409 -0.329998 0.520070
0.270826 -0.703449 0.136675
-0.457174 0.355440 0.520920
0.281368 0.347841 0.508996
0.265367 -0.009702 -0.560022
-0.450381 -0.333110 -0.206616
-0.430832 0.326906 -0.160819
-0.442672 -0.702198 0.175466
0.269567 -0.704429 0.135457
-0.811431 0.382394 0.178355
0.271417 -0.330027 0.519965
0.265419 0.728640 -0.540257
-0.098169 -0.705693 -0.191618
0.626424 -0.726007 -0.197470
0.267439 0.712357 0.145103
-0.108646 0.685275 -0.185839
0.651823 -0.003837 -0.205957
-0.436399 -0.343689 0.525464
-0.804715 -0.011032 -0.179824
0.633548 0.376408 0.144295
-0.075908 -0.714758 0.535918
0.628552 -0.726994 -0.195145
-0.448880 -0.333710 -0.205680
-0.088256 0.332494 -0.542813
0.654154 0.731436 -0.198798
0.262681 -0.720538 -0.569324
0.652921 0.730972 -0.197139
0.282496 0.347125 0.509664
-0.431987 0.325831 -0.160960
-0.807408 -0.011388 0.532773
0.269154 0.727137 -0.541939
0.626007 -0.346999 -0.530164
-0.446587 -0.008362 -0.579391
-0.434333 0.705088 0.171546
-0.806682 -0.009578 0.532745
