OFF
256 0 0
-0.323961 -0.054191 -0.751680
0.039900 0.288981 -0.744895
-0.314704 0.678901 -0.050330
-0.323683 -0.056545 -0.754090
0.051148 -0.379410 -0.741839
-0.671817 -0.023231 0.328004
-0.657966 -0.394448 -0.015659
0.718589 -0.048893 0.290711
0.719777 -0.048065 0.291611
0.045927 -0.387345 0.682537
0.373634 -0.042111 0.661704
0.375229 -0.038435 0.660165
0.039074 0.310876 0.672278
-0.299144 0.666527 0.668901
0.717847 -0.049876 0.291247
0.747998 0.306993 -0.051882
-0.677715 0.303574 -0.037856
0.411735 0.316296 -0.393765
0.042650 0.643148 -0.389105
0.373442 0.297113 0.313568
0.397241 -0.764256 -0.046712
0.389984 -0.397308 -0.399657
0.047962 -0.387229 0.679688
-0.672494 -0.024383 0.329145
-0.677094 0.301976 -0.039103
-0.319030 -0.740604 -0.040433
0.023544 -0.708706 0.301309
-0.323445 -0.376251 0.325424
-0.321789 -0.376736 0.327017
-0.308359 -0.385781 -0.386018
0.040569 0.292124 -0.744845
0.396585 -0.767251 -0.045409
0.040939 0.289534 -0.743486
0.374394 0.297082 0.311135
-0.314424 0.676081 -0.052439
0.055113 0.656431 0.307341
-0.318570 -0.741632 -0.038092
0.411001 0.317859 -0.393932
0.047908 -0.387587 0.681315
0.024322 -0.710584 0.300265
-0.322376 -0.057960 -0.754686
0.749467 0.307126 -0.050973
-0.681424 0.306605 0.660202
0.394480 -0.383136 0.325156
0.374035 -0.039679 0.660477
0.040988 0.289942 -0.745236
-0.683554 0.308715 0.664801
-0.322636 -0.374154 0.327060
0.042984 0.644061 -0.390478
0.056772 0.657794 0.306354
0.717285 -0.046919 0.291009
0.057110 0.656435 0.304732
0.041727 0.644729 -0.389529
0.754264 -0.401671 -0.049685
0.407809 0.645198 -0.044182
0.427325 -0.042568 -0.736105
0.055022 0.657620 0.307011
-0.315240 0.676987 -0.050439
0.040849 0.643875 -0.391025
0.039627 0.289908 -0.746171
0.050461 -0.380878 -0.742262
-0.645411 0.671434 0.310452
0.375360 -0.041295 0.660982
0.051755 -0.380444 -0.741057
-0.680081 0.309989 0.661534
0.037665 0.314116 0.675174
0.055708 0.657334 0.308125
0.039816 0.291163 -0.744380
-0.673471 -0.024746 0.328417
0.396155 -0.765442 -0.048368
-0.307537 -0.384270 -0.388369
0.037735 0.313165 0.674862
-0.299466 0.667996 0.667409
-0.677216 -0.052833 -0.404331
-0.321757 -0.055541 -0.753107
-0.295677 0.291724 -0.384587
0.426233 -0.042227 -0.739379
-0.292660 -0.015242 0.634926
-0.681747 0.308861 0.661606
0.372885 -0.040409 0.660705
0.373362 -0.040650 0.659624
-0.297107 0.293913 -0.383275
0.041244 0.645613 -0.388942
-0.321763 -0.375558 0.327107
-0.318768 -0.738031 -0.041573
0.029696 -0.745576 -0.400720
-0.657749 -0.393793 -0.016593
-0.678049 0.301672 -0.037147
-0.291233 -0.015746 0.634556
-0.657845 -0.393761 -0.014162
0.424878 -0.043307 -0.737226
-0.314042 0.679441 -0.051858
0.769062 -0.047467 -0.404681
0.717325 -0.047014 0.290135
-0.656898 -0.393221 -0.015613
0.372625 -0.041040 0.660243
0.025168 -0.709602 0.301243
-0.298760 0.668903 0.667486
0.050779 -0.378929 -0.741666
-0.320183 -0.739887 -0.039190
0.425796 -0.040095 -0.737340
-0.296179 0.292095 -0.383144
-0.315214 0.676855 -0.049614
0.028469 -0.746378 -0.400649
0.049052 -0.386467 0.679685
0.754444 -0.402087 -0.049597
-0.682601 0.310887 0.661662
-0.672646 -0.026029 0.328331
0.048187 -0.379650 -0.743453
0.410816 0.316521 -0.396789
0.769373 -0.047564 -0.405596
0.041538 0.645594 -0.389974
0.371348 0.298081 0.313398
-0.682316 0.310832 0.664346
0.411858 0.318824 -0.396803
-0.299056 0.668386 0.669648
-0.672710 -0.022237 0.329048
-0.323634 -0.055813 -0.752994
-0.291095 -0.014859 0.631337
0.388615 -0.397270 -0.398057
-0.290949 -0.016283 0.632525
0.038963 0.289957 -0.743502
0.395297 -0.384098 0.325823
0.038483 0.312275 0.673609
0.396348 -0.764439 -0.047826
0.410402 0.317942 -0.395334
-0.321507 -0.054940 -0.752088
0.027959 -0.745835 -0.402328
0.770758 -0.048407 -0.404287
0.041794 0.643431 -0.390465
0.021978 -0.710157 0.300969
-0.314256 0.678938 -0.049717
-0.315511 0.675994 -0.049170
0.405730 0.648214 -0.047080
0.426188 -0.041567 -0.738546
0.023632 -0.708738 0.299803
0.048269 -0.386232 0.679844
-0.299301 0.668827 0.670364
0.413553 0.318304 -0.394328
0.047875 -0.386434 0.682091
-0.324289 -0.374885 0.327025
-0.677608 -0.050772 -0.403741
-0.644148 0.671854 0.309236
-0.644173 0.670628 0.310229
-0.315562 0.676677 -0.052692
0.719474 -0.047611 0.291226
-0.309054 -0.382710 -0.385762
0.040054 0.643212 -0.391487
0.043147 0.645596 -0.388545
0.755355 -0.401454 -0.049166
0.426355 -0.041455 -0.738710
-0.644015 0.671389 0.309931
0.756684 -0.401750 -0.050230
0.037928 0.313530 0.673053
-0.318146 -0.741177 -0.039018
-0.290943 -0.015145 0.633051
0.050639 -0.380754 -0.741741
0.396049 -0.765195 -0.048071
-0.297671 0.669259 0.669420
0.039040 0.310342 0.673161
-0.319974 -0.739992 -0.038539
-0.681697 0.310563 0.662997
-0.320093 -0.740313 -0.039151
-0.645115 0.670973 0.309645
0.040231 0.292404 -0.745179
0.047702 -0.387299 0.679875
-0.323165 -0.375484 0.326147
-0.289688 -0.014586 0.634584
-0.291892 -0.016066 0.633273
-0.297383 0.668429 0.667969
0.040696 0.642729 -0.388750
-0.677626 -0.053323 -0.404535
0.029034 -0.747936 -0.403123
-0.671348 -0.022903 0.328751
-0.324849 -0.055260 -0.752860
-0.315226 0.675573 -0.050611
-0.677517 -0.052707 -0.404750
-0.297609 0.291567 -0.385341
-0.296296 0.290682 -0.382544
0.048477 -0.386204 0.678927
0.749802 0.306570 -0.051342
0.405474 0.646235 -0.045684
0.426562 -0.043357 -0.736979
0.395955 -0.763958 -0.045300
0.039774 0.311624 0.674851
0.050821 -0.379013 -0.742291
-0.683064 0.308404 0.660116
0.026913 -0.749054 -0.404262
-0.322997 -0.055516 -0.752600
-0.672790 -0.024090 0.327589
0.389423 -0.398691 -0.399655
0.030036 -0.745344 -0.401104
0.393603 -0.381872 0.324703
-0.297181 0.292127 -0.383243
-0.676444 0.300240 -0.040144
-0.683139 0.311077 0.662187
0.717069 -0.047222 0.292460
0.411183 0.318697 -0.393053
0.027698 -0.746586 -0.402982
-0.296706 0.293723 -0.384135
0.055804 0.659591 0.304632
-0.298987 0.668866 0.668538
-0.322849 -0.375492 0.326997
0.396725 -0.764115 -0.047137
0.718304 -0.046617 0.291473
-0.646095 0.670521 0.309972
0.395146 -0.380305 0.325284
-0.323012 -0.055068 -0.752741
0.405309 0.646263 -0.044114
-0.681978 0.310963 0.662325
-0.322957 -0.057402 -0.750773
0.389896 -0.399453 -0.398612
-0.656725 -0.393218 -0.014110
0.372830 0.298491 0.312224
0.408199 0.319113 -0.393592
-0.657549 -0.394448 -0.015201
-0.323226 -0.374373 0.327481
-0.298664 0.669158 0.667511
-0.298572 0.669516 0.668257
0.388860 -0.400658 -0.399245
-0.313869 0.676667 -0.049645
0.410662 0.318395 -0.394481
0.425554 -0.042996 -0.736638
-0.644438 0.672561 0.310960
0.039441 0.289099 -0.744695
-0.321514 -0.739354 -0.038657
0.425334 -0.043285 -0.737608
0.412931 0.317583 -0.393737
0.396922 -0.764707 -0.046104
-0.290952 -0.014263 0.634533
0.397511 -0.764196 -0.047392
-0.655762 -0.393424 -0.014219
0.371659 0.297819 0.312559
-0.679830 0.301701 -0.038214
0.374212 -0.040783 0.657583
0.045378 -0.387657 0.679285
0.051558 -0.377613 -0.742774
0.037225 0.310922 0.671515
0.047894 -0.386899 0.680383
0.395380 -0.765811 -0.048978
0.056029 0.657917 0.306279
0.754784 -0.399657 -0.048783
-0.322263 -0.375250 0.326789
0.411365 0.320172 -0.394624
0.026392 -0.745291 -0.402583
-0.291024 -0.014288 0.634345
-0.290098 -0.015165 0.633191
0.023934 -0.711878 0.301968
-0.318821 -0.739843 -0.038944
0.046284 -0.385653 0.681208
-0.308546 -0.385197 -0.387133
0.716050 -0.047609 0.290700
-0.299974 0.669086 0.667232
-0.290360 -0.016662 0.633583
-0.318457 -0.739712 -0.038222
0.048339 -0.379956 -0.741827
