OFF
256 0 0
0.495341 0.413883 0.414574
-0.605201 -0.319211 0.046968
-0.604288 -0.687624 -0.319230
-0.236918 0.782007 0.046988
-0.237705 -0.686634 0.048663
0.130125 0.783037 -0.319005
0.130231 -0.687306 -0.319195
0.497488 0.047683 -0.686842
-0.236544 -0.321363 0.415578
0.496223 -0.318668 0.417167
0.497074 -0.322166 -0.320194
-0.236030 0.048294 -0.687181
0.129847 -0.687496 -0.320002
-0.236309 0.047469 -0.688182
-0.237144 0.048452 0.780139
-0.237326 0.416461 -0.321264
-0.603596 -0.318783 -0.686985
-0.237915 -0.320288 0.415783
-0.234250 0.047863 -0.688009
-0.237690 -0.687747 0.046401
0.499320 0.047774 -0.687405
0.498556 -0.317955 0.416114
0.132246 -0.688965 -0.318874
-0.237833 0.046417 -0.686828
0.128856 0.414798 -0.686212
-0.237319 -0.686711 -0.686797
0.497001 -0.319326 0.414551
-0.605460 -0.688330 -0.319504
-0.237059 -0.319828 0.414554
-0.604585 0.046587 -0.320747
0.498863 0.780940 0.047335
0.497222 0.414460 0.413554
-0.604624 0.416089 0.045845
-0.237909 -0.686395 0.047413
-0.236945 0.412603 -0.320102
-0.237923 0.046778 0.780990
-0.236072 -0.687540 0.047019
-0.237533 -0.685851 0.047919
0.496961 0.414679 0.414337
-0.604218 0.047159 -0.319636
-0.236725 0.045403 0.781159
-0.604318 -0.320069 -0.688447
-0.237080 0.046388 0.782372
0.129795 -0.686888 -0.320257
0.129365 0.414506 -0.685799
-0.238053 0.415408 0.413938
0.498467 0.049430 -0.688333
0.129496 0.781791 -0.318763
-0.605136 -0.321244 0.048015
-0.238125 -0.688324 0.048376
-0.603049 0.414705 0.046614
0.497402 0.412995 0.415323
0.497987 -0.319736 -0.319824
0.497700 -0.320080 0.413812
-0.604186 -0.319810 0.048490
-0.238685 0.414880 -0.319078
0.130490 0.780401 0.416077
0.130530 0.781890 -0.320006
-0.603072 0.414418 0.046614
-0.603162 0.048760 -0.319068
0.130211 0.413535 -0.686973
0.498350 0.414316 0.412331
-0.604811 0.413427 0.044773
-0.605295 -0.687474 -0.318878
0.131141 -0.321144 -0.687630
-0.602057 0.414942 0.047000
0.497398 0.046598 0.047560
0.497440 0.414478 0.414522
0.128559 -0.320456 0.783084
-0.235152 0.047302 -0.688858
-0.602959 -0.685442 -0.320328
-0.236763 0.413040 0.413952
-0.238139 -0.685765 0.047752
-0.236495 0.046648 0.782833
0.498509 -0.319780 -0.319861
0.496401 0.781549 0.048279
-0.238716 -0.319366 0.415650
-0.236278 -0.685560 0.047281
0.498003 0.048669 0.781320
0.495689 0.414357 -0.318057
-0.236466 0.782262 0.048295
0.130544 -0.688868 0.415216
-0.237373 -0.318652 0.414272
0.497977 0.046340 0.781901
-0.236030 -0.686604 -0.686409
-0.234395 0.414266 0.413838
-0.237445 -0.686753 0.047367
-0.234592 -0.686469 -0.686911
0.129954 0.781644 0.416026
-0.238765 0.415060 0.415221
-0.237206 0.415832 -0.319221
-0.238346 0.046656 0.781298
-0.604926 0.047427 -0.320107
0.494937 -0.318055 -0.319837
0.131261 0.782157 0.415803
0.131395 0.416260 -0.687466
0.498011 0.413751 0.415205
0.131014 0.781737 -0.319873
0.131357 -0.319084 0.782186
-0.604716 -0.320365 -0.688516
-0.238141 0.414630 0.414318
0.497806 0.047340 0.046920
0.497723 0.046950 0.783297
-0.237650 -0.318803 0.412743
0.498186 0.780632 0.049843
0.130030 0.415948 0.781636
0.499398 0.047120 0.046975
-0.237871 0.414976 0.414258
0.496214 0.414503 0.414351
-0.605385 0.047037 0.415489
-0.237940 0.414076 0.414726
0.129540 0.782449 0.411822
0.131039 0.781247 0.414310
-0.236692 0.781010 0.047201
-0.237603 -0.686981 0.047554
0.130352 -0.684452 -0.319665
-0.236210 -0.689899 0.047175
-0.602886 0.046211 0.415272
-0.604120 -0.321061 -0.687955
0.498596 -0.687423 0.047181
-0.604138 0.046200 0.415768
-0.236900 0.046971 -0.687974
0.130657 -0.687625 0.414156
-0.236577 0.780736 0.047534
0.132208 0.415737 -0.686586
-0.603961 -0.320567 0.048394
0.129031 -0.687506 -0.318940
-0.237141 -0.686461 0.046042
-0.236622 -0.686755 -0.687087
0.130164 -0.320319 -0.686773
-0.602408 -0.687399 -0.321158
0.130346 0.415038 -0.685110
-0.605491 0.046947 0.415250
0.497327 0.047732 0.781560
0.497730 0.047632 -0.686596
0.498230 0.412890 -0.320330
-0.602932 0.046196 -0.319543
-0.603314 0.046001 0.413047
-0.237926 0.047975 0.782368
-0.236479 -0.686611 0.048918
0.130595 -0.685698 -0.319781
0.499130 0.416563 -0.321174
-0.236298 -0.685599 -0.686919
-0.603469 0.047717 0.414405
-0.605583 -0.319654 -0.685690
0.497250 0.049114 -0.686209
-0.236800 0.414665 0.416323
0.497458 -0.319546 0.414157
0.497994 0.049006 -0.688622
-0.237085 -0.320359 0.413033
0.496500 -0.686379 0.045005
0.497638 0.046844 0.047714
0.129250 -0.319037 -0.685770
-0.236125 -0.686798 0.045411
-0.237258 0.047601 -0.686634
0.130234 0.780880 -0.319965
-0.603189 -0.319924 0.048873
0.129897 0.415503 0.781362
0.496802 -0.686867 0.048431
-0.237790 0.414403 0.415806
-0.236652 0.045509 0.781046
-0.238613 -0.687578 0.045709
0.129644 -0.686621 -0.318564
0.131793 0.415223 -0.685083
-0.235978 -0.319710 0.415588
-0.603939 0.413712 0.047618
-0.237830 0.782013 0.049588
-0.604812 -0.319260 -0.686360
0.498597 0.780972 0.046672
0.130088 0.780908 0.413785
-0.236803 0.412775 0.414013
-0.237599 -0.685895 0.047173
-0.604456 -0.320889 -0.687343
0.495325 0.047842 0.782633
0.130923 0.416127 0.782835
-0.237392 0.047580 0.782232
0.131736 0.415030 -0.687982
-0.603241 0.046061 0.414676
-0.236483 -0.687003 0.047235
0.499230 -0.320032 -0.320161
-0.603389 0.415363 0.047944
0.129994 -0.688044 -0.320922
0.497650 -0.320383 0.413989
-0.235813 0.047294 0.781316
-0.606959 0.047342 0.414082
-0.237369 0.412739 -0.319397
-0.236390 -0.687143 0.048108
-0.604032 0.047111 -0.320718
-0.236690 -0.320261 0.416188
0.496781 0.414273 -0.319979
-0.603575 0.047821 -0.319371
-0.604983 -0.319872 0.049369
0.130125 -0.320306 -0.687162
-0.237725 0.047392 -0.688031
-0.238546 0.413863 -0.321166
-0.236960 0.414844 -0.319051
0.498424 0.048943 0.046009
-0.604201 0.046355 0.414196
0.496239 0.047307 -0.686524
-0.237232 0.045946 -0.686037
-0.235208 -0.320433 0.416072
-0.237558 0.045539 0.781897
-0.604540 0.047540 0.413446
-0.605648 -0.319987 0.045476
0.496522 -0.685303 0.047172
-0.603720 -0.688552 -0.320181
0.129922 0.781410 -0.319771
-0.239959 -0.319159 0.414357
0.496464 0.047720 -0.687424
0.497978 -0.319139 -0.322531
0.496484 0.046874 0.781505
0.497584 0.046564 0.782179
0.499452 0.046861 -0.687875
-0.604036 0.416014 0.046443
0.131488 0.413982 -0.686221
-0.235698 -0.319769 0.413562
0.498056 0.046806 0.047380
0.130566 -0.686680 0.415237
0.130918 0.782029 -0.320438
0.131464 0.781184 0.415204
-0.604265 -0.319058 -0.686748
0.131026 0.780552 0.416013
-0.236705 0.412910 -0.318451
-0.604275 0.414911 0.047611
0.499802 -0.320690 -0.319106
0.131312 -0.319740 -0.686033
-0.236536 0.047482 0.782037
-0.237701 -0.687398 -0.687797
0.128894 -0.686926 0.416624
-0.237039 -0.319562 0.413678
-0.237065 0.415119 -0.320282
-0.603232 -0.319358 -0.685659
0.496930 0.046831 0.049882
-0.603455 0.415259 0.047098
0.496855 0.047663 0.047250
-0.235227 0.412791 -0.319829
0.132031 -0.320415 0.781559
0.498143 -0.686375 0.046948
0.130540 -0.686195 0.413245
-0.603499 0.414265 0.048158
-0.603579 -0.686444 -0.320401
0.497175 -0.318854 -0.320730
0.128357 -0.687645 -0.319124
-0.237945 -0.685463 -0.687289
0.497597 0.413373 -0.318671
0.129942 -0.318522 -0.687524
-0.237541 0.415006 0.417274
0.132124 -0.685948 -0.319116
-0.237339 0.048572 -0.687246
-0.236027 -0.318752 0.413611
0.130507 -0.321295 0.781511
-0.237899 0.046314 -0.684323
0.496399 -0.689140 0.047094
-0.236837 -0.320553 0.413989
-0.235555 0.780696 0.048491
0.497052 -0.686526 0.047347
