OFF
256 0 0
0.149768 -0.333029 -0.718968
-0.620474 -0.346245 -0.665236
-0.232017 0.794010 0.063390
0.109330 -0.297140 0.772252
-0.232556 0.795558 0.062486
-0.219856 0.386032 0.435303
0.485933 0.424173 0.410101
0.150664 0.413615 0.806306
-0.222078 -0.696766 0.015061
0.136359 0.812883 -0.347258
-0.598807 -0.706272 -0.314300
0.504615 -0.327017 -0.318486
0.483445 -0.318052 0.414473
0.489048 0.049084 0.054689
-0.225371 -0.693663 -0.683560
0.108896 -0.300415 0.772293
-0.622383 -0.346753 -0.664530
-0.203423 0.428278 -0.299578
0.491554 0.046502 0.054080
-0.597226 -0.705637 -0.313800
0.509453 0.039249 0.799912
-0.607019 0.420993 0.058949
-0.232162 0.792705 0.061635
0.511182 0.038795 0.798065
0.504458 -0.324074 -0.320022
-0.224084 -0.694720 0.014861
0.125101 -0.712373 0.408436
0.498130 0.051546 -0.704291
0.124831 -0.708914 0.408995
0.134617 0.815137 -0.348863
-0.255314 -0.336355 0.404369
-0.250033 0.059802 0.805649
0.150942 -0.696844 -0.318009
0.111795 0.437195 -0.711699
-0.218957 0.384853 0.435387
-0.626472 -0.326880 0.042562
0.133672 0.813141 -0.348184
0.151743 -0.695504 -0.318277
0.506310 -0.325077 -0.320227
-0.226528 -0.694211 -0.685449
0.498061 0.049237 -0.706353
-0.236126 0.030531 -0.676416
-0.626094 -0.325982 0.043062
0.496954 0.050359 -0.707113
-0.224312 -0.693804 0.017338
0.487448 0.420334 0.410559
-0.597572 -0.706460 -0.312978
-0.597109 -0.706931 -0.312889
-0.252012 0.058472 0.805006
0.133310 0.815171 -0.347937
0.481125 -0.320289 0.416563
-0.624838 -0.325641 0.041777
0.125532 -0.709381 0.409159
0.487265 0.422778 0.409719
-0.251374 0.059773 0.807022
-0.232234 0.792768 0.063867
-0.587605 0.045253 -0.327810
0.480505 -0.318978 0.414227
-0.233316 0.792663 0.061894
-0.588941 0.043651 -0.326982
0.107464 -0.299997 0.770646
-0.205748 0.429969 -0.300062
0.482505 0.766391 0.042522
-0.255942 -0.336561 0.404252
0.110800 0.439773 -0.712136
0.479759 -0.319226 0.412915
0.134072 0.814489 -0.347252
-0.225521 -0.693467 -0.686216
-0.256327 -0.335208 0.403305
-0.233972 0.032174 -0.677048
0.488070 0.422848 0.410218
-0.235519 0.031971 -0.677472
-0.204717 0.429057 -0.300075
-0.620807 -0.345590 -0.664663
-0.203625 0.427354 -0.300824
-0.590999 0.044097 -0.325842
-0.624877 -0.323496 0.043337
-0.625834 -0.322337 0.042962
0.107788 -0.300469 0.771682
-0.605818 0.421502 0.059740
0.481199 -0.321180 0.415406
-0.226201 -0.694955 -0.684949
-0.624681 -0.323403 0.040886
0.149640 -0.697968 -0.317330
0.134243 0.814726 -0.348223
0.521283 -0.690239 0.058149
-0.251219 0.059658 0.804911
0.504431 0.434989 -0.349544
0.480449 -0.320889 0.416359
0.150804 -0.331833 -0.718360
0.489005 0.421810 0.409236
-0.232780 0.793632 0.062616
0.523172 -0.691767 0.057877
-0.251539 0.059380 0.805306
-0.606948 0.420645 0.059774
0.499452 0.049615 -0.704664
-0.597345 -0.706491 -0.314793
-0.205181 0.428430 -0.299941
-0.223454 -0.694392 0.015916
-0.220520 0.384243 0.436165
-0.204366 0.428767 -0.300130
-0.589907 0.043658 -0.326383
0.482175 0.767417 0.044201
-0.224671 -0.694341 0.014779
-0.225029 -0.693274 -0.684239
0.488004 0.423748 0.410640
0.523019 -0.691396 0.056614
0.524695 -0.690446 0.057980
0.134829 0.812880 -0.347588
0.487538 0.422145 0.408738
0.510806 0.040937 0.799738
0.481841 -0.320993 0.416987
-0.233111 0.793546 0.062004
0.523914 -0.690583 0.057929
-0.625686 0.061473 0.422700
0.104091 0.822343 0.425973
0.132933 0.812437 -0.349761
0.481411 -0.318366 0.415808
0.107917 -0.299586 0.772325
0.508747 0.041001 0.799219
-0.605949 0.420709 0.057961
0.110464 0.438963 -0.711824
-0.620120 -0.346402 -0.665103
0.490301 0.049576 0.054733
-0.234890 0.029231 -0.676579
-0.203079 0.427968 -0.299903
-0.257219 -0.335663 0.403693
0.135282 0.812608 -0.347987
0.134235 0.814110 -0.351215
0.488111 0.421833 0.411313
0.135394 0.814780 -0.347805
0.481679 0.766452 0.043394
0.482162 0.768903 0.043048
0.125854 -0.714082 0.407598
0.481693 -0.318900 0.414918
-0.219962 0.384790 0.435431
0.111305 0.438530 -0.710674
-0.204129 0.428716 -0.300417
0.481842 0.764997 0.044683
0.505812 0.436564 -0.349236
0.108777 -0.299237 0.772176
0.109833 0.440634 -0.710531
-0.621243 -0.346242 -0.665400
-0.605825 0.421362 0.059985
-0.222652 -0.696768 0.014950
-0.625969 -0.326376 0.043399
0.107984 -0.298615 0.772512
0.482295 -0.318406 0.415687
0.109097 0.438793 -0.711603
0.110706 0.440252 -0.712475
0.497181 0.049504 -0.707448
0.111513 0.437574 -0.710841
-0.621531 -0.346237 -0.665352
0.488060 0.422793 0.408240
-0.606515 0.421630 0.059509
-0.235567 0.031102 -0.679016
0.103878 0.821986 0.427683
0.152311 -0.696693 -0.315388
-0.218422 0.384675 0.434930
0.487295 0.425950 0.409128
0.498107 0.049958 -0.706423
0.125743 -0.712839 0.407626
-0.624796 0.058340 0.420994
0.107879 -0.298761 0.771866
-0.588365 0.046930 -0.326584
-0.625570 -0.324991 0.042000
-0.619948 -0.346575 -0.664947
0.153697 -0.696403 -0.316509
-0.625842 0.060009 0.421432
0.498840 0.050593 -0.706845
-0.223109 -0.693645 0.014980
-0.206389 0.429791 -0.299844
-0.233972 0.793057 0.063733
0.135345 0.812244 -0.348900
-0.256745 -0.335830 0.402996
-0.255866 -0.335625 0.403261
0.480100 -0.319513 0.415800
-0.256808 -0.336696 0.403554
0.507401 -0.325305 -0.319814
-0.251784 0.059280 0.805368
-0.220426 0.385956 0.435250
0.105264 0.822568 0.426740
-0.588408 0.045662 -0.327153
0.151182 -0.695985 -0.316264
-0.624890 -0.324224 0.043217
0.125784 -0.713579 0.409118
-0.223380 -0.692301 -0.683703
0.489389 0.048223 0.054736
-0.236045 0.033683 -0.677777
0.496269 0.050680 -0.705639
0.124988 -0.711139 0.410051
0.124527 -0.711074 0.408449
-0.219865 0.383268 0.434180
-0.224725 -0.695577 0.013568
-0.233385 0.794136 0.062884
-0.623352 -0.323642 0.041675
-0.225332 -0.694343 -0.682874
0.108439 -0.298545 0.771446
0.106565 -0.298279 0.772011
-0.597121 -0.706413 -0.311443
0.481239 0.766433 0.043242
-0.598601 -0.706153 -0.313912
0.150976 0.416203 0.803648
-0.589955 0.046563 -0.327230
0.504352 0.436987 -0.348743
-0.222847 -0.696049 0.014797
0.148710 0.416390 0.806441
-0.623201 -0.347083 -0.667316
-0.606857 0.420107 0.058299
-0.625091 0.060238 0.420854
-0.231770 0.792840 0.061158
0.151021 -0.332051 -0.717775
-0.255285 -0.334611 0.404953
0.496338 0.049061 -0.706490
-0.235831 0.030811 -0.678138
0.504224 -0.324779 -0.320842
0.150242 -0.331869 -0.718303
-0.252883 0.058308 0.804664
-0.620672 -0.345429 -0.664095
0.152227 -0.697572 -0.318578
-0.599054 -0.703634 -0.311562
0.480155 0.767652 0.041807
-0.235867 0.031235 -0.677684
-0.597707 -0.705236 -0.312497
-0.252938 0.058200 0.806482
-0.232347 0.793784 0.062245
0.479562 0.767165 0.043247
0.503955 -0.325275 -0.319502
-0.622335 -0.346868 -0.665720
0.523693 -0.690867 0.057890
0.506118 0.435805 -0.349992
-0.589073 0.045849 -0.327813
0.497304 0.051069 -0.706022
0.504053 0.438286 -0.350306
0.498206 0.049646 -0.707200
0.488815 0.423237 0.408476
0.112368 0.439491 -0.711660
-0.252091 0.058391 0.807011
-0.600120 -0.706032 -0.312190
-0.597032 -0.706931 -0.312253
0.523543 -0.688775 0.056663
0.123109 -0.710934 0.406602
-0.225575 -0.694982 0.016371
-0.626916 0.061067 0.422347
0.505323 0.436124 -0.349804
-0.234028 0.792831 0.063316
-0.250728 0.058903 0.804544
0.133228 0.814609 -0.349342
0.481136 0.765902 0.043433
0.149658 0.416462 0.805808
0.105694 0.822269 0.427620
0.488921 0.049736 0.055604
0.109073 0.438202 -0.712794
0.152403 -0.331085 -0.716269
0.522732 -0.690527 0.057143
-0.625763 0.060356 0.421813
