OFF
256 0 0
0.107082 -0.304160 0.782763
-0.239566 0.395297 0.393872
0.133074 -0.675356 0.408372
0.123312 0.757903 -0.297966
-0.622207 0.406676 0.039374
0.136478 -0.685783 -0.309209
0.144656 0.406503 -0.660575
-0.596681 -0.328667 0.071714
0.494303 0.395498 -0.306698
-0.620626 0.406081 0.041913
-0.228537 0.034240 -0.687010
-0.600694 -0.329992 0.071831
-0.228480 0.774015 0.033154
0.485976 -0.299617 0.438487
-0.228793 0.033331 -0.688653
0.494312 0.393999 -0.305615
-0.204530 -0.294494 0.385632
0.137815 -0.684481 -0.312821
-0.603888 -0.678088 -0.327199
-0.236791 0.053841 0.788398
0.133145 -0.674114 0.409277
-0.228253 0.035118 -0.687443
-0.622129 0.405819 0.040571
-0.583411 -0.319104 -0.684415
0.133616 -0.675575 0.409915
-0.229604 0.774226 0.032601
0.105030 -0.305573 0.782773
-0.596978 -0.330071 0.072657
0.136762 -0.686237 -0.311558
0.143611 0.761628 0.388096
-0.598745 -0.000246 -0.303044
0.114418 0.431829 0.772217
0.105428 -0.304518 0.783514
0.507446 0.782522 0.049521
-0.237910 0.055902 0.785723
0.485798 -0.299936 0.439756
-0.203265 -0.295305 0.386756
0.520639 0.060523 -0.677947
0.477775 0.051092 0.065033
0.479012 0.051753 0.066456
-0.598301 -0.328331 0.072846
0.470912 -0.677207 0.081741
0.437728 0.058856 0.758493
0.515897 -0.305545 -0.310109
0.132735 -0.676265 0.408346
0.119015 -0.327499 -0.694801
-0.621111 0.407158 0.040229
-0.229232 0.773707 0.033348
0.514979 -0.305995 -0.312541
0.496553 0.395624 -0.305791
-0.588942 0.051981 0.379398
0.142386 0.764407 0.387602
0.107592 -0.306203 0.783067
0.470850 -0.678500 0.081323
-0.599676 0.002810 -0.304066
0.142057 0.763587 0.386646
-0.229352 0.033976 -0.688796
-0.598082 -0.000070 -0.301489
-0.242058 0.395393 0.395255
0.143029 0.763665 0.385406
0.105240 -0.305000 0.783661
-0.602420 -0.679363 -0.326664
-0.583933 -0.317838 -0.687420
-0.601486 0.000663 -0.302910
-0.583293 -0.318906 -0.686771
0.486845 -0.297235 0.439995
-0.588497 0.053179 0.382906
-0.235907 -0.664358 0.046358
-0.228033 0.033520 -0.689002
0.106471 -0.304333 0.780713
-0.589556 0.052806 0.380947
-0.202704 -0.295689 0.386787
-0.600735 -0.000081 -0.303136
0.113895 0.432111 0.774988
0.506636 0.785527 0.051058
0.125137 0.756836 -0.301011
0.505885 0.783160 0.051422
0.516299 -0.307363 -0.313086
-0.236788 0.056224 0.787985
0.485872 -0.297489 0.439324
0.479016 0.049428 0.065825
0.116947 -0.328163 -0.695406
-0.620742 0.404711 0.039476
-0.239837 -0.681351 -0.688340
-0.583005 -0.317929 -0.686961
-0.205737 -0.295839 0.387675
-0.598744 -0.329336 0.073082
0.150032 0.404026 -0.661068
0.519486 0.059761 -0.677679
0.135135 -0.675322 0.409027
-0.599051 -0.330217 0.070978
0.123626 0.758139 -0.301011
-0.602182 -0.677349 -0.325685
0.143441 0.765014 0.387678
0.115906 0.432592 0.772010
0.114203 0.433212 0.774229
0.478044 0.050654 0.067116
0.509132 0.411857 0.381040
-0.236982 -0.661688 0.046387
-0.599714 -0.329661 0.072690
0.513899 -0.305281 -0.310433
0.118178 -0.327691 -0.694602
-0.228601 0.032844 -0.688600
0.504530 0.784209 0.051007
-0.228586 0.775670 0.032524
-0.583583 -0.317177 -0.686249
0.125566 0.757378 -0.299907
0.485471 -0.298245 0.439388
-0.583224 -0.316280 -0.686548
0.149747 0.404518 -0.659407
0.519671 0.062584 -0.678125
-0.240450 -0.682405 -0.690187
-0.582393 -0.318902 -0.685210
0.493844 0.395357 -0.305822
0.506557 0.783215 0.049675
0.485539 -0.300971 0.437910
-0.238553 0.396195 0.395158
-0.236247 0.056094 0.787392
0.114176 0.433495 0.772065
-0.583545 -0.318280 -0.689143
0.478278 0.052221 0.066773
-0.228506 0.774939 0.032533
-0.584419 -0.320164 -0.686729
0.143123 0.763397 0.385794
0.478458 0.051218 0.065726
-0.598399 -0.331808 0.073871
-0.240828 0.395520 0.392925
0.106178 -0.303449 0.782200
0.494256 0.397588 -0.304925
0.506454 0.785517 0.051693
-0.241286 0.394476 0.393811
0.515610 -0.305314 -0.311924
0.106320 -0.303883 0.782649
0.132495 -0.674617 0.407815
-0.229404 0.033881 -0.688503
-0.587125 0.051632 0.382945
-0.583531 -0.317550 -0.687105
0.116626 -0.327186 -0.695784
0.508855 0.412688 0.379923
0.142090 0.764854 0.385543
0.504737 0.784984 0.050936
-0.588851 0.052059 0.382632
0.471375 -0.679275 0.080038
-0.229090 0.402691 -0.307040
-0.581365 -0.317376 -0.689588
-0.598159 -0.330161 0.073720
0.107682 -0.305573 0.780987
0.505335 0.784028 0.049640
-0.602559 -0.677011 -0.328326
0.473152 -0.676958 0.079506
-0.583767 -0.320094 -0.687787
-0.235658 0.054833 0.786046
0.434836 0.058363 0.758237
-0.599257 0.001338 -0.302751
-0.235621 0.053581 0.787141
0.142265 0.762603 0.387285
0.143668 0.764295 0.387434
-0.239662 0.395217 0.394559
0.114801 0.431937 0.774662
-0.240459 0.394871 0.393850
0.506852 0.782420 0.049520
-0.602496 -0.676898 -0.326151
0.494823 0.393871 -0.306212
-0.238880 -0.662813 0.046257
-0.600089 0.001521 -0.301561
0.146650 0.404933 -0.663915
0.478786 0.050404 0.064372
0.515659 -0.304503 -0.313562
0.148722 0.405428 -0.661007
-0.237722 0.053442 0.787461
-0.229064 0.036127 -0.688412
0.122664 0.759111 -0.299817
-0.238114 -0.680162 -0.691147
-0.240259 -0.681558 -0.690586
-0.237440 -0.662432 0.045644
0.124614 0.759386 -0.299965
0.495225 0.393249 -0.307670
0.514080 -0.304703 -0.313822
0.105324 -0.303958 0.783379
-0.205291 -0.295249 0.386902
-0.603291 -0.678049 -0.325821
0.480030 0.052442 0.064613
-0.588531 0.050902 0.382822
-0.240716 0.395766 0.394036
0.142371 0.764310 0.387887
0.107087 -0.305000 0.781790
0.476599 0.050229 0.067798
0.132678 -0.676144 0.406577
-0.237074 0.053760 0.788293
-0.228781 0.773556 0.032266
0.516405 -0.304691 -0.311511
0.113894 0.432487 0.773864
0.515924 -0.305469 -0.311195
-0.204630 -0.295100 0.385618
0.144108 0.764005 0.388165
0.508288 0.411365 0.380348
0.143995 0.763249 0.385972
-0.237389 -0.660871 0.047675
0.507136 0.783370 0.051650
0.471476 -0.677631 0.080577
0.143809 0.763092 0.385218
0.484344 -0.297320 0.438247
-0.226726 0.033797 -0.688825
0.147161 0.404471 -0.662775
-0.229909 0.775338 0.032856
-0.204706 -0.296137 0.385204
0.479416 0.051318 0.065650
0.505349 0.783421 0.049995
0.515866 -0.304477 -0.312863
-0.621399 0.405245 0.040009
-0.598271 -0.330956 0.072504
-0.598820 -0.330253 0.072908
0.484136 -0.299179 0.437941
0.518772 0.061800 -0.678463
-0.601193 -0.678297 -0.329856
0.120940 -0.327733 -0.695531
0.106487 -0.303556 0.782896
0.510151 0.409193 0.380692
-0.240874 0.397016 0.394137
-0.621884 0.407366 0.040826
0.144234 0.764674 0.387155
-0.226743 0.775051 0.031233
0.106169 -0.304175 0.784500
-0.203748 -0.294768 0.384910
-0.590435 0.051636 0.382041
-0.202382 -0.294737 0.385713
0.487964 -0.299322 0.438035
-0.620521 0.406558 0.040896
-0.239963 -0.682070 -0.691681
-0.239000 -0.680391 -0.689926
-0.239417 0.393646 0.394970
0.115003 0.432875 0.773566
-0.590074 0.051369 0.381794
0.136613 -0.686392 -0.311371
0.114781 0.432784 0.775621
-0.237981 -0.680925 -0.690737
0.144594 0.765043 0.387460
-0.228705 0.775798 0.031204
-0.229815 0.401321 -0.305905
0.479310 0.050637 0.066845
-0.602917 -0.677521 -0.325869
0.436222 0.058910 0.756883
-0.242220 0.394362 0.393733
0.474223 -0.677703 0.080721
0.132899 -0.674021 0.405744
0.124512 0.759898 -0.300497
-0.620838 0.407202 0.040837
-0.619210 0.404380 0.040203
-0.242017 0.395422 0.394136
-0.228306 0.035099 -0.686504
0.515562 -0.307421 -0.312608
0.434893 0.059495 0.758586
-0.236620 0.053728 0.787667
0.106096 -0.305254 0.782481
0.147598 0.405304 -0.661776
-0.228231 0.034010 -0.688388
