OFF
256 0 0
-0.158165 0.284625 0.726156
0.576895 0.278956 -0.010178
-0.532741 0.642203 0.021456
0.192313 0.660866 0.724370
-0.169198 -0.473856 -0.726184
-0.170951 -0.825076 0.362477
-0.529983 0.641164 0.022079
-0.168828 -0.473135 -0.727241
-0.560800 -0.488090 0.387952
-0.158935 0.650402 0.377881
0.556960 -0.441331 -0.009827
0.583736 -0.082081 0.367603
0.191824 0.659813 0.723161
0.588397 0.659277 -0.358902
0.198728 -0.472495 -0.356360
0.583869 -0.083887 0.368581
-0.169008 -0.471831 -0.726284
0.583417 -0.080960 0.368713
0.224030 0.653230 -0.723791
-0.168308 -0.471528 -0.726268
-0.521338 -0.110044 0.038221
-0.542262 -0.836524 0.009195
0.531722 0.289002 0.737069
-0.157052 0.284877 0.728089
0.192287 -0.461790 0.334716
-0.171215 -0.822336 0.361848
0.562532 -0.078597 -0.356503
0.193341 0.660675 0.723677
0.192598 0.661342 0.723357
0.198302 -0.470544 -0.356976
-0.155552 -0.455060 0.712191
-0.529207 -0.468392 -0.351345
-0.544934 -0.837522 0.009664
-0.523035 -0.109587 0.039815
-0.545046 0.279419 -0.350626
-0.543839 -0.838113 0.008186
0.225087 0.654833 -0.723565
-0.530113 -0.083036 -0.737103
0.534213 0.290074 0.735640
0.533494 0.289777 0.735546
-0.533200 0.643167 0.022654
-0.154709 -0.455723 0.714790
-0.544919 0.271406 0.376253
0.560220 -0.440135 -0.009804
-0.154194 -0.455003 0.716011
0.577484 0.299955 -0.752498
-0.529455 -0.083357 -0.736287
-0.167959 -0.472690 -0.727024
-0.555907 -0.097343 0.751925
0.588831 0.661258 -0.361051
0.577249 0.300210 -0.751577
-0.557523 -0.097758 0.751752
0.221842 -0.104548 0.713287
-0.529703 -0.084308 -0.736029
0.533949 0.288738 0.738230
0.557668 -0.438952 -0.010810
0.560925 -0.078069 -0.356059
0.582233 -0.081201 0.367405
0.576646 0.279168 -0.010433
0.556829 -0.440518 -0.009021
0.201345 0.658862 -0.019762
0.191882 -0.462135 0.333737
0.577660 0.300347 -0.752984
0.198623 -0.472520 -0.355683
0.576636 0.300245 -0.754139
-0.162234 0.647488 -0.372225
0.181329 -0.094266 -0.749427
-0.522787 -0.110324 0.038693
0.577722 0.279590 -0.010883
-0.558875 -0.486139 0.388693
0.560527 -0.079593 -0.360213
-0.157231 0.652171 0.377794
-0.163567 0.648703 -0.373211
-0.530075 -0.466354 -0.348692
-0.523092 -0.110298 0.038801
0.202344 0.659145 -0.020862
-0.545172 0.280649 -0.351584
-0.557060 -0.489952 0.389933
0.191573 -0.461107 0.333829
0.587854 0.659473 -0.361103
0.201273 -0.844951 0.002017
0.575997 0.278259 -0.010081
0.561133 -0.078057 -0.356083
0.575857 0.280402 -0.010342
-0.543967 -0.838107 0.010701
-0.535147 0.642891 0.021580
-0.543685 0.278876 -0.351801
0.181899 -0.093628 -0.748485
-0.528666 -0.081748 -0.736539
-0.545244 0.279012 -0.352049
0.578708 0.279206 -0.009559
0.199745 0.657891 -0.022252
0.588569 0.661051 -0.360564
-0.170468 -0.824650 0.363253
0.585632 -0.084078 0.368917
0.556571 -0.439169 -0.010000
-0.153945 -0.456395 0.714163
-0.156293 0.303452 -0.758214
0.182644 -0.094421 -0.748115
-0.542100 -0.836756 0.010765
0.557836 -0.438811 -0.008553
0.582871 -0.081927 0.368317
0.202249 -0.846098 0.000308
-0.530767 -0.081036 -0.735634
-0.156237 0.651526 0.379191
0.222107 -0.104540 0.713772
0.577455 0.278655 -0.009342
-0.558686 -0.487479 0.389437
-0.533798 0.640983 0.022854
0.533361 0.290642 0.738683
0.577062 0.278042 -0.012851
0.200173 -0.843956 0.001074
0.200793 0.657386 -0.019290
-0.157244 0.651731 0.376680
-0.157975 0.651762 0.377354
-0.155981 -0.455738 0.713877
0.584765 -0.082427 0.369274
0.585747 -0.080433 0.368747
-0.171369 -0.826200 0.362307
0.201383 0.659264 -0.019804
-0.533520 0.639673 0.021537
-0.164253 0.649978 -0.371328
0.576291 0.673852 0.340475
0.223337 0.653941 -0.721566
-0.154647 -0.454646 0.714051
-0.158803 0.285299 0.724332
0.578740 0.280130 -0.011201
-0.556077 -0.096312 0.754271
-0.532138 -0.082211 -0.735190
-0.555094 -0.097525 0.752110
-0.162434 0.651289 -0.371879
0.193864 0.659845 0.724958
0.534727 0.287924 0.738007
0.221801 0.654094 -0.722525
-0.166678 -0.472106 -0.726890
0.577836 0.279834 -0.014486
-0.532995 0.640429 0.020201
-0.559308 -0.096171 0.753329
-0.173357 -0.839152 -0.353806
-0.156468 -0.454424 0.714578
-0.529169 -0.465903 -0.350550
-0.529306 -0.081738 -0.736252
0.587202 0.661093 -0.357974
-0.543709 -0.838610 0.008673
-0.164293 0.648142 -0.372531
-0.560271 -0.487771 0.387983
0.180172 -0.093081 -0.748688
0.222667 -0.108292 0.712862
-0.155601 0.300963 -0.758634
-0.542872 -0.836322 0.011602
-0.158366 0.651196 0.378903
0.223632 -0.105480 0.712108
-0.559092 -0.097344 0.753767
0.585499 0.660724 -0.361910
0.200225 -0.844470 0.001238
0.180144 -0.094484 -0.749488
-0.542994 0.281455 -0.350924
-0.167252 -0.473393 -0.725790
-0.543439 0.278921 -0.353009
-0.522500 -0.110326 0.037500
-0.542966 -0.837794 0.008229
0.532351 0.289641 0.735269
-0.158779 0.651057 0.379868
-0.522522 -0.109701 0.038483
0.576458 0.673824 0.340410
0.200818 0.658831 -0.020490
-0.530938 -0.469354 -0.351378
0.191087 0.658758 0.723158
-0.159455 0.651097 0.379390
0.202081 0.657749 -0.019934
-0.544696 -0.838151 0.009911
-0.558634 -0.489767 0.388942
-0.155274 -0.456805 0.714570
-0.153486 -0.453840 0.713691
0.198098 -0.473080 -0.357399
0.223702 0.653884 -0.722749
0.181785 -0.093718 -0.747256
-0.171460 -0.824060 0.360518
-0.160205 0.284039 0.726543
0.587206 0.660981 -0.359222
-0.523275 -0.110177 0.037558
-0.529539 -0.468414 -0.348739
0.200051 0.657950 -0.018400
-0.157628 0.284020 0.726429
-0.156928 0.284849 0.727886
0.556539 -0.441002 -0.009041
0.576342 0.299313 -0.751810
0.193690 0.659738 0.723303
-0.523100 -0.110326 0.037682
-0.168456 -0.472232 -0.726720
0.559604 -0.079287 -0.358168
-0.533337 0.638862 0.024115
-0.528977 -0.082766 -0.734342
-0.171391 -0.824576 0.362719
-0.559919 -0.488282 0.389793
0.192771 0.657161 0.720797
-0.543906 0.269257 0.374571
0.222365 0.656789 -0.722932
0.576556 0.299978 -0.750876
0.583352 -0.081738 0.370526
0.223894 -0.104422 0.715736
0.223295 -0.104564 0.714609
-0.172573 -0.824908 0.362838
-0.558429 -0.487773 0.389161
0.194590 0.661804 0.723481
0.201941 0.658256 -0.020758
-0.545244 0.280295 -0.352393
0.533051 0.288595 0.738706
0.574160 0.675625 0.341506
-0.154334 -0.456611 0.713098
0.587071 0.661277 -0.360831
0.199178 -0.472475 -0.357613
-0.542498 0.270711 0.375260
-0.526744 -0.467913 -0.351079
-0.524539 -0.111208 0.038039
-0.167938 -0.472099 -0.727309
-0.172609 -0.840289 -0.349858
-0.561593 -0.488777 0.389119
0.576869 0.300537 -0.753641
-0.159232 0.285276 0.724742
0.224268 0.656858 -0.721305
-0.172041 -0.825118 0.361841
-0.169605 -0.471466 -0.727897
-0.527955 -0.466942 -0.351148
-0.544865 0.271529 0.376544
0.574537 0.300503 -0.754063
-0.529789 -0.083347 -0.737042
0.588271 0.662683 -0.361336
0.201984 0.658786 -0.019544
-0.522766 -0.109987 0.039950
0.584380 -0.081986 0.368391
0.202100 -0.844784 0.001077
0.574273 0.673229 0.340981
-0.167585 -0.473858 -0.726699
0.194133 0.661342 0.724171
0.192380 -0.462576 0.333541
-0.557431 -0.097149 0.752650
0.576346 0.279338 -0.012171
0.558389 -0.440375 -0.008403
0.194760 0.659849 0.722179
0.560799 -0.079613 -0.355570
0.193423 0.659349 0.721900
-0.543675 0.280505 -0.352268
-0.528581 -0.467955 -0.351141
0.587314 0.657936 -0.360489
-0.164019 0.651117 -0.373529
-0.544024 -0.838111 0.009046
0.193877 0.660413 0.721971
0.192519 0.658233 0.724220
0.224644 0.657137 -0.721049
-0.174473 -0.841458 -0.349296
0.587748 0.661586 -0.358784
0.198600 -0.474286 -0.356049
-0.522021 -0.109434 0.038493
0.583993 -0.082280 0.368409
-0.157977 0.285533 0.727797
