OFF
256 0 0
-0.494812 -0.073933 0.695820
-0.526946 -0.797396 0.014757
0.539933 -0.069304 -0.313802
-0.496283 -0.074669 0.694354
0.562479 0.252405 -0.745341
-0.538269 -0.071366 -0.000260
0.571682 0.650068 0.386850
0.194795 -0.098751 -0.710920
0.562921 0.254631 -0.746937
-0.523729 -0.441690 0.352843
0.201783 -0.445884 0.338434
-0.168426 0.643310 0.374835
0.549662 0.294486 0.006987
0.170291 -0.820609 -0.001647
0.172089 -0.820358 -0.003030
0.187327 0.596576 -0.741940
-0.169161 0.644094 0.373851
0.560459 0.254177 -0.744716
-0.160390 0.256147 -0.715414
0.195199 0.621733 0.035106
0.560560 0.253399 -0.746144
0.171543 -0.819607 -0.001945
-0.143868 0.272524 0.702460
-0.144036 0.273940 0.705549
-0.525584 -0.799551 0.014797
-0.525460 -0.800151 0.013086
-0.168332 0.644637 0.374160
-0.525158 -0.798217 0.015480
-0.516929 -0.093851 -0.707947
0.559033 -0.455087 -0.009106
-0.168964 0.643539 0.373866
0.544670 -0.062420 0.335032
-0.521821 -0.441171 0.355183
-0.521716 -0.440319 0.354617
-0.171292 -0.442557 -0.730324
-0.162970 -0.812105 -0.352006
-0.144715 0.274036 0.704374
0.537721 -0.071268 -0.315938
0.538563 -0.069810 -0.315306
0.180575 -0.447345 -0.354898
0.544795 -0.061941 0.334317
-0.521355 -0.440700 0.353226
-0.517416 -0.094082 -0.708857
-0.158526 0.256569 -0.716932
0.182863 -0.446498 -0.356726
-0.169617 0.644345 0.373170
-0.158756 0.256094 -0.714030
-0.503114 0.610107 -0.002224
0.550461 0.296643 0.005117
0.557019 0.275382 0.707534
0.194333 0.622505 0.037333
0.192241 -0.099283 -0.709478
0.188287 0.593646 -0.743602
-0.164028 -0.813674 -0.352613
0.559209 -0.454732 -0.009682
-0.175411 -0.809450 0.353437
0.544682 -0.063115 0.335250
-0.535734 -0.444878 -0.354432
0.194391 -0.097652 -0.710674
-0.171170 -0.441019 -0.729802
-0.143539 0.273132 0.703524
0.192702 0.622041 0.036431
-0.507051 0.255501 -0.358053
0.544406 -0.061276 0.332086
-0.165453 -0.812383 -0.352928
-0.510967 0.257258 -0.355783
-0.538857 -0.070173 0.001432
-0.502980 0.610385 -0.001835
-0.521593 -0.441286 0.353153
0.554811 0.273162 0.707161
0.557548 0.273575 0.706505
0.560465 -0.454510 -0.011888
0.193699 -0.100861 -0.710570
0.560938 -0.453113 -0.010532
0.549341 0.295835 0.005491
-0.500768 0.610655 -0.002877
-0.496704 -0.072607 0.696104
-0.527977 0.269778 0.351617
0.570889 0.649367 0.385923
-0.128595 0.619973 -0.330706
0.172070 -0.822206 -0.002773
-0.168859 0.645377 0.373373
-0.160371 0.256784 -0.715612
-0.525147 -0.798934 0.014444
-0.148166 -0.431726 0.696968
0.195240 0.619599 0.035843
0.180517 -0.447188 -0.355840
-0.148526 -0.432557 0.697891
-0.165328 -0.814007 -0.351185
0.536754 -0.070146 -0.317659
0.204168 -0.078411 0.700214
0.200491 -0.445898 0.336859
-0.523588 -0.441049 0.352918
-0.171857 -0.440312 -0.730720
-0.496861 -0.075779 0.696601
0.564027 0.255457 -0.746590
0.192736 0.643923 0.739121
0.530840 0.629450 -0.357415
0.202535 -0.079364 0.699383
0.181268 -0.445281 -0.354176
-0.159708 0.256584 -0.716333
-0.158939 0.256349 -0.717269
-0.165572 -0.814165 -0.352760
-0.165735 -0.811419 -0.352616
-0.158955 0.256304 -0.716203
0.181966 -0.446356 -0.356118
0.560181 0.253121 -0.746040
-0.510298 0.256673 -0.356208
0.188056 0.594530 -0.742073
-0.517344 -0.095392 -0.705676
0.181585 -0.447152 -0.357326
-0.167788 0.643805 0.373076
-0.508668 0.258554 -0.357666
0.171958 -0.821228 -0.000414
0.531280 0.629593 -0.357610
-0.536647 -0.445672 -0.354976
-0.528258 0.269278 0.349193
0.532113 0.629478 -0.354549
0.556893 0.275119 0.706737
-0.527633 -0.799098 0.013186
-0.177316 -0.809016 0.353166
-0.160905 0.256249 -0.716400
-0.528787 0.271166 0.350030
-0.508681 0.259135 -0.356808
-0.518208 -0.092866 -0.706436
0.188513 0.596172 -0.742758
-0.521819 -0.440471 0.352797
0.538771 -0.069133 -0.316109
-0.171066 0.642874 0.373473
0.179280 -0.446312 -0.353454
-0.521195 -0.442976 0.356061
-0.503871 0.610121 0.000102
-0.526314 -0.798891 0.013863
0.203065 -0.446172 0.338392
-0.508410 0.256700 -0.357658
-0.144207 0.272859 0.704056
0.170174 -0.821998 -0.002265
-0.129002 0.617391 -0.329108
0.562197 0.254733 -0.746017
0.200315 -0.446269 0.336971
-0.143726 0.272068 0.703779
-0.494861 -0.073479 0.695950
0.558939 -0.455303 -0.008466
-0.501405 0.610706 -0.000387
-0.157566 0.256297 -0.716756
0.561412 -0.454933 -0.009203
-0.177869 -0.810065 0.353919
0.560362 0.253106 -0.746644
-0.144018 0.273401 0.703345
0.200532 -0.445113 0.339538
-0.521875 -0.438781 0.355764
-0.537238 -0.071761 0.000555
-0.534732 -0.444440 -0.356577
0.204954 -0.080509 0.701450
0.556565 0.274412 0.708093
-0.526271 -0.799389 0.015345
-0.144489 0.274980 0.703917
0.200815 -0.444611 0.339245
-0.166142 -0.813238 -0.352367
-0.495353 -0.075194 0.697400
0.179366 -0.446775 -0.355705
-0.520841 -0.440157 0.354996
-0.160534 0.257588 -0.715747
-0.503720 0.609313 -0.002338
0.193841 -0.098167 -0.712048
0.543396 -0.062969 0.334645
0.559054 -0.453418 -0.010178
0.169432 -0.819657 -0.001632
0.549007 0.296216 0.004440
0.180409 -0.446545 -0.356795
0.189294 0.595973 -0.742398
-0.540068 -0.069896 0.000451
-0.128162 0.618410 -0.330798
-0.176585 -0.808672 0.353822
-0.535072 -0.445323 -0.357212
-0.509395 0.256828 -0.356493
-0.509023 0.257289 -0.356218
-0.142521 0.274872 0.704149
0.195639 0.621047 0.034636
-0.538828 -0.071120 0.002495
0.569707 0.648135 0.384179
-0.165043 -0.812643 -0.349993
0.570113 0.649580 0.383621
0.200849 -0.445481 0.337244
0.561793 -0.456397 -0.009250
0.188120 0.594335 -0.741846
0.559696 -0.453223 -0.009120
0.182021 -0.446355 -0.355660
0.544592 -0.061579 0.335446
-0.540735 -0.069711 0.000865
-0.516705 -0.092301 -0.706532
-0.500721 0.610014 -0.001240
-0.501737 0.609109 -0.000104
0.560691 0.255898 -0.747187
0.187059 0.594566 -0.744360
-0.511523 0.256317 -0.357422
0.193848 0.645938 0.739658
0.192333 -0.098531 -0.711995
0.187012 0.593966 -0.741847
0.545710 -0.062312 0.335955
-0.521479 -0.440995 0.354159
0.192827 -0.099063 -0.710977
0.539138 -0.069486 -0.315493
0.200738 -0.445210 0.337113
0.195134 -0.100593 -0.710870
0.545520 -0.062172 0.334684
0.538512 -0.070030 -0.314623
0.184568 -0.447933 -0.356276
-0.148482 -0.432477 0.698034
-0.165824 -0.813345 -0.352198
-0.538616 -0.069958 -0.000887
0.192645 -0.099464 -0.712417
0.199936 -0.447462 0.338336
-0.523742 -0.440776 0.355158
-0.525546 -0.802085 0.015970
0.554822 0.275426 0.707218
0.186944 0.595553 -0.742119
0.181094 -0.446299 -0.356491
0.192935 0.645508 0.741058
0.543433 -0.062537 0.334028
0.538186 -0.070836 -0.316275
-0.521944 -0.442084 0.355481
-0.538631 -0.073125 -0.001103
-0.497370 -0.074682 0.698519
0.180449 -0.447923 -0.355772
0.202951 -0.079974 0.699129
-0.128578 0.620006 -0.330603
-0.527025 -0.797861 0.014710
-0.538999 -0.070470 0.002171
-0.143941 0.271937 0.704085
0.192837 -0.096729 -0.712084
-0.509026 0.258004 -0.358167
0.543246 -0.061448 0.332756
-0.144323 0.272854 0.702589
-0.168915 0.644444 0.375003
0.570567 0.649126 0.384647
0.200703 -0.446686 0.337007
-0.159743 0.255917 -0.714949
-0.510060 0.255124 -0.356475
0.194019 0.645769 0.738922
-0.169921 0.643342 0.375084
-0.517291 -0.094158 -0.707281
0.181745 -0.445732 -0.356407
0.193013 0.643862 0.739493
-0.495893 -0.074138 0.696703
0.193095 0.620554 0.036169
0.192935 0.642751 0.739789
0.192866 0.643887 0.739495
0.188042 0.595138 -0.741148
0.193436 0.643523 0.737711
0.549928 0.293142 0.004735
-0.503267 0.609590 -0.001451
0.560794 -0.452964 -0.009793
-0.527539 0.269780 0.347935
-0.538804 -0.071601 0.000058
-0.164121 -0.811929 -0.352762
