OFF
256 0 0
0.781785 -0.131326 0.414975
0.047653 -0.496975 -0.686507
-0.686166 0.604205 -0.320450
0.414506 -0.129123 -0.688685
-0.318888 -0.129815 0.783841
-0.320054 0.606423 -0.690726
-0.686928 -0.129687 0.414549
-0.686946 0.236323 -0.685041
-0.685886 0.239044 -0.686815
-0.688467 0.605170 -0.317474
-0.319228 0.602612 0.048241
0.415909 -0.496034 -0.321762
0.048013 0.605302 -0.320137
0.416175 -0.131182 -0.688032
0.414352 -0.498012 -0.320464
0.781787 -0.497798 0.049962
-0.318622 0.604581 0.047702
0.780517 -0.130332 0.414169
0.781460 -0.131762 -0.319300
-0.685133 0.237299 -0.685898
-0.686731 0.603564 -0.319040
0.046008 0.236278 -0.688115
0.414493 0.235785 -0.320791
-0.318581 -0.497277 0.414393
0.413742 -0.496514 0.415406
0.048118 -0.496871 0.047032
-0.320086 -0.496630 -0.320085
-0.319467 -0.128305 0.784482
0.415594 0.236050 -0.320101
0.413514 -0.130095 -0.686317
0.413089 0.236561 -0.319404
-0.686062 0.236350 -0.688156
0.414239 -0.129939 0.781694
0.783458 -0.500264 0.049357
-0.689111 -0.130980 0.413556
0.416803 0.604183 0.047706
0.414343 -0.129740 0.781057
-0.319527 0.603096 0.045990
-0.318001 -0.497086 -0.319046
0.048112 -0.497142 0.781472
0.781509 -0.130032 -0.319646
-0.686541 0.236794 0.047487
0.047348 -0.496417 0.047829
0.781785 -0.130116 -0.319686
0.413985 -0.498603 -0.318233
-0.319553 0.604902 -0.687513
0.046384 -0.496670 0.048355
-0.320966 0.236332 0.415075
0.411749 0.237052 0.415141
0.782638 -0.131486 -0.319786
0.047560 -0.499326 0.780504
-0.319790 -0.129781 0.781853
0.781594 -0.131903 0.415623
-0.319984 -0.496878 -0.319434
0.046877 -0.495956 -0.685832
0.781974 -0.498170 0.046123
0.046377 0.236757 -0.686306
0.415367 -0.498470 0.415259
-0.687114 0.237194 -0.685257
0.783235 -0.496337 0.047778
-0.318839 -0.498802 0.414849
-0.685657 -0.127400 0.414599
0.413239 0.604327 0.048118
0.413747 -0.130167 -0.687767
0.781935 -0.495434 0.048433
-0.687305 -0.497920 0.045517
-0.687863 -0.130320 -0.321703
0.047817 0.604320 -0.320566
0.414643 0.238608 0.414102
0.047542 0.603740 0.413322
-0.319870 -0.130037 -0.686771
0.414620 -0.495402 -0.320475
0.781722 0.238086 0.046269
0.413082 0.604302 0.047811
0.781494 -0.497591 0.048844
0.413948 0.605171 0.046484
0.415654 -0.129780 -0.687804
0.046961 0.237376 -0.687469
-0.318485 -0.130311 0.781493
0.782723 -0.129458 -0.317056
0.415515 -0.130655 0.779611
-0.319469 -0.130425 0.782213
0.414949 0.237594 0.414410
0.047210 0.236388 0.782273
0.413424 -0.499269 0.414371
-0.686727 0.237316 0.047308
0.415756 0.237750 -0.319606
0.046141 0.605170 0.414239
-0.320704 -0.495516 -0.320016
0.047776 0.603360 -0.320530
-0.686140 -0.497134 0.047931
-0.688415 -0.131429 -0.321181
-0.686588 -0.129918 0.413924
0.046247 0.235741 0.782094
0.413469 -0.129954 -0.686187
0.414010 0.237371 -0.319083
0.046885 -0.497025 0.049402
-0.687454 -0.497939 0.046363
-0.688037 -0.496889 0.046861
0.413334 -0.129476 0.780046
0.050115 0.237130 -0.688129
0.415585 -0.497497 0.413442
-0.318324 -0.499424 -0.320372
0.414913 0.603260 0.047076
-0.318624 0.603620 -0.687898
-0.318904 -0.497793 0.415250
0.048889 -0.495497 0.046501
0.413052 -0.497821 0.414597
0.415710 0.238210 -0.320533
0.046087 -0.495081 0.782617
-0.685651 0.237453 -0.684151
0.414758 -0.130585 0.781728
-0.318988 -0.494531 0.417023
0.781675 0.236856 0.048344
-0.687663 -0.130137 -0.319149
0.046946 0.235701 -0.685358
0.414929 -0.130415 0.780888
-0.319557 -0.128232 -0.685585
0.413631 -0.129641 0.782082
-0.321384 -0.129810 0.780740
0.781672 -0.498625 0.047593
0.048678 0.237691 0.781249
0.048807 -0.498075 -0.686124
-0.689003 -0.498109 0.048894
-0.319969 -0.129941 -0.687733
0.048456 0.603553 0.414816
-0.320892 -0.496393 -0.319761
0.413409 -0.130556 -0.686012
0.413844 -0.496980 -0.320004
-0.686678 -0.130354 -0.320810
-0.319081 0.606220 0.045919
0.047047 -0.497845 -0.687376
0.414247 -0.498385 0.414783
-0.686330 0.605197 -0.321017
0.414107 -0.130334 0.781060
0.411892 -0.496762 -0.319902
0.047016 0.605159 0.414733
0.047856 0.236315 0.780305
0.045772 0.603718 0.416173
-0.688039 0.236162 0.049787
0.414686 -0.131397 0.781273
0.047467 0.604567 0.412530
-0.322562 -0.130509 -0.687710
-0.317390 -0.498077 -0.319459
0.781026 -0.128453 0.412975
-0.321171 -0.500323 0.413891
-0.685541 0.237730 -0.686660
0.048225 0.603312 -0.320024
0.415632 -0.498239 0.414127
-0.687437 -0.497954 0.046872
-0.318741 -0.497419 -0.319896
-0.685354 0.237050 -0.687611
0.414111 0.236495 0.414562
-0.686762 0.236720 -0.687933
0.415103 0.237775 0.413797
0.781181 -0.129976 -0.317926
0.782529 0.238083 0.047981
0.045818 0.237327 0.782371
0.413068 0.235733 0.414312
-0.686909 -0.130416 -0.319679
0.413180 -0.498619 0.414847
-0.687083 0.237675 -0.686759
0.047275 0.604179 -0.318941
-0.319213 -0.131051 -0.687393
0.782148 0.236964 0.047125
-0.320223 -0.130042 -0.688058
-0.322508 -0.497174 -0.317863
0.413452 -0.129800 -0.686116
0.415409 0.603454 0.047574
-0.686981 0.236861 0.048285
0.046857 0.601998 0.415305
-0.686309 -0.129660 -0.320041
0.046976 0.603477 -0.320360
0.046779 0.604103 0.415534
-0.318598 0.603634 0.047422
-0.319153 -0.130694 -0.686002
-0.319101 0.604598 0.046341
0.045918 -0.498114 -0.685266
-0.320989 -0.495447 0.414529
-0.686089 0.236367 -0.687042
0.782466 -0.130842 0.414520
0.415032 -0.497789 0.414519
-0.320542 0.236860 0.414949
-0.320127 -0.130548 -0.686745
0.780779 -0.130840 0.414704
-0.687823 0.238975 -0.686667
-0.686480 -0.129739 0.414579
0.414252 0.235494 -0.318566
0.414903 -0.498154 0.415041
-0.318960 0.605257 0.046918
-0.687008 0.236583 0.047710
0.046140 -0.496262 0.047720
-0.687217 -0.129748 -0.320807
-0.320706 -0.497126 0.414399
0.781840 -0.496209 0.046409
0.413485 -0.131206 -0.687673
-0.686342 0.604426 -0.318832
-0.686043 -0.130064 0.413622
0.413964 -0.496792 -0.319322
0.047075 0.604970 0.415657
-0.686630 0.236400 -0.687119
-0.318579 -0.497975 0.414708
-0.689230 -0.128986 0.415217
0.415136 0.238483 -0.318727
-0.318012 0.604612 0.048337
-0.689157 -0.130458 -0.319629
0.046640 -0.496589 -0.687473
-0.686921 0.237819 0.048308
0.047862 0.237835 -0.687799
-0.318715 -0.496608 -0.321054
0.780281 0.236377 0.047229
0.047998 -0.498130 0.048701
-0.686344 0.237576 0.046955
0.048121 0.236446 -0.687315
0.781181 -0.129637 -0.320423
-0.688495 0.604035 -0.320818
-0.318748 -0.498643 0.413299
-0.686282 0.236498 0.048523
0.049148 -0.495830 0.780009
0.413983 0.236443 -0.321587
0.414113 -0.129082 -0.685683
0.047933 0.602936 -0.320591
0.780259 -0.130254 0.413297
0.414296 -0.131439 -0.687356
-0.318506 -0.130183 0.782365
-0.319485 -0.129246 0.780027
-0.319618 -0.495550 -0.320582
0.782741 0.235358 0.048354
0.414675 -0.131070 -0.687000
0.782464 -0.497984 0.048110
0.047404 -0.497244 0.781216
0.046793 0.603499 -0.319675
-0.687197 -0.131601 0.415126
-0.319309 -0.497459 -0.319848
-0.320443 0.236340 0.415133
-0.318710 -0.130587 -0.687544
-0.321127 0.238460 0.414304
0.048140 -0.496937 -0.686289
-0.319955 0.603261 -0.687994
0.782412 -0.499291 0.048936
-0.686692 0.234584 0.047037
0.415548 0.604473 0.047611
0.781546 0.235989 0.047327
-0.686352 -0.130298 0.414646
-0.319831 -0.497886 0.414532
-0.687139 -0.128718 -0.319900
0.047162 0.604408 -0.318418
-0.685596 0.606037 -0.318584
-0.320344 -0.131291 -0.687906
-0.320569 -0.496464 -0.321032
0.414740 -0.131844 0.784126
0.047288 -0.499434 0.782355
0.413610 0.233929 0.414612
-0.319755 0.236943 0.413949
0.413939 -0.128665 0.782866
-0.687729 -0.127890 0.414270
