OFF
256 0 0
-0.325301 -0.485110 -0.309675
-0.304762 -0.493771 0.411054
0.385140 0.222862 -0.317747
-0.327241 -0.483714 -0.306763
0.392655 0.209848 0.413981
-0.305439 -0.127415 0.751527
-0.667815 -0.112502 -0.295299
0.775789 -0.114299 0.388903
0.047656 0.589193 0.401613
-0.287792 0.250585 0.403206
0.766009 -0.475632 0.028947
0.043425 -0.489568 -0.663410
-0.315424 0.569452 -0.676984
-0.316025 0.569472 -0.676652
0.390262 0.555033 0.057148
-0.673734 -0.482519 0.045035
0.392934 0.210602 0.412691
0.769131 0.225026 0.049772
0.040726 0.232892 -0.648506
-0.326441 -0.484293 -0.307276
0.409046 -0.147789 -0.690672
0.052215 0.239717 0.757865
0.387296 0.221165 -0.317214
-0.314428 0.569413 -0.675931
0.392548 0.555830 0.056820
0.406436 -0.131674 0.772273
-0.302205 -0.128020 0.750973
0.049830 0.589471 0.401815
-0.650074 0.601944 -0.318565
0.768174 -0.473647 0.029855
0.416854 -0.474646 -0.303005
0.414381 -0.479228 0.416183
0.038867 0.232095 -0.649955
0.415517 -0.474806 -0.302778
-0.651042 0.602872 -0.321061
0.777517 -0.116589 0.389234
0.048658 0.588806 0.401858
-0.320002 -0.115579 -0.666180
0.416457 -0.472958 -0.302066
0.408305 -0.150625 -0.690209
0.778952 -0.117996 0.388826
0.744489 -0.122636 -0.319884
0.038927 0.230596 -0.649096
-0.651113 0.602886 -0.317293
0.064011 0.596556 -0.323445
0.743646 -0.122063 -0.318833
0.392802 0.555948 0.055629
-0.669143 -0.110642 -0.296716
-0.664699 -0.123144 0.406567
0.039098 0.231494 -0.648905
0.405489 -0.133111 0.773724
0.027889 -0.478088 0.777993
-0.671376 -0.111037 -0.297124
-0.674256 -0.482444 0.044516
0.048246 -0.496535 0.035591
-0.698394 0.234287 -0.675936
0.409594 -0.151648 -0.689598
0.767541 0.224780 0.049180
-0.324710 -0.484879 -0.307224
-0.306520 0.607760 0.053326
0.047081 -0.487644 -0.661605
0.393347 0.556682 0.056832
0.412761 -0.478716 0.415400
-0.321839 -0.116114 -0.666396
-0.683609 0.216901 0.040718
-0.650868 0.602906 -0.321427
-0.304840 -0.127957 0.752483
-0.306254 0.608775 0.053372
0.391192 0.558597 0.058049
0.051121 0.588932 0.399104
-0.305098 0.608835 0.052943
0.048477 0.590143 0.399702
-0.684278 0.218511 0.040469
0.028271 -0.478589 0.778797
0.743261 -0.122938 -0.318775
-0.321094 -0.114317 -0.665201
-0.681860 0.218243 0.040845
-0.699597 0.231371 -0.675517
0.777027 -0.116825 0.388488
-0.302011 -0.492751 0.411508
-0.664644 -0.122733 0.405360
-0.288096 0.249573 0.401779
0.768462 -0.474671 0.029651
0.413985 -0.480278 0.415995
0.766382 -0.474796 0.029924
0.767521 0.224285 0.051624
0.777363 -0.116188 0.387614
-0.304634 -0.493426 0.410956
0.051781 0.238406 0.754530
-0.314447 0.570608 -0.677777
-0.306159 0.608221 0.055741
-0.325277 -0.485754 -0.307852
0.062757 0.599513 -0.326901
0.395250 0.211511 0.412055
-0.682941 0.217921 0.040097
0.392068 0.556639 0.058294
0.413103 -0.480598 0.417247
-0.698980 0.232337 -0.675237
0.768014 0.224732 0.050191
0.391658 0.556518 0.057442
0.387994 0.221197 -0.317594
0.029102 -0.479205 0.776917
0.048669 -0.494327 0.035419
-0.315787 0.569930 -0.676145
-0.673882 -0.480542 0.043509
0.051397 0.238583 0.756732
0.768987 0.225728 0.050461
0.410032 -0.150166 -0.690007
0.047586 -0.497668 0.037114
-0.324021 -0.482920 -0.307555
0.767874 0.225440 0.050404
0.029574 -0.477486 0.776299
0.064440 0.598404 -0.325645
-0.304012 -0.127346 0.753113
0.391253 0.556545 0.056657
0.406414 -0.133465 0.773598
-0.304302 -0.127408 0.752638
0.046502 -0.488476 -0.662331
-0.315098 0.570062 -0.675430
-0.320850 -0.116295 -0.666356
0.769406 0.224769 0.050174
-0.306744 0.608456 0.053468
0.409686 -0.149142 -0.689182
0.414596 -0.481562 0.415982
0.744500 -0.122986 -0.320373
0.411642 -0.480987 0.416140
-0.319607 -0.118353 -0.666475
0.029225 -0.478376 0.777780
0.045927 -0.488003 -0.662098
0.063922 0.596022 -0.324881
-0.649235 0.601802 -0.320809
-0.674107 -0.483227 0.044793
0.410940 -0.149175 -0.690895
0.392028 0.209621 0.412388
0.392429 0.556316 0.056781
0.768824 0.225487 0.048949
-0.699933 0.233793 -0.675451
-0.303408 -0.491459 0.412322
0.048899 0.590197 0.399915
0.049124 0.587043 0.400543
0.768877 0.226016 0.050672
-0.314889 0.569371 -0.676487
0.387509 0.221825 -0.316597
0.408659 -0.150452 -0.689328
-0.663937 -0.122157 0.403646
0.048046 -0.496166 0.036696
-0.670889 -0.110395 -0.295768
-0.669713 -0.110688 -0.297117
-0.286155 0.250956 0.402498
0.769212 -0.474724 0.030457
0.048514 0.590221 0.401964
0.403006 -0.132356 0.774823
0.408485 -0.134123 0.772024
0.048037 -0.494533 0.036422
0.048263 0.590194 0.396794
-0.320578 -0.114818 -0.664317
0.386006 0.222017 -0.317574
-0.314456 0.569437 -0.675506
-0.668600 -0.111727 -0.295778
-0.668904 -0.113367 -0.297407
-0.663393 -0.122727 0.403494
0.406043 -0.132342 0.773928
0.775397 -0.117930 0.390661
0.745824 -0.122965 -0.321584
-0.284384 0.249870 0.402150
0.766401 0.222543 0.051261
0.391892 0.557085 0.057383
0.040208 0.231874 -0.648146
0.052150 0.237254 0.754929
-0.650897 0.602097 -0.320151
0.047375 -0.494377 0.036061
0.048679 0.588473 0.399247
-0.665539 -0.123297 0.405578
0.046619 -0.495788 0.034506
0.051025 0.238279 0.756511
0.404132 -0.131550 0.772836
-0.305271 -0.491298 0.410146
0.026729 -0.480170 0.777703
-0.320906 -0.116511 -0.665203
0.390573 0.554390 0.057352
0.062990 0.597436 -0.324915
-0.670044 -0.111109 -0.294983
0.386499 0.220403 -0.317304
-0.682786 0.217234 0.040317
0.049746 -0.497165 0.034184
0.767595 0.224703 0.050710
0.051791 0.238282 0.757458
0.395088 0.208722 0.412138
0.392485 0.211826 0.413087
0.039096 0.231089 -0.647656
0.766601 -0.475344 0.030372
-0.306949 0.609419 0.053176
0.766701 0.224913 0.048379
-0.700760 0.232940 -0.674368
-0.315833 0.570898 -0.676322
0.410276 -0.150079 -0.689226
0.406495 -0.133853 0.773598
0.391873 0.556166 0.058427
0.047397 0.590258 0.400605
-0.667515 -0.111630 -0.295716
0.049728 0.587351 0.399797
-0.669247 -0.110595 -0.295997
0.767635 0.223591 0.050572
0.413821 -0.480368 0.417318
0.412583 -0.479384 0.417382
0.744941 -0.124583 -0.321347
-0.683143 0.217137 0.042482
0.027804 -0.479337 0.776609
0.029787 -0.478631 0.778674
0.039662 0.231073 -0.649386
0.048083 -0.495956 0.035031
-0.669110 -0.112504 -0.296699
0.393624 0.209634 0.411457
0.412112 -0.480352 0.416064
0.743757 -0.125106 -0.320776
-0.697977 0.232427 -0.676572
0.777629 -0.118239 0.388805
0.415381 -0.472490 -0.302410
0.393537 0.211572 0.411407
0.411460 -0.479690 0.417604
-0.322438 -0.117085 -0.666434
0.404857 -0.135158 0.774371
-0.669154 -0.111996 -0.296150
0.043821 -0.489399 -0.663516
0.406852 -0.133612 0.772413
0.410812 -0.480493 0.417617
0.745785 -0.122456 -0.319870
-0.699875 0.232686 -0.675901
0.409122 -0.149619 -0.689117
0.062358 0.599112 -0.326015
0.415220 -0.475575 -0.301633
-0.682414 0.218591 0.041695
0.047483 -0.496336 0.036217
-0.305638 0.607749 0.053788
-0.314369 0.568548 -0.676807
0.767741 -0.476469 0.029483
0.769855 0.224650 0.050480
-0.324981 -0.483000 -0.308527
0.030879 -0.478650 0.776584
0.047117 -0.489306 -0.664144
0.407512 -0.133998 0.773882
-0.672505 -0.482925 0.046757
-0.684804 0.217717 0.040880
-0.325857 -0.483491 -0.309419
0.051066 0.239508 0.756904
0.393565 0.211361 0.410219
-0.326345 -0.484905 -0.307931
0.766938 0.224982 0.049444
-0.663440 -0.121878 0.404370
0.063502 0.597584 -0.328502
-0.306510 0.608913 0.053840
-0.322213 -0.113950 -0.664561
-0.307095 0.609203 0.053244
-0.667946 -0.111699 -0.295046
0.743300 -0.121709 -0.319546
-0.649716 0.600484 -0.319675
