OFF
256 0 0
-0.847506 0.406152 0.015946
-0.018724 -0.436735 0.867738
0.430160 0.883128 0.010822
0.380469 0.375191 0.388710
0.021803 0.410240 0.861690
0.438649 -0.840446 -0.011967
0.381649 0.374970 0.386752
0.886787 0.014159 0.429273
0.379958 -0.415002 0.398276
0.022447 0.411202 0.860999
-0.857862 -0.006183 -0.436418
0.429618 -0.384519 -0.408269
-0.847710 0.405970 0.016466
-0.873102 -0.022603 0.424438
-0.847443 0.404695 0.015912
0.432604 -0.381967 -0.408664
-0.021454 -0.874411 -0.404243
-0.017571 -0.438286 0.865304
0.022870 0.411268 0.860793
0.429253 -0.382614 -0.409524
0.448157 0.030456 -0.870184
0.412243 -0.041793 0.860562
-0.429045 0.861964 -0.000801
0.378359 -0.414079 0.398294
0.867119 0.457310 0.007332
0.023960 0.410986 0.861809
0.407612 0.429206 -0.382673
-0.002643 -0.417128 -0.859462
0.887072 0.015870 0.430385
-0.852261 -0.404807 -0.003300
-0.402336 -0.422176 -0.431807
0.430473 -0.384055 -0.407892
-0.004905 -0.880133 0.401969
0.431903 -0.382178 -0.407589
-0.002551 -0.416760 -0.862662
0.380912 0.373558 0.389803
-0.435320 0.421916 0.423031
0.406278 0.428440 -0.381389
-0.423617 -0.868716 0.007369
0.435060 -0.840219 -0.012303
0.411664 -0.041014 0.859128
0.886029 0.015181 0.429835
-0.851243 -0.404973 -0.002381
-0.401540 -0.422643 -0.432037
0.381009 0.372949 0.390882
0.016969 0.423800 -0.857779
0.866623 0.456730 0.007778
-0.440586 -0.011343 -0.851412
0.887271 0.015646 0.429867
-0.445885 -0.008890 0.895146
-0.853072 -0.405163 -0.003683
0.406115 0.428599 -0.380912
0.860950 0.012407 -0.417877
0.017157 0.424577 -0.856459
-0.440039 -0.009669 -0.852073
-0.428070 0.859136 -0.000752
0.859775 0.012069 -0.418310
-0.002272 -0.418751 -0.861130
-0.440816 -0.009352 -0.852339
-0.402253 -0.423493 -0.431716
-0.000133 0.865431 0.415318
0.447707 0.029622 -0.868482
0.018549 0.424171 -0.858464
-0.404856 -0.425973 0.434073
0.431244 0.885781 0.008119
0.026631 0.859927 -0.446569
-0.872871 -0.022488 0.427069
-0.858271 -0.006423 -0.434941
-0.439727 -0.010759 -0.851456
0.886772 0.013402 0.429955
0.449940 0.029971 -0.869522
-0.850508 -0.404413 -0.002570
0.406066 0.428380 -0.382774
-0.871197 -0.023762 0.426614
0.377784 -0.414614 0.399890
-0.440453 -0.011090 -0.851420
-0.400604 -0.422606 -0.431966
-0.445103 -0.008958 0.893637
0.866970 0.456136 0.007452
0.885930 0.015311 0.430055
0.859551 0.010358 -0.416055
0.449662 0.030765 -0.869663
-0.002993 -0.416833 -0.862070
0.874452 -0.412877 -0.015001
0.875887 -0.412203 -0.014959
0.430219 0.886658 0.009505
-0.446629 -0.008191 0.892814
-0.435275 0.420013 0.422602
0.404759 0.428916 -0.383111
0.378593 -0.414838 0.399428
-0.852140 -0.406405 -0.004596
0.433073 -0.382539 -0.408710
0.436491 -0.839857 -0.012470
0.023216 0.860645 -0.447679
-0.403681 -0.425778 0.433277
-0.005485 -0.879581 0.398588
0.432171 -0.382389 -0.408018
-0.002881 -0.417850 -0.861148
0.432635 -0.382604 -0.407292
-0.403070 -0.427577 0.433480
0.016612 0.422734 -0.856891
-0.403604 -0.427323 0.433130
0.412902 -0.041872 0.861650
0.432877 -0.384900 -0.408230
0.377794 -0.412859 0.398549
-0.415976 0.422127 -0.440638
-0.873444 -0.021847 0.427775
-0.017776 -0.436265 0.867155
-0.873366 -0.022635 0.427403
0.376391 -0.412513 0.398404
0.866126 0.457199 0.006465
-0.025047 -0.873298 -0.405286
-0.446846 -0.008929 0.893741
-0.404764 -0.428357 0.434552
-0.017832 -0.436188 0.864887
-0.427677 0.860860 -0.004395
-0.017345 -0.439230 0.867585
-0.850201 -0.404462 -0.004190
0.860042 0.011144 -0.417012
0.378495 -0.415553 0.397945
-0.435899 0.419938 0.424107
0.447758 0.030750 -0.868420
-0.427286 0.860991 -0.001716
-0.443429 -0.010751 0.895883
-0.423901 -0.870497 0.006668
0.382067 0.373897 0.389548
-0.422184 -0.868910 0.006999
0.382354 0.375509 0.389401
0.449753 0.029503 -0.871046
-0.858290 -0.004778 -0.434232
0.024734 0.860609 -0.446440
-0.851062 -0.405597 -0.003961
-0.852873 -0.404966 -0.004229
0.022577 0.411121 0.861276
0.025221 0.860084 -0.444948
-0.004777 -0.881695 0.399382
-0.024792 -0.874042 -0.403804
-0.025752 -0.871912 -0.404754
-0.426318 0.861112 -0.002597
0.023863 0.412967 0.859215
-0.022797 -0.872112 -0.405358
0.380451 0.375183 0.387290
-0.004560 -0.416598 -0.861010
-0.436686 0.420368 0.424544
0.859530 0.012634 -0.417437
0.411085 -0.041386 0.858461
-0.003810 -0.880414 0.401538
-0.422096 -0.868330 0.008344
-0.024797 -0.872321 -0.403396
-0.428584 0.860667 -0.002099
-0.859685 -0.007092 -0.434506
0.412748 -0.042241 0.859283
0.411979 -0.044490 0.859749
0.411135 -0.041944 0.860763
-0.004616 -0.879341 0.399876
0.875008 -0.412849 -0.012547
0.378849 -0.413793 0.398285
0.024392 0.857643 -0.446547
0.860124 0.011646 -0.415380
0.859433 0.012648 -0.416317
-0.440130 -0.010281 -0.851121
-0.871336 -0.024024 0.426415
-0.404653 -0.427355 0.434427
0.017179 0.423266 -0.858355
-0.444712 -0.010193 0.895964
0.023572 0.410674 0.861525
-0.849111 0.407621 0.015590
0.380963 0.375072 0.389279
0.859074 0.010602 -0.415668
-0.427720 0.861415 -0.001106
0.860175 0.013009 -0.417156
-0.004172 -0.416891 -0.861776
-0.437229 0.419451 0.423268
0.379144 -0.413601 0.399102
-0.846695 0.405253 0.015821
0.865468 0.459198 0.005921
-0.854020 -0.405686 -0.002619
0.867327 0.454854 0.008740
0.025094 0.860653 -0.445247
-0.024189 -0.870801 -0.404618
0.888910 0.015047 0.430710
-0.424828 -0.868566 0.007373
-0.425010 -0.869041 0.007135
-0.017499 -0.437281 0.865507
-0.417063 0.422058 -0.442761
0.377427 -0.413564 0.397639
-0.022403 -0.874683 -0.404541
0.405722 0.427756 -0.383905
-0.403315 -0.427198 0.434525
0.876408 -0.414789 -0.014652
0.436911 -0.839101 -0.012132
0.411719 -0.043062 0.860757
0.433329 -0.381685 -0.409376
-0.440646 -0.009926 -0.852959
0.875563 -0.414412 -0.011661
-0.435418 0.422820 0.422332
-0.858752 -0.005732 -0.436410
-0.401838 -0.423122 -0.429609
-0.857047 -0.007206 -0.435468
-0.441446 -0.009569 -0.852374
0.429943 0.884352 0.008820
0.886496 0.016445 0.430583
-0.438208 0.419875 0.422566
-0.874204 -0.023835 0.424781
0.429662 0.887440 0.010763
0.377759 -0.414130 0.397965
-0.005680 -0.878976 0.400629
-0.024357 -0.873099 -0.403292
0.437183 -0.840655 -0.011180
-0.422861 -0.869243 0.007080
-0.858614 -0.006127 -0.435010
0.438777 -0.839580 -0.010853
0.023351 0.859196 -0.445779
-0.403714 -0.427404 0.433899
0.379446 0.376770 0.390430
-0.404549 -0.426744 0.434384
0.411244 -0.042785 0.858576
-0.440901 -0.009683 -0.852724
-0.006245 -0.881159 0.399074
-0.403749 -0.425612 0.432153
0.375831 -0.413477 0.398831
0.411892 -0.041620 0.858110
-0.017577 -0.437065 0.866019
-0.870599 -0.023922 0.425367
-0.418352 0.422444 -0.443256
-0.018289 -0.437564 0.867272
-0.851505 -0.403493 -0.004048
-0.853266 -0.405612 -0.002815
-0.003923 -0.881331 0.399998
-0.852671 -0.404872 -0.002815
-0.017980 -0.438073 0.868424
0.024161 0.412238 0.860159
0.435369 -0.838223 -0.011214
0.436888 -0.838383 -0.014300
0.448155 0.030714 -0.870387
-0.441195 -0.008388 -0.851515
0.380596 0.374202 0.389114
0.450165 0.030973 -0.870042
0.430233 -0.384383 -0.406686
-0.003178 -0.416895 -0.864223
-0.003767 -0.880591 0.397961
0.865551 0.457411 0.008340
0.023609 0.409627 0.861182
-0.422589 -0.868078 0.006742
0.022355 0.858568 -0.444228
-0.849622 0.405922 0.015491
-0.428560 0.860007 -0.001310
0.447362 0.030976 -0.870236
0.864924 0.456776 0.007270
0.018780 0.422873 -0.857861
-0.438549 -0.009444 -0.852031
-0.444209 -0.008307 0.894937
-0.860062 -0.007365 -0.434657
-0.000878 0.865485 0.415611
0.868428 0.457065 0.008871
-0.399522 -0.421821 -0.429923
