OFF
256 0 0
-0.414069 0.497618 0.318641
0.685639 -0.237926 -0.048763
-0.783921 0.129453 0.318584
-0.781230 -0.237396 -0.047597
0.319652 0.131147 0.688892
0.317500 0.497891 -0.414284
0.319899 0.131400 0.686631
-0.047221 0.497710 -0.780935
-0.781856 -0.234171 -0.047548
-0.781485 0.129597 0.320015
0.689642 -0.236344 -0.048334
-0.047479 0.498084 0.687120
0.687747 -0.235921 0.687431
0.685992 -0.604195 0.319030
-0.415353 -0.603877 -0.048762
0.319803 0.499141 -0.414530
-0.414635 -0.604179 -0.048402
0.320989 0.131044 0.687582
-0.413908 0.131342 0.687153
-0.045923 -0.235944 0.688300
0.318562 0.129699 -0.781750
0.688850 -0.235412 -0.047597
0.321927 -0.605626 0.687971
-0.047554 -0.235182 -0.781871
-0.414315 -0.235225 -0.415585
-0.415063 -0.605724 -0.047066
0.687080 0.131108 0.320632
-0.413598 0.495153 0.319049
0.687028 -0.605292 0.318450
-0.045438 0.498091 0.687807
-0.413937 -0.235225 -0.415849
-0.045041 0.497815 -0.781107
-0.047340 0.498238 -0.046325
-0.046438 -0.604244 -0.414684
-0.414088 0.496808 -0.413504
0.318602 0.495894 -0.417112
0.320373 0.129311 -0.782517
0.319633 -0.604559 0.687945
0.318313 -0.236270 -0.414424
0.686796 -0.237703 -0.047064
-0.047005 -0.603381 0.318745
-0.046414 0.498450 0.686421
-0.781354 -0.237965 -0.048676
-0.048404 -0.601927 0.319419
0.689234 -0.237344 -0.047906
-0.414863 -0.604201 -0.047010
-0.413871 -0.236959 0.320722
0.689153 -0.236573 -0.047393
-0.049168 0.498924 -0.047791
0.320473 -0.605221 -0.044829
-0.414870 -0.236441 0.319782
-0.414099 -0.237112 0.319237
-0.414853 0.498392 0.320583
-0.414679 -0.235544 0.319627
-0.046392 0.498701 -0.047368
-0.782406 0.496978 -0.048503
-0.048617 -0.238191 -0.780581
-0.046931 -0.238967 -0.782812
-0.047060 0.498210 -0.784145
-0.783107 0.499115 -0.045765
-0.047525 0.497190 -0.048463
0.686528 -0.236610 0.687519
0.686926 -0.236330 0.687732
0.687503 -0.603280 0.318576
0.319978 0.130769 -0.781852
0.686212 0.129284 -0.415829
0.319168 -0.238525 -0.413123
0.687633 0.129773 -0.415829
-0.047499 0.498105 -0.780045
0.319503 -0.235647 -0.416646
0.320935 0.131967 0.686898
0.686915 0.130968 0.320481
-0.413619 0.130866 -0.780571
-0.782234 0.130115 0.320251
0.686812 -0.602572 0.318172
0.320058 -0.604411 -0.047193
0.319292 0.128663 0.687466
-0.414177 0.129142 0.687928
0.687390 -0.237041 0.688303
0.319909 0.128621 0.686858
-0.781084 0.497675 -0.047790
-0.414656 -0.603577 -0.047204
0.688408 0.132107 -0.414473
0.319491 -0.235221 -0.413077
-0.415382 0.498531 0.320244
0.687016 -0.238215 -0.046974
-0.414500 0.497676 0.319520
-0.047266 -0.237994 -0.782714
0.320542 -0.602614 0.688942
-0.413467 0.129739 -0.781644
-0.047405 -0.238169 -0.781369
0.685883 0.130314 -0.416131
0.319357 -0.236287 -0.414424
0.320419 0.496997 -0.414420
-0.047646 0.496914 0.687387
-0.048740 -0.237333 0.685775
0.688005 -0.602944 0.318926
-0.046943 0.499134 -0.049374
0.688321 -0.235916 -0.047778
-0.412192 -0.602660 -0.046942
0.685879 0.129675 -0.415391
-0.047861 -0.237280 0.688415
0.320426 -0.604239 0.687558
-0.046304 -0.607095 -0.413544
-0.416174 0.496594 0.319927
0.319865 0.131633 -0.782084
0.319519 0.497580 -0.413523
0.319950 0.496923 0.320531
0.319736 0.129658 -0.781175
0.687239 -0.237388 0.685306
0.320815 0.131118 0.687457
0.320760 0.496122 -0.415769
0.686883 -0.237755 0.687654
0.321017 0.498100 0.319482
-0.049454 -0.238383 -0.781833
-0.049444 0.494895 0.686816
0.320548 0.497973 -0.414766
-0.414184 0.497901 0.320230
0.687538 -0.604407 0.320340
-0.781256 0.496206 -0.047568
-0.046765 0.498415 0.687141
-0.048660 0.496798 -0.782280
0.687470 -0.236718 -0.048476
-0.046075 0.498098 -0.045975
-0.048028 -0.602283 -0.416094
-0.046919 -0.602558 -0.414055
-0.414704 -0.236778 0.319146
-0.415534 0.129943 0.686184
0.685847 0.129312 0.319943
-0.783504 0.128792 0.320345
-0.413803 -0.604212 -0.047471
0.320351 -0.602023 0.686716
-0.414376 0.497512 -0.415104
-0.415029 -0.236491 0.319236
-0.415364 -0.237690 -0.415534
-0.047175 0.497039 0.686978
0.685784 0.497597 -0.048980
0.321019 -0.604103 -0.046914
0.318395 0.498898 -0.413866
-0.415293 -0.603985 -0.047301
-0.414748 -0.604263 -0.047160
-0.048172 -0.602922 0.322049
0.686563 -0.236015 -0.048616
-0.780985 0.128817 0.320436
-0.415627 0.128735 0.686964
-0.782533 0.130408 0.318826
0.687118 0.130560 -0.415641
-0.413814 0.129787 -0.782908
-0.047026 0.496756 -0.047245
0.318545 0.128842 0.688644
-0.413236 0.129500 -0.781132
0.319947 -0.603552 -0.047964
-0.414138 0.498458 0.317991
0.320011 0.497781 0.318734
-0.414133 0.497577 0.320034
0.687357 0.129548 0.319135
-0.045526 0.497850 -0.048330
0.686270 -0.236342 -0.047602
-0.046455 -0.236209 -0.780675
0.319283 0.496325 0.319154
-0.413736 0.129234 -0.779882
-0.049093 0.495916 -0.047382
-0.416105 -0.236560 0.319176
0.686890 0.129051 -0.414579
-0.783439 0.129682 -0.415351
-0.415406 -0.237889 -0.414034
0.686802 0.128982 -0.413291
0.686740 -0.237802 -0.047364
-0.046977 0.497786 0.686433
0.688476 0.132598 0.320199
0.685248 0.130613 0.320416
0.688063 -0.603737 0.319767
-0.046660 -0.236396 0.686776
-0.781235 0.129648 -0.415127
0.687738 -0.605716 0.319907
0.685493 -0.603380 0.320670
0.686093 0.496546 -0.047369
0.319227 -0.603062 0.685051
0.319423 -0.604034 -0.046400
-0.048086 0.498636 0.687239
-0.781551 0.496705 -0.046698
0.686078 -0.236484 0.685587
-0.415008 0.130053 0.686267
-0.416015 0.130630 0.686603
-0.047493 0.497570 -0.781052
-0.045255 0.496736 -0.048451
0.687384 -0.237147 -0.047821
-0.048134 -0.238556 -0.780086
-0.049307 -0.236998 0.685977
-0.413810 0.130062 0.688706
0.319061 0.132135 -0.781806
0.685369 -0.238501 -0.049158
-0.782503 0.130843 -0.415066
-0.413508 0.498372 -0.416438
0.688922 0.129559 -0.414056
-0.047363 -0.236521 -0.783109
-0.414445 0.130965 0.686718
-0.415433 0.130574 0.685497
0.320689 -0.604486 -0.046333
0.320218 -0.603321 0.685783
0.686044 0.498531 -0.047625
0.688325 -0.237269 -0.047523
0.320293 0.128498 0.685669
-0.047629 -0.236068 0.687417
-0.413296 -0.235434 0.320596
0.688622 0.496036 -0.047727
-0.415801 0.498152 0.320180
-0.414976 -0.234857 -0.414060
-0.047192 -0.605671 -0.413452
0.319291 -0.603047 -0.045376
0.318838 -0.602942 -0.046878
-0.782888 -0.236342 -0.049514
-0.048878 0.498273 -0.783228
0.318922 -0.605339 -0.048612
-0.782803 0.130259 0.321107
0.319353 -0.602965 -0.046979
-0.047896 -0.604370 -0.414572
-0.412406 -0.603971 -0.048407
-0.047696 0.496322 -0.046638
-0.781351 0.496363 -0.046591
-0.049089 -0.237240 0.686739
0.686922 -0.240375 -0.046086
-0.780634 0.128322 0.320981
0.687412 0.130308 -0.414526
0.317681 0.496113 0.320875
-0.046064 0.498001 -0.046739
-0.048138 -0.235082 -0.782209
0.686082 0.129632 0.320157
-0.414719 0.129920 -0.782871
-0.413294 0.498869 -0.413195
0.321460 0.497982 0.320466
-0.781200 0.495264 -0.048021
-0.047513 -0.235774 -0.781250
-0.048401 0.498500 0.685793
0.687950 0.130250 0.319371
0.320066 -0.603450 -0.047170
0.687552 -0.603321 0.319535
0.685844 0.130189 -0.414349
-0.047479 0.498230 -0.781463
0.685809 0.130358 0.319397
-0.045552 0.497711 0.686803
-0.415325 0.495897 0.318958
-0.415591 -0.235001 0.319956
0.321009 -0.236754 -0.414507
-0.781852 -0.236500 -0.046379
-0.413638 0.497746 -0.415989
-0.414575 -0.604326 -0.047264
0.319977 0.496879 0.319927
0.318549 -0.603468 -0.047187
0.688183 -0.237683 0.688589
0.321022 0.495966 0.320054
-0.782923 0.131118 0.319239
0.319597 0.498493 -0.414773
-0.047182 0.495348 -0.783298
0.686428 -0.235481 -0.047295
0.320348 -0.236104 -0.414848
