OFF
256 0 0
-0.400481 -0.606205 -0.036307
0.652973 0.137997 -0.411261
0.312881 0.141935 -0.780092
-0.383488 -0.214698 -0.388469
-0.074679 -0.226792 -0.770283
-0.050924 0.484586 0.654636
-0.383727 -0.214204 -0.391219
0.673961 -0.222057 0.703836
-0.033851 0.509983 -0.069172
-0.384262 -0.213914 -0.388697
-0.032489 -0.587728 0.291708
0.674313 -0.572466 0.328645
0.675974 -0.573947 0.328567
0.652949 0.136817 -0.410432
0.306723 -0.584312 -0.048367
0.671949 -0.224518 0.704473
0.304593 -0.582871 -0.047447
-0.759490 0.466433 -0.029074
-0.779406 0.114215 0.326901
-0.779297 0.114614 0.325002
-0.035896 0.509234 -0.069721
0.322917 0.502855 0.286173
0.323232 0.501940 0.285250
0.703068 0.483853 -0.035043
-0.075809 -0.224373 -0.769665
0.305614 -0.583145 -0.049488
0.672626 -0.222264 0.705855
-0.026209 -0.236376 0.647943
-0.385664 -0.214561 -0.388762
0.673220 -0.223632 0.706268
-0.391423 0.472358 0.312274
0.275852 0.133140 0.662004
-0.384406 -0.214206 -0.389419
0.317219 0.483672 -0.401508
-0.035141 0.509567 -0.068854
0.318206 0.483779 -0.401364
0.674906 -0.570214 0.327374
-0.391886 0.470834 0.314069
-0.397879 -0.606533 -0.035312
0.681865 -0.217687 -0.071730
-0.031498 -0.587101 0.293682
-0.386265 -0.214172 -0.389168
-0.025659 -0.237077 0.648074
0.682275 -0.216222 -0.072558
0.672199 -0.225133 0.706151
0.306107 -0.584054 -0.047662
-0.398860 -0.606207 -0.037214
-0.774990 -0.233401 -0.022525
0.681397 -0.215820 -0.071546
-0.051193 -0.616390 -0.397432
-0.037383 0.479414 -0.756640
-0.401253 0.462735 -0.396221
0.315778 0.485608 -0.403955
-0.384042 -0.212211 -0.387672
0.681714 -0.215790 -0.071134
-0.032740 0.509774 -0.069585
-0.404570 0.142186 -0.766650
-0.405623 0.144604 -0.766076
0.305778 -0.583504 -0.049058
-0.052603 0.484040 0.656982
-0.774584 0.118748 -0.388055
-0.399428 0.465047 -0.395136
0.653696 0.137549 -0.412576
-0.400811 0.463478 -0.397271
-0.399108 -0.606744 -0.037522
0.676831 -0.573085 0.328035
-0.405152 0.146305 -0.766906
0.307825 -0.229754 -0.399865
0.672137 -0.224376 0.705893
-0.406835 -0.231039 0.308055
0.702693 0.484517 -0.034511
0.673640 -0.222848 0.704210
-0.400564 0.463868 -0.396558
0.322096 0.501130 0.286335
0.322472 0.500355 0.285180
0.642179 0.103110 0.304649
0.675496 -0.570944 0.329275
-0.383615 -0.212240 -0.388022
0.702458 0.483977 -0.034441
-0.759206 0.466987 -0.032516
0.679620 -0.215997 -0.072796
-0.030872 -0.584318 0.292472
-0.776912 0.114121 0.324375
-0.401061 -0.607236 -0.036220
-0.778213 0.113936 0.324924
0.319798 -0.595381 0.683714
-0.034544 0.510040 -0.067297
0.677363 -0.571528 0.327376
0.680583 -0.217333 -0.070798
0.310340 -0.231130 -0.398611
0.307794 -0.230427 -0.397111
-0.406565 -0.231133 0.310891
0.314029 0.140818 -0.782177
0.642674 0.102279 0.305946
0.323290 0.502218 0.286474
-0.775235 -0.234071 -0.025341
0.308737 -0.230275 -0.399409
0.305789 -0.583415 -0.049127
-0.775667 0.118442 -0.387977
-0.050564 -0.613921 -0.400301
-0.774799 -0.233898 -0.023128
0.675791 -0.571623 0.327816
-0.398981 0.463527 -0.397677
-0.399068 0.465876 -0.396658
-0.412861 0.134044 0.664363
0.655339 0.137737 -0.413714
-0.024878 -0.238159 0.649129
-0.050396 -0.614065 -0.402252
0.320589 -0.592118 0.684521
-0.054093 0.484694 0.655222
-0.385340 -0.214570 -0.389819
0.680262 -0.216450 -0.072499
-0.413207 0.131962 0.667178
0.312741 0.141566 -0.782010
0.312683 0.140873 -0.781114
0.679462 -0.216335 -0.073122
0.323721 0.501185 0.285398
-0.076571 -0.226910 -0.771364
0.309309 -0.231610 -0.397884
-0.777884 0.113468 0.327654
-0.403146 0.144406 -0.765529
0.312968 0.140182 -0.782029
-0.391175 0.471994 0.314311
-0.037309 0.479409 -0.754523
-0.049118 -0.614781 -0.400089
0.678915 -0.216968 -0.072888
0.676653 -0.572616 0.328804
-0.384581 -0.214359 -0.388887
-0.032386 -0.585547 0.292620
-0.413501 0.135273 0.666118
0.673322 -0.223735 0.703688
-0.385634 -0.213097 -0.388609
-0.024404 -0.237693 0.650073
-0.035848 0.478688 -0.753977
-0.411601 0.131289 0.663347
-0.053179 0.483800 0.653616
-0.414174 0.132715 0.664096
0.306272 -0.585250 -0.048721
-0.023305 -0.237123 0.646851
0.313527 0.144263 -0.781329
-0.776110 -0.236136 -0.024471
-0.075921 -0.226031 -0.770387
-0.409929 -0.231037 0.309699
0.320086 -0.593607 0.682576
-0.414517 0.134632 0.664599
0.324423 0.499874 0.285592
0.653887 0.134457 -0.413435
0.643813 0.102645 0.307544
-0.775356 -0.233391 -0.024786
-0.398489 -0.606117 -0.035321
-0.404488 0.144560 -0.765701
0.702775 0.483993 -0.034190
-0.391140 0.472339 0.314099
0.701995 0.483836 -0.035849
0.307452 -0.230177 -0.398948
0.646052 0.102496 0.306755
-0.022520 -0.239349 0.647900
0.673113 -0.223175 0.705702
-0.031485 -0.585185 0.293598
-0.391616 0.473397 0.314974
0.642828 0.104143 0.304396
0.680219 -0.216583 -0.071283
-0.402784 0.143432 -0.766677
-0.403036 0.142562 -0.766053
0.702422 0.483169 -0.034422
-0.053770 0.483895 0.654446
0.642719 0.104858 0.305598
0.703418 0.483260 -0.035963
0.680290 -0.216756 -0.072252
0.672928 -0.226611 0.704473
-0.402325 0.465514 -0.396763
0.309908 -0.229315 -0.399066
0.643370 0.103837 0.306353
0.313626 0.141373 -0.781865
0.680168 -0.215597 -0.070229
0.654883 0.138133 -0.413965
-0.030369 -0.588680 0.293552
-0.031655 -0.586483 0.293571
-0.032202 -0.587325 0.293361
-0.053025 0.484637 0.655828
0.309262 -0.229835 -0.398003
-0.023877 -0.237761 0.647812
0.319980 -0.593202 0.684019
-0.051643 0.484353 0.654215
0.642761 0.103891 0.307296
-0.777728 0.111942 0.327405
-0.384365 -0.213220 -0.388938
-0.777047 0.113494 0.324611
-0.388727 0.471916 0.315511
0.676161 -0.570898 0.328310
0.703380 0.483152 -0.033868
-0.399268 -0.607899 -0.036810
0.703613 0.484886 -0.036060
-0.048443 -0.613867 -0.400162
-0.035476 0.512044 -0.067118
0.315801 0.483517 -0.401735
0.671088 -0.224931 0.705950
-0.391141 0.472115 0.314001
0.679857 -0.217332 -0.073682
-0.388568 0.471043 0.314143
0.312971 0.140677 -0.781017
-0.034629 0.509895 -0.068207
-0.405167 0.146156 -0.765535
-0.074648 -0.227142 -0.770778
0.322947 0.502807 0.286123
0.312612 0.141190 -0.780564
-0.405197 0.143350 -0.767366
0.324192 0.500338 0.286101
0.274833 0.132002 0.661585
-0.051207 -0.614238 -0.398717
-0.399868 0.462603 -0.396884
0.702720 0.483890 -0.033376
-0.398805 0.463758 -0.397670
-0.408510 -0.232314 0.308287
-0.776867 0.113955 0.328070
0.313445 0.141532 -0.780519
-0.025609 -0.237755 0.648573
-0.400863 -0.606706 -0.036394
0.642966 0.103241 0.305664
-0.035011 0.509230 -0.066896
-0.777842 0.113901 0.324405
-0.407765 -0.232720 0.310114
0.672041 -0.221812 0.705313
-0.407253 -0.230955 0.308901
-0.032796 -0.586989 0.292296
-0.389266 0.473200 0.314472
0.643234 0.103316 0.304318
-0.403188 0.144137 -0.766871
0.679942 -0.218413 -0.073194
0.320777 -0.594035 0.683582
0.672606 -0.224011 0.704933
-0.031028 -0.585923 0.295028
-0.031094 -0.586251 0.292622
-0.414849 0.130276 0.662961
-0.777954 0.114197 0.325755
-0.051988 0.483787 0.653818
0.643741 0.102811 0.304933
-0.759579 0.468990 -0.031322
-0.034068 0.510166 -0.068130
-0.052645 0.484166 0.654052
-0.030551 -0.586501 0.293682
-0.024869 -0.238138 0.649235
-0.759574 0.466709 -0.030897
0.653832 0.137052 -0.413921
0.317738 0.487100 -0.401142
-0.773980 0.122578 -0.391897
-0.023553 -0.238905 0.648905
-0.035369 0.477922 -0.755953
-0.398427 -0.606744 -0.036472
-0.411402 0.133459 0.663752
0.654323 0.137581 -0.412193
0.323127 0.501603 0.286642
0.702540 0.484190 -0.036236
-0.024056 -0.235967 0.650240
-0.778448 0.112774 0.325092
-0.775893 0.122886 -0.391757
