OFF
256 0 0
-0.051542 0.511740 0.682894
-0.041580 -0.217639 0.661073
-0.391427 0.483953 -0.400152
0.682031 -0.260842 0.685610
0.328560 0.500052 -0.406934
-0.800179 0.482306 -0.053927
-0.392709 0.483650 -0.401757
0.318329 0.131191 -0.795311
-0.419715 -0.209238 0.316004
-0.041194 -0.600295 -0.420437
-0.413793 0.127755 0.698724
-0.035251 0.492678 -0.765001
0.324746 0.499349 -0.406541
-0.386565 0.128030 -0.796303
-0.068450 -0.620015 0.314821
0.679159 -0.259366 0.683910
-0.424607 -0.602098 -0.066764
-0.397042 0.454356 0.299771
-0.785574 0.131393 0.338740
-0.798084 -0.228738 -0.053226
-0.067608 -0.620341 0.314516
0.681354 -0.262507 0.684319
0.318045 0.130907 -0.796618
0.674484 -0.246239 -0.012595
0.675706 0.135803 -0.414576
0.311724 -0.236048 -0.400227
0.686361 -0.639710 0.328938
-0.795844 -0.228496 -0.053796
0.675911 0.135357 -0.415525
-0.796607 -0.230159 -0.052042
-0.760587 0.146859 -0.462698
0.682035 0.486097 -0.053561
0.310799 -0.235606 -0.399174
0.310055 0.135285 0.683086
-0.070227 -0.620435 0.314304
0.691171 0.154795 0.335366
0.318064 0.130946 -0.796134
-0.029026 0.490381 -0.023676
0.689146 0.153840 0.334744
0.673494 -0.247203 -0.012011
-0.796668 -0.229337 -0.052626
-0.028803 0.489321 -0.022920
0.676261 0.135976 -0.418577
0.310874 -0.232872 -0.398929
0.300739 -0.602728 -0.023372
-0.412928 0.127020 0.698955
-0.391560 0.484282 -0.400123
-0.761458 0.147191 -0.459732
-0.761330 0.146835 -0.461075
-0.035643 0.493283 -0.764458
0.301132 -0.603859 -0.023087
-0.052665 0.513635 0.685910
0.327397 0.500165 -0.405243
0.311274 -0.234526 -0.398174
-0.419018 -0.210623 0.315676
0.690503 0.153997 0.334315
-0.386024 0.127261 -0.795855
-0.405610 -0.231054 -0.416685
-0.783025 0.131484 0.338380
-0.412314 0.127770 0.697757
-0.032031 -0.223413 -0.790872
0.689789 0.155557 0.335209
0.324531 0.500185 -0.405719
-0.412007 0.129216 0.697620
0.676132 0.135162 -0.416535
-0.398073 0.454782 0.301235
-0.036254 0.493252 -0.765730
0.326717 0.499406 -0.405676
0.305520 -0.595054 0.671727
0.689075 0.154038 0.335394
0.309764 0.137151 0.682330
-0.404757 -0.230999 -0.415103
-0.035594 0.491335 -0.765373
-0.384919 0.127795 -0.796335
0.679267 -0.261656 0.682801
0.675587 -0.247462 -0.012396
-0.068926 -0.621130 0.314662
0.300917 -0.604139 -0.022675
0.311790 0.136542 0.684429
-0.034020 -0.223021 -0.788691
-0.401515 -0.230959 -0.416169
-0.031834 -0.224580 -0.789012
-0.035283 0.491165 -0.766460
0.318042 0.130082 -0.795164
0.679615 0.486077 -0.053443
-0.391481 0.484075 -0.398977
0.317546 0.130522 -0.795519
-0.798015 -0.227277 -0.050347
-0.398263 0.453538 0.299200
-0.421820 -0.211101 0.317212
-0.385155 0.128899 -0.796010
-0.033536 -0.226159 -0.789495
-0.802285 0.481206 -0.054277
0.679228 -0.261122 0.683954
-0.068204 -0.620530 0.314709
-0.421880 -0.209957 0.317769
0.323432 0.522467 0.332887
-0.043821 -0.215845 0.661560
-0.797527 -0.227702 -0.051397
0.310521 0.135841 0.682082
-0.396743 0.453804 0.299940
0.309400 0.137726 0.685800
-0.052267 0.509118 0.685588
0.323057 0.521197 0.330556
0.680666 0.485197 -0.055965
-0.422886 -0.211482 0.318219
-0.031974 -0.224340 -0.789373
0.686275 -0.640716 0.327514
-0.414111 0.126742 0.697938
0.324421 0.498750 -0.407347
0.679399 0.486141 -0.053535
-0.032601 -0.225296 -0.790009
0.311960 -0.233488 -0.399357
-0.785869 0.131260 0.338068
0.319411 0.130210 -0.796061
-0.042638 -0.218834 0.660853
-0.067217 -0.621762 0.315257
-0.803373 0.480654 -0.053795
-0.784570 0.132207 0.338319
-0.053559 0.512258 0.684135
0.323395 0.521482 0.331011
-0.413312 0.128302 0.696930
-0.068768 -0.619340 0.315162
-0.419111 -0.211093 0.317690
-0.801073 0.482795 -0.053260
-0.797732 -0.230326 -0.050232
-0.036199 0.492279 -0.766773
-0.402979 -0.230746 -0.415621
-0.043682 -0.218560 0.661981
0.680309 0.487608 -0.055300
0.317414 0.129164 -0.796707
-0.384412 0.130187 -0.796166
-0.052002 0.514225 0.683694
0.310851 0.136626 0.681052
-0.385542 0.128395 -0.796621
0.689846 0.155371 0.334829
-0.391132 0.484166 -0.397713
-0.042143 -0.217520 0.662563
-0.404873 -0.230474 -0.416614
-0.761082 0.147746 -0.460742
-0.067500 -0.619656 0.313361
-0.040293 -0.598494 -0.418764
0.678568 -0.246965 -0.011647
-0.419497 -0.209379 0.317582
-0.391556 0.485150 -0.397493
-0.414678 0.128771 0.698783
0.680709 0.487012 -0.052799
0.317708 0.130805 -0.795332
-0.420803 -0.210618 0.317548
0.687983 -0.640068 0.327394
-0.786897 0.130210 0.337223
0.322447 0.521480 0.332411
-0.414832 0.126092 0.698709
-0.421449 -0.209213 0.318453
-0.384531 0.129447 -0.795738
0.327065 0.499555 -0.406285
-0.052517 0.511810 0.683973
0.299419 -0.604248 -0.021876
-0.068961 -0.620148 0.315108
-0.068312 -0.620547 0.314654
0.304129 -0.594337 0.674434
-0.040960 -0.217738 0.661815
-0.397905 0.454840 0.299023
-0.423485 -0.601935 -0.067399
0.325817 0.498621 -0.407045
0.687479 -0.641219 0.327080
-0.068026 -0.619280 0.313645
-0.422010 -0.602567 -0.066250
0.307284 -0.593774 0.674437
-0.396407 0.456825 0.299116
-0.398208 0.453719 0.301651
0.309928 -0.235011 -0.400598
-0.391688 0.483812 -0.399983
-0.041029 -0.598763 -0.419210
0.318071 0.132469 -0.794928
0.322988 0.521577 0.332412
-0.032172 -0.224014 -0.789409
-0.421168 -0.210378 0.317473
-0.397489 0.454770 0.301405
0.324638 0.521070 0.333862
-0.761746 0.146671 -0.462991
-0.420184 -0.210188 0.317700
-0.798137 -0.229130 -0.050407
-0.403793 -0.232645 -0.415726
-0.031769 -0.223812 -0.789447
-0.042238 -0.217733 0.660821
0.679662 -0.261541 0.683576
-0.067390 -0.621282 0.315395
-0.802350 0.482802 -0.055236
0.681003 -0.262476 0.683097
0.672989 -0.246437 -0.010680
-0.391252 0.483769 -0.398739
-0.762075 0.147694 -0.462133
-0.036888 0.492971 -0.764657
-0.041162 -0.217603 0.663793
0.685258 -0.640141 0.327248
-0.051261 0.511296 0.684741
-0.425295 -0.602382 -0.067319
-0.795788 -0.229527 -0.049573
-0.043477 -0.220183 0.662913
0.690761 0.155450 0.334344
-0.413361 0.128084 0.698454
0.691621 0.153926 0.335463
0.319412 0.131390 -0.796879
-0.069193 -0.619621 0.313206
0.310741 0.135744 0.683740
-0.788126 0.131538 0.338511
0.305695 -0.595026 0.674792
0.311138 -0.233037 -0.399840
-0.799926 0.479960 -0.054621
0.304492 -0.595955 0.674834
0.300284 -0.603327 -0.023017
0.682831 -0.262673 0.684360
0.312314 -0.237047 -0.400393
-0.397493 0.455036 0.299777
-0.067904 -0.619056 0.313349
-0.411976 0.128738 0.696994
-0.034985 0.492878 -0.765618
0.681017 -0.261033 0.683911
0.299116 -0.604560 -0.022763
0.300271 -0.604331 -0.022628
0.298797 -0.604495 -0.022709
-0.420949 -0.210202 0.317362
0.312369 -0.235457 -0.401401
0.678785 0.486449 -0.053996
0.689113 0.154984 0.333442
0.299869 -0.602260 -0.023105
-0.785046 0.130241 0.336652
0.675169 0.135760 -0.415864
-0.052053 0.512163 0.685004
-0.041367 -0.596591 -0.419928
-0.041975 -0.600233 -0.418039
-0.797282 -0.228298 -0.049604
-0.413027 0.128071 0.697286
-0.421729 -0.209781 0.315781
-0.040210 -0.220642 0.659705
-0.040202 -0.596275 -0.419678
-0.054484 0.512505 0.685340
-0.032324 -0.224493 -0.789245
0.692171 0.154661 0.335167
0.310997 -0.235443 -0.399860
-0.034932 0.490146 -0.765330
0.688645 0.154507 0.336175
-0.421006 -0.208789 0.316436
-0.423940 -0.604550 -0.066510
0.677136 0.135910 -0.416600
-0.801273 0.480979 -0.053245
0.300702 -0.602576 -0.024035
0.299497 -0.604612 -0.024537
0.675200 -0.245921 -0.013626
0.310598 0.136167 0.682584
0.678317 0.136005 -0.416139
0.301382 -0.603420 -0.023421
-0.390832 0.484267 -0.400404
-0.761716 0.147276 -0.461760
-0.029649 0.489877 -0.021902
