OFF
256 0 0
-0.054043 0.497069 -0.777769
-0.431779 -0.606887 -0.048243
0.308130 -0.602909 0.678165
-0.776817 -0.217403 -0.044303
0.347675 0.507585 -0.414724
-0.423542 0.123541 -0.806624
-0.070450 -0.602138 0.314757
-0.423956 0.475416 -0.404652
0.346989 0.516645 0.329705
0.702932 0.488371 -0.051885
-0.055472 0.497181 -0.775312
0.347322 0.505933 -0.415794
0.695346 -0.639768 0.329117
0.712809 0.105926 -0.437462
0.315132 -0.216196 -0.433084
-0.416803 0.119163 0.684332
-0.424878 0.122374 -0.809149
-0.832491 0.121690 -0.428380
-0.424752 0.475793 -0.405318
0.327408 0.134077 -0.780059
-0.423501 0.475514 -0.405257
-0.822280 0.133835 0.357336
-0.418427 0.116982 0.682132
0.348549 0.508647 -0.414803
0.712610 0.105155 -0.437418
-0.804738 0.481938 -0.051994
-0.054743 0.496078 -0.776898
-0.038662 -0.215904 0.701988
0.348937 0.508135 -0.416656
-0.413466 -0.219076 -0.427492
-0.418009 0.117143 0.682837
-0.423797 0.124505 -0.809290
0.347512 0.510378 -0.414368
-0.072243 -0.603585 0.316952
-0.422315 0.477182 -0.407149
-0.069787 -0.601983 0.315259
-0.019349 0.489233 -0.023082
-0.422988 0.476541 -0.405332
0.686558 -0.252699 0.681781
0.714104 0.106244 -0.438072
-0.055381 0.497701 -0.779927
-0.416893 0.119480 0.682775
0.702971 0.151794 0.330609
-0.043439 -0.252717 -0.808332
0.346435 0.518611 0.329920
-0.418145 -0.218104 -0.430669
0.703654 0.486817 -0.051958
0.307148 -0.604873 0.677962
0.327454 0.132917 -0.782474
-0.805604 0.483523 -0.052449
-0.419014 0.117737 0.682142
-0.831510 0.120479 -0.428606
0.695510 -0.636236 0.329294
-0.820626 0.137621 0.357812
0.308734 -0.602526 0.680059
-0.431935 -0.605885 -0.046590
-0.833382 0.121536 -0.427610
-0.035777 -0.215427 0.702567
0.330207 -0.617364 -0.036168
0.329219 0.156704 0.693771
0.698208 -0.238618 -0.034566
0.696101 -0.636594 0.330884
-0.040260 0.520473 0.711974
-0.064335 -0.609087 -0.425725
0.687697 -0.250607 0.682541
0.711789 0.104559 -0.438550
-0.416949 -0.219564 -0.431046
-0.822298 0.134622 0.357428
-0.401838 -0.207846 0.297989
-0.040211 0.518245 0.713090
-0.775475 -0.217815 -0.044116
0.315522 -0.218694 -0.431758
0.309314 -0.604636 0.678517
-0.037818 -0.215672 0.702971
0.704096 0.152298 0.330828
-0.833738 0.120175 -0.429175
-0.775119 -0.220281 -0.046100
-0.422900 0.472380 0.322881
-0.831699 0.120071 -0.427734
0.314429 -0.214350 -0.432201
-0.064466 -0.608292 -0.426253
0.346275 0.507714 -0.414774
-0.020403 0.489074 -0.021462
0.704074 0.486041 -0.052742
-0.423384 0.472821 0.322565
0.346618 0.518236 0.331169
0.307185 -0.602483 0.679288
-0.423687 0.474521 0.322581
-0.037409 -0.216077 0.703687
-0.043029 -0.248520 -0.809669
-0.042121 -0.249699 -0.809175
0.704291 0.487817 -0.050622
0.686785 -0.252293 0.683052
0.314800 -0.218215 -0.430336
-0.414423 -0.218440 -0.428060
-0.423809 0.472562 0.322413
-0.776233 -0.218895 -0.042978
0.328044 0.131714 -0.780919
-0.065325 -0.611143 -0.425881
-0.803141 0.485672 -0.052289
0.685341 -0.251504 0.682375
-0.426281 0.125293 -0.808835
0.713331 0.106023 -0.437557
-0.777403 -0.218874 -0.044896
-0.425374 0.124806 -0.809248
-0.043033 -0.251546 -0.810469
-0.776269 -0.218140 -0.045120
-0.832308 0.120034 -0.429317
-0.831228 0.120685 -0.429697
0.698791 -0.239139 -0.033138
0.712605 0.104826 -0.437656
-0.425001 0.473432 0.324301
0.701744 0.152289 0.329169
-0.020043 0.490402 -0.022364
-0.415112 -0.217313 -0.427855
0.686510 -0.251114 0.683223
-0.056033 0.496174 -0.776806
-0.423478 0.472860 0.321510
-0.805319 0.483579 -0.053132
0.698987 -0.238429 -0.033408
-0.417110 -0.219570 -0.429528
0.347127 0.518973 0.331096
-0.041344 -0.250669 -0.809807
0.686976 -0.252834 0.684161
-0.056035 0.498277 -0.776456
-0.423676 0.476350 -0.406387
0.713682 0.105463 -0.437793
0.685760 -0.251856 0.681585
-0.019897 0.489962 -0.021836
-0.822365 0.135277 0.358021
-0.038936 0.520609 0.713488
-0.064018 -0.610199 -0.427081
0.333293 -0.616829 -0.034420
0.347385 0.517446 0.329327
0.686400 -0.248874 0.682115
-0.430173 -0.608681 -0.048562
0.331925 -0.617867 -0.034751
0.329691 0.158344 0.696389
-0.429905 -0.606789 -0.047913
0.698552 -0.238502 -0.035322
0.348029 0.518252 0.330456
-0.418840 -0.220039 -0.428528
0.346111 0.520253 0.329587
-0.423873 0.475824 -0.405448
-0.055712 0.495306 -0.778406
-0.037402 -0.216589 0.702548
-0.424801 0.473106 0.322345
0.331821 0.155930 0.696064
-0.416242 -0.218184 -0.427862
0.332047 -0.617465 -0.035050
-0.833347 0.120940 -0.428060
0.327060 0.131111 -0.779238
0.329190 0.135458 -0.779689
-0.428883 -0.608899 -0.048859
-0.830921 0.120574 -0.429653
0.688224 -0.250163 0.682467
-0.401759 -0.209209 0.298649
-0.424234 0.125417 -0.809515
0.328545 0.154971 0.694697
-0.776396 -0.217208 -0.044100
-0.831389 0.119069 -0.428405
-0.421963 0.476343 -0.404617
-0.423766 0.473404 0.321668
-0.423090 0.475677 -0.405468
-0.039334 0.518045 0.711163
-0.774249 -0.217645 -0.045544
-0.070328 -0.600451 0.315755
0.694498 -0.637714 0.329624
0.314413 -0.214859 -0.432106
-0.021726 0.488343 -0.020364
0.704210 0.486689 -0.050371
0.331090 0.156204 0.694606
0.700228 0.153021 0.329469
-0.037828 -0.216043 0.704235
-0.403333 -0.208482 0.297541
-0.422776 0.124626 -0.809600
-0.432916 -0.608285 -0.048709
0.308062 -0.603450 0.679059
-0.054395 0.497676 -0.778018
0.331674 -0.616767 -0.035924
0.704114 0.488365 -0.050893
-0.430847 -0.609337 -0.049250
-0.040431 0.519313 0.712132
-0.040803 0.517026 0.710952
-0.830829 0.119250 -0.428971
-0.418913 0.119050 0.681819
-0.039103 0.519765 0.713316
0.329798 0.157790 0.694135
-0.038741 -0.214990 0.703290
-0.775866 -0.219745 -0.045873
-0.821811 0.137297 0.356619
0.698886 -0.236853 -0.033565
-0.055330 0.495116 -0.778398
-0.043531 -0.251379 -0.807051
0.687612 -0.250148 0.680585
-0.064079 -0.610458 -0.426505
0.315145 -0.217469 -0.433559
0.685790 -0.252432 0.680818
-0.834922 0.120106 -0.428750
0.705351 0.488081 -0.052106
-0.417627 0.118556 0.682851
-0.422135 0.473052 0.323197
0.697942 -0.238849 -0.032991
0.346400 0.507737 -0.416117
-0.776601 -0.220029 -0.044359
-0.831154 0.120947 -0.429610
-0.832014 0.120772 -0.430002
0.331166 -0.616480 -0.034603
0.694960 -0.637058 0.327385
0.686180 -0.251083 0.682711
-0.065728 -0.610464 -0.426589
0.348475 0.508140 -0.416879
0.705828 0.489158 -0.049728
0.326458 0.133151 -0.779461
-0.043317 -0.251442 -0.810962
0.712846 0.107263 -0.438716
0.332125 -0.617861 -0.034936
-0.423824 0.476948 -0.407038
-0.831993 0.118971 -0.429570
0.315891 -0.215687 -0.429350
-0.401866 -0.207439 0.296764
0.331137 -0.616569 -0.038549
0.695401 -0.638834 0.328066
-0.037275 -0.215693 0.704816
-0.043162 -0.249461 -0.810037
0.698019 -0.237658 -0.034319
-0.424272 0.475584 -0.407089
0.705747 0.489429 -0.049549
0.348241 0.507111 -0.415935
0.330400 -0.616548 -0.034130
-0.774356 -0.218090 -0.045842
0.348536 0.507867 -0.414357
-0.806125 0.483627 -0.054128
0.330533 -0.618015 -0.035953
0.698064 -0.238069 -0.033895
0.347594 0.506570 -0.416982
-0.423072 0.123720 -0.810155
-0.037270 -0.216623 0.703755
0.695811 -0.639131 0.330140
-0.019556 0.489107 -0.021687
-0.418066 0.118285 0.684471
0.687361 -0.249665 0.681870
-0.064728 -0.610789 -0.427647
-0.431557 -0.609150 -0.048769
0.700502 0.154109 0.329330
-0.020865 0.487931 -0.022045
0.698759 -0.238451 -0.035957
-0.402236 -0.206858 0.298749
-0.421381 0.476697 -0.404869
0.698534 -0.237759 -0.033693
0.694595 -0.635700 0.328937
-0.036600 -0.216166 0.701134
0.699815 -0.238372 -0.034374
-0.417318 0.118092 0.682607
0.696232 -0.635379 0.328706
-0.427384 0.123771 -0.808930
