OFF
256 0 0
0.692587 0.148288 -0.420193
-0.415959 0.507812 0.301123
0.311953 -0.195437 -0.374960
0.665057 -0.253001 0.703879
-0.446775 0.130212 -0.787253
0.324223 0.497245 -0.416105
0.664764 -0.253434 0.702959
0.324789 0.498998 -0.414697
-0.047212 -0.238614 -0.767034
-0.056035 0.480632 0.673251
-0.448291 0.111039 0.708585
-0.779061 0.490803 -0.038007
-0.447990 0.114218 0.707196
-0.055707 0.481901 0.672484
-0.031640 -0.236241 0.669056
-0.449454 0.114544 0.707256
-0.416079 0.506736 0.301216
0.312099 -0.193828 -0.373664
-0.058756 0.481064 0.676340
0.311546 -0.194935 -0.374292
-0.054866 -0.619391 -0.387257
-0.430257 -0.241570 0.314928
0.333545 0.122656 -0.799666
-0.018485 -0.598259 0.289877
0.712348 -0.604213 0.304517
0.340140 -0.633478 -0.075860
0.320789 -0.614317 0.678366
-0.801157 0.134719 0.335139
-0.800790 0.136449 0.334659
-0.416663 0.508376 0.300921
-0.430109 -0.240893 0.315547
-0.428532 -0.242003 0.315748
-0.048112 -0.239785 -0.766185
0.338216 0.526649 0.347187
0.318699 -0.612935 0.680894
-0.032642 -0.237248 0.673158
-0.799480 -0.255766 -0.051218
-0.049487 -0.240294 -0.766588
-0.415614 0.505312 0.303031
0.341536 -0.632466 -0.075891
0.663415 -0.254046 0.702669
-0.036014 0.496002 -0.801324
0.664901 -0.252890 0.701349
-0.814830 0.127177 -0.428480
-0.416993 0.505010 0.301624
0.318943 -0.614305 0.681370
-0.050649 -0.238664 -0.765614
0.695091 -0.227051 -0.046461
-0.434723 -0.609473 -0.060271
0.339027 0.526842 0.348514
-0.814983 0.125180 -0.427891
-0.799637 -0.253054 -0.052804
0.695362 -0.226718 -0.046439
0.341318 0.525172 0.347030
0.713062 -0.603280 0.303820
-0.034648 0.494488 -0.800587
0.310875 -0.195906 -0.375641
-0.058006 0.482874 0.674242
-0.414425 -0.237715 -0.399852
0.328924 0.149281 0.694420
0.714416 -0.603488 0.301972
-0.032516 -0.238146 0.671049
-0.389946 0.488003 -0.432287
0.673634 0.493129 -0.044730
-0.815496 0.126410 -0.427382
-0.801853 -0.254886 -0.050915
0.693815 -0.228293 -0.046231
-0.048396 -0.238997 -0.764665
-0.058613 0.482936 0.675232
-0.388890 0.486085 -0.434143
-0.799791 -0.253644 -0.050112
-0.415075 0.507585 0.302189
0.323209 0.498602 -0.415845
0.333054 0.124697 -0.799423
-0.055088 -0.619619 -0.389165
-0.034297 0.496813 -0.802426
-0.413595 -0.238023 -0.400212
0.320368 -0.614084 0.680074
-0.799963 0.134440 0.332234
0.673754 0.492947 -0.043975
-0.054127 -0.617873 -0.391012
-0.447666 0.113669 0.707688
-0.799802 0.134534 0.333876
-0.799458 0.135738 0.334687
-0.814279 0.126488 -0.429897
-0.815720 0.126755 -0.427631
-0.414793 0.505103 0.300450
0.313405 -0.194006 -0.373998
-0.035024 -0.235936 0.671738
0.692726 0.149115 -0.421618
0.672277 0.491159 -0.044148
-0.780823 0.492857 -0.039532
-0.418338 0.506541 0.301589
-0.780533 0.491867 -0.040273
-0.436152 -0.610462 -0.057821
-0.449003 0.111987 0.709574
-0.429283 -0.239317 0.316425
0.696693 -0.228030 -0.046379
0.341475 -0.632505 -0.076426
0.318672 -0.616281 0.678737
-0.413693 -0.237471 -0.399929
0.715131 -0.602251 0.302695
0.332912 0.124880 -0.800365
-0.054093 -0.619228 -0.388709
-0.057216 0.480709 0.673917
-0.782185 0.491162 -0.039440
-0.058357 0.481249 0.673962
0.324772 0.499437 -0.413459
0.693768 0.148312 -0.419305
0.689613 0.142188 0.326732
-0.780453 0.492962 -0.038289
0.672768 0.490304 -0.045037
-0.444785 0.131511 -0.787606
-0.034427 0.496458 -0.800195
0.690430 0.141023 0.328212
-0.435729 -0.610396 -0.057517
-0.444113 0.132097 -0.785703
0.713389 -0.602587 0.303758
-0.389752 0.486089 -0.431933
-0.435951 -0.612909 -0.059138
0.666385 -0.253285 0.703510
0.666435 -0.251779 0.703431
-0.816154 0.127270 -0.428998
-0.430263 -0.241958 0.315337
0.695475 -0.227231 -0.046053
-0.414024 -0.237249 -0.398722
0.320194 -0.613105 0.678791
0.312362 -0.196173 -0.375129
-0.449539 0.112963 0.710221
-0.388788 0.487019 -0.433427
-0.006023 0.512269 -0.020174
0.339253 0.527414 0.348873
0.687194 0.139829 0.328252
-0.036401 0.496345 -0.801968
0.333618 0.123249 -0.798573
-0.430091 -0.239647 0.315943
0.695012 0.149315 -0.419774
-0.389674 0.487937 -0.432792
-0.434733 -0.609609 -0.056788
0.341090 -0.633962 -0.075644
-0.435118 -0.610753 -0.058480
-0.813747 0.125868 -0.428454
-0.446132 0.131674 -0.784862
0.339605 0.525731 0.348435
-0.445323 0.131518 -0.786157
0.667938 -0.253569 0.702583
-0.036165 0.495395 -0.800943
-0.415062 0.507058 0.300861
0.691947 0.148542 -0.420741
-0.414437 -0.237785 -0.398736
-0.412829 -0.236695 -0.399976
0.326730 0.148641 0.692184
0.693838 -0.229972 -0.044428
-0.444661 0.131517 -0.787741
0.332384 0.122968 -0.799814
-0.448780 0.113160 0.708026
0.334549 0.121453 -0.799558
-0.416653 0.505806 0.298830
0.324099 0.498371 -0.415526
0.313082 -0.193015 -0.375614
-0.448504 0.112907 0.708450
-0.418222 0.507399 0.303357
-0.035124 -0.237516 0.670273
0.329197 0.148019 0.694653
0.340603 0.527032 0.348556
0.694062 -0.228815 -0.045801
-0.797825 0.135484 0.332632
0.319232 -0.614710 0.678299
0.341803 -0.632270 -0.075026
-0.450460 0.113069 0.709845
0.688773 0.142092 0.327354
0.673873 0.491945 -0.046330
0.327800 0.147351 0.692521
-0.057851 0.482723 0.672029
-0.005200 0.513661 -0.019659
0.666297 -0.251032 0.704497
0.673404 0.491286 -0.046065
-0.800252 0.135519 0.334172
0.692849 0.150518 -0.419697
-0.779817 0.492295 -0.038463
-0.018957 -0.596733 0.290054
0.340729 0.527223 0.347446
-0.036343 0.498262 -0.800405
0.339195 -0.632566 -0.074109
0.334949 0.122623 -0.799820
-0.057745 0.481860 0.674590
-0.814648 0.126269 -0.427944
-0.414274 -0.239173 -0.399294
0.692910 0.148615 -0.420429
-0.057792 0.482670 0.675035
-0.416675 -0.237979 -0.399469
0.666583 -0.252126 0.705489
-0.435727 -0.610814 -0.057721
-0.781495 0.493473 -0.039092
-0.799000 0.134026 0.333868
-0.389852 0.488084 -0.433157
-0.055492 -0.619419 -0.388919
0.694516 -0.228267 -0.044816
0.672397 0.493277 -0.046461
0.312635 -0.194818 -0.375079
0.687972 0.140959 0.328227
-0.799612 -0.253953 -0.050750
-0.033938 -0.236878 0.670420
0.327341 0.148458 0.693939
-0.033598 -0.236878 0.670236
-0.801176 -0.252858 -0.050379
0.672749 0.492144 -0.044460
-0.005198 0.511724 -0.018285
0.340571 0.527547 0.347545
0.693627 0.147693 -0.419656
-0.428073 -0.242390 0.315557
-0.005311 0.512407 -0.020161
-0.006830 0.513033 -0.019934
-0.447565 0.111529 0.707035
0.713099 -0.602105 0.303109
-0.034074 0.495587 -0.799836
0.690042 0.140589 0.327851
-0.437197 -0.612048 -0.060144
0.310580 -0.194896 -0.373825
-0.443074 0.129931 -0.785798
-0.451345 0.112642 0.709702
-0.449622 0.113309 0.708065
0.331742 0.124069 -0.800139
0.674035 0.491576 -0.044756
-0.390375 0.488882 -0.432558
-0.444110 0.131642 -0.786346
-0.444827 0.131224 -0.784970
0.341292 -0.633231 -0.073969
-0.017444 -0.598610 0.288522
0.325589 0.497830 -0.415635
0.689278 0.141237 0.326367
0.714093 -0.602895 0.304773
-0.056152 -0.618427 -0.386969
-0.779406 0.491556 -0.037071
0.712924 -0.603363 0.304059
-0.032606 -0.237265 0.671908
-0.017477 -0.596899 0.289698
-0.018514 -0.598166 0.287715
-0.801414 0.137111 0.334112
0.327427 0.147931 0.692567
-0.800513 -0.254019 -0.050836
0.673450 0.494359 -0.045338
-0.814861 0.124568 -0.428105
0.341364 -0.630571 -0.074135
0.319824 -0.614026 0.679997
-0.801549 0.135525 0.333506
-0.814823 0.126535 -0.428116
-0.053757 -0.618955 -0.389335
0.687571 0.139639 0.327998
-0.037943 0.496716 -0.799765
-0.801014 -0.254003 -0.050453
-0.429297 -0.239578 0.314498
0.324244 0.498536 -0.414617
-0.800733 0.135972 0.334610
-0.007089 0.510696 -0.021263
-0.057187 0.479916 0.674553
