OFF
256 0 0
0.764868 -0.183938 -0.575574
-0.791145 0.577050 0.194480
-0.786391 0.221678 0.578586
0.391901 0.586534 0.579105
0.409365 -0.190980 0.576181
-0.760043 0.182739 -0.184474
-0.379293 -0.545590 0.203225
-0.376173 -0.547363 0.203965
-0.376892 -0.546729 0.202480
-0.761904 -0.564707 -0.186138
0.377880 0.154670 -0.588507
-0.383596 0.572190 -0.179241
0.349977 -0.597145 -0.569362
-0.785703 0.221309 0.578153
0.763149 0.560591 0.192496
-0.033109 -0.191299 -0.613142
-0.395566 0.552391 0.545225
-0.342102 -0.136562 0.547824
-0.762725 -0.565326 -0.187477
0.382951 -0.586510 0.198104
0.753691 0.174698 -0.186994
0.377910 0.155671 -0.588464
0.762081 0.560853 0.191485
0.351328 -0.597999 -0.570360
0.750712 0.173171 -0.185235
-0.006398 -0.563555 0.567756
-0.787280 0.218344 0.577940
0.753312 0.176428 -0.187470
0.001042 0.563714 -0.564182
0.408820 -0.190979 0.575384
0.352512 -0.598724 -0.569323
0.408451 -0.189252 0.577795
0.392635 0.586531 0.578742
0.774221 0.214148 0.570032
0.031298 0.584998 0.189318
-0.340793 -0.136402 0.548713
-0.791956 0.577333 0.192326
-0.399421 0.177186 -0.575316
0.773735 0.216329 0.568637
0.763928 0.560400 0.192521
0.774390 0.216413 0.571645
-0.024415 -0.584251 -0.188365
0.028728 0.585225 0.190207
0.001875 0.560834 -0.564419
0.393608 0.586975 0.576709
-0.763380 -0.567839 -0.185882
-0.031688 -0.191325 -0.612297
0.378250 0.156045 -0.588199
0.382527 -0.585270 0.197148
-0.384132 0.573058 -0.181209
-0.786674 0.220724 0.578017
-0.396475 0.552916 0.545482
0.756199 -0.551374 -0.170834
0.755221 0.175668 -0.187197
-0.761705 -0.216410 -0.568425
0.753671 0.172303 -0.186847
0.029506 0.584572 0.191205
0.406368 -0.190521 0.576102
0.350930 -0.595091 -0.570519
0.376766 0.154834 -0.587537
-0.761935 0.182202 -0.185167
-0.031553 -0.192309 -0.612851
-0.376235 -0.546179 0.203405
-0.762094 -0.566611 -0.186733
0.004888 0.561969 -0.565876
0.752962 0.173003 -0.187169
0.377730 0.155913 -0.589033
-0.763004 -0.565883 -0.187489
0.752086 0.173946 -0.187917
-0.396339 0.554218 0.543519
0.352529 -0.598854 -0.571125
-0.005163 -0.564644 0.564732
0.376503 0.154389 -0.588764
0.378394 0.155319 -0.589701
-0.005163 -0.562816 0.567620
-0.400059 0.178878 -0.574898
-0.025958 -0.585810 -0.190710
-0.024529 -0.585096 -0.188649
0.377460 0.154392 -0.589561
0.774873 0.214903 0.569876
-0.785615 0.221313 0.578272
-0.396414 0.553072 0.544160
-0.394899 0.552101 0.543849
-0.026421 -0.583733 -0.190938
0.003281 0.561785 -0.563370
-0.790233 0.578286 0.194026
-0.763249 0.183922 -0.185766
0.393325 0.588158 0.577512
-0.383810 0.573049 -0.182083
-0.024855 -0.586175 -0.189416
-0.031136 -0.192771 -0.613032
-0.791481 0.577642 0.192456
-0.339797 -0.134964 0.551206
0.754484 -0.552258 -0.170491
-0.394521 -0.594873 -0.585593
0.030594 0.582467 0.189579
-0.383405 0.572265 -0.181886
0.034232 0.217192 0.578461
0.798537 -0.184903 0.188579
-0.398459 0.179021 -0.574748
-0.026731 -0.585823 -0.188535
-0.762507 -0.566391 -0.186259
-0.393487 -0.594493 -0.584252
0.762611 0.561506 0.192317
0.351215 -0.595935 -0.568804
-0.004389 -0.565462 0.566224
-0.384734 0.570945 -0.179811
0.378028 0.154835 -0.587586
-0.395238 0.551515 0.542989
-0.393380 -0.594721 -0.583936
0.408914 -0.187316 0.575521
-0.026018 -0.584384 -0.189630
-0.396263 0.553655 0.543091
0.796652 -0.186956 0.190042
-0.342939 -0.135843 0.548922
0.380690 -0.587135 0.198467
0.752975 0.173591 -0.187715
-0.760451 0.185238 -0.185832
0.765387 0.561686 0.193570
-0.393410 -0.594477 -0.586053
-0.395193 0.551216 0.542894
0.376678 0.155516 -0.589803
-0.785272 0.219482 0.577777
0.393325 0.586118 0.579030
-0.759438 -0.215471 -0.571399
-0.030028 -0.190054 -0.611753
-0.790183 0.577153 0.194589
-0.382921 0.571670 -0.183181
-0.385591 0.573686 -0.177906
0.350484 -0.599774 -0.571537
0.767070 -0.185332 -0.575695
-0.341321 -0.135073 0.548841
-0.025121 -0.582917 -0.190118
0.378948 0.154899 -0.588738
0.392844 0.588265 0.578458
0.765794 -0.186216 -0.576890
-0.025133 -0.584996 -0.190470
-0.396364 0.551683 0.543953
-0.004851 -0.564219 0.567771
-0.383227 0.571018 -0.180011
0.032464 0.217634 0.578717
-0.790642 0.576246 0.192733
-0.759448 -0.215493 -0.569093
0.391570 0.587771 0.578132
-0.760212 -0.214852 -0.570415
0.763449 0.560730 0.192256
-0.395090 -0.596794 -0.585009
0.381488 -0.586403 0.195981
0.376810 0.154711 -0.587788
0.390904 0.588841 0.578513
0.392729 0.589008 0.577935
0.764048 0.559596 0.193391
0.764482 -0.183909 -0.575834
-0.383174 0.573000 -0.179727
0.001968 0.563504 -0.563161
-0.024892 -0.584845 -0.189506
-0.384094 0.571426 -0.182205
0.376475 0.156092 -0.589510
-0.007041 -0.564205 0.566405
-0.342928 -0.135503 0.549918
0.001313 0.562358 -0.561991
-0.394929 0.552862 0.543789
-0.027416 -0.586137 -0.188494
-0.394735 -0.593749 -0.585515
0.795687 -0.186768 0.190981
0.756160 -0.552447 -0.170575
0.030679 0.582099 0.189509
0.755748 -0.551985 -0.172179
0.377253 0.154546 -0.588275
-0.397206 0.177204 -0.575533
-0.398064 0.177753 -0.575526
0.765992 -0.185709 -0.574094
-0.377248 -0.546061 0.205776
0.753697 -0.552842 -0.171425
-0.393253 -0.594672 -0.584572
0.377432 0.153888 -0.589097
-0.762616 -0.565949 -0.187442
-0.762559 -0.566082 -0.187218
0.032175 0.216721 0.577814
-0.378145 -0.546333 0.203179
0.797507 -0.184994 0.190488
-0.759907 -0.214782 -0.569622
-0.030338 -0.192303 -0.611182
-0.785587 0.217319 0.578489
-0.395752 0.552019 0.543850
0.765541 -0.185602 -0.575975
0.392976 0.533392 -0.165804
-0.760197 -0.216095 -0.570453
-0.762035 -0.566383 -0.185877
-0.762944 0.183157 -0.186113
0.030950 0.583620 0.190028
0.394078 0.590032 0.577540
-0.764547 -0.176102 0.196023
-0.790832 0.576988 0.194023
0.352170 -0.598520 -0.569668
0.383175 -0.585815 0.195157
-0.031511 -0.193711 -0.613001
-0.764859 -0.176582 0.197016
-0.766160 -0.179168 0.195189
0.799842 -0.186052 0.189013
-0.398796 0.177650 -0.574631
-0.759107 0.184346 -0.187762
-0.761308 -0.214753 -0.568925
-0.395566 -0.595395 -0.585669
-0.025065 -0.585400 -0.189164
-0.760388 0.183142 -0.186973
0.002752 0.561279 -0.564335
0.001228 0.563365 -0.561542
-0.027102 -0.585303 -0.189697
-0.000065 0.563364 -0.562559
0.390476 0.533515 -0.164335
-0.003329 -0.564473 0.566123
-0.005517 -0.563419 0.566259
-0.394222 -0.594361 -0.583609
0.376060 0.154078 -0.586658
0.377732 0.157160 -0.586900
0.796956 -0.187154 0.191818
-0.396644 0.552266 0.543632
-0.024913 -0.585719 -0.189307
-0.398349 0.176356 -0.574470
-0.764507 -0.175936 0.194899
0.391515 0.532439 -0.164946
0.763009 0.560293 0.192502
0.392721 0.533236 -0.163800
-0.761253 -0.213165 -0.569774
0.390098 0.532286 -0.164630
-0.399837 0.177573 -0.573509
0.393913 0.589010 0.580135
0.767557 -0.184405 -0.573589
-0.787072 0.221692 0.580033
-0.760759 -0.215281 -0.570164
0.764167 0.558794 0.191588
0.389881 0.533015 -0.164110
-0.394434 -0.592831 -0.583265
-0.760393 -0.215450 -0.569955
0.377313 0.154286 -0.588809
0.001916 0.561439 -0.562604
0.763664 0.560321 0.194169
-0.400105 0.179629 -0.574440
0.031161 0.581972 0.191013
0.767367 -0.185456 -0.575881
-0.006340 -0.564824 0.568913
0.001765 0.564278 -0.562799
0.408816 -0.189810 0.574325
-0.394697 -0.593569 -0.583983
-0.025921 -0.585274 -0.189726
0.767276 -0.183789 -0.574214
0.752995 0.175533 -0.185237
0.381994 -0.588185 0.196378
0.032057 0.583730 0.190225
0.407592 -0.188439 0.574947
-0.394719 -0.595263 -0.585081
0.031274 0.215985 0.578238
-0.398097 0.177972 -0.575401
-0.393285 -0.594188 -0.583931
-0.763914 -0.177614 0.196727
