OFF
256 0 0
-0.790716 -0.211972 -0.563189
-0.017162 0.566992 0.202777
-0.390375 -0.579220 0.162061
0.395259 -0.141989 0.553824
0.378041 -0.578538 -0.573015
-0.763722 0.178189 -0.181544
-0.773954 0.571705 0.190740
-0.753119 0.185820 0.584249
-0.375685 0.580310 -0.195014
0.767828 -0.155146 0.205284
0.002250 -0.566834 0.553831
0.391726 -0.563262 0.175132
0.767866 -0.155129 0.202106
-0.409482 0.161425 -0.572573
0.787534 0.570776 0.177971
-0.001351 0.220204 0.564696
-0.407434 0.163422 -0.572241
-0.374933 0.583264 -0.196221
-0.407184 0.161606 -0.572721
0.397440 0.162289 -0.548779
-0.390295 -0.579455 0.161317
-0.763322 -0.581287 -0.173554
0.367158 0.561032 -0.188108
-0.763094 -0.583265 -0.173461
-0.751707 0.184626 0.585071
-0.389571 0.591024 0.588545
-0.791216 -0.212386 -0.565436
0.003299 -0.203966 -0.561883
-0.005102 0.545648 -0.570191
-0.395128 -0.573146 -0.583536
-0.000414 0.219301 0.564248
-0.409548 0.161621 -0.572901
-0.790369 -0.210942 -0.566323
-0.389684 0.592143 0.588800
-0.764688 0.178980 -0.180036
-0.752669 0.186396 0.582952
0.392668 -0.563530 0.175519
-0.375340 0.584099 -0.196061
-0.000870 0.219334 0.565832
-0.003878 0.545471 -0.569140
-0.005797 0.547435 -0.570371
-0.775739 0.571378 0.192225
0.001812 -0.567492 0.553381
-0.764040 -0.582160 -0.172159
0.393787 -0.144102 0.554985
-0.390235 0.590711 0.587425
-0.002079 0.220478 0.565181
0.395399 0.161451 -0.547203
-0.763726 -0.582031 -0.172403
-0.396370 -0.573004 -0.584075
0.378668 -0.579070 -0.573030
0.379216 -0.581185 -0.575085
0.776855 -0.221470 -0.579281
0.768749 -0.154300 0.203266
-0.750710 0.184711 0.584457
0.380419 -0.580544 -0.573660
0.787269 0.571978 0.176896
-0.752312 0.184522 0.584710
-0.763489 -0.582080 -0.169378
0.003805 -0.201702 -0.563054
0.396246 0.160995 -0.547546
0.768108 -0.155659 0.202999
0.772390 0.219598 0.595122
0.377883 -0.581113 -0.573014
-0.775670 0.572296 0.191110
0.400060 0.590403 0.582816
0.002327 -0.567167 0.554764
0.778896 -0.565755 -0.172299
-0.765147 0.178449 -0.183823
-0.016774 0.567513 0.204030
-0.374177 0.582974 -0.195214
0.378625 -0.578882 -0.574721
-0.394643 -0.572865 -0.583994
-0.763023 -0.583404 -0.173346
-0.394783 -0.573073 -0.584781
0.391958 -0.564396 0.174206
-0.015434 0.565227 0.204791
-0.390925 -0.580634 0.164593
-0.016687 0.566883 0.202293
-0.388987 -0.579106 0.160670
-0.397688 -0.573957 -0.585085
0.777994 -0.565530 -0.171944
0.779193 -0.565549 -0.173193
0.004026 -0.203640 -0.561384
-0.391485 0.591381 0.589471
-0.791067 -0.213549 -0.564711
-0.763526 0.178366 -0.182480
-0.389559 0.591586 0.586654
0.398061 0.161455 -0.547484
-0.408082 0.163104 -0.573177
-0.375627 -0.182640 0.520965
0.395982 -0.141214 0.553521
0.768864 -0.153533 0.202940
-0.388104 0.592596 0.588565
-0.790478 -0.212833 -0.565392
-0.763714 0.178951 -0.182486
0.774763 0.220016 0.593694
-0.408624 0.162456 -0.571185
0.400458 0.592402 0.582614
0.001632 -0.568251 0.553412
-0.791530 -0.212872 -0.563682
-0.375731 0.582000 -0.195193
0.379065 -0.578381 -0.573849
-0.000933 0.221045 0.564955
0.377842 -0.579007 -0.572188
0.775851 -0.563500 -0.173099
0.001193 -0.565381 0.554845
0.000928 0.220304 0.563911
0.768520 -0.152983 0.203277
-0.375230 -0.182085 0.520679
0.004392 -0.202126 -0.561667
0.773473 0.186828 -0.188893
0.777325 -0.220526 -0.578035
-0.790155 -0.213316 -0.565508
0.772146 0.219457 0.595291
0.774232 0.188224 -0.188217
-0.374245 -0.182441 0.520878
-0.762992 0.178797 -0.182323
0.774115 0.220657 0.593733
0.768608 -0.153803 0.203755
-0.003298 0.545729 -0.566496
0.006152 -0.572639 -0.200991
-0.790414 -0.213185 -0.564523
0.776903 -0.564465 -0.173598
-0.763280 -0.580976 -0.170730
0.396721 0.161814 -0.547954
0.396916 0.161530 -0.547286
-0.391136 -0.579432 0.160623
0.397229 0.161130 -0.547925
-0.390726 -0.577595 0.160636
-0.395249 -0.575212 -0.583878
0.777977 -0.220324 -0.578795
0.378759 -0.580015 -0.574419
-0.753987 0.185290 0.584604
0.000033 0.222181 0.564385
-0.762823 0.178210 -0.181336
0.365710 0.563269 -0.189985
-0.762383 -0.581822 -0.172843
0.776582 -0.563865 -0.172291
-0.765110 -0.580916 -0.171443
-0.375595 0.583549 -0.194907
-0.015054 0.567375 0.203093
0.769185 -0.154499 0.205735
0.772836 0.219725 0.595107
0.391925 -0.563629 0.174491
-0.393077 -0.580921 0.161053
0.375922 -0.581441 -0.572342
0.776358 -0.221273 -0.577470
0.398857 0.159105 -0.546985
-0.796324 -0.204252 0.197595
0.364532 0.562182 -0.191431
0.391294 -0.565174 0.176463
0.401073 0.591228 0.582346
-0.015658 0.565614 0.203370
-0.016813 0.565795 0.202817
-0.764191 0.178254 -0.183753
-0.393081 -0.574285 -0.585066
-0.394821 -0.573568 -0.585810
0.400532 0.593499 0.581537
0.395888 0.161275 -0.546859
0.773490 0.218784 0.597594
-0.763867 -0.582809 -0.173523
0.002668 -0.203143 -0.564418
0.768508 -0.154281 0.204390
0.378160 -0.579042 -0.574527
-0.373860 -0.181344 0.522686
-0.762779 0.179151 -0.180105
-0.407069 0.161268 -0.572428
0.787689 0.571566 0.176436
0.364947 0.562171 -0.188921
0.393411 -0.142105 0.554593
0.396510 0.160246 -0.547734
0.768013 -0.153954 0.202069
-0.764148 -0.581069 -0.171674
0.773286 0.221300 0.595392
0.771451 0.221700 0.595717
-0.390808 0.589822 0.588195
0.788135 0.573216 0.177380
-0.409548 0.160768 -0.571800
0.365631 0.562090 -0.189057
-0.764157 0.178968 -0.182264
-0.763339 0.177739 -0.182834
-0.389974 -0.577714 0.162157
-0.001174 0.220262 0.563906
-0.005136 0.547632 -0.568180
0.769619 -0.154436 0.205706
-0.764129 0.178684 -0.182360
0.392268 -0.563496 0.174102
0.786958 0.571939 0.177748
-0.002694 0.546914 -0.567869
0.787657 0.571078 0.176839
0.397056 0.159953 -0.548859
0.365948 0.560571 -0.187482
-0.764143 0.180174 -0.180961
0.775254 -0.222099 -0.577233
0.365258 0.561802 -0.189349
0.772557 0.189582 -0.187379
-0.000626 0.220407 0.565445
-0.752133 0.184971 0.583792
-0.775158 0.572461 0.191024
0.395784 -0.141026 0.553166
-0.764092 0.176802 -0.181075
0.006019 -0.573564 -0.198900
0.771599 0.221625 0.596438
-0.789222 -0.214822 -0.564034
-0.796791 -0.204120 0.193561
0.005045 -0.201845 -0.561150
-0.373471 0.582451 -0.193662
0.767682 -0.153224 0.204400
-0.374811 -0.181079 0.520670
0.777098 -0.563754 -0.171934
-0.390401 -0.579547 0.161910
-0.395209 -0.574285 -0.584128
0.770444 0.220451 0.595322
-0.014493 0.566072 0.202723
-0.003719 0.544693 -0.567986
0.005656 -0.570554 -0.199773
-0.391453 -0.578617 0.162126
-0.795418 -0.202719 0.194798
0.379264 -0.578957 -0.573658
0.769689 -0.153445 0.203880
-0.776518 0.571220 0.190787
-0.393929 -0.573418 -0.583741
-0.794650 -0.204640 0.194808
-0.764037 0.179801 -0.183127
0.773111 0.188304 -0.188570
0.005825 -0.202746 -0.563866
-0.388657 0.592642 0.587864
-0.765653 0.178047 -0.181108
-0.389629 -0.578142 0.160027
-0.016806 0.567899 0.202261
0.787838 0.571075 0.175210
0.397756 0.161734 -0.549250
0.774504 0.219579 0.595437
-0.016454 0.564568 0.202891
0.400505 0.593656 0.582721
-0.015007 0.567959 0.201855
0.778166 -0.565151 -0.171892
0.399662 0.594422 0.584481
-0.407251 0.163695 -0.571894
0.393225 -0.564629 0.174521
0.395170 -0.142694 0.554023
0.378427 -0.577988 -0.572747
0.392159 -0.563597 0.175496
0.779345 -0.563900 -0.171673
0.788314 0.572423 0.176911
0.395568 0.161608 -0.547004
0.002489 -0.567765 0.553955
-0.795218 -0.203594 0.195325
0.395328 0.163661 -0.549461
-0.407933 0.162329 -0.572716
0.366429 0.561401 -0.189137
0.365652 0.561556 -0.188467
-0.006361 0.545835 -0.568011
-0.796545 -0.205642 0.197470
0.391427 -0.565127 0.174200
