OFF
256 0 0
-0.011851 -0.166596 -0.561265
-0.023566 0.565410 0.171358
-0.762654 -0.199282 -0.585383
0.794747 0.183117 -0.199295
-0.383669 -0.574329 -0.575187
-0.772735 -0.203143 0.179374
-0.023091 0.566226 0.172980
0.381263 -0.562030 -0.558468
-0.012344 -0.163319 -0.558849
0.753234 -0.585413 -0.166848
-0.374339 -0.220565 0.584523
-0.385252 0.569619 -0.198056
-0.382788 0.554978 0.583511
0.792930 0.579058 0.195853
-0.756412 0.568384 0.185067
-0.003066 -0.573398 0.574916
0.378252 -0.563180 -0.557678
0.796119 0.184123 -0.199197
-0.765579 0.186769 0.561557
0.375529 0.613011 0.569104
-0.011070 -0.166065 -0.561303
0.380635 -0.561634 -0.558784
-0.399750 -0.608200 0.190360
0.000363 -0.573327 0.574943
0.766541 -0.186963 0.207983
0.794960 0.182711 -0.200213
-0.374137 -0.218815 0.582788
-0.390505 0.183608 -0.592446
0.387919 0.588683 -0.186633
-0.001411 -0.574852 0.574098
0.754545 -0.586149 -0.165306
-0.006714 0.579885 -0.594497
0.378889 -0.561729 -0.558509
-0.762797 -0.198016 -0.585691
-0.011153 -0.165545 -0.559186
-0.384086 -0.574080 -0.574033
-0.384266 -0.576248 -0.574948
0.385160 -0.561474 0.199192
0.385395 -0.560821 0.202055
-0.780330 -0.574357 -0.208156
-0.386875 -0.575196 -0.576733
0.017073 0.227149 0.578872
0.017005 0.225173 0.578356
-0.382621 0.554195 0.583867
-0.763719 0.189109 0.560996
0.388156 0.178298 -0.555138
0.016550 0.224400 0.579339
-0.764803 0.186968 0.559095
-0.012970 -0.165221 -0.559928
-0.762728 -0.198288 -0.584665
-0.765879 0.184876 -0.203183
-0.382671 0.554138 0.583481
-0.764495 0.183683 -0.203407
0.765752 -0.187481 0.208850
-0.373314 -0.220538 0.585410
0.376331 0.614562 0.570106
0.380341 -0.564498 -0.558412
-0.761337 -0.197402 -0.585705
0.765440 -0.188048 0.209447
0.002254 -0.558863 -0.188218
-0.385088 0.553666 0.583169
-0.762931 -0.198002 -0.583793
-0.374467 -0.220236 0.587322
-0.764686 0.186846 0.562273
-0.780869 -0.572274 -0.208779
-0.380579 0.555437 0.583549
-0.756142 0.568919 0.186526
0.753206 -0.584303 -0.167766
0.367255 -0.186867 0.584492
-0.770117 -0.204109 0.181705
-0.392010 0.183925 -0.591853
-0.390865 0.182272 -0.592518
-0.012286 -0.166156 -0.561073
0.751576 -0.583837 -0.166895
0.375383 0.612973 0.570132
-0.006403 0.581772 -0.594754
0.387539 0.179029 -0.555382
-0.401684 -0.607306 0.191567
0.000372 -0.557763 -0.186593
-0.756834 0.567155 0.187092
-0.770623 -0.206326 0.180842
-0.756362 0.569203 0.188588
-0.384732 0.554017 0.584806
-0.390395 0.184703 -0.593105
-0.383358 0.553376 0.582083
-0.755937 0.569366 0.186380
0.750686 -0.585209 -0.167437
0.776408 -0.204003 -0.564131
0.387081 0.178780 -0.555960
-0.761481 -0.199175 -0.583545
-0.388282 0.570180 -0.200769
-0.373934 -0.220074 0.585998
-0.763548 0.183229 -0.203014
-0.770244 -0.204165 0.180380
0.776584 -0.203357 -0.562470
0.777095 -0.203580 -0.563469
0.001970 -0.556578 -0.185438
0.003552 -0.556502 -0.187679
0.775088 0.204027 0.567541
0.018816 0.224785 0.577440
-0.401349 -0.609384 0.190476
-0.764736 0.188721 0.561663
0.387542 0.179426 -0.555122
-0.764782 0.189168 0.560237
0.001117 -0.558116 -0.185515
-0.387444 0.569294 -0.201547
-0.011763 -0.164761 -0.559032
0.791591 0.578375 0.197313
-0.382302 -0.576902 -0.576015
-0.763238 0.187069 0.559668
-0.022708 0.567409 0.172248
-0.385932 0.568438 -0.197973
-0.764588 -0.199266 -0.585319
-0.383627 0.554170 0.583270
0.795520 0.181290 -0.199567
0.767333 -0.185342 0.207595
0.767089 -0.187544 0.208586
-0.756277 0.570543 0.186437
0.752311 -0.585022 -0.165877
0.790875 0.577696 0.197073
0.791601 0.576929 0.196405
-0.385035 -0.575339 -0.575337
-0.011128 -0.166606 -0.559298
-0.385006 0.554416 0.583096
-0.382993 0.554659 0.583049
-0.764773 0.184711 -0.204191
-0.001008 -0.575291 0.574279
-0.391378 0.183442 -0.593592
0.384953 -0.560727 0.202510
-0.373894 -0.219521 0.585870
0.776766 -0.203657 -0.561549
0.387074 0.588839 -0.188026
0.389106 0.587814 -0.186057
0.377098 0.612640 0.569371
0.797424 0.181740 -0.198154
-0.021181 0.566524 0.172136
-0.001181 -0.575870 0.575154
-0.390864 0.183311 -0.592386
0.376505 0.612051 0.571918
0.776010 -0.203483 -0.563888
-0.373542 -0.218501 0.585889
-0.401964 -0.608964 0.190882
0.388838 0.587923 -0.187221
-0.765691 0.182803 -0.204811
-0.401719 -0.608280 0.190053
0.387635 0.591369 -0.188078
-0.756987 0.570101 0.186097
-0.771188 -0.206362 0.179516
0.792681 0.575849 0.197938
0.775950 0.205499 0.568451
-0.387674 0.567913 -0.200850
-0.008540 -0.165861 -0.561822
-0.756055 0.567300 0.186748
-0.013522 -0.164938 -0.561077
-0.755772 0.568873 0.186643
0.774586 0.203719 0.568393
0.376646 0.612622 0.569641
0.376964 0.613756 0.571449
0.002262 -0.559633 -0.187504
0.000321 -0.575952 0.576110
0.792539 0.576852 0.196605
0.390835 0.178172 -0.553349
-0.384697 0.552951 0.583590
0.765172 -0.188462 0.208483
-0.782091 -0.574344 -0.209364
-0.399339 -0.609108 0.189557
0.790122 0.578263 0.199262
-0.762884 -0.201021 -0.583804
-0.755332 0.568346 0.187663
0.388127 0.588095 -0.186565
-0.783310 -0.573583 -0.208362
0.791358 0.578713 0.199388
0.752481 -0.585251 -0.168153
-0.402425 -0.607657 0.188939
-0.008407 0.581055 -0.595228
0.383556 -0.560632 0.203253
-0.763761 0.183249 -0.204545
0.365868 -0.184015 0.580367
-0.763943 0.184768 -0.205529
-0.383810 0.555746 0.586148
0.367432 -0.184928 0.583530
0.389457 0.179614 -0.553960
0.017511 0.223160 0.578158
0.389068 0.587707 -0.190660
0.766687 -0.188458 0.207673
0.386883 0.179857 -0.554644
-0.765453 0.184459 -0.203137
-0.780342 -0.573849 -0.210555
-0.012349 -0.164939 -0.561145
0.779495 -0.204222 -0.562679
-0.783258 -0.572466 -0.209552
0.773322 0.204407 0.566760
0.383527 -0.561324 0.201875
-0.374197 -0.219490 0.585663
0.375436 0.613088 0.570125
0.773475 0.203827 0.567445
-0.399934 -0.609639 0.191084
0.767021 -0.186519 0.209001
-0.374543 -0.218334 0.583378
-0.389076 0.184307 -0.591164
0.383666 -0.558604 0.201844
-0.006362 0.578692 -0.595461
-0.006555 0.580438 -0.595795
-0.389798 0.184556 -0.594953
0.383881 -0.561272 0.200984
-0.764462 0.183189 -0.204828
0.773637 0.204483 0.567409
0.772817 0.206246 0.567929
0.384587 -0.561023 0.200947
-0.385101 -0.575582 -0.574995
-0.771755 -0.206153 0.180631
0.778589 -0.202411 -0.562229
0.752025 -0.583218 -0.165287
0.003817 -0.556080 -0.186362
0.004508 -0.559738 -0.186918
-0.763451 0.186246 0.560182
0.379990 0.612199 0.571680
0.766260 -0.185969 0.208811
0.791261 0.578400 0.197648
0.368513 -0.186173 0.584165
-0.024279 0.567168 0.170309
0.754554 -0.585271 -0.166947
-0.763531 0.186215 0.559550
-0.000171 -0.575199 0.576688
0.378473 -0.563177 -0.558291
0.386811 0.178682 -0.553165
-0.389510 0.183314 -0.591255
0.017720 0.224378 0.579710
-0.388242 0.569872 -0.199945
-0.374387 -0.219877 0.585786
-0.770061 -0.206273 0.180346
0.752363 -0.584850 -0.167260
-0.372226 -0.218860 0.585961
0.003994 -0.557925 -0.187583
0.376610 0.612900 0.569577
0.386922 0.179662 -0.552382
-0.005435 0.581274 -0.594572
-0.756283 0.567878 0.186677
0.774596 0.205458 0.568328
0.383803 -0.562000 0.201835
0.752971 -0.584464 -0.167790
-0.755397 0.569325 0.186660
-0.385087 -0.575973 -0.574830
-0.384782 -0.575602 -0.575869
-0.386435 -0.575716 -0.573611
-0.754803 0.568497 0.185502
0.389710 0.588803 -0.187185
-0.387408 0.568368 -0.198254
-0.023100 0.566543 0.173895
-0.007520 0.581520 -0.594982
-0.765172 0.188198 0.559828
-0.385596 0.568817 -0.198617
-0.780724 -0.572174 -0.209032
0.017905 0.225328 0.578240
-0.765750 0.188950 0.559381
0.389088 0.589937 -0.188323
