OFF
256 0 0
0.203148 0.194984 0.792425
0.554187 -0.184185 -0.002108
-0.187896 0.580878 0.779911
-0.190799 0.576031 -0.014136
0.576732 0.196655 0.389232
0.192217 0.557610 -0.379400
-0.585830 0.183562 -0.013884
0.584682 0.201632 -0.391468
0.589097 -0.173221 -0.783146
0.212963 -0.578561 -0.786920
-0.161556 -0.192312 -0.742942
-0.583444 0.183680 -0.013115
-0.584498 -0.573753 0.012141
-0.210326 0.567524 -0.747474
0.579248 0.197404 0.386503
-0.572453 0.567265 0.384233
0.202857 0.193219 0.792248
-0.585206 0.181575 -0.010805
0.563496 -0.572616 -0.405573
0.578380 0.196094 0.386225
0.212251 -0.578850 -0.011100
-0.583959 -0.576810 0.009242
0.198977 0.207142 -0.768996
0.560679 -0.573773 -0.405330
-0.206107 -0.597421 -0.391144
0.182160 0.554292 0.372880
0.563652 -0.579104 0.368903
0.214318 -0.580188 -0.787879
0.183445 0.553108 0.373393
0.563719 -0.581111 0.370196
0.214363 -0.580768 -0.011840
0.585447 0.565757 0.003047
-0.591599 0.597582 -0.363535
-0.583894 -0.576028 0.008496
-0.188569 0.577345 -0.012990
-0.580963 -0.170738 0.356431
0.555355 -0.183056 -0.000896
0.562320 -0.199970 0.776722
0.561627 -0.201313 0.774892
0.204093 0.192201 0.790865
-0.191011 0.575956 -0.013683
-0.189813 0.577112 -0.014790
-0.190821 0.577035 -0.014440
0.584593 0.201261 -0.392556
-0.208111 -0.597022 -0.391629
-0.565845 0.204429 0.757193
-0.570489 0.568272 0.386763
0.584461 0.567084 0.006121
0.191131 0.558860 -0.380300
-0.579274 -0.172564 0.355308
0.560948 -0.572868 -0.405478
0.590033 -0.174859 -0.782826
-0.568237 0.207610 0.759767
0.182912 -0.568534 0.759973
0.553297 -0.184039 -0.000992
-0.182891 -0.192979 0.756733
0.589429 -0.174514 -0.783408
-0.557849 0.197390 -0.741744
-0.594451 -0.209935 -0.355657
-0.555077 0.197200 -0.742768
-0.579893 -0.170210 0.357299
-0.184603 -0.190911 0.754367
-0.189351 0.576024 -0.013883
-0.567072 0.208503 0.758241
-0.207696 -0.596088 -0.392719
-0.573506 0.566491 0.387187
-0.205588 -0.597355 -0.392543
-0.208881 -0.597455 -0.390925
-0.210891 0.568244 -0.746937
-0.572182 0.565543 0.387352
-0.193498 -0.576717 0.387968
0.561655 -0.573999 -0.404535
0.585243 0.200708 -0.391825
-0.567127 0.206894 0.760093
-0.184798 -0.191243 0.754363
0.191120 0.557941 -0.380079
0.560570 -0.201425 0.776087
-0.585639 -0.577117 0.008716
-0.585810 0.183480 -0.011728
0.192429 0.557263 -0.379945
0.584866 0.566834 0.004799
-0.585483 -0.576645 0.009849
0.203404 0.191853 0.793041
-0.591965 0.598501 -0.364811
0.561217 -0.202477 0.776061
0.563224 -0.572337 -0.402866
0.212280 -0.579359 -0.788114
0.585267 0.201114 -0.393054
-0.207815 -0.595289 -0.390498
-0.184509 -0.191884 0.754471
-0.585499 -0.576564 0.008771
-0.211161 0.567715 -0.745910
-0.187417 0.580054 0.779776
-0.192816 -0.576112 0.390016
0.213408 -0.579592 -0.010227
0.199367 0.208125 -0.767509
0.589281 -0.174594 -0.785040
-0.184987 0.582014 0.781302
-0.581040 -0.172062 0.356842
-0.586042 0.181521 -0.011251
0.563042 -0.579736 0.368408
0.213622 -0.580016 -0.786046
-0.585647 0.182285 -0.010371
0.589873 -0.173828 -0.783120
0.184118 -0.568011 0.758731
0.213076 -0.579494 -0.785776
-0.191377 -0.575083 0.389927
0.589164 -0.173939 -0.784118
-0.187788 0.581798 0.780734
-0.183450 -0.191306 0.756040
0.199155 0.208634 -0.767523
-0.206749 -0.596113 -0.391915
0.585789 0.200382 -0.389578
-0.572320 0.567854 0.385952
0.586066 0.567585 0.003304
0.587326 0.201053 -0.391471
0.183331 0.553368 0.372914
0.578826 0.194249 0.389041
0.200778 0.206436 -0.768500
-0.192414 -0.576912 0.388962
-0.185293 -0.190690 0.754385
0.564177 -0.579151 0.368283
-0.586355 0.182597 -0.011306
0.183272 -0.568689 0.757024
-0.579157 -0.170627 0.354310
0.589565 -0.174240 -0.783383
-0.184202 -0.191411 0.754837
-0.212382 0.568479 -0.747789
0.560821 -0.199352 0.775229
0.577640 0.196307 0.387673
0.182658 -0.568415 0.760182
0.586627 0.201218 -0.392978
-0.584733 -0.575905 0.008868
0.586095 0.568570 0.005710
-0.580152 -0.170391 0.357554
0.577682 0.196863 0.389400
0.200004 0.208852 -0.768588
-0.184264 -0.190273 0.756699
-0.211684 0.568608 -0.748043
-0.594725 -0.210049 -0.357805
-0.185177 -0.191233 0.754794
-0.206406 -0.598289 -0.392102
-0.589376 0.597468 -0.365254
-0.589599 0.597846 -0.362797
0.586368 0.200229 -0.393444
-0.585284 0.182942 -0.011716
-0.593632 -0.209673 -0.357044
0.556258 -0.185208 0.000021
0.561984 -0.572373 -0.404879
0.199231 0.207514 -0.767201
0.212604 -0.579769 -0.785357
-0.585399 -0.575322 0.010163
0.565061 -0.572751 -0.405849
0.555734 -0.185629 0.000321
-0.594008 -0.210002 -0.356599
0.562017 -0.577915 0.369684
0.183700 -0.568661 0.759275
0.555613 -0.183253 0.000124
-0.185259 -0.191877 0.756468
0.585717 0.566490 0.003843
-0.184838 -0.190355 0.754783
-0.587433 -0.574801 0.007354
-0.591154 0.597413 -0.364402
0.183713 -0.569521 0.763331
-0.187724 0.583678 0.780943
-0.572664 0.567618 0.386001
-0.184596 -0.192261 0.757606
0.579594 0.195732 0.386683
-0.557536 0.196836 -0.744010
-0.193130 -0.577254 0.388242
0.556154 -0.185463 -0.001696
-0.193222 -0.576113 0.389369
-0.184053 -0.190603 0.754230
0.561293 -0.201145 0.774162
-0.212261 0.568385 -0.747618
-0.568036 0.208579 0.758913
0.189433 0.556641 -0.379597
-0.570864 0.567280 0.386950
0.586134 0.201545 -0.391441
-0.207463 -0.597012 -0.391837
-0.184058 -0.190922 0.754325
-0.213511 0.568024 -0.746825
0.192858 0.556928 -0.379887
0.561745 -0.572405 -0.404694
-0.161930 -0.195397 -0.740008
-0.577813 -0.172247 0.356542
0.192328 0.557301 -0.380801
0.586498 0.568447 0.003139
0.554093 -0.183800 -0.000445
0.212992 -0.579867 -0.011239
-0.188501 0.580650 0.781406
0.555216 -0.183989 -0.002177
0.589559 -0.174288 -0.784326
-0.162779 -0.194665 -0.741181
-0.189519 0.578676 -0.015684
-0.212649 0.568895 -0.747359
-0.214427 0.566888 -0.746146
-0.188271 0.576517 -0.015035
-0.572425 0.566113 0.386739
-0.557560 0.197179 -0.742025
-0.190466 0.575017 -0.015489
-0.571766 0.566163 0.387729
0.213226 -0.581792 -0.787016
-0.571332 0.566798 0.386196
0.202834 0.193804 0.791097
0.576943 0.194433 0.387559
-0.585022 -0.575570 0.008607
-0.191596 0.576091 -0.013060
-0.211377 0.567702 -0.747717
0.183984 -0.568076 0.758959
0.577603 0.196665 0.388163
-0.193038 -0.577329 0.390129
0.213077 -0.579068 -0.788023
0.562479 -0.577298 0.368987
-0.190422 0.577985 -0.015328
-0.163313 -0.194677 -0.741154
0.203380 0.194411 0.789222
-0.571064 0.566320 0.385152
-0.187564 0.582551 0.780921
-0.186936 0.580969 0.782753
-0.587394 -0.574288 0.008308
-0.584064 -0.576647 0.009368
-0.184271 -0.191516 0.755486
0.586444 0.202017 -0.393477
-0.580548 -0.169656 0.357504
-0.211866 0.567114 -0.746464
0.184285 -0.568379 0.760136
-0.558157 0.199403 -0.743657
-0.567995 0.206729 0.759993
0.584987 0.568080 0.002868
0.200898 0.207661 -0.769623
-0.588517 0.597298 -0.364858
-0.161986 -0.193905 -0.743519
0.577088 0.196056 0.387900
-0.183715 -0.192426 0.753726
0.214566 -0.579506 -0.011995
-0.594511 -0.207331 -0.356963
-0.570614 0.565693 0.384266
0.586652 0.568386 0.004500
-0.590648 0.600229 -0.363653
-0.588969 0.182497 -0.012062
0.183076 0.551950 0.374004
0.585416 0.568559 0.004950
-0.585254 0.182270 -0.013438
-0.580500 -0.172160 0.355757
-0.185775 -0.190161 0.755686
0.200173 0.207800 -0.768722
-0.586023 -0.575016 0.009555
-0.578819 -0.170312 0.359060
0.563670 -0.572962 -0.404921
0.180492 0.553530 0.374095
0.213132 -0.577693 -0.787582
0.194388 0.555911 -0.381227
0.590206 -0.171912 -0.782239
0.215125 -0.579087 -0.787020
0.555477 -0.185480 -0.000803
