OFF
256 0 0
-0.672969 -0.671346 0.297399
0.036043 -0.320010 -0.759426
0.046779 0.393695 -0.759433
-0.320811 0.045415 0.681753
0.762933 0.042811 -0.389774
-0.303327 -0.678326 -0.040131
0.397466 -0.296097 0.339914
0.356209 0.386283 0.305766
0.046212 0.391444 -0.760078
0.062380 0.772100 -0.390842
-0.302509 0.378971 0.296204
-0.319661 0.045985 0.681348
-0.300875 -0.678825 -0.038250
0.408279 -0.665017 -0.023970
0.048087 0.393008 -0.760334
0.780397 0.401382 -0.030499
0.763536 0.042536 -0.390076
0.019836 -0.314989 0.668184
-0.655813 -0.318046 -0.038159
-0.302597 -0.677232 -0.038441
-0.666023 0.379155 -0.040531
0.410157 -0.665739 -0.026910
0.763270 0.059069 0.315887
0.389221 0.394386 -0.392204
-0.321787 0.045515 0.680123
-0.675469 -0.668620 0.299748
0.765680 0.041927 -0.389845
0.397223 -0.296123 0.339565
0.033906 0.741218 0.294572
0.765771 0.043224 -0.389688
0.032563 0.741559 0.293054
-0.321343 0.410805 -0.394649
-0.310597 0.062535 -0.734198
0.357049 0.386194 0.306442
-0.281606 -0.314924 -0.394525
-0.324768 -0.679207 0.656389
0.391368 0.062280 0.677533
0.411469 -0.665247 -0.026252
-0.318506 0.045609 0.678468
0.390366 0.063991 0.679466
-0.326739 -0.680690 0.657737
-0.320611 0.046412 0.679718
0.420309 0.755165 -0.036232
0.032644 0.741320 0.292857
-0.303663 0.379874 0.295821
0.392575 0.059834 0.678285
0.019776 -0.316469 0.670238
-0.322048 0.045463 0.680659
-0.325579 -0.680339 0.655534
-0.318845 0.047757 0.678586
0.409953 -0.664761 -0.028151
0.389885 -0.303669 -0.425496
0.032130 0.742303 0.295430
-0.671362 0.025706 -0.388940
0.409803 -0.666737 -0.024169
0.779581 0.402207 -0.031247
0.032169 0.404785 0.683040
-0.320032 0.762556 -0.065068
-0.327746 -0.679374 0.658287
-0.668210 0.378209 -0.039889
-0.321448 0.760396 -0.064550
-0.326125 -0.680950 0.656524
-0.672059 -0.326328 0.663588
0.034451 0.406879 0.683593
-0.310696 0.062215 -0.734331
0.022075 -0.315023 0.671624
-0.281866 -0.315851 -0.391997
-0.673328 -0.668252 0.297302
0.764810 0.056839 0.314609
-0.673720 -0.668537 0.299628
-0.311740 0.062813 -0.735685
0.410955 -0.665396 -0.025644
-0.282851 -0.314583 -0.392478
-0.322426 0.410473 -0.396902
0.031107 0.406109 0.680985
0.387783 -0.301266 -0.426236
0.358601 0.385364 0.306925
-0.673981 -0.667482 0.298091
-0.328892 -0.681344 0.657318
0.389947 0.394459 -0.390019
0.391572 0.395808 -0.393022
-0.670371 0.027039 -0.389788
0.387396 -0.302082 -0.425760
0.047664 0.394591 -0.758471
-0.322250 0.760451 -0.063029
-0.665844 0.377402 -0.038684
-0.326141 -0.681685 0.656233
-0.681823 0.027614 0.297146
-0.655840 -0.317659 -0.040207
-0.323697 0.410626 -0.397223
0.358095 0.386883 0.306839
0.047826 -0.665572 0.310626
-0.320807 0.760144 -0.064723
-0.280446 -0.315453 -0.393425
0.780487 0.402369 -0.033020
0.358334 0.387637 0.305265
-0.319924 0.048185 0.681474
0.419593 0.755208 -0.036358
-0.322768 0.410292 -0.395345
-0.305406 -0.678138 -0.037175
0.379776 0.043386 -0.755713
0.380343 0.044785 -0.756209
0.382010 0.043007 -0.755823
-0.674308 -0.668034 0.299436
0.018989 -0.315013 0.671272
0.391122 0.059933 0.677276
0.385974 -0.302657 -0.424443
0.379974 0.042629 -0.754926
0.047501 0.391110 -0.759356
-0.670465 0.023738 -0.387982
0.034100 -0.673795 -0.395741
-0.319774 0.047771 0.681754
0.032672 0.741092 0.294088
-0.682222 0.026905 0.299386
0.032459 0.741367 0.293305
-0.317813 0.760409 -0.064466
0.764196 0.059011 0.317061
0.035184 -0.320175 -0.760785
-0.668963 0.027532 -0.388056
0.392472 0.061671 0.678662
0.388286 -0.302445 -0.424356
0.032558 0.405904 0.682358
0.420705 0.755054 -0.033272
-0.328364 -0.679649 0.657335
0.380492 0.043350 -0.755590
0.391826 0.061283 0.678968
-0.666702 0.379733 -0.038591
0.032928 0.739580 0.293525
-0.654682 -0.317512 -0.038904
0.395367 -0.295320 0.341021
-0.302678 -0.675260 -0.039971
0.751662 -0.322341 -0.034200
0.358060 0.388946 0.307528
-0.672402 0.025005 -0.386993
0.764081 0.059483 0.317485
0.064118 0.771565 -0.390201
0.767452 0.042061 -0.389306
0.420440 0.753739 -0.037801
-0.320619 0.045730 0.680184
0.387964 -0.303525 -0.425857
-0.302791 0.379730 0.295092
-0.320156 0.046897 0.680300
0.049748 -0.667180 0.310835
-0.280885 -0.316950 -0.391263
-0.322078 0.411186 -0.395833
0.021051 -0.315972 0.671943
-0.309184 0.064576 -0.735696
-0.319631 0.760968 -0.066294
-0.322404 0.412614 -0.396772
0.780023 0.402498 -0.031126
0.386641 -0.303290 -0.426044
0.392133 0.062331 0.679052
0.036623 -0.320313 -0.760855
0.031164 0.739358 0.292223
-0.673057 -0.322966 0.661760
-0.671757 0.026734 -0.389430
-0.301524 -0.676711 -0.038456
-0.318312 0.759931 -0.063584
-0.301463 -0.676950 -0.037716
-0.310130 0.062971 -0.733841
0.046282 -0.666274 0.310149
0.765959 0.042698 -0.388247
-0.672095 -0.325859 0.662898
-0.672714 -0.323906 0.661587
0.387133 -0.303583 -0.424544
0.020450 -0.316724 0.671493
-0.682106 0.027424 0.299449
0.032480 0.740467 0.294562
0.037943 -0.319145 -0.761995
0.751088 -0.320903 -0.034571
-0.319949 0.758986 -0.065342
0.389373 0.395142 -0.392314
-0.303862 -0.677707 -0.039295
0.410702 -0.664762 -0.027140
0.752640 -0.321409 -0.035714
0.032474 -0.674662 -0.396331
-0.303022 0.380753 0.294558
0.412248 -0.665761 -0.023587
-0.300813 -0.678751 -0.039283
-0.321354 0.045117 0.679015
0.064324 0.773557 -0.392145
0.409928 -0.665062 -0.024636
-0.309375 0.065961 -0.732818
0.389917 0.061357 0.678222
-0.302906 0.379163 0.295881
0.764377 0.057903 0.316299
-0.327559 -0.680406 0.657140
0.389723 0.396921 -0.392638
-0.304028 0.381734 0.296272
0.046492 0.392952 -0.758992
-0.682995 0.027639 0.295228
0.752616 -0.322517 -0.034207
-0.321204 0.409411 -0.396512
-0.319970 0.759168 -0.064910
0.395199 -0.297426 0.338356
0.409890 -0.663926 -0.025237
-0.283021 -0.316229 -0.392832
0.751235 -0.320842 -0.034220
-0.326681 -0.679517 0.657263
-0.672457 -0.325056 0.661863
-0.310442 0.063915 -0.735823
-0.666582 0.378772 -0.038110
0.396549 -0.295589 0.339655
0.048511 0.392810 -0.757345
0.763964 0.057532 0.316775
0.032785 0.741149 0.293801
0.387346 0.396464 -0.391554
-0.280952 -0.315166 -0.395317
0.420980 0.755495 -0.036249
-0.672404 -0.669858 0.299174
0.064840 0.773036 -0.391483
0.763932 0.043729 -0.391846
0.390443 0.395184 -0.391545
0.045136 0.391240 -0.757955
0.388759 0.393991 -0.392059
-0.326511 -0.679128 0.655922
0.751064 -0.322951 -0.032865
0.420240 0.755067 -0.035519
0.045018 0.391085 -0.758189
0.749951 -0.320889 -0.035575
0.779750 0.401944 -0.032379
0.752009 -0.321489 -0.034938
0.781245 0.399920 -0.030545
0.388124 0.396248 -0.391981
-0.303881 0.381782 0.296311
0.036331 -0.318652 -0.761197
0.409404 -0.664513 -0.025576
0.047569 -0.667473 0.310456
0.033213 -0.674979 -0.393378
-0.282528 -0.314710 -0.393248
0.767442 0.044501 -0.390278
0.031897 0.741197 0.292656
0.035606 -0.318597 -0.760943
-0.656652 -0.318596 -0.039789
-0.326141 -0.679133 0.657914
0.765826 0.043777 -0.389970
-0.654151 -0.317098 -0.036733
-0.303173 0.381984 0.295631
-0.281828 -0.315418 -0.393076
-0.303607 0.379672 0.297245
-0.666783 0.376909 -0.037809
0.032382 0.406431 0.683118
-0.326154 -0.680632 0.655389
0.421781 0.753942 -0.037389
-0.670343 0.027144 -0.388427
0.032395 0.405701 0.682108
-0.682740 0.026558 0.297477
-0.672460 -0.325014 0.662768
-0.310758 0.064482 -0.734280
-0.319406 0.043794 0.679812
0.390131 0.394737 -0.392519
0.394812 -0.295270 0.338826
0.035226 -0.319457 -0.759946
0.021898 -0.317169 0.669156
-0.667784 0.378227 -0.038194
0.030788 0.406465 0.682822
