OFF
256 0 0
-0.672619 0.045338 -0.369830
-0.326042 0.036268 -0.753869
-0.666466 -0.288964 0.642895
-0.304806 -0.316490 -0.368568
0.770314 -0.300670 -0.045782
0.390290 0.416188 0.319810
0.399050 -0.685644 -0.053047
0.767722 -0.298891 -0.046516
0.019102 -0.674991 -0.434134
-0.312061 0.374771 -0.369861
-0.307129 0.764905 -0.030919
0.397532 0.402720 -0.402538
0.750431 0.408961 -0.016312
0.058052 0.416104 0.679955
0.761142 0.036388 -0.378655
0.029081 -0.300844 -0.755696
-0.289928 0.368104 0.300601
-0.313467 0.375722 -0.370385
-0.322655 -0.660152 0.650737
-0.322551 -0.660980 0.648167
0.396904 0.758480 -0.043499
-0.664980 0.039010 0.271699
0.397884 -0.686407 -0.052714
0.396431 0.758649 -0.045076
-0.311044 0.376420 -0.371516
0.041950 -0.690238 0.331872
-0.695750 -0.334326 -0.052474
0.044809 0.765868 0.331909
0.027934 -0.301245 -0.756932
0.418454 -0.305982 0.285760
0.752609 0.407288 -0.012280
-0.325449 0.037639 -0.751485
0.043201 0.767435 0.332008
0.398012 0.401744 -0.400403
0.029638 -0.301593 -0.754619
0.058734 0.416060 0.679399
-0.664882 -0.683614 0.301336
0.028381 -0.302275 -0.754339
-0.695409 -0.333182 -0.050836
0.397236 0.758580 -0.046980
0.417309 -0.304457 0.286367
0.378033 0.031903 0.679426
-0.663439 0.040092 0.272293
0.396531 0.758578 -0.045623
0.396075 0.756788 -0.045754
-0.288477 0.368996 0.300810
0.042720 0.382686 -0.744312
-0.305814 0.763683 -0.033214
-0.664006 -0.683925 0.300068
0.403433 0.055458 -0.754021
-0.674036 0.045136 -0.369330
0.040295 -0.318541 0.650669
0.390572 0.417610 0.319885
0.768308 -0.299975 -0.045817
-0.666669 -0.289329 0.643153
0.054256 0.750754 -0.389136
-0.312533 0.374535 -0.370633
0.044906 0.765220 0.331464
0.028754 -0.300185 -0.756670
-0.306629 -0.690070 -0.047425
0.044127 0.380949 -0.744547
0.419688 -0.305730 0.286170
-0.324654 0.037618 -0.749884
0.056054 0.752116 -0.387788
0.393185 0.417075 0.320062
0.759773 0.033889 0.338987
0.749937 0.406947 -0.012655
0.418660 -0.306589 0.285500
-0.307425 -0.317105 -0.369380
0.762117 0.039703 -0.378759
-0.664694 0.038929 0.271382
-0.320801 -0.659519 0.650850
0.376333 0.031494 0.680984
0.043658 0.767947 0.327670
-0.694263 -0.333691 -0.052188
-0.693728 -0.336127 -0.052452
0.376505 0.033786 0.679525
-0.312694 0.374918 -0.370675
-0.310684 0.376773 -0.369484
0.058230 0.416467 0.677949
-0.666402 -0.285810 0.643404
0.399261 -0.683761 -0.052492
0.402804 0.054602 -0.753539
0.418650 -0.304281 0.284043
-0.305578 -0.689866 -0.048023
0.398565 0.402905 -0.400960
-0.668103 -0.288331 0.644261
0.052564 0.751852 -0.388270
-0.665825 0.038292 0.273963
-0.322606 -0.659417 0.649957
0.404766 0.055930 -0.752815
0.020906 -0.675696 -0.432832
0.403344 0.057600 -0.752004
-0.666895 0.037702 0.272823
-0.665539 -0.286993 0.644459
-0.668308 -0.286704 0.642454
-0.693622 -0.334290 -0.052013
0.418345 -0.306399 0.286848
0.029557 -0.300406 -0.754283
-0.666629 -0.684698 0.302486
-0.297214 0.046278 0.653836
0.053825 0.751323 -0.387613
0.353584 -0.305847 -0.403935
-0.321934 -0.658121 0.651792
-0.322444 -0.660125 0.649191
0.354925 -0.307252 -0.404872
0.390804 0.414876 0.322874
-0.324535 0.036639 -0.751591
0.030184 -0.300594 -0.752343
0.397232 0.757430 -0.045815
-0.288974 0.367792 0.299889
-0.666470 0.040178 0.273839
0.044196 0.767700 0.332058
0.419112 -0.307351 0.283701
-0.665146 0.038885 0.273044
0.044532 0.764966 0.331119
0.020402 -0.674852 -0.432644
-0.665402 -0.683440 0.300611
-0.324747 0.036237 -0.750668
0.757615 0.035835 0.337121
-0.297359 0.047022 0.656110
-0.674762 0.045069 -0.371691
0.391540 0.416342 0.318213
-0.288863 0.367970 0.299758
-0.325724 0.036544 -0.750156
-0.304429 -0.317726 -0.368088
0.392298 0.416350 0.321021
0.038996 -0.317588 0.647420
0.401188 0.054688 -0.754399
-0.308759 -0.690344 -0.047629
-0.695190 -0.334995 -0.053006
0.055316 0.753229 -0.388889
0.399301 0.757488 -0.043570
0.353918 -0.303976 -0.403499
0.019148 -0.674176 -0.434368
0.018130 -0.674649 -0.432875
0.044152 0.767139 0.331981
0.769908 -0.299712 -0.045765
0.041246 -0.691895 0.332426
0.769773 -0.300146 -0.047269
-0.696701 -0.336471 -0.051840
-0.321374 -0.659342 0.649346
-0.665874 0.037095 0.271760
0.030180 -0.300709 -0.756474
0.378388 0.030548 0.681473
-0.676179 0.419169 -0.034465
-0.324611 0.036900 -0.751236
0.377540 0.032353 0.680545
-0.666020 -0.288129 0.642934
0.042775 -0.693962 0.332117
-0.676822 0.422357 -0.033189
0.404687 0.055530 -0.753758
0.057038 0.416297 0.678234
0.751497 0.406293 -0.013210
0.393515 0.416842 0.321206
-0.695360 -0.335264 -0.052523
0.759657 0.035401 0.338423
0.037214 -0.321167 0.649773
0.044411 -0.692935 0.332859
0.418137 -0.306181 0.285056
0.402074 0.056172 -0.754943
-0.305299 -0.317547 -0.367965
0.043306 0.767716 0.331597
-0.665209 -0.684161 0.301416
0.019493 -0.676216 -0.433207
0.418163 -0.305473 0.285308
0.391335 0.416246 0.322048
0.055878 0.751019 -0.388622
0.355386 -0.305192 -0.403177
0.758288 0.034787 0.341195
0.354677 -0.305332 -0.402844
0.416388 -0.305385 0.285781
-0.665336 0.040141 0.271432
0.750506 0.407624 -0.011292
0.054408 0.751594 -0.388996
0.058361 0.415523 0.678190
0.377721 0.030099 0.680805
0.043648 0.767054 0.330744
-0.673769 0.047080 -0.370540
-0.312111 0.372219 -0.371873
0.756521 0.036651 0.338865
0.028647 -0.299432 -0.754000
0.019117 -0.673966 -0.433214
0.751143 0.407742 -0.013575
-0.307543 0.764650 -0.031752
0.380054 0.031353 0.679769
-0.308054 0.762950 -0.034301
0.056240 0.416426 0.677381
0.769506 -0.300337 -0.047128
-0.306215 -0.319788 -0.367550
0.757909 0.033815 0.338235
0.418992 -0.306809 0.284576
-0.320813 -0.658746 0.648883
0.399125 0.404288 -0.398850
0.354590 -0.305243 -0.403673
-0.308166 0.763429 -0.032764
-0.665745 -0.682434 0.301485
-0.325245 0.036603 -0.751044
0.018385 -0.676302 -0.433467
-0.322117 -0.658303 0.650010
-0.322531 -0.659938 0.650479
-0.312607 0.375768 -0.372796
0.768615 -0.298212 -0.044579
0.400931 -0.685572 -0.051129
-0.312098 0.375098 -0.369498
0.038655 -0.319057 0.648234
-0.665644 -0.683564 0.298907
0.761797 0.037835 -0.377318
-0.663168 -0.682189 0.300532
0.397447 0.755400 -0.045062
0.378395 0.032918 0.679601
-0.307973 -0.689086 -0.045686
0.762069 0.035965 -0.375722
0.042490 -0.691582 0.332597
0.418576 -0.306166 0.285948
-0.674567 0.047215 -0.370416
0.041864 0.383195 -0.745954
0.054132 0.750477 -0.390701
0.768145 -0.300893 -0.046071
-0.668860 -0.288501 0.644975
-0.288415 0.368963 0.300157
0.397488 0.402188 -0.402517
0.043840 0.380976 -0.745690
0.415814 -0.305811 0.284468
0.403117 0.055874 -0.753203
0.053772 0.752260 -0.388555
0.043850 -0.689555 0.331923
-0.665104 -0.682815 0.297590
0.757165 0.035859 0.338595
0.043434 0.766051 0.330922
0.756745 0.034225 0.338443
0.058924 0.418038 0.677494
-0.311888 0.376057 -0.370580
-0.677639 0.417814 -0.032321
0.039154 -0.318257 0.648771
0.044922 0.766178 0.331214
0.757399 0.036592 0.339169
-0.287219 0.371151 0.301098
-0.311456 0.375766 -0.370121
0.044006 0.381579 -0.744577
0.402727 0.055860 -0.753635
0.058663 0.418074 0.677490
-0.326548 0.036674 -0.752290
0.019499 -0.674735 -0.433092
0.377895 0.031955 0.683223
-0.667570 -0.287419 0.643315
0.751678 0.407119 -0.015226
0.749463 0.408446 -0.013775
-0.324673 0.037839 -0.751472
-0.305564 -0.315784 -0.367681
0.397861 -0.685525 -0.051298
0.417570 -0.305818 0.285618
0.396872 0.758003 -0.046494
0.767684 -0.301175 -0.047347
-0.306876 -0.689098 -0.046702
0.045037 0.766247 0.331814
