OFF
256 0 0
-0.585358 0.590400 -0.392299
-0.587858 -0.589442 0.001551
-0.588358 0.195057 0.780778
0.589256 -0.588613 0.391196
0.195561 0.196740 0.783984
-0.196112 -0.590064 -0.393268
-0.588722 0.194911 -0.784154
0.588637 -0.197076 0.784641
-0.195585 -0.195804 -0.785339
0.588512 -0.588837 0.391388
0.587995 -0.589376 -0.394886
0.587873 -0.195937 -0.781568
0.588626 -0.196306 -0.785368
0.587180 -0.194986 -0.783798
-0.195469 -0.588928 -0.392511
0.194792 -0.589848 -0.000798
0.196295 -0.587013 0.782173
-0.588139 -0.586731 0.000859
-0.586942 0.587748 0.392008
0.197138 0.196990 -0.786185
0.590746 -0.589638 -0.392115
0.197952 -0.586769 0.785498
-0.196646 -0.196910 0.785699
0.196523 -0.588623 0.785115
0.588983 -0.196322 -0.783923
0.590954 -0.588292 -0.392377
-0.589037 0.588994 0.392322
0.197579 -0.588243 -0.001866
-0.194938 -0.588555 -0.393155
-0.194751 -0.197631 0.784993
0.195794 0.197923 0.786258
0.588165 -0.196027 -0.784512
0.587463 -0.195929 -0.001626
0.197368 -0.589400 -0.000799
0.197013 -0.587979 0.782970
0.196898 -0.586164 0.000964
-0.194938 -0.195601 -0.784438
0.196004 0.588571 0.393647
0.195166 -0.586131 0.783180
0.587855 -0.589950 0.389760
-0.195465 -0.588072 -0.392246
0.197266 -0.586946 0.784286
-0.589907 -0.588266 -0.001895
-0.588663 -0.195476 -0.390607
0.588800 0.588714 -0.003452
-0.196348 -0.588224 -0.392527
-0.589222 0.198182 0.000517
0.588076 0.195148 0.394476
-0.586716 0.194135 0.000541
0.196983 0.587450 -0.392456
0.589201 -0.587868 0.393214
-0.195407 -0.195682 -0.785371
0.587821 0.196473 0.391684
0.588057 0.588396 -0.000718
-0.587670 -0.196340 0.391443
0.196326 -0.589383 -0.782659
-0.588553 0.196441 0.785178
0.194586 0.196101 -0.783163
0.589371 -0.195612 0.783817
0.193876 -0.587911 0.784774
-0.589474 -0.196693 0.391134
0.196781 0.588625 -0.391891
-0.195704 -0.195647 0.787042
-0.196028 -0.194819 0.784619
0.586146 -0.197204 -0.784877
-0.587987 0.194430 -0.783743
0.588979 -0.197702 -0.783855
0.589388 -0.196247 0.784242
-0.588759 0.195585 -0.783662
-0.587437 -0.587686 0.000510
0.196726 0.196225 -0.787538
0.587970 0.196582 -0.391049
-0.195709 -0.588554 0.392568
0.589413 -0.196492 -0.784595
-0.195851 0.587238 -0.000686
-0.587406 0.586266 -0.393400
-0.588450 0.589975 -0.394247
-0.194622 -0.196977 0.784722
0.588606 0.196896 0.392034
0.197035 0.196418 -0.783094
-0.589847 0.586866 0.392327
-0.194085 -0.195156 -0.785449
-0.587310 0.587352 0.392777
0.587804 -0.197014 -0.782441
0.588593 -0.198437 0.784234
-0.587711 0.195251 -0.001248
-0.588225 0.588502 0.392772
0.588394 0.194382 -0.392933
-0.194987 -0.589540 -0.391415
-0.587648 0.196622 0.785707
0.196065 0.197456 0.783398
0.194985 0.195606 0.783929
0.589416 -0.196445 0.000363
-0.589698 0.195457 0.784580
0.588831 0.195884 0.391384
-0.589205 -0.588543 -0.000185
0.196150 0.195326 0.785554
-0.193541 0.587666 -0.000242
0.588020 -0.589595 -0.390909
-0.587724 0.194075 -0.783027
-0.588845 0.197253 0.001061
-0.587628 0.588899 -0.391659
-0.588543 -0.196708 -0.392270
0.196796 -0.587484 0.784418
0.586576 -0.589697 -0.392656
-0.195877 -0.195777 0.785176
-0.588663 0.588046 -0.391287
0.587715 0.196815 0.391498
-0.197843 0.588421 -0.002145
-0.196008 0.587587 -0.000923
-0.196222 0.588842 -0.000078
-0.588394 0.196066 -0.784945
-0.196895 0.589165 0.783810
0.588759 -0.196444 0.783083
0.195952 -0.589645 0.785277
-0.196536 -0.195512 -0.784519
0.194860 -0.587378 0.000376
0.588029 -0.196759 0.784273
0.586867 -0.196859 -0.000431
-0.196871 -0.589103 0.392960
-0.195638 -0.195966 0.784981
-0.196290 -0.195918 -0.783489
-0.586605 -0.587462 0.000070
-0.194124 -0.588250 -0.391022
-0.195951 -0.198039 -0.784872
-0.587534 0.196604 0.783232
-0.195686 -0.196738 -0.782616
0.587300 0.195552 0.394231
0.196216 0.196106 0.783295
-0.587918 0.195371 0.000622
-0.590646 0.589311 0.390671
0.196086 0.195873 0.784289
-0.193894 -0.194275 0.784274
0.193744 0.196764 -0.785440
0.196736 0.588062 0.392234
-0.588431 -0.197323 0.393077
0.590119 -0.196144 -0.785699
-0.196665 -0.588059 -0.391599
-0.586936 0.195251 -0.783693
-0.588140 0.587041 0.391310
0.588258 0.194984 0.390585
-0.588221 -0.197194 0.391450
-0.195823 0.588782 -0.783643
0.194958 0.196867 -0.784364
-0.196095 -0.588025 0.392743
-0.195989 -0.198887 -0.782950
-0.196485 -0.588841 0.391785
0.587194 -0.195905 0.783726
0.587212 -0.587525 -0.392694
0.588546 0.194390 0.393196
-0.196199 0.587599 -0.000358
0.195543 -0.588597 -0.785487
-0.194241 -0.195666 -0.785214
0.588222 -0.588412 0.391620
-0.590846 0.196678 0.782862
-0.588499 0.193949 0.000535
-0.195077 -0.588015 -0.393827
-0.195010 -0.587510 -0.391536
-0.587408 -0.195616 0.394204
0.587432 -0.588693 -0.390316
-0.195667 0.588861 0.785416
-0.587698 -0.195474 -0.391694
0.195261 0.195475 -0.784619
0.587358 -0.196255 -0.784683
0.196130 -0.588443 -0.784759
0.587313 -0.196458 0.783505
0.586950 0.196492 0.391424
-0.587273 0.589120 -0.393263
0.196502 0.196545 0.783925
0.587876 -0.195929 -0.784946
-0.588287 0.588448 0.392523
-0.587623 -0.196101 -0.392451
-0.196605 0.588211 -0.000393
0.195832 0.587936 -0.392889
-0.587301 0.194856 0.786255
0.588354 -0.196134 0.783837
0.588534 0.587773 0.000049
-0.196257 -0.196220 -0.785863
0.197163 0.590336 0.391990
-0.196837 -0.195269 0.785415
0.197067 -0.586878 0.784642
0.590266 -0.589359 -0.392504
0.587365 0.196283 0.393014
-0.194112 -0.588516 0.391866
-0.588371 0.194659 -0.000356
-0.196432 0.588340 0.783090
-0.196627 0.588272 0.782920
-0.196358 -0.197609 0.784050
-0.589274 -0.196921 -0.392707
0.196655 -0.588047 0.783882
0.588793 0.196188 0.391412
-0.194545 0.588193 0.000697
-0.194667 -0.587053 -0.390188
0.587546 0.587299 -0.000643
0.589570 -0.195812 0.000454
0.589125 0.196214 0.389934
-0.197560 0.588469 -0.001111
0.197783 0.587219 0.393199
0.587871 -0.195862 0.000935
-0.588223 0.196800 0.786345
0.587188 -0.588074 -0.392208
-0.588294 0.194989 0.784207
0.589361 0.586693 -0.000113
0.195559 0.587333 -0.392859
-0.587236 0.194874 -0.783571
0.589476 -0.587492 -0.391609
0.194911 -0.588529 0.784699
-0.589206 0.588972 0.390559
0.194665 0.587612 -0.391286
0.195115 0.589765 0.394217
0.589145 -0.196627 0.785820
-0.588562 0.195701 -0.784740
-0.588155 -0.589454 0.001953
0.196754 0.197393 0.783864
-0.586961 -0.589906 -0.000541
0.197006 0.589367 0.391357
-0.590114 -0.194923 0.391366
0.195615 0.195872 -0.784523
-0.196936 0.587625 -0.783173
-0.588324 -0.588037 -0.000381
-0.588491 0.589163 -0.392181
-0.590054 0.587510 -0.391400
-0.588808 -0.196662 -0.393091
0.587591 -0.195512 0.783964
-0.587907 0.196985 0.784234
-0.194505 0.588882 0.785645
0.588482 -0.196104 0.784818
0.196335 -0.588088 0.785379
0.196439 -0.588875 -0.000008
0.587058 -0.195438 0.784623
-0.196525 0.587673 0.000842
0.587209 -0.194385 -0.786149
-0.588004 0.195147 0.000680
-0.198075 0.587592 -0.783314
-0.586597 0.196427 0.000090
-0.588315 0.589024 -0.391726
0.588879 0.589837 -0.001916
0.587450 0.199206 -0.391833
0.196582 0.589096 -0.392115
-0.586865 0.197564 0.785127
0.196865 0.197079 -0.783436
-0.196452 0.586285 -0.782668
0.587798 0.197158 -0.391521
0.588727 -0.196398 -0.783343
0.587644 0.197529 0.391439
0.196037 0.588271 0.392033
-0.197204 -0.586474 0.390676
-0.589087 0.196159 -0.783696
0.197022 0.587740 -0.392096
0.196992 -0.589047 0.784809
0.196357 -0.587989 -0.001622
-0.589308 0.197069 -0.000383
-0.587624 -0.197105 0.393228
-0.197421 0.590589 -0.000370
-0.587208 -0.196115 -0.393441
0.195083 -0.587063 0.002279
