OFF
256 0 0
-0.572400 0.163487 0.746153
0.587672 -0.193128 0.027030
0.560396 -0.179146 -0.775284
0.569202 0.208516 0.380915
-0.184949 -0.204484 -0.796089
0.203149 -0.567929 0.011939
0.570895 0.205927 0.381210
0.571649 -0.606908 0.387843
-0.562450 -0.180157 -0.414544
-0.209791 -0.562419 0.359084
0.212306 0.583925 0.393106
0.559766 -0.179069 -0.777192
0.198439 0.209848 0.768444
-0.585442 0.173515 -0.003690
-0.203795 0.564113 -0.751410
0.571111 0.206482 0.380733
-0.185406 -0.550583 -0.379282
0.211398 0.585304 0.392055
-0.580803 0.549774 -0.370747
-0.184278 -0.549430 -0.380027
0.175161 -0.564930 0.745834
0.552966 -0.200265 0.740605
-0.202332 0.564852 -0.752983
-0.579580 0.556779 0.410897
-0.176570 0.593988 0.786973
0.210471 0.582910 0.389995
-0.582383 0.549522 -0.369749
-0.570461 0.163456 0.745690
0.572590 -0.608196 0.384289
-0.586862 0.184933 -0.778709
0.202548 -0.569600 0.010365
-0.178864 -0.170852 0.776918
-0.176255 0.590823 0.785888
0.575350 -0.605777 0.385240
0.556159 -0.202036 0.742677
-0.178933 -0.170149 0.775531
-0.563066 -0.177859 -0.415453
0.201773 -0.567283 0.011662
-0.176888 0.593076 0.785218
-0.582170 0.548763 -0.370024
0.588722 -0.192805 0.026648
-0.573712 -0.558347 -0.007638
0.213864 0.584736 -0.380925
-0.180678 -0.168965 0.774486
0.187475 -0.563990 -0.753406
-0.208034 -0.563076 0.358473
-0.580828 0.548968 -0.371660
-0.575913 -0.558919 -0.009396
-0.588473 0.174516 -0.004140
0.186860 -0.565100 -0.754536
0.567480 0.558376 -0.002342
-0.207750 -0.563994 0.357019
0.175450 0.196582 -0.746766
0.199270 0.210107 0.768668
0.572479 -0.607531 0.387777
-0.566219 -0.184905 0.369205
-0.209774 -0.563762 0.356810
-0.210007 -0.562996 0.357124
-0.183405 -0.204467 -0.794315
-0.184375 -0.203260 -0.794636
0.199321 0.210049 0.770842
-0.202577 0.565100 -0.752148
-0.176350 0.591263 0.786754
0.568420 0.561693 -0.004548
0.201725 -0.569600 0.009258
0.568988 0.205649 0.380324
-0.186946 0.557463 0.029366
0.212388 0.582605 -0.379710
0.584404 0.166874 -0.386802
-0.579836 0.556562 0.409402
0.175589 0.193690 -0.747320
-0.587500 0.185619 -0.778668
0.210082 0.583571 0.391993
-0.565904 -0.184462 0.370769
-0.203994 0.565790 -0.752041
-0.184859 -0.551607 -0.379656
-0.185827 -0.203508 -0.792918
0.175703 0.194497 -0.745041
0.558905 -0.178077 -0.776553
0.211785 0.581923 -0.380123
-0.565742 -0.183782 0.370890
0.583879 0.168244 -0.387126
-0.581034 0.548497 -0.371425
-0.579886 0.558109 0.412388
-0.573642 0.163293 0.748712
-0.574501 -0.559506 -0.010032
-0.586758 0.185141 -0.778903
0.202736 -0.569255 0.009750
0.579644 -0.562780 -0.381459
0.567334 0.560215 -0.004022
0.212110 0.584480 0.391719
0.187103 -0.564560 -0.756547
-0.180286 -0.168186 0.774662
0.200943 -0.567793 0.011513
-0.184274 -0.550974 -0.379539
-0.203738 0.565450 -0.751482
-0.572794 0.161638 0.747609
0.201467 -0.569945 0.009848
0.559548 -0.178208 -0.775510
-0.565947 -0.184156 0.371186
-0.575072 -0.558949 -0.011009
0.570922 0.207497 0.379754
-0.184702 -0.203928 -0.793966
0.560618 -0.180919 -0.774607
-0.179301 -0.170856 0.776859
0.569539 0.206610 0.380264
-0.186608 0.557541 0.031261
0.587018 -0.192356 0.025964
-0.565112 -0.182412 0.370649
-0.179157 -0.169264 0.775792
-0.202974 0.564962 -0.751807
-0.184837 0.557205 0.029610
0.589277 -0.192528 0.026843
0.211029 0.582338 -0.379310
-0.178034 -0.170438 0.777214
-0.586820 0.184977 -0.777726
0.175977 -0.566460 0.743436
-0.563755 -0.179588 -0.414077
-0.180936 -0.170057 0.776878
0.561892 -0.178175 -0.775261
0.175443 -0.563793 0.744661
0.583761 0.165507 -0.388047
-0.187485 -0.552084 -0.379165
0.552520 -0.200034 0.742278
-0.571915 0.162528 0.749366
-0.211801 -0.565031 0.357703
0.176093 -0.565198 0.744488
-0.588312 0.175587 -0.002120
0.176439 -0.563859 0.744058
0.203895 -0.569854 0.011037
0.570149 0.207384 0.381522
-0.186247 0.557513 0.029917
0.579468 -0.562497 -0.379493
-0.209051 -0.564201 0.359148
-0.570308 0.164150 0.747263
-0.210968 -0.564409 0.358627
0.210890 0.583050 0.392106
-0.579017 0.554763 0.411858
0.176790 -0.564871 0.744911
0.211006 0.585275 0.391247
0.582171 0.165165 -0.385263
-0.185275 -0.551534 -0.377926
0.187204 -0.565031 -0.754442
-0.185746 -0.550605 -0.378406
0.211766 0.583708 0.392333
0.584624 0.165901 -0.387188
0.580814 -0.562388 -0.379505
-0.180557 -0.169771 0.775756
-0.186686 0.556642 0.029177
0.571754 -0.606204 0.386326
0.569344 0.559455 -0.002362
0.210253 0.582661 -0.378364
-0.574469 -0.556537 -0.007688
0.211515 0.583516 -0.378102
0.211311 0.583596 0.392236
0.578776 -0.563415 -0.377978
0.186119 -0.565210 -0.754660
0.559666 -0.178245 -0.775824
0.572473 -0.607764 0.386541
0.203171 -0.567750 0.010465
-0.175413 0.594478 0.785197
0.583480 0.165959 -0.386147
-0.564540 -0.183801 0.371424
-0.586702 0.185678 -0.778090
0.187987 -0.564935 -0.753941
-0.179549 -0.170904 0.775209
0.176478 0.194764 -0.745105
0.210773 0.583434 0.392387
-0.563871 -0.179286 -0.413719
-0.187563 0.560047 0.028844
-0.184028 -0.204046 -0.794805
-0.210694 -0.565109 0.357362
-0.580194 0.556721 0.409971
-0.185890 0.558934 0.029361
0.572115 -0.607723 0.384855
0.202713 -0.569533 0.011048
0.211762 0.584821 0.390240
0.567214 0.558900 -0.003711
-0.203696 0.564728 -0.751282
0.573630 -0.606219 0.389053
-0.184525 -0.203386 -0.793493
0.567525 0.559838 -0.002477
0.198121 0.210214 0.769626
0.568365 0.561661 -0.002563
0.586589 -0.192900 0.025679
-0.182447 -0.203852 -0.793310
-0.210602 -0.565393 0.354810
0.175577 0.195913 -0.746281
0.199741 0.209179 0.768634
-0.587301 0.173517 -0.004497
-0.572604 0.163248 0.748026
0.199195 0.209144 0.769084
-0.208322 -0.563221 0.358714
0.583501 0.164846 -0.386778
-0.588495 0.173644 -0.004177
-0.566225 -0.183118 0.371038
-0.586766 0.172133 -0.004301
0.584830 0.166516 -0.387014
0.559268 -0.180027 -0.777173
0.570823 0.207154 0.380396
-0.572322 0.162670 0.746393
-0.186315 0.558477 0.030421
0.176221 -0.563812 0.743759
0.202636 -0.570966 0.010960
0.571826 -0.606825 0.387069
-0.581429 0.549446 -0.370840
-0.181784 -0.171754 0.776598
-0.185531 -0.552194 -0.378604
-0.588631 0.186037 -0.778372
-0.567061 -0.183917 0.371390
0.568226 0.560838 -0.003999
-0.186925 0.558191 0.028488
0.553233 -0.199704 0.739742
0.580758 -0.563793 -0.379838
-0.179029 -0.171372 0.775053
0.176062 -0.564741 0.746734
-0.586853 0.171347 -0.004151
0.208753 0.584377 0.392511
-0.174802 0.593013 0.785666
0.582284 0.164965 -0.386720
-0.587262 0.186490 -0.780286
0.568901 0.559661 -0.003105
0.174710 0.195747 -0.747695
0.203334 -0.570839 0.009802
-0.575521 -0.558765 -0.009864
-0.183312 -0.551267 -0.378639
-0.587379 0.185260 -0.778693
-0.564850 -0.178473 -0.415445
0.570309 0.207108 0.381280
-0.180336 -0.169481 0.775134
-0.183645 -0.203320 -0.793476
0.210175 0.583393 0.393710
0.559038 -0.180438 -0.775035
0.586831 -0.191131 0.025648
0.561198 -0.178840 -0.775183
-0.574605 -0.557307 -0.009196
-0.176546 0.593090 0.786848
-0.178335 -0.169678 0.777087
0.211082 0.582102 -0.378742
-0.208394 -0.565389 0.357320
-0.182752 -0.202993 -0.793322
-0.590006 0.173468 -0.003247
-0.580886 0.548538 -0.371145
-0.572844 0.162110 0.747424
0.570566 0.207648 0.381346
0.552755 -0.199613 0.741164
0.587588 -0.192491 0.026613
-0.174977 0.593283 0.786988
0.552674 -0.199970 0.743743
-0.565125 -0.176263 -0.414474
0.199741 0.208081 0.768783
-0.588029 0.172675 -0.002922
-0.575281 -0.556784 -0.008049
0.569860 0.206696 0.380753
0.587765 -0.191408 0.025764
0.552337 -0.201441 0.739982
