OFF
256 0 0
-0.316074 -0.417504 -0.475905
0.042109 -0.771117 -0.499442
0.427839 -0.412211 -0.479919
-0.672592 -0.420568 -0.134287
0.042363 0.295313 0.611720
0.434458 0.709937 -0.125368
-0.697669 0.314183 0.627029
-0.665606 -0.065051 -0.515263
0.432345 0.325692 -0.499433
0.773969 -0.041811 0.227649
0.773171 -0.042711 0.226170
-0.333857 -0.043165 0.612253
-0.671725 -0.042585 0.233317
0.426838 -0.410768 -0.480224
0.051251 0.673809 0.222334
0.041421 0.677708 -0.479181
0.043354 -0.771709 -0.499958
0.810796 -0.411959 -0.119964
0.041760 0.678078 -0.481022
-0.675208 -0.420217 -0.136310
0.411164 0.310000 0.220468
0.042379 -0.770481 -0.500403
-0.337334 -0.801137 -0.156341
0.043453 -0.771681 -0.499688
0.035724 -0.773001 0.250172
0.810406 -0.410829 -0.122359
-0.672324 -0.420418 -0.135829
0.400979 -0.395139 0.240955
0.051088 -0.402347 0.616359
0.432060 0.709242 -0.126522
0.432821 0.326985 -0.501864
0.050848 -0.402733 0.618243
0.426778 -0.411142 -0.478721
0.772967 0.318072 -0.139185
0.426775 -0.411954 -0.478284
0.052182 -0.402344 0.618918
0.809403 -0.411147 -0.122954
0.056217 0.004729 -0.486040
0.773891 -0.042452 0.226293
-0.666625 -0.063866 -0.516186
-0.337506 -0.799404 -0.157575
0.431893 0.327339 -0.500582
0.055452 0.006561 -0.485544
0.785073 -0.049399 -0.511868
0.041151 0.676041 -0.479926
-0.335110 -0.800747 -0.156804
-0.674455 -0.419986 -0.138056
0.043001 -0.771085 -0.500478
-0.691708 0.314233 -0.129143
-0.303292 0.683908 0.597106
0.034655 -0.774016 0.250324
0.809004 -0.411565 -0.122025
0.410687 -0.801952 -0.130945
-0.690263 0.312180 -0.127480
-0.315465 -0.423600 0.225536
-0.345825 0.339415 -0.504021
-0.664802 -0.063443 -0.516903
0.811718 -0.410920 -0.122022
-0.340300 0.696820 -0.144942
0.808247 -0.412969 -0.122274
-0.303903 0.684614 0.596586
0.056341 0.004791 -0.485643
-0.336741 -0.796953 -0.157777
-0.690530 0.312802 -0.129256
0.432840 0.708780 -0.127966
0.400691 -0.394266 0.242029
-0.339586 0.697376 -0.146429
0.042524 0.677818 -0.479580
0.041906 -0.770956 -0.500492
-0.344389 0.338128 -0.504911
-0.334758 -0.043306 0.611149
0.053806 0.005259 -0.485947
0.772716 -0.043708 0.225375
0.412459 0.308487 0.221427
-0.339292 0.695859 -0.146750
0.035662 -0.774912 0.250764
-0.689908 0.312762 -0.127892
0.413584 0.308866 0.219557
0.403790 -0.394017 0.240773
-0.304894 0.684547 0.596136
-0.673913 -0.421312 -0.135175
0.412735 -0.802544 -0.128442
0.050231 0.672559 0.222122
0.433098 0.325814 -0.500913
-0.336696 -0.801998 -0.158376
0.036551 -0.775729 0.252218
0.433887 0.329204 -0.500708
0.810142 -0.411874 -0.122250
-0.700946 0.677002 0.231813
0.434790 0.327689 -0.500562
-0.334080 -0.044015 0.609025
-0.664944 -0.064346 -0.517234
0.771220 0.318769 -0.140226
-0.673449 -0.420084 -0.135567
-0.696838 0.314453 0.628974
-0.340011 0.697059 -0.147166
-0.341785 0.695168 -0.145698
-0.304473 0.685894 0.597043
-0.665387 -0.064119 -0.515916
-0.673138 -0.041838 0.232873
0.040484 0.675844 -0.477973
-0.316594 -0.422485 0.224941
0.038865 0.678506 -0.480152
0.411717 -0.802346 -0.130908
0.809810 -0.409565 -0.122359
0.432529 0.711752 -0.128209
0.415597 0.312513 0.221900
-0.304167 0.685306 0.596946
0.773133 0.316151 -0.139243
0.055566 0.006495 -0.484336
0.041379 0.677754 -0.479622
0.049634 0.673587 0.220520
-0.692651 0.314586 -0.130503
-0.665473 -0.063044 -0.515593
-0.335458 -0.801197 -0.157342
0.420063 -0.061652 0.621017
-0.692904 0.311988 -0.128136
-0.671888 -0.040203 0.232149
0.808221 -0.412522 -0.121375
-0.699209 0.313799 0.628354
-0.673711 -0.420617 -0.134417
0.402339 -0.395909 0.242490
-0.338094 -0.799082 -0.157237
0.432492 0.709330 -0.126267
-0.334427 -0.042193 0.610180
-0.314338 -0.417607 -0.474382
0.434568 0.709417 -0.123945
-0.337621 0.695688 -0.145770
0.419509 -0.061516 0.620985
0.052135 0.673406 0.220565
0.040892 0.677678 -0.480779
-0.313274 -0.416381 -0.476387
-0.315299 -0.422884 0.223172
-0.335320 -0.043727 0.608672
-0.314783 -0.415746 -0.474955
0.401908 -0.393269 0.241971
0.050807 0.671397 0.222912
0.773350 0.318543 -0.140682
-0.336055 -0.801890 -0.157391
0.055331 0.005788 -0.485296
-0.699136 0.313918 0.628695
0.428345 -0.412779 -0.479621
0.418805 -0.060107 0.620720
-0.674056 -0.419701 -0.136924
-0.673431 -0.041337 0.232677
0.771899 -0.042460 0.224592
0.411352 -0.801165 -0.128395
0.041845 -0.770555 -0.497987
-0.674292 -0.419140 -0.136004
0.811056 -0.410517 -0.122282
0.432373 0.709387 -0.125917
-0.316365 -0.423401 0.224478
-0.690188 0.314483 -0.129703
-0.664211 -0.064690 -0.515871
0.433488 0.324970 -0.499679
-0.672187 -0.420868 -0.135264
0.786106 -0.049038 -0.512128
0.043003 0.293131 0.611661
0.434060 0.327867 -0.500934
0.785793 -0.051134 -0.512423
-0.316544 -0.423971 0.225554
-0.332866 -0.043886 0.612521
0.054493 0.003658 -0.486529
-0.337544 -0.799621 -0.156803
-0.332627 -0.044631 0.612062
-0.314360 -0.418348 -0.473290
-0.700961 0.675168 0.232399
-0.673793 -0.420532 -0.134449
0.042610 0.293798 0.610256
-0.698957 0.313669 0.628529
0.426169 -0.411483 -0.479022
0.784794 -0.051558 -0.512318
0.035021 -0.773798 0.249801
-0.692912 0.316195 -0.129551
0.433115 0.710752 -0.125591
0.402021 -0.396648 0.243048
-0.666384 -0.063997 -0.517911
-0.339880 0.695310 -0.146890
0.051181 0.672656 0.223191
-0.305286 0.683438 0.599061
0.041529 -0.770976 -0.497951
-0.673308 -0.418662 -0.134356
-0.338111 -0.798966 -0.156018
-0.316948 -0.423757 0.227293
0.401611 -0.395615 0.240871
-0.672095 -0.042753 0.233466
0.420576 -0.062108 0.621283
-0.671422 -0.040655 0.233558
0.772657 0.318419 -0.138679
0.419268 -0.061907 0.619556
0.042520 -0.770214 -0.499830
-0.345439 0.338682 -0.505565
-0.313387 -0.423579 0.224185
0.786278 -0.048928 -0.512179
-0.314427 -0.425245 0.225627
0.048933 0.674959 0.223603
0.044838 0.293951 0.608139
0.412201 -0.800281 -0.129902
0.433345 0.709348 -0.127389
-0.339306 0.696384 -0.147399
0.410114 0.310775 0.221956
-0.698660 0.673117 0.230395
0.431004 0.325577 -0.502084
0.412491 0.309923 0.220704
0.785386 -0.049693 -0.513302
0.772661 -0.042710 0.227516
-0.315566 -0.423531 0.225858
-0.332257 -0.043111 0.610524
-0.305419 0.684230 0.597661
-0.341129 0.696780 -0.147145
-0.664744 -0.064958 -0.515205
0.433717 0.326813 -0.499790
0.041591 -0.770032 -0.499948
-0.697860 0.314443 0.630695
-0.665205 -0.064910 -0.516799
-0.674160 -0.420453 -0.134881
0.049939 -0.401461 0.619794
0.402071 -0.394160 0.242363
-0.316284 -0.422439 0.224513
0.772042 0.315967 -0.139309
0.400774 -0.394148 0.244065
-0.663516 -0.064752 -0.515736
-0.674148 -0.420358 -0.134676
0.040778 0.677850 -0.479131
0.431722 0.710092 -0.126229
0.050845 0.673279 0.222040
-0.340279 0.695325 -0.147324
-0.304815 0.684650 0.598361
0.040170 0.679151 -0.479802
0.400142 -0.395722 0.241914
0.784203 -0.051685 -0.512738
-0.316591 -0.417377 -0.473768
-0.305449 0.684884 0.598029
0.426140 -0.411634 -0.478779
-0.675036 -0.041539 0.231770
-0.692159 0.316123 -0.129859
0.418990 -0.060800 0.620754
0.034445 -0.774246 0.251761
0.434184 0.327961 -0.499786
0.042807 0.292481 0.610678
-0.700416 0.673458 0.231484
0.810767 -0.411409 -0.122297
-0.690833 0.312982 -0.129095
-0.337734 -0.801430 -0.156819
0.049863 0.673573 0.221872
-0.675581 -0.420567 -0.135837
-0.698987 0.675056 0.233798
-0.315101 -0.418324 -0.476085
0.426548 -0.412186 -0.480402
0.772105 -0.043229 0.228380
-0.671574 -0.419254 -0.136278
0.044104 0.291203 0.608062
-0.690587 0.312522 -0.129172
0.049816 -0.402060 0.616979
0.426183 -0.411704 -0.478334
0.431838 0.708973 -0.125198
