OFF
256 0 0
0.397229 -0.392130 0.250622
0.793991 -0.051879 -0.480620
-0.344293 -0.049862 0.602945
0.792333 -0.064812 0.240813
0.040577 0.360380 0.599890
-0.321574 0.315727 -0.511917
0.040760 0.358938 0.598722
-0.700362 0.323578 -0.148812
-0.701854 0.324091 -0.147782
-0.288992 -0.399115 0.201341
-0.333466 0.695074 0.582569
0.060814 0.694331 -0.501981
-0.317026 -0.427490 -0.491284
-0.288974 -0.399561 0.201301
-0.292766 -0.784466 -0.133412
0.067495 0.690539 0.223161
0.060926 0.694182 -0.500235
0.060450 0.694583 -0.501953
0.413808 -0.778034 -0.116351
0.427643 0.681506 -0.134601
-0.316852 -0.426181 -0.490891
-0.700600 0.326781 -0.148533
0.066783 0.691955 0.225011
-0.701413 0.325165 -0.148218
-0.343695 -0.050519 0.603968
0.062379 0.694274 -0.502338
0.409267 -0.052689 0.647342
0.414781 -0.407662 -0.486834
-0.329478 0.687277 -0.140805
0.067623 0.691934 0.225360
-0.705534 -0.422312 -0.121468
0.042588 -0.061166 -0.508583
-0.346147 -0.049020 0.605143
0.042856 -0.060976 -0.507116
-0.324319 0.315855 -0.514126
0.795312 -0.054412 -0.479075
0.805402 0.305637 -0.118204
0.413072 -0.406763 -0.488224
-0.293873 -0.783078 -0.133802
-0.696920 0.679201 0.221848
-0.712507 -0.066438 -0.497542
0.056789 -0.786255 0.219533
0.065298 -0.769096 -0.484993
-0.698227 0.680348 0.220443
0.392293 0.309084 -0.457853
-0.695968 -0.039889 0.216732
0.040699 -0.061637 -0.506579
0.059715 0.693912 -0.504733
0.067309 -0.769731 -0.485500
-0.317510 -0.425779 -0.492013
-0.331546 0.694629 0.584139
0.057403 -0.785748 0.220573
0.434623 0.321331 0.237947
0.040547 0.361633 0.597687
0.039552 -0.060572 -0.508909
0.066443 0.691050 0.226184
-0.700569 0.325737 -0.147598
0.392206 0.308243 -0.458967
0.057214 -0.785382 0.220454
0.409951 -0.055173 0.648724
0.432274 0.680963 -0.132863
0.067723 0.691612 0.224939
0.792037 -0.065982 0.239675
0.040327 -0.063728 -0.507199
-0.329239 0.686049 -0.141905
0.413573 -0.779475 -0.115476
-0.711674 -0.066949 -0.500804
0.791106 -0.064699 0.240204
-0.328262 0.686800 -0.140785
0.068103 -0.769029 -0.483702
0.792062 -0.063611 0.240419
-0.322970 0.318226 -0.514371
0.055945 -0.786912 0.220861
0.041169 -0.062723 -0.506503
0.782999 -0.426972 -0.105300
0.413469 -0.778894 -0.116416
0.407134 -0.053621 0.648684
-0.706352 -0.421524 -0.121870
-0.694905 0.313886 0.585845
-0.295596 -0.784145 -0.134186
0.041985 -0.063099 -0.507214
0.783985 -0.426652 -0.106089
-0.698495 0.325404 -0.147208
0.407431 -0.054781 0.648416
0.415987 -0.405863 -0.488103
-0.696641 0.680708 0.222244
0.429222 0.679915 -0.132764
-0.333254 0.692246 0.584707
0.435855 0.320982 0.238265
0.040979 -0.063277 -0.506511
0.791417 -0.064854 0.242573
0.783329 -0.429315 -0.107885
-0.293356 -0.785022 -0.133084
0.794551 -0.051664 -0.481568
-0.318121 -0.428012 -0.489778
0.434016 0.319564 0.236273
0.415163 -0.408255 -0.487904
0.040691 0.360383 0.598045
0.059295 0.694237 -0.501683
0.056401 -0.786606 0.220342
-0.712695 -0.067927 -0.499827
0.413515 -0.407786 -0.487054
0.413644 -0.779257 -0.115618
0.407040 -0.052309 0.648939
0.389927 0.306913 -0.460387
-0.330199 0.686329 -0.142134
0.807809 0.306693 -0.117593
-0.345521 -0.051732 0.604065
-0.328333 0.686417 -0.142360
0.042025 0.361182 0.598574
-0.318457 -0.426813 -0.490566
0.804847 0.305542 -0.117493
-0.321380 0.315238 -0.513020
0.409677 -0.053247 0.647836
-0.333801 0.693402 0.582388
0.039853 -0.060883 -0.508274
-0.713251 -0.066663 -0.498356
-0.344839 -0.049359 0.604549
-0.695541 0.316016 0.587427
-0.320834 0.317319 -0.512771
0.805573 0.305206 -0.116716
-0.294329 -0.784389 -0.133010
0.040541 0.360789 0.598287
-0.706263 -0.421239 -0.122798
-0.344917 -0.049112 0.605369
0.789964 -0.064545 0.241297
0.391650 0.308735 -0.457111
-0.714229 -0.066313 -0.499359
0.041673 -0.061255 -0.506666
0.794244 -0.052320 -0.480012
0.067056 -0.768595 -0.488346
-0.697344 0.679472 0.220372
-0.345561 -0.050423 0.605501
-0.331732 0.686354 -0.142157
-0.288936 -0.397471 0.201331
-0.713130 -0.065915 -0.499033
-0.343437 -0.049531 0.605333
-0.698843 0.681854 0.222501
-0.698271 0.680182 0.220718
0.397184 -0.393534 0.251425
0.397904 -0.392169 0.249996
-0.696050 0.316072 0.585478
-0.698128 0.680954 0.221719
0.429966 0.681348 -0.134193
-0.697388 -0.041506 0.216583
0.408841 -0.053199 0.648402
-0.321578 0.317656 -0.514264
-0.344882 -0.050725 0.605807
-0.695810 -0.039372 0.214136
-0.330787 0.686505 -0.142467
-0.287755 -0.399077 0.200699
0.041434 0.360550 0.598400
-0.715051 -0.066233 -0.500654
0.789830 -0.066657 0.241827
0.038858 0.361807 0.597339
0.436081 0.320281 0.238357
0.431727 0.680472 -0.133696
-0.705105 -0.421927 -0.122743
-0.321634 0.317527 -0.514323
0.041608 -0.063151 -0.507410
0.429179 0.679588 -0.134532
0.041656 -0.398877 0.611895
0.066013 0.690842 0.225592
0.792202 -0.064753 0.240168
-0.698059 0.681531 0.222028
-0.346672 -0.050105 0.604757
-0.699604 0.324469 -0.147163
0.791834 -0.065113 0.240116
0.059116 -0.785736 0.218549
0.429799 0.681107 -0.131813
0.392381 0.307517 -0.458668
0.055795 -0.785648 0.221103
0.060594 0.695154 -0.501666
0.397849 -0.391986 0.249059
-0.293524 -0.784672 -0.133868
0.056668 -0.787906 0.218948
-0.706924 -0.422607 -0.121799
0.412872 -0.779370 -0.114743
-0.288660 -0.399627 0.202006
0.409570 -0.054229 0.649501
0.427039 0.678563 -0.132821
0.067451 -0.768663 -0.486342
-0.290333 -0.399148 0.200774
-0.293412 -0.783853 -0.134264
-0.700963 0.325352 -0.148892
-0.292315 -0.783190 -0.133927
0.399250 -0.393924 0.251854
0.806688 0.304333 -0.119048
0.805604 0.307294 -0.118937
-0.344031 -0.049203 0.604587
0.067853 -0.768332 -0.485295
-0.292698 -0.782777 -0.135201
0.433626 0.321074 0.237994
0.066644 0.693594 0.221616
-0.323219 0.314638 -0.514751
-0.696366 0.315476 0.586078
0.783087 -0.428544 -0.105670
0.058520 0.696515 -0.499675
-0.700542 0.323750 -0.146541
0.806912 0.306163 -0.117867
0.408373 -0.054264 0.650655
0.806629 0.307723 -0.117362
0.393323 0.307865 -0.457045
-0.293745 -0.785125 -0.132910
0.066991 -0.769314 -0.487785
0.066934 -0.768340 -0.486791
0.041807 0.360779 0.598365
0.782480 -0.429560 -0.106869
-0.322769 0.317125 -0.514593
0.430751 0.678429 -0.135215
-0.707341 -0.421279 -0.120446
-0.699145 0.325336 -0.146962
-0.712990 -0.065688 -0.498156
0.414841 -0.405785 -0.488015
0.431409 0.679885 -0.133520
0.793890 -0.052556 -0.480151
0.042039 -0.061089 -0.508141
-0.332805 0.693836 0.583810
0.069874 0.691623 0.223706
-0.712736 -0.066180 -0.498059
-0.699779 0.325129 -0.147284
-0.288294 -0.399602 0.200551
0.068446 0.693309 0.224161
0.390700 0.306978 -0.458782
0.058625 -0.785855 0.219405
0.436979 0.321002 0.236933
-0.343312 -0.049893 0.604114
0.429616 0.679952 -0.131572
0.794573 -0.049808 -0.479128
0.412360 -0.778271 -0.116357
0.408400 -0.050859 0.647266
0.408555 -0.053436 0.647225
-0.292690 -0.782759 -0.133981
-0.331175 0.685421 -0.141363
0.059454 0.695580 -0.502600
-0.707101 -0.421090 -0.122257
-0.706515 -0.422410 -0.121820
-0.694592 0.316995 0.587699
0.782472 -0.429344 -0.108392
0.065501 0.691681 0.223577
-0.706582 -0.420241 -0.120633
0.782623 -0.427864 -0.108367
0.041807 0.360202 0.597333
-0.294041 -0.783165 -0.132881
0.065801 -0.770093 -0.488272
-0.706384 -0.422325 -0.122198
0.408906 -0.054013 0.647707
0.804641 0.307392 -0.117548
0.056783 -0.785871 0.220981
0.794959 -0.053530 -0.478987
0.042448 -0.397022 0.610279
-0.713393 -0.064621 -0.499238
-0.701721 0.323292 -0.148659
0.805748 0.305009 -0.116292
0.041584 -0.063473 -0.507912
0.409482 -0.052366 0.647716
