OFF
256 0 0
-0.895372 0.447591 0.001455
-0.447201 -0.000301 0.892835
0.000835 0.447784 0.896555
0.000089 -0.895984 0.447712
-0.893920 0.446895 0.000392
-0.001571 -0.446824 0.895007
-0.447438 -0.000984 0.895002
-0.894557 0.447636 0.000735
-0.000319 0.446029 0.897234
-0.447758 0.448929 0.445284
0.447535 -0.446579 0.445568
-0.447018 0.447768 0.447197
-0.000383 -0.447830 0.893180
-0.447900 -0.000987 0.893783
-0.447577 0.894254 -0.000228
-0.000697 -0.446802 -0.895396
-0.448144 0.893519 -0.000809
-0.447903 0.447396 0.447763
0.447458 -0.448876 -0.445746
-0.001145 -0.447834 -0.895515
-0.445248 0.447595 -0.446815
-0.446499 -0.447560 -0.446411
-0.448662 -0.892773 -0.000266
-0.447289 -0.448546 0.447501
-0.446161 0.446648 -0.448732
0.000028 -0.447559 -0.893080
-0.000472 0.892700 -0.449393
0.447170 0.448633 -0.446311
-0.000382 0.893820 0.448373
-0.448125 0.000618 0.894948
0.447698 0.448022 0.449424
0.445873 0.001702 -0.894695
0.446082 -0.000014 -0.893900
-0.447937 -0.893615 -0.001614
-0.000207 0.893591 0.445998
-0.447770 -0.447480 0.447469
0.000113 0.894547 0.446867
0.895558 0.448497 -0.000689
0.445146 -0.894548 -0.001069
0.445987 0.894050 0.000051
-0.000685 0.446532 0.894281
0.447204 -0.447907 0.446618
-0.447464 0.894465 0.000533
-0.447862 -0.446093 0.447980
-0.445257 0.000450 -0.894090
0.000158 -0.447091 0.894165
-0.895021 -0.000087 -0.447921
-0.001608 0.445724 -0.894034
-0.445616 0.896057 0.000916
-0.000764 0.447846 0.894497
-0.446027 -0.448377 0.447329
0.000320 0.894088 0.446988
-0.448246 0.894260 0.000793
-0.445893 -0.000448 -0.893851
0.894198 0.000332 0.448069
0.894788 0.446770 0.000450
-0.893994 -0.000192 -0.446865
0.447013 0.448737 0.446489
0.450008 -0.000364 0.895281
-0.000635 0.446800 -0.892619
0.001557 -0.448318 -0.894573
-0.000869 0.893560 -0.447277
0.448151 0.446599 0.448718
-0.000802 0.447627 -0.897428
0.000637 -0.894777 -0.446965
0.892990 -0.000250 0.447479
0.446199 -0.446854 -0.446663
0.445385 -0.895653 0.000169
-0.000502 0.445974 -0.893525
0.000040 -0.893899 0.447542
-0.445716 -0.448875 0.446179
-0.000349 0.893126 0.446819
-0.000092 -0.894352 -0.447255
-0.895238 -0.446651 0.000738
-0.444510 0.000528 0.894090
0.001242 0.447746 0.894763
-0.447625 -0.448048 -0.446168
0.447843 -0.894206 0.000375
-0.446682 -0.894872 0.000024
0.893649 -0.447163 0.000041
0.894502 -0.000192 -0.446819
0.893316 -0.001629 -0.445171
0.447070 -0.448476 -0.447533
0.895108 0.446666 -0.001862
0.893503 0.000734 0.444706
-0.448579 0.001178 -0.894116
-0.447338 -0.447923 -0.447626
-0.002524 -0.447745 -0.894584
0.446958 0.447336 0.446520
-0.000285 0.447544 -0.894489
-0.000206 -0.448480 -0.892096
0.448444 -0.447515 -0.447120
-0.448074 -0.000615 -0.895454
-0.000574 0.447231 -0.895009
-0.000035 0.893635 0.446278
0.447209 -0.894670 0.000078
-0.000106 0.448363 0.893211
-0.447724 -0.894041 -0.000847
0.894995 -0.000437 0.449003
-0.447143 -0.894271 0.000788
0.446075 0.894477 -0.001146
0.447839 -0.895091 -0.001482
-0.446598 -0.894803 -0.000787
-0.000605 0.895437 0.446764
0.447893 0.445685 -0.447347
0.000140 -0.895673 0.449049
-0.447934 -0.446682 0.447519
0.446002 -0.894850 0.000815
0.893952 0.445831 0.000537
-0.447267 0.001059 -0.894971
0.446472 0.448054 -0.447709
0.000046 -0.894910 -0.447892
-0.893179 0.446485 -0.002243
-0.000347 -0.894323 0.445622
-0.001952 0.895107 -0.447890
-0.446639 -0.447927 -0.446053
-0.893833 0.448427 -0.000379
-0.000406 0.895060 -0.446971
-0.447415 0.446688 -0.447558
-0.894785 0.000930 -0.446444
0.001587 -0.893826 -0.446412
0.447455 0.894192 0.000374
0.001201 0.893614 -0.448209
0.000236 -0.446597 0.892958
0.448413 -0.893744 0.000292
-0.446022 -0.001118 -0.894285
0.001232 -0.446164 0.896449
-0.000239 -0.895319 -0.446774
-0.448766 -0.446515 0.447838
-0.447586 -0.893805 0.000150
-0.894174 0.002190 -0.446275
-0.000163 -0.445190 -0.894767
-0.447473 -0.000719 -0.896164
-0.000802 0.448153 -0.894017
0.447656 -0.448559 -0.448383
-0.000509 0.893520 -0.445211
-0.000899 0.447285 0.893368
0.446540 0.893793 -0.001009
-0.445726 0.449001 -0.448657
0.447824 0.893729 0.002288
-0.000547 0.446892 -0.895008
0.893714 -0.445342 -0.001366
0.447148 0.002216 -0.894451
-0.000596 0.447242 -0.894061
-0.893322 0.000529 -0.446900
-0.447896 -0.001015 0.892893
0.446731 -0.448060 0.447597
0.446679 -0.446885 0.446521
0.448221 -0.892444 -0.000390
-0.446860 0.446722 -0.447388
-0.895146 -0.001103 -0.447427
0.448784 0.446125 -0.446543
0.447082 -0.895045 0.001539
0.448011 -0.000460 -0.894253
0.447677 0.446881 -0.446898
0.000334 0.448109 0.894484
0.447228 -0.447632 -0.446692
0.447222 -0.001318 0.895721
-0.448707 0.445267 -0.444629
-0.002028 0.895009 -0.446731
0.446987 -0.447588 -0.445920
-0.000426 -0.894721 0.447955
0.001436 0.447929 0.893834
-0.000322 0.449434 -0.892983
-0.446991 0.895140 -0.001756
-0.448279 0.446905 0.446732
-0.894871 -0.449109 0.000062
0.445929 0.000514 0.897024
-0.001078 0.894438 -0.447683
0.448207 -0.893157 -0.000977
-0.000838 -0.894380 -0.448280
0.447066 -0.449321 0.447098
0.893996 -0.447343 0.000901
0.893180 -0.000809 0.447998
-0.893128 0.448392 0.000027
0.449985 -0.000096 0.896237
0.895288 0.448767 -0.000808
-0.894739 -0.000858 -0.446859
-0.447141 0.894748 -0.000228
0.893391 0.446682 -0.000055
-0.895763 -0.001094 0.446904
0.447395 -0.448062 0.445961
-0.445105 -0.894939 -0.001443
0.447770 0.893799 0.000101
0.446265 -0.445826 -0.446190
-0.446508 0.000454 0.894656
-0.000050 0.446207 0.894594
0.000390 -0.895069 -0.446392
0.448097 0.895277 0.000794
-0.445239 0.448068 -0.446722
0.447560 -0.895508 -0.000771
0.446430 -0.895465 0.001220
-0.447360 -0.447574 -0.448009
0.001043 0.895171 0.446959
0.447702 0.446184 -0.447824
0.895291 0.448791 0.000874
0.447827 -0.000808 -0.895301
0.001344 0.892916 -0.447696
-0.001163 -0.894578 -0.447499
-0.000335 0.896355 -0.447345
-0.894246 -0.001181 0.446726
-0.448411 0.447515 0.447663
0.893906 0.448483 0.000180
0.894276 0.000142 0.449163
0.447087 -0.446221 0.447190
0.893439 -0.447225 -0.000107
-0.894145 -0.446652 0.000491
0.447139 0.448663 0.447898
0.000478 0.893186 -0.448531
-0.447003 0.894717 -0.000249
0.447606 -0.000331 0.892674
0.000095 0.445877 0.894299
0.001015 0.447381 -0.895662
0.000266 0.895602 -0.447590
0.893882 -0.447554 -0.000293
0.894593 -0.000087 0.445494
0.893651 -0.000372 -0.448600
0.446230 -0.447770 0.448625
0.447375 -0.446507 0.446798
-0.001066 0.895367 -0.444874
-0.449340 0.892912 0.000290
-0.446821 -0.447122 -0.446729
0.000664 0.446859 -0.893510
-0.893988 0.001098 0.446944
0.448385 0.895146 0.000297
0.000782 0.448463 -0.894433
0.448444 -0.000098 0.894634
0.000667 -0.446621 -0.895189
-0.446711 0.446323 0.448152
-0.894581 0.447409 -0.001136
-0.000910 -0.447068 0.895317
-0.445616 0.447183 0.447950
0.446110 0.895618 -0.001117
0.893361 -0.447103 0.000279
-0.894632 -0.000996 0.447042
-0.447080 -0.001156 -0.895055
-0.000696 0.446972 -0.893643
-0.446413 0.446904 0.447340
0.000342 -0.447697 0.894949
-0.447967 -0.893133 0.000893
0.895301 0.000077 0.447316
-0.445882 0.000859 -0.894924
-0.448430 0.896437 0.000020
-0.000068 0.893720 -0.447486
0.000082 -0.448711 -0.894406
0.893720 0.446805 0.000963
0.444860 0.893837 -0.000058
-0.894401 0.446465 0.000040
-0.000159 -0.892969 0.447904
-0.446982 -0.446890 0.447497
-0.000330 0.894927 -0.447098
-0.894564 -0.001125 -0.447376
0.447723 0.000028 0.894617
0.000547 0.894755 -0.447676
0.894485 0.446777 -0.000792
0.447343 0.894439 -0.000648
