OFF
256 0 0
-0.415976 0.214408 0.390116
-0.401554 -0.511465 -0.314698
-0.042669 -0.515227 0.784892
-0.036000 0.605090 -0.313342
0.706994 0.221833 0.037039
-0.788022 -0.490846 0.047851
0.302322 -0.126899 -0.697883
-0.045086 -0.496423 0.059338
-0.064566 0.242250 0.813311
-0.786234 0.216242 0.061162
0.305166 -0.126270 -0.697866
0.305422 -0.116330 0.810796
0.685701 0.236354 -0.687521
-0.036608 0.604884 -0.316983
-0.409119 -0.474040 0.391014
0.706462 0.222883 0.036553
0.335476 0.631995 -0.695794
0.288247 0.229676 0.393096
0.337877 -0.482237 0.455049
-0.415630 0.213730 0.391213
0.337401 0.617888 0.049099
0.318257 -0.518801 -0.346505
-0.035779 0.605416 -0.315482
0.334399 0.629851 -0.695242
-0.417349 0.214520 0.391363
-0.399573 -0.511377 -0.313815
-0.787879 -0.492943 0.048408
-0.788887 -0.491628 0.045788
-0.043511 -0.515324 0.787412
0.335455 -0.485081 0.456614
-0.047804 -0.493597 -0.702664
0.701247 -0.155930 -0.324844
0.706336 0.222435 0.037336
-0.041464 0.243656 -0.690722
-0.391510 -0.143247 0.773897
-0.426976 -0.131029 -0.688483
-0.412451 0.242225 -0.294946
0.305937 -0.114202 0.812864
0.319145 -0.518649 -0.346681
0.702968 -0.155192 -0.324739
-0.390546 -0.145175 0.773124
-0.787044 -0.492378 0.048404
0.288462 0.228711 0.390639
-0.414293 0.213612 0.391019
0.287481 0.229656 0.393800
0.670629 -0.492054 0.047877
0.700359 -0.154804 -0.327491
-0.409915 -0.475541 0.390430
0.320421 -0.519428 -0.345160
-0.414936 0.242719 -0.294086
0.337191 -0.481687 0.457232
0.287406 0.228978 0.394384
0.685536 0.607530 -0.309370
-0.045994 0.612802 0.397391
-0.416230 0.212653 0.391963
0.673705 -0.491574 0.048040
0.306792 -0.114034 0.810878
-0.045191 -0.496940 0.058854
0.304610 -0.124389 -0.697380
-0.415925 0.212830 0.390420
0.691871 -0.123585 0.451500
0.693161 -0.123958 0.451765
-0.063505 0.241372 0.813214
-0.389475 -0.145211 0.775161
0.336176 -0.481543 0.458229
0.334269 0.630960 -0.697028
-0.392044 -0.143042 0.776153
-0.788414 0.214201 0.060020
-0.400631 -0.510599 -0.314948
0.304673 -0.125868 -0.698044
0.682557 0.606642 -0.308433
0.337530 -0.484679 0.454677
0.691116 -0.124108 0.450040
-0.410149 -0.474275 0.388926
-0.770229 -0.127136 -0.343886
0.682759 0.607760 -0.308236
0.671790 -0.490833 0.046164
-0.429484 -0.129138 -0.687485
-0.430192 -0.130922 -0.688774
-0.049063 -0.494126 -0.703592
-0.427902 -0.129809 -0.688729
-0.413707 0.239737 -0.293952
-0.042492 0.244536 -0.692772
0.706388 0.222509 0.038444
-0.041817 -0.514926 0.785904
0.305956 -0.127294 -0.699209
0.304232 -0.126438 -0.698324
0.287613 0.227550 0.391995
0.686246 0.233757 -0.687935
0.337188 0.616524 0.046587
-0.047741 -0.491674 -0.702999
-0.064070 0.241762 0.814152
0.683240 0.607231 -0.309968
0.337326 0.629067 -0.697141
0.685178 0.607952 -0.309555
0.304435 -0.114095 0.809356
-0.044373 -0.515605 0.785493
-0.044290 -0.516516 0.784128
-0.792147 -0.132123 0.421613
-0.034021 0.606401 -0.315486
-0.043522 -0.515901 0.785914
-0.409582 -0.472304 0.389402
-0.787350 0.215574 0.059567
0.672004 -0.491253 0.047785
-0.442275 0.617096 0.031328
-0.035404 0.606180 -0.314866
0.289033 0.229324 0.392656
-0.046986 -0.494770 0.058906
-0.443423 0.617270 0.033269
0.702751 -0.154335 -0.324469
0.334849 0.631424 -0.698169
-0.391080 -0.144199 0.776644
0.305160 -0.115541 0.811009
0.317828 -0.521101 -0.347445
-0.045806 -0.491706 -0.704389
-0.429295 -0.129923 -0.688921
-0.042225 0.246183 -0.690137
-0.400086 -0.510592 -0.314027
-0.415145 0.242009 -0.293855
-0.399887 -0.511721 -0.313266
0.671826 -0.489183 0.047558
-0.400803 -0.512266 -0.316619
-0.041990 -0.517610 0.785930
-0.770416 -0.126076 -0.344569
-0.415021 0.213905 0.392272
-0.412342 0.241922 -0.293839
-0.390709 -0.144654 0.774251
-0.046689 -0.491656 -0.705047
0.318737 -0.517517 -0.345458
-0.046038 0.613305 0.397101
-0.401418 -0.512281 -0.314539
-0.428449 -0.128706 -0.687825
0.703912 0.224878 0.039134
-0.772739 -0.127878 -0.344358
0.337515 -0.483271 0.455832
-0.428439 -0.128635 -0.688542
0.304709 -0.124463 -0.700448
0.338610 0.615420 0.047176
0.684141 0.608106 -0.310748
0.671964 -0.490802 0.046481
0.692053 -0.124498 0.450291
-0.048134 -0.492888 -0.701675
-0.047577 -0.492382 -0.703525
-0.441224 0.617956 0.031499
-0.400793 -0.512317 -0.315681
-0.044867 -0.496841 0.058626
-0.412296 0.241113 -0.294974
0.686707 0.234787 -0.686733
-0.063034 0.238803 0.811743
-0.047319 -0.492930 -0.703369
-0.416962 0.212984 0.389063
-0.789434 0.216353 0.059026
-0.399903 -0.510193 -0.314434
-0.045839 -0.497241 0.057614
-0.795712 -0.130867 0.421125
0.672886 -0.490143 0.046310
-0.045766 -0.497301 0.058514
0.686152 0.235418 -0.687942
-0.046065 -0.497004 0.057110
-0.413346 0.242024 -0.293164
0.674314 -0.491306 0.046485
-0.414043 0.240332 -0.293995
-0.045299 0.613698 0.396638
0.306381 -0.115094 0.812093
0.336533 0.630060 -0.697332
0.671693 -0.492267 0.045691
-0.412960 0.241625 -0.294618
-0.048012 0.613330 0.396894
-0.042592 -0.516590 0.784677
-0.409665 -0.474490 0.388250
-0.444279 0.617746 0.030421
0.319239 -0.521682 -0.344534
-0.416459 0.214664 0.392490
0.287451 0.228485 0.394275
-0.045154 -0.497203 0.060310
0.688096 0.235842 -0.687437
-0.040939 0.245810 -0.693592
0.706905 0.223531 0.038299
-0.409411 -0.475497 0.388888
-0.795932 -0.132116 0.422192
-0.046336 0.611982 0.397244
-0.043211 -0.515805 0.786658
0.321306 -0.519407 -0.346430
0.704065 0.223339 0.038341
-0.790207 0.216353 0.060319
-0.034595 0.603975 -0.314387
0.337518 0.630193 -0.694909
-0.045887 -0.492419 -0.703282
-0.772308 -0.125249 -0.345436
-0.411140 -0.475365 0.391005
0.684650 0.607990 -0.313068
-0.795205 -0.132085 0.422254
-0.046098 0.611465 0.397306
-0.065094 0.241329 0.813163
-0.040991 -0.516079 0.785145
-0.787938 0.215129 0.060084
-0.041961 -0.515227 0.784802
0.336863 0.630784 -0.697124
-0.787467 -0.492319 0.047550
-0.065069 0.241385 0.813202
0.705531 0.222555 0.038334
-0.772624 -0.124909 -0.344415
0.337717 0.615597 0.047396
0.336345 0.618293 0.048542
0.304861 -0.125948 -0.697622
-0.409718 -0.474126 0.391566
-0.391015 -0.143545 0.775448
0.691586 -0.122834 0.452943
0.318960 -0.518443 -0.344382
0.286772 0.227900 0.393192
0.684831 0.608223 -0.310309
-0.062140 0.238699 0.813659
0.320697 -0.520610 -0.344343
-0.443038 0.615982 0.031293
0.703904 -0.153272 -0.326271
-0.413535 0.239630 -0.294770
-0.034438 0.605478 -0.315173
0.672112 -0.490630 0.046595
0.702022 -0.155709 -0.326479
-0.787208 0.214682 0.058355
-0.415669 0.213069 0.390623
-0.391829 -0.144358 0.775705
-0.409349 -0.474276 0.389130
-0.034334 0.606125 -0.317035
-0.795254 -0.133141 0.421365
0.319495 -0.520412 -0.347706
-0.789924 0.214650 0.059466
-0.788501 0.214642 0.059236
0.673720 -0.493299 0.048251
0.318382 -0.519587 -0.345342
-0.771071 -0.125652 -0.347455
0.702213 -0.155510 -0.324726
0.336205 -0.483144 0.457238
-0.772138 -0.125198 -0.347052
-0.048566 0.614037 0.396733
-0.046355 -0.492892 -0.703175
-0.064342 0.239528 0.815332
0.690256 -0.125223 0.450537
0.304673 -0.116984 0.810546
0.286499 0.228253 0.391894
-0.401436 -0.511812 -0.316138
0.336086 0.630359 -0.695541
-0.430152 -0.127907 -0.688042
-0.416801 0.213360 0.393630
-0.408049 -0.476634 0.389038
0.304924 -0.115338 0.809657
-0.442832 0.617882 0.030340
0.303218 -0.126146 -0.696443
0.335842 -0.484234 0.454812
0.685023 0.606282 -0.310560
-0.047663 -0.492064 -0.703341
-0.044609 -0.497119 0.057348
-0.035969 0.605587 -0.315445
-0.044489 -0.497060 0.059341
-0.042652 0.244755 -0.689693
0.683753 0.607346 -0.308287
