OFF
256 0 0
0.308507 -0.513936 -0.308951
-0.046284 0.249583 0.795296
-0.058594 -0.496761 -0.703649
0.330303 -0.534608 0.416005
-0.441832 -0.486301 0.414985
-0.793357 0.233902 0.024037
-0.806386 -0.112204 0.419642
-0.404631 0.240362 -0.354882
0.674531 -0.138078 -0.313748
0.728900 0.220808 0.054651
-0.799848 -0.488408 0.032838
0.307034 -0.516629 -0.308912
0.329519 -0.533957 0.414464
0.687685 -0.143085 0.413251
-0.038217 0.627990 0.432074
-0.390685 0.207936 0.400945
-0.057648 -0.498221 -0.706684
0.327004 0.588449 0.050647
0.701897 -0.512921 0.072154
0.324634 0.586483 0.050754
-0.391301 0.208014 0.401554
-0.038114 0.627076 0.433961
0.307071 -0.514738 -0.309758
-0.059136 -0.503248 0.070403
-0.439301 -0.488339 0.414077
-0.044313 0.606397 -0.326370
-0.802762 -0.487672 0.033801
-0.051137 -0.486622 0.764266
0.308147 -0.516530 -0.309013
-0.403696 -0.123411 -0.704130
-0.058908 -0.501664 0.071725
0.316338 -0.140473 0.784112
-0.419189 -0.498214 -0.324170
0.307001 -0.515804 -0.308562
-0.400254 0.621949 0.071078
-0.038200 0.627045 0.430714
-0.404494 0.242737 -0.355508
0.696705 0.245101 -0.674399
0.330250 -0.533207 0.416557
-0.037560 0.627324 0.430217
-0.050867 -0.484299 0.764114
-0.046987 0.250835 0.793091
-0.037642 0.626663 0.431662
-0.058646 -0.498439 -0.704191
-0.047386 0.250360 0.795352
-0.800467 -0.485051 0.032264
0.329207 -0.533206 0.416397
-0.036658 0.627040 0.432752
-0.404944 0.242314 -0.354047
-0.399460 0.622068 0.070190
-0.411613 -0.130285 0.801269
0.696703 0.244846 -0.673397
0.674668 -0.135501 -0.311694
0.307732 -0.515066 -0.310884
-0.803253 -0.488296 0.032908
-0.790947 0.230561 0.025461
0.703792 -0.511997 0.070998
-0.046156 0.609154 -0.326438
0.696499 0.598464 -0.327225
-0.051757 0.236661 -0.728730
0.308358 -0.515069 -0.311056
-0.060023 -0.502968 0.071708
0.327528 0.265675 0.433631
-0.047270 0.252200 0.794239
-0.802065 -0.486547 0.034567
-0.048352 0.237728 -0.728224
0.701756 -0.510768 0.072081
-0.045692 0.605930 -0.327060
0.697330 0.595168 -0.326084
0.327105 0.586581 0.049277
0.696996 0.596652 -0.327486
0.728753 0.221689 0.052699
0.308249 -0.516491 -0.309111
0.315696 -0.140966 0.784379
-0.049491 -0.485948 0.762822
0.698724 0.241744 -0.672407
-0.398416 0.622240 0.071097
-0.803879 -0.487681 0.032296
-0.792885 0.233654 0.024920
-0.398091 0.620656 0.071015
0.697285 0.598684 -0.326562
0.329761 -0.535219 0.417638
-0.807334 -0.112850 0.419962
-0.418953 -0.498213 -0.323471
-0.441227 -0.487787 0.415439
0.330072 -0.534493 0.418168
-0.391222 0.208118 0.401761
-0.403856 -0.124974 -0.702682
-0.045497 0.251872 0.793160
-0.398529 0.620639 0.071073
-0.803533 -0.487517 0.032157
-0.807904 -0.113360 0.420943
-0.049870 -0.486793 0.763046
0.697124 0.598275 -0.327354
-0.042201 0.608711 -0.325036
-0.398944 0.620632 0.070308
-0.412756 -0.132191 0.802950
-0.059483 -0.502994 0.070113
0.327515 0.585116 0.051683
-0.413274 -0.130488 0.804768
-0.048340 0.250331 0.794362
-0.802177 -0.486435 0.033025
-0.806679 -0.112556 0.420748
0.700895 -0.511427 0.071692
-0.398988 0.622488 0.070495
0.324115 0.587747 0.051899
-0.059962 -0.502183 0.073187
-0.044698 0.607289 -0.326999
-0.442518 -0.486358 0.413148
0.704159 -0.512465 0.072222
-0.414713 -0.130747 0.802876
-0.050388 -0.484267 0.762217
0.674609 -0.135934 -0.311045
-0.413492 -0.130506 0.803507
0.323875 0.263696 0.432943
0.313035 -0.139554 0.782279
0.325264 0.587388 0.048995
0.315576 -0.119666 -0.686110
0.702103 -0.510870 0.073155
0.314459 -0.117751 -0.688569
0.685183 -0.139807 0.415588
-0.050108 0.238368 -0.725472
0.310122 -0.517767 -0.308306
-0.440815 -0.486862 0.414392
0.287256 0.615334 -0.668272
-0.047861 0.251311 0.794766
-0.806609 -0.112712 0.420591
0.675371 -0.136201 -0.312629
-0.404520 0.241562 -0.353468
0.701698 -0.510920 0.071934
0.314682 -0.139500 0.783672
0.316537 -0.139909 0.785724
-0.413869 -0.130526 0.802758
0.315167 -0.117242 -0.685929
-0.049802 0.249770 0.793937
0.325883 0.587690 0.049674
-0.396711 0.620386 0.071273
0.329840 -0.532005 0.416357
-0.441785 -0.484586 0.411813
-0.059329 -0.504292 0.073038
-0.404733 0.241532 -0.354055
-0.413516 -0.131146 0.803367
-0.047294 0.248799 0.794591
-0.389853 0.207810 0.402501
-0.422349 -0.498302 -0.324359
-0.389208 0.208335 0.403162
0.674145 -0.137010 -0.312195
-0.043302 0.608721 -0.327266
0.288246 0.614443 -0.668439
-0.390397 0.207175 0.400362
0.330154 -0.534661 0.418035
-0.800913 -0.486930 0.033239
-0.059258 -0.497396 -0.705035
0.327413 0.587819 0.051588
-0.791129 0.234070 0.024524
-0.405305 -0.125024 -0.705503
-0.805332 -0.114218 0.419333
-0.045336 0.607786 -0.326751
0.326751 0.586995 0.050562
-0.039703 0.628376 0.431232
0.729738 0.220356 0.052176
-0.405230 0.241436 -0.353853
-0.802836 -0.486935 0.033687
-0.044765 0.610188 -0.327413
0.316032 -0.118773 -0.689082
-0.400268 0.621599 0.070211
-0.057655 -0.504315 0.071293
0.327079 0.265549 0.431786
-0.058394 -0.498766 -0.702599
0.329537 -0.533032 0.417317
-0.051111 0.235455 -0.727879
-0.043875 0.607478 -0.325022
0.326371 0.264228 0.434351
0.288695 0.614064 -0.668436
-0.779018 -0.125725 -0.331981
-0.440806 -0.485280 0.413878
-0.038285 0.628976 0.431627
-0.058998 -0.502786 0.071207
-0.778389 -0.126095 -0.332086
-0.778648 -0.125131 -0.331432
-0.058920 -0.502996 0.071610
0.326012 0.265265 0.433591
0.684601 -0.138851 0.416809
0.697682 0.243627 -0.674130
-0.441150 -0.485769 0.413261
-0.059003 -0.503321 0.071597
-0.037389 0.626562 0.431803
0.697468 0.595534 -0.327295
-0.790668 0.234522 0.024315
0.685844 -0.139219 0.416045
0.696291 0.596252 -0.326228
0.316144 -0.139847 0.785562
-0.045990 0.250334 0.794071
-0.778430 -0.125552 -0.332607
-0.412630 -0.130932 0.802065
0.698882 0.597391 -0.325266
0.314837 -0.117542 -0.688171
-0.059212 -0.502039 0.070745
-0.779912 -0.126578 -0.331676
0.325487 0.264673 0.434266
0.314550 -0.119124 -0.688220
-0.048330 0.252564 0.795079
0.330613 -0.532823 0.417497
-0.051441 -0.485255 0.761432
0.315945 -0.137598 0.782136
-0.399524 0.620795 0.072814
0.314058 -0.118198 -0.686832
-0.059043 -0.502248 0.071761
0.685388 -0.139919 0.414606
0.316256 -0.119028 -0.686945
0.675988 -0.137787 -0.311658
-0.398334 0.621024 0.071070
0.698330 0.595512 -0.325759
-0.405810 0.240979 -0.355404
-0.044073 0.607574 -0.326597
-0.390124 0.208182 0.401396
-0.050157 0.238082 -0.727864
0.696667 0.599238 -0.326456
-0.802643 -0.488802 0.031265
-0.047047 0.251218 0.797193
-0.057790 -0.499406 -0.703111
0.306757 -0.516566 -0.309826
0.703804 -0.511551 0.073898
-0.050012 0.236028 -0.725015
-0.439992 -0.486752 0.415045
0.699475 0.244218 -0.673791
-0.043887 0.609930 -0.326296
-0.060215 -0.503699 0.069932
-0.419064 -0.496274 -0.325303
-0.802014 -0.488790 0.032102
0.326579 0.584965 0.050510
0.702450 -0.511003 0.071544
-0.050922 0.235292 -0.727491
0.289545 0.613597 -0.667389
-0.400075 0.621076 0.071555
0.675132 -0.137401 -0.312747
0.316766 -0.140640 0.783645
-0.403196 -0.123967 -0.704290
-0.043097 0.606125 -0.327143
0.696526 0.597775 -0.329004
-0.403405 0.241000 -0.352763
-0.420750 -0.495424 -0.324489
-0.792400 0.234629 0.023950
-0.058945 -0.498555 -0.703210
-0.801853 -0.487241 0.031134
-0.044326 0.607334 -0.326595
-0.398201 0.621650 0.070732
0.315194 -0.141103 0.786330
-0.802414 -0.487636 0.032057
-0.037901 0.626128 0.431121
-0.048977 0.235387 -0.728291
0.701465 -0.511354 0.070674
-0.046571 0.251690 0.795770
-0.045087 0.250740 0.795505
-0.038741 0.628847 0.433282
0.325068 0.265738 0.431208
