OFF
256 0 0
0.782376 -0.131443 -0.412839
0.412941 0.236290 0.320630
0.415805 -0.130073 -0.781012
0.413540 -0.131555 0.688917
0.779536 0.235799 -0.048743
0.047118 -0.497268 0.688749
0.414715 0.236575 -0.415179
0.783036 -0.497086 -0.047075
0.415764 0.604007 -0.045896
0.046126 -0.498326 -0.047063
0.048993 0.605403 0.319874
0.046543 -0.496832 -0.782202
0.048188 -0.498592 -0.783865
-0.687198 -0.130305 0.319236
-0.320056 -0.127319 -0.780348
-0.320416 -0.129861 -0.781121
0.045827 -0.497219 -0.781875
0.781110 -0.129609 0.321376
0.781792 -0.496791 -0.047784
-0.686569 -0.129957 -0.413416
0.046331 -0.497262 -0.047414
-0.319446 -0.496514 0.319764
-0.687986 0.237700 -0.046564
-0.687993 -0.129136 -0.414557
-0.320152 -0.499323 -0.415526
0.415063 0.604823 -0.047567
0.783333 0.236217 -0.047537
0.413681 -0.129731 0.687550
0.415803 0.235490 0.319651
0.413954 0.234998 -0.415837
-0.319935 0.603954 -0.046524
0.413965 -0.130069 -0.781310
-0.688146 -0.130030 -0.414495
0.414182 -0.130223 -0.782572
0.046738 -0.497752 -0.781902
-0.685205 0.235944 0.687287
0.049592 -0.496855 -0.781159
0.049150 -0.497147 -0.046174
0.780188 0.240070 -0.048249
0.413900 0.238376 0.318403
0.048595 -0.498139 -0.780374
-0.321145 0.602964 -0.046895
0.416891 -0.128480 -0.782260
0.781378 -0.128512 0.320855
0.782166 0.237162 -0.047127
0.047855 0.236251 0.687919
-0.687431 -0.497626 -0.045708
0.048187 -0.495872 -0.781616
0.413104 -0.130910 0.687691
0.046998 0.236661 -0.782106
-0.319447 0.603773 -0.048301
0.414346 0.237039 0.318889
0.046710 -0.496599 0.686359
0.413756 -0.131485 -0.782869
-0.689123 -0.130242 -0.415504
-0.688331 -0.130174 0.319162
-0.319692 -0.130921 0.686008
-0.320136 -0.496824 0.321510
0.048453 0.603542 -0.415162
-0.318589 0.603897 -0.045316
0.781390 -0.497978 -0.048223
-0.687569 -0.497400 -0.047221
0.048083 0.238113 0.689382
0.048409 0.604587 0.322616
0.416251 0.234811 -0.414240
0.049524 -0.497786 -0.046907
-0.320262 -0.131217 0.686855
-0.319409 -0.131746 0.688145
0.782944 -0.499101 -0.045888
0.047753 -0.497168 -0.780952
0.414784 0.237847 -0.413454
0.047427 -0.497176 0.686929
0.413580 0.236198 0.319162
0.413482 -0.129943 0.687495
0.046679 0.605304 0.318909
-0.685961 0.237304 -0.046496
0.779908 -0.497729 -0.048786
-0.319679 0.604196 0.687197
-0.320384 -0.130634 -0.783310
0.046921 -0.496953 -0.046625
0.414848 -0.128756 0.686935
-0.319508 -0.499429 -0.413706
-0.686087 -0.496848 -0.046150
0.413825 0.604136 -0.048826
0.047562 0.604436 0.320078
0.415793 -0.497501 -0.416145
-0.686044 0.236323 -0.047986
-0.319278 -0.129089 0.687469
0.048492 0.605800 0.320810
0.781267 -0.499263 -0.046330
-0.687738 -0.129368 -0.413478
0.048176 -0.495981 -0.046755
-0.320527 -0.130592 0.687699
-0.684582 -0.131437 -0.414942
0.048148 0.605204 -0.414885
0.047865 0.237950 0.686834
0.047899 0.238520 -0.779538
-0.320673 0.603592 -0.047460
0.415489 -0.495816 0.318240
-0.687615 -0.131157 0.318203
0.413754 -0.496069 -0.413597
0.046927 -0.499340 -0.048463
-0.320753 -0.130533 0.685579
-0.319193 -0.498687 -0.414857
-0.687354 0.236100 -0.045948
0.413745 0.602729 -0.047247
-0.687969 0.604564 0.318729
0.045828 0.235680 -0.782609
-0.319503 -0.129410 0.688935
-0.686247 -0.131013 0.319955
-0.684386 -0.129012 -0.414158
-0.686041 0.602507 0.319307
0.780987 -0.497748 -0.047335
-0.686822 -0.129402 -0.414737
0.045005 -0.498218 0.685347
-0.320352 -0.498777 -0.416043
0.413890 0.238380 0.320050
0.048669 0.604628 -0.414584
-0.686937 0.236636 0.687739
-0.318984 0.603577 -0.047689
0.415078 0.602905 -0.046988
0.046009 -0.498431 -0.782182
0.047815 0.604272 -0.414943
-0.689806 0.238243 -0.047369
0.414565 -0.130332 -0.782909
0.414208 -0.128358 0.687814
0.048618 -0.498281 -0.047301
0.047458 0.603458 -0.413598
-0.685822 0.236353 0.687119
-0.318890 -0.130774 -0.782850
0.416480 -0.497435 -0.415500
0.048430 0.235403 0.686113
0.779289 -0.496262 -0.047064
-0.320208 0.236694 -0.411897
0.416721 0.236140 0.320816
-0.318753 -0.129351 -0.782531
0.412105 -0.495498 -0.415385
-0.685705 -0.131683 0.321558
0.414591 -0.130636 0.687191
0.044302 -0.497418 0.687767
0.414423 -0.498712 -0.414526
0.046821 0.236611 0.687949
0.413026 -0.497075 -0.415151
0.414657 -0.129689 0.688078
-0.319872 -0.130656 -0.781326
0.782707 -0.129322 0.321715
-0.686568 -0.131325 -0.416029
0.049184 -0.497171 -0.781485
0.047131 0.605108 0.319036
-0.687794 -0.498264 -0.048084
0.047994 0.603768 -0.414999
0.413362 -0.129487 -0.781587
0.415709 -0.497336 -0.413542
0.414379 0.236624 -0.414495
-0.320828 0.602631 0.686040
-0.319281 -0.498570 0.319398
-0.686378 0.603591 0.319335
0.781190 -0.497596 -0.046854
-0.319351 -0.497063 -0.414717
-0.320352 -0.497334 -0.414161
0.416280 -0.130512 0.685990
-0.318594 -0.130184 0.687000
-0.320391 0.603737 0.686542
-0.688190 -0.130861 -0.412882
0.047600 -0.497157 0.687992
-0.688970 -0.131797 0.319613
-0.319520 0.236056 -0.416318
-0.686574 0.604303 0.318938
0.414254 -0.497424 -0.415316
-0.319493 0.603861 -0.047756
-0.319262 0.601777 -0.046454
0.415400 0.239150 0.319139
0.048816 0.602597 -0.414577
0.046917 -0.497974 -0.784889
-0.688915 0.603557 0.320994
0.046765 0.235894 -0.782476
0.415517 -0.130744 0.687512
-0.321068 -0.131984 0.685838
-0.320342 -0.499449 0.319054
0.047253 -0.497413 -0.048962
0.414561 -0.130616 0.686176
-0.688579 -0.129243 0.319219
0.781394 -0.130428 -0.414855
0.415770 0.238569 0.318878
-0.319127 -0.128598 -0.780180
-0.319547 -0.129640 -0.781726
-0.319478 -0.497142 0.320161
-0.684783 0.237165 0.687066
-0.319161 0.237216 -0.415135
0.415270 -0.496990 0.319461
0.049115 0.239174 -0.782302
0.047172 -0.499660 -0.783038
0.047036 0.239024 0.686836
-0.319133 0.238423 -0.414900
-0.688150 -0.131792 -0.415590
0.414402 -0.131049 0.687599
0.047103 -0.498438 -0.782350
-0.687452 0.234948 -0.045842
-0.321440 -0.130320 0.686271
-0.686948 -0.129403 -0.414234
-0.686212 0.237446 0.688176
-0.687795 0.237873 -0.047432
0.047158 -0.498997 -0.780982
0.415228 0.237965 -0.415376
0.047683 -0.496757 -0.783396
-0.686836 -0.497619 -0.048411
0.782050 0.237168 -0.048397
-0.321592 -0.497760 -0.413149
0.048688 0.602783 -0.415263
0.046919 -0.496418 -0.047864
0.415389 -0.498759 0.319183
0.781139 -0.130520 0.318897
0.780430 -0.130440 0.318006
0.415289 -0.497925 0.319751
0.046712 0.237614 0.686458
-0.686064 -0.497304 -0.047323
0.047681 -0.497895 0.685600
-0.685103 -0.498320 -0.048655
0.782027 0.237882 -0.048584
0.047474 -0.497537 -0.047929
0.047620 -0.496003 -0.046320
0.415037 -0.497081 0.318430
0.045568 0.603456 0.318083
0.415809 0.234681 -0.414257
0.781524 0.236278 -0.047521
0.411660 -0.130927 0.688194
0.046421 0.604593 0.320806
0.415821 -0.129104 -0.781679
-0.318158 -0.496263 -0.414595
0.414347 -0.131563 0.687546
0.048355 -0.497328 -0.780324
-0.321992 -0.497429 0.321618
-0.687719 -0.498669 -0.049031
0.783221 0.236099 -0.046663
-0.685707 0.602286 0.319550
-0.685923 -0.130070 0.319343
-0.685609 0.604775 0.319684
0.415618 -0.496717 0.319857
-0.317604 -0.129598 -0.781351
-0.319036 -0.132191 0.687351
0.046961 0.238585 -0.780277
-0.319454 -0.130405 -0.782342
0.047281 -0.497561 0.686511
0.415021 0.604446 -0.047655
0.783150 0.237255 -0.046448
0.415334 -0.131970 0.686285
-0.686441 0.605235 0.319331
-0.687564 -0.497935 -0.047570
-0.686437 -0.496923 -0.046529
0.047637 0.604105 -0.414334
-0.319666 -0.497156 0.320792
-0.321004 -0.130689 -0.781367
0.781480 0.238938 -0.049539
0.046711 0.604601 0.318601
0.416541 -0.498272 0.320641
0.780504 -0.497066 -0.048699
