OFF
256 0 0
0.408898 0.218890 0.297666
0.044288 0.613940 -0.401095
-0.322910 -0.518072 0.288900
0.781809 -0.466756 -0.053998
-0.311445 -0.518333 -0.413127
0.033305 0.564435 0.306357
0.053658 0.225025 0.687298
-0.311478 0.595385 0.688581
0.783969 -0.468642 -0.057835
-0.321397 -0.521109 0.289554
-0.327913 0.224963 -0.406071
-0.312317 0.595233 0.687185
-0.671922 -0.125173 -0.403162
-0.327878 0.228006 -0.402761
-0.671187 -0.128407 -0.401820
0.807926 -0.120189 -0.420787
0.054115 0.224002 0.688297
0.422461 0.222497 -0.427952
0.411501 -0.100593 -0.773033
0.424183 0.222868 -0.428102
0.048368 -0.499395 -0.069397
-0.686036 0.600531 0.337481
-0.311856 0.595399 0.687808
-0.685782 0.599434 0.340008
-0.313179 -0.518003 -0.414930
-0.338257 0.614135 -0.030236
0.408668 0.591136 -0.035984
0.038207 0.254793 -0.757618
-0.305801 -0.124720 0.653208
0.034645 0.254936 -0.759068
-0.701799 0.253849 -0.035621
0.412718 -0.099745 -0.773864
-0.309500 -0.119254 -0.770885
0.784961 -0.469338 -0.053165
-0.686158 0.598652 0.339636
0.054204 0.226008 0.688246
0.031881 0.564668 0.307753
-0.337528 0.615451 -0.030092
0.408192 0.590848 -0.035607
0.043609 0.614706 -0.401351
-0.313729 -0.518624 -0.416050
-0.689440 0.228217 0.688438
0.784363 -0.466699 -0.055245
0.409910 0.220345 0.298639
0.409887 0.220852 0.299879
-0.703690 -0.518079 -0.050509
-0.311260 0.596069 0.687736
0.033753 0.565420 0.308463
0.785938 -0.128823 0.338106
0.408567 0.221613 0.298686
0.031346 0.564282 0.308196
-0.687566 0.226588 0.688105
-0.683558 0.600727 0.339314
-0.687608 0.225658 0.685987
0.808270 -0.118933 -0.420280
-0.683694 0.600595 0.339250
0.044607 -0.513446 0.666683
0.055542 0.225021 0.687238
0.045202 -0.511243 0.670500
-0.699699 -0.132872 0.308222
-0.322217 -0.518475 0.289753
0.410829 0.218358 0.300165
-0.700081 -0.132984 0.306979
0.402696 -0.465807 0.289581
0.412149 -0.098552 -0.773978
-0.689951 0.227297 0.688681
-0.336909 0.616139 -0.029252
-0.684750 0.600932 0.339558
-0.671380 -0.126656 -0.401246
-0.310884 0.595020 0.689454
0.036208 0.255004 -0.760159
0.422890 -0.120245 0.709095
-0.331024 0.227806 -0.405755
-0.688100 0.227363 0.689156
-0.308052 -0.119949 -0.773097
-0.338417 0.616377 -0.030811
-0.701006 -0.131430 0.307994
-0.312197 -0.518465 -0.415186
0.409292 0.221921 0.298091
0.045463 -0.511218 0.669112
-0.687542 0.227437 0.689394
0.421515 0.224384 -0.429138
-0.684939 0.601357 0.339695
-0.328865 0.227717 -0.405592
-0.307929 -0.119517 -0.771151
-0.309947 -0.118670 -0.773324
0.416811 -0.468543 -0.414377
0.045570 -0.511967 0.669541
0.035943 0.254873 -0.759058
0.784287 -0.125431 0.337384
0.402944 -0.467447 0.289832
0.054936 -0.498444 -0.751370
-0.336681 0.616248 -0.030810
-0.703552 0.252553 -0.036120
-0.311879 -0.518360 -0.418144
-0.670099 -0.127030 -0.404410
0.417941 -0.468486 -0.413777
0.423512 -0.121387 0.707860
-0.307185 -0.123918 0.653249
0.411144 0.590634 -0.036233
0.786556 -0.127662 0.337529
-0.705398 0.253842 -0.036988
0.412370 -0.098946 -0.773064
0.057335 -0.500800 -0.753343
0.045522 -0.512337 0.668785
-0.306700 -0.124761 0.654162
0.786731 -0.128156 0.339231
-0.338608 0.616534 -0.028830
-0.338113 0.616650 -0.029527
0.808768 -0.119174 -0.422141
-0.687228 0.228535 0.688535
0.787824 -0.127653 0.338273
0.045568 -0.510276 0.668022
0.783261 -0.468238 -0.054724
-0.688154 0.227607 0.689048
0.402890 -0.464764 0.291012
-0.705937 -0.517368 -0.052502
-0.321907 -0.520369 0.288764
0.400879 -0.467106 0.290824
0.036826 0.253249 -0.757711
-0.684863 0.598643 0.339393
0.416345 -0.469693 -0.414433
0.056116 -0.499998 -0.754169
0.416714 -0.471449 -0.415300
-0.311060 0.596765 0.687845
0.036175 0.256272 -0.758798
0.785336 -0.466832 -0.052950
0.402834 -0.465546 0.290713
-0.321141 -0.522280 0.288114
0.784494 -0.468152 -0.054317
0.047174 -0.511755 0.669192
0.784766 -0.466656 -0.055712
-0.328371 0.227883 -0.404202
0.410201 -0.100657 -0.773733
-0.699885 -0.131755 0.305805
0.783041 -0.466910 -0.053007
0.032199 0.562968 0.308944
0.790501 0.223081 -0.044900
-0.328761 0.226321 -0.405670
-0.312282 -0.518321 -0.415279
-0.701516 -0.132166 0.306225
0.782102 -0.466559 -0.054091
0.807704 -0.118589 -0.421419
-0.337905 0.615683 -0.029138
-0.322366 -0.521585 0.287212
0.401098 -0.464614 0.291006
-0.307526 -0.119001 -0.773250
0.808366 -0.118765 -0.420980
-0.311477 0.596279 0.689240
-0.688039 0.228654 0.688280
0.417633 -0.470742 -0.413493
0.409129 0.591383 -0.036431
-0.701110 -0.132452 0.307931
0.035364 0.255656 -0.760004
0.790864 0.223950 -0.045400
0.790214 0.224990 -0.042806
0.055943 -0.499415 -0.751177
0.784719 -0.469449 -0.054433
0.422477 -0.120212 0.709222
-0.310313 -0.518168 -0.416740
-0.311702 -0.518868 -0.415884
0.046303 -0.498684 -0.068432
-0.702599 0.256300 -0.036415
0.402091 -0.466975 0.289358
-0.701944 -0.518577 -0.049755
-0.310989 0.595889 0.687749
-0.329314 0.225708 -0.405081
0.402428 -0.465416 0.291254
-0.321624 -0.521636 0.289548
0.786159 -0.125786 0.339201
0.786199 -0.127014 0.337775
0.791554 0.224574 -0.045977
-0.670088 -0.127516 -0.404034
0.422205 0.222446 -0.427193
-0.305505 -0.121338 0.654248
0.785834 -0.127145 0.338128
0.409380 0.221184 0.299039
-0.699143 -0.133575 0.307878
0.056932 -0.499832 -0.752979
-0.684430 0.600263 0.338937
0.035152 0.256959 -0.759655
0.420653 0.223558 -0.426413
-0.309099 -0.119220 -0.773077
-0.704383 -0.517679 -0.050474
0.408744 0.592405 -0.037192
-0.688276 0.227534 0.688728
-0.688497 0.228482 0.688802
0.410620 0.590680 -0.037237
0.053849 0.224468 0.688971
-0.683384 0.601150 0.340331
-0.306954 -0.122787 0.653594
-0.671838 -0.127611 -0.403022
0.043542 0.615947 -0.401573
0.403079 -0.469019 0.292913
-0.688435 0.227727 0.688682
-0.703490 0.251837 -0.037602
0.037084 0.253726 -0.758270
0.402150 -0.467328 0.289335
-0.704619 -0.518262 -0.049696
-0.702339 0.253692 -0.034280
-0.311333 -0.519978 -0.415245
-0.309244 -0.118644 -0.772585
-0.339085 0.616140 -0.028874
-0.323874 -0.520789 0.288229
0.048253 -0.500129 -0.070808
-0.703180 -0.519656 -0.051935
0.786127 -0.126745 0.338496
0.791920 0.222449 -0.045798
0.785127 -0.128002 0.337242
0.404595 -0.466071 0.289966
0.423796 -0.117743 0.708098
0.421932 -0.119368 0.706629
-0.337425 0.616070 -0.028439
0.046022 -0.509395 0.669822
-0.312901 0.594608 0.687733
-0.311320 -0.518299 -0.416291
0.031291 0.564637 0.310024
0.415130 -0.470426 -0.414565
-0.338375 0.616019 -0.030544
-0.312238 0.597078 0.688576
0.036342 0.256680 -0.757956
-0.699514 -0.132816 0.307179
-0.311431 0.595727 0.689280
0.423752 -0.119022 0.706090
-0.322043 -0.521007 0.287386
0.422817 -0.118555 0.707414
-0.311819 0.595333 0.687313
-0.699576 -0.133791 0.308398
-0.330833 0.227128 -0.404495
0.787321 -0.126583 0.338910
0.055373 0.224235 0.688165
0.806212 -0.118321 -0.421374
0.045084 -0.511120 0.668308
0.409963 0.219769 0.300117
0.408681 0.590373 -0.035899
0.415959 -0.470221 -0.411180
-0.307003 -0.123706 0.653263
-0.689274 0.228303 0.687541
0.785432 -0.469149 -0.055737
0.425063 -0.118745 0.707911
0.057618 -0.498135 -0.752452
-0.336591 0.616258 -0.030715
0.047908 -0.501077 -0.069027
0.407878 0.590818 -0.035161
-0.309697 -0.518781 -0.416078
0.056778 -0.501293 -0.752430
-0.702885 0.252863 -0.037533
0.411333 -0.100257 -0.772142
-0.321893 -0.520772 0.290399
0.035790 0.255933 -0.757947
-0.327715 0.226214 -0.404562
0.420739 0.223296 -0.428560
0.408617 0.218908 0.298744
0.421981 0.224131 -0.427948
-0.705092 -0.518331 -0.052021
0.412190 -0.100160 -0.771804
