OFF
256 0 0
-0.675022 -0.129021 -0.399169
-0.324429 -0.124921 -0.799054
-0.334669 -0.499107 -0.410170
-0.305974 0.627653 -0.067182
0.760174 -0.141119 0.288126
-0.698346 0.225495 0.679581
0.394728 0.616267 -0.043820
0.426670 -0.118952 -0.780935
0.054354 -0.494251 -0.069004
-0.680699 0.639083 0.331035
-0.696451 0.224687 0.680232
-0.682430 0.637686 0.329493
0.414834 -0.494701 0.303722
0.388380 0.225047 -0.379812
-0.306915 0.628173 -0.065356
0.388441 0.225194 -0.380133
0.052875 -0.492027 -0.067895
0.021444 0.624323 0.306278
-0.702465 -0.155193 0.307770
0.414729 -0.496065 0.301588
0.052287 -0.493859 -0.067409
0.391159 0.225575 -0.378458
0.040177 0.191100 -0.764144
0.403904 0.237289 0.320599
-0.701492 -0.153272 0.309176
-0.306723 -0.471704 0.312510
0.772292 -0.114183 -0.414239
0.404060 -0.483531 -0.398544
0.061402 0.201681 0.696563
0.406005 0.236583 0.321276
-0.304336 0.627696 -0.065282
-0.324467 -0.123789 -0.798990
-0.335085 -0.497993 -0.411938
-0.307234 -0.471686 0.314490
-0.680522 0.637566 0.330867
0.787492 -0.512094 -0.056463
-0.700393 -0.153627 0.308143
-0.333941 -0.498368 -0.409928
-0.681819 0.641236 0.331519
0.388942 0.224034 -0.380465
0.070369 0.605379 -0.406394
0.773252 -0.114204 -0.415118
-0.674108 -0.502858 -0.052964
-0.305585 0.630436 -0.065164
0.403332 -0.481756 -0.399201
-0.675793 -0.502262 -0.055762
-0.699424 -0.153367 0.307206
0.758665 -0.142541 0.291104
0.428383 -0.118051 -0.783561
-0.700078 0.224108 0.680125
0.053874 -0.498468 0.688526
0.415366 -0.494876 0.302926
-0.334948 -0.498622 -0.411664
0.787922 -0.510576 -0.057549
0.427677 -0.117596 -0.785088
-0.322315 0.580788 0.657753
-0.332767 -0.499899 -0.411633
-0.304060 0.628903 -0.066358
0.403293 -0.483034 -0.398640
0.390665 0.225573 -0.381574
0.790264 0.255798 -0.061964
0.059466 0.203163 0.695627
0.071759 0.604385 -0.409206
0.020727 0.623994 0.307529
-0.676017 -0.501886 -0.053786
-0.335059 -0.498163 -0.408823
0.403386 -0.483301 -0.399060
-0.656413 0.230364 -0.004353
-0.303860 0.627872 -0.065814
0.021829 0.625241 0.306449
0.407248 -0.143770 0.682484
0.788146 -0.512259 -0.057335
-0.325376 0.219980 -0.391486
0.760096 -0.144620 0.288894
-0.654439 0.228589 -0.004831
0.393044 0.616760 -0.041988
0.415423 -0.495555 0.303516
0.390839 0.224944 -0.379667
0.405643 0.238023 0.320672
0.073235 0.605206 -0.407237
0.761500 -0.142719 0.290289
0.773951 -0.111603 -0.415629
0.055594 -0.500388 0.688763
0.790481 0.255468 -0.062446
0.393736 0.615714 -0.043813
-0.321987 0.579364 0.657589
0.404302 0.238196 0.320241
-0.306531 0.628965 -0.065694
-0.656523 0.227650 -0.006842
0.403018 0.237912 0.319318
0.023327 0.622827 0.307905
0.788177 -0.508664 -0.056983
0.788286 -0.512664 -0.058268
0.412413 -0.497335 0.304499
0.759043 -0.140097 0.287836
0.388197 0.224461 -0.379730
-0.697158 0.223459 0.678491
-0.307839 -0.472395 0.314002
0.387865 0.223816 -0.380057
0.408812 -0.143558 0.683417
0.789987 0.254493 -0.060452
0.760111 -0.142375 0.288527
0.413663 -0.494727 0.303311
-0.656933 0.228382 -0.006293
-0.304438 0.627205 -0.069231
-0.306188 -0.470446 0.315514
0.787309 -0.511461 -0.056413
-0.322346 0.580302 0.656485
0.402759 -0.483863 -0.400110
0.789768 0.255855 -0.061779
-0.306321 -0.470166 0.313957
0.052762 -0.494265 -0.069616
-0.305328 0.625567 -0.069283
0.409222 -0.142840 0.680870
0.401021 -0.483331 -0.397543
-0.697404 0.225133 0.681555
0.772962 -0.114400 -0.416389
0.404441 -0.483055 -0.398087
0.055071 -0.499538 0.686907
0.413240 -0.496800 0.303301
0.403041 0.237356 0.318468
0.406793 -0.143143 0.683171
0.789561 -0.511980 -0.056015
0.052913 -0.476799 -0.760391
-0.674744 -0.501140 -0.053358
0.021954 0.626087 0.307252
0.408639 -0.143426 0.682790
0.041451 0.193369 -0.765279
0.404733 -0.483608 -0.397453
-0.701037 -0.153197 0.308085
-0.325406 -0.124272 -0.797145
0.410152 -0.144639 0.684557
0.427289 -0.117197 -0.782275
0.022167 0.625482 0.307100
0.427442 -0.117901 -0.780294
-0.324560 0.579161 0.656090
0.052197 -0.477194 -0.759167
-0.303714 0.630479 -0.064515
0.021912 0.624245 0.307998
-0.321186 0.579381 0.657323
-0.657421 0.229582 -0.004597
0.072026 0.605083 -0.408356
0.772806 -0.112104 -0.415037
0.403974 0.238777 0.319774
-0.696235 0.223658 0.680416
0.428895 -0.118297 -0.782723
0.772420 -0.111565 -0.414850
0.407811 -0.142259 0.681697
0.761648 -0.142613 0.288872
-0.699540 -0.154935 0.308653
-0.655462 0.227508 -0.004126
-0.674719 -0.502392 -0.053165
0.021081 0.624857 0.307590
0.042505 0.190607 -0.765554
0.790494 0.255179 -0.062428
0.773614 -0.113076 -0.414218
-0.700610 -0.155584 0.308207
0.429728 -0.117694 -0.782595
-0.306589 0.629450 -0.066406
-0.696964 0.223086 0.679795
0.773547 -0.114003 -0.413658
0.061027 0.201620 0.694045
-0.333976 -0.498975 -0.411227
0.401869 -0.483908 -0.400796
-0.673863 -0.127716 -0.397181
-0.335510 -0.497977 -0.410826
0.052142 -0.478578 -0.758528
-0.699999 -0.154380 0.308961
0.072683 0.605511 -0.409323
-0.333500 -0.498619 -0.409194
0.042059 0.190708 -0.765017
-0.656904 0.227563 -0.003122
0.413215 -0.494518 0.302172
-0.308141 -0.472935 0.313387
0.072201 0.604710 -0.408816
0.402526 -0.483076 -0.399396
-0.675226 -0.503176 -0.054623
-0.656623 0.227136 -0.005388
0.070789 0.603672 -0.407994
0.414181 -0.496320 0.302303
-0.681827 0.639707 0.330712
-0.327284 0.219137 -0.392234
0.394200 0.614284 -0.043809
0.414241 -0.495253 0.302562
0.042943 0.191700 -0.765340
0.405828 -0.142965 0.683704
-0.323423 0.577618 0.657861
0.053136 -0.476991 -0.758812
0.393448 0.616707 -0.042931
-0.700868 -0.153580 0.308672
-0.699294 -0.154375 0.309152
0.414673 -0.494684 0.300763
0.788541 -0.512151 -0.057336
0.774434 -0.111315 -0.416045
0.053374 -0.476436 -0.761991
0.759870 -0.142421 0.288540
-0.306958 -0.470724 0.312736
-0.305704 0.629129 -0.068011
0.790902 0.255787 -0.063501
-0.326649 -0.123945 -0.797280
-0.323147 0.580400 0.655973
0.790812 0.254770 -0.062252
0.404627 0.237664 0.321904
0.043255 0.193144 -0.765488
-0.307717 -0.471883 0.315632
0.789153 0.254952 -0.065289
0.403804 -0.483255 -0.397279
0.394413 0.615081 -0.045436
0.427223 -0.119136 -0.782014
0.042308 0.192250 -0.766948
-0.304367 0.628675 -0.065977
-0.306452 0.628339 -0.069036
-0.303350 -0.125329 0.691661
-0.680523 0.639692 0.331523
-0.696525 0.222007 0.678566
0.393488 0.615773 -0.043203
0.389624 0.226765 -0.379758
-0.678897 0.639237 0.329234
0.759453 -0.142975 0.290012
-0.322631 0.580004 0.657398
0.062194 0.202846 0.694644
0.054738 -0.500586 0.688644
0.409474 -0.143160 0.682326
0.758741 -0.140921 0.289180
0.393237 0.616376 -0.042871
0.758817 -0.140496 0.289988
-0.324228 0.219701 -0.392102
0.403272 -0.482763 -0.399409
0.055741 -0.499349 0.687477
0.388704 0.224636 -0.379230
0.428803 -0.119216 -0.782023
0.394225 0.614957 -0.044229
0.760303 -0.142421 0.290016
0.059145 0.200716 0.695047
-0.675955 -0.503252 -0.055369
-0.324445 0.221214 -0.392763
-0.700882 0.224882 0.679287
-0.672937 -0.127891 -0.399111
0.405129 0.237634 0.321389
0.758239 -0.143214 0.289108
0.053692 -0.493526 -0.068762
0.054066 -0.494896 -0.068276
0.408514 -0.143992 0.683339
0.773540 -0.113985 -0.414117
0.071983 0.605324 -0.409429
0.041845 0.192085 -0.765250
-0.328254 0.218431 -0.390526
0.772043 -0.112000 -0.414993
0.052542 -0.476695 -0.760351
-0.324925 0.219318 -0.393222
0.053950 -0.477601 -0.761346
0.788684 -0.511169 -0.056422
0.020649 0.623790 0.308363
-0.325883 -0.122489 -0.798376
0.391551 0.615577 -0.044191
0.389183 0.222829 -0.381346
