OFF
256 0 0
-0.010201 -0.854295 0.430002
-0.888651 -0.429285 -0.013359
-0.452253 -0.465863 -0.447185
-0.010341 -0.852976 0.430874
0.028292 0.844750 0.446150
-0.454510 -0.467499 -0.444147
0.410086 0.827938 -0.004215
0.436265 0.007344 -0.883779
0.438192 -0.853074 -0.017512
-0.903522 -0.000550 -0.429736
0.420251 -0.406882 0.442826
-0.412051 0.014527 0.872118
-0.903226 0.000076 -0.431800
-0.859351 0.026822 0.427004
-0.458202 0.430445 -0.450169
0.898330 0.008466 0.423858
0.437895 -0.855647 -0.017602
0.452199 0.416867 0.446894
-0.451573 -0.466620 -0.444915
-0.445055 0.467218 0.459981
-0.010242 -0.854697 0.430193
-0.882715 0.430200 0.011249
-0.439533 -0.886824 0.026104
-0.860792 0.026393 0.426521
0.026905 0.845469 0.444105
-0.395514 0.845606 -0.003585
-0.000864 -0.433083 0.878525
-0.009674 -0.852259 0.429486
0.420797 -0.407392 0.442234
0.022840 -0.844720 -0.449580
0.440184 -0.854790 -0.018912
0.425413 0.381935 -0.419661
0.026703 0.844646 0.445402
-0.431521 -0.431899 0.424730
0.022704 -0.430656 -0.889027
-0.019275 0.827239 -0.437115
-0.446164 0.468924 0.459387
0.879461 -0.029341 -0.452934
-0.410757 0.015250 0.871172
-0.018573 0.826951 -0.435852
0.421736 -0.408196 0.443587
-0.887974 -0.430235 -0.013179
0.437909 0.017473 0.861370
-0.883699 0.430184 0.012603
0.879466 -0.412948 0.015980
-0.394671 0.844125 -0.004543
-0.019668 0.827905 -0.437432
-0.002487 -0.431582 0.876886
-0.429546 0.019799 -0.849246
0.436150 0.006409 -0.882550
0.885579 0.438256 -0.021192
0.452172 0.418815 0.445932
0.900561 0.007919 0.424758
-0.395029 0.846437 -0.000523
-0.411187 0.012766 0.870223
-0.396794 0.846132 -0.003173
0.421663 0.382931 -0.420207
0.408798 0.827955 -0.004128
-0.456110 0.430467 -0.450570
-0.456068 0.430551 -0.451927
0.438380 -0.856171 -0.018949
-0.018168 0.825471 -0.435021
0.438447 -0.854614 -0.017498
-0.010737 -0.853925 0.429608
-0.396832 0.844528 -0.002708
-0.003622 -0.433310 0.878809
0.399341 -0.385414 -0.416974
0.410145 0.828406 -0.003552
-0.455368 0.431044 -0.451960
-0.456140 0.430844 -0.450034
-0.011101 -0.854028 0.431347
0.411437 0.829117 -0.003219
0.876139 -0.411037 0.016876
0.877903 -0.411197 0.015209
-0.000744 0.412442 -0.856209
-0.882664 0.430410 0.014019
0.437334 0.018181 0.860521
0.021661 -0.430129 -0.889628
0.899582 0.009053 0.424992
0.409925 0.829067 -0.004052
-0.019176 0.827140 -0.436413
-0.860363 0.027445 0.424382
-0.457670 0.432023 -0.450030
-0.427088 -0.429778 0.424310
0.421725 0.382134 -0.421744
-0.396232 0.844516 -0.003864
0.027891 0.844056 0.443435
0.439862 0.017675 0.860905
0.419658 -0.406400 0.443188
-0.445276 0.467660 0.459512
0.020366 -0.429326 -0.888890
0.423902 0.381150 -0.419982
-0.425851 0.017879 -0.849741
0.436527 0.004954 -0.885807
0.409326 0.825661 -0.003864
0.454175 0.418959 0.446476
-0.439802 -0.886204 0.025851
0.022538 -0.846519 -0.446763
-0.439003 -0.886150 0.027586
-0.902964 -0.000464 -0.432288
-0.889376 -0.427699 -0.013235
0.877116 -0.412043 0.016900
-0.445583 0.469709 0.460212
0.424010 0.381522 -0.418704
-0.445547 0.467950 0.459199
0.419848 -0.404202 0.442710
-0.000204 0.412499 -0.856202
0.877259 -0.412535 0.016604
0.438077 0.019091 0.861307
0.452573 0.418883 0.445645
-0.860435 0.025215 0.425194
-0.882505 0.431903 0.013160
0.877797 -0.024682 -0.452428
0.886741 0.439591 -0.021727
-0.001786 0.411754 -0.855680
-0.019548 0.825766 -0.438137
-0.438152 -0.888052 0.026698
-0.452684 -0.467938 -0.443963
0.020253 -0.843234 -0.450450
0.421805 0.382990 -0.419472
-0.010672 -0.853203 0.430121
0.886752 0.439312 -0.022576
0.027999 0.845844 0.446194
-0.002949 -0.433247 0.877573
-0.006919 0.441667 0.876416
0.436416 0.006610 -0.882590
-0.431014 -0.428883 0.424085
0.420119 -0.406452 0.441757
0.438940 -0.853732 -0.018182
0.000461 0.410995 -0.857898
-0.000823 0.412965 -0.855095
-0.859057 0.026281 0.423256
-0.005650 0.440416 0.873638
-0.437642 -0.887641 0.027016
0.435225 0.005937 -0.884475
0.398900 -0.384756 -0.417952
-0.018925 0.826457 -0.433468
0.418869 -0.405778 0.443756
0.423828 0.382370 -0.420646
0.435745 0.006109 -0.885174
0.876513 -0.412055 0.015356
-0.900683 -0.000076 -0.432072
-0.011512 -0.852028 0.429555
-0.445399 0.466548 0.457504
-0.445573 0.469227 0.457735
0.399270 -0.386401 -0.416834
0.026590 0.846663 0.443788
-0.860417 0.027488 0.424851
0.023412 -0.844176 -0.447219
-0.439568 -0.886007 0.025601
0.880016 -0.025923 -0.454174
-0.445168 0.468291 0.458860
-0.886591 -0.429345 -0.012238
0.876855 -0.410994 0.016198
0.452003 0.419556 0.447053
0.418069 -0.407755 0.442678
0.424612 0.382709 -0.419021
0.022137 -0.846521 -0.447455
0.878541 -0.412670 0.016395
-0.860347 0.027512 0.424552
0.024595 -0.845834 -0.447577
-0.428586 0.018017 -0.847575
-0.902092 -0.000482 -0.431376
0.884725 0.438291 -0.022186
-0.437641 -0.887640 0.028318
-0.006089 0.441958 0.877709
-0.455490 -0.468414 -0.447430
-0.903099 -0.001302 -0.431706
0.434510 0.005419 -0.883564
-0.018398 0.825836 -0.436861
-0.413761 0.017308 0.870865
0.400629 -0.384336 -0.415808
-0.456197 0.433419 -0.451350
0.436690 0.005686 -0.883205
0.880155 -0.026771 -0.453975
-0.007424 0.441600 0.875987
-0.017802 0.829480 -0.437315
0.436894 -0.852138 -0.018271
-0.886132 -0.429553 -0.012647
0.878099 -0.411450 0.015896
0.022436 -0.845100 -0.449838
-0.412310 0.016477 0.871465
0.418996 -0.406348 0.442652
-0.002105 -0.431792 0.878019
0.438999 0.017734 0.862696
-0.003348 -0.432882 0.877728
0.407760 0.827895 -0.004945
-0.004339 0.441114 0.875494
-0.411677 0.014713 0.872902
-0.456268 0.431801 -0.452012
-0.454002 -0.466116 -0.442992
0.451059 0.416789 0.447125
0.021724 -0.427836 -0.889551
-0.902910 0.000048 -0.433159
0.440206 0.016457 0.860789
0.879104 -0.024640 -0.454292
0.026912 0.845854 0.444962
0.400097 -0.385845 -0.416564
0.402284 -0.384512 -0.415927
-0.003375 -0.431896 0.878646
0.435763 0.005109 -0.882959
-0.902062 0.000175 -0.432205
0.885450 0.439348 -0.020745
0.022627 -0.429175 -0.890808
0.435948 0.007922 -0.882556
-0.395614 0.843916 -0.002773
0.021414 -0.846892 -0.447843
-0.902899 0.000237 -0.431685
0.424285 0.380554 -0.419882
-0.859069 0.024607 0.423228
-0.007910 0.438518 0.875013
-0.439602 -0.888347 0.027224
0.027493 0.844473 0.446046
0.436424 0.005263 -0.884527
0.437884 0.018539 0.860912
0.899290 0.007914 0.424170
-0.858877 0.025666 0.426902
0.452104 0.418925 0.444957
0.422549 0.382828 -0.419326
-0.858534 0.026492 0.426092
0.027651 0.844019 0.443969
0.400939 -0.386940 -0.418149
0.436556 0.004764 -0.883191
-0.439290 -0.886273 0.026331
-0.887280 -0.429662 -0.011690
0.453037 0.418177 0.446164
-0.396953 0.845512 -0.002871
-0.000889 0.411713 -0.854390
-0.410636 0.014644 0.872479
0.408354 0.829219 -0.002668
-0.886533 -0.428149 -0.013768
-0.002029 -0.431050 0.877214
-0.429356 -0.430725 0.423575
-0.903373 -0.000626 -0.431665
0.401129 -0.386590 -0.416956
0.423069 0.380312 -0.421365
0.401141 -0.387015 -0.415121
0.022098 -0.847185 -0.449899
0.409280 0.826919 -0.003006
0.437858 0.017231 0.860667
-0.439124 -0.886501 0.026520
-0.010009 -0.856177 0.431080
-0.003239 -0.433026 0.878060
-0.428387 0.018556 -0.847922
0.897750 0.008422 0.424407
-0.454838 0.432190 -0.452027
0.019154 -0.846276 -0.448735
-0.456418 0.431304 -0.451880
0.422940 0.380621 -0.419775
0.421907 0.380691 -0.418315
-0.902277 -0.000889 -0.432914
0.879978 -0.026225 -0.455035
-0.886698 -0.429984 -0.011803
0.434608 0.007223 -0.883668
-0.429158 -0.430143 0.424905
0.886100 0.438503 -0.022870
