OFF
256 0 0
0.385423 0.420227 0.395745
-0.007337 -0.850408 -0.411211
-0.858279 -0.424316 0.007776
0.854223 -0.429155 -0.013628
-0.459795 0.870737 -0.018849
-0.459002 0.869275 -0.016740
0.864919 -0.027252 -0.439881
0.855822 0.008773 0.468925
-0.457317 0.868998 -0.015913
-0.020998 0.440254 0.896941
0.865083 -0.030344 -0.441660
-0.827403 0.012956 -0.442326
0.020454 0.859995 -0.430190
0.856119 -0.427386 -0.014742
-0.001147 -0.430978 -0.872681
-0.865369 -0.006495 0.438275
0.423514 0.428915 -0.401949
0.001449 0.862470 0.406120
-0.411537 -0.412613 0.389980
-0.457443 0.869499 -0.016032
-0.007967 -0.851493 -0.412513
0.410610 -0.438308 -0.443402
-0.005577 -0.849597 -0.410504
-0.435709 0.405535 0.403570
-0.856951 0.411537 0.012550
-0.412744 -0.412101 0.388566
-0.006501 -0.851253 -0.410810
-0.445345 -0.870286 0.016198
-0.018111 0.441197 0.895129
0.021311 0.859426 -0.431191
-0.435437 0.403863 0.404474
0.423038 0.426879 -0.402969
0.403846 0.004003 -0.872527
-0.457496 0.870224 -0.016230
0.022245 0.861053 -0.429664
-0.855677 0.411555 0.013437
0.450146 0.857583 0.000895
0.877392 0.421334 -0.008178
0.001510 0.864654 0.405590
0.385970 0.421462 0.395806
-0.432076 -0.001508 -0.854687
-0.826633 0.013820 -0.442438
0.009234 0.442198 -0.874517
0.410495 0.013262 0.890900
-0.457213 0.868341 -0.016417
-0.437510 0.405023 0.404215
-0.413235 -0.413358 0.391784
0.410236 -0.438939 -0.443678
0.009640 0.438919 -0.875909
0.421613 0.428316 -0.403445
-0.414761 -0.414804 0.389364
-0.865010 -0.008117 0.437611
-0.855117 0.408538 0.012572
-0.411737 -0.415514 0.389301
0.000943 0.863806 0.405474
-0.000173 0.862209 0.404164
0.411673 0.013009 0.891450
0.855639 -0.429089 -0.012950
0.881680 0.419209 -0.010375
-0.414426 -0.412996 0.389968
0.008039 -0.444165 0.859281
0.856265 0.009647 0.469008
0.009288 0.440824 -0.875724
-0.859086 -0.424791 0.006354
0.001054 0.863500 0.405066
0.014115 -0.852082 0.424754
0.855999 -0.429736 -0.014750
0.020538 0.859476 -0.430344
0.856398 0.009201 0.468791
-0.429835 0.000382 -0.855012
-0.457754 0.871346 -0.016165
-0.417745 -0.439914 -0.419992
0.016238 -0.854183 0.423678
0.011185 0.438998 -0.874748
-0.000697 0.862435 0.403746
-0.855141 0.409427 0.012104
0.423392 0.425463 -0.404812
0.014480 -0.853628 0.423566
0.016379 -0.852387 0.421464
0.450004 -0.853623 0.025917
0.385001 0.421761 0.394345
0.010438 0.440750 -0.874507
-0.446119 -0.869342 0.017074
0.423012 0.430268 -0.404608
0.411537 -0.439182 -0.442725
0.879402 0.419686 -0.008212
-0.867048 -0.006112 0.438118
-0.398847 -0.020015 0.846241
-0.865622 -0.007196 0.436879
0.449435 -0.853995 0.026453
-0.865782 -0.006066 0.436689
0.384393 0.419033 0.394324
0.019877 0.859440 -0.428776
0.001592 0.864060 0.404967
-0.430534 -0.000368 -0.855843
0.000849 0.863530 0.404709
-0.415042 0.442655 -0.408972
-0.413081 -0.413029 0.390951
0.409139 -0.393395 0.433284
0.864803 -0.028339 -0.442169
0.404470 0.004864 -0.873731
0.014669 -0.852567 0.423448
-0.411690 -0.413078 0.391274
-0.858802 -0.424258 0.008116
0.385388 0.420579 0.395929
0.020165 0.859053 -0.429115
0.451099 -0.852261 0.025951
0.019393 0.858590 -0.427634
-0.858703 -0.423097 0.007437
-0.828219 0.012595 -0.441335
0.450216 -0.854500 0.025237
-0.417965 -0.439197 -0.421358
-0.418360 0.442185 -0.410473
0.407031 -0.395602 0.433448
-0.860631 -0.425125 0.006726
0.412056 0.014660 0.891675
0.000810 -0.431460 -0.872815
-0.854735 0.409627 0.012786
0.009132 -0.442361 0.860392
-0.431470 -0.000313 -0.856330
0.404852 0.004774 -0.874503
-0.856765 -0.425014 0.006998
-0.431943 -0.001037 -0.856291
0.879407 0.417652 -0.008673
-0.445796 -0.870868 0.016128
0.411624 -0.438397 -0.443295
0.408683 -0.394300 0.433812
0.404250 0.005859 -0.872579
-0.398932 -0.019335 0.846612
0.879931 0.420228 -0.008123
0.411397 0.013860 0.891059
-0.417920 -0.437868 -0.419779
0.423095 0.428531 -0.404195
-0.020683 0.439257 0.896671
0.407687 -0.393318 0.434412
-0.858195 -0.426742 0.007433
-0.860821 -0.425102 0.007754
0.404971 0.005320 -0.871976
0.409441 -0.437628 -0.442707
0.409614 -0.437714 -0.444106
0.006479 -0.442247 0.859855
0.411871 -0.439494 -0.442841
-0.826584 0.013291 -0.442854
0.386302 0.420863 0.396630
0.402932 0.006076 -0.873089
-0.412073 -0.414265 0.390649
0.009818 0.441820 -0.874221
-0.418449 0.441378 -0.408981
0.421347 0.428205 -0.402908
0.403997 0.004640 -0.872494
-0.411871 -0.414926 0.390203
0.407378 -0.394203 0.433408
0.421700 0.428915 -0.401952
0.449393 0.856666 0.000247
-0.019257 0.441042 0.897276
-0.444362 -0.868702 0.015730
0.855126 0.008526 0.467672
0.410823 -0.439744 -0.444330
0.406574 -0.394083 0.435843
0.014886 -0.854193 0.423733
-0.859462 -0.425277 0.007926
0.865488 -0.027840 -0.440606
0.015055 -0.851846 0.424873
-0.018797 0.439172 0.896627
0.855550 0.009905 0.468185
0.014251 -0.852395 0.422984
-0.413953 -0.413500 0.390529
0.007244 0.440988 -0.874101
-0.864618 -0.007993 0.437087
0.413661 0.014040 0.891943
0.854403 -0.428205 -0.015507
-0.000970 -0.432066 -0.873697
-0.856421 0.409344 0.012421
-0.397728 -0.020546 0.845746
0.878363 0.418972 -0.007817
-0.419886 0.440878 -0.409571
0.013736 -0.853577 0.423618
0.410526 -0.438425 -0.441725
-0.828281 0.013076 -0.440324
0.853848 -0.431561 -0.013884
0.000618 0.864081 0.403795
-0.436558 0.403444 0.402640
0.863272 -0.027757 -0.441624
0.878430 0.420674 -0.008469
0.410696 0.014558 0.891636
0.450183 -0.853307 0.026246
-0.004895 -0.850290 -0.411059
-0.458337 0.868121 -0.016804
-0.857179 0.410025 0.013635
0.007566 -0.441815 0.859067
0.410636 -0.438183 -0.444838
-0.000415 -0.431525 -0.872489
-0.001229 -0.431970 -0.871957
0.411940 0.014031 0.890512
0.406488 -0.394129 0.435225
0.010348 0.440716 -0.874926
0.409741 -0.437297 -0.444183
-0.829423 0.014660 -0.443286
0.405814 -0.395088 0.434028
0.001618 0.864050 0.403039
0.014115 -0.852759 0.424110
-0.458916 0.869922 -0.016044
0.021809 0.858435 -0.428743
-0.436313 0.403758 0.402158
-0.444466 -0.870400 0.016165
0.423549 0.429417 -0.403534
0.448637 0.856663 0.001181
-0.008211 -0.849930 -0.412694
0.404238 0.006021 -0.872872
0.413154 0.014772 0.892178
-0.863942 -0.006031 0.436329
-0.459462 0.871047 -0.016113
-0.435637 0.401796 0.402852
-0.418578 0.441861 -0.410595
0.410895 -0.438179 -0.442187
0.402899 0.003346 -0.873134
-0.017965 0.439988 0.898507
-0.416856 -0.439818 -0.420550
0.422151 0.429031 -0.402948
-0.855989 0.411026 0.012137
-0.399197 -0.020551 0.846450
-0.457739 0.869796 -0.016755
0.386569 0.420057 0.394557
-0.398696 -0.019412 0.846057
-0.417727 -0.438969 -0.421066
-0.005630 -0.851225 -0.410606
0.383533 0.419651 0.396909
-0.435117 0.402638 0.402416
-0.860504 -0.424468 0.006181
0.403775 0.004787 -0.870143
-0.431688 -0.001199 -0.856446
-0.419154 -0.438437 -0.422217
0.009034 0.440801 -0.876437
0.403638 0.004424 -0.874305
-0.865412 -0.007393 0.437321
0.007535 -0.443376 0.859429
0.386958 0.421145 0.395897
0.411423 -0.438583 -0.444472
0.853723 0.010079 0.468871
-0.005545 -0.850643 -0.409384
-0.867399 -0.006940 0.438675
-0.019872 0.441161 0.898244
-0.398417 -0.019851 0.846232
0.021398 0.860307 -0.430214
0.854896 0.009171 0.470740
-0.417567 0.440405 -0.410008
-0.858639 -0.424193 0.007229
-0.866874 -0.007152 0.436974
-0.420508 -0.439400 -0.420564
-0.418201 0.440611 -0.409159
-0.414011 -0.414059 0.391142
-0.830652 0.013397 -0.442575
-0.418158 -0.439263 -0.419298
-0.000428 -0.430457 -0.872648
0.412284 0.013464 0.889778
-0.858588 -0.425622 0.007462
