OFF
256 0 0
0.419429 0.421966 0.456579
0.408418 -0.404550 -0.418861
-0.001613 -0.434447 0.884749
0.409729 -0.402711 -0.418148
-0.427020 0.417756 0.455830
0.406184 -0.403897 -0.416573
-0.886599 -0.415737 -0.004445
-0.852121 -0.004039 0.430034
-0.001403 -0.431717 0.880780
0.388864 0.424445 -0.455317
0.878705 -0.439571 -0.009113
-0.001683 -0.432901 0.880797
0.855443 -0.011324 -0.418283
0.449414 0.010788 0.872101
0.003297 0.910885 -0.412122
-0.856585 0.397548 -0.002890
-0.410598 -0.006804 0.872551
-0.864825 -0.000007 -0.433377
-0.022769 -0.844547 -0.440563
-0.864089 -0.001610 -0.433713
-0.359872 0.394852 -0.401951
-0.434101 -0.871460 0.001472
-0.003611 -0.432124 0.881160
0.852986 -0.014344 -0.416741
0.386525 0.425233 -0.455835
0.387341 0.424570 -0.456385
-0.007159 0.436802 0.865036
0.879370 0.015373 0.407393
0.408190 -0.403441 -0.416268
-0.359382 0.394544 -0.401498
-0.008750 0.436305 0.866334
0.407698 -0.402479 -0.414812
0.019619 0.833475 0.406515
-0.024795 -0.847219 -0.437431
-0.413318 -0.007349 0.873200
0.427316 -0.377306 0.441635
0.418411 0.420497 0.457612
-0.851957 -0.004114 0.428385
0.387780 0.424542 -0.455553
-0.884834 -0.416924 -0.004721
-0.024490 -0.844288 -0.440044
-0.005588 0.418232 -0.884818
0.426752 -0.380304 0.440136
-0.888439 -0.416985 -0.004357
0.408903 -0.403347 -0.418308
0.874362 0.016905 0.409625
-0.399925 0.832979 0.018538
0.403304 -0.028867 -0.836440
0.823960 0.430809 -0.037224
-0.444903 0.001022 -0.857941
-0.852147 -0.004546 0.427864
-0.446537 0.001338 -0.858366
-0.864587 -0.001257 -0.432802
0.824983 0.430493 -0.038234
0.018654 0.833651 0.408007
-0.022076 -0.842995 -0.440338
-0.010955 -0.841153 0.411014
-0.398497 0.833404 0.018779
0.386398 0.423987 -0.455538
-0.888218 -0.417478 -0.002479
-0.410718 -0.007592 0.873504
0.882064 -0.439693 -0.006281
-0.021931 -0.846062 -0.441736
0.854902 -0.013373 -0.418064
0.875259 0.014648 0.408407
0.418171 0.421628 0.457032
0.879835 -0.440814 -0.008402
-0.004725 0.419478 -0.885138
-0.416686 -0.442985 -0.409602
0.408226 -0.402927 -0.417323
-0.411012 -0.005562 0.871882
0.852328 -0.012965 -0.417072
-0.014238 -0.460559 -0.879777
0.409354 -0.403701 -0.416838
-0.006143 0.420326 -0.882798
-0.446314 0.002131 -0.856367
-0.359195 0.392092 -0.402419
-0.436434 -0.873488 0.000505
-0.360268 0.393134 -0.400830
-0.016084 -0.842227 0.413240
-0.012402 -0.841365 0.411817
-0.003842 0.420705 -0.885100
0.426912 -0.803431 -0.003176
-0.444894 0.001006 -0.857128
-0.023230 -0.844624 -0.438386
-0.419722 -0.421027 0.392418
0.875599 0.014278 0.406420
-0.435512 -0.871867 0.002741
0.404971 -0.029944 -0.837678
-0.357454 0.394146 -0.400536
0.853699 -0.012186 -0.415075
-0.419380 -0.420750 0.393384
0.457652 0.867183 -0.016152
0.020004 0.836680 0.407781
0.456164 0.867508 -0.017277
-0.886686 -0.417986 -0.003804
-0.420958 -0.421792 0.393808
-0.852015 -0.003101 0.428649
0.403926 -0.028781 -0.835869
0.459328 0.867182 -0.018446
-0.854132 0.395075 -0.003079
0.881264 -0.440950 -0.007977
0.407597 -0.404175 -0.414732
0.404587 -0.028939 -0.837752
0.427363 -0.802543 -0.002583
-0.445047 0.001670 -0.857504
-0.864951 -0.002475 -0.434911
0.004193 0.911504 -0.410594
0.824197 0.429544 -0.038445
-0.436513 -0.871851 0.000711
0.004129 0.911709 -0.412276
0.825311 0.430472 -0.037884
0.019785 0.834965 0.407734
-0.447055 0.001545 -0.856837
-0.399392 0.832058 0.018683
0.459434 0.867654 -0.016518
-0.012735 -0.463432 -0.876530
0.407733 -0.401811 -0.417153
0.426673 -0.378218 0.439849
0.458307 0.867555 -0.017144
0.426952 -0.800741 -0.001625
-0.008674 0.436520 0.865137
-0.358299 0.395923 -0.400985
-0.012096 -0.841606 0.412021
-0.446017 0.000919 -0.857969
0.879799 -0.442278 -0.005254
-0.435019 -0.871720 0.000861
-0.856822 0.398154 -0.004337
-0.418889 -0.420979 0.393201
-0.864040 -0.001829 -0.434404
0.403698 -0.028102 -0.837015
0.021672 0.835013 0.408930
0.425462 -0.802328 -0.002198
-0.012443 -0.841735 0.411542
0.855131 -0.015257 -0.417428
-0.434993 -0.873322 0.001873
-0.002766 -0.433814 0.882413
-0.002495 0.417503 -0.884757
-0.359700 0.394632 -0.401174
-0.857887 0.398021 -0.003733
0.457365 0.866463 -0.017824
-0.397549 0.833574 0.020627
-0.852565 -0.003464 0.429779
0.879629 -0.441566 -0.007320
-0.419433 -0.422445 0.395732
0.386978 0.423339 -0.455401
-0.417627 -0.442452 -0.409227
-0.013972 -0.842161 0.413016
0.403932 -0.030476 -0.838668
-0.419784 -0.420572 0.393907
-0.398249 0.831704 0.018226
0.447906 0.010366 0.871405
0.456645 0.865913 -0.017299
-0.887131 -0.417139 -0.003388
-0.399394 0.832142 0.018871
0.448848 0.009418 0.872999
0.874687 0.014749 0.406874
-0.360196 0.395026 -0.403233
-0.420568 -0.422816 0.394740
0.418784 0.419876 0.460063
-0.851086 -0.003875 0.429282
0.426681 -0.376304 0.439369
-0.359576 0.392770 -0.400743
-0.009482 0.436760 0.865489
-0.007369 0.435533 0.864481
0.874968 0.016153 0.408334
0.021453 0.835598 0.408903
-0.434620 -0.869764 -0.001049
-0.008812 0.437365 0.865138
0.446965 0.010509 0.871445
0.447466 0.009065 0.872559
-0.014042 -0.844495 0.411515
-0.003966 0.420881 -0.885397
0.445325 0.011086 0.875099
0.020251 0.835890 0.406539
-0.864006 -0.000516 -0.433422
-0.360733 0.393444 -0.401447
0.426056 -0.801951 -0.002502
-0.416053 -0.440497 -0.408960
-0.360239 0.394942 -0.403264
0.456529 0.866906 -0.017958
-0.008938 0.438337 0.866713
-0.359099 0.393837 -0.400803
0.418550 0.421026 0.458021
0.019531 0.833053 0.408081
0.386555 0.423945 -0.457186
0.448294 0.010107 0.872499
0.000876 -0.432179 0.883026
0.854680 -0.011696 -0.417587
-0.864528 -0.001625 -0.432070
0.426622 -0.379797 0.438203
0.882161 -0.442191 -0.008383
-0.436466 -0.872724 0.000019
0.426883 -0.378485 0.438837
0.856253 -0.013455 -0.416059
0.458098 0.868224 -0.017490
-0.854847 0.398274 -0.002898
-0.021566 -0.844732 -0.440523
-0.445244 0.002747 -0.856493
-0.864276 -0.001246 -0.431998
0.020853 0.835429 0.408613
0.824507 0.431234 -0.037780
0.426594 -0.378540 0.439681
-0.007934 0.434117 0.866125
0.447047 0.010639 0.873088
-0.855782 0.396918 -0.002798
-0.417519 -0.419727 0.394985
-0.437781 -0.871944 0.000932
0.880298 -0.442428 -0.006592
-0.886683 -0.416074 -0.005842
0.020862 0.834823 0.407926
-0.409635 -0.006712 0.871082
0.825433 0.429048 -0.036124
-0.023320 -0.845226 -0.440357
-0.003250 0.419322 -0.885039
0.004353 0.909078 -0.412366
-0.022285 -0.844700 -0.440459
0.855169 -0.013260 -0.418329
0.020591 0.833595 0.407665
-0.001241 -0.432113 0.882776
0.447402 0.011064 0.873492
-0.000086 -0.431442 0.882027
0.882073 -0.440935 -0.006186
0.457918 0.866497 -0.017459
0.875035 0.015665 0.409160
0.386875 0.423235 -0.455625
-0.863247 -0.003365 -0.434120
0.825303 0.429597 -0.037421
-0.411295 -0.005199 0.873264
0.457194 0.867463 -0.018921
-0.398765 0.831776 0.017397
0.874358 0.013588 0.406852
-0.012421 -0.840559 0.414464
0.880959 -0.443049 -0.005509
-0.014150 -0.462386 -0.878746
-0.852515 -0.003855 0.429329
0.003173 0.910389 -0.412705
0.021552 0.832931 0.407935
0.874933 0.016865 0.406208
-0.399373 0.831879 0.020393
-0.427338 0.419357 0.456815
-0.359280 0.392746 -0.401505
0.385939 0.425841 -0.456474
-0.436139 -0.873596 0.001132
-0.855420 0.396316 -0.002710
-0.398270 0.832174 0.018024
0.880144 -0.442959 -0.006000
-0.886026 -0.417202 -0.003019
0.823981 0.429827 -0.036829
0.446858 0.010235 0.871233
0.458600 0.867451 -0.016607
0.854313 -0.011768 -0.416846
-0.002939 0.418247 -0.884191
-0.856651 0.396934 -0.003126
-0.397526 0.834022 0.019536
0.021766 0.833737 0.407290
