OFF
256 0 0
0.415440 0.003410 0.861534
0.005663 0.443981 0.856973
0.862553 -0.443833 0.021246
0.356609 -0.392761 -0.355954
0.011558 0.879337 0.446595
-0.852736 0.419084 -0.013609
-0.003852 -0.872497 -0.442463
-0.405182 0.012114 -0.862602
-0.874372 0.021957 0.427598
-0.866684 -0.426543 -0.008651
0.884504 0.425099 0.002977
-0.424073 -0.418083 0.390123
0.863036 -0.443279 0.020411
-0.424908 -0.415954 0.389797
-0.398016 0.425397 -0.461784
-0.013071 -0.423276 0.834406
-0.435202 -0.898244 -0.030046
-0.387124 0.399885 0.405367
0.412893 0.439842 0.427325
0.863621 -0.443104 0.021410
0.002067 0.442026 -0.891646
-0.003228 -0.872076 -0.443713
0.359530 -0.393801 -0.356842
-0.424531 -0.420425 0.389561
0.017112 0.877236 0.445674
-0.405048 0.012279 -0.863753
0.863032 -0.441615 0.020234
-0.415779 -0.389235 -0.415638
-0.013688 -0.420238 0.833231
0.435541 -0.876443 0.007707
-0.385747 0.398894 0.402731
-0.840583 0.014726 -0.437367
0.400033 0.007663 -0.832684
0.856492 -0.023601 -0.391666
-0.867026 -0.426143 -0.008455
0.002559 0.442106 -0.889551
-0.416593 -0.386940 -0.415530
-0.385902 0.398608 0.404136
-0.012287 -0.423244 0.832470
0.358316 -0.391443 -0.357308
0.432905 -0.875851 0.006718
-0.416003 -0.389250 -0.416331
0.358042 -0.392534 -0.356864
-0.398118 0.425183 -0.464329
-0.417157 -0.000344 0.862555
-0.002618 -0.416035 -0.863820
-0.873182 0.020470 0.427031
0.854640 -0.023535 -0.389088
-0.011879 -0.423108 0.832910
0.412821 0.441994 0.426938
-0.866195 -0.425305 -0.008239
-0.435932 -0.897291 -0.028866
0.389696 0.388598 -0.386463
-0.398070 0.425626 -0.463057
-0.004121 -0.412642 -0.863552
0.013024 0.880201 0.447109
0.886100 0.425681 0.001238
0.413212 0.439261 0.427557
-0.003733 -0.870900 -0.443824
0.863650 -0.446011 0.020156
0.424527 0.842335 0.002387
-0.416246 -0.003211 0.861642
0.390779 0.388465 -0.387128
-0.399561 0.424722 -0.463099
-0.014288 -0.422705 0.831516
-0.013912 -0.421553 0.831229
-0.009834 -0.852990 0.415099
0.012874 0.879868 0.445702
0.885780 0.425051 0.001711
-0.853562 0.416162 -0.011558
0.412321 0.440093 0.428009
0.011418 0.878072 0.447417
-0.013013 -0.420832 0.832631
0.000496 0.441393 -0.891702
-0.414866 -0.390289 -0.415833
-0.415885 -0.390495 -0.417032
0.013094 0.857387 -0.418592
-0.434691 -0.899505 -0.028778
0.392451 0.388773 -0.387940
-0.839195 0.012741 -0.437931
-0.425096 -0.419465 0.390393
0.006213 0.445941 0.855010
-0.009281 -0.853871 0.417271
0.398561 0.006711 -0.834220
0.414318 0.439730 0.427079
-0.012260 -0.423711 0.833969
-0.865718 -0.426705 -0.008235
-0.396927 0.864452 0.020119
-0.417019 -0.389204 -0.418133
0.413663 0.442108 0.426641
-0.403721 0.012077 -0.864221
-0.417601 -0.003007 0.862319
-0.012015 -0.853412 0.416914
0.426451 -0.450948 0.418985
-0.416115 -0.389548 -0.415606
-0.874831 0.021948 0.426086
-0.407654 0.012009 -0.862055
0.391596 0.388144 -0.386675
-0.404686 0.011009 -0.862263
-0.405394 0.010276 -0.862057
-0.840117 0.011386 -0.437282
0.848883 -0.000040 0.417787
-0.840711 0.013331 -0.438187
0.357080 -0.392801 -0.356244
-0.417025 -0.389549 -0.417324
-0.837891 0.014154 -0.439311
-0.385556 0.397667 0.404730
0.006558 0.443815 0.854709
0.414306 0.001504 0.862396
-0.399569 0.424890 -0.462801
-0.425374 -0.419665 0.390656
-0.003757 -0.414005 -0.864169
0.011962 0.878888 0.446102
-0.395633 0.866560 0.018495
-0.874006 0.020370 0.428057
-0.414544 -0.388509 -0.415761
-0.855119 0.417908 -0.013605
-0.398196 0.425010 -0.464778
0.884932 0.426450 0.003593
0.006283 0.444516 0.854685
0.356059 -0.394392 -0.358021
-0.398346 0.427149 -0.461456
-0.404988 0.012417 -0.861643
0.356787 -0.390827 -0.356918
-0.435764 -0.899360 -0.028098
-0.839972 0.013313 -0.436033
-0.873933 0.021218 0.425704
0.415186 0.001685 0.862779
-0.866819 -0.425227 -0.006440
-0.386619 0.396031 0.403918
0.422892 0.842046 0.000854
0.848657 0.001246 0.416806
0.422443 0.840726 -0.000289
0.389628 0.389158 -0.385902
0.434404 -0.876194 0.007617
-0.435486 -0.899909 -0.029054
0.014634 0.857415 -0.419069
0.415750 0.003865 0.864711
-0.838496 0.013378 -0.438394
-0.385299 0.398499 0.404073
-0.404547 0.011564 -0.862056
-0.012736 -0.420828 0.834686
-0.012496 -0.420771 0.832869
0.849313 0.000895 0.418817
-0.008224 -0.853757 0.417058
-0.405616 0.010975 -0.863309
-0.005567 -0.871996 -0.443685
0.012865 0.856401 -0.420071
-0.418481 0.000732 0.862804
0.862317 -0.442718 0.020900
0.863764 -0.443508 0.022058
-0.404263 0.012164 -0.862946
-0.866897 -0.423910 -0.009458
0.391959 0.388928 -0.386872
0.007666 0.444262 0.856566
0.389941 0.389380 -0.385567
0.398249 0.007063 -0.834227
0.865130 -0.442901 0.019275
-0.425156 -0.419542 0.390422
0.416383 0.000948 0.863699
-0.414297 -0.388023 -0.415835
0.001186 0.441951 -0.889816
-0.005151 -0.871723 -0.442774
0.356989 -0.393596 -0.356675
-0.424853 -0.416147 0.389730
-0.839899 0.012508 -0.437517
0.399138 0.006556 -0.834651
0.424346 0.842088 0.000442
-0.873495 0.019710 0.426796
-0.422296 -0.418803 0.387264
0.008105 0.442999 0.855231
-0.009984 -0.851679 0.417361
0.391321 0.389101 -0.387068
0.862921 -0.443384 0.019950
-0.422899 -0.418463 0.390429
-0.425195 -0.418796 0.388581
-0.416154 0.000287 0.860508
0.392178 0.388671 -0.387453
-0.013979 -0.421245 0.832777
-0.415165 -0.388573 -0.416621
0.424076 0.842296 0.001366
-0.001769 -0.414711 -0.863799
0.884946 0.424417 0.002484
0.392356 0.389591 -0.388384
0.391361 0.387588 -0.387692
0.000883 0.441726 -0.892062
0.359050 -0.393737 -0.358911
0.007351 0.443271 0.854297
-0.423452 -0.417800 0.389137
-0.406683 0.011543 -0.864067
0.401272 0.007978 -0.833641
0.356521 -0.391912 -0.356212
0.860791 -0.444104 0.020676
-0.874857 0.021440 0.426428
-0.866009 -0.427279 -0.008423
0.860974 -0.441512 0.020911
-0.397228 0.865908 0.019766
0.013201 0.878603 0.446766
0.012875 0.856275 -0.419205
0.398007 0.005407 -0.835495
0.862378 -0.442692 0.021526
-0.405717 0.012470 -0.862792
-0.000768 -0.415528 -0.862924
0.434307 -0.876654 0.008344
-0.840643 0.011125 -0.437732
-0.840253 0.012845 -0.438591
-0.424689 -0.416615 0.389057
-0.387283 0.398242 0.403343
-0.416934 -0.391278 -0.416134
-0.852405 0.418015 -0.012795
-0.424933 -0.419076 0.389164
0.413499 0.441513 0.426749
-0.417686 -0.001628 0.862200
0.004037 0.440104 -0.890689
-0.854123 0.417234 -0.012961
0.422738 0.843977 0.001516
0.006162 0.445340 0.854592
-0.436898 -0.899847 -0.028293
-0.418819 -0.002550 0.861250
0.847552 0.001406 0.415939
-0.399839 0.425736 -0.462619
0.433476 -0.876643 0.007786
-0.397900 0.865296 0.019369
0.413947 0.003848 0.863788
-0.853749 0.418359 -0.013328
-0.387261 0.399025 0.405706
0.357742 -0.391386 -0.356512
-0.009619 -0.851889 0.415648
0.014325 0.854946 -0.418845
0.861086 -0.445509 0.021138
0.857729 -0.023724 -0.390679
0.358054 -0.392462 -0.357391
-0.425811 -0.418251 0.387695
-0.387341 0.398370 0.404463
0.884966 0.425187 0.002747
-0.839811 0.014689 -0.437334
-0.424476 -0.419389 0.388889
0.399801 0.007310 -0.832898
0.412158 0.439808 0.426938
0.397756 0.008133 -0.833910
0.847941 0.001446 0.417983
0.358292 -0.392197 -0.357708
-0.386591 0.396616 0.404096
-0.012871 -0.422880 0.830568
-0.874426 0.022755 0.425313
-0.852732 0.415991 -0.011609
0.884425 0.424642 0.002651
-0.437828 -0.901676 -0.028462
-0.384440 0.398526 0.404464
0.397854 0.006993 -0.834297
-0.386185 0.399118 0.403137
0.003601 0.441043 -0.890628
-0.387077 0.397331 0.403192
0.015054 0.856521 -0.420898
-0.399649 0.427439 -0.461300
0.855497 -0.023875 -0.392573
