OFF
256 0 0
-0.408835 -0.016239 0.834527
0.001867 0.438618 -0.857688
-0.449764 -0.414357 -0.431101
-0.407542 -0.016443 0.836150
0.415155 -0.891297 -0.019632
0.855688 -0.004547 -0.403720
0.889020 0.457134 0.007959
-0.422613 0.885482 0.012165
-0.000572 0.851099 -0.405832
-0.881125 0.451346 0.028271
0.862285 0.036906 0.391678
0.888508 0.456134 0.008582
-0.453513 -0.879018 -0.018498
0.857295 -0.005865 -0.402063
0.025253 0.882863 0.446699
0.408218 0.428673 0.430700
-0.450897 -0.413188 -0.432117
0.857478 -0.004745 -0.401365
-0.421439 0.885140 0.011823
-0.884943 -0.453921 -0.020282
-0.399183 0.425568 0.431754
0.856270 -0.005840 -0.402893
0.015555 -0.863463 0.416255
0.408750 0.428980 0.432156
0.017634 -0.863965 0.412655
-0.884036 0.449249 0.026563
-0.011098 -0.439570 0.844329
0.408264 0.428020 0.432661
-0.422265 0.884668 0.010225
0.864840 0.038107 0.390999
-0.008408 -0.436649 0.843259
-0.884120 -0.452737 -0.021416
0.863275 0.038163 0.391819
0.860493 -0.447696 -0.004484
-0.008237 -0.439026 0.843405
0.434904 0.875777 0.001136
-0.401415 0.429260 0.431930
0.406843 0.429480 0.431213
0.001101 0.850700 -0.403857
0.432434 -0.438610 -0.410116
0.024355 0.882077 0.445986
0.860513 -0.448202 -0.005473
-0.011632 -0.441712 -0.861278
0.858699 -0.006926 -0.402706
-0.002046 0.848772 -0.405906
-0.447158 -0.413514 -0.431330
0.432551 -0.013217 -0.876925
-0.408377 -0.015585 0.833496
0.857490 -0.007694 -0.402633
-0.405187 -0.450181 0.397099
0.021928 0.882652 0.448671
-0.882859 0.450305 0.027696
-0.884070 0.447411 0.026016
0.862173 -0.446986 -0.004420
-0.453246 -0.879778 -0.019863
0.423784 -0.419481 0.422166
-0.450203 -0.414647 -0.429370
0.860922 -0.448842 -0.003816
-0.013290 -0.442863 -0.863092
0.890576 0.457693 0.007322
0.432865 0.875585 0.001237
-0.448413 -0.414563 -0.431908
-0.011498 -0.435984 0.844371
0.415585 -0.892118 -0.020286
-0.009717 -0.435971 0.842980
-0.032589 -0.886417 -0.422457
-0.449400 -0.415534 -0.430396
0.864003 0.035954 0.394420
-0.009963 -0.438267 0.845897
0.887672 0.455671 0.007621
0.434422 0.876324 0.002416
-0.420160 0.003183 -0.850544
-0.030443 -0.888438 -0.422668
-0.008107 -0.438466 0.845177
0.015660 -0.863219 0.416002
-0.027486 -0.887170 -0.422402
-0.446973 -0.415425 -0.430048
-0.885424 -0.452380 -0.020161
-0.419193 0.003478 -0.849867
-0.422775 0.883494 0.011441
-0.401986 0.426113 0.429785
0.002100 0.440525 -0.859354
0.434000 -0.009681 -0.875845
0.433386 0.874463 0.000629
0.860720 -0.446795 -0.005412
-0.406718 -0.017447 0.834505
-0.882658 0.005318 -0.409708
-0.449072 -0.414380 -0.431590
0.890299 0.458589 0.006796
0.408911 0.429430 0.429435
-0.404105 -0.451493 0.397358
0.432494 -0.439290 -0.410741
0.000279 0.849925 -0.404737
-0.885785 -0.454097 -0.020221
-0.454198 -0.880148 -0.020462
-0.407057 -0.016759 0.835202
0.436011 0.455368 -0.399662
-0.421996 0.002183 -0.850797
0.409631 0.429668 0.430310
-0.406340 -0.015305 0.832536
-0.447896 0.405015 -0.379943
0.002373 0.850772 -0.404881
-0.448698 0.402575 -0.378804
0.414259 -0.891936 -0.020595
0.890170 0.456884 0.008484
-0.030035 -0.888042 -0.422666
-0.886171 -0.451500 -0.020143
-0.420667 0.004305 -0.850900
-0.008912 -0.438752 0.844776
0.435568 0.456102 -0.399206
-0.881186 0.006810 -0.408619
-0.027474 -0.887090 -0.422711
-0.011148 -0.436700 0.845475
-0.408028 -0.015910 0.835348
-0.422363 0.001919 -0.850794
-0.881904 0.448194 0.027853
-0.000497 0.850840 -0.404218
0.434457 0.456886 -0.397602
-0.448321 -0.413943 -0.429570
-0.009490 -0.437194 0.843593
-0.449278 -0.415642 -0.433408
-0.421739 0.003158 -0.848829
0.025275 0.881587 0.448731
0.455576 0.013065 0.859618
0.431356 -0.437671 -0.409076
-0.420523 0.005260 -0.851000
-0.453668 -0.880124 -0.019717
0.024874 0.883632 0.448135
-0.000579 0.849135 -0.405338
0.421000 -0.416889 0.420366
0.888007 0.457272 0.007911
0.434061 -0.011159 -0.876720
-0.405439 -0.451467 0.397918
-0.448945 0.402179 -0.381579
-0.449617 -0.415022 -0.430272
0.890472 0.458521 0.005793
-0.453297 -0.879759 -0.019176
-0.422820 0.888165 0.013056
-0.884103 -0.451629 -0.020975
-0.848300 -0.007988 0.383979
-0.421377 0.003050 -0.850227
-0.848904 -0.008347 0.383416
-0.883863 0.449031 0.025824
0.432834 -0.438517 -0.410063
0.003618 0.438312 -0.858347
-0.399682 0.425393 0.431097
-0.448282 0.403705 -0.378171
-0.014635 -0.442455 -0.861036
-0.884401 -0.452858 -0.020368
-0.406987 -0.016542 0.833870
0.015022 -0.862935 0.416749
-0.447005 0.402800 -0.377692
0.862672 0.036238 0.392786
-0.447611 -0.414474 -0.431329
0.407400 0.431846 0.432354
0.414650 -0.890398 -0.019522
-0.422190 0.886478 0.010971
-0.406842 -0.016852 0.835428
-0.846817 -0.009154 0.382771
-0.406571 -0.017091 0.836234
0.859536 -0.006832 -0.403450
-0.399740 0.426016 0.430585
0.433886 0.874944 0.003222
0.857530 -0.006044 -0.401750
-0.881315 0.449723 0.029346
0.422730 -0.417097 0.421874
0.421483 -0.417879 0.422332
-0.420823 0.884166 0.012876
-0.401723 0.425731 0.431464
0.003460 0.438727 -0.858223
-0.881612 0.451094 0.027407
-0.447902 -0.415826 -0.430150
0.435090 -0.012721 -0.877912
-0.406319 -0.452214 0.398024
0.432313 -0.438745 -0.410308
-0.420770 0.885628 0.012376
-0.883750 0.450150 0.027942
0.000553 0.852260 -0.404709
0.005253 0.456011 0.860164
0.421350 -0.419025 0.421115
-0.880891 0.005139 -0.408706
0.014364 -0.864741 0.415441
-0.421170 0.884076 0.013629
0.418981 -0.418641 0.421911
-0.847986 -0.008162 0.383280
0.421336 -0.420438 0.422609
0.421021 -0.417787 0.420404
0.857563 -0.006264 -0.402120
0.000587 0.851241 -0.404864
0.857969 -0.005451 -0.401046
0.888505 0.457630 0.007605
-0.422549 0.884571 0.010920
-0.420834 0.884390 0.013239
0.003124 0.438212 -0.857286
-0.400085 0.425617 0.432494
-0.848693 -0.009485 0.382278
0.861779 0.036095 0.391834
-0.028222 -0.887166 -0.420729
-0.848555 -0.006690 0.382610
0.435410 0.873082 0.000746
0.432263 -0.441320 -0.411383
-0.421459 0.885781 0.011028
-0.400138 0.425964 0.431317
0.419166 -0.418993 0.422918
0.432071 -0.438184 -0.410951
0.433089 0.457976 -0.399239
0.859045 -0.006920 -0.402859
0.417242 -0.891004 -0.019442
-0.454472 -0.881869 -0.021401
-0.030824 -0.885810 -0.423625
0.433954 0.459151 -0.400548
-0.402021 0.426202 0.431552
-0.849410 -0.008837 0.383425
0.862000 -0.448310 -0.003341
-0.447949 0.404512 -0.379701
0.865227 0.036521 0.391715
-0.013118 -0.442409 -0.860298
0.457718 0.010220 0.861080
-0.421251 0.884324 0.010752
-0.882859 0.450897 0.027824
0.431254 -0.013441 -0.877275
0.026304 0.882632 0.446580
0.417317 -0.890803 -0.021643
0.006495 0.457390 0.860484
0.432724 -0.014152 -0.876916
-0.883753 -0.452653 -0.019596
-0.448956 -0.415201 -0.429841
-0.027659 -0.886775 -0.422207
0.889487 0.457035 0.007790
0.863712 0.036850 0.390906
0.014394 -0.864133 0.413184
-0.405531 -0.017890 0.833218
0.863039 0.038836 0.392036
-0.420856 0.886354 0.010125
-0.453628 -0.881017 -0.020558
-0.000533 0.849959 -0.404024
-0.010087 -0.437721 0.843605
-0.885276 -0.454550 -0.021269
-0.447268 0.403457 -0.380201
-0.404452 -0.451640 0.398623
0.015350 -0.863743 0.416871
-0.401287 0.425536 0.432319
-0.031399 -0.886714 -0.421827
0.434371 0.455218 -0.399517
0.434116 0.455901 -0.399753
-0.848966 -0.007654 0.383316
0.417676 -0.890805 -0.020292
0.432076 0.876641 0.000263
-0.421717 0.005180 -0.850907
-0.407141 -0.449309 0.398169
0.433123 0.455881 -0.401087
-0.452339 -0.882169 -0.021692
-0.447870 0.404374 -0.376229
0.001437 0.852205 -0.403664
0.002572 0.438390 -0.857484
0.407405 0.430684 0.429936
