OFF
256 0 0
-0.413688 -0.413181 0.497341
-0.048050 -0.780695 -0.236863
-0.414666 -0.046422 -0.604323
-0.413106 -0.414687 -0.236733
0.319822 0.319642 0.498779
0.319329 -0.413316 0.498301
-0.415205 0.687761 0.129539
0.319272 0.686356 0.130043
0.321530 -0.047541 -0.603418
-0.782007 0.319317 0.132096
-0.414930 0.319678 0.496569
-0.047624 -0.413664 -0.603369
0.686025 -0.412471 0.128420
0.318539 -0.415006 -0.236773
-0.414974 -0.414070 -0.235759
-0.779846 -0.048682 0.497088
0.686565 0.687283 -0.237268
0.686276 -0.047486 0.497397
0.686431 -0.047434 0.498206
-0.414766 -0.047358 -0.604466
0.320365 0.686492 0.129659
-0.416244 -0.414709 -0.236941
0.687043 0.320383 0.130864
0.685572 -0.047838 0.497196
-0.413855 0.320143 -0.239260
-0.415170 -0.782178 0.130131
-0.780111 -0.413057 0.130979
0.319569 -0.780754 0.130767
-0.045863 0.688657 0.498679
0.320650 0.318597 0.494853
-0.047541 -0.782432 0.497768
-0.781415 -0.046862 0.497431
-0.415848 0.319086 0.495062
0.687509 -0.047386 -0.236322
-0.781582 -0.048256 0.498834
0.684680 0.317988 0.130335
-0.046646 -0.414878 -0.602411
-0.415007 0.319320 -0.234314
-0.414633 0.687196 0.131991
-0.048026 0.687637 -0.235495
0.319418 0.686125 0.129024
-0.412503 -0.415288 -0.238015
0.319827 -0.414979 0.498264
0.685897 0.688742 -0.236619
-0.414908 -0.045490 -0.603279
0.318759 -0.414068 -0.236937
-0.414785 0.320365 -0.235849
0.687759 -0.047553 0.496468
0.316645 0.319848 0.498959
-0.414982 0.686741 0.130194
-0.046633 -0.782980 0.497774
-0.414352 0.319663 -0.236042
-0.046949 0.318565 -0.604885
-0.049433 -0.781190 -0.237174
-0.414314 -0.047377 -0.604832
0.686154 0.317367 -0.605591
-0.413638 0.686889 0.130243
0.318823 -0.413319 0.496345
-0.045755 -0.413544 -0.603372
-0.416149 -0.414593 -0.234951
0.319365 -0.780282 0.129848
0.320683 -0.781319 0.128946
0.319419 0.686715 -0.605525
0.687227 0.320103 0.130694
-0.781241 -0.414772 0.130372
0.318401 -0.414591 -0.236102
-0.045858 0.686679 0.495962
0.688574 -0.046609 -0.235568
0.687818 0.687477 -0.238330
-0.045636 -0.413931 -0.602417
-0.415951 0.320315 0.498912
0.319527 -0.413380 -0.237662
-0.413344 0.320736 0.498071
-0.047769 -0.414858 -0.603561
-0.047567 -0.415680 -0.606135
-0.045948 0.686891 -0.236047
0.689137 -0.045604 0.497815
0.318848 -0.048271 -0.605357
0.320875 0.687850 -0.602958
-0.415590 0.318315 -0.237123
0.321566 -0.416285 0.495037
0.319588 0.318715 0.497121
0.686987 0.319869 0.130536
-0.782487 -0.415264 0.128995
0.320293 -0.781264 0.130062
0.686673 0.320427 0.131077
0.686960 0.688587 -0.235927
-0.782550 0.318775 0.129259
0.321319 -0.782581 0.131838
0.686951 0.321000 -0.602818
0.320678 0.319425 0.498837
-0.415447 -0.414451 0.497630
-0.414843 0.320384 -0.236944
-0.046442 -0.414602 -0.604465
-0.413427 0.320209 0.496922
-0.047370 -0.414439 -0.604902
0.320111 -0.780466 0.129552
0.685120 0.687170 -0.238205
-0.414573 -0.782850 0.128899
-0.048573 0.320063 -0.604102
0.688639 -0.047336 0.495833
-0.414538 -0.780927 0.129357
-0.782656 0.320273 0.128676
-0.783450 0.317584 0.130592
-0.047359 -0.046080 0.498453
-0.046980 0.687017 0.496491
0.687904 0.318279 -0.603042
0.319561 -0.049512 -0.602636
-0.414819 -0.780887 0.130744
-0.047359 -0.046679 0.496079
0.687580 -0.415406 0.130005
-0.780580 -0.415171 0.130100
0.686185 0.686107 -0.236435
-0.414370 -0.779762 0.130241
0.319005 -0.781032 0.130499
-0.779864 -0.412583 0.130158
0.319620 -0.414979 0.497913
-0.413696 -0.047248 -0.604413
0.321436 -0.046732 -0.602616
-0.046131 -0.782674 -0.236508
-0.046090 0.686872 -0.237818
-0.046670 -0.047344 0.497021
0.319933 0.685489 -0.603602
-0.413107 -0.046550 -0.604993
0.687054 -0.416087 0.130925
-0.413604 0.688021 0.129836
-0.781037 -0.047276 -0.236774
-0.414365 0.320754 -0.237436
0.687848 0.319400 0.129937
0.319924 0.685996 -0.602990
-0.414179 -0.413570 0.498768
0.688461 0.320653 0.129998
0.318901 0.322444 0.497339
0.686861 0.321039 0.130460
-0.416856 0.322682 0.498947
-0.415878 0.686083 0.129687
-0.414446 -0.413074 0.498302
0.687249 0.318527 -0.604318
-0.415341 0.319967 -0.236375
-0.048034 -0.413064 -0.602169
-0.414822 0.688654 0.130487
0.686275 -0.413593 0.128792
0.318254 -0.047287 -0.602356
-0.047226 -0.414459 -0.602407
0.688185 0.686548 -0.235988
0.687250 0.686217 -0.237051
0.318833 -0.782222 0.129712
-0.047950 -0.047298 0.500157
0.687167 -0.413585 0.130839
-0.416044 -0.782521 0.129681
-0.781731 -0.048472 -0.236472
-0.416097 -0.780445 0.128396
-0.782036 -0.048313 -0.237682
-0.414061 0.319584 -0.237677
-0.781186 -0.412832 0.128776
-0.781514 -0.048722 -0.237381
-0.414981 0.687070 0.129338
0.319975 -0.047535 -0.605389
0.320410 0.685813 -0.603982
-0.415480 -0.781611 0.130283
0.321466 -0.781872 0.130478
-0.047903 0.685451 -0.237588
0.318944 -0.415350 0.497179
-0.412377 0.683756 0.128885
-0.046725 -0.781699 -0.236622
-0.411996 -0.781687 0.130966
0.685392 -0.046988 0.497544
-0.414011 0.685630 0.129323
0.319664 0.319142 0.496374
-0.413572 0.318565 -0.238032
0.688096 -0.047573 0.496912
0.685536 0.319052 -0.603431
-0.780990 -0.047531 0.497751
-0.413423 0.318015 -0.239260
-0.413801 -0.416224 -0.236993
-0.413723 -0.415136 0.496608
0.319595 -0.412838 -0.236699
0.687816 -0.048088 0.496276
0.689573 -0.048544 -0.237411
-0.047000 0.686337 -0.236216
-0.415994 0.319184 -0.236398
0.686902 0.320718 0.129960
-0.414940 0.320138 0.496898
-0.047600 0.686712 -0.238285
0.686241 0.319019 -0.605008
-0.047713 -0.781922 -0.238095
-0.415229 0.321740 -0.237615
-0.412732 0.318767 0.497574
0.319859 -0.415569 -0.236188
-0.780060 0.320497 0.129330
-0.415732 -0.415157 0.498018
0.321151 -0.046224 -0.603168
0.319431 -0.048525 -0.603384
0.688767 0.688522 -0.236750
-0.781471 0.320744 0.130453
-0.414150 -0.414315 -0.238540
0.320433 -0.782366 0.128482
-0.048001 -0.415880 -0.603664
0.318985 0.319478 0.497506
0.686006 -0.415498 0.130178
-0.047284 0.687071 0.496695
0.319075 -0.413081 0.497463
-0.047834 0.686732 -0.237287
-0.047315 -0.781369 -0.236971
-0.415126 0.687322 0.129802
-0.046900 -0.782022 0.498269
-0.781590 -0.047641 -0.237408
0.687743 -0.414595 0.128753
-0.782201 0.318945 0.131389
-0.045965 -0.045271 0.497946
0.319653 0.319874 0.497072
-0.414063 -0.414097 0.498739
-0.414247 -0.781188 0.129917
-0.048177 0.320401 -0.603794
-0.047209 -0.780407 -0.237179
0.320275 -0.784567 0.128006
-0.046441 -0.414296 -0.603368
-0.414217 -0.414326 -0.236210
-0.413466 -0.415739 0.497847
-0.783139 0.319254 0.130556
-0.047612 -0.781361 0.497192
0.320814 0.686396 0.128005
0.686901 -0.414289 0.131245
-0.415560 -0.046724 -0.605082
-0.047733 -0.782732 0.499016
0.319100 0.687396 -0.603973
-0.046603 -0.047804 0.498129
0.687629 0.319560 -0.603088
-0.413598 0.319626 -0.235723
0.689279 -0.045511 -0.235823
-0.413313 -0.047922 -0.605132
-0.045922 0.687207 -0.233450
-0.046751 -0.048870 0.495253
-0.046039 0.686688 0.496310
-0.048184 0.686962 -0.235326
-0.047574 -0.781820 0.497757
-0.048180 0.321188 -0.603712
-0.047743 -0.412929 -0.602900
0.318974 -0.414443 0.497221
-0.047994 0.686819 -0.235287
0.686089 -0.048954 0.496926
-0.782188 -0.048112 -0.236237
-0.046702 -0.781179 -0.235065
0.320445 0.321039 0.497087
-0.048813 -0.784516 -0.236085
0.687456 0.318572 0.129376
-0.781352 -0.416241 0.129689
0.320204 -0.413712 -0.238837
-0.415620 -0.415182 0.497841
-0.782936 -0.047453 -0.235772
0.684660 -0.046631 0.497051
-0.781323 -0.415114 0.132639
0.688265 0.319206 -0.604876
0.689595 -0.047850 0.496927
-0.047227 -0.781601 -0.235793
-0.780730 -0.415438 0.129155
