OFF
256 0 0
-0.398736 -0.675379 0.042415
0.315414 -0.663788 -0.663837
0.676535 0.036449 -0.318670
-0.042611 0.409099 0.765417
0.313781 -0.665083 -0.663815
-0.395412 0.027813 0.746853
-0.762831 0.040382 -0.287325
-0.400871 -0.326907 -0.321946
-0.046155 0.743625 0.389945
0.316785 0.058345 -0.675901
0.676613 0.036545 -0.316920
-0.401205 -0.324959 -0.318647
-0.370731 0.381227 -0.286595
-0.400133 -0.324379 -0.321540
-0.752628 -0.306261 0.055058
-0.770616 0.394533 0.037882
-0.769765 0.395619 0.038188
-0.046676 0.726193 -0.287343
-0.400824 -0.678077 0.044738
-0.399794 -0.677480 0.045200
-0.042762 0.409662 -0.672691
-0.033988 -0.679570 0.388805
-0.395755 0.025280 0.745024
0.688542 0.054882 0.407273
-0.037732 -0.670371 -0.309451
-0.746080 0.054762 0.377243
-0.041005 0.409258 0.763917
-0.047717 0.723687 -0.286474
0.290759 0.047184 0.767841
-0.047594 0.743434 0.389392
-0.004467 -0.305900 -0.654672
-0.035466 -0.679755 0.386859
0.325778 0.383366 0.379780
0.322390 0.384953 0.376323
-0.395540 0.026580 0.747055
0.656452 -0.297033 0.031872
0.642673 -0.301526 -0.670009
-0.046261 0.742937 0.390569
-0.367642 0.379177 -0.286792
-0.043079 0.409967 -0.673811
-0.390717 -0.320407 0.402872
-0.037777 -0.668958 -0.308288
0.297999 -0.301856 0.378561
0.667634 -0.659521 -0.342226
-0.402450 0.746494 0.031733
-0.761499 0.040943 -0.287841
0.642120 -0.301153 -0.671690
0.688857 0.058032 0.405047
0.677697 0.037432 -0.316119
0.312784 0.398947 -0.310842
-0.034651 -0.679934 0.386979
-0.004730 -0.304236 -0.654467
0.297035 -0.301420 0.377619
-0.006173 -0.304957 -0.654433
-0.404713 0.745844 0.033614
-0.033717 -0.679702 0.385851
-0.035102 -0.680781 0.387562
-0.036684 -0.669201 -0.308823
0.309906 0.398854 -0.310785
-0.051913 -0.307217 0.744363
0.297876 -0.300876 0.378505
-0.047642 0.741066 0.389739
-0.037592 -0.667520 -0.308167
-0.036620 -0.680097 0.387822
0.315718 -0.662526 -0.661418
0.656009 -0.295937 0.033361
-0.400159 -0.678307 0.044431
0.655989 -0.297473 0.032557
-0.005353 -0.306014 -0.654701
-0.380612 0.032770 -0.650445
-0.371051 0.382126 -0.287365
-0.744882 0.054302 0.376730
-0.038004 -0.667383 -0.308938
-0.397559 0.403516 0.388104
-0.745002 0.055358 0.375157
0.324891 0.385104 0.378649
-0.050624 -0.306777 0.747003
0.302327 -0.655903 0.028659
0.679670 0.036760 -0.315677
-0.768598 0.396225 0.039485
-0.045168 0.724790 -0.288340
-0.403248 0.748183 0.031158
-0.761509 0.037623 -0.288355
0.299760 -0.300088 0.376429
-0.388541 -0.318315 0.401723
0.324248 0.384370 0.378261
-0.399258 -0.677746 0.044341
-0.047243 0.743118 0.392817
-0.744386 0.054670 0.377636
0.313214 -0.662999 -0.663950
-0.389579 -0.319183 0.401583
0.324418 0.384133 0.376629
-0.379318 0.029863 -0.650428
0.689025 0.055921 0.405096
0.291008 0.046041 0.768234
0.296862 -0.300689 0.376981
-0.399268 -0.324423 -0.321071
-0.770235 0.396172 0.040106
0.310227 0.744094 0.044151
0.677779 0.037822 -0.314543
0.668628 0.374110 0.040071
-0.043108 0.413236 -0.672160
-0.403145 0.748216 0.030387
-0.399935 -0.676535 0.045222
-0.771734 0.396536 0.038315
-0.041238 0.409375 0.765139
-0.395524 0.026333 0.745103
-0.397557 0.404910 0.389120
-0.044772 0.724424 -0.287713
-0.045225 0.723979 -0.287701
-0.394974 0.027977 0.746525
-0.046881 0.743339 0.392350
0.323752 0.383821 0.379250
-0.394702 0.028741 0.746555
-0.036789 -0.681762 0.387628
0.317346 0.058489 -0.676470
-0.388221 -0.319636 0.403503
0.666566 -0.661149 -0.340384
-0.046863 0.724068 -0.291198
0.308895 0.744734 0.044226
-0.047156 0.723739 -0.288376
0.643875 -0.301720 -0.671661
-0.004346 -0.304551 -0.654981
0.289470 0.046518 0.770055
0.310403 0.745388 0.044507
0.310968 0.397590 -0.310017
0.669601 -0.659009 -0.343384
-0.398018 0.404511 0.389607
-0.402181 -0.327275 -0.320449
-0.401013 -0.325473 -0.320742
0.324621 0.383266 0.380031
0.312367 0.397780 -0.310597
0.312917 -0.664420 -0.662055
-0.760068 0.039331 -0.287320
-0.042935 0.411245 -0.673830
-0.403346 0.746472 0.032995
-0.397756 0.401618 0.389446
-0.042534 0.409415 0.766021
-0.044280 0.408246 0.764339
0.303842 -0.656368 0.026372
0.313798 -0.662909 -0.662771
0.313468 -0.662866 -0.661479
0.655364 -0.297137 0.033242
-0.398418 0.402081 0.389106
0.679397 0.034948 -0.315196
-0.749823 -0.306716 0.053160
-0.402563 -0.325670 -0.322521
-0.394112 0.026915 0.748767
-0.005289 -0.305661 -0.653908
-0.045386 0.744464 0.392349
-0.369290 0.381102 -0.286646
0.309250 0.744235 0.043474
0.303318 -0.655061 0.027889
-0.771532 0.396181 0.038866
-0.393413 0.026369 0.748148
0.677910 0.036694 -0.318391
-0.397898 0.403128 0.388145
-0.389796 -0.319467 0.402751
-0.380651 0.032633 -0.648481
0.302380 -0.656762 0.027325
-0.042886 0.410469 0.764258
0.304547 -0.654703 0.026592
-0.744969 0.055461 0.376038
0.290435 0.046664 0.770462
-0.380280 0.032624 -0.651727
0.668752 -0.660080 -0.342756
-0.047322 0.723342 -0.286290
0.668069 0.372114 0.040150
-0.401983 -0.324284 -0.322445
-0.038201 -0.668866 -0.307644
-0.033976 -0.681221 0.387627
-0.745349 0.055089 0.377280
-0.402231 -0.325349 -0.321803
-0.005543 -0.305440 -0.654937
-0.047925 0.742656 0.390251
0.314109 -0.663521 -0.662942
-0.047023 0.724998 -0.288059
0.309379 0.745040 0.042277
-0.399179 0.403536 0.387250
-0.398736 0.404949 0.387018
0.302690 -0.657436 0.026761
-0.047549 0.724748 -0.289696
0.669072 -0.660324 -0.341038
0.668103 -0.659685 -0.342632
0.303184 -0.656103 0.026412
0.291697 0.046022 0.767381
-0.045101 0.743491 0.390974
-0.750237 -0.305187 0.054144
-0.049323 -0.306662 0.746632
-0.041361 0.411597 -0.673793
0.654112 -0.297943 0.033478
-0.762437 0.041090 -0.288218
-0.051475 -0.307392 0.746151
0.657003 -0.295942 0.033117
-0.403197 -0.324520 -0.321517
0.311229 0.396630 -0.311162
0.296543 -0.301849 0.378212
-0.763354 0.041328 -0.289040
-0.400476 -0.325529 -0.320687
0.667689 0.373387 0.040980
0.298373 -0.301554 0.379196
-0.045624 0.745132 0.389644
-0.005060 -0.304709 -0.653897
-0.046446 0.743580 0.391839
-0.368478 0.382096 -0.286505
0.678132 0.037558 -0.316492
-0.040205 0.409305 0.765196
-0.389074 -0.317055 0.403219
-0.746797 0.054137 0.375636
0.669324 0.374821 0.038404
-0.006675 -0.306098 -0.654689
-0.403895 0.747549 0.031604
-0.046441 0.723872 -0.287478
-0.047336 0.744110 0.389810
-0.004052 -0.304638 -0.654351
0.325057 0.384856 0.380623
-0.404182 0.746858 0.031188
-0.388696 -0.318133 0.404023
0.290973 0.046301 0.767138
0.301520 -0.656681 0.026564
-0.399837 -0.326383 -0.321780
-0.381395 0.034602 -0.652244
0.656042 -0.295958 0.031685
-0.037998 -0.668271 -0.307849
-0.403459 0.748885 0.030693
0.312587 0.746108 0.044698
-0.035829 -0.679605 0.387616
0.678883 0.036031 -0.316503
0.311701 0.396500 -0.309021
-0.400417 -0.325813 -0.320955
-0.050168 -0.306917 0.746445
-0.369369 0.380636 -0.285165
-0.037273 -0.681397 0.387700
0.310552 0.395845 -0.310714
-0.038515 -0.670566 -0.309116
0.288270 0.048047 0.768713
-0.761440 0.038961 -0.288538
-0.036746 -0.681465 0.387610
-0.752368 -0.307796 0.054035
-0.381394 0.031620 -0.650969
-0.399152 -0.677992 0.044932
-0.038872 -0.670565 -0.307899
-0.038789 -0.669022 -0.309351
-0.401588 -0.327926 -0.319139
-0.752712 -0.305950 0.053154
-0.037159 -0.679764 0.388533
0.688421 0.058368 0.403855
0.324959 0.384064 0.379028
0.311023 0.398209 -0.310468
-0.050730 -0.307583 0.745481
-0.402611 0.747290 0.030045
-0.770845 0.395703 0.038254
0.668824 0.375002 0.040732
-0.041084 0.409231 0.765645
0.686003 0.056706 0.405302
-0.395860 0.025526 0.746666
