OFF
256 0 0
-0.381832 0.371620 0.386649
0.302292 0.400313 -0.277339
-0.391458 -0.653157 0.032566
0.294171 0.760095 0.030757
0.295175 0.762642 0.028733
-0.381602 0.371534 0.384774
-0.031962 -0.663454 -0.302983
0.318643 -0.668675 0.053688
0.331986 0.403303 0.395700
0.314525 -0.641857 -0.665995
-0.761362 0.365646 0.050087
-0.771326 0.036762 -0.327245
0.678319 0.029308 -0.329266
-0.033019 -0.664233 -0.302596
-0.391406 -0.303713 -0.329838
-0.369114 0.745963 0.048891
0.303432 0.398466 -0.275909
-0.382182 0.371725 0.385319
0.312881 -0.309403 0.391813
-0.390791 -0.652840 0.033759
0.314517 -0.642544 -0.666270
0.315666 -0.640916 -0.666417
-0.391808 -0.653892 0.035196
-0.403373 0.370879 -0.298071
-0.054072 0.404040 0.758667
0.679169 0.026074 -0.330409
-0.768918 0.031529 0.407959
-0.760972 0.365467 0.049252
0.313653 -0.307156 0.390126
0.293601 0.761502 0.030601
-0.400663 0.039645 -0.667100
0.303848 0.398907 -0.276639
-0.390181 -0.279582 0.375100
-0.386678 0.044941 0.741940
0.678357 -0.322519 -0.660822
-0.044240 -0.661131 0.408817
-0.046892 0.398170 -0.647150
0.306400 0.053484 0.754396
-0.390583 -0.279508 0.374089
-0.033575 -0.664377 -0.302697
-0.769713 0.033822 0.408244
-0.032569 -0.665685 -0.302154
-0.771587 0.036821 -0.327117
-0.404171 0.370798 -0.297605
0.698880 -0.314186 0.046520
-0.387827 0.045072 0.741120
0.315311 -0.641684 -0.664742
0.332339 0.404352 0.394510
0.291079 0.762209 0.029799
-0.048683 0.399343 -0.646325
-0.771975 0.032035 0.409640
0.331756 0.402944 0.395364
-0.390715 -0.652419 0.033143
0.302794 0.400362 -0.276925
0.318088 -0.669531 0.052359
0.696187 -0.317291 0.044406
0.679690 0.029393 -0.327504
-0.045276 -0.661379 0.410928
-0.750917 -0.307273 0.032484
0.316594 -0.641868 -0.663830
0.678663 -0.325044 -0.659407
0.665873 0.036849 0.385028
0.314713 -0.643287 -0.665247
0.662709 0.367692 0.034006
0.302874 0.062239 -0.665939
-0.771045 0.037253 -0.328459
-0.390996 -0.654531 0.033884
-0.369870 0.747093 0.049461
0.639608 -0.675922 -0.308401
-0.770249 0.032606 0.408129
0.696747 -0.315550 0.045110
-0.401461 0.371483 -0.297019
-0.759678 0.364324 0.049128
-0.391675 -0.653793 0.034009
0.313512 -0.307568 0.390985
-0.036711 -0.307979 -0.690710
-0.401990 0.372220 -0.297374
0.662343 0.368826 0.033074
-0.049453 -0.307035 0.746764
0.680012 0.029020 -0.328992
0.676403 -0.323927 -0.657481
-0.035110 0.736196 0.400588
-0.752942 -0.308506 0.032460
-0.751610 -0.311517 0.028826
-0.390472 -0.302926 -0.328425
-0.035037 0.766157 -0.310418
0.305607 0.060511 -0.665825
-0.034184 0.765580 -0.309969
0.637949 -0.677030 -0.308580
-0.036447 0.733127 0.400267
0.304507 0.061568 -0.665190
-0.390420 -0.303796 -0.328189
0.303088 0.062949 -0.665510
0.332042 0.400942 0.394837
-0.389999 -0.279350 0.373852
-0.387079 0.044430 0.740793
-0.759391 0.362205 0.047889
0.696651 -0.316948 0.045527
0.680469 0.026503 -0.328435
-0.390969 -0.303860 -0.327298
-0.381105 0.370487 0.385821
0.313860 -0.309966 0.390807
0.679002 0.026717 -0.328225
0.639618 -0.674501 -0.309239
-0.772667 0.038076 -0.327681
0.305231 0.056111 0.752766
-0.368762 0.747744 0.049245
-0.769400 0.032843 0.408869
0.303417 0.053617 0.751592
-0.054546 0.404700 0.758264
0.663786 0.368589 0.033548
0.293429 0.763471 0.029814
-0.033323 0.765869 -0.310152
0.315056 -0.642512 -0.665070
-0.051640 -0.308013 0.746727
0.303280 0.061881 -0.664872
-0.391819 -0.303472 -0.329196
0.680653 0.028453 -0.328606
-0.034506 0.767490 -0.309015
0.304515 0.401230 -0.275845
-0.400911 0.041180 -0.665472
0.312302 -0.309297 0.390579
-0.045601 -0.661144 0.408206
-0.400527 0.036871 -0.667563
0.679939 0.027104 -0.327132
0.303331 0.053029 0.754613
0.680147 0.027026 -0.327661
0.636634 -0.673413 -0.308229
-0.771334 0.037370 -0.327378
-0.037778 0.731639 0.399111
-0.404549 0.370422 -0.296816
0.292926 0.761591 0.030898
-0.391007 -0.303170 -0.328598
-0.054902 0.404049 0.758810
-0.047009 0.398709 -0.647898
-0.033578 -0.664197 -0.304560
-0.390191 -0.279798 0.374498
0.316622 -0.641842 -0.664900
0.317275 -0.667450 0.051378
-0.035082 -0.308225 -0.692368
0.332278 0.402572 0.395028
-0.387160 0.042754 0.740488
-0.048057 0.399177 -0.648095
0.312421 -0.307252 0.389831
-0.400459 0.039369 -0.666756
-0.032390 -0.661674 -0.303275
-0.383643 0.370876 0.386345
0.696430 -0.318139 0.045987
-0.760027 0.364095 0.049693
0.303086 0.055025 0.755575
0.666892 0.033695 0.383501
0.659620 0.366950 0.034385
-0.402743 0.371811 -0.297820
-0.387726 0.044727 0.742692
0.315227 -0.642440 -0.665110
-0.043124 -0.659743 0.409736
-0.391244 -0.303647 -0.328437
0.294380 0.761689 0.029883
0.317457 -0.667573 0.054475
-0.052589 0.402499 0.758930
0.638824 -0.674555 -0.307588
-0.044304 -0.660325 0.409498
0.677589 -0.324531 -0.659609
-0.760185 0.366698 0.049900
0.305014 0.062563 -0.665636
-0.391452 -0.278905 0.375080
0.293757 0.762017 0.030322
-0.393477 -0.652617 0.035104
-0.051405 -0.308017 0.745252
-0.772527 0.037384 -0.326041
-0.390532 -0.281688 0.373895
0.304081 0.062217 -0.665284
0.313215 -0.309041 0.390090
0.662536 0.369263 0.033324
0.303454 0.400815 -0.275517
0.303554 0.053176 0.753973
-0.046769 0.401450 -0.647089
-0.032443 -0.661622 -0.303467
-0.771368 0.036183 -0.328347
-0.378663 0.370411 0.386618
-0.034621 0.765796 -0.308828
0.317477 -0.669752 0.052192
-0.760567 0.365272 0.048209
0.304147 0.053736 0.754378
0.314120 -0.642656 -0.663958
0.303775 0.060593 -0.666751
-0.772545 0.035884 -0.328091
0.696303 -0.316304 0.045861
-0.043130 -0.659287 0.408510
0.697166 -0.316002 0.044689
0.304277 0.399567 -0.276076
-0.759716 0.366134 0.050308
0.665442 0.036378 0.386196
0.665440 0.367948 0.033408
-0.392149 -0.303511 -0.329982
-0.048100 0.397021 -0.645933
-0.382265 0.371534 0.384499
0.679962 0.029401 -0.328903
-0.035411 0.732539 0.400481
0.664141 0.368360 0.035336
-0.048765 0.398580 -0.647762
-0.753173 -0.309290 0.030888
0.303820 0.400383 -0.277654
0.292544 0.762897 0.032029
0.662590 0.367952 0.034709
0.303809 0.053665 0.752612
0.304406 0.063989 -0.663742
-0.032918 -0.664419 -0.302966
-0.391756 -0.302548 -0.328329
0.303500 0.062252 -0.664559
-0.390898 -0.306162 -0.330146
0.319438 -0.670019 0.052734
-0.762027 0.365360 0.048631
-0.390706 -0.651576 0.034911
0.696748 -0.313874 0.046226
-0.386809 0.043722 0.741663
-0.404319 0.371096 -0.296181
-0.035480 0.732102 0.398794
0.304214 0.060968 -0.663642
0.679309 0.027956 -0.328122
-0.036626 -0.308674 -0.690955
-0.032167 -0.665175 -0.302261
-0.392067 -0.303363 -0.328691
-0.036308 0.733129 0.398740
-0.381630 0.371231 0.385483
-0.035089 0.765995 -0.310434
-0.380950 0.371472 0.387740
0.317672 -0.668943 0.051865
-0.369108 0.745928 0.048986
-0.052191 -0.308792 0.745932
0.680919 0.027723 -0.326921
0.330638 0.402909 0.394635
0.293288 0.761607 0.031831
-0.048815 0.398934 -0.645326
0.302640 0.398951 -0.276023
-0.401240 0.370377 -0.296993
0.314372 -0.641024 -0.664509
-0.400516 0.039217 -0.666826
-0.391640 -0.653567 0.034503
-0.770061 0.029795 0.407027
0.678583 -0.323894 -0.659208
-0.380995 0.371887 0.387921
-0.033165 -0.664973 -0.302998
0.332262 0.405073 0.394265
-0.034729 -0.661945 -0.303924
0.679849 0.027292 -0.327775
0.636682 -0.677103 -0.308251
-0.770250 0.035941 -0.327848
-0.036454 0.732054 0.399907
-0.387616 0.045036 0.740940
0.331785 0.402662 0.394150
-0.052339 0.404820 0.756103
-0.032601 -0.665461 -0.304439
-0.050540 -0.307401 0.746557
-0.391734 -0.278284 0.376283
-0.035691 0.767155 -0.308712
