OFF
256 0 0
-0.446277 -0.833051 0.020293
0.416667 -0.840157 -0.003468
-0.422229 -0.034796 -0.905909
-0.846141 0.437378 -0.023426
-0.004088 0.859257 0.439401
-0.008139 -0.843103 0.411332
-0.418260 0.866883 -0.009541
-0.417682 0.869652 -0.008055
-0.847867 0.437321 -0.026325
-0.387623 0.446408 0.443765
-0.008747 0.410691 -0.857038
-0.416472 0.868771 -0.008311
-0.416776 -0.399077 0.450860
0.877521 -0.018040 0.442353
0.412326 -0.418591 -0.420449
0.882861 0.021815 -0.433259
-0.850671 0.438919 -0.024647
0.843804 -0.401594 0.008694
0.014482 -0.413913 -0.872740
-0.416269 0.869860 -0.008333
-0.857856 0.014073 0.430022
-0.415718 -0.399532 0.451159
-0.008670 -0.844653 0.410818
-0.446443 -0.833120 0.018486
-0.445862 -0.832452 0.019833
-0.867015 -0.010231 -0.447866
0.889797 0.414728 0.006685
0.878569 -0.018293 0.443541
0.882258 0.021763 -0.431989
-0.868882 -0.011576 -0.448172
-0.007886 -0.846025 0.410084
-0.445300 -0.832343 0.019781
-0.417052 0.867825 -0.009153
0.416905 0.428574 0.429420
-0.449408 -0.433869 -0.413739
-0.007250 -0.845709 0.412197
-0.003866 0.860309 0.440035
0.844328 -0.399901 0.005584
-0.869185 -0.008980 -0.447979
-0.846231 0.438752 -0.022966
-0.417301 0.868418 -0.009356
-0.434559 -0.002484 0.868129
-0.869961 -0.011600 -0.449433
-0.448458 -0.433032 -0.415193
0.430872 0.837784 0.008015
-0.449840 -0.432548 -0.416254
-0.858137 0.014387 0.428467
-0.004554 0.860486 0.441061
-0.420987 -0.033435 -0.902452
0.433000 0.838376 0.008782
-0.003804 0.859410 0.440114
0.418117 -0.839668 -0.005202
-0.422910 -0.033352 -0.906082
-0.445653 -0.832493 0.020000
-0.860593 0.015818 0.428841
0.878565 -0.019002 0.442603
-0.415180 -0.398520 0.451808
0.415599 -0.841659 -0.003506
0.878725 -0.019008 0.443549
0.014142 -0.414445 -0.872504
0.029447 0.419993 0.879128
0.398433 -0.430647 0.433921
0.013719 -0.416282 -0.872988
-0.006218 0.408593 -0.855467
-0.877570 -0.412043 -0.000630
-0.870368 -0.011423 -0.447350
0.462047 -0.017540 0.867827
-0.009013 -0.844253 0.410802
-0.006021 -0.442909 0.866418
0.843451 -0.401618 0.008362
-0.004511 0.830153 -0.435518
-0.417874 0.867494 -0.007474
0.422406 -0.001787 -0.874846
0.410124 -0.417242 -0.419458
0.463059 -0.017569 0.867671
-0.004254 0.831936 -0.433515
0.889543 0.416055 0.007928
0.462702 -0.017786 0.865132
0.411718 -0.419354 -0.419028
0.421221 -0.003252 -0.877291
-0.002465 -0.877359 -0.434443
-0.010259 0.408271 -0.856168
0.463447 -0.017773 0.864065
-0.447512 0.441164 -0.465563
-0.868916 -0.010133 -0.446682
-0.007647 -0.441068 0.865065
0.417596 0.429915 0.427298
-0.009599 -0.443348 0.866620
-0.416302 -0.399233 0.450613
0.415724 0.429624 0.426144
-0.003338 -0.879306 -0.434084
-0.857792 0.013151 0.429209
-0.385439 0.445988 0.443173
-0.416267 0.866506 -0.009525
0.421861 -0.002183 -0.876304
0.416131 0.429037 0.427830
-0.845498 0.438860 -0.023089
0.029440 0.419116 0.878341
-0.434133 -0.002565 0.867473
0.415702 -0.840129 -0.003344
0.889599 0.412946 0.008107
-0.860031 0.014789 0.429756
0.414902 -0.841524 -0.004255
-0.433418 -0.000569 0.865734
0.432184 0.838470 0.008866
0.412213 -0.418482 -0.419363
0.014148 -0.415344 -0.871208
0.414674 0.399017 -0.401235
-0.848864 0.439428 -0.024084
0.461359 -0.018335 0.867776
-0.417437 0.867557 -0.007479
-0.433094 -0.001594 0.866208
0.015688 -0.414798 -0.872587
0.890488 0.415728 0.005271
-0.009759 0.410257 -0.856088
0.433559 0.837742 0.008621
-0.001838 -0.877221 -0.437930
0.411991 -0.417158 -0.417836
-0.422722 -0.034389 -0.905793
0.419699 -0.001356 -0.874273
0.416929 -0.840951 -0.003969
0.881205 0.023971 -0.432258
0.878766 -0.017951 0.442539
-0.421647 -0.035276 -0.907439
-0.846437 0.437562 -0.025840
0.417679 0.429778 0.428368
-0.858967 0.016431 0.429672
0.029404 0.417597 0.879532
-0.424036 -0.032023 -0.905438
-0.849461 0.436966 -0.023887
0.411820 -0.418588 -0.417864
-0.875853 -0.411751 0.001135
0.461399 -0.018310 0.866490
0.029665 0.416699 0.879011
0.413298 0.397416 -0.401149
-0.007540 -0.844743 0.409460
-0.446085 0.441222 -0.468395
-0.450382 -0.433543 -0.414418
0.461230 -0.018560 0.866940
0.416223 -0.840323 -0.003174
0.015045 -0.413564 -0.873142
0.399794 -0.430257 0.433829
-0.009912 -0.845429 0.411152
0.877039 -0.017630 0.443707
0.883313 0.020126 -0.433210
-0.007200 -0.442444 0.865729
0.415201 -0.840311 -0.003506
-0.423029 -0.034280 -0.905441
-0.846226 0.439296 -0.024227
0.878624 -0.017225 0.443360
-0.866916 -0.011585 -0.447882
-0.417492 -0.399637 0.450259
-0.007239 -0.843740 0.410575
0.413202 -0.417007 -0.418199
-0.448218 0.439743 -0.466440
-0.447530 0.442013 -0.467152
-0.421916 -0.032645 -0.905648
-0.870540 -0.010797 -0.447097
0.431812 0.836877 0.008603
0.463279 -0.017408 0.865769
0.462286 -0.017292 0.867361
0.419613 -0.003308 -0.877820
0.417185 0.430142 0.426689
0.412492 -0.416815 -0.417129
0.844025 -0.399863 0.007270
0.842888 -0.400857 0.007551
0.878571 -0.019943 0.442858
-0.858950 0.014287 0.429455
0.415400 0.430885 0.429472
-0.007820 -0.441177 0.864853
-0.446330 0.440579 -0.468713
-0.388703 0.445629 0.442876
-0.004609 0.860286 0.438842
0.028708 0.419338 0.878268
0.416950 0.430380 0.428657
-0.003355 0.860151 0.441065
-0.417039 0.868852 -0.009864
-0.868331 -0.010247 -0.445993
-0.416924 -0.399915 0.453094
-0.848468 0.439642 -0.023842
0.411609 -0.417533 -0.419485
0.421628 -0.000587 -0.875640
0.463228 -0.018406 0.866801
0.877852 -0.019720 0.443611
0.881379 0.021502 -0.433545
0.028431 0.418738 0.880002
0.419775 -0.001815 -0.874948
0.889036 0.415977 0.004771
-0.005347 0.831238 -0.435025
-0.385769 0.444659 0.442251
-0.007634 0.406513 -0.857868
-0.005709 0.832289 -0.435873
-0.423357 -0.033023 -0.904735
-0.445858 -0.832619 0.021029
-0.003394 0.860009 0.440041
0.432842 0.838338 0.009004
0.399088 -0.430253 0.433167
-0.387124 0.444394 0.442601
0.412333 -0.415468 -0.416588
0.843882 -0.401311 0.007761
-0.868138 -0.009001 -0.448536
-0.446455 -0.831962 0.020138
-0.002866 0.828979 -0.432058
-0.417004 -0.398539 0.450974
-0.421234 -0.033317 -0.904281
-0.876717 -0.410429 -0.001310
-0.007948 -0.843226 0.409525
0.412632 -0.419340 -0.418405
0.030297 0.415490 0.876604
0.890053 0.415995 0.005880
-0.446636 -0.832121 0.018018
0.031595 0.418804 0.879503
-0.417073 -0.398583 0.451430
-0.002845 0.861985 0.439421
0.431237 0.840310 0.008453
-0.858252 0.014264 0.428144
0.430848 0.839824 0.010313
-0.006581 -0.844781 0.409989
-0.008222 0.411650 -0.856774
0.431484 0.840152 0.007419
0.412725 -0.417435 -0.419244
0.877949 -0.019569 0.444031
-0.415891 -0.398589 0.450254
0.416282 -0.840260 -0.001428
-0.416630 0.868137 -0.008973
-0.008501 -0.845397 0.410874
0.432936 0.837691 0.008729
0.414101 0.399283 -0.401425
0.882769 0.020508 -0.431775
-0.859745 0.014673 0.428294
0.400707 -0.430535 0.433420
0.844282 -0.400880 0.006215
-0.435290 -0.002840 0.866889
-0.004469 0.860841 0.440716
0.413732 0.400687 -0.402022
-0.869163 -0.009647 -0.447300
0.883001 0.020655 -0.432801
-0.859334 0.015851 0.427259
-0.003487 0.859398 0.441008
0.881779 0.021631 -0.433193
0.420070 -0.002387 -0.877834
0.412751 0.398900 -0.401824
-0.004292 0.830362 -0.433024
-0.007088 -0.844683 0.410448
0.876182 -0.018720 0.443217
-0.007928 -0.441847 0.866000
-0.002190 -0.878865 -0.435361
0.028470 0.418829 0.879105
0.413723 -0.840478 -0.005429
-0.003678 -0.877197 -0.437846
-0.415880 -0.398585 0.450622
-0.447080 0.442364 -0.466893
0.417502 0.429457 0.426167
-0.848042 0.438263 -0.025011
0.877214 -0.019635 0.443520
0.398473 -0.431753 0.432691
