OFF
256 0 0
-0.437388 0.879130 0.003317
0.431645 -0.876462 0.004699
-0.858678 0.423206 -0.015812
0.000416 0.418374 0.839738
-0.427974 -0.018378 -0.872076
-0.435768 0.007117 0.854960
0.428571 0.426154 -0.399315
-0.891125 -0.010436 0.432844
0.009592 0.430391 -0.836820
0.850756 0.012590 -0.408411
-0.458918 -0.878644 -0.005607
0.005604 -0.427756 -0.871806
-0.441436 -0.468993 -0.431766
0.004268 -0.424851 -0.872035
0.005357 -0.426645 -0.871974
-0.017606 -0.402364 0.863001
0.428618 0.017909 -0.896249
0.405501 -0.406003 0.404034
0.896045 0.444941 -0.003912
-0.448955 -0.402676 0.394187
-0.439262 0.878292 0.004881
0.409507 0.009240 0.867076
-0.858057 0.423940 -0.016232
0.003470 0.418076 0.839813
-0.019942 0.883432 -0.398367
-0.018052 -0.402957 0.864810
0.002013 0.420960 0.839622
0.014505 -0.855924 0.477414
0.432493 -0.876903 0.005890
-0.017561 -0.402973 0.864683
-0.443324 -0.466344 -0.429773
-0.397150 0.414875 0.398413
-0.874805 -0.020854 -0.425803
-0.858676 0.424345 -0.014039
-0.437379 0.009555 0.856269
-0.459480 -0.877765 -0.007677
-0.457549 -0.878650 -0.007425
0.439670 0.416833 0.412749
0.854474 0.015334 0.470487
0.438947 0.416592 0.414277
0.853643 0.013816 0.468756
0.433970 -0.875512 0.005395
-0.438572 0.879576 0.003975
0.853340 0.011588 -0.407004
0.899872 -0.413682 0.011664
-0.405889 0.380995 -0.408979
-0.460316 -0.877491 -0.004839
-0.397055 0.417131 0.397153
0.007457 0.431590 -0.836911
-0.020056 0.881008 -0.397900
-0.442151 -0.465769 -0.431289
0.436154 0.413893 0.415355
0.435972 0.416621 0.412703
-0.406539 0.381474 -0.408287
0.852941 0.011678 -0.406447
-0.406481 0.381524 -0.409334
0.434895 -0.874706 0.005376
0.851625 0.012854 -0.408031
-0.440243 0.878880 0.005860
0.409465 0.011050 0.866206
-0.434197 0.009652 0.856361
0.004203 -0.425712 -0.871929
0.013425 -0.854605 0.476892
-0.442537 -0.467577 -0.430558
0.429946 0.017336 -0.896592
0.408949 0.012665 0.866090
0.030147 0.885822 0.406065
-0.889165 -0.454196 -0.011114
-0.442277 -0.467075 -0.431060
-0.443810 -0.467398 -0.430924
0.005829 0.430156 -0.837286
-0.443721 -0.466975 -0.430105
0.895687 0.445730 -0.003064
0.448351 0.885699 0.004478
0.448848 0.884948 0.002542
-0.889598 -0.455311 -0.009158
0.008004 0.429697 -0.836017
0.013630 -0.854268 0.477141
0.008459 -0.872326 -0.424851
0.449636 0.884380 0.003133
-0.858193 0.423200 -0.014592
-0.888272 -0.452702 -0.008807
-0.890145 -0.454116 -0.008421
-0.459205 -0.879002 -0.005239
0.005852 0.429201 -0.835794
-0.405092 0.381380 -0.410649
-0.449385 -0.404640 0.395021
-0.428490 -0.015143 -0.872227
0.431470 0.018096 -0.897590
-0.425321 -0.016259 -0.870836
-0.408234 0.381270 -0.407059
-0.018317 -0.402559 0.865897
-0.429011 -0.016583 -0.873259
-0.023632 0.881795 -0.399019
0.001896 0.417466 0.838917
-0.875007 -0.018024 -0.426340
0.409397 0.010111 0.865953
-0.435795 0.007075 0.853336
0.439268 0.415582 0.411699
0.429460 0.423760 -0.398005
-0.450299 -0.402303 0.393575
0.850726 0.009789 -0.407628
0.410090 0.010587 0.865166
0.449262 0.885705 0.003185
-0.023510 0.882386 -0.399072
0.007412 -0.874082 -0.423716
-0.018979 -0.403793 0.864030
-0.395694 0.415541 0.397749
-0.876234 -0.019788 -0.427106
-0.859262 0.423023 -0.014692
0.896557 0.445846 -0.001561
0.899541 -0.416554 0.010989
-0.396793 0.414870 0.397617
0.431819 -0.875743 0.005319
0.013856 -0.856140 0.476532
0.429724 0.427018 -0.397226
-0.396257 0.416713 0.396145
0.450208 0.885662 0.004798
-0.460529 -0.878434 -0.006854
0.409476 0.009814 0.866305
0.438174 0.415235 0.410814
0.450220 0.885807 0.002176
0.404738 -0.405790 0.403223
-0.435674 0.008575 0.855641
0.427716 0.426428 -0.399965
-0.890311 -0.011652 0.433680
0.432567 -0.874774 0.005381
0.007908 0.431136 -0.836968
-0.448906 -0.404046 0.394681
0.027053 0.885949 0.403614
-0.437428 0.878984 0.003525
-0.017088 -0.403297 0.864749
-0.433793 0.007623 0.856201
0.439346 0.414210 0.410839
0.429891 0.019131 -0.896231
0.450608 0.884225 0.003272
-0.397707 0.416243 0.396992
0.000670 0.419526 0.839122
-0.891060 -0.011176 0.433432
0.431632 0.017886 -0.896830
-0.428417 -0.017600 -0.870030
0.406373 -0.405395 0.404346
0.428499 0.016010 -0.895977
-0.020483 0.882315 -0.398715
0.027163 0.885845 0.404274
0.405691 -0.406179 0.401212
-0.460260 -0.878588 -0.005659
0.447885 0.883987 0.000517
0.429814 0.018626 -0.893498
0.007703 -0.872455 -0.425372
-0.449010 -0.405084 0.393228
-0.876043 -0.018523 -0.427947
-0.890515 -0.008904 0.433143
-0.463114 -0.878863 -0.007462
0.895864 0.447369 -0.004084
0.450369 0.884489 0.002521
0.007382 0.428623 -0.836058
-0.443769 -0.468929 -0.430159
0.451304 -0.439156 -0.430446
-0.022702 0.882671 -0.399302
0.008090 -0.871402 -0.423267
-0.449472 -0.402787 0.393513
0.008015 0.429214 -0.834637
-0.889540 -0.454470 -0.008213
0.437685 0.414764 0.412981
0.851145 0.012176 -0.407495
0.027956 0.886063 0.405192
0.854105 0.015290 0.470132
0.451838 -0.440102 -0.430080
-0.016895 -0.403196 0.863688
-0.016704 -0.401379 0.863857
0.451085 0.883139 0.003611
-0.396667 0.416945 0.398322
-0.461646 -0.878083 -0.007103
0.448976 0.884285 0.001783
-0.405673 0.381894 -0.408423
-0.448865 -0.404237 0.396605
0.895525 0.444619 -0.001392
-0.460771 -0.877816 -0.006651
0.853669 0.013788 0.468892
-0.860038 0.424945 -0.014334
0.439292 0.414831 0.412963
0.005241 -0.427500 -0.871045
-0.426882 -0.015984 -0.872850
0.011107 -0.856332 0.479301
0.449531 0.884086 0.003940
0.406316 -0.405518 0.401626
0.430481 0.016346 -0.897408
0.006245 -0.426949 -0.872852
0.851291 0.011383 -0.407177
-0.443569 -0.466848 -0.431467
0.852373 0.011249 -0.407342
0.006536 0.431169 -0.838571
-0.860138 0.420409 -0.015402
0.006389 0.430334 -0.837285
-0.023452 0.881281 -0.399362
-0.023481 0.881649 -0.399821
-0.016912 -0.401512 0.864455
-0.892517 -0.010980 0.433344
-0.436911 0.879248 0.004282
-0.432402 0.011071 0.855851
0.454085 -0.442637 -0.429833
0.406031 -0.407673 0.402182
0.009007 0.429791 -0.835467
0.405469 -0.405666 0.402785
-0.434945 0.011660 0.855630
0.405275 -0.404939 0.402466
-0.023100 0.882084 -0.399345
-0.891989 -0.010270 0.432569
-0.018166 -0.404667 0.863777
0.015237 -0.855569 0.476040
-0.874967 -0.018205 -0.427954
-0.023123 0.881845 -0.398064
-0.396640 0.415257 0.398299
0.899946 -0.417916 0.011408
-0.459490 -0.878753 -0.007417
0.410423 0.010549 0.865746
0.894768 0.446987 -0.002520
-0.022835 0.881101 -0.398925
0.015286 -0.855463 0.476341
0.008519 -0.874013 -0.425484
0.852676 0.011718 -0.407642
-0.890588 -0.452685 -0.008833
-0.874890 -0.018790 -0.428071
-0.397895 0.415709 0.397936
0.431687 0.017055 -0.894660
0.449920 -0.441917 -0.430736
-0.875788 -0.019206 -0.426966
-0.890947 -0.012414 0.435036
-0.016246 -0.402046 0.864489
0.431623 0.018233 -0.895330
-0.443692 -0.465717 -0.432593
0.404261 -0.405933 0.402689
0.896838 0.447563 -0.000995
-0.876626 -0.019478 -0.427818
0.004079 -0.425808 -0.872594
-0.443970 -0.468970 -0.431000
-0.017369 -0.402059 0.863998
-0.875993 -0.019254 -0.426945
-0.023398 0.881780 -0.399652
-0.857409 0.424654 -0.015704
0.403340 -0.405966 0.403079
0.856086 0.015101 0.469654
0.009448 -0.871848 -0.426892
0.410577 0.009800 0.865411
-0.433799 0.008630 0.855014
-0.017436 -0.402612 0.863774
-0.018079 -0.403791 0.866250
0.429912 0.425688 -0.396825
0.854688 0.014402 0.469523
0.851620 0.011114 -0.408029
0.027784 0.885073 0.402899
0.450739 -0.442380 -0.431004
-0.016703 -0.403115 0.863569
-0.397072 0.414026 0.396105
0.433390 -0.874540 0.004665
