OFF
256 0 0
-0.311673 0.341521 0.497563
-0.327151 -0.789274 0.121486
0.056848 -0.803796 0.494648
-0.304614 0.671769 -0.585726
0.780010 -0.037707 0.487021
0.418615 0.331701 0.496893
0.754637 -0.416128 0.132550
0.399724 -0.394737 -0.213263
-0.683501 0.691350 -0.240034
-0.330059 -0.027990 -0.578067
0.780552 -0.035177 0.486705
0.041661 0.323682 -0.603771
0.028997 -0.429557 -0.594982
0.058436 -0.805864 0.491865
0.785220 -0.036222 -0.224231
0.401028 -0.060654 -0.579073
0.383485 0.684322 0.147644
-0.684330 0.304030 -0.588572
0.383150 0.682353 0.146735
-0.305283 0.672381 -0.585415
-0.304008 0.704570 0.144613
0.418748 0.333254 0.495782
0.418461 0.330491 0.496956
-0.653896 0.324470 0.115354
0.788603 0.328764 0.119355
-0.307347 -0.401235 -0.225189
0.017854 -0.807166 -0.246978
-0.330150 -0.027471 -0.578454
-0.307618 -0.399886 -0.226545
0.036072 0.676259 -0.228837
0.394637 -0.411173 0.469160
-0.651759 -0.048808 0.460612
0.790654 0.328906 0.123143
-0.653762 -0.048264 0.459771
0.436409 0.324865 -0.218987
-0.331734 -0.028888 -0.576119
-0.328880 -0.789555 0.122205
0.400056 -0.061421 -0.582067
0.419182 0.331257 0.496845
0.029869 -0.429801 -0.597109
-0.687077 -0.427461 0.119573
0.384654 0.682298 0.146953
-0.682205 -0.066139 -0.220407
-0.654053 0.321750 0.112970
0.419279 0.331625 0.497833
-0.649845 -0.047828 0.459462
-0.683424 0.690491 -0.241627
-0.327913 -0.790792 0.122172
0.419990 0.330398 0.496711
0.397005 -0.412411 0.469390
0.437836 0.323697 -0.221751
0.790090 0.329222 0.121002
0.018058 -0.805339 -0.247252
0.402017 -0.394313 -0.211701
-0.308994 -0.396428 0.463578
0.031001 -0.431568 -0.594826
0.395152 -0.410805 0.469214
0.400625 -0.061667 -0.579872
0.400025 -0.393553 -0.210212
0.753510 -0.415533 0.131420
0.057000 -0.805349 0.493507
-0.683004 -0.064729 -0.221737
0.399720 -0.062824 -0.582130
-0.305957 0.670593 -0.585956
0.407410 -0.799256 0.104516
0.061000 -0.036080 0.474320
0.418320 0.330124 0.497637
-0.327552 -0.790985 0.121891
0.016925 -0.806261 -0.249866
-0.688581 -0.425163 0.121377
-0.688677 -0.424452 0.119672
-0.311486 0.341704 0.495013
0.395960 -0.412147 0.469205
0.062915 -0.037891 0.474353
0.044143 0.690329 0.513254
-0.327328 -0.790142 0.121095
0.437241 0.325910 -0.221035
0.401095 -0.393614 -0.210963
-0.306593 0.670508 -0.584114
0.753951 -0.416563 0.130943
0.036847 0.677851 -0.229228
-0.308516 -0.397739 -0.228488
0.029019 -0.431092 -0.595164
0.063411 -0.039800 0.474438
-0.306482 0.671337 -0.583815
0.035702 0.676967 -0.229579
0.436669 0.324962 -0.222224
-0.652602 -0.046336 0.457512
0.383407 0.683534 0.147920
-0.328233 -0.788595 0.120313
0.419446 0.331591 0.497436
-0.310694 -0.396487 0.459627
-0.306727 0.672118 -0.586412
0.400264 -0.061769 -0.580394
0.061301 -0.038370 0.473442
0.789125 0.329684 0.121624
-0.302090 0.704038 0.144459
-0.327724 -0.788994 0.122911
-0.682895 0.692325 -0.241912
0.383153 0.682715 0.147668
-0.327678 -0.790435 0.121794
-0.654731 0.323626 0.114568
-0.684686 0.300478 -0.588614
0.028139 -0.432678 -0.595052
0.778932 -0.037019 0.485296
-0.327547 -0.789518 0.121318
0.042191 0.323374 -0.603263
0.778717 -0.037898 0.487301
0.399443 -0.394003 -0.212104
-0.309073 -0.399005 -0.229037
0.057326 -0.806550 0.494829
0.056500 -0.806608 0.493948
0.035542 0.675587 -0.227708
-0.653329 0.322235 0.114576
0.755067 -0.415184 0.132847
0.755695 -0.413341 0.133299
-0.686398 -0.425785 0.119874
-0.651745 0.323158 0.112806
0.402600 -0.394889 -0.212239
0.785127 -0.035326 -0.224719
-0.325694 -0.791591 0.122613
0.059198 -0.805513 0.493546
0.435719 0.323684 -0.220091
0.790360 0.327644 0.123339
0.790743 0.327947 0.121121
0.784231 -0.038335 -0.225104
0.400427 -0.394182 -0.211381
-0.331056 -0.028809 -0.577792
0.401975 -0.392424 -0.210740
0.060397 -0.038672 0.473318
-0.310191 -0.395726 0.461306
-0.682578 -0.066267 -0.220826
-0.327395 -0.789553 0.122684
0.043148 0.321926 -0.604158
-0.328025 -0.790806 0.122330
-0.683792 -0.067921 -0.220818
0.059883 -0.040234 0.473426
-0.311850 0.341076 0.495412
-0.302457 0.703625 0.144799
-0.652218 -0.048329 0.459624
0.420628 0.329755 0.495306
-0.312705 0.340639 0.495540
-0.652726 0.321886 0.114825
-0.327238 -0.788774 0.122685
0.753107 -0.413262 0.131363
-0.309068 -0.399574 -0.226260
-0.652284 0.320971 0.115853
0.016749 -0.806581 -0.248416
0.784641 -0.036097 -0.225192
0.035744 0.675835 -0.227499
-0.306180 0.670896 -0.584256
0.406860 -0.797808 0.104924
0.782940 -0.038586 -0.226028
-0.652337 -0.046142 0.461522
-0.313138 0.339600 0.494650
-0.301387 0.704725 0.143971
-0.312948 0.341944 0.495454
-0.326376 -0.790370 0.123031
0.791559 0.329318 0.122725
0.061590 -0.038667 0.476012
-0.303712 0.670382 -0.586283
-0.690285 -0.425496 0.120531
0.790607 0.328058 0.121977
-0.311114 0.340930 0.495644
-0.327290 -0.790401 0.121934
-0.304688 0.671933 -0.584761
0.399440 -0.060014 -0.581287
-0.652611 0.322520 0.113496
0.384862 0.683480 0.146099
0.043196 0.689181 0.512860
0.437094 0.322505 -0.219628
-0.651636 0.321116 0.114520
0.062809 -0.039353 0.472420
-0.682817 -0.066910 -0.222515
0.062049 -0.038355 0.474014
-0.651487 -0.047333 0.460132
-0.310546 -0.395586 0.460467
0.752396 -0.417581 0.130693
0.399797 -0.394931 -0.210819
0.383968 0.684079 0.145519
-0.331692 -0.027963 -0.579246
-0.686414 0.303272 -0.587677
0.029014 -0.431997 -0.595906
-0.311489 0.342581 0.496640
0.033833 0.677192 -0.226468
0.061057 -0.039028 0.473562
0.401544 -0.394000 -0.210966
-0.654046 -0.046873 0.458912
0.436803 0.324901 -0.219826
0.401132 -0.393363 -0.212287
-0.332388 -0.031152 -0.579328
0.401042 -0.061251 -0.580676
0.407048 -0.799803 0.103229
-0.685737 0.302571 -0.588114
-0.326556 -0.788454 0.123166
-0.327320 -0.790036 0.119533
0.752847 -0.415560 0.130788
-0.309730 -0.396513 0.460956
0.395724 -0.411707 0.470297
0.418634 0.329397 0.496426
0.778242 -0.036692 0.486495
-0.326671 -0.787057 0.120349
-0.686253 -0.423777 0.122055
0.057125 -0.805813 0.493632
-0.653540 0.323131 0.114127
-0.687895 -0.424411 0.118808
-0.330063 -0.029342 -0.576886
-0.683487 -0.067431 -0.222760
-0.309656 -0.399865 -0.227791
0.028517 -0.431167 -0.596255
-0.310697 0.339344 0.495635
0.420510 0.329790 0.495861
0.027758 -0.429880 -0.595562
-0.302850 0.705193 0.144041
-0.303426 0.703404 0.145978
-0.653514 -0.047942 0.460378
0.785296 -0.036414 -0.223487
-0.304914 0.671237 -0.585615
0.397884 -0.060188 -0.581551
0.783898 -0.035899 -0.225599
-0.302239 0.705112 0.146623
0.385670 0.683366 0.145965
-0.655225 0.323761 0.115194
0.383783 0.683054 0.145198
-0.314357 0.339776 0.494399
-0.312070 0.343756 0.497007
0.394332 -0.413287 0.468602
0.059109 -0.036464 0.475291
-0.687249 -0.423679 0.121152
0.782941 -0.036292 -0.225217
-0.303270 0.705542 0.145429
-0.651434 0.321530 0.116379
0.060593 -0.038921 0.472678
-0.681546 0.690732 -0.240420
-0.309861 0.340863 0.495238
-0.309065 -0.400990 -0.225558
0.016471 -0.805722 -0.247122
0.399985 -0.393005 -0.212087
0.420351 0.331776 0.495817
0.396196 -0.411872 0.469521
0.416629 0.331183 0.496472
-0.327145 -0.790780 0.122819
-0.308101 -0.400112 -0.227725
0.753616 -0.414642 0.132292
-0.311718 -0.394111 0.460815
-0.682586 0.689995 -0.240605
-0.312502 0.341000 0.495095
0.778515 -0.036691 0.485734
0.408090 -0.800678 0.103980
-0.651962 -0.045886 0.459899
-0.305924 0.672197 -0.585457
0.056221 -0.805488 0.491403
0.027615 -0.430980 -0.594884
-0.680950 0.691092 -0.241824
-0.304813 0.671111 -0.585889
-0.681723 0.692178 -0.239681
