OFF
256 0 0
-0.130376 -0.691166 0.414581
0.250578 -0.669282 0.042082
0.602289 0.047047 -0.299201
0.621293 0.039834 0.411985
-0.485376 -0.689298 0.038907
-0.507654 -0.312934 -0.301616
-0.486077 0.415008 -0.331626
-0.125326 0.419929 -0.687227
-0.119842 0.779337 -0.285587
-0.131349 -0.692528 0.415768
-0.125348 0.422425 -0.686970
0.591481 -0.329034 -0.685685
-0.492537 0.060915 0.054826
0.217204 0.407259 -0.299434
-0.498575 0.795547 0.041851
0.593754 -0.330887 -0.686212
-0.513305 0.425162 0.408046
-0.131460 -0.690740 0.416361
-0.140267 0.399536 0.782500
-0.483932 0.417475 -0.329760
0.599766 0.047203 -0.296206
0.640196 -0.319069 0.056333
0.247772 0.794980 0.053433
0.220289 -0.681347 -0.697461
0.640040 -0.319231 0.057056
-0.509235 -0.311921 -0.302525
0.601644 0.047376 -0.297162
0.218895 -0.682493 -0.697465
-0.514064 0.424212 0.408507
-0.486191 0.055433 -0.673732
0.603102 0.047509 -0.298944
-0.489186 0.048207 0.761864
-0.120828 0.778075 -0.287180
-0.491566 0.062457 0.055500
-0.507117 -0.314249 -0.302569
-0.130249 -0.692535 0.416156
0.582710 -0.689156 -0.322447
0.211137 -0.329332 0.401139
0.618225 0.039345 0.413700
-0.147687 -0.320653 0.807995
0.583401 -0.688674 -0.323200
-0.484940 0.416297 -0.327598
0.226645 0.066420 0.778852
-0.489932 0.047123 0.761535
0.592517 -0.329058 -0.687189
-0.490016 0.046172 0.760998
0.601236 0.044707 -0.299024
-0.131112 -0.691974 0.416090
-0.490069 0.048825 0.760655
-0.138389 0.399156 0.781200
0.226153 0.067745 0.778122
-0.131952 0.758793 0.372238
0.250785 -0.668074 0.043443
0.211308 -0.330891 0.401484
-0.489988 0.047939 0.760725
0.249772 -0.669997 0.042707
0.592991 -0.330616 -0.683731
0.218573 -0.681801 -0.697800
0.218174 -0.680981 -0.697475
0.581171 -0.691605 -0.321308
-0.514238 0.424856 0.408097
-0.118977 0.778380 -0.286278
-0.513468 -0.335379 0.402375
-0.486706 -0.687420 0.040683
-0.133583 0.758538 0.371448
0.580897 -0.690023 -0.320583
0.217939 0.406172 -0.301296
-0.498882 0.794495 0.041868
-0.499716 0.795161 0.041522
-0.489631 0.048330 0.760462
-0.124283 0.421450 -0.685933
-0.484596 0.415597 -0.328715
0.581248 -0.688524 -0.322937
-0.492829 0.063610 0.057790
-0.490738 0.048153 0.761032
-0.119064 0.778036 -0.286314
0.250716 -0.669478 0.044458
-0.488351 0.046119 0.761935
0.639890 -0.320059 0.056846
-0.130105 -0.308765 -0.698276
0.250656 0.393025 0.398418
-0.507821 -0.312927 -0.301585
-0.485732 0.416894 -0.327960
-0.483988 0.414193 -0.327889
0.620952 0.038349 0.412355
0.250582 -0.670056 0.043941
-0.147900 -0.320964 0.806181
0.591457 -0.328142 -0.686646
-0.115872 -0.690605 -0.312795
-0.132941 0.761098 0.371688
0.218367 -0.680878 -0.699055
-0.149928 -0.321739 0.805323
0.615835 0.401472 0.040420
-0.513199 -0.333055 0.401044
0.583688 -0.687508 -0.322037
-0.138151 0.398697 0.782769
-0.130530 -0.691051 0.415800
0.618567 0.037988 0.411662
-0.130043 -0.691768 0.416830
-0.150663 -0.321023 0.808609
-0.489179 0.046990 0.761125
-0.490366 0.063109 0.054362
-0.124924 0.422993 -0.686821
-0.487826 0.048756 0.759872
0.252391 0.396213 0.398221
0.640008 -0.321220 0.056696
-0.132406 0.760157 0.373335
-0.489042 0.056458 -0.671993
0.582689 -0.687701 -0.322580
-0.113809 -0.689179 -0.313780
-0.133495 0.758262 0.370992
-0.138802 0.399188 0.781890
0.251527 0.393982 0.396903
-0.485332 0.415355 -0.329831
-0.498971 0.794559 0.042139
-0.508983 -0.312463 -0.302539
0.615694 0.403713 0.040613
-0.125174 0.420757 -0.686462
0.249679 0.794419 0.052557
0.601159 0.046662 -0.297715
-0.499251 0.796697 0.040268
-0.493544 0.061691 0.055945
-0.508634 -0.311906 -0.303483
0.210791 -0.331935 0.400492
0.249223 0.795158 0.053542
0.617334 0.402807 0.040917
-0.492016 0.062533 0.056416
0.244838 0.055137 -0.679394
-0.124918 0.421610 -0.688451
0.249707 0.394949 0.397966
-0.498521 0.795409 0.040929
0.616709 0.401994 0.041205
-0.137514 0.398809 0.782406
-0.509677 -0.314184 -0.302359
-0.500933 0.793096 0.043236
-0.147782 -0.321354 0.807501
-0.488557 0.048443 0.760986
-0.125512 0.420278 -0.684871
-0.129180 -0.691669 0.414407
-0.146677 -0.321234 0.805932
-0.497794 0.794569 0.040903
0.581837 -0.690801 -0.324723
0.603029 0.046665 -0.298248
-0.134164 0.757996 0.372983
-0.487941 0.047094 0.760860
0.211010 -0.329310 0.400011
0.640567 -0.318807 0.056437
-0.131097 0.759348 0.371582
0.219827 -0.682129 -0.698795
-0.486172 0.417384 -0.327543
0.224435 0.065564 0.779363
0.247915 0.794470 0.052888
0.215206 0.408754 -0.300124
-0.485591 -0.687862 0.040476
0.210210 -0.329944 0.400896
-0.490993 0.062905 0.055829
0.247922 0.792170 0.053831
-0.129421 -0.307819 -0.697201
-0.513821 0.423096 0.408671
-0.485621 0.415497 -0.327761
0.251249 0.392597 0.397678
-0.131694 0.758459 0.371983
-0.485932 0.415926 -0.329075
0.616375 0.403073 0.040594
0.602323 0.047430 -0.297577
0.592542 -0.329867 -0.686430
-0.513145 -0.334683 0.401852
-0.485904 0.417378 -0.329236
0.252054 0.396350 0.399518
0.600917 0.046151 -0.296878
0.582500 -0.690128 -0.323003
0.620979 0.039729 0.411523
-0.149151 -0.320072 0.807969
-0.131274 -0.309308 -0.697296
0.248933 -0.669091 0.042074
0.639026 -0.320586 0.056880
-0.485957 0.415414 -0.327751
-0.491418 0.046129 0.762334
-0.508374 -0.312963 -0.303249
-0.485994 0.417114 -0.328205
-0.151281 -0.322280 0.807405
0.603873 0.047260 -0.297511
-0.130877 -0.691368 0.416239
0.242598 0.055881 -0.678284
0.248613 -0.669894 0.043039
-0.514341 -0.334359 0.401454
-0.130221 -0.309140 -0.698430
0.225962 0.066422 0.777754
-0.140219 0.398535 0.781726
0.621601 0.037966 0.411535
0.248782 0.794135 0.052639
0.591425 -0.330616 -0.685094
-0.138462 0.398564 0.783078
-0.489282 0.046509 0.761656
0.639480 -0.320104 0.056463
0.211389 -0.331118 0.402292
0.216149 0.408419 -0.298362
-0.138774 0.400865 0.783023
0.593360 -0.329411 -0.686229
-0.132540 0.759372 0.371882
0.251732 0.395967 0.396185
-0.489190 0.047295 0.760110
-0.487496 -0.687309 0.039523
0.215288 0.408560 -0.301337
-0.120577 0.775974 -0.286941
-0.491314 0.061487 0.054944
-0.150126 -0.321185 0.804894
0.210450 -0.329544 0.402200
-0.498203 0.796967 0.040918
-0.490815 0.048672 0.761844
0.602213 0.046730 -0.298159
-0.513569 -0.336392 0.401675
-0.130804 -0.306657 -0.697299
0.215028 0.407625 -0.300286
-0.130295 -0.308586 -0.697249
-0.130938 -0.692710 0.417298
-0.132139 -0.690566 0.416821
0.583672 -0.689412 -0.322870
-0.133888 0.759697 0.372878
-0.509562 -0.312901 -0.303267
0.618973 0.039136 0.413334
-0.131515 -0.309538 -0.698737
0.245340 0.053947 -0.678434
0.215485 0.406033 -0.300261
-0.130610 -0.690702 0.415327
-0.513390 0.423836 0.406858
0.620271 0.038736 0.412985
-0.513802 0.425097 0.407585
-0.120242 0.777297 -0.285856
0.637863 -0.321033 0.058976
-0.487335 -0.688443 0.039793
-0.120673 0.778593 -0.285979
-0.488104 0.053582 -0.670184
0.225525 0.066468 0.779304
-0.488385 0.054990 -0.672960
-0.125110 0.420903 -0.686118
0.639236 -0.319438 0.055475
-0.490860 0.048158 0.759579
-0.132138 0.758081 0.373907
-0.483970 0.416117 -0.327201
0.210664 -0.329938 0.400319
-0.488629 0.054433 -0.670790
0.615685 0.402660 0.040675
-0.485933 0.414707 -0.327830
-0.127072 0.419722 -0.684728
0.219743 -0.682523 -0.696000
-0.132283 -0.688613 0.418017
-0.119154 0.778108 -0.286850
-0.486871 -0.686154 0.039467
-0.139788 0.400329 0.782012
0.209026 -0.330150 0.402502
-0.485218 0.417159 -0.327414
0.616679 0.401884 0.041681
-0.486202 0.415266 -0.327717
0.248199 0.794471 0.052547
-0.125700 0.422666 -0.685532
