OFF
256 0 0
-0.501320 -0.326235 -0.322571
-0.095862 -0.313606 -0.682939
-0.540742 0.028218 0.036969
0.632636 0.061519 0.424729
0.619179 0.043453 -0.328417
-0.136005 -0.315190 0.789349
0.237608 0.419638 -0.322155
-0.132889 0.432135 0.810270
0.244884 0.405717 0.401647
-0.136624 0.437873 -0.698025
-0.094725 -0.314356 -0.682024
0.243095 0.065563 -0.698244
-0.095869 -0.313148 -0.680974
-0.140942 0.762947 -0.295081
0.622726 0.043243 -0.326781
-0.496113 0.034630 0.783808
-0.142273 0.763526 -0.294544
-0.135114 -0.314621 0.789760
0.239036 -0.689190 -0.683362
-0.134365 0.436774 -0.696423
-0.135378 0.786984 0.412531
-0.095001 -0.314268 -0.684409
-0.136445 0.789145 0.414648
0.212251 0.056525 0.812761
0.229271 -0.684911 0.036045
-0.124822 -0.709096 0.409069
0.238890 0.419653 -0.323741
0.245310 0.405670 0.401060
-0.480366 0.038891 -0.671816
0.632817 0.062717 0.426990
-0.489694 -0.323659 0.429301
0.597844 -0.304637 0.040758
-0.136737 -0.314168 0.790966
-0.125125 -0.708085 0.408984
-0.540321 0.029199 0.035853
0.240949 0.419937 -0.322036
-0.479792 0.039129 -0.671699
0.584045 -0.309289 -0.697663
0.214239 0.058195 0.811815
-0.137457 -0.314958 0.789714
0.230968 -0.685911 0.034049
-0.501524 -0.323306 -0.321974
0.613007 -0.689720 -0.349129
0.239681 0.784507 0.048661
-0.093892 -0.313563 -0.683676
-0.490449 0.417780 0.401444
0.619377 0.041650 -0.325911
0.605628 0.393474 0.044052
0.613167 -0.690001 -0.349142
0.583767 -0.309342 -0.697124
-0.490898 0.417938 0.401759
-0.481510 0.038850 -0.670526
-0.499685 -0.324922 -0.321786
-0.136023 0.430661 0.809451
0.237524 0.420951 -0.321887
-0.137178 -0.314704 0.789568
0.243294 0.407837 0.400382
-0.129755 -0.704384 -0.316823
0.241827 -0.690465 -0.685721
0.632230 0.062092 0.426694
-0.541936 0.029889 0.035471
-0.502426 -0.326339 -0.322873
-0.136208 0.786233 0.414063
-0.137320 -0.313272 0.791404
0.232454 -0.685538 0.033334
-0.477439 0.411644 -0.304349
-0.138279 -0.316009 0.790869
-0.478704 0.409682 -0.303856
0.243856 0.409187 0.400357
0.232524 -0.683399 0.033955
-0.138205 0.762312 -0.293064
-0.128819 -0.700544 -0.315872
0.230780 -0.682935 0.034560
-0.095800 -0.314606 -0.683587
-0.497738 0.035449 0.783829
-0.135212 0.429103 0.807662
-0.125505 -0.708638 0.407632
0.237253 0.419476 -0.321905
-0.124052 -0.709827 0.408966
-0.481415 0.039377 -0.671520
0.224383 -0.310345 0.400336
-0.487185 -0.324641 0.431581
0.240348 -0.688778 -0.685606
-0.138903 0.764236 -0.295320
0.598474 -0.305532 0.041592
0.609642 0.395389 0.043116
0.608883 0.394125 0.043360
-0.539552 0.031549 0.036049
-0.496122 0.035346 0.784448
-0.489565 0.418083 0.401020
-0.503142 -0.699515 0.053549
0.239886 0.062191 -0.699445
0.609143 0.395593 0.044460
0.237330 0.782621 0.047926
0.238555 -0.688097 -0.684925
-0.482891 0.038349 -0.671505
-0.133500 0.430073 0.809823
0.231263 -0.684643 0.033384
0.620972 0.043809 -0.327475
-0.490730 -0.324458 0.432255
0.230352 -0.684130 0.033473
-0.489022 0.417785 0.401388
0.608117 0.394310 0.044066
0.596799 -0.303797 0.041346
-0.134985 0.428855 0.808825
-0.135488 0.438063 -0.696165
0.620263 0.043885 -0.328187
-0.127522 -0.702183 -0.317081
-0.481197 0.039743 -0.671990
0.223300 -0.310973 0.398791
-0.496778 0.036401 0.782126
-0.128983 -0.701833 -0.317975
-0.479897 0.410778 -0.304566
-0.489443 -0.324571 0.430020
0.634015 0.062111 0.425126
-0.125525 -0.708773 0.407309
0.596980 -0.304344 0.040343
-0.125240 -0.709167 0.408517
-0.500748 -0.699741 0.055843
-0.124800 -0.709049 0.406978
-0.134669 0.439085 -0.695561
0.240725 -0.688557 -0.684298
-0.501443 -0.698985 0.055268
-0.496116 0.036046 0.782273
-0.486838 0.417369 0.400196
-0.477941 0.408225 -0.303125
-0.125610 -0.708863 0.408742
-0.514686 0.790438 0.033057
-0.481526 0.037918 -0.672181
0.608184 0.393490 0.043801
0.240418 -0.687848 -0.685736
0.615521 -0.689092 -0.348142
-0.514268 0.787897 0.033718
-0.127340 -0.708489 0.409973
-0.500063 -0.324053 -0.322134
-0.128210 -0.700885 -0.318265
-0.140396 0.763403 -0.293220
-0.488764 -0.324449 0.430959
-0.139951 0.764948 -0.295298
-0.480082 0.039811 -0.672840
0.239778 0.421157 -0.322475
0.222780 -0.310255 0.400047
-0.513480 0.790890 0.034112
-0.499344 -0.697947 0.055380
0.609080 0.393320 0.042838
0.222838 -0.308520 0.399686
-0.515693 0.791671 0.033697
-0.489687 -0.325387 0.429536
-0.096175 -0.313551 -0.682939
-0.093766 -0.317072 -0.683895
0.240530 0.065025 -0.697466
-0.136429 0.436726 -0.697183
-0.499299 -0.697256 0.053025
-0.501016 -0.697274 0.054784
0.238559 -0.688569 -0.683243
-0.477874 0.407546 -0.305118
-0.501277 -0.698141 0.054116
0.242010 -0.688472 -0.684540
-0.478417 0.410952 -0.304262
0.242091 0.404437 0.398716
-0.502327 -0.324458 -0.323893
-0.481798 0.037454 -0.672579
-0.127342 -0.701777 -0.316809
-0.128592 -0.701683 -0.315351
-0.501320 -0.699233 0.053880
-0.489341 -0.323821 0.431953
0.242144 -0.690294 -0.684451
-0.491936 0.418879 0.401877
-0.480422 0.038499 -0.672298
-0.125863 -0.707369 0.407755
-0.140102 0.764923 -0.295096
-0.488838 -0.325505 0.430776
-0.126240 -0.709267 0.407545
0.237269 0.782401 0.050012
0.583919 -0.310124 -0.696232
-0.500124 -0.325435 -0.322152
0.608384 0.394611 0.044485
0.620092 0.042608 -0.327271
0.622432 0.040684 -0.327667
-0.129074 -0.702737 -0.318734
0.598402 -0.303485 0.043485
-0.541801 0.029892 0.038012
-0.480728 0.039600 -0.673565
0.612954 -0.689141 -0.349548
-0.134437 0.786026 0.413287
0.584811 -0.308693 -0.696591
-0.490174 -0.324920 0.430275
-0.495323 0.037598 0.784970
0.621058 0.042046 -0.325682
0.597717 -0.304336 0.042315
-0.137299 0.437789 -0.696594
0.243004 0.407349 0.400145
0.596951 -0.305475 0.041133
0.612710 -0.687613 -0.347843
0.229353 -0.683991 0.034192
0.240410 0.062630 -0.700996
-0.140932 0.763749 -0.294774
-0.539471 0.029552 0.035404
0.212904 0.056929 0.813225
0.631397 0.061354 0.426780
-0.514601 0.788254 0.034283
0.583757 -0.308501 -0.695695
-0.501558 -0.322824 -0.322331
-0.137081 -0.313096 0.790377
-0.502235 -0.698546 0.054508
-0.514331 0.790585 0.035122
-0.500450 -0.323631 -0.322644
0.631365 0.062410 0.426300
0.212622 0.057549 0.813910
0.237494 0.781814 0.048769
-0.124430 -0.709530 0.409535
0.613413 -0.689142 -0.347654
-0.132936 0.428631 0.807831
0.238750 0.420060 -0.321713
-0.135385 0.785593 0.414233
-0.502795 -0.699276 0.054205
-0.123869 -0.710313 0.408388
-0.134898 0.430442 0.808931
-0.134880 0.428447 0.809815
-0.481886 0.038461 -0.671668
0.583977 -0.309931 -0.696768
0.608034 0.394239 0.046200
0.599176 -0.303630 0.041159
0.236724 0.782590 0.049464
-0.136067 0.429234 0.807954
-0.480007 0.039742 -0.672587
0.240893 -0.688534 -0.682913
0.240303 -0.687053 -0.684806
0.241632 -0.686385 -0.685245
-0.122850 -0.710297 0.407104
-0.128344 -0.701535 -0.316534
0.229390 -0.684544 0.032731
-0.494953 0.036642 0.783522
0.212020 0.058030 0.814327
-0.479757 0.038365 -0.673513
-0.134119 0.429600 0.808038
-0.139866 0.762701 -0.294752
-0.495428 0.034790 0.784100
0.239316 0.782942 0.049574
-0.479879 0.038906 -0.673864
-0.539411 0.029735 0.037013
0.235703 0.781966 0.048860
0.241261 -0.689724 -0.684183
-0.125247 -0.708096 0.407855
0.630328 0.062667 0.425864
-0.480862 0.040223 -0.673055
0.597165 -0.302580 0.042403
-0.127087 -0.708065 0.407790
-0.540612 0.029825 0.037702
0.238670 0.420194 -0.321380
-0.475882 0.410665 -0.304959
-0.490019 -0.322911 0.431894
-0.498775 -0.326466 -0.322213
-0.496037 0.036026 0.783485
0.585798 -0.310236 -0.698828
0.244997 0.404938 0.400334
