OFF
256 0 0
0.585397 -0.321385 -0.704915
0.592618 0.049062 -0.323535
0.216596 -0.667155 0.023008
0.237690 0.759053 0.069724
-0.119183 0.428854 0.777008
-0.445732 0.384230 -0.313574
0.215240 -0.665845 0.025563
-0.507061 -0.683274 0.048613
-0.120081 -0.662515 0.405453
-0.465546 -0.290215 0.389028
0.227899 -0.693474 -0.682024
-0.463007 -0.289604 0.389017
0.237748 0.759707 0.070768
-0.482037 0.743150 0.021595
0.227802 0.406355 -0.332595
-0.118704 -0.662740 0.405308
0.232586 0.036047 -0.682236
0.227332 0.407421 -0.332074
0.590516 0.050955 0.444526
0.225889 -0.695076 -0.683539
-0.484744 -0.308590 -0.296307
-0.146679 -0.663220 -0.304654
-0.148090 -0.327852 -0.663289
0.593993 -0.299712 0.044056
-0.444921 0.383686 -0.312508
-0.487843 -0.308135 -0.296093
0.223731 0.045349 0.798308
0.220342 -0.305391 0.424327
-0.466093 -0.290432 0.389548
0.589208 0.051895 0.443711
0.592440 0.049126 -0.324055
0.591848 0.047774 -0.323609
0.604464 0.399508 0.049827
-0.120905 -0.665807 0.403109
-0.472563 0.421704 0.405504
-0.146147 -0.664494 -0.304283
-0.482850 0.744364 0.019017
-0.506591 -0.683962 0.048244
0.255302 0.414176 0.424659
0.215866 -0.668081 0.024602
-0.151029 -0.325222 -0.663535
-0.121542 -0.664149 0.405480
0.594202 -0.300020 0.047193
0.229811 0.407419 -0.332717
0.583765 -0.324030 -0.706771
-0.146061 -0.665021 -0.304769
0.252728 0.414843 0.424035
-0.482448 0.745228 0.020402
0.593538 0.047740 -0.325830
-0.508423 0.077576 0.046200
-0.146055 -0.662014 -0.302184
-0.464563 -0.290889 0.389396
-0.507256 -0.685367 0.047832
0.217721 -0.304708 0.422170
-0.506604 -0.682525 0.047103
0.230081 0.406339 -0.331545
0.586200 -0.692247 -0.299779
-0.121036 0.426984 0.777710
0.585943 -0.693177 -0.298970
-0.107469 0.769826 -0.321296
-0.119361 -0.663967 0.405084
-0.127749 0.398322 -0.689550
0.229094 0.408249 -0.330693
-0.131777 0.791900 0.387080
0.229255 0.407073 -0.332056
-0.485238 -0.308437 -0.293762
0.588979 0.052059 0.444001
-0.508660 0.076009 0.050181
-0.484812 -0.308202 -0.296554
-0.119817 -0.664608 0.406587
-0.148702 -0.326594 -0.664836
-0.131119 0.790547 0.388711
0.583927 -0.321090 -0.706357
-0.486529 -0.307506 -0.294442
0.592252 0.048637 -0.324626
-0.472574 0.421593 0.405495
-0.149020 -0.324538 -0.663925
0.588257 -0.695042 -0.299227
-0.121066 -0.664709 0.406263
-0.119733 -0.664969 0.404422
0.589986 0.051163 0.446354
0.583683 -0.322798 -0.705628
-0.148031 -0.324707 -0.663827
0.593698 -0.299963 0.042951
0.218189 -0.304306 0.421754
0.585947 -0.694944 -0.299597
0.584511 -0.321738 -0.704837
-0.144893 -0.665803 -0.304307
-0.506442 -0.685178 0.046631
0.214490 -0.667503 0.025490
-0.150644 -0.326113 -0.662393
-0.483187 -0.310755 -0.294200
-0.485568 0.046790 0.770513
-0.482401 0.743614 0.018124
0.584962 -0.320994 -0.705514
0.233049 0.035643 -0.681529
-0.463623 -0.290851 0.389340
0.238587 0.759074 0.069563
0.227656 0.408086 -0.331352
0.215339 -0.668276 0.024206
-0.120806 0.429655 0.777821
0.219326 -0.302386 0.422501
0.231604 0.037065 -0.679897
0.218197 -0.303440 0.421759
0.592663 -0.299414 0.045371
0.587829 -0.695202 -0.300012
0.588929 0.052410 0.445230
-0.483368 0.745019 0.020922
-0.472023 0.421989 0.404462
0.594387 0.047406 -0.323702
-0.125158 -0.311333 0.764933
0.603424 0.400127 0.047857
0.256953 0.415623 0.426707
0.218888 -0.304251 0.421535
0.217171 -0.668494 0.025031
-0.108837 0.769407 -0.322234
-0.143819 -0.665498 -0.303071
0.586717 -0.694575 -0.297929
-0.108011 0.771386 -0.320588
-0.131297 0.791727 0.389380
-0.506603 -0.683937 0.047308
-0.145336 -0.664100 -0.302893
-0.126165 0.399145 -0.689447
0.588882 0.052505 0.444882
0.588934 0.051484 0.443406
0.231313 0.036566 -0.682743
-0.506282 0.077831 0.049574
-0.149070 -0.325344 -0.662852
0.602315 0.401260 0.047430
0.603729 0.401241 0.048505
0.222648 0.045023 0.795361
0.238694 0.758933 0.068230
-0.485930 0.044168 0.770586
0.225168 -0.694610 -0.683032
-0.120900 -0.663859 0.406111
-0.465378 -0.291258 0.389440
0.595744 -0.299199 0.044140
-0.120063 -0.665142 0.406710
-0.475137 0.421521 0.405359
0.603799 0.401639 0.047355
-0.445262 0.384178 -0.313238
-0.443671 0.383418 -0.313250
-0.126473 -0.311886 0.765440
-0.129851 0.791335 0.390593
-0.481084 0.743993 0.021068
0.586999 -0.696641 -0.299784
-0.466341 -0.289504 0.389571
-0.484020 0.742688 0.019118
-0.510247 0.011277 -0.688772
-0.510221 0.077045 0.048381
-0.122475 0.428102 0.776273
0.596045 -0.301416 0.045316
0.224185 0.043442 0.798134
0.588656 0.051688 0.444552
-0.445594 0.384575 -0.312212
-0.462064 -0.290658 0.391120
-0.119412 0.428601 0.778861
0.218335 -0.304067 0.423810
-0.446811 0.384073 -0.313002
-0.149576 -0.326472 -0.662861
0.591593 0.049143 -0.323960
-0.126159 0.397634 -0.687794
-0.510391 0.010460 -0.688529
-0.465646 -0.290413 0.390427
0.593338 0.047525 -0.324701
-0.130246 0.791415 0.390365
-0.145502 -0.664426 -0.306075
0.594551 -0.300374 0.044998
-0.484980 0.743800 0.020006
-0.128757 0.791483 0.389388
-0.146179 -0.664847 -0.303510
0.220127 -0.304767 0.423303
-0.132209 0.792378 0.390044
0.216136 -0.667729 0.026659
-0.145670 -0.664704 -0.304457
-0.446193 0.384815 -0.313792
-0.121070 0.429456 0.779753
-0.510468 0.012947 -0.686306
-0.485657 -0.309761 -0.294426
0.226687 -0.694741 -0.682345
-0.108214 0.770549 -0.319914
-0.121745 -0.663613 0.405801
0.604951 0.401576 0.048503
0.238955 0.760331 0.070137
0.228978 0.406815 -0.332466
-0.508154 -0.683176 0.046727
0.582916 -0.322867 -0.706026
-0.473748 0.420769 0.405129
-0.107914 0.771028 -0.323123
-0.464252 -0.290189 0.389684
0.227482 0.408256 -0.331486
-0.484998 -0.307780 -0.295051
-0.108348 0.771160 -0.322559
-0.120995 0.429347 0.779359
-0.486952 0.044127 0.771088
-0.481055 0.744477 0.020569
-0.118681 -0.665429 0.405819
-0.120051 -0.663375 0.403972
-0.507833 0.076413 0.048882
0.231671 0.035664 -0.679278
0.252673 0.415623 0.424470
-0.505960 -0.684884 0.046216
0.239632 0.759969 0.070442
0.582641 -0.321355 -0.705120
0.225128 -0.694030 -0.683254
0.217541 -0.669801 0.025614
-0.123306 -0.310938 0.767213
-0.473307 0.420756 0.404897
0.223270 0.042845 0.797818
0.252840 0.414409 0.426503
-0.108696 0.769643 -0.322405
0.589881 0.052156 0.444178
-0.126304 0.397360 -0.688292
0.585692 -0.695901 -0.300109
0.232172 0.035274 -0.681178
-0.482541 0.745127 0.022539
-0.447153 0.384036 -0.314312
0.219998 -0.306067 0.422488
-0.484807 0.045963 0.770639
0.253770 0.414006 0.424978
0.228260 0.405898 -0.331551
0.590491 0.050876 0.443161
0.583809 -0.320467 -0.703417
-0.125750 0.398518 -0.689471
0.605760 0.401693 0.050065
-0.511041 0.011729 -0.688835
0.587566 -0.694690 -0.297747
-0.121708 0.427835 0.778875
-0.512104 0.011830 -0.689770
-0.464088 -0.288655 0.389541
-0.131612 0.789955 0.388883
-0.506170 -0.683761 0.046664
0.239127 0.759621 0.070801
-0.483660 0.744064 0.023152
0.253320 0.414821 0.424673
-0.108804 0.771843 -0.322505
-0.109615 0.769783 -0.322225
0.215259 -0.669018 0.026658
-0.507302 -0.683807 0.047050
-0.126167 0.396814 -0.687792
-0.510787 0.012932 -0.690575
-0.109185 0.770192 -0.320164
-0.485205 -0.307235 -0.295263
-0.126487 -0.311325 0.767691
0.252473 0.414950 0.424625
-0.486253 0.044678 0.773328
0.225401 -0.693937 -0.682421
0.589329 0.049815 0.445104
0.227100 -0.693787 -0.684038
0.215185 -0.668306 0.025360
-0.505002 0.075853 0.047994
0.605411 0.401795 0.047382
0.584321 -0.322239 -0.704430
-0.506807 -0.684768 0.047704
-0.129466 0.791412 0.391147
-0.122547 -0.311256 0.764924
