OFF
256 0 0
0.318717 -0.499240 -0.320147
-0.046018 0.606787 -0.320686
-0.046473 -0.498916 0.048668
-0.047420 -0.494897 0.783219
0.321233 -0.495815 0.414518
0.686517 -0.130565 0.413211
-0.416728 -0.497357 -0.322294
0.319205 -0.495762 0.413980
0.687542 0.604803 -0.318339
0.686622 -0.495464 0.047392
0.318351 -0.130552 -0.687460
0.686398 0.605222 -0.320091
0.319076 -0.498322 0.414638
0.686730 -0.497365 0.047993
-0.414297 -0.130313 -0.687895
-0.413221 -0.130901 0.783608
-0.048452 0.234981 -0.686983
0.686748 0.235319 0.048088
0.686722 -0.130205 0.413358
0.318039 -0.496406 -0.319986
-0.047576 0.602371 -0.319283
0.318233 -0.130765 -0.687874
0.687371 0.235995 -0.687567
0.686200 -0.129709 -0.320280
0.319895 -0.130449 -0.686940
0.318956 -0.131004 -0.687629
-0.780552 0.235269 0.047678
-0.415915 -0.130903 -0.689048
-0.413627 -0.496546 -0.320271
-0.780280 -0.497413 0.049565
0.686890 0.237097 -0.687031
-0.781182 -0.132097 -0.320101
0.318257 0.606011 0.046430
-0.047618 -0.498771 0.783094
0.321020 0.604479 0.047445
0.320550 -0.496562 0.413931
-0.415296 0.603610 0.046303
-0.048857 0.604824 -0.319108
0.688663 -0.129120 -0.318532
0.320580 -0.498633 0.415085
-0.414937 -0.497302 -0.319546
0.318576 -0.497893 0.415575
0.686405 -0.129603 -0.318404
-0.048683 -0.498863 -0.687575
0.320377 -0.130758 -0.687546
0.686761 0.603868 -0.321657
0.321577 -0.130817 0.782494
-0.047758 -0.498677 0.047437
-0.047199 0.237031 0.782012
0.319234 0.605616 -0.688040
0.318065 -0.130492 0.782568
-0.045053 0.235522 0.780681
0.318312 0.236060 0.413679
-0.047692 0.237515 -0.687193
0.319360 -0.132058 0.781205
0.686409 -0.131284 -0.320477
-0.046844 -0.497731 0.047657
-0.413186 -0.129656 -0.686473
0.319795 0.602318 0.048774
0.686734 0.235846 0.044897
-0.414951 0.237823 0.413710
0.319214 -0.130339 0.783111
-0.046985 0.603843 -0.320486
-0.782457 -0.131370 0.415061
0.320144 0.602758 0.044876
0.319559 -0.130872 0.783048
0.319093 0.603245 0.046002
-0.047908 0.605245 0.415133
-0.412551 0.235526 -0.321209
0.687184 0.236388 0.046515
-0.782088 -0.132352 -0.320454
-0.048741 0.603734 0.415574
-0.412579 -0.496450 0.414703
-0.412996 -0.129570 -0.685815
-0.413281 -0.131371 0.782651
-0.414298 0.235904 -0.318730
0.686939 -0.128080 -0.321610
0.319918 0.237942 0.414658
-0.415299 0.237937 0.413919
-0.782679 -0.128233 0.413348
0.686315 -0.499684 0.048757
-0.045140 0.603634 -0.319401
0.684987 0.235700 0.046475
-0.415485 0.235017 -0.319394
-0.048140 -0.499350 0.048527
-0.781988 -0.130772 -0.319909
-0.782258 -0.129816 0.415185
0.689376 -0.129728 0.414213
0.321762 -0.498097 -0.319988
-0.047081 0.605162 0.414154
0.687236 0.237280 0.045835
-0.412913 0.602099 0.046754
-0.414650 0.602002 0.047727
-0.414163 0.603845 0.047114
0.320435 -0.496579 -0.319864
-0.047479 -0.497775 -0.686560
0.688692 -0.132787 -0.320647
0.687651 -0.128167 -0.319968
0.686510 -0.498139 0.046383
0.319508 -0.130222 0.782465
0.319288 -0.497080 -0.320916
-0.782109 0.236610 0.046798
0.686076 -0.130208 0.415576
0.688429 -0.497958 0.047434
0.318931 -0.130873 -0.688068
0.320159 0.236376 0.414721
0.687379 0.605042 -0.320005
0.319207 -0.497608 -0.319064
-0.048093 0.604978 0.415310
-0.782036 -0.131314 -0.320713
-0.781074 -0.129723 0.414513
0.317846 -0.497030 0.416457
0.688649 -0.497311 0.047585
-0.780476 -0.129687 0.414141
-0.416250 -0.130153 -0.687573
-0.416574 0.604304 0.047793
0.687934 -0.497300 0.046684
0.320164 0.604067 0.047703
-0.414000 -0.496319 -0.319511
-0.046813 0.235405 -0.686868
-0.414001 0.237722 -0.318434
-0.781766 0.236228 0.047907
0.319242 0.236255 0.414461
-0.048715 0.236334 0.782346
-0.416070 0.236726 0.415436
0.685771 0.604044 -0.318591
-0.781368 -0.497157 0.047468
-0.780460 0.237661 0.046506
-0.046105 0.235936 -0.686642
-0.046458 -0.498123 -0.687439
-0.415079 0.237650 -0.321115
-0.782237 0.236253 0.047899
0.319091 0.236485 0.415460
-0.415218 -0.129473 -0.686268
0.319090 0.605368 -0.685530
0.320090 -0.497729 0.414444
-0.414279 -0.129209 0.782283
0.319531 -0.495667 0.414088
-0.414921 -0.497490 0.415346
0.686955 0.604080 -0.319599
-0.046343 -0.497966 0.048071
-0.781192 -0.131563 -0.320797
0.686260 0.236162 -0.687702
0.319227 -0.130495 -0.685574
-0.413851 0.603158 0.046173
-0.782437 -0.129794 -0.319886
0.687649 -0.129996 -0.321272
0.688093 0.236356 -0.686856
0.687637 0.236034 0.046174
-0.780711 0.236608 0.047791
0.687041 0.604519 -0.320354
-0.047328 0.604127 -0.319539
0.687139 -0.131653 0.413906
0.686906 0.236642 0.047426
-0.415154 -0.131389 -0.688642
0.686731 -0.496927 0.047210
-0.049336 0.235181 -0.685844
-0.047550 -0.496375 -0.686917
0.318812 -0.129122 -0.686968
-0.047702 -0.497821 0.782325
-0.415454 -0.497110 -0.319290
0.321404 -0.131048 0.780452
-0.413348 0.235881 -0.319951
-0.414380 -0.497901 -0.318929
-0.413355 -0.130904 -0.687257
-0.048819 0.235877 -0.685969
-0.047854 -0.496931 -0.686743
-0.415434 -0.498345 -0.318749
0.318999 0.603939 -0.685739
-0.413113 -0.130176 0.779181
-0.780333 -0.131359 0.414234
0.685390 0.603526 -0.318596
0.688236 -0.498911 0.047874
0.687368 0.235390 -0.686002
0.320885 0.604244 0.046239
0.686865 0.235931 -0.686648
-0.414255 0.236794 0.413654
0.688305 0.237409 0.047204
-0.781516 -0.130838 0.415450
-0.415624 0.236360 -0.320236
-0.413722 -0.497925 -0.318956
-0.048162 -0.496355 0.047885
0.319465 -0.130205 -0.685855
-0.045552 0.605966 -0.319735
-0.414960 -0.130385 -0.687183
-0.413972 -0.129609 -0.687627
-0.413391 -0.497744 0.416859
0.686073 -0.130036 0.415290
-0.046780 -0.498106 0.781124
0.687947 -0.499108 0.046031
-0.414704 -0.129865 0.781265
-0.047727 -0.497868 0.048032
-0.416113 -0.130281 -0.688347
-0.046759 0.604301 -0.320193
-0.046433 -0.500288 0.048890
0.687285 -0.497260 0.048848
0.686916 -0.129712 0.415328
0.319376 -0.498899 0.415364
0.321350 0.603834 0.047061
-0.415830 -0.498185 -0.319962
0.320383 0.602296 -0.689425
0.685723 -0.129605 0.413857
-0.047052 0.237014 0.782576
-0.414896 -0.129888 0.781688
0.317601 0.235799 0.417087
0.687624 -0.497950 0.046347
-0.413767 0.235994 -0.319592
-0.047881 0.237411 0.783859
0.320283 -0.497190 -0.319351
0.318448 0.236621 0.416684
-0.048867 0.235878 -0.688190
0.318882 0.239001 0.415610
0.319991 0.237340 0.415097
0.686015 0.604198 -0.319862
0.319233 -0.498270 -0.319333
-0.782766 -0.496072 0.046256
-0.045645 0.603125 0.413010
0.687769 -0.130111 -0.319435
-0.782433 -0.130558 -0.319018
-0.047960 0.607393 0.413414
0.320197 0.603679 -0.686378
0.688738 -0.128302 -0.319100
0.319593 0.604055 -0.688053
-0.048420 -0.494826 0.782642
-0.414390 0.237556 0.413048
0.319790 -0.499056 0.414173
0.321334 0.603693 -0.684747
0.688519 -0.130637 0.414401
0.687309 -0.131132 -0.320211
-0.047258 -0.498151 0.049050
-0.782141 -0.496501 0.047887
-0.415054 -0.130240 0.782005
-0.047006 0.236076 -0.685005
-0.045746 0.603385 0.414119
0.686882 -0.496168 0.049553
0.320112 0.603741 -0.686175
0.687181 -0.130078 -0.322087
-0.047275 0.237751 0.780559
-0.779892 -0.496825 0.047255
-0.414830 0.235220 0.413835
0.687102 0.235882 0.048413
-0.782704 0.236658 0.047082
-0.781223 -0.130426 0.415618
0.320143 -0.129969 -0.686224
-0.780443 -0.130686 -0.320379
0.319383 -0.129293 0.781735
-0.781671 -0.130430 0.413580
0.321187 -0.130456 0.781009
-0.414746 0.236469 -0.319986
-0.413346 -0.129494 -0.687185
0.320031 -0.496543 -0.320703
0.320802 0.603992 0.047796
-0.415033 -0.497661 0.415489
-0.045288 0.236814 0.783293
-0.045305 -0.497464 0.047123
-0.047909 -0.496378 0.047613
