OFF
256 0 0
0.302000 -0.127825 -0.684694
-0.055001 0.236817 0.778971
-0.041465 -0.493995 -0.666747
0.272959 0.210344 0.387406
-0.028895 0.596818 -0.330911
-0.054596 0.237320 0.780899
0.684098 0.238016 -0.688743
0.290680 -0.457197 0.364170
-0.394349 -0.484925 -0.302406
-0.030013 0.596339 -0.333222
0.672306 -0.118819 0.403265
-0.053908 0.236047 0.779377
0.288087 -0.131633 0.758879
0.680597 0.237547 -0.690526
0.660601 0.574460 -0.304052
-0.393716 -0.486704 -0.303324
-0.039119 -0.495438 -0.666206
-0.385746 -0.498773 0.410385
0.672440 -0.116227 0.404727
0.691535 0.219334 0.045322
-0.052199 0.605417 0.411307
0.693302 -0.475103 0.040244
0.288737 -0.455340 0.364957
-0.402048 0.235510 0.390647
-0.028691 0.596950 -0.328728
0.645213 -0.114859 -0.306897
0.301940 -0.128421 -0.682741
-0.763267 -0.499154 0.053936
0.681619 0.238950 -0.689345
0.646945 -0.115354 -0.306565
-0.423540 0.586941 0.038570
-0.384649 -0.498364 0.410642
-0.774072 -0.131999 -0.300208
-0.393709 -0.486816 -0.304653
0.684436 0.237465 -0.689768
0.302763 -0.128199 -0.683261
-0.782822 0.238075 0.062566
-0.029234 0.596734 -0.332110
0.301219 -0.128530 -0.683500
0.684493 0.238463 -0.688976
-0.041761 0.222254 -0.676767
0.695242 -0.473064 0.038779
0.327905 0.595048 0.053839
-0.386488 -0.498383 0.409423
0.671492 -0.117333 0.405635
-0.775826 -0.115210 0.410935
-0.049945 -0.481852 0.759065
-0.385502 0.214727 -0.268939
-0.424594 0.589715 0.037023
-0.776166 -0.134345 -0.299215
-0.782451 0.235335 0.061942
0.647816 -0.115849 -0.308049
-0.053748 0.239451 0.779537
0.331490 0.596338 -0.676941
0.690808 0.216232 0.045633
-0.387019 0.213696 -0.269149
-0.783352 0.238750 0.062327
-0.049223 -0.483709 0.759490
0.303151 -0.128524 -0.684955
-0.385839 0.216067 -0.268491
0.695051 -0.473980 0.037761
-0.039128 -0.495696 -0.667290
-0.039850 0.222205 -0.678748
0.694384 -0.475043 0.037919
-0.424522 0.587062 0.035449
0.302174 -0.128137 -0.682762
-0.407391 -0.109681 0.764359
-0.045841 -0.507155 0.033230
0.328894 0.596174 0.054468
-0.401062 0.237212 0.390635
-0.408172 -0.108360 0.765202
0.647847 -0.113693 -0.307660
0.659315 0.575232 -0.305480
-0.762499 -0.497588 0.053477
-0.039920 0.222574 -0.676429
-0.408362 -0.109469 0.765414
0.330276 0.597905 -0.676531
-0.781957 0.237165 0.063510
0.301761 -0.126978 -0.682105
0.659475 0.573622 -0.306272
-0.048538 -0.483555 0.760519
-0.772865 -0.132042 -0.301272
-0.395450 -0.486751 -0.301973
0.285312 -0.130266 0.759080
0.329261 0.598280 -0.675697
-0.393403 -0.486175 -0.302182
-0.387786 0.214983 -0.270054
-0.041261 0.224243 -0.678798
-0.408095 -0.109231 0.766416
-0.386898 0.214517 -0.269624
-0.387210 0.216442 -0.269887
-0.780459 0.236779 0.062406
0.290462 -0.456032 0.366613
-0.051065 0.604525 0.412157
0.647095 -0.114911 -0.306461
-0.423195 0.587827 0.036100
0.272849 0.208582 0.388765
-0.774777 -0.134010 -0.300767
-0.393931 -0.487761 -0.304084
0.647025 -0.113914 -0.305045
0.327484 0.597260 0.053479
-0.407223 -0.108850 0.765945
-0.371635 -0.116716 -0.649241
0.289225 -0.457393 0.367489
-0.045042 -0.509980 0.033586
0.329842 0.595406 0.053116
-0.781640 0.237056 0.062448
-0.409143 -0.108334 0.765840
0.321123 -0.505088 -0.313093
-0.028414 0.597201 -0.330532
0.273439 0.210688 0.388342
-0.780265 0.238124 0.063101
0.693375 -0.474601 0.038559
-0.384321 -0.499084 0.408132
-0.409274 -0.110002 0.765528
-0.764408 -0.500215 0.053778
-0.402914 0.236360 0.391647
0.288972 -0.455597 0.365218
0.291415 -0.456522 0.366871
0.331112 0.595088 -0.677207
0.287560 -0.130043 0.759527
-0.042618 0.222168 -0.679702
0.682985 0.239759 -0.690311
-0.764383 -0.499115 0.054184
0.321675 -0.505455 -0.313763
-0.386318 0.215487 -0.270334
0.672003 -0.116518 0.403832
-0.424615 0.588055 0.037447
-0.055495 0.236557 0.779822
-0.408003 -0.108336 0.765256
0.683720 0.239393 -0.690389
-0.045722 -0.509688 0.032797
-0.026993 0.596105 -0.332541
-0.384014 -0.498024 0.409116
-0.407965 -0.108772 0.766121
-0.040310 0.221623 -0.677583
0.303442 -0.126489 -0.683899
-0.041591 0.222849 -0.677370
-0.780098 0.236493 0.060846
0.648953 -0.114011 -0.306164
-0.403354 0.232956 0.390893
-0.038174 -0.494571 -0.668714
-0.421993 0.588139 0.036464
0.329757 0.596346 0.054278
0.648711 -0.114896 -0.308013
0.690064 0.220084 0.046314
-0.780733 0.235184 0.061000
-0.028346 0.596297 -0.332737
0.289564 -0.457078 0.365078
-0.773790 -0.132555 -0.299035
0.690850 0.220822 0.047750
-0.046036 -0.506547 0.033682
-0.029361 0.597047 -0.331632
0.285849 -0.133151 0.761805
0.661254 0.572387 -0.304524
-0.774668 -0.115262 0.409201
-0.408580 -0.108813 0.765991
-0.049583 -0.485001 0.759864
0.687650 0.218860 0.047545
-0.763130 -0.499066 0.054396
0.683270 0.240460 -0.689793
-0.400857 0.235122 0.391230
0.647131 -0.115976 -0.306752
-0.372543 -0.117993 -0.649290
-0.047568 -0.507058 0.033205
0.301723 -0.127368 -0.683869
-0.041366 0.221044 -0.676311
0.272257 0.209198 0.387938
-0.773366 -0.132498 -0.300325
-0.371948 -0.118212 -0.648733
0.321041 -0.504995 -0.312401
-0.772540 -0.132993 -0.300799
-0.407373 -0.107920 0.766845
0.287253 -0.131568 0.757895
-0.773235 -0.134530 -0.300066
-0.372820 -0.117001 -0.650324
-0.049684 -0.484891 0.758879
-0.029585 0.598048 -0.331701
-0.402126 0.234998 0.391223
0.694067 -0.476194 0.039406
0.671811 -0.117086 0.405376
0.691421 0.218722 0.046536
-0.041517 -0.494559 -0.666218
-0.387041 0.214266 -0.268118
-0.042602 0.222312 -0.679227
-0.050908 -0.483834 0.761415
0.673009 -0.115961 0.403148
0.693140 -0.473616 0.039008
-0.041006 0.220658 -0.677097
0.321945 -0.506300 -0.312957
-0.406777 -0.109201 0.764571
-0.402123 0.234938 0.393592
-0.041538 0.223381 -0.680034
-0.041312 0.222302 -0.677264
-0.027744 0.597172 -0.332152
-0.423680 0.586431 0.036017
-0.781364 0.236808 0.063121
-0.046964 -0.508004 0.033472
-0.782496 0.235311 0.061125
0.671451 -0.116835 0.403794
-0.421793 0.586972 0.036703
0.662027 0.573923 -0.305482
-0.774602 -0.132952 -0.301463
-0.385808 -0.498396 0.409971
-0.039735 -0.493923 -0.669124
-0.049388 -0.485641 0.759628
-0.051514 0.607803 0.413401
-0.052904 0.606081 0.412822
-0.764197 -0.499074 0.055913
-0.054462 0.239512 0.779724
0.272846 0.210153 0.386783
-0.421617 0.586428 0.038159
-0.405055 0.234497 0.391817
0.300920 -0.130122 -0.684947
-0.055810 0.237341 0.779974
0.329464 0.594605 0.054892
0.650611 -0.114852 -0.306492
0.331151 0.598020 -0.676587
-0.049651 -0.483233 0.759265
0.329096 0.594976 0.052917
-0.402341 0.235751 0.392625
0.671870 -0.119837 0.403363
-0.049842 0.606312 0.412049
-0.368815 -0.117619 -0.651047
0.328018 0.595449 0.052467
-0.773963 -0.131708 -0.300282
-0.774126 -0.115743 0.412784
0.323507 -0.504755 -0.311349
-0.053910 0.237360 0.777762
-0.049954 -0.484307 0.761214
0.647707 -0.114431 -0.305539
0.331511 0.596348 -0.674602
-0.385335 -0.497939 0.409105
0.329355 0.595467 0.052497
-0.761968 -0.498594 0.054448
0.695125 -0.472697 0.040424
-0.387204 0.214687 -0.267831
-0.387073 0.213834 -0.270601
-0.048840 -0.484805 0.758784
-0.408110 -0.107942 0.767324
-0.039570 -0.492763 -0.667018
0.684974 0.237921 -0.689587
-0.038160 -0.496263 -0.665458
-0.028612 0.595046 -0.334139
-0.400700 0.234923 0.389956
-0.385460 0.215039 -0.267473
-0.030168 0.596198 -0.330257
0.302109 -0.129135 -0.682482
-0.422624 0.589649 0.037602
0.693034 -0.475113 0.037487
0.330208 0.596627 0.053679
-0.045509 -0.508995 0.032845
-0.037843 -0.493978 -0.667997
0.330902 0.596040 -0.678798
-0.041743 0.222741 -0.676605
-0.395404 -0.485507 -0.304651
