OFF
256 0 0
0.671818 -0.117275 0.403464
-0.028990 0.597723 -0.332395
-0.385220 -0.498953 0.410269
0.693394 -0.474077 0.039945
0.291406 -0.458204 0.365115
-0.422573 0.587172 0.038936
-0.048740 -0.483381 0.757903
-0.401251 0.234466 0.392123
0.670611 -0.116940 0.402599
-0.782550 0.234639 0.064250
0.670363 -0.117447 0.404285
-0.764665 -0.499247 0.054326
0.331560 0.597215 -0.676010
-0.403064 0.234801 0.390481
0.323680 -0.505950 -0.312494
0.272719 0.210553 0.387795
-0.027723 0.596332 -0.331176
0.285045 -0.131462 0.759150
-0.045999 -0.508648 0.033326
0.331489 0.595243 -0.677030
-0.040172 -0.494103 -0.667692
0.322644 -0.505859 -0.312934
-0.422738 0.586877 0.036618
0.689759 0.217448 0.046449
0.692620 -0.474956 0.037652
-0.029106 0.596951 -0.330446
0.288543 -0.455768 0.365861
-0.040324 0.222187 -0.677180
-0.764038 -0.498823 0.051790
-0.055633 0.239641 0.780142
-0.774212 -0.133586 -0.300440
-0.386704 0.215475 -0.269298
0.691302 0.219416 0.046043
-0.407231 -0.110315 0.765804
-0.773599 -0.132651 -0.299370
0.328414 0.595502 0.053992
0.330328 0.599467 -0.676725
0.692388 0.219047 0.047952
0.322774 -0.503229 -0.312178
0.302350 -0.128072 -0.682679
-0.046748 -0.508881 0.030822
-0.057256 0.238832 0.779251
0.683674 0.237965 -0.690540
-0.041090 0.223112 -0.680134
-0.041259 -0.494408 -0.667317
-0.408785 -0.108221 0.767151
-0.055823 0.238249 0.779654
-0.392995 -0.485945 -0.303419
0.690733 0.219666 0.045469
0.693696 -0.473164 0.039405
-0.386250 0.216436 -0.268918
0.660281 0.574545 -0.306948
0.288982 -0.456723 0.364507
0.286672 -0.131171 0.758933
-0.049969 -0.482660 0.759826
-0.394499 -0.485967 -0.304068
0.330130 0.596182 0.051600
0.660131 0.575646 -0.304219
0.289778 -0.455779 0.366398
-0.052121 0.606110 0.411833
0.272482 0.210030 0.389686
-0.781115 0.237728 0.062229
-0.765087 -0.498829 0.055074
-0.783188 0.236406 0.061463
-0.773968 -0.113564 0.412262
-0.404306 0.234120 0.390115
-0.054286 0.605510 0.411398
-0.780912 0.237312 0.062426
0.290215 -0.456193 0.365834
0.286889 -0.131255 0.760748
0.329799 0.596449 -0.677313
-0.385242 -0.497893 0.409842
0.694070 -0.474855 0.035934
0.327204 0.595855 0.054898
-0.045922 -0.510286 0.032763
-0.407199 -0.109613 0.765432
-0.048563 -0.482313 0.758571
-0.049672 -0.484650 0.759626
-0.776444 -0.114757 0.410908
0.647658 -0.115445 -0.305790
-0.040418 0.223529 -0.678110
0.285630 -0.131525 0.759556
0.323646 -0.504450 -0.311326
0.320181 -0.505548 -0.311730
-0.054445 0.238125 0.779817
-0.386666 0.214171 -0.269999
-0.423391 0.588422 0.036417
-0.054967 0.238689 0.778534
0.301453 -0.128084 -0.684214
-0.782699 0.237419 0.062828
-0.028757 0.597018 -0.330914
-0.052078 0.606056 0.412358
-0.424656 0.589232 0.037331
-0.041366 0.221719 -0.678630
-0.407928 -0.110170 0.766624
-0.423352 0.589381 0.036758
-0.395109 -0.487980 -0.304201
-0.775430 -0.116119 0.410022
0.694694 -0.474906 0.038409
0.693890 -0.473250 0.038224
0.273254 0.209471 0.385855
0.299700 -0.127728 -0.682715
0.272562 0.209443 0.387356
0.660550 0.572829 -0.305212
0.328643 0.594271 0.054017
0.328651 0.594732 0.053787
0.658154 0.573365 -0.303355
-0.406115 -0.108276 0.766804
-0.783261 0.236707 0.062619
-0.409522 -0.110287 0.766559
0.321792 -0.505294 -0.312169
-0.763203 -0.498879 0.054099
-0.039776 -0.495257 -0.669679
0.303254 -0.128983 -0.683607
0.288747 -0.456959 0.364131
-0.783353 0.237530 0.063593
-0.773264 -0.133702 -0.298858
0.301695 -0.128087 -0.682651
-0.371478 -0.118243 -0.648858
0.682957 0.239274 -0.689708
0.272961 0.209887 0.387310
-0.040732 0.221567 -0.678584
-0.029618 0.599230 -0.330737
-0.401908 0.234363 0.390885
-0.764022 -0.499749 0.052770
-0.029996 0.595636 -0.330288
0.302822 -0.128371 -0.682539
-0.385599 -0.498661 0.409169
-0.047594 -0.507331 0.034584
-0.762509 -0.498584 0.052731
-0.372841 -0.118321 -0.650795
-0.055768 0.238074 0.779751
-0.051690 -0.484634 0.760026
-0.384670 -0.500142 0.409216
0.659734 0.572083 -0.305564
-0.047584 -0.506436 0.032579
0.285789 -0.130566 0.760258
-0.027838 0.596519 -0.329828
-0.765769 -0.500558 0.054795
-0.050822 -0.482819 0.759914
-0.776408 -0.115208 0.411257
-0.029329 0.596418 -0.330709
0.285381 -0.131922 0.758563
-0.041316 -0.493668 -0.666366
0.330295 0.595018 0.053861
-0.030639 0.597261 -0.331988
0.648603 -0.115573 -0.307134
-0.047028 -0.509180 0.032863
-0.401692 0.233677 0.390520
0.695561 -0.473939 0.037095
-0.055871 0.239239 0.780077
0.271001 0.209206 0.388753
-0.421887 0.587264 0.037477
-0.777584 -0.115497 0.410340
-0.046388 -0.509162 0.034576
0.273817 0.210117 0.386249
-0.783304 0.235458 0.061393
0.290248 -0.455101 0.364380
0.695282 -0.474036 0.038813
-0.402788 0.235056 0.391715
0.329076 0.595618 0.051895
0.645933 -0.115399 -0.306942
-0.370026 -0.119317 -0.649935
0.321995 -0.504547 -0.314202
-0.423148 0.588819 0.037552
-0.395755 -0.484879 -0.301249
-0.051262 -0.482891 0.758541
-0.773183 -0.133355 -0.301136
-0.370163 -0.119944 -0.650471
0.692416 -0.476063 0.038611
0.290375 -0.456229 0.364922
0.300896 -0.129765 -0.685313
-0.386801 -0.498857 0.410062
-0.774683 -0.115131 0.412971
-0.389092 0.213278 -0.271006
-0.054474 0.606358 0.412825
-0.045089 -0.507235 0.033073
0.646528 -0.115160 -0.304958
-0.039616 0.220978 -0.677888
-0.776216 -0.115170 0.412318
-0.046460 -0.509562 0.031787
0.672051 -0.118299 0.402216
-0.048378 -0.482715 0.759003
0.647728 -0.114054 -0.307004
-0.402500 0.233907 0.392363
-0.048609 -0.482902 0.758993
-0.048457 -0.484171 0.760030
0.301078 -0.126992 -0.682308
0.330289 0.597677 -0.675983
0.289385 -0.455038 0.365714
0.647165 -0.115187 -0.306813
0.320632 -0.505083 -0.311538
-0.050242 -0.483118 0.758869
-0.370681 -0.117133 -0.649871
0.682727 0.237457 -0.688798
0.302306 -0.127468 -0.682836
-0.762130 -0.497453 0.053530
-0.040476 0.221344 -0.678172
0.302133 -0.128622 -0.682329
0.289899 -0.456184 0.368656
-0.774098 -0.132873 -0.300535
-0.055279 0.238815 0.781155
-0.040754 0.223629 -0.678401
0.286727 -0.129049 0.759482
0.695560 -0.475246 0.038269
0.290784 -0.455820 0.365497
-0.386258 0.215985 -0.270778
-0.055973 0.236952 0.778937
0.690024 0.219435 0.047028
-0.763004 -0.500013 0.054585
0.695338 -0.473413 0.037457
0.695237 -0.474234 0.038572
-0.047104 -0.507447 0.032949
-0.040134 0.222567 -0.679980
0.327019 0.595795 0.053409
-0.386421 0.215227 -0.270106
-0.387964 0.214060 -0.269108
-0.394804 -0.486339 -0.302032
-0.041251 0.221025 -0.675707
-0.046391 -0.509129 0.034082
-0.049574 -0.482730 0.759092
-0.041677 0.222969 -0.678074
-0.040146 -0.495208 -0.666456
-0.028612 0.598132 -0.331803
-0.040493 0.223177 -0.678160
-0.043945 -0.509204 0.032605
-0.046965 -0.508083 0.031833
-0.774191 -0.134173 -0.301012
-0.386653 0.215389 -0.269904
-0.385439 0.212708 -0.269580
-0.394644 -0.485747 -0.304175
0.321617 -0.504864 -0.314383
-0.049893 -0.482585 0.758281
0.691523 0.218638 0.048006
-0.046327 -0.508661 0.032194
-0.422204 0.587689 0.037201
-0.423889 0.587683 0.036815
-0.046222 -0.508036 0.032508
0.323346 -0.503848 -0.314223
0.302874 -0.128714 -0.682206
-0.040089 0.223003 -0.678322
-0.040409 -0.493685 -0.666676
-0.393384 -0.486432 -0.302782
-0.387156 0.215217 -0.271333
0.302865 -0.127520 -0.683083
0.329525 0.596053 0.055561
0.326904 0.595331 0.054219
-0.040952 -0.494736 -0.667473
-0.048762 -0.482131 0.758820
0.272395 0.211473 0.385457
-0.049541 -0.483514 0.759201
-0.371308 -0.118427 -0.651615
-0.051143 -0.484348 0.759671
-0.039370 0.221778 -0.678069
-0.409268 -0.110005 0.767026
-0.055277 0.238444 0.778679
