OFF
256 0 0
-0.047842 -0.498857 -0.679840
0.330359 -0.530206 0.418082
-0.049369 -0.500023 -0.680194
-0.426232 -0.114508 -0.685747
0.696881 0.231746 -0.677092
-0.417949 -0.483834 0.402144
-0.793037 -0.485168 0.039341
0.672004 -0.119357 0.394758
-0.781958 -0.113692 -0.315406
-0.050657 -0.498925 -0.680998
-0.027491 -0.489657 0.762444
-0.027129 -0.488232 0.762665
-0.781678 -0.114040 -0.316695
-0.056627 -0.508501 0.050390
0.329903 -0.530099 0.417005
-0.049688 0.637984 0.442248
-0.780594 -0.114973 -0.316483
-0.422931 -0.112893 -0.686325
-0.776594 -0.119551 0.413490
0.684568 0.225499 0.045864
-0.058306 -0.509726 0.049693
-0.795289 -0.486296 0.040594
-0.433430 -0.487479 -0.318902
0.672832 -0.119317 0.395696
0.330683 0.606274 -0.695990
-0.060579 0.254707 -0.708037
-0.374709 0.218409 -0.296096
-0.794668 -0.485269 0.040034
0.305521 0.262358 0.430997
0.694455 -0.491331 0.036002
-0.431215 -0.140209 0.803778
0.317831 0.576360 0.016024
-0.433260 -0.487761 -0.318759
-0.417476 -0.483615 0.401638
-0.391660 0.208752 0.391146
-0.800497 0.232752 0.043849
0.320947 -0.119973 0.786772
0.317421 -0.496328 -0.285104
-0.073759 0.215776 0.803304
0.682280 0.593687 -0.307544
0.314965 -0.496792 -0.285465
0.313982 -0.496258 -0.285193
-0.418940 -0.482911 0.401738
-0.428948 -0.140494 0.803748
-0.430461 -0.140798 0.803620
-0.423975 -0.113645 -0.685934
-0.049693 0.637950 0.442732
-0.799608 0.232603 0.044119
0.681691 0.594030 -0.306346
-0.781153 -0.113189 -0.315876
-0.050143 -0.499449 -0.682977
0.680919 0.594872 -0.308089
-0.432722 -0.489166 -0.319063
0.672877 -0.121317 0.395108
-0.391374 0.207747 0.393743
0.694399 -0.492509 0.032350
-0.060653 0.254345 -0.705644
-0.028985 -0.488981 0.763274
-0.393369 0.207348 0.390807
0.680316 0.594848 -0.306986
-0.035688 0.602206 -0.334742
-0.775662 -0.119138 0.411943
-0.049888 -0.499948 -0.679672
0.693423 -0.491052 0.035076
-0.799115 0.232123 0.041644
-0.036530 0.599540 -0.335732
-0.034474 0.599953 -0.336666
0.691697 -0.489728 0.033515
-0.033834 0.600925 -0.333356
0.332036 0.605964 -0.696192
0.714166 -0.113839 -0.335213
0.332004 0.606179 -0.696066
-0.425414 -0.110685 -0.684910
0.682059 0.226369 0.045932
0.304047 0.263987 0.431755
0.333484 0.604129 -0.695870
-0.032894 0.600940 -0.335763
0.322139 -0.117774 0.786542
0.330758 0.607282 -0.695706
0.681231 0.593505 -0.304855
-0.793245 -0.484042 0.038989
0.333026 0.606620 -0.696259
-0.795513 -0.484941 0.039991
0.673111 -0.120175 0.392295
0.681854 0.594545 -0.305921
-0.798358 0.232365 0.043142
-0.800024 0.233276 0.044202
0.699909 0.235277 -0.677498
0.315271 -0.496282 -0.286023
-0.393027 0.207427 0.392836
0.333052 0.605784 -0.696948
0.683112 0.226000 0.044517
0.672563 -0.120825 0.394359
-0.049818 0.637733 0.443840
0.699560 0.234206 -0.676698
-0.035347 0.600154 -0.333058
0.333520 0.607202 -0.695196
-0.794750 -0.485276 0.041504
0.671780 -0.120700 0.396080
-0.418836 -0.482544 0.400001
0.695835 -0.490050 0.035304
0.332279 -0.529211 0.417791
0.714812 -0.113127 -0.333795
-0.376517 0.219900 -0.295048
-0.060047 0.253627 -0.707541
-0.793747 -0.484950 0.038200
0.684849 0.225590 0.046177
-0.423986 -0.111546 -0.686241
-0.779591 -0.114955 -0.316305
0.717627 -0.115887 -0.333728
-0.424838 -0.111921 -0.686173
-0.424431 -0.111604 -0.685841
0.331401 0.606233 -0.694980
-0.799769 0.231261 0.043465
-0.783297 -0.112696 -0.316750
-0.418345 -0.482955 0.400737
-0.377695 0.219497 -0.297585
-0.049637 0.636985 0.440786
-0.059544 0.255302 -0.705285
0.322022 -0.119003 0.789065
-0.060560 0.254617 -0.707424
0.315962 -0.493015 -0.287546
-0.418231 -0.482611 0.401300
-0.423994 -0.113254 -0.687060
0.693220 -0.490912 0.033312
0.698864 0.235219 -0.673998
-0.776854 -0.119291 0.412777
-0.026203 -0.489999 0.761545
0.684377 0.227055 0.047306
-0.049426 -0.498364 -0.681815
0.333897 0.606044 -0.695973
-0.027896 -0.487669 0.762244
-0.025416 -0.490658 0.761682
0.316359 -0.159269 -0.671961
-0.034485 0.600102 -0.335349
0.315772 -0.496390 -0.286217
-0.407558 0.601525 0.027457
-0.050944 -0.501851 -0.679811
-0.393104 0.207196 0.392946
0.320996 0.575793 0.016316
-0.429708 -0.140183 0.806336
0.332800 0.605336 -0.696732
-0.434361 -0.488252 -0.319692
-0.776032 -0.119815 0.411661
-0.796533 -0.485306 0.040479
-0.058422 -0.508399 0.049778
-0.027190 -0.489216 0.764023
-0.376162 0.218207 -0.296537
-0.418110 -0.483495 0.403224
-0.055851 -0.508753 0.049480
-0.775501 -0.120502 0.412418
-0.781562 -0.115098 -0.316316
-0.796748 -0.486524 0.038795
0.302668 0.259624 0.430793
-0.375496 0.218622 -0.296016
-0.391679 0.205792 0.392882
-0.049354 0.637904 0.440849
0.315729 -0.495737 -0.286803
0.681306 0.594473 -0.308114
0.693999 -0.491404 0.033853
-0.423709 -0.111122 -0.686602
0.698618 0.234026 -0.675881
-0.418548 -0.480594 0.402024
-0.049407 -0.500101 -0.679950
-0.775831 -0.121681 0.413550
-0.375323 0.217710 -0.295556
-0.796293 -0.485813 0.041806
-0.427762 -0.139858 0.804009
0.693966 -0.492361 0.035400
-0.049959 0.638868 0.442609
0.698174 0.232557 -0.677200
-0.418738 -0.483425 0.402833
0.694945 -0.492168 0.034636
-0.430399 -0.140110 0.801845
0.681812 0.595037 -0.306578
-0.071095 0.216554 0.804102
0.713361 -0.113369 -0.335298
-0.425274 -0.112111 -0.685801
0.303025 0.263971 0.431601
-0.433241 -0.488523 -0.318730
0.304252 0.263050 0.431767
0.685439 0.225071 0.044507
0.684022 0.225910 0.046449
0.693609 -0.491848 0.034268
0.681687 0.596032 -0.306125
0.317865 -0.159608 -0.670938
-0.048240 -0.500974 -0.680977
-0.407175 0.600870 0.029395
-0.775519 -0.119107 0.411826
-0.432331 -0.490176 -0.317355
0.303517 0.264133 0.431230
0.317455 -0.495165 -0.284624
-0.433579 -0.487923 -0.317757
0.693875 -0.490726 0.035281
0.320856 -0.118786 0.786157
-0.059058 -0.508789 0.048824
-0.408518 0.600326 0.028220
-0.799049 0.230990 0.042906
-0.071748 0.216066 0.805654
-0.033539 0.598897 -0.333673
-0.433071 -0.486469 -0.317581
-0.070985 0.218052 0.803248
0.301519 0.263207 0.431556
-0.060495 0.256140 -0.706780
0.714498 -0.114814 -0.333488
-0.392336 0.208908 0.392991
-0.056306 -0.508675 0.050525
-0.391401 0.207311 0.391129
0.313941 -0.159403 -0.671746
-0.418544 -0.483942 0.402187
0.698308 0.234142 -0.676663
0.700826 0.231223 -0.677286
-0.374392 0.219267 -0.296375
-0.393612 0.209461 0.391337
-0.423804 -0.111193 -0.684040
-0.072349 0.216775 0.805405
0.672445 -0.121567 0.396694
-0.797288 -0.485113 0.039927
-0.795278 -0.486313 0.041218
-0.393574 0.207279 0.391659
0.681870 0.595362 -0.306864
-0.028823 -0.488607 0.763628
-0.781282 -0.114937 -0.316224
-0.061176 -0.509654 0.046912
0.316550 -0.157030 -0.670512
-0.061970 0.255426 -0.705581
0.682714 0.227081 0.046557
-0.419436 -0.484067 0.401326
0.674005 -0.122312 0.393866
-0.033315 0.598932 -0.335338
0.673424 -0.120289 0.392850
-0.430444 -0.140012 0.804145
0.301666 0.263759 0.432834
0.683312 0.225318 0.046400
0.333339 0.605298 -0.695370
-0.434058 -0.487830 -0.319812
0.331577 0.605880 -0.695224
0.332526 0.605335 -0.695968
-0.418971 -0.481949 0.401447
-0.048869 -0.500132 -0.680169
-0.797769 -0.484750 0.039464
0.302617 0.261989 0.432625
-0.035561 0.600146 -0.334838
-0.049239 0.639910 0.439978
-0.029035 -0.488932 0.762951
0.317364 -0.156800 -0.671556
-0.047878 0.638797 0.442746
0.698465 0.232817 -0.675915
-0.429310 -0.138498 0.802794
-0.072055 0.217168 0.804536
0.691711 -0.491158 0.033710
0.672464 -0.121694 0.392228
0.680922 0.595352 -0.305107
-0.776895 -0.119444 0.412274
-0.050359 -0.498351 -0.681040
-0.423648 -0.111040 -0.686717
