OFF
256 0 0
-0.428023 -0.501129 -0.319735
-0.774299 -0.135685 0.381516
-0.037823 -0.508897 0.035112
0.317857 -0.504069 0.414008
0.320063 -0.138957 0.779112
0.710477 -0.117781 0.417879
-0.793400 -0.524025 0.044779
0.670621 0.252552 -0.698325
-0.047912 0.211407 0.802791
-0.410811 -0.121799 0.777503
0.331787 -0.500308 -0.338856
-0.784060 -0.152085 -0.298811
0.331448 -0.503941 -0.338538
-0.068125 -0.501488 -0.677984
0.710002 -0.113793 0.414823
-0.429490 -0.501052 -0.321673
-0.424381 -0.103765 -0.673074
-0.423724 0.261633 -0.310379
0.678914 -0.113721 -0.312265
-0.428480 -0.500846 -0.319921
0.320136 -0.141850 0.779167
-0.048084 0.213303 0.801669
0.309640 -0.147840 -0.695175
0.318261 -0.503484 0.415289
0.673675 -0.507039 0.050036
-0.793205 -0.523337 0.047018
0.329575 0.595658 0.054269
-0.412082 -0.123965 0.777371
-0.051134 -0.516387 0.765415
0.318446 -0.505916 0.415801
0.678691 0.599002 -0.321912
-0.411436 0.250354 0.387379
0.669889 0.250816 -0.697541
0.729507 0.262790 0.069546
-0.411823 -0.495274 0.405314
-0.791181 -0.523264 0.045680
-0.781509 0.243157 0.057112
-0.413405 -0.495513 0.405513
-0.046385 0.209725 0.801769
0.328248 0.594612 0.054289
0.330179 0.595690 0.053609
0.309771 -0.147240 -0.698084
-0.051139 -0.515171 0.767083
-0.783401 -0.150018 -0.295362
-0.049251 -0.513547 0.764931
0.677950 0.600513 -0.323065
-0.049860 0.210743 0.803116
-0.410389 -0.496527 0.407113
0.710381 -0.116928 0.416835
0.310308 -0.146453 -0.695657
-0.429784 -0.500572 -0.320543
-0.067311 -0.501179 -0.682090
-0.410151 0.249292 0.386532
0.320666 -0.137630 0.779711
-0.411749 -0.124288 0.777004
-0.781964 0.243260 0.056419
0.329803 0.592606 0.054801
-0.773619 -0.132904 0.381351
-0.029212 0.598832 -0.305497
-0.782988 -0.151190 -0.298296
-0.413006 -0.495094 0.403042
-0.424175 -0.103322 -0.673885
0.679559 0.599703 -0.322293
-0.780851 0.241507 0.057158
0.320364 -0.505387 0.416253
-0.424713 -0.103308 -0.674164
0.330391 -0.502131 -0.338035
0.310636 -0.148981 -0.699128
-0.773609 -0.134176 0.380937
0.319970 -0.136183 0.780237
0.706512 -0.116575 0.417655
-0.784065 -0.151050 -0.297526
-0.050266 -0.513929 0.764263
-0.422325 0.262216 -0.311447
-0.037972 -0.508832 0.036262
-0.423382 0.262854 -0.309485
-0.408927 0.249294 0.387664
0.319215 -0.139211 0.781578
-0.049568 -0.516199 0.768034
-0.412613 -0.495853 0.404104
-0.068235 -0.500471 -0.679912
-0.050371 0.213934 0.801942
-0.410692 -0.495821 0.406976
0.315984 -0.505326 0.416189
-0.774574 -0.133885 0.380126
-0.413790 -0.494841 0.405053
0.319776 0.596470 -0.681590
-0.041302 0.252034 -0.693569
0.298114 0.215962 0.399805
-0.782493 -0.152030 -0.300139
0.330298 -0.503276 -0.338038
0.330708 -0.504251 -0.338862
-0.428705 -0.499823 -0.318705
-0.429177 -0.499582 -0.319101
0.676570 -0.507284 0.051600
-0.793361 -0.523225 0.046598
0.678412 0.600971 -0.324028
0.308901 -0.149438 -0.697560
-0.047071 0.212830 0.801734
0.299945 0.214780 0.399340
-0.794165 -0.522931 0.044797
-0.028808 0.599218 -0.303210
0.708296 -0.116092 0.417179
-0.774131 -0.132729 0.380397
0.300653 0.213873 0.399016
0.319698 0.596747 -0.682214
-0.040990 0.250394 -0.694226
0.311184 -0.149292 -0.697908
0.678825 -0.114204 -0.311569
-0.410290 0.248961 0.385264
-0.413166 -0.495253 0.404701
0.709431 -0.116485 0.415506
-0.421653 0.262817 -0.310852
-0.423835 0.260824 -0.309879
-0.045717 0.630641 0.427604
-0.037123 -0.511441 0.033779
-0.038028 -0.507725 0.032882
0.320157 -0.139332 0.780570
-0.421228 -0.104429 -0.672991
-0.068025 -0.501033 -0.680314
-0.039061 -0.509525 0.035275
-0.069491 -0.502147 -0.679187
0.728848 0.263775 0.069610
0.319287 -0.503502 0.414241
-0.773276 -0.132913 0.382729
0.312875 -0.150072 -0.696317
-0.783603 -0.153231 -0.296649
-0.042279 0.250403 -0.693031
-0.051850 -0.515676 0.764208
-0.412122 -0.495097 0.404199
0.680649 0.598798 -0.322401
-0.429712 -0.500084 -0.320480
0.310010 -0.148354 -0.696716
0.678388 0.601343 -0.322545
-0.039402 -0.509908 0.034607
0.669722 0.253779 -0.699325
-0.029689 0.600126 -0.304965
-0.049346 -0.514663 0.765851
-0.412804 -0.495646 0.405526
-0.783274 -0.151683 -0.297041
-0.423593 -0.104847 -0.671275
-0.038994 -0.508714 0.034114
-0.403674 0.618716 0.059147
0.319829 -0.139583 0.780639
0.708087 -0.116598 0.417819
-0.775582 -0.131632 0.383428
-0.423116 -0.105762 -0.673707
-0.426973 -0.499427 -0.320067
0.297886 0.216318 0.398704
0.679399 -0.111778 -0.315031
-0.037392 -0.511514 0.035242
0.309840 -0.147027 -0.697932
-0.028409 0.599503 -0.304373
0.319988 -0.504108 0.415853
0.320101 -0.139189 0.780594
0.318710 -0.139800 0.780493
0.726685 0.262949 0.070793
-0.403105 0.617448 0.058809
0.319671 -0.138341 0.781128
-0.411666 -0.496576 0.406037
0.678795 -0.111650 -0.313717
-0.027872 0.600886 -0.303736
-0.038112 -0.509781 0.033773
-0.041762 0.250972 -0.692786
-0.792852 -0.522249 0.046727
-0.410189 0.248167 0.385928
0.320154 0.596046 -0.681722
0.299530 0.214868 0.399449
-0.028663 0.601260 -0.306183
-0.427389 -0.500748 -0.319244
-0.068791 -0.502402 -0.681354
0.318526 -0.504124 0.416301
0.728964 0.264103 0.067036
0.319221 -0.139629 0.780052
-0.782257 0.241722 0.054640
0.677336 -0.112265 -0.312887
0.677729 -0.112907 -0.315424
-0.037804 -0.509950 0.032936
0.299078 0.215128 0.400743
-0.401330 0.618189 0.060653
0.678921 0.599394 -0.322017
-0.429309 -0.499726 -0.319883
-0.428806 -0.501673 -0.320797
-0.025908 0.600031 -0.304164
0.332423 0.595065 0.053981
0.330560 -0.502274 -0.338064
-0.783873 -0.151535 -0.297484
-0.771749 -0.132770 0.379831
-0.412496 -0.493423 0.404256
0.674476 -0.505554 0.052154
-0.047568 0.210502 0.801959
0.328183 -0.503645 -0.339153
-0.409022 0.250017 0.386960
-0.793960 -0.522594 0.045726
0.317986 0.597488 -0.681782
0.679412 0.598191 -0.324220
0.710357 -0.117428 0.416516
0.329478 0.592751 0.054683
0.729000 0.264022 0.070092
0.676039 -0.505720 0.050423
0.319571 -0.137920 0.780458
-0.028976 0.599733 -0.305082
0.320620 -0.138123 0.781279
-0.028899 0.600552 -0.306777
-0.043517 0.632094 0.428257
-0.403206 0.617338 0.059425
0.309117 -0.148424 -0.696170
-0.784617 -0.151692 -0.296820
0.677796 0.601174 -0.322619
-0.043778 0.250813 -0.690969
0.320926 -0.139842 0.781069
-0.428907 -0.501419 -0.319516
-0.408685 0.248335 0.385722
-0.051009 -0.515386 0.765567
-0.773332 -0.133807 0.382097
-0.068896 -0.502708 -0.680870
0.297315 0.213299 0.399408
-0.424408 -0.105322 -0.672977
0.677194 -0.506230 0.051036
-0.424201 0.261704 -0.310199
-0.050741 -0.513887 0.765251
-0.424547 -0.103317 -0.673852
-0.783664 -0.150488 -0.298375
0.318498 -0.504288 0.413352
-0.783896 -0.152397 -0.296707
0.318142 -0.504838 0.416726
-0.424923 -0.103661 -0.673811
-0.038581 -0.508090 0.035252
-0.793031 -0.521994 0.045927
-0.413338 -0.495570 0.406182
-0.774428 -0.134006 0.381384
-0.771859 -0.133717 0.382193
-0.050843 -0.515725 0.766209
-0.412103 -0.122869 0.778223
-0.429692 -0.499551 -0.321122
-0.048274 0.212604 0.804206
-0.793343 -0.520620 0.046980
-0.782779 -0.150568 -0.296000
-0.411269 -0.122237 0.778072
-0.773210 -0.133342 0.381333
-0.402635 0.617195 0.059327
0.311402 -0.149205 -0.696802
0.678237 0.600928 -0.323419
-0.782354 0.241948 0.057119
-0.028780 0.600195 -0.304277
0.676927 -0.506995 0.049698
-0.793033 -0.522202 0.047776
-0.411222 -0.120815 0.777123
-0.410893 -0.123170 0.776956
0.320304 -0.141957 0.781392
0.319253 -0.505448 0.414292
-0.050366 -0.515182 0.765067
-0.039702 0.250634 -0.693436
-0.412771 -0.495593 0.406742
-0.051786 -0.516872 0.764478
-0.036239 -0.509644 0.032899
