OFF
256 0 0
0.319275 0.689335 -0.125685
-0.419163 0.697322 -0.122443
-0.418646 0.699512 -0.121636
0.302372 0.322869 -0.484072
0.685750 0.313913 -0.126700
-0.042160 -0.042660 -0.466562
-0.800953 0.304875 -0.137228
-0.054862 -0.778694 0.222625
0.686574 0.315104 -0.129521
-0.042710 -0.041678 -0.465247
0.303803 0.324081 -0.485831
-0.373513 -0.375240 0.178351
-0.403707 -0.791145 -0.117695
-0.808205 -0.450166 -0.127766
0.317295 -0.415490 -0.512710
-0.401336 -0.789578 -0.119547
-0.371447 -0.375254 0.180231
-0.063402 -0.383947 0.573609
0.688101 0.687806 0.227583
0.700544 -0.040147 0.263543
-0.401783 0.310314 0.238744
0.662086 -0.037956 -0.508938
-0.413590 -0.050627 0.596991
-0.418998 -0.426129 -0.492684
0.316257 0.687464 -0.126281
0.670134 -0.394037 -0.133099
0.685797 0.315807 -0.129019
-0.054523 -0.779446 0.222729
0.302081 -0.769742 -0.152094
0.699754 -0.040758 0.264342
-0.400856 -0.789401 -0.119498
-0.400433 0.307854 0.237890
-0.021772 0.321039 0.604670
-0.045905 0.682032 -0.497813
0.315807 0.689003 -0.126513
-0.047424 0.684283 -0.496567
0.349890 0.678368 0.614933
-0.076345 -0.811607 -0.513354
-0.074436 -0.813173 -0.515774
-0.801676 0.303840 -0.137441
-0.063403 -0.385760 0.573412
-0.402555 0.312373 -0.461336
0.700417 0.330205 0.618583
-0.062766 -0.385525 0.571939
-0.418698 0.699207 -0.120304
0.686075 0.314670 -0.129556
-0.771594 -0.066947 -0.476555
-0.400809 0.308740 0.240754
0.689473 0.688090 0.228058
0.690762 0.688217 0.225713
-0.411598 -0.050387 0.594955
0.299960 -0.770811 -0.150556
-0.801417 0.304462 -0.138675
0.690209 0.686248 0.229046
-0.370731 -0.374801 0.178382
-0.061275 -0.383261 0.570739
0.687248 0.316735 -0.126893
-0.400986 0.308353 0.239002
-0.419104 -0.425871 -0.495237
0.688545 0.686179 0.228166
-0.412319 -0.051501 0.595936
-0.054895 -0.777595 0.219522
-0.764819 -0.065757 0.224628
0.321842 -0.404617 0.223599
-0.800290 0.305203 -0.138349
-0.810487 -0.448862 -0.125417
0.685135 0.313902 -0.129685
-0.419340 -0.426948 -0.493690
0.301210 -0.771286 -0.150513
-0.404333 0.310256 -0.460456
-0.403291 0.311765 -0.461386
-0.402337 0.312007 -0.460429
-0.046544 0.683890 -0.498307
-0.411790 -0.049970 0.593509
0.670131 -0.394977 -0.132902
0.661228 -0.036269 -0.509467
-0.402370 0.310212 -0.460582
0.300127 -0.770025 -0.150849
0.672168 -0.395563 -0.135605
-0.412607 -0.049793 0.594737
-0.808826 -0.449661 -0.126145
0.670007 -0.395689 -0.133945
-0.063566 -0.385160 0.571711
-0.799476 0.303270 -0.137909
0.318280 0.686167 -0.125617
0.311645 -0.055782 0.634755
-0.764978 -0.065652 0.227116
-0.369863 -0.374514 0.178187
-0.401897 -0.790558 -0.119296
0.302155 -0.770095 -0.149800
-0.419405 0.698285 -0.120253
-0.417877 0.699146 -0.119022
0.701689 0.328072 0.618882
0.350235 0.679156 0.611184
0.350476 0.677796 0.611909
-0.421332 -0.425037 -0.493557
-0.403433 -0.789995 -0.119723
-0.400236 0.310398 0.238965
-0.763890 -0.064928 0.226057
-0.063373 -0.385352 0.572170
-0.418858 -0.425329 -0.494225
0.687708 0.687066 0.228767
-0.047229 0.684129 -0.496397
0.670066 -0.394082 -0.133401
-0.418856 -0.426518 -0.494209
0.700592 0.331557 0.617523
-0.412851 -0.050423 0.594321
0.700292 -0.042435 0.263345
0.303076 -0.771725 -0.151669
-0.055903 -0.779466 0.222726
-0.412358 -0.050483 0.595402
-0.045952 0.684152 -0.496950
-0.413035 -0.050577 0.595458
-0.045196 0.686109 -0.497921
-0.370375 -0.373975 0.179008
-0.413403 -0.051332 0.595635
0.689122 0.688079 0.228052
-0.073860 -0.810954 -0.515045
-0.418601 -0.427347 -0.493609
-0.370582 -0.375906 0.179579
-0.042403 -0.042568 -0.466574
-0.046106 0.681217 -0.497110
0.316923 0.689362 -0.126051
0.306222 0.322273 -0.485698
-0.371066 -0.375123 0.179228
-0.762805 -0.065379 0.226064
-0.765969 -0.063215 0.228181
0.669635 -0.395425 -0.133991
-0.074737 -0.809843 -0.514213
-0.402594 0.310123 -0.460520
0.320754 -0.405273 0.223586
0.316768 -0.418291 -0.511328
-0.418476 -0.426296 -0.493640
0.317434 -0.415458 -0.512222
-0.404552 0.311047 -0.460409
0.699796 -0.040395 0.264012
-0.400329 -0.789716 -0.118778
0.317997 0.686217 -0.128917
-0.054063 -0.778389 0.222469
-0.417829 0.700876 -0.121804
-0.046006 0.682732 -0.497813
-0.371243 -0.375909 0.181625
0.300325 -0.772728 -0.149857
-0.419763 -0.424538 -0.493677
0.317396 -0.415979 -0.512080
-0.044750 0.682466 -0.496362
0.702627 0.329973 0.616282
0.698238 -0.039494 0.263712
0.303354 -0.768938 -0.149447
-0.419695 -0.426832 -0.491846
-0.404726 -0.790076 -0.120008
0.319975 -0.405299 0.225234
0.699956 0.329771 0.617401
0.700287 -0.041732 0.266532
0.699357 0.330282 0.618163
0.317687 -0.414445 -0.513939
0.317868 0.689488 -0.125496
-0.055013 -0.778669 0.221425
-0.054845 -0.778694 0.222471
-0.418333 -0.425526 -0.492404
0.685755 0.314141 -0.129235
0.320033 -0.403668 0.222843
-0.809667 -0.449171 -0.127399
-0.400378 0.309644 0.238699
0.685963 0.315967 -0.130274
-0.404140 0.311413 -0.459237
0.304042 0.323724 -0.484038
0.660958 -0.035539 -0.510001
0.699710 0.330423 0.616616
-0.047817 0.683837 -0.496265
-0.412216 -0.048208 0.594200
-0.404903 0.311325 -0.462065
0.688989 0.687460 0.227105
0.349390 0.677890 0.612085
-0.048784 0.710084 0.239851
-0.371263 -0.372684 0.179220
0.686034 0.315517 -0.129423
-0.764358 -0.066210 0.225635
0.351160 0.679340 0.611856
0.662060 -0.037801 -0.509360
-0.418188 0.697882 -0.121441
-0.074807 -0.811830 -0.515233
-0.421672 -0.424776 -0.492408
-0.372965 -0.375573 0.177804
-0.020886 0.320569 0.603474
0.661153 -0.035471 -0.509171
-0.370072 -0.376268 0.179372
0.662862 -0.036457 -0.509400
-0.762185 -0.066189 0.226125
-0.371525 -0.375396 0.178330
0.315900 -0.417312 -0.513012
0.303291 -0.769670 -0.149133
0.701071 0.329775 0.616674
0.699214 -0.041697 0.263020
0.312114 -0.051853 0.634802
-0.773397 -0.064226 -0.477118
0.312831 -0.053193 0.636823
0.312323 -0.054770 0.635676
-0.400124 0.309028 0.239567
-0.773892 -0.067504 -0.475226
-0.401852 -0.790684 -0.116890
0.689782 0.689048 0.229544
0.688335 0.689143 0.228697
-0.775781 -0.066350 -0.476494
-0.418289 -0.426409 -0.493089
-0.372133 -0.374860 0.177556
-0.405226 0.312073 -0.458766
-0.775619 -0.066705 -0.476557
-0.073794 -0.811765 -0.515157
-0.047455 0.709475 0.240850
-0.371493 -0.373058 0.179374
-0.401864 -0.788732 -0.118086
0.350290 0.678917 0.614126
-0.403086 -0.789710 -0.119248
-0.041949 -0.042867 -0.466988
-0.402279 -0.789566 -0.120051
0.311762 -0.053825 0.635164
0.312855 -0.055255 0.634789
-0.371379 -0.377073 0.178988
-0.800450 0.304627 -0.136255
-0.074272 -0.807830 -0.514198
-0.022773 0.319924 0.604075
-0.055333 -0.778784 0.220889
-0.412294 -0.049749 0.595260
-0.400475 0.311192 0.238228
-0.400479 0.309875 0.239048
-0.410452 -0.050253 0.594296
0.301275 -0.770629 -0.150628
-0.808298 -0.449034 -0.127416
-0.761317 -0.065077 0.225962
0.688638 0.686684 0.226864
-0.041390 -0.042996 -0.464802
-0.401543 -0.790269 -0.119188
0.298930 -0.772106 -0.150280
0.304488 0.321954 -0.485947
-0.074492 -0.810628 -0.516281
0.318203 0.687948 -0.125641
-0.044839 0.684625 -0.497552
-0.419095 0.698440 -0.121019
-0.021406 0.321737 0.604480
-0.073254 -0.810464 -0.515974
-0.020777 0.318612 0.604129
-0.057168 -0.779502 0.220574
-0.048283 0.710741 0.238664
0.318318 -0.414457 -0.512997
0.312835 -0.053891 0.635044
-0.403058 0.310520 -0.460303
-0.808080 -0.449365 -0.126345
0.661395 -0.037450 -0.509859
-0.043198 -0.042762 -0.466452
0.670888 -0.395065 -0.133967
-0.400485 -0.789749 -0.119817
0.349250 0.678732 0.612146
0.319224 -0.404292 0.223202
0.670314 -0.392327 -0.133803
-0.400559 0.308746 0.238701
