OFF
256 0 0
-0.402551 -0.779384 -0.129813
-0.028755 -0.763717 -0.482784
-0.028877 0.669440 0.226671
-0.383294 -0.410458 -0.502597
-0.405830 -0.037023 0.616109
0.695872 -0.060297 -0.495132
0.317394 0.694817 0.593608
-0.029215 -0.766419 -0.482864
0.321664 0.696593 -0.135550
-0.056194 -0.794026 0.229814
-0.047486 0.330585 0.600967
0.708999 -0.397709 -0.109820
-0.777831 -0.411837 -0.140392
-0.401128 -0.780468 -0.127885
-0.054873 -0.793407 0.229897
0.671146 -0.034172 0.232883
0.681748 0.321694 0.601021
-0.778019 -0.411509 -0.140788
0.695164 -0.060289 -0.494115
0.671549 -0.032790 0.234876
-0.030759 0.667269 0.227167
0.669798 0.706515 0.226507
-0.763553 -0.049629 -0.510727
0.324908 -0.403344 -0.457620
-0.770271 -0.043891 0.223197
0.307816 -0.395135 0.209861
0.324661 0.694346 -0.132427
-0.778869 0.303153 -0.128730
0.324300 -0.402504 -0.455308
0.630445 0.317957 -0.142066
-0.763267 -0.050490 -0.511158
0.308734 -0.395384 0.207758
-0.403732 -0.038515 0.614676
-0.777686 -0.413834 -0.140392
-0.027789 -0.764866 -0.482720
-0.046501 0.331517 0.600775
-0.047183 0.331954 0.601227
-0.054737 -0.794490 0.231962
0.679960 0.323039 0.602900
-0.056318 0.679888 -0.486690
-0.403373 -0.378044 0.197408
0.294662 -0.051239 0.620160
-0.403871 -0.039957 0.614944
-0.772465 -0.043610 0.224554
-0.405016 -0.037176 0.616404
0.306711 -0.395443 0.209102
-0.777519 -0.410933 -0.140666
-0.398123 0.310930 -0.504689
0.295801 -0.052379 0.620794
-0.403373 -0.038532 0.616907
-0.405419 -0.038463 0.615948
-0.057203 -0.429507 0.589344
-0.427015 0.649852 -0.109697
0.295375 -0.052438 0.620039
0.302990 -0.780975 -0.106589
-0.403784 -0.379042 0.199409
-0.779202 -0.411392 -0.142679
0.325934 -0.405204 -0.455716
-0.028761 -0.765617 -0.482914
-0.764361 -0.049026 -0.510461
-0.055422 0.680285 -0.483757
0.712181 -0.396962 -0.108954
-0.037398 -0.054185 -0.490648
-0.029613 0.669369 0.226262
-0.762322 -0.048868 -0.511168
0.710813 -0.399192 -0.107521
0.296500 -0.051808 0.620734
0.310635 0.289274 -0.498175
-0.777478 0.303945 -0.125794
-0.028665 0.667991 0.226983
-0.027010 -0.765028 -0.482963
-0.424739 0.650345 -0.107375
-0.418067 0.300394 0.252230
0.303403 -0.779720 -0.108907
-0.401766 -0.781589 -0.128653
0.295454 -0.051923 0.622653
0.669525 0.708108 0.225841
0.307458 -0.393929 0.207813
-0.029870 0.668774 0.227893
0.710997 -0.399591 -0.109414
0.628809 0.317415 -0.146285
0.318432 0.696245 0.594378
0.671870 -0.031515 0.235602
-0.057214 0.679626 -0.483812
-0.778488 0.303485 -0.126746
-0.385533 -0.410185 -0.501738
-0.397649 0.311954 -0.504356
0.302840 -0.777970 -0.108251
-0.416987 0.300685 0.251649
-0.771719 -0.042852 0.222653
-0.056712 -0.430048 0.587432
-0.424877 0.649009 -0.107687
-0.404764 -0.376400 0.198343
-0.056523 -0.429484 0.588828
-0.037987 -0.052633 -0.489777
0.695772 -0.060970 -0.494351
0.325351 -0.401961 -0.456041
-0.404041 -0.376558 0.198573
-0.029289 0.668453 0.227814
0.316616 0.694250 0.593388
0.629432 0.317355 -0.143694
-0.036712 -0.053306 -0.490851
-0.772678 -0.043773 0.222980
-0.778503 0.303734 -0.127022
-0.418074 0.300934 0.250430
0.711571 -0.396992 -0.106906
-0.400722 -0.781722 -0.129919
0.323065 0.697005 -0.133913
0.317601 0.694703 0.593733
0.708747 -0.398621 -0.110287
0.293386 -0.052731 0.620720
0.631090 0.317474 -0.145345
0.303308 -0.779716 -0.106801
-0.385448 -0.410456 -0.500315
-0.402718 -0.780803 -0.130832
-0.404437 -0.039201 0.617744
-0.030376 0.669575 0.226877
-0.779710 0.303556 -0.128729
-0.425460 0.651225 -0.108139
-0.772819 -0.043099 0.224696
-0.029783 0.669237 0.227307
0.677791 0.323229 0.600941
0.709655 -0.398949 -0.107184
0.709839 -0.398814 -0.108435
0.696019 -0.059133 -0.494478
-0.779183 0.304035 -0.127712
-0.778319 0.304368 -0.126982
-0.387098 -0.408957 -0.501721
0.697248 -0.059603 -0.493945
-0.056585 -0.791241 0.230114
0.630119 0.317239 -0.145535
-0.401254 -0.779041 -0.130095
0.300543 -0.779403 -0.107050
0.669660 0.706809 0.226511
-0.028458 -0.765467 -0.483091
-0.029630 0.668006 0.228369
-0.038822 -0.052486 -0.491208
-0.027309 -0.763840 -0.484814
0.709117 -0.397840 -0.107355
0.628302 0.316548 -0.146494
-0.419061 0.300141 0.249607
0.307276 -0.396113 0.210249
-0.057104 0.680518 -0.485579
0.631383 0.318269 -0.144990
0.322261 0.694994 -0.132685
-0.028202 -0.767654 -0.483787
-0.402597 -0.779930 -0.130392
0.317998 0.693852 0.593655
0.316982 0.694765 0.592983
0.326653 -0.402559 -0.456196
0.310526 0.290160 -0.495801
0.701111 -0.060416 -0.495589
0.698529 -0.061976 -0.494233
-0.405734 -0.375817 0.197672
0.678136 0.322186 0.602325
0.323254 -0.402835 -0.455285
0.315401 0.694010 0.593090
-0.424888 0.649765 -0.108227
0.698194 -0.058478 -0.493538
0.631757 0.317523 -0.144211
-0.026341 0.668479 0.226418
0.698370 -0.060679 -0.493402
0.301759 -0.777865 -0.107018
0.669535 0.710018 0.224766
0.670048 0.708269 0.227001
-0.053193 0.680131 -0.484807
0.301891 -0.780766 -0.106934
0.668212 0.707421 0.226417
-0.055833 -0.430456 0.586113
0.628714 0.316596 -0.144204
-0.403660 -0.038135 0.615954
-0.402449 -0.378723 0.200126
-0.770136 -0.043937 0.222788
0.672470 -0.032872 0.232773
0.696034 -0.061482 -0.495032
0.710804 -0.398511 -0.106792
0.679205 0.322986 0.600512
-0.417368 0.302149 0.250592
0.303437 -0.779133 -0.107422
-0.426272 0.648480 -0.109204
0.307371 -0.396618 0.208320
-0.403714 -0.039216 0.616008
0.302305 -0.781389 -0.106737
0.317807 0.696026 0.592656
0.324136 0.694993 -0.133710
-0.046217 0.332233 0.601152
0.630118 0.318072 -0.144830
-0.044859 0.331745 0.601497
-0.399116 0.309715 -0.505243
-0.055392 -0.792621 0.229911
0.679516 0.324375 0.600991
-0.055532 0.679884 -0.486253
0.306895 -0.396249 0.209072
-0.406808 -0.378048 0.199009
0.309424 0.290258 -0.495697
-0.779199 0.303867 -0.126700
-0.399212 0.310169 -0.505118
0.698689 -0.059681 -0.491273
0.696477 -0.060375 -0.492532
0.711158 -0.397769 -0.110462
0.296194 -0.052368 0.621002
-0.404995 -0.378170 0.196863
-0.400162 0.310615 -0.505119
0.294909 -0.051380 0.621175
0.698103 -0.060909 -0.494297
0.321798 0.696990 -0.133684
0.297419 -0.051926 0.621565
-0.030256 -0.767054 -0.482958
-0.028908 -0.765054 -0.482683
-0.403476 -0.037949 0.617026
0.324302 -0.403629 -0.458048
0.307867 -0.395337 0.209290
0.295024 -0.053656 0.621785
-0.054943 -0.794032 0.232674
-0.031174 0.669439 0.227979
0.668135 0.708744 0.227531
0.324369 0.696628 -0.133928
0.317293 0.695340 0.594447
-0.417903 0.302836 0.251822
-0.028222 -0.765259 -0.482358
0.710056 -0.398059 -0.110245
-0.777107 0.303243 -0.127744
0.629341 0.317489 -0.142779
0.323903 -0.402995 -0.455397
0.296026 -0.050976 0.621899
-0.047672 0.332342 0.601404
0.309144 0.291221 -0.494352
-0.401624 -0.782417 -0.128688
-0.031605 0.667743 0.227206
-0.037120 -0.051165 -0.489998
0.699631 -0.059741 -0.494574
0.306387 -0.395885 0.208336
0.678293 0.322756 0.601152
0.630767 0.317547 -0.145065
-0.030505 0.668301 0.226329
-0.762701 -0.050050 -0.508971
0.324271 0.697693 -0.133638
-0.425991 0.649623 -0.109013
-0.057272 -0.428610 0.589003
-0.424443 0.650057 -0.107988
0.680025 0.322326 0.601902
-0.777105 -0.410119 -0.141843
-0.056265 -0.429689 0.587345
-0.036222 -0.053245 -0.491307
0.317326 0.695978 0.595141
0.631810 0.317474 -0.145412
0.317483 0.694378 0.592286
-0.031170 0.670502 0.227047
-0.385113 -0.409875 -0.501945
-0.777409 -0.412057 -0.139758
0.677670 0.320964 0.600163
0.318838 0.695481 0.593168
-0.028650 -0.764360 -0.481794
0.316818 0.696420 0.594732
-0.404910 -0.379687 0.198630
0.670020 -0.032845 0.232047
