OFF
256 0 0
0.373725 0.170953 -0.825176
-0.724645 -0.199985 0.636197
0.729562 0.166791 0.270142
0.001946 0.511618 0.649848
0.728463 0.517793 -0.112691
0.358099 -0.560243 -0.072784
0.395544 0.174773 0.668148
0.726813 0.167064 0.271328
0.746158 0.152025 -0.453960
-0.327880 -0.174135 -0.471254
0.727358 0.170380 0.268798
-0.023628 -0.555941 0.287053
0.357486 -0.556387 -0.073052
0.372622 0.168682 -0.826699
0.001460 -0.190703 0.668307
0.360899 0.519776 -0.457469
0.014402 0.511891 -0.112773
0.016919 -0.186448 -0.815361
-0.732265 -0.194947 -0.111487
0.361990 0.522020 -0.455345
0.015303 -0.187486 -0.814428
-0.736033 0.506231 -0.109972
-0.360485 0.510443 -0.457258
-0.370297 0.176446 0.645349
-0.359329 0.510032 -0.458078
-0.371075 0.177181 0.648318
0.353883 -0.179304 -0.435153
-0.370463 0.176531 0.645438
0.001140 0.541954 -0.818096
-0.724140 -0.201747 0.635402
-0.382518 -0.546352 -0.074333
0.392837 0.174989 0.668332
-0.381622 -0.550325 -0.073601
-0.000247 -0.190455 0.668167
0.730466 0.520289 -0.115021
0.014283 0.512705 -0.111920
0.385062 0.535999 0.288586
-0.729697 -0.553393 0.280947
0.015402 0.510338 -0.112763
0.730463 0.517822 -0.114673
-0.727066 -0.200842 0.637145
-0.371665 0.178176 0.646762
-0.734837 0.163418 -0.483972
0.728969 0.166987 0.270393
-0.021800 -0.554067 0.285188
-0.731736 -0.193556 -0.109021
-0.762724 0.175873 0.284217
0.356164 -0.557088 0.661550
0.730997 0.517854 -0.112815
-0.370286 0.178177 0.645891
0.729727 0.517840 -0.113336
0.012788 0.509527 -0.113004
0.000971 -0.189766 0.666681
-0.369183 0.177369 0.648120
0.724613 -0.552744 0.302265
0.013992 0.511507 -0.112423
-0.356731 0.172471 -0.838986
0.725884 0.168628 0.270713
-0.378362 -0.570291 0.637362
0.395304 0.175606 0.667970
-0.382554 -0.548749 -0.073743
-0.736117 0.162615 -0.484383
0.727626 0.168267 0.270904
0.384217 0.532757 0.286249
-0.731002 -0.552363 0.280780
-0.023086 -0.556576 0.288748
-0.369978 0.178766 0.645719
0.395291 0.174907 0.667404
-0.368321 0.177528 0.644992
-0.012917 -0.582934 -0.454189
-0.763298 0.175419 0.284682
-0.382922 -0.547696 -0.074166
-0.735332 0.163283 -0.484220
-0.012528 -0.582294 -0.455400
0.723045 -0.203732 -0.088820
0.383561 0.532129 0.285976
0.735642 -0.190065 0.650675
0.743635 0.154365 -0.455019
-0.735025 0.163465 -0.483279
0.014469 0.509804 -0.113120
-0.732089 -0.194858 -0.112069
-0.761751 0.174815 0.283745
0.394024 0.175026 0.669915
0.736835 -0.189577 0.650592
0.355365 -0.179487 -0.435362
-0.734240 0.161764 -0.484126
0.374493 0.168055 -0.826043
-0.359764 0.511523 -0.458658
-0.731494 -0.196434 -0.111623
-0.737038 0.508539 -0.108392
-0.360997 0.508699 -0.458681
0.730433 0.518947 -0.113689
-0.724906 -0.202772 0.634909
-0.738144 0.507452 -0.108936
-0.738058 0.508943 -0.108448
0.744879 0.154865 -0.455087
0.355367 -0.181002 -0.435253
0.374225 0.170241 -0.825665
-0.011631 -0.582277 -0.453799
-0.011456 -0.584128 -0.452789
-0.327113 -0.172138 -0.471810
0.728012 0.166259 0.269936
-0.009625 -0.582784 -0.453983
-0.358389 0.175478 -0.838648
-0.731771 -0.194344 -0.109761
0.736301 -0.188274 0.649188
0.725737 0.168125 0.271650
0.723521 -0.204261 -0.085275
0.374514 0.169307 -0.825251
0.000683 -0.189071 0.668120
-0.328689 -0.173123 -0.470686
0.374988 0.171137 -0.827825
-0.359263 0.510488 -0.457089
0.001770 -0.189754 0.668874
0.003150 0.514449 0.649189
-0.382000 -0.548478 -0.073781
-0.021100 -0.556009 0.288809
0.385318 0.533411 0.286189
0.002633 0.541980 -0.820043
0.724800 -0.551367 0.302119
-0.369103 0.176381 0.646346
-0.376399 -0.570545 0.634079
-0.359218 0.171152 -0.838372
-0.369703 0.175408 0.647251
0.392918 0.173695 0.669462
-0.362219 0.510154 -0.456601
0.015817 -0.187257 -0.812701
0.735118 -0.189224 0.651146
0.726812 0.165879 0.268947
0.736826 -0.189412 0.649138
-0.723825 -0.200945 0.637182
-0.022465 -0.556248 0.287771
0.373580 0.168955 -0.824196
-0.733826 -0.195579 -0.110669
0.743545 0.155080 -0.453724
-0.736718 0.507040 -0.108366
-0.020719 -0.553600 0.287701
0.356978 -0.553744 0.661153
-0.359834 0.512089 -0.457410
-0.734244 -0.194688 -0.110294
-0.370006 0.486236 0.262427
0.726446 0.166560 0.269641
-0.733625 -0.195503 -0.110778
0.735426 -0.190224 0.649073
0.391873 0.175451 0.666562
-0.377646 -0.571724 0.637218
0.356275 -0.558520 -0.073511
-0.370446 0.487259 0.263283
-0.376385 -0.571709 0.636414
-0.732352 -0.194010 -0.111566
0.003589 0.513557 0.649990
0.356898 -0.555067 0.661783
0.014057 -0.185368 -0.814687
0.002601 0.541250 -0.819363
-0.328416 -0.172344 -0.471633
-0.734593 0.162685 -0.485242
0.354471 -0.178656 -0.436542
-0.736623 0.162780 -0.482197
0.723373 -0.550541 0.302997
0.003308 0.512057 0.649245
-0.734671 0.164590 -0.483698
-0.370822 0.178391 0.646189
0.360440 0.519513 -0.455682
-0.000322 -0.189280 0.669537
0.743690 0.155628 -0.455540
-0.010800 -0.582713 -0.453398
-0.359807 0.173358 -0.839876
0.000781 -0.191132 0.670076
0.722145 -0.205313 -0.087133
0.013806 0.511213 -0.111404
0.001889 0.539810 -0.817809
0.357881 -0.557819 -0.071771
-0.731858 -0.196189 -0.111311
-0.360720 0.510911 -0.458388
0.735015 -0.191435 0.649103
0.357363 -0.554320 0.661534
0.727591 0.167544 0.268643
0.374711 0.169651 -0.825127
-0.761733 0.176572 0.282583
-0.010406 -0.582348 -0.452905
0.357790 -0.556501 -0.071682
-0.359892 0.511910 -0.457052
-0.735595 0.507285 -0.108507
0.393016 0.174588 0.669629
-0.725695 -0.201884 0.635104
0.383033 0.533535 0.286348
0.360632 0.522018 -0.455462
0.743584 0.154062 -0.454121
-0.376761 -0.571169 0.635505
-0.381286 -0.548588 -0.073609
-0.735633 0.162590 -0.483888
-0.377784 -0.569387 0.636353
0.013465 0.510824 -0.112747
-0.729255 -0.551439 0.279019
-0.737226 0.507430 -0.108845
0.390459 0.175173 0.666849
0.354220 -0.179917 -0.436235
0.724044 -0.203612 -0.086179
0.375062 0.170452 -0.826859
-0.725280 -0.202824 0.636696
-0.725914 -0.203154 0.636468
0.394534 0.174063 0.669850
0.356910 -0.555538 0.659913
-0.724267 -0.200953 0.636156
-0.383238 -0.548210 -0.074589
-0.000276 -0.189706 0.668443
0.384754 0.533092 0.286143
0.730511 0.520564 -0.112829
-0.023496 -0.556529 0.286266
0.000596 -0.191649 0.667624
-0.736256 0.164698 -0.484426
0.722959 -0.552792 0.303025
-0.763868 0.175181 0.285545
-0.734260 0.164401 -0.483414
-0.737299 0.507381 -0.107826
-0.327891 -0.171971 -0.471028
-0.734463 0.163231 -0.484742
0.381681 0.534538 0.288024
-0.726554 -0.202101 0.634282
0.385734 0.535585 0.285207
0.384410 0.533929 0.286779
0.361875 0.519736 -0.457934
0.394951 0.174792 0.669724
-0.726714 -0.203069 0.635593
0.393805 0.173730 0.668493
0.737074 -0.187741 0.649804
0.391961 0.175554 0.669824
0.735968 -0.188673 0.650155
0.361210 0.520856 -0.456730
-0.734149 0.162883 -0.486525
-0.375577 -0.573727 0.636263
-0.761902 0.175204 0.283541
-0.377430 -0.569885 0.635481
0.745064 0.153526 -0.456082
-0.359260 0.173488 -0.839610
0.723604 -0.551684 0.302609
0.357049 -0.559477 -0.071524
0.015759 0.510049 -0.111713
0.735541 -0.190570 0.650421
-0.376665 -0.571959 0.635512
-0.011019 -0.583266 -0.453634
0.354922 -0.178703 -0.434310
-0.358123 0.173235 -0.840475
0.384597 0.533717 0.287248
0.015222 -0.185737 -0.813195
-0.368814 0.176918 0.647184
-0.763643 0.174394 0.284756
0.001682 0.511776 0.649122
-0.369677 0.177445 0.648838
-0.736973 0.508093 -0.108148
0.353930 -0.180660 -0.435868
-0.378129 -0.570945 0.637025
0.393295 0.175693 0.669523
0.735533 -0.187366 0.650323
-0.023334 -0.554625 0.288366
0.355848 -0.180514 -0.434583
