OFF
256 0 0
0.001624 0.513941 0.602101
0.345583 0.194079 -0.813584
-0.757138 -0.562317 0.257576
0.018246 -0.543723 -0.456535
0.714626 -0.536875 0.295917
0.000113 -0.194410 -0.843346
-0.718252 0.523938 -0.087156
0.350618 -0.180856 -0.427086
-0.337012 0.513249 0.254172
0.711664 0.171622 -0.445928
0.351439 -0.181775 -0.425467
-0.015690 -0.185398 0.631581
-0.369782 -0.536086 0.624507
0.714524 0.168197 0.286123
-0.719797 0.526676 -0.087928
-0.728068 0.154752 -0.444120
0.729387 0.529725 -0.098673
-0.015245 -0.183773 0.630660
0.350407 -0.181727 -0.426614
-0.000878 0.526422 -0.796413
0.713691 0.168989 0.284847
-0.371507 0.149571 0.620122
0.361265 0.169004 0.645260
0.392485 0.520115 0.263915
0.716427 0.167998 0.284419
-0.002234 0.526286 -0.794139
0.018695 -0.541655 -0.459297
-0.696924 0.144544 0.261468
-0.357289 0.501747 -0.419566
0.710333 0.172227 -0.445884
-0.696616 0.142882 0.261943
-0.757375 -0.562360 0.257239
0.002079 0.514883 0.602812
0.371317 -0.559403 -0.076541
-0.718891 -0.231422 -0.081899
0.710976 0.173438 -0.447001
0.712849 0.171272 -0.445930
-0.353302 -0.565773 -0.099556
-0.350847 -0.204310 -0.455070
0.345467 0.194279 -0.814902
0.714650 0.168705 0.285575
-0.354488 -0.565870 -0.100196
-0.371496 0.151327 0.620653
-0.000832 0.525866 -0.794271
0.350669 -0.179492 -0.426950
-0.355711 0.503288 -0.420086
0.699894 -0.184768 -0.060034
-0.344059 0.182727 -0.793045
-0.719971 -0.231770 -0.082893
0.345515 0.510150 -0.434780
0.700307 -0.186162 -0.059640
0.351298 -0.561385 0.623781
-0.758451 -0.562195 0.260031
0.391182 0.523388 0.267043
0.345572 0.191607 -0.811112
-0.757244 -0.563910 0.257888
0.729130 0.531638 -0.098472
0.350654 -0.561398 0.623332
-0.356702 0.501856 -0.422292
0.714361 -0.538878 0.294081
0.349332 -0.180803 -0.425382
0.715171 0.169825 0.285820
0.714474 0.168986 0.285535
-0.015309 -0.182428 0.627990
-0.005740 -0.547951 0.259298
0.004294 0.504188 -0.086720
0.711597 0.171863 -0.446640
-0.349576 -0.204617 -0.453031
0.730528 0.529809 -0.098460
0.017708 -0.541275 -0.456835
-0.720411 0.526290 -0.085197
0.714833 0.168928 0.284651
0.713655 0.170127 0.283670
0.015828 -0.541750 -0.457914
-0.015797 -0.184909 0.630498
-0.357074 0.503118 -0.419712
0.346757 0.194964 -0.813942
-0.726297 0.153833 -0.446679
-0.718231 -0.229712 -0.084589
-0.719848 0.525684 -0.087431
0.001935 0.503206 -0.086161
0.345276 0.509650 -0.433067
0.360751 0.170329 0.645810
-0.013800 -0.184032 0.630767
-0.727795 0.151337 -0.446578
0.700223 -0.186343 -0.058053
-0.695391 0.142840 0.262279
-0.717050 -0.188971 0.636749
-0.727103 0.154713 -0.446205
0.345009 0.510146 -0.435197
-0.370725 0.152323 0.620189
-0.717808 0.525922 -0.086315
0.370847 -0.560112 -0.076393
0.350052 -0.562877 0.623221
0.731564 -0.197348 0.655016
0.347724 -0.181228 -0.424977
0.713464 -0.536503 0.294032
-0.356065 0.501310 -0.419316
-0.370830 -0.537388 0.627822
0.351703 -0.183084 -0.426958
-0.352894 -0.564429 -0.099128
-0.353842 -0.564729 -0.099900
-0.006375 -0.546381 0.260790
0.713902 -0.537683 0.297089
-0.001112 0.528105 -0.793828
-0.719860 0.527495 -0.089106
0.716370 -0.536689 0.295516
0.717575 0.168645 0.284821
-0.357995 0.502285 -0.419872
-0.719889 -0.230902 -0.082771
-0.000869 0.525886 -0.795900
0.728522 0.528758 -0.098326
0.711162 0.171807 -0.445435
0.349207 -0.563616 0.624761
0.001191 -0.193224 -0.842339
-0.725768 0.153914 -0.444453
0.017849 -0.543331 -0.455244
-0.756288 -0.561671 0.257911
0.350257 -0.562209 0.623621
-0.349014 -0.204368 -0.456326
-0.716529 -0.190487 0.636646
0.711770 0.171077 -0.446815
-0.000122 0.526552 -0.793160
-0.348900 -0.205803 -0.455154
-0.720221 -0.229883 -0.081415
-0.720098 -0.229220 -0.084491
-0.757064 -0.561862 0.257519
0.391654 0.521983 0.266364
-0.717784 0.526767 -0.085589
0.002726 0.504433 -0.087079
0.391715 0.522340 0.265254
-0.371043 0.150401 0.619414
-0.342832 0.180438 -0.792565
0.362960 0.170962 0.645239
0.003384 0.514367 0.601140
0.370417 -0.561058 -0.076599
0.002887 0.503563 -0.085506
0.714428 0.167161 0.285214
-0.004710 -0.547839 0.262751
-0.357684 0.501167 -0.420779
0.360759 0.169201 0.643693
0.371557 -0.559728 -0.076018
0.002206 0.504125 -0.086186
0.000720 0.525845 -0.794365
-0.352837 -0.564115 -0.098404
-0.371380 -0.535385 0.627343
0.711175 0.170910 -0.446130
0.345668 0.190077 -0.816211
0.003557 0.513992 0.601390
0.727945 -0.195905 0.654020
0.700469 -0.185316 -0.058675
-0.350635 -0.205741 -0.454071
-0.728086 0.151353 -0.446341
-0.001878 0.525922 -0.797398
0.350894 -0.562862 0.621844
-0.371429 0.151458 0.619270
0.731488 0.529504 -0.098905
-0.717400 0.525433 -0.086482
0.710807 0.170754 -0.445172
-0.343356 0.179690 -0.792704
-0.336379 0.513657 0.255316
-0.370795 0.151026 0.620230
0.347108 0.193854 -0.813593
0.731351 0.531474 -0.097943
-0.343769 0.180571 -0.792763
-0.727181 0.152322 -0.446540
0.372131 -0.558453 -0.075886
0.346771 0.509538 -0.436729
-0.349067 -0.204419 -0.454131
-0.004881 -0.545402 0.261265
-0.716462 -0.188202 0.635800
-0.016530 -0.183364 0.630519
-0.350950 -0.205373 -0.454979
0.372595 -0.561826 -0.077569
0.713812 0.168039 0.285802
0.713890 -0.537111 0.297529
0.714015 0.168749 0.285032
-0.006330 -0.547250 0.260913
-0.015801 -0.184474 0.630109
0.701701 -0.185255 -0.059616
0.729107 0.529872 -0.098636
-0.015147 -0.183455 0.630764
0.019018 -0.543028 -0.457465
0.015176 -0.543347 -0.458184
0.710181 0.171711 -0.446022
-0.352672 -0.565112 -0.097196
-0.716612 -0.189930 0.637607
-0.357333 0.503062 -0.421459
0.017474 -0.543320 -0.455621
-0.336149 0.514187 0.255040
0.360759 0.172728 0.647426
-0.371913 -0.537213 0.626624
-0.719748 -0.230719 -0.082487
0.003342 0.514554 0.599974
0.711924 0.170714 -0.448234
0.393281 0.520628 0.266395
-0.719666 -0.231463 -0.082564
-0.727738 0.153964 -0.448150
0.016969 -0.541724 -0.457478
-0.372569 -0.536508 0.628836
0.002898 0.504344 -0.087735
0.374158 -0.560782 -0.076513
0.002223 0.515065 0.601752
0.351246 -0.180900 -0.425642
-0.337143 0.513063 0.255570
0.713453 -0.536041 0.296045
-0.005043 -0.545745 0.260064
0.710892 0.173958 -0.446690
0.345329 0.507709 -0.433887
-0.351579 -0.564389 -0.099784
0.714204 -0.537711 0.295763
0.346142 0.508830 -0.436365
-0.370893 -0.535138 0.628154
-0.727701 0.153775 -0.446151
-0.356614 0.502716 -0.422240
0.003736 0.515064 0.600501
-0.719776 -0.230683 -0.082974
0.361661 0.169720 0.645746
-0.358009 0.502983 -0.418843
-0.759535 -0.561224 0.257587
0.713440 0.169937 -0.445596
0.001590 -0.195251 -0.843961
0.715561 -0.539113 0.295690
0.016136 -0.543787 -0.457522
-0.717211 0.524859 -0.087602
-0.342476 0.182688 -0.793038
-0.343588 0.181777 -0.791755
0.373625 -0.560028 -0.075904
-0.719705 -0.231353 -0.083757
-0.716070 -0.190620 0.637204
-0.001942 -0.192819 -0.844627
-0.334697 0.514972 0.253775
-0.000720 -0.195031 -0.843832
0.709917 0.171968 -0.445426
-0.349590 -0.205369 -0.454115
-0.372564 -0.535859 0.627161
-0.337959 0.513140 0.253625
0.006012 0.502016 -0.087172
-0.370503 -0.536688 0.626829
-0.016751 -0.183512 0.630974
-0.354046 -0.565443 -0.098934
-0.000548 -0.193196 -0.845218
0.345774 0.508846 -0.436377
-0.755512 -0.564514 0.257497
-0.337188 0.513005 0.253853
-0.718521 0.526240 -0.088020
-0.352158 -0.563818 -0.099087
-0.718362 0.526440 -0.087294
0.393003 0.521116 0.264489
0.360310 0.170328 0.644640
-0.014854 -0.184601 0.629931
-0.715589 0.525930 -0.086829
0.731433 0.529075 -0.099620
-0.726224 0.154783 -0.446572
0.713707 -0.536775 0.295747
0.700416 -0.183544 -0.058062
