OFF
256 0 0
0.033836 0.212526 0.774465
-0.692145 0.232677 0.045735
0.754452 0.227727 0.043580
-0.671782 -0.122842 0.400235
0.030508 -0.483408 -0.666130
0.403931 0.219771 -0.301138
-0.307703 0.233841 0.405175
0.413440 -0.139962 0.773108
-0.293363 -0.101093 -0.691288
-0.671813 -0.122243 0.401382
-0.305249 -0.145487 0.774529
0.391079 -0.467309 0.419920
0.751479 -0.472881 0.075384
0.038159 -0.474824 0.047640
0.415541 -0.139400 0.771764
0.032712 0.212460 0.775088
-0.665502 -0.128784 -0.338843
-0.666622 -0.129481 -0.339413
0.390064 -0.470184 0.421278
-0.305326 -0.143692 0.771432
-0.673274 0.565994 -0.323067
-0.673221 0.567086 -0.323815
0.412637 0.581332 0.046915
0.753380 -0.473344 0.075572
0.753181 -0.472384 0.072549
0.413353 -0.137681 0.771946
0.768297 -0.135470 -0.316113
0.768605 -0.133937 -0.314273
-0.665749 -0.129401 -0.340227
-0.671447 -0.121129 0.401798
-0.676213 0.232627 -0.699628
-0.690382 0.232431 0.046148
0.402808 0.218872 -0.300305
-0.314970 0.586639 -0.673739
0.389446 -0.468756 0.420862
-0.675732 0.234680 -0.701524
-0.691042 0.232016 0.045676
-0.292947 -0.100715 -0.692414
0.758131 -0.112684 0.405527
-0.306511 0.232405 0.403901
0.410898 0.582369 0.046214
0.038839 -0.475704 0.048194
0.414525 -0.138289 0.772038
0.411700 0.231056 0.409898
-0.306114 -0.145445 0.771306
0.751683 -0.472324 0.072226
-0.317413 0.584393 -0.673661
-0.690295 0.232187 0.046660
-0.674984 0.233872 -0.699311
-0.670449 -0.122545 0.400481
-0.334663 0.553014 0.039061
0.391973 -0.468266 0.421597
-0.672890 0.566117 -0.326353
-0.315923 0.583660 -0.673955
0.406258 -0.470514 -0.301291
0.412615 0.583086 0.047748
0.032857 0.211517 0.776025
0.036919 -0.477222 0.048729
0.770440 -0.135600 -0.315839
0.401182 0.221026 -0.299492
-0.669941 -0.121961 0.399817
0.403844 0.220679 -0.299929
0.409190 0.230496 0.410290
-0.675667 0.233403 -0.700754
0.414499 -0.140074 0.773139
-0.306320 -0.145262 0.771718
-0.306916 0.233919 0.407666
-0.308302 0.232535 0.406250
0.752839 -0.472854 0.073238
0.406048 -0.470575 -0.302633
0.034008 0.212879 0.773754
-0.690724 0.230274 0.046189
0.069162 0.229738 -0.674997
0.412491 0.582395 0.049551
-0.664453 -0.456189 0.051303
0.759510 -0.112784 0.406009
-0.675266 0.233327 -0.700955
0.068873 0.589795 -0.312557
0.044749 -0.479429 0.763649
-0.332582 0.551608 0.038991
-0.294323 -0.100777 -0.692132
-0.292951 -0.101195 -0.690230
0.035940 -0.476307 0.048072
-0.305261 0.235052 0.406850
-0.322785 -0.476734 -0.294936
0.758450 -0.109261 0.405550
0.047025 0.577389 0.400929
-0.671928 0.565505 -0.325951
0.756356 0.227807 0.043119
-0.673852 0.232535 -0.700241
0.390407 -0.468410 0.419397
0.391278 -0.467840 0.419745
-0.304618 -0.144682 0.771696
0.402023 0.219938 -0.299441
0.753665 -0.474039 0.072915
0.402270 0.221259 -0.300520
0.759005 -0.112033 0.404303
0.758047 -0.111439 0.404767
0.045460 -0.481647 0.763126
0.756563 0.227944 0.043097
0.752065 -0.471352 0.074029
-0.295203 -0.100870 -0.691386
0.755269 0.229943 0.043162
-0.662289 -0.455777 0.049602
0.768648 -0.135698 -0.314351
0.768219 -0.135487 -0.312228
-0.317936 0.584300 -0.671949
-0.313741 -0.469569 0.397500
0.071913 0.230077 -0.673179
0.069508 0.589031 -0.312253
-0.304356 -0.142915 0.771882
0.392180 -0.470484 0.421072
0.402311 0.220391 -0.298274
-0.305110 -0.143893 0.772838
-0.676357 0.235553 -0.698650
0.046870 -0.480037 0.764184
0.420771 -0.138420 -0.671639
0.030996 -0.485277 -0.666370
-0.692009 0.231261 0.044189
-0.305243 0.232942 0.405403
0.046187 -0.480878 0.762301
-0.676380 0.234669 -0.700762
0.047453 0.578525 0.401080
-0.315914 0.586343 -0.673870
0.415742 -0.138555 0.774356
0.032324 0.213089 0.776154
0.421264 -0.138025 -0.673214
-0.673747 0.566220 -0.323791
0.404234 0.221054 -0.298236
-0.672013 -0.124480 0.400821
0.037162 -0.475471 0.047493
-0.315769 -0.468528 0.397473
0.405521 -0.470203 -0.301953
0.421336 -0.139765 -0.673154
0.413636 0.583057 0.047092
0.030250 -0.484808 -0.668993
-0.307132 -0.145827 0.773057
-0.673679 0.565440 -0.325709
0.769373 -0.134773 -0.313547
0.412330 0.231219 0.407833
-0.315720 0.584217 -0.673701
-0.674782 0.233686 -0.701265
0.036423 -0.475675 0.048075
-0.673803 0.235371 -0.699576
0.072337 0.229490 -0.674951
0.033629 0.211885 0.774311
-0.313341 -0.469321 0.396737
-0.294370 -0.101732 -0.691226
0.071505 0.229956 -0.674529
0.032161 -0.483671 -0.667386
-0.668262 -0.128888 -0.341011
0.411912 0.230566 0.407283
0.769937 -0.135574 -0.315493
0.770850 -0.134542 -0.314946
0.070840 0.231009 -0.674248
-0.324984 -0.477823 -0.293562
0.758665 -0.110125 0.404277
-0.676728 0.234451 -0.699538
0.068063 0.588964 -0.313271
-0.668688 -0.124376 0.402278
0.073761 0.229290 -0.674497
-0.333481 0.552854 0.038308
0.413712 -0.139093 0.774446
-0.663483 -0.456017 0.047959
0.029905 -0.483640 -0.667797
0.031619 0.211812 0.776065
0.066885 0.589281 -0.313432
0.752687 -0.473001 0.072606
-0.293219 -0.101454 -0.691634
-0.292919 -0.100016 -0.692231
0.753870 -0.472466 0.073304
0.390292 -0.467527 0.418330
0.406987 -0.470865 -0.302259
-0.662487 -0.458095 0.050397
-0.670657 -0.121868 0.401221
0.402169 0.220646 -0.300814
-0.673981 0.567033 -0.326346
0.068791 0.588844 -0.315016
0.034761 0.213625 0.775349
-0.307516 0.233149 0.404649
-0.333317 0.552677 0.040441
0.405871 0.220745 -0.302051
0.045869 0.578155 0.399838
0.413062 0.582955 0.046841
-0.304514 -0.143831 0.772357
-0.308089 0.236670 0.406646
-0.305742 -0.142937 0.773944
-0.670287 -0.123835 0.402551
-0.324212 -0.476541 -0.295601
-0.323299 -0.476139 -0.294521
-0.690206 0.231770 0.044418
0.412667 0.230144 0.408650
0.039650 -0.476870 0.045254
0.045237 -0.480752 0.762278
0.031735 -0.484791 -0.669059
0.413654 0.228944 0.407448
-0.333912 0.551321 0.041129
0.753791 0.228617 0.041462
-0.665091 -0.126731 -0.338722
0.067794 0.588198 -0.311555
0.404527 0.220118 -0.302346
-0.314904 0.583388 -0.673445
0.768284 -0.132932 -0.313763
0.413229 0.230924 0.408741
-0.317649 0.585438 -0.673991
-0.292866 -0.102592 -0.690666
-0.323911 -0.475640 -0.296280
0.415133 -0.139548 0.772286
0.044221 -0.479592 0.764262
0.755076 0.229255 0.042856
-0.672572 -0.123188 0.400975
0.412086 0.230485 0.407871
0.402123 0.222010 -0.300488
-0.674417 0.237293 -0.698777
-0.672966 0.563952 -0.325549
0.406025 -0.470297 -0.301429
0.071513 0.229069 -0.674719
-0.673477 0.566473 -0.324570
0.044436 -0.479601 0.764273
0.768095 -0.135315 -0.312952
-0.305782 -0.145335 0.771181
0.071028 0.230295 -0.675199
-0.674012 0.566731 -0.324389
-0.664904 -0.130710 -0.338682
0.030700 -0.485092 -0.665437
0.413807 0.228977 0.409071
0.752496 -0.471551 0.073275
0.048451 0.578997 0.401517
0.402530 0.220433 -0.300565
0.412834 0.229853 0.408561
-0.334202 0.551140 0.040433
0.030281 -0.483866 -0.666516
0.752251 -0.473729 0.074081
0.423064 -0.138100 -0.672171
-0.316626 0.582514 -0.676205
0.411889 0.229012 0.407802
0.757270 -0.112028 0.405072
0.068120 0.591033 -0.313259
0.031902 0.212013 0.774915
0.420959 -0.137876 -0.671556
0.072206 0.228983 -0.673073
0.047051 -0.480725 0.762257
0.753735 0.230167 0.040885
-0.667605 -0.130825 -0.340329
-0.670797 -0.120350 0.401541
0.402776 0.221585 -0.299762
-0.691057 0.231280 0.044738
-0.666765 -0.130076 -0.338916
-0.662758 -0.457390 0.050288
-0.292947 -0.101696 -0.693098
0.751847 -0.472420 0.072638
0.413215 0.230372 0.406153
0.045916 0.578463 0.401117
-0.323989 -0.476950 -0.293314
0.755572 0.226638 0.041664
0.072529 0.230150 -0.675832
