OFF
256 0 0
-0.682483 -0.115865 0.386215
0.773401 -0.118292 -0.301573
0.031827 -0.500199 -0.681305
0.431975 -0.144863 0.800827
0.068381 0.218743 0.776643
-0.331496 -0.497674 -0.298722
-0.313664 -0.140453 0.769565
0.434607 -0.144626 0.803687
0.063165 0.221543 -0.699802
0.433178 -0.146069 0.804098
-0.673309 -0.479550 0.046142
0.409469 -0.489571 0.421715
-0.328455 -0.496191 -0.298987
0.728834 -0.480544 0.046429
0.047655 0.642424 0.431500
-0.313870 -0.141252 0.768054
0.398433 0.598101 0.054786
0.397801 0.597862 0.053142
0.059800 0.624797 -0.327964
0.729591 -0.479977 0.049364
-0.681665 -0.113603 0.383158
0.058817 0.623368 -0.329581
0.771390 -0.118187 -0.302818
0.433003 -0.144219 0.802836
0.070562 -0.498172 0.036065
-0.687221 -0.123240 -0.323552
0.041567 -0.499021 0.775527
0.768894 -0.125866 0.413506
0.070170 -0.498587 0.034315
-0.685685 -0.124019 -0.323658
0.047335 0.643799 0.429644
0.064786 0.217073 0.776513
0.432819 -0.145060 0.801902
0.792368 0.246672 0.060607
-0.680622 -0.113824 0.385229
0.050491 0.640294 0.431461
-0.706143 0.583801 -0.341325
0.772590 -0.117581 -0.301488
0.410938 -0.488155 0.421501
0.768421 -0.125374 0.413374
0.411531 -0.485790 0.420760
-0.302137 -0.111444 -0.672624
0.063318 0.220562 -0.701053
0.432367 -0.145353 0.800925
-0.685882 -0.123838 -0.324228
-0.705857 0.584044 -0.340783
0.434532 -0.143779 0.802765
0.397571 0.599021 0.054462
-0.671439 -0.477553 0.044541
0.062591 0.220858 -0.701014
0.432556 -0.144579 0.801541
0.410340 -0.488131 0.420417
0.408820 -0.489393 0.421347
-0.283495 0.581475 0.042045
-0.314860 -0.142076 0.771158
0.399041 0.595540 0.055025
0.792431 0.246377 0.060900
0.791871 0.246432 0.060529
0.396395 0.250621 0.417436
0.068091 0.219050 0.776471
0.769901 -0.126703 0.413316
0.059399 0.624967 -0.327831
-0.685522 -0.123952 -0.324830
0.730190 -0.479882 0.047305
0.730986 -0.482089 0.047074
-0.283242 0.582914 0.042349
0.379265 0.221690 -0.309915
0.063846 0.219530 -0.700550
-0.330726 -0.496561 -0.299496
0.774415 -0.117599 -0.300644
0.421470 -0.147516 -0.697506
0.049552 0.641725 0.430018
-0.685078 -0.124772 -0.322771
-0.313594 -0.141563 0.770226
-0.321826 0.255256 0.440337
-0.311722 0.563175 -0.666198
0.063073 0.221208 -0.700219
0.063281 0.219072 -0.699838
0.422320 -0.145349 -0.700624
0.791904 0.244772 0.060201
0.068373 0.218145 0.776948
-0.687686 0.228806 -0.688869
-0.313905 -0.139441 0.769044
0.062797 0.221697 -0.699806
-0.686506 0.229962 -0.690155
0.434705 -0.144371 0.802931
0.058064 0.625102 -0.328577
0.793089 0.247281 0.059240
0.421814 -0.144555 -0.700309
0.063025 0.222315 -0.699402
0.060867 0.221222 -0.700690
0.421594 -0.145945 -0.700546
-0.325641 -0.513124 0.387421
0.049544 0.642451 0.429331
-0.680733 -0.113808 0.382594
-0.313810 -0.142117 0.768590
-0.678361 0.242958 0.048547
-0.313291 -0.140094 0.769659
-0.322441 0.254782 0.439747
0.047992 0.641630 0.431011
0.409829 -0.490053 0.420759
0.432615 -0.145996 0.801582
0.730465 -0.480268 0.047001
0.070421 -0.497213 0.034306
-0.672627 -0.478845 0.045291
0.409384 -0.488799 0.421708
-0.324254 -0.512484 0.388738
0.398744 0.597863 0.054485
0.048524 0.642102 0.429468
-0.313258 -0.141970 0.771581
0.039581 -0.501755 0.773194
0.033018 -0.500519 -0.680067
0.398449 0.251600 0.417659
-0.283420 0.582986 0.040540
0.059974 0.623311 -0.330067
0.773463 -0.118745 -0.299663
-0.681438 -0.115547 0.383724
-0.324061 -0.513443 0.388256
-0.680724 -0.113724 0.384405
0.031284 -0.500130 -0.678924
0.411485 -0.497836 -0.338048
0.071176 -0.497966 0.034667
-0.321536 0.256421 0.441069
0.067057 0.217734 0.776926
0.398494 0.252484 0.417360
-0.321695 0.253418 0.440045
0.031758 -0.501471 -0.679808
0.066842 0.217461 0.776600
0.423173 -0.143741 -0.698912
0.412514 -0.498713 -0.337381
0.420176 -0.145811 -0.699874
0.413109 -0.497613 -0.338764
0.066650 0.218338 0.778015
0.772785 -0.119887 -0.302060
-0.313886 -0.139839 0.770760
0.050359 0.640826 0.431082
0.049834 0.642633 0.428991
0.033328 -0.500988 -0.679214
-0.322390 0.253742 0.439899
-0.313342 -0.140290 0.768039
0.729015 -0.482400 0.045586
-0.685787 0.231272 -0.690117
0.059765 0.221613 -0.700334
-0.282345 0.581709 0.040660
0.791998 0.247223 0.059184
-0.330176 -0.498253 -0.298344
-0.325523 -0.511786 0.387207
0.058883 0.625329 -0.328989
-0.687512 0.232344 -0.688729
0.062012 0.221648 -0.701185
-0.313358 -0.142345 0.773158
-0.708024 0.583332 -0.340627
-0.302736 -0.112782 -0.672018
0.058943 0.625348 -0.326523
0.069333 -0.498642 0.033357
0.071875 -0.498059 0.032755
0.048249 0.642239 0.429373
-0.706833 0.584472 -0.340482
0.398745 0.252941 0.415844
0.399194 0.252504 0.416374
-0.282821 0.582167 0.042067
-0.324374 0.254522 0.439991
0.770063 -0.126896 0.414424
0.421350 -0.145954 -0.701465
-0.322982 -0.512673 0.386684
-0.705819 0.584391 -0.341478
-0.329439 -0.498210 -0.299066
0.414284 -0.497052 -0.336613
-0.313978 -0.141873 0.770446
-0.686403 0.229520 -0.689721
0.069114 -0.498956 0.031836
0.399932 0.250612 0.417583
0.040587 -0.500252 0.774308
-0.311548 0.562392 -0.666067
0.433044 -0.145070 0.803311
-0.687204 0.229368 -0.690098
-0.330207 -0.496128 -0.298312
-0.677572 0.244086 0.048268
0.069713 -0.497482 0.033187
0.047345 0.641851 0.429075
0.399179 0.251747 0.417637
0.399820 0.597281 0.052932
0.059100 0.624679 -0.328187
-0.321248 0.254198 0.440772
0.433355 -0.146682 0.801516
-0.311965 0.563660 -0.667254
0.070943 -0.497676 0.033756
-0.312095 -0.141793 0.769908
-0.310602 0.566120 -0.666412
-0.331675 -0.496964 -0.300158
-0.686407 -0.125083 -0.323463
0.398635 0.595839 0.056428
0.397277 0.596164 0.053606
0.060417 0.219307 -0.699816
0.729857 -0.481104 0.048100
-0.330464 -0.495017 -0.298570
0.397749 0.597112 0.056059
0.409399 -0.488794 0.421618
-0.689234 0.229638 -0.687365
-0.707027 0.583440 -0.341778
-0.324235 -0.513503 0.387748
-0.682058 -0.113877 0.383744
-0.686606 0.230024 -0.689224
0.061527 0.220328 -0.699886
0.398837 0.597109 0.056181
-0.686748 0.230699 -0.689320
0.775065 -0.116315 -0.301052
0.412744 -0.496793 -0.337081
0.397897 0.251981 0.418242
0.421540 -0.144008 -0.699436
-0.330610 -0.496868 -0.300373
-0.672911 -0.477674 0.042768
0.070240 -0.497697 0.034007
0.381617 0.220501 -0.310462
-0.283746 0.580153 0.043750
0.413184 -0.498134 -0.338085
-0.686706 0.228093 -0.690363
0.061945 0.221135 -0.700962
0.070729 -0.498132 0.032507
0.792662 0.246534 0.059953
0.773984 -0.116707 -0.300355
0.728641 -0.481461 0.046988
-0.687510 0.227792 -0.689808
0.397529 0.596641 0.053986
-0.302089 -0.111942 -0.672548
-0.302172 -0.113213 -0.672422
0.381701 0.219207 -0.308980
0.729915 -0.483102 0.047985
-0.312764 -0.142001 0.769765
0.056725 0.622899 -0.327526
-0.300345 -0.112555 -0.672265
0.058192 0.624405 -0.329372
0.793357 0.246950 0.059413
0.770882 -0.124168 0.414318
-0.678841 0.242550 0.048440
0.791464 0.244974 0.059834
-0.313231 0.565321 -0.666651
-0.681450 -0.115307 0.383508
-0.677712 0.244179 0.048404
-0.312296 0.563922 -0.667225
-0.313715 -0.140730 0.771496
0.397818 0.251652 0.418719
0.063493 0.220716 -0.698613
0.431544 -0.145780 0.801148
-0.314867 -0.139503 0.768463
-0.330345 -0.496814 -0.298391
0.032974 -0.500563 -0.679927
-0.315186 -0.142464 0.768877
0.396884 0.596085 0.053784
0.070371 -0.497102 0.034378
-0.298892 -0.111068 -0.671284
-0.302802 -0.113235 -0.672737
-0.706851 0.583032 -0.341595
0.767959 -0.122902 0.413216
0.041848 -0.500361 0.775058
-0.321690 0.253801 0.441265
