OFF
256 0 0
-0.691817 0.639486 -0.339271
0.041678 0.234081 -0.691489
-0.334314 -0.512469 0.414531
0.046033 0.246034 0.787717
-0.691358 0.636696 -0.337787
0.069463 0.618342 -0.337608
0.811143 0.230971 0.045452
0.053959 -0.480156 0.789939
0.027754 -0.502374 0.032786
-0.320466 0.624060 0.029228
0.410534 -0.536398 0.413535
-0.683150 -0.501481 0.028316
0.814246 -0.142918 -0.313113
-0.313473 0.607383 -0.680164
0.408072 -0.534279 0.413184
-0.690954 -0.128138 0.422456
0.393053 -0.120143 -0.662530
0.069734 0.619005 -0.333708
0.769861 -0.135242 0.400183
-0.712937 0.233260 0.049147
-0.678496 0.245344 -0.668849
-0.701926 -0.133443 -0.313060
0.810566 0.233015 0.046345
0.028969 -0.503395 0.033375
-0.698478 -0.133663 -0.312728
-0.329607 -0.126076 -0.689856
0.055138 -0.479816 0.789692
-0.678349 0.244770 -0.668962
-0.321656 -0.506528 -0.343661
0.417281 0.203015 -0.291635
-0.329863 -0.126873 -0.689812
0.070261 0.617783 -0.335826
0.812163 0.231118 0.047063
-0.329301 -0.126560 -0.690761
-0.682696 -0.500682 0.027085
0.813271 -0.143660 -0.313241
0.029262 -0.501191 0.032585
-0.712698 0.231794 0.048947
0.812265 0.229581 0.048398
-0.311043 0.607055 -0.681971
-0.689533 -0.127910 0.419840
-0.331909 -0.511838 0.413243
0.056272 -0.479956 0.788843
0.405421 -0.116695 0.799022
-0.333811 -0.511792 0.413930
0.815268 -0.143161 -0.311732
-0.330301 -0.511599 0.412344
0.052637 0.629149 0.402875
-0.310479 -0.143822 0.785092
0.068416 0.618038 -0.334782
-0.320182 -0.504712 -0.343816
0.418256 0.203018 -0.293078
-0.334460 -0.510169 0.413570
0.030672 -0.503678 0.033344
0.415744 0.204937 -0.293931
-0.690714 0.636833 -0.339987
0.428355 0.605891 0.055509
-0.690341 0.637165 -0.338361
-0.715448 0.231711 0.050625
0.069752 0.616301 -0.336227
-0.327406 -0.126241 -0.690571
-0.310257 -0.147482 0.785583
0.053461 0.628624 0.402587
-0.319184 -0.507043 -0.345473
-0.685333 -0.500244 0.028654
0.070166 0.617504 -0.335270
-0.310211 0.607998 -0.679982
-0.683385 -0.499890 0.029101
0.410662 0.243223 0.403488
-0.690489 -0.128621 0.419437
0.068520 0.618357 -0.337341
0.410356 -0.535271 0.413054
-0.311047 0.609158 -0.680630
0.769559 -0.136270 0.399963
0.416515 0.204332 -0.292683
-0.324537 0.623643 0.026897
0.409526 -0.536330 0.413462
-0.309242 -0.147065 0.783604
-0.311711 -0.145972 0.784487
0.428136 0.604342 0.056510
0.068624 0.617724 -0.335773
0.047179 0.244667 0.788360
-0.677588 0.244452 -0.669059
0.424806 -0.494253 -0.297290
-0.682992 -0.498266 0.027695
-0.692176 0.639390 -0.340199
0.795740 -0.518672 0.061210
0.056131 -0.479133 0.789216
0.770333 -0.137533 0.398539
-0.690094 -0.129839 0.422186
-0.333210 -0.511871 0.414422
0.029827 -0.501610 0.033710
-0.701171 -0.133853 -0.313291
0.406332 -0.118963 0.798777
0.811272 0.231313 0.046563
0.047439 0.245751 0.789106
0.408057 -0.120421 0.799701
-0.683094 -0.501028 0.028846
-0.311682 0.608549 -0.680465
0.412265 0.245213 0.399985
0.794335 -0.520154 0.061893
0.405859 -0.119226 0.797989
0.408562 -0.117135 0.799839
0.416933 0.205973 -0.292476
0.409996 -0.540157 0.415006
-0.679999 0.244235 -0.668561
-0.329208 -0.124488 -0.690478
0.429480 0.603789 0.056212
0.420345 -0.492273 -0.294977
0.037233 -0.493397 -0.691423
-0.329796 0.237574 0.404045
0.428289 0.604254 0.056686
-0.691126 -0.130298 0.422533
-0.310971 0.608941 -0.682124
-0.310421 -0.145297 0.786022
-0.323889 0.623557 0.026629
-0.329797 0.238289 0.404308
0.408442 -0.116339 0.797132
0.810081 0.231164 0.047426
0.054241 0.629657 0.402117
-0.333680 -0.511250 0.415928
0.793010 -0.520866 0.062660
0.795584 -0.520005 0.063254
0.048059 0.245555 0.788946
0.042346 0.234952 -0.690691
0.416789 0.205678 -0.294022
-0.331751 0.238465 0.403833
0.071849 0.617904 -0.335141
0.048012 0.245545 0.787982
0.048432 0.244336 0.789587
-0.691562 0.636982 -0.340860
0.406768 -0.117783 0.800259
0.069879 0.614047 -0.335329
0.031725 -0.503489 0.034031
0.768711 -0.138746 0.400213
-0.691274 -0.129744 0.420571
-0.311303 -0.144762 0.785611
-0.329701 0.239773 0.401235
0.036308 -0.491534 -0.690302
0.411840 0.245239 0.401889
0.422260 -0.492739 -0.293041
-0.713670 0.234212 0.050017
-0.690325 -0.131524 0.421061
0.040981 0.234307 -0.692997
0.770591 -0.136630 0.400328
0.407574 -0.116716 0.798730
-0.684921 -0.500491 0.029473
0.042464 0.234326 -0.691294
0.047959 0.246041 0.790118
0.430110 0.604927 0.055433
-0.328961 -0.125346 -0.690973
-0.319348 -0.507652 -0.345203
0.055775 -0.478203 0.790113
0.409302 -0.536230 0.412185
-0.684470 -0.499360 0.028828
0.049629 0.247328 0.788407
0.814429 -0.143029 -0.312731
0.412101 0.244980 0.403717
-0.311530 -0.145112 0.786812
-0.331468 0.237418 0.403052
-0.690250 -0.128978 0.420659
0.052966 0.629239 0.401805
-0.310585 -0.146572 0.784790
-0.311076 -0.145799 0.786311
0.810849 0.233029 0.047322
0.053781 0.627706 0.403372
-0.319054 -0.506041 -0.345558
-0.321877 -0.506130 -0.343726
0.813746 0.230798 0.047981
-0.682702 -0.497810 0.028887
-0.701810 -0.132611 -0.312594
0.052221 0.628134 0.401278
-0.328032 -0.126095 -0.691147
-0.323909 0.622896 0.026718
0.418130 0.203694 -0.291789
0.409897 -0.534774 0.413514
-0.689497 -0.131936 0.421932
0.069311 0.618657 -0.334869
0.793934 -0.521108 0.060732
-0.322217 0.622158 0.025686
0.423430 -0.494481 -0.295551
-0.324962 0.623834 0.026380
0.422899 -0.491709 -0.295390
-0.693108 0.637506 -0.337010
0.413014 0.245305 0.403299
0.407026 -0.117753 0.799289
-0.330290 0.238049 0.404424
-0.330063 0.238440 0.403730
0.412357 0.245421 0.402120
0.406999 -0.117073 0.797866
0.070229 0.617832 -0.334431
0.031204 -0.503420 0.033715
-0.309741 -0.147083 0.785228
-0.311602 0.607130 -0.682261
0.038499 -0.490031 -0.691879
0.055890 -0.478451 0.788552
-0.676772 0.246524 -0.668454
-0.702260 -0.135428 -0.313418
0.392054 -0.120048 -0.662699
0.030997 -0.501574 0.033654
0.067394 0.618258 -0.336078
0.421699 -0.493630 -0.295610
-0.321763 0.622068 0.028358
0.069581 0.618335 -0.333987
0.040971 0.233840 -0.690354
0.406492 -0.117438 0.797892
0.047408 0.244512 0.789306
0.421859 -0.493240 -0.296800
-0.683879 -0.497877 0.026931
0.041926 0.233697 -0.692462
0.810261 0.231987 0.048419
0.409481 -0.536578 0.412632
-0.308782 -0.146702 0.784660
0.421640 -0.495207 -0.296650
-0.683990 -0.499180 0.027593
0.030480 -0.502609 0.034941
0.391652 -0.122164 -0.662323
-0.312792 -0.147112 0.782283
0.031736 -0.503361 0.033810
-0.699394 -0.133094 -0.312295
0.793692 -0.521008 0.061747
0.422092 -0.494177 -0.296492
0.410733 -0.536845 0.413463
-0.311048 -0.146229 0.785742
0.039181 -0.492686 -0.691487
0.039908 -0.490791 -0.692639
-0.322092 0.623129 0.026959
-0.311417 -0.147054 0.786083
0.069066 0.616535 -0.336504
-0.678820 0.244393 -0.668082
-0.331255 -0.509564 0.414041
0.796188 -0.519643 0.062168
-0.323501 0.624605 0.026922
-0.320513 -0.508432 -0.345150
0.416559 0.204601 -0.293055
0.770480 -0.136291 0.400731
0.770459 -0.137650 0.398298
-0.322602 -0.505172 -0.346046
-0.690862 -0.129505 0.421951
0.041460 0.234932 -0.692600
0.052324 0.628205 0.403543
0.031836 -0.501254 0.034181
-0.320861 -0.506221 -0.342484
-0.331564 -0.510292 0.414181
-0.689761 -0.130031 0.420965
-0.676543 0.243614 -0.668265
-0.713099 0.232437 0.049289
0.031494 -0.501449 0.033307
-0.677019 0.243421 -0.669167
-0.691996 -0.127390 0.424080
0.815813 -0.142753 -0.314634
-0.689962 -0.127582 0.422740
0.070174 0.615469 -0.334514
-0.713500 0.231128 0.048864
0.410272 -0.537239 0.414693
-0.327901 -0.126014 -0.690860
