OFF
256 0 0
-0.587511 0.194936 -0.000492
0.196406 0.587664 -0.391020
0.588885 0.196048 0.391288
0.586146 -0.589290 0.391314
0.588302 -0.195675 -0.784582
0.587333 0.588686 -0.002166
-0.588068 -0.587540 0.001496
-0.588701 0.196933 0.782469
-0.197149 0.589862 -0.000348
0.196047 0.589120 0.392726
0.587086 0.195191 -0.391345
0.194490 -0.588340 -0.000745
0.588245 0.197641 -0.391219
0.196068 0.197171 -0.783159
-0.196620 0.589709 0.784822
0.195993 -0.588546 0.784419
-0.193224 -0.197625 0.783961
0.196744 0.195893 -0.783568
-0.588378 -0.196116 0.393071
-0.196701 0.586124 0.785389
0.589257 -0.589249 0.392691
0.587895 -0.196854 0.000257
0.588381 -0.588232 0.392798
-0.588295 -0.586970 0.000046
-0.195765 -0.588672 0.391824
-0.587177 -0.197345 -0.393748
0.590074 -0.196724 0.785628
0.196154 -0.587920 -0.783976
-0.587714 0.589801 0.393841
-0.587292 0.195366 0.000210
-0.588369 0.588662 -0.391954
0.193909 -0.588400 -0.784244
0.589557 -0.195943 -0.785544
-0.196547 -0.195159 0.783606
-0.196057 -0.587870 0.391569
0.196379 0.195873 0.784978
0.589291 -0.195401 -0.785275
0.587247 -0.589247 0.394114
0.196923 0.587296 -0.392415
-0.194418 0.587929 0.001023
-0.588515 -0.588920 0.000769
0.588452 -0.198334 0.000322
-0.588281 -0.195537 0.391729
-0.587330 -0.195447 -0.391628
-0.588952 0.589883 -0.390620
-0.195244 0.587041 -0.000719
0.588895 -0.195304 0.784101
-0.588091 0.195438 -0.785312
0.587574 -0.586318 0.390374
0.197028 0.588955 0.392608
0.195982 0.194316 0.785620
-0.197044 -0.587636 -0.391996
-0.588729 0.196057 -0.782798
-0.588157 0.197182 0.783561
0.197962 0.195506 -0.783684
0.195830 0.589393 0.390865
-0.197724 -0.588439 0.392125
0.587927 -0.588500 0.390756
0.194826 -0.586405 0.784088
0.589496 -0.195042 -0.000385
-0.588714 0.197680 -0.784051
0.588274 -0.197705 0.002462
0.587452 0.198298 0.393149
0.587956 0.588102 -0.001643
-0.587470 0.195848 0.001787
0.194909 0.587483 0.391179
-0.587731 -0.194366 0.392234
-0.588765 0.196532 0.785865
-0.587442 0.589639 -0.392597
-0.588902 -0.196896 -0.391842
0.195666 0.197287 -0.786364
-0.195455 0.588911 -0.784240
-0.589053 0.197213 -0.783837
0.588691 -0.198373 0.001256
-0.588182 -0.195459 0.391138
-0.587865 0.588616 0.393880
-0.588403 0.194396 0.001391
0.587261 -0.588693 0.392857
0.195874 0.588905 -0.393235
-0.588199 0.196545 0.785021
0.196094 0.588226 0.391980
0.196637 0.197128 -0.783505
0.196709 0.587653 0.393219
-0.588309 -0.196285 -0.392633
-0.589213 0.589142 -0.393542
0.196457 0.196736 -0.784376
-0.589442 -0.195863 -0.392130
-0.197756 -0.196733 -0.783569
-0.586324 0.588304 -0.390924
0.588170 -0.194041 0.000112
-0.195704 0.587992 -0.784455
0.588354 -0.195687 -0.784532
0.590243 0.587497 0.001916
0.587400 -0.197493 -0.786567
-0.196101 -0.196296 0.786049
-0.198020 -0.196337 -0.785746
-0.589170 0.195010 0.785030
0.197848 0.196828 -0.784122
0.197695 -0.587517 -0.000103
0.587233 -0.196058 -0.000379
-0.585967 0.195707 0.001516
-0.589452 -0.199054 0.393107
0.588876 -0.196606 0.786107
-0.588290 -0.588113 -0.001203
0.588279 0.194908 -0.392068
-0.196105 -0.196418 0.783568
0.587628 -0.194184 0.784574
0.589432 -0.195795 0.000616
0.588542 -0.195376 0.785178
-0.195793 0.590111 0.783191
-0.196059 0.587137 -0.785470
-0.588532 0.587970 -0.393261
-0.196845 0.587192 -0.784142
-0.196533 0.589221 0.784637
-0.588552 0.195377 -0.782416
-0.588818 -0.590509 -0.001458
-0.197360 0.588210 0.784781
-0.586966 0.587941 0.393945
0.587690 0.195544 -0.393635
0.588468 -0.196442 -0.000406
0.197132 0.589422 -0.391257
0.588814 0.196643 0.392210
0.587625 -0.588665 -0.392374
0.195069 -0.589943 -0.000436
0.196957 0.195806 0.784691
0.588192 0.197960 0.391538
0.589999 -0.196566 -0.786535
0.195553 -0.588588 0.785019
0.194689 0.196698 0.784503
-0.588825 -0.589463 -0.000355
0.198671 -0.588694 0.784879
0.195107 0.195395 0.784914
-0.197206 -0.589299 -0.392162
0.586668 -0.197741 -0.783409
0.588161 0.196520 0.392655
-0.588609 0.197283 -0.784424
-0.587228 0.195629 -0.784435
-0.195619 -0.589564 0.392268
-0.192509 0.587784 -0.782320
-0.197439 -0.194795 -0.785296
0.195792 -0.589217 0.784624
0.587342 -0.194202 -0.783586
0.587070 -0.196231 -0.784098
-0.196196 -0.588713 0.393989
-0.197962 -0.196602 0.784844
0.589154 -0.196537 0.782910
0.195514 0.196398 0.784735
-0.193233 -0.588471 0.391704
0.196093 -0.588771 -0.784178
-0.196522 -0.589569 -0.391758
0.588773 -0.195785 -0.001746
-0.196388 0.588261 0.000507
-0.195467 -0.588289 0.391223
0.584586 0.197112 0.391211
0.196505 -0.587643 -0.000818
0.195718 0.588285 0.391500
-0.587797 -0.194213 -0.393076
0.588908 -0.196406 0.784562
-0.195202 -0.588146 0.393099
0.589137 -0.587072 0.392733
-0.588779 0.586984 0.391895
-0.195968 -0.587958 0.393338
-0.588529 0.195711 -0.784408
0.195781 -0.586951 0.784340
0.587603 0.194836 0.392575
-0.196586 -0.194980 0.783791
-0.197462 -0.587484 -0.392026
-0.587316 0.194875 -0.783018
0.585477 -0.194518 0.786376
-0.194582 -0.589267 0.393651
0.195579 0.195667 0.786280
-0.587906 0.197805 0.784766
-0.586471 -0.195059 0.390742
0.586717 0.197116 0.393782
0.587133 0.196909 0.391734
-0.586335 -0.195000 0.394206
-0.196564 -0.588254 0.391740
0.196565 -0.588105 -0.785705
0.588842 -0.196199 -0.784242
0.588918 -0.589454 -0.391821
0.589334 -0.588107 0.392908
0.588759 -0.195395 -0.784529
0.588666 -0.195129 -0.784709
0.588055 -0.197375 0.786269
-0.196807 0.588028 -0.783235
-0.194831 0.588637 -0.783030
0.195706 0.587466 0.391704
0.587905 0.197276 -0.393091
0.587426 0.587422 0.000263
0.196657 0.589626 0.390430
-0.196636 0.587971 -0.002887
0.195618 0.588816 0.392220
-0.195880 0.589496 0.784579
0.589085 0.588479 -0.001401
-0.198168 -0.197219 0.784477
0.196260 0.586763 -0.393749
0.588702 -0.195829 -0.784867
0.193686 0.588753 -0.391537
-0.589257 -0.196083 -0.393631
-0.588702 -0.196479 0.392959
0.587900 -0.196043 -0.785050
0.195739 -0.587446 0.000046
-0.589470 -0.195751 0.392879
-0.587837 0.195402 0.783795
-0.195973 -0.588291 0.392190
-0.587731 -0.196513 0.391641
0.589781 0.587051 0.000340
-0.195868 -0.588175 -0.393036
-0.196309 0.586782 0.783583
0.588160 0.193685 -0.391916
-0.587995 -0.588310 0.000564
0.588359 0.197176 0.391171
-0.194733 0.587103 -0.785238
-0.589167 0.588861 0.391731
0.197064 0.196532 0.784495
-0.196285 0.587143 -0.784226
-0.195144 0.589050 0.001141
0.587885 -0.197278 -0.785176
0.194907 0.586492 0.392353
-0.587867 0.587742 0.392921
0.590232 0.588302 -0.000227
-0.196559 -0.588292 0.391672
0.587104 0.589091 -0.001007
-0.198280 -0.195012 0.785764
0.195115 0.588119 0.392589
0.588153 0.587432 0.000451
0.196127 -0.589177 0.000919
-0.196790 -0.587441 -0.392018
-0.198188 -0.588708 -0.394054
0.589018 -0.196209 -0.000810
0.195992 -0.589090 0.001125
-0.587967 0.589015 0.392059
0.587438 0.195109 -0.391159
-0.587743 0.195583 0.000052
-0.589367 0.195833 -0.786102
-0.197167 -0.586466 -0.392516
-0.196112 0.587727 0.000387
-0.195974 0.588352 0.002381
-0.587235 0.196168 -0.784518
-0.196215 -0.196279 0.784797
-0.197104 -0.588895 0.392440
0.588412 0.197640 0.391382
0.589216 0.587779 -0.000092
0.587214 -0.588255 -0.393474
-0.588482 0.196289 -0.784612
-0.589071 0.195209 0.001211
-0.197508 0.587508 -0.000890
0.196601 0.196061 0.785214
0.589206 -0.588338 -0.392075
0.195734 -0.590208 0.783745
-0.588306 0.194437 -0.785211
-0.589448 -0.197556 0.392761
0.196739 0.588407 -0.390364
-0.589459 -0.586917 0.001174
0.194768 -0.586352 -0.784336
-0.588049 0.196433 0.000080
