OFF
256 0 0
-0.581550 0.181661 0.771266
0.587589 -0.198376 0.783818
0.573421 0.558712 -0.011165
-0.546586 0.556528 0.369512
-0.181226 -0.574050 -0.395644
0.190154 0.214980 -0.771460
0.573536 -0.184733 0.026987
0.534175 -0.185141 -0.772839
-0.550037 -0.171252 0.371202
-0.576380 0.582204 -0.384512
0.181858 -0.585732 0.757355
0.566629 -0.545669 0.396334
0.588307 -0.199209 0.785107
0.180259 -0.585352 0.756285
-0.577953 0.583265 -0.384047
0.564854 0.193515 0.399289
-0.580961 0.182059 0.773558
0.190802 -0.578207 -0.792690
0.190712 0.216283 -0.770979
0.573404 -0.185416 0.027747
0.191879 0.218352 -0.773574
0.561704 0.173899 -0.381393
0.535918 -0.186685 -0.771081
0.562164 0.174717 -0.381899
-0.555729 -0.218331 -0.379821
0.562175 0.175066 -0.380185
0.536199 -0.186850 -0.771401
-0.190737 0.567374 -0.768061
0.184338 0.196018 0.773674
0.573123 -0.187322 0.028213
0.190968 -0.578453 -0.790544
0.573164 -0.186556 0.028271
0.178889 -0.583569 0.753663
0.178325 -0.585375 0.756595
-0.574142 0.187089 -0.009008
0.561097 0.174433 -0.378797
0.589036 -0.199829 0.784333
0.181630 -0.583755 0.757818
-0.216198 -0.545311 0.356582
-0.570888 0.186928 -0.009799
0.534238 -0.183099 -0.771869
0.185839 0.195290 0.774751
-0.576489 0.581769 -0.384056
0.191101 0.216488 -0.773405
0.180757 0.562122 -0.370083
-0.215671 -0.545410 0.354698
0.533354 -0.186654 -0.772407
0.588125 -0.198112 0.786165
-0.215260 -0.543122 0.356447
0.585513 -0.197893 0.785408
0.589131 -0.198911 0.783970
0.532695 -0.544184 -0.386000
0.534090 -0.185458 -0.771240
-0.552528 0.191254 -0.740669
0.535089 -0.186128 -0.770133
0.191060 0.215340 -0.771037
0.562348 0.173759 -0.381511
-0.180831 -0.575690 -0.395010
-0.192047 0.562386 0.009247
0.191992 -0.572103 0.011223
0.573912 -0.186052 0.026938
-0.555685 0.190084 -0.739973
0.566955 -0.546684 0.396865
-0.174645 -0.182352 -0.752722
-0.576978 0.582801 -0.383936
0.190959 -0.577894 -0.791368
0.189639 -0.579368 -0.791767
-0.176017 -0.182130 -0.752112
0.184678 0.196254 0.773081
-0.175926 -0.182500 -0.752868
-0.191852 0.562334 0.010312
0.179180 -0.586152 0.756390
-0.573767 0.186057 -0.010622
-0.582377 0.183200 0.770903
0.190241 0.215802 -0.772312
-0.576944 0.583309 -0.386361
-0.547590 0.554958 0.370119
-0.582096 0.183615 0.771761
0.563907 0.175361 -0.379974
-0.549895 -0.170154 0.369568
-0.576495 0.582045 -0.384940
-0.564638 -0.592466 -0.008449
0.181667 0.563106 -0.368165
0.530671 -0.545103 -0.385781
-0.572962 0.185570 -0.008773
0.574208 0.559056 -0.012237
0.188929 0.215983 -0.772761
-0.583829 0.182948 0.772926
0.190206 0.216585 -0.772459
-0.190872 0.564965 -0.766882
0.179320 -0.584905 0.755989
0.191364 -0.580265 -0.791402
0.559117 0.173514 -0.381910
-0.192820 0.562621 0.010810
-0.552024 0.189128 -0.740964
0.587058 -0.196375 0.784068
-0.546530 0.556445 0.368174
0.559087 0.175646 -0.381819
0.565692 0.190627 0.397308
0.186121 0.196584 0.775663
0.536606 -0.186240 -0.771251
-0.549415 -0.171201 0.372174
-0.194398 0.558062 0.746275
-0.192849 0.563067 0.011300
0.560828 0.176330 -0.381694
-0.194179 0.559004 0.745052
-0.190399 -0.179115 0.765620
0.562246 0.173939 -0.379624
0.186812 0.196265 0.775552
-0.196877 0.558133 0.746779
0.181544 0.564182 -0.367297
0.230423 0.572505 0.380390
-0.557425 -0.218422 -0.380182
-0.578534 0.581359 -0.386227
-0.577607 0.583392 -0.385302
-0.581798 0.182218 0.771281
0.190711 0.215583 -0.771871
0.563380 0.190525 0.399990
0.230387 0.570576 0.381548
0.566241 0.191553 0.398552
0.192398 -0.579278 -0.790617
0.179058 0.562734 -0.369298
0.566042 -0.545948 0.397088
-0.550048 -0.172247 0.369674
0.574723 -0.183150 0.028334
-0.572524 0.187036 -0.010511
0.180866 0.564656 -0.366993
0.232193 0.573162 0.380458
-0.565181 -0.592742 -0.008296
-0.550430 -0.169555 0.369987
0.573478 0.558880 -0.010961
0.180247 -0.584381 0.756180
0.559314 0.175905 -0.380719
0.587880 -0.199264 0.784182
-0.572077 0.187052 -0.008233
-0.573098 0.188228 -0.009328
-0.192703 0.561596 0.011258
-0.190891 0.562685 0.010601
0.574477 -0.186681 0.027053
0.534534 -0.185414 -0.770108
-0.577624 0.582981 -0.386605
-0.564136 -0.592777 -0.009313
-0.577385 0.582899 -0.385102
0.181868 0.562526 -0.369429
-0.579637 0.580364 -0.384195
-0.191488 0.564277 -0.765417
0.180087 -0.584639 0.755866
-0.583410 0.183790 0.771776
-0.214639 -0.543661 0.355147
-0.553338 0.192584 -0.740887
-0.545725 0.556126 0.369331
0.588247 -0.196671 0.784329
0.190986 -0.578688 -0.792132
0.572581 -0.184261 0.028455
0.231175 0.572172 0.380837
0.179831 -0.584894 0.757442
0.568341 -0.546301 0.398264
0.533626 -0.184735 -0.772650
-0.189586 0.564545 -0.767512
0.573654 0.559474 -0.010417
-0.181796 -0.575351 -0.395931
-0.216414 -0.544699 0.354571
0.562560 0.174886 -0.382064
0.576179 -0.184223 0.027560
-0.564174 -0.592636 -0.007052
0.565847 0.191626 0.397936
-0.571876 0.188165 -0.009784
-0.580934 0.183372 0.771531
-0.192129 0.564770 0.011704
-0.190620 -0.179444 0.763172
-0.190192 0.563686 -0.768560
0.586455 -0.198969 0.786677
0.232215 0.571664 0.379668
0.572517 -0.185483 0.027758
0.571779 -0.185707 0.026174
0.190732 0.216189 -0.773970
0.566398 0.191697 0.398468
-0.573357 0.187202 -0.009357
0.572810 0.560412 -0.010070
-0.194903 0.558995 0.746622
-0.580360 0.183384 0.772016
0.232700 0.571324 0.381738
0.191987 -0.571179 0.010848
0.534863 -0.187253 -0.770748
0.192870 -0.579768 -0.789173
-0.194043 0.562202 0.012202
0.531754 -0.545564 -0.385046
-0.217728 -0.544656 0.353216
-0.213911 -0.543648 0.355589
0.190215 0.215849 -0.772669
0.566026 -0.545758 0.396190
-0.216117 -0.543395 0.355728
-0.214550 -0.543090 0.355992
-0.574549 0.187119 -0.007131
-0.181823 -0.574105 -0.394224
-0.192027 0.562949 0.009123
-0.192159 0.568002 -0.767524
-0.553222 0.191308 -0.741261
-0.193372 0.562324 0.011374
0.573748 0.559849 -0.011053
-0.572810 0.186792 -0.008454
-0.577390 0.582746 -0.384317
0.587215 -0.198780 0.786567
0.535816 -0.184085 -0.770598
0.191800 -0.569557 0.010358
0.535227 -0.186396 -0.769956
0.567587 -0.545686 0.398300
-0.566315 -0.593446 -0.007095
0.188341 -0.581635 -0.792012
-0.558585 -0.220380 -0.381489
0.565179 0.191270 0.397412
-0.582132 0.183096 0.774740
-0.574297 0.187388 -0.008224
0.231278 0.573112 0.380151
-0.190839 0.566026 -0.768116
-0.190938 0.563079 -0.767491
-0.552908 0.192102 -0.742294
-0.193954 0.562732 0.011656
-0.192339 0.562750 0.011403
-0.545520 0.552878 0.370081
0.533957 -0.186915 -0.771720
0.573221 -0.187109 0.028389
0.189974 0.218226 -0.773721
-0.582042 0.182707 0.770904
-0.214424 -0.545287 0.355845
0.565036 0.192777 0.398630
-0.553682 0.190859 -0.740353
0.189702 0.215965 -0.772654
0.567276 -0.546343 0.397275
-0.215031 -0.543345 0.354614
-0.190798 -0.180309 0.765717
-0.573026 0.187923 -0.008390
0.180306 0.562407 -0.369014
0.189739 -0.578794 -0.791562
-0.546839 0.556368 0.368673
0.534098 -0.187531 -0.772082
-0.182343 -0.576057 -0.393873
-0.192388 -0.178447 0.766266
0.531048 -0.543927 -0.385052
-0.195243 0.558250 0.744436
0.191117 -0.579358 -0.791573
-0.552426 0.190293 -0.741589
0.231225 0.570831 0.380578
0.533285 -0.184579 -0.770610
0.189286 -0.579686 -0.790772
-0.547809 -0.171917 0.370582
-0.195318 0.559800 0.745555
-0.577881 0.582542 -0.384332
0.532281 -0.545623 -0.385461
-0.193917 0.562876 0.009167
-0.547729 -0.170790 0.372270
0.179446 -0.583858 0.757653
-0.546000 0.555293 0.369525
-0.545835 0.554764 0.368509
-0.556198 0.190366 -0.743103
0.189809 -0.577926 -0.791751
