OFF
256 0 0
0.190219 -0.543719 0.766131
0.179277 0.563547 0.389988
0.186055 -0.576508 -0.022865
0.523926 -0.561797 0.370310
0.572814 -0.176103 0.762219
-0.536410 0.580349 0.397807
0.573121 -0.175224 0.762276
0.187260 -0.576906 -0.022356
0.189381 -0.544355 0.766558
0.553203 0.593899 -0.017320
-0.567849 0.200608 0.015743
-0.558179 0.171763 -0.761028
-0.200508 0.562870 -0.770793
-0.183391 0.598798 0.782427
-0.536624 0.582496 0.398577
-0.567606 0.200895 0.015884
-0.556183 0.171133 -0.759737
0.525162 -0.563099 0.371396
-0.199603 -0.182917 0.765398
0.217778 -0.563556 -0.742202
-0.545328 0.219354 0.774212
-0.537125 0.581118 0.397443
0.536869 0.175904 -0.395981
0.545676 -0.171493 0.000648
-0.156492 0.569165 0.006999
-0.155529 0.568034 0.007994
0.214727 -0.565194 -0.740639
0.553120 0.593608 -0.018181
0.553717 0.592828 -0.017097
0.215125 -0.566864 -0.738187
0.605164 -0.562389 -0.370850
0.191575 0.593725 -0.400472
-0.562436 -0.198081 -0.396239
0.553699 0.596553 -0.018006
0.596090 -0.208958 -0.774369
-0.572084 0.543184 -0.378551
0.523921 -0.562518 0.371568
-0.555978 0.172251 -0.759214
-0.186996 -0.586840 -0.379276
-0.155239 0.569119 0.005740
-0.183675 0.596277 0.779762
0.179158 0.564677 0.391416
0.187434 -0.576536 -0.023800
-0.184006 0.598297 0.780949
-0.585127 -0.195405 0.373611
0.604978 -0.560603 -0.373557
-0.556983 0.169837 -0.759206
-0.584636 -0.194778 0.375991
0.190224 0.590760 -0.397876
-0.190477 -0.587637 0.365765
-0.585050 -0.194198 0.375450
-0.585959 -0.195066 0.376228
0.190601 0.592916 -0.401302
-0.157559 0.566904 0.007003
-0.571167 0.540256 -0.379092
-0.557768 0.171568 -0.758521
0.536730 0.175454 -0.396508
0.188591 -0.575754 -0.024537
0.525069 -0.564897 0.371012
0.534651 0.175829 -0.398094
0.166204 0.201423 0.789316
0.536498 0.175731 -0.396045
-0.200543 0.562653 -0.768535
-0.182316 0.598113 0.780010
-0.573562 0.540993 -0.379688
0.553723 0.595927 -0.016975
0.167800 0.201276 0.788980
0.536706 0.177366 -0.397072
-0.555827 0.171232 -0.760958
-0.570116 0.200559 0.017013
0.215844 -0.564910 -0.740112
0.185687 0.149684 -0.764711
-0.201534 0.562060 -0.768519
0.168484 0.200276 0.788959
0.179981 0.564682 0.389635
0.570268 0.188167 0.392053
0.569677 0.190015 0.392544
0.554794 0.593855 -0.016965
0.180535 0.564619 0.389772
0.190120 0.591143 -0.398340
0.179677 0.565137 0.391209
-0.591461 -0.585760 -0.020576
0.189527 -0.543523 0.765284
-0.199880 -0.182056 0.766906
-0.539011 0.581753 0.398841
-0.190749 -0.586174 0.366487
-0.189324 -0.203688 -0.768240
-0.584877 -0.194331 0.374071
0.187521 -0.543830 0.766589
-0.544674 0.216961 0.774408
0.573477 -0.176655 0.761772
-0.545255 0.218253 0.776158
-0.568481 0.201773 0.014982
0.186714 -0.576409 -0.021916
0.570308 0.186821 0.392813
-0.569903 0.202812 0.015547
-0.189764 -0.203492 -0.768499
-0.183695 0.597331 0.778935
0.189245 0.592243 -0.399196
-0.592286 -0.585464 -0.019087
0.525217 -0.561672 0.371312
-0.156782 0.568506 0.007576
-0.568389 0.199501 0.014944
0.183626 0.150356 -0.765747
0.524597 -0.562441 0.371427
0.168325 0.201744 0.788067
-0.157226 0.568149 0.007493
-0.535096 0.581100 0.398502
-0.185644 -0.585338 -0.378585
0.535078 0.175131 -0.397806
-0.560261 -0.198261 -0.397838
-0.189878 -0.583887 -0.378108
0.606045 -0.561984 -0.371084
-0.546128 0.218341 0.775350
-0.568446 0.202044 0.014295
-0.571474 0.542296 -0.378280
0.570138 0.186626 0.394358
-0.570233 0.542068 -0.378233
-0.199504 0.562732 -0.767850
-0.556419 0.171583 -0.759746
0.570612 0.187721 0.392801
-0.537462 0.580706 0.398833
-0.187695 -0.584414 -0.380500
-0.199401 0.561522 -0.768654
0.185664 -0.575488 -0.024052
-0.183737 0.597314 0.780220
-0.157616 0.568245 0.008203
0.572666 -0.175396 0.762745
-0.536336 0.580278 0.398964
-0.188943 -0.204090 -0.766806
-0.188389 -0.588976 0.366753
0.167300 0.202337 0.789119
0.167840 0.200710 0.789755
-0.155868 0.567523 0.007988
0.571877 0.187598 0.392789
-0.187215 -0.586474 -0.379373
0.571884 -0.176693 0.761883
-0.546038 0.218879 0.772467
-0.199257 -0.183386 0.767266
0.547271 -0.169538 0.001667
0.554799 0.593302 -0.017472
0.216235 -0.565530 -0.739851
-0.536431 0.582273 0.400541
0.597265 -0.211961 -0.774388
0.186564 -0.577513 -0.020461
0.186952 -0.576984 -0.021096
0.537855 0.174777 -0.397204
-0.186392 -0.587006 -0.379893
0.522710 -0.562232 0.371024
0.190090 0.593939 -0.401014
0.179480 0.564675 0.388562
0.524779 -0.562982 0.371226
0.185359 0.150216 -0.765911
0.169116 0.203053 0.787865
0.187697 -0.576307 -0.022147
0.535707 0.174839 -0.395205
0.533935 0.175503 -0.398197
0.188205 -0.543316 0.765031
0.179399 0.563650 0.389899
-0.202465 0.562035 -0.770083
-0.198923 -0.183307 0.766208
0.167308 0.200097 0.786558
0.569499 0.187885 0.393930
0.605906 -0.562011 -0.373656
0.596050 -0.212516 -0.774619
0.553876 0.593965 -0.016949
-0.583771 -0.195062 0.376474
0.189951 0.593105 -0.399252
0.536305 0.176566 -0.395729
0.598070 -0.210833 -0.772817
0.573308 -0.175426 0.762097
0.186316 0.150592 -0.765391
-0.187818 -0.587030 0.365640
-0.188576 -0.203513 -0.770075
0.189624 -0.545010 0.766830
-0.562300 -0.197808 -0.397339
-0.190142 -0.587462 0.366477
0.553795 0.595690 -0.017553
-0.557238 0.171468 -0.760753
0.547579 -0.171081 0.002961
0.595803 -0.212004 -0.774582
-0.182619 0.596625 0.780066
0.189216 -0.542361 0.767592
0.597145 -0.212348 -0.772661
0.555763 0.594686 -0.017017
-0.536818 0.581022 0.397746
0.536168 0.176606 -0.396736
-0.571958 0.542606 -0.378975
-0.568128 0.202701 0.015267
-0.572888 0.540541 -0.380504
0.186421 0.150652 -0.764505
-0.566165 0.199926 0.016402
-0.189814 -0.586697 0.366801
-0.536290 0.582712 0.398641
0.574399 -0.175230 0.763241
-0.558123 0.171257 -0.759296
0.186784 -0.576929 -0.023685
-0.583807 -0.195393 0.377877
-0.544273 0.218260 0.773852
0.605502 -0.559764 -0.371822
0.168828 0.201237 0.788981
0.214291 -0.562823 -0.739574
-0.545773 0.217508 0.774737
-0.189556 -0.205686 -0.766423
-0.201544 -0.182919 0.766120
0.535044 0.176532 -0.395028
0.554024 0.593632 -0.017637
-0.158280 0.569647 0.007713
-0.157618 0.568132 0.007966
-0.586129 -0.194790 0.374311
0.188004 -0.577543 -0.022730
-0.199046 -0.182039 0.767542
-0.154833 0.569575 0.007663
-0.188914 -0.205194 -0.767467
0.533056 0.176894 -0.396507
0.547852 -0.174031 0.002226
0.523809 -0.564338 0.372310
0.605472 -0.561805 -0.371872
-0.182077 0.597338 0.780409
-0.200190 -0.182427 0.765858
0.548140 -0.171320 0.003067
0.190085 0.594263 -0.400033
-0.190054 -0.204871 -0.768277
-0.556717 0.170812 -0.760118
0.526254 -0.562389 0.370893
-0.199743 -0.182975 0.766638
0.188175 -0.544041 0.766261
0.526175 -0.560482 0.371252
-0.189282 -0.588053 0.366451
0.598101 -0.210676 -0.772471
0.526300 -0.562372 0.371164
-0.587344 -0.194202 0.376841
-0.183659 0.597497 0.780466
0.567817 0.185850 0.392854
0.553353 0.592945 -0.016609
-0.563297 -0.198517 -0.399048
-0.537202 0.581388 0.397672
-0.188349 -0.204974 -0.768901
-0.154344 0.568710 0.009030
0.536752 0.176604 -0.395776
-0.571316 0.541527 -0.378605
0.571056 0.188776 0.390027
-0.545513 0.218003 0.772327
-0.535671 0.581193 0.397168
0.536583 0.175973 -0.396393
-0.200002 -0.182742 0.766358
-0.201005 0.561228 -0.769882
0.554432 0.595085 -0.017271
-0.183200 0.596825 0.782284
0.191318 0.591941 -0.400150
0.597477 -0.210988 -0.772959
0.607240 -0.560795 -0.372991
-0.183459 0.598376 0.780996
-0.181743 0.596155 0.781942
0.523086 -0.562074 0.370955
-0.557258 0.172498 -0.760099
