OFF
256 0 0
0.185132 -0.590260 0.000383
-0.564818 0.204708 0.766691
0.192614 0.189776 -0.798788
0.573606 0.164480 -0.381163
0.193252 0.188294 -0.798401
0.556205 -0.561675 -0.384033
-0.192353 0.602986 0.774986
0.554985 -0.561025 -0.386650
0.555998 -0.561307 -0.386127
-0.563887 0.204322 0.768151
-0.194707 -0.575174 0.376525
0.562063 -0.194851 0.755331
0.577432 -0.608665 0.383931
0.167430 0.187104 0.778163
-0.190696 0.602958 0.774463
0.578593 -0.198455 -0.770054
0.187298 -0.588050 0.002319
0.182048 -0.600898 0.762031
-0.572238 -0.176190 -0.386709
0.166176 0.186777 0.774437
-0.200685 -0.573857 -0.387987
-0.191144 0.604716 0.775560
0.589652 0.578659 -0.004805
0.576823 0.194557 0.397337
-0.560943 0.581338 -0.409347
-0.572812 0.618155 0.392680
-0.570460 0.192245 -0.784495
-0.189912 0.590877 -0.003840
-0.573196 -0.174544 -0.386356
-0.567730 -0.167106 0.391245
-0.581307 -0.573183 -0.012437
0.590918 0.575704 -0.002255
-0.190830 0.603475 0.773303
0.193659 0.557830 -0.390135
-0.571264 0.196005 0.012739
0.181750 -0.604066 0.762349
0.577713 -0.607717 0.383710
0.573767 0.165316 -0.382422
0.560904 -0.194854 0.758376
-0.199747 -0.573379 -0.389228
0.577248 -0.607129 0.384253
-0.192008 0.604040 0.774369
0.578750 -0.608129 0.384448
-0.581192 -0.571373 -0.011387
0.591921 0.576265 -0.002125
0.556596 -0.563582 -0.385168
-0.571376 -0.174833 -0.385816
0.188515 -0.589412 -0.000864
-0.582557 -0.572976 -0.011523
-0.178878 0.564721 -0.750126
0.192030 0.189992 -0.797592
0.577658 0.195782 0.397989
0.193157 0.557543 -0.389351
-0.194153 -0.575008 0.374662
0.563439 -0.195225 0.754880
0.572427 0.167312 -0.381507
0.576969 -0.605808 0.383847
-0.201296 -0.576748 -0.387954
0.578086 -0.608203 0.384437
-0.192250 0.604517 0.773419
0.578778 -0.608006 0.383111
0.574117 0.167313 -0.380957
-0.571395 0.197850 0.012937
0.189832 0.568699 0.384682
0.562321 -0.194753 0.758335
-0.571604 0.618293 0.392007
0.182909 -0.602699 0.761665
0.576961 0.196184 0.397196
0.165964 0.186992 0.775341
0.560699 -0.194497 0.759308
0.590094 0.575388 -0.001907
0.183074 -0.602861 0.762869
-0.569852 0.192404 -0.785597
-0.581875 -0.572209 -0.012643
0.164189 0.188570 0.775674
-0.572779 -0.174382 -0.387266
0.590385 0.576216 -0.002493
0.574078 -0.198112 -0.767965
0.572964 0.166156 -0.381290
0.192986 0.190070 -0.798358
0.187085 -0.588657 0.000251
-0.192184 0.590976 -0.004440
0.165765 0.188781 0.778908
-0.572881 -0.175471 -0.386674
-0.568049 0.192703 -0.783973
0.613063 -0.224859 0.024311
0.187888 0.566200 0.383824
0.574329 0.165736 -0.382738
-0.191437 0.603378 0.774626
0.572409 0.167086 -0.383764
0.561191 -0.193648 0.758062
0.186994 -0.588771 -0.001569
-0.196995 -0.202412 0.794039
0.559898 -0.194506 0.757142
0.187567 -0.590591 -0.001165
-0.194416 0.589327 -0.004971
-0.192807 0.591149 -0.003995
-0.200308 -0.574123 -0.388875
0.561588 -0.194278 0.756065
0.574903 0.196262 0.397080
-0.194279 -0.575428 0.375731
0.163759 0.187925 0.775647
0.561180 -0.194257 0.756077
-0.568491 0.191277 -0.785564
-0.570976 -0.175345 -0.385516
-0.179404 0.566967 -0.752593
-0.179404 0.565977 -0.750711
0.578465 -0.607625 0.385299
0.193408 0.188213 -0.798625
0.576216 0.197059 0.397484
0.193294 0.188543 -0.795720
0.573035 0.165371 -0.381591
0.190718 -0.562220 -0.742773
0.186016 -0.589787 0.000984
-0.561636 0.581029 -0.409397
-0.192627 -0.575624 0.376528
-0.567343 -0.168225 0.391363
-0.191944 0.602277 0.773444
0.194404 0.556441 -0.388326
0.591170 0.576984 -0.002322
-0.560667 0.578883 -0.408702
0.188597 0.567060 0.385755
0.576051 0.194988 0.399416
-0.192468 -0.575336 0.375317
-0.561728 0.580890 -0.408230
-0.196156 -0.202386 0.792332
0.574025 0.165540 -0.382107
0.614339 -0.224376 0.025062
0.573493 0.167050 -0.381098
0.186626 -0.587392 0.000973
-0.200403 -0.574683 -0.388191
0.181730 -0.603643 0.762786
0.185219 -0.589155 -0.000554
-0.195146 -0.573444 0.375630
-0.178564 0.566419 -0.749428
-0.580634 -0.573382 -0.011537
-0.197266 -0.201660 0.793329
0.191385 -0.561866 -0.741611
0.557779 -0.560541 -0.385672
0.574468 0.194413 0.398338
-0.193799 -0.575483 0.375055
0.559732 -0.193920 0.759897
0.579347 -0.608511 0.384187
0.186885 0.566374 0.386254
0.182830 -0.601803 0.762938
0.613265 -0.223553 0.025270
0.555818 -0.560253 -0.384782
-0.210717 -0.186041 -0.790105
0.578352 -0.607437 0.384121
-0.190869 0.605577 0.774449
-0.570311 -0.172984 -0.384206
-0.191843 0.604113 0.775390
0.557475 -0.561161 -0.385836
-0.191165 0.602383 0.773578
-0.192200 0.590566 -0.005452
-0.192049 0.602640 0.773623
0.575636 0.196446 0.396541
0.188119 0.566739 0.385351
-0.560713 0.579356 -0.408882
0.182434 -0.605501 0.762440
-0.559526 0.582205 -0.409146
0.576419 0.195700 0.396462
-0.582808 -0.571415 -0.010079
0.576631 -0.198278 -0.768305
0.188963 -0.561561 -0.741361
-0.208687 -0.183789 -0.788952
0.575968 -0.199062 -0.768007
-0.194302 -0.576275 0.375145
-0.201690 -0.574773 -0.385993
0.576320 -0.198927 -0.767838
-0.567306 -0.167235 0.392007
0.610864 -0.222042 0.024093
-0.210177 -0.185952 -0.791817
0.576293 -0.608927 0.384374
0.180764 -0.606184 0.762702
-0.565920 0.202525 0.768610
0.165174 0.187522 0.776286
-0.573144 0.196305 0.012639
-0.565043 -0.167324 0.389975
0.575721 0.195690 0.397193
-0.197367 -0.203105 0.791243
0.573207 0.163968 -0.383176
0.575271 -0.197857 -0.768827
0.574261 0.166224 -0.381930
-0.571053 0.618749 0.393124
-0.176621 0.563986 -0.750640
-0.569386 0.193004 -0.784055
0.559518 -0.195850 0.756502
0.561958 -0.193925 0.757335
0.193748 0.188662 -0.798327
-0.210787 -0.187345 -0.789570
-0.567988 -0.167620 0.388049
0.188983 0.567350 0.384236
0.193789 0.190719 -0.797746
0.561127 -0.191988 0.757875
-0.562126 0.582088 -0.408398
0.576708 0.195440 0.397986
0.590327 0.577714 -0.002413
0.191039 0.189288 -0.799166
0.188271 -0.588770 0.001491
0.189876 0.567321 0.383528
0.578161 0.196575 0.395469
0.193298 0.188570 -0.797293
0.192511 0.558737 -0.390065
0.577000 0.196002 0.395757
-0.191068 0.602668 0.772831
0.187926 0.567815 0.382807
-0.573129 0.619796 0.392405
0.573609 0.165445 -0.380731
-0.569428 0.193956 -0.785363
-0.197978 -0.200207 0.791507
0.574874 -0.199003 -0.768728
-0.565319 0.203493 0.767862
-0.569726 0.190803 -0.785268
0.187321 -0.589820 0.001655
-0.572424 0.618756 0.394916
-0.572583 0.619219 0.394775
-0.201581 -0.574578 -0.389288
0.180378 -0.603340 0.764180
-0.197263 -0.202735 0.791307
0.561143 -0.196875 0.758214
0.557263 -0.560443 -0.386847
-0.582089 -0.571761 -0.010979
-0.193604 0.604011 0.775944
-0.571680 0.620946 0.393505
0.191422 -0.561169 -0.742024
-0.565711 0.204238 0.770372
-0.197025 -0.202494 0.791189
0.613265 -0.223508 0.024929
0.579750 -0.608190 0.384040
0.612398 -0.224102 0.026103
0.573985 0.165550 -0.381406
0.191064 -0.561183 -0.742586
-0.571923 0.619494 0.393979
-0.566894 -0.166862 0.390875
0.166255 0.187161 0.775990
-0.571056 0.198354 0.013381
0.192844 0.187805 -0.796631
0.186942 -0.588149 -0.001676
-0.572657 0.199349 0.012825
0.573724 0.165722 -0.380032
-0.583128 -0.572870 -0.011132
0.577533 -0.607992 0.386777
0.557155 -0.561036 -0.385829
0.571982 0.165712 -0.380238
-0.210624 -0.187408 -0.791646
-0.192561 -0.574781 0.374688
0.574372 0.165277 -0.381560
0.192509 0.187862 -0.796990
-0.571785 -0.175996 -0.386781
0.561214 -0.194903 0.756966
-0.210286 -0.188242 -0.791572
-0.197985 -0.200682 0.792459
0.560140 -0.192502 0.758747
0.594477 0.577627 -0.003334
-0.568330 0.191549 -0.784037
