OFF
256 0 0
-0.771032 0.150652 -0.302305
0.749248 0.175701 0.456501
-0.000690 0.533299 0.837756
-0.380231 -0.199636 0.464711
0.368487 -0.178209 0.455940
0.006037 -0.205552 -0.631021
0.753996 -0.582355 -0.265903
0.744711 -0.215568 -0.631034
-0.000009 0.542569 -0.664006
0.753930 -0.582902 -0.265456
-0.750195 0.185638 0.457407
0.021370 0.552056 0.094391
-0.753599 -0.559200 -0.260920
-0.725818 0.502962 0.080165
-0.388274 -0.593439 -0.675635
-0.725714 0.503075 0.080687
-0.001213 0.533072 0.835280
0.020492 0.551819 0.095994
0.388582 0.543338 0.473544
0.356952 0.518925 -0.289654
-0.752391 -0.558917 -0.260476
0.719661 -0.184637 0.063333
-0.361091 0.166462 -0.656754
-0.376316 0.158716 0.845358
0.719769 -0.183445 0.062284
0.774599 0.156699 -0.297829
0.386573 0.543839 0.473542
0.389029 0.543590 0.472306
0.009413 -0.210265 0.829276
-0.364100 0.525327 0.462343
0.363295 0.167241 0.852077
0.752016 0.173009 0.454315
-0.750145 0.184667 0.456020
-0.008063 -0.553056 0.473080
0.368027 -0.180252 0.455881
0.752826 -0.581991 -0.265039
0.389885 0.169746 -0.658746
-0.358994 0.165419 -0.655750
0.366220 -0.178602 0.456088
0.384205 -0.586645 -0.639421
-0.359886 0.169275 -0.655335
0.755150 -0.583844 -0.263807
-0.000144 0.541321 -0.666006
-0.350225 0.553633 -0.296338
-0.391625 -0.569799 0.096234
-0.772676 0.150422 -0.304131
0.009476 -0.211440 0.826465
0.009775 -0.212052 0.828876
-0.021073 -0.573646 -0.273138
0.717536 -0.185474 0.063875
0.019889 0.552732 0.094462
-0.376280 0.159500 0.845976
0.362105 -0.562279 0.126414
0.361206 -0.559725 0.124253
0.755043 -0.583520 -0.265166
-0.358475 0.169170 -0.655850
-0.001850 0.532037 0.836490
0.753105 -0.583177 -0.266192
0.744403 -0.214739 -0.632149
0.389279 0.170748 -0.658288
0.021786 0.554331 0.095031
0.746461 -0.216090 -0.631255
0.719714 -0.185420 0.064277
0.771059 0.154122 -0.299546
0.005824 -0.204100 -0.631699
-0.375557 0.160773 0.846120
0.362640 0.167006 0.851794
-0.380525 -0.199943 0.464479
-0.752970 -0.558983 -0.259252
0.385324 -0.589598 -0.638566
-0.359083 0.166031 -0.655352
-0.715066 -0.188440 -0.670243
-0.021407 -0.574036 -0.274450
-0.008356 -0.553664 0.473146
0.711495 0.529491 0.075173
-0.751414 0.184782 0.457836
0.355995 0.520914 -0.292497
0.754675 -0.583722 -0.264709
-0.359534 0.167932 -0.655469
0.367079 -0.177723 0.457330
-0.752874 -0.560384 -0.261817
-0.753548 -0.557823 -0.260535
0.005669 -0.207225 -0.629399
-0.388188 -0.592107 -0.678828
0.774370 0.155469 -0.300697
0.000342 0.541573 -0.664218
0.385013 -0.587538 -0.638163
0.385700 -0.589217 -0.639887
0.385771 0.542897 0.472758
0.384416 -0.587025 -0.638230
0.385149 -0.588120 -0.638795
-0.715821 -0.187580 -0.671328
0.021572 0.553730 0.097045
-0.361905 0.523834 0.460472
-0.362587 0.526956 0.462913
0.745208 -0.213885 -0.632152
0.010347 -0.212670 0.827861
0.390946 0.169663 -0.659086
0.369419 -0.178702 0.456076
0.391538 0.171147 -0.657945
-0.745112 -0.164035 0.079379
-0.007516 -0.553904 0.473797
0.743775 -0.212881 -0.632829
0.389809 0.544391 0.472219
-0.390839 -0.571058 0.095012
-0.390787 -0.569881 0.096383
-0.773254 0.150958 -0.303810
0.360249 -0.561167 0.125644
0.751703 -0.584653 -0.265813
0.717714 -0.183863 0.062837
-0.389089 -0.592691 -0.678157
0.005966 -0.206898 -0.632205
-0.387520 -0.592517 -0.676169
-0.754176 -0.559634 -0.260083
-0.375409 0.160513 0.845548
-0.009689 -0.553320 0.473063
-0.752415 -0.559802 -0.259995
0.009727 -0.211611 0.826657
-0.001649 0.533671 0.834044
0.020021 0.552979 0.096045
0.361010 0.164637 0.852465
-0.007662 -0.553276 0.473183
-0.360707 0.167699 -0.655206
-0.745805 -0.164193 0.078964
0.387509 0.543401 0.472988
0.774657 0.156227 -0.297692
0.356420 0.519669 -0.291167
-0.377806 -0.200365 0.463988
-0.009648 -0.553780 0.472378
-0.771764 0.151502 -0.304778
0.007337 -0.206822 -0.631673
0.005892 -0.207284 -0.629549
0.709966 0.529168 0.070601
-0.359153 0.166686 -0.657441
0.361148 -0.563106 0.125070
0.023355 0.551329 0.096398
-0.773117 0.150934 -0.302607
-0.716896 -0.187721 -0.670701
0.744128 -0.213745 -0.631149
0.020730 0.553217 0.095966
0.720510 -0.185674 0.062995
0.020718 0.551452 0.096899
-0.772693 0.151098 -0.303411
0.751996 0.172722 0.457905
-0.390302 -0.571035 0.095938
0.720456 -0.184196 0.063592
0.358851 -0.562276 0.123967
-0.388361 -0.592972 -0.678093
0.366959 -0.179653 0.455357
0.357982 0.519991 -0.290377
-0.380764 -0.199176 0.462717
-0.000281 0.542827 -0.664783
-0.725462 0.503084 0.080538
0.006236 -0.206653 -0.634877
-0.388063 -0.592850 -0.675555
-0.350504 0.551897 -0.295057
-0.350312 0.552672 -0.297349
-0.360286 0.167840 -0.656342
-0.752494 -0.559091 -0.261259
-0.023521 -0.574483 -0.274031
0.750487 0.171669 0.455905
-0.725535 0.502643 0.080418
-0.000555 0.541518 -0.664100
-0.360018 0.167468 -0.654354
0.010042 -0.210531 0.828024
-0.020819 -0.575019 -0.272113
0.711875 0.528900 0.071788
0.004511 -0.206717 -0.632635
0.775609 0.156450 -0.298979
0.020850 0.551932 0.096352
0.386561 0.542219 0.471926
0.771461 0.156840 -0.299082
0.772752 0.156266 -0.297056
0.006135 -0.207542 -0.632390
-0.009741 -0.553842 0.472791
0.362861 0.167707 0.851927
0.002807 0.541480 -0.664904
-0.387374 -0.592171 -0.677890
0.001860 0.542529 -0.665077
0.366775 -0.179605 0.456784
0.360312 -0.561681 0.125070
-0.751108 -0.559624 -0.261316
0.360259 -0.562706 0.123843
-0.010156 -0.555016 0.473750
0.361390 0.166657 0.851555
-0.715351 -0.186678 -0.670058
0.752047 0.172674 0.456975
0.773715 0.155296 -0.298794
0.360741 -0.563218 0.123045
0.754851 -0.584156 -0.265882
-0.000128 0.540775 -0.662940
0.360147 -0.561364 0.124463
-0.727368 0.502548 0.079792
0.006737 -0.203713 -0.630868
0.383139 -0.590541 -0.637600
-0.349116 0.553551 -0.297151
-0.376076 0.160334 0.843624
0.387209 0.545573 0.473359
0.719956 -0.185111 0.064322
0.750088 0.175777 0.456660
-0.391312 -0.570194 0.095964
0.388578 0.543840 0.475158
0.006024 -0.207664 -0.631766
-0.001619 0.539540 -0.662769
-0.358171 0.167661 -0.655308
0.753518 -0.583207 -0.265371
-0.390556 -0.571537 0.097515
0.719675 -0.185723 0.065422
0.753500 -0.584614 -0.264587
-0.001135 0.532878 0.837336
0.005991 -0.204119 -0.630371
0.744555 -0.211068 -0.632771
-0.002123 0.532849 0.838026
-0.771470 0.149300 -0.304818
0.387274 0.543380 0.471533
0.366236 -0.178272 0.455687
-0.386281 -0.591554 -0.676906
0.384944 -0.588378 -0.640477
-0.007681 -0.551999 0.472775
-0.349637 0.553396 -0.296621
0.772701 0.155036 -0.299967
0.361948 0.164662 0.850997
0.750223 0.173340 0.455377
-0.753189 -0.558199 -0.259044
-0.390778 -0.570340 0.097702
0.752392 -0.582210 -0.267303
0.744959 -0.214550 -0.631129
0.743664 -0.214189 -0.632669
-0.364148 0.523466 0.461589
0.020125 0.554322 0.096551
-0.375239 0.159486 0.844978
-0.379198 -0.200081 0.463822
-0.743348 -0.166888 0.078151
0.388854 0.546304 0.473095
-0.363306 0.525249 0.463739
-0.350078 0.552365 -0.298524
0.385822 -0.588100 -0.638491
-0.715247 -0.186031 -0.670120
-0.751955 -0.560529 -0.260110
-0.363360 0.526229 0.461893
-0.772377 0.150571 -0.304027
-0.388421 -0.592476 -0.676549
-0.752849 -0.559770 -0.260042
0.719000 -0.184092 0.064064
0.010757 -0.210375 0.828111
-0.364385 0.524904 0.462643
-0.009734 -0.551596 0.473250
0.773220 0.155140 -0.298491
0.720395 -0.184066 0.063646
0.752657 -0.584134 -0.266115
-0.750431 -0.561011 -0.259706
-0.387383 -0.592029 -0.677618
-0.001050 0.532501 0.838334
-0.715054 -0.185813 -0.669772
0.718341 -0.184676 0.064315
-0.021028 -0.574548 -0.271727
