OFF
256 0 0
-0.019981 -0.189790 -0.625883
0.009367 0.505377 -0.628256
-0.723438 -0.559216 -0.273442
-0.711361 0.177990 0.436632
-0.710585 -0.181807 -0.613079
0.360301 -0.531955 -0.619058
0.338684 0.171235 0.790500
-0.358739 -0.211077 0.456229
-0.347979 0.563125 0.440163
0.344440 0.512855 0.429284
0.006253 0.504034 -0.630318
-0.006106 -0.581330 -0.272500
0.736596 -0.229957 -0.636107
-0.713100 0.179083 0.440043
0.343634 0.513406 0.427883
0.005355 0.505537 -0.628472
-0.374932 -0.548014 -0.630405
-0.006958 0.521664 0.078648
-0.021785 -0.188948 -0.626405
0.343813 -0.186954 0.444914
-0.370277 0.178355 0.808494
-0.356301 -0.211301 0.454282
0.730529 -0.224243 0.093811
0.721872 0.173212 0.433047
-0.371915 0.177780 0.810014
-0.365665 0.533047 -0.273944
0.379930 0.138472 -0.638809
-0.358888 -0.209772 0.453960
-0.011768 0.526099 0.805535
-0.716706 0.566861 0.106877
-0.350076 0.561802 0.441333
-0.006668 0.522266 0.080831
-0.354798 -0.561231 0.079537
0.381321 0.139318 -0.639939
0.002344 -0.583984 0.434542
-0.004232 -0.578982 -0.273965
-0.356778 -0.210256 0.454252
-0.008571 0.523477 0.077547
-0.717071 0.174839 -0.255564
0.735911 -0.228345 -0.636360
0.346180 -0.185153 0.444282
0.362619 -0.533205 -0.618942
-0.004693 -0.580678 -0.273442
0.729932 -0.547200 -0.264987
-0.717063 0.566876 0.106048
-0.371768 0.176912 0.806854
0.004479 -0.586094 0.435026
0.345002 0.513970 0.428753
0.358037 -0.564416 0.070740
-0.005710 -0.580301 -0.270532
-0.003511 -0.580366 -0.273170
0.004697 -0.583353 0.433243
-0.710711 -0.181928 -0.612545
-0.719085 -0.187023 0.088357
0.364397 0.499106 -0.261342
0.339109 0.171556 0.787227
-0.350166 0.564073 0.442278
0.365825 0.499804 -0.257568
-0.712530 0.179560 0.440493
0.729395 -0.224985 0.094529
0.736875 -0.228224 -0.635210
-0.019393 -0.190750 -0.625261
0.003449 -0.585001 0.434396
-0.350275 0.562763 0.442204
-0.020694 -0.189422 -0.627114
-0.718051 -0.185731 0.088053
0.343093 0.514073 0.429148
-0.016202 -0.173650 0.814796
0.003359 -0.582811 0.433222
-0.375649 -0.548849 -0.628659
0.727660 -0.545878 -0.265716
-0.348835 0.163200 -0.624973
-0.717295 0.173011 -0.257300
-0.002677 -0.581059 -0.271485
-0.714400 0.178301 0.439324
-0.008317 0.520775 0.077998
-0.711433 -0.181897 -0.611601
-0.358311 -0.208824 0.454207
-0.717477 0.174362 -0.256826
-0.348486 0.564069 0.441993
0.002574 -0.586488 0.433970
-0.715030 0.178341 0.438653
-0.372455 0.176016 0.807333
0.008493 0.506612 -0.629938
-0.353609 -0.561202 0.077629
-0.717030 0.173476 -0.257738
-0.349466 0.161538 -0.627172
-0.715251 0.566006 0.107054
0.344330 -0.186150 0.443736
0.721611 0.171033 0.434318
0.362384 0.501256 -0.257676
0.730764 0.125279 -0.269244
0.364407 0.500927 -0.260159
0.721734 0.172815 0.433901
-0.353623 -0.561250 0.079371
-0.366707 0.531571 -0.270744
-0.016904 -0.174034 0.815488
-0.711580 -0.183318 -0.613640
-0.713184 0.178909 0.437601
-0.010761 0.526334 0.805797
0.730823 -0.544980 -0.265276
-0.348586 0.161188 -0.625854
-0.349263 0.162034 -0.625575
-0.376002 -0.547918 -0.630516
0.004087 -0.585191 0.434281
-0.367119 0.533265 -0.272162
-0.353628 -0.562770 0.079210
-0.717934 0.568515 0.106557
0.732003 0.528192 0.077151
0.720849 0.172733 0.435148
-0.347501 0.160955 -0.627167
0.001424 -0.583983 0.435076
-0.711709 -0.182288 -0.612409
0.379792 0.135199 -0.639280
-0.359139 -0.210556 0.455817
0.381469 0.137046 -0.638735
0.364674 0.502259 -0.259079
-0.350437 0.162064 -0.625212
-0.716830 0.568584 0.107328
0.344601 -0.185084 0.444508
-0.714324 0.176995 0.438356
-0.716303 0.567677 0.104603
0.731219 -0.546966 -0.266308
-0.347405 0.162751 -0.627630
-0.007199 -0.581284 -0.272912
0.738230 -0.229152 -0.636867
0.380335 0.137823 -0.638452
-0.717369 0.174246 -0.256916
0.734175 0.530416 0.076557
-0.353325 -0.563022 0.079673
0.344461 -0.185130 0.444192
-0.724427 -0.562243 -0.273194
0.362563 -0.533030 -0.619148
0.723915 0.172522 0.434217
-0.715106 0.177367 0.439113
0.003331 -0.584454 0.435147
-0.718300 0.565863 0.105935
-0.008881 0.520287 0.078012
0.007270 0.504115 -0.629478
0.344026 0.514066 0.428106
-0.005032 0.522511 0.077882
-0.349127 0.562783 0.441495
0.729491 -0.225402 0.093778
0.361250 -0.530720 -0.618986
0.732419 0.528379 0.077906
0.358351 -0.562411 0.071543
0.344825 0.512903 0.428388
-0.717406 0.173129 -0.257025
-0.004880 -0.581103 -0.272493
-0.347113 0.161671 -0.626391
0.379959 0.138868 -0.638246
-0.718139 0.568449 0.105331
0.357452 -0.564728 0.072964
-0.354486 -0.562089 0.080675
-0.004956 -0.582183 -0.272443
-0.375913 -0.546132 -0.631924
0.381330 0.138296 -0.638325
0.730034 -0.545443 -0.264297
-0.376804 -0.547384 -0.629137
0.365575 0.498750 -0.258872
0.006905 0.505807 -0.629761
-0.367593 0.531361 -0.273121
0.359071 -0.563823 0.072462
-0.006292 0.521353 0.077467
-0.006647 0.521224 0.080310
0.731257 0.124247 -0.268234
0.003116 -0.584583 0.435255
0.356911 -0.562814 0.071065
0.343975 -0.186000 0.445026
0.344277 -0.184601 0.444517
-0.365807 0.533455 -0.272981
-0.715783 0.566379 0.106405
0.365914 0.499688 -0.258004
-0.716349 0.568496 0.104333
-0.374626 -0.548331 -0.630483
0.338114 0.170256 0.790709
-0.719496 -0.185756 0.088265
-0.719027 0.568117 0.103609
-0.005172 0.521340 0.078535
0.006398 0.504376 -0.629242
-0.347159 0.163309 -0.626646
-0.717084 0.568101 0.106591
0.003089 -0.581549 0.434664
-0.022209 -0.188270 -0.623859
-0.711204 -0.184286 -0.612666
-0.718623 0.566540 0.105056
-0.020089 -0.188879 -0.624493
0.342981 -0.185228 0.445695
-0.352958 -0.560776 0.077738
-0.371652 0.175507 0.808141
-0.366710 0.533402 -0.274089
0.382665 0.137316 -0.639308
-0.351998 0.563639 0.440823
0.379412 0.136701 -0.639376
-0.358412 -0.210980 0.454054
-0.374087 0.176147 0.808584
0.722792 0.171499 0.432377
0.364830 0.499664 -0.258501
-0.717779 0.568317 0.104917
-0.015528 -0.174145 0.814683
-0.713932 0.174235 -0.257741
0.731830 -0.547050 -0.264183
0.737217 -0.229946 -0.636421
0.729339 -0.223704 0.096433
-0.359484 -0.209210 0.455654
0.338425 0.172135 0.789447
-0.021405 -0.191155 -0.625972
-0.005651 0.521620 0.078944
-0.712585 0.176093 0.439049
-0.350455 0.561864 0.442150
0.004137 -0.583827 0.434112
-0.375480 -0.548165 -0.630552
-0.348603 0.563786 0.442556
0.731842 0.529134 0.077240
-0.718137 0.566749 0.106676
-0.015340 -0.172752 0.813782
-0.365536 0.532556 -0.272650
0.728521 0.122586 -0.269618
-0.717947 -0.187426 0.088656
-0.716751 -0.186590 0.089057
-0.351611 0.561866 0.441362
-0.006362 0.521608 0.079406
-0.350507 0.562982 0.439999
-0.007099 0.520569 0.078957
0.731479 -0.545085 -0.264835
-0.717171 0.567396 0.105339
0.357550 -0.562874 0.071260
-0.020223 -0.190839 -0.624970
-0.004555 0.521402 0.079317
-0.717689 0.567323 0.105715
-0.359799 -0.210208 0.455630
-0.353084 -0.561375 0.078847
-0.357527 -0.210441 0.454236
0.381132 0.138011 -0.638784
-0.015083 -0.172958 0.814289
-0.719039 -0.185058 0.088020
0.731537 -0.548717 -0.264580
-0.350288 0.564035 0.440808
-0.725294 -0.558483 -0.273324
0.731118 -0.545528 -0.264413
-0.712761 0.178524 0.439077
-0.712091 -0.182177 -0.611639
0.337806 0.172038 0.788543
0.729931 -0.547143 -0.266685
-0.365045 0.533011 -0.273336
-0.366411 0.531312 -0.273009
-0.348084 0.161659 -0.625242
0.382714 0.136699 -0.639380
-0.353811 -0.562093 0.078130
0.365292 0.500705 -0.259389
-0.006303 0.520006 0.077941
0.730188 -0.222540 0.095033
-0.022538 -0.190355 -0.624687
0.729303 -0.545899 -0.264901
-0.016190 -0.173051 0.815210
0.345228 0.513157 0.427221
