OFF
256 0 0
-0.670443 -0.616133 -0.316642
0.386334 -0.585260 0.044520
0.423634 0.142786 0.789362
0.049374 0.475671 0.051697
0.037774 -0.581694 -0.318604
-0.332204 -0.608155 -0.723440
0.767804 -0.258467 0.044561
-0.688847 -0.271410 0.041072
-0.331639 -0.606138 -0.722218
0.399105 -0.208027 0.412630
0.048997 0.473598 0.049588
0.406985 0.471117 0.397575
0.057072 -0.581426 0.423785
0.406756 0.472993 0.398968
-0.312661 -0.222973 0.381154
-0.312819 0.493078 0.411045
0.783092 0.503024 0.032179
0.423126 0.143538 0.787527
-0.680968 0.488024 0.055155
0.416438 0.482204 -0.305192
0.400268 0.138430 -0.687852
-0.313331 0.493669 0.409407
-0.671946 -0.614646 -0.314627
-0.312390 -0.602841 0.042506
-0.680309 0.488360 0.054415
0.047389 0.473042 0.051192
0.385157 -0.586605 0.045033
0.768580 -0.260581 0.046080
-0.330393 -0.607971 -0.722093
0.423237 0.142554 0.787700
0.398482 -0.205873 0.411748
-0.315568 -0.600452 0.043151
-0.305650 0.486828 -0.301805
0.394323 -0.214109 -0.314191
0.767959 -0.258397 0.046255
0.392886 -0.214834 -0.316312
0.393601 -0.213798 -0.316251
0.784475 0.503130 0.032049
0.070397 0.497835 -0.676477
0.068932 0.496939 -0.675914
0.049662 0.473258 0.049558
0.768255 -0.260750 0.046667
-0.332702 -0.609166 -0.723345
-0.312151 -0.222541 0.379910
-0.675275 0.117642 0.409472
-0.312613 0.491683 0.409560
0.056523 -0.580607 0.423240
-0.314580 -0.601245 0.041064
0.040341 -0.241253 -0.683113
-0.295842 0.122642 0.775414
0.055602 -0.581797 0.425417
0.056758 -0.579734 0.424274
-0.680340 0.490053 0.055856
-0.313467 -0.600996 0.043772
0.069987 0.496801 -0.675623
-0.678271 0.488824 0.056620
-0.691111 -0.271452 0.042476
-0.671291 -0.614539 -0.314209
0.068344 0.497437 -0.675598
0.423110 0.142251 0.788065
0.063130 0.476707 0.768631
0.756482 0.118029 0.424407
0.035254 -0.583498 -0.320644
0.069948 0.494692 -0.676852
0.399312 0.136940 -0.688008
0.064976 0.478348 0.770246
0.055819 -0.581395 0.424266
-0.318238 0.157548 -0.676773
-0.679936 0.491058 0.056081
0.400713 -0.206209 0.411180
-0.305116 0.486126 -0.302823
0.783588 0.126550 -0.296279
-0.330427 -0.607505 -0.721804
0.405952 0.473361 0.395964
0.395183 -0.215925 -0.316080
-0.304306 0.486813 -0.300134
0.783391 0.126159 -0.296796
0.056718 -0.580244 0.423872
-0.318687 0.159269 -0.676066
0.422784 0.141194 0.788315
0.056989 -0.583411 0.423866
-0.670023 -0.615662 -0.315436
0.422617 0.143017 0.787865
0.384932 -0.584662 0.045659
0.055758 -0.579896 0.423948
0.405121 0.471884 0.397973
-0.682891 -0.224507 -0.691146
-0.304794 0.488619 -0.302866
-0.295852 0.120915 0.777472
-0.692891 -0.270061 0.041514
-0.320332 0.158430 -0.675945
0.783504 0.502889 0.030865
0.395021 -0.214707 -0.314300
0.399983 0.138684 -0.690087
0.390439 -0.216162 -0.314655
0.782873 0.125769 -0.297048
-0.667080 0.141568 -0.312119
0.407595 0.473377 0.400317
-0.676079 0.116289 0.407735
0.768207 -0.259862 0.045207
0.415123 0.480828 -0.304567
0.405567 0.472985 0.397999
-0.314199 0.494307 0.409967
0.040422 -0.242670 -0.681990
0.399783 0.137257 -0.688557
0.413336 0.482504 -0.304912
-0.315291 -0.600703 0.042980
0.392680 -0.215422 -0.315051
0.041912 -0.239919 -0.684535
-0.313351 -0.222510 0.380821
0.394275 -0.213091 -0.316503
-0.676213 0.118424 0.410738
0.050229 0.474528 0.049485
0.757667 0.116811 0.424455
0.049631 0.474517 0.050093
0.406520 0.472577 0.398168
-0.314276 0.492761 0.407556
-0.671927 -0.615024 -0.316164
0.399691 -0.208098 0.412227
-0.678645 0.489103 0.056123
0.781214 0.503077 0.031722
0.035949 -0.583775 -0.320624
0.781993 0.128260 -0.296730
0.759448 0.116403 0.422247
-0.691744 -0.270119 0.042136
0.423353 0.143229 0.787827
0.402298 -0.207688 0.410764
0.038854 -0.239918 -0.683040
0.041069 -0.239996 -0.684667
0.047932 0.473726 0.050253
0.385421 -0.586176 0.047522
0.400366 -0.206328 0.411042
0.402312 0.137687 -0.687982
-0.675476 0.118678 0.409407
0.047706 0.474374 0.048272
0.398389 0.137465 -0.691295
0.386358 -0.586754 0.046024
0.783222 0.127085 -0.294768
0.414962 0.482036 -0.304470
0.062553 0.475437 0.768043
0.424505 0.143850 0.788039
-0.314004 -0.601135 0.044319
0.041983 -0.241976 -0.682230
0.782843 0.127828 -0.297615
0.035011 -0.583771 -0.320538
-0.669856 -0.615028 -0.315466
0.424278 0.144707 0.788254
0.422903 0.142906 0.786802
-0.331105 -0.606930 -0.723952
-0.674620 0.118433 0.410322
-0.673777 0.117757 0.410507
0.409831 0.472527 0.398756
-0.295266 0.124310 0.778142
0.783707 0.125131 -0.295615
0.039226 -0.241569 -0.683339
-0.690109 -0.269233 0.042289
0.036941 -0.581733 -0.320864
-0.678488 0.489602 0.054122
0.399889 0.135604 -0.686475
0.036433 -0.583521 -0.321701
0.068266 0.497463 -0.675049
-0.675137 0.119987 0.409858
-0.671729 -0.613003 -0.314904
0.393938 -0.215959 -0.314388
0.406269 0.473628 0.397209
-0.682191 -0.225666 -0.690262
-0.314939 0.493963 0.411769
0.393253 -0.216623 -0.314427
0.415501 0.481695 -0.304306
0.399890 0.137592 -0.689951
0.413313 0.481264 -0.304774
-0.676798 0.120220 0.409752
0.422893 0.144568 0.787480
0.399168 0.136094 -0.688382
0.028477 -0.229048 0.799688
0.407489 0.472802 0.398073
-0.683490 -0.226542 -0.691022
0.783873 0.128110 -0.295539
-0.315168 -0.602241 0.043068
-0.670407 -0.615101 -0.314506
-0.675699 0.119055 0.411767
0.765886 -0.259180 0.048416
-0.670916 -0.613229 -0.314783
0.030591 -0.230203 0.800570
0.068937 0.499541 -0.676599
0.766337 -0.260316 0.045780
0.397710 -0.206410 0.410385
-0.683306 -0.224849 -0.690944
0.767780 -0.259637 0.047552
0.035506 -0.583932 -0.319841
0.415897 0.481387 -0.304521
-0.316083 -0.600848 0.044267
0.384186 -0.585711 0.042888
0.406895 0.471186 0.398372
0.414999 0.482443 -0.305164
-0.319450 0.157563 -0.676353
0.035249 -0.583402 -0.320746
-0.689939 -0.267530 0.041312
0.769202 -0.259404 0.044616
0.781633 0.125551 -0.295513
0.055138 -0.581315 0.425486
0.783700 0.501534 0.031627
0.782255 0.126573 -0.297486
0.047193 0.473093 0.049898
0.064549 0.477603 0.769335
-0.669991 -0.614334 -0.315312
0.784345 0.504924 0.029860
-0.332023 -0.607789 -0.722067
0.034366 -0.581094 -0.322547
-0.294529 0.120715 0.776264
-0.681978 -0.225400 -0.690543
-0.317655 0.159910 -0.676432
-0.306884 0.486886 -0.302605
0.069202 0.497880 -0.678133
0.032744 -0.230120 0.801666
0.064391 0.477244 0.771143
0.056821 -0.581196 0.422525
-0.672381 -0.615502 -0.314167
0.041372 -0.240145 -0.682525
-0.680372 0.491846 0.055343
-0.294424 0.121384 0.775392
0.064283 0.476227 0.771888
-0.330688 -0.606865 -0.724028
0.783896 0.126635 -0.296360
0.047445 0.474356 0.048291
0.759455 0.116816 0.424669
-0.665926 0.142456 -0.314502
0.046812 0.473481 0.052131
-0.296076 0.121509 0.776669
0.055475 -0.581127 0.426550
-0.678877 0.490291 0.055174
-0.675024 0.119102 0.408903
0.400092 0.136257 -0.688504
-0.665402 0.144244 -0.313253
-0.692790 -0.270286 0.038954
-0.673927 0.118530 0.410572
0.399569 -0.204957 0.411308
0.422265 0.141873 0.787766
-0.681636 -0.224793 -0.691397
-0.313844 -0.599759 0.040928
0.783467 0.125567 -0.295569
0.387750 -0.587753 0.043834
0.055896 -0.582195 0.423774
0.047643 0.473181 0.048528
0.047332 0.475128 0.050938
0.397681 0.137778 -0.689493
0.423976 0.142806 0.788472
-0.333244 -0.607426 -0.723431
0.399727 0.135872 -0.688248
0.039166 -0.584409 -0.320857
0.782904 0.503437 0.030786
0.414179 0.482588 -0.304113
0.399099 -0.207015 0.410266
0.780696 0.127751 -0.294749
0.385500 -0.586901 0.044352
-0.675707 0.119367 0.409955
