OFF
256 0 0
-0.397084 -0.174149 0.627599
0.304897 -0.193283 0.668320
-0.054746 -0.501014 -0.040879
-0.056358 -0.501871 -0.039562
-0.734605 -0.521959 -0.020469
0.654227 0.153730 -0.048541
0.657750 0.143431 -0.741349
0.653481 0.492394 -0.369242
-0.736420 -0.182067 -0.381518
0.645934 -0.201358 -0.370263
0.656636 -0.559699 -0.045065
-0.737725 0.170379 0.649630
0.656295 0.145558 -0.741337
0.308799 0.489340 -0.045096
0.656229 0.506553 0.311284
0.643550 -0.188939 0.293355
0.308849 0.487443 -0.043771
0.657869 -0.559022 -0.044882
-0.055432 -0.500747 -0.043504
-0.039618 -0.519207 0.639568
-0.734678 -0.520081 -0.022831
-0.039480 0.488717 0.273818
0.644953 -0.200498 -0.371127
-0.017618 0.175049 0.677425
-0.725438 0.165850 -0.018638
-0.397715 -0.173735 0.628390
0.657338 -0.559137 -0.045074
0.307747 0.489640 -0.046095
-0.040902 0.493428 0.275189
0.342171 0.494461 0.643855
-0.053634 -0.501780 -0.041301
-0.408673 -0.548786 -0.396800
0.647753 -0.201211 -0.369869
-0.733763 -0.177607 0.301188
-0.733277 -0.519531 -0.022764
-0.347176 0.493365 0.651027
0.298017 -0.544963 -0.374419
-0.732648 -0.518373 -0.020831
0.307425 0.487147 -0.046522
-0.734151 -0.178346 0.300790
0.342197 0.492979 0.643678
-0.725274 0.166584 -0.021484
0.655131 0.152603 -0.050437
-0.347485 0.493744 0.651792
0.313319 -0.200758 -0.762244
-0.348200 0.494811 0.651518
-0.735518 -0.518636 -0.022465
0.656293 0.152591 -0.047209
0.654212 0.492625 -0.372642
-0.397769 -0.174448 0.627689
0.289034 -0.515863 0.301397
-0.041510 -0.522314 0.639983
0.309504 0.487938 -0.046912
-0.048129 0.500657 -0.383214
-0.384209 0.504149 -0.060483
-0.385527 0.504766 -0.060545
-0.739166 0.170826 0.651671
-0.393424 -0.518175 0.306233
-0.041630 0.490296 0.274014
-0.734976 -0.178477 0.302804
0.306879 0.488373 -0.044060
-0.720873 0.496426 0.311876
0.342041 0.495526 0.643031
-0.043819 -0.517692 -0.721303
-0.034825 0.147314 -0.702721
-0.725391 0.165985 -0.019063
0.656566 -0.558668 -0.046094
-0.346409 0.494652 0.649550
0.656042 -0.558960 -0.045572
0.320889 0.510504 -0.728986
-0.034901 0.145221 -0.703151
-0.046874 -0.516028 -0.720875
-0.041648 -0.519685 0.640546
-0.047395 0.499764 -0.383801
-0.394521 -0.518634 0.307074
0.312804 -0.201498 -0.763451
0.661512 0.144756 0.653400
-0.732763 -0.519959 -0.023934
0.341030 0.493349 0.642851
0.642969 -0.188700 0.295015
-0.733676 -0.519317 -0.021791
-0.735593 -0.180169 -0.383179
0.656077 -0.559093 -0.045869
-0.033135 0.146005 -0.703056
-0.385552 0.503943 -0.063174
-0.394007 -0.520569 0.307603
-0.737593 -0.182103 -0.382103
0.289457 -0.517308 0.302310
0.303859 -0.191990 0.669370
-0.734130 -0.519230 -0.023955
-0.410051 0.162310 -0.374359
-0.034073 0.147221 -0.702281
0.341942 0.493157 0.644992
0.299444 -0.540012 -0.375011
-0.719484 0.494026 0.316102
0.657617 0.505369 0.311187
0.657258 -0.559726 -0.045178
-0.385553 0.503164 -0.060534
0.315023 -0.200330 -0.762359
0.299766 -0.541466 -0.372879
0.657530 -0.558031 -0.045639
-0.055418 -0.499813 -0.040828
-0.725126 0.167771 -0.021016
0.315605 -0.200200 -0.760930
-0.055081 -0.500950 -0.040121
-0.039326 -0.520903 0.640774
-0.408198 -0.548398 -0.397528
0.644460 -0.201204 -0.372433
0.289466 -0.515292 0.301304
-0.738187 -0.181441 -0.381923
0.318108 0.509091 -0.728124
-0.040038 0.493204 0.274810
0.643310 -0.200615 -0.371173
-0.734561 -0.518525 -0.020776
-0.738763 0.170521 0.649184
-0.734218 -0.178180 0.300521
0.656021 0.144749 -0.740169
0.658095 0.505423 0.312713
0.657002 0.505586 0.311173
0.645390 -0.200707 -0.372130
-0.034974 0.147445 -0.701649
0.657398 0.146214 -0.741146
-0.388229 -0.177819 -0.724886
-0.732845 -0.177427 0.301236
-0.046328 -0.517866 -0.721348
-0.726472 0.167908 -0.020100
-0.046822 0.500255 -0.382881
-0.731589 -0.520291 -0.022321
-0.018354 0.175563 0.676884
0.643619 -0.191308 0.295273
-0.016351 0.175420 0.676546
0.655538 0.491228 -0.372934
-0.040036 0.492723 0.274904
-0.040247 -0.521184 0.640004
-0.348136 0.492870 0.649829
-0.386782 -0.178337 -0.725559
-0.040566 0.491672 0.276091
0.642078 -0.190389 0.295700
-0.055706 -0.500863 -0.040169
-0.732468 -0.521045 -0.024037
-0.396624 -0.519314 0.307705
0.314173 -0.201316 -0.762228
0.644002 -0.201717 -0.370151
-0.736631 -0.179948 -0.382382
0.308089 0.487411 -0.043501
-0.733146 -0.520589 -0.021560
0.646044 -0.199279 -0.370238
0.642481 -0.190304 0.296229
0.659327 0.146549 0.652462
-0.048157 0.499176 -0.383559
0.660268 0.144358 0.652418
0.656482 0.146183 -0.740219
-0.734062 -0.177627 0.303113
0.298353 -0.544100 -0.372367
0.654572 0.150970 -0.050035
0.656570 0.504385 0.311159
-0.016866 0.172173 0.677290
-0.032416 0.149005 -0.702854
0.660833 0.145715 0.651083
-0.348658 0.495277 0.651439
-0.395231 -0.520052 0.306590
0.340802 0.494510 0.644088
0.655118 0.145223 -0.741951
-0.739250 -0.181164 -0.383451
-0.738056 0.169523 0.651644
-0.017975 0.173804 0.678812
0.660152 0.144797 0.650059
-0.053903 -0.501576 -0.043822
-0.386729 0.503856 -0.062353
0.657093 0.506005 0.310872
-0.725402 0.164715 -0.020579
0.644848 -0.200342 -0.369740
-0.725329 0.165681 -0.018707
-0.733245 -0.176937 0.301470
0.656779 -0.558646 -0.044845
-0.053703 -0.500968 -0.041485
-0.395791 -0.518140 0.307355
-0.732478 -0.520951 -0.023177
0.645977 -0.202056 -0.373087
-0.739014 0.171946 0.650905
0.298006 -0.541618 -0.374032
0.340963 0.493521 0.642799
-0.738301 -0.182732 -0.381755
0.655370 0.143848 -0.740628
-0.039144 0.491395 0.274386
0.654645 0.144853 -0.742877
-0.720028 0.494706 0.316078
0.645070 -0.200256 -0.372459
-0.395162 -0.519466 0.304612
-0.055774 -0.501978 -0.041628
0.314801 -0.201529 -0.762803
0.654646 0.492619 -0.371129
-0.040575 0.491241 0.274441
-0.017915 0.175667 0.679593
0.341016 0.493991 0.642096
0.314200 -0.201225 -0.762811
-0.388730 -0.176808 -0.724070
0.660302 0.145763 0.652431
0.656213 0.152888 -0.048213
-0.038485 0.490507 0.275841
0.656636 0.503988 0.311762
0.654405 0.151542 -0.048192
-0.739374 -0.181715 -0.382944
-0.738703 0.169780 0.651004
0.342188 0.493803 0.642835
-0.040922 0.490550 0.273858
0.289406 -0.516628 0.301042
-0.348238 0.492124 0.649452
-0.387683 -0.177481 -0.723837
0.654452 0.144079 -0.740451
0.342543 0.492588 0.643711
-0.734298 -0.519991 -0.021561
-0.719169 0.493833 0.315164
0.654783 0.152136 -0.049899
-0.733527 -0.179258 0.302888
-0.737413 -0.182861 -0.383797
-0.738149 -0.180919 -0.382661
0.289543 -0.515019 0.299553
-0.385859 0.505921 -0.061277
-0.407446 -0.547183 -0.397844
-0.048515 0.497167 -0.383265
-0.736498 -0.180727 -0.381148
-0.733757 -0.179379 0.303050
-0.388578 -0.178557 -0.724149
0.642373 -0.189553 0.294417
-0.736971 -0.180540 -0.381371
0.303338 -0.193872 0.668218
0.302800 -0.194050 0.668816
-0.394642 -0.174436 0.628878
-0.394235 -0.518273 0.306550
-0.386018 0.505785 -0.062495
-0.046453 0.499472 -0.383537
-0.733850 -0.177624 0.302486
-0.734180 -0.520117 -0.023274
-0.046893 0.498773 -0.383282
-0.733587 -0.520230 -0.022654
0.643191 -0.191848 0.293737
-0.411203 0.162835 -0.376062
-0.732416 -0.520268 -0.022611
0.645677 -0.202207 -0.372549
0.659848 0.146154 0.650675
0.655656 0.153012 -0.048331
-0.046654 0.498810 -0.384630
0.289453 -0.514345 0.299563
-0.033826 0.146621 -0.701877
0.341433 0.493364 0.642748
-0.738765 -0.182005 -0.382802
-0.396188 -0.174555 0.629324
-0.387381 0.503755 -0.060006
-0.735127 -0.180733 -0.382228
0.655991 -0.558264 -0.046860
-0.055109 -0.500749 -0.042611
0.656774 0.504532 0.311541
-0.395576 -0.517663 0.304448
-0.394674 -0.518597 0.306913
-0.390338 -0.178555 -0.722773
