OFF
256 0 0
-0.048641 -0.533635 -0.052913
0.295787 -0.532172 -0.363781
-0.735698 -0.527462 -0.035838
-0.029323 0.484145 -0.371628
0.307070 0.490896 0.623399
0.647299 -0.168753 0.305781
-0.372522 0.501051 -0.041821
-0.030334 -0.532087 -0.724703
-0.721788 -0.182081 0.295505
0.660531 -0.170407 -0.387786
0.628671 0.487956 -0.355811
0.295889 -0.532820 -0.362655
0.629084 0.487062 -0.356574
-0.383643 -0.187021 0.650748
0.296330 -0.532126 -0.361349
0.275890 -0.192181 0.631798
-0.030928 -0.532058 -0.724487
-0.385077 0.507563 0.645911
-0.738486 -0.526448 -0.038088
-0.021199 0.147983 -0.721607
-0.055732 0.138390 0.632285
0.649517 0.151924 0.623831
-0.720734 -0.182064 0.294419
0.299952 0.485893 -0.001893
0.642344 0.181248 -0.743266
0.656470 0.516126 0.312596
0.320480 -0.176941 -0.723640
-0.397228 -0.186620 -0.742752
0.647365 -0.515593 -0.035824
-0.374153 0.500602 -0.040249
-0.737538 -0.526222 -0.035273
0.317809 0.517432 -0.719110
0.306847 0.491590 0.623128
-0.396992 -0.188725 -0.743146
0.301673 0.487605 -0.000446
0.646338 0.153642 0.624298
-0.030828 -0.532388 -0.723598
-0.059282 0.137533 0.630300
-0.032784 -0.521492 0.639247
-0.042607 0.491871 0.292547
-0.030402 0.480409 -0.373832
-0.371100 0.138153 -0.357350
-0.735925 -0.527879 -0.034620
-0.370322 0.138372 -0.356135
-0.736420 -0.527597 -0.036872
0.628139 0.490227 -0.357128
0.652272 0.140097 -0.036337
-0.702331 0.504147 0.307297
-0.397154 -0.189691 -0.742727
-0.397950 -0.187580 -0.743704
-0.408248 -0.538025 -0.400573
0.316601 0.518129 -0.716940
0.647863 0.152417 0.622761
0.299824 -0.524886 0.298011
-0.720680 -0.181480 0.294211
-0.369702 0.137171 -0.356909
0.630172 0.487145 -0.356897
0.648900 0.152294 0.626660
0.644239 0.181772 -0.743117
0.278150 -0.194737 0.631923
-0.032111 -0.520208 0.638073
-0.050249 -0.532711 -0.053778
-0.031998 -0.520722 0.638409
-0.030516 -0.531244 -0.726995
0.647487 0.152769 0.625908
-0.379273 -0.527390 0.338290
0.628152 0.487354 -0.356215
0.649880 0.138753 -0.036199
0.305690 0.489003 0.624685
0.660344 -0.169151 -0.388844
0.646117 0.181113 -0.742912
-0.020377 0.149595 -0.723027
0.295762 -0.533244 -0.361821
0.646500 -0.169441 0.308483
-0.701179 0.503298 0.307772
0.278775 -0.190502 0.629494
0.317236 0.518603 -0.719806
-0.022975 0.149098 -0.723450
0.300621 0.484663 -0.000423
-0.044157 0.492578 0.289279
-0.371252 0.137266 -0.358286
-0.374363 0.500501 -0.040914
-0.373963 0.500606 -0.041579
-0.375395 0.500053 -0.040273
0.296475 -0.533281 -0.361802
0.650882 0.139377 -0.035429
0.321924 -0.176989 -0.725436
0.646842 -0.168743 0.307662
-0.720025 -0.182978 0.295752
-0.033104 -0.520831 0.638281
-0.725035 0.161266 -0.042213
-0.030129 -0.531801 -0.723759
-0.372835 0.139029 -0.357103
0.649122 0.155110 0.625497
-0.046850 -0.533573 -0.054010
-0.410146 -0.536155 -0.401770
-0.047628 -0.536200 -0.053708
-0.049699 -0.532373 -0.054327
0.643219 0.181388 -0.743383
0.322045 -0.175777 -0.724494
-0.020105 0.147253 -0.721243
-0.387556 0.506435 0.643660
0.660827 -0.171818 -0.388291
-0.408777 -0.538442 -0.402649
-0.384040 -0.186210 0.651142
-0.719373 -0.183101 0.294473
0.300949 -0.524471 0.296856
0.307382 0.492044 0.624813
0.647933 -0.515530 -0.034522
0.660298 -0.169416 -0.389112
0.300721 0.485567 -0.002880
0.647864 -0.516358 -0.034744
-0.411359 -0.536988 -0.402533
0.321857 -0.176851 -0.724233
-0.031631 -0.520865 0.638057
0.647202 -0.169689 0.305662
-0.383074 -0.186340 0.651842
-0.740311 0.159661 0.640301
0.295531 -0.532928 -0.363498
-0.395767 -0.190219 -0.743132
0.647117 -0.169156 0.306848
-0.382575 -0.188581 0.650488
0.298987 0.486541 -0.002081
-0.721641 -0.183038 -0.377354
-0.044270 0.493152 0.290249
0.647570 0.153124 0.627265
0.630490 0.486159 -0.356288
-0.739451 0.157868 0.637919
0.648152 -0.514862 -0.035079
-0.055643 0.138052 0.632326
0.296583 -0.533422 -0.362253
0.660341 -0.168145 -0.388681
-0.057821 0.139624 0.633930
0.277256 -0.192281 0.630743
0.660688 -0.170001 -0.388498
0.278206 -0.191468 0.630967
-0.720257 -0.185253 -0.375923
-0.373244 0.498333 -0.042125
0.655131 0.513424 0.313948
0.631509 0.488382 -0.358350
0.652644 0.140841 -0.035100
-0.371648 0.499680 -0.040761
-0.384021 -0.184019 0.651046
-0.702120 0.506282 0.307248
-0.725423 0.158853 -0.041843
0.277638 -0.191121 0.632146
0.655797 0.513095 0.314162
0.278809 -0.194274 0.631295
0.277313 -0.192471 0.631857
-0.721053 -0.181089 0.292307
-0.725525 0.161244 -0.042091
-0.719805 -0.184185 0.294396
-0.741169 0.160017 0.639262
-0.736469 -0.527484 -0.035739
0.651744 0.138976 -0.033599
0.277680 -0.192169 0.632854
-0.371845 0.137735 -0.358046
-0.407384 -0.536854 -0.402149
-0.057514 0.139289 0.630916
-0.372993 0.500322 -0.042288
-0.050039 -0.532032 -0.054630
0.646615 -0.169657 0.307414
-0.383930 -0.187822 0.652940
-0.396410 -0.188463 -0.744279
-0.028620 0.482691 -0.372206
-0.042844 0.492664 0.290253
0.643122 0.180252 -0.743310
0.306040 0.490996 0.622736
0.651842 0.141558 -0.036434
0.656645 0.513926 0.313532
-0.373958 0.501221 -0.040939
-0.056619 0.138298 0.632676
-0.719079 -0.182150 0.295805
-0.735539 -0.525165 -0.036597
-0.726665 0.161424 -0.042128
0.295448 -0.533769 -0.363111
-0.031942 -0.531579 -0.725065
-0.030436 -0.530729 -0.727164
-0.385378 0.505058 0.644627
-0.022928 0.147805 -0.720963
-0.701883 0.504675 0.308024
-0.030665 -0.530724 -0.726889
0.306615 0.492086 0.624496
-0.032459 -0.520196 0.641638
-0.369993 0.137092 -0.358560
-0.397157 -0.189167 -0.743403
-0.030869 0.482507 -0.374055
-0.373708 0.500831 -0.042298
-0.724848 0.160929 -0.042872
0.294868 -0.532331 -0.362453
-0.370960 0.137316 -0.356949
0.657118 0.516804 0.313893
-0.046019 -0.534416 -0.053945
0.644798 0.181051 -0.744004
-0.381545 -0.529758 0.341050
-0.383370 -0.187763 0.652595
-0.057323 0.136385 0.631088
-0.382272 -0.184987 0.650914
-0.030728 -0.530713 -0.726634
-0.719088 -0.183938 -0.378055
0.651092 0.142368 -0.034323
0.301467 0.485228 -0.001579
-0.030196 -0.520153 0.638565
0.302375 0.486368 -0.001722
0.295613 -0.532936 -0.362658
-0.044415 0.491701 0.288962
0.294793 -0.532967 -0.364232
-0.047155 0.492640 0.289991
-0.382143 -0.186166 0.651043
0.645789 0.152894 0.623925
0.657438 0.514230 0.312538
0.629565 0.490331 -0.357691
0.306123 0.491348 0.625502
-0.736497 -0.526243 -0.035090
-0.725269 0.160352 -0.039800
-0.030765 -0.531759 -0.724249
0.659900 -0.169153 -0.387138
-0.719132 -0.182169 -0.375551
0.320960 -0.176122 -0.726346
-0.387876 0.506122 0.643688
0.319998 -0.175954 -0.724238
-0.739999 0.158768 0.639606
-0.383875 -0.185401 0.652214
0.647440 0.152925 0.625637
0.319213 0.516810 -0.716815
-0.719648 -0.182984 -0.377261
-0.380508 -0.527315 0.339231
-0.396728 -0.187373 -0.745125
0.652859 0.138639 -0.035137
-0.720787 -0.183076 0.293867
-0.718229 -0.182381 -0.377074
0.295059 -0.533874 -0.361137
-0.057434 0.139021 0.632487
-0.029852 0.484901 -0.373392
0.308445 0.491069 0.623691
-0.043929 0.491050 0.291827
0.277445 -0.193314 0.632318
-0.383292 -0.186006 0.652889
0.316311 0.518593 -0.718964
0.644602 0.181123 -0.743225
0.317769 0.518296 -0.718232
-0.385142 -0.186372 0.652302
-0.382407 -0.187265 0.651630
0.299870 0.487236 -0.001795
-0.380083 -0.527515 0.339470
-0.396205 -0.189378 -0.744396
-0.701823 0.504937 0.307181
-0.043209 0.494013 0.289884
0.300275 0.485373 -0.000881
-0.032551 -0.531023 -0.723798
-0.739258 0.159797 0.639255
-0.032981 -0.519517 0.640205
-0.726399 0.159980 -0.042967
0.279055 -0.192186 0.630254
0.295794 -0.531533 -0.363068
-0.740749 0.157418 0.639107
