OFF
256 0 0
-0.399704 -0.088110 0.700961
-0.409037 -0.079287 -0.686846
0.603992 -0.065181 0.333226
-0.062204 0.266785 -0.682461
0.613875 0.284486 0.002519
-0.431983 -0.409403 -0.341765
0.281141 -0.424829 -0.351679
-0.083956 0.611744 -0.345386
-0.412922 0.255995 0.347519
0.264329 0.624386 -0.718155
-0.054770 -0.764843 0.321930
-0.762413 0.264757 -0.002304
-0.402553 0.607224 0.017412
0.229945 -0.395679 0.324365
-0.073043 -0.753595 -0.354716
-0.400838 -0.086675 0.702494
0.296344 0.621052 0.727422
0.263276 0.623366 -0.718511
-0.057941 -0.765554 0.322789
0.230903 -0.397310 0.321080
0.271425 -0.082801 -0.708880
0.281285 -0.422991 -0.350656
0.231053 -0.395381 0.322373
0.272255 -0.081395 -0.706569
0.280174 -0.081097 0.698473
0.605236 -0.424332 0.017549
0.581670 0.580079 -0.358793
0.266784 -0.798527 -0.010642
0.281170 -0.080670 0.698828
0.627046 0.267719 0.704840
-0.408901 -0.078853 -0.685381
0.607304 -0.424104 0.019029
-0.426058 -0.433951 0.359315
0.281102 -0.424344 -0.352255
0.270768 -0.081265 -0.706482
-0.061626 0.266322 -0.682455
-0.789501 -0.061940 -0.350165
-0.407936 -0.077470 -0.685334
0.583502 -0.059480 -0.331202
-0.061111 0.275514 0.700646
0.583521 -0.059602 -0.331629
-0.408510 -0.078293 -0.685081
-0.394101 0.247070 -0.305820
-0.068654 -0.422309 0.677055
-0.762252 0.264340 -0.001861
0.613000 0.278247 -0.713500
-0.056677 -0.764048 0.322784
-0.808172 -0.414617 -0.005693
-0.082509 0.610774 -0.343422
-0.408224 -0.078569 -0.684723
0.281275 -0.082053 0.697025
-0.806677 -0.413325 -0.006294
-0.058514 -0.763814 0.323091
-0.410331 -0.077957 -0.685171
0.280684 -0.425436 -0.351934
0.271560 -0.080659 -0.708944
-0.420824 -0.763108 -0.019682
0.280862 -0.080856 0.699106
0.270049 -0.799684 -0.008671
-0.805851 -0.415269 -0.005645
-0.763014 0.265469 0.000295
0.271888 -0.079438 -0.709191
0.269302 -0.799343 -0.009211
0.268359 -0.796764 -0.010840
-0.082235 0.610855 -0.344901
-0.073193 -0.751314 -0.354864
-0.059624 -0.426667 -0.702792
-0.067683 -0.422040 0.675282
-0.427131 -0.433897 0.357564
0.272049 -0.080453 -0.705956
0.264114 0.621275 -0.718597
-0.069479 -0.423190 0.676588
-0.073940 -0.752603 -0.355980
-0.083546 0.612091 -0.345944
-0.427289 -0.434014 0.359109
0.271896 -0.080967 -0.705374
-0.412982 0.254155 0.348593
-0.431281 -0.409503 -0.341375
-0.423085 -0.763342 -0.019894
0.627587 0.265397 0.705561
-0.807181 -0.412185 -0.004948
0.615382 0.285047 0.001473
-0.431804 -0.409303 -0.340628
0.269284 -0.798441 -0.009526
-0.060828 -0.426275 -0.705848
0.604619 -0.425041 0.018506
-0.057188 -0.765387 0.323181
-0.808166 -0.412525 -0.005992
0.298273 0.621780 0.726805
0.264610 0.622574 -0.720300
0.269124 -0.798042 -0.011186
-0.074706 -0.753460 -0.354855
0.228964 -0.395966 0.321140
0.295098 0.621036 0.725479
0.614332 0.283419 -0.000234
0.271157 -0.799339 -0.007488
0.605256 -0.065705 0.333244
-0.413189 0.253211 0.346020
0.271450 -0.080253 -0.708899
0.603577 -0.426370 0.018055
-0.074312 -0.752994 -0.356082
-0.425829 -0.434031 0.360660
0.296801 0.620343 0.726042
-0.756430 -0.068766 0.356340
-0.432499 -0.408630 -0.341582
-0.075248 -0.753432 -0.353051
0.613424 0.284056 0.000485
-0.427517 -0.432959 0.358175
-0.056389 -0.764153 0.323258
-0.406807 -0.078673 -0.685211
-0.393648 0.247795 -0.305889
0.605234 -0.064242 0.334457
0.585725 -0.060392 -0.333098
-0.060227 0.276447 0.703692
0.583028 -0.061768 -0.329627
0.271308 -0.080061 -0.711620
0.269820 -0.799973 -0.009572
-0.401802 0.605599 0.015889
-0.068066 -0.422960 0.674877
0.628222 0.266882 0.705251
0.615639 0.285844 0.000756
-0.410917 0.253819 0.345658
0.594482 0.603201 0.344188
-0.059522 0.276731 0.702522
-0.410509 0.253495 0.346271
-0.422266 -0.765229 -0.021734
-0.059365 0.265477 -0.680477
0.273022 -0.080081 -0.709731
0.264816 0.619621 -0.719964
-0.060450 -0.426652 -0.705313
-0.421012 -0.762553 -0.020620
-0.071313 -0.420934 0.675994
-0.427585 -0.434291 0.358853
0.614271 0.284649 0.000810
-0.401074 -0.087442 0.703737
-0.758747 -0.069081 0.356792
0.233745 0.616719 -0.003569
-0.061660 0.277314 0.701440
-0.067413 0.613211 0.365521
0.582264 0.579832 -0.358438
0.279856 -0.424244 -0.351047
-0.395058 0.247095 -0.305295
-0.413861 0.255114 0.346542
0.605523 -0.062683 0.333326
-0.403715 0.606456 0.015953
-0.057583 -0.764755 0.323845
-0.061247 -0.426880 -0.703902
-0.401679 -0.086538 0.704009
0.592931 0.604135 0.343752
-0.394772 0.247311 -0.305772
-0.060878 0.265487 -0.681095
-0.069776 -0.422051 0.674114
-0.756722 -0.067599 0.355111
0.233333 0.619516 -0.003166
-0.057184 -0.764866 0.323873
-0.807030 -0.412907 -0.005988
-0.407306 -0.079090 -0.686331
-0.807112 -0.413340 -0.006384
-0.410584 0.253120 0.348791
0.295484 0.618650 0.724730
0.297850 0.620043 0.724856
0.279211 -0.423558 -0.353378
-0.408911 -0.078421 -0.684987
-0.074512 -0.752585 -0.354409
0.603980 -0.424282 0.017721
-0.755943 -0.067053 0.356344
-0.393926 0.247061 -0.304580
-0.061581 0.266105 -0.680715
0.267945 -0.799709 -0.010709
-0.411206 0.253363 0.346253
0.267961 -0.798472 -0.008894
-0.083500 0.612642 -0.345552
0.584423 -0.058397 -0.328320
-0.421552 -0.763387 -0.022201
-0.082692 0.612224 -0.344631
0.605253 -0.064838 0.334332
0.592632 0.605363 0.344279
0.605983 -0.065014 0.332897
0.279122 -0.082154 0.697714
0.614175 0.285021 0.001308
0.605853 -0.425000 0.019909
-0.061008 0.265951 -0.682212
0.280047 -0.081675 0.697200
-0.082530 0.610895 -0.346212
-0.065387 0.610994 0.364693
0.268434 -0.798445 -0.009102
0.615024 0.282054 -0.000029
0.604047 -0.424567 0.019776
-0.072848 -0.752818 -0.354085
-0.074899 -0.753518 -0.355014
-0.061265 0.265335 -0.680811
-0.063126 0.276492 0.701807
-0.061007 0.265474 -0.679595
0.605435 -0.063533 0.331603
0.603618 -0.423148 0.019287
-0.420122 -0.763551 -0.022485
0.583010 0.583294 -0.359184
0.230899 -0.396399 0.323332
-0.808119 -0.413083 -0.005397
0.265728 -0.799328 -0.009211
-0.068795 -0.420953 0.677001
-0.393530 0.247612 -0.305667
0.267535 -0.800838 -0.009630
0.271763 -0.079104 -0.708053
-0.395135 0.248207 -0.305745
0.584730 -0.059308 -0.330317
0.585452 -0.060205 -0.330795
-0.058407 -0.764115 0.322561
-0.760291 0.264825 -0.002122
0.231480 -0.397736 0.322973
-0.408737 -0.078191 -0.685137
-0.412911 0.252874 0.347736
-0.401757 -0.086713 0.703506
0.264994 0.622449 -0.716905
0.233562 0.618024 -0.001726
0.279884 -0.421758 -0.351420
-0.413913 0.255066 0.346773
0.604522 -0.064252 0.332745
0.266816 0.621885 -0.717343
-0.060680 0.276218 0.703335
0.268335 -0.798740 -0.009878
-0.763635 0.263440 -0.003046
0.269104 -0.798991 -0.009142
-0.393441 0.248439 -0.305474
-0.788401 -0.061248 -0.350270
-0.787599 -0.061781 -0.353332
0.234265 0.618185 -0.002161
0.294659 0.621545 0.726777
0.626643 0.264869 0.705947
-0.068347 0.613675 0.364350
-0.401376 0.605090 0.015871
0.281081 -0.425571 -0.352366
-0.428535 -0.435221 0.358799
0.271068 -0.082768 -0.708771
-0.763369 0.265227 -0.002253
-0.065965 0.609185 0.364575
0.266813 0.623254 -0.716366
0.280909 -0.081798 0.697535
0.584001 -0.058225 -0.330777
-0.429781 -0.409896 -0.341206
0.269412 -0.796795 -0.008698
0.267836 -0.798846 -0.008303
0.591315 0.605426 0.343823
0.296893 0.620779 0.724363
0.603786 -0.425759 0.019078
-0.402032 0.607283 0.017928
0.277641 -0.082856 0.697412
-0.067479 0.610302 0.361875
-0.403070 0.607317 0.015977
0.628638 0.267216 0.707153
-0.084682 0.611179 -0.346269
0.297884 0.621139 0.725556
0.295765 0.620140 0.727553
-0.061908 0.265612 -0.680424
-0.075926 -0.751690 -0.356189
-0.401082 0.605097 0.016774
