OFF
256 0 0
-0.082308 0.622415 0.336681
-0.413014 -0.401094 0.315258
0.260384 -0.448774 -0.338682
-0.793043 -0.427143 0.002906
-0.096906 -0.791155 -0.356969
-0.082832 0.267298 -0.712540
-0.429050 0.250206 -0.329094
-0.428705 0.250033 -0.327516
0.274645 0.602255 -0.694424
-0.078252 0.280115 0.714558
-0.436747 -0.780244 0.018549
0.623775 0.647273 0.335976
-0.070896 -0.752614 0.347578
-0.432627 0.638087 -0.006394
0.284590 0.626944 -0.017396
0.281328 0.634441 0.688787
-0.797965 0.273345 -0.024072
0.629375 0.259712 -0.017969
-0.457932 -0.089064 -0.693333
0.273915 0.601903 -0.695939
0.281673 0.635584 0.691532
0.285626 0.626517 -0.019341
-0.436176 -0.780676 0.017338
-0.069252 -0.752634 0.346697
0.642581 0.622770 -0.359278
0.285347 -0.057007 0.723847
-0.080102 -0.450758 -0.709749
-0.432988 0.638520 -0.007866
0.284789 -0.055819 0.724905
-0.081519 -0.451241 -0.709320
-0.413201 -0.402241 0.317796
0.284392 0.628047 -0.017825
-0.418371 0.275283 0.340531
-0.080995 0.623755 0.335423
-0.079316 0.621724 0.335042
-0.437912 -0.780043 0.018710
-0.081272 0.624191 0.337606
-0.420133 -0.448260 -0.317067
0.278515 -0.093981 -0.705895
0.260988 -0.448733 -0.339468
-0.099958 -0.413170 0.704249
-0.077013 0.280926 0.713722
-0.064118 0.599916 -0.362477
-0.079549 0.267141 -0.711384
-0.793924 -0.428702 0.003186
-0.081527 -0.451957 -0.710279
0.622532 -0.412750 0.016468
0.623218 -0.412624 0.017511
-0.062957 0.600691 -0.363279
-0.792886 -0.426076 0.004253
0.262132 -0.434150 0.374950
-0.794845 -0.096675 -0.353093
-0.768318 -0.070176 0.355827
0.623835 -0.411509 0.018101
-0.425811 0.252389 -0.328451
0.279122 -0.784739 0.000961
0.632567 0.260345 -0.017786
0.631323 0.261030 -0.017348
0.274540 0.600368 -0.693066
0.584976 -0.059006 0.349524
-0.797854 0.270934 -0.024666
-0.079474 0.623225 0.336627
0.637212 -0.071312 -0.339658
0.636335 -0.068891 -0.339065
-0.070184 -0.754327 0.345051
-0.768068 -0.071483 0.354418
0.281297 -0.096495 -0.703563
0.284739 0.625847 -0.017240
0.279911 -0.784232 0.000006
0.275767 0.603026 -0.693439
-0.769862 -0.071829 0.354164
-0.458004 -0.088342 -0.693788
-0.075454 0.284188 0.715329
0.281990 0.633708 0.689911
0.630382 0.263318 -0.016602
0.279965 -0.096965 -0.706444
-0.080632 -0.450637 -0.709726
-0.427749 -0.054787 0.710416
-0.456511 -0.090856 -0.694011
0.260616 -0.447293 -0.338143
0.641903 0.624104 -0.357588
-0.457356 -0.090456 -0.694387
-0.080024 0.624190 0.337360
-0.098483 -0.789879 -0.358649
0.284150 -0.055470 0.724163
0.622879 -0.411517 0.017408
-0.100603 -0.790074 -0.356754
0.278533 -0.093961 -0.704026
0.641934 0.625523 -0.358084
-0.416408 0.275639 0.341517
0.640118 0.295913 0.710076
0.274075 0.603325 -0.694158
0.623332 0.645016 0.333141
-0.427626 -0.055855 0.711666
0.622167 -0.410554 0.017928
0.650763 0.241248 -0.712893
0.274116 0.603447 -0.692620
-0.436434 -0.781078 0.016159
-0.099488 -0.790728 -0.356873
0.280635 -0.095910 -0.704906
-0.078871 0.622361 0.336851
0.261090 -0.447804 -0.337555
0.635290 -0.072658 -0.338707
0.261687 -0.436174 0.376058
-0.419793 -0.447230 -0.317343
-0.433860 0.639450 -0.008526
0.260770 -0.437795 0.375170
-0.098024 -0.411974 0.703072
-0.080051 0.624451 0.336866
0.281250 -0.095631 -0.704297
-0.080042 0.623855 0.336485
0.285984 0.626769 -0.018260
-0.079037 0.621449 0.337873
0.285803 0.627219 -0.018391
-0.433132 0.635719 -0.008230
-0.410646 -0.401516 0.316640
-0.417020 0.275259 0.342398
-0.437522 -0.779863 0.017013
-0.456033 -0.089260 -0.693453
-0.098211 -0.790368 -0.357532
0.636123 -0.071394 -0.339550
-0.427291 0.252171 -0.330537
-0.076465 0.283560 0.712785
0.285161 0.628729 -0.018439
-0.427522 -0.056257 0.711542
-0.793742 -0.426480 0.003081
-0.083062 -0.451237 -0.708749
-0.080213 0.266601 -0.714537
-0.434627 0.637014 -0.008062
-0.420055 -0.447781 -0.318183
-0.098961 -0.414320 0.704106
-0.076648 0.282509 0.715410
0.261236 -0.447552 -0.339084
0.639893 0.294535 0.710007
-0.455705 -0.088761 -0.694628
-0.768285 -0.071415 0.355010
-0.069493 -0.755729 0.345654
0.629753 0.262737 -0.019136
0.285953 0.628539 -0.018795
0.281566 -0.095240 -0.705939
-0.420475 -0.445038 -0.318411
0.281301 0.632340 0.692912
0.631629 0.261950 -0.019477
-0.079768 -0.451102 -0.708895
0.622319 -0.409932 0.017590
0.279340 -0.783912 0.003072
0.280591 -0.096069 -0.704575
0.642157 0.295654 0.709838
0.643291 0.624938 -0.357824
0.274516 0.603020 -0.694432
0.285975 0.626998 -0.018022
0.281110 -0.095082 -0.701806
-0.413365 -0.403216 0.318045
0.628644 0.262317 -0.016152
-0.077925 0.282844 0.713729
-0.427524 -0.056515 0.709505
-0.420224 0.275379 0.342371
0.624970 0.646768 0.333954
0.279420 -0.097799 -0.704724
0.650928 0.242112 -0.711872
0.640998 0.622938 -0.358155
-0.099694 -0.412625 0.705035
0.623418 0.648803 0.335735
0.587836 -0.057362 0.349016
0.280653 -0.786981 0.000860
0.262826 -0.448479 -0.338962
0.281258 0.631813 0.691437
-0.080339 0.268171 -0.710733
0.622020 -0.412108 0.017932
-0.433805 0.637741 -0.008351
-0.077425 0.283736 0.714379
-0.427991 0.250772 -0.328093
0.274080 0.602591 -0.692189
-0.767964 -0.072311 0.355122
0.261420 -0.446788 -0.339939
-0.420712 -0.447281 -0.320634
-0.070898 -0.752963 0.346055
-0.097024 -0.413701 0.703382
-0.079885 0.266822 -0.711937
0.285161 -0.056091 0.723758
-0.421186 -0.447152 -0.317434
0.624856 0.646119 0.334740
-0.437503 -0.780177 0.016424
-0.767010 -0.070724 0.353946
-0.070196 -0.751732 0.345858
0.280909 -0.096505 -0.704210
0.279644 -0.095688 -0.705730
-0.081426 0.268908 -0.711418
0.280473 0.633927 0.691199
0.274134 0.605220 -0.693275
-0.081422 0.267020 -0.713149
0.642780 0.625203 -0.358752
-0.456219 -0.090821 -0.692041
-0.428063 -0.054824 0.710437
-0.798867 0.269663 -0.026077
0.630023 0.262400 -0.016427
-0.078906 0.266112 -0.711001
-0.427997 -0.055643 0.711600
-0.432991 0.637752 -0.007398
-0.769673 -0.071513 0.354663
-0.068690 -0.753352 0.344869
-0.427976 0.252385 -0.329995
-0.097446 -0.414779 0.703467
-0.080827 0.268169 -0.712672
-0.076371 0.282914 0.713151
0.259350 -0.446196 -0.340048
0.286244 0.627053 -0.016128
0.275225 0.603517 -0.693029
-0.793264 -0.426828 0.002449
0.280144 -0.783395 0.000094
-0.796112 0.272044 -0.025892
0.279171 -0.784468 0.000096
-0.420669 -0.447924 -0.319880
-0.077046 0.281766 0.713479
-0.098989 -0.415614 0.704574
0.651623 0.241655 -0.712165
0.623099 -0.411666 0.017081
0.260719 -0.434385 0.376361
-0.435392 -0.780684 0.016672
-0.768647 -0.072250 0.354033
-0.069291 -0.754796 0.347126
-0.427208 0.250702 -0.327121
-0.069581 -0.752479 0.349021
-0.428386 0.251819 -0.327790
0.274300 0.602455 -0.693662
0.284402 -0.055088 0.726953
-0.076672 0.282080 0.715966
-0.068476 -0.752565 0.345103
-0.428507 -0.055808 0.711084
-0.766275 -0.070530 0.355904
-0.415570 0.275663 0.341339
-0.420433 -0.447476 -0.319021
-0.076324 0.281372 0.715345
-0.795652 -0.096288 -0.353225
-0.064448 0.598015 -0.361678
0.651283 0.241737 -0.713332
-0.417079 0.275321 0.341022
-0.416837 0.275085 0.342194
0.261295 -0.434606 0.375697
-0.418574 -0.447002 -0.318261
-0.428416 -0.055539 0.710390
0.631235 0.262360 -0.017529
0.638093 -0.071732 -0.338478
0.636867 -0.071200 -0.337632
-0.083826 -0.451310 -0.708206
-0.080832 -0.450608 -0.709126
0.278169 -0.785933 0.000803
0.625243 0.648102 0.335105
-0.436805 -0.779091 0.016187
-0.434792 0.635212 -0.008574
-0.430067 0.251888 -0.328732
-0.070141 -0.754076 0.346760
-0.075989 0.283226 0.713712
-0.069634 -0.752553 0.347394
-0.098567 -0.412649 0.703522
-0.428607 0.251161 -0.326638
