OFF
256 0 0
0.278791 -0.083415 -0.730137
-0.074334 0.257706 -0.710210
0.263317 -0.435849 -0.364172
-0.079066 0.282992 0.717715
0.632163 0.288565 -0.713379
0.641320 -0.443713 -0.001043
-0.071432 -0.428060 -0.731606
-0.450515 -0.089650 0.729893
-0.074921 0.259022 -0.709618
0.283045 -0.069614 0.715019
-0.083421 0.592982 -0.339094
-0.085497 0.591859 -0.339821
-0.449663 -0.084162 0.727354
-0.813661 0.297276 0.007135
-0.091113 0.625909 0.354514
0.264737 -0.433359 -0.363053
0.280230 -0.791323 -0.013487
-0.394098 -0.402258 0.354206
-0.458464 0.282588 0.367567
-0.446403 -0.792346 0.016203
-0.816366 -0.456649 0.017940
-0.094795 -0.794494 -0.362629
0.659202 0.297120 -0.007785
0.276965 0.640535 -0.715207
-0.460446 0.281126 0.362894
0.655184 -0.068683 -0.365281
0.280898 -0.067416 0.715345
0.279342 0.640766 -0.713666
-0.814475 0.296494 0.005974
0.634771 0.289478 -0.715570
0.282373 -0.068994 0.713588
-0.395593 -0.402629 0.352460
0.279571 -0.788774 -0.016398
0.279869 -0.789124 -0.014936
0.267754 0.644750 0.707522
-0.070934 -0.426310 -0.730056
-0.815938 0.295939 0.007553
-0.799890 -0.101683 -0.349315
-0.805254 -0.091165 0.364207
0.281312 -0.068211 0.715311
0.649454 0.645561 -0.356661
0.273467 -0.407950 0.347553
-0.459186 0.282832 0.366557
-0.070365 -0.426880 -0.732175
-0.095275 -0.796054 -0.362562
0.639517 -0.076354 0.351898
-0.076208 0.259039 -0.709812
0.641135 -0.075832 0.352954
-0.087156 0.592124 -0.340624
0.266912 0.643470 0.706067
0.631361 0.289344 0.698262
0.631802 0.288645 -0.715942
0.641514 -0.441847 -0.002205
0.656527 -0.069631 -0.363485
-0.076778 -0.450211 0.727308
0.264395 -0.435992 -0.363873
-0.449945 -0.087233 0.730389
0.631450 0.290198 -0.713431
0.281414 -0.066137 0.715290
-0.094101 -0.797630 -0.362275
-0.093864 -0.796762 -0.361881
0.276332 0.624381 -0.008248
0.657490 0.661340 0.352985
0.266230 -0.434502 -0.366257
-0.076844 -0.450042 0.729755
-0.806431 -0.091048 0.362727
0.277490 0.642363 -0.714244
0.641250 -0.443236 0.000072
-0.446762 -0.792096 0.014861
-0.077743 -0.449298 0.728809
-0.088058 0.594515 -0.341724
-0.451685 -0.088286 0.728546
-0.089212 0.625969 0.353552
0.262786 -0.432865 -0.363039
-0.080882 0.284332 0.716025
0.632578 0.288462 -0.714953
0.274631 -0.409689 0.349604
0.632686 0.288790 -0.714421
-0.075833 -0.450201 0.726792
-0.459974 0.282430 0.364512
-0.069875 -0.427475 -0.734663
-0.433585 -0.425972 -0.359323
0.264411 0.646403 0.708998
0.275230 0.623660 -0.009383
-0.435537 0.249623 -0.326811
0.631513 0.288510 -0.713161
0.277078 0.624825 -0.010180
0.278956 -0.085010 -0.729080
-0.432805 -0.427436 -0.360228
0.631807 0.287896 -0.716432
0.631483 0.288526 0.698223
0.278957 -0.789492 -0.015429
0.659691 0.660720 0.353352
-0.450236 -0.088874 0.728494
0.639604 -0.076030 0.350983
0.649869 0.644358 -0.353613
-0.807632 -0.092142 0.361947
0.659406 0.661014 0.352978
-0.446315 -0.791649 0.015188
-0.066741 -0.798728 0.366335
0.656824 -0.070641 -0.361605
0.281124 -0.070043 0.713625
-0.071149 -0.427331 -0.731972
-0.459973 0.283592 0.364489
0.640900 -0.076400 0.351151
-0.814425 0.296624 0.007262
-0.394277 -0.402422 0.355539
-0.434530 0.620779 0.000478
-0.436222 -0.095463 -0.743177
0.659681 0.659881 0.354286
0.650105 0.644511 -0.355008
-0.075635 -0.449100 0.730584
-0.452275 -0.085425 0.729355
0.638748 -0.077411 0.354372
-0.449747 -0.087651 0.728323
-0.435731 0.250266 -0.326855
0.649072 0.643942 -0.356261
-0.076991 -0.449652 0.729563
-0.092479 0.626809 0.356711
0.274351 -0.408276 0.351236
0.278918 0.641982 -0.714473
-0.076562 -0.449849 0.728303
-0.459877 0.283149 0.364813
0.264692 0.646112 0.706813
0.656950 -0.069454 -0.363947
-0.460793 0.283451 0.366710
0.264386 -0.434514 -0.364192
0.656586 0.661242 0.351522
0.282164 -0.069431 0.714952
0.265190 -0.436205 -0.365193
0.656425 -0.070617 -0.362701
-0.070732 -0.424944 -0.731341
0.659259 0.660660 0.350817
-0.817232 -0.457123 0.018305
0.639206 -0.076332 0.349892
0.276291 -0.407599 0.349418
0.632804 0.286565 -0.715919
-0.094811 -0.794295 -0.362900
0.276373 0.625120 -0.009715
-0.435013 -0.095765 -0.742530
-0.814758 -0.457896 0.018048
0.265622 0.646324 0.706903
0.656797 0.661957 0.350383
-0.090868 0.628589 0.355747
0.265948 0.644493 0.706988
-0.434107 0.620327 0.002117
-0.813715 0.295184 0.005672
-0.077474 -0.449855 0.729909
-0.434681 -0.095590 -0.740137
-0.393818 -0.402899 0.355583
-0.434705 0.622260 0.001775
0.639556 -0.075569 0.349493
-0.816761 -0.457808 0.018456
-0.816554 -0.457532 0.018672
0.658414 0.659959 0.353296
-0.805929 -0.092755 0.365566
0.279708 -0.788433 -0.014396
0.657055 -0.068205 -0.364235
-0.392814 -0.400941 0.354340
0.641747 -0.444374 0.000263
-0.091648 0.626240 0.356430
-0.434911 0.619429 0.000334
-0.093377 -0.795631 -0.363349
-0.076974 0.258931 -0.708462
0.275872 0.642412 -0.716147
-0.432918 -0.426564 -0.360279
-0.815337 0.297225 0.007816
0.264722 -0.434374 -0.365375
-0.075224 -0.450584 0.729930
-0.094502 -0.795785 -0.363166
0.264606 -0.434608 -0.364013
0.280121 -0.789895 -0.016172
-0.801393 -0.100183 -0.347657
0.266230 0.644513 0.707745
-0.805231 -0.092421 0.364679
0.273795 -0.407010 0.351489
0.640624 -0.075707 0.350629
-0.071281 -0.427705 -0.730339
-0.803641 -0.102674 -0.350081
-0.090727 0.628787 0.357324
-0.076786 0.257570 -0.708891
-0.433239 0.622558 0.002425
0.275576 0.624697 -0.010772
0.277183 0.625239 -0.009053
0.632996 0.288470 -0.715859
0.278130 0.641714 -0.717621
-0.078899 0.283693 0.717601
0.277557 0.644830 -0.713752
0.633709 0.287826 0.700459
-0.805432 -0.092086 0.364911
-0.434136 0.621114 0.000663
-0.075133 0.256847 -0.708838
0.660155 0.299099 -0.007994
0.655037 -0.070169 -0.366505
-0.079468 0.282584 0.718533
0.277939 -0.086127 -0.729367
0.631450 0.287400 -0.715950
0.282108 -0.069683 0.714211
0.267146 0.645890 0.709181
-0.081712 0.283645 0.716698
0.657619 -0.068841 -0.364620
-0.802277 -0.101077 -0.349506
-0.807909 -0.090849 0.365896
0.278483 -0.086708 -0.730272
-0.434889 0.248609 -0.326148
0.276706 0.642572 -0.714465
-0.435247 0.249125 -0.324600
-0.459897 0.281883 0.365334
-0.076853 -0.448056 0.728286
-0.458256 0.283338 0.366145
0.276381 0.624907 -0.010049
0.275290 -0.408576 0.348596
-0.444822 -0.791787 0.014758
0.265724 -0.436205 -0.365499
0.648750 0.644556 -0.354167
0.639313 -0.075533 0.351516
-0.814434 0.297391 0.006050
0.655928 -0.071335 -0.364261
-0.089629 0.627955 0.356104
-0.432668 -0.428275 -0.359897
-0.457714 0.284714 0.366295
-0.090315 0.626650 0.356900
0.649059 0.644317 -0.355919
0.279052 -0.789728 -0.014285
-0.445980 -0.792018 0.014118
0.276961 0.642487 -0.713146
-0.394205 -0.403053 0.353149
0.264164 -0.437207 -0.365048
-0.816518 -0.457533 0.018605
-0.075749 -0.450748 0.729590
-0.458295 0.282480 0.366215
0.638673 -0.076313 0.352986
-0.394867 -0.402460 0.353547
-0.802626 -0.101717 -0.348750
-0.459821 0.281978 0.366399
-0.094082 -0.794815 -0.361058
0.633065 0.287802 -0.716490
0.277775 0.624294 -0.010695
0.630962 0.287187 0.700327
-0.437866 -0.096639 -0.742381
-0.443796 -0.793568 0.015160
-0.081358 0.282600 0.716297
0.649979 0.644124 -0.353739
0.640594 -0.443020 -0.001740
0.640340 -0.074510 0.351647
0.278584 -0.084785 -0.729324
0.276082 -0.409551 0.347710
-0.435726 0.622925 0.000460
-0.433577 -0.426702 -0.359832
0.652100 0.643872 -0.356358
-0.443870 -0.792063 0.015269
-0.071340 -0.427497 -0.731421
0.658132 0.660929 0.353270
0.263875 -0.435263 -0.363965
-0.434265 0.622515 0.002576
-0.074625 0.258850 -0.709867
