OFF
256 0 0
0.637758 0.297707 0.695608
-0.455397 -0.083339 -0.735313
0.292854 -0.061112 -0.707227
-0.063106 -0.801483 0.366077
-0.418781 -0.084565 0.715216
0.269731 -0.047427 0.692352
0.625811 -0.078315 0.344844
0.272285 -0.419994 0.351074
-0.093734 0.631330 -0.351254
-0.093515 0.631659 -0.352707
-0.089060 0.616104 0.359027
0.250277 -0.428942 -0.368829
0.296062 0.639667 0.708750
0.637816 0.300492 0.008529
-0.090324 0.615101 0.357952
-0.437139 0.632982 0.006888
0.638156 0.300652 0.009649
0.292461 -0.062448 -0.707085
0.249532 -0.427693 -0.368313
-0.394312 -0.795759 0.013733
-0.793328 -0.096309 -0.353425
0.625621 -0.079522 0.343956
0.270495 0.639769 0.004105
0.272582 -0.790299 0.001185
-0.449516 0.271162 -0.334714
0.629481 0.643809 0.357613
-0.099400 -0.420536 -0.725390
0.293825 -0.063327 -0.706317
0.246500 -0.428637 -0.368918
-0.085647 -0.801311 -0.371404
0.270542 -0.421825 0.350346
0.270706 -0.046677 0.693961
0.296381 0.638991 0.708681
0.627122 0.642768 0.360981
0.627235 0.642036 0.360088
-0.396125 -0.795715 0.010745
0.296868 0.626502 -0.675137
-0.095309 0.630656 -0.351960
-0.102118 0.248708 -0.695232
0.292722 -0.063298 -0.706482
-0.405160 -0.429872 -0.351146
-0.821881 0.261484 -0.010996
-0.090761 0.615450 0.358126
0.296383 0.641140 0.709071
-0.797003 -0.093008 0.335782
0.638697 0.301047 0.008682
-0.102656 -0.419418 -0.724179
-0.404869 -0.428304 -0.348938
0.637957 0.301655 0.007997
-0.437849 0.633769 0.003297
0.639175 0.650727 -0.326607
-0.083664 -0.801295 -0.370902
-0.796635 -0.091952 0.333945
0.626347 -0.079675 0.345254
-0.104018 0.249355 -0.696490
-0.394177 -0.794416 0.013510
-0.405679 -0.429593 -0.348148
0.250131 -0.428281 -0.369471
0.294459 0.641817 0.709942
-0.447859 0.271901 -0.336728
0.297216 0.626738 -0.676982
-0.794277 -0.095214 -0.350462
0.629518 -0.074051 -0.359547
-0.406189 -0.431781 -0.349787
0.626010 -0.079925 0.345249
0.629083 0.642845 0.359093
-0.098931 -0.418687 -0.725405
-0.795034 -0.092085 0.333941
-0.420048 -0.081852 0.715025
0.638517 0.298875 0.006608
0.637927 0.298383 0.695042
-0.822816 0.260761 -0.011933
-0.090455 0.616420 0.359526
-0.437281 0.633757 0.004716
0.296035 0.626373 -0.676660
-0.824175 0.262519 -0.009478
0.275158 -0.789737 0.001528
-0.435945 0.251562 0.348290
0.249632 -0.429264 -0.369467
0.653590 0.269731 -0.701549
0.249457 -0.427290 -0.366832
-0.070927 0.291474 0.748651
0.272222 0.638708 0.005530
0.271553 0.639392 0.005323
-0.069464 0.290036 0.747870
0.274388 -0.793023 0.002108
-0.406849 -0.429128 -0.349347
0.625446 -0.077366 0.346194
0.638661 -0.438815 -0.009032
0.269278 -0.046423 0.690910
-0.457438 -0.084523 -0.735483
0.293003 -0.062129 -0.706973
-0.417893 -0.084581 0.714675
-0.091825 0.615041 0.360700
-0.100812 -0.418352 -0.723636
-0.435975 0.633584 0.001981
0.249948 -0.429365 -0.368198
-0.418288 -0.434255 0.336924
-0.795385 -0.098738 -0.351770
0.294724 -0.060971 -0.706786
-0.449396 0.270495 -0.338401
0.295588 0.639543 0.709131
-0.457332 -0.085520 -0.735978
-0.084470 -0.801917 -0.369154
0.656063 0.269304 -0.701416
-0.822676 0.262359 -0.010269
-0.089164 0.614982 0.360209
0.271134 -0.047867 0.694444
0.294651 -0.062696 -0.705705
0.656040 0.270762 -0.701258
0.296391 0.627327 -0.676604
-0.393320 -0.795762 0.012719
-0.099347 -0.418116 -0.724083
0.641749 0.651370 -0.326946
0.271565 -0.421571 0.348623
0.626518 -0.079204 0.346467
-0.100893 -0.418949 -0.722888
-0.436549 0.632667 0.004385
0.639207 0.301610 0.006562
0.272449 -0.421703 0.349335
0.640933 0.300500 0.009474
-0.090585 0.616176 0.358330
0.637811 0.302568 0.008399
-0.089656 0.615906 0.359324
0.295614 0.640649 0.708659
-0.418461 -0.086213 0.714631
0.271015 0.639689 0.006648
-0.437539 0.250223 0.348292
0.271544 0.638332 0.007565
0.271267 -0.791753 0.001981
0.271662 0.637726 0.005747
0.270005 -0.047117 0.692316
-0.797089 -0.093723 0.335967
-0.420013 -0.085607 0.714155
-0.794260 -0.097040 -0.350074
-0.084394 -0.800303 -0.369597
0.296861 0.627021 -0.675485
-0.417555 -0.434512 0.337081
-0.446903 0.270571 -0.334365
-0.794986 -0.097473 -0.351364
-0.103796 0.247693 -0.698661
-0.062559 -0.799059 0.364161
-0.100820 -0.418495 -0.723997
0.294316 -0.062460 -0.706783
0.639180 -0.440374 -0.010106
-0.070418 0.289840 0.747214
0.641391 0.650747 -0.327814
-0.090261 0.616515 0.359273
-0.083530 -0.801478 -0.370446
0.271336 0.640426 0.006231
-0.089808 0.616320 0.356881
0.630223 -0.074392 -0.359998
-0.436247 0.249765 0.348916
-0.406703 -0.429581 -0.349986
-0.418574 -0.084502 0.714778
-0.797212 -0.097554 -0.352196
-0.103459 0.248327 -0.697665
0.626820 -0.077409 0.344684
0.630378 0.643072 0.358306
0.629276 0.641929 0.358647
0.626984 -0.077689 0.344241
-0.090846 0.616157 0.359720
-0.093758 0.630481 -0.354816
-0.085526 -0.800546 -0.369368
-0.801184 -0.462123 -0.023482
-0.102798 -0.419845 -0.724033
-0.406603 -0.428125 -0.350697
0.272090 0.639672 0.006471
-0.821928 0.262111 -0.010381
-0.103245 0.250302 -0.696172
0.271067 0.638689 0.005422
-0.101990 -0.418842 -0.723856
-0.087851 -0.428076 0.707012
-0.435856 0.250434 0.349049
-0.095262 0.632376 -0.353517
-0.085380 -0.428443 0.709719
-0.419084 -0.083733 0.712862
0.273460 -0.792864 0.001959
0.657682 0.270222 -0.702304
-0.100145 -0.417998 -0.724064
-0.101095 -0.418710 -0.723774
-0.447599 0.270495 -0.336191
-0.447145 0.270347 -0.337466
-0.101905 0.248426 -0.696359
-0.085600 -0.800332 -0.369347
-0.435814 0.633515 0.004382
-0.100258 -0.417775 -0.724461
-0.437910 0.250271 0.347507
0.273874 -0.791668 0.002188
-0.069044 0.291876 0.746619
0.295117 -0.062434 -0.706093
-0.063047 -0.799942 0.366595
0.250463 -0.428276 -0.367659
-0.085085 -0.805001 -0.369161
0.294743 0.640611 0.707661
0.274952 -0.791795 0.001451
0.297852 0.627480 -0.678763
0.272254 0.639559 0.005966
0.270918 -0.420306 0.349880
-0.392808 -0.795742 0.012422
-0.406625 -0.431223 -0.347745
-0.434400 0.249784 0.349080
0.250301 -0.427364 -0.369261
0.296664 0.641785 0.708891
-0.090479 0.616009 0.359350
0.639948 0.651538 -0.325398
-0.795287 -0.095190 -0.351146
0.630820 -0.074178 -0.358433
-0.436052 0.634725 0.004251
0.626997 0.642855 0.358838
-0.795806 -0.091474 0.335614
-0.101633 -0.418543 -0.723848
-0.795646 -0.095201 0.334826
0.639294 0.301461 0.007512
-0.795070 -0.097947 -0.352653
0.270166 -0.044737 0.692404
0.640015 0.650818 -0.326798
-0.395594 -0.794579 0.012784
-0.434609 0.252379 0.347910
-0.086438 -0.429680 0.708288
0.657665 0.271605 -0.702325
0.636588 0.303054 0.008145
-0.797611 -0.093777 0.335293
0.627027 0.644317 0.358866
-0.083699 -0.800544 -0.371087
-0.062562 -0.800938 0.366557
-0.800183 -0.463574 -0.021814
0.629936 -0.072832 -0.359472
-0.446880 0.271472 -0.337360
-0.799846 -0.463154 -0.023832
-0.093376 0.631723 -0.356275
0.628588 0.642201 0.359140
0.249253 -0.430435 -0.368429
-0.457054 -0.086897 -0.735718
-0.405415 -0.428205 -0.349302
0.272725 -0.422045 0.349915
0.272556 -0.420582 0.348509
0.628041 0.643820 0.358770
-0.435050 0.250448 0.348027
-0.417919 -0.434038 0.334890
-0.090179 0.616298 0.359008
-0.436321 0.633671 0.004845
0.656446 0.268371 -0.699746
-0.084006 -0.802894 -0.368292
-0.801690 -0.462762 -0.022834
0.270202 0.639189 0.005742
0.636747 0.300965 0.007631
0.271081 -0.420927 0.349981
-0.822268 0.261295 -0.010664
-0.801693 -0.460120 -0.023258
-0.418236 -0.084597 0.715409
-0.796432 -0.095024 -0.350686
0.627606 -0.079764 0.345561
-0.088836 0.616764 0.358877
0.637926 0.299772 0.008374
0.272639 0.641282 0.005977
