OFF
256 0 0
0.346866 0.446646 0.104615
-0.003217 0.081885 -0.571720
0.347043 0.446711 0.103645
-0.016776 0.104675 0.811912
0.018231 0.822534 -0.568411
-0.315234 0.427323 0.088571
0.004311 0.805267 0.121592
0.347877 0.827108 -0.245807
0.706919 -0.238023 0.461817
-0.338154 0.836662 -0.233628
-0.315033 0.428428 0.087372
0.350071 0.447716 0.103115
0.317681 0.427633 -0.562566
-0.314960 -0.567384 -0.269926
-0.011546 -0.590312 0.101513
0.708417 -0.237740 0.462521
0.348923 0.445595 0.104974
-0.365325 -0.245519 0.819480
0.341787 -0.245830 -0.566203
0.317593 0.430279 -0.564789
-0.355879 0.092540 0.446546
-0.697779 0.086390 0.101609
0.704918 -0.244652 -0.240859
-0.365665 -0.245605 0.820542
0.706418 -0.242951 -0.240026
0.337140 0.106538 0.444139
-0.366069 -0.244402 0.818040
-0.316227 0.427804 0.088865
-0.337408 0.470153 -0.569295
0.000358 -0.580228 0.773050
-0.018983 0.106180 0.811142
0.336692 0.106796 0.442170
0.694124 0.082852 -0.578379
0.317341 0.430013 -0.565687
0.340822 -0.246907 -0.567665
-0.010346 -0.588526 0.100592
-0.335571 0.470429 -0.568716
-0.314565 -0.568120 -0.268211
-0.707945 -0.238543 -0.250481
0.706397 -0.240176 0.461704
-0.699595 0.085980 0.101656
-0.337020 0.469537 -0.568675
-0.344736 -0.237196 -0.613079
0.357361 -0.221891 0.809789
0.350024 0.826012 -0.247099
0.676447 0.447704 -0.234415
0.347660 0.826400 -0.246798
-0.696470 0.088068 0.101503
0.336707 0.105925 0.440885
-0.709298 -0.258475 0.458775
0.005212 0.803215 0.120387
-0.315477 0.427568 0.087287
0.349247 0.826539 -0.245237
-0.709412 -0.258259 0.460041
-0.354085 0.090642 0.448525
0.348053 0.826397 -0.244983
-0.316452 0.426881 0.089098
-0.317016 0.427776 0.088454
0.006203 -0.607006 -0.620818
0.336297 0.106618 0.442956
-0.018443 0.104034 0.810956
-0.334941 0.471342 -0.567771
-0.336536 0.470245 -0.567335
0.357068 -0.221318 0.809947
-0.696781 0.086745 0.101960
0.705692 -0.236156 0.462421
-0.349047 -0.584244 0.435249
-0.011163 -0.589313 0.099717
-0.317470 0.427565 0.088298
-0.693465 0.451943 -0.244570
-0.686366 -0.585227 0.087090
0.693029 0.084804 -0.579999
-0.000636 -0.579932 0.773015
-0.682559 0.107888 -0.580014
0.699083 -0.566317 0.111367
-0.026222 0.456573 0.462481
0.349080 0.826177 -0.246829
-0.016357 0.105214 0.810309
-0.686519 -0.586634 0.090167
-0.355146 0.090318 0.448056
-0.344615 -0.236980 -0.613085
0.348908 0.827113 -0.245762
-0.708838 -0.256422 0.460914
-0.010211 -0.588898 0.101764
0.675991 0.447727 -0.234832
-0.693441 0.452438 -0.246104
0.338001 0.105736 0.442859
-0.680561 0.107776 -0.578398
0.000448 -0.579432 0.771947
-0.025835 0.454813 0.462549
-0.008841 -0.590847 0.099703
-0.347364 -0.585629 0.433714
-0.338643 0.836689 -0.233231
0.003071 0.803671 0.120066
0.707437 0.075247 0.117972
-0.027591 0.455795 0.463106
-0.314901 0.427157 0.087055
0.347117 0.825172 -0.244736
-0.009802 -0.590196 0.100867
-0.316032 0.428047 0.087414
-0.365878 -0.246594 0.820382
-0.316229 -0.567595 -0.269388
0.338572 -0.246409 -0.566873
0.348781 0.827374 -0.245521
-0.699486 0.086572 0.099708
0.336127 0.107128 0.443989
-0.698362 0.086313 0.102123
-0.002423 0.080841 -0.571637
0.003443 0.804599 0.121412
-0.011113 -0.590502 0.101841
0.349872 0.826255 -0.244645
-0.314478 -0.566604 -0.268013
-0.010023 -0.589904 0.100315
-0.692598 0.452333 -0.244938
0.005377 0.803785 0.121767
0.328407 -0.554576 0.433104
-0.000649 -0.577928 0.772162
-0.016664 0.103907 0.811209
0.679627 0.448230 -0.231569
-0.694129 0.453041 -0.245209
-0.698492 0.086750 0.102642
-0.337478 0.834358 -0.235630
-0.708324 -0.259942 0.461159
0.694965 0.084070 -0.577559
0.317822 0.428078 -0.564156
-0.707567 -0.257822 0.458635
0.693977 0.080854 -0.576877
-0.316946 0.425696 0.089598
-0.693708 0.452840 -0.244875
0.694401 0.082001 -0.576908
0.356822 -0.221967 0.809697
0.003590 0.804492 0.119108
0.703873 -0.243730 -0.240887
0.358077 -0.223094 0.811044
-0.335422 0.470116 -0.568377
0.706582 0.075679 0.116917
0.358139 -0.222994 0.812058
0.677299 0.446569 -0.235081
-0.687292 -0.584036 0.088217
0.337027 0.108153 0.442022
-0.712158 -0.256356 0.459909
-0.687108 -0.585669 0.088758
0.676918 0.445269 -0.234214
0.676347 0.445765 -0.232750
-0.710477 -0.257984 0.459270
0.019890 0.820179 -0.569526
-0.017780 0.105007 0.810832
0.330803 -0.554441 0.430975
-0.029078 0.456359 0.462284
-0.685689 -0.586104 0.089812
-0.686998 -0.585684 0.088907
-0.017289 0.103876 0.809761
-0.026992 0.454495 0.463349
0.348545 0.826051 -0.245425
-0.026209 0.457415 0.463367
-0.354303 0.090070 0.448955
0.348853 0.827893 -0.244279
0.704773 -0.244180 -0.239296
-0.026950 0.455570 0.463079
0.348179 -0.589478 -0.234782
0.701940 -0.566781 0.110903
-0.698915 0.085969 0.099962
-0.708616 -0.239892 -0.251762
-0.711750 -0.259866 0.458823
-0.026839 0.455825 0.463557
-0.687222 -0.586220 0.088936
0.340355 -0.246755 -0.567789
-0.315821 0.427654 0.090664
-0.010815 -0.589132 0.099277
0.349508 0.446431 0.102277
-0.314196 0.428504 0.087499
-0.697201 0.084773 0.101953
-0.349319 -0.586439 0.434522
0.340772 -0.247485 -0.566916
-0.693321 0.452517 -0.246346
0.017613 0.820915 -0.570137
0.317809 0.430023 -0.564199
-0.686115 -0.587607 0.087833
-0.008699 -0.588010 0.101354
0.348432 -0.589310 -0.233146
0.707457 0.074429 0.113893
-0.363513 -0.242610 0.819877
-0.315238 0.428828 0.087664
0.346915 0.826280 -0.247282
0.000082 -0.579148 0.773347
-0.364394 -0.244631 0.818372
-0.027543 0.456839 0.462427
-0.691765 0.450208 -0.247100
-0.000415 -0.577783 0.770568
0.702233 -0.564601 0.110196
-0.683161 0.107824 -0.579589
0.006212 -0.608963 -0.619014
-0.338751 0.836956 -0.234759
-0.004276 0.082440 -0.573044
0.706210 -0.238533 0.461163
0.317444 0.430197 -0.563249
0.705714 -0.237326 0.461201
0.003544 0.803871 0.121983
0.329868 -0.555905 0.433533
-0.698391 0.084301 0.102776
-0.335271 0.468808 -0.568784
0.347944 0.445774 0.103319
-0.366389 -0.245669 0.818849
-0.001544 0.081831 -0.571430
0.676559 0.445132 -0.232785
0.695714 0.082278 -0.575222
-0.347890 -0.586793 0.435205
-0.693437 0.451944 -0.245054
-0.348260 -0.588065 0.433564
-0.354173 0.091177 0.448443
-0.344243 -0.233357 -0.612259
0.329253 -0.554421 0.431823
0.349831 -0.588188 -0.234292
0.340335 -0.247619 -0.568669
-0.681322 0.108520 -0.579478
0.349642 0.825121 -0.246765
-0.003141 0.081625 -0.573383
-0.027544 0.455130 0.460507
-0.017975 0.106786 0.810301
-0.336830 0.836219 -0.233716
0.349457 -0.588639 -0.235380
-0.010384 -0.589213 0.099809
-0.367088 -0.244420 0.820011
-0.682599 0.107951 -0.579461
0.007563 0.805293 0.121984
0.315962 0.428098 -0.564173
-0.693428 0.452602 -0.246494
0.703963 -0.243528 -0.239649
0.676579 0.446610 -0.233538
-0.339828 0.835319 -0.233606
0.676620 0.445440 -0.232892
-0.336815 0.468583 -0.569168
0.700057 -0.564678 0.110330
-0.002251 0.084912 -0.569058
-0.315541 -0.566257 -0.266937
-0.698464 0.087329 0.099744
-0.334996 0.469102 -0.565882
-0.354100 0.090281 0.447046
-0.697547 0.085011 0.101709
0.020489 0.821696 -0.571715
-0.001578 0.084106 -0.570172
-0.356156 0.091122 0.446359
0.004936 -0.608675 -0.621649
0.347368 0.826723 -0.247361
0.703707 -0.244253 -0.240302
-0.314077 -0.569381 -0.267963
-0.009449 -0.589785 0.101876
0.329394 -0.554914 0.431638
-0.680973 0.107810 -0.579277
-0.008943 -0.590754 0.100009
-0.339430 0.836680 -0.234029
0.342437 -0.246536 -0.568802
-0.010029 -0.588231 0.100951
-0.708646 -0.239064 -0.249507
0.004383 0.802949 0.121224
-0.000287 -0.578592 0.772972
