OFF
256 0 0
0.355355 0.826944 -0.270751
0.346893 -0.572061 0.432865
0.327554 -0.564062 -0.205076
-0.018479 0.457377 0.428407
-0.007669 0.805902 -0.591660
0.334713 0.449996 -0.582830
-0.344630 -0.593738 -0.243765
-0.328942 0.414304 -0.548678
0.028354 0.083178 -0.619970
-0.024656 -0.589489 0.117245
-0.355815 -0.593008 0.464383
0.361391 -0.247149 0.825353
-0.704433 -0.245912 -0.223442
0.685193 0.126443 0.098870
-0.008578 0.807101 -0.589730
-0.017705 0.456402 0.427303
-0.356648 -0.592428 0.465730
-0.702322 -0.243928 -0.222415
-0.346719 -0.594456 -0.243992
0.354491 0.826543 -0.273362
-0.355973 -0.592302 0.462773
-0.345227 -0.594012 -0.242899
-0.698276 0.112702 0.113049
-0.352773 0.799982 -0.259577
0.336127 -0.284118 -0.591990
0.367018 0.103217 0.463352
0.714422 -0.588200 0.101131
-0.718071 0.121065 -0.592802
-0.717888 0.468644 -0.245490
-0.345363 -0.240091 -0.568055
0.714966 -0.588367 0.099581
-0.703017 -0.243031 -0.220966
-0.346076 0.469212 0.092610
0.367203 0.103065 0.463200
-0.718440 0.468037 -0.245072
-0.698862 -0.240164 0.465513
-0.012491 0.831895 0.079144
-0.318957 0.056619 0.434278
0.361620 -0.246765 0.825997
-0.355839 -0.593101 0.464524
-0.718124 0.467567 -0.246614
-0.700439 -0.239408 0.466278
-0.351681 0.799827 -0.259235
0.349187 0.477284 0.095892
0.028263 0.083920 -0.620382
0.697677 0.100658 -0.591733
-0.319308 0.055569 0.434424
0.726294 0.458770 -0.245993
-0.700199 0.112749 0.112554
0.001223 0.106649 0.805955
0.725206 -0.231195 0.465797
0.001349 0.107990 0.806326
0.026037 0.082459 -0.618723
0.718208 -0.232209 -0.255932
-0.717449 0.120237 -0.592682
0.346939 -0.570495 0.432772
0.329740 -0.564690 -0.207411
-0.024482 -0.588595 0.119477
-0.346667 0.469708 0.092711
0.008133 -0.586986 0.800717
0.684229 0.125319 0.100354
0.719668 -0.232753 -0.254291
0.328367 -0.563235 -0.205892
-0.711015 -0.603145 0.119537
0.357393 -0.246545 0.825509
-0.017781 0.455910 0.429379
0.008667 -0.585573 0.803272
-0.346597 0.470362 0.092343
0.010280 -0.585283 0.801165
-0.368639 -0.253538 0.818944
-0.010178 0.808153 -0.590411
-0.319300 0.053865 0.434122
-0.700974 0.112394 0.113856
-0.702539 -0.245106 -0.224129
0.358579 -0.245796 0.825923
-0.011077 0.827669 0.078300
0.360984 -0.247076 0.824961
-0.700240 -0.239219 0.464202
0.333447 0.451843 -0.583887
-0.700309 -0.239068 0.467376
0.715766 -0.588758 0.100936
0.695783 0.101446 -0.590442
-0.011660 0.829471 0.077179
0.366895 0.102827 0.462504
-0.716678 0.120988 -0.591458
-0.342756 -0.240651 -0.568090
-0.025751 -0.590225 0.119692
-0.713247 -0.604214 0.117305
0.001209 -0.605193 -0.586952
-0.356704 -0.592918 0.464008
0.721040 0.458227 -0.244441
-0.009698 0.830083 0.077716
0.367534 0.102656 0.461440
-0.345964 0.469177 0.091369
-0.026143 -0.590455 0.120387
0.713373 -0.590268 0.100123
-0.712672 -0.605747 0.117497
0.694965 0.100316 -0.588694
0.355345 0.826172 -0.272096
0.003063 0.107209 0.804263
0.369371 0.104061 0.462828
-0.357091 -0.593209 0.465315
-0.346835 0.470277 0.091489
-0.329618 0.416240 -0.547975
0.696115 0.101945 -0.593646
0.001805 0.107718 0.806313
0.361355 -0.243941 0.824672
-0.011368 0.830227 0.076373
0.367202 0.102889 0.462511
0.335793 -0.285104 -0.591534
0.713529 -0.589575 0.100699
0.329856 -0.565048 -0.206660
-0.344286 -0.239417 -0.568553
-0.699769 0.112472 0.113821
0.333380 0.448338 -0.584033
-0.019281 0.456798 0.428645
-0.346196 -0.594317 -0.245817
0.367962 0.102598 0.464776
0.686495 0.126050 0.097529
0.001605 0.106412 0.808796
-0.357302 -0.592038 0.462858
-0.345037 -0.593608 -0.246134
-0.368577 -0.254832 0.820081
0.684160 0.127464 0.097371
-0.345538 0.469043 0.092613
0.334714 -0.284132 -0.593258
-0.705544 -0.242990 -0.222396
0.697060 0.100347 -0.591320
0.348082 0.477241 0.096609
-0.369930 -0.255059 0.821293
-0.352449 0.801873 -0.259378
0.001617 0.104786 0.806891
-0.008638 0.806799 -0.591256
-0.319310 0.056394 0.433699
0.362119 -0.246799 0.826076
-0.710112 -0.606168 0.120043
-0.700028 -0.239600 0.464091
-0.698700 -0.237587 0.465214
0.725068 -0.229644 0.464705
0.336804 -0.283377 -0.593501
-0.704075 -0.244192 -0.221851
-0.356326 -0.593778 0.465381
-0.711007 -0.606049 0.117570
0.359446 -0.247727 0.825765
-0.710781 -0.604155 0.119540
-0.369491 -0.254062 0.819175
-0.346552 0.470077 0.091824
-0.703638 -0.244326 -0.222620
-0.317420 0.056570 0.432290
0.368532 0.101919 0.464515
-0.012445 0.830680 0.079132
-0.345803 -0.593864 -0.244079
-0.343349 -0.240703 -0.569289
-0.345733 -0.593833 -0.243845
0.008291 -0.587733 0.801284
0.724347 0.460179 -0.245663
0.725982 -0.231633 0.466328
-0.718179 0.120230 -0.593391
-0.699038 -0.237523 0.465776
0.354400 0.825336 -0.272590
0.346389 -0.569564 0.433797
0.354189 0.827392 -0.271883
0.334476 -0.285917 -0.593047
-0.701679 -0.242675 -0.223054
-0.351280 0.800971 -0.259681
-0.370550 -0.251937 0.820195
-0.008930 0.829713 0.077870
0.686392 0.126567 0.099223
0.346444 -0.570337 0.434966
0.695431 0.100643 -0.591215
0.330022 -0.564624 -0.207453
-0.012503 0.828899 0.079186
-0.011173 0.830213 0.078844
-0.343248 -0.238756 -0.569767
-0.318392 0.055072 0.432034
-0.714922 0.122099 -0.591648
-0.699453 -0.238054 0.462780
0.344679 -0.570770 0.434191
0.713834 -0.588291 0.099512
-0.345407 -0.238903 -0.568457
0.001813 0.106158 0.806443
0.001002 0.105072 0.805214
-0.699901 -0.238671 0.463026
0.008096 -0.586529 0.801765
-0.346414 0.469587 0.092717
-0.699396 0.111237 0.114391
0.723859 0.460555 -0.243068
0.354898 0.826190 -0.271839
0.001662 0.105088 0.806606
-0.010019 0.807933 -0.590466
-0.715903 0.120227 -0.590932
-0.358143 -0.594617 0.464317
0.713499 -0.590413 0.100954
-0.331393 0.414411 -0.547762
-0.016490 0.458145 0.426248
-0.344034 -0.237885 -0.568107
0.723696 -0.230366 0.465228
0.003490 -0.604820 -0.588862
-0.703792 -0.243603 -0.221732
0.025957 0.083431 -0.619936
-0.319137 0.054371 0.433440
-0.347178 0.468945 0.089882
0.359733 -0.247123 0.827094
0.725013 0.459750 -0.243114
0.714216 -0.588799 0.100822
0.684910 0.125685 0.099613
-0.356915 -0.593934 0.465149
-0.371671 -0.253234 0.820937
-0.019303 0.456590 0.427293
0.715410 -0.587336 0.101048
0.345562 0.475946 0.097452
-0.348686 -0.593398 -0.243042
-0.717262 0.119975 -0.592290
-0.000363 -0.607061 -0.588830
0.725984 -0.229591 0.465829
0.006723 -0.586153 0.798661
-0.011760 0.828217 0.077878
0.332802 0.451100 -0.584382
0.724646 -0.231222 0.466167
-0.353406 0.800587 -0.259536
0.027721 0.083165 -0.619318
-0.017152 0.457584 0.425641
-0.329897 0.416450 -0.547049
0.335059 -0.283828 -0.591527
0.725120 -0.231319 0.466052
-0.711689 -0.602872 0.118297
-0.712288 -0.604909 0.120339
0.333523 0.450184 -0.583250
0.334378 0.449706 -0.584362
0.685116 0.125170 0.100154
0.001917 0.107108 0.806419
-0.712324 -0.604924 0.118192
-0.343300 -0.239459 -0.569461
0.367660 0.103172 0.463542
-0.700186 -0.239306 0.464901
-0.328510 0.416244 -0.547731
-0.010623 0.828249 0.077965
0.724659 -0.231731 0.466050
0.714827 -0.587449 0.099083
0.722735 -0.228830 0.466689
-0.011132 0.829645 0.078256
0.345876 -0.571136 0.434240
0.001692 0.106918 0.806565
-0.700202 -0.237150 0.464927
-0.345477 -0.595442 -0.242944
-0.343789 -0.237679 -0.569063
-0.700080 -0.239062 0.466193
-0.712767 -0.606110 0.119073
0.360325 -0.247817 0.826265
0.714547 -0.588756 0.100059
0.000068 -0.605979 -0.590061
-0.348022 0.469862 0.091674
0.713325 -0.590345 0.100542
-0.011187 0.830152 0.077539
-0.370501 -0.254730 0.818027
0.354799 0.825977 -0.271393
