OFF
256 0 0
0.798807 -0.000024 0.277105
0.079689 -0.360161 -0.797700
0.079824 0.359436 0.638165
0.797218 0.000814 -0.440156
0.079955 -0.718660 0.279377
0.437836 0.717411 -0.078834
-0.279926 0.718204 0.636727
-0.637165 -0.360109 -0.079737
0.799132 0.000345 0.279680
0.080523 -0.360173 0.638865
0.440726 -0.715733 -0.077260
0.798188 -0.360278 -0.081722
-0.278303 -0.716341 0.638026
-0.637545 0.360129 -0.078762
-0.277662 -0.718409 -0.079077
-0.278255 0.719263 -0.078247
-0.278781 -0.717197 -0.079736
-0.278254 0.716587 -0.081578
0.797067 -0.358683 -0.079036
-0.278726 -0.359546 -0.438318
-0.635741 -0.000567 -0.437721
0.080240 -0.716547 -0.438312
-0.637906 -0.717219 0.280298
-0.279286 -0.359979 -0.437617
0.079069 -0.357317 -0.796418
-0.637448 -0.001224 0.280735
0.439595 0.716261 -0.078197
0.079416 0.360210 0.639513
-0.636230 0.001584 0.277074
0.079063 -0.718464 -0.439719
0.079091 -0.718410 0.280315
0.798309 0.001221 -0.437647
-0.638603 0.717307 0.278749
-0.638094 0.001225 0.280059
0.078667 0.718283 -0.439221
-0.279205 -0.717204 -0.080529
0.797356 -0.357836 -0.078828
-0.638270 -0.358671 0.637453
0.078074 0.359050 0.635269
-0.278322 -0.717822 -0.079935
-0.638157 -0.717021 0.280977
0.797582 0.000403 -0.439507
-0.280062 -0.717943 -0.081422
0.080152 -0.357782 -0.797400
0.081222 0.719039 -0.438828
0.438180 -0.716826 -0.078566
-0.637243 0.001733 0.279638
-0.638039 -0.357367 0.636376
0.795403 -0.001402 -0.438370
-0.638554 -0.000944 -0.440300
0.080374 0.356841 0.636361
-0.637728 -0.717123 0.276742
0.439358 0.000045 0.637473
0.438385 0.358225 -0.439406
-0.639149 0.356363 -0.077558
0.080789 0.717628 -0.439830
-0.638617 -0.358612 -0.082768
-0.638103 -0.358661 -0.080734
0.440108 -0.001527 -0.797415
-0.637285 -0.000205 0.279066
-0.278951 0.000196 -0.798586
-0.278632 0.000496 0.637925
-0.638305 0.359022 -0.080650
-0.279629 0.001178 -0.799176
-0.638384 0.000680 -0.438106
0.077781 -0.358719 0.637985
0.440188 -0.359035 0.279063
-0.279739 -0.719036 0.636333
0.797099 0.360216 -0.079189
0.080431 -0.718212 0.279074
-0.278124 -0.359265 -0.438060
0.438868 -0.358411 0.276565
0.079705 0.717603 0.280901
-0.279471 0.717528 0.637786
0.080123 0.355995 -0.796815
-0.279839 0.359598 -0.438702
0.080377 0.357075 0.639401
0.436558 -0.001341 -0.797236
0.440074 -0.000503 0.639453
0.079532 0.359898 0.636397
-0.280590 -0.359194 -0.438918
0.798671 -0.359447 -0.079997
-0.279420 0.001502 -0.796776
-0.278418 -0.717269 0.638320
0.797133 -0.000999 -0.438450
0.439237 0.716541 -0.080748
-0.276578 0.717492 0.638045
0.079225 0.718386 0.279818
0.079879 -0.359987 0.637413
0.438476 0.718859 -0.080877
-0.637698 -0.000878 0.279700
-0.279012 0.716446 0.638320
-0.278160 0.717579 0.638526
0.437839 0.000570 -0.796730
0.796603 -0.000089 -0.438736
-0.280269 0.717089 0.637829
0.439862 -0.359985 0.276820
0.438985 0.356184 0.278182
0.438312 -0.000259 0.637549
-0.280206 0.358097 -0.437554
0.079608 -0.716818 0.279288
0.079386 -0.358827 0.638610
-0.636632 0.717691 0.281659
-0.280211 -0.717468 0.637562
0.438324 -0.717977 -0.078570
0.795498 -0.000331 0.279298
0.437845 0.001277 -0.798632
0.080361 -0.357572 0.637324
0.438464 -0.358977 0.278817
0.798391 0.000381 0.279331
-0.637968 -0.359025 0.636137
-0.277211 0.717011 0.636440
-0.279197 0.717228 0.637472
0.796300 -0.000393 -0.439194
-0.636060 0.000473 -0.439413
0.079392 -0.716870 0.279495
-0.277740 0.358353 -0.438776
-0.278214 0.716874 0.639113
-0.278821 0.716268 -0.080124
0.078950 0.718284 0.279406
0.798538 -0.000156 0.279579
-0.636544 -0.358534 0.637893
0.438132 0.716729 -0.080381
-0.278487 -0.718264 0.636536
0.080339 -0.718212 0.280595
-0.638038 -0.357784 -0.078871
-0.278955 -0.358162 -0.438480
-0.279843 0.717533 -0.079374
-0.639537 -0.716322 0.278052
-0.635888 -0.358410 0.637486
0.798202 -0.001249 0.279609
0.079487 0.717167 0.279981
0.080598 -0.718373 0.277752
-0.638404 -0.357616 0.637770
0.439591 -0.360090 -0.438236
0.438932 -0.358877 -0.438004
0.437880 -0.719230 -0.077404
0.438629 -0.000652 0.637215
-0.638941 0.359300 0.637366
0.077485 -0.717812 -0.439836
-0.636819 -0.716642 0.280317
-0.281262 0.718727 -0.077994
0.439117 0.001117 0.637976
0.079139 0.357384 -0.799373
-0.638032 -0.357091 -0.080487
0.438088 -0.359039 0.278449
-0.280283 0.360088 -0.436935
-0.639749 -0.716501 0.277993
-0.279107 0.717410 -0.079759
0.438386 0.717412 -0.079129
-0.638145 0.359526 -0.079707
0.439297 -0.716974 -0.079576
0.438169 -0.357096 -0.437732
0.797753 0.000681 0.278954
-0.278939 0.357071 -0.437595
-0.278264 -0.001187 -0.799673
-0.278871 0.718082 -0.079933
-0.277591 -0.717137 0.638253
0.439763 0.357873 -0.439461
0.797583 0.359029 -0.080446
0.078556 0.357968 0.638691
0.079864 0.358374 -0.798015
0.439566 -0.358696 -0.438415
-0.278799 0.716205 0.636136
-0.280254 -0.716783 0.637443
-0.277543 -0.000317 0.638320
-0.280941 -0.359549 -0.437908
0.438906 -0.001026 -0.797728
0.797725 -0.000366 -0.439469
0.797384 0.357156 -0.079638
-0.638237 -0.358761 0.638096
-0.636794 0.359152 -0.080058
0.440885 0.358477 0.279391
0.798523 -0.001645 0.277794
-0.279730 0.357864 -0.439512
0.079630 0.716335 -0.439615
0.079202 0.358681 0.636606
-0.278938 0.360374 -0.439317
-0.638276 0.359767 -0.080344
0.438204 -0.718909 -0.080145
0.081133 -0.718364 -0.439493
0.439969 0.357679 0.279908
-0.279730 0.358168 -0.438675
-0.637252 0.358467 0.639170
0.079074 -0.358439 -0.797641
-0.637409 0.718135 0.278914
-0.637605 -0.358519 0.637638
0.438124 -0.000684 0.638242
-0.276098 0.001515 0.638256
0.797359 -0.358805 -0.079512
-0.279367 0.717154 -0.081994
0.797133 0.357586 -0.079006
0.797231 0.001065 0.278438
0.438471 0.358829 -0.441130
0.437275 0.357756 -0.440888
-0.638748 -0.357156 -0.079212
0.438982 0.356300 0.278616
-0.640125 -0.717579 0.279432
0.437764 0.716811 -0.078840
-0.638885 0.000685 -0.439162
0.797080 0.001394 -0.437789
-0.279323 -0.717741 0.638137
0.797384 0.359638 -0.078793
-0.279806 -0.718420 0.638422
0.439740 -0.358559 0.279275
-0.280738 0.359176 -0.439906
-0.638473 -0.359233 0.638662
-0.638022 0.357933 -0.078625
0.078604 -0.358719 0.637809
-0.279844 -0.000981 0.636551
-0.636816 0.717581 0.278459
-0.637554 -0.356760 0.637491
-0.278105 0.717093 0.639009
0.439327 -0.360133 0.278404
-0.637179 -0.357742 -0.080327
-0.280687 -0.718223 -0.080454
-0.279070 0.001361 -0.796073
0.798201 -0.359322 -0.079782
0.078777 -0.719259 0.278285
-0.279827 -0.361043 -0.439355
0.797106 0.000102 0.280342
0.437854 -0.357754 -0.438984
-0.636342 -0.001099 0.279823
-0.636577 0.000309 0.279118
0.080805 -0.718093 0.279637
0.438520 0.717820 -0.080478
-0.279041 -0.717627 0.637571
0.438582 -0.361022 -0.439077
-0.637892 -0.359446 -0.079673
0.079400 0.359022 -0.796617
0.079214 0.717145 -0.438526
-0.638572 0.000913 -0.438010
-0.638185 0.718799 0.279247
0.078365 0.716757 -0.438214
0.798623 0.000031 -0.437698
0.079447 -0.717750 0.278593
0.080184 -0.359872 -0.796527
0.080557 -0.717344 -0.437227
-0.276793 0.357662 -0.438644
0.796930 0.358214 -0.079363
-0.638552 -0.716167 0.279788
0.079885 -0.359979 0.636775
0.796163 0.357846 -0.079596
0.437792 0.360568 0.279729
-0.278993 0.717005 0.639176
-0.638441 -0.359543 0.639824
0.798588 -0.357043 -0.079705
-0.637678 -0.718345 0.279794
0.079395 -0.718841 0.278512
-0.278427 -0.001591 -0.798522
0.797653 -0.001927 0.279284
-0.637651 -0.358033 0.638842
-0.639401 0.358901 -0.080689
0.797618 0.000435 0.278254
0.078159 0.715170 0.278516
-0.278311 0.358647 -0.437642
