OFF
256 0 0
-0.613101 -0.363013 -0.086493
-0.271125 0.000333 -0.771970
0.805929 -0.345385 -0.078382
-0.269738 0.000810 -0.771060
-0.604042 0.372000 -0.055510
0.076884 0.347724 -0.788856
0.088822 0.704770 -0.415312
-0.612766 -0.363384 -0.086461
0.748058 0.367506 -0.085402
-0.611743 -0.362187 -0.085578
-0.602327 0.359201 0.584802
0.401727 0.353197 0.263052
-0.251734 0.331498 -0.407769
-0.603019 0.372518 -0.051038
-0.621658 0.014492 -0.390909
0.056412 0.689553 0.287762
0.805280 -0.345668 -0.080185
0.056878 0.688087 0.286686
-0.268832 0.001640 -0.772956
-0.270665 0.000324 -0.770352
0.423906 -0.340430 0.251206
-0.613733 -0.364288 -0.086347
-0.612425 -0.364093 -0.085569
-0.616200 0.720149 0.272262
0.745973 0.367827 -0.087316
-0.260714 -0.356006 -0.418446
0.423386 -0.701718 -0.085149
0.057342 0.687843 0.288317
-0.612178 -0.359145 0.607535
-0.601896 0.372424 -0.051884
0.418541 0.319341 -0.407181
-0.623828 -0.026571 0.259030
0.085707 -0.328068 0.619451
-0.604221 0.373421 -0.051533
-0.621840 0.016878 -0.390307
0.427398 -0.338124 -0.388949
-0.616647 0.722145 0.271079
-0.280841 0.702562 0.631110
0.417688 0.317020 -0.410017
0.427921 -0.339119 -0.391313
-0.603050 0.370589 -0.052063
-0.621388 0.016679 -0.390870
0.088742 0.706318 -0.415372
-0.261248 -0.356434 -0.416603
0.423053 -0.703798 -0.086377
-0.269241 0.001231 -0.770610
0.421129 -0.703444 -0.086203
0.402247 0.352640 0.262267
-0.622842 0.015821 -0.392240
-0.611260 -0.357745 0.606655
-0.613597 -0.363859 -0.084884
0.084308 -0.328455 0.622138
0.088423 0.704140 -0.415773
-0.250340 0.331044 -0.409985
0.435617 0.705960 -0.104218
-0.276870 -0.013426 0.589117
-0.659368 -0.697836 0.274311
-0.260165 -0.686538 -0.061220
0.748471 0.368200 -0.087784
0.088681 0.706037 -0.413568
0.421997 -0.704160 -0.084901
0.750250 0.365869 -0.087550
0.421454 -0.035100 -0.780878
0.423311 -0.336952 0.251510
-0.275714 -0.013352 0.588735
0.770799 0.009086 -0.399223
0.770806 0.007874 -0.398568
0.422025 -0.703193 -0.083421
-0.250989 0.331177 -0.408548
-0.602496 0.371991 -0.052826
0.075721 0.348161 -0.790734
-0.279595 -0.014997 0.588797
0.082811 -0.688920 0.286590
0.089106 -0.355821 -0.793775
-0.250766 0.329600 -0.408348
0.077089 0.348974 -0.788976
-0.248043 0.330970 -0.409620
0.089278 -0.353526 -0.791885
0.079496 -0.688707 0.286052
0.746996 0.365858 -0.086088
0.426220 -0.338991 0.252317
0.418591 0.320882 -0.406859
0.085066 -0.328837 0.620435
0.087683 -0.352880 -0.793175
0.089034 0.704874 -0.416427
0.428078 -0.337892 -0.389791
-0.610599 -0.363451 -0.086031
-0.261087 -0.688728 -0.062485
-0.660275 -0.696835 0.275471
-0.600381 0.359161 0.586152
-0.258618 -0.354624 -0.416827
-0.269787 0.002323 -0.771785
0.766097 -0.003081 0.247620
-0.271423 0.001672 -0.771546
0.402405 0.354304 0.260588
0.087030 0.704137 -0.415226
0.084461 -0.328693 0.620613
-0.258663 -0.689150 -0.062327
0.806402 -0.346868 -0.079810
0.089626 -0.355666 -0.793982
0.418056 0.318720 -0.408071
0.084491 -0.327670 0.622551
0.087784 0.704965 -0.415401
-0.604805 0.372933 -0.053033
0.767857 -0.000983 0.247481
-0.277947 -0.015242 0.587787
-0.611000 -0.358381 0.605285
0.423822 -0.338046 0.252035
-0.600585 0.358265 0.586752
-0.280617 0.701618 0.629795
0.768875 -0.000792 0.247941
0.072684 -0.691899 -0.421653
0.769861 0.008610 -0.399534
-0.277291 -0.016390 0.588773
0.075773 0.349358 -0.789840
0.767947 -0.001278 0.248958
-0.283076 0.700100 0.631433
0.429289 -0.029152 0.633718
0.766623 -0.000596 0.248603
-0.280858 0.700340 0.628972
-0.600959 0.359077 0.586445
0.088977 0.705233 -0.414207
0.072108 -0.690810 -0.420706
-0.622806 0.016093 -0.390181
0.417973 0.318049 -0.406588
-0.614151 -0.364153 -0.086336
0.079377 -0.689245 0.285383
0.400394 0.354971 0.261422
0.088975 0.705218 -0.414532
0.427833 -0.337463 -0.391172
0.418751 -0.033979 -0.780711
-0.279342 -0.694031 0.598971
0.079968 -0.687492 0.286702
0.747739 0.366532 -0.085943
0.087389 0.705715 -0.415224
-0.277387 -0.017134 0.588998
0.423250 -0.703581 -0.084209
-0.248924 0.726853 -0.077955
-0.270014 0.001558 -0.771163
-0.616277 0.720703 0.273984
-0.611524 -0.363304 -0.085819
0.429247 -0.030038 0.634250
-0.602896 0.372431 -0.052110
0.425224 -0.337513 0.252603
0.072525 -0.692937 -0.420270
0.423470 -0.703039 -0.085598
0.085964 -0.328741 0.622013
-0.279797 -0.692877 0.598673
0.768189 -0.001402 0.248304
0.418896 -0.034027 -0.781044
0.078963 -0.687926 0.285683
0.425438 -0.339512 0.250958
-0.612150 -0.357521 0.607125
0.402830 0.352652 0.261537
-0.611572 -0.362967 -0.087132
0.806168 -0.344702 -0.078867
-0.602952 0.372187 -0.053019
-0.269809 -0.001984 -0.771299
0.804483 -0.346208 -0.076973
-0.258777 -0.355521 -0.416599
0.434943 0.704863 -0.104326
0.769731 0.008806 -0.399324
0.424952 -0.338397 0.249611
-0.611040 -0.358823 0.604095
0.426688 -0.339920 -0.389707
0.080999 -0.687843 0.285085
0.418751 0.318829 -0.405853
-0.601969 0.374750 -0.051374
0.420103 -0.035491 -0.781576
0.078274 0.347443 -0.789771
-0.268788 0.001974 -0.770532
-0.660155 -0.699821 0.276656
0.079253 -0.687936 0.284412
-0.269744 0.002949 -0.770803
-0.278351 -0.693855 0.598905
-0.661820 -0.697712 0.276676
0.748422 0.367388 -0.086450
-0.271819 0.000793 -0.771235
0.087563 -0.356477 -0.796013
0.402101 0.354544 0.261671
0.770767 0.009399 -0.400042
-0.269710 0.000399 -0.771270
-0.280138 -0.694747 0.597765
0.765903 -0.002851 0.247947
0.075225 0.347342 -0.790526
-0.611483 -0.357887 0.604688
-0.603245 0.371848 -0.053888
0.072424 -0.692073 -0.420065
-0.250781 0.329567 -0.410115
-0.624607 -0.026739 0.261025
0.418399 0.318084 -0.408175
0.060379 0.332123 0.608089
0.806230 -0.345112 -0.076597
-0.603902 0.372833 -0.050909
-0.611873 -0.362504 -0.086109
0.417425 0.319004 -0.407520
0.422311 -0.704964 -0.084165
-0.250598 0.330140 -0.408852
0.767421 -0.001497 0.248767
0.768313 -0.000446 0.246272
-0.624423 -0.026337 0.258751
0.425096 -0.338763 0.250957
0.766601 -0.001075 0.248103
0.426987 -0.340104 -0.389182
0.424334 -0.341104 0.251933
-0.611213 -0.358732 0.605198
0.769813 0.007886 -0.398368
0.769327 0.008246 -0.397185
0.805099 -0.347781 -0.077748
0.071563 -0.691792 -0.419420
0.766906 -0.002607 0.246958
0.423037 -0.339303 0.250613
0.059218 0.333036 0.608595
-0.599974 0.358167 0.587923
0.080541 -0.688987 0.285099
-0.618124 0.720537 0.271335
0.434862 0.705947 -0.105679
0.401289 0.352509 0.264134
0.428702 -0.029668 0.632387
0.435319 0.705594 -0.102156
0.425290 -0.338317 0.253340
0.057047 0.687804 0.289560
-0.612431 -0.362165 -0.085894
0.062165 0.331799 0.608683
-0.661876 -0.699122 0.275814
0.079303 -0.689023 0.285722
-0.248382 0.728606 -0.078329
-0.612765 -0.363666 -0.086599
0.423357 -0.705212 -0.083151
-0.623004 0.012832 -0.391216
0.748847 0.366812 -0.085944
0.424573 -0.339201 0.252366
0.767037 -0.000825 0.248455
-0.601032 0.359140 0.588096
-0.599347 0.359864 0.589436
0.079860 -0.688611 0.285269
-0.659696 -0.697769 0.277025
-0.611714 -0.360227 0.606060
-0.601769 0.358579 0.584918
-0.278203 -0.690905 0.600000
0.431262 -0.028939 0.633588
-0.250833 0.330579 -0.408569
0.421580 -0.034728 -0.780464
0.055344 0.686802 0.286865
-0.249672 0.333608 -0.408882
0.435238 0.707013 -0.102615
-0.622527 0.015300 -0.389227
0.424617 -0.338736 0.250101
0.087529 -0.355042 -0.792824
-0.621998 0.016184 -0.391258
0.804869 -0.346483 -0.077747
-0.603757 0.374922 -0.053261
0.422341 -0.703810 -0.085837
-0.260744 -0.688192 -0.061023
0.402250 0.353708 0.259533
0.417750 0.315865 -0.407695
