OFF
256 0 0
0.718348 0.279554 -0.080019
0.359192 0.639414 -0.079598
-0.002084 -0.797665 -0.437500
-0.717577 0.277632 -0.080646
0.000161 0.278949 -0.797601
0.717638 -0.079528 -0.439617
0.717876 -0.080008 -0.439502
0.359346 -0.081082 0.638018
-0.717311 -0.437879 -0.081068
0.717405 0.279607 0.637773
-0.718883 0.278669 0.639541
-0.000516 -0.798035 -0.437471
0.001091 0.638762 0.278689
-0.000494 0.279849 -0.797438
0.718199 0.279005 -0.080405
-0.357987 -0.438009 -0.438405
-0.001153 -0.439029 -0.797826
-0.001351 -0.440228 -0.798139
-0.716385 0.278985 -0.079243
-0.359784 0.636513 0.638365
0.716600 0.278524 0.636415
-0.717585 -0.440056 -0.080647
-0.359276 0.279925 -0.440536
-0.358182 -0.079199 -0.798466
-0.714886 -0.079588 0.278641
0.358340 -0.438461 0.279195
-0.360570 0.637036 -0.078726
0.716461 -0.078161 0.278623
-0.000092 0.638017 -0.437945
-0.718377 0.278948 0.639264
-0.718230 -0.080199 -0.438421
0.360204 -0.078937 -0.796781
-0.359174 -0.438303 -0.438571
0.717467 0.280281 0.639857
-0.718480 0.278625 0.636847
0.716767 0.638012 0.278844
-0.000813 -0.797775 0.279125
-0.719843 -0.080314 0.279384
-0.359487 -0.438043 -0.439215
0.357751 0.639998 -0.080133
-0.359339 -0.079634 0.638220
-0.717517 0.638441 0.279455
-0.360211 -0.798664 -0.079492
-0.718550 0.637398 0.279210
0.000120 0.279284 -0.797267
0.360137 -0.438541 -0.439606
-0.717944 -0.078701 0.278976
-0.719290 -0.077560 -0.440313
-0.717417 -0.440103 -0.080546
-0.719397 0.637871 0.280056
0.000913 0.279244 0.637061
-0.716980 -0.077764 0.277156
0.359051 -0.798703 -0.079534
0.716358 -0.438368 -0.079978
-0.358460 -0.079362 -0.796347
-0.359338 0.637217 0.638862
0.000138 -0.798366 0.280153
-0.000276 0.279918 -0.798153
-0.717622 -0.438671 -0.079401
-0.718513 -0.079459 0.279486
-0.358366 0.640232 0.635337
-0.717072 -0.080859 -0.438179
0.716957 0.637358 0.279203
0.001260 0.638981 0.279638
0.359026 0.638838 0.637272
0.715588 -0.437751 -0.079139
0.000563 -0.438396 -0.797593
-0.718666 0.279218 0.636887
-0.000004 -0.798370 0.279440
0.718046 -0.080108 0.280387
-0.716504 -0.079116 0.279458
-0.000135 0.638353 -0.438834
-0.719288 0.278866 0.638293
-0.717154 -0.437929 -0.080613
0.359133 -0.079968 0.638921
0.000213 0.639541 -0.438220
-0.000473 0.637987 -0.438355
-0.358481 -0.078250 -0.797923
0.358249 0.636775 -0.080005
0.000044 0.277442 0.638830
0.716036 -0.080143 0.277402
-0.360092 0.636926 -0.078738
-0.719148 -0.437747 -0.080391
0.000992 -0.439659 -0.796566
-0.715931 -0.080314 -0.438974
0.358282 -0.796907 -0.078867
-0.718344 0.276690 -0.080103
-0.358469 0.279710 -0.438771
-0.357222 0.638284 -0.080581
-0.359116 -0.798361 -0.078592
-0.001703 -0.799055 0.279578
0.358240 -0.799482 -0.079594
0.000394 0.637894 -0.438441
-0.716976 -0.437701 -0.080146
0.719267 -0.079158 0.280346
-0.358565 -0.438709 -0.440104
0.716994 -0.080855 -0.439051
-0.001251 -0.797496 0.279373
-0.359182 -0.438923 0.277294
0.000458 0.638294 -0.439701
0.719359 0.637652 0.277951
-0.000620 0.640596 0.279454
0.000264 -0.438410 0.637338
-0.359227 0.638412 -0.079347
-0.717442 -0.078786 -0.438431
-0.358603 -0.799126 -0.079706
-0.357921 0.638281 -0.079253
-0.000006 -0.436206 0.638070
0.359674 -0.441049 -0.440271
0.359751 0.637540 -0.078276
0.000639 -0.797044 0.280310
-0.719694 0.279406 -0.079315
-0.001041 0.637340 0.281227
0.000609 -0.438226 0.638304
-0.718656 -0.078962 -0.439678
0.717202 0.277938 -0.079415
0.357823 -0.438546 0.279686
-0.358604 -0.797043 -0.080309
-0.358410 -0.080817 0.637174
0.002298 0.638532 -0.440403
0.359096 -0.797141 -0.079171
0.000184 -0.437667 0.638802
-0.358982 0.277714 -0.436725
-0.718617 -0.081626 0.280398
0.717797 -0.438861 -0.079680
-0.358129 0.279769 -0.438067
0.718878 0.280803 0.638466
0.001526 0.638963 0.280236
-0.358160 0.279782 -0.438255
-0.357644 0.638281 -0.077755
-0.356991 0.635886 0.639080
-0.718315 -0.439600 -0.077443
0.360371 -0.438221 0.278190
-0.001005 -0.798023 -0.437159
0.358635 -0.438606 0.280520
-0.359349 0.279066 -0.439299
-0.000620 0.637411 0.279280
0.001291 0.638506 0.278389
-0.358736 -0.439461 -0.438267
0.359445 -0.078021 0.638454
-0.000322 -0.439749 -0.797113
0.717917 -0.080140 0.278317
-0.357909 -0.079461 0.637536
-0.359803 -0.080987 0.637982
0.361145 -0.077947 0.637888
0.000510 -0.439196 0.638155
-0.717738 -0.079689 0.277375
-0.717476 -0.438655 -0.081287
0.356903 -0.437408 -0.439086
0.717375 -0.080484 -0.438631
0.717412 -0.078567 -0.438327
0.358435 0.639422 -0.080993
-0.718201 0.637972 0.279544
0.716494 -0.080491 -0.440591
0.358764 -0.080762 0.636385
-0.357588 0.638485 0.638510
-0.358067 0.637547 0.636698
0.360443 -0.081337 -0.797044
-0.719511 0.638201 0.278560
-0.361415 -0.438688 -0.438103
-0.718236 -0.439363 -0.079529
0.358652 -0.439820 -0.438159
0.001046 0.638356 -0.439225
0.359017 -0.081061 0.637543
0.359804 -0.439259 0.278121
0.000690 0.638486 -0.437548
0.359008 -0.437891 -0.438652
0.718164 0.639244 0.279707
0.356929 0.637323 0.639002
0.716678 -0.080317 0.278353
-0.000234 -0.795922 -0.438784
0.359043 -0.079738 -0.799997
-0.719202 0.279220 -0.080939
-0.360093 -0.797553 -0.079282
-0.356937 -0.438047 0.279960
-0.356910 -0.079871 0.638490
0.001007 -0.439269 -0.796732
0.356620 0.278342 -0.436926
0.000965 0.638300 -0.438219
-0.000939 0.278791 0.638172
0.358798 0.638652 -0.079902
0.717859 -0.079125 -0.438846
0.358767 0.278329 -0.438364
0.000992 0.637137 -0.438924
-0.000079 0.638603 0.278466
-0.360454 0.279211 -0.440102
-0.357591 -0.797464 -0.078899
0.719217 0.637698 0.278486
-0.358401 0.278737 -0.438913
0.359888 -0.795510 -0.080199
0.359559 0.279476 -0.440335
0.000620 -0.797672 -0.437253
0.715712 -0.438578 -0.078831
-0.000469 0.279751 0.636651
-0.359603 0.278860 -0.438550
0.719173 -0.079953 -0.438875
-0.358572 0.277629 -0.438396
0.358925 0.635300 -0.080107
-0.000403 -0.797074 -0.438500
-0.359510 -0.079109 0.638136
-0.717703 0.638559 0.279740
0.358944 -0.079934 0.638778
0.359550 -0.437439 0.279241
-0.358078 0.636863 -0.079391
0.358902 -0.079239 -0.796133
0.358432 0.280397 -0.439089
0.358853 -0.797725 -0.078745
-0.000891 0.277621 -0.797444
-0.359090 0.638740 -0.081502
0.717204 -0.079673 0.279628
-0.360953 -0.439188 -0.437144
-0.358352 -0.079877 -0.798813
0.357386 0.637442 0.635693
-0.357317 -0.439186 0.278815
0.356774 0.637117 0.638133
0.357715 0.279122 -0.438657
-0.358681 0.277979 -0.439160
0.717930 -0.438160 -0.080103
-0.717787 0.280622 -0.080249
-0.359434 -0.797694 -0.078965
-0.000498 -0.439085 -0.795751
0.356165 -0.080472 -0.798396
-0.360222 -0.796997 -0.079780
-0.000134 -0.796407 0.280510
-0.358722 0.280689 -0.439713
-0.358465 -0.080100 -0.798765
0.358133 -0.080550 0.638041
0.717832 -0.437205 -0.078864
-0.359744 0.639254 -0.079814
-0.359654 -0.081755 0.636038
-0.001217 0.635878 -0.438961
-0.358561 0.278544 -0.438007
0.000879 0.637962 0.278514
0.358737 0.637635 -0.078160
-0.718349 -0.077686 0.280024
-0.358282 -0.439095 -0.439222
-0.718000 -0.439213 -0.081106
-0.357711 -0.797607 -0.078642
-0.717230 0.638626 0.277720
-0.359027 -0.080033 0.638413
0.716940 0.278057 -0.079224
0.000587 -0.438383 -0.797962
0.719246 -0.078993 -0.438673
-0.715931 -0.079349 0.279634
0.717827 -0.438451 -0.080418
0.357725 -0.438722 -0.436855
-0.718835 -0.080174 -0.439439
0.360208 -0.799012 -0.079956
0.360498 -0.079755 -0.796209
-0.358999 -0.796649 -0.081729
0.718344 0.281042 0.637837
-0.358695 -0.437199 -0.438188
0.358190 0.277466 -0.439379
-0.359020 -0.079519 0.638516
-0.357944 -0.079819 0.639273
-0.003139 -0.797461 -0.438196
