OFF
256 0 0
-0.349096 -0.793753 -0.067602
-0.350534 0.623350 0.641579
-0.349847 0.621459 0.642623
0.012283 -0.435127 0.612042
0.360049 0.640718 0.611661
0.727858 -0.075620 0.265921
-0.713674 0.275680 0.632214
0.345011 0.273413 -0.449165
-0.706539 0.618356 0.290791
-0.350334 -0.792297 -0.067502
0.008149 -0.792327 -0.445407
-0.342738 -0.434718 0.292236
-0.717442 -0.084649 0.316079
-0.713318 -0.087414 0.316050
0.729964 0.619658 0.287035
0.709456 0.283181 -0.069552
-0.351829 0.622638 0.640749
-0.342374 -0.434367 0.292217
0.683549 -0.079405 -0.429312
0.709108 0.285666 -0.068674
-0.352305 0.622217 0.640794
0.360114 0.640797 0.612100
0.709302 0.283132 -0.070987
0.707151 0.284713 -0.068455
0.328904 -0.066319 -0.825360
-0.004836 -0.434801 -0.795245
-0.713347 0.273671 -0.060051
-0.713548 0.273277 -0.061327
-0.009726 0.290698 -0.790653
-0.351729 0.620660 0.640551
-0.342216 0.628057 -0.078150
0.343750 0.275289 -0.447974
0.001609 0.272892 0.620309
0.314784 -0.411064 -0.411103
-0.352105 0.622320 0.640140
0.013400 -0.438484 0.609331
0.688799 0.272464 0.614928
0.009001 -0.795484 -0.446330
0.345239 -0.077243 0.629052
0.350985 -0.787354 -0.098741
-0.706857 0.617265 0.293390
-0.335013 0.277542 -0.433208
-0.347290 -0.791124 -0.067375
0.357963 0.622892 -0.066201
0.706571 0.285651 -0.069163
0.344787 -0.416262 0.250262
0.709288 0.283172 -0.067847
-0.699809 -0.076483 -0.424623
0.359388 0.640655 0.613188
-0.349555 0.619626 0.640739
0.002530 0.274714 0.623069
-0.004799 -0.434587 -0.795463
0.343846 -0.077565 0.628037
0.729642 -0.076537 0.266163
-0.353644 -0.084891 -0.799968
0.361154 0.620120 -0.065689
0.009472 -0.792503 -0.446205
0.345744 0.274758 -0.449756
-0.344468 -0.072570 0.628470
-0.716406 -0.084901 0.317162
0.688268 0.269448 0.614041
0.012764 -0.436521 0.611674
-0.350199 0.621373 0.640794
0.342471 -0.078019 0.628659
-0.012777 0.636842 0.261667
-0.013554 0.637846 0.262711
0.313342 -0.412313 -0.411922
-0.349965 0.621290 0.641290
-0.344013 -0.071245 0.632833
0.359953 0.622183 -0.064140
0.010267 -0.794029 -0.444319
0.730739 -0.077814 0.265366
0.359715 0.622065 -0.066675
-0.336400 0.275920 -0.432000
0.729285 -0.074778 0.265398
0.313372 -0.412822 -0.412743
0.684045 -0.079310 -0.427908
-0.706433 0.618679 0.291041
-0.704458 -0.437984 -0.069317
-0.005360 -0.436063 -0.794799
0.004558 -0.790061 0.275312
0.349986 -0.784900 -0.100033
-0.708072 0.620386 0.290169
0.003557 0.275960 0.623496
-0.013787 0.638060 0.260777
0.343594 0.274213 -0.450164
0.690600 0.271121 0.612116
0.349950 -0.788924 -0.098855
0.012202 -0.435658 0.611898
0.360168 0.639039 0.612276
-0.352815 -0.795594 -0.067828
-0.715492 0.274794 0.633030
-0.713941 0.273497 0.633821
0.004208 -0.790683 0.274716
-0.700851 -0.075205 -0.426369
-0.701165 -0.077494 -0.427362
0.688196 0.267492 0.613554
0.313413 -0.410365 -0.411184
-0.352694 0.623270 0.640949
0.351635 -0.789239 -0.098099
-0.338533 -0.435602 -0.413605
0.344258 -0.078567 0.631016
-0.348183 -0.793171 -0.066928
0.683157 -0.079791 -0.429306
0.685042 -0.079962 -0.427592
-0.704218 0.617467 0.291386
0.313151 -0.411883 -0.409927
-0.342713 0.625605 -0.077033
0.730860 0.618626 0.287439
-0.702367 -0.073766 -0.424598
0.728363 -0.076713 0.266584
-0.713947 0.275468 -0.062420
0.360662 0.638723 0.614393
0.004609 -0.789558 0.276412
0.005149 -0.789598 0.274668
0.013093 -0.438557 0.613012
0.351429 -0.787771 -0.098304
-0.335068 0.276084 -0.431293
0.690632 0.271721 0.614757
0.343586 0.273768 -0.452284
-0.340806 0.626771 -0.078802
0.012807 0.643029 -0.422119
0.002371 0.271219 0.622514
0.360154 0.620644 -0.064972
0.731325 0.618709 0.286132
0.681879 -0.078508 -0.426697
-0.342471 -0.437436 0.291626
0.731248 0.621148 0.285471
-0.337098 0.274147 -0.433021
0.359228 0.622584 -0.067271
0.728077 -0.074118 0.266979
0.328151 -0.065056 -0.825080
-0.344450 -0.074118 0.629744
0.328194 -0.065365 -0.827217
0.712344 -0.457528 -0.093650
0.326776 -0.065067 -0.825119
0.347351 0.274439 -0.450126
0.013288 0.643056 -0.421779
0.013978 -0.439449 0.610107
-0.706403 0.619469 0.291462
-0.348325 -0.793533 -0.067220
-0.351684 0.623131 0.641379
0.728491 -0.076345 0.267229
-0.351499 0.621947 0.641642
0.358548 0.637802 0.613713
0.009808 -0.791274 -0.446592
0.708629 0.286981 -0.067950
-0.012979 0.636370 0.263488
-0.343554 0.628030 -0.077870
-0.351941 -0.084918 -0.800207
-0.702001 -0.076220 -0.426512
0.730057 -0.075631 0.265367
0.009761 -0.793552 -0.446458
0.728623 0.620886 0.285367
0.358721 0.620847 -0.066837
-0.012461 0.637895 0.261619
-0.350307 0.623295 0.641519
0.002920 -0.789345 0.274942
-0.704060 0.617970 0.290125
-0.004413 -0.436437 -0.795957
-0.700606 -0.073620 -0.426697
-0.007173 -0.435032 -0.797733
0.360538 0.640104 0.611549
-0.336392 0.276136 -0.432404
-0.714490 0.273920 0.631653
0.346227 -0.076625 0.631137
0.729139 -0.076147 0.267517
0.731015 0.619036 0.285882
0.359342 0.641428 0.611901
0.343840 0.273874 -0.447990
0.329093 -0.063693 -0.825397
-0.344254 -0.434970 0.292530
0.709836 0.286058 -0.070786
-0.342599 -0.436691 0.292051
-0.351985 0.621706 0.640877
0.313577 -0.411039 -0.410475
-0.011590 0.637758 0.262474
-0.336302 -0.433042 -0.411090
-0.715009 -0.083925 0.318102
0.345325 0.273346 -0.450491
0.710697 0.284496 -0.069603
-0.013058 0.638529 0.263351
0.688969 0.271309 0.613929
0.712963 -0.458136 -0.095942
0.329579 -0.064080 -0.825784
0.312665 -0.413478 -0.410480
0.350906 -0.787640 -0.099034
-0.349216 -0.791694 -0.066036
-0.010699 0.289097 -0.789283
-0.341648 -0.435743 0.292942
0.707171 0.283152 -0.070109
-0.352981 -0.083877 -0.798656
0.345187 0.274442 -0.449894
0.350791 -0.785761 -0.099696
-0.011764 0.288226 -0.789596
-0.337346 0.274573 -0.433560
-0.337079 0.276393 -0.433510
-0.712751 0.274054 0.634428
-0.704841 -0.436598 -0.067850
0.344561 -0.415561 0.250853
-0.706098 0.619061 0.290903
-0.351600 0.622933 0.640747
0.013677 -0.437632 0.612864
-0.715535 -0.086181 0.316807
0.345229 -0.417308 0.252869
0.009312 -0.792801 -0.445998
0.732016 0.619607 0.285053
-0.713188 0.273950 0.632378
-0.010584 0.290774 -0.788532
0.328762 -0.065705 -0.825269
-0.336490 -0.434188 -0.411598
-0.012834 0.288977 -0.790007
0.685246 -0.079074 -0.429694
0.009818 -0.793278 -0.444486
0.004066 -0.790330 0.275056
0.004660 -0.790037 0.274063
-0.716744 -0.084658 0.317789
0.313088 -0.413199 -0.410018
0.013628 0.642421 -0.423401
0.012856 -0.437588 0.614335
0.314428 -0.412556 -0.410135
-0.715997 -0.085630 0.318138
0.012795 -0.436164 0.612531
-0.342439 -0.434233 0.293369
0.008913 -0.795363 -0.444565
0.359636 0.620088 -0.065353
-0.353951 -0.084529 -0.799510
-0.341086 0.626172 -0.076722
0.729194 -0.073544 0.266517
-0.701730 -0.075489 -0.426134
0.003346 -0.790399 0.275201
0.707221 0.285544 -0.068338
-0.717847 -0.085939 0.318875
-0.707601 0.618979 0.292140
0.345485 -0.417358 0.250591
-0.353608 -0.084561 -0.798836
0.328198 -0.066161 -0.824263
0.690075 0.271013 0.614947
0.344037 -0.076595 0.630131
0.689876 0.271591 0.614658
0.328111 -0.064800 -0.824799
0.708177 0.285275 -0.070558
0.688678 0.271514 0.615364
-0.713057 0.274531 -0.061789
0.014798 0.643012 -0.422433
0.683906 -0.078935 -0.429370
-0.700521 -0.075635 -0.426492
-0.344175 -0.073559 0.630960
0.709391 0.282771 -0.069010
-0.705978 0.619714 0.290948
0.002419 0.273880 0.621709
-0.351280 -0.793701 -0.066518
-0.714443 0.274238 0.633449
0.357988 0.621595 -0.066729
0.713090 -0.459377 -0.093409
-0.339886 -0.435597 -0.414035
