OFF
256 0 0
0.353994 -0.641856 0.068070
0.354116 -0.644681 0.067125
0.021387 -0.647284 -0.266297
0.331201 0.417733 0.404662
-0.344654 0.422098 0.410596
-0.346974 -0.642830 0.070536
0.320266 0.430434 -0.236546
0.716015 0.080952 0.429148
-0.001562 0.799690 0.417452
-0.716970 -0.643095 -0.270176
-0.331601 -0.280227 0.418204
0.699834 -0.612458 -0.278154
-0.343045 0.777345 0.083175
0.698247 -0.610626 -0.279190
-0.013847 0.420082 0.790207
-0.331837 -0.279964 0.419049
0.355897 -0.642731 0.067375
0.691052 -0.265876 0.066699
-0.332047 -0.277393 0.417301
-0.717693 -0.642944 -0.270393
0.355756 -0.600981 -0.631424
0.331287 -0.248556 0.401083
0.331156 0.797745 0.069905
-0.346344 -0.641681 0.069403
0.716633 0.081384 0.429672
0.001860 -0.633719 0.436291
0.355880 -0.643041 0.066303
-0.708979 -0.299106 0.080828
-0.354090 0.070474 0.775538
0.355266 -0.644300 0.066298
-0.722190 0.096638 0.422332
0.701277 -0.254035 -0.619110
0.701844 -0.253640 -0.621325
0.321524 0.430581 -0.237664
0.715945 0.080223 0.431578
-0.690819 -0.297085 -0.602667
-0.343964 0.424428 0.411038
0.321063 0.433932 -0.237809
0.000095 -0.634048 0.435008
-0.014328 0.420510 0.788854
-0.357594 0.070818 0.776573
0.696970 0.442720 0.093393
0.337936 0.079590 -0.606227
-0.699547 0.072918 -0.267618
-0.706959 -0.297991 0.082247
-0.690081 -0.296627 -0.603362
-0.346371 -0.643807 -0.617969
-0.297243 0.407745 -0.261317
0.692028 -0.266777 0.067476
-0.013023 0.419989 0.788929
0.332379 0.418603 0.404757
0.702414 -0.255176 -0.616759
0.018801 -0.649301 -0.264998
0.332808 0.796926 0.068844
-0.298510 0.407885 -0.260040
0.332833 0.418849 0.406300
-0.000412 -0.289437 -0.613397
0.338263 0.079934 -0.607092
-0.720537 0.441658 0.078113
0.331412 0.421240 0.404949
-0.002670 0.797912 0.418422
0.006183 -0.265858 0.773330
-0.001807 0.799213 0.418796
-0.343310 0.424035 0.411879
0.333190 0.796719 0.069551
-0.707934 -0.299864 0.081396
0.697850 -0.611478 -0.276732
-0.356858 0.071220 0.776269
-0.342807 0.776056 0.082741
0.333365 0.419871 0.404360
0.355117 -0.642440 0.068003
0.329638 -0.246257 0.401560
0.701833 -0.257890 -0.618699
0.360754 0.087866 0.757480
0.697220 0.444766 0.092364
0.331213 0.418694 0.407141
0.329955 -0.247564 0.403443
0.701567 0.097951 -0.249392
-0.000477 0.441040 -0.624548
-0.002346 0.797479 0.420807
0.690005 -0.267659 0.068309
-0.015388 0.419528 0.789104
-0.344210 0.424051 0.412612
0.007214 -0.267252 0.773027
-0.341489 0.777499 0.081568
-0.014820 0.422430 0.789524
-0.002077 0.439961 -0.623583
-0.688549 -0.296510 -0.601896
0.354927 -0.600119 -0.630762
-0.716728 -0.642885 -0.270367
-0.001661 -0.290523 -0.614388
0.361122 0.087758 0.757003
0.322788 0.431824 -0.236277
0.006365 0.802657 -0.283886
-0.342974 0.422827 0.411024
0.359494 0.087220 0.757274
0.004438 0.804479 -0.281227
0.700108 -0.255443 -0.618629
0.330905 0.418691 0.404713
0.690301 -0.265718 0.068835
0.005307 -0.267437 0.772362
0.700682 0.098799 -0.250657
0.320253 0.433387 -0.235402
-0.003905 0.441340 -0.622062
-0.000867 -0.289184 -0.612995
0.331082 -0.246773 0.402361
-0.343507 0.777669 0.083149
-0.334160 -0.278133 0.418844
-0.703009 0.072864 -0.267363
-0.316519 0.072337 -0.622187
-0.003098 0.800033 0.418744
-0.715906 -0.643278 -0.269407
0.701436 0.096585 -0.249605
-0.299929 0.408787 -0.260611
0.332224 0.418628 0.404464
0.333381 0.795939 0.069380
0.702079 -0.254298 -0.617593
-0.689419 -0.296392 -0.602289
-0.702817 0.074399 -0.266099
0.360518 0.086707 0.755794
0.714993 0.081367 0.430720
-0.318461 0.073526 -0.619661
0.006696 -0.266290 0.772134
-0.000383 0.440158 -0.623698
-0.299214 0.408616 -0.260448
-0.690707 -0.297152 -0.601145
0.007121 0.804373 -0.280900
-0.012348 0.420848 0.788384
-0.689158 -0.297703 -0.601955
0.320935 0.433080 -0.238969
-0.354174 0.070796 0.775115
0.700872 -0.254221 -0.617075
-0.002818 0.799406 0.419429
-0.002595 0.440896 -0.620760
0.716757 0.081039 0.430107
-0.703523 0.072848 -0.266384
0.320653 0.433643 -0.237264
-0.347998 -0.644759 0.072333
-0.355559 0.071808 0.775968
-0.015586 0.418984 0.790788
0.695634 0.444056 0.093185
0.356644 -0.599278 -0.632159
0.002580 -0.633052 0.434329
-0.298782 0.408651 -0.260912
-0.014257 0.421208 0.791249
-0.013438 0.421968 0.789631
-0.002224 0.440910 -0.622958
-0.721734 0.097720 0.425006
-0.333365 -0.278806 0.419017
-0.691087 -0.295979 -0.602244
0.356305 -0.600523 -0.633241
0.352477 -0.644551 0.067390
0.322256 0.432653 -0.236054
-0.702127 0.073559 -0.267276
-0.344145 -0.643594 -0.619127
-0.301327 0.408850 -0.261413
-0.347082 -0.643636 -0.619253
0.359565 0.087597 0.757553
0.332840 0.418888 0.404601
-0.702682 0.071300 -0.267096
0.318578 0.431353 -0.237119
0.701513 -0.256690 -0.619854
-0.014990 0.419055 0.790040
0.700671 -0.255483 -0.618106
0.334267 0.798184 0.070157
0.696649 0.445073 0.091634
-0.347117 -0.643234 -0.622042
-0.721799 0.439315 0.076698
-0.705862 -0.299247 0.080780
0.320343 0.433436 -0.238146
-0.721618 0.441170 0.077033
0.717610 0.080400 0.429438
-0.720670 0.440546 0.077972
0.321323 0.432547 -0.237114
-0.299025 0.408756 -0.261492
0.689325 -0.264720 0.066846
0.699345 -0.611402 -0.277889
-0.015861 0.420367 0.790852
-0.706286 -0.299117 0.080888
0.006029 0.805756 -0.280018
-0.689679 -0.298187 -0.602245
0.353836 -0.643744 0.067461
0.019459 -0.648561 -0.265772
-0.702231 0.074020 -0.268044
0.002639 -0.634110 0.436374
0.320232 0.434305 -0.237562
-0.356588 0.072788 0.778195
0.321611 0.430995 -0.236805
-0.347433 -0.642221 0.069679
0.320488 0.430286 -0.236522
-0.355366 0.071203 0.776841
-0.001895 -0.290550 -0.615119
-0.717359 -0.642701 -0.271733
0.332660 0.797857 0.069700
0.699850 -0.257409 -0.617605
-0.722467 0.095122 0.423207
-0.722145 0.439368 0.076246
0.321568 0.432644 -0.238232
0.354952 -0.600083 -0.630830
0.321114 0.433241 -0.237597
-0.002241 0.797956 0.418662
0.002731 -0.635433 0.437431
-0.703222 0.072675 -0.266483
0.330722 -0.245935 0.403637
0.699595 -0.610910 -0.277138
-0.720531 0.439220 0.079261
0.697065 0.445153 0.093626
-0.346675 -0.643241 -0.619700
-0.715077 -0.640722 -0.269418
-0.722746 0.097457 0.423967
-0.706606 -0.300723 0.081093
0.353949 -0.641725 0.067195
0.696911 -0.611598 -0.276330
0.702863 -0.254469 -0.616355
-0.721815 0.099020 0.422016
-0.002066 0.441768 -0.623426
-0.706392 -0.299763 0.079365
0.700373 0.097695 -0.251027
-0.348270 -0.642165 0.071739
0.698010 -0.613192 -0.277420
0.689722 -0.266584 0.066947
-0.013169 0.421300 0.789571
0.695963 0.444133 0.093301
-0.001377 0.797613 0.420627
0.696320 0.443191 0.092866
-0.346976 -0.642480 0.068457
-0.342913 0.777356 0.084771
-0.300553 0.409263 -0.259733
-0.002526 0.798860 0.419974
0.019733 -0.647880 -0.264717
-0.348715 -0.642309 0.071205
0.353425 -0.643758 0.068879
0.018660 -0.648001 -0.266269
0.701021 0.100202 -0.252681
-0.706315 -0.297904 0.079641
-0.347452 -0.643402 0.070937
-0.357645 0.072004 0.777050
0.690646 -0.263786 0.067528
-0.341199 0.777757 0.082599
-0.701156 0.071186 -0.266033
-0.349125 -0.643114 0.070168
-0.691505 -0.297349 -0.600799
-0.721249 0.099619 0.423495
0.319943 0.431004 -0.236436
0.689289 -0.265449 0.068090
-0.707019 -0.298593 0.081234
-0.347172 -0.643926 -0.619179
-0.702415 0.073123 -0.266813
0.007884 -0.266134 0.770382
0.006688 0.804354 -0.280564
0.357149 -0.600288 -0.631983
0.002202 -0.635062 0.437936
-0.354947 0.071178 0.774028
0.019484 -0.648348 -0.265199
0.332172 0.797803 0.069891
-0.321100 0.072279 -0.621477
