OFF
256 0 0
-0.337120 0.418068 -0.240651
0.675001 -0.282174 0.071293
0.360518 -0.614017 0.075346
-0.349874 -0.637652 -0.608112
0.685308 0.409600 0.066467
-0.337444 0.427180 0.427155
-0.001365 -0.231042 0.768395
-0.678497 -0.274949 -0.613069
-0.731106 -0.619096 -0.286793
-0.362953 -0.616580 0.057993
0.677450 -0.282167 0.071760
0.008792 0.418168 -0.619787
-0.345892 0.079608 0.753896
-0.336647 0.419222 -0.238812
0.383152 0.094591 0.785144
0.001232 0.788876 0.415052
-0.336816 0.420786 -0.242385
0.675241 -0.282629 0.070030
0.681726 0.410336 0.070201
-0.683018 0.075988 -0.263287
0.361801 -0.614362 0.075591
-0.692691 -0.274985 0.078282
-0.003203 -0.608486 0.412943
-0.364760 -0.617757 0.057631
-0.002042 -0.229288 0.768933
-0.347885 -0.640772 -0.607604
0.025052 -0.609302 -0.262456
-0.013506 -0.290834 -0.602250
0.344036 0.417485 0.397697
0.327521 0.443505 -0.254092
0.698709 0.082158 0.407270
-0.006185 0.773678 -0.265967
0.361298 -0.614172 0.076236
-0.004819 -0.611780 0.409856
-0.369107 -0.273824 0.455587
-0.006714 0.776141 -0.266332
-0.353572 0.779818 0.084459
0.359687 -0.614318 0.075883
-0.014251 -0.288766 -0.601034
0.681330 0.411476 0.067972
0.360475 -0.614444 0.073728
0.327175 0.442719 -0.252617
-0.346635 0.079103 0.754235
-0.690438 -0.275194 0.078648
-0.730956 -0.619183 -0.286512
-0.334753 0.075212 -0.609493
-0.693891 0.083212 0.403842
-0.679875 -0.275257 -0.612050
0.007446 0.418316 -0.620573
0.008319 0.421532 -0.620810
0.689617 -0.640398 -0.284957
-0.350697 -0.639177 -0.610204
0.001188 0.790459 0.416651
-0.731762 -0.618842 -0.285220
0.354365 -0.627644 -0.616595
-0.014537 -0.290683 -0.601206
0.002021 0.789399 0.415166
-0.679240 -0.275704 -0.611673
-0.698996 0.434640 0.072276
0.360132 -0.261977 0.437349
-0.732610 -0.618932 -0.284310
-0.731322 -0.618776 -0.284291
0.339317 0.068576 -0.618279
-0.353869 0.780334 0.084763
0.353279 -0.626370 -0.616595
0.675480 -0.283112 0.070698
0.360085 -0.614478 0.075429
-0.350268 -0.639336 -0.606299
0.681213 0.411395 0.069038
0.330519 0.443581 -0.254563
-0.679336 -0.275438 -0.613817
-0.344117 0.079922 0.752190
-0.682378 0.077002 -0.265692
-0.350334 -0.639882 -0.607830
0.351497 0.782095 0.072933
-0.349715 -0.639557 -0.607910
0.675182 -0.282041 0.071736
0.009858 0.419409 -0.621744
0.360235 -0.615136 0.072947
0.350158 0.781570 0.074099
-0.362552 -0.616411 0.058380
-0.335772 0.074167 -0.608912
-0.689636 -0.275308 0.080357
-0.353885 0.779276 0.082625
0.338428 0.070416 -0.617959
0.011752 0.406666 0.782182
-0.731064 -0.619069 -0.285683
-0.006022 0.777215 -0.268327
-0.000193 -0.229250 0.768499
0.681064 0.411280 0.067879
-0.690295 -0.275070 0.079003
-0.354144 0.779115 0.084540
-0.693664 0.081349 0.402371
0.012429 0.408992 0.783925
-0.005664 -0.610793 0.413040
-0.336281 0.073336 -0.608858
-0.015640 -0.289627 -0.602540
-0.000503 -0.230464 0.769822
0.689903 -0.640477 -0.284820
0.361808 -0.615536 0.074552
0.025188 -0.608427 -0.261973
0.328652 0.443839 -0.251071
0.344621 0.417106 0.395590
0.679714 0.408986 0.069397
0.682718 0.411197 0.067467
0.339663 0.070091 -0.616599
-0.677930 -0.278165 -0.614290
0.329272 0.444005 -0.251636
-0.335726 0.074606 -0.609935
-0.353119 0.778770 0.085004
-0.699492 0.433391 0.071917
-0.005213 0.776331 -0.269399
-0.349571 -0.639851 -0.608225
-0.338093 0.417698 -0.238440
0.338322 0.068119 -0.617851
-0.004043 0.776112 -0.269291
0.338855 0.070556 -0.618212
0.698224 0.080197 0.407794
-0.689648 -0.273795 0.080298
-0.698945 0.434042 0.069862
0.364220 -0.614323 0.075188
-0.682904 0.076722 -0.264089
0.680604 0.410713 0.067648
-0.694537 0.082843 0.402489
-0.349078 -0.638960 -0.607983
0.697580 0.081000 0.407625
0.698439 0.084348 0.408356
0.682664 0.067656 -0.283908
0.010359 0.408694 0.785804
-0.003995 -0.608644 0.412106
-0.700460 0.435712 0.070349
-0.352417 0.779470 0.083880
0.361631 -0.263084 0.437431
-0.005470 0.774505 -0.268910
0.011416 0.409217 0.785738
-0.351440 -0.639781 -0.607446
0.353620 0.780416 0.073382
-0.006539 0.776263 -0.268934
0.351784 0.782122 0.073371
-0.335436 0.427387 0.424699
-0.015303 -0.289741 -0.602817
0.001542 0.790240 0.417479
-0.004769 0.776098 -0.269172
0.689972 -0.641155 -0.283397
0.338557 0.070736 -0.616377
-0.698795 0.434330 0.070358
-0.698874 0.432129 0.071226
0.008269 0.419447 -0.619747
-0.693688 0.081011 0.403950
0.346016 0.416333 0.395920
-0.684659 0.078250 -0.264454
-0.344953 0.079897 0.753482
0.022330 -0.607435 -0.263713
-0.014053 -0.289869 -0.602734
-0.682130 0.076337 -0.263549
0.680900 0.409730 0.068185
0.382246 0.094180 0.784872
-0.699499 0.433978 0.071884
-0.000379 -0.229035 0.768615
-0.730695 -0.619452 -0.284705
-0.700097 0.432905 0.070075
-0.680992 0.076514 -0.264135
-0.700127 0.434917 0.071634
0.680071 0.068148 -0.282598
-0.338235 0.425820 0.426936
-0.335105 0.427076 0.426145
0.008771 0.418888 -0.618508
-0.335402 0.427666 0.425564
-0.689592 -0.271614 0.077311
0.011042 0.408708 0.785157
-0.691164 -0.274362 0.079611
0.701729 -0.266914 -0.598478
0.381742 0.095348 0.786581
0.339093 0.069734 -0.618516
0.001355 0.790805 0.418379
-0.730426 -0.617891 -0.283739
0.382766 0.094266 0.784338
0.358882 -0.262422 0.436452
-0.369816 -0.274258 0.456026
0.011279 0.407857 0.784637
0.338326 0.068621 -0.616187
-0.363605 -0.616910 0.055372
-0.351865 0.778552 0.084124
0.012802 0.408582 0.783528
0.345201 0.417101 0.396858
0.699155 0.084397 0.406284
0.675376 -0.280828 0.072018
0.337787 0.069579 -0.615866
-0.369039 -0.275586 0.457046
0.359473 -0.263637 0.437897
-0.354705 0.779802 0.083088
-0.004097 -0.609118 0.410428
0.675237 -0.282740 0.071281
-0.016269 -0.290056 -0.602749
-0.349345 -0.638916 -0.607864
0.702014 -0.266491 -0.598133
-0.366932 -0.273712 0.457629
0.024089 -0.610178 -0.261805
0.351625 0.780698 0.072260
0.340948 0.069009 -0.616133
-0.335286 0.074620 -0.609838
0.681722 0.067923 -0.281215
0.688814 -0.640031 -0.282901
0.337890 0.069126 -0.617660
-0.335959 0.426294 0.425482
-0.730520 -0.618431 -0.284183
0.684389 0.410664 0.067485
0.345598 0.416523 0.396301
0.702243 -0.266713 -0.597274
0.698184 0.080271 0.407485
-0.733176 -0.617809 -0.286461
-0.349058 -0.639323 -0.606146
0.339748 0.067034 -0.617999
0.697384 0.081781 0.407461
0.701338 -0.268273 -0.597055
0.690224 -0.640472 -0.284781
0.360224 -0.614970 0.074470
-0.698365 0.432722 0.071966
0.360226 -0.613409 0.075634
-0.335129 0.428217 0.425914
-0.346104 0.080346 0.752429
0.698373 0.080851 0.408031
0.008116 0.419996 -0.620714
0.329417 0.442669 -0.254321
-0.700734 0.435607 0.069516
-0.004166 0.775188 -0.268054
-0.005206 0.776434 -0.269675
0.361928 -0.261556 0.437107
-0.368142 -0.275082 0.455424
0.350370 0.780250 0.072952
0.007704 0.420023 -0.621256
-0.678300 -0.275177 -0.612237
0.007457 0.418356 -0.621887
-0.352094 0.778360 0.083951
0.697693 0.081942 0.406587
0.008231 0.418206 -0.619893
-0.002700 -0.609296 0.411102
-0.732831 -0.620676 -0.284344
0.359349 -0.263465 0.438498
-0.369381 -0.274762 0.454970
0.330835 0.444627 -0.253205
0.011658 0.407981 0.783443
-0.731189 -0.618811 -0.284920
-0.013794 -0.292123 -0.602707
0.023578 -0.608474 -0.260007
-0.336639 0.417806 -0.240940
-0.694577 0.080684 0.405119
0.682089 0.410761 0.069694
0.328880 0.442895 -0.252896
0.024683 -0.606869 -0.261690
0.352092 -0.625827 -0.615667
-0.336927 0.420439 -0.239453
-0.730140 -0.620017 -0.284216
0.000061 0.789349 0.417291
0.006893 0.417331 -0.621409
0.023250 -0.608179 -0.260818
