OFF
256 0 0
-0.079872 0.357334 -0.800196
0.628385 -0.000642 -0.452044
-0.086577 -0.389457 -0.783476
-0.439222 0.346747 -0.407263
0.631885 -0.332583 0.649065
0.665583 0.013422 0.271489
0.256191 -0.700426 -0.062136
0.629379 -0.332335 0.649987
0.294415 -0.689347 0.622783
0.657312 0.704529 0.263210
-0.090031 -0.717565 0.286524
-0.452500 0.719353 -0.079787
0.295746 0.704409 0.641370
-0.067014 -0.327020 0.612507
-0.079615 0.356754 -0.801192
-0.427238 0.000546 0.635529
0.630036 -0.002496 -0.451510
0.629162 -0.001956 -0.452799
0.645640 -0.703534 0.282030
-0.791496 0.001201 0.263618
-0.427301 -0.005030 -0.788778
-0.079283 0.358597 -0.801617
0.264762 -0.019520 -0.798816
-0.817791 0.367764 -0.083737
-0.452180 -0.355699 0.307696
-0.451356 -0.355297 0.309117
0.256392 -0.700956 -0.058222
-0.453461 -0.353944 0.309016
0.294967 0.017935 0.641709
0.265716 -0.020254 -0.797847
-0.450753 -0.352943 -0.442243
0.619935 0.345217 -0.096260
-0.790580 0.000647 0.263882
-0.452909 0.718200 -0.079142
-0.789201 0.002082 0.263707
-0.075194 -0.729112 -0.441403
0.254133 0.360519 -0.435102
-0.065665 -0.327503 0.611628
-0.818143 0.367172 -0.082633
0.296225 0.703579 0.641721
0.627805 -0.002616 -0.452638
-0.065233 -0.326714 0.612622
-0.797018 -0.377288 -0.071661
-0.436320 0.348540 -0.407156
-0.793138 0.001158 0.264399
-0.068647 0.352736 0.627368
-0.452039 -0.729787 -0.089186
-0.090602 -0.716036 0.286344
-0.079413 0.357564 -0.802951
-0.067557 -0.327417 0.610531
0.252883 0.360279 -0.434847
-0.797582 -0.377691 -0.072226
0.619411 0.343421 -0.094531
-0.451759 -0.354676 0.313194
-0.452255 -0.352940 -0.440154
-0.792370 -0.013288 -0.426903
0.629410 -0.002834 -0.451820
0.643196 0.371342 0.636304
-0.067522 0.352034 0.628171
-0.452556 -0.354360 0.308348
-0.424600 0.344685 0.271117
-0.079813 0.356248 -0.801736
0.255817 -0.701689 -0.060679
-0.066371 -0.326376 0.614286
0.295125 0.016384 0.640043
0.264438 -0.017876 -0.797345
0.265567 -0.019160 -0.799240
0.293026 0.016159 0.641364
-0.817513 0.366785 -0.083386
0.659701 0.703023 0.261370
0.285162 -0.352202 -0.429397
-0.086216 -0.389201 -0.782191
-0.090156 -0.717793 0.285134
-0.437108 0.345954 -0.404744
0.258019 -0.699027 -0.060586
0.643872 0.369605 0.637123
-0.426108 0.343144 0.272364
0.293072 0.016972 0.639571
-0.427754 -0.001390 0.633360
-0.087909 -0.716413 0.287614
-0.426630 -0.004813 -0.787722
0.644432 0.370396 0.634492
0.653383 -0.377490 -0.094694
-0.427549 -0.004688 -0.786780
-0.082925 0.715726 -0.432921
-0.090211 -0.717006 0.287978
0.644316 0.371122 0.637458
0.295113 0.703083 0.642298
-0.077263 0.357898 -0.801839
0.297383 0.702292 0.642381
-0.087454 -0.389088 -0.780731
-0.069458 0.351617 0.629047
0.659458 0.702630 0.261338
0.295800 -0.690361 0.622961
-0.438159 0.347938 -0.406346
-0.435936 0.344565 -0.404837
-0.452623 -0.733287 -0.090892
-0.426123 0.343477 0.272746
-0.451274 -0.353421 -0.442791
0.284284 -0.353670 -0.428981
-0.090155 0.735482 0.269506
0.631175 -0.333393 0.648097
0.664333 0.014810 0.270036
0.619182 0.344225 -0.097003
-0.080348 0.358149 -0.800518
0.273970 0.728519 -0.082314
-0.089470 -0.718290 0.287093
0.297258 0.701275 0.641214
-0.088031 -0.720549 0.284709
-0.090395 0.737639 0.270767
0.644458 0.372590 0.634973
-0.436706 0.348054 -0.405495
-0.080329 0.356093 -0.801449
0.294037 0.016043 0.641495
-0.450970 0.719884 -0.078172
-0.428788 -0.000563 0.633971
-0.085106 0.715667 -0.433603
-0.086152 -0.390379 -0.778765
-0.451449 0.719954 -0.078544
-0.451065 -0.353873 -0.441564
0.296298 0.017630 0.640259
0.252276 0.362316 -0.435041
0.294768 -0.689922 0.622571
0.284924 -0.354264 -0.427995
-0.450638 -0.733234 -0.089522
-0.090714 0.737901 0.268032
-0.089141 -0.718560 0.286479
-0.452056 -0.733099 -0.088750
0.297187 0.704083 0.640837
-0.072943 -0.731164 -0.439295
-0.790803 -0.015550 -0.426567
-0.452514 0.721171 -0.078505
-0.085828 -0.388278 -0.781543
-0.090414 0.737383 0.270703
-0.088908 -0.717613 0.284526
-0.425547 0.344743 0.270721
-0.068547 0.351212 0.627036
0.294170 0.015618 0.642725
-0.453640 -0.732453 -0.090621
-0.067992 0.352336 0.629724
-0.426758 0.343850 0.271881
0.643652 0.369400 0.636824
-0.798535 -0.377912 -0.072754
-0.078427 0.356888 -0.800048
0.655209 -0.375801 -0.092268
-0.789320 0.000836 0.262048
-0.451717 -0.353239 -0.441417
-0.451414 0.717513 -0.080472
-0.073594 -0.731095 -0.439743
0.295466 0.017087 0.640799
-0.789946 -0.016696 -0.424738
-0.069138 0.354005 0.626686
0.252732 0.361020 -0.435468
0.631947 -0.004380 -0.453272
0.297864 0.703541 0.641075
-0.090060 0.736902 0.269721
0.294588 -0.689745 0.622412
-0.791260 0.000444 0.264051
-0.451976 -0.353957 -0.440727
-0.797554 -0.378198 -0.073615
-0.796667 -0.376457 -0.070853
-0.069650 0.353447 0.628720
-0.790321 -0.015824 -0.426197
0.285150 -0.355891 -0.428679
0.643611 0.370113 0.637225
0.618285 0.344329 -0.096532
0.642631 0.369514 0.636308
-0.817049 0.367690 -0.081201
0.618777 0.343676 -0.095035
-0.425636 -0.005469 -0.787365
-0.067489 -0.328726 0.614078
0.664819 0.012432 0.272081
0.296024 -0.690271 0.623593
0.294256 -0.689192 0.622887
-0.792752 -0.015505 -0.426418
-0.430507 0.000127 0.633997
-0.088861 -0.718031 0.286480
-0.426702 0.345757 0.272226
-0.078875 0.358690 -0.800334
-0.078581 0.358104 -0.802103
0.292949 -0.690065 0.621976
-0.083892 0.712642 -0.431686
-0.428425 -0.000756 0.635190
0.256724 -0.700390 -0.061811
-0.790579 0.000925 0.262935
0.644072 -0.701137 0.281723
-0.818217 0.366862 -0.083309
-0.794839 -0.378535 -0.073481
-0.792758 0.000255 0.263317
-0.790978 0.001020 0.261714
-0.792032 -0.015520 -0.426139
-0.436610 0.347286 -0.405990
0.293964 0.016692 0.639618
-0.090590 -0.716443 0.285660
-0.791549 -0.015568 -0.425076
-0.080016 0.357018 -0.801932
-0.079504 0.356094 -0.799439
0.659646 0.703430 0.262445
0.297418 0.702526 0.642218
-0.090871 -0.718362 0.285635
0.256726 -0.701059 -0.058615
-0.452902 -0.352334 -0.440595
0.275436 0.727523 -0.082369
-0.068839 0.352687 0.628796
0.283295 -0.353404 -0.428088
-0.437959 0.347082 -0.407174
0.654374 -0.377295 -0.093333
-0.074390 -0.729072 -0.437905
-0.790101 0.002034 0.264653
0.621091 0.344415 -0.096447
0.655337 -0.376554 -0.091998
0.628677 -0.333049 0.647907
-0.068801 0.351896 0.628015
-0.453470 -0.355309 0.308321
0.662771 0.011508 0.273626
-0.427512 0.341452 0.272482
0.297426 0.704696 0.641255
0.646196 -0.701037 0.282233
-0.428161 -0.001127 0.635702
0.654240 -0.376764 -0.092023
0.663434 0.015245 0.270122
0.646577 -0.701698 0.280681
-0.088364 -0.718907 0.288249
-0.086666 -0.389091 -0.781315
0.658960 0.706401 0.261755
-0.427807 -0.000462 0.633545
-0.088333 -0.716979 0.288260
0.664919 0.011680 0.270038
-0.450653 0.718892 -0.078444
0.294200 -0.689604 0.623099
0.646530 -0.701691 0.281660
0.257752 -0.700341 -0.060046
-0.451109 0.718299 -0.079260
-0.452276 -0.354876 0.310215
-0.791330 -0.014929 -0.426257
-0.067241 -0.327662 0.613465
0.661974 0.013668 0.272522
0.250992 0.361404 -0.436088
-0.449285 0.718547 -0.077563
-0.791911 -0.001169 0.264317
-0.452888 -0.352418 -0.443992
0.628794 -0.002699 -0.451722
-0.073453 -0.731447 -0.437439
-0.790486 0.000141 0.262665
-0.430759 -0.000824 0.635379
-0.425772 -0.005110 -0.786009
-0.452051 -0.352155 -0.443100
0.653477 -0.376277 -0.093429
-0.426310 -0.005318 -0.787896
0.293860 -0.689984 0.622462
-0.790506 -0.017401 -0.427539
-0.454125 -0.354980 0.309849
-0.796436 -0.377259 -0.072684
0.293936 0.015542 0.641235
-0.089741 0.737172 0.269600
0.272616 0.727428 -0.080442
