OFF
256 0 0
0.425176 0.341807 -0.445522
-0.277973 0.022333 0.647257
-0.280446 -0.713378 -0.092704
-0.279445 -0.712290 -0.091569
0.793716 -0.028416 -0.445536
-0.635028 -0.026198 0.306160
0.088633 -0.341365 0.638070
0.449009 -0.724691 -0.077116
0.094085 0.357859 0.627832
0.805209 0.009574 0.278216
0.423711 0.341234 -0.446065
0.437603 -0.342897 0.283348
0.446239 0.020718 0.667047
0.442363 0.009886 -0.789929
0.439041 -0.342338 0.283799
0.441113 0.371742 0.282053
-0.279799 -0.711038 -0.093347
0.086118 -0.705405 -0.433416
0.447060 0.715736 -0.079395
0.421566 -0.352699 -0.438655
0.804019 0.007505 0.277868
0.090177 -0.341698 0.637057
0.440404 0.370732 0.285079
0.440283 0.372055 0.284024
-0.649406 -0.390564 0.625967
0.449995 -0.725055 -0.078020
-0.646258 -0.390921 0.623834
0.437217 -0.342490 0.283218
-0.642379 0.352549 0.626446
-0.268890 0.705047 0.640900
0.447256 -0.726077 -0.078284
-0.633968 -0.025093 0.305427
0.437644 -0.342137 0.282850
-0.648122 -0.390336 0.624577
-0.634317 0.721652 0.281002
-0.632278 -0.703579 0.255066
-0.278902 0.023400 0.647154
-0.277168 0.332953 -0.436892
-0.633283 0.719482 0.279431
0.795254 -0.029127 -0.447176
0.803212 0.008141 0.280370
-0.642625 0.351543 0.628956
0.450869 -0.726357 -0.077193
-0.283059 -0.016427 -0.788348
0.442817 0.009997 -0.788993
0.079472 0.353532 -0.772446
-0.278614 -0.711021 -0.093352
0.422896 0.339631 -0.447328
0.449392 0.715298 -0.081874
-0.632586 0.721222 0.281389
0.076739 0.354385 -0.771745
0.437762 -0.341846 0.284586
-0.642163 0.353326 0.629433
0.795516 -0.028733 -0.447319
0.084914 -0.706328 -0.434318
-0.659561 0.349488 -0.069754
-0.634183 0.721221 0.281693
0.804041 0.008329 0.280143
0.084977 -0.707123 -0.432944
-0.633873 0.721004 0.281144
0.448803 0.716400 -0.081917
0.447809 0.715223 -0.082009
-0.273441 0.698309 -0.072857
0.448208 0.020536 0.666689
0.439128 0.372652 0.284383
0.446388 0.716489 -0.083008
-0.273661 0.697022 -0.074704
-0.659639 0.348460 -0.067418
0.440349 0.371875 0.286431
0.088318 0.723629 0.247033
-0.647333 -0.389925 0.623933
-0.647393 -0.390897 0.626230
0.448140 0.022020 0.668476
-0.635823 -0.027072 0.304413
-0.635010 -0.027160 0.305706
0.443427 0.010299 -0.789837
0.093868 0.357947 0.628837
-0.632046 0.721525 0.279447
0.422750 -0.353578 -0.437330
-0.259991 -0.347412 -0.435416
0.088069 -0.341892 0.636137
0.783446 -0.341149 -0.088895
0.077241 0.354797 -0.770948
-0.646997 -0.391253 0.623449
-0.276599 0.022275 0.646731
0.086622 0.723946 0.246851
-0.663364 -0.358767 -0.093011
0.073444 0.742647 -0.427748
0.796162 0.365536 -0.082295
0.424930 0.341091 -0.446657
0.093785 0.360044 0.627944
0.449447 -0.725697 -0.078973
0.088489 -0.342693 0.636418
-0.284887 -0.015973 -0.787171
-0.633166 -0.704295 0.253774
0.450700 -0.727120 -0.078370
-0.283227 -0.017024 -0.788690
-0.260097 -0.697116 0.632987
0.088546 0.724845 0.247060
0.086972 0.726215 0.247387
-0.633060 0.721149 0.281340
-0.261429 -0.697342 0.633760
-0.279395 -0.713010 -0.095095
0.803811 0.007771 0.280125
-0.631129 -0.705710 0.255286
0.094430 0.358339 0.629550
0.438058 0.374221 0.283882
-0.648860 -0.391266 0.624469
0.445846 0.715485 -0.081130
0.439575 0.372292 0.282630
0.439062 0.371149 0.282820
0.072202 0.742521 -0.426814
0.087388 -0.342641 0.636365
0.091951 0.357003 0.628976
-0.279595 -0.711845 -0.094524
0.422366 -0.353547 -0.439593
0.801883 0.008028 0.279293
0.784047 -0.340638 -0.087738
-0.636135 -0.024830 0.304685
0.447567 0.715967 -0.082039
0.075902 0.742287 -0.424110
0.450385 -0.725789 -0.077837
0.093716 0.358426 0.629168
0.080191 -0.718402 0.264155
0.076192 0.354859 -0.773053
-0.279141 -0.712293 -0.094810
-0.632521 0.719809 0.282236
0.085177 -0.705989 -0.434498
0.436701 -0.341111 0.283707
0.437283 -0.342541 0.282209
0.425262 0.340748 -0.445456
-0.661084 0.350362 -0.068285
0.449079 0.018487 0.669478
0.075555 0.741861 -0.424232
0.794614 0.365485 -0.081040
0.087536 0.725058 0.247524
0.086024 0.723275 0.248753
0.075488 -0.375271 -0.788837
-0.269531 0.703507 0.640536
-0.269596 0.706394 0.638559
0.447522 0.021379 0.666228
0.450110 -0.725061 -0.076377
-0.268844 0.704125 0.640091
-0.647321 -0.390808 0.622781
0.076292 0.354112 -0.772013
0.079456 -0.720637 0.264684
-0.632052 -0.705192 0.256043
-0.277399 0.334027 -0.435607
0.092981 0.359353 0.626099
0.088986 -0.342696 0.635796
-0.268848 0.702726 0.638998
-0.281639 -0.017473 -0.788067
0.447024 0.718976 -0.081082
0.438545 0.372603 0.281560
-0.261069 -0.696562 0.633892
-0.279634 -0.712596 -0.096158
0.074014 0.741558 -0.425814
0.438959 0.373960 0.284015
0.424780 0.340707 -0.445515
-0.631478 -0.706118 0.256249
-0.634741 -0.025243 0.306254
-0.282778 -0.016758 -0.787966
0.079155 -0.718607 0.263575
0.447013 0.021676 0.669008
0.793912 0.365095 -0.082682
-0.633438 -0.704430 0.255441
-0.645388 -0.391431 0.623533
0.439701 0.372382 0.284338
-0.633261 0.721393 0.280135
-0.651137 -0.005290 -0.446772
0.447992 0.020185 0.669139
-0.279528 -0.713074 -0.093838
-0.271739 0.704863 0.640884
0.437471 -0.343110 0.282938
0.075514 0.743389 -0.425894
0.075977 0.741500 -0.427545
0.089072 0.723664 0.249833
0.089195 0.721763 0.246069
0.442104 0.010812 -0.789544
0.089004 -0.342123 0.635887
-0.271225 0.705053 0.639641
0.793732 0.365921 -0.081684
0.782140 -0.341317 -0.087912
0.076738 0.354846 -0.771940
-0.259787 -0.348600 -0.435515
-0.644293 0.352671 0.629637
0.448918 0.020949 0.668752
-0.634140 -0.703927 0.256200
-0.260079 -0.695473 0.634609
-0.283420 -0.014447 -0.785131
-0.270215 0.705334 0.640526
0.094170 0.358603 0.627931
-0.268542 0.703818 0.639958
0.793827 0.366286 -0.084321
-0.276734 0.333824 -0.436614
0.804676 0.007703 0.280196
0.089843 -0.342728 0.636608
0.084795 -0.707781 -0.434488
0.084835 -0.705331 -0.435053
-0.662670 -0.362205 -0.090948
-0.636585 -0.025590 0.305274
0.447955 0.714897 -0.082945
-0.631716 -0.703856 0.255670
0.794573 0.365590 -0.080613
0.073732 0.740978 -0.425681
0.795508 -0.027890 -0.447762
0.076735 0.744189 -0.425440
0.449239 0.020105 0.667895
0.439813 0.372129 0.285451
0.436327 -0.342811 0.282514
-0.263170 -0.696085 0.632684
0.073614 0.740597 -0.427458
0.078229 0.354464 -0.771432
0.073486 -0.376184 -0.789798
0.438168 -0.342736 0.283067
-0.273783 0.697551 -0.071999
0.073555 -0.378145 -0.789000
0.438716 -0.341582 0.282524
0.795409 0.364197 -0.083156
0.424780 0.340626 -0.446038
-0.659013 0.348932 -0.068832
0.421124 -0.353440 -0.437069
0.073744 -0.374442 -0.788163
0.087963 0.724020 0.247291
0.088454 -0.342486 0.635430
-0.663508 -0.359741 -0.093571
-0.277903 0.335984 -0.435744
-0.262075 -0.697101 0.635285
-0.632551 -0.704053 0.254236
-0.663338 -0.359889 -0.091653
0.088863 0.724145 0.247108
0.782325 -0.341298 -0.087455
-0.631130 -0.706280 0.255210
0.447879 0.714739 -0.081511
0.803409 0.010223 0.279177
-0.277976 0.023786 0.645415
-0.659512 0.348994 -0.068964
-0.284600 -0.017390 -0.789308
-0.268431 0.704057 0.639421
-0.259688 -0.348779 -0.435738
-0.634642 -0.026054 0.304018
0.078749 -0.720617 0.263821
-0.663356 -0.359752 -0.091785
0.074238 -0.375193 -0.788116
0.074105 -0.376875 -0.788069
-0.648169 -0.391790 0.623932
0.080351 -0.720770 0.262601
0.074876 0.742614 -0.424412
0.784451 -0.340688 -0.088784
-0.661641 0.347468 -0.068649
-0.278379 0.335631 -0.436776
-0.258516 -0.347025 -0.434795
0.786295 -0.338382 -0.089915
0.079238 -0.717077 0.265707
-0.635613 -0.025283 0.304005
0.078934 0.353024 -0.771903
