OFF
256 0 0
0.275948 0.711457 0.629347
-0.790658 0.011768 -0.433779
-0.074596 0.710947 0.270546
-0.423399 0.000070 0.659740
-0.421027 -0.354640 0.276298
-0.807789 -0.352961 -0.074168
0.254664 -0.720582 -0.077274
-0.815433 0.347252 -0.082939
-0.421510 -0.353611 0.278103
0.631677 -0.359659 0.647110
0.273952 0.329483 -0.436599
0.278891 0.710538 0.630021
-0.816262 0.347257 -0.080560
0.260677 -0.736489 0.622809
-0.793172 0.010462 -0.433425
0.272732 0.011995 0.640444
0.647537 0.338899 0.650952
-0.089128 -0.355232 -0.797218
0.278010 0.711707 0.630746
0.251787 -0.720848 -0.075199
-0.080130 0.729389 -0.443359
0.624105 -0.690595 0.274202
-0.791783 0.012691 -0.432593
-0.099048 0.368626 0.664010
-0.420626 -0.354323 0.277734
-0.447162 0.696208 -0.087964
-0.075393 -0.692779 0.280002
-0.077921 -0.693184 0.279212
0.632281 -0.357452 0.647609
0.252941 -0.721858 -0.073282
-0.438906 0.337191 0.284639
0.277980 0.712015 0.630191
0.624082 -0.691462 0.274215
-0.081392 0.731480 -0.444558
0.268009 -0.331178 -0.450406
-0.084645 -0.723297 -0.459008
0.257519 -0.737545 0.623500
0.289906 0.016862 -0.813397
-0.418264 -0.009262 -0.829850
-0.443779 -0.730367 -0.103486
-0.073094 0.709275 0.270681
-0.815968 0.346251 -0.081876
0.285682 0.721049 -0.080502
-0.447113 0.695839 -0.086968
-0.071605 -0.360956 0.646524
-0.443393 0.356947 -0.444728
0.631574 -0.359347 0.648744
-0.084991 -0.722570 -0.457608
0.623601 -0.690409 0.275730
0.649292 0.703584 0.288950
0.276041 0.711668 0.628227
0.630850 0.351422 -0.068479
0.630545 0.352180 -0.067365
-0.801772 0.003792 0.297255
0.648660 0.699508 0.288641
-0.801156 0.004114 0.296620
0.649282 0.702061 0.290003
-0.420741 -0.355746 0.278255
0.286939 0.722573 -0.080751
-0.792163 0.011706 -0.432212
-0.791646 0.013458 -0.433097
-0.409653 -0.354909 -0.413064
0.261071 -0.737418 0.622377
0.251320 -0.720138 -0.074767
0.288726 0.014658 -0.811302
-0.443160 -0.729868 -0.102773
-0.419155 -0.007334 -0.829897
0.632478 -0.002630 0.297200
-0.448036 0.696635 -0.086801
-0.447952 0.696737 -0.086608
-0.418649 -0.006084 -0.827543
0.276073 0.327694 -0.436905
0.646114 0.339080 0.650299
0.632550 -0.358900 0.647751
-0.079524 0.369089 -0.796282
-0.419281 -0.001248 0.660279
0.647704 0.340501 0.649086
-0.802185 0.003688 0.297378
-0.422283 -0.001228 0.660460
-0.419161 -0.352912 0.277517
0.273507 0.012401 0.640399
-0.076960 -0.695388 0.280741
-0.409472 -0.354108 -0.415377
-0.439730 0.337595 0.283931
-0.097529 0.369224 0.663833
-0.072959 -0.358430 0.647260
0.285858 0.723831 -0.081576
0.279588 0.711019 0.629568
0.289996 0.016043 -0.811611
-0.439769 0.337405 0.284442
-0.409281 -0.352307 -0.414128
0.278116 0.711543 0.629751
0.289818 0.016399 -0.810609
0.647476 0.338577 0.649733
-0.072564 -0.362507 0.644998
-0.443635 0.355276 -0.445881
0.651614 0.701866 0.290816
-0.078822 0.369306 -0.796370
0.276677 0.328292 -0.439766
0.276527 0.329207 -0.437348
-0.420443 -0.352686 0.276568
0.632754 -0.005129 0.296622
-0.410272 -0.354906 -0.416254
0.631392 0.352190 -0.069216
-0.072806 0.711622 0.269402
-0.098418 0.367283 0.665023
-0.417751 -0.006154 -0.829091
-0.409459 -0.354954 -0.414875
0.271077 0.012016 0.640628
-0.808343 -0.352730 -0.074168
0.649957 -0.343226 -0.091852
0.289362 0.015021 -0.811471
0.625107 -0.687900 0.273765
-0.073532 -0.359612 0.647291
0.631346 -0.357100 0.645291
-0.421582 -0.000381 0.656915
-0.815663 0.346791 -0.084169
-0.421818 0.000219 0.659325
0.272113 0.012594 0.639481
-0.442907 0.356480 -0.444559
-0.082868 -0.723333 -0.458377
0.267349 -0.332607 -0.450228
0.275572 0.330576 -0.436936
-0.791834 0.012325 -0.432951
-0.438448 0.336126 0.285232
-0.806899 -0.353946 -0.071319
-0.815834 0.346948 -0.082445
-0.081452 0.730900 -0.442355
-0.443496 0.354985 -0.444914
-0.409413 -0.355381 -0.415175
-0.446535 0.694829 -0.084652
-0.790888 0.010950 -0.432379
0.630652 -0.359586 0.648688
-0.076091 -0.691368 0.280770
-0.073480 -0.359201 0.647870
0.665138 -0.000377 -0.453349
-0.441545 0.356205 -0.445300
-0.418644 -0.006987 -0.828457
-0.097745 0.367483 0.664280
0.624844 -0.690287 0.274539
-0.438931 0.337463 0.284620
-0.077500 0.367347 -0.795291
-0.807220 -0.352969 -0.072983
0.623030 -0.691889 0.273862
0.632262 -0.359272 0.647888
-0.079927 0.731246 -0.443103
-0.087151 -0.722808 -0.458374
-0.443111 0.356682 -0.444374
0.633588 -0.360735 0.649332
0.259622 -0.737736 0.620856
-0.088947 -0.354662 -0.797440
-0.438079 0.335886 0.285228
-0.409591 -0.355034 -0.416105
-0.089049 -0.354892 -0.796138
0.634387 -0.002725 0.297558
-0.417644 -0.354370 0.277936
-0.419242 -0.006524 -0.830066
0.645366 0.340892 0.648554
-0.090902 -0.354714 -0.795845
0.276521 0.329214 -0.438576
-0.799705 0.004128 0.296743
-0.441952 0.354539 -0.444950
-0.814930 0.347471 -0.081914
0.277580 0.332860 -0.436281
-0.076545 0.368941 -0.797731
0.277248 0.711717 0.628105
-0.079693 0.370213 -0.797564
0.649668 0.339568 0.650471
-0.097095 0.368682 0.662939
-0.444353 -0.730755 -0.102043
0.633923 -0.003181 0.298308
0.276513 0.711059 0.628343
-0.089695 -0.354693 -0.795859
0.650913 -0.342831 -0.089828
0.262713 -0.738210 0.624725
-0.098663 0.367257 0.663235
-0.080346 0.729070 -0.443829
-0.421800 -0.351317 0.277025
-0.409124 -0.354359 -0.415219
0.631123 0.353531 -0.068690
-0.074460 0.709121 0.270707
-0.421812 0.000005 0.659275
0.269799 -0.330936 -0.448089
0.286762 0.722856 -0.078778
-0.806620 -0.355660 -0.073956
-0.084601 -0.722444 -0.458691
-0.800900 0.004282 0.296922
0.632657 -0.358307 0.648475
-0.421469 -0.006236 -0.828242
-0.419064 -0.006943 -0.829957
-0.074306 0.711379 0.270202
-0.072020 -0.360370 0.645732
0.650268 0.338787 0.650195
-0.084728 -0.722840 -0.459099
0.631317 -0.358772 0.645967
-0.437102 0.337930 0.284769
-0.448099 0.695557 -0.085863
0.630465 -0.003142 0.297228
-0.816322 0.348399 -0.083838
-0.096731 0.371370 0.664131
-0.439318 0.336917 0.283865
-0.444847 -0.731067 -0.104488
-0.441904 0.355315 -0.446064
-0.073406 -0.360765 0.645460
-0.084465 -0.722877 -0.458472
0.286258 0.722897 -0.077914
0.284985 0.722354 -0.079060
0.291152 0.014921 -0.810953
-0.080703 0.729968 -0.442914
-0.071732 0.711613 0.268496
0.648050 0.340790 0.648983
-0.791772 0.011459 -0.431732
0.630834 -0.359000 0.649164
-0.080822 0.731067 -0.443942
-0.418301 -0.006011 -0.828208
-0.077563 0.369344 -0.797425
0.267563 -0.331510 -0.448253
0.665127 -0.001845 -0.452228
-0.793746 0.010802 -0.432686
0.273982 0.011605 0.640192
-0.071663 0.708430 0.270735
0.289758 0.015971 -0.810944
-0.420135 -0.007189 -0.828023
-0.807433 -0.353694 -0.073860
0.631953 -0.359421 0.646725
-0.076409 -0.691788 0.279918
-0.078610 0.370084 -0.797439
-0.805148 -0.351725 -0.072406
0.252058 -0.719919 -0.074678
0.252504 -0.718954 -0.074252
-0.439442 0.337643 0.284446
-0.410735 -0.354660 -0.414156
-0.790725 0.010221 -0.433500
0.632644 -0.003155 0.295269
-0.438339 0.337049 0.286616
0.623517 -0.690756 0.273357
-0.420084 -0.352300 0.275607
-0.419355 -0.006698 -0.827734
-0.443305 0.357315 -0.445350
-0.090047 -0.354113 -0.798148
-0.443223 0.355346 -0.443877
0.289619 0.016422 -0.811224
0.632030 -0.003934 0.296936
0.630061 0.352874 -0.067798
0.273664 0.012219 0.640382
0.251051 -0.719388 -0.074814
0.276841 0.330713 -0.436051
0.273210 0.009541 0.639450
0.663666 -0.000768 -0.451811
0.285439 0.722509 -0.079687
-0.099596 0.369499 0.663481
0.631584 0.351589 -0.067529
-0.446055 -0.729806 -0.102962
0.649066 0.339222 0.649411
-0.076761 -0.695003 0.279921
-0.071969 0.709795 0.270310
