OFF
256 0 0
0.080156 0.357662 -0.797160
-0.637924 0.360507 -0.077041
-0.639488 0.718135 0.279031
0.438104 0.358260 0.280241
0.080767 -0.714969 0.278958
-0.636306 0.717562 0.280870
0.440022 0.357663 -0.436446
-0.279398 0.718457 0.637671
-0.278647 -0.000607 0.637385
-0.278486 0.000938 0.639189
0.079862 0.359416 -0.797022
0.438120 -0.002670 -0.796419
0.081198 -0.359681 -0.797026
-0.279284 -0.717596 0.638883
-0.277725 -0.000546 0.638273
0.439263 0.718615 -0.080198
0.797619 0.358827 -0.080449
-0.278052 -0.001237 -0.798123
-0.639335 0.716800 0.279911
-0.638408 -0.357361 0.637955
-0.279650 -0.001979 -0.796938
-0.279382 0.000018 0.637678
-0.279654 -0.717812 0.637519
-0.638230 0.358706 0.639061
-0.636535 -0.000930 -0.437699
-0.638015 0.000202 0.279024
-0.637290 0.358207 0.638612
0.081569 0.717106 -0.438153
0.440122 -0.001189 -0.798148
-0.638602 -0.359446 0.637453
0.439469 -0.357611 -0.438276
-0.638498 -0.359073 0.639611
0.440061 -0.357908 -0.439421
-0.279028 0.358209 -0.439859
0.799019 0.359753 -0.078187
0.079614 0.360933 -0.798406
-0.638649 0.360342 -0.081223
0.439082 0.360006 -0.438190
0.079241 -0.360691 0.637754
-0.278560 0.719124 -0.080152
0.440562 -0.000681 -0.797711
0.436924 0.000181 0.638640
-0.278789 -0.719079 -0.079840
-0.639606 0.358757 -0.079751
-0.639612 -0.000277 -0.437411
0.080919 0.360509 0.636874
0.440659 -0.359784 0.278976
0.080121 0.361596 -0.798123
0.080565 0.717359 0.279951
0.438914 -0.717822 -0.080199
0.796801 -0.000419 -0.437814
-0.637454 0.359011 -0.078917
0.797518 -0.358862 -0.078499
-0.636624 -0.718475 0.278876
-0.635329 -0.356778 -0.079283
-0.638876 0.000016 0.278702
-0.638991 0.357787 -0.080931
-0.279336 -0.717869 -0.080285
0.439024 -0.001040 0.638198
0.082034 -0.358263 -0.799375
0.438336 -0.000669 0.638542
0.080228 0.717362 -0.439809
-0.278700 -0.716306 0.638022
-0.281678 0.718351 -0.078395
0.439669 0.359912 -0.437401
0.438085 0.360119 -0.439981
0.080722 -0.718293 0.277539
-0.278430 -0.718424 0.639060
-0.637916 -0.359114 -0.079405
-0.280077 0.720392 0.637682
-0.636645 0.001279 0.280148
-0.279400 -0.359521 -0.438991
0.079361 -0.718529 0.277745
-0.278862 0.718937 -0.079834
0.439121 0.000623 0.637736
0.438221 -0.359275 -0.438301
0.080646 0.718231 0.279512
-0.636606 0.716707 0.278088
-0.277695 0.358081 -0.438117
0.078777 -0.358861 -0.797108
0.079974 0.360246 0.639319
0.438541 -0.719463 -0.081555
0.439530 0.360529 0.276855
-0.278407 0.718373 -0.079992
-0.279429 -0.717297 -0.079919
0.438249 0.719219 -0.081325
0.438149 0.357481 0.278928
0.079250 -0.717264 0.279760
0.079334 0.717647 0.279465
0.798602 -0.358557 -0.078990
0.080516 0.719679 0.278030
-0.278391 -0.358329 -0.438407
-0.278703 0.716563 0.638733
0.081052 -0.359190 0.638110
-0.278051 -0.001306 -0.798918
-0.279965 -0.000634 -0.796732
-0.277582 -0.717423 -0.081360
-0.278374 -0.000774 0.636562
-0.279395 -0.001583 0.637789
-0.278889 -0.716729 0.638026
-0.638838 -0.358585 -0.078842
0.438297 0.357429 -0.438625
0.439761 0.001629 -0.796883
-0.637287 0.717614 0.278930
0.796448 0.357696 -0.080086
0.078527 -0.358721 0.638335
0.080319 -0.717874 0.278594
-0.637964 -0.000036 -0.437076
0.079851 0.358401 0.638886
0.079456 -0.359798 -0.800102
-0.637063 0.357902 -0.078567
-0.638858 0.000924 -0.438728
0.079680 -0.718759 -0.439081
-0.279389 0.718135 0.640649
-0.638219 -0.718457 0.280638
-0.637948 0.001443 0.279677
0.078835 -0.358861 0.638313
-0.278248 0.718585 -0.079739
0.439600 -0.718438 -0.080111
0.439307 -0.357878 -0.439471
0.798308 0.357182 -0.080521
-0.278798 0.717211 -0.079280
-0.638095 0.716432 0.278845
-0.637589 -0.000714 0.278935
-0.638449 0.360151 0.637563
0.437655 -0.358833 -0.438557
-0.638551 0.359506 0.636823
-0.279861 -0.000680 0.637787
-0.637059 0.359887 0.640353
0.079545 -0.716924 0.280084
0.439149 0.718292 -0.082127
-0.280269 0.715325 0.638142
0.796490 0.000338 -0.439430
-0.638329 -0.358698 0.640826
0.437953 0.719278 -0.079440
0.797418 -0.000163 -0.437095
-0.637972 0.358605 -0.080197
0.077591 -0.715447 -0.438148
0.078331 -0.359986 0.637700
0.796888 -0.358863 -0.079260
-0.637493 -0.000905 -0.439013
-0.278725 -0.717867 -0.078964
-0.636632 0.718395 0.279626
0.438879 -0.358768 0.279056
-0.278856 -0.357332 -0.439706
-0.278120 0.716741 -0.080548
0.079103 0.359963 -0.797428
0.439669 -0.717850 -0.079213
0.080065 0.717563 0.277810
0.437253 0.359486 -0.437110
-0.278088 -0.717399 -0.080416
0.081210 0.717482 -0.437973
-0.278221 0.000221 0.639380
0.078088 0.357902 0.637351
0.439608 -0.000050 0.637816
0.079487 -0.718642 -0.438331
0.438632 0.359887 -0.438750
0.081568 -0.359710 -0.797329
-0.277589 0.716590 -0.080302
-0.639313 0.718722 0.278684
0.079324 0.717031 -0.440393
-0.638105 -0.359315 -0.079797
-0.277830 -0.717538 0.637506
0.798271 0.358318 -0.080391
-0.639649 0.357588 -0.079501
-0.278682 -0.717478 -0.081039
-0.276815 0.717616 0.637663
-0.279202 -0.716642 -0.078814
0.079402 -0.357222 -0.795530
0.077601 -0.361010 0.639041
0.079650 -0.718900 0.277974
0.079837 -0.717434 -0.439435
-0.638535 0.000583 0.278032
-0.280698 0.717829 -0.079453
0.081315 -0.358215 0.637750
0.438709 -0.359660 -0.437071
0.078283 -0.718488 -0.439077
-0.638093 0.359560 0.637039
0.439327 0.358711 0.281877
0.080658 -0.359685 0.637596
-0.638254 -0.001004 0.279049
0.078762 0.358245 -0.797782
-0.278711 -0.357723 -0.438333
0.080762 -0.717959 0.279201
0.796983 -0.000950 0.277776
-0.279409 0.717013 -0.077740
0.438320 -0.717756 -0.079405
-0.278960 -0.715886 0.637533
0.077691 0.717966 -0.438470
-0.639272 0.358569 0.636976
0.082180 0.716639 -0.439427
0.079119 -0.358129 0.638588
0.438585 0.359945 0.278264
-0.638698 -0.358057 0.637657
-0.637731 0.357928 0.636942
-0.637493 0.716808 0.279860
-0.638928 -0.001648 -0.438394
0.081536 -0.718353 -0.437657
-0.279010 0.717860 0.637065
0.436258 -0.357922 -0.437654
-0.279906 0.717024 0.636468
0.437423 0.001308 -0.797504
0.080297 -0.719788 -0.439262
-0.637840 -0.000121 -0.437970
-0.279567 -0.717671 -0.080447
0.796002 0.359753 -0.078893
0.438728 0.359043 -0.438298
-0.639503 -0.359005 -0.080734
0.798905 -0.000542 -0.439024
0.437336 0.357906 -0.439971
-0.636904 -0.001877 -0.438965
0.079046 0.360071 0.637181
-0.637662 -0.357437 0.635922
-0.638332 -0.719357 0.278299
0.077739 -0.358405 -0.797659
-0.279779 -0.716864 0.637088
0.439175 0.358930 -0.437402
0.078493 -0.357607 0.637069
-0.639264 0.357590 -0.078855
-0.279437 -0.358156 -0.440128
-0.278864 -0.716476 0.637944
0.438853 0.358532 0.278714
0.439255 -0.718623 -0.079931
0.078613 0.717678 0.277776
0.438816 0.000788 -0.796274
0.438255 -0.358877 0.278908
-0.280705 0.716364 0.636900
0.079672 0.356930 0.636483
0.439034 -0.717444 -0.079460
0.437983 -0.000700 -0.797000
0.796917 -0.357348 -0.079613
0.438173 0.358929 0.279220
-0.280184 -0.355698 -0.437431
-0.638838 -0.357864 0.636036
-0.279248 -0.718690 0.638909
-0.638172 0.001353 -0.438409
0.080519 -0.358190 -0.796595
0.439095 0.719331 -0.079196
0.080427 -0.358483 0.638978
-0.279692 0.357704 -0.437821
-0.638727 0.356155 0.637866
-0.637321 0.000177 -0.439778
0.081026 -0.358444 -0.795799
0.797521 -0.361002 -0.081154
0.796002 0.000270 -0.439445
0.438938 0.000509 -0.797695
-0.278834 0.360341 -0.439150
0.079566 -0.718757 -0.438486
0.079184 0.717734 -0.439395
-0.637439 0.359082 -0.079845
-0.279797 -0.715704 -0.079208
0.797808 -0.358659 -0.079781
0.798383 -0.358660 -0.080084
-0.278195 -0.360119 -0.436996
0.079444 -0.716726 -0.437970
-0.637955 0.358496 -0.076642
