OFF
256 0 0
0.465146 -0.012017 -0.788052
-0.278709 0.012189 0.629423
-0.636696 -0.356786 0.655052
-0.279607 0.714447 0.642432
0.772296 0.001775 -0.435244
0.106693 0.353016 -0.809368
-0.273337 -0.004708 -0.799551
0.792566 0.363060 -0.069000
0.085789 0.699903 0.278047
0.433989 -0.373050 -0.425890
0.467182 -0.012238 -0.787455
0.810179 -0.362582 -0.083668
-0.264348 0.307438 -0.419671
0.426045 0.330500 0.244528
-0.629762 0.352009 -0.073602
0.435154 -0.373870 -0.424254
0.392768 0.004770 0.625193
-0.628036 0.349150 -0.074249
0.428914 0.330209 0.244674
-0.279697 0.012683 0.630327
-0.279903 0.715108 0.640994
0.106654 0.354854 -0.808700
-0.280253 0.691671 -0.079343
-0.278691 0.010625 0.631460
0.073760 0.376139 0.643188
-0.633816 0.712545 0.274503
0.442640 -0.339990 0.252017
0.391354 0.004761 0.624295
0.428933 0.330495 0.243541
0.423528 0.367879 -0.438614
-0.627291 0.351521 -0.075004
0.075882 -0.720772 -0.433952
-0.657384 0.010764 0.305986
-0.279644 0.010967 0.630023
-0.273170 -0.004682 -0.801545
0.423839 0.368966 -0.437831
-0.292359 -0.688972 0.636652
0.392567 0.004330 0.624593
0.093228 -0.350631 -0.786238
0.771751 0.001738 -0.436191
-0.646948 -0.013122 -0.447067
-0.628502 0.350558 -0.071804
0.423794 0.368644 -0.440349
0.442593 -0.717444 -0.084945
0.443015 -0.719127 -0.086193
-0.628411 0.350698 -0.072569
0.467476 -0.013822 -0.791491
0.073519 -0.721249 -0.433325
0.794382 -0.017989 0.259427
0.088181 -0.701630 0.264489
0.772180 0.003470 -0.438401
-0.263622 0.308000 -0.419071
-0.631342 -0.336392 -0.068679
0.091306 -0.351027 -0.785493
0.451508 0.716462 -0.084127
0.103910 0.356009 -0.809255
-0.629072 0.380094 0.647184
-0.629758 -0.334961 -0.067888
0.772932 0.001713 -0.437182
0.073773 -0.721854 -0.434714
-0.266440 0.308418 -0.418408
0.453541 0.717725 -0.087050
-0.641082 -0.710067 0.277218
0.773575 0.001862 -0.435433
-0.639257 -0.708108 0.277292
-0.281367 0.691172 -0.079314
-0.288843 -0.699768 -0.078377
-0.288227 -0.700583 -0.075983
-0.631195 -0.336280 -0.068288
0.107824 0.355389 -0.809683
0.074263 -0.722192 -0.431754
0.442448 -0.341040 0.252631
-0.279859 0.009903 0.629713
-0.280783 0.714783 0.642152
-0.283112 0.713887 0.643251
-0.633646 0.711628 0.273705
0.772605 0.002337 -0.436895
0.427579 0.329395 0.243742
0.088978 -0.703725 0.265029
0.085723 0.704803 -0.426879
-0.273884 -0.004466 -0.799003
-0.628751 0.380343 0.645830
-0.274332 -0.002874 -0.800204
-0.641673 -0.709270 0.275864
0.452818 0.716840 -0.084773
-0.279545 0.713758 0.639795
-0.263611 0.304754 -0.417801
-0.280939 0.691529 -0.079475
-0.629316 0.380092 0.647262
0.072848 0.377205 0.642884
-0.633354 0.714062 0.272942
-0.287060 -0.701813 -0.076622
-0.628227 0.380421 0.647214
0.443618 -0.718317 -0.086653
-0.639667 -0.356605 0.655061
-0.288885 -0.700620 -0.077701
0.091564 -0.365595 0.640165
-0.627691 0.379553 0.647791
0.443133 -0.716247 -0.084900
0.073668 0.378417 0.642892
0.451971 0.719903 -0.085972
-0.280819 -0.333224 -0.434824
0.423848 0.370097 -0.438004
0.443797 -0.339227 0.254742
-0.641843 -0.708536 0.276260
0.085158 0.705637 -0.426394
-0.289730 -0.700613 -0.077719
-0.280892 0.691976 -0.078442
-0.631934 -0.335469 -0.066533
-0.278840 -0.335302 -0.435314
0.445389 -0.718922 -0.085986
-0.272583 -0.002876 -0.800881
0.089447 -0.364492 0.643499
0.441085 -0.340403 0.253833
-0.646576 -0.015270 -0.447275
-0.628854 0.348961 -0.072952
-0.648070 -0.015899 -0.446756
-0.647403 -0.014262 -0.446764
-0.291551 -0.689569 0.636419
0.422655 0.367202 -0.440341
-0.633957 0.712223 0.272982
0.443513 -0.718467 -0.087471
0.465008 -0.013442 -0.790157
-0.628541 0.379064 0.646438
-0.272595 -0.003823 -0.799679
0.085731 0.701031 0.278260
0.073760 -0.722116 -0.433013
-0.292533 -0.688271 0.633795
0.453119 0.719371 -0.085378
-0.278064 0.012298 0.631406
0.085961 0.704245 -0.427590
-0.279192 0.713475 0.642008
0.809703 -0.361953 -0.084169
0.105849 0.355033 -0.812187
-0.280162 0.692352 -0.078231
0.442635 -0.340681 0.253534
0.089717 -0.364471 0.642445
0.466453 -0.012878 -0.788814
0.105831 0.354684 -0.809667
0.394003 0.006078 0.623824
0.087076 0.700722 0.280003
0.106564 0.355392 -0.808486
-0.633448 -0.337304 -0.069810
0.443290 -0.341018 0.252945
-0.636416 0.713689 0.274396
0.453615 0.719798 -0.084503
0.092649 -0.351277 -0.784716
0.443909 -0.718886 -0.087286
-0.641156 -0.708203 0.277588
0.082758 0.700523 0.277653
-0.628349 0.350131 -0.074078
0.104869 0.356093 -0.811411
0.792942 0.363108 -0.067670
0.073048 0.378152 0.643170
-0.279119 0.014701 0.631040
0.083891 0.705006 -0.426356
-0.632317 -0.334387 -0.068000
-0.626610 0.350998 -0.072760
-0.278583 0.713905 0.641485
-0.635752 0.715202 0.274036
0.075546 0.377506 0.641092
-0.282525 0.691593 -0.079076
0.466290 -0.012922 -0.789351
-0.280609 -0.333192 -0.434675
0.439633 -0.340861 0.252906
-0.638935 -0.707442 0.276930
-0.263761 0.309240 -0.419873
0.809667 -0.364112 -0.084877
0.086611 0.704406 -0.426966
-0.641137 -0.709086 0.277588
0.073530 0.379103 0.643857
0.792483 0.361079 -0.067215
-0.281224 0.012141 0.630984
0.088408 -0.701871 0.263708
0.087356 -0.365003 0.641365
0.791297 -0.019075 0.258127
0.793677 -0.015530 0.257948
-0.627431 0.380104 0.647651
-0.658396 0.012057 0.305331
-0.291727 -0.691469 0.636430
-0.274078 -0.005209 -0.798881
0.770976 0.002287 -0.437605
0.442816 -0.719119 -0.085949
-0.629084 0.350911 -0.074281
-0.631042 -0.335283 -0.068525
-0.290389 -0.690478 0.635294
0.088527 -0.701911 0.263308
-0.279137 -0.333621 -0.437155
-0.280553 0.692141 -0.079844
0.445580 -0.716193 -0.086209
-0.288891 -0.700131 -0.075628
0.091639 -0.349108 -0.786014
0.772664 0.002585 -0.433231
0.105150 0.356111 -0.811312
-0.276647 -0.334582 -0.433750
-0.279997 -0.335299 -0.435011
0.794464 -0.018380 0.259972
-0.634575 0.712996 0.274544
0.084961 0.700488 0.277542
-0.629718 0.379645 0.647410
0.434590 -0.374605 -0.424118
0.431171 -0.375166 -0.425936
0.433197 -0.375294 -0.424681
0.090432 -0.701558 0.266114
0.074293 0.378340 0.642813
0.088969 -0.703484 0.264817
-0.635049 0.714657 0.273551
-0.291984 -0.689098 0.638450
-0.287966 -0.700638 -0.076824
0.807435 -0.362032 -0.085712
0.442464 -0.717752 -0.087679
-0.291842 -0.690892 0.635529
0.106808 0.355304 -0.810570
0.441868 -0.717006 -0.085279
-0.638390 -0.356141 0.653889
-0.282272 0.690570 -0.079342
-0.637294 -0.354901 0.653042
-0.291125 -0.690586 0.636626
0.104926 0.357047 -0.810850
0.389474 0.003477 0.625339
-0.280923 0.692980 -0.078464
-0.640802 -0.355508 0.654870
0.427388 0.329825 0.243852
0.105558 0.355210 -0.811307
-0.281992 0.692838 -0.079888
-0.291646 -0.691407 0.635775
-0.634822 0.711892 0.274441
-0.646659 -0.014728 -0.445907
-0.627018 0.381089 0.647702
0.088826 -0.704214 0.264925
0.443644 -0.338732 0.252857
0.084458 0.699292 0.277769
0.105555 0.354684 -0.811181
0.086263 0.705381 -0.426905
0.453627 0.719550 -0.084898
0.442645 -0.342232 0.252961
-0.639587 -0.707551 0.277373
-0.631124 -0.335707 -0.066647
0.443759 -0.718901 -0.087184
0.092172 -0.349907 -0.786645
-0.640290 -0.708141 0.276758
-0.288343 -0.700203 -0.078171
-0.627374 0.381968 0.647788
-0.273805 -0.001957 -0.799416
-0.647374 -0.015339 -0.445590
0.421289 0.367770 -0.439833
0.075164 0.377136 0.642534
-0.264093 0.308254 -0.419417
-0.274483 -0.003134 -0.799451
0.773804 0.002827 -0.438765
-0.291337 -0.689131 0.634790
-0.641874 -0.709625 0.275261
-0.630955 0.379457 0.645293
-0.631926 -0.335101 -0.069148
0.093243 -0.349663 -0.786769
0.092209 -0.350665 -0.785146
