OFF
256 0 0
0.050567 -0.362373 -0.761724
-0.630163 0.326538 0.579435
-0.296254 -0.038553 -0.781225
0.049340 -0.364225 -0.762790
0.732612 0.631608 0.246511
0.374617 -0.361872 0.202994
-0.641203 -0.697142 0.227199
-0.302740 -0.355472 -0.442714
0.047052 0.299915 0.554697
-0.635696 -0.352429 -0.098609
-0.640343 -0.698629 0.230387
0.374352 -0.359820 0.204560
-0.282610 0.249625 -0.423808
-0.630314 0.326922 0.579941
0.735968 0.632557 0.247900
-0.282955 0.248754 -0.423247
0.034385 -0.710992 -0.437499
-0.635474 -0.369948 0.578047
-0.305179 0.610626 -0.108429
0.718069 -0.371310 -0.115236
-0.654352 -0.027199 0.250985
0.374414 -0.361866 0.204719
0.353287 0.308005 -0.450103
0.049062 -0.362279 -0.762300
-0.298150 -0.016821 0.559736
0.690743 -0.035611 -0.444202
-0.306341 0.611602 -0.108334
-0.646198 -0.051297 -0.448642
0.710525 0.298298 -0.102327
-0.655197 -0.025509 0.250598
0.043857 0.631792 -0.436220
-0.296976 -0.019869 0.560674
0.692651 -0.037378 0.210772
-0.280644 0.248868 -0.422985
-0.629999 0.325080 0.579296
-0.634979 -0.352393 -0.096694
-0.298395 -0.017965 0.561689
0.377983 -0.705625 -0.112696
0.337649 -0.034259 0.548546
0.364449 -0.382326 -0.427703
0.717775 -0.373972 -0.111667
0.691985 -0.034434 -0.444411
-0.296865 0.631358 0.571588
0.718567 -0.370051 -0.111945
0.047438 0.301266 0.557156
-0.646025 -0.051277 -0.446283
-0.646882 -0.049779 -0.446126
0.365531 -0.382714 -0.427658
-0.281459 0.246162 -0.419533
0.049807 0.299164 0.554846
0.024343 0.623680 0.225295
0.734711 0.633532 0.247109
0.024595 0.621203 0.225799
0.377891 0.626830 -0.112276
0.690933 -0.034887 -0.444877
0.695171 -0.036913 0.211895
-0.635735 -0.367379 0.577778
-0.296937 -0.018644 0.560849
0.690927 -0.033655 -0.443781
-0.311124 -0.693773 -0.105468
0.707433 0.299247 -0.102664
-0.635046 -0.350414 -0.098441
0.719332 -0.371254 -0.113061
0.042581 0.632593 -0.435732
0.379907 0.627068 -0.112795
-0.638658 -0.698393 0.229612
0.062014 0.302027 -0.790214
-0.296869 0.633043 0.571481
0.691016 -0.035654 -0.445626
-0.305047 -0.353556 -0.442595
-0.280294 0.247411 -0.418495
0.735450 0.632341 0.246494
0.364060 -0.383297 -0.428071
-0.305352 0.611378 -0.108744
0.715201 -0.371673 -0.112062
0.362737 -0.382699 -0.427980
0.691678 -0.035684 -0.443519
-0.636672 -0.368818 0.577137
0.061532 0.303309 -0.791345
0.735512 0.631310 0.248807
-0.278821 0.248770 -0.421712
-0.634599 -0.352183 -0.099943
0.047965 0.298313 0.555872
0.355716 0.307742 -0.448341
0.364281 -0.383564 -0.427490
-0.298780 -0.018107 0.560739
0.690144 -0.034409 -0.444172
0.734746 0.633469 0.247217
0.374843 -0.360209 0.203421
0.718599 -0.373067 -0.112218
-0.297996 -0.038110 -0.782792
0.050042 -0.364214 -0.760256
0.060121 0.301211 -0.790261
-0.281352 0.248451 -0.421749
-0.307194 0.609239 -0.108975
-0.302917 -0.355927 -0.443439
-0.295997 -0.038919 -0.781043
-0.296808 0.630677 0.571542
-0.310877 -0.695378 -0.103055
0.047886 0.301841 0.555207
-0.302928 -0.355752 -0.441536
-0.629548 0.639564 0.227721
0.354170 0.308544 -0.450825
-0.645068 -0.050708 -0.444420
0.046947 0.300298 0.554962
0.046782 0.299978 0.557754
0.060720 0.302329 -0.790647
0.051858 -0.361670 -0.762339
0.357756 0.648167 0.563476
-0.630256 0.637798 0.226826
-0.311536 -0.695133 -0.103313
-0.306787 -0.355815 -0.442426
-0.632228 0.327270 0.580184
0.048521 0.300197 0.554051
0.717477 -0.372926 -0.114636
0.378800 -0.709280 -0.112627
-0.629657 0.327165 0.579988
-0.647140 -0.051373 -0.446464
-0.644066 -0.051083 -0.446700
0.354414 0.307847 -0.450834
0.046934 0.300521 0.556241
-0.630950 0.640459 0.226002
-0.639687 -0.696309 0.229970
0.047724 0.301653 0.556394
-0.635889 -0.353541 -0.100155
-0.297660 -0.039603 -0.780484
0.059586 0.300778 -0.789390
0.378252 0.626842 -0.110861
-0.630282 0.328908 0.579006
-0.307077 -0.679906 0.560237
0.034377 -0.712457 -0.434912
-0.635866 -0.352101 -0.097491
-0.639686 -0.699009 0.229007
0.033547 -0.712477 -0.436419
0.022005 0.622046 0.226030
0.668848 0.287371 0.563159
-0.297219 0.631560 0.569995
-0.300493 -0.018375 0.561181
0.042160 0.631769 -0.436473
-0.304496 0.610800 -0.106992
0.395251 -0.047345 -0.769782
-0.302752 -0.355167 -0.441221
0.354011 0.306046 -0.449003
-0.655697 -0.024943 0.250709
0.695273 -0.037254 0.210694
0.050340 -0.363416 -0.761821
0.734127 0.632097 0.245826
-0.295371 -0.038271 -0.781218
-0.655368 -0.024258 0.250141
-0.631455 0.294704 -0.103328
-0.647329 -0.051000 -0.446353
-0.299855 -0.018493 0.561635
0.379749 0.624948 -0.112567
0.045311 -0.384043 0.576435
-0.636712 -0.368124 0.577380
0.353980 0.306599 -0.450384
-0.305449 0.610422 -0.108857
0.376895 0.625729 -0.110684
0.694358 -0.038543 0.211026
-0.634160 -0.353392 -0.099680
0.691901 -0.035740 -0.445228
0.353871 0.306308 -0.450424
0.358076 0.647576 0.562496
0.734194 0.632991 0.246472
-0.295717 0.631106 0.569935
-0.630792 0.296752 -0.104296
0.356785 0.647542 0.563426
-0.635613 -0.368434 0.576142
0.669045 0.286050 0.560837
0.357828 0.646700 0.563304
0.337558 -0.036007 0.549251
0.359256 0.648650 0.563876
-0.299293 -0.017318 0.560221
-0.299053 -0.019443 0.561208
0.357527 0.646043 0.564370
0.733012 0.631530 0.246321
0.708914 0.298698 -0.104504
-0.637734 -0.350901 -0.096634
0.356041 0.648394 0.562489
-0.308013 -0.679040 0.562246
0.061800 0.301910 -0.791089
-0.305983 0.611853 -0.106295
0.045431 -0.687380 0.216980
-0.297992 -0.019919 0.560170
0.358070 0.646579 0.564378
-0.295569 -0.040705 -0.782486
0.364289 -0.382961 -0.426938
-0.639929 -0.699300 0.228494
-0.307221 0.609140 -0.107533
-0.638813 -0.697156 0.228115
0.670355 0.288182 0.561201
-0.302275 -0.354292 -0.442774
-0.305030 0.610123 -0.106885
-0.645788 -0.050872 -0.446948
-0.631132 0.326899 0.577860
0.337088 -0.034400 0.547984
0.060672 0.302538 -0.791678
0.044436 -0.688809 0.216977
-0.631898 0.327203 0.581811
0.691749 -0.034005 -0.443363
-0.294434 -0.040274 -0.780942
0.364490 -0.382778 -0.430889
-0.304671 0.610702 -0.109143
0.061186 0.300632 -0.789135
-0.309617 -0.692943 -0.104385
0.043523 0.632871 -0.435754
0.034056 -0.710688 -0.436918
0.043685 0.631191 -0.437441
0.396537 -0.045884 -0.769793
-0.632925 0.293819 -0.103775
-0.296387 -0.038477 -0.780577
0.020723 0.623661 0.227142
-0.303648 -0.354595 -0.444440
0.717255 -0.371723 -0.115369
-0.629927 0.637307 0.224573
0.045119 -0.381529 0.577207
-0.297780 0.629549 0.570437
0.353060 0.306300 -0.450791
-0.634821 -0.370381 0.575017
0.047294 -0.688995 0.217114
-0.298640 -0.018494 0.559686
-0.629769 0.326238 0.578843
0.356572 0.647205 0.562862
-0.646382 -0.051057 -0.445746
0.045340 -0.687477 0.216358
0.671996 0.285865 0.561892
0.733799 0.632396 0.246505
0.378412 0.626905 -0.113255
0.353171 0.309445 -0.448653
0.048934 0.302034 0.556998
-0.295500 -0.016095 0.562168
0.694232 -0.037867 0.211598
0.046149 -0.381426 0.576248
-0.635911 -0.368078 0.578329
-0.628785 0.636627 0.225775
-0.279796 0.248377 -0.421410
-0.298560 -0.019197 0.561011
-0.630342 0.638693 0.226453
0.355846 0.646629 0.563686
-0.297411 -0.038910 -0.781141
-0.634156 -0.350763 -0.097907
-0.634745 -0.351941 -0.099606
-0.307185 -0.681538 0.559886
0.356329 0.646554 0.565292
0.033452 -0.711383 -0.435485
-0.630756 0.328128 0.579160
0.044999 -0.686443 0.217399
0.393320 -0.047606 -0.769067
0.377336 0.627774 -0.112042
-0.308338 -0.681466 0.560652
-0.281046 0.247896 -0.421548
0.377162 -0.707469 -0.112769
0.357621 0.648831 0.564290
-0.304290 0.609172 -0.107685
0.733477 0.632181 0.245996
0.031121 -0.711872 -0.437682
