OFF
256 0 0
0.739817 -0.387808 -0.111373
0.024641 -0.411607 -0.814227
0.723013 0.331952 0.604665
0.720480 -0.017067 0.223763
0.021629 -0.709644 -0.462993
0.029256 0.306399 -0.824723
0.395401 0.671802 -0.116785
-0.645804 -0.727970 0.230588
0.393262 0.671513 -0.116722
-0.313151 -0.714129 0.590431
0.383831 -0.365692 0.245810
0.741013 -0.385014 -0.111990
0.022950 -0.712856 0.234173
0.720614 -0.039361 -0.442768
0.404232 -0.045958 0.592690
-0.324112 -0.030030 -0.798632
-0.302653 0.621020 0.578352
-0.666512 -0.376027 -0.116968
0.023792 -0.411293 -0.814578
-0.665178 -0.375768 -0.117712
0.019104 -0.711517 -0.463415
0.723578 -0.038876 -0.440750
0.045812 0.316720 0.584912
0.023229 -0.412492 -0.812210
0.366033 0.293931 -0.469802
-0.300188 -0.019483 0.558302
-0.287562 0.625733 -0.099085
0.022471 -0.713350 0.234407
-0.311181 -0.713763 0.589472
0.020596 -0.711722 -0.464630
0.045244 0.317806 0.585618
0.373491 -0.691300 -0.110014
0.394272 0.671872 -0.117356
-0.312025 -0.713436 0.591561
-0.300056 -0.019921 0.556897
0.722175 0.331227 0.604682
-0.302409 0.623364 0.576959
0.021714 -0.410904 -0.816598
0.023534 -0.412350 -0.812563
0.395888 0.668976 -0.117748
-0.653655 -0.049791 0.240982
-0.277294 0.290604 -0.456052
-0.293692 -0.379721 -0.448436
-0.645082 -0.727969 0.230710
0.022072 -0.713577 0.234958
0.684180 0.304907 -0.124287
-0.666559 -0.375348 -0.116536
0.020741 -0.710487 -0.464621
-0.298835 -0.717153 -0.107146
-0.631837 -0.378440 0.559876
0.059652 0.654246 0.239142
-0.287838 0.625597 -0.100720
-0.656495 -0.048807 0.239938
0.358286 -0.058478 -0.785141
0.739393 -0.384338 -0.112066
-0.631433 -0.380047 0.559318
0.739350 -0.385065 -0.109557
0.392875 0.669955 -0.115493
-0.666032 -0.376382 -0.117406
-0.656081 -0.039393 -0.452460
0.024513 -0.371940 0.588698
0.022369 -0.712700 0.233368
0.717685 0.637117 0.256665
-0.655185 0.291883 0.576201
-0.659179 -0.038132 -0.455808
0.382664 0.680962 0.581642
0.374090 -0.690137 -0.110815
-0.277971 0.289210 -0.454600
0.026179 -0.375460 0.589438
-0.655300 0.290057 0.576200
0.357647 -0.057090 -0.784901
-0.629129 -0.378264 0.558418
0.020204 -0.708982 -0.462856
-0.643876 0.637126 0.247680
-0.302529 0.621476 0.578412
0.361351 -0.356885 -0.447276
-0.657719 -0.037817 -0.454743
0.019939 -0.709092 -0.465753
0.383539 -0.365266 0.245472
-0.294614 -0.381500 -0.448677
0.047331 0.664180 -0.440023
0.375521 -0.689475 -0.108044
0.359787 -0.055467 -0.786829
0.375729 -0.691515 -0.109015
0.023661 -0.413122 -0.813453
-0.657909 -0.037356 -0.455453
-0.654314 0.292374 0.576218
-0.297664 -0.716952 -0.109295
0.045102 0.316266 0.583609
-0.651176 0.271223 -0.099860
-0.302084 -0.019311 0.557739
-0.298540 -0.020424 0.557414
-0.279280 0.288826 -0.455206
0.383605 0.679519 0.580338
0.383717 -0.365694 0.246748
0.025765 -0.712711 0.233758
-0.286872 0.624759 -0.097615
-0.286579 0.625757 -0.100426
-0.631979 -0.378130 0.560036
0.393325 0.670190 -0.117214
0.022772 -0.373526 0.588227
0.382240 -0.366671 0.246727
0.019420 -0.711558 -0.462101
0.024084 -0.712949 0.235729
0.718624 0.638644 0.253804
0.022084 -0.713690 0.235384
-0.287598 0.625407 -0.100481
-0.654646 -0.050007 0.241401
0.029660 0.307397 -0.823650
0.020297 -0.710532 -0.463773
0.022208 -0.715905 0.234824
0.718125 -0.038665 -0.439283
-0.298017 -0.719851 -0.106423
-0.279237 0.289369 -0.456134
-0.293732 -0.380492 -0.447863
0.020372 -0.709957 -0.465501
0.045310 0.666789 -0.440201
-0.665157 -0.377176 -0.116676
-0.645023 -0.727910 0.230927
0.395369 0.671272 -0.118086
-0.323934 -0.030616 -0.798521
0.366037 0.294722 -0.472667
0.403820 -0.044017 0.592065
-0.294312 -0.381073 -0.448399
-0.657691 0.290265 0.577826
-0.655185 -0.050672 0.240727
0.059398 0.651109 0.238461
-0.665264 -0.375423 -0.117076
-0.293366 -0.380367 -0.448630
-0.286789 0.626239 -0.100136
-0.656402 -0.048069 0.240436
0.023791 -0.713515 0.236752
-0.650196 0.271107 -0.098840
-0.313083 -0.712593 0.588995
0.717366 0.638007 0.251847
-0.632150 -0.378437 0.559530
0.384629 0.679245 0.579375
0.366002 0.294246 -0.471491
-0.651073 0.271440 -0.100463
0.027508 0.307408 -0.823819
0.719938 0.331332 0.604298
0.718727 0.639863 0.252781
0.059163 0.653125 0.239092
0.383616 -0.366976 0.245971
0.375054 -0.692797 -0.108223
0.684599 0.306349 -0.122519
0.738995 -0.386665 -0.112252
-0.302808 0.622836 0.578326
-0.303438 0.622045 0.578170
0.718150 -0.018744 0.221375
0.358139 -0.056462 -0.783982
0.047508 0.314755 0.584216
0.716873 0.638321 0.251436
0.684434 0.307222 -0.121738
-0.296706 -0.716339 -0.106609
0.373447 -0.692099 -0.109075
0.366952 0.294832 -0.471778
0.382551 -0.366055 0.246618
-0.298324 -0.716062 -0.106988
-0.646567 -0.728677 0.233543
0.719683 0.639840 0.252763
-0.299071 -0.020557 0.557563
0.720837 -0.038277 -0.441095
0.047890 0.667069 -0.440542
0.359421 -0.059233 -0.784330
0.023414 -0.371799 0.587674
0.046292 0.665390 -0.438652
0.365028 0.294038 -0.472369
-0.658685 -0.038740 -0.453211
-0.656590 -0.038354 -0.452717
-0.654382 0.291491 0.577428
0.384494 0.679982 0.577968
0.025308 -0.711982 0.232603
0.046579 0.315416 0.586241
-0.300388 -0.020698 0.558255
0.394579 0.671448 -0.117194
-0.654961 -0.049681 0.238239
-0.654983 -0.049157 0.241538
0.020058 -0.709194 -0.464169
0.024780 -0.372466 0.586245
-0.649477 0.272261 -0.100662
0.024165 -0.371121 0.588538
0.022556 -0.412006 -0.815045
0.024462 -0.714675 0.232808
-0.299287 -0.716926 -0.106946
0.059830 0.651322 0.237392
-0.299649 -0.717331 -0.104460
-0.652041 0.272452 -0.099114
-0.300424 0.621798 0.578790
0.683331 0.306417 -0.122179
0.019711 -0.709634 -0.462492
-0.300059 -0.717388 -0.106862
0.721470 0.330849 0.605901
0.020206 -0.709574 -0.463947
-0.312829 -0.711536 0.589793
-0.656876 -0.050342 0.240183
0.058065 0.652592 0.238242
0.683192 0.305935 -0.123155
-0.299405 -0.021167 0.557601
0.374369 -0.690547 -0.108152
-0.277172 0.289869 -0.454701
-0.631413 -0.378830 0.561633
0.357472 -0.058435 -0.785692
0.741164 -0.386662 -0.110679
0.405553 -0.044715 0.591842
-0.655346 0.291025 0.576983
0.720580 -0.039804 -0.441581
0.683446 0.303797 -0.123585
0.383908 -0.367340 0.247275
0.366030 0.294978 -0.470992
-0.311744 -0.713202 0.589360
-0.644198 0.638578 0.248300
-0.292782 -0.381750 -0.449147
-0.299760 -0.020781 0.557723
0.029112 0.308336 -0.823152
-0.658810 -0.039768 -0.453382
-0.323653 -0.031395 -0.799677
-0.665289 -0.375468 -0.116786
-0.656012 -0.038946 -0.453279
-0.298768 -0.020079 0.557973
0.025360 -0.371877 0.587066
0.683539 0.308180 -0.124914
-0.293671 -0.380582 -0.448430
-0.650364 0.270520 -0.098382
0.717577 0.640055 0.253576
-0.304593 0.620448 0.577968
0.024462 -0.373733 0.588059
0.358629 -0.057062 -0.784897
0.404795 -0.044435 0.591814
-0.654677 0.291227 0.578807
0.020694 -0.710854 -0.462372
0.375101 -0.691706 -0.110625
0.385685 -0.364453 0.244754
0.022979 -0.411864 -0.812376
-0.645704 0.636970 0.246553
0.359850 -0.356840 -0.448483
-0.300236 -0.018860 0.557701
0.383593 0.681484 0.579909
-0.323616 -0.031002 -0.798837
-0.326034 -0.031859 -0.798785
0.045484 0.666525 -0.440304
-0.313472 -0.713570 0.589725
0.024688 -0.373344 0.588293
-0.632859 -0.380642 0.559400
-0.650363 0.272125 -0.100225
0.019807 -0.710449 -0.464910
0.021596 -0.711484 -0.464774
0.719895 -0.041634 -0.440737
0.716133 0.638441 0.252450
-0.323931 -0.033832 -0.799496
0.046493 0.664847 -0.440483
-0.664732 -0.375683 -0.116738
0.018969 -0.710504 -0.461406
-0.304024 0.620766 0.577107
0.360097 -0.057582 -0.783605
-0.644336 0.638546 0.244938
