OFF
256 0 0
0.707591 0.105330 0.429487
-0.341686 -0.619449 0.065129
-0.720407 -0.283074 0.088453
-0.344581 0.446485 -0.275562
0.701919 -0.307739 -0.627759
-0.728432 0.082427 0.426230
-0.003421 -0.622771 -0.272051
0.704225 0.063973 -0.278325
-0.695663 0.418173 0.078116
0.374308 0.787974 0.081709
0.004652 -0.274424 -0.630713
0.707426 -0.272096 0.116891
-0.350821 -0.635944 -0.616193
-0.696586 0.416942 0.078977
0.357482 -0.657437 -0.663680
-0.023961 -0.274523 0.798468
0.364072 -0.625891 0.101472
-0.340892 -0.618026 0.064618
-0.339909 -0.619438 0.063976
-0.700403 -0.619837 -0.263944
-0.007649 0.446555 0.796215
0.363500 -0.627163 0.103622
0.317707 0.420511 0.420689
0.692461 -0.629289 -0.268783
0.692304 -0.628307 -0.267927
0.005043 -0.274869 -0.630513
0.013592 0.422914 -0.631898
0.707133 -0.274889 0.115817
-0.349407 0.097905 -0.611154
0.019677 0.810539 -0.272557
-0.341672 -0.273108 0.414073
-0.718891 -0.283506 0.087656
0.720368 0.427938 0.068951
-0.345191 0.450357 -0.277615
-0.348475 0.099594 -0.611948
0.357469 -0.656263 -0.666444
-0.700999 0.051446 -0.268204
0.702680 -0.308448 -0.630355
0.340403 -0.255969 0.460351
-0.699653 -0.619921 -0.262827
-0.340164 -0.271986 0.412006
-0.701001 -0.619910 -0.263557
0.338654 -0.258437 0.460476
0.020276 0.808508 -0.273852
-0.341611 -0.619961 0.064857
-0.025679 -0.273767 0.799689
-0.703208 0.049594 -0.267209
0.706911 0.063528 -0.282409
-0.350389 -0.635160 -0.616511
0.340669 0.075509 -0.626140
0.362395 -0.628056 0.102606
-0.003143 -0.622424 -0.272065
-0.008554 0.765376 0.405600
-0.002072 -0.625894 -0.272916
0.339118 -0.259469 0.461590
0.340162 0.091136 0.790832
-0.332152 0.403362 0.403006
0.338452 -0.256316 0.460185
-0.341115 -0.619914 0.065115
0.694526 -0.628821 -0.268962
-0.362212 0.090080 0.799041
0.341305 0.091279 0.790636
0.707090 -0.274498 0.115444
-0.002882 -0.623717 -0.271231
0.708015 0.106538 0.430871
-0.340902 -0.617454 0.065855
-0.724253 0.080990 0.427743
0.350106 0.434430 -0.279446
-0.008143 0.764819 0.406425
-0.339691 -0.619211 0.064611
0.357688 -0.658176 -0.664320
-0.693791 0.417008 0.077826
0.362432 -0.629176 0.100545
-0.008057 0.448259 0.794658
0.703839 -0.305387 -0.628336
0.362657 -0.627344 0.102103
-0.007546 0.764043 0.406944
-0.005672 0.444978 0.794494
0.020039 0.809853 -0.273311
0.358492 -0.654335 -0.665268
-0.343823 0.449393 -0.277244
0.003422 -0.274974 -0.629781
0.019756 0.810770 -0.272872
0.362815 -0.626846 0.104283
-0.343648 0.446795 -0.279189
0.704451 0.065344 -0.281431
-0.025112 -0.275616 0.799125
-0.007664 0.765620 0.405843
0.013131 0.424499 -0.631408
-0.696650 0.416796 0.078804
-0.344507 0.447696 -0.279256
-0.351467 0.098454 -0.610861
0.706878 -0.272946 0.115371
0.705110 0.064387 -0.281741
-0.701124 0.050107 -0.268666
0.341604 0.076082 -0.625071
0.720375 0.427493 0.071089
-0.340253 -0.620670 0.063477
-0.348126 -0.632229 -0.615763
-0.338841 -0.619862 0.064351
-0.005398 0.446105 0.795243
-0.719047 -0.283716 0.089398
0.709409 0.105869 0.429310
-0.720942 -0.283340 0.088138
0.691226 -0.627865 -0.269115
-0.349725 -0.634149 -0.615413
0.316591 0.421217 0.418948
-0.699406 -0.617329 -0.263136
0.019031 0.811319 -0.273234
0.341180 0.075464 -0.627333
0.356705 -0.657150 -0.665094
-0.344390 0.450197 -0.278268
-0.349929 -0.635353 -0.616420
0.018159 0.811520 -0.273200
-0.700838 0.050454 -0.268348
-0.332541 0.403022 0.402752
0.017111 0.810468 -0.273069
0.339894 -0.256884 0.462276
-0.333169 0.403305 0.403231
0.709905 0.105249 0.428725
-0.699877 -0.620985 -0.264023
0.694431 -0.629541 -0.268360
-0.727144 0.081533 0.427796
-0.342215 -0.270612 0.413240
-0.348885 -0.634039 -0.616031
0.364878 -0.628826 0.102929
-0.698180 -0.619811 -0.264291
-0.699668 0.048907 -0.270503
-0.005691 -0.625873 0.434792
-0.003777 -0.623703 -0.274522
0.708056 0.106896 0.428800
-0.348306 0.098727 -0.613330
0.339670 0.073989 -0.626601
0.019475 0.809478 -0.273336
-0.005204 -0.625808 0.435562
-0.701550 0.050096 -0.268759
0.338299 -0.258805 0.459494
-0.719467 -0.284074 0.087229
0.375896 0.788434 0.081271
-0.331551 0.403326 0.402522
-0.340834 -0.617031 0.063966
-0.727242 0.081052 0.428238
0.348379 0.433450 -0.280112
-0.361681 0.090956 0.798998
-0.006525 -0.627599 0.436230
-0.341997 -0.271783 0.413079
0.341569 0.074773 -0.626328
-0.361707 0.089601 0.800654
0.720193 0.427743 0.071012
0.701339 -0.305204 -0.629524
0.340515 0.090251 0.790629
-0.332294 0.402719 0.403509
0.706119 0.063227 -0.280002
-0.691039 -0.261257 -0.641711
0.338346 -0.257056 0.459141
-0.008903 0.763645 0.406669
0.703583 -0.305073 -0.628925
-0.720105 -0.282884 0.087551
-0.005057 -0.626155 0.437209
0.013886 0.424268 -0.633162
0.377818 0.787230 0.081081
0.349253 0.434289 -0.278235
-0.340744 -0.272277 0.412333
0.338587 -0.255732 0.460118
-0.719118 -0.280715 0.089018
0.019731 0.809285 -0.273516
0.341283 0.075076 -0.627333
-0.006066 0.446065 0.795654
0.705501 0.064644 -0.280588
0.702075 -0.305596 -0.631097
-0.350140 0.099287 -0.610904
0.704180 -0.271409 0.118056
-0.690067 -0.260253 -0.640241
0.356504 -0.656720 -0.664199
-0.699023 -0.619431 -0.264332
0.720039 0.427398 0.069685
0.361886 -0.626339 0.103215
0.348479 0.434325 -0.281035
0.316093 0.423639 0.418669
-0.345044 0.448294 -0.276591
0.693340 -0.629095 -0.269409
0.347135 0.433413 -0.276465
0.363835 -0.627879 0.103546
0.341590 0.074107 -0.626176
0.015025 0.424151 -0.633166
-0.346215 0.097698 -0.612513
0.342839 0.075390 -0.626812
-0.007819 0.446675 0.797032
0.708995 0.103914 0.429015
-0.690463 -0.261738 -0.640984
-0.698826 -0.620118 -0.264274
-0.726684 0.082548 0.429578
-0.699922 -0.620275 -0.264913
0.338645 -0.258114 0.460980
-0.696305 0.418814 0.078285
0.018639 0.811741 -0.271680
-0.349885 0.098230 -0.610282
0.004691 -0.274561 -0.630184
-0.725051 0.081066 0.428351
-0.701056 -0.618812 -0.265999
-0.004718 -0.626722 0.436059
0.706946 -0.273140 0.117007
-0.699682 -0.620347 -0.263609
-0.349520 -0.635143 -0.616844
-0.342244 -0.272350 0.410528
0.707244 -0.272458 0.115740
0.317662 0.419208 0.420100
-0.689098 -0.262209 -0.640157
0.719189 0.427313 0.070723
0.702535 -0.308089 -0.628951
-0.005120 -0.623862 -0.271384
0.341471 0.089368 0.788461
-0.690562 -0.260569 -0.639637
0.358320 -0.655035 -0.665980
-0.700255 -0.619545 -0.263320
-0.340242 -0.620166 0.063662
-0.340719 -0.619252 0.064671
-0.726811 0.082684 0.427074
-0.694201 0.420087 0.080143
-0.700970 0.050568 -0.269181
0.348216 0.434067 -0.278982
-0.331424 0.403318 0.402542
-0.350055 -0.634151 -0.618525
0.710033 0.105697 0.429972
0.318889 0.421226 0.420492
0.011599 0.423502 -0.632039
-0.349025 0.097811 -0.610349
-0.344012 0.451178 -0.278673
0.339092 -0.258550 0.461173
0.005305 -0.273028 -0.629061
0.703283 -0.306732 -0.630085
-0.698878 -0.619453 -0.263523
-0.342236 -0.620054 0.066763
0.006594 -0.273375 -0.629353
-0.006102 -0.627857 0.435714
-0.002955 -0.623530 -0.272962
-0.699636 -0.618861 -0.264356
0.709088 0.105632 0.429975
-0.726220 0.081550 0.429621
-0.001566 -0.622812 -0.272694
-0.721408 -0.281930 0.088521
-0.362403 0.090141 0.800637
0.356721 -0.653775 -0.665995
0.692165 -0.628350 -0.271063
-0.349592 0.098459 -0.610513
0.004361 -0.273769 -0.630308
-0.358493 0.798171 0.058164
0.701523 -0.306309 -0.629521
0.012338 0.421859 -0.633605
0.338675 -0.257795 0.460255
0.361965 -0.627398 0.103201
0.342462 0.074126 -0.627543
-0.003733 -0.624767 -0.274337
-0.003428 -0.623464 -0.270280
0.693157 -0.628652 -0.268269
-0.344079 0.448217 -0.277213
