OFF
256 0 0
0.687176 -0.280131 -0.631111
0.678170 0.070737 0.428909
0.011775 0.439541 0.797059
-0.716593 0.079275 -0.273079
0.705488 0.080712 -0.281434
-0.361595 0.411737 -0.276346
0.353976 -0.656028 -0.624641
0.010023 0.438003 0.796277
-0.333708 0.787146 0.067845
-0.725008 -0.264504 0.093882
0.009503 0.759106 -0.269071
0.010636 0.438099 0.798156
-0.697428 0.104442 0.441765
0.009928 0.758891 -0.271060
0.335629 0.084137 -0.632126
-0.333784 -0.610247 -0.619324
-0.009670 -0.264634 0.783871
0.706269 0.081799 -0.282143
0.702806 0.078668 -0.282389
-0.332944 -0.610299 -0.619221
-0.008601 -0.263153 0.783464
0.678832 0.070997 0.432016
0.010867 0.439438 0.797909
-0.359576 0.412786 -0.276777
-0.332766 -0.609985 -0.620546
-0.358272 0.425668 0.432996
-0.009938 -0.262955 0.782702
0.360959 0.790645 0.079584
0.011112 0.439453 0.799459
-0.365216 -0.628741 0.093211
-0.333248 -0.610019 -0.617017
0.686709 -0.281858 -0.630624
0.677503 0.071801 0.432192
0.006036 0.791573 0.438591
0.346548 0.072373 0.779106
0.688826 -0.259118 0.050512
-0.356420 0.425483 0.433352
0.006759 0.425002 -0.641719
0.353936 -0.656806 -0.622918
0.312878 0.408901 0.421356
0.012781 0.437553 0.798528
0.678837 0.071819 0.429466
-0.348581 0.084964 0.786826
0.362779 -0.600445 0.056672
0.364401 -0.600752 0.056981
-0.712763 -0.286464 -0.629194
0.679680 0.071665 0.431146
0.359413 0.423301 -0.287576
-0.336501 0.043785 -0.603275
0.013212 -0.638451 0.432562
0.679597 0.070719 0.430413
-0.725504 -0.262307 0.093831
-0.706589 -0.611441 -0.272760
0.323570 -0.266521 0.427267
-0.334221 -0.611023 -0.618200
-0.335516 0.786499 0.070121
0.007481 0.426251 -0.640195
-0.709763 0.431844 0.071139
0.011057 0.759240 -0.271319
0.706667 0.080968 -0.281054
-0.333951 0.789906 0.068076
0.004389 0.424805 -0.641677
0.335846 0.085016 -0.630691
-0.358976 0.426401 0.433493
-0.709222 0.432599 0.070756
0.355285 -0.656874 -0.623948
-0.365868 -0.631108 0.092372
-0.358223 0.412114 -0.275628
-0.714766 0.079277 -0.271154
-0.334589 0.043137 -0.602395
-0.705167 -0.608873 -0.273498
0.010603 0.439049 0.797352
0.010659 0.440398 0.800317
0.689299 -0.257478 0.052404
0.688806 -0.256878 0.052595
0.363051 -0.603008 0.057864
-0.697199 0.105159 0.443386
-0.697106 0.104224 0.442026
0.689801 -0.259017 0.053457
0.345022 0.071328 0.779490
0.359363 0.425745 -0.286946
0.343886 0.073159 0.778925
0.009899 0.439515 0.797277
0.344196 0.071998 0.779187
-0.348968 0.085646 0.784539
-0.334462 0.045189 -0.602694
0.010094 0.759525 -0.270317
-0.366553 -0.629935 0.091901
-0.332179 -0.610560 -0.619026
-0.725253 -0.262649 0.095654
-0.714749 0.078711 -0.273276
0.346724 0.072510 0.780575
-0.713590 -0.286818 -0.626379
0.007554 0.794116 0.440353
-0.334384 0.788931 0.068702
-0.696177 0.106264 0.442638
-0.365890 -0.629333 0.091207
0.687782 -0.258394 0.050266
-0.005797 -0.609959 -0.267729
-0.349082 0.083588 0.786630
0.363011 -0.602509 0.057357
-0.712366 -0.287249 -0.624893
0.308109 0.408715 0.422120
0.049431 -0.278190 -0.622520
0.688288 -0.257933 0.054100
0.008462 0.791554 0.437953
0.728770 0.425818 0.091172
0.011078 0.760501 -0.271239
-0.333644 -0.608971 -0.618774
0.006033 0.793443 0.440112
0.728490 0.426546 0.091407
0.336224 0.084160 -0.630130
0.688379 -0.257032 0.052625
0.689731 -0.257095 0.052726
-0.724541 -0.262846 0.096501
-0.358863 0.426744 0.435054
-0.336001 0.044238 -0.603920
-0.724421 -0.263288 0.094517
0.359659 0.425209 -0.286657
0.012021 0.438128 0.795572
0.322877 -0.267628 0.426368
0.047568 -0.277900 -0.622339
-0.334106 -0.608897 -0.620230
0.686056 -0.280625 -0.631718
0.688361 -0.280381 -0.633334
-0.334756 0.043716 -0.601465
-0.715265 0.077662 -0.272946
0.009712 0.440364 0.797611
-0.697789 0.104239 0.441695
0.015331 -0.638645 0.434631
0.679365 0.070081 0.432122
-0.332437 0.788039 0.069793
0.728272 0.425068 0.092215
0.345189 0.069853 0.780332
0.363524 -0.602481 0.057011
-0.333884 0.788026 0.069144
0.362478 -0.602853 0.058194
-0.342021 -0.258319 0.429135
0.322626 -0.267377 0.426005
-0.705098 -0.610453 -0.273512
0.049461 -0.277336 -0.622562
-0.335123 0.788505 0.069393
0.010367 0.759269 -0.270843
0.308844 0.410770 0.420945
-0.725303 -0.261596 0.095389
-0.704071 -0.611254 -0.273727
-0.348467 0.083680 0.786622
0.356678 -0.657627 -0.623360
-0.697513 0.106187 0.442691
0.015170 -0.638824 0.432594
0.006979 0.426648 -0.640130
-0.333829 0.787579 0.068274
-0.725873 -0.263740 0.094850
0.686938 -0.281341 -0.631658
0.336403 0.083496 -0.631003
0.363165 -0.601523 0.057974
0.310478 0.409039 0.420672
0.365375 -0.601140 0.058867
0.728715 0.428123 0.091246
0.362148 -0.604898 0.057838
0.345154 0.072008 0.780633
0.010480 0.760742 -0.269532
0.717643 -0.636536 -0.283275
0.308726 0.408656 0.421034
0.726952 0.425977 0.091455
-0.348248 0.084948 0.785261
0.336601 0.083039 -0.632659
-0.361133 0.410154 -0.276298
0.344002 0.070558 0.779635
0.005617 0.427259 -0.639992
-0.343124 -0.255410 0.429851
0.322922 -0.267360 0.426457
0.005255 0.426476 -0.639694
0.015546 -0.639195 0.433986
-0.716598 0.079734 -0.273879
-0.715169 0.079748 -0.271257
0.011176 0.758115 -0.271797
-0.365425 -0.628439 0.091932
0.322715 -0.265161 0.425962
0.361386 0.423078 -0.285457
0.323658 -0.267093 0.427588
0.705430 0.082630 -0.280932
0.717479 -0.636747 -0.283827
-0.006608 -0.609072 -0.268669
0.009801 0.439062 0.797266
0.309992 0.409235 0.420711
0.727297 0.426188 0.091476
0.687488 -0.257677 0.052473
0.336319 0.082530 -0.630633
-0.334581 -0.610805 -0.621471
-0.713348 -0.286344 -0.624789
0.016674 -0.638542 0.434718
0.688216 -0.256675 0.053733
0.309808 0.408091 0.420514
0.360269 0.789527 0.079162
0.016275 -0.639932 0.433478
0.004762 0.428200 -0.641225
0.344566 0.070875 0.779145
-0.714140 0.079493 -0.272544
0.679344 0.070380 0.431567
0.006678 0.428217 -0.639928
-0.713861 -0.286108 -0.624751
0.716633 -0.636194 -0.283375
-0.335346 0.787047 0.068140
0.006553 0.426491 -0.640166
0.307602 0.408871 0.422463
0.356834 -0.655619 -0.624485
0.718694 -0.636066 -0.283279
-0.710114 0.430621 0.071879
-0.339795 -0.255203 0.428617
0.706776 0.081861 -0.281667
0.050129 -0.280920 -0.621436
0.718505 -0.636489 -0.282207
0.728567 0.428011 0.091938
0.007272 0.793692 0.441099
0.686446 -0.280981 -0.630699
0.727528 0.426574 0.091169
-0.727114 -0.263972 0.094690
-0.716574 0.079140 -0.272820
0.012295 0.439742 0.797794
-0.005684 -0.608681 -0.268159
0.362603 -0.602509 0.056982
0.010409 0.760320 -0.270230
0.728916 0.427100 0.090262
0.359780 0.790554 0.078297
0.309421 0.409034 0.422287
0.718404 -0.635141 -0.282626
-0.710819 0.431066 0.071839
0.719988 -0.636007 -0.284693
-0.709389 0.430691 0.071848
-0.356900 0.425611 0.432966
0.008027 0.790001 0.439039
0.005692 0.427119 -0.641362
-0.714908 -0.285332 -0.625720
-0.333483 0.786602 0.068696
0.686818 -0.280284 -0.631357
0.005424 0.429561 -0.641210
0.006697 0.426394 -0.639209
0.727733 0.427040 0.094377
-0.335112 -0.611085 -0.618104
0.364545 -0.600250 0.058905
0.363007 -0.599426 0.059469
0.007882 0.792323 0.438682
0.717085 -0.634843 -0.283963
-0.713046 -0.285930 -0.625828
0.704302 0.081950 -0.282238
-0.727037 -0.262647 0.095311
0.358334 0.790498 0.078486
0.704386 0.082429 -0.281579
0.688464 -0.258155 0.054372
0.360873 0.424271 -0.284754
-0.336755 0.043631 -0.602129
0.015442 -0.640445 0.435251
0.006345 0.425201 -0.641929
-0.335639 0.041775 -0.601728
0.007010 0.426278 -0.640314
