OFF
256 0 0
-0.699551 0.070274 0.411755
0.014054 0.433942 0.775485
-0.361837 -0.634306 0.066925
-0.717238 0.059166 -0.280969
0.365690 0.788992 0.087851
0.354531 0.075422 -0.655635
0.710744 -0.626402 -0.280701
0.016272 -0.253395 0.811060
0.726893 0.104032 0.446680
0.013954 0.434067 0.773061
0.377442 -0.254235 0.435908
-0.002490 0.769166 0.420849
-0.333856 -0.268744 0.398830
-0.702526 0.411343 0.083218
-0.699947 0.071041 0.410570
0.353292 0.075795 -0.654520
-0.696859 0.070115 0.413314
-0.702247 0.413476 0.083936
-0.334722 -0.270686 0.399233
-0.356142 0.069449 0.764546
0.708283 -0.627223 -0.279976
-0.009305 -0.299875 -0.630019
-0.705936 -0.289494 -0.630621
0.339120 0.105324 0.774066
-0.728262 -0.625598 -0.286460
-0.702863 0.413241 0.082956
-0.001807 -0.622803 -0.270420
0.336669 -0.627148 -0.639633
0.339678 0.105748 0.775321
-0.008418 -0.299579 -0.631431
0.339770 0.105243 0.773629
-0.702465 0.410776 0.085161
-0.717795 0.057925 -0.279915
0.344323 -0.592642 0.100086
-0.697042 0.069864 0.412128
0.374743 -0.255495 0.436096
-0.013253 -0.632685 0.457112
-0.003432 0.768907 0.421028
0.012705 0.433949 0.774229
0.337400 -0.628316 -0.639558
-0.321978 0.414535 -0.248779
-0.705849 -0.285719 -0.627772
0.373560 -0.253620 0.435784
-0.372286 0.769682 0.079533
0.728601 0.106712 0.447453
-0.336082 -0.268446 0.397725
0.355572 0.442783 -0.274074
0.375711 -0.254200 0.433540
0.376574 -0.254317 0.436035
0.366465 0.790931 0.087819
-0.362049 -0.632741 0.067947
0.015078 0.434634 0.774484
-0.332475 0.417335 0.427347
0.695669 -0.283751 -0.618154
0.337329 -0.629323 -0.640758
-0.372821 0.769902 0.078271
-0.356167 0.070636 0.764204
0.375005 -0.254507 0.436582
0.000537 -0.622782 -0.272503
0.700006 0.425572 0.092445
-0.358479 0.074211 0.762876
0.001066 -0.621529 -0.270888
-0.334369 -0.268029 0.399147
0.005869 0.786138 -0.234670
0.696606 -0.282674 -0.616182
-0.733649 -0.288851 0.083979
-0.000663 -0.623047 -0.270928
0.698983 0.422956 0.093758
-0.359524 0.071705 0.763135
0.014420 0.432048 0.773142
0.710203 -0.627580 -0.280402
0.685660 0.091703 -0.269957
-0.321151 0.414338 -0.249333
-0.006213 0.441848 -0.632279
0.000125 -0.620654 -0.273969
-0.011109 -0.631997 0.458621
-0.358611 0.069899 0.763108
-0.705056 -0.288633 -0.628560
-0.362291 -0.634170 0.066862
-0.732914 -0.288568 0.083907
-0.703522 0.411751 0.083029
0.328002 0.437565 0.412420
0.013026 0.433056 0.773397
0.012352 0.433098 0.773123
-0.005028 0.441526 -0.630567
-0.013583 -0.632284 0.458842
-0.001563 -0.620773 -0.271672
-0.705160 0.413200 0.082592
0.354120 0.441812 -0.274888
0.711355 -0.627077 -0.279734
0.354204 0.444723 -0.275093
0.355409 0.442832 -0.274585
0.365489 0.787970 0.086399
-0.705356 -0.286569 -0.628760
-0.727756 -0.622946 -0.288149
0.355222 0.074934 -0.656503
0.014256 0.432723 0.773712
-0.005053 0.440575 -0.632235
-0.001794 0.766456 0.421916
0.699841 0.424097 0.091950
-0.332625 0.415345 0.426730
0.015713 -0.254527 0.810567
0.012835 0.433497 0.774238
0.707631 -0.232787 0.069086
-0.703537 0.410065 0.081400
-0.332293 -0.641314 -0.612123
0.015719 -0.255315 0.811431
-0.002465 0.768001 0.424134
0.013441 0.432946 0.774522
0.000348 -0.623358 -0.271386
0.726280 0.105234 0.447265
0.366175 0.789242 0.087801
0.338517 -0.626989 -0.639927
-0.716907 0.058747 -0.280248
0.328503 0.437152 0.409889
0.710017 -0.624883 -0.280673
-0.727764 -0.621403 -0.286327
0.367928 0.789579 0.087788
0.012446 0.433734 0.774489
-0.718753 0.057894 -0.279348
-0.332782 0.416948 0.426493
-0.005225 0.439452 -0.632417
0.329297 0.438425 0.411482
-0.335223 -0.268519 0.400151
0.687293 0.091591 -0.269783
0.336982 -0.629326 -0.639163
0.374483 -0.254993 0.436806
-0.001204 0.769312 0.422304
0.344264 -0.593369 0.101077
0.366189 0.788658 0.088674
0.686144 0.092124 -0.269727
0.338014 0.105470 0.774184
-0.703607 0.412569 0.082335
-0.001484 0.768895 0.420930
0.704615 -0.235762 0.069678
-0.321407 0.413831 -0.247866
-0.004127 0.440722 -0.632890
0.353440 0.076636 -0.656122
-0.001349 0.770401 0.422926
-0.732680 -0.289677 0.081284
-0.358967 0.071994 0.764084
0.015710 -0.253561 0.810546
0.728142 0.103310 0.448382
0.373415 -0.253171 0.434457
0.726217 0.103915 0.447279
-0.728140 -0.623156 -0.285982
-0.705330 -0.286932 -0.629858
0.375288 -0.256530 0.436484
0.354427 0.441465 -0.275234
-0.731365 -0.288557 0.084717
0.697828 -0.284522 -0.616547
-0.359802 0.071079 0.766848
0.375370 -0.253139 0.436205
-0.009679 -0.297039 -0.633086
-0.732126 -0.290167 0.084382
-0.356893 0.070112 0.764658
-0.333121 -0.270418 0.398274
0.696959 -0.286587 -0.615855
0.327700 0.438624 0.410581
-0.000516 -0.621729 -0.270969
0.002533 -0.622685 -0.271826
-0.004040 0.768862 0.420920
0.006746 0.785020 -0.236396
-0.363136 -0.633800 0.066655
-0.714919 0.058015 -0.279965
0.014985 -0.254706 0.811091
-0.334095 -0.269836 0.398704
-0.706387 -0.287239 -0.631518
0.354278 0.441751 -0.274862
-0.707553 -0.288066 -0.629052
-0.333876 -0.268734 0.397367
-0.003182 0.769303 0.424155
-0.373908 0.770016 0.076695
-0.322520 0.413589 -0.248730
-0.703905 0.413067 0.082332
0.344225 -0.593573 0.098871
0.709759 -0.626158 -0.282217
0.337670 -0.629261 -0.640301
-0.011374 -0.299774 -0.631841
0.698982 -0.283644 -0.617170
0.695713 -0.285520 -0.616265
0.725954 0.105369 0.448008
0.708570 -0.626989 -0.282192
0.711421 -0.625808 -0.280225
-0.698813 0.069780 0.412549
-0.334290 0.417066 0.426896
-0.005872 0.442078 -0.631728
-0.373766 0.771369 0.077008
0.001019 -0.621385 -0.270797
-0.373425 0.769789 0.076048
-0.704770 -0.287566 -0.629487
-0.359254 0.071337 0.765263
0.699023 0.424198 0.093111
0.014434 0.434494 0.773011
0.344348 -0.591854 0.097058
-0.330342 -0.640996 -0.613141
-0.700130 0.067717 0.411362
-0.717425 0.057075 -0.277876
-0.011180 -0.300378 -0.632763
-0.702364 0.412531 0.082503
-0.330982 -0.642778 -0.611793
-0.370391 0.769550 0.076894
-0.001048 0.770927 0.421151
-0.332100 -0.642213 -0.614263
0.354979 0.443962 -0.275507
0.335671 -0.628617 -0.639080
0.353568 0.076881 -0.656402
0.012353 0.432539 0.772245
0.352308 0.075671 -0.653949
-0.329570 0.063811 -0.631434
-0.010129 -0.299621 -0.630846
0.014186 -0.253489 0.810744
0.344381 -0.593279 0.098712
-0.004378 0.768876 0.421307
0.698541 0.424272 0.094619
-0.727145 -0.623001 -0.285402
-0.362045 -0.636341 0.066814
-0.330678 -0.640482 -0.613497
0.337169 -0.628187 -0.641330
0.698503 0.424834 0.095419
0.014361 0.433319 0.774249
-0.702737 0.411825 0.080982
-0.372839 0.772349 0.079214
-0.363152 -0.634034 0.065045
0.355493 0.441708 -0.274096
-0.330481 0.061283 -0.632080
-0.732292 -0.288724 0.084146
-0.322460 0.412903 -0.248798
-0.335061 -0.267849 0.396626
0.338630 0.105545 0.773619
0.338074 -0.628706 -0.640690
-0.727996 -0.621772 -0.286329
-0.363195 -0.634888 0.068328
-0.333911 -0.268580 0.398293
-0.330803 -0.642314 -0.609820
-0.704820 0.411183 0.083682
0.709384 -0.628163 -0.280471
-0.707002 -0.287582 -0.629913
-0.731318 -0.289882 0.083460
-0.334705 -0.269630 0.398641
0.004102 0.786879 -0.235327
-0.705425 -0.287100 -0.630209
0.000174 -0.622241 -0.272006
0.707925 -0.235601 0.069442
-0.331144 -0.642428 -0.611565
-0.733577 -0.290057 0.082503
0.355487 0.442720 -0.275504
-0.697521 0.069009 0.410039
-0.003395 0.770306 0.421754
-0.333672 0.416457 0.427436
-0.321289 0.413521 -0.246948
-0.001292 0.770755 0.423887
0.330484 0.435988 0.410509
0.356767 0.442877 -0.274652
0.705086 -0.234069 0.070111
0.711058 -0.626693 -0.280144
