OFF
256 0 0
0.379186 0.464878 0.449219
-0.351860 -0.235300 0.393758
-0.015886 -0.626685 0.424311
0.379741 0.465714 0.450066
-0.023246 -0.277397 -0.637726
-0.340488 0.091072 -0.664025
0.331300 0.064244 0.786691
0.694351 -0.638714 -0.257988
0.005801 0.444198 0.810656
0.350767 -0.636070 -0.633591
0.694484 -0.637406 -0.259291
-0.017783 -0.624677 0.425938
-0.694963 0.411682 0.080909
-0.015310 -0.618131 -0.268696
-0.016479 -0.617045 -0.268826
0.335076 0.084995 -0.637987
0.726170 -0.302869 0.099715
-0.341380 0.092743 -0.664288
-0.355126 0.093966 0.806880
0.342256 -0.300140 0.420834
0.009186 0.801652 -0.274189
-0.018127 -0.627190 0.427195
0.336392 0.086359 -0.636350
-0.708979 0.076245 -0.295037
0.379404 0.465402 0.451183
-0.681686 -0.269800 -0.642258
0.342827 0.414522 -0.259958
0.015325 0.789836 0.448516
0.720657 0.440249 0.064560
-0.729765 -0.269544 0.078741
-0.707135 0.075330 -0.295010
-0.697206 0.409745 0.080976
-0.708049 0.074987 -0.294993
-0.361430 -0.632859 -0.644940
-0.016186 -0.617577 -0.268175
0.724930 -0.301104 0.101884
-0.729260 -0.270279 0.077270
0.015928 0.786192 0.447978
-0.708125 0.075037 -0.296275
-0.727446 -0.268998 0.078056
-0.718185 0.075575 0.444014
-0.016403 -0.627141 0.425041
0.714279 0.092849 0.430875
0.342690 0.413544 -0.261265
0.716658 0.438274 0.066294
0.337033 0.084842 -0.636468
0.331899 0.066449 0.786057
-0.364790 -0.634637 0.067585
-0.365183 -0.633860 0.066698
-0.016109 -0.626911 0.426431
0.016146 0.786591 0.447735
-0.339938 0.092661 -0.665504
-0.717780 0.076062 0.447102
0.007282 0.440419 -0.629382
-0.719353 0.076278 0.445893
-0.018150 -0.274060 0.785993
0.342715 0.415726 -0.259911
0.016537 0.787331 0.447077
-0.018347 -0.625065 0.426185
-0.019071 -0.628637 0.425841
-0.021085 -0.276052 -0.637799
0.008151 0.439601 -0.631042
0.711902 0.091970 0.431535
-0.354693 0.094931 0.808633
-0.708703 0.075270 -0.295997
-0.320363 0.432984 -0.265664
-0.022689 -0.277137 -0.634440
-0.695635 0.410243 0.081426
0.336183 0.086497 -0.637201
0.703044 -0.292870 -0.613129
-0.015766 -0.626692 0.426390
-0.713853 -0.637016 -0.288090
0.015209 0.789327 0.448240
-0.022404 -0.279015 -0.637580
0.726300 -0.303186 0.101371
0.007654 0.439360 -0.627688
-0.017602 -0.625316 0.425720
-0.320752 0.431527 -0.264049
0.712002 0.092380 0.431052
-0.713436 -0.636699 -0.289953
0.330814 0.064875 0.784534
0.379365 0.465732 0.450144
-0.714572 -0.637726 -0.288392
0.333325 0.064898 0.787371
0.352216 -0.639021 -0.636844
0.010335 0.799880 -0.274418
-0.367027 -0.631788 0.066293
-0.356118 0.094220 0.807218
-0.682637 -0.269042 -0.642233
-0.365794 -0.633503 0.068101
0.015724 0.788642 0.449585
-0.727409 -0.268018 0.077347
0.344033 0.413995 -0.261811
0.010113 0.800077 -0.272518
0.007076 0.439483 -0.628589
-0.713708 -0.636567 -0.288990
0.697374 -0.639406 -0.257855
-0.015979 -0.617971 -0.267624
0.007003 0.441866 -0.631147
0.008996 0.798977 -0.277157
0.348290 0.796146 0.072463
-0.695950 0.409653 0.078654
0.332688 0.065714 0.787733
0.350593 -0.660674 0.087569
0.006315 0.444504 0.811984
-0.345477 0.790554 0.082872
-0.708319 0.076936 -0.294502
-0.714613 -0.637056 -0.289949
-0.709954 0.075791 -0.294178
-0.349736 -0.236098 0.395521
-0.728678 -0.270055 0.077432
-0.707972 0.074565 -0.295298
0.350224 -0.660783 0.088734
0.349208 0.796320 0.071612
0.017577 0.789516 0.448129
0.335449 0.085066 -0.638073
-0.023524 -0.278432 -0.636571
0.335376 0.086122 -0.636166
0.331601 0.064421 0.786981
-0.719425 0.076588 0.446175
-0.714296 -0.637296 -0.291213
0.017187 0.788214 0.447755
0.343094 0.413474 -0.261368
0.003718 0.445475 0.809704
0.377955 0.466980 0.449389
0.693803 -0.636972 -0.259865
-0.341081 0.092696 -0.665104
-0.016554 -0.616629 -0.267892
0.349064 0.796981 0.072160
-0.018930 -0.270817 0.785606
-0.356181 0.096096 0.807340
0.006034 0.446723 0.810963
-0.350469 -0.237782 0.393397
0.009259 0.800482 -0.275542
-0.363062 -0.634676 -0.645129
0.335218 0.085165 -0.637367
-0.015722 -0.618194 -0.266599
-0.017647 -0.272309 0.784564
0.718264 0.440129 0.067767
-0.351122 -0.235252 0.391320
-0.365829 -0.634067 0.065555
-0.321080 0.431449 -0.265252
0.004060 0.445344 0.812332
-0.351258 -0.237923 0.392512
0.016564 0.787378 0.446386
0.725594 -0.302193 0.102682
-0.728840 -0.269547 0.076373
-0.713532 -0.634667 -0.289683
0.011028 0.799143 -0.274462
-0.014417 -0.617148 -0.269173
0.701788 -0.293861 -0.615455
-0.342640 0.441313 0.430299
0.703302 -0.290988 -0.614905
0.350724 -0.636777 -0.634336
0.010101 0.800900 -0.276141
0.712103 0.091305 0.433096
-0.322963 0.430156 -0.264140
-0.350695 -0.236106 0.392993
-0.322136 0.430587 -0.266377
-0.355723 0.095357 0.806893
0.714275 0.092587 0.432448
0.008553 0.442424 -0.629782
-0.345008 0.792511 0.081402
-0.695579 0.407812 0.079781
-0.683028 -0.268497 -0.642500
0.718624 0.440802 0.065453
-0.020477 -0.273682 0.784581
-0.018857 -0.271689 0.786133
-0.695923 0.409645 0.081385
-0.022419 -0.275423 -0.634514
0.731867 0.060380 -0.253221
-0.024627 -0.276510 -0.635816
-0.713356 -0.636876 -0.289129
-0.016050 -0.616669 -0.268037
0.716690 0.441062 0.067118
0.017038 0.788969 0.448868
0.350510 -0.660375 0.087714
-0.351674 -0.236895 0.392858
0.347227 0.795412 0.071574
-0.695658 0.408581 0.080975
0.712426 0.091398 0.431361
-0.016459 -0.626558 0.425780
-0.728354 -0.268547 0.077986
-0.681831 -0.267140 -0.642836
0.332987 0.065666 0.787498
-0.014949 -0.616937 -0.269199
-0.014912 -0.629263 0.426190
0.342746 0.414043 -0.260879
-0.682164 -0.269563 -0.641805
-0.727183 -0.269173 0.075357
-0.018192 -0.272412 0.786412
-0.018270 -0.270872 0.784308
-0.321089 0.431864 -0.265767
-0.320416 0.429963 -0.266886
0.695744 -0.636933 -0.258424
-0.022758 -0.277539 -0.635287
-0.014562 -0.616195 -0.267252
-0.727257 -0.270461 0.078462
-0.017662 -0.626758 0.423718
-0.727106 -0.271639 0.078849
-0.340351 0.091929 -0.664436
0.007471 0.440203 -0.630861
0.015243 0.787813 0.448322
0.009697 0.801074 -0.276460
0.349556 -0.658673 0.087438
-0.729624 -0.267404 0.078071
-0.351156 -0.236722 0.394410
0.348833 -0.660521 0.089215
-0.321510 0.428343 -0.265688
-0.363447 -0.633749 -0.645786
0.731345 0.059512 -0.252089
-0.361339 -0.631537 -0.645341
0.343965 0.414745 -0.262429
0.341733 -0.303337 0.422424
0.695478 -0.637858 -0.259562
-0.695928 0.409794 0.081437
0.694562 -0.636444 -0.257797
0.711476 0.090651 0.430136
0.348468 0.795163 0.072819
-0.340894 0.092850 -0.664922
0.343145 0.414199 -0.262230
-0.017281 -0.629045 0.424136
-0.719551 0.075957 0.444073
0.719398 0.441962 0.067398
-0.719955 0.075913 0.444576
-0.708849 0.075303 -0.295267
-0.714209 -0.635409 -0.288727
-0.348667 -0.235848 0.394230
0.731232 0.059214 -0.255075
-0.681797 -0.266915 -0.642256
-0.015221 -0.617194 -0.267004
-0.709610 0.075946 -0.294737
0.712971 0.092456 0.431487
-0.016002 -0.626878 0.425600
0.718171 0.441418 0.067837
0.342403 -0.303452 0.422364
-0.706762 0.076431 -0.295046
0.712399 0.091150 0.430961
-0.017053 -0.272125 0.785899
-0.711955 -0.636908 -0.289741
-0.341867 0.442451 0.430827
0.335182 0.086331 -0.636974
-0.360455 -0.633815 -0.645951
-0.018428 -0.271277 0.785940
-0.018139 -0.626862 0.424676
0.351039 -0.638246 -0.633283
-0.017041 -0.616529 -0.267645
-0.345571 0.789924 0.082640
0.380285 0.468101 0.451092
-0.339226 0.090378 -0.664523
0.378960 0.466047 0.450118
0.351208 -0.638194 -0.636204
0.727079 -0.302014 0.100368
0.725761 -0.301201 0.102265
-0.341579 0.442813 0.430414
-0.680790 -0.265728 -0.643035
