OFF
256 0 0
0.267765 0.722424 0.410965
0.270555 -0.621607 0.423199
-0.715960 -0.326183 0.405826
-0.049924 0.020824 0.749175
0.599599 0.366491 0.404155
-0.046430 -0.289434 0.388728
-0.399954 0.024348 0.418252
0.596795 0.358214 -0.246495
-0.715677 -0.325298 0.409804
-0.042123 0.717337 0.096493
0.261495 0.393203 -0.581609
-0.055805 -0.623061 0.079833
0.603215 0.690673 0.075322
0.273520 0.372612 0.739136
0.250116 -0.289793 0.746946
-0.056194 -0.622500 0.080440
0.266960 0.722472 0.411583
-0.374373 0.384138 0.077234
-0.700129 0.020481 0.079093
0.606120 0.039384 0.728298
0.597083 0.359636 -0.245123
-0.038926 0.356868 0.400108
-0.387130 -0.648475 0.408145
0.599952 0.356888 -0.247413
-0.068435 -0.625900 -0.607617
0.586143 0.039279 0.083620
-0.716242 -0.324028 0.408143
0.267491 0.723060 0.409724
-0.038902 0.358619 0.400029
0.612554 -0.284228 -0.256100
0.281708 -0.632280 -0.287644
0.606181 0.039003 0.729481
0.586093 0.031439 -0.582720
0.603980 0.364546 0.404860
-0.383381 -0.297838 -0.582284
-0.700499 0.020834 0.078075
-0.039589 0.358578 0.398842
-0.089789 0.683233 -0.566976
0.266409 0.722673 0.409066
-0.385226 -0.298911 -0.583985
-0.397356 0.375452 -0.587103
-0.713083 0.029528 -0.558242
0.613227 -0.281245 -0.254227
-0.068797 -0.622228 -0.607348
-0.047950 -0.288477 0.387764
0.282398 -0.632974 -0.288603
0.587723 0.039853 0.082399
0.599257 0.358479 -0.247118
0.275489 0.374058 0.738718
-0.401451 0.703055 -0.257799
-0.054183 -0.621818 0.081818
0.263141 0.390964 -0.580972
0.606488 0.037034 0.728574
0.588123 -0.580690 0.064422
-0.399911 0.022559 0.419436
-0.727314 -0.323919 -0.241389
0.262004 0.391542 -0.578124
-0.055415 0.044529 -0.579724
0.268591 0.677594 -0.237649
-0.037273 0.358495 0.398533
0.266152 0.723105 0.411192
0.251075 -0.287478 0.746244
-0.087818 0.684257 -0.566832
-0.716964 0.350311 -0.251841
-0.398868 0.702212 -0.255141
-0.714845 -0.325217 0.406571
-0.715680 0.352585 -0.249996
-0.716596 -0.325218 0.407388
-0.069705 -0.624216 -0.608837
-0.374138 0.384669 0.075904
-0.727184 -0.324602 -0.243161
0.603522 0.689359 0.075734
-0.068975 -0.623543 -0.606623
-0.726419 -0.324781 -0.240994
0.269952 -0.618717 0.420951
0.251480 -0.289072 0.744362
0.588282 -0.581648 0.064081
0.584288 0.032376 -0.583213
0.267149 0.723623 0.409289
-0.387690 -0.297431 -0.583010
0.573003 -0.288978 0.415816
-0.045263 -0.287327 0.388219
0.271241 -0.620519 0.423219
-0.069748 -0.624671 -0.607429
-0.055719 -0.623467 0.081404
-0.038947 0.356832 0.401367
-0.385529 -0.630893 -0.239138
0.255424 -0.290491 -0.587061
-0.067847 -0.623888 -0.608213
0.615823 -0.284711 -0.256644
-0.089921 0.682712 -0.567334
0.585174 0.029942 -0.580689
0.587800 0.041149 0.083813
0.614950 -0.284231 -0.255161
-0.395726 0.375904 -0.586559
-0.385886 -0.297931 -0.582291
-0.747548 -0.661657 0.065687
0.598635 0.364309 0.404979
0.612369 -0.285830 -0.255513
0.281682 -0.634777 -0.291309
0.573679 -0.287319 0.414864
0.584445 0.031737 -0.583470
-0.400518 0.703909 -0.254928
0.587272 0.041907 0.083096
0.271568 0.678482 -0.239063
-0.048402 0.022146 0.746042
-0.397288 0.374690 -0.587334
0.606393 0.037463 0.728377
0.587715 0.039824 0.082362
0.267647 0.722526 0.410661
-0.069039 -0.624261 -0.609437
-0.037909 0.358902 0.400724
0.601963 0.691767 0.075682
0.267929 0.722768 0.412488
-0.054761 -0.623180 0.080698
-0.399074 0.703572 -0.256004
-0.048841 0.021267 0.747107
-0.715460 0.353436 -0.251663
0.603744 0.692185 0.072999
-0.399376 0.024979 0.419625
0.602530 0.692043 0.074898
-0.715537 0.349961 -0.249844
0.283418 -0.633872 -0.289188
0.586147 0.033585 -0.582545
-0.385475 -0.297430 -0.584374
-0.068179 -0.623076 -0.608253
0.281265 -0.632666 -0.289764
-0.400561 0.703459 -0.256432
-0.386558 -0.647139 0.409147
0.615277 -0.283224 -0.254397
-0.729013 -0.327940 -0.242125
0.275487 0.375330 0.738599
0.275037 0.374695 0.738628
0.587602 0.038821 0.081983
0.274491 0.374005 0.737844
0.614500 -0.283285 -0.255622
0.283023 -0.633958 -0.289093
-0.053529 0.045649 -0.578900
0.253419 -0.286844 0.746058
-0.396203 0.376023 -0.588912
0.617566 -0.284075 -0.255106
-0.043321 0.715569 0.095953
0.615453 -0.283979 -0.255909
0.607803 0.036549 0.728356
0.589454 0.038273 0.082401
0.281382 -0.633700 -0.289396
0.588685 -0.580143 0.067534
-0.714916 -0.326382 0.407724
0.269838 0.680567 -0.237042
-0.386097 -0.646510 0.408268
0.602473 0.690849 0.074651
-0.715045 -0.327545 0.406263
-0.727513 -0.324503 -0.244156
0.600197 0.364588 0.405112
-0.747937 -0.661330 0.064148
0.613386 -0.282670 -0.255411
0.572792 -0.285970 0.415634
0.249056 -0.285724 0.745034
0.269412 0.679150 -0.238861
0.266962 0.722558 0.408068
0.575078 -0.286304 0.414093
0.603774 0.692558 0.074925
-0.715326 0.027709 -0.558437
-0.055200 0.046318 -0.580881
-0.089210 0.683968 -0.567372
0.573840 -0.286079 0.412512
-0.400112 0.023844 0.420074
0.572226 -0.284169 0.412456
0.281355 -0.632517 -0.290950
0.584899 0.033018 -0.583091
0.267028 0.722307 0.409281
-0.053616 0.044220 -0.580295
0.584063 0.031724 -0.583162
0.275121 0.373164 0.738836
0.601595 0.363078 0.402695
-0.038961 0.359448 0.399047
-0.714572 0.028847 -0.559054
-0.749625 -0.658563 0.064440
0.268970 0.721982 0.409956
0.270430 -0.620876 0.420524
-0.384764 -0.296671 -0.582011
0.262652 0.391526 -0.581180
-0.055177 0.044257 -0.580523
0.250516 -0.286960 0.745364
-0.386683 -0.647515 0.409694
0.267229 0.723605 0.407798
-0.725077 -0.326415 -0.244630
0.268255 0.723156 0.408346
-0.055003 -0.622476 0.080311
-0.374482 0.382337 0.077330
0.270406 -0.620916 0.419291
0.270268 -0.620622 0.422405
-0.089790 0.683171 -0.570061
-0.372923 0.384441 0.077088
0.603602 0.692615 0.076729
-0.727913 -0.326480 -0.243353
0.262978 0.390147 -0.581758
-0.045958 -0.288740 0.387847
-0.714364 -0.325227 0.409092
-0.054742 0.044366 -0.578488
0.257063 -0.289457 -0.586232
0.586895 -0.580407 0.066426
-0.039127 0.358440 0.400222
0.588120 0.038876 0.083071
-0.713930 0.351933 -0.251777
-0.400094 0.701862 -0.256964
0.266856 0.725355 0.408489
0.588233 -0.580249 0.065517
0.601829 0.362086 0.406934
0.614988 -0.282340 -0.257380
-0.045953 -0.287099 0.389080
-0.715222 0.026717 -0.559563
-0.747213 -0.660790 0.064251
-0.054257 -0.624741 0.080818
0.263835 0.392013 -0.580070
0.270332 0.679898 -0.237997
-0.397853 0.023091 0.419502
0.282055 -0.631404 -0.288399
-0.715576 0.352415 -0.250705
-0.715940 -0.324193 0.407197
0.598998 0.363682 0.403057
-0.046165 0.022166 0.747585
0.257970 -0.289509 -0.586777
0.257099 -0.289142 -0.586520
0.281889 -0.631722 -0.289878
-0.714987 0.029066 -0.559126
0.251017 -0.288439 0.745838
-0.044139 0.717535 0.095755
-0.385889 -0.646771 0.408340
0.586495 0.033192 -0.581324
0.600674 0.357723 -0.245589
0.606839 0.039604 0.726748
-0.700010 0.020715 0.077817
-0.716884 -0.325943 0.407348
-0.055867 -0.622334 0.082514
-0.038991 0.358782 0.399709
-0.047877 0.022202 0.746625
-0.048606 0.020947 0.747602
-0.055175 0.044304 -0.578967
-0.699637 0.018577 0.077807
-0.383946 -0.632591 -0.240713
-0.398127 0.023351 0.417239
0.252254 -0.288635 0.745310
-0.068798 -0.621776 -0.608760
0.251237 -0.288389 0.745173
-0.749746 -0.659683 0.063914
-0.385626 -0.298030 -0.582694
-0.717349 -0.325625 0.407380
-0.386410 -0.633286 -0.241708
-0.070224 -0.623586 -0.609710
0.268394 0.722951 0.409647
-0.713300 0.028462 -0.557778
-0.044633 0.717265 0.096214
0.270687 -0.618800 0.420874
-0.400650 0.023978 0.420677
-0.395895 0.378293 -0.588467
