OFF
256 0 0
-0.047117 -0.312843 0.422777
0.601773 0.019583 0.067891
0.266396 -0.291054 -0.564177
-0.048941 0.035910 -0.568376
0.278855 -0.647167 0.426740
-0.757709 -0.650157 0.067712
-0.048083 0.036070 -0.569043
0.645302 -0.320154 -0.273278
-0.076523 0.748763 0.077563
0.620094 -0.654692 0.078718
-0.400946 0.029969 0.426631
0.622114 -0.655192 0.078103
-0.057505 0.028465 0.789284
-0.756193 0.026691 0.069878
-0.393034 0.739057 -0.254309
0.610728 0.723696 0.067144
0.619901 -0.654509 0.075666
-0.396660 -0.648637 -0.260647
-0.756384 -0.649545 0.068463
0.278170 -0.634524 -0.243774
0.620526 -0.655007 0.077959
0.630410 0.383543 0.411583
0.610466 0.721936 0.068992
-0.757162 -0.649827 0.067919
-0.755490 0.028228 0.069336
0.277385 -0.636050 -0.242887
-0.401291 0.367337 0.050950
-0.045382 -0.312641 0.420529
-0.395941 -0.650080 -0.262738
-0.757857 -0.318928 -0.271994
0.297596 0.718155 0.409394
0.628897 0.385759 0.412076
-0.048316 0.033970 -0.568319
-0.048483 0.036220 -0.568166
-0.409009 -0.321565 -0.614732
-0.392098 0.738039 -0.257715
0.299282 0.717937 0.410428
-0.047030 0.035072 -0.567810
-0.742551 0.031091 -0.583859
-0.045936 0.035650 -0.568235
-0.397220 -0.651688 -0.260112
0.266654 -0.289992 -0.564025
-0.757364 -0.651249 0.067712
0.628409 0.400741 -0.291467
-0.400883 0.368924 0.048339
0.619281 -0.655913 0.079930
-0.055684 -0.638816 -0.616834
-0.402517 0.030111 0.424541
-0.756210 0.026373 0.072020
-0.391518 0.736910 -0.256680
-0.060313 0.717874 -0.599255
0.608670 0.724116 0.068870
0.647151 -0.319860 -0.272127
-0.423402 -0.636888 0.413280
-0.760740 -0.306287 0.418851
-0.755942 -0.320697 -0.274243
0.271441 0.395749 -0.591006
-0.076580 0.749813 0.078639
-0.049938 0.036329 -0.567316
0.267360 -0.294174 -0.565650
-0.397857 -0.649796 -0.260748
0.277130 -0.635437 -0.243365
-0.761405 -0.304967 0.419903
0.285796 0.378471 0.756018
0.280369 -0.305920 0.784898
-0.740172 0.030920 -0.584870
-0.740342 0.031503 -0.583397
-0.047920 0.036687 -0.569910
0.286221 0.377522 0.755994
-0.076354 0.749956 0.078832
0.300704 0.719097 0.410893
-0.401254 0.030901 0.426210
-0.054441 -0.638506 -0.617549
-0.747017 0.375891 -0.234263
0.287625 0.378828 0.755921
0.590374 -0.292156 0.397727
0.287462 0.378379 0.757378
0.286808 0.377907 0.755577
-0.055677 -0.638752 -0.615269
0.603372 0.020099 0.067549
0.620715 -0.656591 0.077383
-0.042341 0.357923 0.421618
-0.058111 0.719583 -0.599024
-0.740346 0.033709 -0.583839
0.627022 0.398521 -0.291220
-0.040971 0.357684 0.422412
-0.041871 -0.649736 0.087552
-0.054463 -0.638519 -0.616257
0.278149 -0.634904 -0.244096
0.279163 -0.647732 0.427625
0.265605 -0.291111 -0.565032
0.628527 0.383953 0.411893
-0.042733 0.359184 0.423543
0.590767 -0.292355 0.396992
-0.054496 -0.640172 -0.616337
0.604529 0.018905 0.068625
0.299456 0.717207 0.412254
0.627299 0.400775 -0.290606
-0.047808 -0.313142 0.421908
0.277686 -0.635676 -0.242828
-0.738761 0.033077 -0.584897
-0.039651 -0.651251 0.087806
0.619740 -0.655524 0.078418
-0.049241 -0.310716 0.422100
-0.399579 0.348374 -0.556259
-0.392979 0.736606 -0.257622
-0.058733 0.718429 -0.599146
0.611168 0.724263 0.068564
-0.757416 -0.319569 -0.273810
0.264978 -0.290589 -0.564806
0.297480 0.717773 0.407465
0.620148 -0.653184 0.078028
-0.398204 0.366251 0.049062
0.630622 0.384022 0.413601
0.298447 0.718068 0.410180
-0.755481 0.029478 0.070647
0.265484 -0.289216 -0.564932
-0.756622 -0.649714 0.067927
-0.049563 0.035404 -0.567508
0.265064 -0.292976 -0.565094
0.628797 0.383124 0.412763
-0.390147 0.736971 -0.254563
0.272210 0.395285 -0.590088
0.603930 0.020573 0.067755
0.610782 0.722074 0.067727
0.646162 -0.319712 -0.272705
0.590508 -0.291745 0.397154
0.589392 -0.291641 0.394036
0.620352 -0.655114 0.078966
0.298718 0.717426 0.412493
-0.392962 0.737606 -0.256099
0.278233 -0.647570 0.426530
0.627934 0.399117 -0.290329
0.612817 0.040510 -0.611196
-0.078075 0.750470 0.079717
0.299812 0.717760 0.410787
-0.758443 -0.320238 -0.273349
0.298879 0.716736 0.410329
-0.745353 0.375066 -0.234335
-0.398244 -0.649680 -0.260179
0.267077 -0.292737 -0.565096
-0.392177 0.736642 -0.254183
0.266595 -0.288913 -0.565036
0.608935 0.722976 0.070415
0.591209 -0.293038 0.397771
0.611949 0.041728 -0.609336
-0.740073 0.032539 -0.585535
0.628599 0.398394 -0.291931
0.613272 0.040291 -0.612159
0.276353 -0.635327 -0.242212
0.645661 -0.319540 -0.273450
0.279576 -0.304762 0.787078
0.613235 0.041026 -0.611314
-0.397361 -0.648288 -0.261556
-0.400583 0.031276 0.425377
0.267054 -0.289009 -0.565510
-0.394765 -0.650109 -0.260594
0.276756 -0.636971 -0.242205
-0.760973 -0.304875 0.420197
-0.057440 -0.638979 -0.617118
-0.748191 0.373401 -0.233411
0.614141 0.040489 -0.609759
0.611810 0.041148 -0.609938
-0.041024 -0.652746 0.085951
0.279794 -0.648427 0.425136
-0.754933 -0.322211 -0.272971
0.611613 0.034676 0.753992
-0.408315 -0.319373 -0.613725
0.609631 0.722300 0.067755
0.612233 0.039520 -0.607611
-0.041055 0.358373 0.422496
-0.746406 0.373002 -0.232991
0.610836 0.722344 0.068527
-0.055271 0.028638 0.788759
-0.747866 0.376090 -0.235789
0.251542 0.729351 -0.265558
0.265687 -0.289619 -0.565222
-0.759571 -0.649206 0.068738
0.280557 -0.647548 0.426869
0.285459 0.378357 0.756058
-0.740868 0.033060 -0.584889
-0.055774 0.028426 0.789194
-0.755791 -0.319460 -0.272472
0.251514 0.728775 -0.265661
-0.755424 0.027109 0.070697
0.628422 0.400408 -0.291141
-0.391701 0.737097 -0.256381
0.287389 0.378722 0.755125
-0.753801 -0.319990 -0.272944
-0.059684 0.718696 -0.598754
-0.756396 0.026089 0.071889
-0.423456 -0.634349 0.412812
0.591129 -0.292164 0.398357
0.612279 0.033771 0.751764
-0.057643 0.028787 0.789813
-0.406953 -0.321561 -0.615870
-0.747660 0.375562 -0.235174
0.628428 0.402686 -0.291661
-0.054977 0.029232 0.788002
-0.400132 0.347196 -0.556081
-0.390897 0.738455 -0.254637
0.619222 -0.654468 0.078740
0.278644 -0.647876 0.426716
-0.408749 -0.321227 -0.615689
0.603599 0.019611 0.067857
0.277244 -0.636169 -0.245153
-0.756245 -0.318614 -0.274122
0.282415 -0.306971 0.786065
0.286075 0.379125 0.757716
-0.422231 -0.635367 0.411764
-0.041402 0.357455 0.423930
-0.746519 0.374900 -0.232749
0.626425 0.400021 -0.293672
-0.742116 0.032041 -0.583790
-0.058081 0.027858 0.789891
0.592272 -0.291893 0.398752
-0.042994 -0.652200 0.089974
-0.075935 0.749742 0.079992
-0.401106 0.347166 -0.557404
0.604579 0.019468 0.071520
0.620767 -0.656633 0.078367
-0.055460 -0.638702 -0.616426
-0.057626 0.029037 0.789236
0.267562 -0.290863 -0.566300
-0.040921 -0.652113 0.087828
-0.055274 -0.640758 -0.617136
0.590169 -0.290672 0.396153
-0.397761 -0.648586 -0.260514
0.646720 -0.320265 -0.274204
0.280048 -0.647996 0.424612
0.270383 0.397797 -0.590022
0.613145 0.039927 -0.610192
0.279745 -0.649290 0.429022
0.277833 -0.636896 -0.244456
0.272119 0.397790 -0.590258
0.627758 0.401830 -0.292831
0.604120 0.019304 0.068696
-0.041427 -0.652060 0.086429
0.276313 -0.633981 -0.244571
0.280711 -0.305952 0.786119
-0.409085 -0.320491 -0.612989
-0.400980 0.347114 -0.556077
0.297849 0.716986 0.412187
0.282646 -0.306471 0.785821
-0.740623 0.033778 -0.584603
-0.041667 0.357709 0.421678
-0.399658 0.370096 0.048253
0.604026 0.019537 0.068258
-0.400426 0.368246 0.050543
-0.400175 0.347371 -0.557901
0.645260 -0.320503 -0.275055
0.253116 0.728123 -0.268949
0.254625 0.728461 -0.264328
-0.047036 0.035007 -0.567947
-0.400834 0.369632 0.047517
-0.740434 0.031406 -0.584387
