OFF
256 0 0
-0.066307 -0.338010 0.599463
0.652411 0.359652 0.632761
-0.425290 -0.367522 -0.420164
-0.432091 0.007814 0.642000
-0.419191 0.330719 0.278352
0.259431 0.734755 -0.077852
-0.067896 -0.337075 0.600306
0.263682 -0.703980 0.621134
-0.431758 0.006454 0.642761
-0.402613 0.350066 -0.408457
-0.106563 0.351040 -0.785992
-0.424853 -0.351135 0.273396
0.627903 0.002667 0.280223
-0.431143 0.020094 -0.798063
-0.427233 0.709295 -0.080833
-0.431143 0.008964 0.640451
-0.422590 -0.367839 -0.419114
0.275541 0.339238 -0.425892
-0.098216 0.361515 0.627336
0.265217 -0.705124 0.621113
0.268562 0.022060 0.635404
-0.074988 -0.713725 -0.444618
-0.096436 0.359716 0.626403
-0.088256 0.713972 0.266876
0.250896 0.022189 -0.796495
-0.430609 0.008482 0.642311
-0.796437 -0.003628 0.273878
-0.090408 0.714976 0.265697
-0.103725 0.351072 -0.786147
0.631856 -0.716767 0.297093
0.644384 0.716354 0.267491
-0.106518 0.351758 -0.785732
-0.431748 0.018636 -0.796348
-0.773661 -0.006097 -0.445493
0.258928 -0.344362 -0.426307
-0.422912 -0.349872 0.273891
-0.064863 -0.737961 0.256392
-0.427029 0.710046 -0.079615
0.629937 0.001968 0.278080
-0.089880 -0.354430 -0.807461
-0.091323 -0.355310 -0.805055
0.627563 0.001394 0.278630
-0.075734 -0.714060 -0.444581
0.278051 0.706773 0.634962
-0.788160 0.335449 -0.092936
0.630190 0.003712 0.280029
0.651716 0.359944 0.630989
0.266461 0.021897 0.637873
0.273742 0.340383 -0.423393
-0.106869 0.351435 -0.784398
-0.774481 -0.005524 -0.444335
-0.425390 -0.367410 -0.418738
0.629463 0.341106 -0.071055
-0.802912 -0.369617 -0.063039
0.625002 -0.334221 -0.090735
-0.788612 0.339461 -0.093847
-0.065756 -0.337546 0.602539
-0.087174 -0.353222 -0.806387
-0.427121 -0.740925 -0.065583
-0.433129 0.019115 -0.796988
-0.774155 -0.007826 -0.444588
0.277445 0.706773 0.634888
-0.066924 -0.337226 0.602628
-0.424890 -0.369390 -0.418990
-0.426361 -0.741469 -0.065439
0.259381 -0.343305 -0.424486
0.272222 -0.720959 -0.081399
-0.431372 0.019386 -0.796073
-0.428017 0.710604 -0.080050
-0.098172 0.361185 0.627014
-0.098064 0.360031 0.628401
0.274302 0.338324 -0.423886
-0.789401 0.337578 -0.095667
0.260863 0.733792 -0.078560
0.630085 -0.714390 0.297305
-0.076586 -0.714437 -0.444582
-0.403751 0.349153 -0.407532
0.624473 -0.332750 -0.091527
-0.774532 -0.006588 -0.443991
-0.425667 -0.367274 -0.421197
-0.787450 0.336031 -0.092574
0.249329 0.022545 -0.795038
-0.402262 0.349082 -0.409122
-0.402439 0.348830 -0.411603
0.267084 0.022232 0.636964
0.250329 0.020748 -0.796087
0.259874 0.734947 -0.076782
0.624026 -0.334132 -0.091455
0.276140 0.339346 -0.423942
-0.428208 0.708264 -0.082080
-0.089558 -0.353781 -0.808061
-0.426633 -0.742595 -0.064373
-0.423220 -0.365264 -0.418411
-0.420103 0.331594 0.280255
-0.427953 0.710998 -0.081571
0.265813 -0.702208 0.623238
-0.800095 -0.005169 0.274784
-0.798065 -0.005298 0.274577
-0.789120 0.335199 -0.095442
-0.419175 0.331271 0.279393
-0.426447 -0.365214 -0.418933
-0.096243 0.359806 0.627197
0.249674 0.022328 -0.795131
0.270798 -0.720971 -0.080216
0.270663 -0.722497 -0.080966
-0.420430 0.332098 0.280531
0.264731 0.022202 0.636397
-0.426734 0.708734 -0.077805
0.274886 0.339680 -0.423561
-0.061486 0.733074 -0.405527
0.279279 0.706789 0.635333
-0.774265 -0.006819 -0.444258
0.260113 0.734060 -0.079454
-0.430472 0.008475 0.643076
-0.430365 0.007974 0.641117
-0.426578 -0.742052 -0.064622
-0.065130 -0.338572 0.601861
0.257395 0.733463 -0.080064
-0.089652 -0.356375 -0.806023
0.639402 0.000846 -0.438697
-0.430410 0.020249 -0.796101
0.268717 0.022519 0.636089
0.650827 0.357947 0.632365
0.269540 0.023268 0.633910
-0.774011 -0.007954 -0.445145
-0.090594 -0.354613 -0.805002
-0.431071 0.008403 0.642032
-0.089739 0.713713 0.267260
-0.088786 0.714909 0.267048
0.249635 0.022865 -0.795341
0.269020 -0.720755 -0.078641
-0.774533 -0.006041 -0.445758
0.274339 0.340342 -0.423285
-0.065475 -0.735795 0.257507
0.280068 0.705286 0.635229
-0.426963 -0.368534 -0.420695
0.267977 -0.720569 -0.080686
-0.426162 0.710174 -0.079691
0.650175 0.359272 0.631570
-0.105747 0.349282 -0.786228
-0.787703 0.337925 -0.094177
-0.068049 -0.336737 0.599945
0.650726 0.359758 0.632691
0.275707 0.340295 -0.425370
0.631138 -0.716548 0.299047
-0.425579 -0.740061 -0.066331
0.625894 -0.333815 -0.091368
0.259012 -0.341771 -0.424438
-0.427921 0.709676 -0.079678
-0.432142 0.019409 -0.796519
0.280053 0.706539 0.634684
-0.428152 0.711674 -0.079800
-0.803781 -0.369292 -0.065207
0.258932 -0.342724 -0.425058
0.259401 0.734237 -0.078505
0.260173 -0.343278 -0.425888
-0.425356 -0.351018 0.273775
-0.066913 -0.337202 0.600476
-0.096523 0.361245 0.627323
-0.419481 0.331199 0.276908
-0.774917 -0.006687 -0.443937
0.267335 0.021690 0.635765
0.625956 -0.336047 -0.089536
-0.075701 -0.714342 -0.444048
-0.423254 -0.366138 -0.420037
-0.427160 -0.741501 -0.063608
0.642919 0.714347 0.267580
0.643434 0.716487 0.268831
0.638762 0.002169 -0.437266
0.257992 0.735439 -0.078450
0.629656 0.341234 -0.070432
0.249387 0.022719 -0.794453
-0.403337 0.347470 -0.409320
0.640137 0.001296 -0.440433
-0.425951 -0.740733 -0.065100
0.629803 -0.360316 0.627837
-0.425529 -0.367532 -0.418964
-0.799145 -0.006451 0.275073
0.250279 0.022272 -0.794542
-0.799613 -0.004082 0.276021
-0.424362 -0.349101 0.273218
0.275890 0.341113 -0.425485
-0.060292 0.733303 -0.404816
-0.063693 -0.737633 0.256705
-0.799424 -0.003889 0.274226
0.652769 0.360109 0.633147
0.259460 0.736177 -0.078513
0.260337 -0.343960 -0.426923
-0.431211 0.007887 0.642058
0.629022 0.004985 0.279816
-0.098959 0.359009 0.629739
-0.067679 -0.338872 0.600696
0.630703 -0.718075 0.297650
-0.431185 0.006570 0.643804
-0.075554 -0.713725 -0.441941
0.639114 0.000845 -0.438356
-0.773954 -0.008060 -0.444228
0.276760 0.340211 -0.423896
-0.076700 -0.714503 -0.444838
-0.425476 -0.351033 0.272765
-0.099363 0.362230 0.626268
0.624067 -0.333731 -0.090228
0.278963 0.707277 0.636815
0.652223 0.359661 0.631252
-0.425378 -0.365483 -0.421514
0.639502 -0.000862 -0.438594
0.628473 0.341962 -0.072473
-0.061168 0.732418 -0.405850
-0.097741 0.360804 0.626549
0.270129 -0.719839 -0.080126
-0.433252 0.020284 -0.797663
0.278566 0.704802 0.635890
-0.107043 0.350528 -0.784577
0.644368 0.717542 0.266992
-0.426332 0.707936 -0.080909
0.629433 -0.360453 0.630228
0.275823 0.339392 -0.424236
-0.076153 -0.713353 -0.444118
-0.105852 0.350696 -0.784389
0.259062 0.735264 -0.077579
-0.426853 -0.741689 -0.066037
-0.431449 0.019505 -0.798130
0.272063 -0.718840 -0.080256
-0.064902 -0.736357 0.257392
-0.803972 -0.368507 -0.066675
0.624799 -0.334301 -0.091689
-0.421498 0.332166 0.277645
0.260012 0.733876 -0.076626
-0.425474 -0.349734 0.273004
-0.431039 0.007750 0.643520
-0.434466 0.018957 -0.798818
-0.427139 0.710850 -0.080040
-0.431915 0.006244 0.643445
0.258575 -0.343686 -0.427142
0.652229 0.360548 0.630658
0.270634 -0.720240 -0.080616
0.275868 0.339764 -0.425996
-0.424442 -0.350874 0.273639
0.630854 -0.715779 0.298862
-0.403765 0.348604 -0.410138
0.630042 -0.360920 0.631279
-0.418981 0.332810 0.278042
-0.099724 0.361780 0.626296
0.628355 0.341562 -0.071888
-0.427422 0.710910 -0.079685
0.279279 0.707150 0.634154
0.629068 0.344133 -0.070449
0.271061 -0.722502 -0.079552
-0.063403 -0.736254 0.256775
0.643390 0.716556 0.266606
-0.430405 0.008531 0.642000
0.281292 0.706057 0.634368
-0.430548 0.007303 0.641344
-0.425466 -0.367651 -0.420342
-0.426526 -0.366900 -0.418353
-0.431397 0.008222 0.640662
