OFF
256 0 0
0.126939 0.388612 -0.633951
-0.230458 0.695456 0.044176
0.087650 -0.657458 -0.296048
-0.579010 -0.288438 0.720043
0.087423 -0.659344 -0.295123
0.453728 0.378088 -0.307018
-0.208497 0.064796 -0.659972
-0.577161 -0.000845 -0.292317
0.077274 -0.307658 0.696627
-0.230910 -0.635741 0.025128
-0.230472 -0.634163 0.024657
0.432247 -0.313068 -0.307755
-0.573673 -0.001160 -0.293787
0.128909 0.714947 0.353174
0.792442 0.028595 0.387969
0.107480 -0.635494 0.357005
-0.550261 0.371561 -0.601268
-0.212655 -0.636428 -0.634860
0.463936 -0.651383 0.029348
-0.232438 0.730385 -0.642384
0.428470 -0.295645 0.347749
0.430387 0.044551 -0.641018
-0.576731 -0.286603 0.721837
-0.553589 0.726814 -0.298003
0.445727 0.705078 0.023836
0.446746 0.702838 0.024239
0.110859 0.707978 -0.296132
0.775626 -0.290387 0.037302
0.429971 -0.295916 0.349080
-0.578342 0.356804 0.017609
-0.566136 -0.617285 -0.291388
-0.566094 -0.619020 -0.292693
0.108454 -0.635230 0.359210
-0.211133 -0.637635 -0.636038
0.111349 0.707740 -0.298225
0.772980 -0.289243 0.039097
-0.571412 -0.655557 0.389011
-0.556839 -0.303255 -0.649288
0.771770 0.354636 0.042554
-0.558099 -0.301892 -0.646590
0.077269 -0.307204 0.697555
-0.557085 -0.304813 -0.646372
0.465290 -0.650129 0.029021
0.079122 -0.305839 0.698120
0.789236 0.029542 0.389543
-0.209386 0.066314 -0.659040
0.790441 0.030505 0.389252
0.453760 0.376388 -0.305212
-0.566270 -0.618993 -0.293282
-0.232465 0.730614 -0.641052
-0.231292 0.730068 -0.641788
-0.550782 0.370657 -0.603272
0.465794 -0.650521 0.028495
-0.565860 -0.618065 -0.292810
0.077766 -0.306582 0.696375
-0.578581 -0.289741 0.720303
-0.550773 0.370773 -0.600106
0.117091 -0.296289 -0.641125
-0.231568 0.730365 -0.644222
-0.549788 0.372941 -0.601502
0.772490 0.354071 0.042547
0.775780 -0.289450 0.035689
0.125637 0.389483 -0.632401
-0.225506 0.046727 0.693191
-0.260199 0.383953 0.380671
0.446161 0.705166 0.024454
-0.211022 -0.636502 -0.636477
-0.211922 -0.635430 -0.635893
-0.230786 -0.634600 0.026409
-0.578066 0.355754 0.020210
0.127359 0.715768 0.355521
-0.549418 0.373002 -0.602998
0.429249 0.043784 -0.641748
0.464114 -0.652173 0.027527
-0.262843 0.383235 0.379180
-0.260323 0.384507 0.381692
-0.209310 -0.637692 -0.638394
0.772622 0.355512 0.042585
-0.558591 -0.304039 -0.648428
0.790207 0.029393 0.390851
0.122811 0.391196 -0.632281
-0.574692 -0.308621 0.053815
0.117113 -0.297734 -0.642511
-0.571949 -0.658924 0.387546
-0.232247 0.728832 -0.642447
-0.232671 0.693991 0.044147
0.445779 0.703478 0.024172
0.789003 0.028682 0.390242
-0.207416 0.066394 -0.657892
0.111512 0.708009 -0.296960
0.405164 0.022439 0.701843
-0.230004 -0.633217 0.024290
0.769412 0.353924 0.043196
-0.231041 -0.635253 0.026472
-0.570197 -0.657669 0.388174
-0.233645 0.729741 -0.640473
0.115893 -0.300151 -0.640779
0.449493 0.357014 0.374548
0.429068 -0.295949 0.349054
0.101318 0.394148 0.718677
-0.231823 -0.635498 0.023513
-0.553203 0.725609 -0.299804
-0.231423 0.695824 0.042344
-0.232397 0.695450 0.043925
-0.558613 -0.304922 -0.649176
-0.218651 -0.653623 0.715216
0.462632 -0.651385 0.029290
-0.551603 0.373058 -0.601155
0.445444 0.703478 0.025348
-0.261331 0.385278 0.379124
-0.555486 0.727628 -0.300329
0.114873 -0.297956 -0.641315
-0.230395 -0.636347 0.026244
0.454060 0.377641 -0.305900
0.430321 0.043320 -0.641421
-0.578782 0.354339 0.018344
0.789091 0.029506 0.389149
-0.231863 0.695593 0.043364
-0.570459 -0.659604 0.389685
-0.554476 0.727086 -0.296435
0.113521 -0.298282 -0.642940
-0.571580 0.039024 0.397872
0.444454 0.703292 0.024016
0.109323 0.709351 -0.297806
-0.260549 0.384520 0.380666
-0.229950 -0.635541 0.025717
-0.577348 -0.286929 0.721117
-0.232465 0.731459 -0.642988
-0.579636 0.353972 0.017330
-0.554411 0.727901 -0.298203
-0.573821 0.039670 0.400136
0.773253 -0.290077 0.040005
-0.234471 0.729403 -0.641647
0.449045 0.357178 0.374327
0.108003 -0.633729 0.357428
-0.573206 -0.311471 0.052950
-0.572738 0.040141 0.400209
0.791050 0.031529 0.388338
0.466026 -0.650157 0.028491
-0.209561 0.065340 -0.657782
-0.571292 0.040487 0.399462
0.771406 0.356147 0.042313
-0.557467 -0.303920 -0.648831
-0.574859 -0.310443 0.052156
-0.219716 -0.653230 0.714034
0.774699 -0.290143 0.037650
-0.578977 -0.286857 0.721373
-0.231222 0.692560 0.045205
-0.231010 0.694680 0.042799
-0.230457 0.695990 0.044541
-0.230236 0.694541 0.043122
0.115156 -0.298327 -0.641416
0.078195 -0.306844 0.697707
0.448508 0.356315 0.371312
-0.261572 0.384304 0.379874
-0.208524 0.067220 -0.656628
-0.571286 0.039667 0.398813
0.432782 -0.311452 -0.308309
0.771673 0.355893 0.040729
0.772147 0.356509 0.042429
-0.574536 -0.000669 -0.293407
-0.218626 -0.653079 0.715459
0.463439 -0.651577 0.026674
0.086373 -0.657838 -0.293057
-0.223380 0.046248 0.693675
0.430691 -0.311550 -0.308059
0.445288 0.704109 0.023554
0.791952 0.030545 0.390303
0.088179 -0.657741 -0.295730
0.125900 0.714051 0.354762
-0.566421 -0.618279 -0.292006
0.445423 0.704563 0.025419
-0.548955 0.373818 -0.601250
-0.574635 0.001852 -0.294993
0.774078 -0.292688 0.034985
0.126901 0.714881 0.356067
-0.572479 0.040103 0.399749
0.124996 0.388878 -0.633237
0.427549 -0.295633 0.348145
0.790761 0.030025 0.387421
0.464320 -0.654006 0.030556
0.431751 -0.311388 -0.309076
0.109754 0.708586 -0.297137
-0.207793 0.066693 -0.657698
0.429475 -0.297804 0.348959
-0.578081 -0.286804 0.722486
0.428539 0.043868 -0.641064
-0.571614 0.040573 0.398283
0.077025 -0.305782 0.699174
-0.555201 -0.303289 -0.647550
0.114823 -0.298640 -0.642101
-0.208321 0.066248 -0.658280
-0.556123 -0.303242 -0.649041
0.077069 -0.307020 0.698219
0.770708 0.354636 0.041938
0.099967 0.392516 0.718990
-0.554660 0.726601 -0.299672
0.773883 0.357229 0.042624
0.454672 0.377710 -0.305995
-0.555250 0.726315 -0.298389
0.464193 -0.652012 0.028816
-0.579446 0.354646 0.017941
-0.578688 0.355307 0.018799
-0.571431 0.040862 0.396840
-0.558927 -0.303245 -0.649349
0.445623 0.703111 0.023976
0.106817 -0.635563 0.357172
-0.218899 -0.653186 0.716569
0.793909 0.037616 -0.319403
-0.573926 0.000749 -0.294066
0.406723 0.024451 0.704176
0.109463 -0.635686 0.357966
-0.231734 0.696426 0.045879
0.100906 0.394550 0.718532
0.429307 0.044436 -0.642375
-0.231487 -0.634045 0.025363
-0.556148 0.726592 -0.299652
0.453549 0.378089 -0.305053
-0.570156 -0.656771 0.388127
-0.209093 -0.638295 -0.636965
0.408525 0.023403 0.703011
-0.578308 -0.285144 0.719563
0.463653 -0.650695 0.028959
0.450001 0.353275 0.373174
-0.219649 -0.651392 0.714679
-0.260446 0.383528 0.381061
-0.206606 0.065516 -0.657578
0.449302 0.354712 0.373417
-0.260650 0.384383 0.379072
-0.566318 -0.619892 -0.292898
-0.573190 -0.311006 0.053854
0.794835 0.034161 -0.316930
0.098775 0.393542 0.718030
-0.231016 0.730328 -0.641987
-0.572327 0.038808 0.398809
0.429729 0.044935 -0.640938
0.124959 0.389241 -0.630826
-0.261438 0.384481 0.381372
0.111107 0.707329 -0.297141
-0.210871 -0.637335 -0.634696
0.110385 0.707540 -0.296584
-0.233946 0.728516 -0.642389
0.125326 0.714791 0.356190
-0.550514 0.372521 -0.600773
0.769622 0.354507 0.044886
0.794872 0.035403 -0.317819
0.462888 -0.652086 0.027714
0.110503 0.707835 -0.295107
0.447391 0.704037 0.022342
-0.230391 0.696061 0.042676
-0.210497 -0.636781 -0.636290
0.791117 0.028567 0.389178
0.077759 -0.308158 0.697173
-0.570239 -0.659787 0.387790
0.463704 -0.649957 0.028339
0.446212 0.704577 0.024749
