OFF
256 0 0
0.122480 0.411580 0.763272
-0.587252 -0.645349 -0.314409
-0.598892 0.044712 -0.341172
-0.542992 0.391494 0.038036
-0.574789 -0.298212 0.720379
-0.574073 -0.295785 0.720088
0.456322 -0.676717 0.042841
0.446678 0.715299 0.030734
-0.580183 -0.288754 0.015281
-0.576466 0.022720 0.368547
-0.601321 -0.646533 0.379534
0.821549 -0.290145 0.019140
0.448397 0.381306 0.363686
-0.230485 0.740908 0.050438
0.089472 -0.648281 -0.292923
-0.241598 0.735161 -0.635611
0.825149 -0.294011 0.019124
0.823814 -0.293275 0.019374
-0.268428 -0.661187 0.057022
-0.227558 0.043013 0.728450
0.456213 0.024108 -0.641571
-0.580212 -0.289833 0.015080
0.094623 0.388869 -0.639296
0.454928 -0.672918 0.043344
-0.236379 -0.652936 -0.675845
-0.577306 0.022299 0.370630
0.089036 -0.646386 -0.291508
0.088291 -0.648150 -0.292418
-0.575574 -0.298689 0.720403
0.113346 0.707341 -0.280082
0.121065 0.412323 0.764737
-0.577036 0.023498 0.369522
0.094732 0.388909 -0.636116
-0.236914 -0.651623 -0.672510
0.456199 -0.674114 0.042740
-0.225064 0.045069 0.728529
0.113396 0.709094 -0.280463
0.095039 -0.285108 -0.635318
0.088504 -0.647640 -0.290948
0.123880 0.413776 0.764202
0.104791 -0.326043 0.714085
0.799793 0.372719 0.033816
-0.239411 -0.650545 -0.671902
-0.239080 -0.653416 -0.672631
0.466492 -0.343484 0.380345
0.432505 -0.297329 -0.288006
0.468876 -0.344344 0.382234
-0.602542 -0.647853 0.379310
-0.589264 0.694843 -0.291210
-0.231869 0.053405 -0.669827
0.113435 0.708690 -0.279620
-0.234163 0.054856 -0.669712
0.121885 0.413515 0.764680
-0.588145 -0.645337 -0.314860
0.455488 0.347168 -0.305225
0.090664 -0.646508 -0.292227
0.456086 -0.673258 0.042743
-0.575272 -0.301097 0.720519
0.093154 0.390052 -0.639827
-0.543833 0.392969 0.037728
-0.575462 -0.299007 0.721209
-0.578513 0.023050 0.368158
-0.601818 -0.648181 0.378907
0.094065 0.390542 -0.638703
0.123341 0.413588 0.763885
0.103230 -0.328656 0.713088
0.824532 -0.292820 0.019822
0.124004 0.411780 0.764103
0.817870 0.044144 0.372984
-0.596790 0.045527 -0.341640
-0.586770 -0.646026 -0.316123
-0.223659 0.372399 0.381475
-0.589174 0.694483 -0.290002
0.102769 -0.326575 0.714187
0.109205 -0.684328 0.376882
0.097308 -0.283393 -0.637204
-0.598124 0.048080 -0.342423
-0.586805 -0.645111 -0.314418
0.431126 -0.294412 -0.288766
0.456806 -0.673551 0.040595
0.094270 -0.285263 -0.637862
0.468011 -0.342837 0.382578
0.457373 0.022362 -0.641388
-0.576672 0.023200 0.368318
0.457649 -0.674210 0.042707
0.798962 0.372731 0.032445
0.818608 0.043425 0.373182
0.457594 -0.674747 0.040839
-0.589343 0.395485 -0.656082
-0.242331 -0.650353 0.707256
0.445212 0.717646 0.031587
0.447610 0.382696 0.363256
-0.589260 0.694584 -0.288713
0.445042 0.045015 0.705552
-0.241939 0.731694 -0.635567
0.819951 0.025227 -0.301187
-0.232676 0.054936 -0.668956
0.467409 -0.342529 0.381547
0.800992 0.371842 0.032135
0.799736 0.372961 0.032491
-0.242077 -0.651802 0.707370
0.456811 0.349161 -0.304616
-0.237883 -0.651147 -0.672838
-0.541098 0.392947 0.039156
0.455059 -0.675301 0.043649
0.123341 0.413704 0.763448
-0.579547 -0.290149 0.016097
0.798588 0.371428 0.031133
-0.584815 -0.642863 -0.316364
0.095573 0.388996 -0.638758
0.093349 0.389126 -0.640100
-0.588957 0.695881 -0.290903
-0.578489 -0.289542 0.013250
0.446009 0.044064 0.705688
0.446813 0.718341 0.032553
0.818114 0.027647 -0.301978
-0.590807 0.697172 -0.290152
-0.268065 -0.660493 0.057917
-0.240752 0.732871 -0.636963
0.109382 -0.684157 0.378658
-0.598265 0.045254 -0.341689
-0.266589 -0.659278 0.058089
-0.588518 0.696504 -0.291073
-0.562796 -0.298271 -0.662432
0.088152 -0.646850 -0.291574
-0.223636 0.371765 0.378089
0.094155 0.388850 -0.640124
0.444595 0.044094 0.706405
0.468587 -0.342984 0.382198
0.455502 0.350106 -0.304450
0.429584 -0.295217 -0.285922
-0.574988 -0.297672 0.721738
-0.586087 -0.645170 -0.314441
-0.598085 0.045575 -0.340227
0.457044 -0.675130 0.043388
0.444856 0.717952 0.033519
-0.241264 0.735870 -0.634825
-0.574154 -0.296475 0.719587
0.456180 0.348128 -0.306414
-0.576762 0.024051 0.370563
-0.242465 -0.652410 0.708995
-0.240377 0.733508 -0.636488
-0.573761 -0.298727 0.720688
0.455571 0.348064 -0.304493
0.457979 0.025954 -0.641529
-0.233724 0.739695 0.050455
-0.603197 -0.644329 0.377451
-0.226311 0.045048 0.729068
0.089794 -0.647759 -0.290423
-0.223988 0.372660 0.379723
-0.542154 0.392812 0.035687
0.455571 0.024021 -0.642685
-0.233091 0.056818 -0.670635
-0.239170 -0.651917 -0.672756
0.094299 -0.282882 -0.637363
-0.240872 -0.653299 -0.671600
-0.587435 0.697342 -0.290769
0.121845 0.413059 0.763833
0.102243 -0.327944 0.713033
-0.542050 0.394141 0.039857
0.092196 0.390194 -0.637799
-0.576648 0.026521 0.370791
-0.588667 0.694422 -0.289908
-0.235359 0.055942 -0.668917
-0.597779 0.046832 -0.342007
-0.266752 -0.659947 0.058126
0.088746 -0.647432 -0.291282
0.431826 -0.293275 -0.286851
0.109187 -0.683139 0.378111
-0.233037 0.740138 0.050721
-0.239312 -0.649894 -0.673571
-0.232358 0.740341 0.052321
-0.233469 0.056014 -0.670337
-0.232049 0.055242 -0.669172
-0.587516 0.696711 -0.290412
-0.580999 -0.289830 0.014372
0.104691 -0.325548 0.712100
-0.231889 0.740454 0.049943
0.818886 0.026929 -0.302832
-0.561440 -0.298504 -0.662585
0.456127 0.349877 -0.303374
-0.231138 0.741368 0.050897
0.457606 -0.674269 0.041638
0.114117 0.719714 0.378716
0.103190 -0.327875 0.712711
0.824823 -0.292353 0.018702
-0.587139 0.395613 -0.657283
-0.563565 -0.299267 -0.662712
-0.542437 0.392714 0.038441
-0.599278 0.046119 -0.343642
-0.226440 0.043787 0.727589
-0.599281 0.044526 -0.340984
0.430807 -0.298000 -0.288610
0.095562 -0.285279 -0.633547
-0.232814 0.739493 0.050929
0.457564 0.025125 -0.640146
0.089956 -0.649406 -0.290313
-0.599692 0.045631 -0.342164
0.442902 0.042909 0.707708
0.122032 0.413711 0.764251
-0.226212 0.043793 0.727189
-0.579763 -0.291051 0.014465
0.465667 -0.343187 0.381887
0.115043 0.718227 0.378377
0.093957 0.389309 -0.640210
0.457889 0.023877 -0.640788
0.818960 0.044227 0.373449
-0.233059 0.056255 -0.668032
0.446174 0.042129 0.704419
-0.601979 -0.647027 0.377477
0.445668 0.719128 0.033211
-0.577160 0.023933 0.368612
-0.267619 -0.660262 0.055769
-0.576635 0.023417 0.370338
-0.601546 -0.645765 0.378031
-0.589309 0.693791 -0.289829
0.446135 0.719759 0.032646
-0.576062 -0.297201 0.718972
-0.561980 -0.299729 -0.663103
-0.236385 -0.652844 -0.672440
0.445846 0.717649 0.033051
0.445600 0.044920 0.707098
0.466623 -0.341331 0.381014
0.822240 -0.291685 0.018351
-0.580179 -0.290638 0.014808
0.818071 0.024794 -0.303335
0.818002 0.026555 -0.302458
-0.562403 -0.298112 -0.662126
-0.542540 0.393178 0.037447
0.443843 0.044370 0.707857
0.823328 -0.290874 0.019518
0.093845 0.389815 -0.639327
0.110662 -0.684551 0.377845
-0.578200 0.023150 0.368447
-0.579288 -0.290313 0.015005
-0.562925 -0.297325 -0.662433
-0.231839 0.739837 0.050351
0.818992 0.043795 0.373188
0.467752 -0.340594 0.379998
0.095906 -0.283320 -0.637100
-0.225921 0.372628 0.380943
0.121400 0.414384 0.764015
0.466457 -0.342250 0.382069
0.465476 -0.341526 0.381806
0.817034 0.043662 0.372890
0.799204 0.373111 0.033089
-0.586869 -0.647183 -0.314667
-0.588282 -0.645612 -0.313559
0.112313 0.709265 -0.280661
-0.238232 -0.651630 -0.670979
0.457770 0.348699 -0.303991
-0.267495 -0.660577 0.056978
0.094117 0.389999 -0.638135
-0.542796 0.392440 0.036908
-0.223957 0.373157 0.379911
0.112329 0.717359 0.378404
