OFF
256 0 0
0.079628 -0.436696 -0.719258
0.078703 -0.797881 -0.358440
-0.280166 -0.798231 0.000530
0.795542 -0.081377 -0.361335
-0.277552 -0.796774 0.001121
0.440641 -0.797888 0.000749
-0.278875 0.638833 0.000283
-0.636897 -0.079546 -0.358490
-0.279420 0.638699 0.001467
-0.279951 0.637740 -0.717509
0.436652 -0.437963 0.359393
-0.278531 -0.439433 -0.359959
0.440035 -0.081032 0.716533
0.438678 -0.078742 -0.717592
0.439516 -0.078736 0.717689
-0.638293 0.279169 -0.717028
-0.279350 -0.437826 -0.360657
-0.278219 -0.078717 -0.718267
-0.277507 0.639973 0.718578
-0.278867 -0.439634 -0.358984
-0.637935 0.279147 0.000465
0.437797 0.279553 0.358431
-0.636676 -0.079107 0.357961
0.437783 0.279175 -0.359964
0.800164 -0.081501 0.359474
0.796170 -0.079590 -0.361359
0.797780 0.278703 0.001273
-0.639716 0.277597 0.717979
0.079748 0.636943 -0.359938
0.797510 -0.439368 0.000156
0.080525 0.636457 0.356794
0.437724 -0.079646 -0.718331
-0.639405 -0.078694 -0.358058
0.080979 -0.437485 0.718342
-0.277643 -0.078584 0.718650
0.080188 -0.797384 -0.357900
-0.637288 0.636442 0.358132
-0.639215 -0.438723 0.001218
0.798408 -0.080848 -0.359632
0.438000 0.276349 0.359199
0.079316 0.277161 -0.718611
0.080650 -0.798011 -0.357548
0.438872 -0.079716 0.717792
0.438335 -0.079176 -0.716775
0.080607 0.637003 -0.358735
0.439105 -0.797986 0.000213
0.438837 -0.437456 -0.356746
0.439273 0.636959 0.001442
0.079183 -0.798941 -0.359629
0.438627 0.637332 -0.000742
-0.278986 -0.080836 0.717971
-0.279862 -0.079960 -0.715247
-0.279757 0.639427 0.000006
0.438261 -0.440295 0.358576
0.797553 -0.438398 0.000719
0.438798 -0.436708 0.360042
0.080980 0.278672 0.717506
0.798376 -0.077897 0.359224
0.079882 0.278767 -0.719248
-0.277705 -0.079193 0.717436
-0.637640 -0.438805 0.000012
-0.277926 0.637788 0.717098
0.080325 0.638775 -0.358391
0.438373 -0.796955 0.001230
-0.278750 0.639338 -0.719449
0.438391 0.278352 0.360514
-0.277732 -0.077910 0.717687
0.079168 -0.796422 0.358063
-0.279171 -0.437546 0.359296
-0.639178 -0.080140 0.358116
0.438637 -0.798299 -0.000422
-0.279427 -0.438907 -0.360252
0.079834 -0.797500 -0.360477
-0.637088 0.279836 -0.001453
-0.638316 0.280241 -0.716812
0.079493 -0.438327 0.716486
0.437894 -0.079767 -0.716534
-0.638608 0.279702 -0.717384
0.079408 0.279462 0.717247
0.077801 -0.797996 0.358555
0.438481 -0.437398 -0.357838
0.080086 -0.441197 0.718109
0.439384 0.279125 0.358602
-0.637635 0.278341 -0.717933
-0.278653 0.639084 -0.715808
-0.276844 0.638143 0.719324
0.079705 -0.797052 -0.358629
-0.277974 -0.798086 0.000401
-0.639793 0.637428 0.358080
-0.638190 -0.079553 -0.360962
-0.637744 0.278494 -0.717162
0.437682 -0.796362 -0.000935
0.438138 0.276770 -0.357774
-0.637913 -0.078522 0.358330
0.079246 0.280279 0.717402
-0.638488 0.278498 0.000696
-0.279614 -0.080380 -0.716661
0.437809 0.279039 0.360348
0.078003 0.279370 -0.719548
0.079246 -0.439084 0.717433
-0.279827 0.638616 -0.718257
0.080910 0.638221 -0.358990
0.077892 -0.795649 -0.359161
0.796546 0.279879 -0.000574
0.796329 -0.079243 -0.359069
-0.639607 0.278874 0.718259
0.798814 -0.438545 -0.002483
-0.638270 0.637697 -0.358472
0.439332 -0.436977 -0.360797
0.078936 0.637909 -0.357827
0.079172 -0.798816 0.359139
0.079475 0.638456 0.358685
0.441227 -0.079220 -0.717629
0.437723 0.280564 0.356504
0.078072 -0.798153 0.357279
-0.638429 -0.079714 -0.359572
-0.637621 0.279837 0.716905
-0.279705 -0.078780 0.717058
0.440304 -0.440068 0.359173
0.436976 0.279410 -0.359227
-0.278734 -0.438936 0.358077
-0.279597 -0.437666 -0.359337
-0.279239 -0.078715 0.718581
-0.636974 -0.080545 -0.357668
0.797247 -0.079324 0.360829
0.796458 -0.438828 0.001719
0.079961 0.278014 -0.719570
-0.638884 -0.439458 0.000990
-0.637479 0.279146 0.718677
0.797731 0.279428 0.000345
0.798368 -0.080934 0.359971
0.436767 0.278091 -0.359569
0.077771 0.636883 -0.357485
0.079615 -0.438898 -0.716614
0.079242 -0.798415 0.357343
-0.279019 0.637933 -0.718316
0.079004 -0.797330 -0.360432
-0.637747 -0.078352 0.359516
0.796367 -0.439062 0.001265
-0.277809 -0.798021 -0.000449
0.439888 -0.439300 -0.359051
-0.639149 0.279964 0.717811
0.437853 -0.438227 0.358737
0.797878 -0.439387 0.000805
0.439099 -0.438081 -0.360443
0.081288 0.279337 -0.717842
-0.278489 -0.438359 -0.358128
0.438690 -0.078318 -0.717725
0.439763 -0.080577 -0.717965
-0.279768 -0.797530 0.001028
0.797760 -0.439293 -0.000990
-0.638782 0.280608 -0.716686
0.796531 -0.439439 0.000824
-0.638021 0.280026 -0.000248
-0.637665 0.278136 -0.718143
-0.278641 0.638579 0.717632
0.079302 0.279020 0.716250
0.439291 0.639189 0.000738
-0.635428 0.637564 -0.358574
-0.639124 0.279812 -0.001103
-0.637490 -0.079113 -0.358264
-0.279807 -0.438705 0.358499
-0.278490 0.637864 0.000602
-0.637523 -0.438052 0.000868
0.438308 -0.441749 0.359136
-0.637593 0.279938 0.717402
0.440006 0.278311 0.357244
0.079268 0.278412 -0.716846
-0.639110 0.279837 0.716506
-0.638553 0.278976 0.716848
0.081253 -0.438568 0.716788
0.438712 -0.438031 0.358158
0.079800 -0.437330 -0.719387
-0.279550 0.635402 -0.000323
-0.280333 -0.796852 -0.000883
0.438998 -0.436917 -0.358320
0.439076 0.277485 0.357855
0.081264 -0.438965 -0.718844
-0.279828 -0.438783 -0.357815
0.799061 0.279484 -0.002252
0.437766 -0.438809 0.357837
0.439881 -0.078982 -0.717803
0.438614 -0.440029 -0.359181
-0.278956 -0.438305 0.358595
-0.279677 -0.079386 -0.718174
-0.279731 0.638422 -0.720032
0.080840 0.638508 -0.358210
0.437857 -0.439602 0.357054
0.436281 0.278619 -0.360271
-0.280667 0.638656 0.717443
-0.636839 0.638731 -0.360243
-0.279515 0.639556 0.000471
0.439305 -0.080944 -0.720279
-0.638594 0.278608 -0.718074
0.079200 0.639357 0.358718
0.081555 -0.439852 -0.717331
0.077825 -0.437945 -0.718694
0.438745 -0.078528 -0.719291
0.437013 0.637971 -0.000635
-0.638378 0.277134 0.718103
-0.639007 0.278517 0.000421
-0.638965 -0.080780 -0.359131
0.440271 0.637517 0.001703
0.437298 0.278468 -0.361508
0.796229 0.277687 0.001456
0.438625 -0.079839 -0.717867
0.797613 -0.439126 -0.000049
0.081046 -0.797980 0.359593
-0.637563 0.278082 -0.000356
-0.277495 0.637775 0.001069
0.797410 -0.081444 0.359027
0.079031 0.277918 0.719367
0.078569 -0.437980 -0.718179
-0.637088 0.637900 0.357979
-0.640006 -0.436721 0.000636
-0.278649 -0.080265 0.716390
0.799297 0.278961 -0.001833
0.798382 -0.079175 0.358581
-0.636235 0.280906 0.000452
-0.279185 -0.079588 -0.717539
0.081236 0.276610 -0.717456
-0.279042 -0.440126 0.357898
0.079421 -0.799682 -0.359587
-0.278938 -0.078390 -0.716651
0.438731 0.278541 0.357892
-0.276337 -0.079330 -0.718732
-0.637443 -0.079199 -0.358700
-0.636961 0.638969 0.358478
-0.278708 0.638732 0.715496
0.438207 -0.439786 -0.358478
-0.278811 0.636586 -0.717743
0.796830 -0.439645 -0.000366
0.439078 -0.438196 -0.356988
0.438457 -0.798079 0.000209
0.439891 -0.439927 -0.358734
-0.638863 -0.080440 -0.357011
0.082532 0.277028 -0.717984
0.079747 0.639265 -0.359179
-0.280713 -0.436724 -0.360564
0.797828 0.278862 0.000457
0.078906 0.280660 -0.717456
-0.277988 -0.438549 -0.359752
0.078195 -0.437260 -0.716824
-0.278844 -0.438548 0.359303
0.079482 -0.438409 0.717296
0.079424 0.639250 -0.358409
0.438427 -0.079374 -0.717405
-0.638003 -0.440591 0.001303
0.079659 0.278024 -0.718846
0.079685 -0.438320 -0.715511
-0.637398 0.279765 -0.718142
-0.279281 -0.080928 -0.717849
0.438165 0.279800 -0.360914
0.797635 -0.438399 0.001265
0.080348 0.636698 -0.359471
-0.278916 0.636737 0.000746
