OFF
256 0 0
0.427839 -0.123511 -0.711366
-0.608141 0.608336 0.351545
-0.256272 0.602129 -0.024746
-0.627788 -0.086231 -0.337414
-0.271626 0.621166 0.699974
0.788182 -0.420216 0.023130
0.385681 -0.416945 -0.350453
0.090103 0.281852 0.699862
-0.607637 0.606895 0.352122
0.430710 -0.065558 0.723229
-0.253964 -0.030109 0.685907
0.416983 0.278915 -0.353754
0.444135 0.635381 -0.015014
-0.269748 0.623182 0.701013
0.432268 -0.063387 0.723139
0.743642 -0.079656 -0.362272
-0.281630 -0.797379 -0.009305
-0.640788 0.286917 0.712456
-0.625313 0.243713 -0.002865
-0.255100 -0.028551 0.685492
0.426450 -0.125210 -0.710508
-0.278821 -0.798108 -0.009623
-0.259034 -0.088407 -0.682055
0.443723 0.635090 -0.012981
0.081017 -0.789345 0.329438
-0.233252 -0.402624 -0.302022
0.070151 -0.432615 -0.702348
0.787224 -0.419083 0.023969
-0.279061 0.632079 -0.681466
0.086725 0.631531 0.338077
0.086267 0.629516 0.337809
-0.278476 0.632874 -0.683783
-0.628390 -0.086754 -0.339124
0.079736 -0.790864 0.329577
0.444968 0.637007 -0.013638
-0.268495 -0.405289 0.335662
0.069833 -0.777486 -0.335607
-0.268695 -0.405741 0.337595
-0.269016 0.623199 0.701591
-0.616448 -0.419915 -0.018650
0.741459 -0.079011 -0.361049
-0.615193 -0.418428 -0.018457
0.792340 -0.069064 0.366044
-0.254443 0.599979 -0.022891
-0.231178 -0.403804 -0.302274
0.417424 0.278228 -0.352665
0.090663 0.282586 0.698463
-0.627971 -0.087626 -0.338065
-0.643042 0.285614 0.709325
-0.280938 -0.796561 -0.011685
0.089121 0.281901 0.697459
-0.255531 0.600480 -0.024362
-0.260759 -0.089048 -0.681104
-0.607642 0.586756 -0.348016
-0.254273 -0.028340 0.684863
-0.267755 0.622146 0.700182
-0.626276 0.243905 -0.005484
-0.254178 -0.029975 0.686811
-0.255314 0.600688 -0.023146
0.078578 -0.789398 0.331627
0.088874 0.282626 0.700585
0.086500 0.628179 0.338163
0.418306 0.277092 -0.352488
-0.260802 -0.088357 -0.683277
-0.253578 -0.029404 0.685271
0.417335 0.278356 -0.352334
0.790431 -0.420453 0.023035
0.741477 -0.078251 -0.360843
-0.628076 -0.086565 -0.337981
0.086952 0.627821 0.338140
0.788392 -0.417841 0.022709
-0.279568 0.633017 -0.682792
0.072727 -0.432480 -0.704615
-0.279943 0.632558 -0.684646
-0.637844 0.256427 -0.712165
0.410098 -0.419962 0.358962
-0.637049 0.256860 -0.710890
0.761650 0.282171 -0.011449
-0.256263 0.601303 -0.022979
-0.256465 0.599797 -0.022805
-0.626906 0.244990 -0.003855
-0.607116 0.588632 -0.349356
-0.255822 0.600673 -0.023803
-0.616818 -0.418070 -0.020024
0.410272 -0.419957 0.358004
0.421927 -0.776371 -0.000588
0.741611 -0.077778 -0.361921
0.758259 0.281154 -0.012308
-0.641711 0.285386 0.712808
-0.268610 0.623300 0.699425
-0.635089 0.256722 -0.711666
-0.607199 0.589919 -0.348647
0.070888 -0.433474 -0.705237
0.087918 0.630078 0.337816
-0.256018 0.601952 -0.023491
-0.281219 -0.795935 -0.011613
0.067737 -0.776474 -0.333731
-0.269849 0.622140 0.701275
0.435466 0.256917 0.356090
-0.255625 0.600552 -0.023597
0.760905 0.283456 -0.009787
-0.601586 -0.074854 0.337780
0.790860 -0.069310 0.366316
0.438575 0.258792 0.356248
-0.269562 0.625312 0.700827
0.444854 0.637473 -0.013917
0.067306 -0.774524 -0.335390
0.085673 0.629518 0.337885
0.087922 0.629803 0.338347
0.439923 0.259664 0.356967
-0.625589 0.243169 -0.002864
0.071120 -0.433882 -0.703125
0.445605 0.635580 -0.015711
-0.614628 -0.417947 -0.018667
-0.270112 -0.404362 0.337204
-0.641568 0.285070 0.711892
0.065805 0.258529 -0.671554
0.788317 -0.419759 0.024896
0.075339 -0.402444 0.677040
-0.234314 -0.402670 -0.302231
0.386124 -0.419353 -0.350567
0.408380 -0.418035 0.360439
-0.634962 0.257130 -0.711464
0.760418 0.282961 -0.012520
-0.610237 0.608230 0.350990
0.069120 -0.774410 -0.335643
0.385522 -0.419137 -0.349626
-0.617851 -0.419223 -0.020226
-0.232881 -0.403316 -0.301282
0.440702 0.257268 0.355463
0.441485 0.637734 -0.015485
0.791031 -0.068663 0.365706
0.068108 -0.773328 -0.336371
-0.626724 -0.087565 -0.337334
-0.636375 0.258592 -0.711102
0.385571 -0.420521 -0.351723
-0.254834 -0.028603 0.685137
-0.628147 0.244494 -0.004067
-0.600644 -0.075154 0.336420
0.437692 0.258916 0.354757
0.791075 -0.069748 0.365267
-0.610453 0.609828 0.351980
0.793549 -0.069696 0.363836
0.090566 0.283179 0.699728
-0.608234 0.608139 0.352004
0.068028 -0.775250 -0.335522
0.086615 0.628316 0.337225
-0.277181 0.630742 -0.684965
0.087125 0.628620 0.338490
0.437596 0.258399 0.355684
0.069436 -0.775014 -0.336307
0.759468 0.283430 -0.011095
0.436129 0.258616 0.354615
-0.277990 0.630416 -0.682836
0.066441 -0.775149 -0.336223
0.431965 -0.064476 0.722264
0.431313 -0.064598 0.720832
0.088487 0.627731 0.339178
0.068365 0.613590 -0.358869
0.077086 -0.404441 0.677368
0.430658 -0.065298 0.722158
0.086362 0.627985 0.340307
-0.626872 -0.086375 -0.338103
-0.627704 0.242909 -0.004032
0.067095 0.255048 -0.672433
0.432249 -0.065170 0.723654
-0.269951 -0.405163 0.336764
0.788503 -0.420094 0.026656
0.068466 0.257083 -0.674625
0.077564 -0.404363 0.677336
-0.607624 0.588219 -0.348260
0.067257 0.256905 -0.673672
-0.608217 0.607747 0.350619
-0.608031 0.589212 -0.348506
-0.607372 0.588598 -0.349112
-0.259664 -0.090583 -0.682160
-0.256267 0.600924 -0.022980
0.386975 -0.420312 -0.352884
0.071555 -0.433683 -0.701291
0.077874 -0.404885 0.676967
0.444913 0.635607 -0.015587
0.069774 0.613092 -0.360621
0.387160 -0.420350 -0.350506
0.385798 -0.418643 -0.351499
-0.634881 0.257387 -0.711879
-0.281061 -0.794476 -0.010294
0.760219 0.282252 -0.012333
-0.623718 0.242993 -0.004159
0.409656 -0.415989 0.360232
0.431150 -0.066557 0.722608
0.089761 0.281267 0.698469
0.087421 0.627902 0.337478
0.791831 -0.070526 0.366907
0.067440 -0.775626 -0.334978
0.066173 -0.774564 -0.335347
0.430372 -0.066532 0.721301
0.410739 -0.419198 0.361117
0.788360 -0.421483 0.023794
-0.628443 -0.084755 -0.336915
-0.607132 0.589166 -0.347714
0.437661 0.258559 0.354862
-0.259916 -0.089329 -0.681734
0.068409 0.257284 -0.674496
0.066585 0.257409 -0.673200
-0.602210 -0.075577 0.338158
-0.616405 -0.417820 -0.020885
0.072332 -0.432294 -0.704125
-0.256806 0.600983 -0.024146
0.423838 -0.775224 -0.001566
-0.642702 0.286357 0.712664
0.065946 0.256237 -0.674295
-0.259312 -0.088531 -0.681329
-0.627596 0.242876 -0.004127
0.086135 0.628648 0.338872
0.426682 -0.124862 -0.710376
0.423750 -0.775931 -0.001849
0.742550 -0.078714 -0.362106
0.408055 -0.418299 0.359011
-0.254653 -0.031136 0.686350
0.386591 -0.421255 -0.351943
-0.255426 -0.028089 0.687716
-0.635627 0.256278 -0.711069
0.789445 -0.420318 0.023785
-0.609763 0.609033 0.351496
-0.251001 -0.029091 0.685204
-0.253448 -0.029076 0.683484
-0.279737 -0.796581 -0.009192
0.067199 -0.776326 -0.336684
0.065717 0.257538 -0.672727
0.067365 -0.774782 -0.335947
0.078021 -0.790175 0.330136
-0.270298 0.623308 0.700537
-0.615617 -0.418472 -0.020253
-0.634372 0.258766 -0.712312
-0.608612 0.607837 0.351888
-0.271560 -0.406522 0.338455
-0.614916 -0.419608 -0.021408
-0.626325 0.242408 -0.003675
-0.625685 0.241848 -0.004055
0.068507 0.616536 -0.357473
-0.281653 -0.797702 -0.009697
-0.269082 0.624162 0.699070
-0.607558 0.589612 -0.347835
0.076493 -0.403529 0.679237
-0.641933 0.285099 0.711918
0.439910 0.256946 0.356911
-0.280162 0.631566 -0.684030
-0.253354 -0.029539 0.685778
0.430063 -0.065747 0.722344
-0.601018 -0.074626 0.336077
-0.628074 -0.086466 -0.338593
-0.269656 0.622044 0.699677
0.432934 -0.065718 0.722649
0.740685 -0.079702 -0.362926
-0.616022 -0.418662 -0.020358
0.090817 0.282497 0.698015
