OFF
256 0 0
0.630281 0.103746 0.393404
0.622285 -0.545753 0.368974
-0.711265 -0.233576 0.040308
0.663187 -0.228504 0.714893
0.663321 -0.227926 0.713089
-0.726480 0.129296 0.373473
0.650655 0.457770 0.023064
-0.036255 -0.245488 -0.651495
-0.716043 -0.236514 -0.637381
0.293514 -0.562817 0.063838
0.639338 -0.561489 -0.284831
0.620043 -0.224604 0.038372
0.627757 0.104366 0.394735
-0.715189 0.081710 -0.292939
0.308258 0.787036 0.022138
-0.375761 0.127877 0.719011
-0.043750 0.775402 0.366864
-0.722126 -0.565859 -0.317382
0.308871 0.788976 0.023142
-0.716053 -0.237289 -0.637122
-0.720315 -0.567420 -0.317147
0.619417 -0.221716 0.039887
-0.004164 -0.555333 -0.283956
-0.034959 -0.243303 -0.649095
-0.043497 0.777868 0.366463
-0.053664 0.432834 -0.648169
-0.041528 0.776301 0.364157
-0.026921 0.432383 0.717911
0.303557 0.442994 0.379437
-0.002862 -0.557535 -0.283575
-0.364175 0.438229 0.369894
-0.363314 0.439643 0.370272
0.616659 0.110223 -0.314148
0.640193 -0.561535 -0.285525
-0.714619 0.080604 -0.291212
-0.028793 0.432565 0.718871
-0.032826 -0.246397 -0.651114
-0.714777 -0.240018 -0.636146
-0.376242 0.093536 -0.632188
-0.713758 -0.238427 -0.639572
-0.032673 -0.233441 0.720217
0.616615 0.109659 -0.312984
0.629515 0.103874 0.394726
-0.036391 0.773565 -0.308365
-0.364336 0.438304 0.370971
-0.711689 -0.236710 0.038258
0.309910 -0.570771 0.730691
-0.042704 0.777603 0.364506
-0.711184 -0.236645 0.039708
-0.000915 -0.557540 -0.284888
0.311135 -0.570921 0.728966
0.629005 0.103047 0.392879
-0.709914 -0.236112 0.038948
-0.037047 0.774026 -0.306487
0.281848 0.099635 -0.641786
-0.356868 0.416320 -0.294352
0.630814 0.103568 0.395906
0.306567 0.787498 0.023741
0.631333 0.103785 0.394537
0.639498 -0.561221 -0.285278
0.305128 -0.592018 -0.653224
-0.032005 -0.234042 0.719999
-0.002522 -0.556184 -0.284288
0.625213 -0.235522 -0.654052
0.650784 0.459591 0.023678
0.280206 0.099920 -0.641041
0.619956 -0.224742 0.039427
0.618567 0.110087 -0.313055
-0.716200 0.081072 -0.293134
-0.375606 0.093898 -0.631489
0.616928 0.110584 -0.315481
0.629454 0.104450 0.394122
-0.373979 0.094464 -0.633051
-0.054459 0.428174 -0.648434
-0.034628 -0.233890 0.718490
-0.366063 -0.567665 -0.634447
-0.720930 -0.564965 -0.317337
0.620490 -0.224171 0.041762
-0.358506 0.413469 -0.294606
0.306670 0.788339 0.022272
-0.053501 0.429460 -0.650781
-0.720753 -0.565909 -0.317047
0.282149 0.100919 -0.642165
0.306033 0.443600 0.377926
0.628934 0.105362 0.395390
-0.042312 0.775386 0.364990
0.304606 -0.589688 -0.653329
-0.701291 0.442616 0.033160
-0.709691 -0.236660 0.037816
-0.719593 -0.565944 -0.316243
0.321409 0.100983 0.722012
0.281732 0.100771 -0.643063
-0.373321 0.093665 -0.632743
0.308250 0.787057 0.023664
0.617983 0.111010 -0.312632
-0.034421 -0.244008 -0.650882
-0.044094 -0.559072 0.364133
0.313709 0.455239 -0.320945
0.663752 -0.228999 0.713155
-0.370177 -0.570661 0.022846
0.664338 -0.228088 0.713829
0.628346 0.103706 0.393784
0.626662 -0.234608 -0.654203
0.304517 -0.592139 -0.652965
-0.033334 -0.233074 0.720889
-0.374481 0.128179 0.717483
-0.717991 -0.566903 -0.316641
0.313518 0.455811 -0.320795
-0.032142 -0.233724 0.718795
-0.721279 -0.566612 -0.316573
-0.357918 0.416228 -0.295153
-0.357652 0.414528 -0.295572
-0.054368 0.430600 -0.649403
-0.714058 -0.237563 -0.639112
-0.374933 0.094077 -0.631897
-0.710692 -0.237298 0.039785
0.310511 -0.574966 0.731441
0.280598 0.102680 -0.643193
0.627815 -0.236031 -0.653822
-0.364436 0.438374 0.372803
0.281362 0.102316 -0.642292
0.305679 -0.591400 -0.652078
-0.003700 -0.557078 -0.285313
0.281023 0.100872 -0.641054
0.280687 0.098852 -0.642374
-0.045981 -0.558064 0.364412
-0.028395 0.431339 0.721765
0.291578 -0.562715 0.063764
-0.702037 0.442713 0.032177
-0.040212 0.775642 0.365373
-0.055561 0.430628 -0.648337
0.629036 0.104882 0.391196
-0.709764 -0.238380 0.040713
-0.042165 0.774893 0.365849
-0.702850 0.443775 0.034129
-0.701330 0.443247 0.033828
0.620162 -0.224754 0.038981
-0.721228 -0.565172 -0.316095
-0.055511 0.429864 -0.649556
-0.037480 0.773373 -0.306851
-0.708455 -0.235670 0.037726
0.621953 -0.543164 0.368212
0.304749 -0.591318 -0.653727
-0.041792 0.776327 0.364797
-0.357358 0.416889 -0.293946
-0.042205 0.776129 0.365167
-0.703852 0.443599 0.031623
0.620261 -0.223713 0.039620
-0.376962 0.128649 0.719014
0.304239 0.444477 0.378167
-0.033139 -0.232032 0.721984
0.616292 0.111438 -0.313410
-0.726476 0.129387 0.372761
0.307092 0.786152 0.022225
0.291489 -0.562561 0.062822
-0.356517 0.416136 -0.294125
0.628946 -0.234664 -0.653092
0.321331 0.102479 0.720486
-0.725359 0.129979 0.371314
-0.055701 0.432246 -0.649198
0.293112 -0.563695 0.063387
-0.713960 -0.238588 -0.639419
0.305642 -0.591069 -0.653381
-0.035027 -0.246827 -0.648275
-0.003545 -0.555283 -0.282082
-0.725175 0.129440 0.370747
-0.045133 -0.558856 0.364539
0.303460 0.443649 0.379084
-0.357871 0.415501 -0.291797
-0.041949 0.775130 0.365752
-0.702337 0.444360 0.034040
-0.712511 -0.236475 0.036500
-0.720327 -0.564620 -0.318193
-0.366517 -0.565462 -0.631620
0.303196 0.444321 0.376632
0.648405 0.458189 0.021401
-0.713453 -0.237267 -0.639036
0.322031 0.101362 0.719963
-0.038537 0.775656 -0.308777
0.616887 0.112253 -0.312371
-0.710339 -0.235115 0.039255
-0.033448 -0.233719 0.720820
0.626849 -0.236547 -0.654659
-0.713098 -0.236823 -0.637271
0.308315 0.788314 0.022718
0.292537 -0.562879 0.064064
-0.362539 -0.199273 0.352143
0.292555 -0.561886 0.064466
0.651744 0.460104 0.023253
0.321682 0.102636 0.720221
-0.367488 -0.566852 -0.632505
-0.366881 -0.567415 -0.632027
-0.716255 0.079924 -0.292632
-0.368000 -0.567388 -0.633819
-0.720251 -0.563902 -0.318317
-0.028362 0.430389 0.719158
-0.034698 -0.245974 -0.650730
-0.370090 -0.570946 0.020982
0.651279 0.459374 0.025151
0.305406 0.441961 0.378215
0.314847 0.456419 -0.319715
-0.365788 0.786360 0.033802
-0.038478 0.774899 -0.307323
0.310776 -0.570372 0.731471
-0.367044 -0.568503 -0.634290
-0.368425 -0.570959 0.021885
-0.716042 -0.237478 -0.638727
0.630009 0.102827 0.395392
-0.369425 -0.570307 0.022551
0.292598 -0.563342 0.065723
-0.703150 0.443532 0.033201
-0.366179 0.783571 0.034019
-0.724489 0.130657 0.371356
0.294449 -0.564039 0.066017
0.293743 -0.561839 0.065176
-0.365700 0.786402 0.037061
0.640139 -0.561790 -0.283956
0.307278 0.787624 0.024090
0.616418 0.108724 -0.312507
-0.355899 0.415903 -0.295049
-0.377012 0.128671 0.717570
0.292465 -0.563394 0.063926
0.304459 0.442757 0.378801
0.619020 -0.223297 0.040872
0.662983 -0.229289 0.713533
0.630022 0.103315 0.393180
0.615853 0.109363 -0.313150
-0.715391 -0.238453 -0.636889
0.311793 -0.571685 0.731130
-0.720159 -0.568544 -0.317823
0.628831 -0.236070 -0.654723
0.320353 0.100733 0.721240
-0.366960 0.786361 0.033192
0.623497 -0.542382 0.367122
0.639329 -0.561374 -0.285009
-0.364734 0.788002 0.033546
0.621942 -0.544264 0.370698
-0.365571 0.784714 0.034074
-0.715436 0.078919 -0.294830
0.314308 0.456131 -0.321438
-0.001802 -0.555958 -0.285771
0.312538 0.456431 -0.320668
-0.711122 -0.236070 0.038131
-0.362933 0.438636 0.370637
0.621112 -0.542516 0.369327
0.303840 -0.592205 -0.652375
-0.371767 -0.572170 0.023737
0.292504 -0.562769 0.061906
-0.714140 -0.239063 -0.638683
0.621400 -0.544154 0.368123
-0.723672 0.129405 0.372563
-0.365768 0.785577 0.034512
0.294927 -0.563792 0.063659
-0.364190 0.438743 0.372164
0.310976 -0.571505 0.732068
-0.365803 0.785014 0.034817
