OFF
256 0 0
-0.094530 0.356346 0.819637
0.616983 -0.330000 0.073080
0.274648 -0.004844 -0.647748
0.653872 0.035699 -0.273626
0.291322 -0.005894 0.794556
-0.410631 0.373111 0.429968
0.260414 -0.339387 0.413205
-0.088367 0.707129 -0.295190
-0.460352 -0.340244 -0.245417
-0.440939 -0.712625 0.062726
0.273766 0.709000 0.096003
0.627780 -0.355269 -0.649273
-0.781009 0.348732 0.079672
0.291014 -0.005738 0.797563
-0.776006 0.010395 0.422346
-0.087756 -0.715036 0.423714
-0.806117 -0.023442 -0.272425
-0.426180 0.344312 -0.265000
-0.077492 -0.347211 0.775831
0.275992 0.707662 0.097758
-0.775605 0.011408 0.420704
0.270623 -0.740212 0.077478
-0.401082 -0.320538 0.409291
0.630019 0.715599 -0.273212
-0.804620 -0.371025 0.096076
0.628031 0.716099 -0.272157
-0.078370 -0.371693 -0.645906
-0.441553 -0.714248 0.063137
0.642852 0.355715 0.088183
-0.401549 -0.323398 0.408615
-0.783796 0.348931 0.079846
-0.078505 -0.347950 0.774268
0.627438 0.371082 -0.646363
0.275549 -0.003227 -0.648129
-0.086249 0.719721 0.453331
-0.438177 0.004541 -0.628207
-0.781692 0.349542 0.081679
0.625703 -0.357560 -0.650125
-0.424231 0.013741 0.775378
-0.426424 0.344993 -0.263417
-0.088001 0.706021 -0.293116
-0.423853 0.344237 -0.264186
0.258735 -0.338061 0.415102
-0.777005 0.011566 0.422000
0.276802 -0.002818 -0.650674
0.275335 -0.003592 -0.649544
-0.069546 0.337774 -0.651937
-0.404252 0.718539 0.083807
-0.095136 0.357878 0.821796
0.276419 -0.006251 -0.649012
-0.803624 -0.369313 0.094817
-0.087651 0.706248 -0.293638
-0.423109 0.013835 0.774899
-0.777729 0.011689 0.422363
0.654079 0.034088 -0.272808
-0.803401 -0.370966 0.096159
0.274658 0.357164 0.465221
-0.802787 -0.371298 0.095683
-0.423009 0.345095 -0.264658
0.634054 -0.006037 0.439936
0.628269 -0.356081 -0.649763
-0.806251 -0.021500 -0.270950
0.626511 -0.356287 -0.651541
-0.401437 -0.320709 0.407684
0.288596 -0.003173 0.797122
-0.077675 -0.372841 -0.646540
0.627147 0.368739 -0.646113
0.289049 -0.004740 0.796732
-0.423462 0.013985 0.776438
-0.401501 -0.320920 0.407740
-0.079784 -0.373462 -0.646308
-0.078539 -0.373306 -0.645157
-0.088403 -0.714250 0.423998
0.273808 0.355710 0.462669
0.267141 -0.723489 -0.638474
0.641738 0.359285 0.087290
-0.802925 -0.371750 0.097445
0.265458 0.682541 -0.641636
-0.087827 -0.716586 0.425569
-0.783627 0.348453 0.080008
-0.087463 -0.715806 0.423664
0.289736 -0.004566 0.795286
-0.405201 0.717458 0.083733
-0.442516 -0.714087 0.065391
-0.440089 -0.712907 0.063717
0.631010 0.716365 -0.272973
0.630627 0.717913 -0.272237
-0.088581 -0.716942 0.424266
0.635533 -0.006980 0.440275
-0.782047 0.350123 0.079764
-0.439577 -0.712669 0.063831
0.634412 -0.007042 0.440733
0.265091 -0.722402 -0.638021
0.625889 0.371524 -0.642758
-0.801345 -0.370753 0.094306
0.626969 -0.354969 -0.650083
0.626539 0.370953 -0.645385
-0.409703 0.370588 0.428936
-0.439379 0.005375 -0.626252
0.623121 -0.724726 -0.253677
-0.410316 0.372198 0.427481
-0.424210 0.016039 0.774837
-0.437720 0.005243 -0.628966
-0.087885 0.706048 -0.295585
0.627985 -0.354969 -0.649689
0.268514 -0.740624 0.079027
-0.409562 0.370930 0.428554
0.274862 0.358067 0.463773
0.635919 -0.007004 0.442904
-0.442139 -0.714303 0.062614
-0.439939 -0.712413 0.062187
-0.401367 -0.319449 0.407241
0.616831 -0.328996 0.072723
0.272673 0.706221 0.096522
0.271804 -0.740055 0.077944
0.274582 0.707106 0.096212
0.621859 -0.723140 -0.253501
-0.086551 0.719227 0.452288
0.288528 -0.004454 0.797544
-0.440052 -0.714860 0.065000
0.259043 -0.338501 0.414151
0.257097 -0.337139 0.415909
0.652903 0.035538 -0.273169
0.629672 0.370359 -0.645912
0.273243 -0.004333 -0.647372
0.270879 -0.739753 0.076809
-0.406494 0.715493 0.082227
-0.424723 0.345952 -0.264000
-0.078349 -0.347941 0.776335
0.275901 0.708162 0.094535
-0.410447 0.370495 0.429106
0.620834 -0.724308 -0.253453
-0.078019 -0.732052 -0.261892
0.272348 -0.739652 0.077912
-0.782978 0.348407 0.080334
0.636894 -0.007412 0.440609
0.271143 -0.738400 0.077334
-0.086575 -0.716014 0.424011
0.272188 -0.740509 0.076605
0.629876 0.717473 -0.271815
-0.069188 0.337042 -0.651477
-0.400771 -0.323291 0.409579
-0.405284 0.715408 0.082754
0.622120 -0.723011 -0.253174
0.641270 0.357528 0.088882
-0.439888 0.005172 -0.626959
-0.438837 0.005488 -0.626905
-0.424448 0.014564 0.774750
-0.439609 -0.713092 0.063004
-0.068216 0.336655 -0.652728
-0.085513 0.720251 0.452973
-0.775409 0.012971 0.422883
0.271895 -0.739058 0.076754
0.275861 0.707628 0.098043
-0.078014 -0.346287 0.776755
-0.076857 -0.348783 0.775764
-0.423761 0.013037 0.775249
-0.096009 0.358077 0.817481
0.618357 -0.329909 0.072283
-0.078151 -0.347006 0.776041
0.628470 0.715568 -0.271951
0.622585 -0.724773 -0.254124
0.627185 -0.356081 -0.649713
0.266723 -0.724655 -0.636111
-0.438142 0.006532 -0.628506
-0.775131 0.012581 0.421528
0.643262 0.357873 0.088375
-0.424317 0.345792 -0.265442
-0.077787 -0.374276 -0.646947
0.627711 -0.354841 -0.648556
0.627593 0.369301 -0.643946
-0.086802 -0.713595 0.425071
-0.078227 -0.375712 -0.646047
-0.782765 0.348587 0.081304
0.629145 0.371501 -0.644617
0.617720 -0.326810 0.070979
-0.076507 -0.346385 0.774598
0.635979 -0.007339 0.439420
-0.075557 -0.730876 -0.262281
-0.802981 -0.369650 0.096873
-0.093622 0.357861 0.821268
-0.086661 -0.715419 0.425982
-0.086447 -0.713859 0.424389
0.627075 0.368904 -0.644308
-0.076085 -0.374583 -0.647356
0.276642 0.706317 0.096203
0.266172 -0.723143 -0.638950
-0.077945 -0.732438 -0.260900
0.644318 0.358910 0.090068
0.272462 -0.739071 0.079104
-0.808832 -0.022138 -0.270850
0.626991 0.371300 -0.644619
-0.095100 0.357515 0.821584
0.275726 0.354723 0.463753
-0.802633 -0.372000 0.096721
-0.400685 -0.322271 0.406978
-0.426427 0.344082 -0.264907
-0.086364 -0.715511 0.425215
-0.441302 -0.713335 0.061972
-0.068885 0.336011 -0.651401
-0.461461 -0.339022 -0.245598
-0.078355 -0.374282 -0.646262
0.291461 -0.005935 0.793944
-0.440953 -0.713453 0.064789
0.626296 -0.356896 -0.648928
-0.087313 -0.715443 0.424044
0.617849 -0.327686 0.072186
-0.461345 -0.338510 -0.243316
0.258168 -0.338528 0.415217
-0.094323 0.358646 0.819745
-0.403652 -0.321657 0.408290
0.627385 0.371113 -0.645183
-0.436427 0.006926 -0.628298
-0.802382 -0.370612 0.095197
-0.068582 0.335658 -0.651498
-0.086112 -0.715128 0.422843
0.266340 -0.722284 -0.637499
0.628778 -0.356304 -0.647473
-0.088199 0.706211 -0.294405
0.631584 0.715655 -0.274476
0.642161 0.356616 0.088970
0.643032 0.358896 0.089394
-0.782384 0.347625 0.081324
0.628546 -0.354764 -0.647250
0.652275 0.035543 -0.273581
-0.401893 -0.320424 0.406995
-0.422665 0.344012 -0.263557
-0.424016 0.345166 -0.265315
0.264181 -0.723089 -0.636370
-0.803356 -0.371033 0.095160
0.636477 -0.007361 0.440219
-0.067190 0.337415 -0.652928
-0.086757 -0.714384 0.425619
-0.424746 0.344034 -0.264408
0.262360 0.683236 -0.638528
0.629185 0.715351 -0.273065
-0.461032 -0.339363 -0.245798
-0.095318 0.356692 0.821002
0.643339 0.356919 0.088856
0.275225 0.708070 0.097167
0.274091 0.356394 0.463927
0.276735 -0.002913 -0.647614
-0.441491 -0.712469 0.063860
-0.426225 0.344324 -0.264971
-0.410864 0.371139 0.429081
0.263940 -0.722721 -0.639245
-0.439006 0.004887 -0.626891
-0.401473 -0.320619 0.409773
-0.095606 0.356157 0.821636
0.618058 -0.329451 0.072242
0.259917 -0.338181 0.414985
-0.077269 -0.373402 -0.646603
0.616293 -0.326763 0.075007
-0.422637 0.014301 0.774725
-0.782666 0.350932 0.079508
-0.438668 0.007789 -0.626714
