OFF
256 0 0
-0.105627 0.652991 -0.366529
-0.424518 -0.375470 0.284583
-0.454152 0.662111 -0.037444
-0.791357 -0.394905 -0.046774
-0.428152 -0.375752 0.287234
0.225733 -0.712649 0.649642
0.217832 -0.037401 -0.705494
-0.430430 0.303410 0.302915
0.226124 -0.710837 0.651135
-0.425887 -0.374789 0.284395
-0.122982 0.334956 -0.737384
-0.136038 -0.747365 -0.372689
0.559956 -0.018565 0.313177
0.559736 -0.018384 0.310798
-0.781788 0.278572 -0.011877
0.252648 0.657022 0.668878
0.239147 -0.021864 0.671217
-0.451282 0.660241 -0.038716
-0.107865 -0.379083 -0.715663
0.571413 0.314422 -0.047950
-0.460620 -0.725231 -0.034466
-0.088625 0.651440 0.304274
0.561139 -0.018517 0.311339
-0.120714 0.335081 -0.738773
-0.134100 -0.747626 -0.371423
-0.426946 -0.374084 0.285830
0.561124 -0.373818 0.656911
0.575050 0.645501 -0.388850
0.565341 0.314326 0.657712
0.215927 -0.037398 -0.702895
0.550461 -0.388507 -0.042903
0.572883 0.315181 -0.046247
0.226923 -0.712480 0.650364
-0.428827 -0.063848 0.638955
-0.430307 0.302729 0.303395
-0.121442 0.334162 -0.736852
0.238335 -0.023855 0.668143
0.583496 0.644863 0.313870
0.574919 0.645491 -0.391551
-0.452127 0.661940 -0.039189
-0.104040 0.651978 -0.365899
0.566971 -0.046730 -0.376120
0.574440 0.645640 -0.390266
-0.459698 -0.725736 -0.030457
0.229960 -0.385318 -0.385953
-0.771743 -0.059403 0.319771
-0.461062 0.305000 -0.374141
0.566498 -0.047511 -0.377244
0.231158 -0.384272 -0.385008
0.551799 -0.390753 -0.041588
-0.085328 0.652246 0.305942
0.241283 -0.731430 -0.058300
-0.454719 -0.371308 -0.394931
0.551602 -0.389919 -0.042106
-0.455582 -0.043328 -0.725714
-0.135690 -0.746013 -0.371958
0.240155 -0.730308 -0.056881
0.228117 -0.384055 -0.384104
0.253868 0.655921 -0.042581
-0.087458 0.651986 0.304815
-0.452666 -0.371113 -0.394262
-0.461595 0.306166 -0.372825
-0.430396 -0.064326 0.641711
-0.086180 0.651339 0.305389
0.226453 -0.711271 0.652080
-0.093730 -0.706648 0.277832
-0.456953 -0.725338 -0.032859
0.254776 0.655234 -0.042172
-0.784200 -0.033190 -0.384421
0.563295 -0.706106 0.312958
0.550701 -0.388833 -0.042304
-0.426387 -0.372672 0.284429
-0.136125 -0.745617 -0.372137
-0.780460 0.279840 -0.010582
0.223650 0.667751 -0.708957
-0.459710 0.304094 -0.376771
0.559091 -0.373930 0.654805
0.228872 -0.385402 -0.385396
0.238147 -0.021587 0.670332
-0.782493 -0.032878 -0.384254
-0.790582 -0.395130 -0.047796
0.253568 0.654893 -0.041834
0.562460 -0.705190 0.313174
0.559541 -0.374876 0.656175
0.564910 -0.705951 0.311454
0.564459 0.312668 0.660612
0.253495 0.657797 0.669234
0.566085 0.314729 0.657952
0.224324 -0.711909 0.649102
0.573687 0.645764 -0.390290
-0.451322 0.660138 -0.037848
-0.451996 -0.371428 -0.394505
-0.136762 -0.746338 -0.372604
0.563240 -0.706918 0.311548
0.237119 -0.022082 0.672410
-0.785726 -0.031032 -0.382961
-0.791073 -0.395758 -0.045592
-0.105724 -0.379871 -0.714570
-0.778822 0.280133 -0.011137
0.224982 0.667393 -0.710526
-0.094147 -0.707693 0.278349
0.575795 0.643936 -0.390659
-0.786009 -0.030664 -0.384340
-0.137419 -0.747648 -0.371507
0.223600 0.667131 -0.712003
0.225823 -0.712620 0.649017
0.255789 0.654610 -0.041346
-0.089073 0.649293 0.304462
0.241544 -0.732808 -0.056031
-0.108057 0.652058 -0.364722
-0.783601 -0.033123 -0.385426
-0.458295 -0.724020 -0.030962
-0.452059 -0.370387 -0.395515
-0.425675 -0.373760 0.284539
-0.427683 -0.374647 0.285021
0.216484 -0.037915 -0.704078
-0.101443 -0.370211 0.652295
-0.431101 -0.062098 0.640032
0.568861 0.304177 -0.711930
-0.460545 -0.725319 -0.032335
0.581788 0.644147 0.313471
0.564620 -0.048853 -0.376757
-0.430159 0.304011 0.303985
-0.769185 -0.058760 0.320348
0.252958 0.656852 0.668688
0.241181 -0.732072 -0.055904
0.242352 -0.732224 -0.057955
-0.454146 -0.042365 -0.725747
0.237490 -0.023020 0.670106
-0.430066 -0.063627 0.640907
0.252751 0.655336 0.668334
-0.789225 -0.394671 -0.046768
-0.430218 0.302097 0.301483
0.551765 -0.389170 -0.042431
0.240599 -0.732165 -0.057909
0.583814 0.642341 0.314499
0.550270 -0.388491 -0.042010
0.254757 0.656828 0.668732
-0.088093 0.651007 0.306216
0.575541 0.646101 -0.389145
0.552327 -0.391484 -0.043028
0.574292 0.645854 -0.389619
-0.431370 0.305724 0.301889
-0.428450 0.302521 0.303072
-0.136283 -0.748327 -0.372314
-0.425172 -0.376012 0.286056
0.564862 0.313923 0.659486
0.570645 0.314421 -0.045651
0.242020 -0.731901 -0.055909
-0.425690 -0.375288 0.283603
-0.093324 -0.707044 0.276897
0.573348 0.644422 -0.390103
0.551789 -0.387871 -0.041148
0.574148 0.314946 -0.046049
0.566976 -0.704720 0.311565
-0.770914 -0.059679 0.317835
-0.459547 -0.723616 -0.033804
0.240559 -0.733202 -0.056887
-0.462824 0.305251 -0.375442
-0.461370 -0.724355 -0.033082
-0.107336 -0.378528 -0.715934
-0.121828 0.333070 -0.735733
-0.099574 0.298759 0.637438
0.550937 -0.388792 -0.043602
-0.769622 -0.057395 0.320250
-0.122262 0.333910 -0.737379
0.559461 -0.372367 0.654288
0.225679 -0.711192 0.649815
0.571895 0.313859 -0.045428
0.558563 -0.371513 0.656611
0.216248 -0.037761 -0.707167
-0.771533 -0.060893 0.320085
0.254441 0.656329 0.669177
0.560078 -0.018383 0.310939
0.570471 0.304168 -0.713481
0.230376 -0.384915 -0.384518
-0.134758 -0.746225 -0.371469
-0.094288 -0.709850 0.277467
0.254373 0.654441 0.668529
-0.452128 0.661707 -0.040306
-0.109297 -0.379053 -0.714562
-0.452006 -0.370910 -0.395918
-0.108865 -0.377417 -0.715354
0.216975 -0.039328 -0.706469
0.575278 0.643906 -0.389157
-0.453610 -0.041486 -0.725424
-0.135325 -0.746846 -0.373432
-0.461620 0.304584 -0.373070
-0.454564 -0.372383 -0.392797
0.255017 0.655884 -0.043208
0.226030 0.667160 -0.711304
-0.452848 -0.371703 -0.395193
0.574498 0.315010 -0.047016
-0.455810 -0.042724 -0.725936
-0.454404 -0.041496 -0.726655
0.228223 -0.385857 -0.384520
-0.425071 -0.374514 0.284662
0.253098 0.655465 -0.042253
0.253025 0.654970 0.668642
0.568159 0.305824 -0.709201
0.559644 -0.374502 0.657188
-0.101951 -0.368944 0.651678
0.558482 -0.018837 0.312675
-0.135729 -0.747210 -0.372569
-0.122805 0.336011 -0.738114
-0.784918 -0.032348 -0.384965
0.222532 0.667309 -0.711300
0.225302 -0.712850 0.650374
-0.123494 0.336200 -0.736251
0.551725 -0.389479 -0.040534
0.572087 0.317190 -0.045338
-0.430901 -0.063122 0.641801
-0.460183 -0.722537 -0.030688
0.240525 -0.731913 -0.056828
0.229915 -0.385008 -0.382692
0.215880 -0.039107 -0.704405
-0.135624 -0.749451 -0.372699
-0.771570 -0.058281 0.320988
-0.121730 0.334860 -0.738030
-0.459821 -0.723430 -0.032922
0.237989 -0.023140 0.669485
-0.459391 -0.724443 -0.032274
0.559491 -0.372451 0.657706
-0.459893 0.306241 -0.374813
-0.459044 0.304856 -0.374166
-0.105391 0.654120 -0.365268
-0.454904 -0.043877 -0.726972
-0.770601 -0.059087 0.321410
-0.455212 -0.043116 -0.726097
-0.461627 0.307819 -0.374134
-0.430227 -0.063212 0.641082
-0.426343 -0.375260 0.281816
-0.136992 -0.745953 -0.371922
0.242219 -0.733050 -0.056742
-0.789460 -0.394819 -0.047045
-0.095908 -0.709196 0.279045
0.242965 -0.731734 -0.055562
0.565329 0.314222 0.657388
-0.453942 -0.044536 -0.727778
0.563539 -0.704775 0.311135
-0.452372 0.662608 -0.040658
-0.134984 -0.746526 -0.372025
0.564119 -0.705043 0.312309
0.569636 0.312797 -0.047670
0.559316 -0.373920 0.657371
-0.427299 -0.375160 0.285368
-0.109179 -0.379061 -0.713810
0.551787 -0.388661 -0.042266
-0.105903 0.653049 -0.364519
-0.428905 0.303034 0.302284
-0.133253 -0.747426 -0.371579
-0.135939 -0.746517 -0.371958
0.229050 -0.385525 -0.385220
0.225272 0.668218 -0.709892
-0.430590 0.302294 0.301287
-0.452795 -0.042388 -0.727895
