OFF
256 0 0
-0.781076 -0.029955 -0.363356
-0.440250 -0.706973 -0.032973
0.231134 -0.052105 -0.687805
0.578792 -0.353841 0.634800
-0.115945 -0.365173 -0.706791
0.564222 0.303379 0.615238
-0.775750 -0.018743 0.296663
-0.412063 0.290152 0.273883
-0.407025 -0.333160 -0.347930
0.562418 0.301215 0.615449
-0.417095 -0.358218 0.287938
0.561791 0.302457 0.617367
0.562218 0.303078 0.616795
-0.090407 -0.368407 0.635263
0.573093 0.284452 -0.051159
0.559967 0.304235 0.616567
0.561724 0.303654 0.616454
0.204073 -0.715469 -0.036396
0.577466 -0.061797 -0.369601
-0.456309 0.636519 -0.029838
-0.106132 0.287242 0.649209
-0.119105 0.653111 0.288341
0.576616 0.647512 -0.383832
0.235223 -0.727178 0.645174
0.216887 -0.363908 -0.341830
0.574360 0.284406 -0.053578
0.232389 -0.051557 -0.684783
0.577752 -0.061048 -0.370740
-0.091314 0.289971 -0.675175
0.203408 0.647727 -0.690405
-0.415013 -0.358432 0.289458
-0.786216 0.280245 -0.032575
-0.115120 -0.733292 0.303919
-0.455105 0.636227 -0.031575
-0.117846 -0.678985 -0.361700
-0.412645 0.292123 0.275572
0.576340 0.646454 -0.381973
-0.090467 -0.367905 0.636103
-0.774162 -0.373808 -0.033638
0.563221 -0.044607 0.278482
-0.107037 0.288013 0.649831
-0.779617 -0.032345 -0.362315
0.220595 0.643139 0.615680
0.573345 -0.694972 0.287448
-0.787024 0.279972 -0.033840
-0.114833 0.662513 -0.349048
0.204003 -0.712816 -0.035949
0.202556 0.646389 -0.692799
-0.410402 -0.332681 -0.349631
-0.115881 0.661260 -0.351499
-0.119667 0.656396 0.287298
0.569687 0.630947 0.280702
0.579004 -0.354653 0.636116
0.205370 -0.714913 -0.036019
0.219389 -0.364833 -0.343720
-0.108290 0.285603 0.649042
-0.114903 -0.733513 0.302384
-0.413741 -0.358373 0.289862
0.232337 0.615030 -0.040863
0.573543 0.284188 -0.051891
-0.442883 0.296139 -0.341995
-0.787338 0.278648 -0.033514
0.569516 -0.383317 -0.038209
-0.089832 -0.369098 0.638466
-0.090666 -0.368730 0.635803
-0.781193 -0.030560 -0.362470
-0.115366 0.660738 -0.351236
0.580886 -0.354531 0.635431
-0.410017 -0.331644 -0.347560
0.571833 0.630728 0.281096
-0.457119 0.637730 -0.029788
-0.776273 -0.019579 0.297361
-0.412260 0.290038 0.273991
0.231774 -0.051395 -0.686649
0.564027 -0.045849 0.277287
0.202763 -0.714245 -0.036826
0.573607 0.284865 -0.050517
0.551612 0.308830 -0.710939
0.581247 -0.355088 0.635011
0.573350 0.284648 -0.051518
0.203312 0.647147 -0.689288
-0.092587 0.290614 -0.672803
-0.772149 -0.375277 -0.035350
0.579013 -0.354207 0.635577
-0.785234 0.280639 -0.031546
-0.114194 -0.732627 0.305020
-0.442689 0.295333 -0.341413
0.233787 -0.728325 0.646340
0.549990 0.309426 -0.712093
0.575896 0.645123 -0.383347
-0.456216 0.636211 -0.029780
0.216882 -0.363722 -0.342677
-0.116479 -0.679015 -0.362294
-0.115615 0.661255 -0.350284
0.235655 -0.727729 0.644844
-0.779223 -0.029712 -0.363370
0.580903 -0.355918 0.636604
0.576806 -0.060674 -0.372537
0.201992 0.648499 -0.690174
0.551385 0.308179 -0.713356
0.573427 -0.696692 0.286824
-0.776449 -0.016635 0.297490
0.579276 -0.060860 -0.371933
0.235070 -0.728596 0.646254
-0.092246 -0.369448 0.638209
0.200590 0.648688 -0.691797
0.230538 -0.052989 -0.684500
-0.092054 -0.369209 0.635723
-0.092029 0.290691 -0.673043
-0.092009 0.289133 -0.674021
0.230901 0.616274 -0.039656
-0.114764 0.660336 -0.351058
0.203290 0.647591 -0.690966
-0.443282 -0.706328 -0.035105
0.575513 0.643997 -0.382601
0.574437 -0.062950 -0.369019
-0.120439 0.656362 0.287599
-0.784799 0.280437 -0.033297
0.560832 -0.044924 0.276260
0.572225 -0.695393 0.285387
0.230001 -0.054017 -0.685931
-0.089861 -0.370150 0.638759
0.563517 -0.047056 0.277351
-0.442036 -0.705720 -0.035506
-0.432812 -0.048485 0.634232
-0.108641 0.285575 0.649461
0.564063 0.303898 0.616382
-0.412364 0.290662 0.273864
-0.441396 -0.707810 -0.034398
0.573447 0.283686 -0.051993
-0.119188 0.655476 0.288789
-0.781428 -0.030565 -0.363567
-0.119643 0.655116 0.287648
-0.092825 -0.368266 0.638688
0.224488 -0.043559 0.619921
0.203720 0.649662 -0.691908
-0.120032 0.656288 0.287702
-0.115447 0.662543 -0.348784
-0.779363 -0.031538 -0.363391
0.204635 -0.713025 -0.036582
-0.780534 -0.030164 -0.362173
0.571333 -0.383386 -0.033990
0.571003 0.630371 0.278911
-0.409364 -0.331569 -0.346559
0.581801 -0.353978 0.635206
-0.114921 0.661674 -0.351330
-0.777360 -0.018831 0.296985
0.568189 -0.381517 -0.035620
-0.090100 0.290800 -0.673868
-0.116552 0.661200 -0.350141
-0.121284 0.656015 0.287170
0.234128 -0.728734 0.645196
-0.117945 -0.680946 -0.361561
0.571698 -0.695959 0.287007
-0.459605 -0.021925 -0.720022
-0.460075 -0.020702 -0.721075
0.562701 0.303744 0.616175
-0.113790 -0.732140 0.303030
-0.461349 -0.024063 -0.721986
0.218984 0.642649 0.617235
-0.433454 -0.046525 0.636974
0.572129 0.631125 0.282907
-0.461010 -0.020250 -0.721347
-0.780772 -0.029038 -0.361894
-0.118962 0.655008 0.288287
-0.442855 0.295505 -0.343341
-0.114678 0.659968 -0.351627
-0.461850 -0.022254 -0.719138
0.231873 -0.051415 -0.685017
-0.412367 0.291578 0.275086
0.571644 -0.695798 0.285947
-0.453699 0.637169 -0.029747
0.572018 -0.695624 0.285858
0.217606 -0.363325 -0.342440
-0.454774 0.635749 -0.029827
0.570057 -0.380402 -0.036301
-0.454445 0.636087 -0.030353
-0.106235 0.287056 0.650289
-0.410279 -0.334093 -0.346718
-0.115939 0.662323 -0.353266
0.217995 -0.363207 -0.343340
-0.782561 -0.031605 -0.362732
0.581127 -0.354854 0.636176
-0.112884 -0.731838 0.303507
-0.442964 -0.708220 -0.033250
-0.108059 0.286668 0.650979
0.575968 0.647153 -0.383003
-0.779620 -0.031576 -0.365008
-0.776720 -0.017547 0.297912
0.572366 0.632866 0.280183
0.217599 -0.364129 -0.343939
-0.785671 0.279908 -0.033670
-0.435223 -0.048009 0.635828
0.570315 0.629647 0.279529
0.560984 -0.045250 0.277860
-0.113907 0.660694 -0.348947
0.230916 -0.052397 -0.686194
-0.119332 -0.679034 -0.362168
-0.416264 -0.358956 0.292125
-0.115559 -0.365798 -0.706495
0.219554 0.645649 0.614555
-0.116625 -0.366632 -0.707996
0.217225 -0.362281 -0.343794
0.561029 0.301352 0.615502
-0.784553 0.282219 -0.032666
0.582578 -0.352686 0.636590
-0.460294 -0.019819 -0.719941
0.204914 -0.712752 -0.035999
0.231719 -0.053395 -0.687600
0.224569 -0.042530 0.617638
0.577323 -0.061480 -0.371089
0.235352 -0.727211 0.641672
-0.114514 0.661003 -0.350913
0.570016 -0.696631 0.285966
-0.410592 0.290385 0.272523
-0.443926 0.296187 -0.344477
0.568910 -0.382628 -0.036020
-0.108235 0.287121 0.648628
0.581918 -0.354505 0.634187
0.218842 -0.364080 -0.343515
-0.108156 0.285781 0.649847
-0.107727 0.286829 0.649288
-0.440969 0.296037 -0.343243
0.224498 -0.040296 0.617674
0.570189 0.631079 0.282573
0.576752 -0.064256 -0.370674
0.576007 0.645991 -0.383328
0.581203 -0.355874 0.634997
0.570428 0.632637 0.281451
-0.415630 -0.358114 0.289313
0.572055 -0.696797 0.287010
-0.432958 -0.047828 0.635790
0.231805 0.616993 -0.043949
0.569688 -0.380496 -0.034604
0.217957 0.644029 0.616484
0.576660 0.646298 -0.383212
-0.107704 0.285905 0.649947
0.219887 0.645062 0.615649
-0.455195 0.636464 -0.030612
-0.461850 -0.023466 -0.719263
-0.455960 0.636745 -0.031131
0.231934 -0.052827 -0.684995
0.552853 0.307033 -0.710351
0.573406 -0.697619 0.285977
0.205070 -0.715694 -0.037969
-0.117183 -0.367132 -0.707971
-0.459954 -0.020992 -0.720486
-0.786385 0.281029 -0.032895
-0.115383 0.660491 -0.351107
0.575041 0.644222 -0.382021
0.562395 0.303293 0.614041
-0.441836 -0.706532 -0.034779
0.580990 -0.352836 0.635247
0.552725 0.306630 -0.710637
-0.459677 -0.020337 -0.720212
0.571314 -0.382110 -0.035640
