OFF
256 0 0
-0.000216 -0.796509 -0.281585
0.716977 0.280253 0.079076
0.360885 -0.078477 -0.637005
-0.361241 0.639582 0.079643
-0.359093 -0.081582 -0.638476
0.718937 0.278363 -0.638155
-0.001790 -0.436427 0.797091
-0.357497 -0.438918 -0.279186
-0.358921 -0.079036 -0.637275
0.000767 -0.796254 -0.278332
0.718917 0.277957 0.082017
-0.716690 0.278626 0.080572
0.356457 -0.795248 0.079124
-0.359133 0.638221 0.079900
-0.717957 0.638338 -0.277499
0.718727 0.279815 0.078647
0.719313 -0.078638 0.440145
-0.719324 -0.080766 0.439052
-0.718066 -0.080181 -0.280789
0.000126 0.279531 0.796893
-0.359027 0.637798 0.081567
-0.000412 -0.437312 -0.636994
-0.360918 -0.797427 0.078620
0.000446 -0.438983 0.797650
0.357821 -0.438702 0.438061
0.358334 -0.436827 0.439412
0.358402 0.637964 0.079822
-0.001200 0.277117 -0.639200
-0.720058 -0.078868 -0.280618
-0.000022 0.279596 0.795104
-0.718526 -0.438223 0.081770
-0.716873 0.280998 0.077932
-0.000882 0.278772 -0.639077
0.359059 -0.438771 0.439545
-0.718399 -0.079628 -0.278093
-0.358634 -0.440198 0.439069
0.360182 -0.080137 -0.637497
0.000071 0.277664 -0.637820
-0.356588 -0.439337 -0.279122
-0.357825 0.278579 0.437996
-0.001312 -0.439561 -0.638063
-0.717439 -0.436897 0.080183
-0.717255 -0.083158 -0.280487
0.360471 -0.437788 -0.279364
0.359159 -0.079955 0.798112
-0.358657 0.637733 0.081155
-0.715541 0.279286 0.081385
-0.000665 -0.439884 0.797459
0.360071 -0.440082 -0.278405
-0.357915 0.638650 -0.637177
0.358534 -0.079706 0.797933
-0.717440 0.637635 -0.280321
-0.718073 0.279666 0.079689
-0.357350 -0.079129 -0.638308
0.719085 -0.438837 0.079183
-0.357755 0.639391 0.080170
0.359729 -0.079039 -0.639874
-0.718032 0.278409 0.080486
-0.357112 0.637490 -0.637506
-0.716910 0.277613 -0.636301
0.359952 0.638910 -0.638274
-0.719042 -0.440839 0.079823
-0.000561 -0.439823 -0.637612
-0.358118 -0.438883 -0.280941
0.717391 -0.078826 0.438498
0.717622 -0.078986 -0.280630
-0.715447 -0.079751 -0.277988
-0.358738 -0.440163 -0.279390
0.717128 0.637987 -0.277711
0.717857 -0.439062 0.080237
0.716308 -0.440275 0.079384
-0.358154 0.638146 -0.637056
0.358366 -0.077537 0.797879
0.359114 0.278321 0.438353
0.716883 -0.079221 -0.279163
-0.717206 0.279767 -0.639968
0.358823 0.637498 -0.639250
0.000853 0.280902 0.797732
-0.717270 0.279168 -0.639292
-0.001643 0.636930 0.438015
-0.716097 0.278773 -0.638598
0.000692 0.636435 0.437642
0.359686 -0.439187 0.437894
-0.358278 -0.438054 0.437916
0.716823 0.277874 0.079676
0.358997 -0.439539 0.437438
-0.001109 0.638308 0.438809
-0.358820 0.279123 0.437786
-0.717770 -0.080765 0.438258
0.717121 -0.439734 0.079115
-0.356724 0.279011 0.438138
0.717379 -0.439963 0.079059
-0.718731 0.280388 0.078590
0.358284 -0.078730 0.797297
-0.359937 -0.079607 -0.637534
-0.359296 0.278851 0.439870
-0.357992 0.279566 0.439597
0.718269 -0.078185 -0.279111
0.359849 -0.797579 0.078773
-0.360529 -0.796876 0.079307
0.358054 -0.439217 0.438235
-0.717478 0.639241 -0.278450
-0.719160 0.639590 -0.277933
-0.716597 -0.079830 0.440073
-0.359706 0.280557 0.438473
-0.718724 -0.079596 -0.278919
-0.717452 -0.078513 -0.279220
0.002007 0.636255 -0.279820
0.719788 -0.079208 0.436576
-0.356759 -0.078856 -0.638360
-0.358088 -0.080381 -0.635993
-0.000882 -0.438950 -0.640386
0.358111 0.636806 -0.638751
0.717090 0.279268 0.080349
-0.356848 -0.078270 0.797387
0.357631 -0.079389 0.797294
-0.000831 0.637132 -0.279100
-0.357897 -0.797613 0.079681
0.717289 -0.438989 0.079075
-0.716903 -0.082126 0.438919
0.716702 -0.078812 -0.280717
-0.358226 -0.439368 0.439329
-0.358551 -0.080757 0.797896
-0.001754 -0.796291 -0.279924
0.001538 0.277991 0.796901
0.719329 0.279473 -0.638144
-0.360154 -0.078120 -0.638172
-0.720303 0.280472 0.081471
0.356930 -0.078708 -0.640194
0.001290 0.638579 -0.280527
0.715907 -0.438524 0.080865
-0.716354 0.280131 -0.638565
-0.717224 -0.079851 -0.280358
-0.358958 -0.438341 0.438299
0.357950 0.278915 0.438469
0.357700 -0.438395 0.438480
0.000522 0.279286 -0.638031
0.001097 -0.438429 -0.636742
-0.000568 0.278185 0.799372
0.716464 0.638627 -0.279343
-0.358507 -0.796942 0.079537
-0.716235 -0.080242 0.438727
-0.717778 -0.439915 0.078934
0.716743 0.278496 0.080817
0.359155 -0.797184 0.079939
-0.359302 0.638145 -0.639068
0.357832 -0.437146 -0.279363
-0.716055 0.278438 -0.639761
0.717303 -0.079319 -0.278086
-0.717786 0.280369 0.080607
0.000082 -0.797918 -0.279330
-0.716395 -0.437813 0.078841
-0.359722 0.638119 -0.637315
-0.000259 -0.798331 -0.280114
-0.360091 0.637833 -0.638734
0.716393 0.636317 -0.278145
0.002362 -0.795549 -0.276684
0.717769 -0.079785 -0.277742
-0.718588 -0.438673 0.081417
-0.357703 0.637931 -0.637730
0.357964 -0.436872 -0.279359
-0.358838 0.636290 -0.638963
-0.358538 -0.439316 -0.280517
0.000814 0.278479 0.798373
0.357284 -0.437440 0.439289
-0.358069 0.639533 -0.635820
0.361404 -0.799389 0.080731
0.358415 0.638309 0.079434
-0.001107 -0.439905 -0.636488
-0.000757 0.636952 -0.280205
0.002084 0.638511 0.437140
-0.359013 0.636770 0.079821
0.358399 -0.080589 -0.638327
0.716921 0.277327 0.081431
-0.716941 -0.080406 -0.277526
0.358746 -0.797008 0.078365
-0.000989 0.636321 0.438615
0.360620 0.276950 0.438384
0.001446 0.278275 0.799822
0.717164 0.279406 -0.639604
0.716613 0.279337 0.078116
-0.718148 0.638029 -0.279922
0.715888 0.279428 0.080807
0.717124 -0.081953 0.440463
0.357381 -0.439042 -0.279479
-0.715789 0.278118 -0.637796
-0.716913 0.279774 0.079751
-0.000995 -0.437271 -0.635732
0.360447 -0.438217 -0.279251
-0.001422 0.636421 -0.277778
0.358405 -0.079502 0.796380
0.717271 0.640464 -0.277751
0.717813 -0.440265 0.079259
-0.716887 -0.077433 -0.278775
0.000532 0.279282 -0.638701
-0.359483 -0.797830 0.079898
-0.718932 0.279188 -0.640133
-0.357326 -0.795145 0.080985
-0.715989 0.276913 0.079511
0.000905 0.639289 -0.278837
-0.717878 -0.077555 0.440275
-0.359322 -0.796978 0.080868
-0.358604 0.637786 0.078628
0.359328 -0.799096 0.080221
-0.359275 0.638801 -0.637836
-0.358586 0.637674 -0.637338
-0.000985 -0.437898 0.796712
-0.718560 -0.080203 0.438562
-0.718165 -0.436734 0.078958
0.000840 -0.796344 0.438718
0.358171 0.279131 0.439408
-0.358911 -0.078333 0.796278
0.360015 0.639317 0.079454
0.358613 -0.080340 0.797152
0.357719 0.278716 0.438821
-0.358261 -0.080841 -0.637680
-0.000379 -0.438729 -0.637865
0.000181 -0.439466 -0.638197
0.716867 -0.080328 -0.279365
0.717913 -0.078623 -0.277935
-0.357990 -0.796196 0.079165
-0.359274 -0.437774 -0.279144
-0.717366 -0.078997 -0.278424
-0.001367 0.636919 0.438002
-0.360599 -0.795700 0.078469
-0.718846 0.279589 0.078417
-0.359718 -0.080149 -0.638729
0.718082 0.640439 -0.279462
-0.358465 -0.438477 0.438040
-0.358909 0.638263 -0.640306
-0.717663 0.280190 -0.637501
-0.717222 -0.439581 0.080132
0.716173 0.280347 -0.637797
-0.358217 0.277244 0.438419
0.001292 -0.797974 -0.279066
0.360371 0.638682 0.080657
0.358102 -0.438076 0.437371
0.360664 -0.080144 -0.637437
0.000184 -0.798009 0.439441
0.358873 0.279811 0.438468
0.359484 -0.439316 0.439732
0.718223 0.279657 0.079928
0.359833 -0.438448 -0.280096
0.717927 -0.080414 0.438740
0.357848 0.279228 0.438395
0.359161 -0.439886 -0.279558
0.717896 0.279855 -0.636599
-0.718901 0.637867 -0.278483
-0.716869 -0.438185 0.080788
-0.718505 -0.079054 -0.279666
-0.358883 -0.437650 -0.280120
-0.356725 -0.799255 0.078460
-0.358961 -0.439179 0.437616
-0.718132 0.279796 0.080456
-0.717584 0.638221 -0.279961
0.359574 -0.437903 -0.279668
