OFF
256 0 0
0.294409 -0.293671 -0.630217
0.295367 0.169904 0.756332
-0.631000 -0.294850 0.293886
-0.631621 -0.294942 -0.631343
-0.167333 0.168631 -0.632014
-0.169075 0.629582 0.757533
-0.631439 0.629892 0.294870
0.756058 0.631448 -0.167350
0.292992 0.630204 0.293883
-0.632039 -0.295546 0.294363
0.757525 0.631078 -0.165930
0.757510 0.168387 -0.631558
0.759019 -0.294170 -0.167914
0.294855 0.630386 0.295950
0.294306 -0.756582 -0.167537
0.293175 0.630022 -0.630019
0.294075 0.630220 -0.629822
-0.632187 -0.757194 -0.168979
-0.630499 -0.294038 -0.631655
0.295707 -0.294471 0.295349
-0.630808 -0.292695 -0.631232
0.292075 -0.294497 -0.630124
0.756040 0.168156 -0.630849
-0.630472 0.630333 0.295243
0.292809 -0.294669 -0.631379
0.293000 -0.294397 0.294597
0.296055 0.169631 0.757547
0.293562 0.631464 -0.629102
0.294025 0.167289 0.757056
-0.629469 0.631597 0.293604
-0.632470 -0.755506 -0.166992
0.292799 0.630535 -0.630706
0.296776 -0.292947 0.295631
-0.631249 0.630375 0.294019
0.296032 -0.294384 0.294227
-0.630536 0.169066 0.755871
-0.167799 -0.293839 0.757139
-0.168634 -0.756093 0.294588
0.292708 -0.294546 0.293087
-0.631582 0.169330 -0.170145
-0.167067 -0.757623 0.294938
-0.169090 0.630394 0.757951
0.758620 0.169761 -0.631428
-0.168514 -0.757947 -0.630030
0.756436 -0.295594 -0.167532
-0.632789 0.169470 -0.167870
-0.169735 0.167253 -0.632934
-0.166965 -0.758572 0.294062
-0.168529 -0.294937 0.756524
-0.165870 0.631894 -0.168699
0.756272 -0.296170 -0.169356
0.294008 0.630479 -0.632075
0.758167 -0.294557 -0.168405
-0.631884 -0.757193 -0.167760
-0.169681 -0.758590 -0.629445
0.294719 0.632127 -0.630945
-0.167438 0.632297 0.757111
-0.630281 0.629990 0.294368
-0.168913 0.631529 0.756855
0.291366 0.167998 0.755961
0.293011 0.630252 -0.632241
-0.169008 -0.758401 -0.631123
-0.631457 -0.294035 -0.632958
-0.170158 0.170030 -0.631435
0.757288 -0.293031 -0.168647
0.293829 -0.293077 -0.631203
-0.630819 0.167220 0.757338
-0.168415 -0.294364 0.755959
-0.632151 0.166174 0.758695
0.757834 0.631216 -0.168980
0.295074 0.631993 0.294129
0.293691 -0.295031 0.294001
0.294025 -0.295973 0.292950
-0.167587 0.631578 0.757257
0.758810 0.167871 0.295721
0.294856 0.632941 0.293986
-0.167872 0.630364 0.757116
-0.167613 -0.757352 -0.630764
-0.630900 0.167552 -0.166823
0.292995 -0.294912 0.294232
-0.169639 -0.295461 0.756508
-0.170793 0.167748 -0.632232
-0.631234 0.168886 0.756284
0.293603 0.631439 -0.631436
0.758891 -0.295954 -0.169449
-0.631441 -0.294090 -0.633348
-0.631226 0.167775 0.756717
-0.169939 0.630816 0.756913
-0.631875 -0.296677 0.294315
-0.631275 0.167549 -0.167676
-0.168859 0.632348 -0.168521
0.759312 0.167730 0.293762
0.755696 0.167395 0.294355
0.294947 -0.758304 -0.168146
-0.168876 -0.294370 0.755882
-0.628626 -0.296402 0.293671
-0.629724 -0.295877 -0.630389
0.293908 0.631241 -0.632984
0.294540 0.630988 0.294722
0.294691 0.630547 -0.630447
-0.168812 0.630589 -0.167223
0.756735 0.168486 0.294938
-0.168711 -0.757677 -0.629915
-0.168161 -0.295125 0.755946
0.293534 -0.756664 -0.167314
0.294815 0.632344 0.295159
-0.168278 0.631664 0.757131
-0.168922 -0.294513 0.756999
-0.167272 0.167091 -0.630957
0.757097 0.167298 0.294562
0.756557 0.166960 -0.629158
-0.167617 -0.295137 0.757105
0.757520 0.167824 -0.631142
0.755873 0.168529 0.294603
-0.632445 0.630943 0.294984
-0.168291 -0.757567 0.293557
-0.629113 0.169324 0.757498
0.297100 -0.296271 -0.633205
-0.631943 -0.295004 0.295459
-0.167904 -0.757061 -0.631708
-0.631318 -0.295008 0.295491
-0.166225 0.630164 -0.167483
0.756927 0.633649 -0.168515
-0.631667 -0.294144 0.293767
-0.168012 -0.292803 0.757484
-0.168648 0.631533 -0.169713
0.294171 -0.756705 -0.168740
-0.167716 -0.758535 -0.631463
0.293589 0.630790 0.295692
0.756285 0.169973 0.294538
0.295842 0.630686 -0.631965
0.759095 0.632948 -0.168262
-0.169016 0.631207 0.755433
0.295155 -0.758590 -0.168459
0.294730 0.168677 0.757708
-0.629380 0.167378 -0.167302
-0.169032 -0.758310 -0.631170
-0.169122 -0.293543 0.758805
-0.169275 0.165855 -0.632085
-0.631717 0.629992 0.294410
-0.166670 0.631073 0.756365
-0.170261 -0.294983 0.757418
-0.630719 -0.293500 0.296121
0.757670 0.631937 -0.169308
0.295074 0.633737 -0.632941
0.757939 0.170202 0.296148
-0.167869 0.630755 -0.167681
-0.630327 0.167289 0.756362
0.294046 -0.293902 -0.631759
0.292773 0.169621 0.755764
-0.168549 0.630988 0.757469
-0.631181 -0.294339 0.295002
0.758022 0.169584 0.294354
0.756813 0.168492 -0.631699
-0.632588 0.167723 0.756921
-0.167620 -0.294446 0.757329
0.756207 0.630731 -0.169150
0.757942 0.167745 0.295316
0.292998 -0.296211 0.294843
-0.168448 0.167389 -0.630251
-0.630875 -0.294006 0.295447
-0.631817 0.166961 -0.168332
-0.170059 -0.758636 0.294150
0.756717 -0.292978 -0.166964
0.293673 0.631622 -0.630389
-0.629409 0.169152 0.758303
0.757133 0.630396 -0.167038
-0.167426 0.169028 -0.632024
-0.169232 0.632287 -0.168684
-0.630940 0.168695 0.755182
0.294247 0.632848 -0.630655
-0.169102 0.631207 0.757062
-0.168664 -0.756465 -0.633579
-0.169341 0.631998 0.756462
0.295719 -0.292229 -0.630034
-0.631100 0.630513 0.293641
0.292886 -0.757016 -0.168413
0.295018 0.169163 0.756498
-0.629605 0.169999 0.757067
0.293148 0.167460 0.757763
-0.632027 0.630611 0.294630
-0.168747 0.166364 -0.630901
-0.630887 -0.293965 0.295508
-0.168492 0.631326 0.756967
-0.167606 0.629929 -0.167996
-0.167542 0.630462 -0.166883
0.757854 0.631502 -0.165378
-0.631094 -0.292787 -0.630508
-0.165993 -0.757619 -0.630465
-0.632547 0.166910 0.758228
-0.169929 -0.757119 -0.631381
0.293547 -0.295446 -0.630774
-0.633030 0.169020 -0.166588
0.293642 -0.757623 -0.169223
-0.633227 0.168371 0.757746
0.759590 0.168269 -0.630212
-0.631276 -0.757593 -0.169679
-0.632753 0.168736 0.757497
-0.169658 -0.295376 0.755569
0.756428 0.631461 -0.168438
-0.169271 0.631522 0.760519
-0.630319 -0.757793 -0.170540
-0.630114 0.632848 0.293688
-0.168005 0.633104 -0.166727
0.755420 0.631522 -0.166904
-0.169585 -0.755238 -0.632067
0.296485 -0.756586 -0.169209
-0.166555 0.167786 -0.630092
-0.631964 -0.294852 0.293674
-0.630864 0.631999 0.294843
-0.631336 0.168388 -0.168895
0.756912 -0.293970 -0.169119
-0.631873 -0.758415 -0.167436
0.758355 0.631174 -0.168826
0.293817 0.629553 0.294616
-0.168448 0.631561 -0.168029
0.293733 -0.294271 -0.631669
0.758374 -0.293986 -0.167912
0.295598 0.167611 0.758148
-0.630365 -0.293399 0.295558
-0.632791 0.168437 -0.167267
0.295799 -0.294828 0.294009
-0.631460 0.168487 -0.168608
0.293124 -0.295998 -0.631319
0.756999 0.168469 0.293468
0.755292 0.167470 -0.631222
-0.167451 0.632478 -0.169169
-0.630937 -0.758932 -0.168522
-0.632008 -0.295130 0.293340
-0.168508 0.630333 -0.167419
-0.631126 0.629922 0.293462
0.755179 0.168707 -0.630455
-0.630059 0.169286 -0.167531
0.756660 0.169214 0.293537
-0.630376 0.631101 0.293298
-0.168974 -0.758038 0.294473
0.757300 0.630429 -0.168762
-0.629790 -0.293286 0.295179
0.294583 0.168417 0.758013
-0.170223 -0.295339 0.757627
-0.167744 -0.296209 0.758705
0.757650 -0.294234 -0.168261
0.294494 0.167886 0.757498
-0.169770 0.167569 -0.633081
0.756021 -0.296177 -0.169581
0.295229 -0.295842 -0.631289
0.295516 0.167332 0.760074
-0.630343 0.168889 -0.167945
0.294571 0.630805 0.294345
-0.169736 0.630634 -0.167758
0.294521 0.632922 0.295061
0.757556 0.630541 -0.168019
0.757746 0.168860 0.292989
-0.168615 0.167525 -0.632361
-0.169379 0.631021 0.755911
-0.169189 -0.294765 0.756505
