OFF
256 0 0
-0.125038 -0.730150 -0.620483
-0.634999 -0.754072 -0.173063
-0.633483 -0.751812 -0.172839
0.753733 0.185467 -0.606270
-0.122973 -0.730642 -0.620357
0.740140 -0.259391 -0.153743
-0.180062 0.592883 0.731526
-0.634856 0.612127 0.282965
0.746236 0.162035 0.308386
-0.591443 0.169307 -0.139926
0.744360 0.159441 0.307245
0.288427 0.182738 0.748598
0.291019 0.183611 0.747481
0.745970 0.159004 0.306533
0.740700 -0.262304 -0.152514
-0.162702 0.183225 -0.593677
-0.599703 -0.285377 -0.595054
0.289170 0.181272 0.749684
-0.166177 -0.730534 0.269182
-0.624044 -0.332851 0.284741
0.243232 -0.222717 0.225087
0.284276 0.591406 -0.625673
-0.636183 0.611164 0.283420
0.273244 -0.734298 -0.171433
-0.635894 0.612978 0.282472
0.272630 -0.734572 -0.169506
0.753078 0.184276 -0.606114
0.291343 -0.253100 -0.596814
-0.631395 -0.756308 -0.173595
-0.590720 0.168308 -0.138511
0.740704 -0.259666 -0.151766
-0.122945 -0.730784 -0.619319
-0.153031 0.576184 -0.128633
0.245549 -0.223746 0.223427
-0.176196 -0.305687 0.722241
0.292354 -0.252978 -0.597467
-0.634981 -0.755081 -0.174204
0.272545 -0.733256 -0.171705
0.729144 0.600177 -0.148325
-0.626448 -0.332665 0.283239
-0.166863 -0.730821 0.267240
-0.159576 0.180005 -0.593584
0.753230 0.185493 -0.604994
0.292710 0.598610 0.275604
-0.150091 0.577979 -0.131430
-0.177272 0.592727 0.732384
-0.636453 0.611353 0.282462
-0.121011 -0.731265 -0.620205
0.729983 0.598934 -0.150612
0.293654 0.599117 0.277160
0.728514 0.598037 -0.148706
-0.179740 0.592080 0.730711
0.244109 -0.225757 0.225301
-0.152910 0.575485 -0.131570
0.740980 -0.259885 -0.152716
-0.624822 -0.332496 0.285773
0.741339 -0.258135 -0.152389
-0.598749 -0.286779 -0.595006
-0.635606 0.612316 0.283093
0.282412 0.590805 -0.624520
0.293226 0.597609 0.274177
-0.591507 0.168735 -0.138023
0.290242 0.182603 0.747503
-0.165131 -0.730406 0.269271
0.751673 0.183940 -0.608025
0.729792 0.599761 -0.149668
0.755080 0.185214 -0.605163
-0.179281 0.591579 0.728447
-0.162146 0.180200 -0.593390
-0.152875 0.577901 -0.131567
-0.599298 -0.285806 -0.594164
0.245678 -0.223382 0.225124
0.730064 0.599389 -0.149028
0.739413 -0.260548 -0.153018
0.290943 -0.251910 -0.598420
0.729293 0.598626 -0.148734
-0.122623 -0.729519 -0.621830
0.243562 -0.224941 0.223512
-0.160891 0.181263 -0.593538
0.292201 -0.253657 -0.598955
-0.600142 -0.284772 -0.592998
-0.125123 -0.730644 -0.619578
0.740623 -0.257999 -0.153005
0.293330 -0.252609 -0.598322
0.289871 0.180030 0.748973
-0.602821 0.157928 0.708783
-0.151145 0.577600 -0.131190
-0.174615 -0.304105 0.722333
-0.602523 0.155771 0.707251
-0.632937 -0.755525 -0.173180
0.291983 0.597866 0.275715
-0.633424 -0.754042 -0.175327
0.243793 -0.222607 0.223336
-0.590735 0.168586 -0.137943
0.294132 0.597534 0.277373
-0.635989 0.612448 0.282846
-0.179124 0.592128 0.729691
0.753644 0.183986 -0.607359
0.292278 0.598464 0.276677
0.292220 -0.252898 -0.597257
-0.150112 0.575981 -0.131132
-0.161938 0.180835 -0.595694
0.729996 0.598789 -0.150311
0.271300 -0.732272 -0.171257
-0.633930 0.612661 0.281894
0.291146 0.598160 0.276302
-0.150925 0.578200 -0.129527
-0.636412 0.612615 0.283703
0.293587 0.599809 0.274602
0.271981 -0.733468 -0.171578
-0.602650 0.155823 0.710643
-0.636262 0.613310 0.282714
-0.161233 0.182673 -0.593728
-0.123041 -0.731434 -0.621318
-0.600355 -0.285781 -0.596044
-0.152089 0.578094 -0.131557
0.740441 -0.259441 -0.154930
0.751857 0.183516 -0.607847
0.292470 0.598252 0.275530
0.293380 0.599930 0.275690
0.740618 -0.259564 -0.154820
0.753605 0.185639 -0.607046
-0.179084 0.592190 0.731200
0.290864 0.181507 0.748296
0.731423 0.599037 -0.148168
0.742491 -0.259991 -0.153700
-0.601562 0.156951 0.708825
-0.124303 -0.732016 -0.619583
-0.623649 -0.332031 0.285064
0.284267 0.590930 -0.624649
-0.590465 0.170588 -0.138786
0.741717 -0.260021 -0.154089
0.294077 -0.250619 -0.597892
-0.150222 0.577408 -0.131054
-0.161009 0.181881 -0.595684
-0.625717 -0.330712 0.286824
0.739803 -0.260787 -0.152969
-0.589959 0.168281 -0.139340
-0.600790 -0.285502 -0.593347
0.246174 -0.224450 0.225616
0.271990 -0.734734 -0.172722
0.746713 0.162942 0.307180
-0.179171 0.592262 0.730278
0.273584 -0.734493 -0.170771
-0.176793 -0.305089 0.725614
0.741241 -0.258612 -0.153727
-0.598626 -0.285658 -0.594871
0.271886 -0.733269 -0.171122
0.289701 0.183450 0.748667
-0.599242 -0.284589 -0.593654
-0.602741 0.156719 0.708496
0.739964 -0.259634 -0.153844
-0.178197 0.593165 0.729310
-0.589981 0.168908 -0.139082
0.742255 -0.259109 -0.152824
-0.632653 -0.756484 -0.175896
-0.160907 0.182527 -0.595629
-0.165925 -0.731043 0.267107
-0.591030 0.168176 -0.138323
-0.625657 -0.330485 0.284867
-0.602398 0.154743 0.709677
-0.160017 0.182682 -0.592588
0.730758 0.599457 -0.148099
-0.633010 -0.752350 -0.174951
-0.626388 -0.333011 0.284749
-0.636110 0.611539 0.283128
-0.175974 -0.305457 0.724099
-0.180254 0.593117 0.730963
0.246502 -0.223426 0.223831
0.746506 0.158630 0.306705
0.291589 -0.253941 -0.596923
-0.123614 -0.731440 -0.621124
0.290079 0.183303 0.749905
-0.180787 0.591508 0.732041
-0.600539 -0.285295 -0.595718
-0.122799 -0.730272 -0.619721
-0.600940 -0.285538 -0.592324
0.753293 0.183255 -0.607091
0.728731 0.598803 -0.151176
-0.624868 -0.331521 0.286440
0.282795 0.591082 -0.625062
-0.150639 0.576974 -0.129437
-0.602572 0.157255 0.707661
-0.180134 0.591821 0.729539
-0.632547 -0.753831 -0.173272
0.285271 0.590826 -0.626138
-0.175393 -0.308522 0.723421
-0.632824 -0.753056 -0.172201
-0.177749 0.593495 0.728398
-0.166919 -0.728900 0.267595
0.754087 0.183739 -0.607650
0.292043 0.599507 0.276671
0.288167 0.181018 0.747609
0.294557 -0.252205 -0.598560
-0.602200 0.157421 0.706429
0.728660 0.600758 -0.149453
0.292752 -0.253123 -0.597242
0.292834 -0.252754 -0.599162
-0.602160 -0.284532 -0.593344
-0.161138 0.181791 -0.592526
-0.180064 0.592174 0.731240
0.751583 0.186007 -0.606373
0.273318 -0.733615 -0.170954
0.291407 0.598987 0.276696
-0.601116 0.158569 0.707664
-0.635894 0.611491 0.283899
-0.632101 -0.754069 -0.173643
0.272660 -0.734391 -0.170892
0.292578 -0.252684 -0.597708
-0.151623 0.577093 -0.129726
-0.591209 0.165834 -0.137888
-0.124486 -0.731212 -0.619841
0.245233 -0.220835 0.225281
0.744860 0.159912 0.307169
-0.624749 -0.330734 0.285215
0.729828 0.600185 -0.150377
-0.161486 0.181281 -0.593291
0.751882 0.183467 -0.606079
-0.633600 -0.755434 -0.173489
0.753599 0.186329 -0.606237
0.754036 0.185038 -0.606074
-0.162017 0.179484 -0.594768
-0.177584 -0.305527 0.721957
0.291677 0.598824 0.275480
-0.624559 -0.332113 0.284842
-0.623019 -0.331566 0.283089
-0.632720 -0.752466 -0.174771
-0.178004 -0.305548 0.723766
-0.178573 0.593806 0.731626
-0.161476 0.181316 -0.595298
0.290588 0.181745 0.748642
-0.633354 -0.752771 -0.173304
0.289130 0.182773 0.748122
0.291643 0.599393 0.276368
0.292819 -0.252600 -0.599529
-0.633923 0.610623 0.283851
0.730561 0.600240 -0.149100
-0.589720 0.167288 -0.137547
-0.631996 -0.755825 -0.176049
-0.182784 0.593083 0.729327
-0.593874 0.167111 -0.137554
-0.166120 -0.728769 0.268204
0.289617 0.180393 0.748246
0.744567 0.160588 0.306482
-0.634034 0.613313 0.284527
-0.601846 0.155788 0.710027
-0.162266 0.180922 -0.591993
-0.601679 0.158514 0.708974
-0.175981 -0.305246 0.723988
-0.635698 0.613575 0.283159
0.291626 0.597089 0.276764
-0.591986 0.167754 -0.138657
-0.165622 -0.730872 0.268318
-0.601277 -0.285980 -0.591622
0.272826 -0.732292 -0.170003
-0.623108 -0.332654 0.284650
