OFF
256 0 0
-0.638637 -0.748609 -0.148837
0.695648 0.578388 -0.146844
0.766950 0.189069 0.290516
-0.618306 0.599370 0.282737
0.310045 -0.266326 0.273784
0.313289 -0.264997 0.272334
-0.176182 -0.707916 0.254314
0.300710 0.629512 0.333939
-0.170008 -0.258986 0.740543
0.308602 -0.287829 -0.615825
0.744778 0.144764 -0.648304
0.302263 0.169054 0.763760
-0.168133 -0.259383 0.741556
0.311598 -0.265465 0.272523
-0.167413 -0.257065 0.739128
-0.611437 0.177828 0.754788
-0.646857 -0.274909 0.299763
-0.168121 0.640807 0.734895
-0.637032 -0.748641 -0.148403
0.764566 0.186795 0.291249
0.287534 -0.742287 -0.175739
-0.166052 -0.739076 -0.607542
-0.610264 0.178705 0.755399
0.312405 -0.264439 0.271109
-0.618267 0.600724 0.283767
0.748744 -0.261237 -0.173521
-0.640022 -0.748964 -0.149109
-0.639474 -0.747794 -0.148020
0.301485 0.169792 0.765093
-0.176114 -0.706507 0.255464
-0.176270 -0.706534 0.255412
-0.611696 0.177677 0.757182
0.300329 0.169247 0.764238
-0.640709 -0.747027 -0.148054
-0.168322 -0.256913 0.740512
0.747552 0.143289 -0.650599
0.301476 0.629957 0.334734
-0.646413 -0.274558 0.301382
-0.167591 -0.258228 0.739578
-0.640494 -0.748936 -0.148302
-0.168436 0.639201 0.734159
-0.169268 -0.259849 0.741277
0.288001 -0.741087 -0.175803
0.749356 -0.260905 -0.171917
-0.144611 0.630576 -0.160210
-0.166609 -0.737852 -0.606125
0.698171 0.577481 -0.147995
-0.638447 -0.749223 -0.148263
-0.164456 -0.739888 -0.606536
0.750044 -0.261016 -0.172332
0.313834 -0.267650 0.271266
0.300324 0.169232 0.763156
0.305552 0.600741 -0.644938
-0.639005 -0.746459 -0.149161
-0.146954 0.630365 -0.162325
-0.168000 -0.257685 0.740658
-0.170325 -0.259586 0.740343
0.304869 0.600868 -0.645590
-0.194542 0.144096 -0.647835
0.748285 -0.260458 -0.172434
0.300819 0.168447 0.762343
-0.169269 0.639383 0.736238
0.312903 -0.267114 0.271520
0.696530 0.576720 -0.148825
-0.610507 0.178675 0.754061
0.745267 0.145562 -0.649997
-0.617722 0.597640 0.283242
0.299567 0.627899 0.335237
0.312596 -0.268151 0.271838
-0.169780 0.640893 0.735418
-0.578779 0.133461 -0.139359
-0.145949 0.629528 -0.160573
0.695984 0.576106 -0.150699
0.307303 -0.287217 -0.613324
-0.609986 0.177701 0.755412
-0.168912 -0.257678 0.739892
0.304690 0.600150 -0.645035
0.301508 0.169001 0.761100
0.313804 -0.265383 0.270824
-0.639628 -0.746132 -0.147792
0.312103 -0.265957 0.270327
-0.146798 0.629694 -0.160946
0.746414 0.143678 -0.648368
0.308618 -0.288190 -0.613289
0.300247 0.629633 0.334593
0.306998 -0.287629 -0.615199
0.306300 0.601622 -0.645845
-0.618386 0.598326 0.281390
-0.169272 0.639239 0.737014
-0.655663 -0.351042 -0.621337
-0.169941 0.639541 0.735173
-0.610711 0.177678 0.755886
-0.645641 -0.274399 0.301744
0.307874 -0.291681 -0.614794
-0.164539 -0.738240 -0.608565
-0.175462 -0.705742 0.256367
0.301142 0.169583 0.763848
0.763686 0.189036 0.290295
0.747623 0.142791 -0.649183
-0.646958 -0.274686 0.299801
0.765002 0.188633 0.288854
0.307421 -0.289832 -0.615395
0.307809 -0.289743 -0.613437
0.746831 0.143957 -0.650454
-0.579984 0.133541 -0.140023
0.312419 -0.264547 0.270964
0.301090 0.628126 0.333590
0.301532 0.169267 0.763175
-0.167659 -0.259478 0.741195
0.287379 -0.741327 -0.174713
-0.579022 0.132648 -0.141471
0.314157 -0.266790 0.272023
0.307632 -0.288118 -0.615267
-0.645963 -0.276960 0.302747
0.300343 0.169226 0.762717
-0.578995 0.135015 -0.142095
-0.167946 -0.260746 0.739381
-0.175252 -0.707750 0.256291
-0.197018 0.144599 -0.646359
0.300313 0.628381 0.334667
0.764912 0.188390 0.293299
0.765095 0.186887 0.292227
0.307106 -0.287653 -0.616112
0.763417 0.189359 0.291143
0.306611 -0.288585 -0.616125
0.301231 0.628104 0.334844
-0.579037 0.132827 -0.141667
-0.170308 -0.259628 0.739651
-0.175507 -0.705704 0.255679
-0.612629 0.177011 0.755892
-0.166678 -0.257903 0.741244
0.287066 -0.743607 -0.175898
-0.616586 0.600566 0.284008
0.765205 0.189657 0.291004
0.306431 -0.289885 -0.614159
-0.639564 -0.746657 -0.146476
-0.164968 -0.736385 -0.607576
-0.143819 0.630179 -0.162115
-0.196498 0.143299 -0.647622
-0.166336 -0.738756 -0.606353
-0.647949 -0.275325 0.300647
0.304516 0.600774 -0.643536
-0.196475 0.145007 -0.645975
0.301216 0.626968 0.332634
-0.165200 -0.739067 -0.607283
-0.174862 -0.706853 0.256701
-0.640850 -0.745545 -0.148298
-0.646657 -0.276135 0.300974
-0.169236 0.639125 0.737482
-0.611255 0.180316 0.754250
-0.580619 0.135364 -0.140963
-0.657194 -0.350968 -0.622123
0.312514 -0.266249 0.273458
-0.169505 0.637788 0.735095
-0.175739 -0.704754 0.255934
-0.656326 -0.349438 -0.622518
0.745864 0.144798 -0.649658
-0.640076 -0.748129 -0.146773
-0.176567 -0.707085 0.255712
-0.164863 -0.738688 -0.608546
-0.169279 -0.260503 0.739732
-0.175762 -0.705455 0.256098
0.696624 0.579576 -0.148283
0.287238 -0.740386 -0.176978
0.310528 -0.288582 -0.614214
0.289615 -0.742808 -0.175046
0.695554 0.579993 -0.149089
0.304307 0.599173 -0.646989
0.312701 -0.265283 0.273123
-0.176527 -0.706317 0.256852
-0.615305 0.600289 0.280793
-0.612202 0.177698 0.754080
-0.610066 0.177368 0.756454
0.299469 0.629495 0.336606
-0.656414 -0.350396 -0.622123
0.695981 0.577515 -0.149606
-0.646161 -0.275385 0.300143
0.302211 0.169908 0.762227
0.747862 -0.259565 -0.171569
-0.609794 0.177818 0.755562
-0.196272 0.143479 -0.647707
0.306170 0.601644 -0.646652
-0.167808 -0.259860 0.740202
0.305191 -0.288215 -0.614872
-0.639401 -0.747645 -0.147289
0.746237 0.143827 -0.648710
0.301825 0.169702 0.766482
-0.169075 -0.259096 0.740743
-0.146243 0.630648 -0.160521
0.311333 -0.266320 0.270415
-0.175232 -0.705156 0.255176
-0.578493 0.135762 -0.141597
-0.168496 -0.258367 0.739582
0.305795 -0.287835 -0.614297
0.696828 0.578785 -0.147710
0.312604 -0.266316 0.271081
-0.640169 -0.749117 -0.148481
-0.657312 -0.350636 -0.622768
-0.617752 0.600186 0.281852
-0.168601 -0.259675 0.740530
-0.169807 -0.258908 0.738825
-0.170267 -0.260433 0.740942
0.305929 0.599152 -0.643947
0.300295 0.628519 0.335372
-0.168500 -0.259352 0.740213
0.299984 0.626890 0.335071
-0.639899 -0.747738 -0.147415
-0.169283 -0.260955 0.739133
-0.145617 0.629262 -0.161353
0.299338 0.629506 0.334965
0.286332 -0.739317 -0.177372
-0.638587 -0.746714 -0.148979
-0.644742 -0.275773 0.301008
0.305301 0.601359 -0.647814
0.288131 -0.740072 -0.177133
0.307931 -0.288554 -0.615187
-0.194721 0.144995 -0.645800
-0.168226 -0.257776 0.741135
-0.612776 0.177191 0.755630
-0.194592 0.142683 -0.645279
0.313374 -0.266381 0.273217
0.288323 -0.741764 -0.176245
0.301688 0.627753 0.336208
-0.168199 0.638643 0.736428
-0.647150 -0.272923 0.301507
0.287986 -0.741315 -0.175727
-0.617550 0.599936 0.281585
0.306409 -0.291400 -0.614372
-0.609050 0.176832 0.755619
0.697398 0.577901 -0.148789
0.306891 -0.289521 -0.615826
0.312305 -0.264294 0.271687
-0.656203 -0.350545 -0.622629
-0.617406 0.597239 0.282254
0.300078 0.628331 0.335683
0.301066 0.170061 0.764256
0.695314 0.577211 -0.148223
-0.609497 0.177229 0.755128
-0.175759 -0.707234 0.255952
-0.640117 -0.746346 -0.148218
0.307125 -0.290700 -0.617267
-0.165146 -0.737874 -0.606015
-0.194373 0.143004 -0.646431
0.307076 -0.289781 -0.614535
-0.195819 0.143665 -0.645992
-0.641169 -0.746903 -0.148941
-0.176192 -0.706446 0.256808
-0.639588 -0.746716 -0.148507
-0.616529 0.599267 0.282597
0.746478 -0.260093 -0.172052
-0.647954 -0.273862 0.299719
0.300990 0.628343 0.335643
0.696533 0.579269 -0.147618
0.311823 -0.266714 0.271209
0.765526 0.189566 0.290420
0.312388 -0.266954 0.272791
