OFF
256 0 0
0.686955 0.228900 0.229766
-0.690256 -0.688752 -0.228794
0.688959 0.230525 -0.688346
0.229116 0.687341 -0.686881
0.229145 0.687432 0.229264
0.229519 -0.688399 -0.228368
-0.230033 -0.686311 -0.688077
-0.230451 -0.689817 -0.685764
-0.688304 -0.229572 0.228736
-0.688658 0.229088 0.689380
0.228659 0.687850 -0.689391
0.228212 -0.229266 -0.687207
-0.687868 0.228740 -0.228729
-0.690549 0.689209 0.230241
-0.228964 0.687068 0.689712
-0.228806 0.687190 0.689659
0.687880 -0.228869 0.689240
-0.229225 0.687513 -0.228255
0.228120 -0.687903 -0.230194
0.229422 -0.688860 0.687247
-0.230647 0.688465 0.687208
-0.689574 0.229725 -0.230251
-0.228554 0.686747 0.687376
-0.688764 -0.689218 -0.228025
-0.690738 -0.230691 -0.688285
0.230728 -0.689809 0.688057
0.687896 -0.229218 -0.228781
0.228298 -0.227551 -0.688231
0.688945 -0.230125 -0.230398
-0.689435 0.230582 -0.229012
0.229822 -0.687266 0.689170
-0.229700 0.688470 -0.228298
-0.688417 0.231035 0.689576
0.688806 0.687351 -0.227930
-0.688426 -0.230604 0.229345
-0.687972 -0.686935 -0.228129
0.687312 -0.228424 -0.228736
0.687656 0.229519 -0.690348
0.230589 0.230053 0.688895
-0.229601 -0.686323 -0.687019
-0.686378 0.230998 0.687621
0.231389 0.689327 -0.687365
0.229102 -0.229145 -0.688750
-0.228492 0.228311 -0.688335
0.228355 -0.229156 -0.689477
0.231168 -0.688234 0.688093
-0.229165 -0.688335 -0.688313
-0.229093 -0.688510 0.229810
0.230622 0.228245 0.688300
0.689308 0.229757 0.228712
-0.228812 0.688911 -0.229605
0.228038 0.228019 0.687318
-0.230152 0.687660 0.686373
0.688264 0.230034 -0.687378
0.687535 0.690542 -0.228867
0.228098 -0.689122 0.687371
-0.688759 0.688484 0.229495
0.688124 0.230441 0.230413
-0.228280 -0.229994 0.687912
-0.687628 -0.228930 0.228473
0.228756 0.688007 0.229363
-0.686818 0.687372 0.230497
0.229695 0.686490 0.229669
0.687119 0.229903 0.228709
-0.688821 0.230590 0.687908
0.229443 -0.688025 -0.229870
0.229073 -0.688845 -0.229449
-0.228038 0.689498 0.688796
-0.231985 0.230278 -0.688311
0.688514 -0.230124 0.688826
0.227348 -0.686568 0.686756
0.230105 -0.228650 -0.687218
0.687987 0.688515 -0.229659
-0.686044 -0.230095 -0.688580
-0.687612 -0.228563 0.229202
0.229488 0.687532 -0.690002
-0.230585 -0.688284 -0.688186
0.229687 -0.687693 0.689358
0.688733 0.228227 0.229169
-0.687404 0.689622 0.230336
-0.688743 -0.685527 -0.227950
-0.689015 -0.230189 0.229553
0.687423 -0.228596 -0.229212
-0.229413 0.688524 -0.229703
-0.688408 0.228791 -0.229942
-0.228267 -0.229736 0.688578
-0.689150 0.228413 0.688069
0.689013 0.689147 -0.227267
0.687353 0.688761 -0.228436
-0.229405 0.687684 0.687141
-0.689434 -0.688867 -0.228884
0.687925 0.230518 0.230260
-0.230561 0.686109 -0.228299
0.687569 -0.229604 -0.227650
-0.229088 0.690001 -0.229175
0.688522 -0.230790 0.688565
0.687380 0.229477 0.231683
0.689205 0.229559 0.226663
-0.686869 -0.227887 0.230602
0.229861 0.688585 0.229742
0.229356 0.229853 0.688240
0.687966 0.229878 -0.686950
-0.228551 0.230067 -0.687436
0.228504 -0.689732 -0.229740
-0.688915 -0.230582 -0.688573
-0.228514 0.228323 -0.688775
0.229758 0.685782 0.229187
-0.688831 -0.228831 -0.687585
0.229568 0.688053 0.228807
-0.229308 -0.687842 0.228393
-0.688175 -0.689541 -0.230356
-0.688166 -0.687889 -0.227712
0.687279 0.688391 -0.228650
-0.688118 -0.230096 -0.689290
-0.229696 0.687110 -0.230723
0.229746 0.229653 0.686434
0.228232 0.230025 0.687260
-0.689102 -0.229385 -0.687920
-0.229271 -0.688869 0.228392
0.687357 0.229955 -0.690111
-0.687182 -0.229932 -0.688488
0.229943 -0.687904 0.687536
0.229314 0.228853 0.688588
0.228899 -0.230435 -0.688316
-0.688878 -0.229923 0.228911
-0.229567 -0.229643 0.686859
-0.689181 0.687078 0.230224
0.686682 -0.230217 0.688942
-0.686947 0.688764 0.229728
-0.229932 -0.229154 0.689540
-0.229374 -0.227941 0.687860
0.230768 -0.230003 -0.690131
0.229726 0.687726 -0.687144
0.687541 0.687588 -0.228483
0.229186 -0.686181 0.689860
-0.229904 0.687042 0.687979
-0.228637 -0.230492 0.687956
0.687996 0.230041 -0.689451
-0.690166 -0.688385 -0.231207
0.687819 0.228448 -0.687307
-0.228548 0.688830 0.688749
0.230316 -0.229414 -0.688515
0.228301 -0.231818 -0.687669
-0.230176 -0.228763 0.689742
-0.229177 -0.688367 0.229439
0.687067 -0.230176 -0.227548
0.686644 -0.228859 0.687436
0.686877 -0.228172 -0.230329
0.688418 -0.228543 -0.228367
0.688997 0.228857 0.230904
0.227728 -0.231337 -0.690418
-0.687752 -0.688241 -0.229271
-0.228072 0.688693 -0.229347
-0.688480 0.687790 0.227844
0.229181 -0.228732 -0.687608
-0.229168 0.687388 0.687736
-0.228498 0.686665 0.690006
-0.229489 0.689605 0.688572
-0.229553 0.688369 -0.229083
0.687796 -0.687482 0.228291
0.686948 -0.230661 0.687216
-0.229075 -0.688774 0.228520
0.686685 0.229992 -0.688764
-0.687126 -0.230096 -0.688202
-0.687518 -0.229011 -0.688240
0.229099 0.689194 0.229112
0.229022 0.688668 -0.687848
0.687456 0.687310 -0.229276
0.229514 -0.229250 -0.687946
0.687819 -0.229000 0.687546
-0.689526 0.687316 0.228160
0.227874 0.229065 0.687731
-0.690024 -0.229906 0.227801
0.688987 0.228639 0.227305
0.228728 -0.688168 0.687842
-0.228103 -0.688104 -0.689455
0.229299 -0.686580 -0.229588
0.686300 -0.228856 0.688764
-0.687165 0.690096 0.229449
0.230100 -0.687152 -0.229365
-0.228169 -0.229873 0.688103
-0.229279 0.688429 0.687608
-0.687181 -0.228650 -0.688230
0.688795 0.687712 -0.228284
0.230495 -0.687900 0.688589
0.228991 0.688675 0.229178
-0.687807 0.230964 0.689377
-0.687576 0.230341 -0.230422
0.688019 0.229437 0.230107
-0.229092 -0.690065 -0.688759
0.229570 0.688712 -0.688614
0.689697 -0.686114 0.229748
0.230120 -0.689659 0.688192
0.688806 0.688323 -0.229103
0.687719 -0.687605 0.228891
-0.230285 0.228497 -0.687683
0.686468 -0.687473 0.229739
-0.687879 -0.230250 -0.687041
0.228874 0.689506 -0.688961
0.687258 -0.228489 0.690286
-0.228497 -0.688025 -0.686843
0.229939 -0.230311 -0.687555
-0.690444 -0.230826 0.229582
0.228762 -0.688135 0.688853
0.227522 0.229165 0.689094
0.230497 -0.687985 0.687779
0.688526 0.687494 -0.229527
0.228545 -0.688096 0.687904
0.229804 -0.687846 0.687397
-0.229740 -0.687735 -0.688840
0.229685 -0.230224 -0.690299
-0.227544 -0.689903 -0.688553
0.229838 0.229953 0.690037
-0.687721 0.230344 0.687303
0.687825 -0.228779 0.686723
0.229933 -0.229710 -0.688513
0.688224 0.229608 0.228297
0.687196 0.688346 -0.229542
-0.230825 -0.689096 -0.687392
0.231330 0.228699 0.688385
-0.690157 0.687024 0.230752
0.227935 -0.686006 0.687606
0.229805 -0.687781 0.690438
0.228050 0.689172 0.229016
-0.689319 -0.687747 -0.230550
0.227487 0.687043 -0.689335
0.688308 0.229009 -0.688685
-0.230207 0.689534 -0.230286
0.688109 -0.689356 0.228429
0.228055 0.228458 0.690224
0.686766 -0.230460 -0.228796
-0.689109 -0.228454 0.229819
-0.229435 -0.687406 0.229580
0.228268 0.229274 0.689926
-0.688400 0.689516 0.229044
-0.228648 -0.228979 0.688030
-0.687569 -0.230817 0.228101
-0.229857 -0.688022 -0.689633
0.230536 -0.689253 0.688416
-0.229878 -0.229220 0.689800
-0.688450 -0.686678 -0.229245
-0.686797 -0.685992 -0.229761
-0.687344 0.687998 0.229732
0.687818 -0.230085 -0.229174
-0.229895 0.227927 -0.686630
0.229422 -0.228869 -0.688223
-0.227153 0.228532 -0.687201
-0.688580 -0.688443 -0.227325
-0.687969 0.230543 0.687119
-0.687788 0.229469 -0.228387
-0.689875 -0.687394 -0.229672
-0.227836 -0.687551 -0.686623
0.229624 -0.688043 0.690157
-0.230265 -0.230435 0.688588
-0.689637 0.688132 0.229249
-0.229044 0.689436 -0.230315
