OFF
256 0 0
-0.638051 -0.227364 -0.635495
-0.202631 0.656148 -0.173588
-0.636535 -0.228324 -0.635312
-0.631011 0.196848 0.649274
0.235042 0.659736 0.228908
0.238417 0.659687 0.229416
-0.203195 0.631652 0.655149
-0.680033 -0.702294 -0.211911
-0.192822 -0.654490 0.203782
-0.205370 0.630670 0.655212
0.633424 -0.160286 -0.220884
0.634594 -0.162357 -0.220749
-0.202636 0.657667 -0.172235
0.221676 -0.233521 -0.703178
0.194393 0.669536 -0.629376
0.214188 0.238478 0.654651
-0.680679 -0.700091 -0.211987
-0.215887 0.220010 -0.666437
0.215109 0.238249 0.655316
0.196014 0.669183 -0.632273
-0.216284 0.218161 -0.665982
0.635954 0.205305 0.220380
-0.213970 -0.216663 0.643028
-0.638300 -0.228224 -0.638301
0.219880 -0.232445 -0.704263
-0.214175 -0.216108 0.642394
-0.252181 -0.663905 -0.631079
0.653516 0.666475 -0.225101
-0.214583 0.220351 -0.666062
-0.631515 0.197637 0.648990
-0.202762 0.630450 0.654260
0.634702 -0.160489 -0.219773
0.213560 0.237970 0.655008
0.643267 -0.622016 0.219712
0.235292 -0.633514 0.629595
0.634624 0.208177 0.221316
0.236450 0.660170 0.229749
-0.631450 0.197712 0.649321
0.196345 0.670854 -0.628714
0.235334 0.660108 0.231328
-0.636793 -0.228955 -0.636582
-0.253427 -0.666188 -0.629666
0.235285 -0.631582 0.625871
-0.252793 -0.665800 -0.631781
-0.664791 -0.248369 0.201254
0.215274 0.240334 0.654736
0.235998 0.661342 0.229672
-0.679645 -0.702579 -0.212952
0.219742 -0.655130 -0.230947
0.651631 0.219952 -0.661605
-0.214147 -0.216583 0.642647
0.653230 0.219697 -0.659905
-0.215422 0.219339 -0.666745
0.234538 0.659957 0.232198
-0.214956 0.219097 -0.664916
0.650227 0.220049 -0.660153
0.650002 -0.190706 0.667032
0.234993 0.660262 0.232086
0.220404 -0.233950 -0.703588
0.215972 0.240200 0.653124
0.234576 0.659421 0.230522
0.633360 -0.159088 -0.219147
-0.679148 -0.702995 -0.212468
0.220323 -0.231235 -0.702778
-0.635902 -0.228199 -0.637409
-0.212301 -0.215105 0.642018
0.220056 -0.653077 -0.230365
0.636746 0.203763 0.219861
0.235952 -0.634916 0.628968
-0.666782 0.624243 0.222306
0.635123 -0.160118 -0.220338
0.234843 -0.634786 0.626499
-0.636773 -0.231036 -0.637483
-0.663412 -0.248884 0.202932
0.237922 0.661606 0.230060
0.219247 -0.652809 -0.230664
-0.679263 -0.701034 -0.215596
-0.252792 -0.665265 -0.630465
-0.636969 -0.227069 -0.636513
-0.663647 -0.246527 0.201546
0.219613 -0.653568 -0.229153
0.235977 -0.633539 0.628137
0.652423 0.666259 -0.225481
0.196324 0.670780 -0.630516
0.645043 -0.622613 0.220683
0.652861 0.665307 -0.225163
0.215145 0.237489 0.656450
0.649409 -0.192041 0.668049
-0.252804 -0.664989 -0.630167
-0.213866 -0.216270 0.642265
0.215079 0.236932 0.652719
0.652260 0.219633 -0.659056
-0.630378 0.196101 0.649263
-0.194728 -0.654921 0.203935
-0.203479 0.658664 -0.175478
0.197727 0.669548 -0.630523
-0.252095 -0.663832 -0.629355
0.236176 -0.632437 0.627987
0.652021 0.667507 -0.227026
0.219192 -0.655827 -0.231190
-0.663381 -0.246062 0.202058
0.220619 -0.652123 -0.230778
0.218421 -0.653657 -0.231003
-0.204374 0.656737 -0.175627
-0.202563 0.631823 0.653982
-0.252375 -0.665233 -0.629507
0.654051 0.666098 -0.227708
0.193846 0.671738 -0.630222
-0.629967 0.195797 0.648324
-0.669503 0.621290 0.222318
-0.203923 0.631021 0.657498
0.234259 0.658827 0.229645
-0.630414 0.197920 0.650215
0.236686 0.660872 0.231321
-0.630191 0.195824 0.648257
-0.213330 0.219175 -0.665815
-0.663737 -0.246937 0.201071
0.236073 -0.633719 0.627061
-0.664143 -0.246866 0.201790
0.222840 -0.232166 -0.705166
-0.252907 -0.665435 -0.629817
-0.192000 -0.656028 0.205509
0.633192 -0.160424 -0.219781
0.216815 -0.653888 -0.231438
-0.251255 -0.664078 -0.631178
0.643977 -0.622171 0.218664
0.649859 -0.191008 0.669904
0.217934 -0.654649 -0.232351
0.645303 -0.621362 0.220952
-0.192660 -0.654744 0.205727
-0.679783 -0.700158 -0.212355
0.233934 -0.632884 0.628210
-0.202236 0.630068 0.654370
0.219485 -0.652981 -0.231300
-0.679382 -0.701300 -0.212377
-0.669823 0.621570 0.220768
0.650064 -0.191473 0.669267
-0.204518 0.657544 -0.176496
-0.664098 -0.246881 0.202114
-0.668496 0.622459 0.221415
0.645466 -0.622114 0.218177
0.642588 -0.622532 0.218507
0.646108 -0.621795 0.222158
0.218662 -0.654437 -0.230755
-0.203045 0.631431 0.655564
-0.680155 -0.701794 -0.212629
-0.664001 -0.247425 0.201633
0.651161 0.665488 -0.227040
-0.215933 0.218319 -0.666538
0.219163 0.239357 0.654941
0.642932 -0.622191 0.221149
-0.193306 -0.655104 0.202992
-0.665703 -0.247223 0.201616
0.635358 0.206792 0.219288
-0.627926 0.220863 -0.205886
0.219392 -0.654115 -0.231935
0.235508 0.660389 0.230619
0.219753 -0.652074 -0.230145
-0.629396 0.197145 0.649594
0.235706 0.659661 0.231505
-0.202125 0.632006 0.655459
0.234206 0.661121 0.232111
-0.663398 -0.247152 0.202787
-0.252277 -0.665489 -0.629447
0.236731 -0.633761 0.626619
0.193881 0.669514 -0.631587
-0.205154 0.657769 -0.173863
0.195089 0.670269 -0.628842
-0.679009 -0.701120 -0.213797
-0.192383 -0.655282 0.206326
0.213384 0.240939 0.655222
0.214872 0.239132 0.654074
0.654648 0.665528 -0.226518
-0.201001 0.632614 0.654495
0.218826 -0.652828 -0.231065
0.649734 -0.190168 0.668302
-0.215205 -0.215057 0.643826
-0.631239 0.196167 0.648456
0.643578 -0.623616 0.219890
0.237730 -0.633226 0.626936
0.636254 0.206657 0.221004
0.653096 0.221406 -0.660928
-0.214122 0.216907 -0.666722
-0.202320 0.657827 -0.173236
0.235273 0.661052 0.231144
0.218879 -0.653470 -0.232362
-0.192662 -0.656103 0.204419
0.653136 0.220359 -0.660333
0.217833 -0.653831 -0.231499
-0.251365 -0.665851 -0.630444
0.196688 0.670141 -0.631228
-0.212286 -0.215706 0.642713
-0.212288 -0.215096 0.644050
-0.214346 -0.216472 0.643330
0.234324 0.660482 0.229719
0.236527 -0.633270 0.629353
0.215675 0.240197 0.653465
0.652610 0.664673 -0.225351
-0.662669 -0.247901 0.203076
0.652180 0.663900 -0.227273
-0.627042 0.219669 -0.207159
0.652762 0.220570 -0.659989
0.635677 0.205340 0.220085
-0.635354 -0.228668 -0.635557
0.633608 -0.158490 -0.221760
-0.664760 -0.248201 0.201897
-0.213467 -0.216088 0.643687
0.633822 -0.160919 -0.220636
-0.214624 0.217826 -0.668300
0.653236 0.665894 -0.226471
-0.629502 0.196834 0.649832
0.236115 -0.634303 0.629801
-0.193510 -0.654881 0.205215
-0.202751 0.658791 -0.173772
-0.637093 -0.228435 -0.637291
0.648880 -0.188797 0.669269
0.235996 0.659579 0.231155
-0.627462 0.219203 -0.205769
0.636107 0.205803 0.220581
0.634600 -0.159861 -0.221071
-0.627384 0.219296 -0.204155
-0.636590 -0.228828 -0.637487
-0.667768 0.621838 0.220520
-0.632018 0.196260 0.649989
-0.662631 -0.246662 0.201432
-0.204320 0.658657 -0.174539
-0.203903 0.632149 0.655632
0.234976 0.659833 0.232689
0.644272 -0.623342 0.219028
-0.201465 0.631785 0.654621
-0.630373 0.197311 0.648770
-0.192687 -0.653691 0.205208
-0.628798 0.221027 -0.205751
0.219100 -0.653467 -0.232122
-0.629414 0.195638 0.651203
-0.204573 0.630504 0.655987
0.635336 0.207777 0.219574
-0.214855 -0.214466 0.643902
0.236082 -0.633046 0.628501
-0.192083 -0.655480 0.204551
-0.203121 0.659373 -0.174584
0.235124 0.660752 0.230884
0.196349 0.668397 -0.630282
0.234333 -0.634579 0.629047
0.637900 0.205224 0.219840
-0.679419 -0.701844 -0.212137
-0.251299 -0.666452 -0.630564
0.653377 0.667821 -0.226473
-0.214340 0.217712 -0.667584
0.636343 0.205857 0.219702
-0.191531 -0.652664 0.205338
0.194976 0.670355 -0.629945
-0.194134 -0.656638 0.204399
0.215902 0.238411 0.653024
-0.203318 0.659186 -0.172097
-0.636265 -0.227904 -0.635446
