OFF
256 0 0
0.153663 -0.742117 -0.303683
-0.759839 0.631732 0.158152
0.154876 -0.739763 -0.306146
0.171220 0.632074 -0.739348
-0.300043 0.582702 0.558568
0.172363 -0.285011 -0.749209
0.622485 0.156568 0.151210
0.611441 -0.291037 -0.271478
0.195928 0.157477 0.620766
0.637012 -0.308255 0.610887
0.153888 -0.738153 -0.305564
0.609917 -0.291530 -0.271086
0.170298 0.629868 -0.739875
0.154553 -0.742733 -0.306608
0.170455 0.631158 -0.737434
0.150294 -0.752417 0.633972
-0.281544 -0.739091 0.142808
0.153538 -0.741497 -0.305743
0.195545 0.158519 0.621555
0.611168 -0.291309 -0.270759
-0.786698 -0.295514 0.176067
0.623576 -0.750358 0.155661
-0.749917 0.166708 0.594076
0.152027 -0.753519 0.634290
0.609764 -0.289543 -0.272642
0.170533 0.631505 -0.738315
0.610010 -0.289112 -0.271086
-0.281353 -0.279067 0.595280
-0.786200 -0.295784 0.178192
-0.283941 -0.736849 0.143207
-0.281625 -0.277481 0.596503
0.162803 0.630335 0.176693
0.638194 -0.309745 0.612616
-0.283125 0.604944 -0.249023
0.595849 0.618251 -0.282084
0.161947 0.629453 0.176021
0.154694 -0.740837 -0.303860
-0.787278 -0.296968 0.178429
-0.785923 -0.295282 0.178481
0.623222 0.155492 0.151077
-0.750678 0.161777 0.593330
0.194643 0.157849 0.620068
0.194643 0.157258 0.618207
-0.282211 -0.276938 0.598513
0.172419 -0.287185 -0.749003
-0.299290 0.580501 0.560127
-0.299834 0.580881 0.560244
-0.751412 0.163030 0.595858
0.620806 -0.750493 0.157560
-0.283060 -0.276838 0.598491
0.623151 0.156876 0.150800
-0.733633 0.155111 -0.285535
-0.758683 0.631779 0.159098
-0.299388 0.579915 0.558934
-0.281896 0.602252 -0.250150
-0.785256 -0.295631 0.178520
0.175193 -0.286082 -0.747771
-0.785536 -0.294582 0.177260
0.197959 0.157703 0.619077
-0.273210 0.172802 -0.734236
-0.753058 0.164566 0.594564
0.636513 -0.306964 0.612410
-0.786244 -0.295095 0.177608
-0.299741 0.581209 0.562088
-0.733791 0.156080 -0.283902
-0.282544 -0.740357 0.144093
0.609643 -0.288897 -0.269399
0.196392 0.157391 0.620981
0.593000 0.615708 -0.284436
-0.752295 0.162941 0.594435
0.621922 -0.752193 0.155998
-0.751788 0.165514 0.591285
0.169464 0.631602 -0.738278
0.173673 -0.287821 -0.749056
0.155262 -0.742565 -0.306063
0.155162 -0.741225 -0.307599
0.195885 0.158572 0.620126
-0.275290 0.172402 -0.733879
-0.279309 -0.276988 0.596232
-0.281380 -0.278706 0.596597
0.153812 -0.752162 0.633776
-0.281224 -0.739257 0.144407
0.174927 -0.285915 -0.747953
0.622810 0.157121 0.152332
0.197151 0.156738 0.619447
0.153149 -0.753224 0.633296
-0.751068 0.164278 0.594430
-0.753184 0.164338 0.593211
-0.282009 -0.277601 0.595321
-0.244298 -0.245026 -0.251747
-0.282440 0.603152 -0.249172
0.637570 -0.310115 0.611404
0.604322 0.186626 -0.715302
-0.281407 -0.738545 0.144986
-0.786020 -0.296531 0.177086
0.594754 0.618280 -0.282578
0.610363 -0.291454 -0.270495
0.623470 0.156652 0.152156
0.173916 -0.284801 -0.747323
0.173243 -0.286906 -0.749461
0.624448 0.156829 0.151659
0.152984 -0.740401 -0.304326
-0.735087 0.155757 -0.283209
-0.276120 0.171189 -0.733687
0.152655 -0.742132 -0.307155
0.624064 -0.751946 0.156228
-0.786873 -0.295186 0.178874
0.154125 -0.753530 0.633247
0.154690 -0.751104 0.634554
0.154465 -0.740179 -0.304524
0.604372 0.185073 -0.715913
-0.281650 -0.277640 0.598316
-0.281697 -0.738888 0.144337
-0.275207 0.171018 -0.734102
0.605541 0.184769 -0.716497
-0.786465 -0.299334 0.178550
-0.282779 0.602944 -0.250791
0.170500 0.632299 -0.739648
-0.761752 0.631995 0.157563
0.637117 -0.306236 0.613307
-0.284520 0.602506 -0.248410
-0.245728 -0.245086 -0.251950
0.174550 -0.285214 -0.749427
0.151792 -0.741506 -0.305489
-0.248661 -0.244209 -0.253146
-0.785843 -0.296817 0.178164
-0.784444 -0.297624 0.177447
0.162211 0.628853 0.177136
-0.280726 -0.276070 0.598627
0.196990 0.155354 0.621290
0.624815 0.156542 0.149766
-0.785025 -0.296259 0.176562
-0.282998 0.604327 -0.248855
-0.785942 -0.295892 0.176739
-0.787305 -0.294609 0.179122
-0.750347 0.166030 0.592245
-0.280786 -0.275665 0.598175
0.595466 0.618149 -0.282501
0.154568 -0.740521 -0.304404
-0.282843 -0.278217 0.596622
0.604114 0.184410 -0.715982
0.152396 -0.752000 0.635177
-0.759447 0.631491 0.158709
0.152959 -0.752857 0.634834
0.168972 0.630663 -0.738055
0.606764 0.184402 -0.713687
-0.275125 0.172183 -0.735284
-0.298864 0.583513 0.562357
0.163291 0.630725 0.176472
-0.759451 0.631899 0.158497
-0.785877 -0.296734 0.179195
0.154984 -0.740133 -0.306209
0.636358 -0.310593 0.609723
-0.281953 -0.741232 0.144619
0.160680 0.628605 0.176728
-0.750524 0.164753 0.593537
-0.248822 -0.245703 -0.253695
0.174303 -0.284903 -0.747098
0.153038 -0.754103 0.630035
0.622405 -0.753045 0.155705
-0.283603 -0.738967 0.143236
0.623351 -0.751400 0.154926
0.171663 0.631774 -0.738893
-0.281576 -0.277601 0.597171
-0.280335 -0.277915 0.596372
0.608630 -0.290535 -0.269317
-0.280163 -0.278325 0.597267
-0.300592 0.581751 0.560382
0.170447 0.630614 -0.739555
-0.283875 0.604132 -0.247501
-0.786729 -0.296830 0.177978
0.604138 0.184999 -0.714242
0.153427 -0.742656 -0.305769
0.170004 0.630934 -0.737857
0.606549 0.184112 -0.715437
0.173387 -0.285825 -0.747330
0.596156 0.616976 -0.281385
0.621834 0.158478 0.150223
0.169753 0.627970 -0.738957
-0.245505 -0.245080 -0.251926
0.634492 -0.308684 0.611271
0.609985 -0.289906 -0.270366
-0.283150 0.602910 -0.250151
-0.757646 0.630197 0.157736
-0.299537 0.582647 0.560052
-0.751391 0.164888 0.593534
-0.786130 -0.296472 0.177153
-0.280155 -0.278820 0.599010
-0.301464 0.583543 0.557595
0.173447 -0.285978 -0.748300
-0.734422 0.156115 -0.283396
0.593156 0.618183 -0.279539
-0.757900 0.631473 0.158109
0.152832 -0.754897 0.635380
-0.300584 0.581667 0.558216
-0.786674 -0.295171 0.178355
0.622313 -0.752228 0.155396
0.609087 -0.290458 -0.271773
0.153947 -0.741168 -0.305114
-0.760036 0.629531 0.159792
0.605392 0.185043 -0.715038
0.172420 -0.284680 -0.747790
-0.786772 -0.294615 0.177311
-0.283424 -0.740883 0.144261
0.608576 -0.289217 -0.272017
0.604647 0.184054 -0.714844
0.173034 -0.286690 -0.747849
-0.786667 -0.295486 0.178667
-0.299532 0.582508 0.560808
-0.282571 0.602952 -0.248776
-0.280553 -0.277779 0.596926
0.604637 0.184289 -0.714083
0.154107 -0.738941 -0.305838
-0.300386 0.579718 0.560424
-0.750977 0.164615 0.594632
-0.750323 0.165216 0.593308
0.638418 -0.308778 0.612046
0.604570 0.183251 -0.713752
-0.786390 -0.295569 0.177980
0.160969 0.630834 0.177249
-0.751013 0.162221 0.593629
0.621576 -0.749328 0.155872
0.153367 -0.751240 0.634547
-0.282561 0.603226 -0.249314
0.609991 -0.290866 -0.271298
-0.274288 0.171553 -0.733151
-0.282446 -0.737404 0.144132
0.637817 -0.310942 0.611282
0.170640 0.629126 -0.738406
-0.245587 -0.245374 -0.253145
0.609465 -0.291446 -0.271999
-0.751845 0.165275 0.592192
0.608983 -0.290092 -0.269123
-0.736463 0.157434 -0.283382
0.608994 -0.289423 -0.269776
-0.750358 0.165279 0.592269
-0.284402 -0.737499 0.143791
0.195778 0.158618 0.618717
-0.298564 0.582192 0.559646
-0.734008 0.157097 -0.283345
-0.759158 0.629505 0.160180
0.194575 0.158398 0.619267
0.622918 0.156166 0.152544
-0.247378 -0.243513 -0.252315
0.605533 0.183800 -0.715309
0.608525 -0.289923 -0.271732
0.610378 -0.291606 -0.271398
-0.247811 -0.243569 -0.252662
0.195710 0.159321 0.621802
0.163882 0.629166 0.176840
0.174842 -0.284387 -0.749187
0.153619 -0.740800 -0.304147
-0.247208 -0.243098 -0.252682
0.609236 -0.289868 -0.269669
0.620979 -0.751953 0.155034
0.161824 0.631549 0.175500
