OFF
256 0 0
0.283692 -0.739544 -0.155688
-0.599307 -0.752272 -0.156076
-0.602816 -0.752093 -0.154728
0.693556 0.167092 0.300045
0.262452 0.624297 -0.622281
-0.148639 0.620777 -0.168735
-0.162218 -0.725595 0.262013
0.694100 0.167530 0.299489
0.269822 0.184509 0.731111
0.279976 0.612886 0.269746
0.740605 0.159190 -0.621096
-0.165431 0.145767 -0.589879
-0.599617 -0.751587 -0.154839
-0.157981 0.584729 0.759645
0.261849 0.625685 -0.624803
-0.600242 0.159456 -0.155638
0.261138 0.625373 -0.621557
-0.598218 -0.751266 -0.154015
0.286200 -0.273640 0.235013
-0.149713 -0.725852 -0.597308
-0.162361 -0.725683 0.263385
0.285146 -0.274383 0.236470
0.285896 -0.275140 0.236077
-0.157500 0.587739 0.762424
0.739370 0.157112 -0.618685
0.695733 0.167179 0.299375
-0.165563 0.145728 -0.588430
-0.598914 0.611019 0.312032
-0.148157 -0.725335 -0.597385
-0.600417 0.158389 -0.156717
0.740481 0.156143 -0.620181
-0.613914 -0.310565 -0.570108
-0.620409 0.164630 0.726192
0.748999 0.635474 -0.193512
-0.616567 -0.310655 -0.567340
-0.149375 0.619876 -0.169083
0.280394 0.613491 0.269775
0.271061 0.185199 0.732421
0.268671 0.185331 0.731557
0.283955 -0.738695 -0.158399
0.740348 0.156130 -0.620110
-0.620015 0.162764 0.724781
-0.626032 -0.301486 0.295939
-0.165224 0.144510 -0.589598
0.268965 0.184591 0.731425
0.260209 0.625626 -0.624990
0.740627 0.157560 -0.619268
0.730460 -0.278702 -0.143578
0.285529 -0.739033 -0.157347
-0.600074 -0.751365 -0.154482
0.303873 -0.293332 -0.627057
0.740367 0.157461 -0.620548
0.285343 -0.739846 -0.158026
0.738807 0.156816 -0.620627
-0.148157 0.620090 -0.166991
-0.625308 -0.302841 0.295466
-0.158961 -0.264907 0.704140
0.260401 0.625576 -0.624001
-0.165077 0.146725 -0.587384
-0.616090 -0.311138 -0.570575
-0.160903 -0.728266 0.262918
0.285574 -0.739453 -0.156928
-0.599304 0.610577 0.312348
-0.599234 0.612009 0.310286
-0.164451 0.145047 -0.589851
0.262579 0.625104 -0.624016
-0.160071 -0.265141 0.704055
0.285322 -0.276764 0.235440
0.285972 -0.738635 -0.156312
0.303931 -0.293656 -0.626371
-0.161894 -0.723950 0.263411
-0.149309 -0.725393 -0.598090
-0.159943 -0.266799 0.701632
0.304877 -0.294538 -0.626160
0.748137 0.634516 -0.191228
0.284599 -0.739871 -0.157897
0.285484 -0.277294 0.235708
0.302746 -0.292821 -0.625287
-0.159867 -0.726496 0.263082
0.261285 0.623851 -0.624730
-0.158784 0.587160 0.758544
-0.620780 0.163230 0.726464
-0.148366 -0.724047 -0.597346
-0.618777 0.163391 0.725426
0.271259 0.186095 0.733147
0.260642 0.623943 -0.625506
-0.626910 -0.302809 0.294127
-0.158401 0.586404 0.761366
-0.599813 0.157142 -0.156670
-0.163736 0.144838 -0.591224
-0.161297 -0.725141 0.262777
-0.626419 -0.301894 0.295769
0.270092 0.185034 0.733601
-0.601505 -0.751611 -0.154507
0.286577 -0.274949 0.236407
0.283510 -0.740258 -0.157853
-0.160070 -0.262393 0.703125
0.732481 -0.277197 -0.143044
0.278807 0.612929 0.268996
-0.160177 -0.265112 0.704536
-0.601440 -0.753895 -0.155782
-0.162197 -0.724728 0.262533
0.696230 0.165057 0.298995
0.301742 -0.295142 -0.626489
-0.164153 0.145147 -0.587612
0.280604 0.611481 0.271025
0.730047 -0.277908 -0.142540
0.748796 0.635349 -0.191374
0.750214 0.634693 -0.190670
0.260769 0.626241 -0.623401
-0.159882 -0.266539 0.701716
-0.615823 -0.310923 -0.568218
-0.157987 0.587427 0.761978
0.693667 0.166004 0.299460
-0.599810 -0.753047 -0.156263
-0.161345 -0.725910 0.262547
-0.161320 -0.727440 0.263103
-0.146943 0.620295 -0.166835
0.269510 0.184499 0.733028
-0.597966 0.610564 0.310528
-0.614941 -0.309308 -0.568445
0.284182 -0.739104 -0.158800
-0.600327 0.611608 0.310921
-0.157787 0.587354 0.759970
0.730896 -0.277286 -0.142130
-0.601270 0.155006 -0.157903
0.732500 -0.277872 -0.141489
-0.599968 0.611009 0.311356
0.304529 -0.293807 -0.627585
0.280313 0.613047 0.270909
-0.625284 -0.301049 0.294883
0.287742 -0.275147 0.235446
-0.600743 0.156562 -0.157423
-0.627352 -0.301799 0.296938
0.730138 -0.276914 -0.142498
0.740040 0.158332 -0.620186
0.750480 0.635169 -0.192061
-0.146692 0.619742 -0.168097
0.304040 -0.293086 -0.626632
0.261333 0.625539 -0.624214
-0.599580 0.610811 0.310829
0.288358 -0.275418 0.238310
0.303243 -0.292350 -0.626691
-0.164751 0.146923 -0.589226
0.303181 -0.293689 -0.626284
-0.617840 -0.311470 -0.570549
0.282071 -0.740468 -0.157112
-0.148656 -0.724054 -0.599422
0.287887 -0.275833 0.236614
-0.598750 0.156789 -0.157933
-0.150811 -0.726081 -0.596162
-0.620548 0.164779 0.724823
0.694246 0.166826 0.300901
0.263226 0.626695 -0.625220
-0.165013 0.145888 -0.588534
-0.164413 0.143757 -0.589695
0.749624 0.635915 -0.192493
-0.599170 0.612799 0.311747
0.739371 0.158884 -0.620304
0.271241 0.185908 0.731451
-0.162464 -0.726405 0.263121
-0.149913 -0.726731 -0.598597
-0.599484 0.157910 -0.158829
0.747640 0.635435 -0.191656
0.748204 0.634963 -0.191398
0.260845 0.625388 -0.624289
-0.150863 -0.724020 -0.597928
0.696329 0.166705 0.300627
-0.149494 -0.725160 -0.597929
0.271964 0.183805 0.732132
0.733426 -0.274384 -0.143067
0.278999 0.610815 0.272360
-0.619478 0.163654 0.726126
-0.626407 -0.301005 0.295008
-0.601452 0.157816 -0.156196
-0.626860 -0.301659 0.295032
0.304304 -0.291462 -0.626394
0.749335 0.635607 -0.191170
-0.149712 -0.724051 -0.600692
-0.617304 0.165055 0.725467
-0.158935 0.585672 0.761871
0.283540 -0.740561 -0.157138
-0.599980 0.157461 -0.156448
0.304056 -0.292259 -0.626081
-0.149325 -0.727048 -0.600162
-0.601168 -0.752281 -0.154539
0.278160 0.610346 0.271716
-0.599556 0.611571 0.310240
-0.600732 -0.752716 -0.153373
-0.599916 -0.751863 -0.154571
-0.157193 0.586168 0.760463
-0.159042 0.584642 0.760412
-0.157837 -0.264718 0.704130
0.273036 0.186078 0.733448
-0.600256 0.158115 -0.155903
-0.598440 0.610741 0.311469
-0.626813 -0.302214 0.296289
-0.600422 0.612483 0.309876
0.695193 0.166501 0.300417
-0.149093 -0.723734 -0.598109
0.304756 -0.293996 -0.626027
0.285080 -0.740472 -0.157560
-0.615047 -0.313466 -0.568697
-0.599995 0.158171 -0.158737
-0.159889 0.585591 0.759192
0.304334 -0.293623 -0.627499
0.286738 -0.739995 -0.156505
-0.614391 -0.312190 -0.569811
0.746759 0.634436 -0.191474
0.746553 0.634716 -0.191830
0.261335 0.625001 -0.624089
0.260213 0.625716 -0.624701
0.747856 0.635728 -0.191084
-0.158705 -0.265650 0.702430
0.269284 0.185162 0.734051
0.731928 -0.277118 -0.144211
-0.619643 0.164854 0.726843
-0.619471 0.165444 0.725990
-0.625961 -0.300267 0.295286
-0.160470 -0.725267 0.263258
0.747062 0.633591 -0.193015
-0.600370 0.156871 -0.156111
0.261578 0.625545 -0.623813
0.303269 -0.294263 -0.626022
-0.147494 0.620713 -0.169449
0.284626 -0.741786 -0.157472
-0.600177 0.611670 0.312624
-0.147913 0.619085 -0.168116
0.261390 0.626102 -0.623817
-0.157055 0.587566 0.760113
0.260102 0.624800 -0.623699
-0.147891 0.618702 -0.168469
0.739850 0.158098 -0.620750
-0.156628 0.585652 0.760593
-0.160166 -0.725748 0.264823
-0.160255 -0.726827 0.261961
0.286425 -0.740624 -0.156439
-0.149110 -0.723440 -0.597218
0.284464 -0.740070 -0.158308
0.748503 0.634935 -0.191465
0.260255 0.626868 -0.625087
0.739887 0.159078 -0.617803
-0.627544 -0.302667 0.296896
-0.600098 0.612648 0.313262
-0.148499 -0.724803 -0.599974
-0.626155 -0.300739 0.297565
0.305755 -0.294499 -0.626011
-0.157543 0.586666 0.759132
-0.162983 -0.724007 0.263034
-0.147791 0.618791 -0.166903
0.740198 0.157339 -0.620807
-0.600969 -0.751444 -0.154406
0.286837 -0.275284 0.238895
-0.600718 0.156852 -0.156837
0.270379 0.186498 0.732712
-0.165564 0.146398 -0.588650
