OFF
256 0 0
-0.303283 0.164723 -0.708265
0.179852 0.161051 0.618055
0.156383 -0.266394 -0.708533
0.572214 0.141838 0.135391
0.572356 0.142259 0.137920
0.607695 0.178878 -0.742756
0.617864 -0.305060 0.590668
-0.266587 -0.275988 0.595465
0.572932 0.141130 0.137621
0.126984 0.619964 0.150763
0.172883 -0.733632 0.617319
0.153666 0.622882 -0.723604
0.130019 0.618991 0.150704
0.175314 -0.731772 0.617962
-0.745548 0.142352 -0.290695
0.156645 -0.266317 -0.710111
0.615697 -0.762920 0.158945
-0.264843 -0.275745 0.595778
0.620700 -0.296831 -0.293228
-0.713474 -0.252616 0.172086
-0.302207 0.165698 -0.709790
-0.276616 -0.287923 -0.283143
0.126980 0.618438 0.149564
0.159779 -0.717524 -0.274893
0.161029 -0.717814 -0.277181
-0.263955 -0.276804 0.594983
0.609086 0.179515 -0.743393
0.569959 0.139969 0.137321
0.181246 0.159983 0.614812
0.157132 -0.266397 -0.711670
0.175741 -0.731341 0.618466
-0.265300 -0.276026 0.594912
0.127679 0.618910 0.152276
0.173556 -0.731984 0.617704
0.126399 0.616998 0.151327
0.156513 0.622920 -0.722694
0.127729 0.618509 0.151585
-0.714544 -0.251238 0.167734
0.619238 -0.296707 -0.291730
0.619951 -0.295497 -0.293736
-0.299568 0.167369 -0.707728
0.617517 -0.305065 0.589677
0.162082 -0.719831 -0.277061
0.160045 -0.719364 -0.276922
-0.745516 0.140422 -0.289101
-0.712617 -0.251147 0.168817
-0.277879 -0.288608 -0.282487
0.608145 0.178366 -0.743417
0.179648 0.159608 0.614986
-0.248771 -0.723938 0.154675
0.622316 -0.294557 -0.291855
0.180804 0.162238 0.616264
-0.756187 0.181492 0.628986
-0.299838 0.612060 -0.276853
0.606988 0.177083 -0.744116
0.618511 -0.761891 0.157297
0.615010 -0.305443 0.588673
-0.747146 0.141416 -0.289972
-0.756132 0.181033 0.628669
-0.745349 0.141161 -0.292223
0.618215 0.637994 -0.303774
0.128085 0.616980 0.150747
-0.298465 0.611598 -0.277768
-0.251650 -0.723747 0.155632
0.155096 0.622677 -0.723630
0.180376 0.159295 0.616901
-0.299094 0.163873 -0.708008
0.156859 -0.266037 -0.708884
-0.757005 0.181971 0.627706
-0.745041 0.141996 -0.290612
0.174821 -0.733686 0.619424
-0.745254 0.142316 -0.290152
-0.744747 0.140497 -0.290353
0.621164 0.638558 -0.304916
0.606779 0.177067 -0.741954
-0.269574 0.568273 0.625817
0.616448 -0.760944 0.157177
-0.754917 0.182301 0.627533
0.621062 -0.296462 -0.291786
0.176517 -0.733124 0.620134
0.159417 -0.717970 -0.276921
0.615058 -0.303760 0.589235
0.619150 0.637024 -0.302942
0.616593 -0.764351 0.158668
-0.265935 -0.277170 0.595638
0.126971 0.619147 0.151161
0.181409 0.158640 0.616918
0.622038 -0.295052 -0.293102
-0.744201 0.141882 -0.291994
-0.268570 0.568449 0.626978
0.617206 -0.762992 0.159828
-0.298803 0.613216 -0.280866
0.621827 -0.297131 -0.294550
-0.275710 -0.286592 -0.284311
-0.755056 0.181402 0.627503
-0.264565 -0.275459 0.595548
-0.267136 0.567906 0.627343
0.607137 0.177758 -0.743499
0.153234 0.622468 -0.723214
-0.250688 -0.724925 0.154549
0.618909 0.636782 -0.300266
-0.277407 -0.285772 -0.285330
0.617334 -0.304836 0.588856
-0.277276 -0.286103 -0.284767
-0.298402 0.611614 -0.279708
0.608117 0.176987 -0.741665
-0.250444 -0.723857 0.154837
0.181799 0.158234 0.616385
-0.756095 0.182391 0.628132
0.622235 -0.296888 -0.294456
-0.276125 -0.288130 -0.283574
0.572555 0.142125 0.137411
0.156557 -0.264452 -0.708907
-0.250576 -0.722524 0.152405
-0.727660 0.590544 0.165357
-0.252028 -0.724228 0.152791
0.617449 -0.762503 0.159358
-0.755944 0.180997 0.629535
-0.301385 0.165517 -0.708451
-0.301390 0.167728 -0.709401
0.159484 -0.718835 -0.276912
-0.744138 0.139770 -0.290300
-0.728170 0.592200 0.166843
0.152909 0.624139 -0.724409
-0.712118 -0.251302 0.169883
0.128316 0.619252 0.151183
-0.730588 0.591816 0.165073
0.156505 -0.266007 -0.709022
-0.715180 -0.251256 0.168830
-0.299220 0.613943 -0.277248
0.617016 -0.764369 0.158043
0.620562 -0.296811 -0.293206
-0.756338 0.181863 0.630405
-0.727987 0.590380 0.167709
-0.714386 -0.249344 0.168419
-0.264924 -0.274643 0.596024
0.175723 -0.732107 0.618272
-0.296758 0.612687 -0.278080
-0.265730 -0.275164 0.595616
-0.746369 0.140906 -0.289728
0.155700 0.623366 -0.723814
0.161644 -0.718881 -0.275544
-0.264406 -0.275576 0.594594
-0.744712 0.140529 -0.290318
0.617071 -0.305202 0.587793
0.616446 -0.763378 0.157089
-0.745514 0.140831 -0.288766
-0.298949 0.611840 -0.278368
-0.730045 0.591678 0.164489
0.155614 0.621659 -0.721447
-0.267620 0.568846 0.626300
0.620009 0.637770 -0.302660
0.175854 -0.734885 0.619349
0.615978 -0.762818 0.157372
0.156747 -0.266788 -0.709491
-0.744945 0.141550 -0.289364
0.182744 0.160186 0.615662
0.607826 0.178859 -0.743618
0.616949 -0.763078 0.156543
0.620504 0.637418 -0.304308
0.157882 -0.719492 -0.275897
0.154253 0.622793 -0.723677
0.615687 -0.762980 0.158815
0.572006 0.141850 0.137550
-0.265420 -0.275643 0.595291
-0.269583 0.568762 0.624947
0.128070 0.615610 0.150992
0.616578 -0.762697 0.158364
-0.248936 -0.723025 0.154396
0.160396 -0.720751 -0.279294
0.616734 -0.762513 0.159163
0.570756 0.141010 0.136340
-0.729545 0.591304 0.166461
0.617752 -0.763561 0.160064
0.155881 -0.265539 -0.710616
0.607700 0.177976 -0.743754
-0.277847 -0.286512 -0.283701
0.154321 0.622688 -0.723266
0.156041 0.624562 -0.723411
-0.250407 -0.723549 0.155060
0.618769 0.639213 -0.302505
0.620084 -0.296866 -0.293702
-0.301849 0.166045 -0.708125
0.179683 0.160387 0.613929
0.616091 -0.763156 0.157008
-0.301014 0.164442 -0.708236
-0.755899 0.182367 0.629580
-0.265845 -0.277866 0.594694
0.180734 0.159924 0.614684
-0.755027 0.182443 0.628299
-0.756203 0.180912 0.629960
-0.302137 0.165770 -0.707454
0.181277 0.161544 0.617143
-0.266131 -0.276051 0.594691
-0.756062 0.181691 0.628173
-0.728400 0.589416 0.166622
0.127829 0.617789 0.151319
-0.757285 0.182134 0.627806
-0.267940 0.570350 0.627015
-0.298811 0.612578 -0.278055
-0.757530 0.181327 0.628373
0.607655 0.176980 -0.742088
-0.755848 0.180367 0.628510
0.615313 -0.762205 0.159773
0.615981 -0.762926 0.156719
-0.715467 -0.252364 0.170870
0.175096 -0.732897 0.619677
-0.251336 -0.722259 0.154354
-0.250877 -0.723876 0.152994
0.570470 0.139966 0.138166
0.174167 -0.732482 0.617785
0.157227 -0.264869 -0.710258
-0.250029 -0.724266 0.155724
0.620240 -0.298180 -0.294030
0.608285 0.177100 -0.743480
0.617503 -0.763290 0.161162
-0.728647 0.590647 0.165328
0.607793 0.177372 -0.744651
0.161712 -0.719481 -0.275801
0.179482 0.160709 0.616389
0.571434 0.138959 0.137384
0.129070 0.619341 0.151507
-0.713775 -0.252355 0.168522
-0.296538 0.614092 -0.277504
-0.268171 0.569753 0.626728
-0.745850 0.140699 -0.287926
0.572811 0.141534 0.136338
0.620080 0.636987 -0.305863
0.608661 0.178359 -0.742756
0.621301 -0.294589 -0.292109
0.158364 -0.718326 -0.277773
-0.746000 0.141005 -0.289161
0.572132 0.139559 0.137200
-0.755456 0.180918 0.630068
0.616223 -0.305004 0.589118
-0.728757 0.591957 0.166154
0.572874 0.138746 0.135027
0.571639 0.140873 0.135724
0.608306 0.179050 -0.742062
0.157811 -0.265340 -0.709957
-0.265180 -0.277055 0.593991
-0.298576 0.611987 -0.279043
0.175752 -0.732888 0.618828
-0.727584 0.590967 0.165462
0.175585 -0.731189 0.618228
0.616906 -0.303826 0.589192
0.159192 -0.717821 -0.276535
0.619671 0.638637 -0.302096
0.619509 -0.296376 -0.293248
-0.296095 0.611398 -0.277937
0.606842 0.176867 -0.742563
-0.302486 0.165323 -0.708583
0.153629 0.623430 -0.725966
0.154938 -0.266748 -0.708073
0.607354 0.178730 -0.744520
0.160674 -0.716833 -0.278356
