OFF
256 0 0
0.608733 -0.712002 0.176658
0.185040 -0.283628 -0.717055
0.177951 0.576837 -0.748209
-0.727427 0.578952 0.144315
-0.740953 0.162595 -0.274527
0.628866 -0.284903 -0.307800
0.145773 -0.708416 0.599343
-0.267695 -0.246093 0.585987
-0.278136 0.620800 0.589761
-0.727879 0.579334 0.145117
-0.257291 0.592960 -0.267891
0.182321 0.610057 0.212653
0.594238 0.154221 0.151593
-0.257661 0.594942 -0.272057
-0.743185 -0.264602 0.161143
-0.326973 0.161673 -0.758891
0.146864 -0.707238 0.600438
0.184068 -0.283489 -0.713305
0.182290 -0.284290 -0.716011
0.180099 0.610659 0.210902
-0.270502 -0.247314 0.586479
0.623232 0.139155 -0.770210
-0.718069 0.167967 0.600824
0.606473 -0.713242 0.175834
-0.327228 0.159953 -0.757443
-0.743024 -0.264530 0.158071
0.606035 -0.710986 0.174901
0.607156 -0.712561 0.175577
0.180492 0.608981 0.210895
-0.716319 0.167000 0.600927
-0.290874 -0.716445 0.156633
0.593621 -0.275111 0.654063
-0.292529 -0.715136 0.157326
-0.268581 -0.248268 0.585899
-0.717960 0.167744 0.602127
0.628720 -0.286054 -0.306638
0.166700 -0.716433 -0.269917
0.181585 0.612180 0.209700
0.590114 -0.272810 0.653683
0.561798 0.558107 -0.279765
-0.282481 -0.278741 -0.279603
0.176282 0.575697 -0.744975
-0.283894 -0.280062 -0.280095
-0.743401 0.164393 -0.274788
-0.717959 0.167610 0.600336
-0.269050 -0.248069 0.586888
-0.258064 0.594599 -0.270397
0.623434 0.139355 -0.767668
0.176132 0.168351 0.642476
-0.283166 -0.278934 -0.279492
0.169298 -0.715827 -0.273197
-0.289932 -0.714887 0.155323
-0.289433 -0.715797 0.157408
-0.290259 -0.713856 0.156273
-0.717816 0.168237 0.601431
0.629372 -0.287997 -0.306061
-0.726174 0.579092 0.144470
0.176071 0.574706 -0.745018
0.628585 -0.287567 -0.305784
-0.269855 -0.249071 0.586456
0.181504 0.609958 0.208523
0.628448 -0.287675 -0.307583
-0.283233 -0.280099 -0.280302
0.181399 0.608794 0.211236
-0.291230 -0.716054 0.155883
-0.258514 0.593334 -0.270399
-0.289904 -0.716010 0.154828
0.177148 0.576366 -0.744802
-0.744482 -0.265290 0.157915
0.170996 -0.718009 -0.270406
0.178002 0.576880 -0.745211
0.628540 -0.289933 -0.304542
-0.327102 0.162952 -0.758807
0.607270 -0.713178 0.176533
0.590719 -0.274919 0.653736
-0.285062 -0.279272 -0.279495
-0.726783 0.579829 0.144957
0.182050 -0.284034 -0.713696
-0.726313 0.578878 0.142906
0.166107 -0.715707 -0.271105
0.562141 0.558931 -0.280736
-0.719283 0.169115 0.601780
0.590708 -0.275932 0.654143
0.176619 0.577800 -0.744702
-0.258306 0.593208 -0.271092
-0.744598 -0.262278 0.158244
-0.269095 -0.246826 0.585816
0.630141 -0.286839 -0.306513
-0.279676 0.621169 0.590800
-0.268403 -0.247816 0.586439
-0.725135 0.580907 0.144847
0.606066 -0.711866 0.173822
0.180786 0.610023 0.211606
-0.724576 0.578452 0.144785
0.606878 -0.712064 0.176678
0.182284 0.609603 0.210403
0.623448 0.140735 -0.768930
0.182419 -0.282389 -0.714994
-0.717134 0.167334 0.600531
0.596118 0.154725 0.150454
-0.326320 0.158399 -0.759714
-0.278521 0.622215 0.590729
0.169020 -0.716185 -0.271595
-0.742669 -0.265058 0.160335
-0.278414 0.621511 0.592022
0.166779 -0.717992 -0.271275
0.168210 -0.716242 -0.271767
0.594166 0.153656 0.152228
-0.326905 0.161301 -0.758560
0.629759 -0.286639 -0.305049
-0.258012 0.594296 -0.270684
-0.257289 0.592514 -0.270268
0.561225 0.557986 -0.280794
-0.282574 -0.279408 -0.278797
0.562918 0.558261 -0.282547
0.169888 -0.715997 -0.270608
-0.277596 0.619788 0.589812
-0.745078 0.162095 -0.275643
0.590102 -0.275479 0.653948
0.180566 0.609026 0.210038
0.145658 -0.708760 0.598251
0.627223 -0.284875 -0.305086
-0.291837 -0.716374 0.157297
0.629299 -0.288535 -0.305044
-0.268228 -0.246982 0.588943
-0.277875 0.623471 0.591640
-0.726026 0.579882 0.144946
0.144285 -0.710137 0.597163
0.173806 0.169428 0.641528
0.561758 0.557105 -0.277591
0.595140 0.154369 0.153031
0.177166 0.573770 -0.745279
0.145788 -0.710901 0.595583
-0.740211 0.163987 -0.276407
0.608523 -0.711652 0.176995
-0.257741 0.592186 -0.270914
-0.292685 -0.716319 0.156158
0.167667 -0.717706 -0.271907
-0.289234 -0.717775 0.156826
-0.278022 0.620729 0.591968
0.180362 0.609221 0.211480
-0.716542 0.167626 0.602050
-0.728494 0.578267 0.144395
-0.256241 0.593381 -0.269793
-0.291765 -0.715580 0.155481
0.181770 0.610103 0.210713
0.607167 -0.712939 0.175557
-0.743587 0.162860 -0.276598
-0.326897 0.160563 -0.758492
0.561710 0.556318 -0.279627
-0.326492 0.161505 -0.757760
-0.741631 0.162995 -0.276158
0.172863 0.169888 0.643121
-0.717526 0.167548 0.599815
0.629398 -0.285972 -0.306712
0.178475 0.575915 -0.745119
-0.269258 -0.248682 0.586085
0.174027 0.168632 0.641703
-0.277809 0.618829 0.591698
-0.727266 0.580124 0.143263
0.590811 -0.275482 0.652806
-0.326057 0.161524 -0.758272
0.561275 0.557845 -0.282640
0.560757 0.557415 -0.280602
-0.715668 0.165967 0.603258
-0.277002 0.621930 0.590390
0.563202 0.556676 -0.279557
-0.741319 0.161637 -0.276747
-0.326873 0.161573 -0.758965
0.174808 0.169920 0.642174
0.629228 -0.287594 -0.306639
-0.277939 0.620988 0.590390
0.179372 0.608250 0.210909
-0.717947 0.165268 0.602950
0.183182 -0.282821 -0.714059
-0.326456 0.160694 -0.757463
-0.280093 0.620003 0.590675
0.562099 0.556455 -0.281964
-0.284246 -0.279573 -0.281379
-0.726466 0.580227 0.144138
0.181928 -0.283765 -0.714727
-0.259302 0.594230 -0.270661
-0.256357 0.593493 -0.268801
0.623639 0.140269 -0.769722
0.180928 0.609087 0.210549
-0.290811 -0.715193 0.156456
0.628909 -0.286535 -0.306897
0.145818 -0.707340 0.597380
-0.289352 -0.717041 0.155966
0.605992 -0.712269 0.175690
0.177886 0.575482 -0.743123
0.621799 0.140622 -0.768921
-0.743336 -0.262771 0.158861
-0.267905 -0.248941 0.586699
-0.269773 -0.247884 0.584894
0.145899 -0.710749 0.596279
0.184542 -0.283389 -0.713818
-0.742720 -0.264945 0.160406
-0.716549 0.165869 0.602384
-0.268482 -0.250461 0.586684
-0.284817 -0.279023 -0.279479
0.625345 0.141869 -0.768357
0.181269 0.610402 0.210202
-0.741030 0.165329 -0.277160
0.606590 -0.711986 0.174987
0.181956 -0.282420 -0.713304
-0.718968 0.167657 0.601659
0.147449 -0.708776 0.597779
-0.257259 0.594736 -0.271017
0.623162 0.139170 -0.771181
0.623637 0.141133 -0.766392
0.623425 0.142151 -0.768039
0.590832 -0.274525 0.652838
0.143462 -0.707764 0.597474
-0.279511 0.619270 0.589548
-0.725690 0.578396 0.144418
-0.743657 -0.263063 0.158695
0.175456 0.575899 -0.744461
-0.290749 -0.716176 0.154446
0.182238 0.610508 0.210991
-0.727830 0.577272 0.143486
-0.283590 -0.279764 -0.278916
0.628119 -0.287160 -0.306369
0.629471 -0.285784 -0.306468
0.175144 0.169574 0.642272
0.596564 0.153299 0.151390
-0.269818 -0.245810 0.587179
-0.256925 0.594626 -0.270945
-0.743985 -0.263322 0.158175
0.590988 -0.274444 0.654610
-0.290719 -0.717151 0.158329
0.183056 -0.282733 -0.713819
-0.740361 0.162704 -0.275365
-0.280914 0.621044 0.591439
-0.269722 -0.248594 0.585623
-0.743625 -0.262821 0.157316
0.144238 -0.709617 0.597044
0.590013 -0.276077 0.653628
0.622229 0.140548 -0.769144
-0.268211 -0.247130 0.585935
0.167274 -0.717130 -0.270510
-0.325910 0.162050 -0.758056
0.589401 -0.275341 0.656264
-0.279200 0.621595 0.589994
-0.255902 0.592827 -0.268698
0.605192 -0.712050 0.175744
0.623667 0.140205 -0.769156
-0.725785 0.579661 0.143817
0.175986 0.167847 0.641459
-0.257027 0.594620 -0.270729
-0.284132 -0.279662 -0.280416
0.560561 0.557058 -0.280548
0.608181 -0.713139 0.174983
0.176786 0.573918 -0.744084
0.179759 0.610224 0.209734
-0.284891 -0.279589 -0.278939
