OFF
256 0 0
0.130848 -0.609648 -0.712177
0.146127 0.724846 0.605199
-0.752280 -0.638089 0.156768
0.140999 0.746300 -0.270391
0.153947 0.285288 -0.703946
-0.268277 0.734863 0.168647
-0.753076 -0.639031 0.155623
0.164628 -0.595036 0.131150
-0.270867 -0.586303 0.610009
0.145475 0.724917 0.606321
-0.682887 0.267051 0.174231
-0.273827 -0.147949 -0.745794
0.154103 0.286348 -0.705181
0.610305 -0.608146 -0.297126
0.141066 0.747633 -0.272985
0.154383 0.286233 -0.705414
0.177664 -0.154803 0.613039
0.595279 0.737056 0.144412
-0.684654 0.267982 0.176938
0.180383 -0.154965 0.613932
0.588247 -0.107935 0.163277
-0.704834 -0.169471 -0.265388
0.590732 -0.108125 0.164288
-0.267355 0.736179 0.169040
0.590236 -0.107981 0.163958
-0.230413 0.256007 -0.254551
-0.269893 -0.584973 0.608658
0.131224 -0.609272 -0.713383
-0.266994 0.735304 0.168104
0.598164 0.290443 -0.285575
0.611370 -0.609084 -0.297680
0.142741 0.745695 -0.270760
0.144580 0.722959 0.606263
0.589966 0.297529 0.611044
0.610399 -0.606946 -0.297734
-0.274936 -0.149037 -0.749565
0.164679 -0.597492 0.130093
-0.741679 -0.187276 0.592552
0.610867 -0.607481 -0.297463
0.152680 0.286857 -0.706093
-0.271250 -0.585104 0.609839
-0.230753 0.256904 -0.255452
-0.268177 0.734517 0.168605
0.130328 -0.608314 -0.711273
0.132543 -0.607705 -0.711422
-0.272779 -0.149965 -0.747702
0.598072 0.289849 -0.284920
-0.231401 0.253128 -0.255478
-0.683285 0.266348 0.176696
-0.269492 -0.586563 0.608558
-0.705334 -0.169331 -0.265418
-0.260908 0.239484 0.588460
-0.270111 -0.585560 0.607945
0.587512 -0.181571 -0.752112
0.597626 0.288965 -0.285838
0.166469 -0.595025 0.130359
0.586896 0.299851 0.612348
-0.268860 0.733233 0.170291
0.145471 0.723085 0.606103
0.590007 -0.107225 0.162048
-0.269003 0.733654 0.167312
-0.297202 -0.585652 -0.268133
-0.296417 -0.585638 -0.271024
-0.683161 0.265913 0.177279
-0.296490 -0.586681 -0.268831
0.590576 -0.107931 0.162540
-0.269612 -0.586737 0.610063
-0.273890 -0.148307 -0.747648
-0.271012 -0.583235 0.610573
-0.271795 -0.585090 0.609648
-0.273293 -0.150092 -0.748801
0.165385 -0.596033 0.130807
0.146427 0.723672 0.604665
-0.230336 0.253703 -0.256167
0.165581 -0.595026 0.129423
0.164817 -0.594391 0.129356
-0.268495 0.735397 0.168820
-0.269237 -0.586392 0.608597
0.589999 -0.108357 0.163090
0.132028 -0.610591 -0.711713
-0.270259 -0.585754 0.608359
-0.741143 -0.185348 0.594637
-0.684205 0.265689 0.176197
0.177485 -0.155025 0.613503
-0.741757 -0.185553 0.592518
-0.753191 -0.638092 0.156882
0.162720 -0.595945 0.131101
0.588376 -0.108583 0.162884
-0.272481 -0.584958 0.609066
0.590491 -0.107906 0.163345
0.588509 0.297798 0.612319
0.611540 -0.607965 -0.296284
-0.297458 -0.584621 -0.269253
0.140133 0.746081 -0.271036
0.179520 -0.151992 0.612796
-0.273251 -0.149557 -0.746391
-0.751312 -0.638508 0.156891
0.595942 0.737744 0.145512
-0.739758 -0.186255 0.593486
-0.752404 -0.639596 0.155190
-0.752877 -0.638528 0.157396
-0.740690 -0.187390 0.595108
0.166390 -0.597696 0.130577
-0.683413 0.266709 0.177576
-0.273334 -0.148351 -0.748429
-0.297061 -0.584649 -0.270159
-0.231172 0.254495 -0.255606
0.589206 0.296812 0.610357
-0.228999 0.254257 -0.256168
0.155138 0.285105 -0.705265
-0.685350 0.265588 0.177068
-0.740097 -0.187481 0.591666
0.166869 -0.596749 0.129285
-0.743121 -0.185591 0.591179
0.130480 -0.608013 -0.711821
0.587697 -0.181409 -0.754099
0.586706 -0.183969 -0.752611
0.141880 0.745707 -0.272099
0.178809 -0.156724 0.615592
0.591442 -0.109197 0.162552
-0.739047 -0.185142 0.592375
0.594293 0.737259 0.143209
0.588183 0.297969 0.613166
-0.273004 -0.147863 -0.746176
0.588647 -0.181015 -0.751750
-0.703733 -0.171409 -0.264394
0.609860 -0.607141 -0.294649
-0.258989 0.240766 0.587720
0.594253 0.737980 0.143815
-0.275599 -0.148629 -0.748637
0.597288 0.288863 -0.285654
0.141906 0.746838 -0.272176
-0.299464 -0.585589 -0.268755
-0.258856 0.238097 0.586005
-0.275952 -0.149164 -0.747366
0.164034 -0.593943 0.130280
0.144335 0.724183 0.604746
-0.755249 -0.638698 0.156773
-0.266143 0.736190 0.168080
0.177805 -0.156330 0.613713
0.177130 -0.155069 0.614962
0.590325 -0.109766 0.161659
-0.705225 -0.170135 -0.265577
0.591416 -0.108919 0.163265
0.166384 -0.595731 0.131971
0.588562 0.295070 0.615113
-0.738200 -0.185307 0.592034
0.594858 0.737855 0.143420
-0.752770 -0.637436 0.155388
0.611480 -0.608276 -0.297762
0.587893 -0.182159 -0.753457
0.176850 -0.152336 0.616699
0.165362 -0.596557 0.128552
0.597761 0.289763 -0.284785
-0.270025 -0.586523 0.610937
0.587651 -0.181741 -0.753828
-0.266471 0.734504 0.169954
-0.273537 -0.150952 -0.747792
-0.274183 -0.149296 -0.748149
-0.229570 0.256470 -0.254009
-0.741161 -0.186743 0.593466
0.590429 -0.107451 0.162402
0.144877 0.725364 0.604867
0.589039 0.297221 0.610385
0.152685 0.284885 -0.704592
0.130795 -0.608857 -0.712805
-0.703298 -0.171953 -0.266182
0.588738 0.297445 0.612944
-0.260262 0.239699 0.586997
0.588213 0.297234 0.611762
-0.684204 0.267824 0.176708
-0.702927 -0.169475 -0.265504
-0.272887 -0.149077 -0.745318
-0.229356 0.254313 -0.254537
0.597134 0.287398 -0.283421
-0.704839 -0.171505 -0.265383
0.597068 0.287588 -0.284649
0.145618 0.723470 0.604858
0.146500 0.724574 0.605811
0.610735 -0.608240 -0.296731
0.587114 0.296075 0.612449
0.146260 0.725833 0.606566
-0.684358 0.267280 0.175565
0.144883 0.724287 0.605860
-0.704428 -0.170206 -0.265376
0.588029 -0.180965 -0.752045
-0.260464 0.239500 0.587536
-0.682794 0.268807 0.176124
-0.299166 -0.586839 -0.270315
0.612411 -0.607178 -0.294318
0.597230 0.289361 -0.285764
-0.298672 -0.586682 -0.268689
0.165082 -0.594635 0.129275
-0.753120 -0.638824 0.157672
0.611411 -0.606176 -0.296858
0.144595 0.724972 0.604419
0.140333 0.746440 -0.270657
0.596702 0.289314 -0.286010
0.592437 0.736055 0.143711
0.131253 -0.610245 -0.710838
0.594013 0.736912 0.143379
-0.704994 -0.169770 -0.264809
0.143571 0.723054 0.605308
-0.227180 0.253992 -0.255767
-0.685701 0.267957 0.177238
-0.230984 0.254239 -0.256258
-0.703084 -0.171033 -0.265068
-0.297848 -0.586336 -0.270359
-0.705316 -0.172120 -0.266541
-0.740717 -0.185832 0.593096
-0.230429 0.255391 -0.254829
0.609480 -0.606624 -0.297343
-0.752869 -0.639355 0.156312
-0.752323 -0.636984 0.157704
0.140469 0.745313 -0.272200
0.131285 -0.608508 -0.713405
0.152895 0.285458 -0.706108
0.129719 -0.608215 -0.712309
-0.260460 0.239144 0.586109
0.153293 0.286515 -0.705361
0.600199 0.288963 -0.284532
0.128694 -0.608097 -0.712130
0.141316 0.746467 -0.270097
-0.297603 -0.588072 -0.266978
-0.741103 -0.185797 0.592828
-0.229413 0.253686 -0.255549
0.152584 0.286057 -0.706030
-0.267152 0.735004 0.166801
0.589876 0.296690 0.614688
-0.260972 0.239540 0.586085
0.144508 0.724563 0.604881
0.588532 0.299165 0.612366
0.591663 -0.107713 0.163369
-0.261097 0.240071 0.586378
-0.752167 -0.638873 0.155530
0.589145 -0.109279 0.166587
-0.271024 -0.583994 0.611084
-0.681747 0.266979 0.177374
-0.270094 0.736071 0.167441
0.611358 -0.609398 -0.295337
0.130431 -0.608246 -0.710573
0.594043 0.738801 0.143344
0.594718 0.738882 0.145416
0.586556 0.298618 0.613994
-0.268166 0.734296 0.169703
0.588716 0.296463 0.612087
-0.229833 0.253950 -0.256197
0.590875 -0.109677 0.163021
0.587946 -0.180272 -0.754109
0.145090 0.722574 0.603508
0.609827 -0.607000 -0.296395
-0.704767 -0.172171 -0.265843
0.600183 0.288510 -0.283938
0.153253 0.285665 -0.707709
0.177318 -0.154897 0.613576
-0.268382 0.733168 0.170245
