OFF
256 0 0
-0.757384 -0.599304 0.167860
0.166056 -0.607806 -0.745935
0.125155 0.297419 -0.747699
0.630288 -0.177815 -0.738674
0.126564 0.296921 -0.746326
0.620792 0.286349 0.602514
0.673826 -0.201667 0.178294
0.163532 0.755105 0.619708
0.181308 -0.171000 0.640230
-0.757755 -0.599975 0.167009
-0.751865 -0.169422 0.637845
-0.281253 0.771857 0.185302
-0.283777 0.770836 0.182509
-0.299034 -0.166979 -0.787054
-0.279519 0.298221 -0.305701
-0.279955 0.296888 -0.305715
0.163218 -0.609340 -0.746150
-0.757829 -0.598996 0.167605
-0.755825 -0.169644 -0.320197
0.622742 0.278789 -0.309721
-0.757258 -0.596535 0.168889
-0.293436 0.298907 0.639698
0.165904 0.754520 0.619912
0.180652 -0.170981 0.639516
0.201854 0.772574 -0.271186
0.628624 -0.177059 -0.738033
0.619878 0.283853 0.603268
0.163554 -0.609383 -0.746831
0.588523 -0.648966 -0.291956
-0.295786 0.300073 0.640244
0.589992 -0.648747 -0.293450
0.619760 0.282834 0.603350
0.673024 -0.203699 0.175264
0.631382 -0.176893 -0.740537
0.619541 0.284560 0.602231
0.590184 -0.649072 -0.292633
0.203807 0.771304 -0.272290
0.125985 0.297235 -0.746187
-0.756019 -0.167419 -0.322393
-0.757479 -0.598249 0.167258
0.620827 0.283696 0.601729
0.628977 0.737676 0.159148
-0.282989 0.770218 0.183195
0.201367 0.772807 -0.271484
0.164287 -0.609280 -0.747653
-0.756966 -0.600072 0.169889
-0.280794 0.297823 -0.303043
-0.309688 -0.619660 -0.286929
-0.757990 -0.600298 0.167231
-0.298685 -0.168969 -0.789730
-0.756750 -0.597232 0.167455
-0.282994 0.772617 0.183137
-0.294327 0.297843 0.638213
0.628613 -0.175576 -0.740523
0.627719 0.735390 0.159777
0.674204 -0.199582 0.175595
0.127837 0.297834 -0.744879
0.674293 -0.202577 0.175195
0.160923 -0.644114 0.166931
0.159943 -0.644323 0.167602
-0.743270 0.317313 0.173513
-0.749446 -0.169736 0.637264
-0.293083 -0.630897 0.641360
-0.740898 0.316425 0.174525
-0.282228 0.771109 0.184275
0.619453 0.287513 0.603524
0.629291 0.737811 0.160428
-0.743245 0.316760 0.173830
-0.297521 -0.168564 -0.788660
-0.308455 -0.617700 -0.285956
-0.756455 -0.167841 -0.320400
0.622378 0.277274 -0.308206
-0.306907 -0.617016 -0.285310
-0.279429 0.297160 -0.305502
0.590385 -0.647095 -0.294327
-0.293282 -0.631982 0.639612
0.181591 -0.172129 0.639086
-0.279825 0.770460 0.182336
0.164537 -0.609157 -0.746270
0.201431 0.771262 -0.271041
0.165291 -0.608946 -0.747636
-0.298327 -0.168807 -0.787230
0.589285 -0.646257 -0.293458
-0.299169 -0.168813 -0.786955
0.619764 0.284767 0.602814
0.128419 0.297971 -0.745857
-0.293233 -0.633088 0.640556
0.622922 0.277950 -0.308382
-0.308696 -0.619194 -0.286879
-0.752309 -0.169698 0.637073
0.127650 0.296951 -0.746778
-0.291974 -0.631588 0.641661
-0.278928 0.298090 -0.303881
0.631806 0.736522 0.159179
0.160890 -0.645721 0.167581
0.589795 -0.647141 -0.291020
0.203858 0.772581 -0.272230
-0.744066 0.318131 0.172270
0.630897 -0.175669 -0.739695
-0.757857 -0.600246 0.168608
-0.752284 -0.168984 0.638571
-0.282923 0.771156 0.184391
0.127061 0.297239 -0.745719
0.178842 -0.170523 0.639965
-0.757914 -0.599016 0.168073
-0.758401 -0.168583 -0.320936
-0.758417 -0.599388 0.167838
-0.279721 0.297849 -0.305100
0.673084 -0.204005 0.177586
-0.299226 -0.169012 -0.788073
0.624527 0.276458 -0.307720
-0.291182 0.298543 0.640869
0.181062 -0.171559 0.639244
0.126706 0.298739 -0.745105
0.673910 -0.202938 0.176233
-0.757472 -0.598685 0.167242
0.619364 0.284380 0.603060
0.158630 -0.645055 0.166904
-0.293336 -0.631414 0.641166
0.157343 -0.644770 0.167660
-0.293608 0.297715 0.639968
-0.297893 -0.167761 -0.788020
-0.752468 -0.170115 0.638573
-0.292835 -0.631818 0.640174
-0.279504 0.296257 -0.306904
-0.292940 -0.631564 0.641971
0.127181 0.297152 -0.745050
-0.294206 0.299476 0.639698
-0.293254 -0.632833 0.640883
-0.299932 -0.168089 -0.789199
0.628163 0.735218 0.159587
-0.307613 -0.616125 -0.285960
-0.281225 0.770101 0.185555
-0.282161 0.774047 0.182702
0.673985 -0.202405 0.175397
0.621740 0.277544 -0.308931
0.631118 -0.173754 -0.740973
-0.299214 -0.169411 -0.787764
-0.280041 0.295905 -0.305598
0.630583 -0.178092 -0.741536
-0.743929 0.317193 0.173447
-0.294165 0.300299 0.640194
0.629779 -0.176230 -0.738214
-0.751834 -0.168270 0.635296
-0.750142 -0.169591 0.637145
-0.295237 0.297998 0.639660
0.166349 0.752302 0.620377
-0.759434 -0.600107 0.167836
0.158539 -0.646198 0.168322
-0.751778 -0.171004 0.636731
0.622414 0.277010 -0.309519
0.618741 0.284815 0.602940
-0.297873 -0.168698 -0.789693
0.674599 -0.204618 0.175016
0.160118 -0.645813 0.168348
-0.751788 -0.170067 0.638694
-0.309680 -0.620498 -0.286570
0.166755 0.754667 0.619277
-0.758652 -0.167110 -0.320909
0.628932 -0.176685 -0.741488
0.672392 -0.201881 0.177260
-0.751391 -0.170699 0.638889
-0.293693 0.300257 0.638779
-0.280941 0.769560 0.184715
-0.310191 -0.618496 -0.287147
0.161550 -0.644889 0.167745
-0.292527 -0.632428 0.640518
0.167491 0.752681 0.619421
-0.744132 0.317338 0.174799
0.127770 0.298704 -0.747866
0.624431 0.279886 -0.308932
0.622554 0.278225 -0.307432
-0.293129 -0.632282 0.640551
-0.744677 0.319481 0.171787
-0.757724 -0.170089 -0.321168
0.166698 0.752430 0.619476
-0.757933 -0.598289 0.169822
-0.752053 -0.168030 0.639054
0.673105 -0.204055 0.177093
-0.745140 0.316652 0.171903
0.180050 -0.170596 0.639665
0.164745 -0.608896 -0.744907
0.621640 0.284596 0.602018
-0.757235 -0.167825 -0.321373
-0.755566 -0.170781 -0.322093
-0.757010 -0.168210 -0.323101
0.159688 -0.645421 0.166260
0.628566 -0.175635 -0.737580
0.630298 0.735298 0.160758
-0.743112 0.316309 0.173247
0.203487 0.769816 -0.272206
0.200623 0.772380 -0.273925
0.589335 -0.647411 -0.293596
-0.756866 -0.599586 0.168231
0.674042 -0.202776 0.177077
0.625776 0.278933 -0.307905
0.589136 -0.647516 -0.292498
0.589704 -0.647506 -0.292742
-0.282151 0.771922 0.183519
0.675138 -0.202619 0.178468
0.160377 -0.644360 0.165652
-0.751837 -0.170101 0.637364
-0.281301 0.298804 -0.304570
-0.744189 0.317602 0.174182
-0.298331 -0.167619 -0.789329
0.165102 -0.607499 -0.746835
0.672780 -0.203334 0.177561
0.618616 0.284379 0.602345
0.202427 0.771287 -0.271126
0.180602 -0.172099 0.642471
-0.280691 0.296557 -0.305708
-0.757077 -0.169515 -0.320996
-0.281143 0.296439 -0.306551
-0.294524 0.301364 0.639901
0.590759 -0.648549 -0.291750
0.630423 0.735700 0.159579
-0.293463 0.297745 0.640508
-0.758618 -0.599384 0.167780
-0.756477 -0.599011 0.170088
0.180441 -0.170915 0.639309
-0.306756 -0.618993 -0.287071
-0.756989 -0.599143 0.168024
0.166095 0.752768 0.618606
-0.292087 -0.632356 0.640866
-0.292348 0.299637 0.640047
-0.294596 0.297687 0.639053
-0.758746 -0.167320 -0.322253
0.201147 0.772346 -0.270814
0.124386 0.296557 -0.746260
0.128500 0.296034 -0.745913
-0.757522 -0.166570 -0.322098
0.180797 -0.172129 0.639622
0.627714 0.733969 0.160139
-0.298910 -0.169972 -0.788605
0.160455 -0.644700 0.168452
0.588645 -0.649512 -0.291955
0.178136 -0.172664 0.640409
-0.308540 -0.618535 -0.286289
0.628449 0.736370 0.160159
0.631318 0.735108 0.156895
-0.280749 0.298121 -0.306260
-0.278646 0.297237 -0.307119
-0.298322 -0.167002 -0.789205
0.620674 0.283726 0.603360
-0.758203 -0.600092 0.168118
0.673803 -0.202337 0.175765
-0.308212 -0.615312 -0.285224
-0.281386 0.297797 -0.305802
-0.281989 0.771230 0.182922
-0.755310 -0.168665 -0.321626
0.591814 -0.649649 -0.293217
0.628549 -0.175836 -0.741413
0.629457 0.737832 0.158756
-0.294452 0.300158 0.640730
0.180713 -0.171046 0.639029
-0.281680 0.769883 0.182035
