OFF
256 0 0
0.288176 -0.759140 -0.146607
-0.167866 -0.714389 -0.607931
-0.163343 0.154154 -0.610078
0.304761 0.584152 0.269743
0.765623 0.175328 0.293346
-0.627250 0.158416 0.744041
-0.158476 -0.278058 0.731588
-0.180235 0.634188 -0.169221
-0.182281 -0.723321 0.287369
-0.628773 -0.735440 -0.131674
0.280798 0.181956 0.762439
-0.181687 0.632895 -0.170496
-0.645976 0.153522 -0.162461
0.753832 -0.307467 -0.176849
-0.628362 0.158708 0.743078
-0.644228 -0.294003 -0.646374
-0.183578 0.633481 -0.168718
0.758815 0.150693 -0.619273
-0.591565 0.616319 0.290142
0.280778 0.181383 0.760507
0.304780 0.584465 0.269043
-0.159846 -0.276810 0.732450
0.294394 0.593298 -0.636825
-0.148501 0.647988 0.747620
-0.642241 -0.295786 -0.647601
-0.628742 -0.275965 0.309036
0.292427 -0.299383 -0.636901
0.303995 0.583480 0.269294
-0.150341 0.645246 0.748461
-0.163307 0.156237 -0.609627
-0.592281 0.617501 0.290101
-0.181004 -0.723766 0.287507
0.281445 0.180875 0.760800
-0.628517 -0.735183 -0.132979
-0.647674 0.151232 -0.161777
0.305217 0.586611 0.269034
-0.181309 0.631911 -0.170200
-0.643402 -0.296757 -0.647233
0.289880 -0.300725 -0.635079
-0.647171 0.150135 -0.162278
0.763920 0.176211 0.293845
-0.156998 -0.276602 0.732899
-0.178909 0.631174 -0.168313
-0.627201 0.157927 0.742543
-0.643047 -0.296194 -0.646946
0.273300 -0.244328 0.286276
-0.181153 -0.722988 0.287426
-0.628008 -0.736269 -0.133295
-0.593233 0.616475 0.289416
-0.644352 -0.296055 -0.647427
0.765225 0.176360 0.295684
0.293367 -0.299431 -0.635875
-0.164775 0.153967 -0.611203
0.303033 0.584042 0.269905
0.273242 -0.242196 0.286523
-0.156374 -0.276610 0.731082
-0.627044 0.158915 0.743761
-0.180491 0.631949 -0.169444
0.291341 -0.299882 -0.636186
-0.168116 -0.713688 -0.602760
-0.628040 -0.276408 0.310906
0.273453 -0.242167 0.287897
0.754567 -0.307731 -0.179508
0.291288 -0.300377 -0.636022
-0.151006 0.646145 0.749727
0.758683 0.148575 -0.620106
0.763770 0.176150 0.291146
-0.628954 0.156437 0.741839
-0.626384 -0.736063 -0.133537
-0.628171 -0.736486 -0.133050
-0.166304 -0.712626 -0.603958
0.275328 -0.241955 0.286988
0.294555 0.593104 -0.638725
-0.166793 -0.714063 -0.603600
0.304741 0.585728 0.270066
-0.629456 -0.273726 0.310510
-0.629798 -0.735395 -0.132664
-0.629422 -0.278263 0.309993
-0.592260 0.617981 0.289456
0.305438 0.585237 0.270598
-0.148881 0.646914 0.747849
0.292322 -0.301036 -0.636174
-0.630410 -0.276880 0.310237
-0.156825 -0.275604 0.732126
0.290412 -0.300320 -0.637765
-0.149736 0.645362 0.748136
0.303906 0.584663 0.270659
-0.627364 -0.736086 -0.131745
-0.150493 0.646278 0.746899
-0.643412 -0.296437 -0.647908
-0.628400 0.158213 0.744503
-0.592613 0.616329 0.287602
-0.591188 0.618924 0.288689
0.754546 -0.306000 -0.177549
-0.629497 -0.735874 -0.133975
0.292287 -0.298584 -0.637905
0.288952 -0.760481 -0.146056
0.282367 0.181637 0.764774
-0.165730 0.154957 -0.611970
-0.151309 0.646596 0.748356
-0.627028 -0.275888 0.312338
-0.167444 -0.713471 -0.606228
-0.166471 0.157040 -0.610772
0.751640 -0.305498 -0.176237
0.751234 -0.307678 -0.176957
-0.592268 0.617476 0.289297
-0.165519 0.155107 -0.609293
-0.627365 0.156918 0.743904
-0.627753 0.158046 0.744321
-0.149798 0.644924 0.748111
0.290453 -0.299330 -0.637174
-0.628156 -0.736655 -0.132048
-0.180731 0.631045 -0.168937
-0.156740 -0.276410 0.733981
0.755614 0.586731 -0.182379
-0.179987 -0.722518 0.286949
-0.643345 -0.294660 -0.647977
0.289556 -0.762188 -0.146849
-0.180611 0.631349 -0.171210
-0.157524 -0.277732 0.732652
0.273991 -0.243182 0.286018
0.291637 -0.300186 -0.635627
0.304636 0.585577 0.271473
-0.643062 -0.295191 -0.647059
-0.166549 -0.713213 -0.605176
-0.166535 -0.714177 -0.605398
-0.168145 -0.715842 -0.604442
-0.182453 -0.722842 0.286480
-0.628311 -0.734204 -0.132559
-0.627895 0.156290 0.744247
0.296073 0.594368 -0.636166
-0.627777 -0.276374 0.312839
-0.629363 -0.736784 -0.132133
-0.642462 -0.294256 -0.647013
0.757125 0.149260 -0.622457
-0.157418 -0.277981 0.733098
0.293762 -0.300436 -0.636586
-0.647484 0.152650 -0.162314
-0.647947 0.151405 -0.162532
0.289626 -0.759459 -0.145154
0.759631 0.148522 -0.619222
-0.629532 -0.275452 0.311673
-0.179324 0.634585 -0.167636
0.295361 0.592434 -0.637738
-0.648322 0.149139 -0.162888
0.281492 0.182997 0.763436
-0.148683 0.645879 0.749255
0.751397 -0.308744 -0.177901
-0.592908 0.617159 0.288630
0.273328 -0.244709 0.286532
0.292423 -0.299148 -0.637453
0.750919 -0.306735 -0.176968
-0.150099 0.647859 0.748411
0.291559 -0.759772 -0.144992
0.272004 -0.245927 0.286369
0.763151 0.176277 0.294191
0.757148 0.586702 -0.179336
-0.627575 0.157956 0.743621
-0.165600 0.154803 -0.610603
-0.628440 0.156197 0.743041
0.273127 -0.243540 0.287591
0.293463 0.592280 -0.637671
0.274017 -0.242715 0.286175
-0.181768 -0.721802 0.287017
-0.156943 -0.278719 0.732054
-0.168279 -0.713748 -0.606962
-0.180881 0.630882 -0.170099
-0.628812 0.157445 0.743716
-0.647000 0.150888 -0.160898
-0.628374 0.157385 0.745539
-0.592919 0.617567 0.287528
0.273795 -0.243737 0.286004
-0.158928 -0.276484 0.733141
0.759149 0.148099 -0.619344
-0.629319 -0.273399 0.310737
0.293450 -0.300408 -0.636744
-0.181064 0.631344 -0.170022
0.291695 -0.759376 -0.145573
-0.647536 0.151991 -0.162665
-0.180479 -0.722850 0.286675
-0.646729 0.150651 -0.162538
0.272383 -0.242975 0.287539
-0.629734 0.156589 0.743896
-0.627235 -0.274991 0.310389
-0.592245 0.617072 0.288701
-0.167253 -0.713839 -0.606244
-0.158770 -0.277661 0.734344
0.755685 0.585747 -0.181608
0.754240 -0.305993 -0.177412
-0.628112 -0.734604 -0.132661
-0.149729 0.645613 0.749510
-0.628963 -0.732998 -0.132505
-0.629043 -0.275684 0.311386
0.304721 0.584767 0.268642
0.750863 -0.307305 -0.176663
0.755300 0.588259 -0.181850
0.751541 -0.306249 -0.176287
-0.156724 -0.277764 0.733415
-0.592425 0.615402 0.289004
-0.627391 -0.734893 -0.132674
-0.628766 -0.736000 -0.132470
0.291360 -0.760210 -0.146865
-0.167526 -0.713686 -0.606589
-0.627313 -0.275988 0.312062
0.289947 -0.760168 -0.144458
-0.626564 0.156875 0.742997
-0.645649 0.151059 -0.160910
-0.164401 0.154404 -0.611330
-0.646022 -0.296233 -0.644884
-0.626704 -0.735121 -0.133607
-0.592081 0.616831 0.288752
0.759898 0.149145 -0.620472
-0.627619 -0.734403 -0.132695
-0.626105 -0.734820 -0.133026
0.294377 0.592480 -0.636688
-0.157247 -0.278044 0.733503
0.764725 0.175690 0.292842
0.289260 -0.759117 -0.144993
-0.164890 0.154196 -0.610379
-0.148911 0.646453 0.749582
-0.627831 -0.274566 0.311723
0.756685 0.588747 -0.178861
-0.150634 0.646116 0.748427
-0.165864 0.155872 -0.611175
-0.645540 0.151306 -0.161058
-0.592799 0.615205 0.288861
0.291052 -0.759775 -0.144526
-0.643516 -0.296490 -0.648384
-0.627937 -0.734566 -0.135263
0.289864 -0.759332 -0.146121
0.293360 0.592325 -0.636510
0.288849 -0.759842 -0.147065
-0.166222 -0.715541 -0.605452
-0.181106 0.632095 -0.170125
-0.628267 0.157424 0.742170
-0.592285 0.615912 0.288736
0.759048 0.151427 -0.620346
0.280902 0.181033 0.762875
-0.149563 0.645906 0.749382
0.758359 0.149301 -0.619431
-0.155954 -0.275497 0.732252
-0.164264 -0.714266 -0.603712
0.759517 0.150523 -0.619482
-0.151736 0.647030 0.746831
0.302133 0.585300 0.267863
0.753045 -0.304762 -0.177817
-0.641657 -0.296462 -0.645504
-0.181829 -0.722765 0.287048
0.751709 -0.306725 -0.177486
-0.628475 -0.275204 0.309015
-0.627252 -0.275319 0.310987
0.305300 0.586757 0.269463
0.302917 0.583887 0.268634
-0.629773 -0.276812 0.310058
0.756338 0.588121 -0.180794
0.289611 -0.760843 -0.146171
