OFF
256 0 0
-0.162842 0.140271 -0.616506
0.312810 0.594691 -0.585917
-0.178068 -0.725639 0.285361
-0.160659 0.142645 -0.615143
-0.181630 0.605593 0.724468
-0.162143 0.143399 -0.616745
0.311646 0.595220 -0.587849
-0.174737 -0.720859 -0.625988
0.287945 -0.765308 -0.168168
-0.646720 0.604280 0.279972
0.291540 0.598943 0.302807
-0.156547 0.606132 -0.140210
0.739143 0.193841 0.279254
0.267759 -0.227591 0.238082
0.287775 -0.763939 -0.169016
0.270322 -0.227727 0.238793
-0.178898 -0.725538 0.287676
-0.179196 -0.725610 0.287393
-0.623799 -0.721858 -0.172231
-0.158528 0.606801 -0.142490
0.288493 -0.761251 -0.168848
0.270515 -0.228175 0.240921
-0.159292 0.606626 -0.143610
0.773011 0.609602 -0.177787
-0.178937 -0.727112 0.289099
0.775289 0.168604 -0.601070
-0.173894 -0.721817 -0.626629
0.739244 0.191414 0.278725
-0.613073 -0.279438 -0.616448
0.740941 0.191805 0.280115
0.248577 0.166033 0.732580
-0.612148 -0.279647 -0.616347
-0.613578 -0.278839 -0.618367
-0.160164 0.141497 -0.615685
-0.161506 -0.277828 0.714969
0.771118 0.610004 -0.178183
-0.618654 0.165310 0.725736
0.249326 0.165764 0.734971
0.776496 0.170563 -0.603408
0.312231 0.596854 -0.587060
-0.603832 -0.283214 0.324675
0.288804 -0.761961 -0.169086
-0.650333 0.604313 0.280395
0.773677 0.610731 -0.177244
0.314040 0.596409 -0.589069
-0.612618 -0.279694 -0.618732
0.775942 0.170417 -0.603260
-0.647524 0.603567 0.280505
-0.620122 0.166265 0.722570
0.776386 0.169714 -0.603649
-0.179744 -0.725606 0.288132
-0.182496 0.606607 0.724297
-0.621356 0.115344 -0.152715
-0.181026 0.605487 0.725356
0.755891 -0.289140 -0.143148
-0.647086 0.604871 0.278357
-0.159670 -0.277576 0.714132
-0.625383 -0.723433 -0.173412
0.286066 -0.284332 -0.601970
-0.180578 0.606173 0.725472
0.271669 -0.229432 0.240900
-0.173950 -0.719621 -0.626410
0.776754 0.171089 -0.601861
-0.155977 0.608002 -0.140919
-0.173543 -0.722398 -0.625833
0.291447 0.600619 0.303538
-0.158735 0.606609 -0.140534
-0.619535 0.166595 0.723337
-0.605623 -0.282951 0.325419
0.740295 0.195126 0.279390
-0.613458 -0.278388 -0.619089
-0.612214 -0.279947 -0.619462
0.771948 0.609472 -0.178880
0.314479 0.596643 -0.586465
-0.158106 0.605125 -0.144028
-0.159530 0.141147 -0.618616
-0.161399 0.142385 -0.615705
0.249101 0.164766 0.732080
-0.620106 0.115196 -0.153343
0.773041 0.610009 -0.179073
0.287826 -0.764347 -0.168337
-0.178239 -0.724841 0.287518
0.774912 0.169823 -0.600813
-0.161372 0.141232 -0.615858
0.314187 0.596142 -0.587227
0.290467 -0.764077 -0.168322
0.290927 0.599997 0.301502
0.291852 0.601150 0.303042
-0.173744 -0.719388 -0.626872
-0.181310 0.605736 0.723935
0.287958 -0.283911 -0.601379
-0.178012 -0.726036 0.287556
-0.182529 0.604201 0.724717
0.249372 0.167830 0.731068
-0.647152 0.605322 0.278965
0.754961 -0.286967 -0.142759
-0.162859 0.143349 -0.615664
-0.648205 0.604616 0.279202
0.775673 0.170908 -0.603751
0.754808 -0.288148 -0.142912
0.772968 0.609768 -0.177341
0.771550 0.609113 -0.178453
-0.178098 -0.725744 0.287370
-0.613744 -0.278644 -0.617668
0.776932 0.169136 -0.601877
-0.162630 -0.278200 0.714430
-0.162325 -0.278997 0.715407
-0.647673 0.605823 0.280095
0.774834 0.171320 -0.604240
0.775310 0.171654 -0.602155
-0.624502 -0.720417 -0.172008
0.289131 -0.764238 -0.168609
0.249198 0.164914 0.732097
-0.612468 -0.279035 -0.617986
0.288799 -0.285165 -0.602052
-0.623138 -0.722932 -0.171409
-0.157485 0.605258 -0.141422
0.289819 0.600803 0.302673
-0.612471 -0.279254 -0.619281
0.771725 0.609674 -0.176657
-0.603423 -0.284546 0.324798
0.742732 0.191816 0.279668
0.740124 0.195663 0.278453
0.249327 0.165004 0.733158
-0.161458 -0.278597 0.714822
0.775138 0.169924 -0.601662
0.773129 0.607991 -0.178186
0.753629 -0.289427 -0.143356
0.311200 0.597186 -0.589577
-0.181982 0.607188 0.724926
0.314275 0.596898 -0.586519
0.775356 0.169406 -0.602493
-0.159480 0.604936 -0.141018
-0.174328 -0.719229 -0.624981
0.248995 0.164804 0.734172
-0.624031 -0.722021 -0.170382
-0.180463 -0.725570 0.286950
-0.612990 -0.278988 -0.616909
0.774310 0.170598 -0.603030
0.287677 -0.283278 -0.599565
-0.648520 0.605451 0.279599
-0.161760 -0.276980 0.714213
-0.646912 0.604996 0.279257
-0.175228 -0.719833 -0.625437
-0.648876 0.604177 0.280124
0.773272 0.609987 -0.179073
-0.621081 0.113151 -0.150199
0.271036 -0.228668 0.238853
0.249701 0.166441 0.731824
-0.625379 -0.722283 -0.171746
-0.158959 0.606844 -0.140916
-0.620248 0.116837 -0.150791
0.290970 -0.763602 -0.171091
0.289175 -0.285571 -0.603918
-0.621291 0.115316 -0.151429
-0.172865 -0.720552 -0.628054
-0.613596 -0.280583 -0.619361
-0.172899 -0.720057 -0.625774
-0.624716 -0.721120 -0.171311
0.774860 0.170340 -0.601223
-0.624814 -0.720479 -0.171549
0.250686 0.165360 0.731667
-0.179367 -0.726300 0.289036
-0.163406 0.145042 -0.617914
-0.647620 0.604510 0.279685
-0.621833 0.116116 -0.152465
-0.182394 0.606401 0.724638
0.287455 -0.762432 -0.169849
-0.158253 0.141789 -0.616371
-0.157262 0.608274 -0.141067
0.775827 0.169612 -0.601881
-0.618539 0.166120 0.724730
0.312724 0.597419 -0.586965
0.270008 -0.228756 0.237879
-0.618893 0.166235 0.725301
-0.603446 -0.285619 0.324653
-0.183051 0.606957 0.723997
0.313945 0.596767 -0.587838
-0.155656 0.607755 -0.140113
0.313519 0.595923 -0.587912
-0.620417 0.115188 -0.152923
0.756655 -0.289165 -0.143300
-0.182908 0.605644 0.724871
-0.179246 -0.726628 0.287471
-0.158372 0.604894 -0.143156
0.288434 -0.763075 -0.167665
-0.603217 -0.285306 0.327152
-0.161626 0.141408 -0.616585
-0.621268 0.113914 -0.151879
-0.614398 -0.278759 -0.615799
-0.178792 -0.724789 0.286667
-0.181610 0.606808 0.723232
-0.177113 -0.726290 0.287987
-0.173528 -0.720818 -0.625342
-0.616820 0.165570 0.725468
-0.183374 0.605973 0.725721
0.249446 0.163248 0.732838
0.288632 -0.285590 -0.601892
-0.173528 -0.721073 -0.626939
0.756865 -0.289340 -0.144531
-0.625386 -0.724032 -0.170060
-0.623058 -0.722859 -0.171512
-0.161219 0.144551 -0.614695
0.775036 0.170775 -0.602609
-0.622450 0.112867 -0.149869
-0.620881 0.113849 -0.151123
0.291519 0.599981 0.301598
-0.160624 0.139969 -0.616657
-0.179806 -0.727806 0.288186
-0.619002 0.166447 0.725165
0.292005 0.601893 0.304837
0.288364 -0.285755 -0.602026
0.738962 0.193757 0.279987
0.289824 -0.763233 -0.171206
0.776812 0.170203 -0.602222
-0.181772 0.606571 0.723350
0.740865 0.193696 0.278113
-0.179936 -0.726123 0.288057
0.740770 0.194284 0.277656
-0.177726 -0.726282 0.287331
0.288929 -0.765609 -0.170810
0.775749 0.169609 -0.601946
-0.182072 0.606970 0.724103
0.740947 0.195870 0.279576
-0.620648 0.116491 -0.152374
-0.647941 0.604966 0.280271
-0.157864 0.607561 -0.140750
0.753360 -0.289102 -0.143315
0.249856 0.165668 0.730874
-0.179931 -0.724391 0.288295
-0.647427 0.604622 0.280130
-0.157956 0.604969 -0.140928
-0.159352 0.607848 -0.142017
0.287359 -0.284148 -0.602127
0.315517 0.595855 -0.588008
0.290382 0.600437 0.301600
-0.182880 0.605224 0.724853
0.286990 -0.283703 -0.601950
-0.612581 -0.277810 -0.618289
0.315304 0.596366 -0.586294
-0.181971 0.604335 0.722566
-0.619818 0.166604 0.725519
0.249976 0.164193 0.731568
0.251014 0.165864 0.733106
-0.177191 -0.726555 0.287786
0.777519 0.169702 -0.601916
0.313854 0.594665 -0.588691
0.288197 -0.285225 -0.602766
-0.621380 0.113681 -0.151726
-0.607102 -0.282804 0.327244
-0.182909 0.605846 0.723591
0.312606 0.598297 -0.587168
0.739303 0.193893 0.279398
0.313186 0.598337 -0.587526
-0.619412 0.167751 0.724437
-0.179307 -0.724389 0.287182
