OFF
256 0 0
0.303177 0.174206 0.751725
-0.616967 -0.281056 -0.632261
-0.647858 -0.723873 -0.178836
-0.631785 0.135735 -0.169407
-0.616729 -0.291189 0.300081
0.268558 -0.721678 -0.194420
-0.616557 -0.279475 -0.634183
0.267749 -0.721066 -0.195051
0.262985 -0.275049 0.298547
0.298318 -0.266691 -0.621977
-0.173794 -0.746576 -0.642941
0.271961 0.605741 0.283299
-0.632777 0.134209 -0.169774
-0.646241 -0.724385 -0.181513
0.300475 -0.266480 -0.621562
-0.157225 0.157155 -0.645237
-0.595325 0.622953 0.311833
-0.152913 -0.267281 0.738967
-0.593324 0.624692 0.308821
-0.152798 -0.268473 0.739824
-0.169447 0.589120 -0.164883
0.267270 -0.722086 -0.192994
0.269911 -0.721201 -0.193039
-0.149224 0.590397 0.741758
0.748018 0.173703 0.284832
0.299344 -0.266266 -0.622997
0.741402 0.624976 -0.173053
-0.147549 0.587838 0.742874
-0.172098 -0.746359 -0.644147
0.299670 -0.265464 -0.620134
0.303678 0.173790 0.750890
0.275294 0.618517 -0.586220
-0.597836 0.623666 0.311367
-0.633064 0.134579 -0.170321
0.270918 0.604086 0.283920
-0.619707 0.146412 0.756888
-0.615626 -0.280325 -0.634569
-0.616462 -0.279256 -0.634612
0.276796 0.618647 -0.584443
-0.635056 0.135017 -0.170677
-0.647351 -0.725156 -0.179799
0.275524 0.619677 -0.587937
0.272521 0.621023 -0.586460
0.270804 0.605707 0.282290
0.742612 0.623486 -0.172726
-0.633603 0.134301 -0.171698
-0.154623 -0.268198 0.737625
0.273715 0.619585 -0.587351
-0.174785 -0.746678 -0.642774
-0.620207 0.146510 0.753703
-0.154401 0.158649 -0.646109
-0.167670 -0.740306 0.291726
0.300947 0.172720 0.749978
0.300383 0.173927 0.749516
-0.153534 -0.267048 0.738872
-0.615911 -0.280301 -0.635116
-0.631597 0.134661 -0.170666
-0.153937 -0.265356 0.738448
0.270078 0.606038 0.283260
-0.145771 0.587746 0.742256
-0.172895 -0.748045 -0.641130
-0.616084 -0.279625 -0.635850
-0.616387 -0.280970 -0.635660
0.261047 -0.276041 0.299262
-0.596450 0.624994 0.309257
0.747736 0.174330 0.284643
0.763780 0.174108 -0.601605
0.763566 0.174524 -0.600502
-0.170895 -0.740323 0.288992
0.766953 -0.301405 -0.141051
-0.596861 0.622585 0.309827
0.748741 0.174829 0.284858
0.765509 -0.302739 -0.138331
0.768353 -0.300127 -0.139810
0.741350 0.624619 -0.173717
0.761154 0.174623 -0.601621
-0.600354 0.623553 0.311322
0.766010 -0.300747 -0.140856
-0.168221 0.590648 -0.165333
0.741214 0.625213 -0.171988
0.766512 -0.300058 -0.143401
-0.147341 0.588992 0.742186
0.299563 -0.264573 -0.622438
0.766966 -0.302019 -0.140977
-0.632562 0.134110 -0.170367
-0.148713 0.588606 0.743258
-0.153898 -0.266965 0.738307
-0.168632 0.590595 -0.162775
-0.170904 0.591010 -0.164243
-0.597650 0.623749 0.310525
0.762791 0.174531 -0.603228
-0.631331 0.135913 -0.170990
0.264503 -0.275025 0.297931
-0.146690 0.590194 0.741865
0.299512 0.174533 0.747511
0.298310 -0.265844 -0.620793
-0.169578 0.591342 -0.163032
-0.148739 0.589883 0.741989
0.748290 0.175183 0.285418
0.767106 -0.301029 -0.141046
-0.168488 0.592336 -0.163569
0.299322 0.173823 0.747447
0.741990 0.627149 -0.173142
0.748046 0.174802 0.285913
-0.169484 -0.740049 0.290170
-0.615739 -0.279294 -0.634018
-0.633674 0.136186 -0.169291
0.741965 0.622946 -0.172493
-0.620991 0.146398 0.755245
-0.174612 -0.747012 -0.643767
0.740476 0.624221 -0.174338
-0.648531 -0.723424 -0.179405
0.264658 -0.276155 0.297362
0.298021 -0.265536 -0.621683
-0.613998 -0.279021 -0.634620
0.300161 -0.267422 -0.623802
0.275071 0.619235 -0.585441
-0.170123 0.590498 -0.162736
0.261947 -0.276188 0.297118
-0.146458 0.590578 0.743032
-0.614946 -0.291718 0.299272
0.268939 0.606400 0.282339
-0.616419 -0.278613 -0.633771
-0.153099 -0.266047 0.738665
0.767256 -0.302904 -0.141341
-0.616418 -0.279595 -0.636077
-0.169056 0.590510 -0.163736
0.766047 -0.302139 -0.140688
-0.615301 -0.278622 -0.635038
0.268014 -0.719954 -0.192164
0.262419 -0.277085 0.296923
-0.598571 0.624035 0.310222
-0.630510 0.135504 -0.168490
0.747874 0.174422 0.284278
-0.168065 0.590023 -0.165172
-0.619828 0.147252 0.754799
0.266463 -0.721661 -0.194487
-0.145112 0.588973 0.744992
0.267169 -0.721059 -0.192102
-0.172337 -0.748331 -0.644466
0.741525 0.624272 -0.174458
-0.145994 0.590579 0.743010
0.302257 0.173957 0.750759
0.762297 0.176323 -0.603537
0.762667 0.174905 -0.603652
0.767368 -0.302493 -0.139830
-0.171995 -0.747971 -0.642680
0.298937 -0.268133 -0.621932
-0.646637 -0.724362 -0.180962
0.741918 0.625171 -0.174496
0.262837 -0.276944 0.297733
0.740246 0.624731 -0.173260
-0.168784 -0.739882 0.290372
0.268379 -0.721240 -0.194037
-0.647154 -0.724900 -0.178676
0.275298 0.621055 -0.585253
-0.615713 -0.281751 -0.634361
-0.597146 0.622742 0.312223
-0.615707 -0.278946 -0.635020
-0.646921 -0.723201 -0.179579
-0.612819 -0.291264 0.297756
-0.169792 0.589989 -0.163092
-0.632995 0.135327 -0.168823
0.263645 -0.276649 0.297429
-0.155338 0.155680 -0.645034
-0.168962 -0.739014 0.291783
-0.154539 0.155396 -0.647058
-0.617784 -0.279553 -0.635735
-0.167348 -0.739307 0.290233
0.266447 -0.721325 -0.192904
-0.172856 -0.746398 -0.643125
-0.168673 0.590694 -0.164378
0.299676 -0.267070 -0.621164
-0.616856 -0.280551 -0.634313
-0.168512 0.591808 -0.164179
-0.169888 0.590159 -0.165418
0.263150 -0.274019 0.296628
-0.620631 0.146660 0.755338
0.766691 -0.303589 -0.140886
-0.168841 -0.737785 0.290754
0.298766 -0.266063 -0.622660
-0.168696 -0.740367 0.289623
0.264455 -0.276318 0.297993
-0.170518 0.592044 -0.164460
0.271175 0.604491 0.281365
0.267167 -0.721069 -0.194572
-0.148205 0.590682 0.743661
-0.147704 0.590364 0.743850
-0.632093 0.134200 -0.169851
-0.155740 0.156988 -0.645330
-0.166895 -0.739063 0.289293
0.263017 -0.277508 0.296581
0.301302 0.173966 0.749421
-0.620952 0.147872 0.756684
0.747820 0.172989 0.286420
0.766947 -0.302482 -0.141190
0.264355 -0.277563 0.297578
0.297479 -0.266474 -0.622896
-0.169122 -0.741021 0.289974
0.263350 -0.274722 0.297310
0.749403 0.174185 0.285183
-0.148801 0.589243 0.741733
0.268037 -0.721426 -0.192398
-0.154276 -0.265488 0.739691
0.269307 0.605387 0.281832
-0.146999 0.589176 0.741846
-0.168551 -0.740400 0.289446
0.268372 -0.722032 -0.191390
0.766968 -0.303147 -0.139929
-0.146321 0.589211 0.743280
-0.168958 0.589697 -0.164752
0.298885 -0.265596 -0.623206
-0.168305 -0.740109 0.291775
0.298908 -0.265892 -0.621095
-0.614110 -0.291902 0.298583
0.303054 0.172419 0.749623
0.267696 -0.720643 -0.193387
-0.169321 -0.740154 0.290829
-0.616317 -0.281839 -0.634514
-0.170648 0.591957 -0.165567
0.768110 -0.302224 -0.138953
0.267581 -0.721142 -0.191449
-0.618740 0.144630 0.754932
-0.596348 0.622434 0.313595
0.261511 -0.276143 0.296815
-0.619541 0.146977 0.754242
0.301582 0.173638 0.748694
0.270499 0.605961 0.282164
-0.144976 0.590070 0.742691
-0.615710 -0.292220 0.298971
-0.618390 0.147093 0.756266
-0.168911 -0.738865 0.289880
0.265046 -0.275011 0.296920
0.768614 -0.300740 -0.139658
0.762793 0.175656 -0.602125
-0.616064 -0.292755 0.298582
0.271783 0.606188 0.280759
-0.614936 -0.291981 0.296767
0.740371 0.626039 -0.173655
-0.154374 -0.267575 0.738748
-0.173546 -0.746289 -0.642520
0.273804 0.621422 -0.586055
-0.150475 -0.268263 0.739357
0.766285 -0.302889 -0.141590
0.261035 -0.275328 0.297314
-0.174953 -0.748452 -0.640671
0.299677 -0.266143 -0.621689
-0.156139 0.158204 -0.644505
-0.167005 -0.739371 0.291830
-0.614254 -0.291925 0.298665
0.274925 0.617789 -0.587687
-0.647591 -0.722873 -0.180799
-0.155452 0.157149 -0.644759
-0.619004 0.145092 0.755733
0.765984 -0.301825 -0.141491
-0.145658 0.589139 0.743967
