OFF
256 0 0
0.255673 0.302580 0.284374
0.256652 0.300398 0.285027
-0.636202 -0.185326 0.747247
0.293815 -0.635675 -0.617083
-0.609338 0.305330 0.287552
-0.589421 0.762322 -0.155414
0.779324 -0.155503 -0.607271
-0.615330 -0.182875 -0.158845
-0.637004 -0.185785 0.746976
-0.174433 -0.660424 -0.185478
0.761375 -0.622833 -0.166748
0.304103 0.290183 -0.634367
0.697717 -0.146745 0.275234
0.284037 0.757231 -0.185092
-0.614761 -0.183164 -0.161905
0.261133 -0.617324 0.295620
-0.181992 0.314283 0.757699
0.698567 -0.145487 0.273041
-0.179688 0.313696 0.758640
0.303963 0.289668 -0.634485
0.255464 0.301896 0.284738
0.698656 -0.145909 0.275037
-0.173491 -0.661188 -0.186797
-0.636462 -0.184189 0.748824
-0.614942 -0.181006 -0.162404
0.253517 0.301105 0.284218
0.260808 -0.617771 0.294118
0.262499 -0.617040 0.294672
0.284204 0.755492 -0.186330
0.302532 0.291120 -0.634686
0.760113 0.303727 -0.152767
-0.161120 0.730879 -0.621948
0.275761 -0.154397 0.762101
-0.608101 0.304289 0.287379
0.696389 -0.146918 0.272529
-0.134728 -0.169980 -0.597125
0.699037 -0.147512 0.272537
0.294254 -0.637921 -0.615952
0.283617 0.755208 -0.185301
0.761533 -0.624023 -0.164788
-0.605070 0.304621 0.287640
-0.621324 -0.656340 0.278972
0.698379 -0.148284 0.274470
-0.133895 -0.169888 -0.599744
-0.198424 -0.621440 0.736423
-0.619912 -0.656257 0.278314
-0.158478 0.765197 0.294529
0.763050 0.302224 -0.152077
0.294534 -0.636063 -0.615848
-0.593479 0.280873 -0.634663
-0.199558 -0.621243 0.734849
0.294374 -0.636735 -0.615744
-0.174147 -0.661448 -0.184796
-0.638087 -0.184975 0.748971
0.779465 -0.156222 -0.608150
0.253514 0.302272 0.285016
0.759035 -0.625732 -0.164914
-0.161032 0.732496 -0.625359
-0.614895 -0.184203 -0.159608
0.278653 -0.154873 0.761703
-0.594688 0.281737 -0.634994
0.305062 0.289431 -0.632886
0.254226 0.301333 0.284632
0.763468 0.302870 -0.151682
0.262672 -0.617951 0.295867
0.779987 -0.156530 -0.606747
0.759980 -0.624375 -0.165531
0.761141 0.302528 -0.150524
-0.160461 0.734851 -0.623293
-0.590345 0.762700 -0.155700
0.283168 0.756441 -0.184406
0.276864 -0.155701 0.763152
0.284226 0.755331 -0.183515
-0.588992 0.761586 -0.155732
0.305359 0.288014 -0.634518
-0.593710 0.280502 -0.633720
0.262643 -0.615704 0.295071
-0.614771 -0.182881 -0.161513
0.284979 0.757076 -0.185328
0.777703 -0.154850 -0.608491
-0.160607 0.732038 -0.622030
0.305014 0.291043 -0.633599
-0.136558 -0.170272 -0.598928
-0.174010 -0.661695 -0.185613
-0.174554 -0.660052 -0.183435
-0.173085 -0.659390 -0.182795
-0.158413 0.765818 0.296530
0.277865 -0.153297 0.760997
0.293686 -0.637130 -0.615676
-0.172610 -0.658314 -0.184196
0.294272 -0.636870 -0.616206
0.303183 0.289913 -0.632616
-0.135376 -0.170551 -0.599479
-0.159472 0.732614 -0.623621
0.284456 0.757357 -0.184924
-0.173735 -0.659766 -0.185258
-0.621531 -0.656413 0.279804
-0.596281 0.280893 -0.633066
0.260196 -0.617622 0.293855
-0.607992 0.304828 0.288727
0.255051 0.300738 0.285813
0.276943 -0.153768 0.762021
-0.179641 0.315425 0.756654
0.293706 -0.637373 -0.618744
0.762263 0.302687 -0.152455
0.294525 -0.635848 -0.616339
0.277502 -0.154516 0.761717
-0.595694 0.281315 -0.633879
-0.174669 -0.660077 -0.183794
-0.174474 -0.661203 -0.185353
-0.613448 -0.182217 -0.160399
0.778223 -0.152626 -0.609496
-0.590990 0.762595 -0.157310
0.252964 0.301121 0.285451
-0.160601 0.767536 0.295423
-0.611023 0.305278 0.287508
-0.198979 -0.622436 0.735423
0.760125 0.301724 -0.151758
-0.607104 0.304694 0.286973
-0.620179 -0.656113 0.277785
-0.133679 -0.171548 -0.599637
-0.134023 -0.170257 -0.597687
0.285307 0.755293 -0.186095
0.260606 -0.616707 0.295528
-0.589436 0.761815 -0.155710
0.761797 0.302889 -0.153116
-0.158775 0.765493 0.296524
0.262281 -0.618369 0.295335
0.275643 -0.156047 0.761014
-0.636231 -0.184338 0.747303
0.254802 0.302585 0.283723
0.699370 -0.144565 0.273752
0.762506 -0.626195 -0.165335
0.777246 -0.154491 -0.606406
-0.134977 -0.169864 -0.599446
-0.133900 -0.170734 -0.600002
-0.178669 0.312916 0.757019
-0.160898 0.765283 0.295790
-0.606702 0.304252 0.288844
0.282989 0.756222 -0.185349
0.260904 -0.616774 0.295695
-0.135686 -0.169857 -0.597623
-0.136407 -0.171223 -0.599435
-0.161381 0.733614 -0.623266
0.700928 -0.147147 0.273813
0.293029 -0.636617 -0.616731
0.779961 -0.156230 -0.606293
0.293166 -0.635286 -0.618157
0.277214 -0.153679 0.760119
-0.614575 -0.184134 -0.161543
0.759792 0.301216 -0.153115
-0.160916 0.732495 -0.622481
0.275678 -0.154913 0.760071
0.301303 0.288704 -0.635037
0.254084 0.300698 0.284985
0.761465 0.303441 -0.151764
-0.200653 -0.623615 0.737566
-0.199892 -0.621802 0.736756
0.758618 -0.625194 -0.166301
0.760443 -0.625170 -0.164124
0.260378 -0.616137 0.294652
-0.175531 -0.660643 -0.185786
-0.589317 0.763108 -0.154637
0.277177 -0.152789 0.762631
0.253989 0.304545 0.283997
0.762274 -0.624257 -0.165977
-0.174493 -0.660329 -0.184182
-0.200398 -0.620555 0.736924
0.275671 -0.155826 0.759537
-0.621338 -0.657829 0.276370
-0.160027 0.733204 -0.621518
0.779812 -0.155745 -0.607104
-0.198619 -0.620876 0.736970
-0.200300 -0.621118 0.735271
-0.161588 0.733059 -0.621918
-0.174169 -0.660555 -0.185500
-0.589942 0.761970 -0.156849
-0.615336 -0.182707 -0.160190
0.255360 0.302194 0.284717
0.262059 -0.615341 0.294776
0.261198 -0.615371 0.294038
-0.160627 0.730738 -0.621732
0.286009 0.754737 -0.183113
0.285429 0.756408 -0.184650
-0.594988 0.282232 -0.634094
0.262733 -0.615755 0.295193
-0.181180 0.313666 0.755007
-0.159666 0.732570 -0.621899
-0.595638 0.281605 -0.633214
-0.134535 -0.168925 -0.598776
0.277689 -0.153885 0.760229
-0.618541 -0.656990 0.280254
-0.200061 -0.621910 0.734570
0.762456 0.303316 -0.154113
-0.593946 0.281184 -0.634875
-0.636900 -0.184930 0.749039
0.255813 0.302108 0.284558
-0.616199 -0.184445 -0.158001
-0.198022 -0.621612 0.736819
-0.614659 -0.183429 -0.161846
-0.591377 0.763589 -0.155828
0.255627 0.302956 0.284272
0.764072 0.302387 -0.152871
0.696953 -0.146588 0.273903
-0.162129 0.732123 -0.621531
0.282619 0.755459 -0.184136
-0.595880 0.281906 -0.634565
0.760251 -0.623507 -0.164659
-0.198954 -0.622352 0.736151
0.303146 0.290759 -0.634052
0.278623 -0.154195 0.761742
0.261214 -0.615901 0.294266
-0.159241 0.765654 0.294184
-0.135101 -0.168996 -0.597669
-0.179057 0.314102 0.755765
-0.180464 0.313435 0.755185
-0.589200 0.760817 -0.156698
0.277054 -0.153196 0.761683
-0.621103 -0.657379 0.277500
0.763870 0.303322 -0.152925
0.295350 -0.634679 -0.615435
0.295523 -0.636975 -0.614175
0.262396 -0.616707 0.294523
-0.615230 -0.182084 -0.158737
-0.614834 -0.184391 -0.162671
-0.590674 0.762293 -0.155498
-0.621044 -0.657637 0.278790
-0.635748 -0.185035 0.749257
-0.593813 0.281906 -0.632404
-0.591759 0.760245 -0.157769
-0.593952 0.281008 -0.633449
-0.591315 0.762708 -0.155620
0.293884 -0.635435 -0.616435
0.260330 -0.616912 0.292387
0.698774 -0.146233 0.274407
-0.589232 0.761131 -0.155244
0.283978 0.756701 -0.185718
-0.135227 -0.171224 -0.597272
0.698346 -0.144048 0.273541
0.761454 -0.624599 -0.165356
0.697065 -0.147583 0.273685
0.759392 -0.624311 -0.167322
-0.159079 0.765972 0.295622
0.697716 -0.147318 0.273991
-0.177279 -0.661493 -0.185017
-0.590131 0.762589 -0.154778
0.262297 -0.615672 0.294340
0.759313 -0.624334 -0.166839
0.260173 -0.617379 0.294248
-0.637443 -0.183303 0.747393
-0.174684 -0.660709 -0.185800
0.761326 0.303083 -0.152524
0.262991 -0.617470 0.295228
-0.132836 -0.171468 -0.598195
0.761048 0.302707 -0.154214
-0.179528 0.315942 0.758492
