OFF
256 0 0
0.230178 -0.689312 0.687112
-0.687524 -0.228909 0.228479
-0.228268 0.687797 0.690494
0.687534 0.688646 -0.230068
-0.687275 -0.230823 0.231028
0.688320 -0.231256 -0.227801
0.687347 0.688373 -0.228550
0.230285 0.229296 0.687370
0.689514 0.230913 0.229180
-0.229491 -0.229428 0.687560
-0.230916 -0.688226 0.228970
-0.227949 -0.686741 0.229282
0.686987 -0.230268 0.688509
0.687600 -0.229029 0.689242
0.689660 0.230199 -0.687092
-0.230153 0.686677 0.686697
0.689074 -0.228473 -0.227925
0.229814 -0.687766 -0.226702
0.687946 0.688834 -0.228590
-0.229265 0.229029 -0.686189
0.688557 -0.229121 0.688474
0.687157 -0.229330 -0.228167
-0.686849 -0.690361 -0.229977
-0.687725 -0.688165 -0.229273
0.229866 0.688180 -0.687406
0.688579 0.227861 -0.686861
0.688107 0.228562 -0.688575
0.687985 0.230176 -0.689387
-0.689199 0.229727 0.687218
-0.230289 -0.687806 0.230786
-0.689520 -0.687221 -0.229104
-0.231478 0.689028 0.687428
-0.227685 -0.689327 -0.688698
0.228358 -0.688830 0.686906
-0.229998 0.688986 -0.231944
0.228259 0.229021 0.689812
-0.686193 0.230317 0.689967
-0.229305 0.230175 -0.687486
-0.687879 -0.688121 -0.228602
-0.228685 -0.689266 -0.689696
0.687775 -0.687974 0.229864
0.229765 0.689286 -0.688072
0.689129 -0.230753 0.687941
0.229118 -0.687327 -0.229908
-0.686671 0.228254 -0.228519
-0.687232 -0.229814 0.232001
0.689166 -0.687551 0.230264
-0.228866 0.688924 -0.229353
-0.687946 -0.689883 -0.229051
-0.688626 -0.687856 -0.230411
0.229821 -0.688722 0.689935
0.228975 0.689389 -0.689291
-0.229044 -0.229354 0.687255
0.687674 0.228442 0.228206
-0.686021 0.686490 0.228009
-0.229868 -0.688196 -0.688321
0.686973 -0.687045 0.228852
-0.687304 0.231034 0.687961
0.688016 -0.228163 -0.229370
0.689064 -0.688574 0.228660
-0.227770 -0.686795 0.230896
-0.231392 0.687535 -0.229974
-0.230249 -0.688326 -0.689321
0.688481 0.687051 -0.229309
-0.687778 0.229835 0.687948
0.688743 -0.229939 0.687919
-0.689057 0.228214 0.687806
0.230373 -0.226799 -0.689563
-0.689968 0.228188 0.686832
-0.687521 0.686953 0.231119
-0.687628 -0.689179 -0.231247
0.230484 0.229014 0.688306
0.688257 -0.229922 -0.227908
0.688608 0.228859 0.230114
-0.229596 -0.229923 0.687716
0.687796 -0.685967 0.229234
-0.687644 0.689441 0.229029
0.689473 -0.228823 -0.229185
0.688546 -0.228991 -0.229102
0.688868 0.688005 -0.228864
-0.229889 -0.689104 0.229779
0.689033 -0.688143 0.228972
0.689142 -0.689110 0.227864
-0.686783 0.686897 0.229690
-0.687136 0.230519 0.688945
0.231096 0.688620 -0.689679
0.229393 0.688901 0.231202
-0.687634 -0.229619 -0.689197
0.228357 -0.230851 -0.688945
0.688994 -0.688500 0.228270
0.228440 -0.689423 0.688362
-0.229176 -0.689635 0.230536
-0.688383 0.229957 0.686982
0.229372 -0.688070 -0.228373
0.686471 -0.229754 -0.228619
0.230590 0.228481 0.689068
0.686751 0.690939 -0.229220
-0.688181 -0.228900 -0.688372
0.228949 -0.687293 0.688072
0.228526 0.689163 0.229727
0.688729 -0.229447 -0.229353
-0.229371 -0.688314 0.230212
0.687478 -0.230382 0.689310
0.230246 0.688298 -0.689011
0.688812 0.230683 0.228010
-0.687543 -0.688139 -0.229540
0.231683 0.686184 0.230149
-0.687817 -0.688780 -0.229078
0.690422 0.227269 -0.687932
0.687302 -0.687673 0.230648
-0.689306 0.230094 -0.229212
0.229469 -0.689038 -0.230628
0.228787 -0.687350 -0.228790
0.689030 -0.229133 0.688581
-0.230103 -0.687869 -0.688996
0.688860 -0.228309 0.689451
-0.228598 0.229553 -0.686282
-0.687973 -0.230866 0.230261
-0.229384 0.227512 -0.687122
0.230757 0.228255 0.688849
-0.689009 -0.229261 0.228477
-0.688591 -0.689403 -0.229657
0.688207 0.686658 -0.229565
-0.688607 -0.228985 0.229667
0.229992 0.688363 0.228808
0.230375 -0.689613 0.687872
-0.228813 -0.229070 0.687938
-0.688657 -0.228926 0.229809
0.689086 0.229177 0.229396
0.687929 -0.228667 0.687663
0.229755 0.688272 -0.690506
0.688193 -0.228358 0.688673
-0.690082 0.229134 -0.228477
-0.229278 0.689103 -0.230283
0.689215 0.227475 0.229674
-0.228478 -0.689025 -0.687869
0.229932 0.688742 -0.687320
-0.227357 0.229289 -0.689245
0.229436 -0.229996 -0.688441
-0.687553 0.229842 0.687983
-0.228571 -0.689917 0.230467
0.687526 0.228835 -0.688901
0.687884 -0.686988 0.230409
0.229204 0.688656 -0.688289
0.228725 -0.227406 -0.688097
-0.229661 0.687128 0.687771
-0.228401 0.687574 0.686990
0.686831 0.229414 0.229413
0.689961 -0.229696 0.688699
-0.229992 -0.689719 0.229490
-0.687302 -0.689011 -0.229353
0.229369 -0.686553 0.690380
-0.229486 -0.686642 -0.686832
-0.228194 0.227960 -0.688877
-0.230555 -0.230144 0.688787
-0.689420 -0.687464 -0.228137
-0.687738 0.228350 -0.228397
0.688317 -0.231448 -0.227697
0.229521 0.688512 0.228576
0.229970 -0.688987 -0.228749
-0.687982 -0.229068 0.230185
0.687584 -0.687262 0.228524
-0.687790 -0.688395 -0.229858
-0.230997 0.688177 0.689433
-0.228866 -0.689063 -0.690426
0.229599 0.230489 0.688097
-0.686683 0.688237 0.230468
0.686809 0.229060 0.229179
0.686898 -0.687303 0.230062
0.686897 -0.229033 0.688559
0.229233 0.230319 0.688270
-0.230657 0.228587 -0.687528
-0.228302 -0.689764 -0.688574
-0.688063 -0.689112 -0.227622
0.230264 0.688757 0.229744
0.229319 -0.688600 0.690492
-0.230065 0.230377 -0.690119
-0.229607 -0.229729 0.687978
-0.228693 -0.229659 0.689565
0.689940 0.228338 -0.690536
0.229312 0.687779 0.228221
-0.227483 0.690096 0.689110
-0.687546 0.230049 -0.229080
0.688616 0.228740 -0.687343
0.687907 0.230623 -0.687377
-0.227986 -0.688486 -0.687975
-0.228856 -0.688736 -0.687504
0.688845 -0.689088 0.229681
0.688253 0.229229 -0.688261
0.688591 -0.229811 0.687919
0.228143 -0.689318 0.689572
0.227728 -0.688522 0.688466
0.688607 0.229375 -0.688612
-0.688859 0.230015 0.687955
0.689882 0.687268 -0.228068
0.688133 0.229167 0.230425
0.686835 -0.689384 0.227450
-0.230903 0.228565 -0.688900
0.688778 0.231419 -0.686630
0.228129 0.230148 0.687985
-0.229612 0.687481 0.686248
0.685689 0.228585 -0.688116
0.229465 -0.227227 -0.689221
0.687049 -0.228866 0.688571
0.228997 0.687823 0.229923
0.687808 -0.227108 0.688785
-0.688167 0.689603 0.229839
-0.690423 0.228897 0.686404
-0.229861 -0.687574 0.227578
0.688429 0.229533 -0.688321
-0.229122 0.690461 -0.230341
0.688756 -0.687646 0.229023
-0.687179 -0.230486 -0.687792
-0.229187 0.229994 -0.688299
-0.230257 -0.687476 -0.688231
0.227975 0.228673 0.688190
0.687854 -0.689972 0.229402
0.687517 -0.688686 0.227689
0.687109 -0.228065 -0.229169
-0.687623 -0.230476 0.228887
-0.229951 -0.231115 0.686768
-0.229797 -0.688890 0.230131
0.685653 0.685820 -0.229468
-0.688012 0.229584 -0.229841
-0.687028 -0.229516 0.229993
0.686933 0.230068 -0.686858
-0.688629 0.231510 -0.228505
0.228238 0.687633 0.229036
-0.689052 -0.230505 -0.688548
0.686865 -0.227723 0.688656
0.229741 0.229908 0.688025
0.229942 -0.689109 -0.230015
0.688982 0.229915 0.229658
0.230163 -0.689019 0.688345
-0.229815 -0.687414 0.231083
0.687329 0.689045 -0.229186
-0.688675 0.228669 -0.228352
0.688978 -0.228920 -0.229330
0.689737 0.229014 -0.689772
-0.687056 0.228468 -0.228537
0.230094 0.688265 0.229814
0.690214 0.228446 -0.689040
0.230418 -0.689377 -0.231406
-0.230198 -0.687940 0.229717
-0.229486 -0.688590 0.230441
0.686524 -0.228136 -0.228492
0.687581 0.688580 -0.228322
-0.229068 -0.687387 -0.690279
-0.687946 -0.228929 -0.688517
-0.231570 -0.688519 -0.689200
0.689313 0.688189 -0.230714
0.690293 -0.229711 -0.231078
-0.228196 0.228878 -0.687257
0.230501 0.687733 -0.688779
-0.688524 0.229002 0.689020
0.688024 0.686836 -0.228975
