OFF
256 0 0
0.642367 -0.633745 0.212726
-0.226195 -0.652208 -0.680042
-0.230125 0.211444 -0.653180
-0.661962 0.647362 0.218904
0.646713 0.228289 0.244046
-0.677184 -0.634010 -0.218097
-0.631889 0.219043 0.683862
0.234757 0.629485 -0.666845
-0.664574 0.648342 0.218553
0.230261 0.680389 0.206896
-0.662339 0.645938 0.216577
0.224080 -0.192073 -0.627811
-0.661534 0.647261 0.216496
-0.663227 0.647097 0.218250
-0.631580 0.218639 0.683468
-0.212039 0.641322 -0.215542
-0.690856 -0.239736 -0.681797
-0.665958 0.647007 0.217221
0.229204 -0.681436 0.664851
-0.646568 -0.195613 0.212389
0.635003 -0.223769 0.692608
0.229034 -0.681527 0.664016
0.188846 -0.658465 -0.216051
-0.688218 0.200748 -0.240060
0.189373 -0.656606 -0.216272
0.684131 -0.232011 -0.235948
-0.173490 -0.233448 0.664441
0.696422 0.226317 -0.666529
-0.231307 0.210811 -0.654107
-0.689001 0.201944 -0.240432
-0.631602 0.216777 0.684393
0.204830 0.223354 0.645235
-0.213309 0.643265 -0.215405
0.668174 0.668706 -0.229437
-0.644856 -0.192934 0.211538
0.635290 -0.226015 0.690854
0.189423 -0.659214 -0.216239
0.695579 0.229466 -0.668462
-0.226036 -0.653913 -0.680079
0.646814 0.226114 0.244521
-0.688071 0.201309 -0.239385
0.187145 -0.657440 -0.218722
0.189783 -0.660060 -0.216606
0.695840 0.227246 -0.666936
-0.645315 -0.195624 0.211055
-0.212903 0.643118 -0.215537
0.634435 -0.226346 0.692536
0.643159 -0.632823 0.214783
0.634733 -0.225493 0.692479
0.666840 0.668432 -0.229164
0.230015 0.682459 0.208894
-0.689340 0.202497 -0.242029
0.227989 0.681701 0.207452
0.229161 0.682770 0.207198
-0.687700 0.202081 -0.241328
0.228397 0.682978 0.207441
0.665315 0.669968 -0.230060
-0.676723 -0.634866 -0.218484
-0.172060 -0.233347 0.661254
0.229696 0.681113 0.206484
0.227873 0.680927 0.209337
-0.211919 0.642333 -0.216335
-0.228625 0.210302 -0.653330
-0.676627 -0.633871 -0.218542
0.227627 -0.681596 0.663463
0.230786 0.680964 0.205920
-0.632682 0.216649 0.684511
-0.224874 -0.652142 -0.679143
0.642470 -0.632590 0.213367
-0.231088 0.211764 -0.653923
-0.675832 -0.635218 -0.218169
0.668830 0.670513 -0.228535
0.189857 -0.659286 -0.217490
0.223468 -0.194117 -0.625922
0.632858 -0.226305 0.692758
0.682967 -0.231759 -0.235513
-0.644140 -0.194320 0.212598
0.224004 -0.194200 -0.625092
-0.172674 -0.234765 0.661696
0.190351 -0.657669 -0.217579
-0.646756 -0.193826 0.212232
0.234803 0.630295 -0.669148
0.668133 0.668815 -0.231195
-0.688386 0.202315 -0.241601
-0.688640 0.202257 -0.240150
-0.227943 -0.664958 0.238069
0.235828 0.628486 -0.668871
-0.228409 -0.663666 0.237338
-0.631472 0.217318 0.684832
0.228383 -0.680677 0.663518
0.695326 0.227739 -0.665524
0.667461 0.667964 -0.229592
0.642621 -0.634892 0.213115
-0.225642 -0.653315 -0.679211
-0.230441 -0.663410 0.236463
-0.214780 0.666954 0.655296
-0.691499 -0.238181 -0.681533
0.642851 -0.634019 0.214255
0.229343 0.680609 0.207819
-0.632750 0.216758 0.685407
-0.631871 0.216961 0.685406
0.647565 0.226413 0.241639
0.646864 0.229079 0.241428
-0.691398 0.202001 -0.240422
0.229848 0.682219 0.207823
-0.690172 -0.240286 -0.680384
0.236354 0.627773 -0.668877
-0.631679 0.217490 0.682108
0.646669 0.227949 0.242836
-0.689817 0.202538 -0.240074
0.188920 -0.657596 -0.215826
-0.227125 -0.654511 -0.680466
0.228268 0.683098 0.208494
-0.212763 0.642905 -0.216792
0.224130 -0.193207 -0.626109
0.668447 0.668075 -0.230223
0.684761 -0.230948 -0.236834
0.228276 0.682462 0.207385
-0.663412 0.648320 0.217437
0.644490 -0.634260 0.215283
0.668026 0.668892 -0.230438
-0.675465 -0.633345 -0.219808
0.643296 -0.633857 0.214952
0.632205 -0.228833 0.691303
-0.216411 0.666359 0.654665
-0.645375 -0.194120 0.211839
-0.216719 0.666552 0.655053
0.225826 -0.193471 -0.625536
0.668918 0.669807 -0.229066
-0.689030 0.202329 -0.240251
-0.663324 0.647899 0.216872
0.634957 -0.226630 0.692329
-0.216661 0.668602 0.656265
0.229977 -0.682203 0.663989
0.229906 -0.682140 0.663541
0.648758 0.228111 0.242726
-0.645695 -0.192965 0.212774
-0.689855 -0.240698 -0.682058
0.189102 -0.659755 -0.216610
-0.215784 0.667455 0.654372
0.633376 -0.226346 0.690555
-0.231329 0.212114 -0.653813
0.667991 0.667802 -0.228564
0.229409 0.681639 0.208746
0.224086 -0.193329 -0.626645
-0.216749 0.664594 0.654075
-0.215569 0.666616 0.654705
-0.216210 0.666838 0.655515
0.229582 0.681814 0.209340
0.230781 0.682600 0.207467
0.646250 0.227750 0.242145
-0.674754 -0.635989 -0.219115
0.235170 0.629061 -0.668656
-0.662364 0.646403 0.215504
-0.645802 -0.195653 0.213173
-0.225604 -0.663240 0.238516
-0.171714 -0.233594 0.659344
0.188820 -0.658577 -0.216263
0.225889 -0.193728 -0.626480
0.668923 0.667555 -0.229516
0.202285 0.223583 0.646437
-0.211949 0.641688 -0.216182
-0.632766 0.218285 0.684188
-0.647423 -0.194372 0.213599
0.205014 0.223866 0.646155
0.644831 -0.633811 0.214186
0.694454 0.227685 -0.664546
0.186228 -0.656584 -0.216683
-0.226913 -0.653936 -0.679958
0.683267 -0.228941 -0.235462
0.642162 -0.632859 0.213016
0.696594 0.227389 -0.665515
0.666982 0.669218 -0.228647
0.234063 0.628059 -0.667013
-0.692032 -0.241376 -0.683544
-0.662328 0.646513 0.217824
-0.632985 0.219085 0.683100
-0.229367 0.210780 -0.654425
-0.645919 -0.196123 0.213094
-0.687018 0.200435 -0.240017
-0.229641 0.212555 -0.654340
-0.216205 0.666167 0.654998
-0.691131 -0.242657 -0.682260
0.225917 -0.193743 -0.627364
0.633049 -0.226065 0.690909
0.230725 0.681987 0.206656
-0.676665 -0.634353 -0.218425
0.228895 -0.680225 0.663795
0.233990 0.626732 -0.669126
-0.632101 0.217108 0.682603
0.229845 0.682498 0.208327
0.648506 0.226054 0.242358
-0.214713 0.666346 0.656041
0.643813 -0.632919 0.213928
-0.215711 0.665986 0.654633
-0.228352 -0.663235 0.237915
-0.227221 -0.662950 0.237950
-0.690113 -0.238096 -0.681050
-0.230105 0.210440 -0.651723
-0.692061 -0.238040 -0.682163
-0.632583 0.218354 0.684877
0.224932 -0.192960 -0.626614
-0.633098 0.216858 0.683332
0.229569 0.681566 0.206206
0.683274 -0.229773 -0.236036
-0.172584 -0.231378 0.663664
0.634318 -0.225991 0.692289
0.666719 0.669928 -0.228915
0.224058 -0.194255 -0.626424
0.642462 -0.634821 0.214765
0.229188 -0.680765 0.662158
-0.211720 0.642158 -0.214863
-0.171656 -0.235401 0.660217
0.643700 -0.634574 0.213035
-0.211415 0.643689 -0.215610
-0.226647 -0.663087 0.237266
-0.688464 0.203347 -0.241696
-0.688423 0.203056 -0.239839
-0.644917 -0.194283 0.213176
0.189004 -0.659302 -0.216307
-0.225781 -0.653396 -0.680759
-0.226404 -0.653056 -0.677610
0.224944 -0.193099 -0.626028
0.646821 0.226544 0.243085
-0.212333 0.643160 -0.214731
0.685281 -0.231079 -0.236906
-0.644450 -0.193579 0.213772
-0.663258 0.647208 0.214771
0.230728 0.683499 0.207484
0.632065 -0.226614 0.690734
0.234630 0.629079 -0.668167
0.203133 0.222377 0.644848
0.668709 0.668125 -0.229143
-0.217275 0.666039 0.654870
0.224945 -0.192778 -0.626022
0.647429 0.227794 0.241826
0.189999 -0.656938 -0.216296
-0.229891 0.211682 -0.652247
-0.213721 0.644050 -0.215675
-0.633025 0.217368 0.684536
-0.678159 -0.633405 -0.219084
0.225135 -0.194099 -0.625186
-0.231301 0.210945 -0.653233
-0.631659 0.217802 0.684180
-0.212875 0.643601 -0.217713
0.668142 0.665921 -0.229676
-0.645801 -0.193722 0.211044
0.223209 -0.192926 -0.626062
-0.215807 0.665194 0.657612
-0.644731 -0.193676 0.211555
0.230219 0.682633 0.206984
-0.661983 0.646034 0.217899
-0.687982 0.201767 -0.241177
-0.215233 0.667391 0.656519
-0.645665 -0.193237 0.211929
0.222209 -0.194671 -0.623307
