OFF
256 0 0
-0.663910 -0.656518 -0.234086
-0.658057 -0.196193 0.223978
-0.229791 -0.663227 0.205865
-0.230118 -0.224393 0.673352
0.683160 -0.238526 -0.197589
0.192396 0.231320 0.670567
0.225752 0.642754 -0.664642
0.196324 0.231900 0.669260
0.197771 -0.220006 -0.661237
0.197896 -0.221418 -0.661174
0.657169 -0.219950 0.653099
-0.230308 -0.226246 0.673367
-0.658084 -0.196014 0.224320
0.671768 0.223703 0.231679
-0.230788 -0.666052 0.204028
0.682566 0.210968 -0.671585
0.194819 0.231639 0.669565
0.207784 0.636597 0.210897
-0.223224 0.684598 0.663718
0.194797 0.231335 0.669751
0.668178 -0.688126 0.212718
0.220177 -0.689122 -0.223853
0.654877 -0.219852 0.650897
0.225452 0.640435 -0.666832
-0.658855 -0.194827 0.224260
0.673185 0.226696 0.231711
-0.229369 -0.224556 0.672996
0.681439 -0.239626 -0.197996
0.656849 -0.219739 0.652179
0.677301 0.664159 -0.211693
-0.214777 0.209305 -0.674137
-0.663318 0.239891 -0.194371
0.210311 0.636768 0.211517
0.681781 -0.239016 -0.196593
-0.230335 -0.663545 0.205303
0.227262 0.642179 -0.666770
0.219107 -0.691113 -0.223237
-0.662498 -0.656137 -0.234518
-0.213782 0.213354 -0.673301
0.682500 -0.237605 -0.198594
-0.227837 -0.665505 0.203489
0.670639 0.227132 0.234113
0.657267 -0.219621 0.652427
-0.664127 0.239916 -0.194174
0.683049 0.212851 -0.671442
-0.661219 -0.205257 -0.656419
-0.657702 -0.196436 0.223685
0.193908 0.231260 0.671387
-0.658937 -0.198817 0.224584
-0.661067 -0.206915 -0.653638
-0.212890 0.213359 -0.674213
0.655244 -0.220359 0.651941
0.671616 0.224864 0.233795
-0.664120 -0.657500 -0.234294
0.679676 0.666399 -0.211643
-0.662802 -0.656299 -0.234161
0.677778 0.665318 -0.210260
0.683861 0.211832 -0.672743
-0.221138 0.663762 -0.233475
0.196086 -0.219750 -0.663088
-0.213170 0.210520 -0.672387
0.198650 -0.219351 -0.663567
-0.230703 -0.664906 0.206286
-0.221758 0.662820 -0.233828
0.197607 -0.222398 -0.662831
-0.663925 0.241667 -0.193370
0.216856 -0.702528 0.649807
0.668056 -0.687505 0.211954
0.208931 0.638352 0.212269
-0.231158 -0.226974 0.672764
0.224831 0.643459 -0.667670
0.209703 0.636804 0.213061
-0.660042 0.714888 0.233269
-0.233016 -0.663949 -0.667877
0.216788 -0.702452 0.648716
-0.222169 0.683533 0.662497
0.683469 0.213264 -0.672195
-0.220868 0.662928 -0.233363
0.220438 -0.689330 -0.222475
0.196216 -0.221678 -0.663550
-0.224797 0.682888 0.663494
0.207930 0.637367 0.212950
0.222613 -0.690278 -0.221501
0.227092 0.643377 -0.665780
-0.213525 0.211866 -0.673932
0.672199 0.226357 0.232023
0.655933 -0.221398 0.651401
-0.663312 -0.204018 -0.655533
-0.665283 0.238900 -0.195764
-0.221938 0.663307 -0.232899
0.219483 -0.690790 -0.224271
-0.222216 0.685535 0.664348
0.195827 0.232599 0.670520
0.194204 0.231680 0.671838
-0.213324 0.213089 -0.673654
0.193591 0.230867 0.671204
0.682380 0.211230 -0.672972
-0.231738 -0.226099 0.674802
-0.663464 -0.204986 -0.653491
-0.662058 -0.204011 -0.658182
0.676484 0.664250 -0.210173
-0.662519 -0.658383 -0.236984
-0.221149 0.664102 -0.233110
0.683239 0.210319 -0.671539
-0.231604 -0.665744 0.205369
0.197538 -0.220267 -0.663018
0.667675 -0.687941 0.210892
0.216765 -0.701928 0.649002
-0.657095 -0.196687 0.223554
0.215807 -0.703292 0.648460
-0.643591 0.241782 0.669522
-0.230196 -0.226151 0.674457
-0.663846 -0.656426 -0.234172
-0.231000 -0.666322 0.204944
-0.232475 -0.665330 0.205043
0.655709 -0.221009 0.650934
0.671709 0.225542 0.231668
-0.663079 -0.204188 -0.657293
0.219086 -0.689104 -0.225620
0.667444 -0.686765 0.211894
0.197838 -0.219815 -0.663835
-0.230870 -0.665498 0.204222
-0.658953 -0.195414 0.225605
-0.232728 -0.665222 -0.668469
0.682788 0.211920 -0.671927
-0.660152 0.716535 0.229341
0.195058 0.233070 0.671333
0.218050 -0.701745 0.649126
0.214843 -0.702020 0.649300
0.682908 0.209922 -0.671600
0.194198 0.232314 0.670786
-0.659377 0.714900 0.230679
-0.663461 0.240049 -0.193404
0.681686 0.211565 -0.670854
-0.222079 0.684603 0.661959
0.225217 0.643495 -0.665944
-0.228883 -0.226184 0.671673
-0.658043 -0.196023 0.225020
-0.231718 -0.226425 0.671873
0.197516 -0.219421 -0.664855
0.656046 -0.219788 0.650767
0.682935 0.211185 -0.673820
0.682273 -0.241660 -0.196240
0.678695 0.664669 -0.211534
0.680517 0.667654 -0.210756
0.217595 -0.700300 0.648971
0.673248 0.226788 0.231955
-0.662071 -0.657358 -0.235644
-0.663740 -0.655974 -0.234410
0.194998 0.232494 0.671897
0.666793 -0.686403 0.212176
0.208070 0.637637 0.213173
0.667541 -0.686446 0.211793
0.680921 0.211766 -0.672022
-0.664114 -0.656075 -0.235008
-0.230555 -0.664815 0.204457
-0.663544 -0.656730 -0.233777
0.197567 -0.218759 -0.663468
0.671478 0.225947 0.230530
0.655842 -0.219886 0.652902
-0.658810 0.715245 0.231197
0.195495 -0.220291 -0.662126
0.194676 0.233075 0.670941
-0.232048 -0.663914 -0.668152
0.666916 -0.687374 0.211263
-0.659680 0.716817 0.231236
-0.657788 -0.196686 0.225249
0.679148 0.667420 -0.210897
0.196977 -0.218407 -0.663252
-0.644990 0.239978 0.668497
0.225486 0.642310 -0.665262
-0.230938 -0.226536 0.673108
-0.664555 -0.655485 -0.234951
-0.222291 0.684122 0.662599
0.208229 0.637129 0.211739
0.658559 -0.220810 0.652348
-0.643462 0.243206 0.669408
-0.231453 -0.664007 -0.667735
-0.232600 -0.663031 -0.666821
-0.229902 -0.225575 0.672247
-0.232036 -0.664874 -0.667419
0.670147 0.227153 0.231568
-0.234058 -0.663115 -0.665888
-0.662165 0.239851 -0.193471
-0.645238 0.240238 0.668050
-0.657930 -0.195683 0.222876
-0.221515 0.685475 0.663698
0.220700 -0.690614 -0.221380
-0.664610 -0.655932 -0.236456
-0.221761 0.683821 0.661977
-0.223064 0.684752 0.661673
-0.662818 -0.204224 -0.655722
0.677654 0.664560 -0.209273
0.657004 -0.218464 0.652903
0.197281 -0.220086 -0.662067
0.216536 -0.702082 0.649162
0.198171 -0.219601 -0.661765
-0.221888 0.684752 0.663652
-0.222691 0.683270 0.664218
0.671662 0.225618 0.231795
0.654862 -0.220538 0.654369
-0.664095 -0.657467 -0.233778
0.216107 -0.701579 0.649630
0.197142 -0.219977 -0.662447
-0.231628 -0.665552 -0.668268
0.682854 0.212923 -0.672524
0.210321 0.634505 0.212812
0.208937 0.637396 0.211376
-0.228737 -0.664658 0.204338
0.225621 0.643391 -0.665877
0.655422 -0.218877 0.652375
0.194539 0.233617 0.670266
0.208362 0.639125 0.210658
-0.659552 0.713491 0.231153
-0.232824 -0.663651 -0.666946
0.680460 0.665626 -0.210422
-0.659132 0.714897 0.229868
0.216303 -0.703020 0.649749
-0.223296 0.684785 0.664379
0.225876 0.642498 -0.665045
-0.660487 0.715368 0.230256
0.656164 -0.219864 0.648424
0.197874 -0.221041 -0.662595
-0.662967 -0.656886 -0.234241
0.678180 0.665780 -0.210346
-0.229539 -0.664268 0.204051
0.215602 -0.700394 0.649674
-0.220777 0.665695 -0.233517
0.678853 0.665728 -0.210154
-0.656753 -0.197397 0.224429
0.226513 0.642963 -0.664376
-0.658854 0.714849 0.231409
-0.214169 0.212831 -0.674603
-0.234282 -0.665517 -0.669707
0.193225 0.232439 0.672048
-0.228731 -0.666123 0.203737
-0.213593 0.211035 -0.672717
-0.663964 -0.656614 -0.233564
0.681281 -0.240140 -0.198762
-0.229782 -0.665255 0.205959
0.665392 -0.687103 0.214472
0.673300 0.226104 0.231482
0.682869 0.212263 -0.670846
-0.664544 0.238968 -0.195517
-0.662528 -0.655797 -0.233681
-0.214386 0.212193 -0.672706
-0.220085 0.662309 -0.232395
-0.231040 -0.664130 -0.667971
0.196144 0.233005 0.668991
0.225851 0.643879 -0.664029
0.208572 0.638401 0.212045
-0.228951 -0.665515 0.205379
-0.658234 -0.195754 0.224538
-0.229591 -0.224478 0.672936
0.225017 0.644862 -0.666128
0.672372 0.224818 0.230695
