OFF
256 0 0
-0.187408 0.756408 0.626750
-0.595291 -0.159013 -0.734478
-0.152661 -0.627551 -0.738420
-0.620393 0.304727 0.616177
-0.181641 0.269651 -0.763821
0.317616 -0.648695 -0.302259
-0.182895 0.270535 -0.763004
0.769316 -0.595573 0.165852
-0.618038 -0.191038 0.178385
-0.638207 0.723940 0.147864
0.770353 -0.596938 0.168841
0.285045 -0.599537 0.576129
0.267951 -0.166269 -0.749378
0.269940 -0.165764 -0.748755
0.245659 0.281108 0.601881
-0.638080 0.724589 0.146465
-0.152997 -0.629852 -0.737237
0.280453 0.297283 -0.280141
-0.181165 0.269663 -0.761939
-0.153586 0.740496 -0.298157
-0.594156 0.284733 -0.266787
0.771239 -0.597076 0.166712
0.270723 -0.164833 -0.749715
0.270223 -0.163601 -0.747409
-0.151266 0.740661 -0.296655
-0.136396 -0.618459 0.152574
0.269536 -0.165085 -0.747855
-0.627148 -0.629019 -0.282008
-0.638319 0.726520 0.146716
-0.180921 0.269519 -0.760516
0.269759 -0.164956 -0.748311
0.750494 0.285993 0.174827
-0.189228 0.758374 0.625229
-0.198913 -0.177182 0.647999
0.771528 -0.596600 0.167887
0.724644 -0.158265 -0.286625
0.330663 0.764820 0.183564
0.245149 0.280409 0.603830
-0.619200 0.304013 0.618134
0.246188 0.280803 0.602965
0.278512 0.298978 -0.280058
0.770450 -0.595184 0.167664
-0.153435 -0.627582 -0.738176
-0.200130 -0.176108 0.645814
-0.137494 -0.619551 0.152740
0.724419 -0.159100 -0.286891
-0.152469 0.738460 -0.298313
-0.153752 -0.630150 -0.738371
0.725091 -0.158751 -0.285978
-0.198693 -0.176120 0.646543
-0.624575 -0.629488 -0.283625
-0.594912 0.285880 -0.270540
-0.180415 0.270186 -0.761167
-0.189037 0.757525 0.623673
0.730252 -0.142209 0.631273
-0.597041 -0.158926 -0.731928
-0.621083 0.304205 0.616429
-0.620137 0.302562 0.618049
-0.620317 0.303033 0.617706
0.246171 0.280551 0.603046
0.328139 0.764890 0.181740
0.279072 0.297843 -0.280736
-0.618884 0.303600 0.618083
0.751140 0.287518 0.178084
-0.619662 -0.194024 0.179341
0.318990 -0.646213 -0.302768
-0.617991 0.305500 0.617985
-0.594128 0.284995 -0.270383
0.283297 -0.599690 0.576537
0.279619 0.297185 -0.280093
-0.138200 -0.618904 0.149658
0.722770 -0.160684 -0.287200
0.246115 0.281569 0.601634
-0.182886 0.269649 -0.761142
-0.618224 -0.193054 0.178349
-0.181803 0.270125 -0.760987
0.278694 0.297977 -0.279847
0.770687 -0.596096 0.167699
0.330007 0.765907 0.182275
-0.150803 -0.629427 -0.739803
-0.640266 0.726342 0.145397
-0.137727 -0.618742 0.152465
-0.619057 0.304074 0.617577
-0.625682 -0.628124 -0.283253
-0.189711 0.755768 0.626080
-0.198903 -0.175715 0.646322
0.724577 -0.159333 -0.285885
0.328829 0.766644 0.183455
0.280140 0.296738 -0.279499
0.327961 0.766820 0.183786
0.727452 -0.143273 0.631050
-0.626710 -0.627538 -0.284866
0.316097 -0.647661 -0.301428
0.245570 0.280013 0.601335
0.269436 -0.164402 -0.748800
0.285686 -0.599069 0.575941
-0.152641 -0.627024 -0.738563
-0.151300 -0.627365 -0.738392
-0.190020 0.756628 0.625868
0.772112 -0.596091 0.167454
-0.618000 0.303377 0.617433
0.281144 0.298773 -0.281197
0.769856 -0.599052 0.168530
-0.626491 -0.630272 -0.284490
-0.638491 0.725890 0.146710
0.723900 -0.160624 -0.286702
-0.178880 0.267641 -0.762983
0.278406 0.297242 -0.279472
0.245110 0.281788 0.602423
-0.152636 -0.626953 -0.738286
-0.199058 -0.177474 0.645803
-0.187651 0.756761 0.625983
-0.152401 -0.628442 -0.738025
0.751005 0.287651 0.173825
0.284945 -0.600217 0.577250
0.281268 0.299302 -0.279454
-0.593409 0.285086 -0.269118
-0.137353 -0.618811 0.148981
-0.188401 0.756650 0.626818
-0.139257 -0.619599 0.150389
0.243727 0.279751 0.603515
0.725163 -0.159932 -0.287881
-0.180254 0.269689 -0.763676
0.731595 -0.141455 0.629221
-0.619524 0.302639 0.617345
0.328610 0.765626 0.183273
0.725738 -0.161625 -0.286269
0.723164 -0.159604 -0.286363
-0.180662 0.269530 -0.760609
0.768987 -0.596478 0.169626
-0.180534 0.271422 -0.762443
-0.593613 -0.158393 -0.733027
0.280254 0.297740 -0.280488
-0.637692 0.725195 0.143943
0.320229 -0.647537 -0.301787
-0.152067 -0.629759 -0.739307
0.772071 -0.594463 0.168352
-0.592963 -0.158506 -0.733933
-0.138368 -0.618512 0.152107
0.284614 -0.596784 0.577599
-0.617641 -0.193554 0.178311
0.751406 0.287881 0.175012
-0.153482 0.739028 -0.298331
0.730868 -0.143158 0.632655
-0.593178 0.284857 -0.269687
0.730854 -0.143210 0.630181
0.247160 0.281723 0.603833
0.244728 0.280799 0.602500
0.751722 0.287472 0.175448
-0.637946 0.724524 0.144967
-0.154250 0.738790 -0.298888
-0.154511 -0.628453 -0.738637
-0.182333 0.270845 -0.761617
-0.180676 0.271114 -0.760374
0.244408 0.280055 0.601626
0.724152 -0.159466 -0.287277
0.320539 -0.649443 -0.302404
-0.182950 0.270939 -0.762492
0.268836 -0.163256 -0.747858
0.284662 -0.598669 0.576573
0.279689 0.296695 -0.280459
0.327937 0.765344 0.184183
-0.625487 -0.628199 -0.283103
0.329973 0.765240 0.183673
0.285065 -0.600107 0.578310
-0.617845 -0.194256 0.177905
-0.152051 0.738999 -0.297715
-0.592855 -0.157430 -0.732538
0.769110 -0.596236 0.169170
0.730431 -0.143098 0.631276
-0.150294 -0.627575 -0.738644
-0.197730 -0.176841 0.645702
0.771378 -0.595130 0.168050
-0.617948 -0.193747 0.178689
-0.137471 -0.619069 0.149756
-0.617450 0.303289 0.619031
0.269066 -0.165353 -0.747840
-0.595372 0.284399 -0.266787
0.752687 0.289056 0.173608
-0.593130 0.287800 -0.269857
0.244667 0.280559 0.602739
-0.199432 -0.177244 0.646347
-0.180518 0.270112 -0.760732
-0.152906 -0.627837 -0.737831
-0.616142 -0.192256 0.178607
-0.623993 -0.629195 -0.284372
-0.593915 -0.158578 -0.734498
-0.187126 0.756260 0.625135
0.284388 -0.599042 0.576846
0.317959 -0.649005 -0.302347
-0.594520 0.284475 -0.268601
0.329077 0.765810 0.182745
0.281762 0.297358 -0.277629
0.283574 -0.598995 0.577819
0.244482 0.278862 0.603136
-0.138707 -0.619105 0.150311
0.769133 -0.596767 0.167674
-0.150673 -0.627299 -0.737505
-0.626948 -0.629715 -0.281029
0.771799 -0.595985 0.167366
-0.136166 -0.618979 0.149911
0.284663 -0.599096 0.576202
0.725241 -0.158643 -0.284789
-0.625162 -0.628631 -0.284429
-0.136490 -0.617978 0.151128
-0.594915 -0.157445 -0.732225
-0.626325 -0.628762 -0.282061
-0.596068 -0.157985 -0.732957
-0.190236 0.759230 0.624112
0.725560 -0.159471 -0.286364
-0.138322 -0.619211 0.150336
0.326352 0.767171 0.183243
-0.594540 -0.155805 -0.734804
-0.199106 -0.177285 0.645898
0.244096 0.280270 0.601220
0.729972 -0.140262 0.631257
-0.181204 0.270433 -0.760976
0.729581 -0.142533 0.630602
0.327196 0.766752 0.183651
-0.618593 0.304527 0.615430
-0.152746 -0.628752 -0.738142
0.330440 0.766277 0.182640
-0.595672 -0.155519 -0.733811
0.771732 -0.595854 0.169123
-0.181522 0.269057 -0.761430
-0.626223 -0.629783 -0.284118
-0.188689 0.756489 0.625587
0.770117 -0.596007 0.166381
0.770689 -0.595939 0.168715
0.724379 -0.160829 -0.285117
0.751117 0.287094 0.175337
-0.182390 0.268486 -0.762704
0.320927 -0.646949 -0.299722
-0.617292 -0.193546 0.176444
0.770370 -0.597772 0.168410
-0.625817 -0.627881 -0.283503
-0.593792 0.284851 -0.270625
-0.594941 -0.157205 -0.731866
-0.595693 -0.160443 -0.735496
0.770986 -0.597563 0.167618
-0.594315 -0.158102 -0.731898
-0.639655 0.725617 0.148330
0.769170 -0.595643 0.169373
-0.153144 0.736927 -0.298682
0.281256 0.298457 -0.280675
0.318758 -0.647478 -0.302008
0.753022 0.286617 0.175672
-0.594542 -0.158732 -0.733594
0.280970 0.298047 -0.280945
0.723706 -0.161536 -0.285141
-0.595250 -0.161214 -0.733519
-0.617614 -0.193775 0.178168
0.772506 -0.596784 0.167232
0.317592 -0.648305 -0.302018
-0.618143 0.303819 0.617083
-0.149970 0.740347 -0.299387
