OFF
256 0 0
-0.303510 -0.624402 0.299178
-0.275125 0.296017 0.263694
0.631564 0.268751 -0.599188
0.165987 -0.169661 -0.581378
0.148916 0.723441 0.268386
0.630771 -0.194987 -0.159565
-0.301888 -0.623403 0.300253
-0.248897 -0.152452 0.731144
-0.277643 0.296026 0.265750
-0.712252 -0.151762 0.288374
-0.291504 -0.571551 -0.592883
-0.743856 -0.604108 -0.166948
0.620091 -0.151337 0.734217
-0.742997 -0.604806 -0.165760
0.150722 -0.637451 0.753327
-0.281446 0.761806 -0.159970
-0.302851 -0.624600 0.299892
-0.291799 -0.568028 -0.593558
0.585072 0.264721 0.248022
-0.290332 -0.569870 -0.592708
-0.744260 -0.604851 -0.165678
0.148605 0.723139 0.266374
-0.291311 -0.570176 -0.592199
-0.742335 -0.604946 -0.164744
0.619155 -0.151683 0.732924
0.123310 -0.603544 -0.147507
0.631204 0.267096 -0.599343
0.122841 -0.603181 -0.147288
0.151991 -0.638338 0.753573
-0.747775 -0.165599 -0.642845
0.630713 -0.196640 -0.158112
-0.291199 -0.569835 -0.590250
-0.711361 -0.151461 0.285740
-0.707876 0.275108 -0.162941
0.617317 -0.149142 0.731951
0.151514 -0.637773 0.752971
0.150796 0.737049 -0.591070
-0.711814 -0.150451 0.286303
0.149643 -0.638735 0.754872
0.121833 -0.603332 -0.145628
-0.742008 -0.602481 -0.165842
-0.712052 -0.150406 0.287831
0.148941 0.734297 -0.594141
0.633280 -0.195559 -0.158901
-0.315381 0.285914 -0.604987
0.621448 0.737860 -0.167962
-0.301854 -0.624261 0.300819
-0.712931 -0.151387 0.289917
0.166500 -0.167750 -0.581443
0.621471 0.738353 -0.168861
-0.302261 -0.623940 0.299877
0.147736 0.737242 -0.590247
0.164120 -0.168289 -0.580261
-0.251182 -0.150521 0.731685
-0.250111 -0.151048 0.730431
-0.711812 -0.151662 0.287503
0.629322 0.268510 -0.599253
-0.303502 -0.623399 0.298625
0.150304 -0.637536 0.752797
-0.275715 0.293698 0.265703
-0.712619 -0.152306 0.286795
-0.280873 0.760906 -0.160540
0.612015 -0.600851 0.270213
0.631016 0.268593 -0.599064
0.122636 -0.602171 -0.147613
-0.313754 0.287301 -0.604712
-0.711388 -0.152805 0.288574
-0.746153 -0.164120 -0.643558
0.165223 -0.169059 -0.581406
0.151158 0.722857 0.267808
0.581570 0.265103 0.248098
-0.250798 -0.152024 0.731257
0.612082 -0.600379 0.269818
0.619454 0.737808 -0.166288
-0.282280 0.760748 -0.161047
-0.313350 0.285943 -0.604387
0.583058 0.267832 0.248268
-0.314145 0.285078 -0.603163
-0.276532 0.295154 0.265419
0.611973 -0.601219 0.272006
-0.707728 0.275141 -0.161678
0.617867 -0.149063 0.733952
0.167352 -0.170024 -0.581083
0.147073 0.737400 -0.590617
0.122807 -0.602630 -0.145358
-0.276103 0.294502 0.264518
-0.711192 -0.152303 0.290186
-0.712515 -0.149757 0.287661
-0.707307 0.275382 -0.161571
0.149462 0.737041 -0.590696
-0.250308 -0.151404 0.731757
-0.712126 -0.152841 0.286342
-0.290154 -0.570663 -0.593386
-0.313881 0.284991 -0.605454
0.620992 0.737335 -0.165538
-0.251848 -0.151590 0.730566
0.166778 -0.168663 -0.580282
0.618501 -0.150638 0.734202
-0.741680 -0.606161 -0.164342
-0.304983 -0.625395 0.299698
-0.314758 0.285940 -0.604466
0.580931 0.266373 0.250362
-0.289283 -0.570301 -0.593531
0.632168 0.268662 -0.598640
-0.313217 0.285051 -0.604955
0.630303 -0.196021 -0.158073
-0.747294 -0.164393 -0.643680
-0.292309 -0.569089 -0.592703
-0.252021 -0.151471 0.728882
-0.747089 -0.163374 -0.643250
0.188787 0.275985 0.713921
0.621064 0.737823 -0.166524
0.582209 0.265103 0.248844
-0.743225 -0.606148 -0.164026
-0.304472 -0.623019 0.299806
-0.707821 0.274945 -0.161437
-0.711723 -0.152310 0.289730
-0.306359 -0.625095 0.300184
-0.275121 0.294848 0.266716
0.618234 -0.150563 0.733061
0.618028 -0.150402 0.733851
-0.276645 0.293151 0.264897
0.149265 0.735244 -0.590759
0.167280 -0.167901 -0.580929
0.150038 -0.638776 0.753231
-0.713334 -0.151998 0.286722
0.124193 -0.601566 -0.146947
0.618968 -0.150955 0.732631
-0.712376 -0.151562 0.286785
0.148763 0.737414 -0.589424
0.621119 0.738793 -0.168174
-0.289743 -0.571157 -0.593393
-0.311854 0.286466 -0.604332
0.124720 -0.599605 -0.145104
0.149908 -0.640032 0.752618
0.189155 0.274676 0.714021
-0.741523 -0.602424 -0.166673
-0.277296 0.295780 0.266320
-0.711753 -0.152335 0.287021
-0.743411 -0.604640 -0.166714
0.188770 0.274637 0.714786
-0.712589 -0.152682 0.288436
0.166109 -0.169600 -0.580189
0.583351 0.264225 0.248731
0.165752 -0.166754 -0.581099
-0.743078 -0.604505 -0.166923
-0.279223 0.760637 -0.160917
-0.742599 -0.603683 -0.166052
-0.290923 -0.569140 -0.591955
-0.290821 -0.568900 -0.591367
-0.709506 0.276012 -0.161493
0.148136 0.721632 0.266776
0.620931 0.736139 -0.167830
-0.250212 -0.151720 0.731874
0.630841 0.267979 -0.599020
-0.746697 -0.163452 -0.641818
0.581835 0.267272 0.248250
0.189360 0.275055 0.714063
0.620588 0.736893 -0.167377
0.120501 -0.599947 -0.147790
-0.708379 0.274386 -0.163056
0.582600 0.266409 0.250498
-0.290777 -0.568957 -0.591662
0.629318 0.268705 -0.601460
0.620032 0.737698 -0.169881
-0.279947 0.760107 -0.162598
0.165400 -0.168309 -0.580143
0.622402 0.738774 -0.166119
0.150399 0.735938 -0.589640
0.631829 -0.196355 -0.158580
0.581813 0.268132 0.249344
-0.745326 -0.162930 -0.642509
-0.743780 -0.605504 -0.166365
0.613427 -0.600673 0.270013
-0.710981 -0.150001 0.288174
0.149363 0.722598 0.267628
0.148036 0.722582 0.268637
0.150915 -0.638904 0.755090
0.622136 0.736742 -0.170654
0.619557 0.736690 -0.167562
0.630207 0.269860 -0.600133
0.187707 0.274886 0.715109
0.121636 -0.601504 -0.147524
-0.276126 0.295304 0.266068
-0.278481 0.294511 0.265973
0.621393 0.737001 -0.166464
0.619031 -0.152218 0.734346
0.610360 -0.600394 0.270122
0.618005 -0.151724 0.735253
0.164315 -0.169527 -0.580198
0.189101 0.277651 0.714412
0.121860 -0.601515 -0.146362
0.150346 0.735034 -0.590260
-0.746065 -0.163807 -0.642857
0.123259 -0.602867 -0.148627
-0.290751 -0.569600 -0.593319
0.620359 0.738552 -0.168728
0.611194 -0.598821 0.270705
0.620601 0.737006 -0.166226
0.125324 -0.599806 -0.147471
-0.741194 -0.603737 -0.166345
0.151949 -0.639382 0.755162
-0.712706 -0.149873 0.287412
0.618124 -0.149837 0.734887
0.630427 0.268212 -0.601526
-0.742676 -0.604448 -0.164502
0.148923 0.736664 -0.590701
-0.707741 0.275855 -0.160220
0.621836 0.735739 -0.168333
0.619611 0.736074 -0.166021
0.632033 -0.196414 -0.156907
-0.275835 0.295180 0.265821
0.165988 -0.169368 -0.580917
-0.301363 -0.625472 0.299640
-0.706976 0.275133 -0.163378
0.619007 0.735458 -0.166552
-0.251464 -0.152759 0.731023
0.121748 -0.601928 -0.145676
0.165711 -0.168396 -0.580121
0.631441 -0.196048 -0.160461
0.150576 -0.638687 0.752242
0.610395 -0.599911 0.272971
-0.251630 -0.152258 0.731476
-0.708755 0.275582 -0.160931
-0.290710 -0.569637 -0.592219
-0.707638 0.276118 -0.164059
0.630462 0.270779 -0.598982
-0.311277 0.284760 -0.604899
-0.746442 -0.164536 -0.642958
-0.314006 0.285528 -0.606475
-0.742960 -0.605308 -0.167747
0.150530 -0.637773 0.754877
0.621192 0.738654 -0.168539
0.125001 -0.600470 -0.145431
-0.744362 -0.162228 -0.643193
0.188949 0.274856 0.715649
0.629605 -0.194559 -0.157336
-0.713066 -0.151965 0.288382
0.631120 0.269951 -0.599670
0.189409 0.275450 0.714863
0.189545 0.275088 0.714203
-0.280342 0.762594 -0.162607
0.620835 0.736707 -0.168136
-0.250076 -0.152748 0.732447
0.630864 0.269810 -0.598949
0.631688 -0.195876 -0.158536
-0.709469 -0.153000 0.288141
0.631945 -0.196820 -0.157243
-0.250357 -0.153280 0.731112
0.151176 -0.640752 0.753534
0.618320 -0.149856 0.732237
-0.706257 0.275311 -0.160849
-0.706704 0.274569 -0.159551
-0.276206 0.293653 0.265328
0.164925 -0.168261 -0.581399
-0.711339 -0.151069 0.286948
