OFF
256 0 0
0.631449 -0.601107 0.297281
-0.283228 0.745638 -0.149418
0.609900 -0.142256 -0.146421
-0.290348 -0.638369 -0.602128
-0.284619 0.745349 -0.149170
0.190708 0.765300 0.301999
-0.738271 -0.147639 0.278315
0.627236 -0.163712 0.761761
0.191670 0.767395 0.302074
-0.732931 0.295051 -0.169486
-0.289831 -0.637155 -0.603045
-0.289286 -0.636637 -0.604860
0.632644 -0.601930 0.299806
-0.738479 -0.146765 0.277054
0.606981 0.276297 0.320408
0.613481 0.288946 -0.642232
-0.293653 -0.173881 0.754194
-0.288532 -0.637034 -0.601034
-0.295740 0.315247 0.293139
0.190382 0.767068 0.303048
-0.291888 -0.174008 0.754640
-0.292737 -0.174059 0.753861
-0.281033 0.277189 -0.654419
-0.764829 -0.606023 -0.141779
-0.296630 -0.606101 0.252216
-0.279124 0.276772 -0.655722
-0.288673 -0.636277 -0.602510
0.612962 0.288280 -0.640223
0.174094 -0.603384 0.728288
0.161370 0.683120 -0.621384
-0.292704 -0.175194 0.753213
-0.751038 -0.167686 -0.619123
0.607900 0.276435 0.322208
0.633525 -0.602955 0.299691
0.631981 -0.602788 0.301428
0.149944 0.279586 0.763443
0.160046 0.680780 -0.622390
-0.768089 -0.604310 -0.141419
-0.733660 0.295390 -0.170214
0.174416 -0.603852 0.728181
-0.289226 -0.636096 -0.602243
-0.279390 0.277979 -0.658230
-0.752265 -0.167958 -0.618470
-0.299639 -0.606451 0.253992
0.161109 0.683674 -0.622373
-0.765578 -0.606701 -0.142604
-0.751928 -0.168803 -0.619479
0.185738 -0.650815 -0.183959
0.150360 0.279717 0.761843
0.191088 0.767608 0.303022
-0.765631 -0.605735 -0.141853
0.626898 -0.164295 0.760960
0.632127 -0.600985 0.300516
0.615875 0.741554 -0.172234
-0.732216 0.295074 -0.168562
0.611851 0.289454 -0.639723
0.150837 0.277832 0.763247
-0.280528 0.278320 -0.655686
0.612621 0.286951 -0.641363
-0.295592 0.312601 0.293754
0.628563 -0.164962 0.762676
0.614255 0.287785 -0.643862
-0.739079 -0.146582 0.279282
0.634450 -0.601581 0.299550
0.187153 -0.650593 -0.185919
0.613616 0.740477 -0.170631
-0.765029 -0.607229 -0.144673
-0.283402 0.744561 -0.148324
-0.737030 -0.148056 0.278906
0.165016 -0.162473 -0.647181
-0.284083 0.745108 -0.150138
0.632005 -0.601868 0.299582
0.159685 0.681997 -0.621462
0.185529 -0.651598 -0.183995
0.605513 0.276475 0.320646
0.624470 -0.163025 0.762367
0.185081 -0.651171 -0.186227
-0.299209 -0.604784 0.251838
0.164654 -0.161764 -0.647284
-0.284305 0.745134 -0.149631
0.608618 -0.140308 -0.149374
0.626770 -0.162644 0.762310
-0.739473 -0.147339 0.278890
-0.278577 0.277387 -0.654484
0.164391 -0.163971 -0.647323
0.612564 0.290097 -0.641643
0.612965 0.291811 -0.640914
0.173717 -0.604135 0.728947
0.164237 -0.163013 -0.648627
0.613655 0.290064 -0.638001
-0.290656 -0.635507 -0.602202
-0.289050 -0.637076 -0.601526
0.613531 0.743349 -0.171565
0.614379 0.741885 -0.171578
0.192568 0.765342 0.304349
0.613880 0.289370 -0.640666
0.149689 0.278443 0.763107
-0.300746 -0.605715 0.251985
0.165903 -0.161571 -0.646597
-0.732253 0.294177 -0.168822
0.173227 -0.605225 0.727551
-0.298916 -0.606615 0.252449
-0.739748 -0.149030 0.277475
-0.751511 -0.168695 -0.619288
-0.283237 0.745750 -0.149972
-0.296459 0.312669 0.291261
-0.299062 -0.606415 0.252711
-0.765450 -0.606240 -0.141914
-0.292706 -0.174096 0.754080
0.192922 0.766418 0.301489
0.625720 -0.163425 0.762504
-0.280487 0.276161 -0.655574
-0.297610 -0.606105 0.251042
0.613520 0.741827 -0.171345
-0.288532 -0.637873 -0.603182
0.615675 0.742240 -0.170915
-0.740646 -0.146585 0.279572
0.628929 -0.163234 0.761329
0.186505 -0.650479 -0.185400
-0.732143 0.293630 -0.167439
0.612971 0.742548 -0.172330
-0.292537 -0.174149 0.751513
0.608284 0.275599 0.321581
-0.295501 0.312928 0.292141
-0.279851 0.277285 -0.655796
-0.290618 -0.636693 -0.602717
0.174075 -0.604170 0.729303
0.191232 0.765695 0.304216
0.614373 0.741809 -0.170477
0.631446 -0.603024 0.300975
-0.278981 0.277879 -0.656223
0.191186 0.766292 0.302777
0.159463 0.681298 -0.621853
-0.764879 -0.606228 -0.142618
-0.753262 -0.168504 -0.620427
-0.291355 -0.637913 -0.602531
0.607430 0.277588 0.322642
0.614178 0.741558 -0.171679
-0.281739 0.746669 -0.147865
0.189401 0.766132 0.301306
-0.752912 -0.169420 -0.619747
0.188801 -0.651047 -0.184800
0.186621 -0.651344 -0.185291
-0.298236 -0.604346 0.252394
-0.732251 0.294709 -0.168952
0.614232 0.742324 -0.171362
0.150781 0.278814 0.762322
0.164411 -0.163396 -0.647293
-0.295345 0.311257 0.293596
-0.282659 0.744241 -0.147489
-0.299457 -0.605898 0.253587
-0.767343 -0.606285 -0.141937
0.159776 0.681844 -0.622906
-0.765502 -0.604784 -0.143958
0.613332 0.743080 -0.172792
-0.752463 -0.169640 -0.619636
-0.279798 0.277622 -0.654684
0.190424 0.768268 0.302672
0.612748 0.287242 -0.640254
0.152935 0.279384 0.762192
0.175399 -0.602966 0.727680
0.627911 -0.164493 0.760999
0.163527 -0.163554 -0.648487
0.610130 -0.139773 -0.148403
-0.738497 -0.148328 0.277961
0.150617 0.280865 0.763016
-0.289374 -0.638721 -0.602054
0.614683 0.742794 -0.172058
-0.289836 -0.637556 -0.604454
0.191003 0.767707 0.303773
0.192366 0.768831 0.301366
-0.296228 0.312321 0.293569
0.187958 -0.650668 -0.184602
0.174135 -0.603023 0.729939
0.612096 0.288916 -0.640500
0.606903 0.275903 0.321424
-0.291724 -0.633932 -0.601257
0.163995 -0.162649 -0.647934
-0.738269 -0.147874 0.278918
0.164055 -0.161539 -0.648550
-0.290172 -0.637984 -0.600696
0.191646 0.765958 0.303392
0.613987 0.289619 -0.639883
0.165672 -0.162063 -0.649493
0.165118 -0.162636 -0.649394
-0.289587 -0.638986 -0.601840
0.626821 -0.163574 0.764044
-0.764236 -0.605071 -0.142050
0.626102 -0.163129 0.760810
-0.295527 0.310642 0.294257
0.631927 -0.603098 0.302302
0.609696 -0.141223 -0.147205
-0.291561 -0.637291 -0.602667
0.632218 -0.603014 0.299705
0.630945 -0.603293 0.300549
0.173431 -0.605644 0.727919
-0.278398 0.277494 -0.654783
0.149324 0.279065 0.764579
-0.288954 -0.637380 -0.602436
-0.291459 -0.174475 0.750694
-0.294830 0.313092 0.292378
0.609719 -0.141830 -0.148327
-0.740866 -0.148237 0.281612
0.158673 0.681880 -0.620398
-0.299201 -0.605787 0.252784
0.159806 0.679555 -0.620349
-0.294815 0.312383 0.294342
-0.296237 0.313853 0.293764
0.608356 0.275867 0.320678
0.159096 0.682939 -0.621338
-0.288872 -0.637328 -0.602486
-0.290219 -0.636109 -0.603398
0.190879 0.768418 0.301667
0.611999 0.288265 -0.639472
-0.765980 -0.604963 -0.143510
0.186258 -0.650232 -0.184502
0.614795 0.742254 -0.170940
-0.739583 -0.148500 0.280043
0.607294 0.276142 0.322975
-0.740320 -0.147989 0.279709
0.613664 0.288734 -0.641879
-0.737715 -0.145118 0.280195
-0.292073 -0.174259 0.750325
-0.292002 -0.176050 0.753325
-0.295574 0.313010 0.293729
-0.739404 -0.146478 0.277508
0.165162 -0.162271 -0.648076
0.173030 -0.602543 0.728490
-0.297730 -0.602736 0.251526
-0.279739 0.276593 -0.656219
-0.738430 -0.147565 0.280433
0.166246 -0.162034 -0.648384
-0.294853 0.312324 0.292282
-0.733236 0.293840 -0.168729
-0.738365 -0.147746 0.278576
0.616628 0.741553 -0.171053
0.614662 0.741013 -0.169595
-0.764383 -0.604613 -0.142211
0.627738 -0.163417 0.762238
0.160934 0.681602 -0.622014
0.632806 -0.602911 0.301333
-0.738534 -0.147796 0.279719
0.148830 0.278786 0.761375
0.185373 -0.650448 -0.184158
0.614169 0.742393 -0.171131
0.632012 -0.602766 0.298916
-0.296415 0.313952 0.292032
-0.295635 0.313251 0.292686
-0.298026 -0.604973 0.252385
-0.287703 -0.638563 -0.602567
0.173317 -0.603610 0.728877
0.613992 0.288349 -0.640814
0.173262 -0.604095 0.727676
0.607930 -0.140518 -0.147267
0.164720 -0.162199 -0.648223
0.614129 0.290081 -0.641319
