OFF
256 0 0
0.664614 0.213718 0.691805
0.669370 0.218794 -0.217171
-0.680362 0.212340 0.212078
0.664950 0.216169 0.690606
-0.220104 0.656435 0.218494
-0.194886 0.244866 0.648258
-0.219426 0.656224 0.221222
0.222961 -0.679095 -0.684185
0.191392 -0.659283 0.239282
-0.674456 0.193620 -0.652645
0.222729 -0.677755 -0.683435
-0.674258 0.193419 -0.651288
-0.679176 0.211214 0.210583
0.703271 -0.660028 -0.232308
-0.226216 -0.666083 -0.232711
0.192461 -0.657739 0.237904
0.239068 0.669686 0.665104
-0.679529 0.211278 0.212011
0.676695 -0.220949 -0.678384
-0.636865 -0.191007 0.641042
-0.637279 -0.190406 0.641610
-0.672681 0.194550 -0.652618
0.232970 -0.227995 0.672727
0.216550 0.654860 -0.246349
-0.637356 -0.191382 0.641155
-0.227392 -0.665721 -0.233620
-0.220562 0.655450 0.219040
-0.667725 -0.234811 -0.210453
-0.237958 0.650259 -0.636398
-0.226975 -0.207034 -0.647505
0.190695 -0.659303 0.236463
0.232707 -0.229486 0.671773
-0.219468 0.655063 0.219878
-0.236983 0.650174 -0.636949
-0.672611 0.192510 -0.652633
0.663891 0.215465 0.688910
0.664507 0.215866 0.690574
0.212263 0.652308 -0.244122
-0.228144 -0.664724 -0.235020
-0.672792 0.192847 -0.652982
0.231961 -0.226827 0.673550
0.214925 0.653449 -0.245943
0.669597 -0.219859 0.200757
-0.228425 -0.622565 0.666167
0.670438 -0.221181 0.201688
-0.226500 -0.208763 -0.649575
-0.229631 -0.620493 0.665172
-0.227597 -0.208491 -0.649896
-0.651274 0.671197 -0.183789
-0.227128 -0.665098 -0.235521
0.663463 0.213319 0.691182
0.192439 -0.658608 0.237859
0.238141 0.669433 0.664824
-0.228919 -0.624247 0.665586
0.212050 0.233982 -0.653698
0.230431 -0.225080 0.672613
-0.227892 -0.666250 -0.235559
-0.674114 0.194330 -0.650908
-0.640502 -0.190919 0.639220
0.223645 -0.677944 -0.683436
0.231376 -0.227620 0.672480
0.223075 -0.680308 -0.683987
0.193308 -0.658380 0.236261
-0.673514 0.191559 -0.651108
0.669553 0.220410 -0.219924
0.669524 0.218615 -0.217810
-0.654295 0.671231 -0.184238
0.237682 0.668973 0.666335
0.653973 0.643322 0.207975
0.212334 0.235494 -0.653443
-0.228318 -0.665201 -0.233726
-0.228699 -0.208891 -0.648212
0.212814 0.234775 -0.653452
0.669598 0.219867 -0.216240
-0.193783 0.246088 0.649088
0.213786 0.654806 -0.245740
0.193033 -0.660346 0.238640
0.233402 -0.229114 0.673476
0.215359 0.236966 -0.653019
-0.192883 0.243910 0.649368
0.212218 0.234955 -0.652984
-0.672919 0.194621 -0.651225
-0.193824 0.248808 0.647168
0.675543 -0.221420 -0.678743
0.672415 -0.220298 0.201655
0.240802 0.667366 0.663716
0.654938 0.640500 0.208513
0.225167 -0.677576 -0.682474
0.190912 -0.659660 0.237679
-0.652704 0.670089 -0.183679
-0.704431 -0.675102 0.216737
0.668717 0.219621 -0.216156
0.671185 -0.220386 0.201608
0.191538 -0.658640 0.237445
0.237369 0.670114 0.664058
0.215680 0.652338 -0.246500
0.675863 -0.220815 -0.678308
0.237938 0.668530 0.665274
-0.674478 0.193728 -0.652738
0.670631 -0.220691 0.200312
-0.225664 -0.666144 -0.233227
0.193274 -0.659976 0.238080
-0.193372 0.245369 0.649360
0.676563 -0.220167 -0.681594
-0.681644 0.212305 0.212739
0.238659 0.670232 0.664369
-0.651325 0.669893 -0.184030
0.667546 0.220547 -0.216012
0.653518 0.643594 0.207951
-0.225940 -0.208120 -0.647447
-0.227536 -0.209402 -0.649078
0.222136 -0.678222 -0.683922
-0.668223 -0.237790 -0.208388
-0.638417 -0.189812 0.639859
0.212727 0.234172 -0.652975
0.674917 -0.218974 -0.679230
-0.639509 -0.189392 0.639085
0.670738 -0.221397 0.201270
0.671401 -0.220987 0.203518
-0.638085 -0.188478 0.638715
-0.227895 -0.665481 -0.234250
0.192136 -0.658295 0.236950
0.675464 -0.218772 -0.679814
-0.225112 -0.663972 -0.234846
-0.670136 -0.238002 -0.208927
0.671735 -0.220846 0.200668
0.230303 -0.226972 0.674672
0.653319 0.641588 0.207248
0.703781 -0.657972 -0.233314
0.674336 -0.221182 -0.678117
0.213911 0.654132 -0.246628
-0.678549 0.211968 0.212284
0.239510 0.667581 0.663590
0.670707 -0.220649 0.200442
0.223762 -0.678533 -0.682965
0.654898 0.642362 0.209278
-0.638695 -0.190331 0.637780
-0.227374 -0.666703 -0.234989
0.222940 -0.679005 -0.683773
0.676351 -0.220023 -0.679614
-0.681202 0.211759 0.213789
-0.706437 -0.676555 0.217627
-0.671989 0.194181 -0.651949
0.230145 -0.226405 0.674248
-0.229994 -0.622293 0.667019
0.232008 -0.228344 0.672502
-0.236588 0.650023 -0.635913
-0.228569 -0.623539 0.666241
-0.236158 0.651600 -0.635230
0.233178 -0.228222 0.671142
0.702946 -0.657910 -0.233060
0.664274 0.213664 0.688970
-0.236060 0.650181 -0.636924
0.667835 0.219848 -0.217924
0.670074 -0.220991 0.201992
-0.228657 -0.210516 -0.648635
0.669452 0.218950 -0.217258
0.669300 0.217681 -0.216924
0.192859 -0.659520 0.237504
0.668356 0.219032 -0.218357
-0.228219 -0.207461 -0.648304
0.656737 0.641405 0.207569
0.192361 -0.658775 0.238198
-0.706019 -0.675985 0.216316
-0.227941 -0.207741 -0.647029
0.191171 -0.658098 0.236745
0.214457 0.655012 -0.246969
-0.653392 0.671911 -0.183961
-0.669095 -0.236592 -0.209574
-0.235544 0.651714 -0.635641
-0.636249 -0.188048 0.640883
-0.639885 -0.188457 0.639556
0.654463 0.641913 0.207051
0.663405 0.214522 0.689493
0.654655 0.641458 0.207768
0.235938 0.668345 0.664670
0.704637 -0.658928 -0.232252
-0.235772 0.651972 -0.634903
0.669973 0.220046 -0.219077
-0.638598 -0.190382 0.639787
0.232150 -0.227691 0.672810
-0.637613 -0.189097 0.642431
-0.674823 0.193555 -0.654672
0.668613 0.219669 -0.216330
0.214937 0.654416 -0.245346
0.233378 -0.229440 0.673002
0.664157 0.214441 0.690194
0.238581 0.669797 0.663302
0.237287 0.668591 0.663730
0.669066 -0.221968 0.202399
-0.668800 -0.236133 -0.209267
-0.228303 -0.663607 -0.235631
-0.681564 0.211986 0.211152
-0.227511 -0.663423 -0.235233
0.233011 -0.227049 0.672593
0.654541 0.641617 0.207048
-0.227571 -0.208167 -0.649437
0.704953 -0.657735 -0.232492
0.212758 0.233619 -0.655041
0.239024 0.669283 0.663880
-0.226456 -0.665403 -0.232900
-0.705824 -0.674567 0.215714
-0.705592 -0.673719 0.218244
0.662983 0.212969 0.689037
0.705672 -0.659149 -0.230918
-0.671996 -0.237172 -0.209655
0.703213 -0.658442 -0.233243
0.233115 -0.228716 0.672599
-0.681815 0.211281 0.212569
-0.228776 -0.665470 -0.234655
0.668884 0.220550 -0.216961
0.233233 -0.227479 0.673249
0.674674 -0.219419 -0.678352
0.662307 0.213195 0.689519
0.702836 -0.658463 -0.232977
0.215613 0.654757 -0.244521
-0.653989 0.672529 -0.184444
0.674839 -0.220110 -0.679210
-0.219605 0.653916 0.217477
0.668586 0.219660 -0.217155
-0.229141 -0.206063 -0.647708
0.239463 0.669463 0.662594
0.674466 -0.220592 -0.678268
-0.681472 0.213118 0.212211
0.652750 0.640070 0.207419
0.672407 -0.221196 0.199923
0.669513 -0.220131 0.203058
0.224436 -0.677399 -0.685285
0.673866 -0.219418 -0.679150
0.661756 0.214841 0.689310
0.214227 0.654196 -0.244851
-0.229275 -0.623263 0.665160
-0.219974 0.655427 0.218937
0.232762 -0.226474 0.672912
-0.706146 -0.675127 0.215578
-0.704323 -0.673791 0.218983
-0.191421 0.246564 0.650235
0.655623 0.641813 0.207570
0.671847 -0.220474 0.199950
0.231605 -0.227752 0.673801
0.191282 -0.658517 0.240053
-0.651113 0.670252 -0.182690
0.667912 0.220179 -0.217008
0.675620 -0.219564 -0.677629
0.675675 -0.221268 -0.678345
-0.227082 -0.665852 -0.234662
0.663261 0.215505 0.689197
0.671293 -0.219495 0.201278
0.653176 0.642353 0.208237
0.193995 -0.658964 0.237145
-0.220413 0.655420 0.218243
-0.707239 -0.675893 0.214907
0.231580 -0.229071 0.671812
-0.228494 -0.207388 -0.648260
0.704073 -0.658764 -0.233406
0.704098 -0.656621 -0.230939
