OFF
256 0 0
0.233179 -0.230462 0.650720
-0.232747 -0.658284 0.662448
-0.667584 0.679305 -0.230766
0.232887 -0.229680 0.649006
0.664292 -0.188226 -0.686908
0.664596 -0.188078 -0.687020
0.677044 0.243687 -0.206771
-0.696335 -0.226721 0.681610
-0.698019 -0.226863 0.680924
-0.697974 -0.227075 0.679162
-0.651840 -0.683113 0.221523
-0.655620 0.197714 0.224568
0.670188 -0.643109 -0.219622
0.652915 0.688758 0.232362
0.699576 -0.248800 0.195469
-0.696332 -0.228529 0.680253
0.664350 -0.188609 -0.689238
-0.233671 0.235336 0.669121
-0.231828 0.235972 0.671974
0.698402 -0.249462 0.197585
-0.651593 -0.683314 0.224854
0.653056 0.689808 0.230964
-0.695824 -0.226310 0.680689
-0.223655 0.677916 -0.684857
-0.669246 -0.253715 -0.204631
-0.202732 -0.226707 -0.632574
0.217585 0.228468 -0.654365
0.218164 0.228432 -0.653792
0.658936 0.227115 0.656583
0.668771 -0.642105 -0.220429
-0.233569 -0.658104 0.661208
-0.658792 0.190809 -0.638766
0.651594 0.686807 0.231679
0.664276 -0.188161 -0.689320
-0.200479 -0.227279 -0.633572
0.241665 -0.658396 -0.667703
-0.695811 -0.225807 0.679135
-0.652624 -0.680736 0.221392
-0.667704 -0.252069 -0.204820
0.677527 0.243742 -0.208067
0.238082 -0.659050 -0.669242
0.234135 0.652342 -0.213527
0.699099 -0.251385 0.195815
-0.234021 0.234942 0.671682
-0.233788 -0.657058 0.661517
0.652417 0.691217 0.232426
-0.232650 0.235841 0.672391
-0.657072 0.197370 0.225321
-0.654987 0.199485 0.225450
0.227077 0.652966 0.651462
-0.697558 -0.225467 0.681516
0.670518 -0.642347 -0.219429
0.658369 0.228267 0.656035
0.233375 -0.229519 0.648841
-0.231878 0.235046 0.673191
0.678733 0.244805 -0.210729
0.233828 -0.228471 0.649360
0.666527 -0.189066 -0.688849
0.232695 -0.229068 0.650865
-0.654976 0.198979 0.223779
-0.668477 -0.251368 -0.204528
-0.241609 -0.677679 -0.250239
-0.650750 -0.682680 0.223523
-0.234694 0.235902 0.670650
-0.241751 -0.679431 -0.250896
-0.222617 0.675847 -0.683758
0.234447 0.654405 -0.213092
0.241524 -0.658908 -0.667740
0.660224 0.227864 0.656251
-0.231507 -0.659614 0.660541
0.698165 -0.250700 0.196575
0.664645 -0.187389 -0.689926
0.651875 0.687600 0.232232
-0.232587 -0.657761 0.659781
-0.657744 0.193187 -0.636944
0.204049 -0.681364 0.226275
-0.698863 -0.227603 0.681160
-0.201313 -0.228277 -0.630900
-0.651886 -0.682243 0.222291
0.660189 0.228172 0.656055
-0.656884 0.198931 0.225436
0.240406 -0.658698 -0.666426
0.226294 0.653100 0.652045
-0.242618 -0.677576 -0.250827
-0.225275 0.676626 -0.686055
0.232516 -0.229147 0.650481
0.654274 0.688453 0.232772
-0.232703 -0.659046 0.661384
-0.234551 0.232975 0.670890
-0.659842 0.193766 -0.638109
-0.241956 -0.678057 -0.251538
-0.202029 -0.227370 -0.631519
0.699849 -0.249771 0.196154
-0.696322 -0.226214 0.681495
0.655734 0.227935 0.654593
0.233494 -0.230287 0.650914
0.227481 0.656816 0.651270
0.218732 0.229819 -0.653245
-0.234317 0.233541 0.670158
-0.658697 0.192439 -0.638618
-0.225899 0.676965 -0.684661
-0.671229 -0.253032 -0.203480
0.203784 -0.681673 0.226387
-0.659557 0.190911 -0.638318
0.204023 -0.680660 0.224111
-0.242874 0.695754 0.222411
-0.652390 -0.682133 0.223471
-0.233291 0.235151 0.671407
-0.669179 -0.253519 -0.203836
0.203911 -0.680229 0.225293
-0.235079 0.234255 0.671126
-0.225312 0.676332 -0.684020
0.218053 0.229783 -0.654572
0.657246 0.227336 0.655628
-0.225000 0.676554 -0.682796
-0.655317 0.192488 -0.637666
0.232518 -0.230516 0.650276
-0.242187 0.696346 0.222005
-0.650849 -0.681364 0.222950
0.666547 -0.187418 -0.689903
-0.242802 0.694943 0.221482
-0.241591 -0.678034 -0.251963
0.203951 -0.682680 0.224659
0.205021 -0.681894 0.223629
0.670897 -0.639375 -0.222767
-0.669823 0.677683 -0.230001
0.657420 0.229023 0.654755
-0.657268 0.197813 0.225685
-0.667539 0.677683 -0.230059
-0.201388 -0.229766 -0.634436
0.665906 -0.185783 -0.688721
0.205240 -0.679508 0.223668
0.222780 0.652295 0.652662
0.672315 -0.641818 -0.221491
-0.200817 -0.227018 -0.631601
0.203902 -0.681901 0.225538
0.220051 0.228695 -0.654610
0.699680 -0.250073 0.197147
0.676793 0.243193 -0.209262
0.232032 0.655184 -0.213541
-0.232181 0.235730 0.671870
-0.201824 -0.228148 -0.632053
-0.233140 0.236227 0.673904
-0.225106 0.676835 -0.684343
0.231302 -0.231730 0.649609
-0.654914 0.198749 0.225788
0.675754 0.242179 -0.208883
0.677202 0.244581 -0.206381
-0.696555 -0.226698 0.680004
0.233304 -0.229812 0.651130
0.217989 0.226753 -0.655721
0.676480 0.244371 -0.208007
0.226258 0.652573 0.648812
0.232981 0.652826 -0.212451
-0.243617 0.695000 0.222621
0.227754 0.653389 0.650281
0.233313 0.652566 -0.215271
0.658629 0.228196 0.655998
0.234895 0.652783 -0.213708
0.231562 0.651781 -0.214326
0.664431 -0.186938 -0.688558
0.651461 0.689544 0.233234
0.653358 0.689512 0.232682
0.700588 -0.251772 0.198478
-0.671488 -0.253899 -0.204484
0.239216 -0.659707 -0.666305
-0.654838 0.198373 0.225693
0.664562 -0.187922 -0.688542
0.240271 -0.657914 -0.667127
-0.697510 -0.226566 0.680253
-0.654737 0.198098 0.224269
-0.654160 0.197631 0.224461
0.699084 -0.249339 0.195655
0.232047 -0.229945 0.651624
0.677538 0.242928 -0.206389
-0.223847 0.676239 -0.684598
0.203864 -0.682602 0.224909
0.230743 -0.229325 0.649592
0.697858 -0.252283 0.195667
-0.652280 -0.683564 0.222910
-0.667354 0.678510 -0.229962
0.650494 0.690447 0.231741
0.700090 -0.248925 0.196180
-0.241246 0.696439 0.223055
-0.697482 -0.226672 0.680461
-0.670750 -0.254232 -0.203999
-0.234903 -0.658656 0.662347
-0.658688 0.190947 -0.639135
0.677697 0.245166 -0.207732
0.226936 0.653447 0.651079
-0.202165 -0.227492 -0.631334
0.240831 -0.659585 -0.667725
-0.200514 -0.228598 -0.632429
-0.696978 -0.227592 0.680717
0.652387 0.689013 0.232532
-0.200457 -0.228037 -0.632191
-0.234608 0.236215 0.672481
0.205355 -0.680474 0.224797
0.240096 -0.658694 -0.666398
-0.666158 0.677226 -0.230018
-0.697078 -0.227172 0.679974
0.217730 0.227539 -0.654388
0.227520 0.654088 0.649104
-0.223243 0.676504 -0.684794
0.233930 0.654921 -0.213060
-0.669126 -0.253001 -0.203001
0.233564 0.652923 -0.212934
-0.200862 -0.226231 -0.633691
0.233110 0.653142 -0.214515
0.233945 -0.229998 0.650867
0.239278 -0.658729 -0.667857
-0.201445 -0.227310 -0.631791
-0.670974 0.679329 -0.230516
0.676699 0.243980 -0.206478
0.666638 -0.188299 -0.688978
0.698258 -0.249999 0.195948
-0.658570 0.189179 -0.638462
-0.668350 -0.251759 -0.201883
0.695902 -0.249141 0.195113
0.665913 -0.186054 -0.687916
-0.666138 0.677459 -0.228995
-0.667401 -0.251969 -0.205143
-0.654202 0.199683 0.223292
0.697498 -0.251847 0.196472
0.670793 -0.641732 -0.218925
0.677683 0.244515 -0.207605
0.234603 0.653047 -0.214432
-0.233772 0.236580 0.673507
-0.654099 0.199408 0.226305
0.678323 0.244711 -0.207577
0.233166 0.652632 -0.210883
0.204561 -0.681953 0.223999
-0.234392 0.237077 0.670940
0.217069 0.227619 -0.654409
-0.241651 0.696133 0.221580
-0.669702 -0.253870 -0.204249
-0.241884 -0.676368 -0.252753
0.234021 -0.229752 0.649878
-0.233078 0.236509 0.671208
-0.200018 -0.228328 -0.634135
0.226361 0.654448 0.651141
-0.242064 -0.678947 -0.252283
0.204424 -0.681284 0.226207
-0.240956 -0.676417 -0.250561
0.240167 -0.658916 -0.668106
-0.240920 -0.678660 -0.250403
-0.659305 0.190826 -0.638958
-0.696805 -0.227520 0.679789
-0.667282 0.678286 -0.231852
-0.200335 -0.226616 -0.633984
-0.241761 0.697952 0.222079
0.652827 0.689992 0.230230
-0.652814 -0.681767 0.222797
0.651046 0.689022 0.233454
0.238827 -0.658265 -0.668828
-0.668554 -0.252229 -0.202857
