OFF
256 0 0
0.658551 -0.623010 -0.228469
0.647917 -0.210929 -0.655236
-0.222275 -0.659559 -0.219569
0.657362 -0.624884 -0.229043
0.241366 -0.196197 0.660103
0.684248 0.234989 0.691155
-0.672244 -0.222030 0.680644
-0.217446 -0.218644 -0.653115
0.673904 0.622362 0.240970
-0.662592 0.198987 0.212148
-0.699085 -0.221036 -0.214087
0.206632 0.203773 -0.639694
-0.241757 0.655682 0.197928
-0.242734 0.657289 0.197497
0.673844 0.621904 0.238478
-0.221410 -0.660468 -0.219231
0.656437 -0.209253 0.222847
0.202567 -0.644848 0.204173
-0.699808 -0.221347 -0.214356
0.206215 -0.643490 0.204607
0.216513 0.644769 0.643565
-0.699577 -0.217904 -0.214164
0.243483 -0.195662 0.659607
-0.698737 -0.221614 -0.213228
0.640656 0.212197 -0.211668
0.656914 -0.206443 0.224269
0.648431 -0.212749 -0.657202
-0.224046 -0.657684 -0.219631
0.206376 0.201234 -0.640055
0.205960 -0.643408 0.205546
-0.212101 -0.649751 0.620728
-0.697242 -0.218404 -0.215071
0.241290 -0.198323 0.658709
0.681912 0.234618 0.690364
0.232284 0.643606 -0.214037
0.649170 -0.210848 -0.655755
-0.645587 0.659243 -0.236924
0.659232 -0.623037 -0.228690
-0.219089 -0.218337 -0.652085
0.205369 -0.642381 0.203944
-0.673184 -0.222085 0.682969
0.204779 0.203706 -0.641921
0.217285 0.647620 0.643969
0.656710 -0.209056 0.222307
0.659077 -0.625459 -0.229231
-0.641566 0.216602 -0.646356
0.685328 0.235096 0.689654
0.685180 0.235756 0.689632
0.649757 -0.212465 -0.658644
-0.223951 -0.656264 -0.219419
-0.230931 0.213476 0.633516
0.203907 -0.640518 0.203791
0.203918 -0.643274 0.204257
0.224161 -0.663624 -0.660374
0.658496 -0.622875 -0.228781
-0.221134 -0.656502 -0.218998
-0.664551 0.198106 0.212682
0.225527 -0.662662 -0.660797
0.650586 -0.210147 -0.658746
0.648010 -0.211996 -0.655901
0.205234 -0.642949 0.202492
0.658709 -0.624505 -0.228193
0.649919 -0.210594 -0.658080
-0.241723 0.655131 0.195931
0.230276 0.646062 -0.216502
0.216913 0.646847 0.641059
-0.212520 -0.650342 0.620212
0.206826 0.201711 -0.640123
0.205846 -0.641587 0.203709
-0.207963 0.671714 -0.631357
-0.672376 -0.224257 0.681190
-0.229699 0.213798 0.632464
-0.641284 0.219023 -0.647514
-0.672447 -0.221881 0.681180
0.205788 -0.643690 0.205906
0.674872 0.621512 0.239118
-0.636439 -0.660421 0.206461
0.684361 0.234726 0.690172
0.241600 -0.195683 0.659288
-0.240629 0.655572 0.194873
-0.641040 0.218009 -0.647989
-0.213607 -0.650592 0.621377
-0.217357 -0.217564 -0.652620
0.640130 0.211438 -0.211673
-0.641802 0.218849 -0.647242
-0.661109 0.197883 0.213894
-0.697841 -0.219048 -0.215044
-0.233181 0.211337 0.635212
-0.636599 -0.660781 0.206208
0.646604 -0.208503 -0.655180
-0.240026 0.655477 0.198135
-0.216834 -0.218819 -0.654712
-0.222609 -0.657079 -0.221935
-0.241149 0.655423 0.198172
0.649349 -0.210761 -0.657921
-0.639905 0.217914 -0.647791
0.683241 0.233457 0.690275
-0.671375 -0.223544 0.680675
0.680481 0.233699 0.690781
-0.230968 0.213019 0.635628
-0.643825 0.657451 -0.237534
-0.221849 -0.658773 -0.218785
-0.636897 -0.660902 0.207379
0.646885 -0.210575 -0.655557
0.229803 0.647583 -0.215346
-0.661732 0.198317 0.212104
-0.222764 -0.657743 -0.220399
0.657056 -0.206844 0.222097
0.640667 0.211247 -0.210532
-0.662124 0.198123 0.211958
0.656817 -0.208366 0.222829
-0.673247 -0.222880 0.680377
0.218786 0.643870 0.642144
-0.223425 -0.657920 -0.220384
0.204978 0.204411 -0.638300
-0.232248 0.214042 0.635577
-0.662776 0.196942 0.214008
0.224571 -0.665046 -0.660399
-0.211147 -0.650147 0.622050
0.673724 0.621152 0.240231
0.671903 0.621992 0.239024
0.204169 -0.643870 0.202472
0.657889 -0.623459 -0.227702
-0.240419 0.656183 0.199049
0.675622 0.621820 0.238910
0.657068 -0.622369 -0.228323
-0.636284 -0.661410 0.206837
-0.670963 -0.223736 0.681411
-0.645685 0.657827 -0.237539
0.657991 -0.625930 -0.228525
0.230581 0.645153 -0.215047
0.656954 -0.625624 -0.228131
-0.215375 -0.218273 -0.652580
-0.223081 -0.657804 -0.219859
0.229256 0.644747 -0.215075
-0.673666 -0.222784 0.679731
-0.219646 -0.218750 -0.652075
0.656974 -0.207293 0.223386
-0.222619 -0.659123 -0.219742
-0.672710 -0.221121 0.681950
-0.642798 0.657888 -0.236228
-0.672145 -0.219414 0.681698
0.218580 0.646694 0.641450
-0.672475 -0.223065 0.681685
-0.230874 0.211991 0.635048
-0.217379 -0.220365 -0.651583
0.205669 0.204635 -0.637935
0.683265 0.236462 0.688289
0.684091 0.232122 0.690661
0.217972 0.646579 0.641039
0.685272 0.237649 0.688803
0.204659 0.202368 -0.640844
-0.661776 0.198104 0.212500
-0.643863 0.657567 -0.236969
-0.662378 0.197016 0.213355
0.673315 0.620149 0.240312
-0.644076 0.656539 -0.236209
-0.697972 -0.221221 -0.215416
-0.240180 0.656148 0.196582
0.231082 0.644328 -0.214728
0.204289 -0.641732 0.202472
0.206755 0.203120 -0.641347
-0.698924 -0.220560 -0.214501
-0.240079 0.656555 0.196545
-0.671407 -0.222291 0.681668
0.217148 0.646348 0.642320
0.673519 0.620746 0.238112
-0.240559 0.657222 0.196206
0.657330 -0.208598 0.222012
-0.644309 0.658099 -0.236571
0.643045 0.211288 -0.210830
-0.645533 0.656882 -0.237917
0.222714 -0.663477 -0.663492
-0.644216 0.658074 -0.235639
-0.645232 0.660340 -0.236696
-0.672076 -0.222918 0.681088
-0.642670 0.655594 -0.236877
0.231727 0.643379 -0.214414
-0.660680 0.196331 0.212302
-0.223345 -0.658768 -0.220774
0.641330 0.210278 -0.208956
-0.663521 0.198381 0.212756
0.206262 -0.643650 0.204381
0.241944 -0.195561 0.661107
-0.231202 0.211624 0.634510
0.640060 0.212089 -0.209609
0.673907 0.621366 0.240593
-0.644647 0.658503 -0.236610
-0.221825 -0.656560 -0.220333
0.241588 -0.197726 0.660527
-0.636974 -0.660921 0.207841
-0.209207 0.674195 -0.629909
-0.699263 -0.219329 -0.214653
-0.644448 0.657609 -0.236426
0.672562 0.621884 0.239443
0.675042 0.620539 0.240863
0.217588 0.646458 0.640124
-0.230318 0.212845 0.634815
0.640609 0.211363 -0.208594
0.647623 -0.211449 -0.657747
0.684517 0.233598 0.692022
0.684287 0.235477 0.688618
-0.231368 0.214584 0.635742
0.657489 -0.624500 -0.228215
0.658182 -0.624583 -0.230726
-0.636217 -0.660560 0.206352
0.646903 -0.210588 -0.658033
-0.640241 0.221006 -0.647151
-0.230740 0.211226 0.634840
0.206645 0.202154 -0.638963
0.205311 0.202481 -0.639823
0.683634 0.234740 0.690411
-0.635768 -0.662503 0.205878
-0.218450 -0.217768 -0.654005
0.657706 -0.623926 -0.229708
-0.241537 0.654547 0.197151
0.215052 0.645974 0.642697
0.641325 0.210214 -0.211123
0.242008 -0.198215 0.660514
-0.230574 0.212545 0.634499
-0.207036 0.673323 -0.630713
0.222884 -0.664921 -0.662184
0.230613 0.645126 -0.213507
-0.645510 0.657232 -0.237274
0.205554 -0.643030 0.205135
-0.661503 0.198272 0.214327
-0.644333 0.658918 -0.236155
-0.634758 -0.660576 0.205519
0.650818 -0.211124 -0.656373
-0.671890 -0.223711 0.681265
-0.212039 -0.647647 0.621991
-0.212457 -0.649593 0.621144
0.205748 0.202668 -0.641205
-0.241582 0.657421 0.198357
0.641140 0.211742 -0.212118
0.241908 -0.196683 0.659664
0.646423 -0.207796 -0.656767
0.671919 0.623411 0.237667
0.655259 -0.207767 0.222948
0.205938 -0.643005 0.202764
-0.644343 0.657812 -0.236322
-0.240800 0.656073 0.197306
0.204841 -0.643315 0.205086
-0.636177 -0.663002 0.206955
0.655522 -0.622412 -0.228589
-0.224722 -0.658121 -0.219422
0.204957 0.201589 -0.640498
0.656746 -0.625638 -0.227325
0.672918 0.620041 0.238763
-0.640720 0.218308 -0.646703
0.648631 -0.210144 -0.655164
0.225278 -0.663642 -0.661195
0.683073 0.235036 0.690465
-0.217013 -0.218386 -0.653754
-0.661723 0.197669 0.213883
-0.699484 -0.216985 -0.213983
