OFF
256 0 0
0.657673 0.209941 -0.211913
0.240224 -0.224526 0.670670
0.671252 -0.647730 -0.219243
0.226505 0.711320 0.646888
-0.664900 0.678837 -0.204298
-0.692371 -0.224616 0.666180
-0.671319 -0.675825 0.208061
0.228709 0.223224 -0.662256
0.246737 -0.639259 0.193555
0.650054 0.659184 0.207055
0.226987 0.708104 0.644866
-0.220808 0.209500 0.658004
-0.216587 0.211408 0.658874
-0.691142 -0.222143 0.664742
-0.690285 -0.225498 0.667539
0.227127 0.709581 0.643243
0.686189 -0.220836 -0.672616
0.650137 0.658297 0.207554
-0.671776 -0.678859 0.210667
0.239310 -0.226474 0.670664
0.228916 0.221692 -0.662578
-0.242843 0.669729 -0.673372
-0.677223 -0.241844 -0.231193
-0.665474 0.679193 -0.204771
0.670934 -0.651088 -0.219634
0.227577 0.711055 0.644040
0.682335 0.233784 0.692446
0.241014 -0.229059 0.671733
0.246619 -0.640341 0.193072
-0.677676 0.197808 -0.658583
-0.256288 -0.238674 -0.659075
-0.205347 -0.694892 -0.205566
-0.664216 0.679767 -0.203917
0.687282 -0.221631 -0.672998
0.656770 0.214135 -0.210815
-0.206641 -0.695895 -0.202919
-0.679349 -0.238770 -0.232557
0.688134 -0.223165 -0.672837
0.650630 0.657398 0.209122
0.239251 -0.227630 0.670174
0.227391 0.221245 -0.660361
-0.207734 -0.695231 -0.204812
-0.691516 -0.224727 0.665058
0.649739 0.659519 0.208315
0.222241 -0.668929 -0.628713
0.659868 0.213792 -0.211305
-0.236499 0.660345 0.194974
0.657925 0.211398 -0.210215
0.246943 -0.639356 0.194524
-0.677882 -0.241380 -0.231162
0.221689 -0.666917 -0.629623
-0.667433 0.213380 0.235065
0.692013 -0.205777 0.224953
0.226434 0.710109 0.643858
0.681553 0.235500 0.694502
0.687894 -0.220685 -0.672705
0.658281 0.212086 -0.210970
0.229298 0.222848 -0.660709
-0.206014 -0.694617 -0.204547
-0.676247 0.197598 -0.658986
-0.677013 -0.239933 -0.231550
-0.669906 -0.677171 0.209109
-0.678592 -0.239838 -0.229455
0.228363 0.663207 -0.224560
0.242824 -0.227329 0.672099
0.650208 0.657153 0.207889
0.224264 -0.667459 -0.626762
-0.257254 -0.239223 -0.659041
-0.207258 -0.692280 -0.203651
0.229693 0.221712 -0.661143
0.693619 -0.205158 0.224923
0.681101 0.235595 0.691572
0.228567 0.222187 -0.662835
-0.220465 -0.645576 0.646535
-0.258605 -0.238510 -0.661420
-0.220251 -0.643107 0.645294
0.229649 0.221170 -0.661172
0.222926 -0.667090 -0.628539
-0.665147 0.678785 -0.205070
-0.693159 -0.225881 0.665926
-0.256583 -0.239080 -0.660878
0.691528 -0.204307 0.225141
-0.667868 0.212598 0.235670
-0.217499 -0.643016 0.648224
-0.257474 -0.238541 -0.659045
-0.665484 0.679115 -0.204646
-0.257194 -0.240228 -0.659125
-0.668263 0.214216 0.235981
0.691030 -0.207270 0.223599
-0.219469 0.210360 0.658712
0.672363 -0.650658 -0.222282
-0.677552 -0.240494 -0.230639
0.688240 -0.221336 -0.672947
0.239976 -0.227869 0.671560
0.227315 0.223808 -0.660337
-0.680788 -0.240996 -0.231644
-0.676443 0.198554 -0.659891
-0.667137 0.212010 0.236428
-0.675677 0.197865 -0.659316
-0.257155 -0.239615 -0.658364
0.223175 -0.668086 -0.629106
0.229006 0.223796 -0.660879
0.670997 -0.648661 -0.221637
-0.254889 -0.241074 -0.657104
0.692169 -0.207210 0.225023
-0.257637 -0.239198 -0.660067
0.221122 -0.666802 -0.629307
0.688026 -0.221379 -0.673049
-0.219260 0.211622 0.659660
-0.665794 0.678872 -0.205162
-0.667634 0.213230 0.234648
-0.241806 0.672494 -0.672022
-0.207063 -0.694338 -0.204720
0.226712 0.664134 -0.223153
-0.256750 -0.238308 -0.662434
0.247459 -0.641014 0.194143
0.689425 -0.220980 -0.670979
-0.666914 0.214663 0.234789
0.680940 0.235099 0.690526
0.680606 0.235271 0.694275
0.227316 0.662455 -0.223235
-0.676738 0.197368 -0.659310
-0.220499 -0.644548 0.644071
0.680610 0.235966 0.695000
0.227221 0.662959 -0.224251
-0.219633 0.212116 0.657493
-0.242135 0.672726 -0.672221
0.672261 -0.648280 -0.218012
-0.664330 0.678484 -0.205895
0.682011 0.236945 0.693427
-0.678965 -0.241657 -0.232270
-0.244228 0.670806 -0.673345
0.227787 0.710834 0.646904
-0.664425 0.681618 -0.203865
0.650932 0.657116 0.207596
-0.667124 0.678307 -0.206181
0.679945 0.238070 0.693833
-0.674804 0.196903 -0.658968
0.690442 -0.207516 0.225609
-0.678124 -0.240229 -0.231531
-0.670394 -0.677829 0.207529
-0.667202 0.215825 0.236945
0.658443 0.211999 -0.209206
-0.670558 -0.678783 0.210354
0.669146 -0.649547 -0.219148
0.225805 0.709182 0.646481
0.239502 -0.226975 0.671440
-0.243678 0.671848 -0.673713
0.658353 0.214518 -0.210458
-0.219623 -0.643761 0.645061
0.657604 0.214467 -0.210539
0.691736 -0.205229 0.223745
-0.691879 -0.225407 0.665940
0.229015 0.223173 -0.660671
-0.676036 0.198972 -0.659765
-0.236658 0.657113 0.193894
0.687452 -0.221754 -0.673520
-0.243409 0.672002 -0.673564
-0.664250 0.680375 -0.203929
0.690414 -0.206827 0.224980
0.227496 0.222551 -0.659842
-0.691835 -0.225729 0.667934
-0.242694 0.671903 -0.671966
0.227800 0.660469 -0.224438
0.691362 -0.207034 0.226721
-0.243203 0.670393 -0.673209
0.680980 0.236623 0.694473
0.230046 0.220801 -0.660931
0.223623 -0.665991 -0.627580
0.672309 -0.649449 -0.221937
-0.667374 0.214058 0.236947
-0.690770 -0.226833 0.667551
0.687953 -0.220847 -0.674191
0.228248 0.663015 -0.223978
0.229043 0.221944 -0.658845
0.657313 0.213630 -0.212439
0.679587 0.237798 0.693163
0.691176 -0.207453 0.225351
0.659587 0.213862 -0.211216
-0.255882 -0.239144 -0.657746
-0.674426 0.195982 -0.657573
-0.219991 -0.643186 0.644830
0.228824 0.708339 0.645818
-0.220406 -0.643814 0.645752
-0.221102 0.212947 0.657840
0.246969 -0.639034 0.193175
-0.220168 0.213025 0.659881
-0.693462 -0.224538 0.666352
0.655913 0.211682 -0.211415
-0.235117 0.658898 0.194776
-0.244254 0.671032 -0.672433
-0.678743 -0.241288 -0.231940
0.239775 -0.225862 0.671546
0.226613 0.710375 0.644582
0.657978 0.211724 -0.211651
-0.237408 0.658097 0.194515
0.658345 0.212226 -0.211346
-0.220419 -0.645463 0.644990
0.223220 -0.669225 -0.630645
0.693214 -0.205668 0.225634
-0.244382 0.672383 -0.672199
-0.672415 -0.677889 0.208267
0.241354 -0.226534 0.671824
0.247493 -0.639969 0.194296
0.659293 0.211900 -0.211828
0.222846 -0.668246 -0.628920
0.224353 -0.667022 -0.625708
0.240505 -0.228224 0.670857
-0.219753 0.211673 0.659402
-0.672153 -0.675727 0.208505
0.239459 -0.228551 0.671372
-0.691055 -0.224189 0.666044
0.239175 -0.226280 0.669618
0.690527 -0.206780 0.224720
-0.693315 -0.223872 0.668036
-0.220623 -0.643937 0.645282
0.658383 0.213444 -0.210992
-0.679208 -0.239260 -0.232467
0.687865 -0.220263 -0.673587
-0.670052 -0.677467 0.209799
-0.207548 -0.694631 -0.202620
0.681773 0.237741 0.692072
0.240819 -0.227640 0.671953
-0.676569 0.198231 -0.658986
-0.237658 0.657908 0.195196
0.657458 0.213537 -0.208432
0.681648 0.237738 0.693313
0.227389 0.709002 0.645660
0.656529 0.212660 -0.211371
0.227241 0.708501 0.645201
-0.218575 -0.644604 0.645585
0.227640 0.709345 0.644871
0.650157 0.659526 0.206187
-0.666652 0.679248 -0.204499
-0.678452 -0.240319 -0.231979
-0.208833 -0.693776 -0.204872
-0.667043 0.212118 0.237005
-0.219227 -0.643074 0.646321
-0.219986 0.211030 0.658437
-0.242731 0.671812 -0.671840
0.680194 0.237012 0.694512
-0.677718 0.198063 -0.659107
0.685240 -0.220174 -0.675093
-0.242588 0.671590 -0.673088
0.690896 -0.206493 0.224838
-0.665358 0.212836 0.237131
-0.679402 -0.242513 -0.232982
-0.208518 -0.693332 -0.205901
-0.664978 0.679453 -0.206426
0.222769 -0.668593 -0.629046
-0.670246 -0.679168 0.209746
0.244575 -0.639185 0.195702
0.688904 -0.220473 -0.672542
-0.664469 0.678824 -0.206019
0.241059 -0.226254 0.671555
0.239059 -0.225866 0.671696
