OFF
256 0 0
0.228432 0.688533 -0.227940
-0.227917 -0.689562 0.687322
-0.688635 -0.690285 0.229921
0.688649 0.687199 0.228576
-0.229021 0.230886 0.688182
0.687027 -0.228909 0.230635
-0.229643 0.229101 0.688993
-0.232169 0.688040 -0.687914
0.230048 0.687312 0.687928
-0.688039 -0.688176 0.230175
0.228844 0.229356 -0.685757
0.228446 -0.687205 -0.689489
0.231142 0.228621 -0.688207
0.229182 -0.229482 0.688888
-0.689169 -0.229256 -0.228737
0.688195 0.227930 -0.230412
0.690781 -0.689225 -0.228518
-0.688889 -0.228986 -0.228693
-0.228804 -0.687614 0.687371
-0.229158 -0.228357 -0.687527
0.686664 -0.689568 -0.229380
0.688509 -0.229522 -0.688047
0.229097 -0.687724 0.228613
0.690319 0.229139 -0.229444
0.688019 -0.229946 0.229698
-0.688477 0.688698 -0.229623
0.688372 0.229007 0.688487
-0.228545 -0.230065 -0.688409
0.687513 -0.229233 -0.688158
0.229649 0.689020 0.688479
-0.230476 0.688036 -0.687353
-0.688779 0.688296 -0.230358
-0.689517 -0.228808 0.687744
-0.689269 0.229215 0.229076
0.687341 -0.687111 -0.227697
0.688493 -0.229833 -0.688002
0.230438 0.688576 0.687307
0.228087 0.689455 -0.229130
-0.689306 -0.687154 0.229160
-0.228218 0.688512 -0.689863
-0.228389 0.687015 0.229430
0.231582 0.688968 0.689142
0.229641 0.228410 -0.686900
-0.687636 -0.229089 -0.231590
-0.687876 0.228616 0.229290
-0.687261 -0.229253 -0.229566
-0.227476 -0.687543 0.686969
-0.687110 -0.229435 0.687976
-0.688455 -0.230124 0.687060
0.229563 0.686886 0.688400
-0.230403 0.229964 0.686275
-0.686667 0.230731 -0.688636
-0.689357 -0.229293 -0.230194
-0.687285 0.231759 -0.688729
-0.229582 -0.689315 -0.228567
0.688560 0.687549 0.229104
-0.227907 0.687524 -0.687584
0.229521 -0.688638 -0.688023
-0.688198 0.688441 -0.229411
-0.230572 -0.228880 -0.688909
-0.228519 -0.687496 0.686548
0.229944 -0.687760 0.228465
-0.687830 0.687839 -0.228912
0.688383 -0.228821 0.228229
0.230603 -0.229041 0.688230
-0.230172 -0.229424 -0.687130
0.230279 0.227504 -0.688474
-0.689769 0.687613 -0.228527
-0.687822 -0.688495 0.229383
0.687673 0.229467 -0.230304
-0.229647 0.687907 0.230237
0.687295 0.230352 -0.228838
0.227244 -0.686606 -0.687651
-0.687233 0.688255 -0.230333
-0.229413 -0.229949 -0.689008
0.688723 0.688410 0.231582
0.687335 -0.229952 -0.687622
0.228450 -0.688709 -0.686356
0.230375 0.689718 0.689543
0.686888 -0.228703 0.230207
-0.229335 -0.229356 -0.688191
-0.229203 -0.687862 -0.231688
-0.228930 -0.688944 0.688548
0.688081 -0.230539 -0.686333
0.229783 0.690200 -0.228487
-0.688982 0.690036 -0.227634
0.688499 0.230926 -0.228790
-0.228352 -0.228538 -0.688612
0.686656 0.229427 -0.228794
0.229378 -0.229408 0.690135
-0.227953 -0.230804 -0.687805
-0.689588 -0.230149 0.688816
0.685990 -0.229017 -0.686709
-0.230278 -0.229058 -0.687735
0.688433 0.230100 0.689674
0.686081 0.229032 0.685865
-0.690099 0.230473 0.228445
0.228259 -0.690312 -0.689977
0.229174 0.227729 -0.688721
0.229992 0.228567 -0.690041
-0.687957 0.230370 0.228798
-0.229577 -0.686695 0.688719
-0.689085 0.688657 -0.228804
-0.688412 -0.230395 -0.231841
-0.229426 -0.687710 -0.229791
0.686251 -0.228279 -0.687928
0.689251 -0.229600 0.229963
0.686695 -0.688823 -0.229398
0.689259 -0.229549 -0.687164
-0.688727 0.230453 -0.688634
0.230642 -0.228869 0.686027
-0.688103 0.230280 -0.686752
0.226743 -0.225996 0.687705
-0.689513 0.230562 -0.688474
0.230646 -0.688362 -0.688711
0.229736 -0.688916 -0.689570
0.230148 0.231529 -0.688639
0.687586 -0.228555 -0.686842
0.688090 -0.228871 -0.687573
0.227881 -0.689205 -0.687174
0.687990 0.685767 0.228692
-0.685838 -0.229550 0.689427
0.229919 0.229411 -0.687943
0.688908 -0.228234 -0.688559
0.688723 0.228959 0.686173
-0.688858 0.231280 0.231040
-0.230070 0.689768 -0.689154
0.687632 0.228371 0.688428
0.689373 0.688593 0.229836
-0.689036 0.228698 0.231134
0.687847 -0.228912 -0.690012
0.228382 -0.229896 0.688586
-0.689432 0.230070 0.229084
-0.228955 -0.688667 0.688556
0.688299 0.688239 0.228984
0.688847 -0.689941 -0.229676
0.230793 -0.687049 -0.688756
0.688539 -0.686618 -0.228812
-0.227874 0.689049 0.230319
-0.690050 0.229987 0.227820
0.229113 0.688025 -0.227466
0.229448 0.687432 -0.230833
0.229195 0.229010 -0.687708
0.228705 -0.229010 0.689497
0.229742 -0.687502 -0.688600
0.688605 -0.688154 -0.229976
-0.230833 0.688369 -0.689111
-0.688800 -0.228785 0.686128
-0.228443 -0.229959 -0.687398
-0.228446 -0.688586 0.689244
0.227338 0.689347 -0.229971
0.227998 0.229008 -0.689218
-0.229810 0.230403 0.688431
0.230271 -0.228836 0.688864
-0.227432 -0.227903 -0.690849
-0.229133 -0.229526 -0.686972
-0.689733 -0.230037 0.686778
-0.228393 -0.228709 -0.688240
-0.688215 -0.687143 0.228608
0.228526 0.689317 0.687752
-0.228665 0.688734 0.230654
-0.686709 -0.228295 0.688772
-0.229827 -0.687535 -0.229943
0.688476 0.689003 0.228849
-0.687457 -0.688869 0.230196
0.688527 0.229943 0.689329
0.228945 0.687737 -0.228538
-0.229828 0.229848 0.689224
0.689081 0.227740 0.687103
0.688701 0.687784 0.228434
-0.228954 -0.231211 -0.688387
-0.688359 -0.230895 -0.228679
0.689650 -0.229119 -0.686806
0.689126 -0.228107 -0.687923
0.689842 0.228962 0.687202
-0.689893 -0.228407 -0.230288
-0.687320 0.230238 -0.687234
0.227843 -0.689097 -0.687894
0.687959 0.227693 -0.229331
-0.226443 0.685242 0.229000
0.686852 -0.688566 -0.229366
0.230094 0.686395 -0.230583
0.688887 0.229967 -0.230822
0.688847 -0.688769 -0.229107
-0.688699 0.689668 -0.229369
-0.229742 0.687886 0.227429
0.689412 -0.229466 0.228553
-0.688399 0.229540 0.228800
0.228372 -0.687516 0.230017
0.229572 -0.231109 0.687184
0.231619 0.689513 0.688091
-0.688702 -0.688376 0.228296
0.687433 -0.229346 0.228837
0.230618 -0.687636 0.229796
-0.229666 0.688452 -0.689236
-0.229600 -0.686288 0.688786
0.687541 0.230511 -0.229470
0.227914 -0.686233 0.229969
-0.228586 -0.688239 0.687041
0.227621 -0.229238 0.688370
0.229224 -0.687073 0.229928
0.229643 -0.688099 -0.688093
0.229584 0.229584 -0.688337
-0.689652 0.227820 -0.687555
0.687543 0.230106 0.688789
-0.230196 -0.229415 -0.689005
0.230340 -0.231270 0.688222
-0.228996 -0.687380 0.688775
-0.228514 -0.229201 -0.689788
0.228915 -0.688503 -0.686569
-0.689176 0.230257 0.227457
0.688490 -0.229284 0.227394
-0.228176 0.229968 0.686054
0.687256 -0.230187 0.229984
-0.229256 0.689185 0.227410
-0.230525 0.687795 -0.687885
-0.688864 -0.229821 0.686993
0.687710 0.686964 0.228298
0.228517 -0.228788 0.688363
0.229762 0.689556 0.687903
0.228666 -0.687341 -0.689228
0.230186 0.686827 -0.230417
0.689329 0.229602 -0.229798
0.687855 0.688558 0.228938
-0.687743 0.688750 -0.230500
-0.229989 -0.687990 0.687822
-0.229196 -0.688459 0.688967
-0.231194 -0.687461 -0.229062
-0.229791 -0.229049 -0.686819
-0.687964 -0.687096 0.230024
0.229869 -0.687078 0.227239
0.688292 0.229848 -0.231325
0.228981 0.227453 -0.689212
0.231367 0.690204 0.688980
0.686259 -0.228689 -0.688086
0.686889 0.230004 0.689094
-0.689875 0.687185 -0.229977
-0.230160 -0.229472 -0.689020
-0.687242 -0.230163 0.688869
0.687217 0.229440 0.686556
-0.229464 0.686004 0.229028
-0.688753 0.228679 0.227976
0.229183 0.230629 -0.686719
0.687534 -0.688451 -0.231469
-0.687580 -0.689037 0.228905
0.687570 0.686837 0.230401
0.687752 0.229411 -0.231635
-0.230070 0.228716 0.687425
0.688575 -0.687919 -0.229303
0.687449 -0.688893 -0.226916
0.688358 0.687306 0.228626
-0.689043 0.688813 -0.230737
0.229050 0.229921 -0.689723
-0.688257 -0.228892 -0.228605
-0.686696 -0.689243 0.228602
-0.228794 0.232037 0.687924
