OFF
256 0 0
0.229777 -0.678945 -0.696210
-0.643398 0.242434 -0.661186
0.229905 -0.681487 -0.696605
-0.229216 -0.671035 0.656120
-0.228376 0.677456 0.265636
0.663168 -0.204959 -0.685033
-0.629233 -0.259713 0.666316
0.243845 -0.653351 0.220631
0.642892 0.192467 -0.236279
-0.212780 0.681609 -0.662511
0.216094 0.222850 -0.697214
-0.199247 -0.234199 -0.653359
0.229420 -0.680584 -0.695253
-0.670504 0.645330 -0.216034
0.222188 0.680818 0.681018
0.222884 0.682009 0.680919
0.215477 0.226170 -0.695139
0.216204 0.226349 -0.697171
0.214353 -0.235704 0.671803
0.664665 -0.207242 -0.684131
0.221105 0.681115 0.679330
-0.229798 -0.668864 0.656632
-0.205159 0.232651 0.690134
-0.229103 -0.670365 0.655130
-0.204236 0.234864 0.688731
-0.637366 0.193117 0.250338
0.650581 -0.656014 -0.216258
-0.228945 0.679301 0.262795
-0.203878 0.233638 0.686981
-0.636073 0.192676 0.250411
0.663627 -0.206693 -0.684960
0.229623 -0.680700 -0.696470
-0.201861 -0.235014 -0.651732
0.639200 -0.194425 0.211498
0.650645 -0.656756 -0.217987
0.663474 -0.207904 -0.683629
-0.202521 0.233666 0.687774
0.663303 -0.205834 -0.683241
0.640580 0.621115 0.205162
0.215368 0.223831 -0.695638
-0.643995 0.241784 -0.660604
0.232148 -0.680428 -0.695523
0.640251 -0.196144 0.211547
-0.230486 -0.671005 0.656183
0.216136 0.224761 -0.695139
-0.644492 0.243249 -0.660441
-0.639436 0.191639 0.253528
-0.204511 0.232226 0.687581
-0.675236 -0.208081 -0.216481
-0.200360 -0.232893 -0.650965
0.214689 -0.237545 0.672142
0.662985 0.227019 0.661703
-0.638577 0.192039 0.250785
0.651405 -0.656605 -0.216473
-0.201582 -0.233619 -0.654975
0.640102 -0.192800 0.213445
-0.203175 0.232892 0.688958
-0.676975 -0.207938 -0.214598
-0.643483 0.243114 -0.661734
-0.674830 -0.207811 -0.215660
0.649684 -0.656493 -0.216414
-0.644217 0.242953 -0.661200
-0.214655 0.681055 -0.664663
0.661264 0.226307 0.659733
-0.675472 -0.208221 -0.215211
-0.638587 0.192688 0.250199
0.222043 0.678573 0.679614
0.228829 -0.678740 -0.694695
-0.629409 -0.257807 0.666809
-0.675330 -0.209113 -0.215658
-0.628865 -0.256306 0.667183
-0.205852 -0.617420 -0.212983
0.639875 -0.195371 0.210932
-0.675115 -0.209144 -0.214952
-0.230709 -0.671252 0.656998
0.219491 0.660591 -0.241660
-0.675803 -0.208511 -0.214375
0.215843 0.224549 -0.695998
0.244779 -0.654866 0.219073
-0.227974 0.679356 0.265276
0.640324 -0.194888 0.212058
0.217986 0.660626 -0.242478
0.639680 0.623275 0.206259
0.218236 0.660662 -0.241383
0.650066 -0.656362 -0.217949
-0.201598 -0.232923 -0.652547
0.664870 -0.205962 -0.683466
-0.670998 0.643190 -0.214714
0.639517 0.623795 0.206767
0.639298 0.622786 0.205988
0.220550 0.661121 -0.243300
0.649644 -0.655821 -0.215639
0.663718 -0.207002 -0.683110
0.641700 -0.195355 0.212065
-0.669362 0.643755 -0.213858
-0.213527 0.680264 -0.664521
0.662050 -0.205013 -0.683318
0.651588 -0.655663 -0.215555
0.214295 -0.236427 0.672671
0.661105 0.226110 0.658951
-0.229963 -0.672460 0.655133
-0.207435 -0.618246 -0.214175
0.213447 0.226307 -0.695648
0.221678 0.681508 0.677798
-0.213840 0.681596 -0.663162
0.664970 -0.207536 -0.683961
0.665649 -0.205850 -0.683104
-0.228536 -0.669835 0.655641
0.214956 -0.238185 0.671865
0.641102 0.192303 -0.236305
-0.228809 -0.670698 0.657078
0.638978 0.624047 0.204132
0.216669 0.224461 -0.694263
-0.630352 -0.258627 0.668395
-0.643831 0.243232 -0.660599
0.640876 -0.195335 0.213695
-0.704138 -0.662868 0.211080
0.222295 0.681305 0.680774
0.661638 0.226037 0.660924
-0.639744 0.191261 0.252393
0.640522 0.623536 0.204548
0.644620 0.193360 -0.236543
-0.215109 0.680294 -0.664062
0.649448 -0.655939 -0.217100
0.640462 0.622353 0.204040
-0.213739 0.680068 -0.663051
0.661325 0.226532 0.660063
-0.630336 -0.257492 0.666150
0.639288 -0.193743 0.212968
0.639950 0.623538 0.206129
0.218059 0.661757 -0.242116
0.639565 0.623291 0.204403
-0.225094 0.677262 0.263595
-0.706550 -0.664243 0.210069
0.222085 0.679784 0.679686
-0.637763 0.192497 0.253119
0.639601 -0.194271 0.211686
0.230616 -0.682086 -0.695737
-0.204133 -0.618808 -0.211868
0.649639 -0.655144 -0.216155
0.218295 0.661258 -0.241629
-0.200527 -0.233507 -0.652572
-0.204513 0.232505 0.688531
0.639372 -0.194582 0.213016
-0.705885 -0.664925 0.209021
-0.213655 0.680736 -0.662849
0.216285 0.225697 -0.696224
-0.644448 0.244376 -0.661054
0.214074 -0.237922 0.671906
0.660242 0.227073 0.660182
-0.669079 0.643028 -0.216051
0.640908 -0.195801 0.212380
-0.227969 0.678695 0.265665
-0.644412 0.243305 -0.662495
-0.636297 0.191938 0.251315
0.664938 -0.207218 -0.684188
-0.707542 -0.664743 0.209439
-0.638672 0.193343 0.251361
0.664058 -0.207277 -0.683854
0.642189 -0.192322 0.213031
0.218912 0.659995 -0.240418
-0.669227 0.641196 -0.213387
0.224194 0.682239 0.680332
0.640356 -0.194018 0.211365
0.643687 0.195193 -0.234803
-0.707886 -0.661094 0.209456
0.231015 -0.681287 -0.697321
-0.204097 0.233906 0.689513
0.660721 0.226910 0.660131
0.219197 0.660967 -0.241574
0.221236 0.682515 0.680400
0.638435 0.623939 0.206750
0.651613 -0.657553 -0.217043
0.650791 -0.654949 -0.216105
-0.228307 0.678657 0.263788
-0.206620 -0.620439 -0.213220
-0.226725 0.678432 0.265096
-0.677406 -0.209286 -0.214186
-0.670935 0.642926 -0.217317
0.245345 -0.652639 0.221639
0.651653 -0.657029 -0.217067
0.245558 -0.653905 0.218122
0.217126 0.225311 -0.695879
-0.676449 -0.208449 -0.215025
0.220144 0.679485 0.681199
-0.629109 -0.259378 0.667685
0.663511 -0.206066 -0.684414
-0.203929 0.232627 0.689987
0.652721 -0.654122 -0.215047
0.639897 0.623613 0.203616
-0.675967 -0.207818 -0.214381
0.214672 0.224352 -0.697061
0.213289 0.226103 -0.694973
0.216724 0.224154 -0.694394
-0.215892 0.681712 -0.663564
-0.670085 0.644253 -0.211979
0.214828 -0.236982 0.671289
0.651295 -0.657657 -0.216500
0.245068 -0.654356 0.219436
0.245643 -0.654272 0.220536
0.216878 0.225054 -0.695456
0.214809 0.223643 -0.694746
0.642662 0.193737 -0.235249
0.640172 -0.192157 0.211662
-0.670716 0.642956 -0.215946
-0.203041 0.234374 0.688849
0.660035 0.227589 0.663673
0.644516 0.191742 -0.236231
0.664607 -0.205805 -0.685072
-0.675178 -0.208384 -0.215587
0.660875 0.227742 0.658509
-0.706599 -0.663433 0.210286
0.214783 0.225140 -0.692114
0.652544 -0.654842 -0.217143
-0.199518 -0.233469 -0.655115
0.246620 -0.654472 0.221091
0.215114 -0.236984 0.673692
-0.200830 -0.234357 -0.651904
-0.206449 -0.620240 -0.212834
0.221086 0.681810 0.679520
0.218956 0.660405 -0.240526
-0.229976 -0.671414 0.654997
-0.203574 0.233649 0.687276
-0.670695 0.645676 -0.214143
-0.628994 -0.260187 0.666572
-0.214846 0.679009 -0.662982
0.639300 0.625175 0.205976
0.218292 0.660623 -0.239087
-0.644685 0.242710 -0.662313
-0.201971 -0.235405 -0.653022
0.639781 0.621795 0.205457
0.214447 0.225562 -0.695494
0.245290 -0.653382 0.220716
0.664012 -0.205725 -0.683581
0.644297 0.192854 -0.237155
0.214545 -0.236915 0.674328
-0.705916 -0.662685 0.207942
-0.229386 -0.669991 0.656045
-0.200107 -0.232558 -0.652155
-0.228712 -0.670009 0.654388
-0.206798 -0.619237 -0.213546
0.664206 -0.206645 -0.683464
-0.207812 -0.620414 -0.212396
-0.675426 -0.210041 -0.215997
-0.230485 -0.669899 0.654571
-0.646768 0.244013 -0.661966
0.644175 0.194115 -0.236706
0.244714 -0.653331 0.217978
-0.643659 0.242492 -0.660369
-0.630403 -0.258634 0.667242
0.662332 0.227799 0.659571
0.222818 0.682687 0.682272
-0.705883 -0.665515 0.208241
-0.629803 -0.255609 0.668253
-0.637689 0.193015 0.250346
0.665523 -0.207486 -0.683874
