OFF
256 0 0
-0.221103 0.693088 0.214885
0.693972 -0.233989 0.235202
-0.649050 -0.191600 -0.219470
0.667679 0.230996 -0.192822
-0.216520 0.222835 0.681786
0.213468 0.634877 -0.233529
0.694221 -0.232137 0.236236
0.641756 -0.255133 -0.695643
0.705824 0.205120 0.680782
-0.635715 0.232567 0.232883
0.244175 0.675470 0.675306
-0.660020 0.202876 -0.664490
0.209027 -0.673730 0.229030
0.640305 -0.257066 -0.694824
-0.226926 -0.238991 -0.697713
-0.212292 -0.637979 0.670192
0.656479 -0.665700 -0.217972
-0.214732 0.221849 0.682757
-0.668514 0.658025 -0.219691
-0.237790 -0.652178 -0.234443
-0.668671 0.658107 -0.220477
0.201730 0.228572 -0.683750
0.242933 0.676683 0.676959
0.208081 -0.674521 0.227845
-0.214066 -0.636304 0.671040
-0.215873 0.221004 0.683360
-0.227874 -0.239630 -0.698206
0.656117 0.653576 0.224340
0.706126 0.205182 0.678961
-0.687775 -0.658086 0.222241
0.705037 0.205632 0.678254
0.208168 -0.674366 0.227997
0.657622 -0.665240 -0.217242
0.216097 -0.219152 0.652007
0.640496 -0.255890 -0.697663
-0.226952 -0.236638 -0.696503
0.665439 0.230501 -0.194062
-0.213479 0.220579 0.683692
0.220321 -0.217279 0.652656
0.693252 -0.235177 0.235003
0.693237 -0.233692 0.236074
0.242569 0.677819 0.674089
-0.636872 0.234579 0.230457
-0.212636 -0.638840 0.669330
-0.662238 -0.191397 0.648405
0.206674 -0.673813 0.229045
0.200341 0.225582 -0.683917
0.212679 -0.688984 -0.649219
0.656810 -0.666097 -0.216931
-0.233792 0.668556 -0.649652
-0.661494 0.205047 -0.663024
0.706818 0.204288 0.678874
0.207709 -0.674609 0.229397
-0.213216 -0.636630 0.671440
0.245626 0.677000 0.677467
0.243579 0.678890 0.674929
0.208620 -0.674135 0.231130
-0.669291 0.658203 -0.221166
-0.238122 -0.651897 -0.235486
-0.214620 0.220742 0.682877
0.639372 -0.256291 -0.695721
0.201732 0.226487 -0.683781
-0.670681 0.657044 -0.221038
-0.232422 0.669833 -0.648721
0.705160 0.204384 0.677489
0.211701 -0.689073 -0.650398
-0.662030 -0.190018 0.646089
-0.685075 -0.659352 0.222372
0.208124 -0.673676 0.230701
-0.638860 0.235730 0.230894
-0.670939 0.657558 -0.220271
0.200353 0.227750 -0.683412
-0.636846 0.233406 0.230552
-0.662402 -0.189207 0.648347
0.666733 0.230510 -0.192975
0.706543 0.203336 0.678965
-0.661012 -0.190076 0.649604
0.211151 -0.691420 -0.649408
0.243907 0.678989 0.675177
-0.212939 -0.637658 0.669333
0.201689 0.229831 -0.683303
-0.638095 0.232628 0.230509
0.208675 -0.672994 0.230791
0.640051 -0.256304 -0.697240
-0.689020 -0.658197 0.221541
-0.238065 -0.648845 -0.234360
-0.233028 0.666999 -0.648711
-0.662054 -0.189167 0.648090
0.244609 0.678467 0.677485
0.243851 0.678128 0.676239
-0.660287 0.203938 -0.662845
0.218806 -0.218335 0.651691
-0.231728 0.666512 -0.650034
0.665377 0.230371 -0.193170
-0.238155 -0.649418 -0.234881
0.657081 0.653172 0.223821
0.201868 0.227355 -0.683722
0.202769 0.228183 -0.684999
0.639234 -0.257259 -0.695649
0.656723 -0.666414 -0.216286
0.641912 -0.257051 -0.696138
0.241691 0.678204 0.676961
0.667100 0.228986 -0.193754
-0.237659 -0.651248 -0.235714
0.704510 0.204385 0.678365
-0.227777 -0.237581 -0.698587
0.201658 0.228436 -0.684580
-0.661765 0.204053 -0.663218
-0.238063 -0.650407 -0.235474
-0.236751 -0.650856 -0.235402
-0.669151 0.657809 -0.221063
0.201419 0.225962 -0.683047
0.207710 -0.672750 0.227639
0.690918 -0.233695 0.234326
0.654936 0.651658 0.224582
-0.670166 0.658249 -0.220396
-0.637464 0.232899 0.230441
0.690789 -0.233308 0.234635
-0.686641 -0.659046 0.223033
0.657190 -0.666305 -0.216411
0.207856 -0.672423 0.228607
0.201042 0.226323 -0.682842
0.655359 0.652844 0.223620
-0.686982 -0.659407 0.220572
0.210539 -0.689036 -0.651376
0.705864 0.203025 0.680683
-0.220589 0.693058 0.212468
-0.231835 0.668932 -0.648409
0.655962 -0.666350 -0.216994
-0.634495 0.234678 0.230667
-0.648996 -0.189363 -0.221330
-0.236064 -0.649540 -0.234632
0.213169 0.632609 -0.232804
0.244327 0.676511 0.677278
-0.211372 -0.637860 0.668331
0.244488 0.677106 0.675758
0.198083 0.228738 -0.684017
0.691774 -0.233286 0.234568
-0.210837 -0.637314 0.669075
0.704391 0.203804 0.680499
0.218439 -0.218719 0.652693
-0.659020 0.205989 -0.663687
0.213490 0.633217 -0.233295
-0.230847 0.667149 -0.649447
-0.212388 -0.639057 0.669327
0.202139 0.226991 -0.681115
-0.228248 -0.237981 -0.698898
-0.220682 0.693585 0.214460
0.200135 0.225635 -0.681285
-0.689368 -0.658992 0.223031
0.207296 -0.675262 0.228730
-0.668923 0.659842 -0.220092
0.640969 -0.258141 -0.695532
-0.660742 0.205312 -0.665232
-0.232127 0.668266 -0.649505
0.207167 -0.676140 0.229091
0.694278 -0.234520 0.234867
0.705219 0.204544 0.678688
0.691960 -0.235685 0.234939
0.705304 0.203135 0.677679
-0.660512 0.203687 -0.665090
0.244487 0.676607 0.675983
-0.237675 -0.650217 -0.234348
-0.646941 -0.190495 -0.222486
-0.236360 -0.652370 -0.233593
-0.227249 -0.237445 -0.697430
0.212032 0.631485 -0.233341
0.666340 0.231882 -0.193178
0.657150 -0.666176 -0.216737
0.202175 0.226971 -0.684233
-0.227640 -0.236944 -0.697992
0.640553 -0.256469 -0.694163
0.639902 -0.257388 -0.696585
-0.228848 -0.238434 -0.697767
-0.669228 0.657110 -0.220445
0.212321 -0.690655 -0.652182
0.655533 -0.665209 -0.216790
0.217013 -0.218530 0.652225
0.637698 -0.256418 -0.698069
0.641165 -0.256569 -0.697180
-0.239227 -0.649526 -0.233484
-0.212490 -0.639455 0.668179
0.705733 0.204908 0.680631
0.212113 0.634263 -0.232685
-0.236869 -0.651558 -0.234800
-0.660611 -0.190571 0.648390
0.657715 0.652935 0.224877
0.210715 -0.689923 -0.651096
0.213388 0.632732 -0.233168
-0.234923 0.665667 -0.649702
0.206870 -0.672921 0.230143
-0.228755 -0.238381 -0.699097
0.241542 0.676419 0.677310
0.705189 0.204817 0.676619
-0.660883 -0.190548 0.647270
-0.638666 0.234203 0.230311
-0.228211 -0.240534 -0.698101
0.640843 -0.258958 -0.694744
0.693980 -0.233768 0.232843
0.694929 -0.234259 0.235699
-0.231173 0.669172 -0.648451
0.639836 -0.255094 -0.695311
0.656564 0.651878 0.223955
0.244922 0.677917 0.676822
-0.638584 0.232500 0.229904
0.243466 0.676225 0.675962
-0.237276 -0.650900 -0.235774
0.704249 0.202645 0.680398
0.655448 -0.666995 -0.217659
0.209088 -0.675077 0.228411
-0.227209 -0.238211 -0.697475
-0.232489 0.668245 -0.650489
-0.662346 -0.190510 0.649934
-0.687265 -0.657628 0.219973
-0.236673 -0.651034 -0.233501
-0.228115 -0.238660 -0.697692
-0.637158 0.234683 0.230361
-0.231403 0.668956 -0.647730
0.211453 -0.690741 -0.649731
0.692778 -0.233360 0.234452
0.243986 0.677233 0.675753
-0.648023 -0.190453 -0.222192
-0.227470 -0.238931 -0.695963
0.703244 0.203621 0.677080
0.210838 -0.689545 -0.652015
-0.660344 0.205066 -0.666336
0.706790 0.204097 0.677953
0.216759 -0.219077 0.652854
-0.662935 -0.192369 0.647913
0.214483 0.633717 -0.233931
0.213049 0.632929 -0.233890
0.211942 -0.690684 -0.652040
-0.648405 -0.190002 -0.221812
0.705161 0.202508 0.678580
-0.212804 -0.636015 0.668349
-0.647762 -0.190050 -0.222414
-0.688669 -0.659595 0.221532
0.242279 0.676544 0.676164
-0.238555 -0.650573 -0.236574
-0.661521 -0.190601 0.648415
0.218192 -0.219377 0.652030
-0.228653 -0.239760 -0.697756
-0.662257 -0.191989 0.649249
-0.636217 0.234454 0.232268
-0.648553 -0.189480 -0.220651
-0.662218 -0.192687 0.648142
0.653780 0.651438 0.225900
0.243411 0.680044 0.677805
0.209570 -0.688982 -0.649445
0.692624 -0.234229 0.235474
-0.238278 -0.651468 -0.233841
0.668988 0.233465 -0.193190
0.640332 -0.257240 -0.696278
-0.221547 0.693984 0.214085
-0.659704 0.205525 -0.664424
-0.212272 -0.639063 0.669865
