OFF
256 0 0
0.234595 -0.637087 -0.653854
0.225939 -0.658808 0.208768
0.681379 -0.224050 -0.643786
0.667852 0.715730 0.207483
-0.640243 0.205138 0.189243
-0.228701 0.193671 0.659652
-0.217980 -0.664099 0.661754
0.250660 0.684079 0.651694
0.665712 0.715802 0.207382
-0.214875 -0.663678 0.660795
-0.226019 0.679335 0.229688
0.235309 -0.638184 -0.654362
-0.642261 0.206127 0.190646
-0.669559 0.211045 -0.658834
0.237637 -0.211678 0.658634
0.645086 -0.656847 -0.226174
-0.218618 0.621945 -0.666004
0.646134 -0.656668 -0.226009
0.644899 -0.655743 -0.225960
-0.216085 -0.662393 0.659618
0.681794 -0.224520 -0.643835
-0.228448 0.192440 0.655769
0.227107 -0.658017 0.209403
0.234956 -0.637672 -0.656578
-0.237162 -0.206502 -0.644385
0.669746 0.715966 0.208044
-0.226749 -0.661419 -0.211833
-0.676508 -0.229340 0.656974
0.190282 0.659087 -0.220055
0.679536 -0.224404 -0.644683
-0.640288 0.205251 0.187069
0.637625 0.221123 0.650867
-0.668826 0.210258 -0.659454
-0.235703 -0.206231 -0.644652
0.660071 0.218056 -0.194991
-0.674358 -0.229280 0.655488
0.237903 -0.211052 0.659645
-0.223889 0.678692 0.230605
0.237312 -0.212440 0.658760
-0.674730 -0.230443 0.656479
-0.639714 0.205307 0.189117
0.683776 -0.223997 -0.643359
0.251327 0.685724 0.654051
-0.670010 0.211732 -0.660408
0.645892 -0.657525 -0.225475
-0.687532 -0.229970 -0.238987
0.647572 -0.655809 -0.223149
0.227221 -0.658061 0.208612
-0.216919 0.625953 -0.665552
-0.228989 -0.661906 -0.211184
0.190383 0.658244 -0.221163
-0.218716 0.622360 -0.665098
-0.657630 -0.674340 0.211749
0.234902 -0.637200 -0.655081
-0.228580 -0.660062 -0.214206
0.250556 0.683328 0.652637
-0.640077 0.662008 -0.222504
-0.641631 0.663371 -0.224583
0.236598 0.194996 -0.613522
-0.688562 -0.229714 -0.235313
0.661302 0.215951 -0.195063
0.226623 -0.658073 0.209460
0.657654 0.216081 -0.193261
0.683002 -0.223432 -0.645062
-0.227343 0.679638 0.229117
-0.668965 0.212447 -0.657979
-0.641337 0.665034 -0.225103
-0.638682 0.207895 0.188749
0.640079 0.222394 0.651666
-0.218504 0.622311 -0.663912
-0.214866 -0.666353 0.660344
-0.687912 -0.231439 -0.238774
0.658891 0.216118 -0.195298
0.238532 -0.212186 0.658396
0.237693 0.195739 -0.615581
0.681102 -0.224012 -0.643801
-0.228612 0.192338 0.657646
-0.641083 0.663223 -0.225881
0.234580 -0.637026 -0.654450
-0.674619 -0.227425 0.656348
0.680153 -0.223947 -0.642614
-0.669481 0.210580 -0.659443
-0.640964 0.206388 0.189088
-0.639839 0.664359 -0.224288
0.235369 0.195722 -0.615758
0.661985 0.216410 -0.195211
0.667869 0.715531 0.207955
0.225408 -0.658425 0.210677
-0.659622 -0.678416 0.210762
-0.229270 -0.661459 -0.213687
0.225911 -0.657206 0.208996
0.237608 0.196509 -0.614090
-0.216680 -0.663871 0.659370
-0.217444 -0.661722 0.661350
0.237053 0.195864 -0.614434
-0.676893 -0.231402 0.655235
0.654801 -0.215378 0.215129
-0.677613 -0.229362 0.656614
-0.641263 0.662203 -0.223579
-0.641252 0.204931 0.189920
-0.236314 -0.205329 -0.645715
0.226513 -0.658127 0.210283
-0.639892 0.664903 -0.225499
0.666576 0.717193 0.205790
0.637287 0.220778 0.651186
-0.216305 -0.663155 0.664085
0.226596 -0.659045 0.206674
-0.641098 0.665688 -0.224426
-0.669509 0.210455 -0.657836
-0.235211 -0.206104 -0.644895
0.680561 -0.224375 -0.643941
0.235817 0.194439 -0.614177
0.237787 0.195350 -0.612946
-0.218024 0.622985 -0.665931
0.226687 -0.659679 0.209030
0.638786 0.220857 0.650342
0.238645 -0.212441 0.657300
0.661737 0.215351 -0.194134
0.235432 -0.636197 -0.654920
0.655755 -0.212331 0.215397
-0.639421 0.663357 -0.224191
0.681268 -0.225740 -0.642673
0.659867 0.216625 -0.196914
-0.688324 -0.230857 -0.237655
0.635132 0.223096 0.651713
-0.228123 0.194403 0.657116
-0.641357 0.204492 0.189773
0.681814 -0.224021 -0.644727
-0.656761 -0.675436 0.212400
-0.669958 0.208509 -0.657616
-0.667185 0.211156 -0.658780
-0.640114 0.205701 0.189103
0.236256 -0.211691 0.657498
-0.669169 0.209521 -0.659331
-0.687907 -0.229305 -0.238914
-0.227873 0.193352 0.658211
0.658411 0.216102 -0.194847
-0.687866 -0.229699 -0.237635
0.681953 -0.223246 -0.645047
0.639135 0.220420 0.648741
-0.217156 0.623406 -0.664830
0.681528 -0.222940 -0.644071
-0.236958 -0.204749 -0.644656
-0.674736 -0.228056 0.654918
0.659022 0.215778 -0.195457
-0.657772 -0.675707 0.211846
0.679842 -0.223020 -0.644478
-0.216806 -0.664244 0.661904
0.656452 -0.213579 0.212398
-0.216388 0.624723 -0.667588
0.191657 0.659337 -0.220351
-0.228310 0.192976 0.656025
-0.217072 -0.664403 0.661664
0.234952 -0.636783 -0.655136
0.637004 0.221941 0.651086
-0.236744 -0.204492 -0.645135
0.657607 -0.211523 0.214478
-0.658294 -0.675688 0.212017
-0.657588 -0.676230 0.213656
0.665410 0.714923 0.208003
-0.227342 0.193680 0.655192
-0.659870 -0.678534 0.212935
0.636934 0.221286 0.651344
0.235131 -0.634596 -0.655401
0.680506 -0.225090 -0.643766
-0.677054 -0.229975 0.656785
-0.215146 -0.662879 0.661417
0.250431 0.683838 0.652609
-0.658573 -0.675560 0.210747
0.238528 -0.212696 0.658910
-0.668831 0.208140 -0.658737
0.665396 0.715447 0.207193
0.237288 -0.210928 0.657531
-0.226176 0.677959 0.228396
-0.226087 0.679004 0.230844
-0.687409 -0.230108 -0.237280
0.237133 0.195749 -0.614016
-0.218902 0.623339 -0.665613
0.191950 0.658650 -0.220372
-0.226922 0.678916 0.231189
-0.641435 0.205906 0.192284
-0.687548 -0.229431 -0.235912
0.234429 -0.636625 -0.653192
-0.669986 0.209235 -0.659461
0.233732 -0.636531 -0.654718
0.636032 0.220568 0.650998
-0.228448 -0.662794 -0.213336
-0.667822 0.209656 -0.661111
0.252756 0.683898 0.652760
-0.638632 0.206155 0.189274
0.238655 -0.210831 0.657987
-0.218706 0.623610 -0.666988
-0.687429 -0.231023 -0.237097
-0.641529 0.206185 0.189055
-0.216401 0.621475 -0.666298
-0.228898 0.193853 0.657126
-0.676556 -0.230897 0.655739
0.655644 -0.211396 0.213364
0.190652 0.659389 -0.218974
0.189525 0.658736 -0.219924
0.682630 -0.224467 -0.642829
-0.657494 -0.676239 0.212138
0.236317 -0.637286 -0.653955
-0.216627 0.623689 -0.666810
0.235051 0.194401 -0.614112
-0.669417 0.209471 -0.659548
-0.689694 -0.228417 -0.237041
0.226064 -0.657441 0.208606
-0.643774 0.665004 -0.225280
-0.234926 -0.205271 -0.645297
-0.688357 -0.229993 -0.237304
0.667548 0.714797 0.206756
-0.658728 -0.675121 0.212797
-0.217764 -0.663779 0.661723
0.646212 -0.658107 -0.223289
-0.217931 0.623724 -0.663271
0.668269 0.715445 0.207725
0.654454 -0.213661 0.212510
0.235092 0.195300 -0.614327
0.637108 0.221284 0.649439
0.667718 0.714853 0.205910
0.646248 -0.658852 -0.225210
0.250986 0.683512 0.650775
-0.217461 0.621985 -0.667112
0.234672 -0.638193 -0.653996
-0.688999 -0.229884 -0.237475
-0.235293 -0.203929 -0.644372
-0.670116 0.210996 -0.659655
-0.639908 0.205449 0.189222
0.251005 0.684297 0.651633
0.237188 0.193999 -0.613742
-0.215463 0.623069 -0.665828
-0.658178 -0.676295 0.213006
0.192728 0.659494 -0.220786
0.236123 -0.636949 -0.655461
-0.228508 0.194022 0.657988
-0.642281 0.663792 -0.224344
-0.236172 -0.204835 -0.644769
-0.228491 0.191499 0.656551
0.190975 0.657845 -0.219814
0.249911 0.684644 0.651465
-0.229330 0.194932 0.658039
-0.215285 0.623114 -0.666567
-0.229260 -0.662628 -0.212508
0.237066 0.195400 -0.615229
-0.228785 -0.660036 -0.212553
-0.235153 -0.206116 -0.644923
0.666660 0.716287 0.207018
-0.641102 0.662752 -0.224227
0.647862 -0.657748 -0.224533
-0.688003 -0.228009 -0.238778
0.665308 0.714342 0.207662
0.680766 -0.225245 -0.642660
0.250794 0.684734 0.651502
0.190589 0.657996 -0.218914
0.646232 -0.655593 -0.226141
