OFF
256 0 0
-0.384101 -0.121253 -0.703640
-0.392382 0.318263 0.539958
-0.409451 -0.504977 -0.309793
-0.784376 0.272939 0.138800
0.386558 0.259567 -0.295198
0.831380 0.288532 0.114535
0.830767 0.289656 0.115026
0.831020 0.290617 0.114566
0.000249 0.736295 0.539267
0.395216 0.687624 0.109782
0.395221 0.687509 0.110063
-0.832933 -0.107310 -0.293214
0.383058 -0.515956 -0.291027
-0.008089 -0.112694 0.512548
-0.006246 -0.113141 0.514971
0.417138 -0.096858 -0.734222
0.381484 -0.512577 -0.291472
-0.416250 0.713932 0.135383
-0.383097 -0.121634 -0.701729
0.832040 -0.091178 -0.294842
0.395172 0.688464 0.107752
-0.418781 -0.532902 0.516682
-0.007786 -0.114155 0.514999
-0.418071 -0.534446 0.518310
0.384028 -0.514907 -0.293070
-0.001339 -0.526016 -0.747784
0.830903 0.288690 0.114333
-0.006137 -0.524455 -0.748465
0.402774 0.302364 0.524845
-0.417989 0.717579 0.136616
0.002417 -0.512249 0.116228
-0.417391 0.715599 0.138434
0.382870 -0.515721 -0.291149
-0.393996 0.318014 0.540952
0.402135 0.301515 0.523139
0.817470 -0.478403 0.111857
0.382126 -0.513562 -0.292667
0.395189 0.690038 0.108346
-0.407957 -0.503447 -0.312340
0.394601 0.688509 0.106534
-0.785794 0.272397 0.137520
-0.786400 0.274139 0.140677
-0.419117 0.714877 0.136373
0.830478 0.289326 0.116521
0.829314 -0.091132 -0.294486
0.000870 0.298900 -0.745783
-0.851432 -0.513031 0.093320
-0.793495 -0.149271 0.532499
0.004308 0.719868 -0.306393
-0.006923 -0.113039 0.512909
0.385509 0.262547 -0.297934
-0.007374 -0.112556 0.513056
0.387164 0.258862 -0.297572
0.396005 0.688595 0.107517
-0.394091 0.316884 0.542174
0.392349 -0.523471 0.503352
-0.003051 -0.526210 -0.748440
-0.854117 -0.513965 0.094187
-0.793661 -0.148063 0.533195
0.832053 0.289913 0.114230
-0.831770 -0.106286 -0.293662
-0.001199 0.297008 -0.746515
-0.009333 -0.113600 0.512895
-0.391732 0.282758 -0.294775
-0.415906 0.716878 0.135124
-0.385860 -0.120879 -0.701507
-0.831669 -0.107174 -0.293805
0.832818 0.289113 0.115105
-0.852371 -0.515366 0.092562
0.388353 0.262133 -0.296504
0.828324 -0.099766 0.528386
-0.408560 -0.503584 -0.312115
-0.407492 -0.505034 -0.311655
-0.833731 -0.107114 -0.292845
-0.852616 -0.513822 0.094115
-0.392457 0.280847 -0.293555
0.381707 -0.515287 -0.292636
-0.000024 -0.512128 0.120295
0.391779 -0.523934 0.503755
0.000962 -0.512070 0.117115
0.393863 0.688701 0.110458
0.001082 -0.512997 0.118807
-0.833177 -0.106871 -0.292297
-0.391935 0.281716 -0.294380
-0.000556 0.297159 -0.748147
-0.792255 -0.148964 0.534057
-0.393663 0.316801 0.541703
0.395374 0.687885 0.109789
0.815385 -0.481144 0.110891
-0.393314 0.281765 -0.295811
0.831996 0.292358 0.116382
-0.407275 -0.503722 -0.311981
0.382900 -0.514264 -0.292899
0.827274 -0.100191 0.526614
0.000880 0.734572 0.537350
-0.003245 -0.525357 -0.747857
0.001250 -0.513192 0.117521
0.002179 -0.512856 0.119520
0.816865 -0.477492 0.110766
-0.416226 0.715786 0.133746
-0.008752 -0.113558 0.512861
-0.832463 -0.107324 -0.294418
-0.008867 -0.112831 0.513539
0.417258 -0.098862 -0.733260
-0.394430 0.318025 0.542042
0.004630 0.719761 -0.307109
-0.832974 -0.107965 -0.292717
0.831457 0.291206 0.115264
0.002271 0.718577 -0.307576
0.383635 -0.515091 -0.292218
-0.408421 -0.503107 -0.310813
-0.384439 -0.120811 -0.702008
0.417771 -0.096062 -0.734985
-0.417599 -0.531860 0.519133
-0.852805 -0.513201 0.093955
-0.833039 -0.106677 -0.294444
0.829204 -0.092221 -0.294858
-0.394969 0.316446 0.542171
-0.785278 0.273444 0.140289
-0.407839 -0.505066 -0.310674
-0.408126 -0.504453 -0.311324
-0.406563 -0.505580 -0.309431
0.381957 -0.516125 -0.291187
0.825907 -0.101340 0.527896
-0.417435 0.716758 0.135379
0.382544 -0.515516 -0.291428
-0.392921 0.282834 -0.295770
-0.852916 -0.512117 0.092635
0.392897 -0.525442 0.505178
0.383169 -0.513774 -0.291854
-0.417450 0.715866 0.136501
0.830430 0.289149 0.115966
0.401785 0.300739 0.523025
-0.417928 0.715413 0.136917
-0.000687 0.299972 -0.747171
-0.851915 -0.514717 0.095245
-0.833636 -0.106657 -0.293330
0.392136 -0.527148 0.504622
-0.000548 0.735972 0.536732
-0.008575 -0.113454 0.513225
0.381086 -0.516310 -0.291429
0.417541 -0.097701 -0.734881
0.001799 -0.512489 0.116959
-0.786329 0.273819 0.137905
-0.853040 -0.513272 0.093374
-0.391494 0.281699 -0.293772
0.418015 -0.096089 -0.736868
-0.833647 -0.105527 -0.293500
-0.409132 -0.506664 -0.311139
-0.416322 -0.534682 0.519330
-0.417550 -0.533352 0.517774
0.381572 -0.514863 -0.293011
0.001733 -0.510890 0.118321
-0.385151 -0.119359 -0.702697
-0.415742 0.715786 0.133998
0.827223 -0.103151 0.527688
0.815879 -0.479618 0.111864
-0.392300 0.281295 -0.294018
0.402437 0.300404 0.525241
0.380480 -0.515174 -0.291632
0.402197 0.300879 0.525334
-0.791714 -0.148857 0.532232
0.383947 -0.513040 -0.291998
-0.394628 0.318989 0.540713
0.391899 -0.524976 0.504129
0.830583 0.290200 0.115301
0.392243 -0.524011 0.503614
-0.000342 0.734760 0.537008
0.831369 0.289722 0.115226
-0.418712 -0.532695 0.518569
0.382734 -0.513652 -0.292134
0.386888 0.260392 -0.296404
0.383092 -0.514166 -0.292722
-0.832983 -0.106919 -0.294296
0.400378 0.299973 0.524256
-0.832504 -0.106460 -0.294132
0.416978 -0.097410 -0.734062
0.394943 0.689355 0.108023
-0.383452 -0.121904 -0.703989
-0.417564 -0.532427 0.516391
-0.407276 -0.504545 -0.311325
0.386089 0.261354 -0.297540
0.000370 0.734870 0.536807
-0.419292 -0.531793 0.520037
-0.416605 -0.534149 0.518152
0.418474 -0.096408 -0.734077
-0.392915 0.282627 -0.293687
0.831147 -0.090965 -0.295501
0.001036 -0.512640 0.120048
-0.390641 0.281959 -0.295195
0.395975 0.690387 0.107746
0.000113 0.300261 -0.745942
-0.003608 -0.524775 -0.748926
-0.417384 0.715264 0.135859
-0.407749 -0.505068 -0.309497
-0.792085 -0.149104 0.532494
0.001346 -0.512093 0.119255
-0.000836 0.734720 0.537664
-0.416259 0.715644 0.136265
-0.416933 0.715095 0.135044
-0.393201 0.282190 -0.294685
-0.000472 0.733993 0.537669
-0.003546 -0.524709 -0.747908
-0.407164 -0.504900 -0.310782
-0.406870 -0.505075 -0.311142
-0.384530 -0.120937 -0.704580
-0.393514 0.317564 0.540927
-0.791290 -0.148543 0.534124
-0.006997 -0.112543 0.510508
0.815934 -0.479202 0.109500
0.001338 0.299181 -0.746090
0.001207 0.732919 0.537199
-0.785338 0.274420 0.139329
-0.416438 0.715025 0.135386
0.828515 -0.101306 0.529391
0.832920 0.290954 0.114258
0.816632 -0.479829 0.110457
-0.008923 -0.112290 0.511517
-0.419100 -0.531373 0.517411
-0.783845 0.275822 0.140532
0.417193 -0.095379 -0.734054
-0.384071 -0.121949 -0.703257
0.395099 0.690245 0.108637
-0.000174 0.735303 0.537958
0.384610 0.260107 -0.297358
0.818017 -0.477296 0.111414
-0.831611 -0.106491 -0.292034
0.000032 0.300684 -0.747148
0.816331 -0.478379 0.112349
-0.383674 -0.120223 -0.702600
0.386504 0.261799 -0.297993
-0.407926 -0.505681 -0.311305
-0.393121 0.317095 0.542036
0.002793 -0.512271 0.119604
-0.414117 0.715110 0.136211
0.830696 -0.091472 -0.295276
-0.386771 -0.120535 -0.702560
-0.785639 0.275612 0.140578
-0.008798 -0.112216 0.513336
0.391441 -0.525512 0.503573
-0.393511 0.316764 0.540750
0.816790 -0.478893 0.110056
-0.008134 -0.112029 0.514253
0.401815 0.298566 0.523713
0.383357 -0.513308 -0.293025
-0.417455 0.714387 0.135855
0.387051 0.261313 -0.297408
-0.792322 -0.148469 0.533513
-0.792107 -0.148406 0.533784
0.400291 0.302225 0.525773
0.385837 0.261494 -0.297377
0.827380 -0.091160 -0.295148
-0.008467 -0.110965 0.512123
-0.008368 -0.113102 0.513319
0.001634 0.298228 -0.748007
-0.786290 0.272398 0.140628
