OFF
256 0 0
-0.851139 -0.513849 0.102019
0.393829 -0.531049 0.520562
-0.790301 0.298211 0.118730
0.815214 -0.120433 -0.291877
0.002101 -0.086681 0.484350
-0.788223 0.299661 0.117492
0.015340 0.695744 -0.289976
0.026531 0.720606 0.524232
-0.813775 -0.085386 0.510673
0.393730 -0.529326 0.521183
-0.810776 -0.089337 -0.304953
-0.811660 -0.088927 -0.308073
-0.396869 0.724230 0.104500
-0.028187 0.292136 -0.715992
-0.852194 -0.514922 0.099601
0.834552 -0.133300 0.529271
-0.416975 -0.119441 -0.716616
0.400992 0.697081 0.116281
-0.404705 0.291698 -0.295166
0.394777 -0.531139 0.522568
-0.418874 -0.119635 -0.718311
0.393856 -0.532003 0.520879
-0.014562 -0.544321 -0.696182
-0.011065 -0.543371 -0.697325
0.025472 0.721653 0.525835
-0.813712 -0.082569 0.507534
0.403906 0.697767 0.116836
-0.405490 0.299693 0.519822
0.814464 -0.121234 -0.289664
0.026577 0.719434 0.526772
0.395278 -0.532251 0.520749
-0.851898 -0.512712 0.100254
-0.418939 -0.507398 -0.292398
0.395389 -0.531709 0.520694
-0.417182 -0.507520 -0.290961
-0.012948 -0.543664 -0.697085
0.383605 -0.146799 -0.734297
-0.012621 -0.543904 -0.696580
0.835361 -0.133145 0.528866
-0.404027 0.301696 0.521267
0.398578 -0.508366 -0.297034
-0.404243 0.300910 0.520837
0.402456 0.697104 0.114620
0.375311 0.265826 -0.286227
-0.394435 -0.481434 0.502238
-0.419786 -0.119543 -0.720596
0.374675 0.266109 -0.288438
-0.396925 0.724398 0.103397
0.396665 -0.510310 -0.296257
0.016080 0.694529 -0.292519
0.810755 -0.513919 0.118430
-0.852030 -0.512928 0.100316
-0.028026 0.295421 -0.718728
-0.012004 -0.543415 -0.694845
-0.815597 -0.083324 0.508777
-0.012295 -0.544121 -0.696588
0.444671 0.291669 0.541299
-0.403768 0.293195 -0.295142
0.443680 0.291865 0.542103
-0.027915 0.293499 -0.718166
0.024948 0.720663 0.526452
-0.402576 0.292403 -0.297398
-0.026814 0.294144 -0.717860
0.385713 -0.146667 -0.736516
0.833664 -0.132977 0.529660
-0.396893 0.723414 0.103980
0.810352 -0.515867 0.115800
0.025677 0.720831 0.524164
0.821438 0.302179 0.111206
0.025389 0.722339 0.525618
0.025130 0.718683 0.526909
-0.404448 0.301665 0.521652
0.385656 -0.147972 -0.733301
0.443266 0.293171 0.542465
0.026164 0.721403 0.526252
0.013656 0.694701 -0.292183
0.026623 0.720434 0.527254
0.001277 -0.088167 0.483602
0.402138 0.699019 0.116829
-0.815926 -0.083684 0.508003
0.813457 -0.118651 -0.291224
0.393677 -0.531797 0.521138
-0.788535 0.297656 0.119167
-0.395712 0.724065 0.103035
-0.852959 -0.511193 0.100531
0.015695 0.696777 -0.291670
-0.012272 -0.543953 -0.693858
-0.809796 -0.089787 -0.305321
-0.009960 -0.544285 -0.695627
0.813752 -0.120505 -0.290511
-0.396862 0.723411 0.105128
0.836719 -0.134316 0.528405
-0.815039 -0.087182 0.508716
-0.418332 -0.119466 -0.721121
-0.026695 0.294294 -0.718460
0.014529 0.696832 -0.292031
0.821896 0.303676 0.113912
-0.403507 0.300188 0.521960
-0.394916 -0.479497 0.500992
-0.814637 -0.084909 0.507025
-0.395910 0.725060 0.103173
0.837238 -0.134268 0.529528
-0.029316 0.293227 -0.717944
0.444573 0.292664 0.541736
-0.404920 0.300146 0.521488
0.814051 -0.119808 -0.288954
0.394185 -0.531561 0.522731
-0.392767 -0.479190 0.501978
-0.395263 0.724956 0.102503
0.404241 0.696688 0.116562
-0.397889 0.722765 0.104385
0.383729 -0.146866 -0.736119
0.017199 -0.499365 0.122466
-0.854301 -0.513301 0.100151
-0.853875 -0.514906 0.099795
-0.014084 -0.543291 -0.696561
0.836095 -0.133336 0.527484
-0.406451 0.294326 -0.295390
0.404956 0.698169 0.114857
0.374747 0.266009 -0.286655
-0.851603 -0.513440 0.100516
-0.787612 0.295745 0.121057
0.394953 -0.530650 0.521907
-0.417083 -0.121260 -0.718620
-0.012311 -0.544317 -0.694543
0.403479 0.697257 0.117235
0.396555 -0.532506 0.520274
0.395883 -0.511221 -0.296284
-0.393004 -0.479580 0.500706
0.385330 -0.145946 -0.735355
-0.810461 -0.089104 -0.305038
0.385712 -0.145777 -0.734838
-0.851714 -0.512793 0.100407
0.815413 -0.120174 -0.290208
-0.404505 0.300208 0.519932
-0.397554 0.724284 0.104019
-0.395220 -0.478850 0.501984
-0.403568 0.300764 0.520120
-0.011491 -0.543532 -0.695216
0.815922 -0.121351 -0.289175
0.403634 0.698264 0.118152
0.833711 -0.134055 0.528779
0.394701 -0.532084 0.524061
-0.010599 -0.544175 -0.694403
0.001169 -0.088408 0.484358
0.443417 0.292869 0.543437
0.027717 0.720233 0.526902
-0.027518 0.294336 -0.717282
0.384806 -0.145737 -0.734905
-0.851746 -0.512808 0.100148
0.015612 -0.500106 0.122306
0.376108 0.266350 -0.286259
0.814648 -0.119000 -0.290758
0.385520 -0.147205 -0.734412
-0.014074 -0.545645 -0.695349
-0.417921 -0.119299 -0.719137
-0.392028 -0.480538 0.501844
-0.809012 -0.089017 -0.305651
-0.854472 -0.514691 0.100521
-0.402006 0.301744 0.521356
0.374942 0.263772 -0.288286
0.814630 -0.121455 -0.288575
0.391926 -0.530983 0.520878
-0.787708 0.297611 0.118824
-0.813571 -0.084350 0.507290
-0.813440 -0.086461 0.507723
-0.011498 -0.544590 -0.695890
0.024223 0.720256 0.528148
0.014555 -0.500397 0.124621
0.396566 -0.510395 -0.296001
0.374698 0.265310 -0.285006
0.027070 0.720576 0.525062
0.820081 0.302572 0.111122
0.014830 -0.501737 0.121018
0.015224 0.696621 -0.292370
-0.404748 0.301096 0.521004
-0.398615 0.722942 0.103238
-0.851241 -0.513750 0.101183
0.404717 0.697870 0.114528
-0.396751 0.725193 0.104825
0.810437 -0.513062 0.117544
0.002556 -0.087918 0.483672
-0.809451 -0.091296 -0.305442
-0.419289 -0.120268 -0.720193
0.397046 -0.511825 -0.294752
-0.402756 0.302145 0.520554
0.385643 -0.146129 -0.735372
0.374231 0.265226 -0.286081
0.387204 -0.147387 -0.733886
0.003944 -0.088389 0.481918
-0.013225 -0.543523 -0.696189
-0.790882 0.296839 0.118798
-0.788254 0.297155 0.116940
-0.851135 -0.515118 0.099992
0.385887 -0.145721 -0.734699
0.396422 -0.510711 -0.297906
0.374156 0.267614 -0.286341
0.376624 0.265173 -0.285175
0.026442 0.720200 0.527049
-0.392902 -0.479315 0.501727
-0.815408 -0.084583 0.507991
0.445387 0.291428 0.542462
0.375531 0.266627 -0.286530
-0.403557 0.292073 -0.294409
0.016061 0.697007 -0.292237
-0.852685 -0.514161 0.100245
-0.393266 -0.479935 0.501632
0.394963 -0.509566 -0.297738
-0.026739 0.294945 -0.718053
0.404289 0.696364 0.114927
0.374897 0.265590 -0.286428
-0.853866 -0.512348 0.099787
0.016943 0.697347 -0.292131
0.387266 -0.146531 -0.734433
-0.027677 0.292094 -0.715647
0.384335 -0.145373 -0.734411
-0.852853 -0.513525 0.098921
0.384606 -0.148753 -0.735027
0.375084 0.264307 -0.285903
0.000535 -0.089245 0.486082
0.385299 -0.145606 -0.733656
-0.852431 -0.513604 0.099836
0.014959 0.696754 -0.291626
0.394271 -0.530655 0.518571
0.374734 0.265442 -0.285751
-0.417842 -0.509033 -0.291648
-0.395508 -0.481828 0.503056
-0.814920 -0.084316 0.510181
-0.787547 0.297872 0.119419
-0.787075 0.296985 0.118796
-0.418559 -0.120564 -0.720670
0.025805 0.720617 0.525539
-0.027210 0.294034 -0.718422
-0.789680 0.298797 0.118914
-0.813602 -0.083664 0.509557
-0.815894 -0.086275 0.509322
0.402906 0.699011 0.114891
-0.393891 -0.480099 0.501228
-0.810042 -0.090333 -0.306381
0.026892 0.718235 0.525374
0.809719 -0.511646 0.116612
0.446524 0.290915 0.543015
0.384494 -0.147288 -0.734677
0.384643 -0.147065 -0.734780
0.821586 0.306605 0.113270
0.374154 0.264248 -0.286575
-0.850188 -0.513458 0.098038
-0.394239 -0.482321 0.499444
0.402596 0.696715 0.114459
0.001800 -0.087613 0.484061
-0.025686 0.293409 -0.717558
-0.786327 0.295781 0.118811
0.015642 0.692598 -0.292950
0.373751 0.266159 -0.287261
-0.788744 0.298959 0.119517
0.395575 -0.510535 -0.295442
