OFF
256 0 0
0.009406 -0.077991 0.505189
-0.401206 -0.115511 -0.706873
0.008134 0.704196 0.500193
0.411817 -0.515572 -0.299122
0.007774 0.703376 0.500267
-0.000921 -0.547922 -0.703123
0.438173 0.712075 0.095983
-0.828743 0.321118 0.086487
-0.844395 -0.518169 0.131854
-0.361259 0.252479 -0.284087
-0.001789 0.701185 -0.294528
0.854423 0.294205 0.117469
0.840573 -0.109355 -0.298238
-0.002283 0.704586 -0.292277
-0.035425 -0.525627 0.103463
-0.401172 -0.114576 -0.705829
-0.362743 0.251499 -0.283985
-0.417130 0.728352 0.087310
-0.828306 0.322526 0.087994
-0.361783 0.250181 -0.284189
-0.402807 -0.113352 -0.706352
0.008461 0.702147 0.499150
-0.000670 -0.546974 -0.705453
0.000762 -0.546815 -0.704039
-0.421673 -0.492641 0.534250
0.009010 0.704880 0.496431
0.841710 -0.108332 -0.297835
-0.421259 -0.494097 0.534771
-0.414879 0.728112 0.084867
-0.000762 -0.547504 -0.704903
-0.001980 0.703177 -0.296232
0.437242 0.715114 0.094021
0.803189 -0.101153 0.507613
-0.836504 -0.105035 -0.287527
0.428731 -0.141857 -0.712715
-0.846902 -0.517481 0.132172
0.843033 -0.108677 -0.297757
-0.406065 0.278760 0.516792
-0.421419 -0.492955 0.535113
0.006897 0.701873 0.498315
-0.404767 0.278344 0.514299
0.805622 -0.505301 0.099580
-0.428510 -0.505052 -0.280429
0.000321 -0.547184 -0.703450
-0.422186 -0.492966 0.531294
-0.036136 -0.524953 0.103850
-0.845750 -0.519245 0.128947
-0.001201 -0.548449 -0.704199
0.803948 -0.506955 0.098739
-0.829196 0.320326 0.087371
-0.427250 -0.503791 -0.279382
-0.846240 -0.518629 0.130342
-0.401147 -0.114659 -0.705353
-0.839503 -0.104008 -0.286779
-0.002071 0.704091 -0.294141
-0.035889 -0.523864 0.104301
0.008299 0.704076 0.498484
-0.007238 0.284174 -0.720108
-0.008778 0.281599 -0.722136
-0.420734 -0.493587 0.532736
0.000677 -0.546107 -0.703967
-0.400860 -0.114380 -0.705678
0.007590 -0.079002 0.503317
-0.002118 -0.548518 -0.704544
0.841999 -0.109060 -0.296368
0.855225 0.295276 0.117384
-0.001467 -0.547168 -0.702960
-0.003390 0.702978 -0.294438
-0.416713 0.728780 0.086871
0.412811 -0.515633 -0.297553
0.438137 0.714251 0.097011
-0.364414 0.249915 -0.285820
0.427622 -0.139610 -0.714150
0.000537 -0.549727 -0.702485
-0.035853 -0.524587 0.103187
-0.426238 -0.505761 -0.279107
-0.422169 -0.492265 0.533054
-0.001797 0.703874 -0.292748
-0.815773 -0.102905 0.522983
-0.843361 -0.519122 0.132514
0.804298 -0.508523 0.098815
-0.005853 0.283184 -0.721008
0.390279 -0.496582 0.532638
0.803017 -0.100935 0.507518
-0.422939 -0.492815 0.533587
0.411032 -0.515297 -0.300167
-0.034958 -0.526080 0.104978
-0.814437 -0.102506 0.522817
0.843017 -0.108712 -0.298683
-0.414906 0.727899 0.085511
-0.845360 -0.518303 0.130687
-0.036290 -0.524458 0.105117
0.853655 0.296277 0.118574
0.428711 -0.139674 -0.714917
0.805110 -0.507545 0.099430
0.009026 0.703224 0.500610
0.805478 -0.507139 0.100460
0.390069 -0.495629 0.530593
-0.362876 0.251671 -0.284265
-0.361899 0.248581 -0.285972
0.806255 -0.103733 0.508016
0.389435 -0.495766 0.531102
-0.400408 -0.115748 -0.704812
0.388635 -0.496900 0.530831
0.389404 -0.498150 0.531084
-0.416050 0.730297 0.087678
0.437927 0.712359 0.095965
0.410591 -0.516745 -0.297524
-0.001902 0.703909 -0.293292
-0.428708 -0.503028 -0.281126
-0.363829 0.250546 -0.286331
-0.000104 0.702659 -0.296059
-0.406494 0.275963 0.515547
0.427367 -0.141925 -0.714585
-0.417006 0.728717 0.086184
-0.035261 -0.523889 0.105701
-0.838227 -0.104822 -0.286225
0.413181 0.311693 0.516718
-0.843897 -0.518602 0.129827
-0.838491 -0.104547 -0.286232
0.388420 -0.496333 0.531435
-0.007730 0.286216 -0.720730
0.427069 -0.141059 -0.712871
-0.399050 -0.116171 -0.706851
-0.428422 -0.503973 -0.279057
-0.418233 0.728568 0.089079
0.802545 -0.507209 0.099033
-0.427818 -0.504942 -0.279941
-0.405709 0.276247 0.515332
0.854445 0.295830 0.116585
0.804130 -0.506738 0.100759
-0.361913 0.248481 -0.284641
0.410552 -0.513038 -0.297587
-0.006267 0.284351 -0.719407
-0.420573 -0.494176 0.532884
0.412556 0.311638 0.518458
0.855060 0.294353 0.116966
-0.006164 0.282679 -0.720264
0.804357 -0.505211 0.099354
-0.844478 -0.519271 0.130427
-0.007783 0.284196 -0.719167
0.402321 0.271046 -0.267694
-0.000988 -0.549083 -0.703441
0.427640 -0.140560 -0.713430
-0.401858 -0.113913 -0.705707
-0.399639 -0.111258 -0.705399
-0.361739 0.250347 -0.283900
0.387627 -0.496063 0.533022
-0.827740 0.321502 0.087287
0.007844 0.702219 0.499617
-0.837495 -0.103620 -0.286333
0.804471 -0.102382 0.510237
-0.844809 -0.518281 0.131459
-0.000086 0.704372 -0.295523
-0.813317 -0.100791 0.523804
0.842033 -0.112628 -0.298770
0.804680 -0.103719 0.509888
-0.001657 0.702952 -0.293269
0.804671 -0.507181 0.097674
0.412245 -0.517566 -0.298594
0.008137 0.703359 0.500557
0.000456 0.702704 -0.292646
-0.000495 0.703573 -0.293668
0.388341 -0.497623 0.529953
-0.006502 0.284969 -0.719911
0.412005 -0.516451 -0.298113
0.855016 0.295819 0.118402
0.804551 -0.508138 0.099081
-0.405812 0.276183 0.512279
-0.421104 -0.494475 0.532564
-0.007841 0.283275 -0.721488
-0.426000 -0.505327 -0.279645
0.428587 -0.141454 -0.714833
0.804120 -0.101120 0.508923
-0.404544 0.277518 0.512938
-0.828638 0.321193 0.086515
0.805935 -0.508420 0.100937
-0.034886 -0.524239 0.103214
0.855329 0.296168 0.117152
-0.002294 0.703362 -0.294692
0.414161 0.310960 0.516812
-0.364234 0.249571 -0.284137
0.007187 0.703065 0.499097
0.388892 -0.495432 0.531070
0.006597 0.703282 0.497883
0.802578 -0.102031 0.509333
-0.417295 0.726991 0.086808
-0.422841 -0.492842 0.534101
-0.845567 -0.518468 0.131736
0.404112 0.271605 -0.266547
-0.428928 -0.504946 -0.280997
0.007593 0.702876 0.497486
0.403033 0.269959 -0.267792
-0.839108 -0.104481 -0.286190
-0.426599 -0.503184 -0.280414
-0.001460 -0.548046 -0.704856
0.000003 -0.546040 -0.705190
0.388178 -0.495628 0.530391
0.803448 -0.507969 0.099873
-0.000775 -0.547877 -0.702891
0.006359 0.702076 0.499469
0.436962 0.711383 0.094273
-0.001491 0.704208 -0.295017
-0.422253 -0.494148 0.532892
0.802805 -0.102541 0.509867
0.803955 -0.101065 0.510808
0.411882 -0.515195 -0.297304
0.437748 0.714900 0.095780
-0.828953 0.321769 0.084998
-0.362163 0.249810 -0.286285
-0.035938 -0.524529 0.106057
0.007774 0.703820 0.499668
-0.417088 0.728067 0.085762
-0.427811 -0.504654 -0.280532
-0.035822 -0.524060 0.106979
0.412141 -0.515929 -0.299213
0.806822 -0.505964 0.098238
-0.000296 -0.547479 -0.702112
-0.000863 0.702238 -0.295828
-0.845059 -0.519625 0.130079
-0.400560 -0.112732 -0.706842
0.841959 -0.108316 -0.299199
0.411826 0.312588 0.516131
0.006384 0.704555 0.499191
0.430448 -0.140389 -0.712394
0.402869 0.271885 -0.268904
-0.404919 0.277672 0.516854
-0.846200 -0.518173 0.131016
0.008510 -0.076234 0.503993
-0.814428 -0.101888 0.524890
-0.427617 -0.505699 -0.281268
-0.361876 0.251370 -0.284150
0.008477 -0.077342 0.502999
0.411571 0.309674 0.516562
0.415886 0.311694 0.516351
-0.429711 -0.505013 -0.278910
0.389958 -0.496999 0.530688
0.437634 0.711854 0.095426
-0.416152 0.727898 0.087313
-0.424835 -0.506066 -0.279504
-0.402533 0.279278 0.513853
-0.006286 0.285193 -0.720029
-0.000956 0.701240 -0.294969
0.001040 -0.549156 -0.704661
-0.421161 -0.493804 0.534766
-0.364087 0.249079 -0.284790
0.007447 0.704234 0.500985
-0.814998 -0.103840 0.524040
0.854986 0.295072 0.118147
0.007744 -0.078215 0.504955
-0.843353 -0.517598 0.129974
-0.008168 0.283747 -0.719305
0.388728 -0.499395 0.530153
-0.415611 0.729405 0.090608
-0.845140 -0.519384 0.130660
-0.426914 -0.506635 -0.281039
