OFF
256 0 0
0.381541 -0.524733 0.500673
-0.390258 -0.479873 0.526633
-0.419096 -0.518936 -0.315628
-0.428934 -0.116069 -0.732644
0.001323 -0.519874 0.086118
-0.826392 -0.112374 0.516934
0.431961 0.741596 0.128627
0.001457 -0.519176 0.087272
-0.444036 0.269362 -0.274689
0.382860 -0.524945 0.498512
0.431014 0.741775 0.129495
-0.838910 0.301778 0.130521
-0.825338 -0.110882 0.515393
-0.416705 0.712195 0.112821
0.001541 -0.518780 0.086340
0.416833 -0.116176 -0.730061
0.000815 -0.525532 -0.712608
0.417410 -0.116134 -0.731203
-0.827944 -0.124574 -0.285300
0.849789 0.323523 0.127191
0.853401 -0.081358 -0.284130
0.437307 0.322357 0.520466
0.812858 -0.552559 0.107043
-0.010620 0.291829 -0.699248
-0.415136 0.714542 0.114526
0.383314 -0.525000 0.498800
0.000884 -0.520836 0.086581
0.381897 -0.525098 0.499996
-0.019060 0.668497 -0.289610
-0.445490 0.268811 -0.276145
0.419521 -0.114181 -0.730560
-0.390040 -0.479695 0.526335
-0.826901 -0.112456 0.515642
0.849890 0.321220 0.127135
0.001656 -0.089939 0.487296
0.855567 -0.080449 -0.284821
0.000646 -0.525062 -0.711341
-0.418258 -0.519755 -0.319535
-0.015899 0.671218 -0.287834
-0.426670 -0.115503 -0.733901
0.812912 -0.551286 0.104133
-0.015835 0.670051 -0.289948
0.849153 0.321090 0.127398
0.856328 -0.084083 -0.285880
-0.826539 -0.112665 0.514887
0.849025 0.323308 0.127323
0.411760 -0.498818 -0.308433
0.429777 0.741753 0.130255
0.848162 0.321811 0.126451
-0.409507 0.270031 0.497988
0.436636 0.321751 0.523060
-0.833071 -0.539464 0.110978
-0.833293 -0.542093 0.111537
-0.834673 -0.540388 0.111842
0.417552 -0.115592 -0.729937
-0.415732 0.713591 0.113572
0.002637 -0.089250 0.485144
0.416118 -0.114873 -0.730800
-0.417583 0.711885 0.113741
-0.406899 0.270178 0.499124
0.431102 0.744015 0.128584
0.849524 0.323308 0.126536
-0.826297 -0.113156 0.516413
-0.444030 0.266088 -0.277784
-0.415467 0.713000 0.114604
-0.017526 0.668111 -0.289078
0.436681 0.321532 0.522010
-0.445199 0.267588 -0.275222
-0.408190 0.270256 0.499126
0.857267 -0.080774 -0.285835
0.848492 0.323406 0.127820
-0.833469 -0.541145 0.110329
0.411713 -0.498750 -0.309863
0.002995 -0.518422 0.085861
0.383413 -0.526027 0.500159
-0.823763 -0.112331 0.514065
0.857237 -0.082420 -0.284168
-0.826735 -0.123749 -0.286326
0.382626 -0.523778 0.499612
0.812182 -0.552222 0.104012
0.849196 0.323805 0.126732
0.848257 0.323593 0.126607
-0.427676 -0.115719 -0.735401
0.411684 -0.501019 -0.309076
-0.409224 0.267689 0.499396
-0.410503 0.269034 0.499782
0.002816 -0.525349 -0.714351
0.003852 -0.089404 0.486612
-0.407105 0.269575 0.500273
-0.013907 0.291388 -0.701252
-0.011200 0.293333 -0.700616
-0.414697 0.713694 0.112318
-0.427887 -0.115805 -0.732059
0.430763 0.741743 0.127291
-0.017007 0.671149 -0.288897
-0.390733 -0.479387 0.524339
0.430174 0.740323 0.127727
-0.013161 0.291655 -0.698123
0.409665 -0.498373 -0.309537
0.000805 -0.526601 -0.713535
-0.416709 -0.519379 -0.316181
-0.444809 0.267188 -0.275932
0.434519 0.297316 -0.274591
0.431948 0.741777 0.129038
0.000500 0.712866 0.538935
0.438428 0.296076 -0.274444
-0.391255 -0.481346 0.524675
-0.838160 0.301664 0.132493
-0.827225 -0.124413 -0.285138
-0.443503 0.269332 -0.275068
-0.426705 -0.115687 -0.734948
0.813496 -0.551233 0.105430
0.411155 -0.498813 -0.310819
0.848950 0.323485 0.127866
-0.018271 0.669285 -0.289069
0.848757 0.324014 0.126151
-0.824817 -0.112746 0.514987
-0.834472 -0.540280 0.111490
-0.836260 0.299705 0.131066
-0.443741 0.267633 -0.275385
-0.391022 -0.479678 0.525579
-0.836992 0.300944 0.132711
-0.407641 0.270870 0.500051
-0.013078 0.292172 -0.699747
-0.390430 -0.480855 0.524936
0.383900 -0.525718 0.499661
-0.416044 -0.517720 -0.317037
-0.836766 0.300483 0.132693
-0.418367 -0.516783 -0.317224
-0.833251 -0.539073 0.108944
0.002623 -0.090483 0.487949
0.382019 -0.525992 0.499891
0.001590 -0.524918 -0.711587
-0.012417 0.294264 -0.701480
-0.018455 0.670821 -0.289686
-0.409213 0.269113 0.498485
0.004126 -0.518998 0.085303
-0.016736 0.669867 -0.288409
-0.826805 -0.112604 0.515237
-0.825877 -0.113389 0.515790
-0.010798 0.291369 -0.699683
0.438264 0.294625 -0.273718
-0.826254 -0.114167 0.515986
0.820388 -0.108510 0.520225
-0.011047 0.290637 -0.699995
-0.410983 0.269037 0.498537
0.000029 -0.525712 -0.713007
-0.444931 0.268453 -0.276290
-0.427827 -0.114295 -0.731680
-0.415552 0.715402 0.113091
0.000276 -0.518458 0.086643
0.003634 -0.089952 0.486737
0.430999 0.741755 0.129101
0.001048 -0.524306 -0.711538
0.001254 -0.518490 0.086746
-0.828630 -0.123232 -0.286291
0.003150 -0.089351 0.486622
0.436967 0.295162 -0.275146
0.436709 0.321006 0.523312
-0.011716 0.293328 -0.699297
0.380423 -0.524164 0.498567
-0.001934 0.711194 0.538786
-0.825532 -0.111848 0.513285
0.003355 -0.519784 0.087745
0.380898 -0.525503 0.500080
0.409564 -0.500004 -0.309034
-0.832024 -0.539654 0.113626
-0.442958 0.267627 -0.275029
0.435960 0.296737 -0.275898
0.000670 -0.523567 -0.714598
0.857500 -0.081891 -0.284911
-0.415278 0.713813 0.113716
-0.833265 -0.539507 0.110776
0.437120 0.321048 0.522430
0.001270 -0.526021 -0.714410
-0.828230 -0.125635 -0.285364
0.415963 -0.116589 -0.729270
-0.018176 0.669282 -0.288452
-0.011467 0.291669 -0.699827
0.818447 -0.108395 0.518884
0.811768 -0.550074 0.105454
-0.832833 -0.540489 0.111845
0.409989 -0.499462 -0.308555
-0.426691 -0.116009 -0.731579
-0.414363 0.711416 0.112532
-0.011743 0.292276 -0.699592
-0.414518 0.712832 0.113394
0.429314 0.741393 0.130555
0.410425 -0.498696 -0.308284
-0.827034 -0.124023 -0.285730
0.382959 -0.525161 0.499443
-0.392054 -0.479475 0.525344
0.003820 -0.090904 0.487200
-0.018275 0.671939 -0.289175
-0.827160 -0.124866 -0.284941
-0.415279 0.713553 0.113762
0.848346 0.321377 0.127726
-0.833315 -0.541460 0.111124
0.000019 0.712571 0.538523
0.435745 0.294746 -0.274395
0.857195 -0.081832 -0.285294
-0.443755 0.267884 -0.277885
-0.417942 -0.520747 -0.318493
-0.825413 -0.113575 0.515540
0.436648 0.321990 0.520793
0.437173 0.321630 0.519868
0.431172 0.742224 0.130415
-0.833616 -0.540194 0.112400
0.000761 -0.525498 -0.712644
-0.000194 0.712673 0.538850
0.003055 -0.519225 0.086820
0.437851 0.321146 0.522956
0.417860 -0.116654 -0.731910
0.381989 -0.526565 0.498843
0.430472 0.742377 0.128120
0.437116 0.322170 0.522157
-0.826388 -0.124116 -0.284611
-0.011014 0.291147 -0.699679
0.848261 0.323031 0.128289
-0.427985 -0.114244 -0.731992
-0.825334 -0.113308 0.516418
0.002473 -0.090966 0.487662
0.437108 0.322420 0.521281
-0.018150 0.669107 -0.288831
-0.418322 -0.519165 -0.318632
-0.427962 -0.115013 -0.731870
0.437476 0.298534 -0.275973
-0.836240 0.299761 0.131225
-0.013117 0.291862 -0.699474
-0.408130 0.268313 0.497958
-0.017784 0.667845 -0.288588
-0.427352 -0.115394 -0.734355
0.436542 0.321601 0.521541
0.436495 0.295522 -0.274291
0.436825 0.322242 0.521209
0.437224 0.296914 -0.274866
0.847538 0.320919 0.128034
0.000523 -0.526391 -0.711086
0.001979 0.713350 0.538493
-0.837232 0.300762 0.131327
-0.390863 -0.480700 0.524321
-0.835502 0.299452 0.133369
-0.445625 0.267364 -0.276520
0.855929 -0.081640 -0.286014
0.438514 0.322030 0.523214
-0.012512 0.295096 -0.699128
0.436043 0.296191 -0.276186
0.416892 -0.116453 -0.728257
0.381350 -0.525327 0.500669
0.856951 -0.080905 -0.284428
-0.418337 0.714250 0.113097
0.417123 -0.115558 -0.730251
0.436680 0.318900 0.522053
0.419427 -0.115422 -0.728869
-0.417211 -0.518386 -0.317817
0.812808 -0.551018 0.105949
