OFF
256 0 0
0.227521 0.678125 -0.161003
0.673348 -0.681297 -0.236241
0.217736 0.252638 -0.699137
0.244979 -0.619043 0.194972
-0.683828 -0.686408 0.229413
-0.201159 0.680907 -0.668604
-0.669455 -0.236029 0.657177
-0.684517 -0.684547 0.230305
-0.660969 0.199598 0.237808
0.229109 -0.208967 0.680746
0.228302 0.676309 -0.162071
0.673658 -0.681399 -0.237295
0.694575 0.683927 0.225006
0.228665 -0.208450 0.682027
0.663711 -0.235507 -0.698345
-0.690296 -0.259798 -0.226471
-0.672794 -0.236765 0.657235
0.229815 -0.208440 0.680709
-0.217269 -0.225272 -0.662085
-0.241291 -0.655297 0.653481
0.220344 0.249642 -0.699350
0.684401 0.238539 -0.251351
-0.266322 -0.704978 -0.221001
0.218229 0.251966 -0.697739
-0.215845 -0.225210 -0.661208
-0.223680 0.211776 0.681868
0.684796 0.236787 -0.249501
0.663146 -0.235296 -0.698077
0.724860 -0.217208 0.237006
-0.659398 0.202598 0.238302
0.219130 0.251574 -0.700041
-0.673274 -0.237344 0.658854
0.245140 -0.619226 0.196442
-0.218033 -0.225349 -0.661094
0.244620 -0.616204 0.195400
0.225253 0.664870 0.672196
0.683538 0.237088 -0.249059
-0.214713 -0.224968 -0.660360
-0.255666 0.678634 0.249383
-0.683444 -0.683938 0.230472
-0.665440 0.665601 -0.221150
-0.265651 -0.704318 -0.220753
0.694059 0.684451 0.224589
-0.222841 0.213017 0.681911
-0.662270 0.202661 0.238734
-0.661793 0.203391 0.238439
0.684322 0.236775 -0.250507
-0.672752 -0.236929 0.659167
0.674726 -0.682202 -0.236696
-0.663310 0.201952 0.238821
0.672713 -0.682781 -0.238957
-0.201546 0.679866 -0.670690
-0.255952 0.677179 0.249826
0.662636 0.250112 0.654211
0.685770 0.239269 -0.249766
-0.660265 0.201986 0.239138
-0.200845 0.680534 -0.669662
-0.685357 -0.686801 0.226847
0.220162 0.250400 -0.696607
-0.199975 0.680556 -0.669149
0.662393 -0.236441 -0.699759
-0.662189 0.212010 -0.661988
0.694543 0.684751 0.222090
-0.216354 -0.225710 -0.659520
-0.691350 -0.259785 -0.229895
0.684951 0.237541 -0.248871
-0.266582 -0.705208 -0.220096
0.692557 0.683610 0.222728
0.244032 -0.620259 0.195337
-0.200485 0.680184 -0.669270
-0.662412 0.212464 -0.659499
-0.255181 0.676574 0.252184
-0.266741 -0.704612 -0.219310
-0.661163 0.203254 0.239434
-0.240870 -0.655213 0.650930
0.230835 -0.207140 0.678323
0.223684 0.665358 0.672617
0.243725 -0.618653 0.194495
-0.660504 0.202388 0.239085
-0.691498 -0.261876 -0.228951
-0.222899 0.210226 0.683122
0.693664 0.684423 0.222999
0.683885 0.237141 -0.250443
0.663073 0.247097 0.656216
0.219271 0.249400 -0.697863
0.694631 0.684589 0.222733
0.192061 -0.683978 -0.672665
0.230137 -0.208172 0.680138
-0.215247 -0.225833 -0.662049
0.190409 -0.683345 -0.669789
0.694442 0.684143 0.223511
0.224465 0.667143 0.671470
0.661670 0.248182 0.655329
-0.253959 0.677161 0.248956
0.661984 0.247484 0.655839
0.663592 0.247216 0.655683
0.245845 -0.619222 0.193977
-0.215671 -0.226104 -0.658528
-0.691618 -0.258180 -0.229538
0.662714 -0.236816 -0.698524
-0.256340 0.678733 0.250692
0.231498 -0.208047 0.679729
0.692612 0.685299 0.221711
0.192020 -0.682934 -0.670952
0.660086 0.248997 0.654544
-0.221715 0.210614 0.683381
0.219607 0.251531 -0.699575
-0.691302 -0.261799 -0.227925
0.661101 -0.236889 -0.697226
-0.673249 -0.238058 0.661394
0.230476 -0.208437 0.681088
-0.216357 -0.225134 -0.659302
-0.661859 0.209458 -0.660565
-0.240476 -0.654698 0.652533
0.693348 0.683259 0.221506
0.224413 0.664508 0.672448
0.219400 0.250638 -0.698738
-0.201450 0.682169 -0.667999
0.223583 0.664290 0.672604
-0.663796 0.665660 -0.221993
0.693601 0.684467 0.221629
0.192607 -0.683685 -0.669816
-0.683908 -0.685372 0.230448
0.686438 0.235388 -0.251608
0.662944 0.247136 0.654354
-0.671950 -0.236870 0.658159
0.662782 0.250173 0.656299
-0.660266 0.200820 0.239348
0.226263 0.665135 0.672265
0.228493 0.676556 -0.158420
0.230103 -0.208295 0.679665
-0.662824 0.213076 -0.660051
0.662146 0.248759 0.654414
-0.682981 -0.684755 0.229187
-0.200543 0.680372 -0.667890
-0.672103 -0.237495 0.658283
0.662606 -0.237621 -0.696795
-0.662379 0.201388 0.238461
0.228413 -0.208295 0.679646
0.672626 -0.680336 -0.237344
-0.673698 -0.234545 0.659995
0.661629 -0.235877 -0.698421
0.684261 0.237917 -0.249258
0.191597 -0.684675 -0.670844
-0.266491 -0.704719 -0.219391
-0.266646 -0.705762 -0.219921
-0.239334 -0.654161 0.650380
0.224126 0.665539 0.670653
-0.201389 0.679177 -0.667724
-0.267122 -0.705886 -0.220066
-0.222840 0.210071 0.681754
0.662000 0.248309 0.654163
-0.662051 0.212855 -0.659684
0.725042 -0.217180 0.235859
-0.665601 0.665387 -0.222918
-0.222509 0.211278 0.682292
0.662101 0.247340 0.656828
0.660523 0.248565 0.656007
0.189369 -0.683054 -0.671737
0.190500 -0.682967 -0.671492
-0.200996 0.680694 -0.669151
-0.662394 0.203461 0.238702
-0.684560 -0.686042 0.229276
-0.664379 0.664912 -0.222143
-0.691655 -0.259830 -0.227542
-0.661348 0.199553 0.239798
0.221361 0.251342 -0.699221
-0.216811 -0.227395 -0.659533
0.663667 0.248857 0.657324
0.225223 0.667264 0.673002
0.228513 0.678468 -0.159402
0.661616 -0.235495 -0.698054
0.675380 -0.681030 -0.236104
0.224976 0.666339 0.671603
0.228214 0.676885 -0.159674
-0.265976 -0.705011 -0.222345
-0.663012 0.663437 -0.222579
0.674850 -0.683774 -0.236402
0.224053 0.666649 0.671583
0.662619 0.248340 0.654723
0.230846 -0.208796 0.679458
-0.240985 -0.656010 0.651834
0.229764 -0.208993 0.680949
0.230476 -0.210082 0.679652
-0.663728 0.664858 -0.220520
-0.214849 -0.225459 -0.661095
0.219893 0.249875 -0.700367
0.244052 -0.618870 0.194563
-0.201598 0.681291 -0.668119
-0.692528 -0.259061 -0.229409
0.230747 -0.207694 0.679280
-0.241318 -0.655732 0.652547
0.673776 -0.681978 -0.238372
-0.215095 -0.225744 -0.660182
0.663058 0.247188 0.656621
0.693449 0.684121 0.222297
-0.662244 0.213395 -0.659560
-0.671766 -0.236537 0.661002
0.672961 -0.681391 -0.238003
-0.662669 0.213099 -0.658404
-0.690576 -0.257296 -0.228063
-0.671747 -0.235364 0.659815
0.229579 -0.207417 0.680192
-0.659803 0.201449 0.239475
-0.662953 0.201294 0.237316
0.662078 0.249365 0.656165
-0.671833 -0.235830 0.660030
0.228539 -0.208885 0.681088
0.693693 0.684346 0.223105
0.220258 0.251911 -0.698724
-0.661395 0.202614 0.237384
0.663726 -0.237597 -0.698217
0.662717 0.248903 0.654460
0.661600 0.248254 0.654949
0.231284 -0.207702 0.678949
-0.255407 0.676362 0.249133
0.684806 0.237213 -0.250288
-0.671350 -0.235984 0.660805
-0.216246 -0.224363 -0.659139
-0.660203 0.201233 0.239280
-0.220784 0.210992 0.682600
-0.240740 -0.654440 0.652569
0.245064 -0.620288 0.196497
-0.200826 0.680818 -0.669479
-0.683334 -0.684860 0.228538
-0.266523 -0.704248 -0.220634
-0.198567 0.679755 -0.669409
-0.216933 -0.227471 -0.660385
-0.661284 0.202152 0.238253
0.684315 0.237707 -0.249280
-0.240889 -0.654974 0.651413
0.662644 0.248557 0.658348
-0.239325 -0.653632 0.650925
-0.693129 -0.259478 -0.228434
0.663520 -0.237140 -0.699149
0.225747 0.666476 0.670964
-0.665881 0.664979 -0.221820
-0.267280 -0.704118 -0.221552
0.694461 0.684895 0.223102
0.662333 -0.237300 -0.700228
0.661394 -0.237743 -0.699178
-0.251850 0.676699 0.250611
-0.671755 -0.236301 0.659554
0.192633 -0.681843 -0.670637
-0.682606 -0.686455 0.230364
-0.671982 -0.236779 0.661032
-0.201255 0.679842 -0.666684
-0.682060 -0.685195 0.231505
-0.681818 -0.686882 0.229426
-0.199619 0.679778 -0.667658
0.684016 0.237625 -0.250988
-0.681970 -0.686305 0.227944
0.694194 0.684732 0.222439
0.674425 -0.681057 -0.237328
-0.222581 0.213115 0.680825
-0.663772 0.664957 -0.220144
