OFF
256 0 0
0.667330 0.665199 0.223329
0.219303 -0.667777 -0.651784
-0.672951 -0.217569 -0.257837
0.239760 0.676647 0.691978
0.248505 0.683432 -0.223539
-0.672005 -0.234602 0.668390
-0.212952 0.229079 0.675524
0.670555 0.245607 0.666730
0.239906 0.677334 0.692772
0.684523 -0.672246 -0.217582
-0.212012 0.231147 0.674130
0.704653 -0.233791 0.245392
0.251482 0.684863 -0.223429
0.703898 -0.233351 0.247536
0.677896 0.205612 -0.236264
0.680709 0.204970 -0.238942
-0.676715 0.638914 -0.213319
-0.675568 0.640197 -0.214064
-0.213499 0.230135 0.676584
-0.213766 -0.239851 -0.708222
-0.220540 -0.637794 -0.216341
0.669653 0.247282 0.668187
-0.213690 -0.239864 -0.708698
-0.683836 0.223776 -0.694427
0.238864 -0.664350 0.240555
0.238282 0.677529 0.691795
-0.672911 -0.234442 0.669168
-0.690439 0.191987 0.230946
0.220675 -0.667641 -0.652027
-0.690463 0.192031 0.230154
0.670610 0.245895 0.670544
0.703345 -0.235523 0.247321
0.218441 -0.668117 -0.652391
-0.676387 0.639640 -0.212712
0.667150 0.665121 0.224366
-0.235457 0.669502 -0.662893
0.670179 0.245839 0.669638
0.238323 -0.665333 0.240522
0.667872 0.663885 0.223149
0.703055 -0.236888 0.246555
-0.213597 0.228802 0.674615
0.239089 0.676371 0.689408
0.251325 0.683200 -0.222973
-0.243821 -0.665824 0.655134
-0.672646 -0.235958 0.670185
0.212383 -0.213623 0.659578
0.251301 0.684334 -0.225107
-0.675461 -0.654859 0.207651
0.654392 -0.213477 -0.669585
0.703255 -0.235997 0.247495
0.249919 0.682887 -0.223424
-0.678292 -0.656569 0.208716
-0.212495 -0.238798 -0.707366
-0.687895 0.191560 0.229984
-0.689331 0.194193 0.230526
-0.213969 0.229694 0.674912
0.653937 -0.214283 -0.670181
-0.244471 -0.666462 0.657460
0.219238 -0.669548 -0.651589
-0.670418 -0.218531 -0.258958
0.238211 -0.663929 0.238912
-0.683602 0.222866 -0.694171
0.681492 0.204664 -0.237688
0.684413 -0.673600 -0.219356
0.679058 0.206116 -0.235724
0.653755 -0.213628 -0.669568
-0.245647 -0.666082 0.657495
0.670369 0.245516 0.666503
0.235955 -0.666638 0.239599
-0.220396 -0.638244 -0.216905
0.249835 0.683723 -0.224630
0.679590 0.204996 -0.237882
-0.688992 0.193602 0.228848
0.237409 -0.664644 0.239669
0.198950 0.226623 -0.650873
0.685854 -0.673578 -0.217374
-0.677227 -0.656111 0.208680
-0.213115 -0.239821 -0.708205
-0.672387 -0.236008 0.668238
0.703778 -0.236813 0.247629
-0.214190 0.229984 0.676020
-0.215122 -0.238389 -0.706576
-0.219292 -0.638728 -0.216781
0.702819 -0.234722 0.245331
-0.689401 0.191560 0.231323
-0.245281 -0.665298 0.655511
-0.673367 -0.217686 -0.257411
0.666801 0.665399 0.222048
0.212449 -0.214643 0.658381
-0.219338 -0.638051 -0.216422
-0.676138 0.639902 -0.212469
0.703739 -0.236065 0.245943
-0.672597 -0.234766 0.668801
-0.222628 0.660729 0.235417
0.237564 -0.664028 0.239179
0.668152 0.244935 0.667760
0.702455 -0.236499 0.247983
-0.670598 -0.220171 -0.257791
-0.212944 -0.240130 -0.706959
0.685860 -0.674233 -0.218378
0.679443 0.205873 -0.236907
-0.244757 -0.665382 0.656759
0.237375 -0.665087 0.238962
-0.673015 -0.235843 0.668384
-0.212150 0.230403 0.674392
-0.244293 -0.665845 0.656798
0.680856 0.205116 -0.237806
0.211154 -0.213591 0.659336
-0.213479 0.231085 0.674850
-0.689796 0.191412 0.228139
-0.215136 -0.239950 -0.708064
-0.234459 0.669567 -0.664317
0.238232 -0.665111 0.240414
-0.674393 0.639616 -0.210990
-0.670907 -0.218579 -0.257981
-0.677925 -0.655205 0.207000
0.679193 0.204964 -0.237513
-0.214135 0.228398 0.674799
0.199417 0.227194 -0.651594
-0.214569 0.230773 0.676361
-0.678333 -0.656425 0.207455
-0.214151 -0.239417 -0.705701
-0.234329 0.669660 -0.663239
-0.683197 0.222314 -0.694241
-0.236116 0.670117 -0.662896
0.703673 -0.233570 0.247650
-0.679162 -0.654685 0.208540
0.249225 0.684516 -0.222890
0.678819 0.205263 -0.236634
-0.215054 0.230094 0.674493
0.213388 -0.211397 0.658634
0.219364 -0.667371 -0.651490
-0.220657 -0.638568 -0.215872
0.214816 -0.213362 0.659847
0.684166 -0.673445 -0.215934
0.212519 -0.212595 0.659495
-0.242958 -0.667288 0.657538
0.237578 0.677588 0.691332
-0.671036 -0.218541 -0.255771
0.212175 -0.214533 0.658525
0.217366 -0.669316 -0.650893
-0.214459 0.231204 0.674148
-0.670906 -0.217274 -0.256608
0.664948 0.666064 0.223156
-0.672069 -0.217118 -0.257130
0.684811 -0.675590 -0.217591
-0.244952 -0.665646 0.656863
-0.670753 -0.233846 0.667373
-0.214799 -0.239850 -0.705608
-0.221440 0.662177 0.235196
-0.245643 -0.665819 0.659018
-0.672001 -0.216743 -0.257190
-0.684656 0.220114 -0.695769
-0.683215 0.223181 -0.694269
0.237900 -0.666191 0.241063
-0.683146 0.223527 -0.694466
0.239538 0.676141 0.691878
-0.689546 0.191539 0.229637
0.219281 -0.669655 -0.650605
0.654937 -0.214398 -0.670158
-0.220673 -0.637675 -0.217333
-0.671816 -0.217628 -0.255831
0.655333 -0.210976 -0.670421
0.213032 -0.213871 0.657692
-0.213052 0.231603 0.675233
0.249035 0.685990 -0.223995
0.668442 0.247148 0.668707
0.704976 -0.234591 0.247247
-0.220171 -0.639212 -0.218624
0.197756 0.226651 -0.651149
-0.672966 -0.218515 -0.256854
0.703726 -0.234785 0.246566
0.237974 -0.665256 0.240971
-0.671502 -0.217994 -0.258074
0.668199 0.244984 0.668406
-0.688636 0.191600 0.231714
0.680377 0.204253 -0.236824
-0.245960 -0.664730 0.658931
0.238617 -0.664198 0.240078
-0.233223 0.667745 -0.663632
-0.676853 0.638122 -0.213954
0.680774 0.205926 -0.236067
-0.245289 -0.666117 0.657853
0.210910 -0.212142 0.659768
0.250360 0.684344 -0.222213
-0.672074 -0.217126 -0.258278
-0.220691 0.664265 0.236657
-0.218255 -0.638059 -0.215213
0.665747 0.664415 0.225879
-0.671652 -0.217321 -0.255492
-0.232170 0.670287 -0.663304
0.670426 0.245260 0.667939
-0.672240 -0.217190 -0.259152
-0.671602 -0.217297 -0.256477
-0.685036 0.221576 -0.694277
-0.219172 0.661080 0.236231
-0.219958 0.661778 0.236064
-0.214719 0.228604 0.675350
0.667561 0.666358 0.223758
0.653592 -0.213334 -0.669134
0.684388 -0.671935 -0.217699
-0.689426 0.193192 0.230043
-0.219009 -0.637748 -0.218422
0.211754 -0.212623 0.659182
-0.676726 -0.654449 0.207129
-0.684155 0.223257 -0.694555
0.666776 0.666011 0.222811
0.198609 0.227356 -0.651520
-0.689856 0.193892 0.230073
0.236780 -0.662806 0.240875
-0.221523 -0.638271 -0.216665
0.219743 -0.669856 -0.651464
-0.213820 0.230006 0.676691
0.653341 -0.214027 -0.672315
0.213251 -0.213780 0.657480
0.241651 0.678266 0.692405
0.679603 0.204641 -0.237790
-0.674967 0.639113 -0.212760
0.217516 -0.668799 -0.652808
0.668757 0.664265 0.224204
-0.672381 -0.234894 0.669791
0.684657 -0.674947 -0.217036
0.210954 -0.213901 0.656960
-0.219141 0.660668 0.234598
0.212525 -0.213053 0.658253
-0.670999 -0.233317 0.668817
0.219556 -0.668923 -0.651108
-0.675950 0.639316 -0.211968
0.702430 -0.234453 0.246305
0.199149 0.227672 -0.652072
0.703889 -0.233886 0.245646
0.213295 -0.212469 0.658684
0.200701 0.225922 -0.651954
0.199045 0.226167 -0.652738
-0.676288 -0.652771 0.209127
0.680456 0.205486 -0.239202
0.679778 0.203568 -0.235666
0.210433 -0.213038 0.659041
-0.673470 -0.237037 0.668687
-0.672045 -0.218483 -0.257135
0.670090 0.246978 0.668567
-0.219766 -0.639098 -0.218766
-0.670744 -0.218220 -0.256981
-0.243607 -0.666205 0.657811
0.197989 0.226937 -0.652861
-0.213272 0.230490 0.674976
-0.213425 -0.237572 -0.706762
0.218102 -0.668218 -0.652905
0.702281 -0.233773 0.246598
0.238888 0.677869 0.691518
0.666022 0.663530 0.225613
-0.672587 -0.217778 -0.257365
0.685440 -0.675011 -0.217116
-0.684013 0.224752 -0.695436
0.679967 0.205814 -0.237380
0.198619 0.228304 -0.653198
