OFF
256 0 0
-0.626455 -0.603383 -0.301676
0.271525 -0.175665 -0.730235
-0.125866 -0.126086 0.595857
-0.629651 0.272398 -0.279358
-0.621754 -0.137567 0.148364
0.287638 0.296578 0.633824
-0.169969 0.277137 -0.754310
0.756635 -0.151085 0.607059
0.273009 -0.176295 -0.730184
0.750682 0.265585 0.173543
0.272339 -0.177035 -0.729398
-0.161043 -0.648147 -0.732657
0.749446 0.266098 0.174818
0.251082 -0.606459 -0.292461
0.749448 0.267526 0.173051
-0.602658 0.316419 0.608512
0.744197 -0.145368 -0.289711
-0.126618 -0.124363 0.597137
-0.173918 -0.611400 0.159356
-0.631658 0.272345 -0.280750
-0.625859 -0.602991 -0.301318
-0.126833 -0.124516 0.595025
-0.629264 0.271616 -0.278734
-0.116303 0.741618 0.621196
0.278446 0.236383 -0.274544
0.718470 -0.594615 0.168769
-0.620617 -0.138637 0.147164
0.251264 -0.608185 -0.292541
-0.603974 0.317748 0.608239
-0.156070 0.723394 -0.272505
0.272632 -0.175373 -0.730871
-0.156208 0.724518 -0.273600
-0.167504 0.274956 -0.755495
-0.169683 0.276634 -0.754028
-0.609376 0.747482 0.163849
0.290157 -0.611768 0.613572
-0.166677 0.275987 -0.754340
0.719972 -0.595320 0.167826
-0.650923 -0.171913 -0.736364
-0.115847 0.741198 0.621353
0.756006 -0.150450 0.607788
-0.630099 0.271990 -0.280021
0.278699 0.238385 -0.272394
-0.626602 -0.600983 -0.302549
0.745473 -0.146580 -0.288730
-0.653097 -0.172489 -0.737974
0.756820 -0.150020 0.608048
-0.161971 -0.648155 -0.732339
-0.126207 -0.126874 0.596944
0.278936 0.236949 -0.272449
-0.115813 0.741937 0.620673
-0.115662 0.741906 0.621766
-0.125773 -0.125545 0.596574
0.290728 0.295625 0.633950
-0.167533 0.278886 -0.755374
0.743729 -0.145964 -0.291160
0.271112 -0.175684 -0.731109
0.251094 -0.607938 -0.295761
0.717090 -0.592968 0.166022
0.288207 -0.613321 0.614635
0.273654 -0.174785 -0.731486
0.272551 -0.176442 -0.729486
-0.611414 0.745811 0.163025
0.271575 -0.175096 -0.730738
-0.124648 -0.125032 0.596471
-0.117156 0.742511 0.619195
0.756908 -0.150676 0.608500
-0.126740 -0.125614 0.597048
-0.650930 -0.172583 -0.738849
-0.626565 -0.600996 -0.301727
0.751088 0.267471 0.172853
-0.162471 -0.648228 -0.733943
-0.169553 -0.610696 0.163706
0.289847 -0.613273 0.615868
0.745896 -0.146772 -0.290809
0.743895 -0.145794 -0.289888
0.277569 0.240604 -0.273446
0.277727 0.239637 -0.270563
-0.170905 -0.612045 0.161209
-0.162309 -0.649694 -0.731822
-0.623704 -0.135123 0.148057
0.291091 -0.612356 0.615015
-0.167417 0.277272 -0.755470
-0.161274 -0.646637 -0.733622
-0.631139 0.272459 -0.278131
0.751480 0.266397 0.174079
0.289684 -0.610232 0.615892
0.751072 0.268196 0.173579
0.718849 -0.594773 0.166231
0.288709 -0.614292 0.616634
-0.117977 0.741505 0.623013
0.288000 0.294643 0.635206
0.288040 0.295185 0.632152
0.287584 0.295564 0.634345
-0.651577 -0.170752 -0.738763
0.743826 -0.147424 -0.291077
-0.611864 0.748688 0.164198
0.751670 0.265413 0.172145
-0.154753 0.724885 -0.274159
-0.154247 0.723350 -0.274781
-0.125756 -0.126837 0.597443
0.287803 0.294658 0.635067
-0.113486 0.741030 0.621341
0.744954 -0.145342 -0.291327
-0.627127 -0.601570 -0.304065
-0.624617 -0.600496 -0.302199
-0.604249 0.316723 0.608149
-0.156404 0.722916 -0.274994
-0.167463 0.277501 -0.752052
-0.126952 -0.124935 0.595966
-0.622956 -0.135621 0.147345
-0.155726 0.723775 -0.274445
0.288093 0.291777 0.634956
0.272185 -0.175792 -0.728970
0.290462 -0.614835 0.615306
-0.115952 0.742343 0.622158
-0.626681 -0.602549 -0.302922
0.719610 -0.594672 0.169331
-0.627870 -0.601642 -0.300753
0.273237 -0.178102 -0.728906
-0.603817 0.315757 0.606693
0.254356 -0.605014 -0.292870
-0.172603 -0.610258 0.161391
0.289262 0.297584 0.634877
-0.628911 0.273559 -0.279977
0.295110 0.699053 0.170169
-0.629745 0.273605 -0.279109
0.252150 -0.607102 -0.294627
-0.126542 -0.125524 0.596262
0.272955 -0.177299 -0.731382
-0.117226 0.738601 0.622917
-0.626269 -0.600550 -0.302682
0.288835 0.295781 0.635601
-0.161382 -0.647703 -0.734664
0.272245 -0.174738 -0.730106
0.745117 -0.146538 -0.290315
0.758540 -0.151502 0.608249
-0.161050 -0.647418 -0.733930
-0.609281 0.748999 0.162978
-0.126771 -0.126551 0.597500
-0.126689 -0.125927 0.596923
-0.602659 0.314682 0.609795
-0.621386 -0.137937 0.148494
0.288460 0.296866 0.634216
-0.629867 0.273048 -0.279871
0.251592 -0.605192 -0.293708
0.744360 -0.144945 -0.289750
0.751333 0.268496 0.172423
0.756702 -0.151574 0.608479
-0.604673 0.315616 0.609403
-0.160694 -0.648302 -0.732148
0.751736 0.267101 0.175041
0.289931 0.294136 0.635588
-0.622511 -0.137268 0.148394
0.757558 -0.151362 0.608975
-0.610191 0.747425 0.163383
0.756256 -0.150200 0.611244
-0.605752 0.316136 0.607358
-0.626633 -0.601462 -0.300693
0.745582 -0.146778 -0.292102
-0.622631 -0.138658 0.148162
-0.622682 -0.137535 0.149037
-0.624601 -0.137471 0.148606
-0.625548 -0.602704 -0.301920
-0.620797 -0.138450 0.147138
-0.631616 0.273017 -0.278968
-0.611765 0.748575 0.162836
0.294821 0.700557 0.172126
-0.126685 -0.127043 0.598328
-0.171576 -0.611513 0.161446
-0.156423 0.723725 -0.274945
-0.168992 0.276602 -0.755569
0.758071 -0.152539 0.607970
-0.631230 0.272689 -0.279324
-0.606111 0.314955 0.607017
-0.155718 0.723601 -0.273443
0.758189 -0.152519 0.609375
-0.631277 0.272341 -0.279585
-0.611713 0.748231 0.163390
-0.622068 -0.139203 0.147513
-0.604524 0.316970 0.608230
-0.630617 0.272941 -0.279762
-0.161177 -0.648534 -0.733417
0.294325 0.701290 0.168363
-0.651509 -0.173360 -0.738513
0.272568 -0.174788 -0.730498
-0.605106 0.317696 0.607718
-0.125943 -0.125652 0.599140
-0.651905 -0.171484 -0.738173
0.756406 -0.151054 0.608884
0.277331 0.239844 -0.273602
0.745170 -0.147083 -0.291046
0.757479 -0.151696 0.608440
-0.622622 -0.137900 0.147895
-0.160641 -0.649423 -0.733317
0.277972 0.237945 -0.272112
-0.161466 -0.648230 -0.732678
0.750373 0.268447 0.174552
0.294204 0.701011 0.172699
-0.169311 0.277696 -0.753828
-0.623459 -0.137430 0.147176
-0.604929 0.317732 0.608879
0.288051 0.296174 0.634700
0.271825 -0.174674 -0.729365
-0.159734 -0.648489 -0.732819
0.272721 -0.175748 -0.728514
-0.156711 0.724297 -0.273514
-0.620984 -0.137117 0.149219
-0.127086 -0.123938 0.597000
-0.168423 0.276235 -0.754607
0.290552 -0.611293 0.613632
0.273805 -0.174203 -0.729252
-0.628949 0.271907 -0.278776
-0.610424 0.747128 0.162732
-0.630355 0.271077 -0.277329
0.751113 0.267761 0.173550
-0.626661 -0.601959 -0.299285
-0.654134 -0.171572 -0.737587
-0.653971 -0.171598 -0.740203
0.757365 -0.150809 0.609427
-0.171454 -0.609976 0.160393
-0.621589 -0.138319 0.149781
-0.114939 0.740738 0.619931
0.274381 -0.175648 -0.729635
0.746478 -0.146023 -0.288820
-0.161594 -0.647124 -0.732438
-0.160426 -0.647275 -0.734232
0.719324 -0.594412 0.167496
0.277743 0.239034 -0.273363
-0.612183 0.749559 0.162204
0.717741 -0.594508 0.165708
-0.155460 0.724759 -0.273941
-0.602964 0.316274 0.607021
-0.630891 0.272736 -0.280426
0.758215 -0.150102 0.607638
-0.621202 -0.137897 0.147142
-0.652531 -0.171414 -0.737891
-0.155251 0.722473 -0.272956
-0.622911 -0.137214 0.148400
0.719837 -0.593112 0.167930
-0.624229 -0.602025 -0.302190
-0.172655 -0.610318 0.161177
0.751160 0.269718 0.174689
-0.169467 0.277727 -0.754524
-0.168173 0.276744 -0.754172
-0.172330 -0.608534 0.162161
0.288766 0.296349 0.633952
-0.155482 0.723976 -0.273375
0.717937 -0.594115 0.167585
0.296625 0.699687 0.169514
-0.155225 0.724672 -0.273246
0.744782 -0.145458 -0.290922
-0.622965 -0.137220 0.146666
0.277877 0.238304 -0.273835
-0.115848 0.740840 0.620720
0.757304 -0.150757 0.609392
