OFF
256 0 0
0.739614 -0.163361 0.654549
-0.622460 0.723908 0.143756
0.715670 -0.616454 0.201326
-0.140143 0.249728 -0.740802
-0.617191 -0.609563 -0.274944
0.738810 -0.161818 0.652519
0.738466 -0.163637 0.654059
-0.193041 0.727002 -0.297393
-0.151104 -0.610022 -0.738338
0.713736 -0.616587 0.201428
0.285479 0.742106 0.143811
0.738563 -0.162905 0.654897
0.282858 0.742096 0.143776
0.717086 -0.617543 0.202785
0.734881 0.282002 0.151209
-0.173835 -0.175106 0.598289
-0.614931 -0.609093 -0.277217
-0.621268 0.727345 0.140827
0.716287 -0.615315 0.203399
-0.192978 0.727860 -0.296096
-0.139758 0.250787 -0.741592
-0.171462 -0.176269 0.600120
-0.150103 -0.593004 0.146009
-0.619670 -0.149747 0.139990
0.764467 -0.168117 -0.244198
-0.599848 0.281062 0.577219
-0.151834 -0.592902 0.147974
-0.150955 -0.609727 -0.740303
0.735576 0.279769 0.152238
0.738288 -0.161685 0.653820
-0.151478 -0.592040 0.147253
-0.138673 0.247952 -0.741859
-0.154293 -0.591432 0.147006
-0.193849 0.727800 -0.297529
-0.174336 -0.174197 0.601423
0.283661 0.740269 0.142476
0.282852 0.742871 0.141479
-0.139150 0.249480 -0.741425
0.277272 0.332507 0.606343
0.766744 -0.168148 -0.244925
-0.600140 0.280581 0.574462
0.735679 0.281111 0.149083
0.739502 -0.163910 0.653980
-0.615891 -0.610600 -0.276292
-0.173214 -0.175626 0.600301
0.734107 0.280639 0.151620
0.276165 0.333143 0.606250
-0.621918 0.726874 0.143488
-0.622564 -0.170742 -0.739128
0.765739 -0.169007 -0.246047
0.292032 -0.581951 -0.264516
-0.171804 0.729843 0.589330
0.716266 -0.617170 0.202909
-0.140404 0.250513 -0.741020
-0.173026 -0.175090 0.599255
-0.190986 0.726974 -0.297535
0.715401 -0.615623 0.202662
0.305435 -0.178882 -0.704657
-0.618769 -0.148836 0.141209
-0.622388 0.725537 0.143270
0.733965 0.280327 0.149918
0.767331 -0.167338 -0.245318
0.716589 -0.616132 0.201371
0.284552 -0.598561 0.622345
0.765559 -0.167967 -0.245920
0.283396 0.739748 0.144331
-0.151216 -0.611516 -0.737551
0.765515 -0.168616 -0.246267
0.285312 0.739599 0.142092
-0.138391 0.247180 -0.741459
-0.622630 -0.171662 -0.737663
0.715322 -0.616618 0.202170
-0.621290 0.726119 0.142920
-0.192604 0.729060 -0.297067
0.765697 -0.168728 -0.246081
0.284312 0.741484 0.141548
-0.171692 -0.174700 0.599956
-0.173565 0.729174 0.589576
-0.151166 -0.591462 0.146031
0.272585 0.260356 -0.269377
-0.171199 -0.173245 0.599813
-0.622577 -0.170676 -0.740508
-0.174120 -0.176891 0.599765
0.283809 -0.597314 0.618972
0.293283 -0.581688 -0.263956
-0.623335 -0.170364 -0.738018
0.733028 0.281717 0.151357
-0.171341 0.730135 0.588550
0.293818 -0.581540 -0.260866
-0.152556 -0.590861 0.146896
-0.610527 0.285448 -0.296559
-0.173175 -0.175529 0.599550
-0.193054 0.728044 -0.296796
-0.193541 0.730089 -0.297066
-0.619829 0.725340 0.143673
-0.151456 -0.591007 0.148140
0.276645 0.332383 0.607552
-0.599435 0.279164 0.576369
0.734742 0.280516 0.150342
0.281600 0.741884 0.144529
-0.598754 0.280280 0.576062
0.732538 0.279236 0.151341
-0.598901 0.280820 0.575902
0.284445 0.740048 0.144642
0.285202 0.741209 0.142614
-0.191452 0.728216 -0.299978
0.764586 -0.168053 -0.247334
0.284958 0.741515 0.144355
-0.610387 0.285657 -0.295008
0.304678 -0.179713 -0.704511
0.305276 -0.176463 -0.705165
-0.191477 0.727694 -0.296561
0.734359 0.279633 0.151161
-0.621643 -0.148184 0.140403
-0.149499 -0.609989 -0.740213
-0.139069 0.250145 -0.739617
-0.616850 -0.610335 -0.276840
-0.173864 -0.173753 0.599251
0.737942 -0.165328 0.652443
-0.621538 0.723980 0.141850
-0.173125 0.729613 0.589182
-0.192408 0.727471 -0.297580
0.765666 -0.169390 -0.245365
0.305241 -0.178427 -0.704592
-0.611270 0.285376 -0.297457
0.716780 -0.615137 0.201628
-0.623032 -0.169209 -0.739388
0.734674 0.282159 0.149848
0.272370 0.260098 -0.270265
-0.615996 -0.611083 -0.275591
0.717168 -0.616530 0.201190
0.275983 0.330935 0.606145
0.767137 -0.165824 -0.246851
-0.173157 -0.173089 0.599344
0.284537 0.741885 0.143471
0.282655 0.741312 0.144203
0.766870 -0.167066 -0.246941
-0.150967 -0.591620 0.146539
0.732905 0.283231 0.148995
0.283196 0.741220 0.145530
0.273048 0.260523 -0.269428
-0.149715 -0.612421 -0.739856
-0.600736 0.282574 0.577260
-0.148870 -0.613290 -0.740110
0.737361 -0.163754 0.654425
-0.172737 -0.174681 0.599260
0.283591 0.740554 0.143049
0.766170 -0.169168 -0.245518
-0.171585 -0.175451 0.601784
-0.192374 0.727596 -0.298074
-0.624791 -0.170351 -0.738211
-0.617590 -0.149847 0.141206
-0.138271 0.249176 -0.740318
0.734674 0.282306 0.149025
0.275379 0.332830 0.605676
-0.601633 0.280006 0.575126
0.766006 -0.167653 -0.249088
-0.616499 -0.610487 -0.273960
-0.191918 0.727877 -0.298093
-0.600247 0.282614 0.574920
-0.610096 0.284206 -0.297216
-0.616999 -0.611413 -0.274692
-0.617207 -0.610350 -0.273955
-0.622431 -0.169151 -0.739858
-0.619623 -0.610579 -0.275381
-0.616773 -0.611397 -0.276036
0.305031 -0.180565 -0.705751
-0.622076 -0.168522 -0.739345
0.738167 -0.164027 0.654705
0.305063 -0.177263 -0.706518
0.283457 0.739937 0.142608
0.277699 0.333110 0.607545
0.715001 -0.618055 0.202637
0.305006 -0.177583 -0.705076
-0.171885 0.729457 0.589233
-0.621927 -0.169959 -0.738890
0.293420 -0.580512 -0.262011
-0.611611 0.286536 -0.298783
-0.600649 0.281327 0.575784
-0.151107 -0.592227 0.148060
-0.619319 -0.149411 0.140819
-0.150962 -0.592560 0.146110
-0.623019 -0.168662 -0.739069
0.294317 -0.581746 -0.260564
0.738631 -0.163166 0.652542
-0.599020 0.281141 0.576603
0.737415 -0.164966 0.653635
0.733920 0.280579 0.150191
0.765427 -0.168210 -0.247260
-0.611625 0.283557 -0.296753
0.735305 0.281015 0.149597
0.293085 -0.580043 -0.262266
-0.619572 -0.148580 0.139743
-0.172588 -0.175871 0.600085
0.304777 -0.179880 -0.705052
0.272343 0.260030 -0.269510
-0.139701 0.250310 -0.738581
0.293385 -0.580834 -0.263419
-0.151309 -0.610719 -0.738818
-0.151881 -0.590420 0.144808
0.735307 0.278890 0.149570
-0.622467 0.725641 0.143267
-0.139268 0.251529 -0.740615
0.285292 0.741557 0.143468
-0.172918 0.728580 0.589742
0.293292 -0.582427 -0.264925
-0.620975 0.725570 0.141369
-0.152120 -0.590651 0.145933
-0.611361 0.285624 -0.297610
-0.618260 -0.607931 -0.276490
-0.615594 -0.610130 -0.275078
-0.622350 -0.169928 -0.740026
-0.150985 -0.591729 0.146992
-0.139491 0.248844 -0.740772
0.284010 0.740346 0.143540
-0.624712 0.726125 0.143295
-0.171683 -0.173671 0.600068
-0.151469 -0.591885 0.147076
-0.616027 -0.610057 -0.274833
0.283536 -0.597354 0.621814
0.290879 -0.581414 -0.263613
0.740358 -0.162669 0.656473
-0.172524 -0.173856 0.598856
-0.138355 0.250285 -0.743155
0.272862 0.257743 -0.271517
-0.192332 0.727928 -0.298423
0.271859 0.260160 -0.269281
-0.623168 -0.169555 -0.737319
-0.192703 0.728958 -0.297946
0.737978 -0.162724 0.654777
-0.620899 0.725817 0.142208
-0.623966 -0.169842 -0.739347
-0.618666 -0.150571 0.140827
-0.138447 0.250648 -0.742489
0.737474 -0.164589 0.654430
0.284954 0.739641 0.143273
-0.615598 -0.609918 -0.274978
0.306556 -0.178281 -0.704745
0.740007 -0.162626 0.653936
0.715754 -0.615883 0.199934
-0.603925 0.279750 0.576814
-0.616933 -0.149815 0.141061
0.277664 0.332598 0.605145
0.303753 -0.179679 -0.707783
-0.622436 -0.171267 -0.739681
0.294986 -0.581816 -0.263426
-0.172325 -0.173875 0.600169
0.271664 0.259162 -0.269344
-0.617062 -0.610502 -0.275624
-0.618337 -0.149847 0.138878
0.305142 -0.177836 -0.704081
0.737494 -0.162988 0.655893
0.714063 -0.617193 0.200853
-0.149863 -0.611130 -0.741559
0.283312 0.740818 0.144674
0.283266 0.742644 0.143062
