OFF
256 0 0
-0.222134 0.666817 0.668808
-0.223256 0.666846 0.669559
-0.198120 -0.236829 0.643467
0.688072 -0.201900 -0.251988
-0.652792 -0.213570 -0.691605
-0.216826 -0.670589 0.210920
-0.674797 0.187235 -0.209757
0.677415 -0.646041 0.248180
0.705599 0.664344 -0.214111
0.230526 -0.233711 -0.662377
-0.652870 -0.216315 -0.693822
-0.223876 -0.691130 -0.668453
-0.651579 -0.216885 -0.693196
-0.215941 -0.669024 0.211618
0.173309 0.227862 0.674190
-0.672911 0.232009 0.667563
0.226380 -0.676247 0.680793
0.686307 -0.203752 -0.252347
-0.223090 0.225992 -0.658980
-0.221484 0.227889 -0.656425
0.707185 0.664125 -0.216272
-0.674318 0.233345 0.669178
-0.254693 0.698495 -0.257559
0.637489 0.201019 0.217249
0.213460 -0.669803 -0.217592
-0.675525 0.188958 -0.211490
0.223398 -0.677247 0.683116
-0.220723 0.666207 0.668947
-0.673188 0.185701 -0.212021
0.668007 -0.212402 0.712387
0.668142 -0.211888 0.713647
0.211345 -0.670319 -0.218460
-0.217496 -0.670303 0.211076
0.669788 -0.212326 0.711774
-0.197329 -0.237168 0.644238
0.652642 0.235421 -0.668479
-0.254717 0.698568 -0.259008
0.652808 0.237061 -0.671024
0.689008 -0.204036 -0.253231
-0.683933 -0.238527 0.233688
-0.672080 0.187180 -0.210760
-0.224545 -0.687524 -0.667982
0.232614 0.666316 -0.667926
0.671122 -0.214624 0.710942
0.230930 0.667072 -0.665616
0.654594 0.236913 -0.668633
-0.220424 0.666572 0.671052
-0.256079 0.701209 -0.257357
-0.684156 -0.237103 0.232911
-0.683383 -0.238733 0.233543
-0.673142 0.233112 0.669571
0.231010 0.665914 -0.664729
-0.199776 -0.236720 0.644488
-0.660801 0.668776 0.237109
-0.197831 -0.234431 0.644747
-0.223199 -0.689443 -0.667203
0.687130 -0.204370 -0.252639
0.210887 -0.668998 -0.218277
-0.216555 -0.669214 0.211929
-0.659173 -0.666452 -0.213674
0.224199 -0.675822 0.680547
-0.673604 0.233445 0.669462
-0.253912 0.699072 -0.258634
0.676046 -0.645393 0.249428
0.703958 0.664516 -0.214737
0.676312 -0.646540 0.248971
-0.215741 -0.670018 0.209582
0.225176 -0.676310 0.682768
-0.224175 -0.691220 -0.667420
0.173808 0.226384 0.675260
-0.659924 -0.665709 -0.213808
-0.223604 0.667157 0.670289
-0.652971 -0.217383 -0.692102
0.688303 -0.204302 -0.251140
-0.255161 0.698804 -0.258556
0.231904 0.665717 -0.665408
-0.654404 -0.215393 -0.692374
0.211543 -0.668032 -0.218355
0.685826 -0.202874 -0.252497
-0.673183 0.187545 -0.211834
0.232850 0.664822 -0.666688
0.173841 0.227235 0.673938
0.704615 0.665358 -0.214702
-0.673650 0.231653 0.667251
0.173513 0.227261 0.676789
0.689144 -0.203503 -0.251951
0.224625 -0.677175 0.681443
0.230287 -0.231245 -0.661170
0.231522 -0.234539 -0.662484
0.704032 0.665367 -0.216870
-0.658851 0.670231 0.235875
-0.215469 -0.670334 0.213535
-0.672492 0.188575 -0.210667
0.668621 -0.212876 0.711693
0.239552 0.677915 0.186863
0.225968 -0.678535 0.681308
0.705637 0.664730 -0.215903
0.229397 -0.234286 -0.661951
0.211012 -0.668317 -0.218148
-0.660748 -0.664508 -0.213727
-0.220894 0.668442 0.671050
0.668662 -0.211878 0.711760
0.633902 0.198758 0.220794
0.687135 -0.203378 -0.251891
-0.197985 -0.234621 0.643390
-0.216885 -0.669631 0.213277
-0.196446 -0.235687 0.642934
-0.659995 0.670453 0.235348
0.174607 0.228814 0.675026
-0.658008 -0.667755 -0.215049
-0.660109 0.669180 0.234433
-0.221241 0.228115 -0.659323
0.229372 -0.233171 -0.660848
0.689400 -0.202974 -0.253731
0.686896 -0.203602 -0.252849
0.686253 -0.203577 -0.252627
0.223676 -0.677410 0.681082
0.175935 0.228171 0.676697
0.210312 -0.667362 -0.219560
-0.654394 -0.216820 -0.692707
-0.659502 -0.667067 -0.214215
-0.675064 0.186850 -0.211447
0.706055 0.665255 -0.218052
0.635924 0.200535 0.221241
-0.224060 -0.689650 -0.665890
0.175150 0.228507 0.675115
0.209673 -0.668283 -0.219355
0.653208 0.235888 -0.669399
-0.216923 -0.669581 0.212415
-0.673896 0.186608 -0.209977
-0.197652 -0.234773 0.643872
0.668935 -0.211140 0.712642
-0.661109 0.668459 0.234133
-0.218787 0.666475 0.670114
0.669765 -0.211916 0.713387
0.238094 0.677869 0.185060
-0.215870 -0.671025 0.210553
0.232717 0.665941 -0.667779
0.174797 0.227767 0.674655
-0.673124 0.186731 -0.211650
-0.197723 -0.236373 0.643487
-0.672036 0.188150 -0.210522
-0.672713 0.187951 -0.211362
0.652660 0.237312 -0.671387
-0.659172 -0.668251 -0.214629
-0.198835 -0.235783 0.645892
-0.222559 0.229539 -0.657818
0.208727 -0.668811 -0.217987
0.675002 -0.648635 0.248649
0.678199 -0.647845 0.250026
-0.660276 -0.666253 -0.213808
0.670561 -0.214233 0.710493
-0.221547 0.666949 0.670691
-0.222581 -0.688843 -0.667038
0.210212 -0.669172 -0.218679
0.237780 0.677394 0.186095
0.230163 -0.233657 -0.660468
0.652413 0.237487 -0.671019
0.704808 0.665989 -0.215886
-0.222003 0.666554 0.669996
0.634299 0.201022 0.220104
0.212301 -0.667373 -0.217376
0.705247 0.665063 -0.214856
-0.652333 -0.217017 -0.691187
-0.197760 -0.235489 0.644835
-0.674093 0.186871 -0.211076
0.173836 0.229013 0.676599
-0.216496 -0.670835 0.211738
0.209987 -0.668764 -0.218528
0.690376 -0.202438 -0.251761
-0.255440 0.698842 -0.257583
0.236915 0.678484 0.183868
0.238105 0.678023 0.186003
0.210996 -0.667708 -0.218699
0.688068 -0.202239 -0.251442
0.232095 0.665684 -0.667750
-0.220295 0.667281 0.672009
0.633584 0.201164 0.220122
-0.682653 -0.239914 0.234734
-0.684229 -0.239317 0.233875
-0.673799 0.188234 -0.210119
0.669877 -0.211745 0.711560
-0.684589 -0.239449 0.232503
0.230610 -0.232082 -0.660880
-0.216371 -0.669005 0.212098
-0.685280 -0.239139 0.231462
0.653359 0.236303 -0.670198
0.676287 -0.644737 0.249776
-0.652466 -0.215985 -0.693119
0.231809 0.665050 -0.666673
-0.197089 -0.236102 0.644192
-0.219157 0.228781 -0.659095
0.230996 -0.232352 -0.662104
0.232473 0.665743 -0.667593
0.174479 0.229316 0.675534
-0.256037 0.699523 -0.258371
-0.682714 -0.237803 0.232819
-0.673450 0.232920 0.669389
-0.254711 0.697736 -0.258609
0.676952 -0.647430 0.250248
0.232931 0.665508 -0.666576
-0.220514 0.666536 0.668641
0.224750 -0.675289 0.680380
0.668909 -0.213019 0.711556
0.635153 0.198005 0.218228
0.224767 -0.675232 0.680989
0.685682 -0.203788 -0.251911
0.690064 -0.201130 -0.251943
0.232872 0.667919 -0.666851
-0.255628 0.698978 -0.258981
-0.652582 -0.217224 -0.691109
-0.217154 -0.670072 0.209597
-0.221382 0.665023 0.669357
0.655741 0.236126 -0.669483
0.704650 0.664813 -0.216202
0.223785 -0.676933 0.679798
0.705194 0.666174 -0.216302
0.211086 -0.668059 -0.217909
0.230109 -0.234281 -0.660866
-0.218421 -0.669925 0.211518
-0.223686 -0.688459 -0.667442
-0.673297 0.232973 0.668051
0.688061 -0.202651 -0.252547
0.633496 0.201400 0.220794
-0.216581 -0.667891 0.211654
0.635589 0.200476 0.219906
0.654140 0.234655 -0.670358
0.231068 -0.233094 -0.660848
-0.661468 0.671276 0.235850
-0.221686 0.226975 -0.657181
0.174364 0.228726 0.674731
0.225847 -0.678116 0.679396
0.175156 0.227912 0.676005
0.706704 0.665513 -0.215365
0.668911 -0.211845 0.711588
0.239377 0.676689 0.186229
-0.660533 -0.667255 -0.214985
0.232696 0.666848 -0.664908
0.228651 0.667002 -0.665997
0.635045 0.198761 0.220397
0.176443 0.229479 0.677271
0.675470 -0.647927 0.249464
0.687247 -0.203264 -0.252821
-0.660080 0.669825 0.235781
0.225103 -0.675738 0.680857
0.634869 0.200879 0.218934
-0.215778 -0.672246 0.213418
0.669612 -0.211368 0.712545
0.687538 -0.201974 -0.253169
0.225129 -0.676689 0.681076
-0.681367 -0.239344 0.232405
-0.221946 0.667101 0.670166
-0.660907 0.671510 0.237037
-0.218138 -0.670271 0.210555
0.676309 -0.645530 0.249368
0.654577 0.236818 -0.669940
