OFF
256 0 0
0.102631 -0.848524 0.423866
-0.322482 -0.000463 0.848513
0.526942 -0.423365 0.423568
-0.749340 -0.426300 -0.001377
0.527222 -0.425566 -0.426629
-0.322089 -0.849446 0.000329
0.103317 0.849549 -0.425157
0.102642 0.425239 0.849986
0.528739 -0.424156 0.425586
-0.747605 0.000317 0.425178
0.103746 -0.425329 0.849127
0.102200 0.425866 -0.850528
-0.323071 -0.425558 -0.424718
0.527102 -0.426850 0.422468
-0.321176 -0.424201 -0.423933
0.102664 0.851607 -0.426598
-0.320992 0.000347 -0.847839
0.102821 0.849589 0.425207
-0.323187 -0.424668 -0.424909
0.525445 -0.424058 0.425983
0.527683 0.850239 0.002527
0.527639 -0.000162 -0.001073
0.102498 0.848801 0.424388
0.527837 -0.423954 0.425158
0.103314 0.849993 0.427005
-0.746404 -0.000147 -0.426139
0.526551 -0.848062 -0.001760
-0.321947 0.425505 -0.424942
0.528703 0.000532 0.848835
0.101664 0.849377 -0.424165
0.527006 -0.849234 0.000438
-0.322164 -0.850985 0.000448
0.104087 -0.424257 0.849462
0.527532 -0.000681 -0.001222
0.101154 -0.850660 -0.423408
0.527224 0.000759 -0.850230
-0.748207 -0.002223 -0.424747
-0.746077 -0.000593 -0.424284
0.525931 -0.000175 0.849556
0.102853 0.850397 -0.422723
-0.320714 0.848668 -0.000997
-0.321312 0.000273 -0.849261
0.528124 0.425042 0.422946
0.101592 0.424285 0.849338
-0.747400 0.423365 0.000330
0.103435 0.850079 -0.425141
0.104471 0.849131 0.425368
0.104139 -0.423926 0.849718
0.526775 -0.850925 -0.000703
0.527542 0.849473 0.000028
0.528701 0.000688 -0.001886
-0.320770 -0.423995 -0.424974
0.102538 -0.849498 -0.424896
-0.320564 0.000086 0.849524
-0.323171 -0.848456 0.000688
-0.323357 0.001086 0.851097
-0.745684 0.425942 0.000258
0.527967 0.425022 0.425124
0.104115 -0.849032 -0.425578
0.105010 -0.848925 -0.425445
0.528149 0.426290 -0.424075
0.101799 0.850017 0.425346
-0.745354 0.002244 0.424336
0.100592 -0.425076 -0.849216
0.527855 -0.850099 -0.000207
0.526776 -0.425357 -0.424082
0.527916 -0.000594 0.851148
-0.322293 -0.000842 -0.848280
-0.321849 -0.424999 0.425404
0.104505 0.850122 -0.425296
0.526117 0.000904 0.000504
0.526663 -0.851808 0.000040
0.103099 0.423321 -0.849866
0.527321 -0.848374 -0.000728
0.525954 -0.424356 0.425649
-0.323954 0.849748 -0.000390
0.527920 -0.422909 0.423897
0.526154 -0.848913 0.001410
-0.746082 0.000081 0.426149
0.525832 0.423829 0.424204
0.528214 0.425240 0.423728
-0.322463 -0.001599 -0.848364
0.527700 -0.001959 0.849936
0.103025 0.849559 -0.425002
-0.322409 -0.423338 -0.424465
-0.321749 -0.849490 -0.001126
-0.320386 -0.849429 -0.001675
0.526890 0.001031 0.849357
0.528583 0.000529 0.000545
0.102686 0.848953 -0.424344
-0.320376 0.848754 -0.000398
0.102564 0.849510 0.425344
0.104722 0.423567 0.850618
-0.746953 0.000059 -0.425956
-0.322051 -0.848020 -0.001003
0.526766 0.424330 0.425145
-0.321818 0.425272 -0.423827
0.527436 -0.000202 0.849563
0.525268 -0.423566 0.424660
-0.323056 0.426363 0.425800
-0.322013 -0.426087 -0.427476
0.526613 -0.426066 -0.425102
0.103747 -0.849948 -0.424084
-0.321897 -0.848929 0.000531
-0.323842 0.000061 0.849425
0.101520 0.424898 -0.849004
0.104848 0.849156 -0.423395
-0.322963 -0.424558 0.426248
-0.748383 0.423197 -0.000718
-0.321519 -0.850478 0.001052
0.104743 -0.425582 -0.850526
0.526396 0.000786 -0.849950
-0.322464 0.424753 -0.424492
0.103314 -0.425559 -0.847940
0.529345 0.849757 0.002003
-0.322506 0.850358 -0.000230
-0.747041 0.424878 0.000238
-0.321886 -0.849669 0.000269
0.102372 0.426572 -0.849233
-0.321756 0.850710 -0.000433
0.528240 0.850125 0.001761
0.102957 -0.849900 0.426245
-0.323313 -0.002213 -0.849931
0.528297 0.425080 0.425859
-0.322649 0.425222 -0.425179
-0.746188 -0.423996 -0.000803
-0.322609 0.002418 -0.850292
0.526639 -0.848932 -0.000385
0.526444 0.000279 0.849226
0.527838 0.425171 -0.424744
0.100938 0.846407 0.424147
-0.745743 -0.000315 0.425002
-0.322070 -0.849299 0.000794
-0.745862 0.000356 -0.423950
-0.747079 0.000725 -0.423151
-0.320484 -0.000666 -0.849469
0.103492 -0.851210 0.424884
0.527771 0.424983 -0.423980
0.528067 -0.423840 -0.423954
0.528424 0.424097 -0.425122
-0.321133 -0.424281 -0.425244
0.528815 -0.848947 0.000628
0.101725 -0.424280 0.850596
-0.321959 -0.424719 -0.423899
-0.745865 -0.425178 0.000559
-0.745647 -0.424182 -0.000247
0.103520 0.850873 -0.425335
0.101990 0.425334 0.850113
0.526357 -0.849280 -0.002338
-0.746751 -0.000043 0.423999
0.102079 -0.851181 0.423915
0.524826 0.424460 0.426079
0.526736 0.425786 -0.424007
0.525220 -0.423964 -0.424724
0.525728 -0.424965 0.422788
0.527498 0.000455 -0.850952
-0.322874 0.424877 -0.424316
-0.744014 0.426055 0.001385
-0.748395 -0.425435 -0.000951
0.524844 -0.849587 0.000417
-0.323199 0.425739 -0.426540
-0.322859 0.424226 -0.425904
0.102179 -0.849816 0.424302
-0.321845 0.848604 0.000236
-0.746564 0.001690 0.425506
0.526948 0.000373 0.849131
0.528055 0.848965 -0.000350
0.530084 -0.849538 0.000317
0.101248 -0.847822 -0.425125
-0.745948 -0.001938 -0.423278
-0.321530 -0.848266 -0.001013
0.527136 0.000575 0.848813
0.101784 0.850769 -0.424594
0.527122 -0.000001 0.849742
0.527308 -0.001133 0.848802
-0.323553 0.000241 0.850075
-0.321170 0.000691 -0.847770
-0.322248 -0.850240 -0.002628
0.526849 0.850220 0.000383
0.527925 -0.851492 -0.000447
-0.748160 0.000568 0.426873
0.102562 -0.849590 0.424710
-0.747388 -0.423900 -0.000009
0.525931 -0.425428 -0.423596
-0.320013 0.849519 -0.000735
0.527600 0.850254 -0.001129
0.104551 0.851334 -0.424835
0.103710 0.426165 -0.849441
-0.322576 -0.424849 0.426645
-0.322798 -0.424826 -0.424498
-0.322414 -0.000275 -0.849023
0.101104 0.851523 0.422699
-0.746530 -0.424913 0.000062
0.100538 0.423083 0.853076
0.526932 0.849061 0.002298
0.101645 0.849327 -0.426328
0.101928 0.848964 -0.423549
0.102603 -0.425157 -0.851033
0.103848 0.424306 0.846314
0.526872 -0.425059 -0.426629
-0.323919 -0.000987 0.851598
0.102339 0.424303 -0.849896
0.528807 -0.424710 -0.426302
-0.322764 0.001189 0.849429
-0.321228 0.425700 -0.423992
0.103715 0.850200 -0.422033
0.101732 -0.849048 0.426551
-0.322380 0.850892 -0.000744
0.102212 0.850993 0.424369
0.101920 -0.850512 0.426476
0.526627 -0.424231 0.423171
-0.745501 -0.424743 -0.001024
-0.322639 0.424719 -0.423115
0.102691 0.425705 0.849914
0.527884 -0.000757 -0.001026
0.529475 0.425577 -0.424370
0.525886 0.850069 -0.000652
0.103395 -0.423823 -0.848875
-0.746390 0.000642 -0.425448
-0.321259 -0.426248 -0.424653
0.105091 -0.848758 0.425155
-0.746180 -0.000943 0.425467
-0.323109 -0.000375 -0.850014
0.528531 -0.426258 -0.423262
0.101706 -0.848997 0.425378
-0.321590 -0.425717 -0.425285
0.102398 0.426004 -0.849447
-0.324471 -0.425622 -0.423467
0.103128 0.425367 0.849837
0.102571 -0.422043 -0.849362
-0.323382 -0.423309 -0.425162
0.101458 -0.849575 -0.424280
0.101899 -0.847810 0.423678
-0.320293 0.426427 0.424515
0.103690 -0.849748 -0.424375
0.527627 -0.424842 -0.424069
0.529509 -0.848957 0.001433
-0.747430 -0.000056 -0.425866
-0.322239 0.425903 -0.424088
0.103410 -0.425793 0.849356
0.526301 0.424626 0.425433
-0.746486 -0.425419 0.001403
-0.323367 -0.427040 -0.426302
-0.322654 0.424475 -0.425471
0.527348 -0.420902 -0.424228
0.529252 -0.425440 -0.425986
0.526334 0.000006 -0.849655
-0.748636 0.000196 -0.424955
-0.322350 0.000591 -0.849529
0.100732 -0.423764 -0.847422
0.529597 -0.425524 0.423107
0.528011 -0.000442 -0.849869
0.525579 -0.427780 0.425022
-0.320398 -0.424266 -0.424580
0.102578 -0.850076 0.424329
-0.748843 -0.002789 0.423666
