OFF
256 0 0
-0.275733 -0.802408 0.040602
0.513597 0.008175 0.815999
0.496189 0.430353 0.404723
-0.758613 0.416585 -0.004496
-0.293636 0.028240 0.849539
0.516915 0.009822 0.816736
0.120083 -0.414547 0.823105
0.504561 0.021216 0.016717
0.487387 -0.397638 -0.408457
0.097213 0.814924 -0.411132
-0.758635 0.418690 -0.006300
-0.318076 -0.029707 -0.815932
-0.320477 -0.031705 -0.817738
-0.722012 -0.427609 -0.011582
0.552538 0.833792 -0.008340
-0.738944 -0.026903 -0.423360
-0.295744 0.026846 0.847601
0.121171 -0.414640 0.824343
-0.294713 0.805249 -0.003023
0.098396 0.829352 0.383732
-0.293851 0.027787 0.849893
-0.275022 -0.802831 0.040436
0.101622 0.445437 0.820486
0.504614 0.022411 0.015934
0.098102 0.815416 -0.409680
0.516686 0.420020 -0.418564
0.487137 -0.400209 -0.408840
-0.294473 0.806156 -0.004629
0.505931 -0.827334 -0.001270
-0.740397 -0.025799 -0.425337
0.484918 -0.399544 -0.407947
-0.293843 0.809839 -0.004539
0.099544 0.830376 0.385441
-0.733912 0.007761 0.405453
0.101292 0.829200 0.383694
0.120468 -0.415231 0.822711
0.098690 0.814981 -0.410244
-0.725380 -0.429072 -0.012376
-0.276887 -0.803384 0.039999
-0.318783 -0.032334 -0.819361
0.515083 -0.418229 0.403513
-0.294528 0.027685 0.849375
0.077127 -0.836212 -0.392987
-0.724830 -0.428456 -0.012447
-0.294466 0.027849 0.848794
0.516666 0.008226 0.817266
0.100420 0.828174 0.385427
-0.320154 -0.031252 -0.819400
0.504993 -0.828972 0.000863
0.100469 0.830368 0.384365
-0.274052 -0.803056 0.040860
-0.723734 -0.428912 -0.012992
-0.295403 0.029166 0.849005
-0.725580 -0.428689 -0.012786
0.117025 0.380191 -0.834880
0.107965 -0.830629 0.442888
0.100119 -0.407061 -0.821893
0.115828 0.380354 -0.835647
0.513909 -0.414998 0.403635
0.498186 0.431333 0.405226
-0.294335 0.806830 -0.004509
-0.322907 -0.368868 0.416962
-0.725279 -0.427811 -0.012414
-0.740065 -0.026330 -0.425081
-0.295761 0.027935 0.849366
-0.296116 0.806001 -0.002383
0.120900 -0.414752 0.824087
-0.738654 -0.026234 -0.424703
-0.294210 0.026199 0.848671
-0.724131 -0.429186 -0.012884
0.514995 -0.416310 0.403213
-0.742578 -0.025559 -0.423156
-0.340390 0.382129 -0.416841
0.097535 0.814687 -0.412087
-0.734410 0.007457 0.404639
-0.341754 0.383595 -0.415319
-0.740421 -0.025098 -0.424309
-0.757830 0.417377 -0.005561
-0.311919 0.410269 0.389132
-0.311105 0.411345 0.388727
-0.319443 -0.032013 -0.818427
0.101165 -0.405713 -0.820582
-0.310248 0.411026 0.386728
-0.273170 -0.805226 0.040716
0.099652 0.829440 0.383947
-0.295085 0.807158 -0.002539
0.516887 0.420537 -0.417807
0.515508 0.007435 0.816636
-0.342128 0.384768 -0.416853
-0.734776 0.008219 0.402992
-0.323442 -0.431371 -0.420826
0.515481 0.008002 0.816642
-0.733580 0.006720 0.405232
0.515616 0.008461 0.816857
0.486714 -0.398394 -0.406284
0.097541 0.830597 0.384063
0.525079 -0.014859 -0.819233
-0.275031 -0.805138 0.042434
0.074853 -0.834940 -0.393907
0.099981 0.830912 0.383011
0.516249 0.416739 -0.419592
0.524832 -0.014321 -0.819538
-0.323604 -0.366916 0.416819
0.485429 -0.399525 -0.406543
0.514624 0.007983 0.815407
-0.725702 -0.430212 -0.011509
-0.324914 -0.430540 -0.419756
0.515389 0.418684 -0.418713
0.100139 -0.408156 -0.821448
0.101813 -0.406878 -0.821675
0.101515 -0.407870 -0.821242
0.497000 0.431281 0.403905
0.102085 0.445871 0.821179
0.101271 -0.405928 -0.822605
0.116802 0.380229 -0.837770
-0.735812 0.005925 0.405890
-0.296031 0.807482 -0.003383
0.514859 -0.417125 0.403614
-0.324836 -0.430190 -0.420454
0.100056 -0.407223 -0.822057
-0.311842 0.409649 0.388187
-0.320383 -0.032816 -0.817309
-0.741215 -0.026617 -0.424603
-0.735968 0.005274 0.405348
-0.319662 -0.030249 -0.819584
0.497588 0.430269 0.405309
0.099085 0.829461 0.386949
0.506975 -0.827729 -0.001264
0.101584 -0.408260 -0.823591
0.107468 -0.831957 0.442108
-0.733271 0.008790 0.405602
-0.294635 0.025499 0.849741
0.552966 0.832391 -0.007376
0.553951 0.832375 -0.006909
0.122156 -0.415826 0.824134
-0.724574 -0.429068 -0.012187
0.120135 -0.414384 0.823736
0.516263 0.008889 0.815284
0.121558 -0.413826 0.823102
0.101079 -0.407083 -0.821255
-0.275948 -0.802703 0.040085
0.516081 0.419004 -0.418751
-0.724319 -0.429233 -0.012581
-0.324488 -0.427214 -0.420532
0.102639 -0.407296 -0.820523
0.101574 0.829046 0.385215
0.496364 0.430925 0.405160
0.523722 -0.015498 -0.819641
0.515887 -0.418064 0.403803
-0.275426 -0.802575 0.040816
0.121330 -0.413830 0.823935
0.506905 -0.828729 -0.000356
0.504256 0.022802 0.017098
0.515007 0.419013 -0.418375
0.100683 0.446143 0.821828
0.522872 -0.015252 -0.819227
0.522830 -0.013418 -0.817776
-0.325162 -0.429294 -0.421296
0.502726 0.020259 0.018508
0.515608 -0.418119 0.404825
0.120523 -0.417155 0.823488
0.517059 0.420671 -0.419334
0.515085 0.420893 -0.419065
0.120129 -0.414106 0.822902
-0.295984 0.806390 -0.003018
-0.295261 0.806772 -0.005202
0.115227 0.380264 -0.837305
0.516566 0.418683 -0.420272
0.554170 0.833088 -0.007059
0.108566 -0.830833 0.442536
-0.740277 -0.025384 -0.424379
0.515160 -0.417546 0.401904
0.515256 -0.416508 0.401542
-0.736026 0.006534 0.405707
0.487986 -0.399944 -0.405915
-0.295907 0.027774 0.849615
-0.293939 0.028504 0.848579
0.119490 -0.414100 0.823652
0.096998 0.814296 -0.409745
-0.325548 -0.429773 -0.419461
0.099204 0.830122 0.386285
-0.273903 -0.804794 0.040298
0.116415 0.379794 -0.837154
0.497326 0.429621 0.404649
-0.321330 -0.031152 -0.818128
-0.723740 -0.427544 -0.012855
-0.323966 -0.369296 0.416021
0.525220 -0.016399 -0.817713
0.507376 -0.826195 0.000193
0.516027 0.418704 -0.418598
-0.295197 0.028001 0.850688
0.524733 -0.015136 -0.818459
-0.733128 0.008326 0.403482
-0.294568 0.807127 -0.004162
0.504231 0.019321 0.017672
0.096222 0.815634 -0.411588
0.524848 -0.014934 -0.818501
0.552281 0.834019 -0.006669
0.485446 -0.399164 -0.407812
0.100514 0.445305 0.823597
0.513675 0.008472 0.816755
0.515835 0.419789 -0.419509
0.120443 -0.413662 0.822889
0.514074 -0.417734 0.401586
0.522775 -0.015997 -0.817287
-0.340568 0.381739 -0.417579
0.096311 0.815705 -0.411148
0.515392 0.418821 -0.418744
-0.738896 -0.025550 -0.424632
0.109322 -0.833027 0.444140
0.099835 -0.407508 -0.821586
-0.293951 0.806216 -0.002886
0.506930 -0.827760 -0.000740
0.122180 -0.414865 0.823842
0.121373 -0.415560 0.823057
0.122542 -0.416962 0.823423
0.498316 0.431160 0.404457
-0.732658 0.006979 0.405550
0.525279 -0.016066 -0.818364
-0.294093 0.807185 -0.005516
-0.739387 -0.027356 -0.424838
0.487228 -0.399131 -0.407770
-0.293450 0.806420 -0.004342
0.554643 0.832228 -0.007909
0.553712 0.833682 -0.006808
0.099927 0.829272 0.383747
0.506760 -0.828629 -0.001697
0.516401 -0.416008 0.402190
-0.738240 -0.026054 -0.426129
-0.734824 0.008873 0.406185
0.099743 0.828478 0.384142
0.514489 0.006667 0.815721
0.117223 0.378532 -0.837053
-0.322995 -0.365973 0.416003
-0.324229 -0.368476 0.417196
0.077100 -0.835746 -0.395261
-0.733981 0.005529 0.404496
0.485987 -0.399074 -0.407785
0.523986 -0.014148 -0.817963
0.515781 0.417095 -0.418477
0.122096 -0.413631 0.822597
0.516543 -0.417916 0.401379
0.550525 0.832197 -0.008271
0.513508 0.417948 -0.420298
0.100360 0.830738 0.385038
-0.723898 -0.430387 -0.012503
0.523015 -0.017259 -0.819250
0.121947 -0.414740 0.823589
-0.323004 -0.366367 0.418502
-0.275681 -0.803963 0.039477
0.551822 0.833367 -0.008581
0.098805 0.830862 0.383582
-0.740266 -0.025232 -0.423358
0.498078 0.430669 0.406756
0.100836 0.445440 0.821597
0.515473 -0.417794 0.403104
