OFF
256 0 0
-0.230859 0.666421 -0.649814
-0.229390 0.666122 -0.651528
0.688227 0.212981 -0.237436
-0.232899 0.667142 -0.649390
0.675884 -0.188369 0.233023
-0.674270 0.215245 0.232989
-0.217392 0.238655 0.679669
-0.232588 0.668806 -0.648795
-0.674519 0.671948 -0.212933
-0.218970 0.240370 0.679749
-0.678895 -0.652761 0.208039
-0.657168 -0.198477 0.658180
-0.210209 -0.663511 0.669724
-0.673032 0.216507 0.233884
0.200587 -0.675059 0.188646
0.660291 -0.220474 -0.670947
0.694767 0.223102 0.686276
-0.673071 0.217562 0.231945
0.222199 -0.208973 0.681592
-0.211463 -0.662685 0.668905
-0.231848 0.667618 -0.647100
-0.230054 0.665822 -0.647632
0.662715 -0.219069 -0.672191
-0.677840 -0.651934 0.206423
0.677383 -0.186764 0.234908
-0.229379 0.667228 -0.648220
-0.218617 0.661390 0.232729
0.219000 0.204579 -0.648811
0.694166 0.222671 0.684434
0.651342 0.624154 0.218921
-0.218253 -0.194682 -0.661565
-0.673800 0.217002 0.230733
0.677559 -0.189907 0.234827
-0.208919 -0.663862 0.669275
0.689417 0.214329 -0.237596
0.692010 0.222678 0.684493
-0.678544 -0.653433 0.207333
0.678328 -0.188681 0.234143
-0.699467 -0.222759 -0.231436
0.240929 -0.662917 -0.698919
0.262378 0.661900 0.677252
0.661933 -0.220175 -0.672651
0.673497 -0.655169 -0.238094
0.192383 0.651684 -0.226676
-0.675655 0.215979 -0.657149
0.220296 0.204100 -0.648233
0.689485 0.215127 -0.239195
0.195892 0.650685 -0.228201
-0.232436 0.666678 -0.648322
-0.220092 0.239721 0.678371
-0.678442 -0.653761 0.205658
-0.675556 0.216571 -0.655093
0.219344 0.204442 -0.649154
-0.671951 0.215866 0.231985
-0.673988 0.670396 -0.209860
-0.210364 -0.662732 0.668677
0.219186 0.205057 -0.648307
0.672820 -0.654643 -0.236377
-0.233727 -0.709259 -0.234430
-0.675138 0.217061 -0.657421
0.218349 0.203681 -0.648796
-0.675402 0.669602 -0.209878
0.241046 -0.663426 -0.698392
-0.208213 -0.663831 0.667254
0.692525 0.225094 0.684612
-0.232620 -0.709783 -0.234405
0.678310 -0.188118 0.234995
0.264308 0.664085 0.677104
0.671647 -0.654334 -0.237545
-0.699614 -0.223021 -0.232168
-0.219980 0.240766 0.677328
0.652093 0.626174 0.219783
0.219263 0.205607 -0.650059
-0.699509 -0.223908 -0.231755
0.678210 -0.188339 0.234591
-0.218296 -0.194333 -0.661601
0.218776 0.206111 -0.648394
-0.673870 0.670402 -0.210724
-0.217788 0.238193 0.678828
-0.231370 0.667807 -0.648386
-0.220000 0.240030 0.680018
0.241173 -0.664681 -0.695477
-0.218062 -0.194466 -0.659416
-0.675201 0.669699 -0.210959
-0.674096 0.670578 -0.210061
0.650824 0.624954 0.217972
-0.219227 -0.195655 -0.660886
-0.675621 0.670312 -0.210488
0.218218 0.205425 -0.648837
-0.674138 0.670474 -0.209431
-0.210119 -0.662999 0.668900
-0.231642 0.667141 -0.647425
0.662497 -0.221035 -0.671689
-0.232921 -0.707824 -0.234317
-0.219167 0.660098 0.233257
0.688983 0.211940 -0.239186
0.688722 0.214246 -0.238220
0.686259 0.214291 -0.237152
0.651084 0.625573 0.217731
0.678805 -0.189684 0.236421
0.240132 -0.662740 -0.696806
0.241507 -0.665339 -0.697175
0.688461 0.213707 -0.237421
-0.675793 0.217121 -0.655903
-0.674229 0.669727 -0.211996
-0.676522 0.671202 -0.208957
-0.231989 -0.707437 -0.232339
-0.676078 0.669043 -0.211372
-0.208314 -0.662701 0.669546
-0.673890 0.217189 -0.656523
-0.674992 0.215724 -0.655846
-0.233328 0.668407 -0.648013
0.220103 -0.211073 0.681998
0.694253 0.223436 0.686463
-0.231203 -0.705287 -0.235052
-0.231885 -0.706321 -0.231807
-0.656910 -0.199087 0.658507
-0.674111 0.670308 -0.210371
0.218899 0.204438 -0.649231
0.200044 -0.673762 0.188314
0.678230 -0.189448 0.235299
-0.232605 0.666517 -0.647956
-0.232770 0.668440 -0.648924
0.672236 -0.654525 -0.236759
0.220581 -0.210073 0.680754
0.662716 -0.220543 -0.670999
0.223215 -0.211055 0.680008
-0.658759 -0.200252 0.658962
-0.675511 0.218382 -0.657329
-0.216996 -0.196417 -0.662179
-0.678415 -0.651900 0.206871
-0.657110 -0.200249 0.658754
-0.676091 0.670608 -0.210539
-0.232209 0.666048 -0.648597
-0.680072 -0.656022 0.206467
0.678558 -0.187465 0.235924
-0.698233 -0.224450 -0.234367
0.673581 -0.655207 -0.237197
-0.231267 0.667680 -0.650235
0.663881 -0.221398 -0.671605
-0.679682 -0.651573 0.207659
-0.676675 0.216663 -0.658024
0.200235 -0.674727 0.188398
-0.232973 -0.707391 -0.234485
-0.218296 0.659440 0.231202
-0.209188 -0.662845 0.669354
0.263278 0.663617 0.675636
-0.211258 -0.662783 0.669048
-0.217917 -0.198208 -0.661016
0.222128 -0.209833 0.681341
0.689692 0.214202 -0.237015
-0.218174 0.238891 0.679460
0.652315 0.624713 0.220069
-0.218829 0.661355 0.230340
0.695046 0.223234 0.685234
-0.675561 0.217207 -0.656751
-0.675313 0.672444 -0.212425
-0.674474 0.670650 -0.212964
0.261098 0.662582 0.678944
0.651550 0.626512 0.217164
0.192712 0.651347 -0.227340
0.220308 -0.208570 0.681524
0.652972 0.625608 0.218874
-0.216767 -0.196379 -0.659342
0.200099 -0.674293 0.189880
0.693532 0.223772 0.683388
0.693999 0.220845 0.686618
0.675347 -0.654900 -0.237341
-0.216560 0.240801 0.679225
-0.678130 -0.651909 0.207053
-0.698353 -0.222044 -0.234686
-0.231945 0.667502 -0.648592
-0.217828 0.239985 0.679467
0.200480 -0.674252 0.190087
-0.232174 0.668320 -0.647879
-0.217431 0.239717 0.679636
0.199985 -0.674312 0.189920
0.678072 -0.188924 0.235021
-0.656573 -0.199222 0.659118
0.196664 0.651548 -0.227351
0.192935 0.649209 -0.228692
0.241520 -0.663677 -0.698065
0.200986 -0.674770 0.187366
0.662990 -0.219893 -0.671249
-0.672533 0.216535 0.233499
0.678048 -0.188717 0.234973
0.694327 0.223821 0.686045
0.199708 -0.673829 0.189188
-0.656498 -0.197614 0.657672
-0.217092 0.238635 0.680086
0.216900 0.205382 -0.647511
-0.219464 0.660466 0.231915
-0.673416 0.215351 0.231208
-0.218543 -0.197225 -0.660157
-0.217209 0.238813 0.680738
0.693457 0.221778 0.683871
0.674400 -0.654742 -0.239200
-0.678945 -0.653498 0.204785
0.673930 -0.653014 -0.238336
-0.673834 0.671207 -0.208914
0.673427 -0.655094 -0.237998
-0.219098 0.659581 0.231235
0.199754 -0.673033 0.188095
-0.218722 -0.194045 -0.661685
0.662632 -0.219862 -0.671819
-0.673143 0.671421 -0.212482
0.651570 0.625247 0.217921
-0.219138 0.239391 0.679948
-0.219939 0.660502 0.232025
-0.218402 -0.194806 -0.661510
0.650214 0.625507 0.217360
0.263479 0.663159 0.678338
-0.673368 0.669024 -0.211398
0.262882 0.661258 0.678191
0.673120 -0.653926 -0.237865
-0.678239 -0.653164 0.206818
-0.656303 -0.199643 0.658108
-0.675788 0.216360 -0.658302
0.199681 -0.672813 0.188461
0.194372 0.651973 -0.228400
0.679222 -0.188476 0.237033
0.241570 -0.662924 -0.696418
0.193826 0.650720 -0.227497
0.653382 0.625966 0.219382
0.678398 -0.190856 0.236198
0.662524 -0.218849 -0.669901
-0.675740 0.670439 -0.209926
0.649259 0.624790 0.220131
-0.231203 0.666334 -0.648965
0.193450 0.651097 -0.226058
-0.232670 -0.710156 -0.234091
0.194090 0.651864 -0.227286
-0.232676 -0.706963 -0.235624
-0.218583 0.660323 0.232157
-0.674692 0.672760 -0.212073
-0.657668 -0.199349 0.658709
-0.230651 0.668573 -0.648669
-0.675205 0.671444 -0.209380
-0.678946 -0.654799 0.206588
-0.216309 0.661561 0.233227
0.694749 0.223058 0.686007
0.678165 -0.187253 0.233076
0.219380 0.204927 -0.650363
-0.675621 0.670740 -0.209800
-0.209673 -0.662322 0.669687
-0.209599 -0.662953 0.670145
-0.231313 0.668004 -0.649634
0.679432 -0.189377 0.236131
0.198176 -0.674076 0.189255
-0.674442 0.215930 0.231871
0.261757 0.662734 0.678520
-0.219039 0.239682 0.680433
-0.218872 0.660408 0.233060
0.679231 -0.187580 0.233619
-0.210569 -0.660268 0.670103
-0.228621 0.665878 -0.649478
