OFF
256 0 0
0.217422 0.213760 -0.671150
-0.685975 -0.671071 0.204180
-0.220243 0.665650 0.207676
0.206044 0.696538 -0.218093
0.691276 -0.203857 -0.649665
0.246642 -0.187799 0.697015
0.652330 0.228837 -0.237233
0.665790 0.662245 0.216199
0.666423 -0.695222 -0.240485
-0.212521 0.698842 -0.669842
0.223735 -0.685762 0.231957
-0.194724 -0.652682 -0.213881
0.652384 0.227476 -0.237426
-0.236069 0.220710 0.678442
-0.219218 0.667587 0.208200
0.224267 -0.686840 0.230615
-0.196235 -0.650943 -0.213371
-0.675559 0.197386 0.229005
-0.236664 0.220524 0.677155
0.204727 0.696131 -0.215230
-0.673674 0.196541 0.227691
-0.686585 -0.672209 0.205065
-0.685936 -0.672150 0.206369
-0.220439 0.665051 0.207085
-0.220767 0.664106 0.206565
0.668307 -0.229003 0.210268
-0.659277 0.237503 -0.651035
-0.664097 0.691041 -0.194331
-0.221460 -0.667543 0.671259
-0.222428 -0.666085 0.669791
-0.231507 -0.258821 -0.663289
-0.230572 -0.257816 -0.664224
-0.711436 -0.238484 -0.241890
-0.687040 -0.669166 0.205359
0.667716 -0.227291 0.210626
0.218937 0.212708 -0.673416
0.695274 0.250459 0.673400
0.694958 0.252404 0.672619
-0.711474 -0.240374 -0.241596
-0.663220 0.692544 -0.194665
0.690840 -0.204199 -0.648993
0.695591 0.247744 0.674065
-0.663972 0.692097 -0.195418
0.236145 -0.693075 -0.681585
0.216959 0.212443 -0.673478
0.692443 -0.204983 -0.649263
-0.236123 0.221769 0.677875
0.651298 0.227001 -0.237528
-0.659620 0.237494 -0.651399
-0.219102 0.664308 0.206850
-0.215129 0.699252 -0.668932
0.664776 -0.692699 -0.242508
-0.221778 -0.668440 0.668436
-0.232063 -0.258601 -0.664392
0.690548 -0.205130 -0.650733
0.650951 0.229502 -0.238601
0.218075 0.214987 -0.673608
0.649554 0.228518 -0.237699
-0.236499 0.220897 0.677481
-0.236792 0.221093 0.675469
0.695051 0.249656 0.674768
-0.679149 -0.225289 0.699688
0.667524 -0.228399 0.212199
0.235596 -0.691410 -0.682007
-0.222920 -0.666952 0.670715
0.224130 -0.687598 0.231797
-0.194435 -0.650915 -0.216914
-0.658155 0.237837 -0.652303
-0.230842 -0.256921 -0.664087
0.217395 0.214037 -0.673575
0.234145 -0.691945 -0.681802
0.666770 -0.693026 -0.245352
-0.709836 -0.238075 -0.240759
0.697844 0.251836 0.674050
-0.235383 0.221167 0.679123
-0.710996 -0.238116 -0.243036
-0.660335 0.236631 -0.650119
0.218475 0.213360 -0.671683
0.666050 0.664253 0.215295
0.667111 -0.694671 -0.242355
-0.234910 0.220992 0.679537
0.247424 -0.189800 0.697855
0.248674 -0.189444 0.697548
0.650657 0.228392 -0.237150
-0.194271 -0.651969 -0.215137
0.666706 -0.695827 -0.242590
0.245947 -0.189246 0.695793
-0.220421 0.664646 0.207083
0.667411 -0.695010 -0.242288
0.667462 -0.228299 0.211837
-0.236140 0.221646 0.677526
-0.192130 -0.651323 -0.215631
-0.222825 -0.666290 0.670109
-0.219517 0.663560 0.207447
-0.685005 -0.670717 0.203522
0.246453 -0.189107 0.695197
-0.665271 0.692170 -0.195515
0.695045 0.249661 0.674028
-0.220758 0.665962 0.206850
0.651339 0.226471 -0.237894
-0.688163 -0.669955 0.204805
0.694845 0.250318 0.675612
-0.676999 -0.223869 0.700415
0.667067 -0.229395 0.212651
0.226739 0.646194 0.620473
0.229147 0.645439 0.618523
-0.709784 -0.237905 -0.242848
-0.237196 0.220487 0.677575
-0.214785 0.698309 -0.669052
0.246651 -0.187824 0.695977
-0.235417 0.220744 0.677990
-0.236947 0.218851 0.676388
0.665976 -0.694171 -0.243053
0.233822 -0.691911 -0.681541
-0.679497 -0.223340 0.698967
-0.675036 0.196807 0.229743
-0.710801 -0.239518 -0.241137
-0.675747 0.197950 0.230662
0.665425 0.662736 0.213816
0.227960 0.645159 0.619210
-0.687300 -0.671167 0.205159
-0.222372 -0.666136 0.668867
0.246970 -0.188693 0.697058
0.695037 0.249168 0.674513
0.694391 0.250804 0.673514
-0.677508 -0.222781 0.696702
0.246973 -0.188749 0.697659
-0.711693 -0.239521 -0.241972
-0.674818 0.196777 0.230346
-0.660959 0.235314 -0.652021
-0.675773 0.197158 0.229449
0.695869 0.250237 0.672094
0.218517 0.213271 -0.671770
0.246617 -0.188083 0.696740
0.228163 0.645835 0.618718
0.228727 0.645768 0.620781
-0.709260 -0.240400 -0.242107
-0.235006 0.220577 0.678908
0.218129 0.213386 -0.672323
-0.215432 0.697771 -0.670255
-0.661942 0.690276 -0.194227
0.225286 -0.687924 0.231803
-0.687082 -0.672103 0.204220
0.224348 -0.686418 0.231349
0.691852 -0.204421 -0.651056
0.205594 0.696975 -0.216859
0.666595 -0.693163 -0.242426
0.652000 0.227654 -0.237539
-0.235755 0.220144 0.677747
-0.236781 0.221197 0.678109
-0.658498 0.235295 -0.652233
-0.659385 0.237663 -0.650659
-0.231163 -0.259633 -0.665153
-0.665573 0.692131 -0.192977
-0.709178 -0.238624 -0.241172
0.667156 -0.228557 0.213179
-0.688189 -0.670503 0.204653
-0.710915 -0.237537 -0.240300
0.691318 -0.204911 -0.651015
0.224457 -0.687725 0.230235
-0.678518 -0.223893 0.699501
-0.232760 -0.257549 -0.665386
0.665184 -0.694481 -0.242314
0.246406 -0.187941 0.698627
-0.220313 0.667133 0.207146
-0.229623 -0.258957 -0.664146
-0.675376 0.199424 0.228495
-0.222947 -0.666257 0.671405
-0.194819 -0.650012 -0.214583
-0.664018 0.690247 -0.192909
-0.223798 -0.668940 0.670721
0.217015 0.212654 -0.673003
-0.665111 0.690818 -0.194767
-0.236553 0.220847 0.677595
0.695149 0.250015 0.672585
-0.710932 -0.238895 -0.239670
0.234809 -0.691682 -0.681664
-0.230510 -0.257240 -0.665048
-0.675600 0.198707 0.229916
-0.236837 0.219941 0.678075
0.226493 0.645808 0.618993
-0.665243 0.691928 -0.192629
0.695721 0.249881 0.673302
0.219106 0.214040 -0.672438
-0.223357 -0.666194 0.671465
-0.236777 0.219626 0.678954
0.649690 0.227768 -0.238753
0.691175 -0.205494 -0.650636
-0.213707 0.698020 -0.669812
0.664667 0.662859 0.214241
0.667311 -0.228852 0.211926
-0.658181 0.236024 -0.650074
0.667140 0.663361 0.216621
0.216153 0.212823 -0.673750
0.217901 0.214331 -0.672394
0.665512 -0.694446 -0.244804
-0.660225 0.237023 -0.650471
0.691765 -0.203147 -0.649400
0.218823 0.213653 -0.673295
-0.664681 0.693131 -0.194621
0.694365 0.250575 0.674217
0.246257 -0.188879 0.696129
0.666243 0.661936 0.215729
-0.665291 0.691631 -0.193664
0.224695 -0.688562 0.232362
-0.678932 -0.224404 0.700947
0.650489 0.228900 -0.239309
-0.674400 0.197983 0.229374
-0.685721 -0.671239 0.207554
0.695848 0.251211 0.673442
-0.665220 0.689797 -0.193609
-0.214014 0.698187 -0.668555
0.235213 -0.693797 -0.683481
-0.711801 -0.238379 -0.240788
-0.659877 0.235652 -0.650920
-0.220265 0.665825 0.207052
-0.234113 0.222035 0.679552
-0.686811 -0.670315 0.204344
-0.708826 -0.239657 -0.240364
-0.710904 -0.238426 -0.240998
-0.659875 0.235754 -0.652755
0.692482 -0.204504 -0.651332
0.697658 0.248130 0.673228
-0.193020 -0.652032 -0.215230
0.224944 -0.684987 0.231710
-0.680345 -0.223109 0.698116
-0.193936 -0.650765 -0.215203
0.665933 0.663889 0.216386
-0.679406 -0.223476 0.699476
0.219714 0.214286 -0.673084
-0.214693 0.698798 -0.669999
-0.221086 0.664866 0.210664
-0.222278 -0.667401 0.670465
-0.221533 -0.668267 0.671201
-0.674954 0.197024 0.229733
-0.216314 0.697678 -0.671585
0.245051 -0.188239 0.699119
0.666266 0.663103 0.216010
0.226284 -0.688906 0.232485
-0.687287 -0.670144 0.206093
-0.678714 -0.224528 0.698091
-0.219810 0.665715 0.207065
-0.230721 -0.258201 -0.665154
-0.664234 0.691827 -0.194893
0.667404 -0.228458 0.213430
0.666866 -0.693076 -0.243095
-0.659770 0.237461 -0.650764
-0.220158 0.664782 0.205133
-0.709088 -0.238106 -0.241614
-0.679585 -0.224280 0.698054
-0.672920 0.196801 0.230343
-0.235442 0.219483 0.678325
-0.686420 -0.670756 0.203596
-0.213374 0.698363 -0.669958
0.205021 0.697375 -0.215738
-0.218513 0.664395 0.206423
