OFF
256 0 0
-0.211315 -0.689051 0.683009
-0.211561 -0.688952 0.683686
0.686573 0.672949 0.228322
0.231293 -0.663757 -0.667190
0.689515 0.231906 0.669090
0.195136 -0.187531 0.682921
0.690078 0.232957 0.668493
-0.685939 -0.679894 0.247861
-0.697142 -0.214427 0.684384
0.678874 -0.678938 -0.220378
-0.220904 0.663814 -0.673217
0.236135 -0.648438 0.219859
-0.703803 -0.217832 -0.229637
-0.682627 0.200339 0.214624
-0.211108 -0.689410 0.684878
0.243264 0.205274 -0.664152
0.227547 -0.661959 -0.668466
-0.216481 0.266470 0.662289
-0.696654 -0.210378 0.684418
0.236716 -0.648839 0.216946
0.690147 0.231886 0.669096
0.237477 -0.649253 0.217186
0.243550 0.204062 -0.666371
-0.212890 -0.690965 0.684368
-0.688909 0.222159 -0.691803
-0.237951 0.679159 0.194509
-0.237361 0.679847 0.193702
0.678656 0.202593 -0.175458
0.194432 -0.189874 0.680374
-0.237004 0.679107 0.193414
-0.691968 0.668563 -0.245538
0.236098 -0.650060 0.218388
-0.210512 -0.690044 0.684754
-0.244963 -0.237511 -0.680635
-0.691983 0.668391 -0.246000
-0.235626 0.680136 0.192880
0.685310 0.673413 0.227687
-0.682948 0.201045 0.216316
0.237655 -0.647801 0.218762
0.689795 0.230811 0.668036
0.689113 0.671881 0.230530
-0.244924 -0.238338 -0.679940
-0.237475 0.680759 0.192983
-0.211705 -0.690723 0.685084
-0.216759 0.263708 0.664460
-0.219338 0.266155 0.660971
-0.224601 -0.674279 -0.218027
-0.688633 0.222699 -0.689182
-0.212003 -0.688606 0.684446
0.677073 -0.679871 -0.220145
0.702344 -0.240084 0.256081
-0.224324 -0.673121 -0.218021
-0.219456 0.266580 0.660794
0.232226 0.675038 0.647180
0.677142 -0.680104 -0.222456
-0.685202 -0.681963 0.245893
-0.217732 0.265292 0.662449
-0.702633 -0.220546 -0.229593
0.229504 -0.662250 -0.665136
-0.693424 0.668651 -0.246043
-0.211163 -0.690378 0.682968
-0.224489 -0.673532 -0.216199
0.678879 -0.678238 -0.220320
0.701498 -0.240972 0.255485
0.677365 -0.680607 -0.222000
-0.682882 0.199969 0.217199
-0.694051 0.669001 -0.245947
-0.243265 -0.238858 -0.680750
0.237541 -0.649606 0.220132
-0.236850 0.680467 0.193683
-0.687909 0.223415 -0.689066
0.195034 -0.189646 0.679966
0.679705 0.202135 -0.175582
-0.693961 0.667709 -0.244854
0.228334 -0.662689 -0.666105
-0.693342 0.668915 -0.244858
0.678176 0.200576 -0.174449
-0.686281 -0.682888 0.247548
-0.244904 -0.237194 -0.681612
0.228500 -0.663132 -0.666951
-0.689593 0.222392 -0.690356
0.683249 -0.248496 -0.663062
-0.225741 -0.672598 -0.218209
-0.223573 -0.672534 -0.220499
0.246949 0.699839 -0.259528
0.678014 -0.680140 -0.222608
0.682612 -0.247289 -0.663063
0.243591 0.202983 -0.663390
-0.245674 -0.235420 -0.681430
-0.223886 -0.672695 -0.218810
-0.214173 -0.691517 0.683887
0.683230 -0.247890 -0.662038
0.702368 -0.240106 0.254625
-0.684475 -0.681435 0.246597
-0.688839 0.222495 -0.689165
0.231771 0.674855 0.648358
0.247482 0.698614 -0.258594
-0.245057 -0.238901 -0.680986
0.233188 0.674052 0.647438
0.228347 -0.662938 -0.667559
0.195508 -0.188054 0.681232
0.232931 0.675029 0.648248
-0.221785 0.663064 -0.672834
0.678961 0.204070 -0.177220
-0.693802 0.669499 -0.245613
0.245072 0.202964 -0.665184
-0.211380 -0.688008 0.684451
-0.690710 0.670328 -0.246563
-0.696889 -0.213760 0.683102
0.194249 -0.187354 0.680148
-0.223514 -0.675495 -0.216812
0.678281 0.202318 -0.176137
-0.701994 -0.218781 -0.229022
-0.218393 0.266233 0.663812
-0.691765 0.669079 -0.245791
0.244803 0.697596 -0.258437
0.196166 -0.186092 0.679882
0.229368 -0.664886 -0.666538
-0.243629 -0.238084 -0.681967
0.237686 -0.647464 0.218858
0.686519 0.671651 0.228573
0.235396 -0.649196 0.219969
-0.223578 -0.674199 -0.217735
-0.224663 -0.673419 -0.218017
-0.702537 -0.218451 -0.228659
0.676441 0.201676 -0.174781
-0.691597 0.667833 -0.245482
-0.697209 -0.214026 0.686046
-0.244291 -0.238416 -0.678632
-0.685255 -0.681911 0.247931
0.244921 0.698999 -0.257551
0.703439 -0.241411 0.255875
0.691559 0.231773 0.670021
0.231128 -0.662265 -0.666939
0.232273 0.675587 0.649839
0.239210 -0.648955 0.218055
-0.681666 0.198731 0.217625
0.243524 0.204145 -0.664392
-0.694410 -0.213158 0.684838
0.678626 0.201623 -0.176458
0.227323 -0.662889 -0.667652
-0.683648 0.199803 0.218056
0.234478 0.677158 0.646058
0.231746 0.675473 0.648437
-0.225650 -0.675031 -0.218642
0.678628 -0.680179 -0.222076
-0.236156 0.679647 0.193396
0.684104 -0.247708 -0.664151
0.230372 -0.665094 -0.665252
-0.697635 -0.212646 0.686343
0.684278 -0.249020 -0.661112
0.702245 -0.241871 0.255847
0.689176 0.230700 0.669245
0.193791 -0.186438 0.680798
0.246457 0.698637 -0.257983
0.246032 0.697403 -0.256175
-0.219258 0.661666 -0.674420
-0.697772 -0.212109 0.684889
0.245232 0.699505 -0.258681
-0.693131 0.668575 -0.244539
-0.701977 -0.218855 -0.229710
0.237658 -0.650850 0.218801
-0.221205 0.660469 -0.673806
0.686305 -0.246749 -0.664742
0.703259 -0.242935 0.257004
0.690496 0.232713 0.669977
0.228328 -0.662764 -0.667181
-0.683719 0.197694 0.219702
-0.703819 -0.220410 -0.230780
-0.236902 0.681445 0.192865
0.232181 0.674525 0.648191
0.683839 -0.248109 -0.662670
-0.697882 -0.213205 0.684476
0.233006 0.674845 0.648894
0.231483 0.674097 0.647629
-0.224145 -0.674233 -0.219261
-0.686537 -0.681875 0.247012
-0.702383 -0.219375 -0.228589
-0.218520 0.265148 0.661661
-0.702256 -0.220384 -0.229970
0.244899 0.202002 -0.666124
-0.213962 -0.690212 0.683321
0.194607 -0.188721 0.678829
-0.217178 0.265613 0.663804
-0.243901 -0.237675 -0.681440
-0.696395 -0.211706 0.684230
0.233953 0.675287 0.648156
-0.221746 0.664274 -0.674193
-0.211894 -0.688706 0.685855
0.686150 0.674937 0.227893
-0.685444 -0.680432 0.246189
-0.243403 -0.238801 -0.682200
0.228051 -0.662789 -0.668365
0.237163 -0.650382 0.220281
-0.688241 0.221407 -0.690710
-0.219232 0.265548 0.662112
-0.702554 -0.218478 -0.230734
-0.696646 -0.211392 0.683572
-0.217835 0.266430 0.662003
0.683782 -0.248660 -0.662890
0.245806 0.698912 -0.257370
-0.219363 0.266569 0.662264
0.692568 0.232963 0.670648
0.194779 -0.190403 0.680820
0.702502 -0.240182 0.255135
-0.213284 -0.690750 0.685667
0.701830 -0.240452 0.253641
-0.685872 -0.680586 0.248135
0.684740 -0.248052 -0.661790
-0.695467 -0.213340 0.683943
0.690407 0.232477 0.669539
0.233249 0.676317 0.648350
0.701510 -0.242632 0.256848
-0.218167 0.264577 0.664118
-0.685685 -0.682027 0.247773
-0.225753 -0.672696 -0.218829
0.246515 0.698314 -0.258179
0.690351 0.230768 0.668714
-0.236179 0.680275 0.195036
-0.217505 0.265426 0.662679
-0.693428 0.668166 -0.246004
0.688795 0.231066 0.669875
-0.222745 0.662647 -0.672071
-0.683805 0.200631 0.217263
-0.685718 0.223247 -0.689646
-0.237862 0.681613 0.193886
-0.703147 -0.220054 -0.231433
0.229081 -0.666885 -0.666879
0.227630 -0.664453 -0.666865
-0.702123 -0.221318 -0.230052
0.246590 0.699174 -0.257934
-0.211967 -0.689540 0.685973
0.689582 0.673758 0.228310
-0.220923 0.662125 -0.676295
-0.216561 0.264521 0.661383
-0.693011 0.671003 -0.246282
0.690818 0.232426 0.669209
0.228970 -0.663102 -0.665133
0.194113 -0.190399 0.680373
0.195184 -0.188587 0.679968
0.683464 -0.248252 -0.662096
-0.688680 0.222814 -0.690614
0.245205 0.203868 -0.663932
-0.234463 0.681680 0.194688
-0.217892 0.268008 0.662887
0.232427 0.677039 0.646994
0.243541 0.203847 -0.664301
0.244359 0.698004 -0.258966
-0.210787 -0.689864 0.684123
-0.681057 0.199584 0.218535
-0.217067 0.265507 0.663607
-0.682643 0.199967 0.217169
0.680073 0.200087 -0.174250
0.232555 0.675314 0.646844
-0.695973 -0.214759 0.686005
-0.686733 -0.680179 0.246819
