OFF
256 0 0
-0.644459 0.742393 -0.183472
0.738403 -0.166766 -0.594099
-0.610559 -0.172756 0.750632
0.283012 0.286927 -0.637178
0.731020 0.272599 -0.177574
-0.160451 -0.610484 -0.131882
-0.587960 0.279414 0.274824
0.257813 -0.179565 0.753475
0.310454 -0.619149 -0.602153
-0.175157 -0.638777 0.741219
-0.615705 -0.180053 -0.170451
0.767905 -0.611344 -0.137261
-0.170330 -0.171408 -0.628664
-0.639441 -0.606889 0.278487
0.283558 0.287341 -0.636505
0.286557 0.749720 -0.181440
-0.161977 -0.612098 -0.129809
-0.644172 0.741749 -0.183487
0.738587 -0.165986 -0.594421
-0.611281 -0.173209 0.749782
0.737813 -0.165465 -0.593004
0.258792 -0.177501 0.750790
0.259841 -0.179285 0.752293
0.748932 -0.137931 0.332397
-0.172684 -0.174088 -0.631114
-0.166979 0.746616 0.265624
0.770586 -0.612228 -0.137054
-0.595175 0.286452 -0.611308
0.262228 -0.178762 0.752887
0.281899 0.285920 -0.635400
-0.588757 0.280650 0.276011
0.285239 0.304809 0.264594
-0.638508 -0.606416 0.277393
0.303825 -0.592115 0.267058
0.747955 -0.140419 0.331100
0.282217 0.286669 -0.636203
0.258704 -0.177873 0.753254
-0.154817 0.280787 0.737458
-0.645381 0.741767 -0.182089
-0.171401 -0.171459 -0.629775
-0.610435 -0.172751 0.751083
0.285585 0.747021 -0.181312
-0.156122 0.282170 0.736670
-0.587346 0.279561 0.278270
-0.169992 -0.173807 -0.627323
-0.611071 -0.172709 0.751404
0.282268 0.286065 -0.638411
0.310652 -0.619587 -0.601058
0.311408 -0.618163 -0.601091
-0.615081 -0.178183 -0.170128
-0.163816 -0.611346 -0.131834
-0.589022 0.278357 0.277769
0.738759 -0.166685 -0.594588
-0.154956 0.281283 0.736473
0.732389 0.270477 -0.175200
-0.165308 0.745757 0.264673
0.768681 -0.611155 -0.137750
0.749389 -0.140954 0.330881
-0.161724 -0.610896 -0.131764
0.732076 0.270723 -0.174475
-0.594732 0.282906 -0.611583
0.286377 0.749195 -0.185262
-0.192389 0.738787 -0.613454
-0.645232 0.741701 -0.183222
0.285573 0.305843 0.265258
0.302064 -0.590133 0.269302
0.285007 0.306811 0.266802
0.738703 -0.166172 -0.594550
0.749148 -0.138591 0.331247
-0.608244 -0.171402 0.752674
0.766904 -0.611594 -0.137867
-0.156274 0.279951 0.736555
-0.594955 0.288252 -0.611409
0.750383 -0.138388 0.331880
-0.589148 0.277833 0.277717
-0.607683 -0.173304 0.751138
-0.638751 -0.606382 0.276927
-0.596423 0.286361 -0.611041
0.741625 -0.165271 -0.594725
-0.596463 0.285597 -0.612161
-0.189861 0.737516 -0.614277
-0.165820 0.747240 0.265516
-0.612422 -0.171376 0.750916
0.768080 -0.612417 -0.138704
-0.644074 0.741770 -0.181986
0.283124 0.287600 -0.636438
0.750845 -0.139414 0.331022
0.748927 -0.140522 0.331558
-0.160716 -0.612320 -0.131393
0.740850 -0.166692 -0.593494
0.738398 -0.165241 -0.595008
-0.610182 -0.172894 0.750544
-0.164523 0.746938 0.262862
0.733272 0.273506 -0.176039
0.281752 0.287046 -0.637775
-0.164441 0.745701 0.264491
-0.171698 -0.172952 -0.629132
0.738795 -0.167019 -0.593929
0.284641 0.305449 0.266287
-0.595515 0.285294 -0.611317
0.731592 0.271037 -0.176974
-0.588792 0.279047 0.274170
0.750067 -0.138747 0.332167
-0.589015 0.281034 0.275318
-0.640308 -0.608230 0.277809
-0.163903 0.744688 0.263276
-0.587072 0.279496 0.274572
-0.171166 -0.173586 -0.628257
-0.614741 -0.180150 -0.169684
0.769856 -0.610706 -0.138435
-0.644648 0.740542 -0.182037
0.737377 -0.166599 -0.594976
-0.590056 0.278823 0.274600
-0.157458 0.279889 0.736772
-0.167510 0.746105 0.263548
0.738354 -0.165853 -0.594363
-0.165525 0.746823 0.263415
0.258484 -0.179635 0.752523
0.281929 0.285938 -0.638549
0.302523 -0.590650 0.267221
0.732279 0.271410 -0.176067
-0.176146 -0.634324 0.742225
-0.613981 -0.179644 -0.170092
-0.155000 0.281079 0.736238
0.303333 -0.590266 0.269619
-0.644695 0.742230 -0.181525
-0.588948 0.279644 0.275938
-0.155672 0.281406 0.738227
0.740404 -0.166029 -0.595249
0.738135 -0.165936 -0.594270
-0.594961 0.284908 -0.612067
-0.168831 -0.174576 -0.628926
-0.587165 0.280948 0.277924
0.286751 0.748018 -0.182141
-0.588873 0.280194 0.276408
-0.162199 -0.609722 -0.130765
0.310282 -0.618120 -0.601527
-0.162538 -0.612169 -0.133653
0.285222 0.304623 0.267057
0.303122 -0.589506 0.266535
0.748537 -0.138803 0.330737
-0.191565 0.738842 -0.616080
-0.191690 0.738218 -0.614014
-0.163517 0.748344 0.263040
-0.644258 0.741115 -0.182065
0.749599 -0.137593 0.330071
-0.170713 -0.172804 -0.629914
-0.589210 0.279393 0.276182
-0.191470 0.736510 -0.615174
-0.639940 -0.608336 0.277184
0.311080 -0.619139 -0.600102
0.732355 0.269634 -0.176796
0.282341 0.287530 -0.636944
-0.174522 -0.635683 0.742695
0.749013 -0.138710 0.331697
-0.587179 0.279420 0.277067
-0.176273 -0.636234 0.740169
0.303633 -0.591706 0.268647
0.285253 0.304017 0.266052
-0.161699 -0.612770 -0.131813
0.283066 0.286278 -0.637388
-0.589077 0.279007 0.277539
-0.588804 0.280193 0.277682
0.285895 0.303749 0.265927
-0.595929 0.285157 -0.611398
0.749033 -0.138819 0.331142
0.770668 -0.610204 -0.139009
0.259632 -0.178956 0.751417
-0.590257 0.278508 0.278152
-0.610228 -0.171751 0.750452
0.285548 0.305479 0.267294
-0.154335 0.281678 0.736644
0.257283 -0.177978 0.754489
0.311214 -0.617416 -0.598064
-0.595807 0.285150 -0.611355
0.303336 -0.589578 0.270358
0.284450 0.749400 -0.183398
0.767336 -0.612099 -0.139623
0.285981 0.305816 0.266958
-0.611625 -0.172882 0.750636
-0.612738 -0.180436 -0.170102
0.285072 0.304530 0.265638
-0.639554 -0.607894 0.278083
-0.614778 -0.180488 -0.171572
-0.156110 0.279383 0.735543
0.284078 0.307416 0.263739
-0.609647 -0.172931 0.750442
-0.639901 -0.606326 0.276892
-0.155691 0.281273 0.735466
0.737709 -0.165834 -0.595257
0.285387 0.306314 0.265447
0.282515 0.286338 -0.637621
0.731331 0.272462 -0.176255
0.284056 0.304259 0.266439
0.731198 0.270976 -0.175416
-0.615213 -0.178421 -0.169820
-0.589260 0.281600 0.276155
0.284607 0.748008 -0.181912
0.738439 -0.164881 -0.594565
-0.171534 -0.171307 -0.628759
-0.175232 -0.638609 0.739922
-0.608808 -0.173590 0.750493
0.305554 -0.592346 0.269969
-0.639098 -0.606676 0.276652
0.285462 0.748831 -0.182509
0.284830 0.305252 0.266026
0.281379 0.285631 -0.637203
-0.190597 0.738818 -0.614146
0.258281 -0.177681 0.752960
-0.640503 -0.607715 0.276858
0.310448 -0.617136 -0.601455
0.287556 0.747728 -0.180017
0.303020 -0.590745 0.268698
-0.171186 -0.172921 -0.630313
0.258764 -0.179386 0.754583
0.283560 0.286815 -0.637317
-0.170374 -0.171384 -0.628129
-0.164326 0.746312 0.264740
-0.640236 -0.608675 0.278038
0.731331 0.270912 -0.177044
0.304042 -0.590247 0.268985
-0.165663 0.748179 0.265414
0.304038 -0.589720 0.268077
0.308869 -0.618207 -0.602626
0.281908 0.286215 -0.638128
0.258769 -0.178597 0.754413
-0.168529 -0.172626 -0.628422
0.732412 0.270059 -0.175412
-0.646781 0.740372 -0.180550
-0.154140 0.279806 0.737837
0.258247 -0.178293 0.751349
0.286944 0.305012 0.267006
0.284554 0.305310 0.266411
-0.646163 0.741042 -0.181772
0.769691 -0.610244 -0.135504
0.260603 -0.177366 0.753302
0.310718 -0.619587 -0.601128
-0.156274 0.281649 0.737722
0.259739 -0.176998 0.752260
-0.596241 0.285655 -0.608681
-0.614151 -0.177479 -0.168883
0.304430 -0.589974 0.269093
-0.163888 0.747624 0.263642
-0.590193 0.280255 0.276920
0.284530 0.305383 0.264044
0.310046 -0.617053 -0.600357
-0.645249 0.743884 -0.182049
0.281893 0.285423 -0.634359
-0.170833 -0.172402 -0.629240
0.312082 -0.618213 -0.601867
0.302409 -0.589048 0.267552
0.728985 0.269984 -0.173612
-0.646063 0.741461 -0.182944
0.260033 -0.176123 0.752738
0.285174 0.305182 0.265389
-0.161570 -0.611766 -0.132285
