OFF
256 0 0
0.614960 0.642080 -0.268474
-0.748926 0.159590 0.579525
-0.742190 0.170447 -0.271505
0.164143 0.626872 0.154073
-0.288364 0.602736 -0.265096
-0.307464 0.613960 0.613779
0.195147 0.185331 0.607677
0.162810 0.627603 0.154520
-0.265642 -0.270532 -0.235509
0.175804 -0.286731 -0.731387
-0.747668 0.161831 0.580141
0.192664 0.186137 0.607885
-0.749489 0.162667 0.580119
-0.270151 0.154638 -0.764441
-0.289545 0.602994 -0.262871
-0.271149 0.155850 -0.765011
-0.308082 0.613248 0.614824
-0.294762 -0.287201 0.570557
0.624934 0.173594 0.161005
0.616912 -0.724083 0.151032
-0.262464 -0.269391 -0.236784
-0.301820 -0.784256 0.173456
-0.262560 -0.269615 -0.237898
0.614465 0.642262 -0.269220
0.169322 0.637688 -0.709102
-0.296591 -0.286691 0.573159
0.164496 0.629202 0.156577
0.162806 -0.756849 0.593750
-0.264090 -0.270984 -0.237381
-0.302029 -0.783135 0.174448
-0.308186 0.614401 0.617425
-0.301681 -0.784096 0.173868
0.595502 -0.282960 -0.271894
0.595967 -0.282252 -0.270793
-0.309353 0.615228 0.612994
0.178939 -0.765630 -0.292769
0.174890 -0.286452 -0.730368
-0.296123 -0.285339 0.570951
0.180082 -0.765710 -0.291084
-0.748237 0.160990 0.578908
-0.287476 0.604678 -0.262613
-0.294853 -0.285951 0.569617
-0.264459 -0.270713 -0.238978
-0.301904 -0.781306 0.174249
-0.757045 0.634782 0.154343
0.618825 -0.725046 0.151765
0.162318 -0.755859 0.594818
-0.756542 0.635301 0.155552
-0.758777 -0.329531 0.141627
0.164236 0.628637 0.155884
-0.756874 0.634250 0.156850
0.165890 0.627262 0.153759
-0.300033 -0.783377 0.173271
0.625003 0.174131 0.163449
-0.749380 0.161279 0.580537
0.624654 0.172559 0.161884
-0.271930 0.154247 -0.765705
0.160341 -0.757607 0.594150
0.618360 -0.723468 0.149869
-0.270174 0.153927 -0.765528
0.178192 -0.766760 -0.291894
0.164237 0.628878 0.155117
0.195646 0.183817 0.607268
-0.265797 -0.269880 -0.238566
0.643043 -0.291772 0.625874
0.166127 0.628373 0.155630
0.641712 -0.291088 0.626878
-0.742189 0.170242 -0.270691
-0.308702 0.616407 0.615610
-0.761290 -0.332153 0.143283
0.164119 -0.757488 0.593909
-0.308768 0.613774 0.616154
-0.741984 0.169936 -0.269282
-0.761150 -0.329943 0.142355
0.163099 0.627757 0.156223
-0.271860 0.154395 -0.765289
-0.264671 -0.270466 -0.237422
-0.300619 -0.783412 0.174622
-0.309442 0.613589 0.616048
0.174171 -0.285461 -0.730439
-0.758084 0.634327 0.155063
0.600113 0.167999 -0.723767
0.168951 0.639471 -0.709874
0.616282 0.643913 -0.269018
0.178326 -0.764633 -0.292955
-0.301382 -0.783759 0.174887
-0.761159 -0.328279 0.144032
0.615169 0.643743 -0.269175
-0.302290 -0.781944 0.172641
-0.301615 -0.783055 0.173588
0.601820 0.169118 -0.724890
-0.270908 0.155621 -0.764659
-0.272095 0.154295 -0.766496
0.175641 -0.286604 -0.730181
-0.269799 0.155812 -0.763116
-0.286278 0.604107 -0.262108
-0.748166 0.163757 0.580160
0.642082 -0.290081 0.624388
0.624384 0.172563 0.162580
0.179099 -0.765594 -0.292448
-0.303192 -0.783892 0.174776
0.168523 0.639111 -0.711156
0.196222 0.185862 0.607437
-0.269500 0.154604 -0.764087
0.194911 0.184092 0.606273
0.643781 -0.289118 0.624421
0.178933 -0.766056 -0.292751
0.616031 0.643876 -0.269080
0.602413 0.169575 -0.722508
0.641225 -0.290811 0.625302
-0.307617 0.616598 0.613456
0.600374 0.171091 -0.724688
-0.302334 -0.783522 0.174245
0.164356 0.627783 0.155300
0.163581 -0.757001 0.595037
-0.758110 0.635679 0.154089
0.598725 0.168443 -0.726697
0.594242 -0.280988 -0.272838
-0.748855 0.161887 0.581081
0.163046 -0.755722 0.593449
0.623292 0.172536 0.163011
0.193573 0.182715 0.609334
0.624949 0.172303 0.162918
0.595171 -0.281074 -0.271204
-0.287382 0.604328 -0.264047
0.164289 0.629080 0.156514
0.162562 -0.758442 0.596139
-0.741485 0.170933 -0.270118
-0.761488 -0.328804 0.142128
0.174476 -0.284334 -0.731629
-0.747233 0.161148 0.579525
0.192991 0.186991 0.607691
-0.761796 -0.332354 0.141258
-0.756842 0.633352 0.154423
0.163703 -0.758253 0.593539
-0.760906 -0.329417 0.143180
-0.740354 0.170362 -0.268682
0.595738 -0.281787 -0.271924
0.162772 -0.757513 0.593134
0.180472 -0.765892 -0.293895
-0.760361 -0.332022 0.144087
0.642746 -0.290291 0.624583
0.179129 -0.765159 -0.292074
0.175273 -0.285520 -0.732488
-0.748566 0.160881 0.581583
-0.296934 -0.285996 0.572616
0.625846 0.172612 0.163347
0.615214 0.643244 -0.268267
-0.757587 0.633836 0.154835
-0.757340 0.636099 0.158021
-0.301577 -0.784469 0.172287
-0.757530 0.634512 0.154336
0.170809 0.638808 -0.709118
-0.268532 0.152853 -0.764377
-0.301906 -0.783124 0.175018
-0.264815 -0.271014 -0.238067
0.180474 -0.764215 -0.291853
0.623852 0.175287 0.160593
0.601396 0.168911 -0.724977
0.169168 0.639271 -0.710610
0.641687 -0.291946 0.625097
-0.288631 0.604002 -0.264022
0.643985 -0.290582 0.627656
-0.760104 -0.330437 0.143011
-0.762443 -0.331062 0.145179
0.641151 -0.290694 0.626084
0.193879 0.184720 0.608275
-0.757937 0.636211 0.155957
-0.285987 0.602901 -0.264893
0.600166 0.169322 -0.725122
-0.748405 0.162246 0.581763
0.195124 0.184376 0.606733
-0.761536 -0.328299 0.144873
-0.748995 0.161419 0.580051
0.599865 0.169992 -0.723726
0.169544 0.637463 -0.709094
0.174161 -0.285731 -0.731003
0.595379 -0.282899 -0.273943
-0.263659 -0.269439 -0.238801
-0.288910 0.604666 -0.264424
-0.270054 0.153351 -0.764455
-0.761854 -0.329757 0.142883
0.173765 -0.284351 -0.730480
-0.308813 0.614627 0.615933
-0.302340 -0.782770 0.171994
-0.749091 0.161207 0.579498
-0.263897 -0.268544 -0.238244
-0.307046 0.613300 0.615855
-0.741896 0.169997 -0.269019
0.172928 -0.284083 -0.731664
-0.296848 -0.285585 0.571732
0.193105 0.187381 0.608525
0.613416 0.642529 -0.270285
0.195465 0.186080 0.605166
-0.288907 0.602688 -0.264593
-0.296095 -0.286683 0.573535
-0.263710 -0.270875 -0.238033
0.164453 -0.756846 0.593422
0.192929 0.184277 0.607998
-0.757577 0.634504 0.154377
0.168448 0.637995 -0.709162
-0.302783 -0.784004 0.173289
-0.310878 0.614261 0.614277
-0.307994 0.614881 0.615298
0.601008 0.169518 -0.725028
-0.754365 0.633898 0.155683
0.615549 0.642282 -0.268798
0.623717 0.174461 0.162468
0.161887 -0.757927 0.594369
0.174567 -0.285802 -0.729806
0.601375 0.168121 -0.723899
-0.263546 -0.269228 -0.238920
-0.288549 0.600963 -0.262724
0.169841 0.637234 -0.709221
0.194566 0.184331 0.608281
0.177982 -0.766877 -0.291117
-0.749100 0.161173 0.579072
0.616427 0.643710 -0.268648
-0.750098 0.160833 0.580315
0.615069 0.643200 -0.269241
0.162532 -0.759107 0.593723
0.173131 -0.286441 -0.731155
-0.747688 0.163488 0.578936
0.624250 0.172632 0.160800
-0.265347 -0.269372 -0.236592
0.623635 0.172705 0.162237
0.642041 -0.289505 0.625765
-0.273280 0.153269 -0.764002
-0.760384 -0.330163 0.144858
0.615076 0.642930 -0.268940
-0.740759 0.168324 -0.271412
-0.270792 0.153935 -0.765331
0.618189 -0.723880 0.151709
-0.309218 0.613727 0.615607
0.595988 -0.283238 -0.270943
-0.288813 0.605091 -0.265865
-0.296029 -0.285150 0.570109
0.599885 0.169472 -0.723606
-0.287069 0.602483 -0.264038
-0.307060 0.614740 0.614002
0.168344 0.640220 -0.710115
-0.306672 0.614339 0.614875
-0.748024 0.161843 0.582744
-0.742099 0.168823 -0.271407
0.593835 -0.280673 -0.271857
-0.286167 0.603461 -0.262636
0.164073 0.627440 0.156818
0.614841 0.643446 -0.269500
-0.741543 0.168770 -0.270079
-0.301805 -0.782982 0.173386
0.615369 0.642790 -0.268863
-0.749673 0.161307 0.580423
0.594699 -0.281703 -0.274037
-0.296798 -0.285294 0.572767
-0.262799 -0.270979 -0.237886
0.619005 -0.722636 0.147337
