OFF
256 0 0
0.646523 -0.729936 0.185653
0.636961 -0.258263 0.650625
-0.789840 0.155479 -0.283776
-0.302930 0.135893 -0.745232
-0.758882 0.630683 0.168024
0.173535 -0.725002 0.600803
0.175746 0.623532 0.124079
0.177014 0.621830 0.123276
-0.301221 0.136046 -0.744370
-0.738429 0.168312 0.619401
-0.270705 -0.252648 0.605110
-0.791512 0.154695 -0.282442
-0.306510 -0.303491 -0.258556
-0.300671 0.137022 -0.743818
0.617903 0.160656 -0.767842
0.174575 0.621914 0.124650
-0.305554 -0.303849 -0.256642
0.154355 -0.770427 -0.304313
0.170926 -0.724319 0.601668
0.176856 0.625238 0.123078
0.602815 0.610775 -0.320673
0.197976 0.192164 0.633472
0.197305 0.192705 0.631958
-0.271986 -0.254052 0.607346
-0.759051 0.629458 0.167749
-0.768349 -0.294965 0.193733
-0.278584 0.605066 0.618431
-0.296789 -0.756933 0.160933
-0.760860 0.628874 0.170723
0.603621 0.612838 -0.321670
0.625821 -0.309647 -0.281567
0.185365 -0.292755 -0.742926
-0.791151 0.155199 -0.284317
-0.760395 0.627938 0.167597
-0.792148 0.153804 -0.282388
-0.299123 -0.757238 0.163570
0.604474 0.611419 -0.320220
-0.742000 0.167527 0.620164
-0.278439 0.603948 0.619057
0.619306 0.161634 -0.764874
0.175047 0.623209 0.124564
0.602363 0.609444 -0.320319
0.644402 -0.729978 0.184707
0.603854 0.610573 -0.320868
-0.739565 0.166248 0.620374
-0.789544 0.156132 -0.282390
-0.760291 0.629778 0.169741
0.620561 0.161006 -0.766370
0.173994 0.624272 0.122554
0.640065 0.193298 0.166523
0.641072 0.192003 0.165946
-0.759898 0.629668 0.165802
-0.758070 0.628852 0.168164
0.626382 -0.309931 -0.282382
-0.296759 0.575754 -0.281744
0.195416 0.193014 0.633303
0.644914 -0.731076 0.183272
0.646128 -0.728975 0.182418
-0.306726 -0.304848 -0.257643
0.620706 0.161395 -0.766266
0.181977 -0.293599 -0.743079
0.171969 -0.724814 0.600910
0.153431 -0.770002 -0.303434
-0.295962 0.573394 -0.282478
0.638916 0.192252 0.165597
-0.296527 0.575104 -0.283494
-0.767693 -0.292877 0.194038
-0.300731 -0.758325 0.162616
0.638243 -0.257942 0.650265
0.181977 -0.292591 -0.743451
-0.294718 0.575242 -0.281364
0.641690 0.194830 0.165550
-0.790532 0.154541 -0.282296
-0.299761 -0.758653 0.160396
0.636841 -0.260862 0.651727
0.644873 -0.730829 0.184653
-0.759417 0.628493 0.167275
0.637260 -0.258391 0.650752
0.645005 -0.730143 0.185043
-0.740218 0.166155 0.619471
-0.791390 0.156038 -0.282075
0.638813 0.193566 0.167726
-0.790793 0.154096 -0.283790
0.155155 -0.770955 -0.304777
0.184253 -0.294387 -0.742951
0.625070 -0.309487 -0.282810
-0.791686 0.154669 -0.284424
-0.302213 0.138248 -0.746460
0.645225 -0.732251 0.182167
-0.741071 0.165383 0.620282
-0.270974 -0.253468 0.608487
0.182390 -0.294182 -0.743248
0.645822 -0.730891 0.184024
0.604415 0.608862 -0.321609
-0.791387 0.155890 -0.281936
0.197807 0.192202 0.634178
0.620290 0.162590 -0.767111
-0.305903 -0.300878 -0.256216
0.645647 -0.730729 0.183742
-0.277494 0.604812 0.617119
-0.271732 -0.252584 0.606995
0.155074 -0.769460 -0.304336
0.625529 -0.309759 -0.281359
-0.767606 -0.294426 0.193186
-0.296591 0.575010 -0.283770
0.638821 -0.260583 0.651818
-0.768499 -0.293982 0.193708
-0.277359 0.605509 0.619281
0.619520 0.162815 -0.764430
-0.767426 -0.293770 0.192130
-0.307147 -0.304320 -0.258392
0.625813 -0.311074 -0.281457
-0.739418 0.168096 0.619293
0.197266 0.191970 0.634001
-0.296636 0.575829 -0.282601
0.626532 -0.308882 -0.283349
-0.299318 -0.756588 0.160405
0.183121 -0.292801 -0.742273
-0.270257 -0.252958 0.607121
-0.307265 -0.304334 -0.259704
0.603635 0.612854 -0.321229
-0.301111 0.137404 -0.745899
0.603902 0.611134 -0.322016
-0.299940 -0.759166 0.161038
0.638862 -0.259822 0.652307
0.154007 -0.772260 -0.305440
-0.273005 -0.255267 0.606210
-0.277756 0.604439 0.619097
-0.294774 0.575592 -0.283360
-0.306762 -0.304087 -0.259890
0.619109 0.161113 -0.768123
-0.276865 0.603238 0.617002
0.603713 0.610296 -0.322241
0.641308 0.193848 0.165923
-0.767981 -0.294500 0.193826
-0.306459 -0.304213 -0.258179
0.625030 -0.309898 -0.281791
0.605272 0.611211 -0.323320
-0.306267 -0.305038 -0.259106
-0.739331 0.166740 0.619726
-0.277757 0.606692 0.620798
-0.275597 0.604338 0.619873
0.196941 0.191644 0.631813
-0.767246 -0.294238 0.191048
-0.272317 -0.254420 0.605700
0.176880 0.622266 0.123877
-0.278271 0.607085 0.619495
0.176523 0.622571 0.125306
0.150081 0.649961 -0.740407
-0.766784 -0.293400 0.192630
-0.756974 0.629054 0.167528
0.171075 -0.727057 0.603550
0.605456 0.610851 -0.321726
0.152442 0.647700 -0.741070
-0.298100 -0.757299 0.161085
-0.758216 0.628116 0.166469
0.151049 0.648283 -0.741388
0.183919 -0.294832 -0.742067
0.620694 0.159736 -0.767139
0.636241 -0.259188 0.651357
-0.306544 -0.304308 -0.257948
0.171532 -0.724886 0.601380
-0.300749 0.137643 -0.744357
-0.737456 0.164316 0.621511
-0.760125 0.630197 0.165370
0.154288 -0.771395 -0.306810
0.196007 0.192905 0.632734
0.183586 -0.292773 -0.741179
-0.305375 -0.303228 -0.257844
-0.766881 -0.292852 0.192786
0.640487 0.195846 0.166234
0.623916 -0.312008 -0.283507
0.636491 -0.260306 0.650824
-0.758761 0.630167 0.166766
-0.299455 -0.758085 0.161665
-0.271368 -0.253628 0.607366
0.644526 -0.729745 0.184752
0.155939 -0.770348 -0.304332
0.152053 0.649656 -0.740685
0.172755 -0.723968 0.602822
0.155703 -0.770885 -0.304761
-0.758089 0.630208 0.168003
0.176347 0.622292 0.125156
0.182156 -0.292321 -0.743101
0.603410 0.611077 -0.322292
0.185259 -0.292973 -0.741595
-0.295602 0.574146 -0.282774
0.622134 0.160423 -0.764316
-0.269377 -0.254705 0.607023
0.157249 -0.769708 -0.305307
-0.790980 0.156952 -0.282742
0.197149 0.191604 0.632474
0.603675 0.609884 -0.319682
-0.296462 0.575338 -0.282994
-0.301338 0.138002 -0.744727
0.637618 -0.258985 0.650903
0.643515 -0.730426 0.183743
0.196838 0.192681 0.632989
0.646193 -0.728853 0.183302
-0.271038 -0.253395 0.606786
0.603641 0.609850 -0.321470
0.646381 -0.730644 0.184498
0.172471 -0.725202 0.599167
0.619403 0.162620 -0.765812
-0.738722 0.165663 0.620418
0.644904 -0.732552 0.183998
0.625737 -0.310266 -0.281234
0.637992 -0.260186 0.651174
-0.790814 0.155455 -0.283143
-0.759867 0.628458 0.168933
0.637417 -0.257024 0.649474
0.182891 -0.294340 -0.743454
-0.302643 0.138991 -0.743439
0.639528 0.194842 0.167075
-0.300952 0.138526 -0.743389
0.640675 0.192530 0.165631
-0.739103 0.167726 0.619876
0.622932 -0.309215 -0.282969
-0.759808 0.630674 0.168113
-0.295415 0.575842 -0.284368
-0.758814 0.629198 0.168676
0.176255 0.623743 0.125158
0.643911 -0.729186 0.184605
0.171047 -0.724194 0.601667
0.173397 -0.724641 0.601722
0.175785 0.624005 0.124859
-0.788291 0.154890 -0.282133
0.157306 -0.770001 -0.303127
-0.307378 -0.302983 -0.259843
0.602283 0.610397 -0.320630
0.619710 0.160384 -0.766967
0.182983 -0.291610 -0.742426
0.620957 0.161045 -0.765031
0.642005 0.192889 0.165617
0.171616 -0.723894 0.601577
0.619362 0.159083 -0.766797
-0.759382 0.630692 0.167144
0.196590 0.192962 0.632713
0.173223 -0.723297 0.599685
-0.789889 0.155794 -0.283520
0.151561 0.647392 -0.741121
-0.304647 -0.303301 -0.257126
-0.760564 0.628627 0.167845
0.620113 0.163143 -0.766636
-0.760213 0.629973 0.165846
-0.302090 0.138278 -0.744352
0.183553 -0.293602 -0.742852
-0.306105 -0.304010 -0.259771
0.604301 0.610725 -0.322216
-0.278202 0.603733 0.619335
-0.306670 -0.301813 -0.259910
-0.279173 0.605072 0.618390
0.183425 -0.292575 -0.742762
0.198083 0.192377 0.631596
-0.791003 0.156626 -0.282297
0.636678 -0.260202 0.652494
