OFF
256 0 0
0.160730 -0.734781 0.622248
-0.266883 -0.260234 -0.268210
0.623083 -0.285841 -0.255264
0.162020 0.219308 0.613768
0.167371 -0.718813 -0.251531
-0.298651 0.615423 0.596315
0.188005 0.621140 0.136908
0.623050 -0.284456 -0.255344
-0.754168 0.158954 0.594052
0.627354 -0.307329 0.662045
-0.266702 -0.260570 -0.269206
-0.753131 0.157376 0.594355
0.161805 0.218196 0.613752
0.622001 -0.283150 -0.254814
0.167949 -0.718642 -0.250654
0.644554 0.605094 -0.297568
-0.288922 -0.747055 0.172123
0.632071 0.156066 -0.689569
-0.295722 -0.276117 0.603108
0.159175 -0.732796 0.622301
-0.299353 -0.278600 0.602084
0.189894 0.618263 -0.763243
-0.289014 -0.747522 0.171911
0.646053 0.605973 -0.295720
0.645068 0.606148 -0.295922
-0.763012 0.148667 -0.305768
0.607179 -0.750125 0.197216
0.607916 -0.749354 0.195859
-0.767577 0.602664 0.142560
0.160378 -0.733458 0.620186
0.606805 -0.749431 0.195754
-0.297205 -0.277968 0.603617
0.621624 -0.285152 -0.254128
0.631922 0.157993 -0.686537
0.165971 -0.296417 -0.744185
0.635599 0.160076 0.162251
-0.299271 0.617991 0.595068
-0.767100 0.605359 0.140588
0.168138 -0.719540 -0.252359
-0.766492 0.603637 0.140351
0.645031 0.604831 -0.295765
0.637565 0.162380 0.162819
-0.295129 0.141476 -0.771974
0.632008 0.156794 -0.686769
0.188262 0.623857 0.136196
0.188101 0.621043 0.134959
-0.780082 -0.274474 0.151045
0.188955 0.620391 0.135392
-0.288707 -0.747431 0.170925
-0.291205 0.143042 -0.771584
-0.762832 0.149537 -0.304658
0.164362 0.218390 0.612130
-0.287771 -0.744914 0.172047
0.167988 -0.719513 -0.252775
0.633301 0.157425 -0.687721
0.637410 0.161056 0.163249
-0.296905 -0.276294 0.603237
-0.292948 0.141956 -0.773197
-0.766439 0.604374 0.140332
-0.296325 0.597875 -0.305321
-0.289917 -0.747474 0.172871
-0.296875 0.598671 -0.304463
-0.289129 -0.746794 0.173653
0.628503 -0.304778 0.663472
0.632225 0.157699 -0.687775
-0.291357 0.143845 -0.772241
0.193146 0.617229 -0.762433
-0.299695 0.615577 0.596705
0.166066 -0.297776 -0.746342
0.608083 -0.750057 0.195664
-0.295790 0.596361 -0.303418
0.637276 0.162401 0.161764
0.637496 0.162800 0.162389
-0.267512 -0.260498 -0.266515
0.629651 -0.305129 0.661983
0.160151 -0.732540 0.621777
-0.297475 -0.278235 0.603720
-0.767042 0.604369 0.143289
0.629714 -0.305014 0.662736
-0.752659 0.156968 0.595185
0.167451 -0.297854 -0.743427
0.627551 -0.306690 0.661139
-0.294077 0.143146 -0.771682
-0.755536 0.160086 0.594494
0.166033 -0.296089 -0.746113
0.628236 -0.306472 0.663231
-0.289919 -0.746607 0.169999
-0.295680 0.597188 -0.305468
0.165047 -0.297947 -0.745699
-0.750633 0.158703 0.593327
0.623176 -0.286094 -0.254502
-0.291948 0.141547 -0.771403
0.187503 0.618224 -0.760413
-0.295212 0.598889 -0.303673
-0.293843 0.143083 -0.772576
0.187181 0.622025 0.136986
-0.752777 0.158637 0.593895
0.643840 0.605805 -0.294652
0.158871 -0.733305 0.621023
0.609168 -0.749792 0.196105
0.167320 -0.720983 -0.253377
-0.288605 -0.746106 0.172269
-0.762405 0.150742 -0.304851
-0.754505 0.159197 0.593257
0.635076 0.164345 0.162727
0.621622 -0.283847 -0.255046
0.608398 -0.750497 0.198097
-0.296554 0.615222 0.596054
-0.767697 0.604904 0.142996
0.160468 0.219042 0.612839
0.608365 -0.747566 0.196836
0.628745 -0.307404 0.663331
0.160225 -0.734062 0.620377
0.607498 -0.749973 0.195656
0.157827 -0.735970 0.622520
0.190766 0.617420 -0.761899
0.645279 0.607002 -0.296403
-0.289219 -0.747543 0.172561
0.188168 0.622684 0.136238
-0.289408 -0.749055 0.170963
-0.295939 0.597696 -0.304858
-0.751384 0.158651 0.595320
0.166372 -0.719844 -0.252445
0.188218 0.621863 0.136688
0.642387 0.606696 -0.296663
-0.301151 0.616771 0.596288
-0.290110 -0.747807 0.173506
0.609289 -0.749231 0.196350
0.645344 0.605387 -0.295175
-0.295221 0.598053 -0.304455
-0.266653 -0.261384 -0.269274
0.161643 -0.733548 0.623218
-0.289035 -0.746543 0.172092
0.166565 -0.297875 -0.746594
0.167070 -0.298137 -0.746625
-0.291129 0.143231 -0.774167
0.164473 -0.295274 -0.744881
-0.763484 0.148420 -0.306961
-0.753764 0.159273 0.594150
0.627684 -0.305185 0.661470
-0.296505 0.597787 -0.305215
-0.767818 0.601994 0.142661
0.634825 0.162822 0.163682
-0.267456 -0.261649 -0.269043
0.629860 -0.304748 0.661613
-0.753486 0.158524 0.593065
0.186214 0.621523 0.135045
-0.266646 -0.260463 -0.269496
-0.292615 0.142898 -0.771932
0.629517 0.156660 -0.686097
-0.781155 -0.276973 0.149700
-0.767808 0.602969 0.141131
0.168555 -0.719607 -0.251447
0.187554 0.624985 0.137348
-0.766168 0.604369 0.142187
-0.289911 -0.747331 0.173871
0.631778 0.155749 -0.688827
-0.761709 0.152906 -0.307484
-0.290867 0.141566 -0.770610
0.188635 0.617729 -0.762697
0.187150 0.622430 0.136450
-0.298430 -0.278115 0.603363
0.165697 -0.294783 -0.745390
0.188386 0.620944 0.136188
0.188106 0.619259 0.136878
-0.298703 -0.275023 0.605325
-0.753494 0.159693 0.594139
0.162061 0.218137 0.615926
-0.766781 0.602940 0.142698
0.160153 -0.734493 0.620666
-0.754157 0.159188 0.593039
-0.264372 -0.259187 -0.267796
-0.766477 0.602711 0.142332
0.190319 0.617661 -0.762130
0.645735 0.606535 -0.296064
0.629815 0.157178 -0.688758
-0.288212 -0.745986 0.171153
0.164336 -0.297725 -0.744717
0.192624 0.617900 -0.763831
0.644670 0.606474 -0.295357
-0.289866 -0.747064 0.173091
0.169498 -0.721119 -0.251933
-0.296095 0.597427 -0.304442
0.623415 -0.285596 -0.256404
-0.782588 -0.276320 0.152503
0.632447 0.157595 -0.689207
-0.291342 0.141554 -0.773206
0.645793 0.606149 -0.296589
0.644316 0.606080 -0.294941
-0.265714 -0.260507 -0.270243
0.606483 -0.749593 0.197040
-0.298495 -0.279248 0.601390
0.628411 -0.305903 0.662397
-0.762891 0.151838 -0.305595
-0.767761 0.603414 0.141892
0.632159 0.157881 -0.687535
-0.752425 0.160815 0.593866
-0.298264 0.617439 0.596378
0.167299 -0.297777 -0.745574
0.189660 0.621597 0.137215
0.190936 0.617931 -0.763088
-0.289625 -0.745922 0.171785
0.608994 -0.747611 0.195562
-0.768251 0.603576 0.142384
0.158964 -0.733405 0.622428
0.163847 0.218477 0.612942
-0.780082 -0.275275 0.152145
0.635671 0.161845 0.164441
0.606037 -0.748581 0.197439
0.634992 0.161727 0.159878
-0.780526 -0.277508 0.150508
0.623976 -0.285876 -0.255033
-0.264950 -0.259836 -0.271812
0.188275 0.623515 0.136369
0.607310 -0.750748 0.195746
-0.296231 0.598988 -0.304587
-0.778881 -0.276161 0.151092
-0.782059 -0.275951 0.150814
-0.291849 0.142543 -0.772775
-0.753305 0.159078 0.594576
-0.299861 0.616384 0.594615
-0.266541 -0.259219 -0.268025
-0.767579 0.603549 0.141424
0.166166 -0.296018 -0.745702
-0.298686 0.618773 0.596467
-0.298715 0.616114 0.596531
0.167265 -0.296147 -0.744492
-0.754098 0.158019 0.595143
-0.288417 -0.747485 0.170964
0.165030 -0.298748 -0.744153
-0.754738 0.159055 0.594230
0.634005 0.157172 -0.687794
0.186751 0.622448 0.136260
0.623092 -0.285114 -0.256741
0.621193 -0.286861 -0.253801
0.634680 0.163663 0.161648
-0.289885 -0.746361 0.170632
0.622450 -0.284024 -0.252992
-0.780144 -0.277498 0.153268
0.621008 -0.283517 -0.253927
0.633079 0.157809 -0.688390
0.187946 0.623564 0.135454
0.166550 -0.296351 -0.746741
0.628636 -0.305809 0.661909
0.643366 0.605653 -0.297611
-0.294476 0.596393 -0.303438
-0.299240 0.617335 0.595726
-0.292454 0.143418 -0.771823
0.162863 0.218630 0.611859
-0.296315 -0.277475 0.601234
-0.767577 0.601393 0.141475
-0.292789 0.142041 -0.770803
0.626795 -0.307506 0.662291
-0.266631 -0.260783 -0.268063
0.168460 -0.720215 -0.251651
0.166917 -0.718794 -0.253759
