OFF
256 0 0
-0.853483 0.093433 -0.439687
0.852450 0.092838 -0.423906
0.431292 -0.743948 0.013501
-0.001209 0.539791 0.842748
-0.406924 -0.709749 -0.006960
-0.853322 0.092852 -0.441783
0.853027 0.090119 -0.423150
0.425289 0.500733 0.411502
-0.420633 0.107341 -0.845774
-0.423700 0.476387 -0.403787
0.826302 0.486437 -0.010091
-0.001734 0.538803 0.843628
-0.830652 -0.303203 -0.015839
-0.854313 0.095006 -0.441987
-0.429408 0.512378 0.435692
0.432377 0.509717 -0.403415
-0.003394 0.517663 -0.809013
-0.408885 -0.300669 -0.427356
-0.009356 -0.312771 -0.870263
-0.002075 -0.724906 0.425260
0.388388 0.096247 -0.825726
0.410078 0.122514 0.840688
-0.002733 0.539599 0.842077
0.389449 0.095442 -0.824821
-0.430172 0.510587 0.434748
-0.855136 0.094192 -0.442254
-0.009846 -0.310466 -0.869118
0.409543 0.121850 0.841424
-0.418400 0.109348 -0.847052
0.433215 0.509910 -0.401489
-0.852487 0.095049 -0.441199
-0.004642 -0.725068 0.425971
-0.855368 0.094988 -0.441727
-0.423879 0.477715 -0.405435
-0.429397 0.509569 0.434939
0.825832 0.486998 -0.010966
-0.862342 0.088916 0.430928
-0.845651 0.485654 0.005965
-0.006967 -0.305751 0.822152
-0.828621 -0.303514 -0.015894
0.853605 -0.318908 -0.000887
-0.859860 0.089970 0.432873
0.022690 0.526159 0.001491
-0.830230 -0.300876 -0.016842
-0.422862 0.477573 -0.405243
-0.861227 0.091687 0.431893
-0.003402 0.518650 -0.808610
-0.828816 -0.303160 -0.018207
-0.829147 -0.303300 -0.016251
0.431813 -0.744717 0.013621
-0.403517 -0.276944 0.393877
-0.403723 0.103540 0.837140
-0.001614 0.539981 0.843077
0.411769 0.122011 0.842602
-0.418004 0.109068 -0.844100
0.827758 0.485771 -0.011085
0.410824 0.121661 0.841759
-0.860567 0.090723 0.433034
0.399202 -0.299387 -0.408196
-0.847121 0.485659 0.006620
0.409599 0.121685 0.841033
0.388746 0.096347 -0.825404
0.002386 -0.732032 -0.400417
0.400118 -0.299452 -0.409076
-0.003375 -0.725099 0.425610
-0.402449 0.100507 0.836801
0.827304 0.486097 -0.012770
-0.846407 0.486713 0.006220
0.023785 0.526663 0.001743
-0.005840 -0.306565 0.823817
-0.429404 0.508754 0.435187
-0.010539 -0.311726 -0.868288
0.022879 0.526794 0.001144
0.432112 -0.743300 0.011685
-0.860561 0.089896 0.432262
0.426421 -0.326051 0.417968
0.826577 0.488024 -0.009875
0.003876 -0.732555 -0.402518
0.425652 0.501155 0.410322
-0.406760 0.103633 0.836509
0.426053 -0.327305 0.418402
0.399173 -0.298884 -0.407465
0.388906 0.097116 -0.825860
-0.000916 0.540175 0.843582
0.409731 0.120925 0.843063
-0.004423 -0.723365 0.427060
-0.010928 -0.313435 -0.868686
-0.419093 0.108426 -0.845844
-0.008291 -0.313176 -0.868030
-0.001656 0.540065 0.842255
0.024649 0.526446 0.001995
-0.003447 0.539607 0.842952
0.424706 0.501848 0.410930
-0.002174 0.518650 -0.808850
0.853494 -0.316153 0.000839
-0.405567 -0.278287 0.390633
0.855945 -0.316502 0.000109
-0.828435 -0.301659 -0.014600
0.389360 0.095434 -0.824920
0.411063 0.122602 0.842545
-0.421498 0.478731 -0.406808
-0.420271 0.108683 -0.844016
0.399795 -0.297995 -0.409799
0.411020 0.124299 0.840624
-0.847181 0.485035 0.007176
-0.431256 0.509264 0.435905
0.827539 0.487658 -0.011463
0.409513 0.122482 0.842194
-0.862373 0.088772 0.431862
-0.845138 0.485427 0.007167
-0.007615 -0.304934 0.824520
-0.404807 -0.277605 0.392312
-0.002190 0.538389 0.842793
0.022835 0.527556 0.000039
-0.418740 0.109595 -0.845015
0.854681 0.091269 -0.423985
0.432820 0.509515 -0.402669
0.426645 0.502240 0.410113
-0.002783 0.518042 -0.808372
0.852923 -0.317177 -0.001101
-0.852715 0.094072 -0.441024
0.423841 0.500471 0.409391
-0.002904 0.518323 -0.809043
-0.404126 0.103870 0.834152
-0.003222 0.518782 -0.808281
0.022401 0.524784 0.000900
0.430652 0.510611 -0.400846
-0.003299 0.538264 0.843019
0.023303 0.526654 -0.000621
-0.429385 0.508133 0.436186
-0.002883 0.538123 0.844464
0.023468 0.527609 0.001657
0.401502 -0.300311 -0.406617
-0.429382 0.509003 0.435778
-0.404775 0.102319 0.835735
0.426573 -0.326925 0.418256
-0.847378 0.486434 0.006365
0.023424 0.523562 0.000539
0.433783 0.506312 -0.403140
-0.000475 0.539900 0.842287
-0.403952 -0.275965 0.394998
0.433295 0.509936 -0.403560
0.836108 0.094093 0.410696
-0.422589 0.479972 -0.404311
-0.003648 0.520240 -0.808779
0.000221 -0.731561 -0.400822
0.834109 0.094913 0.411650
0.835209 0.092534 0.411134
-0.404655 -0.275388 0.390422
-0.407821 -0.709831 -0.008065
0.826582 0.489243 -0.011610
-0.860719 0.090335 0.431788
-0.010199 -0.313071 -0.869993
-0.861601 0.090097 0.430814
-0.404700 -0.277658 0.390319
-0.846980 0.486067 0.006137
0.828100 0.487563 -0.011949
0.410450 0.120773 0.840909
0.828732 0.485719 -0.011396
-0.405213 -0.278485 0.392721
0.850584 0.091700 -0.423151
-0.002598 -0.725691 0.424454
-0.429163 0.508989 0.433980
0.021433 0.526555 0.001128
0.431231 -0.743693 0.012524
0.855219 -0.317956 -0.001893
-0.007147 -0.304832 0.823998
-0.003781 0.519199 -0.807991
-0.406011 -0.300610 -0.426876
0.428919 -0.327284 0.418884
-0.855043 0.095687 -0.440878
-0.000973 0.539084 0.843627
-0.002878 0.519396 -0.808300
-0.002396 0.538856 0.843208
0.002982 -0.732674 -0.400469
-0.009369 -0.305192 0.820317
0.389041 0.097009 -0.824436
-0.845493 0.486345 0.005336
-0.002139 0.518209 -0.807551
0.400468 -0.297976 -0.408598
-0.408279 -0.711327 -0.005518
-0.408682 -0.711319 -0.005979
-0.405495 0.103641 0.835873
-0.427798 0.509349 0.435249
0.824805 0.487469 -0.010231
-0.008048 -0.304270 0.822499
0.836198 0.094719 0.410582
-0.000885 -0.723696 0.426810
-0.406594 -0.302067 -0.426110
0.432590 -0.745588 0.012435
0.423519 0.502211 0.412131
-0.420324 0.108126 -0.844731
-0.007489 -0.303717 0.822398
-0.009267 -0.313033 -0.868702
0.833332 0.094835 0.412077
0.851449 0.090861 -0.421476
-0.002535 0.518549 -0.809068
-0.406435 -0.301340 -0.427034
-0.008816 -0.312398 -0.868327
-0.860745 0.088571 0.430580
0.023881 0.526218 0.001150
-0.419380 0.107305 -0.845209
-0.010594 -0.311016 -0.869411
0.433709 0.508785 -0.401436
0.388897 0.094568 -0.825483
-0.406115 -0.301040 -0.425382
0.425936 -0.327449 0.417418
-0.404575 -0.300561 -0.424611
0.002645 -0.732555 -0.400222
0.022599 0.524997 0.000511
-0.853777 0.093297 -0.440771
-0.001762 0.538235 0.842682
0.854819 -0.317742 -0.001741
-0.009785 -0.314027 -0.868844
-0.407803 -0.708680 -0.007354
0.827699 0.489137 -0.011347
-0.002541 0.538143 0.841171
-0.429372 0.509788 0.434860
-0.418793 0.108594 -0.845159
-0.846313 0.485758 0.005449
0.853211 0.090125 -0.424007
-0.407172 -0.300981 -0.426498
0.854211 -0.316224 -0.001202
-0.405338 -0.300356 -0.426633
-0.403352 0.103627 0.835912
0.432081 -0.745680 0.012830
0.434264 0.509377 -0.402335
0.390345 0.095659 -0.824739
-0.829823 -0.300451 -0.017044
0.398722 -0.297133 -0.410125
-0.002081 0.537428 0.843160
-0.862065 0.089997 0.432549
0.391214 0.095308 -0.824883
-0.846239 0.486950 0.006300
-0.861382 0.088625 0.433415
-0.405539 -0.279182 0.391059
-0.007429 -0.305095 0.822126
-0.404733 -0.277146 0.392099
0.854395 0.091013 -0.421964
-0.422243 0.479271 -0.403444
-0.001210 0.538067 0.843636
-0.428041 0.510983 0.433226
-0.404800 0.101671 0.834994
-0.407611 -0.710098 -0.005791
-0.403576 0.101275 0.835206
0.855312 -0.317247 -0.001965
-0.002727 0.536953 0.842551
-0.009685 -0.307440 0.823618
-0.829198 -0.301282 -0.016867
-0.861819 0.091014 0.433382
0.824675 0.486568 -0.011008
-0.403401 0.104146 0.834405
-0.007995 -0.306960 0.823184
-0.847596 0.488454 0.005677
-0.847125 0.485516 0.008935
0.852882 0.090997 -0.424038
