OFF
256 0 0
-0.683762 0.227118 -0.661203
0.226921 -0.643245 0.211184
-0.683852 0.226479 -0.658801
0.667291 0.219628 -0.205874
0.239180 -0.657317 -0.654261
0.689343 -0.662471 -0.219798
0.691030 0.226366 0.672207
-0.238123 -0.705374 -0.220564
0.691968 0.228002 0.671688
-0.684727 0.682522 -0.232255
-0.238975 -0.705239 -0.221217
0.222641 0.218207 -0.644489
0.236299 0.666691 0.636980
-0.229437 0.665833 0.218660
-0.684139 0.227175 -0.658626
0.221574 0.218892 -0.642295
-0.230105 0.666142 0.218901
0.237480 0.664621 0.638272
-0.683326 0.227640 -0.659995
0.680287 0.689911 0.231215
0.683357 0.691951 0.230961
-0.206834 -0.242813 -0.672220
-0.684111 0.681013 -0.230803
-0.256847 -0.660245 0.632051
-0.257662 -0.660119 0.633395
0.222581 0.216591 -0.641237
0.683112 0.691015 0.231657
-0.207390 -0.240852 -0.669189
-0.703134 -0.243032 0.668889
0.223284 0.217702 -0.644990
0.210230 0.664725 -0.185603
-0.206100 0.217684 0.674084
-0.209165 0.216907 0.675601
-0.652338 0.198549 0.205120
0.239545 -0.657377 -0.656069
0.225666 -0.226768 0.656778
0.225931 -0.642110 0.210934
-0.257424 -0.659220 0.633158
-0.705032 -0.241197 0.669307
0.228013 -0.642414 0.209352
0.666488 0.220328 -0.208322
-0.685510 0.684153 -0.230529
-0.688788 -0.684853 0.215016
-0.703075 -0.243519 0.668432
0.680944 0.689140 0.230082
-0.229060 0.665920 0.219297
0.207466 0.663787 -0.185923
-0.666956 -0.247975 -0.201941
-0.702091 -0.242550 0.668780
0.692634 0.226724 0.671852
0.237526 0.663966 0.637419
0.690928 -0.663513 -0.218700
-0.257986 -0.659677 0.633632
0.239682 -0.658470 -0.654246
-0.230736 0.667610 0.218198
0.673980 -0.196202 -0.678751
-0.206955 -0.241587 -0.670618
0.223626 0.218054 -0.642385
0.663196 -0.194143 0.203822
0.228311 -0.642527 0.208533
-0.255841 -0.659302 0.633299
-0.238831 -0.707133 -0.221139
0.227813 -0.641243 0.210770
0.227809 -0.642419 0.208045
-0.684523 0.681674 -0.231970
0.692914 0.229372 0.673799
0.228948 -0.641307 0.210240
-0.686591 -0.683039 0.211222
-0.650747 0.199821 0.204683
-0.685746 0.684456 -0.231284
0.690626 -0.661971 -0.217593
-0.650562 0.200964 0.205121
-0.256582 -0.659793 0.630442
0.222353 0.218880 -0.642089
-0.212052 0.679163 -0.650115
0.672770 -0.194371 -0.675867
-0.688052 -0.684598 0.213439
-0.685565 0.227517 -0.658949
0.662980 -0.193567 0.205274
-0.204777 -0.241277 -0.671835
0.235264 0.665563 0.638891
0.663985 -0.193122 0.204018
-0.685834 0.683263 -0.232258
-0.232162 0.665225 0.216525
-0.650306 0.198998 0.205885
-0.702327 -0.244390 0.667904
-0.229742 0.665681 0.219289
0.239188 -0.656805 -0.655623
0.673130 -0.196650 -0.680600
-0.239037 -0.704145 -0.222662
-0.689257 -0.686279 0.214157
-0.257482 -0.661398 0.633390
-0.240253 -0.704396 -0.222050
0.664634 0.220553 -0.210270
-0.650243 0.200024 0.208015
-0.650797 0.200176 0.204262
-0.211675 0.680448 -0.649881
-0.687531 0.682165 -0.230036
-0.687872 -0.684581 0.213230
-0.688994 -0.684455 0.213621
-0.256034 -0.660764 0.632506
0.689567 -0.662075 -0.217476
-0.649448 0.200284 0.204492
-0.651447 0.201983 0.203560
-0.238806 -0.706825 -0.224058
-0.684479 0.226582 -0.658196
0.221861 0.218631 -0.643960
-0.701436 -0.242734 0.670109
-0.686549 0.682767 -0.231556
-0.687919 -0.683761 0.213073
-0.686047 0.681970 -0.230237
-0.703537 -0.242912 0.668487
0.661286 -0.192526 0.204659
-0.206462 -0.241715 -0.670584
-0.688390 -0.682389 0.214714
0.238531 -0.658853 -0.654108
-0.685779 0.683927 -0.230978
-0.239136 -0.705814 -0.222852
0.228587 -0.640094 0.208514
0.226698 -0.640938 0.209539
0.690271 -0.664731 -0.216523
-0.651184 0.198374 0.204200
0.236553 0.665487 0.637469
-0.207929 0.217907 0.673846
0.661901 -0.193958 0.204915
-0.650800 0.199672 0.206049
-0.703748 -0.242587 0.669269
0.225746 -0.224997 0.655952
0.664392 -0.193128 0.204746
-0.239301 -0.704904 -0.222068
-0.206804 0.217587 0.674118
0.222574 0.216886 -0.642013
-0.684526 0.227799 -0.658606
0.662010 -0.192072 0.204871
-0.208421 0.217826 0.672863
-0.704152 -0.242950 0.669777
0.209368 0.665126 -0.186360
-0.650993 0.200159 0.208278
0.209637 0.664903 -0.187182
0.237928 0.663485 0.637997
0.681027 0.691544 0.231999
-0.257841 -0.660996 0.633266
-0.257080 -0.660480 0.632126
0.210508 0.663936 -0.186685
-0.256895 -0.658837 0.632490
0.682734 0.691698 0.229867
-0.652055 0.200130 0.205643
0.229026 -0.643978 0.210156
0.239873 -0.658151 -0.654212
0.675722 -0.195954 -0.678639
0.693275 0.229034 0.672688
-0.236148 -0.704629 -0.221574
-0.650346 0.200835 0.206091
0.681677 0.692282 0.232284
-0.207180 -0.242376 -0.668803
0.663030 -0.192448 0.206292
-0.667780 -0.246357 -0.202558
-0.684564 0.226361 -0.660916
0.227289 -0.642444 0.209520
0.674395 -0.196759 -0.678957
-0.257853 -0.658762 0.631303
0.672765 -0.193672 -0.677215
-0.238290 -0.704902 -0.219040
0.673229 -0.194325 -0.677639
0.674907 -0.196726 -0.678623
0.689108 -0.663547 -0.217024
0.226621 -0.224060 0.657620
0.664705 0.218659 -0.209630
0.681692 0.691000 0.232387
0.238115 0.665620 0.638251
0.210118 0.663257 -0.187223
-0.667179 -0.247891 -0.202887
0.240012 -0.657952 -0.654485
0.692951 0.227406 0.672822
-0.257799 -0.659013 0.632011
-0.667260 -0.245981 -0.203054
0.682109 0.688940 0.231416
-0.239889 -0.706115 -0.219694
-0.649642 0.199744 0.204986
0.237594 0.665693 0.638390
-0.651683 0.199884 0.205950
0.681369 0.690684 0.229201
-0.668204 -0.246470 -0.203758
-0.231006 0.665236 0.217890
-0.688458 -0.685585 0.212418
-0.239264 -0.705867 -0.222898
0.663515 -0.193294 0.206270
-0.256349 -0.659665 0.630868
0.682556 0.691214 0.231621
-0.701763 -0.243331 0.666900
-0.668645 -0.246390 -0.203745
0.210680 0.664655 -0.185138
-0.683876 0.228647 -0.659316
0.238219 -0.657111 -0.655679
0.671785 -0.196700 -0.679821
-0.211590 0.679277 -0.650833
-0.257052 -0.660954 0.632439
-0.684606 0.683452 -0.229423
0.661131 -0.191957 0.205925
0.222280 0.218105 -0.644276
-0.211361 0.680474 -0.651325
-0.229411 0.664950 0.219323
-0.212025 0.677846 -0.651356
0.692137 0.228899 0.671971
0.692903 0.228063 0.671471
-0.684959 0.227625 -0.659396
0.664957 0.220401 -0.207722
0.223789 0.217886 -0.643463
0.681751 0.689435 0.232468
-0.703986 -0.243889 0.669436
-0.684173 0.682018 -0.231442
-0.686365 -0.683837 0.211387
-0.237759 -0.706721 -0.219951
-0.688456 -0.684473 0.213721
0.236515 0.665388 0.639416
0.691792 0.228528 0.671680
-0.209079 0.217935 0.673293
-0.204973 -0.241309 -0.669787
-0.228249 0.666119 0.218853
-0.668660 -0.246601 -0.202657
0.222656 0.218082 -0.643346
0.673465 -0.195427 -0.679097
-0.211005 0.678718 -0.651416
0.689236 -0.664726 -0.218054
-0.670080 -0.245840 -0.203413
-0.206054 0.218545 0.673439
-0.701408 -0.243401 0.669535
0.661877 -0.192875 0.203329
0.237330 0.663879 0.639736
0.236505 0.664647 0.637186
-0.686042 0.683814 -0.230767
-0.703385 -0.244218 0.669613
0.240312 -0.658690 -0.654965
0.211020 0.664151 -0.187256
-0.666671 -0.245301 -0.204397
-0.702131 -0.243658 0.671359
0.662889 -0.194003 0.206769
0.672331 -0.195895 -0.677687
0.228310 -0.641423 0.212503
0.236315 0.667769 0.639829
-0.256075 -0.661077 0.632683
-0.703130 -0.241620 0.668509
-0.666826 -0.246725 -0.204059
-0.702100 -0.242015 0.668734
0.238321 -0.656682 -0.657241
0.210331 0.665705 -0.186086
-0.240726 -0.707663 -0.220139
-0.238449 -0.706450 -0.222103
0.224333 -0.225853 0.656530
-0.702753 -0.243222 0.668909
-0.238547 -0.705639 -0.220649
0.665428 0.220694 -0.208110
-0.685613 0.230367 -0.660178
0.226477 -0.227322 0.656620
0.668102 0.221174 -0.208339
0.208171 0.664793 -0.185124
