OFF
256 0 0
-0.239519 0.635086 0.198802
0.665232 0.206197 -0.239586
0.673944 0.239754 0.697302
-0.676729 0.218537 -0.664568
0.667898 -0.666739 -0.231020
0.212943 -0.187301 0.646301
-0.215552 0.646433 -0.648457
-0.215747 0.645651 -0.648608
-0.666672 0.200308 0.234937
-0.197517 -0.646621 0.658415
0.222849 0.220009 -0.642497
0.670462 0.670504 0.233277
0.648911 -0.197297 0.223518
0.225316 0.626247 -0.192247
-0.216971 0.646379 -0.649462
-0.214804 -0.651330 -0.216378
-0.660780 -0.245546 0.633760
-0.217425 -0.229210 -0.658744
0.211775 -0.186105 0.646965
0.211861 -0.184276 0.647374
0.222722 0.223160 -0.643543
-0.239677 0.633119 0.199786
0.214627 -0.667415 0.207425
-0.660247 -0.245915 0.635412
0.222822 0.221190 -0.643712
0.222567 0.220616 -0.640896
-0.687339 0.654437 -0.203311
-0.215858 -0.229434 -0.659051
-0.665320 0.199662 0.234520
0.250325 0.681345 0.674438
-0.686178 0.654050 -0.203857
0.673410 0.240024 0.700001
0.665536 0.205511 -0.238575
0.647413 -0.244716 -0.686870
-0.653298 -0.642440 0.197050
0.224771 0.627871 -0.189929
0.669152 0.671196 0.231065
-0.683917 -0.212399 -0.237811
-0.686064 0.653875 -0.201693
-0.651990 -0.642989 0.196503
0.676904 0.239944 0.699793
0.213135 -0.184852 0.646505
-0.665508 0.198470 0.232007
-0.652547 -0.643135 0.198302
-0.684596 -0.210104 -0.238184
-0.675739 0.220475 -0.664057
-0.687317 0.652672 -0.203050
-0.216154 0.645202 -0.648330
-0.196643 -0.647146 0.660241
0.250755 0.681749 0.673944
0.675199 0.240300 0.698355
-0.652110 -0.643048 0.198287
-0.653116 -0.643595 0.196800
0.671574 0.671664 0.231775
0.253576 0.680266 0.673520
0.224796 -0.655919 -0.666167
0.226745 0.625975 -0.190318
-0.665836 0.201205 0.233217
0.212265 -0.186427 0.647017
-0.216386 0.645003 -0.648001
0.212025 -0.188216 0.648931
-0.214914 0.643486 -0.649416
0.675530 0.238029 0.697736
0.227787 -0.657087 -0.666196
-0.666789 0.201294 0.232313
-0.218782 0.249362 0.682625
-0.237918 0.634283 0.199727
0.224687 -0.656454 -0.664591
-0.659536 -0.245460 0.635212
0.214833 -0.668341 0.207298
-0.684817 0.654237 -0.203985
-0.660151 -0.245810 0.633819
0.670846 0.671539 0.231102
0.666070 -0.665084 -0.232101
0.668232 -0.665151 -0.233025
-0.653082 -0.641646 0.197454
0.647535 -0.244362 -0.685526
-0.218421 0.251755 0.680564
0.214360 -0.666878 0.206886
0.226356 0.626728 -0.189617
0.226751 0.628180 -0.189780
0.223287 0.626495 -0.189513
-0.215479 -0.652208 -0.216534
0.667292 -0.666447 -0.233213
-0.239012 0.632891 0.199897
0.671416 0.669596 0.231341
-0.215394 -0.227869 -0.659984
-0.653764 -0.642730 0.195511
0.667261 0.207452 -0.239308
0.673767 0.238054 0.697391
0.650377 -0.197408 0.223421
-0.217992 0.248422 0.684186
-0.198585 -0.647139 0.659620
-0.215237 -0.652706 -0.216634
-0.216109 -0.229940 -0.660068
0.226223 0.627405 -0.189957
0.223806 0.625497 -0.189862
0.647098 -0.244037 -0.685833
0.250619 0.679994 0.675045
0.674284 0.239233 0.697013
-0.663590 0.200407 0.233251
-0.217470 0.250466 0.683323
-0.674282 0.218621 -0.665394
-0.214307 -0.653621 -0.217669
-0.214680 -0.654151 -0.216576
0.669691 0.673694 0.231697
-0.658627 -0.246986 0.636046
-0.665510 0.200192 0.232903
0.668014 -0.666712 -0.232814
0.667334 0.207608 -0.239179
-0.676195 0.218233 -0.664397
0.647831 -0.198699 0.224658
0.249859 0.679731 0.673118
0.665427 -0.667613 -0.231551
0.669542 -0.664725 -0.233403
0.650639 -0.199104 0.225313
0.226095 -0.655762 -0.666209
0.213192 -0.186965 0.646333
-0.659353 -0.245914 0.634030
0.649027 -0.198099 0.225434
-0.215318 -0.653294 -0.216898
0.676378 0.236792 0.696023
0.667733 0.206827 -0.237839
0.222431 0.223475 -0.641625
0.646870 -0.243826 -0.684898
0.665653 0.206316 -0.240486
-0.653010 -0.643235 0.196923
0.212865 -0.668919 0.209824
-0.237798 0.634735 0.198999
-0.685014 -0.212621 -0.239497
0.666917 -0.667037 -0.234295
-0.655179 -0.641738 0.196664
-0.676194 0.219716 -0.664102
-0.657264 -0.246320 0.634502
-0.219824 0.249067 0.683741
0.212804 -0.186743 0.647355
-0.684692 -0.211456 -0.236686
-0.214611 -0.653236 -0.215424
0.222320 0.221436 -0.641568
0.670371 0.670882 0.233573
0.668492 0.205725 -0.239189
-0.663884 0.200073 0.232828
0.250748 0.677678 0.674886
0.211706 -0.186587 0.647144
0.670426 0.673247 0.231093
0.225075 0.626545 -0.189250
-0.687018 0.653768 -0.199720
-0.215635 -0.652012 -0.214474
0.645983 -0.244631 -0.687024
-0.216876 0.248833 0.684021
0.212517 -0.187620 0.645890
0.226774 -0.656344 -0.666994
0.670694 0.672726 0.232311
-0.685072 -0.212295 -0.239985
-0.216796 0.251341 0.681030
-0.676418 0.220537 -0.666304
0.675423 0.237667 0.696501
0.225012 0.626693 -0.190453
-0.238253 0.634609 0.197282
0.250659 0.678395 0.674051
0.252553 0.680971 0.675133
0.214711 -0.667825 0.208666
-0.215422 -0.650507 -0.216993
-0.687769 0.653457 -0.203139
-0.684208 -0.212517 -0.237754
0.223438 0.627379 -0.191175
-0.676441 0.221005 -0.667206
0.211103 -0.186844 0.646960
0.673751 0.237933 0.698145
0.647658 -0.197809 0.223215
-0.686216 -0.213124 -0.238427
-0.675451 0.220734 -0.665281
0.646805 -0.244918 -0.686858
0.214888 -0.668204 0.208469
0.646980 -0.243092 -0.686560
0.673527 0.237995 0.698756
-0.688664 0.654248 -0.203132
0.251794 0.681514 0.676221
0.223298 0.222280 -0.642421
0.225654 0.628297 -0.190654
-0.219318 0.250200 0.682246
0.223050 0.221094 -0.644702
0.226808 0.626991 -0.190288
-0.687010 0.654530 -0.204224
0.225768 -0.657223 -0.668892
-0.684780 -0.213630 -0.238482
0.222319 0.220861 -0.641704
0.213504 -0.187100 0.647098
-0.688524 0.653905 -0.203336
-0.218205 0.249311 0.682674
0.670836 0.670472 0.231574
0.665795 -0.665820 -0.231985
0.667400 -0.667107 -0.231640
0.210516 -0.186533 0.648305
0.668169 -0.667402 -0.232699
-0.658822 -0.246716 0.633794
-0.213685 -0.652216 -0.216134
0.670081 0.670070 0.232671
0.250964 0.678536 0.672426
-0.216276 0.645407 -0.649216
0.221929 0.221404 -0.644600
0.668123 -0.666874 -0.233145
0.224797 0.626962 -0.189529
0.223528 0.221326 -0.644644
-0.661942 -0.248389 0.635128
0.668990 -0.668108 -0.232987
0.674276 0.239002 0.697147
-0.676257 0.219640 -0.665731
-0.213707 -0.651794 -0.215839
-0.218975 -0.229518 -0.661739
0.221509 0.219943 -0.642315
0.213860 -0.667769 0.207616
0.674309 0.238274 0.697129
-0.688286 0.652453 -0.202501
0.220730 0.221267 -0.641281
-0.684214 -0.212571 -0.236526
-0.652017 -0.642811 0.198362
-0.665133 0.201000 0.233033
-0.675520 0.218775 -0.664395
-0.674318 0.219475 -0.666691
-0.219149 -0.230053 -0.658325
-0.665501 0.199861 0.232749
0.667149 -0.667564 -0.233665
-0.660443 -0.247352 0.632287
-0.664615 0.202071 0.235281
-0.215147 -0.650935 -0.216625
-0.214877 -0.229150 -0.660904
0.211604 -0.185321 0.644987
0.223020 0.221450 -0.643059
-0.215150 -0.653049 -0.216745
-0.659924 -0.246952 0.633110
0.227167 -0.655546 -0.667373
-0.217186 0.249993 0.683537
-0.661156 -0.246346 0.635803
-0.684567 -0.211946 -0.237215
-0.684255 -0.212938 -0.237223
0.222668 0.220192 -0.644216
-0.217012 -0.228714 -0.659340
-0.239022 0.632069 0.199412
0.223749 0.220895 -0.643947
0.666898 0.205721 -0.238412
0.665868 -0.667884 -0.232921
0.647461 -0.244472 -0.686772
0.222217 0.222420 -0.642291
-0.660147 -0.245864 0.633518
0.666690 -0.666352 -0.230964
-0.216660 0.645567 -0.649352
0.666615 -0.668142 -0.232431
-0.219642 0.248856 0.684438
-0.659940 -0.245291 0.634341
-0.217007 -0.229122 -0.662408
-0.683676 -0.210739 -0.238329
0.225038 -0.655485 -0.666684
-0.651776 -0.642792 0.197142
-0.196738 -0.646846 0.658647
0.251419 0.679673 0.674346
