OFF
256 0 0
-0.000890 0.532468 0.725979
0.001118 -0.308004 0.725683
0.418797 0.531881 0.307329
-0.839108 0.112497 0.306904
-0.002578 0.531314 -0.113377
-0.000940 -0.725339 0.306622
0.420911 -0.726323 -0.113322
0.417368 -0.308386 -0.531649
0.000589 0.113013 -0.532324
-0.419984 0.532437 -0.531588
0.420728 -0.306189 -0.531597
0.840179 0.532304 -0.112140
-0.418870 -0.306477 0.306731
0.840645 0.533647 -0.110943
-0.839320 0.113278 0.306293
0.417885 0.531740 0.307526
0.837067 -0.304569 -0.113296
-0.001047 -0.726871 -0.533935
-0.838681 -0.306365 -0.113196
0.002385 0.112048 -0.532987
0.000755 0.113748 -0.532854
0.420991 -0.307544 -0.532840
0.000562 -0.305371 0.725758
0.000952 -0.725776 0.306529
0.838808 -0.305163 -0.112861
-0.418766 -0.306727 0.306957
0.840044 0.532225 -0.112197
0.838467 0.113741 -0.532789
-0.001053 0.532519 0.725019
0.837288 -0.305036 -0.111722
-0.419118 0.531221 -0.532805
0.838320 0.532708 -0.112101
0.418813 -0.306071 -0.532787
0.838918 0.532098 -0.112620
0.840183 -0.308238 -0.112266
0.000731 -0.308169 0.727110
0.000814 0.532561 -0.114212
0.418009 0.531999 0.306698
-0.419900 0.531954 -0.532051
0.419209 -0.307081 0.307352
-0.417515 -0.304973 -0.531741
-0.838271 0.531562 -0.112930
-0.000384 0.112749 -0.533283
0.840579 0.532681 -0.113393
0.419709 -0.306664 0.305471
0.838995 0.112954 -0.530936
0.417929 -0.307006 0.306967
-0.837437 0.113416 -0.532957
0.418968 -0.305571 0.306845
-0.838785 0.532160 -0.112877
0.420045 0.530742 0.308015
-0.419511 0.532540 0.305294
0.418706 -0.724453 -0.110784
0.419225 -0.304566 0.305913
0.420300 -0.306563 -0.533245
-0.419389 -0.724793 -0.113080
-0.420982 0.532775 -0.531448
-0.419605 0.531120 -0.533106
0.839740 0.114285 -0.533398
-0.839798 0.114371 0.306766
-0.420137 0.112160 0.726432
0.839603 -0.306374 -0.113069
0.418579 -0.307504 -0.531893
-0.420463 0.112795 0.722569
-0.420018 0.531971 0.306042
-0.419938 0.533042 0.307147
0.839074 0.111339 0.307210
-0.418696 -0.727327 -0.112238
0.838402 -0.307114 -0.112603
-0.418389 0.532244 -0.531556
-0.840376 -0.307000 -0.112783
0.840162 -0.306165 -0.113055
0.418625 0.532449 -0.532656
0.416625 -0.725849 -0.113210
-0.420382 -0.304909 0.306213
-0.838034 -0.306473 -0.113306
0.419120 0.113471 0.726937
0.839224 -0.307249 -0.114061
-0.838684 -0.307220 -0.111631
0.000055 0.111977 -0.531064
-0.419089 -0.306010 -0.532426
0.418991 0.532058 0.306503
0.420278 -0.305975 0.305831
-0.421974 0.533517 0.305593
-0.838126 -0.305590 -0.113393
-0.000320 0.113717 -0.531198
0.000842 0.533176 0.725892
0.420012 -0.726325 -0.113932
0.418157 -0.307309 -0.530953
-0.419513 0.533614 -0.532121
-0.837726 0.112099 -0.532049
0.839442 0.532709 -0.114041
0.420378 -0.306562 -0.532898
0.001414 -0.727262 -0.532041
-0.839402 0.113029 -0.532552
0.421398 0.531910 0.306110
-0.001618 -0.306384 0.726270
-0.000885 -0.307821 0.726711
0.001475 -0.305728 0.725804
-0.419395 -0.307025 0.307051
0.001043 -0.727494 -0.531445
-0.418071 0.533727 -0.532490
0.838341 0.113306 0.307398
-0.000970 0.532478 0.727715
-0.418694 -0.305337 -0.532665
0.420042 -0.307660 0.307312
-0.838785 -0.306466 -0.112593
-0.416816 -0.305659 -0.529763
-0.838943 0.113460 0.304344
-0.420376 0.533618 0.307522
-0.001249 -0.306606 0.725669
-0.418328 0.532537 -0.533912
-0.418532 -0.727635 -0.111471
0.420138 0.114475 0.727484
0.419486 0.112597 0.724682
-0.421071 -0.307622 0.307527
0.420962 -0.306022 -0.531790
-0.838596 0.113486 -0.533893
-0.421012 0.532144 0.304758
-0.838374 0.532366 -0.113877
-0.418139 0.111753 0.727733
-0.419836 -0.724446 -0.111959
-0.417358 0.114048 0.726330
0.839680 0.111792 0.306246
0.000495 0.530963 -0.112568
0.839794 0.111740 -0.532346
0.839886 0.112367 0.306501
-0.000188 0.529676 0.724790
0.838447 0.112499 -0.531976
-0.839304 0.113194 0.306575
0.837998 0.112814 -0.533462
-0.417691 0.532008 0.306494
0.419065 0.113329 0.727588
-0.000259 -0.726683 0.307814
-0.837452 0.530716 -0.113657
0.001109 0.532131 0.726554
-0.001490 -0.725608 -0.531405
0.001302 -0.726568 0.307440
0.838130 0.113050 0.305915
0.001646 0.533595 -0.113015
0.420470 0.113447 0.725571
0.419811 0.113851 0.724996
0.419319 -0.726809 -0.113254
-0.000403 -0.727531 0.305144
0.838662 0.111612 -0.532813
0.417410 -0.727154 -0.114425
-0.419716 0.114121 0.726314
0.000429 0.114380 -0.532569
0.000091 0.531654 0.725910
0.419629 -0.725132 -0.112135
0.418705 0.530411 0.307937
0.000740 -0.726107 0.306741
0.838905 0.532266 -0.112261
-0.000350 -0.307999 0.725496
0.417819 0.533605 -0.532028
-0.418236 -0.727642 -0.113333
0.419560 0.111841 0.724402
0.000021 0.531552 -0.113968
0.421055 0.113600 0.725345
-0.419520 -0.724072 -0.112655
-0.420848 -0.724824 -0.112656
0.419085 0.532340 -0.531093
-0.838322 0.533298 -0.112893
-0.839603 0.112187 0.307723
0.419659 0.532767 -0.533170
-0.837385 0.533080 -0.112468
-0.837024 0.112634 0.305812
-0.418888 -0.305733 -0.531451
-0.419811 -0.726045 -0.112094
0.000551 -0.727369 0.305807
-0.840922 -0.306148 -0.112660
0.418312 -0.724980 -0.113319
-0.840933 -0.306409 -0.114478
-0.419814 -0.306402 0.305389
-0.839830 0.111907 0.307586
0.839238 0.114864 0.307846
-0.838181 0.533396 -0.113143
-0.417714 0.531977 0.308746
-0.418196 -0.305663 0.306208
-0.000802 0.532167 0.725801
0.839275 0.114815 -0.532430
0.419224 0.113720 0.725114
-0.000114 0.532961 -0.112454
-0.000819 0.532236 0.726052
-0.000958 -0.725925 -0.530968
0.418497 0.530462 0.306389
0.419511 0.112367 0.725142
0.000714 0.112745 -0.529750
0.000456 -0.725071 -0.531709
0.000589 0.533402 0.727004
-0.000758 0.531181 0.724490
-0.840077 -0.306490 -0.113118
0.419659 -0.728006 -0.112460
-0.419502 -0.726140 -0.113972
-0.419930 -0.307182 0.307088
-0.837686 0.531039 -0.112076
0.001706 0.114484 -0.532745
-0.841062 0.113565 0.306667
-0.420286 -0.724735 -0.112840
0.001110 -0.724101 -0.533760
0.421148 -0.306792 0.307365
0.420816 0.532954 0.306295
0.420290 -0.305520 -0.531217
-0.420195 0.112750 0.724827
0.839465 -0.307247 -0.112712
-0.421511 0.533495 0.306712
-0.000731 0.533070 -0.113339
0.418862 -0.307816 0.304403
0.418668 -0.726148 -0.112013
-0.001425 -0.725706 0.305749
0.838353 0.112577 -0.531713
-0.838283 0.112172 -0.532779
0.000032 0.531492 -0.113668
-0.000316 -0.726532 -0.531444
0.000760 -0.725304 0.306528
-0.418206 -0.727813 -0.112873
-0.420621 0.532639 -0.532385
-0.418789 -0.306493 -0.533083
0.420175 -0.308435 0.306492
-0.419446 -0.307612 0.307040
0.417539 -0.306995 0.306250
0.002159 0.533435 0.726919
-0.419898 -0.305260 0.307179
0.001608 0.532771 -0.114101
-0.838906 -0.304666 -0.112849
-0.839843 -0.305256 -0.113464
0.837699 0.113128 -0.532562
0.000742 -0.305733 0.725052
0.000786 -0.726894 -0.531351
0.001232 0.532776 0.726223
0.838531 0.532676 -0.112959
-0.000406 -0.726617 -0.530835
0.838872 -0.305187 -0.112069
0.418517 -0.306521 -0.531203
0.418395 0.533551 -0.533367
-0.000075 0.112036 -0.532513
0.839499 0.533269 -0.114053
0.000622 -0.725923 0.306268
-0.838063 0.111064 -0.532675
0.419258 -0.306600 -0.532324
-0.839442 -0.308311 -0.112342
-0.837614 0.531724 -0.114251
0.000543 -0.724514 -0.533595
-0.002100 -0.725541 -0.532170
0.419832 0.112665 0.725930
-0.421377 0.532763 -0.531743
0.000050 0.113600 -0.532876
-0.418824 -0.307651 0.305716
0.000419 0.532277 -0.113653
-0.839913 -0.307987 -0.111618
-0.418750 0.533406 -0.533251
0.839706 0.112273 -0.532196
-0.840828 -0.305872 -0.112722
-0.838094 0.112427 0.306983
0.839796 0.111377 0.306733
0.838832 0.114250 -0.534095
