OFF
256 0 0
-0.843604 0.101905 0.329648
0.822339 0.100548 0.310981
0.407878 -0.720164 -0.110675
0.437772 -0.301264 -0.513840
0.007434 0.509512 0.708019
-0.423550 0.129611 0.749580
0.011171 0.510200 0.709978
-0.844637 0.103077 0.330592
-0.001980 -0.287359 0.709546
0.380875 -0.279885 0.285423
0.414464 0.492584 0.297724
0.004954 0.102964 -0.512479
0.818754 -0.297877 -0.116998
0.437656 -0.303316 -0.510972
0.822325 0.102996 0.313763
0.847008 0.523055 -0.097089
-0.840454 -0.307310 -0.087089
-0.422925 0.130795 0.747794
-0.843716 0.099549 0.330280
0.408490 -0.718124 -0.109242
-0.410096 -0.282331 -0.541092
-0.399615 -0.274167 0.272500
-0.401546 0.497699 0.285761
0.394716 0.525167 -0.512495
0.409508 -0.719543 -0.111613
-0.413150 0.529887 -0.531900
-0.829397 0.501833 -0.126823
-0.411459 -0.281129 -0.542578
0.815388 0.128878 -0.538443
-0.830446 0.501960 -0.126329
0.000464 -0.699579 0.301199
0.407476 -0.718268 -0.108940
-0.845796 0.099771 0.332159
0.848478 0.521557 -0.097143
0.821011 0.101722 0.310694
-0.003108 -0.288502 0.708603
0.408825 -0.717869 -0.109242
0.006691 0.102389 -0.512330
0.419480 0.086948 0.721224
0.413367 0.492241 0.294839
-0.001987 -0.289288 0.708052
0.008359 -0.672061 -0.524182
-0.838798 -0.309724 -0.088306
0.822889 0.101846 0.311112
0.818372 -0.299257 -0.117033
-0.400120 -0.271327 0.270548
-0.842719 0.100272 0.326734
-0.402879 0.498891 0.283917
0.410212 -0.717748 -0.109203
0.391675 0.524658 -0.511910
-0.401833 0.498515 0.283892
0.820933 -0.298414 -0.118879
-0.001060 -0.700581 0.300009
0.382929 -0.279828 0.282891
-0.410558 0.529135 -0.534554
0.413577 0.494416 0.295558
-0.842380 0.101584 0.331394
0.384061 -0.279441 0.284225
-0.398900 -0.709194 -0.122251
0.411661 0.493638 0.295637
0.821541 0.100936 0.309849
0.392735 0.525047 -0.513298
0.413231 0.494488 0.295289
-0.829562 0.502085 -0.128404
-0.829833 0.501376 -0.128832
-0.399723 -0.270462 0.271223
0.382656 -0.278768 0.285125
-0.830631 0.502831 -0.126898
-0.411268 -0.282203 -0.543343
0.419168 0.086586 0.721189
-0.838191 -0.309645 -0.087777
0.005153 0.501983 -0.117117
-0.843913 0.100983 0.329809
-0.830902 0.095358 -0.509249
0.007440 0.509366 0.708143
-0.408777 -0.282033 -0.542715
-0.843563 0.102944 0.331345
0.814898 0.131381 -0.538723
0.409645 -0.719653 -0.109340
0.408356 -0.718084 -0.109622
0.007172 -0.672201 -0.524931
0.000199 -0.288325 0.709758
0.005190 0.502353 -0.114769
-0.401287 0.499498 0.286562
-0.397774 -0.709399 -0.123438
0.003604 0.101359 -0.510761
-0.402170 0.498950 0.284589
-0.398829 -0.709354 -0.122189
0.816841 0.131653 -0.539976
0.004505 0.102532 -0.512697
0.420219 0.087069 0.723014
0.848605 0.523274 -0.095179
-0.423061 0.131540 0.747539
0.821526 0.100463 0.309778
-0.400055 -0.271536 0.271380
0.437596 -0.301717 -0.511015
-0.398400 -0.709392 -0.123483
0.438425 -0.304969 -0.513745
-0.411052 0.530362 -0.532938
-0.399717 -0.270664 0.272211
-0.000250 -0.701124 0.299687
-0.400956 -0.271580 0.270400
0.382371 -0.279544 0.283026
0.004965 0.503030 -0.117240
0.394511 0.525590 -0.513764
0.002416 -0.698642 0.300543
0.815828 0.128770 -0.539016
-0.398396 -0.710094 -0.123468
0.000121 -0.699791 0.300520
0.847306 0.521154 -0.097706
0.419652 0.088021 0.719738
-0.829412 0.501190 -0.127648
0.004431 0.102745 -0.511183
0.848144 0.524166 -0.097155
0.009058 -0.670950 -0.524297
0.006628 0.102386 -0.512604
0.003632 0.101422 -0.510462
0.382180 -0.279088 0.284286
-0.830617 0.502736 -0.127768
-0.829858 0.093895 -0.511892
-0.399420 0.498707 0.283923
-0.408859 -0.280676 -0.542356
0.004425 0.504189 -0.119851
0.383119 -0.278992 0.285274
0.413584 0.492565 0.294388
0.393487 0.524467 -0.511666
0.438163 -0.301825 -0.512713
-0.400719 0.498386 0.284649
-0.409822 -0.284168 -0.541837
-0.409947 0.529917 -0.531665
-0.845871 0.102530 0.331397
-0.412799 0.529201 -0.531690
-0.842405 0.100824 0.330513
-0.411852 -0.279399 -0.541984
-0.422835 0.130484 0.746236
0.821010 -0.298529 -0.116070
-0.412279 0.528440 -0.533313
-0.000984 -0.698877 0.300824
0.407400 -0.719472 -0.109078
-0.409636 -0.280974 -0.541221
0.847732 0.522352 -0.095320
0.823689 0.101223 0.310583
-0.411963 0.528514 -0.533242
-0.422644 0.130456 0.747447
0.006439 0.508829 0.706492
-0.422849 0.130502 0.747217
0.003234 0.102440 -0.511577
0.005566 0.101237 -0.510470
-0.402352 0.497725 0.283898
0.816105 0.129626 -0.539499
-0.839039 -0.309695 -0.089627
0.820040 -0.298595 -0.116172
-0.411502 -0.282244 -0.540274
-0.398106 -0.271762 0.271219
-0.400631 0.501257 0.283419
0.009452 0.509299 0.709105
-0.399478 0.497012 0.285617
-0.422240 0.131127 0.747727
0.847225 0.523869 -0.095428
-0.838817 -0.309756 -0.089232
0.002997 0.501713 -0.117414
0.392041 0.527071 -0.511114
0.008450 -0.671603 -0.525841
0.821061 -0.297825 -0.119330
0.407391 -0.718688 -0.109787
0.003889 0.101032 -0.510305
-0.829117 0.094564 -0.510926
-0.412297 0.529037 -0.532561
0.006867 -0.671881 -0.526074
0.822670 0.100834 0.312551
0.005452 0.102920 -0.509959
0.009456 -0.671685 -0.524911
-0.837467 -0.307476 -0.089371
0.009542 -0.673762 -0.526036
0.847514 0.521625 -0.097667
-0.401129 -0.271666 0.270762
0.814319 0.129047 -0.539418
-0.399413 -0.272159 0.272024
0.407752 -0.718086 -0.108445
0.007530 0.511243 0.707837
-0.844977 0.101934 0.330440
0.408246 -0.718210 -0.110298
0.000696 -0.699872 0.298174
-0.843299 0.100553 0.329869
-0.838046 -0.309567 -0.087636
0.821407 0.102490 0.309302
0.408729 -0.719264 -0.109197
-0.000477 -0.699804 0.302163
-0.838869 -0.308914 -0.090067
0.008795 -0.672789 -0.523394
-0.830245 0.501588 -0.126426
0.421130 0.085453 0.721788
-0.400314 -0.709495 -0.123092
0.394133 0.523775 -0.510067
-0.399123 -0.707925 -0.123621
-0.399932 0.497360 0.284503
0.391966 0.525689 -0.513654
0.408777 -0.718926 -0.107760
0.008318 -0.672862 -0.524384
0.415582 0.493275 0.294944
-0.843339 0.101346 0.331182
0.008668 -0.672210 -0.524692
-0.413218 -0.282465 -0.543808
-0.423319 0.129969 0.748250
0.419823 0.084372 0.722194
0.006156 0.102599 -0.513082
0.004485 0.101958 -0.512065
-0.421815 0.130732 0.746364
-0.398019 -0.709429 -0.122308
0.008822 -0.672238 -0.524010
-0.410433 0.528242 -0.532611
0.409510 -0.717863 -0.108793
-0.002901 -0.287864 0.708900
0.009441 -0.670905 -0.525949
-0.423653 0.130318 0.747359
-0.400960 -0.709265 -0.122416
0.409083 -0.717848 -0.108077
-0.424988 0.128836 0.748640
0.819864 -0.296985 -0.117231
-0.409481 -0.280090 -0.542613
-0.002226 -0.287076 0.709544
0.821424 -0.298315 -0.118019
-0.844016 0.101524 0.329689
-0.398443 -0.269991 0.271646
0.009715 -0.672400 -0.523545
0.007400 0.510493 0.710045
0.823022 0.100937 0.310811
0.008663 0.509823 0.708634
-0.413960 0.530087 -0.532548
0.846234 0.522343 -0.097508
0.819735 -0.296404 -0.116331
-0.837325 -0.309464 -0.087604
0.847166 0.524990 -0.096869
-0.003948 -0.288341 0.709911
-0.410134 -0.279922 -0.541589
0.382927 -0.278807 0.282788
0.847314 0.522740 -0.097095
0.815778 0.129878 -0.538621
-0.842479 0.101642 0.329555
-0.421004 0.131838 0.747969
-0.002673 -0.286988 0.710341
0.005671 0.503207 -0.118492
-0.401215 -0.273873 0.270708
-0.837705 -0.309962 -0.088501
0.003545 0.502132 -0.118225
-0.399721 -0.272311 0.268932
0.383786 -0.278564 0.285209
0.383076 -0.276251 0.284638
-0.401697 -0.709286 -0.121884
0.004144 0.101143 -0.511915
-0.839773 -0.307950 -0.089159
-0.002297 -0.287115 0.708879
-0.829814 0.093915 -0.511283
0.845697 0.522678 -0.097736
-0.410567 -0.281996 -0.543146
-0.830139 0.501325 -0.128867
