OFF
256 0 0
0.844453 -0.334993 -0.104083
-0.430829 0.509885 -0.552672
0.002986 -0.270144 0.701016
-0.403014 0.125052 0.712348
0.007190 -0.695527 0.304163
0.422692 -0.320520 -0.511358
-0.826869 0.516337 -0.126700
-0.859040 -0.287857 -0.116469
0.841963 0.529522 -0.105646
-0.011003 0.516786 -0.107604
0.003437 -0.270824 0.703217
0.016290 0.084549 -0.538705
-0.010683 0.518811 -0.105353
0.417434 0.507471 0.305048
0.417348 0.495868 -0.505095
-0.418658 0.512872 0.281979
0.419406 0.496216 -0.507711
-0.858158 -0.288414 -0.120498
0.417492 0.496930 -0.507039
-0.825169 0.515842 -0.128335
-0.858208 -0.288559 -0.115263
0.823458 0.088117 0.286148
0.846202 0.094030 -0.513644
-0.860348 -0.288407 -0.115387
0.842786 0.529325 -0.105363
0.402151 -0.257877 0.299476
0.000573 -0.270572 0.701654
0.018222 0.082839 -0.536785
-0.857854 -0.288292 -0.116270
0.826434 0.089483 0.285036
0.014491 0.083731 -0.537020
-0.414883 -0.273127 -0.504478
0.418677 0.495750 -0.507052
0.402649 -0.715288 -0.080580
0.426131 0.119352 0.725548
0.402694 -0.715587 -0.080407
-0.402350 0.124440 0.713953
-0.403525 0.124411 0.712021
-0.825958 0.513584 -0.125766
0.842975 0.530382 -0.105148
-0.021005 -0.696136 -0.490876
-0.825010 0.516921 -0.126621
-0.419425 -0.709098 -0.105261
0.400951 -0.716944 -0.080938
-0.017752 0.545430 0.712111
-0.416258 -0.272034 -0.505631
-0.431007 0.509588 -0.552831
0.417260 0.504864 0.303767
0.007763 -0.695026 0.304264
0.015246 0.085210 -0.540035
0.401743 -0.714956 -0.081088
-0.417521 -0.273937 -0.505046
-0.826774 0.516027 -0.126522
-0.015558 0.544049 0.714058
0.017449 0.083635 -0.539561
0.416077 0.496346 -0.505998
-0.400680 -0.282572 0.275131
-0.430595 0.509313 -0.554186
-0.858158 -0.286597 -0.117780
-0.400857 -0.284068 0.276320
0.826011 0.087954 0.286697
-0.857882 -0.289983 -0.116843
-0.416574 -0.272695 -0.503859
-0.418308 -0.273605 -0.504113
0.842060 0.527193 -0.105929
-0.811902 0.093764 0.278739
-0.008947 0.518373 -0.106672
0.844875 0.095522 -0.511679
-0.016146 0.541533 0.712176
0.826229 0.089193 0.288192
0.414582 0.505637 0.305844
-0.419668 0.511669 0.281203
-0.402107 0.123585 0.712949
-0.009529 0.516626 -0.105565
-0.009054 0.517522 -0.106215
0.423356 -0.321197 -0.511718
0.009073 -0.696851 0.301163
0.826378 0.088428 0.286696
0.417091 0.506248 0.304979
0.843455 0.528582 -0.105706
0.840604 0.529590 -0.104613
-0.416897 -0.275397 -0.504585
0.007970 -0.695294 0.304463
0.845928 0.097500 -0.513543
-0.397390 -0.283497 0.275560
0.016467 0.085801 -0.538642
0.426414 0.118534 0.724425
-0.015006 0.542041 0.713425
0.002692 -0.271026 0.703017
-0.840593 0.103789 -0.522073
0.401911 -0.256728 0.297630
0.016621 0.084127 -0.538562
-0.419339 -0.710892 -0.105634
-0.811442 0.093548 0.281207
0.418256 0.495495 -0.507387
0.417875 0.496587 -0.507560
-0.015629 0.543396 0.712273
-0.403486 0.124422 0.713447
-0.016781 0.544791 0.713123
0.423294 -0.319172 -0.511714
-0.429731 0.509262 -0.552905
-0.839135 0.105071 -0.523749
0.826305 0.088245 0.284947
-0.404068 0.123217 0.715805
0.422728 -0.320146 -0.511577
0.016325 0.086733 -0.538102
-0.420760 0.512908 0.282076
-0.856812 -0.286968 -0.117313
0.002550 -0.271268 0.702969
-0.838633 0.105188 -0.521122
-0.418403 -0.710336 -0.106582
-0.015065 0.545153 0.712483
0.843127 -0.333127 -0.102427
0.841188 -0.333808 -0.103469
-0.838015 0.102457 -0.521116
0.843866 -0.333668 -0.103611
0.424835 -0.319465 -0.513201
-0.420795 -0.709264 -0.107211
0.403409 -0.715860 -0.080410
0.413809 0.508819 0.305862
0.426123 0.120474 0.725227
-0.404003 0.123800 0.713885
0.842935 0.529217 -0.106431
0.001323 -0.270370 0.701513
0.401822 -0.255281 0.299532
0.007832 -0.696057 0.302145
-0.430344 0.510706 -0.552606
0.845860 0.096305 -0.510856
0.422224 -0.318415 -0.512081
-0.838053 0.105462 -0.521530
0.825014 0.090665 0.287706
-0.009747 0.516942 -0.105466
0.415937 0.496757 -0.507450
0.426764 0.118832 0.725140
-0.400230 -0.284053 0.275974
0.417887 0.493860 -0.506712
0.401201 -0.716342 -0.081545
0.843644 0.527657 -0.106497
0.418013 0.494959 -0.506412
-0.417010 -0.273906 -0.505160
0.418109 0.495806 -0.507690
0.416357 0.494830 -0.505524
-0.813466 0.095803 0.280467
0.423303 -0.321447 -0.512461
-0.857791 -0.287552 -0.119077
-0.826770 0.515146 -0.124709
-0.418428 -0.710027 -0.107256
-0.431604 0.511577 -0.553418
0.008205 -0.695464 0.302638
-0.859460 -0.288672 -0.115410
-0.416058 -0.274307 -0.505126
-0.019530 -0.696306 -0.493669
0.841443 0.527745 -0.107209
0.827078 0.088642 0.286011
-0.023428 -0.695008 -0.491090
-0.021732 -0.696673 -0.490392
0.844747 0.094420 -0.512283
0.842872 0.526655 -0.106594
0.001056 -0.270697 0.703042
-0.839020 0.103720 -0.520405
0.009206 -0.695277 0.303162
-0.021525 -0.694632 -0.490170
0.843802 0.528040 -0.105253
-0.020597 -0.696605 -0.491593
-0.401722 0.123910 0.712095
-0.414972 -0.273761 -0.505237
-0.021214 -0.696761 -0.489919
-0.825281 0.515560 -0.125893
-0.008250 0.518768 -0.105437
0.841437 0.529013 -0.106323
-0.010039 0.516734 -0.106263
-0.016075 0.544458 0.712090
0.008084 -0.695694 0.302443
0.002415 -0.270663 0.701909
-0.017156 0.544255 0.712965
0.417597 0.496067 -0.506361
0.401899 -0.716650 -0.082835
-0.401050 -0.284158 0.274966
-0.419056 -0.707804 -0.106428
-0.399678 -0.282446 0.276989
0.013782 0.085031 -0.538039
0.427680 0.117289 0.726697
-0.420711 0.511886 0.280834
-0.837233 0.104832 -0.521033
0.415280 0.506956 0.306134
-0.838811 0.104371 -0.522079
0.825051 0.089125 0.285567
0.003204 -0.270408 0.702235
0.006532 -0.696472 0.303105
-0.812325 0.094465 0.279749
0.843323 -0.334501 -0.103317
0.427946 0.118717 0.726014
0.400518 -0.256935 0.297794
-0.421287 0.513006 0.280588
-0.415543 -0.273340 -0.504543
0.424736 -0.318866 -0.513571
0.840934 0.528657 -0.105440
0.843124 0.529736 -0.106693
0.402207 -0.255087 0.299847
-0.418531 -0.710362 -0.106171
-0.417346 -0.272878 -0.504540
0.422646 -0.318818 -0.512408
0.004162 -0.271120 0.700919
-0.403468 0.122697 0.713249
0.416153 0.506285 0.305177
0.842247 0.527595 -0.105031
0.003861 -0.269361 0.702372
-0.416137 -0.273728 -0.504008
0.400238 -0.257397 0.298656
-0.430501 0.510136 -0.553125
0.423439 -0.318612 -0.510072
0.842291 0.527144 -0.105361
-0.420023 0.514096 0.280447
0.427248 0.120713 0.724791
-0.429379 0.510171 -0.553654
-0.015264 0.546271 0.711697
-0.825975 0.516466 -0.127425
-0.430739 0.508965 -0.553340
0.842640 -0.333678 -0.104022
-0.402625 0.125045 0.715585
0.009853 -0.694410 0.303186
-0.418913 -0.710176 -0.105764
-0.401745 0.123772 0.714714
0.423110 -0.320089 -0.512483
0.016224 0.086254 -0.537661
0.417229 0.494914 -0.507401
-0.417442 -0.273777 -0.504553
0.003092 -0.269831 0.703178
0.842955 -0.334173 -0.103181
0.007784 -0.695279 0.303704
-0.418675 0.512679 0.280478
0.824964 0.089274 0.286600
0.842567 -0.332920 -0.102214
-0.016109 0.542969 0.713439
0.415094 0.506128 0.306054
-0.017053 0.544144 0.712390
-0.416101 -0.273871 -0.505619
0.422391 -0.319576 -0.511357
0.844954 0.095721 -0.511679
0.002919 -0.269224 0.701884
0.841828 0.528999 -0.107553
-0.009651 0.517067 -0.105607
-0.401210 -0.283544 0.274636
0.011518 -0.696664 0.304371
-0.414544 -0.273637 -0.504800
0.840903 0.529362 -0.105057
0.403747 -0.715989 -0.079895
0.417436 0.506034 0.304505
-0.811895 0.094146 0.280393
-0.416208 -0.273163 -0.504899
-0.009708 0.516660 -0.105826
0.843097 -0.334228 -0.102891
0.844918 0.094276 -0.511760
0.415831 0.506948 0.306652
-0.401525 0.124848 0.712219
-0.859121 -0.289495 -0.116929
