OFF
256 0 0
0.636184 0.605209 0.297822
0.190687 0.133637 -0.599550
0.637206 -0.308781 -0.593243
-0.282410 -0.254884 -0.602214
-0.750226 0.607605 -0.188899
-0.280414 -0.279028 0.267025
-0.279972 -0.279785 0.268587
-0.285364 -0.732749 -0.160380
0.635255 -0.308901 -0.593199
-0.285360 -0.734201 -0.159449
-0.282720 -0.279497 0.265379
0.602356 -0.766029 -0.133161
0.189845 0.133926 -0.597820
-0.281619 -0.256026 -0.602555
0.646964 0.149717 -0.174030
-0.749546 0.611134 -0.190966
0.634972 0.605153 0.298706
0.144211 -0.271670 0.730467
0.174385 -0.739966 0.298569
0.635750 -0.308061 -0.592176
0.644635 0.148762 -0.171722
-0.305306 0.603666 -0.643689
-0.286166 -0.734216 -0.160697
-0.726962 0.152273 0.259499
0.165014 0.622137 -0.149175
-0.284452 -0.732327 -0.158065
-0.283522 -0.253524 -0.601201
0.166067 0.623141 -0.149348
-0.284960 -0.733355 -0.159354
0.145354 0.635971 0.737443
-0.724378 0.153157 0.261101
0.145812 0.635031 0.735266
-0.776636 -0.269975 -0.172592
-0.305288 0.601333 -0.646385
-0.762388 0.153495 -0.629555
0.147624 -0.271293 0.730069
-0.776497 -0.269914 -0.173139
0.164236 0.623084 -0.149279
0.189857 0.134321 -0.599828
-0.774909 -0.269854 -0.174702
0.162900 0.622293 -0.149828
0.144195 -0.271920 0.729198
-0.776494 -0.268963 -0.173161
0.176316 -0.741467 0.300141
-0.750897 0.608020 -0.189907
0.165477 0.622563 -0.149619
0.601193 -0.764467 -0.131221
-0.282649 -0.255168 -0.602187
-0.300365 0.614681 0.261455
-0.281835 -0.279852 0.266323
0.601406 -0.767452 -0.130791
0.175956 -0.739233 0.301075
-0.762194 0.157139 -0.626786
-0.279923 -0.279268 0.265987
-0.280270 -0.281213 0.265937
-0.748971 0.606496 -0.190043
0.145272 0.635231 0.736515
0.635822 -0.284626 0.302301
0.190618 0.134796 -0.600721
0.602050 -0.766261 -0.131097
-0.281480 -0.255442 -0.600898
0.638183 -0.286435 0.303246
-0.762243 0.153965 -0.628345
0.166785 0.624021 -0.149083
0.625382 0.174593 0.742765
-0.751905 0.608487 -0.189123
0.177679 -0.735600 0.300702
0.602688 -0.765861 -0.131548
-0.774955 -0.270291 -0.173597
-0.726262 0.151660 0.260323
0.637415 -0.282522 0.302783
0.144238 0.635796 0.734608
0.638273 -0.286374 0.303215
-0.304677 0.600215 -0.648245
-0.723843 0.152321 0.260118
-0.726199 0.152213 0.258225
-0.299719 0.615264 0.261613
0.143682 -0.272083 0.730611
-0.281621 0.173080 0.737903
0.177433 -0.736551 0.301793
0.176547 -0.738881 0.300225
-0.724707 0.153132 0.262021
-0.749063 0.610845 -0.189986
0.190902 0.132582 -0.600734
-0.762697 0.155261 -0.627221
-0.284964 -0.734200 -0.158818
-0.283371 -0.281622 0.263369
-0.303262 0.614292 0.260667
0.633695 0.607162 0.297230
-0.301565 0.614056 0.263453
0.192388 0.134166 -0.599230
0.146682 -0.718197 -0.594428
0.635343 -0.309527 -0.593818
-0.283821 -0.733682 -0.161289
0.637925 -0.284540 0.303204
0.145958 0.635277 0.736480
0.634463 -0.308348 -0.594434
-0.761601 0.154924 -0.626728
-0.751320 0.607994 -0.192454
0.624551 0.173962 0.741391
0.599841 -0.765751 -0.131178
0.145717 -0.270443 0.731366
0.634923 0.607066 0.299222
0.149940 -0.719853 -0.592311
0.633440 -0.309837 -0.593702
-0.298664 0.615471 0.262334
-0.305795 0.601343 -0.644111
-0.762345 0.155214 -0.627239
-0.776564 -0.269383 -0.171959
-0.763415 0.155742 -0.628515
0.623205 0.174036 0.741861
0.636655 -0.284055 0.302714
-0.285491 -0.734553 -0.159325
0.637560 -0.284047 0.303553
0.637407 -0.284016 0.301707
-0.285273 -0.732738 -0.159612
-0.283693 -0.254218 -0.603312
-0.762105 0.153958 -0.627988
-0.279702 -0.280510 0.265491
-0.776617 -0.268423 -0.172764
0.638490 -0.282831 0.303842
0.600502 -0.765800 -0.131359
0.637919 -0.284201 0.302815
0.174677 -0.740595 0.300893
0.146583 -0.720305 -0.594498
0.146118 0.635246 0.734734
-0.302392 0.616136 0.261235
0.145433 0.635931 0.734015
0.175192 -0.738238 0.299998
0.639104 -0.283976 0.302858
-0.761798 0.155147 -0.626704
-0.301972 0.616031 0.264855
0.190406 0.133731 -0.601400
0.647096 0.147879 -0.172849
-0.281751 0.171489 0.738676
0.146365 -0.271412 0.730747
0.638592 -0.285315 0.302703
0.647114 0.147217 -0.175118
-0.726634 0.153134 0.260460
0.647196 0.147220 -0.172706
0.636083 -0.306731 -0.592118
-0.299852 0.613496 0.262856
-0.725623 0.151590 0.260344
0.174601 -0.737401 0.301253
0.149039 -0.720131 -0.595146
0.637390 -0.307733 -0.592466
0.165476 0.623607 -0.149076
-0.300144 0.615430 0.262581
0.167515 0.624353 -0.147910
0.177477 -0.739385 0.303508
0.634504 -0.307907 -0.593965
-0.776885 -0.269320 -0.175176
0.647462 0.149753 -0.170562
0.163564 0.623452 -0.149226
0.635130 -0.309224 -0.591497
0.144387 -0.271347 0.728933
0.189283 0.135235 -0.600063
0.633763 0.604232 0.298713
0.635707 -0.307128 -0.593130
0.646383 0.146164 -0.169934
-0.299466 0.612750 0.262880
-0.773516 -0.269868 -0.172854
-0.775247 -0.270839 -0.175273
0.600854 -0.764790 -0.132315
0.625714 0.174699 0.743692
0.144747 -0.271078 0.731170
0.646510 0.147904 -0.172613
0.143657 -0.272013 0.729660
0.166097 0.623495 -0.150102
-0.284226 0.171528 0.736893
-0.725691 0.151841 0.260181
-0.282617 -0.253330 -0.601358
-0.725514 0.152222 0.259664
0.633810 0.605826 0.297834
-0.282136 -0.254963 -0.601521
-0.286245 -0.734396 -0.159435
-0.725213 0.153084 0.260597
-0.724788 0.152271 0.261793
0.190400 0.133294 -0.599629
0.644595 0.148573 -0.171418
0.646017 0.145810 -0.173047
-0.280634 -0.281063 0.265732
0.601992 -0.765504 -0.134219
0.191088 0.135048 -0.598040
-0.282262 -0.255839 -0.602030
0.165642 0.624887 -0.150242
-0.725085 0.152422 0.261779
0.144305 -0.272299 0.729150
0.637383 -0.309350 -0.593933
-0.281530 -0.280301 0.267269
-0.750650 0.608882 -0.188273
-0.280755 -0.278703 0.267096
0.146329 0.636036 0.734544
0.190595 0.132990 -0.601017
-0.750213 0.609219 -0.189818
-0.281324 -0.280292 0.266772
-0.761724 0.155840 -0.629385
-0.748338 0.607498 -0.190586
-0.286301 -0.734390 -0.160568
-0.305019 0.603629 -0.646024
0.145247 -0.271268 0.730674
-0.300425 0.614515 0.264251
-0.775746 -0.268366 -0.173105
0.176360 -0.737961 0.301712
-0.725164 0.153058 0.260954
-0.281459 -0.277768 0.264640
-0.282696 0.173742 0.738807
-0.285887 -0.734000 -0.158589
-0.304917 0.601284 -0.644994
-0.726518 0.151769 0.260816
-0.749719 0.609483 -0.189656
-0.284811 -0.735648 -0.159430
-0.775826 -0.270210 -0.173242
-0.280088 -0.280444 0.266409
0.147525 -0.718523 -0.595527
-0.281593 -0.280710 0.265884
-0.281999 0.173653 0.738880
0.636441 -0.308141 -0.593472
-0.762898 0.154764 -0.626816
-0.301335 0.614369 0.264912
-0.304178 0.602367 -0.646851
-0.762854 0.155233 -0.625069
-0.300811 0.614316 0.264054
0.144173 -0.272754 0.729827
-0.281510 -0.280808 0.265648
-0.285883 -0.733345 -0.159963
0.638195 -0.282739 0.303597
0.635288 -0.309419 -0.593115
0.147891 -0.722037 -0.594465
0.635810 0.605759 0.300037
0.190176 0.133450 -0.601607
0.624583 0.174411 0.741672
0.601507 -0.764535 -0.132344
-0.286047 -0.734514 -0.159673
-0.281426 -0.280186 0.266189
0.149339 -0.718414 -0.593833
0.625341 0.174455 0.743771
0.625289 0.173974 0.744121
-0.282474 -0.255613 -0.600666
0.647218 0.149196 -0.172867
0.647474 0.147395 -0.173133
0.143635 -0.271984 0.730057
-0.281916 -0.254149 -0.603212
-0.761850 0.154615 -0.625219
-0.776663 -0.271277 -0.173109
-0.281985 0.172224 0.739939
-0.280878 -0.279960 0.265408
0.176092 -0.738135 0.302261
0.637347 -0.283113 0.302931
-0.752201 0.608000 -0.190096
-0.288336 -0.734522 -0.161856
-0.306515 0.602436 -0.645831
0.144449 -0.273214 0.729447
-0.762712 0.157361 -0.627313
0.624036 0.175771 0.742794
0.637420 -0.284102 0.304383
