OFF
256 0 0
-0.635217 0.153852 -0.146702
-0.131254 0.597699 -0.134025
0.743658 0.168025 0.295761
-0.607275 0.620020 0.289700
0.277684 -0.284921 -0.615533
0.296401 0.611367 0.292719
0.741263 0.150490 -0.651217
-0.167169 -0.739261 0.246935
-0.638464 -0.307511 0.289512
0.273856 -0.257657 0.253087
0.279572 -0.284266 -0.619378
-0.154894 0.634571 0.739860
-0.167083 -0.737673 0.245753
0.269570 0.159394 0.748443
-0.605033 -0.289410 -0.604697
-0.166076 -0.740108 0.244750
-0.599377 0.189161 0.738832
0.741855 0.149615 -0.655620
-0.153995 0.634806 0.741004
-0.152387 0.635802 0.740932
-0.607914 0.620520 0.289787
0.740384 0.149207 -0.655623
0.737926 0.605011 -0.158076
-0.130864 0.597862 -0.131750
0.295515 -0.766598 -0.156072
0.313675 0.595003 -0.635316
-0.177405 0.195471 -0.595726
-0.154085 0.633754 0.741335
0.311349 0.594653 -0.636068
0.744729 0.169989 0.295808
0.738046 0.605226 -0.158747
0.278496 -0.284899 -0.619138
-0.605746 -0.290139 -0.604751
0.277494 -0.286462 -0.619240
0.744337 0.170479 0.294538
0.273417 -0.256532 0.254097
0.744217 0.169746 0.292393
-0.164992 -0.274526 0.720997
-0.167417 -0.738863 0.246146
-0.178970 0.196337 -0.597762
-0.175930 0.196549 -0.596499
0.738010 -0.285188 -0.140106
-0.175511 0.194909 -0.596784
-0.608588 0.619925 0.290603
-0.167406 -0.738154 0.248318
-0.605912 -0.289468 -0.604743
-0.178579 0.195093 -0.596116
-0.633021 0.151938 -0.145377
0.313152 0.594767 -0.635761
0.738206 -0.283194 -0.142353
0.743279 0.168451 0.294489
-0.608950 0.618362 0.290721
0.313429 0.596556 -0.634178
-0.604878 -0.289008 -0.605657
-0.607649 0.619785 0.290442
-0.598234 0.189087 0.737397
0.269119 0.158237 0.750203
0.741048 0.149958 -0.653820
-0.599456 0.190668 0.738171
0.296433 0.612119 0.293069
0.737428 -0.284804 -0.142597
-0.165632 -0.738571 0.245697
0.313001 0.596480 -0.635788
-0.604381 -0.289297 -0.604231
-0.129153 0.598751 -0.133547
0.743674 0.167749 0.295262
-0.175939 0.195329 -0.597059
-0.634477 0.153085 -0.147076
-0.166200 -0.738319 0.245404
0.277356 -0.284958 -0.617419
-0.176893 0.194139 -0.596488
0.277815 -0.284791 -0.618542
0.312276 0.595107 -0.633923
0.275853 -0.285426 -0.618896
-0.598850 0.191244 0.736448
0.737112 -0.285971 -0.140227
0.297045 0.611840 0.293818
-0.177808 0.194281 -0.597660
-0.600728 0.190430 0.737184
0.742272 0.149729 -0.653902
-0.635897 -0.308207 0.288758
-0.177357 0.196660 -0.597391
0.313530 0.595182 -0.635868
0.741783 0.150043 -0.653339
-0.599020 0.190056 0.738240
0.296182 0.610487 0.293131
0.737433 0.605151 -0.157467
-0.177380 0.197190 -0.597225
-0.604680 -0.289859 -0.606779
0.744646 0.168774 0.294496
-0.152297 0.632992 0.740562
0.737867 -0.284640 -0.140701
0.737147 0.605329 -0.158238
-0.640350 -0.308109 0.290342
-0.166961 -0.739510 0.246385
-0.176502 0.195072 -0.597757
-0.167674 -0.740187 0.247395
-0.130687 0.596716 -0.133356
-0.638667 -0.307967 0.291714
0.276760 -0.284917 -0.619383
-0.154139 0.634808 0.738375
-0.632064 0.153870 -0.148356
0.745810 0.170226 0.295117
0.293562 -0.764307 -0.158851
-0.175875 0.195312 -0.598946
-0.167864 -0.740836 0.245595
0.293178 -0.765034 -0.156361
0.736055 0.605555 -0.159030
-0.633726 -0.728835 -0.166437
0.268543 0.159480 0.747265
-0.175385 -0.749411 -0.598346
-0.604694 -0.290912 -0.606521
-0.130824 0.597188 -0.131390
-0.604404 -0.287634 -0.606113
-0.130391 0.597855 -0.134230
-0.598378 0.189407 0.738292
0.277831 -0.283592 -0.616367
-0.155583 0.636585 0.740077
-0.167898 -0.274735 0.718154
0.269737 0.158604 0.748924
-0.165729 -0.272608 0.718517
-0.177506 0.195882 -0.596805
-0.632621 0.153087 -0.146681
0.735006 -0.285338 -0.141695
-0.176176 -0.747817 -0.598567
-0.153485 0.635723 0.739980
-0.129496 0.596873 -0.133283
0.268876 0.161137 0.749813
0.292905 -0.765326 -0.158153
0.266614 0.159251 0.750000
-0.604064 -0.288645 -0.605184
0.275267 -0.255908 0.253175
-0.131533 0.597054 -0.133510
0.269059 0.158901 0.749520
-0.632989 0.153360 -0.147396
-0.155219 0.634697 0.741831
-0.167497 -0.274736 0.718711
0.312652 0.594350 -0.635715
0.737972 0.607481 -0.158617
0.269432 0.159424 0.748223
0.737592 0.603897 -0.157882
0.743497 0.169813 0.296900
-0.597954 0.190366 0.737129
0.297348 0.609925 0.292944
0.295307 -0.763790 -0.157765
-0.635353 -0.731475 -0.166319
0.292836 -0.765779 -0.159008
0.310921 0.597326 -0.633670
0.312181 0.596080 -0.634538
0.278385 -0.284078 -0.617961
-0.608148 0.619322 0.289565
0.292705 -0.764632 -0.157953
0.737829 -0.284999 -0.140202
-0.608288 0.620979 0.289451
0.742782 0.148045 -0.653341
0.743798 0.169292 0.296844
-0.167007 -0.740243 0.244708
0.269161 0.159635 0.750966
0.737616 -0.284051 -0.141028
-0.172752 -0.750359 -0.597607
-0.177073 0.195322 -0.598048
0.740993 0.148962 -0.653792
-0.636494 -0.305527 0.287617
0.270261 0.159515 0.750044
-0.166637 -0.740656 0.245922
-0.605456 0.619345 0.290845
-0.636172 -0.731459 -0.167448
-0.633662 0.152379 -0.146263
0.311824 0.593751 -0.634841
0.277810 -0.282687 -0.616406
-0.165722 -0.735893 0.247096
-0.635028 -0.730804 -0.166383
-0.635807 -0.307637 0.289949
0.270651 0.159521 0.748179
-0.155681 0.637212 0.739362
0.313043 0.595205 -0.635435
-0.167437 -0.739859 0.246016
0.299708 0.611902 0.291373
-0.631631 0.153012 -0.147539
-0.637174 -0.308048 0.288260
-0.177006 0.196507 -0.597115
-0.606561 0.620648 0.290320
0.313111 0.594141 -0.636767
-0.604794 -0.290062 -0.605377
0.736916 0.606815 -0.158538
0.272843 -0.256464 0.253261
-0.603393 -0.287845 -0.606930
-0.174548 -0.749424 -0.597788
-0.167161 -0.275895 0.720671
-0.637780 -0.308753 0.290459
-0.635077 -0.731421 -0.165946
-0.603331 -0.289108 -0.607245
-0.603969 -0.289668 -0.605830
0.292125 -0.765918 -0.155723
-0.634691 -0.730238 -0.166793
-0.167317 -0.273640 0.719332
-0.176205 0.195082 -0.596213
0.738946 -0.284515 -0.140225
0.741666 0.149845 -0.652664
0.313274 0.594428 -0.636288
-0.178566 0.194594 -0.597479
-0.168227 -0.275256 0.718693
0.294242 -0.765393 -0.154430
0.737978 0.607986 -0.158286
0.740774 0.149336 -0.653968
0.739640 0.150613 -0.655972
0.293835 -0.764986 -0.157442
-0.127640 0.597368 -0.132410
0.312244 0.594545 -0.636879
0.737399 0.605509 -0.159490
-0.597306 0.191200 0.737452
-0.174866 -0.749737 -0.599438
-0.605166 -0.289645 -0.607495
-0.603280 -0.291098 -0.608082
0.745603 0.169992 0.294606
-0.607885 0.621300 0.290271
-0.166643 -0.274569 0.721861
-0.601077 -0.291113 -0.606313
0.276219 -0.285371 -0.618464
0.738441 0.607936 -0.159052
0.268256 0.160270 0.748602
0.736506 0.604939 -0.156617
0.277543 -0.282049 -0.619346
-0.596965 0.189151 0.738727
-0.175622 -0.748423 -0.598763
0.292917 -0.764045 -0.157697
0.298241 0.612523 0.292673
0.741534 0.151884 -0.653233
-0.609759 0.619987 0.290044
-0.167007 -0.274889 0.719206
-0.168259 -0.275472 0.719056
-0.177226 0.196125 -0.597432
-0.177131 0.195106 -0.595821
-0.604543 -0.289272 -0.606078
0.744678 0.169873 0.293184
-0.153654 0.635574 0.740187
0.311800 0.593505 -0.635921
0.294273 -0.764388 -0.155454
0.743028 0.150132 -0.655758
-0.172797 -0.749197 -0.597542
0.736637 0.605715 -0.158035
-0.635772 -0.731492 -0.167206
0.735007 0.604885 -0.157951
-0.175807 0.196535 -0.596676
0.276076 -0.255725 0.251432
-0.173266 -0.750252 -0.597793
-0.130939 0.596508 -0.132135
0.268858 0.157872 0.749595
-0.598197 0.190561 0.737219
-0.600905 0.191690 0.737487
0.274127 -0.257353 0.252750
0.739256 0.605734 -0.158984
-0.130779 0.597779 -0.132638
-0.167880 -0.274849 0.718000
-0.597758 0.190456 0.738065
0.296421 0.609908 0.293018
