OFF
256 0 0
0.757132 -0.137605 -0.622239
0.736996 -0.592328 -0.178125
0.273045 0.302938 0.263291
-0.645174 0.728936 -0.171516
-0.635117 -0.178845 0.694618
0.773413 -0.142484 0.312748
0.275891 -0.628202 -0.654093
0.764084 0.292831 -0.143698
-0.141963 0.752407 -0.571033
0.762799 0.290999 -0.142395
0.272573 0.301375 0.260370
-0.163865 0.723521 0.287459
0.763539 0.292150 -0.145009
0.275160 -0.629712 -0.653119
0.280319 0.298133 -0.629326
0.772957 -0.143460 0.314145
-0.153127 -0.615210 -0.165797
-0.647029 0.729568 -0.173334
-0.637092 -0.658961 0.301505
0.280163 0.297537 -0.630837
-0.646918 0.728689 -0.173522
0.763167 0.292947 -0.143144
-0.164988 0.723932 0.286942
0.773762 -0.143869 0.315110
-0.614432 0.274137 -0.608608
0.735958 -0.591759 -0.176314
-0.613684 0.274802 -0.607249
-0.635835 -0.657833 0.301367
0.312164 0.757792 -0.152292
-0.636129 -0.177517 0.696357
0.762746 0.291339 -0.143848
0.277330 -0.157341 0.735578
-0.141630 0.752343 -0.572836
0.762588 0.293682 -0.142869
-0.636231 -0.659903 0.302477
0.276674 -0.156867 0.737668
0.279379 0.297391 -0.631796
0.759918 -0.138819 -0.621972
-0.149875 -0.603660 0.783870
-0.637661 -0.658689 0.303188
-0.645022 0.727458 -0.172428
-0.152877 -0.616285 -0.165420
0.290866 -0.597880 0.260061
0.274229 -0.626546 -0.655294
-0.144539 0.752676 -0.571709
0.291510 -0.596751 0.261754
0.774812 -0.143333 0.314385
0.273505 0.303472 0.262601
0.275118 -0.628647 -0.654014
-0.155150 -0.616723 -0.166332
-0.637467 -0.659006 0.302035
0.274264 -0.628312 -0.651203
0.738014 -0.592515 -0.177914
0.275374 -0.156481 0.737281
-0.616016 0.276384 -0.609146
0.291429 -0.596894 0.259794
0.278937 0.296611 -0.629433
-0.143181 0.752839 -0.571074
-0.166161 0.723938 0.287064
0.291546 -0.596496 0.262261
-0.154153 -0.615544 -0.166916
0.758287 -0.137143 -0.621469
-0.627398 0.276024 0.296650
-0.182087 -0.174520 -0.638342
-0.637287 -0.204324 -0.139709
-0.637093 -0.204335 -0.139493
-0.636912 -0.206027 -0.141548
-0.635649 -0.177717 0.697264
-0.180352 -0.174036 -0.639948
0.758293 -0.137353 -0.622212
0.312460 0.757644 -0.154797
-0.636841 -0.657715 0.302796
-0.148601 0.281354 0.744903
-0.615711 0.275798 -0.608952
0.274310 -0.629014 -0.654762
0.758775 -0.138684 -0.623483
-0.164605 0.724495 0.288066
0.275853 -0.627716 -0.652350
-0.165189 0.722334 0.285548
0.762872 0.292386 -0.140919
0.772326 -0.143000 0.313724
-0.637076 -0.205926 -0.141327
0.764263 0.291402 -0.143146
-0.635637 -0.658456 0.302836
0.277678 -0.157336 0.736762
-0.635853 -0.177829 0.694358
-0.155603 -0.615971 -0.164612
-0.150111 0.280993 0.744981
-0.152145 0.280715 0.745147
-0.163665 0.724409 0.289243
0.272630 0.301288 0.261773
-0.636578 -0.659148 0.302687
0.277944 -0.156561 0.737266
0.312334 0.759115 -0.154013
-0.148354 -0.605680 0.783128
-0.165011 0.723770 0.288266
-0.645884 0.727605 -0.172425
0.758693 -0.138300 -0.623374
0.274955 -0.628708 -0.655511
-0.646623 0.729230 -0.171685
0.275599 -0.627165 -0.655154
-0.149568 -0.605020 0.782448
-0.142497 0.749853 -0.572747
-0.165870 0.722796 0.287486
0.272556 0.302583 0.264476
-0.628668 0.277498 0.294918
0.773691 -0.143133 0.312472
-0.166072 0.724679 0.286586
0.763889 0.293240 -0.142035
0.312702 0.757567 -0.154190
-0.616295 0.276249 -0.609762
0.758290 -0.137859 -0.624089
0.758914 -0.135912 -0.623640
0.773486 -0.142920 0.312830
0.277298 -0.157198 0.737501
-0.143839 0.753122 -0.570358
-0.616368 0.275070 -0.607386
0.311772 0.758517 -0.154065
-0.626981 0.278118 0.295162
0.738390 -0.591983 -0.177258
0.773855 -0.143887 0.314345
-0.140894 0.751484 -0.572851
-0.635583 -0.658561 0.302077
0.774664 -0.143819 0.314613
0.279908 0.298204 -0.630333
-0.623568 0.275897 0.296866
-0.614218 0.275993 -0.608813
-0.148806 -0.602108 0.783518
0.291115 -0.598322 0.261205
0.772687 -0.142899 0.315180
-0.625970 0.274753 0.294766
-0.614806 0.274310 -0.609325
-0.164662 0.723128 0.285648
-0.143418 0.749819 -0.571627
0.737628 -0.591894 -0.177570
-0.144128 0.753225 -0.572076
-0.634769 -0.178845 0.697545
0.273174 0.302190 0.262284
0.289712 -0.595819 0.262763
-0.165829 0.723572 0.285625
-0.645191 0.728529 -0.171880
-0.636144 -0.203763 -0.138630
-0.182047 -0.175462 -0.638610
0.758252 -0.136672 -0.622116
0.759315 -0.137643 -0.623627
-0.150999 0.281774 0.743387
-0.636122 -0.204710 -0.141767
-0.639298 -0.660748 0.303611
-0.643935 0.731582 -0.173867
0.763291 0.291596 -0.142469
0.773363 -0.142630 0.314829
-0.143816 0.751136 -0.574048
0.272786 0.304409 0.262431
-0.613878 0.277482 -0.608497
0.292905 -0.598261 0.262273
0.273539 0.305416 0.262025
-0.147682 -0.600845 0.785365
-0.154217 -0.614653 -0.165052
0.270449 0.302539 0.263457
-0.143740 0.753160 -0.570486
0.737587 -0.590758 -0.178270
0.762094 0.291129 -0.143393
-0.165234 0.724053 0.287230
0.274908 -0.628687 -0.655144
0.313947 0.758500 -0.152496
-0.148441 -0.603780 0.782874
-0.154548 -0.615164 -0.166129
0.762701 0.290846 -0.140376
0.276480 -0.157152 0.737607
-0.633872 -0.177714 0.695884
-0.636036 -0.177498 0.695654
0.311606 0.757070 -0.153878
-0.637849 -0.204670 -0.141867
-0.155222 -0.615427 -0.166838
-0.149643 -0.603086 0.782784
0.737268 -0.592428 -0.177792
-0.154564 -0.616633 -0.163882
-0.648038 0.726756 -0.175613
0.758190 -0.136224 -0.621769
-0.154022 -0.615346 -0.167206
-0.636854 -0.657328 0.302638
0.278055 0.296463 -0.630380
-0.634650 -0.177617 0.694611
0.738039 -0.591166 -0.175819
0.291647 -0.598684 0.261989
0.291069 -0.597750 0.261968
0.311956 0.756858 -0.154725
-0.165023 0.722980 0.286751
0.762329 0.291925 -0.143027
-0.636776 -0.203625 -0.139910
0.272792 0.301880 0.261884
-0.613363 0.276619 -0.607690
-0.179615 -0.174646 -0.638573
-0.181287 -0.172860 -0.639476
0.759684 -0.139354 -0.622510
0.763665 0.291317 -0.142760
-0.165219 0.724914 0.287482
-0.143962 0.751285 -0.570493
0.756505 -0.137146 -0.621920
-0.638453 -0.204721 -0.139726
-0.635709 -0.203947 -0.139082
0.291645 -0.598622 0.261090
-0.613916 0.276291 -0.608861
0.272073 0.302913 0.260770
0.758762 -0.138832 -0.624325
0.737354 -0.591650 -0.176286
-0.165951 0.724025 0.286573
0.274524 0.302654 0.262228
0.270938 0.302147 0.262909
0.290575 -0.597770 0.260987
0.279702 0.297180 -0.630672
-0.637376 -0.203317 -0.140962
-0.613406 0.276009 -0.608925
0.275676 -0.628284 -0.653655
-0.624290 0.276903 0.295490
0.291086 -0.596845 0.260786
-0.637073 -0.203008 -0.140286
0.774199 -0.142775 0.315097
0.773835 -0.143229 0.314741
-0.144807 0.751423 -0.571916
0.291178 -0.597908 0.262393
0.763237 0.292048 -0.143019
-0.646413 0.730248 -0.173228
-0.154661 -0.616088 -0.166194
0.757557 -0.137661 -0.623713
-0.182039 -0.176039 -0.638384
0.774826 -0.143132 0.313117
-0.635758 -0.659250 0.301788
-0.614270 0.274983 -0.610457
-0.154647 -0.616068 -0.166514
-0.643395 0.728675 -0.171709
-0.144219 0.752627 -0.571776
0.290064 -0.597823 0.260057
0.293214 -0.597300 0.261884
0.312309 0.757612 -0.154567
-0.155692 -0.614398 -0.165881
0.762104 0.291264 -0.142335
0.312640 0.758149 -0.155978
-0.638333 -0.657245 0.302453
0.276869 -0.157499 0.737674
-0.646415 0.729868 -0.172140
-0.150641 0.281148 0.742673
-0.163994 0.724751 0.286017
0.773439 -0.143809 0.313037
-0.615646 0.275696 -0.611181
-0.645973 0.730274 -0.172306
0.271237 0.300761 0.262360
0.278666 0.297379 -0.631861
0.276848 -0.157842 0.736846
0.762904 0.292406 -0.143720
-0.644869 0.727295 -0.174016
-0.153945 -0.615427 -0.166781
-0.634573 -0.179317 0.697722
0.274060 0.303437 0.263225
0.291100 -0.595903 0.260707
-0.637764 -0.658879 0.303268
