OFF
256 0 0
0.288273 0.412402 -0.450447
-0.509317 -0.009508 0.860443
-0.113875 -0.451792 -0.856441
0.742072 -0.012248 -0.412317
-0.108442 -0.825798 0.405305
-0.508842 -0.009888 0.861653
-0.097289 -0.428086 0.869917
-0.537642 -0.037402 0.004999
0.323555 -0.788018 -0.006440
-0.113462 -0.450117 -0.855916
-0.100073 0.425132 -0.871898
-0.085998 0.806677 0.402876
-0.508963 -0.010688 0.858614
-0.107670 -0.824783 0.403259
-0.535114 0.000348 -0.842566
0.288655 0.414962 -0.452013
0.313533 0.412914 0.448150
-0.528762 -0.455296 0.419782
0.297283 -0.022804 -0.823946
0.756937 0.011030 0.401608
-0.114833 -0.449306 -0.858384
-0.107546 -0.826616 0.404877
0.309322 -0.365310 0.425381
-0.124758 -0.834414 -0.427193
-0.519393 0.408539 0.434910
0.706899 0.418408 -0.031409
-0.499364 0.826856 0.012285
-0.105855 0.429445 0.847123
-0.530778 -0.453918 0.419066
-0.511009 -0.010140 0.860370
0.343449 0.847244 -0.013778
-0.085998 0.807276 0.401883
-0.122761 -0.834315 -0.426754
-0.112978 -0.450224 -0.857486
-0.104483 0.430792 0.846547
0.742241 -0.012054 -0.411620
-0.517592 0.409425 0.434564
-0.099017 0.425677 -0.873915
-0.099244 0.424489 -0.873965
0.323843 -0.785130 -0.007103
-0.498648 0.830675 0.012424
0.743457 -0.008909 -0.412095
0.757908 0.009917 0.400753
0.344340 0.847809 -0.012851
0.314936 0.412425 0.449023
-0.122682 -0.833210 -0.428180
0.322410 -0.786938 -0.005085
0.344574 0.847623 -0.012557
-0.519513 0.409383 0.434367
0.742578 -0.011747 -0.410591
0.757136 0.012502 0.400736
0.324725 -0.787824 -0.006531
0.322788 -0.786576 -0.004481
0.297266 -0.021296 -0.825009
0.343540 0.845561 -0.013798
-0.087426 0.892374 -0.402123
0.343426 0.849380 -0.011930
0.316261 0.409469 0.449143
0.762328 -0.424557 -0.014232
0.323530 -0.786465 -0.006121
-0.535792 0.003114 -0.841221
0.759172 0.011595 0.400524
0.762438 -0.424371 -0.014267
-0.509780 -0.010368 0.861208
-0.096521 -0.427896 0.869614
0.742505 -0.011623 -0.411136
0.313996 0.412902 0.446931
0.295261 -0.384199 -0.403136
-0.108449 -0.828353 0.404008
0.308741 -0.366073 0.424824
-0.519542 0.408842 0.434584
-0.096462 -0.427776 0.869198
0.298457 -0.025025 -0.823558
0.313900 0.409068 0.447498
0.708721 0.418288 -0.032540
0.314541 0.412246 0.449384
-0.536999 0.002251 -0.843200
0.742698 -0.011661 -0.410983
0.308176 -0.366356 0.426634
-0.122827 -0.832365 -0.428694
-0.517902 0.407866 0.433874
-0.519581 0.408549 0.435462
-0.528935 -0.454441 0.419192
0.313016 0.410243 0.447964
-0.519322 0.409244 0.434381
0.743124 -0.011262 -0.412234
-0.519595 0.408129 0.433068
-0.530473 -0.843753 -0.000991
0.288956 0.414473 -0.451003
0.741681 -0.009307 -0.413011
0.763254 -0.423090 -0.013554
-0.499603 0.828679 0.012040
0.741485 -0.010882 -0.411434
-0.123789 -0.832696 -0.426516
0.314031 0.412400 0.447312
0.743257 -0.008443 -0.413491
0.290403 0.412032 -0.449777
0.740623 -0.010263 -0.411390
-0.511550 -0.436191 -0.409127
0.308332 -0.365767 0.427507
-0.113157 -0.451131 -0.857079
-0.510735 -0.437846 -0.408389
0.345450 0.845947 -0.012995
-0.085191 0.808587 0.404307
0.707210 0.417764 -0.029318
-0.123263 -0.833203 -0.425000
0.297298 -0.022469 -0.825978
0.315887 0.412092 0.448717
0.762301 -0.423210 -0.012142
-0.086182 0.807497 0.403073
-0.538757 -0.037779 0.003574
0.298701 -0.023641 -0.823751
-0.103644 0.431155 0.845930
0.322943 -0.785826 -0.006765
-0.497847 0.827383 0.012616
-0.106058 0.431299 0.847660
-0.529781 -0.455686 0.420402
-0.529940 -0.453786 0.421157
-0.510607 -0.435278 -0.406749
-0.099118 0.425934 -0.874141
-0.100786 0.424841 -0.872410
-0.508897 -0.437173 -0.407854
-0.538835 -0.039037 0.003760
-0.100658 0.427081 -0.874477
0.344816 0.847230 -0.014567
-0.492513 0.406315 -0.417325
-0.500059 0.830866 0.013213
0.292660 -0.384166 -0.403850
-0.537209 -0.037716 0.006893
-0.518840 0.409494 0.434543
-0.104498 0.431425 0.844254
-0.085282 0.894413 -0.403138
-0.113285 -0.450999 -0.856952
-0.086163 0.893125 -0.403708
0.761497 -0.422797 -0.012672
0.294127 -0.384183 -0.403991
-0.100264 0.423961 -0.874683
-0.509859 -0.009818 0.860191
0.337794 0.011800 0.855026
0.312888 0.412501 0.448018
-0.085898 0.808483 0.401750
0.345924 0.848053 -0.013849
-0.497513 0.830492 0.012408
0.756849 0.010436 0.401938
0.295220 -0.384099 -0.403242
-0.087719 0.893694 -0.403653
-0.538167 -0.039798 0.004712
-0.497903 0.828792 0.012219
0.314174 0.411348 0.448384
-0.529965 -0.845822 -0.001256
-0.104496 0.431239 0.843989
-0.539065 -0.039282 0.006255
-0.108744 -0.827216 0.403756
-0.537621 -0.038012 0.004488
0.312977 0.411950 0.449550
0.762146 -0.423854 -0.014227
0.344836 0.847770 -0.013129
0.309552 -0.364910 0.425103
0.759578 0.012257 0.400608
0.344065 0.847159 -0.014064
0.297708 -0.022951 -0.826001
-0.510837 -0.434939 -0.405209
-0.518786 0.409407 0.434570
-0.086225 0.894162 -0.404833
-0.530477 -0.847348 -0.001004
0.344898 0.845486 -0.012743
-0.490356 0.407430 -0.416334
0.293887 -0.384196 -0.404160
-0.085560 0.806974 0.402408
0.336934 0.011723 0.854506
-0.538048 -0.039405 0.002546
-0.528551 -0.455032 0.419753
0.762067 -0.423595 -0.015254
-0.517712 0.407638 0.435590
-0.491316 0.406116 -0.419656
0.338139 0.010595 0.855059
-0.105207 0.430684 0.846028
0.759197 0.010205 0.402115
0.707218 0.417743 -0.031758
0.758921 0.012907 0.400381
0.762087 -0.422035 -0.014145
-0.537731 -0.038861 0.005968
0.337206 0.013214 0.856215
-0.084342 0.807863 0.404638
0.345026 0.846786 -0.013578
-0.538339 -0.038955 0.005108
-0.110342 -0.826178 0.402852
-0.112838 -0.449562 -0.857129
-0.492198 0.406445 -0.417077
-0.105022 0.430922 0.846032
-0.114235 -0.448895 -0.858105
0.707388 0.419958 -0.031418
-0.114005 -0.450494 -0.856836
-0.123969 -0.831492 -0.427037
-0.096526 -0.425979 0.871505
-0.490647 0.407450 -0.418039
-0.104410 0.431216 0.845291
-0.114129 -0.450789 -0.858898
0.708034 0.418002 -0.031949
0.708709 0.417707 -0.030885
0.325077 -0.785869 -0.006377
-0.096954 -0.427527 0.870834
-0.490626 0.406548 -0.419036
-0.499282 0.830609 0.013136
-0.537519 0.000982 -0.842393
-0.114723 -0.451931 -0.857469
-0.538602 -0.037627 0.005625
0.762894 -0.423991 -0.013622
-0.510343 -0.435255 -0.408658
-0.122055 -0.832714 -0.428658
0.307484 -0.364045 0.427033
-0.538845 -0.039856 0.005353
-0.508731 -0.009380 0.860065
0.290493 0.414241 -0.447872
0.345373 0.846302 -0.014171
-0.509070 -0.011468 0.860049
-0.101312 0.426056 -0.874096
0.337164 0.011045 0.855876
-0.113026 -0.449399 -0.855635
0.758277 0.012088 0.401659
-0.508546 -0.436170 -0.408346
0.297300 -0.022029 -0.824801
0.762815 -0.423874 -0.014608
-0.102949 0.433078 0.845689
-0.121214 -0.832958 -0.427121
0.315618 0.412821 0.450296
-0.518437 0.409913 0.434687
-0.528525 -0.456215 0.421459
0.708031 0.417527 -0.031476
-0.526795 -0.457296 0.420091
0.334849 0.011660 0.856175
-0.516977 0.408577 0.434776
0.708032 0.417955 -0.031632
0.707711 0.417438 -0.031928
-0.499200 0.830856 0.012201
0.289557 0.414238 -0.452071
-0.536835 -0.039234 0.004340
0.309086 -0.365893 0.426582
-0.511323 -0.434813 -0.407264
-0.123988 -0.834707 -0.426497
-0.509246 -0.434203 -0.405890
-0.529716 -0.847665 -0.002026
-0.084212 0.893333 -0.401904
-0.097069 -0.427494 0.871049
-0.517744 0.408562 0.434736
-0.528607 -0.846835 -0.001133
-0.122898 -0.833896 -0.426247
-0.497719 0.828453 0.012884
0.307424 -0.366856 0.425733
-0.519749 0.407496 0.434272
-0.123105 -0.833675 -0.425732
-0.489971 0.406833 -0.415943
-0.490884 0.406372 -0.417754
0.757250 0.011549 0.401627
-0.085099 0.894068 -0.402825
0.288907 0.415003 -0.449233
