OFF
256 0 0
0.229999 -0.687868 0.230521
0.687243 -0.687805 -0.228913
0.687276 -0.228221 0.230604
-0.229062 -0.687109 -0.229563
-0.689347 -0.229155 0.688819
-0.688014 0.689150 -0.229921
0.687944 0.230609 0.687919
0.227472 0.690208 -0.228631
-0.229453 0.229280 0.687517
0.689034 0.228940 -0.229319
-0.228254 -0.229440 -0.688694
0.228694 -0.229474 0.689202
-0.229977 0.688257 -0.690263
-0.687808 0.229487 -0.688064
-0.229704 -0.687690 0.688090
-0.689137 -0.229516 0.688715
-0.687760 0.228432 -0.688524
0.229825 0.689540 0.687777
0.229158 0.228305 -0.687851
-0.229415 -0.687371 -0.227919
0.230434 0.687309 -0.229843
0.686330 -0.229701 -0.687064
0.230046 -0.688211 -0.688650
0.689166 0.688898 0.230465
-0.688889 -0.229462 0.689409
-0.229692 -0.688838 0.687929
0.687855 -0.228376 0.231498
0.689886 -0.229621 0.229286
0.229324 -0.228527 0.689082
0.230023 -0.688553 -0.686277
-0.689666 -0.688240 0.229873
0.229467 -0.688385 0.229321
-0.688649 0.227706 0.230791
-0.228365 0.228683 0.688334
0.688155 -0.228650 -0.688583
-0.687563 0.231271 0.228456
-0.230319 -0.687041 0.687869
0.687892 -0.230554 0.229101
0.229275 0.688840 -0.229204
-0.688927 -0.227835 0.689523
0.689552 -0.689205 -0.229854
-0.687892 -0.230270 -0.229123
-0.229173 0.229171 0.687355
0.229493 0.690273 -0.230219
0.689713 0.688525 0.229497
0.688626 -0.228666 -0.688227
-0.227973 -0.686100 -0.229953
0.688016 -0.227896 0.229939
0.228818 -0.230090 0.689015
0.228194 -0.689315 0.229661
0.230162 0.689055 0.689166
-0.688541 0.686987 -0.228387
-0.230191 -0.230176 -0.688061
0.230367 -0.229163 0.688253
0.229451 0.690181 0.689434
0.229708 0.688060 -0.229918
0.228479 0.688748 0.688730
-0.228726 -0.689337 -0.228460
0.688622 0.230231 0.688154
0.230673 -0.230015 0.688790
0.228561 -0.686741 -0.689364
0.229881 0.687073 0.689139
0.688966 0.231024 -0.230890
0.229227 0.688462 0.689191
-0.229546 0.687165 -0.688485
-0.232159 -0.689057 -0.230463
0.227211 -0.688582 -0.688716
-0.689111 -0.687486 0.229913
-0.687484 -0.229890 0.688032
0.229842 0.689160 0.687014
-0.687901 -0.687322 0.227306
0.230271 0.688670 0.690550
0.688601 -0.229329 -0.687831
-0.689504 0.229445 0.230172
0.687719 -0.688881 -0.229424
-0.229410 0.688951 0.229672
0.687319 0.227799 -0.229273
0.230535 -0.687895 -0.688999
0.686999 -0.686553 -0.229861
-0.687253 -0.228522 0.689168
-0.227777 0.229445 0.687918
0.229883 0.228978 -0.687226
-0.687761 0.229740 -0.689085
-0.229360 -0.687137 0.687866
-0.229076 -0.688667 0.688339
-0.688336 0.227398 -0.688075
-0.686710 0.230688 -0.687578
-0.228283 0.687736 0.228676
0.230547 -0.229636 0.687066
0.228992 0.229927 -0.687339
0.687341 0.687341 0.232241
-0.230621 -0.689602 -0.230834
-0.229852 0.689221 -0.687176
-0.229981 -0.688521 0.688685
-0.687317 0.229424 0.230475
-0.229743 -0.687885 -0.229043
0.688282 -0.229955 0.229569
0.688659 0.689060 0.228055
-0.228587 -0.229202 -0.688898
0.228440 0.688490 -0.231313
0.687238 0.228680 -0.228416
0.230694 0.688352 0.690106
0.229890 -0.689385 0.229105
-0.687258 0.688271 -0.229398
0.687081 -0.229737 -0.689798
0.229422 0.228865 -0.687178
-0.688812 0.228093 -0.689054
-0.229822 0.686870 0.228377
0.689270 0.687199 0.230150
0.230284 -0.689000 0.230195
0.688099 -0.228674 -0.688119
0.689608 -0.231252 -0.687202
-0.686630 0.228368 0.228538
-0.228464 -0.228568 -0.688125
-0.231068 -0.687873 0.687876
-0.229377 0.688083 0.229222
0.689333 0.687511 0.230624
-0.231017 -0.229094 -0.689632
-0.229315 0.686996 -0.689569
-0.688926 0.687438 -0.229134
0.688581 0.686703 0.230139
-0.229510 -0.688501 0.687353
0.687796 -0.687255 -0.228393
-0.229545 -0.688074 -0.228019
0.228607 0.687180 0.689373
-0.229753 0.228027 0.689160
0.229266 -0.689928 -0.689126
-0.688592 -0.688607 0.228820
0.229094 0.228391 -0.689440
0.688116 0.229930 -0.226588
-0.228398 -0.689603 -0.229736
-0.688008 -0.688259 0.228235
0.228072 -0.228377 0.688079
0.688635 -0.228746 0.230588
-0.690206 -0.228498 0.689932
-0.688541 -0.688028 0.227327
-0.687848 0.229019 0.229657
-0.688229 -0.687748 0.227305
0.688127 0.228381 -0.228517
0.229187 -0.688213 0.227512
0.688614 0.229527 -0.229534
0.229170 -0.688915 -0.688366
-0.687246 -0.229189 -0.230630
-0.688659 0.228084 -0.686365
-0.686764 0.228890 -0.688043
-0.688144 0.687902 -0.229482
0.228940 -0.687633 0.230493
-0.687539 0.230280 -0.688236
0.229798 0.228300 -0.690476
-0.688264 0.687325 -0.230066
-0.228588 -0.689374 -0.229812
0.230281 -0.229201 0.688589
-0.688591 0.689179 -0.228308
0.688871 0.229106 0.689425
0.228258 -0.686555 0.228365
-0.228654 0.688797 0.230744
0.688332 -0.229946 0.230002
0.228499 0.687903 -0.229550
0.229891 0.688169 0.686727
-0.685362 -0.687254 0.228943
-0.688323 0.230014 -0.689008
0.688232 0.689309 0.229017
-0.228319 0.688748 0.228939
0.688440 0.230399 -0.227529
0.231509 0.685764 -0.229404
0.228995 0.229323 -0.688008
0.690368 -0.229142 -0.690543
-0.687469 -0.686669 0.229338
0.231553 0.229202 -0.688212
-0.229611 0.687954 0.230325
-0.688380 -0.688921 0.231025
-0.687273 -0.231532 -0.229763
-0.228816 -0.228990 -0.689330
0.688742 -0.687014 -0.230963
0.688468 0.229333 -0.229994
-0.229965 -0.229553 -0.688468
0.228269 0.687758 -0.229125
0.230271 -0.688164 -0.688538
0.229191 -0.686046 0.229318
0.688878 -0.230451 -0.687520
0.229558 -0.687810 -0.686957
0.229046 -0.687639 0.228206
-0.688379 0.686339 -0.228843
0.228280 -0.687372 -0.688538
0.231216 -0.228011 0.687482
0.228642 -0.687509 -0.689154
0.229512 -0.687796 -0.687336
0.230668 0.688547 0.687334
0.689848 0.230741 0.687878
0.228770 -0.688665 -0.687338
0.229049 0.688190 -0.228380
0.688270 0.689827 0.229442
0.229871 0.688179 -0.229194
-0.230946 -0.228365 -0.686710
0.228863 0.689044 0.687842
-0.228804 -0.689219 -0.228431
0.688975 0.228881 -0.229142
0.689250 0.229969 -0.228544
0.689056 0.687766 0.228751
-0.688617 0.229307 0.229565
0.229727 0.690740 0.686164
0.686602 0.229157 -0.228118
-0.229729 0.688356 -0.688815
-0.688755 0.228501 0.228502
0.687477 0.230840 -0.229188
0.688871 -0.687844 -0.231337
-0.228449 0.230393 0.688456
0.687316 -0.230082 0.229448
0.228586 -0.688884 0.229942
0.688007 -0.688721 -0.229648
0.687661 -0.229558 -0.687056
-0.687545 0.228568 0.229016
0.688867 0.689133 0.228914
-0.687638 -0.688088 0.230394
0.230308 -0.688507 0.227277
0.228769 0.229335 -0.687946
0.231450 -0.689297 0.226748
0.231182 -0.689055 0.229925
-0.229115 -0.687542 -0.229407
-0.688792 -0.229356 -0.229110
0.230125 -0.228842 0.688961
0.229099 -0.230280 0.688824
-0.228849 -0.230029 -0.687762
0.228674 -0.229363 0.688011
-0.228654 0.228046 0.686610
-0.688073 -0.229200 -0.229343
-0.687805 0.228703 0.229666
-0.689413 0.229646 -0.688672
-0.689363 -0.686977 0.229343
-0.227535 -0.687939 -0.226883
0.689138 -0.228440 0.230688
-0.231251 -0.228605 -0.688642
-0.229547 0.230606 0.687760
-0.688316 0.230018 -0.687193
-0.687604 0.230346 0.229462
0.229068 -0.686502 0.229541
-0.687996 -0.230316 -0.228601
-0.688207 0.229458 0.229703
-0.229731 0.686836 -0.689572
-0.688298 0.227988 -0.687426
-0.228401 -0.687100 -0.229155
0.687466 -0.689185 -0.228583
-0.686909 -0.228947 -0.228772
-0.687426 -0.230988 -0.228359
-0.230254 -0.686987 0.689384
-0.228048 -0.689126 -0.228877
-0.688189 -0.230728 0.688623
-0.688989 0.688376 -0.228814
0.689399 0.229884 0.689377
0.230090 -0.230650 0.686836
0.688990 -0.229177 0.230915
0.229978 -0.688554 0.231271
-0.227124 0.230566 0.687624
-0.229357 0.686283 0.230207
0.689369 0.689821 0.232023
0.228430 0.230227 -0.688444
