OFF
256 0 0
-0.685822 -0.243346 -0.212023
0.186747 -0.647892 -0.652139
0.218380 0.680939 0.639689
0.669295 -0.658468 -0.247135
-0.672242 -0.707641 0.216817
-0.237456 -0.249215 -0.657289
0.230616 0.683297 -0.234857
-0.218748 -0.667947 0.674846
-0.237325 -0.248015 -0.655559
0.217837 0.681884 0.642518
0.264777 -0.207507 0.674685
-0.237942 -0.249179 -0.655324
-0.673105 -0.707009 0.218783
-0.631786 0.212987 -0.662908
-0.208101 0.681526 -0.659798
-0.237840 -0.247889 -0.655365
-0.658607 0.197174 0.231324
0.668142 -0.659999 -0.245521
0.642201 0.229775 -0.220878
0.668658 -0.659290 -0.245721
0.641445 0.232485 -0.221675
-0.245159 -0.663926 -0.200426
0.217428 0.679794 0.637982
0.671774 0.257294 0.674377
-0.240173 -0.249870 -0.655900
0.215576 -0.614537 0.220306
-0.640280 0.635203 -0.206290
0.213930 -0.612894 0.221828
0.661169 -0.229930 -0.653575
0.669250 -0.660097 -0.246795
-0.631539 0.214861 -0.664379
0.234252 0.682436 -0.233358
0.673537 0.257639 0.673599
0.217539 0.209081 -0.680700
0.673187 0.257818 0.673884
-0.685870 -0.244488 -0.211405
-0.230941 0.235834 0.653558
-0.211742 0.645530 0.204802
-0.208239 0.678839 -0.660168
0.669074 -0.658938 -0.245026
-0.641004 0.635961 -0.206268
-0.208565 0.680601 -0.659889
0.218277 0.680134 0.641016
0.215678 -0.613115 0.218829
-0.651986 -0.242415 0.664355
0.663751 -0.229991 -0.654015
-0.233047 0.235618 0.654447
-0.660373 0.197857 0.231247
-0.239502 -0.249462 -0.655947
-0.218633 -0.667261 0.672882
-0.232435 0.232410 0.652989
0.231458 0.682358 -0.236570
-0.231902 0.236598 0.655729
0.187171 -0.644970 -0.651129
-0.236027 -0.249130 -0.655454
-0.633879 0.216724 -0.662082
0.658060 -0.192406 0.203024
-0.671624 -0.705752 0.218394
-0.651540 -0.241721 0.665440
-0.217869 -0.665739 0.673531
0.640126 0.228789 -0.221626
0.216873 0.208089 -0.680419
0.214824 0.209045 -0.682154
0.662751 -0.228660 -0.653515
0.266095 -0.207291 0.675237
0.662736 -0.229802 -0.653150
-0.658403 0.195503 0.229923
-0.244528 -0.661744 -0.199090
0.218390 0.679092 0.639830
-0.233038 0.235398 0.654732
-0.244227 -0.662568 -0.200652
-0.210933 0.644459 0.205652
0.641555 0.229846 -0.219853
-0.685451 -0.242651 -0.212015
-0.217065 -0.666327 0.671857
0.661823 -0.230748 -0.655244
-0.239671 -0.249668 -0.657904
-0.240763 -0.249147 -0.657713
0.674815 0.257647 0.672118
-0.232522 0.233952 0.653628
0.662055 -0.229320 -0.653649
-0.651137 -0.240925 0.664291
-0.640813 0.635403 -0.207131
-0.233303 0.234609 0.654234
-0.244145 -0.663851 -0.198119
-0.650738 -0.242253 0.664249
-0.211800 0.645218 0.204475
0.668389 -0.660071 -0.247093
-0.211923 0.645250 0.202042
0.214168 0.208326 -0.683374
-0.673219 -0.705629 0.220395
-0.632253 0.212965 -0.663769
-0.217531 -0.667865 0.674514
0.657997 -0.194092 0.202120
-0.672201 -0.704876 0.218942
-0.673796 -0.708113 0.218988
-0.206742 0.681251 -0.660410
0.658253 -0.193540 0.202955
-0.633031 0.216240 -0.665014
-0.632033 0.215381 -0.662742
-0.671754 -0.707320 0.218788
0.674951 0.256009 0.671092
-0.209935 0.680471 -0.660919
0.186654 -0.645635 -0.650174
0.657816 -0.194142 0.201297
0.662001 -0.229996 -0.654958
0.214937 0.209128 -0.681614
-0.631523 0.215076 -0.662695
0.659897 0.657465 0.229716
0.216047 -0.613544 0.219703
0.669100 -0.659770 -0.245645
-0.216029 -0.666701 0.674084
0.217036 0.680314 0.638643
0.215175 0.209564 -0.683417
-0.233322 0.236995 0.654293
0.265675 -0.207389 0.673303
-0.211599 0.645982 0.202749
0.215849 0.208710 -0.682258
-0.640786 0.636593 -0.206613
0.672560 0.256308 0.673137
0.672521 0.255022 0.673819
0.669051 -0.659570 -0.246771
0.672717 0.253249 0.673398
0.668332 -0.661002 -0.245789
-0.684410 -0.244835 -0.212207
0.667584 -0.658930 -0.247158
0.265103 -0.209495 0.673414
0.671997 0.257305 0.674689
0.265941 -0.208240 0.673899
0.232214 0.682511 -0.234618
0.218553 0.680206 0.641562
-0.210825 0.643582 0.204693
0.264766 -0.207647 0.671883
0.216493 0.208672 -0.683070
-0.653085 -0.239776 0.664413
-0.684837 -0.243249 -0.210239
-0.685042 -0.244681 -0.210769
0.673080 0.256285 0.671882
0.659291 0.655715 0.231600
-0.649971 -0.241513 0.663954
-0.207825 0.679069 -0.661488
0.661219 -0.231897 -0.653367
-0.209923 0.679581 -0.660894
-0.670499 -0.707213 0.219493
-0.213249 0.644376 0.204103
0.673651 0.255464 0.673011
0.265367 -0.207461 0.674286
0.667508 -0.659734 -0.246011
-0.243108 -0.663338 -0.200767
-0.218632 -0.667572 0.675006
0.217815 0.680996 0.641922
0.659331 0.657414 0.231438
-0.208431 0.679283 -0.659811
-0.237411 -0.247438 -0.657422
0.215646 0.207338 -0.681296
-0.670699 -0.706228 0.219237
-0.648836 -0.242261 0.663725
-0.651597 -0.241082 0.663842
0.233821 0.683238 -0.233175
0.216522 -0.614150 0.219626
0.642463 0.228752 -0.221132
-0.209244 0.682032 -0.662047
0.215832 0.209018 -0.682266
-0.230908 0.234255 0.652171
0.641329 0.227690 -0.219168
0.186823 -0.644976 -0.650259
0.214895 -0.611662 0.222247
-0.657727 0.197378 0.229780
-0.630866 0.212951 -0.662828
-0.237529 -0.249318 -0.656654
-0.651259 -0.241223 0.664409
-0.659768 0.196628 0.229807
-0.211041 0.644728 0.204900
-0.684723 -0.244636 -0.213226
0.658134 0.657498 0.231148
-0.246589 -0.662598 -0.198332
-0.207904 0.682269 -0.660855
-0.659544 0.197863 0.229695
0.217821 0.680400 0.639186
-0.672406 -0.707376 0.220367
-0.685145 -0.244878 -0.212234
0.660287 0.655889 0.232731
-0.244080 -0.660911 -0.200311
0.213111 0.209732 -0.682190
-0.632517 0.214636 -0.661484
-0.210072 0.643827 0.205169
0.218089 0.679843 0.642067
-0.240095 -0.249179 -0.655600
0.659252 -0.193649 0.203413
-0.216582 -0.667308 0.674003
0.233273 0.680889 -0.233163
0.672955 0.256382 0.673320
-0.232892 0.233655 0.654298
-0.684681 -0.245877 -0.211880
0.669811 -0.660113 -0.246103
0.188354 -0.646546 -0.651992
0.214768 0.209870 -0.683837
-0.211450 0.644905 0.203906
-0.211520 0.643934 0.204606
0.266184 -0.206310 0.673149
-0.683010 -0.243425 -0.212405
0.659130 0.656608 0.230987
-0.641565 0.637733 -0.207813
-0.673009 -0.708482 0.218272
0.659321 0.656530 0.229980
0.668557 -0.660107 -0.246539
-0.238414 -0.248563 -0.654618
-0.244843 -0.664216 -0.198538
0.658949 -0.194206 0.202995
-0.244609 -0.661792 -0.200668
0.218162 0.680677 0.641011
0.659456 0.656365 0.232258
0.641175 0.230641 -0.220680
0.640598 0.230740 -0.222431
-0.671504 -0.707875 0.221007
0.669391 -0.660162 -0.245315
0.265392 -0.208252 0.674746
0.660766 -0.231295 -0.653891
-0.238387 -0.250295 -0.655885
-0.243151 -0.662645 -0.199199
-0.208024 0.680672 -0.660852
0.214125 0.208208 -0.682760
0.641654 0.230624 -0.219260
-0.673551 -0.706042 0.217313
-0.219163 -0.666262 0.675698
0.219635 0.679533 0.640056
-0.243027 -0.661487 -0.198701
-0.644486 0.634558 -0.205581
-0.232472 0.232491 0.653335
-0.230988 0.234453 0.654667
-0.219249 -0.668503 0.675341
-0.213490 0.646170 0.204860
-0.650140 -0.241341 0.663914
0.233213 0.681084 -0.235039
0.669027 -0.660527 -0.246166
-0.213161 0.644328 0.203741
0.265622 -0.209554 0.671390
0.216528 0.682349 0.640015
-0.207114 0.680542 -0.661436
0.266077 -0.207942 0.673235
-0.218195 -0.668518 0.673144
0.215108 0.209063 -0.681098
-0.234036 0.233633 0.653371
0.217839 0.681483 0.639175
-0.633315 0.214737 -0.665175
-0.684591 -0.242384 -0.212155
-0.207903 0.680319 -0.660084
-0.633975 0.213826 -0.660959
0.672835 0.256596 0.673762
-0.243328 -0.663222 -0.199834
-0.219135 -0.667409 0.671227
0.214421 -0.612938 0.220418
-0.641841 0.637214 -0.206819
0.662294 -0.230385 -0.652666
0.216323 0.682008 0.640739
-0.240539 -0.249082 -0.655489
