OFF
256 0 0
0.190155 0.235895 -0.660583
0.200132 -0.679161 0.217396
-0.205638 0.211479 0.649192
0.640939 -0.238457 -0.612116
-0.236974 -0.629485 -0.213353
0.669622 0.201588 -0.197682
-0.251236 -0.201714 -0.663595
0.210880 -0.244919 0.639739
0.668931 0.203585 -0.196011
0.210342 -0.243809 0.639217
-0.251710 -0.203473 -0.662465
-0.657645 -0.198601 -0.221575
0.207834 -0.662958 -0.648379
0.655529 0.647800 0.204554
0.220285 0.648377 -0.216161
0.648008 -0.670328 -0.188488
-0.648649 0.220596 -0.684917
0.672047 -0.240581 0.218757
0.234188 0.689761 0.685631
0.640583 -0.236849 -0.611519
0.670611 -0.241211 0.216486
-0.250668 -0.205211 -0.663712
-0.649369 0.218673 -0.684953
0.650067 -0.668305 -0.189476
0.206573 -0.662858 -0.647553
0.648301 -0.669968 -0.187046
-0.211812 0.663759 -0.651107
0.190711 0.236794 -0.660236
-0.661144 -0.200382 -0.221419
-0.658926 -0.197906 -0.220659
0.210733 -0.244706 0.640034
0.673091 -0.241171 0.216797
0.190156 0.236696 -0.661008
-0.195435 0.658923 0.226058
0.201090 -0.677320 0.217281
0.220574 0.646605 -0.216779
0.670903 -0.240420 0.216936
0.648185 -0.669205 -0.187171
0.671574 0.201293 -0.195664
0.672521 -0.241431 0.218187
-0.250550 -0.204994 -0.662191
0.670678 -0.242589 0.216936
-0.211922 0.663495 -0.651689
-0.634750 0.202062 0.201502
0.221527 0.647174 -0.217645
0.640511 -0.237793 -0.610668
-0.195955 0.659473 0.228228
0.643272 0.227287 0.631917
0.200794 -0.678769 0.214187
-0.228327 -0.646715 0.630740
-0.642828 -0.217059 0.641313
0.208650 -0.662090 -0.647221
-0.211422 0.663940 -0.651180
-0.194978 0.658370 0.227710
0.656883 0.647295 0.204128
0.669685 0.198845 -0.197133
0.234844 0.688617 0.686511
-0.229117 -0.644596 0.628847
0.640850 0.227148 0.632932
-0.207552 0.209761 0.649333
0.648662 -0.669414 -0.189543
0.641284 0.227725 0.632130
-0.663419 -0.649223 0.196268
0.187935 0.238326 -0.658840
0.189859 0.238127 -0.659163
0.647611 -0.668926 -0.186782
0.188538 0.237290 -0.658607
0.233361 0.688641 0.687076
0.655711 0.651676 0.202755
-0.611065 0.666741 -0.193494
-0.649543 0.221202 -0.683909
-0.250780 -0.204337 -0.664371
0.639863 0.227946 0.631882
0.671976 -0.240318 0.218633
-0.227263 -0.643358 0.628162
-0.664388 -0.649235 0.197269
0.641962 -0.237459 -0.614089
0.221082 0.648139 -0.216620
0.648618 -0.670236 -0.189217
-0.211248 0.664504 -0.651144
-0.251969 -0.204306 -0.660650
-0.195316 0.659503 0.227531
-0.212968 0.665021 -0.649516
-0.664333 -0.648063 0.198819
-0.206605 0.212084 0.651212
-0.250092 -0.203821 -0.662370
-0.252038 -0.204044 -0.661012
-0.195960 0.658363 0.225816
0.209771 -0.245909 0.639426
-0.612626 0.668672 -0.191198
-0.648989 0.220143 -0.683642
0.641517 -0.237299 -0.611476
-0.609648 0.668077 -0.193012
0.655460 0.649531 0.205883
0.640195 0.227241 0.633158
0.671810 -0.240485 0.217361
-0.234417 -0.628892 -0.213991
-0.228127 -0.644457 0.629603
0.647691 -0.669374 -0.188401
0.669564 0.200844 -0.195155
0.655267 0.649787 0.204752
0.187408 0.236243 -0.659409
-0.657761 -0.199469 -0.219977
-0.659567 -0.198608 -0.219592
-0.229584 -0.645108 0.629485
-0.228603 -0.644694 0.629436
-0.228999 -0.645272 0.630000
-0.236438 -0.628753 -0.213879
-0.252297 -0.203614 -0.663669
-0.229989 -0.645967 0.629303
-0.211214 0.665087 -0.651623
-0.640733 -0.217096 0.641128
-0.197607 0.659070 0.225201
0.671075 0.201022 -0.196952
-0.209022 0.208594 0.650880
0.211638 -0.243603 0.638078
-0.658574 -0.197619 -0.219636
0.670961 0.200995 -0.195998
-0.612263 0.668438 -0.193690
0.642306 0.228773 0.630542
-0.612461 0.669356 -0.191852
-0.206598 0.211373 0.649276
-0.658786 -0.199265 -0.219884
-0.635800 0.203785 0.200457
-0.612232 0.666333 -0.191854
0.642279 -0.236057 -0.612308
0.233593 0.687824 0.686854
-0.659008 -0.198350 -0.219590
0.656874 0.650086 0.203245
-0.236137 -0.630220 -0.213692
-0.235970 -0.629857 -0.213131
-0.663889 -0.649080 0.199119
-0.211581 0.664752 -0.651708
0.641529 0.229058 0.632739
-0.634569 0.203210 0.201859
-0.250314 -0.204093 -0.663609
0.648544 -0.669792 -0.188115
0.670181 -0.240137 0.220428
0.641281 -0.236889 -0.612164
-0.209151 0.210447 0.651231
0.206439 -0.662666 -0.646856
-0.636107 0.202845 0.201032
-0.659197 -0.198298 -0.220785
0.640358 0.227025 0.631825
-0.252137 -0.205979 -0.661420
0.220064 0.648830 -0.217485
-0.650206 0.219985 -0.683000
0.641038 -0.238004 -0.613449
0.206633 -0.662179 -0.647245
0.207817 -0.662450 -0.648938
-0.253313 -0.202755 -0.661159
0.672366 -0.240044 0.218290
-0.633307 0.201828 0.201334
-0.251339 -0.204284 -0.661686
-0.236056 -0.628963 -0.211799
-0.229677 -0.644190 0.629355
0.671501 -0.241898 0.217664
0.656636 0.647702 0.204079
-0.235105 -0.630937 -0.212857
0.641073 -0.237952 -0.611632
0.653998 0.647492 0.203777
-0.612707 0.666902 -0.192462
-0.634463 0.202482 0.201869
-0.663903 -0.649099 0.196467
-0.648539 0.220758 -0.685909
0.219798 0.647354 -0.215069
0.198188 -0.677615 0.218135
-0.611181 0.669615 -0.194095
-0.196358 0.657840 0.226437
-0.208176 0.213129 0.650215
0.654037 0.649404 0.202579
0.211568 -0.245539 0.641120
0.670288 0.200421 -0.196255
0.235201 0.689252 0.687226
0.670952 -0.239487 0.216698
-0.211289 0.664154 -0.649472
0.199212 -0.680117 0.218129
-0.611423 0.668984 -0.191952
0.641108 -0.237442 -0.611634
-0.207201 0.209735 0.650844
0.212035 -0.243552 0.640312
-0.210393 0.664031 -0.650813
-0.207312 0.210893 0.649708
0.654965 0.650387 0.204096
-0.195480 0.659431 0.225342
0.641808 -0.237338 -0.610756
0.212747 -0.244210 0.639429
-0.235513 -0.630711 -0.212207
0.211452 -0.244122 0.640409
0.218748 0.648019 -0.218665
-0.197756 0.660012 0.225936
0.235479 0.689023 0.688199
0.647064 -0.669809 -0.189083
0.234570 0.688020 0.686310
0.648916 -0.667702 -0.188091
-0.664279 -0.649289 0.198567
-0.663210 -0.649481 0.198365
-0.647704 0.220056 -0.682787
-0.251988 -0.203485 -0.661494
-0.211841 0.665717 -0.651456
-0.664950 -0.650595 0.197454
-0.235097 -0.631209 -0.212143
-0.659942 -0.198043 -0.220007
-0.660093 -0.198448 -0.219144
-0.635192 0.205144 0.202791
0.639887 0.229220 0.633838
-0.650674 0.218648 -0.685828
0.209706 -0.245333 0.638730
-0.206089 0.211246 0.651916
0.201334 -0.678351 0.218198
-0.664063 -0.649735 0.195428
0.668768 0.201698 -0.196063
0.653731 0.649096 0.205049
-0.649792 0.220626 -0.684610
-0.234183 -0.629700 -0.214148
-0.211156 0.665116 -0.651122
0.207367 -0.662368 -0.647322
0.236062 0.687809 0.685946
-0.611806 0.669828 -0.193162
-0.611673 0.669132 -0.194135
0.211854 -0.244399 0.639032
-0.195222 0.658184 0.225797
0.670778 -0.241854 0.215518
0.235038 0.688818 0.686416
0.200390 -0.678060 0.217199
0.218434 0.649590 -0.216639
0.217211 0.648165 -0.214709
0.211777 -0.243885 0.639503
-0.228576 -0.645132 0.630960
-0.659747 -0.198138 -0.219267
0.211810 -0.244621 0.640645
0.670068 0.202204 -0.195903
-0.211958 0.663379 -0.650571
-0.633937 0.204638 0.202699
0.641071 0.227436 0.632339
-0.664044 -0.649556 0.197449
0.639759 -0.237867 -0.611596
-0.212312 0.665370 -0.651226
0.190339 0.235613 -0.660210
-0.611575 0.670285 -0.193660
0.649198 -0.669852 -0.187948
-0.657484 -0.198075 -0.219641
0.200071 -0.678313 0.217601
-0.634300 0.203519 0.202197
-0.252792 -0.203648 -0.660301
-0.207037 0.211673 0.648301
0.208156 -0.663619 -0.647909
-0.648485 0.219099 -0.684066
0.200040 -0.679137 0.217721
0.671624 -0.238808 0.214861
-0.641750 -0.219017 0.640705
-0.659639 -0.200805 -0.218334
0.219364 0.649544 -0.217612
-0.197928 0.661487 0.225666
0.208076 -0.662545 -0.645388
0.236014 0.687743 0.687790
