OFF
256 0 0
0.681196 0.219650 0.690845
-0.255302 -0.682855 -0.267437
-0.256415 -0.682073 -0.269489
-0.220979 0.244612 0.658777
-0.228063 0.689657 0.224518
0.213289 -0.686004 -0.654492
0.216331 -0.684403 -0.649971
-0.663378 -0.692154 0.216457
-0.256932 -0.680947 -0.267256
0.679550 -0.689207 -0.245229
-0.207604 0.663491 -0.648966
0.681366 0.217944 0.690228
0.214780 0.674042 0.695058
0.215408 0.674120 0.693357
-0.638022 -0.229764 0.621588
-0.237027 -0.683030 0.671158
0.222105 -0.667791 0.205892
0.216110 -0.685620 -0.650472
-0.676266 0.203696 -0.642967
-0.637219 -0.228966 0.619400
-0.676742 0.201554 -0.642795
-0.235075 -0.683507 0.669458
0.681000 -0.689343 -0.245721
-0.672130 0.693570 -0.234565
-0.672249 -0.248510 -0.205790
-0.639042 -0.228300 0.621963
0.665626 -0.179675 0.169032
0.648433 0.659540 0.252535
-0.253941 -0.682927 -0.269241
0.216240 0.675635 0.694320
-0.255643 -0.683811 -0.268903
-0.236770 -0.686200 0.670751
-0.664143 -0.692743 0.215598
0.647665 0.658326 0.251776
-0.672003 0.695587 -0.233503
0.210026 0.233589 -0.657179
-0.637865 -0.228032 0.621030
0.664280 -0.180998 0.167847
-0.221809 0.243638 0.658120
-0.221195 0.243896 0.659823
-0.663467 -0.692345 0.217396
-0.676013 0.202118 -0.643924
0.243554 -0.216296 0.648916
0.214475 0.674822 0.694137
-0.670387 0.695128 -0.235682
0.216220 -0.685467 -0.652318
0.647338 0.659175 0.251830
-0.226181 0.689299 0.225124
0.664193 -0.180121 0.169254
-0.207639 0.665941 -0.646605
-0.206312 0.663505 -0.646192
0.656143 -0.236638 -0.635390
0.680887 -0.688042 -0.245813
-0.207566 0.664250 -0.646177
0.655037 -0.236605 -0.637981
-0.256536 -0.682985 -0.267554
-0.220955 0.245514 0.658943
0.680451 -0.689495 -0.245639
0.215621 0.674573 0.694460
0.657529 -0.235286 -0.635227
-0.209643 0.663367 -0.647538
0.223186 -0.669292 0.205150
-0.669072 0.693021 -0.234263
-0.670621 0.697209 -0.234175
0.657209 -0.235755 -0.634588
0.210242 0.234205 -0.654636
-0.232541 -0.199921 -0.639798
-0.237099 -0.685166 0.668932
0.209992 0.234394 -0.655980
-0.234387 -0.685263 0.669555
-0.674677 -0.247041 -0.208667
0.664649 -0.182055 0.169242
0.215734 -0.683294 -0.651610
-0.219936 0.243280 0.659142
0.679749 -0.689210 -0.245767
0.217116 0.676914 0.695679
0.212891 0.235245 -0.657464
0.665063 -0.180061 0.169624
-0.235905 -0.683321 0.670069
0.217111 0.651375 -0.207972
0.656510 -0.236943 -0.636050
0.648567 0.657535 0.251854
-0.256636 -0.681325 -0.267966
0.680475 -0.688967 -0.245301
0.645909 0.656191 0.250989
0.681200 0.219780 0.690920
0.210060 0.234616 -0.658498
0.681973 -0.688161 -0.246077
0.209134 0.236309 -0.658567
0.709562 0.243903 -0.220800
0.222781 -0.669009 0.206682
0.681814 -0.690371 -0.248081
-0.231031 -0.200162 -0.640187
-0.673390 -0.248261 -0.206311
-0.221387 0.244635 0.657849
-0.670127 0.693718 -0.234770
0.680981 -0.691131 -0.244969
0.210829 0.234283 -0.656138
-0.673280 -0.247547 -0.206717
-0.231968 -0.199216 -0.640863
0.707535 0.244595 -0.219365
0.215388 -0.687029 -0.651818
0.646633 0.658026 0.253877
-0.237391 -0.682353 0.669641
0.681771 -0.689817 -0.245822
0.658527 -0.236063 -0.635338
0.208860 0.233489 -0.656419
-0.232452 -0.198238 -0.640479
0.665748 -0.182910 0.169594
-0.221334 0.243500 0.659619
-0.635540 -0.227423 0.622922
0.241847 -0.215413 0.649210
-0.222080 0.243996 0.659237
0.655677 -0.237862 -0.636769
-0.208623 0.663067 -0.645819
-0.637884 -0.228261 0.621904
0.682529 -0.688621 -0.245754
-0.208832 0.665071 -0.647897
-0.677203 0.203084 -0.643665
0.223954 -0.667028 0.206252
-0.661486 0.236192 0.204609
-0.638347 -0.228348 0.619597
-0.232002 -0.201019 -0.638857
-0.236185 -0.683300 0.670348
0.214769 0.674449 0.696405
0.216042 -0.687788 -0.651371
0.223744 -0.666735 0.205504
-0.636780 -0.226628 0.622364
0.222130 -0.667746 0.207465
0.680774 -0.691138 -0.247072
0.710194 0.243685 -0.219277
0.680484 -0.689094 -0.246456
0.656420 -0.238477 -0.635625
0.664667 -0.181687 0.169845
-0.222240 0.243552 0.657738
-0.227855 0.688250 0.226572
-0.664341 -0.692255 0.216061
0.211448 0.232497 -0.657657
-0.208533 0.663988 -0.646520
-0.673183 -0.247444 -0.204431
0.211966 0.234816 -0.657757
0.211307 0.234788 -0.656496
-0.237877 -0.682561 0.669848
0.243142 -0.215521 0.648823
0.646485 0.658679 0.253385
-0.671391 0.692760 -0.234962
-0.208744 0.664905 -0.646495
0.680263 0.219279 0.689994
0.214865 0.674922 0.693919
0.680648 -0.689661 -0.246382
-0.233480 -0.200882 -0.640109
0.680766 0.217834 0.689473
-0.672840 -0.247050 -0.206860
0.214186 -0.685321 -0.650908
0.667177 -0.181798 0.167798
0.677827 0.217536 0.689520
0.656936 -0.238304 -0.636025
0.212162 0.234407 -0.658690
0.214482 -0.684353 -0.649630
-0.228717 0.688840 0.225506
-0.678489 0.201029 -0.641827
0.666483 -0.183019 0.169065
0.214605 0.675644 0.693979
0.215073 -0.686325 -0.651759
0.223129 -0.669670 0.206472
0.219069 0.651836 -0.208325
-0.232577 -0.200944 -0.640105
-0.636637 -0.228970 0.621633
-0.636957 -0.230245 0.620314
-0.236329 -0.683453 0.670738
0.211569 0.235103 -0.655750
0.648614 0.657209 0.253647
-0.678211 0.202783 -0.642402
0.663998 -0.180069 0.169906
0.663087 -0.180729 0.170834
-0.236905 -0.686173 0.670345
0.215537 0.675753 0.697818
-0.207657 0.662654 -0.646091
-0.227651 0.686970 0.224629
-0.232458 -0.199346 -0.640657
0.244839 -0.216778 0.648378
-0.257635 -0.681371 -0.269492
-0.660130 0.236122 0.204095
0.242675 -0.215275 0.650027
-0.206777 0.663394 -0.647138
-0.661514 -0.689827 0.217393
0.214556 -0.685925 -0.651151
0.665487 -0.180217 0.169948
-0.638214 -0.229510 0.621206
0.646533 0.657579 0.252467
-0.227969 0.687720 0.225055
-0.672769 -0.247210 -0.205674
-0.671550 0.694963 -0.233038
-0.672250 0.694343 -0.233130
0.222593 -0.668231 0.205993
0.224198 -0.668622 0.205415
0.217073 0.652214 -0.207820
-0.228358 0.687529 0.225641
-0.254407 -0.680903 -0.268994
0.223995 -0.668062 0.205116
0.708962 0.246822 -0.218854
-0.253967 -0.681437 -0.269195
-0.676437 0.204830 -0.642896
-0.229312 0.689374 0.225234
-0.661281 0.234368 0.204391
-0.232686 -0.198652 -0.639383
-0.675763 0.203827 -0.642796
-0.227467 0.687869 0.226185
0.243047 -0.215836 0.647889
0.210625 0.235646 -0.656273
0.680088 0.218682 0.688830
-0.671994 -0.249561 -0.206456
-0.206884 0.663625 -0.645286
0.242531 -0.214726 0.649004
-0.672489 0.692932 -0.233302
0.224239 -0.667655 0.208081
0.657135 -0.236074 -0.635014
-0.233392 -0.198452 -0.640541
0.241910 -0.216933 0.648435
0.221944 -0.668286 0.205290
-0.673252 -0.247688 -0.205561
-0.221973 0.244493 0.657061
-0.233864 -0.197645 -0.640036
0.648109 0.658410 0.252816
-0.637947 -0.228381 0.622944
-0.233776 -0.200847 -0.640002
0.648841 0.658881 0.252954
0.664682 -0.181081 0.170813
-0.233132 -0.200122 -0.641276
0.211961 0.233914 -0.655509
-0.208031 0.661937 -0.647243
-0.665007 -0.691084 0.214495
0.710147 0.242623 -0.218949
0.218034 0.651349 -0.206567
-0.659421 0.235896 0.203553
0.244238 -0.216825 0.648424
0.663900 -0.180836 0.168332
0.224331 -0.668993 0.208846
-0.672295 -0.248324 -0.205526
0.216399 0.675243 0.697316
0.224557 -0.668960 0.206824
0.680873 -0.688089 -0.246209
0.665898 -0.180473 0.171257
-0.662654 0.235029 0.203845
-0.255753 -0.682162 -0.267945
-0.671574 0.694652 -0.233951
0.647294 0.659722 0.251442
0.711166 0.242686 -0.220774
0.655318 -0.236398 -0.637482
-0.638483 -0.229122 0.621293
0.218934 0.650246 -0.209853
0.658053 -0.236812 -0.637227
0.216630 0.651392 -0.208066
0.223023 -0.666796 0.206473
-0.671118 0.694244 -0.234323
-0.670146 0.693689 -0.233803
