OFF
256 0 0
-0.159242 0.726606 -0.565407
-0.187572 -0.605692 0.770395
-0.180787 0.265154 0.739773
0.284057 -0.128689 0.754502
-0.181555 0.263923 0.739992
-0.624849 0.301060 0.275673
-0.176074 -0.626301 -0.180804
-0.179176 0.267611 0.739717
-0.190431 -0.604745 0.767773
0.284217 -0.608270 -0.615633
-0.624609 -0.157309 -0.139274
0.742622 0.286845 -0.166042
0.743410 0.286746 -0.166543
-0.158369 0.728072 -0.565522
0.729971 -0.148497 -0.591393
0.762769 -0.607252 -0.189759
0.743642 0.287751 -0.167316
0.732587 -0.147399 -0.591668
0.298870 0.260369 0.271199
-0.141758 -0.146722 -0.617164
-0.175359 -0.624901 -0.181910
0.275004 0.287615 -0.596958
0.295955 0.753570 -0.155291
-0.627858 0.760193 -0.169924
0.761139 -0.609088 -0.191632
-0.616676 -0.172633 0.713564
-0.616133 -0.173398 0.711586
0.301128 0.261611 0.267832
0.282403 -0.609565 -0.616367
-0.179909 0.264593 0.738473
-0.188414 -0.605166 0.767739
0.297035 0.752603 -0.157473
0.742718 0.286152 -0.166615
-0.604162 0.287922 -0.619752
0.295590 0.752701 -0.158655
0.744345 0.287621 -0.168142
0.731662 -0.148312 -0.593398
-0.173936 0.716703 0.226091
0.742791 0.284460 -0.166442
-0.616973 -0.173176 0.712532
0.730767 -0.146802 -0.592762
0.301442 0.260353 0.268764
-0.623169 0.300281 0.276474
0.743306 0.286229 -0.167364
-0.177130 -0.624373 -0.180425
0.274855 0.287026 -0.597346
0.300131 0.262713 0.271169
0.274773 0.290135 -0.597000
0.731110 -0.148684 -0.591123
-0.618009 -0.171709 0.710848
0.774731 -0.171926 0.300572
0.301270 0.260653 0.269933
0.774014 -0.171485 0.300707
-0.604538 0.288057 -0.617266
0.761103 -0.608128 -0.189717
0.297915 0.753430 -0.156020
0.297627 0.753808 -0.153973
-0.621075 -0.630741 0.262860
-0.188645 -0.603755 0.769480
-0.175477 0.716592 0.228423
-0.175280 -0.625885 -0.182429
-0.190235 -0.603840 0.769802
-0.623829 -0.158496 -0.137802
-0.182266 0.267080 0.741098
0.774233 -0.171321 0.299938
-0.176954 -0.626481 -0.182720
-0.627248 0.758495 -0.168060
-0.159876 0.729046 -0.564762
0.732407 -0.147468 -0.591031
0.773339 -0.171760 0.300194
0.286598 -0.642531 0.292636
-0.140392 -0.147383 -0.615452
-0.615982 -0.170316 0.711639
-0.158605 0.728736 -0.564382
0.275287 0.287457 -0.595178
0.745839 0.286970 -0.165806
0.743815 0.285799 -0.167579
0.285497 -0.608946 -0.614483
0.731165 -0.149988 -0.590416
0.762192 -0.609382 -0.191162
-0.604258 0.290695 -0.619177
-0.189401 -0.605804 0.770637
-0.176313 -0.625871 -0.182461
-0.141154 -0.147277 -0.615270
-0.619976 -0.629333 0.262017
-0.604667 0.289917 -0.618143
0.286210 -0.642349 0.292969
-0.620735 -0.629757 0.262019
-0.622040 0.302995 0.277446
-0.174432 0.717987 0.227528
-0.139392 -0.147027 -0.616193
0.283249 -0.128794 0.758274
-0.617425 -0.172221 0.712194
0.286279 -0.641887 0.290282
-0.627441 0.761364 -0.167375
0.280652 -0.127399 0.755386
-0.157495 0.727126 -0.564031
-0.615834 -0.174327 0.712512
0.284329 -0.608526 -0.615436
0.744241 0.286379 -0.163776
-0.174844 -0.627350 -0.182423
0.300646 0.261343 0.269672
0.745744 0.285874 -0.165325
-0.625689 -0.156389 -0.138043
0.301027 0.260769 0.268843
-0.175269 -0.625972 -0.180511
-0.620412 -0.631278 0.261968
-0.624370 -0.156781 -0.137654
-0.620051 -0.631700 0.261692
-0.605534 0.287927 -0.619240
0.302997 0.261504 0.268124
-0.140212 -0.145482 -0.616612
-0.139242 -0.147368 -0.615556
0.742603 0.287717 -0.167158
-0.619508 -0.630822 0.262470
0.285103 -0.607060 -0.615935
-0.621090 -0.630663 0.261864
0.275308 0.286586 -0.595456
-0.604806 0.289535 -0.618005
0.283979 -0.608034 -0.616640
-0.624750 0.301706 0.274365
-0.620822 -0.628098 0.263115
0.276166 0.286637 -0.597031
-0.139694 -0.148728 -0.616489
-0.616033 -0.171262 0.708470
-0.189694 -0.607404 0.769037
0.729376 -0.148605 -0.590672
-0.175794 -0.624600 -0.183864
0.272726 0.286950 -0.595078
-0.603611 0.288245 -0.617502
0.287533 -0.642849 0.292948
0.286257 -0.642946 0.293452
0.771018 -0.171909 0.300521
-0.604905 0.288980 -0.618411
-0.174531 -0.623703 -0.182273
-0.176787 -0.625723 -0.180777
-0.142641 -0.148524 -0.615576
-0.190604 -0.605565 0.771234
0.731638 -0.148020 -0.592892
0.774021 -0.170594 0.300281
-0.174716 -0.625227 -0.180530
-0.620698 -0.629038 0.261750
-0.138973 -0.147438 -0.615785
-0.181027 0.266445 0.740289
-0.140884 -0.146102 -0.617633
0.743710 0.285688 -0.165922
0.300894 0.260614 0.268769
-0.181709 0.266160 0.740216
-0.188535 -0.605284 0.769151
0.761666 -0.608580 -0.191805
-0.174812 -0.625956 -0.182901
-0.625585 0.299658 0.277792
0.761766 -0.611096 -0.190534
-0.179689 0.265474 0.741567
0.299814 0.260755 0.271606
0.296225 0.754542 -0.157402
-0.615406 -0.174144 0.711646
0.763210 -0.607603 -0.190093
0.731764 -0.148276 -0.592424
0.744133 0.287028 -0.166583
-0.171724 0.718006 0.228551
-0.623670 -0.155519 -0.136989
-0.623724 -0.157514 -0.137032
-0.625124 0.301524 0.276661
-0.186587 -0.606326 0.769611
-0.623608 0.300224 0.277771
-0.190635 -0.605536 0.769478
0.288818 -0.640598 0.290875
-0.628101 0.761508 -0.166771
-0.188578 -0.602880 0.769954
0.301326 0.260560 0.270945
-0.140162 -0.146563 -0.616540
0.298356 0.753745 -0.156855
-0.175791 0.713308 0.229021
-0.603408 0.288253 -0.618545
-0.174396 0.715960 0.225070
0.283741 -0.606258 -0.616573
0.301090 0.260254 0.270377
0.282719 -0.129234 0.756478
0.300634 0.262358 0.268550
0.761134 -0.609344 -0.188753
0.273864 0.288506 -0.597665
-0.619486 -0.628691 0.262499
-0.625276 -0.156199 -0.137964
0.286547 -0.642200 0.291394
0.275049 0.286371 -0.596360
-0.625287 -0.156495 -0.138510
0.297031 0.754392 -0.156917
-0.619726 -0.629438 0.260102
-0.616787 -0.173221 0.712690
-0.188791 -0.605379 0.767510
-0.624015 -0.154873 -0.137854
0.743688 0.286753 -0.168109
0.281503 -0.130263 0.755693
0.284480 -0.609115 -0.616225
-0.616663 -0.171665 0.713090
-0.617872 -0.630393 0.262778
-0.613806 -0.174501 0.710088
-0.624949 0.299708 0.275733
-0.618391 -0.173855 0.713837
0.762203 -0.608776 -0.188348
-0.189941 -0.605861 0.768871
-0.627164 0.761110 -0.169516
-0.623370 -0.157397 -0.137900
-0.139343 -0.148533 -0.616419
-0.624530 -0.157279 -0.138001
0.276852 0.289045 -0.596251
0.297030 0.753423 -0.158062
0.775133 -0.172459 0.299706
-0.624671 -0.156194 -0.135466
-0.189336 -0.605907 0.768795
-0.624016 -0.156556 -0.135822
0.285420 -0.609882 -0.616592
0.274753 0.289779 -0.597075
-0.603502 0.288940 -0.618532
0.775165 -0.172056 0.299958
-0.603955 0.289317 -0.618807
-0.157377 0.728243 -0.563534
-0.619754 -0.629736 0.262471
-0.171959 0.715163 0.229222
0.279716 -0.128381 0.755119
-0.173728 0.716924 0.227029
0.295859 0.753458 -0.156986
-0.617398 -0.174634 0.710528
0.742111 0.286424 -0.165891
-0.175262 0.715199 0.227865
-0.624477 0.300213 0.276842
-0.140834 -0.148220 -0.615354
0.301564 0.259251 0.269474
-0.629033 0.761330 -0.169019
-0.141578 -0.146530 -0.617194
-0.177849 0.265736 0.740635
-0.627108 0.758297 -0.167369
0.288896 -0.641362 0.290642
0.296082 0.753658 -0.158051
0.286081 -0.638927 0.292307
0.279964 -0.130352 0.754510
-0.160060 0.726758 -0.566106
0.301878 0.259721 0.268744
0.732272 -0.147113 -0.591884
-0.181104 0.267143 0.739590
0.296786 0.753858 -0.157958
0.288446 -0.640577 0.292518
-0.618898 -0.629341 0.264265
0.300662 0.261427 0.269784
-0.174924 0.715997 0.228129
-0.140993 -0.147307 -0.616501
0.275401 0.286972 -0.596530
0.745176 0.283375 -0.165756
0.296585 0.754101 -0.157269
0.300225 0.260925 0.268797
0.301293 0.260311 0.271209
0.287126 -0.642432 0.291453
-0.189293 -0.604557 0.770366
0.730836 -0.148110 -0.592277
0.743023 0.286214 -0.168675
