OFF
256 0 0
0.269507 -0.155505 0.770966
0.285367 0.736380 -0.166166
-0.166720 -0.619967 0.741253
-0.166500 -0.619948 0.743619
-0.621437 -0.182284 0.753120
-0.167161 -0.620019 0.740750
-0.630443 0.749620 -0.176597
-0.168302 0.743855 0.280568
-0.154951 -0.155932 -0.627535
0.284725 0.737246 -0.166821
0.291395 0.276298 0.272496
-0.155897 -0.154520 -0.624948
0.270579 -0.158479 0.773065
0.285381 0.733041 -0.167174
-0.644534 -0.197437 -0.181186
0.277216 -0.624811 0.270863
-0.620917 -0.179295 0.752837
0.301832 0.291661 -0.631660
0.292243 0.278058 0.274407
-0.166247 -0.618856 0.742308
-0.609866 0.324498 -0.599872
0.743071 0.256966 -0.168839
-0.592944 0.300728 0.274774
-0.593326 0.299767 0.275389
-0.165086 0.300534 0.769274
-0.168575 0.745723 0.281293
-0.631318 0.748570 -0.176430
-0.595012 0.301349 0.275506
-0.167718 0.299602 0.768425
-0.632410 0.748365 -0.174702
-0.168944 0.743117 0.282080
-0.645814 -0.199460 -0.181918
0.293154 0.277795 0.272438
-0.625738 -0.650705 0.320985
-0.167049 -0.619229 0.744131
-0.163520 -0.621476 -0.168710
0.300768 0.292945 -0.631157
-0.626459 -0.648371 0.320159
-0.642438 -0.199222 -0.180447
-0.165481 0.298960 0.769453
0.765770 -0.151422 -0.626645
-0.643862 -0.200041 -0.181549
-0.643073 -0.198030 -0.180604
0.731627 -0.597267 -0.166768
0.742503 0.257620 -0.169511
-0.169533 0.745216 0.280938
-0.168291 -0.620737 0.740737
0.743264 0.258336 -0.169595
-0.168070 0.744220 0.283385
-0.168801 -0.619068 0.742954
0.281294 -0.607028 -0.635308
0.770426 -0.147187 0.302356
-0.162894 -0.622354 -0.169734
0.270573 -0.156707 0.771682
0.765298 -0.151417 -0.626152
0.291174 0.276252 0.273207
0.291773 0.275829 0.273801
-0.168526 0.731055 -0.606725
-0.611104 0.322832 -0.600900
0.281376 -0.607263 -0.636003
0.285724 0.733861 -0.167557
0.769693 -0.150229 0.302817
0.270262 -0.156297 0.770636
0.292304 0.276956 0.274039
0.769506 -0.150556 0.303362
0.731201 -0.598368 -0.166676
0.298729 0.293709 -0.634061
-0.594030 0.300543 0.275759
-0.162743 -0.621294 -0.168369
-0.620889 -0.178857 0.753531
-0.164577 -0.621473 -0.168818
0.731298 -0.599454 -0.166801
0.299238 0.293598 -0.633081
-0.593305 0.300574 0.277446
-0.153455 -0.155861 -0.627005
0.730117 -0.598162 -0.165450
0.285075 0.731699 -0.167123
-0.643851 -0.198172 -0.181847
-0.593587 0.300004 0.275313
-0.162944 -0.621723 -0.170299
0.297557 0.291297 -0.631419
-0.644454 -0.196614 -0.183340
-0.168893 0.745510 0.279681
-0.592600 0.300662 0.275568
0.276045 -0.625718 0.270988
-0.164275 -0.621299 -0.169189
0.281744 -0.607314 -0.633872
-0.171486 0.732377 -0.607463
0.742217 0.259618 -0.168648
-0.644222 -0.199697 -0.181307
-0.644550 -0.198824 -0.182268
-0.620141 -0.179076 0.752307
0.284590 0.733843 -0.169585
-0.166395 -0.618997 0.741829
-0.168018 0.744286 0.281302
-0.595111 0.300504 0.275232
-0.594147 0.298970 0.274765
-0.169794 -0.618136 0.742608
-0.631685 0.747102 -0.177477
-0.162522 0.299744 0.769020
0.285426 0.734770 -0.168839
-0.165724 0.299291 0.768235
-0.594157 0.300524 0.276696
0.766519 -0.150667 -0.625756
-0.619583 -0.179413 0.749995
-0.165215 0.300019 0.768928
0.281106 -0.607428 -0.635666
0.768630 -0.149035 0.302121
0.286500 0.733358 -0.166533
-0.166838 -0.620180 0.741151
-0.626494 -0.648632 0.319564
0.299926 0.293939 -0.632197
-0.169602 0.732203 -0.608623
0.290547 0.278116 0.273539
-0.610075 0.321462 -0.601725
-0.154930 -0.155499 -0.627768
0.765705 -0.150668 -0.623878
0.284913 0.733459 -0.166105
-0.163740 0.298666 0.766995
-0.153894 -0.153889 -0.627914
0.745794 0.256823 -0.169455
-0.624608 -0.648199 0.320233
-0.619814 -0.179704 0.751495
-0.612137 0.324525 -0.600022
0.730169 -0.597613 -0.164059
-0.632107 0.747537 -0.177137
0.730998 -0.599051 -0.168776
-0.629822 0.750505 -0.176075
0.292701 0.278796 0.272786
0.291100 0.275903 0.275789
0.730600 -0.598442 -0.166459
-0.621363 -0.180883 0.753027
0.743193 0.257895 -0.169523
-0.166156 -0.619498 0.741278
-0.170354 0.744674 0.280719
0.731501 -0.600495 -0.167378
0.298422 0.293067 -0.631332
-0.170308 0.731993 -0.607760
0.291760 0.277390 0.273368
-0.631077 0.749334 -0.176910
-0.154173 -0.155267 -0.627840
0.299673 0.292602 -0.632071
0.285527 0.734880 -0.167886
0.766257 -0.150023 -0.624417
-0.625158 -0.649833 0.318244
-0.169560 0.744434 0.279479
-0.631808 0.749766 -0.176764
-0.592619 0.302570 0.274117
0.277793 -0.626074 0.271020
-0.164602 -0.619700 0.742023
-0.624807 -0.648937 0.318467
0.732103 -0.598962 -0.165875
-0.626292 -0.647360 0.321681
0.766300 -0.151650 -0.626135
-0.166748 -0.619539 0.743791
0.770223 -0.148479 0.301303
0.297909 0.292030 -0.630539
0.285178 0.734229 -0.165586
-0.161362 -0.622329 -0.169008
0.766318 -0.150231 -0.623645
0.744896 0.256437 -0.170131
0.266932 -0.156371 0.772445
-0.162462 -0.619882 -0.167693
0.731444 -0.599186 -0.166376
-0.155448 -0.155983 -0.628417
-0.166471 0.299584 0.769264
0.299336 0.293887 -0.631495
-0.166645 -0.620569 0.742820
-0.594220 0.299728 0.274849
0.770977 -0.150919 0.300621
-0.162534 -0.620651 -0.168989
-0.593965 0.301514 0.275377
0.768950 -0.149896 0.301958
-0.593677 0.300693 0.276821
-0.154700 -0.154734 -0.628700
-0.163751 -0.619823 -0.166493
0.278341 -0.626083 0.270851
-0.162741 -0.621621 -0.169100
-0.644581 -0.197732 -0.181800
0.290043 0.276624 0.272817
-0.611206 0.322700 -0.599414
0.280947 -0.608312 -0.633918
0.769858 -0.149945 0.302946
0.280992 -0.605716 -0.634965
-0.645106 -0.198311 -0.182145
0.300135 0.293411 -0.632127
0.299918 0.294444 -0.632866
-0.170839 0.733610 -0.607808
0.731615 -0.598613 -0.166075
0.731311 -0.595518 -0.168797
-0.643981 -0.198247 -0.180858
0.275895 -0.626325 0.272459
-0.633630 0.749024 -0.177117
-0.168989 0.744471 0.278619
0.285148 0.734793 -0.166816
0.277581 -0.626336 0.272617
-0.632928 0.747838 -0.177090
-0.610820 0.323051 -0.598952
0.742626 0.256391 -0.168765
0.730276 -0.598058 -0.166437
-0.169527 0.744162 0.280769
-0.167014 -0.619512 0.742857
-0.610611 0.322973 -0.599817
-0.644000 -0.199317 -0.180069
0.730053 -0.599754 -0.169109
-0.170017 0.744976 0.280472
-0.620245 -0.181332 0.753787
-0.167700 -0.619556 0.741508
0.731041 -0.598008 -0.166409
-0.169276 0.743574 0.280640
0.766721 -0.149734 -0.624250
-0.163875 -0.621528 -0.167909
-0.645531 -0.198853 -0.181452
-0.154341 -0.153710 -0.626893
-0.625354 -0.646736 0.320493
0.282446 -0.606448 -0.634081
-0.169633 0.743564 0.279908
0.742975 0.258092 -0.169335
-0.619663 -0.179010 0.751649
-0.169373 0.744243 0.278638
0.280353 -0.606638 -0.635181
0.287255 0.734462 -0.167478
0.768858 -0.150028 0.300546
-0.630897 0.750458 -0.175952
-0.592474 0.300350 0.276225
0.730123 -0.598876 -0.168296
0.276257 -0.625296 0.273285
-0.609093 0.323659 -0.598787
0.269394 -0.156063 0.771527
-0.645096 -0.198015 -0.182322
-0.167774 0.743759 0.280417
0.270554 -0.156727 0.771379
0.732065 -0.599779 -0.167148
0.769057 -0.149728 0.301205
-0.167959 -0.619308 0.741125
-0.608911 0.323018 -0.599782
-0.169265 0.731946 -0.606186
-0.166251 -0.621922 0.741213
0.269876 -0.157811 0.769305
-0.154197 -0.156428 -0.627199
0.272204 -0.155631 0.769935
0.298881 0.291175 -0.630541
-0.167992 -0.621274 0.741561
-0.593279 0.302064 0.274656
-0.618888 -0.179528 0.750788
-0.594446 0.299714 0.277092
-0.164722 0.301184 0.768307
0.277491 -0.626158 0.272070
-0.165527 0.300308 0.769131
-0.165517 0.299244 0.768508
0.272355 -0.155136 0.770094
-0.163232 -0.621423 -0.167262
-0.592425 0.302216 0.274387
0.277219 -0.626376 0.272232
-0.154091 -0.155806 -0.628259
-0.154459 -0.156071 -0.626595
