OFF
256 0 0
-0.420205 -0.308571 0.307935
-0.418923 0.113379 0.726636
-0.419802 -0.724145 -0.111858
0.838471 0.113856 -0.533197
0.421321 -0.724172 -0.111477
-0.418946 0.115414 0.725483
0.418688 -0.307910 -0.531586
-0.418447 -0.306745 0.305353
-0.000194 0.533144 0.725925
0.419285 -0.725363 -0.112383
0.000648 -0.724304 -0.531977
-0.001359 0.112530 -0.533257
-0.838339 0.531629 -0.112101
-0.838593 0.112243 -0.531818
0.839380 0.531321 -0.113435
0.418087 0.532391 0.307060
0.419308 0.532414 0.308654
-0.418858 -0.304995 0.308375
-0.839765 0.112615 -0.532050
-0.001546 -0.306270 0.725379
-0.419751 -0.307324 -0.534365
0.420005 0.113727 0.726435
0.419086 0.533030 -0.532128
-0.000941 0.532755 0.726246
-0.419086 -0.306420 0.306848
-0.001026 0.532021 -0.115233
0.840599 0.114523 -0.532394
0.421734 0.531565 -0.530915
-0.000198 0.112312 -0.532005
-0.002249 0.113480 -0.533150
0.419447 0.532640 -0.533060
-0.001226 0.532896 -0.114436
-0.421165 0.532319 -0.532889
-0.837895 0.114760 -0.532912
0.838332 -0.308195 -0.112872
0.000082 -0.724761 -0.532172
0.419808 0.111721 0.726896
0.418912 0.532376 -0.533774
-0.001055 0.112398 -0.533423
-0.000392 -0.305162 0.725688
0.418523 0.110167 0.725611
-0.000455 -0.727649 -0.531690
0.001775 -0.725612 0.307676
0.420282 -0.306851 0.304431
0.419496 0.531824 0.304766
-0.839511 0.112313 0.307097
-0.418390 -0.725367 -0.113663
-0.419536 0.113737 0.724659
-0.000075 0.112017 -0.532351
-0.839410 -0.306543 -0.111745
-0.000499 0.113104 -0.530079
-0.420152 0.533831 -0.531336
-0.839189 0.111944 0.307339
0.000259 -0.725733 0.304628
-0.421571 0.531538 -0.532086
-0.839316 0.111799 0.306801
0.840001 0.111961 0.307406
0.419813 -0.303655 0.308828
0.000154 0.530703 0.725706
-0.419532 0.111479 0.725574
0.838845 -0.306567 -0.111270
-0.839928 0.532673 -0.112476
0.001043 0.533300 0.726517
-0.835577 0.113989 0.307287
0.000825 0.531205 0.724064
-0.000167 0.532659 -0.112932
0.000669 0.114483 -0.531362
-0.419720 0.112864 0.725563
0.837762 0.531905 -0.113557
0.419200 -0.726531 -0.111900
-0.419491 -0.726613 -0.114003
-0.420048 0.530446 -0.532845
-0.001314 0.531873 -0.113186
0.418099 0.533048 -0.533709
-0.837513 0.533502 -0.114292
-0.418415 -0.725268 -0.113173
-0.419304 -0.724127 -0.114158
0.000242 0.112972 -0.532320
0.838838 0.531753 -0.112500
-0.837071 0.115004 -0.532355
0.419904 0.534033 -0.533258
0.839441 -0.307025 -0.114619
-0.419354 -0.306119 -0.533497
-0.420326 -0.726106 -0.112198
0.418061 0.530643 0.305855
-0.839515 0.112874 0.307755
-0.839727 0.113149 0.306155
-0.000289 -0.723989 -0.531226
-0.839343 0.531450 -0.112594
-0.001297 0.533424 -0.113803
0.418902 -0.725790 -0.114209
-0.419836 -0.307623 -0.531906
0.419471 -0.307155 0.304955
-0.420661 -0.725682 -0.113007
0.420062 -0.306868 -0.532033
-0.838481 -0.306696 -0.114696
0.001807 -0.305908 0.725030
0.419915 -0.726050 -0.111393
0.419662 0.112928 0.725097
-0.420320 0.530447 0.307037
-0.419115 0.531964 -0.533176
-0.418481 -0.307274 0.307467
0.837805 -0.309280 -0.113099
0.838960 0.113027 -0.530938
0.839486 0.114399 0.306982
-0.839342 0.111656 -0.532315
0.838610 0.113713 -0.530865
0.418943 0.112718 0.725212
0.419091 -0.306142 -0.532356
0.839383 -0.307472 -0.113911
0.419644 0.534293 -0.533822
0.837349 0.113665 0.306252
0.000569 -0.726201 0.306783
-0.839108 -0.306614 -0.112738
0.001523 -0.727132 -0.532471
0.418789 0.532919 0.306748
0.840788 -0.308101 -0.111977
0.838018 0.530670 -0.112260
0.419949 -0.307308 -0.531802
-0.839400 -0.305536 -0.112690
-0.420304 0.532935 -0.534484
0.419503 0.533016 -0.533420
-0.838901 0.112249 -0.531987
0.419544 0.530945 -0.534368
-0.001151 -0.727934 0.308211
0.418044 -0.725536 -0.112406
0.000304 -0.725552 -0.530894
-0.419650 0.533197 -0.532844
0.418761 -0.307594 -0.532554
0.417710 0.112191 0.727955
0.419317 -0.307022 -0.531072
0.001177 -0.306307 0.726959
-0.838752 0.113203 0.305257
-0.419678 0.530506 0.306893
0.420073 0.533036 0.305096
0.419123 0.113442 0.726387
-0.002013 0.532352 0.725570
0.000166 -0.725154 0.306715
0.418345 0.112997 0.725057
0.000468 0.114541 -0.531358
0.836307 0.531796 -0.112145
0.419157 -0.307552 -0.531955
-0.839399 0.115953 0.306157
0.421032 -0.308044 0.308157
-0.000425 0.532624 -0.114092
-0.839431 0.532249 -0.112177
0.838643 0.532330 -0.112193
-0.418791 0.111792 0.724333
-0.839408 0.113888 -0.533387
-0.838313 0.532477 -0.113306
-0.420050 0.531882 -0.532281
-0.418856 0.112747 0.724248
-0.837369 0.113616 0.305819
0.418091 -0.307417 -0.533051
-0.418307 -0.725987 -0.113374
0.419818 -0.306614 -0.533130
-0.419321 0.533375 -0.533536
-0.000686 0.532570 -0.113013
-0.418828 -0.307955 -0.532092
0.418998 -0.306593 -0.534136
0.419836 -0.726175 -0.113820
-0.419087 0.112747 0.726482
0.421141 0.111980 0.726250
-0.000045 0.533922 0.723879
-0.839692 0.113041 0.307266
0.419789 -0.305353 0.305459
-0.839891 0.531679 -0.113623
-0.838566 0.533134 -0.113387
-0.417388 0.533430 -0.530205
-0.838175 0.113036 0.305463
0.839127 0.113006 -0.531367
0.000059 -0.725643 0.306376
0.418735 -0.725860 -0.114644
0.000132 -0.306208 0.725490
0.002255 0.533270 -0.112774
0.000294 -0.726661 0.305853
0.838975 0.112967 -0.532126
-0.419351 -0.727571 -0.112660
0.420944 0.531945 -0.530980
0.839318 0.115325 -0.531584
0.838868 0.112280 0.307340
0.839868 -0.307320 -0.114825
0.419098 -0.307177 0.306243
0.420035 -0.306865 0.306232
-0.840702 0.113716 -0.532397
0.418673 -0.305748 0.305897
-0.419842 -0.306091 0.305763
0.420059 0.532734 0.305850
0.000895 0.532668 0.726283
0.838580 0.114912 -0.534398
-0.419580 -0.307250 0.307475
0.837452 -0.306720 -0.112634
0.001052 -0.307944 0.726279
-0.000714 0.532687 -0.111496
0.418472 0.534418 0.305100
-0.837677 0.113038 -0.531122
-0.417950 -0.306939 0.306584
0.840241 0.533225 -0.113048
0.000948 0.113687 -0.533275
0.419719 0.113847 0.723820
-0.418798 -0.725772 -0.112027
-0.839932 0.110680 -0.533144
-0.420279 0.532970 0.306775
0.419600 0.531801 0.308010
0.000321 -0.723898 0.306638
0.417783 0.531646 0.308354
0.000402 -0.305063 0.724560
-0.419440 0.531255 0.307445
-0.000476 0.531425 0.725124
0.838270 0.113571 -0.533220
0.838140 -0.306135 -0.111560
0.420389 0.113466 0.726910
-0.001906 0.112214 -0.532668
0.000111 0.532451 -0.114444
-0.837183 0.113673 0.306105
0.838152 0.532056 -0.113561
-0.839150 -0.307240 -0.111391
0.419599 0.530612 -0.533108
-0.419480 -0.305154 0.304827
-0.420118 -0.727157 -0.113234
0.000283 0.531261 0.728140
-0.419209 0.531460 0.305165
0.000826 0.531882 0.724529
0.418476 -0.305167 -0.532193
-0.837148 0.112349 0.307075
-0.839566 0.530438 -0.112325
0.000873 0.533579 -0.114133
0.419048 -0.306564 0.304986
0.839826 0.112864 -0.531509
-0.418932 -0.726718 -0.112485
-0.418725 0.533869 0.307638
-0.420771 -0.305628 0.307604
0.419191 0.533545 0.306502
-0.420216 0.533820 -0.532934
-0.001344 0.112968 -0.532076
0.000014 -0.726524 -0.531250
-0.840040 0.113251 0.307409
-0.418626 0.112960 0.724954
0.419280 -0.306350 -0.532035
-0.838488 0.532155 -0.111194
-0.417375 -0.727286 -0.114345
-0.419028 -0.726143 -0.111930
-0.420301 -0.306100 -0.532313
0.839705 0.111774 -0.533030
0.839845 0.112898 0.306398
-0.837976 0.112398 0.305755
-0.420468 0.530859 0.305965
0.419986 -0.726888 -0.112846
0.419317 0.112140 0.727183
0.419018 -0.306541 -0.532693
0.841034 0.111934 0.306246
-0.000623 0.531511 -0.113237
-0.419123 0.531868 0.308332
-0.838510 0.113068 0.307118
0.420315 -0.307967 -0.530574
-0.420145 0.533295 -0.533713
