OFF
256 0 0
0.105595 -0.815317 0.524541
-0.271114 0.384095 -0.305238
0.137211 0.824864 -0.297208
-0.714201 0.015759 -0.302521
-0.695915 -0.406035 0.117041
-0.312610 0.419501 0.515452
0.138539 0.825322 -0.298619
-0.301696 0.850577 0.099465
0.525582 -0.004230 0.160201
-0.305234 -0.808070 0.097437
-0.697116 -0.406203 0.115408
-0.735385 0.409819 0.118054
0.106928 -0.814612 0.523724
-0.289579 -0.419938 0.519903
0.088688 -0.433222 -0.724042
-0.287423 -0.417079 0.521081
0.479078 -0.385315 -0.293080
0.528478 -0.018752 -0.733717
-0.304614 -0.808787 0.099906
0.530173 0.837676 0.107322
0.510568 0.432594 0.535090
-0.289923 -0.416750 0.519066
0.523817 -0.840721 0.140008
-0.713618 -0.003413 0.507803
-0.736562 0.408954 0.119265
-0.288316 -0.417788 0.518396
-0.311994 0.419419 0.512015
-0.712134 -0.002957 0.509969
0.526289 -0.418949 0.550604
-0.738009 0.407845 0.120744
0.108908 0.421221 -0.726277
0.109122 0.421639 -0.728475
-0.289501 -0.418343 0.520141
0.526070 -0.004888 0.160435
-0.302086 0.848899 0.100470
0.097659 0.833404 0.517623
-0.289967 -0.416426 0.518918
0.137832 0.824948 -0.298944
0.095992 0.835863 0.516148
0.524466 -0.840211 0.140897
-0.306939 -0.808908 0.098946
0.136108 0.825440 -0.299944
0.118809 -0.838804 -0.316840
0.104117 -0.814252 0.523035
0.117103 -0.839794 -0.315382
0.104933 -0.815328 0.523920
-0.269394 0.385287 -0.304537
-0.313338 0.420156 0.514732
0.510986 0.431667 0.536320
0.527639 -0.421003 0.550893
-0.270483 -0.412227 -0.289656
0.526730 -0.419838 0.546259
-0.290143 -0.417483 0.518487
-0.292232 -0.416827 0.520341
0.100863 -0.027525 0.522229
0.118673 -0.839480 -0.315129
0.136200 0.822692 -0.298980
0.526856 -0.006083 0.160943
-0.269546 -0.411993 -0.288178
0.085469 -0.436098 -0.724885
0.096698 0.835415 0.517975
0.480850 -0.383853 -0.294194
0.527415 0.389083 -0.286051
0.530319 -0.016375 -0.734481
0.104985 -0.812621 0.524219
0.096623 0.834643 0.516558
-0.714228 0.016618 -0.301579
0.526075 0.389521 -0.285316
0.527327 -0.419495 0.550165
-0.736700 0.408652 0.117547
0.109415 0.420346 -0.728012
0.102933 -0.815032 0.523802
0.529684 0.835250 0.107967
0.530709 0.837923 0.105111
-0.305748 -0.809843 0.098553
0.119082 -0.838715 -0.316644
0.529554 -0.017783 -0.734250
0.108404 -0.814818 0.523932
0.525150 0.389687 -0.286596
-0.313008 0.418686 0.515252
0.524095 -0.419585 0.548523
-0.269361 0.383422 -0.304935
-0.271232 -0.411020 -0.289610
-0.712974 -0.002036 0.508949
-0.295257 0.013092 -0.756414
0.118027 -0.839994 -0.315742
0.108961 0.421994 -0.725800
0.530915 -0.016191 -0.734451
-0.303256 -0.809131 0.099428
0.096010 0.835441 0.515740
0.525212 0.389063 -0.285406
0.526709 -0.418863 0.548744
-0.312545 0.419509 0.514638
0.525452 -0.421254 0.550062
0.530433 -0.017251 -0.732560
0.530608 0.836619 0.108286
0.100259 -0.026214 0.521557
-0.303627 0.850053 0.101230
0.095181 0.834455 0.517760
0.530151 -0.017096 -0.734601
-0.312652 0.418408 0.513664
0.085618 -0.434404 -0.725017
-0.713153 -0.000519 0.508253
-0.698678 -0.408865 0.114456
-0.289662 -0.417607 0.520992
-0.301468 0.849428 0.099907
0.526707 -0.008932 0.160499
0.108375 0.421464 -0.728087
-0.290333 -0.418067 0.518464
0.108461 0.419936 -0.728284
0.526262 -0.419079 0.550678
-0.311549 0.419641 0.512436
0.526177 -0.007002 0.161754
-0.715126 0.017843 -0.300290
0.527200 0.388573 -0.285708
0.525751 0.388723 -0.286816
0.137458 0.823449 -0.300289
0.523825 -0.840431 0.138284
-0.312866 0.419044 0.514403
-0.712547 -0.003806 0.508145
-0.271149 -0.412232 -0.289943
0.526135 -0.009915 0.162610
0.101002 -0.027670 0.521830
-0.713637 0.017881 -0.302199
-0.296575 0.015240 -0.753949
0.104921 -0.814693 0.523333
0.512115 0.430068 0.535701
-0.289623 -0.418185 0.518802
-0.270283 -0.411133 -0.289512
-0.271082 -0.411390 -0.289122
-0.301323 0.849170 0.100494
0.104800 -0.812165 0.523945
0.101808 -0.025183 0.522734
0.529864 0.837629 0.108774
0.527133 -0.417531 0.547548
0.480364 -0.384679 -0.294878
-0.696748 -0.407015 0.116609
-0.714276 0.017147 -0.300176
0.106937 -0.813860 0.523945
0.525970 0.387144 -0.285828
-0.294375 0.014776 -0.753038
0.526843 -0.007895 0.159787
0.525018 -0.421307 0.548878
-0.710143 -0.005137 0.510186
0.117372 -0.840207 -0.315786
0.530454 0.838664 0.107736
0.523970 -0.840067 0.139913
0.084606 -0.436824 -0.726413
0.095289 0.835571 0.516852
-0.311926 0.418923 0.513355
-0.713600 0.017034 -0.300331
-0.312042 0.419267 0.516545
0.481405 -0.384946 -0.294324
-0.302014 0.849737 0.098824
0.512999 0.434592 0.535294
0.110278 0.420983 -0.728692
0.531588 0.835292 0.107189
0.511181 0.430784 0.535193
0.526484 -0.007711 0.159967
-0.697250 -0.406647 0.114433
-0.291101 -0.418319 0.518231
-0.697077 -0.406034 0.113855
0.108933 0.421981 -0.726196
0.529183 0.836751 0.106538
0.100624 -0.025435 0.521362
0.105656 -0.814275 0.524732
-0.736280 0.408444 0.119613
-0.314247 0.419696 0.515753
0.525635 0.386665 -0.284844
0.524022 -0.838271 0.141304
-0.305700 -0.809109 0.097702
-0.713821 -0.003205 0.507138
-0.697907 -0.407455 0.115091
0.478817 -0.382545 -0.295141
0.523329 -0.840423 0.140218
-0.711515 -0.004137 0.509249
-0.301555 0.849252 0.101978
0.086016 -0.434284 -0.724161
-0.735606 0.410127 0.120302
0.525847 -0.421101 0.550443
-0.696727 -0.406587 0.116323
0.526119 0.386399 -0.287448
0.108324 0.422100 -0.726186
0.107556 0.422529 -0.727774
-0.715862 0.018190 -0.301655
0.479810 -0.382427 -0.294686
-0.288411 -0.416300 0.520058
0.530004 -0.016088 -0.734692
-0.290352 -0.415895 0.519108
-0.697124 -0.406963 0.114661
0.479286 -0.382753 -0.295190
0.100410 -0.024801 0.520562
0.099910 -0.028590 0.523331
0.095770 0.836522 0.517278
-0.295349 0.014347 -0.752321
-0.711800 -0.002888 0.508588
0.480067 -0.383580 -0.295105
-0.712971 -0.001119 0.508242
0.107355 -0.815699 0.524195
0.137400 0.824793 -0.299336
0.095764 0.834343 0.517034
-0.305742 -0.809983 0.099945
-0.737411 0.408988 0.119026
0.525798 -0.005980 0.162346
-0.271424 0.383965 -0.306836
0.526996 0.388524 -0.284041
-0.734997 0.409466 0.118269
0.525682 -0.418443 0.547762
-0.269948 -0.409842 -0.289683
-0.269367 -0.411683 -0.289508
-0.736446 0.407579 0.120384
0.118956 -0.838850 -0.316027
0.094350 0.835111 0.518622
0.137925 0.824030 -0.298404
-0.305258 -0.809284 0.099858
-0.696710 -0.407376 0.114823
-0.292917 0.014267 -0.755423
0.102888 -0.025635 0.520712
0.527697 -0.008175 0.160932
0.099485 -0.025063 0.521676
0.136632 0.824536 -0.298486
0.526210 0.388516 -0.284938
-0.302898 0.849456 0.100355
0.531552 0.837024 0.107021
0.527393 -0.419996 0.548326
-0.294543 0.013675 -0.752945
0.479142 -0.383494 -0.294982
0.523086 -0.840706 0.139805
0.527375 -0.419538 0.552824
0.109435 0.420911 -0.728192
-0.294508 0.014759 -0.755349
0.525573 -0.419845 0.549419
-0.293886 0.013966 -0.752520
0.136948 0.824157 -0.298315
-0.712906 -0.003677 0.509931
-0.697073 -0.407426 0.114318
0.523006 -0.840340 0.140232
-0.714353 0.015441 -0.301088
-0.714429 0.016256 -0.301922
0.527676 -0.007516 0.160282
-0.303360 -0.809212 0.100418
0.108906 0.421169 -0.727773
0.137726 0.825505 -0.298042
-0.302726 0.849321 0.100061
-0.312878 0.419577 0.514542
0.136278 0.825651 -0.297048
-0.698727 -0.408387 0.114581
0.137660 0.824316 -0.299937
-0.311404 0.419246 0.513617
0.106567 0.421686 -0.729746
-0.271208 0.381548 -0.304493
-0.269862 -0.410964 -0.289948
-0.271449 -0.411838 -0.290729
0.138263 0.824909 -0.299045
0.530051 0.836840 0.108779
0.527115 -0.006488 0.161999
