OFF
256 0 0
-0.688149 0.230474 -0.231096
-0.687817 0.230018 -0.229551
-0.689399 0.688044 0.229636
-0.689725 -0.688622 -0.230172
-0.229085 0.689554 0.686183
-0.230734 0.689029 0.687229
0.690208 0.686748 -0.228857
0.228646 -0.686615 0.688659
-0.229998 0.229564 -0.689061
-0.228821 -0.688772 -0.688402
-0.687790 -0.229692 0.230800
-0.228525 0.688272 -0.228721
0.228825 -0.690691 -0.228200
0.229739 -0.686470 0.688791
-0.688979 -0.228859 0.231089
-0.230286 0.229092 -0.687919
0.229729 0.689693 0.229610
-0.227652 0.687945 -0.228845
0.229925 -0.687520 0.689913
-0.228993 -0.689336 0.228812
-0.230688 -0.688681 0.231159
0.231344 -0.690279 -0.227580
-0.686162 0.689234 0.229309
-0.229433 -0.229078 0.688703
-0.687926 -0.230378 0.229223
-0.686268 -0.230735 0.228966
-0.228058 -0.688795 0.229348
-0.689160 -0.229066 0.228699
-0.689303 -0.229480 0.228811
-0.688218 -0.688131 -0.228985
-0.689463 0.688852 0.230034
0.687775 0.229713 -0.686644
-0.690279 0.687928 0.230311
-0.687593 0.229488 -0.229995
-0.689273 -0.230876 -0.688989
0.689040 0.230438 -0.689043
0.689868 -0.228038 -0.230069
-0.230028 -0.687440 0.229945
-0.689360 -0.228706 0.229218
0.688996 0.688090 -0.228981
0.687344 0.689205 -0.230058
0.688949 0.687439 -0.228492
-0.686881 -0.227979 -0.688479
0.229512 -0.687450 0.689792
0.685964 0.229999 0.229216
-0.231653 0.229250 -0.686100
-0.688410 -0.688002 -0.228681
-0.688025 -0.229947 0.231118
-0.228681 -0.687803 0.228175
0.228885 0.229036 0.687290
-0.230109 0.688506 -0.230022
-0.229428 -0.230181 0.686785
0.687879 0.229877 -0.689350
-0.228421 -0.686458 -0.690771
-0.688786 -0.688822 -0.230140
-0.230048 0.686410 0.688399
-0.229864 -0.687125 0.228305
-0.228892 0.688479 0.689581
0.229290 0.230154 0.687704
-0.230014 -0.688836 0.228478
0.686562 0.688979 -0.228901
0.228775 -0.687708 -0.228497
0.688760 -0.229744 0.689184
-0.687995 0.229499 0.686893
0.687179 0.230719 0.229664
0.230023 0.228318 0.688009
-0.229825 -0.687263 -0.687443
-0.687344 -0.689181 -0.228276
-0.688523 0.230041 0.688724
-0.688392 -0.228072 0.229026
0.688126 0.687766 -0.229299
0.687796 -0.229606 -0.228760
0.230300 -0.232242 -0.687644
0.229173 -0.689330 0.686837
0.228544 0.688780 0.229854
0.227723 -0.688003 0.688145
-0.688481 0.228538 0.687288
-0.231101 0.686854 0.688697
-0.687581 0.228570 0.689575
-0.229284 -0.229090 0.687256
0.687779 -0.229418 -0.229404
-0.688517 0.686944 0.228500
-0.687382 0.689414 0.229523
-0.688928 -0.229377 0.228213
0.687758 0.688502 -0.228253
0.687463 -0.229194 -0.230802
0.229588 0.229783 0.687442
0.688092 0.687410 -0.229103
0.230286 -0.688882 0.688915
0.688299 0.230625 -0.688189
-0.231531 -0.686813 -0.688339
-0.688777 -0.229544 -0.690020
0.686938 0.229007 -0.687003
-0.687837 -0.228988 0.229193
-0.229680 0.689487 0.688143
-0.687989 0.688376 0.229318
0.687296 0.687679 -0.229284
0.687609 0.688369 -0.228595
0.229609 0.687666 0.230409
0.688199 -0.230017 0.688012
-0.228932 -0.688980 0.229877
0.227894 -0.227410 -0.689282
-0.688819 0.688850 0.230228
-0.687612 0.229662 -0.228673
-0.230755 -0.688551 -0.688075
-0.229899 -0.689099 -0.688203
-0.689272 -0.688169 -0.231177
0.230445 0.686371 -0.688645
-0.688708 0.230162 0.685486
-0.229705 0.689715 -0.230306
0.231930 -0.228729 -0.689574
-0.229244 -0.229290 0.687660
0.688095 -0.229586 0.687628
-0.229241 0.687906 -0.230495
-0.687359 0.229077 0.689947
0.689385 0.687740 -0.229376
-0.229168 0.688796 -0.228852
0.230042 -0.688647 0.687402
-0.228784 -0.688371 -0.690903
-0.228334 -0.688088 -0.688885
-0.687065 -0.689755 -0.229011
-0.687558 -0.228481 0.227417
0.689564 -0.228050 0.689592
-0.228604 0.687793 0.688931
-0.228966 0.687596 0.687656
-0.229223 -0.228903 0.688956
-0.686727 -0.230550 0.229846
-0.230355 -0.229947 0.688396
0.687080 -0.229651 0.688724
0.229547 -0.230078 -0.688465
-0.229339 -0.688420 0.229572
0.687984 -0.229424 0.689425
0.686930 -0.229635 -0.228310
-0.228372 -0.689242 -0.686298
-0.690087 0.230691 0.689339
0.687286 -0.688919 0.229071
0.231104 0.687489 0.231963
0.688263 0.689810 -0.229017
0.688425 -0.227303 -0.230193
0.687871 -0.230155 0.690435
-0.228477 -0.230957 0.687412
0.689106 0.229098 -0.689535
0.688192 0.687992 -0.230606
-0.230570 0.689392 0.688946
0.228750 0.687617 -0.687902
-0.688807 -0.228934 -0.689784
-0.229582 -0.689684 -0.687791
-0.228435 -0.690465 -0.688112
-0.229121 0.687102 -0.230501
0.687910 -0.687774 0.228391
-0.229143 -0.689697 0.227337
-0.688843 -0.689224 -0.229624
0.688176 0.686984 -0.228382
0.228596 -0.229985 -0.685521
0.228609 0.688974 -0.687226
-0.228356 -0.687385 0.229805
0.686929 -0.227508 0.689815
0.686707 -0.230611 -0.228732
0.230191 -0.687798 0.686954
-0.689040 -0.228813 -0.688481
0.687854 0.229655 -0.687534
0.230948 -0.688781 0.687564
-0.229344 -0.687420 0.230214
0.227500 0.229429 0.687618
0.687452 -0.688230 0.227276
0.686925 -0.228733 0.687736
0.689490 0.688727 -0.229772
0.689941 0.228315 0.228435
0.231541 -0.689176 -0.230155
0.230916 0.687738 0.229788
-0.687454 -0.688335 -0.229803
-0.689457 0.687359 0.228887
0.229935 -0.229447 -0.686563
0.688144 0.688869 -0.229736
-0.690023 -0.227902 -0.688614
0.686925 -0.230455 -0.229721
-0.228409 0.687357 -0.228871
-0.231069 0.688082 -0.230108
-0.231113 0.688138 -0.230666
-0.689478 -0.230283 -0.687818
0.230097 -0.687757 -0.229168
0.229239 -0.688055 0.688168
0.227730 0.687216 0.231422
-0.687611 0.688491 0.229678
-0.230059 -0.687230 0.230188
-0.689518 -0.687245 -0.229161
-0.229583 -0.687124 -0.688597
-0.689559 0.229396 0.689135
0.230705 -0.688711 0.687453
0.229243 -0.687854 -0.229333
-0.229203 -0.229701 0.686086
0.687020 0.228767 -0.687663
-0.689206 0.228583 -0.228462
0.688311 0.228952 0.229880
-0.230839 -0.688745 0.229498
-0.229984 -0.687586 0.228668
0.229894 -0.231583 -0.686672
-0.688676 -0.229692 0.228847
0.228709 0.688312 0.229561
0.687575 -0.689340 0.227145
-0.687998 0.229202 0.688493
0.228530 0.229223 0.686568
-0.229727 -0.227659 0.687237
-0.227255 0.229747 -0.688227
0.687133 0.230066 0.229440
0.229620 -0.230973 -0.687365
-0.231065 -0.686682 0.229682
0.229324 0.230304 0.689450
-0.688493 -0.230156 -0.690168
-0.229841 0.685834 -0.229248
0.228872 0.688852 0.230493
-0.688325 0.689631 0.230008
-0.228673 0.230225 -0.688832
0.688764 0.229297 0.229414
0.688268 -0.688019 0.229921
0.230323 -0.689649 0.688551
0.228652 -0.228577 -0.687764
0.689186 0.231166 0.229291
-0.229346 -0.687990 -0.688241
0.688816 0.687857 -0.228835
-0.229234 -0.229556 0.686997
-0.689524 0.230138 0.687393
-0.687894 0.230468 0.687661
-0.687312 -0.228819 0.231763
0.229512 0.228985 0.688785
0.687665 0.229049 -0.688849
0.229519 0.228393 0.688387
0.688039 -0.231667 0.689487
0.229123 0.227819 0.688774
-0.228904 0.688053 -0.230333
0.229915 -0.229373 -0.689954
0.689018 -0.228181 -0.228271
-0.687805 0.688630 0.227730
-0.688085 0.230273 -0.229570
0.230274 0.686586 -0.686387
0.230886 0.686771 0.228847
-0.229926 0.689538 -0.229055
0.689251 -0.687928 0.228975
-0.686598 -0.689139 -0.229681
0.228056 -0.230378 -0.689573
0.689241 -0.687612 0.231417
-0.230149 0.688395 0.689419
0.228277 -0.228688 -0.689089
-0.231044 0.229609 -0.688902
-0.687676 0.231987 0.689052
0.228753 -0.689606 -0.229757
-0.688036 0.229096 0.688331
0.228397 -0.229676 -0.690212
-0.229450 -0.687818 0.229970
0.230188 0.688120 0.230217
0.689822 -0.687201 0.229684
-0.689668 -0.229919 -0.688178
0.229487 0.690798 -0.688354
-0.231117 -0.688138 -0.687190
-0.230902 0.690151 -0.229932
-0.690668 0.228369 0.687332
