OFF
256 0 0
0.208090 0.238924 0.721756
0.253016 0.683105 0.227555
-0.211917 0.661186 -0.195770
-0.670986 0.647854 0.222298
-0.669739 0.205161 0.650206
0.202073 -0.667337 -0.237392
0.631580 -0.220703 -0.206765
-0.672504 -0.239678 -0.668205
-0.230394 -0.197816 0.614199
0.639605 0.227628 -0.675895
0.209627 0.243045 0.719707
-0.679934 -0.240359 0.204546
0.248920 -0.227249 -0.680990
-0.668221 0.204453 0.648739
0.637300 0.226666 -0.671987
0.638489 0.227346 -0.673413
0.252760 0.684164 0.228877
0.631864 -0.220710 -0.207031
0.207576 0.241798 0.718789
-0.655651 -0.684527 -0.200981
0.672201 -0.191405 0.693608
-0.669063 0.651319 0.220695
0.657577 0.221837 0.244405
-0.213256 0.226187 -0.669819
-0.670073 0.650198 0.221380
-0.658828 0.195064 -0.222659
0.252978 0.682979 0.228037
0.250755 0.682861 0.227356
0.670434 -0.191613 0.693038
0.677398 -0.662206 0.244653
0.203562 -0.667000 -0.237916
-0.669270 0.204900 0.649836
-0.658059 0.193658 -0.222030
-0.210768 0.225158 -0.673572
-0.252626 -0.678707 -0.679707
0.629837 -0.221155 -0.206021
0.631097 -0.221248 -0.206264
0.253577 0.682398 0.228074
0.220962 0.693123 -0.685342
0.630083 -0.220762 -0.205033
0.629426 -0.220133 -0.205239
0.201340 -0.667415 -0.237662
0.203465 -0.666058 -0.237799
0.640477 0.227255 -0.675425
-0.668087 0.649494 0.222663
-0.203931 -0.678197 0.208393
-0.668390 0.650111 0.222288
-0.210350 0.226587 -0.670860
0.252122 0.683174 0.228630
0.678560 -0.660732 0.245028
-0.668966 0.650479 0.221595
0.637985 0.226014 -0.674383
0.246946 -0.642305 0.655720
-0.668328 0.204766 0.645983
0.653809 0.666591 -0.224014
0.638678 0.227518 -0.674443
0.657442 0.222250 0.245309
0.223173 0.694594 -0.686113
0.251719 0.681654 0.230368
-0.669985 0.651100 0.221769
-0.252944 -0.679835 -0.680930
-0.193673 0.662173 0.659179
0.652794 0.665965 -0.221796
0.638519 0.227510 -0.673503
-0.212928 0.226485 -0.671776
-0.229425 -0.198008 0.612987
0.631522 -0.221530 -0.205789
0.250479 0.683803 0.228758
0.201927 -0.668116 -0.238343
0.630297 -0.220044 -0.207864
-0.252195 -0.679177 -0.680488
-0.670774 0.205476 0.648762
0.639047 0.230750 -0.673931
0.245172 -0.642462 0.655688
-0.673948 -0.240160 -0.669363
0.657897 0.222124 0.246317
-0.673321 -0.240813 -0.669662
-0.212405 0.227573 -0.671159
0.631824 -0.220671 -0.205584
-0.211874 0.660796 -0.196374
0.638730 0.227105 -0.674786
-0.212339 0.660059 -0.195009
0.671523 -0.192072 0.693178
0.675676 -0.661117 0.243482
0.639443 0.229533 -0.675866
-0.672885 -0.240108 -0.668426
-0.657800 0.193783 -0.223547
0.251562 0.682867 0.228206
0.246863 -0.643508 0.655426
-0.668659 0.204498 0.650566
-0.211327 0.226588 -0.671528
-0.252243 -0.681748 -0.678401
-0.679704 -0.239651 0.204693
-0.674279 -0.238353 -0.667085
0.657447 0.220843 0.245230
-0.207096 -0.677739 0.207915
-0.211612 0.659379 -0.194459
-0.212436 0.226301 -0.672098
0.251897 0.682440 0.229054
0.252833 0.682876 0.229717
0.209413 0.242886 0.720151
-0.211437 0.225338 -0.671751
-0.211516 0.227826 -0.670042
0.221879 0.693983 -0.685261
-0.232296 -0.196996 0.613961
0.249873 -0.226837 -0.679810
-0.214143 0.225860 -0.671686
-0.211900 0.661751 -0.194119
-0.251619 -0.679666 -0.680316
0.671007 -0.191369 0.691835
0.669921 -0.190682 0.693278
0.656544 0.220026 0.247386
-0.212339 0.226776 -0.671024
-0.668230 0.651684 0.221776
0.250164 -0.227456 -0.682295
0.630002 -0.220277 -0.206325
-0.670992 0.652050 0.221409
0.253413 0.683013 0.228395
0.640010 0.227903 -0.674308
-0.674591 -0.240934 -0.669206
0.203088 -0.668658 -0.237858
-0.194474 0.659994 0.657021
-0.212794 0.226294 -0.672287
-0.672895 -0.240645 -0.668300
0.250529 -0.227468 -0.680446
0.640450 0.226812 -0.677086
-0.656333 -0.686742 -0.202315
-0.670819 0.205795 0.648943
-0.251031 -0.677446 -0.678223
0.639919 0.229056 -0.675678
0.637977 0.227076 -0.675137
-0.229602 -0.200282 0.615580
-0.670145 0.652077 0.219357
0.653163 0.665653 -0.221114
0.208152 0.242010 0.720341
-0.675522 -0.240166 -0.669275
0.638452 0.227424 -0.674034
-0.656545 -0.685464 -0.201740
-0.231076 -0.200055 0.613249
-0.670388 0.206849 0.651895
-0.251968 -0.679793 -0.679172
0.631575 -0.220689 -0.205161
-0.658676 0.193585 -0.221002
0.652535 0.665864 -0.221785
-0.192820 0.660419 0.659030
0.653539 0.664672 -0.222787
-0.231252 -0.198534 0.616254
0.219803 0.692576 -0.684778
-0.210921 0.225023 -0.670623
0.631537 -0.221188 -0.206355
0.677679 -0.661555 0.242970
-0.671227 0.651444 0.220852
-0.230922 -0.198616 0.614881
-0.668644 0.205779 0.649792
-0.206278 -0.677688 0.208714
0.655647 0.220694 0.246679
0.223003 0.694744 -0.685142
-0.212168 0.662506 -0.194619
-0.212568 0.227565 -0.672391
0.653411 0.665603 -0.220376
0.209401 0.241521 0.720394
-0.192181 0.661784 0.659088
-0.667939 0.206579 0.649251
0.671363 -0.191864 0.694849
0.671270 -0.191640 0.692812
-0.668023 0.650642 0.221496
-0.668923 0.205160 0.649405
-0.671380 -0.239547 -0.668991
0.652878 0.662802 -0.222835
-0.212163 0.659043 -0.195007
0.250422 -0.227012 -0.679278
-0.656559 -0.683885 -0.201067
0.640095 0.227346 -0.674752
-0.212177 0.226001 -0.672552
-0.211975 0.660136 -0.193470
-0.231252 -0.199217 0.613765
0.246166 -0.642551 0.656327
0.656465 0.222441 0.246488
-0.658143 0.194660 -0.220792
-0.248651 -0.678644 -0.678721
-0.210913 0.660923 -0.193421
-0.655118 -0.686389 -0.199504
0.252670 0.682344 0.228966
-0.250761 -0.678458 -0.677246
-0.669924 0.649252 0.223763
-0.668894 0.653289 0.222274
-0.211803 0.225289 -0.670643
0.654515 0.667030 -0.221306
-0.211082 0.224402 -0.670247
0.679034 -0.661252 0.243169
-0.210902 0.658993 -0.195615
0.630491 -0.219715 -0.206635
-0.232146 -0.196780 0.613671
0.639589 0.229014 -0.676189
0.253286 0.682536 0.229096
0.247328 -0.642901 0.656199
-0.211392 0.659901 -0.194719
0.221211 0.694651 -0.685114
0.221657 0.693976 -0.683476
0.247358 -0.642734 0.656517
-0.193903 0.661246 0.658023
-0.670335 0.651651 0.223504
0.630639 -0.219981 -0.205611
-0.212209 0.227015 -0.671535
0.221253 0.693049 -0.684485
-0.669689 0.651372 0.222335
-0.670854 0.651190 0.220993
-0.674541 -0.238946 -0.668149
-0.670774 0.647353 0.221713
-0.670505 0.207208 0.649046
0.639544 0.225452 -0.673784
-0.669435 0.651031 0.222441
-0.211158 0.660703 -0.194303
0.629386 -0.219763 -0.206438
0.221516 0.693908 -0.685045
-0.213530 0.226263 -0.672993
0.677248 -0.662803 0.244041
-0.659926 0.194673 -0.220738
0.657269 0.222888 0.245191
0.658506 0.221997 0.244344
-0.210954 0.659086 -0.194346
-0.670046 0.651237 0.223003
-0.251332 -0.679507 -0.679707
0.206478 0.242391 0.719481
0.654717 0.666631 -0.222807
-0.212667 0.225355 -0.672347
0.639699 0.227491 -0.676162
0.247820 -0.226772 -0.681227
0.654070 0.665293 -0.222990
-0.670896 0.204564 0.651035
0.670446 -0.191918 0.692405
-0.230677 -0.199096 0.615802
0.245529 -0.644597 0.653190
-0.193260 0.661835 0.659188
-0.194786 0.660346 0.658521
-0.653626 -0.686705 -0.201926
-0.193557 0.660446 0.659922
0.639059 0.226592 -0.673413
-0.672431 -0.239337 -0.668223
-0.213187 0.225613 -0.672546
-0.210239 0.662678 -0.195067
-0.193542 0.660102 0.658469
-0.669997 0.651787 0.221129
0.202252 -0.667590 -0.237264
-0.670025 0.650054 0.220875
-0.670775 0.204323 0.650049
-0.205321 -0.678305 0.207555
-0.210933 0.226297 -0.671823
0.249901 0.682723 0.229666
-0.667864 0.207494 0.649989
0.659567 0.222599 0.245575
0.250985 -0.227745 -0.681322
-0.668582 0.651502 0.220763
-0.231377 -0.198571 0.614045
0.679087 -0.662317 0.245554
-0.205060 -0.677882 0.207745
