OFF
256 0 0
0.662793 0.650404 -0.228320
0.669627 -0.660936 0.198440
0.652322 0.219144 -0.665269
-0.221148 0.235894 -0.671805
0.644407 -0.226713 -0.195141
0.225733 0.650359 -0.681806
0.662626 0.653603 -0.228662
-0.244672 -0.253945 0.672906
0.670054 -0.661679 0.198101
-0.653142 -0.213689 -0.659130
-0.244471 -0.253816 0.672441
-0.650856 0.257960 -0.216819
0.662892 0.650934 -0.227468
0.661864 0.651173 -0.226840
-0.670041 0.680991 0.273656
0.663858 0.652356 -0.227466
-0.209075 0.665705 -0.211811
-0.236938 -0.664623 0.201396
-0.652402 -0.213767 -0.659799
0.645428 -0.227518 -0.196318
0.221057 0.201531 0.643312
0.212882 -0.214762 -0.651839
-0.243351 -0.253619 0.671194
-0.656147 -0.680510 -0.242614
-0.230289 -0.650652 -0.697273
0.653448 0.220076 -0.666365
-0.656433 -0.195283 0.205531
-0.244344 -0.253170 0.671154
-0.655047 -0.196116 0.204747
0.645572 -0.226168 -0.195833
0.661942 -0.240757 0.673772
0.213669 -0.214559 -0.652012
-0.231344 -0.653377 -0.697662
0.653358 0.218568 -0.664167
0.653848 0.220045 -0.665193
-0.209017 0.665182 -0.210329
-0.219569 0.679178 0.702965
-0.670828 0.683302 0.276482
-0.655924 -0.195726 0.205982
0.224525 0.654458 -0.680210
0.643166 -0.225938 -0.195387
0.644750 -0.225897 -0.195007
-0.670145 0.682742 0.276098
0.702240 0.212472 0.232752
-0.648851 0.259108 -0.217368
0.215160 -0.687601 0.653577
0.217682 -0.688705 0.651241
-0.211260 0.666480 -0.211117
0.701690 0.214049 0.234040
0.222165 0.197557 0.644809
-0.651296 0.258834 -0.215794
0.211419 -0.215849 -0.653172
-0.236893 -0.662159 0.200657
0.226257 0.655340 0.246750
-0.648356 0.260082 -0.216291
0.669222 -0.659953 0.197527
-0.653796 -0.195073 0.206890
-0.221985 0.236365 -0.671442
-0.649945 0.257550 -0.217142
-0.230394 -0.649593 -0.695847
0.201251 -0.662120 -0.271398
0.211144 -0.217123 -0.653025
0.222149 0.198821 0.642741
0.226509 0.651557 -0.677793
-0.653042 -0.681350 -0.243585
0.213122 -0.214264 -0.652082
0.662016 0.652411 -0.226490
0.664224 0.651939 -0.226221
-0.222368 0.234976 -0.671764
-0.221064 0.234830 -0.671775
-0.244400 -0.255531 0.672909
0.221500 0.201788 0.646324
-0.244082 -0.255047 0.671263
-0.669808 0.682530 0.275740
0.227551 0.654930 0.248769
-0.244025 -0.254060 0.671610
0.669514 -0.660687 0.200761
0.200892 -0.663175 -0.272002
-0.232301 -0.649803 -0.697772
0.227964 0.655790 0.248520
0.228165 0.654725 0.249333
0.668858 -0.659564 0.200290
0.663230 -0.242207 0.674905
-0.654020 -0.679263 -0.243579
0.644910 -0.225013 -0.196859
-0.653520 0.235745 0.683564
0.215875 -0.688862 0.653983
-0.208204 0.665791 -0.211125
-0.244194 -0.253543 0.673492
-0.236565 -0.664928 0.202292
-0.231882 -0.650084 -0.696092
0.223713 0.654174 -0.679106
-0.238088 -0.664309 0.202653
-0.243014 -0.254643 0.673060
0.225495 0.652183 -0.679095
0.669691 -0.659148 0.200445
-0.653613 -0.214337 -0.660302
-0.656005 -0.194075 0.206095
0.669861 -0.660899 0.198769
-0.654814 0.238800 0.685010
0.663655 -0.241934 0.674518
-0.649976 0.261115 -0.215928
0.226742 0.653490 -0.678213
0.653209 0.218958 -0.665585
0.651488 0.220476 -0.667862
0.668513 -0.658821 0.198978
0.225458 0.654541 -0.676770
-0.649983 0.257614 -0.215381
0.653575 0.219649 -0.666297
0.701357 0.215559 0.233741
0.662171 0.653801 -0.227482
0.229376 0.655867 0.246914
-0.656751 -0.195992 0.204582
-0.655961 -0.196106 0.206526
0.652834 0.220237 -0.661911
-0.232143 -0.650504 -0.698179
-0.243178 -0.253640 0.671339
-0.222168 0.235949 -0.671959
-0.655481 0.237857 0.684212
-0.242222 -0.253731 0.672709
0.227070 0.655844 0.248138
-0.238586 -0.664492 0.202377
0.228716 0.654394 0.246990
-0.656562 0.237428 0.684249
0.203963 -0.665297 -0.271196
0.645637 -0.227828 -0.194856
0.644765 -0.226445 -0.194004
-0.654741 -0.212248 -0.657919
0.645146 -0.225431 -0.194367
0.653872 0.219428 -0.665063
0.225890 0.652961 -0.680592
-0.231884 -0.651253 -0.698544
-0.230669 -0.649626 -0.695255
-0.654167 -0.681631 -0.242332
-0.656690 -0.194003 0.205146
0.662326 0.651963 -0.226650
-0.243420 -0.252847 0.670198
-0.653072 -0.680839 -0.243360
-0.670503 0.683627 0.275705
0.667551 -0.661183 0.201781
0.223972 0.652784 -0.681735
-0.669847 0.683600 0.274994
-0.670346 0.683384 0.274487
0.661204 -0.243744 0.673809
-0.650906 0.259992 -0.216895
-0.652849 -0.213228 -0.658739
0.227348 0.654316 0.248187
-0.238153 -0.663043 0.201867
-0.218860 0.677680 0.701687
-0.656523 0.235924 0.685038
0.652255 0.219721 -0.665879
-0.669871 0.680794 0.276850
-0.671604 0.681916 0.276766
0.663382 0.652782 -0.228187
0.219342 0.200259 0.643321
-0.233141 -0.650334 -0.695884
-0.655576 -0.681400 -0.243430
-0.208482 0.666087 -0.212024
-0.653195 -0.212645 -0.657075
0.644188 -0.226021 -0.195012
-0.217326 0.679000 0.700438
0.663365 0.651389 -0.226080
-0.654632 0.235502 0.683133
-0.219854 0.235310 -0.672371
0.216796 -0.686304 0.651676
0.669469 -0.660212 0.198707
0.214729 -0.216963 -0.654366
-0.219065 0.235666 -0.672850
0.652830 0.220199 -0.666507
0.662461 0.652507 -0.227492
0.227084 0.654907 0.247931
0.653116 0.219797 -0.662384
-0.219007 0.236099 -0.674371
-0.649204 0.259557 -0.216104
0.663748 -0.240659 0.674292
-0.218214 0.679179 0.701758
-0.209926 0.665262 -0.211212
0.225287 0.653790 -0.677963
-0.230483 -0.650820 -0.696362
-0.670806 0.682692 0.277256
0.221239 0.201690 0.643072
0.226369 0.656518 0.245695
0.213805 -0.216303 -0.652178
0.224755 0.654726 -0.678466
-0.654927 -0.212716 -0.658840
0.216945 -0.687454 0.652724
0.662271 0.653075 -0.225823
0.660425 0.652170 -0.228089
-0.242234 -0.253301 0.672230
-0.649133 0.257384 -0.216536
0.662430 -0.243351 0.675314
0.227141 0.654579 0.249024
-0.233223 -0.650182 -0.697742
-0.220904 0.236995 -0.671863
-0.244007 -0.254619 0.669695
0.213275 -0.215480 -0.651940
0.221892 0.199427 0.642856
-0.222459 0.232978 -0.670507
-0.650829 0.258405 -0.217149
0.221547 0.200568 0.644753
0.643801 -0.224996 -0.194204
-0.221097 0.678796 0.701345
-0.655226 -0.682131 -0.243465
-0.652188 -0.214965 -0.658826
0.644451 -0.226055 -0.195039
0.217353 -0.686881 0.652098
0.203149 -0.663782 -0.271309
0.702705 0.212901 0.235644
0.221430 0.199181 0.644591
0.667834 -0.659836 0.200320
-0.652013 -0.214505 -0.658142
-0.649428 0.257991 -0.215642
0.702434 0.214180 0.233170
-0.219793 0.235667 -0.671821
-0.242750 -0.255056 0.669856
-0.244801 -0.253818 0.671336
0.215945 -0.688308 0.653265
-0.218843 0.678999 0.699804
0.201882 -0.662925 -0.270147
-0.231132 -0.649878 -0.698107
0.220793 0.200677 0.642961
-0.230784 -0.650755 -0.698124
-0.653597 -0.682165 -0.245328
0.214362 -0.217990 -0.653489
0.216308 -0.687653 0.651678
0.662563 0.653443 -0.228337
-0.651810 -0.215700 -0.660463
-0.648754 0.256375 -0.217823
0.668685 -0.659946 0.200487
0.222634 0.653054 -0.680277
0.702537 0.212811 0.231196
-0.210366 0.666206 -0.210447
0.652632 0.220099 -0.664367
0.220722 0.198763 0.641451
0.670291 -0.661907 0.198785
-0.229740 -0.651517 -0.697878
-0.648215 0.258643 -0.215829
0.226487 0.652411 -0.679062
-0.656125 0.238165 0.681692
0.651231 0.220530 -0.666003
-0.654143 -0.681903 -0.243224
-0.211326 0.666300 -0.213770
-0.209075 0.665660 -0.211494
0.226025 0.653469 -0.680574
-0.238907 -0.664487 0.201558
0.220170 0.199095 0.642972
0.219816 0.200202 0.643471
0.654767 0.219106 -0.665840
0.203098 -0.663809 -0.272456
-0.218007 0.678620 0.700690
0.668902 -0.660062 0.199011
0.701250 0.210425 0.234275
0.223694 0.653821 -0.680820
0.202610 -0.661707 -0.270938
-0.230815 -0.650914 -0.698262
-0.243976 -0.254624 0.671709
