OFF
256 0 0
-0.665429 -0.206749 -0.671500
-0.650684 0.199736 0.658732
-0.194813 -0.204736 0.626177
0.222457 -0.651462 0.692262
0.243014 0.219279 0.668923
0.620909 -0.656149 0.216555
-0.212968 0.665377 -0.202131
0.210379 0.648257 0.238021
0.221099 -0.649753 0.690995
-0.195230 -0.206704 0.624143
-0.649155 0.199394 0.655836
-0.218987 -0.668637 -0.710226
-0.650767 0.201088 0.658303
0.255612 0.656764 -0.661794
-0.213445 0.667056 -0.201991
0.642637 -0.216436 0.680213
0.257162 0.657120 -0.662071
0.643578 -0.217255 0.681713
-0.640041 0.235579 -0.205307
0.622819 -0.195160 -0.227249
0.664510 0.655171 -0.214533
0.621148 -0.653563 0.216970
-0.650778 0.199971 0.659470
0.622382 -0.654691 0.217224
-0.659026 0.645830 0.226777
0.209272 0.648202 0.236731
0.209796 0.649222 0.238575
0.222763 -0.650829 0.693165
-0.205591 -0.658288 0.218488
-0.194293 -0.207724 0.624432
-0.213436 0.665262 -0.202229
0.242905 0.220676 0.669187
-0.642084 0.234988 -0.205668
-0.212396 0.664311 -0.203271
0.620539 -0.654890 0.217925
0.648445 0.220768 -0.663772
-0.641636 0.236239 -0.207728
0.622329 -0.654055 0.215430
0.210652 -0.637045 -0.234690
-0.655426 -0.684597 -0.220872
-0.220518 -0.670332 -0.708366
-0.222474 0.664262 0.661370
0.664922 0.653419 -0.214253
-0.193539 -0.206728 0.624806
-0.193952 -0.208251 0.626712
-0.656409 0.644368 0.224286
-0.212321 0.665863 -0.200408
-0.673150 -0.264038 0.217692
0.209587 -0.637002 -0.234990
0.644724 -0.217991 0.682381
0.209116 -0.637048 -0.237550
-0.656749 -0.686145 -0.221010
0.221631 -0.234507 -0.667276
-0.673250 -0.263448 0.217581
-0.672475 -0.264212 0.217117
-0.656717 0.645704 0.226451
-0.218698 0.241897 -0.651246
0.623543 -0.193792 -0.226997
0.220010 -0.651864 0.691415
0.649289 0.221633 -0.665707
0.256578 0.659053 -0.661939
-0.664982 -0.205875 -0.671130
0.621766 -0.193964 -0.227821
0.622311 -0.654898 0.215934
-0.194954 -0.206694 0.625170
-0.672304 -0.263439 0.218025
-0.672418 -0.264494 0.218925
-0.641915 0.235617 -0.204648
0.241862 0.221281 0.666542
0.664152 0.656060 -0.215025
0.621615 -0.195325 -0.227151
0.209682 0.651035 0.239206
0.222307 -0.651086 0.692344
-0.655313 -0.683578 -0.221656
-0.221948 0.663717 0.662787
-0.666293 -0.208687 -0.671474
-0.212037 0.665187 -0.201995
-0.213089 0.663856 -0.201032
0.220628 -0.233579 -0.668577
-0.217625 0.242792 -0.652379
-0.194450 -0.207101 0.626032
0.666041 0.654661 -0.214625
-0.216380 0.243931 -0.651833
-0.673123 -0.265390 0.217761
-0.662725 -0.206074 -0.671997
0.650811 0.223341 0.230605
-0.658117 0.645918 0.223863
0.621037 -0.656388 0.217519
0.222320 -0.232813 -0.669106
-0.212859 0.664920 -0.201090
-0.653061 0.201329 0.659835
-0.640925 0.234904 -0.206388
-0.666526 -0.207237 -0.672184
0.622700 -0.196731 -0.226538
-0.673567 -0.263175 0.219009
-0.217497 0.244038 -0.653051
-0.663411 -0.206605 -0.671942
-0.656214 -0.683746 -0.221658
0.666908 0.653787 -0.213510
0.665319 0.655801 -0.213769
-0.221661 -0.670309 -0.709019
-0.215652 0.243287 -0.651988
-0.654734 -0.684111 -0.219620
0.642008 -0.218305 0.681375
0.210668 -0.636890 -0.234110
0.620283 -0.654738 0.216563
0.663969 0.652973 -0.215341
-0.212256 0.666571 -0.201833
-0.216589 0.241888 -0.652035
0.220700 -0.233877 -0.668882
0.644474 -0.219014 0.681917
0.209423 0.647855 0.237767
-0.656824 -0.686163 -0.221145
-0.641177 0.235722 -0.206857
-0.194717 -0.208024 0.625232
-0.212546 0.665900 -0.201444
0.242506 0.219875 0.667452
0.619523 -0.655606 0.217189
0.220875 -0.650652 0.690328
0.210894 -0.637378 -0.235799
-0.666021 -0.206088 -0.670946
0.648126 0.223164 -0.662355
-0.665948 -0.207161 -0.673187
-0.216104 0.244140 -0.650625
-0.648517 0.199323 0.658741
-0.642907 0.236383 -0.205143
-0.672806 -0.263586 0.219204
-0.216617 0.241656 -0.651604
-0.665554 -0.205803 -0.670832
0.621124 -0.194465 -0.228643
-0.206222 -0.659563 0.217315
0.223006 -0.649805 0.693482
-0.648258 0.198613 0.658361
0.221386 -0.651315 0.691393
-0.222273 -0.669313 -0.709455
-0.218492 0.242688 -0.652432
-0.648430 0.199431 0.655506
0.209588 0.647709 0.239188
0.217713 -0.232892 -0.667527
0.209482 -0.636789 -0.234820
0.620667 -0.654535 0.219970
-0.659730 0.645913 0.225261
0.242114 0.219796 0.667426
0.665071 0.655374 -0.214702
0.621290 -0.654775 0.217949
-0.220839 -0.667563 -0.709356
-0.663985 -0.207323 -0.672741
-0.654541 -0.687197 -0.220983
-0.219554 -0.666628 -0.710888
-0.656330 0.644482 0.224558
0.255014 0.659974 -0.661847
-0.651202 0.200224 0.658556
-0.664360 -0.206691 -0.671205
0.620856 -0.653355 0.217732
0.664487 0.654791 -0.213821
0.643679 -0.219337 0.680939
0.256536 0.655849 -0.662402
0.642722 -0.215956 0.681270
0.644816 -0.217455 0.679773
0.209273 0.646452 0.240026
-0.658386 0.644492 0.224455
0.243405 0.221360 0.665992
0.646866 0.220537 -0.662130
0.619015 -0.193428 -0.226661
-0.654801 -0.683690 -0.220067
-0.673177 -0.262127 0.219124
0.647455 0.220177 -0.664896
-0.216634 0.244400 -0.650101
-0.647795 0.199182 0.657948
0.211536 -0.637796 -0.236849
0.664715 0.655058 -0.216637
0.651182 0.221907 0.230242
-0.194861 -0.208573 0.625352
0.649839 0.221238 0.230589
-0.220730 0.662880 0.660984
-0.193511 -0.206312 0.628282
0.256175 0.657207 -0.661208
0.622535 -0.194303 -0.227096
-0.664463 -0.206788 -0.672199
-0.656539 -0.683527 -0.222027
-0.654610 -0.684076 -0.221838
-0.674186 -0.264302 0.218227
-0.656518 0.646244 0.224041
-0.657831 0.644938 0.223847
0.623056 -0.193054 -0.226177
0.224035 -0.233106 -0.668041
0.256518 0.658202 -0.662933
0.622754 -0.653198 0.216105
-0.215805 0.242452 -0.651133
-0.217666 0.243640 -0.651548
-0.665808 -0.206355 -0.672188
0.667173 0.653374 -0.213193
0.621883 -0.193491 -0.225212
-0.219710 0.662095 0.660882
0.207130 0.646679 0.237817
0.648069 0.220994 -0.662610
-0.664311 -0.206105 -0.671901
-0.211495 0.664468 -0.201697
-0.220174 -0.668651 -0.709198
0.664646 0.652773 -0.215253
-0.213678 0.663931 -0.201922
-0.212336 0.665079 -0.202602
0.642667 -0.218056 0.680327
0.621172 -0.654420 0.216015
0.619358 -0.655355 0.216969
0.254647 0.658237 -0.662506
-0.217063 0.242816 -0.651811
-0.221742 -0.667917 -0.710990
0.621693 -0.655919 0.216975
-0.655805 -0.685848 -0.219358
0.209967 -0.638529 -0.235192
-0.193061 -0.206769 0.624348
0.220401 -0.236776 -0.668628
0.219381 -0.234586 -0.667843
0.648760 0.222325 -0.662883
0.643243 -0.216751 0.679889
0.620819 -0.195721 -0.225806
0.643965 -0.218468 0.680925
-0.219909 0.663523 0.661841
-0.220648 0.663673 0.661383
-0.211918 0.665627 -0.202731
-0.220727 0.663369 0.658933
-0.663250 -0.206064 -0.670985
0.622534 -0.194652 -0.228104
-0.650241 0.198562 0.659313
0.241530 0.219569 0.668937
0.619333 -0.654869 0.218081
-0.641087 0.235500 -0.205663
-0.666020 -0.205997 -0.670140
0.222205 -0.650174 0.691588
-0.212846 0.663984 -0.203152
-0.654658 -0.684098 -0.220149
-0.218968 0.243392 -0.652419
-0.211221 0.666065 -0.201691
-0.220132 0.662639 0.659590
0.255674 0.658863 -0.661460
0.644536 -0.218454 0.682085
-0.666728 -0.205964 -0.671883
-0.217307 0.243790 -0.652910
0.210727 -0.637311 -0.235722
0.255701 0.656565 -0.660917
0.665330 0.653322 -0.214115
0.623106 -0.193358 -0.227701
-0.657990 0.645728 0.224702
0.255412 0.659428 -0.662909
-0.665615 -0.209172 -0.671847
-0.205583 -0.659592 0.219043
0.256070 0.656765 -0.664673
0.647894 0.221731 -0.663238
0.257981 0.656476 -0.661726
-0.648823 0.200983 0.657792
-0.213077 0.665640 -0.202405
0.257561 0.658091 -0.660576
0.208370 0.648772 0.238950
-0.657612 0.647166 0.225523
-0.657535 0.648117 0.226275
