OFF
256 0 0
-0.235217 -0.651231 -0.654534
0.644889 0.215031 0.176181
0.670285 0.212226 -0.683551
0.236009 -0.675980 -0.208688
-0.201155 0.228431 -0.657336
0.688464 -0.259485 -0.230158
0.689330 -0.259270 -0.230432
-0.684912 -0.218895 0.213344
0.225340 0.249560 0.670107
-0.659993 -0.669678 -0.240203
-0.660720 -0.669698 -0.240226
-0.661781 0.217157 -0.224694
-0.667650 0.628297 0.236525
-0.223618 -0.677592 0.233965
-0.662374 0.217312 -0.226500
-0.686240 -0.219786 0.211630
-0.220220 0.685756 0.682508
0.232422 -0.682917 0.677301
-0.224230 -0.678573 0.233697
-0.223541 -0.677563 0.235115
0.232057 -0.681990 0.677101
-0.199823 0.228807 -0.656845
-0.673902 0.222838 0.697302
0.671541 0.210847 -0.682797
0.223468 -0.233042 -0.707765
0.205088 0.672569 -0.681912
-0.657727 -0.667918 -0.239944
0.231781 -0.683385 0.675700
-0.201151 0.228454 -0.658139
-0.203910 0.229639 -0.658424
-0.667584 0.626801 0.234125
-0.697567 -0.231848 -0.673431
-0.670283 0.222924 0.695093
0.225567 0.706995 0.216885
0.673296 -0.197563 0.683202
-0.213618 -0.211475 0.696610
0.672723 -0.196990 0.681692
-0.214047 -0.211206 0.694950
-0.658974 0.219166 -0.225127
0.644625 0.215610 0.176811
0.673980 -0.198113 0.681994
0.644132 0.669412 -0.248744
0.690810 -0.258167 -0.231126
-0.237899 -0.652115 -0.654331
0.224003 0.707715 0.215509
0.689086 -0.259189 -0.231000
-0.658823 -0.670789 -0.239983
-0.234554 -0.651906 -0.656182
-0.660306 -0.670867 -0.239565
0.223181 0.708324 0.215891
0.223375 0.707520 0.216498
-0.222984 -0.678736 0.231561
-0.663121 0.218245 -0.223781
0.676269 -0.197601 0.680718
0.673345 -0.197176 0.684128
0.237263 -0.675690 -0.208029
-0.667162 0.627548 0.234851
0.231854 -0.680232 0.675776
0.231051 -0.682749 0.676283
-0.222688 0.664985 -0.224618
-0.671481 0.626567 0.234230
0.226130 0.249676 0.667773
0.224224 -0.237118 -0.706455
-0.661345 0.218420 -0.224996
-0.223248 -0.677959 0.232616
-0.201351 0.228096 -0.657109
0.223070 -0.235327 -0.706729
0.233535 -0.683183 0.674826
-0.222980 -0.678513 0.233763
-0.212868 -0.211033 0.696945
-0.661414 0.219978 -0.224946
0.224063 -0.234738 -0.707386
0.224581 -0.236658 -0.706704
-0.219441 0.684938 0.681686
-0.700582 -0.233183 -0.673350
0.672438 -0.198029 0.683358
0.691919 -0.668593 0.254807
0.687906 -0.257734 -0.230578
0.236319 -0.676959 -0.207585
-0.666673 0.625237 0.234379
0.237956 -0.675949 -0.208249
0.237023 -0.677624 -0.207947
0.673982 -0.198967 0.681830
0.644409 0.215007 0.177951
0.644242 0.215598 0.177486
0.644182 0.670910 -0.247100
0.693612 -0.668141 0.254734
0.225357 0.252224 0.669436
0.222384 0.707330 0.217035
0.692717 -0.667652 0.256438
0.644380 0.214028 0.176206
0.675819 -0.197736 0.682392
-0.661635 -0.669760 -0.240001
0.673891 -0.199748 0.683029
0.225228 0.250983 0.668454
-0.673289 0.223449 0.695836
0.693337 -0.665769 0.256038
-0.660367 -0.670742 -0.239238
0.643004 0.668969 -0.246485
0.689096 -0.259432 -0.230969
0.645128 0.215935 0.176384
0.672293 -0.198047 0.682295
0.689376 -0.258862 -0.230710
0.225416 -0.236392 -0.706044
0.224266 -0.234027 -0.705679
0.688769 -0.258863 -0.230021
-0.214224 -0.209781 0.696511
-0.670221 0.223626 0.697683
-0.213709 -0.211525 0.696283
-0.218479 0.684964 0.682953
-0.672520 0.222755 0.695701
-0.660128 -0.668863 -0.241037
0.222978 0.708879 0.217212
-0.661155 0.219772 -0.227114
-0.235638 -0.651747 -0.654525
-0.673057 0.224565 0.697697
0.673836 -0.198134 0.682011
-0.672790 0.224165 0.693966
0.225583 -0.235959 -0.706905
-0.660991 0.220300 -0.224636
0.672888 -0.197421 0.682879
-0.661305 0.218943 -0.221830
-0.218417 0.686070 0.683321
0.673256 -0.197906 0.682479
-0.659456 -0.671261 -0.240888
0.204478 0.674685 -0.680897
-0.236342 -0.654006 -0.654369
0.644294 0.671013 -0.246552
0.645118 0.671792 -0.248416
0.671645 0.211733 -0.681020
0.645549 0.669507 -0.250324
0.232122 -0.681595 0.673264
-0.218328 0.686787 0.682607
-0.223833 -0.678050 0.232462
0.643765 0.669807 -0.248104
0.224391 -0.234835 -0.706051
-0.686326 -0.219544 0.211512
0.644144 0.215343 0.176428
0.673684 -0.200999 0.681326
-0.670663 0.221765 0.695869
-0.683529 -0.217075 0.212269
0.644232 0.671360 -0.247370
0.688368 -0.257378 -0.231244
-0.700378 -0.231168 -0.676165
0.669999 0.213002 -0.681214
-0.700512 -0.230942 -0.676495
0.236172 -0.676481 -0.208465
0.691918 -0.668581 0.254769
0.236011 -0.677064 -0.207919
-0.219368 0.686457 0.682288
-0.660167 -0.668300 -0.239202
0.691769 -0.667172 0.256951
0.693189 -0.667175 0.255507
0.643668 0.670999 -0.249661
0.206214 0.674946 -0.682168
0.671020 0.212381 -0.683139
0.223557 -0.236064 -0.707478
-0.219308 0.685600 0.682624
-0.220263 -0.677418 0.231402
-0.701110 -0.234363 -0.676496
-0.699291 -0.232430 -0.674410
-0.670318 0.223132 0.695956
-0.701442 -0.232929 -0.674111
-0.234732 -0.650917 -0.653171
-0.685243 -0.220350 0.213367
0.671649 0.214545 -0.680760
-0.669560 0.628455 0.234658
0.644583 0.215421 0.175826
-0.700434 -0.231477 -0.675605
0.675518 -0.198335 0.679943
-0.223777 0.665782 -0.223723
0.642814 0.213224 0.176906
0.223217 0.707768 0.216717
0.238407 -0.677760 -0.207603
-0.218816 0.685961 0.683821
0.641413 0.215061 0.176981
-0.684460 -0.217754 0.211102
-0.698634 -0.233461 -0.674978
-0.214021 -0.211351 0.698099
-0.659955 -0.668737 -0.238761
-0.235865 -0.651077 -0.655198
0.224732 0.709073 0.219075
-0.235281 -0.650998 -0.652895
0.692447 -0.669694 0.254837
-0.202944 0.228590 -0.658705
-0.662182 0.217342 -0.225252
0.206141 0.673470 -0.680618
0.237777 -0.677941 -0.208360
0.224035 0.251063 0.668780
-0.201605 0.228146 -0.658301
0.675200 -0.198363 0.681610
-0.672786 0.222400 0.696212
-0.220176 0.687145 0.681919
0.642852 0.671010 -0.247142
-0.233614 -0.654618 -0.654421
-0.235262 -0.650896 -0.654572
-0.235735 -0.650735 -0.654560
-0.224471 0.665013 -0.224961
-0.699870 -0.233591 -0.674843
-0.659764 -0.670253 -0.240353
0.232443 -0.682945 0.675952
0.230516 -0.682001 0.676847
0.222140 0.707573 0.216804
-0.666157 0.627262 0.235803
0.224190 0.707430 0.217159
0.643721 0.214276 0.175764
0.233949 -0.681673 0.675849
0.693039 -0.666572 0.256026
-0.684307 -0.218506 0.212308
0.224161 0.707012 0.217792
-0.218443 0.684963 0.682383
-0.659022 -0.668737 -0.239641
0.673578 -0.198288 0.681590
0.222686 0.248101 0.668378
0.643914 0.669225 -0.249142
-0.224586 0.663569 -0.222340
-0.662220 0.217849 -0.224478
0.226001 0.251303 0.669424
-0.661241 0.217508 -0.226261
0.690384 -0.664691 0.254377
0.643001 0.214181 0.177023
0.646239 0.670664 -0.246874
0.206875 0.673173 -0.681194
-0.700129 -0.231778 -0.676611
-0.659451 0.216850 -0.223490
-0.667975 0.626952 0.236005
-0.672824 0.223580 0.696059
0.205794 0.674218 -0.679774
0.234790 -0.681334 0.676829
0.237961 -0.677168 -0.209310
0.692024 -0.668514 0.255657
-0.224168 0.666729 -0.224414
-0.685455 -0.218134 0.212350
0.224388 -0.236809 -0.705963
-0.660874 -0.668553 -0.240843
0.237921 -0.677807 -0.207909
0.669319 0.211764 -0.682259
-0.699005 -0.232792 -0.677248
0.224734 -0.236500 -0.707597
0.226146 0.250887 0.669884
0.693877 -0.668120 0.256922
0.231091 -0.681665 0.676307
0.225701 0.250739 0.668877
-0.698037 -0.233366 -0.675214
-0.699727 -0.231398 -0.677731
-0.659542 -0.669061 -0.241016
0.224064 0.709382 0.218555
0.642868 0.213581 0.175413
-0.233356 -0.650309 -0.653023
0.643218 0.214498 0.178471
-0.672679 0.222019 0.697388
-0.673945 0.224663 0.694210
-0.659533 -0.670184 -0.240024
-0.673322 0.223811 0.696474
-0.202405 0.229303 -0.658488
-0.684595 -0.220212 0.212790
