OFF
256 0 0
0.218431 0.647850 0.190765
-0.691872 -0.220087 0.221493
-0.196216 0.668987 0.647109
0.233481 0.204923 0.669272
-0.195106 0.667940 0.644407
0.210587 -0.657498 -0.208355
-0.634066 0.252439 0.646458
0.674663 0.216379 -0.672110
-0.226344 -0.637595 -0.646388
-0.197347 0.671038 0.645601
-0.635515 0.253259 0.644817
0.682345 -0.696760 0.211052
0.662612 -0.212813 0.655963
0.233749 0.663141 -0.642031
0.682455 -0.698226 0.212865
-0.692612 -0.220963 0.222596
-0.691439 -0.220251 0.220741
-0.680008 0.234684 -0.211444
-0.654419 0.642369 0.212749
-0.226015 -0.650637 0.225794
0.662219 -0.212853 0.653756
0.662818 -0.215214 0.654938
0.679235 0.644018 -0.211228
-0.683604 -0.664482 -0.232047
-0.195222 0.670474 0.645856
-0.681956 -0.664930 -0.232221
-0.672456 -0.195186 -0.647193
-0.216088 0.204397 -0.626113
0.663563 -0.231748 -0.211810
0.666032 -0.232252 -0.213693
-0.683575 -0.664551 -0.229558
0.663832 -0.213997 0.656024
-0.685578 -0.664714 -0.232145
0.233670 0.663291 -0.641064
0.233697 0.207094 0.669055
0.233495 0.664648 -0.641585
0.683274 -0.697244 0.212590
-0.214781 0.204862 -0.626723
0.679278 0.642689 -0.212315
-0.226149 -0.638130 -0.645976
0.658734 0.213307 0.218111
0.226265 -0.234159 -0.700427
-0.635270 0.250570 0.646354
0.663157 -0.213654 0.654680
0.658155 0.212946 0.217835
-0.216173 0.202366 -0.625609
0.210285 -0.657875 -0.209036
-0.230203 -0.202505 0.675379
-0.242704 0.659410 -0.211764
0.232820 0.206170 0.668433
0.232265 0.205445 0.673000
-0.225303 -0.637467 -0.646771
-0.228873 -0.206086 0.672966
-0.227499 -0.202911 0.674361
0.231520 0.206946 0.670967
-0.229471 -0.204430 0.675323
0.208784 -0.658311 -0.209935
-0.230119 -0.203979 0.672360
0.673931 0.213633 -0.672162
0.230884 0.663709 -0.641696
0.211694 -0.638715 0.659943
0.210626 -0.659120 -0.210062
-0.195407 0.670566 0.647635
-0.196208 0.671266 0.647908
0.218582 0.647369 0.188936
0.664307 -0.232043 -0.212461
0.212193 -0.638115 0.658712
-0.680555 0.235337 -0.211970
-0.196465 0.667186 0.646023
0.219731 0.647398 0.190202
0.658942 0.213181 0.216972
-0.227998 -0.651910 0.225334
0.230002 0.663939 -0.641341
-0.672161 -0.197129 -0.645012
-0.217100 0.203445 -0.625846
0.232272 0.664082 -0.641504
-0.225064 -0.637820 -0.647655
0.683664 -0.700515 0.211248
-0.672032 -0.194493 -0.648210
0.661237 -0.213605 0.654841
-0.225779 -0.650830 0.225314
-0.195484 0.670843 0.646121
-0.654515 0.643715 0.214642
0.219737 0.646004 0.190702
-0.684865 -0.664270 -0.230957
-0.672094 -0.195605 -0.647101
0.675184 0.213244 -0.675743
-0.655634 0.642543 0.213791
0.228058 -0.233786 -0.698533
-0.224463 -0.639669 -0.647776
0.679612 0.643243 -0.211826
-0.196188 0.669161 0.645861
0.210487 -0.657011 -0.212517
-0.215592 0.205270 -0.626695
-0.242388 0.657075 -0.213266
-0.229719 -0.202656 0.673717
-0.632977 0.251305 0.647041
-0.691797 -0.218158 0.221259
-0.215396 0.205058 -0.626617
0.664344 -0.211749 0.654085
-0.217571 0.202968 -0.625639
-0.671569 -0.196120 -0.645807
0.231102 0.664235 -0.641429
0.677460 0.642284 -0.210785
0.681562 -0.699178 0.213202
0.667380 -0.234057 -0.212783
0.678139 0.642137 -0.211646
-0.196131 0.668904 0.645778
0.216787 0.644861 0.188494
0.658445 0.212180 0.216796
-0.683948 -0.664871 -0.232218
-0.243118 0.658328 -0.212636
-0.682513 0.234225 -0.209990
0.662989 -0.213410 0.654432
-0.692343 -0.219535 0.219668
0.226627 -0.232250 -0.698850
0.664387 -0.214564 0.654445
0.673970 0.214210 -0.673244
0.683261 -0.698398 0.212490
0.218131 0.646511 0.189181
-0.682405 0.236278 -0.211332
-0.226812 -0.650881 0.225615
0.218389 0.645863 0.191632
0.230827 0.663490 -0.641020
-0.681458 0.234570 -0.211231
0.670911 0.212801 -0.671954
0.662790 -0.214891 0.654929
0.657837 0.213991 0.217579
-0.227547 -0.204200 0.674503
-0.685405 -0.664527 -0.232890
0.233491 0.205607 0.668223
0.662999 -0.213307 0.655900
0.677392 0.641077 -0.213561
0.214276 -0.639133 0.657788
-0.654490 0.642786 0.213053
0.664170 -0.212377 0.655146
-0.691736 -0.218762 0.219985
0.211207 -0.637897 0.659409
0.232277 0.207371 0.668290
0.234157 0.206627 0.668204
0.233249 0.205840 0.668930
0.664050 -0.232933 -0.213210
-0.655524 0.642389 0.211471
-0.682315 0.235207 -0.209836
0.210141 -0.655908 -0.210607
-0.227742 -0.637475 -0.646989
-0.634994 0.252809 0.647557
0.677714 0.642717 -0.213383
-0.242002 0.657386 -0.213206
0.682752 -0.698836 0.214313
-0.195357 0.670734 0.644886
0.674514 0.214271 -0.673849
-0.682562 0.234144 -0.210531
-0.230162 -0.204535 0.674318
-0.227843 -0.637918 -0.647272
0.218407 0.644702 0.189324
-0.670348 -0.195050 -0.645359
-0.672373 -0.195566 -0.645469
0.659023 0.213060 0.217597
-0.635675 0.252292 0.647907
0.232817 0.663849 -0.641052
0.674405 0.214369 -0.671086
0.662165 -0.214259 0.655050
0.232181 0.663610 -0.640709
0.210543 -0.638308 0.659075
0.666966 -0.230734 -0.212461
0.217158 0.646972 0.189828
-0.242434 0.657178 -0.213103
0.677805 0.641387 -0.211983
-0.226363 -0.639897 -0.644904
-0.635506 0.250460 0.645581
-0.654976 0.642963 0.211728
-0.671503 -0.196785 -0.644958
0.682779 -0.698412 0.212879
-0.692921 -0.222526 0.222021
0.678964 0.644542 -0.211538
0.232654 0.205929 0.668902
-0.226516 -0.637139 -0.644492
0.218439 0.647491 0.189707
0.663631 -0.213045 0.653975
0.675180 0.215296 -0.675512
0.665621 -0.229781 -0.215003
0.662383 -0.212271 0.656332
-0.672086 -0.196533 -0.647905
0.230643 0.664355 -0.640548
-0.683981 -0.665083 -0.231406
-0.242763 0.656547 -0.211650
0.210658 -0.656679 -0.208162
-0.226052 -0.651423 0.224543
-0.225494 -0.651549 0.224838
-0.241081 0.657043 -0.212418
-0.671647 -0.195272 -0.646479
0.679601 0.642689 -0.213354
-0.223834 -0.651503 0.225186
0.210580 -0.638292 0.658607
0.683702 -0.699529 0.212117
0.673758 0.214212 -0.674215
-0.681440 0.234171 -0.211573
0.233084 0.206738 0.669918
0.231906 0.664376 -0.641255
-0.229522 -0.204545 0.673853
-0.690228 -0.220643 0.221277
0.210850 -0.656188 -0.209234
0.226639 -0.234425 -0.701922
0.212456 -0.639630 0.659080
-0.241535 0.658697 -0.214462
0.218511 0.647458 0.191313
-0.229380 -0.202839 0.673277
-0.652296 0.642932 0.212144
0.210463 -0.659780 -0.211032
-0.654057 0.643272 0.212625
-0.633463 0.253337 0.646331
-0.654721 0.642984 0.213118
0.231435 0.664432 -0.641741
0.232654 0.204591 0.671244
-0.692003 -0.221028 0.219848
-0.217482 0.203448 -0.627043
0.220296 0.646024 0.189745
0.658700 0.212589 0.215670
0.224686 -0.235795 -0.702491
-0.655830 0.642737 0.213403
-0.196471 0.670512 0.643003
-0.195237 0.669467 0.644750
-0.682644 0.235428 -0.211372
0.682778 -0.698608 0.212109
-0.680847 0.233997 -0.209490
-0.685773 -0.665486 -0.232791
-0.634090 0.253397 0.646091
-0.680552 0.234792 -0.210907
-0.215885 0.203598 -0.626805
0.682595 -0.698431 0.212384
0.661089 -0.214656 0.653576
-0.672559 -0.195317 -0.646242
0.675973 0.213739 -0.673455
0.664600 -0.232078 -0.212532
-0.231218 -0.203669 0.673898
-0.216918 0.202537 -0.626579
0.674601 0.214037 -0.673444
-0.240606 0.657717 -0.213073
0.212295 -0.638219 0.658082
0.663066 -0.214299 0.652845
-0.225451 -0.651707 0.224105
-0.635424 0.251278 0.646062
0.663304 -0.231539 -0.214247
0.664337 -0.213249 0.654142
0.211464 -0.658776 -0.210918
0.684125 -0.696501 0.212331
-0.673964 -0.195734 -0.645005
0.683982 -0.698929 0.214651
-0.693090 -0.222061 0.221731
0.663458 -0.213620 0.654446
-0.226028 -0.649233 0.222869
-0.215793 0.205265 -0.625397
-0.693601 -0.219806 0.221451
0.210738 -0.657416 -0.208143
-0.683720 -0.665890 -0.234254
