OFF
256 0 0
0.831641 -0.029359 -0.323032
-0.001027 -0.011844 0.546786
-0.410128 0.433442 0.524911
0.411149 -0.416555 0.523406
-0.424981 -0.000592 -0.733813
0.411181 -0.419782 0.524328
0.818957 0.429665 0.113779
-0.000215 -0.420503 -0.740682
-0.862652 -0.008377 0.505942
0.442703 -0.011204 -0.746061
-0.006267 -0.816182 0.513879
0.421180 0.830163 0.113749
-0.409573 -0.410402 0.500956
-0.806828 0.424523 0.094497
0.412574 -0.418534 0.524598
-0.861280 -0.008474 0.507408
-0.436677 -0.831608 0.106101
-0.424740 -0.000165 -0.731484
-0.401914 0.852431 0.086234
0.038485 0.841630 0.529229
-0.004357 0.398438 -0.757127
0.422069 0.386607 -0.348338
0.413014 -0.418380 0.522567
-0.431297 0.431052 -0.333881
-0.430442 0.430605 -0.336204
0.437853 0.420313 0.543501
0.445133 -0.012687 -0.748213
0.441017 -0.829394 0.114645
-0.840380 -0.406301 0.113091
0.438088 0.420292 0.546848
-0.434123 -0.396895 -0.301723
0.013208 0.841288 -0.316827
-0.865612 0.009775 -0.313131
-0.400786 0.854150 0.086242
0.411172 -0.418578 0.526001
0.815657 -0.422172 0.107099
-0.437126 -0.834903 0.107282
0.421232 0.386912 -0.348963
0.013821 0.840107 -0.316738
-0.434613 -0.398184 -0.302481
-0.436115 -0.833177 0.107142
0.439089 0.420400 0.544991
-0.431234 0.430199 -0.334355
-0.002889 0.401539 -0.759516
-0.408606 -0.412008 0.500062
-0.409778 -0.411680 0.501514
-0.408665 0.431769 0.524853
-0.429695 0.431097 -0.334957
0.815804 -0.420347 0.107195
0.422154 0.828649 0.113752
-0.863248 -0.006278 0.505979
0.421037 0.830232 0.113262
0.443682 -0.012105 -0.747833
-0.430823 0.430309 -0.335716
0.420258 0.386174 -0.351271
0.000087 -0.423251 -0.741001
0.040838 0.840487 0.528532
-0.806093 0.424824 0.094747
-0.431210 0.430479 -0.335305
-0.806421 0.427633 0.095458
0.819081 0.429787 0.115703
0.040835 0.841779 0.528534
0.444553 -0.010997 -0.746467
0.440235 -0.829589 0.116502
0.830961 -0.026229 -0.322151
0.015526 0.839805 -0.318757
0.437532 0.418692 0.545032
-0.430104 0.432331 -0.333043
-0.431406 0.429696 -0.335880
0.440799 -0.829392 0.117723
0.013715 0.841238 -0.316659
-0.004187 0.399957 -0.758817
-0.004263 -0.841001 -0.315437
0.830756 -0.028864 -0.320497
-0.434141 -0.398782 -0.303206
-0.407810 -0.411588 0.501596
0.442988 -0.010751 -0.746230
0.001644 -0.419626 -0.741744
0.816325 -0.421395 0.106119
-0.861372 -0.008529 0.507066
0.444022 -0.011147 -0.745832
0.013870 0.840165 -0.315743
-0.429855 0.431246 -0.335946
-0.865542 0.006780 -0.314654
-0.409884 -0.410550 0.499546
0.419296 0.386731 -0.350471
-0.429746 0.431599 -0.336039
0.042169 0.844952 0.531439
0.000373 -0.419303 -0.742303
-0.433962 -0.396157 -0.301377
-0.430641 0.430314 -0.335445
-0.001799 -0.013982 0.548216
0.832263 -0.027569 -0.323255
0.415622 -0.435086 -0.314468
-0.403235 0.852709 0.085784
0.038595 0.844123 0.529087
-0.001318 -0.421956 -0.739655
-0.003214 -0.841797 -0.316687
-0.866704 0.007989 -0.315158
0.816309 -0.421252 0.106838
0.422235 0.831377 0.113828
-0.808053 0.425399 0.095256
-0.432989 -0.397628 -0.303311
-0.410240 -0.410281 0.502495
-0.867395 0.007908 -0.313696
0.422115 0.385817 -0.348057
0.830613 -0.025534 -0.322680
-0.400652 0.853457 0.086406
-0.003463 -0.839678 -0.315919
-0.404020 0.854573 0.084897
0.015013 0.838226 -0.315418
0.411154 -0.417517 0.522721
0.038311 0.839573 0.528511
-0.807639 0.426210 0.094928
-0.401438 0.852682 0.085221
-0.008192 -0.815706 0.514802
-0.001858 -0.011623 0.547863
-0.006413 -0.814837 0.514358
-0.433032 -0.397474 -0.301331
0.822475 -0.004062 0.505089
-0.432980 -0.395724 -0.302575
-0.402179 0.853386 0.085008
-0.864859 0.009008 -0.315321
0.422239 0.387762 -0.348710
0.002141 -0.418386 -0.739550
-0.007720 -0.818589 0.513421
-0.436508 -0.831928 0.105607
0.416313 -0.435015 -0.315050
0.816598 -0.420874 0.107113
-0.434512 -0.397494 -0.303354
-0.006429 -0.817489 0.514309
0.820389 -0.004698 0.503354
0.438211 0.416869 0.543750
-0.004692 -0.841123 -0.315844
0.443674 -0.012183 -0.746541
0.830504 -0.026988 -0.322134
-0.002285 -0.012601 0.547088
-0.407586 0.431379 0.522834
-0.839102 -0.405835 0.114895
-0.426262 -0.000859 -0.731763
0.421083 0.828361 0.113947
0.422110 0.387762 -0.350100
-0.867515 0.007017 -0.315352
-0.406980 0.431525 0.523913
-0.425822 0.001401 -0.730687
-0.431406 -0.397932 -0.301090
0.419938 0.385083 -0.349712
0.443265 -0.012209 -0.746285
-0.861777 -0.007641 0.507141
-0.435577 -0.396574 -0.303239
-0.808140 0.426843 0.094799
0.001914 -0.420132 -0.740928
0.817762 -0.419805 0.107257
-0.867667 0.008405 -0.316520
-0.436394 -0.830492 0.106382
-0.867535 0.010812 -0.314418
0.441072 -0.827686 0.117776
0.817161 0.427512 0.114158
-0.005822 -0.817535 0.514110
0.015852 0.838763 -0.317902
-0.432897 -0.399013 -0.302720
-0.865733 0.008736 -0.315560
0.441280 -0.826426 0.118597
0.818031 0.428742 0.114528
0.817449 0.430228 0.116135
0.831220 -0.030050 -0.321437
-0.436504 -0.833339 0.107437
-0.401479 0.855778 0.086859
0.421140 0.830174 0.114302
0.414930 -0.436241 -0.313872
0.413697 -0.433970 -0.314979
0.821669 -0.007124 0.505986
-0.007850 -0.817739 0.513754
-0.807035 0.426355 0.094321
-0.861964 -0.007192 0.505340
0.831166 -0.027804 -0.322781
0.421295 0.386423 -0.348439
-0.867121 0.007283 -0.314835
0.412889 -0.417077 0.524275
-0.410548 -0.408761 0.501498
0.818925 0.428212 0.115406
0.420626 0.386818 -0.348914
-0.004544 -0.842527 -0.316727
0.831201 -0.026598 -0.322066
-0.410290 -0.411951 0.499249
0.436293 0.418727 0.545729
-0.839818 -0.408757 0.115562
0.438293 -0.830216 0.118620
-0.007125 -0.817208 0.513173
0.000818 -0.421430 -0.743103
0.440839 -0.829091 0.116515
0.412589 -0.418986 0.523599
0.040430 0.842963 0.527288
-0.001210 -0.011304 0.545717
-0.004665 0.400718 -0.759172
-0.409950 0.430959 0.524136
0.444713 -0.009508 -0.745434
0.817893 0.430177 0.116282
-0.866219 0.007830 -0.313439
-0.434259 -0.396424 -0.303868
-0.002240 -0.841107 -0.315966
0.013299 0.840106 -0.317010
-0.003438 0.401025 -0.758525
0.014307 0.840345 -0.320154
-0.001680 -0.420722 -0.742521
-0.410343 -0.411038 0.499254
0.441056 -0.827865 0.117114
0.817839 0.428594 0.115022
0.815827 0.429442 0.115203
-0.436574 -0.831488 0.106668
0.409417 -0.418229 0.522247
-0.408846 0.431983 0.527076
-0.408031 0.432119 0.523129
0.001395 -0.420084 -0.743273
0.410871 -0.419082 0.524906
0.002540 -0.420259 -0.742262
0.832953 -0.026844 -0.321355
0.438820 0.419174 0.543237
-0.000202 -0.013616 0.548237
0.420051 0.388810 -0.349470
0.438368 0.419961 0.544352
-0.838890 -0.406844 0.114783
0.414452 -0.435169 -0.314936
0.015476 0.840940 -0.317477
0.822974 -0.004626 0.505926
-0.431691 0.431344 -0.335237
0.420538 0.830517 0.112572
-0.408046 0.433111 0.524411
0.410755 -0.418617 0.523386
-0.002367 -0.014018 0.547542
0.421603 0.829089 0.116351
-0.408036 0.432622 0.525031
-0.838912 -0.407186 0.114061
0.424621 0.832140 0.115439
0.038021 0.843053 0.529006
0.001784 -0.420293 -0.742399
-0.867036 0.007104 -0.316986
0.410827 -0.419267 0.522905
0.411046 -0.419616 0.523223
-0.805418 0.427621 0.097339
-0.806925 0.425623 0.094631
-0.865482 0.008193 -0.315977
0.816792 -0.420180 0.106680
0.443881 -0.010835 -0.746248
-0.005802 -0.816081 0.515070
-0.425040 -0.001318 -0.732287
0.415496 -0.434285 -0.315459
-0.408972 -0.410082 0.501537
-0.000743 -0.013504 0.546710
0.817685 0.428252 0.114249
0.000510 -0.420937 -0.741876
-0.408032 0.431201 0.525554
-0.426071 -0.000505 -0.729981
-0.839790 -0.406194 0.117546
-0.434108 -0.397553 -0.302223
0.439563 0.420262 0.545688
