OFF
256 0 0
0.003597 0.842750 0.497483
-0.000057 -0.848819 -0.304641
-0.851761 -0.037304 -0.294834
-0.001752 -0.847009 -0.306154
0.003774 -0.816190 0.522454
0.412959 -0.393264 -0.291630
-0.005136 0.816431 -0.290028
-0.003167 -0.847080 -0.307469
-0.014335 -0.440629 -0.749766
-0.858756 0.009177 0.512829
-0.437308 0.382630 0.487910
0.445536 0.444415 0.488542
0.004716 -0.005381 0.480364
-0.855069 -0.426569 0.133041
-0.004800 0.816693 -0.290982
0.849527 -0.397528 0.091338
0.846922 0.450039 0.095007
-0.407826 0.827415 0.085144
0.852005 0.004468 -0.331036
-0.013441 -0.440305 -0.749712
0.845760 0.451217 0.093909
-0.429877 -0.822928 0.101392
-0.434684 0.382390 0.490246
0.850508 0.004187 -0.328792
-0.014550 -0.441254 -0.751146
-0.005277 0.814092 -0.291287
-0.402800 -0.025286 -0.732728
-0.853718 0.414475 0.094059
0.436251 0.012038 -0.747726
0.434915 0.010364 -0.748729
-0.402930 -0.023035 -0.733173
-0.850686 -0.035066 -0.292220
-0.430052 -0.822267 0.102045
0.435343 0.009844 -0.749276
0.417131 0.371135 -0.276833
0.414702 0.369836 -0.276289
0.003532 0.840873 0.497878
0.436545 -0.401070 0.530613
0.845446 0.449024 0.093560
0.437573 -0.401242 0.533178
0.005610 -0.003611 0.481642
0.439358 0.859801 0.114034
0.851537 0.004814 -0.330357
-0.428820 -0.823278 0.100960
-0.401722 -0.022937 -0.731456
-0.856467 -0.425813 0.131977
-0.002839 0.814290 -0.291081
0.803599 0.030959 0.505881
0.417906 0.370233 -0.277532
-0.411640 0.390296 -0.307626
-0.001668 -0.846676 -0.304439
0.416487 0.371263 -0.279426
-0.403357 -0.420078 -0.331367
0.416702 0.371960 -0.276130
-0.854393 0.415602 0.094082
-0.013383 -0.440874 -0.748965
0.804458 0.032670 0.506989
-0.855158 -0.425954 0.131781
-0.000977 -0.846971 -0.304661
-0.404279 -0.422953 -0.330949
-0.003936 -0.848132 -0.304663
-0.849115 -0.035643 -0.295681
-0.858781 0.010814 0.514357
-0.412667 0.386667 -0.308240
-0.416547 -0.403501 0.491634
0.439003 0.862053 0.114921
0.439064 0.859830 0.114413
0.847183 -0.399333 0.091035
-0.428600 -0.822534 0.100924
0.412669 -0.393098 -0.289450
-0.855601 -0.426491 0.133982
0.002726 -0.817761 0.520654
-0.855929 -0.426342 0.132308
0.418783 0.372203 -0.278271
-0.851110 -0.035216 -0.293444
-0.859379 0.009040 0.512876
-0.850006 -0.033235 -0.293498
0.803971 0.032737 0.507513
-0.855280 -0.426677 0.131983
0.417400 0.372442 -0.279335
0.435915 0.011011 -0.749339
-0.012645 -0.439663 -0.750010
0.804487 0.033511 0.509101
-0.004240 0.815916 -0.290270
0.003172 -0.816689 0.521539
-0.853162 0.412504 0.093794
-0.851160 -0.034965 -0.294927
-0.408323 0.829475 0.086069
0.416522 0.371757 -0.276640
-0.855988 -0.425800 0.132639
0.416594 0.371343 -0.277830
0.851941 0.003080 -0.328525
-0.434853 0.383754 0.489595
-0.416242 -0.403070 0.491024
-0.435061 0.382095 0.489910
0.439136 0.860337 0.113801
0.434577 0.010517 -0.749223
0.436280 0.859304 0.116031
-0.435970 0.382457 0.491840
-0.857628 0.010269 0.511573
-0.431221 -0.822199 0.100935
0.446264 0.442577 0.489039
0.850213 0.003740 -0.329159
0.804241 0.033185 0.507705
0.852134 0.005850 -0.330401
0.383941 -0.841599 0.135543
0.005059 0.843329 0.497613
-0.849397 -0.034205 -0.295071
-0.430437 -0.820600 0.101640
0.012893 0.422004 -0.716422
0.438511 0.862489 0.114964
0.004611 0.842297 0.496254
-0.001772 -0.848416 -0.305261
0.003725 -0.815629 0.522085
-0.411719 0.389434 -0.309270
-0.004404 0.815627 -0.292266
0.384915 -0.842206 0.137007
-0.404893 -0.420370 -0.329602
0.416156 0.371672 -0.277326
-0.856097 -0.425495 0.134342
0.413493 -0.392065 -0.286636
-0.405270 -0.421144 -0.328197
-0.013022 -0.441140 -0.748905
-0.436637 0.382914 0.490561
0.416271 0.370339 -0.279288
0.446178 0.442198 0.490084
-0.850102 -0.032809 -0.293703
0.439288 0.861236 0.114969
0.005019 0.841885 0.497779
0.853968 0.002186 -0.329412
-0.860263 0.010052 0.513397
0.385168 -0.841753 0.136945
-0.416358 -0.401682 0.490077
0.845193 0.449682 0.093353
-0.434127 0.383283 0.488496
0.002614 -0.815984 0.521660
-0.858131 0.009473 0.511772
0.013555 0.423262 -0.714774
0.012790 0.422940 -0.715684
-0.013172 -0.440417 -0.750322
0.444560 0.440386 0.488822
0.436430 0.009065 -0.750132
0.847663 -0.398804 0.091116
0.004471 0.841446 0.498616
0.849005 -0.399042 0.090157
-0.433806 0.383895 0.489461
-0.403053 -0.023709 -0.731485
-0.402803 -0.022826 -0.731661
0.384156 -0.841191 0.136666
-0.434113 0.384650 0.489935
0.848669 -0.400077 0.092546
-0.004426 0.816245 -0.288846
0.436172 -0.400466 0.532386
-0.848853 -0.035542 -0.294395
-0.012947 -0.440389 -0.748419
-0.856163 -0.427543 0.133228
-0.857580 -0.426923 0.131973
-0.418566 -0.402099 0.489017
0.434479 0.010063 -0.748795
-0.854033 0.414836 0.093458
-0.856065 -0.427272 0.132415
0.849952 -0.399191 0.091301
0.444998 0.442375 0.489637
-0.855767 -0.426108 0.132003
-0.415347 -0.402568 0.490218
-0.854527 0.415993 0.094177
-0.404270 -0.420027 -0.330263
-0.003355 0.815473 -0.290210
0.437439 0.010064 -0.749871
-0.013014 -0.438404 -0.749601
0.004798 -0.816909 0.520872
0.001069 -0.816178 0.520345
0.383924 -0.843227 0.136426
-0.435941 0.381287 0.489295
-0.004855 0.816627 -0.289814
0.012993 0.423544 -0.716986
0.438818 0.860773 0.114472
-0.411333 0.388116 -0.306817
-0.432035 -0.822593 0.104458
-0.407319 0.826347 0.085793
0.385321 -0.843255 0.137182
0.847293 0.448763 0.093952
-0.004184 0.815334 -0.289831
0.445501 0.444283 0.488963
0.003154 -0.815603 0.520754
0.852076 0.003239 -0.328756
-0.412035 0.388159 -0.308795
-0.856509 -0.425878 0.132280
0.848539 -0.399111 0.090699
0.846918 -0.398281 0.091180
0.384737 -0.840946 0.138523
0.012316 0.422295 -0.715125
0.804444 0.031926 0.506660
-0.411010 0.388093 -0.307316
-0.851121 -0.035486 -0.293941
0.416987 0.370710 -0.278007
-0.435218 0.383570 0.490455
-0.854477 0.414382 0.094364
0.853849 0.002883 -0.327096
-0.418284 -0.402139 0.488394
-0.430560 -0.822370 0.101816
-0.435694 0.384100 0.491285
-0.013303 -0.442039 -0.749834
0.008992 0.423574 -0.716483
0.802652 0.034013 0.507161
0.385529 -0.842750 0.137341
-0.851750 -0.032668 -0.294568
-0.407310 0.826186 0.086087
0.437252 0.010359 -0.749578
-0.859254 0.012238 0.513005
0.804328 0.033750 0.508241
0.803262 0.032667 0.506736
-0.857274 -0.427287 0.132701
0.415333 0.371733 -0.277421
-0.853475 0.413438 0.094691
0.005527 -0.004450 0.480749
0.436045 -0.399899 0.531935
-0.002995 -0.848225 -0.305292
-0.434660 0.383519 0.489628
0.847607 -0.398859 0.092298
0.847175 -0.398718 0.090930
0.437709 0.862708 0.114504
0.413819 -0.391782 -0.290061
0.437005 0.859890 0.113639
0.412304 -0.392123 -0.290609
0.850671 0.005000 -0.328214
0.417779 0.371728 -0.274460
-0.415540 -0.403556 0.491110
-0.857227 -0.427094 0.132202
0.417683 0.371418 -0.279042
-0.005585 0.815460 -0.292488
-0.856602 0.012542 0.512622
-0.412763 0.388698 -0.307815
-0.416261 -0.404620 0.489907
0.412178 -0.392943 -0.291062
-0.857617 0.009915 0.514418
0.437674 0.860907 0.114304
0.003975 -0.814990 0.521939
-0.428396 -0.822716 0.102669
-0.853977 0.415181 0.094065
0.011183 0.422405 -0.714951
-0.411111 0.389231 -0.308865
-0.406175 -0.421758 -0.329948
-0.411914 0.388871 -0.306852
0.383730 -0.842898 0.137646
-0.436610 0.382663 0.490460
0.847860 -0.398495 0.091263
0.437282 0.009830 -0.748347
-0.854518 -0.427349 0.131397
0.445225 0.441720 0.488060
-0.854495 0.415681 0.094373
0.440067 0.861468 0.115469
0.003902 0.842447 0.499062
-0.855940 -0.429343 0.131934
-0.853838 0.415482 0.094206
0.435584 0.012188 -0.749530
