OFF
256 0 0
0.010716 0.847347 0.531322
-0.401445 0.380920 0.501329
-0.840234 -0.005977 -0.326283
-0.009985 0.017655 0.508303
0.840324 -0.444388 0.104210
-0.009560 0.017183 0.508064
0.422877 0.009872 -0.731612
0.439771 0.842157 0.089212
0.000362 -0.819495 0.504624
0.413228 0.415135 -0.317555
-0.014947 -0.411396 -0.746762
-0.422316 0.827049 0.119560
-0.421586 0.825888 0.118697
0.412517 -0.417341 -0.259250
0.404514 -0.842637 0.108523
-0.399337 0.382161 0.500759
0.808661 -0.015962 0.492951
0.422196 0.428713 0.488303
-0.017788 -0.410814 -0.748084
-0.018683 -0.412792 -0.746415
-0.014683 -0.836899 -0.325356
-0.410508 0.010245 -0.759193
0.837682 -0.445526 0.103453
0.807569 -0.014884 0.491268
0.412349 0.415339 -0.317409
-0.390252 0.374947 -0.297988
-0.388977 0.375263 -0.296960
-0.433322 -0.827340 0.117948
0.003044 -0.820969 0.505691
0.419059 0.429094 0.486528
-0.421094 0.826202 0.118902
-0.844090 -0.017793 0.529900
0.807557 -0.015268 0.492353
-0.016057 -0.837488 -0.323545
-0.827903 0.421374 0.112342
-0.399448 0.382577 0.501080
-0.389990 0.372018 -0.297247
-0.842946 -0.005844 -0.326036
-0.434263 -0.828852 0.118946
-0.400160 0.382981 0.501213
0.865017 0.432624 0.116237
-0.407753 -0.387161 0.513993
0.003868 0.830672 -0.305378
-0.009023 0.015191 0.509015
-0.414112 -0.405220 -0.329034
-0.413612 -0.406871 -0.328395
0.002446 -0.821495 0.506678
-0.826918 -0.414752 0.090023
-0.841442 -0.003161 -0.326743
0.441042 0.838440 0.092768
-0.407781 0.012839 -0.759089
0.402508 -0.405780 0.491944
0.011560 0.846709 0.534065
0.402710 -0.842638 0.110239
-0.017456 -0.410906 -0.748579
-0.014291 -0.836817 -0.323062
-0.408043 0.011387 -0.757429
-0.828249 0.421450 0.113891
-0.844168 -0.016265 0.530744
0.414669 -0.417997 -0.256935
-0.844330 -0.018796 0.529087
0.412807 0.412418 -0.317464
-0.007874 0.016754 0.507005
-0.008124 0.016253 0.507435
0.403224 -0.841793 0.110380
0.004011 0.832245 -0.305313
-0.013495 -0.835815 -0.322290
0.414045 0.414670 -0.319084
0.864827 0.432436 0.115944
-0.844784 -0.016912 0.530327
0.412887 -0.417859 -0.257074
0.413186 -0.416911 -0.259184
0.839972 -0.445435 0.101210
-0.828362 0.421444 0.115278
0.820994 0.000494 -0.301766
-0.423092 0.826835 0.118069
0.010781 0.847255 0.532661
0.841150 -0.446337 0.101466
-0.421677 0.827373 0.119457
0.002195 -0.820644 0.505255
-0.828034 0.422423 0.112636
0.012351 0.846077 0.529272
0.412534 -0.419502 -0.257526
-0.825449 -0.415211 0.090636
0.840653 -0.443464 0.104431
0.404922 -0.841912 0.111049
-0.432770 -0.826048 0.115627
0.424160 0.009644 -0.730615
-0.013962 -0.835540 -0.323370
-0.399528 0.382447 0.502461
0.403027 -0.841448 0.111455
0.400110 -0.409314 0.491350
-0.842246 -0.004294 -0.326194
-0.007470 0.415370 -0.724144
-0.009891 0.018992 0.508020
0.404285 -0.841123 0.111414
-0.007323 0.016070 0.508031
-0.409236 0.012776 -0.756927
-0.843840 -0.017062 0.532783
-0.009075 0.016755 0.507649
-0.016083 -0.411458 -0.747167
-0.844149 -0.018263 0.530420
0.822838 -0.000458 -0.304148
-0.013777 -0.835942 -0.323295
0.821191 0.000438 -0.302698
-0.828011 0.422090 0.114371
0.839816 -0.446250 0.102697
0.862903 0.432346 0.115983
-0.431367 -0.825245 0.117720
0.413583 0.414355 -0.318720
0.837635 -0.444475 0.103077
0.839530 -0.445382 0.103117
-0.016060 -0.836144 -0.322247
0.000230 -0.818467 0.504017
0.438447 0.842726 0.091449
-0.433569 -0.825866 0.117240
-0.008924 0.017518 0.507314
0.438579 0.840630 0.094363
-0.825308 -0.413752 0.090439
0.422389 0.008365 -0.729843
-0.841179 -0.018526 0.532235
0.010771 0.847195 0.531659
0.001781 0.831023 -0.307123
0.400631 -0.406403 0.491189
-0.433740 -0.827605 0.117686
0.403728 -0.842183 0.110743
-0.016812 -0.410060 -0.746961
-0.016734 -0.409933 -0.747630
-0.014993 -0.835299 -0.322480
-0.399364 0.382610 0.501415
-0.432778 -0.826533 0.116719
0.400277 -0.408991 0.491895
0.863526 0.431316 0.115185
0.424711 0.011537 -0.732098
-0.415054 -0.405271 -0.327234
-0.827534 0.420241 0.116479
0.807581 -0.015924 0.494271
-0.826672 0.420270 0.115013
0.405568 -0.842838 0.110227
0.002093 0.832159 -0.305857
-0.007996 0.415284 -0.724024
-0.843573 -0.017707 0.530951
0.002207 -0.820689 0.504276
0.402350 -0.408037 0.490758
0.412676 -0.417905 -0.259522
0.438646 0.840932 0.092753
-0.406789 -0.388878 0.515937
-0.008854 0.015363 0.507037
-0.431818 -0.827079 0.117210
0.422750 0.009909 -0.729440
0.807923 -0.014308 0.492726
-0.007975 0.015074 0.505878
0.002483 0.829156 -0.308924
0.819379 0.001790 -0.301664
0.839661 -0.445972 0.104452
-0.017166 -0.409689 -0.747088
-0.009520 0.414272 -0.724485
-0.009465 0.017726 0.508251
0.821456 -0.000355 -0.302987
-0.399349 0.381721 0.500179
-0.007086 0.414189 -0.724819
-0.010974 -0.837946 -0.322338
-0.409178 0.012231 -0.759395
-0.841211 -0.003673 -0.326443
0.012090 0.847586 0.530518
-0.842250 -0.017247 0.532588
-0.844178 -0.018745 0.530368
0.004200 0.831243 -0.304940
0.422478 0.011512 -0.729294
-0.408757 0.011437 -0.759746
0.420084 0.428989 0.487602
-0.434421 -0.826530 0.118101
0.863416 0.432186 0.113936
0.411827 -0.418163 -0.259630
0.838096 -0.444786 0.104019
-0.841366 -0.005178 -0.327536
-0.826735 -0.413363 0.092361
0.808689 -0.014795 0.492550
-0.826328 -0.415469 0.089931
0.413150 -0.418045 -0.258010
-0.408006 -0.389350 0.516618
-0.840635 -0.006411 -0.325824
-0.400103 0.382177 0.500861
0.862966 0.431111 0.116697
-0.423250 0.825540 0.119907
-0.408478 -0.388158 0.514292
0.405065 -0.843349 0.109973
-0.413194 -0.405570 -0.328688
0.808270 -0.015958 0.494600
0.011668 0.847465 0.533683
0.403485 -0.841975 0.110980
0.438750 0.840892 0.090985
-0.838960 -0.004205 -0.327502
0.419893 0.429564 0.488013
-0.420908 0.825560 0.118788
-0.842982 -0.003731 -0.325668
-0.400787 0.382857 0.501866
-0.841815 -0.007146 -0.325578
-0.010555 0.015998 0.506933
-0.841805 -0.005961 -0.326027
-0.400644 0.383014 0.500318
-0.009420 0.015474 0.507410
0.419678 0.429877 0.487078
-0.414248 -0.405422 -0.326989
0.012407 0.847369 0.530689
0.838246 -0.445892 0.102677
0.422080 0.009199 -0.729857
-0.400376 0.382500 0.500683
-0.008923 0.015789 0.508224
-0.008075 0.414047 -0.723767
-0.014293 -0.836630 -0.321186
0.002889 0.831908 -0.305628
0.808498 -0.016553 0.493266
-0.391456 0.373187 -0.296395
-0.405673 -0.389001 0.516257
-0.389222 0.373519 -0.298103
0.819527 0.001049 -0.304318
0.822092 0.001070 -0.302894
0.012847 0.847160 0.532856
-0.419714 0.826697 0.117186
-0.843992 -0.017861 0.529845
-0.843997 -0.016872 0.530462
-0.012810 -0.835855 -0.323890
0.002396 -0.820877 0.504888
-0.828071 -0.414396 0.090527
0.403042 -0.839523 0.109656
0.439183 0.842587 0.092519
-0.389960 0.373818 -0.297567
-0.388772 0.374876 -0.297038
0.412894 0.414764 -0.316871
0.402956 -0.844039 0.109463
-0.826816 -0.414397 0.090227
-0.415757 -0.406219 -0.327619
0.417710 0.427832 0.487540
-0.413195 -0.404770 -0.330081
0.839666 -0.443435 0.103674
0.808858 -0.015012 0.493987
-0.826002 -0.412165 0.090091
-0.842497 -0.017290 0.529590
-0.412333 -0.405300 -0.329120
0.822983 0.000917 -0.301522
0.412620 -0.417415 -0.258397
-0.841776 -0.004124 -0.327031
-0.007455 0.416308 -0.724335
0.405110 -0.843701 0.109905
-0.013006 -0.837035 -0.324556
0.001566 -0.823642 0.504740
0.398579 -0.408606 0.490742
0.838750 -0.446004 0.104309
-0.413167 -0.404135 -0.329744
-0.009872 0.415812 -0.725409
0.410727 0.412511 -0.317563
0.423448 0.010456 -0.730749
0.403972 -0.842611 0.111153
0.399766 -0.405981 0.492074
-0.389139 0.372868 -0.295164
