OFF
256 0 0
-0.274870 0.624617 0.602335
0.172623 -0.751961 0.586957
-0.773147 0.149029 -0.270570
0.172695 -0.277531 -0.739228
-0.310438 0.174305 -0.757921
0.631024 0.610172 -0.293964
0.628329 0.610058 -0.293796
-0.273904 0.623624 0.600834
0.196079 -0.738712 -0.298064
-0.785188 -0.291401 0.158066
0.171331 -0.278666 -0.740698
-0.740200 0.630647 0.167083
0.173519 -0.279106 -0.740255
-0.276086 0.624438 0.600677
-0.749337 0.162612 0.623025
-0.308048 -0.769521 0.168187
-0.306438 -0.288449 0.607048
0.171753 -0.751625 0.589932
-0.773550 0.148889 -0.270862
0.144890 0.174694 0.620480
0.196152 0.622949 -0.754986
0.196959 0.620394 -0.756599
-0.749859 0.165865 0.622820
-0.305799 -0.288051 0.609422
-0.302707 -0.286556 -0.254955
-0.738489 0.629046 0.166969
0.637884 0.175646 0.211566
0.639061 0.177258 0.210961
-0.305268 -0.285714 0.608308
0.170899 -0.750449 0.589505
-0.307814 0.174881 -0.757418
-0.275654 0.622421 0.601363
-0.782763 -0.294059 0.160634
-0.308302 -0.768272 0.170025
0.635170 -0.287896 0.636756
0.171775 -0.751062 0.590294
0.630719 0.610398 -0.293933
0.173026 -0.754175 0.589026
0.630483 -0.763010 0.139529
-0.302959 -0.289591 -0.256736
0.195151 -0.738189 -0.296646
0.194900 0.622085 -0.755261
-0.307935 -0.768439 0.166522
-0.740440 0.630555 0.167581
-0.772843 0.149068 -0.271581
0.173003 -0.748779 0.589863
-0.308784 0.174856 -0.757869
-0.303890 0.599769 -0.302712
0.193882 -0.738168 -0.293820
-0.772951 0.148620 -0.270908
0.632168 -0.762294 0.140099
-0.303603 -0.288142 -0.254734
-0.275501 0.624372 0.600947
0.173274 -0.277647 -0.740147
0.144494 0.173064 0.617215
-0.773551 0.147745 -0.271077
0.196582 0.620857 -0.754115
0.629967 0.608613 -0.294820
0.171738 -0.751699 0.590616
-0.306148 -0.767054 0.166901
-0.306549 -0.286200 0.608128
-0.305099 -0.286529 0.607597
-0.303761 0.600504 -0.301052
-0.785380 -0.292596 0.158079
0.630857 0.610312 -0.292258
0.171665 -0.750857 0.589503
-0.307221 -0.767083 0.168233
0.170556 -0.751504 0.588186
0.195565 -0.738581 -0.296216
-0.738755 0.629563 0.166567
0.626247 -0.280743 -0.257526
-0.774584 0.148158 -0.272030
0.630377 -0.762237 0.139480
0.631037 -0.763700 0.137707
0.638523 0.177000 0.211387
-0.308910 0.175051 -0.758239
0.631967 -0.762446 0.139197
-0.303317 -0.286711 -0.254896
-0.304409 0.599418 -0.302521
0.629881 0.608676 -0.291973
-0.306521 0.175511 -0.755928
0.197282 0.621637 -0.756687
0.195520 0.620332 -0.755923
-0.749570 0.166360 0.622354
-0.773529 0.149441 -0.273206
0.170164 -0.750359 0.589293
0.634305 -0.289208 0.639024
0.629508 -0.282814 -0.256850
0.171847 -0.277031 -0.739413
-0.749336 0.165580 0.625366
0.172098 -0.277618 -0.739582
-0.304478 0.600767 -0.301877
0.194063 -0.738602 -0.295362
-0.276410 0.625391 0.600503
-0.307081 -0.767391 0.167543
-0.305388 0.599712 -0.303890
-0.275964 0.624405 0.599565
-0.274916 0.623988 0.602146
0.630919 -0.763280 0.142451
-0.782055 -0.291096 0.157227
-0.276306 0.623990 0.601114
0.635479 -0.289859 0.635983
0.627490 -0.281275 -0.258840
0.639560 0.175067 0.211451
0.196188 -0.738858 -0.296492
-0.738447 0.629755 0.166634
-0.303146 -0.284552 -0.255101
-0.275892 0.624387 0.602076
-0.308046 0.173204 -0.757043
0.628694 0.168878 -0.740119
-0.304418 0.599009 -0.302165
0.637033 0.177138 0.212218
0.630810 0.607626 -0.294238
-0.303157 0.601010 -0.301714
0.628419 -0.280502 -0.259670
-0.306615 0.174860 -0.757130
-0.275532 0.625852 0.601349
-0.276023 0.623839 0.601894
0.145572 0.173870 0.618161
-0.306753 -0.287024 0.608258
-0.301266 -0.286650 -0.253211
0.629066 0.169594 -0.742706
-0.304886 0.600850 -0.301869
-0.304063 0.602605 -0.302881
-0.305150 0.601121 -0.303240
-0.783475 -0.292159 0.157545
0.178147 0.639794 0.147625
-0.305748 -0.287768 0.607007
0.145411 0.173157 0.618329
0.177650 0.637965 0.147800
-0.308986 -0.767641 0.167904
-0.739587 0.630032 0.166960
-0.773346 0.147938 -0.272206
0.637923 0.176613 0.213168
0.630981 -0.762775 0.139891
0.145019 0.175240 0.618827
0.194210 0.623644 -0.755325
0.176575 0.639049 0.147358
0.171390 -0.750346 0.587209
0.194458 0.622654 -0.756277
0.177708 0.637616 0.147388
-0.751525 0.165985 0.623700
-0.782102 -0.292076 0.156891
-0.275906 0.624100 0.601136
-0.307581 -0.767218 0.168997
-0.308476 0.175977 -0.756180
0.631187 0.610914 -0.292959
-0.307321 0.173901 -0.757437
-0.308428 0.173931 -0.756640
-0.275275 0.623134 0.600881
-0.305769 -0.286025 0.609022
-0.305966 -0.288961 0.607981
-0.305245 -0.286876 0.607831
0.176387 0.638088 0.148586
-0.302683 -0.285104 -0.253306
-0.738243 0.629013 0.166739
-0.303930 -0.287051 0.607999
0.178681 0.639935 0.149108
0.144837 0.171883 0.619309
-0.310052 0.174596 -0.755744
0.630422 0.168987 -0.738656
0.172163 -0.279534 -0.738545
-0.302626 -0.287195 -0.254592
0.633290 -0.286817 0.636746
0.174938 -0.277070 -0.739474
0.177583 0.638958 0.147011
0.630205 0.171064 -0.738265
-0.276298 0.624194 0.600975
0.143676 0.173570 0.619242
0.633573 -0.288669 0.634708
0.144760 0.174385 0.620411
-0.783979 -0.291754 0.157993
-0.304699 0.601706 -0.302583
0.631554 -0.763547 0.141401
0.172237 -0.278729 -0.738790
-0.740367 0.629698 0.166654
-0.308651 0.175423 -0.755493
0.631986 -0.288277 0.634469
-0.304527 -0.285815 0.608618
0.629621 -0.280840 -0.258137
-0.308000 0.175711 -0.756522
0.630760 0.608675 -0.294301
0.630519 -0.763215 0.139429
0.171198 -0.277906 -0.740675
-0.738152 0.629712 0.166364
0.627992 -0.282201 -0.258012
0.171887 -0.278975 -0.739187
0.637552 0.175946 0.210319
-0.772610 0.148610 -0.270929
0.178935 0.640171 0.148136
0.177907 0.639311 0.148671
-0.305210 0.603117 -0.300843
-0.771880 0.149022 -0.270692
0.629301 -0.281110 -0.256365
0.194291 0.622436 -0.758451
0.627071 -0.280978 -0.258542
0.172328 -0.752301 0.589115
0.143724 0.173848 0.619062
-0.303846 0.600358 -0.303972
-0.782486 -0.291514 0.158344
0.194415 0.621717 -0.755678
-0.772790 0.147575 -0.270436
0.193561 -0.738153 -0.297163
-0.308299 -0.286547 0.608993
-0.307783 0.175474 -0.756133
-0.304254 -0.287257 -0.253333
-0.774160 0.145559 -0.271193
-0.277002 0.624573 0.601354
-0.305728 0.600016 -0.304268
0.194206 -0.737806 -0.295881
-0.274885 0.624959 0.599930
0.633035 -0.289095 0.636017
0.639210 0.177264 0.211910
-0.772927 0.146431 -0.271521
0.145017 0.175170 0.617669
0.174796 -0.278416 -0.738033
-0.309167 0.176311 -0.756729
0.172631 -0.750838 0.587054
0.172323 -0.277651 -0.739178
-0.276110 0.623177 0.601440
-0.785887 -0.291928 0.157606
0.143995 0.172713 0.618261
-0.782333 -0.293066 0.159278
0.172966 -0.278405 -0.737871
-0.304810 0.600876 -0.302601
0.144813 0.173083 0.617838
0.631097 -0.760938 0.139728
-0.305163 0.600318 -0.302520
-0.773628 0.146491 -0.272672
0.630910 -0.763394 0.138948
-0.772183 0.147713 -0.270095
0.193661 -0.737529 -0.298436
-0.307707 0.177316 -0.756392
0.629965 -0.281206 -0.256966
0.638137 0.175912 0.211630
0.637353 0.177180 0.211638
-0.303643 0.601253 -0.303440
0.171656 -0.752143 0.589773
0.640000 0.175057 0.211393
0.145128 0.172686 0.619549
0.626761 -0.281376 -0.257454
0.631054 0.609596 -0.294246
0.177617 0.638750 0.148351
-0.275400 0.624487 0.601371
0.144804 0.172464 0.618055
-0.300725 -0.285675 -0.253555
-0.275855 0.625748 0.601230
0.176698 0.637688 0.146852
0.172873 -0.277423 -0.739995
-0.773358 0.147912 -0.271458
0.173620 -0.752067 0.590964
-0.276167 0.625310 0.600493
-0.275883 0.624385 0.600056
0.196148 0.622219 -0.755798
0.170860 -0.751519 0.588871
-0.307857 -0.768117 0.169373
