OFF
256 0 0
0.531244 -0.535569 -0.352946
0.150367 0.235735 0.844462
0.523968 -0.150516 0.044824
-0.245193 -0.560914 -0.341020
0.522374 -0.150793 0.045402
-0.233039 -0.169807 0.838893
0.546057 0.618874 0.058589
-0.254945 0.613979 -0.704216
-0.235010 0.236014 0.434003
0.148480 0.615494 0.437772
-0.641713 -0.172825 -0.306986
0.150504 0.611015 -0.325589
-0.251226 0.614346 -0.704570
0.539242 0.240061 0.450204
0.150264 0.613537 -0.326079
0.175207 -0.541506 -0.735825
-0.605047 0.233652 -0.702253
0.553709 0.247997 -0.342628
0.530404 -0.538500 -0.355078
-0.634293 0.234838 0.047547
-0.227348 0.628800 0.041872
-0.234010 0.237349 0.433677
0.546329 0.618345 0.060962
-0.627753 -0.537211 0.068429
-0.235561 0.236336 0.432768
0.523592 -0.151951 0.044613
-0.229296 0.631046 0.041546
-0.228894 0.629515 0.041822
-0.636234 0.642803 -0.311963
-0.625627 -0.134889 0.417277
0.150398 0.617249 0.440460
0.149566 -0.540194 0.825054
0.150621 0.235942 0.843432
-0.643555 -0.172571 -0.305462
-0.233032 -0.170192 0.837827
0.525326 -0.150617 0.045207
-0.625763 -0.138068 0.416558
-0.606654 0.235027 -0.702468
-0.253063 0.615094 -0.706572
0.523408 -0.151099 0.837625
0.173956 -0.540430 -0.736137
0.150430 -0.541502 0.826831
-0.635436 0.642923 -0.312822
0.171043 -0.551141 0.041909
0.552801 0.245935 -0.342935
0.160956 0.252180 -0.719945
0.150095 0.236295 0.846639
0.531809 -0.538375 -0.353002
0.531115 -0.537754 -0.354284
-0.247203 -0.560767 -0.341949
-0.634961 0.233795 0.045965
-0.203628 -0.152291 -0.692991
0.526491 -0.537787 0.424227
0.523521 -0.153758 0.837888
-0.234988 0.237431 0.433718
0.161908 0.252984 -0.719591
0.151156 0.237194 0.845493
-0.605330 0.233460 -0.702954
-0.236076 -0.539399 0.455948
-0.628439 -0.536833 0.068093
-0.603494 0.235236 -0.700404
-0.203092 -0.150099 -0.695142
-0.628890 -0.537225 0.067551
-0.228955 0.629282 0.041953
0.552483 0.246505 -0.341363
0.544572 0.617564 0.059634
-0.625780 -0.136480 0.415609
-0.228600 0.629946 0.042962
0.173488 -0.541866 -0.735197
-0.245102 -0.560747 -0.341099
0.545510 0.616871 0.060018
-0.234371 -0.168190 0.836140
0.151698 0.611675 -0.327311
-0.604652 0.235123 -0.700631
0.539753 0.239780 0.451369
0.525826 -0.537076 0.425934
-0.236946 -0.538326 0.454374
-0.636448 0.233658 0.047351
-0.635448 0.233764 0.045889
-0.228063 0.629246 0.040052
-0.245715 -0.561438 -0.339719
0.159904 0.253205 -0.719233
0.530963 -0.538622 -0.353491
-0.604017 0.232682 -0.703486
0.524933 -0.153870 0.837028
-0.236602 -0.540686 0.454760
-0.232784 -0.168371 0.836839
0.539441 0.240447 0.450778
0.540591 0.239745 0.449909
-0.625319 -0.136372 0.416532
-0.634374 0.233107 0.046234
0.161594 0.252135 -0.720836
-0.232231 -0.170969 0.836946
0.540599 0.238998 0.450270
0.557047 -0.135020 -0.734161
0.150380 0.617095 0.438755
0.531035 -0.536485 -0.353113
-0.634498 0.232108 0.045859
0.552884 0.244952 -0.342955
-0.202577 -0.150808 -0.693214
0.524892 -0.149033 0.046128
0.556407 -0.134732 -0.732002
-0.254721 0.617450 -0.704741
0.527456 -0.536979 0.426428
0.526846 -0.537016 0.426800
0.525907 -0.152734 0.838786
0.174512 -0.548485 0.043454
0.528232 -0.537280 0.426353
0.524202 -0.154004 0.835714
-0.245250 -0.560752 -0.341835
0.174506 -0.549348 0.042769
-0.236085 -0.539294 0.452869
0.553081 0.247098 -0.342756
0.545892 0.619120 0.059989
-0.634649 0.642006 -0.312511
0.553965 0.244280 -0.342699
0.547146 0.618279 0.060792
-0.629612 -0.539000 0.067959
0.172215 -0.550788 0.043323
-0.641495 -0.173442 -0.306657
-0.235716 0.238767 0.436714
-0.253313 0.615651 -0.704381
0.538320 0.238257 0.450985
0.151823 0.236427 0.844458
-0.229885 0.630244 0.041216
-0.238618 -0.540508 0.454167
-0.236616 -0.537712 0.455401
0.151863 0.610916 -0.324243
0.152512 0.236183 0.844901
0.162198 0.251532 -0.721290
0.526693 -0.536889 0.426355
0.149256 0.235024 0.843759
0.544879 0.621130 0.060332
0.540368 0.239431 0.450480
-0.603374 0.234518 -0.701610
0.171912 -0.548512 0.042056
0.151067 -0.537806 0.825032
0.150742 0.236325 0.844387
0.526486 -0.155231 0.837775
0.523299 -0.152996 0.837836
0.554817 -0.135734 -0.734921
-0.604559 0.234712 -0.701263
-0.635977 0.643168 -0.313463
0.151985 0.612811 -0.326410
0.524920 -0.151106 0.045613
-0.632213 0.233929 0.046935
0.529504 -0.537304 -0.352927
0.525242 -0.153320 0.838969
0.149075 0.615454 0.438954
-0.628307 -0.537493 0.068058
-0.640707 -0.172479 -0.304293
0.172586 -0.540042 -0.736517
-0.230870 0.630365 0.041814
0.150128 0.236978 0.842944
-0.232752 -0.169804 0.837651
-0.632916 0.234536 0.045217
-0.237037 -0.537916 0.453192
0.554565 -0.134814 -0.731457
0.529682 -0.537110 -0.353922
-0.605771 0.233444 -0.702185
-0.626116 -0.137537 0.414055
0.153018 0.236123 0.844637
0.555179 -0.136870 -0.733889
-0.642749 -0.171890 -0.308292
-0.232831 0.237051 0.434650
-0.246719 -0.559591 -0.339805
0.552420 0.247562 -0.343169
0.525590 -0.151326 0.044932
-0.626175 -0.136792 0.416506
0.173006 -0.540357 -0.734121
-0.641453 -0.172729 -0.306615
-0.203012 -0.150997 -0.692485
-0.639864 -0.172091 -0.306473
-0.633886 0.233159 0.048052
0.526893 -0.538241 0.426758
-0.640315 -0.174050 -0.304046
0.151217 0.233309 0.844593
0.152287 0.610516 -0.327095
-0.204042 -0.151013 -0.692723
-0.248627 -0.559627 -0.339855
0.551530 0.245924 -0.342577
-0.232775 -0.168021 0.838154
-0.252748 0.614327 -0.705302
0.529010 -0.536546 -0.354136
0.540366 0.241139 0.449887
-0.235105 0.238182 0.433523
0.526140 -0.537256 0.428407
-0.236265 -0.539582 0.455351
-0.227327 0.629785 0.041348
-0.250621 0.614471 -0.704850
0.528412 -0.538994 -0.353883
0.149989 0.616109 0.439396
-0.228667 0.628862 0.042459
0.531010 -0.536960 -0.355560
0.532961 -0.539152 -0.353840
-0.626502 -0.138366 0.416083
0.526748 -0.149095 0.046289
0.551247 0.244473 -0.344258
-0.233671 -0.170026 0.837832
0.546474 0.617138 0.059638
0.160476 0.251398 -0.719628
-0.640589 -0.171935 -0.307153
-0.252069 0.613749 -0.704884
0.541051 0.239221 0.450672
-0.237076 -0.539183 0.454484
-0.234681 0.237016 0.432510
-0.629643 -0.538267 0.069913
-0.246090 -0.561561 -0.339476
0.544875 0.618498 0.060501
-0.235421 -0.170709 0.838614
-0.228504 0.629869 0.042848
0.532601 -0.536302 -0.354329
0.552925 0.245873 -0.342585
-0.635705 0.233836 0.046180
0.538094 0.237905 0.451962
-0.633790 0.232942 0.047085
0.151279 0.236210 0.843860
-0.605577 0.233930 -0.702801
0.149882 -0.538396 0.826497
0.150570 0.613420 -0.324815
-0.203603 -0.151003 -0.692755
0.538334 0.239617 0.451745
0.556472 -0.134167 -0.732935
0.149882 -0.539779 0.824442
0.555955 -0.134599 -0.732010
0.150613 0.616325 0.440881
-0.635681 0.233644 0.046026
-0.625212 -0.136432 0.417464
0.555331 -0.134466 -0.734811
-0.629625 -0.538318 0.068665
0.523513 -0.155131 0.835246
-0.629254 -0.535683 0.066881
-0.628121 -0.535823 0.068520
0.160923 0.251448 -0.721309
0.530950 -0.538118 -0.354632
0.174809 -0.541264 -0.734780
-0.641198 -0.170755 -0.306380
0.523950 -0.150267 0.045568
0.526363 -0.538012 0.426439
-0.626403 -0.136316 0.415056
-0.233754 0.235976 0.432736
-0.603579 0.233833 -0.701962
-0.227572 0.629955 0.041983
0.530303 -0.536775 -0.352747
0.526829 -0.536987 0.424917
-0.633631 0.233944 0.045199
0.150414 -0.541670 0.825770
-0.253196 0.615669 -0.702843
-0.640945 -0.171478 -0.306315
-0.203624 -0.150817 -0.691995
-0.633621 0.232987 0.045350
-0.251274 0.613812 -0.703893
-0.236708 -0.538890 0.454801
0.522370 -0.152470 0.838733
-0.235986 -0.540179 0.454136
0.148410 0.615180 0.440055
