OFF
256 0 0
0.220665 0.659606 0.218274
-0.652143 -0.248299 -0.692978
0.701928 -0.218943 -0.240441
-0.207283 0.667748 0.664635
0.665693 -0.659050 0.214265
-0.237114 -0.231367 0.675599
-0.680817 0.209611 0.702674
-0.673233 0.205156 -0.216885
0.702998 -0.220473 -0.241209
0.217818 0.663992 -0.662038
0.226395 -0.625758 -0.233833
-0.244467 0.675854 -0.229619
0.693225 0.233416 -0.657609
-0.651744 -0.247584 -0.692283
0.219982 -0.654974 0.672635
0.217705 0.665312 -0.661218
-0.679368 0.210642 0.701102
-0.653253 -0.216600 0.225909
0.693627 0.234424 -0.656747
0.225792 -0.625096 -0.232157
-0.671785 0.206323 -0.217082
-0.680072 0.210351 0.702041
0.225393 -0.624726 -0.233407
-0.237043 -0.234966 0.675627
0.664566 -0.660907 0.216999
-0.236080 -0.231922 0.674620
-0.658199 -0.679228 -0.221855
0.239430 -0.168676 -0.655309
-0.670903 0.205005 -0.219686
-0.238035 -0.233445 0.675213
0.675446 0.698117 -0.223040
0.665281 -0.660490 0.214681
-0.250228 0.233973 -0.676023
-0.654877 -0.218518 0.225009
-0.244044 -0.677519 -0.659384
0.202127 0.188987 0.683866
-0.208147 0.668440 0.665838
-0.237032 -0.232385 0.674482
0.216719 0.664013 -0.664509
-0.251605 0.233467 -0.678488
0.201131 0.188287 0.685643
0.237303 -0.169015 -0.654404
-0.209276 0.668479 0.663702
0.664573 -0.660276 0.214237
0.667273 -0.658198 0.217412
-0.687036 0.647840 0.213096
0.224335 -0.625842 -0.233167
-0.244805 0.673102 -0.229714
0.676725 0.220727 0.206347
-0.245194 0.675078 -0.230444
-0.681318 0.210614 0.701996
0.217112 0.664490 -0.664248
-0.249921 0.234821 -0.677027
0.672772 -0.241148 0.679436
-0.671043 0.206358 -0.215435
0.237659 -0.168242 -0.652487
-0.652390 -0.247924 -0.692088
0.218901 -0.655891 0.672148
0.225215 -0.627018 -0.233796
-0.221887 -0.688745 0.211062
-0.651632 -0.248401 -0.692602
0.218538 0.662643 -0.662106
0.222973 0.659997 0.219650
-0.236125 -0.231905 0.675036
0.675515 0.700500 -0.223317
0.226094 -0.623939 -0.233560
-0.678653 0.211116 0.701425
-0.670012 0.204108 -0.217637
-0.238163 -0.231200 0.677178
0.672648 -0.239514 0.679873
-0.235423 -0.232160 0.675561
-0.654125 -0.219709 0.223899
0.693968 0.232543 -0.656559
0.219198 -0.655244 0.671684
0.663563 -0.660100 0.215968
0.226084 -0.625106 -0.235370
-0.656818 -0.677903 -0.222364
-0.652898 -0.248390 -0.693290
-0.237502 -0.232407 0.675929
0.237924 -0.168649 -0.653198
0.221977 0.659448 0.217707
0.691068 0.232676 -0.656180
-0.652664 -0.247842 -0.694371
-0.222032 -0.688698 0.208110
0.674207 0.701475 -0.223984
0.675840 0.219227 0.208169
0.675432 0.699752 -0.224178
-0.247870 0.674810 -0.231578
0.237411 -0.168172 -0.653190
-0.237884 -0.233466 0.676588
0.225694 -0.626006 -0.233502
0.224803 -0.627407 -0.234474
0.701366 -0.218905 -0.240113
0.220755 0.660152 0.218545
-0.246221 0.673790 -0.231026
0.674788 0.699636 -0.223791
0.671366 -0.238334 0.679390
0.672602 -0.238246 0.679070
-0.247398 0.673325 -0.231412
0.220677 -0.656162 0.672779
0.702504 -0.218458 -0.239295
-0.678394 0.211286 0.702459
0.217746 0.663544 -0.661441
-0.208322 0.666839 0.665034
0.218770 0.664638 -0.661587
0.200726 0.191143 0.682795
0.225783 -0.626490 -0.233017
0.221403 -0.656017 0.674145
0.237715 -0.167685 -0.654824
-0.221994 -0.688005 0.208942
0.675688 0.699677 -0.224051
0.702593 -0.217144 -0.240082
0.203391 0.189668 0.685440
-0.207989 0.668709 0.665293
-0.659219 -0.677265 -0.222166
-0.653096 -0.216883 0.223657
0.220272 -0.656774 0.672490
0.199382 0.190254 0.684044
0.218008 0.663771 -0.662856
0.676544 0.699326 -0.224418
0.218875 0.664650 -0.663370
-0.249627 0.234202 -0.675764
0.223444 0.659002 0.217865
-0.657206 -0.677859 -0.223253
0.218168 0.663784 -0.662971
-0.250186 0.234151 -0.676292
0.700573 -0.218500 -0.238875
0.222353 0.660646 0.217493
-0.234730 -0.229511 0.674048
0.672030 -0.237942 0.680326
-0.242967 -0.677495 -0.657494
0.226997 -0.625045 -0.232693
-0.654442 -0.218315 0.226276
-0.652430 -0.247026 -0.693469
-0.247277 0.673725 -0.230738
-0.249439 0.234762 -0.674902
-0.670001 0.206271 -0.216910
-0.246105 0.673437 -0.232330
0.240339 -0.168568 -0.655540
0.220027 0.659163 0.218568
-0.249984 0.232410 -0.675784
0.691668 0.231934 -0.656520
-0.243225 -0.675183 -0.657560
0.701179 -0.217460 -0.239160
0.221362 -0.655507 0.670508
-0.658513 -0.676659 -0.221882
0.675529 0.699823 -0.223724
0.236880 -0.169226 -0.655298
-0.652200 -0.247246 -0.694200
-0.208331 0.668506 0.664812
0.238013 -0.166961 -0.656542
-0.687367 0.646155 0.214390
0.199999 0.190255 0.685199
0.226044 -0.624184 -0.232155
-0.669468 0.207185 -0.218150
0.201253 0.191189 0.682691
0.702891 -0.218983 -0.239783
0.675393 0.220760 0.205633
-0.657177 -0.678867 -0.222825
-0.221676 -0.687648 0.211185
0.239421 -0.168549 -0.652241
-0.678364 0.211180 0.703056
-0.686883 0.644627 0.214044
0.666499 -0.657874 0.216808
-0.252016 0.234651 -0.676053
0.200466 0.190648 0.683190
0.672947 -0.239643 0.677993
0.702594 -0.218929 -0.239000
-0.670424 0.205593 -0.216742
-0.653770 -0.219042 0.223828
-0.244765 -0.676718 -0.660044
0.220695 -0.655316 0.673267
0.217297 0.665768 -0.662372
0.226060 -0.624651 -0.232744
-0.680485 0.211695 0.702959
0.665614 -0.658409 0.216649
-0.237045 -0.231736 0.674422
-0.655082 -0.219328 0.223042
0.219804 -0.656892 0.673191
-0.654355 -0.217668 0.224316
-0.220359 -0.688708 0.210230
0.200513 0.190205 0.683201
0.237475 -0.167839 -0.652803
-0.245165 -0.676226 -0.659238
-0.251886 0.234578 -0.676817
0.699586 -0.218099 -0.238808
0.665927 -0.661253 0.215928
-0.657019 -0.678804 -0.222838
-0.221786 -0.686952 0.209519
0.223863 -0.626460 -0.234299
0.202472 0.189819 0.684058
-0.250654 0.232351 -0.677175
-0.236351 -0.232200 0.675170
-0.247281 0.673694 -0.230150
0.663479 -0.657834 0.217767
-0.236240 -0.230634 0.676113
0.663727 -0.660848 0.216436
0.220708 -0.655759 0.673760
0.692112 0.231976 -0.655952
0.200478 0.190269 0.682962
0.677665 0.699362 -0.223624
-0.680062 0.212910 0.701982
0.677319 0.699481 -0.223858
-0.207875 0.667899 0.665824
-0.207896 0.668752 0.665266
-0.686509 0.647281 0.214311
-0.207634 0.667981 0.665030
0.671104 -0.238998 0.678909
-0.250670 0.232993 -0.675897
-0.245857 0.673181 -0.231784
-0.243004 -0.675559 -0.659719
0.703938 -0.216686 -0.238878
-0.653386 -0.217898 0.223184
-0.672980 0.205222 -0.215502
0.221775 0.660845 0.217810
-0.670473 0.205241 -0.216404
0.673696 -0.241147 0.679483
0.220855 0.658824 0.218874
-0.652849 -0.248253 -0.693573
0.202136 0.190240 0.684533
-0.686216 0.648718 0.213600
-0.658503 -0.679124 -0.224041
0.200132 0.190063 0.685373
0.676727 0.222700 0.206679
-0.238457 -0.233330 0.675699
-0.237505 -0.229952 0.673725
-0.653949 -0.217507 0.223564
0.702462 -0.218110 -0.238332
-0.653657 -0.245345 -0.692677
-0.248785 0.235100 -0.677249
-0.246149 -0.676752 -0.657757
-0.221193 -0.689756 0.209259
-0.680982 0.210553 0.701050
-0.686219 0.644938 0.214642
-0.242614 -0.677166 -0.658005
-0.237598 -0.233725 0.674765
-0.250455 0.234778 -0.676660
0.217589 0.664917 -0.664031
-0.686955 0.646855 0.214594
-0.221959 -0.688366 0.210066
0.692517 0.232191 -0.657591
0.674597 0.697326 -0.224051
-0.679721 0.210688 0.703011
0.702471 -0.218542 -0.239533
0.237228 -0.167893 -0.654029
-0.672275 0.205321 -0.216135
-0.250235 0.234025 -0.678073
0.675878 0.221899 0.206078
-0.245630 -0.676602 -0.656704
0.200724 0.190750 0.683330
-0.237715 -0.232640 0.675382
-0.251758 0.235514 -0.676702
0.693707 0.231937 -0.657054
0.692486 0.231998 -0.658313
0.673001 -0.238213 0.680634
0.238811 -0.166421 -0.654133
