OFF
256 0 0
0.678173 -0.196941 0.697359
0.207546 -0.677060 -0.218949
-0.222311 0.633265 -0.222968
-0.703922 0.203731 -0.210538
-0.222231 0.630512 -0.221440
-0.234758 0.203406 -0.672407
0.228711 -0.645241 0.654200
-0.679913 -0.236162 -0.669831
-0.222202 0.631872 -0.221172
0.208493 -0.678526 -0.217804
-0.677906 0.676958 0.215545
-0.210025 -0.180577 0.655119
0.212433 0.688159 -0.667342
-0.704728 0.205690 -0.211784
0.212430 0.686180 -0.665685
0.689215 -0.657224 0.237934
0.685882 -0.241788 -0.224799
-0.220498 0.632047 -0.220745
-0.223173 0.631050 -0.220898
0.228086 0.673306 0.180824
0.258485 0.249072 0.683030
0.239969 -0.217576 -0.655121
0.682320 0.241445 0.215711
-0.695511 -0.685844 -0.217799
-0.209367 -0.180458 0.655378
-0.234779 -0.690654 0.224264
-0.693679 -0.683768 -0.216310
-0.703913 0.206832 -0.211855
0.679568 -0.199988 0.697043
-0.235444 -0.692800 0.224280
-0.693693 -0.684874 -0.217235
0.687518 -0.655361 0.241743
0.678449 -0.200804 0.695965
-0.676129 0.225787 0.664912
-0.682124 -0.225661 0.263344
-0.677326 0.678290 0.218097
-0.673666 0.226893 0.664846
-0.678784 0.678620 0.217315
-0.234564 -0.692374 0.222358
-0.209315 0.658690 0.664375
-0.704223 0.202912 -0.211155
-0.208940 -0.181566 0.655899
-0.675062 0.680147 0.217535
-0.679227 0.679664 0.215751
-0.233907 -0.691895 0.222937
-0.705720 0.206742 -0.209925
0.258827 0.248454 0.683114
-0.695094 -0.684992 -0.218288
0.677931 -0.198719 0.696694
0.209186 -0.678068 -0.219366
0.688213 -0.656580 0.241163
-0.681959 -0.238391 -0.668967
-0.679225 -0.238735 -0.669922
0.238705 -0.218582 -0.654056
-0.673133 0.227279 0.666505
-0.208068 0.658748 0.661099
0.679366 -0.198904 0.695715
-0.680497 -0.237495 -0.670972
-0.677130 0.677345 0.217770
-0.680723 -0.225735 0.262978
0.677293 -0.199137 0.695617
-0.221296 0.631711 -0.222808
0.684845 -0.242621 -0.225865
-0.695847 -0.686210 -0.217715
-0.207081 -0.665789 -0.665060
0.238000 -0.218638 -0.654095
-0.703583 0.205712 -0.210300
-0.680087 -0.226030 0.263877
-0.209413 0.657739 0.663249
-0.207851 0.657371 0.663262
-0.234018 -0.692219 0.221635
0.226062 0.673436 0.181400
0.258785 0.248981 0.683322
0.687079 -0.655031 0.240342
-0.694933 -0.685713 -0.218910
0.211087 0.690060 -0.665717
0.227523 0.671704 0.180872
0.227387 0.674621 0.178821
0.229041 -0.643805 0.655513
0.684543 -0.241422 -0.224980
-0.680114 -0.237736 -0.672058
-0.679024 -0.239048 -0.672216
-0.705284 0.203842 -0.210639
-0.206061 -0.665875 -0.666001
0.686180 -0.243140 -0.224656
0.690148 -0.655681 0.239774
0.663257 0.215120 -0.684184
-0.233112 -0.692535 0.222502
-0.234489 0.202146 -0.669867
0.688515 -0.655352 0.239588
-0.678928 -0.237024 -0.670651
0.260185 0.249512 0.684479
0.259902 0.248256 0.682808
-0.675256 0.228136 0.667531
-0.693707 -0.684624 -0.219812
-0.208810 -0.181088 0.655019
0.683985 -0.240536 -0.224105
0.228980 -0.645727 0.653462
0.227950 0.671537 0.181134
0.227606 -0.645683 0.652764
0.258858 0.248649 0.683124
0.229473 -0.645328 0.656070
-0.211711 -0.180660 0.656533
0.689032 -0.655487 0.240292
0.211515 0.689566 -0.668158
0.677711 -0.198267 0.697600
-0.219935 0.632906 -0.222781
0.686661 -0.242851 -0.226453
-0.673856 0.227408 0.667352
-0.681062 -0.224571 0.262236
-0.204825 -0.663092 -0.666584
-0.235147 -0.690947 0.224100
0.685321 -0.241789 -0.223836
-0.683047 -0.228258 0.261738
0.230126 0.673805 0.180080
0.238125 -0.219530 -0.654318
-0.674365 0.226797 0.663205
-0.679661 -0.238560 -0.671584
-0.706772 0.204296 -0.208918
0.686894 -0.242665 -0.225697
0.226758 -0.644171 0.653429
-0.233761 -0.690900 0.221758
-0.234639 0.203388 -0.671581
0.679883 0.241930 0.217617
0.681405 0.243769 0.217864
0.238767 -0.219729 -0.654356
-0.695231 -0.686085 -0.217829
-0.209272 0.657891 0.664968
-0.222078 0.632770 -0.222894
0.683253 0.241646 0.215381
0.207893 -0.676440 -0.219590
0.655624 0.653399 -0.248658
0.258871 0.248791 0.681435
-0.233607 -0.692865 0.222986
0.661144 0.214040 -0.685413
-0.205757 -0.665215 -0.666717
-0.234268 -0.692956 0.223127
0.680132 -0.197832 0.696438
-0.703768 0.204152 -0.210396
-0.209132 -0.181392 0.656267
-0.680331 -0.238046 -0.670289
0.212833 0.687419 -0.666919
0.228348 -0.644760 0.654650
0.226283 0.673572 0.179920
-0.234811 0.200519 -0.671647
0.228934 0.672366 0.180738
-0.235135 0.203228 -0.672621
-0.678892 -0.236981 -0.670116
0.228484 0.674034 0.182379
-0.202834 -0.666456 -0.665501
-0.233581 0.203003 -0.673021
-0.676685 0.678994 0.218769
-0.680096 -0.237867 -0.670384
-0.210088 -0.180556 0.655204
0.226545 -0.644575 0.657180
-0.681733 -0.224908 0.261985
-0.236615 0.204454 -0.672775
-0.694541 -0.685785 -0.217411
0.227336 -0.643856 0.655023
0.227222 0.673806 0.179439
0.210199 -0.677931 -0.219097
-0.204211 -0.663009 -0.666135
-0.210062 -0.180868 0.656661
-0.680854 -0.225917 0.263259
-0.704927 0.206569 -0.212570
-0.696072 -0.685289 -0.218595
-0.233723 -0.690799 0.221455
0.658133 0.655348 -0.249212
0.684557 -0.241703 -0.223901
-0.704521 0.204577 -0.212351
0.685544 -0.239334 -0.224784
0.238936 -0.218728 -0.651930
-0.693321 -0.684952 -0.217540
0.659786 0.214529 -0.683135
0.211817 0.688432 -0.665657
-0.235523 0.201970 -0.673728
-0.204624 -0.667181 -0.665394
0.259156 0.248382 0.682259
-0.206180 -0.665697 -0.666964
0.228690 0.672671 0.179658
-0.207225 0.656421 0.662168
0.237951 -0.218788 -0.653106
-0.677801 -0.238095 -0.670685
-0.677550 0.679572 0.216864
0.227204 0.673458 0.178024
0.656370 0.653563 -0.248008
0.239086 -0.218755 -0.653290
0.686245 -0.241278 -0.223795
-0.675776 0.226765 0.665787
-0.208693 -0.178821 0.655987
-0.235455 0.202897 -0.672235
0.228380 -0.643882 0.654845
-0.205998 -0.664191 -0.665122
-0.680299 -0.237385 -0.671361
0.228222 0.673667 0.178304
0.213029 0.689475 -0.667108
-0.674073 0.227009 0.665233
0.259034 0.248521 0.682606
0.228682 -0.644676 0.653523
-0.681226 -0.223901 0.261720
-0.223378 0.632577 -0.220844
0.661161 0.214740 -0.686309
-0.674484 0.227738 0.667126
0.228302 -0.645584 0.654137
-0.702149 0.204508 -0.209821
-0.219971 0.632566 -0.220261
-0.208463 -0.182156 0.654495
0.678227 -0.198600 0.695394
0.660320 0.214339 -0.684919
-0.674494 0.228554 0.664175
-0.680616 -0.237488 -0.671010
0.227676 0.673664 0.179090
0.676763 -0.199254 0.696024
0.238779 -0.217792 -0.654743
-0.681058 -0.223931 0.262315
0.686946 -0.242367 -0.226207
-0.233248 -0.692510 0.222947
0.678109 -0.199375 0.698010
0.258459 0.249414 0.683409
-0.221988 0.632003 -0.222926
0.227971 -0.645887 0.654903
-0.705001 0.207530 -0.211235
-0.680245 -0.237965 -0.671557
0.211275 0.687926 -0.670156
0.212979 0.687740 -0.668536
-0.672509 0.227585 0.665325
0.239492 -0.218553 -0.653953
0.238749 -0.217715 -0.654117
-0.694973 -0.685024 -0.217797
0.212265 0.687875 -0.666287
-0.211976 -0.181523 0.656267
-0.208426 0.660711 0.663467
-0.208933 -0.181494 0.656470
-0.209641 -0.180763 0.656211
0.228217 -0.644276 0.654621
0.259662 0.249577 0.684519
-0.680794 -0.224630 0.263049
0.656544 0.653827 -0.248466
0.258949 0.249272 0.684298
-0.678373 0.679002 0.216914
-0.234076 0.202522 -0.670202
0.688209 -0.655534 0.241689
-0.681675 -0.238154 -0.670671
-0.233575 0.202496 -0.671825
-0.206461 -0.664738 -0.667593
-0.207126 -0.664574 -0.664531
-0.680080 -0.237098 -0.670767
0.659416 0.213650 -0.683736
0.209306 -0.676838 -0.219557
-0.204230 -0.665909 -0.666892
0.684876 -0.242827 -0.225509
0.212265 0.689890 -0.666252
0.686303 -0.658641 0.240259
-0.680239 -0.238527 -0.669842
-0.681286 -0.238892 -0.670905
-0.223296 0.631921 -0.221062
