OFF
256 0 0
-0.681335 0.654460 0.196615
-0.683200 -0.207839 0.195062
0.238723 0.658643 -0.673945
0.664201 0.217627 -0.611618
0.239342 0.660471 -0.673033
0.649022 -0.665820 0.259221
-0.684340 -0.209084 0.193756
0.211993 -0.654611 0.671341
-0.204658 0.193389 -0.683426
-0.231676 0.655892 0.644731
0.240889 -0.229363 -0.652870
-0.672083 0.217480 -0.236408
0.682312 0.651589 -0.214461
0.664181 0.216644 -0.612744
0.237267 -0.641719 -0.194356
-0.684620 -0.238831 -0.668819
-0.670738 -0.671634 -0.215403
0.684424 0.649416 -0.214048
0.237958 0.675421 0.195277
-0.671376 0.218316 -0.237447
0.661692 0.217261 -0.612939
-0.670614 0.217505 -0.236898
0.238897 -0.642280 -0.195133
0.684105 0.651629 -0.214248
-0.673120 0.218094 -0.235625
-0.211502 -0.649484 0.199118
0.649703 -0.666785 0.257289
0.240560 -0.228199 -0.653310
0.665780 -0.228451 0.711516
0.236559 -0.640092 -0.193551
0.237988 -0.642176 -0.193406
0.239008 0.674137 0.193956
-0.238276 0.651844 -0.241118
0.680926 0.227737 0.224511
0.665244 -0.228365 0.711512
-0.683472 -0.207608 0.193836
0.647633 -0.667124 0.256957
-0.235982 0.650343 -0.241927
-0.672612 0.216945 -0.235742
0.678504 0.227292 0.223248
0.684690 0.649332 -0.217222
-0.683359 0.653483 0.197907
0.234886 -0.640894 -0.195168
0.679288 0.227363 0.224973
0.663172 0.217892 -0.614189
-0.684528 -0.240625 -0.669574
-0.681208 0.652243 0.197240
-0.234715 0.650298 -0.241678
-0.231738 0.658342 0.642298
-0.203873 -0.673553 -0.666558
0.684316 0.651541 -0.218505
-0.233612 0.651115 -0.239719
0.238730 -0.231751 -0.653342
0.647969 -0.665829 0.257698
0.239744 -0.228165 -0.653510
0.663693 0.217572 -0.613937
0.681503 0.650349 -0.215910
-0.232373 0.654756 0.641830
0.238568 -0.228080 -0.653522
0.665001 -0.228200 0.711043
-0.671830 0.218036 0.632828
0.239996 -0.229244 -0.653573
0.223612 0.278807 0.662022
-0.234276 0.656125 0.642069
-0.204113 0.189019 -0.684177
0.222281 0.278704 0.662709
0.238579 -0.641348 -0.192728
-0.671165 -0.668547 -0.215790
0.682371 0.650130 -0.216348
0.240436 -0.228000 -0.653681
0.663036 0.218577 -0.614325
0.650953 -0.668754 0.258426
0.649650 -0.665233 0.257467
-0.671616 0.219463 0.632906
-0.680645 0.654134 0.195102
-0.670835 -0.669297 -0.216345
-0.202163 -0.672541 -0.666772
-0.681598 0.652660 0.194540
0.240378 -0.229162 -0.651424
0.238456 -0.227834 -0.653410
-0.674062 0.218668 0.633463
-0.682461 0.653040 0.196700
-0.681771 0.654638 0.198484
-0.232103 0.655002 0.642357
0.222995 0.278805 0.662593
0.668485 -0.209216 -0.184018
-0.242420 -0.225715 0.657381
0.223446 0.277075 0.662509
-0.243553 -0.226075 0.657613
-0.242199 -0.225111 0.655571
0.212410 -0.651783 0.671283
0.666921 -0.228680 0.712638
0.679089 0.227993 0.224227
-0.682156 0.652613 0.196448
0.667695 -0.208501 -0.183811
-0.672556 0.217494 -0.236082
0.223377 0.278427 0.660288
0.667709 -0.207555 -0.181921
-0.231197 0.656108 0.642926
0.665329 0.217336 -0.612772
-0.231199 0.656753 0.643000
0.666307 -0.207403 -0.182497
-0.683662 -0.208333 0.194435
0.237249 -0.639247 -0.195289
0.237180 0.673339 0.194681
0.238105 -0.228578 -0.654832
-0.682633 0.653062 0.195691
0.664395 -0.208668 -0.180372
0.236026 0.675790 0.194968
-0.685959 -0.240192 -0.668820
-0.231233 0.655248 0.641845
0.236234 0.658567 -0.671392
0.239473 0.657863 -0.676126
0.225493 0.278393 0.663037
0.237943 0.659613 -0.674389
-0.231389 0.655041 0.640347
0.236330 -0.640007 -0.193359
-0.235999 0.652338 -0.241661
-0.683385 -0.208883 0.195201
-0.234557 0.652148 -0.241260
-0.670422 -0.670910 -0.216195
-0.205379 -0.674515 -0.666345
0.210546 -0.653518 0.673405
0.683310 0.651200 -0.217072
-0.685384 -0.240077 -0.668983
0.236595 0.674082 0.192693
0.240657 0.658794 -0.672914
-0.670213 0.214476 -0.237411
-0.672193 -0.669618 -0.215267
0.240073 -0.227386 -0.651722
0.224202 0.280113 0.661263
-0.670817 -0.671556 -0.216004
-0.236797 0.649439 -0.241191
0.238792 -0.228767 -0.653112
0.238865 0.659053 -0.673726
-0.232255 0.654888 0.642088
-0.671584 0.215560 -0.237195
-0.682143 0.653142 0.196542
0.238431 0.675596 0.193137
0.649741 -0.664387 0.256335
-0.237915 0.651444 -0.240915
0.239883 -0.229939 -0.652172
0.667105 -0.206913 -0.183536
-0.241343 -0.226085 0.656183
0.649913 -0.666526 0.257432
-0.671955 0.216080 -0.237138
-0.681714 0.652504 0.195364
-0.210834 -0.649678 0.200987
0.666943 -0.229690 0.711606
0.224252 0.280441 0.663587
0.663806 0.217260 -0.613989
0.211527 -0.652665 0.671708
-0.210251 -0.649371 0.197260
-0.205143 0.190976 -0.683126
0.236716 0.675248 0.193454
-0.684888 -0.239587 -0.669815
0.665065 -0.229528 0.710387
0.648500 -0.665036 0.256086
0.664680 0.217156 -0.614759
0.650175 -0.666457 0.257924
0.237748 -0.642093 -0.194101
0.665195 -0.226904 0.710999
-0.242757 -0.225185 0.656996
0.211751 -0.653437 0.672154
-0.672395 0.221238 0.633958
0.648712 -0.668629 0.257140
-0.671296 0.219038 0.633129
-0.681008 0.653377 0.197534
0.665427 -0.228519 0.711784
-0.681515 0.652580 0.195484
0.238240 0.674650 0.192901
-0.244773 -0.226842 0.657454
-0.242265 -0.226747 0.656918
-0.685482 -0.208570 0.193989
0.679571 0.228595 0.225282
0.682156 0.651380 -0.215906
0.238098 0.672910 0.194001
-0.671649 -0.671058 -0.214343
0.237254 -0.641434 -0.193466
-0.671740 0.219672 0.633266
-0.671825 0.217762 0.631156
0.236463 -0.640767 -0.193091
-0.203587 -0.673249 -0.666523
-0.241621 -0.226569 0.657302
-0.671605 0.218022 0.635157
-0.206013 0.190250 -0.683601
0.678191 0.227661 0.224532
-0.208790 -0.651487 0.199836
-0.236760 0.651104 -0.240958
0.224340 0.277156 0.661481
0.663165 -0.228605 0.711755
0.648965 -0.666995 0.258454
-0.681987 0.653168 0.196960
0.240719 0.658865 -0.672659
-0.241150 -0.226055 0.656572
-0.674220 0.217112 -0.236766
0.236212 0.674437 0.193458
0.666120 -0.207643 -0.182332
-0.203802 0.190522 -0.684599
-0.668968 -0.671508 -0.215773
-0.235728 0.652205 -0.240455
0.662833 0.218300 -0.612779
-0.211500 -0.649643 0.197687
0.678165 0.227757 0.222950
-0.671389 0.217490 -0.237585
0.682434 0.650921 -0.217193
0.239974 0.658633 -0.672809
0.235444 0.673766 0.194389
-0.204154 -0.672957 -0.667669
0.682540 0.650920 -0.215441
-0.685624 -0.208086 0.193802
-0.204758 0.188792 -0.682579
0.237396 -0.641328 -0.192919
-0.237476 0.649793 -0.241096
0.663987 0.217197 -0.612731
-0.236235 0.651280 -0.240616
-0.243702 -0.228077 0.656997
0.666313 0.217355 -0.612309
0.648490 -0.666990 0.257325
0.239473 0.659789 -0.673244
0.680567 0.227306 0.225860
0.238810 -0.227579 -0.654531
-0.210283 -0.650661 0.199749
-0.671823 0.218843 0.635088
0.211485 -0.654882 0.670810
0.663534 -0.227876 0.712974
-0.680789 0.653325 0.195184
0.239614 0.659586 -0.673720
-0.673095 0.220638 0.632365
-0.672544 0.218591 -0.234695
-0.235849 0.651601 -0.241680
-0.236951 0.652085 -0.241809
-0.211052 -0.649437 0.198875
-0.210374 -0.647867 0.199012
0.239997 0.658005 -0.672450
-0.682097 0.652830 0.196514
0.211262 -0.651138 0.672284
-0.203956 -0.674061 -0.668717
-0.672445 0.220166 -0.236168
-0.236092 0.651212 -0.242251
0.236520 -0.640692 -0.195187
0.682249 0.650645 -0.214833
0.237632 0.677338 0.195045
-0.681218 -0.210137 0.194945
0.668354 -0.208114 -0.181963
0.211480 -0.652811 0.670314
-0.671081 -0.671513 -0.214579
0.646806 -0.665207 0.258640
0.237068 -0.639568 -0.193511
0.665403 0.218473 -0.614286
-0.673117 0.218758 0.633951
0.236773 0.673826 0.194497
0.241113 -0.229460 -0.653724
0.664521 -0.227134 0.711720
0.663804 0.217303 -0.611564
-0.209196 -0.649212 0.199110
