OFF
256 0 0
-0.521573 0.848202 -0.006205
-0.518396 0.845112 -0.004532
0.295560 0.389066 -0.435855
-0.097327 -0.419692 0.862455
-0.519517 0.846543 -0.005067
-0.540785 -0.438399 -0.406220
0.733028 -0.407432 -0.025602
0.720133 0.002620 0.424581
0.332916 -0.008742 -0.865555
-0.531747 0.422650 -0.397671
0.751346 -0.000714 -0.455059
-0.538735 -0.440384 -0.407199
-0.520701 0.847947 -0.006580
-0.103418 0.432341 0.870502
-0.522243 -0.429583 0.423269
-0.526630 -0.017968 -0.851865
-0.522115 -0.014680 0.835100
0.350778 -0.823398 -0.000649
0.296286 0.391720 -0.438335
-0.095610 -0.838434 -0.404676
-0.523987 -0.017401 -0.850670
0.297381 0.390563 -0.437789
-0.532067 0.422662 -0.398919
-0.520378 0.847889 -0.005436
-0.105084 0.428148 -0.853216
0.295200 0.419002 0.431636
-0.519443 0.848709 -0.006277
-0.088796 -0.849252 0.430676
0.749760 0.000718 -0.452867
-0.089536 -0.847243 0.429968
-0.109869 0.846790 -0.457191
-0.522264 -0.015789 0.836326
-0.106173 0.427667 -0.851728
-0.095283 -0.836965 -0.402886
0.295986 0.390331 -0.435864
-0.525391 -0.017050 -0.851142
-0.099031 -0.418414 0.864149
-0.097302 -0.433450 -0.870000
0.295382 0.389415 -0.437340
0.751890 0.000418 -0.455519
-0.098923 -0.418072 0.863446
0.732049 -0.407852 -0.024355
0.720896 0.000431 0.423141
-0.088904 -0.846494 0.430239
-0.532570 0.423831 -0.396230
-0.537629 -0.439841 -0.406059
-0.520179 0.847596 -0.005449
-0.535585 -0.809939 0.004934
0.732467 -0.407126 -0.025210
0.296940 0.389644 -0.436109
0.720040 0.422479 -0.001008
-0.090175 -0.848298 0.429665
0.321141 0.027188 0.855778
-0.523467 -0.430595 0.424846
0.750085 -0.001276 -0.456183
0.338416 -0.438154 0.435391
-0.491123 -0.021830 0.020510
-0.090328 -0.850171 0.431102
-0.085545 0.869653 0.443833
-0.515389 0.426161 0.411268
-0.526140 -0.016692 -0.851077
0.352184 -0.823876 -0.000378
0.294993 0.420524 0.433167
-0.518660 0.849210 -0.005638
-0.520260 -0.014756 0.834849
-0.521129 -0.014741 0.835205
-0.089680 -0.848388 0.430039
0.732218 -0.407143 -0.022750
-0.097878 -0.433694 -0.869125
0.750619 0.001054 -0.455435
0.722234 0.003240 0.424264
-0.084397 0.867634 0.441671
-0.529980 0.422613 -0.396570
-0.539240 -0.441888 -0.408276
0.296860 0.419742 0.430418
0.721583 0.001478 0.425656
-0.084449 0.869577 0.442498
-0.086309 0.866969 0.441654
-0.095538 -0.837397 -0.405727
0.296986 0.389925 -0.437192
0.721180 0.000954 0.424903
0.719394 0.421433 -0.003254
-0.110297 0.848851 -0.458819
-0.086134 0.866809 0.443738
-0.524592 -0.429706 0.422527
0.333410 -0.431008 -0.439744
0.732534 -0.406449 -0.025709
0.720091 0.001555 0.424081
-0.537869 -0.808250 0.001308
-0.085833 0.868719 0.443643
-0.096657 -0.837189 -0.402870
0.749727 -0.000307 -0.454827
-0.094436 -0.838235 -0.404210
-0.536900 -0.810071 0.002716
-0.097759 -0.434752 -0.869109
-0.537929 -0.811657 0.003523
0.295775 0.419221 0.432859
0.295827 0.388717 -0.437180
-0.490683 -0.022133 0.021842
0.751191 -0.000271 -0.455023
-0.103423 0.430693 0.869638
-0.531675 0.423932 -0.396571
-0.525614 -0.432347 0.423811
-0.522421 -0.014410 0.835044
0.332346 -0.430848 -0.439145
0.321727 0.027891 0.856361
-0.520772 -0.014882 0.835006
0.351267 -0.823000 0.000946
0.293822 0.852253 0.012543
-0.085644 0.867772 0.442495
-0.523899 -0.431290 0.423915
-0.098280 -0.418502 0.864561
-0.523300 -0.431022 0.423154
-0.537486 -0.809146 0.000696
0.721074 0.002402 0.425131
0.719381 0.422203 -0.002373
-0.491161 -0.021799 0.020100
0.750845 0.000494 -0.454816
-0.103567 0.430618 0.871012
0.719317 0.421330 -0.001250
-0.538145 -0.441037 -0.405293
-0.491255 -0.020761 0.021008
-0.112669 0.847883 -0.457317
0.333153 -0.006743 -0.865781
0.296301 0.421626 0.430747
-0.104012 0.427748 -0.852556
0.751890 0.000118 -0.455235
-0.084697 0.867756 0.442309
-0.090473 -0.849593 0.429769
0.733576 -0.406758 -0.024411
-0.104102 0.431263 0.871707
-0.490827 -0.020850 0.020994
-0.087713 -0.847246 0.431471
0.295024 0.852241 0.014703
-0.098301 -0.418711 0.863316
-0.525135 -0.016611 -0.851226
-0.524390 -0.017177 -0.849152
-0.111623 0.845966 -0.458670
0.719936 0.422363 -0.002726
0.294175 0.417568 0.434480
-0.536561 -0.439808 -0.406063
-0.520970 -0.015771 0.837301
-0.516706 0.425680 0.412188
0.297138 0.389755 -0.434625
-0.538872 -0.810572 0.003300
-0.088164 -0.848428 0.430069
-0.519210 0.846825 -0.004805
0.337852 -0.439932 0.435177
-0.518722 0.847004 -0.004855
-0.096475 -0.837051 -0.401228
-0.099081 -0.418551 0.862886
0.751177 0.000678 -0.453939
0.720247 0.002700 0.425570
-0.105462 0.425587 -0.852298
-0.094689 -0.838606 -0.402412
-0.537586 -0.439536 -0.406384
-0.532177 0.424644 -0.395950
-0.102994 0.430971 0.870309
-0.523751 -0.431285 0.423458
0.732459 -0.405052 -0.023039
0.334256 -0.006816 -0.864334
-0.524583 -0.018245 -0.850577
-0.519219 0.846287 -0.005689
0.333125 -0.431380 -0.440108
0.337464 -0.440441 0.434807
-0.539528 -0.440437 -0.405718
-0.539288 -0.439049 -0.408285
-0.090398 -0.848311 0.428951
0.292320 0.850589 0.013983
-0.106404 0.427046 -0.852525
-0.518910 0.847886 -0.004846
0.295292 0.391828 -0.438825
-0.525268 -0.017320 -0.848584
-0.532717 0.423649 -0.395711
0.333058 -0.431815 -0.439887
0.732790 -0.405510 -0.023611
-0.526476 -0.018051 -0.850661
-0.089325 -0.847910 0.429773
-0.102813 0.426686 -0.851599
0.296179 0.389698 -0.436722
0.320937 0.027507 0.856327
-0.095657 -0.838706 -0.402333
0.297204 0.389277 -0.437790
0.334126 -0.008899 -0.863974
-0.523161 -0.431038 0.424137
0.296893 0.390564 -0.435850
-0.094273 -0.435698 -0.867503
-0.523324 -0.432014 0.424296
0.718456 0.422577 -0.003009
0.339882 -0.438443 0.436311
0.321090 0.027429 0.856873
-0.537535 -0.439877 -0.407723
-0.539268 -0.440449 -0.406368
-0.098772 -0.417820 0.865025
-0.096655 -0.417668 0.865784
-0.490717 -0.021585 0.022082
0.719865 0.423159 -0.002669
-0.088559 -0.848852 0.429804
-0.534698 -0.809243 0.002706
0.732611 -0.404973 -0.027688
-0.527088 -0.017240 -0.852008
-0.094670 -0.434008 -0.869653
0.294985 0.852221 0.015880
-0.105641 0.427088 -0.853644
-0.540294 -0.439253 -0.407974
0.334287 -0.008803 -0.864004
0.332832 -0.431485 -0.440468
0.333204 -0.430811 -0.440655
0.332966 -0.007752 -0.865040
-0.523959 -0.430126 0.423606
-0.098251 -0.434966 -0.868350
-0.518774 0.846680 -0.005502
-0.538689 -0.809092 0.002247
-0.103271 0.433470 0.869926
-0.540113 -0.440883 -0.406251
-0.085467 0.866438 0.444416
-0.099134 -0.434490 -0.868669
0.350239 -0.823443 -0.000594
-0.096667 -0.433717 -0.868614
0.719493 0.001586 0.423550
-0.096371 -0.419267 0.863488
0.352861 -0.825285 0.000906
-0.539011 -0.439564 -0.404904
-0.097163 -0.838221 -0.403747
-0.520145 0.848767 -0.004735
0.295283 0.419679 0.431734
0.748563 0.000940 -0.453539
-0.112437 0.846546 -0.458302
0.722759 0.002940 0.425104
-0.537320 -0.810530 0.000848
-0.098492 -0.418722 0.863219
0.296949 0.389704 -0.437201
-0.103064 0.432682 0.868192
-0.102554 0.430600 0.869538
-0.522751 -0.015638 0.835881
-0.518360 0.847351 -0.006942
-0.519880 -0.013943 0.835561
0.298593 0.388235 -0.438008
-0.537408 -0.439919 -0.408069
0.334030 -0.429239 -0.440540
0.323390 0.029442 0.854725
-0.094401 -0.838611 -0.403575
0.719618 0.420409 -0.000650
-0.097741 -0.416949 0.865464
-0.517638 0.847350 -0.004776
0.732324 -0.406848 -0.024357
-0.110688 0.848342 -0.457823
0.721108 0.420377 -0.002949
-0.524942 -0.017621 -0.851960
-0.085170 0.868244 0.443882
-0.537766 -0.439755 -0.406115
-0.519327 0.848265 -0.002955
0.295618 0.418583 0.433721
-0.104277 0.432838 0.869054
0.322787 0.028506 0.856137
-0.539657 -0.439321 -0.408317
