OFF
256 0 0
0.153134 0.621536 0.331386
0.151463 -0.540258 0.716484
0.538713 -0.152851 0.720111
-0.234715 -0.539779 -0.441703
0.538609 -0.153169 -0.054225
-0.621026 0.621118 0.331450
0.151270 -0.538186 -0.055353
-0.621801 -0.150517 0.331687
0.540533 0.235873 -0.440339
0.539942 0.235600 -0.443365
-0.235472 0.235546 -0.443310
-0.620235 -0.152453 0.330592
0.151573 -0.539951 -0.055480
-0.622736 -0.537752 -0.052927
0.536742 0.622926 -0.055489
0.152063 0.233561 -0.828032
-0.621656 0.235173 -0.055677
0.539021 -0.537454 -0.443330
0.150579 0.235326 -0.829956
0.538880 -0.538918 0.332067
0.151732 -0.537688 0.717607
-0.235490 -0.539078 0.331016
0.153184 0.234134 -0.829171
0.538257 0.234531 -0.445460
-0.235286 -0.151990 0.716343
0.537187 -0.151610 -0.828877
-0.621261 -0.152008 0.331412
-0.235413 -0.152967 -0.829066
0.537218 0.234973 -0.440992
-0.622788 -0.152447 -0.442617
0.539050 -0.538661 0.331645
0.538230 -0.153472 -0.055692
0.539433 -0.153015 -0.828134
0.537994 -0.154647 0.720783
0.539285 -0.150746 -0.827889
-0.622840 0.621018 0.332389
0.152211 -0.535688 0.717210
0.540234 -0.539567 -0.440316
-0.235871 -0.152809 -0.828675
0.539198 -0.151503 -0.053950
0.152193 -0.539725 -0.056834
0.538227 -0.151170 -0.054543
0.536598 -0.539296 -0.443275
0.151575 0.234138 0.717956
0.539294 -0.152514 0.718609
-0.233837 -0.537002 0.331230
-0.234461 -0.151293 -0.829615
0.537568 -0.152792 -0.054483
0.538950 -0.539576 -0.443126
0.152328 -0.537381 0.719492
-0.620734 0.235433 0.717758
0.538571 0.237038 0.331524
0.152106 0.234577 0.717797
-0.620998 -0.537436 -0.055189
-0.621198 0.622375 0.331280
0.538384 -0.151436 -0.828302
0.152309 -0.539587 -0.827791
0.538827 -0.152983 -0.830263
0.539707 -0.153267 0.721001
-0.233883 0.621119 0.720092
0.151253 -0.538217 -0.828640
0.538461 -0.153757 -0.828487
-0.235110 -0.538564 -0.441449
0.151341 -0.537106 -0.828166
0.538958 -0.539384 -0.441436
-0.236025 -0.538125 0.330815
-0.235354 -0.538155 0.330545
0.152112 0.622596 -0.443010
0.152248 0.622760 0.331800
-0.233311 0.234155 -0.443490
0.150626 -0.539027 -0.828173
0.152463 0.622587 0.330577
-0.233990 0.622218 0.719039
0.151131 0.620866 -0.442234
-0.621880 0.234323 -0.053456
-0.235240 0.621573 -0.054621
-0.233417 -0.538580 0.330932
0.538710 -0.538156 -0.441623
0.151692 0.235703 -0.828510
-0.619612 0.622643 0.331984
-0.619406 -0.153035 -0.440701
-0.234971 -0.538113 0.328157
-0.622294 0.620176 0.332496
0.152851 -0.538165 0.717790
-0.234692 -0.538853 0.330828
-0.234075 -0.152319 0.717996
-0.236420 0.234763 -0.441381
0.538815 0.236465 -0.443107
-0.234373 -0.152229 0.720680
-0.622312 -0.150905 -0.442134
0.539016 -0.152252 -0.054244
0.150691 0.235636 0.718106
-0.235547 0.620680 0.718183
0.537189 0.235439 0.331800
0.150765 0.232712 0.719747
0.538881 0.234436 -0.441826
-0.233686 -0.540660 -0.443364
0.537767 0.621573 -0.056778
-0.621870 0.235531 -0.056542
0.151492 0.622423 -0.441435
-0.234885 0.234312 -0.440917
-0.621679 0.233057 0.717468
-0.620462 0.235324 -0.055527
0.538183 0.235303 0.331596
-0.235270 0.621975 -0.056252
0.536959 0.622876 -0.057187
-0.235524 -0.152848 -0.829267
-0.234236 -0.150403 -0.828076
-0.619740 -0.152628 0.330682
-0.620517 -0.538506 -0.055272
-0.236351 -0.537293 -0.442832
-0.622922 -0.151164 -0.441315
0.539076 -0.540734 0.331074
-0.234025 0.621323 0.718392
-0.235903 0.621757 0.718592
0.537844 0.233846 -0.440964
-0.234523 -0.539194 -0.442267
-0.622694 -0.153893 -0.441150
0.539760 0.623469 -0.054687
-0.621604 -0.152931 -0.441859
-0.622041 -0.154328 -0.442461
-0.233623 -0.539785 -0.443452
-0.234540 0.234099 -0.442434
0.539865 -0.153452 0.717658
-0.621766 0.621037 0.331420
0.538273 -0.153842 0.717136
0.538395 0.621308 -0.055043
0.540242 0.621190 -0.055292
0.151733 0.621860 -0.441862
0.151120 -0.538942 -0.828102
-0.620957 -0.537894 -0.054575
-0.234225 -0.150999 -0.830515
0.151671 -0.540156 0.717755
0.151885 0.623054 0.332852
0.540223 0.620474 -0.055779
-0.622206 0.622088 0.330865
-0.622901 -0.152600 -0.441433
0.150791 0.620799 0.332403
-0.234956 0.235095 -0.440454
0.152774 0.235552 -0.828116
-0.621144 -0.538856 -0.056251
0.150221 0.234790 -0.829659
0.150901 0.620645 0.332406
0.539180 -0.151993 -0.054877
-0.233296 -0.152526 0.718454
-0.234929 0.622520 -0.055054
0.536667 -0.152378 0.718820
-0.233396 0.621007 0.717361
-0.621513 0.620717 0.332801
0.151289 0.233463 -0.829356
-0.234069 0.621834 -0.055629
-0.233242 0.622143 0.717819
-0.621650 0.621376 0.331881
-0.235672 0.621872 -0.056181
0.151826 0.237011 -0.828038
0.538708 0.235159 -0.443401
-0.232860 0.621229 -0.055441
0.150308 0.622502 -0.443538
0.538629 -0.151051 0.718919
0.152339 0.621784 -0.441304
-0.235411 0.234454 -0.442331
-0.622822 0.622270 0.331738
-0.234069 -0.539773 -0.442158
-0.234469 0.233285 -0.442688
0.536667 0.235489 -0.440659
-0.235563 -0.538949 -0.442867
-0.234113 -0.539378 -0.442102
-0.623213 -0.153249 -0.441259
-0.232828 0.234316 -0.441869
0.538067 0.621687 -0.054553
-0.234855 0.620715 0.718791
-0.621253 0.621676 0.330493
-0.620124 -0.540329 -0.055213
0.539507 -0.153224 -0.056935
0.538786 -0.152175 0.717355
0.537091 -0.538185 0.329728
-0.620521 -0.153176 0.331034
0.152711 0.621569 0.330614
0.538384 -0.152265 0.719751
0.539597 0.234104 0.332779
0.536844 0.232262 0.329464
0.151451 0.235893 -0.829926
0.152272 -0.540494 -0.828994
-0.234801 -0.152900 -0.829214
-0.624086 -0.540681 -0.053374
0.152553 0.235115 -0.829110
-0.622673 -0.152082 0.331400
-0.234084 -0.151095 0.719940
0.537934 -0.153924 0.717497
-0.234369 0.623382 -0.055379
0.151599 0.620725 -0.441417
-0.235773 -0.151401 -0.829832
0.152645 -0.538958 -0.055285
0.151345 -0.539821 -0.054831
-0.623153 0.622588 0.331513
0.540155 -0.150876 -0.827087
0.153605 0.234097 -0.828960
-0.620225 -0.152969 -0.442013
-0.622490 -0.152265 0.334010
-0.232794 -0.538000 -0.440311
-0.620938 -0.537645 -0.055471
0.151321 -0.541087 -0.827150
0.539567 -0.537331 0.329754
-0.234573 -0.151443 0.719894
0.538436 -0.539472 0.331034
0.153191 0.234573 -0.828127
-0.234700 0.622104 -0.055406
-0.235263 0.622046 -0.055166
0.152188 0.235781 -0.828532
0.151337 0.619891 -0.440386
-0.234372 -0.539269 0.333691
-0.621153 0.235053 -0.053681
0.152215 0.619545 0.332713
-0.233183 0.235031 -0.441162
0.151716 0.235378 0.717663
-0.234106 0.234584 -0.441795
0.539510 -0.152297 0.718574
-0.621909 -0.538603 -0.055691
0.151639 0.621024 0.331778
0.151005 0.234016 -0.830153
0.539375 -0.152255 -0.829604
0.150048 -0.538710 0.718574
0.538542 -0.152909 -0.055022
-0.234417 -0.537722 0.331235
-0.233883 -0.538196 -0.440974
0.537989 0.234959 0.329914
-0.233248 -0.540086 -0.442561
-0.235122 -0.539938 -0.441512
-0.235025 0.621036 0.718014
0.151848 -0.538892 -0.828401
-0.621392 -0.536657 -0.056706
-0.236480 -0.151851 0.718718
-0.623111 -0.151588 0.332589
0.150569 0.622128 -0.440968
0.149421 -0.538992 -0.828941
0.151185 0.621357 0.331368
-0.234371 0.621607 -0.055037
-0.623644 -0.152107 -0.440369
0.538031 0.235077 -0.443392
-0.235548 -0.538563 0.331939
0.150811 -0.537604 -0.054588
-0.620811 0.234545 -0.056080
-0.235110 -0.540189 -0.441683
0.151460 -0.538384 -0.827924
0.152363 -0.538689 0.716956
-0.234835 0.622131 -0.055582
0.153663 -0.538059 0.717652
-0.622663 -0.152412 -0.441368
0.151552 0.620059 0.330358
-0.233334 -0.151572 0.718452
-0.620379 0.621108 0.330127
0.149148 0.621214 -0.441726
0.538998 0.233581 -0.441147
0.151602 -0.537428 -0.828924
-0.236272 -0.538438 0.330499
-0.622642 -0.150858 -0.443242
