OFF
256 0 0
0.156017 0.596377 0.338408
0.153882 -0.518693 -0.027620
-0.603055 0.223928 0.701042
-0.611993 -0.116242 0.322485
-0.232093 0.617874 0.703284
0.516904 -0.146321 -0.807636
0.512664 -0.128781 0.700887
-0.204098 -0.515290 -0.430303
0.518047 0.217289 0.321157
-0.222018 -0.164234 -0.807729
-0.612164 0.599114 0.327469
-0.242758 -0.144292 0.682763
-0.251493 -0.520005 0.319315
0.510227 -0.127726 0.700978
-0.231076 0.618977 0.702907
-0.603451 0.225190 0.700385
0.139512 0.226548 0.718242
-0.604271 0.225629 0.701394
0.166997 0.595046 -0.448131
-0.230959 0.615600 0.705078
0.167910 0.593970 -0.446757
0.541499 0.222384 -0.407198
-0.582511 -0.540966 -0.074263
-0.593888 -0.160032 -0.434339
-0.229579 0.615581 0.703609
0.516175 -0.517633 0.323812
-0.593156 -0.157778 -0.437825
-0.248878 -0.519991 0.319946
-0.582248 -0.538881 -0.074456
0.511750 -0.127923 0.701663
-0.611817 0.225973 -0.069871
0.156116 0.597075 0.336346
0.541837 0.221751 -0.405809
0.140459 0.227409 0.719575
-0.603849 0.223796 0.701138
0.140340 0.227614 0.717765
-0.614027 0.599660 0.325011
0.517664 -0.146318 -0.806371
-0.204510 -0.518075 -0.430996
-0.250501 -0.519390 0.317638
-0.243324 -0.145335 0.682123
-0.203976 -0.516563 -0.430843
0.154968 0.233397 -0.812670
0.506396 0.615135 -0.050931
0.138868 0.226577 0.716307
-0.223576 -0.164933 -0.805366
-0.205698 -0.518556 -0.430144
-0.230894 0.615196 0.704690
0.154011 0.232993 -0.813514
0.510278 -0.129117 0.702671
-0.231992 0.616066 0.702605
-0.222053 0.586067 -0.062797
-0.221826 0.586197 -0.064062
-0.612200 -0.113543 0.322670
0.539834 0.223583 -0.408290
-0.614462 0.598550 0.327966
0.138168 0.228912 0.718025
0.510843 -0.128327 0.700935
-0.610379 0.226046 -0.069283
0.152355 -0.518701 -0.026169
0.151097 -0.518239 -0.026458
-0.591571 -0.161603 -0.436223
0.515612 -0.145551 -0.034620
0.146480 -0.529436 -0.834771
0.540055 0.222359 -0.406308
-0.582648 -0.539351 -0.072906
-0.594047 -0.158538 -0.436820
0.156567 0.597760 0.336911
-0.248658 -0.520987 0.321030
-0.221629 0.585438 -0.063932
0.518651 -0.146840 -0.809894
-0.609084 0.223771 -0.072112
0.515915 -0.517250 0.324249
0.506772 0.614428 -0.050736
-0.608087 0.225828 -0.069803
0.144380 -0.528810 -0.834947
0.508445 0.613667 -0.052475
-0.221861 0.587860 -0.063134
-0.612796 0.598062 0.327124
0.510878 -0.129121 0.699606
-0.613458 0.597609 0.327288
-0.240796 -0.144623 0.682437
-0.581909 -0.538908 -0.074477
0.507952 -0.521069 -0.422357
0.519868 -0.145842 -0.808469
0.515033 -0.143902 -0.034703
-0.222398 0.588097 -0.062430
-0.242164 -0.142632 0.681093
0.508692 -0.521870 -0.423525
0.146486 -0.529574 -0.832875
-0.613285 -0.114500 0.322007
0.509984 -0.128656 0.701686
-0.204461 -0.517021 -0.429886
0.141162 0.228277 0.719417
0.507279 -0.520897 -0.421834
-0.220532 0.226348 -0.441142
-0.231221 0.617071 0.701968
-0.223199 0.586980 -0.063603
0.158088 -0.513816 0.710883
-0.251196 -0.522241 0.318372
0.150962 -0.519211 -0.025768
-0.231225 0.614379 0.703884
0.513490 -0.518167 0.324932
0.539845 0.222895 -0.405878
-0.583373 -0.539058 -0.072919
0.510879 -0.130474 0.701138
-0.612706 0.598021 0.329308
-0.220593 -0.164240 -0.804783
-0.231783 0.615080 0.704557
-0.581690 -0.537682 -0.072927
-0.231564 0.616186 0.704905
-0.222505 0.223042 -0.442308
0.514875 -0.145548 -0.035686
-0.604246 0.225584 0.702222
-0.592048 -0.158046 -0.439278
-0.614480 0.599989 0.327104
0.152435 -0.521538 -0.027121
-0.611721 -0.115334 0.323271
0.168206 0.594324 -0.449693
0.540498 0.223892 -0.406523
-0.603497 0.222839 0.701002
-0.611527 -0.113797 0.322956
-0.610528 -0.113771 0.322050
0.144216 -0.529230 -0.837497
-0.222837 -0.161709 -0.804266
0.510568 -0.128008 0.701887
0.540831 0.222747 -0.405127
0.507020 0.614854 -0.049865
0.160258 -0.513721 0.711579
-0.250634 -0.521174 0.318980
-0.592190 -0.159668 -0.437688
0.166428 0.593681 -0.448099
0.146663 -0.528219 -0.836086
-0.223145 0.587465 -0.064217
0.167174 0.594495 -0.448861
0.144070 0.228337 0.717090
-0.206056 -0.517624 -0.429844
-0.591107 -0.158908 -0.438754
0.164286 0.593495 -0.447758
-0.223086 0.587969 -0.063778
-0.239701 -0.144914 0.681807
0.514641 -0.516339 0.326832
0.154714 0.596693 0.336201
0.514411 -0.516992 0.323672
-0.591901 -0.159141 -0.437402
0.510737 -0.127882 0.701089
0.517792 0.217873 0.322543
0.540016 0.223553 -0.405951
-0.222273 0.588476 -0.064565
0.157411 -0.514383 0.709651
-0.224519 -0.164347 -0.804781
-0.204228 -0.517232 -0.428359
-0.250427 -0.520778 0.320862
-0.248655 -0.518745 0.317548
-0.241114 -0.144763 0.681435
0.140104 0.227012 0.716366
-0.221663 0.223203 -0.441743
-0.249593 -0.520917 0.319109
0.146577 -0.530823 -0.835783
0.514618 -0.517655 0.325406
0.511150 -0.128961 0.701515
0.540018 0.223317 -0.404978
0.154494 0.229810 -0.812600
-0.223835 -0.164499 -0.804132
0.518435 -0.145310 -0.808325
-0.611065 0.226994 -0.070805
-0.222859 -0.162159 -0.806293
0.540500 0.223603 -0.405426
0.516105 -0.515327 0.325069
0.516069 -0.146654 -0.032799
-0.591302 -0.159535 -0.435480
0.137638 0.227422 0.714897
-0.221577 0.221689 -0.443296
-0.241268 -0.144180 0.682022
-0.223268 -0.162447 -0.806899
0.158599 -0.514910 0.710044
0.153560 0.230190 -0.814043
0.137964 0.226999 0.717003
0.519416 -0.146597 -0.808985
0.511864 -0.129011 0.700606
-0.609570 0.227430 -0.070884
-0.233093 0.615356 0.703552
0.509664 -0.521352 -0.421551
-0.230802 0.615533 0.704210
0.155884 0.596311 0.336140
-0.241466 -0.144139 0.683366
0.158458 -0.513611 0.708886
-0.224276 -0.164000 -0.805111
0.155082 0.596103 0.337343
0.516436 -0.518168 0.324281
-0.603845 0.226350 0.700236
0.165409 0.592478 -0.449579
0.517388 0.216770 0.319950
-0.581693 -0.539009 -0.071915
0.139813 0.228694 0.718327
0.518016 0.217894 0.319136
-0.582349 -0.539646 -0.071801
-0.582000 -0.539019 -0.074379
0.518757 0.216041 0.319213
0.146452 -0.528514 -0.835456
0.518935 0.217991 0.320728
0.509398 -0.520267 -0.422746
0.541609 0.223934 -0.405181
-0.231411 0.618835 0.704575
0.168230 0.593523 -0.447989
-0.611766 0.224893 -0.068886
0.153005 0.230539 -0.813558
-0.230771 0.615908 0.703091
0.155665 0.596841 0.338990
-0.242814 -0.143664 0.683411
-0.592199 -0.160493 -0.436251
0.541508 0.222155 -0.406340
0.514855 -0.144432 -0.034601
-0.612119 0.600710 0.328843
-0.582328 -0.539170 -0.072838
0.513342 -0.129249 0.701393
0.507460 0.613793 -0.050002
-0.231109 0.615580 0.704426
0.157802 -0.513201 0.708776
-0.203290 -0.516702 -0.430045
-0.613186 0.597581 0.328543
-0.204785 -0.517396 -0.428814
0.151814 -0.519961 -0.026872
0.514451 -0.144120 -0.035199
-0.224311 -0.164438 -0.806678
0.138316 0.225653 0.718682
0.518930 -0.147621 -0.809580
0.153200 -0.519890 -0.028372
-0.223067 -0.165490 -0.806753
0.517568 -0.145779 -0.807512
0.514036 -0.517841 0.323784
0.519260 0.219250 0.322053
0.153366 -0.519658 -0.025762
0.512794 -0.144337 -0.034972
-0.592125 -0.158718 -0.436922
-0.581202 -0.539295 -0.074874
0.152434 -0.518973 -0.027222
-0.613412 -0.116169 0.321556
0.514042 -0.517351 0.322961
0.138909 0.226754 0.716236
0.517969 0.217748 0.320995
0.512198 -0.145854 -0.034570
0.540110 0.221970 -0.405464
0.159214 -0.513294 0.708638
-0.582298 -0.538829 -0.071838
0.540455 0.223511 -0.406171
-0.609778 -0.114567 0.323440
-0.221828 0.588386 -0.063134
-0.580938 -0.538916 -0.073232
0.510335 -0.129609 0.700006
0.151810 -0.518901 -0.026072
0.153442 0.229663 -0.812567
0.145150 -0.528653 -0.836282
0.155302 0.595737 0.338636
0.514864 -0.516748 0.323973
-0.601784 0.226509 0.700104
