OFF
256 0 0
-0.215735 -0.520968 -0.449141
-0.623687 -0.520690 -0.033229
-0.253162 0.220378 -0.448178
-0.251961 0.220436 -0.448314
-0.587008 -0.125777 0.318153
0.546922 0.605869 -0.049900
-0.223503 0.601413 -0.056158
-0.215166 -0.520929 -0.447516
0.144263 -0.510728 0.697339
-0.633085 -0.165953 -0.411561
0.523630 0.236264 -0.407470
-0.228480 -0.514503 0.315492
-0.237127 -0.144445 0.719782
-0.238975 -0.143882 0.721475
0.490212 -0.152183 -0.043770
-0.622199 -0.522403 -0.033197
0.535589 0.205648 0.320977
-0.237244 -0.142397 0.718991
0.490882 -0.152594 -0.043984
-0.614307 0.228494 0.693768
0.161248 -0.545687 -0.821090
0.525394 -0.526771 -0.453350
0.161274 0.612557 -0.434382
0.535728 0.206068 0.324068
0.524296 0.234777 -0.409463
0.511019 -0.143801 -0.807595
0.140086 0.604639 0.329613
-0.236513 -0.144035 0.720255
0.129584 -0.522508 -0.061543
-0.586993 -0.125725 0.318154
-0.224568 -0.133781 -0.818425
-0.253222 0.220533 -0.449919
-0.613307 0.229958 0.691471
0.544597 0.603761 -0.049912
0.524919 0.233327 -0.405444
0.155028 0.225631 -0.834740
-0.222881 -0.131402 -0.817419
0.171736 0.218346 0.720889
0.537893 -0.147636 0.703762
-0.586223 -0.123352 0.317268
-0.622031 -0.521179 -0.032496
0.141171 0.602797 0.328144
-0.224723 0.601013 -0.057315
-0.224316 -0.132629 -0.818995
-0.633676 -0.165604 -0.411281
-0.632770 -0.166358 -0.411503
-0.223340 0.601700 -0.056705
0.523392 -0.527620 -0.450840
0.161687 0.611037 -0.433986
-0.633377 -0.164745 -0.411852
-0.222606 0.601376 -0.057673
-0.211183 0.598740 0.723605
-0.633439 -0.166958 -0.411878
0.140669 0.603580 0.327657
0.153315 0.226893 -0.834521
0.510985 -0.529346 0.323440
-0.211000 0.599716 0.726224
-0.238084 -0.143043 0.719638
0.140022 0.603380 0.329211
-0.221701 0.601417 -0.056277
0.141255 0.604726 0.330635
0.154887 0.225612 -0.833959
0.512005 -0.139708 -0.811428
0.160314 0.613383 -0.434489
0.523421 0.233169 -0.405044
0.163172 -0.547428 -0.820064
-0.254093 0.221588 -0.450844
-0.611754 0.228613 0.691003
-0.224401 -0.132160 -0.818863
0.144481 -0.512837 0.698192
0.511502 -0.143316 -0.810658
-0.254050 0.220625 -0.447967
0.512067 -0.143482 -0.807809
0.534412 0.204141 0.322919
0.511133 -0.142551 -0.811138
0.162466 0.612180 -0.433352
0.536788 -0.145841 0.703445
-0.237222 -0.144020 0.721737
0.543773 0.603503 -0.047989
0.525018 -0.525700 -0.451897
-0.615664 0.230111 0.692006
0.170372 0.217878 0.718918
-0.222491 0.601765 -0.059052
-0.634558 -0.165684 -0.412346
0.542759 0.605398 -0.049436
0.142744 0.604248 0.330104
-0.213301 0.599366 0.724306
-0.613300 0.232555 0.692468
0.129766 -0.521600 -0.061279
0.139634 0.604267 0.329406
0.163219 -0.548192 -0.820824
0.525514 -0.527976 -0.453471
-0.225383 -0.131897 -0.817166
-0.215070 -0.520342 -0.449160
0.143896 -0.511788 0.700204
0.511203 -0.528751 0.323149
0.524084 -0.527772 -0.451765
-0.227900 -0.514332 0.315389
-0.212776 0.599207 0.723537
-0.225378 -0.134019 -0.817526
0.543524 0.602603 -0.047814
-0.569831 0.616713 0.328814
0.153252 0.226607 -0.834522
-0.612673 0.228283 0.692100
0.140820 0.604763 0.331442
-0.633530 -0.165986 -0.410764
0.161372 -0.546202 -0.821389
0.513629 -0.529288 0.322954
0.488850 -0.150666 -0.042731
0.152343 0.226633 -0.835332
-0.237554 -0.145513 0.717546
0.172094 0.218581 0.719693
-0.228613 -0.514997 0.316371
0.140913 0.604004 0.331006
0.139764 0.603500 0.330225
-0.224845 -0.132629 -0.820100
-0.614077 0.229918 0.691644
-0.623592 0.229538 -0.061976
0.153745 0.226243 -0.835598
-0.224470 -0.132735 -0.818131
0.171575 0.220733 0.719129
-0.587488 -0.126281 0.318850
0.490757 -0.152134 -0.044276
0.141607 0.603248 0.328747
-0.614669 0.230210 0.691665
0.533992 0.205365 0.323820
-0.222514 0.602126 -0.056336
0.154528 0.225758 -0.833187
-0.224163 -0.133195 -0.818074
0.537004 -0.148018 0.703365
0.162917 -0.544867 -0.821872
0.141042 0.605097 0.330811
0.537423 -0.148798 0.703363
0.161664 0.612480 -0.433537
-0.222748 0.603521 -0.057063
-0.632933 -0.165198 -0.410629
-0.210327 0.599288 0.725532
0.156294 0.226228 -0.835284
-0.236958 -0.143909 0.719694
-0.622514 0.228461 -0.063450
-0.211204 0.599576 0.726458
-0.224360 -0.132732 -0.817531
0.525167 0.235275 -0.405461
-0.620938 0.229973 -0.062868
-0.229584 -0.514724 0.317151
0.141276 0.603608 0.330383
0.523594 0.233821 -0.405009
-0.228399 -0.515915 0.315051
0.128347 -0.522287 -0.062402
-0.612441 0.229842 0.690461
0.161070 -0.545729 -0.822385
0.510027 -0.142595 -0.809142
-0.569022 0.616550 0.327074
0.523694 0.234043 -0.406834
0.512299 -0.527455 0.322820
-0.238798 -0.144526 0.720620
0.512716 -0.527822 0.323124
0.172646 0.216223 0.720659
-0.570418 0.617634 0.327137
-0.216467 -0.519149 -0.448597
-0.585827 -0.125491 0.316264
-0.569258 0.616603 0.328795
0.533204 0.205841 0.322946
0.511712 -0.528151 0.324398
0.512085 -0.140783 -0.810598
-0.236948 -0.145235 0.719878
0.524654 0.235724 -0.407905
-0.215530 -0.521418 -0.447137
-0.622969 0.227989 -0.062643
-0.622363 -0.521186 -0.033417
0.173213 0.217822 0.720548
-0.254476 0.218934 -0.449409
0.162962 0.614155 -0.436687
0.140531 0.604032 0.330742
0.489949 -0.150580 -0.043936
-0.587367 -0.127212 0.317784
-0.239589 -0.143839 0.720159
-0.620998 -0.523056 -0.035013
0.510662 -0.142140 -0.809375
0.140565 0.605157 0.328922
0.172050 0.217845 0.719405
-0.222561 0.601565 -0.058315
0.511873 -0.528458 0.323068
0.128251 -0.521175 -0.060840
0.160889 0.615814 -0.435395
0.522750 0.234741 -0.407152
-0.224435 -0.132153 -0.818073
0.537623 -0.147810 0.701494
0.161392 0.612818 -0.435181
0.131521 -0.524278 -0.062935
-0.222566 0.600424 -0.055686
-0.569187 0.615677 0.329478
0.142235 0.604070 0.329042
-0.254763 0.219883 -0.449950
0.545435 0.603147 -0.049263
0.141618 0.604935 0.330328
-0.614386 0.227913 0.689828
0.511910 -0.140610 -0.810481
0.536444 -0.146760 0.703928
-0.633207 -0.166837 -0.409779
0.534227 0.204472 0.322752
0.162144 0.611850 -0.434193
0.162473 -0.545786 -0.822309
0.162833 -0.545528 -0.821305
0.130123 -0.521194 -0.062179
0.153952 0.226158 -0.835242
-0.223743 0.601057 -0.057292
0.143846 -0.510885 0.699885
-0.622275 0.230687 -0.061352
0.162989 -0.545731 -0.821849
0.147095 -0.510631 0.699914
0.491290 -0.151619 -0.041891
-0.633634 -0.166764 -0.411082
0.491102 -0.153743 -0.042965
0.537829 -0.145919 0.702690
0.140864 0.603818 0.329779
-0.217154 -0.522625 -0.448238
0.160186 0.612853 -0.433638
-0.236450 -0.144444 0.720459
0.526077 0.234399 -0.405813
0.164099 -0.548027 -0.820711
-0.224785 -0.132415 -0.819166
0.538583 -0.147274 0.702472
-0.223323 0.602530 -0.058905
-0.224911 -0.132160 -0.818096
-0.634314 -0.166978 -0.412910
0.154774 0.226504 -0.832767
0.536166 -0.148494 0.704331
0.154388 0.223866 -0.833478
0.490135 -0.152441 -0.042455
0.490397 -0.152886 -0.043757
-0.212275 0.599549 0.725005
-0.221096 0.599923 -0.057100
0.145846 -0.513263 0.698163
-0.222900 0.601461 -0.056012
-0.623266 0.228201 -0.062665
0.129835 -0.522008 -0.061686
-0.253128 0.220068 -0.450002
0.535919 0.206766 0.321657
-0.614570 0.231450 0.691756
-0.215962 -0.519334 -0.447387
0.164511 -0.545963 -0.821598
-0.214439 -0.520592 -0.447337
-0.621824 0.232347 -0.060318
0.163793 -0.546287 -0.822024
-0.237612 -0.144284 0.720119
0.161441 0.611509 -0.434446
0.144829 -0.512103 0.700810
0.523703 -0.525311 -0.451861
0.522107 -0.525689 -0.452706
0.160831 0.611722 -0.435969
-0.623741 -0.521109 -0.031712
-0.210935 0.599358 0.724975
0.523006 0.233231 -0.405518
0.535026 0.205103 0.322478
0.511538 -0.528159 0.322236
