OFF
256 0 0
-0.068028 0.162501 0.494952
0.704595 -0.621567 -0.228243
0.326545 -0.599224 -0.591838
-0.052203 0.547503 0.137177
0.319966 -0.221670 0.552515
-0.429781 -0.222806 0.518683
-0.800889 -0.232593 0.128634
0.702606 0.134277 -0.236225
0.301988 0.128670 -0.598364
0.701051 0.491814 0.150993
0.702540 0.132769 0.523133
0.704336 -0.619196 -0.228040
0.685040 -0.217944 -0.600655
0.338546 0.503919 0.515859
-0.046637 -0.635112 -0.240800
-0.044111 -0.636438 -0.238602
-0.052584 0.547814 0.137190
0.325544 -0.220646 0.550679
-0.799803 -0.231820 0.128862
-0.432028 -0.586593 0.153844
0.328615 -0.597709 -0.593866
0.299634 -0.612380 0.154612
0.299895 -0.614338 0.152187
-0.799591 -0.232851 0.127907
0.328380 -0.599146 -0.592414
0.302435 -0.613457 0.154294
0.683971 -0.220492 -0.599827
-0.037317 -0.593919 0.540196
-0.046347 -0.634955 -0.241100
-0.800743 -0.233070 0.129505
-0.813198 0.137679 0.489106
0.702210 0.134481 -0.236750
0.325020 -0.596869 -0.594624
-0.035778 -0.593449 0.539940
-0.036677 -0.592337 0.541296
-0.423430 0.535026 0.507287
-0.067068 0.161462 0.496610
-0.430302 -0.225250 0.516811
0.321710 -0.223010 0.550886
-0.068027 0.162081 0.498999
-0.805451 0.165056 -0.206073
-0.835503 0.531669 0.142656
-0.060391 -0.226274 -0.594666
0.702730 0.133198 0.524338
-0.053244 0.547078 0.136213
-0.068576 0.161957 0.494656
0.705201 -0.620320 -0.227326
-0.834381 0.532435 0.142566
0.321554 -0.222541 0.551768
-0.427715 0.158903 -0.620561
-0.801126 -0.230397 0.128953
-0.052079 0.547324 0.136225
-0.046005 -0.634253 -0.239895
-0.429292 0.160228 -0.619787
-0.042200 -0.635192 -0.239893
-0.799460 -0.233373 0.128955
0.299495 0.129902 -0.597827
-0.428772 -0.226464 0.518231
-0.422260 0.535173 0.510239
0.701030 0.132070 0.524209
-0.803599 0.164621 -0.206181
-0.070054 0.161532 0.495566
-0.429897 0.159450 -0.621515
0.684935 -0.219176 -0.600660
-0.062198 -0.225790 -0.594281
0.699587 0.487738 0.148479
-0.836343 0.532184 0.143454
-0.049286 0.547008 0.133181
-0.430569 -0.225056 0.519752
-0.422270 0.534755 0.508167
0.704656 -0.618709 -0.227488
-0.045729 -0.634028 -0.241115
-0.834191 0.532998 0.143831
-0.417951 0.504975 -0.214668
0.690302 -0.228039 0.141646
-0.430509 -0.586212 0.154747
-0.410466 -0.210594 -0.205650
-0.431589 -0.224111 0.517202
0.321876 -0.219677 0.550516
-0.799944 -0.233117 0.128855
-0.430534 -0.586507 0.155730
-0.836360 0.532077 0.142568
0.320205 0.533606 -0.227813
0.301743 -0.611279 0.155643
-0.804253 0.164035 -0.204879
0.300218 0.129031 -0.599691
0.703561 0.131847 0.523474
0.300011 0.129099 -0.600646
-0.832970 0.531201 0.143973
0.700368 0.487880 0.151692
-0.429106 0.157806 -0.620186
0.322039 0.532195 -0.225475
0.326255 -0.599007 -0.593188
-0.430344 -0.223778 0.518956
0.338538 0.504054 0.516374
-0.041841 0.540394 -0.591171
0.327191 -0.596979 -0.592257
0.698576 0.489094 0.151390
0.321560 0.533328 -0.226305
-0.044792 -0.634381 -0.239811
0.705804 -0.620862 -0.230026
-0.050779 0.548254 0.135980
0.705602 -0.621201 -0.227844
0.302938 -0.612055 0.154010
-0.035515 -0.593767 0.540575
-0.046815 -0.633777 -0.239210
-0.813615 0.137885 0.490147
0.684597 -0.219973 -0.600308
0.703294 -0.621208 -0.227715
0.703181 0.132041 0.523978
0.327592 -0.599589 -0.591784
0.699870 0.488943 0.151446
0.685536 -0.220990 -0.600576
-0.069508 0.162832 0.495423
-0.804541 0.165627 -0.206881
-0.426528 0.161024 -0.620871
-0.425922 0.533415 0.508940
-0.834835 0.529147 0.144987
0.339768 0.504947 0.516357
-0.409026 -0.208654 -0.205502
-0.035716 -0.593707 0.541133
-0.804456 0.165379 -0.206088
0.301662 0.127599 -0.598164
0.684861 -0.219214 -0.599054
-0.423959 0.534761 0.508599
0.301339 0.129388 -0.599232
0.704885 -0.621041 -0.227440
-0.805781 0.163472 -0.205863
0.325009 -0.222381 0.552998
-0.803876 0.165141 -0.206722
-0.430600 -0.222524 0.518619
0.702369 0.132454 0.523598
-0.067204 0.161818 0.497892
-0.047499 -0.632587 -0.239962
0.327524 -0.598122 -0.593337
0.703579 -0.619701 -0.230344
0.691627 -0.227794 0.140931
0.300420 0.131712 -0.598205
-0.419204 0.504815 -0.214720
-0.799275 -0.231483 0.130230
-0.812715 0.139204 0.492388
-0.422522 0.532582 0.509653
-0.419380 0.503363 -0.214530
0.702967 0.131630 0.524213
0.302081 -0.614074 0.153981
0.301000 -0.613276 0.153217
-0.426941 0.158575 -0.621225
0.703037 0.136460 -0.235871
-0.041699 0.541337 -0.590929
-0.433312 -0.586088 0.155130
-0.834498 0.531425 0.144499
0.704455 0.132066 0.523324
-0.812855 0.139150 0.492035
-0.419219 0.503116 -0.215281
0.705130 -0.621915 -0.226598
0.301641 -0.612000 0.152102
0.699887 0.489924 0.148784
0.702273 0.131213 0.524309
0.684077 -0.218966 -0.599780
-0.052534 0.546151 0.135547
0.336757 0.503343 0.515634
-0.432556 -0.586855 0.155920
-0.432692 -0.586162 0.154787
0.701842 0.133253 0.524416
-0.835250 0.531212 0.144495
0.320409 0.530803 -0.226473
-0.418384 0.503940 -0.213229
-0.035930 -0.593657 0.541551
-0.431486 -0.223936 0.519553
-0.833771 0.532464 0.143226
-0.058752 -0.226796 -0.595863
-0.834228 0.532504 0.142992
0.701687 0.129506 0.525073
0.302308 -0.612933 0.155249
-0.035470 -0.593871 0.537663
-0.045858 -0.634321 -0.238694
0.322379 -0.221647 0.550863
-0.062433 -0.224229 -0.594721
0.684388 -0.222081 -0.600848
-0.036246 -0.593787 0.538548
0.691561 -0.228651 0.140799
-0.423771 0.533378 0.508834
-0.036927 -0.593562 0.539570
0.706055 -0.620599 -0.226736
-0.427007 0.161154 -0.621433
-0.812379 0.138262 0.490218
-0.812548 0.138715 0.489573
-0.052943 0.547046 0.136988
-0.409151 -0.209855 -0.205497
0.328461 -0.597243 -0.591993
-0.422436 0.533502 0.508469
-0.069115 0.162704 0.496336
0.701218 0.133165 0.523890
-0.799082 -0.232252 0.129171
-0.410235 -0.210949 -0.206350
-0.428971 0.158088 -0.619951
-0.047002 -0.635205 -0.239268
-0.036148 -0.594612 0.541854
-0.431511 -0.587483 0.156260
-0.835510 0.533434 0.143767
-0.835433 0.531942 0.143129
0.337777 0.503823 0.517124
0.698817 0.491381 0.151491
-0.061324 -0.223702 -0.595167
-0.068853 0.161705 0.497539
-0.419615 0.503036 -0.215815
-0.419226 0.503958 -0.213539
-0.432497 -0.587093 0.155786
-0.420626 0.504275 -0.214282
-0.802671 0.165798 -0.206211
-0.810841 0.137266 0.490643
0.704196 0.137806 -0.235699
-0.419918 0.505036 -0.214259
-0.419032 0.504036 -0.215743
-0.799731 -0.234138 0.128715
-0.430065 -0.224428 0.518742
-0.428012 0.160153 -0.620978
-0.039831 0.542090 -0.590194
-0.039686 0.539883 -0.590157
-0.050424 0.548788 0.135170
-0.431554 -0.586859 0.155458
-0.423267 0.537234 0.508809
0.319861 -0.222318 0.549475
0.322005 0.533409 -0.227616
-0.429653 -0.584981 0.155275
-0.040198 0.541049 -0.590864
-0.834903 0.532567 0.142700
0.689816 -0.228205 0.140067
-0.835148 0.533714 0.145335
-0.408545 -0.209125 -0.206723
-0.060581 -0.226089 -0.594954
-0.835272 0.532787 0.142388
0.326860 -0.599640 -0.592661
-0.409661 -0.208879 -0.205530
-0.802530 0.165389 -0.205947
0.322821 0.533780 -0.226268
-0.801872 -0.233887 0.131601
-0.410134 -0.209125 -0.205931
-0.069128 0.164398 0.498002
-0.804427 0.164261 -0.207172
0.322097 -0.221099 0.550842
0.702353 0.131576 0.521527
0.703542 0.132363 0.524430
-0.061578 -0.227543 -0.594568
0.323407 -0.222836 0.552770
-0.045160 -0.635996 -0.239096
-0.410178 -0.208396 -0.205672
0.322345 0.531956 -0.225392
-0.427326 0.157725 -0.621052
0.699484 0.490314 0.150302
0.702189 0.131532 0.523332
-0.049949 0.546990 0.136612
0.699208 0.488299 0.149525
0.684945 -0.221203 -0.600245
-0.040102 0.541097 -0.592656
0.324101 -0.222259 0.550894
