OFF
256 0 0
0.717275 -0.227161 -0.623060
-0.069629 -0.199811 -0.612448
-0.405745 -0.201842 0.516660
-0.485068 -0.640419 0.140032
0.720918 -0.626414 -0.216553
0.332410 0.135005 -0.598280
0.312761 -0.248621 0.537110
-0.811359 0.546178 0.158350
-0.406520 -0.200076 0.516638
-0.405044 -0.200655 0.514754
-0.055281 0.544911 0.144159
0.725770 0.121843 -0.226050
0.712082 0.524344 0.135439
-0.032168 0.190198 0.534841
-0.827013 0.141468 0.543099
-0.439154 0.161599 -0.645758
0.323880 0.531892 -0.253238
-0.826318 0.143157 0.541566
0.711493 0.522433 0.134536
0.726454 0.120347 -0.222717
-0.440229 0.160363 -0.646276
-0.440232 0.160990 -0.645690
-0.833787 -0.211329 0.156566
-0.821017 0.159422 -0.255559
-0.080611 -0.649152 0.526345
0.334884 -0.639783 0.182042
0.720974 -0.627369 -0.215581
-0.033613 0.187413 0.534336
-0.063483 -0.620768 -0.206984
0.344190 0.522574 0.498128
-0.068815 -0.198920 -0.612188
0.717913 -0.227958 -0.626141
-0.418036 0.525224 -0.232363
0.311476 -0.248197 0.538374
-0.812375 0.548004 0.160832
0.721948 -0.623143 -0.217710
0.329607 -0.635787 -0.609228
-0.067394 -0.201176 -0.611916
0.715287 -0.228633 -0.624230
0.322678 0.530840 -0.252075
-0.063379 -0.621175 -0.207833
-0.484605 -0.639093 0.139174
-0.833546 -0.210252 0.156301
0.732685 -0.239235 0.155320
-0.820451 0.160305 -0.255868
-0.069104 -0.200418 -0.612108
0.332709 0.135301 -0.598395
-0.418090 0.527700 -0.232886
-0.484357 -0.638776 0.139685
-0.063469 -0.620111 -0.207214
0.732264 -0.239681 0.154462
0.329282 -0.634513 -0.608402
0.330727 0.135392 -0.597132
-0.449576 -0.207986 -0.226227
-0.081850 0.547627 -0.601253
0.710701 0.522182 0.136684
0.723991 0.120056 -0.224241
-0.406755 -0.198452 0.515616
-0.054964 0.543959 0.145354
-0.056569 0.546671 0.143188
-0.813201 0.547258 0.160693
-0.440808 0.162222 -0.644562
0.731482 -0.239151 0.154287
-0.442277 0.160582 -0.645344
0.333184 -0.639218 0.180652
-0.438188 0.540798 0.528831
-0.438456 0.541681 0.530080
-0.438626 0.539875 0.531912
0.716521 -0.230051 -0.625137
0.312880 -0.247570 0.537907
0.330441 0.135185 -0.598100
0.712586 0.523978 0.136826
-0.031986 0.190196 0.535434
-0.436668 0.541191 0.528668
-0.418774 0.525872 -0.230539
-0.065324 -0.621977 -0.207121
-0.083503 0.547612 -0.601878
0.722351 -0.625046 -0.216752
-0.418793 0.524649 -0.231673
0.334198 -0.641583 0.184536
-0.812495 0.548347 0.162219
0.313483 -0.249867 0.537514
-0.083407 0.545147 -0.601774
0.332756 0.136383 -0.597942
-0.420251 0.524374 -0.230942
0.332119 0.136222 -0.596848
-0.450233 -0.209386 -0.226722
0.314709 -0.250558 0.539353
-0.438459 0.542202 0.527944
0.720108 -0.625943 -0.217046
0.713264 0.521678 0.135605
0.718226 -0.228647 -0.624374
0.331835 -0.639886 0.181506
0.732972 -0.239968 0.156803
-0.082433 0.545655 -0.601522
0.322504 0.532811 -0.252011
0.721213 -0.626623 -0.216320
-0.826399 0.142508 0.543820
-0.419418 0.525042 -0.231360
-0.033834 0.190939 0.534781
-0.833966 -0.210503 0.155936
-0.055103 0.544191 0.142972
0.729944 0.155140 0.541442
-0.068584 -0.199936 -0.610881
-0.055468 0.544653 0.143247
-0.820110 0.161386 -0.255603
-0.055344 0.544191 0.144267
0.344871 0.522027 0.499474
-0.482401 -0.638968 0.139069
0.321618 0.531136 -0.250839
-0.405867 -0.200100 0.518610
-0.032673 0.189328 0.535858
-0.828129 0.140763 0.542079
-0.452105 -0.209179 -0.224807
-0.826441 0.140373 0.540275
0.314706 -0.249554 0.538981
-0.032840 0.189360 0.534763
-0.082504 0.547960 -0.600895
-0.079468 -0.647732 0.525793
0.323157 0.531579 -0.250648
-0.054320 0.544572 0.143849
0.718153 -0.229000 -0.624766
-0.439167 0.541692 0.530724
0.314065 -0.248415 0.537288
0.331145 -0.631295 -0.609876
-0.406727 -0.201901 0.515818
-0.032453 0.190468 0.534025
-0.081395 0.548560 -0.599914
0.731956 0.153518 0.540873
-0.450174 -0.210812 -0.224321
0.334402 -0.639897 0.182298
0.721923 0.119983 -0.223462
-0.419404 0.526555 -0.230397
0.332019 0.135861 -0.597478
-0.032304 0.188015 0.534410
-0.812459 0.546432 0.161038
0.332737 0.136257 -0.598357
-0.064771 -0.622063 -0.206783
-0.419872 0.527644 -0.230778
-0.080238 -0.650381 0.527859
-0.812192 0.545563 0.161020
-0.439021 0.541057 0.528466
-0.827915 0.140298 0.543866
-0.067633 -0.199667 -0.611733
-0.827360 0.140518 0.541709
0.329777 -0.633019 -0.608653
-0.438720 0.540139 0.529880
-0.404591 -0.200793 0.516195
-0.056408 0.544178 0.143991
-0.835679 -0.210255 0.156229
0.724622 0.118753 -0.223612
-0.833613 -0.210044 0.154482
-0.440897 0.161305 -0.645886
-0.067750 -0.200092 -0.612906
-0.055192 0.545102 0.143054
0.731674 0.155425 0.541287
0.720755 -0.625952 -0.217184
0.330745 -0.633181 -0.608162
0.724140 0.119963 -0.224768
0.331077 0.135436 -0.595411
-0.054328 0.545032 0.143317
0.712819 0.522241 0.135572
0.312666 -0.250893 0.538012
0.314572 -0.250968 0.536949
0.721990 -0.623062 -0.214201
-0.417690 0.525982 -0.231740
-0.085730 0.546567 -0.600666
0.332754 -0.638204 0.180711
0.328522 -0.634103 -0.608911
-0.081259 -0.648921 0.527254
0.343626 0.523851 0.498800
-0.834928 -0.210901 0.155801
-0.820388 0.161452 -0.255661
-0.084272 0.545955 -0.601459
0.731386 0.153826 0.543014
-0.484783 -0.638357 0.140554
-0.449734 -0.209064 -0.226125
-0.829129 0.140728 0.543316
0.713216 0.525094 0.135812
0.726239 0.120742 -0.224029
-0.053817 0.542611 0.144049
0.722645 -0.623721 -0.215744
-0.451416 -0.208157 -0.225316
-0.032958 0.190477 0.535931
-0.082264 0.545842 -0.599973
-0.483504 -0.639953 0.139672
0.713553 0.524070 0.134584
0.734001 -0.239507 0.156436
-0.820795 0.160575 -0.255799
-0.821671 0.161990 -0.254140
-0.082420 0.547419 -0.599835
-0.404456 -0.198987 0.516914
0.717970 -0.228482 -0.625563
-0.820411 0.159878 -0.256887
-0.419130 0.526064 -0.231492
-0.449772 -0.209087 -0.225609
-0.828660 0.140385 0.542511
-0.820959 0.162817 -0.256167
0.324354 0.532989 -0.250897
-0.067397 -0.199562 -0.611500
-0.406010 -0.198995 0.516937
0.735574 -0.238561 0.156382
-0.439338 0.539536 0.530301
0.331216 0.136430 -0.597742
0.332665 -0.639963 0.183206
-0.066427 -0.200420 -0.611559
-0.828044 0.142279 0.542860
-0.834533 -0.208448 0.156202
-0.810455 0.545451 0.161178
0.330591 0.136092 -0.597205
-0.450365 -0.207795 -0.223807
0.720010 -0.625556 -0.215010
0.732841 -0.239707 0.155186
-0.811424 0.545881 0.160994
0.717654 -0.229983 -0.625948
-0.439398 0.540914 0.528725
-0.033016 0.188466 0.533632
0.712716 0.525584 0.135581
-0.812286 0.548131 0.161553
-0.083391 0.547803 -0.602416
0.722144 -0.625131 -0.217477
-0.836842 -0.210574 0.154400
-0.054904 0.544823 0.144466
-0.081479 -0.649125 0.526857
0.726177 0.120213 -0.222962
0.345362 0.520220 0.499227
0.325694 0.530851 -0.251221
-0.450972 -0.210230 -0.226199
-0.082888 0.546237 -0.601658
0.322175 0.531911 -0.249684
-0.834570 -0.211196 0.156537
-0.450308 -0.210377 -0.224461
-0.484776 -0.638985 0.140168
0.721127 -0.625011 -0.215809
-0.484060 -0.639777 0.139806
-0.820817 0.161830 -0.255145
-0.450565 -0.208551 -0.225741
-0.834321 -0.210413 0.156109
0.732446 0.156550 0.542197
0.717073 -0.228339 -0.624549
-0.825619 0.142617 0.542079
-0.451496 -0.210115 -0.226085
0.343917 0.522020 0.498370
-0.827854 0.141458 0.543354
-0.829696 0.140587 0.542711
-0.811157 0.548641 0.159958
-0.440701 0.161073 -0.645417
0.324489 0.531780 -0.252091
-0.439043 0.541343 0.530034
0.313810 -0.248789 0.537404
-0.068017 -0.199034 -0.612481
-0.078592 -0.648563 0.526231
-0.448236 -0.209704 -0.225939
0.722566 0.119322 -0.226137
0.328234 -0.633034 -0.610330
-0.827615 0.140905 0.543841
