OFF
256 0 0
-0.448896 -0.634728 0.135920
-0.465682 -0.224291 -0.187695
-0.833747 0.137293 -0.218800
-0.423151 0.525165 -0.214488
-0.823167 0.546666 0.147896
-0.052538 0.160221 0.541374
-0.446617 0.155759 -0.620697
-0.805166 0.166521 0.521822
-0.423088 0.526418 -0.212831
-0.418947 -0.210691 0.495736
0.707409 -0.201274 0.163556
0.319054 -0.633134 -0.630905
-0.445409 0.153813 -0.618100
-0.423271 0.525119 -0.214296
-0.050804 -0.263971 -0.637167
0.319757 -0.634243 -0.632403
0.709843 -0.620076 -0.210064
-0.064662 -0.637779 -0.219009
-0.422366 0.526379 -0.215231
-0.050035 0.159089 0.540790
-0.032806 0.522373 -0.642514
-0.448705 -0.634089 0.136210
-0.065381 -0.636787 -0.220242
-0.433189 0.548879 0.538774
0.708684 -0.617998 -0.207808
0.708281 -0.622161 -0.208547
0.323152 -0.639229 0.149605
0.709713 0.528003 0.148901
0.320448 -0.634033 -0.632718
0.342324 0.539982 -0.224316
0.322083 -0.631933 -0.632963
-0.064863 -0.635618 -0.219529
-0.064933 -0.634482 -0.218958
-0.433688 0.547950 0.538299
0.319675 0.549439 0.559441
0.319704 -0.632717 -0.631349
0.321695 -0.638353 0.149465
-0.425498 0.524923 -0.214171
0.319562 -0.211014 0.523400
-0.052786 -0.266130 -0.634851
-0.033077 0.521620 -0.643010
-0.035894 0.549976 0.152102
-0.806900 0.167181 0.522252
-0.033720 0.550039 0.152670
-0.064241 -0.635761 -0.220167
-0.053325 -0.266909 -0.635404
-0.051302 -0.262910 -0.635435
-0.444011 0.154797 -0.621468
-0.066279 -0.635300 -0.219031
-0.823709 0.547661 0.148889
-0.420911 -0.210665 0.494772
0.341113 0.540529 -0.223993
0.732046 0.172306 -0.236622
0.318677 -0.632595 -0.632058
-0.805886 0.169170 0.521530
-0.035130 0.550350 0.152178
-0.034427 0.550170 0.153813
0.321234 -0.632662 -0.630740
-0.467298 -0.222948 -0.189708
-0.831887 0.137802 -0.217875
0.724281 -0.241321 -0.634426
0.722926 -0.240850 -0.635417
-0.466280 -0.223129 -0.187901
0.341873 0.540230 -0.223924
-0.053253 -0.266281 -0.637002
-0.031590 0.520973 -0.644698
-0.065707 -0.635071 -0.219172
-0.067644 -0.626531 0.535709
-0.032376 0.522786 -0.644548
-0.068679 -0.628262 0.536557
-0.853937 -0.259826 0.168503
0.321529 -0.639169 0.149429
-0.434952 0.548143 0.539757
0.715537 0.151799 0.553575
0.721512 -0.239884 -0.633179
-0.424002 0.524636 -0.214780
0.331035 0.142794 -0.660219
-0.850981 -0.258905 0.167057
-0.850886 -0.259647 0.166067
-0.065449 -0.635783 -0.219418
-0.031232 0.522680 -0.644802
0.705579 -0.201422 0.163768
-0.035528 0.551451 0.151724
0.329483 0.143317 -0.660311
0.322074 -0.639807 0.147789
0.340213 0.541074 -0.224296
-0.468146 -0.224325 -0.187477
-0.465342 -0.222219 -0.188870
-0.034468 0.551443 0.151195
0.321003 -0.210404 0.524329
-0.854184 -0.260254 0.167226
-0.834695 0.136889 -0.218713
-0.418499 -0.211797 0.495805
0.320416 -0.632236 -0.629971
-0.051792 -0.265717 -0.635780
-0.069411 -0.628284 0.535083
0.319239 0.550623 0.560710
-0.824066 0.547759 0.149284
-0.049755 0.159148 0.540746
-0.048719 0.157496 0.539706
-0.069845 -0.627642 0.534347
0.707467 -0.202356 0.161402
0.342311 0.539311 -0.224953
0.709224 0.527858 0.149547
-0.420783 -0.211189 0.495940
-0.466109 -0.221516 -0.187660
0.721821 -0.239067 -0.634148
0.712185 0.529247 0.149906
0.708947 -0.619451 -0.207991
-0.065356 -0.636515 -0.218506
0.321200 -0.210925 0.522591
-0.031422 0.522713 -0.645375
0.341835 0.539325 -0.225319
0.708951 -0.621713 -0.210517
-0.824730 0.547818 0.151549
0.319712 -0.633741 -0.631041
-0.422363 0.526534 -0.213000
-0.834849 0.138042 -0.218628
-0.069367 -0.627793 0.534730
-0.035833 0.548953 0.153536
-0.420728 -0.210418 0.495341
-0.069903 -0.627936 0.535312
0.342887 0.541205 -0.225121
-0.417748 -0.213394 0.495501
0.322753 -0.639014 0.149976
-0.448516 -0.634942 0.137419
-0.822864 0.547189 0.149419
-0.036400 0.549140 0.152577
-0.832240 0.137471 -0.217262
-0.466378 -0.223109 -0.188325
0.321611 -0.634258 -0.629971
0.321123 -0.211703 0.523204
0.709382 -0.621415 -0.209926
0.319863 0.547865 0.560501
0.708603 -0.205156 0.160857
-0.031793 0.521880 -0.645089
-0.035365 0.551327 0.151366
-0.448840 -0.634455 0.136389
-0.444619 0.155715 -0.621039
0.732361 0.173755 -0.237154
0.321179 -0.638605 0.148847
0.324158 -0.638718 0.150242
0.321038 -0.209571 0.523953
-0.034666 0.549497 0.150759
-0.807084 0.168754 0.522343
-0.421644 -0.211937 0.494340
0.321504 -0.210804 0.525844
-0.448716 -0.636094 0.136200
-0.447982 -0.634474 0.135556
-0.448917 -0.634462 0.136378
-0.445173 0.154754 -0.620066
-0.465027 -0.222573 -0.188138
-0.465126 -0.222318 -0.186800
0.721784 -0.241118 -0.632877
0.722847 -0.240948 -0.633844
-0.048663 0.160055 0.541424
0.319973 -0.632993 -0.631047
-0.465860 -0.223352 -0.188034
0.730670 0.171882 -0.236843
-0.853751 -0.260005 0.168569
-0.050500 0.160715 0.541509
0.708360 -0.621686 -0.209716
0.333168 0.143562 -0.661528
0.320060 0.552804 0.562594
0.331380 0.143671 -0.663818
0.712252 0.528445 0.148188
-0.834945 0.136967 -0.216897
0.340801 0.540342 -0.223235
-0.823475 0.547885 0.148583
0.332476 0.143799 -0.662217
-0.445229 0.155083 -0.619999
0.342140 0.541730 -0.223329
0.320440 -0.208990 0.524884
-0.823123 0.547317 0.149267
0.708473 -0.621137 -0.209251
-0.445296 0.156278 -0.620193
0.731158 0.172610 -0.237418
0.321338 -0.639195 0.148282
-0.465216 -0.222842 -0.187818
-0.032158 0.522645 -0.644133
-0.070880 -0.627870 0.535133
-0.836073 0.137967 -0.220072
0.323261 -0.640224 0.149883
0.711586 0.529863 0.148775
-0.825043 0.549009 0.147984
0.731951 0.173095 -0.236939
-0.852630 -0.259830 0.169217
0.318993 -0.633480 -0.631167
-0.052407 -0.265367 -0.634577
0.717008 0.154548 0.552041
0.723292 -0.238808 -0.633455
-0.446662 -0.633821 0.137810
-0.031072 0.522494 -0.646163
-0.432843 0.550764 0.540335
0.713758 0.529104 0.149774
-0.032439 0.522214 -0.646013
-0.805149 0.168041 0.520495
-0.419104 -0.212329 0.495375
0.331376 0.143414 -0.662473
-0.034446 0.548460 0.151171
-0.064130 -0.636847 -0.219801
0.716369 0.153139 0.554159
-0.422526 0.525725 -0.213837
-0.050735 -0.262582 -0.635933
-0.065308 -0.635956 -0.219205
0.732479 0.172563 -0.236562
-0.433191 0.549939 0.539471
-0.051506 0.160301 0.540111
-0.833449 0.137050 -0.219686
0.721716 -0.239794 -0.634158
0.710894 0.528907 0.148884
0.322775 -0.638955 0.149052
0.321216 0.551466 0.560629
0.707398 -0.201961 0.162323
-0.448518 -0.634360 0.134594
-0.062319 -0.636561 -0.220716
-0.030704 0.521988 -0.644332
0.709578 0.527732 0.149275
0.322333 -0.638629 0.148680
0.323803 -0.639545 0.147971
0.708117 -0.201582 0.162026
-0.052797 -0.264744 -0.635864
0.320777 -0.212042 0.525616
0.706829 -0.620059 -0.210411
-0.851308 -0.259557 0.166795
-0.433593 0.549645 0.540173
-0.448785 -0.632517 0.135339
-0.434395 0.549093 0.540715
-0.063368 -0.635814 -0.219618
-0.805893 0.168640 0.521338
0.707352 -0.201567 0.162766
-0.423198 0.523962 -0.213618
0.705423 -0.203014 0.163709
-0.852079 -0.260043 0.168801
-0.448996 -0.633033 0.134765
0.722189 -0.239666 -0.633817
0.711039 0.528375 0.149570
0.710341 0.527533 0.149419
-0.424029 0.523496 -0.213653
0.707436 -0.621828 -0.207338
0.331110 0.143734 -0.660539
-0.832577 0.136822 -0.218747
0.321630 -0.640048 0.148429
0.710746 0.528457 0.149944
-0.852229 -0.260848 0.169066
-0.424272 0.525265 -0.213950
0.711362 0.529075 0.150033
0.319467 0.548404 0.560673
-0.432565 0.549924 0.540282
-0.036117 0.549017 0.153912
0.707653 -0.202573 0.161485
0.723732 -0.239611 -0.633869
-0.852186 -0.259872 0.167077
-0.051045 0.160779 0.541245
-0.052445 -0.263819 -0.634276
0.343702 0.539110 -0.225290
