OFF
256 0 0
-0.223569 -0.221001 0.678954
-0.223981 -0.222139 0.679764
-0.202435 -0.643011 0.207556
0.220237 0.706572 -0.656631
0.242554 0.204846 0.655878
-0.224577 -0.221721 0.679377
-0.689614 -0.205173 -0.672001
0.225697 -0.699013 -0.243551
0.690554 0.191894 0.234493
0.690126 0.191866 0.232258
-0.223543 -0.222828 0.679731
-0.235446 0.645153 -0.205843
0.632807 -0.637365 0.221792
-0.202830 -0.642553 0.207580
0.668381 -0.248370 0.683810
0.204470 -0.216820 -0.657404
0.675644 -0.239259 -0.247332
-0.663205 -0.214794 0.200669
0.234636 0.680546 0.203158
-0.236085 0.643603 -0.207557
-0.238003 0.643518 -0.207346
-0.224076 -0.221500 0.678916
0.680902 0.655725 -0.199310
-0.686454 -0.204221 -0.672874
0.669820 -0.249420 0.682986
0.691939 0.191590 0.233581
-0.254477 -0.657274 -0.670279
-0.660800 0.243884 0.636743
-0.223262 -0.222052 0.680158
0.681480 0.653965 -0.200390
0.680994 0.653377 -0.200887
-0.237357 0.644162 -0.206307
0.668031 -0.250261 0.683977
0.691888 0.192175 0.234985
0.236684 0.683600 0.201723
0.680402 0.654842 -0.201177
0.681370 0.653905 -0.201363
0.681694 0.653624 -0.199874
-0.209159 0.230463 -0.665817
-0.208587 0.229683 -0.665809
-0.663103 -0.215158 0.198863
-0.648976 0.217970 -0.214493
-0.208874 0.230193 -0.666308
0.223467 -0.698256 -0.244542
-0.691914 0.685469 0.225237
0.219013 -0.681915 0.692026
0.226091 -0.699145 -0.245620
-0.199983 0.647247 0.655915
-0.200407 0.646469 0.653449
0.219800 0.706626 -0.655806
0.224808 -0.699937 -0.244018
0.222864 -0.698393 -0.244921
-0.224825 -0.222403 0.679296
0.206998 -0.220080 -0.656591
-0.676253 -0.665598 -0.207116
-0.223948 -0.221468 0.678782
0.234496 0.682260 0.201595
0.682268 0.654703 -0.200548
0.206392 -0.221038 -0.657837
-0.235040 0.643606 -0.207187
-0.649557 0.218243 -0.213583
-0.663927 -0.212978 0.198830
-0.663629 0.241379 0.637169
0.681329 0.655261 -0.200316
0.218075 -0.683700 0.691492
0.218466 -0.682481 0.692809
0.633728 -0.638538 0.223084
-0.204425 -0.643302 0.208669
0.220055 0.706361 -0.655222
-0.650057 0.218399 -0.215564
-0.652268 0.218748 -0.213479
-0.236231 0.644111 -0.207199
0.220025 0.707707 -0.655065
-0.207960 0.229241 -0.666408
0.670554 -0.248617 0.684335
-0.691465 0.685424 0.225980
0.241165 0.205776 0.657538
-0.221978 -0.221561 0.680183
-0.223126 -0.221870 0.681352
-0.661363 0.242983 0.634981
0.219078 -0.682918 0.694332
0.661891 0.222327 -0.651892
-0.686923 -0.203061 -0.671646
0.675842 -0.238208 -0.246790
0.219885 0.706250 -0.657015
-0.662925 -0.212896 0.200455
-0.257228 -0.656997 -0.672312
0.679618 0.653440 -0.199285
-0.652384 0.217391 -0.212672
0.236245 0.682640 0.203641
-0.686565 -0.201670 -0.671069
0.206946 -0.219144 -0.657967
-0.691772 0.685980 0.226953
0.220820 -0.682693 0.690912
0.663867 0.225571 -0.652597
-0.649899 0.217656 -0.214408
0.240452 0.203969 0.658621
0.221148 -0.681628 0.691424
0.668207 -0.250090 0.683736
-0.203398 -0.642987 0.206986
-0.223366 -0.219949 0.679517
-0.254389 -0.658214 -0.670315
-0.692276 0.686246 0.225909
0.226023 -0.698488 -0.243511
0.661002 0.224315 -0.652175
0.669297 -0.246831 0.683600
-0.201844 0.648840 0.654726
0.223314 -0.698429 -0.243507
-0.689261 -0.203076 -0.672995
0.223632 -0.700019 -0.246318
0.241036 0.204186 0.657905
-0.202221 -0.643402 0.207149
0.225590 -0.700488 -0.242665
-0.664833 -0.213371 0.199899
-0.223424 -0.223118 0.678519
0.225937 -0.698285 -0.244304
0.240946 0.204605 0.658459
0.237464 0.681460 0.201681
0.631137 -0.639809 0.220365
0.226057 -0.699077 -0.243948
-0.662787 0.242805 0.637222
0.691227 0.192497 0.232339
-0.663301 -0.214153 0.200289
-0.208932 0.230777 -0.665830
-0.255626 -0.657554 -0.671479
0.206048 -0.220104 -0.656495
0.690262 0.192289 0.233790
0.692557 0.192597 0.233293
-0.202999 -0.641976 0.207018
0.217777 -0.683845 0.692134
0.235348 0.683167 0.201275
-0.663918 -0.214708 0.200664
0.221644 -0.683030 0.692528
0.224371 -0.698942 -0.243434
0.227652 -0.700703 -0.242465
0.661726 0.222980 -0.653372
-0.688145 -0.203650 -0.672077
-0.675397 -0.664731 -0.211528
0.219962 -0.682790 0.692293
-0.650511 0.218486 -0.212791
0.668114 -0.249581 0.682470
-0.204861 -0.641647 0.207069
-0.236145 0.644106 -0.206452
-0.225008 -0.221815 0.680293
-0.236816 0.643906 -0.207021
0.236053 0.680965 0.203479
-0.255277 -0.656248 -0.669663
-0.205739 0.228765 -0.666449
0.218789 -0.682341 0.691427
-0.203539 0.649270 0.653885
0.676647 -0.236661 -0.248918
0.667915 -0.249456 0.683891
-0.692060 0.686545 0.227103
-0.651266 0.218866 -0.214871
0.236297 0.680708 0.204164
0.662391 0.222563 -0.652780
-0.256584 -0.656803 -0.670276
0.218620 0.707283 -0.655355
0.216988 -0.681887 0.692096
-0.202184 0.645365 0.656626
-0.221725 -0.220449 0.679142
0.691199 0.192302 0.233898
0.225186 -0.698184 -0.244500
0.218400 0.708189 -0.654656
-0.236859 0.643999 -0.206484
-0.674258 -0.662530 -0.209331
-0.674649 -0.663592 -0.208132
-0.203947 -0.642857 0.208494
-0.674487 -0.665854 -0.208729
0.225757 -0.700807 -0.243285
0.691628 0.191809 0.233506
0.633057 -0.639441 0.223276
-0.660495 0.245333 0.637285
0.663492 0.225038 -0.653590
0.237349 0.682543 0.201928
0.689349 0.191493 0.233039
-0.650959 0.216385 -0.213928
0.218053 -0.681708 0.692345
-0.201248 0.647427 0.655028
-0.237289 0.643053 -0.207303
0.667868 -0.249813 0.681914
0.681387 0.654340 -0.199845
0.235180 0.681714 0.201304
-0.687098 -0.201234 -0.671462
-0.223825 -0.221958 0.678695
-0.691320 0.686150 0.224534
0.664259 0.225357 -0.654025
0.667764 -0.250222 0.682739
0.667122 -0.248512 0.682949
0.691198 0.191695 0.233830
-0.650810 0.217453 -0.213016
0.207052 -0.219665 -0.659066
0.679414 0.654992 -0.199646
-0.663686 0.243081 0.635716
-0.235754 0.643470 -0.205776
0.690214 0.191824 0.234718
0.679697 0.653724 -0.199957
0.207678 -0.218339 -0.659017
-0.688946 -0.204276 -0.671997
-0.236364 0.645317 -0.207179
0.220704 0.707345 -0.654416
-0.236937 0.643011 -0.208348
-0.236942 0.646036 -0.207691
0.221572 0.706168 -0.655811
-0.253092 -0.656857 -0.670611
-0.684534 -0.203057 -0.672580
-0.675760 -0.665513 -0.208582
-0.652597 0.218346 -0.211679
-0.690836 0.682980 0.224742
0.219676 0.705647 -0.655326
-0.662622 0.244747 0.636765
0.662300 0.224647 -0.651730
0.674483 -0.239342 -0.249308
-0.202611 0.648456 0.654158
0.690708 0.190012 0.234561
-0.222485 -0.222278 0.678798
-0.650511 0.218689 -0.213804
0.220681 0.706794 -0.655430
0.243365 0.204571 0.656724
0.242567 0.204006 0.655014
-0.255576 -0.657862 -0.671329
-0.689137 -0.200223 -0.671757
0.668276 -0.249152 0.684262
-0.691167 0.687707 0.225387
0.632445 -0.640476 0.221793
-0.687954 -0.203338 -0.670725
-0.650048 0.217933 -0.212588
0.663550 0.222401 -0.653707
-0.223919 -0.223176 0.679160
-0.673005 -0.665498 -0.209383
-0.224762 -0.221278 0.679263
0.691025 0.192053 0.233828
-0.665158 -0.212412 0.199855
0.236071 0.681740 0.202856
0.634718 -0.640412 0.222314
-0.663162 -0.213526 0.199531
0.218126 -0.681573 0.692004
-0.209071 0.229558 -0.665681
-0.662383 0.244069 0.635908
0.662304 0.223838 -0.651697
0.206869 -0.219440 -0.657839
-0.685703 -0.204191 -0.672668
0.206823 -0.219992 -0.658483
0.662411 0.223916 -0.653104
0.673147 -0.239755 -0.248812
0.667792 -0.251239 0.683425
-0.688963 -0.202727 -0.673018
0.236295 0.682348 0.201999
0.690691 0.193820 0.233568
0.219615 0.706827 -0.653498
0.662114 0.222827 -0.651470
0.224657 -0.698367 -0.243269
-0.199883 0.650133 0.654916
-0.222789 -0.222177 0.679953
0.218152 -0.682136 0.693486
0.221314 0.706458 -0.656867
