OFF
256 0 0
0.490222 0.378832 -0.434976
-0.279918 0.364050 -0.374835
0.526527 0.429056 0.391488
0.108812 -0.435477 0.834051
-0.740647 -0.013383 -0.406269
0.507527 0.807643 -0.037237
0.496416 -0.802064 -0.010560
0.509215 0.805049 -0.038138
0.081311 -0.814667 0.424466
-0.302573 0.410983 0.432839
0.072092 0.814458 -0.386410
0.072163 0.815027 -0.386154
-0.262694 -0.337063 -0.378070
-0.316763 -0.835606 -0.016291
-0.295777 -0.402477 0.395718
0.506432 0.806510 -0.037218
0.500372 -0.019919 -0.004532
0.112612 0.443481 0.823175
0.517753 -0.432653 0.411665
-0.280231 0.364087 -0.374289
-0.741772 -0.016501 -0.405002
-0.727339 0.398187 -0.001827
-0.734649 -0.429792 -0.009770
0.519955 -0.430022 0.411318
-0.312910 0.019240 0.845718
-0.303375 0.409558 0.430660
0.502318 0.012734 0.847319
-0.302339 0.408934 0.429778
-0.736286 -0.432342 -0.008620
0.508542 0.806641 -0.038376
-0.330585 0.001219 -0.828289
-0.313094 0.018016 0.843082
-0.296559 -0.402055 0.394527
-0.295278 -0.402989 0.394346
0.498547 -0.020768 -0.002874
-0.312587 0.017256 0.842694
-0.301325 0.410754 0.431959
-0.316713 0.806841 0.002337
0.502789 0.010304 0.846192
0.112845 0.443832 0.822431
-0.728614 0.397587 -0.001482
0.088194 -0.813658 -0.407121
0.499056 -0.020566 -0.005528
-0.318649 0.807781 0.003481
-0.280032 0.364824 -0.374162
0.106363 0.837191 0.410071
-0.331135 0.002223 -0.824799
0.110505 -0.436436 0.833001
0.089489 -0.812452 -0.407796
-0.728625 0.397222 -0.000973
0.495198 -0.801179 -0.013403
0.507043 0.808029 -0.038667
0.108080 0.836196 0.408784
-0.722398 -0.012224 0.423756
0.500065 -0.022978 -0.003268
0.500523 0.010060 0.846751
-0.316387 -0.835882 -0.017056
0.109869 -0.437041 0.833929
0.072570 0.812687 -0.384947
0.494550 -0.801337 -0.012813
0.110439 -0.436203 0.833146
0.087053 -0.811456 -0.405551
-0.330217 0.000896 -0.826492
-0.736917 -0.432316 -0.010797
-0.280361 0.366298 -0.376524
0.107997 0.836581 0.410542
-0.320219 0.808171 0.005548
-0.741411 -0.012227 -0.404949
-0.315868 -0.833832 -0.017288
0.080170 -0.814143 0.424126
-0.278256 0.365486 -0.376480
0.507799 0.807615 -0.037366
0.496248 -0.801941 -0.011042
-0.740323 -0.015500 -0.405199
-0.278002 0.363697 -0.375914
0.102050 -0.383434 -0.824737
-0.318764 0.806679 0.002584
-0.296165 -0.402682 0.395313
0.498395 -0.020607 -0.005211
0.521938 -0.414567 -0.446692
-0.319487 0.808701 0.002616
-0.738937 -0.014922 -0.403897
-0.728155 0.397456 -0.000835
0.113125 0.444108 0.822893
0.495373 -0.802471 -0.011876
-0.301199 0.410505 0.431386
0.524086 -0.416032 -0.444627
0.516598 0.010016 -0.856631
0.495013 -0.803291 -0.011701
-0.721302 -0.011800 0.421587
-0.330628 0.002674 -0.824308
0.113918 0.446007 0.821831
-0.317782 0.807604 0.004005
-0.316155 -0.834689 -0.014884
0.527347 0.432526 0.395097
-0.728596 0.396680 -0.002302
0.074318 0.816321 -0.384816
-0.742734 -0.013755 -0.405053
-0.295581 -0.402961 0.396784
-0.329424 0.001555 -0.828681
0.498310 -0.020502 -0.004991
0.109896 -0.434117 0.833124
0.496415 -0.021219 -0.004381
0.494368 -0.804156 -0.011059
-0.733932 -0.431365 -0.008475
0.106065 0.835448 0.409835
0.520685 -0.431534 0.410377
0.088259 -0.813909 -0.406385
0.518719 0.011055 -0.857751
-0.280390 0.363875 -0.373680
0.520760 -0.431167 0.411887
-0.727414 0.396660 -0.002513
-0.729315 0.397244 -0.001108
-0.313159 0.016316 0.843924
0.080948 -0.811621 0.424278
-0.312146 0.016818 0.845090
-0.263186 -0.338748 -0.376726
0.498469 -0.020086 -0.003619
-0.315273 -0.835887 -0.016640
-0.281758 0.364623 -0.374412
0.516714 0.011213 -0.858502
-0.316427 -0.836191 -0.015587
0.499254 -0.020178 -0.003034
-0.319262 0.807266 0.002804
0.110783 -0.435929 0.833613
-0.319585 0.807490 0.001729
-0.742245 -0.014169 -0.404282
-0.319147 0.804769 0.004414
-0.319392 0.809030 0.005353
-0.312856 0.017202 0.844065
0.509266 0.804856 -0.038884
0.528693 0.433051 0.393603
0.109230 -0.436695 0.833222
0.110298 -0.438339 0.834837
-0.300555 0.410075 0.432004
0.499615 -0.020421 -0.006102
0.507812 0.806496 -0.037641
0.524220 -0.413361 -0.447660
-0.723217 -0.013323 0.422900
0.490700 0.378355 -0.432893
0.072262 0.814794 -0.385442
0.516371 0.008710 -0.856423
0.500312 -0.021564 -0.004234
-0.316889 0.806641 0.002676
-0.261960 -0.340304 -0.378029
0.108261 -0.436802 0.833217
-0.316176 -0.833744 -0.014699
0.497813 -0.021579 -0.002687
0.494570 -0.801749 -0.010585
-0.329906 0.001104 -0.826518
-0.728214 0.397594 -0.003575
0.106888 0.833558 0.409708
0.518062 -0.432005 0.411148
-0.317926 0.807428 0.002701
-0.261075 -0.337952 -0.379647
0.517136 0.011059 -0.857773
-0.720533 -0.011923 0.420360
0.494418 -0.801252 -0.011680
-0.262897 -0.337081 -0.380060
0.498969 -0.019076 -0.005715
-0.741518 -0.016039 -0.404548
-0.296131 -0.401556 0.394712
-0.727736 0.396029 -0.001719
0.072125 0.814513 -0.385576
-0.261945 -0.338311 -0.380153
-0.296267 -0.403778 0.395288
0.507905 0.806944 -0.037771
0.088402 0.418935 -0.817705
0.090527 0.418891 -0.819669
-0.728828 0.396903 -0.000655
-0.735277 -0.432317 -0.008971
0.498795 -0.021586 -0.003507
0.112976 0.443766 0.824133
0.080303 -0.813926 0.424428
0.497911 -0.019514 -0.005989
0.107471 0.834693 0.411088
0.102579 -0.381894 -0.825150
0.088967 0.420252 -0.820375
0.072895 0.814617 -0.387360
0.101719 -0.379689 -0.824545
0.507457 0.806223 -0.038664
0.527734 0.432758 0.393840
-0.726597 0.398910 -0.002440
0.073722 0.813916 -0.386907
-0.295880 -0.402250 0.393259
0.079571 -0.814460 0.425192
-0.295055 -0.401964 0.395049
0.108848 -0.435607 0.832939
0.089752 -0.812690 -0.407159
-0.740943 -0.013011 -0.405535
0.501003 -0.020687 -0.005257
-0.316914 -0.834941 -0.018340
-0.740117 -0.014194 -0.404590
0.071234 0.817365 -0.385036
0.080452 -0.815178 0.425178
-0.280946 0.365359 -0.376195
0.527799 0.432583 0.391597
0.507728 0.808160 -0.039811
0.528214 0.431690 0.393698
-0.312512 0.017317 0.843766
0.101781 -0.381876 -0.824876
-0.316636 -0.833579 -0.014728
0.090810 0.418404 -0.818253
0.089264 0.421517 -0.817542
0.107598 0.834793 0.412508
-0.329154 0.002300 -0.827344
-0.278457 0.366047 -0.373023
0.088334 -0.813401 -0.405951
0.080534 -0.813303 0.425700
-0.316384 -0.833413 -0.015798
0.501706 0.010683 0.847649
-0.727794 0.395865 -0.001224
0.508316 0.806378 -0.038316
-0.296180 -0.403444 0.395464
0.524252 -0.416606 -0.447009
0.527857 0.431129 0.391866
-0.262908 -0.340481 -0.379755
-0.317443 0.806601 0.003244
0.508440 0.807330 -0.037963
0.525764 -0.415525 -0.445655
0.072248 0.814756 -0.386850
-0.263169 -0.340287 -0.378661
0.100594 -0.382879 -0.824881
0.516250 0.009280 -0.855726
-0.316145 -0.837061 -0.017106
-0.735932 -0.432163 -0.010873
0.086592 -0.812819 -0.406959
0.523920 -0.415611 -0.446396
-0.313047 0.017051 0.842260
0.113033 0.444131 0.822051
0.523856 -0.415064 -0.445467
-0.302989 0.410643 0.432287
-0.295374 -0.402137 0.394938
0.507752 0.807194 -0.036346
0.527764 0.432126 0.392105
0.490701 0.377088 -0.433042
0.113500 0.444600 0.822938
0.073073 0.813526 -0.385232
-0.741521 -0.014689 -0.405458
0.089615 -0.811844 -0.408324
0.106700 0.835396 0.411015
0.099971 -0.381251 -0.825017
0.109180 -0.435868 0.831550
-0.262368 -0.340116 -0.379495
0.507628 0.806423 -0.038843
-0.727206 0.394751 -0.002331
-0.723746 -0.013597 0.423191
-0.737165 -0.433004 -0.009711
-0.318812 0.805430 0.005810
0.489792 0.379209 -0.434214
0.111967 0.443092 0.822328
0.498015 -0.020937 -0.004134
0.079878 -0.814361 0.426189
0.104567 0.834325 0.409295
-0.739234 -0.012529 -0.405425
0.508183 0.806383 -0.039142
