OFF
256 0 0
-0.320355 0.444808 0.408308
-0.740490 -0.000824 -0.410605
0.507243 0.000530 -0.861462
0.085483 -0.846360 -0.439891
0.451858 -0.395963 -0.424268
0.106487 0.839345 -0.425843
0.515170 0.394951 -0.413710
-0.324465 -0.852879 -0.015122
0.524943 -0.416672 0.437410
-0.312115 0.011705 -0.832562
-0.323998 -0.851248 -0.015810
0.138381 0.443463 -0.854269
0.521445 0.427898 0.417848
0.101539 -0.458306 -0.865860
0.124256 0.861380 0.426267
0.114604 0.402098 0.857475
0.125617 0.861619 0.426871
-0.325463 -0.853478 -0.014498
0.085653 -0.847042 -0.439597
-0.323371 -0.852725 -0.013726
-0.281413 -0.390636 -0.407236
-0.733794 -0.020554 0.425987
-0.733790 -0.021777 0.424711
0.485478 -0.843533 -0.017910
0.124179 0.859540 0.426508
-0.281206 -0.390262 -0.405567
0.085491 -0.418240 0.877299
0.505538 0.000402 -0.861944
-0.315154 0.011625 -0.832306
0.139014 0.441079 -0.855444
0.539951 -0.022511 0.010153
0.506567 0.001064 -0.860682
-0.768677 -0.475571 -0.012176
0.510805 0.396974 -0.412343
0.537975 -0.024569 0.010984
0.510115 0.001041 -0.860702
0.528527 0.007652 0.846351
0.525236 -0.417840 0.439375
0.522503 0.425740 0.415797
-0.319665 0.446592 0.406748
-0.311586 0.876450 0.018257
0.113983 0.402926 0.857886
0.124182 0.862347 0.426881
0.528980 0.006719 0.845088
0.523385 -0.416225 0.437287
0.106898 0.841066 -0.426435
0.452092 -0.397818 -0.423978
-0.318237 0.446631 0.408148
-0.314847 0.014019 -0.830729
0.529294 0.838221 0.013356
-0.747291 0.422942 0.005179
-0.314305 0.011472 -0.832009
-0.739582 0.001273 -0.408768
-0.739253 0.000447 -0.407482
-0.738812 0.001910 -0.409751
-0.321442 -0.414429 0.366276
-0.746960 0.423169 0.005402
0.087706 -0.847952 -0.440721
-0.742863 0.000732 -0.407792
0.524473 -0.415452 0.437581
-0.296730 0.418793 -0.417732
0.113767 0.403673 0.858995
0.123621 0.861720 0.428940
-0.320743 0.446222 0.408726
-0.738992 0.001904 -0.407904
-0.320775 0.446758 0.408154
-0.731770 -0.019500 0.424098
0.522711 0.428194 0.416831
-0.312293 0.876579 0.015472
-0.324674 -0.851167 -0.015924
-0.313590 0.011350 -0.832826
-0.322881 -0.415175 0.364445
0.484081 -0.842272 -0.021280
0.123942 0.863989 0.426959
0.522624 -0.417124 0.439084
0.523834 -0.416415 0.438257
-0.315508 -0.008530 0.845947
0.529033 0.008483 0.846614
-0.281891 -0.391891 -0.406388
0.107253 0.843473 -0.427525
0.541209 -0.022964 0.011933
-0.732745 -0.022776 0.424698
0.136829 0.442374 -0.853940
-0.734074 -0.020447 0.427270
0.484062 -0.842069 -0.019276
0.119257 -0.833880 0.441514
0.528553 0.005930 0.846500
-0.739433 0.000585 -0.408709
0.527823 0.006740 0.843721
0.138998 0.442219 -0.853126
0.508318 0.001721 -0.861410
-0.323170 -0.414777 0.365849
0.137947 0.443234 -0.852488
0.537782 -0.021853 0.011529
0.124286 0.862693 0.426507
0.137921 0.441216 -0.853877
0.137632 0.441768 -0.854167
0.099434 -0.456640 -0.865552
0.507107 0.001514 -0.861060
-0.313583 0.010825 -0.832076
0.138407 0.442433 -0.853894
0.099627 -0.457427 -0.866305
0.087109 -0.846271 -0.440780
-0.324156 -0.853143 -0.015934
-0.319472 0.445791 0.408720
-0.311587 0.011366 -0.834189
0.089956 -0.846978 -0.439341
0.530567 0.838744 0.011179
0.530842 0.841240 0.014474
0.102215 -0.458913 -0.866390
-0.319905 0.445885 0.406183
-0.316419 -0.008573 0.845697
-0.733729 -0.021627 0.424717
-0.313035 0.876755 0.016123
-0.741184 0.002346 -0.408811
-0.315933 -0.005423 0.846350
-0.768459 -0.476028 -0.013560
0.484889 -0.842129 -0.019539
-0.281320 -0.391702 -0.407212
0.527625 0.005948 0.845972
0.123743 0.861187 0.427127
-0.323475 -0.851688 -0.015620
0.514184 0.397254 -0.412404
0.520829 0.427611 0.415270
0.114522 0.402105 0.857880
-0.297305 0.418333 -0.417898
0.084571 -0.417903 0.877285
-0.740659 -0.000782 -0.408369
0.523024 -0.416471 0.436608
0.531183 0.840798 0.016106
-0.767039 -0.475697 -0.013997
-0.322037 -0.415112 0.366071
-0.747558 0.420563 0.006604
0.513203 0.396476 -0.409963
-0.312165 0.012523 -0.831789
0.123919 0.860315 0.426797
0.527331 0.840577 0.014334
0.524353 -0.414871 0.436927
0.520910 0.427903 0.417804
0.086928 -0.846007 -0.441754
0.118336 -0.833391 0.441154
0.085235 -0.417758 0.876847
0.539156 -0.021806 0.012598
-0.321164 0.446147 0.408215
-0.748318 0.421706 0.005535
0.119082 -0.831753 0.440530
0.105384 0.841597 -0.423287
0.085977 -0.417354 0.876636
0.088870 -0.847729 -0.439949
0.139582 0.443390 -0.853861
0.138394 0.441236 -0.855001
-0.319942 0.447155 0.407414
0.483322 -0.844038 -0.020010
0.114086 0.403830 0.858067
0.137948 0.442323 -0.853384
-0.740807 0.002282 -0.408823
-0.767916 -0.474682 -0.013149
-0.739498 0.001881 -0.409079
-0.746916 0.422364 0.007240
0.530570 0.841533 0.015263
-0.311109 0.875328 0.016795
0.506687 0.000047 -0.860299
0.523247 -0.415950 0.436816
0.528486 0.005806 0.844473
0.513551 0.396207 -0.411192
0.523106 0.426773 0.416211
0.120780 -0.835146 0.442214
0.485152 -0.843361 -0.018507
-0.321949 -0.850831 -0.015722
0.084764 -0.418246 0.876744
0.452179 -0.395913 -0.425917
0.529425 0.839438 0.015261
0.123832 0.860948 0.428120
0.139477 0.441660 -0.852007
0.124923 0.858744 0.427823
0.114864 0.401292 0.858299
0.105488 0.841083 -0.424939
0.117985 -0.834943 0.440644
0.105427 0.841340 -0.424786
0.530335 0.840956 0.012515
0.505887 0.000952 -0.861076
0.531482 0.841994 0.012104
-0.320358 -0.416674 0.364040
0.540028 -0.021398 0.008738
-0.298517 0.418398 -0.417723
0.528293 0.840581 0.014445
-0.297242 0.418454 -0.416765
0.119458 -0.833599 0.442753
-0.738271 0.002904 -0.408147
0.086827 -0.845337 -0.439837
0.521165 0.426904 0.418573
-0.322515 -0.852131 -0.015359
0.106336 0.840907 -0.423829
0.542244 -0.022479 0.013502
0.513030 0.397752 -0.413131
0.102362 -0.457090 -0.864759
-0.323115 -0.413909 0.365155
-0.734089 -0.021170 0.425314
0.086289 -0.847389 -0.438463
0.512709 0.396659 -0.412752
0.539939 -0.021372 0.011918
-0.319249 0.448251 0.406235
0.526674 0.006132 0.845006
0.120703 -0.834197 0.440860
-0.745430 0.422647 0.005196
0.450975 -0.397457 -0.424742
0.508019 0.000900 -0.861778
-0.766568 -0.475511 -0.015078
0.520791 0.427669 0.418081
0.106154 0.841324 -0.425816
0.483566 -0.841466 -0.019704
0.523743 -0.416758 0.438739
0.521738 -0.414522 0.437546
0.508576 0.001093 -0.861235
-0.321738 -0.414930 0.365009
0.507779 0.000762 -0.862619
0.100821 -0.458534 -0.865542
-0.321907 -0.852756 -0.014848
-0.310864 0.876550 0.016924
0.521254 0.428210 0.417817
-0.312108 0.013948 -0.834005
-0.310795 0.875099 0.017755
0.118764 -0.833782 0.441958
-0.764489 -0.477510 -0.012340
-0.315407 -0.007984 0.846958
0.100539 -0.458398 -0.866404
-0.740303 0.000727 -0.409277
-0.311487 0.013127 -0.833749
0.512861 0.396303 -0.411572
-0.318745 0.445788 0.408891
0.511013 0.398540 -0.414112
-0.740058 0.001934 -0.408330
0.117728 -0.834500 0.439223
-0.746696 0.421996 0.005756
-0.733527 -0.020507 0.425824
-0.739129 0.000241 -0.410305
0.522379 0.425641 0.417349
-0.746981 0.422767 0.006564
-0.315456 -0.008128 0.846623
-0.768843 -0.475743 -0.012200
-0.283450 -0.393486 -0.407078
0.539800 -0.023042 0.010873
0.512366 0.399673 -0.411895
0.087749 -0.845975 -0.439269
0.107844 0.840978 -0.425407
0.100618 -0.457033 -0.865686
-0.767274 -0.476555 -0.013075
-0.768416 -0.475689 -0.013327
-0.324433 -0.852226 -0.016558
-0.748275 0.421580 0.005117
-0.309338 0.874709 0.016940
-0.280354 -0.391505 -0.407762
0.539821 -0.021663 0.012050
-0.741775 0.002630 -0.406943
-0.316104 -0.009004 0.847114
-0.766632 -0.477361 -0.013104
