OFF
256 0 0
0.538758 -0.235328 -0.440762
0.539030 -0.234542 -0.441111
0.539514 0.536891 -0.442028
-0.620716 -0.234365 0.717009
0.538919 0.539048 0.330204
-0.622776 0.152354 0.331877
-0.621428 -0.235815 0.717660
-0.234711 0.539643 -0.440995
0.152593 -0.621495 -0.442061
0.539382 0.152250 0.716962
-0.621004 0.537899 -0.054391
0.152539 0.537255 -0.055068
-0.233519 -0.233463 -0.441491
-0.235232 0.152288 0.717927
0.539064 0.538965 -0.443447
-0.234750 0.537527 -0.442949
0.152726 0.537775 -0.056714
0.151552 -0.236436 0.718555
0.151819 -0.235230 -0.828786
-0.620871 -0.233467 -0.054180
-0.620576 -0.234206 -0.054447
-0.622004 0.151919 -0.442423
0.151644 0.538293 -0.054703
0.539362 -0.234783 0.331007
-0.235452 -0.621168 0.718184
-0.234239 -0.621390 -0.055171
-0.622394 -0.234984 -0.055625
-0.619861 -0.232953 0.718325
-0.234487 -0.622193 0.717372
-0.620924 0.150854 -0.441614
0.152369 -0.620847 -0.442220
0.151016 -0.621583 -0.443151
0.151493 0.538442 -0.054177
0.152585 -0.621327 0.330370
-0.622147 0.150854 0.332785
0.154661 -0.620048 0.331137
0.152380 -0.235393 -0.829702
0.151625 -0.235190 0.717850
0.152661 -0.623427 0.331580
0.150378 -0.622005 -0.441933
0.154329 0.539439 -0.055722
0.152175 -0.621554 -0.442481
0.539039 0.151580 -0.053790
-0.621232 -0.622086 0.331809
-0.234486 0.150833 0.718686
0.537714 -0.235581 0.330354
-0.235058 -0.236996 -0.442680
-0.233948 0.151022 0.718894
0.537360 -0.234957 0.331068
-0.235684 0.152583 -0.829551
-0.235012 -0.621631 -0.054688
-0.235540 -0.234235 -0.441517
0.539293 0.151001 -0.054526
0.153275 -0.235417 -0.828562
-0.620800 -0.621659 0.331179
-0.234990 -0.235733 -0.438800
0.153061 -0.620322 0.332093
0.538568 -0.622164 -0.057293
0.537692 -0.622655 -0.055774
0.537811 0.150144 0.720162
-0.234747 0.153584 0.719441
0.538839 0.152209 -0.829875
-0.621773 -0.234934 -0.055271
0.538462 0.153174 -0.053616
0.153062 -0.235827 0.715847
-0.620797 0.152875 0.331413
0.538193 0.538806 0.330762
0.152201 0.539434 0.719112
0.540576 -0.234167 -0.441453
0.537586 0.538524 -0.441063
0.151894 -0.620306 0.330082
0.150853 -0.621075 -0.441817
0.538764 0.150945 -0.055791
-0.235221 0.538338 -0.440690
-0.235988 0.150804 0.717781
0.152533 0.537878 -0.057744
-0.234628 -0.621952 0.718233
0.538186 0.154064 -0.055726
-0.233114 0.537761 0.331919
-0.236401 -0.233939 -0.441578
-0.622725 0.151611 0.332014
-0.620299 0.153125 0.331331
0.537272 0.151184 -0.056377
-0.618150 0.153321 0.333496
0.151364 -0.235812 -0.827562
0.538303 0.151851 -0.829318
0.152669 0.537480 -0.828534
0.538996 0.153301 -0.055085
0.540498 -0.234400 0.331057
0.537920 -0.621400 -0.054486
0.538947 -0.233060 0.330113
0.538794 0.152273 -0.055135
0.538323 -0.234459 0.331752
0.151588 -0.235733 0.716378
0.150265 0.539293 -0.055549
0.151680 0.536964 -0.827943
-0.621201 -0.622325 0.334155
-0.237566 0.152741 -0.829626
-0.622311 -0.233868 0.720194
-0.233884 -0.622602 0.717136
0.540400 -0.624025 -0.053896
0.538574 -0.234852 -0.441158
-0.621180 0.151274 -0.442936
0.151553 -0.234624 0.719240
0.152489 -0.234509 -0.829670
0.537739 -0.234713 -0.441255
-0.621098 -0.234720 -0.054581
-0.233252 0.539185 0.330933
-0.620523 0.540119 -0.055194
0.150657 -0.236195 0.717010
0.153443 -0.621754 0.332036
-0.622709 -0.236789 0.717210
0.539084 0.153305 -0.828611
-0.621184 -0.235841 0.718060
0.152172 0.538329 0.717201
-0.235228 -0.622901 -0.055854
-0.622462 0.539040 -0.055259
0.538462 0.151075 -0.828201
-0.621614 0.152959 0.331636
-0.233544 -0.233680 -0.442830
-0.620661 0.150122 -0.441106
-0.233705 0.151284 -0.828371
-0.621572 -0.620974 0.329921
-0.235082 0.538098 -0.442185
-0.620913 -0.621096 0.332024
-0.620496 -0.622316 0.331439
-0.622035 0.152683 -0.442905
0.150993 -0.235060 -0.829207
-0.235576 0.149767 -0.827857
0.540074 0.152486 -0.829796
0.538124 -0.235763 -0.442168
-0.235967 0.538648 -0.442049
0.152451 -0.235002 -0.829595
0.154777 0.536787 -0.830115
0.151438 -0.234255 0.718201
0.537896 -0.235010 0.332117
-0.234068 -0.621193 0.718670
0.152434 -0.235765 -0.826439
0.540113 0.537840 0.332313
0.537924 0.152712 -0.056093
0.538575 -0.236675 -0.440441
-0.619803 0.150241 0.332744
0.539448 0.151669 -0.055325
0.539094 0.150947 -0.828881
-0.234285 -0.622721 -0.054992
0.151276 0.537872 -0.828735
0.152922 -0.620309 -0.442366
-0.235622 -0.234328 -0.439403
0.150407 -0.622920 -0.442325
0.537421 0.149281 0.718905
-0.622120 -0.235134 0.717956
-0.621611 0.540902 -0.055779
0.153609 -0.235680 -0.828758
-0.234100 0.536786 0.332321
0.151038 -0.234795 0.717342
-0.235573 0.152062 0.717911
-0.621802 0.151800 0.331878
0.152529 0.539870 0.718688
0.538974 0.153364 0.719649
0.151886 -0.622066 0.331349
0.539006 0.153673 0.718011
0.538374 0.539269 -0.441197
0.538084 0.538247 0.331196
0.538200 0.151547 0.718589
-0.620786 0.151055 0.331369
-0.622757 0.150530 -0.440960
0.538467 0.153460 -0.829509
-0.234402 -0.621749 0.716611
-0.623003 -0.621731 0.331870
-0.234776 -0.620516 0.719221
0.153377 -0.236905 0.718473
-0.620460 -0.620790 0.333763
-0.234860 0.150173 -0.829643
-0.622077 -0.623008 0.331059
0.151078 -0.621753 -0.441447
0.540201 0.152179 -0.831381
-0.621251 -0.622082 0.331435
0.538939 -0.233433 0.331736
0.151640 0.538307 0.719342
0.539327 -0.235657 -0.443201
-0.235110 0.539198 -0.442128
-0.234958 -0.623240 -0.055156
0.538385 0.150113 -0.827547
0.539606 -0.235353 0.329000
-0.235143 -0.621369 0.717277
-0.234001 -0.621586 0.717664
0.150627 -0.234719 -0.829859
-0.234284 -0.233590 -0.441666
0.151634 0.538881 -0.829112
-0.622477 -0.235795 0.717551
0.538343 0.152416 -0.828639
-0.236008 0.538759 0.330816
0.539233 -0.234159 -0.442469
-0.234990 0.537042 -0.443283
0.151945 -0.621703 0.331830
-0.620319 0.536858 -0.055275
0.539917 -0.622194 -0.054631
0.150647 -0.235927 -0.828410
0.539614 -0.620943 -0.055784
0.539218 -0.234970 0.330564
-0.236354 0.541495 0.332673
0.539738 0.536386 0.330192
0.149891 -0.621193 -0.442238
-0.622763 -0.233239 0.718519
-0.233870 0.538796 -0.440444
-0.620170 -0.235585 0.719117
-0.235977 -0.621136 0.717906
-0.235040 -0.233416 -0.441981
0.537848 -0.234828 -0.441745
0.540733 0.540098 -0.441107
0.538970 0.539200 -0.442548
0.540526 -0.233199 -0.441011
0.151354 0.539809 -0.055542
-0.620772 -0.621127 0.332280
-0.621965 0.537109 -0.055491
-0.235040 -0.622034 -0.056294
0.151071 -0.236625 0.720634
-0.236255 0.539288 -0.441370
0.150016 0.538507 -0.828052
-0.621663 -0.236645 -0.054692
-0.622370 -0.620751 0.332736
0.538519 0.537093 0.331268
0.538930 0.149370 -0.827852
0.538914 0.151676 -0.055376
-0.234652 -0.620422 -0.055047
0.540314 0.536860 -0.441261
-0.621779 -0.236370 -0.054955
-0.234346 0.540194 0.331097
0.151643 -0.233407 0.718734
-0.234962 -0.621594 -0.054895
0.152286 -0.622267 -0.440660
0.538231 -0.622525 -0.054500
0.538643 0.154509 -0.055785
0.538643 0.152343 -0.828363
0.538886 0.537172 0.330397
0.151823 0.539018 -0.055400
-0.236418 0.539197 0.329882
0.153540 -0.622179 -0.441594
0.537994 -0.235365 0.330900
-0.234165 0.151322 0.718992
0.152960 0.539517 -0.057582
0.151476 0.537669 0.720260
0.153593 0.539674 -0.827652
0.538915 0.537471 0.332199
0.152523 -0.621846 -0.441115
0.538192 0.153000 -0.055087
-0.234720 -0.621145 0.718108
-0.620439 0.150159 -0.441270
0.540055 0.537751 -0.442152
0.540192 -0.234935 -0.441672
-0.236065 0.538983 -0.442879
-0.621731 -0.233728 0.718149
0.536889 0.539720 0.331895
-0.234895 -0.621598 0.717587
0.537860 0.538150 0.333910
0.150269 -0.233294 0.717028
