OFF
256 0 0
-0.221925 0.543624 0.326588
-0.606935 -0.611382 0.303754
-0.237005 -0.599269 0.731103
-0.617213 0.550018 -0.059643
-0.203641 -0.212328 -0.411433
-0.625296 0.136742 0.316824
0.149084 -0.185724 -0.828897
0.541403 0.157622 -0.819721
0.504640 -0.231301 0.327815
-0.238706 0.140654 0.712552
-0.627500 -0.244296 -0.072475
-0.616690 0.550924 -0.058551
0.548727 0.564139 -0.451045
-0.236240 -0.598055 0.728542
0.564304 -0.650446 -0.046516
-0.222088 0.545066 0.324662
-0.227270 0.152525 -0.830661
0.520832 0.141985 -0.057062
0.139953 -0.224201 0.721618
0.119881 0.525235 -0.068311
-0.625084 0.135725 0.318127
0.147060 0.532362 -0.822788
0.169713 -0.607528 -0.441171
0.140178 -0.223879 0.722015
-0.219244 -0.608815 -0.038380
-0.234788 -0.596353 0.728962
0.506341 -0.231439 0.326553
0.501966 -0.229280 0.327523
0.542413 0.144769 0.708801
0.516766 0.533899 0.326294
0.120779 0.524649 -0.067330
0.516956 0.532893 0.326924
0.522032 0.143483 -0.056646
0.548529 0.563772 -0.451052
0.548088 0.564715 -0.451496
-0.624485 0.137352 0.318902
0.541214 -0.246353 -0.431219
-0.617281 0.550306 -0.057931
0.506069 -0.231881 0.326205
0.118082 0.525902 -0.068766
-0.227277 0.152863 -0.831193
-0.626317 0.161519 -0.438973
0.522177 0.142860 -0.056287
0.539977 0.157652 -0.822576
-0.625596 0.137679 0.317702
-0.623901 0.136790 0.315800
-0.253629 0.528977 -0.450732
0.172524 0.510031 0.732101
0.521900 0.143098 -0.057143
0.147801 -0.185289 -0.829410
-0.644473 -0.258290 0.721331
0.539698 0.158510 -0.821355
0.522903 0.140747 -0.058363
0.521695 0.141505 -0.056284
0.564760 -0.651622 -0.047347
-0.617249 0.549240 -0.057710
-0.627687 0.158324 -0.440240
0.540856 -0.246117 -0.429137
-0.220301 -0.611900 -0.038362
-0.608356 -0.612696 0.304052
0.521355 0.140976 -0.057358
0.140375 -0.222090 0.721016
-0.235033 -0.598794 0.728218
-0.251965 0.530429 -0.449596
0.539280 0.158006 -0.819175
0.138909 -0.221421 0.721670
-0.606772 -0.611436 0.304756
0.119440 0.524785 -0.069360
-0.626449 0.135355 0.315756
0.167352 -0.640559 0.343921
0.541534 0.144008 0.706302
-0.608831 -0.611551 0.305482
0.148142 0.530790 -0.823272
-0.237670 0.141373 0.715543
-0.624754 0.136495 0.318050
-0.627265 -0.244168 -0.072769
-0.624889 -0.243494 -0.075311
-0.221365 0.546409 0.329545
0.541939 -0.246782 -0.429935
0.170133 -0.611098 -0.440975
0.505729 -0.230440 0.327320
0.542174 0.145121 0.708048
-0.644335 -0.259388 0.721400
0.175979 0.510727 0.732638
0.165007 -0.641215 0.342066
-0.237967 0.139864 0.714863
-0.217114 -0.611881 -0.037997
0.165435 -0.640961 0.342754
0.118208 0.523720 -0.067980
0.538785 0.158449 -0.820650
0.172541 0.510002 0.732886
0.139709 -0.222099 0.720488
-0.219469 -0.612506 -0.037880
0.517057 0.533703 0.326675
0.540584 0.146318 0.707362
0.171586 -0.608582 -0.442896
0.541629 -0.245565 -0.430315
0.521603 0.142015 -0.056734
0.505833 -0.230229 0.328079
-0.617593 0.549290 -0.059211
0.119080 0.526510 -0.069629
0.541080 0.159615 -0.819848
0.119228 0.524160 -0.067703
-0.607920 -0.611392 0.303663
-0.229718 0.152188 -0.831857
0.166019 -0.643349 0.341017
0.540744 -0.244681 -0.430367
-0.204321 -0.212262 -0.411688
-0.624303 0.138139 0.318301
0.170492 -0.607678 -0.442236
0.548671 0.564403 -0.449988
0.515915 0.534399 0.327832
-0.201989 -0.210488 -0.411803
-0.625060 -0.243839 -0.075672
0.520572 0.140670 -0.057273
0.565860 -0.651122 -0.046357
0.119274 0.523676 -0.067172
0.174070 0.511854 0.733582
0.549420 0.565099 -0.450508
-0.626762 0.159540 -0.439873
-0.608805 -0.612659 0.303815
0.540548 -0.246027 -0.431657
-0.645828 -0.259289 0.720814
0.167952 -0.640370 0.342436
0.539861 0.145880 0.706567
0.522752 0.141925 -0.057059
-0.608913 -0.611459 0.305259
-0.238590 0.140260 0.714368
0.166166 -0.643498 0.343055
-0.617815 0.549913 -0.057373
-0.254298 0.530863 -0.451662
-0.643398 -0.258894 0.720093
0.518007 0.531096 0.325834
0.147343 0.529957 -0.824093
-0.625190 0.136480 0.316511
-0.624756 0.137488 0.316096
-0.202930 -0.212899 -0.411154
-0.203874 -0.213236 -0.410765
0.516883 0.532088 0.326410
-0.643284 -0.258405 0.723089
-0.624748 0.136144 0.316048
0.540874 0.145030 0.708593
0.546633 0.564200 -0.450242
0.173863 0.508744 0.734979
0.149086 -0.187788 -0.828479
0.541641 0.144296 0.707427
0.522233 0.141946 -0.056953
-0.616937 0.550608 -0.058647
-0.236943 0.139988 0.711607
0.543687 0.143564 0.706812
-0.643950 -0.258273 0.720977
-0.218375 -0.613017 -0.036941
0.173091 0.509736 0.734578
0.138871 -0.223476 0.724302
-0.222115 0.545658 0.325074
-0.228305 0.151623 -0.831488
-0.203363 -0.213008 -0.409464
0.540318 0.159440 -0.820583
0.540185 0.146289 0.707033
-0.253588 0.528443 -0.449443
0.503655 -0.230214 0.327502
0.147338 0.532099 -0.825368
0.164740 -0.642601 0.343187
-0.221154 0.544565 0.326223
-0.222619 -0.610380 -0.039309
-0.222327 0.544307 0.327226
-0.222129 0.545183 0.329113
0.550117 0.565140 -0.451385
-0.609886 -0.613485 0.305632
0.147800 0.532103 -0.825565
0.165955 -0.642197 0.341699
0.506496 -0.230095 0.326506
0.541877 0.144897 0.707310
-0.235001 -0.598125 0.730055
-0.627974 -0.242076 -0.072457
-0.607154 -0.612929 0.304343
0.147961 0.532639 -0.824870
0.542381 0.145720 0.707797
0.540702 0.146598 0.708102
0.139651 -0.220976 0.721741
0.149189 -0.186681 -0.827772
-0.625056 -0.242388 -0.073235
0.566269 -0.650082 -0.045967
0.515148 0.533911 0.326114
-0.219170 -0.611185 -0.037634
-0.624749 0.159588 -0.438789
0.147028 0.532202 -0.825702
-0.608048 -0.612664 0.303272
-0.221475 0.546709 0.328090
-0.205917 -0.212694 -0.410851
0.540593 0.159200 -0.816454
-0.252561 0.528899 -0.450115
0.542828 -0.245751 -0.430374
0.541434 0.159403 -0.822824
0.165675 -0.643340 0.344722
-0.616846 0.548929 -0.057980
0.505090 -0.230141 0.326147
-0.642618 -0.258367 0.720853
-0.625956 -0.243286 -0.073241
-0.625685 -0.242994 -0.075489
-0.626056 -0.244215 -0.072518
-0.253631 0.528899 -0.447988
-0.609043 -0.610882 0.303531
0.139512 -0.222951 0.721765
0.565502 -0.649613 -0.048149
0.174071 0.509618 0.734979
0.564830 -0.650150 -0.045571
0.521340 0.141050 -0.058856
0.119921 0.524466 -0.067426
-0.219096 -0.611552 -0.036926
0.170704 0.511548 0.733595
-0.252861 0.529339 -0.449589
0.168281 -0.641640 0.342624
-0.229074 0.151077 -0.831110
-0.238223 0.139132 0.711782
0.146077 0.534286 -0.824007
0.172829 0.511295 0.733966
-0.220277 -0.612481 -0.038734
0.506101 -0.232035 0.324194
0.541713 0.143753 0.708586
0.148217 -0.185095 -0.827143
0.171228 -0.608544 -0.443438
-0.229401 0.151515 -0.831336
-0.238008 0.141848 0.711890
-0.235051 -0.598778 0.729523
0.542353 0.144080 0.708230
0.119790 0.523513 -0.067130
0.120893 0.523887 -0.068281
0.169881 -0.608722 -0.439353
-0.218031 -0.611388 -0.038252
0.541281 0.145284 0.707855
-0.619590 0.548979 -0.056906
0.548529 0.562801 -0.450165
-0.219143 -0.613463 -0.038942
0.522914 0.141044 -0.056857
0.565103 -0.651838 -0.045817
-0.227802 0.149660 -0.832168
-0.203708 -0.211572 -0.411911
0.173023 0.510246 0.733218
0.523122 0.143243 -0.057395
0.118532 0.525606 -0.069642
-0.624318 0.138093 0.314900
0.147298 0.530544 -0.824787
0.167160 -0.642149 0.340874
0.540240 0.160229 -0.820180
0.520505 0.140030 -0.057797
0.171123 -0.609803 -0.442011
0.166203 -0.641949 0.344314
0.168965 -0.640914 0.342668
0.541191 -0.247628 -0.430105
0.171538 -0.608083 -0.442470
-0.643371 -0.258541 0.720943
-0.253430 0.528592 -0.450338
-0.236898 0.139451 0.712703
-0.227138 0.150803 -0.830479
-0.220904 0.545315 0.326128
