OFF
256 0 0
0.528410 0.538712 0.310705
0.527594 0.537529 0.309621
-0.255140 -0.246966 -0.447517
-0.253562 -0.245856 -0.445346
0.163358 0.526838 0.708536
-0.226699 0.562722 0.331312
-0.227283 0.563527 0.330091
0.557272 -0.246948 -0.476753
0.557083 0.144854 0.733571
0.525422 0.134907 -0.834325
0.142217 0.554333 -0.035809
0.573264 -0.241001 0.350701
0.155011 0.528218 -0.833469
-0.639228 0.148112 -0.445336
-0.596475 0.563858 -0.069611
0.154631 0.529263 -0.831949
-0.229202 0.563143 0.331301
-0.627300 -0.225801 0.737294
-0.625938 -0.225349 0.736181
0.536186 -0.595432 -0.049195
-0.222211 0.128722 -0.839932
0.520823 0.124403 -0.046210
0.558099 -0.245607 -0.478342
-0.610500 0.150915 0.299988
-0.213253 0.530764 -0.438089
0.519063 0.123297 -0.047710
-0.231407 0.151803 0.704864
0.529078 0.538470 0.309975
0.496038 0.526753 -0.438227
-0.611535 0.153276 0.298782
0.149692 -0.625831 0.359071
-0.613006 -0.595163 0.339216
0.496473 0.526235 -0.440392
0.558628 0.144596 0.735127
-0.611299 -0.594140 0.337813
0.155343 0.528392 -0.834299
0.519537 0.124175 -0.047511
0.165389 0.526383 0.709350
-0.595623 0.560946 -0.070417
-0.230877 0.149554 0.703928
0.573434 -0.239856 0.350635
-0.609868 0.152319 0.299072
-0.641872 0.148134 -0.444586
0.173102 -0.230449 0.716915
-0.240348 -0.615416 0.743706
-0.640150 0.145104 -0.444266
0.518953 0.123421 -0.046591
0.166685 0.524904 0.710295
0.495712 0.524849 -0.437916
0.525140 0.135977 -0.834663
0.527439 0.136899 -0.834344
-0.624564 -0.224457 0.737516
-0.232133 0.151689 0.703407
0.494825 0.529614 -0.436127
-0.612782 -0.597468 0.340160
-0.610721 -0.596139 0.338961
0.147262 -0.626612 0.358157
0.528290 0.538331 0.311865
-0.612629 -0.594800 0.338031
-0.640733 -0.232908 -0.058897
0.165130 0.524139 0.711720
-0.212923 0.532175 -0.435898
-0.626690 -0.225998 0.737977
-0.612155 -0.597486 0.338554
0.519119 0.124441 -0.045847
0.168012 0.528258 0.709790
-0.612487 -0.596186 0.337979
-0.626470 -0.224139 0.736793
0.574451 -0.241024 0.348965
0.557860 -0.248595 -0.478471
0.529477 0.538262 0.309646
-0.220461 0.127379 -0.837382
0.145021 0.555039 -0.036394
-0.638718 0.147101 -0.444686
-0.640962 0.147309 -0.446336
0.151528 -0.608191 -0.424316
0.171823 -0.230242 0.713679
-0.252049 -0.600457 -0.058954
0.556735 0.146421 0.736275
0.495744 0.526952 -0.438448
0.526976 0.136214 -0.835249
0.149235 -0.624996 0.356814
0.167239 0.526617 0.711078
-0.594272 0.563747 -0.070591
0.557549 -0.244398 -0.476917
-0.231930 0.149240 0.703627
-0.253367 -0.603167 -0.060777
-0.639483 0.148987 -0.445799
0.557274 -0.245575 -0.476959
-0.612799 -0.594318 0.337990
-0.227802 0.562998 0.331757
-0.253109 -0.246663 -0.448233
-0.240663 -0.616222 0.743895
0.558630 -0.246938 -0.477478
-0.221834 0.127139 -0.836630
0.535836 -0.598182 -0.049894
0.154282 0.528207 -0.834743
-0.638530 0.146395 -0.443857
0.137045 -0.246275 -0.838784
-0.597627 0.563214 -0.070552
0.172290 -0.230562 0.714295
0.165448 0.525582 0.709335
0.147625 -0.627178 0.357606
-0.595331 0.561902 -0.068655
-0.595352 0.561504 -0.069330
-0.624965 -0.226073 0.735972
-0.627206 -0.225405 0.738237
0.556387 0.144887 0.735150
0.527707 0.537196 0.309880
0.575410 -0.239176 0.348075
0.527424 0.134626 -0.832587
-0.612854 -0.594624 0.338692
-0.240861 -0.616190 0.743927
0.495580 0.527037 -0.438087
0.573602 -0.238558 0.348798
0.520945 0.123822 -0.046030
-0.625935 -0.226386 0.738876
0.527602 0.133591 -0.835576
-0.231248 0.150071 0.702399
-0.241309 -0.616204 0.744051
0.144875 0.555013 -0.035975
0.136806 -0.247133 -0.839667
-0.611530 0.151956 0.299413
-0.254443 -0.246368 -0.447731
0.519445 0.124905 -0.046456
0.524488 0.136243 -0.834066
-0.610643 0.151997 0.299340
-0.640836 0.147732 -0.444011
-0.230035 0.151550 0.703084
-0.240671 -0.618199 0.744128
-0.227287 0.562548 0.330837
0.557784 -0.247350 -0.476889
-0.241139 -0.615640 0.741800
0.520184 0.122849 -0.046179
0.530327 0.538061 0.310076
-0.640234 0.147888 -0.445170
0.135880 -0.246165 -0.839272
-0.252164 -0.602148 -0.059277
-0.626319 -0.225445 0.737001
0.520503 0.125217 -0.046894
0.574545 -0.239331 0.349598
-0.221118 0.128891 -0.836542
-0.625847 -0.226269 0.739253
0.518400 0.125057 -0.046553
-0.231062 0.150111 0.702452
-0.608718 0.151911 0.300539
0.166135 0.525851 0.709993
-0.610936 0.151415 0.299629
0.529563 0.539328 0.309698
0.556826 -0.245416 -0.478155
-0.637908 0.149048 -0.444267
-0.255696 -0.247419 -0.446893
0.573819 -0.240519 0.349153
-0.232030 0.149008 0.701736
0.535082 -0.596286 -0.048348
-0.255750 -0.246923 -0.447704
-0.641261 -0.233087 -0.058085
0.572198 -0.240307 0.347850
-0.641602 0.148555 -0.444982
0.170859 -0.231047 0.715938
-0.253982 -0.246728 -0.447305
-0.230242 0.149752 0.704785
0.557343 -0.245416 -0.477488
0.525119 0.135824 -0.835820
0.519914 0.124575 -0.046046
0.520277 0.122797 -0.045770
0.152559 0.531695 -0.835186
0.526471 0.135888 -0.833061
-0.228621 0.562440 0.330671
0.526043 0.133736 -0.835363
0.166811 0.528123 0.710408
0.165763 0.526952 0.708948
0.135547 -0.246524 -0.836788
-0.240099 -0.615296 0.744201
0.534768 -0.598844 -0.049260
-0.213490 0.529885 -0.436490
0.525163 0.134691 -0.835156
0.535900 -0.597173 -0.049711
-0.229400 0.150038 0.704664
0.154932 0.528562 -0.833851
-0.642120 -0.233106 -0.059490
0.143336 0.554460 -0.039624
0.166616 0.525789 0.709000
-0.612442 -0.595288 0.338511
0.494392 0.526967 -0.436895
-0.213424 0.531261 -0.436055
0.573650 -0.237871 0.347097
0.173039 -0.231404 0.716121
0.149567 -0.627707 0.358810
-0.254500 -0.245471 -0.447192
-0.211030 0.530589 -0.435734
0.527843 0.537604 0.310502
0.165308 0.526569 0.712267
-0.594297 0.562015 -0.070330
0.148144 -0.627150 0.358627
0.496725 0.527855 -0.439052
0.557992 -0.245836 -0.477436
0.572634 -0.242709 0.348939
-0.627840 -0.223806 0.736408
0.134462 -0.247187 -0.838372
-0.642143 -0.232803 -0.059414
0.147546 -0.625256 0.359166
-0.609032 0.152553 0.299676
-0.251736 -0.599054 -0.060320
-0.642268 -0.230353 -0.059510
0.574194 -0.239820 0.348865
0.136470 -0.247322 -0.839403
-0.611850 -0.595737 0.337940
-0.596259 0.562223 -0.070623
-0.221503 0.127143 -0.836087
-0.255235 -0.247399 -0.446501
0.526319 0.135869 -0.835934
0.558939 -0.247374 -0.478989
0.573009 -0.240851 0.347525
0.496375 0.526365 -0.439060
-0.639824 -0.232894 -0.058725
-0.626855 -0.224485 0.736705
-0.211295 0.529653 -0.435396
-0.211158 0.530041 -0.435376
0.536783 -0.596969 -0.048354
0.495200 0.526735 -0.437704
-0.254114 -0.245828 -0.448299
0.153161 -0.606059 -0.421653
0.148339 -0.626665 0.357993
0.556105 0.146454 0.736935
0.495900 0.527197 -0.439169
-0.596665 0.561804 -0.069314
0.534789 -0.596332 -0.047534
-0.643492 -0.230933 -0.059866
0.533865 -0.596881 -0.048175
0.555576 -0.247091 -0.475670
-0.227765 0.563939 0.331690
0.529907 0.537609 0.311457
0.146528 0.554821 -0.037243
-0.230334 0.150271 0.703175
0.144349 0.554545 -0.038441
-0.640275 0.149087 -0.445210
0.537108 -0.596830 -0.047535
-0.225340 0.562304 0.329048
-0.627286 -0.225682 0.738023
-0.211342 0.529973 -0.436748
-0.227854 0.563740 0.329699
-0.638921 0.148020 -0.443848
0.173170 -0.231386 0.716812
-0.232040 0.150872 0.704044
-0.212489 0.531190 -0.437780
-0.596780 0.563891 -0.069952
-0.227244 0.562486 0.331072
-0.641518 -0.231784 -0.059504
-0.213305 0.529960 -0.437009
-0.641700 0.149873 -0.446439
0.153994 0.527686 -0.834215
-0.611093 0.151103 0.299694
0.143935 0.554089 -0.038002
0.557091 0.145723 0.734852
-0.229159 0.150932 0.702910
