OFF
256 0 0
-0.171122 0.808609 0.209752
0.239357 -0.696009 -0.148366
-0.172387 0.448509 0.612619
0.239446 -0.698461 -0.149786
-0.520838 -0.326111 -0.515317
-0.124578 -0.708721 0.255848
-0.512434 -0.701583 -0.136450
-0.529990 -0.326030 0.228508
0.606363 0.036219 0.229750
0.611924 0.059468 -0.522686
0.197103 0.418394 0.224116
-0.543343 0.048416 0.609198
-0.136413 -0.317474 0.613249
0.217649 0.423734 -0.526605
-0.137207 -0.315925 0.611840
0.631784 -0.352565 -0.140492
-0.548959 0.069998 -0.144583
-0.172607 0.449028 0.612635
0.605910 0.031813 0.228534
-0.135304 -0.709750 -0.550661
-0.121700 -0.707578 0.256724
0.198150 0.419191 0.223508
-0.124700 -0.707387 0.256336
-0.548615 0.071541 -0.144017
-0.135717 -0.318311 0.612914
-0.172470 0.448773 0.613347
-0.526941 0.810693 -0.172792
-0.172981 0.449084 0.613102
-0.173235 0.448261 0.613508
-0.133713 0.816960 -0.538274
-0.174521 0.448154 0.613642
-0.521347 -0.322740 -0.517875
0.638189 -0.729132 0.241443
-0.136464 -0.316689 0.612243
0.590665 -0.336149 0.607256
0.229091 0.068230 0.606418
-0.521465 -0.324060 -0.517580
0.225117 0.821422 -0.147846
0.217587 0.424769 -0.526891
-0.136361 -0.710819 -0.552698
0.611057 0.060332 -0.523815
0.639540 -0.728761 0.241099
-0.124119 -0.708049 0.256220
0.607170 0.033670 0.229189
0.638536 -0.727553 0.241757
0.218015 0.423230 -0.526678
0.630845 -0.354466 -0.140700
0.223685 -0.292388 -0.502965
0.239585 -0.697427 -0.149012
-0.150150 0.057412 -0.545202
0.606476 0.457339 -0.151958
-0.512866 -0.702599 -0.136613
0.631027 -0.353946 -0.142569
0.609018 0.060135 -0.522508
0.230941 0.065629 0.606885
-0.172893 0.807707 0.210144
-0.521638 -0.325992 -0.517868
0.641761 -0.730056 0.241416
-0.527231 -0.326776 0.226923
0.238109 -0.697723 -0.149090
-0.525858 -0.329168 0.227607
-0.136083 -0.318219 0.611208
0.608933 0.454787 -0.154072
-0.171460 0.808547 0.209368
0.639021 -0.729508 0.241183
-0.172665 0.448592 0.613164
-0.134584 -0.707645 -0.550649
0.198271 0.417496 0.222743
0.238449 -0.697870 -0.149463
-0.136132 -0.708908 -0.549684
-0.135702 0.816258 -0.536694
0.590279 -0.335734 0.605868
-0.544753 0.441378 0.224073
-0.171849 0.450120 0.615737
0.231537 0.065058 0.607076
-0.527053 -0.326631 0.229824
-0.546452 0.440314 0.226489
0.223756 -0.291526 -0.502976
-0.541686 0.046919 0.607029
0.606572 0.455210 -0.154955
-0.134742 0.816172 -0.536666
0.590920 -0.335453 0.607160
-0.519631 -0.322199 -0.517574
-0.513417 -0.701701 -0.139094
-0.137756 -0.708112 -0.547642
0.239751 -0.697143 -0.149455
-0.544203 0.441617 0.224270
0.198233 0.419135 0.224139
-0.526860 -0.327547 0.228022
0.198398 0.418458 0.223580
-0.134973 0.815739 -0.537053
-0.521009 -0.324916 -0.518983
0.223357 -0.292129 -0.505359
-0.525546 0.810809 -0.172216
-0.135884 -0.317695 0.610441
-0.123319 -0.707024 0.256756
-0.519990 0.435956 -0.536992
0.606413 0.456225 -0.153244
-0.547157 0.441732 0.224277
0.592128 -0.336710 0.607570
-0.542601 0.048253 0.607823
-0.171454 0.808134 0.207910
0.248149 -0.716801 0.622580
0.224799 0.820442 -0.151812
0.606742 0.453598 -0.155140
-0.549306 0.069401 -0.143225
-0.136009 -0.707009 -0.549173
0.245037 -0.718018 0.626981
-0.137373 0.814986 -0.535670
0.631377 -0.354532 -0.142320
0.245440 -0.718002 0.626449
-0.149523 0.056874 -0.542392
0.246447 -0.717059 0.625082
0.592382 -0.335131 0.605937
0.219851 0.423635 -0.526243
0.198468 0.418799 0.223984
0.639480 -0.729297 0.241400
0.223629 -0.292488 -0.503145
-0.520446 -0.326189 -0.517972
0.629710 -0.354777 -0.142191
0.200292 0.417112 0.223755
-0.174307 0.449266 0.616678
-0.138236 -0.318178 0.611491
0.245306 -0.716009 0.624472
0.630965 -0.354643 -0.142319
0.630164 -0.353155 -0.141390
0.240083 -0.697366 -0.148981
0.608154 0.455290 -0.152659
0.591962 -0.336275 0.606674
-0.520448 -0.325977 -0.519085
-0.170679 0.807525 0.209646
-0.549179 0.070640 -0.142652
-0.528898 -0.328630 0.225506
0.225554 0.821072 -0.149142
0.230750 0.066752 0.605625
0.606552 0.456949 -0.154063
0.605978 0.453359 -0.153911
-0.148543 0.054573 -0.543761
0.610004 0.059252 -0.524852
0.224547 -0.292455 -0.503807
-0.169199 0.808631 0.207948
-0.520627 -0.325103 -0.516402
-0.171710 0.809021 0.209323
-0.544285 0.047478 0.607679
0.225073 0.822517 -0.148986
0.609990 0.060217 -0.522617
-0.136020 0.816974 -0.535515
0.199116 0.418209 0.223603
-0.172207 0.807592 0.210861
0.217222 0.424974 -0.527454
-0.133889 -0.317324 0.613395
0.222432 -0.292565 -0.503515
-0.544773 0.440947 0.223266
0.218800 0.425148 -0.526972
0.631657 -0.354362 -0.141423
0.594451 -0.335844 0.606249
-0.542609 0.047674 0.607201
0.228530 0.064442 0.607319
-0.522248 -0.324572 -0.518685
0.247361 -0.716294 0.624468
0.241246 -0.696217 -0.149501
0.605159 0.034957 0.229723
0.239516 -0.694979 -0.148410
-0.544908 0.441986 0.222826
0.224579 0.822745 -0.149894
0.604355 0.034326 0.229107
0.605598 0.456981 -0.153632
0.604734 0.034406 0.228919
0.226641 0.821016 -0.148731
-0.544313 0.440958 0.225669
-0.549592 0.071771 -0.143215
-0.518471 0.434019 -0.537447
-0.519989 0.435525 -0.536427
0.591824 -0.335248 0.606313
-0.133437 0.817831 -0.536461
0.641021 -0.728932 0.244065
-0.520741 0.435584 -0.537681
-0.123139 -0.708389 0.257307
-0.521668 -0.324031 -0.517512
0.224796 0.821492 -0.149107
0.221979 -0.292848 -0.504441
-0.521803 -0.325549 -0.519602
0.630506 -0.353007 -0.142272
-0.135733 0.816864 -0.535571
-0.518867 0.436201 -0.539253
0.218969 0.422878 -0.526474
0.223574 -0.293056 -0.504352
-0.522006 -0.322983 -0.518864
-0.550069 0.069813 -0.143312
-0.148295 0.056504 -0.543054
0.225307 0.821857 -0.148867
-0.519262 0.434496 -0.538434
0.231561 0.065724 0.606475
0.639454 -0.729431 0.239903
-0.520387 0.435041 -0.537021
-0.547790 0.069508 -0.144733
0.241294 -0.696218 -0.147835
-0.519070 0.436298 -0.535303
0.231156 0.065694 0.608094
0.229646 0.065707 0.606462
-0.525079 0.811751 -0.173774
-0.548488 0.070708 -0.144648
0.226201 0.821014 -0.149094
0.198360 0.418677 0.223631
0.239758 -0.695412 -0.148239
0.246558 -0.716447 0.625397
0.245659 -0.717294 0.624153
-0.138174 -0.317185 0.610879
-0.544211 0.046971 0.607806
-0.547554 0.070771 -0.142509
-0.171624 0.450398 0.613207
-0.121813 -0.709149 0.258958
-0.136499 -0.317786 0.613072
-0.172155 0.447547 0.610460
0.218009 0.425132 -0.525461
0.218566 0.423477 -0.528093
0.605463 0.035156 0.231073
-0.544985 0.441456 0.222383
0.591728 -0.336575 0.605714
-0.135385 -0.710178 -0.550551
0.221643 -0.290873 -0.502565
-0.551319 0.069498 -0.144597
-0.134639 -0.709593 -0.547892
-0.510938 -0.701936 -0.135231
0.228618 0.065979 0.606296
0.638895 -0.728107 0.242143
-0.542953 0.046863 0.607225
0.609405 0.059076 -0.522944
-0.545962 0.440914 0.222979
-0.522504 -0.324001 -0.517505
-0.544436 0.442260 0.226873
-0.544827 0.440443 0.224773
0.218404 0.420729 -0.526679
-0.527044 -0.327542 0.228707
-0.542184 0.046266 0.606744
0.225417 0.823592 -0.149272
-0.527160 0.809679 -0.170390
0.629438 -0.353602 -0.140814
0.631359 -0.354523 -0.141327
0.197392 0.419485 0.225996
-0.171159 0.449482 0.613903
0.225990 0.821672 -0.147911
-0.522372 -0.324228 -0.517891
-0.519761 0.437023 -0.537262
0.228464 0.065517 0.605998
-0.527104 -0.328728 0.227339
0.221976 -0.292105 -0.504161
-0.547088 0.070390 -0.142784
0.639964 -0.728567 0.242301
-0.544301 0.047578 0.607426
0.609267 0.059389 -0.525036
0.605670 0.034166 0.230593
-0.136852 -0.709634 -0.548318
0.219576 0.424715 -0.526526
0.222176 -0.293277 -0.503696
-0.170746 0.449859 0.613755
