OFF
256 0 0
-0.159027 0.834261 0.244670
0.621510 0.057470 -0.549440
0.604574 -0.707960 0.230547
-0.147959 -0.338172 0.605750
-0.163983 -0.722090 -0.558437
0.225855 -0.350422 -0.554253
-0.532299 0.054404 0.614151
0.620302 -0.325922 -0.165961
-0.146708 0.460681 0.629186
-0.524496 0.063261 -0.152841
0.621552 0.058520 -0.548510
-0.559434 -0.331718 -0.553204
0.238024 0.061525 0.638981
-0.141970 0.840906 -0.518718
-0.155673 0.041256 -0.525233
0.239024 0.061601 0.637717
0.230925 0.449206 -0.531410
0.240973 -0.727147 -0.156576
0.604661 -0.332259 0.624234
0.239469 0.062888 0.638344
0.240907 -0.730652 -0.158052
0.603646 -0.332173 0.624394
0.604599 -0.707904 0.233139
-0.526449 0.824530 -0.129478
0.603618 -0.333717 0.624820
0.243794 0.424394 0.222100
0.230584 0.450436 -0.530076
-0.564225 0.429779 -0.536959
0.618803 -0.326183 -0.163159
-0.147648 0.461121 0.629126
0.621758 0.058091 -0.548066
0.260614 0.846586 -0.149090
0.622147 -0.327180 -0.163415
-0.524040 0.062242 -0.150607
0.622480 0.061061 -0.549119
-0.525060 0.824097 -0.130460
0.241618 -0.729265 -0.157015
0.225097 -0.350161 -0.554055
0.231737 0.450689 -0.531855
-0.528286 0.452361 0.246952
-0.142298 0.841170 -0.519101
0.239611 0.062690 0.642030
-0.561353 -0.332276 -0.553564
0.605093 -0.709480 0.233774
0.622728 0.057966 -0.548843
-0.527731 0.823609 -0.131018
0.621408 0.055543 -0.548156
0.227297 -0.350648 -0.553694
0.233392 0.450352 -0.530908
-0.139814 0.840576 -0.518494
0.233991 -0.732338 0.641234
-0.146373 -0.337702 0.603717
0.261616 0.847461 -0.149888
-0.146178 0.461620 0.628682
0.239846 -0.730706 -0.156572
-0.537968 -0.719080 -0.171837
-0.141005 0.838296 -0.518732
0.234396 -0.731486 0.640893
0.234745 -0.731488 0.642271
-0.532293 0.051830 0.615391
-0.526192 0.825193 -0.130124
-0.564064 0.428590 -0.536864
0.618582 -0.325885 -0.163602
0.604536 -0.331298 0.623743
0.607050 -0.708830 0.232785
-0.148818 0.460676 0.629111
-0.534717 0.054347 0.615399
0.241293 -0.730037 -0.156140
-0.522481 0.063371 -0.152074
0.223800 -0.349998 -0.553267
-0.561889 -0.333223 -0.553522
-0.555627 -0.328924 0.255864
0.243207 0.422966 0.221762
-0.161233 -0.721792 -0.558116
0.619198 -0.325798 -0.163159
-0.527047 0.825008 -0.131315
0.242620 0.424282 0.221834
0.620074 -0.325621 -0.163113
0.225494 -0.349823 -0.552705
0.605601 -0.331313 0.624672
-0.560979 0.430285 -0.537049
0.232507 0.448877 -0.533115
-0.145819 0.460034 0.628622
0.606935 -0.709599 0.230723
-0.524447 0.064206 -0.150203
-0.148376 -0.336457 0.603332
0.604895 -0.707194 0.230958
0.240945 0.423035 0.219999
0.603549 -0.333682 0.627017
0.605515 -0.330686 0.624744
-0.556738 -0.330140 0.255462
-0.160350 -0.721218 -0.556510
-0.163715 -0.720539 -0.559359
-0.147243 -0.335596 0.605586
-0.152858 0.042210 -0.525075
-0.147849 0.459951 0.627865
-0.533036 0.052206 0.614873
-0.561469 -0.331646 -0.551629
-0.561614 0.427871 -0.534803
-0.528828 0.453158 0.245788
-0.149579 -0.724747 0.219984
0.241487 0.421830 0.222932
0.232256 0.451895 -0.529307
-0.529146 0.452652 0.248878
-0.526184 0.826106 -0.130626
-0.160370 0.833690 0.243806
-0.523522 0.063885 -0.151229
-0.557687 -0.327027 0.257618
0.240118 -0.730907 -0.156288
0.622905 0.057608 -0.548007
0.242302 0.424689 0.223617
-0.560895 0.428796 -0.538326
0.226068 -0.351162 -0.553165
0.605290 -0.708277 0.232424
0.607122 -0.709055 0.231915
0.621090 0.058592 -0.548474
-0.148107 0.460595 0.629418
0.635647 0.049945 0.230142
0.237906 0.062381 0.639529
0.605292 -0.708499 0.233028
0.604381 -0.331235 0.626197
-0.531832 0.052230 0.616613
0.224625 -0.349399 -0.553784
0.606489 -0.709568 0.229934
0.618139 -0.326985 -0.163975
0.259668 0.849018 -0.148822
0.234323 -0.729149 0.640711
0.260050 0.847887 -0.150342
-0.150427 -0.724124 0.219997
-0.161814 0.833079 0.245940
0.603961 -0.707749 0.230959
0.233817 -0.732544 0.641924
0.636149 0.048476 0.231153
0.261760 0.848909 -0.148957
0.621768 -0.326348 -0.163854
0.635884 0.048774 0.231268
-0.525469 0.063171 -0.151375
0.238221 0.061432 0.638570
-0.557030 -0.329127 0.256100
-0.142461 0.839925 -0.518920
0.231718 0.450417 -0.531856
-0.561560 0.431422 -0.538129
-0.161148 0.833418 0.245374
0.242667 0.422668 0.219957
-0.532877 0.053528 0.615031
0.234155 -0.731396 0.639887
-0.523712 0.065460 -0.151863
-0.146693 0.459790 0.631813
-0.541045 -0.717480 -0.172155
-0.141267 0.841837 -0.518904
0.633675 0.049827 0.230801
-0.562382 -0.332434 -0.551762
0.635902 0.050603 0.232919
0.239899 0.062707 0.640203
-0.540535 -0.719237 -0.173472
-0.163936 -0.722490 -0.558795
-0.560634 -0.333740 -0.550236
0.242421 0.422891 0.221975
-0.146517 0.460332 0.628638
0.638395 0.449025 -0.156199
-0.540189 -0.720288 -0.172147
0.232791 0.450783 -0.531199
-0.561637 -0.333262 -0.552031
0.640741 0.446689 -0.153160
-0.557287 -0.330533 0.256214
-0.534034 0.052759 0.614138
-0.562039 0.431192 -0.536357
-0.526113 0.825330 -0.132543
-0.527014 0.823074 -0.130440
0.232523 0.452309 -0.529969
-0.523897 0.064710 -0.152491
-0.142059 0.839442 -0.520395
-0.162911 0.834419 0.245467
-0.149392 -0.725019 0.221729
0.240209 -0.730997 -0.157068
-0.164995 -0.721388 -0.560734
0.235964 -0.732647 0.638914
0.243301 0.423537 0.220907
-0.533105 0.053383 0.615424
0.608270 -0.708037 0.232471
-0.150321 -0.336708 0.605659
-0.147519 0.460887 0.629397
0.604120 -0.330693 0.624099
-0.149925 -0.725026 0.221112
0.602131 -0.332081 0.625374
0.233556 -0.730941 0.640364
-0.525907 0.064543 -0.152030
-0.150623 -0.726129 0.221251
0.243548 0.424034 0.220402
0.621227 -0.325567 -0.162848
0.621210 0.058286 -0.549585
0.603835 -0.331498 0.623976
-0.560497 -0.333195 -0.552878
-0.528432 0.825160 -0.129003
-0.534386 0.053605 0.615543
0.622733 0.059118 -0.549129
-0.163244 -0.721054 -0.560009
-0.163508 -0.719102 -0.558059
0.640859 0.446689 -0.154852
-0.530056 0.454058 0.245872
0.620460 -0.325853 -0.164204
-0.556883 -0.329080 0.254728
-0.148570 0.462525 0.630694
0.226472 -0.347716 -0.553140
0.240584 -0.728024 -0.157603
0.241964 0.424523 0.221565
0.237896 0.062494 0.638887
0.622054 0.058085 -0.548653
-0.531527 0.054083 0.615523
-0.142970 0.839081 -0.519147
-0.151315 -0.724644 0.219858
0.604382 -0.332381 0.625616
0.241411 0.423566 0.221440
0.232799 -0.732153 0.640807
0.260763 0.847969 -0.148889
0.241428 -0.730123 -0.158447
-0.149109 -0.337080 0.606097
0.238507 0.062661 0.639172
-0.163694 -0.721027 -0.558662
-0.160964 0.835556 0.243675
0.233615 -0.730291 0.639203
0.232022 0.449537 -0.532451
0.236650 0.062937 0.638126
0.241174 0.422308 0.222610
-0.527630 0.825388 -0.130026
0.239930 -0.729576 -0.155427
-0.162249 0.834571 0.245848
-0.540494 -0.719266 -0.171573
0.639521 0.447610 -0.153858
0.261972 0.849537 -0.147348
0.635152 0.050018 0.231183
-0.139797 0.841235 -0.520020
0.640636 0.447111 -0.153483
0.604966 -0.332417 0.626055
-0.528012 0.454078 0.246203
0.225846 -0.350434 -0.554787
0.240231 0.061271 0.640477
-0.161961 0.831339 0.244775
0.639993 0.449019 -0.153746
-0.164109 -0.721599 -0.557115
0.643004 0.448459 -0.156234
0.635788 0.049045 0.231303
0.602437 -0.331976 0.625213
-0.148553 -0.336758 0.605843
-0.149086 -0.336405 0.604104
-0.154523 0.040610 -0.525837
-0.557807 -0.329408 0.254925
-0.142016 0.840200 -0.519938
-0.564036 0.430982 -0.537359
-0.148532 0.462837 0.628469
-0.148361 -0.336324 0.603399
0.620217 -0.325735 -0.164944
-0.528356 0.453197 0.245860
-0.556049 -0.330039 0.257030
0.242138 0.421370 0.221313
0.231520 0.448891 -0.531309
