OFF
256 0 0
0.612898 -0.716127 0.237789
0.619264 0.046520 -0.541296
-0.163607 -0.695592 -0.508547
0.585452 0.033722 0.194873
0.237460 -0.707052 0.606708
-0.541311 0.450229 0.235712
-0.178192 0.795901 0.221359
0.613355 -0.715170 0.237935
-0.521197 -0.315051 -0.489272
0.238248 -0.708869 0.609149
0.611184 -0.305167 0.587079
0.215595 0.448227 -0.517534
-0.540776 0.449155 0.239910
-0.137435 0.064245 -0.491053
-0.521354 -0.312720 -0.490734
-0.159549 0.821117 -0.548980
0.231603 0.437844 0.217386
0.232468 0.438653 0.216799
-0.510759 -0.302319 0.237421
0.584872 0.032370 0.196193
-0.179849 0.796752 0.221309
0.219239 -0.719176 -0.161058
0.226853 -0.312893 -0.503527
0.206325 0.813357 -0.160706
-0.509211 -0.302106 0.237263
0.628102 -0.339197 -0.159435
-0.179706 0.795877 0.223619
-0.542834 0.449319 0.238378
-0.521240 0.834256 -0.145238
-0.177641 0.794489 0.223614
-0.520298 -0.314957 -0.490208
0.619547 0.047056 -0.540575
-0.512071 -0.695202 -0.139094
0.615019 -0.716245 0.237274
0.612693 -0.717187 0.238986
0.231474 0.437947 0.215524
-0.138378 -0.345370 0.592483
-0.137970 -0.343101 0.592364
0.611068 -0.305194 0.587109
-0.138181 -0.344319 0.592135
-0.163479 -0.693662 -0.507788
-0.135705 -0.716327 0.227349
-0.134541 -0.716255 0.225981
0.620117 0.044536 -0.538960
0.239055 -0.706883 0.609004
-0.510010 0.443407 -0.517271
-0.513268 -0.695148 -0.137231
0.220315 -0.719274 -0.161905
-0.154557 0.415691 0.587044
-0.520623 -0.314757 -0.489931
-0.517006 0.026915 0.621469
0.231646 0.437629 0.217770
0.610387 -0.304074 0.586862
-0.514147 -0.696056 -0.138236
0.205317 0.813635 -0.159882
-0.543737 0.448893 0.239602
0.618032 0.045093 -0.536944
0.624007 0.438902 -0.151574
-0.523421 0.835530 -0.146537
-0.134027 -0.716540 0.225288
-0.535857 0.032861 -0.132571
0.207631 0.814168 -0.157999
0.612821 -0.717460 0.239195
0.584726 0.034730 0.194985
0.206695 0.814490 -0.162007
-0.508594 -0.302332 0.236124
0.627399 -0.340669 -0.159498
0.213798 0.446398 -0.517292
0.221382 -0.717782 -0.163346
0.627212 -0.339795 -0.161350
0.208541 0.813754 -0.161564
-0.135607 -0.716583 0.226529
-0.138608 0.065801 -0.489637
-0.138063 -0.342413 0.591547
-0.139132 0.064057 -0.490336
0.220675 0.067941 0.595181
-0.178017 0.798023 0.223003
0.231614 0.438396 0.218757
-0.522557 -0.315126 -0.490348
-0.138478 0.065542 -0.491772
0.613623 -0.716733 0.239480
-0.534897 0.032466 -0.131425
-0.139146 -0.343821 0.594062
-0.137903 0.064214 -0.491635
-0.540320 0.450780 0.237359
0.222032 0.068922 0.592914
-0.521514 -0.317703 -0.490829
0.222476 0.067947 0.593008
-0.515357 -0.695166 -0.136996
-0.139549 -0.344699 0.593312
0.623057 0.439123 -0.148870
-0.140319 0.065468 -0.489785
-0.519470 0.027101 0.620066
-0.155578 0.413002 0.586113
0.618119 0.045141 -0.538731
0.237421 -0.708102 0.608436
-0.508723 -0.301344 0.238863
0.582053 0.034065 0.192966
-0.517641 0.026127 0.619220
0.617241 0.045589 -0.540991
-0.542012 0.449463 0.238466
-0.542138 0.450662 0.238167
0.231178 0.437415 0.218099
0.225501 -0.311041 -0.503879
-0.158367 0.820808 -0.549173
-0.520264 -0.316724 -0.489547
-0.137527 -0.343341 0.593091
-0.517995 0.026784 0.619753
0.612559 -0.306494 0.587477
-0.520453 -0.314995 -0.489904
0.611647 -0.308343 0.586631
-0.518511 0.026568 0.618941
0.221886 -0.718436 -0.160880
-0.509743 0.441153 -0.519159
0.618493 0.046487 -0.539070
-0.139362 -0.345060 0.593353
0.205891 0.814508 -0.160293
-0.521001 -0.315387 -0.488097
0.612006 -0.716362 0.238456
-0.162111 -0.694040 -0.508378
-0.154130 0.412365 0.586253
-0.159816 0.821561 -0.551739
0.226116 -0.312207 -0.504092
0.619603 0.044471 -0.540425
0.617076 0.044944 -0.538789
0.208186 0.813142 -0.159300
0.215237 0.446619 -0.519220
0.220516 -0.718583 -0.161805
-0.139627 0.064095 -0.490914
-0.509251 0.440955 -0.518257
-0.520917 -0.316783 -0.489361
0.614439 -0.715649 0.238113
0.219440 0.067521 0.591556
-0.180806 0.795422 0.223865
-0.523095 0.833882 -0.144244
-0.137748 -0.342958 0.591922
-0.511430 0.441371 -0.518538
0.622624 0.439790 -0.149055
-0.542101 0.449864 0.238979
-0.522412 0.833191 -0.146177
0.231904 0.436749 0.217121
-0.178590 0.796742 0.221986
-0.163423 -0.693931 -0.508734
0.219789 -0.718858 -0.162970
-0.513034 -0.694721 -0.137901
-0.524112 0.834845 -0.144965
0.624353 0.437576 -0.149834
-0.163077 -0.693828 -0.509492
0.209530 0.814989 -0.161125
-0.519797 -0.315702 -0.490808
0.226409 -0.312201 -0.503643
0.218202 -0.718397 -0.161512
0.213898 0.446628 -0.517825
-0.179519 0.795906 0.222090
-0.176886 0.794871 0.221136
0.224827 -0.312046 -0.505657
0.238632 -0.707015 0.607244
0.618952 0.044816 -0.539446
-0.542450 0.450062 0.236326
-0.540371 0.449857 0.238230
0.233297 0.439264 0.216939
0.619150 0.045945 -0.540308
0.220698 -0.719881 -0.162079
0.207802 0.814230 -0.161601
0.622195 0.440262 -0.150817
-0.522831 0.833861 -0.145576
-0.138980 -0.343615 0.592083
-0.516638 0.026777 0.618422
0.612030 -0.304803 0.589246
0.222380 0.068237 0.593480
0.614253 -0.716479 0.238038
0.616908 0.045240 -0.538378
-0.542172 0.450488 0.237295
-0.510477 0.443049 -0.517963
-0.178341 0.795500 0.223714
0.220406 -0.719761 -0.161663
0.206643 0.814106 -0.159754
0.623550 0.439828 -0.150501
-0.542820 0.449830 0.238692
0.616721 0.044715 -0.539474
0.214754 0.446804 -0.519322
-0.507448 0.441374 -0.518162
0.206844 0.812388 -0.160652
-0.177601 0.796146 0.222077
-0.541401 0.450757 0.237239
-0.522620 -0.315492 -0.489009
-0.507566 0.439269 -0.517819
-0.136348 -0.341561 0.594275
-0.519612 0.027869 0.619618
0.612172 -0.304884 0.586942
0.223938 0.070118 0.592303
0.626855 -0.339793 -0.159404
-0.534552 0.031812 -0.133115
-0.542124 0.451817 0.237714
0.220808 -0.719481 -0.162054
-0.523917 0.834549 -0.143564
-0.512625 -0.695685 -0.138122
0.219649 -0.718542 -0.160476
0.207087 0.815057 -0.161673
0.622880 0.440168 -0.151701
0.627061 -0.341809 -0.160439
-0.509818 0.441463 -0.518041
-0.510028 0.441724 -0.518315
-0.520729 0.833604 -0.145368
-0.136746 -0.715951 0.229017
-0.534558 0.032248 -0.132158
0.609423 -0.305113 0.586830
-0.509754 0.442367 -0.519676
-0.136356 -0.344103 0.592185
0.611314 -0.305538 0.587531
-0.542750 0.449570 0.238417
0.207348 0.814318 -0.160488
0.221277 -0.718259 -0.161696
0.219039 -0.718583 -0.160873
-0.536124 0.032353 -0.132167
-0.533818 0.032901 -0.131748
-0.508272 0.442905 -0.520641
0.612514 -0.304962 0.586519
-0.159442 0.821824 -0.550629
0.627757 -0.340260 -0.160128
0.583826 0.035252 0.194850
0.224707 -0.310771 -0.501512
-0.138236 0.064323 -0.491003
-0.508271 -0.303021 0.236979
-0.512446 -0.695093 -0.135857
0.622411 0.439157 -0.151236
-0.511689 -0.697509 -0.138327
0.219392 -0.718741 -0.163574
-0.521255 0.834263 -0.142715
-0.508717 0.442047 -0.519266
-0.178482 0.795633 0.221890
-0.522780 0.837602 -0.143867
-0.159711 0.819075 -0.550089
-0.518229 0.026228 0.619295
0.222995 0.066915 0.592709
-0.136603 -0.343093 0.594616
0.612982 -0.715585 0.239924
0.610825 -0.305205 0.587811
-0.511561 -0.695555 -0.135423
-0.509969 -0.301116 0.237957
-0.507292 -0.302138 0.236612
-0.521876 -0.314919 -0.490840
0.222071 0.068451 0.593809
0.208349 0.814198 -0.158740
-0.541674 0.449152 0.238035
-0.521808 0.832778 -0.144967
0.611697 -0.302738 0.586175
-0.508698 -0.300266 0.238255
0.584064 0.035226 0.194101
-0.136139 -0.717733 0.226467
-0.517645 0.029006 0.618584
0.222193 0.066326 0.594530
-0.160350 -0.695649 -0.509119
0.214242 0.446367 -0.516516
0.612414 -0.303014 0.588714
0.230290 0.437907 0.217528
