OFF
256 0 0
0.294060 0.758991 0.168485
-0.168707 0.294021 -0.757213
0.294133 0.293584 -0.293474
-0.167996 0.756478 -0.295765
0.294357 -0.168386 -0.758562
0.294754 0.295105 0.630055
0.294770 0.295056 0.629471
0.293419 0.294437 -0.294946
-0.630408 -0.166641 0.170664
-0.169115 0.294086 -0.758413
-0.168723 -0.633584 0.168512
0.294114 -0.631477 -0.293977
-0.629690 0.758350 0.166586
-0.630645 0.293857 -0.295379
-0.630029 -0.631064 -0.296566
-0.630431 0.757230 0.169574
0.295878 0.756530 0.167730
-0.630538 0.295004 -0.293208
-0.630439 -0.169713 0.166631
-0.632455 -0.168046 0.167650
0.294100 0.757260 0.170245
0.293534 0.757120 0.168513
-0.170079 -0.168303 0.631809
-0.168706 0.756357 0.629042
0.759522 0.293977 0.167239
-0.168158 0.756893 0.631933
0.294529 -0.631909 0.632037
-0.166928 0.756917 -0.295661
-0.632279 -0.168004 -0.756655
0.294988 -0.632694 0.630997
-0.167204 -0.630661 0.168242
0.757324 0.294200 0.168486
-0.168280 -0.166300 0.630395
0.757088 -0.633099 0.167059
-0.168606 0.756504 -0.292549
0.758321 0.294933 0.165986
-0.167979 0.294436 -0.757716
0.294654 -0.632873 -0.295130
0.296023 -0.168552 -0.758048
-0.630071 -0.630100 -0.294210
-0.168835 -0.630799 0.169572
0.293140 -0.631367 0.631680
-0.633056 0.293825 -0.296611
-0.630886 -0.629680 -0.295425
-0.630432 0.294748 0.632630
0.296169 0.293578 -0.295598
-0.631467 -0.631958 -0.294640
0.292871 0.294252 0.631335
-0.633211 -0.169136 0.167411
-0.630695 0.293798 -0.295216
0.293775 -0.631012 -0.293970
-0.168611 -0.630079 0.170505
0.293898 -0.631301 0.630391
0.293104 -0.168090 -0.757590
-0.630812 -0.166832 0.170386
-0.630265 0.294981 -0.294723
-0.169569 -0.631574 -0.756434
0.296518 0.295575 0.630971
-0.168036 0.756797 0.630911
0.294493 0.757317 0.166908
-0.630717 -0.166487 -0.756461
0.292799 -0.168462 -0.757768
-0.630583 0.756316 0.169822
0.758334 0.295441 0.167832
-0.169902 -0.631982 0.170117
0.293857 -0.631857 -0.295150
-0.169388 0.758033 0.633002
-0.630019 0.293806 -0.293044
-0.630408 -0.170293 0.168305
-0.632063 -0.630561 -0.296359
-0.169520 -0.169235 0.631080
0.293237 0.291375 0.629905
-0.631100 0.756945 0.168443
-0.169717 0.294709 -0.758762
-0.168498 -0.631842 0.168801
0.295336 -0.168970 -0.757852
-0.631025 -0.168874 -0.756211
0.294189 -0.168064 -0.756506
0.293480 0.292403 0.630650
0.756367 -0.630507 0.169031
0.757745 -0.629039 0.169479
0.754919 -0.168912 -0.295016
0.755912 -0.167275 0.631247
-0.630649 0.293636 -0.294358
-0.170793 0.758134 0.631789
-0.629427 0.293754 -0.293981
-0.632608 0.758390 0.166828
0.757982 -0.169376 -0.294745
-0.630997 -0.168289 -0.758505
0.757687 -0.167421 0.630562
0.294644 -0.632967 0.630170
-0.169175 0.756627 -0.292747
-0.631862 -0.630595 -0.294166
0.293349 -0.630435 0.630357
-0.631711 -0.630168 -0.295259
-0.169790 0.758810 0.630378
-0.631838 0.296046 -0.294275
-0.629880 -0.169846 0.171515
-0.168937 -0.631389 0.169038
-0.168573 0.755922 0.629992
0.295366 0.293400 -0.294801
0.294323 0.295823 -0.292729
-0.629768 0.294244 -0.295072
-0.168234 -0.631422 -0.757132
0.759814 0.294405 0.168187
-0.630259 -0.629789 -0.294397
-0.169595 -0.168530 0.630855
-0.632088 0.758743 0.167654
0.756802 -0.167471 0.631341
-0.168631 -0.167186 0.631688
0.293235 0.294721 -0.294715
-0.631256 0.757410 0.167602
0.293875 -0.631803 -0.295104
0.757192 -0.168909 0.631031
-0.169834 0.294615 -0.756509
0.756642 -0.630035 0.169387
0.294638 -0.632715 0.631910
-0.630687 0.756287 0.168908
0.294969 0.293337 -0.294102
-0.165415 -0.169037 0.631540
-0.628894 -0.170116 -0.757831
0.757996 -0.167274 -0.295439
-0.169351 0.294131 -0.756189
0.756543 -0.630939 0.166987
-0.169682 0.757311 -0.294699
0.295018 -0.166683 -0.757523
-0.168936 0.293218 -0.757268
0.292488 -0.632639 0.632176
-0.630104 -0.166761 -0.759527
0.757949 0.292790 0.167770
0.757501 -0.167044 0.630620
-0.631355 0.294178 -0.294195
0.294970 0.295579 0.631602
-0.168195 -0.633579 -0.757286
-0.168175 0.755889 -0.294785
-0.167962 0.757101 0.631580
-0.631088 -0.168112 -0.757326
-0.168934 0.758032 -0.293614
0.757285 -0.168056 0.631846
-0.168115 -0.170227 0.631879
0.293223 0.294246 0.632440
0.757598 -0.631729 0.167100
-0.167410 0.294096 -0.756879
0.294824 -0.168278 -0.756387
-0.168600 0.293597 -0.757280
-0.167896 -0.167688 0.630263
0.756548 -0.167161 0.632085
0.756757 0.295233 0.167773
0.757315 -0.167672 0.631784
-0.168922 -0.631509 0.165725
-0.169488 -0.630662 0.168130
0.757449 -0.630910 0.169363
0.294205 -0.629911 -0.295067
0.295246 -0.631281 -0.293780
0.759234 -0.169622 -0.294132
-0.631488 0.757028 0.168776
-0.630972 0.295087 0.630431
-0.630870 -0.629800 -0.295780
-0.167586 0.756468 -0.294812
0.294600 -0.632195 0.632691
0.294952 -0.629472 0.631350
0.758482 -0.169000 0.630188
-0.168279 0.755246 -0.293582
0.295059 -0.630257 0.630179
0.293613 -0.167960 -0.756591
-0.631599 0.295240 0.631971
-0.631848 0.757247 0.167863
-0.167923 0.295380 -0.755583
0.293329 -0.631275 0.629417
-0.632261 -0.167709 -0.758835
-0.167098 -0.630602 -0.758038
0.757864 -0.167291 0.629481
-0.631453 0.756336 0.168804
0.296380 -0.633262 -0.294731
0.295072 0.294760 -0.296378
-0.168079 0.758750 0.631851
-0.630486 0.296259 -0.294846
-0.169480 -0.630871 -0.757418
-0.168771 -0.166746 0.630701
0.293635 0.295144 -0.295166
-0.628883 0.295220 -0.295351
0.293969 0.294866 -0.294520
-0.630763 0.294618 -0.296574
-0.170762 0.294509 -0.757718
0.758299 -0.169097 -0.295086
0.756542 -0.629571 0.169516
-0.168115 -0.167720 0.631409
0.294568 0.756802 0.168868
0.293628 0.757590 0.168798
0.755349 -0.167699 0.629398
0.293568 -0.167494 -0.757060
-0.166604 -0.631265 -0.758073
0.295521 -0.628918 -0.295243
-0.169440 -0.629480 -0.756394
-0.168398 -0.630488 -0.758060
0.757457 -0.629716 0.169096
-0.167431 -0.166935 0.630824
-0.167054 -0.630561 0.168553
0.294292 -0.167528 -0.756745
-0.168549 -0.630386 -0.756631
-0.631618 0.293718 -0.296628
-0.632819 -0.631733 -0.293789
0.294638 -0.631496 0.630967
-0.631892 -0.169763 -0.756968
0.294915 0.756944 0.166982
0.295387 0.294450 0.631007
0.758095 -0.166560 0.630166
0.295802 0.295632 -0.294860
0.755263 -0.632012 0.167754
0.758480 -0.168655 -0.293913
-0.168270 -0.630928 -0.757157
-0.632307 0.294468 -0.293117
0.757720 -0.630744 0.168152
-0.631206 -0.632150 -0.293956
-0.630554 -0.168607 -0.757275
-0.629995 -0.169709 -0.757999
0.293797 0.756854 0.167087
0.294373 0.756697 0.169318
-0.168434 -0.631871 -0.756101
0.293999 0.757784 0.166561
-0.630535 -0.631888 -0.294675
-0.632048 -0.169241 0.168377
0.292121 0.295371 0.632988
-0.629273 0.756138 0.167520
0.293461 0.756611 0.167340
0.758673 -0.169230 0.630610
-0.631245 0.294629 -0.294112
-0.169195 -0.168180 0.629664
-0.630363 0.295188 -0.294677
-0.630970 0.292946 0.630175
0.292982 -0.631757 -0.295061
0.293739 -0.630251 0.632058
-0.168960 0.755535 -0.294443
-0.632276 -0.168649 0.169051
-0.629502 0.294410 0.630644
-0.630702 0.293112 -0.295477
0.757617 -0.629183 0.167410
-0.168536 0.296820 -0.757603
-0.168657 0.757590 0.630215
0.295004 -0.168377 -0.757385
0.293240 0.756549 0.168799
0.758363 -0.168070 -0.294595
0.295042 -0.167380 -0.758286
0.292418 0.294125 -0.295917
0.293775 -0.630912 0.630405
-0.630104 -0.167800 0.166918
-0.168470 -0.629552 -0.755683
-0.629782 -0.166819 -0.756772
0.756735 0.293926 0.168286
-0.631642 -0.167987 -0.756968
0.295608 -0.631739 0.632642
0.754801 -0.168504 -0.294719
0.757022 -0.167522 -0.295009
0.294412 -0.631286 -0.294818
-0.167770 0.295046 -0.757022
-0.630958 0.294252 -0.295773
