OFF
256 0 0
0.746845 -0.162312 0.597554
0.276215 0.264046 0.565259
-0.582775 -0.153616 0.134062
0.746872 -0.164107 0.596185
-0.172079 0.735588 0.595403
0.290553 0.280264 -0.268922
-0.610742 0.278163 -0.269330
0.288412 -0.604387 -0.284820
0.284882 -0.602363 0.570349
-0.607946 -0.159511 -0.717245
-0.172620 0.735267 0.595283
-0.172623 0.731104 0.594547
0.290409 0.280641 -0.271875
-0.609315 0.707931 0.165162
0.715590 0.292357 0.171685
-0.148081 0.261331 -0.717915
-0.194703 -0.593088 0.156918
-0.172392 0.733389 0.594053
-0.151908 0.726469 -0.264878
0.710299 -0.173165 -0.252897
0.275607 0.263879 0.566818
0.275806 0.263952 0.567071
0.709460 -0.173625 -0.250869
-0.170331 -0.142006 0.586142
0.751112 -0.633665 0.185845
-0.156789 -0.584829 -0.701826
-0.610141 -0.618156 -0.272277
0.287497 0.774683 0.144405
-0.172003 0.734554 0.594664
-0.171839 -0.140726 0.588753
-0.193745 -0.592297 0.155838
-0.173240 0.735884 0.595150
-0.147829 0.262802 -0.716450
0.286395 -0.600159 0.571617
-0.610834 -0.158246 -0.717316
-0.611160 -0.616863 -0.273476
0.288006 0.772091 0.143233
-0.195360 -0.592977 0.156836
0.748619 -0.634002 0.183731
-0.156561 -0.585854 -0.699625
0.749930 -0.636530 0.184553
0.285187 -0.602190 0.568634
0.287669 -0.605179 -0.285316
0.715608 0.293636 0.172637
0.288504 0.277481 -0.270321
0.286383 -0.155991 -0.730423
0.286683 0.773741 0.146030
0.275596 0.263425 0.569254
-0.193585 -0.594834 0.155277
-0.156307 -0.585861 -0.701522
-0.617208 0.264757 0.609384
-0.193923 -0.592950 0.155322
0.276669 0.263089 0.566641
-0.609023 -0.617619 -0.274436
-0.581843 -0.152810 0.134989
-0.618574 0.261925 0.609594
-0.583670 -0.153359 0.135029
-0.153867 0.726033 -0.265383
0.275361 0.262324 0.567164
0.289973 0.279049 -0.270887
0.275983 0.262577 0.567141
-0.582337 -0.155228 0.133831
-0.195424 -0.593006 0.155782
-0.153733 0.725900 -0.266161
-0.619392 0.263924 0.610012
0.286270 -0.600551 0.569808
0.287471 -0.156536 -0.730471
0.289508 0.279196 -0.269808
-0.154290 0.725335 -0.265605
-0.610927 -0.157336 -0.717055
0.285973 -0.156624 -0.727793
0.711269 -0.170995 -0.254532
0.284102 -0.601699 0.568626
-0.171752 0.734839 0.595053
-0.149898 0.261483 -0.717758
-0.153838 0.724017 -0.265169
-0.154214 0.723515 -0.266001
-0.194779 -0.591844 0.156216
-0.171885 0.733061 0.593871
0.283676 -0.599491 0.570221
0.749723 -0.634288 0.184018
-0.618477 0.265843 0.607892
0.289065 0.279726 -0.269963
0.290809 0.278020 -0.270865
0.288210 0.771957 0.144869
0.748462 -0.162306 0.595582
-0.170531 -0.141442 0.586389
-0.147211 0.262154 -0.715591
0.289534 0.278007 -0.269101
-0.584596 -0.153552 0.133314
-0.581577 -0.153054 0.136964
0.750649 -0.634695 0.184919
0.288082 -0.155099 -0.730394
0.287545 -0.157079 -0.730666
0.288907 -0.602247 -0.285054
-0.618578 0.264271 0.609407
0.750304 -0.635504 0.184158
0.290441 0.278543 -0.269305
-0.619014 0.263724 0.610399
0.285796 -0.156478 -0.729091
-0.582888 -0.151652 0.134232
-0.150110 0.261827 -0.717193
-0.610542 -0.159961 -0.717203
-0.170032 -0.141540 0.586207
-0.157153 -0.586914 -0.699278
0.709340 -0.174295 -0.253903
-0.146890 0.260037 -0.718140
-0.170047 -0.143880 0.587506
-0.158173 -0.587801 -0.701876
0.273935 0.263228 0.566915
0.746300 -0.162057 0.596931
-0.154532 0.726466 -0.265934
-0.579948 -0.154695 0.134842
0.275946 0.263350 0.566962
0.289552 0.279333 -0.270104
-0.608785 -0.616809 -0.271706
0.284004 -0.601312 0.571664
-0.156452 -0.587449 -0.701483
0.289822 -0.602684 -0.283854
0.288222 -0.602356 -0.284863
0.285749 -0.601221 0.569504
0.285815 -0.155850 -0.728710
-0.171596 0.732627 0.594470
-0.610411 0.710338 0.166525
-0.583739 -0.154481 0.133664
0.288549 0.774683 0.141809
-0.581724 -0.154905 0.134701
-0.154039 0.725062 -0.265223
0.747218 -0.163433 0.597906
0.288282 0.773792 0.145428
-0.609529 -0.618141 -0.273433
-0.610220 -0.618587 -0.274862
-0.155560 -0.586584 -0.700066
0.716210 0.293641 0.173350
0.748861 -0.634161 0.184260
-0.609084 -0.157713 -0.715571
0.747436 -0.162046 0.596481
-0.610185 -0.617392 -0.274258
-0.582685 -0.155159 0.136260
0.289984 0.774514 0.144946
0.289666 0.277594 -0.270784
-0.173187 0.734058 0.595486
0.288608 0.774834 0.143864
-0.611092 0.279938 -0.270709
0.289204 -0.602036 -0.284243
0.290130 0.279315 -0.270106
0.709769 -0.174230 -0.252690
-0.156952 -0.585863 -0.700295
-0.609360 -0.157501 -0.718014
-0.149017 0.260054 -0.717541
-0.610633 -0.158034 -0.718957
-0.170194 -0.141946 0.587191
-0.609473 0.279804 -0.271426
-0.611781 0.279097 -0.269973
0.285595 -0.602361 0.570483
0.292049 0.281713 -0.270977
0.288935 0.277979 -0.271101
0.750425 -0.634039 0.185659
-0.609001 0.709832 0.167011
0.750824 -0.634628 0.184191
-0.153588 0.725416 -0.265726
-0.193586 -0.594255 0.153252
-0.171212 -0.142669 0.587453
0.276809 0.262848 0.567745
0.750341 -0.633701 0.185257
-0.582342 -0.153138 0.136715
-0.194791 -0.592771 0.152228
0.751572 -0.635154 0.182187
-0.618898 0.263967 0.608426
-0.619516 0.263652 0.607635
0.286554 -0.154860 -0.731158
-0.582681 -0.154292 0.135774
0.290501 0.277290 -0.269249
-0.154356 0.724047 -0.265583
0.745173 -0.161577 0.596728
0.289042 -0.602591 -0.284800
0.715513 0.294437 0.173134
-0.158632 -0.585115 -0.699203
0.286213 -0.600694 0.569425
-0.173070 0.734252 0.593636
0.276522 0.263672 0.566179
-0.610903 -0.157042 -0.717339
0.288797 -0.155998 -0.729406
-0.169432 -0.142857 0.587639
0.714928 0.292427 0.173142
0.288852 0.278343 -0.270416
0.716262 0.294112 0.170653
-0.582250 -0.154218 0.135492
-0.173147 0.736493 0.593503
-0.146921 0.263996 -0.718244
-0.157070 -0.584775 -0.698816
-0.611411 -0.157645 -0.718562
0.284312 -0.601606 0.569667
-0.146989 0.260974 -0.717871
0.287442 0.771825 0.144937
0.287262 -0.155301 -0.729364
0.709593 -0.172362 -0.251631
0.289510 0.278455 -0.271919
0.749393 -0.632913 0.183427
-0.617590 0.261817 0.609526
-0.582366 -0.154117 0.134735
-0.611044 0.708473 0.164180
-0.171955 0.733169 0.594547
-0.610050 0.710680 0.165386
0.288825 -0.602257 -0.285236
-0.155486 0.723340 -0.266501
-0.193726 -0.593264 0.154106
0.275333 0.263515 0.565499
-0.172899 0.733741 0.593009
-0.609789 -0.158119 -0.718582
0.716614 0.293053 0.170904
-0.582361 -0.153446 0.134141
0.287175 -0.600937 -0.284621
-0.156866 -0.586045 -0.698892
-0.170780 0.736487 0.595338
-0.609238 0.708969 0.165124
-0.171848 0.735411 0.592780
0.288093 0.277584 -0.269906
-0.168680 -0.142638 0.587514
-0.619273 0.262035 0.609716
-0.155947 -0.586253 -0.702096
0.288572 0.774027 0.142736
-0.609446 -0.159961 -0.717391
-0.609393 0.709194 0.165127
-0.174527 0.732865 0.596253
-0.611016 -0.616419 -0.272580
0.289034 0.278220 -0.269920
0.715755 0.293639 0.173706
-0.582784 -0.153013 0.133702
0.716595 0.294973 0.171313
0.286353 -0.600397 0.569973
-0.619390 0.264605 0.608445
0.714329 0.294883 0.172428
-0.172054 0.736109 0.595122
0.748946 -0.635411 0.184106
-0.172316 0.734310 0.595866
0.290090 0.280543 -0.272326
-0.612924 -0.159425 -0.716205
-0.158819 -0.585263 -0.699918
0.285984 -0.154656 -0.730838
-0.173381 0.734905 0.593839
-0.169781 -0.142895 0.585806
-0.610262 -0.616810 -0.272354
-0.153693 0.723823 -0.265932
-0.609656 -0.616674 -0.272708
-0.148108 0.259528 -0.716989
0.276290 0.263649 0.567488
0.710851 -0.172426 -0.252399
0.290103 -0.601513 -0.283356
0.717165 0.294667 0.172287
0.746095 -0.162480 0.596283
0.284443 -0.155287 -0.729250
-0.608671 -0.616761 -0.272655
0.709125 -0.172798 -0.251854
-0.148263 0.262167 -0.718182
-0.148401 0.261974 -0.716312
