OFF
256 0 0
0.271347 0.293549 0.615960
0.273863 0.293688 0.615596
0.771559 0.294608 0.189090
-0.162680 -0.614232 -0.754996
-0.625249 -0.184865 0.151400
0.768581 0.294111 0.189225
-0.625284 -0.182171 0.152333
0.287579 -0.595946 -0.312580
-0.168852 0.772357 -0.304210
0.736021 -0.169045 0.612302
-0.606513 0.303978 -0.306655
-0.163836 -0.613657 -0.755470
0.292553 -0.170071 -0.776249
-0.589936 0.735043 0.148309
-0.143856 -0.669171 0.184359
0.272657 0.294353 0.617387
-0.184419 -0.199404 0.616881
-0.143892 -0.669836 0.183603
0.734633 -0.168338 0.612114
-0.626202 -0.183525 0.152101
0.736834 -0.169846 0.613365
0.736179 -0.167851 0.612795
-0.636492 0.309915 0.602237
0.753086 -0.605109 0.155759
-0.608222 0.304390 -0.305472
0.740456 -0.136899 -0.277233
0.299365 -0.626792 0.598985
-0.183095 -0.199210 0.617628
-0.174452 0.750484 0.635020
-0.183317 -0.201332 0.616495
-0.144549 -0.670890 0.182849
-0.637871 0.309057 0.599976
-0.182494 -0.199439 0.619027
0.738896 -0.135100 -0.273893
0.290346 0.757489 0.183250
-0.159683 0.285940 -0.741788
-0.614275 -0.168516 -0.721050
-0.607501 0.303909 -0.304354
-0.626889 -0.184436 0.151777
0.738709 -0.136485 -0.279161
0.736443 -0.166873 0.614405
0.737043 -0.170407 0.615552
-0.608742 0.305149 -0.304919
-0.143917 -0.669416 0.182746
0.247961 0.277491 -0.230572
-0.168053 0.772361 -0.304578
-0.162653 -0.614497 -0.756007
-0.163343 -0.614582 -0.755122
0.290164 -0.168951 -0.775025
-0.159296 0.286519 -0.740144
-0.163368 -0.615550 -0.755396
0.269974 0.295002 0.614988
-0.635220 0.309498 0.601892
-0.167478 0.773660 -0.304659
-0.614870 -0.165073 -0.719745
0.739259 -0.135608 -0.275840
-0.624503 -0.183137 0.150183
-0.612919 -0.164703 -0.720585
-0.161963 -0.615420 -0.754336
-0.160152 0.287207 -0.742359
0.297289 -0.628563 0.598750
-0.592135 0.734521 0.145887
-0.166997 0.772067 -0.305814
0.736200 -0.169679 0.612935
-0.168371 0.769357 -0.303526
0.752841 -0.607392 0.155967
0.292113 -0.168708 -0.775228
0.299815 -0.628485 0.600056
-0.624510 -0.183190 0.149916
-0.144531 -0.669495 0.183532
0.739695 -0.133520 -0.275139
-0.176101 0.751529 0.634702
0.749707 -0.607002 0.155591
-0.160166 0.286847 -0.740333
-0.184145 -0.201270 0.618030
-0.615107 -0.643488 -0.273701
-0.626761 -0.183536 0.150870
-0.609479 0.305422 -0.306209
-0.183754 -0.200669 0.617023
0.249262 0.277388 -0.226920
-0.177129 0.751656 0.637063
0.739048 -0.134149 -0.276636
0.751221 -0.604719 0.155351
-0.145694 -0.671065 0.181573
0.247188 0.276368 -0.229818
0.739506 -0.135751 -0.274928
-0.591005 0.736333 0.149440
0.273038 0.292575 0.615673
0.291541 -0.168295 -0.774996
-0.606425 0.305369 -0.304975
-0.183822 -0.200547 0.617868
-0.613307 -0.164974 -0.722235
-0.176016 0.752328 0.634078
-0.608252 0.304319 -0.303937
-0.184263 -0.201697 0.616922
-0.159876 0.288429 -0.742049
0.299418 -0.627436 0.598115
0.284436 -0.593360 -0.311312
0.735804 -0.169202 0.614513
-0.589768 0.735488 0.148635
-0.185873 -0.200993 0.617967
-0.173183 0.751851 0.635546
-0.626527 -0.182564 0.152878
-0.142167 -0.670088 0.183250
0.286753 0.754679 0.183483
-0.174041 0.752299 0.636513
-0.613230 -0.167030 -0.721071
0.770422 0.294658 0.189490
-0.175380 0.751329 0.636561
-0.616477 -0.164988 -0.720862
-0.606833 0.302962 -0.304688
-0.159504 0.287225 -0.741296
0.741942 -0.134318 -0.275392
-0.175384 0.752626 0.636288
0.738857 -0.134936 -0.276485
-0.589727 0.734199 0.147799
0.768496 0.295041 0.191061
0.287452 0.755731 0.183586
0.297157 -0.629814 0.598454
-0.175378 0.753509 0.635790
-0.177500 0.750744 0.635057
-0.175284 0.752734 0.633607
-0.613943 -0.165428 -0.720929
-0.607405 0.303856 -0.304979
-0.184796 -0.200669 0.619349
0.739802 -0.134122 -0.276421
0.288251 0.755246 0.183795
0.738850 -0.134137 -0.274447
0.288825 0.756484 0.184062
-0.636074 0.309251 0.602193
0.285607 -0.595575 -0.311703
-0.168135 0.771036 -0.304547
-0.609225 0.304321 -0.305386
-0.176437 0.752124 0.636739
-0.167551 0.773095 -0.303887
-0.183611 -0.199882 0.617959
-0.163300 -0.614304 -0.756210
0.737783 -0.170120 0.612654
-0.183776 -0.200414 0.617313
0.734906 -0.169115 0.613399
0.292074 -0.168575 -0.772654
0.285652 -0.594071 -0.312741
0.738993 -0.136455 -0.276296
0.299391 -0.627441 0.598171
-0.613884 -0.165945 -0.720659
0.740332 -0.136687 -0.274790
0.750521 -0.606044 0.155616
0.285050 -0.596087 -0.312844
-0.590046 0.733403 0.146263
-0.175792 0.751695 0.634964
-0.625094 -0.184130 0.152960
-0.185174 -0.199678 0.617181
0.273418 0.291249 0.615746
0.272686 0.292944 0.615030
-0.589239 0.734230 0.148248
-0.615052 -0.644628 -0.274028
0.273135 0.291892 0.615960
0.750544 -0.606436 0.156792
0.272236 0.293653 0.615399
-0.591091 0.734666 0.148111
-0.162850 -0.613877 -0.752825
0.285753 -0.594370 -0.312494
-0.175735 0.753167 0.634218
-0.612920 -0.167213 -0.720253
0.292775 -0.168961 -0.774891
-0.176654 0.752830 0.635741
-0.611993 -0.642234 -0.273702
0.737543 -0.169720 0.612576
-0.174578 0.751887 0.636675
0.288618 0.756200 0.183156
0.752958 -0.607754 0.156090
0.288417 0.756383 0.184739
0.284902 -0.593416 -0.311092
-0.160152 0.287428 -0.741151
0.738884 -0.133538 -0.274963
0.752430 -0.607353 0.154235
-0.164001 -0.613816 -0.755375
0.768895 0.293870 0.188912
0.750919 -0.606492 0.156934
-0.612510 -0.164507 -0.720924
-0.157642 0.287142 -0.742014
0.289440 -0.169943 -0.774204
0.291505 -0.168731 -0.774933
0.285509 -0.594937 -0.311453
-0.615167 -0.163583 -0.720670
-0.611693 -0.163631 -0.721447
-0.590975 0.735161 0.149520
0.285528 -0.594629 -0.312212
-0.182741 -0.200700 0.617989
0.248932 0.278210 -0.227258
0.299568 -0.627861 0.598860
-0.184272 -0.200064 0.620055
0.249520 0.277807 -0.230357
-0.606896 0.304045 -0.305878
-0.607668 0.302201 -0.303448
0.288393 0.756544 0.184108
0.740330 -0.134886 -0.275652
-0.613827 -0.644008 -0.275239
0.769121 0.295676 0.190975
-0.143452 -0.670780 0.183956
0.297322 -0.626782 0.599870
-0.609632 0.305873 -0.304568
0.285146 -0.592882 -0.312853
0.292597 -0.169146 -0.775407
-0.615274 -0.166881 -0.719086
0.290682 -0.169071 -0.774491
0.274006 0.292529 0.616423
-0.590548 0.735572 0.147952
0.736875 -0.169637 0.613851
-0.609573 0.304623 -0.303217
-0.611238 -0.644914 -0.275223
0.769018 0.293486 0.191002
-0.143983 -0.670102 0.182816
0.739101 -0.135813 -0.275794
0.288454 0.757886 0.183177
0.248206 0.278877 -0.227954
0.289205 -0.168743 -0.774845
-0.615187 -0.164902 -0.721107
0.286107 -0.594120 -0.311139
-0.606150 0.304300 -0.303981
-0.590372 0.735950 0.147702
-0.159674 0.285198 -0.741587
0.299538 -0.627046 0.598123
-0.144653 -0.670614 0.183665
0.248566 0.279210 -0.228050
-0.166628 0.771271 -0.304310
0.750966 -0.606470 0.156884
-0.168242 0.772392 -0.303213
-0.183874 -0.201038 0.616581
0.735018 -0.169125 0.612344
0.768739 0.296122 0.188756
-0.142701 -0.670923 0.184306
0.739969 -0.134891 -0.276405
0.273433 0.291312 0.618361
-0.607008 0.305759 -0.304553
-0.162300 -0.613940 -0.756469
-0.626869 -0.182771 0.149948
-0.142903 -0.669790 0.184019
-0.608729 0.303855 -0.304390
0.767794 0.292261 0.188596
0.292585 -0.169564 -0.773834
-0.607384 0.306226 -0.304704
0.298802 -0.628638 0.598285
0.288463 0.756541 0.184406
-0.590100 0.736631 0.145645
-0.614783 -0.167272 -0.720546
0.294549 -0.168643 -0.774130
-0.607912 0.304497 -0.304200
-0.160311 0.286262 -0.740574
0.268859 0.293420 0.616150
-0.162410 -0.616210 -0.755880
-0.614873 -0.167217 -0.720525
-0.144042 -0.671679 0.183576
-0.185119 -0.200664 0.618654
-0.608898 0.303105 -0.304085
0.291164 -0.168851 -0.772860
