OFF
256 0 0
-0.612909 0.639968 0.278639
0.308269 0.599741 -0.621251
-0.606845 -0.271561 -0.621280
-0.184873 -0.275584 0.734971
0.757549 -0.308263 -0.144488
-0.175156 -0.740107 -0.623805
-0.613706 0.639082 0.275149
-0.184572 -0.275588 0.733423
-0.626431 -0.285675 0.297597
-0.168677 0.633890 0.748394
0.280378 -0.782521 -0.159267
-0.623646 -0.285947 0.295315
-0.616560 0.137333 -0.178501
-0.156992 0.604685 -0.153902
-0.622967 -0.287147 0.296959
0.281284 -0.782459 -0.158191
0.759912 0.131974 -0.598791
-0.607316 -0.269675 -0.621140
0.745197 0.189579 0.284084
0.287953 -0.280695 -0.569762
0.286185 -0.278799 -0.569942
0.269747 -0.322290 0.265434
0.765167 0.611551 -0.172702
-0.615067 0.638227 0.276324
-0.175552 -0.741710 -0.622443
-0.635802 -0.736775 -0.195119
-0.183963 -0.274833 0.735771
0.762314 0.612147 -0.173476
0.764565 0.613360 -0.174797
-0.157820 0.606524 -0.153097
-0.139110 0.186333 -0.630547
0.270048 -0.320406 0.265488
0.311638 0.659632 0.321999
-0.616163 0.136748 -0.179362
-0.638461 -0.736137 -0.194865
-0.186150 -0.736409 0.274330
-0.614293 0.639454 0.276228
0.746253 0.189259 0.284959
0.280376 -0.783343 -0.157895
-0.609123 -0.270252 -0.620125
-0.635484 0.189171 0.746594
0.269608 -0.319958 0.265515
-0.185525 -0.736270 0.273988
0.757028 -0.309869 -0.144363
-0.611451 0.636185 0.276249
-0.614972 0.640044 0.275405
0.313554 0.661440 0.321120
0.313982 0.660195 0.323593
0.280551 -0.783794 -0.159343
-0.637061 0.187650 0.747622
-0.185834 -0.737500 0.272600
-0.636954 -0.735031 -0.194579
0.746821 0.189877 0.282884
-0.609208 -0.269600 -0.619531
0.280155 -0.781684 -0.158165
0.764215 0.611467 -0.172417
0.764177 0.612628 -0.173701
0.313327 0.662890 0.322579
-0.168294 0.633061 0.747382
-0.142001 0.189587 -0.630491
0.746910 0.190070 0.281626
0.268987 -0.319230 0.265915
0.260184 0.148822 0.724348
-0.615717 0.135512 -0.178583
0.757673 -0.310331 -0.144942
0.257835 0.147940 0.724069
0.288744 -0.282005 -0.569915
-0.188322 -0.734485 0.274749
-0.175446 -0.740026 -0.622595
0.258758 0.145672 0.722341
0.280082 -0.783199 -0.159028
-0.176235 -0.739172 -0.624321
-0.155390 0.605779 -0.155158
0.760932 0.131497 -0.598473
-0.605972 -0.268833 -0.620169
-0.155465 0.605701 -0.153710
0.258087 0.147403 0.722206
0.268453 -0.319046 0.266116
0.757787 -0.308982 -0.145382
-0.624900 -0.285581 0.296019
0.761938 0.612559 -0.172037
0.286374 -0.281964 -0.569079
0.286765 -0.280909 -0.568273
0.310295 0.600881 -0.622114
-0.182883 -0.275558 0.734764
-0.636688 -0.736114 -0.192790
-0.184049 -0.273362 0.734053
-0.637241 0.187741 0.748732
0.286896 -0.281857 -0.568825
0.759731 0.131543 -0.599364
-0.158032 0.604826 -0.153565
-0.141184 0.188001 -0.632779
-0.139219 0.188788 -0.632378
-0.622011 -0.284951 0.297425
-0.607230 -0.270843 -0.621593
-0.636394 -0.733802 -0.193515
-0.636573 -0.735626 -0.192691
0.757880 -0.308935 -0.145760
0.258572 0.148310 0.721470
0.758450 -0.308294 -0.146570
-0.615036 0.137434 -0.181504
-0.159634 0.605395 -0.153731
-0.622934 -0.288231 0.295647
-0.169290 0.634386 0.749047
0.760568 -0.309174 -0.146831
0.749847 0.190082 0.283782
0.258217 0.147114 0.722269
-0.636674 0.186413 0.746708
-0.624079 -0.285728 0.296512
0.746452 0.189419 0.282352
0.310706 0.601313 -0.620760
-0.614037 0.136779 -0.180485
0.267857 -0.320346 0.265853
-0.637230 -0.735105 -0.192782
0.260929 0.146601 0.721763
-0.636666 0.188910 0.748135
0.258692 0.148217 0.723351
-0.614860 0.136047 -0.179945
-0.185522 -0.736648 0.273958
-0.159318 0.606069 -0.155012
-0.636235 0.188595 0.748382
0.762308 0.610318 -0.173715
-0.624461 -0.285847 0.297636
0.763132 0.611486 -0.171796
0.313075 0.660756 0.323449
-0.183597 -0.276821 0.732368
0.747815 0.190185 0.282687
-0.184598 -0.276232 0.735646
-0.637075 0.186085 0.748500
0.311627 0.661427 0.322281
0.745555 0.191353 0.282226
-0.624823 -0.285505 0.297146
0.759125 0.132019 -0.600317
-0.159123 0.607338 -0.152720
0.758741 0.131652 -0.597657
-0.612868 0.638859 0.277509
0.312108 0.660149 0.325131
0.746964 0.191468 0.284103
-0.614349 0.138263 -0.179203
-0.616753 0.136811 -0.180453
0.311913 0.660182 0.322617
-0.158766 0.605410 -0.154178
-0.188455 -0.735064 0.274655
0.312756 0.659796 0.322051
0.258452 0.147109 0.723996
-0.175233 -0.739583 -0.622216
-0.169917 0.635486 0.746786
-0.156987 0.605971 -0.153161
-0.617145 0.136589 -0.178476
0.259673 0.145795 0.721336
-0.623488 -0.285787 0.297015
-0.611951 0.639696 0.277421
0.760821 0.609969 -0.172456
-0.184907 -0.273110 0.734136
-0.616571 0.137646 -0.180935
-0.187059 -0.735504 0.273818
0.280416 -0.783855 -0.156883
0.307889 0.600543 -0.622717
-0.158749 0.606222 -0.153533
0.258943 0.149639 0.725642
0.287407 -0.280807 -0.568871
-0.157276 0.606006 -0.154415
0.259260 0.148575 0.722003
0.759500 0.129760 -0.598210
0.288133 -0.282375 -0.567866
-0.141039 0.188518 -0.629566
-0.613842 0.639554 0.276359
-0.621983 -0.285732 0.296479
0.758251 0.131300 -0.599530
-0.636978 -0.733593 -0.193306
0.757345 -0.308574 -0.145563
-0.181772 -0.274521 0.734914
-0.183630 -0.272531 0.733762
-0.637908 0.187120 0.749509
0.747407 0.190911 0.285228
-0.607087 -0.272242 -0.620715
0.759283 -0.309051 -0.146703
0.757999 -0.310407 -0.145687
0.281198 -0.781291 -0.157931
0.280123 -0.784353 -0.158873
0.756594 -0.309898 -0.145629
0.287713 -0.280877 -0.570133
-0.635904 0.188066 0.748030
0.308199 0.600281 -0.622317
-0.614213 0.138201 -0.181420
-0.169571 0.636061 0.748438
0.269063 -0.320057 0.264530
-0.616196 0.137985 -0.181185
0.268332 -0.321309 0.266144
-0.635088 0.187379 0.748567
-0.613146 0.638967 0.279337
-0.615624 0.137389 -0.179722
0.259393 0.147214 0.721065
-0.187293 -0.737243 0.272609
-0.614894 0.137296 -0.181111
0.260109 0.148169 0.720910
-0.159204 0.606852 -0.154100
-0.623749 -0.286907 0.295782
0.314773 0.660200 0.322428
-0.142042 0.187143 -0.629469
-0.624999 -0.286556 0.297914
0.313613 0.661048 0.322909
0.269484 -0.318857 0.265860
0.260800 0.145973 0.722706
-0.608444 -0.269416 -0.620715
-0.636308 -0.737280 -0.195140
-0.175276 -0.738730 -0.624158
0.258565 0.150403 0.723416
-0.182953 -0.272865 0.733436
-0.171191 0.633809 0.749380
-0.183000 -0.272352 0.734360
-0.185722 -0.737045 0.272586
0.760609 0.133567 -0.598927
0.757860 -0.309644 -0.143455
0.763324 0.611510 -0.173953
-0.175323 -0.740320 -0.623682
-0.623934 -0.286031 0.297441
0.756841 0.132151 -0.598215
-0.607703 -0.270022 -0.621314
-0.168786 0.635657 0.750461
-0.140551 0.188041 -0.632735
0.311121 0.599135 -0.620998
0.310152 0.600572 -0.622458
-0.139969 0.187905 -0.631043
0.764125 0.612438 -0.173110
-0.637869 0.186065 0.748424
0.269363 -0.320447 0.266089
-0.156330 0.606680 -0.153226
0.259802 0.147891 0.724196
0.313740 0.660857 0.321581
0.757262 -0.309011 -0.146448
-0.606171 -0.271330 -0.620090
0.758326 -0.309792 -0.145253
-0.635223 -0.735674 -0.195270
-0.186728 -0.734934 0.273067
-0.614918 0.137508 -0.179816
-0.185198 -0.274286 0.734715
-0.607928 -0.270030 -0.620900
0.269140 -0.318808 0.266051
-0.157320 0.604650 -0.152843
-0.184549 -0.274681 0.737246
0.310237 0.600090 -0.620884
-0.178141 -0.739274 -0.623603
-0.173375 -0.737473 -0.625347
0.270819 -0.317071 0.267859
0.312954 0.661595 0.320687
0.759400 0.131416 -0.597471
-0.637121 -0.736502 -0.193320
0.287491 -0.280615 -0.570136
-0.174665 -0.739896 -0.624136
-0.608238 -0.270496 -0.619968
-0.637108 -0.734455 -0.193211
-0.140712 0.188071 -0.632018
0.758582 -0.309883 -0.144455
0.310117 0.598915 -0.621330
0.268719 -0.320347 0.264656
