OFF
256 0 0
0.217421 -0.238822 -0.681835
0.683716 0.658822 -0.219570
-0.675635 0.684479 0.232191
-0.676030 0.685085 0.232743
0.653979 -0.218836 -0.197495
0.697805 0.250039 0.243834
-0.655580 -0.223852 -0.661938
0.224613 -0.686786 -0.202904
-0.690125 -0.253739 0.222900
-0.235212 -0.682437 0.185062
-0.222029 0.258276 -0.658472
-0.687223 -0.669181 -0.227259
0.200812 0.217587 0.684031
-0.217181 -0.222558 0.646909
0.699041 0.248499 0.243072
-0.642737 0.235626 0.666930
-0.691900 0.205302 -0.200879
-0.224459 0.258452 -0.659945
0.232939 0.665832 0.230885
-0.235625 -0.687240 -0.652195
-0.640791 0.236555 0.667428
0.697677 0.249184 0.242074
0.215941 -0.238472 -0.681910
-0.653728 -0.224066 -0.660951
0.681205 0.660013 -0.217328
0.696283 0.246767 0.242877
0.231812 0.666478 0.231855
0.201604 0.216651 0.685115
-0.218408 -0.223779 0.647299
0.670434 -0.680075 0.215025
0.653221 -0.219396 -0.197346
0.660767 -0.179102 0.627856
0.683078 0.657593 -0.217522
-0.691804 -0.252375 0.224358
-0.235353 -0.682400 0.186943
0.671582 -0.680721 0.214857
-0.218177 -0.223200 0.648610
-0.219075 -0.221526 0.647939
-0.216786 -0.221930 0.650151
0.654718 -0.218596 -0.197670
-0.218591 -0.221913 0.649371
0.662436 0.211567 -0.711284
-0.690826 -0.252042 0.221805
0.251386 0.655342 -0.697178
0.661819 0.211928 -0.709804
-0.237105 -0.688022 -0.653923
-0.237889 -0.686408 -0.653636
-0.219472 -0.222577 0.648516
0.661890 -0.176907 0.628328
0.219432 -0.660004 0.655523
-0.217960 -0.222602 0.646614
-0.642014 0.236819 0.667759
0.662746 0.211287 -0.710000
0.659688 -0.177538 0.628369
0.218049 -0.239052 -0.680578
0.653779 -0.219253 -0.198184
0.222533 -0.686787 -0.202155
0.671733 -0.680049 0.213901
-0.222547 0.259851 -0.659005
0.658490 -0.176181 0.627771
0.662021 0.212868 -0.711136
-0.692082 -0.252681 0.223966
0.682045 0.658761 -0.215044
0.661322 -0.177926 0.629079
-0.236769 -0.687697 -0.651916
-0.675152 0.683661 0.234934
0.202088 0.218438 0.686135
0.224890 -0.686315 -0.202482
-0.217461 0.699253 0.682598
0.250688 0.653973 -0.696600
-0.223777 0.260534 -0.658609
0.222090 -0.688711 -0.202585
0.251438 0.654399 -0.695014
-0.202829 0.659277 -0.193378
0.681369 0.659252 -0.216766
0.223161 -0.687927 -0.203522
-0.690662 -0.253186 0.224279
-0.233427 -0.682279 0.185129
-0.219466 0.697689 0.681290
0.681418 0.657273 -0.217290
-0.688972 0.206310 -0.199896
0.216447 -0.239140 -0.681291
0.659877 -0.175969 0.628674
-0.215283 0.697312 0.681489
-0.235587 -0.682057 0.187533
0.661575 0.213995 -0.712113
-0.218555 -0.222045 0.648366
-0.239873 -0.686139 -0.654102
0.233045 0.668162 0.228586
0.699088 0.247426 0.241500
-0.216650 0.699196 0.683383
0.253005 0.654467 -0.698033
-0.643269 0.236405 0.667021
0.661111 0.212807 -0.709824
0.223717 -0.687918 -0.202929
0.660635 -0.176710 0.628758
0.231546 0.666392 0.230844
0.224766 -0.687526 -0.202718
0.663573 0.212979 -0.710892
0.223078 -0.686521 -0.202959
0.251709 0.654164 -0.695812
0.660558 0.210564 -0.708890
0.683864 0.659642 -0.216762
0.654938 -0.219451 -0.199081
0.697973 0.250354 0.240867
0.654060 -0.218870 -0.198027
0.660990 0.212114 -0.709892
-0.218090 -0.221763 0.648288
0.249212 0.652540 -0.698559
0.653847 -0.220163 -0.198043
0.685676 0.661684 -0.216537
-0.655721 -0.226330 -0.661026
-0.691247 -0.253081 0.223502
0.681973 0.658879 -0.215757
-0.222645 0.258879 -0.660392
-0.674629 0.684833 0.234726
-0.224113 0.260238 -0.659040
0.698522 0.248583 0.243677
-0.203290 0.657819 -0.190552
-0.235096 -0.681578 0.187852
0.202891 0.218113 0.685246
0.251800 0.654893 -0.696778
0.252447 0.653547 -0.698074
-0.643676 0.237492 0.667469
-0.223109 0.260087 -0.658324
-0.686575 -0.668948 -0.227645
-0.223428 0.259913 -0.657329
0.224671 -0.687715 -0.202282
-0.218165 0.698702 0.681918
0.217880 -0.238173 -0.681753
-0.232938 -0.681361 0.189229
-0.690827 -0.254863 0.223910
0.251199 0.652380 -0.695076
0.662911 0.212930 -0.708174
0.671644 -0.679132 0.214671
-0.653322 -0.225177 -0.661626
0.662534 0.210385 -0.709590
-0.224894 0.258605 -0.657715
0.200718 0.218012 0.687537
-0.690719 -0.252224 0.221652
0.663544 0.210252 -0.710842
-0.687947 -0.666931 -0.228355
0.682665 0.659777 -0.217711
-0.642994 0.236466 0.667888
-0.222827 0.258658 -0.658121
0.698320 0.249775 0.243775
0.203130 0.217980 0.683488
-0.672647 0.684062 0.232929
0.224461 -0.688054 -0.202603
0.653707 -0.218872 -0.198799
0.659603 -0.177339 0.629889
0.219101 -0.660761 0.656977
-0.222863 0.258642 -0.659182
0.661312 0.210552 -0.712237
-0.675463 0.682651 0.232156
0.218575 -0.237591 -0.682027
-0.675051 0.683681 0.232994
0.660001 0.211223 -0.708877
0.655926 -0.218117 -0.197825
-0.202446 0.657120 -0.191506
-0.674934 0.684787 0.233245
0.220486 -0.660972 0.657931
0.660890 -0.178100 0.629387
-0.217641 -0.220906 0.647697
0.219989 -0.658622 0.656978
0.217441 -0.239379 -0.683159
-0.222486 0.259084 -0.658249
0.662308 0.211582 -0.709478
-0.218669 -0.224421 0.649904
0.660567 -0.177500 0.628474
-0.234742 -0.683118 0.187813
0.231505 0.666950 0.229763
0.661545 0.210325 -0.710164
0.201230 0.217260 0.685720
0.662595 0.212808 -0.710329
0.218498 -0.659431 0.656167
0.218849 -0.658650 0.655676
0.198522 0.216549 0.683305
-0.202912 0.658382 -0.193701
0.232382 0.666029 0.230782
-0.655209 -0.225515 -0.659203
0.231699 0.667673 0.230419
-0.687231 -0.668574 -0.227008
-0.234714 -0.684230 0.189105
-0.674535 0.684987 0.232863
0.655931 -0.217139 -0.198718
-0.675978 0.685610 0.233387
0.201687 0.216395 0.683327
-0.237692 -0.686414 -0.654471
0.660490 -0.177928 0.627247
0.698367 0.249956 0.241355
-0.222639 0.257792 -0.659982
0.662733 0.212818 -0.710161
-0.674712 0.683715 0.232881
0.681925 0.658738 -0.217178
0.252776 0.655345 -0.696318
-0.219319 -0.222860 0.647586
0.661079 0.213362 -0.710993
-0.236853 -0.686886 -0.652221
-0.691619 -0.254180 0.223140
0.697350 0.249819 0.241401
-0.689977 0.205179 -0.200637
-0.218267 0.696805 0.682986
0.202671 0.217681 0.684942
0.682242 0.657711 -0.217138
0.217342 -0.239663 -0.681759
0.670581 -0.679623 0.213819
-0.218627 0.698794 0.681760
0.662039 0.212302 -0.711348
0.218076 -0.657240 0.657253
-0.217271 -0.223211 0.649804
0.231461 0.666549 0.230007
0.224463 -0.687835 -0.201904
-0.219331 -0.222072 0.649164
0.252713 0.655301 -0.697567
0.218520 -0.659863 0.658744
-0.690316 0.204922 -0.200091
0.671851 -0.678713 0.215245
-0.222361 0.256853 -0.658687
-0.675337 0.684804 0.234350
0.218218 -0.238940 -0.679942
-0.653533 -0.222652 -0.662666
-0.642277 0.237750 0.669112
-0.692293 -0.252872 0.222158
0.233640 0.665166 0.233504
-0.203686 0.658476 -0.191997
0.202342 0.215476 0.686385
-0.643220 0.235678 0.665859
0.223818 -0.688509 -0.202544
-0.235544 -0.682388 0.186858
-0.235180 -0.683994 0.186073
-0.686525 -0.667243 -0.227639
0.697945 0.248340 0.242149
-0.223289 0.258248 -0.659074
0.219089 -0.658104 0.657107
-0.239149 -0.687446 -0.654134
0.696666 0.250714 0.243028
0.233748 0.666413 0.232161
0.659794 -0.177378 0.628313
0.680948 0.657797 -0.217298
-0.204395 0.657717 -0.190222
-0.202926 0.658937 -0.191564
0.699020 0.249269 0.241533
-0.655912 -0.224288 -0.661122
0.219618 -0.661871 0.654991
-0.684604 -0.668528 -0.227079
-0.218083 -0.222548 0.647944
-0.217618 0.698035 0.681270
-0.642509 0.236843 0.667485
0.660140 -0.177958 0.626519
-0.234242 -0.682350 0.185624
0.215933 -0.239083 -0.683218
0.683172 0.659821 -0.216291
-0.234342 -0.683218 0.187142
0.219181 -0.658952 0.658504
0.219234 -0.660439 0.657026
