OFF
256 0 0
-0.314143 -0.326479 -0.722024
0.775563 -0.320975 0.361882
0.075461 0.041229 0.711657
0.411778 0.708102 0.356960
-0.278363 0.701415 -0.340020
-0.639904 -0.316142 0.361500
0.071771 0.741505 0.016623
0.070752 0.738927 0.015408
0.061295 0.675857 -0.664879
-0.317558 -0.324150 -0.720692
0.418302 -0.311453 -0.697247
0.041803 -0.685883 -0.704052
0.777384 -0.324541 0.362796
-0.643555 -0.314627 -0.369005
-0.630562 0.045724 0.682951
-0.643127 -0.312136 -0.368530
0.035750 0.721180 0.687820
0.398430 0.026007 -0.336122
-0.636034 0.033239 -0.018236
-0.634997 0.034099 -0.015144
-0.653849 0.383643 -0.343310
0.418214 -0.312129 -0.698965
0.400321 0.024258 -0.335493
0.389336 0.349271 -0.707295
0.402723 0.361815 0.018454
-0.655759 0.381774 -0.342763
-0.287032 0.363350 -0.679139
0.399560 0.023575 -0.336374
0.402531 0.361039 0.017928
0.418238 0.375662 0.700847
0.403270 0.363157 0.019080
-0.637863 -0.316742 0.359526
-0.621776 -0.639575 0.003143
0.058075 -0.006346 -0.716575
-0.633966 0.031849 -0.015339
-0.274924 -0.651073 0.326602
-0.634178 0.031088 -0.015061
0.748986 -0.661194 -0.012206
-0.641501 0.739364 0.005445
-0.283846 -0.281786 0.701430
-0.643006 0.740291 0.004215
-0.641721 -0.316418 0.359785
0.404130 0.687788 -0.346129
0.420223 0.373335 0.701454
0.423883 -0.327309 0.714658
-0.627866 0.046467 0.683137
-0.282069 0.360253 0.678324
0.036409 0.722245 0.686093
-0.283792 0.725213 0.326066
-0.299188 -0.679907 -0.351917
-0.299405 -0.679898 -0.353490
0.043696 -0.686771 -0.702835
-0.628548 0.045789 0.683190
0.424333 -0.327457 0.713078
0.776313 -0.321049 0.363163
0.056480 -0.663909 -0.009673
-0.641179 -0.316174 0.362509
-0.619839 -0.639754 0.003284
-0.298158 -0.678927 -0.353486
0.072501 -0.659524 0.707826
-0.622386 -0.638993 0.003177
0.037082 0.720456 0.686665
-0.644756 0.738110 0.004067
0.420286 -0.679065 0.364646
0.782950 0.034297 0.001649
0.422220 -0.677706 0.366466
0.402627 0.687648 -0.344113
-0.284613 -0.284008 0.702483
0.043331 -0.686569 -0.701525
0.402266 0.361350 0.018760
-0.628816 0.046973 0.682617
0.398748 -0.658904 -0.332560
0.076840 0.039801 0.710524
0.036887 0.721905 0.684693
0.387715 0.349112 -0.706645
0.785002 0.034576 0.002273
-0.656139 0.021676 -0.698287
-0.283410 -0.283931 0.702704
-0.282934 0.726537 0.326284
0.419550 -0.679617 0.364039
0.784755 0.034841 0.001152
0.042861 -0.686072 -0.701818
-0.632384 0.374217 0.317542
0.399917 -0.655762 -0.332309
0.412120 0.705338 0.355506
0.071478 0.740745 0.015538
0.775534 -0.321652 0.362481
0.781698 -0.314994 -0.356853
-0.636245 0.033661 -0.015346
-0.281337 0.360010 0.680068
0.059442 -0.008320 -0.717146
0.036383 0.720848 0.686443
0.748985 -0.662884 -0.010706
0.424447 -0.329145 0.714947
0.388237 0.350585 -0.706404
0.420063 -0.681258 0.365364
0.055731 -0.664426 -0.010786
-0.654018 0.382448 -0.342495
-0.286632 0.362774 -0.678169
-0.643960 -0.315329 -0.368293
-0.621496 -0.638710 0.002544
0.403005 0.688423 -0.345709
0.409255 0.029881 0.360004
0.042967 -0.685626 -0.703850
-0.621855 -0.639929 0.003342
0.775855 -0.322312 0.361748
-0.637058 0.032971 -0.016113
-0.655435 0.018428 -0.696945
-0.642848 -0.314265 -0.367873
-0.300207 -0.678680 -0.353565
0.398757 -0.655264 -0.331688
-0.634393 0.031388 -0.017068
0.070001 0.739870 0.016886
-0.639937 -0.317645 0.360113
0.749064 -0.662682 -0.010647
-0.298402 -0.679357 -0.351901
-0.629013 0.047755 0.682706
-0.277173 0.702178 -0.340923
0.409324 0.030532 0.358802
-0.284646 0.727479 0.326126
0.399414 -0.657173 -0.331581
0.420538 -0.680164 0.364834
0.419946 -0.678335 0.364954
0.398219 0.024488 -0.336736
0.422666 0.374506 0.702569
0.419969 0.373831 0.701779
0.418547 -0.311360 -0.698708
0.410224 0.028858 0.359717
-0.316528 -0.323981 -0.721419
0.403249 0.689135 -0.345862
0.056278 -0.664841 -0.009411
-0.621254 -0.639512 0.002473
0.054953 -0.663234 -0.008827
0.039955 -0.685435 -0.701848
0.398943 0.026031 -0.337231
-0.657811 0.019988 -0.697990
0.076740 0.040201 0.710871
-0.283971 -0.282599 0.701731
-0.644072 -0.312721 -0.368713
-0.644237 -0.313340 -0.369294
-0.288021 0.363760 -0.677365
-0.315203 -0.323932 -0.721384
-0.314912 -0.323815 -0.721814
0.777147 -0.321458 0.362082
0.040777 -0.685208 -0.702756
-0.636332 0.034160 -0.017429
0.410486 0.707105 0.353805
0.071145 0.741597 0.016032
0.411280 0.028309 0.359823
0.070962 0.739662 0.014571
0.056738 -0.666036 -0.008175
0.078358 0.040479 0.709085
0.071784 0.740059 0.017397
0.398181 -0.657102 -0.331127
-0.633555 0.376577 0.316977
-0.642699 0.740148 0.004027
0.388181 0.350473 -0.706846
0.042408 -0.683410 -0.703647
-0.644898 0.740860 0.003287
0.043228 -0.686158 -0.701530
-0.299711 -0.681389 -0.355435
-0.633632 0.372943 0.317297
0.044319 -0.684692 -0.701816
0.419730 -0.678573 0.366014
0.411721 0.706370 0.356715
0.399025 0.025842 -0.336205
-0.299598 -0.680521 -0.353154
-0.285364 -0.283222 0.702715
0.419922 0.374923 0.699599
0.056304 -0.663869 -0.008145
0.036788 0.720480 0.686126
0.045529 -0.685460 -0.703539
-0.653674 0.382336 -0.341918
0.420043 0.373747 0.700449
0.425189 -0.328886 0.712998
0.071971 0.741530 0.014169
-0.317138 -0.324813 -0.721953
0.060381 0.676984 -0.663852
0.777922 -0.322254 0.361566
-0.643220 0.738836 0.004728
0.418892 0.373214 0.700708
-0.299709 -0.679012 -0.350743
-0.276574 -0.650799 0.326625
0.402952 0.362241 0.017514
-0.633440 0.373671 0.317698
0.420606 0.372562 0.701715
0.749184 -0.662596 -0.011697
-0.642831 0.739912 0.005560
-0.283159 0.357644 0.680054
-0.284332 0.726091 0.326951
0.059504 0.676250 -0.665492
-0.280606 0.360214 0.678600
-0.632123 0.374183 0.315828
0.748421 -0.662203 -0.010007
-0.281329 0.357559 0.679285
0.056708 -0.664205 -0.009034
0.420355 0.370793 0.702177
-0.630645 0.045684 0.683188
0.776832 -0.321695 0.362004
0.425879 -0.327509 0.713530
0.058178 -0.006378 -0.717502
0.071858 0.742909 0.017034
-0.299869 -0.678628 -0.350597
0.070876 0.740658 0.015859
0.782719 0.035334 0.000280
0.403318 0.687730 -0.346324
-0.619830 -0.638877 0.001772
0.055604 -0.664410 -0.007804
-0.638756 -0.316511 0.360251
-0.282813 0.358987 0.679258
0.398885 -0.657536 -0.332101
-0.276900 0.702568 -0.342153
-0.283398 -0.281725 0.701067
0.071543 0.740604 0.015645
0.419106 -0.315008 -0.697774
0.781114 -0.315279 -0.358103
-0.641578 -0.316849 0.361395
-0.620881 -0.637368 0.003510
0.055494 -0.664202 -0.009298
-0.634162 0.032313 -0.013927
-0.282473 0.360061 0.680297
-0.630120 0.047661 0.683851
-0.632373 0.374070 0.317532
0.411635 0.029875 0.362207
-0.283929 -0.283593 0.701424
0.418802 -0.313981 -0.696906
-0.653334 0.383586 -0.341868
0.400007 0.023789 -0.336320
0.420605 -0.312662 -0.699677
-0.315848 -0.323170 -0.721213
-0.281364 0.359328 0.677547
0.782943 -0.313117 -0.357100
-0.283092 0.359323 0.678288
-0.277601 -0.651296 0.327065
-0.283882 0.726928 0.325428
-0.620892 -0.640834 0.002525
-0.284716 -0.283292 0.701600
-0.633010 0.373618 0.316798
-0.641109 -0.315241 0.359468
0.417351 -0.313855 -0.698158
0.409598 0.030022 0.359391
0.042838 -0.684329 -0.702921
-0.282011 0.726545 0.326485
0.058984 0.675039 -0.664963
0.749051 -0.661816 -0.011170
-0.284794 0.726227 0.324818
0.043132 -0.686786 -0.702193
-0.283715 -0.283193 0.701594
0.057527 0.676355 -0.664821
0.781105 -0.314725 -0.358220
-0.281873 0.725110 0.328135
-0.651486 0.381981 -0.343353
-0.644305 -0.313379 -0.368070
-0.654298 0.383483 -0.345215
0.409116 0.031528 0.360047
0.076251 0.040115 0.709840
