OFF
256 0 0
0.398082 0.713192 -0.350031
0.394575 -0.324367 -0.673212
-0.283057 0.701626 0.339889
-0.261286 0.358273 0.661519
-0.266790 0.353114 -0.670374
-0.620952 0.377730 -0.339572
0.079959 0.014830 0.685834
0.056337 0.030414 -0.661363
0.042852 0.721393 -0.693344
-0.266749 0.352697 -0.671089
-0.630929 0.698368 -0.008117
0.739890 -0.301320 -0.323396
-0.621325 0.377749 -0.340950
0.069565 0.693496 0.009140
-0.283235 0.700947 0.341735
0.746388 0.025778 0.013640
0.400519 0.699918 0.336723
0.735223 -0.313574 0.345083
-0.621941 0.375590 -0.341557
-0.272080 -0.653010 0.331160
0.052704 -0.640747 0.679122
-0.275788 0.709088 -0.342909
-0.632699 0.029550 0.693516
-0.288727 -0.308735 0.664143
0.042590 0.720955 -0.692017
0.391427 0.036528 -0.313651
0.736689 -0.313465 0.345005
0.721573 -0.649091 0.018315
0.064867 -0.617488 -0.020774
0.400637 0.367689 0.669066
-0.622501 0.376711 -0.342765
-0.288595 -0.307911 0.664268
0.081111 0.017060 0.685541
0.397930 0.714046 -0.350999
0.069149 0.695007 0.690802
-0.620551 -0.305155 0.353039
0.069426 0.693186 0.013019
0.399488 0.714258 -0.349562
0.056585 0.030137 -0.661462
-0.276194 0.705374 -0.341574
0.068284 0.693654 0.011011
-0.273337 -0.654670 0.331169
0.747345 0.025973 0.014039
-0.621748 0.377656 -0.341334
-0.631726 0.698759 -0.007735
-0.611394 -0.341679 -0.353203
0.074981 -0.668508 -0.679429
0.395072 -0.325485 -0.674461
-0.262933 0.357180 0.661682
0.378443 0.376563 -0.660328
0.396751 -0.324011 -0.672162
-0.638478 -0.660918 0.001740
0.402688 0.699998 0.336410
0.053139 0.030687 -0.661689
-0.274294 -0.652808 0.332383
0.407543 -0.302393 0.681409
0.069240 0.693877 0.010826
-0.277944 -0.688084 -0.339590
0.055647 0.028949 -0.661124
0.043102 0.722887 -0.690423
0.080860 0.014888 0.686538
0.735548 -0.315075 0.343921
-0.633302 0.030504 0.694354
0.746482 0.026539 0.013131
0.068958 0.694486 0.011227
0.747079 0.025695 0.013537
-0.636560 -0.660936 0.002832
0.396764 -0.323316 -0.674018
0.398225 0.714994 -0.351065
0.379346 0.374772 -0.658663
0.413571 0.375682 -0.008556
0.052774 0.029598 -0.661218
0.376353 -0.621452 0.338650
0.401380 0.700170 0.335904
-0.619741 -0.304992 0.352391
0.741970 -0.302748 -0.325567
0.070471 0.692991 0.013452
0.399775 0.715057 -0.349277
0.400348 0.367596 0.670181
-0.276543 0.708647 -0.339653
0.083261 0.016376 0.687209
0.066451 -0.620494 -0.023475
0.068055 0.697569 0.691618
-0.261925 0.358325 0.662469
0.392329 -0.648860 -0.346164
0.069151 0.694767 0.692379
0.407508 -0.301139 0.682183
0.070025 0.694016 0.010291
0.376479 0.374744 -0.661096
0.051866 -0.639721 0.679495
0.050579 -0.640014 0.677831
0.051926 -0.639468 0.679794
0.385561 -0.006240 0.326114
-0.288467 -0.308482 0.663386
0.376909 0.375676 -0.660835
0.747315 0.024854 0.015164
0.736003 -0.314083 0.343971
0.735744 -0.313878 0.344033
-0.262397 0.358180 0.661001
0.379072 0.374295 -0.660826
0.745447 0.025162 0.012605
0.391703 -0.650067 -0.346279
-0.286210 -0.311249 0.664716
0.377258 -0.622550 0.337209
0.400284 0.700862 0.338270
0.403974 0.700534 0.337792
-0.619891 0.377101 -0.343015
0.375325 -0.620740 0.337355
-0.289073 -0.307734 0.663538
0.064228 -0.616976 -0.022357
-0.623555 0.375827 -0.339608
0.067826 0.693255 0.011274
0.377340 0.373296 -0.659466
0.415128 0.375664 -0.010503
-0.610012 0.028851 -0.670095
0.390341 0.035185 -0.314821
0.386141 -0.005342 0.326277
0.069959 0.694204 0.010265
0.415016 0.375589 -0.009455
-0.610129 0.031873 -0.668510
-0.275342 0.709011 -0.341779
-0.623211 0.009745 -0.045971
-0.288544 -0.306361 0.662120
0.064038 -0.617360 -0.021238
-0.274630 0.706750 -0.341570
-0.275725 0.706518 -0.341604
0.414806 0.375910 -0.007667
0.043130 0.720879 -0.690832
-0.610138 -0.343246 -0.353368
-0.630987 0.029882 0.693284
0.742434 -0.303493 -0.324456
-0.621760 0.377682 -0.341227
0.413514 0.375352 -0.009531
0.399391 0.367643 0.668348
0.055455 0.030612 -0.660092
-0.273424 -0.322293 -0.667729
-0.608572 0.032215 -0.666674
-0.609521 -0.344437 -0.354591
-0.609506 0.029805 -0.668389
0.054684 0.030780 -0.660129
-0.267612 0.352512 -0.669319
0.376364 -0.625423 0.337199
0.742591 -0.305390 -0.324896
0.741697 -0.304544 -0.324693
0.739498 -0.304540 -0.326778
0.074152 -0.668053 -0.680042
-0.610837 0.029393 -0.667892
-0.609334 -0.341460 -0.354657
-0.631735 0.699620 -0.004978
0.070627 0.692184 0.012091
0.747848 0.024728 0.011932
-0.620920 -0.305635 0.353357
-0.609496 0.032677 -0.667448
0.399813 0.366980 0.669663
0.065684 -0.617169 -0.020450
0.399169 0.366254 0.669909
-0.273671 -0.318954 -0.666654
-0.289095 -0.311146 0.664345
0.741025 -0.300797 -0.324416
0.386285 -0.009073 0.326772
-0.636200 -0.661123 0.003272
0.392789 -0.648854 -0.343777
-0.275436 0.706716 -0.341299
-0.273279 -0.320329 -0.667688
-0.283352 0.700085 0.341257
-0.287909 -0.309850 0.664412
0.377556 -0.622212 0.340134
-0.275789 -0.690106 -0.339886
-0.282151 0.699943 0.340457
-0.275706 -0.319122 -0.667027
-0.631835 0.028207 0.693483
0.739987 -0.304983 -0.325780
0.412618 0.377010 -0.009914
0.042043 0.721041 -0.691316
0.413863 0.377318 -0.008089
0.391766 -0.648405 -0.346709
0.389594 0.034908 -0.313257
0.376283 0.374834 -0.659627
-0.263165 0.358182 0.661897
-0.275446 0.707361 -0.340356
0.386986 -0.006384 0.326523
0.387322 -0.006213 0.324942
0.739321 -0.301924 -0.323041
0.378685 0.372907 -0.659190
0.390909 -0.649502 -0.344988
0.414239 0.375248 -0.007854
0.394181 -0.325354 -0.672772
0.415078 0.376392 -0.009303
0.398363 0.366616 0.670297
-0.613665 -0.343066 -0.354901
0.394012 -0.325468 -0.672753
-0.277270 -0.689830 -0.341111
-0.273280 -0.653523 0.330956
0.398497 0.367017 0.668263
-0.619488 -0.304924 0.352061
0.377761 -0.622217 0.337364
-0.274833 -0.322268 -0.668454
0.375506 0.374944 -0.659449
-0.276940 0.708366 -0.340202
-0.631557 0.028326 0.693746
-0.620440 -0.303591 0.351369
0.380234 0.375275 -0.659400
-0.633228 0.031190 0.694401
-0.632152 0.030030 0.693617
0.067329 0.693788 0.691767
0.074815 -0.665468 -0.680328
-0.261267 0.359428 0.663160
0.069840 0.693233 0.010271
0.736347 -0.312396 0.345111
0.065109 -0.619439 -0.021719
0.067703 0.694068 0.691682
0.081708 0.014448 0.686257
-0.636401 -0.661197 0.005185
-0.638141 -0.661569 0.002814
0.414936 0.374558 -0.008862
0.393604 -0.650458 -0.346095
-0.611761 -0.341600 -0.354256
-0.607262 0.359893 0.322580
0.066470 -0.616576 -0.022253
-0.608823 0.359836 0.323111
-0.269593 0.352287 -0.671475
-0.267534 0.353972 -0.671219
0.397849 0.367066 0.669956
0.068844 0.693571 0.011676
0.392324 -0.650381 -0.346107
-0.266903 0.350945 -0.668694
-0.281804 0.700762 0.341297
-0.274102 -0.655062 0.329697
-0.276649 0.709375 -0.340360
-0.277304 -0.690314 -0.339579
0.376006 -0.622269 0.337073
0.376589 -0.622871 0.338542
0.051360 -0.639858 0.679592
-0.282545 0.700225 0.340988
0.391908 -0.650617 -0.345821
0.041247 0.721546 -0.692269
0.067817 0.694475 0.692168
-0.277837 -0.688313 -0.339514
-0.276710 -0.692239 -0.340368
0.082462 0.016170 0.687103
-0.263148 0.357990 0.661166
0.401641 0.367028 0.669028
-0.637141 -0.660283 0.002214
0.074187 -0.668282 -0.679993
-0.631790 0.698271 -0.007951
0.057289 0.029284 -0.659995
0.073620 -0.666589 -0.679789
-0.608425 0.360424 0.322516
-0.635460 -0.659385 0.004827
-0.622586 0.009690 -0.046681
0.395391 -0.323693 -0.673727
-0.283030 0.700228 0.340056
0.407485 -0.302792 0.681943
0.398792 0.366316 0.670827
0.069621 0.697518 0.692163
0.736828 -0.313642 0.344324
