OFF
256 0 0
0.727246 -0.643383 0.019214
-0.271653 -0.293341 0.644942
-0.276751 0.709955 0.336636
0.421425 0.363706 0.682127
0.394315 0.357928 0.007479
0.075394 -0.641008 -0.007594
-0.621448 -0.318131 0.333510
-0.609138 0.360232 -0.337342
0.072616 0.682779 -0.010780
0.409832 -0.325654 0.696653
0.059491 0.701964 -0.678218
0.733629 -0.288648 -0.332167
-0.276424 0.710624 0.336561
0.407808 0.027067 0.362189
0.393262 0.357309 0.005148
0.051905 -0.644951 -0.682183
-0.614965 0.005961 -0.012370
-0.630631 0.032272 0.688806
0.410692 -0.328113 0.695864
-0.280503 0.719257 -0.352237
0.375999 0.359557 -0.708511
0.049188 0.717576 0.693781
-0.270221 -0.295027 0.644314
0.730939 -0.288331 -0.333152
-0.271261 -0.294901 0.646318
-0.259348 -0.647783 -0.332149
0.379119 0.361324 -0.708490
0.388107 0.714326 0.344897
0.728224 -0.642355 0.018912
-0.619785 -0.317044 0.335271
-0.620475 -0.317354 0.334424
0.085656 -0.007251 -0.674454
-0.305139 0.370054 0.685143
-0.643900 0.018834 -0.689013
-0.296561 -0.314031 -0.652997
0.727943 -0.642426 0.022689
-0.610506 0.359379 -0.336917
0.729240 -0.644209 0.018687
0.729136 -0.644820 0.018109
-0.622147 -0.317543 0.335867
-0.638778 -0.314798 -0.327947
0.415966 0.679915 -0.346864
0.060969 0.032882 0.666602
-0.299573 -0.317302 -0.653323
0.728759 -0.642622 0.020264
-0.621774 -0.317243 0.333899
0.059319 0.702855 -0.676270
0.412924 -0.634197 0.339644
0.732438 -0.288653 -0.333160
0.413807 0.681299 -0.348794
0.754641 0.028755 0.002661
0.731425 -0.287562 -0.334051
-0.620962 -0.317361 0.332447
-0.636363 0.702605 0.007236
-0.609726 0.363320 -0.336297
0.745641 -0.308367 0.364909
0.377793 0.361642 -0.710428
0.387888 0.713076 0.344289
-0.621541 -0.319356 0.335440
0.387293 0.715468 0.344200
-0.278236 0.720774 -0.353058
0.392930 0.048058 -0.336775
0.377647 0.361094 -0.707665
-0.291408 -0.636096 0.308678
-0.638534 -0.314848 -0.327432
0.051419 -0.645046 -0.682305
-0.630750 0.033204 0.688904
-0.638651 0.702621 0.006721
0.063071 0.033549 0.666140
0.390041 0.713541 0.341828
-0.279770 0.720099 -0.353642
0.069704 0.684761 -0.009281
0.379022 0.359298 -0.708001
-0.292537 -0.634977 0.309326
-0.615359 0.005867 -0.009777
-0.630697 0.032680 0.687409
-0.646914 0.016985 -0.689481
0.059581 0.701504 -0.677657
-0.635935 -0.684666 -0.017461
-0.610132 0.362280 -0.335970
-0.304236 0.370641 0.684859
-0.634854 -0.683556 -0.016048
0.052010 -0.646360 -0.683110
0.748119 -0.310964 0.366644
-0.616796 0.007443 -0.009377
-0.644138 0.016510 -0.688246
-0.279305 0.721369 -0.353206
-0.610889 0.361714 -0.336352
0.046888 0.718308 0.691584
0.061406 0.032709 0.666866
-0.281260 0.722242 -0.353411
0.408536 0.024847 0.362610
0.395081 0.355862 0.004486
0.394056 0.355519 0.005885
0.058931 0.704468 -0.677909
-0.279493 0.721122 -0.352175
-0.290709 -0.633838 0.307957
-0.635264 0.371155 0.354657
-0.278557 0.709746 0.335713
0.417304 -0.328165 -0.685688
0.410416 0.025378 0.359960
0.061106 0.031084 0.666519
-0.611841 0.362086 -0.337757
0.059114 0.702726 -0.677613
0.058000 -0.661844 0.659650
0.420529 0.363503 0.680518
-0.258249 -0.649297 -0.332496
0.059490 0.704813 -0.675957
0.731542 -0.288243 -0.332278
-0.609508 0.361560 -0.337083
-0.305476 0.369099 0.686695
-0.636978 0.703784 0.007842
-0.272175 0.332523 -0.688255
0.059232 0.702059 -0.676368
0.408540 0.025647 0.360189
0.053134 -0.645172 -0.680966
0.386697 0.715741 0.343532
0.409415 0.026004 0.361214
0.392005 0.048425 -0.334982
0.073312 -0.641107 -0.007918
0.052877 -0.645636 -0.683767
0.047342 0.718049 0.694235
0.392406 0.048950 -0.336569
0.748585 -0.309590 0.365778
0.062138 0.031756 0.664648
-0.269972 -0.294667 0.645776
0.393422 0.358689 0.005572
-0.637487 0.700872 0.008011
-0.303326 0.371702 0.685238
0.407177 0.026906 0.361269
0.411065 -0.324030 0.698000
-0.635148 0.369197 0.353324
0.069390 0.686516 -0.009895
0.074932 -0.640558 -0.004861
0.407447 0.025804 0.361365
0.415608 -0.328862 -0.686934
0.057846 0.702473 -0.675340
0.054131 -0.643367 -0.682930
-0.292629 -0.633927 0.308032
0.410478 -0.647329 -0.320257
-0.277561 0.709537 0.336352
-0.632245 -0.685988 -0.015662
-0.297113 -0.315743 -0.653899
0.747341 -0.309606 0.365661
0.421010 0.363669 0.681905
0.731579 -0.287977 -0.330406
-0.292332 -0.635011 0.309446
-0.638258 -0.313786 -0.327843
0.087109 -0.005840 -0.674202
0.752064 0.030512 0.000785
-0.633548 -0.686479 -0.016388
0.408427 0.025468 0.362121
-0.634519 0.371677 0.355324
-0.637161 0.702632 0.005271
0.407697 0.024572 0.362802
0.415130 -0.634740 0.338414
0.754589 0.029808 0.003071
-0.304604 0.371203 0.685406
-0.637312 -0.314404 -0.328418
-0.270728 -0.293228 0.645920
-0.621063 -0.316340 0.334878
-0.296091 -0.316291 -0.654239
-0.645395 0.015890 -0.688955
-0.638643 -0.313760 -0.329787
0.407564 0.027067 0.362612
-0.277004 0.722148 -0.354843
-0.299005 -0.313844 -0.655261
-0.621422 -0.316859 0.336613
0.070765 0.686468 -0.009011
0.069823 0.683059 -0.010324
-0.634196 0.369959 0.351045
0.422452 0.363394 0.681321
0.074830 -0.640871 -0.005254
0.394371 0.357130 0.003377
0.410668 0.022565 0.362196
-0.634650 0.373034 0.353046
0.732363 -0.289114 -0.332011
-0.291281 -0.636061 0.307869
0.071103 0.684466 -0.011028
0.059880 0.704349 -0.677044
-0.292822 -0.634180 0.309694
-0.629215 0.034444 0.688396
-0.638392 -0.312771 -0.328599
0.728387 -0.643282 0.018228
-0.277902 0.710833 0.335270
-0.271660 -0.294912 0.644417
-0.304991 0.370068 0.685970
0.419493 -0.328197 -0.687650
-0.295942 -0.316915 -0.655270
-0.277982 0.710797 0.336995
0.413201 0.681785 -0.346354
-0.304709 0.368288 0.685574
-0.630649 0.032621 0.686616
0.409331 -0.324917 0.696389
0.409567 0.025538 0.362679
0.052223 -0.643769 -0.682435
-0.615842 0.008288 -0.009028
0.053664 -0.644901 -0.682364
0.414701 0.681008 -0.347250
0.729007 -0.643769 0.018885
0.728190 -0.645319 0.020449
0.073971 -0.640962 -0.006652
-0.272739 0.331595 -0.688434
-0.635043 0.369916 0.352123
0.052690 -0.646030 -0.682679
-0.258229 -0.648569 -0.331322
0.732371 -0.286888 -0.331513
0.746933 -0.311187 0.364778
-0.306406 0.372072 0.683122
-0.292626 -0.634352 0.309420
0.422599 0.363844 0.680299
0.061285 0.033929 0.665958
0.375877 0.359372 -0.708914
0.074921 -0.640679 -0.005169
-0.290086 -0.632778 0.307938
-0.271086 0.330721 -0.689112
0.408879 -0.645936 -0.318649
0.071188 0.683795 -0.010977
0.048130 0.719122 0.693455
-0.297911 -0.316761 -0.654673
0.408617 -0.647918 -0.321237
-0.630387 0.031720 0.689153
-0.275858 0.710207 0.336351
0.414601 0.679891 -0.347251
0.377666 0.361170 -0.710271
0.376738 0.359361 -0.709149
-0.643527 0.017188 -0.688648
0.750996 0.031019 0.002108
0.394254 0.357156 0.004906
0.414504 -0.635971 0.338138
0.071342 0.685023 -0.010493
0.083278 -0.005891 -0.672841
0.386465 0.714223 0.343397
0.746917 -0.310963 0.366009
0.731122 -0.288117 -0.331240
-0.638822 -0.312262 -0.327261
-0.616644 0.003932 -0.011079
0.074563 -0.639133 -0.005411
0.407744 0.025495 0.361761
0.417069 -0.329172 -0.686245
0.422104 0.363487 0.680909
0.053830 -0.643537 -0.682290
0.748023 -0.310122 0.365874
-0.636481 0.703142 0.006855
0.387736 0.715193 0.343783
-0.296355 -0.315870 -0.653952
0.410495 -0.325787 0.695004
-0.271373 -0.295954 0.644880
0.058361 -0.662880 0.657573
0.377901 0.359945 -0.708683
-0.272119 -0.295648 0.644629
0.074482 -0.641408 -0.007703
0.060641 0.702420 -0.676094
0.058383 -0.662492 0.658297
0.410896 0.026428 0.362539
0.421564 0.364987 0.681223
