OFF
256 0 0
0.347673 0.843574 -0.159962
0.344049 0.499535 -0.519766
-0.001596 0.173014 0.861073
-0.325705 0.159098 0.505593
-0.334100 -0.176971 -0.505921
0.345262 -0.511423 0.520705
0.019898 -0.162211 -0.835725
0.349113 0.843520 -0.162241
-0.001654 0.171459 0.863477
0.350949 -0.514566 -0.195897
0.661965 0.172896 0.173114
0.356017 -0.818230 0.175865
0.327812 0.163579 -0.850033
0.662895 0.173250 0.173539
-0.334677 -0.176438 -0.505005
-0.672200 0.187141 0.172858
-0.339678 0.478849 -0.509214
-0.333872 -0.501644 0.493777
-0.696241 -0.521669 0.167716
-0.329470 -0.180362 0.824748
0.337332 -0.147065 0.853714
0.648013 -0.484672 0.144666
-0.003116 0.172076 0.862586
0.357296 -0.816651 0.175020
-0.335891 -0.518164 -0.144745
0.010354 -0.840493 0.506266
-0.687136 0.511599 -0.162920
0.346155 0.503118 -0.520317
0.007365 0.852757 0.171506
0.346416 0.501601 -0.519599
0.680315 -0.160760 -0.179275
0.345007 0.502679 -0.519896
-0.333781 -0.178863 -0.504808
0.661337 0.172750 0.171239
0.337184 -0.149335 0.852373
0.015612 0.499920 -0.866245
0.662956 0.175021 0.170938
0.006182 -0.499425 0.849638
0.006111 0.852490 0.172738
0.011349 -0.841655 0.507730
-0.349930 0.142088 -0.841758
0.335568 -0.147985 0.852118
0.303207 0.158010 0.503593
-0.330007 -0.180453 0.824596
-0.337638 -0.519262 -0.144515
-0.333050 -0.176685 -0.505490
0.312152 0.486833 0.174604
-0.327169 0.848388 -0.181317
-0.332070 -0.181218 0.826457
0.350255 0.844196 -0.160721
0.691380 0.514840 -0.165895
0.648947 -0.486533 0.144666
-0.670695 0.187263 0.169979
-0.000752 0.171614 0.862837
0.649898 -0.482939 0.142956
0.310103 0.485907 0.174263
0.338130 -0.153734 -0.499281
0.005993 0.819949 -0.495943
-0.002237 0.173988 0.861557
-0.332979 -0.174882 -0.503595
0.020449 -0.161881 -0.833027
0.694179 0.513667 -0.166355
0.336357 -0.152952 -0.500486
0.357589 -0.818045 0.177159
0.359201 -0.816550 0.173776
-0.002919 0.172616 0.862578
0.351607 -0.514615 -0.198422
-0.696802 -0.522907 0.170924
-0.331422 -0.178272 0.826215
-0.691753 -0.165345 -0.162714
-0.333345 -0.177900 -0.503003
0.347619 -0.511676 0.522482
-0.342251 -0.821181 0.161952
0.006686 0.852429 0.171995
0.326659 0.165283 -0.849646
0.309880 0.485822 0.173435
0.692415 0.514896 -0.166270
-0.688822 0.509811 -0.161355
-0.664347 -0.174336 0.503937
-0.351171 0.146298 -0.841996
-0.693073 -0.165614 -0.160849
0.005963 0.854039 0.174388
0.670288 0.179644 -0.506811
0.662786 0.172978 0.172925
0.338302 -0.148928 0.851742
0.303776 0.157063 0.503145
-0.336182 -0.520141 -0.144558
0.679035 -0.157754 -0.182634
-0.678340 0.157217 -0.505280
-0.661694 -0.176529 0.506247
0.014214 0.523466 0.520850
0.004475 0.820925 -0.495808
-0.327837 0.159177 0.504454
0.340138 -0.154166 -0.499756
-0.328019 -0.177442 0.824677
-0.696968 -0.522210 0.170769
0.303254 0.159896 0.503754
0.004969 0.820410 -0.496255
0.350857 -0.513565 -0.197104
0.301461 0.158010 0.504324
-0.664074 -0.174513 0.505563
0.011696 -0.841570 0.505836
-0.332776 -0.175093 -0.506674
0.677652 -0.159310 -0.181576
-0.691803 -0.163764 -0.160576
-0.678579 0.158131 -0.504267
0.012809 0.522988 0.518474
0.348008 0.841636 -0.161701
-0.690256 -0.163616 -0.162602
0.678462 -0.159640 -0.181140
-0.339316 0.478948 -0.505663
-0.674201 0.186426 0.174443
0.338657 -0.154096 -0.501822
-0.690558 -0.161842 -0.162453
-0.686771 0.512029 -0.161171
0.356923 -0.818414 0.174298
-0.330691 -0.181392 0.826320
0.691785 0.514477 -0.165542
-0.690526 -0.163557 -0.162445
-0.691571 -0.164619 -0.162116
0.346310 -0.509521 0.523392
0.011168 -0.841696 0.505437
-0.348869 0.144687 -0.841584
-0.691278 -0.165384 -0.160532
-0.326718 0.161465 0.505879
-0.340201 0.476569 -0.504389
0.303302 0.157887 0.505748
-0.690171 -0.164816 -0.162316
0.663547 0.173685 0.174134
0.345003 0.503279 -0.520934
0.304947 0.156506 0.502456
-0.329963 -0.178921 0.826359
-0.688573 0.512600 -0.162143
0.337830 -0.154312 -0.502127
-0.679520 0.158294 -0.505809
0.337643 -0.147370 0.851251
-0.673854 0.188387 0.174388
0.007431 0.853767 0.174258
-0.695527 -0.523280 0.169400
0.005243 -0.497358 0.849199
0.009317 -0.842472 0.506346
-0.328172 0.161846 0.504689
-0.326875 0.160053 0.506293
-0.335850 -0.519006 -0.144055
0.015502 0.500155 -0.867067
-0.340185 -0.821067 0.163660
0.357865 -0.817010 0.176083
-0.673632 0.188060 0.173812
-0.671915 0.188128 0.173544
-0.002210 0.170301 0.862539
-0.349043 0.145069 -0.841858
-0.696850 -0.523479 0.170631
-0.695377 -0.523215 0.171613
0.010425 -0.839919 0.506166
-0.696927 -0.523153 0.170380
0.004602 0.819694 -0.496024
0.350066 -0.513431 -0.197690
0.311876 0.487010 0.171967
-0.350440 0.145481 -0.841996
-0.665726 -0.176355 0.504620
0.012680 0.524712 0.520016
-0.002881 -0.515526 -0.518824
0.011347 -0.841957 0.508045
0.005274 0.853720 0.171734
0.005071 0.819418 -0.496528
-0.696764 -0.522015 0.171229
-0.330276 -0.178553 0.822787
0.007572 -0.499165 0.847585
0.691847 0.514886 -0.166132
0.006472 -0.497903 0.850773
0.336944 -0.153989 -0.500748
0.014919 0.524469 0.519425
0.311874 0.487702 0.175984
0.358138 -0.817424 0.173107
0.356115 -0.819400 0.174104
0.017259 0.499587 -0.865394
0.302740 0.159044 0.504388
-0.687272 0.513409 -0.162090
0.009369 -0.831710 -0.156537
0.006693 -0.832032 -0.157037
-0.672750 0.188083 0.174988
0.648230 -0.169262 0.507532
-0.340669 0.479217 -0.505943
0.350194 0.846060 -0.161228
-0.336386 -0.518936 -0.145130
0.012228 0.524420 0.519816
0.009529 -0.841758 0.506175
-0.692938 -0.520980 0.169618
0.678061 -0.159637 -0.183266
-0.672949 0.186935 0.173051
-0.343805 -0.821553 0.161063
0.660734 0.173656 0.171296
-0.678261 0.158471 -0.504685
0.327515 0.162801 -0.851989
0.010641 -0.840809 0.506110
0.649649 -0.486947 0.143370
-0.328095 -0.177445 0.824978
-0.350774 0.145894 -0.841465
0.304061 0.157941 0.503314
0.021567 -0.163602 -0.834160
0.661826 0.172008 0.173432
0.648979 -0.485427 0.143559
0.327693 0.163832 -0.851597
0.337427 -0.149794 0.850993
0.352984 -0.513950 -0.197395
0.345861 -0.510751 0.522759
0.344156 0.501476 -0.520380
0.006405 -0.498162 0.849635
0.012045 -0.842337 0.508234
-0.328163 0.161540 0.505769
0.356713 -0.817976 0.174526
0.647944 -0.486552 0.143957
-0.001815 -0.517766 -0.518618
0.021015 -0.164329 -0.837213
-0.330943 -0.179562 0.825324
-0.329595 -0.178341 0.826539
0.351387 -0.514036 -0.196637
0.010512 -0.841398 0.508422
0.303781 0.156310 0.502828
0.329285 0.161554 -0.851051
0.007163 -0.831198 -0.156715
-0.340467 0.500082 0.162787
0.352562 -0.515047 -0.197661
0.646121 -0.171842 0.508390
0.019870 -0.161128 -0.835249
-0.341709 0.503798 0.165255
-0.690355 -0.163483 -0.160961
-0.002817 0.172261 0.861603
0.007158 -0.830711 -0.157550
-0.673028 0.187163 0.173045
-0.000601 0.172005 0.862271
0.019088 0.500438 -0.865228
-0.663456 -0.175063 0.503800
0.346201 -0.510634 0.520952
-0.663937 -0.174438 0.505868
-0.002165 -0.517801 -0.517375
-0.341509 0.501838 0.163723
0.017052 0.501622 -0.866170
-0.340416 0.478550 -0.503699
0.353446 -0.512659 -0.196744
0.346176 -0.511493 0.525062
0.358534 -0.817980 0.175654
-0.001064 0.172097 0.862986
-0.692621 -0.164519 -0.162875
0.337738 -0.152404 -0.500484
-0.334198 -0.502855 0.493258
-0.339399 0.479703 -0.506006
-0.327145 0.159756 0.506987
0.344081 0.501200 -0.517794
-0.671237 0.188159 0.172452
-0.334122 -0.504004 0.493243
0.691352 0.513075 -0.166165
0.679493 -0.159186 -0.181144
-0.327199 0.849092 -0.182949
0.337549 -0.146826 0.849987
0.019716 -0.162191 -0.833617
