OFF
256 0 0
-0.326055 0.497526 0.175095
-0.358729 -0.847559 0.169169
0.006401 -0.846011 0.513776
0.356252 0.850997 -0.158209
0.339767 -0.519312 0.515737
-0.329347 0.160439 -0.843895
0.357787 0.850461 -0.160704
0.693155 0.201416 0.183778
0.694683 0.202432 0.185019
0.006887 -0.491167 0.855152
0.338150 -0.518999 0.515337
-0.336287 -0.515364 -0.155364
0.329502 -0.849837 0.168918
0.676306 -0.492272 0.168418
0.339830 -0.519792 0.515533
0.678664 -0.156263 -0.181282
0.339642 -0.142719 0.829325
-0.681529 -0.181031 -0.174408
-0.355016 0.837433 -0.176281
-0.683542 -0.179945 -0.172729
-0.315421 -0.492609 0.509636
0.678295 -0.157843 -0.183018
0.674192 0.192562 -0.508942
0.326597 -0.483496 -0.133048
0.324427 0.503106 -0.503174
0.679017 -0.159257 -0.182224
0.341400 0.161106 -0.854018
0.005436 -0.490325 0.854058
-0.673528 0.158989 0.158048
0.670694 0.504994 -0.152219
0.670490 0.504462 -0.153456
-0.359154 -0.845368 0.169226
-0.355976 0.836725 -0.175133
-0.359169 -0.846662 0.168706
0.339816 -0.143642 0.829436
-0.314836 0.483190 -0.488030
-0.012572 -0.512824 -0.503107
0.003360 0.513504 -0.858981
-0.324516 0.498057 0.175629
0.356942 0.849668 -0.158255
0.006243 -0.491045 0.853888
-0.325226 0.496541 0.174991
-0.673941 -0.506638 0.159817
-0.354553 0.837443 -0.176310
-0.340313 -0.138510 0.847986
-0.314744 -0.493439 0.507860
-0.350823 -0.195595 -0.507890
-0.339485 -0.139313 0.850247
0.339713 -0.521638 0.514365
-0.668876 0.141759 -0.502336
0.675377 -0.158579 -0.182809
0.321419 0.526565 0.161380
-0.315482 0.484017 -0.487234
-0.332523 -0.516315 -0.153327
-0.329645 -0.515313 -0.153696
0.321668 0.526397 0.162593
0.675674 0.193318 -0.509333
-0.353691 0.836746 -0.179272
0.676975 -0.494532 0.170196
0.004773 -0.489014 0.855865
-0.340036 -0.138577 0.848463
-0.669614 0.502762 -0.175765
-0.682090 -0.180208 -0.175082
-0.676532 0.159236 0.156903
0.677577 -0.157485 -0.181702
0.675315 0.191758 -0.510740
0.677749 -0.159398 -0.183036
-0.336487 0.143065 0.473997
0.340545 -0.142878 0.828107
0.674699 0.191847 -0.510243
-0.681697 -0.181909 -0.174640
0.332879 -0.181053 -0.508052
0.321912 0.528398 0.163966
0.006836 -0.489043 0.854870
-0.016992 -0.175117 -0.852808
0.678464 -0.159011 -0.181145
-0.316072 0.484872 -0.488693
0.329446 -0.850692 0.170404
0.339516 -0.143775 0.830355
0.005764 -0.491807 0.855725
0.326530 0.502671 -0.500446
-0.331591 -0.514611 -0.154622
-0.670918 0.504181 -0.172996
0.005814 -0.490264 0.853376
-0.312761 -0.494061 0.509607
0.675280 0.192108 -0.509744
0.005019 -0.489872 0.854684
0.355018 0.849998 -0.159080
0.324526 0.501200 -0.502894
0.006262 -0.846960 0.514116
-0.357343 -0.846475 0.167229
0.328727 -0.850130 0.170027
0.357162 0.849970 -0.159354
0.676764 -0.493920 0.169279
-0.001744 0.835530 0.166774
-0.353842 0.838299 -0.177748
0.669392 0.503820 -0.152193
0.327234 0.502246 -0.501729
-0.333157 -0.515569 -0.155587
-0.341006 -0.140680 0.849432
0.326763 -0.482341 -0.133594
0.675262 0.193091 -0.507784
0.006946 -0.844676 0.514638
-0.015947 -0.857576 -0.165760
-0.329480 0.161459 -0.844249
-0.666226 -0.175332 0.494292
0.323540 0.177051 0.490893
-0.328541 0.160231 -0.843441
0.322077 0.527857 0.160910
-0.679365 -0.180461 -0.173212
-0.017010 -0.174357 -0.854556
0.009124 0.837211 -0.462931
0.325606 -0.484527 -0.133579
-0.354795 0.837312 -0.177381
-0.670802 0.140044 -0.503037
-0.668923 0.504343 -0.173232
-0.314978 0.483522 -0.489304
-0.004065 0.833699 0.165890
-0.315164 0.482788 -0.489218
-0.667677 -0.174851 0.494113
0.678086 -0.158146 -0.181222
0.339334 -0.140113 0.829779
0.326655 -0.484360 -0.134146
0.669832 0.505078 -0.152305
0.018371 0.511172 0.497693
-0.337950 0.144477 0.472499
-0.338908 -0.142783 0.848781
0.339278 -0.519742 0.515214
-0.333819 -0.515249 -0.156053
-0.329103 0.161527 -0.845352
-0.334836 0.143152 0.472488
0.005467 -0.489631 0.854440
0.005187 -0.847535 0.514223
0.330967 -0.849746 0.171290
-0.329039 0.161006 -0.843137
0.678002 -0.158941 -0.181534
0.677692 -0.157445 -0.181897
0.340881 -0.143060 0.829001
0.005791 -0.489763 0.854661
-0.012574 -0.513156 -0.504859
0.341309 0.159294 -0.853078
-0.680705 -0.181588 -0.174862
0.019056 0.510481 0.496447
0.338262 -0.143015 0.829391
0.678822 -0.154853 0.495764
-0.018155 -0.174847 -0.854381
0.670642 0.504083 -0.153276
-0.673185 -0.504861 0.159985
0.018343 0.509509 0.499093
0.337570 -0.519779 0.514186
-0.338270 0.142524 0.472637
-0.352485 0.837533 -0.178746
-0.667671 0.502687 -0.173818
-0.337764 0.142639 0.473512
0.327987 -0.485740 -0.133568
-0.332930 -0.515314 -0.153823
0.678524 -0.157091 -0.182436
-0.335936 -0.514312 -0.153616
0.323762 0.179832 0.489729
0.003101 0.512895 -0.857254
-0.001842 0.834189 0.166845
0.321821 0.527318 0.164803
-0.000975 0.835258 0.166165
0.019148 0.509909 0.499063
-0.351147 -0.194244 -0.510646
0.356782 0.848930 -0.161318
-0.331347 -0.516453 -0.154380
-0.330332 0.161983 -0.844306
0.325607 -0.483174 -0.133942
0.003337 0.511886 -0.858724
-0.336370 0.141030 0.472837
0.019572 0.508921 0.497783
0.677360 0.191833 -0.508250
-0.671717 0.140256 -0.501680
0.001710 0.512545 -0.859397
0.676668 -0.493968 0.167063
-0.358556 -0.847246 0.167728
0.340935 -0.144093 0.827562
0.322211 0.526851 0.162335
-0.017992 -0.858613 -0.165367
-0.332696 -0.515315 -0.153764
-0.354184 0.836621 -0.176942
0.321499 0.526355 0.163472
0.006177 -0.490820 0.854172
0.355509 0.849677 -0.159322
0.326493 -0.481958 -0.132244
-0.358012 -0.846264 0.167904
-0.665704 -0.173039 0.492981
-0.680713 -0.180295 -0.174780
-0.313076 -0.493156 0.507386
0.670250 0.503369 -0.151372
0.332136 -0.849338 0.169969
0.668615 0.501809 -0.151686
-0.669034 0.503041 -0.170945
0.668568 0.503156 -0.152744
0.321960 0.526001 0.164405
0.011234 0.835924 -0.462865
-0.016859 0.174217 0.834891
0.694874 0.205219 0.184247
0.340391 -0.519773 0.514617
-0.668733 0.139167 -0.501102
-0.351338 -0.194487 -0.508667
0.006364 -0.844645 0.513196
0.325996 0.501490 -0.503220
-0.019869 -0.859024 -0.164239
-0.335331 0.141206 0.474158
-0.323951 0.497990 0.173657
0.018045 0.512138 0.499178
-0.334053 -0.513991 -0.154310
0.694772 0.202665 0.186477
0.330843 -0.847924 0.171394
0.694038 0.202956 0.183022
-0.673732 0.158482 0.156916
-0.676013 0.159235 0.157491
0.325777 -0.485030 -0.130953
0.006833 -0.845925 0.513649
0.677920 -0.493419 0.167559
0.339717 -0.143096 0.831306
0.334927 -0.179071 -0.508179
0.675761 -0.493614 0.168784
-0.674394 -0.505406 0.160780
0.676597 -0.492878 0.167281
0.018441 0.508130 0.499372
0.324442 0.179923 0.489995
0.667305 0.503571 -0.154903
0.675702 0.192463 -0.509447
-0.331172 -0.514921 -0.153573
-0.671777 0.504110 -0.174789
-0.001668 0.835058 0.165030
0.001937 0.514933 -0.859432
-0.329496 0.162200 -0.844261
-0.670967 0.504115 -0.174292
0.339522 -0.142974 0.829556
-0.337454 -0.138026 0.848432
0.333814 -0.181782 -0.505944
0.682730 -0.153780 0.494248
-0.352031 -0.194663 -0.509371
0.694348 0.202079 0.185565
0.325718 0.501060 -0.501607
-0.674478 -0.507314 0.161054
-0.325787 0.496343 0.173167
0.675433 0.191675 -0.506843
0.326563 0.502691 -0.502815
-0.016672 -0.857190 -0.165624
0.001879 0.513717 -0.857463
-0.360031 -0.848797 0.167341
0.339080 -0.144621 0.827509
-0.352746 0.836097 -0.177943
-0.353317 0.836346 -0.177663
-0.315094 -0.492372 0.508418
0.355668 0.851910 -0.159507
-0.331071 0.162173 -0.845641
-0.351371 -0.196531 -0.507737
-0.340088 -0.139951 0.848407
0.693424 0.203878 0.184203
-0.013350 -0.514171 -0.505364
