OFF
256 0 0
-0.649975 0.758332 0.053653
-0.298132 -0.298564 -0.650131
-0.650093 0.053984 0.055114
0.053676 0.759720 -0.650642
-0.651009 -0.297253 0.406074
-0.298305 -0.298461 -0.649589
0.055209 0.053893 0.758353
-0.297934 -0.649343 0.404599
0.052991 0.053878 0.760044
-0.297509 -0.651638 -0.298724
-0.650551 0.758608 0.053366
0.758243 0.052791 -0.650882
-0.295854 0.407528 0.759199
0.758934 0.052953 -0.650129
0.406907 0.054512 0.406056
0.757327 -0.650321 0.053006
0.054512 0.405778 0.406999
-0.650344 0.055716 0.757932
-0.650458 -0.298904 -0.299629
0.054544 0.407557 0.406443
0.404873 -0.653583 0.405464
-0.296833 0.757840 0.405719
0.405570 0.053306 0.406537
-0.295263 -0.649853 0.406412
0.055130 -0.650105 0.759217
0.054313 0.053361 0.759727
0.405421 -0.295703 0.757177
0.759100 -0.298078 0.404970
0.408084 0.759811 -0.297758
0.055462 0.054408 0.757770
0.406011 0.405948 0.054322
-0.299034 -0.297053 0.757314
0.756325 0.052923 0.056332
0.757951 0.407086 -0.298187
0.758105 -0.298491 0.406423
0.404237 -0.649695 0.406607
-0.297684 -0.650263 -0.299219
0.406426 -0.297346 -0.648693
0.404643 0.404885 -0.651037
0.407205 -0.297731 -0.649947
0.406861 -0.298085 -0.649228
-0.298365 0.405717 0.758055
0.756925 -0.298241 -0.299919
0.053507 0.760005 -0.650336
0.052757 0.758708 -0.649530
-0.648177 -0.298348 -0.297281
-0.297292 0.759154 0.404926
-0.649009 -0.297174 0.406971
-0.649144 0.054554 0.053543
-0.649711 0.405441 -0.297022
-0.297089 0.406711 -0.651852
0.056653 0.052012 -0.650770
0.054439 0.756144 -0.650934
0.759939 0.054538 0.054663
-0.296733 0.758017 -0.298840
0.052102 0.757666 0.054582
0.054427 0.053561 -0.649736
-0.649047 -0.296908 0.407172
-0.650017 0.406664 -0.298296
-0.649347 0.406133 0.406158
-0.651489 0.052581 0.054027
0.405547 0.408077 -0.651330
-0.297609 -0.650659 -0.297326
0.053681 -0.649030 0.758772
-0.298808 0.405374 0.759937
-0.296728 -0.298772 -0.649554
0.406336 -0.649483 -0.298543
0.053220 -0.649894 -0.650512
-0.650155 0.054149 0.053062
-0.298532 0.406198 -0.650377
0.759249 0.405979 -0.297067
-0.650157 0.758482 0.052070
-0.297536 -0.648031 0.408198
-0.649777 0.758324 0.053665
-0.296305 0.759918 0.406202
-0.650364 0.405456 -0.297998
0.759647 0.055091 -0.650400
-0.649168 0.054715 0.053283
0.054124 0.055032 -0.648640
-0.650105 -0.297928 -0.297332
-0.649747 -0.297512 -0.297840
0.054589 0.759452 0.055185
0.758464 -0.296997 -0.300125
-0.650123 -0.297032 0.406237
0.406820 0.405621 0.054395
-0.651193 0.055003 0.758785
-0.650136 0.054655 -0.649859
-0.649830 -0.297667 0.406650
0.053998 0.759217 -0.649264
0.053766 0.054654 -0.649094
0.055116 0.052966 0.757977
-0.651039 0.405553 0.404537
0.053316 0.760025 -0.650576
-0.649848 0.053590 0.758724
-0.297313 -0.649518 0.405634
-0.649221 -0.296838 -0.296751
0.757846 0.055619 -0.651307
-0.649736 0.405774 0.407717
0.756946 -0.649476 0.053605
-0.297427 -0.649940 -0.298355
-0.649917 0.405471 0.405279
0.407771 0.405627 0.054976
-0.298219 0.758179 0.407734
0.054598 0.755975 -0.648014
-0.299372 0.756965 0.406260
0.758044 0.055127 -0.651438
-0.650246 -0.649505 0.053693
0.758228 -0.299510 0.407385
-0.650709 0.053991 0.757338
0.054013 -0.650289 0.055922
0.758519 0.053285 -0.650603
-0.648684 0.054551 0.054410
0.054526 0.406456 0.408055
0.405179 -0.650185 0.406629
0.406208 0.405623 -0.648981
0.406017 0.054893 0.404291
-0.296642 0.758704 -0.297335
-0.296390 0.758731 0.406000
0.759530 0.054531 0.053683
-0.298348 0.758232 0.407138
0.759558 0.406229 -0.297660
-0.296853 0.407613 -0.652191
-0.297624 -0.649424 0.405710
-0.650585 0.054327 0.052848
0.759234 0.406571 -0.299063
0.405223 -0.650122 0.405695
0.405497 0.756428 -0.299123
-0.296926 -0.299204 -0.648737
0.053780 0.405603 0.405586
0.054507 0.757936 0.055502
0.758045 0.405593 -0.297766
-0.650393 -0.649515 0.054254
-0.298190 -0.649747 -0.299814
-0.648936 0.757751 0.053419
0.052070 -0.650752 -0.650535
-0.298079 -0.649471 0.405999
-0.648383 -0.297242 0.406241
-0.649260 0.053155 0.054452
-0.650959 0.052726 -0.649007
-0.649451 -0.299819 -0.298961
-0.649684 0.757083 0.054016
-0.298534 0.406309 -0.647894
-0.648922 0.758542 0.055577
0.759522 0.052528 -0.649885
0.054848 -0.648271 -0.650646
0.404867 0.758648 -0.298635
-0.297130 -0.297657 -0.648854
0.757967 0.406995 -0.297974
-0.297162 -0.650256 0.405385
-0.651188 0.406460 0.405392
0.757573 -0.296748 -0.297787
0.405334 0.405564 0.054030
0.760203 -0.297482 -0.299486
0.757159 0.054424 -0.649134
-0.648422 0.053901 -0.650257
0.758477 0.405578 -0.296028
0.052975 0.053625 -0.649594
0.054638 0.053079 -0.651495
-0.297918 -0.650347 0.406654
-0.648180 0.051535 0.757167
0.407545 -0.297980 0.757210
-0.647972 0.757999 0.054813
-0.297511 -0.649980 -0.298505
0.052753 0.406569 0.404021
-0.649799 -0.649959 0.052588
0.758300 -0.298089 0.405266
0.758537 -0.298524 0.406222
-0.296050 -0.298329 -0.648671
0.758081 0.406916 -0.298187
0.405094 -0.296554 -0.648395
-0.298148 0.757360 0.406244
-0.650173 0.053679 0.758006
0.406754 -0.297078 -0.650512
0.055181 0.757703 -0.650352
0.758218 -0.297841 0.405831
0.406880 0.758367 -0.299285
-0.650529 0.055551 0.053335
-0.299250 0.404929 0.758400
-0.297157 -0.297724 0.757105
-0.297060 0.405847 -0.650791
-0.298555 0.758010 -0.298950
-0.298373 -0.298485 -0.651150
-0.297215 0.757474 0.406719
-0.650854 -0.651542 0.054999
-0.650564 0.406840 -0.299361
0.758420 0.406191 -0.295537
-0.649248 -0.299296 -0.299026
-0.650393 0.055457 0.757717
0.053637 -0.650018 0.758705
-0.649348 0.052827 0.758321
0.756207 -0.298447 0.406567
0.406118 -0.650619 -0.299944
0.054368 0.758128 -0.649638
-0.297982 -0.650694 -0.298013
-0.650345 -0.649786 0.054286
0.407205 -0.297189 -0.650505
0.404965 0.054613 0.406461
0.055664 -0.650817 0.757978
0.053301 0.405753 0.405545
0.052606 0.408074 0.406772
-0.297623 -0.296328 0.758625
-0.297733 -0.298958 0.756993
0.408110 0.407042 0.053518
-0.297605 0.405546 -0.649306
0.756716 0.055232 0.055064
-0.297587 0.756415 -0.297805
0.406935 -0.649305 -0.298528
-0.648681 0.405879 -0.298985
-0.298121 -0.296463 0.757885
-0.650243 0.054618 0.052718
0.055444 0.054599 0.758480
0.758048 -0.298769 0.406028
0.405882 0.405752 0.055345
-0.651092 0.757436 0.054348
0.406135 0.757578 -0.298446
0.757704 -0.297400 -0.297493
0.757988 -0.297688 0.406385
0.758007 0.054140 0.054246
-0.299065 0.406635 -0.649053
-0.297682 0.405967 0.759492
-0.650975 0.055189 -0.650007
0.054955 -0.649947 0.053274
0.053848 0.406727 0.408073
-0.649700 0.757801 0.054002
-0.298478 0.405860 -0.650113
0.053078 -0.649257 0.055256
-0.298393 0.757534 0.405755
-0.297844 -0.650355 -0.298701
0.406468 0.405821 0.053409
-0.648452 0.758189 0.056828
0.054653 0.054496 -0.650364
0.054710 0.758844 0.053319
0.055626 0.056137 -0.648423
-0.651255 0.052882 0.055935
0.757663 0.053666 -0.648002
0.053080 -0.649692 -0.649609
-0.297499 0.403991 0.758433
-0.650228 0.404999 0.407972
-0.650331 0.404297 -0.298427
-0.296924 0.406579 0.757868
0.759923 0.406990 -0.298755
0.757803 -0.298248 0.405739
0.405595 0.758369 -0.296858
0.757347 0.052836 -0.649894
0.758506 -0.298401 0.405557
0.407367 0.758338 -0.295720
0.053532 -0.650275 0.055567
0.407836 0.054082 0.406298
-0.299485 -0.650032 0.406661
-0.649391 -0.299618 -0.299408
0.054806 0.053251 0.758942
0.055375 0.053602 0.759380
-0.649268 0.405357 -0.298158
0.052578 0.054639 -0.648460
-0.650343 0.406670 -0.295031
0.054261 -0.650516 0.053864
