OFF
256 0 0
-0.289685 0.402152 -0.595273
0.056913 0.391615 0.410307
-0.643744 -0.615532 0.043674
0.367496 -0.624797 -0.275437
0.044762 -0.662898 0.736612
-0.284282 -0.606214 -0.289026
-0.622931 0.057254 -0.633487
-0.650088 0.385690 -0.278540
0.741276 0.030060 0.028479
-0.296167 0.393324 0.763237
-0.641864 -0.616102 0.042192
0.044719 0.759249 -0.635599
0.397347 -0.663874 0.404524
-0.287300 0.401395 -0.595018
-0.303198 -0.276661 0.730925
0.061125 0.066508 0.757942
0.065802 -0.611927 -0.633082
0.033345 0.749277 0.045111
-0.649835 -0.292444 -0.319093
0.392563 -0.285805 0.740229
-0.289515 -0.304270 -0.687618
0.046325 -0.663570 0.735888
0.399222 0.756358 -0.300056
0.035281 0.059468 -0.623371
0.770057 -0.311912 -0.297733
0.410302 0.041293 0.388479
0.769173 -0.312101 -0.298000
-0.296329 0.393148 0.763912
0.738813 0.031384 0.028603
0.760885 -0.288827 0.402283
0.401514 -0.294762 -0.622532
0.398134 0.757566 -0.298854
-0.648311 0.383314 -0.277321
0.065864 -0.612904 -0.634745
-0.290037 -0.304084 -0.687747
0.756678 -0.627389 0.034921
-0.648422 0.384620 -0.276695
-0.637325 0.048313 0.032154
0.374742 0.390454 0.049379
-0.296540 0.394641 0.765083
0.741105 0.030579 0.028496
-0.293256 -0.304980 -0.689117
0.765271 0.042743 -0.641790
-0.637018 0.047909 0.032057
-0.291171 -0.303023 -0.686886
-0.301823 -0.627372 0.401210
0.394132 -0.285421 0.741088
-0.649009 -0.292670 -0.319604
0.761886 -0.288025 0.402206
-0.302862 -0.625839 0.401130
-0.637466 0.384775 0.397962
0.033333 0.750201 0.043151
-0.303951 -0.628750 0.400697
0.049310 0.758821 -0.632544
-0.282087 0.714673 0.407380
0.763295 -0.288854 0.403033
0.064592 -0.614073 -0.635813
-0.629279 0.068710 0.734102
-0.290416 -0.306113 -0.687666
0.061541 0.065754 0.758163
0.061768 0.065472 0.759352
0.060376 0.064943 0.758967
0.400559 0.756655 -0.299742
-0.644229 -0.617000 0.043694
0.044674 -0.664403 0.738028
0.035310 0.059082 -0.622821
-0.641369 0.045834 0.032137
-0.624935 0.057152 -0.630305
0.393316 -0.284433 0.740672
0.047372 -0.647798 0.092955
0.369330 -0.627209 -0.277080
-0.297474 0.754034 -0.281077
0.392600 0.408059 -0.634415
-0.628212 0.731779 0.061842
-0.302319 -0.627203 0.400667
-0.297244 0.752727 -0.280484
0.769390 -0.312256 -0.298049
0.765826 0.044348 -0.641245
0.401041 -0.293276 -0.623527
0.396132 0.757084 -0.299952
-0.297335 0.754516 -0.280268
0.396481 0.754924 -0.297508
0.056237 0.389212 0.410254
-0.648572 0.382407 -0.277077
0.766710 0.041055 -0.640351
0.740779 0.031259 0.029302
-0.289039 0.400718 -0.595793
0.760915 -0.288632 0.401734
0.741447 0.032003 0.027485
-0.290047 -0.304232 -0.687485
0.757766 -0.626928 0.036209
0.397804 0.755557 -0.298380
-0.648763 -0.290847 -0.320021
-0.302160 -0.627963 0.400421
0.058409 0.389452 0.409269
0.398608 -0.663936 0.406278
0.761549 -0.289402 0.401402
0.757121 -0.625708 0.035458
-0.647766 0.386344 -0.277706
0.761255 -0.288688 0.403376
0.034918 0.058675 -0.623145
0.048466 -0.647540 0.092839
-0.628394 0.730565 0.061771
0.399603 -0.662015 0.403979
0.740781 0.031985 0.028218
-0.296303 0.754591 -0.280550
-0.648918 0.385595 -0.278213
-0.643626 -0.617165 0.043328
0.751551 0.394251 -0.299593
0.376167 0.389451 0.049545
0.395291 -0.283283 0.741982
-0.282465 0.716245 0.407367
0.757589 -0.625412 0.034838
0.770468 -0.311983 -0.296430
-0.635547 0.384175 0.398372
0.393513 0.409184 -0.635304
0.410569 0.044087 0.387038
-0.290634 -0.303611 -0.688822
0.393763 -0.284782 0.741872
0.400524 -0.295947 -0.622052
-0.636752 0.385555 0.397546
0.393879 -0.284704 0.743479
0.048941 -0.647854 0.092946
-0.629971 0.068223 0.733097
-0.637981 0.048897 0.031399
0.369245 -0.624687 -0.277896
0.376008 0.391734 0.048930
-0.643956 -0.616186 0.045017
-0.294296 0.394327 0.763611
0.740971 0.031121 0.028852
0.398480 -0.663901 0.403771
-0.302203 -0.274214 0.729189
-0.642838 -0.619018 0.043862
0.367576 -0.624987 -0.277388
0.059569 0.067452 0.757364
-0.302766 -0.275075 0.730660
0.047709 -0.647979 0.093682
0.394619 -0.285105 0.741967
0.397547 -0.664685 0.404876
-0.288114 0.401425 -0.594313
-0.289617 -0.303848 -0.688993
-0.297179 0.752472 -0.280201
0.375684 0.389738 0.048820
0.742987 0.030511 0.027431
-0.292483 -0.303254 -0.688475
-0.636556 0.386081 0.397964
0.392660 -0.285863 0.741362
-0.301888 -0.627295 0.401310
0.410684 0.044690 0.388311
-0.298310 0.393075 0.763626
0.060098 0.065694 0.758586
0.394685 0.407510 -0.633207
-0.636853 0.383543 0.397792
-0.295265 0.393711 0.765214
0.046285 0.758731 -0.634127
-0.303144 -0.628792 0.401428
0.399379 -0.664005 0.405076
0.741690 0.030945 0.028422
-0.296330 0.394272 0.764216
0.768786 -0.311788 -0.297149
0.063559 -0.611054 -0.637026
-0.651137 0.384835 -0.276423
0.768649 0.042119 -0.643137
0.761515 -0.288954 0.403257
0.392656 -0.286967 0.741427
0.065947 -0.611656 -0.633669
-0.640049 -0.284269 0.380277
-0.635903 0.385420 0.398269
-0.623896 0.055956 -0.631487
-0.281969 0.713862 0.409381
0.033359 0.748355 0.042154
0.399734 -0.662842 0.403556
0.036458 0.058714 -0.622478
0.770499 -0.312313 -0.299926
-0.645526 -0.292512 -0.320745
0.410608 0.044892 0.387979
-0.290465 -0.302784 -0.688718
0.058958 0.388492 0.409677
0.411217 0.044279 0.387067
-0.304564 -0.276699 0.727456
-0.280546 0.713497 0.407003
-0.283461 -0.607625 -0.287800
-0.629284 0.733520 0.061508
0.391091 -0.284500 0.741252
0.375640 0.389395 0.047792
0.057218 0.388322 0.410601
-0.290667 -0.304029 -0.687857
0.757093 -0.627213 0.037575
-0.637452 0.047932 0.030848
0.048691 -0.645700 0.093416
-0.281081 0.715973 0.406233
-0.304073 -0.627549 0.401158
-0.628673 0.730928 0.061654
0.392937 0.406207 -0.635739
-0.295988 0.393511 0.764870
0.751335 0.393540 -0.299512
0.064998 -0.611995 -0.632795
0.411481 0.044391 0.388409
0.368471 -0.625434 -0.277891
0.047720 0.759217 -0.630716
0.375186 0.390489 0.050204
0.369597 -0.623437 -0.277149
-0.303537 -0.275729 0.729456
0.047216 -0.662639 0.737744
0.761040 -0.286752 0.402070
0.394235 0.406912 -0.633816
-0.623909 0.057923 -0.634066
-0.282565 -0.606859 -0.291027
0.762375 -0.288786 0.402844
0.056586 0.388670 0.409534
-0.286769 0.399611 -0.596490
-0.281712 0.715843 0.407535
0.049079 -0.646004 0.094288
0.392407 -0.285198 0.742707
-0.282452 0.714278 0.408650
0.761849 -0.286883 0.401452
-0.630309 0.066118 0.733559
-0.287271 0.401871 -0.595714
0.056903 0.389104 0.411092
-0.648239 0.385425 -0.276279
-0.295986 0.394457 0.762889
0.399712 -0.294367 -0.623589
-0.638897 0.047119 0.030803
-0.642191 -0.281364 0.381513
0.047975 0.759694 -0.633470
0.032473 0.748676 0.043097
-0.302174 -0.626053 0.402234
0.394910 -0.284923 0.739637
-0.644715 -0.618130 0.042851
-0.282095 0.714656 0.407595
-0.303986 -0.627811 0.399994
0.764165 0.042063 -0.642395
0.397956 0.757121 -0.300720
0.066599 -0.613387 -0.636116
0.060824 0.063119 0.757548
0.411536 0.044606 0.387548
0.740201 0.032078 0.028763
0.394329 0.407817 -0.632017
-0.302329 -0.276571 0.729644
0.058215 0.065185 0.758540
0.391825 -0.283828 0.741777
-0.282118 0.716037 0.407755
-0.282968 -0.607991 -0.288497
-0.301495 -0.626001 0.400889
0.402253 -0.294171 -0.622943
-0.631007 0.068854 0.732104
-0.635570 0.383936 0.399914
0.047965 0.760178 -0.632007
-0.291149 -0.303805 -0.688549
-0.643510 -0.617064 0.043513
-0.303140 -0.276286 0.728139
-0.297832 0.753000 -0.279379
0.401745 -0.294440 -0.622754
0.066675 -0.612202 -0.635684
-0.648779 0.386194 -0.278484
0.046074 0.759735 -0.633327
