OFF
256 0 0
0.766822 -0.042425 0.049881
-0.653133 -0.396400 -0.318053
0.049097 -0.391822 0.422508
0.383687 -0.380174 0.056645
-0.265575 0.630570 -0.265971
-0.295151 0.302706 0.732727
-0.264505 0.631783 -0.266266
0.054397 0.632450 -0.610184
0.768883 0.295770 0.389063
0.069151 0.632647 0.745215
0.392448 -0.020419 0.399172
0.723344 0.274166 -0.299095
-0.267465 0.630642 -0.265674
0.068999 0.622404 0.043803
-0.653165 -0.394872 -0.317703
0.716595 -0.377402 -0.288365
0.405040 0.314307 0.753145
0.405288 0.312340 0.751430
-0.284475 -0.747865 0.412382
-0.655167 -0.394651 -0.316473
-0.294913 0.304730 0.733828
-0.307993 -0.766801 -0.329262
0.715836 -0.377382 -0.287067
0.382628 -0.410708 -0.635035
-0.660596 -0.049577 -0.640966
-0.284111 -0.747177 0.413589
0.723321 0.274470 -0.298029
-0.624466 0.644609 0.077765
-0.638012 -0.057458 0.735289
-0.637211 -0.057071 0.735711
0.394779 -0.022765 0.397913
0.393752 -0.021573 0.398214
0.724840 0.276826 -0.298439
0.765036 -0.042290 0.049429
0.038612 -0.070508 -0.629303
-0.645342 0.285291 0.395292
-0.295747 0.305227 0.733122
0.769569 0.297634 0.387789
0.768205 0.297733 0.390549
0.734821 0.637450 0.068357
0.049194 -0.759483 -0.646869
-0.623353 0.645643 0.077140
0.769109 0.298036 0.388367
0.051516 -0.760482 -0.646639
-0.283548 -0.748356 0.413051
0.394312 -0.021685 0.398937
-0.274587 0.646591 0.395283
0.384071 -0.378496 0.057574
0.386294 -0.379570 0.056836
0.723773 0.274341 -0.297576
0.734703 0.638623 0.069018
0.749990 -0.071026 -0.640075
0.047701 -0.392577 0.421659
0.071195 0.634139 0.744658
0.383985 -0.381547 0.057471
-0.283408 -0.748456 0.411077
0.767411 -0.043053 0.048742
-0.306046 -0.765937 -0.328378
0.393680 -0.023525 0.400190
-0.296627 0.305898 0.732985
-0.635724 -0.424026 0.397539
0.396125 0.617253 0.397349
0.070081 0.633811 0.743741
0.716738 -0.376624 -0.289829
0.054600 0.634130 -0.611391
0.405371 0.313330 0.752604
-0.304123 -0.390974 -0.637391
0.406522 0.288143 -0.652382
-0.639774 -0.761338 0.060492
0.052354 0.632902 -0.614252
0.035088 -0.069952 -0.630860
-0.622982 0.647318 0.077810
0.069094 0.632681 0.743001
-0.635564 -0.423709 0.399321
0.072134 -0.038591 0.743696
-0.290488 0.291137 -0.614687
0.769681 0.296048 0.387930
-0.297345 -0.390094 0.729632
0.038457 -0.719676 0.039598
0.765779 -0.042605 0.050566
0.055822 0.633080 -0.611713
0.040150 -0.720446 0.037545
-0.644503 0.307262 -0.292070
-0.644489 0.286429 0.396888
0.384099 -0.411181 -0.635962
0.069819 0.633738 0.743300
-0.284566 -0.747899 0.414073
-0.634974 -0.422488 0.397085
-0.307424 -0.766217 -0.329629
-0.644184 0.307254 -0.289645
0.049423 -0.391396 0.422517
0.383303 -0.380130 0.058913
0.404600 0.645918 -0.280127
-0.306008 -0.764908 -0.327733
0.049870 -0.393674 0.422005
-0.290196 0.291104 -0.613328
0.750044 -0.071722 -0.640591
-0.292256 0.290621 -0.614641
-0.661626 -0.047550 -0.642247
0.383021 -0.409672 -0.634773
-0.307424 -0.764400 -0.328983
-0.264346 0.632350 -0.266827
-0.638566 -0.058798 0.734209
-0.636114 -0.057388 0.736189
0.398214 0.618409 0.395450
-0.295436 0.305362 0.732347
0.069014 0.624535 0.040850
0.769536 0.296365 0.388794
-0.661568 -0.047367 -0.641035
0.406978 0.648301 -0.280458
-0.303354 -0.389342 -0.636434
0.039453 -0.720923 0.039116
0.048969 -0.393632 0.423986
0.069654 0.623829 0.044613
-0.622104 -0.037996 0.057078
-0.308925 -0.764840 -0.329523
0.385662 -0.378210 0.057991
0.396846 0.618522 0.395408
0.397525 0.619338 0.393486
0.767480 -0.041214 0.048980
-0.264900 0.629904 -0.265332
0.767053 0.299308 0.389232
0.398418 0.616922 0.397391
0.716838 -0.378355 -0.286739
-0.294510 0.304744 0.732272
0.397556 0.619070 0.394863
-0.645084 0.287026 0.395523
0.409312 0.647809 -0.281308
0.396088 0.616961 0.393619
-0.285814 -0.746854 0.413214
0.053100 0.633052 -0.610220
-0.623166 -0.038298 0.057333
0.072975 -0.039048 0.741037
-0.290724 0.290635 -0.612363
0.399152 0.617376 0.393548
-0.275505 0.644693 0.391814
0.037616 -0.070939 -0.629933
0.037767 -0.071136 -0.632907
0.385808 -0.379794 0.058144
0.394922 -0.020885 0.400078
0.408309 0.287424 -0.653759
0.392576 -0.024191 0.397274
-0.656801 -0.396716 -0.317703
-0.303144 -0.388694 -0.635299
0.040897 -0.720951 0.038527
0.068057 0.632787 0.744828
0.054201 0.632460 -0.613148
-0.307977 -0.764103 -0.325713
0.053912 0.633529 -0.611758
0.384270 -0.412052 -0.634087
-0.638137 -0.761168 0.057949
0.732676 0.636784 0.069568
-0.639107 -0.760428 0.058201
0.035272 -0.071332 -0.630908
0.384771 -0.381552 0.059033
0.053693 0.631402 -0.611691
0.766122 -0.041269 0.051436
-0.274158 0.643222 0.392108
0.406148 0.313633 0.754137
0.396409 0.618118 0.394026
-0.290882 0.291442 -0.614701
0.393308 -0.022062 0.396834
0.038348 -0.721751 0.038890
-0.291557 0.289510 -0.612289
0.068869 -0.040773 0.741337
-0.662208 -0.047723 -0.640363
-0.621762 -0.038430 0.055145
0.407401 0.287672 -0.654700
-0.637489 -0.760754 0.057716
-0.661674 -0.047505 -0.640337
0.393010 -0.022641 0.398797
0.053432 0.633316 -0.611806
0.383330 -0.411134 -0.635015
-0.307959 -0.764726 -0.329550
-0.295415 -0.388868 0.731309
-0.288554 0.291735 -0.615708
0.733323 0.636813 0.071199
-0.273393 0.642105 0.395975
0.403261 -0.773752 -0.311174
0.038310 -0.721248 0.037917
0.770263 0.299334 0.390544
-0.637093 -0.057021 0.737789
0.066851 0.633152 0.744328
-0.661546 -0.048324 -0.640417
-0.290221 0.290996 -0.616989
-0.294468 -0.388181 0.731416
-0.297617 0.303447 0.730355
-0.304028 -0.390072 -0.635619
0.036491 -0.069235 -0.631720
0.385115 -0.412601 -0.635571
0.050496 -0.760970 -0.646954
0.750654 -0.071553 -0.640873
0.714888 -0.379141 -0.287705
-0.295765 -0.390216 0.731354
-0.624374 0.645631 0.078008
-0.623004 -0.039222 0.057200
-0.295377 0.305403 0.732686
0.037520 -0.071625 -0.629506
-0.308450 -0.766225 -0.327925
0.405149 0.288131 -0.654093
-0.644791 0.309444 -0.292334
-0.294598 0.302961 0.732809
0.068842 0.633682 0.742593
-0.656164 -0.395179 -0.316773
0.071175 -0.038305 0.741664
0.715274 -0.378266 -0.287596
-0.271551 0.646433 0.393649
-0.291199 0.292167 -0.615826
0.714169 -0.377485 -0.287230
-0.638693 -0.761930 0.057909
0.405675 0.314344 0.753058
0.732336 0.638720 0.070580
0.051037 -0.761927 -0.647559
-0.621164 -0.040909 0.056306
0.716143 -0.376785 -0.289119
0.393775 -0.023068 0.399609
0.055309 0.631205 -0.612155
-0.284898 -0.745761 0.411998
0.050730 -0.760415 -0.646084
-0.654610 -0.394560 -0.316437
0.405826 0.313513 0.750897
-0.637790 -0.057934 0.735657
-0.624057 0.649009 0.077987
-0.620574 -0.039307 0.057549
-0.293708 0.304709 0.732452
0.067158 0.632904 0.745308
0.068376 0.631444 0.746083
-0.307409 -0.766865 -0.328197
-0.307801 -0.767333 -0.328384
0.053651 0.633199 -0.612974
0.749111 -0.072578 -0.641696
-0.636810 -0.057391 0.736107
0.070956 -0.038886 0.742367
-0.643075 0.308014 -0.291436
0.054164 0.632212 -0.611639
0.049247 -0.392106 0.421947
-0.290477 0.292253 -0.614895
0.382612 -0.410250 -0.634655
-0.637430 -0.057645 0.737545
0.394493 -0.021766 0.397381
0.768127 0.297398 0.386623
0.069890 0.635584 0.744672
-0.304202 -0.389754 -0.635500
0.039737 -0.719612 0.039278
-0.643647 0.308468 -0.291035
0.734857 0.637530 0.070458
0.054921 0.633913 -0.612256
0.384657 -0.410909 -0.637648
-0.623465 0.646471 0.077731
0.735210 0.636974 0.070178
0.406530 0.288962 -0.652280
0.402882 -0.772210 -0.310888
-0.266635 0.628089 -0.264974
0.054727 0.633016 -0.610295
0.405724 0.286807 -0.653616
0.766785 -0.041284 0.051191
