OFF
256 0 0
-0.612391 -0.048160 0.044912
0.744713 -0.034399 0.033607
-0.605549 -0.724102 0.056027
-0.636306 -0.048413 -0.600001
-0.634973 -0.047720 -0.600949
-0.309774 0.657326 -0.290343
-0.310488 0.658113 -0.290225
0.026450 0.636567 0.055671
0.385461 0.282384 0.729116
0.397535 0.627778 0.385520
-0.630662 -0.401500 -0.279261
0.730400 0.589653 0.047973
0.732625 0.296249 -0.317675
-0.626712 -0.391196 0.385493
0.019195 -0.402437 0.372067
0.729981 -0.060412 -0.635950
0.067104 0.631153 0.730556
-0.310229 0.659866 -0.290030
0.051490 -0.054808 0.733097
0.743792 -0.033541 0.033065
0.396407 0.648875 -0.293431
0.396900 0.647738 -0.294907
-0.269876 0.291466 0.730510
-0.295382 -0.391506 0.768339
0.732122 0.587008 0.046812
0.744352 -0.033193 0.034624
0.077955 -0.050318 -0.620369
0.731182 -0.060350 -0.635260
0.409468 -0.401310 -0.630347
-0.650720 0.292127 -0.282173
0.064373 -0.756013 0.051929
0.395468 0.649998 -0.296966
-0.309177 0.657517 -0.290002
0.398140 0.625519 0.386885
-0.267991 0.292746 0.731575
-0.626734 -0.391842 0.387095
0.395461 0.648381 -0.294554
-0.290224 -0.717882 -0.291048
-0.611447 -0.051312 0.045488
0.050011 -0.056526 0.731217
0.387151 0.282443 0.731527
0.059785 -0.731420 -0.618627
-0.300268 -0.378544 -0.620830
0.411101 -0.401677 -0.630850
-0.630016 -0.402416 -0.280077
0.737733 0.279173 0.391888
0.732796 0.293007 -0.317251
0.019288 -0.402311 0.373352
-0.295233 -0.391076 0.766005
0.730007 0.588805 0.047489
-0.289859 -0.718213 -0.291615
0.737816 0.279829 0.392599
0.379640 -0.756185 -0.280781
0.730757 0.297469 -0.315307
-0.627991 -0.393029 0.386418
-0.635871 -0.050155 -0.598920
-0.292682 -0.745307 0.402254
-0.616854 0.254646 0.397486
0.396789 0.627486 0.384472
0.749168 -0.397890 -0.297107
0.379541 -0.036626 0.370152
0.378048 -0.756571 -0.279287
-0.615858 0.254521 0.395488
0.749957 -0.397925 -0.295400
0.730444 0.587943 0.047565
0.033933 0.648980 -0.627615
0.058223 -0.730795 -0.616948
0.376556 -0.034711 0.369314
-0.651237 0.292744 -0.282503
0.731589 0.588947 0.048008
-0.639288 -0.061073 0.767324
0.051602 -0.053901 0.730434
-0.294886 -0.392114 0.767109
-0.290537 -0.717699 -0.289308
-0.626940 -0.392666 0.385736
0.021812 -0.403488 0.374375
-0.632494 -0.400905 -0.280331
0.068183 0.630982 0.732529
0.731240 0.588526 0.047053
-0.298745 -0.378108 -0.622317
-0.287700 -0.717341 -0.291867
-0.614928 0.253424 0.394788
-0.604984 -0.722303 0.058696
-0.268593 0.292726 0.731071
0.057981 -0.731847 -0.618476
0.377776 -0.035884 0.369965
-0.650833 0.294356 -0.281188
0.732283 -0.059250 -0.635228
0.025823 0.637502 0.057466
-0.650308 0.292205 -0.281879
-0.639600 0.645114 0.057227
-0.269244 0.293098 0.732326
-0.289609 -0.718263 -0.291146
-0.611795 -0.048229 0.045093
-0.635689 -0.048433 -0.600847
0.402225 0.299036 -0.656715
0.410250 -0.402710 -0.630106
-0.636961 -0.049323 -0.600650
0.374820 -0.033841 0.369605
-0.301723 -0.377078 -0.621210
-0.295757 -0.391147 0.765474
0.395618 0.627412 0.387087
0.749131 -0.397569 -0.296687
0.743108 -0.034041 0.034381
-0.280208 0.294172 -0.610925
0.051242 -0.055456 0.729401
0.018812 -0.403214 0.373443
0.376527 -0.033498 0.368574
-0.268157 0.290545 0.732208
0.067568 0.630647 0.732291
0.410105 -0.401121 -0.630903
0.750719 -0.398239 -0.297513
-0.286935 0.624936 0.398092
0.378955 -0.756168 -0.279544
0.410446 -0.411483 0.047871
-0.287275 0.626376 0.396116
-0.635901 -0.047667 -0.600016
-0.606192 -0.722502 0.056401
0.018738 -0.403324 0.372999
0.032556 0.646476 -0.626149
-0.294481 -0.392840 0.765759
0.397718 0.650650 -0.295630
0.025269 0.638434 0.055321
0.378213 -0.756560 -0.280097
0.079427 -0.053230 -0.621774
0.409027 -0.401211 -0.631279
0.409976 -0.403387 -0.628811
-0.294511 -0.392279 0.766847
0.737618 0.278895 0.391048
-0.638361 0.645828 0.057608
-0.607389 -0.723163 0.057716
0.408010 -0.404310 -0.630085
0.068701 0.630261 0.731776
0.732811 -0.058292 -0.637007
0.733187 -0.059822 -0.638098
-0.632103 -0.401157 -0.278715
-0.268798 0.294040 0.732773
0.407788 -0.410081 0.047679
0.027386 0.639083 0.055779
-0.651359 0.292772 -0.283203
0.743650 -0.034909 0.034297
0.050287 -0.056046 0.731250
0.377106 -0.035198 0.369863
0.730243 0.588074 0.048046
-0.270712 0.292259 0.731235
-0.287680 -0.718042 -0.290104
-0.653178 0.293932 -0.283603
0.034520 0.647852 -0.624868
0.378004 -0.034961 0.369199
0.409449 -0.409381 0.048222
-0.627475 -0.392016 0.384959
-0.636330 -0.047960 -0.599769
0.403398 0.298664 -0.659211
0.060153 -0.731855 -0.617924
0.736418 0.280181 0.391097
-0.639402 0.645672 0.057520
0.052154 -0.056943 0.730966
0.409004 -0.401314 -0.632138
-0.611776 -0.048272 0.045939
0.057271 -0.731630 -0.617105
-0.293470 -0.392838 0.766035
-0.291104 -0.719030 -0.291789
-0.292298 -0.744222 0.402276
0.397491 0.628104 0.385131
0.402322 0.299727 -0.658976
0.377578 -0.036309 0.371033
0.751265 -0.396957 -0.297654
-0.611815 -0.048290 0.045289
0.731820 -0.061456 -0.635979
-0.616925 0.253834 0.394099
-0.290576 -0.718749 -0.290188
0.032745 0.647869 -0.626934
-0.605260 -0.724019 0.056788
0.050913 -0.056160 0.731629
-0.650592 0.293664 -0.282270
-0.310422 0.658583 -0.289258
0.750774 -0.396406 -0.295004
-0.290323 -0.718322 -0.291318
0.750015 -0.396887 -0.296650
-0.652353 0.294759 -0.280761
-0.634611 -0.048115 -0.600752
0.410473 -0.402195 -0.630739
-0.631343 -0.403049 -0.277969
-0.611026 -0.048008 0.044424
0.385650 0.284071 0.728949
0.058165 -0.730677 -0.616678
0.396364 0.628342 0.386846
0.739586 0.280303 0.390580
0.033726 0.647926 -0.626885
-0.302334 -0.379387 -0.619814
0.409010 -0.409183 0.045820
-0.610971 -0.047183 0.046162
0.730546 0.293808 -0.317750
0.376913 -0.037107 0.369854
0.731008 0.585376 0.047470
-0.294494 -0.391437 0.767210
0.733757 -0.058604 -0.637943
-0.270347 0.290827 0.731725
0.058476 -0.733221 -0.616122
0.745305 -0.032006 0.035727
-0.611852 -0.049493 0.045410
-0.641923 0.646198 0.057569
0.734055 0.295481 -0.316048
0.739319 0.280081 0.391576
0.742824 -0.033757 0.033215
0.397656 0.625595 0.384760
0.033315 0.647527 -0.626863
-0.301147 -0.381350 -0.623079
0.397819 0.647918 -0.295840
0.383953 0.282240 0.730228
-0.615511 0.250521 0.394159
0.734697 0.278962 0.390728
-0.277994 0.292731 -0.610984
0.376930 -0.037370 0.372196
0.731267 0.294711 -0.318295
0.398375 0.627907 0.385122
-0.632395 -0.401016 -0.278942
-0.300192 -0.379079 -0.621887
-0.610904 -0.048072 0.046457
0.409750 -0.401970 -0.630415
-0.615698 0.253683 0.394714
-0.640259 0.646334 0.058252
0.385989 0.282161 0.728762
0.034478 0.647179 -0.625591
0.068695 0.631124 0.730736
-0.607915 -0.722705 0.058301
0.408416 -0.409329 0.046708
0.376779 -0.035950 0.370347
0.384690 0.283038 0.733022
0.379396 -0.035380 0.369410
-0.312837 0.660111 -0.291302
0.744452 -0.033436 0.036064
0.403219 0.298740 -0.659527
-0.278871 0.291010 -0.609902
-0.616397 0.253455 0.396499
0.738162 0.280100 0.390713
-0.294939 -0.390537 0.765088
-0.302035 -0.379414 -0.620228
-0.277617 0.292377 -0.609935
-0.652792 0.294293 -0.282036
-0.269196 0.290948 0.731252
0.730982 0.588925 0.047923
-0.294414 -0.746576 0.403418
0.067755 0.632933 0.731774
-0.610970 -0.048532 0.046748
0.403836 0.301128 -0.660362
-0.639019 -0.059719 0.766450
0.737536 0.280406 0.390921
-0.310742 0.659175 -0.291143
0.076180 -0.050034 -0.618930
0.410257 -0.409012 0.048534
-0.295650 -0.745676 0.400549
-0.652173 0.293184 -0.281625
0.379153 -0.757047 -0.280768
0.028655 0.638669 0.056996
-0.311192 0.658657 -0.291981
