OFF
256 0 0
0.632134 0.112429 -0.537961
-0.055117 0.130444 0.777187
-0.048597 0.431141 -0.860542
-0.398771 0.766545 -0.221655
-0.707792 0.121988 0.102120
0.616194 0.133180 0.764601
-0.034453 -0.872417 -0.222688
-0.701300 -0.536293 0.128768
0.614719 0.103793 0.115003
0.290598 -0.195642 0.785929
0.297393 0.769785 -0.202000
-0.036653 0.461719 0.446886
-0.385161 -0.201928 0.797837
-0.370588 0.106680 -0.868544
0.274462 -0.546543 0.443180
-0.370000 -0.205155 -0.549410
-0.704934 0.439254 -0.190834
-0.383170 -0.202304 0.797202
-0.050424 0.431241 -0.860159
-0.037256 0.462354 0.446884
0.636108 0.762173 0.117748
-0.059575 -0.198749 -0.887674
0.289726 0.108490 -0.876251
-0.056407 -0.859340 0.439100
-0.701861 -0.537879 0.129438
-0.062198 0.753241 0.108200
0.617417 0.436569 -0.221536
0.617443 0.135664 0.765843
0.616857 0.134814 0.765099
0.291001 0.107294 -0.876240
0.302320 -0.210718 -0.538757
-0.384449 -0.201401 0.797421
-0.727271 -0.202486 -0.206901
0.611814 0.435078 0.426849
0.291584 0.439036 -0.540977
0.615385 0.103001 0.112679
-0.045360 0.766461 -0.521318
-0.381634 0.124016 0.449864
0.259799 -0.873830 0.105963
-0.383251 0.123543 0.449852
0.613047 0.433227 0.427893
-0.360726 -0.851400 0.127221
-0.050514 0.433690 -0.860037
0.619188 -0.235973 0.427160
-0.036060 0.460239 0.445626
-0.050383 0.430454 -0.858178
-0.370473 0.107398 -0.869739
-0.701200 -0.535910 0.128645
-0.351505 0.413088 -0.506626
0.623250 -0.544944 0.100134
-0.051304 0.432151 -0.861544
-0.060338 -0.196432 -0.888220
-0.044424 0.767499 -0.521377
0.290452 -0.533903 -0.215248
0.622045 -0.544113 0.101040
-0.059300 -0.195736 -0.887528
0.610561 0.432112 0.427155
-0.044589 0.769028 -0.521482
-0.050158 0.432439 -0.860103
-0.035039 -0.874017 -0.221710
0.623319 -0.547490 0.101681
0.297191 0.775744 0.420995
-0.044071 0.768919 -0.521943
0.290009 0.107424 -0.875320
0.632588 0.114447 -0.538390
-0.058803 -0.197932 -0.888129
0.611405 0.433609 0.428544
-0.045581 0.768104 -0.522188
-0.064293 0.751897 0.104509
0.639406 -0.210612 -0.210110
0.261061 -0.871904 0.108485
0.290574 0.108397 -0.875728
0.290455 -0.194377 0.784714
0.289214 0.105910 -0.873575
-0.062708 0.752210 0.108110
-0.707531 0.123765 0.100758
0.617357 0.436793 -0.221898
0.621964 -0.545334 0.102221
0.274320 -0.543200 0.440461
0.291448 0.439776 -0.540428
-0.049291 -0.517262 0.776364
-0.382892 -0.200773 0.796951
0.259030 -0.873926 0.106276
0.297197 0.426115 0.784550
-0.371393 -0.201952 -0.546862
0.289334 -0.533890 -0.213892
-0.371447 -0.202691 -0.549891
-0.045498 0.767504 -0.521629
-0.377860 -0.552125 -0.223285
-0.038034 0.461223 0.447385
-0.061724 0.750475 0.108924
0.635492 -0.211045 -0.210603
0.300985 -0.211500 -0.541007
0.290903 0.108743 -0.873898
0.623453 -0.543794 0.101125
0.617086 0.136285 0.766989
0.616970 0.433102 -0.222009
0.258675 -0.873284 0.107331
0.622325 -0.545405 0.102099
-0.036595 0.463569 0.445497
0.616211 0.137697 0.765855
0.619399 0.436937 -0.222193
-0.044728 0.769216 -0.523411
-0.702744 -0.537363 0.128202
0.298458 0.427155 0.782540
0.287633 -0.535708 -0.214051
0.296542 0.427271 0.785167
-0.381272 0.122595 0.450671
0.618473 -0.239031 0.424257
0.631674 0.110471 -0.536626
-0.398891 0.768201 -0.221192
-0.052711 0.132408 0.776829
0.618218 0.433896 -0.221885
0.297827 0.427677 0.784374
-0.369889 0.105564 -0.870485
0.288686 -0.533965 -0.214450
-0.382064 0.122391 0.451757
-0.369724 0.108088 -0.869539
0.296782 0.768559 -0.200527
-0.381981 0.122592 0.451417
0.619721 -0.236250 0.428738
-0.370014 0.106963 -0.868905
-0.397543 0.769649 -0.218927
-0.043215 -0.525689 -0.554483
0.289536 0.438340 -0.539514
0.287026 -0.535130 -0.214978
0.618001 0.436465 -0.221982
0.638178 -0.210021 -0.210354
-0.398303 0.443354 0.133461
0.303712 -0.211230 -0.538680
0.303242 -0.213376 -0.538711
-0.348204 0.412940 -0.507071
-0.370733 -0.201842 -0.548526
-0.382267 -0.202357 0.796446
-0.369799 0.107440 -0.869624
-0.711409 0.123027 -0.533228
0.258035 -0.873330 0.105820
0.637306 -0.213217 -0.211254
-0.706387 0.121543 0.100341
-0.399688 0.768429 -0.219646
0.289480 0.106773 -0.875326
0.623355 -0.544168 0.099716
0.291301 -0.195136 0.783828
-0.370098 -0.203789 -0.549497
-0.369909 0.107185 -0.869076
-0.371041 -0.200855 -0.548265
-0.058204 -0.196616 -0.888699
-0.706602 0.122640 0.099019
0.615434 0.104594 0.112171
-0.398906 0.441639 0.134004
-0.705369 0.438957 -0.190347
0.614593 0.104755 0.113569
0.638914 -0.210956 -0.211060
0.290862 -0.195501 0.784252
0.287356 -0.533520 -0.213498
0.639008 -0.212030 -0.210595
-0.050966 -0.517473 0.775168
0.636166 0.765180 0.116968
0.631074 0.112778 -0.538961
0.612794 0.431900 0.428297
-0.055938 0.131897 0.778921
0.304098 -0.211762 -0.539947
-0.711314 0.122063 -0.531833
0.287944 -0.533608 -0.215266
0.624516 -0.544316 0.101701
0.289904 -0.196294 0.783834
-0.706629 0.122491 0.100874
0.302058 -0.209691 -0.540109
0.300108 0.777702 0.421000
-0.044829 0.768273 -0.522878
0.615917 0.134916 0.765512
0.297203 0.777107 0.420488
0.635461 0.761742 0.118786
-0.378034 -0.552514 -0.220490
-0.058291 -0.858306 0.438294
0.274381 -0.543609 0.444768
0.616519 0.436932 -0.221892
-0.381473 0.122242 0.453251
-0.729120 -0.201158 -0.206623
-0.050638 -0.518807 0.774406
0.288953 0.106717 -0.876359
0.615614 0.103516 0.113479
0.633544 0.111210 -0.539243
-0.396167 0.444033 0.134979
-0.370497 -0.202351 -0.547850
-0.058467 -0.197623 -0.888963
-0.710054 0.121184 -0.532209
0.613745 0.434059 0.427767
0.296454 0.428961 0.784905
-0.377192 -0.552170 -0.221831
-0.398312 0.768537 -0.219999
-0.726579 -0.199479 -0.208642
-0.703893 0.439158 -0.191635
-0.353697 -0.522509 0.459580
0.635185 0.762367 0.117149
-0.702050 -0.198103 0.447047
0.632658 0.114739 -0.537494
-0.399870 0.768583 -0.220632
-0.370141 0.107648 -0.868591
0.634044 0.763183 0.118355
-0.707967 0.122435 0.099609
0.612312 0.431936 0.427181
-0.051973 0.430914 -0.859519
0.292335 -0.194534 0.784038
0.301458 -0.212231 -0.540386
0.295435 0.768511 -0.201159
0.289432 0.441576 -0.541965
-0.035154 -0.872837 -0.222652
0.611741 0.431859 0.426358
-0.051543 -0.518753 0.773783
-0.354840 -0.523777 0.458191
-0.369787 0.107144 -0.869085
-0.699558 -0.195223 0.447239
0.258989 -0.873128 0.106148
-0.035130 0.462445 0.448016
-0.378752 -0.550930 -0.221172
0.635088 0.761937 0.115361
-0.048623 0.431951 -0.860759
-0.383612 -0.202999 0.796980
-0.371169 -0.203658 -0.549211
-0.369885 0.107677 -0.869187
-0.377475 -0.551376 -0.223209
0.610998 0.431240 0.428976
-0.368383 0.107713 -0.871280
-0.706990 0.438374 -0.190598
-0.397965 0.444995 0.134906
-0.704587 0.439221 -0.190109
-0.703950 -0.537001 0.127907
0.289844 -0.195201 0.786315
-0.701830 -0.536651 0.128362
0.616270 0.103635 0.114595
0.632509 0.114213 -0.537659
0.633091 0.112289 -0.536646
0.630867 0.112473 -0.537818
-0.058328 -0.859475 0.438973
0.617133 0.135975 0.767447
-0.368762 0.108182 -0.869022
0.616980 -0.237260 0.425784
-0.356621 -0.523866 0.460111
0.289572 0.109279 -0.876926
-0.708683 0.121892 -0.533738
-0.383369 0.122859 0.451179
-0.044730 -0.526912 -0.552986
-0.058773 -0.197157 -0.888965
0.619384 -0.237711 0.426215
-0.061889 0.751753 0.107144
-0.381588 -0.203835 0.796256
-0.036161 0.463422 0.447153
-0.044113 -0.526680 -0.552960
-0.384222 -0.203105 0.794925
0.286839 -0.532162 -0.216038
-0.062110 0.752010 0.107735
-0.377950 -0.552947 -0.222278
-0.706909 0.123386 0.099916
0.258795 -0.874936 0.107114
0.641285 -0.212156 -0.211406
