OFF
256 0 0
-0.641665 0.261193 -0.254695
-0.641268 -0.376601 0.373991
0.635874 -0.059039 0.082838
0.647667 0.228047 -0.247424
-0.324348 -0.696299 0.395979
-0.636754 -0.077067 -0.561092
0.312618 -0.708793 0.401836
-0.001665 -0.721943 -0.576096
-0.654112 0.257438 0.383330
-0.012227 0.555131 0.718304
-0.308606 0.577195 0.382670
-0.325660 -0.698001 0.396718
0.658495 -0.067797 -0.573473
0.301591 0.263987 0.694484
-0.636496 -0.076614 -0.560426
-0.013770 0.554101 0.719203
-0.315912 0.239031 0.701670
0.321667 0.565906 0.365389
0.314135 0.566236 -0.227723
0.658720 -0.380307 -0.240313
-0.010886 -0.069445 0.692531
0.654891 -0.374197 0.415956
-0.002183 -0.720275 -0.575090
-0.321511 0.917518 0.048189
-0.013425 -0.068897 0.693956
-0.658906 -0.391989 -0.254062
-0.309460 0.576525 0.383899
0.015079 0.912185 -0.273441
0.312683 0.565191 -0.229095
-0.322088 0.917033 0.048676
0.660023 -0.380831 -0.239995
0.000895 0.876528 0.372499
-0.012161 -0.068276 0.691766
0.311448 -0.387643 0.725056
0.000552 0.878196 0.372631
-0.321732 0.917998 0.048642
0.300699 0.265460 0.695019
-0.002639 -0.678760 0.721379
0.004724 0.247431 -0.902553
-0.308549 0.576314 0.383994
-0.327569 -0.710395 -0.256124
-0.323747 -0.699167 0.395260
-0.653769 0.259729 0.382773
-0.306237 -0.398566 -0.569805
0.635446 -0.057894 0.080540
-0.315409 0.226860 -0.563499
-0.609248 -0.061417 0.052829
-0.307800 0.574469 0.384925
-0.023206 -0.703554 0.065060
-0.641559 0.262613 -0.253459
-0.655666 0.259112 0.382138
0.326329 0.255041 -0.571328
-0.319828 -0.363835 0.694476
-0.324171 -0.697314 0.399459
-0.315286 0.238710 0.700068
0.658515 -0.068956 -0.571527
-0.315714 0.240185 0.700885
-0.323423 0.917572 0.048430
-0.305952 -0.400319 -0.569788
-0.325865 -0.697759 0.397201
0.648445 0.226375 -0.245929
-0.635934 -0.709647 0.080829
-0.647252 -0.055876 0.710823
0.003848 0.245072 -0.902458
-0.304764 -0.399294 -0.571062
0.647770 0.224693 -0.245757
0.646333 0.225677 -0.246194
0.015360 0.912357 -0.273813
0.326436 0.252984 -0.572772
0.298435 0.265761 0.694154
-0.325597 -0.695524 0.397693
-0.002406 -0.677249 0.723418
-0.646604 -0.060455 0.711275
0.611238 -0.051424 0.706799
0.322576 0.563116 0.364078
-0.637174 -0.375935 0.374132
-0.332220 -0.081729 -0.914096
-0.653414 0.259447 0.382358
-0.638922 -0.377255 0.371908
-0.329908 -0.710175 -0.256879
-0.659428 -0.390120 -0.255716
0.652234 0.253334 0.372652
0.649749 0.254563 0.370906
0.336613 -0.067001 -0.894816
0.320650 -0.705667 -0.255373
-0.024859 -0.703538 0.064626
-0.007376 0.573857 -0.578264
-0.637190 -0.707517 0.080912
-0.011523 -0.069271 0.693822
-0.306335 -0.400402 -0.571308
-0.608494 -0.062011 0.053349
-0.637416 -0.077149 -0.560851
0.648189 0.226384 -0.247542
-0.326992 -0.710593 -0.257454
-0.316062 0.238976 0.699985
-0.658770 -0.391435 -0.254902
-0.636537 0.581216 0.075573
0.648357 0.578639 0.074445
-0.011998 0.556079 0.720473
-0.653633 0.261556 0.381329
-0.637417 -0.708068 0.080548
0.636306 -0.059620 0.082769
0.313953 0.565992 -0.230906
-0.332005 -0.083484 -0.916105
-0.000198 0.877276 0.372142
0.335759 -0.067342 -0.896589
-0.608004 -0.060792 0.053949
-0.326179 -0.696622 0.398080
-0.302853 0.551786 -0.245391
0.335847 -0.068305 -0.896938
-0.637707 -0.076921 -0.560321
0.016680 0.911598 -0.274131
-0.307945 0.576295 0.383531
-0.025184 -0.703190 0.065087
-0.007034 0.571755 -0.580196
-0.653633 0.258451 0.381014
-0.325033 -0.697734 0.398441
-0.315997 0.226119 -0.560364
-0.635418 -0.708576 0.080645
-0.319123 -0.365209 0.695352
0.000012 0.877894 0.372876
0.336833 -0.068411 -0.895108
-0.655349 0.258103 0.383338
-0.315321 0.228162 -0.562725
-0.315701 0.241056 0.698681
-0.309609 0.577738 0.383669
-0.314918 0.227501 -0.562793
0.321528 0.565400 0.362832
-0.640212 -0.376551 0.371556
-0.661888 -0.390794 -0.255089
0.313345 0.566637 -0.230301
0.647981 0.227006 -0.247253
-0.660220 -0.391017 -0.255676
-0.024277 -0.701859 0.062744
-0.006068 0.573254 -0.580755
-0.328822 -0.709074 -0.255644
0.646247 0.576702 0.075142
0.647455 0.227326 -0.246717
-0.305866 -0.400141 -0.570520
0.000755 0.879565 0.370218
-0.012573 0.553849 0.718763
-0.005108 0.572635 -0.578067
-0.327100 -0.709444 -0.257126
-0.309009 0.576799 0.382848
0.648406 0.578824 0.076692
0.314721 -0.706887 0.400686
-0.024149 -0.702953 0.063678
-0.023825 -0.702962 0.064995
-0.640782 0.262729 -0.254502
0.648343 0.578294 0.075338
-0.647396 -0.058584 0.710163
-0.000022 0.877749 0.372223
0.612919 -0.048744 0.705912
-0.325961 -0.698127 0.396178
0.651906 0.253079 0.373861
-0.006809 0.574475 -0.579516
-0.003060 -0.679866 0.721404
-0.302059 0.550602 -0.243148
-0.316455 0.241408 0.701259
0.647226 0.580250 0.075969
-0.013319 -0.068915 0.691748
-0.318892 -0.363886 0.694263
0.637427 -0.059905 0.081604
-0.636460 -0.076811 -0.560159
-0.646164 -0.058654 0.711869
-0.637050 -0.078025 -0.561117
-0.023742 -0.704212 0.065033
-0.653891 0.259726 0.383432
-0.022257 -0.704256 0.064751
-0.005960 0.571721 -0.578693
0.325730 0.251458 -0.571463
-0.305586 -0.398866 -0.571353
-0.641274 0.260971 -0.253865
0.647041 0.580394 0.074794
-0.323211 -0.696860 0.396185
-0.302146 0.552561 -0.245521
0.327768 0.911152 0.062933
-0.307182 0.576125 0.383432
0.653282 -0.373029 0.416403
0.005134 0.247223 -0.902049
0.659289 -0.068952 -0.572115
-0.308485 0.576478 0.382596
0.653701 -0.372957 0.417195
-0.607210 -0.063097 0.051069
-0.001948 -0.679232 0.722075
-0.023796 -0.700956 0.063815
0.299544 0.264382 0.694081
-0.011880 0.556419 0.719705
-0.634994 -0.708499 0.081547
0.017265 0.909541 -0.274593
-0.639128 -0.377498 0.372479
-0.001342 -0.719868 -0.574681
-0.315073 0.239393 0.701056
0.300656 0.265999 0.695005
-0.636132 -0.078525 -0.561182
0.298351 0.265279 0.693009
-0.636177 -0.076155 -0.560403
-0.321413 0.918829 0.048870
-0.002412 -0.722133 -0.574254
-0.305699 -0.400490 -0.567372
-0.324392 -0.697173 0.398240
0.327071 0.910882 0.062442
0.322400 -0.705943 -0.255285
-0.642754 0.260308 -0.255037
-0.322755 0.916892 0.050484
0.335998 -0.069651 -0.896957
-0.306044 -0.398079 -0.568992
-0.638470 0.581084 0.074740
-0.646904 -0.056499 0.712898
0.312208 -0.390764 -0.582010
0.310043 -0.390881 -0.583251
-0.316339 0.227460 -0.562563
0.647669 0.578159 0.077699
-0.001976 -0.679819 0.722110
-0.332516 -0.082044 -0.915984
-0.639084 -0.076353 -0.561735
-0.314635 0.229352 -0.562685
-0.300936 0.550964 -0.243684
0.635739 -0.056512 0.082179
0.645944 0.225866 -0.247190
-0.326386 -0.711564 -0.256899
0.003372 0.246770 -0.901157
0.657536 -0.067737 -0.571579
-0.318457 -0.364564 0.695037
0.655284 -0.373983 0.415508
-0.608849 -0.062385 0.053287
0.612063 -0.050662 0.705501
0.301055 0.264951 0.692734
-0.308923 0.576076 0.382380
0.335674 -0.068714 -0.895924
-0.608477 -0.063443 0.052206
-0.305907 -0.400101 -0.570877
-0.024151 -0.703924 0.064526
0.647748 0.226028 -0.248392
-0.003238 -0.678690 0.722576
0.314380 -0.709918 0.401428
0.657718 -0.066035 -0.572534
0.610463 -0.050159 0.706059
-0.609125 -0.063364 0.054582
-0.001475 0.878118 0.371972
0.315217 -0.708579 0.401286
0.338669 -0.066810 -0.896484
-0.326282 -0.709825 -0.260262
-0.322066 0.917750 0.049200
-0.306056 -0.399524 -0.571804
0.312312 0.565788 -0.227837
0.658698 -0.377731 -0.243205
-0.315079 0.226910 -0.561425
0.313929 0.568257 -0.228409
-0.636539 0.579799 0.074743
-0.316447 0.227686 -0.562766
0.002900 0.246821 -0.902099
0.015885 0.913530 -0.273949
-0.314259 0.227230 -0.564568
0.319658 -0.703308 -0.255763
0.652852 -0.371406 0.417712
