OFF
256 0 0
-0.196119 0.301966 0.652074
0.453411 -0.673360 0.323448
-0.197268 -0.348088 0.650060
0.453085 -0.023062 0.327473
0.454854 -0.348076 -0.649763
-0.521491 -0.347480 -0.325913
-0.196415 0.301871 -0.650870
-0.194878 -0.348077 0.650101
-0.522238 0.627110 -0.000953
0.128801 -0.672758 -0.648001
-0.522656 -0.673366 -0.000965
-0.522436 -0.022058 0.649853
0.127817 0.626959 0.650310
0.452959 -0.347458 -0.001772
0.131189 0.627485 -0.650180
0.127517 0.626690 0.649717
0.778064 0.302068 0.325894
-0.845243 -0.347540 0.001459
0.777979 0.302676 -0.324681
0.126122 -0.673073 0.651279
0.128859 -0.672195 0.649928
-0.845820 0.302501 -0.000020
-0.520999 -0.348442 -0.326364
0.453225 0.303462 -0.650492
-0.847322 0.302913 0.000336
0.453971 0.627816 0.326230
-0.520732 0.303403 -0.325094
0.126596 0.627152 -0.650720
0.452934 -0.346238 -0.649306
0.128176 -0.671225 -0.649738
0.128022 0.627048 -0.649786
0.452275 0.302058 0.650850
-0.846333 -0.022154 0.324849
0.453763 -0.672069 -0.324531
-0.520407 0.627013 -0.001706
0.780514 0.301992 0.323549
-0.844246 -0.023364 -0.325736
-0.846946 -0.347827 -0.000808
0.777346 0.302170 0.326893
0.779539 0.302374 -0.324660
0.128653 -0.022327 -0.649200
-0.196824 0.626715 -0.324867
-0.195644 0.627255 -0.322760
0.128931 0.627945 0.650277
-0.521617 0.302797 -0.325294
-0.196650 0.302192 0.651732
0.129398 -0.672370 0.649719
0.451308 0.628884 0.326626
0.454295 -0.672218 0.325895
-0.196007 0.304223 0.649483
0.778604 0.626453 -0.001029
0.451623 0.628732 0.325737
-0.522134 0.629106 -0.000557
-0.195907 0.301954 -0.648976
-0.846649 -0.021826 -0.324906
-0.520911 -0.022775 0.650755
-0.523111 -0.671263 -0.000435
0.129532 -0.021550 -0.650659
0.451979 0.627864 -0.325590
-0.197257 -0.347946 -0.650287
0.778284 0.302495 0.325664
-0.522241 -0.024175 0.650008
0.778277 0.300621 0.326360
0.128695 -0.674358 0.649760
0.452368 -0.673534 0.324346
-0.197662 0.303316 0.651587
0.127809 -0.673813 -0.648460
-0.197891 -0.346983 -0.651110
0.128544 -0.023342 0.650723
-0.198597 0.627240 0.327682
-0.521949 0.627575 -0.001063
0.454599 0.627457 0.325316
0.127825 -0.673044 -0.001421
0.454603 -0.347599 0.649876
0.452811 -0.020402 0.323940
0.452296 -0.347053 -0.649602
0.128738 -0.672141 0.648748
-0.846108 -0.023792 0.325489
-0.848396 -0.021977 -0.323857
-0.197406 -0.672408 0.323136
0.453943 0.301828 0.651671
0.454729 -0.024474 0.324664
0.453896 0.301803 -0.651856
0.454167 -0.673408 -0.326113
-0.847475 -0.023145 0.325440
0.453044 0.301324 0.651149
0.454016 -0.023943 -0.324655
0.128688 0.626527 0.648832
0.126006 -0.673540 -0.000635
-0.522002 0.302677 -0.326529
0.778551 -0.024278 -0.000612
0.453725 -0.021090 0.325567
-0.847391 -0.345726 0.000578
-0.197257 -0.672829 -0.326106
0.127548 -0.021906 -0.650179
0.453840 -0.672716 -0.324018
0.454576 0.627607 -0.324646
0.454578 -0.348334 0.650929
-0.196179 0.303104 0.649632
0.454406 -0.672932 -0.326807
0.452969 -0.672381 0.325410
0.127477 -0.022475 0.649148
0.128184 0.627093 0.649467
0.128235 -0.673757 -0.000500
-0.196130 0.303917 -0.650275
0.129934 0.626445 -0.649985
-0.523412 -0.348438 -0.325063
0.454727 0.628637 0.324535
-0.847392 -0.022451 -0.324537
0.454765 0.302742 -0.650751
-0.196828 -0.672008 -0.323741
0.127745 0.627272 0.001567
-0.521627 -0.346528 -0.326314
-0.521695 -0.022641 -0.649510
0.129551 -0.674198 0.652121
0.130090 0.628365 0.649560
0.128228 0.626967 0.650591
0.126584 -0.022958 -0.649862
0.454590 -0.347762 0.650944
0.129073 -0.672655 0.650703
0.779230 0.627632 0.000889
-0.520550 0.302579 -0.326326
-0.197060 -0.673447 -0.324129
0.453105 -0.347739 -0.000864
0.128843 0.625746 0.650700
0.453490 -0.673397 -0.324909
-0.196747 -0.348518 0.650098
0.128390 -0.022092 0.649535
-0.195888 -0.346675 -0.650513
-0.846566 -0.021016 -0.325626
0.454378 -0.672424 -0.322989
0.128420 -0.674092 -0.000070
0.128314 0.625983 0.650092
-0.197531 0.301806 0.650344
-0.198456 -0.674101 -0.325464
-0.195612 -0.672617 0.326320
-0.197222 -0.347793 -0.650371
0.453579 0.302380 0.649050
0.126428 -0.022660 -0.650025
0.128822 -0.024510 -0.650800
-0.197111 0.302255 0.649966
-0.522601 -0.672001 0.001337
0.126902 -0.022582 -0.648266
0.451907 -0.347168 0.000499
0.128683 0.628675 -0.649838
0.453837 -0.345728 0.001591
0.128385 -0.021992 -0.651325
0.452981 0.301818 -0.649618
0.778660 0.628866 0.000339
0.128990 0.628865 -0.000813
-0.521373 -0.347098 0.323649
-0.196096 -0.346652 0.648999
0.129329 0.627478 0.001686
0.778964 -0.022253 0.001789
0.454061 -0.348948 0.649384
-0.522826 -0.347592 0.326265
0.452259 0.301371 0.651862
0.454991 0.627465 -0.324326
-0.845225 -0.022532 0.325492
-0.846423 -0.022683 -0.326992
-0.522009 -0.023009 -0.650864
0.128624 -0.023529 0.652557
0.452503 0.629800 -0.324265
0.453143 -0.021757 0.324706
-0.522272 -0.024948 0.649815
-0.521602 -0.024074 0.649833
0.454325 0.627420 -0.324138
-0.523697 -0.346918 -0.325237
-0.521502 0.302187 0.325730
0.129467 0.627321 0.651377
-0.198195 -0.347769 0.651604
-0.521981 -0.021472 0.649478
0.454048 -0.348891 0.651169
-0.520203 -0.022086 -0.648190
-0.521291 -0.022509 -0.649796
-0.521010 0.301481 0.324239
-0.196851 -0.347228 0.649160
-0.196287 -0.348909 0.648989
-0.521134 -0.347451 -0.323602
-0.847091 0.303399 -0.000741
0.453465 -0.348154 -0.649244
-0.198567 -0.348268 -0.650115
0.454364 -0.672914 0.324977
0.453415 0.304379 0.651000
0.452047 0.300773 -0.652497
0.452858 -0.022344 -0.324850
-0.196862 -0.673924 -0.323621
-0.846750 -0.347777 -0.000669
-0.847135 -0.021158 0.325058
0.453743 0.304019 0.650893
0.454459 -0.347879 -0.001076
0.128410 -0.021286 -0.648763
-0.195087 0.303410 0.651825
-0.196080 0.302628 0.651544
0.453877 0.627284 -0.324458
-0.848549 -0.021776 -0.324602
-0.846840 -0.346238 0.001705
0.452726 -0.347925 -0.650476
0.128055 -0.674832 0.651010
0.451807 -0.348369 0.650068
-0.195403 -0.673327 -0.324899
0.128417 0.626245 -0.000342
0.128821 -0.022427 -0.650547
0.454041 -0.349498 -0.649860
0.127486 -0.673121 0.649156
0.779801 0.301751 0.325274
0.454055 -0.349173 0.000761
0.453251 -0.347567 0.000661
0.454593 0.303162 -0.650366
-0.522146 -0.022822 -0.648642
0.452497 -0.021076 -0.326302
-0.521424 -0.020121 -0.649546
0.452258 -0.674777 -0.322404
-0.521648 0.301539 -0.326068
-0.522516 -0.021568 0.651135
-0.522703 0.302387 0.326904
0.778348 0.302869 -0.326235
0.127387 0.628653 0.649990
0.126107 0.627873 -0.000569
-0.520826 -0.023382 0.652523
0.778192 0.626717 -0.002366
-0.522894 0.626480 -0.000892
0.453798 0.303003 -0.650074
0.454199 -0.674697 0.326166
0.452585 -0.672533 0.326601
0.454575 -0.672734 0.325006
0.130411 -0.021308 0.652970
0.130149 0.625347 0.000167
0.452955 -0.021916 -0.325282
-0.195874 0.302256 -0.650925
0.453434 -0.021010 0.325039
0.128091 0.627975 0.000383
0.777985 0.627098 -0.001458
0.452547 -0.347589 -0.649584
0.452441 -0.348590 -0.652635
-0.522487 0.626704 0.000686
0.454057 -0.349172 -0.651754
-0.522520 0.626840 0.000249
-0.845205 -0.022523 -0.326107
-0.522045 -0.023726 -0.649937
-0.519713 0.305154 -0.325968
-0.521694 -0.346942 -0.325295
0.453190 0.628327 0.325005
0.129492 -0.674848 0.000717
0.128588 -0.673273 0.000450
-0.520711 -0.673262 -0.000181
0.129853 0.627803 -0.649751
-0.846122 -0.022851 0.325428
-0.846766 0.301669 -0.002159
-0.196079 0.629436 0.325819
-0.846271 -0.349640 0.000687
-0.520792 0.302440 -0.325250
-0.520526 0.302035 -0.327433
0.779364 0.302142 0.325338
-0.847543 0.300673 -0.000059
0.779058 0.627610 -0.000414
