OFF
256 0 0
-0.328044 0.750196 0.322887
0.694925 0.050064 0.010465
0.316512 -0.917095 -0.001625
-0.311924 -0.897706 -0.008719
-0.315345 0.408955 -0.655795
-0.659578 -0.587567 -0.011551
-0.014653 -0.580544 0.644535
-0.000428 0.747061 0.641517
0.004700 0.724059 -0.624197
-0.309809 -0.232242 -0.630228
-0.003481 0.059113 0.664431
0.014246 0.751967 0.002347
0.329952 0.722957 -0.313699
-0.321458 0.405387 0.650195
-0.650535 0.404949 -0.320164
0.013696 0.752302 0.001947
-0.340231 -0.246610 0.646337
0.670502 0.725349 0.006300
0.310380 -0.589911 0.299662
0.331954 0.722881 -0.315208
-0.004929 0.061739 0.663714
-0.674097 0.069920 -0.640865
0.311239 -0.590779 0.298545
-0.671094 0.409832 0.343507
0.311687 -0.590627 0.299018
-0.340259 -0.246009 0.646240
0.312255 -0.590929 0.297894
-0.645970 0.085835 0.646662
-0.663787 0.748369 -0.010011
-0.311930 -0.897599 -0.009021
0.629497 0.058166 0.636510
0.635449 -0.248464 -0.308288
0.662212 -0.571332 -0.009623
0.325699 0.723795 0.331081
0.011873 -0.939335 -0.327395
0.274836 -0.558335 -0.308955
-0.651764 0.404580 -0.318706
-0.315261 -0.593299 -0.330103
-0.321702 0.406014 0.651953
-0.007348 -0.931189 0.326160
-0.644706 0.086541 0.646244
-0.649826 -0.254774 -0.313017
-0.672361 0.071184 -0.639358
-0.007051 -0.932329 0.324445
-0.006425 -0.932321 0.326492
0.012785 0.751759 0.000963
0.308758 0.393953 0.655817
0.332181 0.399920 -0.659480
-0.003328 0.060061 0.664003
-0.018417 -0.557675 -0.659170
0.304332 -0.279842 0.629167
-0.648014 0.074150 -0.008687
0.331465 0.399652 -0.662853
-0.337916 -0.245274 0.646212
0.667053 0.411857 0.343945
-0.316034 0.410628 -0.657426
0.638185 -0.247183 -0.307501
0.336409 -0.259585 -0.616953
-0.670278 0.410319 0.341756
0.635345 -0.247307 -0.309264
-0.330082 0.750063 0.323757
-0.303432 0.712069 -0.308697
0.325352 0.723403 0.330046
-0.672208 0.069937 -0.639482
-0.672053 0.070557 -0.640559
-0.645162 0.086278 0.647302
0.671402 0.727915 0.005000
-0.303913 0.711047 -0.308496
-0.311563 -0.897033 -0.008988
0.002189 0.723467 -0.623700
-0.316669 0.410293 -0.659223
-0.664624 0.746259 -0.009527
0.304203 -0.281364 0.629997
-0.310013 -0.232490 -0.631205
0.656972 -0.264378 0.336503
0.318184 -0.918286 -0.001924
0.275201 -0.558874 -0.308079
-0.650865 -0.254585 -0.313812
0.649641 0.365663 -0.318713
-0.652063 0.407042 -0.318501
-0.648394 0.072182 -0.010637
0.330095 0.398856 -0.660625
-0.645909 0.086532 0.647923
-0.340610 -0.246488 0.648836
0.651012 0.365218 -0.319029
0.649350 0.365416 -0.317981
0.693325 0.047466 0.012696
0.650484 0.365479 -0.317676
0.652479 0.069834 -0.653459
0.318240 -0.916647 -0.001300
0.629900 0.057463 0.636502
0.332477 0.725882 -0.312885
-0.650709 -0.254876 -0.315629
-0.659779 -0.584526 -0.011195
-0.309909 -0.234051 -0.628112
0.670010 0.726205 0.004050
-0.014688 -0.580730 0.644183
0.627905 0.056287 0.638190
-0.001434 0.748157 0.641936
0.664271 0.409729 0.343706
0.694337 0.046832 0.010754
-0.674076 0.071917 -0.641440
0.671683 0.726202 0.005902
0.336091 -0.257609 -0.618302
0.320045 -0.918291 -0.001240
0.307216 0.393783 0.654533
-0.016781 -0.558482 -0.660133
0.308665 0.393526 0.657310
0.326241 0.723775 0.329502
0.669371 0.725569 0.005024
-0.653050 0.405832 -0.319434
-0.643285 0.086964 0.645362
-0.018303 -0.558203 -0.660582
0.663580 -0.572109 -0.011478
-0.649354 -0.255741 -0.315201
0.013752 0.749359 0.000812
0.693184 0.049256 0.009818
0.329993 0.400627 -0.658912
-0.649768 0.405704 -0.317381
-0.317349 -0.595672 -0.331177
0.012801 0.751454 0.003263
-0.013499 -0.580224 0.644408
-0.315164 0.409823 -0.658194
-0.339697 -0.245041 0.643782
0.309217 0.395600 0.656521
0.661787 -0.571844 -0.009595
0.664170 0.411040 0.342586
-0.657767 -0.586012 -0.011251
-0.013931 -0.581806 0.645673
0.664579 0.412204 0.343581
-0.310221 -0.233586 -0.630294
-0.312120 -0.896858 -0.011245
0.005180 0.722684 -0.623618
-0.672264 0.071551 -0.641495
0.664056 -0.571439 -0.012142
-0.327572 0.747523 0.323272
0.311676 -0.591822 0.297435
-0.649079 0.073119 -0.010535
0.324816 0.725351 0.330876
-0.669848 0.409661 0.342141
0.664410 0.411660 0.342344
-0.645118 0.084439 0.644936
-0.017729 -0.558374 -0.660029
-0.012525 -0.580741 0.644699
-0.013479 -0.578356 0.645923
-0.016612 -0.557269 -0.659449
-0.328761 0.749949 0.323394
0.653550 0.069356 -0.653364
0.308948 0.395294 0.655207
0.304303 -0.278969 0.630407
0.628310 0.056968 0.638543
-0.012482 -0.579775 0.645904
0.327113 0.725595 0.330170
-0.670778 0.409842 0.342817
-0.329429 0.749876 0.324479
0.275002 -0.557741 -0.309025
0.637027 -0.250687 -0.306936
0.664676 0.412342 0.344364
-0.305932 -0.585020 0.301279
-0.316378 0.412042 -0.656579
-0.650621 -0.255732 -0.314677
0.326814 0.725601 0.332434
-0.015925 -0.558926 -0.660229
-0.329486 0.747612 0.322952
-0.651864 -0.254641 -0.313775
-0.643430 -0.245843 0.291983
0.694947 0.047513 0.011354
-0.648043 0.074014 -0.011843
-0.015822 -0.580901 0.645730
0.303317 -0.280869 0.630721
0.001181 0.749109 0.641487
0.327361 0.725430 0.330920
-0.304579 -0.581821 0.300603
0.665165 0.412850 0.343343
-0.672908 0.072367 -0.641831
-0.670218 0.408016 0.341533
-0.315348 0.406750 -0.657965
-0.012773 -0.579942 0.643535
-0.316095 0.409533 -0.658734
0.648290 0.364637 -0.318372
-0.013203 -0.582090 0.643887
0.014553 0.752117 0.002210
-0.672137 0.069956 -0.643564
-0.306158 -0.581828 0.298732
0.307698 0.395382 0.655786
0.635949 -0.247362 -0.304949
-0.310011 -0.233931 -0.630672
0.635843 -0.250663 -0.307802
0.312664 -0.591746 0.300639
0.663206 -0.573247 -0.011697
-0.672031 0.070351 -0.642824
-0.014039 -0.580164 0.645425
0.015136 0.751855 0.002687
-0.649486 -0.252979 -0.313354
-0.328209 0.748859 0.323229
0.013112 0.750967 0.001488
-0.016780 -0.559148 -0.661422
-0.652345 0.405852 -0.319065
-0.642447 -0.245225 0.291064
0.326669 0.724803 0.331897
0.630740 0.057044 0.636955
-0.315155 -0.594967 -0.328535
-0.672990 0.072983 -0.640241
-0.004669 -0.933234 0.327063
-0.308458 -0.233632 -0.630633
0.332112 0.400231 -0.658343
0.652440 0.068791 -0.652400
-0.646835 0.074534 -0.011193
0.636168 -0.250013 -0.309180
0.330289 0.399373 -0.659435
0.664856 0.409515 0.344912
-0.643006 -0.242927 0.291081
0.695686 0.049196 0.010988
0.310114 -0.590992 0.300175
-0.644231 0.085435 0.647406
0.329129 0.401185 -0.659506
-0.002990 0.060854 0.662464
-0.004824 -0.934032 0.326505
-0.671881 0.408569 0.341023
-0.648296 -0.253495 -0.314011
0.628699 0.056919 0.638984
0.317835 -0.916865 -0.001628
0.655434 -0.264274 0.336457
-0.649924 0.405786 -0.319800
-0.649223 0.073126 -0.010906
-0.002930 0.060506 0.664459
-0.653193 0.405695 -0.318880
-0.651520 -0.255802 -0.314235
0.015195 0.070598 -0.676068
-0.013030 -0.580762 0.645142
0.311224 -0.592909 0.298703
0.661639 -0.573484 -0.012720
-0.330069 0.749271 0.324772
0.304325 -0.278746 0.631144
-0.672056 0.408957 0.342666
0.331148 0.399266 -0.660164
0.665173 0.410926 0.342951
0.013315 0.752164 0.002899
-0.314765 -0.593667 -0.330947
0.334892 -0.259074 -0.617560
-0.306972 -0.582907 0.300568
0.334640 -0.259631 -0.618086
0.013487 0.752729 0.001786
-0.016816 -0.559020 -0.657191
0.669829 0.725678 0.005110
0.671109 0.726338 0.005321
0.654894 -0.263886 0.335616
-0.649463 -0.254300 -0.314696
0.308688 0.397447 0.655374
-0.322266 0.406510 0.650331
0.308302 0.394792 0.659222
-0.315419 -0.595241 -0.330429
0.302744 -0.279936 0.631862
-0.314569 0.408267 -0.658514
0.637664 -0.248857 -0.308682
-0.320730 0.406240 0.652233
