OFF
256 0 0
-0.171767 -0.368226 -0.805813
-0.180210 0.600066 0.780984
-0.144484 0.589794 -0.495718
0.159205 0.579568 0.448787
-0.500290 0.591597 -0.186797
0.784145 -0.064522 0.467289
0.159194 0.578597 -0.162451
0.785064 -0.067925 0.466233
-0.836932 -0.066727 -0.508319
0.772418 -0.055198 -0.166019
0.769838 0.575450 -0.178913
-0.178892 0.600176 0.781181
-0.171733 -0.368856 -0.805402
0.127753 -0.368072 0.797873
0.144788 -0.077160 -0.806626
-0.494666 -0.046517 0.465501
0.143005 -0.690189 0.448638
0.143050 0.229672 -0.461946
0.447417 -0.062217 0.785535
-0.156139 -0.679245 0.125520
0.127601 -0.368624 0.798813
-0.151257 -0.356330 0.470811
-0.495433 -0.048693 0.466507
0.142786 -0.079129 -0.805498
0.445682 -0.059269 0.784338
-0.481081 -0.690683 -0.170925
0.128362 -0.369366 0.797598
-0.172124 -0.367981 -0.805431
-0.808983 -0.046166 0.146964
-0.472820 -0.379383 0.138152
0.785133 -0.065266 0.468073
-0.494900 -0.048654 0.465975
0.160428 0.580300 0.449232
-0.169265 -0.033896 0.791429
-0.172850 0.575177 0.118063
-0.465121 -0.346947 -0.478718
-0.471458 -0.379761 0.138848
-0.496858 -0.053854 -0.803810
-0.494565 -0.048580 0.466136
-0.805402 0.248249 -0.188984
-0.151085 -0.357720 0.470322
-0.150021 -0.355468 0.470992
0.468998 -0.080301 -0.487517
0.452675 0.547918 -0.486160
-0.172372 -0.366948 -0.806327
-0.162451 0.236826 -0.802034
0.455135 -0.354544 -0.142087
0.159347 0.580513 0.449088
-0.147226 0.590411 -0.496818
-0.173425 0.573744 0.118977
-0.503759 0.591043 -0.185606
0.137244 -0.681685 -0.175868
0.141935 -0.690570 0.449463
-0.169429 -0.037430 0.792334
-0.479124 0.264129 -0.497857
-0.172766 0.574573 0.119806
-0.157928 -0.678717 0.125918
-0.495345 -0.047437 0.465111
0.136716 0.276672 0.775412
0.473573 0.577930 0.154618
-0.468654 -0.345574 -0.478783
0.771531 -0.056923 -0.165474
0.143339 -0.078868 -0.805051
-0.177404 -0.674060 -0.465949
-0.501384 0.590181 -0.186101
0.125300 -0.368630 0.798088
-0.835721 -0.067528 -0.507095
0.142154 0.229626 -0.460716
-0.805931 0.245896 -0.188720
-0.150553 -0.353557 0.470416
-0.506284 0.583556 0.423552
0.786651 -0.375885 0.162790
-0.494291 -0.046472 0.466368
0.775291 0.256209 0.152846
-0.178321 0.600893 0.779866
0.128045 -0.357675 -0.480174
0.466618 0.249267 0.461239
0.136846 -0.680149 -0.173853
-0.501779 0.590666 -0.185963
-0.143447 0.589477 -0.495351
0.144538 0.228704 -0.460956
0.143917 0.229353 -0.464276
-0.472254 0.282192 0.770283
-0.503224 0.583030 0.428941
0.158106 0.583132 0.447681
-0.473413 0.281502 0.769850
0.454864 -0.355731 -0.142711
0.452055 -0.363889 0.454616
-0.504261 0.583427 0.425687
-0.492270 0.278075 0.109243
0.126827 -0.366397 0.798176
0.127362 -0.356426 -0.480950
0.774258 0.254879 0.156008
0.457007 -0.696994 0.149404
-0.162011 0.239068 -0.799416
-0.803188 -0.369261 -0.167116
-0.492365 0.277564 0.109223
0.455550 -0.355824 -0.141860
0.143530 -0.078274 -0.802600
-0.158213 -0.678426 0.124410
0.771843 -0.054839 -0.165593
-0.808233 -0.045264 0.145281
-0.149837 -0.356606 0.469632
0.771164 -0.053840 -0.166048
-0.494176 0.280320 0.109771
0.447784 -0.061246 0.785612
-0.804967 -0.370058 -0.167756
-0.158656 -0.679979 0.125083
-0.836736 -0.067180 -0.508911
0.473725 0.577350 0.154384
0.159296 0.581055 0.448774
0.766915 0.234819 -0.479576
-0.504723 0.582927 0.426536
0.775662 0.255032 0.153740
-0.467725 -0.347192 -0.477301
-0.493711 -0.046403 0.464127
-0.503052 0.582044 0.427408
-0.171948 -0.368753 -0.805373
0.473882 0.577426 0.156162
0.466269 -0.080293 -0.486291
0.143858 -0.689737 0.445732
0.771331 0.575612 -0.182445
0.128541 -0.367080 0.798006
0.449910 -0.362433 0.455028
-0.479039 0.262825 -0.494254
-0.167834 -0.036986 0.790854
0.137369 -0.680992 -0.175501
0.770300 0.576288 -0.182521
-0.839741 -0.068172 -0.507993
0.466403 0.247066 0.460947
0.160261 0.580643 0.447741
0.125873 -0.355917 -0.481050
0.784983 -0.065448 0.468420
0.143756 -0.079479 -0.803339
-0.473350 -0.379226 0.139653
0.126839 -0.368310 0.797903
0.453684 0.548172 -0.487123
-0.150431 -0.355892 0.470440
-0.151046 -0.357732 0.468949
-0.169572 -0.037107 0.791878
0.158497 0.580401 0.448491
0.125783 -0.357965 -0.478259
-0.492370 0.278771 0.108546
0.456734 -0.698135 0.147223
-0.157094 -0.680203 0.125461
0.143826 0.228526 -0.461174
0.455075 -0.356304 -0.140792
-0.493813 -0.048788 0.464974
-0.480701 -0.689694 -0.172837
0.451691 0.547562 -0.486652
-0.170582 -0.367638 -0.807315
-0.803838 -0.371495 -0.168040
-0.494444 -0.047346 0.465537
0.787267 -0.376785 0.162414
0.158497 0.580990 0.448875
-0.144623 0.589214 -0.495548
0.144368 -0.078747 -0.804953
0.160502 0.578050 -0.163000
0.125899 -0.355038 -0.479844
0.448432 -0.061212 0.783603
0.774844 0.255980 0.153748
0.448123 -0.060927 0.783549
0.783952 -0.067133 0.467236
-0.809106 -0.045460 0.146018
-0.161282 0.239672 -0.803604
0.126592 -0.366964 0.798674
0.453435 0.547154 -0.487768
0.158847 0.578763 -0.164079
0.784002 -0.065770 0.467123
0.453201 0.547695 -0.487324
0.159864 0.580405 0.446771
0.453122 0.548127 -0.485899
-0.489122 0.278329 0.109902
0.788795 -0.377388 0.163249
0.453335 -0.356395 -0.141424
0.468202 -0.080810 -0.487169
-0.169380 -0.036401 0.791054
0.789377 -0.377340 0.161845
0.767709 0.575204 -0.182014
-0.168963 -0.035569 0.792170
0.787184 -0.376269 0.162038
0.472201 0.575666 0.155052
0.158563 0.578248 0.448592
-0.804162 -0.371000 -0.167396
0.451796 -0.359921 0.453469
-0.474156 0.281684 0.770839
0.771133 0.575412 -0.182419
0.466602 -0.080612 -0.486877
-0.494126 -0.046377 0.466397
-0.177008 0.602483 0.781569
-0.179564 0.601160 0.780465
-0.161306 0.239032 -0.800533
-0.809270 -0.048003 0.146813
-0.480874 -0.687767 -0.172614
0.471134 0.576229 0.155369
0.142829 -0.688716 0.448915
0.127000 -0.356795 -0.481016
0.766536 0.232839 -0.479540
0.127552 -0.358292 -0.480419
-0.492129 0.280106 0.110572
0.457766 -0.697286 0.148023
0.451673 0.547573 -0.487132
-0.803696 -0.371060 -0.165937
0.158715 0.580610 0.448209
0.468973 -0.082282 -0.487234
-0.143021 0.587862 -0.496300
0.137072 0.276209 0.773499
0.127706 -0.356654 -0.479543
0.769463 0.576029 -0.182155
-0.493895 -0.048377 0.464750
0.468266 -0.080274 -0.486088
-0.802557 -0.370559 -0.167561
-0.505880 0.582250 0.425261
-0.150495 -0.355883 0.470181
0.450077 -0.362950 0.453185
-0.807774 -0.046644 0.146903
-0.173340 -0.367142 -0.805235
-0.171541 -0.369316 -0.806683
-0.157256 -0.679972 0.125078
-0.169096 -0.037400 0.790582
0.452991 -0.357064 -0.141477
0.143352 0.228399 -0.463173
-0.168841 -0.037286 0.791626
0.784984 -0.066564 0.467717
-0.803130 -0.370661 -0.167760
0.450814 -0.362649 0.455252
-0.804632 0.246675 -0.189426
0.466385 0.246260 0.461350
-0.500345 0.593027 -0.185749
-0.178541 -0.672820 -0.466356
0.158162 0.581203 0.448076
-0.160491 0.239515 -0.800617
0.453938 -0.356509 -0.142459
0.452870 0.549165 -0.487058
0.465217 0.247937 0.459268
-0.809273 -0.046453 0.144634
0.782665 -0.066251 0.467352
0.159711 0.578293 -0.162337
0.771046 -0.053355 -0.163628
0.770429 0.577201 -0.183142
-0.160756 0.239041 -0.801064
0.160175 0.576092 -0.163075
0.774373 0.256364 0.154366
-0.176883 -0.674422 -0.465049
0.770227 0.576525 -0.182677
0.447663 -0.059753 0.784867
-0.148904 -0.354788 0.467361
-0.171749 -0.367798 -0.804708
-0.473291 0.281622 0.769543
-0.170115 -0.037165 0.791107
0.784991 -0.065588 0.468262
-0.162847 0.237456 -0.800246
0.143500 -0.078994 -0.805561
0.142147 -0.690662 0.449016
-0.471277 -0.379034 0.139344
0.143401 -0.077467 -0.804205
