OFF
256 0 0
-0.339133 -0.406031 -0.350233
-0.010255 0.566601 -0.344523
0.626750 0.559932 0.322491
-0.363474 0.547742 -0.034016
0.626686 0.562431 0.321536
0.283813 -0.425732 -0.357867
-0.688905 0.226153 -0.686648
-0.357410 -0.095033 0.606850
-0.029862 -0.742604 -0.345144
-0.680882 -0.105904 -0.364362
-0.028960 -0.744285 -0.347056
-0.339070 -0.403548 -0.347840
0.282355 -0.425068 -0.358361
-0.042784 0.549097 0.291086
-0.666165 -0.429483 -0.042535
0.579021 -0.414829 0.611223
0.300269 -0.748963 0.584801
-0.341446 -0.077284 -0.652958
-0.025782 -0.408232 -0.669566
0.608003 -0.076958 -0.344554
0.617969 -0.092179 0.303763
-0.026505 -0.405029 -0.669501
0.627314 0.560120 0.321118
0.627649 0.560454 0.320670
-0.688461 0.227449 -0.685908
0.282607 0.550557 0.611800
-0.363681 0.545310 -0.036744
0.280578 0.552197 0.611223
0.309627 0.546649 -0.672658
0.297318 -0.748548 0.585129
0.299378 -0.748506 0.584045
0.622658 0.555265 -0.353440
0.311327 0.545300 -0.674008
0.615093 0.231808 0.613695
-0.693944 0.227534 -0.037395
0.611263 0.229876 0.616053
-0.346145 -0.729564 -0.041338
-0.361031 0.541065 0.615987
-0.335529 -0.411855 0.256330
-0.346987 -0.729400 -0.040739
0.298949 -0.747800 0.585629
-0.023623 0.241500 0.627419
0.300954 -0.060814 -0.664347
-0.681392 -0.105751 -0.364445
-0.019886 -0.393985 0.610340
-0.024371 -0.742180 0.272004
-0.027174 -0.741952 -0.346015
0.611100 0.232025 0.614294
0.628731 0.561015 0.322906
0.607300 -0.402511 -0.043307
0.627266 0.561837 0.320816
-0.666709 -0.429327 -0.040729
0.626197 0.560953 0.322653
0.620612 0.554592 -0.353242
0.633313 0.237333 -0.668353
-0.363762 0.539280 0.614846
0.282455 -0.083422 0.602602
-0.338864 -0.404762 -0.349204
0.612948 0.231457 0.614443
-0.687666 0.226515 -0.688357
-0.042981 0.549718 0.293567
-0.023516 0.239720 0.627781
-0.357342 -0.093633 0.606876
0.609838 0.239978 -0.015050
-0.027389 -0.743696 -0.346607
0.605404 -0.400368 -0.041253
0.282267 -0.425093 -0.358266
0.620687 0.555622 -0.354004
-0.679974 0.203670 0.617114
-0.019081 -0.394182 0.610546
0.608774 -0.075955 -0.344197
0.628059 0.561831 0.322007
-0.670771 0.544210 -0.344262
-0.028556 -0.742845 -0.346325
0.611119 0.241325 -0.015290
-0.346502 -0.728040 -0.039262
0.614568 -0.090929 0.303457
-0.357963 -0.094752 0.604279
0.620583 0.553786 -0.355310
0.612697 0.238996 -0.014369
0.601149 -0.747639 0.283027
-0.339130 -0.405165 -0.348355
-0.363386 0.539342 0.614821
-0.338708 -0.405643 -0.350066
-0.340304 -0.076080 -0.654086
-0.355164 -0.094446 0.606610
0.602564 -0.746677 0.283028
-0.347673 -0.729157 -0.039144
-0.672615 0.546353 -0.344827
0.611108 0.240231 -0.014709
-0.336359 -0.411298 0.256132
-0.023288 0.241570 0.628418
-0.026322 -0.406486 -0.670549
-0.692461 0.227629 -0.034369
-0.023090 0.241484 0.630425
-0.363382 0.561405 -0.695002
-0.025589 -0.404660 -0.669237
-0.680291 0.205186 0.615731
-0.691023 -0.110783 0.288078
-0.338093 -0.404917 -0.347976
0.282252 -0.080063 0.600150
-0.674403 0.545997 -0.346016
0.578345 -0.414928 0.611928
0.283136 -0.083004 0.601743
-0.667636 -0.430021 -0.041721
-0.010040 0.567098 -0.341965
0.602219 -0.746395 0.284180
0.619851 0.555834 -0.352820
-0.027124 -0.406652 -0.668343
-0.028546 -0.742314 -0.344918
-0.363596 0.540312 0.613488
0.606501 -0.400108 -0.042846
-0.667321 -0.428669 -0.040633
-0.363420 0.561131 -0.696687
-0.689570 -0.112208 0.286969
0.614688 0.228852 0.614655
-0.687819 0.226686 -0.688465
-0.679950 0.202754 0.617125
0.607089 -0.075385 -0.344080
0.309190 0.543203 -0.671957
-0.019505 -0.395346 0.612767
0.607255 -0.401311 -0.041178
-0.666726 -0.430742 -0.041312
0.626514 0.559216 0.321733
-0.029818 0.220393 -0.644037
0.610758 0.241128 -0.015046
0.312040 0.561165 -0.023881
-0.030519 0.221811 -0.645147
0.311366 0.561871 -0.023112
0.631520 0.236407 -0.670292
0.626520 0.560859 0.323267
0.283146 -0.424042 -0.358246
-0.692731 0.225920 -0.033007
-0.672902 0.545695 -0.342195
-0.687847 0.224787 -0.688659
-0.030112 0.219698 -0.644661
-0.338675 -0.076027 -0.653806
-0.692392 0.225584 -0.033508
-0.337020 -0.413074 0.255099
-0.022788 0.240344 0.630560
-0.355942 -0.095496 0.606781
-0.340000 -0.073364 -0.654679
-0.339439 -0.404702 -0.350128
-0.667471 -0.429596 -0.040790
0.281398 0.552726 0.611326
0.606529 -0.075472 -0.343396
-0.346256 -0.730926 -0.039790
0.299279 -0.750337 0.586172
-0.678044 0.204292 0.617722
-0.024406 -0.406760 -0.668438
0.282748 0.553376 0.611978
-0.027091 -0.744169 -0.347006
0.282579 -0.423351 -0.358928
0.627242 0.559444 0.321643
0.611024 0.230579 0.613755
-0.028999 0.218578 -0.645367
-0.356645 -0.096192 0.608946
0.298787 -0.749276 0.584340
-0.692790 0.227674 -0.033838
-0.667904 -0.430349 -0.040265
0.600856 -0.748447 0.283782
0.301150 -0.061707 -0.663971
-0.356812 -0.095084 0.607739
-0.686025 0.228945 -0.686610
-0.363182 0.547183 -0.034952
0.301620 -0.062207 -0.662402
-0.025421 -0.743168 0.272831
-0.021183 -0.394048 0.610544
-0.338873 -0.406454 -0.347537
0.620171 0.554948 -0.355432
0.602035 -0.747494 0.284472
0.633115 0.236186 -0.671899
-0.667285 -0.428300 -0.041230
-0.008333 0.568585 -0.343434
-0.008306 0.568389 -0.342481
0.610834 0.239427 -0.012701
-0.030846 0.218948 -0.643907
-0.692803 0.226657 -0.034357
-0.686820 0.225910 -0.686821
0.301048 -0.060088 -0.661732
-0.363128 0.548372 -0.035010
-0.361566 0.539793 0.613856
-0.020380 -0.396428 0.610393
0.620682 0.554756 -0.353806
0.631093 0.235867 -0.669214
-0.679201 0.207020 0.616960
-0.682433 0.204267 0.617086
-0.029208 0.218411 -0.644529
-0.028147 -0.405940 -0.669494
-0.667926 -0.428607 -0.042710
-0.346836 -0.730528 -0.039147
-0.685666 0.544811 0.294631
0.609317 -0.075608 -0.344445
-0.340148 -0.076489 -0.653236
0.629944 0.238379 -0.671143
-0.339564 -0.404734 -0.349409
-0.009674 0.568482 -0.344313
0.610793 0.238748 -0.015404
0.283529 -0.423660 -0.359656
-0.362546 0.561223 -0.696061
-0.019416 -0.396347 0.608970
-0.027792 -0.743239 -0.345096
-0.687570 0.225238 -0.688523
-0.361914 0.540294 0.615500
0.578474 -0.412745 0.610011
-0.336460 -0.414146 0.255579
0.615015 0.230479 0.614932
-0.679599 -0.103201 -0.365308
0.626681 0.559169 0.322717
-0.338893 -0.403811 -0.348897
-0.020440 -0.394142 0.610908
0.282811 -0.081981 0.601980
0.298656 -0.747481 0.586182
-0.357262 -0.093515 0.608345
0.627648 0.559507 0.320815
0.282684 0.553287 0.612039
-0.008666 0.569914 -0.344280
-0.678913 0.203099 0.618549
-0.019350 -0.395492 0.610065
0.606292 -0.076719 -0.342774
0.601093 -0.747760 0.283259
-0.681601 -0.104110 -0.363543
-0.030199 0.218473 -0.642706
0.311018 0.561858 -0.022045
0.621298 0.554946 -0.355083
0.310144 0.562844 -0.023877
0.608886 0.239475 -0.015154
-0.339352 -0.403930 -0.350367
-0.042577 0.548167 0.291503
0.608223 -0.076814 -0.343558
-0.686908 0.544124 0.295065
0.625817 0.561282 0.321320
-0.029978 0.217944 -0.646128
0.612282 0.229275 0.611608
-0.340187 -0.078398 -0.654125
0.620277 0.555038 -0.353238
-0.692690 0.223320 -0.033916
-0.687511 0.226059 -0.687015
-0.023572 -0.406366 -0.667710
-0.362620 0.538524 0.614094
0.618839 0.553075 -0.355781
-0.347160 -0.731126 -0.039933
-0.337375 -0.405975 -0.349005
0.615612 -0.092049 0.301274
-0.340935 -0.405243 -0.347379
0.579403 -0.415892 0.608618
-0.667234 -0.429141 -0.039364
0.608984 0.239393 -0.015383
0.606009 -0.402805 -0.043374
-0.690044 -0.111285 0.287383
0.631708 0.235415 -0.669855
0.614692 -0.092807 0.302445
0.607679 -0.401419 -0.042451
0.284098 0.550933 0.611592
-0.362630 0.539937 0.614403
0.627694 0.560591 0.321292
