OFF
256 0 0
0.229163 0.389961 0.780771
-0.439739 -0.290392 -0.558924
-0.429436 0.379541 0.113632
-0.452886 -0.288505 0.786832
-0.106788 -0.596253 0.773896
0.220778 -0.590970 -0.215836
-0.119960 0.010154 0.770829
0.536859 0.032240 -0.541213
0.191128 0.695147 -0.224125
-0.124849 0.714025 -0.551143
0.181626 -0.258401 -0.523749
0.209527 0.714430 0.431773
-0.136423 -0.308160 -0.867893
0.179549 -0.258951 -0.523872
-0.106607 -0.595810 0.772911
0.884094 0.016581 -0.195154
-0.437481 -0.291235 -0.560528
0.525283 0.404027 0.435333
-0.108596 -0.618198 0.113375
0.195996 0.349978 -0.549792
-0.115039 0.715872 0.122014
-0.116346 0.714845 0.124458
-0.439679 -0.290997 -0.559484
-0.771201 0.366088 -0.226250
0.222160 -0.589056 -0.214139
0.227208 0.391802 0.779253
-0.426087 -0.605027 -0.197242
-0.435331 0.024365 -0.862309
0.179519 -0.259054 -0.524231
-0.754027 0.037680 -0.527834
0.196364 0.351083 -0.548215
0.218669 0.030651 -0.873615
-0.444585 0.015179 0.424598
-0.457864 0.718152 -0.214001
-0.770906 -0.298091 0.443222
-0.136920 -0.309481 -0.868449
0.196613 0.350267 -0.548656
-0.753330 0.039292 -0.527071
-0.107632 -0.619645 0.114522
0.536200 0.708125 0.105632
0.867115 0.047004 0.483103
-0.453675 -0.288561 0.786835
-0.443317 0.018245 0.424269
-0.116173 0.715108 0.123495
0.537995 0.709795 0.109261
-0.106766 -0.619729 0.114823
0.196923 0.349104 -0.547600
0.538127 0.708670 0.106997
-0.770947 -0.629618 0.107737
0.525725 0.358784 -0.212789
-0.441447 -0.620568 0.450732
-0.105835 -0.595464 0.774822
0.523890 0.359376 -0.213431
0.219228 -0.589984 -0.214832
0.204820 -0.599872 0.423986
-0.439174 -0.290723 -0.559445
0.191324 0.696301 -0.224729
0.193567 0.693571 -0.225796
0.192885 0.693914 -0.224433
0.543188 -0.261596 -0.190633
0.539004 -0.265879 0.447310
0.532436 0.050785 0.792305
-0.770136 0.364418 -0.225191
-0.131145 0.384992 -0.880237
0.882181 0.016452 -0.197439
-0.754907 0.036799 -0.528056
-0.129568 0.384856 -0.881064
0.228508 -0.283207 0.773777
-0.452044 -0.290218 0.785197
-0.439819 -0.288890 -0.557991
0.538236 -0.265775 0.446074
0.208713 0.714666 0.431394
-0.754963 0.038387 -0.528432
0.534417 0.032817 -0.541153
0.228012 -0.283257 0.775037
0.527068 0.358724 -0.213705
-0.107972 -0.595810 0.773381
0.207466 -0.601822 0.424056
0.180225 -0.260347 -0.523822
-0.118881 0.008402 0.771716
-0.099289 0.379404 0.445117
-0.435386 0.025119 -0.863467
-0.755862 -0.298188 -0.212009
0.525164 0.358976 -0.215429
0.229729 -0.282696 0.774520
-0.440481 -0.621338 0.451762
0.204335 -0.599614 0.423858
0.179325 -0.256697 -0.523804
0.208690 0.714859 0.430860
0.229932 -0.282145 0.775018
-0.442980 0.016010 0.425927
-0.770232 0.366522 -0.224414
0.220806 -0.591988 -0.212458
0.543597 -0.263664 -0.190296
-0.105882 -0.596329 0.774956
-0.457055 0.717610 -0.214067
-0.131246 0.386909 -0.880923
-0.789329 0.029570 0.105978
-0.438765 -0.292374 -0.559078
0.217763 0.030142 -0.870492
0.532247 0.051814 0.794421
-0.771360 -0.627672 0.106193
0.218545 0.028982 -0.872296
0.207017 -0.599232 0.423895
-0.443570 0.014600 0.423318
0.538731 -0.265277 0.446914
0.191522 0.694168 -0.224822
-0.459116 0.718084 -0.212269
-0.439085 0.389829 -0.541733
0.536131 0.032341 -0.543313
0.852429 -0.281407 0.150172
-0.428638 0.379107 0.116187
-0.457287 0.717051 -0.214910
-0.433051 0.025395 -0.863784
0.207771 0.714281 0.432056
0.198122 0.349094 -0.549773
-0.437410 -0.293659 -0.559469
-0.429177 0.380112 0.113268
-0.115743 0.717780 0.123540
-0.106294 -0.595695 0.776974
-0.452802 -0.289392 0.785782
0.192876 0.693711 -0.225043
0.535371 0.032248 -0.542214
0.536977 -0.265614 0.447657
-0.120418 0.009702 0.770099
0.179606 -0.258545 -0.525316
-0.770853 0.366556 -0.226654
0.543718 -0.264880 -0.189905
-0.452482 -0.287968 0.784566
0.533095 0.052033 0.793072
-0.770311 0.365439 -0.226062
-0.129747 0.385550 -0.881947
0.196961 0.350601 -0.548474
0.526405 0.358892 -0.214676
-0.444658 0.016177 0.425382
-0.125737 0.713545 -0.549776
-0.770891 0.364353 -0.226822
-0.452030 -0.286679 0.786887
-0.099067 0.378471 0.445567
0.230314 0.390323 0.779742
0.527292 0.358837 -0.212654
0.229922 0.391888 0.779634
0.209897 0.714541 0.431985
-0.098169 0.377953 0.445087
-0.120205 0.009857 0.770005
-0.097994 0.379364 0.443114
-0.429590 0.380432 0.114744
0.541700 -0.263182 -0.188672
0.853417 -0.281752 0.151550
-0.437535 -0.290998 -0.560245
0.198083 0.349660 -0.550012
0.524184 0.404472 0.436047
-0.453775 -0.290229 0.786391
0.884362 0.016226 -0.194486
0.882990 0.017666 -0.196577
0.229859 -0.283042 0.773591
0.207740 0.714999 0.431072
0.884244 0.018606 -0.194806
0.536835 0.708604 0.109613
0.865439 0.047369 0.484597
-0.770947 -0.630207 0.104370
0.232118 0.391604 0.780142
-0.757635 -0.298130 -0.213313
0.865070 0.043822 0.484253
0.179905 -0.260457 -0.523085
0.208924 0.715371 0.431062
-0.756722 -0.299554 -0.212497
-0.771745 0.366293 -0.223648
0.523457 0.402616 0.433551
-0.769231 -0.299883 0.442216
-0.098904 -0.617262 -0.529931
-0.789653 0.028119 0.105824
-0.126274 0.713019 -0.549448
0.228602 -0.281461 0.776126
0.531915 0.051749 0.791544
-0.434033 0.027182 -0.863649
0.203566 -0.599831 0.425845
0.534932 0.032761 -0.542299
0.196661 0.348948 -0.549694
0.526393 0.359287 -0.215579
-0.453364 -0.289569 0.785460
0.861535 0.357223 0.104359
-0.771152 0.364090 -0.226839
-0.757309 -0.299803 -0.211532
-0.129002 0.386239 -0.880115
-0.440813 0.389303 -0.541311
-0.106390 -0.595967 0.776264
-0.106894 -0.617047 0.114118
-0.758174 -0.299540 -0.213436
-0.768768 -0.294901 0.443274
0.219521 -0.589522 -0.213235
0.853467 -0.281520 0.152258
-0.786196 0.028766 0.102573
0.228378 -0.283088 0.775350
-0.439205 -0.292738 -0.558240
-0.755973 -0.298916 -0.212974
-0.452074 -0.287617 0.785514
0.863505 0.358381 0.106419
0.525634 0.404989 0.434269
0.231450 0.390991 0.780947
0.218324 0.029593 -0.872412
-0.109409 -0.617309 0.114445
-0.437554 -0.292513 -0.560392
0.534723 0.032181 -0.541546
-0.107502 -0.616745 0.115303
-0.119965 0.008060 0.770260
-0.114507 0.716621 0.121902
-0.456946 0.718144 -0.215604
-0.453155 -0.287178 0.786308
-0.440773 -0.621683 0.451062
-0.452262 -0.289631 0.785900
0.526492 0.403001 0.434801
-0.132414 0.386112 -0.881536
0.853458 -0.279316 0.150499
0.535693 0.708915 0.106889
0.178607 -0.258418 -0.525564
-0.107371 -0.594489 0.774305
-0.118199 0.008067 0.770973
0.219266 -0.590577 -0.214614
0.207958 0.715010 0.430210
0.218101 -0.591636 -0.213255
-0.120865 0.008120 0.768641
0.862982 0.360297 0.106671
0.529521 -0.607417 0.109947
0.524783 0.406643 0.433236
-0.107334 -0.597343 0.772781
0.539615 0.710405 0.107589
0.208035 0.715850 0.430577
-0.125566 0.714153 -0.550487
-0.099377 0.379769 0.444469
-0.438721 0.390695 -0.539471
0.536924 0.710498 0.107975
0.204491 -0.601300 0.423867
0.866474 0.045244 0.483054
-0.755441 -0.297776 -0.212254
-0.097595 -0.616471 -0.528544
0.883359 0.016745 -0.196490
0.230982 0.391547 0.779304
-0.107886 -0.616297 0.115899
-0.788387 0.028815 0.103081
0.867361 0.044560 0.483541
0.533574 0.052366 0.791689
-0.117179 0.716745 0.122921
0.525062 0.359507 -0.213308
-0.771148 0.366468 -0.226171
0.532579 0.054394 0.793838
-0.457737 0.718026 -0.216174
-0.457122 0.717155 -0.214295
-0.769859 0.366899 -0.225953
-0.438457 -0.292774 -0.560275
0.883035 0.014377 -0.195804
-0.439879 0.390165 -0.543043
-0.788069 0.028548 0.104891
0.882774 0.016048 -0.195696
0.883409 0.015594 -0.195880
-0.116214 0.716192 0.122643
