OFF
256 0 0
-0.269627 0.758234 0.204956
0.358998 -0.857399 -0.129643
-0.602939 0.113113 -0.756729
0.716208 -0.538860 -0.119433
-0.283753 -0.519166 -0.432130
-0.273478 -0.197077 -0.765938
0.036504 0.445655 0.867926
-0.273635 -0.197926 -0.765070
0.350652 -0.509078 -0.409006
0.042817 -0.564962 0.510637
0.376275 0.415021 -0.106172
0.358190 -0.855576 -0.129757
-0.272404 0.760022 0.201551
0.044199 -0.564337 0.513431
0.034945 0.445133 0.868744
0.354403 -0.197785 -0.744236
0.348049 -0.226411 0.516122
-0.276640 0.771079 -0.439420
0.045361 -0.863886 -0.472815
-0.606387 -0.532583 -0.116081
0.346480 -0.226029 0.516636
0.345608 0.123606 0.831552
0.703583 -0.239742 -0.434554
-0.288989 0.134640 0.859470
0.359721 -0.857729 -0.129878
0.050166 0.785844 0.530102
-0.604688 0.464955 0.207180
-0.272980 -0.222165 0.551399
0.044894 -0.863320 -0.470939
0.018952 -0.193651 0.871816
-0.284527 0.465651 0.543378
0.043689 0.130456 -0.787645
-0.595585 -0.197072 -0.422038
0.018335 -0.192177 0.871041
0.697841 -0.241377 0.212958
0.018374 -0.193584 0.872816
0.715793 -0.538237 -0.118684
0.705815 -0.241113 -0.434854
0.703564 0.445598 0.202146
0.059299 0.761355 -0.119112
-0.589185 0.121926 0.519626
0.380632 -0.539003 0.205203
0.364533 0.748633 0.216501
-0.607935 -0.530865 -0.113280
-0.616048 0.780413 -0.110366
0.697215 -0.240020 0.213472
-0.283502 0.462968 0.544121
0.017888 -0.191671 0.872971
0.351869 -0.509927 -0.409159
0.702466 0.446373 0.201222
0.702038 0.443595 0.202118
0.697387 -0.240352 0.212801
-0.288624 0.132561 0.859168
0.355381 -0.195901 -0.744304
0.035242 0.446096 0.868498
-0.286000 0.445174 -0.733090
-0.288671 0.443912 -0.734542
-0.622440 0.455513 -0.459737
0.376504 0.414317 -0.106800
0.020800 -0.192729 0.871771
0.344931 -0.226078 0.514913
-0.257863 -0.542487 0.186277
-0.256543 -0.542679 0.187880
0.701604 0.443803 0.200858
0.034537 0.445565 0.870435
0.046439 -0.863785 -0.470750
0.037973 0.412543 -0.428392
-0.607023 -0.530575 -0.116572
-0.614805 0.780036 -0.109392
-0.617319 0.782017 -0.109322
0.043578 -0.566064 0.512101
-0.606706 -0.531413 -0.115189
0.703123 0.445483 0.202543
0.354594 -0.196737 -0.744535
-0.269100 0.759758 0.203596
-0.276467 0.772276 -0.437585
0.695427 0.083308 -0.105942
-0.287992 -0.846540 -0.128964
0.038667 0.411969 -0.426917
-0.612163 0.131819 -0.105183
0.037044 -0.884930 0.193894
0.715593 -0.538499 -0.119667
-0.594303 -0.196779 -0.420525
-0.617442 0.781672 -0.109101
-0.589723 -0.193184 0.208443
0.363670 0.749363 0.214338
-0.621716 0.453499 -0.457798
0.350144 -0.512180 -0.411286
0.706524 -0.240723 -0.434687
0.376407 0.417295 -0.106469
-0.605086 0.464164 0.205663
-0.604727 0.466901 0.204400
0.048817 0.786984 0.529858
0.046940 0.787274 0.530360
0.018623 -0.191465 0.871715
-0.594910 -0.198593 -0.422462
0.715197 -0.539835 -0.118112
0.018102 -0.193507 0.871933
-0.271143 0.758996 0.200822
0.362838 0.750295 0.213565
0.352728 -0.196197 -0.742552
0.379751 -0.540228 0.206294
-0.276321 0.772069 -0.435945
0.059300 0.758096 -0.116797
0.351812 -0.509692 -0.409617
0.036113 0.445832 0.870652
0.351776 -0.512266 -0.410526
-0.259299 -0.541266 0.186590
0.038240 -0.885965 0.193618
0.057492 0.758016 -0.116986
0.042039 0.130017 -0.786603
0.035773 0.445091 0.867320
0.346360 0.123406 0.833385
-0.277294 0.770974 -0.438777
-0.616639 0.780136 -0.109893
0.364573 0.747861 0.214172
0.691689 0.116824 0.518809
0.044957 -0.564086 0.513004
-0.604895 0.463820 0.204613
-0.283700 0.463126 0.543731
0.351411 -0.510593 -0.409772
0.044267 -0.564437 0.511015
-0.593922 -0.198473 -0.421024
0.350231 -0.509497 -0.410478
-0.607405 -0.530747 -0.116974
-0.290378 0.133160 0.859278
0.349418 -0.510709 -0.408750
0.047058 -0.518691 -0.735956
0.060240 0.758338 -0.116063
0.048500 0.786782 0.532416
-0.595346 -0.198874 -0.421250
-0.258061 -0.542060 0.186265
0.034621 0.446089 0.867185
0.047132 0.787327 0.530849
0.035050 0.445404 0.869757
0.354704 -0.196538 -0.742465
0.035241 0.446405 0.868466
-0.593996 -0.196461 -0.423086
0.043648 0.130273 -0.787948
0.365291 0.090998 -0.421562
0.047251 0.786982 0.529879
-0.590206 -0.191774 0.211155
-0.276846 0.770542 -0.436956
0.035116 0.445185 0.866872
0.705253 -0.239862 -0.434126
-0.286752 0.446100 -0.733669
0.354826 0.424479 0.523271
-0.606925 -0.533210 -0.115216
-0.269920 0.760095 0.204025
0.363498 0.749837 0.216316
-0.602812 0.112893 -0.755749
0.058905 0.757427 -0.118912
0.049002 0.786241 0.531443
0.351555 -0.511980 -0.409961
0.376215 0.413629 -0.107729
0.704563 -0.240421 -0.435618
-0.620558 0.456181 -0.459924
-0.586737 0.121739 0.520699
0.035700 0.444864 0.868801
0.059787 0.757604 -0.117188
0.696691 -0.241026 0.216063
-0.255858 -0.542296 0.185354
0.345769 -0.226328 0.517256
0.702205 0.447084 0.201795
0.703180 0.446523 0.202022
0.018949 -0.192426 0.871095
0.352512 -0.195655 -0.741908
0.047944 0.788361 0.531174
0.345128 -0.225054 0.514719
0.696490 -0.241263 0.216194
0.694025 0.082973 -0.107498
-0.257781 -0.540852 0.187294
0.355989 0.427075 0.522981
-0.611609 0.130446 -0.105783
0.356156 -0.197024 -0.742095
0.038108 -0.885855 0.192467
0.348639 -0.509678 -0.409360
0.047076 0.786563 0.531175
-0.595522 -0.196928 -0.421804
-0.591401 -0.192684 0.210223
-0.593071 -0.197328 -0.424141
-0.281898 -0.518881 -0.431371
0.354405 0.427344 0.523384
0.705315 -0.238021 -0.434768
0.694573 0.081608 -0.107106
-0.286583 0.445117 -0.734661
-0.616933 0.780863 -0.108969
0.353674 0.427465 0.522575
-0.257896 -0.540525 0.186816
-0.603064 0.114206 -0.756175
-0.283704 0.464718 0.542764
-0.274911 -0.222772 0.550164
0.042167 -0.564910 0.512493
-0.614473 0.779551 -0.109113
-0.283253 -0.519145 -0.431292
-0.621462 0.456902 -0.457505
0.040246 0.412910 -0.427623
0.693867 0.082034 -0.107053
0.716204 -0.538096 -0.120216
0.037673 -0.886175 0.192429
0.060084 0.758711 -0.117049
0.044072 -0.863127 -0.471240
0.058892 0.758968 -0.117014
-0.271613 0.759849 0.201957
0.041567 0.129614 -0.788948
-0.284528 0.463602 0.543523
0.377523 0.416101 -0.108146
0.702277 0.445371 0.201742
0.363198 0.750195 0.215398
0.349788 -0.510295 -0.408822
-0.609551 -0.531902 -0.116815
0.696611 0.083316 -0.108401
-0.616493 0.780392 -0.111485
0.047913 -0.519339 -0.736376
-0.621352 0.454821 -0.458614
-0.603461 0.113473 -0.756770
0.704094 -0.238625 -0.436127
-0.288051 0.446577 -0.734275
-0.601771 0.113843 -0.756733
-0.275614 -0.222111 0.550447
-0.271033 0.760231 0.202387
-0.591094 -0.192283 0.210057
-0.612060 0.130916 -0.106505
0.364310 0.749402 0.215985
0.692376 0.116269 0.518677
0.038676 0.412130 -0.428689
-0.602919 0.113394 -0.757737
0.047862 0.786780 0.530665
-0.287368 0.445352 -0.733519
0.691265 0.116001 0.518001
-0.588188 0.120442 0.520689
-0.612948 0.130664 -0.107078
-0.276774 0.771702 -0.437833
-0.289994 0.133944 0.858462
-0.282447 -0.517754 -0.431696
0.359833 -0.856160 -0.128318
-0.274699 -0.199024 -0.765879
-0.611466 0.131868 -0.105106
-0.283800 -0.517990 -0.429904
-0.284018 -0.519142 -0.430965
0.362348 0.748407 0.214902
0.697035 -0.240113 0.215545
0.351008 -0.513947 -0.410205
-0.282842 -0.517744 -0.429338
-0.595055 -0.195829 -0.423457
-0.287200 0.443638 -0.734840
0.038665 -0.884140 0.193331
-0.288139 0.446370 -0.735127
-0.257326 -0.540275 0.186146
-0.287741 0.133409 0.859585
-0.288353 0.133541 0.859080
-0.273415 -0.221812 0.550783
0.353056 0.425436 0.521311
0.360078 -0.857092 -0.128675
-0.605831 -0.529403 -0.114761
-0.603670 0.463978 0.204680
