OFF
256 0 0
-0.638396 -0.328211 -0.398072
0.669103 -0.318000 -0.386112
0.331076 -0.327717 -0.719293
0.316504 0.333619 -0.738212
0.001191 0.637294 -0.716519
0.000585 -0.646995 -0.720750
-0.629071 0.006905 -0.095069
-0.643148 0.338731 -0.391537
0.313202 -0.317156 0.595474
0.000085 -0.647814 -0.719489
0.006208 -0.003331 -0.740210
0.295962 0.292769 0.555812
0.316895 0.330966 -0.737914
0.332081 0.641200 -0.387187
0.631467 -0.299269 0.272535
0.296160 0.296347 0.556505
-0.661642 -0.004298 0.549226
0.001709 -0.647233 -0.722290
0.332475 0.641320 -0.387648
-0.007603 0.663844 0.568343
-0.326523 -0.332224 0.556476
-0.325447 0.319131 0.568340
0.001555 0.642045 -0.051238
-0.328907 0.656357 -0.388276
-0.339527 0.350299 -0.725537
-0.009333 -0.659182 0.586541
-0.642200 -0.004876 -0.706773
0.659584 0.628282 -0.053521
-0.330176 -0.302193 -0.715659
0.339648 0.646071 0.262815
0.296383 0.291261 0.555503
0.001423 -0.328454 0.898416
-0.641886 0.339426 -0.392198
0.682024 0.000959 -0.050663
-0.643273 0.338025 -0.392379
0.314828 0.334349 -0.738510
-0.027897 0.345973 0.906600
0.320218 -0.649004 0.261782
0.628408 -0.298687 0.271324
-0.635736 0.665296 -0.040610
-0.646714 0.339790 0.259623
0.315488 0.333195 -0.737774
-0.636674 -0.329057 -0.396974
-0.001176 -0.647180 -0.720177
-0.314764 0.001478 0.881056
0.000716 0.643479 -0.050494
-0.629391 0.007260 -0.095312
0.672670 0.317733 -0.399943
0.003216 0.635497 -0.717046
-0.635028 0.664699 -0.038633
-0.661181 -0.004103 0.548346
-0.309976 0.652081 0.265836
0.001100 -0.328377 0.896858
0.664183 0.010836 -0.748160
-0.030335 0.346271 0.907805
0.662783 0.011113 -0.747300
0.652448 0.308010 0.271655
0.298913 0.007529 0.897382
-0.330284 -0.683376 0.249375
0.320728 -0.649600 0.261252
-0.009060 0.661065 0.567850
-0.028366 0.344700 0.906879
0.620733 -0.635278 -0.074610
0.657000 -0.004586 0.581101
0.323292 -0.658895 -0.388631
0.620203 -0.634571 -0.072951
-0.314670 0.000004 0.880818
-0.649998 0.339387 0.259696
0.660828 0.631258 -0.057109
0.660674 0.628745 -0.056430
-0.007188 0.663122 0.568089
0.660416 0.629004 -0.054523
0.320390 -0.650657 0.260265
-0.313434 0.652319 0.265044
-0.321267 -0.672350 -0.411323
0.681042 -0.000858 -0.051680
0.297621 0.293153 0.556986
0.321270 -0.648958 0.258382
0.660841 0.628639 -0.056072
-0.329157 -0.683074 0.249016
-0.628655 0.006753 -0.096507
-0.325281 0.319542 0.566143
0.659925 0.629211 -0.055613
-0.641265 -0.005784 -0.705768
0.659179 0.628593 -0.055033
-0.000359 -0.329067 0.898512
0.004728 -0.003130 -0.740020
-0.663456 -0.004368 0.551207
0.332186 0.642150 -0.385996
0.668315 -0.318600 -0.385283
0.330706 0.642118 -0.386751
0.667747 -0.318351 -0.386101
-0.324901 0.317314 0.567646
0.673601 0.319164 -0.399807
-0.648620 0.340638 0.260557
-0.007926 -0.657430 0.588212
0.659899 0.629985 -0.054700
-0.313002 0.653772 0.265980
0.331995 0.643455 -0.386125
0.338008 0.647105 0.263487
0.317567 0.332346 -0.737170
0.672844 0.318872 -0.398644
0.323213 -0.656877 -0.387772
0.320684 -0.649947 0.260456
-0.313314 0.651266 0.266791
0.651822 0.305271 0.271244
-0.661213 -0.004056 0.546972
0.000391 -0.329000 0.897810
0.318219 -0.649434 0.259261
0.332188 0.643903 -0.385843
0.002211 0.638330 -0.717816
0.296042 0.291577 0.554968
0.662550 0.629469 -0.054746
0.674117 0.319082 -0.400724
0.298901 0.006785 0.897018
0.630859 -0.300278 0.270398
0.317064 0.330599 -0.736566
-0.630699 0.004545 -0.095217
-0.642920 -0.007173 -0.706388
-0.636277 -0.329975 -0.397958
0.298012 0.007707 0.896831
0.316718 0.332219 -0.738698
0.335737 0.648741 0.265712
0.323719 -0.660137 -0.387451
0.312222 -0.317925 0.595663
-0.339722 0.350032 -0.725406
-0.330528 -0.684377 0.249987
0.316447 0.332267 -0.736090
-0.324099 0.318968 0.568303
-0.326523 -0.334641 0.555804
-0.008499 -0.656509 0.585424
0.674711 0.318952 -0.399933
0.297853 0.007464 0.897099
-0.629374 0.007092 -0.095821
-0.326210 0.318867 0.569272
-0.657259 -0.334979 0.230507
-0.331835 -0.682811 0.248355
0.337931 0.648864 0.262560
0.001884 0.644847 -0.052474
0.322981 -0.657889 -0.389331
-0.328627 -0.331529 0.555711
0.319993 -0.648698 0.259032
-0.006691 0.662963 0.569042
0.315691 0.334071 -0.739529
-0.009291 0.663397 0.569097
-0.654301 -0.330877 0.230112
0.295362 0.291717 0.557614
-0.312195 0.001374 0.880597
-0.008203 0.663475 0.567691
-0.642882 -0.006342 -0.705819
-0.322031 -0.672309 -0.411145
-0.314059 0.653344 0.266102
0.300338 0.007920 0.897390
-0.013748 -0.644241 -0.080223
0.653067 0.306455 0.269222
-0.007157 0.663509 0.568035
0.294868 0.291889 0.555298
0.629327 -0.298068 0.271436
-0.323586 0.317597 0.566847
0.652569 0.306743 0.272351
0.333356 -0.328076 -0.718132
0.331641 -0.329964 -0.719857
-0.331899 -0.683179 0.247825
-0.014390 -0.644976 -0.080122
-0.331268 -0.682438 0.248338
-0.340000 0.348415 -0.725560
0.630656 -0.298743 0.272276
-0.007587 0.663199 0.567070
0.673959 0.316810 -0.401536
0.681448 -0.000699 -0.055911
-0.662591 -0.001717 0.547176
0.330742 0.640583 -0.387973
-0.644795 0.339762 -0.393491
0.003354 -0.003577 -0.737870
-0.650651 0.339748 0.260224
0.000797 0.643639 -0.050552
0.320621 -0.657164 -0.388156
-0.324573 0.657318 -0.388823
0.632570 -0.298261 0.272890
-0.314963 0.001329 0.882410
0.000587 -0.328926 0.898567
0.000275 -0.647005 -0.721325
-0.654464 -0.333144 0.231674
0.000280 -0.327949 0.899010
-0.642621 0.337565 -0.393971
0.668811 -0.320973 -0.386378
-0.329407 -0.681482 0.250208
-0.339932 0.347955 -0.724724
-0.643673 -0.653063 -0.087797
-0.008093 -0.658928 0.585467
-0.331365 -0.681763 0.248313
-0.636103 -0.327878 -0.397001
-0.029319 0.347202 0.907481
-0.028975 0.347089 0.907088
0.667855 -0.318863 -0.385872
-0.650129 0.339295 0.259430
-0.332130 -0.300747 -0.714402
-0.007533 -0.657760 0.587259
-0.331468 -0.300557 -0.714671
-0.325617 -0.330570 0.556766
0.656756 -0.005088 0.581714
-0.642910 -0.006461 -0.707038
0.657314 -0.006189 0.580706
0.000435 0.641821 -0.050343
-0.643677 -0.654185 -0.088073
0.669196 -0.319417 -0.388773
-0.340013 0.349687 -0.725531
0.298821 0.008666 0.897725
0.001095 -0.646268 -0.720310
0.330767 -0.329660 -0.720940
-0.329400 -0.302341 -0.712345
0.004616 0.636189 -0.715193
-0.650182 0.338900 0.259297
0.000007 -0.331325 0.898105
0.631170 -0.298515 0.272185
0.313798 -0.319061 0.597473
0.665409 -0.318098 -0.385817
0.674358 0.318175 -0.399448
-0.650320 0.340114 0.261343
0.295365 0.291771 0.557377
-0.630045 0.007186 -0.091823
0.319449 -0.649464 0.258752
0.317131 0.332821 -0.738601
-0.629434 0.006234 -0.096410
0.003473 0.643663 -0.052326
0.660055 0.630779 -0.056009
0.657859 -0.005028 0.583942
0.620887 -0.635199 -0.074363
-0.340229 0.349967 -0.725695
0.002691 -0.647587 -0.720320
-0.312284 0.651100 0.264314
-0.635305 0.664721 -0.041577
-0.636519 -0.327943 -0.397267
-0.637730 0.665223 -0.038334
0.659179 -0.003581 0.581102
0.314256 0.333396 -0.738337
0.296605 0.292093 0.557096
0.316608 0.333469 -0.739989
0.664964 -0.317699 -0.389014
-0.324056 0.317948 0.568307
0.630701 -0.299252 0.271011
-0.324970 0.318313 0.567095
0.317447 0.332028 -0.738258
-0.642459 -0.006532 -0.706229
-0.326434 0.318817 0.565072
0.682444 -0.002879 -0.053497
-0.660576 -0.003686 0.549055
0.663230 0.629189 -0.057039
-0.642672 -0.653175 -0.087628
-0.314821 0.002056 0.883494
-0.649087 0.339353 0.260233
-0.642855 0.338799 -0.393916
-0.329417 -0.682656 0.247882
-0.015851 -0.645450 -0.078752
-0.015176 -0.644710 -0.079153
-0.640477 -0.004879 -0.706571
