OFF
256 0 0
0.697763 -0.143261 -0.680266
0.355966 0.523641 0.328794
0.347741 0.201338 -0.671714
-0.301903 0.194656 0.654961
-0.311181 0.222966 -0.667922
0.350973 -0.453083 0.003128
0.342679 0.192879 0.656935
0.690770 -0.139552 0.678591
-0.329566 -0.463323 0.656795
-0.300467 0.541224 0.351920
0.356209 0.523872 0.327661
0.330175 0.513335 -0.319033
-0.643894 0.543477 0.023716
0.691128 -0.140679 0.677525
0.331448 0.511825 -0.316089
0.696151 -0.469027 -0.314696
-0.647984 -0.123953 0.649812
0.351016 -0.455369 0.006477
0.015069 0.545361 0.658953
0.006196 -0.459928 -0.329172
-0.280748 0.522324 -0.315708
-0.621604 -0.117191 -0.028742
-0.620411 -0.115867 -0.028008
0.332332 -0.449148 0.658203
-0.645022 0.543602 0.023072
0.003763 -0.482685 0.326408
0.025888 0.852616 -0.342645
0.701296 -0.121661 0.010961
-0.311970 0.223465 -0.668085
0.348549 0.200594 -0.671153
-0.312689 -0.815325 -0.345271
0.703150 -0.122067 0.013013
-0.629514 -0.776053 -0.014792
-0.302714 0.542950 0.351672
0.702649 -0.122757 0.011311
0.013652 -0.142037 0.636971
0.014159 0.857515 0.340566
0.703666 -0.123696 0.011520
0.695721 -0.469469 -0.312380
-0.629431 -0.126278 -0.646546
-0.621299 -0.117309 -0.028062
0.015843 0.543939 0.658702
-0.327086 -0.464108 0.659859
-0.643955 0.219650 0.324007
0.685742 -0.437357 0.343468
0.027363 0.851147 -0.339830
0.005905 -0.458958 -0.329968
0.014557 -0.143135 0.636895
0.688839 0.512200 0.021533
0.355122 0.522023 0.329034
0.695169 0.199471 -0.336873
0.333048 -0.451651 0.656172
0.346752 0.200762 -0.669492
0.683755 -0.436619 0.343816
0.329859 0.511552 -0.315458
0.347934 0.201448 -0.671455
0.345535 0.191500 0.658456
0.006025 -0.459055 -0.330091
-0.312862 -0.816645 -0.345872
0.007288 -0.459191 -0.330085
0.349606 0.200710 -0.671094
-0.304091 0.540536 0.352436
0.339197 -0.452880 -0.642406
-0.311852 0.222570 -0.666590
-0.310826 0.223414 -0.667714
0.703721 -0.123789 0.010355
-0.621616 -0.116793 -0.026345
0.010848 -0.143365 0.636377
0.683373 -0.435563 0.344292
0.024443 -0.124819 -0.649269
0.005307 -0.457232 -0.330003
-0.626765 -0.462851 -0.345991
-0.622171 -0.457383 0.311597
0.012899 0.858695 0.340755
-0.314543 -0.816658 -0.344617
0.328714 0.511900 -0.316861
-0.627483 -0.462894 -0.345389
0.026201 -0.123259 -0.649538
-0.647553 -0.123596 0.647091
0.688303 0.509231 0.021871
-0.328318 -0.461113 0.658881
0.013729 -0.144312 0.637534
0.688738 0.511908 0.019448
-0.282315 0.522712 -0.316258
0.693745 0.197466 -0.335804
0.693992 -0.139189 0.677619
0.005233 -0.457250 -0.329362
0.340176 -0.454938 -0.639699
0.013226 -0.143870 0.638732
0.013418 -0.140903 0.636423
0.328890 0.509995 -0.316619
0.015674 0.544250 0.660364
0.349785 -0.455228 0.004830
0.696057 0.199946 -0.336862
0.014971 0.543849 0.660167
0.700871 -0.122410 0.012309
-0.625917 -0.462715 -0.346989
-0.614468 0.222504 -0.319245
0.691609 -0.141140 0.677834
0.696055 0.201491 -0.336543
-0.300785 0.541969 0.351745
-0.649065 -0.122994 0.650116
0.026096 -0.122648 -0.649394
-0.613832 0.224426 -0.318260
0.685274 -0.436296 0.341513
0.005825 -0.482412 0.326461
0.356235 0.523211 0.328254
0.341773 -0.455419 -0.641374
-0.300565 0.540954 0.352729
0.022211 0.527897 -0.670367
-0.322632 -0.816742 0.324222
-0.645336 0.544717 0.021543
0.007095 -0.459874 -0.330884
0.331798 0.511346 -0.317335
-0.279964 0.521166 -0.317098
0.703874 -0.121583 0.012519
0.025788 -0.123994 -0.647709
0.693682 -0.142734 0.678108
0.005997 -0.459899 -0.329492
-0.646724 0.545212 0.022587
0.355475 0.523722 0.326976
-0.645775 0.545518 0.021613
0.695303 0.198788 -0.335803
0.340250 -0.454701 -0.642881
-0.613268 0.224331 -0.317422
0.347577 0.201157 -0.669861
0.688236 0.174919 0.341361
0.688121 0.510306 0.020473
-0.310269 0.222953 -0.667378
0.688914 0.510259 0.020031
0.685144 -0.436688 0.345002
0.693697 -0.138451 0.676865
0.012653 -0.141411 0.638934
-0.649892 -0.123384 0.649312
0.013483 0.856659 0.339701
0.014792 -0.143623 0.637641
-0.315751 -0.814643 -0.345454
-0.628568 -0.126507 -0.648403
-0.624122 -0.117911 -0.028432
0.028017 0.850712 -0.339471
0.366886 0.857463 0.010660
0.008302 -0.804594 -0.001795
-0.322752 -0.816560 0.321781
-0.305278 -0.439758 -0.660318
0.702438 -0.123483 0.012960
0.345055 0.191795 0.657019
-0.628930 -0.775234 -0.015831
-0.649723 -0.124864 0.651150
-0.626638 -0.462736 -0.347431
-0.301732 0.541101 0.352313
-0.303627 -0.440045 -0.660634
-0.629731 -0.774438 -0.016265
0.009644 -0.806954 -0.001438
0.015522 0.544686 0.660422
0.687410 0.175390 0.341600
0.005884 -0.460015 -0.329832
-0.309195 0.861044 -0.010594
-0.300033 0.195744 0.655221
0.004128 -0.481715 0.326724
0.699225 -0.145167 -0.680269
0.008534 -0.458167 -0.331330
0.332050 -0.450103 0.659095
0.346756 0.201559 -0.669913
0.695268 -0.469226 -0.312821
-0.312123 0.221606 -0.667854
0.025486 -0.122803 -0.650029
0.012602 -0.141915 0.638419
0.026798 0.852805 -0.342021
-0.305668 -0.441062 -0.660229
-0.300189 0.195817 0.656386
-0.328665 -0.462695 0.657676
0.366956 0.858619 0.008329
0.348102 0.202219 -0.672927
-0.627874 -0.123988 -0.645934
-0.281762 0.521210 -0.316630
-0.625681 -0.464765 -0.347262
-0.312059 -0.814207 -0.345851
0.689366 0.512225 0.017986
0.017350 0.545559 0.659919
0.346979 0.201161 -0.671197
0.349200 -0.454937 0.003184
-0.621438 -0.118019 -0.029069
0.007519 -0.483275 0.327875
0.014606 0.544421 0.659175
0.026274 -0.121803 -0.649730
0.696461 -0.468750 -0.313563
-0.643910 0.217027 0.322253
-0.622872 -0.119413 -0.029446
0.014083 0.856698 0.339235
0.694388 -0.141454 0.678159
-0.324142 -0.815049 0.321536
-0.310037 0.861408 -0.010934
-0.311110 0.861921 -0.011346
-0.299161 0.540615 0.351798
-0.612710 0.225111 -0.320097
0.332656 -0.451437 0.657041
-0.300996 0.540772 0.352359
0.014862 0.856532 0.338616
-0.314914 -0.816739 -0.345781
-0.313793 -0.815896 -0.344738
-0.300189 0.194791 0.654818
-0.280588 0.520888 -0.318358
0.004983 -0.482652 0.327627
-0.622830 -0.117856 -0.029989
0.329826 0.509995 -0.317828
0.692630 -0.139713 0.678251
0.697263 -0.468183 -0.312990
-0.622446 -0.458599 0.312717
-0.282054 0.520159 -0.317980
0.350079 0.200755 -0.670101
0.010418 -0.803692 -0.002995
0.684351 -0.435826 0.344116
0.027245 0.851564 -0.342621
-0.304181 -0.440518 -0.659186
-0.314110 -0.815652 -0.345036
-0.612201 0.222046 -0.319309
-0.302272 0.540964 0.352968
-0.300258 0.194743 0.656099
0.348538 0.201149 -0.670049
0.005884 -0.481874 0.325372
0.351085 -0.453035 0.005550
0.345372 0.191758 0.657772
0.687308 0.510585 0.020990
-0.311062 0.863691 -0.011267
0.004909 -0.482031 0.326133
0.687676 0.510780 0.019948
0.330126 0.513554 -0.316477
0.007271 -0.458807 -0.330892
-0.311235 0.860747 -0.010993
0.697970 -0.468495 -0.312820
0.367387 0.859425 0.007746
-0.649377 0.543387 0.022395
-0.610587 0.223339 -0.318255
0.702994 -0.121188 0.012115
0.693937 -0.141768 0.678051
0.694793 0.201074 -0.337234
0.694907 -0.140123 0.678457
0.693890 0.198802 -0.337482
0.339885 -0.453111 -0.642358
0.007555 -0.806014 -0.001450
0.023608 0.526931 -0.671495
0.356161 0.523302 0.328478
0.013680 -0.144235 0.637693
-0.329901 -0.462683 0.657609
-0.628368 -0.775452 -0.015599
0.331075 -0.451228 0.656683
0.685355 -0.437320 0.344067
0.013970 0.856328 0.339988
0.012963 -0.140224 0.637112
0.006530 -0.481550 0.327173
0.689622 0.511532 0.020152
0.026248 0.851312 -0.341683
0.703122 -0.121132 0.012360
0.687897 0.511935 0.019900
0.700006 -0.145128 -0.680925
0.015726 0.543409 0.656895
