OFF
256 0 0
0.614971 -0.407771 0.396262
0.639068 -0.076925 0.109326
-0.663423 -0.412090 0.396030
0.307808 -0.431804 0.746618
0.328678 0.884825 0.083102
-0.347425 -0.742313 -0.250099
0.626817 -0.100142 0.732052
0.604924 0.214583 -0.224421
-0.651804 0.203101 -0.235712
0.626589 -0.099726 0.731468
-0.345906 0.220469 -0.569909
-0.003073 -0.412704 0.390399
0.636696 -0.075385 0.109615
-0.021807 -0.737929 -0.562616
0.004323 0.568117 0.751255
0.306605 -0.101094 -0.923883
0.611160 -0.748113 0.082572
-0.022294 -0.735802 -0.560849
0.329162 0.882608 0.081746
-0.347844 0.219287 -0.569082
0.607316 0.213613 -0.224082
-0.346353 -0.397818 -0.540503
-0.348111 0.220844 -0.568590
0.625951 -0.100130 0.733042
-0.023627 -0.739211 -0.562684
0.636304 -0.076948 0.107627
0.302847 0.548371 -0.231271
0.616787 -0.409344 0.395045
-0.641331 0.560078 0.086592
-0.673026 -0.437921 -0.231991
-0.347862 0.221171 -0.569842
0.634807 -0.085986 -0.560924
0.628285 -0.099513 0.732430
-0.347960 -0.742192 -0.248268
0.299776 -0.418100 -0.567278
-0.009140 0.216269 -0.898149
0.299980 -0.420304 -0.567308
-0.651209 0.203661 -0.236749
0.633984 0.532542 0.088454
-0.021367 0.884854 0.405209
0.305722 -0.749271 -0.247903
-0.673091 -0.437218 -0.232150
-0.328430 -0.423796 0.061358
0.633841 0.533464 0.088251
-0.002477 -0.738042 0.070431
-0.023850 0.885375 0.403327
0.288969 0.534653 0.404064
0.307058 0.227266 0.727492
-0.021929 0.523952 -0.547308
-0.011578 0.880005 -0.233270
0.004381 0.568447 0.749455
0.304549 -0.751069 -0.247769
0.301997 -0.742587 0.400182
-0.673152 -0.434826 -0.232015
-0.317586 0.246407 0.733261
0.303627 0.551593 -0.231908
0.327897 0.884275 0.081631
0.307365 -0.101163 -0.923588
0.328664 0.885935 0.081332
0.604234 0.214377 -0.222611
-0.009267 -0.107140 0.725150
-0.003527 -0.410390 0.391866
0.612252 -0.746792 0.080468
0.606190 0.215276 -0.223131
0.606103 0.213333 -0.222426
-0.346642 -0.109046 -0.891627
0.307863 -0.429999 0.747947
0.634788 -0.087843 -0.561762
-0.011207 -0.108510 0.723522
-0.005400 -0.735028 0.071171
-0.003164 -0.737950 0.071114
0.301440 -0.742983 0.401156
-0.341389 0.875341 0.084657
-0.663203 -0.086619 0.705790
0.611777 -0.749560 0.082332
-0.662712 -0.086041 0.703812
-0.348657 -0.741194 -0.249675
-0.342071 -0.410615 0.722262
-0.663280 -0.410909 0.396467
0.328618 0.884313 0.081241
-0.637218 -0.099607 0.082942
0.002190 0.567914 0.750389
-0.341404 0.875133 0.084292
0.317594 0.217928 -0.580353
0.305998 -0.102123 -0.925060
-0.672377 -0.437873 -0.233357
-0.673108 -0.437455 -0.233898
-0.672803 -0.437031 -0.230448
0.309079 0.228537 0.727254
-0.011650 0.880258 -0.233556
-0.345615 -0.399151 -0.541072
0.298028 -0.417357 -0.568763
-0.663632 -0.116162 -0.553859
-0.342300 -0.397188 -0.539396
0.305453 -0.750218 -0.249759
-0.010131 -0.108161 0.725717
-0.016098 -0.438642 -0.900482
-0.339906 0.875968 0.084020
0.303091 0.551263 -0.228773
-0.328373 -0.423264 0.060227
0.633055 0.533461 0.090117
-0.342682 -0.398397 -0.538539
-0.024094 0.883589 0.404637
-0.664721 -0.114507 -0.552520
-0.002157 -0.734754 0.071125
0.308997 -0.431628 0.747899
-0.346922 -0.109442 -0.889800
0.292605 0.532096 0.405001
-0.306273 0.548713 0.418811
0.300183 -0.419888 -0.565860
-0.344700 -0.398809 -0.538844
0.319467 0.216977 -0.580019
-0.347962 -0.742157 -0.250172
-0.341187 0.874179 0.085493
0.634198 0.534945 0.089602
-0.640619 0.562021 0.085986
-0.004861 -0.411848 0.390391
0.328281 0.883556 0.082572
-0.347347 0.221741 -0.568923
-0.316990 0.246128 0.732971
-0.663480 -0.086118 0.704352
-0.010187 -0.109031 0.725517
-0.349424 0.221539 -0.568554
-0.340330 -0.409015 0.723893
-0.003180 -0.736498 0.071732
-0.673129 -0.436089 -0.234886
-0.024800 -0.739499 -0.560884
-0.664122 -0.410352 0.396734
-0.020366 -0.738127 -0.560901
-0.330660 0.563243 -0.243467
-0.007291 0.213727 -0.898181
-0.649890 0.203844 -0.235704
-0.008728 -0.107094 0.726631
-0.318579 0.246277 0.733542
-0.671817 -0.437084 -0.232619
0.632411 0.533409 0.085685
0.326723 0.883362 0.083752
-0.343568 -0.397942 -0.539658
-0.656115 0.222878 0.392765
-0.663550 -0.409983 0.397330
0.290939 0.533188 0.406424
-0.343710 -0.411403 0.723593
-0.013599 0.879667 -0.232131
-0.308398 0.548722 0.418574
0.003172 0.566913 0.751739
0.605617 0.213347 -0.224455
0.632598 0.533841 0.089215
0.660645 0.238517 0.428576
0.305975 0.550139 -0.229817
-0.007831 0.216267 -0.898658
0.636342 -0.077649 0.108154
-0.640722 0.561574 0.086825
-0.662341 -0.410359 0.397231
-0.014955 -0.437652 -0.899642
0.304743 -0.101280 -0.924209
0.327964 0.884270 0.081234
-0.022888 0.885139 0.403595
0.636164 -0.078513 0.108012
-0.328004 -0.422913 0.058485
0.636170 -0.077209 0.108793
-0.664029 -0.115966 -0.555619
-0.347745 -0.110019 -0.890170
0.611873 -0.749957 0.083805
0.306676 -0.101041 -0.921446
0.617710 -0.391535 -0.228899
-0.328930 -0.422992 0.059861
0.309173 -0.430646 0.744133
-0.348000 -0.741427 -0.248823
0.004757 0.569836 0.751040
0.661400 0.240114 0.428220
-0.010125 -0.107896 0.722914
0.301962 -0.418952 -0.565147
-0.015597 0.880485 -0.231572
0.304346 0.551518 -0.230010
-0.021892 -0.739858 -0.561840
-0.348488 0.219741 -0.569567
0.319746 0.217290 -0.581047
-0.656670 0.225669 0.393047
-0.641162 0.559999 0.085070
0.309008 -0.430282 0.747486
0.634269 0.533267 0.088100
0.637332 -0.077544 0.107734
0.308979 -0.432637 0.746168
-0.650070 0.204373 -0.237142
0.308731 -0.432210 0.746052
-0.348828 0.218969 -0.569493
0.307814 0.231149 0.727487
0.308481 -0.432733 0.748172
0.300007 -0.419603 -0.566460
-0.316101 0.246041 0.733272
0.635501 -0.088751 -0.563449
0.636709 -0.077361 0.107601
-0.008691 0.215145 -0.901002
-0.348398 -0.742450 -0.248879
-0.663873 -0.087772 0.704271
0.003915 0.568659 0.751487
-0.020879 0.523786 -0.547427
-0.328502 -0.423147 0.060323
0.613502 -0.747981 0.082727
-0.004175 -0.737155 0.069150
0.308941 -0.433031 0.745836
-0.003188 -0.411717 0.391352
-0.650082 0.204118 -0.236000
0.319270 0.217592 -0.580042
-0.328041 -0.425540 0.058695
-0.002706 -0.738095 0.071821
0.614144 -0.407389 0.395495
0.320050 0.218493 -0.581707
-0.341268 -0.408547 0.723998
0.003881 0.568646 0.750894
-0.346678 -0.109157 -0.890530
-0.024317 -0.738040 -0.562317
0.319529 0.217175 -0.581951
0.635459 -0.087673 -0.562391
0.289930 0.533079 0.404387
-0.023005 -0.736056 -0.559925
-0.342459 0.874771 0.084612
0.308778 -0.432617 0.745253
0.002087 0.568576 0.753951
0.309311 0.227814 0.729316
-0.663603 -0.408740 0.396886
-0.640457 0.559612 0.088967
-0.658040 0.224908 0.392898
-0.343294 -0.397149 -0.539988
-0.340056 0.874773 0.082293
-0.349117 0.220520 -0.568925
-0.012006 0.881332 -0.233301
0.327911 0.883581 0.085301
-0.664704 -0.412744 0.397084
0.617217 -0.391508 -0.229546
0.291889 0.534696 0.406507
0.328425 0.882985 0.082873
0.634679 -0.086462 -0.560717
-0.013139 -0.437949 -0.898638
0.616964 -0.391058 -0.229802
-0.345113 -0.398531 -0.539971
-0.023243 -0.738538 -0.561772
-0.317707 0.246953 0.734289
-0.307235 0.548235 0.418852
-0.009035 -0.108046 0.724957
-0.651102 0.203785 -0.236687
0.003572 0.567737 0.751362
-0.344470 -0.107557 -0.890626
0.003213 0.567195 0.750360
-0.346073 -0.744071 -0.250401
-0.342340 -0.409315 0.723896
0.290433 0.533749 0.404308
-0.012690 0.881046 -0.232270
0.607042 0.214380 -0.223586
0.298526 -0.419995 -0.567795
-0.344233 -0.410704 0.724521
-0.019113 0.522177 -0.547137
-0.003317 -0.410903 0.390757
0.636751 -0.088521 -0.562078
0.306323 -0.748447 -0.247662
0.307205 -0.431555 0.747480
