OFF
256 0 0
-0.830356 0.142514 -0.493368
-0.488338 0.467107 -0.501360
0.158486 -0.815302 0.168495
0.822943 -0.172124 -0.471429
0.481974 0.472776 -0.171200
-0.164402 -0.818030 0.470552
-0.172413 -0.474942 0.810830
0.164189 -0.488529 -0.846264
-0.494011 0.140520 -0.825499
0.166624 -0.169851 0.822068
0.814091 0.151213 0.496125
-0.160802 0.500100 -0.812700
-0.139531 0.840083 0.168214
-0.139503 0.843113 0.169227
0.493275 0.470306 0.498600
-0.156089 0.819356 -0.501332
-0.478733 0.179796 0.493144
0.153053 0.802655 -0.172078
-0.171172 -0.821698 -0.147394
0.152389 0.802809 -0.173291
0.860228 0.186469 -0.163535
-0.189487 -0.185890 -0.816383
-0.809522 0.473553 -0.175439
0.158740 -0.816679 0.167915
-0.491013 0.483464 0.159659
-0.142191 0.840452 0.168468
-0.478158 -0.143094 -0.480483
0.475395 -0.465848 0.161467
0.480254 0.471438 -0.171894
0.472881 -0.466532 0.163058
-0.139122 0.842151 0.168644
0.481878 0.152192 -0.507108
-0.811173 -0.170041 -0.159383
0.166397 -0.169533 0.821923
0.826043 -0.154948 0.168596
0.819762 0.466401 0.170015
0.153085 0.803774 -0.172173
-0.487446 0.465838 -0.501353
-0.829969 -0.484901 0.163611
-0.190964 -0.185554 -0.815442
-0.501747 -0.481596 -0.145965
0.509712 0.163562 0.833119
0.490736 -0.163044 -0.856557
-0.165761 0.501540 0.478089
-0.140554 0.841261 0.167956
0.166785 0.468240 -0.506098
0.472591 -0.463434 0.161902
-0.454018 -0.434000 0.465601
-0.484555 0.813131 -0.169065
-0.477196 0.178096 0.492213
0.164599 -0.487240 -0.846185
-0.477363 -0.142141 -0.479799
0.821681 -0.173797 -0.471494
0.822053 -0.174978 -0.473623
0.165140 -0.489073 -0.846507
0.819017 0.467084 0.171887
-0.490329 0.483168 0.159278
-0.161264 0.500353 -0.811914
0.813179 0.152214 0.496522
0.826411 -0.152965 0.167501
-0.132926 -0.492902 -0.480769
-0.160644 0.501015 -0.813271
0.488044 0.807306 0.173259
-0.799161 -0.151361 0.494431
-0.483707 0.814046 -0.170918
-0.826976 0.162828 0.182213
-0.141139 0.841527 0.168236
0.185955 0.822681 0.494639
0.167502 0.466943 -0.507233
-0.157557 0.818250 -0.501009
-0.829363 0.140993 -0.493201
0.484315 -0.821285 -0.131846
-0.498942 -0.809483 0.158980
-0.811505 0.473041 -0.174708
-0.164049 0.500119 0.478679
-0.485389 0.467321 -0.501888
-0.482868 0.812798 -0.168443
-0.482903 0.813899 -0.168149
-0.829988 -0.481201 0.164825
0.818833 0.466031 0.169541
0.481803 0.471200 -0.169316
0.163921 -0.488999 -0.848319
-0.487291 0.467540 -0.501328
0.456128 -0.482106 -0.498641
-0.452919 -0.434545 0.467797
-0.165713 -0.818679 0.469209
0.469116 -0.155993 0.496773
0.151011 0.802645 -0.173612
0.483230 -0.823384 -0.133505
0.860202 0.186560 -0.165296
0.810861 -0.483911 -0.138904
-0.494399 0.143187 -0.826870
-0.827402 0.164018 0.179429
0.168154 0.466657 -0.505765
0.473888 -0.465658 0.163595
0.808383 -0.484559 -0.139109
-0.165019 -0.817084 0.470149
-0.477910 -0.145476 0.814689
0.480754 0.471914 -0.169501
-0.829122 0.141146 -0.492220
0.482677 -0.821318 -0.133920
0.860762 0.186747 -0.163831
-0.477425 -0.145306 0.813451
0.155019 -0.831264 -0.471647
0.452664 -0.480154 -0.496824
0.494468 0.470587 0.498523
0.128371 -0.475939 0.448258
-0.500893 -0.479876 -0.146854
-0.191026 -0.186250 -0.819213
-0.140313 0.842007 0.169356
0.166709 -0.169346 0.821688
0.160466 0.503977 0.826032
-0.159283 0.817497 -0.500799
0.157240 -0.817037 0.169419
-0.170695 -0.820134 -0.147363
0.860487 0.186694 -0.161842
0.470017 -0.157524 0.496478
-0.502823 -0.481251 -0.146698
-0.499980 -0.480481 -0.146719
0.824107 -0.172247 -0.472325
-0.191192 -0.185666 -0.817114
0.157825 0.125503 -0.816905
0.485016 -0.822364 -0.133543
-0.171863 0.169230 0.840348
0.155580 -0.829065 -0.473248
0.167969 -0.170546 0.822013
0.469763 -0.156271 0.496654
-0.159970 0.500446 -0.813664
-0.501102 -0.480875 -0.146156
0.128459 -0.477870 0.447277
-0.170594 0.169354 0.840791
0.822583 -0.173356 -0.472252
-0.492408 0.482555 0.160156
0.167410 -0.168391 0.823009
-0.477243 0.178935 0.494416
0.826844 -0.153959 0.169147
0.482689 0.151452 -0.507616
-0.800852 -0.152458 0.495968
-0.802411 -0.150986 0.493440
-0.170784 0.171332 0.840593
0.469951 -0.157347 0.495759
-0.165920 -0.817825 0.470611
0.160582 0.502349 0.828422
-0.165721 -0.818287 0.469905
-0.169417 -0.819477 -0.145076
-0.134080 -0.493019 -0.480980
-0.165225 -0.816730 0.468764
0.127698 -0.477555 0.445683
-0.830013 -0.481327 0.166191
-0.133752 -0.493422 -0.478701
-0.159130 0.818098 -0.501271
-0.492601 0.485062 0.160930
0.469672 -0.157547 0.497470
-0.830348 0.141359 -0.495211
-0.830694 0.142095 -0.495272
-0.828212 0.164147 0.179737
0.164825 -0.488574 -0.847857
0.164787 -0.487283 -0.848833
0.491919 -0.162065 -0.855199
-0.810915 -0.168199 -0.159633
-0.158742 0.819393 -0.501464
0.496047 0.471705 0.498176
-0.190541 -0.184855 -0.815386
-0.171331 0.168914 0.838982
-0.489972 0.479985 0.159096
-0.475659 -0.144488 0.815345
0.495650 0.470714 0.497552
0.485124 -0.822292 -0.132272
0.451419 -0.481110 -0.495606
-0.492150 0.482503 0.159385
0.482567 -0.821213 -0.132693
-0.141527 0.841098 0.168453
0.821141 0.466584 0.172994
0.468690 -0.157025 0.494791
-0.454871 -0.433839 0.468904
0.497593 0.470723 0.496358
-0.453693 -0.433058 0.469340
-0.170723 0.168776 0.840900
-0.811170 0.473220 -0.174969
-0.172351 -0.475406 0.812067
-0.487176 0.466576 -0.501406
-0.495279 0.140644 -0.825276
-0.812802 0.474329 -0.175967
-0.161616 0.499983 -0.813446
0.815042 0.152332 0.497523
0.184988 0.822629 0.494460
-0.476611 -0.144073 0.816267
0.158157 0.125859 -0.818423
-0.476810 0.177112 0.495723
0.494937 0.471364 0.498335
0.166398 -0.170362 0.822910
-0.172182 -0.475192 0.809449
-0.158556 0.501832 -0.813201
-0.484845 0.814162 -0.168445
-0.501587 -0.812029 0.159002
0.158231 0.125725 -0.819307
0.814377 0.150017 0.495788
-0.479734 -0.142441 -0.481533
0.860725 0.184884 -0.163964
0.160815 0.503701 0.828104
0.454139 -0.482583 -0.495522
-0.165688 0.501781 0.479891
-0.171744 0.169706 0.839839
0.166396 -0.169838 0.821611
-0.832156 -0.482571 0.165826
-0.158858 0.819234 -0.501703
-0.141228 0.840215 0.168389
0.480072 0.472082 -0.170078
-0.170708 -0.820745 -0.147480
-0.502171 -0.480159 -0.145594
0.488683 0.806511 0.170606
0.155300 -0.829723 -0.473634
-0.170824 -0.821786 -0.147155
-0.479467 0.176974 0.493657
-0.453763 -0.434789 0.468346
0.480207 0.471425 -0.169910
0.183188 0.820627 0.495467
0.813022 0.150693 0.496275
-0.164210 0.499261 0.478714
-0.477543 -0.145199 0.817037
0.157509 -0.815676 0.168047
-0.827089 0.165131 0.182017
-0.831270 -0.481886 0.164584
-0.453578 -0.435164 0.467956
-0.495489 0.141983 -0.826406
0.859578 0.186230 -0.161802
-0.165208 0.501756 0.478479
0.127492 -0.476651 0.446737
0.489319 0.806195 0.171212
-0.190380 -0.185920 -0.816171
-0.141218 0.841032 0.169467
0.166343 -0.170855 0.821832
-0.482748 0.813521 -0.168743
-0.501778 -0.481814 -0.147020
-0.800518 -0.150765 0.494093
-0.827839 0.142188 -0.492310
0.157756 -0.814612 0.167997
0.469149 -0.158013 0.495242
0.485740 -0.821141 -0.133769
0.827700 -0.152828 0.168245
-0.493129 0.481354 0.160634
0.470993 -0.464872 0.161761
0.158535 -0.816750 0.168258
0.153810 0.801934 -0.172896
0.453540 -0.480563 -0.496067
-0.134323 -0.493051 -0.480501
-0.164798 0.500260 0.477514
0.154855 -0.830193 -0.474381
-0.479050 -0.142392 -0.480300
0.827056 -0.154471 0.169138
-0.494239 0.142607 -0.826531
0.169047 0.469270 -0.507302
0.492099 -0.159816 -0.853701
-0.483967 0.814159 -0.168284
0.166186 -0.170413 0.820975
-0.477187 0.177063 0.494350
