OFF
256 0 0
-0.341367 0.541801 0.705298
-0.005290 -0.824624 0.328709
0.345095 -0.143515 -0.715271
0.012660 0.522687 0.365170
-0.001340 -0.476708 -0.667790
0.690490 0.195665 -0.682980
0.687421 0.566985 -0.335396
-0.331560 -0.109166 0.652974
0.681292 -0.140358 0.345792
0.685329 0.204001 0.686215
-0.003520 -0.824592 0.328209
-0.322220 0.555301 0.021542
0.693248 0.535209 0.338356
-0.338607 0.540832 0.706175
-0.005250 0.538070 -0.341758
0.012863 0.520190 0.364035
-0.322655 0.557218 0.022142
-0.697087 -0.488382 -0.023463
-0.350001 -0.484912 -0.317239
-0.703962 -0.111611 -0.314836
-0.004082 0.537591 -0.339264
0.314868 -0.477110 0.332001
0.011652 0.521088 0.364482
0.329296 0.558046 -0.676819
-0.339536 0.541261 0.704300
-0.677896 0.562024 0.351306
-0.336765 -0.494937 0.314093
-0.339055 0.541812 0.706632
-0.011939 -0.466833 0.672570
0.330702 0.556600 -0.674145
-0.337309 -0.496104 0.315848
0.313097 -0.478310 0.332079
0.697505 0.206118 0.008293
-0.672750 0.547706 -0.335277
0.012601 0.219741 0.710061
0.340529 -0.821830 0.011169
-0.005264 -0.821864 0.328454
0.681331 -0.138493 0.344047
-0.677942 0.561697 0.350438
0.313411 -0.477498 0.333598
0.340605 -0.821436 0.010854
0.014240 0.222040 0.709242
0.012539 0.521528 0.362139
-0.328748 0.541682 -0.696769
0.341905 -0.820332 0.010886
0.690451 0.193519 -0.683013
0.333257 0.569825 0.007724
-0.675808 0.211605 0.662207
0.346433 -0.140736 -0.713814
-0.004322 0.536577 -0.338180
-0.699154 0.198551 -0.689077
0.347368 -0.142053 -0.716412
0.334640 -0.121233 0.681224
-0.351259 -0.485148 -0.314469
0.340416 -0.822487 0.008857
0.680596 -0.138296 0.343401
0.698824 0.206736 0.008098
0.686519 0.566673 -0.332496
0.341146 -0.821048 0.010092
0.001318 0.172632 -0.709847
-0.672119 0.547581 -0.334925
0.676179 -0.138810 0.344146
0.001204 0.173743 -0.712913
0.687919 -0.472147 0.008864
-0.000071 -0.477234 -0.667876
-0.699675 0.198669 -0.685775
0.329553 0.558778 -0.675146
0.693720 0.536154 0.338850
-0.329245 0.541284 -0.696459
-0.676242 0.210268 0.661541
0.314455 -0.477319 0.332956
0.349962 -0.488639 -0.313795
0.333725 0.570274 0.008768
-0.337791 -0.494163 0.313915
-0.004610 0.538516 -0.340740
0.693501 0.535758 0.339696
0.001827 0.172754 -0.711617
0.686015 0.567669 -0.332970
0.327388 0.557265 -0.675614
0.370875 0.542238 0.669861
0.692838 0.535793 0.339172
-0.011015 -0.469142 0.671106
-0.323703 0.554048 0.023349
-0.340719 0.540764 0.703682
-0.337721 0.542210 0.704740
0.684206 0.204106 0.686481
0.313931 -0.477713 0.332013
-0.704311 -0.113621 -0.316314
-0.653858 -0.116803 0.311464
0.349103 -0.488316 -0.313878
0.000534 0.174084 -0.709109
0.329213 0.557789 -0.676476
-0.330056 -0.109392 0.650497
0.688298 -0.469659 0.008361
-0.005860 0.537404 -0.338955
0.684491 0.204942 0.685495
0.680027 -0.137491 0.344703
-0.340035 0.541697 0.703839
0.351061 -0.487539 -0.312448
0.333542 0.569360 0.010261
-0.350879 -0.485451 -0.316856
0.370470 0.541782 0.668424
-0.000251 -0.478235 -0.668494
-0.322711 0.555499 0.023770
-0.675535 0.210377 0.661790
0.342587 -0.822574 0.009524
0.693254 0.537851 0.338366
0.336103 -0.120946 0.679166
-0.025286 -0.839907 -0.361248
-0.338898 0.541736 0.704271
-0.002041 -0.476735 -0.668599
-0.698127 0.197043 -0.685880
0.013084 0.521351 0.362585
0.328181 0.557472 -0.676352
-0.005159 0.536030 -0.339807
0.678095 -0.139655 0.343722
0.685311 0.205097 0.684829
0.334264 0.570009 0.009013
-0.351694 -0.153411 -0.666616
-0.002836 0.537350 -0.340072
0.372319 0.543330 0.670624
-0.322342 0.554243 0.023934
-0.701502 0.199561 -0.687098
-0.371616 -0.848776 -0.004301
-0.329361 0.541420 -0.696480
-0.675998 0.211792 0.663218
-0.696273 -0.486654 -0.023617
-0.329165 0.542438 -0.696179
-0.000742 -0.478376 -0.668609
-0.337439 -0.493894 0.315507
0.689282 0.194232 -0.682006
0.014238 0.520917 0.363387
-0.695519 -0.487614 -0.023576
-0.704229 -0.112238 -0.316030
0.001357 0.174218 -0.709760
0.333683 0.569295 0.008056
-0.010158 -0.467296 0.673403
-0.339877 0.542198 0.701437
0.327952 0.557437 -0.676810
0.328448 0.554986 -0.675640
0.001127 0.171532 -0.712115
-0.006341 0.537087 -0.338396
0.655074 -0.139218 -0.314341
0.329374 0.556748 -0.673943
0.014699 0.519888 0.364313
0.687851 0.567314 -0.334482
-0.672726 0.547705 -0.336873
0.334222 -0.120184 0.680771
0.687367 0.565916 -0.335932
-0.348082 -0.154870 -0.666576
0.654604 -0.138136 -0.312315
-0.370366 -0.849224 -0.005078
0.000315 0.173714 -0.710208
-0.328932 0.540890 -0.698314
-0.349312 -0.486797 -0.315923
-0.023634 -0.840185 -0.362361
0.341797 -0.822185 0.011724
-0.675134 0.210583 0.660888
-0.369289 -0.848720 -0.006425
0.371988 0.542796 0.669228
-0.704128 -0.111662 -0.314840
-0.024620 -0.840285 -0.361802
0.692516 0.535542 0.340029
0.690491 0.194830 -0.683529
0.349407 -0.487892 -0.314187
0.002165 0.173376 -0.710092
0.350203 -0.489358 -0.312813
0.694231 0.537413 0.339364
-0.702907 -0.111627 -0.316133
-0.339891 0.541446 0.703357
-0.013377 -0.470049 0.672233
0.332757 0.568898 0.009254
0.689372 -0.472509 0.008857
0.346588 -0.143765 -0.713289
0.372409 0.541751 0.670207
0.342530 -0.822033 0.010091
-0.003700 0.536316 -0.337878
-0.700090 0.197801 -0.685799
-0.697765 0.199353 -0.687224
0.335748 -0.121081 0.680481
-0.339187 0.541231 0.703868
0.656211 -0.140226 -0.311354
0.341199 -0.822488 0.009605
0.011912 0.221548 0.709867
-0.330596 -0.108993 0.652490
0.315992 -0.479659 0.332976
-0.674092 0.547526 -0.335720
0.370905 0.543220 0.671326
0.003604 0.173301 -0.711711
-0.024381 -0.840443 -0.361557
-0.323082 0.555654 0.023802
0.692397 0.536320 0.338532
-0.697775 -0.487543 -0.024766
-0.323020 0.556740 0.023217
0.696406 0.206570 0.006792
0.341073 -0.818603 0.008838
0.696445 0.205387 0.007740
0.695855 0.204569 0.006264
-0.339383 0.543121 0.705462
-0.676734 0.562384 0.350980
0.695777 0.205815 0.005725
-0.676166 0.561741 0.350367
-0.347875 -0.155920 -0.667952
0.692974 0.536750 0.338741
-0.369486 -0.846925 -0.005399
0.685994 0.204056 0.684530
0.015236 0.519982 0.361585
-0.000830 -0.476890 -0.668208
-0.011751 -0.468665 0.672510
0.685977 -0.471403 0.007968
-0.330780 -0.109519 0.653351
0.012338 0.218725 0.711472
0.655432 -0.138459 -0.313035
0.695188 0.205530 0.006073
-0.337075 -0.496250 0.313534
-0.701088 0.198723 -0.685140
0.346479 -0.142917 -0.715482
0.334836 -0.120738 0.681811
-0.005688 -0.823751 0.326834
0.685608 0.203378 0.683551
0.314747 -0.476608 0.331812
-0.025126 -0.840521 -0.358991
-0.656179 -0.116807 0.312845
-0.654623 -0.117519 0.312605
0.001655 0.173292 -0.709892
0.686705 0.204459 0.685994
-0.000385 0.173363 -0.709769
0.329039 0.556081 -0.676419
-0.655304 -0.117142 0.311999
-0.006953 -0.824281 0.327643
-0.337430 -0.495057 0.316019
0.010183 0.218969 0.709724
0.315613 -0.478657 0.329984
-0.704256 -0.112683 -0.314379
0.330661 0.558826 -0.674451
-0.672726 0.545610 -0.336614
-0.695464 -0.487118 -0.023819
-0.668622 0.231020 -0.015991
-0.350637 -0.155539 -0.667995
0.688782 0.193880 -0.684851
0.686128 0.566764 -0.334328
-0.674806 0.561653 0.352249
-0.675721 0.212268 0.662175
-0.001216 -0.476718 -0.668202
-0.024838 -0.838952 -0.360523
-0.700125 0.197981 -0.687717
-0.005648 0.535988 -0.338737
-0.677711 0.211822 0.661872
-0.004345 0.533412 -0.339472
0.351540 -0.487421 -0.313024
0.370219 0.541227 0.669313
0.687169 0.567035 -0.335067
0.344796 -0.139747 -0.714795
-0.330103 0.538666 -0.696988
0.684954 0.567444 -0.333610
0.371981 0.543819 0.669524
