OFF
256 0 0
-0.417165 -0.848678 -0.011270
0.862185 0.443895 0.002196
-0.844227 0.014166 -0.417983
-0.002339 0.849141 -0.435632
0.411458 0.000844 0.855016
-0.844351 0.014928 -0.418412
0.027649 0.425212 -0.844893
-0.423990 0.874792 -0.015031
0.433686 -0.416026 0.405303
0.009663 -0.428097 0.855081
0.429471 -0.006302 -0.825426
-0.417945 -0.848237 -0.009454
-0.012859 -0.877771 0.407470
0.858438 0.442378 0.001658
-0.020130 0.415371 0.866513
0.848543 -0.002085 0.431198
0.002578 0.864092 0.425883
0.440873 -0.872626 -0.005169
-0.413835 -0.402851 0.432044
0.438310 -0.871371 -0.003744
0.847974 -0.000846 -0.393453
0.026147 0.426953 -0.847670
0.846861 -0.002140 -0.393776
0.862945 0.441751 -0.000862
0.850722 -0.441187 0.009269
-0.862255 0.004317 0.406215
-0.845139 0.015677 -0.418392
0.429646 -0.004819 -0.823352
0.028672 0.426166 -0.846930
-0.415262 -0.849430 -0.010668
-0.845831 0.016278 -0.414512
0.026579 0.424652 -0.845162
0.859953 0.444036 -0.000846
0.859079 0.442406 -0.000782
-0.424275 0.876130 -0.017988
0.412236 -0.001657 0.853334
0.001036 0.862715 0.424964
-0.852290 -0.425805 -0.002097
0.396702 0.390596 0.389869
-0.839692 0.424168 -0.005472
-0.000947 0.850218 -0.435112
-0.018299 -0.407324 -0.862001
-0.404149 0.365997 -0.409312
-0.020379 0.415293 0.863123
0.410956 0.002007 0.854951
-0.855053 -0.426240 -0.004512
-0.426048 0.875335 -0.016104
-0.410743 0.413792 0.412728
-0.855528 -0.425735 -0.004478
-0.001387 0.862386 0.425432
0.412775 0.000886 0.858337
-0.016300 -0.407259 -0.861596
-0.404016 0.367519 -0.406284
-0.407442 0.367790 -0.407058
0.859740 0.444322 -0.002182
-0.016375 -0.407103 -0.860983
0.845245 -0.001200 -0.392689
-0.414702 -0.404235 0.430585
0.847089 -0.003317 0.430427
0.859232 0.442216 0.000138
-0.423442 -0.396901 -0.435904
0.439518 -0.871532 -0.003807
-0.423303 -0.397320 -0.436465
-0.432815 0.006057 0.861572
-0.423641 0.875717 -0.015688
0.030136 0.427381 -0.846699
0.447850 0.894424 0.016417
-0.013076 -0.874991 0.408209
-0.414054 -0.402924 0.431334
0.397130 0.391118 0.389620
-0.423072 0.874759 -0.016812
-0.018477 -0.874699 -0.426932
0.029214 0.426119 -0.845533
-0.844992 0.015019 -0.417301
-0.000290 0.861366 0.427329
-0.020714 0.417345 0.865483
-0.002739 0.848024 -0.433347
-0.000679 0.849966 -0.434324
-0.433829 0.006810 0.862423
0.845650 -0.004742 0.430087
0.009286 -0.426791 0.854429
-0.430042 0.009775 -0.867977
-0.003639 0.849174 -0.434393
-0.414156 -0.403564 0.431917
0.431584 -0.415628 0.406085
0.848403 -0.004651 0.432533
0.029221 0.427875 -0.845616
-0.862573 0.006766 0.406898
-0.844716 0.014047 -0.415433
0.429399 -0.004950 -0.826396
-0.845049 0.013322 -0.417326
0.853686 -0.442819 0.006838
-0.424312 0.874443 -0.016611
-0.001761 0.849179 -0.433944
-0.404539 0.367711 -0.407327
-0.423980 0.874238 -0.015982
-0.417384 -0.849266 -0.011168
0.852250 -0.441791 0.008074
0.845152 -0.001969 -0.393572
-0.422959 -0.397172 -0.437840
0.428152 -0.004672 -0.825777
0.399203 0.390854 0.388399
0.846626 -0.002389 -0.394143
0.027174 0.425650 -0.845423
0.859486 0.442934 -0.000200
0.448478 0.893373 0.013522
-0.020869 0.415407 0.863370
0.851957 -0.443290 0.007427
0.408114 -0.451287 -0.418467
0.408050 -0.450561 -0.418651
0.396743 0.390124 0.389545
0.445960 0.894336 0.016581
-0.019852 -0.875419 -0.425796
0.000767 0.861017 0.425553
-0.412312 0.414126 0.414489
0.431689 -0.416921 0.404784
-0.015142 -0.406130 -0.861869
-0.405077 0.366207 -0.408378
-0.417246 -0.850497 -0.011220
-0.423041 0.875211 -0.016044
-0.840496 0.422075 -0.004944
-0.411706 0.413212 0.413313
0.427514 -0.005513 -0.823566
-0.018715 -0.875337 -0.425421
0.861592 0.442007 0.000254
0.398240 0.389338 0.388914
0.846976 -0.003109 0.430057
-0.019855 0.416515 0.863829
0.854045 -0.441536 0.008552
-0.017589 -0.409551 -0.860533
-0.424647 0.874380 -0.017448
-0.016965 -0.406055 -0.860194
-0.014227 -0.875240 0.406966
0.427646 -0.006346 -0.825817
0.853711 -0.442990 0.007464
0.853629 -0.442284 0.006967
0.431630 -0.416141 0.405044
0.007749 -0.425500 0.855828
0.449071 0.893587 0.015615
0.852642 -0.442214 0.006519
-0.861290 0.006482 0.408948
-0.430843 0.009031 -0.867802
0.440044 -0.871495 -0.003575
0.421880 0.453295 -0.394365
0.028539 0.426781 -0.846428
-0.002043 0.849799 -0.433838
0.000797 0.861806 0.425069
0.432877 -0.417721 0.402519
0.852955 -0.443471 0.007470
0.003373 0.863315 0.425360
0.439599 -0.872547 -0.003706
0.852136 -0.443099 0.008710
-0.403919 0.368464 -0.406332
0.846155 -0.004352 0.429863
0.000473 0.862173 0.426968
-0.845476 0.014707 -0.418140
-0.422425 0.874922 -0.015070
-0.015503 -0.408811 -0.860713
0.410730 0.002021 0.854254
-0.433829 0.008408 0.862173
-0.002621 0.848878 -0.436418
-0.433260 0.008529 0.863908
0.411345 0.002753 0.855543
-0.414424 -0.405095 0.431951
-0.419355 -0.849799 -0.012822
0.396628 0.392550 0.388914
-0.838777 0.422835 -0.005481
-0.019780 0.415910 0.863096
-0.434365 0.007409 0.863368
-0.012550 -0.873950 0.408297
-0.423620 0.876371 -0.017419
0.440639 -0.873864 -0.007897
-0.838225 0.421955 -0.004220
-0.014227 -0.876151 0.407555
0.007597 -0.425625 0.856006
0.447178 0.895472 0.016363
-0.422146 -0.397360 -0.434998
-0.845475 0.014726 -0.416904
0.397655 0.390852 0.388430
-0.403516 0.367097 -0.406233
-0.411209 0.413582 0.414291
0.439478 -0.871450 -0.005177
-0.856039 -0.426562 -0.005216
0.447828 0.895739 0.016177
0.859471 0.440617 0.000620
0.396806 0.390947 0.390085
0.422617 0.453023 -0.394134
0.000498 0.864344 0.425136
0.847432 -0.001195 -0.393426
0.846630 -0.002169 -0.394756
0.026973 0.426362 -0.846369
-0.016557 -0.405670 -0.860344
-0.434343 0.007866 0.862920
0.441755 -0.871288 -0.003975
0.007379 -0.426791 0.855430
0.026526 0.425898 -0.845863
0.410341 -0.450100 -0.419018
-0.840208 0.423277 -0.006392
-0.430787 0.009887 -0.866379
0.446392 0.893508 0.016012
0.397803 0.390386 0.389286
0.860953 0.443295 -0.000111
0.422348 0.453722 -0.393738
0.847690 -0.003758 0.431614
0.434165 -0.416695 0.403862
0.432978 -0.416161 0.403686
0.852031 -0.441882 0.007615
0.846773 -0.004393 0.430106
0.853336 -0.441593 0.005072
-0.854771 -0.427448 -0.003566
0.845123 -0.001880 -0.394316
-0.847224 0.016255 -0.418573
-0.862795 0.005087 0.406495
-0.021405 0.417419 0.864541
0.446235 0.894592 0.016184
0.396990 0.391452 0.390644
-0.015096 -0.407075 -0.861207
-0.417801 -0.850082 -0.012387
0.008127 -0.425525 0.854405
-0.419475 -0.849582 -0.012867
-0.862980 0.006662 0.405850
0.845812 -0.001610 -0.392624
0.429545 -0.003205 -0.822699
-0.840012 0.423825 -0.006060
-0.855437 -0.425678 -0.002942
-0.433276 0.007413 0.862516
0.442107 -0.872312 -0.006130
-0.862768 0.003845 0.406236
-0.016486 -0.407708 -0.861873
-0.406192 0.365678 -0.408046
0.440023 -0.871662 -0.003970
-0.422131 -0.396691 -0.436876
-0.844273 0.015091 -0.416383
0.434036 -0.417188 0.404514
0.431184 -0.416077 0.405193
-0.412228 0.414016 0.412879
0.847707 -0.002416 0.428473
0.432271 -0.416758 0.405229
0.847640 -0.002451 0.427190
-0.003179 0.849089 -0.434018
0.433889 -0.417207 0.403681
-0.846436 0.013794 -0.417478
-0.013761 -0.874886 0.407833
-0.844833 0.016122 -0.419146
-0.405166 0.367352 -0.407361
-0.846171 0.013141 -0.417713
-0.405468 0.367441 -0.407195
0.028426 0.424287 -0.846789
0.421349 0.453562 -0.395885
0.860607 0.443185 0.001772
-0.000506 0.860608 0.427584
-0.017681 -0.875386 -0.426080
-0.422365 -0.397415 -0.436148
0.432702 -0.417809 0.405139
0.846329 -0.000262 -0.392732
0.846303 -0.001500 -0.393121
