OFF
256 0 0
-0.576362 0.003736 0.552965
-0.205248 -0.769652 -0.589639
-0.573561 0.749938 -0.184804
0.588149 0.373135 -0.187223
-0.575420 0.002347 0.553943
0.576512 -0.356943 0.589821
0.582789 0.787165 0.198966
0.609990 -0.379350 -0.183199
-0.199435 0.374055 0.566020
-0.185668 -0.004199 -0.566810
-0.598038 0.371805 0.187216
-0.562471 -0.024491 -0.188784
-0.597122 -0.387071 0.213174
0.606658 0.010384 -0.581827
0.574817 0.000991 0.199337
0.609327 -0.379407 -0.185025
0.193130 0.747956 -0.164990
-0.596615 -0.389081 0.213056
0.169792 0.011538 0.573392
-0.186573 -0.006123 -0.569920
0.576148 -0.354515 0.591748
0.582367 0.382017 0.540706
-0.185673 0.768443 0.184641
-0.206284 0.765192 -0.572760
-0.185617 -0.006823 -0.568488
-0.184754 0.768892 0.185464
0.583804 0.786697 0.200411
0.607082 0.010560 -0.582438
0.191893 0.747496 -0.162925
0.582767 0.785550 0.197000
-0.198152 0.376077 0.566373
0.576700 -0.356357 0.592206
0.210083 0.766712 0.559177
-0.200035 0.375713 0.564441
0.170809 0.012182 0.574753
0.607218 0.009311 -0.582185
0.203366 -0.762644 0.582315
0.582720 0.380924 0.540623
-0.583854 -0.755413 -0.202783
0.581715 0.787699 0.199210
0.587137 0.374192 -0.186896
0.583302 0.382263 0.540677
0.192311 -0.771605 -0.192667
-0.185277 0.768644 0.186731
-0.188512 -0.368040 0.551580
0.194644 -0.771917 -0.192202
0.191386 0.749165 -0.163003
-0.600265 -0.387033 0.212763
0.195424 -0.769890 -0.191955
-0.564879 -0.023673 -0.186282
-0.597654 0.370843 0.186862
-0.204995 -0.770292 -0.589792
-0.201631 -0.741028 0.188703
-0.200615 0.373806 0.566890
-0.183254 0.767962 0.186593
0.170368 0.010626 0.574626
-0.201408 0.373968 0.564369
0.545461 -0.764323 0.218980
-0.204419 -0.771124 -0.591376
-0.562206 -0.025344 -0.186026
-0.203329 -0.741145 0.186752
-0.199715 0.372372 0.565452
0.587421 0.372013 -0.186474
-0.200930 -0.742373 0.187943
0.170294 0.011941 0.575193
-0.597565 0.370376 0.185975
0.194557 -0.769840 -0.192005
-0.579601 0.369224 -0.555116
-0.573696 0.751414 -0.186536
-0.202071 -0.740565 0.187197
0.606500 0.011564 -0.582976
-0.562408 -0.023712 -0.188120
-0.598163 -0.388498 0.213672
-0.206346 -0.771834 -0.588024
0.574086 0.001072 0.199536
0.609245 -0.380854 -0.182181
-0.597479 0.371323 0.184943
0.575029 0.003677 0.199248
0.205301 0.380043 -0.568162
-0.580184 -0.384135 -0.581990
0.170984 0.010583 0.572998
-0.205823 -0.769859 -0.591571
-0.205999 -0.770270 -0.589696
-0.599321 0.372917 0.188497
0.193689 -0.771530 -0.191748
-0.184366 -0.005003 -0.569121
0.169554 0.011449 0.574069
-0.583773 -0.754687 -0.205112
0.587969 0.375235 -0.187431
0.178997 -0.391846 -0.582451
0.206210 0.379889 -0.567523
-0.188419 -0.369719 0.550736
-0.573128 0.750498 -0.182955
-0.574506 0.752137 -0.184744
0.583491 0.785225 0.199964
0.606778 0.011111 -0.581543
-0.578780 0.371270 -0.554604
-0.198290 0.373230 0.563621
0.209524 0.765674 0.559157
-0.577853 0.369211 -0.557729
-0.199110 0.375581 0.564768
-0.579630 -0.384337 -0.580255
-0.188281 -0.368927 0.553000
-0.598837 -0.387611 0.212381
0.575747 0.001677 0.199124
-0.198545 0.375685 0.565044
0.545734 -0.762725 0.220155
0.171217 0.012338 0.574994
0.584973 0.785446 0.201253
0.208590 0.767955 0.557798
-0.597041 -0.387284 0.213668
-0.183421 0.768574 0.185851
-0.597620 0.371321 0.185425
-0.208309 0.764671 -0.573170
-0.183652 -0.004067 -0.569987
0.583998 0.787287 0.199003
-0.204502 -0.770831 -0.590953
0.545519 -0.762648 0.219349
-0.185227 -0.006711 -0.568875
0.588101 0.373815 -0.186331
0.545753 -0.765307 0.219477
0.546708 -0.764011 0.219611
0.209640 0.767020 0.557618
0.179002 -0.391291 -0.582922
-0.585954 -0.755047 -0.204309
0.574014 0.001490 0.199472
-0.596739 -0.386477 0.214193
-0.597206 -0.388043 0.213165
-0.562771 -0.024854 -0.188251
0.170455 0.012206 0.574382
-0.184404 0.767341 0.185962
-0.578823 0.368506 -0.557180
0.587402 0.374001 -0.186492
-0.578887 -0.384570 -0.581149
0.586410 0.786907 0.199787
0.169682 0.011472 0.574059
-0.185700 -0.006746 -0.569622
0.578236 -0.357909 0.590623
-0.573801 0.751399 -0.183264
-0.185987 -0.369414 0.552479
0.583249 0.381219 0.537415
-0.205922 0.764955 -0.571100
-0.185465 -0.006499 -0.567068
-0.579811 0.369110 -0.555038
-0.579603 0.365775 -0.556881
0.585966 0.786789 0.199581
0.205922 0.379913 -0.568787
-0.578625 0.368538 -0.554638
0.192839 0.749394 -0.166434
0.177907 -0.392480 -0.583127
-0.183739 0.768533 0.187619
0.590266 0.370469 -0.185418
-0.598933 0.372276 0.185419
-0.183328 0.769005 0.186185
0.200715 -0.763504 0.582637
0.577743 -0.357613 0.591201
0.189991 0.749953 -0.163007
-0.585299 -0.755514 -0.205546
0.205927 0.380070 -0.566978
0.545626 -0.765692 0.219589
0.573038 0.001748 0.199049
0.210074 0.766001 0.560033
-0.202114 -0.743211 0.190188
0.201564 -0.761797 0.583886
0.191855 0.749372 -0.164975
-0.204491 -0.773890 -0.590044
-0.575153 0.003778 0.554083
0.605828 0.013776 -0.580765
-0.584020 -0.755361 -0.205511
0.179691 -0.390916 -0.584184
0.583256 0.381134 0.539333
0.583646 0.786813 0.200143
0.546563 -0.762561 0.218457
-0.576879 0.002154 0.553955
0.590927 0.374138 -0.185341
0.192886 -0.770602 -0.190380
-0.582765 -0.754607 -0.205645
0.209243 0.767771 0.557343
-0.202135 -0.741429 0.188817
0.192650 -0.771456 -0.192060
-0.199849 0.375741 0.564788
0.589399 0.373254 -0.187011
0.606933 0.011582 -0.583240
0.583173 0.788149 0.199938
-0.578740 0.369895 -0.554951
-0.579506 -0.385371 -0.582921
-0.580218 0.368897 -0.556193
0.583017 0.787595 0.197843
-0.563738 -0.024257 -0.188361
-0.203790 -0.770987 -0.588909
0.608028 0.011120 -0.582412
0.194202 -0.767987 -0.192209
-0.183423 -0.007620 -0.569473
0.201663 -0.763270 0.583946
0.577077 -0.356117 0.592182
0.171172 0.012183 0.574364
-0.598217 0.371929 0.187868
0.608889 -0.378931 -0.182872
-0.205324 -0.771992 -0.589211
0.585345 0.788909 0.198726
0.546105 -0.763126 0.218383
0.608719 -0.379935 -0.185315
0.587504 0.372809 -0.186986
0.204255 0.379761 -0.568835
0.200051 -0.762484 0.583925
-0.585171 -0.754961 -0.206832
0.171178 0.012344 0.573472
0.169055 0.012982 0.573119
-0.599819 0.370133 0.186200
0.606707 0.013401 -0.580256
0.609804 -0.381392 -0.184995
-0.578365 -0.385155 -0.581570
0.577829 -0.359065 0.593114
-0.184107 -0.005604 -0.567530
-0.198745 0.372987 0.565382
-0.560737 -0.024393 -0.186610
0.577784 -0.357575 0.591636
0.576739 -0.355598 0.592564
0.605252 0.010519 -0.583521
-0.183378 0.770026 0.185080
-0.206514 0.765733 -0.573117
0.209595 0.767326 0.559339
-0.572080 0.750646 -0.184803
-0.572888 0.752299 -0.184299
-0.577519 0.368391 -0.555002
0.193192 0.748909 -0.162459
0.610429 -0.381470 -0.185699
-0.579730 -0.384011 -0.582138
0.575068 0.003823 0.199653
-0.198005 0.374187 0.564106
-0.584833 -0.756474 -0.205371
-0.576343 0.004026 0.552772
-0.186558 -0.007550 -0.567288
-0.595858 -0.388074 0.213161
0.208818 0.768331 0.558579
0.579236 -0.356269 0.590718
0.586938 0.374025 -0.189181
-0.578363 -0.384820 -0.582030
-0.578879 -0.386038 -0.581591
-0.201243 -0.741240 0.187991
0.587914 0.372285 -0.188427
0.605699 0.011975 -0.583165
0.179204 -0.391659 -0.580153
-0.561770 -0.022880 -0.189158
0.207763 0.766348 0.557814
0.584321 0.786972 0.198554
-0.561821 -0.024443 -0.185671
-0.189631 -0.368914 0.551015
0.608846 -0.379131 -0.185472
-0.597907 -0.387530 0.213304
0.545311 -0.764273 0.217567
0.545880 -0.766050 0.219488
-0.199016 0.376000 0.566654
-0.184678 -0.005156 -0.568309
0.171279 0.011066 0.574349
-0.580793 -0.384263 -0.582365
