OFF
256 0 0
0.262895 -0.010872 -0.560577
-0.084898 0.686094 0.497837
0.265445 -0.720402 -0.567294
-0.078563 -0.340459 -0.562046
-0.435268 -0.344685 0.525044
-0.109677 0.683855 -0.186397
0.265023 -0.010064 -0.559610
-0.449960 -0.333635 -0.205541
-0.087155 0.336613 -0.540884
0.270673 -0.704193 0.135931
-0.450711 -0.334016 -0.205800
-0.429997 0.326784 -0.162677
0.268209 0.714100 0.146871
-0.094254 0.037910 0.502330
-0.078436 -0.339900 -0.562040
0.283812 0.348524 0.509852
-0.805701 -0.010135 0.534387
0.280959 0.347913 0.512707
0.263781 -0.718794 -0.568379
-0.075019 -0.715439 0.537866
0.626761 -0.727489 -0.196000
0.268710 0.712447 0.147461
0.282365 0.346174 0.510997
0.633800 0.377779 0.143487
0.634918 -0.016320 0.521338
-0.812297 0.379757 0.181791
-0.458215 0.355801 0.521430
0.627774 -0.727113 -0.195857
-0.805061 -0.008647 -0.180390
-0.818377 -0.367969 0.175709
0.654187 0.730307 -0.199380
0.264972 -0.010403 -0.561584
0.265738 -0.009821 -0.560522
0.264170 -0.720086 -0.569332
-0.080428 -0.339799 -0.560705
0.263664 -0.720073 -0.566470
0.266152 -0.011149 -0.559177
-0.440461 -0.703419 0.175395
0.629294 -0.348023 -0.530862
-0.087202 0.335431 -0.542794
-0.458953 0.355776 0.521615
0.631814 0.375391 0.144950
0.273923 -0.330268 0.520148
-0.806680 -0.009201 0.535230
-0.816817 -0.369113 0.174039
-0.430221 0.327766 -0.161091
-0.430132 0.326625 -0.161978
-0.817357 -0.369622 0.176572
-0.441273 -0.706041 0.175006
-0.458673 0.355365 0.520647
0.281903 0.346811 0.511026
0.281908 0.348468 0.510548
-0.457784 0.354799 0.519878
0.625154 -0.728463 -0.194203
0.655640 0.729092 -0.197997
-0.080779 -0.340228 -0.561749
-0.431692 0.703490 0.172506
0.264537 0.728980 -0.538580
0.654978 0.730039 -0.199204
-0.442150 -0.704873 0.175970
0.268672 0.714495 0.146387
0.625460 -0.726350 -0.195428
-0.806217 -0.010943 -0.179274
-0.108509 0.684758 -0.185019
0.630722 0.375814 0.145562
-0.807352 -0.010517 0.535195
-0.445499 -0.007630 -0.580460
0.635425 -0.013274 0.522463
-0.431058 0.704826 0.171954
0.268673 0.712372 0.147346
0.265810 0.727549 -0.542003
-0.441420 -0.705762 0.175508
-0.093318 0.039186 0.502343
0.283077 0.346464 0.508872
0.629461 -0.347556 -0.530406
-0.081707 -0.339013 -0.560609
0.620772 -0.368399 0.150679
-0.806343 -0.011761 0.532734
0.267229 0.712118 0.146794
0.635989 -0.014622 0.521525
-0.074655 -0.713916 0.535785
-0.806560 -0.011154 0.534749
0.649049 -0.003731 -0.204371
-0.807431 -0.012454 0.534899
-0.812496 0.382092 0.179456
0.269642 0.713066 0.146293
-0.458505 0.355570 0.522111
0.636785 -0.013454 0.523143
-0.085370 0.337376 -0.540398
0.633370 -0.015226 0.521877
-0.817140 -0.368911 0.174378
-0.098400 -0.705802 -0.193651
-0.098241 -0.704975 -0.194866
0.282914 0.346842 0.508666
0.268355 0.713346 0.146398
-0.109173 0.686226 -0.185277
0.620516 0.361122 -0.541445
-0.433060 0.704542 0.169756
0.633513 0.375833 0.144418
-0.099676 -0.707385 -0.192641
0.268199 0.714472 0.146677
-0.450865 -0.333184 -0.205718
0.263033 -0.010861 -0.559280
-0.431476 0.328378 -0.163008
0.265236 -0.010353 -0.560062
-0.095014 0.036558 0.502866
-0.436001 -0.342307 0.523044
-0.811175 0.380018 0.179976
-0.445800 -0.008732 -0.579112
0.265880 0.729403 -0.540509
-0.078516 -0.340721 -0.561841
0.265543 -0.010172 -0.562639
-0.087871 0.336687 -0.541309
-0.441103 -0.705014 0.175704
0.266435 0.728348 -0.541609
-0.072865 -0.714242 0.534542
0.270548 -0.705103 0.135993
-0.098774 -0.705746 -0.194111
-0.429300 0.326245 -0.160595
-0.431332 0.705133 0.172184
-0.441851 -0.704116 0.177089
0.282352 0.347787 0.509888
-0.816902 -0.367972 0.173449
-0.450741 -0.333159 -0.204879
-0.432511 0.704062 0.170595
0.265932 0.727094 -0.540468
0.621020 -0.369228 0.150726
0.626623 -0.726223 -0.195266
-0.806922 -0.011759 0.533769
0.619292 -0.367289 0.147976
0.627947 -0.348790 -0.533524
0.269112 0.728426 -0.540263
-0.816848 -0.368494 0.176391
-0.107484 0.686433 -0.184922
0.266301 0.728602 -0.539878
-0.452224 -0.333382 -0.205498
-0.458651 0.353502 0.521009
-0.457993 0.354987 0.520402
0.626674 -0.727884 -0.196412
0.620838 0.361441 -0.541440
-0.433602 0.704871 0.170509
0.280306 0.347223 0.508879
-0.805582 -0.011072 0.533861
0.651122 -0.004201 -0.206100
0.628317 -0.727021 -0.197156
-0.436897 -0.344871 0.523644
-0.451778 -0.334619 -0.203746
0.635688 -0.015258 0.521096
-0.085115 0.686236 0.499539
-0.444649 -0.008652 -0.581044
-0.098379 -0.706368 -0.193657
-0.098413 -0.705532 -0.194280
-0.107356 0.684685 -0.185907
-0.811069 0.381964 0.181122
0.619850 -0.370061 0.150046
-0.804255 -0.012204 0.534255
-0.082598 0.685434 0.497240
0.265283 -0.721216 -0.568820
0.622100 -0.369924 0.149016
-0.082260 0.685949 0.499318
-0.434487 -0.342838 0.523149
0.621815 -0.368566 0.149461
-0.078683 -0.338138 -0.561590
0.637163 -0.013435 0.520843
-0.081726 0.687964 0.499632
-0.816444 -0.368545 0.174444
-0.804520 -0.009064 -0.179849
-0.079404 -0.340631 -0.562717
0.635096 -0.015754 0.524293
-0.811926 0.382090 0.179683
-0.080164 -0.341221 -0.562711
0.618708 0.360923 -0.541425
0.286173 0.348692 0.508585
0.270117 -0.704310 0.135775
-0.097149 -0.706407 -0.191628
0.628966 -0.348429 -0.531650
-0.075029 -0.714178 0.535567
-0.073657 -0.715697 0.537345
-0.806375 -0.010853 0.535558
-0.459217 0.353438 0.518823
0.265412 -0.009996 -0.560117
0.621363 0.361374 -0.541029
-0.088209 0.335976 -0.542757
-0.106832 0.684129 -0.184235
-0.107877 0.683099 -0.187463
-0.810998 0.379382 0.181361
0.653121 0.731299 -0.196626
-0.086003 0.335534 -0.539789
-0.074499 -0.715405 0.536527
-0.441901 -0.704389 0.174606
-0.805785 -0.011294 0.533967
0.282895 0.348718 0.510601
-0.817645 -0.370399 0.175752
-0.442226 -0.706498 0.176018
-0.447002 -0.009912 -0.581123
0.262785 -0.721326 -0.569215
-0.816597 -0.368080 0.173712
0.273135 -0.331235 0.521346
-0.437951 -0.345397 0.523084
-0.434725 -0.342959 0.523466
0.623152 0.361347 -0.542144
0.620804 -0.369512 0.148812
-0.440026 -0.703748 0.175400
0.266716 -0.010055 -0.559900
-0.436679 -0.343231 0.522675
0.650920 -0.003403 -0.205715
-0.081012 -0.340100 -0.561800
-0.080296 -0.340668 -0.561176
-0.073831 -0.716337 0.534737
0.265373 -0.719168 -0.569743
0.282759 0.347959 0.510035
-0.806813 -0.010825 0.535121
0.272508 -0.330926 0.521410
0.629958 -0.727596 -0.195259
-0.811627 0.379025 0.179621
-0.098224 -0.705602 -0.192909
0.628817 -0.349384 -0.531221
-0.097349 -0.706210 -0.193712
0.620588 -0.369025 0.148367
-0.441086 -0.703778 0.174793
-0.074573 -0.713727 0.534016
-0.440381 -0.705769 0.175531
-0.804287 -0.010332 -0.179618
0.267606 0.728143 -0.539679
-0.805460 -0.010911 0.535195
-0.806739 -0.012967 0.533702
0.622093 0.360279 -0.541928
0.264549 -0.718867 -0.566167
-0.446088 -0.010716 -0.579948
-0.432560 0.704201 0.172098
-0.083204 0.686049 0.499743
-0.107287 0.685821 -0.184421
-0.430146 0.328672 -0.163953
0.625948 -0.728644 -0.193724
-0.079735 -0.341121 -0.563674
0.650705 -0.003695 -0.206424
-0.431336 0.325944 -0.163186
-0.094814 0.037314 0.502477
0.270415 -0.702667 0.136010
0.634355 -0.015021 0.521881
-0.108512 0.687118 -0.182785
-0.087529 0.335884 -0.542276
-0.805930 -0.009483 0.534945
-0.097414 -0.704419 -0.192611
-0.435018 -0.343037 0.524904
-0.815714 -0.369953 0.177219
-0.087930 0.336488 -0.541062
-0.451744 -0.334884 -0.204991
-0.806318 -0.010565 0.532460
0.270784 -0.704615 0.135748
0.274494 -0.330738 0.520695
-0.073636 -0.716350 0.535517
0.635658 -0.014031 0.521577
0.620031 -0.370170 0.149968
-0.080687 -0.340720 -0.561832
0.264778 0.729707 -0.538233
