OFF
256 0 0
-0.301065 0.655112 0.660380
0.387171 -0.020614 -0.719994
-0.672501 0.293866 -0.042483
0.395244 0.668386 -0.033238
-0.306779 -0.742185 -0.045695
0.403473 0.313935 -0.379877
-0.297125 0.295354 -0.405673
0.047353 -0.378434 -0.760903
-0.305032 -0.038874 -0.765482
-0.304493 0.643182 -0.033838
-0.305684 -0.742113 -0.045685
-0.302750 0.651658 0.660330
0.030966 0.666833 -0.368248
0.395264 0.668509 -0.034765
0.391231 -0.767216 -0.038385
0.736006 -0.050406 -0.377330
0.043113 -0.385756 0.669063
-0.674193 0.309207 0.668928
0.742699 -0.424954 -0.044439
-0.303365 -0.039104 -0.766193
0.046186 0.326815 0.668910
0.386891 -0.021801 -0.720531
0.040585 -0.762645 -0.418193
0.385576 -0.021167 -0.722086
-0.310839 -0.030396 0.656053
0.388910 -0.765961 -0.037552
-0.662678 -0.043092 0.309093
-0.307030 0.642384 -0.033055
-0.308219 0.643341 -0.033372
0.386991 -0.053967 0.670465
0.391304 -0.766389 -0.037536
0.397063 0.668576 -0.034090
0.383953 -0.053847 0.669903
-0.314655 -0.384916 0.307801
0.032773 -0.744192 0.298034
0.047369 -0.377555 -0.758728
0.388158 -0.052860 0.670339
0.386632 -0.054184 0.670891
-0.296385 -0.376523 -0.400154
-0.663121 -0.044064 0.307447
0.051293 0.307842 -0.755465
-0.296165 -0.378172 -0.400751
0.045742 0.326849 0.668083
-0.303990 0.643571 -0.031781
-0.681248 -0.387127 -0.053707
0.046021 0.327126 0.667243
-0.675455 0.309907 0.669799
0.050670 0.306751 -0.756193
0.392805 -0.767559 -0.037332
0.404794 0.313452 -0.378584
0.391980 -0.766804 -0.037588
0.744801 -0.424616 -0.042279
-0.302642 -0.039511 -0.765104
-0.307984 -0.031340 0.657489
0.051091 0.306799 -0.756615
0.045159 -0.384404 0.670135
0.386766 -0.053525 0.669756
-0.681450 -0.386602 -0.053069
-0.682859 -0.387584 -0.053492
0.741828 -0.424332 -0.045089
0.048682 -0.379021 -0.758526
0.399271 0.300534 0.302717
0.051711 0.306826 -0.756312
-0.309532 -0.030149 0.656272
0.761353 0.337817 -0.029439
-0.313580 -0.385972 0.309402
0.042086 -0.762337 -0.419291
0.391693 -0.765400 -0.037993
-0.295917 -0.379711 -0.400401
0.045175 0.326151 0.667422
-0.662359 -0.045030 0.309265
-0.675402 0.310339 0.669970
-0.304277 0.641840 -0.033396
0.033333 0.666245 0.305814
-0.307782 -0.030807 0.656576
0.040803 -0.760560 -0.417779
0.753896 -0.065018 0.306566
0.394663 0.668616 -0.032992
0.735498 -0.050087 -0.374912
-0.683738 -0.388710 -0.052939
-0.306717 -0.032454 0.656015
0.393564 0.670300 -0.034891
0.041437 -0.762438 -0.418672
0.403262 0.315392 -0.380349
0.396089 0.671282 -0.034581
0.358751 -0.381918 -0.363049
0.388338 -0.053056 0.670460
0.356407 -0.379095 -0.363455
0.402360 0.315005 -0.381090
0.385285 -0.378079 0.290177
0.399546 0.301565 0.300400
0.388838 -0.021309 -0.718939
0.754611 -0.064997 0.307198
-0.295999 0.296642 -0.403577
-0.307160 -0.744510 -0.046448
-0.305851 -0.743894 -0.045689
0.033921 0.664879 0.306577
0.385461 -0.055048 0.669022
-0.304090 -0.040914 -0.765208
0.355661 -0.378681 -0.362333
0.035274 -0.745572 0.296139
0.759054 0.337914 -0.028448
-0.672415 0.296492 -0.041661
0.051622 0.307570 -0.756004
-0.656086 -0.031205 -0.408328
0.030662 0.665185 -0.368794
-0.301162 0.651959 0.659486
0.386337 -0.052632 0.670619
-0.305709 0.643592 -0.032169
-0.306687 0.643467 -0.032168
-0.306645 -0.741411 -0.044012
-0.643566 0.664942 0.320403
-0.300330 0.652655 0.661406
0.742105 -0.425317 -0.045315
0.035307 0.666275 0.303979
-0.664411 -0.046380 0.309245
0.049896 -0.377720 -0.760695
0.053526 0.308486 -0.755478
0.743564 -0.423320 -0.044457
-0.306981 -0.742631 -0.045761
-0.303825 -0.039990 -0.764661
0.398509 0.302755 0.301154
-0.294770 0.297056 -0.404952
-0.295384 -0.379644 -0.398552
-0.656222 -0.032788 -0.407688
-0.307026 -0.742979 -0.044446
0.051020 0.309431 -0.757230
0.404880 0.314121 -0.379700
0.396458 0.668723 -0.033799
-0.656233 -0.033366 -0.407682
-0.673419 0.311472 0.669714
0.398629 0.302097 0.303324
0.032833 0.664737 -0.370199
0.041920 -0.761552 -0.418790
-0.663843 -0.043960 0.308900
0.044063 -0.385446 0.669392
0.384793 -0.377754 0.291950
0.756931 0.335662 -0.029157
0.043986 -0.386829 0.670388
-0.295089 0.296979 -0.405981
0.761519 0.335447 -0.029328
-0.307336 -0.743196 -0.044672
-0.646443 0.662593 0.321685
0.385166 -0.021455 -0.719924
-0.682135 -0.388065 -0.052572
-0.644082 0.665148 0.322296
0.044176 -0.382328 0.669873
0.397966 0.303830 0.303642
-0.308700 -0.032831 0.656141
-0.305012 -0.040607 -0.765838
0.042186 -0.760607 -0.417839
0.040317 -0.760374 -0.419623
0.752705 -0.064394 0.304030
-0.294908 -0.378137 -0.400112
-0.645780 0.664165 0.320817
-0.296557 0.296368 -0.403535
0.403569 0.315284 -0.378748
0.753268 -0.065215 0.307043
-0.645595 0.664977 0.322341
-0.296995 0.296536 -0.404149
-0.310643 -0.031775 0.654844
0.397595 0.302051 0.300137
0.386783 -0.378211 0.292160
-0.663934 -0.044688 0.308690
-0.672980 0.295894 -0.039332
0.396595 0.667883 -0.034029
-0.301291 0.651741 0.660257
0.753639 -0.063004 0.308105
0.049324 -0.377123 -0.759699
-0.645429 0.662482 0.321843
0.041919 -0.761946 -0.418826
0.754877 -0.063648 0.307358
0.742435 -0.424749 -0.044146
0.052049 0.308444 -0.756257
-0.305668 0.643714 -0.031927
0.755365 -0.063679 0.305545
0.383950 -0.379032 0.292074
-0.299964 0.651280 0.659889
-0.301649 0.651617 0.661086
0.043033 -0.385942 0.670230
0.035689 -0.746028 0.298187
0.385458 -0.378764 0.292311
-0.306986 0.643003 -0.031445
0.386703 -0.020905 -0.718947
-0.664821 -0.044162 0.307742
-0.295390 0.296298 -0.405313
-0.675689 0.312379 0.669327
-0.680842 -0.387117 -0.053139
-0.305125 -0.039011 -0.765635
0.044775 -0.386196 0.668965
0.355482 -0.378566 -0.363720
-0.682991 -0.387589 -0.051680
-0.664547 -0.044979 0.308449
0.736540 -0.050536 -0.376720
0.050856 0.306882 -0.756683
0.743779 -0.423015 -0.045288
-0.664024 -0.044059 0.307579
-0.306716 0.644715 -0.032601
-0.296872 -0.378322 -0.402918
-0.300986 0.651849 0.660021
0.395905 0.669097 -0.034279
-0.308134 -0.031693 0.656259
-0.304669 -0.038702 -0.765701
0.396885 0.668779 -0.034646
0.031700 0.665530 -0.369740
-0.301631 0.651226 0.660103
-0.296027 -0.378376 -0.400090
0.754757 -0.063510 0.306541
-0.304719 -0.040280 -0.766471
-0.305792 -0.039258 -0.766360
-0.646222 0.663879 0.322193
0.734221 -0.051510 -0.376155
0.031240 0.666530 -0.369609
-0.674533 0.309747 0.670333
-0.681801 -0.388328 -0.053239
0.387727 -0.020848 -0.720622
0.753100 -0.064542 0.305824
0.735557 -0.051782 -0.376472
0.048187 -0.378276 -0.759680
-0.295777 0.296192 -0.406402
-0.300695 0.649119 0.658963
0.045381 0.326568 0.669973
0.762065 0.338370 -0.026927
-0.681218 -0.387889 -0.054096
0.032535 0.665427 -0.370223
0.396535 0.302954 0.301824
0.759889 0.336052 -0.027331
0.386250 -0.020173 -0.719852
0.383445 -0.377604 0.292622
0.386788 -0.053917 0.670791
0.386128 -0.023242 -0.720339
0.045376 0.325076 0.671045
-0.674722 0.312134 0.670179
-0.305699 0.643775 -0.032493
-0.299370 0.650094 0.660131
0.042093 -0.760590 -0.419577
0.761157 0.336995 -0.026042
-0.645739 0.664004 0.320938
0.735481 -0.050606 -0.376247
-0.297401 0.296020 -0.404709
0.735778 -0.050606 -0.376655
-0.661149 -0.044042 0.308181
-0.675465 0.310290 0.668420
0.046342 0.330363 0.669512
-0.681474 -0.389775 -0.054005
0.041703 -0.762354 -0.419720
0.035451 -0.745344 0.297177
0.386822 -0.021389 -0.721471
-0.647343 0.664303 0.322580
0.043508 -0.761985 -0.420309
-0.308734 -0.742790 -0.045747
-0.307069 -0.743866 -0.046777
-0.314948 -0.387894 0.309868
0.761204 0.339290 -0.027616
-0.681265 -0.386355 -0.054959
-0.655679 -0.032260 -0.406981
