OFF
256 0 0
0.131360 -0.686204 -0.319845
0.130150 -0.687744 -0.319276
0.497143 0.413894 0.415223
-0.237658 0.413404 -0.322381
0.498235 0.780195 0.045339
-0.237349 -0.687391 0.047696
-0.236304 -0.688941 -0.689381
0.496226 0.416330 0.416050
0.130355 0.414713 -0.687548
0.497078 0.049562 0.780884
-0.602717 0.048438 0.413827
-0.237276 0.048912 -0.686503
0.498810 -0.318113 0.413342
0.132158 -0.321634 -0.686165
0.129905 -0.685384 -0.320506
-0.604953 0.047767 -0.319132
0.129896 -0.687987 0.414797
-0.237208 0.046727 -0.686221
-0.604263 -0.687150 -0.319574
-0.235425 0.782025 0.048525
-0.604315 -0.318655 0.047378
0.498239 0.413820 0.413676
-0.606134 -0.686671 -0.319019
0.128862 0.782670 -0.318993
-0.237175 -0.320767 0.412632
-0.605877 -0.320029 -0.686537
0.130572 -0.318264 -0.688053
-0.236512 -0.319557 0.412426
-0.237117 0.415254 -0.318459
0.497884 0.782163 0.047621
-0.604518 0.048174 0.415233
0.131528 0.414226 -0.686826
-0.236401 0.047855 0.781396
-0.236566 -0.685932 0.048211
0.130829 0.781085 -0.318587
0.132016 0.780288 -0.319708
0.496732 0.780462 0.048822
0.497481 -0.319170 0.414690
-0.238000 -0.687220 0.047251
-0.603466 -0.319358 -0.686136
-0.235498 -0.687384 0.046384
-0.237688 0.047911 0.782035
-0.236145 -0.687711 -0.686806
0.497158 0.413975 0.415672
0.130769 -0.686964 -0.320654
-0.236132 0.415543 -0.319998
0.496298 0.414642 -0.320260
0.497253 0.415017 0.415349
0.497287 0.044837 0.782892
-0.602356 0.049272 0.414616
-0.605541 0.047281 -0.320045
-0.604172 0.414482 0.045680
0.131604 -0.687890 -0.320415
0.131947 -0.319440 0.783298
-0.602237 -0.687754 -0.318718
0.129478 -0.319599 0.779905
0.129203 0.416154 0.782200
0.497618 -0.320319 0.413510
0.129682 -0.320925 0.781803
0.497584 -0.687419 0.048807
-0.235150 -0.318764 0.415830
-0.238141 -0.318671 0.413221
-0.236168 -0.687299 0.049694
0.495795 -0.319046 -0.320250
0.496347 -0.318613 0.413570
0.496926 0.413715 -0.320372
0.498075 0.048148 -0.688022
0.498726 0.048772 -0.686411
-0.237144 0.415364 -0.321888
-0.604265 -0.320526 0.047415
-0.603890 0.415012 0.048433
-0.238688 -0.686042 -0.686967
-0.236619 -0.320044 0.414990
-0.603059 -0.319013 0.048361
-0.236238 -0.687278 -0.685571
-0.603329 -0.685875 -0.321706
-0.236477 0.415013 -0.320574
0.498263 0.047406 0.781115
0.129859 -0.687811 -0.319868
0.130892 0.413753 -0.687365
-0.236694 -0.319014 0.411662
0.131312 -0.319642 0.781369
0.499570 -0.686356 0.046604
0.129555 0.414991 0.782764
0.130935 0.414573 -0.685751
-0.236084 -0.687236 0.046636
0.498146 -0.321117 0.412324
0.132553 0.413173 -0.688249
0.130210 0.781016 -0.319279
0.127507 -0.319022 0.783040
0.129242 -0.319117 -0.687835
-0.603523 -0.686616 -0.320473
0.497777 -0.319979 -0.319667
0.497872 -0.319297 0.415788
-0.604899 -0.686323 -0.319761
0.130630 -0.687101 0.413667
0.496386 0.781933 0.047181
-0.605052 -0.686689 -0.320529
0.129865 0.414135 0.782194
-0.604047 -0.320104 0.047900
0.497326 0.047214 0.048941
-0.238221 0.415388 0.414523
0.130924 -0.318752 0.782787
0.130328 0.782549 -0.319053
0.131959 -0.319101 -0.687216
0.497274 0.048217 0.048207
0.129699 0.781818 -0.320328
0.498192 -0.318658 -0.318447
-0.604439 0.046762 0.415758
-0.602705 0.047089 -0.318702
0.129573 -0.686724 -0.320250
-0.237204 -0.687197 -0.687098
-0.234816 -0.318993 0.413644
-0.603380 -0.318231 -0.686762
0.497382 0.414112 0.415298
-0.603749 0.046817 0.413385
-0.604662 -0.688497 -0.320872
-0.238185 -0.319456 0.415520
-0.602631 -0.686856 -0.319050
0.129585 0.779704 -0.319115
-0.602576 -0.685643 -0.321084
-0.235632 0.413074 -0.317885
-0.604377 0.415126 0.046473
0.130350 -0.319253 -0.686214
-0.605427 0.047526 -0.319298
-0.606547 0.414216 0.047671
0.497593 0.045607 0.782865
0.497431 0.046840 -0.687541
-0.602712 -0.319586 -0.689062
-0.236746 0.780337 0.048354
-0.236802 0.414657 0.416042
-0.605191 0.416356 0.045805
-0.603659 0.415695 0.046221
-0.238266 0.783277 0.046344
-0.234440 -0.318846 0.414837
0.131190 -0.687236 -0.321462
0.132511 -0.320101 -0.685608
-0.236968 -0.687887 0.046726
0.130274 -0.685358 -0.319738
0.496507 0.048745 0.047525
0.129318 0.782720 -0.320049
-0.236474 0.046282 0.781594
-0.237120 0.046782 0.780121
0.129520 0.414270 -0.686473
0.131050 0.784278 0.413529
-0.237684 -0.319129 0.414631
0.495854 -0.687272 0.047108
-0.236382 -0.321817 0.413386
0.497178 -0.318618 -0.319160
0.496279 0.413826 0.415205
0.128988 0.415321 -0.686699
-0.603648 0.413831 0.047221
-0.236719 0.414552 -0.320655
0.495707 0.783116 0.046671
0.498624 0.414032 0.415360
-0.236289 -0.686659 0.048016
0.498227 -0.321657 -0.318147
-0.234796 -0.685900 -0.685209
0.130064 -0.687756 0.414418
-0.235918 0.048339 0.782769
0.129480 -0.319207 0.780689
0.498327 -0.320946 0.415068
0.497924 -0.319561 0.414353
-0.603069 -0.686560 -0.318244
-0.235623 -0.687060 -0.687071
-0.236890 0.415385 -0.318415
-0.237593 -0.688022 0.048229
-0.235464 0.047209 -0.687315
-0.238638 -0.320667 0.414980
0.132081 -0.686139 -0.319336
0.497764 0.048196 0.780693
0.129969 0.413377 0.782559
0.129942 -0.319399 -0.686857
-0.604281 0.413392 0.046696
0.498124 0.044727 0.780006
0.129255 0.780987 -0.321368
0.497149 0.413314 0.415193
0.131504 0.782387 -0.319990
0.497617 0.046342 0.046577
0.498128 -0.686476 0.047281
-0.603893 0.413606 0.048503
-0.236371 0.047809 -0.688198
-0.603094 -0.685995 -0.320189
0.129560 -0.318711 -0.688187
0.497150 -0.319964 -0.320466
0.129865 0.414862 0.783764
-0.236436 0.413961 0.415175
0.496651 0.781686 0.046556
0.131428 0.781989 0.415193
0.497023 0.780076 0.048042
0.130203 -0.685532 0.416128
0.130260 0.415976 0.780723
-0.603205 -0.319763 -0.686415
0.497229 0.047809 0.047548
-0.604236 -0.320165 -0.687649
0.131787 0.415239 -0.686371
-0.237722 0.416725 0.414092
-0.237091 -0.687719 0.047642
-0.603205 -0.319457 0.046146
0.496723 0.415730 0.415332
-0.235044 0.415717 -0.319016
0.496069 -0.687260 0.046875
0.129043 0.415022 0.781525
0.131204 -0.687712 -0.319230
0.496844 -0.320500 -0.319076
0.497658 0.047972 0.047821
0.129709 0.782181 0.414741
-0.236523 0.414685 -0.321171
0.494877 0.048360 0.781853
-0.602628 -0.686015 -0.321523
-0.237580 -0.321105 0.411778
0.130113 0.782243 -0.320062
-0.236325 0.782924 0.047915
0.130960 -0.686366 -0.319326
-0.236433 0.046944 -0.687815
-0.238319 -0.319574 0.414216
-0.236235 -0.688197 -0.686672
0.498273 -0.319944 0.415915
0.496962 0.046475 -0.685403
-0.238225 0.415491 0.414920
0.130116 0.781116 0.414576
0.497258 0.412067 0.412738
-0.603526 0.047635 0.411849
0.130075 -0.320825 -0.685714
0.497986 -0.686839 0.047068
-0.236509 -0.320242 0.414658
0.497447 0.782086 0.047390
-0.602121 -0.321397 -0.687383
-0.237654 0.415315 0.416396
-0.237505 -0.320542 0.415737
0.130511 0.781732 -0.320440
-0.605188 0.046359 0.414914
-0.603820 0.045509 -0.320200
0.130564 0.782361 -0.320168
-0.235320 -0.686359 -0.686484
-0.604031 -0.318090 0.046848
0.497853 0.047574 -0.686934
0.131098 0.413614 -0.687467
-0.236854 0.415157 0.414902
0.498780 0.782085 0.049541
0.497998 -0.318969 0.414801
-0.604928 -0.320898 -0.688459
0.494663 -0.318058 0.414914
0.497541 0.414706 0.413781
0.131628 -0.319449 -0.685875
-0.605411 -0.686630 -0.319270
0.496849 0.046393 0.782773
-0.603139 -0.686546 -0.320386
-0.604527 0.047332 0.414439
0.499033 -0.320020 0.414507
-0.604214 -0.321738 0.047130
-0.238253 -0.683666 0.046673
-0.603526 -0.319844 0.047175
-0.605497 -0.320592 -0.685339
-0.604822 0.046400 0.414444
0.130834 0.415258 -0.686762
