OFF
256 0 0
-0.533250 0.639603 0.022622
0.200436 -0.844100 0.003440
-0.155953 -0.456461 0.713208
0.585544 0.661210 -0.358222
0.557523 -0.439109 -0.008626
0.561208 -0.078866 -0.354525
-0.533792 0.642366 0.020624
-0.165418 0.649454 -0.372852
0.201651 0.659550 -0.019439
-0.527230 -0.468623 -0.352402
0.221185 0.655442 -0.722738
0.576877 0.301024 -0.754313
-0.156588 0.302256 -0.760206
-0.168285 -0.471734 -0.726153
-0.544851 0.280627 -0.351639
-0.158279 0.284213 0.726448
-0.157248 0.649401 0.378488
-0.543494 0.273096 0.375419
-0.171007 -0.823688 0.362784
-0.522784 -0.108710 0.040130
0.183002 -0.095591 -0.748650
-0.533129 0.642193 0.021996
-0.543295 -0.838132 0.008943
-0.167728 -0.473649 -0.727360
-0.154300 -0.455027 0.715065
-0.156229 0.650375 0.376258
-0.172333 -0.823976 0.363124
-0.557201 -0.095775 0.752768
-0.544234 0.279655 -0.352294
-0.561130 -0.488190 0.390807
-0.545303 0.269494 0.374186
-0.533091 0.639090 0.024107
-0.545585 0.269971 0.375554
-0.545184 0.267715 0.374488
-0.166450 -0.470847 -0.727567
0.225274 0.656145 -0.721118
0.222580 0.652672 -0.721107
0.532907 0.289177 0.736467
-0.157362 0.653770 0.377931
0.222994 0.654984 -0.723586
-0.172531 -0.823826 0.360552
-0.543819 -0.836986 0.010641
-0.546086 0.280029 -0.352133
-0.170526 -0.825514 0.362390
-0.529827 -0.081271 -0.736309
0.555679 -0.441863 -0.008726
-0.544072 -0.839750 0.010075
-0.545829 0.281352 -0.352146
0.587188 0.660647 -0.360382
-0.544261 -0.838034 0.010202
-0.158562 0.285196 0.724177
0.201227 0.657622 -0.020481
-0.534259 0.639365 0.021810
0.556970 -0.440057 -0.010182
0.190983 -0.463072 0.333575
-0.164077 0.650826 -0.373326
0.201578 0.658992 -0.021596
-0.164876 0.649763 -0.373062
-0.545324 -0.837250 0.010143
0.223037 0.656099 -0.724194
-0.520999 -0.108066 0.038980
0.583201 -0.081725 0.368377
-0.543324 0.270012 0.375683
0.534771 0.288297 0.736829
-0.532910 0.640941 0.020899
-0.168410 -0.473259 -0.725954
-0.543865 -0.838258 0.007115
-0.153723 -0.455089 0.713636
-0.528202 -0.082710 -0.736346
0.222297 0.655151 -0.722775
0.224533 -0.103902 0.714033
0.181487 -0.094859 -0.750141
-0.543605 -0.836726 0.009425
-0.172563 -0.823796 0.362918
0.223911 0.653971 -0.720446
0.195951 -0.473112 -0.357207
-0.558091 -0.095419 0.755838
0.224423 -0.104008 0.713332
-0.157397 0.303431 -0.758179
0.192314 -0.462523 0.334301
-0.533469 0.641088 0.021996
-0.521056 -0.108517 0.037633
0.561809 -0.078440 -0.355474
-0.155011 0.303541 -0.758332
0.575124 0.675309 0.338626
0.183750 -0.096749 -0.749417
0.202650 0.658299 -0.021525
0.200958 0.658925 -0.020895
0.586909 0.659398 -0.359235
-0.528990 -0.082894 -0.736798
0.556320 -0.441196 -0.009249
0.575060 0.674769 0.340811
-0.544984 0.280226 -0.349738
-0.157172 0.301470 -0.760635
0.191894 0.659636 0.724559
-0.164741 0.649453 -0.374826
0.558370 -0.439623 -0.011072
-0.542753 -0.837487 0.010662
0.534838 0.288134 0.737475
-0.158502 0.285568 0.726819
-0.163205 0.649186 -0.371886
-0.158779 0.650430 0.378582
-0.545802 -0.837495 0.010464
-0.163499 0.648663 -0.370828
-0.166471 -0.471886 -0.727435
0.576274 0.675289 0.340369
-0.542559 0.279574 -0.351888
0.200694 -0.845642 0.002243
-0.174278 -0.838501 -0.350975
0.191953 -0.463431 0.335786
-0.544090 0.270068 0.374986
0.576739 0.277849 -0.011175
0.183033 -0.093787 -0.749291
-0.156867 0.650406 0.379332
0.194873 0.658694 0.722651
0.196281 -0.470421 -0.357567
-0.545097 0.280600 -0.352813
0.222210 0.655734 -0.721351
0.198903 -0.471361 -0.356562
-0.543033 -0.836178 0.009871
-0.557714 -0.097580 0.753790
0.200764 0.657820 -0.021614
0.224074 0.655182 -0.722385
-0.546359 0.269898 0.374651
-0.174090 -0.840037 -0.351324
0.559549 -0.077999 -0.357737
0.197835 -0.473367 -0.357871
0.574682 0.674428 0.342354
-0.533267 -0.082833 -0.736859
0.200912 0.658059 -0.020213
-0.522334 -0.109111 0.039326
-0.169338 -0.472455 -0.727047
-0.544414 0.269801 0.374060
0.575248 0.675272 0.339959
0.562329 -0.079626 -0.356358
0.193318 -0.462349 0.332851
-0.158759 0.285076 0.726641
-0.557622 -0.487130 0.388436
-0.174359 -0.840581 -0.351672
0.577356 0.300353 -0.754355
-0.558903 -0.488842 0.388478
-0.544222 0.270810 0.375487
-0.172328 -0.824481 0.364150
0.582268 -0.082815 0.367118
-0.521641 -0.110110 0.040988
-0.527752 -0.467513 -0.350870
-0.558319 -0.487710 0.390023
0.197816 -0.472477 -0.355268
0.194087 -0.461599 0.332748
0.192833 -0.464846 0.334712
-0.521495 -0.109216 0.037645
-0.557000 -0.097777 0.753321
0.224247 0.655696 -0.722261
-0.157300 0.650349 0.379492
-0.165019 0.648990 -0.373187
-0.154582 -0.455024 0.714260
-0.559573 -0.485519 0.387242
0.221394 -0.104068 0.713180
0.577666 0.298955 -0.752560
0.192268 0.658695 0.723765
-0.533006 0.639405 0.022805
0.222026 -0.104369 0.712281
-0.542345 0.279684 -0.352495
0.576895 0.280289 -0.012746
-0.154251 0.300738 -0.759711
-0.559102 -0.489635 0.388802
0.183197 -0.095787 -0.748926
-0.523232 -0.109709 0.038725
-0.156554 0.302313 -0.758196
0.190467 0.659879 0.725386
-0.542235 0.279043 -0.352155
-0.555291 -0.097256 0.751150
-0.173042 -0.839513 -0.351665
0.535435 0.287576 0.736922
-0.528428 -0.466099 -0.351327
-0.529701 -0.466081 -0.350887
-0.170907 -0.822792 0.363601
-0.171494 -0.826038 0.361133
-0.556774 -0.098037 0.753275
-0.545442 -0.835842 0.008640
-0.521699 -0.111237 0.036883
-0.544540 0.268723 0.375952
-0.160060 0.284451 0.725723
-0.166057 0.650854 -0.371619
0.222673 -0.106623 0.712529
0.199318 0.657631 -0.020937
-0.555916 -0.096818 0.752531
-0.532558 0.640812 0.021327
-0.169145 -0.471398 -0.726416
-0.152595 -0.455744 0.715181
0.200993 0.658574 -0.019773
0.559817 -0.076597 -0.357204
0.192829 -0.461996 0.333310
-0.520527 -0.110936 0.038022
-0.522482 -0.109974 0.038667
-0.167263 -0.471826 -0.727857
0.224510 -0.106242 0.712299
0.557402 -0.439673 -0.009404
0.192925 -0.461628 0.332985
0.224113 0.655204 -0.722558
0.587639 0.660110 -0.359293
0.557917 -0.440772 -0.008328
0.193514 -0.461768 0.333764
0.223290 -0.106066 0.710051
0.194171 -0.461039 0.334158
-0.158321 0.283912 0.726179
0.201631 0.658975 -0.019778
0.225035 0.655626 -0.721980
0.588570 0.660388 -0.360040
0.222676 -0.104618 0.712935
-0.163901 0.650225 -0.374223
-0.172542 -0.826169 0.362809
-0.523136 -0.111768 0.038663
-0.155800 0.302323 -0.756674
0.581553 -0.081196 0.369284
-0.523969 -0.110368 0.038915
0.201963 0.657632 -0.019704
-0.170580 -0.825945 0.363066
0.575729 0.675663 0.337862
-0.546102 0.280729 -0.351585
0.535495 0.289368 0.737348
0.192766 -0.463486 0.333279
0.585606 -0.080966 0.368698
0.197217 -0.473750 -0.357325
0.584765 -0.080644 0.367947
0.201437 0.658003 -0.018481
-0.556622 -0.097409 0.753975
0.587205 0.661220 -0.360991
-0.558463 -0.487342 0.388917
-0.165125 -0.471322 -0.726260
0.584704 -0.081996 0.366943
0.191743 -0.461438 0.333501
-0.545167 0.270324 0.373471
-0.542956 0.270808 0.374537
-0.167771 -0.472409 -0.728100
-0.523354 -0.110640 0.037813
-0.157975 0.286924 0.725617
0.223166 -0.105470 0.711432
0.225187 0.654887 -0.722821
-0.530072 -0.467685 -0.349040
0.223064 -0.105217 0.713106
0.198785 -0.472129 -0.358447
-0.154110 -0.454704 0.713591
0.223693 0.653849 -0.721068
0.582684 -0.080765 0.369626
-0.529837 -0.083092 -0.735411
0.200974 0.657831 -0.020081
0.575087 0.675071 0.340649
-0.173474 -0.840407 -0.350983
0.223821 -0.106395 0.713054
-0.557520 -0.097542 0.753711
0.576873 0.300222 -0.753783
0.534335 0.288837 0.736574
-0.154888 -0.456329 0.714016
0.201075 -0.844687 0.001271
0.586984 0.658863 -0.360358
