OFF
256 0 0
0.048669 -0.781458 -0.497977
0.414594 -0.416331 -0.499653
-0.322610 -0.780384 -0.130955
-0.321961 -0.414721 -0.497108
-0.319124 0.687793 0.604753
-0.688177 0.687431 0.238330
0.413394 -0.048221 0.604841
-0.318327 0.689023 0.602453
0.413399 0.319280 0.235913
-0.321360 0.687624 -0.129007
-0.687171 -0.415205 -0.131084
0.048751 -0.782388 -0.496718
0.413402 -0.415338 -0.499056
-0.688409 0.686298 0.236202
-0.319459 -0.414375 0.235592
-0.320052 0.321959 -0.498261
-0.319924 0.684727 -0.130033
-0.321268 -0.413568 -0.498811
-0.684321 0.319261 -0.129939
0.415821 -0.414256 -0.497020
-0.320903 0.318642 -0.498178
-0.686771 0.318667 -0.130478
0.044947 0.686829 -0.496587
-0.321426 0.687248 -0.128019
-0.320065 -0.047496 0.604091
-0.687646 0.320051 0.605178
-0.320692 -0.415027 0.237456
0.046832 0.320132 0.604222
-0.688054 0.320362 -0.129340
0.047161 0.685997 -0.496459
-0.321675 -0.781159 -0.131676
0.414565 -0.414580 -0.496795
0.047844 -0.782113 0.237632
-0.320429 0.686028 -0.130563
0.780293 -0.048394 -0.497660
-0.319796 0.688241 0.603617
-0.319649 0.686927 -0.129891
0.780874 -0.047333 0.237341
0.047120 0.686292 -0.498735
-0.687390 0.318567 0.604338
-0.686126 0.686970 0.237646
0.046703 0.318516 0.604534
0.414770 -0.414932 0.237462
0.781001 -0.415980 -0.132570
-0.320002 0.688848 0.604049
0.047020 0.686408 0.236863
0.414948 -0.047455 0.603687
0.046654 0.319376 0.603772
-0.319498 -0.782547 -0.132066
0.413024 0.321004 -0.497978
-0.686486 -0.047819 -0.495999
0.782434 -0.046305 0.236973
0.782210 -0.414799 -0.129316
0.413583 -0.415115 0.237790
0.047251 -0.046433 -0.496332
-0.319253 -0.415306 -0.497281
0.048072 -0.412637 0.602748
-0.686686 0.319355 0.604518
-0.685922 0.319566 0.604725
0.048064 -0.415457 0.604508
0.780774 -0.414702 -0.130581
0.414838 -0.414371 -0.498175
0.045828 -0.046676 -0.497077
-0.322627 0.319292 -0.497458
-0.685270 0.318269 -0.129669
-0.683910 0.685588 0.237907
0.781030 -0.046703 -0.496895
0.047579 0.319616 0.602273
0.782775 -0.047847 -0.496896
-0.318172 0.685400 0.603983
0.046247 0.688151 -0.497047
0.414804 -0.046844 0.606664
-0.687162 0.319942 0.604850
0.415688 -0.413758 0.236734
0.047967 0.319485 0.602373
0.416175 -0.413716 -0.498179
0.782847 -0.047521 0.235389
-0.686879 -0.047826 -0.496768
0.046177 -0.413690 0.604949
-0.317978 -0.048426 0.604186
-0.320490 -0.780605 -0.129730
-0.319395 -0.415718 -0.499020
0.414199 -0.781089 -0.128699
0.414200 0.318823 0.236362
0.415104 -0.414634 0.235485
-0.319704 -0.048605 0.603133
0.783158 0.319026 -0.130798
0.782020 -0.049080 -0.496958
0.049518 0.320080 0.605174
-0.319879 -0.414438 0.236074
0.782284 -0.413741 -0.130773
-0.317938 0.320820 -0.494924
0.046938 0.318009 0.605636
0.047882 0.687150 0.237486
0.415306 -0.414704 -0.497365
0.046755 0.318714 0.601732
-0.319606 -0.048516 0.603910
-0.318152 0.319717 -0.496722
0.046383 -0.781753 -0.497112
0.413115 -0.415045 0.236049
-0.321971 0.688250 0.604577
0.046950 -0.782899 0.237201
0.780720 -0.046197 0.238102
-0.688517 0.688558 0.235872
0.047233 -0.782009 0.235986
0.047092 0.689359 -0.496800
0.782492 0.319299 -0.130785
-0.689348 0.318313 0.602745
0.782040 -0.414352 -0.130276
-0.688716 -0.045595 0.238039
-0.686890 0.319587 -0.130668
0.412425 0.688250 -0.131006
-0.688642 0.319822 0.605065
0.781932 -0.414262 -0.129070
-0.686846 0.319458 -0.130032
-0.321388 0.687903 -0.130065
0.046049 -0.781625 -0.497329
-0.688279 0.319276 -0.130332
-0.318840 0.318287 -0.497375
-0.319264 -0.414968 -0.497238
0.414404 0.687374 -0.129805
0.045699 -0.049514 -0.496419
-0.318408 0.685920 0.604599
0.779515 0.318434 -0.131674
0.781802 -0.413942 -0.130011
0.413750 -0.781547 -0.128513
0.782271 0.321673 -0.130827
-0.687133 0.318526 0.604700
-0.685818 -0.414300 -0.129305
0.045682 0.688045 -0.496922
0.047769 -0.780698 -0.497749
0.414104 -0.781492 -0.131739
0.414936 -0.049063 0.603012
0.416039 0.319521 -0.497390
0.781861 -0.415088 -0.130575
-0.688132 0.321087 0.604048
-0.318681 -0.047684 0.602250
0.413596 -0.415407 -0.497608
0.413582 0.321292 -0.499713
0.045436 0.687556 0.236305
-0.319239 -0.046454 0.603599
0.048287 -0.781787 0.237062
-0.319286 0.318445 -0.496038
-0.318974 0.320504 -0.496207
0.048219 -0.413708 0.605556
-0.319500 0.684046 0.603867
-0.686393 0.320421 0.602787
0.783029 0.319336 -0.129905
0.046162 -0.782429 0.235326
-0.686851 -0.046940 0.235686
0.414266 0.320122 -0.500078
0.048745 0.319692 0.604398
0.049399 0.319818 0.604726
0.782548 -0.047661 -0.498928
-0.320535 0.319674 -0.497862
0.780962 -0.414054 -0.130296
0.780966 -0.046834 0.236780
0.414584 0.320091 0.238003
0.047560 0.685988 -0.498031
-0.686214 0.319965 -0.129871
-0.687110 0.321303 -0.130385
0.415911 0.320379 -0.495908
-0.687992 0.686111 0.235374
0.414112 -0.782986 -0.129420
0.413382 0.318936 0.236252
0.046687 -0.413523 0.603893
0.046704 -0.046044 -0.498721
-0.318449 -0.416248 0.236382
-0.320897 0.688506 0.605229
-0.687659 0.320716 0.606806
-0.320825 -0.781032 -0.128770
0.414128 0.319222 0.236521
-0.687552 -0.048355 -0.498521
0.048403 -0.780741 -0.497478
0.414756 -0.783324 -0.130642
-0.321201 0.319465 -0.498584
-0.686782 0.321220 -0.130642
-0.686505 0.319392 -0.131018
-0.320027 0.689391 -0.131450
0.414839 0.319057 0.237824
-0.320076 -0.413193 -0.498586
-0.318952 0.320495 -0.496349
0.413573 0.320698 -0.497497
0.045519 0.686498 -0.495764
-0.319395 0.686291 -0.129982
-0.321577 0.685446 -0.129792
0.046775 -0.781175 -0.496811
-0.318759 -0.415860 0.236271
-0.320566 0.686008 -0.130872
-0.318749 0.688112 -0.129701
0.047652 -0.782144 -0.498438
-0.688244 0.318007 -0.130675
-0.319799 -0.782970 -0.129519
0.047480 -0.782506 -0.498183
0.047538 -0.783486 -0.498642
-0.317738 0.319001 -0.497563
0.414943 -0.047331 0.604082
0.415791 0.685847 -0.130561
-0.319215 0.685865 -0.131324
0.413972 -0.782552 -0.130019
0.046487 -0.414406 0.603789
0.412270 -0.413825 -0.496839
0.045909 0.320856 0.605401
0.415328 -0.414705 0.237464
-0.687839 -0.047302 0.236614
0.415756 -0.413254 0.238413
0.414660 -0.413741 -0.497670
0.413770 -0.046811 0.605021
0.047744 -0.781679 -0.496221
-0.686437 0.687875 0.237427
-0.687495 -0.416342 -0.131953
0.782629 -0.047045 0.236746
0.414468 0.319964 0.237373
-0.686233 -0.046647 -0.496349
0.415219 0.319627 -0.498476
-0.319143 -0.414710 -0.499263
0.781977 -0.414214 -0.129661
0.414323 -0.414769 -0.499159
0.046070 0.320923 0.603371
-0.319962 0.687576 -0.131020
0.412529 -0.781474 -0.128826
0.414135 0.319312 -0.499482
-0.319380 -0.781954 -0.129084
0.413729 -0.781314 -0.130222
-0.320083 -0.048453 0.604880
0.782233 -0.046868 0.236796
-0.685710 0.318661 0.603867
0.047674 0.687306 -0.495885
-0.319849 -0.045439 0.604161
-0.318661 -0.781335 -0.129444
-0.317807 0.687228 0.604914
-0.319732 -0.415203 0.236723
0.414080 -0.416285 0.237093
0.047153 -0.416597 0.605115
0.044983 -0.046864 -0.496484
0.781444 -0.046159 0.237952
-0.321025 0.687316 -0.130240
0.048612 0.320162 0.604494
0.047423 -0.415579 0.603533
-0.687962 -0.414808 -0.130680
-0.685732 -0.046613 -0.498090
0.046500 -0.779561 0.236999
0.412949 0.319678 0.237213
0.046898 -0.046602 -0.497298
-0.320012 -0.782067 -0.129374
0.049481 -0.046626 -0.496324
0.415732 -0.414140 0.236868
-0.318201 -0.047515 0.604415
0.782146 -0.415277 -0.129530
-0.320299 0.688334 0.606094
0.050994 0.320789 0.604538
0.047495 -0.781169 -0.498085
0.414977 0.319261 0.237390
-0.319800 -0.048043 0.604275
0.780268 -0.413126 -0.130338
-0.319706 -0.413686 -0.498367
