OFF
256 0 0
-0.692146 -0.059165 -0.462514
0.793034 -0.389180 -0.112306
-0.317388 0.297609 -0.479908
-0.674607 0.312007 -0.129127
0.776318 0.306996 -0.136528
-0.329865 -0.794317 -0.120350
0.791883 -0.389725 -0.111476
-0.307809 0.667862 0.621318
-0.329455 -0.794711 -0.118448
-0.314238 0.294477 -0.479676
-0.693749 -0.059926 -0.459910
0.043135 -0.783255 0.238725
-0.693381 0.325827 0.607952
0.076267 -0.049342 -0.493946
-0.315187 0.298052 -0.481347
0.802059 -0.047477 -0.514160
0.033043 0.697914 -0.516620
0.801509 -0.048903 -0.513656
-0.676173 0.690864 0.256718
0.396248 -0.423120 -0.484947
-0.306136 0.670176 0.620051
0.411280 -0.058610 0.599998
-0.700239 -0.049561 0.242577
-0.676227 0.690155 0.257266
-0.693133 -0.063840 -0.460107
0.019445 0.308404 0.559522
-0.317493 -0.405806 0.211716
0.021070 0.305564 0.558519
-0.684596 -0.425278 -0.117560
0.078218 -0.051089 -0.495219
0.020032 0.309736 0.558833
0.414169 0.333697 -0.498837
-0.693775 0.327220 0.608372
-0.306282 0.667979 0.620388
-0.683805 -0.425600 -0.118218
-0.675015 0.312058 -0.129286
0.387079 0.334620 0.236771
-0.295985 -0.407361 -0.484354
-0.676280 0.690545 0.257164
-0.683333 -0.426783 -0.120268
0.396978 -0.423704 -0.484810
-0.317985 -0.405415 0.211781
0.409253 -0.057816 0.598432
0.794362 -0.388718 -0.111516
-0.692924 -0.061149 -0.460452
-0.701154 -0.050561 0.243868
-0.685662 -0.427044 -0.120504
0.405178 -0.397590 0.214989
0.405046 -0.397466 0.212265
0.415554 0.331687 -0.500195
-0.685944 -0.424843 -0.119568
-0.684464 -0.425854 -0.120165
0.413982 0.331852 -0.499173
0.076296 -0.049478 -0.495790
0.044029 -0.784588 0.239430
0.021876 0.308752 0.559725
0.800085 -0.048883 -0.513354
-0.317810 -0.405404 0.213487
0.775030 0.307426 -0.135897
0.793808 -0.388074 -0.112165
-0.322365 -0.044504 0.576852
0.038085 -0.785437 -0.478116
-0.315899 0.297991 -0.482483
0.421898 0.708811 -0.157547
0.406585 -0.395450 0.212928
0.419061 0.709243 -0.155764
-0.317189 -0.404836 0.212346
0.034114 0.699703 -0.516345
-0.692356 -0.061178 -0.460723
-0.675744 0.691648 0.257883
0.792601 -0.388351 -0.112023
-0.298657 0.690826 -0.134406
-0.676165 0.691147 0.258625
0.396075 -0.423632 -0.485312
0.410154 -0.056170 0.601621
-0.300100 0.690608 -0.133302
0.429470 -0.802094 -0.128230
0.430124 -0.802924 -0.129346
0.416638 0.332553 -0.499657
-0.676763 0.691826 0.256765
0.428345 -0.801037 -0.128456
0.036669 -0.412000 0.588457
0.797619 -0.048270 -0.512379
-0.684811 -0.426884 -0.119644
0.404764 -0.397144 0.212784
0.044376 -0.784497 0.241250
0.032161 0.698209 -0.514079
-0.316224 -0.405701 0.212344
0.410149 -0.056991 0.598466
0.791501 -0.388290 -0.112294
-0.324072 -0.044365 0.578599
-0.322507 -0.043959 0.577784
-0.676894 0.690125 0.255171
0.785093 -0.029962 0.265648
-0.314936 0.295505 -0.480364
0.793251 -0.387355 -0.111458
-0.675579 0.312447 -0.129581
0.776074 0.308467 -0.135511
0.775013 0.306975 -0.135361
0.786753 -0.029229 0.268992
-0.693079 0.326407 0.607912
0.395964 -0.423647 -0.488274
0.017804 0.306515 0.559107
-0.301565 0.691289 -0.131719
0.020631 0.307348 0.557544
-0.692546 -0.061476 -0.459854
-0.701074 -0.050719 0.242656
-0.322937 -0.042103 0.576698
0.038400 -0.786454 -0.478555
-0.301822 0.689349 -0.132975
0.044150 -0.781481 0.241210
0.038101 -0.786216 -0.476930
-0.700578 -0.048687 0.241598
0.031721 0.699739 -0.516254
0.032171 0.698653 -0.516125
-0.315515 0.298216 -0.480557
-0.315770 0.298400 -0.481061
-0.692320 -0.060376 -0.461061
0.785009 -0.030211 0.265431
-0.300049 0.689533 -0.135223
0.801204 -0.046883 -0.515085
0.774514 0.308477 -0.138816
-0.683843 -0.425028 -0.119073
-0.683691 -0.424476 -0.119952
0.076273 -0.051866 -0.496352
-0.300085 0.689928 -0.132929
-0.673434 0.315307 -0.128073
-0.692490 0.325831 0.606660
0.799862 -0.047615 -0.513125
0.077404 -0.048639 -0.495832
0.046130 0.692909 0.231489
-0.297351 -0.408960 -0.481436
-0.691346 0.327195 0.605943
-0.700388 -0.050872 0.242079
0.033746 -0.412557 0.588730
-0.330919 -0.796049 -0.118538
0.774515 0.307308 -0.136717
-0.692166 0.327920 0.608895
0.397174 -0.423155 -0.487306
-0.330755 -0.795741 -0.120529
0.032546 0.699702 -0.515787
0.045577 -0.783385 0.240908
0.409187 -0.056367 0.600079
0.044097 -0.783611 0.240940
-0.299140 -0.408817 -0.482848
0.404051 -0.396657 0.212255
0.784848 -0.029863 0.267766
0.047728 0.694704 0.231064
0.021106 0.308295 0.557756
0.021831 0.308054 0.559479
-0.692461 0.327048 0.607543
0.075890 -0.050273 -0.495834
0.077072 -0.051840 -0.496156
0.787066 -0.029655 0.268891
0.793314 -0.387078 -0.111816
0.801493 -0.048670 -0.514245
-0.305640 0.666963 0.622399
-0.692894 0.326804 0.607831
0.031794 0.698597 -0.515851
0.076602 -0.051359 -0.494475
-0.299044 -0.409842 -0.482453
0.406883 -0.395944 0.211808
-0.307778 0.667745 0.620065
0.019622 0.307761 0.557200
0.414377 0.333591 -0.500460
0.417890 0.331482 -0.499724
0.422723 0.709597 -0.159101
0.775572 0.308306 -0.136106
-0.316388 -0.406261 0.212251
-0.690794 0.326677 0.607953
0.037868 -0.785046 -0.477394
-0.691867 0.326332 0.606925
-0.307299 0.667385 0.621122
-0.298851 0.691014 -0.132735
-0.674887 0.313453 -0.128153
-0.321374 -0.043583 0.578635
0.421849 0.708475 -0.156284
0.032669 0.698815 -0.515693
-0.316105 -0.404767 0.214316
-0.298354 0.689255 -0.134762
0.397199 -0.424564 -0.485215
-0.676067 0.313284 -0.127426
0.793592 -0.388725 -0.112132
0.786176 -0.027379 0.268624
0.044103 -0.783476 0.240031
-0.315504 -0.404658 0.214113
0.032149 0.700437 -0.515770
0.802028 -0.047372 -0.513826
0.800870 -0.049296 -0.513590
0.032379 0.702101 -0.515031
-0.318240 -0.404306 0.214070
-0.693079 0.326962 0.608522
0.037847 -0.787008 -0.478269
0.429182 -0.801142 -0.129796
0.783096 -0.030477 0.268000
-0.683833 -0.427467 -0.119392
-0.300256 0.690478 -0.133752
-0.699974 -0.050033 0.241689
-0.331030 -0.797511 -0.119744
0.416255 0.329944 -0.499989
0.786089 -0.030302 0.267543
0.405592 -0.398568 0.211113
-0.330742 -0.796668 -0.121001
0.396812 -0.425234 -0.487782
-0.297958 -0.408158 -0.484102
-0.315970 0.297038 -0.479771
0.783682 -0.028815 0.266807
0.409956 -0.056820 0.599357
-0.683637 -0.426286 -0.117985
-0.301668 0.691639 -0.132681
0.045576 0.692900 0.231571
-0.683068 -0.425359 -0.118443
-0.322362 -0.044285 0.577877
0.415151 0.329958 -0.499710
-0.673118 0.690721 0.257267
0.019610 0.307953 0.557766
0.776370 0.310149 -0.138007
0.019361 0.307773 0.556880
0.033550 0.698483 -0.514693
0.429674 -0.803330 -0.128324
0.792107 -0.389437 -0.111696
0.773867 0.309522 -0.135772
-0.674428 0.688913 0.259808
0.396189 -0.424179 -0.485686
0.077511 -0.049173 -0.496259
0.031360 0.701186 -0.515829
-0.306687 0.666829 0.620107
-0.331101 -0.793293 -0.119081
0.430632 -0.801556 -0.128792
0.043515 -0.785477 0.240287
0.791747 -0.388142 -0.110747
-0.698802 -0.051253 0.243226
-0.298546 -0.409492 -0.483759
-0.298764 -0.406546 -0.483898
0.410481 -0.055755 0.599521
-0.676743 0.688288 0.256035
0.408550 -0.056277 0.598594
0.776677 0.306118 -0.136828
0.416439 0.330117 -0.497573
0.385672 0.333340 0.234977
-0.307686 0.667164 0.621770
-0.315549 0.296762 -0.481230
0.791720 -0.388253 -0.112736
-0.675812 0.689352 0.257361
-0.672860 0.311757 -0.129260
-0.298155 0.688171 -0.132475
-0.674822 0.691002 0.255404
0.775908 0.309140 -0.138128
0.035832 -0.785563 -0.476714
-0.693205 0.326360 0.608242
-0.315424 0.296160 -0.482327
0.774511 0.306065 -0.136783
-0.316357 0.298240 -0.481589
0.030572 0.700161 -0.515606
0.043482 -0.784376 0.239975
0.397820 -0.424750 -0.485299
