OFF
256 0 0
0.790678 -0.070704 0.236418
-0.315661 -0.402177 0.233767
0.420784 -0.803110 -0.124064
-0.701583 0.318578 0.610929
-0.313993 0.322587 -0.521638
0.409303 -0.406021 0.220749
0.045259 -0.790659 0.232836
0.792143 -0.446466 -0.136964
0.052716 0.341457 0.609041
-0.308804 0.679244 0.599071
0.040773 0.687513 -0.472441
0.417871 0.704966 -0.129982
-0.700956 0.316833 0.611742
0.037489 0.697709 0.233324
0.396034 -0.409603 -0.476533
-0.315797 -0.402602 0.232780
-0.677623 -0.037941 -0.506490
-0.311685 -0.034997 0.604517
0.041330 0.689992 -0.474091
-0.321263 0.669215 -0.119401
0.801344 0.356260 -0.113146
0.407774 -0.406776 0.219527
-0.691656 -0.056991 0.238982
0.418268 0.705598 -0.130707
-0.316226 -0.402894 0.233622
-0.707485 0.310416 -0.131178
-0.321621 0.670959 -0.120170
0.051975 0.343773 0.610107
-0.317838 -0.400806 0.231629
0.790718 -0.071364 0.234784
-0.680619 -0.038558 -0.505374
0.800720 0.354987 -0.113417
-0.315502 -0.400280 0.233164
0.801272 0.357149 -0.111306
0.043531 -0.796676 -0.522458
0.054154 -0.405263 0.621029
-0.679824 -0.039832 -0.507433
0.040116 0.687812 -0.474063
0.792854 -0.445507 -0.136776
0.416120 0.704235 -0.131028
-0.314304 0.322653 -0.520408
-0.308997 0.680181 0.598239
-0.694907 -0.058433 0.238900
-0.323126 -0.790439 -0.128432
0.780596 -0.050102 -0.489791
0.410725 -0.058387 0.612960
-0.679398 -0.039419 -0.505701
0.793624 -0.447707 -0.135749
-0.680549 -0.038103 -0.505309
-0.673099 0.694388 0.249057
-0.323649 0.670017 -0.118203
0.416963 0.704547 -0.131417
0.396007 -0.409867 -0.474441
0.053731 0.341235 0.608053
0.053251 0.342193 0.608306
0.038678 0.697121 0.232246
-0.701554 0.318342 0.611206
-0.314856 -0.400555 0.231725
0.397329 -0.411993 -0.475748
0.408725 -0.405049 0.219070
0.038884 0.696162 0.233587
-0.700505 0.317141 0.612158
0.407643 -0.403603 0.218880
0.039247 0.688701 -0.473471
-0.709044 0.310959 -0.130122
-0.321765 -0.788906 -0.128261
0.781920 -0.051067 -0.487784
0.052678 -0.406770 0.621553
0.055186 0.341727 0.609085
-0.309164 0.678815 0.597467
0.419509 -0.805517 -0.125100
-0.314931 -0.400588 0.232556
0.430065 0.320228 -0.482474
-0.314159 -0.402429 0.233093
0.420104 -0.804815 -0.122266
-0.320964 -0.415161 -0.516249
-0.311622 0.680725 0.595466
0.410970 -0.403901 0.218777
-0.707036 0.310247 -0.130575
0.043386 -0.798311 -0.521778
0.410606 -0.059479 0.612747
-0.699431 0.317591 0.613411
0.429422 0.318744 -0.480807
-0.672704 0.695164 0.250127
-0.307654 0.680838 0.600878
0.793781 -0.447266 -0.137112
0.421287 -0.803288 -0.123975
-0.679239 -0.038928 -0.505994
0.037382 -0.037511 -0.530934
0.039151 -0.033720 -0.530311
-0.322896 0.669862 -0.119023
0.782375 -0.052197 -0.490754
0.053600 0.342869 0.609652
-0.680073 -0.039671 -0.504139
0.408945 -0.405248 0.219958
-0.323974 0.669770 -0.118993
0.421680 -0.802785 -0.124639
-0.700276 0.318974 0.611557
0.054171 -0.405329 0.622007
0.429508 0.318084 -0.480321
0.408495 -0.060421 0.611810
0.426115 0.322444 0.235845
0.418014 0.704152 -0.130517
-0.678970 -0.037864 -0.505312
-0.694980 -0.058168 0.238165
0.416424 0.703664 -0.131272
-0.674568 0.696439 0.249066
-0.673101 0.696202 0.249213
-0.708770 0.309658 -0.131188
-0.692962 -0.057740 0.238001
-0.719244 -0.409905 -0.134473
-0.309189 0.679813 0.598000
-0.313557 0.321922 -0.520100
0.791425 -0.069173 0.234425
0.421130 -0.802674 -0.124259
0.395500 -0.409301 -0.477244
0.045040 -0.791180 0.231244
-0.314880 -0.402052 0.231971
-0.313086 0.322004 -0.521122
0.409874 -0.057408 0.612671
0.801396 0.356537 -0.113792
0.789848 -0.070904 0.233311
0.782050 -0.051400 -0.488001
-0.319054 -0.415042 -0.515399
0.793409 -0.445466 -0.137475
-0.700488 0.319699 0.612432
0.421565 -0.803615 -0.124671
0.780731 -0.053129 -0.491212
0.421439 -0.804043 -0.125246
0.427305 0.320208 0.235696
0.800298 0.354475 -0.111867
0.800850 0.353945 -0.113076
0.043679 -0.798110 -0.520958
-0.314664 0.322195 -0.520081
0.040297 0.688132 -0.473077
-0.322992 -0.789535 -0.129965
-0.674524 0.695371 0.250010
0.410704 -0.404837 0.220622
0.783643 -0.053758 -0.489587
-0.322837 -0.790074 -0.130312
0.042168 -0.799714 -0.521453
0.427795 0.320708 0.235446
-0.309144 0.679741 0.597487
0.042822 -0.790786 0.233455
0.042456 -0.799328 -0.522033
-0.718844 -0.407464 -0.135103
0.042668 -0.797873 -0.522537
-0.319880 -0.414899 -0.514108
0.428064 0.318797 -0.481026
-0.319374 -0.414994 -0.515456
0.042904 -0.795841 -0.522721
-0.719083 -0.408419 -0.134802
0.035349 -0.035563 -0.531752
-0.323607 -0.789620 -0.130118
0.408905 -0.058723 0.612046
0.038695 0.697343 0.232575
-0.321665 0.670733 -0.118147
0.037878 -0.036710 -0.530521
-0.321288 -0.414402 -0.515715
0.409620 -0.058610 0.613634
0.421491 -0.802369 -0.124232
0.799045 0.356493 -0.113074
0.430735 0.319698 -0.480366
0.428224 0.321350 -0.480530
-0.672853 0.696555 0.249948
0.790774 -0.446213 -0.137672
-0.311103 -0.033229 0.603002
0.420654 -0.804223 -0.123601
-0.311614 -0.034442 0.602271
0.409651 -0.404678 0.221054
-0.705816 0.310943 -0.131232
-0.314506 0.321989 -0.519344
0.052458 0.341919 0.607409
0.793779 -0.446073 -0.138764
-0.719157 -0.409153 -0.134267
0.038954 0.687929 -0.472814
-0.689201 -0.059008 0.238367
-0.323089 0.670308 -0.119833
-0.682533 -0.039284 -0.505452
0.408364 -0.404153 0.218731
0.793095 -0.447962 -0.137056
-0.323149 0.668320 -0.116853
0.044479 -0.790107 0.233672
-0.323228 0.668896 -0.120060
0.054826 0.344019 0.605818
-0.690619 -0.056234 0.237645
0.428871 0.320599 -0.480443
0.052229 -0.404803 0.624246
-0.310879 -0.034180 0.602522
0.798518 0.355972 -0.113431
-0.323604 -0.790615 -0.129018
-0.693122 -0.056672 0.237674
-0.315852 -0.399970 0.232643
-0.316210 -0.401880 0.232393
0.045346 -0.790371 0.232813
0.409459 -0.059518 0.611003
-0.701472 0.316802 0.612441
0.037375 -0.035383 -0.530562
0.427751 0.319411 0.235823
-0.309485 0.681309 0.597564
0.426420 0.320672 0.235040
0.791798 -0.447094 -0.136617
-0.308350 0.681499 0.598273
0.782919 -0.052239 -0.489277
0.429646 0.320431 -0.480474
0.397763 -0.408564 -0.475347
0.040527 0.696292 0.235157
0.045629 -0.790448 0.233345
0.052446 -0.407665 0.622817
-0.321823 0.669466 -0.120679
0.416865 0.704250 -0.130828
0.040323 0.690239 -0.471628
0.053861 -0.405578 0.622349
-0.315385 -0.401622 0.233974
0.038680 0.687778 -0.473389
0.047053 -0.790517 0.232336
0.415911 0.705418 -0.129566
0.410128 -0.060041 0.613042
0.801733 0.357781 -0.112310
0.410100 -0.404632 0.218190
-0.319919 -0.415339 -0.517805
-0.313646 0.321378 -0.519933
0.395581 -0.409525 -0.473842
0.037802 -0.036185 -0.532303
-0.674489 0.696437 0.248767
0.395563 -0.410889 -0.475054
0.053801 -0.406143 0.620958
0.407749 -0.406084 0.218926
-0.692044 -0.057197 0.239068
-0.698850 0.318833 0.610160
0.791484 -0.069987 0.237834
-0.313745 -0.403359 0.230796
0.416284 0.703436 -0.130904
0.419403 -0.804822 -0.124648
0.795104 -0.446299 -0.138832
-0.691423 -0.057318 0.238543
0.801350 0.355141 -0.113091
0.800902 0.356605 -0.111016
-0.702497 0.317503 0.610508
-0.315686 -0.403592 0.232553
-0.311301 -0.032524 0.603539
-0.322640 -0.790205 -0.128485
0.429162 0.318540 -0.480995
0.038462 -0.037492 -0.532123
0.045545 -0.790594 0.232434
0.044666 -0.798095 -0.521533
-0.313668 0.320019 -0.520597
0.427299 0.319619 0.235890
0.040599 0.698082 0.232296
0.429044 0.320196 -0.482714
0.037957 0.690074 -0.474437
-0.691596 -0.056801 0.238168
0.420574 -0.804856 -0.123308
-0.319028 -0.417179 -0.515440
-0.323011 -0.790038 -0.130270
0.426519 0.321562 0.235870
