OFF
256 0 0
-0.306124 0.581750 -0.685568
0.756408 0.246872 0.043165
-0.692589 0.248304 0.049346
-0.694045 -0.116136 0.415473
0.410315 0.235956 0.406973
0.400965 -0.476129 0.410179
0.414209 -0.482517 -0.323042
-0.302667 -0.125350 -0.686548
-0.683834 0.595156 -0.322075
0.420442 -0.124067 0.804944
0.064779 0.219327 -0.696552
-0.308251 -0.481048 0.396720
-0.686709 0.596169 -0.321904
-0.682854 0.227261 -0.695388
-0.306895 -0.482706 0.395570
-0.300584 0.583364 0.050591
0.054148 -0.510367 0.032874
0.038337 -0.499102 0.770109
-0.696572 -0.129007 -0.323896
-0.693031 -0.116814 0.417227
-0.696993 -0.128748 -0.324503
0.780448 -0.499824 0.076655
-0.307158 -0.480809 0.396770
-0.299949 -0.124902 -0.686678
0.781234 -0.498703 0.077133
-0.685479 0.595752 -0.319340
0.781702 -0.498314 0.076043
0.414060 -0.480213 -0.323542
-0.307725 -0.481111 0.395623
0.038171 -0.497315 0.769586
-0.296793 -0.491654 -0.325065
0.415102 -0.480040 -0.323043
0.756846 0.246541 0.040986
0.050714 -0.491551 -0.683552
0.037978 -0.497341 0.770243
0.413445 -0.479305 -0.323903
-0.683091 0.227995 -0.692116
0.773757 -0.125925 -0.291795
0.051902 0.225585 0.783907
0.398868 -0.477998 0.410222
-0.693259 -0.119328 0.417665
0.754311 0.246972 0.042497
-0.319170 -0.149658 0.763494
0.052282 -0.511684 0.032618
0.772808 -0.128468 -0.288294
0.755217 0.245937 0.044354
-0.299349 0.584874 0.049052
-0.317157 0.214532 0.432806
0.420137 -0.136905 -0.699820
0.049903 -0.492035 -0.684575
-0.307136 -0.479595 0.394389
0.049134 -0.490894 -0.684866
0.030417 0.603091 -0.345936
0.418369 -0.136549 -0.697832
0.043679 0.604202 0.428549
-0.692957 0.248053 0.048064
0.049253 -0.490623 -0.684464
-0.295576 -0.491847 -0.326367
0.414170 -0.480730 -0.323525
0.031281 0.603397 -0.345454
0.781566 -0.499395 0.078597
0.773754 -0.125050 -0.290194
0.049672 -0.491603 -0.684070
-0.296971 -0.492516 -0.326354
0.031898 0.605017 -0.344603
0.423143 -0.121480 0.806828
0.781700 -0.498500 0.078032
-0.682804 0.227276 -0.694974
-0.685338 0.594418 -0.321228
-0.699398 -0.130406 -0.323044
0.397345 0.630064 0.050746
0.063824 0.222394 -0.695171
-0.682826 0.228470 -0.694071
-0.694141 0.248481 0.047856
-0.679482 -0.489326 0.028778
-0.319228 -0.153028 0.764087
-0.316465 0.214928 0.430541
-0.296184 -0.490786 -0.324649
0.419550 -0.136036 -0.700861
0.041894 0.606956 0.427771
0.399312 -0.478963 0.409410
-0.316018 0.215671 0.431775
0.052078 0.225252 0.785782
0.397425 0.631923 0.050378
0.398881 -0.479451 0.410944
0.420805 -0.122242 0.804464
0.803859 -0.154477 0.440252
0.772389 -0.127743 -0.289088
-0.678893 -0.489760 0.027089
-0.697378 -0.131106 -0.323559
-0.300834 0.585097 0.048575
-0.317061 0.216534 0.431739
-0.296130 -0.491504 -0.326850
0.048839 -0.490254 -0.683631
0.062758 0.220628 -0.695471
0.414762 -0.479520 -0.325692
0.372062 0.260681 -0.304320
0.041587 0.604027 0.428453
-0.682381 0.226768 -0.696253
0.807593 -0.152198 0.438280
0.373026 0.258257 -0.305129
-0.680320 -0.488482 0.027799
0.410293 0.235361 0.410125
0.757390 0.245471 0.043666
-0.678075 -0.489239 0.028645
0.781736 -0.499900 0.075797
0.781012 -0.497972 0.075754
0.782479 -0.499155 0.076518
0.063653 0.220410 -0.695357
0.052262 0.225707 0.783630
0.400715 -0.476727 0.409711
-0.684702 0.596521 -0.322801
-0.296284 -0.491413 -0.326000
0.374098 0.258744 -0.305396
-0.317198 0.215349 0.432907
-0.318790 0.216904 0.433519
-0.305804 0.583498 -0.683517
0.420759 -0.123868 0.805608
0.062651 0.218637 -0.693671
-0.301736 0.583277 0.049867
0.049351 -0.490997 -0.685484
-0.299256 0.583653 0.048276
0.421701 -0.124219 0.805167
0.753993 0.246013 0.043069
-0.684021 0.225561 -0.692297
0.409561 0.236510 0.409196
-0.317664 -0.151987 0.763066
-0.686540 0.596239 -0.322196
-0.297323 -0.126313 -0.687231
0.398314 0.630829 0.052278
-0.319813 0.216964 0.432956
-0.299765 -0.127640 -0.687184
0.420388 -0.122877 0.805455
0.754989 0.245775 0.043092
-0.307547 -0.481345 0.398177
-0.696775 -0.130962 -0.322982
0.397050 0.631202 0.051471
0.032013 0.604251 -0.346088
-0.684941 0.593730 -0.320989
-0.685505 0.594486 -0.321717
0.372692 0.258762 -0.306218
0.421932 -0.122338 0.805222
0.755010 0.246192 0.044394
0.373247 0.257961 -0.305508
0.049938 -0.490747 -0.684389
0.050291 -0.508602 0.032059
-0.316970 0.217957 0.433125
-0.299471 -0.124116 -0.685756
-0.680609 -0.489120 0.028976
-0.300306 -0.125819 -0.686245
0.053944 0.224969 0.781662
0.412677 -0.479838 -0.321382
0.399738 -0.479565 0.411248
-0.304936 0.585903 -0.683948
0.415308 -0.478160 -0.322339
0.032685 0.603876 -0.345794
0.398348 -0.476175 0.410278
0.050757 -0.510453 0.032525
-0.680402 -0.490189 0.027352
-0.697989 -0.130335 -0.321934
0.063931 0.220333 -0.694628
-0.295682 -0.491558 -0.326257
-0.686577 0.594431 -0.322585
-0.695119 -0.118134 0.416210
-0.693022 0.248120 0.047200
0.781292 -0.500027 0.075685
-0.682829 0.227239 -0.694035
0.051388 -0.511664 0.031234
-0.299814 0.584874 0.049906
-0.296976 -0.490940 -0.326621
0.783310 -0.498513 0.076338
-0.693191 0.249234 0.046313
0.398779 0.630279 0.052352
-0.317839 0.216842 0.430149
0.756315 0.246496 0.043693
0.416976 -0.135233 -0.700930
-0.297368 -0.491308 -0.327220
-0.309081 -0.480734 0.395693
-0.696125 -0.128540 -0.323947
0.781263 -0.498508 0.076867
0.030672 0.603313 -0.344353
0.036228 -0.496106 0.769672
-0.695610 -0.129560 -0.325074
0.421428 -0.125099 0.805155
-0.296493 -0.490168 -0.326768
-0.687334 0.596875 -0.321695
-0.304596 0.583783 -0.684533
0.755807 0.244939 0.044715
-0.300426 0.584656 0.049047
0.395423 0.629248 0.049481
0.421052 -0.123342 0.805238
0.398428 0.632006 0.050860
0.780810 -0.499887 0.074806
-0.679841 -0.488975 0.028115
0.772831 -0.125434 -0.291484
-0.695940 -0.129828 -0.323090
-0.305252 0.583340 -0.683942
-0.698110 -0.129263 -0.324474
-0.684582 0.225631 -0.693601
0.049175 -0.490028 -0.685073
0.373812 0.259093 -0.306095
-0.681780 -0.490101 0.028006
0.048456 -0.491906 -0.683230
0.036602 -0.497050 0.768582
-0.679572 -0.489481 0.028254
0.410427 0.235227 0.407274
0.773906 -0.125865 -0.289846
-0.693306 0.246900 0.045119
-0.318957 0.217562 0.432480
0.422954 -0.122944 0.805285
0.050547 -0.510881 0.031957
-0.678979 -0.487625 0.027981
0.049391 -0.490120 -0.684207
0.399406 -0.478756 0.411005
0.051248 -0.509586 0.033617
-0.694750 -0.118883 0.416879
0.407752 0.236524 0.407718
0.397638 0.630533 0.050630
0.043610 0.604658 0.428512
0.398367 0.631626 0.052113
-0.304729 0.583757 -0.685727
-0.694702 -0.117665 0.416587
0.807004 -0.153445 0.437053
-0.694914 0.247766 0.045420
0.062573 0.221475 -0.693957
0.398350 -0.478668 0.410193
0.756678 0.247567 0.043645
0.042915 0.603224 0.429030
0.806635 -0.152767 0.439281
0.048220 -0.492084 -0.683252
-0.303557 0.582595 -0.684635
-0.315618 0.215582 0.430784
0.415402 -0.477992 -0.322792
-0.307334 0.583689 -0.683283
0.419229 -0.135191 -0.701805
-0.693633 0.247993 0.046884
0.037423 -0.496529 0.768842
-0.695747 -0.129088 -0.324588
-0.317384 -0.152809 0.764663
0.397577 0.630204 0.052510
-0.695937 -0.118741 0.417542
-0.697714 -0.129041 -0.324377
-0.686342 0.596511 -0.321927
0.049116 -0.491101 -0.685082
0.399483 0.630976 0.051459
0.375027 0.258237 -0.303187
0.062411 0.221489 -0.693148
0.805527 -0.154201 0.438877
-0.686565 0.596291 -0.320087
0.773485 -0.124927 -0.289447
0.417254 -0.137040 -0.699338
-0.686503 0.597046 -0.321816
0.397836 0.629231 0.051234
0.409616 0.234925 0.408247
-0.303945 0.584103 -0.683583
-0.678749 -0.491133 0.028530
