OFF
256 0 0
-0.700134 -0.114779 0.387356
-0.334336 -0.508357 -0.338363
-0.689404 0.589301 -0.335105
0.067641 0.262094 0.790033
0.413115 0.236381 -0.298639
0.428822 -0.508210 0.431356
0.055721 0.577325 -0.322999
0.044148 0.617484 0.404770
0.433384 -0.123123 -0.684696
0.056098 0.576829 -0.323736
0.776324 -0.488958 0.046456
-0.704497 0.200027 -0.679972
-0.707071 0.199228 -0.680446
0.797843 0.258599 0.051178
-0.319838 -0.476539 0.419946
-0.712674 0.237581 0.035670
0.044747 0.617697 0.404605
-0.687119 0.592659 -0.337284
0.775492 -0.487866 0.042220
-0.319793 -0.159202 -0.707506
-0.344669 0.599948 0.042036
-0.314928 0.605414 -0.699425
-0.701984 -0.152771 -0.299059
0.436096 -0.123488 -0.683784
-0.341099 -0.122356 0.795866
0.067797 0.260997 0.789039
-0.314109 0.604872 -0.698900
0.062079 -0.505336 0.824499
0.063932 -0.504865 0.824540
-0.319726 -0.476522 0.418953
0.058233 -0.523148 -0.706927
0.791432 -0.113232 0.400853
0.444090 0.611434 0.026205
-0.712040 0.236409 0.034486
0.389703 -0.475625 -0.295324
0.774204 -0.487203 0.044739
0.791788 -0.113125 0.399819
-0.311397 0.221930 0.411955
-0.712164 0.236012 0.032919
0.043041 0.619659 0.405066
0.390682 -0.473504 -0.294640
-0.344877 0.599755 0.043734
-0.320707 -0.158951 -0.704176
-0.315249 0.604536 -0.697953
0.790565 -0.112795 0.400917
0.056158 0.576062 -0.322455
0.790509 -0.113066 0.400720
-0.312700 0.605122 -0.699467
0.790631 -0.113624 0.400855
0.441219 -0.094735 0.784649
0.040461 -0.497231 0.062774
0.413294 0.236746 -0.296058
0.390579 -0.476832 -0.294218
0.773451 -0.487305 0.044595
0.390423 -0.474864 -0.297084
-0.321228 -0.159235 -0.704593
0.056166 0.578264 -0.324816
0.045051 0.619043 0.404641
-0.691585 -0.494369 0.050444
0.775363 -0.489165 0.047188
-0.319260 -0.474838 0.420131
-0.336373 -0.510224 -0.337826
0.429693 -0.508749 0.432704
0.436877 -0.121712 -0.681861
0.441835 -0.094358 0.786675
0.428686 -0.507871 0.433401
-0.702277 -0.150874 -0.299878
0.775849 -0.487701 0.046404
0.434738 -0.122713 -0.683617
-0.334853 -0.509144 -0.337291
0.067641 0.263051 0.788139
0.431063 -0.507886 0.433569
0.064798 -0.506065 0.824274
-0.336880 -0.509100 -0.337199
0.443552 0.613581 0.027755
0.039437 -0.496123 0.062135
-0.711026 0.236418 0.036122
0.068857 0.263109 0.789688
-0.705790 0.198474 -0.679808
0.060137 -0.523346 -0.705448
0.430516 -0.509193 0.432472
0.412305 0.236572 -0.298284
0.798305 0.259047 0.052523
0.063461 -0.503289 0.822082
0.060512 0.577759 -0.322760
0.803802 -0.120907 -0.309817
0.439713 -0.093370 0.785300
0.379075 0.231295 0.392334
0.790903 -0.112751 0.398293
-0.344594 0.599374 0.041931
-0.320425 -0.159152 -0.704240
-0.321254 -0.475328 0.420143
-0.311204 0.223418 0.412023
0.791443 -0.111402 0.400768
-0.706812 0.199266 -0.679932
0.389142 -0.473982 -0.295218
-0.711519 0.236240 0.035016
0.391333 -0.474369 -0.295210
-0.311749 0.222759 0.411871
-0.320255 -0.160437 -0.704990
0.377636 0.229425 0.394840
0.377521 0.230265 0.396227
0.057409 0.576726 -0.323381
0.056890 0.229792 -0.689528
0.802526 -0.123948 -0.311235
0.796068 0.259966 0.051277
-0.703880 -0.152293 -0.299047
0.389580 -0.473955 -0.295724
0.039565 0.618425 0.404490
-0.703958 -0.153375 -0.299025
0.443865 0.613854 0.025321
-0.341309 -0.122236 0.796430
0.042998 0.617782 0.404911
0.802169 -0.123694 -0.312145
0.439375 -0.096039 0.787459
0.774617 -0.487846 0.042483
0.376971 0.231804 0.394037
-0.703014 -0.151410 -0.296767
-0.312636 0.604529 -0.700228
0.803998 -0.121951 -0.310437
0.440970 -0.093159 0.785406
0.064479 -0.504430 0.823373
0.440068 -0.096745 0.786522
0.055681 0.229748 -0.685842
-0.711168 0.236703 0.035160
-0.335828 -0.509916 -0.338714
0.443238 -0.094804 0.785926
0.443677 0.613313 0.028542
-0.700238 -0.113903 0.384799
-0.312239 0.602989 -0.699878
0.433071 -0.122897 -0.684431
0.429235 -0.511093 0.434014
0.803559 -0.123571 -0.312210
0.391425 -0.476427 -0.295530
-0.318576 -0.476193 0.420377
0.054475 0.227312 -0.688135
0.069366 0.263443 0.787948
0.803694 -0.122651 -0.309888
-0.314867 0.603020 -0.698201
-0.341746 -0.123393 0.796344
0.054501 0.229602 -0.686018
-0.699206 -0.112940 0.387931
-0.335689 -0.509926 -0.340005
-0.702658 -0.151670 -0.298263
0.378807 0.229083 0.392992
-0.319923 -0.474774 0.420982
0.792654 -0.112717 0.399766
0.064248 -0.504601 0.823231
0.056562 0.577452 -0.323495
0.055893 0.576464 -0.322398
0.427102 -0.507989 0.433160
-0.311034 0.223106 0.409235
0.059171 -0.522799 -0.704598
0.390961 -0.475283 -0.295541
0.443281 0.613640 0.028726
0.791938 -0.111626 0.399950
0.797135 0.259076 0.051930
0.435636 -0.122746 -0.681328
0.790405 -0.113048 0.399343
-0.320683 -0.473649 0.420079
-0.310296 0.222501 0.410976
0.061221 -0.521321 -0.703727
0.802356 -0.123270 -0.310704
0.055630 0.228259 -0.686843
-0.688293 0.589684 -0.335225
-0.690761 -0.492115 0.051541
0.059481 -0.524399 -0.708574
-0.312147 0.223341 0.411916
-0.320455 -0.158771 -0.706385
-0.704383 0.197418 -0.678008
-0.340004 -0.121292 0.797162
-0.697501 -0.114427 0.386653
-0.310355 0.223284 0.409768
-0.321044 -0.158426 -0.704751
0.059604 -0.524060 -0.704593
-0.332722 -0.509464 -0.337838
0.044862 0.617720 0.406671
-0.314191 0.604321 -0.700207
0.061845 -0.501403 0.824056
-0.336065 -0.508492 -0.338561
0.038818 -0.498455 0.062118
0.055649 0.229045 -0.686117
0.411810 0.236342 -0.296902
-0.311814 0.222919 0.410552
0.068353 0.264689 0.788394
0.428670 -0.509522 0.433887
-0.344331 0.598337 0.042569
0.054004 0.228969 -0.687584
-0.322075 -0.475752 0.420261
0.429257 -0.508775 0.432720
0.790713 -0.113370 0.401179
0.391937 -0.473457 -0.295053
0.444515 0.612865 0.028996
-0.319782 -0.159303 -0.707056
0.440041 -0.094311 0.785197
-0.707529 0.199057 -0.679279
-0.698139 -0.115807 0.386981
-0.705254 0.198231 -0.678009
0.773953 -0.488531 0.044384
-0.314853 0.604246 -0.699010
-0.340276 -0.122234 0.796306
0.428160 -0.506868 0.432889
0.037551 -0.497191 0.062840
0.037036 -0.499653 0.061576
0.789842 -0.114204 0.400184
-0.708161 0.197782 -0.679623
0.436648 -0.122411 -0.683712
-0.703705 -0.155260 -0.297676
0.413276 0.235171 -0.295742
-0.711763 0.235721 0.034221
-0.707102 0.200818 -0.681187
-0.312256 0.223608 0.412223
0.803592 -0.121619 -0.311751
0.056632 0.576156 -0.323909
0.378051 0.230367 0.394116
0.440814 -0.095487 0.785109
0.059144 -0.524261 -0.705868
-0.314389 0.604251 -0.699682
0.445059 0.611983 0.028372
0.443496 0.614381 0.026353
0.790955 -0.114120 0.400953
0.413115 0.235507 -0.296937
0.413622 0.235283 -0.298801
0.412038 0.238398 -0.297344
0.378399 0.227781 0.395722
0.058354 -0.523241 -0.704511
0.060130 -0.521227 -0.704221
-0.699573 -0.114850 0.387385
-0.336208 -0.507047 -0.337322
0.068171 0.262028 0.790550
0.803341 -0.123090 -0.311456
0.774106 -0.485552 0.045834
0.444386 0.614050 0.026448
0.803435 -0.120764 -0.312721
-0.699159 -0.112699 0.388430
0.430188 -0.510089 0.432219
0.435362 -0.122186 -0.682941
0.791115 -0.114083 0.398445
-0.334624 -0.509900 -0.338853
-0.698027 -0.113966 0.387923
0.063862 -0.505136 0.823161
-0.321169 -0.477614 0.420346
0.040461 -0.497587 0.062877
-0.713500 0.236909 0.033611
0.054109 0.228630 -0.689548
0.053203 0.228798 -0.687197
0.414009 0.238156 -0.296413
0.789690 -0.112289 0.400891
0.052894 0.228419 -0.687994
0.069863 0.261275 0.790506
0.053300 0.229665 -0.688075
0.412103 0.233833 -0.295899
0.070509 0.264140 0.790220
0.065695 -0.504827 0.824214
0.039503 -0.498174 0.062242
0.061404 -0.505625 0.823801
