OFF
256 0 0
-0.016963 0.870099 0.423954
-0.872525 -0.016945 0.437024
-0.452648 -0.008108 -0.883347
0.441627 0.051764 0.895430
-0.007772 0.865779 -0.448620
0.416596 -0.426679 -0.403857
0.419483 0.436332 -0.413102
0.024624 -0.877874 0.440914
0.432535 0.882302 -0.016680
0.884706 0.407522 0.009076
-0.018127 0.869157 0.423020
-0.437658 0.441183 -0.441086
0.414459 -0.426247 -0.405622
0.448773 -0.011582 -0.862171
0.001806 0.420537 -0.865795
-0.438029 0.440108 -0.442061
-0.439484 0.417790 0.426858
0.455365 -0.862268 0.006475
-0.438548 0.420179 0.428283
-0.431768 -0.012940 0.866996
-0.438718 0.440522 -0.442080
0.450239 -0.013673 -0.862264
-0.440870 -0.427333 -0.427895
-0.453499 -0.009106 -0.883327
0.884661 -0.015162 0.420848
-0.434457 -0.410856 0.386396
0.419814 0.438248 -0.410972
-0.448054 -0.876418 0.014307
0.885272 0.406540 0.006289
0.022813 -0.875833 0.443196
-0.450622 -0.010444 -0.882870
0.450269 -0.012011 -0.861288
0.431055 0.436558 0.430150
0.418677 0.440259 -0.409342
-0.453721 -0.010212 -0.885119
0.000618 0.421758 -0.868719
-0.433259 -0.012039 0.866464
-0.854468 0.011759 -0.430738
-0.432000 -0.012935 0.867125
-0.008826 0.865711 -0.450352
-0.439858 0.417528 0.427848
0.450073 -0.011709 -0.862523
0.016050 -0.880862 -0.434006
0.418781 0.438109 -0.411180
0.884925 0.407084 0.009017
-0.012751 0.440547 0.861948
0.417201 -0.424956 -0.404640
-0.439078 0.443107 -0.441586
0.000046 -0.449300 -0.876056
-0.854565 0.011913 -0.430630
0.867225 0.012804 -0.407458
-0.430480 -0.012306 0.865671
-0.441113 -0.425939 -0.426779
0.001178 0.421404 -0.868236
-0.452065 -0.010267 -0.884465
0.456265 -0.862804 0.006359
0.420691 0.438727 -0.411464
0.019539 -0.879313 -0.433467
0.429854 0.435933 0.429609
0.887675 0.406993 0.006854
0.001353 0.421249 -0.867438
0.433497 0.883117 -0.017351
-0.873670 -0.016800 0.433696
-0.007847 0.868539 -0.451351
-0.873529 -0.459408 -0.006399
0.436020 -0.406669 0.453992
-0.853168 0.011550 -0.431408
-0.007990 0.867555 -0.449836
0.418937 0.439444 -0.409395
0.895833 -0.441689 0.003565
-0.433719 -0.409359 0.387646
-0.873979 -0.015847 0.433688
-0.449794 -0.874847 0.016069
0.897531 -0.441913 0.005910
-0.435139 -0.410727 0.390797
-0.447241 -0.874108 0.013278
0.430691 0.436390 0.430292
0.884718 -0.017423 0.419926
0.437042 -0.403343 0.455413
-0.467278 0.874071 -0.020232
-0.874887 0.435519 -0.012869
0.000207 -0.449114 -0.877689
-0.872851 -0.015999 0.434326
-0.873962 -0.016118 0.435368
0.022775 -0.875678 0.443653
-0.001021 -0.449465 -0.878615
0.868049 0.012760 -0.406962
-0.468050 0.876134 -0.021386
0.431230 0.883698 -0.018375
0.010605 -0.430039 0.874298
-0.018409 0.868014 0.424531
-0.872687 -0.015812 0.434345
0.897120 -0.440638 0.003312
0.441486 0.053331 0.893480
0.866063 0.011092 -0.406056
-0.448238 -0.873565 0.015781
0.022422 -0.876976 0.441305
0.420520 0.437528 -0.410666
0.436253 -0.406649 0.452619
0.010092 -0.431656 0.873269
0.450525 -0.012352 -0.862831
0.001388 -0.450202 -0.875325
0.010018 -0.432453 0.873475
-0.448304 -0.875349 0.016696
-0.431041 -0.011685 0.867419
-0.453899 -0.009605 -0.882596
0.433617 0.882266 -0.018213
-0.452350 -0.010975 -0.883358
0.867307 0.014583 -0.406294
0.454904 -0.860962 0.007962
0.011469 -0.430426 0.872407
-0.434723 -0.411581 0.388270
0.885881 0.407458 0.008708
0.456032 -0.861520 0.005989
-0.008691 0.867076 -0.450542
0.456989 -0.861628 0.007836
0.884233 -0.017134 0.418859
0.419956 0.438590 -0.411420
-0.449112 -0.875461 0.014912
-0.854121 0.013760 -0.429233
-0.013240 0.438846 0.861189
-0.439300 0.440011 -0.442767
0.866859 0.011851 -0.405721
0.886614 -0.014732 0.419715
0.436170 -0.404880 0.454553
0.884237 -0.014158 0.420653
0.450208 -0.013075 -0.861535
-0.440757 -0.427623 -0.425268
0.023700 -0.877563 0.440266
-0.874654 -0.017392 0.434970
-0.018372 0.869195 0.422973
0.896667 -0.439585 0.004031
0.022816 -0.875903 0.442133
0.443936 0.054543 0.895152
0.442332 0.054970 0.894409
0.866039 0.012023 -0.405888
0.431335 0.436736 0.429530
-0.467765 0.874723 -0.019751
0.434208 0.881379 -0.014931
0.017645 -0.880120 -0.432474
0.011878 -0.430091 0.873537
0.443840 0.052053 0.895677
0.443064 0.052352 0.893425
-0.875630 0.433438 -0.016199
-0.438164 0.440840 -0.443272
0.431446 0.436433 0.428751
-0.000410 -0.451745 -0.877238
0.456571 -0.862372 0.008589
-0.013144 0.439234 0.860722
0.883639 -0.015935 0.419891
0.430225 0.437693 0.431404
0.447856 -0.010779 -0.863878
0.869620 0.012333 -0.406853
0.428027 0.438525 0.432954
0.430785 0.436825 0.430046
-0.011052 0.865558 -0.449174
0.457676 -0.862372 0.008333
-0.434600 -0.410456 0.387181
-0.431196 -0.011592 0.865652
0.455943 -0.860882 0.008497
0.431508 0.436922 0.428467
-0.440718 0.418842 0.427829
0.001977 -0.449021 -0.876505
0.433359 0.883233 -0.017858
-0.441540 0.418490 0.426356
0.886055 -0.016125 0.419807
0.429605 0.438929 0.428780
-0.875921 -0.017055 0.433784
-0.873500 -0.014728 0.433808
0.435992 -0.405510 0.455135
0.415495 -0.425776 -0.405104
-0.016714 0.869455 0.424021
-0.437043 0.440806 -0.441967
0.886891 0.409338 0.006092
-0.436341 -0.409207 0.387625
-0.008928 0.866128 -0.450686
0.867823 0.012191 -0.405983
-0.441516 -0.428847 -0.424549
-0.008628 0.865815 -0.449839
0.001404 -0.449120 -0.877052
-0.874724 -0.015519 0.435567
0.885289 0.407605 0.009071
-0.440258 -0.425875 -0.426574
-0.439200 -0.426177 -0.425729
0.455552 -0.859628 0.009595
-0.010175 0.866023 -0.451006
-0.466292 0.873892 -0.020032
-0.438848 -0.427984 -0.425551
0.895560 -0.442621 0.004865
-0.437133 -0.408533 0.387317
-0.436238 -0.411388 0.387328
-0.855781 0.011512 -0.432051
-0.452097 -0.008754 -0.883947
0.000348 0.419267 -0.867662
0.870032 0.013123 -0.404289
0.003069 0.419306 -0.866783
0.868334 0.011395 -0.404371
0.416839 -0.425900 -0.404836
0.883918 -0.015593 0.420615
-0.439130 0.419066 0.427193
0.023250 -0.876023 0.441756
-0.441362 -0.427799 -0.425740
-0.441212 0.418734 0.429063
0.016964 -0.880542 -0.434919
-0.000611 -0.449507 -0.877083
-0.432364 -0.013707 0.865325
0.429149 0.438841 0.430871
0.452260 -0.012075 -0.862695
0.432129 0.882696 -0.017730
-0.853777 0.010008 -0.431621
-0.008943 0.867830 -0.448726
-0.440281 0.417468 0.426185
-0.439942 -0.428832 -0.424902
-0.440576 0.419584 0.428150
0.436515 -0.405170 0.454402
-0.873614 -0.015821 0.434383
-0.011725 0.438280 0.860266
0.895888 -0.440441 0.005655
0.884167 -0.014878 0.420253
0.021920 -0.874849 0.440861
-0.009108 0.865191 -0.449997
0.867446 0.013275 -0.405599
-0.466776 0.873260 -0.021126
0.001118 -0.450566 -0.875772
-0.439348 -0.426312 -0.426037
0.448467 -0.011869 -0.862181
-0.435252 -0.409630 0.388141
-0.465052 0.872305 -0.020550
0.434525 0.884263 -0.016333
0.009390 -0.432527 0.872323
0.884135 -0.016898 0.420000
-0.875226 0.434088 -0.014683
0.450858 -0.010557 -0.862716
-0.873470 -0.014539 0.434826
-0.452512 -0.010557 -0.884346
-0.439000 0.440587 -0.443643
0.016851 -0.881285 -0.432911
-0.436028 -0.409447 0.388445
0.456475 -0.860797 0.007781
-0.440752 -0.428411 -0.425921
0.017740 -0.880319 -0.433425
0.895837 -0.440157 0.004739
-0.874304 0.434369 -0.013983
0.018485 -0.880754 -0.433113
-0.452335 -0.009917 -0.885479
0.433848 0.883022 -0.015779
-0.876455 -0.459084 -0.007070
0.000240 0.419379 -0.866943
0.009899 -0.430453 0.873312
0.018660 -0.879437 -0.431698
-0.016799 0.868007 0.423025
-0.010015 0.864716 -0.449440
-0.019190 0.867321 0.422688
0.885145 -0.015309 0.419895
0.432781 0.884037 -0.017232
-0.010216 0.440558 0.859978
