OFF
256 0 0
-0.758094 0.468083 -0.031457
-0.050121 -0.613670 -0.400679
0.304936 -0.584033 -0.049127
-0.024684 -0.236931 0.650171
0.680300 -0.217084 -0.073148
-0.399213 -0.606369 -0.035635
0.675999 -0.572432 0.328208
-0.028703 -0.585699 0.292657
-0.023259 -0.236210 0.648209
-0.032463 -0.585965 0.291173
0.323731 0.500535 0.287764
-0.053547 0.484977 0.654941
-0.758415 0.467490 -0.031947
-0.050437 -0.613846 -0.402213
-0.408587 -0.231296 0.310719
-0.777519 0.113928 0.326764
0.677250 -0.572429 0.327348
-0.390531 0.469595 0.312785
-0.052386 0.484820 0.653084
0.319596 -0.590112 0.684141
-0.050907 -0.616265 -0.400060
-0.398023 -0.605692 -0.036073
0.320041 -0.594278 0.684469
-0.779260 0.115612 0.324913
0.305384 -0.583368 -0.046494
0.643160 0.101944 0.307144
-0.399934 0.463343 -0.395602
0.642426 0.102623 0.306705
0.312258 0.140661 -0.780574
-0.776474 0.113740 0.326429
-0.391460 0.471851 0.314672
0.316767 0.485967 -0.404682
-0.074798 -0.225286 -0.769810
-0.025851 -0.236872 0.650081
-0.409341 -0.231014 0.307555
-0.385666 -0.214458 -0.388075
-0.033605 0.508357 -0.068906
0.643234 0.103540 0.305673
0.643290 0.101597 0.305936
0.702881 0.484521 -0.036775
-0.406044 -0.230902 0.307517
0.678127 -0.218229 -0.072110
0.307794 -0.230716 -0.398106
-0.778905 0.115341 0.324807
-0.398976 -0.607057 -0.036090
-0.035074 0.509931 -0.067008
-0.050716 -0.613036 -0.399965
0.681895 -0.217043 -0.071659
-0.400851 0.462591 -0.396446
-0.029708 -0.586344 0.293376
0.317687 0.486919 -0.403023
-0.390676 0.473521 0.314851
-0.052278 0.482977 0.654854
-0.384858 -0.214767 -0.389961
-0.774932 -0.236541 -0.022894
0.655280 0.137070 -0.411903
-0.778448 0.114963 0.326253
-0.777407 0.121786 -0.389759
-0.030962 -0.586343 0.294551
-0.391093 0.472876 0.314193
-0.413404 0.132371 0.664546
-0.075941 -0.227939 -0.770032
-0.401109 -0.605832 -0.036452
-0.413214 0.132793 0.665303
-0.759147 0.467040 -0.031734
-0.760275 0.467518 -0.031007
0.308800 -0.231988 -0.399740
-0.779817 0.113446 0.327021
-0.777552 0.114577 0.326373
0.317143 0.486319 -0.402392
0.319297 0.485728 -0.403858
0.324434 0.501140 0.287037
0.305648 -0.582567 -0.048198
-0.390939 0.474086 0.313555
0.318483 -0.593219 0.685000
0.323579 0.500106 0.284932
0.675484 -0.572170 0.326228
-0.412826 0.131357 0.662955
0.314434 0.141770 -0.782436
-0.051522 -0.613341 -0.402434
0.677239 -0.572364 0.328278
0.312815 0.139088 -0.781386
0.671239 -0.223732 0.704416
0.654975 0.138797 -0.413362
-0.413213 0.132992 0.663351
0.308085 -0.584629 -0.047607
0.276155 0.132262 0.662319
-0.402518 0.143592 -0.766521
0.322691 0.501829 0.287562
0.321800 0.502773 0.283362
-0.036174 0.479566 -0.755766
0.316444 0.483758 -0.403132
0.324413 0.500173 0.287033
0.642255 0.100955 0.304144
-0.777325 0.121316 -0.389872
0.306446 -0.583393 -0.048380
0.642404 0.104037 0.305205
-0.400563 0.463648 -0.396934
0.309392 -0.230854 -0.398626
-0.031392 -0.584591 0.292988
-0.399853 -0.605911 -0.036572
-0.412958 0.133819 0.663813
0.313828 0.140430 -0.782599
-0.759351 0.467940 -0.032844
0.312717 0.142378 -0.781597
0.676148 -0.572304 0.329260
-0.773479 -0.234536 -0.024781
0.323334 0.499734 0.285316
0.675090 -0.571396 0.327360
-0.759329 0.467449 -0.030797
-0.024836 -0.237785 0.648481
-0.035772 0.477602 -0.756706
-0.398529 0.465439 -0.397946
-0.385438 -0.214064 -0.389131
-0.759294 0.466432 -0.030342
0.670967 -0.224796 0.705041
-0.407435 -0.231367 0.308719
-0.406255 -0.231471 0.306524
-0.398090 -0.607372 -0.035634
0.314493 0.141590 -0.781613
-0.075413 -0.225514 -0.769669
0.317410 0.486258 -0.404757
0.642781 0.101659 0.307189
0.318617 0.484181 -0.402398
0.653940 0.138054 -0.412406
-0.403559 0.144542 -0.767197
-0.052497 -0.613220 -0.399552
0.319769 -0.592842 0.684550
-0.386362 -0.213991 -0.388353
0.323452 0.501252 0.287117
0.305968 -0.583526 -0.047055
0.318960 0.484628 -0.401772
-0.399781 0.465104 -0.395971
0.703741 0.483971 -0.034043
-0.774452 -0.233384 -0.024533
0.307989 -0.229796 -0.397404
-0.777358 0.115954 0.325200
-0.757862 0.466244 -0.030332
-0.076574 -0.225575 -0.769104
0.317002 0.484639 -0.401802
0.676536 -0.572653 0.326534
-0.400252 -0.605180 -0.036272
-0.407071 -0.230793 0.310024
0.322959 0.500813 0.285888
-0.050767 -0.613682 -0.399703
0.676694 -0.571154 0.327374
0.306984 -0.583491 -0.048097
-0.760191 0.468502 -0.034212
0.653979 0.135657 -0.410603
0.673037 -0.223811 0.705950
0.308322 -0.231235 -0.399836
0.306477 -0.583740 -0.048963
0.276176 0.131100 0.662936
-0.776917 0.121336 -0.390813
0.274998 0.131218 0.662146
-0.034255 0.509507 -0.068719
0.654713 0.136486 -0.412057
0.677678 -0.572979 0.327178
-0.405759 0.144603 -0.766317
0.309336 -0.230135 -0.398330
-0.411444 0.132503 0.664634
-0.031113 -0.586614 0.294966
-0.760022 0.467185 -0.032002
-0.389756 0.471422 0.311731
-0.780261 0.113546 0.324368
0.703976 0.483351 -0.035304
0.654834 0.134577 -0.412313
0.318394 0.486822 -0.404513
-0.389989 0.470866 0.313116
-0.024686 -0.235832 0.649207
-0.034021 0.508045 -0.068074
0.655369 0.136158 -0.412383
0.321607 -0.591884 0.682245
0.681277 -0.217201 -0.072609
-0.022528 -0.238553 0.646564
-0.774533 -0.234019 -0.024311
0.644114 0.101895 0.306038
-0.778017 0.119148 -0.388436
-0.023535 -0.236352 0.648279
-0.759595 0.466940 -0.029313
0.702013 0.485193 -0.032237
-0.035092 0.510951 -0.068525
0.319344 -0.593678 0.684083
-0.032130 -0.588746 0.293301
-0.049643 -0.614040 -0.399946
-0.076209 -0.226732 -0.770676
-0.399816 0.464214 -0.397686
-0.400135 -0.605453 -0.036915
-0.412507 0.133533 0.662993
0.653085 0.135815 -0.411456
0.700728 0.482810 -0.035907
0.641845 0.103204 0.307720
0.318336 -0.592523 0.686190
-0.777838 0.114137 0.325466
0.320560 -0.592589 0.684258
0.320226 -0.594525 0.685910
-0.052185 0.482215 0.654890
-0.390958 0.470972 0.314139
0.702714 0.484177 -0.034593
-0.035639 0.479144 -0.756772
-0.775178 -0.234043 -0.024417
-0.391126 0.468828 0.313136
-0.399417 -0.607279 -0.035509
0.319282 -0.593801 0.683995
-0.774883 -0.233600 -0.024400
0.318411 -0.592950 0.684216
-0.035287 0.478996 -0.754858
0.320791 -0.592155 0.683897
0.678683 -0.571890 0.327570
0.306538 -0.583359 -0.046451
-0.049341 -0.614594 -0.400525
-0.411730 0.131762 0.663095
-0.032990 -0.589476 0.293157
0.702489 0.485377 -0.034617
0.672388 -0.224148 0.707074
-0.413143 0.132584 0.662682
-0.411995 0.132020 0.664339
-0.384120 -0.213417 -0.391014
0.324916 0.501466 0.286448
-0.399693 -0.605368 -0.036343
0.680422 -0.217913 -0.073517
0.276106 0.132136 0.664900
-0.026790 -0.236662 0.649411
0.674913 -0.573400 0.328786
-0.383718 -0.214718 -0.388927
0.675287 -0.572849 0.328845
0.310228 -0.228917 -0.398543
0.674865 -0.571875 0.325111
0.275607 0.132357 0.664281
-0.406325 -0.231377 0.309169
0.323042 0.500665 0.284793
-0.389224 0.473522 0.314713
0.675171 -0.572795 0.327171
0.313395 0.143369 -0.782534
0.312660 0.141340 -0.783092
0.655145 0.135421 -0.412904
0.701452 0.484668 -0.035282
0.644486 0.103037 0.306266
0.275863 0.131153 0.662758
-0.051129 0.484119 0.655148
-0.383417 -0.214173 -0.388520
-0.400304 -0.607543 -0.035543
-0.774588 -0.234312 -0.025394
0.676181 -0.572796 0.327731
0.317422 0.486621 -0.404461
0.317708 0.483791 -0.403830
0.311866 0.141631 -0.782771
0.319870 -0.593039 0.684150
0.274906 0.131593 0.661147
-0.032863 -0.587695 0.295671
0.642884 0.103546 0.305871
-0.051922 0.484379 0.654266
-0.776981 0.121893 -0.387560
0.320371 -0.594028 0.683659
-0.390595 0.471604 0.314075
0.275002 0.131752 0.662146
