OFF
256 0 0
-0.385977 -0.218561 -0.384097
0.294135 -0.590554 0.710627
0.700850 0.134067 0.346841
0.302661 -0.587299 -0.043095
-0.818143 -0.239904 -0.066373
-0.383744 -0.219569 -0.383711
-0.412627 0.125453 -0.769979
0.669078 -0.590461 0.349447
-0.386815 0.448590 -0.391154
-0.407877 -0.237035 0.282440
-0.034854 0.488111 -0.027047
0.703215 0.135184 0.345945
-0.402185 0.127823 0.674458
-0.412051 0.479515 0.313561
0.701614 0.136071 0.346824
0.703309 0.135361 0.347793
-0.021276 -0.616752 -0.401542
-0.792867 0.121719 -0.434380
0.301147 -0.589564 -0.045242
-0.044721 -0.600933 0.300189
-0.414979 0.483409 0.314440
0.289877 -0.227334 -0.403636
0.300991 -0.585938 -0.042863
0.295012 -0.591714 0.710204
-0.034085 0.489667 -0.027689
-0.387627 0.447197 -0.388198
-0.042176 0.491490 0.698622
0.686527 0.504786 -0.061375
0.294904 -0.593184 0.711640
0.293624 -0.592571 0.709611
-0.060028 -0.216013 0.674385
-0.792912 0.105726 0.328352
-0.818104 -0.239764 -0.065543
0.703658 0.135066 0.344904
-0.770610 0.485163 -0.040668
0.700506 -0.221079 0.681367
-0.060223 -0.213273 0.674934
-0.385818 0.449518 -0.390475
-0.040451 -0.601661 0.300594
-0.047506 0.499064 -0.786976
0.319788 0.135371 0.686049
0.358552 0.492239 0.316538
-0.794855 0.106542 0.328458
-0.383805 -0.219962 -0.381854
0.315028 0.501745 -0.416665
0.703760 0.135394 0.344989
-0.772929 0.483883 -0.042281
0.294268 -0.590865 0.710326
-0.403336 0.129694 0.673797
-0.413451 0.125602 -0.768012
-0.033467 0.485458 -0.024898
-0.062213 -0.213578 0.675154
-0.406467 -0.237476 0.280974
0.301620 -0.587101 -0.043774
0.322115 0.133630 0.685340
0.300805 -0.586664 -0.044228
-0.045290 0.493078 0.697949
0.700650 -0.221566 0.680558
-0.406635 -0.237132 0.280594
0.301336 -0.586682 -0.044485
-0.044408 0.492034 0.697655
-0.817301 -0.241583 -0.066577
0.672106 -0.216705 -0.052992
-0.405353 -0.236433 0.280586
0.672657 -0.218325 -0.054356
-0.058897 -0.238026 -0.789450
0.312491 0.498985 -0.416128
-0.414410 0.125584 -0.768181
0.294491 -0.592706 0.709994
-0.413699 0.126101 -0.770916
0.309750 0.135358 -0.786149
-0.791336 0.122802 -0.434550
0.295307 -0.592152 0.710632
0.672171 -0.216286 -0.055204
-0.383859 -0.219151 -0.382181
0.312848 0.499820 -0.415599
0.685571 0.505066 -0.059168
0.320187 0.134503 0.684894
0.313672 0.501415 -0.417362
0.668166 -0.589169 0.349188
0.358069 0.490668 0.316137
0.294768 -0.591631 0.711637
0.359236 0.491866 0.316605
-0.771634 0.483204 -0.041899
-0.058546 -0.237784 -0.789415
0.319746 0.132865 0.687766
-0.057628 -0.238618 -0.789582
-0.057309 -0.236993 -0.787320
0.321743 0.132620 0.686571
0.310602 0.136071 -0.787536
-0.043232 -0.602159 0.298897
-0.045922 0.500246 -0.787778
-0.383240 -0.218102 -0.382350
0.290122 -0.227464 -0.403889
0.300011 -0.587930 -0.044655
-0.407040 -0.236817 0.280654
0.686238 0.505634 -0.059337
-0.404819 -0.236783 0.279714
-0.384915 -0.218568 -0.382199
0.293042 -0.592632 0.710995
0.319581 0.131828 0.686407
0.318868 0.134351 0.685973
0.697148 0.125628 -0.448172
0.671649 -0.217940 -0.053493
-0.402537 0.129441 0.674095
-0.386769 0.448266 -0.390042
-0.384847 -0.220581 -0.382096
-0.817210 -0.239090 -0.066859
-0.820305 -0.238475 -0.066234
0.309223 0.138508 -0.784749
0.289371 -0.227819 -0.401766
-0.385758 -0.221050 -0.382688
0.301235 -0.586413 -0.044840
0.309642 0.136692 -0.787239
-0.044956 0.493527 0.695951
0.300851 -0.586938 -0.041007
0.320840 0.134701 0.685323
0.671779 -0.217651 -0.052965
0.291432 -0.228801 -0.403883
-0.061347 -0.213452 0.675608
-0.402333 0.128410 0.675685
-0.023258 -0.617640 -0.401594
-0.791329 0.124185 -0.434399
0.319949 0.134116 0.685112
-0.770832 0.483448 -0.041120
0.667650 -0.589655 0.350314
-0.044726 0.500334 -0.787612
-0.795609 0.106649 0.327155
-0.041635 -0.601252 0.299281
-0.771553 0.483962 -0.040820
-0.388776 0.449353 -0.392540
0.289912 -0.229413 -0.404537
-0.404231 0.128634 0.675009
-0.793809 0.105768 0.327019
-0.791495 0.121745 -0.433557
-0.401891 0.128039 0.675902
-0.042863 -0.602593 0.300383
0.356716 0.491761 0.317761
-0.414502 0.482417 0.312643
-0.382069 -0.219886 -0.382488
-0.422206 -0.601456 -0.057275
0.700744 -0.221172 0.681549
-0.387005 0.450284 -0.390152
-0.405474 0.130169 0.673121
-0.033478 0.486837 -0.025098
0.293921 -0.590965 0.707919
-0.044771 0.494054 0.696793
-0.773028 0.483828 -0.040276
-0.044068 0.492657 0.696996
-0.022002 -0.615954 -0.400183
-0.817539 -0.238702 -0.064410
-0.414924 0.483079 0.314292
0.310370 0.134160 -0.788374
-0.412619 0.125491 -0.768826
0.293624 -0.591785 0.711072
0.292877 -0.592032 0.709391
0.313579 0.501293 -0.415665
-0.771384 0.485392 -0.040607
-0.058797 -0.237633 -0.789194
-0.060374 -0.213532 0.674892
-0.383513 -0.219020 -0.382124
-0.414078 0.482098 0.313198
0.312882 0.499986 -0.416965
0.668290 -0.589489 0.349717
0.308899 0.135429 -0.788799
-0.403352 0.128519 0.673434
-0.385066 -0.220441 -0.384868
-0.383875 -0.220248 -0.384380
0.698186 -0.220899 0.679790
0.698589 0.124692 -0.450463
-0.796298 0.105033 0.329307
-0.413540 0.483520 0.312840
-0.046711 0.500074 -0.786159
-0.406464 -0.236174 0.281094
-0.412995 0.481659 0.313376
-0.414253 0.126581 -0.769699
-0.421020 -0.602891 -0.056126
0.313809 0.501360 -0.415293
-0.383224 -0.218457 -0.384025
-0.419463 -0.602828 -0.057484
-0.059786 -0.211729 0.674615
-0.414470 0.125770 -0.770375
-0.022413 -0.617157 -0.401225
0.321060 0.136581 0.685839
0.309238 0.136178 -0.786645
0.696718 -0.221100 0.677621
-0.790351 0.122556 -0.435090
0.312653 0.500649 -0.416808
0.291449 -0.226961 -0.403351
-0.044156 -0.601610 0.299324
-0.387845 0.448046 -0.389550
-0.408543 -0.237530 0.283225
0.669047 -0.589759 0.348297
-0.046063 0.499512 -0.787885
0.697152 0.126623 -0.449111
0.696528 -0.221297 0.679894
-0.406991 -0.238535 0.281622
-0.414042 0.480672 0.315077
0.702220 0.136294 0.344772
0.668094 -0.589199 0.347690
-0.405633 -0.237222 0.281465
-0.407402 -0.235863 0.282480
-0.403154 0.129532 0.674431
-0.022435 -0.617892 -0.401790
-0.405389 -0.234875 0.280690
-0.418264 -0.603848 -0.057648
-0.791214 0.121688 -0.433589
-0.384874 -0.220705 -0.383082
-0.818051 -0.239861 -0.067757
-0.415532 0.479605 0.315388
-0.034878 0.488030 -0.026750
0.319492 0.135074 0.688299
0.359063 0.490748 0.316937
-0.816831 -0.239159 -0.064675
-0.414731 0.480176 0.315190
0.291338 -0.227085 -0.402573
-0.386595 0.449326 -0.389637
-0.404923 -0.236215 0.280156
-0.404516 0.128872 0.675838
0.308326 0.136467 -0.787130
-0.061433 -0.214217 0.676575
0.668503 -0.218030 -0.055307
-0.412786 0.124938 -0.769535
-0.034847 0.486716 -0.027090
-0.414851 0.125559 -0.769302
0.309299 0.136325 -0.785449
0.289559 -0.227658 -0.403784
-0.034163 0.485957 -0.026342
-0.059692 -0.236786 -0.789857
-0.818074 -0.238843 -0.065253
0.299055 -0.586459 -0.043664
0.300350 -0.587970 -0.041853
-0.772397 0.483398 -0.041313
-0.406407 -0.238043 0.279858
0.291085 -0.227321 -0.402991
0.671923 -0.217825 -0.052826
-0.405484 -0.235861 0.281050
-0.819344 -0.237636 -0.066194
-0.044156 -0.602603 0.301318
-0.789695 0.122929 -0.433108
-0.045052 0.501267 -0.787401
0.289080 -0.228185 -0.403338
-0.057990 -0.237259 -0.789254
-0.046653 0.501430 -0.788987
-0.046477 0.499422 -0.786183
-0.411283 0.123847 -0.767129
-0.790796 0.121583 -0.435736
0.703818 0.133652 0.344222
-0.402245 0.128066 0.673862
-0.045027 0.492234 0.695691
0.318513 0.132579 0.685942
-0.384713 -0.219345 -0.381250
0.291937 -0.225417 -0.402522
0.672566 -0.216984 -0.055209
0.320634 0.134034 0.686540
-0.041933 -0.600176 0.297883
