OFF
256 0 0
-0.419226 -0.227526 0.271920
-0.054983 0.493200 0.697400
-0.775651 0.125053 -0.420100
0.697781 0.146566 -0.399070
0.348639 0.525923 0.329827
-0.413487 0.126423 0.695455
-0.427646 0.128649 -0.782900
-0.442647 -0.611218 -0.050743
-0.767020 0.488277 -0.042738
-0.773786 0.125921 -0.421173
-0.056117 0.457204 -0.805773
-0.443504 -0.609745 -0.048729
0.676652 -0.605688 0.307741
-0.766404 0.488357 -0.043429
0.334989 0.150953 0.680240
-0.817689 -0.212055 -0.056949
0.693782 0.509352 -0.051200
0.308006 -0.605664 -0.073190
-0.418239 -0.227988 0.272106
0.676632 -0.605678 0.307255
0.332977 0.152699 0.681500
0.340718 0.130719 -0.794641
0.310698 -0.614872 0.692942
-0.010331 -0.221327 0.648654
0.676272 -0.605012 0.307193
-0.428688 0.129751 -0.784497
-0.046395 -0.246172 -0.780279
-0.392872 -0.233716 -0.400875
-0.425058 0.494171 0.329661
-0.427867 0.129323 -0.784766
0.346275 0.525806 0.328864
-0.053899 0.457390 -0.806761
0.333754 0.150287 0.683117
0.680852 0.139073 0.318266
0.301339 0.472295 -0.400757
-0.425650 0.494297 0.331369
-0.419428 -0.229953 0.272272
-0.055237 0.493136 0.697368
-0.797655 0.124858 0.325863
-0.394687 0.483760 -0.392454
0.339865 0.128889 -0.793593
-0.394144 0.482499 -0.392104
0.308636 -0.613828 0.691301
0.333148 0.151479 0.681387
0.340320 0.128741 -0.795801
-0.393984 0.480689 -0.392183
0.696425 0.146641 -0.397990
0.301444 0.469904 -0.401095
-0.443295 -0.612399 -0.048073
-0.816587 -0.213516 -0.056497
0.337668 0.129800 -0.795182
-0.419727 -0.227895 0.273322
-0.044461 -0.246771 -0.778934
0.693827 0.509371 -0.050088
0.709919 -0.230588 0.666223
-0.428435 0.126575 -0.783644
0.349074 0.524964 0.330601
-0.396136 0.482034 -0.391324
0.308235 -0.614321 0.692518
-0.767413 0.489330 -0.045981
0.339437 0.130668 -0.795193
-0.393870 -0.232411 -0.403649
0.682112 0.138061 0.318506
-0.063198 -0.629174 -0.399426
0.332996 0.153418 0.682500
-0.416375 0.127576 0.695261
0.349241 0.525004 0.331828
-0.064057 -0.629981 -0.398499
-0.045522 -0.246912 -0.779706
-0.442211 -0.611099 -0.050621
-0.034092 -0.617101 0.306775
-0.395330 0.482500 -0.393213
-0.798060 0.125572 0.326523
-0.008086 -0.222788 0.648014
-0.772230 0.124651 -0.420315
-0.009958 -0.221970 0.646570
0.688399 -0.220443 -0.041566
0.335184 0.152737 0.681136
-0.394276 0.483979 -0.394151
-0.415408 0.127514 0.695577
0.697640 0.149563 -0.398141
-0.062764 -0.628434 -0.399516
-0.429367 0.128562 -0.782351
0.689578 -0.220793 -0.041070
0.347523 0.524584 0.331694
-0.770764 0.125071 -0.421329
-0.392309 -0.231927 -0.401865
0.676564 -0.606323 0.307463
-0.045191 -0.247858 -0.779074
0.697740 0.146979 -0.399203
0.690148 -0.217857 -0.039462
-0.443431 -0.611055 -0.050534
-0.773651 0.124571 -0.421312
-0.797452 0.124850 0.326836
0.334178 0.152376 0.682411
0.347699 0.525429 0.329272
-0.819182 -0.212859 -0.056251
0.678736 0.139839 0.319687
-0.393048 -0.233431 -0.401250
-0.393584 -0.234266 -0.401005
-0.425447 0.495011 0.329627
-0.427109 0.127828 -0.782400
0.676226 -0.605017 0.307297
-0.008970 -0.221818 0.649253
-0.034011 -0.614933 0.307329
0.348751 0.525057 0.331860
-0.767110 0.488238 -0.046407
-0.044475 -0.245617 -0.778577
-0.421617 -0.229898 0.272381
-0.393922 -0.233753 -0.401866
-0.055233 0.457982 -0.806187
-0.818073 -0.212905 -0.056164
0.689384 -0.219567 -0.041783
-0.062364 -0.630329 -0.396998
0.689246 -0.221815 -0.040285
-0.426304 0.495173 0.330765
0.710545 -0.231296 0.664302
0.310188 -0.607625 -0.073388
-0.798684 0.123793 0.326596
-0.049315 0.497072 -0.003551
-0.797996 0.123890 0.326535
-0.045256 -0.247134 -0.779940
-0.047971 0.497820 -0.005680
-0.443357 -0.609165 -0.048651
-0.419352 -0.228800 0.272599
0.307832 -0.612763 0.693527
-0.033187 -0.618234 0.306126
-0.429296 0.129060 -0.783263
-0.443188 -0.611106 -0.048525
-0.394123 0.483170 -0.391425
-0.772801 0.126163 -0.421939
-0.394226 -0.231976 -0.400174
-0.427322 0.129609 -0.783731
-0.034341 -0.616467 0.306632
-0.817892 -0.212139 -0.057400
-0.032854 -0.616242 0.304753
0.677189 -0.605276 0.308437
0.339528 0.129377 -0.794594
-0.048559 0.495336 -0.003926
0.677498 -0.604673 0.309078
0.697570 0.148122 -0.399358
-0.392476 -0.234020 -0.402003
-0.054841 0.495005 0.695935
0.677251 -0.604484 0.306259
-0.047224 0.496474 -0.002452
-0.428275 0.128865 -0.785078
-0.008414 -0.220372 0.647538
-0.773055 0.126036 -0.421700
-0.773589 0.123320 -0.421338
-0.063979 -0.628890 -0.397739
-0.429331 0.128792 -0.783570
0.697602 0.147954 -0.399375
-0.046081 -0.249657 -0.779533
-0.413892 0.127473 0.696012
-0.061172 -0.628299 -0.398266
0.681334 0.137863 0.318761
-0.395665 0.481542 -0.391737
-0.420087 -0.227670 0.271766
-0.008603 -0.221637 0.647593
0.349731 0.525167 0.330081
-0.772595 0.123982 -0.420119
0.692798 0.508022 -0.052067
-0.034961 -0.616044 0.305898
0.676071 -0.605249 0.306261
0.708419 -0.233127 0.665829
0.698248 0.147405 -0.398185
0.308013 -0.605982 -0.074749
-0.032942 -0.617932 0.304551
-0.394879 -0.232928 -0.402540
-0.044092 -0.246327 -0.778424
-0.798215 0.125157 0.324519
-0.010198 -0.221184 0.647605
-0.048092 -0.247429 -0.779786
0.349448 0.525507 0.332700
-0.394999 0.480713 -0.390821
0.297908 -0.214731 -0.371258
-0.428886 0.129610 -0.784083
-0.817596 -0.210214 -0.059366
0.709476 -0.231603 0.666066
0.696495 0.149341 -0.399121
-0.441570 -0.610260 -0.049362
0.680674 0.139952 0.318242
0.689933 -0.220379 -0.039926
-0.797635 0.124591 0.326990
0.298115 -0.215078 -0.372498
0.709398 -0.231610 0.665024
0.680470 0.139514 0.317091
0.681008 0.140031 0.317591
-0.393918 0.481687 -0.392982
0.339744 0.130085 -0.794674
0.308414 -0.606007 -0.075239
-0.425475 0.494878 0.328201
0.339393 0.128526 -0.795718
-0.054797 0.493522 0.695505
-0.419808 -0.230695 0.269700
-0.415617 0.126331 0.694196
-0.044973 -0.248023 -0.778668
0.709975 -0.232039 0.664428
-0.773441 0.127474 -0.420449
0.333267 0.154816 0.682490
-0.394606 -0.232566 -0.402283
0.709124 -0.232125 0.665259
0.308972 -0.605484 -0.074585
-0.429250 0.128209 -0.785219
-0.395891 0.483344 -0.392431
-0.033826 -0.615796 0.306863
-0.054990 0.493496 0.698372
-0.049055 0.495409 -0.002307
-0.794789 0.126223 0.326973
0.679453 0.139520 0.318342
0.691008 -0.220671 -0.039831
-0.394583 0.482456 -0.392205
-0.427836 0.129423 -0.784286
0.696422 0.508364 -0.054200
-0.009592 -0.222582 0.647244
-0.064111 -0.629968 -0.398344
0.309605 -0.613353 0.691730
-0.427826 0.128642 -0.785096
-0.054839 0.457133 -0.807220
0.333402 0.153045 0.683112
-0.035273 -0.616306 0.306850
-0.796540 0.125114 0.326199
0.679805 0.137694 0.317104
0.676143 -0.605049 0.306508
0.680765 0.139116 0.318840
0.676396 -0.605459 0.306549
-0.055386 0.492289 0.695370
-0.055261 0.494188 0.697445
-0.009349 -0.219823 0.647999
0.681623 0.139532 0.318181
-0.429200 0.129236 -0.784722
0.696145 0.147826 -0.398326
-0.055211 0.456230 -0.805794
-0.414384 0.126264 0.694337
-0.414065 0.127027 0.694839
-0.394031 0.484490 -0.393008
-0.428899 0.130368 -0.783367
0.696186 0.148850 -0.397232
-0.818727 -0.212709 -0.056634
-0.767179 0.487530 -0.043682
-0.057265 0.457633 -0.806613
0.689572 -0.220645 -0.041546
-0.415252 0.125632 0.695717
-0.815652 -0.211530 -0.057027
0.689815 -0.220534 -0.040183
0.689459 -0.220665 -0.039975
0.298904 -0.217158 -0.371259
-0.063117 -0.629069 -0.398373
-0.062160 -0.629708 -0.396191
-0.767745 0.487997 -0.041763
-0.055143 0.456867 -0.807974
0.690487 -0.219089 -0.040624
-0.443679 -0.610290 -0.049038
0.697304 0.148823 -0.397543
0.335194 0.151550 0.682308
0.308802 -0.614461 0.693100
