OFF
256 0 0
-0.789765 0.509517 -0.037404
0.314054 0.145201 0.709661
0.329594 0.134151 -0.808923
0.712627 -0.602491 0.361842
0.712557 -0.602084 0.361634
-0.437322 -0.243783 0.308680
-0.419416 0.496843 -0.440934
-0.422182 0.127849 -0.797300
-0.432374 0.114610 0.720328
0.705892 -0.259674 -0.045002
0.320502 -0.236318 -0.431458
-0.055397 -0.224433 -0.784036
-0.793663 -0.241132 -0.030826
-0.055712 -0.224549 -0.782075
-0.785083 0.102386 -0.416477
0.678422 0.120748 0.315526
-0.793141 -0.241972 -0.030336
0.314796 0.144055 0.707686
-0.069678 0.514961 0.708519
-0.043805 0.503921 -0.079842
-0.417097 0.494745 -0.442773
-0.045467 0.503699 -0.080353
0.704510 -0.257561 -0.047515
-0.817286 0.143063 0.343082
0.309256 -0.617316 0.706692
-0.055940 -0.223001 -0.782308
-0.400733 -0.249766 -0.389372
-0.790232 0.508660 -0.037811
-0.819051 0.145771 0.341719
0.675849 0.121525 0.315678
-0.791891 -0.241894 -0.030889
0.320645 -0.235661 -0.431486
0.709739 0.134430 -0.400922
-0.063462 -0.219215 0.703713
-0.058868 -0.225060 -0.782634
-0.818263 0.142838 0.343100
0.712013 -0.601988 0.362470
0.307190 -0.616502 0.706116
0.688775 -0.211779 0.693724
0.319494 -0.234957 -0.431005
-0.793167 -0.240945 -0.029572
0.320526 0.476546 0.308902
-0.423246 0.127262 -0.798889
-0.033275 -0.606848 0.288874
-0.034628 -0.606158 0.287245
-0.789836 0.506707 -0.037119
0.319932 -0.236722 -0.430568
-0.432838 0.115337 0.717731
-0.037272 -0.626893 -0.434031
-0.059601 0.505288 -0.811035
-0.057265 -0.223848 -0.785143
-0.069502 0.516979 0.708806
-0.034885 -0.603871 0.288035
0.320971 0.477703 0.307975
-0.793162 -0.239368 -0.030265
-0.425305 0.128074 -0.798538
0.306900 -0.614833 0.708369
0.308894 -0.619957 0.705117
-0.071046 0.513852 0.708338
-0.059239 0.505204 -0.810386
-0.419279 0.497088 -0.441028
-0.435188 -0.243361 0.307269
-0.792297 -0.240837 -0.030845
0.713425 -0.599987 0.360301
-0.043235 0.504808 -0.081454
-0.057403 -0.222510 -0.783264
-0.423140 0.127723 -0.800198
-0.056104 -0.223184 -0.782476
-0.061881 -0.218767 0.702809
-0.788861 0.506932 -0.036358
0.686454 -0.210837 0.695051
-0.424734 0.127916 -0.799359
0.328028 0.132638 -0.807667
-0.435969 -0.243452 0.307877
0.705571 -0.259492 -0.046539
-0.035679 -0.624402 -0.436882
0.308554 -0.604163 -0.043273
0.713103 -0.602222 0.360902
-0.816275 0.145053 0.342807
-0.789241 0.506841 -0.036187
-0.070474 0.516733 0.707131
0.314051 0.143164 0.708553
-0.789844 0.507871 -0.037527
-0.793169 -0.241188 -0.030584
-0.419381 0.498851 -0.443871
-0.406198 -0.618066 -0.066783
-0.789747 0.507572 -0.039073
-0.401100 -0.247583 -0.390849
0.329986 0.131707 -0.809597
0.320902 0.478727 0.305958
0.314289 0.142330 0.710740
0.311371 -0.606697 -0.043805
0.352715 0.526434 -0.416451
-0.035035 -0.605252 0.288560
0.711409 0.133699 -0.403372
-0.431426 0.113596 0.718895
-0.056218 -0.222933 -0.782883
0.307071 -0.617649 0.706523
-0.035647 -0.605022 0.287502
0.703308 -0.259123 -0.046508
0.731500 0.519104 -0.052102
0.313688 0.144720 0.707299
-0.791344 0.509267 -0.038070
-0.414563 0.484481 0.321996
-0.790593 0.507622 -0.038659
0.687327 -0.212154 0.693527
0.320436 -0.236445 -0.430910
-0.784549 0.103566 -0.416057
0.730830 0.518948 -0.051500
0.320944 0.478782 0.309372
0.320704 -0.236817 -0.432266
-0.414195 0.485089 0.321859
0.676614 0.121121 0.314462
0.729983 0.520019 -0.051226
0.308300 -0.616075 0.704545
0.320471 -0.238122 -0.431521
0.328777 0.133157 -0.808224
0.711679 -0.603643 0.361110
0.729817 0.519254 -0.050148
-0.424326 0.126448 -0.798958
-0.059965 0.503843 -0.810825
-0.419270 0.496646 -0.444596
-0.043288 0.504025 -0.078405
-0.071720 0.517883 0.707499
0.713681 -0.601832 0.360698
0.314903 0.144128 0.709503
-0.038134 -0.627531 -0.435286
-0.059348 0.505824 -0.809802
-0.417265 0.499000 -0.442521
-0.788728 0.507760 -0.037482
-0.043256 0.504295 -0.080630
-0.069752 0.516372 0.708201
0.677785 0.121160 0.314715
0.678653 0.120604 0.314739
-0.418833 0.496229 -0.441435
-0.434194 -0.243091 0.307441
-0.816876 0.145451 0.341872
0.313339 0.144978 0.709464
-0.059008 -0.222312 -0.782834
0.713931 -0.600525 0.361660
-0.071757 0.515843 0.709407
-0.436065 -0.244042 0.307693
0.678105 0.123205 0.313508
-0.426058 0.128261 -0.798784
-0.793748 -0.243081 -0.030582
-0.414494 0.483162 0.322686
0.329419 0.130630 -0.807068
-0.037559 -0.625764 -0.434944
0.306700 -0.617616 0.706024
0.307681 -0.615977 0.705388
0.674618 0.121879 0.314235
-0.061203 -0.219844 0.703957
0.353488 0.524163 -0.414671
-0.072302 0.515485 0.708291
-0.062235 -0.218520 0.705731
-0.400850 -0.246720 -0.390940
-0.069194 0.517360 0.707428
-0.817493 0.145643 0.344075
-0.790074 0.507785 -0.035454
-0.817989 0.145047 0.343735
0.704390 -0.258254 -0.046450
-0.416453 0.484754 0.320951
0.711976 -0.601416 0.362414
-0.416038 0.484266 0.322105
-0.434654 -0.244972 0.307405
-0.789033 0.507083 -0.037098
-0.407485 -0.620264 -0.066761
-0.045758 0.503963 -0.079332
-0.792844 -0.240996 -0.029965
-0.433488 -0.243370 0.306425
-0.063282 -0.220545 0.704927
-0.783528 0.103123 -0.415547
-0.417686 0.497185 -0.442284
0.355195 0.526381 -0.413702
0.319738 -0.235895 -0.432555
-0.057581 -0.223635 -0.785035
0.687009 -0.209845 0.695083
-0.037801 -0.626018 -0.434942
-0.037297 -0.624308 -0.433625
-0.414601 0.484904 0.322725
-0.416542 0.494372 -0.443555
-0.400631 -0.247928 -0.389219
-0.071052 0.518544 0.709141
-0.044363 0.502956 -0.079912
-0.033970 -0.603909 0.288031
-0.406403 -0.619743 -0.066171
0.712036 0.133657 -0.403609
0.676685 0.122437 0.316002
-0.789152 0.506392 -0.039885
-0.436098 -0.244250 0.307670
0.311921 -0.605931 -0.042693
0.308530 -0.616018 0.705703
-0.056324 -0.224936 -0.785041
0.314276 0.143837 0.709756
0.676653 0.120835 0.313398
-0.035764 -0.627234 -0.432963
-0.059682 0.505343 -0.809734
-0.061061 -0.219601 0.703418
-0.056937 -0.223606 -0.782300
0.320551 -0.237359 -0.430025
-0.435645 -0.243431 0.307641
0.689717 -0.211372 0.693765
0.705369 -0.258199 -0.045904
-0.788889 0.507716 -0.037843
-0.435405 -0.245288 0.308821
0.320567 -0.238148 -0.433389
-0.071991 0.516078 0.708158
0.676825 0.122012 0.314124
-0.785029 0.102180 -0.414288
0.676777 0.121879 0.314407
-0.433548 0.116242 0.719660
-0.036865 -0.626824 -0.436464
-0.790465 0.507277 -0.037443
-0.034725 -0.607022 0.288598
0.352974 0.526783 -0.414731
-0.431741 0.112412 0.717325
-0.788562 0.508405 -0.039762
-0.401524 -0.249314 -0.392271
-0.056789 -0.224110 -0.782642
0.320893 0.476993 0.308973
0.711087 0.135175 -0.402716
-0.415685 0.484317 0.324609
0.705664 -0.260182 -0.046285
0.686807 -0.211488 0.693542
0.320919 0.477267 0.306793
-0.435203 -0.245357 0.306746
0.731389 0.519200 -0.052630
0.319146 0.478547 0.307564
0.306259 -0.617251 0.705755
-0.414950 0.483425 0.324158
-0.791477 -0.241939 -0.028831
-0.057949 -0.222697 -0.783495
-0.816967 0.144245 0.342083
-0.035187 -0.604778 0.289056
-0.788724 0.507134 -0.038527
0.331103 0.134428 -0.808086
0.319152 -0.237224 -0.431396
-0.435699 -0.241561 0.308899
-0.061165 0.505812 -0.809703
0.686873 -0.211512 0.694208
-0.034577 -0.625927 -0.432538
0.318935 0.476717 0.308047
0.711132 -0.601065 0.362151
-0.062825 -0.218835 0.704234
-0.434241 -0.243908 0.307497
-0.042322 0.504369 -0.080396
-0.412959 0.483450 0.324382
-0.033081 -0.608738 0.288757
0.677052 0.121637 0.313727
-0.792740 -0.240218 -0.029298
-0.788676 0.507923 -0.038358
-0.062719 -0.218151 0.704813
-0.783335 0.103271 -0.413821
-0.044562 0.504174 -0.080363
0.313383 0.143854 0.710662
0.319388 0.477792 0.309307
