OFF
256 0 0
-0.018230 -0.596520 0.289466
-0.053585 -0.618925 -0.388691
0.339437 0.525706 0.348116
0.319285 -0.612958 0.680264
0.311251 -0.194352 -0.375560
0.318501 -0.612643 0.680771
0.339733 -0.630157 -0.076261
0.323712 0.497810 -0.415580
-0.048185 -0.238990 -0.765592
-0.436131 -0.610181 -0.059192
-0.047791 -0.238269 -0.765154
0.338745 0.525623 0.345448
0.695022 -0.227872 -0.045379
-0.007293 0.513792 -0.019870
-0.445333 0.130034 -0.786523
-0.004874 0.512419 -0.019815
0.336427 0.526678 0.347039
0.341286 -0.632483 -0.074755
-0.443916 0.131086 -0.785879
0.340509 0.525031 0.349627
-0.035770 0.494808 -0.799327
-0.428937 -0.239391 0.315002
-0.444289 0.132037 -0.786311
-0.048471 -0.239304 -0.765748
0.694644 -0.227934 -0.047146
-0.435902 -0.611172 -0.059608
-0.445647 0.129374 -0.784547
-0.056864 0.483541 0.674467
0.341254 -0.631941 -0.073149
0.694829 -0.228655 -0.045376
0.323844 0.498950 -0.414496
0.712073 -0.600799 0.303564
-0.436636 -0.610472 -0.059014
-0.388935 0.487400 -0.433754
-0.058720 0.483111 0.674309
0.323969 0.497158 -0.414235
0.674563 0.491506 -0.044433
0.339799 -0.632897 -0.075633
-0.047034 -0.239160 -0.765535
0.712992 -0.601700 0.301978
0.338998 0.527306 0.346029
-0.006048 0.513167 -0.018649
0.340020 0.526697 0.347306
0.714845 -0.602360 0.303319
-0.055000 -0.620504 -0.387354
0.666155 -0.253326 0.703174
-0.057635 0.483346 0.673801
0.690112 0.142821 0.327863
0.311927 -0.194739 -0.375117
-0.448681 0.113384 0.709018
0.339421 0.526042 0.346674
0.341252 -0.633398 -0.073906
-0.048509 -0.239303 -0.765518
0.676346 0.491973 -0.045679
0.342044 -0.632090 -0.077235
0.710927 -0.601850 0.302981
-0.449613 0.111294 0.707985
0.343140 -0.632463 -0.075968
0.665387 -0.251551 0.701047
0.694502 -0.227433 -0.045846
0.689149 0.140772 0.327678
-0.437179 -0.611907 -0.059168
-0.448362 0.111263 0.707092
-0.414348 0.506684 0.302790
0.341007 -0.633256 -0.076178
-0.813954 0.126618 -0.427291
0.313307 -0.193740 -0.374433
0.694077 0.147237 -0.420245
-0.047651 -0.238170 -0.768337
-0.047379 -0.238132 -0.766748
-0.416026 0.506269 0.302511
-0.018880 -0.598776 0.288246
0.312413 -0.192958 -0.374294
0.320178 -0.614737 0.679273
0.672554 0.492923 -0.044612
-0.444778 0.132142 -0.786234
-0.814520 0.124864 -0.428326
0.691326 0.140797 0.328055
-0.801877 -0.253778 -0.051331
0.311724 -0.194289 -0.375350
-0.034084 -0.237159 0.669475
-0.781303 0.491265 -0.039726
-0.781180 0.494065 -0.038718
-0.443227 0.130285 -0.785600
-0.006031 0.512466 -0.017909
-0.389812 0.487818 -0.432543
0.332089 0.122785 -0.800807
-0.800279 0.135098 0.332542
0.317121 -0.613990 0.679067
0.664956 -0.253821 0.702745
0.333730 0.122107 -0.799601
-0.414705 -0.236485 -0.399427
-0.017480 -0.596509 0.288282
0.690870 0.141323 0.327841
-0.414501 -0.239820 -0.399346
-0.442780 0.131626 -0.786575
0.340682 -0.632684 -0.075364
0.689224 0.140596 0.327495
-0.431010 -0.241283 0.317905
-0.417327 0.509536 0.301709
0.674365 0.492760 -0.044490
-0.416876 0.507341 0.301058
0.325386 0.497480 -0.416758
-0.814958 0.127581 -0.426830
0.688318 0.138851 0.328462
0.665231 -0.251723 0.701911
-0.429646 -0.238340 0.315346
-0.031701 -0.238058 0.671017
-0.057038 0.481101 0.673211
0.333973 0.122643 -0.797599
-0.047982 -0.239744 -0.766225
0.330203 0.148152 0.693000
0.695544 0.149370 -0.419487
-0.443644 0.130264 -0.788033
0.311545 -0.194470 -0.374528
-0.051957 -0.618837 -0.389404
-0.445508 0.131121 -0.786372
0.712192 -0.603162 0.303409
0.673590 0.493801 -0.043194
-0.388819 0.488034 -0.434470
-0.431161 -0.240209 0.316295
-0.414488 -0.238921 -0.398269
-0.415934 -0.239198 -0.398042
-0.800313 -0.254778 -0.051367
0.312021 -0.193956 -0.374636
0.689609 0.140081 0.326762
-0.446759 0.114014 0.707269
-0.057702 0.480903 0.673005
-0.813707 0.125566 -0.427547
-0.800410 0.134894 0.333799
0.689209 0.141250 0.326740
-0.448952 0.113885 0.707308
0.337911 0.527138 0.348735
0.342748 -0.631588 -0.075828
-0.801193 -0.254328 -0.050917
-0.056683 0.481459 0.674212
0.331780 0.123316 -0.799972
-0.431133 -0.240052 0.316364
-0.005848 0.513738 -0.018636
0.313729 -0.194760 -0.375235
0.339930 -0.633490 -0.076764
-0.034935 0.496076 -0.800254
0.340707 -0.633235 -0.075176
0.328643 0.148372 0.694349
0.310865 -0.191650 -0.375421
-0.437845 -0.612289 -0.060089
-0.815222 0.125734 -0.428377
-0.007918 0.510678 -0.019017
0.693250 0.149618 -0.419046
-0.800126 0.134551 0.332923
-0.436040 -0.611037 -0.060009
-0.018005 -0.598134 0.287245
0.688222 0.142075 0.328210
-0.004546 0.512798 -0.020424
-0.800176 -0.254765 -0.050755
-0.436573 -0.610488 -0.059393
0.323183 0.498718 -0.415962
-0.034177 0.495465 -0.799318
0.689591 0.138706 0.328827
-0.798226 0.135661 0.331813
0.692851 0.146430 -0.421207
-0.418254 0.505313 0.302345
-0.781294 0.492316 -0.037486
-0.781830 0.491642 -0.039480
0.690612 0.140297 0.327369
0.713734 -0.600918 0.303402
0.311661 -0.193043 -0.375817
-0.387792 0.488355 -0.433063
-0.056326 0.480727 0.673778
-0.429223 -0.239927 0.315467
-0.444016 0.130896 -0.786518
-0.448180 0.114695 0.706547
-0.035255 0.495278 -0.799828
-0.435747 -0.611129 -0.058119
-0.416347 0.504372 0.302233
0.688351 0.140194 0.327347
-0.814980 0.125205 -0.428232
-0.800857 -0.253263 -0.052732
0.323472 0.498408 -0.415988
-0.390569 0.487405 -0.432553
-0.057423 0.482066 0.673972
-0.048227 -0.239347 -0.767550
-0.048677 -0.240528 -0.767316
0.713997 -0.602391 0.302329
-0.445433 0.131644 -0.785473
-0.800522 -0.253425 -0.050671
-0.415626 -0.238833 -0.400275
-0.019683 -0.595489 0.289255
-0.436331 -0.609434 -0.059246
-0.443674 0.132791 -0.787927
0.327789 0.148691 0.693347
-0.428088 -0.239967 0.315445
0.664287 -0.251440 0.702947
-0.800548 0.134767 0.331762
0.334183 0.122470 -0.799178
0.667654 -0.251729 0.701709
0.311409 -0.195371 -0.374838
0.693713 -0.228084 -0.046571
-0.444570 0.130941 -0.786757
-0.801118 -0.255155 -0.050573
0.336166 0.121229 -0.799528
-0.444907 0.132210 -0.788763
-0.057052 0.482738 0.673873
-0.047932 -0.241364 -0.765584
-0.781068 0.490996 -0.037915
-0.034742 0.496396 -0.800369
0.324132 0.498241 -0.414487
-0.033906 -0.236063 0.671360
-0.446174 0.132860 -0.785991
-0.780898 0.492791 -0.038756
0.664603 -0.252696 0.701911
0.338243 0.525082 0.348047
-0.437373 -0.610380 -0.057961
-0.415124 0.507654 0.300083
-0.006417 0.513534 -0.019904
0.713348 -0.603321 0.304528
-0.036692 0.496215 -0.800599
-0.004547 0.512387 -0.020428
-0.058087 0.482723 0.674981
0.339377 -0.631757 -0.075993
0.341930 -0.633023 -0.074179
-0.388229 0.488325 -0.434299
-0.054637 -0.619677 -0.388028
0.340659 -0.633419 -0.075997
-0.444183 0.130637 -0.786724
-0.388033 0.486855 -0.433990
0.694525 -0.228445 -0.045407
-0.415248 -0.236427 -0.399269
0.689218 0.141859 0.326445
0.340766 -0.630350 -0.073954
0.673015 0.492583 -0.045246
-0.053762 -0.620575 -0.386915
-0.056973 0.482103 0.672625
-0.435967 -0.611513 -0.057276
-0.449867 0.112086 0.708186
0.695721 -0.226736 -0.046758
0.327284 0.148529 0.692909
0.689839 0.140477 0.328079
-0.448291 0.112619 0.708206
0.665514 -0.254214 0.701266
0.712498 -0.601215 0.302839
-0.005465 0.512528 -0.019846
-0.414895 0.505929 0.300079
0.311152 -0.194319 -0.374611
-0.005738 0.512571 -0.020738
0.694738 0.148402 -0.420815
-0.445332 0.128913 -0.787656
-0.047444 -0.238189 -0.769088
0.310276 -0.194070 -0.374988
-0.780732 0.493708 -0.038536
-0.815540 0.126171 -0.428807
0.695155 -0.226954 -0.046158
-0.801435 0.134943 0.332356
-0.799760 -0.255293 -0.051365
-0.435945 -0.611225 -0.058818
0.334737 0.121807 -0.799892
