OFF
256 0 0
0.391516 0.195145 -0.588768
-0.391020 0.588347 0.587282
0.785575 0.198298 0.587820
0.784387 0.196228 0.588399
-0.391701 0.195782 -0.588943
0.784634 0.195869 0.587707
0.395414 -0.588986 0.194447
0.785264 -0.195529 0.197827
-0.002243 -0.195602 -0.587546
0.392813 -0.196468 0.587256
-0.392389 -0.588802 0.194331
0.786249 -0.195039 0.197401
-0.391962 0.196504 -0.588764
0.392304 -0.589553 -0.587983
0.000353 -0.198212 -0.588473
-0.390187 -0.196064 0.587955
-0.785304 0.589495 0.195122
-0.785117 0.588257 0.197127
-0.785002 -0.588150 -0.196553
-0.392559 -0.587303 -0.589697
-0.784191 0.198178 0.586571
0.000653 0.588191 -0.588038
0.001281 0.589756 -0.588390
0.001023 -0.587301 -0.195037
0.391591 0.194480 -0.589657
0.390422 0.589452 -0.194131
0.392339 0.587984 0.588435
0.786600 -0.194687 -0.588599
-0.786150 -0.196133 -0.590552
0.783847 0.194991 -0.195926
-0.000115 0.197021 0.587667
-0.001999 -0.587127 0.588566
0.001482 0.588305 0.195782
0.002205 -0.588675 0.588427
-0.001867 -0.586762 -0.195482
-0.392986 0.589127 -0.196535
0.393708 -0.197011 0.587372
-0.391688 0.590788 -0.196618
-0.000763 0.589045 0.195325
-0.784226 -0.590168 -0.195943
-0.000678 0.196235 0.586728
-0.784256 0.195727 0.588165
0.001092 0.197028 0.588260
0.783100 -0.195731 0.194722
-0.390635 0.586291 -0.196876
0.392412 0.587218 0.588849
0.782746 0.588246 0.195977
-0.786190 -0.587659 -0.195012
0.393228 -0.589515 -0.587983
0.002243 0.588504 -0.589143
-0.785774 -0.588617 -0.195890
0.000954 0.196313 0.588279
0.000345 -0.196087 -0.590444
-0.784862 -0.196203 0.195818
0.784235 -0.196367 0.196036
-0.391917 -0.588486 0.196897
0.000340 -0.587680 -0.195825
-0.784796 0.195258 0.587198
-0.783260 -0.198388 0.197116
0.392635 -0.588852 0.194949
-0.391109 0.589104 0.588930
-0.786307 0.589875 0.195841
-0.393458 -0.589133 -0.589272
0.783672 0.589881 0.193621
0.784228 0.197060 -0.195897
-0.390549 0.586764 0.587555
0.392040 0.195864 -0.589146
-0.392623 -0.197006 0.587118
-0.392193 0.589028 0.588821
0.000310 0.195182 0.587421
-0.000733 -0.587618 0.588640
-0.783493 -0.588231 -0.195884
-0.391854 0.587823 0.587047
-0.392312 0.588324 0.586573
0.000361 0.589742 -0.588525
-0.784297 0.195486 -0.193868
-0.394515 0.587036 0.586903
-0.785858 -0.194940 0.196498
-0.782136 -0.195383 0.194350
0.391856 0.586405 -0.196552
-0.390907 -0.195863 0.587514
-0.392034 0.195341 -0.587499
0.785374 -0.196754 -0.586484
0.391360 -0.588558 0.198385
-0.392508 -0.587563 -0.588093
0.001450 0.587422 0.195786
-0.392288 -0.195850 0.588869
-0.392563 0.588490 -0.196271
0.784622 -0.195506 0.197637
0.784236 -0.588424 -0.197583
-0.393520 0.195757 -0.587390
-0.784907 -0.197087 -0.589242
-0.000488 -0.197270 -0.589225
-0.392872 0.587260 -0.197143
-0.000186 -0.587778 0.587322
0.786188 -0.195693 -0.588538
0.784176 -0.588541 -0.197241
-0.392158 0.197979 -0.587767
-0.783918 -0.196866 0.197041
0.783434 -0.588809 -0.196249
-0.001037 0.194832 0.589747
-0.783746 0.588446 0.195726
0.000046 -0.588547 -0.196216
0.785474 0.195429 -0.196488
-0.783321 0.198011 0.587770
-0.392344 0.589950 0.588677
-0.394707 -0.589297 -0.587805
0.390671 0.196029 -0.586953
-0.783708 0.196490 0.587008
-0.393053 0.588272 -0.197908
-0.392461 0.587331 -0.198366
0.000324 0.588552 -0.589070
-0.001297 0.587550 0.194166
0.783319 -0.588528 -0.197385
-0.000786 -0.589062 0.588772
-0.000134 -0.194369 -0.586947
-0.785663 -0.195257 0.196254
-0.785654 0.197520 0.589163
0.392525 0.587180 -0.196385
-0.392756 -0.197794 0.587158
0.000823 0.194446 0.589304
0.391759 -0.588321 -0.588816
0.784932 0.196982 -0.194329
-0.000942 -0.197183 -0.589507
0.393916 0.196036 -0.589388
-0.393013 -0.587762 -0.588005
0.392695 -0.586723 -0.588138
0.392448 -0.589147 -0.590733
-0.783545 -0.589096 -0.195208
-0.783453 0.197898 0.586380
0.786525 -0.588988 -0.195650
-0.391380 -0.196657 0.587952
0.391495 0.590296 -0.196335
-0.391902 0.589519 -0.196398
-0.391678 0.197070 -0.589236
-0.783000 0.194006 -0.194839
-0.784967 0.199112 -0.197227
0.391568 -0.588736 0.195140
-0.000560 -0.589663 -0.195868
0.782493 -0.195781 -0.588809
-0.783828 -0.197157 0.196019
0.785156 0.197221 0.588355
0.000172 0.588400 -0.588161
-0.786618 0.587610 0.196871
0.392203 0.587770 -0.194896
0.391324 0.199509 -0.588595
-0.783396 0.194857 0.589435
0.393204 -0.588334 -0.588369
0.785349 0.196883 0.587054
0.783886 0.587632 0.196215
-0.391985 0.588554 0.588585
-0.784292 0.196051 -0.196147
-0.784700 -0.588004 -0.196953
0.392555 -0.588456 0.194697
-0.390665 -0.589230 0.196951
-0.392959 0.588402 -0.197707
0.391746 0.587548 -0.195160
-0.782958 -0.197002 -0.588723
-0.000189 0.196031 0.589135
-0.392735 0.196500 -0.588601
-0.392692 0.587559 -0.195574
-0.392260 -0.588391 -0.588316
-0.000271 -0.194439 -0.586696
-0.001456 -0.587127 0.588593
-0.783588 -0.197390 0.197103
0.000417 0.588912 -0.589541
0.392845 -0.588391 0.196084
-0.001063 0.588380 -0.589170
-0.391897 -0.587047 0.195647
-0.392673 -0.196746 0.588374
-0.000562 0.588009 -0.589256
-0.391987 -0.587864 0.196155
0.785569 0.195269 0.590169
-0.782658 0.196803 -0.195362
-0.000813 0.589169 0.196298
-0.391099 0.588371 -0.196531
-0.783399 0.196166 -0.196197
0.392088 0.195608 -0.588426
-0.000456 0.587067 -0.588529
0.783564 -0.195917 0.197435
-0.783236 -0.197506 0.197640
0.785297 -0.587209 -0.195044
-0.393370 -0.587967 -0.590812
0.784828 -0.587970 -0.196383
0.390809 -0.587816 0.196356
-0.000354 0.196743 0.590209
-0.001522 -0.587219 -0.194624
-0.783209 0.194828 0.590353
-0.392103 -0.197447 0.589818
-0.000931 -0.588497 -0.196678
0.000834 -0.586434 -0.197821
0.782349 0.589121 0.196347
-0.394772 0.589392 0.587300
-0.785297 -0.588096 -0.194918
0.392712 -0.194571 0.586879
0.392065 0.586580 -0.196414
0.391024 0.587731 0.586149
0.390600 0.588824 0.587594
0.391581 -0.586926 -0.588265
-0.001011 0.588186 -0.587038
0.785919 -0.588496 -0.196951
-0.390917 -0.586818 -0.587439
-0.393336 0.588392 -0.194875
-0.000839 0.195604 0.587488
-0.784345 -0.588247 -0.195032
-0.000563 0.586325 0.195188
-0.785037 -0.587417 -0.196855
0.786555 0.588027 0.194980
0.786458 0.588600 0.197801
-0.000616 0.587396 0.196181
-0.784873 0.588546 0.196499
-0.392958 -0.196633 0.586897
0.784123 0.196050 -0.195908
-0.002159 0.195752 0.589266
-0.783742 -0.586478 -0.195894
0.391847 -0.588231 -0.588287
-0.001432 0.588113 0.195061
0.783927 0.587959 0.198288
0.390682 -0.589844 0.194952
0.390199 0.196197 -0.588692
0.000844 0.589476 -0.588688
0.392045 0.196791 -0.588169
-0.393002 -0.588263 0.198374
-0.001314 0.588421 0.196260
-0.000656 0.587451 0.194678
-0.000479 -0.587580 -0.194277
0.392068 -0.588831 -0.590631
-0.392206 0.196472 -0.587175
-0.787049 0.192856 0.587667
0.000899 0.194625 0.588551
-0.389387 0.587575 -0.196644
0.784944 0.196485 -0.195382
-0.784436 -0.194456 -0.586953
0.783148 -0.196356 0.194852
-0.392782 0.589167 0.587636
0.001712 0.589186 0.196505
-0.391388 -0.589415 -0.586585
0.001337 0.197648 0.588102
-0.391276 -0.588516 -0.588766
-0.784949 -0.198374 0.195622
-0.391533 0.587766 0.587270
-0.002697 0.589789 -0.587879
0.000226 -0.588979 0.588712
0.784017 0.590391 0.194831
0.784554 -0.589715 -0.195133
0.784285 -0.197254 0.197050
0.392194 0.194351 -0.586810
0.392916 -0.195721 0.589554
-0.000775 -0.590020 0.589103
0.000429 -0.195643 -0.588244
-0.001652 -0.196226 -0.587740
-0.786371 -0.196198 -0.590187
0.784103 0.589325 0.195333
-0.392516 0.197606 -0.588058
0.783160 0.587030 0.198421
-0.785576 0.198162 -0.196505
