OFF
256 0 0
-0.388421 0.590955 0.589441
-0.762610 0.179362 -0.181688
0.392038 -0.566708 0.176229
-0.763264 -0.581007 -0.172065
-0.408639 0.162119 -0.569860
0.004996 -0.201711 -0.562989
-0.408500 0.162029 -0.573754
0.379139 -0.580341 -0.573552
0.364961 0.562318 -0.189648
0.778285 -0.564747 -0.172539
-0.766054 0.177379 -0.181609
0.005263 -0.572852 -0.198327
-0.797301 -0.204336 0.195860
-0.395791 -0.574624 -0.583596
-0.775839 0.572843 0.189867
-0.392707 -0.579574 0.160638
0.778167 -0.565244 -0.173062
-0.762279 0.179099 -0.181881
0.003673 -0.566205 0.552931
0.776512 -0.220781 -0.577398
-0.376529 0.581758 -0.195988
0.392435 -0.141459 0.555420
-0.764076 0.179774 -0.182093
0.001383 -0.566386 0.555135
-0.796929 -0.204614 0.196605
0.772309 0.188292 -0.188079
0.774174 0.220252 0.596225
0.001194 -0.566690 0.554374
-0.004222 0.546178 -0.569057
-0.789572 -0.214881 -0.564896
0.392908 -0.566439 0.175789
-0.773956 0.570270 0.190318
0.773818 0.187505 -0.187806
0.772757 0.218752 0.595598
0.397838 0.160852 -0.548816
-0.389374 0.591162 0.588812
0.777888 -0.566360 -0.173043
-0.387556 0.591789 0.587537
-0.375134 0.582474 -0.194758
-0.763854 -0.582743 -0.170255
-0.390696 -0.578585 0.159019
-0.376883 0.582192 -0.196149
-0.764618 -0.582233 -0.170609
-0.374977 0.583422 -0.194983
0.777382 -0.221669 -0.578831
0.785311 0.570528 0.177763
0.393072 -0.563608 0.175315
0.787749 0.572703 0.177692
-0.765256 -0.581310 -0.172587
0.002048 -0.566509 0.552894
0.774582 0.188675 -0.188359
0.005176 -0.201453 -0.560811
-0.004340 0.547520 -0.569392
-0.016945 0.566573 0.202567
-0.790464 -0.212088 -0.565233
0.788711 0.572278 0.175597
-0.765133 -0.582631 -0.173480
0.005522 -0.572970 -0.198983
-0.390135 0.592015 0.588756
-0.376447 0.581909 -0.195596
-0.001779 0.221516 0.565410
-0.774582 0.572431 0.190948
0.002895 -0.201509 -0.561935
-0.764592 0.177447 -0.182581
0.778790 -0.565580 -0.171082
0.787262 0.572122 0.176719
-0.795474 -0.203495 0.195073
0.779493 -0.566748 -0.171684
-0.763443 0.179228 -0.182203
0.004060 -0.565316 0.553218
0.005583 -0.572371 -0.198375
-0.763860 -0.581755 -0.170708
0.000330 0.220751 0.563438
0.768232 -0.153790 0.203022
-0.408691 0.162525 -0.572648
-0.790541 -0.212180 -0.567371
-0.763466 0.179669 -0.181769
0.401335 0.592780 0.581857
0.773829 0.187552 -0.187381
0.787944 0.572069 0.179090
-0.775557 0.572445 0.190819
-0.776461 0.570671 0.189416
-0.795920 -0.203922 0.196882
-0.763914 -0.581464 -0.171513
-0.789508 -0.213373 -0.565812
0.777245 -0.219719 -0.576745
-0.410172 0.162536 -0.573435
-0.764243 -0.581972 -0.171537
-0.765926 -0.584281 -0.172177
-0.390170 -0.579451 0.161707
0.402513 0.593007 0.583282
-0.752471 0.185050 0.583682
0.771122 -0.155966 0.204567
0.002118 -0.566736 0.553996
-0.791499 -0.212751 -0.565123
-0.015778 0.565791 0.204991
0.775099 0.187018 -0.189077
-0.374903 -0.180820 0.521346
0.778547 -0.566627 -0.172399
-0.004717 0.546663 -0.566873
-0.375403 0.584500 -0.194973
-0.396143 -0.574396 -0.583944
-0.000815 0.220176 0.563303
0.364040 0.562120 -0.187764
-0.749825 0.185008 0.584030
0.786830 0.572014 0.178461
-0.395534 -0.574808 -0.584553
0.397246 0.163013 -0.547483
0.365817 0.562591 -0.189126
0.000444 0.219903 0.561403
-0.392516 -0.572764 -0.585264
-0.000046 0.220918 0.562636
0.367491 0.561525 -0.188658
0.768716 -0.153869 0.201855
0.007012 -0.573089 -0.198041
0.396470 0.161441 -0.546955
-0.391227 -0.577785 0.159875
0.773962 0.187054 -0.189366
0.397958 0.161578 -0.547741
0.778670 -0.564034 -0.172360
0.772896 0.218670 0.597171
0.390403 -0.565848 0.176823
-0.751571 0.182721 0.583498
0.395408 -0.141030 0.551824
-0.763795 -0.581330 -0.173499
-0.790869 -0.213733 -0.564046
0.397562 0.160847 -0.546641
-0.390881 -0.579224 0.161554
0.773921 0.189805 -0.187451
-0.003629 0.546027 -0.569084
-0.004656 0.546119 -0.569499
-0.000085 0.222110 0.564746
0.786683 0.571671 0.178016
-0.751496 0.183028 0.585346
-0.375331 -0.181036 0.521054
-0.374794 -0.181371 0.521133
0.772589 0.220017 0.596933
0.001907 -0.203459 -0.562047
0.772655 0.188399 -0.187323
0.777344 -0.564082 -0.172463
-0.375666 0.582702 -0.194753
-0.000641 0.221426 0.564724
-0.016399 0.567564 0.203432
0.787364 0.574092 0.178631
0.003338 -0.201111 -0.564288
-0.393100 -0.577720 0.162918
0.774396 -0.222037 -0.577824
0.772617 0.219542 0.596743
0.772109 0.219479 0.596362
0.772556 0.221270 0.594483
-0.763265 0.177975 -0.181346
-0.408589 0.160777 -0.571952
0.767822 -0.154607 0.203312
0.776930 -0.221542 -0.579879
0.767534 -0.155852 0.203116
0.003993 -0.202623 -0.562414
0.397006 0.163497 -0.547791
-0.001720 0.218568 0.565290
0.393963 -0.142656 0.552699
0.777961 -0.565690 -0.172033
0.775065 0.219708 0.594713
0.004393 -0.572064 -0.201010
0.774235 0.189386 -0.189480
0.392734 -0.564087 0.176556
-0.388812 0.590240 0.587997
0.767314 -0.153150 0.205723
-0.409299 0.160794 -0.573245
-0.763235 -0.580191 -0.173790
-0.389055 0.593217 0.587441
0.787760 0.569965 0.179194
0.393812 -0.141492 0.553802
-0.407357 0.161339 -0.570735
-0.754022 0.185558 0.586153
0.775886 -0.221296 -0.577391
0.788209 0.571015 0.179296
0.775252 -0.221731 -0.578753
0.786749 0.570819 0.178026
-0.015977 0.565554 0.201636
-0.409140 0.160849 -0.571882
-0.764368 0.180931 -0.182273
0.775977 -0.220871 -0.577207
-0.388775 0.592311 0.589101
-0.408066 0.163121 -0.570779
0.774543 0.187679 -0.189149
-0.016601 0.566635 0.203307
0.788448 0.572292 0.176408
-0.764089 -0.581880 -0.174241
0.773248 0.220741 0.594317
-0.376022 -0.181335 0.519332
-0.014616 0.566997 0.202683
0.774129 0.187241 -0.189182
-0.408795 0.160950 -0.571829
-0.764058 -0.582431 -0.170552
0.777332 -0.220120 -0.578866
0.399338 0.590990 0.582401
0.004231 -0.201431 -0.565432
0.396888 0.162584 -0.547158
-0.751780 0.183520 0.585148
0.397700 0.159687 -0.547503
0.004188 -0.572143 -0.199216
0.776969 -0.563191 -0.172766
0.771976 0.218758 0.593911
0.778252 -0.564600 -0.172242
-0.791454 -0.212908 -0.563609
0.391023 -0.563741 0.176627
0.767249 -0.155999 0.204669
0.769155 -0.154117 0.204502
-0.798186 -0.204369 0.196506
0.365277 0.562578 -0.189130
0.767194 -0.153777 0.203492
0.773347 0.219762 0.597734
-0.001931 0.221899 0.563764
0.004498 -0.202693 -0.564138
0.768701 -0.154635 0.204421
0.776108 -0.222567 -0.579740
0.772047 0.221243 0.594548
-0.795997 -0.205266 0.195479
0.774954 0.187917 -0.188350
0.788492 0.571636 0.175140
-0.000761 0.220114 0.564483
0.776804 -0.221537 -0.578816
0.776608 -0.565576 -0.172806
-0.389049 0.593149 0.588993
-0.791131 -0.214265 -0.565152
-0.376897 -0.182473 0.519512
-0.375959 -0.181010 0.519936
0.773803 -0.220141 -0.576348
0.778794 -0.565523 -0.173874
-0.752764 0.185073 0.584926
0.776372 -0.566833 -0.172681
-0.797867 -0.205289 0.194416
0.378629 -0.579398 -0.571802
-0.764739 -0.583200 -0.171944
0.003061 -0.201621 -0.563785
0.400499 0.593178 0.583325
0.395834 -0.143502 0.553966
-0.003488 0.548096 -0.567575
-0.752618 0.183689 0.584395
-0.373781 -0.179168 0.520195
0.397633 0.160370 -0.548289
-0.389211 -0.579709 0.163296
-0.016477 0.566997 0.204370
0.002840 -0.201998 -0.562918
0.391041 -0.563213 0.176417
-0.006428 0.545261 -0.567618
0.401833 0.592817 0.584260
-0.765108 -0.581732 -0.172379
-0.406982 0.160715 -0.572578
0.393575 -0.140983 0.553408
0.002158 -0.567181 0.555933
-0.791011 -0.213448 -0.565028
-0.389414 0.591170 0.589759
0.365707 0.560885 -0.188594
0.777946 -0.566084 -0.173496
0.396848 0.161541 -0.546678
-0.752212 0.185181 0.584452
