OFF
256 0 0
-0.591654 0.197337 0.783815
0.195518 -0.588124 0.783604
-0.195905 -0.198320 0.786648
-0.195988 -0.197877 -0.785826
-0.588448 0.586617 0.392832
0.587847 -0.197453 0.783280
-0.587913 -0.195861 -0.393669
0.586915 -0.194684 -0.782916
0.587396 -0.588455 -0.393268
0.588579 0.197618 0.394411
0.194535 0.196030 -0.784683
-0.588765 0.196528 0.000599
-0.196604 0.588758 0.783874
0.589791 -0.588180 0.392483
0.587252 -0.588166 -0.393219
-0.196207 -0.589205 -0.390768
-0.196438 0.588668 0.782917
0.588252 -0.587836 -0.391283
-0.197053 0.587464 0.000051
-0.196784 0.588025 -0.000437
-0.587794 0.195201 0.786203
-0.589958 -0.196729 0.392088
0.585898 0.194216 -0.391372
0.587613 -0.195479 -0.784777
0.195449 0.195409 0.782398
-0.587221 -0.197863 -0.393240
-0.194911 -0.588086 0.393618
-0.195901 0.587628 0.783226
0.588916 -0.196505 0.782790
0.194722 0.195305 0.785314
-0.196686 -0.588521 0.394218
0.587747 -0.589745 -0.393134
-0.588465 0.587421 0.393352
-0.588950 -0.196678 0.395801
-0.196874 -0.587449 -0.394521
-0.587734 0.588521 0.392426
0.588010 -0.588569 0.393290
0.588663 0.195211 -0.391532
-0.586835 0.588493 -0.391135
0.589197 0.194857 0.391873
-0.198280 -0.590181 -0.392267
-0.589377 0.196677 -0.786394
0.586959 -0.195676 -0.784845
-0.586813 0.197411 0.784442
-0.588937 -0.196738 -0.392468
-0.588761 0.196175 0.000146
0.196757 -0.586305 -0.783300
0.196330 0.587390 -0.392790
0.196614 0.587126 -0.391799
-0.587123 0.589589 -0.392475
0.588488 -0.588251 -0.392321
-0.587042 0.195169 0.000855
-0.588713 0.587455 -0.394875
0.587237 -0.194995 0.784863
0.588838 -0.195185 0.000259
0.195849 0.197639 -0.786047
0.195554 0.195636 0.785275
0.588353 -0.587036 0.391106
0.195014 0.195681 0.785583
-0.195251 0.589516 -0.782906
0.588386 -0.196223 0.784556
0.196284 0.198156 -0.783944
-0.589565 0.586355 0.391043
0.588753 -0.196489 0.782957
-0.589603 -0.194968 0.392114
0.589564 -0.197328 0.783561
0.196148 0.197807 -0.783636
-0.590592 -0.195497 -0.394058
-0.197012 0.586054 -0.786080
0.195677 -0.587843 -0.000636
0.589206 0.196840 -0.391410
-0.195394 -0.196524 -0.785896
-0.197468 -0.588461 -0.391892
-0.197224 0.589528 -0.783890
-0.194676 -0.587523 0.392032
-0.587321 0.196344 0.783770
-0.195242 -0.196837 0.783873
-0.195768 -0.194894 -0.785499
-0.195045 -0.585654 -0.392024
-0.589939 0.196446 0.784420
-0.591334 -0.197583 0.392440
0.197176 0.588268 0.392396
0.194943 -0.586642 0.000318
0.197018 -0.589029 0.000878
0.588697 -0.197288 0.000332
-0.197128 0.587617 0.784121
0.196216 -0.588715 -0.001182
0.589361 -0.586635 0.392276
-0.195150 -0.195756 -0.786405
0.590324 0.197533 0.390557
0.587857 -0.195191 0.784519
-0.588105 -0.195153 -0.392126
0.588490 0.588707 0.002133
0.195924 0.587329 -0.392379
-0.195026 0.589475 -0.001016
0.198300 -0.589642 -0.782655
0.196096 -0.587524 0.786232
0.194603 -0.588413 -0.001693
-0.586935 0.588702 -0.392154
-0.195758 0.586997 -0.000772
0.588795 -0.590113 -0.392177
0.195468 0.587893 0.393065
0.195452 0.589364 0.390636
0.586630 0.195207 -0.393489
0.589113 0.196655 0.391407
-0.195386 0.588450 0.000988
-0.194987 0.588296 -0.000281
0.196365 0.587051 0.394022
-0.588248 -0.196371 0.394212
-0.195401 -0.197019 -0.783545
0.586931 -0.199215 -0.001065
0.590169 -0.195502 -0.783728
-0.587721 0.589347 0.393814
0.588136 -0.587496 -0.393960
-0.587353 0.196014 -0.786719
0.587906 -0.196353 -0.782408
0.589227 -0.196579 -0.785205
0.197133 -0.588831 0.001177
-0.586861 0.588635 0.391230
0.197314 0.589188 0.393266
-0.588514 0.195744 -0.784963
0.588092 -0.589075 0.392177
-0.588957 0.587926 0.392383
-0.587576 -0.196208 -0.393855
0.196121 0.195640 0.785629
0.587795 -0.196119 0.000631
-0.589374 -0.195668 -0.392452
-0.588290 0.195610 -0.002030
-0.196583 -0.588626 0.391693
0.195483 0.588861 -0.394207
-0.587305 -0.197875 0.393081
0.589022 -0.194535 -0.784895
-0.193685 -0.196015 -0.784846
-0.196020 -0.588183 -0.393417
0.588684 -0.588173 -0.391866
-0.196129 -0.197019 -0.784285
-0.195983 -0.195668 0.783470
0.589326 0.197329 -0.392559
0.588785 0.587542 0.000805
0.589158 0.195521 0.394395
0.196125 -0.588266 0.000415
0.196807 0.197426 0.784232
0.589133 -0.197339 -0.000216
-0.196869 0.590248 0.001057
0.586985 -0.194909 -0.000252
-0.195448 0.587660 0.785197
0.196098 -0.588117 0.783363
-0.588110 0.588659 -0.393491
-0.589597 0.588398 0.391338
0.586607 -0.196947 0.001357
0.590097 -0.197575 0.782345
-0.589215 0.197301 -0.785563
0.589204 -0.197655 -0.001377
-0.196873 -0.587116 -0.392365
0.588355 -0.196815 -0.785876
0.194067 -0.586867 -0.000240
-0.585569 0.195270 0.785353
-0.591345 0.588329 -0.391782
-0.588378 0.195576 0.000798
-0.196407 0.588908 0.000112
0.588298 0.195763 -0.390721
0.588834 -0.197697 0.786143
0.588267 -0.196714 0.000858
-0.196597 -0.586673 0.393261
0.194736 0.586387 0.390683
0.194702 -0.587012 0.783694
0.588307 0.588213 0.002557
0.587135 0.197613 0.392227
0.589372 0.588854 0.001052
-0.194655 -0.588384 0.391267
0.588516 -0.588370 -0.392795
-0.587523 0.199109 0.784015
-0.197207 -0.196744 -0.783525
-0.587073 0.197124 -0.782983
0.195417 0.590365 0.392580
0.196497 0.198085 -0.784873
-0.196778 -0.591010 0.393252
0.195645 -0.589909 -0.783672
0.587818 -0.196102 -0.786326
0.197480 0.197383 -0.784674
-0.196787 0.587174 -0.001179
0.588612 -0.195789 -0.784331
0.589710 -0.589955 -0.392862
-0.195342 0.587491 0.786211
-0.588771 0.195866 -0.001632
-0.196144 -0.587650 -0.391352
0.195867 0.196219 0.785630
-0.588594 0.590072 -0.391860
-0.590041 -0.588276 0.000308
0.589095 0.589322 -0.001241
0.587924 0.196397 -0.391314
-0.588296 -0.588545 0.000536
-0.587601 0.194319 -0.782632
-0.588724 -0.196877 -0.391041
0.587292 -0.588241 0.392218
0.587110 0.585676 -0.001561
-0.196619 0.586858 -0.784564
0.197956 -0.588016 0.000937
-0.588064 0.197762 -0.000304
-0.588499 0.589871 -0.390763
0.587118 -0.196474 0.784965
0.195640 0.193467 0.785944
-0.194486 -0.589006 0.392622
-0.195988 0.587531 -0.000801
-0.586061 -0.196975 0.390619
0.197453 0.195380 0.783729
0.588887 -0.588931 0.391826
0.586236 -0.197498 -0.000427
-0.195834 -0.197168 -0.784157
0.587360 -0.590280 -0.394056
0.588813 -0.195260 -0.784688
-0.587986 -0.589452 -0.001436
-0.588806 0.196293 -0.785067
-0.588658 0.196145 0.000387
0.590587 0.194958 0.391944
0.196291 0.196407 -0.784260
-0.195271 -0.589501 -0.392789
-0.195442 -0.195348 0.784614
-0.588864 0.588124 0.392510
0.196265 0.194594 -0.786056
0.589806 -0.196452 0.785084
-0.587177 -0.196421 0.390095
-0.195299 0.586936 -0.000500
0.587294 0.195071 -0.389973
-0.197622 -0.196331 -0.784832
-0.588224 -0.586427 0.002213
0.196164 0.586933 0.390628
-0.588880 -0.195841 -0.393838
-0.197094 0.588505 0.783640
0.194550 0.586763 0.391789
-0.196034 -0.587405 -0.390475
-0.587826 -0.196453 0.390960
0.587420 -0.586431 0.392091
0.196745 0.195549 -0.784210
-0.195484 0.588308 -0.785017
-0.194290 -0.196225 -0.785574
-0.586919 -0.588526 -0.001347
-0.196684 0.587034 -0.002358
0.197599 -0.588094 0.783077
0.196830 -0.588017 0.000280
0.588704 0.196811 0.391820
0.195908 0.587479 0.392634
-0.587445 -0.591113 -0.001357
-0.586758 0.196067 0.783984
-0.197329 -0.196768 0.783540
0.587903 0.195446 0.393281
-0.195334 -0.588411 -0.392178
-0.197615 0.589249 0.001881
0.588112 0.195282 0.392567
-0.589227 -0.589582 0.000526
-0.194969 -0.197130 0.786076
-0.587661 0.589727 -0.391260
0.196690 0.586920 0.393540
-0.588477 -0.195078 0.391825
0.587847 0.195189 0.393353
0.590417 0.588131 -0.001283
