OFF
256 0 0
0.564325 -0.578849 0.369739
0.555644 -0.182796 -0.001417
0.214422 -0.580488 -0.011999
0.212097 -0.580624 -0.009616
-0.588077 0.184029 -0.011342
-0.207597 -0.596256 -0.390702
0.181260 0.553078 0.374027
0.561655 -0.201273 0.775866
0.584735 0.568186 0.003412
-0.191871 -0.575533 0.391053
-0.590527 0.597430 -0.365279
-0.579808 -0.168764 0.355744
-0.185730 0.580288 0.781875
0.562992 -0.576271 0.368082
0.554582 -0.184697 -0.000081
-0.589443 0.599174 -0.364549
0.200757 0.208736 -0.767162
-0.185375 -0.192061 0.755878
-0.192725 -0.574999 0.387864
0.181136 0.552103 0.374085
-0.182778 -0.192123 0.755241
-0.212450 0.569272 -0.745966
0.182117 0.552211 0.372652
0.184735 -0.568780 0.760528
0.193273 0.558464 -0.379680
0.213229 -0.577328 -0.010502
-0.558038 0.199816 -0.743058
-0.188708 0.577120 -0.016689
0.584879 0.568035 0.005166
-0.590476 0.598476 -0.364000
-0.573754 0.567421 0.385774
0.576412 0.198092 0.389803
0.586312 0.201012 -0.392911
0.560907 -0.199909 0.774722
0.199152 0.206817 -0.767847
0.213752 -0.580008 -0.784442
-0.211893 0.568714 -0.747886
0.198524 0.208217 -0.768977
0.182379 0.551738 0.372340
0.556984 -0.182771 0.000939
-0.585150 -0.573409 0.007947
0.589110 -0.175073 -0.785825
-0.580177 -0.171886 0.355612
-0.556749 0.196857 -0.741974
0.555387 -0.185435 -0.000198
-0.190751 -0.576877 0.390106
0.584962 0.568688 0.006105
0.199943 0.207394 -0.768042
-0.192731 -0.576458 0.389743
-0.206727 -0.596233 -0.391777
0.192088 0.555812 -0.379350
0.561956 -0.572738 -0.404703
0.200074 0.208671 -0.769215
-0.556917 0.197735 -0.742608
-0.585643 -0.575070 0.009963
0.213502 -0.579875 -0.787323
0.586274 0.199680 -0.392259
-0.193764 -0.575462 0.390125
0.586622 0.199716 -0.391465
0.562084 -0.572898 -0.405662
-0.206700 -0.596780 -0.390482
0.198572 0.206661 -0.769423
-0.586654 -0.574754 0.009311
0.577725 0.195952 0.387721
0.564019 -0.577183 0.369779
0.562005 -0.572052 -0.405151
-0.590082 0.596518 -0.366332
-0.187525 0.581517 0.781416
-0.207404 -0.596346 -0.391510
-0.192043 -0.576256 0.390264
0.561932 -0.202297 0.774731
-0.586324 0.181963 -0.011546
-0.584301 0.184694 -0.009685
0.561792 -0.202304 0.775967
-0.163191 -0.192379 -0.740989
-0.188342 0.581848 0.781034
0.212855 -0.579855 -0.012339
-0.571913 0.567702 0.384779
-0.556445 0.195204 -0.743843
-0.186378 0.580602 0.781696
0.214332 -0.578806 -0.009497
-0.557991 0.195955 -0.744220
0.561310 -0.201689 0.775882
-0.187053 0.579392 0.782671
-0.193124 -0.576915 0.389892
0.563659 -0.572731 -0.406264
-0.579432 -0.169666 0.357024
-0.191077 0.577066 -0.015939
-0.186738 0.581217 0.781026
-0.583604 0.183043 -0.011389
-0.569809 0.565750 0.384828
0.212150 -0.579734 -0.786445
0.184725 -0.569495 0.759272
-0.205857 -0.595408 -0.389309
0.578872 0.197391 0.385799
0.213081 -0.580637 -0.785859
-0.570594 0.566041 0.387175
0.580613 0.196911 0.387722
-0.591322 0.598785 -0.365089
-0.212720 0.567043 -0.747361
0.562626 -0.579448 0.368841
-0.595139 -0.209274 -0.358573
-0.592349 0.598176 -0.364999
-0.556596 0.196558 -0.743173
-0.186199 0.580522 0.783241
0.590729 -0.173125 -0.784245
-0.590416 0.599643 -0.364208
-0.586175 0.184031 -0.013568
0.587470 0.202850 -0.391212
-0.595017 -0.208988 -0.355767
0.563266 -0.577430 0.368863
-0.162117 -0.193882 -0.741528
0.562508 -0.573400 -0.405373
-0.188383 0.577509 -0.015339
0.561318 -0.201935 0.776267
0.587765 -0.173331 -0.784654
0.561464 -0.574156 -0.406127
0.585814 0.568156 0.003775
-0.211147 0.569675 -0.746183
-0.208707 -0.597399 -0.390218
0.214236 -0.579434 -0.013096
0.197813 0.209921 -0.766245
-0.556682 0.198531 -0.742570
0.212481 -0.578825 -0.013609
-0.585970 0.183160 -0.012560
0.561703 -0.572379 -0.404745
-0.568063 0.205929 0.758596
-0.188268 0.577191 -0.013398
-0.557304 0.198874 -0.743967
0.584515 0.199389 -0.390975
-0.187817 0.581622 0.780630
0.555156 -0.182333 -0.001539
-0.184276 -0.190675 0.756019
0.197890 0.209140 -0.768755
-0.557805 0.197057 -0.743968
0.579759 0.194483 0.389244
0.210368 -0.580918 -0.785179
0.555478 -0.183619 -0.000807
0.561886 -0.200066 0.773472
0.589239 -0.174715 -0.783646
-0.567898 0.206528 0.757210
-0.591671 0.597825 -0.364083
0.183410 -0.569107 0.759442
0.590865 -0.172858 -0.784282
-0.162528 -0.195393 -0.742493
0.585448 0.202287 -0.391181
0.564292 -0.579487 0.368732
-0.555097 0.198113 -0.745057
0.205549 0.192253 0.792012
-0.556161 0.194957 -0.743656
-0.586055 0.182445 -0.010814
0.585111 0.201649 -0.389018
-0.212240 0.566791 -0.746204
-0.185636 0.580216 0.779207
-0.212861 0.567909 -0.745891
-0.187522 0.580798 0.781052
-0.186740 0.582275 0.781647
-0.588208 0.597659 -0.366987
0.562350 -0.573308 -0.404723
-0.558345 0.197038 -0.743591
0.190173 0.556750 -0.380333
0.203657 0.193146 0.792531
-0.211739 0.568035 -0.747284
0.561279 -0.199329 0.776774
-0.585638 -0.575458 0.009195
-0.579089 -0.169588 0.355786
0.578441 0.197569 0.389537
0.563350 -0.578552 0.371347
-0.163260 -0.196365 -0.742322
0.589946 -0.174325 -0.780866
-0.210082 -0.596147 -0.388916
-0.573679 0.564795 0.384450
0.213402 -0.579976 -0.012069
0.185251 -0.567704 0.760252
0.191772 0.557104 -0.379122
-0.557888 0.195872 -0.742721
0.561511 -0.200857 0.775411
-0.556190 0.198204 -0.743786
-0.183770 -0.191874 0.758054
0.182877 0.551512 0.374062
0.587831 -0.173498 -0.784272
0.212095 -0.579606 -0.011422
-0.591456 0.598117 -0.364149
0.583696 0.567868 0.004009
-0.567218 0.207036 0.757703
-0.188689 0.579953 0.780094
-0.580239 -0.170003 0.354067
-0.585940 0.184006 -0.013536
0.202547 0.193026 0.790440
-0.572802 0.566612 0.386410
-0.566566 0.205538 0.759010
-0.588289 0.598819 -0.365953
-0.207617 -0.595326 -0.391218
-0.556610 0.198034 -0.745075
0.212608 -0.578522 -0.011188
0.555701 -0.183928 -0.000348
0.584194 0.568098 0.004964
-0.592070 0.598046 -0.364433
0.185165 -0.567258 0.757746
-0.189599 -0.574817 0.388049
0.554403 -0.182674 -0.001159
-0.186631 0.579267 0.779433
-0.585702 -0.574744 0.011361
0.192347 0.556770 -0.381533
0.203068 0.192541 0.792363
-0.188602 0.581202 0.782002
0.564474 -0.578188 0.370256
-0.586076 -0.576598 0.008881
-0.213256 0.567881 -0.745942
-0.567926 0.206736 0.759908
-0.567848 0.206991 0.758336
-0.183911 -0.190751 0.754659
0.563157 -0.572736 -0.406542
-0.557335 0.196496 -0.744325
-0.186406 0.582466 0.783124
0.563010 -0.578654 0.369019
-0.589684 0.596638 -0.364868
-0.585450 0.182223 -0.012644
-0.191243 0.576288 -0.013898
-0.191034 -0.577895 0.390221
-0.163396 -0.191033 -0.741548
-0.585393 -0.576464 0.009515
-0.189771 0.577489 -0.013595
-0.187067 0.581910 0.778886
-0.591531 0.599155 -0.363397
-0.191012 -0.576529 0.387981
-0.571072 0.565588 0.385627
0.191272 0.557792 -0.378585
0.577632 0.197781 0.388345
-0.555728 0.196142 -0.743019
0.182724 0.552628 0.372963
-0.573392 0.568249 0.386530
0.589346 -0.174239 -0.782576
0.185067 -0.568098 0.759294
0.564830 -0.578604 0.369051
-0.208165 -0.596214 -0.389936
-0.568716 0.204454 0.758324
-0.185361 -0.192712 0.754871
-0.161698 -0.193897 -0.741909
-0.573201 0.564292 0.384830
0.554266 -0.184700 -0.001964
0.561740 -0.199178 0.777069
0.213261 -0.580703 -0.788852
0.213256 -0.580381 -0.012561
-0.191540 -0.576896 0.388876
0.183114 -0.569498 0.759575
0.181324 0.553546 0.374508
0.590360 -0.174315 -0.783967
0.553561 -0.186113 -0.000899
-0.594539 -0.210640 -0.359263
0.182999 -0.570754 0.759501
-0.593972 -0.208309 -0.358214
-0.207578 -0.595946 -0.389708
-0.578932 -0.171211 0.356420
0.192254 0.557902 -0.381081
0.586571 0.202902 -0.390298
