OFF
256 0 0
-0.179080 0.589702 0.000896
0.191014 -0.574803 0.016161
-0.203378 -0.611630 0.381667
-0.188169 -0.169625 -0.768868
-0.190451 0.573229 0.773135
-0.603689 -0.611638 -0.003052
0.595928 -0.183985 -0.012560
-0.195711 -0.191641 0.759858
0.605123 -0.579313 0.385920
-0.564168 0.583816 -0.393115
-0.592564 0.580290 0.382652
-0.205107 -0.612347 0.383910
-0.606669 -0.611728 -0.003972
0.172284 0.594292 -0.377637
-0.585500 0.182291 0.761192
-0.576265 -0.221926 -0.369061
-0.588673 -0.221719 0.396406
0.171746 0.592631 -0.378847
0.551549 0.213865 -0.367087
-0.562147 0.583114 -0.390889
-0.564969 0.584091 -0.390964
0.187617 -0.575897 -0.795330
-0.585308 -0.224651 0.398050
0.605487 -0.579912 0.387906
0.202058 0.201502 -0.802981
-0.189092 -0.168253 -0.768450
-0.583855 0.183009 0.762928
0.595946 0.194796 0.395666
-0.568370 0.176816 0.003103
0.606151 -0.580829 0.386827
-0.604171 -0.615206 -0.004187
-0.586514 -0.223562 0.396211
0.185529 -0.558653 0.765925
0.199312 0.190816 0.780243
-0.191940 0.582672 -0.783207
-0.563676 0.583971 -0.392006
0.592498 0.193293 0.395606
-0.189600 -0.170531 -0.769452
0.189899 -0.575865 0.015572
-0.191100 0.583936 -0.781647
0.577540 0.586839 0.010266
0.187278 -0.575231 -0.794194
-0.604619 -0.612163 -0.003382
0.568940 -0.186548 0.757298
-0.204424 -0.611633 0.383298
-0.576238 -0.223530 -0.367909
-0.190854 -0.170146 -0.769254
0.186782 -0.556563 0.766367
0.571184 -0.184449 -0.763634
0.594375 -0.185344 -0.014346
-0.192476 0.574868 0.771787
-0.185408 -0.605636 -0.379006
-0.566121 0.179032 0.001468
0.201138 0.200240 -0.804562
-0.588759 -0.222863 0.397832
-0.563784 0.582560 -0.392054
-0.195537 -0.191458 0.758555
0.603678 -0.578723 0.386601
0.576581 0.587484 0.011569
-0.188942 -0.169405 -0.770351
-0.184227 -0.605187 -0.380968
0.596323 -0.184593 -0.014289
-0.567672 0.178401 0.003555
-0.191969 0.574082 0.773045
0.606376 -0.580576 0.387405
-0.575329 -0.224417 -0.369043
0.190488 0.612085 0.414782
0.604824 -0.582410 0.386545
0.595304 0.194840 0.394078
0.606648 -0.578986 0.386332
0.594772 0.194776 0.393563
-0.184862 -0.604110 -0.380322
-0.585173 0.180810 0.762881
-0.179283 0.588405 0.000572
0.200771 0.201080 -0.804022
0.187594 -0.578673 -0.795706
-0.192323 0.583942 -0.783737
-0.560715 0.584450 -0.392007
-0.577434 0.201349 -0.747133
-0.578089 0.201266 -0.749063
0.173396 0.591585 -0.377182
-0.603513 -0.613099 -0.004222
-0.190419 0.574189 0.771700
-0.196616 -0.191533 0.761753
0.171834 0.594970 -0.376645
-0.178587 0.592567 0.000108
-0.195312 -0.192928 0.759668
-0.193486 0.584107 -0.781499
-0.590642 0.581273 0.379911
-0.206159 -0.611685 0.381662
0.598908 -0.586627 -0.422069
0.594736 0.193982 0.395377
0.171292 0.593229 -0.377202
0.192824 -0.577556 0.014756
-0.576489 -0.224113 -0.368599
-0.177778 0.590929 0.002587
-0.192932 0.574845 0.770736
0.191127 0.609848 0.415670
-0.179102 0.589924 0.000753
-0.603640 -0.612487 -0.004703
-0.563903 0.582013 -0.390916
-0.190718 0.583900 -0.781527
0.593623 0.195259 0.395211
-0.564504 0.581135 -0.392181
0.599458 -0.585719 -0.420974
-0.191424 0.575081 0.772998
-0.204913 -0.611559 0.382599
-0.578518 0.202221 -0.748464
-0.585846 -0.223748 0.397148
-0.190289 0.584549 -0.780389
0.604688 -0.579019 0.385734
0.190381 -0.576541 0.014368
0.568778 -0.186081 0.757647
-0.575262 0.201352 -0.746286
-0.188206 -0.168628 -0.769085
0.600624 -0.587185 -0.422130
-0.570102 0.177793 0.002530
-0.195244 -0.191143 0.759838
0.172398 0.592236 -0.378119
0.593995 0.194867 0.395489
-0.185067 -0.603794 -0.380432
0.603807 -0.579987 0.386106
0.190566 -0.577368 0.017319
-0.594297 0.580639 0.379647
-0.191895 0.572655 0.771102
0.197899 0.191188 0.782047
-0.580138 0.201760 -0.746487
0.595832 0.193096 0.395400
0.569436 -0.185381 0.757354
-0.574877 -0.222315 -0.369224
0.173001 0.594359 -0.377654
-0.567581 0.178899 0.001925
-0.190500 0.585160 -0.781072
0.191295 0.609761 0.416005
-0.585129 0.183303 0.760414
0.598428 -0.586453 -0.422833
-0.585657 0.183511 0.762717
0.598259 -0.586478 -0.421891
0.577168 0.584810 0.009740
-0.563350 0.583997 -0.392585
0.605392 -0.579234 0.386375
0.190334 0.610393 0.415949
0.577486 0.585819 0.010060
-0.195139 -0.193403 0.759521
-0.560327 0.583761 -0.390726
0.595581 -0.183196 -0.013338
-0.189241 -0.169565 -0.769566
-0.191823 0.574931 0.771373
0.202714 0.201342 -0.804775
-0.186718 -0.604489 -0.379306
-0.595430 0.580627 0.380727
-0.204206 -0.611248 0.382960
-0.576440 -0.224492 -0.369719
-0.189322 -0.167815 -0.769914
-0.582613 0.181956 0.765337
-0.183565 -0.604603 -0.379897
0.594659 0.193213 0.394808
0.571461 -0.183742 -0.764449
-0.184404 -0.605698 -0.380564
-0.588713 -0.222115 0.396609
-0.190716 0.573674 0.771685
-0.205096 -0.611220 0.381867
0.567414 -0.186590 0.757650
0.186275 -0.557470 0.765475
-0.588227 -0.222510 0.397063
0.174122 0.591926 -0.377716
0.191101 0.611010 0.415643
0.189624 -0.576765 0.014923
-0.588946 -0.222162 0.395522
0.550673 0.214817 -0.368064
-0.189438 -0.170111 -0.768566
0.603989 -0.579270 0.385478
-0.584995 0.180748 0.763038
0.567590 -0.185373 0.756290
0.196166 0.190735 0.780745
-0.570268 0.178259 0.002236
-0.579268 0.203289 -0.745478
0.173840 0.592694 -0.376695
-0.567051 0.178125 0.001037
0.597403 -0.586462 -0.420503
-0.204296 -0.611989 0.383357
0.569558 -0.186525 0.758276
0.606420 -0.580813 0.386299
0.174447 0.593095 -0.375743
0.190813 -0.577509 0.014885
0.201871 0.201978 -0.802557
-0.195670 -0.191587 0.759836
-0.566757 0.179126 0.001701
0.551922 0.215855 -0.366992
-0.585274 0.181910 0.760285
0.595277 0.193569 0.395921
0.174254 0.590680 -0.376761
0.551924 0.213973 -0.368408
0.187874 -0.556616 0.765956
0.186418 -0.558352 0.765766
0.569441 -0.186831 0.757636
-0.184544 -0.606032 -0.380151
0.606514 -0.578661 0.387758
-0.185195 -0.602985 -0.378976
0.173077 0.591588 -0.376122
-0.576554 -0.225078 -0.370034
0.605668 -0.581758 0.386199
0.197697 0.193267 0.780218
0.187613 -0.576256 -0.794837
0.197759 0.192963 0.782030
0.595447 -0.181943 -0.015064
0.567485 -0.187197 0.757046
-0.603575 -0.612443 -0.004160
-0.203882 -0.611019 0.381395
0.594001 0.195310 0.394813
-0.592232 0.581925 0.381911
-0.592464 0.581924 0.380381
0.201619 0.200934 -0.804994
0.605466 -0.581329 0.385311
0.189201 -0.558393 0.766553
0.203115 0.199893 -0.803263
0.576578 0.586719 0.010338
0.567850 -0.186586 0.755382
0.576300 0.585826 0.009739
-0.577451 -0.224431 -0.368310
0.576615 0.585679 0.010176
-0.178520 0.588892 0.003264
-0.562783 0.584724 -0.392749
-0.198348 -0.192864 0.760546
0.594347 0.195029 0.396553
-0.203115 -0.610383 0.381840
-0.582344 0.181846 0.762407
0.190845 -0.575021 0.016249
-0.206240 -0.611568 0.383011
0.197413 0.192939 0.780206
0.190857 -0.576243 0.015180
-0.586482 -0.222140 0.398427
-0.179151 0.589008 0.002037
-0.585374 0.181272 0.762103
0.190671 0.612273 0.413060
0.606051 -0.578133 0.386524
0.596069 -0.184425 -0.014722
-0.578365 0.202491 -0.747777
0.605394 -0.580074 0.387504
-0.179105 0.591910 0.001910
-0.191287 0.575462 0.772855
0.567215 -0.184828 0.758068
-0.191507 0.574220 0.772667
-0.189808 0.583155 -0.781129
0.603137 -0.579437 0.386678
-0.185115 -0.603819 -0.378996
-0.184552 -0.603853 -0.378543
0.551375 0.216266 -0.367556
-0.560476 0.583686 -0.390050
-0.205288 -0.609898 0.380705
-0.204175 -0.612311 0.383157
-0.593631 0.581434 0.380291
0.569179 -0.186429 0.756846
-0.574524 -0.223596 -0.367395
-0.192971 0.575821 0.772179
0.569387 -0.187531 0.757894
