OFF
256 0 0
-0.652766 -0.320193 -0.039068
0.411222 -0.665425 -0.027166
-0.673659 -0.670125 0.299241
-0.683839 0.025277 0.298968
0.034077 -0.674714 -0.394058
0.762694 0.059977 0.319272
-0.674076 -0.671108 0.297529
0.392703 0.059627 0.678599
-0.282600 -0.314090 -0.392670
-0.675195 -0.669358 0.298600
0.420463 0.754791 -0.036483
-0.321064 0.047206 0.681703
0.780445 0.401036 -0.031683
-0.684009 0.027484 0.296391
0.397706 -0.297356 0.339705
0.391281 0.061896 0.679455
0.020091 -0.315856 0.670574
0.390269 -0.300994 -0.424931
0.022187 -0.314487 0.669405
0.033680 0.407066 0.683080
0.391381 0.061981 0.679184
0.392694 0.060708 0.678336
-0.319221 0.760466 -0.063215
-0.320206 0.758685 -0.064671
-0.320765 0.047023 0.678786
0.047148 0.393864 -0.758968
-0.302974 -0.677387 -0.039072
0.021659 -0.315707 0.668949
0.764581 0.059952 0.316601
-0.675400 -0.670826 0.298412
0.037182 -0.319534 -0.760498
-0.321584 0.412286 -0.394982
0.392455 0.062187 0.678037
0.389292 0.395411 -0.391144
0.766143 0.043771 -0.390679
-0.326874 -0.677627 0.658045
0.766986 0.043354 -0.391979
0.032885 -0.674580 -0.394460
0.421643 0.754361 -0.036585
0.064981 0.773597 -0.392635
0.750920 -0.322764 -0.033649
-0.321940 0.411626 -0.396191
0.765536 0.058409 0.316511
0.409699 -0.665084 -0.025939
-0.654442 -0.317926 -0.037103
-0.303070 -0.676803 -0.037522
0.034679 0.406909 0.681479
-0.319161 0.761028 -0.063836
-0.670837 0.025262 -0.389276
0.063015 0.772587 -0.390649
0.358303 0.387664 0.307253
-0.324479 0.410368 -0.396272
-0.302231 0.381572 0.295651
0.035290 -0.318651 -0.761628
0.032023 0.741756 0.293523
-0.655442 -0.317442 -0.039121
-0.674215 -0.326349 0.663913
0.357713 0.386113 0.306874
0.388001 0.396332 -0.391166
0.033625 -0.672431 -0.394661
0.047059 -0.668086 0.311955
-0.321072 0.760236 -0.064894
-0.311530 0.063273 -0.735196
0.358286 0.388441 0.307415
-0.666996 0.378677 -0.038415
0.033349 -0.675633 -0.394330
0.020717 -0.315723 0.670275
0.045179 0.392058 -0.760574
0.388455 -0.302727 -0.422316
-0.673579 -0.325815 0.661536
0.782760 0.402794 -0.031506
0.046655 -0.666915 0.311329
-0.672293 -0.325147 0.662553
0.387702 -0.301499 -0.427022
-0.319929 0.758130 -0.063487
0.408619 -0.665407 -0.025795
-0.280630 -0.315611 -0.393760
-0.327218 -0.680937 0.656945
-0.327002 -0.678569 0.656778
0.046476 0.392805 -0.759036
0.036530 -0.320411 -0.759871
-0.283256 -0.314490 -0.391263
0.380091 0.041974 -0.754534
0.065106 0.772959 -0.391078
0.037509 -0.319640 -0.760355
0.032274 0.739014 0.295842
0.390781 0.395373 -0.391388
0.380946 0.044113 -0.755384
0.392979 0.062743 0.680463
0.783228 0.400890 -0.030956
0.045611 0.393509 -0.760401
0.033146 0.741762 0.293986
0.036206 -0.319395 -0.760995
-0.311154 0.062665 -0.734448
0.394116 -0.296103 0.339067
-0.652880 -0.320913 -0.037406
-0.667383 0.377559 -0.040037
0.410115 -0.665144 -0.025799
0.779514 0.400687 -0.031339
0.396475 -0.297543 0.338709
0.781268 0.401633 -0.032219
0.046896 0.393609 -0.760881
0.021281 -0.314490 0.670266
0.356450 0.386124 0.309200
0.391371 0.060982 0.678987
-0.319812 0.760277 -0.064527
-0.653923 -0.318216 -0.038650
0.764226 0.061137 0.315520
0.035510 -0.319122 -0.760881
-0.302191 -0.676995 -0.036654
0.036477 -0.320803 -0.761143
0.764557 0.059368 0.315067
0.763565 0.059813 0.317471
0.356658 0.386963 0.306548
-0.684335 0.025989 0.296584
0.381847 0.043636 -0.756190
0.031483 0.406244 0.682529
-0.670821 0.027332 -0.387440
-0.667144 0.377847 -0.037880
0.355329 0.388071 0.306320
-0.670303 0.027048 -0.389260
0.031288 0.739835 0.294398
0.390970 0.394948 -0.392475
-0.321782 0.046779 0.678871
0.046958 -0.667698 0.311932
-0.666129 0.377215 -0.038125
-0.311391 0.062014 -0.735705
-0.684405 0.027015 0.295964
0.419711 0.753267 -0.036017
-0.655275 -0.319672 -0.039242
-0.326186 -0.680366 0.657220
-0.321050 0.048952 0.681078
-0.656030 -0.316767 -0.036884
0.048242 -0.669642 0.312029
0.396618 -0.295162 0.338576
0.392640 0.060886 0.678417
0.031252 0.741094 0.293420
0.381145 0.044634 -0.756360
0.750560 -0.321773 -0.033528
-0.673654 -0.322585 0.662007
0.765561 0.043385 -0.390552
-0.683645 0.025138 0.295738
-0.672563 -0.325496 0.662520
0.033515 0.741807 0.293780
0.766673 0.044238 -0.390229
0.781858 0.402676 -0.033274
0.356357 0.385245 0.307163
0.032247 0.407000 0.682530
-0.282145 -0.314027 -0.391994
0.021191 -0.316070 0.668213
-0.672530 -0.669486 0.298103
0.388681 0.396437 -0.391907
-0.321787 0.410927 -0.396158
0.032867 -0.675659 -0.393879
0.750012 -0.322323 -0.034921
0.780367 0.401900 -0.032869
0.030404 0.405531 0.683305
0.356811 0.386223 0.308138
-0.665417 0.380449 -0.038451
0.021084 -0.315217 0.671288
0.765833 0.044002 -0.388687
0.422792 0.754890 -0.037484
0.387070 -0.302321 -0.424035
-0.675132 -0.669965 0.299775
0.032625 0.407480 0.683488
-0.303466 0.380348 0.296518
-0.310061 0.064206 -0.733381
0.046268 0.393567 -0.758467
0.780193 0.402657 -0.032416
0.036072 -0.319567 -0.760352
-0.302847 -0.678591 -0.037778
0.419871 0.753147 -0.035343
0.762604 0.059475 0.317032
0.046077 0.392888 -0.759264
-0.671685 -0.324014 0.662033
-0.326650 -0.679168 0.657732
0.766779 0.042867 -0.388962
-0.318690 0.046195 0.680960
0.763973 0.043691 -0.390534
0.032223 -0.676618 -0.392497
0.388238 -0.302164 -0.426360
-0.304938 0.379339 0.296774
0.379805 0.043224 -0.754645
-0.665991 0.379840 -0.037937
0.379887 0.043034 -0.755291
-0.325437 -0.677994 0.657621
-0.280975 -0.315342 -0.393413
0.753699 -0.321858 -0.034425
0.390824 0.061010 0.677033
0.048569 -0.669055 0.311935
-0.327868 -0.680411 0.657129
-0.301558 -0.678316 -0.039523
0.380707 0.043376 -0.754272
0.033981 -0.675556 -0.396187
0.781522 0.401893 -0.030829
-0.653510 -0.316606 -0.038247
0.047554 -0.670358 0.311408
-0.682674 0.024100 0.297760
-0.655232 -0.318158 -0.038809
0.019711 -0.316070 0.667411
0.752649 -0.322399 -0.034729
-0.305004 -0.678220 -0.040103
0.781682 0.400663 -0.031678
0.389589 0.061405 0.679215
0.020969 -0.313122 0.669738
0.358902 0.386416 0.306238
-0.671756 0.027071 -0.387570
0.033737 0.407141 0.681263
0.780585 0.402765 -0.031604
-0.667017 0.378612 -0.037929
-0.672278 -0.324838 0.663860
0.038070 -0.317724 -0.759974
0.033924 -0.673613 -0.395708
0.763134 0.057625 0.317215
-0.324259 -0.679570 0.655289
0.395235 -0.294686 0.339642
0.410802 -0.665026 -0.026957
0.781070 0.400098 -0.029313
-0.301355 -0.678216 -0.038097
0.391854 0.061168 0.679433
-0.327931 -0.678595 0.656562
0.383021 0.043125 -0.754813
0.046449 -0.669154 0.311446
0.410700 -0.663775 -0.025444
-0.667093 0.379470 -0.037281
-0.672220 -0.668831 0.297803
-0.666882 0.379028 -0.039574
0.396691 -0.296757 0.337951
0.780495 0.400543 -0.030543
0.421412 0.754053 -0.035429
0.022373 -0.313752 0.667796
-0.301867 -0.676991 -0.038697
0.394515 -0.295455 0.339953
-0.320814 0.760837 -0.063759
0.389879 0.394151 -0.391700
-0.671631 -0.325470 0.662098
-0.281794 -0.315626 -0.393451
0.036558 -0.319191 -0.759747
0.358560 0.385696 0.307791
-0.301513 -0.676365 -0.037679
-0.311378 0.063410 -0.734515
0.764896 0.043018 -0.391811
0.780927 0.398528 -0.029385
-0.326199 -0.681359 0.657662
-0.305207 0.378288 0.295255
-0.320799 0.759786 -0.064596
0.395948 -0.296843 0.337824
0.047118 -0.668522 0.312835
-0.321164 0.047508 0.680307
-0.667613 0.379098 -0.039165
-0.672056 -0.667666 0.298840
0.061699 0.771838 -0.390222
0.752967 -0.323307 -0.034992
-0.669034 0.378044 -0.038678
0.032448 0.406485 0.681648
0.032637 0.742249 0.294672
