OFF
256 0 0
0.051350 0.762538 -0.352601
-0.673850 0.014816 -0.393823
0.754381 0.395345 -0.032079
0.041994 0.747823 0.307143
-0.333050 -0.341329 -0.409106
0.381139 0.415012 0.298978
0.060701 -0.299048 0.702578
-0.683332 0.030364 0.296121
0.431551 -0.307782 0.315901
0.766986 0.071105 -0.405276
-0.676048 0.397755 -0.040334
0.402035 0.034597 -0.781786
-0.325778 0.018049 0.630820
-0.675131 0.017081 -0.393668
-0.292086 0.373864 -0.379052
-0.323009 -0.686342 -0.029455
-0.676889 -0.662881 0.307120
0.040111 0.748424 0.308019
0.753600 0.395263 -0.033816
0.027414 -0.678356 -0.391260
0.386866 0.400506 -0.404080
0.022922 -0.662287 0.342022
0.784418 0.069003 0.332394
0.395264 -0.674433 -0.015354
0.756797 -0.281219 -0.052920
0.752555 0.395034 -0.033869
-0.325627 0.018442 0.629024
0.402634 0.034240 -0.781809
0.786388 0.069735 0.332864
0.385064 0.057157 0.667920
0.755563 -0.279781 -0.053559
-0.688231 -0.332990 -0.051651
-0.311625 0.035674 -0.765864
-0.686998 -0.333354 -0.050304
0.785525 0.069043 0.333647
-0.689056 -0.334476 -0.053291
-0.296332 -0.664305 0.683738
0.021893 -0.663671 0.341583
-0.678351 -0.662603 0.307976
0.397214 -0.674315 -0.012673
-0.293171 0.374270 -0.378066
0.387508 0.400620 -0.404528
0.401886 0.034015 -0.781181
-0.340312 0.748859 -0.043446
-0.332383 -0.337771 -0.409247
-0.675505 0.015180 -0.389157
0.751623 0.395189 -0.034872
-0.670858 -0.320130 0.667336
0.022196 -0.329068 -0.767286
-0.677444 -0.661991 0.306877
0.062001 -0.297061 0.703075
0.022228 -0.329073 -0.766637
0.751214 0.396106 -0.032863
0.023336 -0.661602 0.344315
0.382842 0.413846 0.299060
-0.683251 0.031285 0.293969
-0.295659 0.395982 0.318293
0.051577 0.762914 -0.351729
-0.687450 -0.335415 -0.050507
0.784755 0.072334 0.333919
0.062101 -0.298737 0.704797
0.423889 0.759246 -0.030719
0.022873 -0.661650 0.340816
-0.685810 -0.335212 -0.052042
0.381287 0.415628 0.298011
0.042206 0.748982 0.307534
0.028851 -0.677920 -0.391713
-0.296396 -0.662734 0.683431
0.040828 0.746945 0.307102
-0.292869 0.375767 -0.378212
0.383527 0.058468 0.669103
-0.674740 0.016877 -0.393488
0.403154 0.034674 -0.781608
0.028033 -0.676390 -0.391736
0.061012 0.400888 0.667030
0.423397 0.763130 -0.031631
0.765426 0.070507 -0.406956
0.022780 -0.329250 -0.765382
-0.672622 -0.321557 0.667986
0.061598 0.401073 0.667393
0.051902 0.760785 -0.352461
-0.328237 0.018823 0.629947
0.020383 -0.328925 -0.769533
0.383213 0.415089 0.298728
0.021855 -0.661235 0.342033
0.389846 -0.310322 -0.409359
0.389410 -0.309340 -0.410193
0.402374 0.035010 -0.780566
-0.669960 -0.320024 0.667853
-0.339371 0.750193 -0.044706
0.395885 -0.673464 -0.014559
0.755197 -0.281047 -0.053400
0.394566 -0.671303 -0.012648
-0.296386 0.394690 0.318648
0.060000 0.402375 0.666073
-0.295742 0.394560 0.318321
0.062188 0.400196 0.665323
0.039478 0.407756 -0.781942
0.052883 0.761777 -0.353292
0.383222 0.414801 0.298841
0.381069 0.416903 0.298120
-0.294086 0.395888 0.318518
0.785943 0.069729 0.332870
0.386046 0.058049 0.669078
0.390096 -0.311322 -0.410406
-0.333319 -0.339335 -0.407725
0.382406 0.418160 0.299043
0.422410 0.761160 -0.031467
0.381049 0.416504 0.297407
0.051792 0.761713 -0.352720
-0.687732 -0.333815 -0.050331
-0.326122 0.020155 0.630221
0.422597 0.759204 -0.030433
0.041823 0.408198 -0.780660
-0.321765 -0.684013 -0.030968
0.040782 0.748215 0.307316
0.040044 0.406285 -0.781452
-0.325285 0.018558 0.628860
0.390702 -0.311954 -0.409314
-0.296623 0.394977 0.317468
-0.689253 -0.333909 -0.052273
0.041297 0.408008 -0.781179
0.023030 -0.661459 0.340889
0.756808 -0.280300 -0.053999
0.754310 -0.280158 -0.052764
0.028351 -0.675282 -0.391177
-0.668840 -0.322083 0.668430
0.429298 -0.307415 0.316684
0.397277 -0.674579 -0.014056
0.757546 -0.280707 -0.053889
0.430486 -0.306386 0.315376
-0.674281 0.014187 -0.391463
-0.672683 -0.321487 0.669532
0.383418 0.056798 0.670007
0.756461 -0.281564 -0.055649
0.062199 0.399677 0.665232
0.383793 0.054862 0.671244
0.763479 0.071972 -0.407035
0.053139 0.761072 -0.352589
0.386885 0.400747 -0.405252
0.040203 0.746214 0.308058
0.752498 0.397343 -0.034693
-0.294775 0.393467 0.318210
-0.332741 -0.339054 -0.408517
-0.675500 0.397618 -0.040860
-0.309038 0.036199 -0.765058
0.403050 0.034874 -0.779851
-0.678503 -0.663356 0.308831
-0.292087 0.376162 -0.377844
0.384473 0.416431 0.300488
-0.689767 -0.333331 -0.050432
-0.294421 0.374598 -0.378940
-0.333617 -0.338151 -0.408734
0.430059 -0.306571 0.314962
-0.309191 0.034887 -0.767323
0.391924 -0.310941 -0.411272
0.764889 0.072004 -0.406827
-0.673387 0.014132 -0.390327
0.396987 -0.673003 -0.016242
0.022708 -0.661185 0.341429
0.422356 0.760350 -0.030971
-0.310334 0.035740 -0.764617
-0.296416 -0.662836 0.685909
0.382160 0.414997 0.299092
0.423581 0.760294 -0.030978
0.060940 -0.299246 0.704724
0.020921 -0.328163 -0.766973
0.042124 0.746854 0.306793
-0.340817 0.750503 -0.044811
-0.674159 0.016952 -0.393127
0.022306 -0.328958 -0.766839
-0.669992 -0.321106 0.668201
-0.338317 0.749716 -0.043231
0.059000 0.398217 0.668632
0.020913 -0.663028 0.342476
0.422509 0.761198 -0.029596
-0.313194 0.035220 -0.764937
-0.683101 0.031288 0.295183
-0.686571 -0.335757 -0.051075
0.027998 -0.675996 -0.394104
0.430657 -0.306005 0.315925
-0.682370 0.032384 0.297479
0.422956 0.762963 -0.032059
0.060389 0.401675 0.665788
-0.296105 -0.662918 0.684164
-0.310097 0.036151 -0.766102
0.387235 0.400716 -0.404259
0.382632 0.056373 0.667678
0.785723 0.071466 0.332479
0.752882 0.396984 -0.032857
0.753894 0.396636 -0.032065
0.784341 0.069904 0.333065
0.059021 -0.298343 0.702802
0.041870 0.407099 -0.780926
0.383596 0.416048 0.299019
0.061402 0.398977 0.665329
-0.296186 -0.664274 0.684010
-0.676962 -0.661510 0.306615
-0.312441 0.036257 -0.765026
-0.332147 -0.338269 -0.408022
0.402544 0.035073 -0.781825
0.041314 0.748086 0.307629
-0.331912 -0.339145 -0.408237
-0.673223 0.014280 -0.392338
-0.677504 -0.661917 0.308626
-0.332510 -0.338611 -0.407646
0.022515 -0.329721 -0.767557
0.023055 -0.330390 -0.766343
0.395325 -0.673786 -0.012046
0.402586 0.031891 -0.781352
-0.683410 0.031576 0.296034
0.752758 0.394728 -0.033862
0.396461 -0.673712 -0.013862
0.380664 0.416334 0.297116
0.390536 -0.312062 -0.409181
0.765194 0.072039 -0.405372
-0.685247 0.032143 0.296180
-0.327489 0.019720 0.629494
0.421140 0.761164 -0.030456
-0.298453 -0.662584 0.682626
0.028840 -0.677616 -0.389983
0.753460 0.396691 -0.033064
0.052777 0.761458 -0.355041
-0.688072 -0.335061 -0.052753
-0.328042 0.017378 0.629986
-0.671813 -0.320275 0.670480
0.060952 0.398359 0.667557
-0.674587 0.014315 -0.393123
-0.676894 -0.662364 0.308837
-0.294414 0.395327 0.317261
-0.675873 0.014271 -0.390188
-0.294643 -0.662831 0.685220
0.040590 0.747761 0.307182
0.786655 0.069636 0.332592
0.754351 0.395853 -0.033933
-0.676048 0.396303 -0.042463
0.051603 0.761376 -0.352975
0.022197 -0.659640 0.338651
0.384347 0.401191 -0.404717
0.386329 0.401240 -0.405450
-0.675014 0.016263 -0.392397
0.396243 -0.673139 -0.013871
-0.675140 0.014689 -0.390067
0.420223 0.761505 -0.032904
0.040217 0.747288 0.305881
0.383354 0.415458 0.298992
0.023275 -0.662758 0.342841
-0.291822 0.375305 -0.377703
0.387505 0.399776 -0.405203
0.422608 0.759126 -0.030259
0.052171 0.761612 -0.351586
0.385423 0.401382 -0.405922
0.402026 0.033852 -0.780985
-0.293747 0.395339 0.319985
-0.295581 -0.662845 0.683878
-0.675427 0.397275 -0.042293
