OFF
256 0 0
0.185966 -0.564984 -0.755173
-0.184847 -0.551722 -0.378160
0.187429 -0.565748 -0.754980
-0.587058 0.186045 -0.779504
-0.177847 -0.169905 0.775379
0.583462 0.166231 -0.387541
0.176619 -0.561667 0.746836
-0.185062 -0.201310 -0.795941
-0.178373 -0.169714 0.774292
0.176735 -0.566315 0.743916
-0.579624 0.556034 0.411947
-0.185617 -0.551194 -0.378427
-0.580760 0.556282 0.409908
-0.185371 0.558276 0.027808
0.568020 0.559333 -0.003929
0.176264 -0.563563 0.745828
-0.566197 -0.184010 0.369399
0.561806 -0.179559 -0.776066
-0.575705 -0.557562 -0.009974
-0.586932 0.185508 -0.776841
0.552136 -0.200725 0.741926
0.587932 -0.191506 0.026914
-0.587331 0.184803 -0.779161
-0.580066 0.554923 0.410587
0.568176 0.560932 -0.003004
0.579241 -0.562742 -0.379897
0.560647 -0.179932 -0.775568
-0.185101 -0.551914 -0.379235
0.578751 -0.561529 -0.379662
-0.587248 0.173499 -0.003470
0.210036 0.583589 0.391443
0.201609 -0.567646 0.012885
-0.580223 0.556201 0.411007
0.559773 -0.179497 -0.775718
0.209892 0.584968 0.390915
-0.588232 0.174409 -0.002746
-0.186297 -0.551375 -0.379740
-0.201993 0.564563 -0.751248
0.571941 -0.606150 0.384960
-0.208473 -0.563849 0.358524
-0.179557 -0.169099 0.775260
0.559250 -0.179050 -0.775699
-0.587371 0.172129 -0.002136
-0.563653 -0.176003 -0.414887
-0.587002 0.184693 -0.778843
0.187553 -0.565378 -0.755427
-0.178584 -0.169413 0.774954
-0.582110 0.549184 -0.372502
-0.579912 0.554979 0.409848
-0.203232 0.564846 -0.752952
0.579650 -0.562258 -0.378526
-0.209565 -0.562341 0.360085
0.582492 0.166907 -0.385763
-0.564236 -0.182921 0.372270
0.558546 -0.179175 -0.776367
0.185446 -0.565797 -0.754419
-0.585821 0.185280 -0.779185
0.578919 -0.563483 -0.378636
-0.175825 0.594272 0.786036
0.202213 -0.568041 0.008450
0.582164 0.167566 -0.385953
-0.184302 -0.553108 -0.380378
0.566306 0.561586 -0.004312
-0.203395 0.566755 -0.752509
0.187874 -0.564428 -0.754058
-0.588512 0.185248 -0.777847
-0.176920 0.593301 0.785567
0.558886 -0.178595 -0.776404
0.210183 0.583279 -0.379349
-0.203048 0.565587 -0.751018
0.584603 0.167258 -0.386686
0.587348 -0.193417 0.026349
-0.588032 0.173477 -0.003917
0.212355 0.581603 -0.378690
0.571885 -0.608480 0.386154
0.187521 -0.566008 -0.754451
0.201689 -0.568236 0.011139
0.588829 -0.191799 0.025707
-0.561187 -0.178614 -0.414834
-0.579867 0.557920 0.410100
0.198583 0.209888 0.769424
-0.207455 -0.565971 0.357263
0.573665 -0.605942 0.386772
0.566454 0.561451 -0.002366
0.569936 0.206678 0.381524
-0.179310 -0.169656 0.776155
-0.575348 -0.556172 -0.008802
0.559479 -0.179355 -0.775496
0.174990 -0.562919 0.744330
0.187998 -0.564649 -0.754774
-0.175427 0.592173 0.787504
0.579665 -0.561709 -0.380149
-0.179594 -0.172165 0.777078
-0.571985 0.161834 0.748188
-0.565410 -0.183420 0.370435
-0.585668 0.187793 -0.779760
-0.186731 0.557654 0.030471
0.198075 0.209742 0.769091
0.589093 -0.192317 0.025585
0.553975 -0.200141 0.741494
0.559549 -0.179118 -0.776960
0.587173 -0.193001 0.024869
-0.570657 0.163514 0.747100
0.210240 0.583478 -0.379678
0.188040 -0.565470 -0.755549
-0.186547 0.557436 0.029048
-0.574892 -0.556464 -0.010244
0.585827 -0.191108 0.024927
0.212694 0.583682 -0.379195
-0.562938 -0.179548 -0.414248
-0.588873 0.186082 -0.777303
0.578769 -0.563840 -0.378938
-0.562841 -0.178379 -0.414529
-0.580440 0.557113 0.412265
-0.175265 0.593899 0.784421
0.203013 -0.568367 0.011030
0.202381 -0.568080 0.008986
-0.581641 0.548092 -0.371608
0.199416 0.210416 0.767604
-0.567173 -0.182433 0.369728
-0.186876 -0.550034 -0.380043
0.579382 -0.564884 -0.379992
-0.575711 -0.557876 -0.010490
-0.176067 0.594278 0.786473
0.587890 -0.193764 0.026037
-0.579948 0.556021 0.409324
0.560780 -0.178919 -0.775823
0.554435 -0.200738 0.742155
-0.583130 0.548680 -0.370905
-0.581402 0.548286 -0.372219
-0.582200 0.550352 -0.370659
-0.211359 -0.562738 0.360465
-0.587479 0.185539 -0.779308
0.578888 -0.563142 -0.379258
-0.202785 0.564721 -0.751157
-0.563877 -0.177385 -0.414466
0.553210 -0.199245 0.741402
0.187170 -0.564104 -0.755126
0.176655 -0.562682 0.744560
-0.587623 0.174207 -0.003866
0.174287 0.194140 -0.745919
0.176769 -0.564148 0.742510
0.200506 0.210313 0.769485
0.210396 0.584966 0.393660
0.201365 -0.568696 0.009982
0.559523 -0.180339 -0.774228
0.578292 -0.564465 -0.380659
-0.178437 -0.170957 0.775434
0.189285 -0.565625 -0.755484
0.210110 0.583561 0.391229
-0.201330 0.565488 -0.749637
-0.565551 -0.183026 0.369940
0.174506 -0.562094 0.744808
0.188359 -0.564206 -0.754753
0.586884 -0.191963 0.026044
0.210403 0.584986 0.392548
-0.563062 -0.180373 -0.413847
0.212091 0.580628 -0.377358
-0.183543 -0.552693 -0.379389
0.553460 -0.200365 0.740856
-0.581142 0.548989 -0.372679
-0.177259 0.593989 0.783189
0.560970 -0.177686 -0.774591
-0.565689 -0.177739 -0.416447
-0.586062 0.185171 -0.778814
0.185970 -0.566747 -0.754358
-0.579072 0.555365 0.411954
0.568002 0.559769 -0.001837
0.187023 -0.564599 -0.754929
-0.575223 0.164089 0.749092
-0.571207 0.162163 0.748533
0.186804 -0.565407 -0.754887
-0.178649 -0.169859 0.774556
-0.586226 0.185660 -0.778147
-0.575011 -0.558693 -0.010143
0.570675 0.206196 0.381516
-0.186490 0.558739 0.029718
0.560256 -0.179354 -0.776006
0.570748 -0.606862 0.385180
-0.186231 -0.552567 -0.375452
-0.580275 0.556518 0.411290
0.199999 -0.570930 0.010556
0.212029 0.583031 0.390583
0.571671 -0.606873 0.385818
0.572643 0.207831 0.380773
0.174408 0.195264 -0.747151
0.187684 -0.563588 -0.753743
-0.575576 -0.558652 -0.009419
0.211189 0.584151 0.390654
0.581227 -0.562894 -0.379798
-0.187090 0.558180 0.029518
-0.564099 -0.183620 0.369889
0.209799 0.581469 -0.379707
-0.178688 -0.169758 0.774186
0.579275 -0.562748 -0.379679
-0.185038 -0.204086 -0.792748
-0.562481 -0.177609 -0.414453
0.572900 -0.605823 0.386073
-0.586251 0.186163 -0.778673
0.187439 -0.566717 -0.754436
-0.186461 -0.550561 -0.379614
-0.176291 0.592306 0.784702
0.573092 -0.606582 0.386945
-0.587519 0.184853 -0.779318
-0.587441 0.173885 -0.003595
-0.185414 -0.550769 -0.378242
0.579400 -0.564224 -0.378765
-0.209783 -0.564654 0.357524
0.209950 0.581559 -0.378092
-0.210241 -0.562920 0.356705
-0.563237 -0.177149 -0.413890
0.580334 -0.562537 -0.380382
-0.587471 0.173719 -0.003556
0.559478 -0.180785 -0.774838
0.587157 -0.195329 0.026299
-0.187168 0.556921 0.030102
-0.201216 0.565801 -0.749691
-0.203154 0.566420 -0.752283
0.212120 0.583438 -0.378412
0.175564 -0.563702 0.745666
0.582992 0.166783 -0.386307
0.570418 -0.605087 0.385978
0.577808 -0.563668 -0.379692
-0.208413 -0.564103 0.358500
0.570059 0.206225 0.379794
0.589066 -0.191445 0.026059
-0.588176 0.172419 -0.005196
-0.186291 -0.550652 -0.379774
0.571731 -0.607488 0.385200
0.210843 0.583437 -0.379077
-0.175955 0.593663 0.785994
-0.185870 -0.552366 -0.378755
-0.587696 0.174011 -0.002714
0.557634 -0.181150 -0.772947
-0.579678 0.557141 0.410220
0.575507 -0.606420 0.387177
-0.185512 0.558307 0.029421
0.583869 0.165190 -0.386683
0.570131 0.205935 0.381411
-0.586592 0.173636 -0.003157
0.199345 0.208818 0.768697
0.572076 -0.605903 0.387462
0.202382 -0.571007 0.012361
-0.564569 -0.184915 0.369639
0.199461 0.212555 0.770017
-0.567074 -0.181964 0.369290
-0.210613 -0.564850 0.357771
-0.175626 0.593468 0.783939
-0.179594 -0.169948 0.775391
-0.580532 0.556258 0.410684
0.204560 -0.567172 0.010649
0.212532 0.584087 0.393187
-0.186674 0.558764 0.031786
0.184755 -0.565427 -0.755760
-0.564931 -0.177435 -0.414476
-0.184593 -0.550835 -0.379758
