OFF
256 0 0
0.048042 -0.783749 -0.498472
-0.686054 0.319396 0.602975
-0.685489 0.685984 0.236957
-0.318879 0.686966 0.602521
-0.318681 -0.048222 0.603021
0.781720 -0.415243 -0.130343
0.047506 -0.413773 0.604023
0.781400 -0.047399 0.236207
0.045815 0.687864 -0.498115
0.780890 -0.048782 -0.497858
-0.687894 -0.048346 -0.497338
0.047861 -0.415582 0.604726
0.046664 0.685450 -0.498930
-0.318798 0.685116 -0.130062
-0.686617 0.319975 0.603347
-0.319827 -0.048501 0.604060
0.047302 0.686653 -0.495841
0.048409 -0.782284 0.237114
0.049398 -0.782650 -0.496138
0.413318 -0.780199 -0.131428
0.047037 0.688538 0.235154
0.415532 -0.781932 -0.130011
0.414830 0.686791 -0.128933
0.414494 -0.415017 0.236194
0.413371 -0.416043 -0.498232
0.048314 -0.783216 -0.498357
0.047998 0.686394 -0.497754
-0.687920 -0.412619 -0.130198
0.047223 -0.780202 -0.497711
0.780000 -0.046314 -0.497778
0.778931 -0.047770 -0.496263
-0.687115 0.321371 0.603961
-0.688454 0.319259 -0.131079
-0.687023 -0.047473 0.236948
0.414598 -0.414497 -0.498251
-0.688189 0.320388 0.604556
-0.686758 0.688677 0.236961
-0.319463 0.687021 0.604313
0.413571 0.319189 -0.497461
-0.319774 0.320530 -0.496831
0.781152 -0.045931 0.238753
-0.688055 -0.048273 0.237248
0.045791 -0.782581 -0.497740
-0.320048 0.688774 -0.129798
-0.687969 0.689060 0.237934
-0.686218 -0.047795 -0.499545
0.416566 -0.415803 -0.496937
0.049125 -0.781325 -0.498577
0.781211 -0.046733 -0.497709
-0.320209 -0.047310 0.604170
-0.685599 -0.415283 -0.128415
0.413903 0.317158 0.237271
-0.321188 -0.781890 -0.129145
-0.319554 -0.417149 -0.498351
-0.318096 0.684915 0.603364
-0.319834 -0.415127 -0.497360
0.045551 0.319111 0.603894
0.047007 -0.414747 0.604603
0.412835 0.318543 -0.496001
0.046339 -0.780809 0.239009
-0.320469 -0.047461 0.603631
0.414305 -0.414849 -0.495534
-0.686711 -0.048058 0.238076
-0.686790 -0.048609 0.236657
-0.685847 -0.414431 -0.130253
-0.318542 0.686372 -0.129039
0.048209 0.687307 -0.495130
0.780310 -0.047425 0.238233
0.046212 -0.415092 0.603242
0.048519 -0.414845 0.606068
-0.686960 0.320506 0.604340
-0.321120 0.686011 -0.130417
0.046532 0.321586 0.603575
0.781283 -0.413868 -0.129166
0.417409 -0.413136 -0.498255
-0.319848 0.688998 -0.131583
0.782101 -0.414116 -0.128877
-0.689796 -0.049098 -0.498681
-0.320491 -0.781334 -0.131196
0.414674 0.318699 0.237338
-0.319813 -0.780152 -0.128059
0.781852 -0.046868 0.237663
-0.687890 -0.415179 -0.128997
0.412373 -0.781010 -0.128821
0.414130 0.688055 -0.130046
-0.686413 0.318819 0.604476
-0.318257 0.319705 -0.496454
0.781971 -0.046256 0.237930
0.046329 -0.414670 0.606655
0.412620 0.687722 -0.129211
-0.686989 -0.048029 -0.499194
-0.319954 0.686282 -0.130162
-0.319069 0.321734 -0.498766
-0.320127 -0.415642 0.237027
-0.321098 0.687504 -0.126844
0.413876 0.319903 0.236554
0.048530 -0.782054 0.237055
0.047924 0.687865 -0.497893
0.413674 0.318827 0.236504
0.782108 0.320524 -0.130880
-0.321108 0.687821 0.605082
0.414583 -0.414069 -0.497533
-0.321042 0.319777 -0.496294
-0.318508 -0.781192 -0.129668
0.044282 -0.781754 -0.498401
-0.319329 0.318139 -0.497418
-0.320387 0.687302 -0.131190
0.046504 -0.047530 -0.496610
-0.686952 -0.048498 -0.497831
0.045678 0.686847 -0.497592
-0.320151 0.319630 -0.497073
0.415175 -0.781095 -0.129449
-0.320849 0.685813 -0.128536
-0.687959 -0.045824 0.236912
0.047256 -0.046745 -0.497870
0.047936 -0.780885 -0.497501
-0.685611 0.321720 -0.129753
0.048356 -0.781995 0.239272
-0.319864 -0.414967 0.236717
0.048226 -0.780708 -0.496431
0.781462 -0.047837 -0.498659
-0.318642 0.686220 0.606002
-0.688290 0.686240 0.237767
0.414881 -0.781083 -0.130048
0.414873 -0.412916 -0.497864
-0.688728 -0.413871 -0.129824
-0.320427 0.320686 -0.499003
-0.686999 -0.047551 0.237354
-0.320496 -0.415273 -0.497637
-0.686619 -0.047851 -0.497935
0.047418 -0.045478 -0.497342
0.048144 0.686978 -0.499241
0.782880 0.321767 -0.132631
-0.318544 -0.414706 0.236973
0.782263 -0.413860 -0.130399
-0.319559 0.318771 -0.498121
-0.319442 -0.416292 -0.498405
0.781334 -0.046454 -0.496910
-0.684978 -0.046285 -0.498391
0.049347 -0.414813 0.604806
0.414523 0.318219 -0.496233
-0.320676 -0.047948 0.602428
0.048000 0.687243 0.236763
0.046873 0.319913 0.604060
0.047380 -0.415441 0.603837
0.048582 -0.782690 -0.498917
-0.318827 -0.413471 0.237257
0.047282 -0.413318 0.603663
-0.685717 0.320746 0.603749
-0.688142 0.319611 -0.131002
0.781681 -0.048617 -0.496872
0.415369 -0.781635 -0.132678
-0.320779 0.685358 -0.130323
-0.687132 0.320224 -0.130344
-0.320426 -0.782827 -0.130559
0.414719 -0.415074 0.236561
0.782191 -0.048593 -0.495656
-0.320433 -0.413336 0.236503
0.046590 -0.783075 -0.497458
0.047803 -0.782114 -0.499185
-0.319967 0.687742 0.603131
-0.685919 0.320719 0.604932
0.049122 0.687601 -0.496717
-0.320358 0.689108 0.603878
0.047836 0.685725 0.236398
0.415883 -0.414956 0.237500
0.415957 0.687478 -0.129853
-0.319571 -0.413441 0.236231
-0.320318 -0.049314 0.605396
0.047071 0.686432 -0.496906
0.047142 -0.781865 0.236471
-0.320283 -0.047448 0.603238
-0.321189 -0.781764 -0.132632
0.046896 -0.782779 -0.496650
-0.687182 -0.045645 -0.498470
0.049571 0.687300 0.235472
-0.319206 0.688155 0.602702
-0.687354 -0.048250 0.238025
0.780772 -0.047953 -0.497398
-0.688256 0.320658 0.602647
0.046002 0.318545 0.604009
-0.319994 -0.414787 -0.496777
-0.319118 -0.414600 -0.496296
0.415306 -0.780752 -0.129274
0.048062 0.686647 -0.498205
-0.319959 -0.780467 -0.131249
0.782324 -0.046535 0.236948
-0.320206 0.319042 -0.495944
-0.319721 -0.781751 -0.132044
0.047230 0.688540 0.236915
0.415424 -0.412911 0.236849
-0.318353 0.688188 -0.131427
0.414255 -0.781178 -0.129200
0.048664 -0.414489 0.604316
0.782972 -0.045904 0.237701
-0.687493 0.319069 0.605178
-0.687379 -0.047760 -0.497163
0.781858 0.321284 -0.130534
0.046774 0.685516 0.236959
-0.320383 -0.412665 0.236874
-0.318454 0.686311 0.603853
0.047554 0.687375 0.237499
0.781507 -0.046008 -0.495932
0.413693 0.319816 -0.496300
-0.319907 -0.781051 -0.129779
0.414737 0.320249 -0.499158
0.780652 0.319395 -0.129409
0.782405 -0.415310 -0.131034
0.780915 -0.047869 0.235895
0.046351 0.686746 0.238767
0.047743 0.318897 0.602685
0.415005 0.320637 0.236630
0.413893 -0.780328 -0.129832
0.412791 -0.782072 -0.129600
0.415390 -0.414440 -0.496888
-0.319762 -0.047497 0.604189
0.046648 -0.782323 -0.497423
0.413607 0.685678 -0.131134
0.414299 -0.413593 -0.496088
0.047886 0.317670 0.603436
0.049047 0.687443 -0.496388
0.415753 -0.414263 -0.497235
0.413582 0.687584 -0.129798
-0.687069 -0.048641 -0.496545
-0.686302 -0.046386 0.237735
-0.320036 -0.412688 0.237203
-0.319952 -0.781312 -0.130586
0.414064 -0.048558 0.603967
-0.319637 -0.414775 -0.497772
0.047148 -0.413741 0.605193
-0.319014 -0.412554 0.236991
0.781580 -0.046441 -0.496693
0.414641 -0.780875 -0.129666
0.047437 -0.414825 0.602910
0.045861 -0.782797 0.236075
-0.687872 0.320643 -0.130293
0.413546 -0.414846 -0.498653
0.415699 0.686607 -0.130357
0.415947 -0.413774 0.236868
0.047764 0.317882 0.603922
0.048604 0.688337 0.239218
-0.688161 0.319071 -0.130331
-0.686793 0.322361 -0.130600
0.781373 -0.413646 -0.130326
0.413505 0.319451 0.236814
-0.319067 0.686190 0.605116
0.414012 0.686960 -0.130604
0.782337 -0.046067 0.235431
-0.686134 -0.046883 -0.496832
-0.319090 0.687446 -0.129614
0.413821 -0.414381 0.236567
-0.686069 -0.047292 -0.499078
0.046928 0.686909 -0.496163
0.414745 -0.413804 0.235868
0.415547 -0.781465 -0.129831
0.047809 0.686784 0.236900
