OFF
256 0 0
0.038848 0.680209 0.232811
0.064133 -0.762787 -0.481283
-0.693273 -0.045411 -0.480883
0.379867 0.309822 -0.469265
0.051773 0.686568 -0.458236
0.034303 -0.415088 0.573402
0.389182 -0.391733 0.208800
-0.288037 0.313546 -0.468489
0.053608 -0.061251 -0.459005
0.381069 0.310472 -0.468625
-0.679352 -0.424380 -0.129772
-0.684616 -0.076349 0.214799
0.067237 0.315876 0.581457
0.403356 0.699091 -0.108810
0.389790 -0.390658 0.210985
-0.677965 -0.425755 -0.131196
-0.692481 -0.044775 -0.481126
-0.693590 -0.045208 -0.479527
-0.284531 -0.405624 0.202611
-0.331505 -0.804573 -0.127646
0.046021 -0.769530 0.207345
0.052387 0.687566 -0.458286
-0.687493 0.690431 0.220491
0.050703 0.686923 -0.459024
-0.671937 0.316229 -0.109638
0.065299 0.316355 0.580815
0.764002 -0.408842 -0.100922
-0.284121 -0.404448 0.203625
0.417971 -0.766447 -0.130654
0.753054 -0.019020 -0.499224
-0.329689 0.676920 0.584079
-0.691396 -0.045395 -0.481095
0.416335 -0.397411 -0.500414
-0.326994 0.676382 0.584127
-0.329844 0.675285 0.583094
-0.693220 -0.046874 -0.480787
0.782986 -0.051138 0.240414
-0.693281 -0.045384 -0.481985
0.762034 0.306794 -0.117214
-0.687739 0.692256 0.221001
-0.283374 -0.404365 0.201561
0.045001 -0.771681 0.208834
-0.327454 0.676069 0.585177
-0.679462 -0.424553 -0.129246
0.044957 -0.770876 0.209171
-0.671027 0.316407 -0.106796
0.046614 -0.771074 0.209024
-0.331357 -0.805362 -0.130717
0.379503 0.309862 -0.469719
-0.331586 -0.806476 -0.129819
-0.287568 0.308264 -0.468822
-0.328040 0.676242 0.583367
-0.684337 -0.076780 0.216577
-0.312376 0.683829 -0.094720
-0.687954 0.690953 0.221008
-0.673495 0.317177 -0.108817
-0.672862 0.317848 -0.108822
-0.331715 -0.804972 -0.130812
-0.329360 0.676691 0.584630
0.060982 -0.766624 -0.478888
-0.313446 0.683869 -0.097578
0.064204 -0.763591 -0.481177
0.044112 -0.771099 0.208414
0.761942 0.306467 -0.116845
-0.286840 0.312579 -0.467415
0.390173 -0.391465 0.210100
-0.684381 -0.076205 0.214446
-0.328799 0.676213 0.585251
-0.323144 -0.037719 0.568552
0.034117 -0.415141 0.573502
0.404957 0.698695 -0.111876
0.052506 0.689262 -0.460772
0.390094 -0.390901 0.212171
-0.314258 0.684569 -0.095224
0.381276 0.310640 -0.469257
-0.292272 -0.420315 -0.485449
0.762009 0.305413 -0.116537
0.052548 0.685696 -0.460202
0.390840 -0.391336 0.211327
0.752723 -0.017058 -0.496758
-0.333308 -0.805166 -0.128531
0.061761 -0.762426 -0.480290
-0.670997 0.315629 -0.107983
-0.311381 0.683712 -0.094903
-0.682533 -0.075399 0.215875
-0.327963 0.675999 0.583370
0.779242 -0.050994 0.242211
0.044304 -0.770024 0.210374
0.751171 -0.017937 -0.498225
0.761825 0.307908 -0.117112
0.762260 0.307304 -0.115600
0.416506 -0.765374 -0.129397
0.751242 -0.017207 -0.496997
-0.672924 0.316148 -0.108973
0.412833 0.306465 0.234400
-0.685500 0.691324 0.221660
-0.672086 0.317525 -0.107898
0.038616 0.680202 0.233353
0.412295 0.306431 0.232990
0.415805 -0.397940 -0.500106
-0.693229 -0.045083 -0.481232
0.412022 0.306220 0.233657
0.411359 0.305001 0.233245
-0.679709 0.312808 0.554489
-0.323576 -0.038448 0.565871
0.052063 0.687854 -0.457652
-0.331257 -0.805111 -0.128127
0.751771 -0.018942 -0.497793
-0.684342 -0.076982 0.214126
0.381803 0.309507 -0.468380
0.405303 0.697054 -0.110932
0.752479 -0.019719 -0.498323
0.044693 -0.769997 0.207947
0.762504 0.305627 -0.114403
0.779180 -0.049248 0.239877
0.404287 0.699320 -0.112840
0.381542 0.311624 -0.468079
0.065834 0.315805 0.581922
0.752094 -0.018568 -0.497561
0.049189 0.686079 -0.459685
-0.327652 0.677039 0.584210
-0.678420 0.311136 0.554612
0.412168 0.308476 0.235244
-0.311743 0.684010 -0.095248
-0.672229 0.317542 -0.107454
-0.312804 0.684781 -0.094864
0.380804 0.312303 -0.468365
0.044810 -0.769926 0.208434
0.062114 -0.763290 -0.480671
-0.693467 -0.045076 -0.480398
0.410771 0.306996 0.234496
0.426855 -0.042331 0.595624
0.780994 -0.051740 0.239631
-0.679296 -0.423557 -0.128884
-0.284655 -0.405217 0.201641
0.410835 0.308901 0.234439
0.780893 -0.051024 0.239863
-0.678274 0.311394 0.556177
0.412024 0.305850 0.234973
-0.283240 -0.404835 0.203114
-0.679081 -0.425043 -0.131487
0.764795 -0.409179 -0.102462
-0.328143 0.677170 0.585032
-0.328578 0.675647 0.583765
-0.671104 0.316885 -0.108864
0.402458 0.698045 -0.111478
0.417768 -0.767371 -0.130654
-0.314513 0.682848 -0.095201
0.039202 0.680960 0.233300
0.782431 -0.048770 0.239589
0.051765 0.687358 -0.458989
0.379795 0.311263 -0.466776
-0.333207 -0.805469 -0.128847
0.381146 0.310859 -0.467911
0.411324 0.306987 0.234778
0.054557 -0.061833 -0.457735
-0.287522 0.310511 -0.470679
0.763725 -0.409845 -0.102318
0.064351 -0.765589 -0.480956
0.415504 -0.397717 -0.501892
-0.686383 0.692715 0.220061
0.418724 -0.768276 -0.131156
0.750755 -0.019317 -0.496768
-0.292932 -0.420439 -0.481864
0.380564 0.309980 -0.469227
-0.679231 0.312128 0.556432
0.053718 -0.061796 -0.459060
0.764194 -0.409651 -0.102695
-0.284716 -0.403551 0.201313
0.418040 -0.766486 -0.131744
0.418454 -0.765230 -0.131511
0.052740 0.686421 -0.459829
-0.678727 0.311950 0.554289
-0.331663 -0.804183 -0.128552
-0.287828 0.311880 -0.467749
-0.312205 0.683742 -0.095648
-0.312744 0.683051 -0.095879
0.781442 -0.052448 0.241944
-0.334029 -0.806094 -0.127947
0.764845 -0.410307 -0.102021
0.764946 -0.409747 -0.103062
-0.672403 0.316361 -0.107106
0.403642 0.699419 -0.112900
0.034506 -0.413428 0.574457
-0.671044 0.317041 -0.108033
0.052684 -0.061093 -0.460576
0.411860 0.306664 0.235934
0.039052 0.683166 0.231030
-0.693162 -0.047203 -0.481436
-0.322853 -0.038870 0.567253
0.033385 -0.413800 0.575260
-0.327940 0.675666 0.582763
-0.687778 0.692886 0.219821
0.053908 -0.062191 -0.458487
0.761151 0.305811 -0.115802
-0.328565 0.675435 0.583730
0.752962 -0.019115 -0.498618
-0.683028 -0.077089 0.213953
-0.329253 0.677303 0.583851
0.053000 0.687845 -0.458706
0.038844 0.680107 0.230962
-0.685060 -0.075737 0.214615
0.063534 -0.766265 -0.481548
-0.313311 0.681467 -0.093653
0.381284 0.310870 -0.468375
0.411775 0.307080 0.236234
0.752338 -0.019227 -0.497209
0.404060 0.699212 -0.109546
0.417090 -0.766735 -0.130045
0.061872 -0.765244 -0.481137
0.412592 0.307945 0.232695
-0.692536 -0.045993 -0.481115
-0.322982 -0.038234 0.566402
0.043398 -0.770785 0.210051
0.405158 0.699064 -0.110914
0.761874 0.307647 -0.118268
-0.674114 0.314868 -0.109381
-0.323301 -0.037908 0.567675
-0.328706 0.675387 0.584120
-0.674128 0.315926 -0.107460
0.426982 -0.040669 0.595161
0.050041 0.686637 -0.459240
0.038770 0.681452 0.233298
0.781369 -0.051352 0.241578
0.781745 -0.051478 0.240015
-0.692721 -0.044981 -0.482750
-0.692767 -0.045092 -0.481730
0.762809 -0.409527 -0.102108
-0.679288 0.311766 0.556617
0.416499 -0.398958 -0.502672
-0.673011 0.316073 -0.108240
0.051593 -0.061568 -0.460122
0.759384 0.308116 -0.115813
0.033712 -0.414305 0.574298
0.389300 -0.391004 0.211210
0.037379 0.679841 0.232742
0.053466 -0.062973 -0.458902
0.750358 -0.017029 -0.498361
0.764144 -0.409319 -0.101704
0.052804 0.687243 -0.460393
0.418228 -0.768772 -0.129242
0.060955 -0.763151 -0.480902
0.040188 0.679363 0.230605
0.050966 -0.060788 -0.458801
-0.311272 0.683071 -0.096617
-0.680002 -0.422710 -0.130573
0.426781 -0.040346 0.595471
-0.681734 -0.076319 0.215702
-0.332563 -0.805832 -0.128816
0.416265 -0.766965 -0.130328
0.050768 0.689247 -0.459026
0.416864 -0.765130 -0.132335
0.065795 0.315519 0.581487
-0.313406 0.683064 -0.093481
0.404664 0.699181 -0.109647
-0.687852 0.689943 0.221567
