OFF
256 0 0
0.784155 -0.045038 0.236298
0.779736 0.317135 -0.138114
0.773842 -0.411633 -0.135663
0.774045 -0.412246 -0.133785
0.782721 -0.044563 0.233363
-0.716201 0.303859 -0.124226
-0.325790 -0.422922 0.239231
0.050535 -0.394577 0.611729
-0.315611 0.653061 -0.127984
0.407905 -0.415737 -0.507189
-0.314771 -0.015219 0.596880
0.781668 -0.083405 -0.497786
-0.695109 -0.416163 -0.132324
0.781443 -0.082640 -0.499705
-0.326486 0.303762 -0.492483
0.421169 -0.027663 0.633000
0.051759 -0.393691 0.612439
0.402091 0.306026 -0.489136
0.060749 -0.778626 -0.499753
0.782958 -0.042461 0.236330
-0.697458 -0.418779 -0.132729
-0.679636 0.695426 0.233174
-0.696805 -0.417829 -0.129265
-0.326146 -0.422948 0.237411
0.050517 -0.392084 0.614564
-0.691974 -0.057000 -0.502403
0.032239 -0.780115 0.223479
0.426441 -0.781314 -0.129588
-0.680240 0.694151 0.232866
-0.697476 -0.042358 0.278006
0.402332 0.307569 -0.487124
-0.326293 0.301900 -0.490321
0.782505 -0.084236 -0.499155
0.049314 0.687267 0.196065
-0.691598 -0.056032 -0.501438
0.419791 -0.027180 0.632424
-0.314471 -0.014837 0.595408
0.048614 0.688076 0.196527
-0.324916 -0.787806 -0.143368
-0.689420 -0.056427 -0.501696
0.032794 -0.779378 0.223982
0.420244 -0.028546 0.632089
0.773739 -0.410395 -0.136233
0.049921 -0.394619 0.613161
-0.696552 -0.044819 0.276056
0.049421 -0.394102 0.612710
-0.325052 -0.789952 -0.144099
0.421870 -0.028041 0.632231
-0.313893 0.651742 -0.128159
-0.696335 -0.417477 -0.129462
-0.314685 -0.016963 0.592583
0.061997 -0.779957 -0.500308
0.049090 0.687339 0.195242
0.784261 -0.043355 0.235258
0.773536 -0.411619 -0.133720
0.401166 0.308157 -0.487749
0.415984 0.676108 -0.146257
0.073761 0.329769 0.591056
0.048582 0.684939 0.195008
0.054709 -0.051771 -0.490241
-0.696048 -0.417856 -0.129189
0.054598 -0.052415 -0.490905
0.783863 -0.043796 0.236685
-0.697710 -0.418134 -0.131155
0.773658 -0.412631 -0.135182
0.061430 -0.780735 -0.500250
-0.718041 0.304414 -0.125596
0.419544 -0.027235 0.632780
-0.325374 -0.790490 -0.144490
0.049557 -0.392194 0.612634
-0.325544 -0.423812 0.237437
0.054709 -0.052013 -0.488889
0.773726 -0.413857 -0.135764
0.033721 -0.779166 0.224939
-0.314320 0.654096 -0.128123
0.415303 0.676133 -0.146850
-0.327043 0.302690 -0.492983
0.782361 -0.042190 0.235072
0.417528 0.336282 0.226987
0.418401 0.336487 0.226269
-0.303101 -0.414865 -0.488296
0.784801 -0.045083 0.235470
-0.694434 0.329211 0.605559
-0.695771 -0.416819 -0.130607
0.780502 0.318030 -0.139765
0.772518 -0.412063 -0.134490
0.424966 -0.781586 -0.128241
0.417953 0.335261 0.225660
-0.325356 -0.787880 -0.144239
0.425264 -0.783536 -0.128504
0.049027 0.706769 -0.479915
0.060919 -0.778497 -0.500520
-0.307503 0.678245 0.599933
-0.325342 -0.424354 0.239558
-0.692190 0.327740 0.602876
-0.303221 -0.414007 -0.486946
-0.692357 0.328321 0.604919
-0.717565 0.303798 -0.123406
0.402433 0.307187 -0.487581
0.034312 -0.779332 0.223961
0.401495 0.306967 -0.487664
0.782902 -0.085589 -0.501199
0.047353 0.687700 0.196384
0.052993 -0.051514 -0.489362
0.406268 -0.397455 0.253219
0.783231 -0.082633 -0.498632
0.418371 0.337628 0.227326
-0.313002 -0.015046 0.594764
-0.325318 0.305831 -0.490965
-0.324326 -0.424185 0.238589
0.405569 -0.397196 0.254916
-0.680886 0.696191 0.234407
-0.689831 -0.056105 -0.502672
-0.326007 -0.424589 0.238074
-0.305935 0.677060 0.596804
0.060985 -0.777922 -0.502082
0.050891 0.687609 0.196771
-0.327247 -0.789273 -0.145115
0.049963 0.686859 0.194262
-0.693025 0.330778 0.604281
0.062555 -0.777371 -0.500557
0.781340 0.317673 -0.140094
0.780380 0.320165 -0.138971
-0.717541 0.305182 -0.124916
0.403262 0.303822 -0.487639
-0.694270 0.328385 0.605557
-0.681002 0.693311 0.234617
0.051629 -0.393513 0.614016
-0.678468 0.695153 0.233832
0.780176 0.316746 -0.140694
0.048210 0.685806 0.194806
0.402777 0.306055 -0.486603
0.782937 -0.043570 0.236071
-0.325196 -0.788800 -0.143719
0.786610 -0.044362 0.235440
-0.714378 0.303682 -0.122098
0.402608 0.305467 -0.488817
-0.323405 -0.425787 0.239551
-0.326997 0.304849 -0.493217
-0.692796 0.329527 0.606020
0.048971 0.686295 0.196772
0.784304 -0.044943 0.235987
0.052095 -0.391559 0.612635
0.400350 0.305026 -0.485940
0.417942 0.339121 0.226300
-0.696957 -0.042249 0.278008
0.422977 -0.028157 0.631142
-0.680830 0.695718 0.232495
0.415905 0.677731 -0.145665
-0.697119 -0.040354 0.277594
0.782851 -0.043344 0.235906
-0.691652 0.327836 0.604895
0.073820 0.331763 0.591122
-0.304439 -0.414107 -0.487438
0.780441 0.316742 -0.140121
0.408904 -0.414083 -0.507935
-0.717920 0.304168 -0.122941
0.406710 -0.396359 0.254180
0.417989 0.335590 0.226733
-0.680758 0.694457 0.233077
-0.696938 -0.044024 0.277457
-0.325329 -0.790877 -0.142877
-0.691093 0.329462 0.604271
0.427553 -0.784503 -0.129523
0.411638 -0.414597 -0.507389
0.783703 -0.044508 0.237534
0.072607 0.330596 0.590756
0.050436 -0.391186 0.611878
-0.325474 0.301824 -0.491317
0.415853 0.677444 -0.146344
0.048773 0.706817 -0.478632
0.053128 -0.053201 -0.490997
0.053316 -0.051778 -0.487276
0.050806 -0.393693 0.612360
-0.694145 0.329460 0.605371
-0.307162 0.677464 0.598405
0.419814 -0.025703 0.633100
0.408293 -0.415130 -0.506298
-0.691087 -0.055186 -0.501713
0.401381 0.306162 -0.487426
-0.695526 -0.042288 0.278021
0.060138 -0.780110 -0.500677
-0.305905 0.677938 0.597308
0.415848 0.675590 -0.145091
0.780562 0.317887 -0.141700
0.407677 -0.395688 0.255187
0.408688 -0.415687 -0.509453
-0.692597 0.327387 0.605084
-0.680080 0.694345 0.233364
-0.680715 0.694754 0.233369
-0.718377 0.303868 -0.123512
-0.326547 -0.787883 -0.144377
-0.696124 -0.417571 -0.130949
0.417950 0.335404 0.225643
-0.303175 -0.414257 -0.487595
0.415346 0.676970 -0.146038
0.059717 -0.778210 -0.500862
0.419222 0.335213 0.228470
0.411421 -0.414451 -0.508973
0.420821 -0.027588 0.632699
-0.690317 -0.054961 -0.500540
-0.315345 0.653872 -0.127245
-0.716652 0.303336 -0.122206
-0.307787 0.675667 0.599403
-0.718111 0.303666 -0.124973
-0.677940 0.694491 0.234020
-0.690430 -0.055839 -0.501798
0.033698 -0.779072 0.224689
0.406939 -0.396388 0.252832
-0.315493 0.652828 -0.128349
0.783751 -0.081233 -0.498194
0.408780 -0.414863 -0.508068
-0.305047 0.676650 0.598875
-0.679079 0.693962 0.234457
-0.325655 -0.790929 -0.143707
0.415433 0.676683 -0.146844
0.075767 0.331419 0.587341
-0.692727 0.329748 0.606019
-0.325966 -0.426354 0.238103
-0.323151 -0.426053 0.236718
0.420121 -0.026900 0.631062
0.050231 -0.393410 0.611545
-0.326131 -0.788382 -0.144220
0.773135 -0.413953 -0.134082
0.053236 -0.053202 -0.489211
0.050282 0.688290 0.194949
-0.694045 -0.417471 -0.132015
-0.697884 -0.041464 0.277087
0.051455 -0.391237 0.612291
-0.305253 0.679494 0.597974
0.048440 0.686465 0.196671
0.406981 -0.395640 0.253136
0.408436 -0.413356 -0.507362
-0.694622 -0.416813 -0.129893
-0.717118 0.306259 -0.123663
0.053968 -0.053821 -0.490904
-0.697510 -0.042380 0.277900
-0.695608 -0.417560 -0.130255
-0.325422 -0.423925 0.237301
0.055001 -0.054239 -0.490541
-0.315103 -0.014338 0.594743
0.401517 0.308975 -0.488128
0.771676 -0.411195 -0.135672
0.049837 0.687694 0.195939
-0.691801 0.327561 0.604567
-0.307769 0.677073 0.600092
0.073565 0.331060 0.589760
0.050617 0.686918 0.197522
-0.313018 -0.015624 0.595380
0.401124 0.306571 -0.488106
0.074712 0.330401 0.590441
0.426293 -0.783257 -0.129855
-0.691577 0.329963 0.604494
0.419241 -0.026417 0.630962
0.050800 -0.393754 0.612292
0.420258 -0.026414 0.631315
