OFF
256 0 0
0.408688 -0.054166 0.648069
0.782221 -0.430146 -0.107944
-0.700853 0.323555 -0.147355
0.409619 -0.052184 0.646687
-0.328650 0.686168 -0.140533
-0.707150 -0.421300 -0.119869
-0.695728 -0.041224 0.216042
-0.695305 -0.039993 0.214629
-0.321939 0.316038 -0.513538
0.794378 -0.053325 -0.478910
0.792161 -0.066255 0.240474
0.793032 -0.052719 -0.480859
0.783706 -0.427489 -0.107049
-0.329818 0.688428 -0.142856
0.067876 0.692652 0.224022
-0.333675 0.694748 0.584983
0.794290 -0.052755 -0.480022
-0.713735 -0.064783 -0.498536
0.413893 -0.777329 -0.115284
0.429509 0.679714 -0.135231
-0.321461 0.315391 -0.512718
0.435683 0.320422 0.236351
0.805869 0.307343 -0.118657
0.435572 0.319684 0.238023
0.066975 0.694238 0.222965
0.805256 0.304670 -0.118090
-0.712964 -0.066997 -0.499946
-0.695031 0.313699 0.587208
0.067722 -0.770181 -0.486294
0.041869 -0.397497 0.611285
0.392234 0.308984 -0.456664
0.057851 0.694200 -0.501120
-0.712894 -0.066944 -0.497539
-0.290892 -0.401252 0.200042
0.805057 0.308471 -0.117965
0.399933 -0.393583 0.252734
0.408471 -0.053625 0.647218
0.432072 0.680846 -0.133584
0.041164 -0.397602 0.610135
-0.328571 0.687136 -0.140533
0.414623 -0.779831 -0.114378
-0.321392 0.316606 -0.514845
0.040271 -0.061914 -0.506785
0.392920 0.307072 -0.459732
0.041833 -0.397494 0.611885
-0.316131 -0.428401 -0.490920
-0.714807 -0.066596 -0.500492
-0.289512 -0.399517 0.199505
0.059142 -0.785637 0.217692
0.409163 -0.052399 0.648333
0.040290 0.359620 0.597279
-0.316990 -0.425319 -0.488568
0.055838 -0.786181 0.220712
-0.696715 0.315685 0.586437
-0.695502 0.317162 0.587752
0.041879 -0.062732 -0.506985
0.804679 0.305831 -0.117097
0.056141 -0.787191 0.219509
-0.295713 -0.784491 -0.132343
-0.329709 0.687115 -0.140368
-0.697830 -0.039564 0.216612
-0.317167 -0.426512 -0.489389
-0.698160 -0.040820 0.214882
-0.711295 -0.066018 -0.499750
0.066424 -0.767927 -0.485838
-0.292911 -0.784745 -0.133866
-0.319187 -0.426677 -0.490453
0.066195 -0.769281 -0.483780
-0.696131 0.314931 0.586372
0.791744 -0.065721 0.241098
0.435028 0.320767 0.239410
0.415030 -0.406682 -0.487486
0.805077 0.304749 -0.117837
0.392299 0.306512 -0.459662
-0.322688 0.317718 -0.512316
-0.319128 -0.426652 -0.490687
0.066358 -0.771378 -0.485848
-0.698248 -0.038945 0.215339
0.804796 0.306492 -0.117278
-0.345288 -0.049503 0.604361
-0.698659 0.680632 0.222045
0.792953 -0.065063 0.242227
0.428839 0.680991 -0.133596
0.430301 0.679674 -0.134036
-0.321934 0.316424 -0.511934
0.038966 0.362512 0.598790
-0.289778 -0.397456 0.200541
-0.332894 0.693057 0.582221
0.397268 -0.391414 0.251206
-0.289907 -0.398701 0.201213
-0.290742 -0.399761 0.200417
0.434737 0.320465 0.239289
0.041835 -0.396871 0.612222
0.428844 0.679171 -0.132649
0.430452 0.681199 -0.135894
0.041648 -0.397623 0.608541
0.057180 -0.786685 0.220746
-0.712447 -0.067368 -0.499215
0.414727 -0.405978 -0.487514
0.039132 -0.062333 -0.506701
0.780828 -0.428457 -0.106465
0.435631 0.322257 0.239058
-0.698189 0.680043 0.220113
-0.329374 0.686283 -0.141366
0.056243 -0.784054 0.219993
-0.698170 0.680777 0.222226
-0.331140 0.687494 -0.140269
0.056857 -0.786729 0.220214
-0.343294 -0.050699 0.604142
0.041529 -0.062370 -0.506862
-0.331629 0.686525 -0.141471
-0.331989 0.693897 0.584663
0.805386 0.307434 -0.118776
0.794659 -0.054928 -0.479476
0.040529 0.358834 0.599399
0.393398 0.310412 -0.458651
0.040752 -0.062110 -0.508188
0.059894 0.693868 -0.502328
0.783395 -0.429177 -0.105825
0.040429 -0.062089 -0.508838
0.412740 -0.779033 -0.114991
0.790922 -0.065785 0.242044
0.413496 -0.406221 -0.486731
0.794955 -0.051066 -0.479030
0.431595 0.681039 -0.131727
0.414060 -0.778286 -0.114774
0.791694 -0.065038 0.242519
0.794770 -0.052718 -0.480701
-0.289489 -0.400750 0.201444
0.805495 0.307173 -0.118587
-0.329555 0.687521 -0.139149
-0.293698 -0.784076 -0.133064
0.782523 -0.427040 -0.106904
-0.698720 0.680317 0.222303
0.797064 -0.053888 -0.481189
-0.695803 -0.040082 0.216200
0.039125 -0.061996 -0.506463
-0.713430 -0.067204 -0.500463
0.398687 -0.392583 0.251758
0.781183 -0.428710 -0.106082
0.784381 -0.428671 -0.106919
-0.329825 0.686196 -0.141439
-0.704705 -0.422776 -0.120855
-0.343071 -0.049646 0.604380
0.392340 0.307095 -0.457317
-0.712293 -0.065518 -0.499333
0.793803 -0.052167 -0.478119
-0.289140 -0.400867 0.200203
0.060479 0.694111 -0.502655
-0.290551 -0.398584 0.202499
0.398455 -0.392273 0.250803
0.068498 0.692358 0.223327
-0.343132 -0.050551 0.607482
0.041032 -0.397995 0.610624
0.805397 0.306463 -0.117560
-0.343453 -0.049955 0.605086
0.790936 -0.064632 0.239066
0.392126 0.308103 -0.456748
-0.289246 -0.399181 0.200137
0.041026 -0.397397 0.611328
-0.321184 0.317465 -0.514411
-0.695605 0.315715 0.585617
0.431540 0.681464 -0.134630
-0.319264 0.318583 -0.514062
-0.343879 -0.049444 0.603839
0.392340 0.307998 -0.456713
0.059765 -0.787717 0.219199
-0.697559 -0.039880 0.217546
-0.288417 -0.398991 0.202914
0.392535 0.309236 -0.459492
-0.696590 -0.039911 0.217219
0.068453 0.693723 0.223751
-0.331778 0.692958 0.585245
0.039457 -0.063398 -0.506417
-0.316679 -0.427288 -0.491184
0.067606 -0.767837 -0.487554
0.066538 -0.769787 -0.485419
0.434849 0.320361 0.238230
0.794969 -0.054258 -0.479867
-0.701001 0.326073 -0.146512
0.041228 -0.062712 -0.508091
-0.317550 -0.427335 -0.490392
0.041300 -0.061679 -0.510367
0.058654 -0.786371 0.218856
0.806673 0.306566 -0.119095
0.399333 -0.392347 0.251288
-0.290115 -0.398852 0.201529
-0.343381 -0.047646 0.604681
-0.294638 -0.783355 -0.132353
-0.706711 -0.420807 -0.122286
0.059103 0.694960 -0.503002
0.042313 -0.397384 0.610057
0.068261 0.690986 0.222543
0.414711 -0.406802 -0.487881
0.055074 -0.786814 0.220539
0.791031 -0.063165 0.241708
-0.697526 -0.040343 0.215367
0.407799 -0.053049 0.646242
0.394129 0.308082 -0.456804
0.781398 -0.427113 -0.108793
-0.698921 0.680126 0.222458
-0.698641 -0.039822 0.216715
0.039361 -0.398777 0.611295
0.066683 0.694809 0.222903
-0.698730 0.681514 0.220814
-0.694823 0.314880 0.585406
0.058050 -0.785834 0.219589
0.795943 -0.053633 -0.479180
0.041040 -0.398192 0.610812
0.391314 0.308242 -0.459092
-0.696158 -0.038718 0.216157
0.068282 -0.769848 -0.487753
0.059280 0.694369 -0.501428
-0.714229 -0.066490 -0.499592
0.392923 0.308722 -0.457224
0.039443 0.361589 0.596781
0.059690 0.695108 -0.503157
0.795881 -0.050027 -0.479037
-0.330688 0.685916 -0.140953
-0.322927 0.316714 -0.514065
0.791931 -0.065792 0.240952
0.398699 -0.390963 0.250927
0.393602 0.308067 -0.457696
-0.706239 -0.421096 -0.121946
-0.707269 -0.421546 -0.120592
0.414792 -0.407731 -0.489713
-0.292816 -0.783601 -0.132792
0.040179 0.360239 0.599213
-0.702127 0.324728 -0.149095
0.042594 -0.063489 -0.506176
0.806666 0.305184 -0.117545
-0.342863 -0.049188 0.604133
-0.344540 -0.049046 0.603115
-0.322905 0.315530 -0.511491
-0.696728 0.315870 0.585595
-0.330049 0.687741 -0.141481
-0.293559 -0.782066 -0.133509
0.040859 -0.063350 -0.508680
0.796248 -0.053123 -0.479254
0.796428 -0.054038 -0.480575
-0.290177 -0.398761 0.201014
0.067544 0.693884 0.222910
0.056192 -0.785888 0.220077
-0.694478 0.315123 0.584693
0.393148 0.307792 -0.458930
0.411151 -0.779191 -0.116462
0.060327 0.695665 -0.503114
0.416054 -0.406771 -0.488164
-0.697344 0.681864 0.223012
0.039929 -0.399123 0.611346
0.408902 -0.053976 0.646765
0.783092 -0.426450 -0.108057
-0.295125 -0.784780 -0.133282
0.040502 0.358343 0.599000
-0.711655 -0.066625 -0.498942
0.398888 -0.393731 0.251531
