OFF
256 0 0
0.002694 -0.893506 0.447560
-0.894671 0.446814 0.000397
0.447856 -0.000802 -0.893903
-0.446025 0.445887 -0.448048
-0.448988 -0.895419 -0.001906
-0.895087 -0.000093 0.447575
-0.001738 -0.447940 0.893434
0.446478 -0.445271 -0.446894
0.895248 0.000073 -0.446239
-0.000838 -0.894778 -0.446881
0.892946 0.000547 0.447937
0.446645 0.001443 -0.894948
0.000822 0.447424 -0.892119
-0.448100 0.446454 0.447163
-0.447131 0.447177 0.449357
0.000962 0.448620 0.893538
0.448090 0.447508 -0.447142
-0.446455 0.445432 0.446793
-0.447812 0.446833 -0.449283
0.000312 -0.894677 -0.447872
0.894125 0.001490 -0.447302
-0.448739 -0.000110 0.892928
-0.446790 0.001624 0.894535
0.000314 0.447439 -0.892290
-0.446887 -0.444548 0.447616
-0.447327 0.447179 -0.447286
-0.448008 0.895648 0.000492
-0.000731 -0.894197 -0.447422
-0.448260 0.448979 -0.445352
0.448201 -0.000412 0.892989
-0.000499 -0.448066 -0.895138
0.447603 0.001391 -0.894240
0.447570 -0.001439 -0.894883
-0.449029 -0.447502 -0.447386
0.000797 0.895266 0.445781
0.445755 0.447331 0.448188
-0.893933 -0.446733 -0.000294
-0.000520 0.895119 0.445682
-0.446414 0.446734 -0.446436
-0.000714 -0.447255 -0.894976
-0.894282 0.000938 0.446151
-0.895655 0.000655 0.447209
0.896290 0.446931 0.000185
-0.447581 -0.447487 -0.447441
-0.000415 -0.894472 -0.446856
-0.448260 -0.447673 0.447422
-0.446898 0.447722 -0.446209
-0.894721 -0.000895 0.447321
0.447238 0.445951 -0.447910
0.894524 0.000894 0.448309
-0.000105 0.893790 -0.446083
0.447835 -0.446151 -0.445993
0.448695 -0.896367 -0.000308
0.000118 -0.448908 0.892963
0.448680 0.000951 -0.893689
-0.447771 0.447450 -0.446279
-0.002868 -0.895809 -0.447666
0.000210 0.894795 -0.446459
0.446748 0.001796 0.894744
0.447936 0.000843 -0.896017
-0.446941 -0.001067 0.895139
0.001783 0.896164 0.446965
-0.446783 0.448670 -0.448130
0.000956 0.896050 0.449062
0.447677 0.001159 -0.895790
0.446254 -0.000582 0.895855
-0.447255 0.000428 -0.894890
0.448758 -0.894771 -0.000240
0.892401 0.448859 -0.000156
0.000585 -0.446787 -0.892948
-0.893944 -0.000949 0.446782
-0.894829 -0.000618 -0.447674
-0.894214 0.446207 -0.001503
0.893450 0.000858 0.447589
-0.446983 0.001162 0.894058
-0.000925 -0.445547 -0.895298
-0.447345 -0.447380 -0.447976
0.446134 0.895266 -0.000259
0.000431 -0.448021 -0.894498
-0.894854 0.449196 -0.001059
-0.894155 0.447031 -0.001299
0.449333 -0.000658 -0.893575
0.893106 0.000101 0.446980
0.447501 0.000704 -0.894134
-0.447114 -0.447251 -0.447448
0.447272 -0.894781 -0.000962
-0.449477 -0.448002 0.446410
-0.000159 -0.895759 0.447849
-0.894419 -0.001100 0.448058
-0.893943 0.447856 0.000260
-0.000795 0.894643 -0.448090
0.446390 -0.893299 0.001973
0.895442 -0.448607 -0.000891
0.893835 0.000418 0.448467
0.894103 -0.446985 -0.000708
0.896393 -0.446376 0.001050
0.447895 -0.000335 0.892907
-0.000705 0.448615 0.891851
-0.894930 0.001695 0.447122
0.001139 -0.893772 -0.446178
-0.000851 0.448816 0.896278
-0.448163 -0.448397 0.447192
0.000637 0.895383 0.447749
-0.445706 -0.894281 -0.001705
0.447896 -0.895872 -0.000510
-0.446095 -0.446861 0.448953
0.446353 -0.894164 -0.000110
0.000613 0.447760 -0.894914
-0.446924 -0.446002 -0.448296
0.896347 -0.446982 0.003642
-0.446349 -0.447556 -0.447962
-0.445647 0.894856 -0.000493
0.000862 0.893427 0.445418
0.448365 -0.448114 -0.445490
0.894077 -0.000529 0.447724
0.446228 0.447421 -0.446512
-0.447379 -0.000778 -0.894990
0.447211 0.001115 -0.893672
0.001637 0.447061 -0.895290
-0.448158 -0.447335 0.447204
-0.445882 0.446150 -0.447790
0.000179 -0.446732 -0.893809
-0.447276 0.448730 0.448981
0.446568 0.000751 -0.893052
0.892844 0.446656 0.003290
0.446002 0.447286 -0.448054
0.447731 0.893542 -0.000280
-0.894695 0.001398 0.446379
-0.447615 -0.446632 0.447883
-0.447850 0.895681 -0.000029
0.446400 0.447453 -0.446992
-0.896277 -0.000803 0.445894
-0.447635 0.000289 -0.894431
0.895603 0.446822 0.000829
0.894800 0.000055 0.446949
0.448319 -0.000668 0.894830
0.894932 -0.000183 -0.446359
-0.446585 0.895255 -0.000791
0.000559 -0.894571 -0.447121
-0.000419 -0.893602 -0.447097
-0.000969 0.893575 0.448094
-0.448006 -0.446947 -0.446129
0.000346 -0.448116 0.895405
0.000939 0.895504 -0.448918
0.001720 0.447422 -0.895545
0.002458 -0.894034 0.446910
-0.447806 0.893973 -0.000262
-0.893452 0.000982 0.447705
0.894964 0.446937 0.000540
0.894939 -0.000852 -0.447001
-0.447097 -0.448302 0.445852
0.896610 0.001368 0.445217
-0.446117 0.000677 -0.893856
0.896312 -0.446143 -0.001169
0.448584 0.446576 -0.445295
-0.447232 0.446841 0.445865
-0.446810 0.448034 -0.446208
0.893194 -0.447173 -0.000572
0.447715 -0.445929 0.446861
-0.892453 -0.001091 -0.445790
0.448046 0.894904 -0.000560
0.000208 -0.893363 -0.447084
0.895813 0.446562 -0.000054
-0.447054 -0.445304 0.447249
0.894256 -0.001292 0.447080
-0.447026 -0.894077 0.000394
0.895566 0.001926 -0.446607
-0.000298 0.895534 -0.447376
-0.001103 0.896220 -0.447724
-0.445796 -0.000987 -0.894238
-0.448966 0.446552 0.446739
0.894613 -0.447319 0.000564
0.446612 -0.447150 -0.447215
0.895249 0.000352 -0.447490
0.446765 -0.446502 -0.447927
-0.447396 0.000545 0.894138
-0.446633 0.447188 -0.446416
0.000739 0.447367 0.894224
0.000047 0.893806 0.448796
-0.447703 -0.448645 -0.446579
0.894841 0.447663 0.000217
-0.446677 -0.447299 -0.448069
0.001006 0.893577 -0.447461
0.000487 0.895086 -0.448716
0.449285 -0.000968 -0.897042
0.895521 0.447830 0.001312
0.000039 0.894394 0.446782
0.895257 0.447805 -0.001478
0.446938 -0.892867 -0.000413
-0.000276 0.894846 0.446755
-0.000610 -0.893996 0.446639
-0.000254 0.447948 -0.894254
0.001431 -0.446763 -0.894407
-0.447548 -0.894187 0.000274
0.447353 -0.445749 0.448461
-0.446689 -0.893505 0.000646
0.446515 -0.447086 0.447925
0.445591 -0.894174 0.000700
0.000687 -0.892616 0.447329
0.446467 0.894611 -0.000780
-0.894030 -0.447468 -0.000364
-0.000088 -0.446399 -0.897339
0.001328 0.448262 -0.893442
-0.894567 0.446941 0.000914
-0.000281 0.893363 -0.449237
-0.000090 0.894508 -0.447934
-0.000565 0.892614 -0.448072
0.447727 -0.445302 0.446412
0.000105 0.896062 -0.445216
0.000490 0.893487 -0.447195
0.447585 -0.000636 -0.894305
-0.893302 -0.000495 0.447931
-0.000111 0.893709 0.445748
-0.446154 -0.448544 0.447336
-0.446776 -0.001607 0.895398
0.896421 0.000751 0.447236
-0.447617 -0.894481 -0.001499
0.448488 0.447628 -0.447517
-0.449256 -0.895756 -0.000338
0.446828 -0.449131 0.445947
0.894753 -0.000959 -0.447953
0.445369 0.000792 -0.894565
0.895401 -0.000027 -0.448197
-0.447518 -0.001179 0.893990
-0.446537 0.447969 -0.447514
0.000092 -0.895048 0.448545
0.000153 0.448299 -0.894008
0.447415 -0.446809 0.446481
-0.000404 -0.893912 0.446831
0.448079 -0.447967 -0.446638
0.448285 0.894336 0.000449
-0.894806 0.445963 -0.000845
-0.895401 -0.446306 -0.001123
-0.000394 -0.894323 0.446296
0.446874 0.446578 0.447593
-0.001335 -0.448375 0.893997
0.000030 0.445437 -0.893566
-0.445988 0.000266 -0.895236
0.000939 0.895371 0.448285
-0.893649 0.000065 0.446439
0.446978 -0.894920 0.000557
-0.446959 -0.447914 -0.446781
-0.447275 0.893919 -0.001739
0.000582 -0.446790 -0.892960
0.448909 -0.447060 0.447907
0.895380 -0.001456 -0.445604
0.446404 0.894605 0.000806
-0.448536 -0.444973 0.447859
-0.001276 0.894010 -0.447951
0.448400 0.447724 0.446916
0.447287 -0.448019 -0.446789
0.446832 0.446533 -0.447535
-0.893876 0.001090 0.446176
0.894904 0.449207 0.001013
0.447076 -0.446975 -0.448440
-0.000350 -0.449436 -0.894278
