OFF
256 0 0
0.859116 0.017792 0.416158
-0.444362 0.390555 -0.394538
0.423297 0.042128 0.835267
-0.395558 -0.414516 0.426006
-0.012186 -0.430460 -0.854732
-0.437109 -0.022094 -0.867087
-0.852400 -0.009267 0.418359
-0.878175 0.414298 0.010809
0.424420 0.041928 0.836852
0.015390 -0.412165 0.871926
0.426006 -0.440510 0.441922
0.422227 -0.856289 -0.000199
-0.455516 -0.858866 0.002947
0.002955 -0.863794 0.439715
0.020376 0.408689 -0.842053
0.427077 0.044655 0.835938
0.423296 0.900172 0.005944
0.416837 -0.017840 -0.863771
0.863461 -0.414629 -0.000007
-0.419736 -0.434940 -0.410038
-0.862529 -0.417589 -0.010850
-0.854756 -0.024609 -0.438348
-0.417671 0.037322 0.863007
-0.014892 -0.429002 -0.854472
0.418200 -0.017302 -0.863844
0.887393 0.461014 0.013930
0.425269 0.042086 0.835408
0.422402 -0.857151 0.000716
0.003869 -0.864310 0.437060
0.017718 0.408930 -0.840225
-0.852580 -0.008629 0.420006
0.857548 0.015470 0.418311
-0.855294 -0.022681 -0.438544
-0.434393 0.833938 -0.003562
0.864281 -0.414697 -0.000313
0.009563 0.864913 0.410547
0.421283 0.902290 0.007600
-0.878569 0.415047 0.011061
0.865578 -0.414917 0.000204
0.444919 0.411662 -0.399345
-0.861685 -0.416199 -0.012639
-0.446266 0.390251 -0.395144
-0.431957 0.831713 -0.002439
-0.014974 -0.431337 -0.852466
-0.875495 0.414509 0.010931
-0.443932 0.390897 -0.393204
-0.437731 -0.021733 -0.869213
0.443579 0.412058 -0.398856
0.444410 0.412969 -0.397486
0.857544 0.015252 0.417776
0.010026 0.864062 0.411554
-0.854697 -0.023545 -0.438943
-0.432988 0.830135 -0.004271
-0.419843 -0.435311 -0.409874
0.871165 0.000809 -0.460726
0.417515 -0.017202 -0.866270
-0.457688 -0.859524 0.001969
0.445085 0.413869 -0.396857
0.431688 -0.395219 -0.392255
-0.416918 0.038291 0.861935
-0.420163 -0.433774 -0.410586
-0.457175 -0.858961 0.000104
0.008821 0.864248 0.408806
0.420346 -0.855218 0.000299
0.420967 -0.857819 0.000798
0.002035 -0.865535 0.439051
0.418158 -0.018563 -0.866046
0.886622 0.461529 0.012786
-0.854393 -0.008392 0.417972
0.856476 0.015492 0.418018
-0.876571 0.414000 0.010341
-0.013754 -0.430792 -0.853092
0.000557 -0.864785 0.438937
-0.011798 -0.430521 -0.852046
-0.014712 -0.430900 -0.853749
-0.419078 0.039394 0.861892
-0.420193 0.039308 0.860516
-0.431344 0.831840 -0.001850
-0.417250 0.038144 0.861354
0.863641 -0.413326 -0.000901
0.857921 0.014710 0.416422
0.863934 -0.415282 -0.000267
0.858298 0.018012 0.416478
0.010649 0.866315 0.409927
0.402064 0.444057 0.402339
-0.015549 0.440205 0.842130
-0.427656 0.384840 0.380361
-0.855380 -0.023501 -0.435859
0.433594 -0.395791 -0.392809
-0.446375 0.390534 -0.396026
-0.432443 0.833423 -0.003849
-0.436871 -0.022792 -0.867289
-0.418444 0.040325 0.860878
-0.016104 0.441896 0.842136
0.003481 -0.863384 0.437740
-0.394471 -0.413435 0.425482
-0.418233 0.039058 0.860444
-0.419257 0.039560 0.861737
-0.015595 0.440214 0.842590
0.422850 0.901589 0.005349
-0.019148 -0.871017 -0.427964
-0.877549 0.416782 0.010617
-0.428292 0.384126 0.380122
-0.454835 -0.859980 0.000239
0.887660 0.461732 0.014450
-0.013357 -0.430098 -0.854593
0.858771 0.018015 0.417996
-0.429726 0.831428 -0.002601
0.424291 0.900296 0.007569
0.019647 0.406586 -0.841472
0.886965 0.460557 0.012616
-0.878176 0.417537 0.010216
0.001335 -0.863592 0.438160
-0.393284 -0.412066 0.423759
0.431214 -0.395887 -0.391404
0.426205 0.042836 0.835351
0.399769 0.445104 0.405520
-0.877066 0.415202 0.009972
0.017959 0.407196 -0.841205
0.865429 -0.416029 0.000089
-0.445395 0.391627 -0.393162
0.416981 -0.016854 -0.863968
-0.854793 -0.023093 -0.437751
0.432809 -0.396631 -0.390869
0.009203 0.864908 0.409440
-0.013036 -0.430490 -0.853549
-0.435662 -0.025258 -0.866441
0.400600 0.445882 0.403136
0.001445 -0.863428 0.439227
0.013157 -0.411536 0.873281
0.001529 -0.863931 0.438223
0.000686 -0.863006 0.439446
-0.457716 -0.859904 0.000382
-0.417974 0.038786 0.861515
0.887291 0.460745 0.014115
0.417535 -0.017997 -0.864445
0.001532 -0.861725 0.437573
0.014622 -0.410168 0.871330
0.416195 -0.018269 -0.863823
0.417444 -0.019061 -0.865446
-0.418444 0.039953 0.862189
-0.852213 -0.008682 0.420232
0.402337 0.443604 0.402585
-0.876955 0.412817 0.010988
0.428792 -0.439568 0.442277
0.015123 -0.410014 0.872156
-0.861538 -0.417720 -0.011007
0.019367 0.408053 -0.840837
-0.420413 -0.434129 -0.411141
0.011314 0.826020 -0.418267
-0.860632 -0.415182 -0.011257
0.432397 -0.397258 -0.391040
0.419601 -0.859415 0.001438
-0.420823 0.040616 0.860934
-0.419371 -0.435430 -0.411410
-0.444002 0.391447 -0.394587
0.011305 0.826065 -0.416478
0.402446 0.444803 0.402970
-0.862322 -0.417445 -0.013483
0.000913 -0.864336 0.437593
0.864084 -0.413743 0.001644
0.425254 0.044551 0.836720
-0.428283 0.382188 0.379397
0.421581 -0.857253 0.000369
0.426896 0.042094 0.836637
0.432212 -0.397241 -0.392552
-0.420757 -0.434871 -0.411632
0.421800 0.900917 0.006575
-0.876450 0.413926 0.010846
-0.855314 -0.023503 -0.439053
0.443847 0.414290 -0.399897
-0.856840 -0.024086 -0.437292
-0.437264 -0.025377 -0.867404
0.423967 0.901855 0.007312
0.872935 -0.001567 -0.458483
-0.854025 -0.022737 -0.436596
0.011115 0.865297 0.408201
-0.394833 -0.411281 0.425162
0.864762 -0.413897 0.000550
0.426903 -0.441238 0.443367
-0.419844 -0.433959 -0.412504
-0.854091 -0.025356 -0.437309
-0.000331 -0.862634 0.437894
0.887662 0.460037 0.011947
-0.013323 -0.429666 -0.852492
-0.433890 0.832866 -0.002122
0.417138 -0.017932 -0.864393
-0.016055 0.440553 0.842622
-0.419321 -0.435778 -0.411152
0.863955 -0.414314 -0.000000
-0.852940 -0.008349 0.419548
-0.429031 0.383413 0.378807
-0.455187 -0.861082 0.001603
0.433064 -0.397338 -0.391113
0.443442 0.411127 -0.397975
-0.437093 -0.020649 -0.867718
-0.434863 -0.024300 -0.866546
0.858994 0.015679 0.416109
-0.436126 -0.023711 -0.867950
-0.853356 -0.009143 0.418419
-0.862074 -0.418955 -0.013109
0.401738 0.443010 0.402093
-0.876020 0.414272 0.012107
-0.854555 -0.023080 -0.439730
0.446054 0.411855 -0.399047
-0.439083 -0.023343 -0.866099
-0.860860 -0.417662 -0.010135
-0.856294 -0.022504 -0.438741
-0.433187 0.831406 -0.003778
0.419421 -0.017548 -0.865553
0.444477 0.412659 -0.397202
-0.856267 -0.022903 -0.438647
-0.445386 0.388742 -0.395789
-0.853281 -0.009604 0.419693
0.001569 -0.862205 0.438397
-0.438716 -0.022962 -0.867834
-0.422048 -0.434330 -0.411581
0.013316 -0.410939 0.872023
-0.855820 -0.008856 0.418392
-0.419619 0.038949 0.861721
-0.418502 0.038097 0.862793
-0.854235 -0.007915 0.418714
-0.422618 -0.435969 -0.411488
-0.428996 0.385243 0.377014
-0.394913 -0.414725 0.424096
0.886384 0.461003 0.012126
-0.421010 -0.434561 -0.411703
-0.853526 -0.007372 0.421384
0.864098 -0.413895 0.000803
-0.021149 -0.871357 -0.426323
-0.855572 -0.023523 -0.438446
0.444111 0.412728 -0.398507
0.862105 -0.413790 0.001449
0.419863 -0.018834 -0.863436
0.886001 0.461506 0.013071
0.864858 -0.414875 -0.000011
-0.418973 0.040580 0.861086
-0.016658 0.439799 0.843324
-0.455860 -0.860314 0.002712
0.443078 0.413604 -0.398679
0.442338 0.413285 -0.397386
-0.853933 -0.008587 0.419806
-0.861990 -0.418371 -0.012026
0.423987 0.042404 0.835368
0.001477 -0.862676 0.437369
-0.436937 -0.024034 -0.868005
0.886930 0.460754 0.014581
-0.853366 -0.009229 0.419515
-0.428236 0.383794 0.378516
-0.853834 -0.008905 0.418851
0.009740 0.863534 0.409968
-0.877085 0.413361 0.009165
-0.860696 -0.417475 -0.012706
-0.855551 -0.024526 -0.436394
0.012360 0.827254 -0.416941
-0.012253 -0.432145 -0.853547
