OFF
256 0 0
0.415874 -0.497215 -0.414137
0.413634 0.605678 -0.049132
-0.320126 0.603917 -0.046843
0.782686 -0.131482 -0.413798
0.415271 0.237231 -0.413525
0.049061 0.602645 0.319348
-0.320196 -0.129977 -0.782444
0.780306 -0.128842 -0.414374
0.414764 0.237674 0.320023
0.415227 -0.128122 -0.780789
0.414924 0.236713 0.320182
0.046591 -0.499192 -0.782441
-0.319864 0.603869 0.684911
0.047080 0.236609 -0.782237
-0.318662 -0.132710 0.688458
-0.320648 -0.496042 0.319142
0.782175 -0.497901 -0.048842
0.047887 0.603958 0.318602
-0.318471 -0.500023 0.319148
0.782630 -0.497658 -0.046924
0.048473 -0.497312 -0.046287
-0.320407 0.235585 -0.413984
0.413715 0.603567 -0.047640
-0.319921 -0.497191 0.319854
0.781937 -0.128839 0.319480
-0.686341 0.604108 0.319956
0.047085 -0.497037 -0.047969
-0.319907 -0.131196 -0.784104
-0.318839 -0.495552 -0.415485
0.047337 -0.496894 -0.781896
0.415275 -0.130814 0.687762
0.414314 0.603703 -0.048084
0.046642 0.235959 -0.781973
0.415845 0.238770 0.317813
-0.687041 -0.130943 0.319851
0.047170 0.604890 0.319620
0.415869 -0.128674 -0.781896
0.416008 -0.131203 0.687206
-0.318832 0.234815 -0.414697
0.047506 -0.497281 0.688926
-0.687780 -0.131318 0.319263
0.414007 0.603399 -0.047663
0.781778 -0.497134 -0.046375
0.412855 0.236633 0.321040
-0.318765 -0.497891 0.318743
-0.688611 -0.498551 -0.047290
-0.318260 -0.128694 0.687565
-0.686434 0.235419 -0.048065
-0.686759 -0.496565 -0.046927
0.413412 -0.130808 0.686400
0.413221 0.235282 0.317594
0.047395 0.236404 -0.782063
0.413116 -0.131031 -0.782138
0.046166 -0.499370 0.687388
0.047192 0.237817 0.686341
0.413430 -0.495790 0.319690
0.781739 -0.495983 -0.046850
-0.689161 -0.497043 -0.046059
0.046310 0.236517 0.685951
-0.320608 0.603956 0.686757
-0.685537 -0.129815 0.319356
-0.686742 -0.129355 -0.415505
0.048192 -0.498418 0.689798
0.413237 0.237819 -0.415217
0.782182 0.237009 -0.048177
0.781705 -0.130351 0.318839
-0.319245 -0.496051 -0.414646
-0.318360 0.604676 0.684577
0.413328 -0.495796 -0.414656
0.414901 0.602607 -0.046350
-0.684771 0.603503 0.319741
0.414312 0.237835 -0.413664
0.780987 -0.127965 0.320723
0.415094 -0.129582 0.688587
-0.319258 -0.497084 -0.414646
-0.687572 -0.128910 0.320037
0.045822 0.604727 0.320963
-0.319406 -0.496946 0.319579
0.782303 0.234859 -0.047831
0.048152 0.237426 0.686788
0.417126 -0.128975 0.686596
-0.689133 0.603728 0.319909
0.414125 0.237566 -0.415277
-0.686949 0.235396 -0.048973
0.414996 -0.129790 -0.783343
0.782105 -0.498005 -0.048027
0.413643 -0.127769 -0.782067
0.413923 0.604978 -0.046740
0.412332 -0.129989 0.687424
0.413647 -0.498130 0.320687
0.782591 -0.130091 -0.412328
-0.319082 0.236059 -0.413054
0.416308 -0.498918 0.319153
0.413724 -0.130624 -0.783000
0.784750 -0.498678 -0.047445
-0.320678 -0.497715 0.319056
0.782441 -0.496285 -0.046681
0.781141 0.236535 -0.047864
0.047794 0.602506 -0.412692
-0.318876 -0.498123 -0.413526
0.047923 -0.496581 -0.047597
-0.685371 0.236447 0.686932
-0.686522 -0.129742 0.319730
-0.687837 -0.132007 -0.414125
0.781903 -0.130084 -0.413300
-0.319118 -0.130003 -0.780773
-0.318094 0.606232 0.686175
-0.320282 0.235999 -0.413775
0.047419 -0.498560 -0.780427
-0.319484 -0.130436 0.687606
-0.687667 -0.129591 0.319263
0.416063 -0.497925 -0.415569
0.414520 -0.497300 0.320855
0.047106 -0.497433 -0.783291
0.414768 0.237660 -0.414737
0.781406 0.239011 -0.046073
0.046649 -0.495553 0.686631
-0.687194 0.236888 -0.047615
-0.686496 -0.132221 -0.414599
0.415548 0.604638 -0.047849
0.414358 -0.130835 0.686701
-0.686370 -0.496833 -0.048714
-0.320292 0.235045 -0.416197
0.047250 0.601916 -0.414792
0.045604 -0.498242 -0.781511
-0.685864 -0.128645 0.318827
0.046591 0.235129 -0.781327
0.781494 -0.129414 0.318211
-0.319006 0.237843 -0.415835
0.414548 -0.498696 -0.412993
0.413830 -0.131331 -0.782545
0.048094 0.602896 -0.414207
0.046566 0.238685 -0.781644
-0.688129 -0.131007 0.320044
-0.686061 -0.129597 -0.415678
0.047071 0.236737 -0.783422
0.046803 0.603824 -0.414397
0.782838 0.236460 -0.045475
-0.686413 0.238337 -0.046331
0.049163 -0.497277 -0.045779
0.048374 -0.496628 -0.048625
0.045751 0.235204 0.686770
0.046324 0.237722 0.687175
-0.687272 -0.497508 -0.046521
0.046625 -0.497892 0.685554
0.414517 -0.128380 0.685502
-0.320204 -0.131511 -0.782225
0.047948 -0.498875 -0.782308
-0.320402 -0.132548 -0.781316
-0.320614 0.602867 -0.048248
-0.319036 -0.128447 0.687441
0.782856 -0.499171 -0.048585
0.781314 0.236279 -0.049567
-0.319138 0.603976 -0.048170
0.046354 -0.498262 0.685985
0.046668 -0.497595 -0.046254
0.048133 -0.498887 0.687878
-0.685547 -0.129970 -0.413922
0.047061 -0.497187 0.685398
0.413373 -0.131226 -0.782071
-0.321549 0.601599 -0.047607
0.414202 0.236111 -0.414139
0.047286 -0.496069 -0.782215
0.046278 0.604281 0.319393
0.048682 0.601947 -0.414252
0.782142 -0.496160 -0.046728
-0.321620 -0.497905 0.318214
0.781445 -0.130639 0.320865
0.779437 -0.130044 0.319464
0.415460 0.604911 -0.047473
0.047062 -0.497512 -0.046069
0.047405 0.236464 -0.780753
0.047530 0.236094 -0.782375
0.415529 -0.129140 0.687700
0.413843 -0.131145 -0.782370
0.048310 0.239167 0.687755
0.783140 -0.133364 0.320802
0.048005 0.604105 0.320657
-0.319242 -0.496672 0.319403
-0.685953 -0.130031 0.321789
0.048543 -0.496645 -0.781837
0.415239 -0.129649 0.688265
-0.320928 -0.130597 -0.782903
-0.319974 -0.130482 0.685870
0.414539 0.604196 -0.047139
-0.321750 -0.495414 -0.414857
0.047129 -0.497845 -0.783678
0.047842 0.602598 -0.416463
0.045937 -0.496421 -0.782661
0.412432 -0.131199 0.687580
-0.319670 0.603195 0.688878
-0.686810 -0.497686 -0.048184
-0.320904 -0.127858 -0.782581
0.413477 -0.131717 0.688628
0.416750 -0.496223 -0.412606
0.415241 0.236856 0.319864
0.781130 -0.130228 0.318776
-0.319922 -0.129539 0.687241
-0.319811 -0.498369 0.318501
-0.685645 -0.130714 0.320088
0.047380 0.604941 0.319796
-0.319002 -0.130758 0.685421
0.781266 0.235983 -0.048168
-0.687323 0.237871 0.687308
-0.320476 0.604612 -0.048081
0.047758 0.238577 0.686544
0.414615 0.236907 0.321089
0.415318 -0.496739 -0.413486
0.046492 -0.498105 0.687750
0.415410 0.236352 -0.415419
0.048855 0.239493 -0.779624
0.781942 -0.129761 -0.413488
0.047896 0.235919 -0.782875
0.046228 0.236555 0.686546
-0.319713 0.238398 -0.415400
-0.320293 -0.494937 0.319009
-0.318375 -0.497796 0.318921
-0.686742 0.238285 0.687082
0.416134 -0.498661 0.319190
-0.320497 -0.496971 -0.412743
-0.686999 -0.130873 -0.413611
-0.319765 -0.497267 0.320463
-0.320650 0.604743 0.686901
0.414956 -0.129597 0.686403
0.780472 -0.131343 -0.413338
0.781741 -0.130656 0.319212
0.413427 -0.129386 -0.781356
0.414962 0.239292 0.321126
0.046054 -0.497630 -0.047306
0.048224 0.236116 -0.780641
0.415813 -0.129577 -0.781725
0.046927 -0.496828 -0.047443
0.414333 0.237959 0.320286
0.414621 0.238415 -0.414507
-0.688986 0.604162 0.319105
0.046086 0.603582 0.320106
-0.686525 0.602217 0.318964
-0.320302 -0.497129 0.319725
0.780653 -0.497576 -0.047014
0.780737 -0.130846 0.319089
0.414932 -0.497414 -0.415248
0.415216 0.236480 -0.416001
0.046710 -0.497911 0.688651
-0.319150 0.237114 -0.414982
-0.321014 0.604397 -0.048133
-0.687017 0.239157 0.685194
0.414959 -0.129929 -0.782843
-0.319670 -0.497821 -0.414724
0.047219 0.236527 -0.781918
0.413088 0.602789 -0.047795
0.414132 0.604218 -0.046515
-0.319530 -0.129180 0.687082
-0.319214 -0.130409 -0.782458
0.780683 -0.498066 -0.048005
0.414631 0.237134 0.319369
-0.319290 -0.131486 0.687112
