OFF
256 0 0
0.030679 0.566339 0.310337
0.048299 -0.497202 -0.069549
0.042650 0.615142 -0.399672
0.785656 -0.128682 0.339746
-0.704076 -0.519078 -0.048831
0.808230 -0.118594 -0.422240
0.048055 -0.498387 -0.069741
0.403866 -0.465878 0.291246
0.054513 0.223816 0.687693
-0.703543 -0.517696 -0.051628
0.044140 0.614114 -0.399377
-0.705140 -0.518147 -0.051611
-0.699737 -0.132213 0.305636
0.037479 0.255553 -0.760836
-0.308653 -0.122909 0.653998
0.036691 0.256161 -0.757385
0.421690 -0.119300 0.707912
0.403686 -0.464849 0.289401
0.047957 -0.499746 -0.067685
-0.685969 0.599769 0.339352
-0.684230 0.601162 0.339573
0.053789 0.225128 0.687539
-0.329125 0.225956 -0.402625
0.047642 -0.498453 -0.070004
0.409750 0.590624 -0.036051
0.042730 0.615353 -0.401190
0.409105 0.591098 -0.035983
0.409171 0.590442 -0.037719
0.055247 0.225969 0.688815
0.410239 0.589804 -0.036068
0.410684 0.589631 -0.036540
0.036386 0.256467 -0.759661
0.058057 -0.499869 -0.755151
0.029556 0.564325 0.309242
-0.309544 -0.119282 -0.774003
0.402985 -0.466956 0.292668
0.417064 -0.470300 -0.414498
0.035764 0.253872 -0.757465
0.031761 0.564996 0.307462
-0.704732 -0.516848 -0.051035
-0.338706 0.615392 -0.029485
-0.684007 0.600187 0.338626
-0.685042 0.599991 0.339958
0.416087 -0.469929 -0.412260
0.409299 0.591585 -0.035886
0.033009 0.563899 0.308025
-0.307716 -0.120197 -0.771261
0.031062 0.566933 0.309546
-0.688236 0.226941 0.689862
0.036640 0.256225 -0.758167
0.057608 -0.499600 -0.752026
0.784804 -0.467867 -0.056127
0.421791 0.223245 -0.428904
0.785461 -0.126201 0.338285
-0.700284 -0.132035 0.306401
-0.308616 -0.118529 -0.772912
-0.306263 -0.125414 0.652383
0.036505 0.256735 -0.758678
0.807272 -0.117947 -0.419073
0.409593 0.220389 0.298906
-0.307003 -0.118472 -0.773275
-0.328832 0.226909 -0.405668
-0.337184 0.615297 -0.029351
0.045907 -0.513997 0.668068
0.783305 -0.466740 -0.056743
0.054524 0.226719 0.688613
0.032051 0.564192 0.308240
-0.311893 0.596914 0.688658
0.044612 0.613205 -0.402075
-0.319684 -0.520907 0.288080
0.409479 0.594988 -0.036043
0.410219 -0.100379 -0.771839
0.057284 -0.501963 -0.752373
-0.307013 -0.125016 0.654793
-0.673581 -0.127986 -0.402860
0.043946 0.616428 -0.400550
0.044703 0.615262 -0.401137
0.403624 -0.467744 0.290239
0.784230 -0.467704 -0.055885
0.789295 0.223798 -0.044982
0.059481 -0.498933 -0.755738
0.036161 0.257025 -0.759389
-0.321747 -0.520066 0.288681
-0.685227 0.600620 0.339557
-0.671092 -0.126289 -0.403358
-0.311317 -0.519053 -0.417342
0.785438 -0.467890 -0.054522
0.417450 -0.470206 -0.413896
-0.704498 -0.517546 -0.050825
0.408409 0.222423 0.296689
0.044199 -0.511713 0.666618
0.784247 -0.469007 -0.054832
0.048981 -0.498287 -0.069703
0.416106 -0.470297 -0.412863
0.410884 0.591580 -0.038535
-0.669513 -0.125127 -0.401848
0.412627 -0.099845 -0.771112
0.033684 0.564240 0.309216
0.048304 -0.512371 0.667202
-0.339886 0.617546 -0.028782
-0.320604 -0.520819 0.288989
0.420463 0.224422 -0.428249
-0.321411 -0.519462 0.288966
0.784586 -0.467704 -0.056340
0.410790 -0.100224 -0.771171
-0.307261 -0.124584 0.654676
0.047162 -0.497180 -0.068651
-0.312110 -0.519593 -0.415097
0.036765 0.253406 -0.760539
0.415767 -0.468751 -0.413264
0.790850 0.224698 -0.047233
0.790532 0.223062 -0.044212
-0.321119 -0.522029 0.289351
0.789911 0.223274 -0.044786
0.422947 -0.119340 0.708369
0.787916 -0.127286 0.338176
-0.329274 0.227297 -0.404208
0.422296 -0.120009 0.708477
0.416127 -0.468576 -0.412251
0.810248 -0.118489 -0.419809
0.808995 -0.118341 -0.419049
-0.699524 -0.130562 0.305305
-0.307432 -0.125467 0.652405
-0.702591 0.253212 -0.034639
-0.700427 -0.131950 0.308006
-0.307119 -0.124529 0.654348
-0.328887 0.226447 -0.406040
0.408050 0.219159 0.299346
-0.312342 -0.517484 -0.415690
0.048149 -0.498794 -0.068749
-0.312211 -0.520757 -0.416498
0.402085 -0.465189 0.292215
-0.323033 -0.521208 0.288783
0.415972 -0.469848 -0.414073
-0.310258 -0.518526 -0.416070
-0.702911 -0.517769 -0.052812
-0.683847 0.602270 0.337300
0.049538 -0.501179 -0.067682
0.808960 -0.119305 -0.420128
0.412072 -0.101036 -0.772060
-0.669391 -0.124329 -0.401395
0.044820 -0.510523 0.667960
-0.322328 -0.519421 0.290442
-0.684415 0.600902 0.339361
-0.704846 -0.521241 -0.051269
0.044817 0.616040 -0.401837
0.808815 -0.118370 -0.421430
0.045515 -0.511543 0.668678
0.784365 -0.467512 -0.055619
0.787410 -0.128048 0.339693
-0.329999 0.227668 -0.405145
-0.672921 -0.129148 -0.403371
0.056771 -0.497582 -0.751756
0.785716 -0.467845 -0.055664
0.423254 0.222719 -0.430397
0.786838 -0.468936 -0.056838
-0.326739 0.226272 -0.404283
-0.703255 -0.518544 -0.051920
0.044654 -0.509936 0.669130
-0.320974 -0.520911 0.289225
0.046860 -0.512031 0.667329
0.782632 -0.468607 -0.054001
-0.307290 -0.123769 0.655048
-0.687407 0.600919 0.339969
0.409440 0.218857 0.300364
0.412150 -0.100754 -0.773748
0.045600 -0.513530 0.668568
-0.307355 -0.123901 0.654544
-0.338017 0.615683 -0.030383
-0.671482 -0.126122 -0.403351
0.056129 0.224322 0.689330
0.807999 -0.117190 -0.419838
0.036350 0.254045 -0.757601
-0.321688 -0.520542 0.288231
-0.683669 0.600665 0.338413
-0.310819 0.595280 0.687947
0.030950 0.564410 0.309629
0.030502 0.565806 0.307541
-0.311040 -0.518112 -0.416737
0.423801 -0.119782 0.708449
-0.311501 0.596503 0.686536
-0.703836 -0.519598 -0.049045
-0.321500 -0.520744 0.289191
0.411503 -0.099060 -0.773308
-0.702963 0.252735 -0.037062
-0.310773 0.596493 0.689155
0.036330 0.254820 -0.758007
0.425568 -0.119524 0.706842
0.409628 0.590395 -0.035875
0.043412 0.613670 -0.400202
0.045437 -0.513207 0.668848
0.033877 0.256357 -0.757354
0.807675 -0.120601 -0.420190
0.046260 -0.510788 0.668086
0.035884 0.255467 -0.758695
0.785711 -0.126170 0.337045
0.058306 -0.501265 -0.753083
-0.310529 0.596806 0.687937
0.056324 -0.500432 -0.753742
0.790940 0.223715 -0.045827
0.421495 0.221808 -0.427889
0.032530 0.564409 0.308630
-0.309704 -0.118693 -0.770999
-0.683993 0.600325 0.339578
-0.688564 0.226921 0.687140
-0.687521 0.227509 0.689895
-0.337614 0.615351 -0.028449
-0.312146 -0.518870 -0.415628
0.407145 0.221758 0.297314
-0.307206 -0.125260 0.653820
-0.684681 0.601852 0.339266
0.043963 0.616623 -0.401191
-0.307535 -0.122766 0.652827
-0.686880 0.601782 0.339631
0.416767 -0.469196 -0.412381
0.423035 -0.119207 0.709316
0.410172 -0.099712 -0.771906
0.409720 0.591962 -0.037874
-0.306719 -0.123715 0.651977
0.410033 0.591559 -0.035157
0.807409 -0.116952 -0.420501
-0.687793 0.227607 0.687845
-0.308676 -0.118787 -0.771057
0.782538 -0.468674 -0.056460
0.413832 -0.099979 -0.771406
0.422350 0.223598 -0.430917
0.035399 0.256231 -0.758251
0.786000 -0.125458 0.339232
-0.310624 -0.519934 -0.416510
0.407959 0.591831 -0.036678
0.784183 -0.468931 -0.055175
-0.309437 -0.119043 -0.770621
0.403923 -0.464795 0.290933
0.047287 -0.498637 -0.069213
0.046105 -0.510062 0.667599
-0.306476 -0.124093 0.655159
-0.322242 -0.520930 0.288646
-0.329574 0.227530 -0.404493
0.423404 -0.119808 0.706607
-0.682521 0.599735 0.337508
-0.671634 -0.126758 -0.402045
0.035682 0.256063 -0.758353
0.411281 0.220427 0.298663
0.036249 0.255748 -0.758543
0.786180 -0.126848 0.338700
-0.702778 0.254467 -0.035609
-0.702059 -0.131736 0.307195
0.411385 -0.097840 -0.773004
0.416347 -0.469845 -0.414818
-0.687841 0.227730 0.687195
0.785721 -0.469483 -0.055514
0.032349 0.564864 0.309074
0.423845 -0.118995 0.707354
0.052718 0.225214 0.688719
0.421257 0.223450 -0.429496
0.047293 -0.512676 0.666085
