OFF
256 0 0
0.872985 0.000147 -0.444632
0.016187 -0.409955 -0.879416
-0.424717 -0.426487 -0.410021
0.452342 0.888598 0.008431
-0.863824 0.422325 -0.000581
0.426391 0.416377 0.413467
0.886683 -0.430188 0.009076
0.423812 -0.402520 -0.385761
0.405708 -0.396170 0.424279
0.853212 0.426030 -0.013182
-0.413359 -0.420933 0.415078
-0.863083 0.424136 -0.000870
0.424249 -0.401670 -0.384891
-0.424313 -0.005787 -0.886836
0.853836 0.422954 -0.012776
0.887874 -0.430107 0.009196
0.863287 0.004408 0.420726
-0.000901 0.422954 -0.847181
-0.848355 -0.019634 -0.448879
-0.016387 -0.868079 0.469056
0.421618 -0.884760 0.003957
0.003725 -0.852074 -0.426989
-0.844660 -0.435340 -0.004943
-0.846365 -0.434822 -0.004910
0.426423 0.415942 0.412102
-0.419245 0.387484 0.411476
0.002890 0.858105 0.426003
-0.846543 -0.436023 -0.004662
0.002151 0.856838 0.427736
-0.842620 -0.433894 -0.004877
0.004877 -0.419742 0.888213
-0.425422 -0.004738 -0.885546
0.003367 0.868720 -0.424905
-0.418778 0.387059 0.411096
0.003557 0.869767 -0.424922
-0.456387 0.003955 0.879188
-0.423002 -0.427747 -0.409142
-0.447601 0.441028 -0.434029
-0.427254 -0.005466 -0.887942
0.436600 0.430288 -0.443406
-0.861612 0.423059 -0.001438
-0.427469 -0.005420 -0.886753
-0.454854 0.004875 0.879076
-0.456352 0.003623 0.879849
-0.849498 -0.019305 -0.449222
0.431717 0.005393 -0.870159
0.452173 0.888252 0.009515
-0.456960 0.004685 0.878888
-0.456984 0.004973 0.879712
0.004452 -0.851850 -0.426136
0.425781 0.416597 0.413591
0.453549 0.889151 0.009040
-0.862946 0.423900 0.000403
0.865732 0.005491 0.418157
0.002390 0.856628 0.426176
-0.873583 0.002631 0.450785
-0.411476 -0.418635 0.414477
0.426738 0.415393 0.413902
-0.423588 -0.426506 -0.411329
0.437628 -0.021355 0.894971
0.864134 0.003859 0.418966
-0.862629 0.422948 -0.000852
-0.446073 0.442552 -0.436320
-0.018322 0.395528 0.856895
-0.457068 0.005159 0.877210
0.865887 0.002307 0.417558
0.003763 -0.852920 -0.427141
0.001736 0.424274 -0.849357
-0.425184 -0.006021 -0.886044
0.000481 0.868475 -0.425636
0.425283 0.417417 0.411843
-0.875457 0.001132 0.451998
-0.447133 0.442534 -0.434748
0.864615 0.004089 0.420809
0.405063 -0.396151 0.427325
-0.444670 -0.874257 -0.030038
0.003961 -0.851564 -0.425810
0.003053 -0.419644 0.887740
-0.423698 -0.427756 -0.409431
-0.844862 -0.434712 -0.005597
-0.844726 -0.435164 -0.005527
-0.416646 0.385361 0.411740
-0.017828 -0.868497 0.467870
-0.423589 -0.425312 -0.409773
-0.863124 0.422142 0.000360
-0.848507 -0.019180 -0.450729
-0.847977 -0.018156 -0.450055
0.452261 0.887372 0.011845
0.864563 0.002087 0.419362
-0.015916 -0.869118 0.470237
-0.874756 0.003245 0.453268
-0.003049 0.423199 -0.848525
0.002001 0.856547 0.425496
-0.427295 -0.006298 -0.885473
0.439700 -0.022197 0.896937
-0.875163 0.000534 0.450036
-0.849009 -0.020808 -0.450961
0.421437 -0.883652 0.002248
-0.872825 0.002381 0.451773
0.005680 -0.851561 -0.426617
0.853514 0.425216 -0.013316
-0.000561 0.425745 -0.847095
-0.017186 0.397377 0.855700
0.014287 -0.409372 -0.879606
0.430729 0.005488 -0.872114
-0.423648 -0.427499 -0.409385
0.864337 0.003836 0.418463
0.439545 -0.023493 0.895007
0.863790 0.002981 0.420673
0.003467 -0.421598 0.885726
0.421161 -0.881860 0.000928
-0.425522 -0.428451 -0.409392
-0.845579 -0.435341 -0.006447
0.406036 -0.397371 0.427334
0.015868 -0.409627 -0.880186
0.002813 -0.419578 0.888925
-0.424789 -0.006141 -0.886443
-0.862119 0.422064 0.001773
0.436233 0.430289 -0.442723
-0.862105 0.422496 -0.000223
-0.846327 -0.434109 -0.003390
-0.001811 0.425517 -0.848639
0.421277 -0.883894 0.003142
-0.410950 -0.420714 0.413999
-0.874677 0.000877 0.452887
-0.425006 -0.004573 -0.886048
0.000257 0.426382 -0.848207
-0.444559 0.442685 -0.436450
-0.863410 0.420907 0.000834
0.001934 -0.419831 0.886123
0.000938 0.857772 0.426039
-0.863303 0.423495 0.000236
-0.442829 -0.874434 -0.032585
0.452739 0.887683 0.010754
0.002233 0.856040 0.426218
0.436881 0.431419 -0.444697
0.424174 -0.401438 -0.386832
0.004231 0.868424 -0.425261
-0.001722 0.425099 -0.847811
0.003451 -0.420969 0.886383
0.000869 -0.419837 0.888481
-0.861583 0.423145 0.002437
0.453071 0.889482 0.009042
-0.446342 0.443008 -0.435752
-0.417378 0.388207 0.414033
-0.846246 -0.433389 -0.004342
0.436150 0.433601 -0.444014
0.452858 0.886931 0.009936
0.003907 0.867967 -0.426040
0.003622 -0.851463 -0.426650
0.851798 0.424292 -0.013003
-0.417734 0.385770 0.413710
0.874226 0.000880 -0.445723
0.427299 0.417378 0.413144
0.852639 0.424700 -0.011424
0.423750 -0.403478 -0.387239
-0.411720 -0.419684 0.413624
-0.019164 0.400094 0.855030
-0.424599 -0.004868 -0.888877
-0.456462 0.003717 0.879200
0.863140 0.004494 0.418531
-0.448655 0.441833 -0.433851
0.452433 0.888567 0.010788
-0.847340 -0.018559 -0.450026
-0.446997 0.443078 -0.436730
0.004025 0.869806 -0.426502
0.003867 0.866383 -0.424662
-0.862779 0.421829 0.001689
-0.442866 -0.875574 -0.031659
0.874184 0.001179 -0.443616
-0.017556 0.397559 0.855260
-0.453941 0.890576 -0.017734
-0.413451 -0.416417 0.413900
-0.862015 0.423606 0.000365
-0.862121 0.422035 -0.000854
-0.424792 -0.005210 -0.886245
-0.417211 0.387851 0.412074
0.887512 -0.430053 0.008408
0.015077 -0.410530 -0.877529
0.865889 0.003508 0.421572
-0.016743 0.396839 0.855281
-0.018448 -0.869978 0.470714
-0.422694 -0.427977 -0.409343
-0.861510 0.424368 0.000390
-0.454128 0.888142 -0.017791
0.004729 -0.852849 -0.426677
0.429871 0.003505 -0.869565
0.427276 0.414357 0.413662
0.427089 0.415443 0.412660
0.000869 0.856914 0.425316
-0.418422 0.386703 0.411379
0.001391 0.856083 0.427678
0.404008 -0.395469 0.427556
-0.848708 -0.019954 -0.448405
-0.418830 0.385097 0.410162
-0.412086 -0.417351 0.414141
0.853287 0.424301 -0.012383
-0.423556 -0.426840 -0.409950
-0.425758 -0.005549 -0.886365
0.452309 0.885725 0.010882
0.852204 0.424712 -0.011137
-0.447973 0.443174 -0.435512
-0.017153 0.399682 0.856119
0.002978 0.858920 0.426266
-0.847670 -0.018306 -0.449294
0.889075 -0.429718 0.008838
-0.444721 -0.875044 -0.031371
0.438856 -0.020014 0.895926
0.865281 0.004762 0.416809
0.422332 -0.882264 0.002799
0.422010 -0.883486 0.003789
0.016496 -0.409112 -0.881259
0.853065 0.425429 -0.011780
0.423357 -0.885193 0.004880
-0.873643 0.002820 0.450139
0.439250 -0.020202 0.895225
0.436794 0.431618 -0.444216
-0.425434 -0.004334 -0.885971
0.405440 -0.396433 0.427955
0.863893 0.002600 0.419818
-0.444395 -0.874183 -0.031659
-0.020119 0.399130 0.854452
0.453228 0.887298 0.010572
0.873675 -0.000125 -0.443922
-0.423791 -0.427633 -0.409876
-0.845737 -0.434319 -0.006057
0.421761 -0.884052 0.004022
-0.423829 -0.005639 -0.885893
-0.421909 -0.427535 -0.409781
-0.417505 0.386581 0.412812
-0.418231 0.388731 0.412148
-0.848047 -0.019414 -0.448440
-0.410295 -0.418949 0.414522
0.430717 0.003867 -0.869975
0.440000 -0.021207 0.895571
0.428194 0.416984 0.411547
0.428980 0.417295 0.412945
-0.423209 -0.428054 -0.410389
0.440934 -0.021965 0.896226
0.453483 0.885966 0.010451
-0.416849 0.386346 0.411722
0.005078 -0.852234 -0.427779
0.002022 -0.420125 0.884994
-0.426823 -0.004159 -0.884995
0.406459 -0.395480 0.426888
0.014600 -0.409143 -0.880815
0.002672 0.856489 0.425586
-0.017897 -0.870859 0.469285
0.864613 0.004200 0.417732
0.871859 0.001684 -0.444553
0.002379 -0.853442 -0.424882
-0.456072 0.004792 0.880412
-0.016809 0.397378 0.855155
-0.455620 0.004593 0.878507
0.430177 0.004222 -0.869086
0.887657 -0.431139 0.010426
