OFF
256 0 0
-0.438644 -0.885935 0.027866
0.418719 -0.405684 0.442272
0.021682 -0.846259 -0.447825
0.027577 0.845693 0.443913
0.878553 -0.412638 0.014488
-0.447281 0.467647 0.458070
0.022157 -0.430385 -0.890499
-0.009914 -0.851857 0.430424
-0.018804 0.826214 -0.436871
0.439546 0.016364 0.861892
-0.861252 0.027095 0.426026
0.885877 0.436561 -0.022877
-0.412206 0.015287 0.870377
-0.016760 0.828088 -0.436826
0.027757 0.844950 0.442918
-0.456276 0.431666 -0.450668
-0.444763 0.468183 0.457585
-0.446610 0.469226 0.458264
-0.005830 0.441956 0.875123
0.885147 0.438805 -0.021440
-0.017486 0.825307 -0.436176
-0.426851 0.019964 -0.849258
0.438796 -0.856229 -0.018566
-0.410944 0.013422 0.871559
0.400805 -0.383841 -0.415040
-0.886076 -0.429575 -0.011925
-0.005013 0.443011 0.874828
0.880765 -0.025175 -0.454898
-0.440119 -0.885469 0.027104
-0.006887 0.439888 0.876056
-0.882040 0.430531 0.014421
0.885769 0.439434 -0.022275
0.001963 0.411785 -0.854161
-0.429915 -0.430087 0.423106
0.420049 -0.405003 0.443907
-0.425762 0.021128 -0.848006
0.020871 -0.431067 -0.889358
-0.411626 0.012571 0.870982
0.408558 0.828707 -0.003119
0.400024 -0.387176 -0.416326
-0.450525 -0.466596 -0.444708
0.421530 -0.405792 0.443738
0.400215 -0.385921 -0.416109
-0.455575 -0.468166 -0.443233
-0.455765 0.431377 -0.452321
0.899928 0.009623 0.425651
0.436314 0.005699 -0.885200
-0.886988 -0.429141 -0.010948
0.410205 0.829125 -0.005381
-0.006180 0.440838 0.875860
-0.411276 0.014494 0.871941
-0.451780 -0.468538 -0.443488
-0.019418 0.828074 -0.436575
-0.901631 -0.000185 -0.430195
-0.000623 0.409487 -0.855859
-0.886969 -0.428703 -0.012036
0.876547 -0.411621 0.016556
-0.395660 0.845227 -0.003111
0.021578 -0.429326 -0.889787
0.899040 0.008371 0.426060
0.439470 0.016486 0.860767
-0.455196 -0.468956 -0.445622
-0.411290 0.014584 0.869563
-0.881267 0.430396 0.010802
0.021933 -0.844746 -0.447045
0.437414 0.017288 0.859935
-0.396919 0.847453 -0.000882
-0.429257 -0.430567 0.425293
-0.889093 -0.429977 -0.011572
0.000156 0.412343 -0.856127
0.420937 -0.406621 0.442938
0.419421 -0.406443 0.443415
0.028207 0.845292 0.446381
-0.901259 -0.000874 -0.430781
-0.445877 0.468962 0.458157
-0.884189 0.430951 0.013086
-0.427199 0.017382 -0.847824
0.399416 -0.385775 -0.415108
0.439328 -0.854014 -0.018429
0.451006 0.419166 0.445779
0.885694 0.438925 -0.022414
0.027121 0.845634 0.446362
-0.427217 0.017163 -0.847875
0.437744 0.016765 0.863283
0.400696 -0.384990 -0.417714
-0.000392 0.413157 -0.856377
-0.397234 0.844856 -0.002594
0.881506 -0.027419 -0.455003
0.878288 -0.412320 0.015914
-0.859965 0.026721 0.424102
-0.887681 -0.429689 -0.014485
0.896368 0.007301 0.423768
-0.012336 -0.854501 0.429777
-0.006732 0.442237 0.875347
0.411132 0.827918 -0.003348
-0.006689 0.441299 0.877206
0.878071 -0.411388 0.016502
0.025626 0.845085 0.446086
-0.457360 0.430918 -0.450188
-0.004305 -0.431882 0.877596
0.900626 0.008640 0.423686
-0.427814 0.018358 -0.848828
0.400147 -0.385539 -0.418437
0.437650 0.017717 0.860651
0.000805 0.411891 -0.856171
0.437140 0.015556 0.859993
0.419332 -0.405707 0.442055
0.021659 -0.428762 -0.890496
0.881357 -0.026230 -0.453602
0.419730 -0.404134 0.442660
-0.430723 -0.429774 0.422656
-0.002171 0.412446 -0.855139
-0.010220 -0.854234 0.430579
-0.883896 0.429924 0.011531
0.434855 0.005481 -0.884474
0.021708 -0.428777 -0.888592
0.409689 0.828622 -0.004656
0.436086 0.004389 -0.883866
0.886791 0.437119 -0.022526
-0.428114 0.018804 -0.848794
-0.455251 0.430538 -0.451540
-0.019067 0.827291 -0.436632
0.880283 -0.025418 -0.452981
0.439653 -0.854524 -0.018407
-0.900796 0.000559 -0.429864
-0.429217 0.017792 -0.848399
-0.429159 -0.429947 0.423210
-0.396407 0.845877 -0.004360
0.020694 -0.428076 -0.889919
-0.456028 0.429802 -0.452005
0.437176 0.005841 -0.884543
0.877850 -0.412008 0.018290
-0.000671 0.412290 -0.855196
0.026198 0.845377 0.446024
0.439260 -0.856593 -0.018711
-0.006958 0.439828 0.874345
-0.411140 0.013829 0.871064
0.423174 0.381288 -0.418425
0.436983 0.017518 0.861574
-0.007941 0.440352 0.875638
0.020956 -0.428425 -0.888119
-0.900822 -0.000892 -0.430442
0.898137 0.009037 0.425416
-0.857965 0.025362 0.424870
0.423740 0.381295 -0.419596
-0.006846 0.440985 0.875516
0.027476 0.845779 0.446507
-0.886783 -0.428390 -0.012951
-0.889138 -0.432528 -0.012846
0.875508 -0.411829 0.016937
-0.453475 -0.467299 -0.445975
0.028435 0.844936 0.444895
0.028525 0.844160 0.445589
-0.453752 -0.466560 -0.443127
0.410504 0.828421 -0.004091
0.880371 -0.027934 -0.454265
-0.001860 -0.431130 0.878725
-0.395578 0.845919 -0.002650
-0.010657 -0.852740 0.429535
0.898981 0.010743 0.425532
-0.412420 0.015501 0.871377
-0.427840 0.019538 -0.848731
0.878149 -0.412185 0.016469
-0.446006 0.467845 0.459735
-0.394315 0.843453 -0.002382
0.400495 -0.386779 -0.417957
0.419113 -0.408104 0.443293
0.437538 0.016815 0.860562
-0.004164 -0.430848 0.878155
0.437831 0.015608 0.860192
0.423505 0.382699 -0.418681
-0.445083 0.469512 0.459842
-0.452284 -0.467968 -0.446632
0.435490 0.017045 0.860008
-0.903652 -0.000769 -0.429346
0.877321 -0.412494 0.016752
0.439177 -0.854732 -0.019726
-0.019407 0.827053 -0.438219
0.400094 -0.386351 -0.417713
0.419957 -0.404450 0.442532
-0.010807 -0.851101 0.430891
-0.012771 -0.852944 0.431354
-0.439043 -0.888312 0.026660
-0.414055 0.014419 0.869660
0.880974 -0.025855 -0.454818
-0.428459 0.020032 -0.848998
-0.438653 -0.888255 0.026551
0.021699 -0.428725 -0.892964
-0.456855 0.431155 -0.452307
0.450947 0.419174 0.445213
0.021828 -0.845008 -0.447091
-0.903858 -0.001148 -0.430861
0.438408 -0.854436 -0.017951
-0.005264 0.440011 0.876825
0.437502 -0.855662 -0.017716
-0.438033 -0.887266 0.028253
-0.428621 -0.429807 0.422517
-0.881928 0.430397 0.013788
0.898133 0.008071 0.423599
0.898602 0.009622 0.424532
0.422704 0.381668 -0.418935
0.451403 0.418665 0.446128
-0.888041 -0.430238 -0.011818
-0.858129 0.025043 0.424753
0.438525 -0.855245 -0.017844
-0.445482 0.468147 0.457013
0.437230 0.017343 0.860846
0.424136 0.382055 -0.421080
-0.887433 -0.428729 -0.012707
-0.883568 0.430435 0.015062
0.897012 0.007990 0.422128
-0.446780 0.471050 0.460266
-0.900667 0.000487 -0.429753
0.402016 -0.386964 -0.417938
0.424154 0.380901 -0.419413
0.898604 0.010066 0.426895
0.022157 -0.431416 -0.891099
-0.902888 0.001105 -0.430580
-0.006660 0.440522 0.876303
-0.001308 -0.431746 0.877988
-0.445857 0.467683 0.458472
0.028209 0.845308 0.445758
0.400977 -0.385450 -0.413990
0.886979 0.438169 -0.023175
0.411515 0.827269 -0.003331
0.436180 0.005689 -0.882486
0.422953 0.382519 -0.420072
0.424198 0.381199 -0.418417
0.020915 -0.429239 -0.890527
-0.429039 -0.430450 0.423813
0.000139 0.411913 -0.854945
-0.887705 -0.429697 -0.012727
-0.002489 -0.432150 0.879261
0.401038 -0.386286 -0.415694
-0.859757 0.027173 0.424715
0.021553 -0.847022 -0.448690
0.029433 0.844801 0.446249
-0.412032 0.015386 0.870930
-0.000595 0.410661 -0.856399
-0.438345 -0.886280 0.027366
0.419690 -0.406181 0.443036
0.438967 -0.854760 -0.017473
0.436940 0.015925 0.862182
-0.395491 0.844981 -0.003176
0.022327 -0.430450 -0.889844
-0.452161 -0.467043 -0.443487
-0.453709 -0.465597 -0.443543
0.423112 0.382580 -0.419168
-0.454002 -0.467086 -0.443618
-0.414277 0.015338 0.870806
-0.437899 -0.886393 0.026937
-0.017897 0.826313 -0.436955
0.879232 -0.024727 -0.455285
-0.018029 0.826848 -0.436393
0.884240 0.438703 -0.021124
0.022875 -0.845615 -0.448732
