OFF
256 0 0
0.422727 -0.412490 0.440340
0.856833 -0.422863 -0.009459
-0.874036 -0.431322 -0.007704
0.410168 -0.428541 -0.424185
-0.886974 -0.003161 0.458188
0.452535 0.455709 0.437475
-0.419697 0.386973 -0.417206
-0.888533 -0.011920 -0.443705
0.857576 -0.423433 -0.010641
0.870463 0.003618 0.424541
0.867652 0.002250 0.422829
0.441578 -0.871117 0.012727
0.869219 0.003487 0.423088
0.431536 0.009073 -0.844789
-0.420093 0.845119 -0.014940
-0.005721 0.428408 -0.834570
0.003046 0.850638 0.388469
0.425295 -0.410941 0.439466
-0.417798 0.847992 -0.016404
-0.887878 -0.010323 -0.443479
-0.006380 -0.443319 -0.866499
-0.027758 -0.850675 0.404057
0.003900 0.852551 0.389422
0.415273 0.418492 -0.443702
0.433103 0.011449 -0.847619
-0.422745 0.385500 -0.415774
-0.893192 0.429191 0.006280
-0.418995 0.847286 -0.014095
0.006344 -0.402030 0.871723
0.442023 0.017930 0.894741
0.868252 0.004370 0.424055
0.443258 0.016523 0.897518
-0.437984 -0.016533 -0.850433
0.009348 -0.401367 0.871642
0.434656 0.859492 -0.014008
-0.443258 -0.865088 -0.021477
-0.886750 -0.010210 -0.443072
0.858966 -0.421144 -0.010078
-0.005461 -0.444662 -0.864436
-0.883683 -0.003373 0.457928
0.860381 0.437781 -0.021217
-0.420585 0.846569 -0.015348
0.003609 0.851992 0.386802
0.417325 0.418084 -0.443264
0.425288 -0.413097 0.438469
0.868633 0.003975 0.425007
-0.425366 0.407855 0.420101
0.434866 0.859049 -0.011786
-0.003622 0.425971 -0.834541
-0.399327 -0.418402 -0.418296
-0.424539 0.406615 0.419578
-0.439448 -0.016260 -0.850514
-0.885908 -0.003102 0.459460
0.857516 -0.422706 -0.009980
-0.444265 -0.864803 -0.021831
-0.425548 0.406157 0.419363
0.415970 0.420087 -0.443591
0.853962 -0.039990 -0.440391
-0.884256 -0.001778 0.458274
-0.429026 -0.429698 0.428539
-0.027385 -0.851212 0.405734
-0.873571 -0.431193 -0.009287
0.425029 -0.412467 0.438664
0.411850 -0.425694 -0.424711
0.856472 -0.038872 -0.440350
-0.004378 0.427915 -0.832973
-0.427261 -0.429707 0.427605
-0.006817 0.884379 -0.433151
-0.428245 -0.432736 0.428440
0.424091 -0.409095 0.439593
-0.445010 -0.864877 -0.022212
-0.417701 0.849052 -0.015277
-0.420386 0.384987 -0.418254
-0.002395 0.427388 -0.832774
-0.420590 0.385386 -0.416456
-0.005203 0.883610 -0.430433
-0.891529 0.430270 0.006383
-0.025321 -0.851225 0.405225
0.856032 -0.421289 -0.010033
-0.425335 0.406668 0.420972
-0.005834 -0.443239 -0.862477
0.040179 0.451311 0.868865
0.041134 0.451532 0.869879
0.003168 0.852776 0.387234
-0.425731 -0.430534 0.430845
-0.872534 -0.432854 -0.007857
0.413657 -0.427341 -0.423748
-0.444994 -0.863727 -0.023504
-0.005006 -0.444064 -0.863907
0.416847 0.417391 -0.441224
0.858393 -0.420229 -0.009229
-0.871883 -0.432577 -0.008334
0.861733 0.437145 -0.020795
-0.437177 -0.015328 -0.850165
-0.885097 -0.004147 0.459040
0.442631 0.015761 0.895107
-0.398529 -0.419042 -0.418335
-0.026540 -0.850794 0.405971
0.440255 -0.871033 0.014044
0.412815 -0.425387 -0.424230
-0.004546 0.427539 -0.833100
0.449129 0.456553 0.439086
0.854739 -0.421776 -0.011236
-0.423910 0.406186 0.420155
-0.422278 0.384315 -0.416112
0.039718 0.449442 0.868738
-0.027862 -0.849346 0.405764
0.424458 -0.412270 0.440164
0.449177 0.456136 0.438527
0.449214 0.457321 0.438344
-0.443179 -0.865241 -0.023378
-0.428966 -0.430118 0.430859
-0.028120 -0.851177 0.405921
0.011474 -0.865857 -0.442318
0.433304 0.010219 -0.847010
0.441441 -0.870902 0.012008
-0.891613 0.431556 0.007995
0.433471 0.859618 -0.011554
-0.027014 -0.851238 0.404131
-0.883507 -0.004003 0.458649
0.012651 -0.864096 -0.439598
0.432965 0.008881 -0.845593
-0.396470 -0.418201 -0.419809
-0.884358 -0.004847 0.458075
-0.005259 -0.443553 -0.864292
0.858780 -0.421554 -0.010123
-0.428957 -0.430624 0.430846
0.869758 0.003605 0.423351
0.856329 -0.038104 -0.439654
0.012788 -0.866033 -0.440362
-0.001915 0.427214 -0.833748
0.004284 0.852350 0.387680
-0.885316 -0.004004 0.458005
0.039395 0.449513 0.868734
0.426095 -0.410872 0.439673
0.011483 -0.865214 -0.440739
0.004963 0.850357 0.387996
-0.873837 -0.432507 -0.008854
-0.003275 0.428441 -0.832626
-0.026580 -0.851194 0.404257
0.041145 0.448109 0.870175
0.857922 -0.422459 -0.010442
0.434313 0.861560 -0.009720
-0.446137 -0.864175 -0.021941
-0.418682 0.846758 -0.015785
0.424309 -0.412012 0.439709
0.434573 0.857634 -0.011993
-0.003641 0.429185 -0.832059
0.009817 -0.400195 0.872766
0.857345 -0.421352 -0.011445
0.003613 0.850251 0.388683
-0.420678 0.845719 -0.014633
-0.005309 0.883052 -0.431080
0.440307 -0.872731 0.012574
-0.871320 -0.431763 -0.010862
-0.883941 -0.002870 0.459214
0.012164 -0.865262 -0.440695
-0.005056 0.884092 -0.431543
0.443041 -0.871769 0.012376
-0.886662 -0.010116 -0.442039
-0.003824 0.426650 -0.832004
-0.426708 -0.430473 0.428460
-0.429927 -0.431408 0.428172
0.444163 0.016523 0.896248
0.040953 0.447762 0.870000
-0.888837 -0.011572 -0.442782
0.003665 0.850632 0.389684
0.857803 -0.422122 -0.012435
-0.418948 0.845992 -0.014671
0.443449 0.017789 0.894665
0.448779 0.457750 0.439127
-0.420527 0.385455 -0.417128
-0.007194 -0.446343 -0.865219
0.859563 0.437085 -0.022037
-0.884602 -0.001281 0.458867
-0.005741 0.884084 -0.432037
0.424488 -0.412222 0.441863
0.013678 -0.863227 -0.439476
0.003560 0.851077 0.388677
0.041811 0.448049 0.870325
-0.397865 -0.417345 -0.419732
0.041225 0.450626 0.871166
0.870522 0.003822 0.423074
0.433204 0.009334 -0.846976
0.434684 0.858607 -0.011782
-0.426636 -0.430475 0.428918
0.417991 0.420075 -0.444148
-0.396928 -0.416586 -0.417135
-0.885143 -0.002766 0.458890
0.008626 -0.401897 0.870358
0.858461 -0.421319 -0.010241
0.426929 -0.411614 0.439504
-0.887596 -0.012078 -0.442812
0.014711 -0.863638 -0.440746
0.007701 -0.401736 0.874035
-0.398033 -0.417552 -0.418631
0.426327 -0.411872 0.440579
0.450293 0.456376 0.438104
-0.893561 0.429714 0.007047
0.854219 -0.038764 -0.437810
0.869459 0.002087 0.423773
0.424752 -0.412112 0.440194
-0.419694 0.385585 -0.418997
-0.890949 0.429338 0.007111
0.444193 0.018254 0.896866
0.443960 0.016532 0.896007
-0.437427 -0.017935 -0.849476
-0.888412 -0.011104 -0.442707
-0.419962 0.846806 -0.015379
0.868395 0.003952 0.423468
-0.420187 0.847191 -0.014273
0.441578 -0.870184 0.011193
0.041159 0.449636 0.871775
-0.409027 0.022158 0.874194
-0.004395 0.428576 -0.832751
0.431663 0.009437 -0.845141
-0.003535 0.427934 -0.832363
0.410713 -0.426830 -0.424399
0.449559 0.455807 0.436613
-0.398855 -0.416458 -0.418685
-0.437586 -0.017521 -0.850768
-0.422834 0.386575 -0.414966
-0.004213 0.429514 -0.832998
-0.425420 0.405706 0.419154
0.858808 -0.421644 -0.011867
0.434277 0.861104 -0.014255
-0.410429 0.021887 0.875367
-0.873642 -0.433988 -0.007609
0.002497 0.851077 0.387125
-0.027434 -0.850606 0.405316
-0.398346 -0.419501 -0.418590
-0.411144 0.020791 0.878267
-0.006608 -0.442877 -0.863882
-0.442102 -0.862759 -0.023057
0.859889 -0.420945 -0.011533
-0.894143 0.430302 0.007911
0.411711 -0.426673 -0.424378
-0.872073 -0.430087 -0.007976
0.450143 0.455600 0.437982
-0.439389 -0.016706 -0.850287
-0.420576 0.848676 -0.015653
0.857126 -0.420834 -0.010849
0.410122 -0.426206 -0.424570
-0.005172 0.883916 -0.430652
-0.398786 -0.418249 -0.418923
-0.892104 0.430263 0.007580
0.441569 0.016964 0.897401
0.425847 -0.411747 0.439472
-0.425967 0.408487 0.421097
-0.420215 0.383408 -0.416205
-0.889299 -0.011231 -0.443149
0.410696 -0.426518 -0.425638
-0.889701 -0.011336 -0.444001
-0.028821 -0.849513 0.404869
-0.412025 0.020929 0.875889
-0.412295 0.020654 0.875244
