OFF
256 0 0
0.410948 -0.437834 -0.443036
0.864833 -0.028952 -0.440625
0.879514 0.420075 -0.009139
-0.016530 0.439623 0.897724
0.448895 0.856528 0.001498
0.855089 0.010074 0.468563
-0.419758 0.442742 -0.408753
0.865250 -0.028685 -0.438779
-0.858162 -0.423066 0.006399
0.402857 0.005326 -0.872074
0.864787 -0.030005 -0.439825
-0.020208 0.439770 0.897691
-0.412701 -0.413351 0.391596
-0.005944 -0.850730 -0.410896
0.010429 -0.441736 0.861099
-0.000631 0.863677 0.405848
-0.399125 -0.019045 0.844490
-0.458357 0.869880 -0.015175
-0.866209 -0.007460 0.440065
0.014657 -0.853324 0.425000
0.409841 -0.439221 -0.445689
0.448403 -0.852930 0.026343
0.880250 0.421888 -0.007669
0.422616 0.428137 -0.404016
0.855176 -0.430907 -0.015427
0.856623 -0.430073 -0.014621
-0.428503 0.000276 -0.857395
-0.435608 0.403099 0.403500
0.856117 0.010911 0.468464
0.384508 0.420686 0.394749
0.009901 -0.442906 0.858675
0.879161 0.419434 -0.008357
0.450147 0.856878 0.001560
-0.007264 -0.850400 -0.410933
0.855069 0.009360 0.469703
0.386875 0.420156 0.395026
0.015160 -0.854031 0.425240
0.422492 0.429015 -0.403352
-0.006899 -0.852026 -0.411091
-0.020291 0.440658 0.897557
0.000488 0.865558 0.404395
-0.458414 0.870047 -0.015606
-0.433710 0.402534 0.400799
-0.855218 0.411193 0.014390
0.422291 0.429440 -0.403442
-0.005862 -0.851465 -0.411367
-0.418761 0.441803 -0.408845
-0.412183 -0.414561 0.390506
0.854364 -0.430863 -0.015032
-0.827514 0.012686 -0.441972
-0.865058 -0.006683 0.437645
-0.417988 0.441426 -0.409247
-0.826161 0.013274 -0.442165
-0.418735 0.441283 -0.409075
-0.445843 -0.870801 0.018113
0.423602 0.428560 -0.403736
0.856919 0.010107 0.469859
0.877706 0.420587 -0.008407
-0.413701 -0.414959 0.389303
0.880353 0.418999 -0.008471
0.008447 -0.444098 0.858886
0.404949 0.004616 -0.873464
0.007086 -0.444455 0.857520
0.412203 0.013746 0.891894
-0.458673 0.869986 -0.017287
0.854747 0.007806 0.468683
0.014512 -0.852234 0.423499
0.855758 -0.429313 -0.012641
-0.434594 0.403413 0.402934
-0.418051 -0.438611 -0.421525
0.420580 0.427468 -0.404722
0.409265 -0.438276 -0.444454
0.405416 -0.394666 0.434973
-0.398068 -0.019694 0.846723
0.880029 0.418367 -0.008944
0.865248 -0.028548 -0.439995
-0.445213 -0.868113 0.015244
-0.431082 -0.000361 -0.855972
0.000520 0.862630 0.403289
0.000747 -0.429509 -0.873494
-0.430413 -0.001173 -0.856541
0.407061 -0.395146 0.434082
-0.000961 -0.431679 -0.870946
0.854894 0.010324 0.467117
0.864407 -0.028646 -0.438772
0.865598 -0.028115 -0.439321
-0.002163 -0.432369 -0.871699
0.010998 0.439395 -0.874734
-0.416808 -0.437259 -0.420858
-0.415815 -0.437171 -0.420894
0.448924 0.859874 0.003930
0.007397 -0.440332 0.859164
0.405525 0.003419 -0.875204
0.022064 0.858194 -0.429375
0.855847 0.008327 0.468680
0.449870 0.857469 0.001794
-0.856465 0.409981 0.011662
-0.431282 0.000623 -0.853960
-0.410820 -0.412317 0.390609
-0.018412 0.440202 0.897796
-0.006731 -0.851672 -0.410678
-0.398333 -0.019747 0.845470
-0.853093 0.409378 0.010677
-0.435346 0.401220 0.401979
0.008450 0.439862 -0.876464
0.019290 0.859903 -0.428288
0.450935 -0.854009 0.027546
-0.828196 0.012103 -0.441945
-0.006767 -0.850287 -0.412730
0.015269 -0.851938 0.423649
0.855206 0.010738 0.467615
0.384789 0.419053 0.394685
-0.828969 0.013281 -0.441475
0.864984 -0.029045 -0.439127
0.451842 -0.852883 0.026291
-0.416322 -0.438997 -0.419417
0.009229 0.439669 -0.875921
-0.866245 -0.008191 0.437756
0.407888 -0.394367 0.434461
0.414630 0.014204 0.891550
-0.006549 -0.850228 -0.412873
0.865969 -0.028281 -0.439886
0.406690 -0.395059 0.433711
0.000206 0.864150 0.403376
0.449667 -0.855996 0.026035
0.010289 0.441257 -0.875261
0.449382 -0.853846 0.026152
0.000510 -0.433023 -0.875318
-0.412182 -0.414611 0.389513
0.409217 -0.438940 -0.443153
0.407297 -0.395305 0.433059
0.855566 -0.429027 -0.013774
0.013150 -0.852075 0.421983
-0.418949 0.442290 -0.410283
0.009327 0.439922 -0.875637
0.451012 -0.855325 0.023362
0.009338 -0.442899 0.859795
-0.397249 -0.020178 0.846591
0.422158 0.429838 -0.404102
0.880087 0.419190 -0.007910
-0.444705 -0.873661 0.016729
-0.829152 0.011621 -0.441948
0.016377 -0.854585 0.424667
-0.854186 0.407870 0.012753
0.021460 0.858975 -0.428506
0.000840 0.864225 0.404402
0.855275 0.011061 0.468926
0.880579 0.421866 -0.009397
0.453279 -0.853608 0.024111
-0.412628 -0.412837 0.388823
-0.000641 0.864942 0.405125
0.866961 -0.028281 -0.440683
0.405802 -0.395896 0.435951
0.021226 0.858835 -0.428282
-0.446197 -0.869341 0.014385
0.879276 0.419110 -0.007182
0.002102 0.864762 0.405222
0.402991 0.006439 -0.873064
-0.419209 0.442552 -0.410294
0.385342 0.422483 0.397209
0.407295 -0.395758 0.434808
0.853408 0.011537 0.469007
-0.435223 0.402080 0.404353
-0.855183 0.408454 0.012254
-0.867103 -0.005063 0.439650
0.412087 0.014916 0.889954
-0.019357 0.439223 0.896860
-0.858072 -0.423132 0.008491
0.385240 0.421158 0.395973
0.014073 -0.854623 0.424724
-0.418759 -0.438947 -0.420144
-0.005486 -0.849613 -0.411031
0.405391 -0.396621 0.434048
0.408684 -0.436866 -0.445131
0.011365 0.440108 -0.874360
0.450634 0.856181 0.002470
0.015019 -0.853194 0.424623
0.014634 -0.852891 0.425006
0.406697 -0.396016 0.433376
0.450286 0.857268 0.001074
-0.860441 -0.424779 0.007732
0.449173 -0.852217 0.025854
0.022032 0.859753 -0.431135
0.450775 -0.853676 0.023157
-0.416188 -0.439121 -0.419962
0.879462 0.420809 -0.009701
-0.412929 -0.414601 0.393293
-0.413807 -0.414673 0.390167
-0.829217 0.011661 -0.441259
0.881196 0.419958 -0.007722
-0.435623 0.402468 0.403249
0.016162 -0.851848 0.424041
-0.855156 0.409741 0.014465
-0.434972 0.403566 0.403715
-0.418766 0.441403 -0.410254
0.383992 0.420615 0.395921
0.421077 0.428416 -0.402804
-0.415236 -0.439608 -0.421922
0.410238 -0.438156 -0.443131
-0.411060 -0.412848 0.390365
-0.398594 -0.020775 0.846859
-0.415292 -0.439409 -0.421569
-0.446283 -0.871459 0.016516
-0.458838 0.870992 -0.015778
-0.020430 0.440890 0.896914
0.009762 0.441649 -0.874424
-0.864731 -0.007681 0.437294
0.000283 0.864354 0.404082
-0.858980 -0.424233 0.008420
-0.416376 -0.441679 -0.421751
-0.412410 -0.413100 0.391223
-0.001083 -0.430200 -0.872578
-0.827553 0.013197 -0.442202
0.411450 -0.436328 -0.443248
0.450552 -0.851679 0.026925
-0.429926 0.000530 -0.856341
0.854638 -0.428513 -0.013560
0.011240 0.438207 -0.874883
0.383576 0.421722 0.396558
0.854501 0.007775 0.469164
0.405634 -0.395826 0.435677
0.449737 -0.854648 0.026493
-0.854784 0.411195 0.010784
-0.827705 0.012040 -0.440445
-0.417388 -0.438394 -0.419971
0.407424 -0.393526 0.434782
-0.830356 0.011295 -0.442506
0.876088 0.418763 -0.007043
-0.863413 -0.008130 0.437022
-0.854970 0.410468 0.012794
-0.019925 0.439979 0.898733
0.406116 -0.393391 0.434757
0.000732 -0.430397 -0.872581
-0.854423 0.408475 0.010811
0.386562 0.419440 0.395107
-0.828221 0.013637 -0.441174
-0.856301 0.410940 0.013323
-0.855537 0.410251 0.012370
0.015310 -0.852060 0.422842
-0.397427 -0.019934 0.845551
0.421622 0.428371 -0.403525
0.014367 -0.853077 0.423757
-0.828828 0.013345 -0.441799
-0.858434 -0.422269 0.007894
-0.865925 -0.006893 0.437718
0.015507 -0.854407 0.422601
0.854192 0.010952 0.469099
0.878238 0.420291 -0.008029
0.009919 0.440714 -0.876678
-0.431335 0.000169 -0.856158
0.421804 0.428806 -0.403002
-0.431249 0.000207 -0.855675
0.008134 0.439344 -0.875651
0.405732 0.005559 -0.874008
-0.829288 0.016696 -0.442331
0.008127 0.442650 -0.873970
