OFF
256 0 0
0.880617 -0.441409 -0.007286
0.825379 0.430634 -0.038603
0.426116 -0.802659 -0.003512
-0.358864 0.394565 -0.400070
-0.023849 -0.843084 -0.439219
-0.436932 -0.871740 0.000937
0.854021 -0.014090 -0.418000
-0.001829 -0.433562 0.883030
-0.863794 -0.003651 -0.434083
0.004336 0.911054 -0.412967
0.404933 -0.028262 -0.836728
0.824840 0.429830 -0.038418
0.405360 -0.030397 -0.838489
0.458314 0.866628 -0.018594
-0.427979 0.419100 0.456746
-0.411061 -0.004667 0.872726
-0.436424 -0.870365 -0.000510
-0.003909 0.418063 -0.884686
-0.885250 -0.417148 -0.004153
0.446774 0.012198 0.873072
-0.855762 0.396148 -0.004085
-0.001643 -0.431314 0.883188
0.875586 0.014763 0.407662
-0.358571 0.394166 -0.400459
-0.428050 0.415740 0.454410
-0.854965 0.397021 -0.002777
-0.418912 -0.419708 0.395457
-0.419447 -0.421115 0.393561
0.004671 0.910950 -0.414118
0.002656 0.910391 -0.412603
-0.857545 0.396387 -0.003986
-0.397627 0.832705 0.019091
-0.855992 0.396063 -0.002365
0.426910 -0.800855 -0.004006
-0.426889 0.417615 0.454763
-0.446084 0.001350 -0.857491
0.427563 -0.380426 0.439808
-0.446783 0.002083 -0.856455
-0.420780 -0.421153 0.394242
0.825889 0.429157 -0.038216
-0.011660 -0.843544 0.411103
-0.418652 -0.421775 0.394894
0.875320 0.013763 0.408163
0.404236 -0.028945 -0.837345
0.418844 0.421212 0.458305
-0.851635 -0.004795 0.429692
-0.399825 0.832749 0.020125
-0.863923 -0.003916 -0.433944
-0.886847 -0.416150 -0.003713
-0.427193 0.418765 0.457242
-0.021985 -0.845741 -0.440526
0.385929 0.423800 -0.455794
-0.864584 -0.002814 -0.431325
0.425065 -0.378322 0.440341
-0.011721 -0.843760 0.413122
-0.004757 0.417123 -0.886236
-0.863877 -0.002558 -0.434908
0.881669 -0.440790 -0.006773
0.387743 0.424765 -0.455763
-0.420078 -0.422988 0.393120
0.022070 0.834403 0.405616
-0.003694 -0.434050 0.882931
0.458864 0.866728 -0.017606
-0.004370 0.419167 -0.885954
-0.007985 0.435778 0.865000
-0.428276 0.419881 0.456298
-0.412981 -0.005421 0.872329
-0.435481 -0.875229 0.002133
-0.007477 0.434678 0.864543
-0.410693 -0.006197 0.874495
-0.411607 -0.005896 0.873719
0.856190 -0.014194 -0.418556
-0.857007 0.397939 -0.004736
-0.435438 -0.872390 0.001440
-0.359681 0.394355 -0.401824
0.001604 0.909943 -0.413447
-0.427972 0.417706 0.454980
0.876585 0.015585 0.406047
-0.002789 -0.433197 0.882733
-0.012732 -0.840965 0.413872
-0.427052 0.418476 0.458039
0.021585 0.833145 0.407335
-0.417246 -0.442684 -0.408335
0.880013 -0.440729 -0.006617
-0.850766 -0.004199 0.429186
0.874893 0.015285 0.408165
0.427306 -0.377386 0.442526
-0.002043 -0.432939 0.882457
-0.417291 -0.442047 -0.408084
0.874718 0.015029 0.408624
-0.000665 -0.432421 0.882513
0.427178 -0.379820 0.441645
-0.887749 -0.415666 -0.004236
0.458195 0.868666 -0.018257
-0.862475 -0.002171 -0.434332
-0.885685 -0.417288 -0.003148
-0.398872 0.832462 0.018136
0.387407 0.423964 -0.455978
-0.409748 -0.005700 0.873890
-0.447266 0.002025 -0.856012
0.426349 -0.378590 0.438957
-0.014648 -0.463426 -0.877083
0.004626 0.910713 -0.413357
0.852819 -0.012388 -0.417042
0.418420 0.421847 0.459386
-0.886349 -0.417052 -0.004629
0.880644 -0.441336 -0.007114
-0.852513 -0.006951 0.428019
0.409139 -0.404059 -0.416826
-0.862303 -0.002205 -0.432691
-0.397829 0.831679 0.019895
0.419545 0.420760 0.459498
-0.863105 -0.002576 -0.432269
0.385557 0.422539 -0.456146
-0.417526 -0.441663 -0.409550
0.876396 0.014383 0.407348
-0.360166 0.393778 -0.402687
-0.446795 0.000153 -0.855421
-0.435074 -0.870965 0.000606
0.426895 -0.800612 -0.000631
-0.429153 0.419745 0.455710
-0.415768 -0.440095 -0.408151
0.019852 0.835427 0.409003
0.878614 -0.443530 -0.007445
0.878790 -0.442165 -0.006789
0.018883 0.835100 0.406906
0.417761 0.419743 0.457512
-0.397372 0.833477 0.017508
-0.013210 -0.461368 -0.876376
-0.418129 -0.419835 0.394010
0.853728 -0.013305 -0.416191
-0.359791 0.391199 -0.402324
-0.428694 0.419866 0.456373
0.001832 0.909609 -0.411814
0.825493 0.430281 -0.037983
0.446219 0.011144 0.872182
-0.359415 0.394649 -0.401648
0.021031 0.834195 0.407550
0.875251 0.015835 0.409506
-0.410215 -0.006322 0.873968
0.003123 0.910919 -0.413285
0.825441 0.427682 -0.037800
-0.010258 0.434023 0.865328
0.408663 -0.403547 -0.416417
-0.014221 -0.840614 0.412653
-0.420584 -0.420875 0.395211
-0.359346 0.394968 -0.402931
-0.002833 0.419025 -0.885050
0.417957 0.420168 0.460254
-0.411436 -0.006912 0.874902
-0.416489 -0.441134 -0.409193
0.020825 0.835718 0.406847
-0.855884 0.397870 -0.002742
-0.446290 0.002961 -0.856780
-0.358968 0.392596 -0.401262
-0.418420 -0.421018 0.393182
-0.446346 0.000069 -0.856264
-0.014136 -0.842145 0.413009
-0.005720 0.418432 -0.885644
-0.420716 -0.420645 0.393665
0.425034 -0.802695 -0.003669
0.448803 0.010284 0.871993
0.405665 -0.028315 -0.838055
-0.420513 -0.420677 0.396567
-0.863841 -0.002961 -0.434136
0.425677 -0.802126 -0.001257
0.873086 0.014701 0.407840
-0.853007 -0.003646 0.428236
-0.850835 -0.003870 0.429444
-0.001651 -0.431403 0.881316
-0.446016 0.001798 -0.856869
-0.887170 -0.415957 -0.004994
-0.887683 -0.417172 -0.005180
0.419007 0.421284 0.456997
-0.397826 0.833088 0.019460
0.021789 0.834968 0.407231
0.459547 0.866828 -0.017637
-0.428933 0.418872 0.454281
0.002802 0.910774 -0.414892
-0.886576 -0.416050 -0.001812
0.854268 -0.012391 -0.417734
-0.398467 0.831377 0.019537
0.404591 -0.028263 -0.837830
0.880620 -0.440963 -0.007617
-0.862898 -0.003093 -0.433130
0.019971 0.835123 0.407554
0.004402 0.909941 -0.414692
0.420355 0.419157 0.457437
-0.420074 -0.422130 0.392527
-0.886233 -0.415720 -0.005781
-0.446889 0.000413 -0.856643
-0.023714 -0.844683 -0.439007
0.388507 0.424160 -0.457750
-0.447457 0.002864 -0.855689
-0.420666 -0.419955 0.395216
-0.022747 -0.844068 -0.439416
-0.359176 0.393312 -0.403035
0.875987 0.015955 0.406109
-0.004029 -0.434868 0.881128
0.456485 0.866286 -0.016215
-0.411542 -0.006559 0.870637
-0.419293 -0.420846 0.393663
-0.013195 -0.462537 -0.878781
-0.417966 -0.442587 -0.409267
0.408484 -0.404367 -0.417464
0.458335 0.865425 -0.018258
0.418720 0.420890 0.457056
-0.445539 0.002644 -0.857005
0.427492 -0.381137 0.439461
-0.358785 0.392004 -0.402018
0.824416 0.430905 -0.037559
-0.360975 0.392089 -0.403213
-0.444171 0.002704 -0.857725
-0.417522 -0.420242 0.393178
0.387871 0.423885 -0.456682
0.418521 0.419668 0.458987
0.426393 -0.802229 -0.003605
0.425504 -0.800948 -0.004765
-0.862859 -0.001816 -0.433074
0.003703 0.910659 -0.413892
0.425497 -0.380527 0.439688
0.875945 0.014753 0.408257
-0.012653 -0.841955 0.410384
-0.885482 -0.416500 -0.004467
0.419853 0.420649 0.459700
0.824016 0.430852 -0.038249
-0.360229 0.392431 -0.402746
0.880900 -0.441971 -0.008703
0.445532 0.009765 0.872606
-0.007749 0.437136 0.865473
0.447646 0.010116 0.871190
-0.011841 -0.843504 0.414404
0.448915 0.012173 0.872084
0.457604 0.866566 -0.018040
-0.014113 -0.840900 0.411511
0.418870 0.422192 0.458874
0.428044 -0.377487 0.440443
0.409995 -0.403628 -0.417275
-0.000583 -0.433889 0.882309
-0.012507 -0.840859 0.410444
-0.008828 0.435434 0.864922
0.408118 -0.405263 -0.416048
-0.013408 -0.840068 0.411406
0.020233 0.835779 0.408945
0.880391 -0.441040 -0.007114
0.823904 0.428409 -0.038976
-0.013895 -0.464807 -0.877337
-0.012097 -0.842634 0.412550
-0.008822 0.437835 0.864455
-0.852166 -0.005271 0.428685
-0.418396 -0.419804 0.392755
0.880393 -0.441949 -0.010275
0.419442 0.420219 0.458935
0.458263 0.866401 -0.018782
0.002911 0.909813 -0.415437
-0.021481 -0.844346 -0.438776
