OFF
256 0 0
0.303696 0.676207 0.133393
-0.760308 -0.042014 0.463323
-0.431494 0.314448 -0.255399
-0.393768 -0.394282 -0.191990
0.322796 0.673936 -0.588984
-0.038271 -0.766587 0.501316
-0.056699 -0.419644 -0.612809
-0.056109 -0.419489 -0.611503
0.665317 0.285219 0.120227
-0.782566 -0.419555 0.121619
-0.040655 0.666781 0.506277
-0.784069 -0.030020 -0.221290
0.682424 -0.046537 0.501011
-0.035973 -0.047286 0.504246
-0.037164 -0.047051 0.504706
0.279752 -0.398812 -0.241415
-0.429850 0.314350 -0.252689
-0.429593 -0.047491 -0.595710
-0.390721 -0.396607 -0.192796
0.667053 0.287147 0.117656
-0.402637 -0.762564 0.118886
-0.067792 0.298457 -0.624355
0.670567 -0.046892 -0.235746
-0.411552 0.305869 0.493834
-0.756066 0.327218 0.141543
0.667369 0.288165 0.119961
-0.373044 0.687042 0.135188
0.316072 -0.771495 0.111042
-0.753142 0.325542 0.139495
-0.394072 -0.397298 -0.192420
-0.401470 -0.762250 0.120035
0.669281 0.286705 0.117977
0.670851 -0.045739 -0.233386
-0.413486 -0.409875 0.453160
0.321679 -0.405281 0.478515
-0.040540 -0.765844 0.501663
0.671136 -0.046468 -0.234390
-0.428239 -0.049687 -0.595666
-0.413584 -0.410147 0.454438
-0.056917 -0.421757 -0.613018
-0.055843 -0.421515 -0.612889
0.294754 -0.050349 -0.589533
0.341542 0.313192 0.508162
-0.413966 0.304608 0.494972
-0.760737 -0.040028 0.464949
-0.783479 -0.031266 -0.221330
-0.760534 -0.039810 0.462312
-0.035484 -0.048494 0.503859
-0.784735 -0.031061 -0.223223
-0.068301 0.298586 -0.623921
0.293588 -0.050204 -0.590066
-0.392158 -0.393111 -0.192826
0.697859 0.680160 -0.221803
0.681292 -0.045444 0.501216
-0.785591 -0.030316 -0.221449
0.322667 -0.405414 0.478649
0.681884 -0.048106 0.501053
0.303979 0.675664 0.135957
-0.413533 -0.409170 0.452351
0.682963 -0.045657 0.500244
-0.430210 -0.048990 -0.596199
-0.037240 -0.047171 0.506461
-0.429530 0.314967 -0.252915
-0.411990 0.304674 0.496244
-0.411729 -0.409320 0.453084
0.316401 -0.770699 0.108763
-0.429436 -0.049311 -0.594943
-0.414854 0.305525 0.494063
-0.069022 0.300191 -0.624556
0.682804 -0.046038 0.500745
-0.068301 0.298531 -0.624032
0.682444 -0.044796 0.501368
0.662862 -0.406354 0.127571
-0.026748 -0.769820 -0.231222
-0.055794 -0.420535 -0.612255
0.683028 -0.048101 0.501405
-0.428179 -0.047983 -0.596816
-0.036416 -0.047773 0.505267
0.295436 -0.048909 -0.590691
-0.412373 -0.409739 0.452090
-0.067082 0.299805 -0.623031
-0.412449 -0.407468 0.453489
-0.039792 0.668104 0.506787
-0.754057 0.323831 0.139587
0.306041 0.676567 0.135364
-0.755779 0.326647 0.138865
-0.068451 0.297448 -0.623030
-0.037080 -0.048402 0.506255
-0.024328 -0.767140 -0.233134
0.278942 -0.398413 -0.242202
-0.037681 -0.765953 0.503892
0.294393 -0.050192 -0.589715
0.315809 -0.771335 0.112950
0.340923 0.313238 0.508225
-0.413885 -0.409708 0.452263
0.322505 -0.403903 0.478051
-0.430085 -0.046722 -0.597314
-0.373440 0.686366 0.133487
-0.069288 0.299549 -0.625024
-0.067884 0.296726 -0.623627
0.683642 0.330524 -0.574275
-0.430584 0.315351 -0.254440
-0.429539 0.313919 -0.254326
-0.069387 0.298578 -0.623222
0.662022 -0.407276 0.128420
0.669120 0.286479 0.119562
-0.039113 -0.765876 0.502778
0.294508 -0.050114 -0.590312
0.321631 0.675198 -0.586811
-0.427754 -0.048050 -0.595009
0.340693 0.314995 0.509516
-0.068982 0.299578 -0.624004
-0.039535 -0.764746 0.501638
0.684591 0.331303 -0.575033
-0.054296 -0.420093 -0.610147
0.699070 0.680366 -0.222410
0.279258 -0.398254 -0.241787
-0.782199 -0.423179 0.120951
-0.781214 -0.421577 0.122092
0.340290 0.312279 0.508743
-0.414144 -0.410323 0.452608
0.664194 -0.406912 0.128463
0.322215 0.676387 -0.586035
0.340422 0.312669 0.508479
-0.429705 0.315002 -0.254068
-0.042747 0.672766 -0.235395
-0.401295 -0.763182 0.118899
0.322272 0.676997 -0.588296
0.341415 0.312366 0.507476
0.661540 -0.405852 0.128897
0.662269 -0.407411 0.128251
-0.070200 0.298136 -0.624026
-0.069982 0.299978 -0.624730
0.663097 -0.404591 0.128751
-0.067167 0.296729 -0.624041
0.304839 0.675139 0.134187
-0.371949 0.690127 0.135307
0.316959 -0.771670 0.110170
0.315966 -0.771137 0.111204
0.682624 -0.043944 0.500445
-0.760444 -0.039210 0.464516
0.294414 -0.050538 -0.589580
-0.025057 -0.767816 -0.232026
-0.373522 0.690277 0.131789
-0.393476 -0.395714 -0.193200
0.339518 0.312908 0.507131
-0.757514 0.326456 0.141417
-0.373901 0.689229 0.132128
0.667869 0.285872 0.119362
-0.066668 0.298200 -0.624253
-0.403734 -0.762796 0.118102
0.699611 0.679687 -0.223586
-0.783502 -0.030255 -0.221189
-0.428867 -0.049035 -0.594699
0.684018 0.329048 -0.573919
-0.429734 0.314737 -0.253984
-0.043317 0.670715 -0.233018
-0.057664 -0.421029 -0.612894
-0.761691 -0.038289 0.464603
0.293440 -0.048314 -0.588045
0.280149 -0.398274 -0.242921
-0.023480 -0.769468 -0.233128
-0.429950 -0.047740 -0.597372
-0.784924 -0.033378 -0.221880
-0.038500 0.666124 0.502969
-0.428799 0.314873 -0.254663
-0.431003 -0.048795 -0.596600
0.684474 0.330235 -0.575969
0.664655 -0.406892 0.128391
-0.430055 0.313611 -0.254617
-0.374955 0.689167 0.131032
0.303336 0.677497 0.135644
-0.393776 -0.395637 -0.194653
-0.037844 -0.765605 0.503855
-0.068507 0.298782 -0.623820
-0.036957 -0.049572 0.504769
-0.068842 0.301409 -0.624193
-0.056841 -0.420193 -0.611989
0.316817 -0.770755 0.110956
-0.755340 0.327306 0.139551
-0.037371 -0.048381 0.505935
0.322141 0.674643 -0.585556
-0.428749 0.315585 -0.255029
-0.783639 -0.421669 0.121658
-0.025358 -0.769644 -0.232461
-0.754105 0.327788 0.140364
-0.038294 -0.765722 0.504375
-0.784645 -0.031514 -0.222298
0.684025 0.330962 -0.575859
0.679055 -0.045843 0.500981
0.321589 0.675208 -0.586247
0.667248 0.288013 0.118273
0.317893 -0.772782 0.111079
0.340061 0.313227 0.507035
-0.038772 -0.764947 0.502618
-0.393347 -0.395456 -0.194075
-0.784692 -0.030651 -0.221549
0.683095 -0.046559 0.501145
-0.038235 -0.765889 0.502145
0.668291 -0.047241 -0.234750
0.664324 -0.405867 0.127686
-0.037287 -0.766154 0.499634
-0.038889 -0.764729 0.500418
-0.035054 -0.047442 0.504888
0.668451 0.285864 0.117783
-0.037686 0.665352 0.505146
-0.374915 0.687661 0.134192
0.682815 -0.045906 0.500050
-0.373532 0.686488 0.133231
-0.392484 -0.395333 -0.192902
0.316317 -0.769912 0.111351
0.321767 -0.405707 0.480099
-0.403513 -0.761709 0.117345
-0.755150 0.327471 0.141331
-0.044803 0.669538 -0.233784
-0.755241 0.325979 0.139948
-0.755845 0.327324 0.141072
-0.390660 -0.393009 -0.192248
-0.046384 0.670693 -0.234564
-0.027073 -0.768142 -0.231626
-0.411470 0.305437 0.495106
-0.414089 0.305383 0.495119
-0.372889 0.688477 0.132220
-0.402908 -0.763005 0.118304
0.280138 -0.398384 -0.242796
-0.394001 -0.394143 -0.195519
-0.044877 0.670318 -0.233236
-0.024801 -0.768771 -0.232801
-0.067563 0.299457 -0.623445
0.680851 -0.046036 0.502529
0.664009 -0.406808 0.127775
0.277576 -0.400762 -0.243660
0.293842 -0.049271 -0.589987
0.318327 -0.770427 0.112553
0.665203 -0.405971 0.128508
0.321117 -0.402842 0.480403
-0.057792 -0.419246 -0.611799
-0.025428 -0.770349 -0.231614
-0.754839 0.325781 0.141493
0.321802 -0.404723 0.480045
0.340079 0.314240 0.506057
0.682756 -0.048072 0.501241
-0.040357 0.667158 0.505465
-0.428931 -0.048009 -0.597296
-0.392514 -0.395862 -0.194018
0.671157 -0.045428 -0.235917
-0.057776 -0.419799 -0.613276
-0.025317 -0.769968 -0.234751
-0.040175 0.665950 0.505631
-0.393059 -0.394196 -0.195199
-0.401668 -0.762411 0.119116
0.663548 -0.405640 0.127254
-0.413092 -0.408811 0.451558
-0.037258 -0.048412 0.505316
-0.428574 0.313044 -0.254593
0.278509 -0.399161 -0.243501
