OFF
256 0 0
-0.040269 0.397099 -0.669258
0.314648 -0.672305 0.043404
-0.041589 -0.671974 0.401551
-0.399681 0.753400 0.041713
0.316927 0.754835 0.041185
-0.397341 -0.315450 -0.313248
0.314279 0.041786 0.755910
-0.041269 0.398289 0.754514
-0.756572 -0.314042 0.042790
-0.400663 -0.672570 0.041713
-0.398444 0.755055 0.040395
-0.397330 -0.670482 0.041431
0.313115 0.397785 -0.314662
-0.042467 0.399855 -0.670177
0.671595 -0.671763 -0.313574
-0.040333 0.755396 0.397057
-0.040918 -0.313504 0.755057
-0.398649 -0.314547 0.397517
-0.041979 0.755901 -0.313731
0.669626 0.042643 0.397576
0.314501 0.400414 -0.315674
0.671639 0.041795 0.396536
-0.041996 0.757002 0.398097
-0.043095 -0.312320 0.756420
-0.754937 -0.315765 0.041155
0.671569 -0.313856 0.042073
-0.397847 -0.313442 -0.313768
-0.042285 -0.314900 0.755291
-0.755311 0.399056 0.042456
-0.755449 0.398549 0.040587
0.312877 -0.671362 0.042611
0.313991 0.040727 -0.669813
-0.041657 0.397706 0.755609
0.315429 0.399783 -0.316415
-0.753263 0.042414 0.399896
0.315469 0.041872 -0.670054
0.671665 0.040564 0.396639
0.673767 -0.314600 -0.671501
-0.397659 -0.314257 0.398475
-0.754316 0.398699 0.039522
-0.043087 0.400047 0.754671
0.672617 0.041863 0.398448
0.671944 0.398373 0.043571
0.313729 -0.668809 0.042360
0.315343 0.042068 -0.671255
-0.399469 0.040632 -0.673018
0.315471 0.397991 0.399742
0.671904 0.398265 0.041449
0.314766 0.398246 -0.314696
0.316405 -0.314513 0.398746
0.314036 0.400189 -0.312601
0.671170 0.397489 0.041695
-0.398467 -0.670217 0.041350
-0.754589 -0.313415 0.041713
0.315098 -0.673013 -0.671684
-0.398270 -0.314139 -0.314075
-0.398814 0.041137 -0.671489
-0.041598 0.754297 -0.315728
-0.755197 0.041686 0.398782
0.312963 0.041810 -0.671102
-0.041127 -0.314247 -0.673071
-0.754184 0.397548 0.041813
0.312638 0.397464 0.399002
0.317012 0.398176 0.398623
0.315783 0.042308 0.755364
0.315726 -0.670915 -0.670359
0.670123 0.398916 0.041683
-0.398502 0.041882 0.756019
-0.399886 0.753257 0.041647
-0.042440 -0.313346 -0.670233
-0.755581 0.041261 0.397965
-0.399098 0.040949 0.755986
0.671003 0.041771 0.399393
-0.042218 0.754835 0.397366
0.670227 -0.315443 0.042356
0.315203 0.754868 0.041214
0.671482 -0.671480 -0.315555
-0.041996 0.756124 -0.315080
-0.040245 -0.315919 -0.670834
-0.397724 0.042690 0.756119
0.669792 -0.314092 0.040328
-0.753565 -0.314421 0.041251
-0.041598 0.756052 0.400603
0.671906 0.041243 0.398469
0.671894 -0.672928 -0.315172
-0.399121 0.400041 -0.315169
-0.398737 0.043280 -0.670751
-0.043548 -0.315356 -0.672235
-0.396813 0.043267 -0.671464
-0.397358 -0.313936 0.398383
0.671664 -0.670818 -0.314119
-0.398925 0.397652 0.398108
0.670525 -0.313844 -0.671931
0.316117 -0.314275 0.399250
-0.398342 0.043373 0.755109
-0.754725 0.042419 -0.315271
-0.398777 0.041921 -0.670869
-0.041610 -0.668475 0.397634
-0.397612 0.755183 0.042729
0.314352 0.398342 -0.314260
-0.398078 0.041374 -0.671232
-0.041090 -0.312345 -0.669376
0.313902 -0.670559 -0.670393
0.671659 -0.670644 -0.314662
-0.399773 0.397953 -0.316107
-0.754913 0.041975 -0.315286
-0.044656 0.399268 -0.671851
0.313660 0.043058 0.755102
-0.044064 0.754148 0.399269
-0.398286 0.042900 -0.672999
-0.042774 -0.669269 0.399812
0.316080 -0.316111 0.399621
-0.397725 0.753531 0.043954
0.314724 0.400192 0.399213
0.314475 0.400708 -0.313808
0.672056 -0.313231 -0.670419
0.314723 0.040797 -0.670605
-0.043540 0.401055 -0.671503
0.671635 -0.314897 0.041160
-0.398624 -0.315992 0.400199
0.313980 -0.315951 0.399582
-0.043541 -0.670402 -0.313870
0.314949 -0.670617 -0.671824
-0.042502 -0.313645 -0.671141
-0.755820 0.040914 0.398405
-0.039470 -0.669738 0.398434
0.670307 -0.314618 -0.672751
0.314730 0.397614 -0.316809
0.314441 0.041602 0.754378
0.670301 0.399561 0.041563
-0.042439 -0.313770 -0.671620
-0.042718 0.755107 -0.313258
0.315324 0.397633 0.400040
0.313857 -0.670264 0.041631
-0.042066 0.398549 0.756281
-0.044066 0.755484 0.400662
-0.399772 0.043553 -0.669798
0.670731 0.041510 -0.315371
0.314673 0.398865 -0.315528
0.316179 0.398468 -0.313144
0.316256 0.399241 0.398465
-0.756760 0.400696 0.043155
0.315242 0.398035 -0.315678
-0.042335 0.400852 0.755509
0.315011 0.040525 -0.670156
-0.399057 0.043633 -0.671670
-0.755286 0.039899 -0.316479
0.313162 -0.315344 0.397471
0.315588 -0.671332 -0.670548
-0.754907 0.043482 0.399139
0.314529 0.754993 0.040751
0.314358 0.399075 0.397565
0.313647 0.041550 0.755605
-0.398582 0.755590 0.039473
0.669767 0.398261 0.041932
-0.754196 0.397482 0.041387
0.671745 0.042749 -0.315472
0.670639 0.398131 0.040320
0.671110 0.042157 -0.314849
0.314741 -0.314277 0.398521
-0.042170 -0.672318 0.397923
-0.040822 0.398361 -0.670385
0.670928 0.043485 0.399337
0.315179 0.040348 -0.670434
-0.398438 0.042147 0.755177
-0.040742 -0.315442 -0.672244
0.671460 -0.315425 -0.672005
-0.040500 -0.669867 -0.312642
-0.042995 0.754953 0.398816
0.314323 0.396565 -0.313368
0.314939 -0.670207 0.041678
-0.041313 -0.671831 0.398260
0.672137 0.043191 0.398558
-0.043694 0.755480 -0.314601
-0.398710 -0.670846 0.042461
-0.042435 -0.672114 -0.315437
-0.041798 -0.314409 -0.670624
0.316267 -0.671305 -0.670682
-0.398190 0.753830 0.041625
0.314294 0.396549 0.397789
0.314846 0.398660 0.398944
0.672427 -0.671474 -0.315507
0.670242 -0.672783 -0.313726
-0.399529 0.398913 0.397214
0.670582 0.398427 0.041398
-0.755274 0.042468 -0.315399
0.672503 0.039771 -0.314055
-0.043615 -0.671255 0.398903
0.315082 -0.671322 0.041856
-0.396847 0.754018 0.041937
-0.398676 0.397200 0.398425
-0.397043 0.754703 0.043440
-0.399168 0.398796 -0.314920
-0.398486 0.041714 -0.671928
-0.398923 0.753558 0.042386
-0.397572 0.042533 0.754452
-0.753633 -0.314023 0.040127
0.314210 -0.316320 0.397992
-0.397084 0.399286 -0.315052
0.669961 0.043622 -0.313501
-0.042679 -0.312789 -0.671027
-0.398146 -0.671118 0.042278
-0.396156 0.397643 0.397743
0.671640 0.041755 0.395972
-0.042152 0.398665 -0.671154
-0.755303 0.398453 0.041912
-0.399203 0.041726 -0.672103
-0.400698 0.041342 -0.671174
-0.041798 -0.313718 0.753955
-0.043299 0.755443 0.396661
0.671472 -0.670673 -0.315169
-0.042671 0.399502 0.754892
0.315718 0.042962 -0.671799
-0.042695 0.754421 0.399334
0.315178 0.399109 0.397967
-0.398046 -0.314495 0.398472
-0.755080 0.042790 0.398465
0.670003 -0.313122 -0.673020
0.671226 0.041527 -0.316531
-0.397414 -0.673148 0.041567
0.672499 -0.312078 -0.671001
-0.040309 0.400145 0.756258
0.313292 0.398463 -0.313934
-0.756937 0.041789 -0.313425
-0.040663 0.753720 0.400089
-0.041663 -0.669900 -0.316399
0.315262 0.039869 -0.670439
0.312631 -0.672311 -0.672345
0.671187 0.396424 0.041924
-0.043128 -0.672313 -0.316445
-0.043107 0.755193 -0.315621
-0.754093 0.043619 -0.316455
0.314923 0.399635 0.399222
0.668908 -0.671532 -0.315081
0.669986 0.041552 0.396164
-0.041835 -0.670796 -0.313389
-0.754903 -0.314174 0.042639
0.670621 0.041720 0.398773
-0.041818 0.398763 0.753953
0.313113 -0.670626 0.042743
0.313800 0.042236 -0.671208
-0.041875 -0.671964 -0.314257
0.314451 0.397856 -0.316448
-0.042071 -0.671519 0.399762
0.669888 -0.671103 -0.314843
0.671951 0.042082 0.398816
-0.399554 0.398409 -0.314685
0.672621 -0.313132 -0.670274
0.313150 0.755521 0.040887
0.314631 -0.315270 0.397563
-0.399550 -0.670543 0.040073
-0.755938 -0.315011 0.042808
-0.398507 0.396879 -0.316604
-0.397748 0.397723 -0.316517
-0.042424 0.398643 -0.671380
0.670375 0.397451 0.042533
