OFF
256 0 0
-0.447277 0.001363 0.894746
-0.445633 0.447478 0.449528
0.001306 0.894090 -0.447524
0.000126 0.894102 -0.447945
0.895153 0.446902 0.001021
-0.448270 0.001686 -0.895657
0.893208 0.447666 -0.001910
-0.001631 0.893761 -0.447683
0.448781 0.448162 0.447751
-0.000212 -0.445711 -0.893602
0.000824 -0.447734 0.893372
-0.447105 -0.447670 -0.446584
0.447776 0.894951 -0.000379
0.895524 -0.446739 -0.000845
0.447401 -0.447045 -0.447364
-0.445277 -0.895028 -0.001140
-0.894361 -0.000124 -0.448095
-0.447531 0.447572 0.447452
-0.448484 0.447498 -0.447792
0.894665 0.000462 -0.446098
0.447823 -0.894545 -0.001129
-0.000184 -0.893967 -0.447251
0.895937 -0.001556 0.447266
0.448177 -0.893361 -0.000432
-0.447833 -0.446192 0.447701
0.447350 0.448471 0.447933
0.000703 -0.894385 -0.446848
0.447820 0.446055 0.450154
-0.894989 -0.448056 -0.001202
-0.446646 -0.894266 -0.001024
0.446574 0.447281 0.447584
-0.445584 0.001527 -0.894611
0.000352 -0.445010 -0.895701
0.448028 0.444909 0.448307
-0.447559 0.446726 -0.448882
-0.445695 0.894132 -0.000754
0.448559 -0.893923 0.001642
-0.000285 -0.893970 0.447551
-0.445660 -0.894533 0.001326
-0.446361 0.000928 0.893878
-0.447582 0.447924 0.446954
-0.000610 0.895131 -0.445931
0.445689 -0.445722 0.448475
0.895718 0.000392 0.446496
-0.001536 -0.449268 0.894489
0.003940 0.893648 -0.447091
-0.000710 0.449749 0.894457
-0.895534 0.001478 -0.447078
0.447014 0.447300 0.447206
0.448336 0.447030 0.448016
-0.894342 -0.000096 -0.447138
0.893719 -0.000483 0.446516
0.000886 -0.448972 0.895160
0.001272 0.447502 0.894289
0.892730 0.000472 -0.448088
0.447600 -0.446875 -0.447473
0.446546 -0.446711 0.447024
-0.893957 -0.000721 0.445859
0.894590 -0.001718 -0.448819
-0.447738 0.001448 0.893757
-0.445934 -0.446732 -0.448877
-0.446192 0.446140 -0.447890
-0.894480 0.447945 -0.003331
-0.448215 0.893768 -0.000835
-0.001328 0.447783 -0.893575
0.447314 -0.000589 0.893939
0.446189 0.000208 0.894649
-0.446992 0.894895 0.000275
-0.448507 -0.445114 -0.446308
-0.000897 -0.892256 -0.444178
-0.446793 -0.001218 -0.894995
-0.895826 -0.448284 -0.001668
0.000378 0.446451 -0.893252
-0.000589 0.444655 -0.894519
-0.448814 -0.895002 0.000753
0.000944 -0.446985 -0.894134
0.895719 -0.000804 -0.445264
0.893860 0.448312 0.001898
0.000206 -0.893392 -0.447506
0.894563 -0.000554 -0.446375
0.447565 0.447718 -0.446087
-0.895034 -0.000747 0.447800
-0.447200 0.447148 -0.446666
0.448008 -0.894092 0.001203
0.001173 -0.892869 0.448224
0.000001 0.891787 -0.447676
-0.448254 0.447342 0.446399
-0.448131 -0.001221 0.894212
-0.000473 0.893338 0.445948
-0.447648 -0.000325 0.893179
-0.446333 -0.000953 -0.894964
0.447640 -0.001403 -0.894484
0.000342 0.896111 -0.446318
-0.448837 0.445511 -0.446064
-0.444413 -0.446831 0.446208
0.447665 -0.447361 0.446322
-0.893769 -0.002535 0.448139
0.000205 -0.892314 -0.447780
-0.447270 0.893435 -0.001851
0.446237 -0.448303 0.447105
0.893765 0.444446 -0.001241
0.446068 -0.446868 -0.446734
-0.446343 0.444436 -0.448159
0.448433 -0.893262 -0.000979
0.446353 0.446850 0.445804
-0.895116 0.447018 -0.000662
-0.446411 -0.001003 0.894874
-0.448458 -0.449234 0.448159
-0.447228 -0.446172 0.446775
0.002203 -0.448710 0.892090
-0.894351 0.000472 0.446250
-0.893562 0.447092 -0.000122
0.446591 0.448309 -0.447125
-0.447274 0.447011 0.446837
0.895255 -0.449600 -0.000050
0.446824 0.893387 -0.000430
0.445507 0.447281 -0.446998
-0.893158 0.001188 -0.447302
-0.000154 -0.893851 -0.446179
-0.895300 0.447724 -0.001031
-0.000535 0.897284 -0.445656
-0.447274 -0.895302 -0.000759
-0.893913 -0.001462 0.447190
0.448069 -0.000321 -0.895626
0.000574 0.447950 0.895083
0.446167 -0.446602 -0.448090
0.447028 0.448929 -0.447227
0.894055 0.000652 -0.448886
0.002247 -0.894718 -0.447369
0.001121 -0.447469 -0.895218
-0.001451 0.894401 0.445112
-0.000021 -0.447907 -0.895327
0.448902 -0.001096 -0.894108
0.446779 -0.447637 -0.447569
0.000618 -0.894397 0.446868
-0.446080 -0.894461 -0.002380
0.447623 -0.446950 0.447390
0.000037 0.892223 -0.448127
-0.894291 -0.447227 0.000216
-0.448481 -0.447103 0.447099
0.893915 0.446539 0.000181
-0.446062 -0.447558 -0.449214
0.447030 0.449311 -0.447728
-0.449909 -0.894196 -0.000024
-0.448089 0.894579 0.000511
-0.896021 -0.001374 -0.446248
-0.893562 0.446812 -0.000636
-0.001212 -0.894631 0.446906
-0.447053 0.001271 0.896425
-0.446914 0.447178 -0.446526
-0.000405 0.445907 0.895240
-0.000070 -0.447008 0.894778
0.446714 -0.447375 -0.445473
-0.892890 0.446280 0.000519
-0.000292 -0.447233 -0.894508
0.001878 0.894597 0.446810
0.000137 -0.447944 0.895802
-0.448531 -0.892160 -0.000181
0.447080 0.448269 -0.447126
-0.448052 -0.001230 0.894203
0.893841 0.448142 -0.001018
0.447640 -0.448229 -0.447476
0.448298 -0.447432 0.448110
0.000912 -0.447222 0.892897
0.446845 0.000764 -0.893749
-0.000517 -0.445358 0.893900
0.894489 0.001309 0.447593
0.000699 -0.894481 0.447488
0.893472 0.000411 -0.448060
0.447729 0.449489 0.447150
0.447528 -0.894900 0.000853
0.446884 0.445951 0.448443
-0.000988 0.448010 -0.893756
-0.892255 -0.447426 -0.000218
0.447142 -0.445820 -0.447731
-0.448068 0.894738 0.001086
0.892666 -0.447340 -0.001234
0.445628 -0.447440 -0.446028
-0.000347 -0.449158 0.894730
-0.446873 -0.447986 0.446929
-0.000234 -0.893836 0.448183
0.447290 -0.447082 -0.446171
-0.446121 -0.895317 -0.002324
0.000551 0.893888 0.445565
-0.448390 0.895301 -0.001498
-0.000160 -0.447539 0.895498
-0.001074 0.895851 0.447498
0.894171 0.000983 -0.445194
-0.447843 -0.447770 -0.446779
0.894197 0.001102 0.448928
-0.447446 -0.448333 -0.446894
-0.891663 0.447505 0.001728
0.895939 0.447131 0.000434
0.002582 -0.894749 0.447904
0.446272 0.893816 0.000558
-0.448297 0.446305 -0.448038
-0.894388 -0.446758 0.001056
-0.893440 -0.445846 0.000564
0.001554 -0.894634 0.446007
-0.446137 0.892362 0.001247
-0.000875 0.895101 0.445478
-0.892601 -0.000961 0.446626
0.447081 0.894380 -0.000945
0.892972 -0.448010 -0.000205
-0.448001 -0.001324 -0.894235
0.000491 -0.445232 0.895197
-0.895581 -0.000573 -0.448390
0.448171 -0.447348 -0.447204
-0.447303 0.447516 0.446082
0.448341 -0.445774 -0.446622
0.001404 -0.447956 -0.895422
0.447264 -0.893386 -0.000869
-0.000889 -0.445675 -0.896096
0.447477 -0.894332 0.000209
-0.447550 0.000927 0.893584
0.446330 -0.000282 -0.895183
-0.447477 -0.000902 -0.895176
-0.001112 0.447586 0.895043
-0.001384 -0.893997 -0.447293
0.893199 -0.448976 0.001140
-0.895172 0.001468 -0.447531
0.000602 -0.894982 0.444917
-0.893618 -0.002049 -0.446460
0.893952 -0.000690 0.446701
0.448435 -0.000271 -0.893591
-0.445767 0.000709 0.894286
-0.446768 -0.000823 0.894592
-0.447850 0.446358 -0.446159
-0.894935 -0.000185 0.445595
-0.446510 -0.001495 0.895539
-0.447173 0.000192 -0.894282
0.000435 -0.893367 0.447174
0.894228 0.002463 0.446634
0.447453 -0.894911 0.000315
0.448327 -0.444604 -0.447419
-0.447920 0.447801 0.447401
-0.000291 -0.894494 0.445128
-0.447116 0.448894 -0.447515
-0.446875 -0.000102 0.895868
-0.447890 -0.895799 0.000193
-0.447930 0.894213 -0.000211
0.001547 0.894038 -0.446213
-0.893713 -0.001587 -0.447086
0.894180 -0.000689 0.446933
0.447366 0.000606 -0.893895
-0.000734 0.893123 0.448318
0.447013 -0.446255 0.447318
0.446926 -0.000427 0.893743
-0.894249 -0.000092 0.446599
0.893658 0.001658 -0.446183
-0.447952 0.895353 0.000325
0.446512 -0.445857 -0.447107
-0.445532 -0.895382 0.000079
0.446657 -0.447501 -0.447804
-0.893046 -0.001755 -0.446561
0.894662 0.000124 0.446331
