OFF
256 0 0
0.000519 -0.429801 -0.888559
-0.017640 -0.428854 0.861045
0.011394 0.458309 -0.886584
0.002493 0.441016 0.880283
-0.890799 -0.013711 0.442576
-0.465339 0.453573 -0.480097
0.861547 0.459433 -0.010794
0.897373 -0.422764 0.018170
0.877694 0.005185 0.437652
-0.424319 0.867744 -0.020701
-0.432385 -0.011190 -0.849632
-0.411786 -0.897598 -0.015323
0.422263 0.411179 0.450893
-0.026675 -0.874856 0.451563
-0.878293 -0.429124 -0.024545
0.862448 0.459515 -0.012002
-0.419845 0.411817 0.405349
0.003123 0.439396 0.880411
0.422005 0.409064 0.450987
-0.439645 -0.388456 0.421088
0.421904 0.409108 0.450483
-0.006379 0.881263 -0.444971
0.861217 0.459796 -0.010725
-0.001116 -0.881824 -0.431638
-0.431667 -0.010188 -0.848810
0.435491 -0.005594 0.899365
-0.432289 -0.008802 -0.849847
0.442289 -0.002532 -0.869935
-0.868706 0.424894 0.004110
0.438516 -0.872406 0.046160
-0.441231 -0.387617 0.421013
0.434347 -0.003267 0.898840
-0.425723 0.867641 -0.020094
-0.017360 -0.430731 0.858589
0.443362 -0.004415 -0.869928
0.000309 -0.430647 -0.889405
0.438074 -0.872961 0.047300
0.002401 0.439559 0.880833
-0.019028 -0.431408 0.859823
0.000320 0.441460 0.881502
-0.439039 -0.385372 0.421366
-0.436701 0.003531 0.879780
-0.440702 -0.388877 0.421417
0.894448 -0.001466 -0.421219
-0.848394 -0.026982 -0.421567
0.002730 0.440084 0.880772
0.434641 -0.003225 0.900313
-0.877444 -0.430731 -0.023971
0.002278 0.440125 0.880787
-0.436071 0.003397 0.877244
-0.871133 0.423811 0.007040
0.863112 0.458733 -0.012855
0.448376 0.411540 -0.453214
-0.426593 0.869896 -0.018915
0.449120 0.412367 -0.453221
-0.420596 0.411909 0.405326
-0.006304 0.879442 -0.446726
0.423487 -0.404401 0.427111
-0.002147 -0.881831 -0.432551
-0.410449 -0.897875 -0.016936
0.010540 0.455679 -0.885590
0.443753 -0.004369 -0.870911
-0.869359 0.424015 0.005055
-0.868870 0.424447 0.005736
0.863092 0.459278 -0.011292
0.409086 -0.430634 -0.404253
-0.002226 -0.431013 -0.891803
-0.441022 -0.387700 0.422674
-0.004246 0.878412 -0.446410
-0.028906 0.845558 0.428720
0.410925 -0.432065 -0.403657
-0.001701 -0.881803 -0.432639
-0.409998 -0.896763 -0.016667
-0.868377 0.423993 0.007225
0.878988 0.008090 0.439112
-0.464187 0.454070 -0.479130
0.435653 -0.002500 0.901526
-0.027137 0.845542 0.428169
0.437091 -0.873546 0.045172
0.876946 0.006735 0.439952
-0.403895 -0.435376 -0.428965
0.420781 0.409328 0.450679
0.002754 0.438379 0.880736
-0.426774 0.868609 -0.021642
-0.889277 -0.013717 0.442888
-0.418628 0.408719 0.404220
-0.877812 -0.431830 -0.024764
0.410559 -0.429964 -0.403434
-0.432447 -0.010951 -0.849031
-0.438120 0.004279 0.878196
0.435029 -0.003608 0.899056
-0.463466 0.454670 -0.479114
-0.877158 -0.431336 -0.023407
-0.426481 0.868776 -0.019845
-0.001074 -0.880721 -0.430492
-0.849504 -0.025775 -0.420748
0.000695 0.439352 0.883242
0.877508 0.006514 0.437789
0.894893 -0.002825 -0.419270
0.421717 0.409031 0.449513
-0.425808 0.867575 -0.020933
-0.404912 -0.434135 -0.429832
0.899523 -0.421718 0.019439
0.422047 0.411108 0.450204
0.423145 -0.406399 0.425417
0.421265 0.408897 0.450937
0.422260 0.408210 0.449675
-0.849569 -0.026273 -0.421256
-0.876592 -0.430781 -0.023678
-0.431051 -0.010694 -0.850663
-0.019861 -0.430744 0.860299
-0.437859 -0.388412 0.419021
0.423398 0.408116 0.448384
0.893835 -0.000023 -0.419039
-0.404776 -0.432451 -0.428918
-0.870058 0.424237 0.006781
-0.005040 0.880813 -0.445265
-0.412446 -0.897316 -0.017973
0.409931 -0.429700 -0.402318
0.001140 0.440367 0.882577
0.438548 0.887492 -0.003444
-0.876291 -0.431159 -0.022650
-0.465976 0.454997 -0.479031
-0.003967 -0.881535 -0.430573
-0.001869 -0.880769 -0.430908
-0.420076 0.411130 0.406422
-0.432576 -0.011408 -0.849776
-0.028366 0.845131 0.428613
-0.006827 0.879013 -0.447935
-0.006503 0.878901 -0.445812
0.435227 -0.001551 0.900829
-0.000577 -0.430072 -0.889091
-0.868658 0.423388 0.006878
-0.411854 -0.898910 -0.016833
-0.437964 0.004567 0.877822
-0.006445 0.879189 -0.445301
-0.889342 -0.011509 0.441744
0.439212 0.888644 -0.003602
-0.464398 0.453608 -0.478965
-0.001479 -0.882092 -0.431916
-0.420027 0.412031 0.406700
-0.419914 0.411854 0.406750
0.894916 -0.001736 -0.418496
-0.419920 0.410005 0.405884
0.894217 -0.003045 -0.420002
0.410174 -0.430329 -0.403739
-0.877333 -0.429704 -0.022870
0.894602 -0.004709 -0.419270
-0.018198 -0.432135 0.859316
-0.868452 0.426222 0.005390
0.001852 0.440441 0.878199
-0.425424 0.868418 -0.018408
-0.006504 0.878481 -0.447094
0.002992 -0.430795 -0.887591
-0.027138 -0.873582 0.453356
0.438831 0.889471 -0.006352
-0.001547 -0.881471 -0.433119
-0.419136 0.410891 0.407208
0.860723 0.459770 -0.013474
0.878633 0.007824 0.437544
0.448170 0.411949 -0.452583
0.894975 -0.003792 -0.420756
-0.437041 0.002396 0.879332
-0.006533 0.880004 -0.446052
-0.463472 0.454123 -0.479900
-0.403514 -0.433333 -0.428054
0.409783 -0.429670 -0.402854
0.420919 -0.405573 0.426410
0.010863 0.456240 -0.886134
-0.402793 -0.433251 -0.429825
0.002781 0.440712 0.881959
-0.869995 0.424186 0.005574
0.421332 -0.406696 0.427677
0.860826 0.459846 -0.011921
-0.890936 -0.014392 0.443912
0.860911 0.458398 -0.011468
0.421201 -0.408081 0.426930
-0.000736 -0.881289 -0.431064
0.420188 0.408465 0.449729
0.409850 -0.431700 -0.402943
-0.437518 0.003785 0.876709
-0.410443 -0.897635 -0.018251
0.010760 0.455343 -0.886447
-0.006522 0.879922 -0.446436
0.001535 0.439191 0.881576
0.438297 0.890143 -0.006625
0.410455 -0.430823 -0.403114
-0.890150 -0.012896 0.443650
0.435571 -0.003638 0.901956
-0.029118 0.845698 0.428235
-0.877840 -0.431484 -0.024985
-0.007285 0.879631 -0.447223
0.421807 0.408869 0.448486
0.877052 0.008666 0.437519
0.410511 -0.428208 -0.402987
-0.007579 0.878018 -0.447764
-0.025930 -0.873972 0.450960
-0.027071 -0.872519 0.452820
-0.425012 0.867501 -0.020064
-0.411103 -0.899675 -0.016765
-0.000780 -0.881274 -0.432433
-0.876979 -0.431805 -0.025196
-0.025281 -0.874539 0.452839
-0.436704 0.001030 0.878364
0.001083 0.439830 0.880994
-0.029185 0.844634 0.429597
0.002865 0.441767 0.882142
-0.026935 -0.874379 0.452957
0.436407 -0.002378 0.900154
-0.419670 0.410729 0.406576
-0.868158 0.425138 0.005535
-0.030039 0.844015 0.428641
-0.870390 0.423308 0.006116
-0.425624 0.869123 -0.021412
-0.439763 -0.387637 0.420631
-0.431875 -0.009609 -0.849572
0.408889 -0.429465 -0.403967
0.421596 0.409258 0.450048
-0.439174 -0.388219 0.419378
-0.463429 0.453391 -0.479111
-0.420015 0.411915 0.405824
0.009939 0.456422 -0.886045
0.897260 -0.422908 0.020094
-0.018483 -0.430959 0.859496
0.861094 0.460869 -0.012705
-0.427275 0.867858 -0.021978
-0.463873 0.452877 -0.481166
-0.890817 -0.015378 0.443797
-0.404984 -0.434642 -0.430092
-0.430323 -0.011442 -0.850874
0.860425 0.458051 -0.011966
-0.427300 0.868348 -0.020222
-0.430394 -0.011549 -0.849990
-0.846439 -0.024356 -0.420989
0.862137 0.458872 -0.011162
-0.005007 0.879097 -0.447948
0.000305 -0.430432 -0.888066
0.434900 -0.002809 0.899038
-0.440515 -0.387026 0.421789
-0.002697 -0.882101 -0.429816
0.408923 -0.428842 -0.402758
-0.419238 0.411223 0.405331
-0.430043 -0.008526 -0.850298
0.899563 -0.421588 0.020068
-0.437177 0.003656 0.878162
-0.419383 0.412806 0.406281
-0.440032 -0.388888 0.418922
0.859593 0.458824 -0.012562
-0.437885 -0.387598 0.420500
-0.463199 0.455541 -0.479263
-0.000059 -0.430184 -0.889661
0.439019 0.889046 -0.003635
-0.410871 -0.899651 -0.017331
-0.411926 -0.897223 -0.016273
-0.889298 -0.014676 0.443182
0.862414 0.459404 -0.013487
