OFF
256 0 0
0.417582 -0.764408 0.126572
-0.312220 -0.036107 -0.579489
-0.657495 -0.052496 -0.240835
0.409238 -0.428437 0.497977
-0.292323 -0.395171 -0.198727
0.406727 -0.429278 0.497094
-0.322788 0.691330 0.095907
0.741377 -0.372162 0.126999
-0.665603 0.319490 -0.570069
0.741498 -0.371791 0.127091
-0.304305 0.658451 -0.586798
0.401274 0.306036 0.473103
-0.702244 0.667747 -0.245398
0.401196 0.306894 0.473890
0.420259 0.661268 0.125730
0.045571 -0.746824 0.479525
0.388437 -0.067733 -0.577318
-0.304606 0.661698 -0.583887
-0.305868 -0.756673 0.134105
0.364926 -0.400156 -0.233753
-0.657480 -0.052695 -0.239889
0.057174 0.682661 -0.241562
-0.679458 0.300566 0.111568
0.057959 0.683937 -0.243239
0.041757 -0.754702 -0.210199
0.035287 0.680848 0.470517
0.407588 -0.429156 0.495720
0.774468 0.302784 0.125763
0.417462 -0.763545 0.125474
0.388855 -0.067133 -0.577578
-0.306194 -0.758188 0.133102
-0.301043 -0.407208 0.475724
0.042476 0.320199 -0.575272
0.045529 -0.748930 0.480895
-0.319479 0.689506 0.095723
-0.678397 0.300684 0.111741
-0.310315 -0.036375 -0.576987
-0.647807 -0.059728 0.478147
-0.667043 0.319205 -0.568709
0.407142 -0.429543 0.496024
0.408405 -0.430304 0.495366
-0.306455 -0.757791 0.134993
-0.305160 0.659449 -0.586654
0.799181 -0.053509 -0.244625
0.776477 0.301903 0.125412
0.037685 -0.418498 -0.627638
-0.664954 0.320295 -0.571546
-0.302500 -0.406953 0.476935
-0.665611 0.320115 -0.569888
0.035341 0.679791 0.468677
0.765842 -0.028663 0.505897
0.042572 -0.753608 -0.210736
-0.323156 0.690304 0.095407
-0.312176 -0.035722 -0.579009
0.044622 -0.747199 0.481491
0.741346 -0.371460 0.128417
-0.304086 0.659078 -0.586386
0.057988 0.682844 -0.241302
-0.311633 -0.034004 -0.579802
-0.329308 0.302288 0.478350
0.042481 -0.754678 -0.210384
-0.657656 -0.052157 -0.238144
0.402030 0.307293 0.474069
-0.292710 -0.395260 -0.199405
-0.658753 -0.051080 -0.240998
0.036842 0.678774 0.469623
0.044951 -0.027705 0.497865
-0.301064 -0.407877 0.476359
0.040986 0.319561 -0.575944
0.406677 -0.429846 0.496742
0.391136 -0.066928 -0.576820
0.391907 0.279174 -0.195210
0.796891 -0.051622 -0.246490
-0.312544 -0.035298 -0.579462
0.390309 -0.065634 -0.576459
0.044228 -0.029266 0.497517
-0.304260 0.658939 -0.586590
0.742031 -0.370935 0.128031
-0.303206 -0.406701 0.478208
-0.304497 0.660823 -0.586671
0.417458 -0.766201 0.127384
0.388857 -0.066829 -0.575877
0.036579 0.680380 0.470471
0.388726 -0.066794 -0.575302
-0.305356 0.658562 -0.585624
0.767517 -0.029519 0.506967
-0.301469 -0.408099 0.477790
0.422747 0.662116 0.124489
-0.677702 0.301142 0.111408
-0.665307 0.319173 -0.569109
-0.678156 0.301066 0.112363
-0.312455 -0.033984 -0.579302
-0.303808 0.661635 -0.585422
-0.657139 -0.053239 -0.239497
0.421957 0.662429 0.126906
0.389912 -0.066762 -0.578373
0.365617 -0.399900 -0.232060
-0.701389 0.668251 -0.247161
-0.677931 0.301448 0.111044
0.045422 -0.028138 0.496310
-0.649155 -0.059316 0.477016
-0.309846 -0.034792 -0.577940
0.041531 0.318020 -0.578239
0.401897 0.306312 0.477022
0.036683 -0.418675 -0.626988
0.043189 -0.753764 -0.212209
0.407951 -0.427733 0.495906
0.799196 -0.053120 -0.244381
-0.292557 -0.397204 -0.200205
-0.658160 -0.052952 -0.239002
0.740084 -0.371886 0.130468
0.405609 -0.430677 0.495007
0.740989 -0.371569 0.127563
0.403193 0.306377 0.474703
-0.700609 0.667987 -0.248594
0.740054 -0.370817 0.127391
-0.292629 -0.395264 -0.201174
0.409075 -0.430135 0.494870
0.798561 -0.052720 -0.242683
-0.648841 -0.057514 0.479306
-0.661518 -0.400984 0.118785
0.742968 -0.373268 0.129760
-0.648908 -0.059460 0.477650
0.391212 -0.067883 -0.577086
0.037495 0.679807 0.468728
0.742284 -0.371946 0.129027
0.741688 -0.371382 0.129222
0.037661 -0.417281 -0.628546
-0.648733 -0.058553 0.478225
-0.305242 -0.759297 0.134430
-0.657871 -0.053168 -0.240951
-0.331443 0.301147 0.479892
-0.649010 -0.058547 0.477807
0.044339 -0.027837 0.494567
-0.323510 0.692511 0.094499
-0.310935 -0.036761 -0.580273
-0.662394 -0.400794 0.120057
-0.330006 0.301080 0.479203
0.044599 -0.029154 0.495070
-0.303736 0.659952 -0.584476
0.042129 0.319705 -0.576119
0.799927 -0.053830 -0.244934
0.364326 -0.398336 -0.230231
0.035974 0.679568 0.470358
0.045037 -0.030082 0.495743
0.392063 0.278249 -0.197038
-0.650321 -0.058142 0.478151
-0.312867 -0.033900 -0.576771
0.044922 -0.747963 0.479876
0.042003 -0.751470 -0.210842
0.777106 0.301537 0.125135
-0.321828 0.691159 0.094879
0.797123 -0.053185 -0.243030
-0.665732 0.317470 -0.570164
0.058953 0.682848 -0.240804
0.366328 -0.401059 -0.230421
0.036491 -0.420370 -0.628171
-0.657467 -0.051465 -0.238936
-0.666212 0.319812 -0.569171
0.406929 -0.427314 0.495740
0.389104 -0.065689 -0.577452
-0.302713 -0.407365 0.476550
0.042271 -0.755195 -0.210865
0.042106 0.321660 -0.576142
0.364836 -0.400104 -0.231948
-0.703021 0.665614 -0.246875
0.391387 0.276620 -0.195978
0.045311 -0.028111 0.495728
0.402762 0.303618 0.475257
-0.664457 0.320126 -0.570340
0.045713 -0.029499 0.496469
-0.304519 0.658702 -0.585424
0.407922 -0.428975 0.497044
0.421213 0.662702 0.126521
0.797836 -0.054718 -0.243869
-0.302343 -0.407185 0.478268
-0.290219 -0.395016 -0.200058
-0.659259 -0.052591 -0.240816
0.741598 -0.372301 0.128834
0.389267 -0.067291 -0.579052
0.422801 0.663326 0.127854
-0.664662 0.320665 -0.569064
-0.330453 0.301185 0.478488
0.034896 -0.418071 -0.628175
0.046889 -0.747688 0.481097
0.040923 0.318395 -0.576344
0.408018 -0.428223 0.494400
-0.304127 0.660127 -0.585489
-0.701808 0.667682 -0.247131
0.043710 -0.029185 0.495436
-0.306155 -0.758237 0.133388
0.037764 -0.418211 -0.626948
0.059713 0.682368 -0.242435
-0.306812 -0.755810 0.132768
-0.663060 -0.402553 0.117851
0.046972 -0.030666 0.495896
-0.290934 -0.395023 -0.199359
0.042283 -0.752457 -0.212726
0.767697 -0.027219 0.506959
0.390903 0.278324 -0.195385
0.040827 0.319209 -0.575433
-0.304474 -0.756445 0.135047
-0.664640 0.319167 -0.569901
0.391102 0.278947 -0.195620
-0.657514 -0.053065 -0.237979
-0.700547 0.667815 -0.248321
0.057103 0.682910 -0.243728
0.037492 0.678525 0.469600
-0.677979 0.301473 0.109981
0.740919 -0.372134 0.128005
0.040904 -0.755872 -0.211461
-0.329681 0.302605 0.480190
0.037441 -0.417723 -0.627693
0.036018 0.681159 0.471755
-0.312389 -0.036684 -0.579192
-0.663585 -0.402395 0.119624
0.056727 0.684315 -0.242338
-0.702479 0.667939 -0.248220
-0.307322 -0.758337 0.134626
-0.659083 -0.055560 -0.238962
0.417199 -0.763483 0.126765
0.366170 -0.400271 -0.229988
0.041551 -0.753040 -0.209754
0.046556 -0.028453 0.495149
0.044312 -0.748653 0.481281
-0.312080 -0.036308 -0.578410
-0.647906 -0.058006 0.476195
-0.701658 0.666169 -0.247254
-0.320760 0.692271 0.095092
-0.664714 0.319118 -0.569165
0.363864 -0.399154 -0.230461
0.036226 0.680262 0.468786
-0.666862 0.319374 -0.568538
0.036112 0.679237 0.470305
0.401378 0.308458 0.474673
-0.655322 -0.050877 -0.238387
0.768636 -0.028319 0.510114
0.777181 0.301864 0.126823
-0.678664 0.299608 0.111920
0.392359 0.277578 -0.196831
-0.650821 -0.058040 0.476620
0.418451 -0.764402 0.127885
0.768133 -0.026715 0.507537
0.406997 -0.428118 0.495917
-0.659586 -0.402160 0.120758
0.039606 -0.417744 -0.627953
0.364490 -0.399899 -0.230428
-0.292917 -0.392675 -0.199801
0.037677 -0.417304 -0.627093
-0.303521 0.657952 -0.585072
-0.292051 -0.394953 -0.199412
0.388985 -0.067721 -0.577202
0.044461 -0.748695 0.479201
0.389221 -0.065501 -0.576736
-0.328175 0.302525 0.477875
-0.656411 -0.052015 -0.240322
