OFF
256 0 0
-0.127509 -0.701619 -0.317070
-0.500343 -0.323875 -0.322833
0.230844 -0.685071 0.033710
0.238168 0.420643 -0.322897
-0.125496 -0.708341 0.408077
-0.499620 -0.325212 -0.322006
0.221022 -0.310041 0.401142
0.241063 -0.687978 -0.684516
-0.124648 -0.706976 0.408198
0.240400 -0.688382 -0.684870
-0.539015 0.029031 0.036292
-0.489520 0.417380 0.400120
-0.488994 0.417172 0.402795
0.236359 0.420831 -0.322504
0.583789 -0.309340 -0.698342
0.245050 0.407289 0.401498
-0.135889 0.436840 -0.697013
-0.514127 0.789457 0.033877
0.210829 0.055769 0.813372
-0.474388 0.409498 -0.303436
0.239478 0.065193 -0.699432
-0.540990 0.030451 0.035311
-0.489829 0.420869 0.402944
0.238594 0.064029 -0.701781
0.211063 0.059042 0.812507
-0.541764 0.029838 0.036898
-0.125304 -0.708463 0.406535
0.584321 -0.309463 -0.697603
-0.502740 -0.698605 0.056508
-0.134363 0.438029 -0.696915
-0.496768 0.035402 0.784194
-0.477553 0.409920 -0.304915
0.211519 0.055845 0.811693
-0.129957 -0.702538 -0.315913
0.236496 0.783862 0.049547
-0.135213 0.437553 -0.698246
-0.138141 -0.313905 0.791495
-0.136304 0.787127 0.414224
0.598067 -0.305856 0.044234
-0.515600 0.788317 0.033215
0.614146 -0.689531 -0.348709
-0.479386 0.040450 -0.674577
0.586125 -0.310308 -0.696829
-0.503519 -0.698614 0.053057
-0.514952 0.786792 0.035280
-0.541124 0.030948 0.036426
-0.133049 0.429776 0.809250
-0.481467 0.039162 -0.673008
-0.137225 -0.311738 0.790798
-0.137503 0.437237 -0.699004
0.230990 -0.683151 0.033877
-0.134536 0.429242 0.809382
-0.496981 0.033650 0.783141
-0.095413 -0.314679 -0.683828
0.238733 0.420266 -0.321878
-0.096481 -0.315503 -0.681436
-0.480758 0.038855 -0.671769
-0.139482 0.763203 -0.294396
-0.514489 0.791340 0.034857
-0.496883 0.035811 0.785088
-0.496923 0.036669 0.784349
0.585857 -0.310203 -0.696091
0.241896 -0.687403 -0.684081
-0.489209 -0.324545 0.429562
0.620380 0.041975 -0.325832
0.240250 0.062751 -0.700662
-0.496304 0.035186 0.783919
0.212024 0.056683 0.813656
-0.136812 0.438861 -0.695942
0.219832 -0.310215 0.399966
-0.125954 -0.710628 0.408148
0.241616 0.063410 -0.699801
0.212110 0.056995 0.815203
-0.129348 -0.702133 -0.315583
-0.135775 -0.313888 0.790845
0.239988 -0.686154 -0.682252
0.620891 0.043515 -0.325167
-0.514771 0.791017 0.034053
-0.478198 0.037969 -0.671635
0.620784 0.043434 -0.326761
-0.488723 0.417769 0.400214
0.230403 -0.683420 0.034557
-0.480557 0.039106 -0.672939
-0.514986 0.789817 0.033836
0.585079 -0.310455 -0.697632
-0.134996 0.428639 0.809323
-0.476629 0.410767 -0.305554
-0.515080 0.790626 0.034236
0.596653 -0.304321 0.043107
0.598468 -0.305390 0.040999
-0.489754 0.418399 0.402337
-0.477211 0.410596 -0.304510
0.598029 -0.304257 0.040932
-0.499393 -0.698269 0.055125
0.240142 0.062100 -0.699518
-0.125750 -0.710966 0.406991
0.613194 -0.689397 -0.349076
-0.497881 0.036164 0.783178
0.241263 -0.689096 -0.682505
-0.501015 -0.699715 0.053646
0.239418 -0.689005 -0.684213
-0.134790 0.438004 -0.696952
0.230866 -0.682448 0.033316
-0.124292 -0.709927 0.409910
-0.136151 -0.314503 0.788173
0.238325 0.421961 -0.323678
-0.496387 0.036665 0.785127
0.229029 -0.683625 0.034708
0.610363 0.392735 0.043774
-0.135067 0.430845 0.808116
-0.539361 0.029527 0.039462
0.239495 0.065064 -0.698440
-0.501435 -0.699011 0.055130
-0.094601 -0.313529 -0.681168
-0.137272 -0.315011 0.790243
0.241282 -0.689624 -0.685323
0.240035 -0.688276 -0.681949
-0.514048 0.790764 0.033709
-0.540076 0.031467 0.038437
-0.490339 0.417147 0.403100
-0.478010 0.410831 -0.302917
-0.096354 -0.313391 -0.682313
-0.489687 -0.323606 0.430679
0.610411 0.395183 0.045972
-0.489391 0.416876 0.401626
0.609096 0.395521 0.045002
-0.134778 0.788959 0.411050
0.597148 -0.304901 0.040874
0.231150 -0.683665 0.034397
0.229925 -0.682400 0.034261
-0.136321 0.787953 0.414854
0.220173 -0.310490 0.397603
-0.500921 -0.699661 0.055350
0.609114 0.393391 0.044513
-0.501168 -0.698198 0.052362
-0.514105 0.790209 0.032785
-0.136672 -0.312669 0.790564
-0.134972 0.787163 0.411135
0.621364 0.044537 -0.325886
-0.499059 -0.325110 -0.321615
-0.496515 0.036413 0.785103
0.631429 0.062591 0.425286
-0.481110 0.038052 -0.674224
0.618923 0.043719 -0.327022
-0.490377 0.417342 0.403034
-0.500356 -0.698839 0.055433
-0.125257 -0.708363 0.409173
-0.136123 0.786429 0.412788
0.241298 0.063247 -0.699309
-0.095212 -0.313919 -0.682882
0.238877 0.063722 -0.699863
0.242756 0.407028 0.400678
-0.130509 -0.704459 -0.317198
-0.126015 -0.710517 0.407888
-0.134504 0.787504 0.410809
0.620038 0.044115 -0.328729
-0.540585 0.031500 0.037281
0.222141 -0.309518 0.399114
-0.096628 -0.312790 -0.682409
0.583862 -0.310047 -0.697833
0.222551 -0.310037 0.399158
0.221707 -0.309579 0.400211
-0.127883 -0.702957 -0.318511
-0.135284 0.437846 -0.693745
-0.139178 0.764900 -0.295679
0.598577 -0.305589 0.042357
0.620968 0.042301 -0.327080
-0.514316 0.789558 0.035224
-0.139651 0.765522 -0.293926
0.241628 -0.688157 -0.683119
0.609496 0.393856 0.045131
-0.140238 0.763404 -0.294949
-0.136836 -0.314164 0.790053
-0.124625 -0.708455 0.407945
0.221058 -0.309599 0.401395
0.631380 0.060421 0.425708
-0.135787 0.787040 0.411232
0.237560 0.783625 0.048313
0.229569 -0.684867 0.033584
-0.134694 0.430499 0.809378
-0.512935 0.788664 0.033275
0.608684 0.394778 0.045235
0.230243 -0.683579 0.034267
-0.140455 0.764411 -0.294163
-0.138028 -0.315325 0.788989
-0.500897 -0.697921 0.055552
0.240061 0.061598 -0.699847
0.598494 -0.304529 0.041994
0.239965 0.062701 -0.699252
-0.514322 0.789782 0.032627
0.241413 -0.687938 -0.684146
0.212893 0.056093 0.812329
0.585919 -0.309091 -0.697625
0.607823 0.393817 0.044044
-0.488132 0.417144 0.402850
-0.501245 -0.697694 0.052862
0.633350 0.060667 0.426952
-0.502668 -0.698176 0.053345
-0.125339 -0.709250 0.407940
0.586171 -0.309672 -0.697546
0.212261 0.056852 0.813561
-0.124799 -0.709971 0.407847
-0.094613 -0.314497 -0.683173
-0.480829 0.039979 -0.673571
-0.127590 -0.701613 -0.318157
0.240998 0.065339 -0.699373
-0.136357 -0.315534 0.790425
0.241041 0.063605 -0.700338
0.597191 -0.304617 0.041446
-0.095640 -0.314348 -0.682677
0.230086 -0.685054 0.033241
0.237274 0.782518 0.049417
0.231576 -0.683074 0.034646
-0.481139 0.038491 -0.674341
0.238546 0.784251 0.049486
-0.127545 -0.703139 -0.317627
0.228612 -0.681193 0.033722
0.598945 -0.304219 0.043447
-0.490467 -0.324411 0.430659
0.237210 0.780659 0.048375
-0.141346 0.765617 -0.296020
-0.542014 0.031173 0.037500
0.631414 0.062489 0.425373
0.222950 -0.312353 0.400734
0.222336 -0.310222 0.400267
-0.128548 -0.701410 -0.317422
-0.096176 -0.313134 -0.682972
-0.498973 -0.324478 -0.322370
0.598185 -0.304824 0.043766
-0.477934 0.410722 -0.305170
-0.138611 0.764497 -0.293262
-0.140605 0.761870 -0.294640
0.622556 0.044862 -0.326686
-0.134543 0.436525 -0.697473
-0.477696 0.409581 -0.305465
0.241287 -0.687617 -0.683792
0.629850 0.062568 0.426786
-0.497885 0.037111 0.783313
-0.125556 -0.711003 0.407867
-0.513917 0.789616 0.033639
0.612926 -0.691291 -0.349938
-0.130474 -0.700916 -0.316432
-0.501899 -0.699526 0.055234
0.231626 -0.685110 0.033020
0.220683 -0.309883 0.399085
0.212787 0.057024 0.812512
-0.540910 0.030963 0.037585
-0.500778 -0.321586 -0.322560
0.621103 0.042287 -0.326525
-0.135199 0.428539 0.808673
-0.488693 -0.326161 0.430569
-0.135978 -0.316754 0.790673
0.240225 -0.687254 -0.684685
0.608170 0.393425 0.044478
0.621916 0.043341 -0.325946
-0.140904 0.763676 -0.294932
