OFF
256 0 0
0.241893 0.423360 0.419546
-0.498571 -0.669984 0.041620
0.606665 0.047690 0.399749
-0.500134 0.399263 -0.317753
0.577172 -0.706599 -0.321963
-0.124389 -0.690846 -0.318345
0.233634 0.064617 -0.700799
-0.506738 0.057975 0.797973
0.645342 -0.329156 0.057750
0.643992 -0.329747 0.056984
-0.140885 0.422030 -0.674094
0.604706 0.045542 0.398275
-0.495950 0.401248 0.423805
-0.137059 0.778245 0.417476
0.643929 -0.328217 0.057395
-0.139191 0.423104 -0.675105
0.619651 -0.340713 -0.691616
-0.130025 0.804468 -0.308072
0.234092 0.067795 -0.698431
-0.502849 0.045075 -0.692587
-0.126358 -0.323669 -0.729362
0.224613 0.805408 0.031590
0.644901 -0.331365 0.057210
0.617648 0.031967 -0.336058
-0.135036 -0.691530 0.434242
-0.135031 0.777934 0.415830
-0.146831 0.425887 0.810706
-0.506710 0.060297 0.798369
0.242090 0.422563 0.419280
0.645137 -0.329547 0.060007
-0.141170 0.421141 -0.675268
0.575691 -0.705736 -0.322023
0.233065 0.065760 -0.698046
0.239420 -0.676416 -0.697837
0.232283 0.067078 -0.700988
0.604527 0.045785 0.400741
-0.123453 -0.691670 -0.318352
-0.506022 0.057947 0.799532
-0.498009 -0.669130 0.040077
0.605701 0.388087 0.037083
0.618925 0.027816 -0.338071
0.237818 -0.697587 0.058060
0.231603 0.065458 -0.699141
-0.496330 0.397428 0.422242
0.234911 0.066119 -0.701408
0.233054 0.065593 -0.700840
0.618729 -0.340508 -0.689276
0.605169 0.387942 0.037469
-0.500489 0.401689 -0.315120
0.230803 0.058182 0.793845
-0.136061 0.778693 0.414803
-0.482389 0.779301 0.060579
-0.149018 0.423938 0.809019
-0.497689 0.401397 0.424501
-0.133097 -0.691802 0.435533
0.577692 -0.706312 -0.321979
0.242031 0.422844 0.418964
-0.140012 0.423200 -0.674337
-0.485177 -0.304812 0.416049
-0.501511 0.045912 -0.691778
0.242093 -0.315823 0.418629
-0.135202 0.779601 0.415322
-0.122366 -0.691127 -0.317136
-0.506763 0.057490 0.799860
-0.129845 0.805683 -0.309063
0.621527 -0.339091 -0.691544
-0.507606 0.059534 0.799267
-0.141210 0.422147 -0.675663
0.232641 0.056458 0.793693
0.619481 0.028943 -0.336758
0.224550 0.803222 0.031008
-0.499813 -0.670998 0.042360
-0.135568 0.779286 0.414887
-0.501903 0.401304 -0.316792
0.243759 -0.317767 0.418598
-0.147801 -0.310401 0.791485
-0.498390 -0.670498 0.042690
0.243353 0.420814 0.418601
-0.484141 0.778415 0.060972
0.605737 0.045560 0.398549
-0.133160 -0.692303 0.433767
0.242563 0.424975 0.418823
0.619973 -0.339252 -0.690454
-0.499448 -0.670225 0.040866
0.619907 0.028451 -0.336182
-0.135414 0.779811 0.414059
-0.486153 -0.303373 0.417989
0.242605 -0.315968 0.417634
0.243824 -0.316018 0.417997
0.618770 0.026044 -0.338079
0.243071 0.422688 0.418150
-0.499011 -0.672018 0.043907
0.233608 0.065705 -0.699605
-0.147834 -0.308252 0.793304
0.238556 -0.699673 0.059417
0.237005 -0.699611 0.059057
0.606383 0.388169 0.037520
0.576790 -0.707073 -0.321204
0.619901 0.029400 -0.335813
0.621900 -0.340597 -0.690434
-0.149312 0.424861 0.809525
-0.140052 0.422608 -0.674466
-0.497939 0.400254 0.422806
-0.141195 0.422691 -0.675278
-0.491191 0.039126 0.023962
0.605158 0.388784 0.038160
0.237779 -0.699504 0.059341
-0.134875 -0.691628 0.434721
-0.135672 0.777253 0.414522
-0.484749 0.781310 0.060524
-0.484538 0.779731 0.059045
-0.122168 -0.692923 -0.317874
-0.502160 0.399764 -0.316703
0.576720 -0.706705 -0.321754
-0.499554 -0.671099 0.041583
0.240460 -0.677596 -0.697957
-0.500860 -0.670510 0.041988
-0.136316 0.780131 0.415159
0.618154 -0.339891 -0.690826
-0.147608 -0.309636 0.792182
0.232484 0.066267 -0.700035
-0.497552 0.401299 0.420942
0.618467 0.027957 -0.335275
0.233828 0.423964 -0.290975
-0.134622 0.780640 0.413524
-0.119865 -0.691203 -0.316488
0.576850 -0.706507 -0.320859
-0.123011 -0.691040 -0.318947
-0.499486 -0.669098 0.043630
-0.484756 0.779109 0.061977
0.621444 -0.341614 -0.689442
-0.128570 -0.324976 -0.728007
0.234214 0.423979 -0.290938
-0.126837 -0.325444 -0.727840
-0.140656 0.422670 -0.673371
0.620431 -0.339724 -0.691993
0.238394 -0.700699 0.060368
-0.507570 -0.331352 -0.360900
0.238124 -0.698786 0.057887
0.227506 0.805137 0.031890
-0.491381 0.038200 0.022481
-0.127893 0.805258 -0.306920
-0.129776 0.804006 -0.308817
0.239008 -0.700895 0.060159
-0.148336 -0.310344 0.792494
0.620774 -0.339981 -0.689103
0.243461 -0.314891 0.418029
0.619290 -0.338534 -0.690953
0.232382 0.057322 0.793753
0.233601 0.067148 -0.699740
0.225103 0.805693 0.032340
-0.137458 0.778926 0.416564
-0.148593 0.424566 0.809677
-0.137846 0.778084 0.414509
0.643666 -0.327860 0.057091
-0.492165 0.039299 0.022074
0.239027 -0.675712 -0.697275
0.230675 0.067761 -0.701345
-0.502342 0.043085 -0.692383
-0.506318 0.058407 0.799233
0.618238 0.028414 -0.337090
0.232263 0.066385 -0.699652
0.232579 0.058624 0.794205
0.620766 -0.340164 -0.689202
0.238048 -0.700421 0.058329
0.237564 -0.700076 0.059728
-0.506505 0.057518 0.799190
0.232490 0.058655 0.793421
-0.504342 0.042778 -0.692215
-0.128948 0.806602 -0.310476
-0.486940 -0.305788 0.415870
0.621649 -0.341744 -0.688856
0.245606 -0.316583 0.419274
-0.137095 0.778838 0.416127
0.233743 0.058001 0.794535
0.619759 -0.340386 -0.690182
-0.132894 -0.693112 0.435980
0.232509 0.067978 -0.699274
-0.497906 -0.669599 0.042794
0.644040 -0.330587 0.057037
0.606247 0.388467 0.037794
0.242838 0.423807 0.417233
0.603738 0.046846 0.398622
-0.501725 0.399466 -0.315663
-0.500425 0.400817 -0.317844
-0.139033 0.422663 -0.675759
-0.494762 0.401226 0.421773
0.620225 -0.341925 -0.691926
-0.503347 0.046410 -0.692793
0.224473 0.805544 0.032980
-0.508005 -0.333313 -0.362713
0.644653 -0.329019 0.056985
0.238565 -0.675946 -0.696256
0.231521 0.058379 0.794437
-0.146975 -0.310333 0.792483
-0.505822 -0.332805 -0.361204
-0.503009 0.043359 -0.692573
0.643044 -0.329049 0.058542
-0.121179 -0.690987 -0.315677
0.239848 -0.676327 -0.695777
-0.493201 0.037898 0.022769
-0.147828 0.424258 0.810037
-0.484229 0.779311 0.060440
-0.486506 -0.304684 0.417417
-0.500144 0.399682 -0.318420
-0.133720 -0.691842 0.435340
0.644060 -0.329510 0.056930
0.244446 -0.317421 0.418734
-0.132777 -0.693350 0.436194
-0.506785 0.058833 0.798995
0.618428 -0.342266 -0.690427
0.579396 -0.703955 -0.321689
-0.502836 0.044614 -0.693484
-0.137050 0.777657 0.414761
-0.147157 -0.309972 0.792204
-0.491179 0.039611 0.023057
-0.503184 0.043904 -0.693184
-0.148870 0.424202 0.811188
0.237944 -0.697232 0.058505
-0.497615 -0.669321 0.042409
0.233501 0.057101 0.793467
-0.138796 0.422780 -0.674064
-0.135357 0.778464 0.414683
-0.127695 -0.325043 -0.728982
-0.133121 -0.694173 0.436848
0.575706 -0.705913 -0.320370
0.233210 0.055602 0.793899
-0.139285 0.422292 -0.674921
0.243413 -0.315174 0.417075
0.620908 -0.341099 -0.690932
0.577352 -0.705497 -0.321295
-0.485509 0.779434 0.061565
0.243170 -0.315900 0.418478
-0.499212 -0.668864 0.041096
0.243512 -0.315404 0.419179
-0.497232 0.400095 0.423193
0.603374 0.045426 0.401834
-0.501867 0.045040 -0.691816
-0.505759 0.056452 0.799110
-0.484633 -0.303978 0.417033
-0.148545 0.424350 0.809780
0.244158 -0.316888 0.418021
-0.497825 0.399817 0.422405
0.224252 0.805355 0.030876
0.234792 0.424247 -0.289890
-0.503488 0.045666 -0.691584
-0.146998 0.423349 0.810660
0.644296 -0.328434 0.059393
-0.147545 -0.311015 0.792451
-0.491194 0.039398 0.022492
-0.502837 0.044347 -0.691326
-0.505108 0.057677 0.799647
0.233352 0.065424 -0.700143
0.606151 0.387542 0.037285
-0.135628 0.777771 0.416043
-0.501592 0.399869 -0.316733
