OFF
256 0 0
-0.484986 -0.308433 -0.295006
-0.475474 0.422389 0.405839
-0.148663 -0.327543 -0.660968
0.585548 -0.324298 -0.704861
-0.446781 0.382100 -0.312172
0.227190 -0.695119 -0.683892
-0.146676 -0.663775 -0.303986
-0.473186 0.421035 0.404985
-0.126447 -0.313205 0.767055
-0.485983 -0.308683 -0.294716
-0.484740 -0.309062 -0.293329
0.591503 0.045738 -0.323619
0.585648 -0.321317 -0.705198
-0.130174 0.790211 0.391012
0.584910 -0.321641 -0.706140
-0.128720 0.790650 0.389167
-0.511214 0.010700 -0.688828
-0.464616 -0.291349 0.392692
-0.483854 0.744556 0.020135
0.585905 -0.693505 -0.300509
-0.145501 -0.664900 -0.305269
0.230372 0.034773 -0.680630
0.228855 0.406915 -0.331537
0.228892 0.405521 -0.330963
-0.513106 0.009349 -0.687962
0.602513 0.399159 0.049235
0.226551 -0.695248 -0.683718
-0.109356 0.770731 -0.322626
0.224240 0.044482 0.798582
-0.120003 -0.661628 0.405357
-0.472128 0.421620 0.406466
0.604502 0.400690 0.048495
0.219108 -0.304876 0.420822
-0.148420 -0.326412 -0.661890
0.230231 0.036437 -0.680303
0.217870 -0.303957 0.421726
-0.505402 -0.684338 0.047964
-0.130501 0.792020 0.390406
0.586728 -0.694316 -0.300271
-0.120136 0.429827 0.778690
-0.508560 -0.684970 0.050266
0.590955 0.047089 -0.325345
0.214619 -0.667846 0.025422
-0.474151 0.421574 0.405756
0.586084 -0.693180 -0.300303
-0.125500 -0.312717 0.766056
0.253735 0.414129 0.424574
-0.466235 -0.290505 0.390026
0.585217 -0.322005 -0.704529
-0.463736 -0.291362 0.389508
0.594653 -0.299360 0.043132
-0.130849 0.789973 0.388345
-0.484800 0.744025 0.019573
-0.150009 -0.325425 -0.663547
0.227193 0.406856 -0.331687
0.223782 0.044989 0.797576
-0.484598 -0.308657 -0.294132
0.254272 0.413756 0.423629
-0.465981 -0.291234 0.390313
0.219140 -0.305246 0.423459
-0.507178 0.076747 0.049520
0.254750 0.414180 0.424920
0.231611 0.036554 -0.680605
0.232709 0.036136 -0.682327
-0.446572 0.384378 -0.313743
0.594066 -0.298709 0.043660
-0.510966 0.014736 -0.688874
0.227292 -0.694537 -0.682474
-0.110842 0.770471 -0.321949
-0.508172 -0.684464 0.047482
-0.474565 0.418850 0.405768
-0.465421 -0.288864 0.389136
0.590559 0.050409 0.444892
0.219627 -0.306606 0.423115
0.250641 0.413979 0.426365
-0.108263 0.772652 -0.322191
-0.148728 -0.325130 -0.662902
0.237306 0.759931 0.070625
0.584846 -0.321653 -0.704611
-0.483489 0.045091 0.771511
0.596576 -0.299227 0.045336
0.225009 0.042437 0.797238
-0.132140 0.790974 0.388517
-0.130103 0.789103 0.386482
-0.120342 -0.663797 0.405467
-0.482115 0.744776 0.021083
0.223242 0.043652 0.796389
0.589028 0.051779 0.443963
0.586342 -0.694923 -0.299718
-0.483696 -0.308991 -0.294861
-0.121033 0.428904 0.776993
-0.487107 0.044795 0.769309
0.237367 0.760192 0.068589
0.593072 -0.299239 0.045357
0.225288 0.043653 0.796687
0.585785 -0.321471 -0.706071
-0.109349 0.769855 -0.322904
0.591247 0.051786 0.444587
-0.462755 -0.291003 0.389690
0.216472 -0.666934 0.024820
-0.144574 -0.664092 -0.302764
-0.485307 -0.307606 -0.296520
-0.485053 -0.309306 -0.296163
-0.127149 -0.312795 0.767801
-0.506440 -0.682675 0.046625
0.225062 -0.693637 -0.683031
-0.146493 -0.662970 -0.305648
0.583328 -0.321342 -0.704355
-0.472956 0.421023 0.406506
-0.510462 0.012008 -0.689043
-0.464907 -0.289857 0.389272
0.238866 0.760621 0.069850
0.253166 0.415301 0.425217
-0.126766 -0.312197 0.767225
0.604418 0.400895 0.048839
-0.129205 0.791392 0.389093
-0.445863 0.384564 -0.312813
0.216148 -0.668371 0.025846
-0.473392 0.419912 0.404435
-0.110716 0.769701 -0.323031
-0.127187 0.396913 -0.690221
0.227545 0.407599 -0.333789
-0.464293 -0.290754 0.388845
-0.109341 0.770176 -0.320850
-0.149993 -0.326742 -0.662021
-0.128963 0.790742 0.389685
-0.108359 0.771496 -0.321618
-0.463513 -0.290205 0.389876
0.218041 -0.304595 0.422468
0.237402 0.760550 0.070279
-0.471351 0.421108 0.406078
-0.146428 -0.664773 -0.304330
0.254391 0.413347 0.425084
-0.121133 -0.664126 0.404557
0.232923 0.035525 -0.682516
-0.120623 0.429258 0.778364
-0.510027 0.011282 -0.690494
-0.129971 0.790101 0.388297
0.237871 0.758831 0.071600
-0.484901 -0.310637 -0.295481
0.585597 -0.323377 -0.704445
-0.507731 -0.684026 0.048221
0.237975 0.757883 0.068196
0.231527 0.033936 -0.681370
-0.126483 0.398540 -0.687833
0.228985 0.407880 -0.332228
0.223929 0.044862 0.799379
0.229539 0.407043 -0.329841
-0.126750 -0.312660 0.766338
0.602513 0.401155 0.048338
0.603989 0.401946 0.046498
-0.448270 0.382194 -0.313996
0.237880 0.761050 0.069299
-0.511086 0.011049 -0.688569
-0.125580 0.398570 -0.688375
-0.481680 0.744895 0.020005
0.589991 0.051098 0.444009
-0.120302 0.428196 0.778301
-0.119290 -0.665407 0.404470
0.227477 0.408215 -0.332573
-0.474056 0.419860 0.405977
-0.505495 0.077915 0.048624
-0.148668 -0.326128 -0.660769
-0.463894 -0.288777 0.389031
-0.146076 -0.665301 -0.304764
0.214626 -0.667931 0.024694
-0.463400 -0.292006 0.388862
-0.122654 0.428009 0.777746
0.219720 -0.304484 0.421547
-0.464654 -0.288921 0.390162
0.583251 -0.324497 -0.703289
-0.121095 0.427432 0.777943
-0.124885 -0.311998 0.765690
0.253651 0.414320 0.424644
-0.108327 0.769587 -0.323140
0.216088 -0.665628 0.025088
-0.121315 -0.664379 0.405509
0.227386 0.408167 -0.331063
0.586248 -0.695034 -0.301123
0.228258 0.406065 -0.333218
-0.484721 0.046297 0.770200
0.227604 0.407071 -0.331671
-0.474416 0.423521 0.403739
-0.506214 0.076654 0.046492
-0.130293 0.791543 0.386966
0.228790 0.407090 -0.331699
-0.148497 -0.324853 -0.663276
-0.473065 0.421531 0.407464
0.253645 0.413413 0.426811
0.227025 0.408784 -0.330402
-0.483604 0.045697 0.773210
0.593225 0.046594 -0.323881
0.216295 -0.667852 0.025314
-0.509400 0.077134 0.048801
-0.121433 0.429506 0.778216
0.252644 0.413321 0.423752
-0.126210 -0.312158 0.765323
-0.507080 0.077595 0.049500
-0.463347 -0.290627 0.389894
-0.482231 0.744090 0.020697
-0.125906 -0.311406 0.768140
0.216901 -0.669152 0.026242
-0.483693 0.743239 0.020845
-0.125267 -0.311746 0.765631
-0.505652 -0.682910 0.047718
-0.126304 -0.311914 0.765913
-0.129594 0.790849 0.389014
0.237656 0.760288 0.070429
0.255843 0.413746 0.424036
-0.509133 0.076381 0.048953
-0.120574 -0.663767 0.405455
0.584962 -0.320928 -0.704222
-0.464026 -0.291952 0.389995
0.217086 -0.667748 0.024475
0.231567 0.034803 -0.681537
-0.473429 0.419695 0.405354
-0.464509 -0.291245 0.387663
-0.510846 0.012043 -0.689433
0.238274 0.759009 0.070322
0.590175 0.050979 0.443863
-0.508781 0.075576 0.051568
-0.123904 -0.311526 0.766556
0.230053 0.409291 -0.333843
0.586313 -0.694060 -0.299107
-0.108083 0.772292 -0.321279
-0.481026 0.743133 0.018891
-0.485777 0.045354 0.769884
-0.463628 -0.291076 0.390456
-0.121399 -0.663627 0.405237
-0.507062 0.075775 0.049537
-0.125199 -0.312270 0.769054
0.593469 -0.299770 0.046517
-0.475404 0.420342 0.406544
-0.485187 -0.308723 -0.295869
-0.120283 0.428915 0.776860
-0.149784 -0.326224 -0.661034
-0.126303 -0.311778 0.768408
-0.107501 0.770663 -0.323643
0.222300 0.043228 0.796295
-0.125988 -0.312229 0.767565
0.594866 -0.299585 0.045079
-0.128343 -0.313144 0.765895
-0.126464 -0.311926 0.768242
-0.472361 0.420827 0.406121
-0.146506 -0.664908 -0.303523
-0.119856 0.430262 0.777269
0.216493 -0.666508 0.026176
-0.110431 0.772517 -0.320449
-0.126598 0.398330 -0.688919
-0.120272 -0.663964 0.405054
0.589784 0.050172 0.444144
-0.149438 -0.325763 -0.663587
-0.484868 -0.309142 -0.294796
0.603526 0.401097 0.048525
-0.508955 0.011821 -0.688533
0.581965 -0.320399 -0.705487
