OFF
256 0 0
0.660515 0.574195 -0.304561
0.646936 -0.114432 -0.307734
-0.043300 0.224345 -0.678088
-0.039325 -0.494861 -0.667976
-0.392922 -0.486782 -0.304678
0.330579 0.595479 -0.674017
-0.028967 0.598853 -0.332125
0.692622 -0.474307 0.039812
-0.408044 -0.109152 0.764448
-0.385030 0.213934 -0.269302
-0.038979 -0.493232 -0.666947
-0.396001 -0.486394 -0.303002
-0.053592 0.606546 0.412901
-0.052378 0.608815 0.411642
0.657244 0.573475 -0.306421
-0.393504 -0.485212 -0.304013
0.322928 -0.505200 -0.312676
-0.387570 0.215519 -0.269581
0.672828 -0.117377 0.403032
-0.773897 -0.131213 -0.300863
0.658165 0.572971 -0.305598
0.286989 -0.131980 0.760195
0.328565 0.594174 0.054659
0.647353 -0.114801 -0.308404
-0.424745 0.587673 0.035129
-0.402795 0.235030 0.392556
-0.783614 0.236328 0.063202
0.329707 0.595738 -0.677660
0.323477 -0.504985 -0.312004
-0.052849 0.606891 0.412774
-0.027433 0.597573 -0.331149
-0.424390 0.587560 0.037298
0.646908 -0.115247 -0.306603
-0.041812 0.222893 -0.679189
0.321980 -0.504779 -0.312457
-0.049248 -0.485088 0.759318
0.683720 0.237685 -0.691100
-0.036506 -0.494259 -0.668111
0.660550 0.573000 -0.305279
-0.028591 0.598521 -0.329536
0.320810 -0.505955 -0.313051
-0.762664 -0.498156 0.052839
-0.392490 -0.486424 -0.304001
-0.051568 0.605831 0.412619
-0.400409 0.235910 0.391345
-0.395215 -0.485701 -0.302991
0.330959 0.595286 -0.675351
0.694371 -0.473184 0.037825
-0.407530 -0.108419 0.766876
-0.401474 0.233607 0.391508
0.690934 0.218008 0.046483
-0.391324 -0.487544 -0.302156
-0.385797 -0.498106 0.411801
-0.050320 -0.481653 0.761520
0.670627 -0.117170 0.404942
0.321707 -0.505543 -0.312635
-0.762886 -0.498564 0.053465
-0.030346 0.598055 -0.332679
0.689630 0.219015 0.047391
0.287319 -0.131917 0.757508
-0.052825 0.239672 0.782464
0.670905 -0.116003 0.402999
-0.388676 0.213557 -0.268774
-0.395332 -0.485943 -0.303449
-0.406742 -0.108728 0.767446
-0.407675 -0.109320 0.767047
-0.047859 -0.483132 0.760458
0.690727 0.221127 0.046473
0.682089 0.239721 -0.691808
-0.763402 -0.499268 0.051807
0.684111 0.238865 -0.690321
0.328801 0.596679 -0.677224
0.329476 0.598105 -0.675891
-0.038029 -0.495014 -0.666842
0.329087 0.597774 -0.675118
0.271789 0.210600 0.389058
-0.403915 0.235082 0.393161
-0.039359 -0.494047 -0.666070
-0.048868 -0.483073 0.758174
0.330173 0.596117 -0.674711
-0.386811 0.214020 -0.268874
-0.401391 0.237028 0.390181
-0.772743 -0.132897 -0.299495
0.648408 -0.115123 -0.306491
0.328760 0.595721 -0.673690
-0.403551 0.236178 0.392063
0.289620 -0.456381 0.366265
-0.049829 -0.483245 0.758957
-0.781160 0.235241 0.063342
-0.401464 0.236532 0.390618
-0.407608 -0.109824 0.766243
-0.385778 0.214020 -0.269708
-0.039328 -0.495393 -0.665523
-0.409144 -0.108140 0.764471
-0.371674 -0.120074 -0.649132
-0.058229 0.237570 0.780022
0.328217 0.595529 0.054276
-0.775960 -0.114233 0.411872
-0.407863 -0.110202 0.766947
0.329499 0.597018 0.053570
0.286309 -0.130854 0.758426
-0.774688 -0.132402 -0.300607
0.329051 0.597109 -0.676397
0.285332 -0.131949 0.758734
0.321118 -0.503204 -0.311733
0.683204 0.240060 -0.688324
-0.773469 -0.131494 -0.300016
-0.372707 -0.119262 -0.650076
0.684316 0.237541 -0.689478
0.285760 -0.132393 0.758642
-0.046476 -0.508433 0.033351
0.269920 0.210552 0.387205
0.330331 0.596147 -0.676850
-0.029069 0.598315 -0.330469
-0.781170 0.237673 0.061644
0.300685 -0.131835 -0.684117
0.285020 -0.131341 0.757624
-0.387019 0.217239 -0.269208
-0.385495 -0.498156 0.409162
-0.763720 -0.498393 0.054061
-0.409954 -0.110106 0.766284
0.660161 0.575404 -0.305130
-0.051372 0.607151 0.412830
-0.029009 0.597735 -0.331277
-0.781908 0.236821 0.061899
0.284559 -0.133566 0.760065
-0.764436 -0.498939 0.051868
0.321260 -0.504544 -0.313381
-0.038692 -0.495357 -0.669176
0.692590 0.218930 0.047271
-0.777541 -0.116703 0.411116
0.691949 -0.473667 0.037067
-0.385386 -0.499528 0.409338
0.685068 0.238625 -0.688958
-0.054378 0.238779 0.782125
0.647055 -0.113604 -0.307199
0.284731 -0.131533 0.757966
0.683333 0.238547 -0.689346
-0.039299 -0.494571 -0.666073
0.691176 0.219549 0.045517
0.694874 -0.473232 0.038506
0.330727 0.599329 -0.677403
-0.395337 -0.487028 -0.304678
-0.776209 -0.114996 0.411728
0.661137 0.572376 -0.306715
-0.409405 -0.108658 0.766384
-0.393904 -0.487622 -0.303833
0.284940 -0.131297 0.759557
-0.053439 0.240338 0.781363
-0.402616 0.235886 0.391157
-0.370493 -0.117575 -0.648802
0.645104 -0.112449 -0.307649
-0.407242 -0.110210 0.766570
-0.409234 -0.109861 0.765964
-0.385257 -0.498597 0.408746
0.286303 -0.130745 0.757774
-0.371185 -0.117672 -0.650293
-0.371358 -0.117354 -0.647749
0.647242 -0.114963 -0.307669
-0.402286 0.234590 0.393448
-0.051382 0.605855 0.411653
-0.051262 0.604032 0.411847
-0.422184 0.588652 0.036729
0.670992 -0.115703 0.405457
-0.048965 0.605947 0.413327
-0.038930 -0.495195 -0.669610
-0.402303 0.234984 0.390301
0.290886 -0.457089 0.367077
-0.777125 -0.132950 -0.299162
-0.045436 -0.507980 0.031277
0.286713 -0.131226 0.757761
-0.050398 0.605504 0.413943
0.672140 -0.117039 0.402553
-0.387119 0.215176 -0.268267
-0.052894 0.605120 0.411627
0.328698 0.596187 0.052024
-0.774263 -0.134253 -0.299545
0.673076 -0.116297 0.404428
0.301455 -0.126707 -0.684729
-0.057408 0.238320 0.779979
-0.052342 0.605260 0.412911
0.691771 0.219413 0.046435
-0.050969 0.605246 0.413026
-0.408689 -0.108726 0.765211
0.693653 -0.474385 0.038942
-0.046089 -0.508468 0.033632
-0.764572 -0.498937 0.054272
-0.774682 -0.114952 0.410874
-0.764859 -0.498036 0.052620
-0.403118 0.235213 0.391708
-0.039461 -0.494549 -0.668360
-0.765427 -0.498367 0.053305
0.272324 0.209371 0.386513
-0.028876 0.597079 -0.331919
0.694804 -0.473509 0.038534
0.285789 -0.131469 0.759433
-0.028118 0.597818 -0.332050
-0.422535 0.588530 0.037661
0.302177 -0.130484 -0.683970
-0.370490 -0.118713 -0.649092
-0.386806 0.213423 -0.267557
-0.394239 -0.486436 -0.302714
-0.046494 -0.507911 0.033593
-0.370141 -0.117613 -0.649167
-0.773926 -0.115005 0.410644
-0.422860 0.588183 0.037785
0.670670 -0.116961 0.404866
-0.781382 0.236419 0.061202
0.271811 0.210493 0.386134
-0.782388 0.237549 0.063572
-0.386147 0.215025 -0.269628
0.273092 0.210081 0.387383
-0.050811 0.604923 0.413368
-0.401458 0.235950 0.392455
-0.393243 -0.485878 -0.303015
0.672213 -0.116044 0.404631
-0.776111 -0.114584 0.411295
-0.055657 0.238740 0.778655
0.323489 -0.504832 -0.312885
-0.373917 -0.118388 -0.650820
-0.396589 -0.485501 -0.302015
-0.050526 -0.482778 0.761020
0.329802 0.595857 -0.676740
0.659484 0.574326 -0.304604
0.320222 -0.504474 -0.313031
-0.040422 0.221545 -0.677821
0.646114 -0.114162 -0.306135
-0.772845 -0.130975 -0.299717
0.688693 0.218748 0.045045
0.683150 0.240062 -0.689950
-0.056205 0.237568 0.779400
0.648876 -0.116333 -0.307510
-0.762877 -0.497559 0.054055
-0.776079 -0.115856 0.411142
-0.055425 0.239238 0.779157
-0.370999 -0.118374 -0.650555
0.646333 -0.114628 -0.306529
0.660631 0.573359 -0.306651
-0.775172 -0.132903 -0.299909
-0.372241 -0.119306 -0.650216
-0.028751 0.597529 -0.330588
-0.400472 0.235811 0.391164
0.660399 0.573960 -0.304912
-0.425545 0.587912 0.038717
0.328898 0.595973 -0.675703
-0.773492 -0.131638 -0.300267
-0.043226 0.223203 -0.677991
0.682111 0.240221 -0.689647
0.688730 0.218229 0.045323
-0.383962 -0.496861 0.409627
0.327872 0.595450 0.053475
-0.369834 -0.118137 -0.646708
-0.774298 -0.133073 -0.299676
-0.783066 0.238164 0.062432
0.285988 -0.130041 0.757664
-0.772864 -0.134575 -0.299209
