OFF
256 0 0
-0.047420 -0.497893 0.048408
-0.779384 -0.129052 0.414983
-0.413958 0.604070 0.047802
0.687134 0.237104 0.047925
0.319635 -0.129923 0.782159
0.687769 -0.131506 -0.319699
-0.047934 0.603726 0.415060
-0.045761 -0.497171 0.046393
-0.046877 0.604290 -0.320060
-0.413962 0.235837 -0.321264
-0.415874 -0.497046 -0.319340
0.320769 0.603595 0.046463
-0.047212 0.605784 -0.317118
0.319281 0.605106 -0.688307
-0.413761 -0.497342 -0.320322
0.687492 -0.496504 0.047668
-0.048336 0.236985 0.783018
-0.783092 0.237380 0.046726
-0.781738 0.236509 0.045870
0.320543 0.604172 -0.688150
0.318536 0.235829 0.415374
-0.414405 -0.499463 0.415842
0.686075 0.236192 0.046889
0.686625 0.605039 -0.319589
-0.415950 0.239524 -0.318871
-0.049189 -0.496978 0.046417
-0.047015 -0.496652 0.781348
-0.048167 0.603398 0.414786
-0.413581 0.235888 -0.319605
-0.413822 -0.130960 0.780575
-0.414349 0.237538 0.414719
-0.414164 -0.497380 0.414399
-0.416145 -0.130668 -0.685871
-0.781349 -0.496936 0.047947
0.687138 0.235466 -0.687722
0.320607 0.602402 -0.685951
-0.414449 -0.128960 0.783796
0.319072 0.237249 0.414246
-0.048501 0.235634 -0.689076
0.685672 -0.130875 -0.320413
-0.047710 -0.497486 0.780814
-0.046722 0.237849 0.781865
-0.781253 -0.129866 -0.319929
0.686247 0.237997 0.046616
0.319633 -0.129712 -0.687020
0.318914 0.602568 0.047826
-0.048307 0.605183 -0.320919
-0.048411 0.234976 0.782682
-0.047074 0.602816 -0.320453
-0.048666 0.603623 0.415132
0.320149 -0.497239 0.413362
0.685702 -0.496926 0.047256
0.320929 0.236019 0.413366
0.319284 0.602937 -0.686961
0.319698 -0.130732 -0.686352
-0.413945 -0.497474 -0.320831
-0.048030 -0.497828 0.046863
0.318572 0.605451 0.045405
0.687952 -0.129293 -0.320425
-0.781947 -0.130953 -0.321220
0.320968 -0.132097 0.780202
-0.783730 -0.129317 0.412423
-0.782854 -0.495249 0.047953
-0.047989 0.602945 -0.318796
-0.048904 -0.497723 0.048165
-0.415161 -0.497549 -0.320299
0.320750 -0.497872 -0.320010
-0.781176 -0.131213 -0.319640
-0.781098 -0.128995 -0.317518
-0.048412 0.604755 -0.320737
0.686226 -0.497391 0.048239
0.687330 0.236682 -0.687140
-0.045705 0.604021 -0.322412
-0.046187 0.602408 -0.319510
-0.046812 -0.498867 -0.687105
-0.048215 0.602899 -0.319440
0.686746 0.236419 -0.689102
0.687643 -0.129920 0.415967
-0.046285 -0.498877 0.047238
-0.416062 -0.496619 -0.321214
0.686935 0.236164 0.047753
0.687417 0.238991 0.048472
-0.047381 0.604947 0.412421
-0.047908 0.603663 0.415571
0.685567 0.237512 -0.687942
-0.413592 -0.498523 -0.319557
-0.415007 0.236448 -0.316938
-0.414788 -0.498531 0.414501
0.688020 0.236250 0.046478
-0.048130 -0.498127 0.050251
0.687451 0.602678 -0.319961
-0.414615 -0.496450 -0.320527
0.320041 0.600721 -0.685162
0.687050 -0.130973 -0.318548
0.319685 -0.131988 -0.686048
0.318230 0.603325 -0.686869
-0.416649 0.237088 -0.320695
0.319626 -0.498309 0.415330
-0.783296 0.238105 0.046727
-0.414995 0.235355 0.414567
-0.781798 -0.496579 0.047426
-0.047525 -0.497703 0.780630
-0.413833 -0.498660 -0.320178
0.320236 0.237471 0.416480
-0.781976 -0.129469 -0.320522
-0.414710 -0.130420 -0.687083
0.685764 -0.129628 0.417202
-0.782152 -0.133668 0.415013
0.318509 0.237853 0.414310
-0.780068 0.235996 0.047212
0.321027 0.604233 -0.686212
-0.047380 -0.497162 0.780166
0.320591 -0.130582 0.781377
-0.414136 -0.498969 0.414521
-0.413137 0.235411 0.414769
-0.781634 -0.498297 0.047380
0.687133 0.602217 -0.318339
-0.413638 0.605218 0.046366
-0.416521 0.235838 -0.319553
-0.413911 -0.129940 -0.686564
0.687877 0.602712 -0.319014
-0.413228 -0.129331 0.782801
-0.414749 -0.129434 -0.686693
-0.045605 -0.498099 0.047310
-0.047141 -0.497414 0.781323
0.320012 0.237999 0.413924
-0.415613 -0.132190 -0.687320
-0.781122 -0.128294 -0.320239
0.321014 0.603572 0.045114
-0.414333 -0.498338 -0.319698
0.319486 -0.496230 0.414755
-0.414544 -0.131265 0.782071
0.319899 -0.131069 -0.687836
0.319683 -0.498603 0.415602
-0.045004 -0.498480 -0.687050
-0.414332 -0.499594 -0.319453
0.319364 -0.497300 -0.316898
-0.046429 0.603900 -0.319306
-0.781658 -0.496147 0.046954
0.687461 0.602016 -0.318369
0.688438 0.603002 -0.318842
0.689199 0.604383 -0.320673
0.686082 -0.129175 -0.318656
0.317406 0.601929 -0.687367
0.321812 0.236184 0.414788
-0.783277 -0.131741 0.416663
-0.414337 -0.129995 0.783435
0.688256 0.604178 -0.320559
0.318734 0.605494 0.045720
0.686633 -0.131089 -0.321803
-0.047529 -0.497905 -0.686798
-0.412710 -0.496698 -0.319479
-0.047571 -0.497432 0.780661
0.687739 -0.498414 0.046943
-0.780583 -0.129956 -0.319358
0.685429 -0.130801 0.415224
-0.047619 0.602214 0.415685
0.686549 0.603186 -0.320566
-0.782868 -0.497527 0.048596
0.320074 0.237023 0.415777
-0.414513 -0.131611 -0.685119
-0.048395 0.604180 -0.320098
0.320275 0.604098 -0.687634
0.687977 -0.130700 -0.319299
0.319262 -0.498086 -0.321218
-0.050512 0.236917 -0.688536
0.320262 -0.497660 -0.320419
0.320648 0.603847 0.047506
-0.412067 0.604019 0.046181
-0.047140 -0.497665 -0.688001
0.317313 -0.497572 0.414443
0.687156 -0.497979 0.046096
-0.045008 -0.496923 0.048097
-0.413642 -0.497586 -0.320880
-0.046104 0.235152 -0.684632
-0.047195 0.236825 0.782804
0.686793 -0.498618 0.049384
0.685822 -0.131646 -0.319504
-0.048007 0.604273 -0.320106
0.687634 -0.130348 0.413734
-0.047650 0.237427 -0.685219
0.686128 0.604581 -0.319285
-0.047257 0.235663 -0.686827
-0.414955 -0.130682 0.780729
0.686461 -0.131481 0.414572
0.686363 -0.130174 -0.321093
-0.415770 -0.497136 0.415829
-0.048665 -0.497498 -0.685647
0.686811 -0.497694 0.047776
-0.416275 0.236991 0.414044
0.317122 -0.130616 -0.686597
-0.414412 -0.499645 0.415431
-0.781953 -0.131168 -0.319695
0.686962 -0.498056 0.047136
0.684978 -0.493872 0.047915
0.686844 0.603432 -0.319856
0.687970 0.604861 -0.318926
0.687759 -0.130301 0.416004
0.321101 -0.128698 -0.686966
-0.781601 -0.129622 -0.319927
-0.048656 -0.496429 0.780998
-0.783193 -0.131244 0.414375
0.318876 -0.131213 -0.685726
-0.047320 0.605014 -0.319096
0.685723 -0.497729 0.047361
0.687954 -0.131140 -0.320459
-0.416059 -0.497442 -0.319280
0.319579 -0.129829 0.782395
-0.046328 0.236769 0.782241
0.320258 -0.128581 0.782092
-0.046463 0.236117 0.780922
0.319625 -0.498172 0.413460
-0.045944 0.604291 0.414504
0.686202 -0.496716 0.047566
-0.046486 -0.495804 0.048210
-0.781107 -0.129495 -0.321436
0.686141 -0.129032 0.415519
-0.046977 0.237745 -0.687136
0.319361 -0.496399 0.414431
-0.416171 -0.498670 0.414196
0.319681 0.236019 0.415967
0.686148 0.236365 -0.688887
-0.414476 -0.497285 0.415123
0.320036 -0.497989 0.413233
0.320231 0.604596 -0.685861
0.685484 0.236499 0.047253
-0.415339 -0.128836 0.783169
-0.781601 -0.131587 0.414299
0.686372 -0.129622 0.414440
0.686433 -0.130049 0.416141
-0.412766 -0.497378 -0.318301
-0.414939 0.238997 0.414673
-0.782921 -0.131624 0.414235
-0.046218 0.237148 -0.687020
-0.414259 -0.130981 0.781624
0.320144 0.604430 0.048352
-0.412560 0.236883 0.414664
-0.781618 -0.497245 0.049920
0.687752 0.234650 0.046987
0.319525 -0.131447 -0.687261
-0.783189 -0.499204 0.046918
0.319552 0.603923 -0.689088
0.688108 0.235076 0.048937
0.688031 -0.128366 0.415142
-0.415422 0.236189 -0.318988
-0.412914 0.236241 0.414303
-0.046250 -0.498108 -0.685032
-0.047928 0.237928 -0.686383
0.687936 -0.131252 0.415113
-0.781024 -0.129168 0.413916
-0.045714 0.603650 -0.321062
-0.046058 0.236672 0.782143
-0.045823 0.602666 -0.319406
0.684861 0.235675 -0.687229
-0.046804 -0.497444 0.047935
0.685751 0.238299 0.046687
