OFF
256 0 0
-0.405459 -0.123141 0.759855
0.300573 -0.479688 0.395580
-0.060869 0.239605 0.767522
0.341691 0.596299 0.042447
0.681239 -0.121755 0.442422
0.299085 -0.120274 0.782989
-0.048445 -0.504390 -0.701339
-0.420236 0.607264 0.022622
0.315591 -0.169591 -0.681933
0.301729 -0.121138 0.784362
0.682256 0.563295 -0.311488
0.319431 0.616144 -0.668946
-0.064776 0.600197 0.393168
-0.417921 0.605877 0.026088
-0.047817 -0.481155 0.790791
0.314314 -0.168942 -0.682171
-0.419544 -0.113336 -0.663100
0.300779 -0.117176 0.783964
-0.421524 0.604115 0.024836
-0.387157 0.189087 0.376228
-0.407929 -0.473429 -0.294897
-0.410188 0.227854 -0.303923
0.320242 0.616063 -0.667980
0.666692 -0.109871 -0.329236
0.686465 0.220991 -0.693724
0.682853 0.561872 -0.309406
0.665200 -0.107889 -0.327397
-0.755028 -0.141278 0.404850
-0.770193 0.217892 0.024635
-0.048912 -0.481584 0.790162
-0.753158 -0.140401 0.405382
0.652573 -0.456624 0.051179
0.683307 0.562160 -0.311543
0.316002 -0.167367 -0.683380
0.300362 -0.480232 0.398732
-0.760567 -0.130963 -0.322406
-0.047636 -0.504948 -0.701690
-0.052806 0.603350 -0.321908
-0.063343 0.600973 0.394910
-0.755300 -0.140875 0.404906
-0.405873 -0.123567 0.760844
0.342974 0.593400 0.042613
0.299549 -0.505165 -0.308246
-0.755916 -0.483602 0.046126
-0.410074 0.230743 -0.302660
-0.047019 -0.459907 0.077094
-0.050807 0.603604 -0.322326
-0.420452 0.605460 0.024859
0.315611 -0.169024 -0.681570
0.666349 -0.109171 -0.328329
0.663624 -0.108013 -0.327421
-0.045160 0.232094 -0.669374
-0.410923 0.230254 -0.301289
-0.420026 -0.113988 -0.664311
0.301109 -0.119323 0.784999
-0.041282 0.234480 -0.667786
0.679707 -0.122852 0.442563
-0.408920 0.227541 -0.303497
0.667740 -0.110544 -0.328027
0.319478 0.615245 -0.665893
-0.421818 -0.113507 -0.664805
0.706158 0.218098 0.058625
-0.408916 -0.473447 -0.292833
-0.421795 -0.113728 -0.664732
-0.047426 -0.483541 0.792378
-0.047731 -0.458980 0.078074
0.704656 0.217448 0.059686
-0.387450 0.188744 0.376355
0.298859 -0.479714 0.397201
-0.047608 -0.457591 0.077039
0.665831 -0.111556 -0.328571
0.321230 0.615405 -0.666931
0.303324 -0.118323 0.784662
0.319156 0.615170 -0.664819
-0.411293 0.230368 -0.303145
0.343675 0.593701 0.043687
0.704649 0.217550 0.059612
0.706229 0.217227 0.059397
-0.393552 -0.477142 0.409205
0.316652 0.616705 -0.666614
0.686342 0.220219 -0.693335
0.317039 -0.167508 -0.683676
0.651762 -0.457845 0.050417
0.298850 -0.481107 0.395188
0.301517 -0.481201 0.396781
0.685088 0.219681 -0.694709
0.665861 -0.109503 -0.328993
-0.049094 -0.502383 -0.701204
-0.406932 -0.122876 0.759083
0.666445 -0.109867 -0.328364
0.298675 -0.480296 0.397591
0.665120 -0.109343 -0.327413
-0.041429 0.231439 -0.669334
-0.758929 -0.481714 0.044743
-0.758329 -0.481462 0.045852
0.297346 -0.508802 -0.309160
-0.410039 -0.471930 -0.293066
0.343427 0.594775 0.043185
-0.043118 0.233202 -0.668426
0.320048 0.616452 -0.665100
-0.419632 0.605745 0.026435
0.313901 -0.167971 -0.681539
-0.409158 -0.473009 -0.294777
-0.409724 -0.473352 -0.295008
0.299567 0.215613 0.415229
-0.405432 -0.125750 0.760409
-0.751992 -0.139380 0.404727
-0.752854 -0.141417 0.403909
0.706382 0.217162 0.059785
-0.064677 0.600377 0.395312
-0.048938 -0.504286 -0.702790
0.651907 -0.455138 0.050843
-0.047755 -0.459046 0.075021
0.681766 -0.121087 0.443005
-0.406653 -0.121802 0.756802
-0.406151 -0.122974 0.761301
-0.065259 0.600856 0.396850
0.682136 0.563327 -0.311761
-0.760355 -0.130177 -0.322377
-0.383609 0.189246 0.376285
0.298184 0.215443 0.416210
-0.409126 0.230900 -0.303370
-0.048468 -0.484646 0.792365
0.343686 0.593048 0.042277
-0.042473 0.233556 -0.669477
0.319541 0.615043 -0.665574
0.314356 -0.167873 -0.681045
-0.048116 -0.457996 0.077492
-0.042380 0.230767 -0.668545
-0.751881 -0.140113 0.404164
-0.760756 -0.482330 0.043811
-0.384374 0.188201 0.374935
0.317967 0.615743 -0.665639
-0.419632 -0.113205 -0.663994
0.679729 -0.120359 0.442541
-0.385655 0.189420 0.375662
-0.046672 -0.481717 0.789778
-0.382683 0.190853 0.376624
0.298648 0.215374 0.414427
0.315420 -0.167836 -0.681982
-0.406220 -0.123209 0.759970
0.343547 0.594400 0.043703
0.653197 -0.454916 0.049288
-0.420184 0.607600 0.023866
-0.410629 -0.474809 -0.292564
0.341796 0.593090 0.042996
0.704728 0.218029 0.060733
0.678784 -0.123253 0.442419
-0.759016 -0.131040 -0.324039
0.705664 0.219509 0.059037
-0.753137 -0.140279 0.406732
-0.061363 0.239800 0.764708
-0.407927 -0.472713 -0.293209
0.665196 -0.108963 -0.327422
-0.753696 -0.141533 0.404188
-0.419848 0.606254 0.024445
-0.041801 0.232339 -0.667328
-0.052350 0.603345 -0.319235
0.652095 -0.454125 0.051365
-0.064021 0.599565 0.396130
-0.410582 0.230827 -0.301520
0.683486 0.561795 -0.312886
0.650662 -0.455119 0.051666
-0.041591 0.231246 -0.669060
-0.768435 0.219991 0.025507
-0.047770 -0.504428 -0.701608
0.704423 0.217023 0.060500
-0.758679 -0.481230 0.045983
-0.759775 -0.480197 0.045442
0.653385 -0.457697 0.049226
-0.053457 0.604208 -0.322604
-0.421043 0.605566 0.024463
-0.751605 -0.140732 0.405026
0.316476 -0.170036 -0.682954
-0.059515 0.240009 0.766556
-0.047180 -0.482146 0.793137
0.316215 -0.167260 -0.682923
-0.769733 0.216349 0.025424
0.318220 0.617377 -0.666724
-0.406708 -0.123480 0.760408
-0.752689 -0.140946 0.404941
-0.406602 -0.122424 0.758857
-0.065148 0.599253 0.393483
-0.406355 -0.124612 0.758120
0.685266 0.220734 -0.694335
-0.404699 -0.121734 0.758794
-0.052962 0.605504 -0.320099
-0.420165 -0.113345 -0.663471
-0.050205 -0.502742 -0.697877
-0.406343 -0.123557 0.759832
0.341265 0.594398 0.043098
0.342437 0.593292 0.041715
0.652671 -0.457739 0.050165
0.298596 -0.479403 0.397294
-0.767225 0.216885 0.024205
0.680733 -0.124256 0.445230
-0.046768 -0.482332 0.790143
-0.043929 0.232627 -0.669344
0.343713 0.592904 0.045272
-0.759140 -0.130357 -0.323712
-0.419561 0.604195 0.024813
0.667062 -0.109599 -0.327407
0.299392 -0.480828 0.397694
0.682694 0.562849 -0.312497
-0.410049 -0.472803 -0.294677
-0.409298 0.227830 -0.300064
0.681604 -0.120022 0.440637
-0.050980 0.603234 -0.323191
0.298999 -0.117727 0.783620
0.680411 -0.122267 0.442141
-0.758457 -0.480743 0.046873
-0.395172 -0.476363 0.408623
0.300759 -0.120347 0.783406
-0.047856 -0.482334 0.791349
-0.047247 -0.459321 0.075200
0.299813 -0.479663 0.397382
-0.751387 -0.142412 0.404453
-0.760069 -0.481926 0.045451
0.300262 -0.481366 0.395786
-0.410926 0.229531 -0.299554
-0.042160 0.229950 -0.668651
-0.393518 -0.477259 0.409399
0.706195 0.217114 0.061038
-0.407125 -0.122397 0.760164
0.298695 -0.507663 -0.309409
0.682342 0.562722 -0.310636
0.301007 -0.119795 0.785093
-0.758688 -0.480414 0.045650
0.302581 -0.117285 0.785753
-0.410103 0.231225 -0.301995
-0.406920 -0.123184 0.758143
-0.060519 0.239802 0.765376
-0.767256 0.217046 0.024052
0.301662 -0.121008 0.784484
-0.406554 -0.123608 0.760097
-0.412035 0.227649 -0.301456
-0.384776 0.189828 0.376170
0.705756 0.217241 0.060961
-0.063472 0.600759 0.394544
-0.406338 -0.123305 0.761116
-0.753770 -0.141644 0.406142
0.653289 -0.455113 0.051706
-0.754055 -0.141358 0.405572
-0.392514 -0.476259 0.410859
0.686805 0.219879 -0.695057
-0.420490 0.606924 0.023985
0.319030 0.615410 -0.668382
0.343744 0.592807 0.043896
0.705603 0.218127 0.060631
0.686422 0.221542 -0.693980
-0.411149 0.229261 -0.302103
-0.409425 0.229169 -0.303621
-0.384094 0.189194 0.377224
0.667478 -0.109803 -0.328934
-0.753294 -0.142282 0.404417
0.343893 0.594856 0.044433
