OFF
256 0 0
-0.772402 -0.132831 -0.302062
0.682516 0.238310 -0.688480
0.300763 -0.127546 -0.681740
-0.774195 -0.134090 -0.300375
-0.780206 0.237281 0.063935
0.648032 -0.115463 -0.306992
0.681338 0.237489 -0.689741
-0.781174 0.237013 0.062172
-0.050725 0.605966 0.411889
0.272999 0.211351 0.385450
0.649021 -0.115568 -0.306573
0.302235 -0.126816 -0.683223
0.659428 0.574862 -0.306997
-0.049701 -0.483210 0.759619
0.689070 0.218831 0.047553
0.329701 0.596757 -0.676158
0.661027 0.574061 -0.305314
-0.409241 -0.108255 0.764828
-0.394615 -0.485728 -0.303978
-0.051513 0.607057 0.413039
0.300830 -0.126329 -0.682678
-0.384925 -0.499163 0.410741
0.671811 -0.117271 0.403036
-0.780459 0.235858 0.062310
0.658735 0.571849 -0.306223
-0.387756 0.213161 -0.268073
-0.046599 -0.507642 0.034937
0.322873 -0.506099 -0.314705
0.289017 -0.456928 0.366694
-0.762566 -0.497957 0.054697
-0.402716 0.235521 0.391561
0.322546 -0.506347 -0.312801
-0.050919 0.606264 0.412606
-0.370409 -0.119739 -0.650261
-0.393991 -0.486606 -0.302339
0.287147 -0.131375 0.760610
0.648130 -0.115264 -0.306738
0.660125 0.573638 -0.306055
-0.038503 -0.494613 -0.666304
0.301055 -0.129982 -0.684500
-0.029172 0.597879 -0.330325
-0.386858 0.217684 -0.267882
-0.040766 -0.494197 -0.667860
0.320934 -0.505585 -0.311729
-0.054263 0.238433 0.778917
-0.045574 -0.506661 0.033312
0.283362 -0.131739 0.758695
-0.371058 -0.119123 -0.648881
-0.029518 0.596775 -0.330713
0.683134 0.237732 -0.690550
0.693297 0.218715 0.045242
-0.773518 -0.132415 -0.300443
0.684730 0.238088 -0.688475
0.272325 0.210612 0.386560
0.694074 -0.474625 0.038724
0.694146 -0.473648 0.038144
-0.052302 0.604976 0.412062
-0.369518 -0.117252 -0.650339
0.321958 -0.505566 -0.313182
-0.041100 -0.495337 -0.664365
-0.046660 -0.508102 0.030884
-0.409914 -0.109876 0.767020
0.683486 0.239932 -0.689853
-0.045983 -0.510363 0.031771
-0.045985 -0.508088 0.033168
0.288301 -0.454854 0.367021
0.303198 -0.128431 -0.683751
0.321149 -0.504056 -0.314542
-0.773323 -0.133087 -0.298872
-0.027921 0.597781 -0.333603
0.328218 0.595530 0.053631
0.329259 0.595035 -0.676397
0.648181 -0.115884 -0.305188
-0.392858 -0.486352 -0.302946
-0.044754 -0.507707 0.032962
0.327179 0.596697 0.053660
0.671603 -0.118833 0.403312
0.682821 0.239527 -0.689136
0.289032 -0.455146 0.366388
-0.051762 0.603792 0.411741
0.659325 0.572825 -0.305525
0.288883 -0.456060 0.367653
0.330664 0.599323 -0.677414
0.289242 -0.456460 0.366026
-0.422234 0.587397 0.035941
0.690691 0.219846 0.046731
-0.028893 0.597597 -0.331490
0.273705 0.209751 0.387327
0.289290 -0.455442 0.364814
0.658899 0.574208 -0.305045
0.673860 -0.119059 0.404324
-0.059097 0.238621 0.779708
0.691336 0.218668 0.046801
-0.402598 0.237644 0.391646
0.284466 -0.129773 0.760864
-0.040533 0.221325 -0.678147
0.690545 0.219646 0.045340
-0.780936 0.236786 0.063568
-0.386812 0.214690 -0.269727
-0.408575 -0.108671 0.764394
0.330730 0.596771 -0.676297
-0.782002 0.234816 0.062719
-0.053136 0.604607 0.413400
-0.402524 0.234264 0.391288
-0.052978 0.606211 0.411151
0.327432 0.598175 0.052522
-0.423241 0.587965 0.037151
-0.772357 -0.134106 -0.301490
-0.395496 -0.485397 -0.305879
0.322922 -0.504307 -0.312614
-0.041130 0.221572 -0.677266
-0.384071 -0.498885 0.409529
-0.041408 0.223160 -0.679038
-0.776044 -0.115576 0.410736
-0.776437 -0.115322 0.412554
-0.776062 -0.113560 0.411905
-0.395555 -0.485438 -0.301682
0.658992 0.574092 -0.306193
0.330168 0.595286 0.054329
0.670410 -0.116314 0.403827
0.671112 -0.115695 0.403297
0.321519 -0.505676 -0.310704
-0.777593 -0.116504 0.410744
-0.388643 0.213961 -0.268688
-0.051721 -0.484228 0.758804
0.285865 -0.133488 0.759687
-0.029238 0.597847 -0.333056
0.321797 -0.503885 -0.312208
0.692330 0.219282 0.047804
-0.028266 0.598368 -0.331467
-0.027527 0.597507 -0.331514
-0.775202 -0.136817 -0.300359
0.327914 0.594863 0.053805
-0.761927 -0.497373 0.053987
0.301593 -0.127026 -0.683102
0.328267 0.595679 0.055674
-0.050235 -0.484154 0.758915
-0.040643 0.222927 -0.677830
-0.049730 -0.484247 0.758321
0.672099 -0.116508 0.404446
-0.038865 -0.493719 -0.666637
-0.050316 0.605057 0.412549
-0.407941 -0.110067 0.766554
-0.773936 -0.132928 -0.299585
0.327999 0.597225 -0.676008
0.328307 0.595344 0.052581
0.291555 -0.457091 0.365105
-0.386943 0.215176 -0.268709
-0.409252 -0.109841 0.766159
-0.407461 -0.108402 0.766212
-0.039218 -0.492405 -0.665885
0.681588 0.239524 -0.688653
-0.045673 -0.510029 0.034136
-0.371192 -0.116615 -0.649928
0.273016 0.208572 0.386063
-0.774774 -0.134820 -0.300401
-0.782815 0.235566 0.063380
-0.395704 -0.485856 -0.303509
-0.394004 -0.486826 -0.305447
-0.384809 0.215328 -0.267996
-0.776322 -0.116750 0.411454
-0.039866 0.219825 -0.679112
-0.761086 -0.499137 0.053252
-0.384519 -0.497997 0.408439
0.273126 0.209832 0.386961
-0.393126 -0.487319 -0.302861
-0.781681 0.238188 0.063246
0.661194 0.572770 -0.303194
-0.783775 0.235939 0.063122
0.671385 -0.117292 0.404063
0.321660 -0.506461 -0.313263
-0.783193 0.236314 0.063016
0.661261 0.571792 -0.303288
-0.392097 -0.483992 -0.303383
0.289571 -0.456092 0.364382
-0.050917 0.605299 0.411980
-0.052119 0.606572 0.411678
0.672754 -0.117509 0.405035
-0.423440 0.589569 0.039184
0.328097 0.595233 0.054702
-0.385298 -0.497606 0.410448
-0.422602 0.589208 0.036090
-0.764932 -0.498940 0.051870
-0.409002 -0.109586 0.765411
0.271733 0.209977 0.387327
-0.049418 -0.483393 0.759782
0.272876 0.210858 0.387837
0.671464 -0.117476 0.404671
0.284349 -0.130296 0.758912
0.321444 -0.505161 -0.311304
-0.372127 -0.117830 -0.650884
0.693536 0.219136 0.045621
-0.385681 -0.499279 0.408526
0.286494 -0.131261 0.759711
-0.401922 0.236973 0.392463
0.290444 -0.457143 0.367448
0.330389 0.595381 -0.677001
-0.052601 0.607235 0.412278
0.273484 0.210743 0.386960
-0.772538 -0.133023 -0.299757
0.301359 -0.128554 -0.683191
-0.422493 0.589828 0.037776
-0.029127 0.596330 -0.330933
-0.050364 0.606637 0.412159
0.328670 0.597240 -0.676407
-0.777467 -0.116100 0.410037
0.273289 0.208802 0.386978
0.682878 0.238285 -0.689291
0.646773 -0.115683 -0.307462
-0.772440 -0.130151 -0.301626
0.683948 0.238103 -0.689344
-0.774906 -0.133717 -0.299855
-0.421944 0.590572 0.037908
0.288531 -0.457088 0.365430
0.285273 -0.132074 0.760646
-0.393912 -0.486376 -0.303357
-0.408795 -0.109920 0.765853
-0.763110 -0.499500 0.055701
-0.424878 0.588980 0.037436
-0.775041 -0.113846 0.413263
-0.027079 0.596300 -0.331097
0.648850 -0.115642 -0.304836
-0.777313 -0.115406 0.411590
-0.037271 -0.495645 -0.667318
-0.045665 -0.507450 0.032891
-0.763750 -0.498517 0.052286
0.329730 0.596402 -0.676777
0.694274 -0.476044 0.037646
-0.053782 0.239176 0.778827
-0.424182 0.589044 0.037240
-0.782899 0.236309 0.060856
-0.408149 -0.111018 0.766481
-0.028588 0.599386 -0.331760
-0.783465 0.236344 0.063550
0.286524 -0.131070 0.759016
0.323552 -0.505483 -0.312080
-0.037428 -0.494738 -0.668267
0.327971 0.595879 0.051082
0.661258 0.573487 -0.304623
0.692876 -0.473460 0.039749
-0.402876 0.233585 0.391822
-0.385891 0.214710 -0.267404
0.690913 0.217332 0.046993
-0.052291 0.606866 0.412044
-0.424707 0.589547 0.037688
-0.421819 0.587352 0.038994
-0.762322 -0.499659 0.053465
-0.394562 -0.485636 -0.303160
-0.423886 0.587624 0.036577
-0.423089 0.589313 0.037879
-0.029179 0.597683 -0.331425
0.691699 0.219409 0.045812
-0.407886 -0.107421 0.766719
-0.041744 0.220771 -0.678662
0.681285 0.238192 -0.691216
-0.783094 0.237425 0.063213
