OFF
256 0 0
0.660948 -0.036886 -0.508386
0.300460 -0.771858 -0.149291
-0.412804 -0.048451 0.595518
0.349940 0.677930 0.612346
-0.811147 -0.449593 -0.127280
-0.075242 -0.811546 -0.515369
0.697814 -0.043519 0.263023
-0.048056 0.684790 -0.497057
-0.042110 -0.041782 -0.466896
0.316555 -0.415446 -0.511667
-0.074572 -0.811266 -0.516180
0.698011 -0.041103 0.264564
0.313410 -0.053104 0.635859
-0.419033 -0.426057 -0.494619
-0.075557 -0.811320 -0.514995
0.701372 0.329976 0.618793
0.685868 0.315558 -0.127870
-0.023064 0.318520 0.606655
0.701472 0.329432 0.617320
0.316786 -0.414458 -0.513825
0.318210 0.688864 -0.124973
0.319789 -0.406489 0.225027
0.699979 -0.042224 0.264449
-0.414590 -0.048503 0.595828
-0.419585 0.699315 -0.119662
-0.048467 0.709471 0.238421
-0.055998 -0.779751 0.222048
-0.402945 -0.789384 -0.120724
-0.047032 0.682009 -0.498540
-0.420710 0.698802 -0.121773
-0.807254 -0.448650 -0.126563
-0.403870 0.311448 -0.460608
0.320028 -0.405395 0.224566
-0.402353 -0.789119 -0.119409
0.662373 -0.036037 -0.509154
0.317473 -0.416283 -0.512153
-0.801142 0.303770 -0.136520
-0.413569 -0.048916 0.596807
0.671239 -0.396131 -0.132728
-0.400947 0.310711 0.238176
0.690791 0.689597 0.226681
0.312307 -0.053702 0.634850
0.311390 -0.053226 0.636272
-0.373460 -0.373828 0.178146
-0.023037 0.320372 0.604992
-0.419494 -0.426064 -0.492583
-0.372016 -0.376077 0.181108
-0.411648 -0.048648 0.595379
-0.412117 -0.048319 0.594917
-0.799382 0.303967 -0.137021
0.303273 -0.768998 -0.150955
0.701583 0.328569 0.618579
-0.022713 0.321720 0.604884
-0.042687 -0.044066 -0.467146
-0.403445 -0.789612 -0.121161
-0.773212 -0.065644 -0.477759
-0.074114 -0.812620 -0.514117
-0.076208 -0.811014 -0.514495
-0.775169 -0.066926 -0.479000
0.350201 0.680161 0.614340
0.668987 -0.393968 -0.134498
-0.402730 -0.789948 -0.120375
0.697663 -0.040642 0.263419
-0.046374 0.684170 -0.497668
0.311617 -0.052904 0.635208
0.698375 -0.042552 0.264664
-0.401983 0.309029 -0.461665
0.318047 -0.415132 -0.513298
-0.055523 -0.779069 0.221032
-0.419842 -0.425785 -0.494475
0.303523 -0.770784 -0.150264
0.302323 -0.768582 -0.150334
-0.062402 -0.385189 0.571951
-0.046957 0.683852 -0.497618
-0.418226 0.699413 -0.122712
-0.414180 -0.046654 0.595370
-0.403728 0.311454 -0.462339
-0.762782 -0.065459 0.226006
0.350702 0.677917 0.612096
0.698706 -0.041572 0.265138
0.690711 0.686084 0.227143
0.349787 0.678327 0.611904
-0.765877 -0.062902 0.228004
0.689928 0.687206 0.227068
-0.402080 -0.790822 -0.120612
-0.774336 -0.066158 -0.476664
-0.063862 -0.385745 0.571910
0.321302 -0.405858 0.224602
0.690522 0.685553 0.226687
-0.418189 0.698914 -0.120498
-0.042149 -0.043701 -0.467527
0.700782 -0.040477 0.265212
-0.800992 0.303160 -0.134970
-0.041671 -0.042937 -0.464084
-0.020462 0.318687 0.605719
-0.063449 -0.384152 0.572335
-0.042757 -0.043531 -0.465978
-0.041244 -0.042556 -0.464610
-0.401878 0.309137 0.238228
0.351457 0.677253 0.611461
-0.403850 -0.790034 -0.119362
0.699388 -0.040912 0.264001
0.311174 -0.053346 0.634775
-0.420575 -0.425668 -0.493721
-0.404516 0.310726 -0.460519
-0.043078 -0.042125 -0.466224
0.310880 -0.054462 0.636109
-0.808936 -0.448033 -0.127906
0.322473 -0.403349 0.224144
-0.044687 -0.043591 -0.465712
-0.063314 -0.385812 0.572732
0.300812 -0.768992 -0.150389
-0.047008 0.711832 0.239725
-0.774132 -0.065575 -0.475858
0.699011 -0.040047 0.262454
-0.046578 0.682209 -0.497659
0.301751 -0.770307 -0.150987
-0.048337 0.711284 0.239007
-0.403428 0.310763 -0.460497
0.670721 -0.393119 -0.132480
-0.062436 -0.384318 0.572246
-0.401583 -0.790457 -0.119809
-0.370388 -0.374887 0.180264
0.316353 0.688089 -0.124499
-0.412662 -0.048597 0.593166
-0.774993 -0.065348 -0.478097
0.697896 0.327705 0.618845
-0.399503 0.309011 0.239790
-0.045926 0.684126 -0.496479
-0.765139 -0.065866 0.224561
-0.022344 0.320300 0.606094
-0.799417 0.301866 -0.139442
0.316313 0.687066 -0.125476
-0.762741 -0.064796 0.226413
-0.417605 0.697926 -0.122241
-0.401364 -0.790788 -0.119357
0.687342 0.688235 0.227342
-0.041025 -0.044496 -0.468397
-0.775602 -0.065041 -0.477707
-0.799880 0.304298 -0.137426
-0.046633 0.683291 -0.497314
0.700200 0.329780 0.618653
-0.402345 -0.789286 -0.119952
-0.774942 -0.065490 -0.476589
-0.809722 -0.450394 -0.127050
-0.042009 -0.042491 -0.467095
-0.371199 -0.376555 0.178383
0.318135 0.688605 -0.126317
0.301606 -0.770486 -0.150211
-0.774044 -0.065220 -0.476695
0.686869 0.314467 -0.127852
0.302153 -0.771358 -0.150756
-0.054324 -0.777937 0.219465
0.699912 -0.041228 0.263979
-0.774877 -0.065899 -0.477641
-0.043248 -0.042429 -0.465867
0.700727 0.329936 0.619267
0.701279 0.329129 0.619005
0.349266 0.680300 0.612417
-0.022768 0.321304 0.605876
-0.041407 -0.041977 -0.465544
-0.041454 -0.044242 -0.464372
-0.045955 0.684200 -0.497293
-0.048332 0.682863 -0.495916
-0.043234 -0.043106 -0.468491
0.660548 -0.036944 -0.508552
-0.054377 -0.778707 0.222399
-0.040528 -0.042801 -0.468188
-0.063895 -0.384605 0.572191
0.685174 0.315782 -0.126793
-0.419489 0.699421 -0.119061
0.698045 -0.042341 0.264094
0.320458 -0.404703 0.223711
-0.413250 -0.049180 0.595233
-0.420158 -0.424800 -0.492306
-0.799781 0.304183 -0.136046
0.305441 0.320131 -0.485732
0.670455 -0.395823 -0.133350
0.685832 0.316300 -0.129393
-0.048919 0.710639 0.237269
-0.075665 -0.810939 -0.517652
-0.400514 0.311067 0.238279
-0.054295 -0.779270 0.221774
-0.809627 -0.448994 -0.127009
-0.412954 -0.048897 0.593654
-0.418636 -0.425988 -0.492638
0.663272 -0.036420 -0.509228
0.302489 0.319997 -0.482833
0.661830 -0.036834 -0.509375
-0.402974 0.311543 -0.460506
-0.402755 -0.789161 -0.120996
0.686096 0.315745 -0.128052
0.662043 -0.035206 -0.509776
-0.042036 -0.042217 -0.467309
0.685692 0.315089 -0.127546
0.316899 -0.415866 -0.512070
0.670353 -0.396034 -0.133218
0.316527 0.686719 -0.124700
-0.765649 -0.064604 0.226355
-0.411832 -0.050723 0.593918
-0.372105 -0.375566 0.179246
-0.763348 -0.066200 0.226714
0.350509 0.679619 0.611710
-0.774800 -0.065991 -0.478549
-0.401213 0.307747 0.239567
-0.417727 0.699201 -0.120933
-0.403967 0.310554 -0.459916
0.698711 -0.040984 0.264731
-0.419046 0.698281 -0.119698
0.321552 -0.405784 0.223968
0.664086 -0.036467 -0.508430
0.303676 0.319418 -0.484622
-0.800979 0.302356 -0.137131
-0.074288 -0.810675 -0.513989
0.691184 0.688410 0.228589
-0.043903 -0.042281 -0.465921
0.670036 -0.395207 -0.133389
-0.022895 0.321102 0.605067
-0.404287 -0.789542 -0.118774
0.315854 0.687438 -0.125582
-0.418505 0.699716 -0.121677
-0.774007 -0.066636 -0.477717
-0.400464 -0.789946 -0.119059
-0.401147 0.310741 0.237269
0.302034 0.320140 -0.486490
-0.404040 0.310993 -0.459749
-0.045193 0.681942 -0.497704
0.699561 -0.041474 0.263588
0.689111 0.686183 0.227971
-0.402185 0.309289 0.239070
0.303174 0.319631 -0.484647
0.315801 -0.415939 -0.511482
0.318190 -0.414063 -0.513228
0.311341 -0.055148 0.633901
-0.063718 -0.386796 0.571369
0.672226 -0.393801 -0.132895
-0.420400 -0.424508 -0.492966
0.300834 -0.771430 -0.148943
-0.372494 -0.374119 0.178235
-0.810240 -0.450022 -0.129345
0.317066 -0.414648 -0.514163
-0.417242 -0.427019 -0.492990
-0.047914 0.710532 0.240068
0.661532 -0.035260 -0.509588
-0.799613 0.303770 -0.137380
-0.763536 -0.064506 0.226244
-0.372803 -0.375920 0.178927
-0.774345 -0.065363 -0.477306
-0.808229 -0.449739 -0.127362
0.311883 -0.055378 0.635907
0.302118 -0.769948 -0.151279
-0.420117 0.700133 -0.121409
0.300541 -0.771749 -0.149753
0.303422 0.321874 -0.484146
0.684757 0.315776 -0.127354
0.304571 0.320686 -0.484168
