OFF
256 0 0
-0.364242 0.534879 0.278069
0.368223 -0.200276 -0.457305
-0.736659 0.535648 -0.089878
0.000791 0.535623 -0.088877
0.737117 0.169546 0.279084
0.735896 -0.200434 -0.090089
0.734851 -0.199161 -0.092891
0.735348 -0.199876 -0.089710
0.735920 0.167936 0.279898
0.368935 0.536800 -0.458756
-0.000472 -0.199290 0.646629
-0.366385 0.534764 0.278720
-0.368061 0.534958 0.279882
0.735315 0.167356 -0.457352
-0.735955 -0.199186 -0.088169
0.735927 -0.568733 0.278833
0.367718 -0.570047 0.646047
0.001270 -0.568271 -0.456410
-0.000035 -0.568428 0.277510
-0.735833 0.535546 -0.087183
-0.001156 -0.199437 0.645166
0.736222 -0.199450 0.646499
0.735594 -0.201096 -0.090907
0.368534 0.166767 0.645390
0.369169 -0.569621 0.644971
-0.001055 0.535374 -0.824141
-0.367656 0.167317 0.646925
0.369796 0.165367 -0.825684
0.367522 0.166425 0.646900
0.367157 0.166753 0.647217
-0.366775 -0.569800 0.646424
-0.738395 -0.568631 0.278552
0.001956 0.532731 0.648769
-0.367518 0.535178 -0.457519
0.735996 -0.202331 -0.090557
0.736937 -0.569461 0.279097
-0.369024 -0.568187 -0.089208
-0.368687 0.165929 -0.824372
-0.368673 0.533610 -0.457131
0.000581 -0.567391 -0.458186
-0.737231 -0.201373 0.648494
0.367210 -0.568410 0.647410
-0.368801 -0.568435 -0.085627
0.736077 -0.200737 -0.090194
-0.366626 -0.568351 0.646680
-0.366271 0.167793 0.645677
-0.366259 -0.201317 -0.457309
-0.000736 -0.570149 0.278928
-0.367567 -0.201214 -0.457575
0.000772 0.534077 0.648247
-0.734956 0.164980 -0.459114
-0.736497 -0.199132 -0.088292
-0.368465 -0.200547 -0.457505
-0.736051 -0.203259 -0.089374
0.368673 0.534057 -0.455072
0.369155 0.535282 -0.457819
0.367859 0.536144 -0.457415
-0.000291 0.532950 -0.088801
-0.367394 0.536037 0.277861
0.368935 -0.199935 -0.457289
0.736342 0.169024 -0.458162
0.368589 0.167120 0.647266
0.736721 0.534853 -0.089714
0.000277 -0.566745 0.277806
0.000486 -0.568604 0.277436
0.734512 0.165982 0.278667
-0.365390 0.534608 -0.456884
-0.365921 0.167484 -0.826600
0.734526 0.168833 0.279986
0.366652 0.534540 0.278532
0.370052 -0.200605 -0.457271
0.000838 -0.568826 0.280976
0.736024 -0.201911 -0.088390
0.736778 0.166132 -0.456774
0.735845 0.168123 -0.457290
0.736224 0.535197 -0.089535
0.367403 0.534498 -0.456408
-0.736211 0.167952 -0.456771
0.735370 -0.570327 0.278662
-0.369335 0.167625 0.646933
0.734762 -0.568555 0.277909
-0.367186 0.535787 -0.456690
-0.737354 -0.200470 -0.089779
0.367848 -0.568807 0.646215
0.734597 -0.200582 0.647055
-0.000420 -0.200552 0.647393
0.735372 0.535812 -0.088639
0.369809 0.167440 0.646443
0.736558 0.168120 -0.457717
-0.368656 0.168283 0.646917
-0.736250 0.535383 -0.088309
-0.368081 -0.569604 0.647723
0.368381 -0.197893 -0.455669
0.367436 0.534771 -0.455609
0.737356 0.167966 0.278594
0.000312 -0.201180 0.647696
0.734329 0.167240 -0.457783
-0.001920 0.534595 -0.825033
-0.735892 -0.202586 -0.088394
-0.000001 -0.199637 -0.823539
0.368841 0.167617 -0.826117
0.735909 0.535254 -0.088491
0.000936 0.533940 -0.089881
0.368093 0.534638 -0.457338
0.000881 0.536585 -0.090192
-0.366347 -0.567932 0.647642
0.367173 0.165865 0.646231
-0.736518 0.535428 -0.090222
0.366305 -0.568640 -0.089753
-0.736549 0.166763 0.278720
0.368687 0.534620 -0.459496
0.368920 -0.199393 -0.458976
-0.369155 0.166682 0.647020
0.368773 0.168366 0.646494
0.368286 0.167987 -0.823841
0.369518 0.535386 -0.457885
0.367692 -0.201464 -0.457718
-0.734748 0.167840 -0.457938
0.000422 -0.570834 0.278819
-0.368978 0.534070 -0.457776
-0.367848 0.166704 -0.825080
-0.000521 0.535761 -0.089030
0.734682 0.166821 -0.457007
0.734563 0.166319 0.279857
-0.367048 0.165341 0.646256
-0.735372 -0.200221 -0.090090
0.738528 -0.201577 -0.089300
0.734562 -0.202305 -0.090525
0.001381 -0.567047 0.277588
-0.367310 0.534592 0.279634
-0.735953 0.168944 0.278436
-0.736628 -0.201655 0.645609
-0.368840 0.167681 -0.825632
0.736148 0.166045 -0.458813
0.369850 -0.569432 0.646167
0.367161 0.535496 0.279110
-0.000945 -0.569278 0.278261
0.734516 0.167649 0.278495
0.367736 0.536238 0.279217
0.735799 -0.201274 -0.090131
0.736562 0.534023 -0.088474
-0.737310 0.167407 0.278701
-0.365743 0.536381 -0.456220
0.001409 -0.200907 0.647087
-0.735863 -0.200764 0.645606
0.735892 0.536182 -0.088952
-0.368238 -0.566746 0.646970
-0.735623 0.167336 0.275906
-0.367078 -0.199880 -0.457143
-0.735094 0.167438 -0.456785
0.734715 0.166713 0.279238
-0.369531 0.166448 0.647592
0.001138 0.535273 -0.089312
0.368240 -0.568065 0.646139
-0.366137 -0.198661 -0.457223
-0.735077 0.166132 0.277588
-0.368772 -0.568389 -0.087353
0.735623 0.166414 0.277523
-0.736104 -0.201167 0.647052
-0.367582 0.533754 -0.458127
-0.000071 0.536276 -0.088462
0.367278 0.167842 0.646470
-0.368667 -0.568905 0.644695
0.000368 -0.200672 -0.825482
-0.736863 0.535871 -0.088503
-0.368138 -0.201830 -0.458389
0.369524 0.168802 0.647604
0.737031 0.536268 -0.088091
-0.368952 0.167941 -0.824845
-0.365340 -0.201380 -0.457505
0.735362 0.532224 -0.088896
-0.368488 0.165018 -0.825039
0.735610 0.536617 -0.090612
0.367388 -0.566932 -0.091429
-0.368681 0.167752 -0.826270
0.000101 -0.567690 0.278348
0.366678 0.166452 0.648891
-0.367418 0.535845 0.277656
-0.737129 0.534644 -0.088704
0.369166 0.534949 0.277529
-0.367075 0.167628 -0.826150
-0.368731 0.166903 -0.825155
0.369982 0.535514 0.278584
0.367372 -0.200518 -0.458332
0.367274 -0.569221 0.647031
-0.736025 0.535345 -0.088344
0.736511 0.167579 0.277384
-0.736487 0.165581 -0.454172
0.369423 -0.568344 0.646330
-0.368504 0.534431 0.276886
-0.000561 0.535110 0.645999
-0.735976 0.168470 0.278184
0.736384 0.533434 -0.089974
0.369015 0.535019 -0.456098
-0.368258 -0.200725 -0.456767
0.734160 -0.567980 0.279906
-0.738871 -0.567553 0.278359
-0.368093 0.534934 -0.457960
-0.000347 -0.568470 0.279873
-0.000173 -0.201470 0.646499
0.001043 -0.569419 0.278797
-0.367483 -0.567705 -0.088633
0.000672 0.534260 0.646228
-0.366544 -0.198999 -0.457723
0.366223 -0.568091 0.646605
-0.368214 0.168124 0.648334
-0.735120 -0.203086 -0.088598
-0.000975 -0.200667 -0.824636
-0.736163 0.535802 -0.089491
-0.367672 0.167078 0.645107
-0.000771 0.534252 -0.089999
0.366364 -0.199624 -0.458267
0.368384 0.535222 -0.455284
-0.368102 0.536018 0.280384
0.736265 0.166406 -0.455502
0.368283 -0.570822 0.648902
0.000540 -0.199717 0.645445
-0.368883 -0.566899 -0.088305
0.001122 -0.200044 -0.825454
-0.368114 0.533848 -0.457410
-0.734250 -0.200503 0.646127
0.369331 -0.570006 -0.088007
0.735102 -0.568475 0.277785
-0.735532 0.168443 0.280002
-0.000149 -0.199281 0.646671
-0.001329 0.534938 -0.824228
0.366149 -0.567939 0.647469
-0.000664 0.533161 -0.088095
0.000672 -0.202372 0.647482
-0.368517 -0.570044 -0.088118
-0.368341 0.537509 0.279006
-0.366727 0.165516 0.645981
0.368841 0.534339 0.278405
-0.735244 0.534363 -0.091261
-0.000933 0.534487 0.646485
0.000496 -0.199840 0.646537
-0.367712 -0.568970 -0.087675
0.000422 -0.567509 0.278265
-0.735488 0.167509 -0.459336
-0.368755 -0.200521 -0.457196
0.368084 -0.568778 0.646781
-0.735978 0.535093 -0.088300
0.735464 -0.201604 0.645836
0.736292 -0.199792 -0.089732
0.000964 -0.567096 0.278425
-0.368285 -0.569630 0.647633
0.368835 -0.570705 -0.087109
-0.368306 0.534712 -0.457653
-0.368984 0.166448 -0.826044
-0.000142 0.536926 -0.823664
-0.000602 -0.568790 -0.457000
-0.001558 -0.568543 0.279398
-0.368615 -0.569114 -0.087767
0.736157 0.167651 -0.457431
0.367599 -0.201135 -0.456546
0.367191 -0.199924 -0.457392
