OFF
256 0 0
-0.315875 0.585570 -0.674704
-0.673725 0.567399 -0.324185
0.412834 0.584239 0.046414
0.752810 -0.471628 0.074439
0.769569 -0.134005 -0.314778
0.757830 -0.109931 0.404030
-0.671003 -0.121978 0.401354
-0.673515 0.235008 -0.699202
-0.666407 -0.130076 -0.338109
0.413338 0.232638 0.409489
0.413954 0.583911 0.045393
0.753852 -0.471780 0.071918
0.036415 -0.475957 0.046260
0.753852 -0.471941 0.072849
-0.334148 0.552293 0.035463
0.759598 -0.111825 0.405657
0.045808 -0.477582 0.764067
-0.316001 0.584579 -0.675521
-0.312576 -0.467691 0.396582
0.413031 -0.138929 0.773885
-0.673947 0.566116 -0.323753
0.755824 0.229285 0.043309
0.414359 0.582634 0.047274
0.044128 0.578690 0.400562
-0.305152 0.235530 0.406230
0.757842 -0.110770 0.405624
0.403522 0.219695 -0.300836
-0.316503 0.586056 -0.675531
-0.662340 -0.456287 0.050537
-0.674199 0.233717 -0.699852
-0.670140 -0.122146 0.401541
-0.674377 0.233138 -0.699384
-0.332821 0.552821 0.039486
0.753113 0.227757 0.043869
0.421991 -0.138528 -0.673413
-0.307546 -0.143986 0.773950
0.402109 0.220555 -0.301830
-0.324243 -0.475564 -0.295605
-0.306484 0.233829 0.406918
0.403608 0.221260 -0.300551
0.754232 0.228736 0.041216
-0.305382 -0.143157 0.773851
0.413164 0.229887 0.408604
-0.671700 -0.122027 0.401192
0.046941 0.578619 0.401588
-0.671765 -0.122390 0.401102
-0.305649 -0.144064 0.772776
-0.671608 -0.122754 0.400802
-0.675266 0.564820 -0.327440
0.046774 -0.479120 0.762945
0.046636 0.579997 0.399943
0.070591 0.229993 -0.675022
-0.671629 0.565900 -0.326016
0.029678 -0.484492 -0.665128
-0.333499 0.553439 0.038816
-0.326274 -0.475345 -0.292854
0.045190 -0.479812 0.763006
0.414187 -0.140431 0.772194
0.071116 0.230511 -0.676453
0.769384 -0.133335 -0.314805
0.037218 -0.475047 0.049134
0.412654 0.229600 0.408181
0.758542 -0.111365 0.404593
0.768610 -0.133767 -0.315166
-0.662512 -0.455188 0.049535
0.044618 -0.482248 0.762409
-0.671656 -0.121406 0.400951
-0.673377 0.566409 -0.323744
-0.292345 -0.100618 -0.692121
0.755747 0.228853 0.040728
-0.690907 0.230609 0.045787
0.414368 -0.138721 0.774137
-0.314560 -0.467233 0.396903
-0.671206 -0.121829 0.400411
-0.316322 0.584567 -0.673029
-0.313997 -0.468693 0.398632
0.046585 0.580544 0.403001
-0.667346 -0.128616 -0.338560
-0.334145 0.552732 0.038867
-0.675161 0.233393 -0.700344
-0.315389 -0.469300 0.398259
0.030647 -0.484065 -0.667060
0.421111 -0.138654 -0.674420
0.392103 -0.469689 0.419539
-0.317252 0.583943 -0.674844
0.047625 0.576950 0.399722
0.754108 -0.472910 0.074447
-0.673452 0.567071 -0.323770
-0.304169 -0.142746 0.771054
0.406636 -0.469962 -0.301050
-0.664915 -0.129373 -0.339014
-0.668288 -0.121008 0.403039
0.769919 -0.134385 -0.313247
0.071336 0.231895 -0.674767
0.046619 0.578073 0.400318
-0.673428 0.566685 -0.324640
0.411610 0.583088 0.046444
-0.672666 -0.122335 0.401085
0.046980 -0.478599 0.762450
0.045535 -0.480613 0.761765
-0.675346 0.232079 -0.699333
0.421536 -0.139448 -0.671718
0.414294 0.228414 0.407424
0.752207 -0.472249 0.073239
0.414686 -0.138822 0.773617
-0.315152 0.585321 -0.675278
-0.664635 -0.129381 -0.339139
0.406358 -0.471893 -0.301706
0.047064 0.577444 0.402180
0.036392 -0.475914 0.049273
-0.333426 0.552209 0.038073
0.048238 0.577919 0.399185
0.414442 -0.140341 0.773252
0.390570 -0.469412 0.419431
-0.662446 -0.456177 0.050064
0.069542 0.230419 -0.674205
0.770560 -0.133844 -0.315002
0.406281 -0.471783 -0.300532
-0.307066 0.234793 0.407067
0.423358 -0.139628 -0.673494
0.757742 -0.110737 0.405157
0.756149 0.226361 0.041600
0.757803 -0.111642 0.406544
-0.665859 -0.129594 -0.337761
-0.323437 -0.476000 -0.294208
0.046293 0.578438 0.401904
-0.665168 -0.129870 -0.339392
-0.333307 0.552554 0.037597
-0.332353 0.552119 0.040231
-0.304113 -0.144198 0.774287
0.413182 0.229926 0.408598
-0.692273 0.233137 0.044428
0.047568 0.579202 0.401534
0.415037 -0.140999 0.773484
0.415411 -0.139354 0.773535
0.414245 0.229826 0.408659
-0.690026 0.233887 0.044117
0.768587 -0.132659 -0.314372
0.068780 0.588924 -0.313117
-0.661078 -0.457973 0.050915
-0.673125 0.564948 -0.326134
-0.325966 -0.474888 -0.293365
-0.665504 -0.128954 -0.338187
-0.663230 -0.457458 0.050443
0.406905 -0.470061 -0.301200
0.072113 0.228610 -0.674069
-0.290603 -0.100661 -0.690382
-0.305498 -0.143576 0.772531
0.413633 0.580530 0.047377
-0.333544 0.553181 0.037932
0.413703 0.582571 0.046030
-0.316790 0.584231 -0.673383
0.033530 0.211936 0.777188
-0.666412 -0.129836 -0.341182
-0.305258 0.234957 0.406467
-0.305543 0.233971 0.405125
0.031332 -0.486550 -0.666456
0.769575 -0.133923 -0.314801
-0.665189 -0.129913 -0.338389
0.404630 0.219875 -0.301384
0.072525 0.230463 -0.674558
-0.671792 -0.121708 0.401940
-0.670288 -0.122606 0.401396
0.048024 0.578137 0.401351
0.412033 0.229013 0.407346
0.036804 -0.477469 0.047233
0.046122 0.578929 0.401755
-0.306925 0.236132 0.404702
0.422480 -0.138331 -0.672427
0.067579 0.590561 -0.313357
0.413915 -0.139052 0.771731
-0.324751 -0.475869 -0.293090
0.412316 0.582855 0.046389
0.754982 0.228041 0.042084
0.413489 0.582521 0.047306
0.412516 0.582587 0.047458
0.752159 -0.472220 0.072795
0.402148 0.219350 -0.300209
-0.689697 0.232805 0.045507
-0.667010 -0.129216 -0.338779
-0.692422 0.232237 0.045467
0.412405 0.229326 0.410316
0.045897 0.579620 0.401208
0.046589 -0.479383 0.763948
0.070946 0.229637 -0.674146
0.752516 -0.470917 0.073791
-0.315722 0.585737 -0.674308
-0.323346 -0.474110 -0.295781
-0.316090 0.585289 -0.674889
0.032099 -0.484302 -0.665883
-0.675863 0.231559 -0.699635
0.769445 -0.135298 -0.314235
0.771386 -0.136607 -0.314938
0.038443 -0.476016 0.048672
0.390903 -0.468985 0.420230
-0.674255 0.234359 -0.701091
-0.674820 0.234003 -0.700039
0.414891 -0.139554 0.771525
0.036581 -0.476585 0.049292
0.036718 -0.477159 0.048595
0.401451 0.221451 -0.302026
0.414000 0.582198 0.048062
0.390291 -0.469300 0.419281
0.048005 -0.479203 0.764860
-0.292805 -0.100871 -0.691571
-0.664061 -0.457339 0.050282
-0.673687 0.566426 -0.325345
-0.291874 -0.102574 -0.691687
0.030500 -0.484518 -0.664340
-0.663095 -0.457574 0.049563
0.071170 0.229440 -0.674587
0.414794 -0.137396 0.773832
0.030781 -0.483731 -0.667938
-0.667295 -0.129292 -0.340290
0.403357 0.219493 -0.301644
-0.662782 -0.457696 0.050434
0.045924 -0.479605 0.763321
0.031743 0.212554 0.775861
-0.292489 -0.100986 -0.692686
0.412569 0.228978 0.408433
0.405069 -0.471364 -0.299440
0.393410 -0.467376 0.418735
0.032142 0.212533 0.774799
0.755653 0.227470 0.043077
-0.306341 -0.143041 0.771107
-0.304762 0.233796 0.405798
0.045347 0.578798 0.400123
0.402257 0.219713 -0.301576
0.415406 -0.138369 0.770756
0.037252 -0.475904 0.047763
0.768849 -0.133011 -0.313979
-0.332086 0.552478 0.039322
-0.692346 0.231451 0.044538
0.755168 0.226201 0.043415
0.412231 0.583803 0.045888
-0.672627 0.565970 -0.324263
-0.692118 0.230851 0.045812
-0.317657 0.586137 -0.674408
0.411215 0.581147 0.047679
-0.664747 -0.130272 -0.337391
-0.292068 -0.102544 -0.690791
-0.333349 0.552665 0.040776
0.037991 -0.477039 0.049303
-0.323449 -0.473848 -0.294107
0.768800 -0.134921 -0.315266
0.413842 -0.138749 0.773930
0.044658 -0.480798 0.765272
0.068841 0.589761 -0.313077
-0.315203 0.584048 -0.673571
0.412917 0.227713 0.408722
0.030320 -0.485576 -0.668015
-0.664805 -0.129859 -0.340398
0.031923 -0.484919 -0.666855
-0.673917 0.565560 -0.324385
0.769221 -0.134871 -0.315003
0.037031 -0.475925 0.047778
