OFF
256 0 0
-0.676948 -0.121571 0.407072
0.774918 -0.475395 0.074198
-0.296638 0.602071 0.023367
0.769610 -0.119245 -0.302843
0.062883 -0.478580 0.772348
-0.311716 -0.474438 0.416136
0.384901 0.210568 -0.293010
0.048558 0.601288 0.382328
-0.676737 0.598846 -0.323353
-0.694328 0.221157 -0.686005
0.787973 -0.127365 0.437863
-0.294726 0.602342 0.024400
-0.677670 0.599930 -0.323378
-0.694158 0.220130 -0.683656
0.762713 0.239927 0.055590
-0.685627 -0.163090 -0.324842
0.058902 0.591345 -0.311881
-0.305765 -0.118343 0.768368
-0.686461 -0.162006 -0.325207
-0.325916 0.601044 -0.662446
-0.323980 0.601924 -0.662140
-0.676649 0.597391 -0.323641
0.404670 -0.113674 0.799749
-0.656956 0.214165 0.030396
-0.684417 -0.162265 -0.325054
0.387576 -0.483105 0.400661
0.044052 0.219900 -0.674368
-0.719285 -0.502337 0.037358
0.433066 0.599678 0.038332
0.389130 -0.482511 0.399612
0.043294 -0.481336 0.032381
0.058156 0.592016 -0.309344
0.762728 0.238320 0.054368
-0.326860 -0.513089 -0.330725
-0.295048 0.601940 0.023836
0.393661 0.213590 0.394992
0.058533 0.591851 -0.309422
-0.695149 0.219897 -0.684071
0.060206 -0.478518 0.772068
-0.675408 -0.121690 0.410178
-0.295949 0.604824 0.024328
-0.720894 -0.499755 0.037066
0.387536 -0.482994 0.401044
0.043703 -0.481993 0.032511
-0.315702 0.218666 0.403919
-0.306527 -0.116582 0.769792
-0.657638 0.214718 0.033059
-0.295681 0.602974 0.024330
0.788021 -0.126493 0.435305
0.048659 0.599574 0.382002
0.057123 -0.478860 -0.691199
0.434649 0.598812 0.039711
0.407369 -0.114826 0.800565
0.404739 -0.115015 0.798327
-0.307959 -0.117111 0.769840
0.764945 0.237921 0.054143
-0.656984 0.214037 0.032305
-0.693848 0.220997 -0.684075
0.043390 -0.481245 0.031684
0.045253 0.217481 -0.672531
0.396477 -0.115042 -0.667178
-0.312973 -0.474228 0.417346
0.427370 -0.490315 -0.304426
0.760883 0.240000 0.054011
0.059165 0.590604 -0.311723
-0.312449 -0.474043 0.418662
0.404417 -0.114686 0.800293
0.770410 -0.120694 -0.301796
0.393372 0.214618 0.396060
-0.324449 -0.513601 -0.329625
-0.295588 0.602769 0.024748
0.428382 -0.489874 -0.304777
0.050164 0.603007 0.381387
0.388134 0.210416 -0.294073
0.388935 -0.481965 0.399818
0.403893 -0.115977 0.800676
0.385693 0.212013 -0.293519
0.060535 0.590481 -0.309136
-0.306037 -0.117552 0.767310
0.434285 0.598985 0.038923
0.406363 -0.114155 0.798925
0.386869 0.211259 -0.295979
-0.303504 -0.135532 -0.675834
-0.313309 -0.475024 0.417958
0.045455 0.220640 -0.674758
-0.302201 -0.135493 -0.676162
-0.674357 -0.120324 0.409467
0.788321 -0.127379 0.435128
0.049048 0.600142 0.382704
0.043526 0.218065 -0.676505
0.056223 -0.478854 -0.691121
-0.720816 -0.500662 0.036404
-0.719714 -0.502834 0.038478
-0.686414 -0.162068 -0.322777
0.775725 -0.476272 0.074113
0.431168 -0.489046 -0.304534
0.386920 0.209248 -0.294538
-0.323947 -0.512476 -0.330585
0.768775 -0.118720 -0.301112
0.041538 -0.482246 0.030300
0.057699 -0.478849 -0.690795
-0.303707 -0.117795 0.768853
0.428878 -0.490887 -0.304632
0.053396 0.253960 0.766575
0.433425 0.599168 0.038611
-0.297624 0.601126 0.023136
0.761533 0.236881 0.054332
0.388103 -0.481921 0.399356
-0.675969 -0.121874 0.410717
0.048871 0.602695 0.379750
0.433618 0.598915 0.038582
0.770653 -0.120122 -0.303091
-0.325875 -0.513354 -0.331070
-0.676447 -0.121927 0.407962
-0.314406 -0.474682 0.416647
0.775700 -0.474250 0.073450
0.764240 0.236903 0.054191
0.403667 -0.115177 0.800581
0.043049 -0.482482 0.031670
0.058404 0.590898 -0.311288
-0.316685 0.219958 0.407053
0.396608 -0.116404 -0.666525
0.769812 -0.119235 -0.302852
0.402771 -0.114897 0.799406
0.046568 0.601264 0.381315
0.770637 -0.120748 -0.299750
0.052885 0.255583 0.764202
0.432135 0.599301 0.039080
-0.684670 -0.162464 -0.324711
0.788878 -0.124738 0.435848
0.051330 0.256177 0.766808
-0.656086 0.213506 0.031839
0.058983 0.592168 -0.309035
0.403708 -0.115811 0.799953
0.771642 -0.120142 -0.301583
0.046591 0.219031 -0.673605
-0.695346 0.221822 -0.683816
-0.304539 -0.135457 -0.676259
0.432177 0.597970 0.039365
0.405363 -0.114383 0.799760
0.397936 -0.115668 -0.663842
-0.295432 0.603630 0.024309
-0.314896 0.218944 0.406186
-0.675404 -0.118665 0.407732
0.058648 -0.479985 -0.691247
0.054230 0.254353 0.764737
-0.314364 -0.473752 0.416793
0.432687 0.598146 0.038368
-0.316966 0.218817 0.405897
-0.314632 -0.476483 0.416330
-0.656823 0.215731 0.032314
0.387034 -0.484125 0.397574
0.052905 0.254455 0.765913
-0.313247 -0.476700 0.417817
-0.315725 0.218551 0.404410
-0.684250 -0.163307 -0.324403
0.434667 0.600207 0.038382
0.052210 0.253485 0.765164
0.058852 -0.478041 0.770675
0.771085 -0.119448 -0.302163
-0.675089 -0.123596 0.407451
0.788565 -0.129368 0.436476
0.395613 0.214344 0.395726
0.773697 -0.474756 0.072332
-0.685184 -0.160701 -0.324328
-0.303037 -0.135223 -0.676714
-0.685834 -0.165440 -0.323904
-0.677608 0.598694 -0.326521
0.044729 0.217579 -0.672920
0.788447 -0.124386 0.436607
0.043569 -0.484172 0.033699
0.059342 0.591117 -0.310109
0.387155 -0.481321 0.400513
-0.656762 0.215690 0.034983
0.775740 -0.475643 0.074217
-0.720765 -0.501694 0.037406
0.789176 -0.125583 0.435729
0.386954 0.210555 -0.294502
-0.306706 -0.118082 0.768228
-0.314019 -0.474292 0.417687
0.771023 -0.119707 -0.299901
-0.676888 -0.120410 0.408187
-0.677755 0.597489 -0.325223
0.770937 -0.120476 -0.303164
0.049928 0.602560 0.384407
-0.325763 -0.511814 -0.329068
0.430437 -0.489785 -0.303811
-0.685220 -0.162367 -0.325435
-0.302736 -0.136672 -0.675449
-0.684218 -0.162863 -0.323434
-0.684837 -0.159281 -0.323640
0.056080 -0.477980 -0.691065
0.400691 -0.115580 -0.668387
0.052580 0.255075 0.765201
0.429481 -0.490421 -0.302423
0.056851 -0.478427 -0.692349
-0.685454 -0.162974 -0.327584
-0.655776 0.215009 0.032391
-0.722016 -0.502747 0.037442
0.057162 -0.478634 -0.689806
-0.296502 0.601465 0.025268
0.432033 0.598890 0.037283
0.058230 -0.478460 -0.690183
-0.694165 0.219988 -0.685515
-0.676241 -0.120458 0.409573
0.397033 -0.113709 -0.666125
0.059639 0.591312 -0.309669
-0.302489 -0.136090 -0.676398
0.042227 -0.482608 0.033104
-0.693541 0.219415 -0.684995
-0.685997 -0.160006 -0.324120
0.405231 -0.113457 0.801077
-0.324320 -0.512492 -0.332254
0.044116 0.215739 -0.675028
0.042041 -0.483624 0.032843
-0.306482 -0.116726 0.768732
0.060218 0.591077 -0.309862
0.043403 -0.483004 0.032101
0.432836 0.599915 0.037547
0.058831 0.591275 -0.308203
-0.325156 0.600573 -0.663302
0.764606 0.239246 0.055650
-0.296828 0.602745 0.023299
-0.313265 -0.474727 0.418483
-0.314202 -0.475574 0.416989
0.788046 -0.126608 0.437826
0.057709 0.591051 -0.310536
0.404827 -0.113899 0.799885
-0.324905 -0.512577 -0.330396
0.042829 -0.483970 0.034263
0.385893 0.210853 -0.292001
0.765120 0.238794 0.055446
0.774568 -0.475207 0.073330
0.044795 0.219786 -0.673880
0.433592 0.599006 0.037297
-0.313050 -0.473922 0.419214
-0.327519 -0.512784 -0.331564
0.059156 -0.478627 -0.692482
0.384992 0.210654 -0.291840
-0.295615 0.603424 0.022500
-0.295414 0.602529 0.024337
0.432707 0.599122 0.038693
-0.307158 -0.115963 0.768676
0.788321 -0.126795 0.435444
-0.324692 0.601372 -0.663696
0.049239 0.600627 0.381737
-0.296871 0.602398 0.022425
0.042868 0.218884 -0.673525
-0.675580 0.597457 -0.324313
-0.307008 -0.117466 0.770060
-0.695862 0.220605 -0.685645
-0.323162 0.601730 -0.661610
-0.656557 0.214760 0.031521
0.386733 0.211146 -0.294372
0.052519 0.253942 0.764706
0.429251 -0.491056 -0.304385
