OFF
256 0 0
0.586860 -0.196182 -0.785294
-0.587814 0.195877 -0.785832
0.195689 0.587177 -0.391596
0.587290 -0.194808 0.783508
-0.588426 0.585834 0.392915
0.195831 -0.587956 -0.784661
0.196427 -0.587812 0.785640
-0.196707 0.588183 -0.782956
0.196353 -0.588978 -0.000137
-0.589645 -0.588435 -0.000920
-0.195998 -0.196245 -0.784340
-0.588056 0.197631 0.784781
0.197065 0.588138 -0.392577
0.588950 -0.197767 -0.785034
-0.197181 -0.590115 0.393826
-0.588032 -0.196706 -0.391656
0.589101 0.194092 -0.392635
-0.590008 0.195986 0.000231
-0.589419 -0.590334 -0.000849
0.586954 -0.588158 -0.390157
-0.195099 0.588872 -0.000002
-0.197251 -0.588911 -0.391858
-0.587691 0.587152 -0.390110
0.195106 -0.586888 -0.784510
0.588253 0.196460 -0.391757
0.588072 0.194655 -0.393425
0.587742 -0.587320 0.393595
-0.587080 0.588789 0.390992
-0.196062 -0.195441 0.783954
0.589443 -0.195500 0.784562
-0.194717 0.587660 0.782528
0.196048 -0.588671 -0.784503
0.588067 -0.195381 0.001366
0.194974 -0.588496 0.001946
-0.588267 -0.194802 0.392059
-0.586252 -0.588573 -0.000003
0.196190 0.196023 -0.783429
-0.196127 -0.588761 0.391383
0.586193 -0.587709 -0.391515
0.195510 -0.588487 0.784821
0.194789 0.588844 -0.390007
-0.587634 0.195373 0.785273
-0.587806 0.197478 0.785207
0.195916 -0.587290 -0.784937
0.588482 0.195374 -0.390150
-0.590043 0.195109 0.786031
0.197330 0.196920 0.784792
0.198084 -0.588843 0.000885
0.587903 -0.588354 0.392962
-0.197030 0.587920 -0.784316
0.196645 0.588066 0.392067
-0.589652 0.587778 -0.391536
-0.588076 0.196098 0.001439
0.195481 -0.587899 0.785486
0.196898 0.196259 -0.784399
-0.587987 0.589364 -0.391124
0.197314 0.196151 -0.783634
0.196246 -0.588882 -0.784934
-0.588607 0.195400 0.784683
-0.194027 -0.588242 -0.392928
-0.586388 0.196891 -0.785932
-0.587986 0.196377 0.001356
0.194225 0.588028 -0.393421
0.587505 0.197796 -0.392856
-0.196320 -0.194866 -0.784099
0.586637 -0.587460 -0.393062
-0.588644 -0.194782 -0.393269
-0.587875 -0.196328 -0.391105
0.195776 -0.588846 -0.784252
0.585447 0.194830 0.391805
-0.588417 0.195400 -0.786232
-0.194373 0.588357 -0.785429
-0.587488 0.588582 -0.392994
-0.588550 0.589493 0.394005
0.195414 -0.589551 -0.783795
-0.196034 -0.587217 -0.393716
0.588639 -0.588484 -0.391458
-0.590215 -0.195569 0.394002
-0.196394 0.589913 -0.785065
0.588393 -0.589943 -0.391034
-0.587999 -0.194923 -0.391703
0.590562 0.588158 0.000679
0.587970 -0.588683 0.392125
-0.194781 -0.197244 -0.784382
-0.589093 -0.195381 -0.391560
0.586983 -0.589626 0.392318
0.588091 0.588535 0.001683
0.590241 -0.196214 0.783477
0.588425 -0.195170 0.000403
0.196502 -0.588667 0.784791
0.587496 0.196166 0.390142
0.587638 -0.195558 -0.000550
0.588787 0.198968 0.392204
0.587204 -0.194401 0.784979
0.587923 0.196526 -0.390430
0.586048 0.589171 0.000866
0.587224 -0.587038 -0.391961
-0.196044 -0.196528 0.784743
0.197619 0.195510 -0.784462
0.198229 -0.586888 0.783664
0.194713 0.195329 -0.785434
-0.587902 0.196779 -0.783802
0.588428 0.588523 0.001175
-0.587379 -0.196516 -0.392277
-0.195481 -0.194503 -0.783709
0.587573 -0.196940 -0.000711
-0.588282 0.587230 -0.391153
0.587967 0.587569 0.000717
0.589068 -0.197098 -0.787603
0.588264 -0.588522 0.392246
0.196005 0.197055 -0.783892
0.587881 -0.197362 0.000590
-0.588241 -0.196133 0.391547
-0.197380 0.587428 -0.782657
-0.196644 -0.194310 -0.785468
-0.195848 -0.195281 -0.784981
-0.589093 -0.195101 -0.392227
-0.586006 -0.197431 -0.390847
-0.194861 -0.196580 -0.784905
0.589760 -0.588812 -0.391824
-0.196396 -0.588047 -0.392109
-0.588537 0.196931 0.783252
-0.195022 -0.587779 0.393295
0.194887 0.586824 0.393001
0.196914 -0.587223 0.783759
0.587558 -0.194793 -0.782934
-0.588088 0.195917 -0.783205
-0.195871 -0.587941 -0.391857
0.587996 -0.195326 -0.001696
-0.195090 -0.193624 0.782435
-0.588962 0.196507 -0.784721
0.197144 0.196374 0.782715
-0.590088 -0.196915 -0.391149
-0.194891 0.588230 -0.002176
0.194085 0.590751 -0.392690
0.588982 0.196500 -0.392253
-0.197259 0.589974 0.785900
-0.588072 0.194489 -0.784139
0.588865 0.587343 -0.000153
-0.195661 0.588511 -0.783687
0.590411 -0.197363 -0.785130
-0.195131 -0.589337 0.392371
0.586511 0.196587 0.390074
-0.196448 0.591179 0.784359
0.196374 -0.589024 0.784759
-0.589265 0.588443 -0.393172
0.197124 -0.588919 0.000782
0.196193 -0.589529 0.783882
-0.590283 0.587707 0.391729
0.589503 -0.194878 0.000430
0.586951 0.587809 0.000924
0.196099 -0.589129 -0.782461
-0.587138 0.195683 -0.783816
0.587925 -0.197038 0.785051
-0.196344 0.589553 -0.001537
0.197241 0.197002 0.784946
0.196640 0.588416 -0.390937
-0.588446 -0.588423 0.000392
-0.588253 -0.586275 0.000160
-0.588841 -0.198239 0.393227
0.587696 -0.588318 0.392575
0.587354 -0.195491 -0.783627
-0.589085 -0.195046 -0.391966
0.589104 0.589130 0.000736
0.195383 0.587925 0.393809
-0.195293 0.586566 0.784394
-0.588973 0.589823 0.393682
-0.196948 -0.195301 -0.784283
-0.195384 0.590293 0.000908
0.194317 0.196520 0.785825
0.588487 -0.196880 0.783328
0.588909 -0.197052 0.000572
0.196395 0.195765 -0.785348
0.197026 0.587025 -0.391096
0.195576 0.196847 0.784860
0.587943 -0.196253 0.000500
-0.197385 -0.195629 -0.784437
-0.194966 -0.587656 0.392100
-0.195546 0.588019 0.783721
0.588501 -0.587952 0.392113
-0.196701 -0.587683 0.391877
-0.196190 0.587603 -0.785013
-0.195744 -0.587524 0.391548
-0.195821 0.589911 -0.001173
-0.197077 0.589530 0.000747
-0.585424 0.198140 0.784057
-0.195658 0.587467 0.784298
-0.197085 -0.587994 -0.391051
0.589749 0.588119 0.000625
0.198005 0.588604 -0.390213
0.587814 -0.590106 0.392550
-0.589334 0.195847 -0.000689
-0.588801 0.196402 -0.000541
0.587909 -0.588194 0.392283
0.589688 -0.197542 0.783784
0.195758 0.195307 -0.782096
0.194772 0.197560 -0.784473
0.589746 -0.196476 0.784298
0.197530 -0.588416 0.784403
-0.198552 -0.588841 -0.391703
-0.198838 -0.588987 0.391260
-0.195733 -0.193396 0.784416
-0.195073 0.585134 -0.000758
-0.588285 -0.587979 -0.000497
-0.588731 -0.197406 -0.393018
0.587934 -0.195311 -0.000431
-0.588012 -0.195259 0.391092
-0.196062 -0.588572 -0.392700
0.587147 -0.196373 0.001335
0.589920 -0.195265 0.785003
0.587203 -0.198328 0.001311
-0.195226 0.588986 0.000512
-0.588369 0.195545 -0.784680
0.194176 -0.587330 -0.000334
-0.195169 -0.196214 -0.786113
-0.588789 0.195655 0.001302
-0.195298 -0.587237 0.391469
0.194967 0.589215 -0.391972
0.196836 0.590131 0.392304
-0.197820 -0.588097 -0.392959
0.196032 0.588378 0.392305
0.588915 0.197571 -0.392241
0.197611 -0.589555 0.000780
0.588490 -0.196260 0.000400
0.196771 0.197589 0.783759
0.196918 -0.587722 0.000798
-0.588193 -0.591263 -0.000199
0.589159 0.196507 0.393297
-0.196003 -0.587385 0.392147
0.198480 -0.586811 -0.000033
0.588675 -0.589508 0.392710
0.194896 0.589307 -0.392780
0.196099 0.196539 -0.783619
0.590492 0.591271 0.000119
-0.591616 0.195884 0.784719
-0.194451 -0.195865 0.783011
-0.196281 0.588181 0.784344
-0.194667 -0.588375 -0.393403
0.194783 0.587902 -0.392161
0.196287 0.196007 -0.784397
-0.588554 0.588154 0.390225
-0.586478 -0.196300 -0.392212
0.198183 -0.589575 0.785573
-0.197360 0.587152 0.000793
-0.197089 0.589503 0.001348
0.195059 0.197203 -0.785149
-0.196940 -0.194119 0.783001
0.196484 -0.587336 0.000772
0.587530 -0.195969 -0.000603
-0.588358 0.196001 0.000564
0.587596 0.196207 -0.393757
0.196360 -0.590147 0.000772
-0.196246 0.590615 0.784318
0.196893 0.195294 -0.784455
-0.587303 0.198408 -0.784102
0.590079 -0.588334 -0.392204
