OFF
256 0 0
-0.550132 -0.171460 0.370515
0.185583 0.197067 0.772459
0.181303 0.561796 -0.367756
0.186582 0.195753 0.773422
-0.563430 -0.593258 -0.007302
-0.554530 0.191691 -0.740727
-0.562963 -0.594458 -0.009613
0.573494 -0.184858 0.027001
-0.194429 0.562098 0.011431
-0.558505 -0.219497 -0.382076
0.179979 -0.583157 0.756506
0.534701 -0.185069 -0.770597
-0.218066 -0.543723 0.354427
-0.191660 0.563268 -0.767060
-0.184196 -0.575333 -0.394677
-0.172983 -0.182131 -0.752758
0.573688 -0.187398 0.027884
-0.564016 -0.592106 -0.005900
-0.580790 0.184013 0.774114
-0.560054 -0.220004 -0.381314
-0.181372 -0.574056 -0.394841
0.585044 -0.198547 0.786710
-0.578323 0.581580 -0.385281
-0.548681 -0.171210 0.370086
0.190787 0.215978 -0.773675
-0.547488 0.556123 0.369768
-0.564918 -0.592901 -0.007207
0.532007 -0.546658 -0.385450
-0.216998 -0.543882 0.356177
0.573792 0.560189 -0.010801
-0.558700 -0.219191 -0.379308
-0.174960 -0.180907 -0.751292
-0.545869 0.555344 0.369636
-0.553575 0.192824 -0.740773
-0.216461 -0.546265 0.354433
-0.543344 0.556004 0.369598
-0.582051 0.184507 0.772024
-0.183799 -0.573767 -0.396914
-0.572234 0.187995 -0.010504
0.193260 -0.571354 0.008777
0.573136 -0.185713 0.031089
-0.553508 0.191071 -0.740362
-0.190188 -0.180224 0.767579
0.186488 0.195842 0.773485
0.180483 -0.584475 0.756357
0.534172 -0.184833 -0.773211
0.191270 0.216914 -0.772568
0.182164 0.563314 -0.368209
-0.581815 0.182963 0.771140
-0.551957 0.190942 -0.741373
-0.581277 0.184845 0.772995
0.566257 -0.546122 0.396685
0.182393 -0.585220 0.756184
-0.558957 -0.219254 -0.380294
-0.545980 0.555665 0.367582
0.565665 -0.546120 0.395262
0.567318 -0.546328 0.396920
0.531569 -0.546450 -0.387260
-0.545462 0.556952 0.368046
-0.564998 -0.592356 -0.008292
0.231859 0.571287 0.380968
0.587065 -0.198082 0.786297
-0.546930 0.556018 0.368150
-0.548712 -0.170737 0.370497
-0.583187 0.182862 0.772477
0.574062 -0.184796 0.027148
-0.577273 0.580592 -0.384967
-0.573947 0.187004 -0.008737
0.572328 0.558890 -0.010621
-0.545582 0.554973 0.370532
0.185018 0.196994 0.773802
0.229685 0.571745 0.377984
-0.573195 0.186856 -0.008857
-0.564049 -0.590990 -0.009414
-0.191681 0.561757 0.009924
0.192300 -0.569639 0.010793
-0.571538 0.189649 -0.008819
-0.192413 -0.179302 0.765012
-0.554536 0.190956 -0.741597
0.185297 0.195989 0.772302
-0.581657 0.183552 0.770648
0.179657 -0.582564 0.756819
0.184896 0.198351 0.774282
0.565747 0.192748 0.399448
0.191154 0.216253 -0.772936
0.181121 -0.585073 0.756444
0.570883 0.556835 -0.012874
0.190610 -0.579359 -0.791486
0.531829 -0.544536 -0.384388
0.567475 -0.545211 0.395805
0.566183 0.191632 0.399683
-0.557202 -0.217935 -0.380555
0.185663 0.194979 0.773531
0.182174 0.563109 -0.369227
-0.552599 0.191843 -0.740503
-0.193614 0.561645 0.011793
0.573176 -0.185237 0.029280
-0.557609 -0.218545 -0.380009
0.533504 -0.186302 -0.772338
0.535152 -0.185749 -0.771592
0.562081 0.174957 -0.381049
0.532658 -0.545784 -0.387002
-0.547085 0.556279 0.368012
0.190692 0.213470 -0.773391
-0.180224 -0.574145 -0.396189
-0.547602 0.554900 0.368763
-0.191993 0.563103 0.010823
-0.191679 0.565863 -0.768444
0.561444 0.174417 -0.381318
0.183677 0.195345 0.772666
0.585836 -0.197118 0.786408
0.566132 -0.546618 0.395835
0.564473 0.191335 0.398622
-0.193731 0.562804 0.010716
-0.189771 0.567815 -0.767229
0.178439 -0.584034 0.755606
-0.216299 -0.544799 0.355081
-0.553856 0.191097 -0.740318
0.185127 0.195917 0.773667
0.185974 0.197289 0.773317
-0.582675 0.182062 0.772272
0.566139 0.192930 0.399403
0.589478 -0.197789 0.783201
0.574400 0.558038 -0.012865
0.564718 0.192025 0.398383
0.190581 0.215038 -0.774096
0.180206 -0.584086 0.757076
-0.193061 0.563036 0.010040
-0.184329 -0.575162 -0.394794
-0.193430 0.563501 0.011221
-0.195921 0.558042 0.744770
0.531982 -0.544040 -0.382858
-0.193126 -0.179044 0.765570
0.231440 0.570793 0.379106
0.533400 -0.184498 -0.771120
-0.553186 0.189985 -0.740118
0.573586 -0.185836 0.028121
0.192270 0.215455 -0.771639
-0.174869 -0.181523 -0.751289
-0.191108 0.564557 -0.767039
-0.193619 0.561442 0.012659
-0.573148 0.186653 -0.009962
-0.578577 0.581723 -0.383853
-0.562576 -0.592863 -0.008248
-0.577649 0.580554 -0.384092
-0.577508 0.581821 -0.383505
-0.181926 -0.573638 -0.394903
0.230191 0.571319 0.381716
-0.548996 -0.172882 0.371459
0.588976 -0.198524 0.785211
-0.191796 -0.177847 0.763558
-0.192796 0.567235 -0.768070
0.180324 -0.582463 0.756907
-0.193114 -0.179041 0.765540
-0.216792 -0.545353 0.355210
0.535257 -0.186570 -0.772343
0.561967 0.174364 -0.379666
-0.192999 0.565449 -0.767187
-0.577968 0.581751 -0.386553
0.586790 -0.198942 0.783687
-0.549350 -0.169725 0.371992
0.573083 -0.185367 0.028759
0.194439 -0.572416 0.009415
-0.559780 -0.218804 -0.380882
0.178450 -0.583955 0.756848
-0.546221 0.556028 0.369525
-0.554142 0.190537 -0.738818
0.564437 -0.544828 0.395702
0.181760 0.562774 -0.369363
-0.577061 0.583255 -0.383199
0.529835 -0.544580 -0.384817
0.573519 0.560844 -0.010486
-0.572581 0.188241 -0.009473
0.190973 -0.579242 -0.792493
-0.558717 -0.219959 -0.380499
0.559216 0.175131 -0.381084
0.191602 0.215952 -0.773281
0.185539 0.196056 0.774722
0.190801 0.217633 -0.771659
-0.193167 0.561161 0.013402
0.564681 0.192830 0.397261
-0.183495 -0.575098 -0.396393
0.560832 0.174581 -0.382380
0.568637 0.190621 0.398415
0.190793 0.217391 -0.772901
0.573184 -0.185429 0.027373
0.564822 0.191809 0.397541
0.182840 0.563285 -0.368202
0.561812 0.174111 -0.380307
-0.173855 -0.181450 -0.753310
-0.564966 -0.590021 -0.006651
0.190822 -0.578908 -0.792340
-0.191305 0.562090 0.011340
-0.581150 0.183998 0.773348
0.191477 -0.569691 0.010514
-0.191186 0.564341 0.011041
0.181229 0.563809 -0.369035
-0.551379 -0.172229 0.370823
-0.575915 0.581601 -0.385086
-0.181592 -0.575163 -0.396457
-0.582397 0.182448 0.772795
0.566259 -0.546602 0.398079
0.531489 -0.547103 -0.384849
-0.576578 0.582218 -0.383212
-0.182051 -0.574353 -0.394084
0.184656 0.195003 0.773053
-0.182436 -0.575592 -0.395964
0.586017 -0.197991 0.785667
0.529377 -0.546141 -0.385154
-0.182264 -0.574654 -0.396334
-0.181037 -0.576196 -0.394850
-0.174861 -0.180946 -0.751610
0.565630 0.192247 0.399563
-0.189654 0.566189 -0.767327
-0.581451 0.182661 0.772970
-0.545890 0.556213 0.368736
0.574189 0.557899 -0.010720
-0.180848 -0.574524 -0.395205
0.190868 0.216861 -0.773178
0.191275 -0.571396 0.011392
0.586264 -0.197456 0.784852
-0.554106 0.190253 -0.741183
0.182140 0.562777 -0.368372
0.567323 -0.547679 0.396068
-0.552319 0.189523 -0.741637
0.190928 0.216889 -0.774094
-0.188965 -0.178873 0.765209
0.192426 -0.578970 -0.790187
0.535417 -0.183764 -0.772451
-0.191528 -0.179152 0.766361
-0.192766 0.563140 0.011647
-0.577730 0.582683 -0.384867
0.190171 0.216229 -0.771466
0.567363 0.191877 0.398211
-0.576928 0.581126 -0.383687
-0.576814 0.582816 -0.385400
0.566898 -0.546391 0.396795
0.192329 -0.577507 -0.791070
-0.550434 -0.170375 0.370566
-0.194301 0.563012 0.013233
-0.550060 -0.168686 0.370257
0.573970 0.557970 -0.011789
-0.578319 0.581824 -0.385440
-0.546036 0.557597 0.366262
0.186035 0.194900 0.773329
0.189094 -0.579327 -0.792838
0.182002 0.562081 -0.369620
-0.581684 0.183101 0.771760
0.572100 0.559594 -0.012770
-0.183034 -0.573794 -0.395533
0.573268 0.560387 -0.012569
-0.214099 -0.543641 0.356303
0.563051 0.174715 -0.380670
-0.571338 0.185867 -0.008194
-0.173597 -0.182231 -0.752595
-0.557731 -0.218277 -0.379583
