OFF
256 0 0
-0.191445 0.604520 0.774330
-0.192289 0.591857 -0.005089
-0.566604 0.205104 0.767769
-0.192754 -0.576017 0.375244
-0.192016 0.589051 -0.004333
-0.572944 0.619414 0.392947
0.188693 0.567891 0.385115
-0.560929 0.579293 -0.408896
-0.212094 -0.184832 -0.792433
-0.202156 -0.575402 -0.389731
0.571287 0.166279 -0.379763
-0.566996 -0.167667 0.391108
0.557047 -0.561854 -0.385259
0.612399 -0.226088 0.026609
0.576667 -0.196893 -0.766718
0.186984 0.568928 0.383533
-0.201161 -0.574605 -0.389009
0.185251 -0.590834 -0.000314
0.578397 -0.606601 0.384164
0.574410 -0.199209 -0.766725
-0.200486 -0.573446 -0.386636
0.579412 0.195673 0.396877
0.573838 -0.200205 -0.768715
-0.566476 0.203335 0.766273
0.577339 -0.607540 0.383601
-0.571491 0.197067 0.011262
0.555770 -0.561367 -0.384634
0.614178 -0.225420 0.025960
0.187457 -0.587317 0.000459
-0.178235 0.565611 -0.749643
-0.200810 -0.574565 -0.389496
0.188628 0.565158 0.384166
-0.571640 0.198111 0.011211
-0.194832 -0.577129 0.375702
0.561005 -0.191728 0.759671
0.612101 -0.225010 0.026086
-0.179339 0.566482 -0.750567
-0.583296 -0.573244 -0.012884
0.165858 0.186853 0.776153
0.194606 0.187726 -0.797245
-0.196016 -0.201278 0.791472
-0.193943 0.590833 -0.005583
-0.560552 0.581629 -0.407989
-0.192859 0.588923 -0.005185
-0.568676 0.192667 -0.784385
0.559945 -0.193978 0.758429
-0.572032 -0.176472 -0.387028
0.557907 -0.562513 -0.385851
0.192921 0.558312 -0.388648
-0.566011 -0.169037 0.389812
0.189528 0.565709 0.382902
0.194141 0.187689 -0.798665
-0.210378 -0.184074 -0.790715
-0.193259 0.590829 -0.004253
0.555715 -0.561365 -0.383449
-0.582543 -0.572021 -0.011506
0.576753 0.196961 0.396657
-0.178163 0.565591 -0.749210
-0.210765 -0.187406 -0.792196
-0.581627 -0.573490 -0.011213
-0.200670 -0.576277 -0.388499
-0.571101 0.619711 0.393263
0.193662 -0.561672 -0.744123
0.556951 -0.560723 -0.385654
-0.571196 -0.175126 -0.385246
-0.567508 -0.168247 0.390320
0.576874 -0.199481 -0.768569
-0.178748 0.564771 -0.750811
0.192080 -0.562050 -0.743627
0.574230 -0.198943 -0.768433
0.195289 0.186933 -0.797396
0.572826 0.165389 -0.382719
0.191752 -0.562126 -0.742911
-0.568962 0.193641 -0.785114
-0.191073 0.591465 -0.003432
0.187622 0.565634 0.384901
0.576677 0.197179 0.397494
-0.572847 0.198905 0.012258
0.167064 0.187212 0.776903
-0.572466 0.617464 0.392690
0.182931 -0.603862 0.760785
0.574562 0.165825 -0.380851
-0.192764 0.590304 -0.004805
-0.571634 -0.175029 -0.385662
0.555820 -0.559220 -0.386913
-0.561228 0.580778 -0.407576
-0.178238 0.565659 -0.749905
-0.192601 -0.576962 0.375392
-0.561662 0.582342 -0.410024
0.167476 0.185610 0.774909
-0.196634 -0.201216 0.793005
0.559929 -0.194128 0.755894
0.192254 -0.561436 -0.742429
-0.191800 0.590452 -0.003313
0.165381 0.184947 0.777198
-0.563551 0.580429 -0.406919
-0.571273 0.617308 0.393318
0.577794 -0.606906 0.383310
0.180643 -0.604051 0.763328
0.187064 -0.590298 -0.000225
-0.561793 0.581379 -0.407522
0.613311 -0.224023 0.024559
-0.566874 0.205947 0.767467
0.574527 -0.198186 -0.768970
-0.569369 0.192142 -0.784645
-0.201371 -0.574832 -0.388161
-0.192025 0.591503 -0.005956
-0.194399 -0.575659 0.374924
-0.193241 -0.575184 0.375772
0.590149 0.575374 -0.002302
-0.211314 -0.185763 -0.791696
-0.582951 -0.572931 -0.011539
0.590995 0.577521 -0.004270
-0.178477 0.565496 -0.750360
0.562913 -0.192699 0.757135
0.192511 -0.562412 -0.742199
-0.563534 0.582068 -0.407514
0.560241 -0.194915 0.757472
0.591240 0.577560 -0.000739
-0.571789 -0.176693 -0.386118
0.165396 0.189735 0.775977
0.579270 -0.609617 0.382642
0.555507 -0.561090 -0.385835
0.573407 0.164713 -0.381483
0.191090 -0.562867 -0.741412
0.557076 -0.559363 -0.386287
0.574689 -0.197157 -0.767090
-0.568422 0.191142 -0.785857
-0.195289 0.590411 -0.004165
0.561368 -0.193914 0.756990
-0.179551 0.565317 -0.751330
0.181943 -0.602899 0.762565
0.561747 -0.192937 0.757784
0.192673 -0.561389 -0.743634
0.575982 -0.200374 -0.769716
-0.572781 0.620439 0.392087
-0.568970 0.192650 -0.784723
0.576782 0.196497 0.398981
0.576593 -0.606781 0.381757
0.186213 -0.587333 -0.001001
0.186075 -0.588003 -0.000040
-0.581897 -0.574485 -0.011549
-0.583240 -0.573955 -0.011759
-0.191390 0.602383 0.775625
0.572571 0.166437 -0.382443
0.561615 -0.194833 0.757248
0.556758 -0.561472 -0.386339
0.191834 -0.561727 -0.741117
-0.209254 -0.184164 -0.791471
0.557914 -0.560835 -0.385853
-0.177110 0.566335 -0.749932
-0.195673 -0.200922 0.791417
-0.574217 0.618170 0.392856
0.589426 0.575208 -0.003793
0.574814 -0.198533 -0.768429
-0.198271 -0.200155 0.792287
0.165368 0.188641 0.776880
0.186586 -0.589110 -0.000566
-0.200888 -0.574904 -0.388830
-0.572472 -0.174787 -0.385699
0.190281 -0.562256 -0.741376
0.576923 -0.607047 0.382620
-0.567816 -0.166628 0.389097
-0.572470 0.620476 0.393272
-0.568041 -0.168111 0.390603
0.186678 -0.590376 0.000493
0.181842 -0.602523 0.765205
0.558343 -0.561649 -0.385995
-0.211764 -0.185397 -0.789959
-0.195241 -0.577555 0.375732
-0.201312 -0.577907 -0.388536
-0.211970 -0.185204 -0.792697
-0.197169 -0.200373 0.791369
0.192938 0.560263 -0.390462
0.165655 0.186388 0.776267
-0.192155 0.589097 -0.004992
0.591497 0.574612 -0.003148
-0.572325 0.197991 0.013202
-0.189736 0.604517 0.773506
-0.563635 0.580506 -0.411346
0.573603 -0.200729 -0.767178
0.191050 0.189497 -0.796923
0.193545 0.559294 -0.390106
0.182161 -0.604070 0.762926
0.556581 -0.561462 -0.386254
-0.192156 0.591116 -0.003428
-0.190609 0.589913 -0.004891
0.192702 -0.561632 -0.742471
-0.196748 -0.203647 0.792439
-0.572653 0.620286 0.393738
-0.197177 -0.200331 0.791987
0.193220 0.559126 -0.391960
-0.198564 -0.201864 0.793803
-0.580349 -0.573152 -0.010306
-0.210658 -0.184620 -0.789546
0.164948 0.184551 0.773306
-0.210319 -0.185254 -0.792059
-0.196129 -0.200821 0.790420
-0.572200 0.196333 0.012806
0.189462 0.566206 0.386426
-0.193975 -0.578327 0.376396
0.190133 -0.560686 -0.742433
-0.567043 0.202420 0.768676
0.590140 0.575982 -0.003348
0.187077 -0.589082 0.001280
-0.191365 0.602480 0.773203
-0.568504 0.192651 -0.787333
-0.581969 -0.572816 -0.012482
-0.573122 -0.173686 -0.385011
-0.202873 -0.573557 -0.389040
-0.190416 0.591158 -0.005122
-0.572116 0.198415 0.010629
0.193023 0.187566 -0.797805
0.614737 -0.223881 0.025206
-0.196601 -0.200901 0.791785
-0.571495 -0.174271 -0.387313
-0.568650 0.192868 -0.785523
-0.178108 0.562588 -0.751255
-0.192303 0.604513 0.773430
-0.571960 0.620110 0.393146
-0.177763 0.567794 -0.752443
-0.570068 0.193001 -0.784822
-0.179297 0.567293 -0.749857
-0.574202 0.197868 0.012894
0.189288 0.566621 0.383784
0.187022 -0.589722 0.002328
0.186321 -0.588996 0.002713
-0.192566 0.604201 0.774118
-0.571027 0.618388 0.392943
-0.567566 -0.166682 0.389762
-0.583314 -0.574588 -0.012374
-0.198576 -0.201317 0.792720
0.188895 0.570142 0.385588
0.185960 -0.587937 -0.002193
0.190203 0.567339 0.385898
0.190183 0.567559 0.383708
-0.191089 0.602533 0.775020
-0.191593 0.591153 -0.004305
-0.566188 0.204064 0.767172
0.575172 -0.198956 -0.768431
-0.194304 -0.576101 0.376431
-0.572453 0.619934 0.393117
-0.192156 0.603829 0.775278
0.591257 0.576565 -0.003753
0.562799 -0.192912 0.757186
-0.200060 -0.575902 -0.389311
0.560437 -0.193661 0.756512
0.589260 0.576811 -0.002503
-0.177218 0.566598 -0.751465
-0.572857 0.198520 0.011367
0.166619 0.188588 0.776143
-0.565200 0.203219 0.766438
0.558692 -0.560830 -0.386328
0.187179 -0.588582 0.001678
-0.191789 0.590601 -0.005785
0.613675 -0.225419 0.025640
