OFF
256 0 0
-0.000040 0.540330 -0.664163
-0.774418 0.152092 -0.304623
-0.773310 0.151334 -0.304377
0.005710 -0.206523 -0.632709
-0.008608 -0.555595 0.475050
0.361961 0.166463 0.853666
0.743809 -0.212997 -0.632045
-0.391739 -0.571811 0.096396
-0.754636 -0.559974 -0.261335
-0.726445 0.500298 0.079816
0.720566 -0.184695 0.064949
0.751587 0.173740 0.455750
0.773981 0.156084 -0.298977
-0.004073 0.534324 0.836550
-0.375419 0.161802 0.845319
0.363617 0.165690 0.852323
0.716823 -0.187116 0.063746
-0.007627 -0.551374 0.474775
-0.359391 0.166851 -0.654701
-0.021189 -0.576487 -0.273164
0.719747 -0.186478 0.065168
0.752731 -0.583257 -0.265844
-0.744679 -0.164658 0.078763
0.710776 0.528697 0.072758
0.752836 0.173053 0.457216
0.366710 -0.178314 0.454132
0.745552 -0.213555 -0.631765
0.712319 0.529172 0.072273
0.004744 -0.204594 -0.629810
0.007814 -0.210092 0.827287
0.712903 0.529472 0.073682
-0.000357 0.540045 -0.663224
-0.391824 -0.572180 0.097340
-0.391129 -0.569720 0.097247
-0.752492 0.185756 0.459096
-0.753970 -0.559057 -0.260688
-0.360387 0.165946 -0.655913
0.717322 -0.185469 0.064176
0.359502 -0.562976 0.123254
0.775206 0.156990 -0.299227
0.384942 -0.587534 -0.638174
0.710831 0.530593 0.073521
-0.726119 0.502850 0.079548
0.021744 0.555399 0.096604
0.774116 0.156046 -0.298662
-0.347754 0.552791 -0.296704
-0.726266 0.502017 0.081401
-0.380795 -0.200304 0.463897
-0.362533 0.167521 -0.653099
0.773748 0.154373 -0.299263
0.386625 0.543504 0.471120
0.384298 -0.590923 -0.639429
-0.009471 -0.552529 0.472078
0.008656 -0.212983 0.829398
0.772379 0.155589 -0.298266
-0.724886 0.500594 0.081622
-0.375194 0.158266 0.845184
0.007121 -0.206017 -0.630368
-0.752243 -0.560353 -0.260236
-0.752633 -0.557671 -0.261569
0.022025 0.553686 0.097152
0.390903 0.168806 -0.658078
0.365983 -0.179282 0.455007
-0.021396 -0.573744 -0.272451
0.754155 -0.584350 -0.266009
-0.771934 0.150152 -0.303793
-0.007983 -0.554974 0.472873
0.384444 -0.587674 -0.637968
0.753385 -0.582690 -0.266473
0.386759 -0.588439 -0.638778
-0.728209 0.501418 0.081659
0.717827 -0.184000 0.062477
0.384467 -0.588503 -0.636205
0.719718 -0.183789 0.063443
-0.001922 0.532128 0.835025
-0.359177 0.166193 -0.655389
0.356388 0.522052 -0.289804
0.355857 0.520275 -0.289447
-0.379448 -0.198754 0.463333
-0.374642 0.160518 0.844302
-0.753106 -0.559267 -0.260726
-0.378974 -0.201005 0.464111
-0.715045 -0.186337 -0.671698
0.752773 -0.582655 -0.265027
0.384597 -0.589986 -0.640691
0.009359 -0.211315 0.830211
-0.744720 -0.164526 0.078220
-0.377842 0.160156 0.845417
-0.348956 0.551787 -0.293485
-0.002691 0.533789 0.838930
0.359598 -0.560782 0.122594
0.743539 -0.213133 -0.631814
0.384797 -0.590439 -0.639631
-0.364112 0.526180 0.462693
0.389657 0.172539 -0.657732
-0.749601 0.188316 0.456109
0.367957 -0.180963 0.454911
-0.745240 -0.163326 0.079177
-0.742452 -0.163066 0.080112
-0.772642 0.150783 -0.305938
0.744872 -0.212797 -0.632574
-0.750223 0.187052 0.455762
0.390077 0.170339 -0.656352
0.711633 0.529733 0.072945
-0.001439 0.532554 0.836291
-0.749369 0.186146 0.457956
0.753410 -0.582943 -0.266430
0.389422 0.543691 0.473848
0.391561 0.171162 -0.657882
-0.363787 0.524450 0.461843
-0.377265 0.161727 0.844504
-0.359029 0.167634 -0.655936
-0.377903 -0.199639 0.462995
-0.000432 0.541787 -0.665658
0.365818 -0.178981 0.455350
0.009579 -0.210397 0.828321
-0.000617 0.531469 0.835925
0.391755 0.170469 -0.658358
0.362605 0.165481 0.851279
0.000994 0.540389 -0.664517
0.745747 -0.213496 -0.631475
-0.391532 -0.572178 0.096164
0.392177 0.168950 -0.658103
-0.715886 -0.187129 -0.668293
0.000634 0.540154 -0.663743
0.359919 -0.560833 0.125287
0.008246 -0.211615 0.828479
-0.389121 -0.593029 -0.676253
-0.377033 0.160206 0.844981
0.388015 0.544143 0.470421
-0.359880 0.170315 -0.655282
-0.748681 0.184118 0.457013
0.744431 -0.215437 -0.631937
0.753599 -0.583711 -0.265162
0.710696 0.529173 0.071372
0.355800 0.519356 -0.290298
0.744404 -0.213518 -0.632579
0.368045 -0.179315 0.455390
-0.021413 -0.576039 -0.271736
0.718901 -0.186118 0.062954
0.369009 -0.177780 0.455244
-0.386199 -0.591518 -0.677135
-0.020727 -0.574758 -0.273149
-0.726183 0.503941 0.080867
-0.001320 0.542054 -0.664390
-0.021200 -0.575329 -0.273418
0.355421 0.520004 -0.288511
0.356126 0.520410 -0.288541
-0.741639 -0.164160 0.077904
0.009759 -0.211311 0.830301
0.389985 0.542146 0.473463
0.385595 0.545933 0.472462
-0.022025 -0.575275 -0.274035
-0.002071 0.533629 0.835251
0.356509 0.520856 -0.289559
-0.360837 0.168113 -0.655429
-0.363963 0.525808 0.461356
0.713100 0.528891 0.071166
-0.362155 0.524201 0.461003
-0.715746 -0.188253 -0.670328
0.368066 -0.179521 0.457943
0.359939 -0.563128 0.124798
-0.726192 0.502381 0.080403
0.386873 0.543181 0.471713
-0.375376 0.157541 0.845227
0.387056 0.544142 0.472135
-0.391518 -0.570942 0.096092
-0.350297 0.550290 -0.295501
0.711025 0.528262 0.071889
-0.010283 -0.552587 0.472143
0.745733 -0.213062 -0.634031
-0.000768 0.534511 0.838682
-0.386897 -0.592563 -0.676583
0.390207 0.172244 -0.658202
0.389560 0.169702 -0.657022
0.365754 -0.178580 0.455825
0.744959 -0.215054 -0.631290
-0.020100 -0.574528 -0.272680
0.753855 -0.582695 -0.266772
-0.753123 -0.561387 -0.260719
-0.021578 -0.576790 -0.272748
-0.021368 -0.573220 -0.271590
0.007413 -0.206333 -0.631211
0.022228 0.554706 0.095816
-0.715431 -0.186918 -0.670253
0.719488 -0.183197 0.063534
-0.020696 -0.575185 -0.271141
0.363391 0.166579 0.852478
-0.713832 -0.187843 -0.670546
0.386210 0.543827 0.473350
-0.772472 0.149641 -0.303819
-0.009021 -0.551923 0.473658
0.386514 0.543976 0.471342
0.364252 0.166169 0.851492
0.719402 -0.184438 0.063937
0.366229 -0.179238 0.456581
-0.714804 -0.185862 -0.669384
-0.754101 -0.557854 -0.260456
0.008159 -0.211202 0.829212
0.368299 -0.177142 0.454287
0.744254 -0.212621 -0.633420
-0.009472 -0.555114 0.473671
0.719258 -0.183591 0.066737
0.000356 0.542551 -0.664185
0.712064 0.528615 0.070324
0.000665 0.541053 -0.664302
0.390068 0.169625 -0.656984
0.020663 0.554300 0.095499
-0.022427 -0.576983 -0.272810
-0.003842 0.534333 0.836459
-0.361798 0.524895 0.460366
-0.001337 0.543546 -0.665875
0.359738 -0.560843 0.123774
0.020605 0.553654 0.094583
-0.378217 -0.200001 0.466551
-0.743418 -0.164511 0.079555
-0.387336 -0.591540 -0.676453
0.774308 0.155472 -0.299433
0.717301 -0.184675 0.062330
-0.386639 -0.591480 -0.677060
0.021385 0.553448 0.096993
-0.349934 0.552997 -0.296383
0.000941 0.541239 -0.663431
0.005459 -0.205378 -0.632064
-0.019722 -0.575038 -0.272834
-0.021522 -0.576232 -0.271973
-0.347950 0.551341 -0.296104
-0.000850 0.534959 0.838680
-0.717658 -0.186843 -0.670882
-0.022401 -0.576621 -0.273637
0.771781 0.155823 -0.299771
0.382369 -0.588233 -0.636669
0.360593 0.165629 0.853467
0.366761 -0.176017 0.456079
0.389514 0.168829 -0.659929
-0.009101 -0.553086 0.472909
0.010406 -0.210625 0.828143
-0.744680 -0.165346 0.080357
-0.360296 0.168113 -0.655367
-0.348851 0.551946 -0.295815
0.388044 0.543605 0.472188
-0.771147 0.151410 -0.302378
-0.348137 0.552306 -0.293599
-0.375200 0.161596 0.845870
-0.393377 -0.569963 0.095942
0.010686 -0.212999 0.827022
-0.749342 0.183908 0.455757
0.354917 0.519672 -0.288983
-0.749744 0.185128 0.457029
0.362571 -0.563069 0.124732
-0.364684 0.523929 0.461911
-0.387928 -0.592524 -0.677084
-0.727769 0.501704 0.081801
-0.003600 0.532651 0.838081
0.364316 -0.179679 0.456304
-0.391281 -0.571419 0.098330
