OFF
256 0 0
0.658051 0.159951 -0.041091
0.307283 0.507720 -0.039853
0.656028 0.160119 -0.041358
0.310502 0.508674 -0.040217
-0.039911 0.159247 0.657167
-0.738120 -0.189077 0.307779
0.307857 0.509022 -0.736129
0.309843 -0.189018 0.657936
0.309130 -0.538422 -0.387762
-0.038717 0.158224 0.658620
0.308224 0.506464 -0.736906
0.656363 0.507481 -0.388260
0.308683 -0.189389 0.657566
0.306959 -0.188815 0.659160
0.656081 -0.188957 0.307894
0.658737 -0.537702 -0.041756
-0.737081 0.159483 0.658446
0.657930 0.161463 -0.737597
0.656121 0.506708 -0.387868
-0.038540 0.506895 0.308924
0.308506 0.507125 0.656679
-0.039649 0.159507 -0.738263
-0.734333 -0.188911 -0.386867
0.657599 -0.188975 0.308174
-0.039621 -0.536867 -0.736066
-0.388498 0.508264 -0.039615
-0.039153 -0.538274 -0.736977
-0.040616 0.508484 -0.388733
0.657608 0.160584 -0.040055
-0.040858 0.159099 -0.735981
-0.387746 -0.188356 0.657631
0.656843 0.508947 -0.388987
-0.385855 0.508554 -0.040138
0.309282 0.508566 0.655884
-0.386940 0.507891 -0.040065
0.309223 0.506599 -0.040892
-0.389072 0.508349 0.656217
-0.037562 -0.539185 -0.736045
-0.039708 0.508246 0.307610
-0.039308 -0.537048 -0.735806
0.656762 0.157036 0.656852
-0.389049 -0.187466 -0.738970
-0.737672 -0.188263 0.306855
0.657861 -0.188260 0.309712
0.658157 0.507637 -0.389521
-0.038185 -0.539406 -0.038789
-0.386628 -0.536114 0.308184
-0.039869 0.507196 0.308202
0.655464 0.159192 -0.038763
-0.040391 -0.539847 -0.736725
0.658269 0.160056 0.656828
-0.386703 -0.189054 -0.736315
-0.736986 0.509995 0.309032
-0.736912 0.159047 0.655084
-0.388724 -0.187734 -0.736533
-0.040214 0.160886 -0.735623
0.308815 0.508555 -0.736616
0.657291 0.160569 -0.040203
-0.389792 -0.537660 -0.386283
0.308652 -0.537684 -0.387902
0.655192 0.509082 -0.388972
0.309587 -0.536682 -0.388911
-0.388771 -0.188351 0.656083
-0.040520 -0.536090 -0.037928
0.309219 0.508039 0.655309
-0.388680 0.160959 -0.387815
-0.389167 -0.535384 0.307450
-0.388296 0.158465 -0.385846
-0.737131 0.508996 0.307826
0.657297 0.509152 -0.389401
0.656727 -0.190814 -0.388424
0.307126 -0.537619 -0.388225
0.310597 -0.188546 -0.738749
-0.388055 0.160218 -0.390510
-0.387221 0.508378 0.657415
0.658326 -0.538282 -0.040178
0.309924 0.505438 0.658365
0.308614 0.506740 -0.736398
-0.040716 0.507664 -0.386313
-0.041493 -0.536345 -0.040445
0.309025 0.508988 0.655609
-0.039598 0.508286 0.309583
0.308836 0.508170 -0.737603
-0.388369 -0.187741 -0.737077
-0.041701 -0.536946 -0.041841
0.305975 0.506951 -0.040122
0.307905 -0.190198 0.658924
0.656353 0.159287 -0.039259
-0.389606 0.507464 -0.040334
-0.039368 0.507117 -0.388915
-0.040250 -0.538129 0.656456
-0.039198 0.157055 -0.737101
-0.737366 -0.189559 -0.388069
0.308884 0.506189 -0.735796
-0.388195 -0.189949 -0.737681
0.656902 -0.189402 0.307100
-0.039144 0.159921 -0.737992
-0.738809 -0.537632 -0.039959
0.307765 0.507877 -0.038563
0.309274 -0.537537 0.308305
-0.388093 -0.535631 0.307143
-0.388758 -0.536991 0.308129
0.657295 0.507625 0.310533
0.309923 -0.537794 0.307927
-0.388285 0.160328 -0.386467
-0.737145 -0.189303 0.310723
-0.737048 -0.188510 -0.386578
-0.388141 -0.537410 0.309382
0.307872 0.507506 0.656980
-0.387955 -0.189434 -0.737512
-0.038746 0.161784 0.656729
-0.736833 0.158207 -0.039255
-0.386196 0.506456 0.657532
-0.041726 0.506407 0.307569
-0.038915 0.508727 -0.387230
-0.389200 0.159140 -0.386923
0.309669 -0.189436 0.658960
-0.737660 -0.538979 -0.039243
0.659039 0.159184 0.657592
-0.040788 0.507914 -0.389168
-0.736618 0.160250 0.656519
-0.736689 0.158770 -0.037910
0.308286 0.507901 -0.040574
0.654834 0.158564 0.654486
0.656684 0.158912 -0.737745
0.307499 -0.190206 -0.737085
0.656588 0.159537 0.657700
0.308776 0.507034 -0.039139
-0.739097 -0.537684 -0.041687
0.308000 -0.190085 -0.736943
0.657073 0.507366 -0.387668
0.309120 -0.188187 0.655796
-0.387048 -0.536444 -0.388786
-0.040686 -0.538118 -0.041113
0.307984 -0.188679 0.656932
0.307786 0.507496 -0.738246
-0.736086 -0.537529 -0.040970
0.309362 0.508184 -0.738418
-0.389762 -0.536206 -0.388421
0.306582 -0.188093 -0.735953
0.658239 0.160535 -0.736758
-0.039191 0.160817 0.656420
0.655932 0.159780 0.657362
-0.039996 0.505290 0.308214
0.657526 -0.187655 -0.388533
-0.737649 0.159598 -0.039704
-0.040267 0.159391 -0.736060
-0.041664 -0.537570 -0.737413
0.657327 0.507773 -0.389063
-0.737523 -0.536051 -0.039692
-0.388007 -0.188329 -0.736627
-0.737473 0.157309 -0.040610
-0.039659 0.159701 -0.737647
-0.040312 0.159335 0.657236
-0.039440 0.159013 -0.736094
-0.736047 -0.192306 -0.386316
0.306768 0.508653 0.658599
-0.388298 -0.190137 0.656000
0.309512 0.508263 0.657053
-0.388259 -0.190001 -0.738372
0.309457 -0.536860 0.308840
-0.735901 -0.188428 0.307893
-0.039236 0.508747 0.306838
0.309303 0.508733 -0.736981
0.656616 -0.538219 -0.037840
-0.734363 -0.189111 0.310483
-0.737115 -0.189349 0.309457
-0.042103 0.160076 0.657021
-0.040650 -0.539273 -0.039663
-0.387210 0.508049 0.657784
-0.736285 -0.188825 0.308025
-0.388824 -0.537443 0.310502
-0.736340 -0.190939 0.308600
0.307978 0.506922 0.657507
-0.388185 0.506944 0.657614
-0.389034 0.158245 -0.387561
-0.737365 -0.189516 -0.388655
-0.038870 0.159364 0.656531
-0.388972 0.507308 0.656613
-0.737331 0.158759 0.656303
0.308279 -0.187853 -0.737172
-0.038443 -0.536821 0.658189
0.656774 -0.535227 -0.039718
0.308076 0.508700 0.657618
-0.039270 0.507654 -0.388651
-0.039861 0.508601 -0.388208
-0.040782 0.508055 -0.389429
0.656754 0.507757 -0.388809
0.655751 -0.188557 0.307962
0.307985 0.510095 -0.737196
-0.387048 0.506697 0.657068
-0.038758 0.508066 0.307806
0.659207 0.506307 0.309542
-0.039028 0.508718 -0.388741
0.309131 0.507083 0.657921
0.656648 0.507862 0.310068
0.659347 -0.189128 0.309062
0.657897 -0.188892 -0.388402
-0.387814 0.507361 -0.038709
-0.388066 -0.537377 -0.388966
0.308954 0.508271 -0.039527
0.658965 0.159228 0.655766
0.656385 0.505046 0.307702
0.310414 0.509043 -0.038917
0.309665 -0.189330 0.655765
0.655705 0.508391 -0.386894
-0.038936 0.507207 0.308005
0.307415 0.508358 -0.735668
-0.388865 -0.536993 0.308620
0.654458 0.160627 -0.737476
0.656965 0.158810 0.656776
0.308157 0.506270 0.656612
-0.388599 0.506673 0.657435
0.309810 0.505748 0.657449
0.308772 0.509238 -0.738471
-0.389244 0.508815 -0.039422
-0.734977 0.159553 -0.038036
0.657152 0.506169 0.307523
-0.736205 0.159607 0.655806
-0.734974 -0.190165 0.307842
0.308833 0.507739 -0.735560
0.307237 0.508041 -0.737277
-0.386757 -0.190027 0.656947
-0.387554 0.157329 -0.387963
-0.039750 0.508415 -0.388304
0.310139 -0.536819 -0.388100
-0.039984 -0.537340 -0.738117
-0.389768 -0.188507 0.657411
-0.386254 -0.191571 0.656715
0.308937 -0.537619 -0.389272
-0.039037 -0.536619 -0.733989
0.657057 0.158353 -0.736386
0.307029 0.508927 -0.038736
0.654159 0.157968 -0.735310
0.656265 0.509015 0.307746
-0.738546 -0.188484 -0.389667
0.305627 0.509426 -0.738804
0.657170 0.159984 0.658799
0.308814 -0.538360 0.309278
-0.737919 0.160751 -0.039608
-0.387666 0.160085 -0.388273
-0.387077 -0.538506 -0.388434
-0.040358 -0.540004 0.657770
-0.387051 -0.187464 0.655968
-0.736013 -0.536451 -0.038953
0.309589 0.507160 -0.736142
-0.737545 -0.187465 0.309186
-0.738452 -0.188399 -0.387164
-0.388531 -0.189161 -0.736411
-0.736517 -0.189696 -0.387663
-0.041242 -0.535537 -0.735416
-0.038614 0.506084 0.308790
-0.387564 0.158780 -0.388911
0.310250 0.507447 -0.040304
-0.038943 -0.536429 0.656993
0.657456 -0.189024 -0.389361
