OFF
256 0 0
0.317296 0.515773 -0.718918
-0.396706 -0.187977 -0.740415
0.301972 -0.526553 0.297102
0.658604 -0.169049 -0.387886
-0.022680 0.148723 -0.722335
0.307355 0.488614 0.624378
0.321204 -0.175088 -0.724642
-0.719822 -0.183779 -0.375744
0.660006 -0.170955 -0.388375
-0.396219 -0.188968 -0.742930
-0.718956 -0.180061 0.293917
0.307170 0.490852 0.625333
0.660616 -0.170044 -0.391135
0.647402 0.151912 0.624215
0.301693 0.486577 -0.002155
-0.741246 0.159397 0.639020
-0.045594 0.494018 0.289918
0.648491 0.155593 0.625801
0.294378 -0.532422 -0.361473
-0.734612 -0.526580 -0.036879
0.294692 -0.531412 -0.362773
0.306827 0.491348 0.624312
-0.373332 0.499424 -0.040595
-0.387158 0.504936 0.644492
-0.022519 0.150577 -0.721569
-0.739548 0.158650 0.638174
0.647337 -0.169234 0.307265
-0.387329 0.506877 0.642730
-0.047828 -0.533317 -0.056676
-0.396780 -0.189698 -0.743416
-0.741909 0.160322 0.640713
-0.382881 -0.184716 0.649580
0.648895 0.154057 0.624881
-0.023653 0.147965 -0.722001
0.647897 -0.170104 0.307171
0.301177 -0.526943 0.296716
-0.720921 -0.182789 0.295135
0.627986 0.489300 -0.357364
-0.720569 -0.182401 -0.377949
-0.379780 -0.527404 0.339453
0.657182 0.514538 0.313413
-0.029254 0.481702 -0.372148
-0.381834 -0.186297 0.651808
-0.387117 0.506697 0.645169
-0.030198 -0.531970 -0.725428
-0.382651 -0.528220 0.340723
-0.058941 0.139008 0.632612
-0.043177 0.494036 0.290182
0.278162 -0.190934 0.632956
-0.374421 0.500286 -0.042314
-0.701597 0.503794 0.306964
0.647025 0.152110 0.624557
0.317601 0.517689 -0.719415
-0.381162 -0.526709 0.340856
0.277014 -0.191864 0.632798
0.648274 0.153824 0.625524
-0.387963 0.506361 0.645077
-0.379505 -0.526329 0.339416
-0.410125 -0.537721 -0.402209
-0.721557 -0.182570 0.291710
-0.720396 -0.181881 0.294943
-0.387827 0.506529 0.644523
0.300235 0.485957 -0.001075
-0.383529 -0.187310 0.653410
0.648070 0.152936 0.623609
0.300350 0.486920 -0.001805
0.645360 -0.170958 0.308674
0.643284 0.179520 -0.744045
-0.383444 -0.185440 0.654316
0.307496 0.492348 0.623673
0.628812 0.489238 -0.357023
0.645055 0.179809 -0.744366
-0.030855 -0.531980 -0.724440
-0.741116 0.158938 0.639612
0.648923 -0.168439 0.305957
0.294334 -0.531952 -0.362684
-0.735625 -0.528124 -0.034931
0.306456 0.491156 0.625710
0.660570 -0.169943 -0.389838
-0.379789 -0.527868 0.339664
-0.381163 -0.529063 0.340830
-0.740994 0.159013 0.638712
-0.741511 0.159841 0.641337
-0.369435 0.136739 -0.356534
0.642966 0.180043 -0.744409
-0.394940 -0.188032 -0.744681
0.279066 -0.190451 0.632618
-0.044822 0.491570 0.291728
0.648153 -0.516035 -0.035793
-0.032144 -0.520637 0.640293
-0.736622 -0.526553 -0.035742
-0.043057 0.492236 0.289851
0.647942 -0.517141 -0.034565
-0.029389 0.482361 -0.372598
0.656330 0.513444 0.313273
0.648300 -0.518743 -0.034602
-0.044987 0.493889 0.290587
-0.385914 0.505967 0.643875
-0.408262 -0.537454 -0.400629
0.657712 0.514520 0.312773
0.661750 -0.171364 -0.388185
-0.410568 -0.538557 -0.403792
0.646855 0.153155 0.625344
0.629752 0.487627 -0.356306
-0.026295 0.480731 -0.372177
0.628700 0.488022 -0.357310
0.299202 -0.524018 0.296833
0.294683 -0.534578 -0.364362
0.307470 0.491514 0.627004
0.318011 0.518245 -0.718490
0.655917 0.515295 0.312936
0.301313 0.484013 -0.002752
0.307341 0.489436 0.624519
-0.055888 0.138166 0.631501
-0.736514 -0.527007 -0.036569
0.316004 0.518370 -0.717388
0.302035 -0.525378 0.297052
0.650847 0.138876 -0.035579
0.650401 0.141892 -0.035507
0.646478 -0.171009 0.304703
-0.029989 0.482752 -0.372787
-0.386616 0.505230 0.642935
0.301162 -0.525420 0.296504
0.299548 0.487309 -0.000617
0.321903 -0.178471 -0.723019
0.657023 0.514634 0.313884
-0.721787 -0.181356 -0.377567
0.644485 0.179681 -0.744239
0.657493 0.514709 0.311577
0.649106 -0.171103 0.307405
-0.381805 -0.528056 0.340051
-0.043582 0.493106 0.290623
-0.736434 -0.527823 -0.035797
-0.050091 -0.532415 -0.055671
-0.049414 -0.533250 -0.052377
0.306801 0.492064 0.626411
0.659139 0.514374 0.312708
0.299581 -0.524792 0.298544
0.659743 -0.169190 -0.389185
-0.373588 0.500841 -0.040798
-0.380181 -0.528595 0.339706
-0.046905 -0.531849 -0.052626
-0.381577 -0.185636 0.650604
0.306689 0.491785 0.623723
0.646891 -0.515655 -0.034631
0.643355 0.179811 -0.745677
-0.720534 -0.182803 -0.378130
-0.395070 -0.189791 -0.744725
0.648475 0.152925 0.625714
-0.373354 0.499028 -0.041767
-0.023275 0.147926 -0.721538
0.295082 -0.534809 -0.362543
-0.022954 0.148131 -0.722652
0.301403 -0.527550 0.295822
0.317477 0.517592 -0.719955
-0.396219 -0.188525 -0.743808
0.308006 0.491103 0.622071
-0.057172 0.139319 0.633942
0.629149 0.488320 -0.356852
0.296077 -0.533042 -0.363045
0.318590 0.517232 -0.718201
-0.736744 -0.527974 -0.035639
-0.397138 -0.189368 -0.744075
-0.408918 -0.536914 -0.401851
-0.737175 -0.526190 -0.035781
0.295576 -0.530648 -0.363486
-0.046915 -0.532392 -0.052760
0.647067 0.154303 0.626766
-0.371912 0.500246 -0.040917
0.644314 0.180741 -0.744280
-0.737726 -0.527736 -0.035659
-0.374311 0.501162 -0.042984
0.628691 0.487075 -0.355451
0.659977 -0.169965 -0.390136
-0.029452 -0.532586 -0.724760
-0.736013 -0.528977 -0.036145
0.322832 -0.175796 -0.723241
0.651198 0.141620 -0.035529
0.646871 0.153258 0.624068
0.320965 -0.178865 -0.724023
-0.032054 -0.521466 0.636698
-0.726674 0.161263 -0.042299
-0.383632 -0.187636 0.652547
0.647814 0.153445 0.625271
-0.397430 -0.188894 -0.743408
0.646243 -0.171126 0.307123
-0.739477 0.157418 0.637750
-0.741071 0.159411 0.638362
0.302148 0.485281 -0.001969
-0.032208 -0.520813 0.638831
-0.022119 0.147731 -0.722030
-0.031016 -0.531536 -0.724527
0.319479 0.516643 -0.719536
0.627441 0.488144 -0.355623
-0.735679 -0.528440 -0.035163
0.651695 0.141383 -0.034658
0.319253 0.517435 -0.719429
0.301021 -0.524856 0.295493
0.661682 -0.170770 -0.387499
-0.382943 -0.186393 0.651970
-0.050020 -0.533091 -0.054098
-0.021107 0.149018 -0.722863
0.299326 -0.524660 0.297077
0.652825 0.140897 -0.035507
-0.383039 -0.185806 0.651111
-0.387906 0.506156 0.644442
0.300493 0.487712 -0.001107
-0.056271 0.137514 0.634060
-0.736296 -0.527013 -0.036266
-0.737068 -0.527415 -0.034940
-0.044050 0.492719 0.292563
0.305891 0.490347 0.624179
-0.725831 0.159984 -0.042758
0.316625 0.517200 -0.717343
0.659184 0.514647 0.313953
-0.043922 0.492779 0.288604
-0.720745 -0.184219 -0.377802
0.647412 0.154865 0.623957
0.276510 -0.193907 0.631372
-0.726863 0.160950 -0.041563
-0.726687 0.163041 -0.042627
0.648347 -0.515457 -0.035169
0.648373 -0.168888 0.306880
0.628160 0.489592 -0.357661
0.662782 -0.168962 -0.388122
0.647789 -0.515783 -0.033678
0.659970 -0.169854 -0.388249
0.646896 -0.170519 0.308044
0.658180 0.511920 0.314163
-0.373477 0.499331 -0.041129
0.650874 0.141484 -0.036652
-0.370128 0.136865 -0.358191
-0.042200 0.492110 0.291869
0.321049 -0.176524 -0.724875
0.303433 0.484195 -0.000378
-0.032285 -0.518832 0.640532
0.661145 -0.169160 -0.388906
0.296081 -0.533133 -0.362432
0.277837 -0.193416 0.632804
-0.721187 -0.183338 -0.378901
0.648317 -0.517876 -0.035323
0.631620 0.487937 -0.356757
0.295679 -0.534531 -0.362422
-0.057381 0.139021 0.632637
-0.030976 -0.529969 -0.724334
-0.740120 0.158646 0.640580
-0.726099 0.162830 -0.041412
0.647547 -0.170460 0.309235
-0.719392 -0.182790 0.293605
-0.724972 0.160844 -0.041659
0.657420 0.515569 0.312020
-0.031920 -0.520901 0.639911
0.651099 0.139714 -0.037625
-0.737607 -0.527711 -0.038078
-0.370416 0.139065 -0.356991
0.645917 -0.170072 0.307374
