OFF
256 0 0
0.675643 0.514837 0.305178
-0.039714 -0.510032 -0.047756
0.671105 0.495448 -0.376395
-0.740208 -0.531336 -0.050373
-0.765292 -0.210912 0.315987
-0.396000 -0.516028 -0.414966
-0.410280 0.132561 -0.372954
0.653309 0.179740 0.647522
0.312543 -0.193986 -0.737066
0.300844 -0.173875 0.645712
-0.385500 0.507327 0.669915
0.664702 0.168071 -0.027644
-0.034561 -0.538864 -0.747757
-0.062630 0.477590 0.317700
0.653735 0.182633 0.648446
0.311704 0.495578 -0.012189
-0.034788 0.146002 0.650850
0.306481 0.492980 -0.710271
-0.040431 -0.510971 -0.044630
-0.723225 0.495732 0.305218
0.312871 -0.194177 -0.738500
-0.766350 -0.209324 0.316593
-0.391644 0.486801 -0.043836
0.653171 -0.165978 -0.371468
-0.391226 0.486700 -0.044800
-0.034981 0.145413 0.651315
0.307485 0.525411 0.658652
-0.036569 0.145138 0.651188
-0.408599 0.132364 -0.374952
-0.765073 -0.208920 0.315433
0.643237 -0.188513 0.300421
0.290520 -0.541739 0.305536
-0.358109 -0.164113 -0.758392
0.642507 -0.185761 0.298705
-0.039384 -0.513016 0.647586
0.290972 -0.543426 0.307177
0.655214 0.180752 0.650339
-0.391944 0.487341 -0.044598
0.307898 -0.523209 -0.383354
-0.034527 0.144549 0.650721
-0.039811 -0.515124 0.646364
-0.739075 -0.187398 -0.405505
-0.740132 -0.532133 -0.048035
-0.040624 0.149881 -0.744595
0.302661 -0.173903 0.647750
-0.039869 0.152754 -0.746125
-0.038738 -0.514283 0.647694
-0.762641 -0.209132 0.315871
-0.033057 -0.539797 -0.747633
-0.737399 -0.188394 -0.407519
-0.740033 -0.531478 -0.049794
-0.062787 0.478305 0.315923
-0.740411 -0.534336 -0.050457
0.652589 -0.166554 -0.372927
0.312073 -0.193063 -0.737108
-0.033966 -0.538269 -0.747594
-0.385112 0.507166 0.669426
-0.737863 -0.188998 -0.407161
-0.038975 -0.512914 -0.046062
0.644497 -0.188510 0.301522
0.648101 0.163903 -0.714500
0.652868 0.180014 0.649629
-0.390641 0.487277 -0.044333
-0.383357 0.505566 0.670678
0.643961 -0.184075 0.298771
0.642718 -0.185648 0.301720
-0.712385 0.125589 -0.027756
-0.038458 -0.511383 -0.045123
0.311878 -0.195271 -0.735356
-0.034738 0.147480 0.651168
0.674794 0.514123 0.305838
-0.390648 0.488487 -0.043838
-0.763790 -0.209865 0.314823
0.660088 -0.548699 -0.038685
-0.738192 0.166324 0.653887
0.659546 -0.546652 -0.039353
0.661472 -0.548131 -0.039569
-0.061999 0.479055 0.315633
0.302028 -0.174187 0.646326
0.308490 -0.522933 -0.383619
-0.738993 0.166996 0.653514
-0.061895 0.477356 0.316160
0.654807 0.180937 0.649331
0.310212 0.495884 -0.014543
0.300846 -0.173551 0.647608
-0.408571 0.134689 -0.372077
-0.725791 0.499104 0.305856
0.660277 -0.546783 -0.040639
-0.408772 0.133013 -0.371935
-0.385043 0.506479 0.668508
0.302411 -0.174399 0.647198
0.306606 0.492506 -0.708488
-0.409206 0.132739 -0.373479
-0.395501 -0.515184 -0.414868
0.290153 -0.543950 0.306415
-0.711484 0.127716 -0.028030
0.308082 0.527006 0.657451
-0.033087 -0.538403 -0.746924
0.671074 0.496545 -0.376051
0.670078 0.496775 -0.377194
-0.039131 -0.513863 -0.045536
0.290340 -0.542582 0.305424
-0.038212 -0.510803 0.647710
-0.711987 0.124233 -0.028244
0.306801 -0.524017 -0.384521
0.290370 -0.543133 0.305759
-0.766158 -0.208020 0.315030
0.672128 0.495847 -0.376585
-0.725294 0.497993 0.303453
-0.764778 -0.209432 0.315306
-0.390592 0.488198 -0.044695
-0.037941 -0.512857 0.645841
-0.739402 -0.187027 -0.408675
0.659385 -0.548291 -0.039433
-0.356228 -0.165643 -0.757055
-0.398492 -0.516977 -0.415311
-0.739768 -0.188810 -0.405845
-0.375241 -0.180510 0.636297
0.675498 0.517311 0.305324
-0.386439 0.505001 0.669242
-0.726077 0.498740 0.304485
0.660532 -0.547305 -0.038790
0.653420 0.179099 0.647820
-0.374317 -0.180192 0.636162
-0.355991 -0.162940 -0.759321
0.302965 -0.173461 0.647234
-0.408827 0.133098 -0.372761
-0.391509 0.486825 -0.044473
0.645164 -0.187180 0.300717
-0.765023 -0.210467 0.315592
-0.384458 0.504554 0.668305
-0.394697 -0.514940 -0.415844
-0.711912 0.123144 -0.029528
-0.712338 0.125741 -0.027489
0.649756 0.163247 -0.714301
-0.033781 -0.538119 -0.747201
-0.739492 0.167807 0.651688
-0.765951 -0.210289 0.315560
-0.039604 0.152205 -0.744974
-0.711414 0.126199 -0.030217
-0.727783 0.497689 0.304524
0.660830 -0.548721 -0.038984
-0.357616 -0.165782 -0.757644
0.309397 -0.524997 -0.383635
0.653307 -0.165936 -0.370871
0.663931 0.166712 -0.027852
-0.372603 -0.531150 0.305395
-0.046882 0.490973 -0.374479
-0.373851 -0.179014 0.636155
0.650169 -0.167646 -0.369729
0.658313 -0.547268 -0.040201
-0.390943 0.486232 -0.045501
-0.063641 0.480356 0.317057
0.301503 -0.173360 0.646007
-0.356785 -0.163964 -0.758453
0.675603 0.516848 0.304661
-0.726527 0.497129 0.305093
-0.040976 0.152413 -0.744657
-0.711326 0.124906 -0.027328
0.649809 -0.166842 -0.372133
-0.039357 -0.512895 0.647655
-0.371873 -0.530621 0.303538
-0.356633 -0.163077 -0.760279
-0.043338 0.150642 -0.743617
0.307358 0.525431 0.657822
0.642583 -0.186881 0.300458
-0.742801 -0.532558 -0.049458
-0.390335 0.487295 -0.044083
-0.042794 0.151870 -0.743345
0.309068 0.527555 0.656307
-0.371176 -0.531083 0.301520
0.308931 -0.524247 -0.383849
0.647153 0.163460 -0.713941
0.661141 -0.546875 -0.038790
-0.034519 -0.537508 -0.747573
-0.035191 -0.538846 -0.746763
0.650932 -0.165320 -0.372502
0.309127 0.491831 -0.711382
-0.741007 -0.532300 -0.049885
-0.723905 0.499335 0.306218
0.304092 -0.175820 0.649785
-0.766477 -0.210552 0.314811
0.665816 0.166314 -0.027160
0.312784 -0.194445 -0.737121
-0.764834 -0.209376 0.315519
-0.383911 0.505518 0.670195
0.310424 0.496847 -0.013506
0.288444 -0.541640 0.304924
-0.062924 0.478384 0.316707
0.647437 0.163061 -0.714871
0.308397 -0.524417 -0.384783
-0.711294 0.125093 -0.027722
0.307756 0.524261 0.657802
0.665107 0.169246 -0.028715
0.649047 0.163539 -0.713501
-0.388081 0.505103 0.669254
0.659383 -0.547101 -0.038565
-0.038148 -0.511990 0.645311
0.643595 -0.187217 0.300107
-0.373874 -0.182078 0.637090
0.308739 -0.522143 -0.383371
-0.356295 -0.162194 -0.759471
0.649685 -0.167529 -0.371315
-0.713634 0.124673 -0.029616
0.307273 0.492307 -0.710746
-0.712166 0.124446 -0.028601
0.655965 0.180571 0.647439
0.643384 -0.186279 0.299494
0.673079 0.516545 0.304219
-0.369780 -0.531412 0.303530
-0.765757 -0.209254 0.314428
0.648428 0.163155 -0.715401
-0.356117 -0.162664 -0.757566
0.306474 -0.523355 -0.383869
0.290086 -0.543255 0.304788
-0.040772 0.150238 -0.746346
-0.391705 0.486639 -0.045453
-0.739096 -0.188980 -0.405849
-0.048837 0.490844 -0.376116
-0.764125 -0.211315 0.315257
-0.034664 0.145494 0.650241
-0.355959 -0.165228 -0.759263
-0.041199 0.150525 -0.746043
-0.042725 0.150002 -0.743644
0.301812 -0.175301 0.647955
-0.032288 -0.537472 -0.746943
0.312285 -0.196256 -0.736176
-0.711300 0.124576 -0.028540
-0.372736 -0.530431 0.304544
-0.062976 0.478903 0.316688
-0.373277 -0.177978 0.636425
-0.035716 0.146987 0.650805
-0.390113 0.488423 -0.042974
-0.040661 0.152033 -0.746514
-0.392921 0.486972 -0.043371
0.641843 -0.187676 0.299370
-0.711963 0.126228 -0.030002
0.308580 -0.522197 -0.382374
0.665087 0.167348 -0.027960
0.648352 0.162353 -0.714834
-0.390546 0.485382 -0.043763
0.649448 0.161323 -0.713569
-0.035504 0.146681 0.651139
0.643911 -0.187121 0.300893
-0.033265 -0.539391 -0.748327
-0.060976 0.477444 0.315272
-0.713063 0.123264 -0.028387
-0.034818 0.145449 0.650333
-0.040404 -0.513015 -0.046443
-0.723118 0.497765 0.304216
0.659429 -0.546148 -0.040320
-0.737853 -0.189319 -0.408391
-0.374220 -0.177275 0.634264
-0.723955 0.499336 0.307024
0.307436 -0.524181 -0.384499
-0.032494 -0.539182 -0.747895
