OFF
256 0 0
0.627011 0.263598 0.708628
-0.411256 0.254941 0.346252
-0.426722 -0.434862 0.359028
0.233721 0.617819 -0.002380
0.272105 -0.081123 -0.707237
0.615014 0.285007 0.001077
0.265337 0.623330 -0.718018
-0.059729 0.266915 -0.682186
0.279752 -0.424703 -0.350629
0.264725 0.623430 -0.718745
0.228575 -0.396494 0.323395
-0.412727 0.255435 0.347820
-0.429936 -0.410082 -0.343010
0.604171 -0.423641 0.018354
-0.423889 -0.434278 0.359180
-0.430688 -0.409617 -0.339899
0.280041 -0.082511 0.697294
-0.402490 0.607480 0.015946
-0.756240 -0.068394 0.357043
-0.761289 0.265588 -0.002747
0.230643 -0.395024 0.321770
0.592327 0.603825 0.342971
-0.756154 -0.068828 0.357565
0.279785 -0.082213 0.699337
-0.401264 0.604670 0.017539
0.279471 -0.423702 -0.353067
0.295778 0.622024 0.726362
0.232299 -0.396927 0.321441
-0.804885 -0.410851 -0.006291
-0.061209 0.277102 0.702142
0.280428 -0.424823 -0.351051
-0.402300 -0.087108 0.703053
-0.083811 0.610993 -0.345239
0.604592 -0.064292 0.334768
0.613771 0.280986 -0.000760
-0.431718 -0.407658 -0.342521
-0.806132 -0.413570 -0.005859
-0.070996 -0.421319 0.675414
0.265517 -0.799557 -0.007661
0.271996 -0.081937 -0.707884
-0.809200 -0.413328 -0.006814
0.279184 -0.082602 0.696080
-0.431696 -0.409596 -0.340862
-0.409755 0.253765 0.347588
-0.431314 -0.407624 -0.341418
-0.410367 -0.079025 -0.685260
-0.060146 0.279990 0.702166
0.603039 -0.067093 0.332506
0.271976 -0.080775 -0.709283
-0.412519 0.253495 0.345412
0.581573 0.581121 -0.359912
-0.057667 -0.764978 0.322369
-0.060536 0.266349 -0.680867
0.271228 -0.080474 -0.710339
0.230348 -0.396884 0.322479
-0.061241 0.276473 0.702708
-0.067676 -0.422808 0.676742
0.278246 -0.424185 -0.354145
0.281904 -0.425526 -0.353279
-0.756382 -0.067781 0.354967
-0.788838 -0.061802 -0.352267
-0.761675 0.265494 -0.001911
-0.420732 -0.764019 -0.021367
-0.082622 0.614093 -0.346733
0.272636 -0.083223 -0.710360
-0.431751 -0.412118 -0.341803
-0.420705 -0.763250 -0.021631
0.264076 0.622842 -0.719841
0.267616 -0.800121 -0.008307
-0.430403 -0.410756 -0.340049
-0.408047 -0.078756 -0.685921
0.594678 0.603426 0.343614
0.231860 0.619298 -0.002551
-0.421113 -0.763441 -0.021958
-0.806994 -0.413233 -0.005526
-0.065622 0.609846 0.363204
-0.758085 -0.067588 0.357267
0.612838 0.280358 -0.713656
0.584749 -0.058935 -0.330454
-0.430946 -0.409451 -0.340735
-0.062011 -0.426973 -0.703764
-0.062854 0.275877 0.702258
-0.395413 0.247052 -0.307420
-0.060393 0.264867 -0.682129
-0.060981 0.279458 0.701772
0.281431 -0.082424 0.697190
-0.081484 0.613209 -0.345795
0.613720 0.280926 -0.715135
0.278736 -0.082973 0.697552
0.231469 -0.396299 0.322693
0.592916 0.605561 0.344154
-0.066026 0.612724 0.364896
0.265587 0.622289 -0.718967
0.272360 -0.080270 -0.707433
0.264869 0.622127 -0.717005
0.298220 0.620367 0.726497
0.603307 -0.423914 0.016032
0.582086 0.580183 -0.357816
-0.759122 -0.069435 0.355703
0.613281 0.279756 -0.717769
0.604548 -0.423665 0.019282
0.265463 0.622647 -0.717731
0.272034 -0.082029 -0.708907
0.582611 0.581793 -0.358876
-0.073229 -0.754538 -0.355134
-0.067408 0.611137 0.364429
-0.073092 -0.754157 -0.355188
-0.069569 -0.422175 0.677958
-0.067902 0.611530 0.360830
-0.408113 -0.080914 -0.685646
-0.399880 0.607688 0.015775
0.295623 0.621358 0.725728
0.586629 -0.059036 -0.330361
0.267776 -0.799287 -0.009531
0.232410 0.618375 -0.001907
0.593978 0.601987 0.347217
0.590010 0.603206 0.345123
0.279023 -0.426160 -0.351840
0.281042 -0.082142 0.699201
-0.059918 -0.426379 -0.704066
0.592921 0.603478 0.343563
0.265469 0.623069 -0.715798
0.280860 -0.423437 -0.352863
0.615399 0.283624 0.000569
-0.069462 -0.420769 0.676430
0.592683 0.602371 0.343994
-0.067349 0.611377 0.363256
-0.807586 -0.412648 -0.007171
0.604819 -0.422682 0.017416
-0.409888 -0.078641 -0.684398
-0.425876 -0.432343 0.357383
-0.431811 -0.410632 -0.342336
0.232828 0.615213 -0.004129
0.277909 -0.081313 0.697281
0.270785 -0.080677 -0.709128
-0.787473 -0.062319 -0.351640
0.603348 -0.424817 0.017371
-0.409534 0.254418 0.347659
0.583063 -0.060535 -0.333509
0.265782 0.622527 -0.715976
-0.790789 -0.062141 -0.350083
-0.068956 -0.420239 0.676088
-0.807633 -0.412880 -0.007412
-0.789218 -0.060964 -0.353991
-0.409407 -0.078196 -0.685146
-0.061759 -0.425800 -0.705787
-0.757907 -0.068235 0.356413
0.605670 -0.066311 0.334334
0.612909 0.280609 -0.714915
0.266935 0.623188 -0.718634
-0.061310 0.277493 0.700167
-0.061798 0.277335 0.702228
-0.072970 -0.753009 -0.353623
0.270888 -0.082475 -0.708862
-0.069525 -0.422579 0.675372
-0.760097 -0.068075 0.355989
0.584912 -0.059183 -0.329108
0.232997 0.619039 -0.003535
0.626948 0.265997 0.705174
-0.058222 -0.763431 0.322937
-0.430963 -0.411471 -0.341982
0.271066 -0.081289 -0.708721
-0.069389 -0.422497 0.677056
0.611616 0.280154 -0.714008
0.592386 0.604316 0.343315
-0.068643 -0.422689 0.676118
0.606172 -0.063341 0.333989
-0.408103 -0.077687 -0.684418
-0.057299 -0.763945 0.322249
-0.402987 -0.087132 0.703444
0.582048 0.579962 -0.358880
-0.421523 -0.763282 -0.022991
0.231785 -0.394913 0.321516
0.605107 -0.424357 0.017592
-0.426560 -0.434751 0.360600
0.264588 0.623364 -0.718925
0.605570 -0.063534 0.335794
0.614381 0.285754 0.000840
-0.788629 -0.062961 -0.352366
-0.762917 0.262368 -0.003426
-0.789615 -0.062314 -0.352077
0.272355 -0.080955 -0.706144
0.613713 0.280053 -0.715507
0.625020 0.265067 0.705413
-0.805745 -0.413356 -0.006121
-0.061111 0.277399 0.702234
-0.069568 -0.423327 0.674163
0.295328 0.620873 0.725614
-0.401474 0.606005 0.014085
-0.786505 -0.061527 -0.350656
-0.402453 0.605824 0.016644
0.583847 -0.060328 -0.331067
-0.427335 -0.433043 0.359190
-0.789301 -0.064097 -0.352964
-0.409844 0.251331 0.345879
-0.069252 -0.420984 0.676988
-0.407210 -0.078376 -0.685345
-0.410808 0.252471 0.346752
-0.060170 -0.426945 -0.705567
-0.760171 -0.067814 0.356770
-0.068652 -0.421192 0.676219
-0.083553 0.611111 -0.344604
-0.401844 0.606765 0.016604
0.268958 -0.799376 -0.009470
0.263185 0.622552 -0.718541
-0.395445 0.248543 -0.305423
0.627220 0.263976 0.706534
0.605017 -0.424759 0.018935
0.606148 -0.065024 0.334273
-0.066585 0.613901 0.363909
-0.808586 -0.412819 -0.006887
-0.060641 0.265426 -0.680458
0.231545 -0.396082 0.321920
-0.807405 -0.413216 -0.005420
-0.083494 0.611185 -0.347408
-0.061925 -0.426800 -0.703123
0.230450 -0.396910 0.321520
-0.056650 -0.764993 0.323718
0.591380 0.604088 0.343499
-0.066833 0.610709 0.362059
-0.074118 -0.753204 -0.355298
0.582584 0.579479 -0.360548
-0.074388 -0.753359 -0.356165
0.233763 0.616514 -0.004661
-0.401888 0.604349 0.016539
-0.060062 0.278033 0.700487
-0.789040 -0.061861 -0.354151
0.231241 -0.396633 0.321519
-0.432936 -0.409656 -0.341424
-0.056151 -0.763671 0.323640
0.604119 -0.065025 0.333717
-0.062778 0.265389 -0.681526
0.296733 0.620572 0.725254
-0.074257 -0.752821 -0.354734
0.233631 0.617775 -0.002145
0.295460 0.619130 0.725651
-0.410696 0.255256 0.346167
0.583751 -0.061297 -0.330771
0.271897 -0.080120 -0.707745
-0.400796 0.607793 0.016096
-0.427430 -0.433822 0.358566
-0.429484 -0.409884 -0.341550
-0.422076 -0.761344 -0.023135
0.589974 0.604377 0.343362
-0.068559 0.611177 0.362603
0.603756 -0.066547 0.332986
0.281033 -0.425093 -0.351474
-0.756563 -0.067975 0.355723
-0.806477 -0.413545 -0.006747
0.270443 -0.081878 -0.707384
0.268056 -0.799550 -0.010020
0.593514 0.603575 0.344684
0.294418 0.620416 0.725621
-0.057194 -0.763453 0.322910
-0.059172 -0.765338 0.324267
-0.412218 0.253234 0.346807
