OFF
256 0 0
0.712505 -0.584870 0.096393
0.329267 0.434656 -0.573108
-0.357642 0.110958 0.458886
-0.373054 -0.593386 0.440836
0.330596 0.436007 -0.571745
0.347800 0.818606 -0.224823
0.020334 0.800243 -0.600659
-0.353367 0.776210 -0.235217
0.713708 -0.584326 0.095255
-0.329942 -0.231375 0.800115
0.708759 -0.242294 0.436489
-0.329331 -0.230052 0.799544
-0.006420 -0.612327 0.096189
-0.329708 -0.230314 0.798359
-0.004304 0.462482 0.452213
0.336066 0.462630 0.083138
0.360089 -0.599074 -0.252388
-0.029026 0.815598 0.118198
-0.369266 -0.587219 -0.234269
-0.371653 -0.587295 -0.236905
0.358407 -0.249886 0.806258
0.709718 -0.240048 0.437379
0.335994 0.461715 0.084274
-0.026935 0.814066 0.114697
-0.004429 0.464551 0.452270
0.366341 0.088119 0.452591
0.701875 0.132107 -0.587117
-0.347930 0.454923 0.126744
-0.355414 0.776437 -0.236388
-0.352665 0.778942 -0.235271
-0.324338 0.426632 -0.577001
-0.028952 0.816115 0.117326
-0.352431 0.777376 -0.233597
-0.711895 -0.581695 0.085218
0.698455 0.467562 -0.250714
0.375345 -0.234638 -0.617305
-0.694601 0.105949 0.125208
0.366185 0.084746 0.452916
-0.714884 0.459983 -0.219538
0.335984 0.462718 0.084959
0.018415 0.799509 -0.601308
-0.015172 -0.573246 0.804285
0.020768 0.800448 -0.599996
-0.703501 -0.236921 0.456198
0.358238 -0.249905 0.806245
-0.687553 0.100960 -0.586388
-0.354186 -0.268832 -0.593968
0.366997 0.088662 0.452874
-0.374697 -0.593264 0.442239
-0.695629 -0.244530 -0.220890
-0.712652 0.461560 -0.221789
-0.347738 0.454255 0.126772
-0.006406 -0.614132 0.095344
-0.714905 0.460709 -0.222744
0.021942 0.799560 -0.600643
0.685471 -0.223104 -0.251525
-0.696458 -0.246189 -0.223127
0.360401 -0.250391 0.807358
0.695318 0.469013 -0.250262
-0.696764 -0.244060 -0.221776
-0.692415 0.104134 0.124189
0.348621 0.820502 -0.225455
0.366742 0.086656 0.451848
-0.328883 -0.230672 0.799219
-0.013972 -0.574642 0.802487
0.015841 0.125614 0.802835
-0.714926 0.459412 -0.222426
0.330824 -0.589417 0.460058
0.335104 0.463455 0.084691
-0.000195 -0.588345 -0.587623
-0.005028 0.461773 0.454806
0.375472 -0.234345 -0.616456
0.362281 -0.599026 -0.253441
-0.347334 0.455787 0.126260
0.696719 0.468650 -0.249607
0.360562 -0.251241 0.808405
0.359732 -0.599649 -0.251466
-0.351963 -0.267951 -0.593241
0.358753 -0.249453 0.806583
0.709366 -0.242844 0.435552
-0.354390 0.777612 -0.233282
0.700998 0.132172 -0.587606
0.349265 0.816571 -0.221222
-0.353270 0.776747 -0.235268
0.367268 0.087542 0.455098
-0.696054 -0.243720 -0.223577
-0.686254 0.099259 -0.586190
-0.694810 0.105263 0.124500
0.015608 0.125687 0.802889
-0.003853 0.462727 0.454201
-0.014404 -0.573223 0.803482
-0.002070 -0.588008 -0.586515
0.376045 -0.234636 -0.617790
-0.012881 -0.574017 0.802266
-0.352584 -0.269301 -0.593303
-0.003079 0.461225 0.453156
-0.003253 0.463717 0.454314
-0.694089 -0.244478 -0.223357
-0.028143 0.816874 0.115519
0.684739 -0.222221 -0.250974
0.016857 0.124575 0.801406
0.330414 0.436671 -0.572319
0.685714 -0.224155 -0.251634
-0.324524 0.425964 -0.576459
-0.713633 0.460460 -0.221999
-0.355982 0.114346 0.460769
-0.005978 0.459888 0.453715
-0.323159 0.424294 -0.578491
-0.697227 -0.244118 -0.222521
-0.328328 -0.230778 0.799560
0.000367 -0.587639 -0.586364
0.703686 0.103777 0.110587
0.700432 0.133324 -0.587922
-0.371041 -0.586945 -0.237061
0.362960 -0.599970 -0.253701
0.018770 0.125362 0.801006
-0.358103 0.111197 0.460381
-0.346541 0.455892 0.125511
0.351070 0.820057 -0.222562
0.704206 0.105779 0.110704
0.702858 0.106203 0.111704
-0.710104 -0.583336 0.087069
0.011444 0.091011 -0.602450
-0.029804 0.817001 0.115472
0.376981 -0.233992 -0.617767
-0.692985 0.104959 0.123652
-0.003779 0.461756 0.453811
-0.714285 0.459850 -0.221615
0.358785 -0.250629 0.808007
0.704627 0.105406 0.110531
0.701586 0.132302 -0.589406
-0.695774 -0.246076 -0.222562
-0.696635 -0.247818 -0.222519
0.332571 -0.587454 0.460678
0.703400 0.104259 0.111177
0.707732 -0.242819 0.437608
-0.013355 -0.572248 0.804892
0.695431 0.466851 -0.250109
-0.715108 0.458595 -0.221457
0.361128 -0.599355 -0.251263
-0.371407 -0.586731 -0.234924
-0.029937 0.817648 0.117314
0.702051 0.104875 0.113157
0.712947 -0.585408 0.096156
-0.711551 -0.583079 0.085912
0.330053 0.435441 -0.572696
-0.687790 0.102395 -0.586164
-0.002638 -0.611339 0.095553
-0.004728 0.462705 0.453986
0.707542 -0.240076 0.437951
0.698517 0.468693 -0.250731
-0.328212 -0.229521 0.797866
0.337123 0.463390 0.086661
-0.714046 0.458865 -0.222581
-0.356227 0.110800 0.462537
-0.713483 0.458903 -0.221815
-0.354142 0.777525 -0.234328
0.330608 -0.589522 0.460388
0.362182 -0.597659 -0.254292
-0.356185 0.110729 0.462249
0.685811 -0.222699 -0.250051
-0.353910 0.777635 -0.235522
0.345880 0.818514 -0.223890
0.331799 0.434375 -0.573692
-0.003058 0.462356 0.452772
0.020995 0.800178 -0.600324
-0.353905 0.777155 -0.234833
-0.688850 0.101298 -0.586787
0.695750 0.466863 -0.249364
0.366651 0.087663 0.455084
-0.325690 0.424257 -0.576165
-0.709703 -0.580970 0.086076
-0.001426 -0.587540 -0.586973
-0.347331 0.455875 0.127654
-0.347216 0.455594 0.125460
0.701715 0.133907 -0.588660
-0.691595 0.103733 0.123575
0.329512 0.435690 -0.572121
-0.004770 -0.612655 0.097625
0.019887 0.799393 -0.600361
0.367243 0.086645 0.453848
-0.354255 -0.269936 -0.593417
0.366983 0.089002 0.452377
-0.369766 -0.584987 -0.236132
0.359007 -0.598320 -0.252423
-0.703658 -0.236678 0.455338
0.362109 -0.599500 -0.254394
0.016692 0.124866 0.802465
-0.710519 -0.583213 0.085905
0.330733 -0.589281 0.460647
-0.354203 0.777960 -0.234219
-0.709373 -0.581344 0.084198
-0.691878 0.105454 0.125292
0.713581 -0.586560 0.096738
-0.715151 0.459712 -0.220626
0.337692 0.463199 0.082657
0.360453 -0.253069 0.805426
0.376941 -0.233988 -0.619424
-0.354617 0.110849 0.461452
-0.330839 -0.229083 0.797541
0.021434 0.798974 -0.601011
0.697668 0.469794 -0.249794
0.329844 0.435745 -0.571264
0.017923 0.125611 0.801075
-0.014432 -0.572214 0.803949
0.710334 -0.240545 0.438869
-0.329921 -0.230380 0.798474
-0.028108 0.817869 0.117014
0.685973 -0.222704 -0.249626
0.360088 -0.250266 0.805506
-0.004187 -0.611863 0.095989
0.349713 0.817870 -0.219371
-0.324899 0.425597 -0.575559
0.701197 0.131900 -0.589107
-0.353778 0.777883 -0.236020
-0.352895 -0.269184 -0.594311
0.703262 0.103016 0.111483
0.709268 -0.243057 0.436418
-0.708501 -0.582641 0.086557
-0.328106 -0.230470 0.798791
0.330967 -0.589015 0.459760
0.684188 -0.221488 -0.250143
-0.329452 -0.229917 0.800091
0.367052 0.086338 0.452127
0.375605 -0.234710 -0.618240
0.015946 0.127539 0.801636
0.695865 0.466779 -0.249319
-0.324495 0.425389 -0.579024
-0.690567 0.103890 0.124557
-0.686542 0.101323 -0.586051
0.362744 -0.599558 -0.251532
0.330856 0.435307 -0.571374
-0.376413 -0.593700 0.443654
-0.713043 0.459918 -0.222300
0.337242 0.462894 0.084552
-0.695804 -0.244491 -0.223034
-0.006138 -0.611270 0.095464
-0.713845 0.460379 -0.222807
-0.015420 -0.575788 0.802909
-0.355121 0.775100 -0.234788
0.010461 0.091225 -0.601228
-0.000781 -0.585761 -0.587240
0.361576 -0.598357 -0.253701
-0.692513 0.105354 0.123012
-0.005611 -0.612893 0.095845
-0.708770 -0.582472 0.084925
-0.345809 0.456789 0.126456
0.360009 -0.249877 0.807004
0.366452 0.085439 0.453109
-0.369801 -0.586631 -0.237823
0.360946 -0.599979 -0.251473
0.016178 0.127945 0.802901
-0.691339 0.103288 0.122335
0.702312 0.103374 0.111581
0.019454 0.800727 -0.599085
0.367320 0.086100 0.454165
