OFF
256 0 0
0.439777 -0.718642 -0.079208
0.440070 0.358427 -0.437890
0.078844 0.358194 0.638254
0.438745 -0.000327 0.638742
0.080514 -0.718843 -0.438680
-0.637540 -0.718805 0.279215
0.438477 0.358842 0.279393
-0.638834 0.000373 0.279304
0.797618 -0.359888 -0.079794
0.081645 0.717483 0.279185
0.439144 -0.358903 -0.437842
0.437434 0.001498 0.638567
-0.280890 -0.715809 -0.080963
-0.637319 -0.000146 0.279326
0.078947 -0.359171 -0.797401
-0.278776 -0.719484 -0.079393
-0.638294 -0.359887 0.638292
0.438331 -0.357035 0.278525
0.080048 -0.718054 0.279073
-0.636725 -0.715686 0.278220
-0.278764 -0.716220 -0.079024
0.797214 0.000278 -0.438305
0.078331 0.359019 0.636216
0.079407 -0.716844 -0.436564
0.439898 0.358939 -0.438767
0.079858 -0.356898 0.636931
0.437340 0.358019 -0.438010
-0.278030 -0.360116 -0.438611
-0.639462 0.359494 -0.081753
0.080998 -0.716338 0.280027
-0.277268 0.716690 -0.078672
-0.279299 0.719964 -0.079893
-0.637010 0.357570 -0.079278
-0.279925 -0.718430 -0.081332
0.439296 0.359448 -0.439128
-0.276679 -0.358875 -0.437975
-0.637010 0.357623 0.636952
0.436932 -0.358992 0.278149
0.079151 -0.719515 0.279422
-0.277648 -0.000154 -0.797278
-0.278844 -0.718393 -0.077414
0.438069 0.359982 -0.438237
0.798262 -0.000219 -0.438428
-0.637952 0.000902 0.280958
-0.279598 -0.718097 -0.078966
-0.636374 -0.360543 0.636736
0.079222 -0.719707 0.279041
-0.278727 0.718117 -0.080122
0.797804 0.359056 -0.081038
0.079184 -0.356375 -0.798699
-0.635918 -0.357285 -0.078877
0.078594 -0.357970 -0.796590
0.438189 -0.715705 -0.080536
-0.637497 -0.358790 -0.079366
-0.637057 0.359039 -0.081106
0.437390 -0.001389 -0.797340
0.078640 -0.718000 -0.436177
0.800149 0.000838 0.277734
0.437959 -0.358066 0.278414
0.079830 -0.717630 -0.440094
0.079932 -0.360332 -0.797233
-0.638347 -0.356679 -0.078102
-0.278214 0.718551 -0.079297
0.437135 -0.356405 0.279691
0.078939 0.718514 0.279840
0.438730 0.718161 -0.077651
0.437378 -0.001432 -0.796139
0.439199 -0.359177 0.280063
-0.638095 0.359449 0.637627
0.438408 0.002000 -0.798325
0.079073 -0.716771 0.278406
0.079677 -0.360250 0.637746
-0.278105 -0.717820 0.636665
0.796926 -0.000928 0.279695
0.797592 -0.359882 -0.080145
0.078053 0.716828 -0.437674
0.440129 0.358372 0.280566
-0.639337 -0.001693 -0.437286
0.799017 0.002199 0.278734
0.439709 -0.357687 -0.437890
-0.638312 0.361783 -0.079719
-0.639619 0.000881 -0.437836
0.798285 -0.001923 -0.440310
-0.639147 -0.718625 0.278776
-0.279703 -0.718123 0.638148
-0.279850 0.718446 -0.080798
0.437735 0.359018 0.280948
-0.278854 -0.716474 0.638293
-0.277451 -0.717522 0.637956
-0.636412 -0.000461 -0.438049
0.438386 -0.718700 -0.079610
0.078285 0.357859 0.638853
0.439494 -0.717732 -0.080830
-0.639215 -0.000964 -0.436704
0.078734 0.359073 -0.797706
-0.636755 -0.357959 0.637770
0.797603 0.001028 -0.437088
0.080866 -0.358617 -0.796679
0.797620 0.000426 -0.437809
-0.638286 -0.360102 0.639205
0.438514 -0.358282 0.278314
-0.638383 0.000379 0.278250
-0.278845 0.001090 -0.797504
-0.637147 -0.002290 0.279862
0.080663 0.358255 0.636109
-0.278618 0.358992 -0.437831
0.078789 -0.358784 -0.795556
0.439207 -0.000755 0.637460
0.438986 0.358452 -0.438104
0.079475 0.719692 0.278575
-0.279351 0.359368 -0.436471
-0.638991 0.359423 0.636504
0.079374 0.717775 -0.439466
0.797484 -0.357962 -0.078907
-0.636816 -0.359766 0.637415
-0.280424 -0.717964 -0.078133
0.081343 -0.359160 0.638556
0.079224 0.359178 0.638288
0.079454 0.357982 0.639155
0.080042 0.717967 -0.437540
-0.277310 -0.717201 -0.079168
0.078913 -0.358081 0.638371
0.079840 0.717687 0.278890
0.079657 0.717911 -0.437762
0.081052 -0.358782 -0.797543
0.438468 0.718266 -0.081172
0.440368 -0.717936 -0.078289
0.080642 0.718665 -0.438158
0.437984 -0.358710 0.280535
0.437128 -0.000551 0.638208
0.078413 -0.359236 0.640322
-0.278665 -0.000614 0.637786
0.435412 -0.360066 -0.437595
0.079927 0.359644 0.638794
0.438851 -0.358743 -0.438290
-0.279543 -0.716455 0.639424
-0.280027 0.360046 -0.438917
0.081274 -0.357759 0.638121
-0.279143 -0.359538 -0.435771
-0.278693 -0.716454 -0.080681
0.079619 -0.360464 0.637771
0.796419 -0.000797 -0.438007
-0.638908 -0.000840 -0.439616
-0.636318 0.001718 0.277861
-0.281361 0.357783 -0.439166
0.438236 -0.718008 -0.080387
0.437881 0.358723 -0.439629
-0.280230 0.000037 -0.799477
0.439238 0.358879 0.281773
-0.280469 -0.718917 0.637265
0.436417 0.716211 -0.079623
0.438147 -0.000107 -0.798392
0.795885 0.357699 -0.079828
-0.278766 0.000444 0.637495
0.438088 0.358711 0.278445
0.439231 0.001036 -0.796761
-0.638133 -0.358397 0.638089
0.080796 0.358978 -0.797527
0.439174 0.001097 -0.796696
-0.637615 -0.359883 0.638435
0.078377 -0.716828 -0.438461
-0.638358 -0.359588 0.637626
0.798131 -0.359629 -0.080043
0.437582 -0.001210 -0.796273
-0.638444 -0.717928 0.279044
-0.278516 0.358177 -0.437738
0.439153 0.360145 -0.438491
0.078101 -0.358673 0.637625
-0.278339 -0.717447 -0.079866
0.079391 -0.358414 -0.796737
-0.638895 0.001180 0.278826
0.080504 -0.717424 -0.437644
-0.276908 -0.718889 0.637604
-0.637901 0.358180 -0.078419
-0.639837 -0.717820 0.280145
0.078798 0.717703 0.279426
-0.638958 -0.000179 0.280238
0.440941 0.358128 0.278609
-0.277603 0.718111 0.636243
0.081227 -0.360066 0.638342
-0.638933 0.359069 0.636591
-0.279519 -0.717487 -0.078233
0.079609 0.358378 -0.797476
-0.637780 -0.359022 -0.080699
-0.277902 0.718450 -0.078036
-0.637265 -0.717734 0.278853
0.797812 -0.360509 -0.079035
0.080056 -0.358538 0.637667
0.797261 -0.000091 -0.439018
0.077376 -0.716837 0.279064
0.079002 0.358730 0.636923
0.438181 0.001162 -0.797061
-0.636929 0.000938 -0.438222
0.079451 0.359555 0.639066
0.080119 0.717914 0.280517
0.438129 -0.717609 -0.077722
0.797605 -0.357319 -0.079373
0.438074 0.718751 -0.079585
-0.637293 0.358703 0.638525
-0.279829 -0.357501 -0.437831
0.439192 0.000691 -0.797650
-0.635801 0.716916 0.280414
-0.638399 -0.001442 -0.439676
0.796575 0.358530 -0.080087
0.439169 0.358475 -0.438689
-0.636158 -0.717761 0.278230
0.078780 -0.717742 0.279048
0.797422 -0.358769 -0.079988
-0.637650 0.000572 0.278423
0.439630 -0.002450 -0.797493
0.439452 -0.000313 -0.799450
-0.277729 -0.717701 -0.080215
0.796666 -0.000647 0.279955
0.437742 -0.000283 0.635639
-0.279362 -0.358863 -0.439315
0.794603 -0.000856 -0.439576
-0.637883 -0.000955 0.278925
-0.636666 0.715906 0.279691
-0.280716 -0.718734 -0.080105
-0.277257 -0.001144 -0.798080
0.437989 -0.360490 0.278755
0.438704 -0.000546 0.636374
0.080786 0.718519 -0.439321
-0.279801 -0.357882 -0.439191
0.437849 0.718368 -0.081061
0.798166 -0.359803 -0.079660
0.079075 0.717004 -0.438415
0.438904 -0.358822 0.279611
0.797275 0.357961 -0.079054
-0.638528 -0.359895 -0.079691
-0.279871 -0.717853 -0.080298
0.079687 0.359792 -0.797593
-0.637986 0.000353 0.278017
0.438921 -0.716789 -0.080513
0.078463 0.360177 -0.796380
-0.280079 0.001688 0.637049
-0.637910 -0.000140 -0.439509
-0.279147 -0.001147 -0.797082
-0.279893 -0.359386 -0.437473
-0.639824 -0.358929 -0.080068
-0.279627 0.718078 -0.079652
-0.638933 0.357712 -0.079336
0.080817 0.359273 -0.797528
0.797819 -0.359476 -0.079126
0.080524 -0.360186 0.639145
-0.636093 0.358146 -0.080609
0.439737 0.000747 0.638061
0.796910 0.357441 -0.080082
0.438887 -0.358638 0.280130
-0.639271 -0.359662 -0.080066
-0.281183 0.359512 -0.439107
0.437788 0.359689 -0.439703
-0.636299 -0.360012 0.637686
-0.637257 -0.717951 0.276867
0.080590 0.720121 -0.439194
0.438994 -0.718575 -0.077911
