OFF
256 0 0
-0.273118 -0.728148 0.629012
0.393007 -0.311225 -0.418594
0.399453 0.000763 -0.783827
0.432768 -0.349938 0.279108
0.783949 -0.001797 0.277608
-0.598962 -0.364305 0.619188
-0.599054 -0.365403 0.620120
0.399852 0.000115 -0.783594
-0.283993 0.019583 0.631397
-0.265633 0.013577 -0.787797
0.782447 -0.000841 0.277682
0.392060 0.336831 -0.405617
-0.273197 -0.727553 0.630563
0.789000 0.343853 -0.055731
-0.273864 -0.727800 0.629033
-0.274016 -0.727137 0.628741
-0.634262 -0.719529 0.286731
0.783784 -0.001996 0.277306
0.087180 -0.731082 0.265811
-0.613589 -0.036011 -0.406898
0.390275 -0.311411 -0.420072
0.056035 -0.352931 0.590982
-0.263990 0.012962 -0.786326
-0.621192 -0.001865 0.275550
0.081885 0.381794 -0.813347
0.421185 0.702981 -0.059663
-0.280678 0.704003 -0.076872
-0.252408 0.372711 -0.440857
-0.598355 -0.366584 0.619223
0.779874 -0.002235 0.278520
-0.634662 0.680770 0.260985
-0.273160 -0.726761 0.630484
-0.286771 0.019552 0.629966
-0.622218 -0.000196 0.277855
0.065701 0.727728 0.252760
0.392810 0.337008 -0.405601
0.788809 0.341523 -0.057998
0.789890 0.342411 -0.057692
-0.272006 -0.728411 -0.066216
-0.268249 -0.728872 -0.066675
-0.615231 -0.036086 -0.407157
0.076999 -0.713673 -0.438041
0.078562 -0.710895 -0.437074
-0.599024 -0.364517 0.618557
0.781603 -0.001580 0.277032
0.413484 0.360778 0.271403
0.065284 0.728765 0.252710
0.390044 -0.309546 -0.419051
0.079270 0.380847 -0.813274
0.767508 0.013321 -0.425531
-0.271880 -0.730314 0.630193
0.079534 -0.347079 -0.807537
0.430865 -0.690914 -0.094293
0.390165 -0.311239 -0.419038
0.431809 -0.349345 0.277814
0.790217 0.342657 -0.057693
0.424518 0.002351 0.627696
-0.601056 -0.383761 -0.057140
-0.596375 0.326358 -0.101304
0.766972 0.015363 -0.425160
0.392653 0.335985 -0.405830
0.400657 -0.000163 -0.785073
-0.632933 -0.720199 0.286099
-0.634702 0.349644 0.623925
0.767422 0.014385 -0.423230
0.056884 -0.352193 0.589873
0.402530 -0.000933 -0.784411
-0.266419 0.014942 -0.787354
0.066924 0.728249 0.252078
-0.598027 0.327555 -0.100346
0.767726 0.013518 -0.423407
0.080981 0.380159 -0.810605
0.433544 -0.690945 -0.097040
0.401663 0.000687 -0.783414
0.394153 0.337620 -0.404738
-0.596500 0.326661 -0.100487
-0.264424 0.013853 -0.787128
0.081346 0.380615 -0.808457
0.412830 0.358868 0.270795
0.414042 0.361315 0.272649
0.076804 -0.711929 -0.436650
0.073459 0.725180 -0.429634
-0.271778 -0.728382 -0.068512
0.073937 0.723298 -0.428457
-0.216394 -0.335346 -0.420054
-0.630700 -0.722018 0.286485
0.392760 0.337478 -0.404825
0.088297 -0.731430 0.266217
0.401526 -0.001004 -0.784423
0.073278 0.725087 -0.428672
0.072289 0.722703 -0.428402
-0.270963 -0.729295 -0.067703
0.422185 0.704027 -0.057390
-0.632896 -0.719241 0.285645
-0.247383 0.712073 0.625488
0.389885 -0.310841 -0.419869
0.072904 0.723858 -0.430343
-0.621751 -0.001623 0.278126
-0.621613 -0.000549 0.279166
-0.632797 -0.720249 0.286779
0.065476 0.728352 0.253906
-0.270789 -0.729495 0.629784
-0.635170 0.682767 0.260077
0.433374 -0.690738 -0.095627
0.079268 0.382011 -0.810793
0.782231 -0.002250 0.277469
0.766913 0.014768 -0.424321
-0.281316 0.703362 -0.077792
-0.272304 -0.730738 -0.067486
0.086689 -0.731231 0.264674
-0.634227 0.681354 0.261641
-0.272139 -0.728325 0.629833
0.766154 0.013628 -0.423212
0.769164 0.016130 -0.423937
-0.246942 0.711521 0.626649
-0.613906 -0.035167 -0.409528
-0.269268 -0.728177 -0.067573
0.389821 -0.310492 -0.417523
0.057209 -0.353874 0.588522
0.433519 -0.689994 -0.094582
0.432759 -0.350810 0.279715
-0.286040 0.020706 0.631562
0.779605 -0.331640 -0.070532
0.770257 0.012909 -0.424583
-0.253411 0.375038 -0.442797
0.781683 -0.000654 0.277699
0.435479 -0.689179 -0.096598
0.420350 0.703957 -0.059425
0.768438 0.014889 -0.424257
-0.615846 -0.034995 -0.408435
-0.272228 -0.729222 -0.069203
0.431920 -0.690162 -0.095447
0.391597 0.335641 -0.403942
0.421561 0.702475 -0.060601
0.087073 -0.731436 0.266792
-0.633073 0.349014 0.623053
0.074066 0.724370 -0.430479
0.400968 -0.001118 -0.783403
0.078276 -0.712769 -0.435848
0.392911 0.337277 -0.406487
-0.632752 -0.719532 0.285544
-0.615561 -0.034599 -0.407997
-0.265883 0.014835 -0.787025
0.432995 -0.349607 0.277104
-0.274474 -0.728542 0.626999
0.425759 0.001435 0.625302
0.433123 -0.689865 -0.094756
-0.286986 0.018283 0.632535
-0.633893 0.682999 0.261340
-0.596269 0.327554 -0.101068
0.432123 -0.350540 0.280569
-0.622020 -0.000640 0.278485
0.081314 0.380282 -0.811643
-0.635502 0.681803 0.262517
0.065360 0.730006 0.254445
-0.269272 -0.730820 -0.068653
0.412154 0.359991 0.271036
0.791068 0.343022 -0.059434
0.393172 0.337642 -0.406357
0.077129 -0.713219 -0.437044
-0.288305 0.020888 0.631971
-0.218266 -0.334376 -0.418910
0.768560 0.014004 -0.424932
-0.597895 -0.364875 0.621403
0.433463 -0.691834 -0.095954
-0.620110 -0.000282 0.276441
0.790159 0.343027 -0.058106
-0.594657 0.326658 -0.099932
-0.270724 -0.729434 -0.068832
-0.600894 -0.385428 -0.055289
-0.598785 -0.365224 0.619369
-0.253546 0.370476 -0.442854
-0.270635 -0.728824 -0.067094
0.781762 -0.001176 0.277403
0.783486 -0.002236 0.277438
-0.597687 0.327307 -0.098531
0.435144 -0.690561 -0.096478
0.080196 -0.345453 -0.806192
-0.286261 0.019806 0.630787
0.077565 -0.711384 -0.436845
-0.255421 0.373417 -0.442402
-0.621264 -0.001898 0.279324
-0.597247 -0.367580 0.620458
0.079336 -0.345067 -0.809274
-0.248336 0.711572 0.626616
0.390306 -0.311889 -0.418159
-0.633504 0.351318 0.622079
-0.269700 -0.729961 -0.067269
0.425483 0.001942 0.627052
0.768991 0.015126 -0.424791
0.073029 0.725002 -0.428333
0.398822 0.001772 -0.783636
0.431671 -0.350200 0.278722
0.086397 -0.732310 0.265113
-0.632560 -0.719750 0.284614
0.056340 -0.353645 0.588549
0.431031 -0.349897 0.276662
0.087639 -0.733815 0.266795
0.425381 0.002470 0.625701
-0.269233 -0.728861 -0.066554
0.087224 -0.730829 0.264668
0.080887 0.351481 0.652739
-0.265044 0.013940 -0.788172
-0.634486 0.682946 0.261197
0.400679 -0.000935 -0.784450
0.077717 -0.712738 -0.436413
-0.286632 0.020628 0.632125
0.081045 0.381206 -0.811670
-0.602158 -0.386271 -0.056064
0.421016 0.702743 -0.059808
0.077067 -0.712326 -0.436382
0.432478 -0.691379 -0.095995
-0.596262 0.326341 -0.102148
0.393874 0.337112 -0.406709
-0.602910 -0.385179 -0.058759
0.789126 0.344178 -0.057608
0.077935 -0.711811 -0.436309
0.079448 -0.345789 -0.807970
-0.273436 -0.727319 0.630344
-0.602108 -0.384910 -0.057518
-0.595868 0.329138 -0.100591
0.056204 -0.354434 0.589333
0.392529 0.338515 -0.404713
0.433494 -0.690279 -0.095538
0.080332 -0.346310 -0.809647
0.056346 -0.353412 0.588961
0.085528 -0.731991 0.264475
0.079406 -0.345232 -0.808404
0.073823 0.725797 -0.430348
0.780438 -0.332008 -0.070556
0.399607 0.000286 -0.783334
0.080124 -0.346868 -0.809192
0.077536 -0.713174 -0.434724
0.790155 0.344925 -0.057942
-0.597970 -0.365470 0.620011
0.079370 0.352249 0.651843
0.433307 -0.689968 -0.094940
-0.264708 0.013823 -0.789678
-0.595988 0.327836 -0.100778
0.081546 0.381672 -0.811262
0.390067 -0.310186 -0.418736
-0.273710 -0.727037 0.627995
-0.264464 0.013743 -0.787681
-0.269825 -0.730580 -0.069996
0.789935 0.343682 -0.057253
-0.268122 -0.729861 -0.066503
0.401887 -0.000701 -0.786330
-0.601355 -0.386807 -0.055537
-0.250366 0.711980 0.626249
0.073563 0.723262 -0.427025
-0.263401 0.015928 -0.788181
0.080640 0.380446 -0.811976
-0.598525 -0.366782 0.618137
-0.270318 -0.727405 -0.067325
0.080901 0.379768 -0.813036
-0.598756 -0.365560 0.618530
