OFF
256 0 0
-0.617590 0.720212 0.273157
-0.246477 0.329946 -0.410028
-0.604987 0.372653 -0.051513
-0.612964 -0.364829 -0.086568
-0.623368 0.014701 -0.390664
-0.611738 -0.357202 0.605753
-0.260930 -0.687438 -0.060527
0.085544 -0.331148 0.619091
0.058615 0.689731 0.287914
0.426052 -0.338897 -0.388001
-0.613665 -0.356837 0.605803
-0.600634 0.358613 0.586993
0.747646 0.369209 -0.087278
-0.249472 0.329596 -0.410138
0.061720 0.333794 0.608954
0.076024 0.346826 -0.790165
-0.262079 -0.686989 -0.061751
-0.281832 0.700154 0.630341
0.070827 -0.691153 -0.421218
-0.279519 -0.692047 0.599381
0.418805 0.316966 -0.406861
0.082569 -0.327406 0.620682
0.425622 -0.338251 -0.388933
-0.610030 -0.356926 0.605713
-0.621224 0.015367 -0.389979
0.083704 -0.329191 0.621543
-0.602663 0.358455 0.587882
-0.277711 -0.693513 0.598267
-0.612478 -0.358835 0.606247
0.419160 0.317636 -0.406988
-0.268148 0.001678 -0.771937
0.076020 0.348414 -0.790192
-0.624721 -0.024663 0.258731
-0.260253 -0.355320 -0.418541
0.072564 -0.692405 -0.420081
-0.622600 0.015288 -0.388408
0.771411 0.006483 -0.399561
0.804576 -0.345814 -0.078769
0.087947 0.705246 -0.413973
-0.268366 0.001392 -0.772320
-0.613755 -0.363205 -0.085152
0.400669 0.353592 0.261813
0.766656 -0.002089 0.248255
-0.660363 -0.698441 0.278669
0.073253 -0.691792 -0.419942
0.748652 0.368196 -0.086750
0.746081 0.369484 -0.087351
-0.258106 -0.355517 -0.416643
0.401144 0.353183 0.262133
-0.277686 -0.016281 0.588561
0.086089 -0.328815 0.620421
-0.623767 -0.026765 0.260799
0.435604 0.705501 -0.101929
0.090040 0.703591 -0.415666
-0.612801 -0.363820 -0.087432
-0.621356 0.015663 -0.389894
0.804366 -0.343274 -0.077377
0.428837 -0.339030 -0.389685
-0.601588 0.374694 -0.052338
-0.601699 0.357692 0.587079
0.076437 0.347977 -0.789742
0.421876 -0.704090 -0.083762
-0.248330 0.728032 -0.076049
0.070613 -0.692122 -0.420008
0.087253 0.703404 -0.413584
-0.601577 0.372355 -0.053920
-0.247986 0.728455 -0.077973
0.422135 -0.703142 -0.083906
0.079462 -0.689881 0.286817
-0.281855 0.701121 0.630042
0.071454 -0.691549 -0.420147
0.768835 0.008728 -0.397712
0.425276 -0.339136 0.252549
-0.602470 0.374136 -0.053780
-0.601010 0.359651 0.588360
-0.621783 0.016457 -0.392101
-0.609725 -0.359105 0.607259
0.061728 0.332834 0.607785
0.418840 -0.035081 -0.779666
-0.260581 -0.686806 -0.059984
0.085942 -0.327451 0.621865
-0.621322 0.016324 -0.390081
-0.280926 0.700746 0.631247
-0.276012 -0.015931 0.589711
-0.281494 0.700036 0.631348
0.061679 0.333600 0.608670
0.420017 -0.033510 -0.780424
0.430533 -0.030639 0.634698
0.089328 -0.357089 -0.794546
-0.263071 -0.689715 -0.060085
-0.259286 -0.356526 -0.417212
-0.625426 -0.026965 0.259962
0.424029 -0.339448 0.251129
-0.621743 0.016356 -0.389695
0.764702 -0.000190 0.247744
0.424176 -0.337984 0.251048
0.805228 -0.347626 -0.080198
0.079957 -0.688191 0.286370
-0.279684 0.699624 0.630848
-0.261017 -0.355162 -0.417286
0.403146 0.354162 0.260926
-0.270660 0.000330 -0.771429
-0.258300 -0.355646 -0.416690
-0.623310 -0.026611 0.259315
0.422384 -0.705007 -0.085561
0.425928 -0.340174 0.252398
-0.279557 0.700968 0.631194
-0.276715 -0.015774 0.588720
-0.623809 0.016517 -0.390261
-0.611092 -0.364186 -0.086171
0.419004 0.318828 -0.407541
0.075046 0.348066 -0.787302
-0.622627 0.016028 -0.389957
0.055517 0.687354 0.289462
0.419017 0.319678 -0.407626
-0.601975 0.360294 0.586524
0.089578 -0.355399 -0.793457
-0.282100 0.701042 0.631822
-0.617532 0.722060 0.272237
-0.611471 -0.360082 0.607395
0.084821 -0.329268 0.621617
-0.624071 -0.026917 0.258879
0.427701 -0.337182 -0.387836
-0.601952 0.358246 0.587653
0.090274 -0.355102 -0.795567
0.061155 0.332309 0.610352
-0.269375 0.002821 -0.771206
0.079788 -0.688658 0.284914
0.425422 -0.338568 0.253201
-0.259115 -0.354813 -0.417126
-0.613518 -0.363145 -0.085759
-0.278208 0.700598 0.630463
0.089142 -0.356612 -0.792106
0.088045 0.704410 -0.412630
0.418395 0.318392 -0.406797
0.087952 0.705012 -0.415569
-0.262545 -0.687187 -0.061170
0.426872 -0.339127 -0.387562
-0.280885 -0.014686 0.589539
0.746600 0.369222 -0.086756
0.060539 0.332837 0.607129
0.421586 -0.703908 -0.084479
-0.246554 0.727798 -0.076148
0.434884 0.703856 -0.105147
-0.660798 -0.699633 0.276886
0.748397 0.368471 -0.087832
-0.613166 -0.363069 -0.084507
-0.621848 0.017871 -0.389815
0.749671 0.368171 -0.088679
-0.281554 0.700609 0.632035
-0.611309 -0.358289 0.607062
-0.602934 0.374519 -0.054532
0.061044 0.332720 0.609591
0.087007 -0.329289 0.619879
-0.258571 -0.356665 -0.416871
0.060867 0.332178 0.606944
-0.248934 0.728669 -0.078803
0.435560 0.707580 -0.102269
0.419895 0.318848 -0.407329
-0.259110 -0.356005 -0.416749
0.769981 0.007574 -0.400190
-0.612412 -0.363107 -0.085541
0.088940 -0.354891 -0.793487
0.417827 0.317273 -0.407840
-0.660909 -0.698304 0.276902
0.437294 0.705362 -0.103227
0.071235 -0.692810 -0.420582
0.748342 0.367850 -0.086347
0.423672 -0.703648 -0.083912
-0.279542 -0.692122 0.599199
0.423624 -0.702779 -0.085497
0.420197 -0.035804 -0.781151
-0.256624 -0.356371 -0.416009
-0.612770 -0.358942 0.606255
-0.659682 -0.697786 0.277364
-0.617550 0.722127 0.272271
-0.260195 -0.687918 -0.061588
0.807039 -0.344714 -0.079688
0.425233 -0.340633 0.252676
-0.280185 0.698691 0.631683
-0.610889 -0.363387 -0.086658
0.433975 0.705469 -0.104288
-0.610420 -0.358666 0.607554
0.419909 0.318992 -0.408740
0.806689 -0.347268 -0.079479
0.088532 -0.354866 -0.791707
0.767188 -0.002092 0.246654
0.769146 0.008029 -0.398133
0.765943 -0.000036 0.248079
0.086718 -0.327732 0.622938
-0.247827 0.725246 -0.080449
-0.610982 -0.365099 -0.085036
-0.258600 -0.689629 -0.060961
0.076729 0.348984 -0.788599
-0.258727 -0.354672 -0.418014
-0.249369 0.726665 -0.080065
0.424780 -0.338630 0.251771
0.087816 -0.353545 -0.793623
-0.623664 -0.024164 0.260397
0.747765 0.368097 -0.087048
-0.613761 -0.361491 -0.086524
-0.622895 -0.025364 0.260723
-0.661265 -0.698337 0.276925
0.062873 0.332784 0.608450
0.803106 -0.345632 -0.079676
0.418873 -0.036085 -0.782810
-0.268804 0.002421 -0.769937
0.768038 -0.000512 0.247524
0.805145 -0.347129 -0.078279
-0.270157 0.001481 -0.772550
-0.624255 -0.026175 0.259318
-0.612093 -0.363656 -0.087154
0.766338 -0.000425 0.249167
-0.261961 -0.685302 -0.063273
0.430777 -0.028558 0.633251
0.060689 0.331864 0.607566
0.435121 0.705923 -0.102356
-0.276204 -0.016311 0.587720
0.749051 0.369524 -0.086618
0.084065 -0.328355 0.621653
0.402029 0.354162 0.261512
0.077830 0.349071 -0.791638
-0.610231 -0.358153 0.607103
-0.277507 -0.014078 0.588961
-0.280869 -0.692792 0.600441
0.436224 0.706318 -0.102605
0.088236 0.703945 -0.415570
-0.250233 0.332108 -0.409811
0.768801 0.000364 0.248243
0.747821 0.368455 -0.087012
0.766284 -0.000538 0.248804
0.421297 -0.704401 -0.084272
0.055901 0.687299 0.286569
0.769215 0.007126 -0.398255
-0.261018 -0.356523 -0.417394
-0.600155 0.359216 0.586253
0.423906 -0.340484 0.250982
0.088516 -0.353953 -0.791346
0.079741 -0.689194 0.287662
-0.612951 -0.362894 -0.088547
-0.611799 -0.363662 -0.083148
0.060166 0.331548 0.608003
-0.250100 0.330869 -0.407701
-0.267602 0.001363 -0.771014
0.075726 0.346560 -0.790626
0.747565 0.369332 -0.085965
-0.616218 0.720946 0.273691
-0.280501 -0.694012 0.598491
0.071513 -0.692412 -0.419444
0.436396 0.707611 -0.104652
-0.260663 -0.686229 -0.061518
-0.622697 0.015707 -0.391118
0.436367 0.705318 -0.102824
-0.623721 -0.027129 0.260240
-0.602457 0.373158 -0.052881
0.078073 -0.688854 0.286101
