OFF
256 0 0
-0.000773 -0.798207 -0.437061
-0.000166 0.277451 -0.795354
0.358651 -0.079479 -0.798576
-0.000554 -0.796914 -0.437531
-0.000113 0.279345 0.638817
-0.717642 0.279427 -0.079620
-0.357870 0.638831 -0.079371
-0.358827 -0.438604 0.278892
0.000124 -0.798624 -0.439053
-0.357545 -0.080226 -0.799399
-0.001118 -0.437720 -0.796710
0.719003 -0.438252 -0.080942
-0.359250 -0.438435 -0.438454
-0.717682 -0.079316 -0.437501
0.717129 0.279880 -0.079687
-0.719019 0.276994 -0.079719
0.357685 -0.080012 -0.798829
-0.359100 0.278749 -0.438792
-0.359051 0.637327 0.637784
-0.718748 -0.439083 -0.081999
0.359232 0.638569 0.638854
-0.358629 0.280944 -0.437772
0.358961 -0.799841 -0.080610
-0.003498 -0.796565 0.279594
0.718587 -0.081643 -0.440908
0.716543 0.637797 0.280103
0.358043 0.280258 -0.438162
0.358748 -0.437765 -0.439600
0.359202 -0.796898 -0.079041
-0.357643 0.636984 0.637887
-0.357810 0.278852 -0.438900
-0.000588 0.279226 -0.798096
0.717065 0.279968 -0.080515
-0.719247 0.637731 0.277101
0.359649 0.638104 -0.080096
0.717157 0.278743 0.638870
0.717595 0.277547 -0.077418
-0.360218 -0.081435 0.636685
-0.718335 -0.078803 0.278943
0.358990 -0.796396 -0.078393
-0.357841 -0.796876 -0.081572
0.002471 -0.797767 0.277422
0.357363 0.638030 -0.078081
0.718450 0.638929 0.280691
-0.718536 -0.078514 0.278411
-0.358158 0.638470 -0.081018
-0.358178 0.279330 -0.439681
0.356842 -0.798263 -0.081157
-0.358791 -0.796899 -0.078673
0.717436 0.279556 -0.079396
0.717748 0.279127 0.638090
-0.718363 -0.438139 -0.079679
0.001689 -0.438771 -0.797858
0.001241 0.281171 0.637639
-0.357297 0.637585 -0.081043
0.717640 0.279541 0.638239
-0.718796 -0.438343 -0.079322
0.358544 -0.440007 0.278251
0.718605 -0.438724 -0.081602
-0.718068 0.278740 -0.078868
-0.001756 0.638841 0.278024
-0.000908 -0.797950 0.278487
-0.359674 -0.438500 -0.440346
0.716955 -0.439415 -0.077314
-0.717109 -0.080113 -0.438877
0.358596 0.637026 0.636489
-0.360208 -0.437738 -0.438580
-0.718150 -0.078711 -0.439671
-0.719578 -0.439029 -0.080029
-0.358224 -0.797211 -0.079899
0.717261 0.638346 0.278554
-0.717339 -0.081267 -0.438882
-0.000664 -0.438002 0.638468
0.359595 0.635351 0.640060
0.000676 -0.799816 -0.437293
-0.716779 0.638546 0.278981
-0.357540 -0.439628 0.279012
0.359792 -0.079351 -0.796913
-0.359416 -0.439361 0.278494
0.719109 0.278544 0.638805
0.717158 0.279204 -0.080448
0.001001 0.281072 -0.799579
0.717958 -0.079781 0.279901
-0.718247 0.279893 0.639521
0.358999 0.279198 -0.441998
0.719608 0.279349 -0.080600
-0.000202 -0.439286 0.637722
0.716990 0.279452 -0.081195
0.718497 0.278853 0.637632
0.716644 0.638643 0.277814
0.361531 -0.078767 -0.796053
0.719285 0.639060 0.278714
-0.715895 0.278861 -0.080421
0.358757 0.639040 0.637100
-0.359824 -0.441514 -0.438371
-0.718984 0.279907 0.638778
0.359330 0.637516 -0.077914
0.718284 0.279192 0.636999
0.359166 -0.437403 0.279670
0.716233 -0.080348 -0.437346
-0.717772 -0.080949 0.280499
0.719122 0.278323 -0.080622
-0.717291 -0.079373 0.280631
-0.358730 0.638033 0.638895
0.358609 -0.079041 -0.797063
-0.719662 -0.439423 -0.079468
0.359285 -0.080303 0.640357
-0.359139 -0.079216 -0.799370
0.716214 -0.080258 -0.438962
-0.000476 0.639022 -0.438402
0.000335 0.638218 -0.438075
0.359567 -0.797158 -0.080006
0.357241 -0.797031 -0.079717
-0.718291 -0.079659 0.277642
-0.358475 -0.080711 0.637193
-0.000529 0.277853 0.637197
0.000912 -0.796749 0.279377
-0.715794 0.638143 0.278993
0.358978 -0.078405 -0.797659
-0.717978 -0.079462 0.279642
-0.000933 0.637856 -0.438773
0.000968 -0.797844 0.279670
0.358648 -0.080202 0.639119
0.358548 0.278495 -0.438776
0.358578 0.279296 -0.438864
0.358083 0.636963 -0.079410
-0.358890 -0.439791 0.279229
-0.717763 -0.438826 -0.080252
-0.002352 0.636719 -0.438702
-0.000652 0.277688 -0.797038
-0.001058 0.638673 -0.439802
0.359499 -0.796488 -0.078418
-0.357633 -0.439884 -0.438919
0.716236 -0.080646 0.279716
0.360100 -0.437223 0.277161
0.720160 -0.079706 -0.438441
-0.717660 0.278851 -0.080355
0.357179 -0.080151 0.637101
0.358160 -0.439735 0.280530
0.360239 -0.798111 -0.081167
0.717542 0.279760 -0.078300
0.358530 0.279513 -0.438753
-0.717574 0.279836 -0.079253
0.000518 0.279225 0.638028
-0.717922 -0.438132 -0.080273
-0.359273 -0.079298 -0.796867
0.001674 -0.797373 -0.439556
0.357966 -0.437500 0.278175
0.359212 -0.078894 -0.796267
-0.358692 0.638948 -0.081414
-0.358456 0.638475 0.638177
-0.359548 -0.079203 -0.797760
-0.359780 -0.797177 -0.078257
0.717428 0.278612 0.637983
-0.715480 0.281568 0.637558
-0.358320 0.638565 -0.081572
0.718688 -0.078025 0.279794
0.360191 -0.798695 -0.079613
-0.718349 0.638784 0.278674
-0.717012 -0.079389 0.278417
-0.717203 0.279172 0.637651
0.002797 -0.438279 0.638566
-0.358684 -0.081397 0.638778
-0.716707 0.638809 0.278778
0.359064 -0.439802 -0.437237
0.716136 0.278014 0.637896
0.358165 -0.439343 -0.439896
0.358226 0.279377 -0.437897
-0.716867 0.637073 0.280641
0.357996 -0.797430 -0.078718
-0.360504 -0.438102 -0.438546
0.357469 -0.079442 0.637596
-0.360134 0.637910 -0.077996
-0.716652 -0.080178 -0.438105
-0.360544 -0.796632 -0.078493
-0.000736 -0.798921 -0.440180
0.717859 0.280189 -0.081127
-0.358433 -0.080412 0.638262
0.357898 -0.079810 -0.796567
-0.000164 -0.798346 0.279157
0.000169 0.637209 -0.437493
-0.717892 0.278799 -0.079893
-0.717060 0.279153 0.637702
0.000204 -0.439341 -0.798275
-0.359079 0.637297 -0.080885
-0.718418 0.278590 -0.079940
-0.718731 -0.080533 0.278636
-0.360578 0.638110 -0.078525
-0.358453 0.279092 -0.438157
-0.000105 -0.796311 0.277863
-0.716821 0.640881 0.280432
-0.359080 -0.079531 -0.798634
0.358336 -0.796644 -0.081714
0.359616 -0.797035 -0.081047
0.716718 -0.080798 -0.438272
-0.355621 0.640630 0.638298
0.716908 -0.439319 -0.079153
-0.001635 -0.797725 0.277304
-0.000713 0.639752 -0.439222
0.357832 0.637607 0.637783
0.358705 -0.438103 -0.438929
-0.359164 -0.439476 -0.437763
-0.357817 0.278305 -0.438691
0.001593 0.640015 0.278773
0.359178 0.277345 -0.437587
0.358838 -0.080356 -0.797217
-0.357692 -0.080257 0.637259
-0.717957 0.280343 -0.080069
0.718677 0.640512 0.276611
0.358291 -0.438675 0.278639
0.357538 -0.439263 0.278502
0.718328 -0.079156 -0.437559
-0.358211 -0.437105 -0.438936
0.359295 0.637937 -0.079456
-0.719407 -0.081667 -0.437858
0.719474 0.276326 0.639308
0.716023 0.278669 -0.077846
0.358377 -0.438772 0.280739
0.718481 -0.080455 -0.439796
0.717273 0.278833 -0.079309
0.000020 0.279102 0.637776
-0.718734 -0.080792 -0.437884
0.717302 -0.077240 0.277948
0.715950 -0.437273 -0.078421
-0.359124 0.637523 0.638545
-0.717938 -0.079868 0.279108
-0.359906 -0.078902 -0.798011
0.355552 0.278898 -0.438992
-0.718170 -0.079528 -0.436992
-0.357187 0.280517 -0.440068
0.357556 -0.078747 0.639559
0.000137 0.640231 -0.436891
-0.359506 -0.080019 -0.797400
0.717217 -0.078779 -0.436943
0.718656 -0.078836 0.278784
-0.358216 -0.797206 -0.080439
-0.359818 -0.077610 -0.797125
-0.000038 0.640326 0.278165
-0.000436 -0.797032 0.281427
0.000198 -0.796002 -0.437546
-0.001003 -0.438246 -0.796713
-0.003112 0.637726 0.280483
0.359563 -0.437765 0.280147
0.717493 0.637010 0.279997
0.358504 -0.078617 0.639650
0.358285 -0.438836 -0.438525
-0.716133 -0.079692 0.278742
-0.718165 0.279025 -0.079475
0.714878 0.281687 -0.077969
0.359235 0.639485 -0.079975
-0.357691 -0.438877 -0.439747
0.717827 0.277637 -0.079792
0.718249 0.638718 0.280666
0.360425 -0.439110 0.279672
0.000326 0.637684 0.278886
0.716405 0.638140 0.276866
