OFF
256 0 0
-0.340608 -0.744622 -0.067514
0.327720 0.277564 -0.447150
0.383175 -0.064284 0.650473
-0.329425 0.599197 -0.055406
0.346374 -0.762153 -0.074743
0.335592 -0.077097 -0.790848
-0.358677 -0.414556 0.267336
-0.358339 -0.414769 0.265452
0.381183 -0.065181 0.649708
0.314619 -0.449403 -0.443766
0.371220 0.601987 0.603601
-0.327383 0.598252 -0.051962
0.699462 0.260402 -0.106072
0.315161 -0.448568 -0.444818
-0.343525 -0.747259 -0.069543
0.329150 0.277745 -0.445090
0.379193 -0.065009 0.649226
-0.719554 -0.102594 0.281949
-0.009104 -0.437479 -0.794639
-0.018629 0.271875 0.638855
-0.347656 -0.084885 0.622025
-0.019001 0.270105 0.639915
-0.035749 -0.777152 -0.413433
0.346079 -0.761819 -0.075368
0.014479 0.636320 0.290474
-0.357110 -0.415343 0.267232
0.335643 -0.421134 0.284430
0.352026 0.639905 -0.084060
-0.359289 -0.415948 0.268256
-0.344019 -0.746794 -0.068929
-0.343903 -0.748046 -0.070674
0.014088 0.629995 -0.432734
0.347260 -0.763225 -0.074376
-0.327529 -0.400169 -0.417962
-0.720409 -0.100019 0.284621
-0.327543 -0.402140 -0.417740
-0.019585 0.274882 0.636630
0.314091 -0.447610 -0.445120
0.712733 0.274790 0.643201
-0.686901 0.619619 0.277017
-0.321029 0.240136 -0.410733
0.337449 -0.078652 -0.790872
-0.358323 -0.414850 0.267828
0.013292 0.627923 -0.431287
0.015122 0.636225 0.291539
-0.325754 -0.401324 -0.421003
0.337438 -0.076938 -0.787691
-0.001181 0.296597 -0.802794
-0.018577 0.270249 0.637727
0.015231 0.635657 0.291173
0.670847 -0.413530 -0.081203
-0.702879 -0.426392 -0.082248
-0.349325 -0.062629 -0.790152
0.347698 -0.762727 -0.075039
-0.036857 -0.778300 -0.411455
0.315730 -0.450178 -0.443435
0.001151 -0.417711 0.630592
0.012121 0.631098 -0.432459
-0.327417 -0.400414 -0.420903
-0.003339 0.296608 -0.803993
-0.704438 -0.426546 -0.079833
0.718062 0.629804 0.267519
0.345880 -0.761274 -0.074679
0.673016 -0.415820 -0.080306
-0.001822 0.297765 -0.802516
0.371387 0.601679 0.603855
0.697100 0.260522 -0.107558
-0.704472 0.255990 -0.087500
0.336412 -0.422219 0.284227
0.689089 -0.082568 -0.419626
0.335736 -0.077111 -0.789226
0.688833 -0.082740 -0.419307
0.015891 0.628496 -0.431151
-0.707405 -0.080389 -0.441416
0.029334 -0.787115 0.257383
0.336859 -0.077114 -0.789555
0.706194 -0.072200 0.263012
0.012721 0.628786 -0.431644
0.689377 -0.082105 -0.421910
-0.342440 -0.747752 -0.069437
-0.705446 -0.424173 -0.080422
-0.350501 0.602603 0.618045
0.697020 0.259694 -0.104247
0.705826 -0.072459 0.262631
0.697388 0.260383 -0.105675
0.345166 -0.763095 -0.077607
0.690387 -0.083001 -0.423397
0.334952 -0.422517 0.283602
0.336551 -0.076294 -0.789131
-0.325632 -0.402870 -0.418368
-0.350019 0.601954 0.616856
-0.688791 0.618390 0.276864
0.372992 0.599575 0.603694
0.719702 0.628028 0.267093
0.713911 0.274516 0.643661
-0.705700 0.254581 -0.089067
-0.351540 -0.062549 -0.792353
-0.706624 0.253858 0.641059
0.335521 -0.420631 0.283240
-0.327608 -0.399400 -0.419313
-0.346141 -0.085924 0.620638
0.670658 -0.412298 -0.082849
0.314505 -0.448701 -0.441992
-0.357483 -0.416521 0.268112
0.706070 -0.073061 0.260438
0.718393 0.629048 0.267607
-0.327257 0.599107 -0.055529
0.381831 -0.064721 0.649816
0.025900 -0.786895 0.257073
0.697128 0.261825 -0.105411
-0.020250 0.274133 0.638099
0.347117 -0.763246 -0.075782
0.315641 -0.450436 -0.444884
-0.035197 -0.778045 -0.409900
0.012997 0.626688 -0.431716
0.346257 -0.762914 -0.074135
0.380454 -0.063154 0.650955
-0.321576 0.238794 -0.412367
0.353295 0.639327 -0.083109
0.029697 -0.787826 0.258869
0.345368 -0.763567 -0.076053
-0.327480 0.596634 -0.055521
0.370740 0.598798 0.603866
0.720387 0.628103 0.267715
-0.704667 -0.425564 -0.081062
0.674254 -0.413446 -0.080414
0.704872 -0.069687 0.262447
-0.330359 0.598153 -0.054578
0.015623 0.635866 0.289573
0.353852 0.639099 -0.083970
-0.703987 -0.427290 -0.080425
-0.354085 0.601829 0.616204
0.316575 -0.449977 -0.442879
-0.704086 0.255770 -0.090954
-0.719753 -0.100273 0.282257
-0.344186 -0.746714 -0.069690
-0.348803 -0.085083 0.623927
0.717978 0.627926 0.266247
-0.705243 -0.079406 -0.442414
-0.328647 0.597854 -0.054800
0.718133 0.627677 0.268745
0.699923 0.258393 -0.105772
0.001489 -0.417186 0.631085
-0.328197 0.600394 -0.054303
0.718842 0.628942 0.268216
0.002688 -0.417279 0.632052
-0.720698 -0.102582 0.282663
0.690412 -0.083863 -0.421606
0.344467 -0.764421 -0.076324
0.381540 -0.065019 0.649006
-0.008124 -0.435561 -0.793238
0.381204 -0.066335 0.649361
0.002211 -0.417477 0.631721
-0.350905 -0.063393 -0.788601
0.691079 -0.082578 -0.420224
-0.349799 0.602148 0.617233
-0.704314 -0.426176 -0.079525
0.718568 0.629329 0.267624
0.336842 -0.074566 -0.790185
0.001632 -0.417336 0.632157
-0.320317 0.239138 -0.411496
0.012955 0.630148 -0.431677
0.381001 -0.066275 0.649662
-0.707925 0.252856 0.640987
-0.320441 0.238289 -0.411153
-0.320464 0.241061 -0.410917
0.347284 -0.763927 -0.076105
0.337087 -0.077051 -0.789422
0.338097 -0.077008 -0.790038
0.337876 -0.421882 0.284187
0.314285 -0.448160 -0.443735
-0.703096 0.256661 -0.090335
-0.347758 -0.086298 0.622859
-0.721260 -0.100755 0.283469
0.337351 -0.075762 -0.790653
-0.002533 0.295332 -0.802431
0.381926 -0.065165 0.648078
0.334663 -0.420666 0.284455
-0.705840 0.254066 0.639981
-0.352411 0.600809 0.618264
-0.704214 -0.426082 -0.080662
-0.349888 -0.061913 -0.789424
-0.326221 -0.400094 -0.419407
0.371020 0.598750 0.603853
0.329380 0.277192 -0.447421
0.027560 -0.787778 0.259692
0.372402 0.601290 0.602905
-0.019687 0.273547 0.637565
-0.321015 0.237758 -0.412429
0.334513 -0.077789 -0.788383
-0.326958 -0.400750 -0.416735
-0.341714 -0.746867 -0.068973
0.704167 -0.070907 0.262783
-0.707029 -0.081148 -0.442156
0.313715 -0.451261 -0.442753
0.335931 -0.075877 -0.791363
0.698201 0.258241 -0.105086
0.337666 -0.076408 -0.788325
-0.328303 0.598452 -0.054093
0.315250 -0.448755 -0.441997
0.688076 -0.081421 -0.420585
-0.350954 -0.064128 -0.790573
0.338277 -0.076158 -0.790063
-0.345012 -0.747586 -0.069722
-0.322200 0.239018 -0.412336
-0.717568 -0.100543 0.283535
0.704410 -0.071176 0.265035
0.315187 -0.448741 -0.444609
-0.705122 0.254794 -0.090188
0.001987 -0.418095 0.632440
0.670951 -0.411828 -0.082129
-0.328610 -0.401024 -0.418228
0.714081 0.274926 0.643484
-0.008200 -0.439143 -0.790792
-0.721100 -0.100606 0.283652
-0.686989 0.617621 0.277585
-0.349517 -0.062194 -0.791643
0.335876 -0.420816 0.284218
0.335301 -0.422385 0.283191
0.314724 -0.448918 -0.444323
0.713340 0.277546 0.643121
0.315605 -0.449910 -0.442155
-0.702523 -0.426354 -0.080000
-0.010570 -0.438826 -0.793250
0.382773 -0.064853 0.649452
0.670467 -0.415140 -0.080099
0.697296 0.261057 -0.106231
0.698268 0.259675 -0.106442
0.014814 0.635123 0.290860
-0.351694 0.601429 0.617946
-0.342743 -0.747739 -0.069463
-0.008472 -0.438492 -0.794146
-0.036494 -0.778401 -0.411045
0.715761 0.273759 0.645445
-0.034918 -0.777677 -0.411691
0.697940 0.261214 -0.104132
0.352489 0.637523 -0.083741
-0.343449 -0.747369 -0.070817
0.011328 0.628291 -0.431928
-0.344160 -0.746807 -0.071511
0.717465 0.628877 0.268098
-0.324646 -0.399678 -0.419297
0.015640 0.628928 -0.431754
-0.708997 0.254715 0.642144
-0.704585 -0.426055 -0.079403
0.336886 -0.077590 -0.789672
-0.002472 0.296768 -0.801617
0.002531 -0.417872 0.629988
0.669825 -0.413501 -0.080076
0.346388 -0.763763 -0.074781
0.718875 0.629553 0.267497
0.014852 0.636822 0.290067
-0.321052 0.237801 -0.411480
-0.035685 -0.778919 -0.411280
-0.008182 -0.437750 -0.791195
-0.347007 -0.086816 0.621922
