OFF
256 0 0
-0.010152 -0.821860 0.257518
-0.715345 0.256399 0.649287
-0.720956 -0.074962 0.260262
-0.010041 -0.822359 0.259096
-0.665394 0.281771 -0.116418
-0.319778 -0.432278 -0.408919
0.001522 -0.802040 -0.435786
0.326981 -0.795427 -0.083547
-0.004051 0.648701 -0.417047
-0.727105 0.614235 0.277049
-0.005489 0.644960 -0.416992
-0.666908 0.281160 -0.117158
0.697145 -0.429665 -0.057342
0.671632 -0.062727 -0.401590
0.015247 0.276202 0.642473
-0.699638 -0.073696 -0.412947
-0.666436 0.280885 -0.116836
0.326803 -0.796899 -0.086515
0.015736 0.277352 0.642919
0.018854 0.276565 0.642547
-0.346273 0.619174 -0.067521
-0.727676 0.614625 0.277509
-0.005583 0.276920 -0.811225
0.699987 0.618347 0.267931
-0.318130 -0.434463 -0.408925
0.344021 0.294839 -0.436351
-0.314848 0.261025 -0.446613
0.703305 0.279792 -0.055732
0.721973 -0.079562 0.297144
-0.010638 -0.823274 0.259470
-0.004299 0.278203 -0.811933
0.675176 -0.063964 -0.403518
-0.346243 0.618424 -0.066334
0.707512 0.294164 0.631104
0.707062 0.296749 0.631387
-0.718095 -0.075779 0.258237
0.344450 0.294977 -0.434203
-0.723560 -0.419659 -0.092595
-0.666248 0.280659 -0.114441
-0.010229 -0.822470 0.257374
0.694180 -0.429219 -0.056628
-0.715581 0.256625 0.649287
-0.342441 -0.044422 0.621511
0.695740 -0.429930 -0.057880
-0.315868 0.264374 -0.445225
0.327852 -0.795744 -0.086691
0.343374 -0.078141 -0.776718
-0.003961 0.646280 -0.417939
0.699897 0.281931 -0.058047
-0.316505 0.264154 -0.443792
-0.009805 -0.819984 0.258989
0.001872 -0.419020 -0.777060
0.345490 -0.082518 0.620791
0.326156 -0.448397 0.285949
-0.345805 0.619027 -0.068921
-0.317663 0.263278 -0.446779
-0.715298 0.256593 0.649760
0.699296 0.282197 -0.057674
0.707090 0.294423 0.631008
0.699719 0.619378 0.268150
-0.700684 -0.073022 -0.411452
-0.725497 -0.420449 -0.089151
0.359212 0.640473 -0.072564
0.357168 0.638538 -0.069200
-0.718879 -0.074832 0.260701
0.703321 0.282075 -0.055183
0.708482 0.294942 0.630189
0.001976 -0.418164 -0.780232
-0.356176 -0.780245 -0.088867
0.695329 -0.429101 -0.056573
-0.356035 0.591315 0.601080
-0.347312 0.619847 -0.066431
0.028436 0.614492 0.280546
0.700698 0.283526 -0.055089
-0.358032 0.589371 0.599135
0.001300 -0.800903 -0.434996
0.001738 -0.799667 -0.436937
0.356741 0.640490 -0.071694
0.324678 -0.796917 -0.086673
0.343291 0.293762 -0.432254
-0.318199 -0.432764 -0.410425
0.696726 -0.430059 -0.057172
0.325312 -0.447905 0.285469
0.675324 -0.063471 -0.403461
0.696382 -0.429264 -0.057874
-0.725365 -0.421287 -0.090434
-0.003980 0.644072 -0.416923
-0.335662 -0.081179 -0.796329
-0.356459 0.590810 0.596848
0.673922 -0.062938 -0.403417
-0.005572 0.275879 -0.810317
-0.335771 -0.080888 -0.797762
-0.334884 -0.083037 -0.797805
-0.334263 -0.432161 0.237265
-0.719967 -0.076149 0.259842
0.000973 -0.417260 -0.778787
0.343728 0.294663 -0.433380
-0.027091 -0.421844 0.620732
-0.000263 -0.800832 -0.435178
0.343149 -0.077371 -0.777647
-0.727809 0.614707 0.275591
-0.332498 -0.428755 0.234088
0.324981 -0.447130 0.287223
-0.318488 -0.434485 -0.409514
-0.332411 -0.431447 0.235884
-0.318346 -0.434368 -0.407873
0.015941 0.276623 0.641526
-0.003642 0.277210 -0.810177
-0.699552 -0.072416 -0.412276
-0.666170 0.280383 -0.114112
0.026503 0.613217 0.282966
-0.727738 0.614609 0.275497
-0.024310 -0.424847 0.620985
0.027718 0.613194 0.284491
-0.724082 -0.420788 -0.090456
-0.024946 -0.425261 0.616985
0.354169 -0.439481 -0.434976
0.000756 -0.799386 -0.436384
-0.728215 0.614291 0.278051
-0.333487 -0.080701 -0.798103
-0.357218 0.590735 0.598613
0.357490 0.647482 0.637112
0.354594 -0.439455 -0.433016
0.344857 0.296090 -0.436369
-0.715568 0.256857 0.651054
-0.025791 -0.424048 0.617939
-0.346118 0.618230 -0.066257
0.344469 -0.077760 -0.778064
0.673153 -0.064666 -0.402013
-0.318998 -0.434970 -0.408139
0.345144 -0.078244 -0.778562
0.002391 -0.799830 -0.436641
-0.318110 -0.432648 -0.407077
0.698821 -0.429399 -0.058437
-0.344664 0.619273 -0.065689
0.026408 0.613866 0.282684
-0.008439 -0.820653 0.260488
-0.717481 0.257361 0.647107
-0.004486 0.278486 -0.811674
-0.725907 -0.420604 -0.088926
-0.702027 -0.071324 -0.408605
0.358448 0.646316 0.637122
0.673711 -0.063380 -0.402718
-0.343213 -0.045317 0.620577
-0.335380 -0.432365 0.236840
-0.011474 -0.821430 0.258442
-0.333947 -0.079827 -0.798111
-0.004330 0.643980 -0.416164
-0.009556 -0.822033 0.257540
0.702078 0.282660 -0.056287
-0.010299 -0.822235 0.257787
-0.343274 0.618921 -0.066415
0.702357 0.619384 0.266320
-0.347466 0.617576 -0.066970
0.326711 -0.797319 -0.087112
-0.010496 -0.823586 0.258034
-0.698594 -0.071190 -0.411049
-0.344098 -0.043923 0.622183
0.354359 -0.439431 -0.435677
-0.005035 0.277508 -0.809949
-0.716102 0.258870 0.648124
-0.318027 -0.434027 -0.410484
0.701285 0.618078 0.268569
0.697626 -0.428975 -0.058722
0.722212 -0.078538 0.297880
0.345250 0.295321 -0.434635
-0.358150 0.589586 0.598683
0.324621 -0.449493 0.286271
-0.335366 -0.079746 -0.795790
-0.004373 0.645415 -0.415857
-0.333617 -0.430246 0.237504
-0.343086 -0.045514 0.622083
0.326523 -0.447450 0.287283
-0.354555 -0.781258 -0.085656
0.000954 -0.418291 -0.779583
0.356589 0.644650 0.637406
0.324999 -0.796367 -0.087370
-0.004405 0.278353 -0.811020
0.355370 0.646828 0.636052
-0.665881 0.281034 -0.115346
-0.727835 0.613799 0.276684
-0.000847 -0.799627 -0.437346
-0.342119 -0.043417 0.620981
0.699391 0.282343 -0.054977
-0.316512 0.263349 -0.446392
-0.318902 -0.436562 -0.409468
0.016483 0.278057 0.643060
-0.719576 -0.074865 0.260110
-0.357283 0.590231 0.598423
0.028252 0.613164 0.283909
-0.319158 -0.434541 -0.409139
-0.714867 0.256527 0.647883
-0.026718 -0.424400 0.619917
0.025212 0.613215 0.282528
-0.724521 -0.421490 -0.090768
0.672695 -0.062522 -0.402979
-0.318448 -0.434767 -0.409616
-0.317877 -0.433831 -0.408259
0.699502 0.618377 0.266281
-0.727465 0.614972 0.279988
-0.700539 -0.071112 -0.410489
-0.334313 -0.081057 -0.797428
-0.332395 -0.429731 0.237673
0.001684 -0.800252 -0.436092
-0.344368 0.616136 -0.068140
-0.334411 -0.430277 0.237158
-0.003755 0.277387 -0.809988
-0.667262 0.279830 -0.116976
-0.719394 -0.073673 0.257850
-0.315778 0.262261 -0.446642
-0.024929 -0.424310 0.620036
-0.318900 -0.436311 -0.407409
-0.727534 0.615524 0.275868
-0.717536 -0.072910 0.258903
0.025691 0.614710 0.282099
0.673261 -0.061479 -0.401169
-0.356687 -0.778196 -0.087949
0.326550 -0.447470 0.286036
0.001838 -0.417646 -0.777035
-0.723166 -0.421611 -0.090415
0.358036 0.638830 -0.071164
0.695975 -0.430609 -0.058159
0.344098 -0.079081 -0.779236
-0.003139 0.645220 -0.416968
-0.356093 -0.780121 -0.087388
-0.006276 0.278077 -0.810140
-0.341115 -0.044959 0.621398
-0.699345 -0.072332 -0.410478
-0.332862 -0.081397 -0.797751
-0.356527 -0.779148 -0.087745
-0.666005 0.279995 -0.114258
-0.333924 -0.081287 -0.797632
-0.317795 -0.433759 -0.408959
0.355366 0.646578 0.635912
0.344028 -0.078082 -0.777685
-0.724473 -0.420724 -0.091604
-0.320028 -0.432759 -0.408444
-0.010038 -0.823549 0.257619
-0.357791 0.590953 0.599182
0.343778 0.296533 -0.434220
-0.356404 -0.780571 -0.086316
-0.332784 -0.431082 0.236495
0.700798 0.282453 -0.056095
-0.356751 0.590897 0.599074
-0.344620 0.618997 -0.066884
0.708862 0.293878 0.631079
0.327653 -0.797457 -0.085879
-0.002752 0.645905 -0.417518
0.001398 -0.416717 -0.779670
0.702643 0.283219 -0.057067
0.674139 -0.063563 -0.403094
-0.724289 -0.420318 -0.090019
0.001652 -0.418099 -0.779633
0.343857 0.296603 -0.434395
-0.318459 -0.435073 -0.407913
0.694541 -0.429548 -0.058251
