OFF
256 0 0
-0.339001 0.441421 0.450428
0.358375 0.393279 0.424691
-0.702412 -0.281232 0.066834
0.339117 0.420114 -0.281767
-0.358410 -0.264991 0.428506
-0.710123 0.080413 0.425331
0.347970 0.086014 0.792816
-0.354314 0.780002 0.092923
0.703085 -0.275627 -0.645982
-0.340275 0.091442 0.780440
-0.354508 0.779390 0.092540
-0.364912 -0.622919 -0.623503
0.358976 0.392695 0.424207
-0.711515 -0.635268 -0.267033
0.036984 0.444771 0.796953
0.356310 0.391997 0.425966
0.358643 0.392412 0.425357
-0.364589 -0.621077 -0.622407
0.018868 0.784705 0.433985
-0.011054 0.431792 -0.631510
-0.717045 0.423200 0.083861
0.705456 -0.609054 -0.282438
0.702763 -0.273956 -0.644720
-0.010021 0.430526 -0.632681
-0.713927 0.095190 -0.245457
-0.365985 -0.631419 0.070929
-0.010773 -0.254133 -0.618324
0.354880 -0.252435 0.420125
0.015846 0.784900 0.432721
-0.015100 -0.656568 -0.298555
0.349266 0.058953 -0.603158
-0.357319 -0.264132 0.425719
-0.710682 0.082685 0.422033
-0.710449 0.080727 0.422368
0.346621 0.085200 0.792610
0.357073 0.393295 0.424728
-0.712558 0.095886 -0.245745
0.353760 -0.254472 0.421258
-0.370236 0.432732 -0.269125
0.350453 0.058047 -0.604157
-0.711557 0.079893 0.423819
-0.008629 0.431148 -0.631165
0.027700 -0.248207 0.777716
-0.709644 0.079329 0.422237
0.036802 0.444770 0.797209
0.348313 0.085286 0.794757
0.348950 0.058130 -0.603876
0.719894 -0.244911 0.085780
0.724916 0.080724 0.438418
-0.365245 -0.620984 -0.623994
-0.364673 -0.622698 -0.623606
0.355314 0.392977 0.425543
0.702390 0.404397 0.083069
-0.365137 0.075560 -0.610940
-0.355394 0.779722 0.091726
-0.717085 0.421570 0.084174
0.355952 -0.251723 0.419510
-0.340490 0.088649 0.779187
-0.016389 -0.655775 -0.299821
0.008199 -0.625084 0.432275
0.018295 0.784916 0.435028
0.350272 0.085507 0.794074
0.029466 -0.246641 0.776464
0.700038 0.402510 0.082909
0.358167 0.392434 0.425229
0.348011 0.762034 0.091730
-0.709274 -0.634059 -0.267983
-0.009034 0.431373 -0.632085
-0.010494 -0.252474 -0.618309
-0.338528 0.441004 0.450523
0.028363 -0.246171 0.778626
0.355717 -0.252977 0.422287
0.701029 0.403128 0.085182
-0.364427 -0.622572 -0.623781
-0.017101 -0.658841 -0.299532
0.013091 0.792091 -0.273330
-0.357364 -0.265316 0.425903
0.008467 -0.625256 0.432267
0.006405 -0.625796 0.432067
0.029094 -0.247500 0.779623
-0.711938 0.078479 0.422739
0.347770 0.084786 0.793465
-0.722355 -0.285761 -0.629556
0.038041 0.445372 0.797273
0.321555 -0.639002 0.055234
-0.370257 0.434775 -0.270453
-0.010154 -0.253964 -0.620153
-0.369264 0.434043 -0.268307
0.338726 0.420165 -0.283285
0.337788 0.420177 -0.285066
0.009215 0.793021 -0.270517
0.350556 0.761649 0.089340
0.347301 0.084723 0.791878
0.358489 0.392407 0.426446
0.019015 0.785131 0.433553
-0.715336 0.096695 -0.246287
0.356587 0.393758 0.425207
-0.354948 0.778031 0.091663
-0.355340 0.780967 0.089536
-0.337606 0.441051 0.448891
-0.709172 -0.632864 -0.268160
-0.713480 -0.634753 -0.268409
-0.719789 -0.287404 -0.630125
0.348127 0.058128 -0.603532
0.338215 0.420103 -0.283044
-0.008699 0.431043 -0.632910
-0.713089 0.097287 -0.243639
-0.008330 0.430760 -0.631859
0.702250 0.402119 0.082774
0.037623 0.443525 0.796622
0.008314 -0.625122 0.432399
-0.010646 0.430966 -0.632784
0.719635 -0.244799 0.086867
0.354163 -0.252264 0.419474
0.018112 0.783782 0.435302
0.700976 0.402808 0.084088
0.704563 -0.609918 -0.284783
0.355239 -0.253404 0.420543
-0.338780 0.441511 0.449560
-0.366089 0.076004 -0.610494
0.011574 0.792768 -0.272442
0.356254 0.392299 0.423924
-0.715414 0.422016 0.085471
0.355029 -0.252883 0.419330
-0.723148 -0.287533 -0.630398
0.349154 0.763760 0.092971
0.008399 -0.628239 0.433182
-0.365570 -0.631084 0.070238
0.007495 -0.624167 0.432868
-0.716405 0.421018 0.082987
0.720346 -0.245725 0.084298
-0.711208 -0.634065 -0.268372
0.356624 0.392105 0.425451
0.699123 0.403720 0.082942
-0.364972 -0.629078 0.070503
-0.356670 0.779840 0.091453
0.009691 0.793480 -0.270637
0.016186 0.785846 0.435142
-0.354558 0.781856 0.092061
-0.010785 0.430119 -0.631196
-0.715229 0.422039 0.082809
-0.354917 0.779879 0.090001
-0.720115 -0.287694 -0.629442
-0.355312 0.780136 0.092338
0.039401 0.444456 0.797238
-0.352716 0.780647 0.091219
-0.339621 0.091130 0.782500
-0.357836 -0.263170 0.427069
-0.713450 0.096310 -0.246343
0.726568 0.066289 -0.290137
0.354579 -0.251983 0.420121
0.725743 0.067490 -0.290995
-0.702285 -0.278695 0.066314
0.005737 -0.625897 0.432570
-0.009169 0.429939 -0.632313
0.039139 0.445301 0.797459
-0.357322 -0.266381 0.426194
-0.365984 0.073815 -0.612121
0.351282 0.762363 0.091475
0.029174 -0.245928 0.777936
0.719578 -0.245909 0.084913
-0.338233 0.442106 0.449733
-0.369013 0.432583 -0.270042
-0.009723 0.429446 -0.631333
0.356003 0.391960 0.425262
0.349679 0.061764 -0.602999
0.706519 -0.609437 -0.284855
-0.711640 -0.635058 -0.269242
-0.710721 -0.633585 -0.267991
-0.017990 -0.659697 -0.300346
-0.354535 0.780329 0.091274
0.010157 0.793453 -0.272064
0.354556 -0.256155 0.420251
-0.717234 0.421621 0.086237
-0.704829 -0.282862 0.066421
-0.709893 0.078522 0.422365
0.351167 0.760283 0.092175
-0.363869 -0.621998 -0.624385
0.726075 0.080875 0.438286
0.017397 0.784561 0.432509
0.347101 0.085079 0.793190
0.353729 -0.254220 0.420589
0.702498 0.403898 0.083048
-0.011353 -0.253371 -0.618566
-0.722498 -0.288130 -0.630040
-0.358544 -0.264433 0.426744
0.017479 0.786618 0.433168
-0.010316 -0.252218 -0.620714
-0.368786 0.435169 -0.270031
0.007191 -0.625481 0.431400
-0.354782 0.780244 0.091049
-0.704299 -0.281092 0.065893
-0.009026 -0.252559 -0.619122
-0.356498 -0.264824 0.425990
-0.718818 0.422499 0.083294
0.348665 0.059226 -0.602346
-0.364231 0.077132 -0.613604
0.011897 0.792340 -0.270255
0.727090 0.080696 0.438283
-0.365623 -0.631711 0.072530
-0.363838 -0.619300 -0.622071
-0.716634 0.420714 0.083273
0.353997 -0.252554 0.421282
0.701631 0.402430 0.083111
-0.008959 0.430426 -0.632556
-0.365169 -0.621021 -0.623631
0.348214 0.085581 0.792908
-0.716787 0.421946 0.085522
-0.712248 -0.633582 -0.268650
0.349877 0.761049 0.091181
-0.012545 -0.252892 -0.619736
0.008284 -0.625315 0.433848
-0.357928 -0.263155 0.427102
0.365239 -0.615669 -0.654258
0.337409 0.418623 -0.280460
-0.710640 0.079001 0.422923
0.355524 0.391033 0.426754
0.719985 -0.245087 0.085655
0.365033 -0.617868 -0.654410
0.720542 -0.245320 0.084246
-0.704921 -0.280986 0.065082
0.721703 -0.246246 0.086021
-0.369554 0.433637 -0.270575
-0.366034 0.075448 -0.612473
-0.705126 -0.281557 0.065078
0.727270 0.081075 0.439468
-0.336730 0.442604 0.451836
-0.704258 -0.281535 0.067453
0.017226 0.784451 0.432884
0.354243 -0.251958 0.421775
-0.715051 0.095451 -0.244347
-0.370275 0.432754 -0.268286
-0.365144 0.076400 -0.611139
0.356617 0.392438 0.427364
-0.009534 0.431288 -0.631844
0.703605 -0.273571 -0.644829
0.719886 -0.246928 0.085125
0.006165 -0.626702 0.431680
0.727580 0.081384 0.439047
-0.338645 0.091430 0.781553
0.010606 0.791990 -0.273501
0.349721 0.057427 -0.603287
0.700844 0.403029 0.082995
-0.010253 -0.252233 -0.621163
-0.016122 -0.657907 -0.298229
0.705027 -0.607819 -0.282820
0.699881 0.403202 0.084539
0.720346 -0.242774 0.085336
-0.355083 0.781581 0.091766
-0.714536 0.419877 0.084768
-0.364755 -0.632631 0.073017
-0.716066 0.421701 0.083654
-0.369041 0.434157 -0.268915
-0.716135 0.096356 -0.245550
-0.356881 -0.263760 0.425596
0.028074 -0.247076 0.776966
