OFF
256 0 0
-0.365033 -0.617402 0.057384
0.360301 -0.615465 0.075304
-0.696502 0.081154 0.406976
0.344867 0.416406 0.395456
0.682800 0.066668 -0.283415
-0.014630 -0.290052 -0.600947
-0.337857 0.420643 -0.242109
0.700052 0.082190 0.405451
0.011777 0.408676 0.784271
-0.700111 0.435242 0.071896
-0.682926 0.078136 -0.263909
0.328365 0.442650 -0.253892
-0.006789 0.775917 -0.269652
-0.364480 -0.616901 0.056456
0.362201 -0.262881 0.437956
0.353482 -0.626407 -0.617289
-0.014848 -0.290102 -0.603705
-0.699966 0.434244 0.071938
-0.732704 -0.618791 -0.285495
0.679356 0.066615 -0.281466
0.382478 0.096191 0.786071
-0.349974 -0.638434 -0.607997
0.690300 -0.639380 -0.284217
0.682075 0.411284 0.067951
-0.001997 -0.230130 0.769000
-0.335685 0.077143 -0.607844
0.674565 -0.280502 0.071381
-0.346772 0.080211 0.751716
0.682806 0.411708 0.068412
-0.353015 0.780549 0.083634
0.359595 -0.263735 0.436817
0.698567 0.081569 0.407589
0.339636 0.070409 -0.616560
-0.352947 0.779960 0.084838
0.676954 -0.281181 0.072410
0.344267 0.416345 0.396254
0.675269 -0.282618 0.072910
-0.362042 -0.616992 0.057375
-0.701368 0.434924 0.069924
-0.349488 -0.637884 -0.608640
-0.014255 -0.289653 -0.601954
-0.006124 0.775185 -0.269192
0.682234 0.411287 0.067041
0.689590 -0.639354 -0.285229
0.676077 -0.281563 0.071735
-0.349991 -0.638891 -0.607224
0.701136 -0.265133 -0.597001
0.000419 0.790081 0.417388
-0.336377 0.075083 -0.608015
-0.335191 0.428984 0.425331
0.354391 -0.628843 -0.615696
0.682112 0.067139 -0.283749
-0.366735 -0.618383 0.058160
0.675344 -0.280493 0.071958
0.351924 -0.629215 -0.614910
0.689047 -0.641005 -0.284629
-0.002945 -0.608709 0.411690
-0.000163 0.789451 0.415271
0.023719 -0.609245 -0.262199
-0.003825 0.777149 -0.268415
-0.700202 0.434292 0.070333
0.329985 0.443435 -0.254161
0.024663 -0.608661 -0.261290
-0.349250 -0.640918 -0.607607
0.359936 -0.264044 0.436334
0.359597 -0.262775 0.435959
0.688812 -0.642716 -0.285963
0.680680 0.409446 0.067167
-0.685654 0.075499 -0.264802
-0.364899 -0.617671 0.058838
-0.699558 0.434619 0.072477
0.700137 -0.268779 -0.598245
-0.368281 -0.273149 0.455794
0.360300 -0.262631 0.438791
0.339741 0.069015 -0.618609
0.013761 0.407404 0.783751
0.012585 0.408554 0.784963
0.025603 -0.608587 -0.262742
-0.363706 -0.616691 0.058718
0.677019 -0.281812 0.072310
-0.369830 -0.273909 0.454608
0.344151 0.417229 0.398289
-0.001668 -0.231375 0.769508
0.351696 0.782695 0.072863
0.689622 -0.641581 -0.285167
0.689062 -0.640750 -0.282010
0.338906 0.068231 -0.616896
-0.368998 -0.274028 0.458609
0.362568 -0.615988 0.075342
-0.693662 0.081122 0.402871
-0.346232 0.080961 0.754008
0.384466 0.096237 0.786442
0.681091 0.065380 -0.282451
0.013500 0.408605 0.782477
0.384513 0.096424 0.783951
0.699643 0.081076 0.407430
0.697870 0.081604 0.408234
-0.004760 0.776498 -0.268614
-0.337390 0.427760 0.426030
-0.335826 0.420756 -0.240324
0.022920 -0.606551 -0.262389
-0.364355 -0.616104 0.054728
-0.731486 -0.618484 -0.285641
-0.005147 0.777027 -0.269712
-0.335435 0.425390 0.426495
-0.679402 -0.276244 -0.611228
-0.355588 0.779568 0.084561
-0.732031 -0.619590 -0.285789
0.348900 0.782884 0.074247
0.682384 0.410859 0.067346
0.683188 0.411241 0.068963
0.339507 0.068667 -0.618402
0.025321 -0.606940 -0.262779
0.352860 -0.625995 -0.614502
0.000058 -0.229856 0.767466
0.681291 0.066742 -0.281148
-0.679950 -0.274395 -0.612047
0.353831 -0.627172 -0.616454
-0.000376 -0.230593 0.767714
0.338755 0.067646 -0.616707
0.384850 0.096933 0.785515
-0.694582 0.079714 0.403753
-0.334547 0.426693 0.425837
0.008125 0.417600 -0.619504
0.008905 0.419871 -0.620965
0.680864 0.067692 -0.283528
0.688681 -0.643043 -0.283481
0.345076 0.416708 0.397853
-0.352989 0.778322 0.082817
-0.690409 -0.273701 0.077833
-0.016543 -0.290871 -0.603446
0.024400 -0.607285 -0.261592
-0.352963 0.781087 0.084197
-0.730984 -0.618902 -0.286255
-0.698810 0.434045 0.071079
0.012007 0.409222 0.784425
0.383275 0.095517 0.784813
0.381890 0.095236 0.783779
-0.733447 -0.619032 -0.285925
-0.349431 -0.639176 -0.607464
-0.354609 0.778157 0.083801
-0.352466 0.778936 0.082207
0.327636 0.443874 -0.253865
-0.693877 0.080956 0.402312
0.328941 0.444779 -0.254006
-0.338209 0.420791 -0.240271
0.351415 -0.629437 -0.617016
0.024828 -0.608455 -0.263277
-0.698291 0.433782 0.071476
-0.694760 0.082357 0.405790
-0.339096 0.419520 -0.239983
0.682908 0.411135 0.066878
0.351990 -0.627383 -0.615510
0.339029 0.069582 -0.619280
0.328566 0.442031 -0.254156
-0.692839 0.081094 0.404451
0.329057 0.443311 -0.253456
0.673908 -0.281234 0.069745
-0.343218 0.080057 0.752275
0.361372 -0.613654 0.075497
-0.368685 -0.274704 0.453565
-0.695769 0.081023 0.404082
-0.694823 0.082672 0.406611
0.011614 0.410409 0.781954
-0.001787 -0.610612 0.410695
0.001335 0.791350 0.416944
-0.335866 0.074881 -0.610219
0.010688 0.408076 0.782356
0.337589 0.068426 -0.619194
-0.677617 -0.274236 -0.612817
-0.692967 0.080199 0.403291
-0.014166 -0.290218 -0.602388
0.338625 0.067157 -0.616918
0.699168 0.081046 0.406380
0.339177 0.068704 -0.615663
0.000958 0.790293 0.416550
0.682571 0.409332 0.068580
-0.365036 -0.617998 0.057577
-0.678035 -0.276789 -0.613253
0.700156 -0.267281 -0.597749
0.382944 0.095463 0.785340
0.328627 0.443645 -0.252170
-0.337125 0.419171 -0.241428
-0.345462 0.078895 0.753503
-0.679073 -0.276517 -0.613635
0.001455 -0.229201 0.767919
0.680530 0.411140 0.068952
0.351413 0.781287 0.072506
0.013318 0.408578 0.783844
0.702344 -0.266777 -0.595726
0.361269 -0.615092 0.075360
-0.694735 0.081238 0.403661
-0.694079 0.082785 0.406743
0.698876 0.080407 0.405863
-0.676627 -0.274708 -0.612433
0.328853 0.443087 -0.252248
-0.354818 0.778965 0.086082
-0.701115 0.435211 0.070252
-0.696074 0.081238 0.404632
0.328589 0.443218 -0.254129
-0.334989 0.428546 0.425792
-0.694043 0.081516 0.404635
-0.014803 -0.288997 -0.601854
0.010836 0.406124 0.785450
-0.364233 -0.616917 0.058345
0.682179 0.066264 -0.282621
0.350586 0.780731 0.073989
0.339699 0.069919 -0.615695
-0.001254 -0.229756 0.767465
0.680791 0.067879 -0.283309
-0.007196 0.777634 -0.269582
0.348868 0.779633 0.072733
-0.348853 -0.638529 -0.608114
0.025671 -0.608742 -0.262374
-0.337946 0.419978 -0.241799
-0.335021 0.426942 0.424926
0.699131 0.081071 0.407230
-0.335302 0.074883 -0.610895
-0.696544 0.083498 0.404526
-0.369156 -0.276214 0.455563
-0.733704 -0.619657 -0.285327
-0.684156 0.075979 -0.265136
-0.732048 -0.619379 -0.285276
0.384720 0.094313 0.784909
0.680175 0.411796 0.068795
0.329187 0.443625 -0.253874
-0.349036 -0.638362 -0.608534
0.361757 -0.261556 0.438644
0.001649 -0.230935 0.768337
-0.336132 0.427913 0.425568
0.699715 0.082279 0.406207
0.682369 0.066718 -0.282298
-0.006147 0.776675 -0.268137
-0.683061 0.076103 -0.265379
-0.363031 -0.618704 0.056787
-0.346344 0.079328 0.755068
0.007431 0.418175 -0.618566
-0.338317 0.420181 -0.242114
0.359124 -0.263589 0.437272
0.001048 0.789382 0.416169
-0.365090 -0.617207 0.059139
0.382817 0.095858 0.785715
-0.362420 -0.617719 0.056734
-0.345668 0.081370 0.753194
0.689397 -0.638628 -0.281716
-0.004938 -0.608047 0.411197
0.351201 0.781674 0.072829
0.682760 0.410856 0.067880
-0.677693 -0.273955 -0.612166
-0.002094 -0.230816 0.768543
0.353389 -0.628052 -0.616391
-0.679401 -0.276188 -0.612123
0.009114 0.420081 -0.622466
0.343189 0.418357 0.397587
-0.354887 0.780744 0.084924
-0.732561 -0.620111 -0.284319
