OFF
256 0 0
-0.422501 0.021644 0.634070
-0.451536 0.345973 -0.415536
0.644237 -0.013289 -0.450617
-0.051456 -0.320708 0.620134
-0.080544 -0.729195 -0.445224
-0.446772 -0.001802 -0.778331
-0.064940 0.707257 -0.433656
0.269447 0.332246 -0.439786
-0.079825 -0.731333 -0.442810
-0.053047 -0.321508 0.618886
0.270799 0.652673 -0.034464
0.633850 0.688596 0.279321
-0.795722 0.001017 0.279108
-0.091301 -0.337754 -0.796654
-0.803552 0.345843 -0.071729
-0.030911 0.362007 0.619131
-0.465727 -0.369394 -0.446538
0.651029 0.006002 0.269922
-0.783410 -0.362324 -0.077612
-0.422253 0.018941 0.631101
-0.066155 0.706970 -0.434678
-0.423871 0.020469 0.632164
-0.804449 0.347059 -0.072803
-0.423224 0.017134 0.633601
-0.422575 0.019739 0.633455
0.268556 0.332212 -0.440402
-0.449931 -0.702961 -0.082311
-0.447502 -0.002002 -0.779689
0.301878 0.707640 0.637022
0.282110 0.016460 0.632240
0.277750 0.007310 -0.809147
0.271481 0.332819 -0.439063
0.277500 0.006432 -0.809574
0.277905 0.006103 -0.806888
0.284426 0.018742 0.629780
-0.437732 0.704554 -0.067303
-0.439412 -0.338094 0.269067
-0.447726 -0.705492 -0.083054
-0.075258 -0.705571 0.277516
-0.052409 -0.320796 0.619710
0.279126 0.006430 -0.805942
-0.435565 0.704865 -0.066399
-0.073513 -0.703069 0.274689
0.643535 -0.013449 -0.449386
0.605083 -0.690499 0.276064
-0.794436 0.002055 0.278859
0.652158 0.008354 0.270932
-0.074823 -0.704762 0.275487
-0.447732 -0.001224 -0.778428
0.283791 0.017375 0.630953
0.283869 0.016546 0.630991
-0.464644 -0.369642 -0.446520
0.269723 0.653783 -0.033348
-0.451832 0.347438 -0.414126
0.301686 0.710106 0.638967
0.649179 0.008212 0.271714
-0.795411 0.000998 0.278266
0.644482 -0.012905 -0.449588
-0.437510 -0.338801 0.272330
-0.435761 -0.338326 0.270606
0.300487 0.709431 0.637272
-0.437282 -0.336483 0.270122
-0.079639 -0.731170 -0.445553
-0.438119 -0.339292 0.270398
0.649878 -0.347233 0.622360
-0.052579 -0.322316 0.621260
-0.032642 0.362617 0.618754
0.247672 -0.716612 -0.097354
-0.072274 0.713921 0.282816
-0.072774 0.712732 0.281791
-0.796188 0.000328 0.278879
-0.794687 0.001181 0.277788
0.286652 -0.708280 0.637241
-0.463662 -0.367817 -0.446207
0.285274 0.016122 0.631038
0.645021 -0.010950 -0.448409
-0.449826 -0.000218 -0.778416
-0.074171 -0.704416 0.275634
-0.051998 -0.319928 0.619701
-0.447031 -0.001527 -0.778407
-0.092960 -0.339016 -0.798757
-0.032110 0.362791 0.619748
-0.789966 0.008298 -0.404001
0.653178 -0.347957 0.622555
-0.079600 -0.729771 -0.445118
-0.079721 -0.729833 -0.443458
0.634981 0.687974 0.277446
-0.091987 -0.335824 -0.797058
-0.431868 0.362521 0.285716
0.602652 -0.689941 0.276631
-0.421729 0.020811 0.631838
0.283881 -0.709654 0.636632
0.632480 0.339108 -0.094776
0.278531 0.006465 -0.807996
-0.446896 -0.704573 -0.083885
0.632729 0.361913 0.631959
0.633153 0.337426 -0.095959
-0.073206 0.711922 0.280869
0.603687 -0.689388 0.274285
0.650732 0.007950 0.271488
-0.804342 0.348368 -0.073732
0.632838 0.688796 0.279061
0.301447 0.709110 0.637311
-0.432618 0.364864 0.285078
-0.075744 -0.706162 0.275958
0.278741 0.007277 -0.808054
-0.421886 0.021067 0.631929
0.634529 0.339052 -0.093433
0.626457 -0.333354 -0.082811
0.271980 0.332980 -0.440527
0.634349 0.362849 0.634817
-0.093612 -0.337652 -0.798448
0.261063 -0.364117 -0.433644
0.300317 0.708951 0.634913
-0.073205 0.711545 0.280911
0.271336 0.653477 -0.034190
0.602998 -0.689252 0.275216
-0.065221 0.707952 -0.433847
0.650281 -0.346701 0.622280
0.633837 0.360865 0.635181
-0.447785 -0.704267 -0.082013
-0.782249 -0.361194 -0.076427
0.633664 0.358856 0.634872
0.633589 0.686557 0.278607
0.635081 0.686732 0.276065
0.283357 0.016743 0.630418
0.284581 -0.711353 0.637176
-0.790301 0.009150 -0.403592
-0.466440 -0.368477 -0.445924
-0.421291 0.020136 0.632815
0.283566 0.017570 0.630055
0.286685 -0.709744 0.636435
-0.091713 -0.336380 -0.799910
-0.431845 0.362766 0.282734
0.636073 0.360650 0.633097
0.628025 -0.334994 -0.083122
0.268847 0.654230 -0.033612
0.634875 0.335676 -0.094403
0.643665 -0.012296 -0.447725
0.651940 0.008934 0.271358
-0.080560 -0.730782 -0.443963
0.627789 -0.332140 -0.082579
-0.795348 -0.000352 0.279705
0.634868 0.687500 0.278797
0.269017 0.654008 -0.033494
0.601638 -0.691562 0.275849
-0.453613 0.344790 -0.414006
0.270038 0.653639 -0.034747
-0.446371 -0.003410 -0.778311
-0.793799 0.001337 0.276802
-0.066743 0.708662 -0.434632
0.259112 -0.364179 -0.434107
0.278059 0.005584 -0.808471
-0.804888 0.346622 -0.073402
0.270724 0.655317 -0.035267
0.261419 -0.365682 -0.435508
-0.421773 0.018620 0.635772
0.634728 0.361835 0.634032
-0.091399 -0.338135 -0.797712
0.284018 0.017291 0.631054
-0.064917 0.708504 -0.434474
0.268923 0.653460 -0.035513
0.300553 0.709149 0.637343
0.284447 0.017107 0.631577
0.270433 0.653335 -0.033270
-0.451652 0.345907 -0.414380
0.633912 0.336978 -0.094484
-0.464684 -0.368668 -0.447247
-0.054059 -0.320694 0.619094
-0.422870 0.018984 0.633565
0.248037 -0.717715 -0.098876
-0.447903 -0.000023 -0.778374
0.602647 -0.690361 0.275119
0.279122 0.006076 -0.808429
-0.437282 0.705825 -0.065958
-0.088997 0.356041 -0.785443
0.651248 0.005303 0.271560
-0.079975 -0.731035 -0.444085
-0.065799 0.707020 -0.433958
0.277868 0.005981 -0.808742
-0.784690 -0.361055 -0.075643
-0.088641 0.358391 -0.788788
-0.431387 0.362129 0.284808
0.247890 -0.716808 -0.099531
0.284483 0.017806 0.632563
0.649756 -0.346776 0.624136
0.651212 -0.348615 0.622468
-0.090250 0.357201 -0.787432
0.626634 -0.332914 -0.083919
-0.075633 -0.703581 0.276875
-0.073135 -0.705553 0.276477
-0.789773 0.008690 -0.403931
-0.448532 -0.000228 -0.779231
-0.073990 -0.704701 0.276213
-0.432034 0.362814 0.284193
0.651248 -0.345289 0.621211
0.652840 -0.346813 0.623794
0.284422 -0.708483 0.636747
0.626317 -0.332761 -0.082632
0.283952 -0.710055 0.636660
-0.093424 -0.336706 -0.796376
0.286515 -0.709535 0.637605
-0.092874 -0.337295 -0.795686
-0.440240 -0.338421 0.270260
-0.089605 0.355890 -0.786934
0.259377 -0.365060 -0.434109
0.303956 0.709888 0.636159
-0.432544 0.361973 0.284511
0.270194 0.331284 -0.439865
-0.794935 0.001498 0.278720
-0.796534 0.001221 0.279389
-0.435034 0.706348 -0.067981
0.603684 -0.689034 0.275277
-0.032013 0.361329 0.620013
-0.033567 0.360610 0.618017
0.300686 0.708632 0.637753
-0.420906 0.019084 0.632974
-0.432246 0.364178 0.284320
0.632813 0.337440 -0.093536
0.651127 -0.346588 0.623814
0.304078 0.709967 0.635328
-0.464828 -0.366197 -0.446755
0.603186 -0.690503 0.276715
-0.806009 0.346751 -0.072122
-0.465832 -0.368058 -0.447695
-0.070978 0.713211 0.282110
-0.032486 0.362000 0.617230
-0.445680 -0.704679 -0.082483
-0.449390 -0.703857 -0.081103
-0.791361 0.008313 -0.405753
-0.434805 0.707183 -0.067213
0.270540 0.655231 -0.033340
-0.790676 0.005833 -0.402911
0.626895 -0.331434 -0.084569
-0.449176 -0.002247 -0.778057
0.283016 0.018459 0.630983
-0.790263 0.006579 -0.403897
-0.790343 0.009362 -0.405717
0.271328 0.332727 -0.440434
-0.804507 0.346007 -0.073361
-0.782390 -0.361878 -0.076334
-0.071603 0.713380 0.281480
-0.790845 0.007435 -0.405294
0.271520 0.330607 -0.439621
-0.791725 0.007188 -0.406542
-0.074363 -0.703973 0.278105
0.634489 0.337741 -0.094308
-0.065029 0.706826 -0.434543
0.277665 0.006300 -0.806698
-0.781656 -0.363680 -0.077233
0.284268 -0.710965 0.637077
0.627648 -0.333368 -0.083578
-0.033656 0.361757 0.618159
0.636014 0.686915 0.277586
0.649216 0.007506 0.272424
0.260706 -0.364789 -0.435418
