OFF
256 0 0
0.791362 0.361715 -0.067544
0.088503 -0.702357 0.263394
-0.291584 -0.689941 0.635905
0.808927 -0.362785 -0.085154
0.772150 0.001398 -0.436540
-0.279309 0.012188 0.630192
-0.279556 -0.333275 -0.434051
0.429932 0.330510 0.240810
0.105295 0.355806 -0.809329
-0.629521 0.352583 -0.075309
0.104776 0.354837 -0.811036
0.772896 0.003070 -0.435774
-0.639711 -0.708472 0.278033
0.394290 0.005387 0.624728
0.087900 -0.701269 0.263735
-0.289255 -0.700489 -0.076060
0.089650 -0.702186 0.264501
0.094063 -0.350084 -0.787122
0.792589 0.363087 -0.068752
0.428844 0.329167 0.242469
-0.657530 0.011754 0.307026
-0.280091 0.012685 0.631620
0.794659 -0.017997 0.258605
-0.278625 0.714811 0.640866
-0.292802 -0.691128 0.634811
0.771391 0.002798 -0.435941
-0.292283 -0.689186 0.636792
0.430615 0.332075 0.244449
-0.263668 0.308362 -0.418173
0.074331 -0.721066 -0.432170
0.452029 0.719113 -0.084173
0.467917 -0.014310 -0.790461
0.090088 -0.351063 -0.786379
0.451391 0.718804 -0.084438
-0.278892 0.715355 0.642010
0.805784 -0.360199 -0.085126
0.093079 -0.351038 -0.787262
-0.658757 0.010761 0.304036
0.442972 -0.340847 0.252861
-0.289752 -0.701574 -0.075925
-0.264318 0.307738 -0.421101
0.074019 0.377989 0.643493
0.074620 0.378623 0.641414
0.106889 0.355745 -0.810265
0.793400 -0.018078 0.260019
-0.280113 0.012433 0.629066
-0.658159 0.013139 0.303981
-0.634836 0.713596 0.273545
0.428213 0.332497 0.243239
0.074111 -0.719316 -0.432615
0.088481 -0.702481 0.263321
-0.265654 0.307154 -0.420553
-0.280825 0.714071 0.642809
-0.289307 -0.702232 -0.077873
0.452631 0.718490 -0.084385
0.429926 0.330403 0.243135
0.442985 -0.717893 -0.087720
0.440916 -0.720296 -0.087125
0.465508 -0.012709 -0.789982
-0.640082 -0.709045 0.275976
0.074105 0.376785 0.640879
0.093086 -0.349382 -0.785600
0.772210 0.002523 -0.435181
0.794148 0.362784 -0.068447
0.464705 -0.013865 -0.788812
0.089727 -0.701996 0.264448
-0.657209 0.012446 0.303935
0.441975 -0.340825 0.253772
0.429422 0.330406 0.243046
-0.634554 0.713501 0.272971
0.773025 0.002142 -0.436967
-0.639642 -0.707515 0.276925
-0.641583 -0.705746 0.276243
0.792786 0.362078 -0.068522
-0.629397 0.381327 0.646789
0.424219 0.369202 -0.439981
0.425310 0.367425 -0.440243
0.465434 -0.012643 -0.787731
0.072564 -0.722959 -0.434995
0.089960 -0.364830 0.643117
-0.640833 -0.706694 0.276117
0.072650 -0.721595 -0.433115
-0.657522 0.011868 0.307520
0.074513 0.378629 0.642268
0.394587 0.005448 0.624146
-0.279230 -0.334075 -0.434141
0.791661 0.363539 -0.068084
-0.635341 0.712542 0.273582
0.452706 0.719626 -0.083237
0.086296 0.698856 0.278487
-0.288832 -0.700112 -0.075284
0.089307 -0.703804 0.263117
-0.642351 -0.708838 0.276974
0.440892 -0.340745 0.251747
0.084509 0.698941 0.277717
-0.638048 -0.356659 0.654699
0.428649 0.331146 0.244512
0.442108 -0.339952 0.251280
-0.629218 0.351516 -0.072486
0.089035 -0.366788 0.642898
-0.633854 0.712734 0.273425
0.807916 -0.363247 -0.085072
-0.276909 0.012362 0.629576
0.792294 -0.018252 0.259711
0.427247 0.330793 0.242640
0.074118 0.378992 0.642166
0.793342 0.359598 -0.069059
0.443517 -0.340797 0.251804
-0.273792 -0.001696 -0.800546
0.074022 0.376966 0.642925
0.089366 -0.365471 0.642397
0.432706 -0.374025 -0.424584
-0.280970 0.693796 -0.078367
0.087747 -0.366601 0.642170
0.075879 -0.720904 -0.432457
-0.264823 0.308088 -0.418849
0.394759 0.003103 0.623755
0.441191 -0.720389 -0.085502
0.391753 0.004487 0.625187
-0.635546 0.710813 0.275698
-0.635474 0.712373 0.272611
-0.287528 -0.700307 -0.078314
0.073439 -0.719501 -0.433786
-0.265660 0.307984 -0.420218
0.808417 -0.362631 -0.085135
0.107130 0.354401 -0.808950
-0.280001 -0.335151 -0.435365
-0.640960 -0.710347 0.276460
0.070819 -0.720719 -0.434508
0.467097 -0.011822 -0.790492
0.807057 -0.362137 -0.083724
0.088750 -0.365343 0.642391
-0.633842 0.712380 0.274469
-0.279669 0.013633 0.631180
0.084936 0.705061 -0.427415
-0.280993 0.690369 -0.079756
0.393471 0.005092 0.622821
0.442928 -0.716428 -0.088061
0.429769 0.331657 0.243198
0.434948 -0.375917 -0.425427
0.073849 0.379108 0.641060
-0.640277 -0.708917 0.277599
0.432462 -0.373960 -0.425724
-0.280613 0.715898 0.642531
-0.288534 -0.701007 -0.074891
0.428922 0.331526 0.243903
-0.280771 0.011582 0.630801
-0.288197 -0.700356 -0.075742
-0.639198 -0.354844 0.653118
0.467715 -0.010862 -0.789197
-0.277936 0.714172 0.641747
-0.638913 -0.356193 0.654904
-0.272177 -0.004042 -0.800504
0.074208 -0.721302 -0.433004
0.074402 0.376690 0.643009
-0.292574 -0.688805 0.634396
0.428144 0.330836 0.243730
-0.288679 -0.698128 -0.078088
0.444780 -0.719061 -0.087904
-0.657775 0.013228 0.306685
-0.277561 0.715487 0.642158
0.394944 0.003028 0.623272
-0.635639 0.712671 0.273530
0.792188 0.360801 -0.068697
-0.278801 0.716365 0.642013
0.808818 -0.363872 -0.083753
0.105745 0.355871 -0.809482
-0.632344 -0.336062 -0.067701
-0.632987 -0.334527 -0.068054
-0.634592 0.713763 0.272732
0.429623 0.332733 0.243635
-0.647498 -0.016220 -0.446876
0.090855 -0.351629 -0.786371
-0.280848 0.691297 -0.077228
0.091287 -0.349292 -0.785782
-0.288492 -0.700002 -0.077373
0.089187 -0.365534 0.642882
0.428115 0.330450 0.243854
0.453408 0.719537 -0.084927
0.089777 -0.703106 0.261705
0.433035 -0.374156 -0.424759
-0.646489 -0.015280 -0.445636
-0.656572 0.011286 0.306519
-0.289243 -0.700010 -0.074166
0.443352 -0.716462 -0.086410
-0.636033 0.712469 0.273041
0.792164 0.362647 -0.068772
-0.278904 0.012755 0.628407
0.106956 0.355676 -0.809624
0.809038 -0.361793 -0.085001
-0.628191 0.351344 -0.071299
-0.280982 0.716080 0.640800
0.072855 -0.719916 -0.432825
0.088675 -0.703152 0.262227
-0.279567 0.716898 0.641370
0.423353 0.368788 -0.439206
0.809551 -0.361699 -0.083868
0.093110 -0.348699 -0.786039
-0.293457 -0.689135 0.636279
-0.634979 0.713740 0.272316
0.435009 -0.372926 -0.423867
0.085329 0.701743 0.278841
0.089365 -0.703686 0.264705
0.465582 -0.014081 -0.787986
0.466495 -0.013083 -0.788927
0.084588 0.704750 -0.426590
-0.642316 -0.708828 0.275887
-0.278491 0.714943 0.641510
0.075447 -0.721316 -0.433875
0.086049 0.699479 0.279372
-0.265570 0.307803 -0.418383
0.089466 -0.364565 0.641345
0.442364 -0.716135 -0.086099
-0.289032 -0.700529 -0.075866
0.392362 0.005017 0.625224
-0.272853 -0.002981 -0.800214
-0.279081 0.691642 -0.080657
-0.640271 -0.708340 0.277963
0.105902 0.356626 -0.811830
0.088331 -0.702192 0.263442
0.092377 -0.351975 -0.787599
0.087949 -0.365880 0.643692
0.428571 0.330189 0.243037
-0.628629 0.351672 -0.073809
-0.628716 0.349593 -0.074858
-0.631658 -0.335167 -0.067797
0.425140 0.367957 -0.440811
0.085791 0.699210 0.279322
0.084022 0.698908 0.279327
-0.291440 -0.689464 0.637172
0.442780 -0.340046 0.253196
-0.288233 -0.701801 -0.074957
0.105196 0.354059 -0.810944
0.811548 -0.360332 -0.084363
0.074407 0.377991 0.640320
0.440857 -0.342696 0.252806
0.106546 0.354690 -0.809880
0.443428 -0.720217 -0.086068
0.429788 0.330376 0.244349
0.093042 -0.349064 -0.785750
-0.263089 0.305958 -0.419554
0.085134 0.701300 0.280024
0.792760 -0.017404 0.260028
0.090147 -0.367092 0.640276
-0.280015 -0.334103 -0.436558
0.091222 -0.363931 0.639662
-0.290198 -0.701132 -0.076177
-0.293279 -0.689860 0.635033
0.809541 -0.361014 -0.083887
0.105925 0.354597 -0.810484
0.452995 0.718185 -0.084696
0.090893 -0.702946 0.263031
-0.287801 -0.700676 -0.076487
0.441840 -0.718736 -0.085969
0.442983 -0.715981 -0.085066
-0.638052 -0.355505 0.654828
