OFF
256 0 0
-0.650054 0.345822 0.654209
-0.639095 0.343967 -0.083566
0.087010 -0.353217 0.654333
0.439320 -0.018704 0.655903
-0.639709 0.343516 -0.082638
-0.262014 -0.000459 -0.808326
0.434400 -0.333454 -0.406862
-0.263524 -0.003187 -0.809422
0.442319 0.360910 -0.444861
-0.611054 -0.363644 -0.067323
0.082291 0.352964 -0.782751
0.083262 -0.699693 -0.440495
-0.644092 -0.370396 0.641357
0.431167 0.344237 0.254983
-0.297249 0.720846 -0.099215
-0.280971 -0.358492 -0.428758
-0.296455 0.719099 -0.098508
-0.288789 0.368269 -0.441176
0.085886 0.704750 0.265520
0.082770 -0.701028 -0.440132
0.428008 -0.725660 -0.083755
0.081770 -0.702176 -0.440756
-0.297558 0.718936 -0.099168
0.438030 0.002287 -0.798628
0.432385 0.345818 0.255535
0.439471 0.000686 -0.798882
0.428516 -0.726182 -0.084701
0.085771 -0.351727 0.653741
0.794502 0.358933 -0.090921
0.438509 0.005533 -0.798323
-0.288079 0.367483 -0.442002
0.438501 0.005332 -0.797687
0.084644 0.352948 -0.784334
-0.293953 -0.697776 0.643614
-0.637027 0.343505 -0.082886
-0.278613 -0.709143 -0.082779
-0.612676 -0.363972 -0.068502
-0.264954 0.713487 0.632579
-0.288299 0.366892 -0.442725
0.080682 0.721283 -0.419874
0.087028 -0.351976 0.652631
0.428425 -0.725934 -0.083604
0.815507 -0.356129 -0.071725
0.084287 0.354688 -0.783311
0.436764 -0.333140 -0.406425
-0.297971 0.719202 -0.100206
0.457197 0.738223 -0.072028
-0.295924 0.718803 -0.100064
0.084968 -0.353716 0.652499
-0.630940 -0.002592 0.284629
-0.289227 0.366903 -0.442829
0.085398 0.353272 -0.781586
-0.630461 -0.002193 0.284063
0.066295 -0.721897 0.303595
-0.611242 -0.362831 -0.069619
0.094529 -0.342101 -0.814072
-0.281657 -0.710078 -0.082928
0.793975 0.007834 0.268881
0.791982 0.008349 0.269556
-0.296832 0.718361 -0.100860
0.085371 0.351534 -0.784368
0.084543 -0.701195 -0.442270
0.077109 0.330120 0.633335
-0.295444 0.014530 0.640068
0.084797 -0.353944 0.652538
0.454533 0.736856 -0.070226
0.083773 -0.700618 -0.440709
-0.282134 -0.358135 -0.428958
-0.287843 0.367972 -0.440774
-0.638782 0.341786 -0.082616
-0.643095 -0.370712 0.640238
-0.612625 -0.363164 -0.069094
0.067548 -0.720932 0.306003
0.085191 0.705189 0.266629
0.443314 0.360258 -0.443516
0.816367 -0.355986 -0.071919
0.080599 -0.701138 -0.442639
0.458927 0.736573 -0.069899
0.431819 0.343111 0.256744
0.792458 0.007355 0.269620
-0.628370 -0.001506 0.284944
0.439641 0.002689 -0.798593
0.794705 0.357239 -0.092995
-0.648514 -0.714644 0.260741
-0.288194 0.368637 -0.440992
-0.282995 -0.711631 -0.082212
-0.638639 0.343850 -0.084491
-0.288269 0.366468 -0.440320
-0.296110 0.718569 -0.101460
0.794043 0.009067 0.271550
0.096156 -0.340827 -0.814969
-0.652531 0.345910 0.653890
0.080648 -0.700058 -0.439907
0.427320 -0.327342 0.281125
-0.626727 -0.018069 -0.460431
-0.627462 -0.018050 -0.460703
0.792950 0.007899 0.266617
0.069168 -0.721253 0.303461
0.802926 -0.000531 -0.448590
0.439246 0.002250 -0.800142
0.437384 0.004219 -0.799123
-0.264831 0.713694 0.633079
0.434549 -0.335448 -0.405602
-0.296826 0.718072 -0.099289
0.792605 0.007036 0.268834
0.793639 0.007216 0.270610
-0.631542 -0.002143 0.286732
-0.295886 0.015234 0.639673
-0.266917 0.714563 0.633436
-0.282704 -0.358837 -0.429429
0.793926 0.356045 -0.091935
-0.648962 -0.715265 0.262748
0.081408 -0.700813 -0.442240
0.804150 -0.002296 -0.448518
-0.292446 -0.696603 0.646160
0.069048 -0.721464 0.304999
0.439003 -0.020769 0.652357
0.083680 0.720884 -0.420210
0.082490 0.720486 -0.417744
-0.643042 -0.368868 0.640926
-0.281712 -0.710840 -0.081531
0.795202 0.357493 -0.090799
0.436323 0.003490 -0.800044
0.085840 0.705074 0.267351
-0.264029 0.714023 0.633817
-0.651519 0.346757 0.653310
-0.624939 -0.020456 -0.461380
0.804279 0.000326 -0.449031
-0.653227 0.699042 0.273159
0.457222 0.735805 -0.071525
0.815335 -0.355206 -0.069124
-0.638623 0.342213 -0.083409
-0.613772 -0.364263 -0.067239
0.436229 0.002622 -0.799159
0.794135 0.006834 0.270486
0.435925 -0.334352 -0.404495
0.439051 -0.018520 0.656118
0.815988 -0.354719 -0.072473
-0.631290 -0.003794 0.285615
0.094929 -0.343500 -0.812756
-0.653037 0.700500 0.272695
-0.649689 -0.715031 0.259168
0.082032 -0.700672 -0.440890
-0.262010 -0.002062 -0.809767
0.792199 0.007366 0.269877
-0.625963 -0.019600 -0.461394
-0.637329 0.344636 -0.084726
0.443546 0.360370 -0.443870
0.454376 0.736933 -0.072373
0.430887 0.343831 0.256412
-0.613355 -0.364877 -0.067062
0.816093 -0.356384 -0.069823
0.456375 0.738271 -0.071077
-0.298139 0.718804 -0.100895
-0.282360 -0.357993 -0.430970
-0.294954 0.015613 0.639041
0.437545 0.003423 -0.797391
-0.282710 -0.357578 -0.428099
0.068939 -0.721292 0.304570
0.437602 -0.018384 0.655002
-0.649386 -0.714328 0.262489
0.067502 -0.720574 0.302843
-0.265504 0.712413 0.631961
-0.261198 -0.001610 -0.807874
0.437892 0.003584 -0.797910
0.082968 0.352174 -0.782783
0.432438 0.345678 0.256754
0.085730 -0.350760 0.653222
0.069573 -0.722939 0.304473
-0.637626 0.343981 -0.083063
-0.295699 0.015566 0.638157
0.085375 0.705227 0.267005
0.066485 -0.720135 0.303241
0.435929 -0.335639 -0.403930
-0.639040 0.342104 -0.084169
-0.291925 -0.694855 0.642357
0.082118 0.352332 -0.780897
0.098400 -0.343200 -0.812180
0.436106 -0.020804 0.655217
0.082399 0.718357 -0.421083
-0.280802 -0.710964 -0.084198
-0.612201 -0.363918 -0.069956
0.082879 -0.700258 -0.440220
-0.279991 -0.712314 -0.084466
-0.652206 0.343777 0.652922
0.435057 -0.335557 -0.404055
-0.642799 -0.370078 0.642086
0.084547 0.354839 -0.783152
0.437660 -0.019599 0.653492
-0.649602 -0.715010 0.260972
0.081760 0.722145 -0.422192
0.437795 0.001185 -0.799671
0.067740 -0.721001 0.304082
0.086216 0.704004 0.269059
0.085755 -0.351997 0.652056
-0.638825 0.344168 -0.083139
0.440044 -0.021098 0.654603
0.427650 -0.327958 0.280056
0.804010 -0.000533 -0.448345
-0.280995 -0.711939 -0.082078
0.096355 -0.341827 -0.813447
-0.631053 -0.002451 0.284779
0.087438 -0.353745 0.652248
-0.288412 0.368129 -0.442839
0.094307 -0.344880 -0.812007
0.803217 0.000507 -0.447360
-0.653586 0.344297 0.652704
0.096117 -0.343163 -0.814825
-0.644465 -0.371458 0.643588
-0.290331 0.366484 -0.443451
-0.287462 0.368269 -0.443255
-0.262222 -0.002624 -0.809574
0.442694 0.361088 -0.445918
-0.264598 0.713475 0.631794
-0.645834 -0.714185 0.261752
-0.287559 0.368274 -0.443590
0.085642 0.354655 -0.782179
0.096880 -0.343704 -0.814517
-0.296788 0.717636 -0.100534
-0.629718 -0.000922 0.284243
-0.653083 0.345797 0.652912
0.083676 0.354368 -0.781068
0.432332 0.344157 0.253320
-0.648881 -0.714278 0.263256
0.437348 0.003404 -0.799706
0.803719 -0.000958 -0.447583
0.081284 0.719350 -0.422220
0.432056 0.344566 0.254498
-0.284510 -0.358638 -0.430075
0.439319 0.003406 -0.796948
-0.631469 -0.004045 0.284868
-0.295517 0.013842 0.637704
0.096060 -0.342309 -0.813442
0.792766 0.007844 0.268815
-0.648654 -0.714776 0.261566
-0.637826 0.343752 -0.083750
0.437856 0.003765 -0.799085
-0.265276 0.715148 0.632828
0.097641 -0.342408 -0.812714
0.097362 -0.341860 -0.813481
0.082668 0.720766 -0.418939
0.084963 0.704094 0.265351
-0.630122 -0.000768 0.286004
0.082506 -0.699460 -0.442419
0.095478 -0.341164 -0.814151
-0.610831 -0.363841 -0.069685
-0.652148 0.697912 0.271966
0.815010 -0.354482 -0.072275
-0.644072 -0.370513 0.642993
0.097012 -0.341572 -0.812771
-0.264829 0.713226 0.631930
0.435337 -0.334538 -0.406421
-0.651633 0.698430 0.272556
-0.638450 0.343906 -0.083881
-0.651970 0.699005 0.273175
-0.295663 0.719113 -0.100584
