OFF
256 0 0
0.275501 0.712684 0.628601
-0.802490 0.003499 0.298511
0.261269 -0.737341 0.623718
0.273444 0.012566 0.641273
-0.441757 0.353703 -0.444387
-0.802807 0.002721 0.296570
-0.801551 0.005010 0.294403
-0.802067 0.004135 0.295430
-0.073841 -0.360855 0.644280
-0.419296 -0.352905 0.278601
0.665062 0.000322 -0.452808
-0.080457 0.730316 -0.444894
0.261035 -0.738149 0.622634
0.662639 -0.002223 -0.451196
-0.080752 0.730606 -0.442786
0.274666 0.331460 -0.437550
-0.792713 0.011612 -0.433877
-0.087164 -0.722641 -0.457452
-0.084675 -0.721782 -0.457641
-0.816841 0.347937 -0.080947
-0.801925 0.004578 0.295919
0.664454 -0.000991 -0.452984
-0.078467 0.370831 -0.798326
-0.437498 0.337442 0.283213
-0.085394 -0.721889 -0.457494
-0.071164 0.711505 0.271040
-0.407546 -0.355567 -0.414790
0.631473 -0.359117 0.647707
-0.792197 0.011463 -0.432472
0.276693 0.329450 -0.437746
-0.089566 -0.354365 -0.797420
-0.446224 -0.732675 -0.102315
-0.079474 0.369317 -0.797928
0.269071 -0.332743 -0.448036
-0.420199 -0.007027 -0.827480
-0.443822 0.356451 -0.444682
-0.445286 -0.729528 -0.103419
-0.418679 -0.005032 -0.829416
-0.418262 -0.005959 -0.829205
0.625066 -0.689487 0.272400
-0.079611 0.728869 -0.441124
-0.443241 0.356458 -0.445076
0.272583 0.012233 0.639020
0.633064 -0.005374 0.297704
-0.073064 0.712123 0.270422
-0.096730 0.369715 0.664062
0.259798 -0.737024 0.623942
-0.438393 0.338277 0.284300
0.651040 -0.342367 -0.089635
0.273376 0.010736 0.640418
0.277204 0.328852 -0.437935
-0.438411 0.336004 0.284527
0.286485 0.722380 -0.080700
0.273230 0.012388 0.639342
0.277211 0.330080 -0.438288
0.630885 0.352282 -0.069136
0.652086 -0.342610 -0.091229
0.649359 0.701023 0.287939
0.624394 -0.691365 0.274244
-0.448373 0.695779 -0.086844
-0.803528 0.004178 0.294692
-0.090578 -0.355251 -0.797393
-0.439999 0.336383 0.285452
0.663983 -0.002485 -0.452108
-0.073818 -0.362079 0.645058
0.259677 -0.737907 0.623390
0.250229 -0.720290 -0.076411
0.631550 0.353411 -0.068871
-0.807427 -0.352716 -0.072934
0.648713 0.338909 0.649572
-0.807256 -0.351188 -0.071981
-0.816083 0.349152 -0.080070
0.262444 -0.737445 0.624354
-0.421284 -0.000540 0.658830
-0.419362 -0.355301 0.276684
-0.806487 -0.353017 -0.073989
0.289496 0.017531 -0.810785
-0.077077 -0.692782 0.281767
-0.410292 -0.355420 -0.415353
-0.075553 -0.691522 0.278499
0.623062 -0.690536 0.274878
0.272579 0.013672 0.640431
0.289206 0.016840 -0.813932
0.630934 -0.358158 0.645965
-0.419951 -0.009017 -0.828805
0.633353 -0.004716 0.296427
-0.445539 -0.729744 -0.102589
-0.792560 0.010281 -0.432691
-0.805375 -0.353905 -0.072312
0.650654 0.702582 0.289675
0.267505 -0.330827 -0.450250
-0.422080 -0.353636 0.275185
-0.098456 0.368376 0.664725
-0.072754 -0.358379 0.645977
0.665796 -0.002189 -0.450789
0.266745 -0.332830 -0.447963
0.276044 0.328793 -0.437622
-0.806344 -0.353625 -0.073908
0.251336 -0.719222 -0.077111
0.647570 0.338197 0.650465
0.648659 0.339521 0.650747
0.259850 -0.736663 0.623049
0.624080 -0.691769 0.274896
-0.805193 -0.350769 -0.075295
-0.408265 -0.357169 -0.416544
0.276274 0.329056 -0.439444
-0.073554 0.708775 0.269919
0.651510 -0.341636 -0.091577
0.629864 0.350087 -0.067529
0.260804 -0.734572 0.625221
0.278412 0.712103 0.630251
-0.437590 0.337191 0.285926
-0.080427 0.730519 -0.443329
-0.077348 0.371189 -0.795561
0.275888 0.329228 -0.437460
-0.081876 0.729882 -0.441975
0.630719 0.352676 -0.067799
-0.446501 -0.732430 -0.101089
-0.791196 0.013405 -0.432155
-0.423513 -0.001294 0.660470
-0.806466 -0.352671 -0.074258
-0.814789 0.348334 -0.083319
0.276012 0.329105 -0.438100
0.622662 -0.692747 0.274783
0.664466 -0.000597 -0.452265
-0.081234 0.729638 -0.443946
0.652090 -0.343472 -0.090819
0.276311 0.329249 -0.438406
-0.791309 0.013609 -0.432852
0.287872 0.721121 -0.079636
0.290138 0.014878 -0.811737
0.288245 0.015266 -0.811057
-0.409435 -0.356130 -0.417651
-0.085498 -0.723162 -0.458035
0.651947 -0.343919 -0.091327
-0.088109 -0.353464 -0.797592
-0.407289 -0.355821 -0.416501
0.277226 0.329830 -0.438817
-0.077627 0.368716 -0.795070
-0.448401 0.695090 -0.084978
0.630104 0.353216 -0.068148
-0.097597 0.369157 0.662300
-0.079992 0.370691 -0.798126
-0.088751 -0.353294 -0.799743
0.633903 -0.004169 0.296593
0.632201 -0.002564 0.297598
0.630179 0.354039 -0.068574
0.260374 -0.738608 0.624360
-0.442652 0.355570 -0.446593
-0.793562 0.012151 -0.433169
0.276509 0.712168 0.628700
0.261106 -0.737840 0.624009
0.629435 0.352430 -0.067493
0.632666 -0.359469 0.645818
-0.085184 -0.722901 -0.459471
-0.075393 -0.359548 0.645954
0.646581 0.338352 0.651394
-0.422130 -0.001070 0.658417
-0.423966 -0.001124 0.658643
-0.441922 0.355437 -0.443732
-0.080148 0.728479 -0.443409
0.273576 0.011807 0.640074
0.630523 0.352305 -0.066956
-0.442569 0.356908 -0.446242
-0.790859 0.012483 -0.431291
-0.080119 0.368603 -0.798040
-0.444248 0.355118 -0.443636
-0.076627 -0.692288 0.280375
-0.815758 0.346668 -0.082628
-0.089835 -0.354156 -0.795926
-0.097197 0.368499 0.664983
0.646374 0.339100 0.647912
-0.804882 -0.352289 -0.073049
-0.440731 0.338483 0.285011
-0.420772 -0.008116 -0.830856
0.291520 0.014708 -0.810239
-0.409335 -0.355056 -0.415320
0.251923 -0.719907 -0.074489
0.632080 0.350661 -0.069157
-0.410226 -0.354056 -0.414783
0.631831 -0.360002 0.646934
0.271648 0.013988 0.639902
0.271358 0.012495 0.639796
0.276269 0.329932 -0.436269
0.286159 0.723594 -0.077648
-0.096355 0.369002 0.664689
-0.423557 -0.001382 0.659202
0.631999 -0.003195 0.296259
0.634159 -0.358938 0.647892
0.632476 -0.003370 0.298008
-0.410495 -0.355283 -0.413113
0.274857 0.330292 -0.439225
0.664940 -0.000512 -0.453782
0.664740 0.001632 -0.453294
0.277555 0.711775 0.629748
0.288226 0.014994 -0.813157
0.277252 0.328900 -0.437488
0.289494 0.016440 -0.811094
-0.790023 0.011104 -0.433989
0.630214 0.352393 -0.069509
-0.439851 0.336897 0.284726
-0.448843 0.695313 -0.085343
-0.422204 -0.000376 0.660505
-0.790698 0.012445 -0.433548
0.649351 0.703101 0.288920
0.632149 -0.003612 0.298346
-0.417321 -0.007243 -0.830599
0.647943 0.339636 0.650955
0.647431 0.339323 0.651502
0.260603 -0.737400 0.621862
0.632795 -0.005106 0.298399
-0.409749 -0.357521 -0.414502
-0.074611 -0.359311 0.647688
0.630221 0.352456 -0.069129
-0.075923 -0.691928 0.280135
-0.089488 -0.355327 -0.799197
-0.423497 -0.000910 0.656538
-0.407233 -0.353180 -0.415109
0.632264 -0.005542 0.297711
0.628905 0.351320 -0.067986
-0.086304 -0.724271 -0.458311
-0.075846 -0.693216 0.278812
0.276786 0.712059 0.627894
-0.801245 0.003926 0.295411
-0.088981 -0.354744 -0.799258
-0.443289 0.356152 -0.445502
-0.073861 0.709649 0.270352
0.286988 0.015999 -0.811556
0.647328 0.339553 0.650627
-0.410487 -0.356404 -0.418001
0.289228 0.017279 -0.812787
0.645789 0.338877 0.649439
0.630725 -0.360164 0.646950
-0.815888 0.348131 -0.082866
-0.080971 0.729184 -0.442099
-0.447533 0.697684 -0.087157
0.260955 -0.738372 0.621802
0.623348 -0.692207 0.272805
0.664287 -0.001022 -0.451438
-0.077892 0.368410 -0.797247
0.268324 -0.331185 -0.449236
0.631492 0.351542 -0.067845
-0.806149 -0.354511 -0.075792
0.647520 0.339724 0.648632
0.272318 0.013132 0.638848
-0.805647 -0.352178 -0.073247
-0.806671 -0.353303 -0.074831
0.277574 0.711965 0.628861
0.268496 -0.330505 -0.449037
-0.091040 -0.355223 -0.799524
0.663170 -0.000690 -0.454279
-0.080793 0.730570 -0.442883
-0.815956 0.348270 -0.083698
-0.098117 0.366630 0.662912
-0.440911 0.356511 -0.447136
0.622302 -0.690727 0.272895
