OFF
256 0 0
-0.102644 -0.730494 -0.418422
-0.093346 0.357831 -0.816171
-0.808356 0.354117 -0.083966
0.657443 0.003690 0.277558
-0.784005 0.027490 0.276849
-0.079906 -0.392952 -0.814429
-0.447263 -0.368915 -0.460779
-0.065163 0.375887 0.641760
-0.093222 0.356666 -0.817157
-0.063392 0.375104 0.642835
0.630646 0.336997 -0.061147
-0.439539 0.723904 -0.077046
0.643032 0.381103 0.632063
-0.063262 0.375750 0.643542
0.278434 0.669113 -0.060657
-0.063098 -0.348072 0.618424
0.658472 0.004605 0.277616
0.643882 0.380706 0.631300
-0.078934 -0.391696 -0.813306
0.658192 0.003702 0.278065
-0.080973 -0.695332 0.281766
0.644230 0.381150 0.632380
0.643967 0.381294 0.631729
-0.786685 0.026124 0.276565
-0.446511 -0.367026 -0.461313
-0.436588 -0.318386 0.283087
-0.435415 -0.315863 0.284056
0.256141 -0.362328 -0.447451
0.278414 0.668684 -0.061364
-0.460931 -0.698725 -0.067168
0.286651 0.717071 0.631688
0.643940 0.381379 0.632254
-0.063236 -0.348069 0.618901
-0.439001 0.727610 -0.077093
-0.101479 -0.728319 -0.416878
0.630066 -0.719011 0.293070
0.274952 -0.017657 -0.798670
0.631668 0.336927 -0.062160
-0.443837 -0.369039 -0.461173
-0.425209 0.014576 0.658417
0.257340 -0.361884 -0.447044
-0.434966 -0.319424 0.282605
-0.425196 0.013527 0.658044
-0.447890 -0.368532 -0.461009
0.257064 -0.360732 -0.444016
-0.446924 -0.366947 -0.460782
0.279243 0.668813 -0.061100
0.308654 0.012059 0.650880
0.275824 -0.017474 -0.800496
0.286265 0.717287 0.627994
-0.433598 -0.317990 0.282066
0.658232 0.004419 0.276464
-0.100470 -0.729350 -0.417022
-0.079276 -0.392107 -0.813945
-0.051490 0.722206 0.280671
-0.061540 -0.347446 0.616576
0.643298 0.378176 0.630672
-0.438807 0.724350 -0.079249
-0.785674 -0.344514 -0.083114
-0.808864 0.354282 -0.084995
-0.417000 0.368266 0.261341
-0.422941 0.014282 0.659520
-0.802784 -0.011098 -0.440631
0.646761 0.379516 0.631066
-0.052224 0.723193 0.281984
0.255881 -0.362872 -0.446916
0.276065 -0.017511 -0.801225
-0.062230 -0.348299 0.619113
-0.434213 -0.318741 0.281983
-0.787710 -0.345340 -0.082511
-0.456216 0.352521 -0.433095
-0.786368 -0.343784 -0.082242
0.274879 -0.713685 -0.076375
-0.455206 0.351557 -0.431818
-0.063867 0.374010 0.642221
0.646213 0.006727 -0.438840
-0.080979 -0.695677 0.280046
-0.100630 -0.726674 -0.417934
0.275385 -0.018015 -0.800253
-0.784789 0.027823 0.277869
-0.413144 0.366928 0.261543
-0.064634 0.373381 0.642552
-0.425115 0.013071 0.659429
0.645135 0.382626 0.629824
0.274635 -0.714995 -0.074225
0.644863 0.004401 -0.438720
0.655952 0.002686 0.277465
-0.062189 -0.348132 0.617453
-0.069695 0.708952 -0.431603
0.288114 0.717367 0.627859
0.624806 -0.344104 -0.068892
0.257506 -0.724051 0.637666
0.258845 -0.726006 0.637637
0.644235 0.382455 0.631553
-0.077695 -0.394433 -0.813048
-0.462487 -0.699184 -0.066023
-0.808083 0.356410 -0.084447
-0.788847 -0.343559 -0.083034
0.630738 0.337581 -0.060663
0.282513 0.668935 -0.062916
0.286340 0.717319 0.630165
-0.445960 -0.369515 -0.460287
-0.093060 0.358825 -0.816231
0.275219 -0.715091 -0.075175
-0.063051 -0.348630 0.618280
-0.415762 0.367371 0.261678
-0.446585 -0.366551 -0.458918
-0.072105 0.708086 -0.430948
-0.436290 -0.317012 0.282931
0.645292 0.005369 -0.437639
0.655509 0.005625 0.276355
0.646555 -0.366344 0.640133
-0.070018 0.709189 -0.433336
-0.435099 -0.319520 0.282426
-0.788993 -0.342472 -0.083833
-0.455139 0.351867 -0.431598
-0.426684 0.013696 0.659424
0.645117 0.003940 -0.437519
0.256148 -0.363051 -0.445908
-0.434543 -0.317749 0.282581
-0.100148 -0.729032 -0.418484
-0.070181 0.708712 -0.434074
-0.810170 0.354465 -0.084844
-0.461456 -0.005600 -0.800186
-0.079716 -0.695310 0.281507
0.275602 -0.713162 -0.073541
-0.070087 0.709812 -0.432949
-0.415051 0.367036 0.260335
0.275401 -0.017040 -0.800036
0.645273 -0.366352 0.638225
-0.076883 -0.393764 -0.814266
-0.416682 0.366929 0.262973
-0.101152 -0.727119 -0.417913
-0.065686 0.376036 0.641462
0.658309 0.005726 0.274822
-0.456270 0.351168 -0.429619
0.277531 0.327495 -0.455544
0.310626 0.014199 0.650921
0.273913 -0.714608 -0.073691
-0.063445 -0.347533 0.617602
-0.438920 0.725959 -0.077812
-0.416067 0.366232 0.260216
-0.461899 -0.698727 -0.066283
0.279567 0.329048 -0.453378
-0.810261 0.353861 -0.084454
0.627504 -0.719847 0.291105
0.258497 -0.727089 0.637447
-0.464557 -0.005164 -0.797062
-0.090518 0.357302 -0.818008
-0.453385 0.351851 -0.431893
-0.444641 -0.368770 -0.461030
0.630534 0.701179 0.271266
-0.070012 0.708119 -0.432896
0.279030 0.326824 -0.455331
0.644505 -0.365184 0.638765
0.645485 0.005853 -0.438609
-0.093813 0.357629 -0.815624
0.281198 0.670634 -0.062067
0.625291 -0.342962 -0.071029
-0.078723 -0.695078 0.281682
-0.070913 0.706877 -0.432234
0.627078 -0.343898 -0.068202
-0.445952 -0.367076 -0.460196
-0.080659 -0.696241 0.280434
-0.808335 0.355046 -0.084002
0.260173 -0.725629 0.636546
-0.070917 0.708748 -0.432079
0.644960 0.004910 -0.438781
-0.070658 0.708634 -0.430263
-0.415437 0.364930 0.261059
-0.092740 0.357096 -0.817705
-0.784753 0.025806 0.278169
0.258590 -0.726437 0.636137
0.278593 0.329367 -0.455711
0.286757 0.717275 0.629124
-0.444988 -0.366482 -0.459788
0.286469 0.718213 0.629493
-0.050577 0.724626 0.283978
-0.460853 -0.697449 -0.066828
0.276536 -0.016346 -0.799447
-0.051996 0.723361 0.282249
0.644944 0.004574 -0.438691
0.279481 0.668794 -0.061632
-0.447219 -0.367753 -0.460069
-0.062397 0.374634 0.642990
-0.437728 0.722394 -0.077520
-0.080015 -0.696510 0.280391
-0.425440 0.012842 0.659315
-0.092760 0.357330 -0.815420
-0.079047 -0.693730 0.282920
-0.091672 0.357835 -0.816716
0.630536 0.336130 -0.061346
0.645016 0.006000 -0.438741
0.657242 0.004350 0.278175
0.645736 -0.364582 0.639956
0.255125 -0.361882 -0.447357
-0.438049 0.724609 -0.077151
-0.464911 -0.006597 -0.797893
0.275729 -0.017647 -0.798911
-0.080645 -0.694629 0.280904
-0.426233 0.011843 0.658377
0.626352 -0.344022 -0.071106
-0.092039 0.358046 -0.818114
0.645915 -0.366127 0.637786
-0.079158 -0.393079 -0.815926
-0.052547 0.722612 0.281345
-0.064787 0.374447 0.642169
-0.808366 0.355980 -0.083866
-0.050461 0.722839 0.281204
0.256417 -0.360149 -0.448459
-0.080209 -0.694698 0.280636
-0.091516 0.358079 -0.817209
0.645698 0.380812 0.631163
0.658857 0.004595 0.276949
-0.094182 0.357117 -0.817505
0.309015 0.009477 0.650416
-0.080234 -0.695213 0.279292
-0.807399 0.355678 -0.085930
0.286046 0.717280 0.628218
0.276874 -0.017816 -0.798077
-0.052787 0.722573 0.282539
-0.435406 -0.317257 0.283646
0.645218 0.006470 -0.438063
0.309836 0.011557 0.653368
-0.807467 0.353932 -0.083666
0.656026 0.004109 0.275466
0.260246 -0.728840 0.637001
-0.079176 -0.393697 -0.813545
0.276456 -0.017037 -0.798418
0.645390 0.381927 0.630961
0.645910 -0.365429 0.639296
-0.078981 -0.391721 -0.815970
-0.803787 -0.011984 -0.440367
-0.424471 0.013854 0.660086
0.629844 0.337045 -0.063082
0.279281 0.667907 -0.061964
-0.061876 -0.347576 0.616918
-0.079023 -0.392581 -0.813689
-0.462598 -0.005451 -0.797302
-0.062286 -0.346047 0.617572
-0.785416 0.025903 0.278097
0.273350 -0.715702 -0.075021
0.286372 0.717733 0.632318
0.274799 -0.713122 -0.073852
-0.052391 0.722721 0.282424
0.645760 -0.366301 0.639185
-0.463442 -0.007616 -0.798276
0.280475 0.667506 -0.061195
-0.425792 0.013271 0.657067
0.278364 0.668961 -0.062047
0.645640 0.006286 -0.438151
-0.093022 0.358120 -0.817832
0.629513 -0.720158 0.291313
-0.787409 -0.343770 -0.083993
0.280350 0.328051 -0.455795
0.275618 -0.017501 -0.799430
