OFF
256 0 0
-0.421595 0.703193 -0.095324
-0.782645 -0.007138 -0.417821
-0.429232 -0.349810 0.239543
-0.419892 0.702815 -0.096309
-0.783542 -0.006603 -0.417073
0.632346 0.363024 0.612966
-0.422791 0.701954 -0.096026
0.625631 -0.728849 0.282088
0.605055 -0.356237 0.625881
-0.051318 0.340718 -0.793470
0.263759 -0.698570 0.620706
-0.436342 -0.352689 -0.403665
0.632161 0.698486 0.275059
-0.083538 0.690894 -0.440056
-0.782474 -0.006063 -0.419978
0.633243 0.700303 0.277417
0.271267 0.328745 -0.417206
-0.434369 -0.351965 -0.402612
0.624505 -0.727863 0.280908
-0.082428 0.690220 -0.438980
0.265124 0.718393 0.621749
-0.084557 0.690729 -0.438057
-0.051535 0.341506 -0.792424
0.625294 -0.360191 -0.051677
0.627253 0.352594 -0.075200
0.630989 0.700416 0.276874
0.643373 -0.009321 -0.413837
0.266845 0.705478 -0.064580
-0.441701 0.006931 -0.779367
-0.441303 0.005245 -0.778078
0.269816 0.330243 -0.417125
0.263428 -0.696644 0.620245
0.624882 -0.728122 0.282004
-0.767049 -0.001747 0.253929
-0.420880 0.702648 -0.094980
-0.773861 0.350636 -0.078776
0.254538 0.014484 0.634284
-0.442707 0.009690 -0.777917
-0.766289 -0.004469 0.256603
0.266269 -0.010007 -0.763771
-0.051504 0.340714 -0.794559
0.272625 -0.682822 -0.092751
-0.444190 0.005847 -0.777986
0.625899 -0.004215 0.284808
-0.090604 0.714660 0.266790
-0.436552 0.345942 -0.434587
-0.423053 0.703376 -0.093133
-0.443038 0.005409 -0.776793
-0.078569 0.360824 0.620781
0.625292 -0.728285 0.281439
0.267640 0.705608 -0.064249
-0.798565 -0.352687 -0.086295
0.260866 -0.311238 -0.391871
0.627407 -0.003690 0.287405
-0.798875 -0.351640 -0.087131
0.627188 -0.002895 0.286404
0.630943 0.701389 0.276834
-0.078689 -0.357463 -0.771813
0.267671 0.704879 -0.063303
0.265662 -0.008805 -0.764884
-0.443990 0.005752 -0.778484
0.268710 0.705607 -0.064106
-0.785366 -0.009401 -0.418287
0.641832 -0.009093 -0.414538
0.264825 0.717836 0.620145
0.263081 -0.697646 0.619902
-0.436063 -0.350104 -0.403164
0.272374 -0.684073 -0.095812
-0.428631 -0.347738 0.239904
-0.085093 0.690498 -0.439195
-0.799785 -0.352822 -0.087223
0.264881 0.717563 0.621632
-0.050760 0.341691 -0.793275
0.265691 -0.009425 -0.765626
0.632571 0.363060 0.614064
-0.418934 0.352865 0.257283
0.266909 0.705777 -0.063381
-0.766575 -0.001050 0.253592
0.628945 0.350363 -0.077052
-0.079309 -0.357684 -0.769999
0.625507 -0.726641 0.282011
-0.783789 -0.008066 -0.418484
-0.089374 0.714561 0.268039
0.628896 0.349966 -0.075517
-0.434989 -0.350746 -0.405521
-0.065026 -0.688844 0.244718
0.644224 -0.008421 -0.413707
0.606443 -0.356650 0.628172
0.262108 -0.309028 -0.391675
-0.078513 -0.356903 -0.770404
0.643120 -0.008514 -0.415106
-0.430306 -0.710046 -0.080349
-0.429687 -0.711601 -0.082524
0.263759 0.716799 0.623600
-0.066370 -0.688057 0.245400
-0.434990 -0.349595 -0.402823
0.274018 -0.685559 -0.094683
-0.436309 0.347515 -0.433734
0.268426 0.706046 -0.064311
0.264649 -0.009774 -0.763198
-0.774791 0.348760 -0.079845
-0.077099 0.362980 0.621812
-0.435589 0.347067 -0.434937
-0.431286 -0.348776 0.241611
-0.431983 -0.709591 -0.083286
-0.799943 -0.351812 -0.088926
0.625831 -0.728613 0.283392
0.621565 -0.359198 -0.052120
-0.430302 -0.350396 0.239700
0.267332 0.705677 -0.063530
-0.076451 0.361553 0.620595
-0.065289 -0.688674 0.244124
0.606573 -0.356984 0.626490
-0.419500 0.353758 0.255230
0.605832 -0.356050 0.626365
0.627163 0.350438 -0.078267
0.274521 -0.683262 -0.093178
-0.068639 -0.344168 0.625670
-0.442838 0.005506 -0.777593
-0.419835 0.352148 0.254228
-0.434429 0.348343 -0.433443
0.268257 0.706587 -0.062607
0.262335 -0.310801 -0.391740
0.263512 -0.698035 0.619765
-0.443346 0.005578 -0.777304
0.633652 0.698072 0.275426
0.261264 -0.309418 -0.391065
-0.429371 -0.349583 0.239877
-0.784422 -0.006611 -0.418224
-0.443564 0.004797 -0.778510
-0.442484 0.006116 -0.778153
0.605179 -0.356365 0.626700
-0.441893 0.007033 -0.777785
-0.784263 -0.006217 -0.416885
0.264946 -0.009968 -0.764022
-0.065421 -0.687387 0.247305
0.274754 -0.683499 -0.093956
-0.423444 -0.024735 0.611741
-0.768100 -0.002657 0.254334
0.631969 0.699187 0.274866
0.605342 -0.355064 0.625571
-0.066221 -0.686417 0.245584
-0.078076 0.360804 0.620677
0.272484 0.329024 -0.417994
0.629420 0.359738 0.612895
-0.064491 -0.689299 0.243724
0.608985 -0.355376 0.628958
0.624137 -0.727163 0.283180
-0.087725 0.715082 0.266871
-0.436507 -0.352075 -0.403122
-0.052559 0.340703 -0.794683
-0.418350 0.353097 0.253543
-0.431305 -0.348415 0.240682
0.642591 -0.008369 -0.417037
0.605512 -0.356316 0.625985
0.266303 -0.010339 -0.764492
-0.426456 -0.024521 0.611843
-0.089769 0.714544 0.266940
-0.418606 0.352224 0.252168
-0.069599 -0.343660 0.626554
-0.069386 -0.343454 0.625522
-0.051702 0.342275 -0.792877
-0.424326 -0.023601 0.612705
0.623918 -0.730074 0.281992
0.628994 0.362543 0.613327
-0.443097 0.005904 -0.778079
0.605491 -0.356587 0.624612
0.275889 -0.684032 -0.094360
0.630673 0.361377 0.612164
0.622298 -0.360280 -0.051073
-0.441265 0.006544 -0.777212
-0.066698 -0.691507 0.245581
0.607321 -0.355174 0.627126
0.266940 0.705016 -0.066237
-0.782831 -0.005482 -0.416878
0.262538 -0.307040 -0.390766
0.622503 -0.361933 -0.051545
0.631909 0.700311 0.275341
0.266736 0.704102 -0.064894
0.263772 -0.697461 0.621353
-0.435473 0.345669 -0.434241
-0.421287 0.701415 -0.094520
0.263786 -0.011913 -0.764087
0.632589 0.362298 0.613663
-0.419347 0.354124 0.254262
0.261166 -0.310565 -0.391197
-0.066028 -0.689046 0.243055
-0.436761 0.346551 -0.433797
-0.430045 -0.347669 0.241409
-0.068591 -0.343833 0.624926
0.606701 -0.354169 0.625798
0.632400 0.700171 0.274333
0.267007 0.706472 -0.064638
0.631717 0.699360 0.272921
-0.418653 0.352968 0.252608
0.631542 0.363386 0.614957
0.626388 -0.004263 0.286750
0.631665 0.362429 0.612455
-0.418482 0.353707 0.254665
-0.067646 -0.340888 0.624312
-0.774743 0.349686 -0.078276
-0.062422 -0.701912 -0.426245
-0.429252 -0.711455 -0.081469
-0.782444 -0.007501 -0.417160
-0.436134 -0.351785 -0.402147
0.265097 0.718408 0.622558
0.263805 -0.698768 0.619925
0.270641 0.329139 -0.417296
0.605951 -0.353433 0.627195
-0.434587 0.346438 -0.433928
-0.766021 -0.001408 0.254716
0.265841 -0.011245 -0.761184
0.260664 -0.313290 -0.393604
-0.435617 -0.351620 -0.402673
-0.083872 0.691955 -0.438394
-0.429977 -0.350890 0.240271
0.641403 -0.009477 -0.414374
-0.067376 -0.689216 0.245306
0.271046 0.330135 -0.417769
-0.416959 0.351733 0.253889
-0.066233 -0.689025 0.245089
-0.430130 -0.348765 0.240625
0.272056 0.328470 -0.416117
-0.068593 -0.344193 0.626241
-0.782936 -0.006663 -0.416863
-0.782839 -0.008216 -0.417742
0.253740 0.014714 0.632969
0.643563 -0.008484 -0.413829
0.263972 0.717823 0.621602
-0.415999 0.352908 0.254776
0.631550 0.360290 0.615353
-0.797194 -0.350883 -0.087544
0.643879 -0.008461 -0.412755
0.624952 -0.728040 0.284059
-0.766484 -0.001424 0.252955
-0.781760 -0.006667 -0.416194
0.263139 -0.696489 0.622083
0.274559 -0.685927 -0.094776
0.271186 0.329910 -0.416802
0.622156 -0.358505 -0.051495
-0.421694 0.702098 -0.094193
-0.078028 0.359782 0.619641
-0.078212 0.361099 0.620447
0.623046 -0.726907 0.281828
0.270966 0.329933 -0.417647
0.263922 -0.008360 -0.763320
0.630343 0.350148 -0.077819
-0.798873 -0.350724 -0.086495
-0.079521 0.361892 0.621692
-0.051168 0.341728 -0.793487
-0.418366 0.353922 0.255089
-0.782403 -0.004124 -0.418276
-0.799010 -0.352047 -0.087721
-0.066585 -0.690429 0.246206
-0.069442 -0.344269 0.626425
-0.423974 -0.024919 0.612840
