OFF
256 0 0
0.114038 0.699330 0.274894
-0.637309 0.327745 -0.073283
0.444144 0.355963 0.312561
0.086044 0.367470 0.648055
0.065093 -0.387100 -0.814132
-0.245889 0.339908 -0.432462
0.061739 -0.707525 -0.449049
0.443101 0.354485 0.310744
0.433315 -0.323550 0.281927
0.411547 -0.020679 -0.781983
-0.641177 0.349518 0.634847
0.060727 -0.706084 -0.447974
-0.273222 0.017596 0.632242
-0.648400 -0.011518 0.284365
0.085010 0.747723 -0.428463
-0.246007 0.340574 -0.430569
0.431992 -0.321746 0.282178
-0.275017 0.687302 0.639768
0.444026 0.353769 0.312334
0.442198 0.353194 0.311497
0.440357 0.356183 0.312876
-0.639037 0.329556 -0.074932
-0.634288 0.709249 0.287743
0.114515 0.697435 0.276421
-0.246550 0.341586 -0.432386
-0.646691 0.000752 -0.440227
0.066075 -0.387999 -0.814637
0.409529 -0.021956 -0.783375
0.412130 -0.022180 -0.782397
0.421726 -0.337683 -0.432726
-0.262592 -0.362584 -0.429639
0.066602 -0.387288 -0.815579
0.066549 -0.387309 -0.814060
0.422411 -0.337303 -0.433975
0.429865 -0.678871 -0.077972
0.430221 -0.678972 -0.077097
-0.636181 0.328802 -0.073543
-0.274571 -0.718067 -0.075034
0.066057 -0.387537 -0.814766
0.810867 -0.363224 -0.079178
-0.638040 0.329153 -0.075042
-0.287167 -0.705568 0.647051
0.812157 0.006320 0.263019
0.421042 -0.336885 -0.432726
0.429430 -0.680648 -0.079860
-0.647212 0.001010 -0.442652
-0.248369 0.342796 -0.431323
-0.635746 0.710603 0.286315
-0.631497 -0.718161 0.275515
-0.638850 0.329463 -0.074272
0.073135 0.355017 -0.819538
-0.253035 0.698481 -0.064709
-0.637179 0.329323 -0.073927
0.431563 -0.324480 0.280401
-0.276462 0.689864 0.639267
0.113760 0.697624 0.275430
-0.252354 0.697227 -0.065231
-0.272353 -0.716540 -0.072653
0.443267 0.354877 0.310974
-0.245985 0.341071 -0.430788
0.060599 -0.707313 -0.449245
-0.262606 -0.364097 -0.432713
-0.296331 0.002382 -0.796895
-0.250981 0.696570 -0.065404
-0.632398 -0.720328 0.277027
0.061414 -0.707441 -0.448276
0.412593 -0.021025 -0.781901
-0.641818 0.348908 0.636129
0.786331 -0.007919 -0.430710
-0.274760 -0.715727 -0.073197
-0.252944 0.698076 -0.067131
-0.271361 -0.716180 -0.074710
-0.294951 0.002956 -0.796552
0.421674 -0.335533 -0.433886
-0.651983 -0.351962 -0.089008
-0.649567 -0.012417 0.284243
0.812793 0.006639 0.263748
0.418276 0.349944 -0.457976
-0.296325 0.002915 -0.796988
0.443024 0.354774 0.312109
0.061157 -0.707287 -0.449922
-0.633631 0.708692 0.286333
0.086265 0.746341 -0.429888
-0.631732 -0.717954 0.274358
0.410164 -0.021537 -0.782184
-0.646308 0.001065 -0.443209
-0.652717 -0.352356 -0.087980
0.112814 0.697380 0.275951
-0.651674 -0.352766 -0.089012
-0.637476 0.329229 -0.075982
0.423252 -0.337590 -0.431321
-0.651943 -0.353252 -0.088422
-0.272784 0.018488 0.632723
-0.651893 -0.351905 -0.087414
-0.273398 0.017672 0.631750
-0.246035 0.340664 -0.431204
-0.619468 -0.357977 0.616939
-0.635901 0.709382 0.285804
-0.631587 -0.719485 0.276162
0.443931 0.357247 0.312061
-0.631687 -0.718318 0.275476
0.072399 0.353747 -0.820059
0.066020 -0.387419 -0.814031
-0.621025 -0.358020 0.616146
-0.637224 0.328685 -0.072683
-0.245241 0.341669 -0.432212
0.065554 -0.708593 0.278285
0.072834 0.356731 -0.817295
-0.263326 -0.362755 -0.432379
0.062552 -0.706139 -0.448878
-0.652960 -0.352568 -0.089419
0.068660 -0.708611 0.278601
0.068158 -0.706063 0.279431
0.461218 0.730476 -0.090761
0.084501 0.746700 -0.429803
0.411880 -0.022392 -0.782528
0.067787 -0.708092 0.278066
0.417599 0.351942 -0.462044
0.417560 0.349776 -0.461626
-0.273479 0.019376 0.629678
0.431541 -0.678341 -0.078654
-0.274169 0.686482 0.638744
-0.632550 -0.719205 0.275105
0.442730 0.356253 0.309908
0.443036 0.356465 0.312269
0.788323 -0.006150 -0.430790
-0.296645 0.001718 -0.796697
-0.272813 -0.715721 -0.073547
0.112841 0.697151 0.274845
0.442331 0.354120 0.311555
-0.631871 -0.719846 0.276279
0.115351 0.696283 0.274338
0.788230 -0.007598 -0.431407
0.442491 0.356276 0.310736
-0.646886 0.001367 -0.441055
-0.634210 -0.718963 0.276440
-0.284511 -0.705666 0.646904
-0.647171 -0.010173 0.284632
0.065765 -0.386780 -0.814157
-0.272834 -0.716544 -0.072748
-0.285870 -0.704220 0.649516
-0.284890 -0.706257 0.646399
0.420378 -0.339129 -0.432699
0.067866 -0.709090 0.278737
0.073603 0.356481 -0.816499
-0.273976 0.687426 0.638211
0.070970 -0.352278 0.656833
-0.633304 -0.718828 0.273201
0.071085 -0.352800 0.656164
-0.636863 0.330253 -0.074827
0.059690 -0.705915 -0.448565
-0.275580 0.688266 0.639957
-0.650085 -0.010182 0.283828
0.062036 -0.706309 -0.449404
0.071231 -0.350965 0.657365
0.061175 -0.707351 -0.449229
-0.636468 0.329346 -0.072195
-0.636939 0.329564 -0.074952
-0.276034 0.686911 0.640574
-0.294303 0.001997 -0.795332
0.442737 0.354922 0.312045
0.115232 0.697489 0.275855
0.462095 0.728580 -0.090631
-0.251635 0.696763 -0.065009
0.419722 -0.337482 -0.432812
0.420471 -0.336741 -0.433516
-0.639570 0.328533 -0.075089
0.073087 0.355186 -0.817361
-0.263958 -0.361849 -0.431364
-0.295925 0.002527 -0.796638
0.787349 -0.008650 -0.432199
0.432096 -0.324203 0.282401
0.084298 0.745564 -0.427839
0.065876 -0.386546 -0.815867
0.114111 0.699042 0.274117
-0.262149 -0.366046 -0.431243
-0.246410 0.341595 -0.430615
0.455901 0.000726 0.645588
-0.286245 -0.706792 0.648003
0.083019 0.746586 -0.429400
-0.245701 0.342638 -0.431267
0.071365 -0.352467 0.658001
-0.285649 -0.706643 0.648295
-0.648749 -0.010471 0.282248
0.419291 0.351056 -0.459758
0.787867 -0.007546 -0.431208
0.084111 0.747653 -0.427983
-0.649194 -0.009912 0.284788
-0.636009 0.709813 0.286919
-0.647651 0.001006 -0.441053
-0.275942 0.687723 0.640436
0.113663 0.697887 0.275000
0.417385 0.349490 -0.460185
-0.638934 0.347802 0.636119
-0.294804 0.001339 -0.794692
-0.245302 0.342574 -0.430719
0.463129 0.729159 -0.091538
-0.285154 -0.703655 0.647958
-0.285305 -0.705792 0.647792
0.429942 -0.678106 -0.077462
0.431997 -0.322107 0.280471
0.417660 0.351448 -0.459322
0.061379 -0.707790 -0.448085
0.072692 -0.352814 0.656924
-0.647751 -0.010530 0.284629
0.770071 0.366782 -0.112674
0.114920 0.698655 0.276188
0.420702 -0.336881 -0.433853
-0.634082 -0.719007 0.275800
0.061451 -0.705315 -0.449901
0.441790 0.352913 0.314027
-0.273213 0.019235 0.631557
-0.296337 0.002549 -0.796817
-0.272784 0.018430 0.629824
-0.647952 -0.009703 0.283970
0.114802 0.698022 0.274627
0.064853 -0.388177 -0.813821
-0.640848 0.348510 0.635943
-0.637737 0.330562 -0.072165
0.813927 0.007348 0.263120
-0.637740 0.329167 -0.073597
0.067330 -0.387355 -0.814776
-0.646807 0.001694 -0.440990
-0.653192 -0.351700 -0.089838
0.061551 -0.705988 -0.448586
0.432449 -0.676470 -0.079053
0.062200 -0.708427 -0.449172
0.411423 -0.022737 -0.782577
0.771048 0.367997 -0.112888
0.461392 0.728021 -0.090682
0.810876 -0.364992 -0.079447
0.813636 0.006746 0.264145
0.114476 0.699559 0.275923
0.431160 -0.678187 -0.080737
-0.631241 -0.721004 0.273612
-0.621098 -0.361058 0.616006
0.459850 0.727364 -0.090874
-0.647093 0.001385 -0.441909
-0.251675 0.697433 -0.065818
0.769782 0.369010 -0.113392
0.421643 -0.338308 -0.432503
0.810823 -0.364342 -0.080024
-0.653905 -0.351416 -0.089851
0.811217 -0.365986 -0.079012
-0.639521 0.347704 0.636007
0.461559 0.730541 -0.090092
-0.639179 0.329565 -0.074982
-0.249902 0.698560 -0.064943
0.810264 -0.364967 -0.078294
0.788373 -0.009079 -0.431841
0.073072 0.356385 -0.816971
0.072519 -0.352688 0.657764
-0.638540 0.348193 0.635923
0.114878 0.696860 0.274342
-0.646579 -0.010176 0.283516
0.087316 0.364559 0.646252
