OFF
256 0 0
0.414435 -0.352684 -0.409323
-0.645275 0.008439 0.254227
-0.636120 -0.364423 -0.081042
0.071227 -0.701006 0.258615
0.090811 0.360261 -0.784293
-0.644177 0.005283 0.254826
-0.629021 0.722753 0.270779
-0.628892 0.721653 0.270983
-0.267411 0.004952 0.591569
-0.636409 -0.365648 -0.083285
-0.645216 0.006692 0.255138
0.053790 -0.731802 -0.423045
0.081141 0.697242 -0.416506
-0.637478 -0.365439 -0.081843
0.775056 -0.360765 -0.090514
0.054155 -0.732369 -0.423152
-0.634150 -0.001985 -0.413531
0.439213 0.719242 -0.087831
-0.640536 0.355661 0.629829
-0.645391 0.007048 0.252841
-0.258563 0.004390 -0.769001
-0.644197 0.007971 0.254047
0.102215 0.725726 0.278495
0.771248 0.003572 -0.416455
-0.259071 0.003505 -0.767983
0.802685 0.368583 -0.070049
0.423834 -0.346630 0.264562
0.423646 0.365422 -0.404735
0.429876 -0.010689 -0.794865
0.093030 0.374057 0.621797
-0.250052 0.691547 -0.044340
0.052530 -0.731608 -0.422092
-0.287895 -0.699338 -0.076532
0.053491 -0.732446 -0.424113
0.415038 -0.725265 -0.096800
-0.258774 0.002793 -0.766585
0.089653 0.359949 -0.784730
0.439670 0.718524 -0.085784
-0.604832 -0.357937 0.605757
0.088362 0.362161 -0.785476
0.053762 -0.731386 -0.423594
0.451522 -0.003256 0.603686
0.103147 0.727818 0.275865
0.800551 0.368191 -0.071146
0.771532 0.003565 -0.415209
-0.268768 -0.740130 0.614160
0.072121 -0.365353 -0.779249
-0.273252 0.693432 0.643117
-0.643988 0.006921 0.256428
0.092655 0.372338 0.619372
0.792267 0.024181 0.245287
0.419760 0.356853 0.273942
-0.258067 0.005871 -0.768010
0.772678 0.003585 -0.413602
0.088429 0.359438 -0.786380
0.080310 -0.348078 0.613521
0.423376 -0.347975 0.265072
0.799834 0.368279 -0.070829
-0.266314 0.005253 0.593852
-0.273257 0.694859 0.641648
-0.639528 0.358727 0.628056
-0.604846 -0.358310 0.605366
-0.266126 0.005657 0.592397
-0.273131 0.694038 0.642350
-0.640261 0.356435 0.627421
0.419003 0.355380 0.274465
-0.267031 0.005634 0.593314
0.421351 -0.348469 0.263358
0.413720 -0.352508 -0.409262
0.411968 -0.353657 -0.407652
0.412356 -0.352582 -0.408870
0.440329 0.720414 -0.087273
0.774408 -0.360744 -0.089351
0.104761 0.724613 0.278219
0.093522 0.372287 0.621387
0.096161 0.372868 0.621145
0.412102 -0.351522 -0.410427
-0.604614 -0.357407 0.606861
0.420488 0.356548 0.272762
0.071255 -0.701630 0.261027
0.080625 0.698256 -0.415683
0.091235 0.362015 -0.786509
-0.644406 0.006596 0.254072
0.069923 -0.362550 -0.780909
-0.626347 -0.717417 0.278226
0.090768 0.360701 -0.785527
0.414863 -0.353207 -0.410269
0.776828 -0.359882 -0.090964
-0.628811 0.718305 0.270648
-0.272424 0.693996 0.643633
0.095573 0.371067 0.620404
-0.625974 -0.718056 0.277706
0.414183 -0.725268 -0.097007
-0.640748 0.355830 0.629475
-0.628630 0.721860 0.271282
0.104751 0.726045 0.276309
0.793119 0.024933 0.247187
-0.248669 0.690238 -0.042204
-0.629295 0.355429 -0.057282
-0.272778 0.337010 -0.413553
-0.628679 0.355531 -0.055618
0.451300 -0.004483 0.604306
-0.286088 -0.698789 -0.076597
-0.275695 -0.342588 -0.426108
0.422543 -0.346268 0.263939
-0.606103 -0.357659 0.605437
-0.271532 0.694379 0.641271
0.774488 -0.361551 -0.089479
-0.634579 -0.000980 -0.410473
-0.626390 0.719948 0.272166
-0.265674 0.006940 0.592438
0.774652 -0.360591 -0.089102
-0.289550 -0.698230 -0.076759
0.425171 0.365405 -0.407403
0.069911 -0.700914 0.261168
0.413095 -0.353665 -0.408628
-0.626663 -0.717813 0.277533
0.450909 -0.004891 0.603183
-0.279103 -0.344215 -0.424976
0.414474 -0.723979 -0.095848
0.069791 -0.364283 -0.779926
0.418824 0.354549 0.271365
0.452717 -0.003479 0.605100
0.103468 0.725587 0.279029
0.771024 0.003105 -0.417413
-0.266180 0.005978 0.594216
0.079112 -0.346205 0.612371
0.418993 0.355726 0.273834
0.422947 -0.346397 0.262926
0.792451 0.022346 0.246965
-0.635182 0.000035 -0.410767
0.774805 -0.358861 -0.090452
0.080110 -0.345004 0.613512
0.423883 0.363555 -0.409044
-0.636585 0.000537 -0.411991
-0.247650 0.691053 -0.042480
0.413109 -0.352313 -0.409348
-0.606427 -0.357518 0.605175
0.102866 0.725087 0.277274
-0.634032 -0.001920 -0.411396
-0.625731 -0.715700 0.277748
-0.629732 0.722047 0.270816
0.772372 0.004301 -0.415867
0.069759 -0.700939 0.260876
0.092289 0.360646 -0.785190
0.413649 -0.353850 -0.408705
0.102817 0.727354 0.276251
0.093803 0.371681 0.621506
0.423982 0.364579 -0.408552
-0.274023 0.335873 -0.413193
0.418193 0.356241 0.273492
0.081889 0.696836 -0.418015
0.418649 0.356359 0.272841
0.793484 0.023943 0.245105
0.052999 -0.730393 -0.422256
0.082050 0.697452 -0.416184
0.422044 -0.346521 0.263510
0.069596 -0.363136 -0.779446
0.090525 0.360084 -0.784848
0.093832 0.372431 0.621179
0.416366 0.356703 0.272699
0.070746 -0.363122 -0.778855
0.774838 -0.357865 -0.091237
0.080298 -0.345153 0.613242
0.423534 -0.349083 0.263968
-0.257664 0.003451 -0.767923
-0.249374 0.692390 -0.042763
-0.276387 -0.343825 -0.426865
0.103323 0.725811 0.278369
-0.635472 -0.364674 -0.081070
0.104918 0.725696 0.278699
-0.288552 -0.700466 -0.077653
0.082247 0.695685 -0.416279
-0.286289 -0.699488 -0.077548
-0.287629 -0.698635 -0.077482
-0.641834 0.356020 0.626516
-0.628997 0.720851 0.271294
-0.641714 0.354700 0.627062
0.423762 0.363483 -0.407413
-0.643635 0.006398 0.253244
0.081487 0.697952 -0.417091
0.080602 0.698224 -0.414346
0.081279 -0.346646 0.614479
-0.271451 -0.738438 0.616817
-0.641139 0.356505 0.627545
0.091145 0.359843 -0.784899
0.451300 -0.003058 0.604211
-0.278380 -0.341083 -0.426801
-0.631585 0.355635 -0.057698
0.094960 0.371455 0.619500
0.774813 -0.360463 -0.090003
0.071706 -0.364921 -0.780386
0.793734 0.022432 0.245285
-0.635459 -0.000529 -0.413486
0.423393 -0.348443 0.264068
0.425193 0.366157 -0.408354
-0.635946 -0.365308 -0.083776
-0.645739 0.005881 0.253790
0.776220 -0.361936 -0.090730
0.090008 0.359591 -0.785947
-0.637852 -0.363537 -0.083542
0.053987 -0.732815 -0.423445
0.069593 -0.363945 -0.779026
0.423213 -0.348705 0.265077
-0.272006 0.334948 -0.412355
0.415568 -0.725641 -0.096257
0.093951 0.370888 0.619369
0.070831 -0.365195 -0.780293
0.423180 -0.348377 0.263916
0.424581 0.364841 -0.407385
-0.628544 -0.719155 0.276964
-0.260228 0.004490 -0.767219
0.091277 0.359362 -0.785342
-0.644719 0.004785 0.254555
0.419625 0.355965 0.273942
-0.628161 0.720743 0.270999
0.441296 0.719391 -0.086804
-0.271097 0.336278 -0.413162
0.080093 -0.345382 0.615129
0.423476 -0.348059 0.263236
-0.278771 -0.343892 -0.427605
-0.633610 0.000840 -0.412581
-0.605858 -0.357755 0.605406
0.417535 0.355639 0.272977
-0.270664 -0.739365 0.615711
0.419419 0.355574 0.275012
-0.279143 -0.341747 -0.426141
0.452466 -0.001605 0.605603
-0.642036 0.356248 0.629082
-0.272496 0.694499 0.641611
0.414345 -0.724683 -0.097127
0.794228 0.022402 0.248166
0.081044 0.697444 -0.416802
0.440706 0.719668 -0.087087
0.453020 -0.004231 0.603723
-0.636566 -0.365524 -0.081266
-0.267032 0.004592 0.591647
0.094184 0.371083 0.619444
-0.250501 0.690687 -0.043504
0.070685 -0.700630 0.259317
0.422597 -0.347058 0.266794
-0.629679 0.357074 -0.056449
-0.636669 -0.000642 -0.411383
-0.634128 -0.367041 -0.083362
-0.271634 0.693905 0.641338
-0.270947 0.692959 0.641865
-0.636901 -0.000541 -0.411028
-0.257236 0.004417 -0.768386
-0.629501 0.721708 0.271203
-0.266775 0.005447 0.593183
-0.627865 0.720466 0.271202
-0.636031 -0.365870 -0.083390
-0.626134 -0.719123 0.278508
-0.644918 0.007144 0.252450
0.071700 -0.362076 -0.780619
-0.258217 0.004808 -0.767412
