OFF
256 0 0
-0.306337 -0.361186 -0.453699
-0.305643 -0.744158 -0.132382
0.721077 -0.395398 -0.099852
-0.648321 -0.725431 0.231513
-0.648045 0.307688 -0.115917
0.369971 -0.061370 0.565162
-0.648279 -0.724997 0.233265
-0.303847 -0.742800 -0.132324
0.058164 0.671575 0.242241
-0.640649 0.616778 0.244456
0.376487 -0.406180 0.239567
0.718941 -0.055616 -0.422491
0.334614 -0.344306 -0.418474
0.369648 -0.063827 0.565052
0.375578 -0.407283 0.237652
-0.305951 -0.358616 -0.453985
-0.640221 -0.380788 0.579860
0.375040 -0.406807 0.240357
0.715749 0.313828 0.552814
-0.640980 0.617403 0.241323
-0.642814 0.618848 0.242194
0.378557 -0.730596 -0.096795
0.370063 0.644682 -0.111978
0.724529 -0.397031 -0.097951
0.376301 -0.406768 0.238561
-0.649520 0.304416 0.589986
0.371904 0.644393 -0.112406
0.026149 0.322504 -0.818469
0.050024 0.307781 0.580907
-0.643053 0.616832 0.241876
0.014367 -0.365425 0.553622
0.715792 0.313414 0.551834
0.047689 -0.361039 -0.795168
0.333159 -0.345419 -0.417342
0.718854 -0.054977 -0.422924
-0.651986 -0.383112 -0.121617
-0.655343 -0.037673 0.234320
-0.289193 0.649273 0.552832
0.333671 -0.345517 -0.418080
-0.305794 -0.362346 -0.455079
-0.286769 0.649250 0.552605
0.030637 -0.721876 -0.459429
0.377749 -0.731069 -0.094200
0.370478 0.646002 -0.111001
0.717712 0.315830 0.552818
0.375334 -0.406799 0.237903
0.032642 0.650182 -0.438351
0.059255 0.668631 0.242631
0.027097 0.322694 -0.817655
-0.650766 0.304538 0.592483
-0.279983 0.623641 -0.071273
0.028009 0.322734 -0.818485
-0.652613 -0.382242 -0.119839
-0.308028 -0.360566 -0.455075
0.058265 0.668777 0.242280
0.019834 -0.718940 0.228086
0.716267 0.315223 0.553018
-0.655594 -0.035999 0.235927
-0.289166 0.650975 0.551764
0.049677 0.307865 0.582303
-0.648536 0.307289 -0.115640
-0.634031 -0.020824 -0.454281
0.026901 0.322457 -0.818721
-0.295604 0.325228 -0.476434
0.028459 -0.719220 -0.458890
-0.288492 -0.017515 -0.793936
0.736583 0.293758 -0.088384
-0.643014 0.617918 0.241425
-0.642246 -0.380823 0.581732
0.724378 0.645400 0.222881
-0.650855 -0.381760 -0.120647
0.028963 -0.720677 -0.459094
-0.301228 -0.019319 0.548081
0.391887 0.681019 0.601594
0.716756 0.314738 0.553115
0.734112 -0.054241 0.232836
0.375663 -0.404585 0.237621
-0.655339 -0.036650 0.235561
0.027774 -0.719742 -0.459066
0.392134 0.681443 0.601515
-0.639670 -0.382636 0.582538
-0.646164 -0.725973 0.230860
-0.298979 -0.018486 0.548651
-0.280553 0.625817 -0.069930
0.722871 -0.394571 -0.101875
0.369101 -0.063859 0.565198
0.353144 -0.014814 -0.771933
-0.304740 -0.744233 -0.132561
-0.634636 -0.020292 -0.455367
0.391987 0.681806 0.603507
0.033678 0.650024 -0.441398
0.060665 0.671325 0.241957
0.044629 -0.359023 -0.796320
0.034179 0.651556 -0.439709
-0.287158 -0.016828 -0.794568
0.738295 0.293697 -0.086910
0.352268 -0.016139 -0.771403
-0.643247 0.618819 0.242544
-0.306586 -0.361141 -0.452961
-0.648111 0.307936 -0.115611
0.370562 0.645269 -0.110402
0.057637 0.669098 0.242109
0.034219 0.650835 -0.439280
-0.649901 -0.381601 -0.122400
0.027257 0.322848 -0.818390
0.335818 -0.343243 -0.418022
0.369311 -0.064674 0.566992
0.391956 0.683529 0.602600
-0.647900 -0.726450 0.231080
-0.636646 -0.022421 -0.455175
0.015418 -0.364682 0.553476
-0.650561 0.305797 0.592612
0.375218 -0.407200 0.239405
0.733188 -0.055018 0.230964
-0.650309 -0.381838 -0.122893
0.374079 -0.406504 0.238271
-0.650831 0.305651 0.590336
0.737330 0.294517 -0.088157
0.338258 0.300459 -0.434466
-0.646544 0.308215 -0.114860
-0.648860 -0.726282 0.233960
-0.310764 -0.745182 0.567847
-0.304201 -0.744947 -0.132643
-0.300452 -0.021787 0.548958
0.046302 -0.357972 -0.795518
-0.306603 -0.745330 -0.132648
0.339204 0.300682 -0.432507
-0.306755 -0.745797 -0.129891
0.376176 -0.405803 0.238484
0.734537 -0.055182 0.232552
0.719494 -0.054145 -0.421835
-0.656978 -0.036698 0.234354
0.368048 -0.062893 0.567731
0.335721 -0.344789 -0.417366
0.046851 -0.359201 -0.794386
0.721429 0.648836 0.223304
-0.649481 0.303744 0.590680
0.371085 0.644425 -0.113131
0.046768 -0.359909 -0.792973
0.338755 0.299897 -0.432807
-0.290017 0.651030 0.551966
0.716810 -0.055088 -0.422612
-0.642195 0.618105 0.242582
0.034780 0.650065 -0.439460
0.375680 -0.406981 0.236547
0.033653 0.652397 -0.438717
0.369484 -0.062044 0.563965
0.332503 -0.344894 -0.419727
-0.303263 -0.744589 -0.129737
-0.299977 -0.020701 0.550814
-0.309794 -0.745024 0.569089
-0.641475 -0.383141 0.579092
0.369001 -0.064823 0.565560
0.015843 -0.365190 0.554907
0.374296 -0.406176 0.237841
-0.655480 -0.037094 0.234753
-0.299279 -0.020088 0.548342
0.373650 -0.406397 0.237791
0.722679 0.650891 0.223804
-0.294476 0.322805 -0.474191
-0.300507 -0.020880 0.547748
-0.289359 0.652189 0.552125
0.060356 0.671018 0.243562
-0.279701 0.624166 -0.070118
0.719440 -0.055653 -0.421887
-0.647391 0.306809 -0.118443
0.021191 -0.717943 0.228420
0.377163 -0.406186 0.238915
-0.651561 -0.382223 -0.120526
-0.655484 -0.034609 0.234818
0.352805 -0.012305 -0.772711
0.377215 -0.734157 -0.096219
0.022337 -0.719551 0.228607
-0.650868 -0.381579 -0.119653
0.050925 0.306738 0.581124
0.029415 -0.720079 -0.458508
0.714614 0.316071 0.550864
-0.305559 -0.744935 -0.133031
-0.300006 -0.018901 0.550142
-0.300380 -0.019857 0.549403
0.737060 0.294211 -0.088728
0.376113 -0.405031 0.240089
0.335495 -0.346285 -0.418544
0.333818 -0.345265 -0.418054
-0.306946 -0.744464 -0.130596
-0.306463 -0.744420 -0.131826
-0.278550 0.623921 -0.070331
-0.642505 0.619833 0.242027
-0.286851 -0.017392 -0.793108
-0.651227 0.305782 0.592155
-0.645730 -0.725144 0.233426
0.016386 -0.365424 0.555756
-0.288094 -0.018743 -0.794317
-0.302054 -0.021501 0.547966
0.737913 0.295540 -0.088529
0.352754 -0.014010 -0.770309
0.060261 0.670509 0.241737
0.367322 -0.061967 0.565684
-0.640917 -0.381548 0.580480
-0.289412 0.651080 0.553374
-0.648096 -0.725879 0.233076
0.379034 -0.733787 -0.096344
-0.634485 -0.019924 -0.455958
0.046262 -0.361016 -0.796102
0.374627 -0.405769 0.236717
0.378035 -0.729703 -0.098164
0.718304 -0.055943 -0.423353
0.714531 0.315509 0.551016
0.047076 0.306945 0.580523
0.378255 -0.732717 -0.095887
0.015458 -0.365442 0.552669
-0.641762 0.618965 0.242244
0.375032 -0.407365 0.239766
-0.303746 -0.743920 -0.130633
0.721734 0.647994 0.223486
-0.281412 0.624818 -0.069732
0.377778 -0.733515 -0.097700
0.046652 -0.358509 -0.794310
0.353261 -0.014175 -0.771171
0.717925 -0.055678 -0.421730
0.029884 -0.719015 -0.460211
0.351264 -0.014768 -0.772116
-0.307631 -0.361470 -0.454173
0.736425 0.295893 -0.088367
-0.306118 -0.743623 -0.132255
-0.305294 -0.744135 -0.131352
-0.306626 -0.362107 -0.451620
-0.651223 0.304381 0.591796
-0.279871 0.625324 -0.067586
0.354101 -0.013434 -0.774080
-0.648967 0.307533 -0.116121
-0.305477 -0.745498 -0.129732
-0.648298 0.306227 -0.116432
-0.656539 -0.036227 0.235646
-0.287574 -0.018019 -0.794196
0.338528 0.300628 -0.433814
0.014117 -0.366004 0.553897
0.373493 -0.406599 0.238335
0.047107 -0.359275 -0.792744
0.034283 0.651437 -0.437535
-0.288467 0.651942 0.550841
-0.294525 0.322907 -0.474272
-0.293198 0.323734 -0.475654
0.029317 -0.720618 -0.461400
0.050601 0.307706 0.581868
-0.651566 0.306698 0.591656
0.718953 -0.055597 -0.423317
0.732553 -0.054224 0.232067
-0.647125 -0.726714 0.233008
-0.634635 -0.020505 -0.454806
0.716453 0.314686 0.550849
-0.306054 -0.744150 -0.131756
0.060696 0.670080 0.242768
0.034054 0.650728 -0.437575
-0.646985 -0.726557 0.231662
-0.306091 -0.360817 -0.455312
