OFF
256 0 0
0.793801 0.416077 -0.001143
0.432535 0.794169 -0.000806
-0.673027 -0.285824 0.028493
0.074103 0.785558 -0.346487
-0.671851 -0.285617 0.027855
0.787113 -0.279653 -0.009117
-0.671952 -0.284814 0.026596
0.433646 -0.275902 0.336798
-0.272131 0.062250 0.727974
0.072615 0.787812 -0.345925
-0.273273 0.065552 0.725572
-0.281327 -0.613496 0.003869
0.411378 0.083389 0.737779
0.411625 0.082032 0.738865
-0.266811 -0.640599 -0.710488
0.450512 0.426618 0.343861
-0.661247 0.433462 -0.011127
0.413253 0.081476 0.737176
-0.647628 -0.645539 0.368950
0.095525 -0.639267 -0.355623
-0.271025 0.065290 0.725049
-0.271531 0.065657 0.728688
-0.630662 0.084996 0.334674
-0.289419 0.796223 -0.015612
-0.279802 -0.615678 0.003132
0.444372 0.095487 -0.720371
-0.661652 0.433008 -0.012835
0.429508 0.793068 0.000719
-0.301282 -0.620824 0.721472
-0.256589 0.421010 -0.334436
0.443020 0.095368 -0.721611
0.413823 0.082026 0.737889
-0.638720 -0.257254 0.708791
0.083723 -0.280200 -0.715261
-0.253442 0.421608 -0.334646
0.822375 0.082389 -0.355751
0.432531 -0.274571 0.335822
0.444542 -0.262922 -0.369878
0.448523 0.425939 0.343431
-0.671748 -0.285435 0.029065
-0.642142 0.081234 -0.320591
0.821871 0.084789 -0.353339
0.071321 0.787141 0.358391
0.448147 -0.264275 -0.367774
-0.631276 0.084665 0.334698
0.079976 0.453466 0.735239
-0.649719 -0.644133 0.368858
0.082731 0.451334 0.734383
0.086772 -0.279523 -0.717184
0.095906 -0.636515 -0.356827
-0.271477 0.064771 0.726097
0.448935 0.425508 0.344526
-0.266330 -0.641352 -0.709162
0.072111 0.787528 0.356533
0.444379 0.435700 -0.355951
0.435228 -0.275915 0.334820
-0.289128 0.797244 -0.013704
-0.643547 0.080326 -0.320285
0.448393 0.427182 0.344469
0.080015 0.452171 0.733150
-0.283231 0.444126 0.345423
0.073006 0.786440 -0.345874
-0.254085 0.419835 -0.334555
-0.265230 -0.641317 -0.709456
-0.659626 0.433289 -0.010136
0.074563 0.785983 -0.345526
0.444755 0.095067 -0.721164
0.071025 -0.278221 0.711821
0.788377 -0.277781 -0.006970
0.430448 0.792931 -0.000317
0.444234 0.094010 -0.721896
0.087138 0.455796 -0.718060
-0.266980 -0.641675 -0.710149
0.820279 0.080681 -0.353167
0.071298 0.789446 0.358640
0.080035 0.454925 0.733304
0.820529 0.081552 -0.355569
0.445034 -0.263959 -0.369920
-0.288697 0.797085 -0.013418
0.794017 0.416884 -0.001529
-0.631840 -0.296322 -0.714575
-0.640954 0.082424 -0.320477
-0.641412 0.079189 -0.318892
0.096371 -0.635312 -0.355238
0.090313 -0.651292 0.337547
-0.283186 0.444453 0.344445
-0.272089 0.064033 0.725349
0.089509 -0.653043 0.337613
0.086152 0.452460 -0.716971
-0.284303 0.444800 0.343961
0.821467 0.086379 0.365628
-0.660681 0.434765 -0.011580
-0.636134 -0.256724 0.707387
-0.282162 -0.612465 0.001938
0.072179 0.785443 -0.345354
0.446211 -0.641629 -0.020721
0.448516 0.425669 0.345467
0.411168 0.083436 0.737783
0.446966 -0.641509 -0.020596
0.792360 0.415588 -0.001533
-0.643642 0.081081 -0.320191
-0.258684 0.084198 -0.727320
-0.267234 -0.641320 -0.711339
-0.271070 0.064426 0.725308
0.819244 0.082403 -0.353096
0.095677 -0.638659 -0.354080
0.411026 0.081009 0.738180
0.448626 0.426457 0.344260
-0.266294 -0.641123 -0.708364
-0.281714 -0.613331 0.003534
-0.254585 0.419591 -0.334119
0.443583 0.436296 -0.358653
-0.273578 0.064368 0.725645
-0.287881 0.800092 -0.012817
-0.289024 0.796898 -0.011328
-0.255243 0.418747 -0.334382
-0.281129 -0.613279 0.003508
0.820153 0.081810 -0.354459
-0.646571 -0.646733 0.370292
-0.254730 0.421390 -0.335080
-0.638561 -0.257122 0.706257
0.095205 -0.637410 -0.354859
0.788416 -0.279244 -0.008230
-0.648368 -0.645352 0.369450
0.817467 0.087208 0.365486
0.096244 -0.638575 -0.353053
-0.291331 0.798520 -0.009897
0.448726 0.426001 0.347635
-0.639471 0.081426 -0.321035
0.431380 0.791946 -0.001372
0.071116 0.788500 0.354509
-0.266675 -0.639646 -0.708605
0.072245 -0.276797 0.713493
-0.254309 0.421417 -0.333227
0.444806 -0.263938 -0.368306
-0.302967 -0.621445 0.722841
-0.272552 0.063680 0.725308
0.091270 -0.652692 0.336279
-0.632108 0.085957 0.335160
0.095216 -0.637667 -0.355453
0.079075 0.451288 0.733641
0.092270 -0.653743 0.337214
-0.256895 0.084618 -0.726253
0.084992 -0.280174 -0.717833
0.819783 0.085378 0.363407
0.434393 -0.273970 0.335951
-0.288905 0.797770 -0.014526
0.443867 0.434723 -0.355916
-0.643674 0.080737 -0.320084
-0.288215 0.798383 -0.014403
-0.289104 0.799747 -0.013194
0.094832 -0.637419 -0.355434
-0.638958 -0.257602 0.705143
-0.673102 -0.284959 0.028722
0.442969 0.094837 -0.720766
0.072842 0.785859 -0.345462
-0.660904 0.436126 -0.013683
-0.259399 0.085044 -0.727083
0.786135 -0.279648 -0.007024
0.447189 -0.639885 -0.020788
-0.631918 0.086103 0.337287
-0.270430 0.061933 0.725341
0.072100 -0.278214 0.713396
-0.288786 0.798385 -0.014861
-0.653505 -0.641472 -0.360922
0.080148 0.451905 0.732135
-0.653679 -0.639184 -0.360904
-0.255705 0.420888 -0.335046
-0.267010 -0.640105 -0.709536
-0.646574 -0.643421 0.367445
-0.256026 0.420306 -0.333343
0.412189 0.083323 0.739426
-0.671669 -0.285365 0.027077
-0.632225 0.085491 0.336108
0.445571 -0.639737 -0.017996
0.072865 0.785220 -0.345163
0.446783 -0.642001 -0.020029
0.451462 0.425044 0.344383
0.443158 0.095836 -0.718943
-0.289167 0.798266 -0.013147
0.431651 0.791153 -0.001800
-0.280716 -0.613884 0.003978
-0.640666 0.081183 -0.320802
0.822077 0.082368 -0.356211
-0.673066 -0.283712 0.027982
0.092169 -0.650327 0.337267
0.442031 0.094992 -0.720374
-0.644793 0.080465 -0.321105
-0.280637 -0.612884 0.003763
-0.630089 -0.297776 -0.713549
-0.301896 -0.620937 0.722006
-0.272516 0.064480 0.725342
-0.649453 -0.646357 0.369341
0.084738 -0.278796 -0.717264
-0.647462 -0.647328 0.369756
0.445418 0.434496 -0.357080
0.445910 0.435459 -0.357502
0.072471 0.787520 0.357006
0.788153 -0.279451 -0.006939
0.821666 0.082701 -0.356932
0.092258 -0.654663 0.336511
-0.252155 0.420515 -0.333597
0.430458 0.792125 0.000625
0.071630 -0.277948 0.711455
-0.649774 -0.646672 0.370338
0.820715 0.086613 0.364298
0.448071 -0.641256 -0.021945
0.412115 0.082934 0.736619
0.444329 -0.264684 -0.369252
0.081069 0.452064 0.732338
-0.258576 0.084184 -0.727929
0.411569 0.081585 0.736343
0.443235 0.435703 -0.356006
-0.301900 -0.620778 0.721100
-0.632659 0.087302 0.337787
-0.253616 0.420661 -0.336221
-0.659091 0.437076 -0.011138
0.435078 -0.276931 0.334934
-0.653122 -0.640688 -0.359474
-0.673370 -0.284473 0.027637
0.794430 0.416411 -0.002926
0.083378 -0.278276 -0.717525
-0.638511 -0.255865 0.708755
0.444339 0.434536 -0.355271
-0.659047 0.433099 -0.011648
0.443483 0.434712 -0.356074
-0.271553 0.065236 0.725162
-0.658948 0.434231 -0.011779
-0.655552 -0.641248 -0.360424
0.793556 0.417388 -0.001538
0.821595 0.082219 -0.354135
0.080520 0.451088 0.733641
-0.637466 -0.256557 0.705505
-0.637243 -0.256789 0.708432
0.794260 0.418100 -0.000450
-0.287829 0.797571 -0.013120
0.070192 -0.278157 0.711513
-0.289050 0.798467 -0.013208
-0.259706 0.084333 -0.728598
0.095597 -0.637004 -0.356373
-0.254005 0.420358 -0.333193
-0.647605 -0.645718 0.370551
0.823804 0.081426 -0.353715
0.447683 -0.640846 -0.020037
-0.633314 -0.298427 -0.714205
0.072788 0.787600 -0.346727
0.085295 0.453600 -0.717279
0.433635 -0.275759 0.336713
0.447740 0.425915 0.343148
-0.642877 0.080755 -0.319602
-0.265824 -0.641783 -0.710826
0.411908 0.081486 0.736858
0.445785 -0.640435 -0.020756
-0.632609 0.084302 0.335896
0.819660 0.087110 0.366733
0.078709 0.450837 0.733425
