OFF
256 0 0
0.086172 -0.616996 -0.337594
0.420226 0.776568 -0.011101
-0.254099 0.415750 0.342442
-0.612126 -0.287224 -0.736316
-0.628441 0.070187 -0.370809
-0.635280 0.405343 0.013703
-0.254199 0.416461 0.341288
-0.628127 -0.601420 0.331998
-0.626578 -0.600280 0.331544
0.083253 -0.618759 -0.339776
0.080604 0.423511 -0.677958
-0.630644 0.067889 -0.372646
0.430744 -0.635032 0.007259
0.438044 0.433200 0.352957
0.067700 0.435677 0.710755
-0.624199 0.051788 0.350111
-0.267143 0.080108 -0.704334
-0.297049 -0.608613 0.705487
-0.266392 0.080105 -0.701807
0.078048 0.424682 -0.677200
0.793856 0.069501 -0.354184
0.430486 -0.637041 0.008020
0.082145 0.785983 -0.337991
-0.261981 0.083305 0.694685
0.441889 -0.278491 0.350985
0.069318 -0.253366 0.698067
0.068725 -0.608193 0.362158
-0.265070 0.082223 0.693731
0.441333 -0.281216 0.349409
-0.627310 -0.601917 0.331057
-0.630271 -0.282522 0.703650
-0.631982 -0.284203 0.702159
0.080303 0.425010 -0.677075
0.066766 -0.255414 0.698656
-0.261905 0.084259 0.693303
0.084883 0.785649 -0.339375
-0.637058 -0.271441 -0.017977
0.069270 -0.255760 -0.706517
0.407699 0.075750 -0.692724
0.067848 0.436620 0.713704
-0.267210 0.080643 -0.704040
0.785767 0.083375 0.334661
-0.611161 -0.286660 -0.736988
-0.271761 -0.600303 -0.008714
0.442496 -0.279832 0.349935
0.078049 0.423192 -0.675299
-0.267481 0.077130 -0.703738
0.428377 0.091568 0.699879
-0.266093 0.083039 0.694227
-0.624976 -0.602098 0.332688
0.784151 0.082068 0.333609
0.068359 0.434795 0.713084
0.427535 0.091961 0.698567
0.428722 0.092064 0.701058
0.796900 -0.273059 0.007112
-0.634632 0.405056 0.012704
-0.627635 -0.601619 0.331987
0.793718 0.071940 -0.357846
0.441380 -0.280710 0.350854
0.078178 0.424078 -0.676159
-0.627559 -0.601419 0.332854
0.067436 -0.254434 0.697436
-0.630553 -0.283266 0.702388
0.774117 0.407860 -0.009828
-0.635451 0.403903 0.012967
0.784236 0.082928 0.333720
0.080131 0.424497 -0.677875
-0.262028 0.083784 0.693189
0.417305 -0.260074 -0.329365
-0.637823 -0.272671 -0.017350
0.069807 -0.608695 0.360002
0.069273 -0.256097 -0.705254
-0.251720 -0.615667 -0.712730
0.429340 0.089522 0.701363
-0.250631 -0.615939 -0.713092
0.774781 0.408941 -0.011674
0.794048 0.071776 -0.355787
0.783756 0.081453 0.334690
0.419019 -0.257706 -0.329688
0.430234 -0.635125 0.007734
-0.625247 0.050739 0.349104
0.441222 -0.280327 0.348472
0.427850 0.092025 0.698996
0.069530 -0.608646 0.361165
-0.268630 -0.598870 -0.008633
0.441119 -0.277709 0.348655
-0.630964 0.069379 -0.373163
-0.250196 -0.617823 -0.711665
0.081608 0.784017 -0.338707
0.421671 0.777947 -0.010441
0.428082 0.090133 0.701250
0.085522 -0.616474 -0.338473
0.784704 0.082351 0.333957
0.067665 -0.253252 0.696899
0.782990 0.083024 0.335241
0.410792 0.078519 -0.692941
-0.635594 0.405902 0.014440
0.797976 -0.274654 0.006723
0.772743 0.409878 -0.010792
0.068886 -0.256256 -0.702966
0.796126 0.073102 -0.355221
-0.264529 0.083734 0.695489
0.082425 -0.618021 -0.338707
0.428621 0.090269 0.701168
0.079590 0.424022 -0.676953
-0.627652 -0.602049 0.330830
-0.629924 0.068802 -0.373701
0.067739 -0.255279 -0.705032
-0.633892 0.406478 0.014794
0.773425 0.406982 -0.010315
0.796480 -0.272927 0.008008
0.429286 -0.635347 0.008183
0.429969 -0.635098 0.007810
-0.625425 0.051678 0.351702
-0.296285 -0.610710 0.704680
0.082954 -0.617410 -0.339405
-0.265101 0.079771 -0.704439
0.407118 0.077902 -0.689852
0.423604 0.417171 -0.316530
0.423911 0.416893 -0.315812
0.782929 0.081972 0.333883
0.070230 -0.607605 0.363041
0.085729 0.763791 0.352699
-0.631127 -0.283165 0.703335
0.066682 -0.251994 0.697877
-0.633306 0.405319 0.013436
-0.613137 -0.286781 -0.735978
-0.624455 0.050292 0.349993
0.069307 -0.256693 -0.705735
-0.283927 0.423126 -0.335324
-0.265624 0.078719 -0.703383
0.443258 -0.279579 0.349813
-0.285099 0.424209 -0.335703
0.418631 -0.258159 -0.331253
0.424824 0.416115 -0.315162
-0.634820 0.406031 0.014268
0.069194 -0.254720 0.696496
-0.612849 -0.287448 -0.735015
-0.296895 -0.609876 0.703932
-0.269179 -0.598571 -0.007978
-0.629711 -0.283102 0.703960
-0.631446 -0.283715 0.703328
0.079894 0.425126 -0.676570
-0.630585 -0.282059 0.701100
0.441098 -0.279943 0.350296
-0.634955 0.404609 0.014548
-0.267225 0.079664 -0.703114
0.428693 0.092119 0.699877
-0.611411 -0.287107 -0.737299
0.083632 0.763686 0.354435
-0.247609 -0.616578 -0.715075
-0.266004 0.077932 -0.704149
0.782834 0.081482 0.333131
0.078827 0.424429 -0.677088
-0.630468 0.069262 -0.372806
-0.260305 0.777718 0.017526
0.068890 -0.258610 -0.705496
0.425145 0.417359 -0.315752
-0.285479 0.424435 -0.336159
0.416944 -0.259537 -0.329497
0.785185 0.079752 0.333360
-0.283760 0.422732 -0.336117
-0.248253 -0.613897 -0.712525
0.795940 0.072524 -0.358249
0.084384 -0.617658 -0.340536
0.435973 0.432125 0.351484
0.784919 0.083290 0.334024
-0.255562 0.415618 0.340382
0.079278 0.424071 -0.677299
0.409543 0.076867 -0.691627
0.417733 0.775488 -0.012483
0.068097 -0.254616 0.695859
-0.267407 0.079221 -0.703029
0.068306 -0.605981 0.360014
0.773778 0.408347 -0.012011
-0.633823 0.402974 0.014598
-0.625300 -0.600702 0.330536
0.417796 -0.257908 -0.330401
-0.262768 0.083524 0.696871
-0.269105 -0.598628 -0.009274
-0.265566 0.077443 -0.703056
0.069995 -0.608346 0.360818
0.441054 -0.279706 0.347887
0.084445 -0.616765 -0.338594
-0.614344 -0.621784 -0.365617
0.437854 0.432936 0.352609
0.792209 0.073843 -0.356668
0.083990 -0.618515 -0.337786
-0.251992 -0.616663 -0.714318
0.084036 0.785518 -0.339431
0.069196 0.436716 0.713735
-0.638933 -0.272373 -0.018249
-0.249701 -0.616303 -0.715442
-0.270163 -0.598028 -0.010191
0.424744 0.417587 -0.315819
0.784624 0.082822 0.334930
-0.639444 -0.270238 -0.018244
0.427661 0.091471 0.697289
0.425394 0.417521 -0.315022
-0.636052 0.404353 0.014032
0.416518 -0.258804 -0.331296
0.068763 -0.256591 -0.704849
-0.635340 0.405276 0.013374
0.438951 0.431643 0.351039
0.793830 0.070578 -0.355511
0.069427 -0.255783 -0.704606
0.440946 -0.278481 0.349041
0.407507 0.078129 -0.691149
0.783427 0.082163 0.333639
0.440321 -0.279522 0.349424
-0.625752 -0.602497 0.331824
0.437186 0.432441 0.351289
-0.254328 0.414293 0.339512
0.774621 0.409009 -0.010355
-0.249199 -0.617178 -0.714345
0.428517 -0.635916 0.007976
0.783605 0.081319 0.334434
-0.248793 -0.616742 -0.715113
-0.263058 0.082864 0.694936
0.069169 0.435161 0.714081
-0.261891 0.778767 0.016330
0.068787 -0.255459 -0.706516
-0.261160 0.082537 0.694728
-0.254589 0.415752 0.342017
0.423428 0.418558 -0.316351
0.792917 0.072636 -0.355790
0.071749 -0.253647 0.698525
0.083973 -0.618438 -0.338889
0.069655 -0.251798 0.698571
-0.629845 0.069686 -0.372218
0.436987 0.429926 0.352473
-0.250352 -0.617190 -0.713587
0.438416 0.432294 0.352622
-0.629586 0.069820 -0.372692
-0.631108 -0.284494 0.702117
0.422451 0.416753 -0.315052
0.066173 -0.253444 0.698353
-0.635009 0.403607 0.013509
-0.625504 0.052136 0.349578
0.429454 0.092299 0.699896
-0.624466 0.050497 0.351550
-0.630187 -0.283134 0.702918
0.068864 -0.255548 -0.706578
-0.626474 -0.600625 0.332116
0.423952 0.415719 -0.315468
-0.614038 -0.623173 -0.366367
0.437789 0.430625 0.351001
0.793983 0.073201 -0.357077
-0.613226 -0.622794 -0.367152
0.084489 -0.616585 -0.337788
0.428739 0.092252 0.700448
-0.639768 -0.273314 -0.017634
0.067556 -0.607385 0.360311
0.068578 0.435605 0.712465
-0.266173 0.077510 -0.703156
0.431227 -0.635315 0.009787
