OFF
256 0 0
-0.331641 0.403331 0.402468
0.364786 -0.627005 0.103028
0.364128 -0.626882 0.103062
0.702903 -0.305895 -0.630815
0.375360 0.788703 0.083319
0.338500 -0.257241 0.460384
0.004133 -0.275077 -0.631100
0.692514 -0.628812 -0.267420
-0.344152 0.450161 -0.275855
-0.350083 0.097140 -0.610832
0.341271 0.089419 0.790653
-0.702513 0.050646 -0.268113
0.005019 -0.274086 -0.631241
0.341884 0.074700 -0.626685
0.341742 0.091239 0.791800
-0.719394 -0.281078 0.087363
-0.342723 0.448880 -0.276990
-0.023379 -0.275000 0.798417
0.003971 -0.275502 -0.630041
-0.343496 0.449532 -0.277251
0.375609 0.787669 0.082061
-0.343188 0.450780 -0.276838
0.318583 0.420951 0.420415
-0.691654 -0.259644 -0.641246
-0.699859 -0.620576 -0.263491
0.710170 0.104237 0.427750
0.358482 -0.654833 -0.665045
-0.699351 -0.618801 -0.264832
0.373703 0.789559 0.081545
-0.343761 -0.272903 0.413549
-0.701567 0.050197 -0.268376
0.363733 -0.628276 0.102110
-0.726092 0.082404 0.428289
0.014230 0.422926 -0.631370
0.347341 0.435839 -0.280522
0.706185 -0.274754 0.116542
0.355732 -0.655190 -0.665602
-0.348984 -0.633278 -0.617218
0.705180 -0.273345 0.117647
0.318476 0.420721 0.418591
0.705058 0.064040 -0.281956
0.339930 0.075561 -0.625450
-0.700460 -0.618744 -0.262788
-0.005298 -0.627340 0.435496
-0.349382 -0.635463 -0.616525
0.705967 0.105054 0.429239
-0.349571 -0.633215 -0.616723
-0.003411 -0.624146 -0.273584
-0.340949 -0.274084 0.412285
-0.330976 0.403759 0.402580
-0.339915 -0.618614 0.065814
0.019813 0.810863 -0.273885
0.316030 0.420352 0.419698
-0.356365 0.796211 0.057027
-0.344977 0.448601 -0.277213
-0.023756 -0.274974 0.798196
0.701272 -0.306538 -0.629641
-0.009258 0.766412 0.405359
-0.341408 -0.621101 0.063993
0.709411 0.102847 0.428901
-0.005484 -0.626333 0.435479
-0.023316 -0.271203 0.799011
-0.361148 0.090387 0.798334
-0.006197 -0.626962 0.436813
0.708458 0.063515 -0.282243
-0.342949 -0.272789 0.413947
0.358866 -0.654755 -0.666205
0.363714 -0.628409 0.101040
0.719522 0.428558 0.072173
0.338297 -0.258764 0.460579
0.377364 0.790180 0.079821
-0.695545 0.416688 0.076608
0.338169 -0.255455 0.460568
0.359126 -0.654757 -0.665495
0.363875 -0.627136 0.101918
0.362881 -0.626505 0.103205
0.013843 0.424336 -0.632689
-0.696498 0.417298 0.078128
0.005348 -0.272275 -0.631200
0.694157 -0.629748 -0.267797
-0.341131 -0.271123 0.414766
0.719625 0.427317 0.069790
0.019388 0.809807 -0.273583
-0.006728 0.445753 0.793945
0.708506 -0.273448 0.117039
-0.699702 -0.619598 -0.265370
-0.340811 -0.273710 0.415449
0.340102 0.090692 0.789347
-0.701025 0.050901 -0.268502
0.350985 0.436000 -0.278843
-0.024425 -0.274428 0.799177
-0.702174 0.050897 -0.266745
-0.361420 0.089664 0.801060
-0.006029 0.444821 0.795044
-0.007963 0.766545 0.407596
-0.332779 0.406074 0.403950
-0.332011 0.402733 0.401425
0.706946 0.064766 -0.280559
-0.009770 0.763989 0.404517
-0.002570 -0.623930 -0.271443
0.709326 0.104921 0.429669
0.017975 0.809816 -0.272986
-0.003221 -0.624932 -0.270463
0.705081 0.063761 -0.279998
0.708873 0.104587 0.429584
0.374967 0.788346 0.081637
0.339657 -0.256368 0.460028
0.356605 -0.654274 -0.664743
-0.003850 -0.624019 -0.271869
0.349273 0.433370 -0.281432
-0.349626 0.098599 -0.611080
-0.022804 -0.275718 0.799396
-0.345823 0.448175 -0.277508
0.701742 -0.306844 -0.629625
-0.008455 0.765744 0.405407
-0.342616 -0.270680 0.413844
-0.695469 0.417890 0.079413
0.339645 -0.257526 0.461145
-0.348158 -0.634544 -0.616185
0.003867 -0.273752 -0.632425
-0.003696 -0.624438 -0.272128
0.364484 -0.628178 0.103577
0.004047 -0.272221 -0.633065
-0.359207 0.797743 0.056765
-0.726226 0.082524 0.426785
0.004786 -0.274515 -0.629683
0.002595 -0.274448 -0.630580
-0.696141 0.416879 0.078701
0.703396 -0.306827 -0.628741
-0.350057 -0.635794 -0.616802
-0.350856 -0.633834 -0.617372
-0.699289 -0.619827 -0.264973
0.364337 -0.627514 0.102614
-0.343059 -0.273631 0.415351
-0.700722 0.049741 -0.267904
-0.361548 0.091157 0.799332
0.693986 -0.628661 -0.267815
-0.331336 0.402455 0.401830
-0.350709 0.097736 -0.612589
-0.725939 0.080095 0.427113
-0.699835 -0.618336 -0.261768
0.376530 0.788447 0.081798
0.709477 0.103883 0.428677
0.706256 -0.274794 0.116531
-0.340926 -0.272231 0.414454
0.703637 -0.307645 -0.630633
0.718164 0.428171 0.071550
-0.357355 0.796633 0.055575
-0.725159 0.082309 0.428001
0.013413 0.422151 -0.632812
-0.025058 -0.273856 0.799663
0.692589 -0.627478 -0.267808
0.693288 -0.630390 -0.270284
0.317419 0.420786 0.419972
0.375455 0.786500 0.081089
0.338338 -0.256630 0.459224
-0.726945 0.081648 0.428210
-0.341224 -0.273173 0.413460
0.340867 0.072665 -0.626314
0.014359 0.423411 -0.634636
-0.338422 -0.617972 0.064159
0.317934 0.422637 0.419255
0.316083 0.423005 0.418956
0.708237 0.063483 -0.279979
-0.024210 -0.275354 0.798659
-0.007209 0.765528 0.404974
0.357859 -0.654444 -0.665563
0.341179 0.075242 -0.625988
-0.341436 -0.618572 0.064398
0.006559 -0.274885 -0.631909
0.721681 0.428515 0.069551
-0.725188 0.082841 0.430202
-0.690070 -0.259645 -0.640503
-0.007168 0.764450 0.407518
0.018351 0.810181 -0.272164
0.004552 -0.274135 -0.632529
0.003517 -0.273617 -0.631829
0.374982 0.785986 0.081565
-0.360626 0.091862 0.798248
0.350424 0.433119 -0.280107
-0.700716 0.050201 -0.267507
-0.351242 -0.634703 -0.615656
0.339784 0.075861 -0.626236
-0.350821 -0.635567 -0.618086
-0.345107 0.450491 -0.277146
0.318229 0.422773 0.419429
0.342178 0.092325 0.789752
-0.349590 -0.635620 -0.617317
-0.007663 0.446209 0.794662
-0.024827 -0.274814 0.799160
0.375505 0.787563 0.080686
0.012600 0.424308 -0.632604
0.702241 -0.306795 -0.631290
-0.025738 -0.275868 0.798042
0.337430 -0.256528 0.460183
0.364687 -0.627104 0.101606
-0.010237 0.765386 0.404296
-0.700336 -0.620098 -0.263999
-0.004925 -0.627137 0.437988
-0.349938 -0.634442 -0.617580
-0.690014 -0.261144 -0.641270
-0.350034 0.099474 -0.613191
0.019749 0.810602 -0.271664
-0.344621 0.449283 -0.276831
0.006002 -0.273243 -0.630782
0.363315 -0.629462 0.101998
0.012323 0.422590 -0.632621
-0.345814 0.450272 -0.276927
0.005424 -0.271759 -0.629258
-0.008984 0.764973 0.406038
-0.357571 0.796470 0.057869
0.375085 0.788507 0.081523
-0.332056 0.404842 0.400841
0.004621 -0.275205 -0.630241
0.707041 -0.273399 0.115632
-0.727870 0.082054 0.427652
-0.726187 0.081696 0.428806
-0.007342 0.444851 0.794931
-0.345644 0.448490 -0.276743
0.374431 0.788016 0.082804
-0.720048 -0.284400 0.088659
-0.332269 0.406603 0.402796
0.341185 0.090230 0.790939
-0.362325 0.091287 0.798645
-0.340763 -0.617752 0.065969
-0.694510 0.417350 0.079904
-0.342077 -0.618219 0.065777
0.376777 0.786207 0.081722
0.003993 -0.271491 -0.630556
-0.357881 0.796627 0.055965
-0.003874 -0.623865 -0.272050
0.359386 -0.655939 -0.665648
0.004987 -0.275510 -0.630759
-0.690264 -0.259698 -0.638313
-0.009125 0.766201 0.408391
0.012760 0.423831 -0.633339
0.356726 -0.656115 -0.665862
-0.006590 -0.626235 0.436636
-0.340076 -0.618393 0.064319
-0.350374 0.098321 -0.610079
-0.023658 -0.273659 0.799067
0.707839 0.063976 -0.281995
-0.361104 0.089856 0.797240
0.375771 0.787937 0.083682
0.018794 0.810952 -0.272862
-0.025543 -0.275135 0.798092
-0.349471 0.097417 -0.611110
-0.343652 0.447787 -0.277322
-0.331050 0.403169 0.403104
-0.698424 0.416815 0.078622
0.020000 0.810530 -0.272991
0.342894 0.075881 -0.626612
0.018285 0.809925 -0.272137
-0.004779 -0.627470 0.435421
0.706829 0.064701 -0.279916
-0.350558 -0.633521 -0.617796
