OFF
256 0 0
0.275377 -0.632097 -0.262318
-0.079284 -0.633902 -0.603347
-0.377532 0.354606 -0.568264
0.614348 0.376637 0.407814
0.274330 -0.286972 0.765279
0.283376 0.374496 0.752875
-0.746579 0.044421 -0.589652
-0.379723 0.353464 -0.568583
-0.048666 -0.641920 0.065599
0.615246 -0.640211 0.073698
0.616148 -0.639461 0.073539
0.601292 0.041498 0.751653
-0.736957 -0.304749 -0.249750
0.614221 0.376390 0.406547
-0.389263 -0.649470 0.401217
0.603625 0.382519 -0.253911
-0.391920 -0.293331 -0.579016
0.275790 0.719933 0.418117
-0.761094 0.371287 -0.255239
0.274711 -0.632058 -0.262368
-0.058402 -0.303676 0.402715
-0.749898 -0.658397 0.094855
0.615494 0.377443 0.406797
-0.746084 0.043727 -0.588044
0.292434 -0.292225 -0.589223
0.614635 0.376808 0.407433
-0.057419 -0.305912 0.404170
-0.073051 0.011481 0.757130
-0.389041 -0.649818 0.402548
-0.393851 -0.619501 -0.226957
-0.744734 0.044546 -0.589448
-0.057645 0.709628 -0.597157
0.615255 0.046483 0.071156
-0.749890 0.031950 0.065620
-0.056148 -0.304181 0.403561
-0.071281 0.011386 0.758073
-0.076402 0.343842 0.401507
-0.380429 0.721065 -0.240729
-0.399974 0.028823 0.405405
0.269110 -0.640182 0.439653
-0.745988 0.043692 -0.590510
0.608142 -0.298586 0.408729
0.602714 0.039649 0.751091
0.277805 0.376357 -0.581341
0.271316 0.704809 -0.266465
-0.076206 0.345209 0.402626
0.602357 0.041354 0.752656
0.283870 0.375559 0.752620
-0.047803 0.031759 -0.612565
-0.719674 -0.311941 0.406014
-0.049257 -0.642331 0.064348
0.279419 0.375771 -0.579925
0.275269 -0.288290 0.764838
-0.050701 0.725624 0.068468
0.291047 -0.292929 -0.591407
-0.718531 -0.311949 0.404338
-0.380891 0.719757 -0.241113
-0.745940 -0.658539 0.095958
-0.058964 -0.304280 0.402600
-0.070896 0.012547 0.758125
-0.393031 -0.621224 -0.224717
-0.382221 0.720567 -0.240791
0.284105 0.376719 0.752879
-0.057679 0.709347 -0.596346
-0.381332 0.719893 -0.241132
-0.058312 0.709959 -0.597615
-0.071220 0.009637 0.757059
0.603905 0.056137 -0.579094
0.606104 0.384012 -0.255384
0.279861 0.375803 -0.580126
-0.750266 0.034000 0.065375
-0.072977 0.011185 0.756101
-0.745204 0.044087 -0.589013
-0.058685 0.710373 -0.596941
0.276349 -0.287631 0.766870
-0.051396 0.725611 0.065727
0.293231 -0.291536 -0.590954
0.604554 0.383567 -0.254738
-0.080591 -0.633656 -0.603067
-0.050632 0.728384 0.066995
-0.379625 0.354922 -0.568081
0.291886 -0.293553 -0.591766
0.602558 0.039619 0.751352
-0.720000 -0.312793 0.403840
-0.073939 0.346004 0.404487
0.615140 -0.639916 0.073850
-0.406520 0.358942 0.067723
-0.404172 0.358807 0.069471
-0.049102 0.033396 -0.611720
0.616759 -0.288103 -0.242184
0.277986 0.718120 0.420013
0.271703 0.703022 -0.268046
-0.057920 0.710500 -0.595232
-0.377227 0.355292 -0.568496
0.602479 0.039356 0.752110
-0.378470 0.352620 -0.567416
0.585254 0.686191 0.074733
-0.387901 -0.648878 0.401634
0.276385 -0.631661 -0.262011
-0.056071 0.709392 -0.596629
-0.720350 -0.310520 0.405644
-0.382355 0.719808 -0.240953
-0.050103 -0.640499 0.064569
-0.761028 0.375863 -0.255169
0.294390 -0.291526 -0.591218
0.270074 0.704266 -0.265638
-0.733442 -0.304740 -0.248563
-0.049038 0.032656 -0.611919
0.615949 -0.640050 0.074361
0.615833 -0.638754 0.075113
-0.072631 0.009779 0.756808
-0.748022 -0.656798 0.097018
-0.057896 -0.305271 0.403701
-0.049010 0.033971 -0.610546
-0.059021 -0.303318 0.401495
0.275481 -0.287268 0.764470
-0.379846 0.719017 -0.240728
-0.381789 0.720322 -0.240592
-0.379923 0.353012 -0.569278
-0.746059 0.042171 -0.588463
0.614669 0.376726 0.405715
0.617418 -0.638390 0.073058
-0.055861 -0.304370 0.404397
0.275847 0.717399 0.421035
0.276138 -0.285441 0.765289
0.617367 -0.639355 0.076160
0.600689 0.039498 0.750989
-0.047488 0.033067 -0.611804
0.277096 -0.287632 0.766639
0.269268 -0.639803 0.436154
0.286139 0.375589 0.751571
0.275848 0.719355 0.421269
0.603546 0.040775 0.750822
-0.760806 0.372248 -0.256852
-0.744849 -0.655646 0.095776
0.285085 0.375578 0.754169
0.615243 0.046896 0.068294
0.587147 0.685144 0.074119
-0.051552 0.724765 0.068451
0.269931 -0.641220 0.437138
-0.392388 -0.293617 -0.578554
-0.391753 -0.295622 -0.580232
-0.746134 -0.657752 0.095957
0.268719 -0.640770 0.436290
0.615124 -0.639665 0.073919
-0.075525 0.343139 0.404369
-0.048806 -0.642762 0.063993
-0.388888 -0.649144 0.402595
-0.057775 0.710871 -0.597547
0.584784 0.683191 0.074583
-0.733675 -0.306573 -0.250059
0.613916 0.047259 0.069608
0.615527 -0.289142 -0.242158
-0.051498 0.725780 0.067940
-0.051000 -0.641876 0.063861
-0.721417 -0.310411 0.405161
-0.394712 -0.620250 -0.224615
-0.075419 0.342786 0.404998
-0.058268 -0.303127 0.402057
-0.399368 0.027421 0.406944
-0.057045 -0.305856 0.402116
0.615761 -0.640087 0.073393
0.606428 0.054886 -0.579375
-0.760231 0.376163 -0.256507
-0.080306 -0.635473 -0.604374
0.602813 0.040629 0.752565
0.275847 0.720371 0.419823
0.614259 0.047065 0.067897
0.603812 0.383690 -0.254437
-0.378661 0.353951 -0.566862
0.276541 -0.634437 -0.262904
0.275935 -0.285638 0.765062
0.277528 0.375223 -0.579953
-0.381334 0.720637 -0.239465
0.600024 0.040841 0.753391
0.615449 -0.640226 0.073767
-0.070936 0.011915 0.756276
-0.391991 -0.294249 -0.578562
0.614717 -0.641054 0.072959
-0.720380 -0.311136 0.405290
-0.761433 0.373204 -0.254349
-0.399275 0.026521 0.404381
-0.075637 0.346498 0.405098
-0.057721 0.710654 -0.596758
-0.389243 -0.650677 0.402939
-0.760092 0.374525 -0.255314
0.608162 -0.297558 0.407238
0.267886 -0.639113 0.436346
-0.080840 -0.633705 -0.602776
-0.398393 0.027706 0.402926
-0.749692 0.033488 0.065337
-0.735119 -0.305407 -0.247776
0.608100 -0.301329 0.406522
-0.073291 0.010927 0.756767
0.274846 -0.287178 0.764642
-0.071196 0.011503 0.756005
0.617441 0.048169 0.070081
0.270717 0.703985 -0.266691
-0.761395 0.374086 -0.255507
0.278935 0.375035 -0.579509
0.268067 -0.643111 0.437148
0.616816 -0.638662 0.073928
-0.080541 -0.636115 -0.604361
-0.071769 0.010611 0.757648
0.617030 -0.641317 0.075738
-0.057752 0.708484 -0.596163
-0.057265 0.708652 -0.595569
-0.744630 -0.657466 0.096442
0.278676 0.376522 -0.579470
-0.397969 0.029515 0.403246
0.291079 -0.291616 -0.590821
-0.717315 -0.312143 0.406651
-0.074024 0.012075 0.756292
0.584777 0.685711 0.074551
0.268267 -0.641167 0.437008
0.605541 0.383552 -0.254517
-0.404972 0.358851 0.069109
0.277105 0.377251 -0.578435
0.277422 -0.286463 0.766535
0.609570 -0.297114 0.406875
0.586408 0.685680 0.074975
0.276571 -0.631869 -0.263013
0.293217 -0.293041 -0.591922
-0.074400 0.011695 0.758500
0.608796 -0.299167 0.407291
0.269506 0.704880 -0.265650
-0.720706 -0.312402 0.405504
-0.081723 -0.633863 -0.604399
-0.745156 0.044034 -0.588969
-0.057440 -0.304095 0.402369
-0.072302 0.011068 0.758013
0.608891 -0.299306 0.407957
0.276628 -0.632309 -0.264845
0.275786 -0.287971 0.765949
-0.747891 0.032972 0.064636
-0.735242 -0.304884 -0.247707
-0.049483 -0.641486 0.064712
0.616862 -0.288534 -0.241342
-0.399272 0.027382 0.402017
-0.074573 0.343007 0.403834
0.615006 0.378270 0.406102
0.275667 0.718205 0.420860
0.283709 0.375313 0.754406
-0.049516 0.034301 -0.611796
0.613976 -0.288764 -0.243966
0.276986 -0.631392 -0.265230
-0.071978 0.009993 0.756193
-0.761462 0.372945 -0.255384
-0.072424 0.010521 0.756239
-0.392290 -0.294257 -0.578824
0.279676 0.377195 -0.578790
0.615644 0.046072 0.069939
-0.049669 0.725472 0.068823
-0.058114 -0.305312 0.402808
-0.075179 0.344898 0.404041
-0.405342 0.359203 0.068712
