OFF
256 0 0
-0.716835 -0.324672 0.407576
-0.053658 -0.622626 0.080113
0.589365 0.040471 0.084430
-0.717016 0.351250 -0.249985
-0.396668 0.374810 -0.586770
-0.044374 -0.289492 0.388975
-0.373593 0.384596 0.076280
-0.054387 0.045285 -0.579027
-0.056333 0.045405 -0.580109
-0.091074 0.682397 -0.568635
-0.718246 0.352741 -0.251711
-0.053293 0.045976 -0.579690
-0.398118 0.023094 0.419282
0.269854 0.679397 -0.237881
-0.374560 0.384100 0.076007
-0.748934 -0.660275 0.063003
-0.699735 0.019642 0.077049
0.284226 -0.634040 -0.290038
0.614648 -0.283416 -0.258002
-0.037908 0.356996 0.398354
-0.396410 0.375776 -0.588495
-0.054145 -0.624410 0.082541
0.606710 0.037729 0.727937
0.604503 0.691669 0.074558
0.275863 0.373175 0.739070
-0.039490 0.360208 0.399149
0.252806 -0.288088 0.746965
0.600761 0.363554 0.403598
0.613583 -0.281652 -0.254545
-0.398568 0.700555 -0.254614
0.274468 0.375462 0.738703
-0.699206 0.020513 0.078943
-0.043957 -0.288581 0.390037
-0.050992 0.022321 0.747470
-0.714150 0.351926 -0.250745
0.599296 0.357674 -0.248545
0.584677 0.032185 -0.581850
0.599693 0.356966 -0.247542
-0.716353 0.351067 -0.251404
0.573343 -0.287614 0.412784
0.264701 0.392212 -0.580810
0.280702 -0.631649 -0.287672
-0.044632 0.717229 0.096012
-0.373874 0.386782 0.076771
0.600246 0.362837 0.404338
-0.386247 -0.646235 0.410403
0.266525 0.723092 0.411040
-0.394343 0.375317 -0.587036
0.265547 0.723299 0.409938
0.264570 0.395013 -0.579232
-0.726150 -0.326592 -0.241723
-0.049391 0.022822 0.746311
-0.749217 -0.660656 0.064309
0.284742 -0.631600 -0.291457
0.605936 0.036723 0.727530
-0.714215 0.029380 -0.558131
0.589341 0.038862 0.082070
0.268090 0.723336 0.409908
-0.386419 -0.646612 0.408670
0.255646 -0.290191 -0.585111
0.283102 -0.633363 -0.287160
-0.037287 0.359988 0.398898
-0.383699 -0.646669 0.410182
-0.047657 0.021532 0.748074
0.282875 -0.633727 -0.289522
-0.067801 -0.625323 -0.607555
-0.045612 -0.288687 0.388801
0.573064 -0.286350 0.415091
-0.067875 -0.621878 -0.607414
-0.069086 -0.624734 -0.608672
-0.716384 0.350651 -0.252268
0.282786 -0.634934 -0.287004
-0.386929 -0.298317 -0.583131
0.597269 0.357207 -0.248121
-0.385506 -0.633494 -0.243177
-0.717007 0.350242 -0.251546
0.600311 0.363833 0.405061
0.255897 -0.289220 -0.587088
-0.054448 0.045411 -0.577735
-0.385402 -0.297645 -0.583910
0.263923 0.392888 -0.581151
-0.716613 -0.325450 0.407302
-0.374538 0.385024 0.077420
-0.400374 0.701473 -0.255376
0.271468 -0.621360 0.420336
-0.386131 -0.631933 -0.240507
-0.069714 -0.621679 -0.611032
-0.039767 0.357304 0.400374
-0.054281 0.042119 -0.580511
-0.045714 -0.289107 0.389017
-0.038433 0.356823 0.400564
0.585169 0.032652 -0.581952
-0.038478 0.358780 0.400721
0.586979 0.032972 -0.583134
-0.398947 0.701961 -0.256827
0.271862 0.679136 -0.237674
-0.384685 -0.632824 -0.239784
0.275972 0.371740 0.737598
-0.714071 0.352912 -0.252062
0.597959 0.357577 -0.245430
0.573338 -0.287232 0.413768
-0.055186 -0.623130 0.080227
-0.054611 0.045299 -0.578773
0.589392 -0.579992 0.065477
0.282523 -0.634940 -0.286961
0.283384 -0.631138 -0.288072
0.251467 -0.287479 0.744912
0.574069 -0.286017 0.413688
-0.047265 0.021771 0.745547
-0.374219 0.384414 0.077246
-0.049556 0.022662 0.745714
-0.395686 0.377948 -0.587361
-0.045471 -0.288713 0.387560
-0.714158 0.029921 -0.557150
0.602450 0.692035 0.077877
-0.748571 -0.658599 0.063426
-0.701472 0.019064 0.076735
0.264228 0.393068 -0.580923
0.273012 0.373167 0.738987
-0.397825 0.023699 0.419328
0.282833 -0.631675 -0.287722
0.587981 -0.580737 0.067105
0.598877 0.358437 -0.246268
-0.068954 -0.625551 -0.608124
-0.715989 0.028538 -0.558498
-0.713585 0.029869 -0.557500
0.589929 -0.580425 0.065453
-0.039044 0.358493 0.399418
-0.401578 0.702092 -0.255621
0.269166 -0.622099 0.420638
-0.716868 -0.325239 0.407769
0.587642 0.040313 0.084540
-0.374087 0.383859 0.076985
0.601694 0.690447 0.074654
-0.048855 0.020303 0.748057
-0.387073 -0.297247 -0.583477
-0.038949 0.359454 0.399611
0.584541 0.029934 -0.579754
0.283507 -0.634741 -0.289689
-0.397945 0.025915 0.417839
-0.384473 -0.633491 -0.241939
0.606759 0.039081 0.729715
-0.713427 0.030965 -0.557915
-0.747227 -0.659860 0.064822
0.572425 -0.285450 0.414811
0.573550 -0.285293 0.413457
-0.400923 0.702238 -0.256148
-0.043563 0.716602 0.095385
-0.728148 -0.327314 -0.241066
-0.373103 0.384805 0.075746
-0.384849 -0.296695 -0.583823
0.600306 0.362864 0.406385
-0.727193 -0.325230 -0.241532
0.270413 -0.620268 0.422299
0.267041 0.723585 0.409941
0.598810 0.357394 -0.245337
0.281662 -0.633683 -0.289173
-0.056699 0.044131 -0.580352
0.571568 -0.287118 0.413053
0.615020 -0.283273 -0.255590
-0.750733 -0.659329 0.064881
-0.044311 0.715723 0.095705
-0.068830 -0.623697 -0.606438
-0.386072 -0.645785 0.409340
-0.044648 0.715765 0.097049
0.588501 -0.580700 0.062889
-0.399614 0.700578 -0.253334
0.268835 0.722918 0.409581
0.598372 0.355967 -0.245325
-0.717395 -0.325576 0.407651
-0.727093 -0.327460 -0.243203
-0.054981 0.044285 -0.580038
-0.749331 -0.659560 0.065594
0.252993 -0.286587 0.744977
-0.399708 0.023627 0.418786
0.602754 0.364342 0.405184
0.280790 -0.632782 -0.290615
-0.713083 0.029878 -0.558433
0.600910 0.364300 0.406041
-0.068751 -0.622006 -0.609849
0.274961 0.372878 0.738402
0.270858 0.678842 -0.237583
-0.374459 0.384228 0.078048
0.613811 -0.282166 -0.255800
0.570703 -0.285937 0.410927
-0.044053 0.719211 0.095502
-0.384379 -0.632645 -0.240816
-0.045370 -0.288933 0.388893
-0.702050 0.020603 0.079593
-0.054099 -0.622521 0.079727
-0.385172 -0.632201 -0.239937
0.614516 -0.285217 -0.257517
0.608073 0.037810 0.729349
0.268403 0.678800 -0.238813
-0.385404 -0.631738 -0.239314
-0.386996 -0.633689 -0.240995
0.269036 0.681891 -0.236956
-0.748317 -0.660272 0.065482
0.269363 0.677996 -0.237717
-0.387160 -0.298740 -0.582594
0.281964 -0.632942 -0.290017
0.281310 -0.633988 -0.289941
0.275556 0.374155 0.736808
-0.054988 -0.622753 0.079892
-0.048761 0.022519 0.746725
-0.714349 0.028369 -0.556439
-0.399004 0.023669 0.419076
-0.713717 0.027524 -0.555624
-0.089651 0.683860 -0.567120
-0.748334 -0.658288 0.063428
0.281663 -0.632822 -0.290485
0.598192 0.357248 -0.245141
0.589911 -0.580896 0.065303
-0.716715 0.028929 -0.558923
-0.386278 -0.632432 -0.240793
-0.090222 0.684524 -0.566895
-0.714387 0.026965 -0.557036
-0.068569 -0.623724 -0.608505
0.600998 0.363954 0.405579
0.615407 -0.283445 -0.259808
0.281879 -0.630093 -0.287247
-0.725884 -0.325347 -0.243821
0.268638 -0.619303 0.421024
0.280901 -0.633922 -0.288559
0.276570 0.374125 0.739528
0.282114 -0.633118 -0.289500
0.271274 -0.621663 0.421293
-0.714233 0.027513 -0.555665
-0.385371 -0.646713 0.408029
0.588243 0.039279 0.082745
0.613121 -0.283013 -0.256513
-0.748125 -0.659431 0.064222
-0.373880 0.384926 0.076805
-0.049770 0.022676 0.746803
-0.729438 -0.326108 -0.245451
0.272836 0.679490 -0.235089
0.267503 0.679046 -0.237787
-0.048690 -0.287273 0.389069
-0.067357 -0.623151 -0.607026
-0.714131 0.029911 -0.559035
-0.049879 0.022104 0.747402
-0.387152 -0.631781 -0.240735
-0.714025 -0.326418 0.407750
-0.400130 0.702354 -0.256945
0.269719 0.723099 0.410893
0.281408 -0.635216 -0.288799
0.606458 0.037493 0.727821
-0.374272 0.385872 0.077819
-0.749554 -0.660044 0.066288
0.256819 -0.289306 -0.586246
0.584364 0.031979 -0.580864
0.282462 -0.632065 -0.288791
-0.387229 -0.632533 -0.239676
0.251218 -0.289311 0.747551
-0.717378 -0.324920 0.408765
-0.045882 -0.289647 0.389954
