OFF
256 0 0
-0.399564 0.368502 0.048856
0.283635 0.379467 0.756000
0.646578 -0.320931 -0.272533
-0.056343 0.028613 0.789554
-0.040456 0.358766 0.421117
0.619448 -0.657330 0.076959
0.300436 0.718648 0.410755
0.627893 0.383738 0.412052
0.630823 0.383190 0.411748
0.629160 0.401744 -0.293313
-0.395067 -0.649114 -0.262594
-0.055914 -0.640382 -0.615773
-0.048465 -0.310633 0.422731
0.592585 -0.292083 0.396779
0.627094 0.400853 -0.289781
0.280341 -0.305957 0.786975
0.604492 0.020845 0.068390
-0.401503 0.030958 0.424721
0.645816 -0.319155 -0.273849
0.609935 0.721935 0.070711
0.602010 0.018713 0.067095
0.252430 0.729990 -0.266506
0.612905 0.041239 -0.610190
-0.055820 -0.640689 -0.615274
0.298829 0.716293 0.410635
0.590622 -0.293186 0.397350
0.604581 0.020085 0.067698
-0.754974 0.026701 0.071325
0.285531 0.380488 0.755737
0.590986 -0.293022 0.395062
-0.057355 0.029002 0.789231
0.646324 -0.321942 -0.274584
0.610317 0.722866 0.070549
-0.058591 0.718374 -0.600689
-0.400917 0.348180 -0.556304
0.279639 -0.649119 0.425473
-0.756697 -0.318743 -0.273256
-0.755614 -0.318322 -0.273771
-0.054651 -0.640712 -0.615551
-0.392763 0.736766 -0.255735
-0.401813 0.368569 0.050413
-0.059266 0.718484 -0.598958
-0.746996 0.375135 -0.234591
-0.757808 0.026664 0.070174
0.286162 0.378460 0.755545
0.645359 -0.320208 -0.273668
0.629693 0.384509 0.411232
-0.400443 0.030863 0.428381
0.621002 -0.655270 0.078390
-0.048168 -0.311073 0.421509
-0.396606 -0.649723 -0.261840
0.299244 0.717443 0.409346
-0.396237 -0.649108 -0.260143
0.285290 0.378823 0.755557
0.268723 0.398066 -0.592403
0.626362 0.401103 -0.288688
-0.408495 -0.320525 -0.614263
0.609581 0.723635 0.070584
-0.755975 0.027725 0.072227
0.285303 0.377421 0.756588
-0.421672 -0.636900 0.414996
-0.040878 0.359164 0.420758
-0.745147 0.374869 -0.235509
0.627247 0.400794 -0.290252
-0.739489 0.031873 -0.584333
-0.422923 -0.634929 0.411380
-0.041290 0.358569 0.425281
0.613010 0.034412 0.754157
0.589623 -0.292637 0.396426
0.610366 0.721378 0.068073
-0.074473 0.750108 0.080378
-0.042021 0.358485 0.422650
-0.399837 0.368944 0.047515
-0.758848 -0.306676 0.419132
0.281220 -0.305304 0.787951
-0.402002 0.027834 0.427981
0.282748 -0.304119 0.784557
-0.075230 0.748248 0.079679
0.609696 0.723860 0.068480
0.614919 0.039069 -0.610991
0.285837 0.377316 0.754561
-0.758384 -0.648930 0.069534
-0.399739 0.347471 -0.557688
0.621189 -0.654448 0.079568
-0.056635 0.029158 0.790203
-0.759642 -0.307024 0.420474
-0.041739 0.357801 0.422872
0.611870 0.038757 -0.610788
0.269553 0.396187 -0.589733
0.287520 0.378360 0.755756
-0.759890 -0.306219 0.418810
0.589865 -0.293717 0.397668
-0.055949 0.029495 0.788671
0.265408 -0.291345 -0.565144
-0.754672 -0.319927 -0.273350
-0.739039 0.031409 -0.583792
-0.042651 0.356030 0.422428
0.300426 0.718019 0.409726
0.264677 -0.289650 -0.564291
-0.758864 -0.648632 0.067030
-0.059052 0.718381 -0.599412
-0.394885 -0.648078 -0.260790
-0.757355 -0.321142 -0.272723
-0.041811 -0.651783 0.085343
0.628230 0.400804 -0.291893
-0.397278 -0.648659 -0.261049
0.613895 0.037404 -0.610075
-0.756937 -0.650091 0.069159
-0.747822 0.376153 -0.233669
-0.055647 -0.640405 -0.615982
-0.041555 0.358572 0.422391
-0.394849 -0.649432 -0.261867
0.625899 0.400669 -0.291348
-0.055888 0.029319 0.789700
-0.423055 -0.633625 0.412108
0.280521 -0.304757 0.786394
-0.054532 -0.640332 -0.615793
0.647035 -0.320220 -0.274194
-0.421969 -0.637543 0.412445
-0.048795 0.033003 -0.567795
-0.755938 -0.649755 0.067614
0.276421 -0.635970 -0.242868
-0.056003 0.030901 0.789561
0.279234 -0.649034 0.426733
-0.758473 -0.649629 0.068519
0.591367 -0.296665 0.395627
0.280124 -0.650516 0.425961
0.601659 0.019636 0.068458
-0.397732 -0.648640 -0.261120
0.609770 0.722661 0.068135
-0.396009 -0.648375 -0.261980
-0.396184 -0.647800 -0.260692
0.630332 0.383937 0.413327
0.628644 0.399574 -0.289165
0.285183 0.378128 0.755827
0.610958 0.723719 0.068493
0.282001 -0.307366 0.786084
-0.757611 -0.650964 0.069712
0.628645 0.399877 -0.292265
-0.395457 -0.649506 -0.261316
-0.760753 -0.305085 0.420001
-0.423309 -0.637979 0.413601
0.252703 0.729464 -0.265407
-0.400246 0.346981 -0.558534
0.284931 0.380248 0.756813
0.645586 -0.317627 -0.273315
-0.739214 0.032110 -0.585656
0.270416 0.396848 -0.591211
0.615126 0.038289 -0.609361
-0.049122 -0.310062 0.420532
-0.754346 -0.320743 -0.273029
0.254161 0.731345 -0.266361
0.278623 -0.648747 0.425370
-0.058111 0.717749 -0.600498
-0.757418 -0.320853 -0.273047
0.252629 0.729323 -0.266705
0.270602 0.397275 -0.590476
0.605230 0.019888 0.069247
0.629709 0.383461 0.412200
-0.042076 0.358599 0.420553
0.619503 -0.654275 0.078477
0.281461 -0.304548 0.786014
0.263852 -0.292621 -0.565738
-0.059695 0.720455 -0.598494
0.609396 0.723523 0.069856
-0.408415 -0.319065 -0.615842
-0.041316 0.358547 0.422866
0.627747 0.399133 -0.288894
-0.422158 -0.636105 0.413489
-0.401887 0.030802 0.427779
-0.394769 -0.648478 -0.258987
-0.039615 0.356420 0.422938
-0.395737 -0.650123 -0.260359
-0.059714 0.719799 -0.599728
-0.423486 -0.634780 0.414345
-0.049002 0.036062 -0.568527
-0.760063 -0.306510 0.420851
0.276023 -0.636136 -0.244207
-0.055258 -0.640093 -0.616508
0.270494 0.397055 -0.590634
-0.042716 0.356208 0.422058
-0.748141 0.374742 -0.234584
0.604039 0.021208 0.068165
0.277979 -0.634902 -0.243306
-0.410066 -0.321988 -0.615051
-0.055985 -0.637975 -0.615212
-0.041484 0.357679 0.421036
-0.056057 0.028592 0.790511
0.288373 0.379056 0.756871
-0.057709 0.719214 -0.600248
-0.400207 0.368544 0.049419
0.603427 0.021291 0.069117
-0.400705 0.367739 0.049017
0.299361 0.717417 0.411988
-0.392355 0.736643 -0.255693
0.270532 0.397007 -0.592907
0.269350 0.396166 -0.591927
0.610957 0.724143 0.068952
-0.077492 0.750884 0.077869
0.297581 0.717946 0.410833
-0.422244 -0.634877 0.410785
-0.042305 -0.652230 0.087915
0.251238 0.727937 -0.266300
0.622710 -0.656773 0.078810
-0.400648 0.368641 0.048562
-0.400684 0.030059 0.425141
0.612993 0.033588 0.753666
-0.042810 0.358385 0.421763
0.627253 0.382880 0.411703
-0.756708 0.026469 0.070448
-0.397042 -0.648633 -0.262139
0.283797 0.379248 0.755593
-0.400830 0.347629 -0.554600
-0.041912 -0.652785 0.086759
0.590448 -0.292809 0.398502
-0.057306 0.028498 0.789378
0.609794 0.723372 0.069464
-0.397276 -0.647426 -0.261466
0.612473 0.036418 0.753889
0.298839 0.717563 0.411742
-0.396108 -0.650281 -0.260414
-0.394269 -0.648498 -0.261288
0.610249 0.034614 0.753493
0.283929 0.376732 0.755346
0.611796 0.722320 0.067977
-0.400852 0.033115 0.424079
-0.401446 0.031384 0.425788
-0.746738 0.374273 -0.234620
-0.756845 -0.318543 -0.271720
-0.422841 -0.635387 0.412144
-0.399033 0.367991 0.048406
-0.758301 -0.648773 0.069792
-0.054060 -0.638954 -0.618251
-0.740939 0.030975 -0.584944
-0.741337 0.033418 -0.585594
-0.047540 -0.312340 0.422262
-0.038874 -0.651851 0.088136
0.609946 0.722226 0.069044
-0.424478 -0.635716 0.412183
0.253563 0.728131 -0.267100
0.646118 -0.321721 -0.272911
-0.400626 0.346105 -0.558314
-0.040756 -0.653528 0.087987
0.628227 0.399842 -0.292446
-0.397477 -0.647477 -0.259994
0.629344 0.385087 0.412424
-0.754655 -0.320495 -0.272442
-0.402483 0.345669 -0.557138
-0.396434 -0.650234 -0.261029
0.286051 0.378232 0.756907
0.271862 0.396452 -0.590160
-0.400376 0.347380 -0.557557
-0.410403 -0.320725 -0.615755
-0.423005 -0.638083 0.412287
0.609805 0.721552 0.070106
-0.399723 0.030269 0.425203
