OFF
256 0 0
-0.810379 0.371879 -0.064104
-0.037020 -0.725347 -0.449180
0.663206 0.009843 -0.445359
-0.080844 -0.725666 0.268222
0.281494 0.025460 -0.793481
0.276979 -0.698747 -0.093811
-0.441333 -0.742509 -0.083741
0.275613 -0.733279 0.621423
-0.450886 -0.385043 0.268962
-0.037541 -0.722222 -0.451378
0.292883 -0.323341 -0.443512
-0.449768 0.353097 -0.433652
-0.088796 0.388928 -0.777132
0.274896 -0.733000 0.621335
-0.452160 -0.384775 0.267672
-0.087564 0.720564 -0.427934
-0.080702 -0.725085 0.268514
-0.804370 -0.009018 0.266078
0.270850 0.019505 0.622943
0.644359 0.350316 -0.069241
0.270905 0.019150 0.622184
-0.432084 0.006690 -0.798189
-0.089906 0.721940 -0.426452
-0.809808 0.371455 -0.063836
-0.457122 0.738177 -0.067740
-0.076001 -0.355599 -0.775294
0.273947 -0.734149 0.622225
-0.430586 0.007820 -0.800227
-0.446571 0.358836 0.275977
0.281096 0.026274 -0.794098
-0.804808 -0.009038 0.266283
0.271346 0.018739 0.623277
0.636020 -0.017383 0.280977
-0.430758 0.009475 -0.797804
-0.429234 0.008841 -0.799378
-0.422204 -0.003767 0.623309
0.622786 -0.698946 0.270860
0.291797 -0.324432 -0.443295
0.644039 0.348718 -0.069459
-0.438994 -0.742084 -0.084835
0.634857 -0.018258 0.277469
0.283187 0.024958 -0.791723
0.272320 0.707603 -0.071498
-0.447054 0.357961 0.275724
-0.082771 -0.725814 0.268093
-0.811138 0.372749 -0.063876
-0.422088 -0.005221 0.621762
-0.080015 -0.724401 0.269801
0.274532 0.706494 -0.071728
0.661699 -0.341448 -0.082088
-0.824914 -0.378269 -0.079004
-0.803765 -0.008728 0.265471
0.612984 0.713320 0.285974
-0.809019 0.372448 -0.064475
-0.418651 -0.373873 -0.404859
-0.449095 -0.384512 0.268498
-0.083647 0.683653 0.278206
-0.449690 0.356804 0.276594
0.282758 0.340744 -0.457948
-0.079365 -0.725268 0.268229
-0.810355 0.373076 -0.064303
-0.034718 -0.724584 -0.452501
-0.456257 0.740458 -0.066565
-0.824500 -0.377706 -0.078341
0.273314 0.705424 -0.069993
-0.450566 -0.388385 0.267999
-0.420845 -0.004471 0.622713
0.274985 -0.733794 0.620730
-0.778792 0.002582 -0.426948
0.276333 -0.699949 -0.096532
-0.090979 0.352604 0.669479
0.647324 0.367510 0.608047
0.646694 0.367929 0.609687
-0.075409 -0.365249 0.612829
0.280598 0.343557 -0.457472
0.645745 0.365667 0.607903
-0.417151 -0.372266 -0.405298
-0.810887 0.370897 -0.063804
-0.810175 0.374356 -0.063956
0.662523 -0.341445 -0.081219
0.644709 0.350188 -0.070133
-0.431842 0.009130 -0.796610
-0.091176 0.353032 0.667971
0.661584 -0.341058 -0.082633
-0.449333 0.353135 -0.432373
-0.780476 0.002302 -0.428354
-0.825281 -0.374836 -0.077638
-0.447486 0.359210 0.274258
-0.780056 0.003558 -0.427795
-0.089650 0.353174 0.670382
-0.448510 0.359280 0.276931
-0.087403 0.721341 -0.426437
-0.082243 0.684642 0.279528
0.611948 0.713368 0.284506
-0.080134 -0.723207 0.269276
0.663698 -0.340816 -0.083019
-0.808386 0.371644 -0.065653
0.270769 0.020875 0.620684
-0.803197 -0.008400 0.264006
0.611699 0.716385 0.285273
0.274777 -0.734700 0.620396
-0.075821 -0.365199 0.615297
-0.450177 0.353783 -0.431899
-0.085899 0.721012 -0.426027
-0.087140 0.719053 -0.425146
0.283426 0.341783 -0.456900
-0.078382 -0.365195 0.616074
-0.075224 -0.356455 -0.775156
-0.090170 0.387605 -0.777205
0.664091 0.011002 -0.444589
-0.780085 0.001674 -0.427171
-0.421920 -0.004119 0.621578
0.611800 0.710652 0.283944
-0.089638 0.352959 0.669639
-0.075506 -0.363908 0.614698
0.274519 -0.735222 0.619979
0.274100 0.707014 -0.070030
-0.075059 -0.367230 0.614381
0.644143 0.351457 -0.070416
0.623386 -0.700703 0.273989
0.632080 -0.017001 0.280772
0.273913 -0.733350 0.621459
0.647489 0.367731 0.608060
-0.036224 -0.724001 -0.451534
0.290252 -0.323595 -0.443800
-0.803460 -0.009197 0.265218
-0.456848 0.740993 -0.068403
0.273434 0.706615 -0.068248
-0.826018 -0.375979 -0.077928
-0.087906 0.720135 -0.425630
-0.431345 0.009276 -0.798314
0.277547 -0.700598 -0.095700
0.271882 0.019608 0.622869
-0.811459 0.373490 -0.063689
0.273896 -0.732611 0.620146
0.645437 0.349789 -0.069393
-0.090934 0.386500 -0.775226
-0.826106 -0.378641 -0.079512
0.279312 -0.699423 -0.097052
-0.076047 -0.364842 0.612758
-0.780396 0.003135 -0.428949
-0.076091 -0.355202 -0.773371
-0.826357 -0.377405 -0.079219
0.292508 -0.326050 -0.443163
-0.088338 0.387476 -0.777178
-0.456649 0.739937 -0.068380
-0.082415 -0.726833 0.268438
-0.824765 -0.378150 -0.077553
0.283693 0.025092 -0.792840
0.282792 0.342321 -0.458798
0.663642 0.012121 -0.445563
0.634877 -0.016606 0.279085
-0.810912 0.373201 -0.064484
0.272549 0.705982 -0.068858
-0.451064 -0.385674 0.266379
0.648626 -0.345687 0.645835
-0.091612 0.389523 -0.777173
0.271183 0.706096 -0.068713
-0.090076 0.387996 -0.777116
0.635073 -0.017256 0.279810
-0.422289 -0.003323 0.624235
-0.826557 -0.377217 -0.078466
0.644216 0.347275 -0.067506
-0.450282 -0.386860 0.267507
-0.419859 -0.002873 0.622500
0.282476 0.025692 -0.791781
0.283040 0.026780 -0.792645
-0.035588 -0.721528 -0.450387
-0.780899 0.000978 -0.428741
0.272813 0.707934 -0.070337
-0.091736 0.386969 -0.778075
0.273479 0.705768 -0.069155
-0.802496 -0.009558 0.265338
0.273702 -0.733054 0.621305
-0.090669 0.387806 -0.777859
-0.421804 -0.005284 0.624715
-0.082427 0.683930 0.278754
-0.075876 -0.355483 -0.772757
0.612798 0.712686 0.286313
0.662484 -0.340814 -0.081375
-0.081244 -0.724310 0.267566
0.283467 0.025940 -0.793638
0.291422 -0.323803 -0.446414
0.659806 -0.339177 -0.081590
-0.417488 -0.371760 -0.406861
-0.457197 0.739867 -0.066353
-0.090558 0.351829 0.669882
0.275360 -0.734155 0.621843
0.644830 0.349346 -0.068279
0.283151 0.025386 -0.792298
-0.080425 -0.725021 0.267943
0.273490 0.706590 -0.068375
0.646549 0.367041 0.606843
-0.826644 -0.376733 -0.077947
0.276996 -0.733400 0.621508
-0.439650 -0.742825 -0.085716
0.277297 -0.734410 0.620086
0.622526 -0.700347 0.268979
0.660817 -0.341478 -0.083937
-0.084628 0.683025 0.279187
-0.447979 0.359530 0.276418
-0.439937 -0.740523 -0.083786
-0.430346 0.008929 -0.799150
0.269074 0.703889 0.646828
-0.037146 -0.723981 -0.452948
0.282354 0.341702 -0.459114
-0.417979 -0.372804 -0.405261
-0.431304 0.007948 -0.799659
0.283191 0.025846 -0.793156
0.269203 0.704471 0.645314
0.612390 0.713553 0.284949
0.635468 -0.019604 0.280191
0.276389 -0.699713 -0.095452
-0.416406 -0.371780 -0.405371
-0.090481 0.351203 0.667534
0.662844 0.011284 -0.443173
-0.449812 0.352591 -0.434530
0.663841 -0.339118 -0.080823
-0.452098 -0.386058 0.267776
-0.439783 -0.742356 -0.086580
-0.081433 -0.723927 0.270234
-0.450347 0.353078 -0.433645
0.282612 0.339581 -0.457993
-0.080208 -0.724207 0.269351
-0.080160 -0.723714 0.268530
-0.082754 0.683866 0.278490
-0.446943 0.357819 0.276650
0.660477 0.010417 -0.443006
-0.036511 -0.721141 -0.451183
0.636036 -0.015734 0.279292
-0.780228 0.002690 -0.428135
-0.036851 -0.721205 -0.451281
-0.089538 0.721568 -0.426488
0.282555 0.026477 -0.792162
-0.075063 -0.355925 -0.774770
0.661962 -0.340784 -0.083031
0.268718 0.704175 0.644965
-0.075396 -0.355610 -0.775613
0.289955 -0.323081 -0.442556
0.275793 -0.700743 -0.093714
0.276982 -0.700309 -0.095320
0.272835 0.705562 -0.069451
0.275555 -0.733732 0.621646
-0.075780 -0.355278 -0.771656
-0.080047 -0.725259 0.268055
-0.824959 -0.376714 -0.078847
-0.081660 0.685616 0.278366
-0.825909 -0.378618 -0.079365
0.274084 -0.732350 0.623326
0.289918 -0.324176 -0.443183
0.623576 -0.698385 0.272340
0.646199 0.367817 0.606926
0.621413 -0.700422 0.270522
0.623813 -0.698452 0.271929
-0.089527 0.386689 -0.775684
0.269713 0.703732 0.645121
