OFF
256 0 0
-0.438985 -0.359172 -0.440861
0.637147 -0.359704 -0.077869
0.637129 0.356973 -0.079836
-0.438485 -0.358557 0.279539
-0.797031 -0.359196 -0.079692
0.637612 0.359024 -0.078427
0.638211 -0.358853 0.636482
-0.439804 0.720096 -0.078676
-0.079950 0.718680 0.280447
-0.796940 -0.358719 -0.080849
-0.439614 -0.359863 -0.438750
-0.438242 0.358860 -0.440734
-0.439200 -0.358510 0.280642
-0.078537 -0.358796 0.636743
-0.798860 -0.001310 0.278287
0.637659 -0.359201 0.638025
0.278991 0.001749 -0.796839
0.278673 -0.716068 0.636812
0.279488 -0.719242 0.639030
0.278759 0.718436 -0.079965
-0.079412 -0.718285 0.278891
-0.438062 -0.357693 0.280365
-0.079591 -0.718125 -0.439481
0.638266 -0.358884 -0.081138
0.279918 0.718869 -0.081202
0.278618 -0.719214 -0.078457
0.637295 0.000243 0.278955
-0.438990 -0.357989 -0.439226
-0.437409 0.360297 0.280499
0.637359 0.716971 0.277306
-0.798475 0.001497 -0.438901
0.278208 0.000104 0.638515
-0.798903 -0.357320 -0.079892
-0.079861 0.358074 0.637794
-0.078153 0.716094 0.278662
0.638247 -0.358010 -0.079711
-0.078304 0.716183 -0.438390
0.639418 0.359060 -0.078732
-0.439159 -0.000183 0.638285
-0.796427 0.360874 -0.079763
-0.797839 -0.000228 -0.437352
-0.438120 -0.357744 0.279737
0.280557 -0.358471 -0.440331
-0.079110 -0.718322 0.280703
-0.437878 -0.716858 -0.081272
-0.080395 -0.717457 0.279777
0.278716 -0.718282 0.637279
0.637771 0.718435 0.278730
0.637306 0.359271 0.638358
0.636069 0.358336 0.638495
-0.798299 -0.360147 -0.080391
-0.439150 -0.358346 0.278402
-0.797383 -0.357068 -0.079961
-0.079952 -0.716713 0.278552
-0.439077 -0.358386 0.279384
0.639857 0.359502 -0.079784
0.637552 0.359403 -0.078686
-0.077667 -0.358344 -0.798012
-0.077394 0.360532 0.637602
-0.079371 -0.718497 0.279607
0.638197 0.358328 0.637773
-0.080121 0.717860 -0.438724
-0.080648 -0.357441 -0.795679
-0.078516 -0.359407 0.638916
-0.437737 -0.358801 -0.437210
0.637725 0.000196 -0.439230
0.280585 -0.718830 0.638112
-0.079442 -0.717896 0.279859
-0.798139 -0.358255 -0.079298
0.638719 -0.358545 -0.080996
-0.079111 -0.358400 0.636585
0.637241 0.357484 0.635448
-0.439777 -0.715906 -0.079586
0.279871 -0.000011 -0.797092
0.277538 -0.359298 -0.437826
0.638017 0.000342 -0.439133
0.636735 0.001288 -0.438872
0.279957 -0.716698 0.637742
0.280328 0.718727 -0.079777
-0.080470 0.717541 0.279303
0.636358 -0.001146 0.277566
0.278273 -0.000903 -0.797677
0.280595 -0.718127 0.637109
-0.437853 -0.359184 0.277491
-0.438989 -0.358244 -0.438555
-0.079492 -0.358709 -0.797363
0.280272 0.717039 -0.079708
-0.437946 -0.358945 -0.437236
-0.798056 0.359491 -0.080377
0.638916 0.001914 0.279860
0.279106 -0.716605 -0.080834
0.636489 0.357431 0.638128
-0.079151 0.358635 -0.796793
-0.438863 -0.000783 -0.797627
0.638919 -0.717422 0.279473
0.639329 -0.356944 0.637086
0.637872 -0.357632 0.639006
0.638285 0.718456 0.280320
0.278219 0.718873 -0.078866
-0.797890 -0.000047 -0.437083
-0.437150 0.001324 -0.798142
0.638323 -0.000081 -0.439381
0.279239 -0.001610 -0.798595
0.636316 0.000756 0.278782
-0.798368 -0.359541 -0.078947
-0.080139 -0.359083 0.636765
0.279219 0.000950 -0.797292
-0.439186 0.717755 -0.081081
-0.079976 -0.359392 0.640010
0.279551 -0.718434 -0.080489
-0.081543 -0.359647 -0.796365
0.638196 -0.357886 -0.079757
-0.080602 -0.717045 -0.439545
-0.078320 -0.716799 -0.438437
-0.082092 -0.358535 -0.796462
-0.438776 0.000528 0.637420
0.638516 -0.359930 0.637439
-0.797796 -0.000572 -0.439263
-0.437858 -0.717279 -0.079298
-0.079180 -0.719075 0.278579
0.638685 0.000181 -0.439710
-0.437670 -0.000140 0.638759
-0.077660 -0.359199 -0.797290
-0.435468 0.718755 -0.079743
-0.081563 0.360354 0.637188
0.638710 0.358256 0.637158
-0.439543 0.360169 0.280683
-0.439134 -0.717425 -0.079981
-0.439287 0.001089 -0.796752
-0.797705 0.000960 -0.439008
-0.080357 0.357104 0.639204
-0.081693 -0.359909 -0.796550
0.639066 -0.000507 -0.439090
0.277631 -0.716605 -0.080621
0.278663 0.717905 0.638198
0.637676 -0.359519 0.638089
-0.078581 -0.358749 0.637148
-0.438894 -0.718186 -0.079587
-0.439181 -0.716352 -0.080382
0.278181 0.716219 0.638678
0.279407 -0.357017 -0.437931
-0.797240 0.358308 -0.080563
-0.438513 -0.357837 0.279752
0.278983 -0.000618 0.635661
0.639074 -0.718708 0.280653
-0.439527 -0.716302 -0.079409
-0.438481 -0.358876 0.278582
0.278181 -0.719759 0.638079
-0.080554 -0.359113 -0.799246
0.637308 0.359469 -0.079390
0.637238 -0.000417 -0.439839
0.637936 -0.358813 -0.080025
-0.797451 -0.000747 -0.438433
0.279712 0.718309 -0.078972
-0.795772 0.000467 0.278533
0.279625 0.000206 -0.796262
0.280347 0.717846 0.636770
0.280146 0.718125 0.639825
0.279303 -0.358212 -0.438828
-0.798711 0.001070 0.277372
0.639202 -0.359202 0.637604
0.281089 -0.718723 0.638273
-0.079983 -0.716244 -0.439748
0.638766 0.719209 0.278326
-0.079659 -0.718635 0.279284
0.279269 0.000570 0.637045
-0.436566 0.000945 -0.797921
0.637346 0.360330 -0.079021
-0.438424 -0.360320 0.276834
-0.080990 0.718034 0.279735
0.637359 0.000641 0.279486
-0.437096 -0.358664 0.279344
0.636744 -0.716294 0.279128
-0.437862 0.718148 -0.079285
-0.437983 -0.358810 -0.436898
-0.439912 -0.001564 -0.798249
0.637329 0.360412 -0.079596
-0.080445 0.358818 0.638381
0.279044 -0.358964 -0.438335
0.638279 -0.358215 0.637458
-0.078724 0.359522 0.639683
0.279875 0.716493 -0.080615
0.638835 -0.357979 -0.078573
-0.079504 0.717726 0.277860
-0.438611 0.716862 -0.080119
-0.079644 0.718867 -0.437501
-0.081079 -0.358599 0.637395
-0.438528 -0.000203 0.638229
-0.799493 -0.000563 -0.438570
-0.440152 -0.358357 -0.436968
0.637528 0.360166 0.636718
-0.437805 -0.358505 -0.439414
0.639773 -0.719064 0.279319
-0.078884 0.719715 0.279703
0.636448 -0.718439 0.278412
0.279024 0.716253 0.638431
0.637566 0.716624 0.277937
-0.798983 -0.360933 -0.078454
-0.080583 -0.718277 0.278077
0.637937 0.360401 -0.080487
-0.795813 0.001385 -0.437644
-0.796842 0.000005 -0.439396
-0.079329 0.358297 -0.797341
0.278532 0.718248 -0.079377
-0.079126 0.361282 0.637040
-0.081371 0.716497 0.278208
0.278411 -0.001091 -0.796899
-0.079943 0.358077 0.638583
-0.438158 0.000688 -0.797714
-0.437511 -0.359350 -0.436931
-0.079568 -0.719215 0.277945
0.636473 0.358252 0.636845
0.637452 0.000160 -0.438508
-0.438143 -0.357136 0.280564
0.637450 -0.001233 -0.437862
0.279812 0.000632 -0.798006
-0.799134 0.360510 -0.079784
-0.796067 -0.360810 -0.078411
0.278746 -0.717540 -0.079184
0.635933 -0.358983 -0.080820
-0.796829 0.000666 -0.440976
-0.438397 0.357890 0.277549
-0.079303 0.716455 0.280680
-0.438048 -0.359301 0.278286
-0.080534 -0.358967 0.636674
0.278320 -0.358318 -0.440501
-0.437475 -0.000693 0.638759
-0.439276 -0.715991 -0.078399
-0.437230 0.719894 -0.079304
-0.079342 -0.359047 -0.796517
-0.080960 0.717599 -0.439122
-0.081020 0.719531 0.278676
-0.078223 -0.716754 -0.438791
-0.080146 -0.714556 -0.438627
-0.438778 0.356628 0.278965
0.279364 -0.718425 0.638531
0.279144 0.357760 -0.436897
-0.078683 0.717792 -0.437730
-0.080416 0.357798 -0.796957
-0.797498 -0.000333 -0.440986
0.279001 0.359310 -0.438807
-0.079212 -0.716021 -0.439170
0.279686 -0.718111 -0.077910
-0.438528 0.358164 -0.439513
0.637482 -0.358684 0.638671
0.278821 0.718101 0.638770
-0.438392 -0.000410 -0.796546
0.637577 0.716514 0.279150
0.279986 0.720021 -0.079579
0.636875 -0.360496 -0.080856
-0.438392 0.716096 -0.079535
0.637228 0.358893 0.637101
0.637237 -0.359065 -0.078147
0.278811 0.716635 0.638633
0.281143 0.718853 -0.079193
-0.796961 0.357259 -0.078227
