OFF
256 0 0
-0.448162 -0.355049 0.301892
-0.067158 0.329900 0.568759
0.632814 0.721386 0.264272
0.301880 -0.344459 -0.429123
-0.089628 0.739430 -0.435658
0.254377 0.699155 -0.098397
-0.072409 -0.361125 0.641236
-0.789534 0.008911 -0.402201
0.637516 0.020820 -0.457967
0.287949 -0.704278 0.647863
0.255132 0.701017 -0.097609
-0.427147 -0.706891 -0.070180
-0.803791 -0.377387 -0.088542
0.632788 0.719674 0.262265
0.254648 0.700303 -0.097284
0.627468 -0.384704 -0.082550
-0.804303 -0.376381 -0.088981
-0.805071 -0.378435 -0.088601
0.285690 0.017882 0.632335
0.639907 0.019559 -0.459400
0.635870 -0.350879 0.624893
0.253866 0.701903 -0.094367
0.629561 0.015804 0.260068
0.630546 0.015130 0.260231
-0.450536 -0.353625 0.301473
0.622282 -0.719417 0.274275
-0.445511 -0.014450 -0.784121
-0.432131 0.719628 -0.057534
-0.804526 -0.378294 -0.088010
0.275877 0.374303 -0.435484
0.632135 0.719719 0.265392
0.278607 0.019606 -0.795497
0.622627 -0.716477 0.273822
0.626104 -0.384672 -0.079499
0.633080 -0.349733 0.624245
-0.076058 0.343445 -0.780965
-0.806303 -0.378626 -0.088054
-0.066866 0.330618 0.569056
0.629074 0.015063 0.258582
-0.447327 -0.013166 -0.784154
-0.066475 0.330581 0.568571
0.279446 0.019239 -0.795076
-0.813730 -0.005712 0.285777
-0.415145 0.357759 -0.421269
-0.788366 0.011113 -0.402118
-0.439806 0.335152 0.244473
0.275796 0.374257 -0.437437
-0.064731 0.330104 0.569411
-0.428069 -0.708343 -0.071060
-0.813399 -0.007063 0.286653
-0.077008 0.343399 -0.782257
-0.094843 -0.348953 -0.768875
-0.438461 0.334960 0.244408
0.283776 0.018010 0.629547
0.629871 0.016476 0.259812
0.301227 -0.345495 -0.428748
-0.441417 0.004440 0.639417
-0.092689 -0.349771 -0.769044
-0.449664 -0.353127 0.299136
-0.071318 -0.359051 0.640023
0.273190 -0.721546 -0.076381
-0.433289 0.722331 -0.058434
-0.445616 -0.372513 -0.418844
-0.081283 -0.718800 -0.439316
-0.426504 -0.707687 -0.070660
0.625593 -0.384112 -0.080604
-0.439690 0.004893 0.638846
-0.065282 0.328495 0.571263
0.279090 0.020328 -0.794092
0.636578 -0.350231 0.623545
-0.447772 -0.015510 -0.783030
-0.432939 0.720301 -0.057698
0.281089 0.018834 -0.795989
0.300755 -0.347634 -0.429776
-0.072624 -0.359050 0.641061
-0.081332 -0.718950 -0.439631
0.282519 0.699337 0.627188
0.635954 -0.349703 0.625006
0.633447 0.720691 0.263655
-0.075038 0.342535 -0.781179
-0.803897 -0.375764 -0.089978
-0.081510 -0.720373 -0.440306
0.299807 -0.346479 -0.426735
0.279831 0.016913 -0.795001
0.290149 -0.704272 0.650290
-0.799725 0.384966 -0.055475
-0.073418 0.342577 -0.784324
0.272764 0.374970 -0.433707
-0.816506 -0.006596 0.284952
0.626471 -0.383250 -0.079286
-0.804170 -0.379269 -0.088285
-0.083233 -0.718876 -0.437879
-0.801537 0.385784 -0.054381
0.285384 0.019286 0.631593
-0.424868 -0.709646 -0.070165
0.660644 0.365112 0.619780
-0.086320 0.739120 -0.436422
-0.804025 0.387053 -0.052147
-0.081290 -0.719683 -0.438144
-0.093372 -0.348955 -0.767880
0.272366 0.373759 -0.434395
0.640351 0.019999 -0.456638
0.287756 -0.703589 0.646718
-0.442132 0.003896 0.638374
-0.811948 -0.006869 0.284111
-0.094084 -0.348084 -0.769086
0.280263 0.018506 -0.794522
-0.087785 0.738243 -0.435736
-0.083127 -0.719198 -0.439897
-0.441021 0.001655 0.641283
0.641357 0.020001 -0.457210
-0.447617 -0.012855 -0.784796
-0.445529 -0.371535 -0.417862
-0.087680 0.738789 -0.436693
-0.803277 0.385815 -0.055975
-0.069824 -0.730781 0.276093
-0.803284 0.384356 -0.055984
-0.066223 0.330655 0.567819
0.628346 -0.383587 -0.080994
0.644035 0.346168 -0.091839
0.642431 0.345362 -0.094504
-0.802290 0.385185 -0.055890
-0.069081 -0.730725 0.275069
-0.446075 -0.373781 -0.418436
0.631883 0.720164 0.264915
0.634464 -0.350191 0.625180
-0.082318 0.719525 0.279834
0.272741 -0.720509 -0.074548
-0.440203 0.003170 0.640277
0.279747 0.018408 -0.793394
-0.439386 0.002016 0.638080
0.623608 -0.717344 0.275482
-0.414483 0.356651 -0.421005
0.661033 0.367573 0.620172
0.253315 0.700720 -0.096511
0.273898 -0.722099 -0.075078
0.274444 0.373418 -0.435711
-0.080864 -0.719632 -0.441084
0.285347 0.019796 0.629047
0.629261 0.015922 0.260035
-0.067224 0.329757 0.570059
-0.431678 0.720332 -0.058142
-0.075021 0.343065 -0.781344
0.632090 0.719172 0.263374
-0.440996 0.001885 0.637631
-0.439600 0.003464 0.637945
0.301253 -0.344986 -0.430533
0.284776 0.017303 0.631064
-0.813952 -0.009154 0.287476
0.274624 0.373412 -0.436276
-0.077075 0.342206 -0.782114
0.643944 0.346060 -0.091476
-0.081583 0.716629 0.280423
0.628670 0.014525 0.258534
-0.801190 0.383407 -0.055757
-0.447868 -0.014114 -0.782789
-0.440295 0.002843 0.637821
-0.445974 -0.372639 -0.417163
0.621725 -0.715160 0.275304
-0.439309 0.334308 0.243650
-0.804367 -0.378582 -0.088400
0.289450 -0.704513 0.647632
-0.815320 -0.006759 0.286618
-0.063501 0.330965 0.567908
-0.447397 -0.372868 -0.416745
0.629494 0.015503 0.259919
0.661145 0.367018 0.619154
-0.425963 -0.708308 -0.069861
0.274336 0.374772 -0.435079
-0.814460 -0.004974 0.285931
0.622965 -0.715732 0.275979
-0.080752 0.717606 0.280258
-0.801214 0.383342 -0.056982
0.632371 0.720678 0.264835
-0.788525 0.008243 -0.401643
0.287228 -0.705613 0.647642
-0.428532 -0.708978 -0.071409
-0.066744 0.330768 0.568841
0.662173 0.367412 0.618781
-0.439777 0.002482 0.640875
0.282583 0.699402 0.626556
0.298372 -0.345836 -0.429550
-0.076119 0.342842 -0.780170
0.272594 -0.721020 -0.075632
-0.082811 -0.719770 -0.440755
0.274989 0.373890 -0.435253
0.633835 -0.350218 0.624051
-0.066491 0.331277 0.569956
-0.072801 -0.359334 0.640900
0.628693 0.015095 0.258158
-0.082160 -0.719115 -0.438431
0.283601 0.019071 0.632429
0.284800 0.698300 0.627633
-0.074142 -0.361204 0.641363
0.277520 0.374274 -0.435273
0.635003 -0.349646 0.625261
-0.790469 0.009290 -0.404787
-0.788644 0.009030 -0.402080
-0.802173 -0.378385 -0.087766
0.288694 -0.705953 0.647768
0.255069 0.700380 -0.096558
-0.787393 0.010754 -0.403878
-0.067040 -0.730591 0.273893
0.280362 0.019371 -0.793417
0.625964 -0.384740 -0.081604
-0.093601 -0.349846 -0.768204
0.280203 0.017471 -0.794375
-0.442724 0.336808 0.243897
-0.074373 -0.358332 0.641598
0.273050 -0.720937 -0.075563
-0.789219 0.009403 -0.403421
-0.414209 0.356498 -0.420946
-0.432675 0.719787 -0.058180
0.285749 0.017945 0.630952
0.639576 0.021258 -0.457315
0.285341 0.018318 0.632656
0.301247 -0.346443 -0.429217
-0.440538 0.335953 0.245304
-0.413478 0.357070 -0.421727
-0.447168 -0.373342 -0.417607
-0.065970 -0.731539 0.275094
0.283709 0.018276 0.631491
0.664383 0.364978 0.619848
0.632952 0.719603 0.264741
0.631332 0.016545 0.261428
0.623097 -0.715073 0.273143
0.634447 0.719653 0.264885
-0.812735 -0.008005 0.285191
0.622550 -0.717364 0.274299
0.633710 -0.350208 0.623873
-0.094238 -0.348358 -0.767575
-0.432211 0.718927 -0.058419
0.661383 0.367585 0.621406
0.639562 0.019778 -0.455395
-0.067587 0.330146 0.569928
-0.086825 0.739352 -0.437981
-0.448899 -0.014379 -0.782953
0.274833 0.374042 -0.434614
-0.431546 0.719927 -0.059340
0.660831 0.367537 0.621129
-0.426362 -0.708953 -0.070854
-0.433208 0.721403 -0.058897
-0.083264 0.717805 0.281342
-0.084427 0.738088 -0.434649
0.300036 -0.345338 -0.429643
0.301853 -0.346360 -0.429216
0.639558 0.019662 -0.457063
-0.082334 -0.719878 -0.439046
0.660788 0.365022 0.619297
0.625552 -0.718888 0.273998
0.644156 0.345976 -0.092700
-0.440064 0.002463 0.638153
0.645745 0.345588 -0.092180
-0.093075 -0.349711 -0.769983
-0.067192 0.329299 0.567920
0.631904 0.720814 0.264597
