OFF
256 0 0
-0.551332 0.361518 0.046636
-0.239729 0.718835 -0.643966
0.098374 -0.601630 0.370887
-0.562620 0.012283 0.375910
0.449046 0.058622 0.725403
0.099674 -0.603017 0.370121
0.109207 0.717252 0.390234
0.769557 0.026677 -0.296517
0.771287 0.044606 0.372586
0.452723 0.393097 -0.308049
-0.581037 -0.302255 -0.633324
-0.236648 0.032834 -0.677621
-0.222646 0.362157 0.368528
0.453146 0.392669 -0.309759
-0.233582 -0.642661 0.730581
-0.233698 0.030500 -0.680027
-0.578768 -0.304607 -0.635069
-0.554527 0.360645 0.045686
-0.552870 0.361372 0.046254
0.430741 0.725311 0.017203
-0.559540 -0.316811 0.721790
-0.233502 -0.678188 -0.655633
0.440731 0.017592 -0.663985
-0.213991 0.723128 0.029140
-0.561227 0.014245 0.378589
-0.233364 -0.676815 -0.653571
0.440814 0.017284 -0.662445
-0.560235 -0.652350 -0.292367
0.771530 0.046788 0.375317
0.437867 0.018053 -0.660963
-0.559122 -0.651988 -0.293324
-0.233771 0.028937 0.709458
0.141864 -0.304075 0.725498
0.452891 0.390554 -0.310528
-0.559725 -0.652407 -0.292211
0.089577 -0.617240 -0.303648
0.769440 0.024591 -0.297155
-0.560163 -0.317097 0.719732
-0.234539 0.031806 -0.678813
0.089279 0.740519 -0.314179
-0.560632 -0.315098 0.719304
0.450567 -0.644143 0.025623
-0.562616 0.022576 -0.303823
0.442595 -0.286512 0.364521
0.768071 0.022697 -0.297699
0.109399 0.382299 0.708799
-0.552812 0.360362 0.049436
0.454463 0.391731 -0.311339
-0.558060 -0.652648 -0.291014
0.769497 0.025687 -0.296577
-0.562331 0.022441 -0.304192
-0.561320 0.014325 0.376750
-0.548728 0.374981 -0.634107
0.088952 -0.616779 -0.304381
-0.584027 -0.322044 0.027942
-0.234086 -0.677278 -0.655554
0.109838 0.382189 0.709036
0.452732 0.390280 -0.309033
-0.558246 0.704878 -0.291925
-0.575004 -0.668765 0.376034
0.442263 -0.287019 0.365896
-0.561615 0.022407 -0.305609
0.771593 0.047396 0.371778
0.450345 -0.644103 0.025001
0.442392 0.388447 0.378736
0.109828 0.718078 0.391955
0.087808 -0.618700 -0.303168
0.442887 -0.285471 0.363969
-0.248592 -0.642337 0.033498
0.771306 0.046731 0.372673
0.440216 0.020868 -0.661326
0.091775 0.738432 -0.315677
0.431548 0.725977 0.015882
0.771394 0.047597 0.373951
0.453096 0.391315 -0.309497
-0.584313 -0.322980 0.028437
0.100393 -0.312000 -0.629223
-0.248522 -0.644269 0.033209
-0.574954 -0.667751 0.374819
-0.558649 -0.315828 0.719781
-0.549427 0.374624 -0.634909
-0.234374 -0.678172 -0.655755
0.770703 0.024972 -0.297985
-0.547321 0.375726 -0.634971
0.099050 0.376040 -0.636287
-0.231837 -0.642142 0.729689
-0.560786 0.014036 0.378314
0.769442 0.045178 0.372873
0.776624 0.379013 0.044479
-0.576018 -0.668120 0.374445
-0.576608 -0.668098 0.374213
0.087341 -0.617652 -0.304028
-0.242987 0.721103 -0.645158
-0.553201 0.359040 0.047254
0.441409 0.388010 0.378636
-0.580269 -0.301307 -0.634191
-0.229707 -0.642417 0.731921
0.141444 -0.304487 0.726743
0.098443 -0.603097 0.370008
0.783751 -0.296690 0.045186
-0.233086 -0.643271 0.729842
-0.580236 -0.302738 -0.634836
-0.239767 0.718960 -0.644464
-0.558560 0.705789 -0.291343
0.452997 0.390876 -0.310098
0.089830 0.738234 -0.312965
0.088779 0.739158 -0.313348
-0.247690 -0.644242 0.032675
0.773390 0.377674 0.046691
0.455681 -0.305683 -0.303733
-0.563450 0.013520 0.376423
-0.575333 -0.668575 0.374021
-0.559799 -0.651377 -0.291029
-0.232125 -0.643482 0.729985
-0.239551 0.718536 -0.645607
0.771095 0.024366 -0.298090
-0.580216 -0.304249 -0.635747
0.092538 0.739362 -0.313140
0.450684 -0.642973 0.024201
0.140440 -0.304243 0.726825
-0.560599 0.012596 0.378571
0.087360 -0.617634 -0.302493
0.450471 -0.641955 0.023312
0.142297 -0.306084 0.724705
0.783183 -0.295804 0.046439
0.768203 0.023912 -0.296483
0.429696 0.724459 0.015581
0.441900 0.387813 0.377523
0.088713 -0.618482 -0.304165
-0.577414 -0.668053 0.374068
-0.580639 -0.301048 -0.636133
0.770248 0.025525 -0.297043
-0.235462 0.032573 -0.680850
0.098339 -0.601615 0.371215
0.091896 0.739137 -0.313244
0.776684 0.379564 0.046137
0.773259 0.047461 0.373574
0.110597 0.719774 0.390860
0.783656 -0.297163 0.046307
0.098183 -0.602505 0.371334
0.452112 0.390478 -0.310746
0.097784 -0.314550 -0.629905
0.775028 0.377840 0.046304
0.774596 0.376972 0.046819
-0.553358 0.361552 0.047334
-0.215036 0.723912 0.028741
-0.548422 0.375521 -0.637208
0.439962 0.018358 -0.661066
0.451621 -0.643784 0.024683
0.443777 0.387721 0.378534
-0.579474 -0.300419 -0.634902
-0.580265 -0.302834 -0.636637
-0.234140 0.028246 0.711181
0.092872 0.739796 -0.312841
-0.583936 -0.321677 0.027294
0.453328 -0.306506 -0.305551
-0.562047 -0.317605 0.720735
-0.213202 0.720865 0.028182
-0.562834 0.012679 0.378900
-0.553910 0.360795 0.049201
-0.577646 -0.302244 -0.635116
-0.561356 -0.316538 0.718670
0.090265 0.738635 -0.314480
-0.562374 0.022475 -0.302822
0.771677 0.046122 0.375840
-0.247516 -0.643465 0.032281
0.453606 0.392808 -0.310783
0.441929 0.385703 0.377122
-0.559219 -0.650802 -0.288740
-0.562044 -0.317959 0.718578
0.774596 0.379535 0.046717
-0.579759 -0.304334 -0.635603
-0.557724 0.705397 -0.291646
-0.232603 -0.678955 -0.652706
0.783092 -0.297054 0.045142
-0.233582 0.028520 0.710893
0.772204 0.046732 0.373218
-0.215917 0.723015 0.029773
-0.585536 -0.320816 0.027917
-0.562440 -0.316256 0.718098
-0.248993 -0.645618 0.032828
0.783100 -0.296436 0.046427
0.109924 0.383890 0.710522
-0.234395 0.030276 0.709301
0.771934 0.022607 -0.298450
0.440038 0.016707 -0.662286
0.774758 0.378084 0.046566
-0.232057 0.028427 0.708962
0.097534 -0.602195 0.370137
0.455484 0.390754 -0.310302
-0.552212 0.359142 0.047254
-0.581182 -0.302521 -0.634786
0.090638 0.739980 -0.313299
-0.548158 0.374543 -0.634315
0.429862 0.724682 0.016573
0.099353 -0.601738 0.370095
-0.229254 -0.644084 0.730071
-0.559947 -0.652434 -0.291786
-0.213526 0.721720 0.029337
0.099099 0.375497 -0.636262
0.101630 -0.600900 0.371572
0.442039 0.387716 0.379686
-0.580108 -0.302557 -0.634367
-0.549579 0.373893 -0.635225
0.770313 0.046351 0.374403
0.450504 -0.641430 0.023335
-0.559469 -0.316468 0.719302
0.456138 -0.303762 -0.304168
0.781112 -0.297003 0.044011
-0.212922 0.722681 0.029694
-0.558718 -0.651055 -0.291740
0.432631 0.726343 0.017115
-0.248824 -0.643066 0.033312
-0.214332 0.723836 0.028545
0.099417 -0.312643 -0.628685
0.441476 -0.284795 0.361490
0.441220 0.386295 0.377842
0.440812 -0.285236 0.361935
-0.234435 -0.675595 -0.653293
-0.563916 0.022885 -0.303808
0.111765 0.717913 0.390947
0.451164 0.056871 0.722728
0.440008 0.016971 -0.660718
0.449545 0.057306 0.724964
-0.232742 -0.641619 0.729803
0.440987 0.018664 -0.659940
0.781969 -0.297263 0.045675
-0.553752 0.361341 0.046785
0.440335 -0.285696 0.363248
-0.558041 0.702778 -0.291453
-0.584127 -0.319473 0.028038
-0.562632 -0.316500 0.719048
-0.562085 -0.315336 0.719615
-0.239790 0.720737 -0.645544
-0.229898 -0.640981 0.730161
0.087819 -0.617669 -0.302886
-0.575798 -0.670588 0.375725
0.087794 -0.618525 -0.303878
0.086343 -0.618086 -0.302564
0.099859 0.378081 -0.635136
-0.550167 0.374942 -0.635006
-0.556808 0.704461 -0.293588
-0.563770 0.023066 -0.302991
-0.559449 0.705572 -0.291721
-0.213465 0.721225 0.030275
-0.561563 0.012840 0.376108
-0.233139 -0.678586 -0.654088
0.099266 0.378229 -0.637995
0.098125 -0.600661 0.368967
0.088116 -0.617150 -0.303589
-0.233287 0.029621 0.710584
0.450415 0.057689 0.723849
-0.576019 -0.669707 0.373963
0.455534 0.391019 -0.310482
-0.213015 0.722895 0.029054
0.769690 0.024896 -0.295520
