OFF
256 0 0
0.113401 0.709577 -0.282226
-0.600159 0.045472 -0.341920
-0.600787 -0.646555 0.379337
0.094117 0.389188 -0.638016
0.798492 0.371015 0.031888
0.115946 0.718918 0.379136
-0.226745 0.043984 0.728371
0.097539 -0.286253 -0.637764
0.455828 0.349376 -0.305886
-0.227078 0.044313 0.727622
0.456668 -0.674513 0.040901
0.826081 -0.289371 0.018819
0.094784 -0.284591 -0.636036
-0.578800 0.024253 0.370423
-0.575712 -0.298613 0.721554
-0.587259 0.397857 -0.655498
-0.576745 -0.298190 0.719066
0.454834 0.350402 -0.305614
-0.587437 -0.643377 -0.313224
-0.590974 0.696771 -0.290392
0.446170 0.717224 0.031770
0.096211 -0.283696 -0.638288
-0.577389 0.024085 0.368124
0.103609 -0.328722 0.714137
0.114718 0.717959 0.380080
-0.541937 0.393277 0.038024
0.817919 0.025088 -0.301684
-0.227301 0.043874 0.726056
0.113293 0.718283 0.379004
-0.230493 0.738862 0.051366
-0.233832 0.055594 -0.669452
-0.586741 -0.643855 -0.314050
0.823758 -0.293079 0.020270
-0.231452 0.740071 0.050831
-0.590715 0.696678 -0.291609
0.823490 -0.292718 0.019451
0.430159 -0.295548 -0.288902
-0.601672 -0.648683 0.376868
-0.543638 0.391915 0.036361
-0.582811 -0.290432 0.014960
-0.241900 -0.649054 0.709157
0.104816 -0.327488 0.713611
0.430195 -0.296322 -0.287662
-0.241249 -0.649833 0.707950
-0.588631 0.696569 -0.289994
-0.576647 0.024932 0.370665
0.445688 0.383550 0.363058
0.094218 0.388458 -0.638202
0.090408 -0.647746 -0.291589
0.102199 -0.327905 0.713165
-0.231988 0.739253 0.048857
0.454841 -0.674825 0.042583
-0.232849 0.055924 -0.668697
-0.225676 0.373159 0.379923
-0.268229 -0.660911 0.057818
-0.578620 0.023599 0.370026
0.449146 0.382422 0.364142
0.095983 -0.285220 -0.637259
0.456620 -0.673418 0.042686
-0.227587 0.042823 0.727674
0.095707 0.388936 -0.639012
0.113768 0.710203 -0.280269
-0.542577 0.392738 0.036067
0.114436 0.716483 0.377678
0.467852 -0.343444 0.381182
0.798056 0.372691 0.030990
-0.600931 -0.644196 0.381654
-0.601939 -0.647067 0.377538
-0.602042 -0.645312 0.379765
0.110161 -0.683470 0.379791
-0.603741 -0.646399 0.377878
0.112789 0.717302 0.379147
-0.542934 0.393243 0.037628
0.446908 0.717966 0.034371
0.467873 -0.342865 0.383980
-0.586964 0.696689 -0.291608
0.114369 0.718900 0.378550
0.798022 0.371625 0.032249
-0.587800 0.396213 -0.656059
0.799005 0.373352 0.031929
0.108893 -0.683020 0.379050
-0.232476 0.739626 0.049625
0.430444 -0.295175 -0.289596
0.818919 0.044029 0.372671
0.113977 0.718778 0.377809
-0.599228 0.044691 -0.341323
-0.544971 0.391971 0.036879
0.817429 0.025158 -0.302271
-0.223843 0.373914 0.380706
0.094290 0.389462 -0.638684
0.457436 -0.674549 0.041794
0.448742 0.382228 0.363193
0.089039 -0.646824 -0.291094
0.094014 0.389291 -0.640616
-0.579920 -0.290203 0.012176
0.114333 0.718830 0.378499
0.101693 -0.326987 0.711804
-0.562890 -0.298738 -0.663206
-0.588701 0.397500 -0.655918
0.447683 0.716557 0.031459
0.444435 0.041916 0.707234
-0.225019 0.373234 0.380366
0.466243 -0.342757 0.380962
0.444667 0.044167 0.705913
-0.241942 0.733741 -0.633611
0.448653 0.382123 0.363231
0.095411 0.386956 -0.639983
0.798394 0.373453 0.032852
-0.600297 -0.646924 0.381293
-0.574791 -0.298107 0.719738
0.455954 -0.673640 0.040680
-0.587366 0.399057 -0.657211
-0.233285 0.739215 0.049954
0.818828 0.024546 -0.301530
-0.577028 0.024702 0.369155
0.095691 -0.284297 -0.636217
0.455619 -0.675108 0.043760
0.443791 0.717981 0.031177
0.817634 0.044336 0.371459
0.431821 -0.296229 -0.286559
0.109040 -0.683770 0.379620
-0.225631 0.042036 0.725817
0.467892 -0.343138 0.382459
-0.544092 0.392116 0.037506
-0.242524 -0.650691 0.708005
-0.587184 0.395503 -0.655980
-0.586525 0.397782 -0.655920
-0.600568 -0.646495 0.378558
-0.601020 -0.646939 0.377552
0.467965 -0.340019 0.380459
0.094301 0.387639 -0.640357
0.466373 -0.342367 0.381626
-0.602469 -0.648291 0.377918
-0.542171 0.393679 0.038516
0.469272 -0.341815 0.381756
0.096104 -0.284023 -0.636866
0.448033 0.717027 0.032505
-0.543617 0.392913 0.037072
-0.599042 0.048319 -0.342919
-0.561580 -0.295437 -0.662682
0.445502 0.719662 0.031988
-0.588288 0.395166 -0.655902
-0.575024 -0.298532 0.718503
-0.575982 0.025488 0.370090
-0.586564 0.395588 -0.655887
-0.232565 0.739431 0.049457
0.122810 0.412329 0.764165
0.445103 0.718279 0.031924
0.109519 -0.685010 0.379133
0.467941 -0.342683 0.380736
0.447844 0.717371 0.032041
-0.589054 0.695814 -0.290404
-0.577777 0.023062 0.369551
-0.603171 -0.646285 0.380089
0.113780 0.708912 -0.283059
-0.574883 -0.298418 0.721289
-0.231516 0.739632 0.048919
-0.589214 -0.642236 -0.315610
-0.233362 0.738538 0.049467
-0.574545 -0.297798 0.721025
0.431819 -0.294507 -0.287328
-0.542811 0.391426 0.036172
0.102231 -0.329013 0.712055
-0.577816 0.023832 0.368874
0.088922 -0.648762 -0.291281
0.455281 -0.675895 0.042268
0.432794 -0.295732 -0.284955
0.087644 -0.647783 -0.290750
-0.231830 0.055829 -0.669296
-0.598211 0.045870 -0.341723
-0.574776 -0.298228 0.721035
-0.597805 0.044984 -0.342134
0.090099 -0.649262 -0.292728
0.112686 0.708233 -0.279820
-0.591812 0.696421 -0.288532
-0.602820 -0.646301 0.378427
0.114100 0.708741 -0.280476
-0.542183 0.392180 0.037783
0.447979 0.382801 0.363540
0.103903 -0.328705 0.713852
0.818086 0.024396 -0.303167
0.101499 -0.326461 0.714445
-0.240830 0.733089 -0.636602
0.088393 -0.647926 -0.292658
0.108178 -0.681722 0.379190
0.446607 0.718034 0.032929
0.818337 0.044245 0.372787
0.447529 0.718610 0.030873
-0.224607 0.372844 0.379142
0.110643 -0.682886 0.377796
-0.230947 0.739918 0.049707
0.456111 0.348737 -0.304919
-0.237630 -0.652391 -0.673090
0.467723 -0.342535 0.382635
-0.602782 -0.646713 0.376986
-0.586771 0.397867 -0.655236
-0.227952 0.045162 0.726594
-0.231170 0.739775 0.049734
0.122083 0.413013 0.764828
-0.573465 -0.297837 0.720330
0.095135 -0.284985 -0.637223
0.090313 -0.648731 -0.292419
0.444369 0.042803 0.707574
0.112834 0.711265 -0.279958
0.823468 -0.291361 0.019792
-0.575662 -0.298215 0.721156
-0.575876 0.023239 0.369752
-0.575455 -0.296831 0.720767
-0.562437 -0.298625 -0.664698
0.455968 0.025646 -0.641016
-0.580315 -0.290729 0.016057
0.457539 0.025844 -0.642816
-0.267905 -0.661271 0.057200
-0.581631 -0.291008 0.016590
0.094757 -0.286407 -0.636900
-0.581765 -0.289808 0.013287
-0.587417 -0.645261 -0.313397
-0.543287 0.393423 0.036738
0.444642 0.716931 0.033376
-0.239095 -0.652209 -0.671802
0.820006 0.043493 0.372326
0.089853 -0.647184 -0.290906
0.097355 -0.284823 -0.635913
0.819851 0.043727 0.374297
0.094586 -0.283663 -0.638226
0.467626 -0.341873 0.381336
0.090904 -0.647325 -0.289239
-0.576293 0.023416 0.370033
-0.267720 -0.660642 0.055931
0.446223 0.045065 0.706347
0.102174 -0.328165 0.713067
-0.543917 0.392529 0.037738
-0.241602 0.732361 -0.636040
0.796954 0.372171 0.031539
0.818013 0.025735 -0.303406
-0.541741 0.392648 0.039092
-0.226588 0.044379 0.727876
-0.579710 -0.290790 0.014977
0.456369 0.023530 -0.643342
0.819503 0.026547 -0.302239
-0.240851 -0.650268 0.708577
0.817586 0.042954 0.372277
0.445513 0.715913 0.031618
0.122688 0.412237 0.763671
-0.562480 -0.298724 -0.663029
-0.222197 0.374209 0.380402
0.446090 0.044114 0.706628
0.817360 0.025865 -0.303435
-0.576143 -0.296538 0.720855
-0.598937 0.046231 -0.342215
-0.576433 0.024271 0.367693
0.094529 -0.284359 -0.636852
-0.225994 0.044142 0.727246
0.819427 0.044308 0.372183
0.446385 0.717837 0.032807
-0.232900 0.056209 -0.667652
