OFF
256 0 0
-0.801067 -0.011670 0.278431
-0.081720 0.719950 -0.450225
0.624392 -0.334743 0.640009
0.623382 0.366478 -0.079838
-0.075108 -0.345001 -0.802144
0.621729 -0.007063 0.291555
-0.455800 0.366417 -0.471369
0.632421 -0.346789 -0.064527
0.281590 -0.697070 0.638591
-0.453738 0.365666 -0.470267
-0.431024 -0.001575 0.628277
0.286300 0.718574 -0.079579
0.281546 -0.696566 0.637121
-0.787947 -0.351909 -0.100490
0.279573 0.695845 0.625199
0.284055 -0.707502 -0.046544
-0.771488 -0.028090 -0.420559
-0.395945 -0.345789 -0.414864
0.282506 -0.708241 -0.047165
-0.442504 -0.317498 0.267549
-0.096045 -0.346228 0.612360
-0.434203 -0.013016 -0.774508
-0.075822 -0.346956 -0.802040
0.632023 -0.346978 -0.066777
-0.430695 0.339934 0.253084
0.285226 0.716820 -0.080373
-0.081497 0.716402 -0.451971
-0.077510 0.352929 0.635947
-0.432037 -0.013202 -0.775979
0.243950 -0.354806 -0.423289
0.646211 0.709334 0.285144
-0.395905 -0.344943 -0.412935
0.623484 0.366751 -0.076222
0.280403 0.001135 -0.790316
0.281708 -0.707995 -0.047850
0.283373 -0.693608 0.636815
0.280375 0.000979 -0.789669
-0.414071 -0.728347 -0.090338
-0.789109 -0.353257 -0.099406
-0.433407 0.337496 0.254491
-0.094456 -0.346659 0.612568
0.631760 -0.346090 -0.064586
-0.770347 -0.027956 -0.423120
0.627337 -0.700417 0.281672
0.622048 -0.336514 0.638655
-0.097607 -0.700770 0.271886
-0.078152 -0.345107 -0.801044
-0.788380 -0.353714 -0.099204
0.642938 0.000590 -0.429172
-0.420944 0.699252 -0.099365
-0.078303 0.355061 0.635066
0.626898 -0.700509 0.282327
0.623812 -0.334161 0.639735
0.620194 -0.004866 0.294525
0.642101 -0.000336 -0.430800
0.631868 -0.347717 -0.064480
0.287785 0.344480 -0.453664
-0.442588 -0.316988 0.266289
0.270903 -0.000668 0.667261
-0.440742 -0.318217 0.268375
0.643059 -0.002252 -0.429068
-0.080888 0.354163 0.635382
-0.070570 0.369234 -0.801830
-0.429461 -0.000145 0.630578
-0.066794 0.369383 -0.803345
-0.077851 0.355602 0.636847
-0.096670 -0.700866 0.272129
0.272627 0.000679 0.666344
-0.444419 -0.316558 0.267081
-0.095193 -0.346200 0.612609
0.243273 -0.356005 -0.420919
0.278515 0.002081 -0.791052
-0.079515 0.353473 0.635323
0.282137 -0.709720 -0.050855
0.645466 0.706967 0.285189
0.642819 -0.002624 -0.431692
0.639683 -0.001421 -0.428443
-0.396344 -0.342991 -0.414681
-0.084408 -0.718528 -0.434628
0.645500 0.708353 0.286971
-0.770330 -0.028997 -0.421941
0.622979 0.365044 -0.077356
0.625717 -0.702043 0.281387
0.271959 -0.000352 0.667915
-0.066994 0.369287 -0.801769
-0.801068 -0.012475 0.277877
-0.083771 -0.717316 -0.434929
-0.431193 0.339055 0.253753
0.632310 -0.346905 -0.066486
-0.078129 -0.344909 -0.801051
-0.771818 -0.028513 -0.421687
-0.420421 0.700325 -0.099331
0.285647 0.714685 -0.081902
0.287266 0.345298 -0.455148
0.623405 -0.335673 0.638139
-0.455572 0.366060 -0.471474
-0.092695 0.674433 0.271633
-0.431407 0.339673 0.253092
0.278625 0.697439 0.624434
0.282513 -0.694487 0.637572
0.624541 0.364402 -0.078401
-0.442809 -0.317854 0.268290
-0.067418 0.371682 -0.805017
0.271978 -0.000288 0.665270
0.288538 0.342373 -0.452761
-0.081159 0.721025 -0.450195
-0.789226 0.348098 -0.074208
0.624567 0.353315 0.651220
0.282903 -0.696642 0.637837
0.286004 -0.708580 -0.049067
0.270471 -0.000727 0.667362
0.285543 0.716536 -0.079502
0.622323 0.364803 -0.077833
0.633447 -0.346298 -0.065639
-0.440638 -0.316540 0.268031
0.624054 0.364957 -0.078858
-0.799895 -0.013600 0.277979
-0.458460 0.367635 -0.470212
-0.412693 -0.727880 -0.090623
-0.430251 0.000743 0.631314
-0.082887 -0.719245 -0.434252
-0.771798 -0.028199 -0.423542
0.286363 0.716405 -0.078799
-0.097152 -0.702244 0.271363
0.624952 -0.702909 0.280995
-0.453859 0.367712 -0.471451
-0.772166 -0.029502 -0.422450
-0.433768 -0.012310 -0.773733
-0.092950 0.675274 0.272579
0.626640 -0.702227 0.283797
-0.093135 -0.350540 0.613319
0.288755 0.342144 -0.452472
0.283459 -0.695510 0.637390
0.620115 -0.006052 0.293174
0.288312 0.343875 -0.454914
-0.085281 -0.718563 -0.434364
0.270552 -0.000298 0.668195
-0.431092 0.339910 0.255095
-0.084353 -0.717569 -0.434438
-0.065866 0.368744 -0.804323
-0.431163 0.338057 0.254076
0.621930 -0.336788 0.637793
-0.397951 -0.343195 -0.412921
-0.440999 -0.316950 0.269233
-0.455806 0.366596 -0.470472
0.282136 -0.706497 -0.048010
0.243085 -0.356390 -0.421005
0.242488 -0.354425 -0.422447
-0.799991 -0.011439 0.277293
0.287999 0.344423 -0.453480
-0.095173 -0.347310 0.611598
-0.441939 -0.316303 0.266707
-0.084879 -0.715687 -0.435429
0.630957 -0.348522 -0.065459
-0.095304 -0.348707 0.613463
0.623481 -0.338676 0.640411
0.287105 0.716844 -0.080501
-0.098079 -0.700960 0.271287
-0.413273 -0.727870 -0.088825
-0.771960 -0.027884 -0.422671
-0.790017 0.350125 -0.072854
-0.079450 0.355392 0.634721
0.288251 0.344108 -0.453100
-0.394806 -0.344729 -0.415673
-0.431863 0.339194 0.253901
-0.422297 0.700686 -0.097924
0.286682 0.342326 -0.452884
-0.429584 -0.000858 0.630097
-0.095462 -0.348435 0.612215
0.623515 0.364933 -0.076699
-0.095613 -0.347173 0.613644
-0.433470 -0.012740 -0.774880
0.645803 0.709191 0.285537
0.627171 -0.701324 0.281709
0.625826 -0.702095 0.280557
0.632818 -0.347100 -0.066729
-0.791252 0.349438 -0.075062
-0.431875 -0.001283 0.630454
-0.091770 0.675390 0.271838
0.278912 0.698096 0.624722
-0.078914 0.353118 0.635432
-0.773002 -0.029176 -0.423790
-0.456708 0.364705 -0.471948
0.645008 0.707597 0.284991
-0.429836 -0.000963 0.632663
-0.093389 0.672336 0.272564
-0.078876 -0.345736 -0.800661
0.621713 0.363154 -0.080589
-0.433033 -0.012239 -0.774619
-0.442379 -0.317779 0.268280
0.623332 0.352845 0.649963
0.622158 0.354567 0.649907
-0.431249 0.338948 0.255947
0.277369 0.697642 0.626009
-0.394275 -0.344111 -0.415924
0.244362 -0.354708 -0.422204
-0.455826 0.367018 -0.469757
0.626694 -0.700269 0.282497
-0.433322 -0.013449 -0.774849
0.623810 -0.337404 0.637690
-0.075716 -0.347249 -0.801408
0.242255 -0.356868 -0.422973
0.622012 -0.336096 0.639874
0.285348 0.716581 -0.082846
0.290843 0.342875 -0.452271
0.282609 -0.693601 0.638862
0.282624 -0.694657 0.637883
-0.066279 0.371044 -0.801946
-0.395790 -0.344015 -0.412367
0.624863 -0.336433 0.639239
0.286331 0.343419 -0.452512
-0.083200 0.720553 -0.450307
0.243212 -0.357209 -0.421305
-0.790467 0.349782 -0.071649
0.285968 0.717935 -0.080812
-0.454279 0.366396 -0.473379
0.646024 0.707290 0.284511
0.287231 0.344245 -0.452201
-0.395505 -0.344455 -0.413245
0.281001 -0.707394 -0.048940
-0.442410 -0.316831 0.267038
0.625508 0.354229 0.648788
0.280429 0.697553 0.627883
0.623338 0.366009 -0.075794
0.632326 -0.347227 -0.063079
-0.802114 -0.011556 0.277685
-0.082331 0.718544 -0.450423
-0.412599 -0.727642 -0.089133
-0.068363 0.369747 -0.802651
0.280206 -0.694092 0.638655
0.622256 -0.335979 0.638639
-0.431981 0.339348 0.253606
0.627202 -0.700970 0.281935
-0.097751 -0.702843 0.269999
-0.095020 -0.346025 0.613785
-0.455696 0.367838 -0.471402
0.278510 0.696991 0.624520
0.282271 -0.695777 0.638206
0.642743 -0.000979 -0.428979
0.281134 -0.695895 0.637030
0.628359 -0.701820 0.281709
-0.434858 -0.013765 -0.774613
0.625151 -0.702405 0.281231
-0.802058 -0.011181 0.277054
-0.788756 -0.354168 -0.099798
0.243648 -0.356283 -0.420507
-0.430273 0.338259 0.253662
0.619673 -0.006221 0.293494
0.286520 0.716241 -0.081038
-0.429627 0.001144 0.630948
-0.096102 -0.701008 0.272317
-0.442095 -0.316921 0.268263
-0.455668 0.364925 -0.472093
-0.094609 -0.348351 0.612835
0.623651 0.350773 0.650357
-0.787979 -0.351692 -0.098186
