OFF
256 0 0
0.643025 0.333127 -0.048050
-0.443816 0.731348 -0.089787
0.643137 0.709269 0.290345
-0.069968 -0.353739 0.625867
0.275586 0.021334 -0.800079
0.274739 0.001917 0.624659
0.274251 0.724545 0.621807
-0.079475 0.358087 0.633482
-0.075880 -0.718946 0.268376
0.615837 -0.391982 0.604734
-0.066252 -0.326913 -0.774350
0.261117 -0.321679 -0.411210
0.629207 0.370973 0.618327
-0.792756 0.365674 -0.073978
-0.812341 0.001444 -0.420664
-0.439678 -0.006152 -0.795657
-0.068234 0.723590 0.266293
-0.441028 -0.005887 -0.797381
-0.070075 -0.353246 0.627091
0.279768 -0.695403 -0.104549
-0.802564 -0.362097 -0.082687
0.273034 0.724952 0.621608
-0.796362 0.363605 -0.074527
0.259832 0.332436 -0.425825
0.257248 -0.716894 0.627211
-0.070853 0.344047 -0.777812
-0.069795 -0.355190 0.624216
-0.423067 -0.355014 0.247391
-0.440375 -0.005499 -0.795957
0.278933 -0.696124 -0.104913
0.273684 0.724952 0.620237
0.277544 0.021689 -0.800144
-0.074030 -0.720077 0.268675
0.279690 0.019854 -0.798903
-0.812481 0.000607 -0.421679
0.276675 0.002755 0.624262
0.629834 0.372336 0.619432
0.619483 -0.726849 0.265757
0.260130 -0.321978 -0.414256
-0.072680 -0.714914 -0.460395
0.276736 0.019481 -0.799922
0.628420 0.372133 0.618629
-0.069733 0.723375 0.267520
0.276459 0.020765 -0.800202
-0.811171 0.002514 -0.421833
0.258746 0.335016 -0.425989
-0.415442 0.005767 0.619395
-0.446641 0.354311 0.269857
0.615349 0.015792 -0.395964
-0.447937 0.352491 0.269640
-0.069702 0.702925 -0.407427
-0.415661 0.006370 0.618288
-0.072275 -0.716879 -0.460469
-0.070060 -0.354986 0.627517
-0.417031 -0.354744 -0.420813
-0.447322 0.352360 0.271170
0.613592 0.015536 -0.396955
0.614032 0.016381 -0.397105
-0.795318 0.364632 -0.075634
0.641315 0.333444 -0.049112
-0.795093 0.364584 -0.074265
0.634934 -0.358687 -0.055926
-0.805335 -0.031244 0.269336
0.277324 0.020643 -0.800332
0.633042 -0.359866 -0.057115
-0.446898 0.352591 0.270440
0.261320 -0.322811 -0.413554
0.620970 -0.727682 0.264113
-0.422672 -0.711744 -0.086523
0.615787 -0.391206 0.603121
-0.072904 -0.713440 -0.461002
0.279677 -0.696201 -0.103970
0.613948 -0.390668 0.604154
-0.444681 0.731045 -0.090250
0.641121 0.336849 -0.047841
-0.794542 0.363371 -0.075024
-0.415468 0.005669 0.621000
-0.071561 -0.715706 -0.459644
-0.068582 0.725247 0.267571
0.619893 -0.726057 0.266749
0.641367 0.333449 -0.047954
-0.420681 -0.710319 -0.086949
-0.415448 0.004561 0.619880
0.634049 -0.009386 0.287487
-0.425858 0.351431 -0.424927
-0.064099 -0.326011 -0.775070
-0.068972 0.723174 0.266748
0.615469 -0.389861 0.605259
0.260485 -0.321664 -0.413092
-0.063415 -0.323582 -0.773650
0.614993 0.016803 -0.398889
-0.074965 -0.714493 -0.460619
-0.804721 -0.030766 0.268125
-0.416715 -0.353543 -0.421600
-0.417500 -0.353437 -0.422176
0.637251 -0.011747 0.285546
-0.795970 0.363719 -0.075149
0.275781 0.725023 0.622190
-0.416959 -0.355114 -0.422215
-0.424063 -0.354628 0.246466
-0.070219 0.342422 -0.777115
0.636356 -0.011570 0.288023
0.301363 0.707571 -0.069619
0.620800 -0.725942 0.264929
-0.803415 -0.031901 0.270171
0.279728 -0.696345 -0.105051
-0.443489 0.730787 -0.088601
-0.068024 0.703538 -0.406982
0.260614 -0.322368 -0.413779
-0.805996 -0.032429 0.269572
-0.422954 -0.709923 -0.085926
-0.423393 -0.353665 0.244726
-0.424239 -0.354808 0.245080
0.629426 0.372719 0.617299
-0.068459 0.701802 -0.407706
0.616208 -0.390650 0.605132
0.616516 -0.392424 0.602921
-0.073807 -0.719860 0.269788
0.620423 -0.726091 0.265499
0.258518 -0.324367 -0.411894
-0.811519 0.002063 -0.420452
-0.072981 -0.717019 -0.460251
-0.449110 0.353056 0.270470
-0.073122 -0.715654 -0.460260
-0.803933 -0.030404 0.268169
-0.426810 0.352582 -0.426664
-0.426151 0.353831 -0.426698
-0.067803 0.725141 0.264317
0.615895 -0.391978 0.605599
0.279497 -0.696198 -0.107708
-0.067759 -0.325218 -0.774306
-0.064094 -0.326678 -0.774656
-0.071062 0.344460 -0.777088
-0.074273 -0.720979 0.269607
-0.417371 -0.354089 -0.421575
0.621478 -0.724756 0.265416
-0.441079 0.733078 -0.090189
-0.414503 0.004453 0.620189
0.278357 -0.696214 -0.104111
-0.068201 0.703353 -0.406135
-0.440872 -0.005466 -0.796059
0.639910 0.335296 -0.048710
0.303701 0.711182 -0.070525
0.259078 -0.322089 -0.412689
-0.072136 -0.715951 -0.459509
-0.071628 -0.716682 -0.460342
0.620280 -0.726448 0.264623
-0.418638 -0.354487 -0.421296
-0.440924 -0.006703 -0.796089
0.642644 0.334972 -0.047630
0.615219 -0.391990 0.603247
0.261348 0.330786 -0.428641
-0.068054 -0.354805 0.626440
0.275388 0.019315 -0.799105
0.277547 0.019033 -0.798950
-0.072046 -0.716518 -0.460151
0.277027 0.020852 -0.799232
0.261523 -0.321755 -0.411815
-0.073161 -0.719363 0.268691
-0.424903 -0.355348 0.242001
-0.797422 0.362876 -0.075417
-0.441894 0.734084 -0.088448
0.274302 0.725455 0.621049
-0.416759 -0.352173 -0.420968
0.275036 0.725227 0.620689
-0.074378 -0.718039 0.268957
0.628842 0.373782 0.616394
-0.070802 -0.354307 0.627361
-0.078811 0.357986 0.633690
0.615278 0.015127 -0.397705
-0.421292 -0.710303 -0.085080
0.276462 0.726985 0.619603
0.642798 0.708317 0.290514
-0.071170 0.345423 -0.777002
-0.068828 0.725466 0.267576
-0.441725 -0.004389 -0.796980
0.615499 -0.390942 0.605160
-0.811644 0.005042 -0.419074
-0.418318 -0.353986 -0.421984
-0.413560 0.005661 0.619753
0.640769 0.709932 0.289506
0.260963 -0.320631 -0.412152
0.275728 0.002727 0.623663
-0.417314 -0.354374 -0.422045
-0.074142 -0.715368 -0.459633
0.620207 -0.725282 0.266095
-0.440367 -0.007315 -0.796361
-0.419055 -0.353578 -0.420694
-0.068948 0.702042 -0.406642
0.263394 -0.320782 -0.413320
-0.803538 -0.362002 -0.084160
-0.807537 -0.032476 0.269806
0.639063 0.333503 -0.049122
0.260527 0.331415 -0.426962
-0.075560 -0.718879 0.269219
-0.801095 -0.363839 -0.084059
-0.415254 0.004155 0.618803
0.631718 -0.360147 -0.054733
0.629007 0.370714 0.617160
-0.415450 0.006817 0.618708
-0.420927 -0.709992 -0.087745
0.642486 0.710579 0.290482
-0.418790 -0.354753 -0.421628
-0.794873 0.362057 -0.073701
-0.079826 0.356613 0.632085
-0.074648 -0.718932 0.269033
-0.438648 -0.005133 -0.795802
0.276731 0.018338 -0.799022
0.274728 0.002240 0.625274
-0.074333 -0.720765 0.269443
-0.417242 -0.355530 -0.421524
0.629212 0.372538 0.618578
0.275046 0.002069 0.624091
-0.068388 0.724425 0.267147
0.615853 -0.392815 0.603980
0.629744 0.370944 0.617981
0.302950 0.708710 -0.071400
0.260618 0.333279 -0.428150
-0.811353 0.003088 -0.418473
-0.415710 0.006940 0.617658
0.274600 0.002418 0.625945
-0.418133 -0.354012 -0.420354
0.614457 -0.391377 0.605549
0.279285 -0.697275 -0.103014
-0.067080 0.702996 -0.409368
0.279593 0.019257 -0.801385
0.301867 0.710334 -0.071374
-0.063878 -0.327726 -0.774042
0.256579 -0.716924 0.627436
0.636593 -0.010707 0.287024
-0.447246 0.354236 0.270337
0.277607 0.021170 -0.797850
0.620440 -0.725802 0.265347
-0.070409 0.344679 -0.778015
-0.067510 0.703367 -0.406425
0.274302 0.725097 0.621600
-0.075524 -0.720235 0.266516
-0.443031 0.732142 -0.091411
0.275696 0.003784 0.625789
-0.805944 -0.033304 0.269395
-0.441084 0.733450 -0.088689
-0.065360 -0.326965 -0.773039
-0.075045 -0.719990 0.269357
0.303378 0.708311 -0.071601
0.615656 0.014712 -0.397191
-0.071549 0.344494 -0.777195
0.614435 -0.389722 0.603801
0.636614 -0.011136 0.288087
-0.419965 -0.709705 -0.087632
0.273385 0.724378 0.619788
0.274938 0.002498 0.623695
0.618525 -0.727597 0.266783
0.626978 0.370853 0.616864
-0.072755 -0.713308 -0.460762
-0.069004 -0.353343 0.624979
-0.066513 -0.326592 -0.773571
