OFF
256 0 0
0.789130 0.283307 -0.001926
0.077200 0.614479 0.363021
-0.615033 -0.069253 0.355363
0.095679 0.287091 0.706991
0.417078 -0.080532 0.711106
0.441588 -0.098976 -0.719676
0.780671 -0.080186 0.380902
-0.604443 0.296881 0.698382
0.411777 -0.400694 -0.308701
-0.623912 -0.430618 -0.002050
-0.635537 0.275857 -0.008802
0.800422 -0.426067 0.001141
0.407262 -0.770790 0.006702
-0.623659 -0.431132 -0.001402
0.396533 -0.408433 0.334597
0.076356 -0.787073 -0.369067
-0.293628 0.599114 -0.704849
-0.291235 0.600665 -0.702586
-0.262848 -0.426585 0.355083
-0.646452 0.280268 -0.710046
0.077790 0.614917 0.363123
0.088284 0.251882 -0.703388
-0.660371 -0.071934 -0.380361
0.396322 -0.409746 0.335640
-0.262734 -0.428967 0.352322
-0.607610 0.637929 0.351374
-0.605842 0.637548 0.351209
-0.263158 -0.426347 0.355210
0.057373 0.589940 -0.336876
0.079191 -0.406642 -0.709540
0.432242 0.245706 -0.342493
-0.623687 -0.432997 -0.002727
0.799593 -0.426473 0.001547
0.417799 -0.080102 0.709826
-0.291634 0.599238 -0.705243
0.416600 0.612695 0.001729
0.078930 -0.405538 -0.707439
0.079548 -0.406331 -0.709842
0.087678 0.252147 -0.703308
0.079986 0.614702 0.362898
-0.605836 0.296166 0.699081
-0.266940 0.634756 0.692692
-0.290972 0.598294 -0.703218
0.443303 -0.100092 -0.721301
-0.633209 0.274275 -0.010291
0.090129 -0.434037 0.723259
0.078250 0.614175 0.361742
-0.645727 0.280132 -0.709316
0.078301 0.613557 0.362944
0.088214 0.251541 -0.703656
0.080751 -0.407535 -0.708573
0.087523 0.250860 -0.703237
0.799052 -0.426333 0.000669
0.413914 -0.399772 -0.309361
-0.242273 -0.056002 0.686753
0.798055 -0.426752 0.000677
0.780604 -0.083149 0.380056
-0.285447 -0.442712 -0.368983
0.096708 0.286909 0.707373
-0.243123 -0.056279 0.686585
0.079870 -0.407654 -0.708221
-0.263331 -0.427972 0.352076
-0.623893 -0.432340 -0.000888
-0.625485 -0.431518 -0.000871
-0.617581 -0.069145 0.352823
-0.659437 -0.071651 -0.379511
-0.284277 -0.761661 -0.000438
-0.297815 -0.080153 -0.711158
0.079464 0.616464 0.362531
-0.633196 0.274681 -0.009840
0.789638 0.281508 -0.000300
-0.647006 0.279598 -0.709600
-0.253900 0.591848 0.034123
-0.602559 0.631117 -0.350464
-0.243608 -0.057687 0.685411
0.780287 -0.080698 0.379912
-0.291800 0.599926 -0.700052
-0.285618 -0.762767 0.000428
-0.284000 -0.762043 -0.001201
-0.616805 -0.068435 0.354072
0.790504 0.281830 -0.002422
-0.265154 -0.428902 0.353405
-0.614664 -0.068271 0.352956
-0.623350 -0.431276 -0.001108
0.079397 0.613220 0.363622
-0.243755 -0.056467 0.685687
-0.601365 0.630215 -0.351729
0.397488 -0.409733 0.334435
-0.285380 -0.764449 -0.000476
-0.606160 0.295340 0.698515
-0.645606 0.281343 -0.710047
-0.282503 -0.442787 -0.368650
-0.603186 0.630103 -0.351430
0.781039 -0.081495 0.379665
-0.618351 -0.068272 0.355215
-0.606534 0.637494 0.350306
-0.615813 -0.067663 0.350719
-0.262038 -0.427455 0.354153
0.397251 -0.410504 0.335281
-0.284188 -0.443639 -0.367506
-0.286365 -0.441914 -0.368722
-0.623321 -0.430757 -0.002531
0.432128 0.243953 -0.343506
0.054343 0.586635 -0.337434
-0.633216 0.274811 -0.012503
-0.264811 0.635014 0.692238
-0.253994 0.589206 0.035411
0.074728 -0.784008 -0.370570
0.066898 -0.784796 0.362942
-0.645290 0.280821 -0.711261
0.057503 0.589598 -0.335795
-0.606988 0.297676 0.698663
0.800775 -0.427006 0.000166
0.397636 -0.410092 0.335126
-0.602184 0.630470 -0.351485
0.803445 -0.075468 -0.364464
-0.282594 -0.762134 -0.002638
-0.291119 0.597534 -0.701440
-0.283868 -0.443252 -0.367052
0.078948 -0.408724 -0.709661
-0.291705 0.598534 -0.704687
0.801372 -0.075531 -0.367298
0.417367 -0.081661 0.710523
0.781460 -0.081903 0.379799
0.789825 0.281054 -0.001396
0.415337 0.612789 -0.000020
0.442254 -0.097682 -0.721218
0.090149 -0.433726 0.722410
0.095227 0.284789 0.705883
-0.602818 0.627917 -0.350269
-0.295735 -0.082340 -0.713295
-0.606067 0.638711 0.350621
-0.253052 0.589389 0.036185
0.395473 -0.411752 0.335811
-0.634010 0.274136 -0.008641
0.441249 -0.099489 -0.722075
0.088643 0.250734 -0.702492
-0.297829 -0.083079 -0.711041
-0.244922 -0.058051 0.685980
-0.296358 -0.083155 -0.711963
0.413864 -0.402182 -0.310676
-0.606239 0.639056 0.350083
0.407944 -0.772553 0.007186
0.056792 0.586868 -0.336700
-0.242746 -0.057908 0.683906
0.408803 -0.772520 0.005735
-0.292123 0.597703 -0.703226
-0.267131 0.635552 0.694395
-0.242909 -0.057844 0.684189
0.096139 0.287331 0.706497
0.441141 -0.100376 -0.722134
0.414720 -0.401633 -0.309690
-0.604546 0.297436 0.700861
0.090328 -0.435180 0.724636
-0.285038 -0.762020 -0.002108
0.797501 -0.427790 -0.001807
0.417265 -0.080840 0.710684
0.407741 -0.769812 0.006078
-0.616620 -0.067575 0.355072
0.789457 0.281599 -0.000130
-0.644396 0.282173 -0.709903
-0.283746 -0.763293 -0.001456
0.089665 -0.432844 0.724792
-0.605363 0.297724 0.700073
0.800118 -0.427415 -0.000622
0.396514 -0.408006 0.333570
0.434968 0.243821 -0.343590
0.395743 -0.409707 0.335455
-0.267198 0.635230 0.692280
0.076831 -0.785175 -0.370925
0.436391 0.243754 -0.344376
-0.284341 -0.444054 -0.370316
-0.607149 0.296889 0.702957
0.449655 0.280419 0.339689
0.788545 0.280206 -0.002964
-0.284440 -0.762221 -0.000622
-0.617743 -0.068658 0.352265
0.395592 -0.410988 0.335141
0.396636 -0.409674 0.333272
-0.286815 -0.762290 -0.000751
-0.616365 -0.069824 0.352029
-0.622057 -0.432141 -0.002916
-0.600839 0.628841 -0.350682
0.778839 -0.081132 0.378352
-0.283269 -0.443916 -0.368128
-0.262791 -0.426292 0.354008
0.417357 -0.080042 0.710218
-0.617641 -0.067723 0.352224
0.780285 -0.080854 0.378577
0.398056 -0.411119 0.334452
0.412975 -0.401869 -0.311511
0.078640 -0.406448 -0.707879
-0.266844 0.633815 0.691131
-0.634345 0.274965 -0.009607
-0.255018 0.589630 0.035109
0.799564 -0.426415 -0.001701
0.780050 -0.079725 0.378983
0.797870 -0.425188 -0.000439
-0.295769 -0.084531 -0.710986
0.078807 -0.404556 -0.709257
0.433873 0.244731 -0.341992
0.416521 0.614085 0.000686
0.449173 0.279109 0.338901
0.097518 0.287069 0.708368
-0.607728 0.636905 0.351297
-0.285387 -0.761650 -0.003177
0.066695 -0.787803 0.364078
0.056873 0.590077 -0.335649
0.079019 0.613574 0.362908
-0.284949 -0.762582 -0.001324
-0.602457 0.630389 -0.351387
0.447518 0.280582 0.339300
0.434875 0.243713 -0.343578
0.442221 -0.098932 -0.720069
0.076601 -0.784170 -0.370040
0.407162 -0.770787 0.006078
0.080002 -0.406773 -0.709653
0.396286 -0.409779 0.335217
0.440710 -0.099070 -0.721055
0.072791 -0.783983 -0.371223
0.788491 0.280146 -0.003092
0.396310 -0.411150 0.335054
-0.643632 0.280584 -0.709876
0.074661 -0.784452 -0.372294
0.067412 -0.787629 0.367133
0.803834 -0.076090 -0.366370
-0.296887 -0.084504 -0.712379
-0.292284 0.597448 -0.703222
0.091022 -0.433792 0.725124
-0.634393 0.274925 -0.009925
-0.293269 0.599326 -0.705232
-0.602885 0.630259 -0.351783
-0.296503 -0.081856 -0.712260
0.441686 -0.097903 -0.721352
0.413306 -0.400971 -0.311782
0.804509 -0.077756 -0.365289
-0.245051 -0.056957 0.685863
0.417373 -0.078711 0.711215
0.091285 -0.434207 0.724733
0.079344 0.613809 0.364125
0.068443 -0.787342 0.364110
0.088464 0.250595 -0.704288
0.056695 0.588932 -0.338082
0.412450 -0.401203 -0.309320
-0.623630 -0.428727 -0.001385
-0.644113 0.282292 -0.708933
-0.609058 0.637674 0.349889
0.098018 0.285538 0.706479
-0.243921 -0.057513 0.687151
-0.292815 0.598662 -0.703352
-0.263351 -0.427979 0.353321
0.417881 0.609977 0.001316
0.448214 0.280171 0.339661
0.089415 -0.433314 0.722125
-0.296427 -0.082935 -0.710637
-0.253976 0.591850 0.032609
