OFF
256 0 0
-0.722947 -0.235746 -0.649197
0.306275 -0.577699 -0.649619
0.306388 0.451598 0.378419
0.306385 -0.578801 -0.649684
0.649240 -0.233949 0.036221
0.305964 0.108243 0.724287
-0.378956 0.795745 0.038829
0.305409 0.107059 0.721581
-0.034957 -0.235905 -0.650711
0.307633 -0.577851 0.722960
-0.724007 0.107821 -0.307087
-0.723752 0.108238 -0.306766
-0.035970 0.795679 0.379924
-0.719229 0.450805 0.035124
-0.723418 -0.234304 -0.650169
-0.723065 0.451285 0.035692
0.306538 -0.576275 0.035858
0.649626 -0.235678 0.035948
0.649985 -0.578300 -0.307164
-0.379733 0.451733 0.379451
-0.380599 -0.579164 -0.651842
-0.719784 -0.232836 0.036006
-0.035422 -0.237194 0.722287
-0.721288 -0.578676 -0.307792
0.648618 -0.578701 0.378382
0.650812 -0.236482 -0.649917
0.649828 -0.234643 0.035581
0.650463 0.108061 0.379590
0.648278 -0.234800 -0.650386
-0.379196 0.795540 0.037194
-0.378961 -0.577302 -0.649180
-0.721259 0.451553 0.035305
-0.378720 0.451592 -0.307745
-0.378368 -0.577619 -0.650492
0.649918 -0.235251 0.037583
-0.722673 0.108282 0.379986
0.649903 0.109696 0.379726
-0.035836 -0.578154 -0.307621
-0.723711 0.108073 -0.307927
0.652061 0.450595 0.036307
-0.722914 0.452268 0.036569
0.307219 0.449591 -0.307129
-0.381072 0.794918 0.035493
0.651636 -0.234414 0.035667
0.650332 0.107498 0.379022
-0.378693 0.450690 0.378865
-0.036120 -0.233921 0.723148
-0.722128 0.451611 0.036328
-0.381541 0.451954 0.379662
0.308603 -0.576790 0.722792
0.650289 0.452873 0.035434
-0.035843 0.793744 -0.306019
0.650003 -0.236197 0.721112
-0.722884 -0.233811 0.037057
-0.378807 0.794065 0.035863
-0.035771 -0.578149 0.379683
0.648679 0.108471 -0.307511
0.651980 0.451352 0.037085
-0.377484 -0.233633 0.378668
0.304445 -0.577584 0.723241
0.307382 -0.576629 0.723762
0.307483 0.452194 -0.308271
0.650330 -0.233525 -0.650479
-0.037531 -0.235935 -0.650246
-0.378054 0.793365 0.036969
0.305465 -0.576820 -0.650509
0.651377 -0.578612 -0.306221
-0.378953 0.793611 0.035962
0.649801 -0.578037 0.381284
0.650022 -0.578209 0.379977
0.305651 0.452217 -0.308042
-0.036735 -0.236233 0.722197
-0.382195 -0.579498 0.035706
-0.722004 -0.579570 -0.307012
-0.722193 -0.233892 0.036120
-0.034972 -0.233564 -0.650463
-0.722272 0.109954 -0.306734
0.652131 -0.234169 0.720450
0.307162 0.452002 -0.306352
0.308329 0.794598 0.035850
-0.378914 -0.576724 -0.650509
0.306322 0.794669 0.035187
-0.036150 -0.577646 -0.306982
0.306156 0.109281 0.723860
-0.037626 -0.235537 -0.652217
-0.380726 0.793679 0.034952
-0.721265 0.106074 0.380933
0.649520 -0.234059 0.722951
-0.378490 0.451305 -0.308219
-0.380736 0.107520 0.721068
0.306939 0.107391 -0.650214
-0.378289 -0.234681 0.378614
0.649868 -0.578536 0.378788
0.306879 -0.577714 -0.649725
-0.037368 -0.234613 -0.650075
-0.378590 0.450807 -0.307277
-0.037074 -0.235165 0.720656
0.305010 0.450977 -0.307840
-0.722566 0.108148 0.378229
0.647698 0.109005 0.379238
-0.035821 0.450192 0.721226
-0.721475 0.108389 0.381107
-0.035238 -0.578975 -0.305521
0.650957 -0.578206 0.378342
-0.723464 0.449461 0.034677
0.306089 -0.576443 -0.650706
-0.721822 0.108903 -0.306755
0.652070 0.108337 0.379510
-0.036266 -0.577476 -0.307686
0.650362 -0.578034 0.379268
-0.378087 0.107464 0.722493
-0.721861 -0.236464 0.036558
0.308267 0.450515 0.378163
-0.378714 -0.235306 0.379792
0.652944 0.107851 -0.309803
-0.722266 -0.577362 -0.306771
-0.379836 0.793813 0.037087
0.307402 0.108253 0.722491
0.306550 0.108341 0.724687
-0.721582 -0.233887 -0.651509
-0.379987 0.451135 0.380531
-0.720984 -0.578341 -0.307182
0.651282 0.106860 0.379788
0.307682 0.107568 0.722619
-0.036857 0.793629 -0.308809
0.307619 0.108456 0.722444
0.651662 0.105930 0.380264
-0.036982 0.451904 0.723546
-0.378920 0.450512 -0.306245
-0.381075 -0.577843 -0.650306
0.650239 0.107680 0.379382
0.307974 0.451566 0.380239
0.651749 -0.580026 -0.309337
-0.034628 0.452163 -0.649625
0.649672 0.107399 -0.307710
0.649501 0.107998 0.379187
0.308813 0.794963 0.036265
0.649710 -0.233929 0.034888
-0.036213 0.794997 0.379348
-0.380723 -0.577207 0.036979
-0.037078 0.450282 0.723805
-0.378555 0.795952 0.035419
0.306441 0.451294 -0.306294
-0.036555 -0.577962 0.380046
-0.722698 0.108999 -0.307845
0.649892 -0.235553 0.036004
0.650681 -0.577091 -0.306342
0.649961 -0.234506 0.037022
-0.379654 -0.578618 -0.651057
0.651223 -0.233426 0.722696
-0.721844 -0.235231 -0.650191
-0.380665 -0.578656 0.037160
-0.721667 0.108914 0.377252
0.647629 0.106984 0.379033
-0.035890 0.451439 0.722568
-0.037780 -0.577171 0.379423
-0.380213 0.795800 0.035517
-0.033784 -0.578132 0.379154
-0.380351 -0.577812 0.035849
-0.378839 0.452033 0.379419
-0.037072 0.450993 -0.649467
0.650464 -0.234301 -0.648982
-0.379001 0.793889 0.034821
-0.037725 0.794977 0.378052
-0.036162 -0.232776 0.722866
0.650275 -0.578376 -0.308496
-0.378492 0.451815 0.378644
-0.723474 -0.580454 -0.307163
0.652267 -0.234119 0.036577
-0.036453 -0.233705 0.720985
-0.720492 -0.233184 -0.651981
0.306234 0.795567 0.036938
0.650599 0.107210 -0.305882
-0.722847 0.107541 -0.307338
0.649711 -0.577376 0.379669
-0.036840 -0.576950 0.380098
-0.036313 0.794177 -0.308461
-0.380821 0.107689 -0.650862
0.648183 -0.233586 0.035206
0.308314 -0.577098 0.035075
-0.720624 -0.235256 0.035751
0.305309 -0.579048 0.035151
0.310233 0.795729 0.036564
0.307434 -0.578606 0.034981
-0.377661 0.794294 0.036931
-0.724947 0.108319 0.379954
-0.378491 0.793896 0.035475
0.649949 -0.235287 -0.651876
0.651237 0.106443 0.380829
-0.380431 0.106765 -0.651328
0.305987 -0.578105 0.037578
-0.722578 -0.579040 -0.308284
0.652490 -0.233920 0.721746
0.649986 -0.578339 0.380517
0.648865 -0.234438 0.037245
-0.380537 0.108199 -0.648677
0.649588 -0.235405 0.721672
0.647958 -0.579562 -0.305910
-0.379561 -0.233682 0.378349
0.649352 -0.577557 0.379875
-0.381088 0.451685 -0.306426
-0.035624 -0.578525 0.379412
0.652169 -0.578913 0.377787
-0.379387 0.110319 -0.651362
-0.379899 0.451177 -0.307341
-0.723730 -0.578161 -0.308012
-0.036284 -0.578917 -0.307572
-0.722667 0.452191 0.035204
0.650886 -0.578836 -0.307267
-0.037129 0.795641 -0.307917
0.306541 -0.577803 -0.649939
-0.037374 -0.576672 0.380214
-0.036774 0.793575 0.378757
0.650060 -0.233607 0.722100
-0.379739 -0.577836 -0.650626
-0.379579 -0.578600 0.036073
-0.723446 -0.235406 0.036565
-0.381136 -0.232430 0.379497
0.306361 0.108302 0.722096
0.306670 0.107775 -0.650277
-0.721512 -0.235631 -0.650297
-0.377996 -0.578088 0.036275
0.650627 0.107172 -0.306894
0.308158 0.796046 0.034949
0.306291 -0.577390 0.719955
-0.037044 0.795570 -0.306385
0.306211 0.106055 -0.650490
0.651135 -0.233996 0.721599
-0.722069 -0.577325 -0.306848
-0.379667 -0.577677 0.036270
-0.378970 -0.234441 0.378761
-0.378909 -0.234351 0.377356
-0.380045 0.450274 -0.306371
-0.380213 0.109280 0.722362
-0.380033 0.107783 -0.651245
-0.722952 -0.234587 0.036054
0.650202 0.451735 0.035723
-0.380097 0.107726 -0.650957
-0.380361 0.108380 0.722284
-0.378747 0.107627 -0.649135
-0.035631 -0.235477 0.724196
-0.723302 -0.234463 -0.650274
-0.036251 0.451579 -0.650109
-0.035759 -0.233901 0.722037
0.649793 -0.577467 0.379750
-0.034628 -0.578334 -0.305034
-0.034065 -0.576111 -0.306977
-0.722907 -0.235944 -0.648807
-0.035437 0.451619 0.722744
0.307816 0.794820 0.034766
0.652502 0.108337 0.380414
-0.722698 -0.235137 -0.649195
-0.722881 0.109170 0.378937
-0.037120 -0.578479 -0.309367
-0.721912 0.453359 0.036356
-0.722712 -0.576069 -0.307203
