OFF
256 0 0
-0.081585 -0.374951 0.777453
-0.082322 -0.373241 0.778252
-0.409763 0.337692 0.417450
-0.793654 -0.338139 0.074919
0.269641 -0.016637 -0.601405
-0.107764 -0.730374 0.423798
-0.065610 0.380738 0.830274
-0.083205 -0.718356 -0.257803
-0.073879 0.704388 0.435107
-0.772523 0.360574 0.087058
-0.070710 0.728789 -0.270004
-0.102113 0.360183 -0.616359
0.642167 0.347979 -0.627481
0.271349 0.355616 0.423005
0.270753 -0.730190 -0.616558
0.269890 -0.360151 0.435744
-0.406453 0.337138 0.417243
0.613895 0.338317 0.049919
0.622899 -0.722417 -0.263289
0.268489 -0.018024 -0.601994
0.267972 -0.359223 0.438640
0.641694 0.031507 0.437691
0.269023 -0.017973 -0.598279
0.655159 -0.031167 -0.285466
0.267327 -0.359648 0.436305
-0.773993 -0.003266 0.417949
-0.081358 -0.332789 -0.623283
0.623070 -0.723655 -0.263280
0.271565 0.356160 0.423015
-0.101108 0.361871 -0.615214
-0.425974 0.707536 0.094546
0.639457 0.029755 0.438141
-0.419435 0.350855 -0.270878
0.254422 0.018231 0.783339
-0.084147 -0.717983 -0.259591
0.623707 -0.722564 -0.262992
0.269750 -0.018276 -0.601499
0.635154 -0.350805 -0.646295
-0.064855 0.379270 0.829854
-0.421625 0.350108 -0.270694
-0.085033 -0.374794 0.778632
-0.431072 -0.325919 -0.263488
-0.771454 0.361016 0.087516
0.636416 0.710151 -0.279950
0.260786 0.703680 0.072448
0.261162 0.702937 0.072629
-0.793109 -0.335466 0.075166
0.262551 0.703384 0.073067
-0.419331 0.350608 -0.270005
-0.423912 0.708617 0.093615
-0.419852 0.006136 0.784701
0.254180 0.017720 0.786192
-0.793493 -0.337688 0.075435
0.636481 -0.349747 -0.646534
-0.475244 -0.719343 0.069723
0.268246 0.725000 -0.635060
-0.081126 -0.374136 0.776689
0.643233 0.349105 -0.626810
0.638419 0.031845 0.436800
-0.414819 -0.332577 0.423501
0.637209 0.712048 -0.279494
-0.407001 0.338757 0.417092
-0.437123 0.002589 -0.661361
-0.082941 -0.717575 -0.259037
-0.771862 0.360091 0.086047
-0.076741 0.704493 0.435744
-0.407839 0.337635 0.418280
-0.407237 0.338813 0.420021
-0.432016 -0.325520 -0.266098
0.256117 0.017025 0.786913
-0.082296 -0.375754 0.776749
0.261467 0.703600 0.074177
0.635076 -0.351648 -0.648596
0.276669 -0.735480 0.101058
0.272917 0.355194 0.423000
0.615352 0.339079 0.051829
-0.107368 -0.732253 0.422721
-0.419211 0.351293 -0.269929
0.614469 0.338814 0.050129
0.637374 -0.352786 -0.647901
0.638472 0.712846 -0.281147
0.643008 0.349189 -0.627687
-0.098734 0.361731 -0.617230
-0.104835 -0.730184 0.420497
-0.081744 -0.330211 -0.621679
-0.432804 -0.325507 -0.264879
-0.407331 0.338303 0.416322
0.269308 -0.360769 0.435244
-0.424666 0.705820 0.093728
-0.419225 0.351687 -0.267420
-0.075527 0.705007 0.435292
-0.437476 0.002272 -0.661449
0.652491 -0.030632 -0.285114
0.268546 0.723362 -0.634582
-0.432396 -0.326430 -0.264015
-0.434783 0.000590 -0.661421
0.270892 0.354676 0.423845
0.270778 -0.730687 -0.614809
0.269150 0.724192 -0.635051
-0.424641 0.705729 0.095156
0.266679 0.724574 -0.634757
-0.772725 0.361358 0.088384
-0.773276 0.362399 0.087977
0.268919 -0.359774 0.436501
-0.797268 0.002489 -0.294430
0.641532 -0.351408 0.073180
-0.080879 -0.375918 0.776026
-0.772216 0.362537 0.087988
-0.795708 -0.339121 0.075227
-0.420140 0.353119 -0.268418
0.266865 0.723739 -0.633762
-0.422485 0.704722 0.096994
-0.065091 0.380166 0.831030
0.269060 -0.360125 0.435946
0.638182 -0.351448 -0.645640
0.268811 -0.358685 0.436460
-0.792267 -0.337921 0.075538
0.655855 -0.031577 -0.283596
-0.792939 -0.338127 0.076773
0.640072 -0.352386 0.073929
-0.793564 0.003648 -0.294235
-0.774674 -0.002064 0.417649
-0.068520 0.729270 -0.269736
-0.421600 0.006681 0.782093
0.615549 0.339061 0.049806
-0.419377 0.351393 -0.269484
-0.421235 0.349959 -0.271177
-0.792612 -0.339419 0.076642
0.637259 -0.349723 -0.647180
-0.420266 0.006155 0.784600
-0.100295 0.361459 -0.616174
0.271133 0.357255 0.422864
-0.406931 0.339961 0.417041
-0.081183 -0.332095 -0.623353
-0.432586 -0.325112 -0.265160
-0.474238 -0.719718 0.074111
0.266987 -0.017628 -0.601113
-0.771462 0.361987 0.086135
0.640589 0.032093 0.439380
-0.794309 -0.336954 0.077211
-0.420274 0.352008 -0.267747
-0.099696 0.363118 -0.615946
-0.473580 -0.720238 0.071919
-0.417878 0.005725 0.783396
-0.107174 -0.730013 0.421086
-0.408280 0.339033 0.416478
0.614382 0.337222 0.052503
-0.420298 0.352704 -0.268756
-0.082683 -0.375071 0.778305
-0.474570 -0.718813 0.070077
-0.108749 -0.731571 0.422160
-0.068740 0.727095 -0.269510
-0.107933 -0.730007 0.422811
0.270969 -0.730852 -0.617212
-0.414286 -0.332792 0.421454
-0.418477 0.006499 0.783412
-0.437456 0.002443 -0.660949
0.269395 0.724356 -0.634171
-0.418762 0.352684 -0.270822
-0.101702 0.361465 -0.617331
-0.065326 0.378556 0.828337
-0.418639 0.007626 0.782859
-0.436799 0.001064 -0.662065
0.269723 -0.017189 -0.600607
0.639787 0.032169 0.438956
0.624852 -0.724042 -0.264183
-0.420973 0.349569 -0.270060
0.269286 0.724118 -0.634470
0.260552 0.701623 0.073479
-0.773940 0.000073 0.418102
0.614533 0.339772 0.050231
0.268109 -0.360698 0.436519
0.267822 0.724421 -0.633560
0.254478 0.017171 0.786671
-0.795805 -0.337070 0.076479
0.639922 -0.349532 0.073140
0.261195 0.704144 0.074980
-0.077406 0.702702 0.436333
0.624164 -0.723691 -0.265307
-0.070598 0.727211 -0.270673
0.643041 0.349191 -0.628789
-0.063823 0.378931 0.827418
0.639902 0.031153 0.438285
-0.081548 -0.332626 -0.621148
-0.420269 0.006391 0.781404
-0.436249 0.003276 -0.661026
-0.419811 0.007483 0.783940
-0.079273 -0.333736 -0.622845
-0.067257 0.729370 -0.268672
-0.419687 0.006033 0.782819
0.268054 0.726781 -0.634954
0.613157 0.339237 0.048358
0.261529 0.703398 0.072843
0.642323 0.348638 -0.625755
-0.794495 -0.336794 0.076127
-0.405391 0.339255 0.418460
-0.414288 -0.334122 0.420946
-0.794516 -0.338158 0.075303
-0.775721 -0.001128 0.417654
0.640051 0.032428 0.437733
0.638420 0.032407 0.438375
-0.424778 0.706471 0.095102
-0.414089 -0.333525 0.420869
0.638403 0.713285 -0.280680
-0.431405 -0.326664 -0.265231
-0.418781 0.350804 -0.269502
-0.415233 -0.331483 0.423042
0.267274 0.724021 -0.634341
-0.098283 0.363712 -0.615406
-0.775671 0.002342 0.417690
0.266816 -0.017660 -0.602355
0.635554 -0.349493 -0.647914
-0.435159 0.002642 -0.663262
-0.069795 0.727396 -0.269984
0.261533 0.702190 0.074152
-0.081750 -0.331974 -0.623671
0.636254 -0.353132 -0.646382
-0.415358 -0.333581 0.420706
0.256919 0.016932 0.785856
0.653345 -0.033040 -0.282786
0.267784 -0.016281 -0.601900
-0.415393 -0.334919 0.420227
-0.433122 -0.327237 -0.264113
0.623524 -0.725150 -0.263140
-0.795184 -0.337103 0.076180
-0.076927 0.704462 0.435351
0.270948 0.353998 0.424181
0.641769 0.348939 -0.627940
-0.074937 0.704387 0.434994
-0.081950 -0.718820 -0.259836
0.643147 0.347496 -0.627698
-0.472381 -0.719369 0.070297
0.271586 0.354366 0.421970
-0.074979 0.702466 0.435734
0.639970 -0.349596 0.075070
-0.432111 -0.327405 -0.265198
-0.066209 0.378608 0.830783
-0.079615 -0.332815 -0.623723
0.652449 -0.032211 -0.283243
-0.472095 -0.718742 0.071254
-0.099993 0.361845 -0.617450
-0.474114 -0.718962 0.071605
-0.076607 0.703020 0.436849
0.269299 -0.358892 0.435647
-0.770950 0.360605 0.085746
0.640235 -0.350404 0.074293
0.625392 -0.722231 -0.263466
0.271823 -0.733176 -0.616407
0.260360 0.702091 0.072726
0.267729 -0.361004 0.437494
0.638070 -0.352297 -0.645884
-0.794884 0.002456 -0.294716
-0.418171 0.005843 0.782293
-0.424374 0.706457 0.095492
0.641454 -0.350068 0.073703
-0.408860 0.341158 0.418381
