OFF
256 0 0
-0.117031 0.308596 -0.706991
-0.094434 -0.692880 0.285348
-0.091990 -0.362412 0.643927
-0.432943 0.277982 -0.343423
-0.087514 -0.363977 -0.731705
-0.775038 -0.350207 -0.011912
-0.426338 -0.336010 -0.366312
-0.799742 0.293446 -0.052194
0.206041 -0.035215 -0.695331
-0.435764 -0.036357 -0.697748
0.555710 -0.393187 0.641036
-0.784179 -0.036825 -0.358021
0.238280 -0.729493 -0.053363
-0.088715 -0.365036 -0.728701
-0.088899 -0.366821 -0.731538
-0.123360 -0.704072 -0.379598
0.565532 0.305294 -0.699658
-0.427029 -0.338149 -0.366001
-0.434834 -0.036063 -0.698816
-0.116746 0.307865 -0.708059
0.557643 0.296133 -0.041914
0.557000 0.297146 -0.042408
-0.438794 -0.369623 0.295311
0.557590 0.298975 -0.042143
0.208738 -0.035151 -0.697077
-0.432076 0.275976 -0.342139
-0.796534 -0.039236 0.301983
0.235847 -0.725753 0.646992
-0.117918 0.308890 -0.708691
0.244103 -0.036992 0.641916
0.230530 0.628607 -0.053451
-0.796712 -0.039108 0.303991
-0.094974 -0.692873 0.286131
-0.774748 -0.351711 -0.010431
0.599440 -0.059988 0.305149
0.553932 -0.688825 0.290010
0.215967 -0.379788 -0.365271
0.560418 0.628260 0.305137
0.230221 0.629160 -0.055613
-0.773573 -0.351664 -0.009252
0.220490 0.638333 0.638838
-0.087514 -0.365429 -0.730721
0.600942 -0.059779 0.306853
0.207354 -0.035182 -0.694445
0.231012 0.629515 -0.054084
-0.783600 -0.036662 -0.356944
-0.794823 -0.037773 0.304561
-0.797718 0.293566 -0.054019
-0.782638 -0.035764 -0.358802
0.220357 0.636842 0.639295
-0.459610 0.288442 0.285689
-0.782737 -0.034933 -0.357634
0.559747 0.627173 0.305052
-0.442623 -0.028403 0.619494
0.556985 -0.371440 -0.046409
-0.773708 -0.349751 -0.010685
-0.438244 -0.369758 0.294173
0.559516 0.627227 0.307587
0.231765 0.627068 -0.052456
0.565703 0.306875 -0.702160
-0.118120 0.307454 -0.711306
-0.121030 -0.705136 -0.380750
0.559502 0.627032 0.305208
0.235695 -0.724774 0.647621
0.231856 0.628408 -0.053146
0.230285 0.627282 -0.052822
-0.123325 -0.705562 -0.380551
0.229809 0.628280 -0.051403
-0.775992 -0.350758 -0.010198
0.584094 0.659237 -0.370770
-0.798500 0.296268 -0.052654
0.602291 -0.059496 0.305458
-0.124159 -0.705255 -0.379944
0.554913 0.286856 0.642570
0.214828 -0.381664 -0.365586
0.559450 -0.018811 -0.365466
0.559602 -0.019651 -0.365368
-0.442954 -0.028246 0.618111
0.558756 0.295208 -0.042789
-0.460720 0.290652 0.287850
-0.459216 0.287488 0.285116
-0.799310 0.295911 -0.053753
-0.774653 -0.352642 -0.011732
0.559509 -0.015502 -0.364247
0.558815 -0.372281 -0.045380
-0.795754 -0.037676 0.303171
-0.095240 0.635824 0.289833
-0.441567 0.644375 -0.023625
0.557787 0.297333 -0.041797
0.234345 -0.725704 0.646735
0.230301 0.628063 -0.052971
-0.091194 -0.362660 0.645199
0.559294 -0.017156 -0.365217
0.583574 0.656826 -0.368357
0.216804 -0.381227 -0.363683
-0.440106 -0.027925 0.619470
-0.425492 -0.335280 -0.368897
0.559036 -0.017845 -0.365560
0.561579 0.627225 0.306032
0.600350 -0.059534 0.303556
0.244505 -0.036839 0.641978
-0.093196 -0.363822 0.646083
0.218377 -0.381399 -0.363298
-0.097713 -0.691918 0.286120
-0.431437 -0.036790 -0.698565
0.601701 -0.057751 0.305408
-0.122899 -0.703828 -0.380230
0.599646 -0.060280 0.303998
0.584176 0.659060 -0.370250
-0.458411 0.288308 0.286223
-0.097558 0.642286 -0.369732
-0.433720 0.275407 -0.342448
0.560550 -0.017770 -0.366497
0.245089 -0.036855 0.641487
0.224030 0.644271 -0.707595
0.602289 -0.058141 0.304656
-0.096198 0.635281 0.291053
0.556219 0.286126 0.641590
0.553632 -0.689776 0.289017
-0.443150 -0.028469 0.619259
-0.442719 -0.028893 0.619519
-0.124650 -0.704662 -0.380229
-0.427275 -0.337560 -0.369931
0.557805 -0.392091 0.640932
0.561776 0.625556 0.306077
-0.094980 0.635092 0.289566
0.552683 -0.688361 0.288897
-0.437508 -0.704081 -0.029900
0.560267 -0.016078 -0.365587
0.560407 0.627875 0.306465
-0.460719 0.288926 0.285251
-0.775089 -0.351065 -0.010812
0.600888 -0.059026 0.304078
-0.425244 -0.338476 -0.368508
-0.087938 -0.365158 -0.731420
0.567418 0.308625 -0.698892
-0.096135 -0.693318 0.285690
0.557288 -0.371971 -0.045971
0.554855 -0.688213 0.289162
0.234332 -0.725075 0.645663
0.224278 0.644872 -0.707192
-0.796344 -0.037764 0.303516
0.584054 0.657044 -0.371083
0.224477 0.645693 -0.706254
0.244737 -0.036861 0.642379
0.234764 -0.724732 0.646311
-0.431390 0.277830 -0.343781
-0.774148 -0.349994 -0.011117
-0.433979 -0.036292 -0.697766
0.230004 0.627790 -0.053491
0.557449 0.297927 -0.041658
-0.092911 -0.361412 0.645918
0.208785 -0.035204 -0.696412
0.207074 -0.034829 -0.694773
0.561017 0.628552 0.306246
0.206741 -0.036127 -0.696498
-0.095251 -0.693617 0.285518
-0.118365 0.307313 -0.707042
-0.426798 -0.337304 -0.368326
0.554768 -0.687275 0.289879
-0.785281 -0.036532 -0.358720
-0.116688 0.310500 -0.708264
0.555402 0.288759 0.642715
0.216591 -0.381892 -0.363802
-0.459929 0.288211 0.285117
-0.096437 -0.693223 0.283928
-0.122865 -0.704420 -0.381273
0.224749 0.646505 -0.707299
0.555313 0.288510 0.642416
0.229225 0.628069 -0.051570
0.558090 0.286572 0.641125
0.209766 -0.035347 -0.694553
0.584002 0.659767 -0.370081
0.558927 -0.015943 -0.363394
-0.435810 -0.370183 0.293355
0.562713 0.627172 0.306040
0.232851 -0.726874 0.645429
-0.098931 0.284759 0.634915
-0.095859 0.636321 0.290563
-0.441878 -0.029734 0.618918
-0.091931 -0.361835 0.645175
0.553886 -0.394947 0.640764
0.566315 0.308079 -0.699631
0.221606 0.637126 0.639106
0.245889 -0.037304 0.642822
-0.117272 0.308811 -0.707209
0.559483 0.627144 0.305278
-0.123582 -0.705617 -0.382825
0.559176 0.297706 -0.042212
0.556120 0.288461 0.642389
0.556420 -0.371744 -0.045755
0.559656 0.297620 -0.043641
-0.800048 0.291886 -0.054336
-0.783311 -0.035604 -0.358813
0.582908 0.658879 -0.368539
0.555875 -0.392622 0.639265
0.207701 -0.037060 -0.693478
0.565847 0.306100 -0.703248
0.560054 0.296338 -0.041662
-0.441565 -0.030324 0.620703
0.556920 -0.391972 0.639914
-0.459999 0.288420 0.285470
0.234775 -0.726222 0.647026
-0.794762 -0.038864 0.303010
-0.442040 -0.029114 0.620203
0.208446 -0.034407 -0.697295
0.238815 -0.730090 -0.052436
-0.123297 -0.705383 -0.380986
-0.097358 -0.694484 0.285760
-0.432018 0.276650 -0.339855
-0.795941 -0.038807 0.303518
-0.091078 -0.362434 0.644063
-0.440200 0.645757 -0.026414
-0.440731 0.643944 -0.026391
0.601180 -0.059129 0.306067
0.555563 0.287409 0.641591
-0.439802 -0.026989 0.619131
0.555143 0.286181 0.641066
-0.797424 0.294776 -0.052418
0.582886 0.658217 -0.369608
0.560881 0.626902 0.304793
-0.117159 0.308622 -0.706933
0.243701 -0.037587 0.641695
0.238037 -0.730915 -0.052894
0.560558 -0.016670 -0.365764
-0.460203 0.287774 0.285174
0.238824 -0.729393 -0.051934
0.562167 0.628736 0.306131
-0.087417 -0.366493 -0.730315
-0.783124 -0.036941 -0.357751
0.238875 -0.728965 -0.051500
-0.442509 -0.029041 0.619914
-0.098433 0.285192 0.634768
-0.797986 0.294884 -0.053179
-0.440086 -0.027872 0.620259
-0.796148 -0.039403 0.302319
0.556858 -0.370240 -0.046779
-0.461897 0.287306 0.284566
-0.441202 -0.027538 0.618864
-0.797266 -0.038651 0.301756
-0.774646 -0.350991 -0.009873
0.601601 -0.061130 0.305740
-0.440078 -0.370300 0.296044
-0.085588 -0.365245 -0.731939
-0.782348 -0.035819 -0.356276
0.556598 -0.392945 0.641154
0.556903 -0.392812 0.638940
0.556969 -0.371477 -0.045308
-0.437292 -0.702021 -0.030933
-0.800424 0.293665 -0.054558
-0.782893 -0.039054 -0.358591
-0.432002 0.275032 -0.339853
0.223681 0.637779 0.636726
0.220985 0.638104 0.640286
0.555922 -0.369404 -0.045047
0.245163 -0.037038 0.639227
