OFF
256 0 0
0.563140 -0.047658 -0.376599
-0.098100 0.298582 0.638018
-0.454109 -0.372085 -0.394734
0.576055 0.644385 -0.390740
0.241832 -0.731961 -0.057649
0.254066 0.656818 -0.041621
-0.771007 -0.058757 0.320814
-0.453343 -0.372442 -0.395962
0.564522 0.313664 0.658586
-0.086610 0.652697 0.304441
-0.462715 0.305896 -0.374201
0.559641 -0.017559 0.310642
-0.429394 -0.064535 0.641826
-0.452224 0.662313 -0.038383
0.560644 -0.017595 0.311796
-0.134109 -0.745693 -0.372044
-0.428660 0.304043 0.302143
-0.108129 -0.378509 -0.714112
-0.452009 0.661447 -0.037225
0.571866 0.315163 -0.046411
-0.096187 0.299318 0.637177
-0.780586 0.279869 -0.011715
0.565477 -0.046615 -0.376099
0.568045 0.304450 -0.710585
0.565914 -0.705613 0.310977
0.564767 -0.048742 -0.376480
0.216173 -0.037648 -0.704649
-0.782694 0.278175 -0.012451
-0.108093 -0.378908 -0.716100
-0.097323 -0.708461 0.280323
0.563190 -0.706850 0.312199
0.574244 0.645666 -0.390736
0.225564 -0.713530 0.649292
0.254232 0.656852 -0.041299
0.552511 -0.390613 -0.042385
0.223277 0.667444 -0.710704
0.218976 -0.038183 -0.705205
-0.094675 -0.707523 0.278758
-0.423522 -0.374877 0.285027
-0.784184 -0.031593 -0.383341
-0.098259 0.301150 0.636578
0.229930 -0.385916 -0.385506
0.576613 0.642045 -0.390250
0.217090 -0.038595 -0.704284
-0.107944 -0.378133 -0.712246
-0.782340 0.278255 -0.012449
0.240418 -0.734501 -0.058213
0.238108 -0.022529 0.669210
-0.101062 -0.369394 0.652542
-0.135183 -0.747014 -0.373214
-0.426664 -0.375079 0.284882
0.565365 -0.705714 0.311526
0.229714 -0.385448 -0.384824
-0.781939 0.281573 -0.011334
-0.452514 -0.043435 -0.726158
0.241846 -0.734264 -0.058780
-0.452469 0.663178 -0.039584
-0.087809 0.652532 0.305067
0.256397 0.655999 -0.043977
0.574693 0.644487 -0.389401
0.564672 0.312902 0.658387
-0.459600 0.304948 -0.373914
-0.452341 0.659928 -0.035301
-0.790385 -0.393692 -0.044849
-0.771190 -0.058350 0.321060
-0.460286 -0.724532 -0.032751
0.565988 -0.048145 -0.375336
0.242536 -0.731324 -0.058378
0.551237 -0.389151 -0.041801
0.231506 -0.384454 -0.384427
0.571374 0.313834 -0.047491
0.225352 -0.712479 0.649170
0.571940 0.315097 -0.046700
-0.106135 0.651659 -0.366681
-0.458678 -0.723457 -0.033139
-0.454095 -0.371372 -0.393141
-0.461321 0.307460 -0.374492
0.254501 0.658040 0.667785
-0.459089 -0.723451 -0.032686
-0.085584 0.652812 0.306906
-0.426669 -0.374180 0.284143
-0.088562 0.650512 0.305255
0.254158 0.655816 0.668264
-0.771411 -0.059914 0.322746
0.565307 0.313188 0.658932
0.254665 0.653077 -0.041097
0.560484 -0.373751 0.655466
0.564392 -0.706919 0.311589
0.254679 0.656049 0.670208
0.560866 -0.017952 0.312064
0.560111 -0.374097 0.655855
0.242230 -0.733590 -0.057062
-0.770923 -0.059122 0.318906
0.236824 -0.020818 0.669677
-0.097812 0.300092 0.639072
0.239862 -0.732653 -0.057829
-0.768380 -0.059511 0.321169
-0.454630 -0.370641 -0.395646
-0.452753 -0.042954 -0.726440
-0.425118 -0.375760 0.286679
-0.087562 0.651645 0.304608
-0.105639 0.652869 -0.364288
-0.123624 0.333329 -0.737997
-0.455142 -0.043873 -0.726560
0.240082 -0.733824 -0.058827
-0.429446 -0.063213 0.640454
-0.107874 -0.377313 -0.716833
0.253077 0.656030 0.669256
-0.459124 -0.724524 -0.033255
-0.452244 -0.370187 -0.394945
0.223023 0.667840 -0.709791
-0.461137 0.304946 -0.373343
-0.451971 0.662868 -0.039206
-0.095934 -0.706753 0.277951
-0.454720 -0.042608 -0.724108
-0.791480 -0.395182 -0.046925
-0.108295 -0.377765 -0.716544
-0.451567 0.662325 -0.039353
-0.780734 0.280131 -0.012648
0.580931 0.645343 0.313406
0.575468 0.645388 -0.388815
0.566775 -0.049221 -0.375921
0.573443 0.315372 -0.046320
0.552809 -0.390940 -0.041060
0.569049 0.302937 -0.711762
-0.098523 0.297523 0.639605
-0.458887 -0.724434 -0.032496
0.560326 -0.372535 0.658765
-0.087011 0.650755 0.306251
-0.453128 0.660765 -0.037141
-0.096475 -0.706324 0.279437
0.241885 -0.734003 -0.057728
0.230093 -0.384358 -0.384679
-0.104404 -0.370297 0.650150
0.564822 0.313871 0.659176
-0.430543 -0.061388 0.640050
0.565039 -0.705539 0.312545
-0.425615 -0.375195 0.284815
-0.121827 0.334682 -0.736681
-0.103036 -0.369081 0.652381
0.566891 0.313322 0.660917
0.582662 0.644121 0.313335
0.582409 0.643570 0.313982
-0.430536 0.304540 0.302663
-0.453014 -0.042674 -0.725599
-0.459706 -0.723258 -0.033594
0.255446 0.654160 -0.043101
0.252907 0.655647 0.668630
0.572657 0.314022 -0.048021
0.228955 -0.385872 -0.384332
-0.108348 -0.377573 -0.713219
0.215329 -0.037757 -0.706459
0.559681 -0.018541 0.312128
-0.460572 -0.724960 -0.032905
0.223032 0.668371 -0.711921
0.256108 0.656305 0.669296
-0.452641 -0.372201 -0.395378
0.222915 0.666083 -0.710712
0.574704 0.644240 -0.388457
0.230563 -0.384436 -0.385603
-0.452806 -0.372060 -0.394118
-0.790581 -0.393764 -0.045082
0.254969 0.655214 -0.042539
0.582300 0.643967 0.314680
0.563435 0.312936 0.659721
-0.461765 0.306014 -0.373889
-0.786893 -0.031832 -0.384409
0.552621 -0.389774 -0.041407
-0.087022 0.651093 0.305553
0.243037 -0.731647 -0.057092
0.222396 0.665738 -0.710409
0.550806 -0.388381 -0.042527
-0.452963 -0.372750 -0.394207
0.215949 -0.037510 -0.706272
-0.107933 -0.378775 -0.715851
-0.136204 -0.748162 -0.372770
-0.095696 -0.706486 0.280584
0.229201 -0.384594 -0.383013
-0.109022 -0.377446 -0.714819
-0.431578 0.305737 0.303546
0.561518 -0.017729 0.311111
0.564267 -0.707318 0.309815
-0.088388 0.651739 0.306377
-0.096733 -0.705700 0.279076
0.231501 -0.385227 -0.384135
-0.122160 0.332137 -0.739043
-0.105897 0.652518 -0.366794
0.559558 -0.373241 0.655074
0.255103 0.655570 -0.044329
-0.460664 -0.722487 -0.031059
0.568625 0.303507 -0.711287
-0.454143 -0.043391 -0.726449
0.223163 0.666826 -0.711956
0.583187 0.642478 0.312114
-0.781509 0.279837 -0.012080
0.565409 -0.049003 -0.375767
0.582321 0.644197 0.312564
-0.460772 0.307260 -0.375981
0.222471 0.665301 -0.709040
-0.429276 -0.062236 0.639457
-0.430682 -0.062776 0.642743
0.577170 0.644426 -0.390620
-0.102537 -0.370794 0.651140
0.559693 -0.374852 0.654554
0.574543 0.644859 -0.389892
-0.779655 0.281026 -0.010611
0.564760 -0.706077 0.312988
0.224884 -0.710723 0.649841
0.255531 0.656801 -0.042503
0.559120 -0.374458 0.657333
-0.459638 -0.722931 -0.034107
-0.136615 -0.747271 -0.371424
0.570383 0.315205 -0.045310
-0.770089 -0.058096 0.318704
-0.784074 -0.032204 -0.382974
-0.452223 -0.041793 -0.726485
0.572183 0.313353 -0.046285
-0.098438 0.300498 0.638470
0.565211 -0.047569 -0.376677
-0.769739 -0.059296 0.320530
0.584393 0.642569 0.314275
-0.455867 -0.043570 -0.725225
0.558826 -0.373686 0.654842
0.569913 0.304416 -0.708225
0.569775 0.304612 -0.709972
-0.103362 0.653745 -0.365045
0.566974 -0.048141 -0.376636
0.218587 -0.038126 -0.705147
-0.122624 0.333382 -0.735680
0.551787 -0.389991 -0.041199
-0.095002 -0.707057 0.276564
0.575417 0.644772 -0.389975
0.565712 -0.047794 -0.375662
0.236544 -0.022199 0.671166
-0.453862 -0.370541 -0.395607
0.567565 -0.048059 -0.377135
-0.790388 -0.394829 -0.044812
-0.109219 -0.378848 -0.716323
0.242326 -0.732902 -0.056772
0.572342 0.644673 -0.389839
-0.101735 -0.369485 0.652463
0.552016 -0.388534 -0.042633
-0.769975 -0.059420 0.319441
0.229678 -0.384138 -0.386025
0.230440 -0.384624 -0.385973
0.580855 0.644772 0.315195
0.575331 0.643659 -0.389892
-0.771742 -0.058527 0.319975
0.572102 0.315583 -0.047293
-0.088038 0.651924 0.306165
-0.453444 -0.371389 -0.396014
-0.454137 -0.042789 -0.726092
-0.781739 -0.032368 -0.383963
-0.791407 -0.396684 -0.044685
-0.770837 -0.059361 0.320054
-0.430467 0.304311 0.303901
