OFF
256 0 0
-0.777006 -0.017444 0.296553
-0.460636 -0.021250 -0.721404
-0.107841 0.286327 0.649904
0.202820 0.646969 -0.691617
0.576083 -0.061227 -0.369183
-0.787254 0.279838 -0.032551
-0.778183 -0.017364 0.296197
0.233893 0.614180 -0.041375
0.579040 -0.355172 0.634614
-0.090499 0.289690 -0.672476
0.568664 -0.381999 -0.034236
0.217912 0.644508 0.618215
0.571112 0.630817 0.280956
0.560927 0.302832 0.616020
0.575920 0.283973 -0.051356
0.574764 0.645798 -0.381435
0.581868 -0.356346 0.637045
0.205045 -0.712947 -0.037804
0.216882 0.641827 0.616738
-0.091186 -0.367916 0.638079
0.561901 -0.046453 0.277146
-0.113945 -0.732758 0.302859
0.205260 -0.712505 -0.036667
-0.786167 0.280172 -0.032671
-0.407582 -0.332641 -0.349186
0.551746 0.307095 -0.708503
-0.778561 -0.016620 0.296464
-0.089649 -0.369811 0.636621
-0.443432 0.296290 -0.342504
-0.441672 -0.706572 -0.035024
0.572595 0.629850 0.281355
-0.778761 -0.017557 0.296906
-0.090314 -0.369135 0.637199
0.552353 0.308932 -0.710695
-0.119396 0.658181 0.287298
0.551083 0.308622 -0.710692
-0.443134 0.296023 -0.342015
0.572243 -0.696760 0.286703
-0.442277 0.296361 -0.341785
-0.090366 -0.366971 0.638065
-0.442704 0.295663 -0.342122
-0.116622 -0.734240 0.304675
-0.116990 -0.365357 -0.705521
-0.092232 0.290723 -0.672165
-0.115210 0.660440 -0.350959
0.577547 -0.061029 -0.370108
-0.440879 -0.704911 -0.035878
-0.443709 0.294300 -0.342395
-0.454677 0.634497 -0.031790
0.575171 0.645969 -0.381609
0.580541 -0.353846 0.636871
-0.777373 -0.017838 0.296489
0.232712 0.616692 -0.040677
0.572449 -0.694164 0.288108
0.562100 0.302681 0.615462
0.224717 -0.043014 0.620158
0.224004 -0.042496 0.620117
-0.457160 0.636472 -0.032335
0.202161 0.646946 -0.692092
0.562345 -0.045783 0.276547
-0.775321 -0.019058 0.298017
-0.455700 0.636600 -0.030758
0.574090 -0.696499 0.287151
-0.117765 -0.680201 -0.360048
-0.118514 0.656692 0.288497
0.220960 0.644137 0.616786
0.580309 -0.355816 0.635204
0.574372 0.644225 -0.384106
0.205966 -0.713841 -0.037352
-0.412168 -0.332188 -0.348902
0.575889 0.647324 -0.382197
-0.460821 -0.022255 -0.720413
-0.409740 -0.330613 -0.348028
-0.092625 -0.367269 0.637255
0.569147 -0.382311 -0.034592
0.234053 0.615909 -0.044082
0.204973 -0.714181 -0.037051
-0.409458 -0.332016 -0.346448
0.234400 -0.725469 0.645602
-0.435687 -0.048791 0.636305
0.233303 0.616248 -0.042746
0.203497 0.648859 -0.691028
0.231140 -0.053524 -0.686698
0.575421 0.646224 -0.382368
0.234704 -0.726015 0.644516
-0.414516 -0.359063 0.290596
-0.106694 0.285498 0.649186
-0.787600 0.280156 -0.032055
-0.415232 -0.359393 0.291479
-0.116651 -0.365643 -0.706912
-0.457224 0.637024 -0.031153
-0.106577 0.287184 0.650722
-0.777017 -0.017403 0.295572
0.235240 -0.726745 0.644776
0.571407 -0.697257 0.285327
-0.435119 -0.047211 0.636226
0.234443 -0.727863 0.644012
-0.414796 -0.357209 0.290079
-0.775602 -0.019102 0.297787
0.577805 -0.062695 -0.371905
0.568812 -0.380965 -0.033538
-0.114884 0.660798 -0.349466
-0.119132 0.654408 0.288411
-0.092410 0.290190 -0.673256
0.204421 0.648760 -0.691862
0.234430 -0.727751 0.643571
0.571208 0.631641 0.280911
0.232386 0.615100 -0.040348
-0.440534 -0.706483 -0.034489
-0.444212 0.296132 -0.341861
0.575007 0.644917 -0.381785
-0.786776 0.280516 -0.033026
-0.410782 -0.332728 -0.348785
0.203641 0.649218 -0.690624
-0.106181 0.286456 0.650461
0.202361 0.647294 -0.690997
-0.121466 0.655687 0.287732
-0.774321 -0.372203 -0.034049
0.569941 -0.381953 -0.035257
-0.459914 -0.019802 -0.720056
0.551848 0.307943 -0.711792
0.572467 -0.696097 0.284613
-0.452838 0.637007 -0.032528
0.561799 0.303592 0.615647
0.571903 0.629736 0.281526
-0.114201 -0.367146 -0.707412
-0.774295 -0.374063 -0.037133
0.232965 0.615590 -0.042006
0.575673 0.646065 -0.383031
-0.777186 -0.019770 0.297744
0.219141 0.644091 0.617137
0.231717 -0.054257 -0.686279
-0.434551 -0.047427 0.636373
-0.120191 0.657331 0.289057
0.235244 -0.729565 0.644449
-0.772974 -0.374212 -0.035875
-0.459815 -0.021072 -0.721586
0.230763 -0.052491 -0.685810
-0.786151 0.280935 -0.033538
-0.107725 0.286470 0.649967
0.571729 -0.696136 0.285168
0.206017 -0.712894 -0.035880
-0.442409 0.294742 -0.342738
-0.776224 -0.017673 0.295083
-0.118677 -0.364593 -0.705734
0.570012 -0.697671 0.287067
-0.460523 -0.021704 -0.721971
0.575655 0.645671 -0.382848
-0.414180 0.289439 0.273665
-0.414922 -0.358381 0.289021
-0.785082 0.278837 -0.032723
0.551309 0.308427 -0.711876
0.203165 0.648284 -0.688157
-0.091763 0.289670 -0.673566
0.577642 -0.062407 -0.370582
-0.088593 -0.368875 0.637087
-0.440528 -0.706873 -0.035872
-0.773116 -0.373811 -0.035789
-0.113467 -0.732144 0.302965
-0.786698 0.280613 -0.033786
0.562236 -0.045599 0.278029
0.570463 -0.383827 -0.036944
-0.115751 0.660520 -0.350584
-0.409599 -0.331239 -0.347716
-0.779617 -0.030338 -0.361210
0.219351 -0.365093 -0.344793
-0.117150 -0.678131 -0.362635
-0.434776 -0.048227 0.635250
-0.113590 -0.733449 0.302699
0.571729 0.631092 0.278726
0.561803 -0.045678 0.278033
-0.114872 -0.732783 0.304752
-0.435545 -0.047768 0.638102
-0.785902 0.280731 -0.033658
0.561318 -0.045636 0.280064
0.571079 -0.381956 -0.034881
-0.780765 -0.029837 -0.363532
0.563988 -0.046347 0.276120
-0.107857 0.286286 0.648210
-0.414658 -0.356155 0.291085
0.202293 0.647594 -0.690314
0.561709 -0.044732 0.278653
-0.444699 0.295703 -0.341442
-0.453110 0.638426 -0.031101
-0.092103 0.290862 -0.674821
0.571238 -0.381827 -0.035920
0.219382 0.641649 0.616261
-0.432670 -0.047621 0.634737
-0.459500 -0.022744 -0.720030
-0.413659 0.291151 0.275167
-0.407951 -0.332647 -0.348233
-0.786120 0.279487 -0.033983
-0.118821 0.655052 0.287145
0.571466 0.631135 0.281880
0.233261 0.616007 -0.041350
-0.415580 -0.359422 0.291164
-0.091628 -0.368207 0.635372
-0.780424 -0.031058 -0.365733
-0.107836 0.285314 0.648022
-0.781219 -0.030272 -0.363147
-0.440545 -0.706915 -0.035742
-0.455873 0.636064 -0.030235
0.574558 0.282906 -0.052351
-0.091592 0.289866 -0.673969
-0.409467 -0.334434 -0.347798
0.203658 -0.712830 -0.036189
-0.788031 0.282835 -0.033158
-0.456370 0.636478 -0.030057
-0.454818 0.637332 -0.031603
-0.408682 -0.332700 -0.349193
-0.107396 0.286650 0.649973
-0.443021 0.294185 -0.342063
0.578075 -0.061406 -0.372033
-0.434255 -0.047452 0.637628
-0.115798 -0.368199 -0.706770
0.571409 -0.381011 -0.033081
0.204606 -0.714647 -0.037590
0.581787 -0.354562 0.636125
0.562927 -0.044027 0.277996
-0.114002 0.659825 -0.351639
-0.409758 -0.333230 -0.348894
-0.116727 -0.678437 -0.362645
0.577699 -0.062254 -0.369315
-0.120684 0.654410 0.288739
-0.118775 0.655463 0.289927
-0.780248 -0.030557 -0.362169
0.552569 0.307800 -0.710761
-0.116366 -0.365578 -0.707086
0.224176 -0.042889 0.619414
0.580652 -0.355392 0.636199
-0.773844 -0.373168 -0.037108
0.575778 0.644939 -0.383039
0.562025 -0.046054 0.276662
0.202324 0.649854 -0.690041
0.569853 -0.381393 -0.033635
0.553009 0.307080 -0.710733
-0.115681 0.662807 -0.350750
-0.774184 -0.373845 -0.036762
-0.410126 -0.332115 -0.347294
-0.461066 -0.020623 -0.721066
-0.784927 0.279355 -0.033378
-0.460304 -0.020623 -0.720517
-0.413234 0.291776 0.274600
0.204286 -0.714091 -0.036512
0.571534 0.631207 0.281348
-0.439505 -0.705429 -0.035714
-0.117470 0.654325 0.290008
-0.120633 0.655729 0.289254
0.551039 0.308337 -0.709964
-0.411215 -0.333091 -0.349253
0.576939 -0.061741 -0.370827
-0.115998 -0.367907 -0.707829
-0.116750 0.662904 -0.351669
0.218429 -0.364048 -0.343428
0.570063 -0.383832 -0.035751
0.575038 0.647113 -0.381817
