OFF
256 0 0
-0.683226 0.240945 0.066518
-0.704213 -0.394296 0.071453
0.696402 -0.407294 0.068443
0.009987 -0.429564 -0.625404
-0.386169 -0.768516 0.078783
0.373226 0.627260 0.086969
0.669325 0.244921 0.054731
0.006434 0.274153 -0.621761
0.357144 0.277772 0.441021
0.013248 0.610415 -0.265925
-0.711143 -0.054323 0.429082
0.005009 -0.437777 0.778510
0.010669 -0.426557 -0.625636
-0.709082 -0.096556 -0.282954
0.356408 0.277853 0.442066
-0.361079 -0.085763 0.798693
-0.682078 0.242836 0.067175
-0.705520 -0.391970 0.074041
-0.706422 0.288962 -0.648009
0.348773 -0.089166 0.797717
0.342880 0.641870 -0.632628
-0.703372 0.288456 -0.649285
-0.334840 0.617340 0.089744
0.357906 0.278606 0.441135
-0.708253 -0.098051 -0.282387
-0.712447 -0.053219 0.426512
0.004916 -0.438050 0.777649
0.372362 0.626156 0.084927
0.706025 0.279907 -0.632217
0.006650 0.272917 -0.621717
0.696756 -0.074443 0.432131
-0.333316 -0.063359 -0.615452
0.000969 0.617928 0.433290
-0.704316 0.289911 -0.648661
0.012067 0.611068 -0.264625
0.692210 0.616836 -0.292894
0.009685 0.274448 -0.621562
0.000073 0.620335 0.432198
0.342466 0.640739 -0.634568
0.009812 -0.426926 -0.624163
-0.711087 -0.053534 0.430108
0.697034 -0.406871 0.069876
-0.712329 -0.053122 0.428481
0.340934 0.639322 -0.633532
0.004304 -0.434731 0.776938
0.010731 -0.792102 -0.253441
0.007680 0.272224 -0.621608
-0.339994 0.249136 0.429258
0.336311 -0.420068 0.421312
-0.338571 0.248537 0.428566
0.001976 0.617774 0.431333
0.336020 -0.419586 0.422659
-0.710469 -0.096049 -0.280906
0.371771 0.626892 0.087539
0.009986 0.274182 -0.621093
-0.000306 0.261378 0.791739
-0.001186 -0.777241 0.436239
0.004759 -0.435470 0.777001
0.370747 0.628911 0.087270
-0.702947 -0.392591 0.072893
0.011771 -0.792798 -0.254968
0.347671 -0.091199 0.798185
-0.335018 -0.062047 -0.616144
0.670199 0.245979 0.055264
0.362882 -0.083722 -0.635522
-0.704918 0.291839 -0.648372
-0.709082 -0.096759 -0.282442
-0.332217 -0.062518 -0.615229
-0.359511 -0.084004 0.797183
0.343105 0.641232 -0.634536
-0.352977 -0.440306 -0.278901
-0.359395 -0.085573 0.796237
0.357005 0.276706 0.441914
0.342323 0.638970 -0.632893
-0.333446 -0.063337 -0.616060
0.337391 -0.418512 0.423178
-0.386371 -0.769105 0.080678
-0.351637 -0.413834 0.426150
-0.333460 -0.063849 -0.616659
0.697316 -0.408385 0.070647
-0.350622 -0.415678 0.427328
0.696762 -0.072826 0.432571
0.356621 0.279837 0.440736
-0.349839 -0.439452 -0.279582
-0.350598 -0.416740 0.427063
-0.003475 -0.778316 0.437419
0.337898 -0.428793 -0.253677
-0.332253 -0.062755 -0.614937
0.335778 -0.419282 0.422938
0.669744 0.245374 0.055910
0.010237 -0.427946 -0.624321
0.013013 0.610842 -0.266569
-0.002231 0.260536 0.791445
0.006112 -0.436751 0.777671
-0.360389 -0.086398 0.797847
0.008568 -0.427250 -0.626222
0.344101 0.640896 -0.633161
-0.337988 0.249022 0.427429
-0.684407 0.241730 0.066056
-0.350972 -0.415961 0.427736
-0.714337 -0.053457 0.429053
0.692222 0.618095 -0.292799
0.000619 0.260278 0.790191
0.008312 0.273737 -0.621011
-0.351176 -0.439182 -0.279935
0.372282 0.626090 0.086837
0.356511 0.279451 0.440687
-0.360249 -0.086464 0.797739
-0.705490 -0.393472 0.072619
0.690391 0.616211 -0.291952
0.347961 -0.089757 0.798039
0.342677 0.639143 -0.633686
0.353020 -0.765305 0.109663
0.353089 -0.763891 0.109251
-0.385704 -0.770538 0.078933
0.338114 -0.429200 -0.255733
0.669486 0.246211 0.054482
-0.339350 0.247093 0.429197
0.008137 0.275114 -0.620398
0.004565 -0.436684 0.778769
0.011241 -0.791850 -0.254356
0.004842 -0.437116 0.778444
-0.332860 -0.062451 -0.614204
-0.696374 0.604743 -0.279804
0.012224 0.610102 -0.265891
-0.711630 -0.054826 0.428368
0.365946 -0.082920 -0.635523
0.690764 0.618228 -0.293282
-0.354991 0.639544 -0.630545
0.691837 0.616769 -0.293357
-0.335056 0.618979 0.092408
0.007492 0.274529 -0.622174
-0.002075 -0.777603 0.436613
0.364877 -0.084609 -0.634174
0.008674 0.274591 -0.619255
-0.356147 0.638149 -0.630789
-0.386184 -0.768568 0.079666
-0.702505 0.289455 -0.649970
0.009669 -0.790961 -0.253508
-0.335143 0.616484 0.090665
0.370220 0.626418 0.084581
-0.704833 -0.393162 0.071412
0.012078 -0.791511 -0.253395
0.007090 0.275734 -0.620323
0.336863 -0.419385 0.424357
0.339014 -0.427995 -0.253134
0.697431 -0.076140 0.431253
-0.684090 0.241298 0.066122
0.363925 -0.082737 -0.634591
0.010538 -0.428159 -0.625294
-0.353254 0.638745 -0.629656
-0.000487 0.259599 0.790983
0.012243 -0.791588 -0.255518
-0.684387 0.239657 0.066360
0.356651 0.276435 0.441050
0.708815 0.280290 -0.632890
0.342954 0.640076 -0.632544
0.007173 0.273232 -0.622437
-0.707972 -0.096246 -0.280883
0.699933 -0.076213 -0.293812
-0.358818 -0.084854 0.798795
0.003482 -0.435396 0.780098
-0.333000 -0.062582 -0.615687
0.357561 0.278229 0.439198
0.349953 -0.090638 0.797409
-0.351663 -0.438729 -0.279981
-0.336774 0.618022 0.091687
0.364825 -0.084068 -0.633824
0.692474 0.617725 -0.292954
-0.001533 -0.779389 0.437077
-0.682775 0.242265 0.065563
0.365342 -0.082859 -0.633388
-0.335976 0.618968 0.090098
-0.355429 0.640000 -0.631089
-0.338422 0.250110 0.426481
0.699936 -0.075744 -0.294063
0.004681 -0.435484 0.777300
-0.000507 0.261645 0.790071
0.007284 0.274226 -0.620913
0.355867 0.278712 0.440551
-0.357710 -0.086175 0.798961
0.690067 0.616137 -0.291595
0.348689 -0.090380 0.795791
0.005169 -0.437232 0.779416
0.012064 0.609333 -0.265859
-0.338345 0.249706 0.428976
0.363653 -0.083658 -0.633383
0.669791 0.245208 0.056107
-0.337832 0.246613 0.428414
0.337227 -0.428277 -0.254903
-0.001553 -0.778503 0.437440
-0.703618 -0.393736 0.073295
0.357917 0.278190 0.440476
-0.351380 -0.438262 -0.278249
-0.704375 -0.392868 0.074237
0.006814 0.273449 -0.620671
0.336344 -0.417919 0.423229
-0.709878 -0.096604 -0.279974
-0.386567 -0.767359 0.080026
-0.352958 -0.415647 0.427511
0.336992 -0.419325 0.421944
0.338156 -0.428532 -0.254766
-0.338554 0.248933 0.426876
0.707478 0.282111 -0.631624
0.013911 0.612386 -0.264478
-0.352052 -0.417625 0.427544
-0.335179 0.618978 0.091744
-0.684389 0.240617 0.066464
0.699914 -0.076084 -0.293567
0.672211 0.245634 0.053772
-0.337209 0.616991 0.092348
0.698637 -0.073874 0.430776
0.357201 0.277653 0.440300
-0.354486 0.637728 -0.631339
-0.336538 0.618714 0.090732
0.336475 -0.419863 0.422892
0.007140 0.273718 -0.621318
-0.354903 0.638546 -0.632146
0.372154 0.625642 0.088201
-0.684084 0.241738 0.066588
-0.358991 -0.087144 0.796708
-0.335101 0.618538 0.091035
0.699128 -0.075609 0.432009
0.363640 -0.082241 -0.634745
0.697876 -0.408281 0.071840
0.347129 -0.089103 0.797717
-0.359515 -0.087528 0.796249
0.009140 -0.428450 -0.624880
-0.351952 -0.414737 0.426901
-0.354077 0.639487 -0.630453
0.008123 0.275350 -0.620522
0.695089 -0.407844 0.069275
0.006327 -0.437532 0.778211
0.697950 -0.074806 0.432168
0.696069 -0.075108 0.432471
-0.350744 -0.438643 -0.278658
0.002653 -0.436435 0.777534
0.012119 -0.789954 -0.254391
0.697320 -0.409772 0.069370
-0.353398 0.638408 -0.631060
-0.709116 -0.097834 -0.282255
-0.705261 -0.393802 0.071092
0.339560 -0.428160 -0.253470
-0.704898 0.290675 -0.648872
-0.703244 -0.393938 0.073367
0.008343 0.274765 -0.619213
0.007300 0.274471 -0.621074
-0.337052 0.617610 0.091189
0.000719 0.617107 0.432811
-0.358391 -0.085448 0.798006
0.708376 0.279134 -0.632553
0.002423 -0.437375 0.778251
0.356873 0.278129 0.442410
0.339532 -0.430311 -0.255371
0.706457 0.281388 -0.634817
0.364316 -0.083806 -0.634197
