OFF
256 0 0
-0.020199 -0.777386 -0.271026
-0.357844 0.628542 0.087167
-0.357795 0.628635 0.086393
-0.348087 -0.415329 -0.248389
0.336616 0.607624 -0.649032
0.689321 -0.074150 0.433054
-0.002848 -0.426145 0.795124
-0.326130 0.272463 0.418503
0.005040 0.638700 0.429254
-0.714185 -0.089113 -0.295729
0.337265 -0.769288 0.071079
0.699796 0.261319 -0.633538
0.344596 -0.073691 0.794045
0.695372 0.274197 0.083605
-0.709328 -0.402936 0.082216
-0.685526 0.259846 0.072944
0.344582 -0.074382 0.793387
0.718799 -0.078084 -0.267526
-0.017799 -0.777943 -0.268736
-0.672574 0.593090 -0.273991
0.696642 0.275020 0.081870
0.719307 -0.079637 -0.266872
-0.003879 -0.425776 0.795558
-0.714868 0.266071 -0.647292
-0.687692 0.256203 0.070126
0.717128 -0.079178 -0.268300
0.696845 0.274063 0.081631
0.697287 0.275671 0.082708
0.011678 -0.416800 -0.607902
0.702048 -0.408184 0.086272
-0.324626 0.271927 0.419316
0.005478 0.259992 -0.634529
-0.019610 -0.777029 -0.267761
-0.685931 -0.073798 0.447241
0.005355 0.639123 0.428468
0.309347 -0.415721 0.444596
0.353317 -0.409310 -0.253349
-0.346872 0.595445 -0.615781
-0.358526 0.626933 0.086456
0.000304 0.258343 0.795196
-0.689108 0.256733 0.074453
-0.344894 0.594791 -0.616298
-0.671338 0.591150 -0.272176
0.689826 -0.074785 0.433370
0.011183 -0.417758 -0.607426
0.695967 0.274829 0.081527
-0.003387 -0.426212 0.793773
-0.670983 0.592392 -0.272412
-0.687137 0.258289 0.071556
0.010092 -0.416912 -0.604643
0.005086 0.638550 0.429548
0.010553 -0.416924 -0.604465
0.005620 0.259498 -0.636535
-0.716343 -0.091141 -0.295715
0.338437 0.608178 -0.648587
0.697291 0.275290 0.080957
0.695247 0.274716 0.082474
0.718477 -0.077086 -0.267564
-0.347771 -0.413672 -0.247169
0.001718 -0.795829 0.427729
0.006674 0.260558 -0.637411
0.690468 -0.074047 0.432028
-0.713793 0.266700 -0.647997
0.007646 0.258652 -0.637123
-0.312564 -0.440308 0.413557
0.007594 0.258007 -0.637930
0.701546 0.259912 -0.633473
-0.325457 0.272089 0.418720
-0.713961 0.265094 -0.648588
0.696914 0.275886 0.080718
0.011201 -0.417578 -0.605545
-0.327879 -0.071012 0.772289
-0.004924 0.611976 -0.258972
0.002718 0.640001 0.428308
-0.716250 -0.090718 -0.294003
0.696452 0.274942 0.083126
-0.687737 -0.075044 0.445503
-0.345434 0.594730 -0.614113
-0.355132 -0.780769 0.074792
0.343067 -0.076178 0.796423
-0.687173 0.258809 0.073248
-0.354469 -0.780201 0.074165
-0.713137 0.266522 -0.647875
0.344185 0.631065 0.079124
-0.001444 -0.425334 0.794261
0.699004 0.262796 -0.632703
-0.344013 0.596139 -0.616760
0.695866 0.274164 0.079797
0.337963 0.606390 -0.647557
0.310621 -0.415937 0.445993
-0.345816 0.595919 -0.615056
-0.713237 0.264993 -0.649103
-0.712899 0.267503 -0.648767
0.352082 -0.406248 -0.252238
0.690222 -0.073894 0.434355
0.343990 -0.075134 0.795354
-0.357550 0.627284 0.085404
-0.348410 -0.413366 -0.250343
0.003396 -0.795003 0.429200
-0.687611 -0.074241 0.446018
-0.346034 -0.414516 -0.248882
-0.714226 0.265680 -0.646773
0.336916 -0.768755 0.069366
0.718805 -0.077845 -0.266878
-0.356891 0.627337 0.087922
0.005682 0.258429 -0.637669
-0.687419 0.256715 0.071835
-0.006335 0.610285 -0.259905
0.328522 0.274527 0.424138
0.338132 0.606691 -0.647999
-0.347857 -0.413640 -0.249093
0.686847 -0.075533 0.434548
0.369256 -0.074208 -0.642615
0.008200 0.258074 -0.634058
0.340136 0.605843 -0.648786
-0.349827 -0.064436 -0.634682
0.007128 0.259547 -0.634792
0.677899 0.624740 -0.296972
-0.671151 0.592016 -0.276050
-0.688527 0.257476 0.071464
0.702167 -0.406478 0.088109
-0.714320 -0.089209 -0.294464
-0.311816 -0.440840 0.411749
0.310152 -0.415605 0.444470
0.690233 -0.074459 0.432846
-0.355435 -0.781160 0.074036
0.003658 -0.794829 0.428649
0.677890 0.622924 -0.296118
0.719971 -0.080968 -0.267268
0.679407 0.621444 -0.296965
0.005136 0.638489 0.429754
-0.687028 -0.075354 0.446483
-0.019240 -0.777311 -0.270287
0.354080 -0.406721 -0.253496
-0.670574 0.592509 -0.273364
0.008727 -0.417713 -0.607435
-0.686434 0.256452 0.071523
-0.357445 0.626589 0.083424
-0.357517 0.627895 0.085085
0.343785 -0.074698 0.794713
0.001948 0.258794 0.794810
-0.717109 -0.090209 -0.293699
0.000851 0.258145 0.795168
-0.356475 -0.779443 0.075530
0.351427 -0.408903 -0.250696
0.010344 -0.417972 -0.606269
-0.685536 -0.076094 0.446533
-0.324870 -0.070901 0.772540
0.699475 0.261703 -0.632893
-0.688427 0.257333 0.071513
0.688540 -0.072582 0.433839
0.679824 0.621490 -0.296818
0.719016 -0.079303 -0.265538
0.001198 -0.795579 0.428270
0.010305 -0.418749 -0.606366
0.689127 -0.073955 0.433251
0.308689 -0.415073 0.445030
0.353169 -0.407025 -0.252752
0.342678 0.632795 0.080168
0.719939 -0.080891 -0.267331
-0.671366 0.592237 -0.271551
-0.672225 0.592000 -0.276049
0.308837 -0.417293 0.444586
0.002792 -0.796257 0.428564
-0.354662 -0.781804 0.074743
0.337973 -0.769822 0.070803
0.695648 0.277150 0.082293
-0.311998 -0.441403 0.413469
0.001429 0.638790 0.428794
-0.347326 -0.414625 -0.249951
0.688239 -0.074485 0.432677
0.344375 0.630390 0.077100
-0.687391 -0.076032 0.447380
-0.001752 -0.426247 0.793392
-0.715671 -0.090325 -0.293862
-0.311663 -0.437674 0.411592
0.699414 0.260825 -0.634230
-0.348646 -0.416454 -0.249416
-0.311924 -0.440488 0.412485
0.336275 0.609044 -0.648066
-0.708984 -0.404694 0.079669
-0.686024 0.258334 0.072176
-0.687639 0.257081 0.071623
-0.709518 -0.403290 0.080856
-0.004414 0.611560 -0.259224
0.002131 -0.796242 0.429022
0.337540 0.606843 -0.649707
-0.708233 -0.403365 0.080034
-0.356824 0.629726 0.087624
-0.324839 0.273322 0.419573
0.344466 -0.077232 0.794751
-0.686366 0.256879 0.072523
-0.344368 0.595780 -0.615852
-0.345039 0.596239 -0.616063
0.343131 0.631913 0.077101
0.696486 0.274092 0.080660
0.004331 0.640271 0.429511
0.003671 0.639226 0.428861
0.007287 0.257965 -0.635062
0.336926 0.608593 -0.649161
0.718376 -0.079566 -0.267060
-0.359382 0.627740 0.085591
-0.348050 -0.416191 -0.251189
0.329395 0.272525 0.421786
-0.687566 -0.075347 0.444702
-0.347632 -0.416047 -0.248628
0.697962 0.262254 -0.634427
-0.311475 -0.440191 0.412797
0.697057 0.275146 0.081805
-0.708239 -0.403491 0.080702
0.342434 -0.075345 0.796760
-0.716899 -0.090409 -0.295707
-0.312947 -0.439834 0.412334
0.338894 0.608060 -0.650227
-0.312314 -0.440219 0.411824
0.689062 -0.074816 0.433119
-0.324803 0.271352 0.419001
0.344686 0.631490 0.077459
0.338851 0.607678 -0.650662
-0.686911 -0.074907 0.446468
0.006261 0.259127 -0.634106
-0.325952 0.271958 0.420447
0.678094 0.623179 -0.297168
0.311426 -0.416671 0.445361
-0.003341 -0.424458 0.795319
0.008103 0.258978 -0.633546
0.004281 0.639271 0.429907
-0.345153 0.594270 -0.615598
-0.003436 -0.425209 0.795146
-0.324675 0.272511 0.417340
0.697395 0.274936 0.082366
0.699557 0.262748 -0.632848
-0.349887 -0.064104 -0.635068
-0.708064 -0.401767 0.082121
-0.005134 0.612791 -0.259371
0.003219 -0.797003 0.427327
-0.686487 -0.074740 0.447074
0.698001 0.276266 0.082284
-0.347476 -0.415545 -0.248838
-0.687706 -0.075741 0.445764
0.327205 0.273126 0.421102
-0.358522 0.627330 0.086121
0.343713 -0.075423 0.796862
0.307990 -0.416713 0.445687
-0.716567 -0.091101 -0.295217
-0.357002 0.628629 0.086114
-0.351429 -0.063807 -0.635190
-0.686187 -0.075359 0.447731
-0.686052 -0.074151 0.443707
-0.707640 -0.403516 0.081199
0.309645 -0.415711 0.447014
0.337835 0.607775 -0.648142
-0.672176 0.592770 -0.275500
0.697276 0.261544 -0.632731
0.005584 0.639800 0.429821
0.699886 0.263373 -0.633688
