OFF
256 0 0
0.211431 0.676170 -0.478727
0.258011 -0.679910 0.030838
-0.708431 -0.693858 -0.007476
0.213478 0.676972 -0.478292
0.714606 0.701693 -0.018497
-0.201594 0.244148 0.451452
-0.220004 -0.667797 0.443666
0.684460 0.245705 -0.475106
-0.236275 -0.680812 -0.440116
0.684824 0.244426 -0.476983
0.712481 0.702661 -0.017372
0.713981 0.701790 -0.017176
0.260110 -0.679970 0.033913
-0.239285 0.682071 -0.027955
-0.725281 0.220778 -0.003260
0.257770 -0.680126 0.032344
-0.199562 0.245242 0.449466
0.685494 0.245354 -0.476161
-0.200222 0.245350 0.450581
-0.239833 0.683648 -0.027964
-0.679136 -0.226548 0.470624
-0.224569 0.181521 -0.432767
0.223105 -0.267299 -0.464530
0.713993 0.700198 -0.018053
0.234950 -0.212067 0.484567
-0.708854 -0.693452 -0.007457
-0.225802 0.181451 -0.429853
0.711196 0.700447 -0.016524
0.227034 0.685992 0.427996
-0.200387 0.245994 0.450759
0.704678 -0.200169 0.000747
0.210675 0.676499 -0.477607
-0.221169 -0.667207 0.442491
0.683747 0.245133 -0.477610
-0.220350 -0.668961 0.443569
-0.217884 -0.666844 0.442371
0.234192 -0.212179 0.483174
0.713223 0.702171 -0.017750
-0.708746 -0.694872 -0.006529
0.236784 -0.211943 0.484114
-0.708016 -0.694054 -0.006704
-0.678604 -0.226314 0.473125
-0.224863 0.184348 -0.429011
-0.219896 -0.667374 0.444523
0.711921 0.700893 -0.017175
0.210448 0.674598 -0.477401
-0.676320 -0.226111 0.471866
0.225802 -0.267772 -0.461076
-0.711005 -0.231496 -0.445932
0.686900 0.224247 0.482045
-0.678736 -0.225740 0.471931
0.712055 0.701210 -0.018152
0.235343 -0.212524 0.481429
0.705591 -0.201747 0.001237
-0.201840 0.244036 0.450881
0.710412 0.699536 -0.018411
0.689154 0.224466 0.480115
-0.224580 0.182080 -0.430859
0.705285 -0.201468 0.000381
-0.220939 -0.669500 0.443459
0.222942 -0.266375 -0.462535
-0.220300 -0.668421 0.444259
-0.709751 -0.694629 -0.007016
-0.217727 -0.667600 0.443369
0.687115 0.223416 0.482016
-0.709111 -0.232770 -0.447741
0.226633 0.687288 0.427835
-0.679456 -0.226470 0.470066
-0.710914 -0.230527 -0.446344
0.225509 -0.266810 -0.461851
0.688437 0.224624 0.480861
-0.237107 -0.682511 -0.440457
-0.726059 0.221458 -0.004573
0.226916 0.686976 0.428155
-0.708461 -0.695224 -0.006698
0.259574 -0.680426 0.032798
-0.240794 0.681776 -0.028296
-0.726331 0.221266 -0.003266
0.706006 -0.201261 0.001289
-0.220114 -0.667969 0.443034
0.227948 0.685591 0.426757
0.227675 0.686842 0.427018
0.234828 -0.214006 0.485563
-0.711316 -0.695830 -0.006566
0.212207 0.675068 -0.478260
-0.240067 0.684231 -0.029314
-0.223399 0.182285 -0.430939
-0.226333 0.182833 -0.430747
-0.678948 -0.227564 0.471712
0.712232 0.700724 -0.019048
0.711416 0.701491 -0.017166
-0.725792 0.221245 -0.003921
-0.710449 -0.231134 -0.447656
-0.225689 0.182788 -0.432781
0.705611 -0.200783 0.001072
0.212257 0.675002 -0.477513
-0.226987 0.182519 -0.432734
-0.200195 0.243879 0.450047
-0.237320 -0.683120 -0.439689
0.227980 0.685620 0.427992
-0.201214 0.243009 0.451507
-0.722782 0.221543 -0.003655
-0.219290 -0.670087 0.444348
-0.224535 0.181571 -0.431032
0.704342 -0.199173 0.001958
-0.724520 0.220412 -0.004839
0.258247 -0.679578 0.032514
0.712334 0.700548 -0.017319
0.226953 0.686254 0.427206
-0.709132 -0.694135 -0.007581
0.684210 0.244996 -0.475125
0.683375 0.243874 -0.475636
0.227357 0.686125 0.427650
0.228371 0.684898 0.428407
-0.220871 -0.668901 0.443291
-0.711633 -0.694888 -0.007328
0.260737 -0.678713 0.032616
0.212002 0.675502 -0.478042
0.257831 -0.681463 0.030585
0.258696 -0.679085 0.032728
0.703699 -0.200120 0.000973
0.711702 0.700450 -0.018526
-0.218841 -0.668851 0.442798
-0.711421 -0.233506 -0.446849
0.684073 0.245618 -0.475811
0.223136 -0.267561 -0.461419
0.223217 -0.266255 -0.464355
-0.678364 -0.228745 0.469758
-0.236346 -0.680809 -0.439625
0.212358 0.674222 -0.480103
-0.236206 -0.681834 -0.438080
0.235131 -0.212369 0.481767
-0.202912 0.244116 0.449983
-0.238884 0.683086 -0.027498
0.705366 -0.201640 0.001472
-0.723947 0.220984 -0.004942
0.226197 0.686642 0.427042
0.222435 -0.267840 -0.463092
0.712578 0.700866 -0.019014
0.257715 -0.678901 0.032286
-0.219555 -0.665632 0.443981
-0.236038 -0.683382 -0.440279
-0.237530 -0.682706 -0.440175
0.227212 0.686448 0.426715
0.705164 -0.201353 0.000729
-0.238254 0.683901 -0.028368
-0.710517 -0.694194 -0.006758
0.684631 0.242590 -0.477497
0.704268 -0.202321 0.002304
-0.710431 -0.233762 -0.446290
-0.707525 -0.694839 -0.006769
0.687371 0.225308 0.479876
-0.712324 -0.231606 -0.446589
-0.679628 -0.227462 0.473142
-0.711610 -0.232765 -0.448502
-0.241140 0.682680 -0.028831
-0.219263 -0.668880 0.443850
0.684171 0.224174 0.481477
-0.677752 -0.226902 0.470663
-0.709309 -0.695758 -0.006497
0.212724 0.674827 -0.477508
-0.220358 -0.665714 0.444502
-0.199827 0.246848 0.452065
-0.240468 0.683290 -0.028765
-0.676446 -0.227140 0.471073
0.212620 0.674144 -0.477563
0.235040 -0.211858 0.483623
-0.218330 -0.668001 0.442660
-0.710514 -0.231976 -0.446011
-0.679206 -0.227437 0.468872
-0.237209 -0.682539 -0.439564
0.259253 -0.678851 0.032250
0.210256 0.676090 -0.478396
0.683057 0.245304 -0.475038
0.711377 0.700413 -0.018287
-0.709643 -0.695418 -0.007282
0.227598 0.686416 0.425456
-0.710645 -0.695022 -0.005987
-0.709363 -0.232418 -0.446427
0.713394 0.702647 -0.019201
-0.225315 0.183206 -0.430102
0.706129 -0.200631 0.000665
-0.676926 -0.227758 0.471154
-0.223868 0.184364 -0.432165
-0.223829 0.180936 -0.432497
-0.235781 -0.682181 -0.438882
0.236903 -0.212197 0.484021
0.227513 -0.267292 -0.463043
-0.709419 -0.231357 -0.444720
0.684370 0.244236 -0.475596
-0.199399 0.244587 0.451828
-0.236533 -0.681158 -0.439805
0.212686 0.675472 -0.478739
0.258054 -0.679535 0.034051
-0.677650 -0.228413 0.469913
-0.220524 -0.668241 0.445217
-0.240094 0.683535 -0.027648
0.687310 0.224681 0.479008
-0.710114 -0.230998 -0.447614
-0.708658 -0.694467 -0.005751
0.685140 0.245174 -0.476831
-0.223898 0.184093 -0.431585
0.235465 -0.210646 0.484167
0.214096 0.675664 -0.478947
-0.711210 -0.231622 -0.445051
-0.709239 -0.696400 -0.005298
0.684055 0.246858 -0.475841
0.688017 0.225717 0.479521
0.227336 0.685305 0.428588
0.704071 -0.199778 0.000732
0.223685 -0.266399 -0.463682
0.686097 0.242943 -0.476216
-0.677717 -0.227587 0.471562
0.226903 0.687174 0.427791
-0.678277 -0.228228 0.471900
-0.725082 0.220315 -0.003191
-0.236031 -0.681971 -0.441508
0.712506 0.700396 -0.017363
0.233589 -0.213144 0.482207
-0.239071 0.682632 -0.030370
-0.226348 0.182242 -0.430393
-0.237421 -0.682259 -0.440718
-0.238983 0.684413 -0.027091
0.687206 0.223093 0.480029
0.683735 0.245826 -0.474853
0.227010 0.686033 0.425399
-0.220865 -0.669726 0.443544
-0.225070 0.183213 -0.431148
-0.676102 -0.227469 0.470284
-0.199403 0.244227 0.451092
0.236566 -0.210188 0.481615
-0.237154 -0.683425 -0.440025
0.257715 -0.681117 0.030925
-0.225020 0.180951 -0.430909
-0.709747 -0.693917 -0.006304
0.684358 0.244574 -0.474209
0.210072 0.675905 -0.478964
0.211632 0.674747 -0.478103
-0.710527 -0.230604 -0.445560
0.684255 0.245085 -0.475623
-0.202354 0.244056 0.450875
0.687127 0.226105 0.480294
0.683950 0.244114 -0.477463
-0.710764 -0.231107 -0.445933
-0.200733 0.244044 0.450843
-0.200404 0.246396 0.451234
0.226169 0.686357 0.426661
0.687853 0.225470 0.481309
0.688713 0.225219 0.479895
-0.237313 -0.682673 -0.439541
-0.238272 -0.683664 -0.440662
-0.710746 -0.694330 -0.006939
0.686505 0.225157 0.480097
0.235949 -0.211121 0.482596
0.224410 -0.267227 -0.462474
-0.711066 -0.231935 -0.446882
