OFF
256 0 0
0.707418 0.000446 0.705808
-0.705158 -0.706536 -0.000492
0.001889 0.707871 -0.706053
0.000570 -0.708917 -0.705936
-0.000689 -0.706479 -0.705438
-0.001560 0.708531 -0.706523
0.707671 0.706331 0.000715
0.707673 -0.002074 -0.705429
-0.708005 -0.000609 -0.706766
0.000363 -0.709027 -0.706249
0.707765 0.001174 0.707580
-0.706839 -0.705929 -0.000600
-0.707153 -0.000939 0.707139
0.706159 0.707368 0.000766
-0.708657 0.000274 0.707863
-0.708417 -0.000744 0.706474
-0.708115 -0.001048 0.706671
0.707453 0.000876 0.707140
-0.000532 0.707456 -0.706884
0.001212 -0.708218 0.708030
-0.706729 0.706614 0.001944
0.708009 0.001018 0.707754
0.707250 0.000247 -0.708667
-0.000614 -0.707213 0.707147
-0.708099 -0.708039 -0.000544
0.707500 0.001783 0.708786
0.000451 -0.708072 -0.708654
-0.707753 -0.001382 -0.706935
-0.707491 -0.001708 0.705335
0.706514 -0.001686 0.710097
0.706527 0.000723 -0.707111
0.001469 0.707314 -0.707668
-0.708416 -0.000582 0.705821
0.706629 0.001885 -0.706776
-0.707472 -0.706645 -0.000297
0.706223 -0.707246 0.001972
0.706950 -0.707272 -0.000514
-0.707952 0.000408 0.705192
0.000895 0.708970 0.705613
0.001814 -0.708281 0.707442
-0.706518 -0.000278 0.707594
0.708352 -0.706011 -0.000702
0.706636 0.706928 0.000808
-0.000279 -0.706892 -0.708278
0.705108 -0.705844 -0.000964
0.707838 -0.706043 -0.000052
-0.706031 -0.708241 -0.001051
0.000750 -0.706481 0.706192
-0.706013 -0.000141 -0.708799
-0.001104 -0.705747 0.709736
0.708062 0.706256 0.000067
-0.707892 -0.001116 -0.707514
0.000085 0.708429 -0.709645
-0.706496 0.000378 0.707079
0.000542 0.706419 0.706923
0.001290 -0.707801 -0.706582
-0.706012 0.706911 0.000456
-0.707055 -0.001775 -0.708111
-0.000347 0.708226 0.706952
0.708365 0.706884 -0.000857
0.707426 0.001785 -0.707372
0.000946 -0.708331 -0.707547
-0.707009 -0.706454 -0.000922
0.708352 -0.706913 -0.000593
-0.708580 0.000497 -0.705972
0.000806 0.708459 -0.706688
0.706670 0.707211 -0.000057
-0.001234 0.706817 -0.707793
0.708070 0.000592 0.707934
0.707604 -0.707417 0.000725
0.707105 -0.000187 -0.708538
-0.000913 -0.706224 -0.707353
-0.707320 -0.000247 0.709044
0.705724 -0.709020 0.001207
-0.000642 -0.706054 -0.706628
-0.705184 -0.706196 0.000259
0.706784 -0.000842 -0.705755
-0.706186 -0.705964 -0.000419
-0.707316 -0.707100 -0.000644
0.708214 -0.706373 0.000048
0.708106 -0.705574 0.000556
0.000545 -0.706915 0.705919
-0.000432 0.709886 -0.706706
-0.708049 -0.001791 0.707878
0.707556 0.708281 0.002159
0.707812 0.001318 0.707635
-0.705240 -0.707983 0.000682
0.000603 0.705923 -0.707505
0.707600 0.000183 -0.706952
-0.000036 0.709618 -0.709389
0.000297 -0.706689 0.707659
-0.707265 -0.707216 0.000761
0.708860 -0.705850 0.000310
-0.000039 0.705046 -0.706385
0.707782 0.000913 0.707041
0.708185 -0.000476 -0.708271
-0.708389 -0.706351 0.000050
0.000539 -0.708637 0.706874
-0.707604 -0.705118 0.001941
0.706700 0.000775 0.707583
-0.705648 -0.000891 0.707645
-0.707730 -0.707654 -0.001854
0.001506 -0.707431 0.705092
0.707323 0.001333 0.706666
-0.708364 0.706959 -0.002536
-0.708115 0.707459 -0.000080
-0.707620 -0.000176 0.706030
0.705692 0.707285 0.002058
0.707934 0.708198 -0.000253
0.000354 -0.705704 0.706852
-0.706582 0.001982 0.706668
-0.706049 -0.708988 0.001779
0.707119 -0.001025 0.707616
0.708830 -0.001809 0.707418
0.708161 0.000701 -0.706378
0.000616 -0.706837 0.707415
-0.705966 0.000542 -0.706699
0.003504 0.707056 0.706563
0.001255 0.706173 -0.707404
0.707455 -0.000534 0.706066
-0.002413 0.708421 0.707515
0.001772 -0.708147 0.708221
0.710429 0.708252 -0.000370
-0.705866 -0.002110 0.707267
-0.706712 -0.707107 0.000468
0.706804 -0.000708 0.706391
0.000348 0.708412 0.706512
-0.706176 0.705168 0.000543
0.000331 0.707286 -0.706020
-0.706896 -0.000435 -0.707984
0.707500 -0.705762 0.000455
0.001563 -0.706342 -0.707316
-0.707733 -0.708469 0.000859
0.708077 0.000414 0.708903
-0.000293 -0.706852 0.706077
0.000377 0.706887 -0.706652
0.706699 0.708393 -0.001048
0.707985 -0.000367 -0.708779
0.001753 0.705272 -0.706177
-0.000428 0.708343 -0.707541
0.707266 0.706729 -0.000602
-0.707477 -0.000560 0.706188
-0.000657 0.706527 0.707409
0.708222 -0.002220 -0.707808
-0.000406 -0.707338 0.709365
0.708140 0.000397 0.707701
-0.705850 -0.000866 0.705941
-0.707218 -0.709193 0.000975
0.706648 0.001180 0.706819
0.708307 -0.707619 0.000451
-0.001057 0.707839 0.706332
-0.707209 0.000224 0.706650
0.000168 0.706354 0.707048
0.706357 0.707635 -0.001874
0.706074 0.000760 -0.707720
0.707285 -0.000485 0.708691
-0.706337 0.000580 -0.708437
-0.000921 0.707703 -0.708880
-0.707635 0.001049 0.706643
-0.001337 0.706889 0.706809
0.706406 0.000645 -0.705876
-0.001337 -0.708025 -0.706058
-0.707892 -0.707216 -0.000333
0.708547 -0.000708 0.707264
-0.001658 0.706432 -0.706345
0.706486 -0.708269 0.001018
-0.704696 -0.000528 0.705537
0.706734 -0.707978 -0.002638
-0.000063 0.707240 -0.705255
-0.706507 -0.708002 -0.000264
0.707084 -0.000660 -0.707466
0.708551 -0.706387 -0.001493
-0.707653 -0.706458 -0.002033
-0.705835 0.706663 -0.000328
-0.708950 0.706826 -0.001431
-0.707733 -0.706203 -0.001138
0.706453 0.708113 0.000076
-0.708612 -0.000776 0.708342
0.706874 0.000624 0.705988
-0.707570 -0.001978 0.706789
-0.003571 0.706794 0.706609
0.000754 -0.707326 0.706635
0.707969 0.001062 0.707769
-0.707451 0.000121 0.706560
0.001890 -0.707488 -0.708342
-0.000164 -0.706347 -0.706444
-0.706436 -0.002124 0.705925
0.707073 0.000254 -0.707304
-0.709538 0.707619 0.000963
-0.707197 0.000638 0.707197
-0.000367 -0.706823 0.707917
0.707231 -0.707085 0.000777
-0.706978 -0.707495 -0.001379
0.705617 -0.707642 0.001241
0.707858 -0.001783 -0.707288
-0.707316 0.708145 0.001741
-0.000291 -0.707918 -0.705944
-0.708185 0.000527 0.708105
-0.000090 0.708557 0.708017
0.706893 0.001877 -0.706222
-0.705910 0.000888 -0.704919
-0.706025 -0.000359 -0.707316
-0.705263 -0.709006 -0.001112
0.707069 0.000521 -0.708696
0.705458 -0.000520 0.707278
-0.707695 -0.000045 -0.707728
0.002060 -0.705179 -0.707313
-0.705939 -0.708229 -0.001072
-0.001184 0.706834 0.707164
0.000360 -0.706353 0.707878
-0.708166 -0.706881 0.001243
0.000532 -0.707627 -0.708220
0.000959 -0.707246 -0.707280
-0.706701 0.000654 0.709535
0.706896 0.000922 -0.705644
0.705468 -0.000587 0.707717
-0.706717 0.001684 0.707936
-0.706126 0.000719 -0.709214
-0.000563 -0.706446 -0.707444
0.707361 -0.707783 0.001967
0.707074 -0.000552 0.706980
0.706683 -0.001275 0.706777
0.002046 -0.705663 -0.707175
-0.001057 -0.706906 -0.707176
-0.707805 0.001614 -0.706683
-0.706851 0.000548 -0.708414
0.704644 -0.000154 0.707079
0.705847 0.708941 0.000770
-0.706216 -0.001002 0.706044
-0.706795 0.705053 -0.001144
0.001146 -0.707268 0.707722
-0.000390 0.705318 -0.708227
0.000117 0.705902 0.705806
-0.000874 0.707035 -0.706361
-0.000055 -0.707922 -0.705903
0.000858 -0.708272 -0.704462
0.706190 0.706612 0.000770
-0.707621 0.706625 -0.001556
0.001389 0.707924 0.703876
0.000551 -0.708678 0.708583
-0.707602 0.002871 0.708252
-0.707881 -0.707391 0.001459
0.707649 0.707080 -0.000127
-0.001272 0.706255 0.706671
-0.001584 0.706054 0.708699
-0.707677 0.000031 -0.706990
-0.707183 -0.705799 -0.001145
0.707582 0.708342 0.000285
0.000394 0.708205 0.708132
-0.000402 -0.707051 0.708088
0.707323 -0.000984 -0.706622
-0.000133 -0.706388 -0.708781
-0.706208 -0.706680 -0.000905
-0.001933 -0.708123 0.706265
-0.707447 -0.706548 0.001040
-0.707274 -0.708081 0.000555
