OFF
256 0 0
0.626976 0.024684 -0.652330
0.033746 -0.678612 0.642790
-0.024916 0.670609 -0.680392
0.630105 0.024605 -0.653872
-0.630796 0.012429 -0.649523
0.641472 0.000349 0.628231
-0.026195 0.669471 -0.682998
0.034418 -0.679071 0.643832
0.629316 0.025315 -0.652890
-0.013636 0.675822 0.640309
0.014737 -0.687162 -0.665182
0.641808 0.002081 0.629357
0.642972 0.000749 0.629196
0.724779 -0.690430 -0.014153
-0.630956 0.012674 -0.651889
0.644482 0.696207 0.036629
0.643635 0.694501 0.034573
-0.013548 0.677182 0.642660
0.016081 -0.685951 -0.662388
-0.667596 0.678269 0.015859
-0.627846 0.011688 -0.650468
-0.666023 0.678142 0.015848
-0.684709 -0.027496 0.690838
0.641847 0.001397 0.628469
0.723325 -0.688442 -0.012341
0.644720 0.695075 0.035615
-0.664924 0.678717 0.016953
-0.628375 0.013788 -0.649145
-0.685791 -0.027293 0.689327
0.627943 0.024378 -0.652506
-0.686607 -0.028667 0.691573
-0.670169 -0.675102 0.008296
0.640599 0.001791 0.629526
-0.687031 -0.028968 0.691459
-0.628650 0.014682 -0.651543
0.644547 0.697680 0.037621
-0.630266 0.015757 -0.652377
0.628588 0.025212 -0.651141
0.645166 0.693388 0.037335
-0.685970 -0.028344 0.692382
0.643326 0.000761 0.628146
0.015554 -0.687415 -0.666568
0.035761 -0.681274 0.642261
-0.026842 0.672794 -0.683151
-0.668591 -0.675125 0.008115
-0.666012 0.679170 0.016074
-0.668287 -0.671810 0.007164
-0.630792 0.014122 -0.650620
0.725050 -0.690393 -0.013635
0.034923 -0.680976 0.645638
0.645730 0.694015 0.036442
0.644068 0.695378 0.034073
-0.013166 0.676964 0.642280
0.627367 0.022961 -0.652632
-0.011088 0.675662 0.644327
0.645277 0.693197 0.034976
-0.667319 0.680901 0.018075
-0.665280 0.678445 0.017460
-0.667857 0.678689 0.016880
0.628037 0.024379 -0.653570
0.644202 0.695848 0.034902
-0.025856 0.670427 -0.684718
-0.668922 0.678512 0.015902
0.014967 -0.686905 -0.663259
-0.686164 -0.029869 0.692280
-0.666963 0.678752 0.017874
0.628516 0.023706 -0.654115
0.643140 0.696119 0.035137
-0.014382 0.675670 0.644288
-0.665070 0.679533 0.016727
-0.630295 0.011915 -0.651198
-0.667982 0.678166 0.015706
0.645011 0.695367 0.035865
-0.630298 0.013742 -0.651275
0.642127 0.002071 0.626470
-0.670825 -0.675349 0.007790
-0.627919 0.013426 -0.651409
-0.687370 -0.027346 0.692885
0.724547 -0.690454 -0.013548
0.643370 0.695316 0.035189
-0.024043 0.670398 -0.684347
-0.026752 0.670362 -0.684209
-0.665309 0.677034 0.015003
-0.024921 0.670797 -0.683827
0.628016 0.025013 -0.653355
0.643189 0.696578 0.035658
-0.013824 0.677228 0.644795
0.035105 -0.678755 0.642558
0.627849 0.026141 -0.653953
-0.026659 0.670716 -0.682504
0.643089 0.001171 0.627106
-0.684314 -0.026816 0.690431
0.035240 -0.678143 0.643660
0.035367 -0.677276 0.644562
-0.012558 0.676952 0.644326
0.627729 0.026640 -0.652287
0.628675 0.024353 -0.652940
-0.666636 0.675795 0.017250
-0.026117 0.672975 -0.682614
-0.685791 -0.027328 0.691094
-0.013366 0.675223 0.643618
0.627121 0.024164 -0.653222
-0.628318 0.013514 -0.650265
0.035140 -0.679483 0.643461
0.628673 0.024150 -0.652670
-0.628679 0.014843 -0.652229
0.724489 -0.689338 -0.014963
-0.627437 0.014893 -0.651038
-0.025275 0.672255 -0.684018
0.644661 0.695329 0.033748
0.013696 -0.686127 -0.663686
0.644234 0.696147 0.035799
0.644295 0.001054 0.627411
-0.627862 0.013570 -0.650778
0.036631 -0.678507 0.644977
0.643164 0.000699 0.626691
-0.012519 0.677924 0.644682
0.628632 0.024635 -0.653307
-0.025236 0.671393 -0.683597
0.037280 -0.679307 0.643431
-0.667097 0.679314 0.016731
-0.669779 -0.674537 0.009328
0.643210 0.693599 0.035279
-0.023716 0.671141 -0.685250
0.643639 0.000704 0.630963
0.015399 -0.686968 -0.665871
0.015981 -0.688683 -0.665006
0.721839 -0.688935 -0.013103
-0.011196 0.675228 0.642569
0.036444 -0.677807 0.643586
-0.024429 0.670025 -0.684032
-0.683411 -0.028007 0.692365
0.015026 -0.687255 -0.666020
-0.011434 0.674822 0.644365
-0.629365 0.015385 -0.651727
0.627796 0.025224 -0.649519
0.627662 0.023660 -0.653267
0.645100 0.694718 0.033842
-0.026574 0.674087 -0.683466
0.626659 0.022994 -0.652149
-0.668486 -0.674102 0.008329
0.645007 0.696803 0.034793
-0.629075 0.013604 -0.651126
0.723609 -0.689653 -0.012118
-0.666917 0.678667 0.015380
0.641355 0.001059 0.628640
-0.665032 0.678551 0.014603
-0.670409 -0.674934 0.008676
0.642491 0.001070 0.628730
-0.665743 0.678298 0.015967
-0.686425 -0.028337 0.692124
0.017244 -0.685672 -0.663827
0.641924 0.000485 0.629472
0.642512 0.696497 0.036890
-0.669805 -0.676033 0.007383
-0.687255 -0.026691 0.690914
0.722793 -0.688303 -0.012005
-0.665648 0.677157 0.018131
-0.666645 0.678881 0.016420
-0.686988 -0.028194 0.692361
-0.668648 -0.676329 0.007588
-0.013268 0.675172 0.643972
-0.014955 0.675482 0.643948
0.641253 -0.000136 0.627847
0.643491 0.696406 0.035816
-0.666837 0.679207 0.016607
-0.012236 0.677339 0.643863
-0.014679 0.675474 0.644028
-0.666770 0.677349 0.016853
0.035247 -0.680354 0.645019
-0.684847 -0.028071 0.691844
0.628069 0.024725 -0.652535
-0.686039 -0.027257 0.691788
0.035971 -0.678356 0.643276
-0.628987 0.012609 -0.650794
0.725470 -0.689400 -0.014959
-0.686638 -0.027069 0.691183
0.015737 -0.687861 -0.663685
0.641097 0.000129 0.627896
0.627644 0.023973 -0.652946
-0.669481 -0.676272 0.006917
0.723447 -0.689534 -0.013263
-0.629843 0.014221 -0.650349
0.037073 -0.677926 0.641840
0.033040 -0.679203 0.644120
-0.630200 0.013634 -0.650090
0.643204 -0.000074 0.627913
-0.012937 0.676925 0.644429
0.629059 0.026368 -0.653317
0.644309 0.695342 0.036909
-0.669148 -0.675070 0.007620
-0.665944 0.676284 0.016131
-0.685337 -0.028556 0.691086
0.035558 -0.679832 0.643525
0.642906 0.002236 0.625128
0.035969 -0.678137 0.643076
0.014784 -0.689023 -0.663592
-0.014604 0.676683 0.643132
-0.631025 0.013269 -0.651734
0.628290 0.025423 -0.652385
0.642775 0.000570 0.627746
-0.666533 0.676878 0.017436
-0.630276 0.013803 -0.649539
0.017779 -0.685494 -0.665221
-0.683923 -0.026529 0.692193
0.642782 0.001759 0.627742
-0.685666 -0.026994 0.691490
-0.669526 -0.674857 0.008231
-0.012015 0.676301 0.643490
0.014903 -0.686680 -0.665083
-0.630064 0.014043 -0.651590
-0.666760 0.679545 0.014784
0.641011 -0.001423 0.629409
0.627531 0.025314 -0.652346
-0.013726 0.675915 0.641412
-0.013789 0.673272 0.644414
-0.683989 -0.029217 0.691929
0.725894 -0.690124 -0.013909
-0.686687 -0.029287 0.690773
-0.668282 -0.675082 0.007770
0.015978 -0.687971 -0.663405
0.017422 -0.685836 -0.663047
0.035857 -0.678313 0.644223
0.035426 -0.678236 0.645201
0.643445 0.696937 0.034148
0.642498 0.001282 0.628460
-0.667288 0.677660 0.013914
0.627537 0.026701 -0.651047
-0.025700 0.669986 -0.683878
-0.025120 0.671298 -0.683682
0.643205 -0.000011 0.628305
0.724591 -0.689847 -0.013204
0.016768 -0.688370 -0.662734
-0.630809 0.014305 -0.650498
-0.024869 0.670146 -0.685487
0.035465 -0.677611 0.642691
-0.668951 -0.676664 0.007616
-0.026459 0.670905 -0.684364
0.644023 0.696670 0.035347
-0.627957 0.014033 -0.651839
-0.686878 -0.026417 0.691517
0.642379 0.000300 0.626270
0.724273 -0.688399 -0.014066
-0.629556 0.013326 -0.650889
-0.014585 0.675505 0.644602
-0.629816 0.014468 -0.650809
0.643973 0.697522 0.036358
-0.666811 0.677450 0.015195
0.035754 -0.680712 0.643857
-0.686836 -0.029172 0.690714
-0.024892 0.672241 -0.684073
0.626806 0.025098 -0.652739
0.628301 0.026070 -0.652652
0.642445 0.001732 0.628328
0.724889 -0.691668 -0.013272
-0.685797 -0.028107 0.690571
