OFF
256 0 0
0.244623 0.672218 0.006490
-0.240530 0.667287 -0.472826
-0.685072 -0.200392 0.006953
0.708446 0.224404 0.003465
-0.227298 0.709405 0.463255
0.239693 0.255015 -0.477650
0.245059 0.671542 0.004671
0.253862 -0.692966 0.471212
0.696190 -0.213519 0.469504
-0.261761 -0.249831 -0.463514
-0.241488 0.667028 -0.474185
0.229071 -0.685894 -0.427348
-0.261094 -0.249354 -0.462883
-0.259618 -0.709009 -0.014473
0.241281 0.253572 -0.479765
0.706195 0.224047 0.002617
0.253098 -0.691464 0.470314
-0.685558 -0.198784 0.006061
0.245766 0.674477 0.004443
-0.227537 0.710938 0.463264
-0.707454 0.704465 -0.008520
-0.231987 -0.246090 0.429376
0.698470 -0.225379 -0.435572
-0.260831 -0.247634 -0.462591
0.251819 -0.693385 0.469550
-0.687740 0.223696 -0.477466
-0.688200 0.224116 -0.477859
0.225068 0.228720 0.470369
0.696772 -0.214270 0.470390
0.244121 0.674814 0.006660
-0.685549 -0.199006 0.006884
-0.260414 -0.249064 -0.461521
-0.226050 0.712657 0.463376
-0.705137 0.705375 -0.007690
0.225137 0.227230 0.469561
0.704820 0.224811 0.002044
-0.261848 -0.706107 -0.015278
0.229999 -0.685757 -0.428407
-0.678258 0.229757 0.452594
0.683815 -0.698815 0.006349
0.225568 0.228664 0.471441
-0.231059 -0.243762 0.430503
0.250576 -0.689984 0.470704
0.226102 0.228998 0.470600
0.683905 -0.698058 0.007738
-0.707938 0.706240 -0.007510
0.698861 -0.225985 -0.434514
-0.261033 -0.249333 -0.462378
-0.687121 -0.199835 0.005261
0.683887 -0.696731 0.009683
0.241354 0.252863 -0.479831
-0.259929 -0.249381 -0.465319
-0.684186 -0.198539 0.006008
-0.683778 -0.199104 0.007661
0.245257 0.673593 0.005420
-0.706979 0.708386 -0.007105
-0.231541 -0.246032 0.430621
-0.231096 -0.242921 0.429892
0.683694 -0.698229 0.007761
0.225694 0.228862 0.470293
-0.225838 0.712583 0.464303
0.685018 -0.696121 0.008926
-0.242331 0.666397 -0.472202
-0.259034 -0.250611 -0.462196
0.707622 0.224134 0.003966
0.252085 -0.692151 0.471039
0.255047 -0.692219 0.469710
0.684122 -0.695937 0.007142
0.240435 0.253969 -0.478112
0.697527 -0.226168 -0.435709
0.684758 -0.696708 0.008529
0.244458 0.674289 0.006968
0.253120 -0.691631 0.470852
0.239317 0.254495 -0.477396
0.694776 -0.212214 0.470573
-0.232119 -0.243229 0.430273
-0.678864 0.228549 0.451498
-0.710630 0.705124 -0.007983
-0.230427 -0.244548 0.430322
0.707723 0.224045 0.002846
0.240655 0.254313 -0.479791
-0.677821 0.227876 0.454389
-0.226589 0.710986 0.464562
0.224876 0.227604 0.467399
-0.231548 -0.245572 0.431085
0.243512 0.674006 0.006685
-0.259977 -0.249487 -0.461476
0.223269 0.228944 0.469840
0.694842 -0.224743 -0.435537
-0.230974 -0.245855 0.430001
0.706815 0.224331 0.001684
-0.261673 -0.248737 -0.461682
0.705080 0.225067 0.002520
0.245279 0.673558 0.006830
0.245105 0.673244 0.006098
-0.706931 0.706370 -0.009647
0.697918 -0.212497 0.471776
-0.258486 -0.247256 -0.462750
-0.678911 0.228820 0.451802
-0.260209 -0.249913 -0.465895
0.231283 -0.688429 -0.427108
0.695616 -0.214029 0.471797
0.240091 0.253216 -0.479466
-0.229578 -0.243015 0.430707
0.695260 -0.226282 -0.435273
0.696234 -0.226238 -0.434676
0.696658 -0.226851 -0.435784
-0.710148 0.706267 -0.009424
-0.687586 0.224839 -0.479390
0.231467 -0.686197 -0.425426
-0.260927 -0.249885 -0.463673
0.706579 0.224438 0.000664
-0.226687 0.711863 0.463779
-0.684524 -0.198407 0.003031
0.242393 0.254860 -0.479975
-0.708266 0.705641 -0.011178
-0.707894 0.706372 -0.010870
-0.225698 0.709945 0.465021
0.696626 -0.225339 -0.435594
0.240199 0.252645 -0.480616
-0.709138 0.705414 -0.007978
-0.678270 0.229727 0.450687
-0.683129 -0.199257 0.005532
0.231240 -0.686459 -0.427395
-0.259150 -0.249857 -0.464082
-0.227927 0.709787 0.464140
0.706555 0.223796 0.001812
-0.229567 -0.245522 0.430141
-0.224109 0.710719 0.463027
-0.686256 0.224658 -0.479706
0.685480 -0.698898 0.008165
0.251537 -0.690373 0.468130
0.245738 0.673708 0.006267
0.244497 0.674003 0.006453
-0.685766 -0.199335 0.006709
-0.263228 -0.708905 -0.014530
0.695314 -0.212403 0.470777
-0.242324 0.666333 -0.471764
-0.260704 -0.248670 -0.462721
-0.229250 -0.244710 0.430379
-0.259545 -0.249357 -0.465385
0.684274 -0.698623 0.007100
0.696479 -0.225268 -0.433141
0.686689 -0.696408 0.007344
0.231496 -0.686428 -0.425045
0.696269 -0.212362 0.472256
-0.229835 -0.244962 0.430885
0.224430 0.227222 0.467985
0.696088 -0.216093 0.470756
0.693965 -0.211481 0.470497
0.685767 -0.697941 0.008358
0.706537 0.225830 0.003066
-0.260634 -0.709098 -0.015562
-0.707432 0.703943 -0.009751
0.695218 -0.210156 0.471427
-0.261662 -0.707566 -0.013943
0.684181 -0.698779 0.008630
-0.258659 -0.250370 -0.463193
0.231567 -0.686243 -0.424702
-0.679540 0.229684 0.450536
0.695419 -0.224899 -0.434237
-0.687502 0.225106 -0.479892
0.231248 -0.685992 -0.425305
-0.225030 0.711652 0.462136
0.232155 -0.688277 -0.427014
-0.707024 0.704767 -0.007918
-0.259764 -0.705621 -0.014782
0.245536 0.672918 0.007315
0.224854 0.227997 0.468619
-0.260559 -0.708869 -0.015541
-0.708958 0.706448 -0.008116
-0.230485 -0.244742 0.429868
0.706232 0.223748 0.003103
-0.242084 0.667283 -0.472546
0.706881 0.225078 0.003485
-0.226613 0.711850 0.462123
0.694107 -0.214391 0.470580
0.253609 -0.692170 0.469299
-0.258992 -0.248104 -0.461193
-0.225838 0.709405 0.461676
0.226452 0.227943 0.468075
-0.242065 0.666189 -0.473781
0.699262 -0.225268 -0.435184
-0.685436 -0.198835 0.005867
-0.224438 0.710038 0.463707
-0.688983 0.224872 -0.478679
0.253370 -0.690476 0.470777
0.705495 0.226086 0.003305
-0.261151 -0.707120 -0.013923
-0.678981 0.227972 0.452494
-0.260727 -0.248623 -0.464168
-0.706089 0.706265 -0.008480
0.229829 -0.684413 -0.423845
0.684717 -0.696243 0.007357
-0.677101 0.229603 0.452217
-0.259026 -0.705988 -0.012661
-0.679235 0.227544 0.453321
0.241510 0.253891 -0.477712
-0.688184 0.223307 -0.476980
0.696143 -0.227489 -0.435155
-0.688698 0.223954 -0.479363
0.228999 -0.686844 -0.427154
0.224928 0.228149 0.468798
0.254340 -0.692088 0.471131
-0.687150 0.222289 -0.479041
0.253405 -0.691432 0.470730
-0.260836 -0.247914 -0.462419
-0.707811 0.707256 -0.010261
0.695637 -0.226393 -0.433620
-0.260628 -0.249813 -0.460573
0.232347 -0.685893 -0.426518
-0.261244 -0.249259 -0.462443
-0.258924 -0.708237 -0.015037
-0.687857 0.225054 -0.478585
0.254886 -0.691091 0.468906
0.245246 0.671544 0.005449
0.239483 0.253319 -0.476083
0.707784 0.223899 0.002734
0.695244 -0.224889 -0.435965
-0.258254 -0.249920 -0.463124
-0.242251 0.664628 -0.472726
-0.228104 0.710045 0.462515
-0.258338 -0.707940 -0.015416
0.694671 -0.211364 0.472954
-0.677649 0.229799 0.451504
-0.258616 -0.707642 -0.014685
-0.241794 0.666913 -0.473224
0.230111 -0.686406 -0.426799
-0.226166 0.711505 0.461929
-0.685453 -0.201335 0.006102
-0.685698 -0.200357 0.005101
-0.708004 0.705484 -0.008843
0.704787 0.224696 0.002794
0.252435 -0.693049 0.469803
0.682143 -0.697505 0.007098
-0.261203 -0.249235 -0.462070
-0.708633 0.707485 -0.010084
0.696747 -0.212108 0.472033
0.251823 -0.689069 0.469887
0.683292 -0.697498 0.008905
0.683797 -0.698704 0.007293
0.240436 0.254169 -0.479272
0.244536 0.674000 0.004966
0.254213 -0.691904 0.469885
0.245130 0.674106 0.007487
0.706319 0.225097 0.004900
-0.679782 0.229346 0.451388
-0.708716 0.704146 -0.009779
-0.677470 0.227018 0.450975
-0.223719 0.710505 0.462967
0.243772 0.673019 0.007674
0.696485 -0.225302 -0.434347
-0.229475 -0.244539 0.428382
-0.684498 -0.200360 0.005737
-0.258572 -0.705919 -0.014284
0.244705 0.671742 0.005336
