OFF
256 0 0
-0.707142 -0.236668 0.471427
-0.235821 -0.707611 -0.471042
-0.237301 0.236361 0.472750
-0.234864 0.707688 -0.000238
-0.706488 -0.236005 -0.471885
0.235785 0.706770 -0.471218
0.234250 0.705505 0.472286
-0.236650 0.235018 -0.472919
-0.707993 -0.706637 0.000449
0.235002 -0.233600 0.473327
0.235109 -0.706679 -0.000353
0.709193 0.235579 -0.471360
0.708099 -0.235557 -0.000346
0.707703 0.707149 -0.000221
-0.234637 0.708718 -0.000930
-0.235622 0.235660 -0.470924
-0.707345 0.235115 -0.000721
0.234041 -0.233654 0.470125
0.234815 0.708725 -0.470753
-0.237278 0.705582 0.000885
0.705621 -0.236162 -0.000186
-0.705616 -0.706593 0.000559
-0.235445 -0.708151 -0.469732
-0.707103 -0.235690 -0.471934
0.236137 -0.235347 -0.472403
0.235287 -0.236416 -0.472594
-0.707844 0.235337 -0.001051
-0.707083 -0.235501 -0.472888
-0.235939 -0.706839 0.469557
0.236370 -0.706954 0.000125
0.234603 -0.235959 0.470265
0.705474 0.235226 0.473303
0.708096 -0.234920 0.000559
0.707993 0.237506 -0.470560
-0.236518 -0.707099 0.471823
0.235834 -0.237067 -0.470867
-0.236297 0.707605 0.001032
-0.236670 -0.707492 0.471244
0.707487 0.235947 -0.470882
0.236769 0.706550 0.471129
0.706471 0.706773 -0.000162
-0.236319 0.708715 0.000311
0.235302 -0.238127 0.472122
0.706780 0.707764 0.000580
0.235650 -0.235531 -0.473784
0.236286 -0.236255 -0.471826
-0.706957 -0.705602 -0.000432
0.707569 -0.235454 -0.000263
-0.236257 -0.706979 -0.471254
-0.707483 0.235715 -0.001228
0.706562 0.233827 -0.471425
-0.236116 0.708306 -0.000473
0.706385 -0.236590 -0.000196
-0.235341 0.234499 0.469505
-0.708028 -0.706962 0.000813
-0.236647 0.706654 0.000310
-0.235781 -0.706036 -0.473202
-0.235696 0.236659 -0.471464
-0.707599 -0.235277 -0.470379
-0.235960 0.236274 -0.472221
0.706499 -0.235492 0.000592
-0.706096 -0.236108 0.470701
0.234521 0.707324 0.470636
-0.706345 -0.235104 -0.471262
-0.234965 0.705982 0.000718
0.707953 0.235072 -0.474789
0.235312 0.704483 -0.470949
-0.706826 -0.708605 0.000945
-0.706203 -0.708690 -0.000236
-0.707706 -0.235961 0.469945
0.236469 -0.235117 0.470491
0.235905 -0.236167 -0.472254
-0.707594 -0.234059 -0.473248
0.234895 -0.707870 0.001467
-0.705392 -0.705218 -0.000778
-0.705329 -0.234607 0.472222
0.237096 0.707562 0.473029
-0.234833 -0.708247 -0.471278
-0.237705 0.705596 -0.000511
-0.235465 0.234417 -0.472623
0.236126 -0.237053 -0.471964
-0.234649 0.236454 0.471990
-0.236443 0.233815 0.471277
0.238076 -0.234332 -0.470385
0.235923 0.707186 -0.470303
0.706820 0.235097 -0.472989
0.236673 0.706330 -0.469835
0.707865 0.235501 -0.471869
-0.705660 -0.237347 -0.471915
0.236080 -0.237816 -0.473086
0.237014 0.706928 -0.470145
0.236878 0.706536 -0.470578
-0.237079 -0.707320 -0.471983
0.236069 0.706405 -0.472293
-0.708060 -0.707873 -0.000040
-0.235990 0.235646 0.471439
0.236931 -0.235369 -0.471588
0.706547 0.236520 -0.471677
0.708529 0.236194 -0.472874
-0.707939 0.235899 0.000840
-0.706691 -0.232622 -0.469616
0.236825 -0.235850 0.470758
0.235833 0.705256 -0.470820
0.234149 -0.706995 0.001415
-0.235544 -0.707527 0.472377
-0.705972 0.238545 0.000298
-0.235521 0.234550 0.469668
0.708347 0.235766 -0.472674
0.236552 -0.236508 0.471394
-0.236860 -0.707424 0.470390
0.236511 0.705197 -0.472319
-0.236039 0.707976 0.000577
0.707950 -0.235797 0.000746
0.236160 0.706569 -0.471922
0.709076 0.235319 -0.471507
0.707835 -0.236690 -0.001460
0.235726 -0.235582 -0.471866
-0.234946 0.235159 -0.472862
-0.234472 0.234753 -0.470886
0.235701 -0.237416 -0.471096
0.706239 -0.236454 -0.000156
-0.235767 0.708634 0.001783
0.706902 -0.235739 0.000135
-0.238190 -0.705899 -0.469751
-0.704795 -0.237200 0.471343
0.236371 0.708241 -0.472585
-0.708435 -0.707728 0.001150
-0.707857 -0.235331 -0.472895
-0.708031 -0.234612 -0.472105
0.705408 0.705653 0.000413
0.707670 0.237261 -0.471048
-0.705027 0.235031 -0.001235
0.705884 0.235890 -0.469737
0.706817 -0.234978 0.000490
-0.706848 -0.708030 -0.000793
0.706267 -0.235984 0.000392
-0.705783 0.235012 0.000345
0.708415 -0.235015 0.000335
0.707528 -0.234916 -0.000977
-0.234210 -0.708431 0.473453
-0.235264 0.707614 -0.000644
-0.705821 -0.233634 0.470220
0.235434 0.707237 -0.471325
-0.235549 -0.706251 0.469642
-0.234047 -0.708512 -0.470195
0.706459 -0.235030 -0.000580
0.235208 -0.234109 -0.472279
0.705776 -0.235893 0.000200
0.705472 0.234916 0.473637
0.235640 -0.708045 0.000745
0.707821 0.708200 0.001154
0.708972 0.707621 -0.001669
0.706424 0.237367 0.472220
0.706928 0.706232 -0.000328
-0.708097 0.234398 -0.000782
0.237068 -0.235359 0.470276
0.235427 -0.235095 -0.470574
0.706737 0.706309 -0.000331
-0.235932 -0.706276 0.472840
0.236275 -0.236351 0.470543
-0.235975 -0.707254 -0.472510
-0.237575 0.234928 -0.471606
0.705381 0.236270 -0.470118
-0.235969 0.234538 -0.473613
-0.706795 -0.707651 -0.000762
-0.706514 -0.235533 0.471316
-0.236196 0.237240 0.471325
0.235578 0.706012 0.472014
-0.706728 0.236553 0.002077
0.233582 -0.707177 -0.000694
-0.706450 -0.705417 -0.001523
0.706855 0.707383 -0.000422
-0.707578 0.236446 -0.000681
0.706905 0.236145 0.472008
-0.707467 -0.707021 0.000886
0.236002 0.707351 -0.470763
-0.235969 0.235263 -0.470368
-0.235950 -0.706586 0.470416
-0.237016 0.236005 0.471139
0.705982 0.235690 0.471366
-0.236608 -0.707052 -0.471449
-0.706365 -0.237356 0.471366
0.235439 -0.233217 0.471031
0.234990 0.706774 0.472429
-0.708151 -0.233522 -0.473142
-0.705564 -0.233867 -0.471966
0.235116 -0.237033 -0.472179
0.706730 0.235090 0.471509
0.236685 -0.234412 0.472307
-0.236046 0.235441 0.469318
-0.235545 -0.704683 0.472169
-0.233710 -0.706592 -0.471708
-0.238556 0.236255 0.472728
0.707708 0.236838 -0.469049
-0.236039 0.235820 -0.470746
-0.235876 0.237587 -0.470214
-0.706342 -0.234614 0.470730
0.234717 -0.237617 0.470103
-0.707598 -0.707403 0.000731
-0.233703 0.236376 0.471175
-0.235593 0.705881 0.000026
-0.235442 -0.705726 -0.470834
0.236378 -0.234725 0.471834
0.235620 -0.236826 0.471931
0.706723 0.233814 -0.471643
0.235603 -0.235873 0.472794
-0.707932 -0.236095 0.472975
0.707086 0.234849 -0.470977
-0.238763 0.236729 0.471868
0.235247 0.705781 0.472396
-0.706794 -0.706987 -0.000000
-0.235047 -0.709126 -0.471563
0.707580 -0.235273 -0.001191
-0.706170 0.235090 0.000041
-0.234192 -0.705501 -0.472662
-0.236547 0.234970 -0.471059
-0.705781 -0.235827 0.470727
0.236343 0.707849 0.471489
-0.235903 0.235873 0.471040
-0.235962 0.705943 0.000116
0.708187 -0.236407 -0.000667
0.234413 -0.235653 0.472777
0.706969 0.705739 -0.000195
0.707705 0.705092 0.000560
0.235474 -0.234882 0.471091
-0.234508 0.235116 -0.471550
-0.708594 -0.707008 -0.000815
0.236465 0.706664 0.471195
-0.708444 0.235481 0.000574
-0.236728 -0.709086 -0.472363
-0.707309 -0.235446 -0.469998
0.708571 0.234394 0.472195
0.707813 0.705813 0.000239
-0.707352 0.235777 -0.000070
0.708071 0.237192 0.472601
0.234425 -0.236000 -0.471984
-0.233585 0.236468 -0.471649
0.235576 -0.235106 -0.471964
0.706418 -0.234797 -0.000482
-0.707072 -0.235034 -0.472356
-0.708186 -0.234807 -0.471130
-0.706949 -0.707157 -0.000398
0.233303 -0.234888 0.470888
-0.707630 -0.707007 -0.000415
0.236166 -0.235937 -0.471254
0.235663 0.708119 -0.472350
-0.705617 -0.236210 0.471652
0.707899 0.233215 0.470520
-0.707624 -0.236731 -0.471298
0.237255 -0.235312 0.471109
-0.705658 -0.233116 0.471291
-0.234613 0.707012 0.000242
0.234996 0.705808 -0.470487
-0.235108 -0.706760 0.470155
-0.236759 0.235886 -0.470896
-0.707066 -0.707918 0.000277
