OFF
256 0 0
0.470406 0.236272 0.706071
0.470191 0.236296 0.705695
0.471696 0.707839 0.235853
0.001389 -0.235054 0.707700
-0.000676 0.709270 0.706891
0.001329 -0.706993 0.235538
-0.471825 0.235861 -0.235271
-0.472627 -0.705290 -0.235909
0.471740 -0.232298 0.237092
-0.470859 -0.708027 -0.235697
0.000495 0.707096 0.707416
0.470074 -0.706773 -0.235421
-0.472272 0.234202 -0.237046
-0.471598 0.708013 0.234074
0.470778 -0.236258 -0.706303
0.472315 0.706495 0.234896
0.000700 -0.234798 0.707518
0.000875 0.235406 -0.706055
0.000915 -0.235990 0.706163
0.470864 -0.707594 -0.237732
0.470892 -0.236091 0.237117
-0.471659 0.235678 0.707621
0.471165 0.235650 -0.235415
-0.472247 0.708129 0.235523
0.000421 -0.704886 0.234589
0.474678 -0.706105 -0.237257
-0.002091 0.705808 0.708498
-0.470004 0.236251 0.706050
0.470019 0.235052 0.704785
0.473728 -0.234829 0.234260
0.470570 0.236185 -0.236045
-0.000847 0.236081 -0.706828
-0.001864 0.706687 -0.234254
0.470230 0.706921 0.234302
-0.000473 -0.235114 0.706641
-0.471420 0.237847 0.707303
0.000355 0.706593 0.707120
-0.000261 -0.706859 0.236863
0.472827 0.708294 0.236188
-0.470037 -0.235409 0.235203
-0.470294 -0.237037 -0.707304
0.473122 0.235002 -0.235933
-0.472282 0.236211 0.706767
0.470212 0.236204 -0.235357
-0.000772 0.705883 0.705424
-0.000020 0.236682 -0.708067
-0.472761 0.234975 0.707380
-0.471214 0.234767 0.707321
-0.471818 -0.235897 -0.706189
-0.470825 0.236219 0.706083
0.469676 0.233833 0.705982
-0.471723 -0.233416 -0.707067
-0.001630 -0.706052 -0.708527
0.473107 0.708055 0.236884
-0.001825 -0.235075 0.708232
-0.472297 0.235304 -0.234949
-0.000793 -0.235827 0.706602
0.000617 0.235755 -0.706683
0.473303 -0.234495 -0.706595
-0.471230 -0.235211 -0.705913
0.471529 0.707770 0.236018
-0.471912 -0.236052 0.236432
-0.469421 0.237327 -0.236449
0.472143 -0.234981 -0.706698
0.472506 0.236297 -0.238020
-0.472057 0.233549 -0.236446
-0.471688 0.705253 0.236019
-0.471685 0.234998 -0.236417
0.472082 -0.235614 -0.706195
-0.471863 0.236135 -0.238744
-0.471689 -0.236425 0.236392
0.469579 -0.235293 0.236506
-0.000123 -0.705379 -0.706736
-0.471907 -0.705002 -0.235573
-0.000915 0.707342 -0.235675
-0.000638 -0.235788 0.707162
0.471957 0.706002 0.236036
-0.470295 0.236812 -0.237201
0.471028 -0.235358 0.236243
0.000407 -0.708989 0.235748
-0.471862 -0.236830 0.236850
-0.469252 -0.236253 -0.707408
0.473629 -0.235516 -0.705626
0.470709 -0.706607 -0.234937
-0.001525 -0.708639 -0.708533
0.469354 0.707548 0.235822
-0.470367 -0.235930 0.235463
0.472087 0.234497 0.708636
-0.001611 -0.234096 0.706167
-0.472121 0.233949 -0.237643
-0.469815 0.236067 -0.234147
-0.472747 0.707174 0.237035
0.001352 -0.707506 0.234241
0.000211 -0.707452 -0.706008
0.471145 -0.706458 -0.234492
-0.469517 -0.235860 -0.707204
0.000000 0.705711 -0.236769
0.000932 0.706331 -0.234690
-0.469952 0.234374 -0.234744
-0.471903 -0.236043 -0.708184
0.001001 -0.705905 0.238388
-0.000831 0.706334 -0.236194
0.470127 0.235102 0.707823
0.471639 0.236583 -0.235831
0.001063 0.705713 0.705575
-0.000616 0.237688 -0.707927
0.470317 0.706378 0.235185
0.470376 0.236204 0.704814
0.473794 0.236111 0.708090
0.470036 -0.235620 0.234787
-0.471157 -0.236048 -0.707124
0.472360 -0.706604 -0.235488
0.000540 0.708600 -0.236280
0.000631 0.233216 -0.707412
0.472613 0.705031 0.235765
0.470879 -0.234724 0.237090
-0.470010 -0.236312 -0.706897
0.471577 0.706667 0.237637
-0.474569 -0.708810 -0.234551
0.469030 -0.237370 0.234558
0.001170 0.706595 -0.236291
-0.472872 -0.236455 0.235997
-0.471294 -0.237727 0.236825
-0.471239 0.236728 -0.237025
0.471943 -0.707232 -0.235814
0.472668 0.233984 0.707279
0.470135 -0.236459 -0.706137
0.001517 0.706723 0.707619
0.469846 -0.707476 -0.235755
-0.000862 -0.234125 0.708283
0.472051 0.708291 0.235836
0.471478 -0.235350 0.235429
0.472037 0.706681 0.234019
-0.473946 0.236430 0.707783
-0.000361 -0.707363 -0.706721
0.471772 -0.708687 -0.237365
0.472429 0.236412 0.707107
-0.472742 0.705679 0.235208
-0.471196 0.707381 0.235127
0.472942 -0.235379 -0.707112
0.000108 0.706716 -0.237004
-0.000278 -0.237574 0.706647
0.001647 0.710119 -0.235303
-0.001027 0.236435 -0.705620
-0.002565 -0.237548 0.708058
-0.000193 0.705143 -0.237385
0.000049 -0.705823 -0.705032
0.469952 -0.235361 0.236776
0.472377 -0.235518 -0.706521
0.471706 -0.235199 0.236236
-0.000187 -0.236325 0.708289
0.000674 -0.706529 0.234541
-0.473360 0.707516 0.236239
0.470693 0.708229 0.234991
0.001665 0.708443 -0.235315
0.470155 -0.234954 -0.708358
0.470681 -0.235641 0.237075
0.000016 -0.233695 0.707377
0.472053 0.705608 0.236015
-0.471202 0.234513 0.705782
-0.473068 0.235949 0.709549
-0.470469 0.235643 0.708053
0.000311 0.706587 0.706773
0.469664 0.236437 -0.236920
0.471437 -0.234937 0.235947
0.472945 -0.707056 -0.236109
0.000841 0.234649 -0.705393
-0.001258 -0.236550 0.706392
0.470230 0.237285 0.706994
0.000339 -0.707662 0.235372
0.473808 -0.706952 -0.235118
-0.470652 0.234432 0.705978
-0.000208 0.707972 0.707230
-0.469847 0.234972 -0.234695
-0.470499 -0.706988 -0.235763
0.471617 0.234960 -0.235831
0.472250 -0.708353 -0.234562
-0.001044 -0.706368 0.236237
-0.471972 0.234339 0.707300
-0.473068 -0.236054 -0.707267
0.472159 -0.235166 -0.707952
0.000451 0.706178 0.705820
-0.471750 -0.707804 -0.236621
0.000834 -0.707109 -0.708493
0.472412 -0.236801 -0.708153
-0.472593 -0.234134 0.235826
0.000313 0.236414 -0.707348
-0.000531 0.706662 0.706475
0.000263 -0.708452 0.236816
0.470051 -0.237059 -0.707637
-0.471445 0.235351 -0.235720
-0.000354 -0.706228 -0.707961
0.471069 -0.708228 -0.233893
-0.000213 0.706930 -0.235295
0.000410 -0.706540 -0.709522
0.471150 0.234599 0.707513
-0.470901 -0.235000 -0.707687
-0.470611 0.236105 -0.234585
0.000821 0.706308 -0.235998
-0.000962 -0.707983 -0.706075
0.470897 0.233933 -0.234395
0.470125 -0.707067 -0.235193
0.001774 0.235589 -0.708480
0.471447 -0.707076 -0.238504
-0.000531 -0.706107 -0.707305
-0.471598 0.708265 0.234245
0.001800 0.705228 0.706584
-0.000842 0.705590 0.706851
-0.000376 0.707080 -0.234957
-0.000025 -0.234487 0.706024
0.471333 -0.235576 -0.705337
-0.472142 0.236008 -0.235282
0.470885 -0.236170 -0.708107
-0.470625 -0.708295 -0.236829
0.001096 0.705874 -0.234490
-0.472631 -0.235204 0.235729
-0.471504 0.236552 0.708831
0.000183 -0.708234 0.233961
-0.472578 -0.235082 0.236063
-0.472080 0.706392 0.236896
-0.471396 0.235100 -0.236049
-0.470153 0.707690 0.236354
-0.000499 0.705890 0.706661
0.469978 -0.705838 -0.234539
-0.472252 -0.234100 0.238129
-0.471453 0.235950 0.707670
0.472217 -0.236751 -0.706336
0.471023 -0.707454 -0.235112
-0.000556 0.236684 -0.707553
0.471511 -0.238447 0.235236
-0.471386 -0.705582 -0.235212
-0.472221 0.706683 0.234629
0.471093 -0.235813 -0.707891
-0.470811 -0.236262 -0.707930
-0.472020 0.235565 0.708552
0.000003 -0.236425 0.706380
-0.471535 -0.234500 0.234091
-0.001055 -0.706747 0.236038
-0.472214 -0.236138 -0.706086
0.471935 0.236275 -0.235383
-0.472481 -0.707894 -0.234745
-0.471036 -0.235097 0.236543
-0.470481 0.235426 -0.235597
-0.000269 -0.235289 0.708794
0.472513 -0.235939 0.235784
-0.471255 0.236527 -0.234686
-0.470676 -0.707837 -0.234134
-0.470007 0.707405 0.234755
0.471858 0.705721 0.235416
-0.471764 0.706820 0.236942
-0.470412 -0.237589 0.234583
-0.000259 -0.234548 0.706480
0.001133 0.705867 0.706158
0.471340 0.710142 0.235794
0.000530 -0.237792 0.704568
-0.001696 -0.707008 0.234996
