OFF
256 0 0
-0.425663 0.223845 -0.209394
0.026099 -0.689599 0.206712
-0.014417 0.219559 -0.719842
-0.425549 0.223438 -0.208606
-0.428680 -0.226639 -0.681429
0.412257 0.227404 0.700341
-0.427025 0.223090 -0.209387
0.506885 0.713296 0.255327
-0.429666 -0.226473 -0.681129
-0.485564 0.679492 0.207734
-0.474526 -0.706586 -0.230726
0.014447 0.690024 -0.239204
-0.022169 0.715611 0.699043
0.509594 0.714820 0.254424
0.432051 -0.216831 0.196608
0.010247 -0.708930 -0.686100
0.412486 0.227319 0.698506
-0.460774 -0.253586 0.253753
-0.486589 0.678743 0.207193
0.509400 0.715144 0.255758
-0.461070 -0.253017 0.253655
0.507943 0.715006 0.253787
-0.430716 -0.226365 -0.681016
0.430227 -0.215927 0.197614
-0.471446 -0.705800 -0.232167
0.452659 0.241166 -0.219124
-0.021205 0.716486 0.696023
-0.458272 -0.255011 0.252700
-0.460649 -0.254169 0.251355
-0.426002 0.222966 -0.210069
-0.459815 -0.253197 0.250480
-0.430950 -0.226694 -0.683944
-0.431814 -0.226643 -0.682300
-0.021231 0.716552 0.696537
-0.431248 -0.227006 -0.680689
-0.425929 0.223541 -0.211003
0.453888 0.240792 -0.217439
-0.472148 -0.705913 -0.230732
-0.028419 -0.225517 0.724727
-0.459247 -0.253854 0.253795
-0.467710 0.250774 0.691767
-0.432134 -0.228315 -0.678343
-0.467404 0.250625 0.693404
0.431843 -0.214555 0.196899
0.453435 0.239263 -0.218550
0.507621 0.714068 0.255484
0.015884 0.687932 -0.239611
0.506026 -0.709806 -0.250351
0.509310 0.713747 0.253378
0.429866 -0.215975 0.198391
0.432326 -0.216582 0.197781
-0.468164 0.250650 0.691005
0.445934 -0.226701 -0.699061
-0.483912 0.679877 0.209113
0.013861 0.689404 -0.241244
-0.473586 -0.704243 -0.231863
0.028034 -0.689190 0.207091
-0.030285 -0.224506 0.726116
0.453091 0.242195 -0.219000
0.009732 -0.709838 -0.687264
-0.467113 0.251438 0.691442
0.008346 -0.710988 -0.684267
0.430925 -0.215610 0.196149
-0.023548 0.715729 0.699009
-0.021168 0.716862 0.697798
0.411513 0.228157 0.697247
-0.426865 0.222963 -0.210584
0.447540 -0.225419 -0.697985
-0.473252 -0.704740 -0.232356
0.504946 -0.710168 -0.250540
-0.472238 -0.704281 -0.230804
0.011201 -0.708776 -0.687671
-0.013086 0.221887 -0.719132
0.010544 -0.711352 -0.686221
-0.473359 -0.705312 -0.231221
-0.459555 -0.253669 0.253174
0.026778 -0.688894 0.208117
0.014670 0.691275 -0.242238
0.509896 0.714626 0.254787
-0.459968 -0.253963 0.251406
0.014867 0.690577 -0.240775
-0.429273 -0.227715 -0.680216
0.511197 0.715904 0.254939
-0.030554 -0.224542 0.725993
0.509024 0.714353 0.254978
-0.015229 0.220106 -0.719327
0.454186 0.241265 -0.220118
0.448012 -0.226196 -0.698385
0.010137 -0.710621 -0.686664
-0.486458 0.679571 0.208737
0.508136 0.715010 0.254974
-0.472647 -0.703530 -0.232148
-0.468032 0.250242 0.691010
-0.472722 -0.704962 -0.231782
0.007659 -0.710109 -0.684773
0.009027 -0.708888 -0.686125
0.431266 -0.216146 0.199705
-0.466646 0.251959 0.692698
-0.014879 0.221584 -0.719756
-0.430758 -0.226620 -0.682318
-0.474886 -0.704903 -0.231708
0.510110 0.712803 0.255241
0.413652 0.228413 0.699820
0.509926 0.715306 0.255310
-0.486415 0.679302 0.210613
-0.459665 -0.254268 0.251367
0.448068 -0.226890 -0.699862
-0.461370 -0.254713 0.253278
-0.013865 0.221343 -0.719150
0.510857 0.713731 0.253925
0.013677 0.690103 -0.241071
-0.425841 0.220857 -0.209134
0.413316 0.229259 0.698853
0.430905 -0.215641 0.197089
0.509620 0.713630 0.256040
0.452724 0.241329 -0.219366
0.015379 0.690672 -0.240822
0.412244 0.229709 0.697502
-0.486672 0.678914 0.207745
0.027314 -0.689178 0.208756
0.432300 -0.216248 0.197544
0.027943 -0.688188 0.208085
0.446957 -0.227884 -0.698683
-0.475733 -0.702315 -0.230578
-0.015228 0.220150 -0.718108
-0.459165 -0.252646 0.252941
0.453932 0.241921 -0.219020
-0.023583 0.715710 0.697913
-0.030586 -0.224684 0.726894
-0.016116 0.219920 -0.719797
-0.030046 -0.226661 0.726002
-0.486090 0.678605 0.209357
-0.015879 0.221057 -0.720467
0.506834 -0.708585 -0.247564
-0.022482 0.716202 0.699299
0.412339 0.228528 0.698413
0.446128 -0.225901 -0.698408
0.008163 -0.711516 -0.686755
0.508925 0.715880 0.255126
0.432976 -0.216323 0.196080
-0.029599 -0.226059 0.726106
0.431652 -0.216163 0.197729
-0.428994 0.222900 -0.209276
0.431877 -0.216392 0.195463
-0.028287 -0.225310 0.726027
-0.015135 0.219204 -0.719176
-0.474223 -0.703658 -0.230573
0.446512 -0.226347 -0.697482
0.446206 -0.225860 -0.698506
-0.469001 0.252514 0.690912
-0.015548 0.218353 -0.719156
0.451585 0.241698 -0.217336
-0.458913 -0.254816 0.252538
0.028413 -0.688792 0.207197
0.026218 -0.688171 0.207127
-0.458666 -0.253333 0.251653
0.510219 0.714453 0.254685
-0.431632 -0.226505 -0.680942
-0.029468 -0.227188 0.725214
0.008403 -0.710307 -0.686758
0.025931 -0.689329 0.208265
0.014234 0.690750 -0.240415
0.431907 -0.217053 0.196556
-0.484479 0.679433 0.207284
0.506141 -0.709960 -0.248349
-0.013720 0.220834 -0.720511
-0.028567 -0.227415 0.725992
-0.014934 0.219460 -0.721301
-0.486601 0.678341 0.207006
0.452628 0.241370 -0.216572
-0.468109 0.251160 0.691216
0.509101 -0.710549 -0.250001
0.454317 0.241231 -0.217939
-0.030270 -0.224878 0.727509
-0.474302 -0.704895 -0.231450
-0.029613 -0.225998 0.724873
0.412481 0.229320 0.698907
0.509754 0.713577 0.255385
0.014682 0.690731 -0.239134
-0.472736 -0.703792 -0.231928
0.011518 -0.709659 -0.684649
0.414356 0.228439 0.699963
-0.475519 -0.703552 -0.230884
-0.459969 -0.252067 0.252865
0.452866 0.240706 -0.219572
-0.427384 0.222409 -0.209466
0.509583 0.711910 0.253636
0.413299 0.228975 0.698904
-0.431559 -0.226297 -0.682509
0.453011 0.240816 -0.219248
0.452411 0.240354 -0.220266
0.432170 -0.217558 0.199345
-0.029237 -0.224877 0.726910
0.431065 -0.217535 0.197595
-0.459669 -0.254718 0.254007
-0.459344 -0.254022 0.253060
0.027047 -0.690022 0.205033
-0.432123 -0.229655 -0.681002
-0.467697 0.250524 0.691468
0.452261 0.240145 -0.219216
0.509465 0.712778 0.256525
-0.484341 0.678362 0.207259
0.027166 -0.691202 0.206284
0.508267 -0.709648 -0.249911
-0.473328 -0.703799 -0.229184
-0.427945 0.222827 -0.208864
0.010217 -0.709105 -0.685196
0.410517 0.225102 0.697009
0.014543 0.690688 -0.240019
0.507495 -0.710074 -0.249781
-0.460415 -0.254732 0.252014
-0.023275 0.715066 0.699813
-0.427381 0.223111 -0.209000
0.429939 -0.216525 0.196832
-0.429712 -0.228009 -0.681937
0.013427 0.688724 -0.241001
-0.426022 0.222000 -0.209782
-0.472954 -0.704762 -0.231033
0.009852 -0.709284 -0.683374
-0.427841 0.222627 -0.210783
-0.468490 0.251704 0.691499
-0.486369 0.678468 0.206098
-0.458563 -0.252568 0.250582
-0.028638 -0.225252 0.725976
-0.013364 0.219975 -0.717980
0.432163 -0.217073 0.196837
-0.429705 -0.228195 -0.681985
-0.468490 0.250845 0.691971
-0.023117 0.715011 0.695545
-0.468120 0.249997 0.692083
0.009499 -0.711053 -0.686064
-0.020170 0.716904 0.698314
0.412188 0.228343 0.697924
0.454737 0.242592 -0.218116
-0.459970 -0.252372 0.252777
-0.468080 0.250899 0.691370
0.447301 -0.226242 -0.698627
-0.487199 0.678956 0.209371
0.446486 -0.226911 -0.697585
-0.460111 -0.254570 0.252618
-0.469186 0.251544 0.691593
-0.430826 -0.226528 -0.682817
0.412720 0.226947 0.697964
0.507013 -0.709631 -0.250302
-0.015141 0.221795 -0.720131
0.012672 0.690267 -0.239978
-0.467792 0.250752 0.692723
0.026252 -0.689916 0.206588
0.433866 -0.215728 0.196790
-0.473290 -0.707079 -0.230310
0.412750 0.227376 0.699272
-0.432815 -0.226984 -0.682386
-0.486199 0.677994 0.209130
-0.027844 -0.224603 0.725871
0.448068 -0.226824 -0.697672
0.452201 0.240621 -0.218189
