OFF
256 0 0
-0.008595 0.716683 0.690731
-0.509100 -0.742012 -0.226965
-0.448593 0.233201 -0.210797
0.430712 0.234524 -0.224041
0.460409 -0.250966 -0.710662
0.489690 -0.702081 -0.262633
0.461551 -0.251119 -0.709092
0.477495 0.704215 0.263498
-0.458584 -0.242796 0.260600
0.037644 -0.229269 0.704848
-0.459610 -0.242619 0.257725
-0.481373 0.243688 0.684779
-0.480638 0.241209 0.683666
-0.019263 -0.705935 -0.708619
0.476872 0.705219 0.266514
0.430575 0.232797 -0.223604
-0.484546 -0.258558 -0.687690
0.474414 -0.213814 0.230179
0.490755 -0.701380 -0.262255
-0.004111 0.232561 -0.736052
0.476921 0.703702 0.263655
0.040999 -0.227084 0.706111
-0.485210 -0.258182 -0.685780
0.461650 -0.250154 -0.709686
-0.483033 -0.259823 -0.688188
0.040777 -0.227713 0.706695
-0.454179 0.702367 0.232766
0.489736 -0.701293 -0.264054
0.477514 0.703045 0.264994
-0.453623 0.701653 0.230821
0.001821 0.729640 -0.254766
0.476430 0.703130 0.265378
-0.019327 -0.705344 -0.707257
-0.448177 0.232096 -0.214157
0.487463 0.252525 0.731410
-0.460178 -0.242655 0.258559
0.485950 0.255091 0.731167
-0.006468 0.232189 -0.736431
0.004346 0.730007 -0.256167
-0.480081 0.241496 0.684766
0.003932 -0.702900 0.231482
-0.020230 -0.705033 -0.709326
0.039658 -0.225584 0.705193
-0.019628 -0.705734 -0.709049
-0.449342 0.234221 -0.211504
-0.482035 -0.259822 -0.688171
-0.003882 0.229883 -0.736446
0.039924 -0.227250 0.705336
-0.479841 0.241687 0.682631
0.003363 -0.704592 0.230180
0.004566 -0.704816 0.231260
-0.018371 -0.704526 -0.707704
-0.508732 -0.741261 -0.227945
-0.510563 -0.741474 -0.228352
0.005453 -0.704254 0.231308
-0.457458 -0.244196 0.257710
0.428436 0.232169 -0.225307
0.006235 -0.705391 0.230221
0.040455 -0.227180 0.707212
-0.482328 -0.258526 -0.688242
0.003476 0.730228 -0.254749
-0.459443 -0.243538 0.259863
0.485673 0.252113 0.731860
-0.009575 0.717009 0.688971
-0.018933 -0.704776 -0.708673
0.473619 -0.213831 0.230604
0.490438 -0.700867 -0.264951
0.003007 0.729570 -0.255690
-0.016909 -0.705702 -0.707604
-0.460010 -0.243178 0.258368
-0.004851 0.232193 -0.736027
0.430451 0.232274 -0.226970
-0.452812 0.701411 0.233281
0.485006 0.253158 0.731815
-0.482601 -0.258974 -0.688053
-0.454945 0.701177 0.231794
0.489599 -0.701287 -0.263368
-0.004615 0.231457 -0.736342
-0.459449 -0.242755 0.258933
0.004443 -0.703570 0.231368
-0.008400 0.718330 0.689192
-0.447243 0.233330 -0.212816
-0.004470 0.232151 -0.737623
-0.460906 -0.242871 0.260310
-0.508809 -0.740784 -0.230337
-0.005256 0.232477 -0.738140
0.486898 0.251941 0.729206
-0.019224 -0.706660 -0.706480
-0.004385 0.232403 -0.737902
0.003828 -0.704517 0.231382
-0.453015 0.703416 0.231902
0.002975 0.729886 -0.255255
0.459660 -0.252412 -0.709224
0.429156 0.232438 -0.225813
-0.454375 0.702338 0.230288
0.459815 -0.251209 -0.711627
0.003969 -0.702903 0.232628
-0.008467 0.717959 0.690287
0.477093 0.702246 0.265058
-0.484605 -0.259697 -0.685372
-0.507348 -0.740673 -0.228712
0.460003 -0.249957 -0.712204
0.472939 -0.212606 0.230297
0.003952 0.729852 -0.255111
-0.483370 -0.258974 -0.686105
-0.453283 0.702143 0.233239
-0.460080 -0.242617 0.260221
-0.005226 0.230696 -0.737059
0.004163 0.727049 -0.252822
0.478497 0.705048 0.267405
0.485453 0.253984 0.731181
0.474675 -0.211848 0.229565
0.489822 -0.700393 -0.264633
-0.018474 -0.706718 -0.708391
0.040928 -0.227936 0.706445
0.458826 -0.251195 -0.712569
-0.509671 -0.740321 -0.227762
0.489238 -0.699364 -0.265913
0.038987 -0.228054 0.706281
-0.458313 -0.243733 0.258170
0.478093 0.702159 0.263552
0.474550 -0.213402 0.227774
-0.481979 -0.257838 -0.686870
-0.459842 -0.242462 0.258777
0.431491 0.232569 -0.225611
0.002404 0.729356 -0.254661
0.004113 0.729171 -0.254396
-0.509266 -0.738680 -0.228539
0.487484 0.253027 0.732492
-0.004666 0.231909 -0.737667
-0.480051 0.239821 0.684576
0.473736 -0.212543 0.227786
-0.508563 -0.740647 -0.228693
-0.484049 0.241330 0.683651
-0.447297 0.234336 -0.211889
-0.017925 -0.705419 -0.708008
-0.482314 -0.259324 -0.687533
-0.005700 0.231031 -0.737323
0.487248 0.254979 0.730187
0.460091 -0.251417 -0.710928
0.459122 -0.250792 -0.710634
-0.458876 -0.242328 0.259448
-0.452640 0.702741 0.230979
-0.007578 0.717152 0.691092
0.460230 -0.251654 -0.712050
0.002368 0.730777 -0.252750
-0.017759 -0.705050 -0.708030
-0.481758 0.242289 0.684039
-0.453071 0.701684 0.233599
-0.480834 0.239980 0.685273
-0.017685 -0.706976 -0.709398
-0.479474 0.240719 0.683914
0.040466 -0.227576 0.706614
-0.017810 -0.703995 -0.708701
-0.005322 0.232055 -0.736972
0.004758 -0.705075 0.230724
0.004825 -0.705053 0.232960
-0.019391 -0.706167 -0.709391
-0.449354 0.234296 -0.213171
0.488448 -0.700256 -0.264675
-0.007990 0.716883 0.690868
-0.005255 0.717603 0.688810
-0.454088 0.701702 0.231849
0.005949 -0.705084 0.231478
0.430565 0.232183 -0.224550
0.487545 -0.701158 -0.264625
-0.453549 0.699705 0.231949
0.004172 -0.703519 0.230230
-0.019522 -0.704191 -0.706773
0.487327 0.253901 0.729366
0.485095 0.252211 0.730298
0.002446 0.728729 -0.255490
-0.454178 0.703528 0.233311
0.489891 -0.698942 -0.263193
-0.018561 -0.706070 -0.709002
0.004873 -0.704724 0.231899
0.459566 -0.249398 -0.710121
-0.508204 -0.741732 -0.228707
0.003037 -0.707423 0.232133
0.002406 0.728734 -0.256305
0.489814 -0.700833 -0.263804
0.004344 -0.704245 0.230417
-0.449413 0.232004 -0.210979
-0.482064 0.242921 0.684102
-0.484905 -0.257109 -0.685220
-0.481437 0.241040 0.684397
-0.018528 -0.704460 -0.709189
-0.454371 0.701692 0.231548
0.476797 0.702750 0.266905
-0.447129 0.234714 -0.212882
0.486609 0.253742 0.730617
0.004165 -0.704898 0.230478
-0.458267 -0.242507 0.257849
0.475191 -0.212526 0.229201
0.042565 -0.228509 0.705113
-0.456001 0.704056 0.231820
0.460297 -0.251504 -0.710805
-0.451547 0.702693 0.232790
0.472948 -0.211966 0.229818
0.489315 -0.700822 -0.265188
-0.018687 -0.704709 -0.707949
-0.509802 -0.739213 -0.229327
0.002350 0.729792 -0.255797
-0.509297 -0.740055 -0.228523
0.430531 0.233083 -0.225724
-0.482376 0.240375 0.685183
0.484374 0.252964 0.731581
0.429539 0.232729 -0.223779
0.488828 -0.700229 -0.264559
0.473970 -0.213877 0.230847
-0.457152 -0.243264 0.259784
0.474707 -0.213995 0.227703
0.475653 -0.213876 0.228519
0.474520 -0.213300 0.231433
0.473123 -0.212586 0.230863
-0.005640 0.231378 -0.737904
-0.005941 0.231520 -0.736787
-0.510138 -0.740681 -0.228694
0.488721 -0.701385 -0.264233
0.430359 0.233050 -0.225028
-0.484473 -0.259790 -0.686104
0.003106 0.728603 -0.253356
-0.479510 0.239757 0.683827
0.040329 -0.227950 0.706091
-0.019489 -0.707412 -0.708771
-0.453290 0.701046 0.232053
0.429513 0.230071 -0.225661
0.484314 0.252542 0.731267
0.488702 -0.702675 -0.262589
0.475256 -0.212173 0.231541
-0.019589 -0.705461 -0.707522
-0.004537 0.231004 -0.737842
0.489373 -0.699991 -0.264784
0.476306 0.704712 0.265564
-0.481159 0.242452 0.685870
-0.485737 -0.259386 -0.687708
0.476533 -0.213088 0.230279
-0.484817 -0.258546 -0.686938
0.476405 0.701830 0.264732
0.039011 -0.227371 0.704892
0.003051 0.727641 -0.254324
0.477340 0.702503 0.265755
0.430435 0.230895 -0.224349
0.431064 0.231416 -0.226753
-0.006630 0.717103 0.689914
-0.017892 -0.704684 -0.709987
0.002045 0.726794 -0.255016
0.041206 -0.226940 0.705422
0.040882 -0.226987 0.704420
0.460082 -0.250451 -0.711111
-0.005958 0.232676 -0.739212
-0.481107 0.241600 0.682708
0.006838 -0.705129 0.232072
0.430128 0.234067 -0.224997
0.474233 -0.214031 0.230982
0.475137 -0.214232 0.230877
