OFF
256 0 0
0.466575 0.212273 0.734483
-0.472348 -0.216191 -0.648171
-0.008341 0.243351 -0.701405
0.477859 -0.714464 -0.257400
0.467910 0.212526 0.735354
0.506188 0.235960 -0.235077
-0.463656 0.710694 0.249430
0.449902 -0.255401 -0.693845
-0.004733 0.685901 0.729017
0.477303 -0.713576 -0.256093
-0.467418 0.251210 -0.219480
-0.453485 0.244530 0.685342
-0.468998 -0.217344 -0.649664
0.000561 0.679565 -0.216579
0.012485 -0.719584 0.215728
-0.003424 -0.711982 -0.672498
0.449773 -0.255593 -0.691969
0.013890 -0.717953 0.217076
-0.005578 -0.213871 0.670751
-0.004522 -0.213449 0.670409
-0.453271 0.244753 0.686586
-0.009125 0.243941 -0.700278
0.449745 -0.257162 -0.694520
0.452054 -0.256830 -0.691935
0.444609 0.668607 0.246901
-0.004172 0.684593 0.730045
-0.472370 -0.216546 -0.649229
0.417356 -0.167998 0.183871
0.449611 -0.257655 -0.693890
0.013977 -0.716812 0.217765
-0.003242 -0.212546 0.669504
-0.000956 0.681613 -0.220526
-0.454168 0.243406 0.684992
0.421157 -0.167967 0.186152
-0.005369 -0.710801 -0.672603
0.476944 -0.713614 -0.256298
-0.007641 0.243746 -0.702364
0.505936 0.236816 -0.233722
0.420769 -0.168479 0.186637
-0.004364 -0.711063 -0.671750
0.506639 0.236833 -0.234895
-0.004118 -0.213681 0.670779
-0.007942 0.243615 -0.701800
0.442930 0.667426 0.248262
-0.465985 0.251243 -0.220120
-0.453957 0.245755 0.684101
-0.000075 0.678889 -0.218437
0.014022 -0.719890 0.218307
-0.004021 -0.710283 -0.673707
0.450383 -0.257308 -0.693110
0.445367 0.667505 0.246945
0.452774 -0.256162 -0.693420
0.014801 -0.719636 0.217303
-0.008084 0.244897 -0.702485
-0.487291 -0.711827 -0.265634
0.445275 0.667358 0.247137
0.011349 -0.719622 0.215316
-0.473473 -0.216242 -0.650192
-0.010763 0.245194 -0.701903
-0.417774 -0.224800 0.195085
-0.465787 0.253934 -0.220030
-0.486722 -0.711719 -0.267631
-0.454808 0.243954 0.684306
-0.470928 -0.217874 -0.649555
0.013684 -0.721177 0.214526
-0.453233 0.245597 0.685820
-0.486050 -0.709375 -0.265459
-0.002491 -0.212848 0.671165
-0.416447 -0.224308 0.194260
0.478182 -0.712919 -0.255914
-0.004246 -0.712788 -0.672020
-0.452324 0.247771 0.684725
-0.466622 0.710410 0.247952
0.506912 0.237600 -0.235156
0.015713 -0.719133 0.216591
-0.467236 0.252865 -0.219872
-0.007193 0.244640 -0.702888
0.451414 -0.254564 -0.693433
0.477977 -0.715708 -0.256461
-0.002767 -0.213491 0.671024
-0.467497 0.253418 -0.220099
0.507119 0.238499 -0.234291
0.419312 -0.168221 0.184734
0.478007 -0.713201 -0.255367
0.420825 -0.171239 0.186133
-0.000527 0.679257 -0.221653
-0.005306 0.685661 0.727212
-0.466389 0.252867 -0.217902
-0.002179 0.679044 -0.217975
-0.005666 -0.712487 -0.671411
-0.486342 -0.711092 -0.266212
-0.003522 -0.211617 0.671392
0.449103 -0.256949 -0.693926
0.450890 -0.256097 -0.691719
0.466865 0.213684 0.736685
0.443313 0.669338 0.248387
0.014894 -0.719594 0.217005
0.014990 -0.717830 0.215929
-0.486341 -0.710830 -0.265433
-0.487425 -0.709831 -0.264769
0.000355 0.678424 -0.220337
-0.006417 0.243022 -0.700834
-0.003448 -0.712489 -0.673596
0.506196 0.236877 -0.235241
0.451118 -0.256252 -0.692407
0.443944 0.668393 0.247368
-0.005437 -0.215909 0.668833
0.443170 0.668823 0.248532
0.443798 0.668515 0.247323
0.479478 -0.713262 -0.255728
0.015719 -0.719623 0.216629
0.421224 -0.170706 0.184405
-0.462959 0.710727 0.248829
0.443177 0.668957 0.246486
-0.005817 -0.712253 -0.672183
-0.464444 0.707842 0.250879
-0.472735 -0.217282 -0.648470
0.451225 -0.255266 -0.692213
-0.004474 -0.212023 0.670648
0.479285 -0.711774 -0.255550
-0.487569 -0.710671 -0.265736
0.507868 0.237100 -0.235459
0.452349 -0.257147 -0.692132
0.014008 -0.719066 0.217214
-0.473448 -0.217801 -0.649124
0.450551 -0.257239 -0.693768
0.421349 -0.169276 0.184122
-0.004767 -0.213681 0.670065
-0.003262 -0.213274 0.669847
0.013338 -0.720488 0.217563
0.443068 0.667355 0.247964
-0.004238 0.686110 0.727113
0.013468 -0.720248 0.217462
-0.486103 -0.710949 -0.266372
0.466948 0.213204 0.735552
-0.464314 0.709453 0.248160
-0.466251 0.711564 0.247455
-0.000343 0.680218 -0.220232
0.466792 0.213894 0.732232
-0.417798 -0.224993 0.195750
-0.488117 -0.709693 -0.264581
0.450512 -0.255663 -0.693590
0.468044 0.211820 0.734669
-0.454448 0.245294 0.686615
0.478182 -0.713631 -0.256802
0.013915 -0.720085 0.215113
0.420217 -0.169132 0.185644
-0.417436 -0.224456 0.193933
-0.487024 -0.710276 -0.264864
-0.453582 0.245715 0.683796
-0.003940 0.686946 0.728484
-0.004446 -0.710489 -0.671457
-0.452834 0.245793 0.683990
0.509228 0.235709 -0.233869
-0.001123 0.680125 -0.219188
-0.006923 0.244040 -0.702437
-0.001889 0.682508 -0.218630
-0.451730 0.245841 0.685015
0.445264 0.668540 0.245800
-0.417705 -0.224733 0.195092
-0.464971 0.709240 0.249383
0.506225 0.237194 -0.234688
0.504393 0.236251 -0.235364
-0.007534 0.243565 -0.701731
-0.468479 0.251121 -0.220541
-0.008005 -0.212430 0.667968
0.444371 0.667742 0.247707
0.450142 -0.257404 -0.693855
0.014947 -0.715939 0.216314
0.467263 0.213658 0.736579
-0.418204 -0.225291 0.195565
0.508049 0.236316 -0.235570
-0.453552 0.245132 0.686203
0.445871 0.668541 0.247018
-0.466682 0.253318 -0.220610
0.014756 -0.718609 0.217152
-0.451702 0.245131 0.685149
-0.000918 0.678308 -0.218912
0.478935 -0.714756 -0.255733
-0.453220 0.246833 0.684704
-0.464653 0.709036 0.246527
-0.455605 0.246619 0.684946
-0.486586 -0.709577 -0.266145
0.015097 -0.718436 0.216566
0.450812 -0.258428 -0.691458
-0.005747 -0.213494 0.670298
0.507196 0.236878 -0.234660
-0.486839 -0.708183 -0.265276
-0.453362 0.246139 0.685917
-0.462658 0.711810 0.249945
-0.008744 0.243834 -0.703161
-0.487159 -0.710380 -0.264666
-0.004183 0.684276 0.727023
0.419593 -0.168117 0.185289
-0.003110 0.680214 -0.219164
-0.008345 0.244287 -0.701606
-0.485875 -0.710830 -0.264323
-0.001240 0.680576 -0.219870
0.477857 -0.715545 -0.255656
-0.466775 0.251964 -0.218636
-0.486477 -0.710311 -0.265666
-0.453677 0.244223 0.683263
0.421389 -0.169152 0.186445
0.015542 -0.719036 0.218260
0.420426 -0.168478 0.185373
-0.486440 -0.711093 -0.265472
0.451681 -0.256130 -0.693686
-0.417380 -0.224254 0.196611
-0.002133 0.679250 -0.220459
-0.454947 0.244376 0.685751
0.445299 0.667179 0.246884
-0.003060 0.678861 -0.219486
0.468537 0.211965 0.735237
-0.471166 -0.216364 -0.649575
0.012931 -0.719387 0.217801
-0.003297 0.685489 0.727824
0.450758 -0.256464 -0.693802
-0.417798 -0.226304 0.197335
-0.465449 0.711935 0.250976
0.442718 0.668636 0.248699
0.014123 -0.719243 0.218150
-0.003285 0.685796 0.727127
-0.004325 -0.711888 -0.671762
-0.416644 -0.224977 0.194985
-0.485340 -0.710316 -0.265572
0.467722 0.214249 0.735805
-0.000557 0.681188 -0.219720
-0.487801 -0.711164 -0.266313
-0.001915 0.680126 -0.218503
-0.002695 -0.212507 0.668920
-0.005086 -0.214553 0.670781
-0.005406 0.684604 0.727948
0.468064 0.213518 0.735914
-0.454356 0.245090 0.683844
0.443360 0.670770 0.246238
0.419147 -0.166842 0.186092
0.477420 -0.713533 -0.258242
0.450082 -0.256888 -0.693835
0.506417 0.238489 -0.236245
-0.006479 -0.712479 -0.672265
-0.003814 -0.712884 -0.672810
-0.470836 -0.217444 -0.649390
0.468156 0.212372 0.736010
0.442882 0.667595 0.246136
0.468880 0.213888 0.734384
-0.487386 -0.712352 -0.266156
-0.006186 0.242736 -0.700718
-0.004675 -0.711474 -0.673067
-0.415478 -0.224510 0.194415
0.419443 -0.168207 0.185521
-0.416042 -0.224150 0.195245
-0.415859 -0.226194 0.196754
-0.463870 0.709797 0.247622
0.452342 -0.256571 -0.693759
0.478292 -0.714914 -0.255631
-0.450687 0.245698 0.684045
