OFF
256 0 0
0.472580 -0.706700 -0.236936
0.470781 -0.709159 -0.236835
-0.472182 -0.707394 -0.235431
0.471675 -0.705574 -0.234984
0.471607 -0.235105 0.234997
-0.001596 0.233843 -0.705423
-0.470705 -0.234545 0.236196
-0.470796 0.236428 0.706851
0.470968 0.706560 0.235395
-0.472250 -0.236715 -0.706789
-0.472123 0.706441 0.235575
-0.471633 -0.235820 -0.709323
-0.000194 -0.707223 -0.705890
-0.468889 -0.235405 -0.707037
0.001364 0.706405 -0.236025
-0.000058 0.706877 0.708824
-0.472499 0.706797 0.236482
-0.470942 -0.234630 -0.706715
0.470390 -0.707567 -0.236960
0.471705 -0.235822 0.236295
0.000347 -0.706261 -0.707847
0.473123 0.234613 0.709135
-0.001392 -0.707426 0.234876
0.471287 0.238527 0.707165
-0.471664 0.234546 0.707593
0.000309 0.705403 0.705775
-0.471365 -0.234132 0.235821
-0.002028 -0.235486 0.705420
0.000873 -0.706069 0.234941
0.470836 -0.236472 0.235252
0.470933 0.706555 0.237468
-0.471887 -0.235400 0.236404
-0.000993 -0.236604 0.709062
-0.000536 0.707186 0.707463
0.471478 -0.708041 -0.236433
-0.000270 -0.706889 0.236768
0.472468 0.233438 0.707785
0.472521 0.235388 -0.236615
-0.470299 0.708803 0.234976
-0.471433 0.235444 0.707698
-0.470738 -0.236216 0.235501
0.473519 -0.707309 -0.236644
0.470650 -0.236140 -0.707220
0.000588 0.706509 -0.235469
-0.471769 -0.235022 -0.708909
0.001640 0.706634 -0.234954
0.000197 -0.706154 0.236236
0.472251 0.233435 0.707778
0.001245 0.707052 0.705735
-0.472641 0.233569 0.707694
-0.471667 -0.234593 -0.706762
-0.470849 0.707004 0.234383
-0.471901 -0.707497 -0.236909
0.472268 0.235001 0.708045
0.000571 -0.705794 0.235337
-0.471081 -0.233301 0.235778
-0.471546 0.236046 -0.235795
-0.001203 -0.236908 0.707821
0.471490 -0.235957 -0.708034
-0.001157 0.707578 0.706799
0.470889 -0.236068 -0.706446
-0.471708 0.237396 0.706014
0.472817 0.704690 0.236509
-0.470802 0.235445 -0.235423
-0.471670 0.706128 0.237299
-0.470236 -0.236339 -0.706556
0.471690 -0.235738 0.237056
0.000339 0.235659 -0.705879
-0.001095 -0.234646 0.705486
-0.472238 0.706387 0.237619
-0.471334 0.235405 -0.234493
0.469570 0.706619 0.235816
-0.470871 0.706879 0.236095
-0.472533 -0.707690 -0.233772
-0.470804 -0.237183 0.234573
-0.000126 -0.709521 0.234364
0.470185 0.235207 -0.235481
-0.471001 0.235435 -0.236191
-0.000025 -0.235237 0.706690
0.000489 0.707768 -0.234887
-0.002500 -0.708785 -0.707161
0.472233 -0.706518 -0.235638
0.471871 -0.235150 -0.708034
-0.000419 -0.707346 -0.706575
-0.472397 -0.709854 -0.235098
0.469932 0.235806 0.707303
-0.000046 -0.708697 -0.707411
0.001359 -0.706662 -0.706654
-0.471197 0.235759 0.705999
0.472396 -0.235803 0.238073
0.470890 0.236384 0.705331
0.000065 0.708458 -0.236549
-0.470487 0.235842 -0.235559
0.470534 0.236011 -0.236042
0.471052 -0.234288 -0.706562
0.472145 0.237439 0.706310
0.469926 0.234917 0.706727
0.001327 0.235930 -0.707865
-0.470359 -0.705943 -0.236292
0.472788 -0.236319 -0.707380
0.470497 -0.234926 -0.707117
0.000555 -0.707365 -0.706175
-0.470989 -0.234504 -0.707325
-0.000832 -0.707349 -0.707461
0.471852 0.237257 -0.236863
0.471471 -0.237376 -0.705077
-0.000959 0.706343 -0.233755
-0.471760 -0.707167 -0.235692
0.472389 -0.235759 -0.709283
0.472130 0.237979 -0.234352
-0.470228 0.234204 -0.233833
0.000589 0.706816 0.706456
0.000816 0.708316 -0.236191
-0.000291 0.235263 -0.705219
-0.469539 0.236255 -0.236222
-0.471771 0.707741 0.236749
-0.471861 0.235360 0.707506
-0.470859 -0.706943 -0.238210
-0.471021 -0.236224 0.235688
-0.000448 -0.708210 0.236608
0.471368 0.707998 0.235523
-0.471738 -0.706471 -0.236714
-0.472328 0.236029 -0.237624
0.472340 0.235902 0.707680
-0.471182 -0.706947 -0.236809
0.470575 0.706053 0.235805
0.469902 0.235623 -0.237026
-0.472083 -0.708594 -0.235954
0.470323 0.235927 0.707718
0.000246 0.708426 -0.236924
0.471884 -0.235680 -0.706641
0.470275 0.705256 0.235655
-0.472339 0.234497 -0.237577
0.000369 -0.705234 0.236234
0.000224 0.236826 -0.708125
-0.000043 -0.705096 0.234296
0.471064 0.236352 0.706442
-0.001100 0.708140 -0.235847
-0.470663 -0.706072 -0.233571
-0.470321 0.237202 -0.236533
0.000331 0.706917 -0.235204
0.470105 -0.234068 0.238380
-0.471517 -0.236739 -0.707577
-0.470944 0.707633 0.235102
0.469836 0.707283 0.235063
-0.000599 0.234937 -0.709688
0.471654 0.236128 -0.235448
-0.471872 -0.707316 -0.237413
-0.000066 -0.706943 -0.706971
0.000279 -0.707371 -0.707653
0.471925 0.235360 0.705284
-0.000415 -0.708800 0.235275
0.471009 0.236099 -0.235475
-0.471469 -0.235314 -0.706197
0.471478 0.235110 0.705588
-0.472205 -0.236293 0.236029
-0.470398 -0.233437 -0.706377
-0.000443 0.705935 0.707315
0.000084 -0.233401 0.705947
0.471950 -0.706072 -0.236267
-0.472499 -0.235148 0.235962
0.472439 0.707538 0.235955
-0.470464 0.708951 0.235257
-0.000010 -0.235742 0.707166
0.470205 -0.235856 -0.704287
0.000310 -0.235523 0.706784
0.470589 -0.236329 0.235642
-0.000185 0.705557 -0.235795
-0.470717 0.235848 -0.234465
-0.001498 0.707525 -0.237365
-0.471459 -0.236816 0.234817
0.472372 -0.707566 -0.236940
-0.472453 0.708213 0.235324
0.470400 -0.705445 -0.234996
0.473558 0.236055 -0.235806
0.000258 -0.235426 0.707820
-0.471353 0.235353 -0.237413
0.472687 0.237505 -0.235493
0.471557 -0.233852 0.234374
-0.000293 -0.235599 0.706277
-0.469632 -0.707609 -0.233493
-0.473020 0.233840 -0.235045
-0.471413 0.708315 0.235577
-0.000323 -0.234737 0.707262
-0.000264 -0.708153 0.236666
-0.471047 -0.706460 -0.235550
0.000240 -0.236510 0.705414
0.000371 0.707461 0.706015
-0.469677 -0.706359 -0.238061
-0.472927 0.706323 0.235303
0.471545 -0.706749 -0.236045
-0.000543 0.707624 -0.235788
0.472125 0.707552 0.234254
0.470236 0.707718 0.235755
0.470165 0.235725 0.707315
0.471588 -0.706041 -0.236870
0.472269 0.708333 0.237595
0.000995 0.707504 0.707142
0.473926 -0.234975 0.233338
-0.471023 0.706837 0.234054
0.469572 -0.235460 -0.705921
-0.469440 0.235205 -0.235696
-0.471685 0.705601 0.235980
-0.471421 -0.237149 0.234897
-0.469652 -0.707413 -0.236124
0.469578 -0.237127 0.235721
-0.472209 0.707534 0.235512
0.000195 0.707073 -0.235658
0.000797 -0.707077 0.236722
-0.470840 -0.707071 -0.235178
-0.000085 0.236212 -0.709024
0.472047 0.236448 0.706414
-0.471057 -0.235372 -0.708162
-0.470791 0.236117 -0.236650
0.473119 -0.706239 -0.237263
-0.000645 -0.236084 0.706038
0.473126 0.708522 0.237668
-0.470664 -0.235871 -0.707809
0.471301 0.235588 -0.236783
0.472909 -0.235783 -0.708254
0.000595 -0.235371 0.706969
-0.470325 0.236664 -0.235595
-0.470504 -0.235355 0.234569
-0.000310 -0.234395 0.704978
0.001476 0.234072 -0.705797
-0.471865 -0.234269 0.236218
-0.472498 -0.236648 -0.706547
0.471714 -0.237057 0.233709
0.471196 0.708427 0.236696
-0.470500 0.708605 0.235510
0.470613 0.237101 -0.235933
-0.472001 0.235624 -0.236563
0.000370 0.234314 -0.706538
0.471990 -0.236684 -0.707283
0.471075 0.707954 0.236210
-0.472472 -0.707361 -0.235604
-0.470960 0.707023 0.235099
0.000886 -0.708116 0.234615
-0.472234 -0.234603 0.237313
-0.471447 -0.237198 0.234271
0.000869 -0.707230 -0.704143
-0.470245 -0.235015 0.234440
-0.000578 0.706693 0.706789
0.000891 -0.708039 0.236654
-0.000636 -0.707505 0.235390
-0.000360 0.705287 -0.235770
0.469688 0.237305 -0.236433
0.000601 0.706037 0.706651
-0.471937 -0.235841 -0.706924
0.471991 -0.235403 -0.708373
-0.000029 0.707298 0.707587
-0.472671 -0.235282 -0.705917
-0.001811 0.235927 -0.707727
0.000250 -0.708289 -0.705729
0.470125 0.707193 0.233709
-0.470690 0.235270 0.708299
