OFF
256 0 0
-0.446077 0.256177 -0.250655
-0.447612 0.255543 -0.248538
-0.463101 0.649930 0.220049
-0.456961 0.242208 0.673172
0.439598 -0.219449 0.246241
-0.429208 -0.671623 -0.225722
0.000230 -0.692806 -0.720195
-0.030440 -0.218212 0.694821
-0.439512 -0.224590 0.231340
0.003134 -0.698914 0.256941
0.443327 -0.223798 -0.691379
0.442257 -0.223105 -0.691955
0.014970 0.673557 -0.244500
-0.438853 -0.222106 0.231107
-0.460999 0.650281 0.220623
-0.446274 0.254068 -0.249600
-0.459114 0.241326 0.670172
0.439408 -0.220236 0.245646
0.001862 -0.697919 0.253603
-0.000963 -0.695768 -0.719084
-0.461632 0.650830 0.218411
0.014621 0.674183 -0.243461
0.469036 0.218322 -0.208310
-0.441499 -0.223442 0.230902
0.004298 -0.700252 0.254331
0.420053 -0.662718 -0.211883
0.016055 0.675054 -0.243013
0.013440 0.238615 -0.687823
-0.457290 0.241070 0.672728
0.014820 0.674024 0.689771
-0.436807 -0.244822 -0.665627
0.442073 0.695890 0.214645
0.446876 -0.223681 -0.692822
0.014912 0.676583 -0.243844
-0.430624 -0.668977 -0.226892
0.438804 0.211094 0.682797
0.440699 0.696330 0.212769
0.001952 -0.694915 -0.719390
-0.435354 -0.244835 -0.665465
0.440339 -0.220830 0.245962
-0.436874 -0.244773 -0.664758
0.439460 -0.217785 0.245169
0.443176 0.695886 0.214861
-0.430459 -0.669701 -0.227367
-0.446668 0.255908 -0.249857
0.012638 0.236607 -0.690275
0.439855 -0.218680 0.245965
0.016238 0.675937 -0.244356
0.002334 -0.699423 0.254239
0.015729 0.674655 -0.244566
0.444221 0.695721 0.213444
0.003121 -0.700246 0.253041
-0.431918 -0.670169 -0.226591
0.014460 0.675516 0.689661
0.002982 -0.700405 0.254016
0.016665 0.677294 -0.244060
0.468004 0.217326 -0.209474
-0.000064 -0.694835 -0.718422
0.439079 0.211182 0.684129
0.440347 -0.219781 0.247896
0.441650 -0.221851 0.247561
-0.458033 0.243107 0.671718
-0.447213 0.255002 -0.247990
0.016908 0.675265 -0.244969
0.441689 0.211012 0.681837
-0.444709 0.254097 -0.249073
0.441301 0.696800 0.214803
0.437301 0.209732 0.682395
0.002666 -0.700718 0.254643
-0.456043 0.240450 0.672887
0.002624 -0.699658 0.255462
0.015174 0.236343 -0.688109
-0.440996 -0.225194 0.229657
0.439287 -0.219171 0.246407
0.001303 -0.696445 -0.720087
0.439861 0.209914 0.681482
0.468702 0.218371 -0.210480
-0.457243 0.241444 0.672212
-0.445783 0.253900 -0.249521
-0.438779 -0.222579 0.230861
0.469065 0.218943 -0.209083
-0.432558 -0.246224 -0.664257
0.017115 0.675263 -0.244080
0.438239 0.209811 0.682582
0.003077 -0.700324 0.254438
0.468775 0.217788 -0.207588
-0.460115 0.649915 0.220506
0.442860 -0.223029 -0.692620
0.014733 0.236409 -0.688724
-0.431318 -0.670736 -0.226537
-0.457430 0.240476 0.671980
-0.434646 -0.245627 -0.662820
0.012921 0.237430 -0.689464
0.439273 -0.219924 0.246073
0.437931 0.209960 0.685180
-0.463107 0.649440 0.219909
0.441100 -0.219098 0.245181
-0.440895 -0.222419 0.228663
-0.457571 0.241144 0.672652
0.439093 0.211782 0.684621
0.015601 0.236903 -0.688490
0.440942 -0.220368 0.246725
0.419827 -0.662857 -0.210473
0.443142 -0.223500 -0.694708
-0.437887 -0.245929 -0.665042
0.015898 0.676333 -0.244089
-0.031723 -0.220422 0.692750
-0.462945 0.651007 0.220541
0.437696 0.211536 0.684218
0.015194 0.238029 -0.686961
0.436885 0.209453 0.681554
0.436765 0.211241 0.682364
0.420240 -0.662307 -0.211553
-0.430535 -0.670136 -0.228490
-0.440302 -0.223829 0.231440
-0.457785 0.241224 0.674578
0.468460 0.216115 -0.209318
0.437683 0.211176 0.682791
-0.433863 -0.247263 -0.663707
-0.435831 -0.245471 -0.666263
-0.461451 0.651110 0.219794
-0.455870 0.242661 0.674398
0.440254 -0.217469 0.247144
0.013748 0.236527 -0.689064
-0.461516 0.652561 0.219691
-0.434055 -0.247282 -0.665422
0.014160 0.675725 0.687363
0.014734 0.676686 -0.244651
0.443514 0.695528 0.212360
0.439388 -0.220514 0.245729
-0.462192 0.648845 0.220772
-0.001120 -0.696735 -0.718357
0.469546 0.219173 -0.209366
0.470371 0.217838 -0.207813
-0.000283 -0.696493 -0.720818
-0.439927 -0.225450 0.230185
-0.030368 -0.222081 0.696136
-0.440426 -0.224673 0.230471
0.437638 0.209363 0.683205
0.003767 -0.700013 0.253892
0.442537 -0.224552 -0.693208
-0.441112 -0.221881 0.231358
-0.461287 0.649660 0.220676
0.438135 0.210638 0.683528
0.441596 -0.221906 0.248792
0.442224 0.697111 0.213043
-0.446690 0.255689 -0.249831
0.014567 0.672576 0.689993
-0.431660 -0.671223 -0.228779
0.419734 -0.662771 -0.212317
0.000279 -0.694428 -0.720122
0.443210 -0.221803 -0.691248
0.003277 -0.700289 0.257088
-0.456246 0.239497 0.670279
0.002246 -0.700074 0.253546
0.443261 -0.222480 -0.691863
-0.444846 0.255684 -0.249968
-0.029562 -0.221852 0.695251
0.014652 0.236752 -0.688942
-0.458081 0.243489 0.674052
0.012905 0.672277 0.691764
0.443113 0.695721 0.212233
0.016918 0.676977 -0.243676
0.017064 0.675862 -0.243762
0.000284 -0.696069 -0.718995
0.015914 0.676743 -0.243053
0.438985 0.211757 0.683163
0.014725 0.675406 0.689870
-0.456825 0.241621 0.672745
-0.030708 -0.219985 0.695507
0.439514 0.210190 0.681513
-0.447549 0.254655 -0.249270
-0.447516 0.254917 -0.248343
0.014098 0.239280 -0.688290
-0.430092 -0.668428 -0.225754
-0.436292 -0.245453 -0.665383
-0.431727 -0.668960 -0.227491
0.016213 0.237859 -0.687696
-0.031484 -0.220276 0.694433
-0.000874 -0.695221 -0.718131
-0.031688 -0.221333 0.696149
0.002213 -0.701458 0.253299
-0.460974 0.649149 0.219266
-0.429200 -0.671428 -0.225673
0.443651 0.695288 0.214165
0.016782 0.675462 -0.243205
-0.432898 -0.247058 -0.665554
-0.440443 -0.223201 0.230173
-0.435312 -0.246524 -0.665073
0.441671 0.694618 0.214260
0.421717 -0.663591 -0.209987
-0.431250 -0.668366 -0.225065
0.001958 -0.700690 0.254769
-0.446542 0.256849 -0.250665
0.445244 -0.224966 -0.694026
-0.429839 -0.671094 -0.226047
-0.458818 0.649303 0.219447
-0.457919 0.242431 0.669800
-0.430250 -0.670616 -0.226524
0.014565 0.237314 -0.690773
-0.445569 0.254410 -0.248882
0.000877 -0.696350 -0.719203
0.420903 -0.663228 -0.211374
0.012665 0.676465 0.689061
-0.438507 -0.223039 0.230063
-0.463801 0.650391 0.220704
0.442402 0.696161 0.211512
0.001942 -0.693999 -0.719731
0.467635 0.216995 -0.208799
-0.457185 0.240881 0.673400
0.443396 -0.224454 -0.693902
0.442017 -0.223252 -0.693850
0.436556 0.211525 0.684298
0.420755 -0.662638 -0.210468
-0.457150 0.240678 0.671073
-0.441439 -0.221445 0.229897
0.003151 -0.701025 0.256329
0.438691 0.211593 0.683112
-0.030873 -0.221379 0.695794
-0.457036 0.243212 0.673079
0.442942 0.694917 0.211780
-0.000167 -0.694452 -0.718722
0.467465 0.218143 -0.206972
-0.432839 -0.245089 -0.665269
-0.461249 0.649726 0.218733
0.015137 0.675676 0.689368
0.004082 -0.699999 0.254380
0.442035 -0.216214 0.247264
0.015635 0.676110 0.690026
0.018330 0.675018 -0.243900
-0.434189 -0.246014 -0.665481
-0.434735 -0.244966 -0.665792
0.013114 0.236646 -0.687519
-0.441310 -0.223986 0.231058
-0.462837 0.649844 0.219689
0.014305 0.674743 0.692001
0.014629 0.674678 0.691309
0.442598 -0.223710 -0.692449
-0.000593 -0.694785 -0.719446
-0.430333 -0.670809 -0.227192
0.440973 -0.222173 -0.692906
0.437149 0.209411 0.682262
-0.435923 -0.246846 -0.665208
0.003259 -0.701602 0.254316
0.444152 -0.224284 -0.692356
0.438212 0.212884 0.684405
0.468376 0.218365 -0.207873
-0.461949 0.651370 0.221596
0.014471 0.676255 0.689458
-0.438572 -0.222877 0.229920
0.001473 -0.694346 -0.717292
0.442787 0.694194 0.214323
0.468224 0.218188 -0.206380
-0.431170 -0.669369 -0.226462
-0.434998 -0.245304 -0.663504
0.421719 -0.662871 -0.209139
