OFF
256 0 0
-0.000849 -0.705219 -0.706281
0.707579 0.705756 0.000954
0.000875 0.707948 -0.708588
0.001124 0.708155 0.705812
-0.706337 -0.707206 0.002935
-0.707798 -0.708401 0.001150
0.707412 -0.707794 -0.001488
-0.001051 -0.706669 -0.709358
0.707014 -0.000371 -0.707635
-0.707233 -0.001536 -0.707061
0.706565 0.000470 -0.705335
-0.706817 0.706504 0.000279
-0.707391 0.706156 -0.001106
-0.705831 -0.000461 0.708241
0.708125 -0.000840 -0.707929
-0.000131 0.708130 -0.707027
-0.000015 -0.707833 0.707870
0.000402 -0.705416 -0.709183
0.000464 -0.707571 0.706735
-0.706834 -0.000670 0.705905
-0.707933 -0.001327 -0.706955
-0.706682 0.706927 0.000328
0.000262 0.705992 -0.706288
-0.706493 -0.707034 -0.002150
0.707053 -0.000816 -0.705792
0.705624 -0.707730 -0.001986
0.707437 -0.706752 -0.001092
-0.706041 0.000242 0.707835
0.706969 -0.706618 -0.000537
0.001239 -0.706697 0.707810
0.708305 0.706609 -0.001499
0.002186 0.706553 0.708886
-0.706208 0.000640 0.706727
-0.708044 0.000076 -0.707895
0.706372 0.000080 -0.706331
0.000007 -0.708552 -0.707203
-0.001548 0.706382 0.705504
-0.705640 0.000157 -0.707126
0.708137 -0.000272 0.705685
-0.705914 0.001668 0.704771
-0.706989 -0.708172 -0.000576
-0.707055 0.706198 0.000359
0.001065 -0.706922 0.707654
-0.708257 -0.000486 -0.707430
0.001895 -0.708123 0.707484
-0.705984 -0.001343 0.705582
0.707889 0.706753 0.000214
-0.001583 -0.706956 0.708200
0.000352 0.707576 -0.706777
-0.707653 -0.000922 0.706721
0.000578 0.705959 -0.706794
-0.706290 -0.705438 -0.000907
-0.706374 0.000972 -0.708552
-0.707668 -0.001406 0.706239
0.001765 0.706539 -0.707451
0.706551 -0.707653 0.000219
-0.708754 -0.000569 -0.707008
-0.706474 0.000431 0.707521
0.706050 -0.707723 -0.000219
-0.709008 0.706804 -0.002055
-0.706600 0.706657 0.000218
-0.707390 -0.706787 0.000187
0.706853 -0.705255 0.000397
0.706537 0.000913 -0.706624
-0.001950 0.706406 0.708460
-0.706330 0.000287 -0.707152
0.707229 -0.001662 0.706002
-0.707090 -0.000183 -0.707522
0.707562 0.710405 0.000477
-0.001394 -0.704899 -0.709178
-0.708767 -0.000551 0.707177
0.707753 -0.706634 -0.000141
-0.000321 0.705911 0.706607
0.000990 0.705598 -0.705971
0.706309 0.000174 0.707873
-0.705205 -0.000661 -0.705460
-0.706217 0.000359 0.706872
-0.707475 -0.002505 -0.707834
0.000441 0.707524 0.707191
-0.706933 0.704511 0.000845
-0.706355 0.000311 -0.707117
-0.000278 -0.708495 -0.707226
-0.001913 0.706078 -0.708076
0.705504 0.000488 0.707455
0.706326 -0.001040 0.704795
-0.706487 0.000350 0.707006
0.002434 -0.706283 0.708787
0.707012 0.001279 0.707423
0.709556 -0.707279 -0.000767
-0.708803 -0.000555 0.707804
0.000046 0.708265 -0.707555
0.000526 0.706058 0.707546
-0.707886 -0.707723 0.000500
-0.000974 0.707566 0.707320
-0.707393 -0.705098 0.001524
-0.706700 -0.707550 0.000175
0.707077 0.707868 0.000543
-0.707393 0.705760 0.001211
0.706115 0.001046 -0.706905
-0.001922 -0.707773 0.707432
-0.706492 0.000252 -0.708039
0.705326 0.707113 0.000082
-0.707369 0.705982 0.000289
-0.001084 -0.707168 0.707082
-0.001723 0.707606 -0.707088
0.000062 -0.709050 -0.708732
-0.709545 0.000843 -0.706653
-0.707460 0.000264 -0.706583
0.001543 -0.706439 0.707404
-0.706066 -0.000166 -0.707677
0.707462 -0.706376 -0.001503
-0.708336 -0.000578 -0.707854
-0.000942 0.706391 -0.709346
-0.706036 -0.707666 0.001528
0.707920 -0.708044 -0.001408
-0.706648 -0.707100 0.000008
0.707391 -0.000692 -0.707992
0.001737 -0.706073 0.708557
-0.707330 0.707588 0.000079
-0.706477 -0.705848 -0.000143
-0.000965 -0.705197 0.705986
-0.704669 -0.001599 -0.706684
0.706131 -0.001112 -0.705533
0.000789 0.706049 0.706110
0.000362 0.706198 0.709149
0.705887 -0.706268 0.000620
0.707167 -0.001023 -0.705175
-0.708778 -0.708412 0.000409
-0.707764 -0.001561 -0.707897
0.708588 -0.706090 0.000780
-0.708003 0.707015 -0.000701
-0.707242 -0.705358 0.000628
0.000274 0.706474 0.705043
0.706583 0.001324 -0.707990
-0.707521 0.706350 0.000034
-0.707976 -0.002568 -0.706953
-0.001694 -0.707176 0.706261
-0.001016 0.706593 0.705285
0.706876 -0.706330 -0.000930
0.708364 -0.000480 -0.706014
-0.708828 -0.000438 0.707677
-0.707221 0.705778 0.001139
-0.000449 0.706362 -0.708230
-0.706262 0.706989 -0.001513
0.000418 0.705301 0.707347
-0.708006 -0.000671 0.707292
-0.706678 0.001858 0.706727
0.706122 -0.707895 -0.000077
-0.001484 -0.705570 -0.709367
-0.000239 -0.705831 -0.707341
-0.708413 -0.706245 -0.000974
-0.707312 -0.706177 0.001072
0.705572 -0.000008 -0.705254
0.001195 -0.707523 0.706982
0.707459 -0.000439 0.706639
0.706215 0.000671 0.707860
0.000281 0.708122 -0.707067
-0.709343 -0.001917 0.707054
0.000110 0.706326 0.706578
0.706739 0.001839 -0.707177
-0.707180 0.000787 0.707672
-0.707404 -0.000326 -0.707784
0.708318 -0.000716 0.708876
-0.706771 0.000023 0.707826
-0.000126 0.707717 0.708155
-0.001691 0.706994 0.706896
0.706798 -0.706106 0.000113
-0.706563 -0.000325 0.707401
0.708825 -0.708142 -0.000025
0.000766 0.706708 -0.706560
0.706511 0.001701 0.705223
-0.001498 -0.705539 0.706206
0.708524 -0.707225 0.000484
-0.000322 -0.707713 0.707552
-0.707867 0.707125 0.000261
-0.707833 0.001094 0.706719
0.708057 0.704448 0.002502
-0.000083 0.706705 0.706989
-0.002315 -0.707906 -0.706789
-0.708465 -0.706549 -0.000384
-0.000698 0.706510 0.707944
-0.707123 -0.706700 0.001672
0.000622 -0.707235 0.706235
-0.706487 0.706387 -0.001303
0.000100 0.705909 0.706688
-0.707861 0.705608 -0.000118
-0.000402 -0.705141 0.706423
0.706937 -0.000367 -0.707980
-0.001921 0.706859 0.707412
-0.708623 0.707370 -0.000407
-0.704252 0.001179 -0.706231
0.707196 0.706771 -0.001059
0.707206 0.707312 -0.001267
-0.707755 0.707107 0.000904
0.708511 0.000452 -0.705842
-0.002634 0.707140 0.707864
0.708497 0.707443 0.000280
0.705859 0.000489 -0.706097
0.706448 -0.000542 0.706716
0.706651 -0.706237 -0.001175
0.001886 -0.706572 -0.709155
0.706020 -0.000241 -0.705364
0.000401 -0.707289 0.709225
0.000788 -0.705748 -0.707005
-0.000720 0.705630 -0.707390
-0.705856 0.707137 -0.001203
0.707660 -0.706882 0.000179
0.707156 0.000516 -0.708983
0.707181 0.706104 0.003152
-0.000999 0.706608 -0.706468
-0.708166 -0.000697 0.707224
-0.706871 0.706524 0.000413
-0.000467 0.708470 0.706390
0.000049 0.707677 -0.707949
-0.707652 -0.000383 -0.705888
0.708120 0.002095 0.707686
0.706759 0.000542 0.706699
-0.707535 0.001345 0.705804
0.707395 -0.708872 -0.000713
0.705392 0.708243 0.000732
0.000692 -0.707096 0.706633
0.000414 -0.705966 -0.705777
0.000294 0.705441 -0.707491
0.000739 0.707422 -0.707833
0.706225 -0.708128 -0.000061
0.707129 0.000250 -0.707653
0.708919 -0.708910 0.000018
-0.709026 0.000529 0.707663
-0.000407 0.706879 0.706957
0.707091 -0.000541 -0.708505
-0.709338 0.709629 -0.002331
-0.706041 -0.707413 -0.001007
0.000511 -0.706273 -0.705661
-0.708303 0.000345 0.706981
-0.000946 -0.707788 -0.708004
-0.000077 -0.706754 -0.707634
-0.707558 0.708141 -0.000860
-0.706680 -0.000447 -0.707469
-0.001011 0.706538 0.708170
0.708528 0.709047 -0.000729
-0.001150 -0.707632 0.706800
0.706851 -0.706579 -0.001775
0.708018 0.000057 0.706742
-0.001978 0.707295 0.706032
-0.000590 -0.705882 0.706944
0.705928 -0.001723 -0.708009
-0.707402 0.001408 0.708280
-0.708251 0.001598 -0.706248
0.707243 0.708182 0.001799
-0.706675 -0.705820 0.000820
0.706717 -0.000767 -0.708554
-0.705672 0.708033 0.001377
-0.000145 0.705661 -0.708507
0.000839 -0.707254 -0.706721
0.705493 -0.000486 -0.707010
0.706568 0.708874 -0.002485
