OFF
256 0 0
0.706963 0.001331 -0.707136
-0.000299 -0.705337 0.706968
-0.000496 0.705630 0.706829
0.707401 -0.000180 -0.706255
-0.000830 0.705546 -0.709502
0.707655 0.707171 0.000164
-0.706618 -0.706300 0.001377
0.707703 -0.000422 0.708142
0.707477 -0.706369 -0.001520
-0.706318 0.000696 -0.707504
0.001791 -0.708174 -0.705518
-0.706297 -0.000756 0.706203
0.000517 -0.708139 -0.705906
-0.706740 0.706235 0.001738
0.001942 0.709267 0.707199
0.707731 0.707757 0.001497
-0.708394 -0.706379 -0.000744
0.000337 0.707572 0.706492
-0.000235 0.708634 -0.707184
-0.705978 -0.707349 -0.000877
0.000517 0.706253 0.706672
-0.705044 0.706699 -0.001789
-0.708085 -0.001797 0.708033
-0.001347 -0.707343 0.708344
0.706134 -0.000615 -0.707567
-0.708412 0.706268 0.001441
-0.707987 0.000154 0.707233
0.707087 0.707581 -0.000549
0.706251 -0.706420 0.000755
0.706936 0.705120 -0.001487
-0.000698 0.706338 0.706663
0.707950 -0.706611 -0.000898
0.707673 0.001426 -0.705726
0.705769 0.000462 -0.706669
0.001746 0.706886 0.707965
-0.708111 -0.708038 -0.000693
-0.708566 -0.001051 -0.708701
0.000190 0.706036 -0.707130
-0.708651 0.000438 0.707325
0.001181 0.709296 -0.706701
-0.000173 0.707684 0.705892
0.707775 0.002332 0.705852
0.708920 -0.707828 0.000419
0.707598 -0.000408 -0.707575
-0.000322 0.706188 -0.706684
-0.000644 -0.708064 -0.706625
-0.002226 0.706248 -0.706241
0.706827 0.001122 -0.707783
0.707051 -0.706400 0.000115
0.000358 0.710211 -0.708693
0.000171 0.707148 -0.707491
0.707957 0.000944 -0.706711
0.707428 0.001035 -0.706700
0.703825 -0.000610 0.708751
-0.706156 0.001437 0.705542
0.705605 -0.706227 -0.000846
0.000778 0.707149 0.707020
0.000834 -0.707915 0.706457
0.000337 -0.708869 -0.707475
0.002047 -0.706921 0.706862
0.706785 0.706556 -0.000094
-0.000981 0.708923 -0.707038
0.000533 0.705743 -0.707609
0.707223 0.708681 -0.000848
0.707510 -0.000953 -0.707483
-0.707414 -0.000870 0.706343
0.707368 0.706062 -0.000240
-0.000211 -0.706946 0.707584
-0.707527 -0.000223 0.708225
-0.707319 0.000343 0.707024
-0.705999 0.704452 -0.001709
-0.706837 0.706323 -0.000104
-0.707341 0.000204 0.704226
-0.706037 0.707832 0.001671
-0.707876 0.705698 -0.000522
-0.707237 0.706527 0.000687
-0.000275 -0.706094 -0.706335
-0.706509 -0.706658 -0.000710
0.705781 -0.000147 0.707890
0.708410 0.706918 -0.000423
0.706810 -0.707382 0.001364
-0.001348 0.707210 -0.709015
0.000565 -0.707335 0.707313
-0.708032 0.706334 0.000623
-0.000105 -0.706965 -0.706398
-0.000385 -0.706771 0.707415
-0.707763 -0.707031 -0.001807
0.000362 -0.705400 0.706125
0.000650 0.706390 -0.705459
-0.707847 -0.001092 0.707892
-0.707247 0.706177 -0.000009
0.707304 -0.002017 -0.707904
-0.706642 0.001218 0.706696
0.001776 0.707231 -0.706980
0.000978 0.706030 -0.706905
0.708450 0.707787 0.001749
0.708172 0.000352 0.707926
0.000065 0.706490 -0.707352
-0.705758 -0.000258 -0.706983
-0.000280 -0.706316 -0.707642
0.706171 -0.706538 -0.000106
-0.000251 0.707654 0.708209
-0.705786 -0.000954 0.708148
-0.000975 0.708571 0.706634
-0.001110 0.706730 0.710342
0.708262 -0.708360 0.000036
0.001501 0.707298 0.707920
-0.706834 -0.000674 -0.706556
-0.000069 -0.707388 0.706315
-0.708125 -0.707173 -0.002477
-0.706827 0.705052 -0.001834
-0.000760 0.707727 0.708427
0.001731 -0.708673 0.705355
0.000633 -0.707747 -0.708280
-0.000830 0.707783 0.706270
0.001091 -0.708491 -0.708676
-0.708131 0.707149 0.001206
0.000524 0.705212 -0.706635
-0.705890 -0.000015 -0.706287
0.707208 0.000168 -0.707609
-0.000049 -0.707281 -0.705928
-0.706134 -0.706820 -0.000833
0.705528 0.706009 0.000967
-0.707242 0.708375 0.002408
-0.001033 -0.707593 -0.705724
-0.706580 0.706391 0.000561
-0.706811 -0.707979 -0.001712
-0.707569 0.000423 -0.705924
-0.000390 -0.707458 -0.709453
0.706975 0.707725 0.000752
-0.708589 0.000799 -0.707874
-0.707230 0.000760 0.706925
0.707195 0.705464 0.002243
0.708455 0.000410 0.707497
-0.000582 -0.708034 -0.707228
0.000681 -0.707738 -0.707731
-0.706189 0.000609 0.706637
0.708778 -0.001051 -0.706584
-0.707327 -0.001173 -0.707438
0.707023 0.706036 0.000303
-0.708495 -0.708706 0.002078
-0.001391 -0.706305 -0.706311
-0.000315 0.708169 -0.706473
-0.708630 0.707041 0.000103
-0.706028 0.707561 -0.000930
0.000203 -0.705696 -0.706978
0.707228 0.706506 -0.000685
-0.705785 -0.705527 -0.000214
-0.000174 0.706213 -0.707785
-0.707419 0.000194 -0.706705
0.001526 -0.706293 0.706309
0.000007 0.706957 0.705894
-0.000875 0.708650 -0.706770
-0.707364 0.706182 -0.001556
-0.001695 0.707548 -0.705314
-0.706088 -0.000757 0.705582
-0.706970 0.708537 -0.001108
0.707257 -0.706551 -0.000139
0.000972 -0.708722 0.706353
-0.001058 -0.705864 -0.708204
-0.000772 0.706973 -0.708806
-0.706438 -0.000156 -0.709585
-0.707502 -0.001775 -0.705567
-0.705697 -0.706645 0.000139
0.707713 0.706796 -0.000555
0.706916 -0.706502 -0.001085
-0.002078 -0.707371 0.705900
0.706236 0.001739 0.707107
-0.707461 0.705832 -0.001950
-0.707078 -0.706874 -0.001426
0.710414 -0.000645 -0.707790
0.708628 -0.708229 -0.000810
0.706456 -0.706722 -0.000876
0.707088 0.001937 -0.706855
-0.000826 0.707520 -0.707173
0.707624 0.000643 0.706988
-0.001498 -0.708052 -0.705596
-0.705716 -0.000422 0.708323
-0.706999 0.706750 -0.000104
0.001167 0.706609 0.707072
0.706437 -0.705606 0.000034
-0.001921 0.707133 -0.706709
-0.000874 -0.705980 0.705942
-0.001317 0.707610 0.708728
-0.000089 -0.706346 -0.708041
0.706893 0.000948 -0.707544
0.001349 0.708928 0.706089
-0.707542 0.707714 0.001245
0.706174 0.705992 -0.001801
-0.000020 0.706805 0.707484
0.707106 -0.707299 -0.000343
-0.707979 0.000035 0.708183
-0.002107 0.706264 0.707194
-0.706971 0.001745 0.707298
-0.706170 -0.706066 -0.000740
-0.705977 0.000262 -0.706666
-0.705633 0.000138 0.707958
0.000373 -0.707827 -0.707413
-0.706513 -0.708601 -0.001449
-0.000030 0.706572 0.707531
0.000800 0.706638 0.708309
0.000129 0.705285 -0.706692
0.001244 -0.707911 -0.707318
0.707112 0.708847 0.001586
0.705519 0.705260 0.000185
-0.706349 -0.706727 0.001104
0.000175 -0.705368 -0.707514
-0.000587 0.706095 0.707081
-0.707980 0.707066 -0.000745
0.707267 0.000626 0.709160
0.705211 -0.001338 -0.707307
-0.707024 0.000117 -0.705924
-0.707147 -0.707171 0.000531
-0.708217 0.000429 -0.707701
-0.705567 0.706510 -0.001462
0.705489 0.706297 -0.000896
-0.705709 -0.000629 0.705949
0.707722 0.705515 -0.000122
-0.706673 -0.000185 0.709576
-0.708692 0.708265 -0.000582
0.000286 -0.705322 -0.705356
0.704978 -0.707874 -0.001454
-0.707178 0.706635 -0.001615
0.707762 -0.708107 0.000517
0.707604 0.001498 -0.709692
-0.709576 0.000877 0.707699
-0.707520 0.000900 0.705839
0.706075 -0.705756 -0.000172
0.000410 -0.706308 0.706501
-0.000447 0.707068 -0.708557
-0.000728 -0.707210 0.708287
0.705694 -0.706234 -0.000574
0.708141 -0.706776 0.000338
0.707799 -0.000142 0.707457
0.707498 0.000027 -0.707693
-0.708581 0.707338 0.000420
-0.707366 -0.000841 -0.706650
-0.001210 -0.708452 0.705240
0.706730 0.708123 -0.000148
0.707352 0.002095 -0.707746
-0.000750 0.707044 0.706482
0.706270 -0.000172 0.708169
0.707832 -0.001677 0.706957
0.000854 -0.705279 -0.707762
0.705974 0.707789 0.001445
-0.705966 -0.708096 0.000472
0.707567 0.000372 0.706059
-0.706125 0.707676 -0.000225
-0.000749 0.706143 -0.709518
0.708889 -0.001566 0.708232
-0.706806 0.001135 0.706080
0.705237 0.707545 0.000986
0.000205 -0.709408 0.707997
-0.708418 -0.707294 0.000218
0.707999 0.000541 0.706464
0.705887 0.705966 -0.000839
