OFF
256 0 0
-0.657102 0.018793 -0.655257
-0.018258 -0.669794 0.665954
0.001304 0.675896 -0.663000
0.693412 -0.007640 0.681971
0.020774 0.689705 0.669863
-0.019557 -0.670250 0.664611
0.667854 0.061686 -0.702758
-0.694533 0.667020 0.011433
0.666345 0.061370 -0.704476
0.690434 -0.007442 0.681600
-0.658337 0.018823 -0.654241
-0.659290 0.017540 -0.656013
-0.693314 0.668413 0.009462
0.020519 0.692110 0.667583
0.668451 0.061911 -0.703102
0.002664 0.679502 -0.664175
0.675064 0.681114 0.020511
-0.691365 0.667997 0.011617
0.002977 0.675573 -0.665179
0.666722 -0.671610 0.036882
0.689992 -0.007613 0.679617
-0.670943 -0.740599 -0.006145
-0.018580 -0.668223 0.665316
-0.018733 -0.671367 0.661829
0.665413 -0.672438 0.036240
-0.663821 -0.035092 0.674248
0.675180 0.681125 0.020341
-0.018444 -0.670352 0.664040
0.003300 0.677103 -0.662463
0.667258 0.061993 -0.703302
0.669052 0.060346 -0.702618
0.674782 0.680597 0.022349
-0.659630 0.019183 -0.654791
-0.018898 -0.669220 0.666111
-0.663980 -0.034622 0.673229
-0.693881 0.668469 0.009391
0.004328 0.676972 -0.664280
-0.020627 -0.669331 0.664434
-0.657821 0.016949 -0.656054
-0.657015 0.017750 -0.655672
0.667463 -0.673585 0.037805
-0.662961 -0.036738 0.675992
0.019251 0.690031 0.667350
-0.013167 -0.669260 -0.731167
0.666916 0.062288 -0.704161
0.691256 -0.005093 0.681698
0.018501 0.688982 0.669039
0.665966 -0.673084 0.036220
0.019485 0.690130 0.669208
0.002030 0.678146 -0.663996
0.019799 0.691239 0.668521
0.666373 -0.672309 0.038580
-0.691730 0.666681 0.010842
-0.672456 -0.740047 -0.003452
-0.666445 -0.033393 0.672523
0.667789 -0.672601 0.039270
0.666931 -0.671585 0.039700
-0.014821 -0.668727 -0.732327
0.674266 0.680724 0.021187
-0.655494 0.018072 -0.658398
0.666631 -0.673947 0.037366
-0.670951 -0.740626 -0.006412
0.003841 0.676749 -0.663352
0.001388 0.676078 -0.662299
0.002987 0.677133 -0.663732
-0.694703 0.666475 0.011727
0.692514 -0.006728 0.681692
0.668790 -0.672165 0.036469
0.666442 -0.672105 0.038929
0.019336 0.691054 0.666994
-0.013845 -0.667643 -0.731081
0.691208 -0.006149 0.683522
-0.014878 -0.668442 -0.730771
0.003519 0.676856 -0.662560
-0.655912 0.019341 -0.656103
-0.693298 0.667260 0.012263
0.004708 0.678645 -0.664599
-0.671263 -0.739476 -0.003816
-0.672899 -0.740790 -0.004422
-0.666775 -0.034986 0.673513
-0.018740 -0.670611 0.665618
0.690531 -0.006315 0.684123
0.665593 -0.671547 0.038844
0.689650 -0.007868 0.682668
-0.671059 -0.740736 -0.005863
0.667242 0.062227 -0.702366
0.003631 0.676055 -0.663085
-0.014594 -0.667967 -0.734165
-0.693523 0.667932 0.011470
0.667139 0.062446 -0.703370
0.003133 0.676217 -0.663777
0.666522 -0.672445 0.037865
-0.692273 0.665137 0.012283
0.003636 0.677972 -0.663931
0.002108 0.676612 -0.663496
-0.013765 -0.667959 -0.732993
0.667057 0.062339 -0.703398
-0.672212 -0.740368 -0.006277
0.003383 0.677127 -0.665097
-0.672174 -0.740566 -0.006064
0.021559 0.691393 0.669727
-0.662504 -0.033698 0.674995
-0.657643 0.019262 -0.656616
-0.694430 0.666892 0.010498
0.667153 -0.672196 0.038893
-0.671260 -0.740344 -0.005271
-0.014677 -0.668959 -0.732426
0.019437 0.691906 0.668669
0.666851 -0.672059 0.039528
-0.658859 0.020495 -0.656137
-0.014909 -0.669273 -0.730579
0.674490 0.680641 0.022984
-0.666012 -0.038068 0.674205
0.690514 -0.006482 0.682178
-0.672177 -0.740694 -0.004744
-0.019789 -0.669862 0.664265
-0.020185 -0.669916 0.663285
0.688720 -0.007674 0.682368
-0.014031 -0.669277 -0.731595
0.691610 -0.008449 0.681978
0.666554 0.060870 -0.701300
0.003307 0.677542 -0.663760
-0.019268 -0.669982 0.664475
0.003588 0.676919 -0.665356
-0.014482 -0.668131 -0.732403
-0.015324 -0.669919 -0.730585
0.665760 0.062710 -0.703601
0.004822 0.674839 -0.663698
0.692028 -0.008000 0.683796
0.690493 -0.007247 0.680933
-0.018624 -0.669904 0.664670
0.668264 0.060535 -0.701246
-0.693253 0.667857 0.011147
0.666758 -0.670913 0.037635
0.666840 0.061289 -0.703102
-0.656305 0.019251 -0.657376
0.673022 0.681030 0.022208
-0.692729 0.668610 0.012975
0.674725 0.680078 0.022420
-0.663382 -0.035043 0.674477
-0.656773 0.020088 -0.655567
-0.671141 -0.739934 -0.005272
-0.692324 0.664311 0.010045
-0.665812 -0.034306 0.675680
0.019288 0.690573 0.669334
-0.694601 0.667178 0.012180
-0.013898 -0.668108 -0.731565
-0.669911 -0.740285 -0.004080
0.002159 0.677641 -0.662464
-0.663662 -0.034886 0.673033
0.674407 0.680888 0.021530
-0.655162 0.018574 -0.655323
-0.664214 -0.034608 0.674485
-0.017870 -0.669256 0.663069
-0.018408 -0.670672 0.663229
0.674343 0.678560 0.021057
0.689079 -0.007937 0.681448
-0.663995 -0.035818 0.672283
-0.664113 -0.033180 0.671896
0.017661 0.689533 0.668583
0.015629 0.690736 0.669496
-0.014067 -0.669342 -0.732719
-0.019126 -0.670911 0.665066
0.691247 -0.006641 0.679568
-0.014561 -0.670087 -0.732236
-0.657528 0.018864 -0.655424
0.665865 0.062047 -0.705455
0.667483 0.061334 -0.701089
0.666457 -0.671767 0.039667
0.664323 -0.674093 0.038414
-0.693226 0.667015 0.011488
0.669664 -0.672753 0.037132
-0.670504 -0.740877 -0.006378
-0.672921 -0.743572 -0.006687
0.691687 -0.008972 0.681252
-0.671284 -0.743279 -0.004114
-0.014886 -0.669527 -0.732080
0.691268 -0.008962 0.682248
0.673448 0.680940 0.022509
0.672546 0.679964 0.020909
-0.672529 -0.742302 -0.003301
-0.014121 -0.668747 -0.732096
0.690535 -0.005485 0.682520
-0.693964 0.667743 0.009854
0.668615 0.063403 -0.703605
0.690626 -0.007789 0.683040
-0.665439 -0.033686 0.674607
-0.018773 -0.668720 0.665023
-0.694187 0.665792 0.012016
0.666367 0.061699 -0.704476
-0.655624 0.017591 -0.655335
0.674573 0.680429 0.021572
0.693006 -0.007755 0.681935
0.689042 -0.007252 0.683226
-0.693428 0.668815 0.011594
0.673857 0.680867 0.021814
0.672935 0.679356 0.021650
-0.669125 -0.740664 -0.006801
-0.657320 0.018153 -0.656209
-0.671912 -0.739358 -0.004197
-0.657269 0.017027 -0.656465
-0.657299 0.016182 -0.655833
0.019121 0.689559 0.668262
0.020195 0.692125 0.670321
-0.014234 -0.668245 -0.731743
0.019259 0.688372 0.668240
-0.671701 -0.740560 -0.003088
0.667176 -0.672205 0.038117
0.667345 0.063036 -0.703243
-0.694230 0.666998 0.011349
-0.692738 0.668722 0.011461
-0.014129 -0.669842 -0.732332
0.672932 0.680849 0.022955
0.666153 0.059402 -0.703749
-0.657273 0.016887 -0.655561
0.002899 0.675841 -0.664205
-0.013847 -0.668737 -0.731219
0.666989 -0.673060 0.039199
-0.015209 -0.669566 -0.732051
-0.013805 -0.669831 -0.733156
-0.657376 0.018614 -0.654798
-0.664541 -0.034875 0.673343
-0.021948 -0.668695 0.663789
-0.014916 -0.668503 -0.730562
0.005350 0.676969 -0.664299
-0.665115 -0.034224 0.673814
0.690716 -0.007799 0.681434
0.002748 0.677207 -0.662473
0.004107 0.676764 -0.663370
0.002710 0.679105 -0.663502
-0.693801 0.666493 0.010980
0.690808 -0.007772 0.680447
-0.659051 0.016892 -0.655603
-0.665591 -0.034435 0.673642
0.691650 -0.008663 0.682150
0.018634 0.689282 0.669912
-0.019732 -0.670006 0.665006
-0.693399 0.665866 0.011390
-0.019002 -0.671299 0.663643
-0.664050 -0.036350 0.673673
0.018596 0.689550 0.668914
-0.694024 0.665975 0.011386
0.002805 0.677688 -0.664183
-0.014143 -0.671246 -0.729854
0.690164 -0.007759 0.680144
-0.671281 -0.742111 -0.006172
0.673717 0.678287 0.021095
-0.020215 -0.670521 0.665093
0.004274 0.677997 -0.662726
0.018014 0.690334 0.669530
0.691627 -0.008832 0.681884
0.001704 0.676132 -0.663611
0.002981 0.676796 -0.663282
0.664658 -0.672174 0.038095
-0.672808 -0.740410 -0.004677
0.018118 0.689455 0.667634
