OFF
256 0 0
-0.698311 0.033414 -0.692225
0.653247 0.675976 0.001803
0.008347 0.656262 0.688956
-0.725078 0.645755 0.012899
-0.019632 -0.671356 -0.668844
0.706476 0.000104 -0.681972
0.651034 0.675332 0.003454
-0.702137 -0.016590 0.701940
0.651462 0.676165 0.002229
-0.695378 -0.708862 0.015381
-0.693680 -0.708912 0.014450
-0.694179 -0.709304 0.011482
0.651790 0.675988 0.003046
-0.702563 -0.014749 0.700745
-0.704233 -0.015341 0.700495
-0.696659 0.036320 -0.693000
-0.725185 0.645815 0.011990
-0.703527 -0.015704 0.701389
0.703820 -0.000025 -0.684446
-0.006758 0.699269 -0.690180
-0.696668 0.034270 -0.693142
-0.724826 0.648228 0.013718
0.705061 0.001347 -0.685729
0.018805 -0.643066 0.659772
-0.694139 -0.709715 0.014803
0.752941 0.012898 0.659028
-0.003652 0.702686 -0.690502
0.019458 -0.644494 0.658664
0.752369 0.013660 0.659949
0.714427 -0.688411 -0.002054
-0.697561 0.034409 -0.692706
0.016808 -0.642247 0.658233
0.750644 0.013061 0.660837
-0.703277 -0.014422 0.701213
-0.701620 -0.015516 0.701709
-0.019480 -0.673016 -0.671172
-0.020128 -0.672580 -0.669456
-0.695158 -0.710612 0.013404
0.715801 -0.687748 -0.003882
0.751025 0.013371 0.658700
-0.019038 -0.672618 -0.669526
0.006786 0.659982 0.688207
-0.727111 0.646487 0.012921
-0.005271 0.703291 -0.689242
0.017671 -0.642917 0.657727
0.704735 -0.001483 -0.684144
0.019566 -0.641963 0.660916
-0.694784 -0.708831 0.014455
-0.696462 -0.709513 0.013872
-0.702659 -0.015313 0.701629
-0.019611 -0.673768 -0.670342
0.750037 0.016757 0.661145
-0.695738 -0.710053 0.013965
0.750790 0.015141 0.657967
0.713843 -0.687910 -0.001627
-0.697742 0.033991 -0.693880
0.017236 -0.644028 0.659059
0.714326 -0.687621 -0.001030
-0.019889 -0.672013 -0.671978
-0.727106 0.645865 0.012399
0.751199 0.014420 0.660099
-0.698234 0.034875 -0.692592
-0.020451 -0.673339 -0.670195
0.715436 -0.690810 -0.003232
0.714520 -0.690123 -0.001593
0.653521 0.677293 0.002547
0.007391 0.655466 0.688474
0.652276 0.675639 0.001416
0.007120 0.656094 0.689071
-0.005433 0.700883 -0.691120
-0.007074 0.700214 -0.691729
-0.696995 0.035263 -0.691677
0.712989 -0.688993 -0.001611
0.711878 -0.686427 -0.000451
0.750168 0.015057 0.660927
-0.725096 0.647703 0.011593
0.716733 -0.690903 -0.001991
-0.702224 -0.016123 0.701671
-0.697541 0.035448 -0.692434
-0.704756 -0.016189 0.701463
0.018296 -0.643138 0.661145
-0.007240 0.700171 -0.690333
0.714070 -0.688792 -0.000309
-0.004261 0.701560 -0.690565
-0.697826 0.034887 -0.692917
0.752272 0.014912 0.659457
-0.725197 0.644777 0.010855
-0.697061 -0.708923 0.014045
-0.703553 -0.017529 0.701157
0.703525 -0.000603 -0.682089
-0.703043 -0.017252 0.701275
-0.697322 -0.711890 0.014897
0.706209 -0.000736 -0.683644
-0.702896 -0.014677 0.701801
0.751915 0.014553 0.659842
-0.697565 0.035691 -0.691259
-0.004938 0.699996 -0.690928
0.653865 0.676974 0.001810
-0.698212 0.034689 -0.691449
0.714692 -0.688633 -0.001375
0.716072 -0.687322 -0.001564
-0.021339 -0.672915 -0.671168
0.713719 -0.690442 -0.001391
0.714917 -0.688721 -0.000727
-0.006962 0.700433 -0.689888
0.714612 -0.690304 -0.002700
0.018191 -0.643471 0.657790
-0.695112 -0.709242 0.012612
0.017036 -0.642971 0.660518
0.704512 -0.000719 -0.683526
0.652217 0.676423 0.003442
0.705979 -0.000090 -0.681965
-0.725388 0.648009 0.013487
0.653355 0.678240 0.002459
0.007881 0.656567 0.687203
-0.004148 0.698619 -0.690369
0.653506 0.676531 0.003401
0.650908 0.677895 0.004297
-0.005051 0.700110 -0.689711
0.705296 -0.001180 -0.683232
-0.697606 0.034239 -0.689771
-0.019324 -0.671943 -0.669869
0.006495 0.656573 0.689927
0.652761 0.674369 0.000924
0.751350 0.013948 0.659201
-0.696817 -0.708946 0.015069
0.706090 -0.000287 -0.683112
-0.695103 -0.708908 0.014640
-0.018739 -0.673998 -0.672336
-0.727058 0.646768 0.012693
0.652861 0.675648 0.002203
0.005325 0.659438 0.687630
0.714593 -0.688744 -0.002765
0.006283 0.658375 0.689109
-0.695424 -0.710370 0.012929
0.703803 0.000131 -0.682096
-0.703549 -0.015347 0.701571
0.750143 0.013833 0.661244
0.704920 0.000242 -0.682266
-0.021882 -0.673108 -0.671407
-0.727106 0.647110 0.011572
-0.725602 0.647950 0.010327
0.750935 0.012394 0.659848
-0.694199 -0.708836 0.012171
0.651287 0.676297 0.003106
0.750907 0.013743 0.659979
-0.695425 -0.711487 0.011911
-0.702212 -0.014775 0.703752
-0.696089 -0.709944 0.013933
-0.702622 -0.017185 0.703555
-0.697116 0.033263 -0.692417
0.017128 -0.643872 0.660346
0.019117 -0.643561 0.659197
0.751505 0.014778 0.661384
0.007342 0.657236 0.688265
-0.725697 0.645918 0.011688
0.017572 -0.642575 0.658546
-0.695694 -0.710038 0.013467
0.016882 -0.641765 0.659813
-0.696139 -0.708889 0.013428
0.705073 0.000518 -0.684091
0.005565 0.655451 0.689106
-0.697761 0.036593 -0.692548
-0.005690 0.702324 -0.690163
0.705135 0.000738 -0.684061
-0.020453 -0.673551 -0.670432
-0.703198 -0.013544 0.702474
0.006475 0.656699 0.690658
0.006332 0.657529 0.689455
0.705894 0.001961 -0.684091
-0.725787 0.646848 0.011464
-0.701527 -0.016100 0.701922
0.653832 0.677950 0.004322
0.704280 -0.000071 -0.682798
0.714382 -0.689967 -0.001239
0.004895 0.656940 0.689359
-0.703302 -0.016145 0.702393
0.018321 -0.640385 0.658588
0.752633 0.014142 0.659185
0.652651 0.678435 0.001941
0.017869 -0.642110 0.658705
0.715304 -0.688003 -0.003123
0.705773 -0.000826 -0.682530
0.652241 0.674452 0.003083
0.019618 -0.643643 0.661034
-0.695635 -0.710083 0.014385
0.006930 0.656940 0.687840
-0.725203 0.648420 0.011610
-0.019576 -0.672050 -0.672859
0.705327 0.001100 -0.684143
0.715533 -0.691460 -0.002149
-0.696535 0.033954 -0.691323
-0.704208 -0.013934 0.701765
-0.693930 -0.709418 0.015156
0.714742 -0.687581 -0.000522
-0.725314 0.646565 0.012609
0.704251 0.001147 -0.684279
-0.006071 0.699196 -0.691079
-0.698003 0.034311 -0.690995
-0.696774 -0.709588 0.014987
0.706954 -0.000260 -0.683450
0.019608 -0.643525 0.659563
0.715118 -0.688259 -0.001750
0.751122 0.015116 0.660391
-0.004930 0.700339 -0.690152
0.715472 -0.689624 -0.002243
0.751068 0.012332 0.659670
-0.696131 -0.708484 0.015571
-0.702682 -0.015972 0.701979
0.019035 -0.639819 0.660998
-0.694339 -0.708147 0.013128
-0.020110 -0.672437 -0.669650
0.753489 0.013460 0.660829
-0.019663 -0.672323 -0.670768
-0.726700 0.645939 0.012386
0.751148 0.013690 0.660718
0.749423 0.015337 0.659432
0.019308 -0.642917 0.658516
0.651911 0.674835 0.002507
0.749547 0.015194 0.661428
-0.694862 -0.708682 0.013746
-0.006449 0.700743 -0.691521
0.714790 -0.689999 0.000421
0.006376 0.658072 0.690652
0.752951 0.012833 0.659848
-0.019755 -0.672185 -0.672243
0.653112 0.677181 0.002741
-0.724862 0.646472 0.011669
0.018416 -0.646172 0.660697
0.019519 -0.641104 0.660243
0.715864 -0.689870 -0.000944
0.714238 -0.689090 -0.001581
0.006106 0.654919 0.687790
-0.020266 -0.672843 -0.670148
-0.005040 0.699753 -0.688992
0.653117 0.676805 0.000923
-0.019340 -0.674516 -0.669485
0.750575 0.014681 0.661015
0.653166 0.677862 0.002184
-0.021163 -0.672457 -0.671512
0.705250 0.000135 -0.683830
-0.698591 0.034596 -0.692859
0.017776 -0.642271 0.658774
0.653056 0.676771 0.002752
-0.726219 0.646455 0.012498
0.715581 -0.688682 -0.001883
-0.703365 -0.016656 0.702695
0.751741 0.014146 0.660487
-0.724647 0.646770 0.011353
0.651830 0.676638 0.000768
-0.695721 -0.711838 0.014588
-0.005047 0.700825 -0.691774
0.007183 0.657676 0.689550
-0.726073 0.647832 0.012803
0.019369 -0.643800 0.661124
0.018525 -0.642321 0.659251
