OFF
256 0 0
0.656797 0.658734 -0.009210
0.038532 -0.620681 -0.624949
0.674681 -0.737874 -0.026086
-0.625068 -0.632489 0.009036
-0.689625 -0.024097 -0.650983
0.039181 -0.619277 -0.626269
-0.028185 0.719876 -0.659769
0.002340 -0.695051 0.661985
-0.026105 0.719879 -0.662267
-0.691681 -0.023391 -0.652140
-0.626137 -0.631897 0.010320
0.674151 -0.737138 -0.027211
-0.691066 0.696398 0.022889
0.003519 -0.694904 0.661859
-0.026775 0.721962 -0.660888
0.648963 0.013342 0.641109
0.039174 -0.620402 -0.627549
-0.028080 0.720718 -0.662037
-0.691112 -0.022936 -0.651037
0.648951 0.015716 0.639379
-0.626650 -0.630826 0.008172
-0.691473 -0.023064 -0.650018
0.003205 -0.693612 0.662905
-0.635340 -0.060273 0.688704
-0.627235 -0.632701 0.011149
0.673543 -0.737039 -0.026422
-0.691405 0.696105 0.023362
-0.634118 -0.060059 0.689116
-0.028019 0.721719 -0.662731
-0.690547 -0.022750 -0.650492
0.038960 -0.620422 -0.625054
0.658949 0.660458 -0.009315
-0.633493 -0.059348 0.688411
-0.625509 -0.631261 0.008111
0.657363 0.659005 -0.008977
0.673861 -0.736816 -0.023634
0.648376 0.014956 0.640017
-0.028373 0.719252 -0.661553
0.656244 0.660283 -0.008523
-0.017941 0.656912 0.632857
0.003181 -0.694336 0.663569
-0.625487 -0.631263 0.008831
0.040635 -0.620606 -0.627735
-0.634457 -0.058362 0.687455
0.656588 0.658724 -0.010061
0.647494 0.014208 0.639084
0.039886 -0.620835 -0.627632
-0.632769 -0.059775 0.687646
-0.693043 -0.022967 -0.652243
0.040076 -0.619477 -0.624802
0.664436 0.018833 -0.681984
-0.633252 -0.060628 0.689101
-0.017404 0.657673 0.630332
0.003378 -0.695623 0.661594
-0.689501 -0.022331 -0.650094
0.657630 0.658757 -0.007489
0.003383 -0.694815 0.660858
-0.632908 -0.057899 0.688134
0.664890 0.021986 -0.681974
-0.020022 0.658302 0.633279
0.004983 -0.694856 0.662922
-0.027696 0.721776 -0.661773
-0.625165 -0.631333 0.008738
0.039841 -0.620139 -0.627297
-0.691975 -0.021952 -0.650445
-0.626035 -0.632035 0.009014
0.650201 0.014074 0.639829
0.662512 0.021035 -0.680345
-0.626117 -0.631713 0.010249
0.037774 -0.622088 -0.625278
0.675491 -0.738500 -0.026235
0.649307 0.013924 0.640683
-0.691987 -0.022898 -0.650502
0.038915 -0.619559 -0.625485
0.650163 0.014656 0.640686
-0.691346 -0.024045 -0.650900
0.665244 0.017727 -0.679406
0.656487 0.658444 -0.009946
-0.691071 0.695245 0.022399
-0.624043 -0.632521 0.009179
-0.015996 0.658022 0.632643
-0.625968 -0.633685 0.008735
0.675758 -0.738221 -0.027367
0.648490 0.016473 0.639494
-0.632766 -0.060282 0.687630
0.003923 -0.694144 0.662078
0.002990 -0.695786 0.662469
0.658521 0.658687 -0.006707
-0.633766 -0.059972 0.688480
0.647981 0.015467 0.641323
-0.691341 0.694707 0.022753
0.665022 0.019046 -0.681209
-0.026931 0.719714 -0.661654
0.663907 0.019973 -0.680408
-0.623955 -0.631105 0.009171
0.004367 -0.696439 0.661775
0.004332 -0.695921 0.662325
-0.633491 -0.059929 0.687773
0.665961 0.018939 -0.680841
0.003896 -0.693466 0.662393
-0.028656 0.722341 -0.661618
-0.633227 -0.059761 0.687270
0.040072 -0.620539 -0.626207
-0.625725 -0.633341 0.007771
0.040941 -0.618009 -0.626195
-0.692107 -0.022930 -0.650475
0.039726 -0.619817 -0.627866
0.656360 0.658235 -0.009352
0.664567 0.021663 -0.680444
-0.693025 0.694127 0.023019
-0.624225 -0.632998 0.008726
0.675448 -0.736719 -0.026054
0.663719 0.021143 -0.679373
-0.627030 -0.631909 0.008989
-0.017377 0.658301 0.631093
0.648675 0.014449 0.641218
-0.017974 0.656867 0.631518
0.673071 -0.737555 -0.026786
-0.027614 0.721394 -0.661577
-0.689428 0.694900 0.022239
-0.691879 -0.024620 -0.651070
-0.627096 -0.632406 0.011052
0.039096 -0.619005 -0.626533
-0.016672 0.657940 0.633677
0.040640 -0.619023 -0.625120
0.676010 -0.735580 -0.025791
-0.018445 0.657169 0.633174
-0.632512 -0.058870 0.686295
-0.693684 0.694990 0.023368
0.658495 0.657665 -0.007639
0.647669 0.015042 0.639599
0.039450 -0.619912 -0.626122
-0.631204 -0.060218 0.688929
0.664147 0.019069 -0.681751
0.650163 0.016525 0.638729
0.656935 0.658812 -0.007455
0.003256 -0.695684 0.663119
0.647698 0.014824 0.639920
0.649789 0.015143 0.638980
-0.692080 0.694248 0.021538
0.658366 0.658357 -0.009017
-0.635416 -0.059473 0.687914
-0.017449 0.659226 0.631040
0.657462 0.660512 -0.009042
-0.626150 -0.632344 0.008104
0.655124 0.656311 -0.008852
0.663469 0.022524 -0.680956
-0.692618 -0.023975 -0.649203
0.658539 0.658944 -0.008025
0.657781 0.659170 -0.008346
-0.692887 -0.021346 -0.649516
0.649567 0.014289 0.640389
0.676694 -0.736635 -0.024931
0.657195 0.659958 -0.008308
-0.691556 0.694966 0.022909
-0.691445 0.694674 0.024094
-0.635096 -0.059422 0.686809
-0.691754 0.696363 0.022321
-0.026612 0.720796 -0.659046
-0.017588 0.657104 0.632013
-0.691690 -0.021814 -0.650924
0.656567 0.657766 -0.010129
-0.016860 0.656070 0.634060
-0.691350 -0.022602 -0.651993
-0.693383 0.694847 0.023138
0.658783 0.658380 -0.007071
0.675559 -0.735403 -0.025360
0.664529 0.019179 -0.681331
-0.018515 0.658036 0.633349
-0.691577 -0.023023 -0.650898
0.673617 -0.737678 -0.025929
0.674981 -0.737000 -0.026287
0.002347 -0.694537 0.660749
0.001902 -0.693815 0.662783
0.663688 0.021721 -0.681559
0.003680 -0.693477 0.662805
-0.018520 0.657876 0.631126
0.005448 -0.695849 0.660435
-0.027652 0.720580 -0.661014
-0.018109 0.656873 0.630619
0.038850 -0.621213 -0.625163
-0.626130 -0.634262 0.007512
0.665076 0.020699 -0.679356
-0.691080 -0.023808 -0.650725
-0.691351 0.692994 0.021777
0.656686 0.658275 -0.006649
-0.690923 -0.022421 -0.650379
0.664882 0.021337 -0.680523
0.656652 0.656281 -0.008466
-0.626605 -0.631513 0.009626
-0.692430 0.695097 0.024554
0.676465 -0.736381 -0.025940
0.657383 0.657338 -0.009919
0.002006 -0.693918 0.661974
0.655867 0.657848 -0.007526
-0.625378 -0.632203 0.009220
0.040100 -0.619752 -0.627464
-0.027238 0.720737 -0.662052
-0.625323 -0.632960 0.009033
-0.633382 -0.060379 0.685996
-0.626099 -0.632946 0.009969
0.004262 -0.693285 0.662056
0.675257 -0.736362 -0.025173
-0.028274 0.720883 -0.661206
-0.632342 -0.058784 0.686718
0.039872 -0.620052 -0.624670
-0.693963 -0.022665 -0.649332
-0.017943 0.656747 0.632060
-0.691803 0.694664 0.024372
-0.632441 -0.058304 0.686006
-0.625524 -0.631579 0.007744
0.657435 0.658925 -0.010010
0.649223 0.014774 0.639220
0.663776 0.020922 -0.680713
0.039330 -0.619897 -0.626823
0.675132 -0.737814 -0.024560
0.657059 0.659141 -0.008843
-0.027406 0.720805 -0.661206
0.001909 -0.692376 0.663193
0.657171 0.658035 -0.008843
-0.624343 -0.632534 0.010214
0.040237 -0.620042 -0.627142
0.656295 0.657558 -0.008065
-0.634683 -0.059455 0.686700
0.656875 0.660723 -0.008535
-0.016426 0.656406 0.631905
0.663444 0.022352 -0.681800
0.003620 -0.694087 0.663942
0.004374 -0.695050 0.662171
0.041204 -0.620604 -0.625591
0.649326 0.014052 0.640169
-0.634577 -0.060969 0.688680
0.002837 -0.695343 0.662280
0.659450 0.659327 -0.009907
-0.631308 -0.058586 0.688186
-0.691005 0.694473 0.023159
-0.691025 -0.023303 -0.650210
0.656436 0.657132 -0.010184
-0.017752 0.657153 0.632953
-0.632972 -0.058169 0.687314
-0.017097 0.657204 0.631373
-0.624874 -0.630344 0.008982
-0.018457 0.658663 0.631304
-0.016053 0.657496 0.631845
0.675430 -0.737898 -0.025174
-0.691600 0.695766 0.021896
0.657464 0.657885 -0.007206
0.666267 0.019693 -0.681302
-0.691010 -0.023649 -0.650388
-0.693229 0.693815 0.021598
-0.691230 -0.024395 -0.650796
-0.018834 0.657613 0.632205
-0.627213 -0.631612 0.008283
-0.691385 -0.022558 -0.650268
0.674932 -0.735888 -0.025458
0.676389 -0.739395 -0.026511
