OFF
256 0 0
0.655426 0.682125 -0.032761
0.009608 0.643198 0.702935
0.008755 0.643743 0.705121
-0.698121 -0.673355 0.003669
-0.698340 -0.672687 0.003029
0.005867 -0.629424 0.626027
0.718216 -0.697709 -0.008722
0.007664 -0.628526 0.626584
0.010146 0.644194 0.703444
0.006179 -0.630199 0.624642
0.657028 0.682658 -0.034520
-0.673918 0.656651 0.048292
-0.692096 0.009681 0.688664
0.005114 -0.630520 0.627728
0.007055 -0.630074 0.626849
-0.691632 0.010608 0.690236
0.011670 -0.661625 -0.679847
-0.694699 0.010587 0.691374
0.009364 0.643118 0.706179
-0.675076 -0.020165 -0.671991
-0.691914 0.008712 0.690717
0.654393 0.680852 -0.035107
0.644721 0.047179 0.676131
-0.693834 0.010140 0.690486
0.714736 -0.699084 -0.008341
0.008647 0.641601 0.703666
-0.693886 0.009715 0.688566
0.680785 -0.009556 -0.699364
-0.676265 -0.019028 -0.672881
-0.692570 0.008877 0.688751
-0.698237 -0.671931 0.001440
-0.672440 0.658507 0.047300
-0.692187 0.009702 0.690836
0.014068 0.646147 -0.652065
-0.697101 -0.672242 0.003456
-0.671882 0.659017 0.047352
0.715816 -0.697230 -0.008878
-0.676186 -0.018316 -0.672539
0.007958 -0.628793 0.627168
-0.693757 0.010085 0.690861
0.644706 0.049075 0.674134
-0.696712 -0.674056 0.004190
0.715665 -0.696979 -0.010008
-0.697813 -0.673443 0.002565
0.715315 -0.698195 -0.006846
0.004740 -0.627553 0.625609
0.656958 0.680763 -0.034239
0.681485 -0.009068 -0.697813
0.654230 0.681733 -0.031925
0.008343 0.641683 0.705124
0.006376 -0.631057 0.626858
0.713970 -0.697896 -0.007233
0.655073 0.680930 -0.033120
0.682915 -0.009265 -0.700477
0.012957 -0.659898 -0.680805
0.655244 0.682124 -0.035603
-0.676572 -0.020266 -0.673891
0.014622 0.645835 -0.652529
0.644509 0.048557 0.673928
-0.676011 -0.018829 -0.675065
0.645287 0.050353 0.673722
0.718311 -0.698760 -0.008682
-0.700436 -0.673135 0.003249
0.715674 -0.698026 -0.008438
-0.698395 -0.672338 0.003581
0.014153 0.648854 -0.652568
0.014810 0.648743 -0.653483
-0.672100 0.659105 0.049200
0.644794 0.051318 0.676163
0.005445 -0.631025 0.626669
0.680720 -0.006839 -0.697448
0.010281 0.643383 0.702126
0.655048 0.680773 -0.033729
-0.692512 0.010223 0.689114
0.717269 -0.696977 -0.008734
0.008509 -0.629068 0.623964
0.714666 -0.698501 -0.007111
-0.671076 0.658716 0.048843
-0.693353 0.009803 0.690874
0.007564 -0.629325 0.625734
-0.692302 0.009437 0.689676
-0.698110 -0.674198 0.003376
-0.699715 -0.673603 0.001161
-0.693399 0.010541 0.691253
0.013692 -0.662315 -0.678730
0.681496 -0.010175 -0.698941
-0.672074 0.661788 0.049009
0.013887 0.647104 -0.652743
0.654280 0.682280 -0.033227
0.011642 -0.660043 -0.681482
0.654385 0.681024 -0.034019
0.009128 0.643373 0.702641
0.011328 -0.662548 -0.680676
0.013825 -0.661791 -0.681680
-0.671435 0.658816 0.047506
0.653331 0.681375 -0.034520
0.010903 -0.660619 -0.679629
0.681470 -0.009410 -0.699088
-0.677393 -0.017343 -0.674211
0.715385 -0.696372 -0.009451
-0.692733 0.011945 0.690084
-0.698848 -0.672700 0.003032
0.643190 0.050520 0.673123
-0.675357 -0.018820 -0.673190
0.644871 0.049302 0.675400
0.008563 0.646035 0.705092
-0.675777 -0.018124 -0.673413
-0.697217 -0.673453 0.002865
0.680894 -0.009245 -0.698252
0.009169 0.642961 0.704392
0.715027 -0.698008 -0.006745
-0.694342 0.009801 0.690049
0.679005 -0.010833 -0.697240
0.014445 0.648699 -0.651451
0.653223 0.680252 -0.031989
0.013296 -0.662667 -0.681064
0.004461 -0.628930 0.626279
-0.692691 0.009958 0.689994
0.012614 0.648533 -0.654602
0.715202 -0.697288 -0.009308
0.655841 0.681384 -0.033500
0.655353 0.680490 -0.033013
-0.698884 -0.672806 0.002448
0.680830 -0.009612 -0.698043
-0.674987 -0.018105 -0.674068
-0.676581 -0.020731 -0.674904
-0.675786 -0.019092 -0.675435
0.654887 0.682426 -0.032813
0.014065 0.647969 -0.653754
0.006150 -0.628074 0.625545
-0.696964 -0.672937 0.002858
-0.695398 0.009965 0.692456
0.010702 0.644236 0.703598
0.715095 -0.697582 -0.007146
-0.696309 -0.672863 0.001858
0.009940 0.643132 0.705197
-0.672394 0.659398 0.048609
0.644527 0.048604 0.675189
0.006576 -0.629606 0.626643
0.681076 -0.007874 -0.698699
0.012848 0.648027 -0.654593
0.006888 -0.629910 0.626453
0.011372 -0.660709 -0.679905
0.013333 0.646791 -0.651667
-0.696807 -0.674174 0.003599
-0.691951 0.011082 0.690801
0.655624 0.682854 -0.031970
-0.676172 -0.021278 -0.673949
0.680874 -0.008376 -0.697522
0.009420 0.643130 0.703252
0.006643 -0.629679 0.628159
-0.693364 0.008327 0.690030
0.680476 -0.009622 -0.699236
-0.699374 -0.671936 0.001262
-0.676664 -0.018229 -0.674845
0.655141 0.680419 -0.034570
0.004399 -0.629681 0.626599
0.654803 0.678414 -0.033398
0.005682 -0.630698 0.624480
0.010910 0.644030 0.703450
-0.676263 -0.019536 -0.672970
0.643494 0.049019 0.675091
-0.692478 0.010150 0.691174
-0.672206 0.656892 0.048207
0.715253 -0.697709 -0.011020
0.715097 -0.698463 -0.008262
0.008369 0.642670 0.703509
0.012752 -0.660394 -0.680121
0.010864 -0.661750 -0.679941
-0.674984 -0.019504 -0.673288
-0.695876 -0.673372 0.003300
-0.672319 0.657233 0.050412
-0.696376 -0.671974 0.002212
0.654584 0.680594 -0.033576
0.014203 0.645974 -0.651441
0.005420 -0.629819 0.627771
0.013573 0.646299 -0.652226
0.016752 0.646174 -0.652021
0.014430 0.648928 -0.652164
0.680061 -0.009163 -0.699865
0.680699 -0.009276 -0.699273
0.656858 0.681481 -0.034371
-0.674948 -0.018867 -0.673856
0.681560 -0.007747 -0.699070
0.644733 0.049726 0.674716
0.005300 -0.630022 0.626614
0.716641 -0.698174 -0.006916
-0.676307 -0.018915 -0.673731
-0.698408 -0.673320 0.002128
-0.697994 -0.672561 0.003030
-0.674717 -0.020050 -0.671815
-0.696734 -0.671605 0.000825
-0.697169 -0.672295 0.003573
0.014451 0.647352 -0.654184
0.013456 0.647612 -0.653284
0.011425 -0.660714 -0.681320
-0.698369 -0.673637 0.003192
0.641994 0.049872 0.674103
-0.698135 -0.673060 0.002565
0.679441 -0.009474 -0.697211
0.656584 0.683181 -0.033498
0.645311 0.048990 0.673595
-0.693133 0.009471 0.691189
-0.693651 0.009656 0.690017
-0.675592 -0.018311 -0.672609
-0.676497 -0.021057 -0.675441
0.008576 0.643482 0.704004
0.656361 0.681910 -0.034955
0.680200 -0.008530 -0.698980
0.656142 0.682504 -0.033584
0.006446 -0.629731 0.626687
-0.691750 0.009477 0.689795
0.005949 -0.628616 0.625138
0.715573 -0.696733 -0.006239
0.653936 0.680764 -0.032242
-0.697807 -0.671769 0.003261
0.645397 0.050105 0.673279
0.012426 0.645751 -0.649716
0.716105 -0.699937 -0.006101
0.645006 0.049284 0.674753
0.656592 0.682540 -0.033144
0.680877 -0.010605 -0.697319
0.004700 -0.628764 0.625631
0.006936 -0.630282 0.626031
-0.672094 0.658066 0.050318
0.015021 0.647456 -0.651048
0.004710 -0.627725 0.627601
0.013318 -0.660111 -0.680208
-0.697983 -0.673528 0.004411
0.681983 -0.009305 -0.696435
-0.692818 0.010496 0.690484
0.014547 0.647736 -0.650503
0.643096 0.047746 0.674176
-0.675236 -0.021168 -0.672552
0.016477 0.648424 -0.654011
-0.697847 -0.671911 0.001311
0.003937 -0.630129 0.628293
0.012186 -0.662715 -0.679027
-0.693420 0.012695 0.690517
-0.692867 0.009712 0.689840
0.011939 -0.660799 -0.680610
0.680763 -0.009900 -0.697466
-0.694850 0.010213 0.689651
-0.670221 0.659507 0.049570
-0.694765 0.010658 0.692054
0.645702 0.050280 0.675932
0.714172 -0.696993 -0.008289
0.011667 -0.662497 -0.681064
0.007804 -0.628716 0.625339
-0.676084 -0.019832 -0.673197
0.717273 -0.697914 -0.008682
0.005438 -0.628358 0.625691
-0.676004 -0.020733 -0.674111
0.655231 0.683226 -0.034193
0.679448 -0.009420 -0.698399
-0.672687 0.657115 0.047864
