OFF
256 0 0
-0.011478 -0.650761 0.631211
0.021591 0.708190 0.684857
-0.672758 -0.640148 0.008182
0.669518 -0.020237 -0.656737
-0.741025 0.000228 -0.672605
0.668995 -0.019773 -0.656451
0.001481 -0.650628 -0.623619
0.670420 -0.020853 -0.656264
-0.672770 -0.643513 0.010001
-0.672211 -0.641904 0.010226
0.700020 0.631804 -0.018259
0.020098 0.707762 0.684833
-0.670907 -0.643054 0.010886
0.002264 -0.651812 -0.624402
0.003681 0.644184 -0.682535
0.002168 -0.650112 -0.624029
-0.673493 -0.643324 0.007967
-0.605442 0.658721 -0.009553
-0.606285 0.658720 -0.011093
0.670182 -0.020046 -0.656433
0.698846 0.631486 -0.017814
0.700507 0.632356 -0.016748
-0.688209 -0.024491 0.643481
0.657231 0.014605 0.680635
-0.010029 -0.653402 0.631676
-0.011067 -0.653648 0.631675
0.671128 -0.020289 -0.657440
-0.687578 -0.024757 0.647037
0.669241 -0.019331 -0.655609
0.001639 -0.651065 -0.623883
-0.606934 0.659573 -0.012418
-0.687835 -0.025261 0.644520
-0.687402 -0.025621 0.643040
-0.686861 -0.026434 0.644824
-0.741484 -0.000878 -0.672334
-0.673165 -0.642981 0.008021
0.699580 0.631013 -0.016835
0.669873 -0.019938 -0.656037
0.664767 -0.663649 0.013589
-0.672586 -0.641254 0.007661
-0.740064 -0.001219 -0.670915
0.020736 0.706980 0.686927
0.663808 -0.662986 0.013566
-0.010595 -0.653008 0.630363
0.670569 -0.023132 -0.655384
-0.688352 -0.026066 0.646566
0.021362 0.705988 0.686759
-0.740101 -0.001585 -0.670118
-0.606381 0.659723 -0.009859
-0.673983 -0.642348 0.008826
0.022011 0.705959 0.686189
0.003022 -0.652146 -0.623614
-0.742638 0.001046 -0.671185
-0.010102 -0.652946 0.630644
-0.688900 -0.024173 0.644399
0.003674 0.645142 -0.682244
-0.740360 -0.002705 -0.671850
-0.688831 -0.024450 0.645939
-0.673084 -0.642765 0.010792
0.656115 0.013603 0.678388
-0.689071 -0.026397 0.642722
0.001771 -0.651995 -0.622952
-0.689861 -0.025019 0.644648
0.700595 0.633053 -0.017808
0.664039 -0.665927 0.013068
0.002960 0.645103 -0.681917
0.657599 0.014319 0.679614
-0.741264 -0.000208 -0.672351
0.665304 -0.664224 0.012125
-0.011590 -0.653817 0.629614
0.701133 0.631065 -0.016269
0.656936 0.014104 0.679234
0.658193 0.012898 0.681356
-0.740156 -0.001991 -0.670883
0.002480 -0.651321 -0.621773
0.020928 0.706748 0.685358
0.664809 -0.664139 0.014204
-0.688487 -0.025156 0.645505
0.700501 0.630758 -0.017465
0.663691 -0.664796 0.012313
-0.009774 -0.650820 0.631250
-0.604829 0.659506 -0.011237
-0.671701 -0.643696 0.010556
0.002044 0.645174 -0.682338
-0.689177 -0.025699 0.643777
0.001253 -0.651603 -0.624088
0.002247 0.643548 -0.682304
0.002527 0.644606 -0.682113
-0.740321 -0.002012 -0.672150
-0.689118 -0.025321 0.645014
-0.686082 -0.024991 0.644694
0.657673 0.014964 0.680675
-0.009996 -0.652783 0.630936
-0.688444 -0.024561 0.645337
-0.688525 -0.025972 0.645606
-0.688257 -0.025250 0.646899
0.004087 0.645542 -0.681639
0.669543 -0.021199 -0.656940
-0.011236 -0.652416 0.627556
0.002473 0.643361 -0.682859
0.669500 -0.020264 -0.657129
0.003766 0.645031 -0.683720
0.669887 -0.021377 -0.656830
0.670143 -0.020395 -0.657224
0.003894 -0.650215 -0.622743
0.670388 -0.019253 -0.656640
-0.671540 -0.643150 0.010663
0.670922 -0.021098 -0.657579
-0.606025 0.658841 -0.010910
0.663561 -0.664167 0.012521
-0.011233 -0.652402 0.630353
-0.011051 -0.654434 0.630810
-0.009767 -0.651318 0.630635
0.670209 -0.019119 -0.657011
-0.740877 -0.001395 -0.671204
-0.011698 -0.652051 0.628767
0.664955 -0.663244 0.013492
0.021559 0.708815 0.686393
0.002237 0.643411 -0.681923
-0.740324 -0.001595 -0.670284
-0.604514 0.660062 -0.010696
-0.740072 -0.000656 -0.672154
-0.605686 0.660556 -0.010369
0.002532 -0.651335 -0.624623
0.664733 -0.664807 0.013846
0.003395 0.643634 -0.682251
-0.606218 0.660384 -0.010225
-0.605784 0.660449 -0.010390
-0.687892 -0.026387 0.645196
0.669174 -0.019920 -0.658704
0.657421 0.013874 0.679503
0.663919 -0.664423 0.013201
-0.673116 -0.641190 0.010447
-0.740537 -0.000827 -0.672103
-0.011588 -0.652959 0.632422
0.663525 -0.664795 0.011976
0.699072 0.631891 -0.018457
0.659501 0.014169 0.680332
-0.673017 -0.642664 0.008499
0.702155 0.631286 -0.018734
-0.740948 0.001068 -0.671072
0.021408 0.706610 0.684999
-0.739978 -0.002460 -0.670429
0.003055 -0.650593 -0.624133
-0.689189 -0.026784 0.644417
0.669431 -0.019854 -0.657845
0.657030 0.015194 0.680512
-0.688098 -0.024999 0.645585
0.701074 0.632360 -0.017461
-0.605258 0.658951 -0.009600
0.001447 -0.650385 -0.623607
0.003584 0.643736 -0.683620
-0.011823 -0.652924 0.630046
-0.740004 -0.001625 -0.672226
-0.673688 -0.643540 0.007083
-0.606809 0.658547 -0.010197
0.021321 0.707040 0.686024
0.000468 -0.650791 -0.622695
-0.741212 -0.000181 -0.670284
-0.687624 -0.026204 0.645835
-0.741160 -0.001543 -0.671953
0.698916 0.630304 -0.019102
0.003882 0.644287 -0.682032
-0.604634 0.660775 -0.009521
0.666979 -0.666053 0.013490
-0.687762 -0.025431 0.645586
-0.607443 0.660437 -0.012378
0.003022 0.643649 -0.683186
-0.604057 0.661346 -0.010912
-0.672160 -0.641809 0.008619
-0.741504 -0.002831 -0.672778
0.669291 -0.019868 -0.657016
0.002285 -0.649497 -0.623978
-0.605224 0.658910 -0.010747
0.656575 0.013447 0.679607
0.670662 -0.020088 -0.657561
0.664878 -0.664023 0.012903
0.670043 -0.020759 -0.657161
0.002962 0.645419 -0.682998
0.004382 0.644896 -0.680702
0.658577 0.015140 0.678376
-0.010568 -0.652615 0.630429
0.003764 0.644677 -0.682798
0.019340 0.707682 0.686094
0.662933 -0.662887 0.010780
-0.688489 -0.025175 0.646307
0.657113 0.015734 0.680039
0.003510 0.646406 -0.681022
0.698680 0.629971 -0.018794
0.004299 0.643491 -0.684984
0.670735 -0.018831 -0.656954
-0.671976 -0.644028 0.007581
-0.688238 -0.025515 0.643801
0.668834 -0.020714 -0.657388
0.020481 0.706493 0.685727
0.663368 -0.665879 0.012332
-0.605822 0.660294 -0.010315
-0.672851 -0.640338 0.009413
0.003080 0.645802 -0.684489
-0.605225 0.660006 -0.009763
0.701626 0.631885 -0.018483
-0.687491 -0.026231 0.645236
0.655736 0.013790 0.678829
0.699141 0.631159 -0.017668
-0.012135 -0.652141 0.630213
-0.740285 -0.000351 -0.669381
0.021573 0.706458 0.683932
-0.672361 -0.642652 0.008516
-0.740237 -0.001985 -0.673043
-0.605634 0.659882 -0.008182
0.004258 0.645058 -0.684814
0.699714 0.631748 -0.016956
-0.688375 -0.024642 0.645698
-0.605071 0.658203 -0.010390
-0.672909 -0.644608 0.009761
-0.672058 -0.643562 0.010357
0.003185 0.644644 -0.683906
-0.741147 -0.003471 -0.671082
-0.738658 -0.001300 -0.673010
-0.741495 -0.001254 -0.671989
-0.011028 -0.653222 0.631325
0.000663 -0.652523 -0.623070
0.700391 0.631158 -0.017077
-0.687935 -0.026463 0.644719
0.019798 0.707585 0.686721
-0.011334 -0.652710 0.629412
-0.606210 0.660602 -0.009886
-0.672999 -0.643950 0.009105
0.002546 -0.652123 -0.622342
0.657911 0.013616 0.679571
0.000434 0.644586 -0.683504
-0.689759 -0.025790 0.644622
-0.742004 -0.003332 -0.671902
-0.605741 0.659530 -0.010648
0.001427 -0.651401 -0.623298
0.700897 0.632666 -0.019799
0.670525 -0.020374 -0.655604
-0.673903 -0.643547 0.009955
0.002426 -0.651597 -0.623415
-0.672982 -0.642272 0.009236
-0.010587 -0.652205 0.629499
0.700374 0.631250 -0.018375
0.656256 0.014295 0.678898
-0.674761 -0.641144 0.011156
0.701027 0.632686 -0.019795
0.020159 0.706091 0.685883
0.003192 0.644454 -0.683207
0.003695 0.645983 -0.682683
0.002170 -0.650854 -0.623681
0.001419 -0.650122 -0.624028
-0.671295 -0.642531 0.008952
0.669327 -0.018387 -0.656838
-0.011430 -0.652855 0.629246
-0.606893 0.659896 -0.010901
0.003316 0.644130 -0.682409
-0.010464 -0.651475 0.630456
