OFF
256 0 0
-0.472882 -0.236675 -0.236160
-0.001402 0.236978 0.708329
0.000196 -0.708189 -0.235547
0.469935 0.235287 0.235913
-0.470523 0.234263 -0.706290
-0.001181 0.709247 -0.706644
0.473042 0.235650 -0.706828
0.472810 0.234758 -0.707819
0.470769 0.706805 -0.235978
0.470145 -0.237206 -0.236827
-0.471612 0.235295 -0.706218
-0.468220 -0.236838 -0.235456
-0.470647 0.236245 -0.706979
0.469444 -0.706582 0.235771
-0.001781 -0.706668 -0.236011
-0.472760 -0.236736 -0.235896
0.471155 0.706384 -0.236333
0.470133 -0.234900 0.706622
-0.471764 -0.236302 -0.235299
0.472170 0.235794 -0.708107
-0.472195 0.237149 0.236824
-0.471283 -0.706342 0.234918
0.471307 -0.235598 -0.236856
-0.469829 -0.234708 -0.235070
-0.471229 -0.234939 0.707100
0.000983 0.234854 0.707899
-0.473057 0.706537 -0.236024
-0.000232 0.236101 0.706791
-0.472538 0.233907 0.237179
-0.471111 -0.238498 0.708178
-0.471778 -0.235330 -0.236264
0.472016 -0.707084 0.236338
0.471551 0.234890 0.235357
-0.469434 0.234637 -0.706171
-0.000670 -0.707274 -0.235961
-0.471477 -0.707607 0.234541
0.470309 -0.707734 0.235320
0.472812 -0.237327 0.708427
-0.471251 0.237460 -0.706218
-0.472427 -0.235175 0.707108
0.001111 -0.235801 -0.707355
0.003170 -0.706433 -0.235178
-0.473730 -0.236372 0.706582
-0.000067 0.707223 0.234679
0.471190 -0.707977 0.235583
0.000216 -0.707231 0.707720
-0.000476 0.707051 0.234950
-0.470902 0.707197 -0.236240
-0.471480 0.706187 -0.235889
-0.472906 -0.707102 0.236007
-0.000338 -0.706157 0.705503
-0.469783 -0.233860 -0.235620
0.000488 0.706759 0.235316
-0.470267 -0.235630 0.708294
-0.001470 -0.706473 0.706143
0.001049 0.234908 0.706064
0.472124 -0.234870 -0.235383
0.471495 -0.707476 0.236331
-0.472121 0.236058 -0.706383
-0.000218 -0.707892 0.708972
0.471554 -0.233559 0.707278
-0.470832 0.233100 -0.706587
0.000905 0.708246 0.235956
0.471835 -0.237264 0.707507
0.000623 0.235360 0.706314
-0.472064 0.235322 0.234368
-0.471973 -0.236175 -0.235422
-0.000590 0.705678 0.236129
0.001202 -0.706310 0.707237
-0.473022 0.234108 -0.706910
-0.472633 -0.232792 0.705521
0.470632 -0.706838 0.235668
-0.000997 0.706270 0.236949
-0.472005 0.234478 0.234344
0.472497 0.236175 -0.707182
-0.471753 -0.236258 -0.235495
0.470062 0.235704 0.234697
0.470871 0.707991 -0.236019
0.468897 -0.707742 0.235209
0.002251 -0.707921 -0.237943
0.002737 0.238131 0.706875
-0.000173 0.235403 0.707076
0.001512 -0.707673 -0.235891
0.471328 0.234685 -0.705806
0.001349 -0.705391 -0.234090
-0.000772 0.707335 0.235025
-0.000037 0.707377 0.236610
0.471233 -0.236720 -0.235901
-0.000277 -0.707614 -0.237045
0.469520 -0.707487 0.236018
-0.469866 -0.236707 -0.236162
0.470827 -0.235498 -0.236450
-0.000567 0.238079 0.705983
0.470929 0.235062 -0.708478
-0.471926 -0.708584 0.236058
0.470839 -0.706093 0.234455
-0.001415 -0.706505 -0.236590
-0.000314 -0.703632 0.705068
0.000442 -0.707617 -0.234564
0.473281 0.236423 -0.705396
0.470321 0.234757 -0.706457
0.471814 0.706745 -0.235354
0.000457 0.233716 0.706547
0.001187 0.235879 0.706269
0.000676 -0.707593 0.708004
-0.471743 -0.707681 0.235575
0.472012 -0.236786 0.707462
-0.469813 0.235164 -0.706821
0.471329 0.236154 -0.705647
0.471965 0.234316 -0.705196
0.001680 0.707123 -0.707697
0.470649 -0.707573 0.236123
-0.471831 0.236309 -0.706121
-0.472503 0.234933 -0.707252
-0.471634 -0.233937 0.707774
0.000374 0.235781 0.706931
-0.001551 0.707493 -0.706484
-0.001079 -0.707480 0.707249
0.473368 0.235285 -0.704595
0.473634 -0.236430 0.705813
-0.471256 -0.706197 0.235989
-0.001172 -0.706897 -0.235287
0.472507 -0.237056 0.707103
-0.473014 -0.234744 -0.236230
-0.472504 0.235154 -0.708191
-0.471089 0.234625 -0.706977
0.471786 0.238137 -0.705476
0.473169 -0.707661 0.234591
-0.001968 0.236580 0.707476
0.471902 -0.236060 0.707130
-0.472165 0.235312 -0.706794
-0.473247 0.236800 -0.706766
-0.473390 -0.237987 -0.235614
-0.471364 0.236844 0.234552
-0.474194 0.234301 -0.707875
-0.471573 0.707309 -0.237279
-0.472291 0.235566 -0.707177
0.472493 -0.706569 0.235138
-0.000522 -0.238070 -0.707785
0.471722 -0.235207 -0.237271
-0.001606 -0.706672 -0.234836
-0.470683 0.236774 0.235472
-0.472374 0.233723 -0.708995
0.471400 -0.236174 -0.235530
0.472417 -0.707677 0.236472
-0.473419 -0.707812 0.236471
-0.469682 -0.236830 0.707701
0.471422 0.235715 0.236139
-0.472448 0.235870 0.234365
0.001378 -0.235701 -0.704980
-0.471580 0.706517 -0.236905
-0.000108 -0.708705 -0.236458
-0.000604 -0.233850 -0.705959
0.001470 0.707864 -0.707124
-0.472341 0.707196 -0.233722
-0.472450 -0.235957 -0.235585
0.471408 0.706979 -0.236186
0.471397 0.235161 0.235003
-0.000517 0.705907 -0.707213
-0.472470 0.707466 -0.237254
-0.000065 0.707497 0.234990
-0.001658 -0.236938 -0.706608
0.001205 -0.706236 0.707707
-0.000296 -0.707361 -0.235062
0.470957 -0.706469 0.235761
-0.001330 0.708148 0.236043
-0.471731 0.706290 -0.236379
-0.469856 -0.706657 0.237480
-0.000138 -0.235416 -0.707853
0.470611 -0.235307 0.707490
-0.471970 -0.707523 0.236703
-0.472283 0.236145 0.236686
0.000335 0.235696 0.706833
0.473010 -0.708055 0.234960
-0.472824 -0.234779 -0.236703
0.471318 0.707686 -0.237906
0.472377 0.235890 -0.708329
0.471644 0.235158 0.236354
-0.469967 0.236943 -0.708349
0.470055 0.706295 -0.236714
0.000577 -0.707280 0.706367
0.471013 0.235900 -0.705014
-0.471484 -0.235580 0.706704
0.472132 -0.236543 -0.236271
-0.002242 -0.707157 0.707169
-0.472174 0.236289 -0.707075
0.470434 0.235983 -0.706740
0.000410 -0.706744 -0.235402
0.471557 0.707234 -0.235843
-0.472759 -0.236274 0.706803
-0.472064 -0.235904 0.708181
-0.470617 -0.235483 0.706028
-0.471955 0.705243 -0.235223
0.472662 -0.236524 0.704731
0.470470 0.706614 -0.236800
0.473131 0.236289 0.236247
0.000309 0.706738 -0.707248
0.471931 0.706151 -0.234922
-0.470904 0.235614 -0.708245
-0.471907 -0.234502 -0.236520
0.000985 0.236217 0.707071
0.471552 0.707529 -0.236186
0.470744 -0.707759 0.236789
-0.000292 -0.235613 -0.707327
-0.471479 0.234481 -0.708894
0.471980 -0.236470 -0.235634
-0.470386 0.706536 -0.236277
0.000626 0.707759 0.236884
-0.470990 0.235774 -0.707097
0.000350 0.706002 -0.707151
0.469913 0.707501 -0.236037
-0.471470 -0.707957 0.236845
0.471509 -0.236453 -0.236584
0.000402 -0.235655 -0.708220
0.470744 0.235237 0.233763
-0.471471 0.708150 -0.235652
-0.470165 -0.707882 0.235753
-0.000060 -0.235901 -0.704439
-0.470041 -0.707190 0.235835
-0.472070 0.235739 0.236428
-0.471016 -0.236165 -0.237664
-0.000375 -0.234562 -0.708320
-0.472001 0.236217 -0.708170
0.000371 0.236354 0.705544
0.471713 0.235341 -0.708334
-0.468461 -0.234505 0.706370
-0.000149 0.706741 0.237876
-0.001246 0.706191 -0.706771
0.000659 0.707345 -0.706956
-0.000145 -0.707949 0.706053
0.471319 0.706980 -0.236258
0.471007 -0.234703 -0.235841
0.471766 -0.235296 -0.236438
-0.000446 -0.707670 0.708043
0.000146 0.235974 0.704799
-0.000668 0.706609 0.235687
0.470338 -0.708489 0.235823
0.469754 0.234279 0.236660
0.470609 0.706665 -0.232710
-0.000087 0.707246 0.237256
0.470251 -0.234318 0.707470
-0.472542 0.706724 -0.235068
0.001058 0.235748 0.707669
-0.471152 0.707922 -0.237344
0.472652 0.236025 0.237144
-0.471763 -0.236366 0.706776
0.472275 0.707319 -0.235855
-0.000474 -0.706901 0.706394
0.472190 -0.234486 -0.236131
-0.472863 0.235700 0.235933
0.471199 -0.235444 0.706898
0.000559 0.707153 -0.707564
0.001563 0.706646 -0.706693
-0.001638 -0.707477 -0.238304
-0.001557 -0.708190 -0.236653
-0.471999 0.236299 -0.707711
