OFF
256 0 0
0.702538 0.661691 0.003653
0.010897 -0.716190 -0.694426
0.627893 0.024952 0.638046
-0.672107 0.663840 0.002728
0.699824 -0.660399 0.012706
0.701948 -0.660481 0.010879
0.008701 -0.717319 -0.694324
0.010292 -0.716661 -0.697255
0.012513 -0.718043 -0.697302
0.679705 -0.015814 -0.667853
0.700958 -0.658987 0.010591
0.008305 -0.716057 -0.697465
0.029196 0.681260 -0.671764
-0.012418 0.668016 0.653592
0.700892 -0.660332 0.009551
0.701276 -0.660273 0.011091
0.625262 0.023828 0.638910
0.029874 0.677581 -0.671007
0.005967 -0.637185 0.622091
-0.672982 0.662428 0.002288
0.702813 0.662140 0.004742
0.701227 0.662727 0.004044
-0.689054 -0.667876 0.059980
-0.689303 -0.665677 0.060579
0.702272 0.664199 0.005054
0.701970 -0.659791 0.009469
-0.708078 0.023338 0.682484
0.029359 0.680008 -0.669605
-0.707742 0.023680 0.682572
0.009665 -0.716765 -0.696562
-0.674462 0.662198 0.001700
-0.688884 -0.667356 0.059715
-0.705855 0.023048 0.683457
0.010169 -0.717761 -0.697334
0.031972 0.677466 -0.669690
-0.673916 0.664366 0.000728
0.678346 -0.014290 -0.664235
-0.011716 0.666525 0.652238
-0.672106 0.663337 0.001448
-0.672884 0.663775 0.003223
-0.705853 0.023319 0.683842
0.006257 -0.635907 0.621689
-0.673853 -0.025682 -0.641016
0.701950 -0.659531 0.011382
-0.689594 -0.666836 0.059637
-0.674056 0.663641 0.001783
-0.690395 -0.665633 0.057654
-0.672708 0.663386 0.000362
0.004341 -0.637929 0.621532
0.010886 -0.716639 -0.698538
0.006258 -0.635873 0.621584
-0.674208 -0.025599 -0.641432
-0.674578 0.663174 0.000837
0.701353 -0.660629 0.010907
-0.687031 -0.666628 0.060223
0.679824 -0.013201 -0.665292
-0.707891 0.023581 0.683501
-0.009312 0.668888 0.653491
-0.675519 0.664419 0.000736
-0.011319 0.666013 0.653340
0.032011 0.676866 -0.669508
-0.706645 0.024015 0.683065
-0.009542 0.667527 0.652246
-0.707519 0.024629 0.683727
0.677102 -0.014817 -0.664988
0.011162 -0.716755 -0.696952
0.701903 0.662047 0.006632
0.703389 -0.662531 0.010823
-0.707000 0.024798 0.682957
-0.011189 0.667949 0.653775
0.702033 -0.661272 0.009673
0.627075 0.024537 0.638955
0.030498 0.678930 -0.670443
0.003773 -0.635817 0.620934
-0.674154 -0.025282 -0.639732
-0.012388 0.667894 0.653071
0.005167 -0.636292 0.622502
-0.674578 0.662172 0.001512
0.004875 -0.634903 0.621892
0.031013 0.678834 -0.671039
0.628205 0.025129 0.638878
0.702695 -0.661075 0.011604
-0.688309 -0.667612 0.057495
0.005438 -0.636668 0.620982
0.702329 -0.659923 0.010547
0.003519 -0.637557 0.623584
-0.674061 -0.026100 -0.641604
0.679889 -0.014992 -0.668170
-0.707204 0.024477 0.683215
-0.708580 0.021739 0.681973
0.703025 0.662470 0.004616
-0.674137 -0.025051 -0.639850
0.678968 -0.013240 -0.664788
0.703161 -0.660049 0.011177
-0.708204 0.025243 0.683128
0.030578 0.681902 -0.669990
0.004951 -0.635352 0.623593
-0.012479 0.667234 0.654781
-0.010465 0.667201 0.654168
0.011339 -0.717190 -0.696881
0.627328 0.025390 0.640030
0.004266 -0.634338 0.620273
-0.011614 0.669790 0.651915
0.008676 -0.716360 -0.697917
0.626870 0.023083 0.640208
0.626817 0.024897 0.640347
0.010436 -0.717681 -0.697331
0.010179 -0.717131 -0.696874
0.676897 -0.013998 -0.665369
-0.689694 -0.666410 0.057255
0.701410 0.664077 0.006923
-0.688171 -0.668453 0.059868
0.030574 0.680050 -0.670832
-0.689846 -0.668330 0.060364
-0.673101 -0.025282 -0.639515
0.011210 -0.716406 -0.697992
0.678796 -0.014813 -0.666660
0.703276 0.662659 0.003018
-0.672174 0.664261 0.001655
0.030035 0.678950 -0.669965
0.031457 0.678462 -0.671453
0.628592 0.024857 0.639883
-0.708549 0.025069 0.682058
0.629702 0.023072 0.640038
0.699644 -0.660029 0.012861
0.009330 -0.716905 -0.696703
0.628636 0.023610 0.638882
-0.707466 0.023795 0.683427
-0.672883 -0.025366 -0.638889
0.010658 -0.719422 -0.697503
-0.688817 -0.667004 0.058164
0.625931 0.021786 0.638110
0.701570 -0.661553 0.012616
0.703350 0.662143 0.004188
-0.011594 0.669042 0.654687
0.003809 -0.637186 0.620461
0.009656 -0.715326 -0.694804
-0.673669 -0.023106 -0.639727
0.701803 -0.660017 0.009430
0.004274 -0.635729 0.621664
-0.707914 0.024081 0.682142
0.628335 0.025501 0.638199
-0.687857 -0.666842 0.058842
0.029693 0.678617 -0.670843
0.700559 0.662938 0.003446
-0.706925 0.023239 0.683157
0.704398 0.663710 0.005663
-0.705766 0.024523 0.683589
0.626520 0.025410 0.638544
0.627462 0.025708 0.639616
0.031140 0.678159 -0.669442
0.031313 0.679411 -0.669366
0.701383 -0.659685 0.010820
-0.673945 -0.025627 -0.640510
-0.705939 0.024184 0.681690
0.010349 -0.716005 -0.697069
-0.673538 0.663014 0.002339
0.677641 -0.013679 -0.666909
0.702611 0.662825 0.004779
0.011299 -0.716333 -0.696745
-0.009995 0.668382 0.652849
0.699843 -0.661800 0.009658
0.003238 -0.636665 0.620660
-0.010631 0.667923 0.653501
0.028433 0.677663 -0.669270
0.004425 -0.636790 0.620782
0.698923 0.661929 0.003509
0.627707 0.022148 0.642033
0.627350 0.023511 0.639625
0.005872 -0.636991 0.620568
0.029628 0.680213 -0.670711
-0.706403 0.024878 0.681550
0.702742 -0.660636 0.009973
0.679795 -0.016284 -0.666047
0.701984 -0.661810 0.010977
0.011805 -0.715560 -0.698355
-0.708433 0.024976 0.683633
-0.673247 0.663585 0.001011
0.700822 0.663508 0.006009
-0.673151 0.662619 0.000259
0.680402 -0.015330 -0.666196
-0.690574 -0.667519 0.060609
-0.689060 -0.667054 0.059235
-0.706874 0.024181 0.683076
-0.690066 -0.666026 0.059063
-0.688396 -0.667277 0.060018
-0.673161 0.662524 0.000970
-0.706861 0.024836 0.682967
0.700896 0.661664 0.005696
-0.671466 -0.024262 -0.640147
-0.672078 0.664457 0.000145
0.006128 -0.635716 0.622007
0.702067 0.661197 0.003756
0.627577 0.022878 0.639365
0.701478 0.661191 0.005602
-0.671862 0.662956 0.001951
-0.012122 0.669007 0.651794
-0.687666 -0.666278 0.059472
-0.672900 -0.024283 -0.639753
-0.687852 -0.669352 0.057736
-0.706860 0.023860 0.682475
0.676901 -0.014821 -0.664917
0.701756 0.663507 0.004616
-0.011050 0.669425 0.653631
-0.688349 -0.666617 0.059991
0.626366 0.022690 0.638988
0.010696 -0.718332 -0.698188
0.628166 0.026555 0.638368
-0.686656 -0.668039 0.059488
0.677892 -0.014686 -0.666434
0.031067 0.678359 -0.670230
-0.708667 0.024745 0.682567
-0.706048 0.024092 0.683900
0.011009 -0.717265 -0.696505
-0.675530 0.663167 0.002594
-0.706372 0.022835 0.680758
0.009649 -0.716316 -0.697445
-0.706936 0.025487 0.684926
0.678159 -0.016090 -0.665881
-0.672822 -0.025991 -0.639645
-0.689294 -0.667629 0.059493
0.700925 -0.659827 0.012554
0.028847 0.678501 -0.669143
0.703030 0.662741 0.005726
0.701429 0.662166 0.005338
0.627564 0.023787 0.638478
0.010239 -0.717630 -0.696482
-0.673488 0.663148 0.001093
0.030372 0.678338 -0.671233
0.701399 -0.660507 0.010982
-0.690086 -0.666643 0.059629
0.678998 -0.013968 -0.666790
-0.010282 0.666562 0.654138
-0.011420 0.668108 0.653990
0.004471 -0.637416 0.620696
0.703565 0.662920 0.005249
-0.705828 0.024311 0.683867
-0.691000 -0.665834 0.059121
0.700829 -0.661207 0.010384
0.030723 0.678816 -0.671911
0.678283 -0.016177 -0.667015
-0.689591 -0.667591 0.058698
0.002204 -0.635459 0.620985
-0.673509 0.663506 0.001150
-0.688893 -0.665910 0.059544
0.004378 -0.636519 0.620876
-0.012694 0.668042 0.652609
0.703589 0.662511 0.004516
0.011602 -0.718202 -0.695602
0.629260 0.023187 0.639689
-0.706498 0.024716 0.684638
-0.707753 0.023833 0.682976
0.702503 -0.659553 0.009769
-0.673007 -0.027418 -0.640922
0.030853 0.679681 -0.671357
-0.672480 0.662498 0.001333
