OFF
256 0 0
-0.479867 -0.211390 0.237756
-0.451133 -0.228505 -0.699267
-0.004178 -0.705593 0.283880
0.001064 0.228286 -0.709539
0.434702 -0.232694 0.229602
-0.001822 -0.705964 0.286650
0.432598 -0.232549 0.230867
0.000767 0.683787 0.713127
0.433263 -0.231782 0.232089
0.019379 -0.683817 -0.728320
0.457834 0.695494 0.221810
-0.003545 -0.705104 0.285654
-0.460364 0.227502 0.732176
-0.449988 -0.227168 -0.698849
-0.482297 -0.212604 0.237794
-0.003123 -0.707665 0.285089
0.018594 -0.683901 -0.728032
-0.480067 -0.212123 0.238887
0.492887 -0.240536 -0.705127
-0.458905 0.726255 0.219359
-0.496046 -0.721682 -0.235203
-0.003615 -0.706668 0.284216
0.020385 -0.684623 -0.729742
-0.479481 -0.210608 0.239422
-0.002477 -0.705769 0.285195
0.492219 -0.237892 -0.705697
0.476587 0.250426 0.690626
0.456335 0.697134 0.221365
-0.002752 -0.706141 0.285796
0.019627 -0.684946 -0.729365
-0.495748 -0.722175 -0.235136
-0.461176 0.228502 0.733823
0.468161 0.222451 -0.228626
-0.493935 -0.720581 -0.237245
0.456140 0.697404 0.220429
0.020193 -0.685767 -0.728992
0.002554 0.227386 -0.709502
-0.450346 -0.228221 -0.698046
-0.496677 -0.722117 -0.236567
0.478524 0.250805 0.688241
-0.460750 0.228431 0.731377
-0.478466 -0.211302 0.237741
0.493567 -0.238801 -0.704099
0.019630 -0.684918 -0.731340
-0.463456 0.255490 -0.260977
0.469108 0.224343 -0.227426
0.000653 0.684350 0.712120
0.478018 0.249005 0.689769
0.491124 -0.237792 -0.704471
-0.461581 0.724723 0.218491
0.490051 -0.239646 -0.704331
0.456283 0.693215 0.220673
0.434057 -0.231105 0.232839
-0.002092 -0.706665 0.285068
-0.016743 -0.237968 0.721568
-0.449735 -0.228391 -0.699039
0.001264 0.227614 -0.710241
0.484801 -0.742569 -0.241405
-0.461213 0.227843 0.731283
0.492202 -0.240194 -0.704799
-0.015385 -0.237770 0.721001
-0.003813 0.712441 -0.244861
0.466629 0.224391 -0.229947
-0.481136 -0.210668 0.238186
-0.004374 -0.706573 0.285729
-0.460792 0.228982 0.734106
0.018901 -0.685296 -0.728629
-0.449917 -0.227127 -0.699756
-0.460582 0.228732 0.733081
0.432761 -0.233424 0.230883
-0.001209 0.684306 0.710634
-0.462911 0.254797 -0.258195
-0.495524 -0.719742 -0.235851
0.001463 0.683046 0.711788
-0.460715 0.254650 -0.259004
0.002170 0.682797 0.711057
-0.017138 -0.237379 0.719896
0.478664 0.249712 0.691070
0.483002 -0.743094 -0.240069
-0.461473 0.229862 0.734027
-0.450616 -0.227560 -0.699661
-0.003989 -0.706914 0.284279
-0.496540 -0.721564 -0.237893
0.434665 -0.232736 0.232265
-0.460525 0.726772 0.219515
0.455317 0.697664 0.219651
-0.481049 -0.212309 0.236936
0.002316 0.229997 -0.710158
0.002220 0.684389 0.712085
-0.463480 0.253522 -0.260271
-0.447792 -0.226269 -0.697228
-0.015852 -0.236892 0.720009
-0.001939 -0.706903 0.285693
0.019001 -0.683312 -0.727604
-0.016541 -0.235019 0.721015
-0.018098 -0.236547 0.720322
0.000527 0.685202 0.712053
0.477090 0.249611 0.690143
0.469325 0.224539 -0.228692
0.493439 -0.240131 -0.701618
0.454688 0.695850 0.221406
-0.480729 -0.210840 0.236962
-0.461843 0.729047 0.218098
0.476756 0.251292 0.689664
0.478796 0.247350 0.688241
-0.016796 -0.238185 0.721336
-0.005804 0.714005 -0.245590
-0.003979 -0.708236 0.283714
-0.016339 -0.238314 0.722073
-0.495885 -0.721872 -0.237570
0.477437 0.249721 0.690841
0.491854 -0.238969 -0.704920
-0.448791 -0.228095 -0.698417
-0.497306 -0.721874 -0.235149
0.491809 -0.239968 -0.705425
-0.018128 -0.236646 0.721288
0.483771 -0.743392 -0.240084
0.000211 0.684594 0.712288
-0.478389 -0.210887 0.237011
0.000610 0.683490 0.711025
-0.495331 -0.721224 -0.236841
0.468747 0.224310 -0.227784
0.019095 -0.684245 -0.728228
0.456463 0.698109 0.220520
-0.448973 -0.227201 -0.697886
0.002125 0.226434 -0.708732
-0.479761 -0.214106 0.237134
0.018259 -0.685458 -0.728087
-0.001129 -0.707073 0.284953
0.466965 0.223769 -0.229157
0.476542 0.248866 0.690550
0.491844 -0.240374 -0.705225
-0.460906 0.229535 0.733041
0.002110 0.226464 -0.708905
0.484961 -0.742308 -0.240030
0.484379 -0.742086 -0.242016
0.477661 0.251342 0.689580
-0.002208 -0.708061 0.284392
-0.449912 -0.226967 -0.697716
0.478137 0.248219 0.691206
-0.017287 -0.237476 0.719499
0.455422 0.697991 0.219357
0.435427 -0.233198 0.231677
0.468868 0.221708 -0.228411
-0.497590 -0.720211 -0.238186
-0.461713 0.227971 0.733367
0.477670 0.250767 0.690226
-0.017252 -0.235332 0.720358
0.457400 0.695642 0.220806
0.000470 0.229461 -0.710193
0.000529 0.227762 -0.709505
0.456282 0.694789 0.220133
0.435538 -0.231766 0.233050
-0.005188 0.714121 -0.244783
-0.496054 -0.721379 -0.236182
-0.458576 0.726629 0.219865
-0.494395 -0.721821 -0.236314
0.485572 -0.744030 -0.239979
0.490812 -0.240840 -0.705003
0.018804 -0.684592 -0.730296
-0.482453 -0.210737 0.237661
0.435225 -0.232418 0.230974
0.432911 -0.230431 0.231649
0.483643 -0.742648 -0.241427
-0.459919 0.726234 0.218873
-0.448417 -0.228426 -0.696987
0.002699 0.229131 -0.710502
-0.461937 0.228308 0.733214
-0.002041 -0.707108 0.282432
0.468558 0.224875 -0.229594
-0.017495 -0.235716 0.720882
-0.461631 0.226006 0.731159
-0.449525 -0.227242 -0.699034
0.484937 -0.743000 -0.239681
-0.018581 -0.237484 0.722481
0.478007 0.249623 0.690494
0.483940 -0.743985 -0.241166
-0.462195 0.227369 0.733614
-0.000649 0.226839 -0.711299
0.467241 0.224424 -0.230283
-0.448857 -0.227110 -0.696192
-0.003291 -0.704969 0.284379
0.491184 -0.239007 -0.705668
0.001181 0.227237 -0.712123
-0.001592 -0.705818 0.284713
-0.006850 0.712507 -0.242946
0.456331 0.697633 0.220023
-0.006333 0.713375 -0.244075
-0.004809 0.712225 -0.244126
-0.448101 -0.228083 -0.698104
-0.462035 0.255700 -0.259515
0.485898 -0.742417 -0.239664
0.432958 -0.233115 0.232866
-0.460945 0.228134 0.732246
0.483997 -0.742763 -0.238638
0.484503 -0.742262 -0.241761
-0.479583 -0.210279 0.237820
-0.495227 -0.722173 -0.238065
-0.449386 -0.227771 -0.697411
0.494210 -0.238817 -0.705060
-0.496383 -0.722927 -0.238398
0.435474 -0.231162 0.231076
-0.004291 0.711842 -0.245510
0.492093 -0.239994 -0.703990
-0.460804 0.727149 0.218239
-0.461176 0.726826 0.219847
-0.003171 -0.707161 0.283337
-0.494957 -0.723537 -0.237313
0.468962 0.223089 -0.228307
-0.003968 -0.706800 0.282786
0.482190 -0.742536 -0.241979
0.484865 -0.742881 -0.239359
0.019708 -0.685644 -0.730285
0.493674 -0.240545 -0.705191
0.491395 -0.240324 -0.704546
-0.480146 -0.212081 0.238831
0.484377 -0.744361 -0.241223
0.001237 0.685266 0.712087
-0.462831 0.253721 -0.262068
0.492730 -0.241281 -0.705445
0.478822 0.249735 0.690264
-0.460990 0.227301 0.731118
-0.459817 0.728104 0.217688
-0.015719 -0.239002 0.720296
0.018120 -0.682884 -0.726940
-0.450320 -0.228918 -0.697145
-0.478865 -0.212567 0.236569
0.020999 -0.683774 -0.727884
-0.460486 0.726796 0.219731
0.001339 0.684352 0.710540
0.491474 -0.240733 -0.702982
0.492953 -0.241048 -0.704957
0.455541 0.696481 0.221007
-0.459469 0.725969 0.221098
0.491235 -0.239355 -0.704590
0.434646 -0.231875 0.232043
-0.496416 -0.720913 -0.237122
-0.001297 -0.706026 0.286117
-0.461322 0.228572 0.733370
0.020684 -0.684748 -0.728096
0.434244 -0.230769 0.230521
0.456155 0.695885 0.221094
-0.017394 -0.237246 0.720040
-0.007312 0.712128 -0.243366
0.455927 0.695428 0.221462
0.001354 0.228075 -0.708148
0.000749 0.227197 -0.710609
0.467003 0.223338 -0.226138
-0.479259 -0.211361 0.238740
-0.460081 0.228012 0.733199
0.484683 -0.742504 -0.240172
0.456805 0.696518 0.219098
-0.461707 0.726217 0.217331
-0.462552 0.255976 -0.258946
-0.016650 -0.235684 0.722669
-0.006790 0.712844 -0.245066
