OFF
256 0 0
-0.458989 0.244274 -0.231926
0.455401 -0.691324 -0.245589
-0.484629 -0.228788 -0.717386
0.473534 -0.265894 0.243259
-0.000427 0.224715 -0.735281
-0.461757 -0.235627 0.232415
-0.461779 0.245538 -0.231942
-0.479346 0.252181 0.710962
0.457145 -0.693288 -0.243992
0.010995 0.723849 0.690435
0.473002 0.226447 -0.221276
-0.015028 -0.683091 -0.687259
-0.498266 -0.725867 -0.261424
-0.470733 0.695129 0.249006
-0.485111 -0.225699 -0.719877
0.032319 0.689518 -0.238175
-0.023329 -0.705165 0.245164
-0.482134 -0.226776 -0.717869
0.000631 0.222853 -0.733707
-0.480866 0.250906 0.713281
0.462620 0.253445 0.733818
0.011284 0.725447 0.690711
-0.483790 -0.228454 -0.717844
0.482538 0.725923 0.237949
0.483023 0.725701 0.236267
0.481467 0.724392 0.237080
0.006560 -0.263372 0.718622
0.472652 0.226681 -0.222484
0.461651 0.253223 0.734495
-0.461723 -0.234565 0.233365
-0.482606 -0.227462 -0.719608
-0.000039 0.224592 -0.735801
-0.478004 0.250119 0.710979
0.462312 0.251772 0.735785
0.483147 0.725281 0.236883
0.481973 0.726458 0.237524
-0.479282 0.252091 0.711065
-0.017158 -0.682489 -0.688490
0.006129 -0.263669 0.719224
-0.017622 -0.682832 -0.688341
-0.463556 -0.235121 0.233633
0.475019 0.225538 -0.221191
0.010337 0.726025 0.689932
0.005494 -0.262904 0.719443
0.006086 -0.262777 0.718461
-0.482240 -0.226734 -0.718777
0.031310 0.690033 -0.238676
-0.001120 0.223191 -0.734744
-0.483914 -0.225350 -0.717454
-0.463284 -0.234341 0.232711
-0.469779 0.697033 0.249390
-0.497162 -0.725090 -0.262970
-0.479450 0.250541 0.711009
0.493609 -0.238313 -0.723029
-0.483618 -0.225326 -0.719061
-0.000926 0.224476 -0.736486
-0.478955 0.249768 0.710683
0.462811 0.252046 0.734894
0.033709 0.688663 -0.237679
-0.461005 0.244908 -0.232035
-0.497781 -0.725605 -0.262026
0.455956 -0.690993 -0.248016
-0.479140 0.251514 0.710592
-0.483769 -0.224725 -0.719834
0.457084 -0.690077 -0.243015
0.483539 0.726190 0.236241
0.462060 0.250784 0.736990
-0.018097 -0.681696 -0.688025
0.474605 0.226343 -0.220560
0.474285 0.224267 -0.223229
0.010756 0.724049 0.690688
-0.478735 0.252238 0.712326
-0.021785 -0.704722 0.245764
0.483002 0.725468 0.236678
-0.480993 0.251372 0.712769
-0.480295 0.250828 0.711623
0.474151 -0.266115 0.243596
0.481521 0.728583 0.234183
0.458023 -0.690835 -0.245180
-0.482859 -0.227789 -0.721709
0.457738 -0.690174 -0.244531
0.475132 -0.264235 0.241764
0.482950 0.726444 0.234590
-0.480337 0.251233 0.711211
0.000615 0.222917 -0.734632
0.005462 -0.262887 0.719997
0.001593 0.223391 -0.734144
-0.459652 0.245830 -0.232278
-0.023584 -0.706463 0.246027
-0.001400 0.221661 -0.735449
-0.460765 0.245431 -0.231972
0.495178 -0.237117 -0.724400
-0.470703 0.695778 0.250982
0.473111 -0.266075 0.243997
-0.495364 -0.726005 -0.260753
0.475691 0.225581 -0.219931
0.031622 0.689442 -0.237310
-0.497336 -0.725150 -0.261465
-0.463750 -0.235282 0.233961
-0.461834 0.243124 -0.231505
-0.465220 -0.234174 0.233074
-0.497388 -0.725391 -0.263425
-0.017999 -0.679948 -0.686829
-0.484772 -0.225983 -0.719681
0.010626 0.722777 0.691449
-0.460310 0.245047 -0.230309
0.473313 -0.266043 0.241797
-0.481022 0.250762 0.711005
-0.481821 -0.225717 -0.716735
0.006617 -0.263866 0.719180
0.474260 0.224297 -0.222199
-0.462492 -0.235187 0.233769
0.482768 0.726124 0.236629
-0.460567 0.243534 -0.232810
-0.460375 0.242672 -0.230732
0.463095 0.251372 0.736825
-0.478855 0.250912 0.711090
0.011849 0.724016 0.689587
-0.495441 -0.723971 -0.263065
-0.017826 -0.682739 -0.686482
-0.479297 0.253065 0.711350
0.011572 0.723973 0.689903
-0.468937 0.696521 0.249372
-0.485370 -0.226282 -0.719245
-0.460669 0.244310 -0.231132
0.456591 -0.689976 -0.244564
0.481001 0.724935 0.236543
0.007171 -0.262070 0.718789
-0.463341 -0.234735 0.233168
0.456356 -0.690554 -0.246969
-0.484139 -0.225148 -0.718059
-0.020631 -0.706091 0.244531
-0.461942 -0.232931 0.232275
-0.018326 -0.681724 -0.686514
0.482323 0.725928 0.237976
0.480751 0.726266 0.237098
0.031491 0.689240 -0.238992
-0.479177 0.250378 0.711507
-0.467253 0.695630 0.249345
-0.460887 0.245730 -0.232558
0.466259 0.253704 0.734676
-0.017062 -0.682598 -0.688695
0.463939 0.252896 0.734975
-0.019179 -0.679410 -0.687128
-0.016443 -0.682048 -0.688185
-0.464725 -0.235464 0.234228
-0.462275 -0.234504 0.232737
-0.462935 -0.234220 0.232489
0.030015 0.689903 -0.239597
-0.001214 0.223076 -0.734499
0.494001 -0.238822 -0.722273
-0.016876 -0.682104 -0.687249
0.004930 -0.263914 0.720117
-0.017376 -0.681604 -0.689916
0.012660 0.723601 0.691676
-0.484405 -0.227258 -0.718674
-0.464301 -0.232451 0.233786
0.474738 -0.266003 0.241160
-0.462599 -0.234450 0.233858
-0.469986 0.694818 0.249269
-0.021877 -0.705745 0.246304
0.475052 -0.267586 0.240945
0.030772 0.689178 -0.239242
-0.496181 -0.726279 -0.261704
-0.497714 -0.726112 -0.264234
-0.483903 -0.228356 -0.720224
0.009813 0.723614 0.688036
-0.470245 0.696643 0.247966
-0.471634 0.695294 0.249275
0.454923 -0.690333 -0.247294
-0.463560 -0.234361 0.233334
-0.020373 -0.703815 0.247230
0.493574 -0.236768 -0.722379
0.001167 0.222433 -0.734779
-0.020054 -0.681107 -0.686349
-0.017255 -0.680874 -0.689683
0.492406 -0.236153 -0.723434
0.011131 0.726052 0.690613
-0.469798 0.696662 0.251396
0.030469 0.690317 -0.237214
-0.494974 -0.725927 -0.263113
-0.484594 -0.226733 -0.720741
-0.000742 0.222923 -0.735009
0.493761 -0.237743 -0.719751
-0.480907 -0.225904 -0.718732
-0.460397 0.244100 -0.233542
-0.458581 0.244903 -0.230851
-0.020797 -0.706714 0.245943
0.462605 0.252706 0.736631
-0.000094 0.224091 -0.736356
-0.016355 -0.680619 -0.688826
0.462930 0.253478 0.735673
-0.016472 -0.682129 -0.686874
0.482288 0.725677 0.237698
0.031005 0.689548 -0.238615
0.481901 0.726566 0.233886
-0.481290 0.252608 0.710101
-0.018910 -0.680673 -0.688594
-0.019709 -0.705402 0.245577
-0.497280 -0.726710 -0.263315
0.007133 -0.263724 0.719880
-0.465903 -0.235350 0.233026
-0.483901 -0.227779 -0.719001
-0.471722 0.695729 0.249326
0.493769 -0.237204 -0.722574
0.030259 0.688118 -0.237013
0.001126 0.223972 -0.734479
0.474563 0.226117 -0.223022
-0.463551 -0.235974 0.233087
0.005275 -0.263243 0.719298
0.480652 0.726134 0.235910
-0.482612 -0.226085 -0.719636
0.474610 0.226358 -0.221369
-0.020274 -0.706587 0.243935
0.474542 0.224257 -0.220683
0.456607 -0.691436 -0.246616
-0.470798 0.696076 0.250142
0.462565 0.251335 0.735663
-0.022268 -0.705649 0.246930
-0.463345 -0.233760 0.233553
-0.495857 -0.725852 -0.264641
-0.020101 -0.707351 0.247148
-0.496337 -0.727160 -0.262119
-0.021641 -0.706479 0.244362
0.462242 0.252307 0.734653
0.475510 -0.268522 0.241907
0.473478 -0.266373 0.244070
-0.470776 0.695289 0.250012
-0.017482 -0.679923 -0.686502
-0.016490 -0.681921 -0.687692
0.461492 0.252204 0.734951
0.474372 0.225338 -0.220003
-0.498632 -0.726039 -0.260584
-0.497064 -0.727178 -0.261502
-0.018046 -0.681899 -0.685665
-0.477834 0.248782 0.711066
-0.495882 -0.727118 -0.262059
0.482709 0.725581 0.238732
0.011233 0.724661 0.688622
-0.018127 -0.682923 -0.688496
-0.021991 -0.705591 0.245784
0.033316 0.689046 -0.239187
0.461516 0.252855 0.736349
0.482578 0.727250 0.237947
0.463118 0.252366 0.734939
-0.478767 0.250660 0.710350
-0.462645 -0.234380 0.233507
0.462337 0.253267 0.736312
0.474271 -0.266111 0.241896
-0.478862 0.252032 0.711212
-0.479801 0.250902 0.713003
0.029366 0.689404 -0.240121
0.482111 0.725480 0.236877
0.481976 0.726864 0.236377
-0.477292 0.250812 0.711951
0.011025 0.723124 0.689077
