OFF
256 0 0
0.469214 0.238339 0.717481
0.458633 0.683218 0.230020
0.005582 0.715110 -0.223569
-0.439229 0.213785 0.696138
0.004851 0.718200 -0.222154
-0.021365 -0.232588 0.717156
0.468614 0.237068 0.719058
0.427917 -0.229790 -0.694585
0.022821 0.675788 0.688648
-0.021017 -0.231183 0.715936
0.423673 -0.689827 -0.236847
0.023656 0.673784 0.689342
0.022869 0.675945 0.688332
0.001898 0.262875 -0.720397
0.471441 -0.221849 0.252057
0.435771 0.209120 -0.229978
0.005023 0.715743 -0.223684
-0.438352 0.217950 -0.214270
-0.477709 -0.237125 0.202544
0.428113 -0.230333 -0.696001
0.002705 -0.698514 -0.715307
0.025339 -0.685271 0.260872
0.024927 -0.686530 0.259810
0.467858 0.237179 0.717769
-0.020848 -0.230284 0.718200
-0.022136 -0.233341 0.718408
0.000624 0.263960 -0.718987
-0.470721 0.710858 0.215250
0.001753 0.264458 -0.721979
0.027124 -0.684087 0.259808
-0.438230 0.218705 -0.213083
0.425912 -0.231389 -0.694865
-0.020669 -0.229731 0.718656
-0.443889 -0.702635 -0.243710
0.429092 -0.229682 -0.698006
0.004067 0.716886 -0.223244
0.474824 -0.219410 0.251802
-0.456334 -0.232060 -0.703806
0.003008 0.715228 -0.223202
-0.470960 0.710523 0.215716
-0.445519 -0.702967 -0.243529
0.438842 0.207812 -0.233447
-0.470229 0.711767 0.216760
-0.470770 0.711757 0.215739
0.422026 -0.692015 -0.236418
-0.469896 0.710484 0.217088
-0.436584 0.219687 -0.214124
-0.439651 0.213363 0.696851
-0.455508 -0.231867 -0.702064
0.007287 0.716011 -0.224172
0.472483 -0.220671 0.254750
0.005272 0.716029 -0.223215
-0.475998 -0.236992 0.202224
0.469877 0.236736 0.718965
-0.475333 -0.236857 0.201728
0.028080 -0.685040 0.260520
0.024748 -0.684887 0.259490
0.429199 -0.228570 -0.695470
0.025553 0.676163 0.688218
-0.472272 0.709066 0.215994
0.468248 0.237214 0.719182
-0.022778 -0.231070 0.714865
-0.021070 -0.233140 0.716658
0.000632 0.264949 -0.719779
0.026003 -0.684919 0.259476
0.026495 -0.686799 0.259829
-0.023125 -0.229446 0.717309
-0.446208 -0.702340 -0.242611
0.436756 0.207527 -0.230054
0.436347 0.209297 -0.230644
-0.470566 0.710253 0.217005
-0.475244 -0.237293 0.203388
-0.020998 -0.232082 0.717632
0.001607 0.263863 -0.720404
-0.469165 0.710569 0.215492
0.023404 0.674537 0.688942
0.427246 -0.228809 -0.698277
-0.472021 0.711711 0.217690
-0.475734 -0.235633 0.203143
0.473440 -0.220587 0.250307
0.428829 -0.228763 -0.695242
0.423183 -0.691165 -0.236424
-0.471070 0.710208 0.215068
0.026847 -0.685544 0.259422
-0.440583 0.214865 0.695415
0.473250 -0.219240 0.253337
0.003913 0.715194 -0.223214
0.428220 -0.230785 -0.694112
0.468061 0.234970 0.718434
0.000986 0.261905 -0.719874
0.425487 -0.228890 -0.696692
0.022070 0.676488 0.689302
0.004683 0.716874 -0.220504
-0.455214 -0.232264 -0.705189
0.424061 -0.688982 -0.235894
-0.455708 -0.232502 -0.704435
0.425940 -0.230852 -0.693692
0.467713 0.237629 0.718624
0.456447 0.684707 0.230847
0.005167 0.715196 -0.223220
0.422063 -0.690520 -0.238417
0.003078 0.263130 -0.720803
0.427393 -0.230151 -0.695997
-0.455796 -0.231014 -0.703885
-0.444795 -0.703169 -0.241208
0.427304 -0.229320 -0.696630
0.004462 -0.696867 -0.713359
0.457482 0.684469 0.229144
0.004309 0.715315 -0.223725
0.438114 0.209667 -0.232213
-0.434321 0.219360 -0.213146
0.426688 -0.229670 -0.696130
0.473320 -0.219097 0.253355
0.001426 -0.697771 -0.714247
-0.454924 -0.231258 -0.705671
0.428341 -0.229269 -0.696564
0.424045 -0.690871 -0.235649
0.026125 -0.684626 0.260527
0.025811 -0.685226 0.259503
0.002474 -0.697538 -0.714198
0.473917 -0.220033 0.251188
0.424842 -0.689015 -0.237462
-0.437029 0.218712 -0.213402
-0.443817 -0.703079 -0.242445
0.001052 0.263806 -0.720317
0.022814 0.675768 0.685860
-0.440303 0.211893 0.697350
-0.444579 -0.702181 -0.242091
-0.436916 0.220819 -0.214015
0.025621 -0.687058 0.260459
0.004924 0.714832 -0.223038
0.471439 0.235937 0.718068
0.473324 -0.219762 0.250746
0.023480 0.675868 0.689407
0.004630 -0.698067 -0.716694
0.429097 -0.229442 -0.696981
-0.471146 0.710751 0.213493
0.428287 -0.229080 -0.697372
-0.437804 0.219009 -0.214117
-0.020973 -0.230473 0.717129
-0.456348 -0.231414 -0.701897
-0.020479 -0.232810 0.717553
0.002031 0.262858 -0.719641
-0.439984 0.212584 0.695324
0.470000 0.236627 0.718158
0.001733 0.263599 -0.719014
0.458703 0.685762 0.231383
0.025015 -0.684686 0.259816
-0.475712 -0.236673 0.203249
0.002454 -0.697284 -0.716085
0.022667 0.675348 0.688745
0.428012 -0.230016 -0.695243
0.003028 -0.698677 -0.715724
-0.456598 -0.232530 -0.702874
0.466897 0.236964 0.717716
-0.021982 -0.232075 0.717504
0.421810 -0.688327 -0.237186
0.004915 0.713941 -0.221600
-0.455784 -0.233369 -0.703364
-0.445928 -0.703647 -0.243812
-0.471119 0.710972 0.215369
0.001494 -0.697030 -0.715908
-0.439162 0.219982 -0.214571
0.459136 0.684095 0.232472
0.427631 -0.229786 -0.696741
-0.437692 0.218910 -0.213528
0.473124 -0.220366 0.253037
0.470281 0.238463 0.718102
0.469903 0.238350 0.718392
0.427115 -0.232139 -0.696301
-0.474751 -0.236783 0.205445
0.428367 -0.229777 -0.698775
0.003547 0.715946 -0.222460
0.023124 0.675336 0.690473
-0.444627 -0.702320 -0.241632
0.472848 -0.220326 0.251771
0.000862 -0.697562 -0.716699
-0.455635 -0.233642 -0.703431
0.437343 0.209155 -0.231436
-0.470038 0.709043 0.215391
0.427294 -0.229325 -0.697626
0.423439 -0.689050 -0.235856
0.437132 0.208091 -0.228603
0.022516 0.675403 0.689438
0.469510 0.237158 0.719092
0.469983 0.236061 0.718133
-0.469728 0.707711 0.214916
0.001449 -0.698209 -0.714598
0.423356 -0.689118 -0.238061
0.424809 -0.229670 -0.696654
-0.473822 -0.236377 0.204647
0.436088 0.208444 -0.229246
0.022578 0.675109 0.688597
-0.021084 -0.231825 0.716940
0.471860 -0.218734 0.253777
-0.457153 -0.230525 -0.703629
0.004063 0.717939 -0.221379
0.425882 -0.229222 -0.695297
-0.439864 0.213439 0.694115
-0.443385 -0.703411 -0.242777
0.026552 -0.685793 0.260333
-0.476293 -0.238103 0.202029
0.437987 0.209647 -0.230636
-0.454877 -0.231389 -0.702352
0.423063 -0.691172 -0.237591
0.004280 -0.698617 -0.716701
-0.444258 -0.702431 -0.243290
-0.445017 -0.702692 -0.240691
0.005284 0.716186 -0.223558
0.457468 0.684857 0.231465
0.421299 -0.688942 -0.235507
-0.470778 0.710649 0.215899
-0.438645 0.220548 -0.214777
0.423036 -0.693142 -0.237312
0.005302 0.716357 -0.223625
0.001591 0.264210 -0.719953
0.423063 -0.690883 -0.236374
-0.438076 0.219030 -0.216167
0.002449 0.263537 -0.719725
-0.440781 0.212350 0.695981
-0.437342 0.219926 -0.215609
-0.444953 -0.702680 -0.242171
0.428398 -0.230951 -0.697047
0.023626 0.675269 0.688920
0.469269 0.237040 0.717609
0.472916 -0.220484 0.253012
0.421722 -0.689849 -0.235575
0.004423 0.715829 -0.223182
-0.457072 -0.234042 -0.705363
0.473518 -0.219277 0.251625
0.021882 0.675591 0.689786
0.024394 0.674908 0.687535
0.468172 0.235687 0.717426
-0.440970 0.213888 0.695835
-0.020877 -0.230738 0.716438
-0.471464 0.710780 0.216270
0.001826 0.264012 -0.721412
0.000453 0.261650 -0.720798
-0.469425 0.709831 0.215594
-0.021817 -0.231708 0.715608
-0.454180 -0.232755 -0.703988
0.025879 -0.684745 0.259882
-0.456457 -0.233217 -0.702357
-0.476125 -0.235888 0.202826
0.003378 -0.698802 -0.715782
0.468928 0.235937 0.719400
-0.441003 0.212738 0.696196
-0.457039 -0.233058 -0.704926
0.474042 -0.220461 0.251427
-0.456571 -0.232746 -0.704921
0.472720 -0.219420 0.252601
0.457402 0.685059 0.233814
0.436823 0.208341 -0.229871
0.467969 0.236238 0.719306
0.436815 0.209857 -0.231082
-0.438868 0.221105 -0.214288
