OFF
256 0 0
-0.465943 0.232388 -0.236054
-0.001453 0.707258 0.706694
0.475178 0.694521 0.248133
-0.467354 0.252911 0.753933
-0.470181 -0.219376 0.281103
-0.466461 0.254068 0.753029
0.003988 -0.696451 -0.703458
0.440666 0.209357 -0.241271
0.027807 -0.247342 0.715032
0.004681 0.250805 -0.736791
0.517202 -0.285123 0.236743
-0.468731 -0.209434 -0.723314
-0.483809 0.723274 0.218330
-0.004184 0.707753 0.704778
0.451240 -0.703935 -0.254314
-0.032576 -0.718844 0.237212
-0.466944 -0.217861 0.281709
-0.001195 0.708225 0.707875
0.474340 0.694262 0.247818
0.003164 0.247314 -0.736961
-0.468415 0.233056 -0.236482
-0.470091 -0.211115 -0.725406
0.515520 -0.286846 0.237630
0.010780 0.710782 -0.252983
-0.481342 0.725388 0.217030
0.440457 0.209828 -0.240119
0.471767 0.695160 0.246986
-0.472927 -0.706573 -0.263024
-0.003527 0.707518 0.707897
0.452759 -0.703852 -0.255070
0.004504 -0.697227 -0.703247
0.010096 0.707637 -0.252339
-0.480194 0.725407 0.216717
0.469529 -0.230884 -0.725562
0.470351 -0.230682 -0.724838
0.010856 0.706710 -0.253736
0.466766 0.241858 0.741563
0.003113 -0.698647 -0.705448
-0.468634 -0.213871 -0.724150
-0.468549 0.253601 0.754524
-0.466421 0.251744 0.753527
0.010192 0.710747 -0.252440
-0.468944 -0.219557 0.280217
-0.003892 0.708043 0.705481
0.474261 0.696109 0.245663
0.515206 -0.285528 0.237897
0.003213 0.249251 -0.737436
-0.467089 -0.219214 0.280772
0.439853 0.212036 -0.241709
0.516264 -0.286256 0.236991
-0.469496 -0.212631 -0.722552
0.466202 0.241312 0.741148
-0.002368 0.706123 0.707390
0.002083 0.249804 -0.737905
0.466087 0.241868 0.742247
0.003746 -0.696769 -0.703062
0.450217 -0.702420 -0.254677
-0.481798 0.726017 0.217115
0.028705 -0.247781 0.710986
0.001700 0.247318 -0.737041
0.516002 -0.286858 0.236607
0.466989 0.241368 0.741392
0.003089 0.250134 -0.737081
0.451500 -0.704418 -0.254542
-0.470996 -0.210932 -0.724160
-0.033434 -0.718906 0.237743
-0.474890 -0.706429 -0.261856
-0.474236 -0.706709 -0.263821
-0.468560 -0.210942 -0.722983
-0.468524 -0.219733 0.278436
0.514232 -0.286933 0.238572
0.012035 0.708654 -0.253826
0.004578 -0.696849 -0.703367
-0.032723 -0.718440 0.238902
0.474896 0.693295 0.248201
-0.032242 -0.719567 0.238664
-0.001486 0.706510 0.704824
0.003028 0.248253 -0.737113
0.008076 0.706106 -0.254136
0.010555 0.708417 -0.252807
-0.475127 -0.703640 -0.261520
-0.002616 0.708005 0.706087
0.441347 0.212222 -0.240143
0.010084 0.707405 -0.252157
-0.469257 -0.212438 -0.725860
0.007161 0.710149 -0.252174
0.028786 -0.247449 0.712971
-0.473782 -0.706356 -0.261150
0.028692 -0.247156 0.712768
0.028601 -0.247961 0.712456
-0.474481 -0.704590 -0.262442
-0.469132 -0.211044 -0.720948
-0.470130 -0.213620 -0.725280
-0.031521 -0.718966 0.238199
0.026990 -0.247532 0.711490
-0.468548 0.230734 -0.235079
0.027661 -0.248511 0.711798
-0.468873 0.230790 -0.234597
0.516504 -0.285586 0.235768
-0.467749 0.233248 -0.236552
0.003633 -0.696428 -0.704258
-0.002963 0.707732 0.704024
-0.467793 0.232183 -0.236630
0.468041 0.240944 0.740537
-0.468269 -0.219599 0.282531
-0.482494 0.725004 0.217064
0.026221 -0.247428 0.711783
-0.467627 -0.219154 0.280933
0.469817 -0.231507 -0.722548
-0.469874 -0.213077 -0.724394
0.003094 0.248386 -0.737346
0.441085 0.208389 -0.238422
-0.468382 -0.220664 0.280367
0.515313 -0.287239 0.235759
0.451879 -0.703303 -0.253225
0.468366 0.240171 0.741510
0.469825 -0.232241 -0.722800
-0.483249 0.724203 0.215539
-0.033481 -0.719080 0.238857
0.473115 0.697113 0.247528
-0.467544 0.232620 -0.235242
-0.000082 0.706972 0.705942
-0.468927 -0.212617 -0.723680
0.466418 0.242809 0.740124
-0.468142 -0.210557 -0.724105
0.027454 -0.247502 0.710309
-0.467943 -0.218429 0.281748
0.516124 -0.288298 0.237513
-0.475571 -0.706634 -0.262232
0.002489 -0.696425 -0.701978
0.470557 -0.233345 -0.723868
0.010939 0.710645 -0.250595
-0.468340 0.232404 -0.236370
-0.475100 -0.705652 -0.260443
0.514748 -0.285002 0.237158
-0.468832 -0.212763 -0.722274
0.469655 -0.231399 -0.723938
0.469243 -0.230610 -0.723736
0.011736 0.708773 -0.252761
-0.470664 -0.221010 0.281035
-0.475024 -0.705970 -0.262766
0.515228 -0.286500 0.238878
0.465747 0.240802 0.739404
0.468401 0.241089 0.741502
-0.469704 -0.213282 -0.725765
-0.476702 -0.706930 -0.263651
-0.466877 -0.211170 -0.722966
-0.474513 -0.706913 -0.262165
0.466206 0.241748 0.740778
0.440520 0.209035 -0.240048
-0.467371 -0.210378 -0.725155
-0.030041 -0.718818 0.237435
-0.467444 0.232531 -0.233957
0.026891 -0.247951 0.712320
0.514367 -0.285235 0.238630
-0.466377 0.252141 0.751576
0.466626 0.241484 0.740153
-0.468181 -0.218511 0.280957
-0.468441 -0.213682 -0.724506
0.473295 0.692787 0.247812
0.440441 0.211408 -0.240096
-0.466711 0.253910 0.754202
0.469393 -0.232262 -0.723874
-0.000849 0.707537 0.705648
0.451242 -0.704232 -0.255583
0.440431 0.210356 -0.239801
0.002644 0.245395 -0.736622
0.470753 -0.232813 -0.724840
-0.482754 0.724326 0.216627
-0.468857 -0.212048 -0.723585
0.516745 -0.285906 0.236841
-0.467539 -0.219901 0.280664
0.440762 0.211553 -0.243501
0.474773 0.694894 0.247014
-0.002444 0.709873 0.705600
0.475511 0.692826 0.247865
-0.483512 0.722631 0.216823
-0.465310 0.230713 -0.235300
-0.031955 -0.717630 0.237835
-0.466821 0.231522 -0.237168
-0.466599 0.231426 -0.235807
0.028786 -0.248734 0.712781
0.026630 -0.247983 0.713880
0.441703 0.209970 -0.240070
-0.032822 -0.718410 0.238087
0.027590 -0.247398 0.712924
-0.467878 0.233355 -0.235913
0.027707 -0.248015 0.713461
-0.467546 0.251360 0.752719
0.466386 0.241195 0.741367
-0.001562 0.708531 0.705603
0.466301 0.242007 0.739919
-0.469355 -0.211979 -0.723695
-0.466108 0.252111 0.752860
-0.031290 -0.718595 0.238280
-0.002958 0.708026 0.704376
-0.483453 0.725126 0.216687
0.452039 -0.704821 -0.255139
0.452493 -0.702403 -0.256406
-0.469625 -0.220023 0.281345
0.028954 -0.246624 0.711648
0.475758 0.694636 0.251191
-0.031261 -0.718731 0.237700
0.002034 -0.696972 -0.702945
0.010109 0.706616 -0.252372
0.011158 0.707277 -0.251001
-0.003494 0.707325 0.706155
0.453550 -0.704501 -0.254333
-0.467864 0.232947 -0.235985
-0.466749 0.253349 0.753437
-0.470321 -0.212510 -0.723885
-0.467923 -0.218978 0.281626
0.011440 0.709061 -0.251872
0.011526 0.708653 -0.251472
-0.466249 0.253138 0.754000
0.451850 -0.703494 -0.254919
0.440464 0.209673 -0.241973
-0.483002 0.724333 0.216286
-0.001941 0.708910 0.708005
0.010171 0.710893 -0.253979
-0.029743 -0.716336 0.237443
0.515258 -0.286870 0.238714
0.465528 0.242748 0.739900
-0.468614 0.230054 -0.235857
0.466453 0.241394 0.739862
0.473242 0.694618 0.248794
0.003275 -0.698406 -0.703768
0.453953 -0.702964 -0.254587
-0.467486 -0.219708 0.281561
-0.003090 0.707137 0.705388
0.465885 0.240386 0.741064
0.516170 -0.285428 0.238288
0.471108 -0.232527 -0.724880
-0.001541 0.707444 0.704546
0.515987 -0.285199 0.239473
0.474133 0.694455 0.247369
0.470518 -0.231957 -0.723815
-0.000242 0.707814 0.705981
0.515692 -0.286774 0.237550
0.028088 -0.246829 0.711598
0.518745 -0.285353 0.237690
0.468623 -0.231995 -0.723422
-0.002253 0.706193 0.706226
0.440828 0.208786 -0.240884
0.469480 -0.232773 -0.724233
0.466961 0.243196 0.739909
-0.475792 -0.707089 -0.263588
-0.476706 -0.706161 -0.261860
0.441293 0.210352 -0.239859
0.474901 0.693735 0.247701
0.027247 -0.248718 0.711694
-0.483467 0.723571 0.216267
0.465567 0.241533 0.740664
0.009848 0.707747 -0.253330
0.466669 0.243491 0.740150
0.452910 -0.703015 -0.253740
