OFF
256 0 0
0.008852 -0.652534 0.643170
-0.680484 0.704061 0.046417
0.007262 -0.654300 0.643370
0.008839 -0.657968 0.641125
0.688956 0.022651 0.668450
0.675149 -0.682748 0.015702
0.688048 0.024777 0.668488
-0.010029 0.653683 -0.651554
-0.719647 -0.030226 -0.694226
0.016885 0.644670 0.669343
-0.679088 0.705492 0.048550
0.007910 -0.646935 -0.694320
-0.719570 -0.028924 -0.692973
0.017404 0.643800 0.669782
-0.006988 0.651563 -0.652548
0.007568 -0.654082 0.642513
-0.009090 0.653901 -0.651388
-0.685145 -0.657878 -0.004585
0.007522 -0.644821 -0.694079
-0.683719 -0.658299 -0.003906
0.703151 -0.018765 -0.687834
-0.007057 0.652154 -0.651636
0.008730 -0.645410 -0.693627
0.705265 -0.018735 -0.687159
0.007422 -0.657250 0.645036
0.008480 -0.646021 -0.694574
0.016944 0.645962 0.671494
-0.720314 -0.029450 -0.693978
0.008945 -0.655215 0.642711
0.008060 -0.653906 0.642339
0.675358 -0.684142 0.014389
-0.679162 0.702006 0.048830
0.704848 -0.016778 -0.688634
-0.009337 0.652822 -0.651118
0.007015 -0.652782 0.642959
0.009101 -0.653007 0.641320
0.674758 -0.683889 0.014949
-0.691396 -0.016459 0.696476
-0.681020 0.702156 0.046361
-0.685187 -0.658823 -0.005760
-0.680174 0.705283 0.048617
0.704862 -0.018993 -0.689585
-0.009259 0.654062 -0.650881
-0.679773 0.705450 0.050346
-0.720280 -0.032739 -0.694248
0.686922 0.024807 0.669529
0.007837 -0.644957 -0.693156
0.007518 -0.644565 -0.695018
-0.693383 -0.013974 0.695509
0.016344 0.645890 0.669157
0.016627 0.645075 0.669882
0.017703 0.644002 0.669986
0.677493 -0.684180 0.016428
0.017314 0.644279 0.670719
-0.008931 0.652755 -0.651918
0.009549 -0.652208 0.642045
-0.007983 0.651607 -0.652509
0.676815 -0.682596 0.016749
0.007477 -0.655107 0.643085
-0.691780 -0.013389 0.695647
-0.684261 -0.656278 -0.005922
-0.722282 -0.030133 -0.692850
-0.683604 -0.658741 -0.005781
0.675646 -0.685050 0.017564
0.675900 -0.682443 0.016297
-0.681587 0.704541 0.048104
0.680708 0.678623 -0.009307
0.688223 0.023965 0.670078
0.006242 -0.655567 0.643972
0.007727 -0.647136 -0.694623
-0.690408 -0.014961 0.695717
0.676768 -0.684299 0.016099
-0.719797 -0.030017 -0.693386
-0.681441 0.704544 0.046947
-0.685509 -0.656912 -0.005049
0.675756 -0.684905 0.015186
0.007546 -0.646607 -0.693793
0.016471 0.645108 0.669098
-0.679797 0.704812 0.047582
0.008482 -0.645277 -0.693900
-0.692075 -0.015667 0.697357
-0.009539 0.652807 -0.652714
-0.682426 -0.658773 -0.005500
0.704838 -0.020479 -0.688641
0.703836 -0.019355 -0.690102
0.008562 -0.644495 -0.694225
0.680216 0.680304 -0.008496
-0.680039 0.704124 0.050179
0.680869 0.677632 -0.007863
-0.718970 -0.028072 -0.693711
0.688277 0.023638 0.670394
-0.008024 0.653691 -0.651514
0.007245 -0.652610 0.642056
-0.689375 -0.014392 0.692873
0.680687 0.679038 -0.007784
-0.009519 0.653462 -0.652445
0.008160 -0.644677 -0.694406
0.017102 0.644735 0.669527
-0.690261 -0.014620 0.695603
-0.685124 -0.659835 -0.005448
0.007342 -0.653982 0.642108
-0.718992 -0.030191 -0.693603
0.703749 -0.017021 -0.687961
0.704885 -0.018345 -0.687363
0.008709 -0.654514 0.643185
0.007027 -0.645087 -0.693900
-0.678577 0.702672 0.047996
0.015224 0.646846 0.670679
0.676155 -0.683194 0.016702
-0.684567 -0.658513 -0.008081
0.675138 -0.683082 0.016134
0.688791 0.024515 0.671217
0.703420 -0.017974 -0.690904
0.677671 -0.684208 0.015380
0.014261 0.644690 0.669927
0.009643 -0.654367 0.642623
0.015697 0.643990 0.668926
0.680771 0.680142 -0.008022
0.009830 -0.644516 -0.694957
-0.680809 0.704260 0.048057
0.689107 0.023371 0.668628
0.675312 -0.684907 0.014946
-0.680820 0.703406 0.047647
-0.680506 0.704042 0.049630
0.675418 -0.685237 0.014170
0.676503 -0.682395 0.015698
0.688114 0.024143 0.669541
0.018958 0.645145 0.669097
0.680828 0.680377 -0.009938
-0.719844 -0.029491 -0.690588
-0.683991 -0.658811 -0.004998
0.017137 0.646056 0.671288
-0.008393 0.652350 -0.651465
0.017276 0.644521 0.669788
0.704190 -0.017557 -0.687271
0.687356 0.024650 0.668062
0.703541 -0.018654 -0.687431
-0.720294 -0.029460 -0.693547
-0.720755 -0.030259 -0.692791
0.707146 -0.017322 -0.689068
0.008114 -0.645493 -0.694708
0.679369 0.679430 -0.010839
-0.682720 -0.657391 -0.004959
0.676356 -0.684537 0.015499
0.705916 -0.018012 -0.689115
0.014652 0.644976 0.670304
0.689298 0.024569 0.669423
-0.680659 0.702467 0.047368
-0.690248 -0.014593 0.695896
0.017302 0.646052 0.669290
0.008594 -0.654367 0.643386
-0.718693 -0.031743 -0.693129
-0.692810 -0.014990 0.692816
-0.683502 -0.658016 -0.005937
0.688205 0.023821 0.668474
-0.007930 0.652610 -0.652317
-0.009269 0.653481 -0.650655
0.705144 -0.017677 -0.688074
0.675447 -0.684246 0.015845
0.703407 -0.017950 -0.689360
-0.691174 -0.016285 0.694866
0.687724 0.026227 0.667509
0.675781 -0.683358 0.017132
0.688631 0.024428 0.668142
0.689706 0.022387 0.668993
-0.720310 -0.030786 -0.693871
0.703708 -0.018031 -0.689447
-0.683720 -0.659119 -0.006050
-0.690394 -0.015580 0.695522
0.687484 0.023213 0.671111
-0.718960 -0.030359 -0.693916
-0.719832 -0.030310 -0.691000
0.679953 0.677870 -0.010349
0.015563 0.644288 0.669879
0.009079 -0.644509 -0.695644
-0.690953 -0.014213 0.695343
0.689119 0.025751 0.669470
0.688344 0.024967 0.668589
0.006926 -0.645787 -0.693218
0.009745 -0.653968 0.642930
-0.680704 0.703870 0.046359
0.686694 0.023960 0.670741
-0.690754 -0.014970 0.695515
0.676433 -0.684545 0.015114
-0.683068 -0.657947 -0.004988
0.681910 0.680260 -0.008488
0.680179 0.680718 -0.008492
-0.683093 -0.657980 -0.005926
-0.720262 -0.030236 -0.693836
0.681088 0.677373 -0.009088
0.016121 0.644139 0.669510
-0.690685 -0.012640 0.695019
0.008580 -0.644341 -0.694464
0.006830 -0.653922 0.643057
0.017425 0.644677 0.670182
-0.718509 -0.029830 -0.692818
0.017100 0.644498 0.671139
-0.720563 -0.031389 -0.692813
0.007636 -0.657151 0.643239
-0.007602 0.652768 -0.649968
0.009934 -0.653023 0.643446
0.009266 -0.644867 -0.694189
-0.688698 -0.015482 0.695493
-0.679882 0.704314 0.046889
0.008943 -0.654723 0.643196
0.009745 -0.656783 0.642524
0.688908 0.025062 0.668838
0.688364 0.024838 0.668417
-0.679869 0.702951 0.049757
-0.690362 -0.015193 0.697210
0.679930 0.679224 -0.008072
0.008219 -0.653148 0.642801
-0.679594 0.704220 0.049534
0.702942 -0.018197 -0.688405
-0.720670 -0.029793 -0.694775
-0.690553 -0.014224 0.694557
0.674365 -0.685057 0.014914
0.007596 -0.654836 0.643264
0.676058 -0.684929 0.017574
-0.690042 -0.015941 0.694014
-0.009038 0.652908 -0.650511
0.010265 -0.645720 -0.694441
0.705567 -0.016744 -0.688277
0.690658 0.023154 0.670104
0.703421 -0.017379 -0.688319
-0.690285 -0.014581 0.696272
0.704599 -0.018695 -0.687947
-0.686001 -0.657005 -0.006742
0.690241 0.025019 0.670008
0.675859 -0.683497 0.015145
0.675821 -0.682694 0.014887
-0.682551 -0.657352 -0.005933
0.681455 0.679567 -0.009559
-0.719370 -0.030842 -0.694998
0.010467 -0.645593 -0.694119
0.677139 -0.683280 0.016461
0.676275 -0.684345 0.014720
-0.719728 -0.030926 -0.693188
0.015780 0.643741 0.670158
0.008092 -0.645194 -0.694281
-0.681015 -0.658463 -0.004565
0.008729 -0.654203 0.643778
0.016795 0.644957 0.670045
-0.719988 -0.032473 -0.693647
0.676880 -0.684516 0.018224
-0.692044 -0.015636 0.695096
0.016569 0.647299 0.668890
0.007690 -0.645043 -0.695694
0.705244 -0.018699 -0.689885
-0.009765 0.653566 -0.652003
0.016733 0.647041 0.670963
0.018298 0.644009 0.669183
-0.691369 -0.013400 0.695796
0.016213 0.646640 0.670752
0.015882 0.644101 0.670436
0.680051 0.680323 -0.008814
