OFF
256 0 0
0.688756 0.670730 0.050043
-0.016938 -0.661452 -0.659138
0.705539 0.027966 -0.650341
-0.006283 0.671967 -0.632262
-0.654511 -0.676811 -0.020758
0.704687 0.027503 -0.651619
-0.005996 0.671300 -0.630182
-0.715127 0.699488 -0.005026
-0.694311 -0.033043 0.684975
-0.017250 -0.661597 -0.657767
-0.673505 -0.001363 -0.690180
0.705659 -0.685721 -0.019160
-0.005940 0.671212 -0.629985
-0.655193 -0.678951 -0.019488
-0.039367 0.660476 0.660803
0.690138 0.670553 0.049421
-0.693161 -0.032077 0.684504
-0.674378 0.001671 -0.692934
-0.015906 -0.661687 -0.659031
0.706027 0.026794 -0.651450
-0.655752 -0.676643 -0.020843
-0.714287 0.697670 -0.006135
-0.041553 0.658902 0.661310
0.707990 -0.686033 -0.019880
-0.656848 -0.676792 -0.020905
-0.016131 -0.662367 -0.658141
-0.006687 0.670647 -0.631834
0.688778 0.670957 0.049821
-0.004591 0.670526 -0.631538
-0.017821 -0.660638 -0.657750
0.015941 -0.666098 0.636114
-0.675036 0.000314 -0.690584
-0.655664 -0.676650 -0.020893
-0.017693 -0.662237 -0.657176
0.014204 -0.662875 0.636729
-0.692721 -0.033857 0.685230
0.706446 -0.686758 -0.018197
0.683122 -0.006069 0.642040
0.683926 -0.004606 0.642208
-0.655816 -0.678444 -0.020888
0.683156 -0.007003 0.642452
-0.655721 -0.677246 -0.019835
-0.015267 -0.660952 -0.658348
-0.006009 0.671316 -0.631638
0.686615 0.671474 0.051550
-0.003997 0.671712 -0.630839
-0.693589 -0.032486 0.685208
0.017316 -0.663692 0.635929
0.014906 -0.664275 0.635002
-0.693580 -0.033987 0.684284
0.689736 0.672103 0.050335
-0.714693 0.698662 -0.005439
-0.038217 0.661166 0.661107
-0.038141 0.659938 0.663187
0.705451 0.026069 -0.650770
0.707725 -0.686790 -0.018603
-0.693956 -0.032524 0.684578
-0.656019 -0.675889 -0.019091
-0.015024 -0.661271 -0.659551
0.705137 0.028040 -0.649659
0.688084 0.670926 0.050536
-0.715740 0.699596 -0.005125
-0.676296 -0.001348 -0.691208
-0.655436 -0.677005 -0.020260
-0.006892 0.672007 -0.631152
-0.673382 0.000743 -0.689799
0.709005 -0.685690 -0.018623
-0.696055 -0.033372 0.687282
-0.694074 -0.031792 0.684186
-0.713594 0.700202 -0.004909
-0.715956 0.698557 -0.005012
-0.038239 0.661110 0.663658
-0.657583 -0.676635 -0.017827
-0.715909 0.698750 -0.006406
0.015872 -0.663435 0.636675
0.705297 0.027717 -0.651487
-0.691815 -0.031769 0.684855
-0.655918 -0.677015 -0.021089
-0.715700 0.697908 -0.004623
0.686981 0.670456 0.051018
-0.675291 -0.000301 -0.691679
0.704588 0.027162 -0.650766
-0.693843 -0.032578 0.687390
0.015756 -0.663321 0.634683
0.687984 0.670750 0.049306
-0.039490 0.659071 0.661079
0.707802 -0.686231 -0.017355
0.015828 -0.666868 0.636524
-0.016944 -0.661819 -0.658947
-0.017355 -0.661030 -0.659189
-0.006811 0.670918 -0.630032
-0.693566 -0.033057 0.687449
0.706692 0.029443 -0.651060
0.012847 -0.665017 0.637441
-0.656987 -0.678733 -0.019615
0.684054 -0.007166 0.641081
0.015395 -0.663747 0.635001
0.688459 0.668336 0.050426
-0.695786 -0.032914 0.685189
-0.015165 -0.663686 -0.658737
-0.714306 0.698915 -0.004227
-0.007426 0.672489 -0.630088
-0.674295 -0.000891 -0.691530
-0.006128 0.670992 -0.632636
0.704675 0.028703 -0.652251
-0.006214 0.672796 -0.631194
0.706702 -0.687253 -0.018615
0.709987 -0.685479 -0.019300
-0.015956 -0.658767 -0.657416
0.689461 0.671562 0.050015
-0.039288 0.661636 0.661607
-0.655819 -0.678819 -0.020453
0.688348 0.668843 0.051364
0.706336 0.026529 -0.650126
0.684327 -0.006592 0.643630
0.708987 -0.687845 -0.018358
-0.006487 0.670441 -0.630658
-0.654912 -0.677537 -0.019906
0.684597 -0.007579 0.640500
-0.037440 0.660588 0.660836
-0.039025 0.661139 0.660719
0.708270 -0.687027 -0.018126
0.014201 -0.664060 0.636823
-0.675706 0.000743 -0.691169
0.683907 -0.006275 0.642627
-0.715745 0.698054 -0.005747
0.683934 -0.007149 0.640902
0.684445 -0.006834 0.641622
-0.675081 0.000660 -0.692352
-0.015522 -0.660863 -0.657519
-0.714203 0.696915 -0.005952
0.705166 0.027929 -0.651219
0.016001 -0.664300 0.636836
0.704553 0.025812 -0.650767
-0.716527 0.698192 -0.004559
-0.005036 0.672737 -0.632882
-0.006951 0.670151 -0.630905
-0.653992 -0.676549 -0.020183
-0.713115 0.700186 -0.004957
-0.675680 0.000192 -0.693075
-0.694315 -0.033258 0.686321
-0.715312 0.699131 -0.003263
-0.655825 -0.676634 -0.022463
0.684443 -0.006897 0.644386
-0.015411 -0.660780 -0.657368
0.707810 -0.687775 -0.019844
-0.714974 0.699511 -0.002640
-0.693910 -0.033130 0.686532
-0.714941 0.699556 -0.005823
0.016574 -0.665142 0.636064
-0.014570 -0.661514 -0.657696
0.708067 -0.687204 -0.019302
-0.695937 -0.033852 0.685445
-0.038590 0.659263 0.661956
-0.673594 -0.001182 -0.690997
0.682708 -0.006663 0.642436
-0.040333 0.660476 0.662475
0.685447 -0.009599 0.641070
-0.695410 -0.031823 0.685204
0.706386 0.025062 -0.650945
0.708553 -0.685869 -0.018982
-0.017054 -0.659771 -0.658058
0.688009 0.668986 0.050358
-0.675830 0.001281 -0.690748
0.015052 -0.664261 0.636631
-0.005978 0.670948 -0.630592
0.708317 -0.687230 -0.021124
-0.714854 0.698437 -0.004288
-0.675590 0.000574 -0.692494
0.708949 -0.686372 -0.018755
-0.693847 -0.032825 0.686402
0.688633 0.672133 0.051397
-0.016424 -0.661631 -0.655645
-0.658739 -0.675689 -0.021359
-0.005580 0.671099 -0.632432
-0.039143 0.659608 0.662578
-0.656448 -0.678382 -0.020458
-0.716277 0.697331 -0.005171
0.708590 -0.688528 -0.019311
-0.715534 0.701502 -0.006295
-0.693571 -0.030693 0.686204
-0.654496 -0.677196 -0.020468
-0.655561 -0.677423 -0.021167
0.708389 -0.686832 -0.022817
0.688246 0.671142 0.050356
-0.013567 -0.660692 -0.657817
-0.040300 0.660364 0.662525
-0.693742 -0.030944 0.684811
-0.714788 0.698548 -0.005372
-0.655649 -0.675447 -0.020411
0.705231 -0.686385 -0.020261
-0.015723 -0.660761 -0.658111
0.685568 -0.007384 0.642943
0.684881 -0.007724 0.640245
-0.693866 -0.032525 0.685044
0.705611 0.027438 -0.652016
0.705494 0.026721 -0.651756
-0.713918 0.697331 -0.005432
-0.017188 -0.662096 -0.656514
-0.656476 -0.676111 -0.019850
0.707665 -0.687578 -0.018414
-0.715604 0.697576 -0.005755
0.705374 0.027256 -0.652297
-0.005478 0.673366 -0.630427
0.684683 -0.005937 0.639673
0.014080 -0.662811 0.636878
-0.716287 0.697452 -0.005035
-0.040249 0.661207 0.660860
-0.655259 -0.676086 -0.020630
0.013772 -0.664254 0.634035
-0.005941 0.669817 -0.631036
-0.038222 0.660054 0.660742
-0.005433 0.672429 -0.632526
-0.676038 -0.000324 -0.692643
0.708551 -0.688762 -0.018915
-0.714829 0.698303 -0.005265
-0.017489 -0.659287 -0.656759
0.707326 -0.686465 -0.018844
-0.715348 0.699129 -0.005809
-0.038127 0.661992 0.661779
-0.014445 -0.661724 -0.656229
0.708381 -0.686210 -0.019339
0.703978 0.027414 -0.652217
0.709925 -0.688304 -0.019732
-0.695196 -0.034376 0.685496
-0.016608 -0.660719 -0.660667
-0.016921 -0.660234 -0.655978
-0.692971 -0.031483 0.684621
0.706304 -0.686529 -0.019321
0.707773 -0.687713 -0.018621
-0.693331 -0.033291 0.686560
0.688245 0.670375 0.051853
-0.038785 0.660811 0.662062
0.704253 0.026679 -0.651827
0.017131 -0.663130 0.638131
-0.016572 -0.660395 -0.659824
0.706343 0.026805 -0.649589
0.016383 -0.664939 0.637356
-0.714007 0.699257 -0.004514
-0.694732 -0.031434 0.685233
-0.015238 -0.660508 -0.657507
0.015808 -0.665794 0.636719
-0.653357 -0.678278 -0.019850
0.707931 -0.685095 -0.020216
0.016176 -0.663119 0.636725
0.687090 0.670782 0.049176
0.703679 0.028785 -0.651713
-0.693720 -0.033454 0.685206
-0.006351 0.671176 -0.632445
0.015524 -0.662610 0.636715
-0.716075 0.698401 -0.005055
-0.017445 -0.661764 -0.657241
0.689561 0.671211 0.050490
-0.016632 -0.661014 -0.656858
-0.674165 0.000176 -0.691617
0.705482 0.027982 -0.650418
