OFF
256 0 0
0.235653 0.471789 0.234612
-0.234289 0.471355 -0.235723
-0.707447 -0.000141 0.709018
-0.708482 0.471036 0.236087
-0.233951 -0.471221 0.707442
0.234758 -0.471487 0.234329
0.708114 0.000473 0.237785
0.707503 -0.470970 -0.235801
0.709888 -0.001120 0.235103
-0.236699 0.469721 0.708024
0.706212 0.471380 -0.235595
0.707061 0.471114 -0.235972
-0.704149 -0.470206 0.234445
0.233756 0.469792 -0.706251
-0.707191 -0.471125 0.234618
-0.236860 -0.471553 0.707370
-0.236797 0.470593 0.705051
0.707978 -0.470342 -0.235229
0.707525 0.471454 -0.236205
-0.707359 -0.472603 0.235763
0.236710 0.471484 -0.707911
0.236161 0.002435 0.708245
0.235901 -0.471315 0.236136
0.706986 -0.471198 -0.234031
0.236550 -0.471107 -0.704658
-0.234108 0.473073 -0.235971
0.705296 -0.471596 -0.234691
-0.235767 -0.470279 -0.235078
0.237838 -0.001643 0.706369
0.235437 -0.470090 0.236990
-0.708251 -0.472654 0.235113
-0.708109 0.471966 0.236183
0.710385 0.471381 -0.236611
-0.708987 0.001592 -0.236620
0.706995 -0.002771 -0.707128
-0.234482 -0.470713 0.706291
0.707831 0.000678 0.235958
-0.235499 -0.470292 0.708589
-0.233743 -0.001080 -0.707613
0.707994 0.000736 -0.707226
0.706181 0.471804 -0.235951
0.706152 -0.471464 -0.233957
-0.705756 -0.000681 -0.235963
0.235999 0.471524 -0.708076
0.706122 0.471314 -0.234142
-0.708715 -0.472424 0.233147
0.706698 0.470192 -0.237445
0.706133 -0.001098 -0.706826
0.706724 -0.471166 -0.237274
0.235405 0.001485 0.708715
-0.708631 -0.000726 0.706041
0.236304 -0.470469 0.236501
0.236253 -0.471766 0.234979
-0.235419 -0.471975 0.707001
0.234974 -0.470761 0.236600
-0.707506 0.471154 0.234751
0.235638 -0.472173 -0.705367
0.707260 -0.000440 0.235907
-0.237580 0.471515 0.707456
0.234620 0.471109 0.236663
-0.235272 0.471618 -0.234949
0.234174 -0.471919 0.236178
0.234469 0.472491 0.235327
-0.707891 0.000529 -0.233957
0.707605 -0.472716 -0.234539
0.706641 -0.471384 -0.236658
-0.236190 -0.472071 0.706747
0.706826 0.471403 -0.235689
-0.234179 0.472348 -0.234649
0.707472 -0.471342 -0.233965
-0.235617 0.473773 0.706084
-0.704912 -0.000084 -0.236074
0.706743 0.472067 -0.236021
0.706328 0.000856 -0.706506
0.708937 -0.471978 -0.235899
-0.237010 0.472444 -0.236062
-0.234516 0.472703 0.705065
0.233338 0.470712 -0.706593
-0.708135 0.472696 0.235886
-0.236835 0.000287 -0.709554
-0.235405 0.469377 0.705684
-0.234635 -0.470693 0.705755
-0.705995 -0.000752 -0.235379
-0.706469 -0.000098 0.708049
-0.708454 0.470672 0.235724
0.234482 0.471379 0.236255
-0.235343 -0.471441 -0.235918
0.234790 -0.470345 0.236239
-0.235592 -0.471047 -0.237095
-0.235690 0.470235 0.706608
0.705648 0.471919 -0.235292
-0.707936 -0.000525 0.705926
0.705819 -0.470708 -0.234100
0.706581 -0.001117 0.236713
0.234754 -0.000511 0.709338
0.706976 -0.471224 -0.233824
0.707087 0.472299 -0.234979
-0.236852 0.469225 0.705754
0.704726 0.471254 -0.234822
0.235098 -0.473148 -0.706723
0.705893 0.000013 0.233444
0.234625 -0.470493 -0.707362
-0.235216 0.471443 -0.236107
-0.236209 0.001297 -0.705474
-0.707030 0.471753 0.236869
-0.707992 0.471694 0.235852
-0.707780 -0.472355 0.236288
-0.237089 -0.470818 -0.235636
0.706516 0.002034 -0.706096
0.706871 0.000282 -0.707547
-0.706745 0.001528 0.706310
-0.236654 0.471604 0.706583
-0.236752 -0.471173 0.708438
-0.707793 -0.000851 0.707912
0.707187 -0.471890 -0.236330
-0.235260 0.471197 -0.235512
-0.233576 0.470897 0.707739
-0.236185 -0.470897 0.707944
-0.706194 -0.470865 0.235967
0.236212 -0.472234 -0.709148
-0.707527 -0.000495 0.704894
-0.707799 -0.471793 0.234039
0.708251 0.001151 -0.706079
-0.236534 0.471972 0.708756
-0.235378 -0.471227 0.706451
0.707452 -0.000901 0.234697
-0.707941 0.472320 0.236686
0.707987 0.000011 -0.708568
-0.235768 -0.471981 -0.236542
0.236479 0.472567 -0.705242
0.708419 -0.470204 -0.236361
0.234197 0.470652 0.234781
-0.234031 0.471786 0.706194
0.235977 0.473090 -0.707273
0.707453 -0.001104 -0.704941
0.235628 -0.471481 0.235731
-0.236861 -0.471272 0.706721
0.236022 0.002137 0.707782
-0.233909 0.471671 0.707103
-0.708354 -0.001158 -0.235069
0.235879 -0.471500 0.236764
0.235230 0.000274 0.707356
-0.233884 -0.473144 0.706759
-0.706113 0.471162 0.235652
0.236343 -0.471588 0.235531
-0.236335 -0.471683 -0.236077
0.706171 0.000653 0.235336
-0.233617 0.471912 -0.236210
0.706198 -0.000652 -0.705594
-0.236167 -0.470262 -0.233707
0.706230 -0.472290 -0.235161
-0.707490 0.472329 0.236646
0.235222 0.471240 0.236192
0.235432 0.470736 0.234049
-0.706814 0.473800 0.234783
0.706479 -0.470285 -0.233376
0.235632 -0.470408 -0.707418
0.707430 -0.000051 0.237019
0.708315 0.000472 0.236123
-0.707205 -0.471372 0.235873
0.237367 0.471028 0.235035
-0.236598 0.472176 0.707756
-0.236559 0.001013 -0.707470
0.705480 0.000758 -0.707154
0.707641 -0.470887 -0.235484
-0.708419 -0.470698 0.235904
0.706264 -0.472154 -0.235788
-0.235914 -0.470284 -0.234625
0.706725 0.470482 -0.236336
0.707697 0.471589 -0.236866
-0.706191 0.000757 -0.235550
-0.238338 0.471054 -0.236274
-0.237355 0.471174 -0.235275
0.706860 0.000975 0.232954
0.706900 0.471654 -0.236353
0.706835 0.000691 0.235653
0.706506 0.471635 -0.234243
0.707571 -0.001574 0.236719
0.234801 0.471340 0.235480
0.706759 0.000317 -0.706667
-0.704615 0.471789 0.237093
-0.707618 0.470711 0.236398
0.233961 -0.002794 0.707297
0.707661 -0.472328 -0.235581
-0.707281 0.473301 0.235201
0.236965 -0.471828 -0.707389
-0.235788 0.470020 -0.237478
-0.238323 0.470627 -0.235813
0.236105 0.470577 -0.707764
-0.238178 0.470652 0.706694
-0.707206 -0.001280 -0.235792
-0.237216 -0.471975 -0.235014
0.707764 0.472760 -0.236360
-0.235535 -0.471005 0.707739
-0.708692 0.001467 0.705371
0.234971 -0.470854 -0.705435
0.708283 -0.470325 -0.233190
-0.707761 -0.470635 0.237095
0.236134 -0.471332 0.236593
-0.707039 -0.002077 -0.235798
-0.235816 0.469824 -0.235789
-0.234189 0.470606 0.708789
0.234208 0.473205 0.235061
-0.234689 0.470477 0.710020
0.706673 0.001475 -0.706704
0.706566 -0.472224 -0.235196
-0.235741 -0.472355 0.707518
0.234743 0.471399 -0.709630
-0.233838 0.002232 -0.706957
-0.706736 -0.471785 0.235650
-0.706827 -0.472121 0.235356
-0.234973 -0.000105 -0.706197
0.235583 0.472096 -0.706633
-0.235932 -0.471445 0.707550
-0.706372 0.001812 -0.235123
-0.234255 0.471044 -0.235209
0.234583 0.472691 -0.707618
-0.237115 -0.471476 0.706432
-0.704675 0.473386 0.237193
0.705828 0.002120 -0.708050
0.705974 -0.472700 -0.236697
-0.707076 0.000680 0.706930
0.707772 -0.471326 -0.235884
0.235420 -0.470483 0.236205
0.708872 0.470704 -0.235460
-0.237817 0.472444 0.708284
-0.234971 -0.471509 -0.236581
0.705603 0.471295 -0.237221
-0.708613 0.471696 0.234779
-0.236358 -0.472508 -0.234037
0.235992 0.469963 0.235362
0.236476 -0.470156 0.235669
-0.707918 -0.000929 0.708426
0.234979 0.472639 0.235065
0.237724 -0.472050 -0.706936
0.235843 -0.472482 -0.706055
-0.236200 0.470426 0.707507
0.707585 -0.000225 0.235073
0.235910 -0.471690 0.235962
0.234286 -0.470595 -0.708333
-0.706267 -0.472538 0.235352
0.705532 0.470980 -0.236349
-0.234957 0.471320 -0.235315
-0.708212 -0.470630 0.234104
-0.236400 0.472222 -0.236467
-0.707134 -0.472248 0.235106
-0.707887 -0.470080 0.234375
0.235961 -0.001028 0.708160
-0.235806 -0.471029 0.707878
-0.235543 0.471619 0.708112
0.706901 -0.001036 0.235415
-0.235720 -0.472429 0.707660
0.235149 0.000770 0.705222
0.707697 -0.471062 -0.234914
-0.706866 0.472045 0.235204
0.235580 0.470285 -0.705361
