OFF
256 0 0
0.701889 0.470878 -0.229325
0.223479 -0.504379 0.223722
0.224818 0.004676 0.672732
-0.688492 -0.012181 0.709798
-0.238226 -0.430264 -0.199524
0.722066 0.007897 -0.692400
-0.234957 -0.429406 -0.202718
-0.234280 -0.429109 -0.201773
-0.706147 -0.006174 -0.222423
-0.717093 0.467575 0.218706
0.216155 -0.464122 -0.712452
0.234771 0.485468 -0.688411
0.723191 0.009414 -0.690731
-0.235853 -0.427800 -0.199478
-0.704542 -0.007631 -0.224135
0.225406 0.004208 0.673056
0.703190 0.472714 -0.227531
-0.236151 0.463917 0.661385
0.721218 0.008823 -0.691549
0.722781 0.010672 -0.692466
-0.228172 0.009470 -0.705034
0.236515 0.483937 -0.687771
0.225889 -0.505125 0.223465
-0.233367 -0.430535 -0.200524
-0.235798 -0.485615 0.701700
-0.705432 -0.006625 -0.225041
0.273063 0.474888 0.240533
-0.234143 -0.429723 -0.200764
0.699347 -0.452637 -0.234651
-0.687295 -0.011153 0.710387
-0.720782 0.467250 0.219384
0.701742 0.470001 -0.230469
0.222213 0.003863 0.672446
0.233619 0.484761 -0.687464
0.702327 0.470512 -0.227873
-0.233705 -0.428874 -0.200384
0.225622 -0.502496 0.224566
-0.236279 -0.485265 0.701634
0.698472 -0.454117 -0.234177
0.274152 0.474916 0.240393
-0.233953 -0.484410 0.703698
-0.234477 -0.482519 0.702469
-0.238017 0.463279 0.661450
0.701753 0.472109 -0.228599
0.701131 -0.453431 -0.236013
0.217955 -0.463020 -0.711075
0.272650 0.474787 0.242011
-0.234746 -0.429695 -0.202038
0.701100 -0.452019 -0.236679
0.272838 0.474665 0.242828
-0.234186 -0.482907 0.703567
0.722909 -0.008134 0.244662
0.701741 0.470225 -0.227545
-0.227349 0.011078 -0.706139
-0.234465 -0.483863 0.702040
0.723814 0.009826 -0.692567
-0.238754 0.467312 0.662119
0.700197 0.472020 -0.228078
0.723305 -0.008592 0.244896
0.224900 -0.503991 0.222487
-0.689115 -0.011948 0.714004
0.723220 -0.007699 0.245587
-0.228302 0.009133 -0.704788
-0.239250 0.465740 0.662807
-0.688834 -0.011265 0.711424
0.722198 0.010749 -0.691686
-0.689183 -0.010295 0.711610
-0.232415 -0.483005 0.701429
-0.706744 -0.007099 -0.224593
-0.226915 0.008793 -0.705753
0.723432 -0.008775 0.245035
-0.226844 0.008629 -0.705397
-0.229133 0.008062 -0.706529
-0.706091 -0.007815 -0.225184
-0.238433 0.463679 0.662542
0.217696 -0.463920 -0.710568
0.216398 -0.462917 -0.711284
-0.687604 -0.010317 0.710842
0.236278 0.484537 -0.688767
-0.234133 -0.429199 -0.199774
0.216882 -0.462436 -0.711195
0.214180 -0.463095 -0.712190
0.235697 0.483772 -0.688091
0.720497 0.008572 -0.691206
-0.239290 0.466599 0.662495
-0.728956 -0.487491 0.248495
0.724010 -0.008465 0.243712
-0.720281 0.467765 0.218285
-0.246694 0.457630 -0.240601
0.234560 0.484272 -0.686399
-0.248160 0.461101 -0.238684
-0.227322 0.008075 -0.704558
0.700219 -0.454140 -0.234370
-0.721272 0.467986 0.220665
-0.718333 0.467377 0.217013
-0.240151 0.464809 0.662792
-0.228278 0.010189 -0.705335
-0.726118 -0.486710 0.248869
0.723955 -0.008692 0.244135
0.272142 0.476443 0.241949
-0.229738 0.007943 -0.705417
-0.704552 -0.006770 -0.225521
-0.689744 -0.011663 0.711591
0.722026 0.011091 -0.693792
0.724578 -0.009706 0.244201
-0.704346 -0.005919 -0.225326
-0.234395 -0.428128 -0.200709
0.702405 -0.453395 -0.236190
0.702456 0.470510 -0.227901
-0.227980 0.008690 -0.704825
-0.226486 0.008810 -0.708019
-0.246111 0.459812 -0.237632
0.723829 -0.009304 0.244666
-0.719091 0.468453 0.217027
-0.235164 -0.431230 -0.202742
-0.234532 -0.429223 -0.201247
-0.686336 -0.010178 0.712364
0.225206 -0.503917 0.225034
-0.239496 0.463622 0.662807
0.273550 0.476458 0.241531
-0.237472 0.465114 0.663470
0.700738 0.469811 -0.227713
-0.703971 -0.006479 -0.224138
-0.236723 -0.484000 0.702889
-0.705347 -0.007008 -0.224044
-0.238517 0.464054 0.660426
-0.687185 -0.009901 0.710934
-0.726559 -0.487584 0.247981
-0.705224 -0.006489 -0.223574
-0.236042 -0.428693 -0.200759
-0.718895 0.466739 0.219010
-0.705496 -0.006150 -0.225485
-0.247948 0.461050 -0.236413
-0.235325 -0.431767 -0.199377
0.236228 0.484403 -0.688406
-0.724344 -0.488544 0.249542
-0.703699 -0.005958 -0.226572
-0.727276 -0.486072 0.248321
0.721955 0.009190 -0.692116
-0.718681 0.465868 0.218160
0.703658 0.469279 -0.229257
-0.718180 0.467116 0.219002
0.235994 0.482500 -0.687535
0.217786 -0.461983 -0.713298
0.723570 0.010763 -0.689960
0.216839 -0.464386 -0.713090
0.217990 -0.464009 -0.712052
0.234246 0.483671 -0.688162
0.724740 -0.008418 0.243528
-0.703350 -0.008705 -0.223345
0.721686 0.010339 -0.690345
-0.687803 -0.009218 0.711166
-0.235910 -0.483394 0.701796
-0.719982 0.467716 0.218192
0.724238 -0.009645 0.246188
0.218534 -0.463572 -0.711859
0.721169 0.008121 -0.692857
0.701884 -0.455147 -0.233191
0.272945 0.476775 0.242928
0.701890 -0.452284 -0.236060
-0.246595 0.458953 -0.238690
0.224341 0.004163 0.674089
0.217304 -0.463185 -0.711638
-0.227658 0.011023 -0.704138
0.701686 0.470438 -0.227142
0.723776 0.011234 -0.692920
-0.227611 0.009285 -0.705883
0.721596 0.008950 -0.692758
0.700428 -0.452026 -0.235229
-0.727385 -0.486440 0.249257
-0.237354 0.465684 0.662401
0.233617 0.485126 -0.687682
0.224476 -0.502656 0.221755
0.271295 0.475584 0.242606
0.702960 -0.454886 -0.235337
-0.718853 0.469659 0.218635
0.702693 0.469604 -0.230257
0.699954 0.470064 -0.228032
-0.239376 0.466513 0.662778
0.722662 0.010120 -0.692516
-0.725320 -0.486656 0.247943
0.273093 0.475449 0.241880
-0.718441 0.468175 0.218723
0.223645 0.005640 0.672298
-0.688820 -0.011057 0.709234
0.224439 -0.503601 0.224035
0.723428 0.009480 -0.691417
0.721877 0.009590 -0.689721
0.272048 0.475555 0.243533
0.722846 -0.008751 0.244250
-0.234960 -0.484072 0.702328
-0.227185 0.007542 -0.706326
-0.689554 -0.011271 0.711689
-0.688346 -0.012131 0.709770
0.701618 0.470156 -0.228052
-0.246464 0.459657 -0.238932
0.699576 -0.453769 -0.234464
0.700580 0.473082 -0.229783
0.724300 -0.009607 0.245874
0.235651 0.484514 -0.686699
-0.247462 0.458720 -0.239686
0.702634 0.471018 -0.229350
-0.702366 -0.006047 -0.223746
-0.234742 -0.429189 -0.201537
0.217138 -0.463187 -0.711971
-0.228759 0.006936 -0.706564
-0.688731 -0.010913 0.711987
-0.726160 -0.485457 0.248563
-0.725085 -0.485557 0.249993
-0.234723 -0.428281 -0.201092
-0.688257 -0.009543 0.712539
-0.233571 -0.429685 -0.200637
0.225237 -0.502536 0.223568
-0.687531 -0.010059 0.711794
-0.725608 -0.485339 0.250599
0.274146 0.475710 0.241445
0.216944 -0.461289 -0.711631
-0.236029 -0.485206 0.700720
-0.247198 0.461372 -0.238958
0.724259 -0.007663 0.243553
0.217071 -0.464214 -0.712872
-0.724749 -0.487109 0.249471
0.218230 -0.464664 -0.711764
0.698987 -0.453476 -0.234091
0.700907 -0.454965 -0.235829
-0.687994 -0.010070 0.712185
-0.690071 -0.011594 0.708669
0.722795 0.010267 -0.692674
0.721928 0.011996 -0.693061
-0.688516 -0.009546 0.709896
0.223212 -0.503624 0.224319
0.226661 -0.504247 0.223889
0.226003 -0.503578 0.224976
0.272707 0.478357 0.241181
0.235153 0.484354 -0.689108
-0.227263 0.009139 -0.705485
0.235654 0.484550 -0.686931
-0.227775 0.008738 -0.706240
-0.238159 0.465519 0.663785
-0.704315 -0.005885 -0.224130
0.272649 0.476471 0.242833
-0.247756 0.457830 -0.240028
-0.235775 -0.483540 0.702718
0.702674 0.473329 -0.227740
-0.704326 -0.008199 -0.224022
0.726936 -0.008586 0.244217
-0.239021 0.464153 0.662429
-0.248585 0.460825 -0.238068
0.722180 0.011243 -0.691341
-0.247258 0.459437 -0.238944
0.721411 0.008910 -0.693209
-0.238176 0.464374 0.662815
-0.229131 0.009997 -0.705391
0.217571 -0.463981 -0.713456
-0.726505 -0.483896 0.249132
-0.725266 -0.487702 0.249081
