OFF
256 0 0
-0.253845 -0.470577 -0.235212
0.705958 0.028393 -0.707930
-0.219425 0.440535 -0.219585
0.230320 0.492908 -0.702392
-0.706531 -0.460306 0.245726
0.228397 -0.010723 0.691644
-0.216367 0.440721 -0.220764
-0.256275 -0.472466 -0.239353
-0.235850 -0.470522 0.709364
-0.721276 -0.007275 -0.196849
-0.722834 0.473642 0.240262
-0.709389 0.019896 0.676785
-0.721696 -0.008133 -0.199800
-0.707196 -0.459390 0.248008
-0.236550 -0.470594 0.708473
-0.720180 -0.006641 -0.197933
0.247603 -0.475395 0.222164
0.248943 -0.474734 0.225707
-0.211070 -0.012086 -0.697082
-0.255823 -0.471160 -0.238166
-0.217441 0.440172 -0.218789
-0.709713 0.018475 0.675732
0.247984 -0.476436 0.224348
-0.209070 -0.012850 -0.700524
-0.217465 0.438472 -0.219434
0.683474 -0.464898 -0.248127
0.730395 -0.003210 0.226366
-0.704792 -0.459727 0.247023
-0.719911 -0.008408 -0.197743
0.241751 0.452168 0.258980
0.704563 0.026585 -0.708036
0.261465 -0.461525 -0.706142
0.248344 -0.473190 0.224838
0.247960 -0.476548 0.224402
0.227633 -0.010596 0.690326
0.228346 0.492628 -0.700595
0.684818 -0.465953 -0.251198
0.229334 0.491819 -0.701693
0.242709 0.452064 0.256890
-0.723929 0.474069 0.241646
-0.711498 0.018272 0.676393
0.728603 -0.002131 0.227199
-0.722240 0.474886 0.241123
0.231460 0.494701 -0.701380
-0.722527 -0.007130 -0.199443
-0.705172 -0.460821 0.246487
-0.256698 -0.471162 -0.237671
0.706806 0.028383 -0.706464
-0.722565 0.472963 0.239709
0.684597 -0.466893 -0.251721
0.248309 -0.474848 0.224015
-0.719813 -0.007344 -0.199306
0.730738 -0.001954 0.228154
0.707963 0.027644 -0.706304
-0.710137 0.019483 0.676511
0.249697 -0.475323 0.222979
-0.254091 -0.472482 -0.238564
0.247993 -0.475222 0.225091
0.706569 0.028469 -0.706890
-0.722096 -0.008342 -0.201698
0.683346 -0.466027 -0.252633
0.682737 0.473703 -0.235842
-0.234312 0.455955 0.683322
0.261374 -0.460229 -0.705490
0.682033 -0.465719 -0.249140
0.247277 -0.476493 0.222786
-0.710245 0.020853 0.677099
0.248630 -0.474656 0.225743
-0.234545 0.457194 0.682412
0.680459 0.472765 -0.237246
0.228246 0.493399 -0.701161
0.230608 0.493319 -0.703124
-0.234726 0.456568 0.684340
0.242242 0.453961 0.257972
0.728910 -0.003609 0.225716
0.230128 0.495369 -0.700879
-0.235584 -0.471805 0.707839
0.248146 -0.477086 0.223492
-0.709653 0.020074 0.677955
-0.216606 0.439146 -0.218775
0.240942 0.452650 0.255642
0.708177 0.026265 -0.705283
0.228695 -0.010510 0.690490
-0.724011 0.474770 0.240432
-0.208865 -0.010492 -0.697387
0.228517 0.494307 -0.701511
-0.217149 0.442142 -0.221269
-0.709956 0.020329 0.676421
-0.719503 -0.008526 -0.198743
-0.721695 -0.006775 -0.199839
0.263478 -0.460537 -0.704242
-0.711542 0.019731 0.676283
-0.234370 -0.469641 0.709074
-0.210471 -0.011804 -0.698338
0.729201 -0.001343 0.225659
-0.705802 -0.461910 0.249891
0.729471 -0.002752 0.226075
-0.720822 -0.008652 -0.200472
-0.233508 0.457110 0.682737
-0.723231 0.474587 0.242167
0.708650 0.027427 -0.706467
-0.723549 0.474150 0.241200
0.229081 0.494354 -0.702124
0.232245 0.492334 -0.701211
0.706716 0.026592 -0.709344
0.230269 0.493883 -0.702214
0.684173 -0.466206 -0.249947
-0.256090 -0.469799 -0.235816
0.260933 -0.459420 -0.703705
-0.711235 0.021327 0.675441
0.249010 -0.474470 0.224344
0.261890 -0.462267 -0.704471
0.261076 -0.461515 -0.704048
-0.722028 0.474363 0.241874
-0.255158 -0.471560 -0.238525
-0.233279 0.454687 0.682893
0.262246 -0.462272 -0.704764
0.729883 -0.001723 0.226305
0.229591 0.494730 -0.702252
0.262521 -0.461401 -0.703973
-0.709590 0.020222 0.677471
0.707006 0.027706 -0.707151
-0.724690 0.472746 0.243922
0.683392 -0.467513 -0.250818
-0.721336 0.473861 0.242159
-0.217096 0.439897 -0.219514
0.228317 -0.008829 0.687865
-0.217066 0.439552 -0.219030
-0.217755 0.441121 -0.218189
-0.209599 -0.014401 -0.698811
-0.704273 -0.462966 0.245766
-0.719376 -0.008870 -0.199455
0.261931 -0.461687 -0.704808
-0.719711 -0.008502 -0.200470
0.709462 0.028109 -0.706339
0.247400 -0.475090 0.224665
-0.721692 -0.006792 -0.199104
-0.722861 0.474314 0.242267
0.247903 -0.474670 0.225072
-0.208482 -0.014861 -0.698912
0.229164 0.494962 -0.702703
0.248415 -0.475978 0.224340
0.229704 0.494283 -0.702395
-0.255197 -0.471311 -0.237661
0.261790 -0.462062 -0.704718
-0.209143 -0.012693 -0.700234
0.228903 0.493432 -0.701923
-0.233291 0.457019 0.682046
0.232783 0.493680 -0.701851
-0.719440 -0.008281 -0.198616
0.728522 -0.001452 0.226370
0.684862 -0.464863 -0.249623
0.229344 0.493879 -0.701613
-0.236002 0.456232 0.683921
0.679853 0.474413 -0.235461
0.227709 -0.009103 0.689034
0.679806 0.472093 -0.235144
0.243111 0.453249 0.256339
0.249232 -0.473916 0.223411
-0.709304 0.019385 0.675090
-0.710202 0.019310 0.677736
-0.234671 0.454991 0.684059
-0.234882 -0.471568 0.708782
-0.720873 -0.007669 -0.199786
0.728638 -0.001312 0.225399
0.248776 -0.476170 0.223205
0.229912 0.493529 -0.702129
-0.236584 -0.471097 0.707824
0.242298 0.453156 0.258659
0.683342 -0.467967 -0.249213
-0.705638 -0.459917 0.247286
0.706199 0.026125 -0.706266
-0.709772 0.018613 0.675022
-0.217442 0.439836 -0.218927
-0.710507 0.019858 0.674969
0.262070 -0.460070 -0.704182
0.728506 -0.001576 0.225656
-0.234724 -0.470491 0.709021
0.248561 -0.474681 0.224129
-0.706448 -0.458934 0.247840
-0.723437 0.474629 0.242884
0.683315 -0.466788 -0.250515
0.247911 -0.474803 0.225251
0.228416 0.493605 -0.702851
0.709210 0.027043 -0.706907
0.241553 0.451989 0.256172
-0.706105 -0.460735 0.247543
0.247979 -0.476996 0.223836
0.261728 -0.461792 -0.704238
0.230921 0.493508 -0.701815
0.230591 0.494445 -0.702006
0.683107 0.474534 -0.237682
-0.255617 -0.472168 -0.236507
0.728625 -0.002694 0.224160
0.680458 0.475599 -0.234296
0.682610 0.472513 -0.233638
-0.704584 -0.459878 0.247232
0.682775 -0.464939 -0.250754
-0.253563 -0.471227 -0.237768
-0.235994 0.457369 0.683271
0.708745 0.027343 -0.707511
-0.723260 0.471747 0.242419
-0.256710 -0.470299 -0.237348
-0.236088 -0.470802 0.707061
0.230369 -0.008209 0.690093
0.685030 -0.466101 -0.251059
0.247967 -0.477524 0.223043
-0.719464 -0.007361 -0.199432
0.707753 0.027159 -0.705649
0.230719 -0.009737 0.689547
-0.708449 0.020021 0.676636
0.230118 -0.010701 0.689391
0.707625 0.028078 -0.707285
0.241698 0.451173 0.257044
0.706348 0.025835 -0.707766
0.241221 0.452659 0.258802
-0.209592 -0.013530 -0.698427
0.730181 -0.002428 0.225615
-0.704593 -0.460483 0.246608
0.706533 0.026781 -0.706744
0.707871 0.026228 -0.706112
0.226417 -0.009379 0.689741
0.262521 -0.458784 -0.704614
0.683452 0.472867 -0.233889
0.706145 0.026214 -0.707039
-0.705166 -0.461262 0.246210
-0.215891 0.438863 -0.218672
0.230298 0.495845 -0.699622
-0.235954 0.456233 0.684407
-0.721302 -0.006249 -0.199764
-0.236040 -0.470319 0.710376
-0.720203 -0.007176 -0.199354
0.681016 0.473959 -0.235435
0.260612 -0.460027 -0.703850
0.707333 0.026896 -0.705971
0.229168 -0.011190 0.693190
0.262218 -0.461852 -0.704973
0.685357 -0.465494 -0.251416
0.229890 0.492488 -0.702852
0.707109 0.027748 -0.706370
0.232541 0.493810 -0.703122
-0.707006 -0.460473 0.248184
0.228117 -0.011710 0.689118
-0.234113 -0.472068 0.708085
0.227961 -0.010355 0.689947
-0.209375 -0.011784 -0.700567
-0.235794 -0.471499 0.707860
-0.703566 -0.460187 0.247186
-0.706490 -0.457871 0.247302
0.261003 -0.460033 -0.705078
-0.711438 0.020079 0.675195
-0.721268 -0.007658 -0.197936
-0.703830 -0.458655 0.247390
0.727521 -0.002285 0.226681
-0.234076 -0.470595 0.708676
0.229318 0.494100 -0.701639
