OFF
256 0 0
-0.694824 -0.705037 0.009477
-0.694134 -0.707219 0.006720
-0.693097 -0.708289 0.009803
-0.700361 -0.009672 0.664059
-0.701616 0.714724 0.035564
0.671528 -0.680820 -0.009204
0.657424 -0.020492 0.653926
0.681030 0.712718 -0.006791
0.682600 0.712517 -0.007921
0.019824 -0.705641 0.645651
0.020394 -0.706448 0.644344
0.657521 -0.020874 0.653281
0.670754 -0.682112 -0.010831
-0.003328 0.690166 0.655341
0.681635 0.712865 -0.007016
0.683522 0.715211 -0.005237
-0.702613 -0.010807 0.663293
0.042747 -0.685572 -0.677266
0.681388 0.712989 -0.007420
-0.699923 0.715842 0.036659
0.656750 -0.019967 0.653957
0.041605 -0.686697 -0.675743
0.683245 0.714092 -0.008051
0.689317 0.029751 -0.658191
-0.694522 -0.708179 0.007803
-0.695600 -0.707194 0.008889
-0.692678 -0.707361 0.007279
0.690043 0.028481 -0.655524
0.658066 -0.021140 0.653277
0.019112 -0.707504 0.643595
-0.700198 -0.008809 0.660771
0.689229 0.028602 -0.656418
-0.637020 0.002054 -0.645334
-0.700081 0.715039 0.036996
-0.701450 -0.010809 0.662953
-0.636789 0.004637 -0.644906
-0.003881 0.691363 0.657071
0.657340 -0.018324 0.653971
0.019832 -0.706647 0.644058
-0.002491 0.688603 0.658165
-0.702866 -0.011900 0.663230
0.674070 -0.680164 -0.011576
-0.004559 0.690422 0.656730
0.019723 -0.706703 0.645340
-0.002267 0.688648 0.657637
-0.701406 -0.012472 0.661492
-0.700326 -0.009938 0.663383
-0.636618 0.003534 -0.641911
0.043240 -0.687158 -0.674625
-0.693525 -0.708257 0.007347
0.671679 -0.680221 -0.010148
0.690950 0.027855 -0.655398
0.042481 -0.687126 -0.677390
0.671055 -0.680761 -0.010118
-0.636236 0.004805 -0.645514
-0.635061 0.005717 -0.644543
-0.693136 -0.708787 0.009151
-0.025948 0.662753 -0.667660
-0.698971 0.715875 0.036015
0.688920 0.029391 -0.655162
0.684086 0.713397 -0.006358
-0.026867 0.662608 -0.667293
-0.700931 -0.012335 0.660114
-0.003047 0.690999 0.657259
-0.636803 0.002621 -0.643209
0.039764 -0.686435 -0.675384
-0.702103 -0.011754 0.665249
-0.701458 -0.011972 0.663571
0.040139 -0.686819 -0.677298
0.656487 -0.019028 0.653605
0.671504 -0.679982 -0.008813
0.657886 -0.020629 0.652264
-0.700238 0.713051 0.036456
0.042311 -0.686906 -0.676917
0.681759 0.713900 -0.005626
-0.026271 0.665364 -0.667519
0.655657 -0.021156 0.653903
-0.702351 -0.011246 0.663296
0.671944 -0.678348 -0.010330
-0.698918 0.713509 0.036764
0.042600 -0.686974 -0.675832
-0.002576 0.689200 0.656398
0.040619 -0.687047 -0.675648
0.682997 0.712751 -0.007344
-0.002629 0.689057 0.656792
-0.027374 0.663236 -0.669169
0.671685 -0.680646 -0.009934
-0.693383 -0.708871 0.009573
0.672183 -0.679483 -0.010181
0.041679 -0.686579 -0.675221
0.681763 0.710986 -0.007543
0.687991 0.029917 -0.656359
0.672379 -0.680053 -0.009695
0.682053 0.713453 -0.008214
0.019165 -0.707581 0.645232
0.672164 -0.681343 -0.011083
0.686413 0.027911 -0.655355
-0.026823 0.662912 -0.668201
0.657183 -0.020072 0.653686
-0.002473 0.688935 0.655280
0.019990 -0.706081 0.645776
-0.693089 -0.706902 0.009215
0.688082 0.029514 -0.656705
0.019132 -0.706999 0.645324
-0.700367 -0.011261 0.663594
-0.637368 0.006270 -0.645522
-0.634936 0.003227 -0.644882
0.687284 0.026860 -0.655462
0.041993 -0.687030 -0.675317
0.687899 0.027466 -0.655643
0.019691 -0.706501 0.644255
0.020594 -0.706304 0.645354
0.041864 -0.686079 -0.678200
0.671946 -0.680012 -0.011197
0.657869 -0.021356 0.653137
-0.636536 0.004340 -0.643747
0.681903 0.712626 -0.007328
-0.002702 0.689449 0.655873
0.019789 -0.707056 0.643896
0.681355 0.713057 -0.007313
-0.698506 0.714147 0.035874
0.658706 -0.019424 0.653411
-0.692728 -0.707161 0.008695
-0.701330 0.714688 0.036951
0.683017 0.712135 -0.007474
0.041879 -0.686223 -0.675872
0.683249 0.714040 -0.006359
-0.702762 -0.010979 0.661340
0.671189 -0.681165 -0.008814
0.658903 -0.019623 0.651018
-0.694089 -0.705498 0.008037
-0.003445 0.690484 0.654891
0.658606 -0.020301 0.653639
0.672502 -0.679132 -0.008303
0.670897 -0.681370 -0.010384
-0.636102 0.002308 -0.642831
-0.697964 0.713029 0.036923
-0.000205 0.689647 0.656606
-0.693278 -0.707640 0.009520
0.019780 -0.707017 0.645087
-0.693710 -0.708703 0.008455
-0.701783 -0.010550 0.661618
-0.701909 -0.011288 0.661541
0.670740 -0.680010 -0.009405
-0.027768 0.662326 -0.669739
0.040831 -0.685051 -0.677312
-0.002274 0.687829 0.657803
0.019845 -0.705379 0.645951
0.018108 -0.706329 0.644297
-0.003509 0.689160 0.655753
0.040297 -0.686370 -0.676202
0.041416 -0.688001 -0.675820
0.040512 -0.686908 -0.675508
-0.700071 0.713766 0.036550
0.020237 -0.706013 0.643602
0.021598 -0.705527 0.644157
0.018628 -0.706343 0.646238
0.681853 0.713972 -0.006204
-0.698902 -0.008622 0.661964
-0.694720 -0.707698 0.008434
0.681590 0.712362 -0.008207
0.041606 -0.685294 -0.677559
0.687115 0.027124 -0.657327
-0.699273 0.713880 0.037300
0.689063 0.028252 -0.656624
-0.700843 0.713288 0.036566
-0.702750 -0.011756 0.661967
0.683233 0.713988 -0.007308
0.672598 -0.680159 -0.012237
0.042972 -0.686967 -0.678094
0.042393 -0.686288 -0.675857
-0.002231 0.690005 0.656640
0.687688 0.028879 -0.657208
0.657605 -0.019585 0.654601
0.656240 -0.020326 0.653819
0.019837 -0.707849 0.644092
0.042658 -0.686039 -0.676284
-0.694069 -0.707915 0.009894
0.043293 -0.685863 -0.677862
-0.699861 0.714305 0.035193
0.042281 -0.687305 -0.677524
-0.002272 0.690027 0.657676
-0.026396 0.663700 -0.667727
-0.635775 0.003088 -0.643654
-0.694370 -0.708136 0.009313
0.019974 -0.707598 0.646365
-0.637329 0.004608 -0.644841
-0.701564 -0.010990 0.665029
0.670140 -0.679359 -0.010001
0.658039 -0.021232 0.650633
-0.636301 0.005308 -0.645211
0.020216 -0.704855 0.643475
0.689601 0.030492 -0.657235
-0.002087 0.689700 0.658126
-0.002687 0.690008 0.655290
-0.004742 0.690873 0.656687
-0.699070 0.713717 0.035908
0.018737 -0.706209 0.644717
0.656849 -0.019863 0.653000
0.020083 -0.707338 0.644990
-0.003192 0.688875 0.655445
0.671048 -0.682333 -0.009958
-0.693718 -0.705759 0.008139
-0.699668 0.712974 0.037563
-0.693569 -0.708611 0.008299
0.657397 -0.021294 0.651160
0.686072 0.712792 -0.006475
-0.028613 0.662131 -0.669201
-0.701464 0.713590 0.035641
-0.700411 0.713392 0.035752
-0.005011 0.689635 0.658997
0.020940 -0.707549 0.644799
0.020465 -0.707380 0.644467
-0.691917 -0.707476 0.009173
-0.634743 0.004178 -0.644491
-0.027825 0.663599 -0.668446
0.019254 -0.706391 0.646593
0.657447 -0.018591 0.653864
-0.693411 -0.707848 0.008159
0.691170 0.025854 -0.655726
0.672454 -0.680166 -0.009897
-0.693403 -0.706884 0.010403
-0.692810 -0.707049 0.009121
-0.701949 -0.010558 0.663057
-0.693883 -0.706790 0.008967
0.041379 -0.686908 -0.677324
0.042745 -0.687525 -0.676572
-0.693875 -0.706204 0.009095
-0.026226 0.663884 -0.669150
0.672801 -0.679839 -0.008956
-0.003443 0.689715 0.655460
-0.002553 0.689491 0.657809
0.670182 -0.679543 -0.009548
-0.695788 -0.708589 0.007654
-0.694892 -0.706280 0.008585
-0.693127 -0.709200 0.009173
-0.693752 -0.707361 0.009214
0.657762 -0.019936 0.651501
0.682229 0.711982 -0.006299
-0.694671 -0.708063 0.009521
-0.698268 0.714533 0.038266
-0.636599 0.004780 -0.644691
-0.691920 -0.706039 0.007599
-0.638132 0.005159 -0.644423
-0.699965 -0.011135 0.661503
0.687843 0.028044 -0.656282
-0.700326 0.713832 0.037696
0.021251 -0.707414 0.645951
0.689675 0.028795 -0.655611
0.657037 -0.020242 0.651832
-0.003587 0.688680 0.657539
-0.702971 -0.012157 0.663323
0.657409 -0.020979 0.652452
-0.699397 0.713015 0.036043
0.682507 0.711460 -0.008149
-0.636361 0.003800 -0.643410
