OFF
256 0 0
-0.673724 -0.703744 0.014277
-0.653074 -0.009290 -0.615192
-0.675136 -0.705930 0.013918
0.027831 -0.719412 0.693152
-0.652534 -0.010624 -0.615093
0.012126 0.668986 0.655968
0.655415 0.000016 -0.719724
-0.652552 0.673842 -0.034885
0.656187 0.033669 0.701433
-0.670739 -0.012918 0.652633
0.633871 0.699657 0.019029
-0.650568 0.673139 -0.034205
-0.653683 -0.007728 -0.614200
-0.653557 -0.008971 -0.613782
-0.006994 -0.669651 -0.674117
-0.675938 -0.705045 0.015285
0.007109 0.668443 -0.671210
-0.671624 -0.013175 0.650972
-0.653881 -0.009210 -0.615059
0.656238 -0.003612 -0.717081
0.027439 -0.720297 0.693403
-0.649156 0.673354 -0.034902
-0.673831 -0.705028 0.014538
-0.673967 -0.705691 0.016256
0.634989 0.699198 0.018073
0.025089 -0.718880 0.693390
0.012125 0.666814 0.656475
-0.006101 -0.669425 -0.671880
0.012444 0.670165 0.654762
-0.653418 -0.010206 -0.614150
0.633154 0.700683 0.017817
0.011010 0.669204 0.656066
0.662413 -0.622387 -0.023686
0.660621 -0.623376 -0.024712
0.656788 0.000245 -0.715856
0.656304 -0.002373 -0.716547
-0.006334 -0.670261 -0.674848
-0.652230 0.674579 -0.034157
-0.670867 -0.014282 0.650979
0.633988 0.700935 0.018248
-0.007291 -0.670822 -0.673008
-0.006977 -0.671028 -0.673094
-0.006396 -0.672477 -0.672204
0.014944 0.669118 0.656139
0.028349 -0.721362 0.692601
0.656773 -0.000515 -0.716550
0.633321 0.697868 0.017750
0.634631 0.698127 0.017011
0.655167 0.032431 0.701343
-0.669751 -0.012216 0.651442
0.660493 -0.623966 -0.023902
0.655905 0.034282 0.700887
0.632123 0.699367 0.018102
0.634338 0.697251 0.017342
0.632873 0.698760 0.016935
0.656947 0.032377 0.699303
0.008110 0.668694 -0.669907
0.634063 0.698654 0.017632
-0.006566 -0.671833 -0.675596
0.656700 0.034083 0.702570
-0.671251 -0.012263 0.650526
0.011162 0.671115 0.657151
-0.649505 0.674216 -0.034413
-0.669683 -0.014685 0.651444
0.634147 0.698976 0.019692
0.655276 0.033651 0.700450
-0.670293 -0.015399 0.651466
0.654578 0.034533 0.702983
0.656366 0.032635 0.702004
0.634837 0.700598 0.018591
0.025423 -0.721139 0.693584
0.011423 0.668732 0.654507
0.011212 0.669422 0.655097
-0.651432 0.674927 -0.032269
0.660532 -0.624278 -0.025820
0.634815 0.698128 0.018196
-0.653497 -0.011061 -0.613201
-0.007139 -0.670423 -0.673317
0.656457 0.000326 -0.717582
-0.669326 -0.013357 0.652398
0.658541 -0.001690 -0.716335
0.005798 0.667782 -0.668666
-0.671510 -0.012026 0.652029
-0.007899 -0.669297 -0.672212
0.026878 -0.718508 0.693736
0.662706 -0.622548 -0.026449
-0.650120 0.674166 -0.033537
0.656347 -0.002410 -0.715120
0.012208 0.668781 0.654433
-0.670600 -0.013953 0.651440
0.657841 0.033412 0.699725
-0.670314 -0.012130 0.649910
0.007534 0.667898 -0.668924
0.006931 0.666510 -0.669506
-0.669279 -0.014801 0.652268
-0.008010 -0.669473 -0.672408
-0.670957 -0.012550 0.650795
-0.669301 -0.013952 0.651041
-0.674881 -0.705391 0.015608
-0.652024 0.675463 -0.032900
0.012812 0.668777 0.655549
-0.007255 -0.671512 -0.672653
-0.674374 -0.706490 0.015064
0.009387 0.668623 -0.670308
-0.669884 -0.014164 0.652587
-0.655445 -0.011712 -0.616586
0.026254 -0.720224 0.691619
-0.653903 -0.008348 -0.616433
-0.674327 -0.705565 0.012545
0.008973 0.666429 -0.670399
0.010508 0.667283 -0.670515
0.006557 0.667888 -0.668446
0.657037 0.033659 0.700178
-0.653461 -0.010713 -0.616337
0.660208 -0.622427 -0.025719
0.634774 0.697676 0.018425
-0.651881 0.674717 -0.034336
0.655674 0.000612 -0.716499
0.011469 0.668977 0.654544
-0.007030 -0.670589 -0.674465
0.633872 0.697714 0.017217
-0.006964 -0.671768 -0.673273
0.012577 0.668823 0.655748
-0.674825 -0.705057 0.013716
-0.675745 -0.705504 0.013923
0.660600 -0.623274 -0.025335
0.654923 0.033639 0.702305
0.656787 0.000133 -0.717333
-0.654590 -0.010903 -0.614614
0.027425 -0.717535 0.692406
0.658545 0.032370 0.700128
0.654914 -0.001428 -0.716189
0.633446 0.698442 0.018169
0.635700 0.698119 0.017433
0.012177 0.667354 0.654785
-0.674100 -0.705503 0.013812
-0.651464 0.673388 -0.034201
0.654413 -0.001762 -0.717346
-0.669425 -0.013159 0.653260
0.026856 -0.719107 0.693839
-0.006746 -0.672109 -0.674825
-0.652306 -0.009937 -0.613748
-0.670176 -0.014544 0.651868
-0.654569 -0.011559 -0.616407
0.656496 -0.002515 -0.716052
0.662024 -0.623065 -0.025467
0.026250 -0.720724 0.693081
0.655277 0.032916 0.700213
0.025753 -0.718551 0.694218
0.656613 -0.000530 -0.716859
0.656847 0.033745 0.701402
-0.650070 0.672058 -0.032243
0.657281 -0.001116 -0.716214
-0.670790 -0.012458 0.651639
0.633855 0.699529 0.015289
-0.650094 0.674676 -0.032952
0.007663 0.666828 -0.668977
0.633221 0.698753 0.017165
-0.654458 -0.009156 -0.615150
0.662783 -0.620749 -0.025212
0.656273 -0.002357 -0.715729
0.012116 0.669190 0.655074
-0.674520 -0.702733 0.015739
0.657508 0.033483 0.701535
-0.674361 -0.705108 0.014244
0.661713 -0.622333 -0.024254
0.634910 0.698303 0.018956
-0.674618 -0.704091 0.014631
-0.674218 -0.707649 0.015592
-0.649533 0.673538 -0.033721
-0.648521 0.674409 -0.035529
0.013312 0.672743 0.654190
0.661732 -0.623479 -0.024572
0.633626 0.699505 0.017060
-0.653978 -0.010359 -0.615317
0.661511 -0.622769 -0.024572
-0.670601 -0.011690 0.651651
0.013692 0.669799 0.652964
0.008189 0.667120 -0.671238
-0.006941 -0.670558 -0.672586
-0.653800 -0.010327 -0.614294
0.657806 0.033074 0.701761
0.632202 0.698199 0.017635
0.661154 -0.623856 -0.025716
0.028180 -0.720246 0.691626
0.010982 0.668858 0.653960
0.661180 -0.623120 -0.025496
0.633235 0.699600 0.017118
0.027168 -0.716749 0.693539
0.655034 0.000411 -0.716007
0.634719 0.698733 0.017817
-0.003134 -0.671622 -0.672426
0.027706 -0.718906 0.694114
0.008100 0.666043 -0.670913
-0.649811 0.675332 -0.033974
0.656591 0.033197 0.702686
-0.671085 -0.012506 0.652085
0.011627 0.670918 0.657739
-0.669459 -0.012034 0.651395
-0.651426 0.673453 -0.032024
-0.653739 -0.011451 -0.613616
0.013698 0.669978 0.652548
0.656227 0.032881 0.700507
0.027495 -0.720015 0.692694
0.025352 -0.720923 0.693266
-0.669706 -0.011972 0.651666
-0.674297 -0.703932 0.015010
0.009312 0.665863 -0.670962
-0.650276 0.674231 -0.032696
0.655644 -0.000723 -0.717038
0.027442 -0.719783 0.693040
0.660815 -0.623791 -0.025518
0.025497 -0.719457 0.694605
-0.653711 -0.009485 -0.613961
-0.653394 -0.008947 -0.613984
-0.007681 -0.670149 -0.672636
-0.006196 -0.669214 -0.672725
0.008528 0.669289 -0.670811
-0.004324 -0.671477 -0.672087
-0.651635 -0.010113 -0.614192
-0.006901 -0.672207 -0.673764
0.007047 0.669094 -0.670479
0.664369 -0.622323 -0.024800
0.009934 0.666408 -0.668373
0.006897 0.668049 -0.669504
-0.652102 -0.008743 -0.614382
-0.670598 -0.014347 0.652483
-0.674392 -0.703220 0.015654
-0.673876 -0.705289 0.015347
0.656670 -0.002113 -0.716868
-0.668675 -0.014620 0.652037
0.660511 -0.624024 -0.023718
0.025976 -0.720913 0.693977
-0.007322 -0.670128 -0.673612
0.632473 0.699401 0.016112
0.656456 -0.001603 -0.715584
0.011212 0.669045 0.655298
-0.648112 0.674782 -0.033773
0.632060 0.700821 0.019579
-0.670723 -0.014454 0.651788
0.634113 0.699525 0.018600
0.656427 0.000215 -0.716199
-0.673054 -0.011862 0.652707
0.634917 0.700120 0.015754
0.654693 -0.001205 -0.715108
-0.674924 -0.703867 0.016175
-0.655418 -0.010544 -0.614908
0.655865 -0.001308 -0.717296
-0.653587 -0.010691 -0.616181
0.633837 0.699151 0.016243
0.010626 0.669312 0.654941
-0.670276 -0.013225 0.651129
0.028093 -0.718129 0.691459
-0.654302 -0.008635 -0.615136
0.027616 -0.719244 0.694007
0.013595 0.668545 0.655599
