OFF
256 0 0
0.005395 0.667819 0.660251
-0.033476 0.664901 -0.692080
0.736082 -0.013660 0.673973
-0.690485 0.714851 0.028268
0.003404 0.669463 0.662909
0.693102 -0.027127 -0.661388
-0.677176 -0.003527 -0.684903
0.670989 0.715565 0.009911
0.001214 -0.638263 0.708947
-0.679751 -0.004024 -0.683583
-0.676330 -0.003707 -0.684084
-0.034869 0.663160 -0.693092
0.001456 -0.638321 0.708053
-0.719716 -0.000762 0.685679
0.004229 0.668365 0.661019
0.671118 0.716133 0.011710
-0.690320 0.716971 0.028387
0.001968 -0.689959 -0.710354
-0.033523 0.664355 -0.692501
0.006027 0.668349 0.661442
-0.671046 -0.679541 -0.026431
-0.677857 -0.003627 -0.685565
-0.671104 -0.680939 -0.024947
0.691776 -0.029420 -0.661245
0.692336 -0.026225 -0.661734
-0.034918 0.666319 -0.694289
0.669980 0.716206 0.009954
-0.689115 0.717876 0.029613
-0.691219 0.715379 0.027574
-0.034576 0.663171 -0.692326
-0.720395 0.001063 0.686832
-0.001348 -0.637857 0.706378
-0.690078 0.715618 0.027527
0.687166 -0.713215 0.003380
-0.676456 -0.004148 -0.686341
-0.000928 -0.636024 0.708271
0.736241 -0.014116 0.676692
-0.688357 0.714351 0.028493
0.671078 0.715513 0.009735
0.003467 0.667748 0.662494
0.685363 -0.714814 0.005623
0.686004 -0.712974 0.004716
-0.689477 0.716066 0.029085
0.002220 0.669237 0.662878
0.685691 -0.715314 0.003322
-0.000060 -0.637533 0.707614
0.691532 -0.026276 -0.662335
0.000056 -0.637015 0.708134
0.001452 -0.689831 -0.709761
-0.688615 0.715368 0.028912
-0.035353 0.663664 -0.693159
0.737248 -0.013271 0.676866
-0.668923 -0.680065 -0.024967
-0.717653 0.000698 0.684946
-0.001189 -0.635788 0.706641
0.000356 -0.635985 0.708079
0.000382 -0.634933 0.708289
-0.672630 -0.679517 -0.027350
0.670237 0.717131 0.011072
-0.673177 -0.679629 -0.026733
-0.689565 0.714924 0.029818
0.005151 0.668293 0.662504
0.687633 -0.714265 0.004472
0.004356 0.667974 0.662779
0.671299 0.717087 0.011527
-0.670353 -0.679740 -0.027284
0.001914 -0.687657 -0.709811
-0.690423 0.716070 0.028363
-0.677041 -0.003310 -0.685137
-0.035320 0.663651 -0.694493
0.691372 -0.028136 -0.662500
0.004833 0.668749 0.660667
0.005043 0.668397 0.662522
0.737215 -0.015064 0.678128
-0.670602 -0.681320 -0.024871
-0.690278 0.717016 0.026724
-0.671848 -0.677820 -0.027370
0.736954 -0.015918 0.677942
-0.670064 -0.681323 -0.026866
-0.001590 -0.635300 0.708192
0.001676 -0.689929 -0.709617
0.689356 -0.029238 -0.662739
-0.677518 -0.003078 -0.686422
0.737294 -0.014059 0.675516
0.688076 -0.713219 0.003360
-0.717628 0.000688 0.685143
-0.719225 0.000352 0.685814
0.000220 -0.635089 0.707312
0.690494 -0.028357 -0.662131
-0.032792 0.665965 -0.691616
-0.678400 -0.003121 -0.684308
0.735804 -0.014796 0.676055
0.002014 -0.687671 -0.708552
-0.677014 -0.002836 -0.685246
0.006349 0.667714 0.663505
0.000373 -0.636868 0.705992
0.736588 -0.014524 0.675771
0.007957 0.669285 0.662250
0.001590 -0.689796 -0.710139
0.685253 -0.715721 0.003477
-0.717657 0.000724 0.685566
0.686730 -0.714369 0.003941
-0.033841 0.663813 -0.694771
0.003789 0.669011 0.662748
0.006456 0.668414 0.663069
0.000533 -0.636911 0.707752
0.006567 0.667077 0.663566
-0.690246 0.715603 0.028361
-0.671533 -0.680873 -0.026804
-0.034873 0.664532 -0.692014
0.686711 -0.716534 0.002972
0.687003 -0.713615 0.005450
0.736542 -0.015502 0.676215
0.005073 0.667581 0.661356
-0.689132 0.716562 0.026879
-0.715960 0.000973 0.685201
0.003095 -0.688874 -0.709258
0.001057 -0.637234 0.706528
-0.033254 0.662939 -0.691389
-0.034846 0.661667 -0.692969
-0.671343 -0.680004 -0.025884
-0.677101 -0.003399 -0.685364
-0.688752 0.715556 0.027730
0.692767 -0.029432 -0.661112
-0.675335 -0.004063 -0.684924
-0.690963 0.716093 0.028133
0.005149 0.667782 0.661412
0.005283 0.667968 0.661113
-0.670871 -0.681061 -0.026614
0.685360 -0.712745 0.004205
0.002003 -0.689162 -0.708873
-0.671555 -0.680438 -0.024483
0.004255 0.668642 0.660322
-0.671893 -0.679214 -0.027585
0.000803 -0.635401 0.707978
-0.033691 0.664040 -0.693664
-0.690511 0.717339 0.029246
-0.669984 -0.680270 -0.025858
-0.689754 0.714864 0.028204
-0.718207 0.002515 0.684925
-0.670403 -0.681936 -0.027608
-0.719197 0.000233 0.685974
0.000159 -0.637761 0.708126
0.002600 -0.688582 -0.710257
0.000328 -0.689279 -0.711576
-0.001225 -0.637579 0.707654
-0.718734 0.001125 0.685915
-0.720034 0.002468 0.684053
0.669720 0.717804 0.010953
-0.672194 -0.678826 -0.024507
0.686168 -0.714652 0.004962
-0.671312 -0.680064 -0.026425
0.738558 -0.012713 0.675734
0.005835 0.666898 0.663553
-0.672097 -0.678280 -0.025735
0.005498 0.668148 0.662639
-0.690895 0.716192 0.028961
-0.034261 0.664882 -0.692655
-0.718776 0.001700 0.685903
0.671428 0.716407 0.011321
-0.678335 -0.001621 -0.683541
0.002751 -0.689337 -0.710982
-0.677175 -0.002213 -0.686107
-0.673008 -0.678519 -0.028715
0.000496 -0.687320 -0.709277
0.672429 0.715831 0.010650
-0.032976 0.662259 -0.693488
-0.032635 0.663733 -0.693452
0.671692 0.715693 0.009824
0.000253 -0.636257 0.707897
0.684675 -0.716301 0.004148
-0.033878 0.662319 -0.692623
0.685337 -0.712843 0.004681
-0.687929 0.714774 0.028743
0.670082 0.716424 0.010440
0.670878 0.716929 0.010392
-0.717832 0.002685 0.687716
-0.672363 -0.680584 -0.025452
0.007253 0.668823 0.662118
0.000155 -0.636160 0.707207
0.002754 -0.687598 -0.707828
-0.000138 -0.637905 0.710333
-0.000002 -0.637339 0.707417
-0.677981 -0.004050 -0.684611
-0.718502 0.000288 0.684897
0.003772 0.669488 0.662606
0.686048 -0.714198 0.004557
0.687345 -0.714472 0.003952
-0.688705 0.714246 0.026918
-0.678510 -0.000876 -0.684931
0.003687 0.667533 0.662135
-0.033426 0.664540 -0.692714
-0.676525 -0.002680 -0.683970
-0.034855 0.662173 -0.693184
-0.675397 -0.002983 -0.683318
0.005080 0.667832 0.662129
0.692025 -0.027206 -0.661155
0.737474 -0.015145 0.673951
0.000995 -0.637386 0.707852
0.671141 0.715884 0.011130
0.684692 -0.715115 0.003166
0.691007 -0.028323 -0.663042
-0.718525 0.001118 0.686971
0.003209 0.666111 0.664399
0.000083 -0.638464 0.709079
0.736687 -0.013297 0.676105
-0.033951 0.665196 -0.692015
-0.670164 -0.679085 -0.025978
0.738187 -0.013851 0.675777
-0.689420 0.716172 0.028236
0.671159 0.717930 0.012066
0.004728 0.667856 0.661482
-0.678156 -0.002730 -0.685083
0.000641 -0.636408 0.706229
0.001743 -0.688491 -0.708361
0.691499 -0.027762 -0.660492
-0.689842 0.715092 0.029445
0.004014 0.668402 0.660616
0.737188 -0.014335 0.676264
0.691288 -0.028455 -0.663145
-0.676344 -0.002446 -0.686042
0.005220 0.669942 0.664013
-0.689278 0.717348 0.028334
-0.671373 -0.679837 -0.028305
0.005492 0.667595 0.661288
-0.001766 -0.635588 0.708667
0.737743 -0.014615 0.676234
-0.679414 -0.004610 -0.686856
-0.033752 0.665243 -0.694143
-0.718646 0.000672 0.685304
0.736687 -0.016161 0.675604
-0.671317 -0.680919 -0.027068
-0.688475 0.714736 0.027578
0.000948 -0.688126 -0.709417
0.690321 -0.028845 -0.661742
0.003995 0.669978 0.661755
-0.671458 -0.679713 -0.027116
0.004507 0.668009 0.663472
-0.719217 0.000430 0.684352
-0.678285 -0.002189 -0.684953
0.684971 -0.715253 0.005282
0.691194 -0.026596 -0.662250
0.002928 -0.688811 -0.710076
0.736711 -0.014979 0.677958
-0.720140 0.001186 0.684366
0.002753 -0.689786 -0.709641
-0.000559 -0.638364 0.707936
0.737912 -0.014393 0.677088
0.687136 -0.713375 0.004988
-0.033206 0.663610 -0.693532
0.005866 0.668814 0.663685
-0.675660 -0.003018 -0.683207
0.000030 -0.636285 0.708821
-0.671689 -0.681652 -0.023727
-0.677909 -0.003928 -0.684462
0.002189 -0.688728 -0.710232
