OFF
256 0 0
-0.018976 -0.690422 0.654475
-0.706356 0.025404 0.654250
0.670030 -0.664704 0.027584
-0.017913 -0.688912 0.652115
-0.701996 -0.668144 -0.031797
0.679632 -0.004768 -0.651652
-0.707098 0.026000 0.655981
0.655081 0.689708 0.012263
-0.024567 0.668356 0.677165
0.027272 0.689454 -0.691942
0.654775 0.691286 0.011238
0.655073 0.692491 0.010646
-0.687044 0.004080 -0.693618
0.671295 -0.662675 0.027006
-0.019729 -0.690263 0.652854
0.027294 -0.688394 -0.663124
-0.019659 -0.690093 0.650756
-0.705006 0.026897 0.653794
0.710603 -0.014034 0.704505
0.024664 0.689549 -0.693799
0.709800 -0.015019 0.703061
-0.686709 0.001973 -0.694428
0.028013 -0.689359 -0.663398
0.709116 -0.013444 0.704687
-0.707587 0.025841 0.654023
-0.707292 0.025101 0.655739
-0.018729 -0.689919 0.653636
-0.019451 -0.689059 0.652295
-0.627255 0.654819 0.005634
0.025207 0.690327 -0.692173
0.670142 -0.663694 0.027808
-0.022963 0.665589 0.676944
-0.687207 0.004636 -0.694076
-0.688047 0.002440 -0.694550
-0.704362 -0.668763 -0.031985
0.028521 -0.689597 -0.663760
0.679413 -0.006295 -0.650768
-0.688323 0.003724 -0.694928
-0.628136 0.653806 0.007379
0.670741 -0.663250 0.029378
0.670863 -0.662914 0.029787
0.669858 -0.663633 0.028908
0.680367 -0.004308 -0.651031
-0.685751 0.003466 -0.695812
-0.701620 -0.668900 -0.030475
0.025020 0.689680 -0.691368
0.656427 0.690727 0.012618
0.671505 -0.664954 0.028030
0.669296 -0.662036 0.028792
0.655094 0.689291 0.012650
-0.707110 0.023857 0.653341
0.670733 -0.663150 0.029223
0.679234 -0.004812 -0.651156
-0.703479 -0.670266 -0.032210
-0.024473 0.667196 0.676593
-0.018752 -0.690420 0.652485
-0.701588 -0.668826 -0.030288
-0.019615 -0.689451 0.653287
0.669038 -0.662922 0.027386
-0.690589 0.002633 -0.694122
-0.026038 0.667412 0.675683
-0.018884 -0.688605 0.650925
0.679148 -0.003993 -0.650347
-0.702351 -0.669123 -0.031616
0.655165 0.689661 0.012077
0.710933 -0.014510 0.704217
0.652957 0.691702 0.011229
-0.018049 -0.689238 0.652632
-0.020964 -0.689660 0.652381
0.025883 0.688610 -0.695494
0.712220 -0.012270 0.703244
0.680391 -0.005178 -0.652012
-0.627129 0.654992 0.008486
0.025610 0.690375 -0.694758
0.669653 -0.666051 0.028750
0.708673 -0.012738 0.704402
-0.023148 0.667163 0.675726
-0.628433 0.653791 0.007726
-0.687365 0.003066 -0.695075
0.712270 -0.013939 0.705119
0.708564 -0.013338 0.703827
0.024541 0.689412 -0.693349
-0.706345 0.026647 0.653751
-0.626602 0.654920 0.008487
0.670147 -0.663346 0.029388
0.670778 -0.663493 0.028955
-0.628322 0.653472 0.007661
-0.018879 -0.689048 0.650187
0.657507 0.691523 0.010469
-0.019386 -0.689891 0.652357
0.669986 -0.663433 0.028268
-0.017943 -0.690837 0.652496
0.027333 -0.689324 -0.662973
0.710600 -0.014574 0.703647
0.680821 -0.005882 -0.651285
0.027176 -0.690461 -0.665247
0.026161 0.690656 -0.692719
-0.708930 0.027095 0.653989
-0.707939 0.025937 0.654531
-0.019488 -0.688347 0.652464
-0.019527 -0.689424 0.652054
-0.706189 0.026705 0.654689
-0.627465 0.655310 0.007210
-0.628428 0.655442 0.006259
0.655448 0.690991 0.011026
-0.702394 -0.667799 -0.030368
0.680167 -0.007276 -0.649587
-0.689193 0.003732 -0.694659
0.654998 0.692372 0.013415
0.027453 -0.688906 -0.662829
-0.627912 0.654926 0.006989
0.679998 -0.007383 -0.651936
0.655836 0.690704 0.013628
0.678719 -0.006371 -0.650711
0.024659 -0.690193 -0.663987
0.711432 -0.013783 0.703170
0.678926 -0.007390 -0.650150
-0.023430 0.666640 0.676261
-0.700458 -0.670783 -0.033265
-0.019729 -0.691610 0.652552
0.026568 -0.688906 -0.662757
-0.707932 0.025434 0.655209
-0.700560 -0.669632 -0.033176
-0.702186 -0.669880 -0.031985
-0.019956 -0.690369 0.652542
-0.023410 0.664810 0.676785
0.669948 -0.664012 0.029345
0.679990 -0.005284 -0.651136
-0.626895 0.656345 0.006213
0.710302 -0.013793 0.704545
0.711170 -0.014482 0.704120
0.027973 -0.689009 -0.662577
0.023077 0.690184 -0.693032
0.709468 -0.014648 0.704444
-0.024421 0.669464 0.676010
0.671739 -0.662443 0.029618
-0.708393 0.026395 0.654523
0.668268 -0.662965 0.028776
-0.022969 0.668685 0.677049
-0.018265 -0.689660 0.650850
0.670145 -0.663526 0.030204
-0.706087 0.025033 0.655577
0.656506 0.692306 0.013543
0.670301 -0.662711 0.027546
0.680172 -0.004259 -0.650721
-0.018765 -0.689730 0.652558
-0.627767 0.654933 0.008623
-0.701666 -0.670491 -0.032355
0.682150 -0.006242 -0.652470
0.029060 -0.690133 -0.664665
-0.708150 0.025723 0.654637
-0.018754 -0.691198 0.651866
0.027919 -0.687949 -0.661924
0.026236 0.691733 -0.693148
0.710785 -0.014478 0.706085
0.709503 -0.014135 0.704652
0.655836 0.690113 0.012585
0.680622 -0.007595 -0.651578
0.709263 -0.013245 0.703525
-0.703544 -0.669168 -0.031089
-0.019152 -0.689921 0.652763
-0.703389 -0.670581 -0.031874
-0.024421 0.667446 0.677253
0.025258 0.690628 -0.694400
-0.707230 0.026055 0.655472
-0.022195 0.667182 0.677671
0.678831 -0.005600 -0.650904
-0.021141 -0.690453 0.652615
-0.701754 -0.669184 -0.030157
0.679946 -0.006827 -0.653495
0.680470 -0.005947 -0.650004
0.710902 -0.013280 0.702783
0.027030 -0.690056 -0.663170
0.027893 -0.691254 -0.663146
-0.022537 0.667657 0.677416
0.710593 -0.014744 0.702485
-0.626733 0.652816 0.008010
0.655148 0.689966 0.012242
0.710510 -0.014545 0.704681
0.655100 0.691357 0.010554
0.709337 -0.014682 0.706497
0.655568 0.691650 0.010512
0.654303 0.690341 0.012548
0.027508 -0.689071 -0.662377
0.709397 -0.013411 0.704369
-0.017614 -0.691185 0.651603
0.710227 -0.015102 0.703815
-0.702808 -0.668325 -0.032482
-0.708490 0.027160 0.653429
-0.700380 -0.668875 -0.031927
-0.686668 0.002108 -0.696272
-0.024185 0.667264 0.676182
0.670833 -0.665366 0.029587
-0.019370 -0.689298 0.652781
-0.687216 0.003497 -0.694307
0.709881 -0.014212 0.703215
-0.018789 -0.691425 0.651833
-0.708842 0.025762 0.653230
0.027521 -0.689425 -0.663489
0.030211 -0.689261 -0.663489
0.025446 0.689330 -0.694168
-0.018863 -0.689348 0.653783
-0.702785 -0.668008 -0.031980
-0.702669 -0.667289 -0.033063
-0.019301 -0.691100 0.651416
-0.018696 -0.691157 0.651074
0.655005 0.691634 0.012714
-0.019898 -0.689117 0.651743
0.025716 0.688015 -0.692236
0.655347 0.692167 0.011685
0.657873 0.692167 0.010978
0.657368 0.690747 0.011915
-0.706572 0.026975 0.654733
0.026851 0.690412 -0.692196
-0.627270 0.654687 0.006031
0.657395 0.693950 0.012149
-0.708660 0.025042 0.657120
0.671105 -0.665393 0.029393
0.655954 0.690595 0.011464
0.656547 0.689730 0.011029
0.668403 -0.664734 0.026299
0.655582 0.691701 0.011880
-0.687467 0.003853 -0.694336
0.669503 -0.663649 0.029535
-0.686814 0.003221 -0.698097
-0.703369 -0.667470 -0.031479
0.023808 0.689637 -0.693758
-0.019607 -0.690620 0.651976
0.028009 -0.686843 -0.662786
-0.701860 -0.667840 -0.033963
0.024484 0.689255 -0.693571
-0.688369 0.002485 -0.695390
-0.628389 0.654523 0.006571
0.027318 -0.690247 -0.662312
-0.688468 0.003121 -0.694120
-0.707294 0.026856 0.653672
-0.707565 0.027139 0.655038
-0.702236 -0.667092 -0.030890
-0.018887 -0.689268 0.653373
-0.703838 -0.669513 -0.032554
0.654434 0.691748 0.011274
-0.023627 0.666048 0.676577
0.670784 -0.664870 0.028219
0.670202 -0.663850 0.027331
-0.700553 -0.667031 -0.030927
0.670510 -0.662806 0.028291
-0.707371 0.025274 0.654333
-0.628709 0.653541 0.008406
-0.024971 0.667917 0.676238
-0.703326 -0.668739 -0.031585
-0.022933 0.669665 0.676415
-0.024742 0.665952 0.677318
0.655260 0.692069 0.012434
-0.020104 -0.689479 0.651761
0.656874 0.690291 0.010281
-0.707034 0.027219 0.653752
