OFF
256 0 0
0.659025 -0.032539 0.696945
0.685894 -0.632482 -0.042234
-0.702367 0.678292 0.019375
-0.701207 0.676237 0.018585
0.008761 0.671045 0.638235
0.686172 -0.632072 -0.039999
-0.663089 -0.008593 -0.696816
0.658574 -0.030452 0.696892
0.711302 0.016429 -0.692462
-0.038409 -0.684163 -0.668294
-0.006963 -0.715998 0.666361
-0.038543 -0.686474 -0.667371
0.656342 -0.029211 0.696476
0.711890 0.013585 -0.693611
-0.662694 -0.008747 -0.696486
0.657007 -0.031191 0.697116
-0.006791 0.711196 -0.651296
-0.006952 -0.714146 0.667019
-0.662588 -0.009831 -0.699373
0.010362 0.669571 0.639244
-0.700605 0.678146 0.018848
-0.686295 0.010015 0.725339
-0.701946 0.676559 0.018982
-0.040160 -0.683947 -0.670116
-0.688071 0.009697 0.726238
0.657754 -0.029029 0.695180
-0.652874 -0.694099 0.015025
0.657737 -0.029967 0.697415
-0.653695 -0.693050 0.014346
0.012994 0.670428 0.640498
0.689906 0.682364 -0.009443
0.009370 0.669675 0.638188
-0.038407 -0.685306 -0.668564
-0.037117 -0.684474 -0.670320
-0.686372 0.008533 0.726891
-0.650705 -0.692373 0.014162
-0.649979 -0.693771 0.014095
0.711521 0.016377 -0.693559
0.011674 0.667287 0.638598
0.709744 0.016623 -0.693085
-0.005699 0.709875 -0.651960
-0.006563 0.711378 -0.652186
-0.685798 0.010283 0.727657
-0.004821 0.710341 -0.652925
0.657560 -0.030325 0.696043
-0.039674 -0.685196 -0.669573
-0.702885 0.677949 0.020893
0.686119 -0.633212 -0.041698
-0.702173 0.676652 0.020853
0.711503 0.017424 -0.691350
0.008350 0.668900 0.639392
-0.036964 -0.685627 -0.669203
-0.036088 -0.685081 -0.669026
0.657924 -0.032178 0.696762
0.658662 -0.031475 0.695823
-0.006645 0.710442 -0.651578
-0.005380 0.713170 -0.652248
0.687270 -0.634403 -0.040777
-0.006059 -0.713422 0.667721
0.713054 0.018223 -0.692035
-0.005471 -0.714912 0.667137
0.711891 0.012346 -0.694189
-0.039253 -0.685147 -0.669031
-0.005556 -0.712739 0.668118
0.658138 -0.031857 0.696372
-0.702381 0.676304 0.021351
0.711048 0.016066 -0.692701
-0.006572 -0.715003 0.668182
0.685926 -0.633404 -0.042521
-0.686476 0.011070 0.726473
0.687566 0.684659 -0.007028
0.659640 -0.029651 0.696872
0.688159 0.684476 -0.007120
0.658179 -0.029221 0.696495
0.010095 0.670260 0.637932
-0.702113 0.677394 0.018791
0.690203 0.682683 -0.007111
0.710155 0.017064 -0.690951
0.691071 0.683440 -0.007980
0.711360 0.015554 -0.692976
0.688745 0.682508 -0.005922
0.011237 0.670228 0.639414
0.710679 0.016386 -0.693295
0.685798 -0.633061 -0.042052
0.713608 0.015199 -0.692999
0.655215 -0.030262 0.696387
-0.007659 -0.715084 0.666374
-0.005286 -0.714649 0.666605
0.689160 0.682924 -0.008722
-0.687322 0.009799 0.728836
0.657193 -0.032365 0.695209
-0.006960 0.711594 -0.651772
-0.652228 -0.692550 0.013796
0.712988 0.014922 -0.694670
-0.664265 -0.009560 -0.698265
0.656726 -0.030178 0.696006
-0.701101 0.675121 0.019731
0.688096 0.681968 -0.006464
0.684197 -0.632323 -0.041098
-0.650487 -0.692390 0.012333
0.659595 -0.029991 0.697068
-0.686944 0.012019 0.725638
0.010074 0.668677 0.637674
-0.702437 0.677495 0.019426
0.712304 0.015963 -0.692213
-0.653363 -0.693230 0.014644
-0.651195 -0.693300 0.014007
-0.006094 -0.713947 0.667903
-0.007472 -0.715593 0.667582
-0.006363 0.712615 -0.650095
-0.687176 0.010296 0.726820
-0.651401 -0.690555 0.013466
0.684986 -0.633430 -0.041686
-0.005165 0.711858 -0.652704
0.009565 0.669955 0.640503
0.711163 0.016051 -0.692250
0.657521 -0.029247 0.695652
0.713460 0.013624 -0.693098
-0.651075 -0.692496 0.014581
0.684756 -0.634540 -0.041704
-0.036519 -0.684416 -0.670141
0.689083 0.680618 -0.007689
0.011553 0.670376 0.640120
-0.006780 0.712662 -0.652158
-0.701508 0.676838 0.018702
0.657906 -0.031942 0.695524
0.687082 -0.633825 -0.042095
-0.703131 0.675193 0.019391
0.010966 0.670260 0.639657
-0.005159 -0.715258 0.666734
-0.687846 0.010122 0.726123
0.689830 0.680239 -0.006696
0.686835 -0.633817 -0.043603
0.659423 -0.030218 0.695720
-0.663225 -0.008831 -0.699360
0.657415 -0.029003 0.696197
0.658022 -0.032884 0.696349
-0.651205 -0.694064 0.014522
-0.006441 -0.716078 0.665745
-0.687775 0.009135 0.726590
0.009079 0.671690 0.639494
-0.038220 -0.684653 -0.668593
0.010731 0.670232 0.638399
-0.005541 0.710115 -0.649724
-0.662594 -0.006107 -0.698737
-0.701942 0.677384 0.018984
-0.662825 -0.010474 -0.697399
-0.685138 0.011026 0.726524
-0.038787 -0.685824 -0.670253
0.685423 -0.632781 -0.042937
-0.700500 0.676420 0.021414
-0.702955 0.675082 0.019042
-0.688509 0.009726 0.726782
0.658525 -0.029055 0.695039
-0.653812 -0.691442 0.014815
-0.686809 0.010514 0.725155
-0.006221 -0.715122 0.667091
-0.652397 -0.692058 0.014948
0.657166 -0.030654 0.696137
-0.040149 -0.685396 -0.667336
0.683386 -0.634336 -0.041624
0.685089 -0.635270 -0.042683
0.658755 -0.031162 0.696195
-0.006018 0.711003 -0.650570
-0.039903 -0.683374 -0.669671
-0.662768 -0.009582 -0.698843
-0.688127 0.008480 0.729690
0.710223 0.016323 -0.694446
-0.008030 0.709612 -0.650861
0.711139 0.015212 -0.694632
-0.685858 0.008937 0.726950
-0.005053 0.711789 -0.651054
0.010975 0.671663 0.637664
0.684563 -0.634116 -0.041824
0.686337 -0.632518 -0.041306
-0.008017 -0.716469 0.666957
-0.662701 -0.009344 -0.699229
-0.038530 -0.685155 -0.670493
-0.702011 0.677599 0.018945
-0.006908 -0.715000 0.665951
-0.651599 -0.692328 0.013072
-0.686464 0.009729 0.725122
-0.701540 0.674719 0.019961
0.658571 -0.031622 0.695636
0.688726 0.684304 -0.010205
0.712391 0.014988 -0.694145
0.685666 -0.631792 -0.040744
-0.652510 -0.691011 0.013777
-0.009204 -0.716034 0.666081
0.688862 0.684065 -0.006426
-0.703979 0.677256 0.019106
0.710066 0.015502 -0.694017
-0.652936 -0.693005 0.015842
0.685202 -0.633840 -0.042826
0.688472 0.682302 -0.007176
-0.687241 0.007659 0.728819
0.012875 0.669105 0.638480
0.658768 -0.030831 0.695641
-0.005652 -0.714943 0.666517
0.011921 0.671924 0.637170
0.685631 -0.633297 -0.041048
-0.650777 -0.692389 0.013901
0.658134 -0.030406 0.695957
0.711641 0.014459 -0.693691
-0.038806 -0.684595 -0.669078
-0.688355 0.008644 0.725472
-0.005865 0.711583 -0.651137
0.011445 0.671082 0.638878
-0.037885 -0.684793 -0.667341
-0.040190 -0.685430 -0.669766
0.009809 0.671064 0.638395
-0.701869 0.677993 0.018250
-0.651012 -0.692586 0.014530
-0.701546 0.677786 0.018976
0.713288 0.016079 -0.693391
0.711904 0.016998 -0.692173
0.659465 -0.030272 0.697079
0.010170 0.669273 0.639283
-0.037296 -0.685258 -0.670218
-0.038295 -0.685389 -0.670250
-0.701007 0.674986 0.019141
0.011983 0.669665 0.637822
-0.005595 -0.714196 0.667225
0.711836 0.013500 -0.692649
0.688147 0.681287 -0.007589
-0.703124 0.677567 0.018680
-0.651538 -0.692554 0.013506
-0.005500 -0.716708 0.667042
0.689702 0.684296 -0.007812
-0.005475 -0.715500 0.667181
-0.039113 -0.684829 -0.670728
-0.703135 0.676455 0.020076
-0.007031 0.711371 -0.651072
-0.005774 0.710238 -0.650453
-0.662146 -0.010277 -0.697108
0.011489 0.669723 0.638011
0.685836 -0.632522 -0.041888
-0.684632 0.010263 0.726300
-0.006408 -0.714324 0.666610
-0.685616 0.009303 0.727166
-0.702077 0.676510 0.020118
-0.703281 0.676394 0.019137
0.689956 0.681768 -0.007609
0.685057 -0.632187 -0.041901
0.685932 -0.634566 -0.042660
-0.701034 0.674879 0.018640
-0.007756 -0.714297 0.666134
-0.699970 0.675680 0.019017
-0.688620 0.009332 0.726827
0.657278 -0.030546 0.694935
0.684859 -0.633702 -0.043412
-0.687209 0.009076 0.725984
-0.702453 0.677189 0.020931
-0.006871 -0.712200 0.668534
0.709769 0.015938 -0.691801
-0.701954 0.677282 0.019321
