OFF
256 0 0
0.002218 -0.632504 -0.673759
-0.015090 0.645804 0.695670
-0.021484 0.637144 -0.668050
0.688587 -0.692297 -0.017261
-0.015767 0.648254 0.694598
0.674476 -0.033259 0.653756
-0.661898 0.692317 0.011611
0.002722 -0.630776 -0.674968
-0.015350 -0.638084 0.685653
0.675828 -0.031302 0.654822
0.737445 -0.000037 -0.674279
-0.698716 0.010909 0.701288
0.737743 0.000371 -0.675374
-0.715104 -0.015787 -0.682849
-0.671477 -0.621548 -0.015539
-0.670491 -0.622953 -0.014997
-0.697101 0.010048 0.701781
-0.696600 0.010850 0.702549
-0.713333 -0.015576 -0.680878
0.736536 0.001717 -0.675066
0.002191 -0.631997 -0.673687
-0.714188 -0.017092 -0.682056
0.003185 -0.633858 -0.675051
-0.713406 -0.017722 -0.678732
-0.671513 -0.621947 -0.015004
-0.714290 -0.015391 -0.680917
-0.712906 -0.018180 -0.678864
-0.697663 0.011013 0.702408
0.694285 0.645155 -0.015797
0.003742 -0.633634 -0.675120
-0.017551 0.649183 0.694248
-0.016646 0.648007 0.695808
-0.696885 0.009587 0.701456
-0.697069 0.010254 0.702411
0.688993 -0.689958 -0.018067
0.003792 -0.633030 -0.673450
-0.713985 -0.016620 -0.680732
0.697289 0.643395 -0.016411
-0.713759 -0.017743 -0.680908
-0.023639 0.636261 -0.665596
-0.017869 0.647629 0.694372
0.695798 0.645019 -0.017930
-0.663340 0.693808 0.013757
-0.697082 0.009700 0.702361
-0.672441 -0.623408 -0.017483
-0.013363 -0.638572 0.686607
-0.713334 -0.017661 -0.680166
-0.021432 0.636933 -0.665121
0.675136 -0.031316 0.653635
0.674858 -0.031657 0.651635
-0.671931 -0.622038 -0.016016
0.685518 -0.690601 -0.017617
-0.712465 -0.017635 -0.680276
-0.672868 -0.621368 -0.014132
-0.020528 0.637771 -0.669736
-0.023222 0.636914 -0.666298
-0.022045 0.637714 -0.667829
-0.018247 0.649076 0.695901
0.690454 -0.692620 -0.017234
0.696628 0.644990 -0.016590
-0.672768 -0.622582 -0.016122
0.005598 -0.634262 -0.675898
0.694212 0.643294 -0.016715
0.003572 -0.633624 -0.673749
0.675608 -0.031642 0.654260
-0.696452 0.010482 0.701608
0.001771 -0.634190 -0.676921
-0.671930 -0.621017 -0.015454
0.675475 -0.031766 0.654441
-0.014154 -0.637056 0.685602
0.002561 -0.632681 -0.677040
0.002614 -0.632348 -0.674410
-0.671818 -0.623414 -0.015913
0.694050 0.644210 -0.016866
0.675524 -0.032138 0.651341
-0.712871 -0.015275 -0.681259
0.003763 -0.633794 -0.674694
-0.713731 -0.017442 -0.679851
0.738725 0.001461 -0.675770
-0.713308 -0.019163 -0.681798
0.002029 -0.633786 -0.674031
-0.696882 0.007469 0.701192
-0.660904 0.692537 0.012244
0.004343 -0.633526 -0.674057
-0.022345 0.637486 -0.666577
-0.715238 -0.018349 -0.682152
-0.018530 0.647870 0.694939
0.675601 -0.032157 0.652559
0.694705 0.643720 -0.014128
-0.017787 0.648420 0.694169
0.694179 0.644026 -0.016550
0.690267 -0.693199 -0.017422
0.737977 0.000101 -0.673477
-0.660583 0.692245 0.013196
-0.021640 0.637209 -0.669289
0.738637 0.001441 -0.676311
-0.020583 0.635419 -0.668659
-0.662179 0.691980 0.011186
-0.017087 0.647965 0.694171
-0.019886 0.637408 -0.667612
-0.018905 0.649810 0.694058
0.674715 -0.032595 0.654981
0.004256 -0.631315 -0.674529
-0.014733 -0.637344 0.685656
-0.013150 -0.638836 0.684145
0.004634 -0.635008 -0.672710
0.737037 -0.001273 -0.677135
-0.020586 0.636116 -0.668187
-0.671826 -0.620182 -0.014769
-0.672272 -0.622355 -0.013623
-0.017257 0.649040 0.693439
-0.697884 0.011376 0.701715
0.001072 -0.633637 -0.675641
-0.662369 0.692147 0.010736
-0.021849 0.638324 -0.666312
0.003764 -0.633905 -0.673929
-0.022829 0.636931 -0.668957
0.695125 0.642562 -0.015439
-0.696558 0.009136 0.701457
-0.672546 -0.621679 -0.016593
0.694584 0.644176 -0.017050
-0.671276 -0.619049 -0.015350
-0.672311 -0.619826 -0.016279
0.695470 0.644179 -0.015111
0.694334 0.644758 -0.017429
-0.714058 -0.016568 -0.681543
-0.013494 -0.635942 0.685380
-0.671907 -0.620578 -0.016016
-0.014561 -0.639064 0.687293
0.674195 -0.031533 0.653843
-0.672335 -0.621764 -0.015602
-0.672643 -0.620700 -0.015998
0.694288 0.644505 -0.015774
-0.015172 0.648173 0.693621
0.689362 -0.691990 -0.016202
-0.023152 0.637474 -0.667263
0.674519 -0.033069 0.655616
-0.021188 0.637387 -0.666931
0.003562 -0.633294 -0.673333
-0.697183 0.011803 0.702470
-0.016521 0.645908 0.694442
-0.022718 0.638173 -0.668340
-0.671336 -0.620230 -0.015561
-0.012163 -0.636939 0.686618
-0.671353 -0.621357 -0.016544
-0.022885 0.634825 -0.668053
-0.660492 0.694310 0.011307
-0.672931 -0.620762 -0.016539
0.689887 -0.692592 -0.017538
-0.694582 0.013860 0.701177
0.674895 -0.032669 0.653070
0.673847 -0.030455 0.652163
0.737441 -0.001537 -0.676498
-0.016739 0.649074 0.693965
-0.017423 0.646972 0.693779
-0.671940 -0.619203 -0.015267
-0.673435 -0.620391 -0.015539
0.002939 -0.632321 -0.675557
-0.022068 0.636437 -0.666497
0.003056 -0.633801 -0.671925
-0.016145 0.648104 0.696310
-0.660379 0.694205 0.012250
0.674506 -0.031676 0.652886
0.737548 0.002188 -0.674636
-0.020388 0.639270 -0.666368
0.736010 -0.000772 -0.675436
0.736792 0.000152 -0.675440
-0.020878 0.636245 -0.666543
0.695207 0.642764 -0.016420
0.696762 0.642920 -0.016377
-0.714386 -0.017924 -0.682019
-0.016969 0.647782 0.695106
-0.019355 0.639828 -0.667559
-0.697059 0.010768 0.701529
0.675994 -0.031918 0.654631
0.695139 0.643238 -0.019329
-0.713672 -0.015940 -0.680834
-0.014961 -0.637435 0.686197
-0.663121 0.691063 0.011659
-0.015842 0.648605 0.696002
0.004720 -0.633976 -0.676075
-0.672085 -0.623035 -0.014877
-0.697973 0.011654 0.702080
-0.661987 0.693469 0.012495
0.003752 -0.633054 -0.675282
0.687561 -0.691803 -0.016973
-0.714051 -0.017514 -0.682403
0.002830 -0.632661 -0.672583
0.694359 0.644115 -0.017166
-0.016965 0.648353 0.695439
0.688655 -0.692259 -0.015700
-0.013381 -0.636745 0.685888
-0.017911 0.649581 0.695612
-0.697659 0.010770 0.702653
-0.021807 0.635387 -0.668860
-0.023415 0.635752 -0.668634
0.674418 -0.031620 0.654928
0.687903 -0.691562 -0.017168
-0.698848 0.010744 0.699511
-0.021108 0.638572 -0.669101
-0.670902 -0.621445 -0.015081
-0.697109 0.012337 0.702171
0.001740 -0.631260 -0.678130
0.737831 0.001586 -0.675569
0.695055 0.644494 -0.016702
0.673585 -0.032089 0.652605
0.687279 -0.691989 -0.017604
-0.713116 -0.018162 -0.680467
-0.698259 0.011836 0.700636
0.736730 -0.000561 -0.674878
0.674018 -0.031032 0.653424
-0.016202 0.648244 0.695500
-0.671280 -0.620194 -0.015020
0.676366 -0.031229 0.654112
0.736463 0.000759 -0.674026
0.696933 0.642855 -0.015603
-0.017454 0.648207 0.695202
-0.014797 -0.638090 0.686166
-0.020697 0.638645 -0.669851
0.673614 -0.032373 0.653837
0.737953 -0.001001 -0.675523
0.689070 -0.691387 -0.017598
0.688377 -0.692948 -0.018059
-0.015663 0.647354 0.694212
-0.017665 0.648121 0.692898
0.737521 -0.000206 -0.672530
0.001685 -0.631798 -0.675858
-0.673842 -0.621381 -0.016054
-0.020681 0.637262 -0.668462
-0.660959 0.692390 0.012000
0.695358 0.642527 -0.014598
-0.014267 -0.636475 0.687465
-0.698993 0.011426 0.701140
-0.713995 -0.015553 -0.682735
-0.017153 0.649302 0.694828
-0.020341 0.636530 -0.667682
-0.018435 0.648050 0.693486
0.695000 0.644030 -0.015809
-0.021780 0.636522 -0.667197
-0.695888 0.010786 0.701035
0.673495 -0.031397 0.653578
0.737689 0.001263 -0.676436
-0.015227 -0.637117 0.685220
-0.016425 -0.638507 0.687573
0.737151 -0.000623 -0.674694
-0.013420 -0.637874 0.684772
-0.662222 0.694702 0.012760
0.695370 0.644842 -0.017810
-0.697654 0.010620 0.700882
-0.662843 0.690667 0.010602
0.694232 0.643152 -0.016029
0.674483 -0.032693 0.653456
-0.695990 0.011410 0.703381
-0.019043 0.648334 0.693233
0.688702 -0.691675 -0.017472
-0.017524 0.646902 0.694925
