OFF
256 0 0
-0.719750 -0.658230 -0.024924
0.034497 -0.697589 -0.616863
-0.719837 -0.656349 -0.024944
0.693205 0.033362 0.682437
0.643162 -0.012292 -0.691203
-0.718196 -0.656600 -0.023157
-0.694705 0.640965 -0.008192
-0.014910 0.652248 0.697901
0.656823 -0.653116 0.021284
-0.683057 -0.020295 0.676187
0.658807 -0.651157 0.021529
-0.683915 -0.010414 -0.688723
0.713110 0.703330 0.004589
-0.719613 -0.656317 -0.024420
-0.719537 -0.657419 -0.025175
-0.694450 0.640754 -0.011940
0.656889 -0.651544 0.019205
-0.694870 0.641115 -0.012495
0.712122 0.703257 0.003825
-0.683414 -0.008975 -0.688239
0.642829 -0.014823 -0.691815
-0.683478 -0.008381 -0.688221
-0.682218 -0.020911 0.673501
-0.682222 -0.010954 -0.689430
-0.718268 -0.656849 -0.023530
0.057920 0.681196 -0.711135
-0.695004 0.642356 -0.008896
-0.013146 0.652335 0.696600
-0.683407 -0.006799 -0.688541
0.642295 -0.013690 -0.689726
0.057610 0.683364 -0.711430
-0.683737 -0.020532 0.672755
-0.720404 -0.657921 -0.023486
-0.000819 -0.660650 0.663930
-0.694880 0.641789 -0.011369
0.057015 0.682430 -0.710743
-0.012933 0.652461 0.697459
0.710955 0.703982 0.003622
-0.683992 -0.019816 0.673545
-0.683434 -0.020943 0.673530
-0.684055 -0.006602 -0.689050
0.655910 -0.653425 0.020409
0.710502 0.701877 0.001650
0.033832 -0.697445 -0.616935
-0.013543 0.651448 0.700967
0.642768 -0.013505 -0.690605
-0.719462 -0.656570 -0.023052
0.643532 -0.014374 -0.689576
-0.001610 -0.661360 0.661839
0.643824 -0.015188 -0.688887
0.033658 -0.696863 -0.616600
-0.000312 -0.662341 0.661870
-0.683627 -0.022708 0.674985
0.058673 0.683383 -0.710968
-0.719073 -0.659702 -0.024447
0.642567 -0.014316 -0.690813
-0.682198 -0.007795 -0.688181
0.056852 0.682605 -0.711833
0.658343 -0.653722 0.022299
0.035049 -0.697721 -0.617960
0.056753 0.684644 -0.710460
-0.013647 0.651736 0.697362
0.057067 0.683027 -0.712740
0.658366 -0.653300 0.021096
-0.013581 0.652027 0.697116
0.032656 -0.698026 -0.617958
0.658995 -0.654653 0.020762
0.643575 -0.015171 -0.691217
0.659816 -0.652588 0.021375
0.034294 -0.697249 -0.616597
-0.683142 -0.019241 0.673603
0.035851 -0.698706 -0.616823
0.057614 0.682869 -0.709132
0.712213 0.702732 0.002831
-0.682906 -0.019101 0.672213
-0.717979 -0.657101 -0.024069
0.641545 -0.015218 -0.688987
0.033773 -0.697643 -0.618167
0.057537 0.681426 -0.712069
0.658679 -0.654257 0.021081
-0.684996 -0.019533 0.673045
-0.014343 0.654292 0.696776
-0.683436 -0.019905 0.672352
0.033087 -0.697424 -0.616738
-0.718945 -0.658171 -0.025168
0.033377 -0.697095 -0.617182
0.694227 0.033520 0.682657
0.657988 -0.651270 0.019473
0.033121 -0.697932 -0.617203
0.659501 -0.650972 0.019771
-0.002371 -0.661189 0.662018
0.643243 -0.014034 -0.689565
-0.682947 -0.006898 -0.687540
0.696176 0.032604 0.684985
-0.719777 -0.656926 -0.024121
0.057048 0.681190 -0.710424
0.056911 0.685427 -0.710813
0.711536 0.703571 0.002496
0.034581 -0.696969 -0.617068
0.644140 -0.014812 -0.690275
-0.683515 -0.020605 0.672037
0.644059 -0.013013 -0.689341
-0.683549 -0.008602 -0.689322
-0.697286 0.639737 -0.009141
-0.682678 -0.007601 -0.690470
0.691003 0.034078 0.682356
-0.719043 -0.657803 -0.021830
0.034509 -0.698753 -0.617971
-0.682428 -0.008073 -0.687553
0.657600 -0.652717 0.020718
-0.000700 -0.662803 0.661959
0.056490 0.684423 -0.712422
-0.693437 0.640941 -0.009043
-0.683386 -0.019475 0.673508
0.694390 0.033295 0.683446
0.659218 -0.652480 0.021695
0.692724 0.032939 0.684021
-0.682581 -0.020277 0.673210
0.057869 0.681790 -0.712183
0.710582 0.703821 0.004268
0.710197 0.703864 0.002675
-0.683285 -0.009469 -0.687972
0.711838 0.702265 0.003523
0.694062 0.034566 0.684147
0.693460 0.033117 0.681691
0.656384 -0.651939 0.020118
0.711511 0.703160 0.001623
-0.002141 -0.659716 0.662805
0.058032 0.681900 -0.710628
-0.001788 -0.660327 0.661839
0.711259 0.701772 0.000839
-0.695390 0.641106 -0.010626
-0.719237 -0.658143 -0.022690
-0.014257 0.653709 0.699951
0.658865 -0.653108 0.020588
0.642369 -0.014766 -0.688754
0.693280 0.033019 0.682823
0.657920 -0.650814 0.021715
-0.015330 0.653722 0.696642
-0.694815 0.642045 -0.011139
0.709305 0.700910 0.003597
0.693293 0.033755 0.683199
0.643138 -0.013726 -0.691029
0.692661 0.034102 0.683375
-0.684142 -0.007653 -0.686177
0.693701 0.033691 0.682765
-0.012810 0.655277 0.697630
-0.683220 -0.019803 0.674361
0.712638 0.701937 0.003381
0.033778 -0.698373 -0.617966
0.710752 0.703446 0.004088
0.693982 0.031069 0.683978
-0.695969 0.642269 -0.008440
-0.693705 0.641080 -0.008065
0.057400 0.681935 -0.710289
0.710781 0.703346 0.003438
-0.696242 0.640185 -0.011581
0.657629 -0.652622 0.020192
0.035247 -0.699081 -0.616549
-0.002542 -0.661048 0.662169
0.693839 0.032608 0.681635
-0.014634 0.652658 0.696296
0.033444 -0.698436 -0.616049
0.035368 -0.697372 -0.618314
0.693306 0.035835 0.683397
-0.695461 0.644685 -0.008944
0.710718 0.703478 0.003707
-0.000415 -0.659565 0.663027
-0.014655 0.654599 0.697037
-0.002269 -0.660131 0.660355
0.641285 -0.014685 -0.690278
0.710418 0.703583 0.005004
-0.683644 -0.011125 -0.688267
0.057865 0.682403 -0.709450
-0.683000 -0.008712 -0.686588
-0.693497 0.642412 -0.010016
-0.719830 -0.659628 -0.024246
0.035684 -0.699614 -0.616396
-0.719184 -0.656771 -0.024434
-0.719150 -0.657764 -0.024941
0.035282 -0.697323 -0.616221
-0.696343 0.641627 -0.011068
-0.682828 -0.020536 0.671570
0.033057 -0.696859 -0.615631
0.034798 -0.695625 -0.618299
0.694005 0.032461 0.682912
0.713150 0.704048 0.005113
0.644812 -0.015525 -0.691459
-0.720558 -0.660972 -0.025738
0.057204 0.681724 -0.709759
0.694413 0.032794 0.683112
0.714645 0.704973 0.004550
0.710856 0.702245 0.005042
-0.683364 -0.020074 0.674300
-0.683527 -0.019907 0.671346
-0.719646 -0.657508 -0.023466
-0.014697 0.651103 0.698362
0.713268 0.703122 0.005011
-0.696375 0.641907 -0.010472
0.642551 -0.011940 -0.690253
-0.695817 0.641173 -0.009975
0.643347 -0.012283 -0.690869
-0.717678 -0.658755 -0.023731
-0.684445 -0.019466 0.673450
-0.684010 -0.007431 -0.688135
0.656016 -0.653428 0.021804
0.642117 -0.013570 -0.691029
0.035514 -0.697596 -0.617874
-0.014162 0.652881 0.699329
0.642619 -0.014512 -0.690811
-0.717947 -0.658047 -0.025018
0.032174 -0.697488 -0.616399
-0.694832 0.640833 -0.010861
-0.012292 0.651822 0.699461
0.056142 0.682808 -0.710518
-0.685331 -0.018951 0.672788
-0.682646 -0.007168 -0.688410
0.643071 -0.014246 -0.689993
-0.016511 0.653242 0.698842
-0.683867 -0.007982 -0.688411
0.656441 -0.652450 0.019384
-0.694908 0.641304 -0.010494
0.693372 0.033789 0.682248
-0.001552 -0.660810 0.662214
-0.684015 -0.007853 -0.687689
0.033199 -0.698205 -0.617370
-0.695158 0.640455 -0.012200
0.057449 0.683043 -0.710648
0.656164 -0.653426 0.021674
0.695338 0.030710 0.685558
0.034511 -0.696235 -0.616051
0.709831 0.702332 0.003612
0.692618 0.031742 0.683631
-0.718929 -0.659014 -0.024309
0.036072 -0.696828 -0.615226
-0.718456 -0.658829 -0.025287
-0.695920 0.641927 -0.010726
-0.683011 -0.010395 -0.689935
0.694169 0.033651 0.686129
0.644662 -0.014938 -0.690981
-0.696794 0.642017 -0.009929
-0.683700 -0.008868 -0.686735
0.034342 -0.698480 -0.616417
-0.720803 -0.656543 -0.022882
-0.013840 0.651771 0.700363
-0.681837 -0.009284 -0.688155
0.035130 -0.699033 -0.617151
-0.684840 -0.007783 -0.687142
0.057372 0.683419 -0.710025
0.657831 -0.653454 0.021215
-0.000660 -0.661068 0.660971
-0.695307 0.641716 -0.010645
0.034590 -0.698075 -0.618727
0.658085 -0.651329 0.021758
-0.682082 -0.021916 0.675670
-0.695392 0.640771 -0.010670
