OFF
256 0 0
0.667819 0.012051 -0.650749
-0.013707 -0.677204 -0.697249
0.708677 0.692042 0.013615
-0.677747 0.670431 -0.017781
0.643211 -0.691169 0.007324
-0.680552 0.671981 -0.015994
0.705929 0.689205 0.013582
-0.695443 0.021057 0.716458
-0.014030 -0.677969 -0.697089
0.708335 0.688134 0.013616
0.644492 -0.693315 0.006183
0.670750 0.012054 -0.652488
0.643346 -0.694324 0.006628
0.707806 0.691919 0.013983
0.706616 0.689656 0.013990
-0.672805 0.002827 -0.721197
0.041808 0.680492 -0.707354
-0.012176 -0.676754 -0.695857
-0.005681 -0.687683 0.658302
0.693629 -0.006732 0.718999
0.644687 -0.690572 0.007349
-0.698986 0.020711 0.715079
0.002185 0.675433 0.696047
0.707103 0.690167 0.014245
0.671041 0.010581 -0.651751
-0.672921 0.001165 -0.722753
0.645742 -0.693532 0.006421
0.040863 0.683391 -0.708541
0.041668 0.683671 -0.708945
0.671412 0.011377 -0.649723
0.643204 -0.693018 0.006319
-0.697326 0.022291 0.715404
-0.004791 -0.687119 0.658375
-0.678149 0.670893 -0.016463
0.669700 0.009830 -0.649635
-0.016853 -0.677411 -0.698765
0.645549 -0.691458 0.004768
0.668918 0.010032 -0.653011
0.708856 0.690954 0.012458
0.645815 -0.692108 0.005758
-0.678714 0.668959 -0.017837
0.669635 0.010750 -0.652059
-0.677173 0.670292 -0.017645
-0.673587 0.003179 -0.721245
-0.004511 -0.686582 0.658695
0.042595 0.682871 -0.709901
-0.678969 0.669915 -0.017695
0.669153 0.010495 -0.651083
-0.680243 0.671368 -0.016460
0.692169 -0.006811 0.718354
-0.689798 -0.692983 -0.013321
0.693036 -0.005741 0.719063
-0.014827 -0.676015 -0.697320
0.692149 -0.007295 0.718977
0.042708 0.681480 -0.706200
0.042006 0.679999 -0.707514
0.693149 -0.005458 0.717946
0.670432 0.010640 -0.651789
-0.672938 0.001477 -0.718442
0.646105 -0.691425 0.006695
-0.695939 0.018986 0.718028
-0.014484 -0.676321 -0.697058
0.692339 -0.005597 0.716440
0.691074 -0.005003 0.719486
-0.006801 -0.685249 0.659139
0.041573 0.681420 -0.707771
-0.689995 -0.692405 -0.014360
0.693257 -0.006263 0.717352
0.645684 -0.692676 0.007278
-0.679839 0.671449 -0.018928
-0.006736 -0.685461 0.658059
0.645257 -0.692705 0.006857
-0.675756 0.004132 -0.720218
-0.691566 -0.692184 -0.014763
-0.680095 0.672535 -0.015829
0.645520 -0.691100 0.006356
-0.006972 -0.687262 0.658325
-0.695098 0.020805 0.713521
-0.689182 -0.692795 -0.013176
0.692345 -0.006246 0.718564
0.003295 0.675686 0.694909
-0.696966 0.020169 0.717506
0.003086 0.675896 0.695936
0.693663 -0.006317 0.718352
-0.690305 -0.693313 -0.011052
-0.697304 0.021438 0.717468
0.668884 0.010794 -0.651687
0.670718 0.010586 -0.650863
-0.013882 -0.678461 -0.697662
0.692740 -0.006261 0.718896
-0.697107 0.021102 0.715588
-0.679516 0.670621 -0.015488
0.670749 0.012351 -0.650721
-0.676048 0.002926 -0.721403
0.042183 0.682310 -0.709035
0.692415 -0.007061 0.720226
-0.699280 0.021790 0.716976
-0.013110 -0.675946 -0.696896
0.670752 0.010252 -0.651334
0.706997 0.690939 0.013941
-0.014890 -0.678162 -0.696630
0.643601 -0.693725 0.007589
0.644843 -0.691589 0.005785
-0.013561 -0.676055 -0.697124
0.644349 -0.689627 0.007705
-0.006494 -0.685082 0.658780
-0.679587 0.672663 -0.016672
0.003210 0.673850 0.694411
-0.005186 -0.688156 0.659254
0.671298 0.011063 -0.653141
-0.673529 0.001603 -0.721600
-0.673356 0.001944 -0.722139
-0.006309 -0.688027 0.656501
-0.006209 -0.687159 0.657228
0.671781 0.009140 -0.651265
0.043000 0.682899 -0.707201
0.707466 0.691760 0.014371
0.041633 0.682067 -0.708102
-0.688242 -0.691896 -0.013263
-0.679722 0.672413 -0.017835
0.694160 -0.007541 0.720087
0.705124 0.691885 0.014828
0.001682 0.676189 0.695121
0.669602 0.009498 -0.650565
-0.677455 0.670858 -0.016305
0.694433 -0.007257 0.717743
0.041806 0.681567 -0.709161
0.707227 0.691396 0.015876
0.000293 0.674203 0.693892
0.002946 0.675881 0.693967
-0.677856 0.671042 -0.016405
0.707819 0.690510 0.012853
0.694005 -0.006149 0.717946
0.672048 0.010162 -0.650772
-0.006514 -0.686099 0.659278
-0.697846 0.020553 0.716040
-0.005707 -0.686371 0.658699
-0.677942 0.671078 -0.015637
-0.672971 0.003575 -0.721351
0.040751 0.682020 -0.708792
-0.690702 -0.693342 -0.011738
0.042049 0.682204 -0.708032
0.040846 0.681800 -0.707657
0.705167 0.691196 0.012083
0.645554 -0.693410 0.004594
0.644762 -0.691850 0.006389
0.646160 -0.692708 0.006397
0.645606 -0.691533 0.005397
0.004556 0.676450 0.695825
-0.678289 0.670515 -0.018578
0.668841 0.010339 -0.651561
-0.680767 0.671342 -0.020050
-0.696418 0.022380 0.716560
0.668403 0.010435 -0.651274
0.692074 -0.005845 0.717205
-0.015189 -0.677542 -0.699250
0.041297 0.682336 -0.708423
-0.006980 -0.687933 0.658377
0.706616 0.691275 0.013431
-0.679116 0.673152 -0.017825
-0.696102 0.019220 0.717633
-0.688453 -0.692862 -0.014173
-0.014042 -0.678152 -0.695266
-0.694061 0.021781 0.716716
-0.689828 -0.691946 -0.011631
0.705706 0.690350 0.013198
0.669488 0.010302 -0.651041
-0.678773 0.671862 -0.017903
0.669859 0.013814 -0.652642
-0.678744 0.669831 -0.016609
0.041842 0.682259 -0.708972
0.004762 0.677246 0.696461
0.646148 -0.690844 0.006001
-0.679423 0.670722 -0.015600
0.669970 0.009420 -0.650193
0.003057 0.675389 0.696264
0.001833 0.676051 0.695393
0.646053 -0.691854 0.008832
-0.688239 -0.691662 -0.013783
-0.013414 -0.675881 -0.698033
-0.014212 -0.676238 -0.694019
-0.696019 0.019801 0.715181
0.693933 -0.005766 0.719072
0.645758 -0.692189 0.007881
-0.678042 0.671166 -0.017103
0.041034 0.681963 -0.709793
0.693490 -0.005704 0.718667
0.693483 -0.006456 0.717223
-0.007234 -0.686954 0.658730
-0.677440 0.670168 -0.017551
-0.005512 -0.687163 0.656970
0.003354 0.676083 0.695720
0.708013 0.689460 0.015675
-0.005876 -0.685231 0.656851
-0.006056 -0.685937 0.658064
-0.007004 -0.686200 0.656912
-0.006994 -0.686927 0.660279
0.706587 0.693776 0.015536
0.645778 -0.691699 0.005498
-0.675133 0.002077 -0.722604
-0.679047 0.671600 -0.017017
0.042237 0.682716 -0.708337
0.671051 0.010291 -0.649765
-0.005853 -0.686954 0.659586
0.002001 0.676522 0.694594
0.669189 0.012012 -0.652321
0.693376 -0.007768 0.717890
-0.013977 -0.675463 -0.697442
-0.012317 -0.677359 -0.697967
0.694225 -0.005107 0.718705
0.040517 0.682473 -0.706374
0.671100 0.010903 -0.651985
0.692161 -0.004764 0.718422
0.042906 0.683674 -0.708331
0.041944 0.683152 -0.709136
-0.673139 0.001746 -0.721450
0.670748 0.010346 -0.651490
-0.690614 -0.692830 -0.014619
0.706854 0.691626 0.012417
0.643386 -0.692253 0.007291
0.041915 0.683218 -0.707380
0.693410 -0.005894 0.717819
-0.678504 0.672461 -0.018827
-0.673320 0.002818 -0.721543
0.670637 0.011834 -0.651368
-0.006230 -0.685737 0.657823
0.646449 -0.692859 0.005653
-0.690574 -0.691975 -0.013233
0.645288 -0.691536 0.007134
-0.679708 0.670176 -0.017155
0.040888 0.681471 -0.707275
-0.697345 0.019849 0.718100
-0.012771 -0.676901 -0.698614
-0.014290 -0.676865 -0.697479
-0.688139 -0.692627 -0.013746
-0.696247 0.021090 0.718140
0.042382 0.684080 -0.709980
-0.698664 0.019343 0.717244
-0.006797 -0.687608 0.656094
0.002244 0.675947 0.697834
0.706721 0.691548 0.015898
-0.689288 -0.692219 -0.014659
-0.690976 -0.692975 -0.012651
0.669695 0.012054 -0.649994
0.002656 0.674753 0.695236
-0.696855 0.020660 0.715424
0.003922 0.677030 0.694521
-0.679346 0.672031 -0.016083
0.671045 0.009756 -0.650780
0.002856 0.675786 0.695061
-0.674371 0.002451 -0.722911
-0.679322 0.671863 -0.017551
0.645270 -0.691759 0.006437
-0.673632 0.000576 -0.721110
0.645518 -0.692523 0.007178
0.644587 -0.691432 0.006581
