OFF
256 0 0
-0.676409 -0.012446 -0.648631
-0.659926 0.651781 0.034061
-0.014480 -0.648098 -0.638020
0.650815 -0.675212 -0.045200
0.023527 -0.667714 0.625753
-0.639483 -0.005233 0.628139
-0.015093 -0.646868 -0.638994
-0.674990 -0.643066 -0.006737
0.697842 0.718986 -0.011741
-0.674422 -0.014096 -0.650385
-0.010284 0.601833 -0.577560
0.632545 0.019847 -0.571466
0.696358 0.718444 -0.011372
0.698363 0.717399 -0.010184
0.024762 -0.667568 0.625453
-0.673364 -0.644052 -0.006582
-0.016188 -0.647768 -0.637921
0.696474 0.716694 -0.009023
-0.014450 -0.648065 -0.639088
0.632985 -0.009918 0.581193
-0.672925 -0.643639 -0.006535
-0.014532 -0.645738 -0.638077
-0.012170 0.599191 -0.575141
-0.677136 -0.013434 -0.650726
-0.660849 0.649556 0.034656
0.652564 -0.675765 -0.046854
-0.675564 -0.012254 -0.650963
-0.009890 0.602132 -0.578104
0.698741 0.715565 -0.009311
0.633279 0.018123 -0.570257
-0.675732 -0.643398 -0.009317
-0.012170 0.600280 -0.577170
0.698298 0.716699 -0.010147
0.023069 -0.668047 0.628174
-0.673792 -0.641374 -0.005607
0.633620 -0.009615 0.580728
-0.661040 0.649270 0.034346
-0.675131 -0.014251 -0.649948
-0.675847 -0.012880 -0.650182
-0.635987 -0.003663 0.627540
-0.674560 -0.645012 -0.006202
-0.661742 0.648344 0.033784
0.633352 0.019454 -0.570789
-0.637519 -0.004380 0.629759
-0.010132 0.601231 -0.577394
-0.012599 0.601277 -0.580080
-0.638345 -0.004161 0.627984
0.035261 0.674568 0.626813
-0.676110 -0.013969 -0.647174
0.035730 0.674359 0.625921
0.035543 0.672763 0.627239
0.698067 0.717506 -0.011614
0.696212 0.716716 -0.009554
0.697924 0.715909 -0.012464
0.652450 -0.672614 -0.045366
-0.638304 -0.004200 0.628179
-0.674688 -0.644956 -0.007047
-0.012164 0.601961 -0.578252
0.634367 0.018618 -0.571852
-0.673489 -0.643813 -0.007766
-0.636339 -0.004938 0.627501
0.024804 -0.668657 0.625731
-0.679020 -0.013996 -0.648754
0.630947 0.017591 -0.570826
-0.676442 -0.013320 -0.649932
-0.673821 -0.642385 -0.007029
-0.661247 0.649377 0.034368
0.024757 -0.668442 0.626873
-0.676882 -0.013157 -0.650087
-0.011368 0.600813 -0.579117
0.023688 -0.666769 0.627927
-0.015555 -0.646195 -0.638084
-0.676352 -0.012563 -0.649856
-0.012099 0.601217 -0.577220
0.652912 -0.673034 -0.046735
-0.660553 0.649988 0.033198
0.025455 -0.668331 0.626456
-0.674929 -0.014952 -0.650159
-0.637428 -0.003538 0.627857
0.654079 -0.673179 -0.043954
-0.675716 -0.645041 -0.006988
0.698268 0.717062 -0.011178
-0.016710 -0.645902 -0.636175
0.632716 0.018999 -0.569029
-0.674177 -0.643956 -0.005971
-0.676007 -0.014070 -0.650258
-0.660639 0.649053 0.035027
0.651944 -0.674351 -0.045981
-0.674412 -0.644539 -0.006794
0.651374 -0.674854 -0.044930
-0.674557 -0.644275 -0.006219
-0.675393 -0.012580 -0.649203
0.025488 -0.669529 0.627005
0.635015 -0.010586 0.581014
-0.673525 -0.643729 -0.007080
0.651886 -0.674073 -0.045393
0.652800 -0.675100 -0.044283
0.022953 -0.666551 0.626532
-0.674660 -0.644313 -0.007889
-0.014600 -0.644469 -0.638221
-0.672899 -0.643526 -0.006775
0.023498 -0.668114 0.627049
-0.662321 0.648758 0.034099
0.035776 0.675712 0.626900
0.650806 -0.673395 -0.046221
-0.015705 -0.646547 -0.636944
-0.675751 -0.016118 -0.650825
0.651184 -0.673813 -0.046599
0.036717 0.675353 0.627897
-0.659514 0.645087 0.034227
0.651139 -0.675720 -0.043940
-0.660891 0.650683 0.033272
0.633285 0.019263 -0.570755
0.033413 0.675465 0.627029
0.634830 -0.008317 0.583340
0.036573 0.675084 0.625776
-0.015010 -0.644821 -0.637931
0.632496 0.017779 -0.570628
-0.678431 -0.015213 -0.648008
0.634356 -0.012438 0.582979
0.024270 -0.669926 0.628704
-0.674823 -0.644802 -0.006849
-0.660171 0.650240 0.035163
0.023739 -0.669994 0.627131
0.632475 0.020904 -0.569468
0.023612 -0.667652 0.627907
-0.012298 0.599615 -0.578774
0.633676 0.020453 -0.571480
-0.677630 -0.012907 -0.650768
-0.017793 -0.646973 -0.637137
-0.014917 -0.647563 -0.638139
-0.675894 -0.013597 -0.648840
-0.638861 -0.004730 0.627394
-0.659901 0.648789 0.032949
-0.014579 -0.648378 -0.638582
-0.638944 -0.005075 0.628805
0.634614 -0.009526 0.581521
0.633255 0.019746 -0.572510
0.634053 0.018209 -0.570955
0.633652 0.017433 -0.570105
-0.677274 -0.642595 -0.007097
-0.661430 0.649955 0.034559
0.651978 -0.675566 -0.045928
-0.676498 -0.011638 -0.650012
0.035647 0.673591 0.626116
0.696541 0.717792 -0.009548
-0.016266 -0.646158 -0.637314
0.633798 0.019067 -0.570638
-0.015660 -0.648176 -0.637837
-0.010400 0.600975 -0.578173
0.632048 0.020639 -0.570139
0.651584 -0.673131 -0.045384
-0.673112 -0.642812 -0.007909
0.633058 0.018088 -0.571365
-0.011185 0.602756 -0.576030
-0.638764 -0.005107 0.628468
-0.676632 -0.013669 -0.648563
-0.638859 -0.006131 0.628937
-0.637040 -0.005445 0.627560
-0.673127 -0.644656 -0.007393
0.697197 0.714131 -0.009710
-0.674608 -0.644018 -0.006636
-0.677406 -0.013035 -0.649683
0.634187 -0.008654 0.582255
0.036518 0.674406 0.628211
0.023748 -0.667164 0.628372
-0.015155 -0.648613 -0.639090
0.024829 -0.668294 0.626662
-0.637174 -0.006515 0.629109
0.698456 0.715856 -0.011137
-0.637179 -0.005094 0.627452
-0.013005 0.603268 -0.576305
-0.658742 0.649004 0.033650
-0.676904 -0.012403 -0.649829
-0.013134 -0.647971 -0.636874
-0.660451 0.649060 0.034127
0.631901 0.017547 -0.570238
-0.636756 -0.004182 0.629440
0.699523 0.716210 -0.010268
0.633451 -0.010349 0.581970
-0.674808 -0.015486 -0.651309
-0.660836 0.649798 0.033698
0.036053 0.675492 0.627040
-0.674127 -0.013117 -0.649652
0.651531 -0.674590 -0.045080
0.651915 -0.674476 -0.045069
0.633058 0.018681 -0.571274
-0.674428 -0.644332 -0.007977
-0.638179 -0.005797 0.627292
-0.673807 -0.643587 -0.007543
-0.014467 -0.647056 -0.638755
-0.660938 0.648930 0.034140
-0.016286 -0.645477 -0.637393
0.035765 0.675331 0.627320
0.652097 -0.675314 -0.046734
0.634683 -0.009661 0.583803
-0.675796 -0.014337 -0.649587
0.635308 -0.011617 0.584326
0.652214 -0.674907 -0.046010
0.697793 0.718140 -0.011180
0.036004 0.676285 0.627010
-0.674145 -0.644867 -0.006684
0.035523 0.673810 0.627654
0.034283 0.674226 0.627571
0.633372 -0.008561 0.581623
0.651623 -0.674113 -0.045148
-0.638017 -0.003045 0.628813
0.650217 -0.673016 -0.046591
0.631719 0.017894 -0.570882
-0.676688 -0.014083 -0.649596
0.024256 -0.669314 0.627157
0.633514 -0.010413 0.582166
-0.015831 -0.647535 -0.636606
0.631970 -0.008402 0.580640
-0.008793 0.601200 -0.577151
0.634273 -0.010661 0.581664
0.034286 0.675700 0.627670
0.650748 -0.673808 -0.046205
0.024793 -0.668249 0.626785
0.022844 -0.668545 0.624979
-0.015314 -0.647025 -0.638726
0.697761 0.717618 -0.010554
-0.012345 0.601566 -0.575973
-0.014313 -0.647889 -0.638905
0.024366 -0.667256 0.627437
-0.674040 -0.645855 -0.006187
-0.662803 0.650456 0.035419
0.635485 -0.010179 0.583710
0.650547 -0.672751 -0.046853
0.632590 -0.010713 0.583337
-0.660045 0.650032 0.034756
0.025229 -0.669470 0.626216
-0.674344 -0.013774 -0.649572
-0.636094 -0.005594 0.627625
-0.675696 -0.012847 -0.649891
0.634818 0.020500 -0.572106
0.699032 0.717344 -0.009689
-0.016077 -0.647997 -0.637341
0.035484 0.674918 0.628856
0.633758 0.019672 -0.570113
-0.658944 0.650380 0.031512
0.036191 0.674621 0.629132
-0.011291 0.600680 -0.580073
0.633875 0.018150 -0.568840
-0.673458 -0.645004 -0.006607
-0.673193 -0.644772 -0.006023
-0.012084 0.601727 -0.577720
0.650895 -0.673755 -0.046282
-0.676926 -0.012875 -0.649971
0.035668 0.674305 0.627935
-0.675152 -0.643329 -0.008291
0.034216 0.674723 0.629031
-0.014809 -0.646666 -0.637612
0.653369 -0.673469 -0.045471
-0.660902 0.649264 0.033171
-0.675558 -0.642050 -0.006701
