OFF
256 0 0
-0.708032 0.707533 -0.001038
-0.707933 -0.001586 0.704179
-0.706771 -0.000165 -0.705768
-0.000628 0.705696 0.708459
-0.000874 -0.707263 -0.707105
0.707663 0.000627 -0.708406
-0.000602 -0.708546 -0.707527
-0.000718 -0.706697 -0.705358
-0.706176 -0.706890 -0.000643
-0.708390 0.001068 -0.707162
0.707013 -0.706566 -0.001580
-0.000274 -0.708762 -0.706244
-0.706667 0.707375 0.000596
-0.707552 -0.708999 -0.000267
-0.002404 -0.707002 -0.707617
-0.708208 -0.001246 -0.707382
0.706268 0.000803 0.709509
-0.000472 0.705996 0.706809
-0.708469 0.707144 -0.000582
-0.705723 0.707253 -0.000212
-0.708223 -0.000961 0.706552
-0.706048 -0.704761 0.000970
-0.000083 0.706714 -0.706376
0.707164 0.706428 -0.000572
-0.705825 -0.707313 -0.001325
0.001129 -0.707524 -0.705660
-0.000456 -0.706967 0.705507
-0.000880 -0.708923 -0.706703
0.001491 0.706565 0.708008
-0.707492 -0.000104 -0.705016
0.706070 0.000982 -0.706507
0.707083 0.000698 0.706468
0.000197 -0.707609 0.705390
-0.001445 0.707550 0.707409
-0.706603 -0.000250 -0.705218
-0.709055 0.001443 0.707317
0.707572 -0.002067 0.704898
-0.707040 -0.705931 -0.000574
0.706223 -0.000963 -0.706411
-0.706925 0.708496 -0.001187
0.706051 -0.000184 0.706955
-0.707321 0.000814 -0.705212
0.707344 0.706605 0.000752
0.707382 0.707112 0.000772
0.707719 0.000147 -0.706672
0.706142 -0.708936 -0.001017
-0.001691 -0.705659 0.706681
0.707721 0.707189 -0.000016
0.000920 0.706931 0.710713
0.000620 -0.706965 0.708458
-0.000034 -0.705768 -0.707535
0.706567 0.002164 -0.707088
0.707343 0.708549 -0.001787
-0.707373 0.000492 0.707113
0.000785 -0.706864 -0.707865
0.000761 -0.707987 0.706176
0.707020 -0.704887 -0.001012
-0.000854 -0.707803 -0.706165
-0.708219 -0.707629 -0.001030
-0.709258 0.707150 -0.000124
-0.002072 -0.706626 -0.708862
0.708688 -0.707693 -0.001761
-0.706292 0.000541 0.706848
-0.001161 -0.704976 0.704398
-0.707627 -0.707495 -0.000414
-0.705140 0.706485 -0.001358
0.707342 0.000290 0.707589
0.000488 -0.707585 -0.709308
0.705489 -0.001334 0.706438
0.708191 0.707627 0.000546
-0.000638 -0.707259 0.706840
-0.001451 0.707395 -0.708167
0.000784 0.707836 0.705898
-0.708536 0.000985 0.707681
0.000694 0.707242 -0.708135
0.000107 0.707026 0.706402
-0.706823 0.000937 0.706253
-0.706495 -0.001176 -0.707128
-0.707596 0.000703 0.707551
-0.705463 -0.001328 0.707113
-0.000660 -0.708094 -0.708780
-0.707269 0.000698 0.706885
0.706761 0.706999 -0.001582
0.706370 0.001508 0.708029
-0.705085 0.705189 0.000943
-0.000204 0.707255 -0.705981
-0.708052 0.000542 0.708498
0.707202 -0.704538 -0.001789
-0.705284 0.707660 0.000612
0.708162 0.707799 -0.000039
-0.706457 -0.707527 -0.000146
-0.706895 -0.707581 -0.001047
0.000481 0.708562 0.709268
-0.707699 -0.000693 -0.706043
-0.002504 -0.707431 -0.706110
-0.708094 -0.000253 -0.707308
-0.706739 0.706815 -0.000394
-0.707241 0.707280 -0.001715
-0.707227 0.000661 -0.708274
-0.001993 0.705870 -0.707985
0.706581 -0.000353 -0.708104
-0.000063 0.707998 -0.706086
-0.708604 0.707444 -0.000272
0.001422 0.706705 -0.706934
-0.000689 -0.709035 0.708341
0.707825 0.000467 0.705609
-0.705397 0.705144 0.001234
0.707768 0.000377 -0.705468
0.708393 -0.707820 0.001080
-0.707447 -0.708260 -0.000617
-0.000438 -0.705145 -0.704687
-0.706286 0.001462 -0.707445
-0.707080 0.002043 -0.708156
0.001237 0.707444 -0.707534
0.000398 0.708337 -0.707057
0.000198 -0.707833 0.705872
-0.708678 0.001351 -0.707897
0.708115 -0.706966 0.002366
-0.706990 -0.000666 0.705785
-0.708047 -0.001403 0.708491
0.000491 0.705505 0.707170
-0.707337 0.000363 0.708645
0.707341 -0.707127 -0.000846
0.706288 0.708333 -0.000287
0.705413 -0.707613 0.000648
0.707751 -0.000026 0.708785
0.708140 0.707675 0.001407
0.000184 0.707539 0.706885
-0.707488 -0.000783 0.707154
0.709038 0.000787 -0.707115
0.000363 -0.707069 0.706444
-0.705725 -0.706256 -0.000308
-0.708694 -0.706813 -0.000272
0.707515 0.706337 -0.000751
-0.000286 -0.707686 -0.707272
-0.001451 0.705955 -0.708055
0.707935 -0.706023 -0.000724
0.706419 -0.001919 -0.706933
-0.000656 0.705143 0.706880
-0.706668 0.001764 0.707286
-0.707251 -0.000915 0.707707
0.708099 0.001014 0.707236
0.000300 -0.707395 0.706300
-0.708746 0.001219 -0.706383
0.707055 -0.000126 0.707654
0.001278 -0.704996 0.708891
0.706612 -0.706461 0.000289
-0.707209 -0.001826 0.706641
-0.708509 -0.709067 0.000735
-0.706758 0.707278 0.000627
-0.000309 -0.707954 -0.707852
0.708092 -0.000489 0.708581
0.000929 0.705878 -0.707696
-0.706267 0.705725 0.001463
0.708805 -0.000306 0.707157
0.707763 -0.707173 0.000464
-0.000887 -0.708022 -0.707043
0.000620 0.707199 0.707271
-0.707754 0.001781 -0.705800
-0.708000 -0.705300 -0.001651
-0.001030 -0.706968 -0.708158
0.000769 -0.707130 0.705122
-0.001024 -0.706439 0.706019
-0.707395 0.000115 0.706724
-0.000365 -0.706847 -0.706571
-0.708145 -0.001943 -0.706042
-0.706439 0.000323 -0.706237
0.706706 -0.001907 0.709911
-0.707272 -0.708036 -0.000670
0.707036 -0.709507 0.001234
-0.706949 -0.707675 0.000569
0.706480 0.000963 0.706640
0.001755 -0.707938 0.707229
0.706572 -0.000203 -0.706357
0.707571 -0.709354 -0.000046
-0.000712 -0.707090 -0.708531
-0.000170 -0.708100 0.705817
0.706003 -0.709643 -0.000088
0.706285 -0.706287 -0.001275
0.707179 -0.001050 0.709287
0.000480 0.706830 -0.707460
-0.707393 0.707722 0.001478
-0.707462 0.706428 -0.001864
0.000394 0.707565 0.706291
-0.707924 0.709093 0.001487
0.707687 0.000998 0.707456
0.000663 -0.706626 0.706795
-0.000185 -0.705463 0.706183
0.705536 0.706526 -0.000104
-0.000865 -0.706916 0.705052
-0.706323 -0.000669 -0.705305
-0.707499 0.000333 -0.705088
-0.708489 -0.000224 -0.706020
0.706338 -0.706015 -0.001170
-0.706334 0.000447 0.708148
-0.707078 -0.001107 -0.708728
-0.000318 0.707136 0.706956
-0.000253 0.708002 0.706488
0.705900 0.707769 -0.000068
-0.708143 0.001090 0.706632
0.708351 -0.707504 0.000688
0.705326 0.707325 0.000393
-0.000460 0.707487 0.704973
0.706873 -0.000157 -0.707795
0.000180 0.705332 -0.706688
0.707493 0.706951 -0.000368
0.707396 0.000784 -0.705755
-0.000065 0.706107 -0.706150
-0.707215 0.000765 -0.707779
0.704805 -0.707284 -0.000392
0.003461 -0.707443 -0.706697
0.706996 -0.706520 -0.001327
-0.707961 -0.002235 0.704690
0.705723 0.707325 -0.000556
0.706744 -0.001238 -0.706341
-0.707607 0.001371 -0.706093
0.001821 -0.707551 0.708282
-0.707238 -0.707027 -0.000600
-0.705655 0.001358 0.705334
-0.000029 -0.706699 -0.708117
-0.707157 -0.000307 -0.708296
-0.708258 -0.001435 0.708374
-0.706442 -0.706768 -0.001136
0.003457 -0.706577 0.707063
-0.707238 0.707693 0.001353
0.002023 0.706351 -0.708959
-0.706567 -0.001552 0.707220
0.001032 0.708416 0.707146
0.704969 -0.707332 -0.000661
0.706010 0.706933 0.000181
0.709495 0.706590 -0.000388
0.001127 -0.708655 0.707030
0.705980 0.706489 0.000765
-0.707095 0.707764 0.001512
-0.001574 -0.706745 0.705579
0.000610 -0.706812 -0.707243
-0.001488 -0.707622 -0.707940
0.000165 0.706446 -0.706333
-0.706112 0.706466 0.000942
0.706532 0.706796 -0.000016
-0.706182 0.001557 0.707864
0.706412 0.707962 0.000035
-0.707563 0.706212 -0.000988
0.708135 -0.001365 -0.705624
-0.000350 0.705530 -0.707401
0.706966 0.000146 0.706296
0.000456 0.709231 -0.706543
0.708434 -0.001248 -0.706949
-0.000334 -0.706356 -0.706476
0.000821 -0.707166 0.707364
0.705407 -0.000408 -0.707219
-0.707608 -0.000060 0.706368
0.706205 -0.000049 -0.709103
-0.706370 -0.709202 -0.000083
0.706695 0.706624 0.000854
-0.707095 0.707297 0.001682
