OFF
256 0 0
0.643561 -0.691789 0.005876
-0.015452 -0.675551 -0.697311
0.644487 -0.691815 0.005897
0.692739 -0.006697 0.719103
-0.004038 -0.686418 0.657703
0.042722 0.682830 -0.707028
0.670716 0.009473 -0.650379
-0.697124 0.019788 0.717437
0.645441 -0.691461 0.006757
-0.673157 -0.000153 -0.721445
-0.005996 -0.685495 0.659199
-0.678645 0.670908 -0.018283
0.003377 0.675750 0.697738
-0.679348 0.670961 -0.018634
0.667926 0.010507 -0.651348
0.706202 0.692261 0.013939
-0.679284 0.671548 -0.020026
0.645256 -0.690155 0.006979
-0.673278 0.002450 -0.720567
0.691385 -0.006450 0.718731
0.670726 0.009759 -0.651188
0.041221 0.684461 -0.708379
-0.005595 -0.688262 0.659369
-0.676912 -0.000236 -0.720047
-0.674066 0.001991 -0.719637
0.669902 0.008172 -0.650105
0.003072 0.676272 0.697265
0.705956 0.689477 0.014337
0.645980 -0.694386 0.005815
-0.697377 0.020051 0.717384
-0.013956 -0.676818 -0.698923
-0.697420 0.018681 0.717488
0.041920 0.681819 -0.706939
0.706822 0.691354 0.013935
-0.678047 0.671635 -0.016958
0.694339 -0.005221 0.717378
-0.013478 -0.675928 -0.696623
-0.678161 0.670884 -0.017838
0.041788 0.682068 -0.709864
-0.013651 -0.676602 -0.695913
0.003704 0.676913 0.694681
0.002116 0.675472 0.694758
-0.697336 0.020316 0.715111
-0.005880 -0.685925 0.658001
-0.697162 0.020118 0.718138
0.672338 0.012084 -0.651042
0.040982 0.681296 -0.707620
0.692738 -0.006557 0.718913
0.041643 0.679862 -0.709243
0.692880 -0.005730 0.718245
0.692357 -0.006132 0.720347
-0.673898 0.002680 -0.721851
-0.006678 -0.687318 0.657575
0.671098 0.009687 -0.651265
-0.674762 0.003298 -0.723337
0.706041 0.690497 0.012638
0.669652 0.010355 -0.652056
-0.013640 -0.677403 -0.697735
-0.673646 0.002829 -0.721038
0.644399 -0.690045 0.004983
0.041214 0.681076 -0.708334
-0.672584 0.003362 -0.720546
0.042510 0.684308 -0.707521
-0.013810 -0.675557 -0.697483
0.041366 0.681374 -0.706645
0.667656 0.010561 -0.650585
0.670535 0.010675 -0.651830
0.670976 0.011268 -0.650068
-0.006383 -0.685883 0.658955
0.644246 -0.692468 0.007401
0.692162 -0.005344 0.717990
0.002922 0.676057 0.697737
0.041985 0.680827 -0.709183
0.695635 -0.003822 0.719343
-0.697408 0.021276 0.715747
0.644017 -0.694040 0.005872
-0.005504 -0.686334 0.657986
-0.689965 -0.692513 -0.013585
0.707678 0.691984 0.011181
0.042977 0.681954 -0.708636
0.041632 0.682991 -0.706717
-0.678143 0.672279 -0.017487
-0.673218 0.003319 -0.719928
-0.673360 0.000797 -0.720691
-0.689938 -0.692330 -0.014574
-0.689401 -0.692860 -0.012745
0.695623 -0.006224 0.716387
0.693786 -0.006081 0.719371
-0.675376 0.001812 -0.722486
0.706290 0.691149 0.014665
-0.673518 0.003225 -0.721119
0.040941 0.680623 -0.708605
-0.697236 0.022650 0.716998
-0.006907 -0.686356 0.658670
0.668924 0.010907 -0.652305
0.041618 0.682602 -0.707611
-0.006025 -0.686561 0.657409
-0.678820 0.670437 -0.019507
0.645834 -0.693140 0.006021
-0.013886 -0.677438 -0.698758
-0.008687 -0.683895 0.658401
0.706731 0.690910 0.011372
0.002049 0.675417 0.696776
-0.673626 0.004158 -0.720831
-0.673773 0.001364 -0.721632
-0.696607 0.020627 0.717378
-0.697148 0.021613 0.717854
-0.673300 0.002814 -0.722748
-0.007696 -0.686464 0.658005
-0.679951 0.670094 -0.017099
-0.691860 -0.691853 -0.013993
-0.690319 -0.692266 -0.012024
0.001515 0.675427 0.694739
0.670661 0.009703 -0.651696
0.003845 0.676433 0.695731
0.693862 -0.005520 0.717100
-0.689168 -0.692100 -0.014197
0.644683 -0.692535 0.007496
-0.678966 0.671872 -0.019007
0.669669 0.011342 -0.651063
0.705719 0.691146 0.012050
-0.696106 0.020147 0.717048
0.691586 -0.004744 0.716872
0.002251 0.675221 0.696494
-0.697474 0.020265 0.716323
0.645780 -0.690298 0.007590
0.041002 0.682541 -0.708832
-0.675526 0.001274 -0.721041
-0.677916 0.671412 -0.017565
-0.679353 0.669253 -0.017308
0.670315 0.008057 -0.652172
0.670671 0.010253 -0.652071
0.005034 0.676144 0.695655
-0.689382 -0.692811 -0.012856
0.644820 -0.692525 0.005442
-0.689545 -0.692998 -0.012875
0.645026 -0.690912 0.005906
-0.673648 0.000346 -0.722971
-0.679547 0.670202 -0.017268
0.670515 0.012084 -0.652984
-0.679378 0.671548 -0.017713
0.705923 0.689169 0.012372
0.042838 0.682881 -0.707961
-0.697684 0.020729 0.716367
0.707093 0.690461 0.014099
-0.014431 -0.675756 -0.696601
0.668146 0.011227 -0.651045
0.694084 -0.004720 0.718727
0.707059 0.691344 0.013815
0.002636 0.676146 0.695448
0.706165 0.689314 0.013747
-0.005424 -0.687968 0.656814
0.040569 0.681336 -0.707355
0.643738 -0.693377 0.006329
-0.678263 0.670284 -0.018034
-0.673707 0.003961 -0.722535
-0.688371 -0.691260 -0.013192
-0.673459 0.001460 -0.723884
-0.674776 0.002019 -0.719393
-0.689873 -0.692646 -0.013626
0.707826 0.690847 0.012183
-0.674119 0.002998 -0.721619
0.706741 0.689520 0.012180
0.040155 0.681539 -0.709809
0.644761 -0.692642 0.005463
-0.695337 0.020252 0.716305
-0.678373 0.671218 -0.017901
-0.005455 -0.686016 0.655889
-0.680185 0.670267 -0.018225
0.669449 0.011167 -0.652035
-0.673204 0.002751 -0.722310
0.670010 0.009972 -0.650172
0.692708 -0.006067 0.718875
-0.697117 0.021185 0.718223
0.692247 -0.005128 0.717631
-0.674654 0.001431 -0.721591
-0.674011 0.000935 -0.722495
0.644916 -0.691874 0.006389
-0.006360 -0.684940 0.659090
0.644434 -0.692118 0.006332
-0.689414 -0.694255 -0.012216
0.691243 -0.008086 0.719198
0.644711 -0.692460 0.005934
0.693119 -0.005675 0.720482
-0.696013 0.021736 0.716952
-0.673923 0.003216 -0.720170
-0.013207 -0.677590 -0.695033
0.693437 -0.004356 0.719216
-0.015125 -0.676513 -0.697847
0.644849 -0.692011 0.005596
0.003715 0.675814 0.696087
0.005101 0.676533 0.697529
-0.014413 -0.676163 -0.697625
-0.006082 -0.687323 0.657620
-0.697119 0.021454 0.717146
0.708338 0.690258 0.013574
-0.679366 0.671662 -0.018124
-0.013571 -0.677094 -0.695458
0.670120 0.010340 -0.652595
-0.675311 0.003593 -0.721965
0.707857 0.688315 0.013598
0.707919 0.691490 0.013947
0.003154 0.677372 0.694341
-0.688029 -0.691491 -0.014606
-0.694943 0.020825 0.715910
-0.013218 -0.675005 -0.699485
-0.673135 0.002430 -0.720591
0.706178 0.689044 0.013790
0.708123 0.689999 0.012208
0.706732 0.688483 0.011525
0.694228 -0.006277 0.719591
-0.005971 -0.687082 0.658352
-0.690719 -0.693429 -0.013472
0.041627 0.681777 -0.707151
-0.013334 -0.675314 -0.696395
0.707616 0.692170 0.012981
-0.678814 0.669674 -0.017911
0.040364 0.680770 -0.709314
0.670479 0.010249 -0.652246
-0.678633 0.670793 -0.018761
0.705565 0.690030 0.012966
0.644908 -0.691879 0.007641
-0.012762 -0.676753 -0.696922
0.670533 0.010140 -0.651445
-0.016008 -0.675992 -0.697309
-0.690833 -0.692592 -0.014064
0.646179 -0.690881 0.006151
0.643686 -0.692452 0.006700
-0.013994 -0.677011 -0.696425
-0.680965 0.669840 -0.016878
-0.679577 0.670663 -0.017844
-0.674867 0.004154 -0.722800
-0.006064 -0.686476 0.659574
-0.674412 0.001743 -0.720389
0.002519 0.674751 0.696557
0.706404 0.691329 0.013423
0.669494 0.011290 -0.650866
-0.673911 0.005116 -0.720801
0.707988 0.692453 0.013214
0.040856 0.682927 -0.710068
0.042258 0.680072 -0.707167
0.042558 0.682630 -0.708906
-0.679035 0.671019 -0.018683
0.706833 0.688882 0.012268
0.708932 0.691167 0.013264
0.645596 -0.692101 0.008341
0.706237 0.691702 0.012952
0.706884 0.693015 0.013480
0.671136 0.011298 -0.650489
-0.696527 0.021004 0.716012
-0.689912 -0.690217 -0.012435
-0.007121 -0.686280 0.659488
0.692378 -0.006372 0.718487
-0.006070 -0.687943 0.659776
-0.005444 -0.687295 0.658988
0.644845 -0.689243 0.004314
