OFF
256 0 0
-0.661106 0.650369 0.035128
0.024673 -0.669425 0.627615
0.652035 -0.674997 -0.044583
0.633299 0.017432 -0.569153
0.653367 -0.672844 -0.045041
-0.015491 -0.648417 -0.638475
-0.673687 -0.642218 -0.007136
0.631496 0.018806 -0.571129
0.024610 -0.667613 0.625126
-0.676013 -0.013415 -0.651801
-0.011885 0.600350 -0.576126
-0.661752 0.649090 0.034415
0.024134 -0.667925 0.627694
0.635437 0.018957 -0.570378
-0.012028 0.602756 -0.576426
0.652027 -0.673327 -0.044792
-0.016945 -0.647693 -0.637259
0.696608 0.718670 -0.010504
-0.674955 -0.645175 -0.007233
0.036188 0.674554 0.627883
0.631658 0.018782 -0.569352
-0.675259 -0.013806 -0.651497
0.036464 0.674176 0.625954
-0.661603 0.649930 0.032329
-0.013389 -0.647183 -0.635893
-0.675975 -0.013298 -0.649629
-0.014933 -0.648478 -0.638091
-0.011929 0.602028 -0.579115
-0.639221 -0.005637 0.627573
-0.660107 0.650185 0.033305
-0.637549 -0.005846 0.626954
-0.660421 0.650268 0.034018
-0.660011 0.650344 0.033543
0.698133 0.718526 -0.011992
-0.014562 -0.648668 -0.639231
0.634636 -0.009812 0.582343
-0.012805 0.600819 -0.577390
-0.659296 0.648677 0.034186
-0.015281 -0.648358 -0.637681
0.034877 0.676046 0.625659
0.650946 -0.674814 -0.046981
-0.674324 -0.643728 -0.008346
0.634690 -0.012885 0.582940
-0.637961 -0.004149 0.626942
-0.673218 -0.643864 -0.006737
-0.637105 -0.005865 0.628570
0.038042 0.675463 0.625940
-0.016704 -0.649003 -0.636504
-0.672657 -0.647231 -0.008706
0.023222 -0.666068 0.625163
0.631021 0.017814 -0.569270
0.697304 0.717462 -0.011822
0.635146 -0.011262 0.581843
-0.676111 -0.013695 -0.650529
0.022292 -0.668289 0.626749
-0.011685 0.604300 -0.576581
0.634659 -0.008590 0.581331
0.651196 -0.675400 -0.044930
0.035639 0.675243 0.626835
0.650755 -0.675102 -0.044618
0.035931 0.675340 0.626002
-0.676399 -0.012861 -0.648238
0.035901 0.677614 0.627378
0.035791 0.675457 0.627711
0.023482 -0.668355 0.626825
-0.012086 0.602127 -0.578119
-0.677562 -0.012830 -0.650072
0.633740 -0.010820 0.582604
0.631472 0.020122 -0.570394
0.634066 -0.009884 0.581462
-0.678218 -0.013234 -0.649948
0.632771 0.018977 -0.569626
0.036761 0.674868 0.628048
0.024352 -0.668615 0.626624
0.651839 -0.673913 -0.045133
-0.638308 -0.005425 0.627534
-0.015090 -0.646662 -0.635983
0.035565 0.673266 0.627472
0.633091 0.019334 -0.570965
-0.010118 0.600483 -0.575824
-0.638367 -0.004359 0.628790
-0.662210 0.649798 0.033428
0.634810 -0.009175 0.582968
-0.674899 -0.013040 -0.648807
0.022693 -0.668356 0.625501
-0.636439 -0.005375 0.628620
0.695753 0.717314 -0.008397
0.632484 -0.009732 0.583176
-0.674047 -0.644277 -0.007094
-0.674164 -0.643285 -0.007858
-0.639296 -0.004179 0.628148
-0.015765 -0.644535 -0.638992
0.023969 -0.665170 0.627378
-0.015395 -0.645920 -0.638465
-0.660544 0.650473 0.033123
-0.015501 -0.647959 -0.638067
-0.015209 -0.647328 -0.637440
-0.675168 -0.642348 -0.008449
-0.661434 0.649681 0.033216
-0.017010 -0.647993 -0.638457
0.023654 -0.668044 0.625896
0.649761 -0.673479 -0.044655
0.694257 0.714308 -0.007344
0.635662 0.018862 -0.571859
0.036074 0.675537 0.625544
0.630866 0.017261 -0.570956
-0.674852 -0.644533 -0.008291
-0.677163 -0.012815 -0.649156
0.632295 0.018941 -0.569865
0.699067 0.715694 -0.010024
-0.661602 0.647001 0.034034
-0.675010 -0.645505 -0.005520
-0.637241 -0.003767 0.628887
0.651486 -0.675412 -0.043870
-0.674800 -0.014065 -0.650124
-0.636158 -0.003302 0.626829
-0.016083 -0.645926 -0.637572
-0.660645 0.649811 0.034374
-0.012308 0.599933 -0.576916
0.035956 0.673851 0.627283
0.636955 -0.010170 0.582845
-0.013171 -0.647051 -0.638030
0.034771 0.675753 0.628231
0.034558 0.674888 0.626161
-0.637747 -0.006149 0.627062
-0.674179 -0.643892 -0.006223
-0.677237 -0.013798 -0.649747
0.634285 -0.010655 0.583103
0.024470 -0.668467 0.627349
-0.675102 -0.642689 -0.007610
0.635286 -0.011203 0.583148
0.023947 -0.669219 0.627178
0.631260 0.017881 -0.570569
0.697033 0.717547 -0.008287
0.653672 -0.671873 -0.046611
-0.676558 -0.013803 -0.648943
-0.675111 -0.012046 -0.647985
0.697794 0.717876 -0.008743
0.036838 0.674417 0.627965
-0.638403 -0.006136 0.629631
0.023249 -0.668473 0.625296
-0.677854 -0.012954 -0.650060
-0.673525 -0.643147 -0.006974
0.632862 0.019598 -0.570242
0.036050 0.674982 0.630407
-0.674736 -0.644605 -0.007762
0.697911 0.716418 -0.010849
-0.660537 0.649829 0.034830
0.633640 0.019062 -0.569453
-0.675457 -0.643526 -0.006492
0.632269 0.019216 -0.570593
0.651131 -0.673587 -0.044627
0.033674 0.674257 0.626837
0.634373 -0.012465 0.583690
0.650466 -0.673755 -0.044373
0.037323 0.675632 0.627643
-0.660351 0.650245 0.035288
-0.011365 0.601328 -0.575811
0.633808 -0.010770 0.583783
-0.660498 0.650434 0.034022
0.634861 0.017183 -0.571743
-0.009972 0.602300 -0.578579
-0.012363 0.601194 -0.576165
0.024509 -0.667820 0.625287
-0.676709 -0.642634 -0.007966
0.634268 -0.009893 0.582487
0.633151 0.018374 -0.569452
0.022616 -0.667757 0.627986
-0.011706 0.600646 -0.578873
0.650366 -0.672580 -0.046160
-0.638864 -0.003005 0.629200
0.024058 -0.668318 0.627998
-0.636945 -0.003795 0.630159
-0.674591 -0.644092 -0.006257
-0.637871 -0.003034 0.630103
-0.678423 -0.010325 -0.650215
0.633737 -0.010398 0.583616
0.650501 -0.675178 -0.044339
-0.677763 -0.012783 -0.649313
-0.674235 -0.643696 -0.008671
-0.636333 -0.002895 0.627624
0.651689 -0.675772 -0.044255
0.634560 -0.008354 0.581961
-0.676337 -0.010877 -0.650334
0.037208 0.673231 0.627619
-0.638690 -0.004414 0.630389
0.632150 0.018988 -0.570966
0.698092 0.715192 -0.009468
-0.674794 -0.641728 -0.008893
-0.015467 -0.647304 -0.638625
0.652147 -0.673679 -0.045147
-0.674489 -0.646409 -0.007809
0.698409 0.715966 -0.009984
0.652384 -0.674909 -0.044580
0.024629 -0.669579 0.626030
0.634422 -0.009483 0.582369
-0.014172 -0.646342 -0.635964
-0.674202 -0.643370 -0.006697
0.651199 -0.674718 -0.046642
0.630530 0.018350 -0.570582
0.020917 -0.668379 0.626851
0.635493 -0.010123 0.583669
-0.659800 0.649674 0.032876
0.035224 0.675555 0.626309
0.023211 -0.667813 0.627433
-0.660006 0.649099 0.032444
0.632553 0.017687 -0.570730
-0.014587 -0.646012 -0.638244
-0.661203 0.649519 0.033714
-0.014658 -0.647366 -0.638424
0.024113 -0.670430 0.626593
0.651641 -0.674324 -0.044683
0.023453 -0.667918 0.624448
0.036929 0.676160 0.627327
-0.675360 -0.011839 -0.648395
-0.674138 -0.644545 -0.006319
0.698170 0.716446 -0.011374
-0.016782 -0.644843 -0.638527
-0.011920 0.601541 -0.576270
-0.677540 -0.012798 -0.650610
0.652003 -0.674910 -0.045644
-0.659746 0.651011 0.035261
0.652076 -0.673921 -0.045054
-0.674536 -0.645033 -0.005434
-0.676203 -0.013812 -0.648719
0.635225 -0.009429 0.584563
0.036186 0.675763 0.625333
0.652308 -0.673959 -0.045990
-0.015030 -0.646569 -0.637826
0.697496 0.717049 -0.010593
-0.637858 -0.005582 0.626432
0.698589 0.717840 -0.008749
0.633856 -0.009449 0.583938
0.633507 -0.011721 0.581268
0.652300 -0.674481 -0.047287
0.632952 0.019164 -0.570623
0.697942 0.717123 -0.010607
0.025242 -0.668229 0.626191
-0.676320 -0.013359 -0.648643
0.696946 0.716704 -0.008379
-0.010369 0.601751 -0.577401
-0.636753 -0.005087 0.626938
0.024116 -0.667698 0.626149
-0.659527 0.649278 0.033526
-0.014488 -0.646813 -0.637033
-0.011003 0.600692 -0.575921
-0.676948 -0.014899 -0.650352
0.649539 -0.675486 -0.045184
-0.011392 0.602146 -0.576482
-0.011854 0.602347 -0.577963
0.036494 0.674683 0.630575
-0.661956 0.650768 0.033768
0.633920 0.019932 -0.569227
-0.675154 -0.642824 -0.006371
0.036003 0.675347 0.628613
0.023198 -0.668606 0.626564
