OFF
256 0 0
-0.471431 0.236480 0.707451
0.000868 -0.707409 0.234795
-0.470810 0.237521 0.706926
0.471890 -0.237019 -0.706864
0.000880 -0.706965 0.236233
-0.471627 0.707631 0.235917
0.470864 -0.708362 -0.235779
0.471551 -0.707626 -0.236170
-0.470586 -0.706372 -0.236192
-0.472334 0.236307 -0.236105
-0.472169 -0.236009 -0.707195
-0.001293 -0.707425 0.235286
0.470804 0.237582 0.706184
0.470499 -0.236696 0.236121
0.469808 0.235184 -0.237804
0.471559 0.706236 0.236526
0.472329 -0.235299 -0.707745
0.470825 -0.236471 -0.706905
-0.001579 -0.707647 0.236038
0.471636 0.237698 0.707612
-0.473663 -0.234049 -0.708458
0.472002 -0.705918 -0.235801
0.470048 -0.706169 -0.233839
0.001307 -0.704926 0.236261
-0.000290 -0.234725 0.707567
-0.471591 -0.236986 0.236146
0.472275 -0.235604 -0.707888
-0.000414 -0.235545 0.706348
0.471871 -0.707898 -0.234382
0.470180 -0.237537 -0.707497
-0.000452 0.236239 -0.707305
0.471594 0.708775 0.235573
0.470233 0.706851 0.235813
-0.001860 -0.709001 0.236548
0.471438 0.704846 0.237267
0.472042 -0.235524 0.237380
-0.472159 -0.236270 -0.706459
0.001452 0.706411 0.708686
0.469182 -0.235966 -0.706680
0.470747 -0.235519 -0.708349
0.471778 -0.707411 -0.236093
-0.001739 -0.706778 -0.707410
-0.000141 -0.707134 0.237156
-0.471415 0.709440 0.235082
0.002008 0.235675 -0.705907
-0.470289 -0.235081 0.232938
0.470172 0.235923 -0.235938
-0.000244 0.705886 0.706878
-0.001085 -0.237530 0.707701
-0.470894 -0.707260 -0.236382
0.471958 -0.234308 0.237085
0.471349 0.709834 0.235593
0.000828 0.235739 -0.706078
-0.471564 0.236267 -0.236139
0.470863 -0.236174 -0.706214
-0.000587 -0.236334 0.706268
0.000505 -0.706929 0.235112
0.472539 -0.706902 -0.233939
0.000282 0.707568 -0.234221
0.471379 -0.235121 -0.706877
-0.000635 0.704971 0.704345
-0.000311 0.706442 -0.235773
-0.471055 0.234125 -0.236465
0.000688 -0.706131 0.235360
-0.471441 0.233115 0.706633
-0.472289 -0.236016 -0.708409
0.471885 0.707814 0.234740
0.000115 0.704974 0.707755
0.472041 -0.237011 -0.707278
0.000682 0.706801 -0.234969
-0.470179 0.235279 0.706535
0.470976 0.235274 0.705676
0.473353 -0.705760 -0.234691
0.471001 -0.234162 0.237181
0.473257 -0.235256 -0.707459
-0.000154 -0.708348 0.236825
-0.472173 0.236930 -0.235678
0.470650 0.236090 -0.235905
0.000912 0.237394 -0.707244
-0.472145 0.235121 -0.233657
0.470241 -0.234622 0.234038
-0.471070 0.708341 0.236542
0.472146 -0.235441 0.235245
-0.471479 -0.235565 0.235555
-0.001440 -0.706805 0.235274
-0.470897 -0.233946 0.234344
0.471578 -0.235675 0.236882
0.470738 0.234957 -0.234730
0.472244 -0.236386 0.236470
0.474474 -0.236019 -0.706437
-0.472994 -0.235615 -0.708272
-0.470309 0.708727 0.236155
-0.001469 0.706327 -0.235653
-0.473039 0.707966 0.235199
0.000220 -0.705799 -0.706304
-0.000196 0.707361 0.708037
0.472953 -0.236300 -0.708176
0.000182 -0.235231 0.705785
0.000438 -0.706276 -0.708086
0.002429 0.236140 -0.707215
-0.471073 0.236109 -0.236861
-0.470923 0.235673 -0.235693
-0.472557 -0.234797 0.235847
0.001004 -0.706186 -0.706991
0.000337 -0.707082 0.237478
-0.000210 0.708143 0.707203
-0.471061 -0.235351 0.235974
0.470361 -0.707586 -0.236454
-0.001377 -0.235112 0.706551
0.472791 0.234941 0.706434
-0.471885 -0.709288 -0.236232
0.471401 0.708089 0.236624
-0.000325 -0.236832 0.707590
0.472149 0.235887 0.707626
-0.472136 0.706338 0.236767
-0.471290 0.237233 0.706776
0.000295 0.235857 -0.706060
0.000575 0.705846 0.706428
0.470436 0.234779 0.705877
0.000468 0.235016 -0.708762
-0.471906 0.235329 0.708361
0.000486 -0.235046 0.706650
0.472628 0.235819 -0.235349
-0.470688 -0.235005 0.234837
0.471944 -0.235485 -0.706672
0.469392 0.707033 0.235009
-0.471645 -0.706743 -0.233545
-0.470634 -0.707679 -0.236838
-0.472915 -0.236032 0.236367
0.471104 -0.707795 -0.234121
-0.000311 0.705862 0.706378
0.472097 0.706246 0.235186
-0.470556 0.708566 0.235947
-0.000789 -0.708493 0.234846
-0.470830 0.706570 0.237155
0.000570 -0.705920 -0.707357
0.000424 -0.707791 0.236788
-0.001190 -0.235293 0.707818
0.000237 -0.237032 0.706616
-0.000440 -0.707277 0.236846
-0.472007 -0.236608 -0.707162
-0.471839 0.705486 0.234750
0.471696 0.708330 0.235935
-0.001689 0.706772 -0.235949
-0.473068 -0.234781 -0.707677
-0.472000 -0.234985 0.235979
0.472258 -0.233345 0.234457
0.471547 0.235602 0.707929
0.469851 0.235520 0.707204
-0.472650 0.707308 0.236831
-0.000709 0.236055 -0.706396
0.470734 0.235785 -0.234875
0.473294 -0.707076 -0.234567
0.472539 0.235303 0.706251
0.000548 0.706252 0.707833
-0.471251 0.235795 -0.236204
-0.001054 -0.235762 0.707055
0.000565 0.706558 0.706089
0.000871 0.706670 0.705992
-0.000077 -0.235642 0.705990
0.471752 -0.235905 -0.708121
-0.001051 -0.234241 0.706986
-0.469472 -0.236470 -0.705975
-0.000578 -0.706062 0.235214
0.000093 -0.235743 0.708282
-0.472192 0.708390 0.235884
0.000437 0.708548 -0.235139
0.000735 -0.235133 0.706279
0.000836 0.233582 -0.706804
0.472359 -0.235846 -0.708180
-0.000883 0.706157 -0.235767
0.472576 0.708238 0.236991
0.470265 0.706309 0.235688
0.471415 0.234825 0.707618
0.470508 -0.235059 0.236513
-0.470084 0.235722 0.708375
0.001117 0.705843 -0.235683
-0.470711 -0.236208 -0.706269
0.470677 -0.236699 -0.707040
0.472149 -0.706645 -0.235373
0.002659 -0.706311 0.236219
-0.471930 0.707410 0.237855
-0.000178 -0.707645 0.235352
-0.471426 -0.235452 -0.706596
0.471924 -0.235638 0.235340
-0.470707 0.236088 0.707764
0.471944 -0.236688 -0.706645
-0.472514 -0.235119 -0.705551
0.471688 -0.235270 -0.705577
0.472648 0.234577 -0.236560
0.470952 -0.235593 -0.706568
-0.472316 0.235534 -0.236157
-0.471363 -0.705564 -0.236433
-0.001061 0.708033 -0.235812
-0.000933 -0.707231 0.235890
-0.000658 0.235030 -0.706082
-0.000439 -0.235518 0.706539
0.472336 -0.707171 -0.234876
0.001763 -0.706770 0.235016
-0.470631 0.237210 0.707561
0.468875 0.235088 -0.235510
-0.470679 -0.237544 0.234397
0.000071 -0.708426 -0.708095
-0.471892 0.233696 0.707093
0.001096 0.237227 -0.706370
-0.470389 -0.705455 -0.234925
0.472176 0.234941 0.706868
-0.470869 -0.233983 -0.705009
0.000280 -0.707457 0.235098
0.473328 0.236471 -0.236271
0.471663 -0.233962 0.235425
0.471108 0.707008 0.236611
0.471192 -0.235447 -0.707709
0.472586 -0.235733 0.235392
0.468965 0.235924 0.705626
-0.470508 -0.236701 0.234602
-0.473460 -0.235504 -0.707279
0.001621 -0.234462 0.706823
0.470743 0.236483 -0.236133
0.470839 0.708049 0.235056
-0.000776 0.710235 0.706801
0.470183 0.707047 0.235651
-0.470395 0.708001 0.235044
0.471437 0.235142 -0.235179
0.473123 -0.235544 0.235503
0.471994 -0.236184 -0.706572
-0.471246 0.235910 0.706743
-0.473129 -0.707773 -0.236675
0.472802 -0.708255 -0.235005
-0.471146 -0.235300 -0.706857
0.472106 0.234565 0.708160
-0.473029 0.708464 0.238259
-0.003000 0.236327 -0.706748
-0.000185 -0.236860 0.707208
-0.000978 0.708726 -0.233969
-0.473307 0.707785 0.236987
-0.471986 0.706430 0.236189
-0.000199 -0.237218 0.706825
0.001636 0.708088 0.706705
-0.472655 -0.705688 -0.236220
-0.002363 -0.708309 -0.707241
-0.000209 -0.707513 -0.704979
0.000175 0.235340 -0.706379
-0.000520 -0.707139 0.236468
-0.471012 0.236881 -0.236943
-0.469714 0.236550 -0.235146
0.000432 0.235516 -0.706947
0.000556 0.705250 -0.235443
0.471253 -0.236509 -0.708308
-0.471455 0.707559 0.235327
-0.470052 -0.235619 -0.707203
0.470424 -0.235613 0.234793
-0.471725 -0.706780 -0.234949
0.000776 0.234440 -0.707143
0.472307 -0.234199 0.234265
0.000957 -0.707345 0.234933
