OFF
256 0 0
0.028664 0.234264 -0.739663
0.026413 0.234609 -0.739378
-0.483166 -0.242026 -0.720453
-0.005106 -0.704429 0.221446
-0.492267 0.216209 -0.234857
-0.483887 -0.242479 -0.722960
0.011345 0.701091 -0.210254
0.439148 -0.247441 -0.708447
0.464492 -0.691663 -0.219212
0.481659 -0.226338 0.248951
0.028058 0.235595 -0.739551
0.028558 0.235357 -0.740688
0.439113 -0.247877 -0.709714
0.029345 0.233701 -0.739796
-0.482633 -0.242691 -0.720492
0.030322 0.234143 -0.738478
0.481087 -0.227609 0.249171
-0.507682 -0.697658 -0.254807
0.464896 -0.692093 -0.220063
-0.494166 0.218288 -0.232297
-0.006982 0.700497 0.713485
0.482873 -0.225550 0.248833
0.455992 0.260632 0.716150
0.514118 0.705192 0.220195
0.522804 0.251119 -0.239631
0.438669 -0.248051 -0.708796
0.464196 -0.693004 -0.218688
0.514828 0.705095 0.218610
0.456536 0.260180 0.712454
0.031257 -0.731822 -0.672281
0.463334 -0.693134 -0.219803
0.438141 -0.245096 -0.707368
0.438735 -0.247458 -0.709028
0.521333 0.250006 -0.239728
-0.010045 0.700778 0.714050
0.457469 0.261228 0.713632
-0.495328 0.218865 -0.233313
-0.008063 0.700769 0.713196
0.439864 -0.247308 -0.709190
-0.009788 0.698427 0.713380
0.439299 -0.246035 -0.708177
0.521581 0.248934 -0.240305
-0.009584 0.700853 0.714865
-0.480959 0.695867 0.252111
-0.005091 -0.707761 0.220437
-0.482688 -0.241736 -0.721589
-0.507434 -0.695691 -0.254348
0.437671 -0.247688 -0.707151
0.513041 0.705223 0.218367
0.481913 -0.225924 0.250065
-0.003674 -0.217767 0.703292
0.027477 0.234587 -0.740847
0.463071 -0.691540 -0.220423
0.481880 -0.226994 0.250367
0.028790 0.235915 -0.738758
0.012111 0.700484 -0.212857
-0.484675 -0.240443 -0.721428
-0.008274 -0.217509 0.703279
0.012378 0.699459 -0.214037
-0.495846 0.217597 -0.231439
0.032439 -0.733505 -0.672529
-0.005243 -0.219577 0.702830
0.028171 0.235424 -0.740603
-0.005545 -0.706706 0.222743
-0.476183 0.244107 0.698158
-0.004246 -0.706680 0.222099
0.521303 0.248705 -0.239372
0.520312 0.250218 -0.239454
0.455194 0.260420 0.714831
-0.506553 -0.699249 -0.253123
0.029555 -0.733733 -0.670879
-0.473828 0.243236 0.699387
-0.006169 -0.706580 0.222527
0.455489 0.262336 0.714376
0.032574 -0.732598 -0.671476
-0.506794 -0.698040 -0.253303
0.013490 0.702450 -0.212516
0.456274 0.259382 0.714036
0.521242 0.249554 -0.238823
0.516003 0.705670 0.218302
-0.488267 -0.246339 0.228680
0.520535 0.248924 -0.238255
0.034440 -0.733105 -0.670909
0.027276 0.234614 -0.741365
0.465115 -0.692891 -0.218203
0.520832 0.247751 -0.238576
0.514972 0.702892 0.217648
0.480447 -0.227132 0.249628
0.523364 0.247854 -0.239910
0.480060 -0.225185 0.249640
0.514944 0.704730 0.218072
-0.009018 0.699766 0.714152
-0.472378 0.242450 0.698900
0.012510 0.699873 -0.211973
-0.494627 0.218247 -0.232974
-0.006779 -0.705274 0.221771
0.012040 0.701692 -0.213282
0.441798 -0.246169 -0.708960
0.439278 -0.246489 -0.706984
0.012112 0.700300 -0.211337
-0.479228 0.695350 0.251414
-0.476578 0.241602 0.698987
0.437486 -0.246805 -0.709423
-0.489167 -0.244704 0.228354
-0.480097 0.695279 0.251451
0.009666 0.701310 -0.211862
-0.505639 -0.697206 -0.255154
0.481403 -0.226052 0.248891
0.456575 0.261127 0.712822
-0.480878 -0.240980 -0.720025
-0.484503 -0.242085 -0.721414
0.440146 -0.246995 -0.708061
0.482963 -0.226234 0.249580
0.461772 -0.690944 -0.219200
0.516475 0.702139 0.217514
0.515017 0.704673 0.218585
-0.484252 -0.242218 -0.722536
-0.007706 -0.706394 0.222734
-0.506229 -0.698055 -0.255061
0.479903 -0.224981 0.248715
-0.493723 0.216806 -0.231240
-0.494036 0.218023 -0.233589
0.031911 -0.731247 -0.672028
-0.005719 -0.218998 0.703526
-0.007227 -0.706267 0.221520
-0.006153 -0.705703 0.222178
0.523974 0.248852 -0.239356
0.455532 0.260266 0.713673
0.463630 -0.692927 -0.218763
0.480817 -0.226451 0.248734
0.013573 0.700690 -0.210312
0.513820 0.704557 0.216658
0.455652 0.260003 0.712481
0.515078 0.704359 0.218421
-0.008748 0.700440 0.713538
0.011864 0.701452 -0.212370
0.462718 -0.692306 -0.219202
-0.475075 0.241779 0.699383
-0.005045 -0.704653 0.222055
-0.010833 0.699903 0.712585
-0.475774 0.243955 0.700757
-0.005661 0.701350 0.714946
-0.007425 -0.217129 0.701154
-0.004544 -0.219159 0.703072
-0.487675 -0.245980 0.228632
-0.488337 -0.247202 0.227746
0.030957 -0.733433 -0.672379
-0.494282 0.219223 -0.231986
-0.494244 0.217829 -0.231788
-0.492729 0.219589 -0.234192
0.480825 -0.227912 0.248329
-0.474924 0.242509 0.698605
-0.493906 0.219012 -0.231708
0.514980 0.703311 0.218040
-0.508370 -0.696896 -0.255653
0.454936 0.262001 0.712373
0.479901 -0.227739 0.249559
-0.480216 0.697854 0.250695
0.514297 0.704757 0.218845
0.462422 -0.692067 -0.218060
-0.004461 -0.704347 0.221057
-0.493965 0.215508 -0.233517
0.012688 0.701206 -0.211095
-0.474853 0.243381 0.699215
-0.008122 -0.217258 0.702821
-0.003920 -0.705419 0.223758
-0.009107 0.701418 0.713794
0.464005 -0.691330 -0.217636
-0.007250 -0.217098 0.702736
-0.506797 -0.696267 -0.252437
0.520745 0.247122 -0.238558
0.027843 0.235374 -0.738988
-0.007950 0.699233 0.713368
-0.003803 -0.704898 0.223009
-0.479121 0.698541 0.251481
-0.474576 0.240738 0.699948
-0.487983 -0.246145 0.228912
-0.005277 -0.707459 0.222264
0.519514 0.251141 -0.239223
0.463615 -0.692042 -0.218913
-0.479084 0.695434 0.251447
0.515265 0.705336 0.219638
0.521528 0.249195 -0.239645
0.030107 0.234178 -0.741207
0.029505 0.236070 -0.739973
0.520620 0.248753 -0.240675
-0.479451 0.696754 0.252122
0.481596 -0.226060 0.248725
-0.488327 -0.245642 0.228003
0.464678 -0.691598 -0.219108
-0.007959 0.699588 0.714445
-0.483148 -0.241468 -0.721013
0.463606 -0.691679 -0.219359
-0.476448 0.242985 0.696982
-0.006729 -0.216775 0.703067
0.012150 0.701830 -0.211714
0.028983 0.233150 -0.739178
0.463331 -0.691149 -0.221509
0.479180 -0.225496 0.248302
0.520302 0.250559 -0.239355
-0.481332 -0.240421 -0.721169
0.480819 -0.227348 0.249297
-0.005102 -0.704386 0.219910
0.031315 -0.731822 -0.671322
-0.483062 -0.240150 -0.720086
0.479766 -0.225690 0.250260
0.011971 0.702143 -0.212910
-0.480242 0.697427 0.251988
0.439944 -0.248210 -0.706960
0.031930 -0.732216 -0.671328
-0.482989 -0.241543 -0.720728
0.027420 0.234504 -0.739010
0.513833 0.703888 0.217542
-0.488707 -0.245067 0.225962
0.454854 0.259342 0.712349
0.439433 -0.247208 -0.707793
0.481708 -0.226389 0.249410
0.013616 0.700865 -0.210847
-0.489883 -0.245187 0.228524
-0.009349 0.698865 0.713648
0.480613 -0.226141 0.248941
-0.009060 0.700429 0.714749
-0.505354 -0.698522 -0.255184
-0.006450 0.700188 0.714442
-0.473851 0.241684 0.699675
0.028220 0.235578 -0.741074
0.029812 0.234195 -0.739492
-0.474789 0.242409 0.697993
0.439834 -0.248431 -0.709531
-0.493599 0.217523 -0.234379
0.033712 -0.732577 -0.671219
-0.494305 0.217802 -0.231892
-0.483074 -0.241156 -0.720424
-0.006303 -0.217340 0.701210
0.029326 0.235226 -0.739382
-0.481026 0.696078 0.252664
-0.493714 0.217121 -0.232696
0.519956 0.248619 -0.240775
0.463186 -0.692475 -0.220907
-0.507445 -0.697555 -0.254060
-0.005440 -0.216557 0.701816
-0.006653 -0.218051 0.701513
0.463174 -0.693532 -0.218570
-0.483106 -0.241545 -0.722502
0.027920 0.234983 -0.740649
0.514105 0.704938 0.219195
-0.495383 0.218354 -0.233358
-0.007316 -0.705440 0.222998
-0.483828 -0.241944 -0.721934
0.455691 0.259218 0.714205
-0.489537 -0.243185 0.227447
0.029651 0.234288 -0.739735
-0.474882 0.243428 0.698636
-0.483979 -0.242578 -0.723124
-0.007101 -0.217970 0.702870
0.031555 -0.733053 -0.673000
