OFF
256 0 0
-0.011717 0.707602 0.703889
0.661977 -0.027709 0.716220
0.661639 0.652646 0.025407
-0.704171 0.023240 -0.701213
0.660397 -0.027497 0.714863
0.036545 0.691457 -0.722606
-0.010410 0.706357 0.705296
0.035579 0.687980 -0.722809
-0.014834 -0.697227 -0.657000
-0.697785 -0.698209 -0.001464
-0.007922 -0.716728 0.678553
0.688563 -0.001102 -0.724923
0.699580 -0.689387 0.013355
-0.010595 -0.718406 0.677117
-0.659093 0.722921 0.006865
-0.010259 0.708119 0.705907
-0.009578 0.707691 0.705879
-0.014441 -0.693332 -0.655418
-0.008660 -0.717270 0.677231
0.659644 0.651121 0.022440
0.689542 -0.002063 -0.723837
-0.659173 0.724215 0.006574
0.660500 -0.025677 0.715926
-0.008878 -0.717024 0.677339
-0.696280 -0.700445 -0.001442
0.660897 0.650188 0.024514
-0.007642 -0.717006 0.677841
0.689667 -0.003062 -0.723785
0.688990 -0.002661 -0.724126
0.035840 0.689002 -0.721340
0.689693 -0.003052 -0.725206
-0.704347 0.025655 -0.700536
0.699751 -0.688390 0.012159
-0.653706 0.030408 0.661989
-0.013073 -0.695937 -0.655334
-0.653456 0.032896 0.664567
-0.697293 -0.695910 -0.002220
-0.015892 -0.695315 -0.657749
-0.008510 -0.718646 0.678119
-0.010118 0.707993 0.702319
-0.661219 0.724238 0.007072
0.036465 0.692587 -0.721572
-0.008669 -0.715995 0.677345
0.662013 -0.024878 0.716891
-0.653775 0.031572 0.662282
-0.009933 -0.717786 0.678193
0.659522 0.648921 0.025524
0.034911 0.691723 -0.721270
-0.695042 -0.698027 -0.002344
-0.009962 0.706915 0.703729
-0.659843 0.723729 0.007002
0.661587 -0.025817 0.716760
0.033356 0.689880 -0.721414
-0.012338 0.708450 0.703404
-0.659854 0.722186 0.006240
0.661023 0.650186 0.024906
-0.013008 -0.694692 -0.657323
-0.010687 0.707484 0.703876
-0.009133 -0.717297 0.677341
-0.008269 -0.715741 0.679855
0.698833 -0.687850 0.012205
-0.009005 -0.715615 0.679386
0.035919 0.690374 -0.724210
-0.008919 0.706440 0.702729
0.695240 -0.688804 0.011528
-0.659599 0.724954 0.004970
0.036315 0.692020 -0.720816
-0.660015 0.725911 0.007763
0.698574 -0.688638 0.013486
-0.652830 0.030550 0.661487
-0.009504 -0.715359 0.679231
0.690189 -0.003655 -0.724037
-0.013679 -0.694752 -0.659479
0.035178 0.690884 -0.721552
0.699366 -0.686238 0.013225
0.035228 0.689976 -0.722447
-0.008854 -0.718183 0.678087
-0.008953 -0.719386 0.678425
0.036614 0.690328 -0.722700
0.689944 -0.002704 -0.722112
-0.654326 0.029764 0.662987
-0.014718 -0.696429 -0.656697
-0.014281 -0.694332 -0.656685
-0.009427 0.708277 0.704879
0.662527 -0.026007 0.716756
-0.706204 0.023112 -0.701427
0.699355 -0.687651 0.013979
0.662728 -0.027808 0.717772
0.690397 -0.003172 -0.724502
-0.697613 -0.696481 -0.002429
-0.007858 -0.717429 0.677975
0.663224 -0.024133 0.715804
-0.008171 -0.716275 0.678913
0.662121 -0.026518 0.715018
0.697881 -0.688073 0.013756
-0.009417 0.705968 0.703984
0.661717 -0.024271 0.717379
-0.006813 0.708360 0.706338
-0.011647 0.706789 0.703529
0.662978 -0.025582 0.716539
-0.653668 0.030833 0.662578
0.663151 -0.024156 0.714771
-0.703766 0.025725 -0.701342
-0.706699 0.022904 -0.700200
-0.010891 0.706835 0.704109
-0.014921 -0.695132 -0.658244
-0.696823 -0.698390 -0.002591
0.663302 -0.024014 0.716825
-0.012981 -0.695947 -0.656521
-0.652044 0.032499 0.661840
0.689840 -0.002814 -0.725400
-0.011505 0.706513 0.703144
0.698307 -0.687623 0.013625
-0.010283 0.707942 0.704009
-0.010830 0.708373 0.706135
-0.009945 0.706324 0.704833
-0.008647 -0.717514 0.677941
-0.653163 0.029954 0.664656
0.689296 -0.003804 -0.723170
-0.015173 -0.695108 -0.656472
-0.009208 0.707416 0.705504
-0.013987 -0.696748 -0.656763
0.699672 -0.689717 0.013246
0.699649 -0.688480 0.012474
0.688987 -0.002297 -0.724016
0.661684 0.650300 0.023337
0.690396 -0.002051 -0.724062
-0.697102 -0.698259 -0.002015
0.661391 0.650405 0.024401
0.689995 -0.002953 -0.723576
-0.706009 0.025387 -0.701623
0.660623 0.650033 0.025325
-0.010575 0.709261 0.705554
0.660960 0.650871 0.024417
-0.658876 0.723711 0.005901
-0.660199 0.723032 0.005195
0.034620 0.689423 -0.722349
-0.655224 0.030842 0.664454
0.034127 0.691469 -0.720970
-0.705096 0.027223 -0.701500
-0.705735 0.024698 -0.702283
-0.705404 0.021947 -0.700342
0.662470 -0.025915 0.717824
0.700687 -0.689080 0.012991
0.690611 -0.002657 -0.723824
0.032884 0.688896 -0.722660
0.688206 -0.002142 -0.723116
0.697194 -0.689874 0.013299
-0.014609 -0.694856 -0.655301
-0.704912 0.026348 -0.700437
0.034382 0.690743 -0.722204
-0.658988 0.725511 0.007903
0.690519 -0.002081 -0.723290
0.697778 -0.688737 0.012406
-0.660289 0.724825 0.006650
-0.009364 0.707138 0.705350
-0.658627 0.723352 0.009344
-0.660003 0.724465 0.007630
-0.659678 0.724834 0.007912
-0.007958 -0.717836 0.678165
-0.659426 0.722664 0.006492
0.660010 0.652083 0.025077
0.034839 0.690246 -0.724302
0.661935 0.651060 0.025018
-0.704567 0.025060 -0.700339
0.037744 0.689122 -0.721460
-0.704848 0.025309 -0.701885
-0.009961 0.706141 0.704527
0.689755 -0.003031 -0.723834
-0.006611 -0.716236 0.678951
-0.705740 0.025876 -0.702234
-0.697663 -0.697596 -0.002392
0.033911 0.690296 -0.721049
-0.010496 0.705900 0.705154
0.700467 -0.688771 0.012997
0.034426 0.692518 -0.722005
0.664412 -0.023545 0.716130
-0.014194 -0.694493 -0.657375
-0.698878 -0.698640 -0.002969
-0.014812 -0.695546 -0.656094
-0.705038 0.024397 -0.701043
-0.008932 0.708064 0.703936
0.660559 0.652512 0.024523
-0.011362 -0.694002 -0.656314
-0.659415 0.725332 0.006985
0.662621 0.650465 0.024640
-0.012467 -0.691847 -0.657909
0.700974 -0.689541 0.013589
0.661470 -0.024448 0.715100
-0.652870 0.028927 0.664020
0.698530 -0.690468 0.013385
0.700354 -0.688342 0.011116
-0.658829 0.724659 0.007858
-0.658807 0.724678 0.008041
0.690274 -0.003149 -0.725159
-0.704724 0.023478 -0.700371
-0.011895 0.708897 0.704716
0.699562 -0.688481 0.012365
-0.704140 0.023951 -0.700286
-0.660397 0.722078 0.005685
0.699329 -0.688684 0.013418
-0.007836 -0.716987 0.677963
-0.653832 0.030920 0.662409
0.660884 0.653273 0.024194
0.035716 0.689082 -0.720241
-0.012999 -0.696976 -0.658543
0.689098 -0.003238 -0.725231
0.660214 0.648938 0.024211
0.035547 0.690571 -0.721008
0.036765 0.691325 -0.722119
-0.695948 -0.697719 -0.001484
-0.703606 0.024781 -0.700658
-0.014346 -0.693450 -0.655927
0.688580 -0.002555 -0.723609
-0.697860 -0.698850 -0.002518
0.662185 0.651636 0.023303
0.662897 -0.025325 0.717287
-0.705002 0.024355 -0.700766
-0.651315 0.030584 0.663284
-0.652705 0.031179 0.664203
-0.659498 0.724162 0.006476
0.035200 0.692047 -0.721692
0.661616 -0.024689 0.716881
-0.653748 0.029452 0.660291
-0.696500 -0.697606 -0.004118
0.662667 0.649926 0.023384
-0.652768 0.032409 0.661408
-0.704794 0.024719 -0.701428
-0.012801 -0.694126 -0.656093
0.698883 -0.689111 0.013360
-0.654087 0.031520 0.663700
-0.655046 0.031723 0.660822
0.662810 -0.027165 0.715710
-0.696930 -0.698792 -0.001529
0.690168 -0.002412 -0.723855
-0.009590 0.705782 0.705980
0.034716 0.689860 -0.722151
-0.653222 0.031545 0.663333
0.691411 -0.001547 -0.724516
0.690368 -0.004671 -0.724581
0.660251 0.650527 0.024703
0.688605 -0.002301 -0.725402
-0.697313 -0.699158 -0.001887
-0.696898 -0.698286 -0.001703
-0.653185 0.030125 0.663403
0.661224 -0.025759 0.716973
0.690443 -0.003384 -0.723989
0.700356 -0.689266 0.013052
-0.697125 -0.699629 -0.002501
0.689268 -0.003558 -0.723746
-0.697291 -0.697691 -0.002416
-0.009218 -0.717344 0.677163
0.698345 -0.688586 0.013500
0.034987 0.691062 -0.723179
-0.659018 0.723491 0.007365
-0.015252 -0.695206 -0.658419
