OFF
256 0 0
-0.032186 0.666971 0.656172
0.675316 -0.646672 0.016227
0.686317 0.039599 -0.686663
0.720778 0.694156 0.011831
0.720837 0.693895 0.013724
0.655138 -0.012954 0.674405
0.685645 0.038406 -0.685295
0.009778 0.674750 -0.627872
0.009726 0.673446 -0.629645
-0.050076 -0.682468 -0.697743
-0.642470 -0.669502 -0.023077
0.720318 0.694801 0.011242
-0.049445 -0.682840 -0.695771
0.686843 0.040005 -0.686939
-0.687344 0.023101 -0.690021
-0.687725 0.025064 -0.689109
0.719706 0.692213 0.009380
0.721265 0.694193 0.014396
-0.033310 0.666627 0.654216
-0.642776 -0.667391 -0.024277
-0.682612 -0.031925 0.679466
0.719524 0.694409 0.011962
0.653720 -0.013819 0.672588
-0.666153 0.661538 0.013305
-0.682392 -0.031007 0.681431
-0.665701 0.662730 0.013238
-0.050188 -0.680952 -0.695893
-0.667600 0.660185 0.014453
0.011633 0.674366 -0.630015
0.686692 0.040603 -0.685609
0.014617 -0.713959 0.670737
-0.683147 -0.028920 0.681318
0.674522 -0.648420 0.017425
0.686905 0.039927 -0.685806
-0.642660 -0.668881 -0.023649
0.652409 -0.014509 0.673519
0.009870 0.673085 -0.628789
0.719322 0.692038 0.012441
0.011460 0.671585 -0.628112
0.685655 0.038410 -0.685830
-0.642691 -0.669713 -0.023048
0.015026 -0.718120 0.669663
0.010132 0.673805 -0.628951
0.684488 0.038901 -0.685164
-0.680460 -0.029831 0.682415
0.015763 -0.715258 0.669436
-0.686430 0.021903 -0.687801
-0.665810 0.661730 0.014203
-0.665972 0.660154 0.011590
-0.682322 -0.030950 0.679851
0.721085 0.695061 0.012591
0.719231 0.693687 0.012455
-0.048364 -0.679582 -0.696633
0.008820 0.672644 -0.629401
0.686176 0.038581 -0.684854
-0.685989 0.023398 -0.687593
0.010209 0.673230 -0.628904
-0.643053 -0.668935 -0.022011
-0.683465 -0.029452 0.680762
0.676128 -0.647501 0.016474
0.719405 0.693172 0.011305
-0.681237 -0.031380 0.680792
-0.642318 -0.667873 -0.021180
-0.050150 -0.682862 -0.698635
0.675425 -0.650196 0.019174
-0.033334 0.668969 0.655579
-0.048492 -0.680069 -0.699850
0.009363 0.672419 -0.628986
0.016885 -0.716600 0.668886
0.653738 -0.014298 0.672610
-0.685380 0.023668 -0.689362
-0.680170 -0.030017 0.680903
0.651483 -0.013956 0.674612
0.654570 -0.014490 0.673764
-0.032612 0.667399 0.655227
0.720083 0.692314 0.013228
0.009792 0.674104 -0.626369
-0.032520 0.668131 0.655226
-0.666248 0.661173 0.012853
0.014052 -0.715293 0.671440
-0.667179 0.661606 0.012169
0.015716 -0.715059 0.669258
0.013391 -0.713879 0.671162
-0.686651 0.025203 -0.688535
-0.050087 -0.681897 -0.696538
0.014927 -0.714886 0.671813
-0.682650 -0.030172 0.679900
0.653477 -0.015776 0.672694
-0.049274 -0.681643 -0.697038
0.686401 0.039845 -0.684502
0.654463 -0.012880 0.674264
0.685365 0.039207 -0.685893
0.676150 -0.648052 0.017587
0.719700 0.694699 0.011993
-0.682208 -0.032709 0.680708
0.017146 -0.714072 0.669472
0.675002 -0.646918 0.017780
0.677679 -0.648909 0.017433
-0.032729 0.667813 0.655975
-0.032924 0.666798 0.656173
-0.048915 -0.681227 -0.698538
-0.641697 -0.669150 -0.022657
-0.665540 0.659608 0.012943
-0.642622 -0.667353 -0.023317
-0.665714 0.661500 0.013647
0.676429 -0.648036 0.018549
-0.033350 0.667108 0.655745
0.018495 -0.715213 0.670994
-0.048477 -0.683111 -0.695833
-0.032147 0.665760 0.655861
0.009083 0.673660 -0.627666
-0.687973 0.023552 -0.689129
0.015825 -0.714413 0.669936
0.674893 -0.648286 0.018909
0.675892 -0.648584 0.017500
-0.032246 0.667000 0.656193
-0.682296 -0.031023 0.680088
-0.050765 -0.681618 -0.696405
0.675922 -0.647243 0.016952
0.686086 0.040103 -0.686895
-0.033371 0.668215 0.656075
0.014928 -0.715954 0.669879
-0.683879 -0.030910 0.680517
0.675846 -0.648523 0.018998
-0.643680 -0.670003 -0.022980
0.673754 -0.649734 0.016564
-0.666779 0.662327 0.013225
0.686284 0.039573 -0.684943
0.684892 0.041191 -0.685543
0.719667 0.692619 0.011710
0.720751 0.695388 0.012449
0.014294 -0.715051 0.671098
0.655020 -0.012710 0.674672
0.685913 0.041314 -0.687745
0.009374 0.674170 -0.628045
-0.686217 0.021956 -0.685912
-0.643690 -0.669850 -0.021506
0.719153 0.692947 0.010582
-0.666895 0.659262 0.013923
0.675860 -0.647973 0.018786
-0.644513 -0.669654 -0.023483
0.655544 -0.013485 0.673320
-0.034953 0.667451 0.655812
0.007949 0.673351 -0.628366
-0.681633 -0.031075 0.679626
0.008460 0.673523 -0.629696
-0.642296 -0.667867 -0.023574
-0.640157 -0.669277 -0.022109
-0.046562 -0.681493 -0.696483
0.009844 0.672921 -0.627637
-0.680607 -0.030482 0.680862
-0.641449 -0.667919 -0.021777
0.654443 -0.014582 0.671449
0.675325 -0.650581 0.017001
0.653878 -0.011886 0.675090
-0.686557 0.024089 -0.689553
0.014040 -0.714516 0.667421
-0.680259 -0.029520 0.679799
-0.687072 0.024817 -0.688898
-0.666188 0.661010 0.013168
0.014018 -0.715516 0.669979
0.684875 0.040275 -0.686606
0.719133 0.692628 0.011863
0.654166 -0.011968 0.673653
-0.682168 -0.031159 0.679795
0.720275 0.694449 0.009451
-0.667626 0.659794 0.013745
-0.033851 0.665788 0.654494
-0.686923 0.025114 -0.689713
-0.681817 -0.030769 0.679396
-0.667539 0.659708 0.013520
-0.033157 0.666787 0.655979
0.015671 -0.715486 0.671169
-0.050210 -0.682558 -0.698330
0.655742 -0.016192 0.672119
0.010332 0.674426 -0.628531
-0.049957 -0.682557 -0.696760
0.015998 -0.715783 0.670162
0.677011 -0.647531 0.016379
0.675829 -0.647220 0.018396
-0.033353 0.665623 0.654448
0.719954 0.693589 0.011358
-0.687023 0.025055 -0.688854
0.015083 -0.715567 0.667700
-0.682297 -0.031070 0.680896
0.720314 0.693908 0.012604
-0.680086 -0.033152 0.680685
-0.687182 0.023061 -0.687802
0.654637 -0.013910 0.674596
-0.049798 -0.682172 -0.696667
0.719427 0.693468 0.011643
-0.640781 -0.670166 -0.022754
0.720255 0.693213 0.011582
0.009821 0.672868 -0.627123
0.684478 0.040367 -0.685222
0.675045 -0.647801 0.017450
-0.686684 0.024235 -0.688334
0.721206 0.694645 0.012392
0.674941 -0.647766 0.017572
-0.688493 0.023682 -0.689593
0.653156 -0.014083 0.673740
-0.035267 0.667490 0.655080
-0.641944 -0.668343 -0.022044
0.674511 -0.648344 0.016758
0.016198 -0.715407 0.670788
-0.680363 -0.030529 0.680685
-0.051489 -0.683258 -0.697149
-0.687995 0.022365 -0.686835
-0.679711 -0.030939 0.680154
-0.686923 0.024090 -0.689001
0.009124 0.673705 -0.629550
-0.681983 -0.031498 0.679709
0.010926 0.673466 -0.627425
-0.664612 0.659948 0.011018
-0.686301 0.026166 -0.687592
0.013863 -0.715638 0.670495
-0.686320 0.024263 -0.688759
0.718747 0.692207 0.012469
-0.031780 0.668679 0.656316
-0.665808 0.660061 0.014500
-0.032271 0.667228 0.654895
-0.688969 0.023595 -0.687521
-0.680305 -0.029780 0.681477
0.718796 0.693369 0.012806
-0.681585 -0.031814 0.679569
-0.049039 -0.681770 -0.698494
-0.667107 0.660397 0.010665
-0.665942 0.659335 0.014355
0.654225 -0.013539 0.676128
-0.667311 0.659353 0.012970
0.008724 0.673176 -0.629216
-0.666737 0.659016 0.015675
0.719997 0.693054 0.012186
-0.030637 0.665912 0.657973
-0.667103 0.660819 0.013164
0.010325 0.674635 -0.627940
-0.687023 0.023900 -0.690611
0.653158 -0.015377 0.671545
-0.050484 -0.680570 -0.698074
-0.642753 -0.666709 -0.021350
0.654190 -0.013671 0.673517
-0.680233 -0.030134 0.680513
-0.667401 0.661143 0.011958
-0.680417 -0.031295 0.680382
-0.682441 -0.031507 0.679496
-0.030945 0.666921 0.655993
0.653324 -0.015199 0.674398
0.674756 -0.647062 0.018615
-0.679727 -0.031647 0.680260
0.009786 0.673547 -0.627240
-0.033579 0.666953 0.654421
-0.688706 0.023760 -0.688251
-0.033132 0.668464 0.657550
0.014503 -0.713411 0.667544
-0.679836 -0.028519 0.681229
0.677093 -0.648593 0.018235
