OFF
256 0 0
0.007598 0.655077 -0.659762
-0.681668 0.018823 -0.644478
0.008407 0.696947 0.665659
0.695021 -0.018120 -0.718304
0.017824 -0.651302 0.665513
0.688965 -0.660422 -0.007615
0.697076 0.610089 -0.018083
0.007252 0.696233 0.664384
0.007090 0.696986 0.663641
0.696536 0.610473 -0.019233
0.696966 0.609805 -0.019298
0.007673 0.697299 0.665896
0.691513 -0.658241 -0.007936
-0.700264 -0.679375 -0.008546
-0.690616 0.680624 0.014900
0.010163 -0.656513 -0.666480
0.018661 -0.650936 0.665405
0.006239 0.656725 -0.661723
0.007839 0.654922 -0.661328
0.010634 -0.656103 -0.667900
-0.692742 0.683334 0.015647
0.694401 -0.018059 -0.717916
-0.691625 0.681227 0.015892
0.008226 0.697309 0.665976
0.694087 -0.019065 -0.720225
0.019835 -0.651249 0.664437
-0.700721 -0.678618 -0.008260
0.019693 -0.651350 0.664752
0.688954 -0.660846 -0.006704
0.017469 -0.652004 0.667370
-0.692052 0.682364 0.012284
-0.692724 0.680760 0.014823
0.006109 0.653037 -0.660719
0.011484 -0.655713 -0.668562
0.018304 -0.652671 0.665130
0.688747 -0.659713 -0.007310
0.011057 -0.655111 -0.668130
0.686649 -0.014629 0.711475
0.010300 -0.656125 -0.669168
0.697251 0.611381 -0.017350
0.688175 -0.661156 -0.008682
0.011756 -0.656229 -0.667045
0.017935 -0.650839 0.665890
0.695957 -0.018836 -0.721734
0.693011 -0.017277 -0.719770
0.697888 0.609558 -0.018424
0.689768 -0.658769 -0.006298
-0.701490 -0.678789 -0.007611
0.698093 0.611515 -0.018859
-0.692159 0.682464 0.013561
0.007762 0.697177 0.665233
-0.690522 0.682322 0.013560
0.019489 -0.651636 0.665789
0.690603 -0.661145 -0.007509
0.017803 -0.650822 0.665076
0.690690 -0.661063 -0.006367
0.006710 0.655503 -0.662889
-0.692237 0.681256 0.013514
0.699526 0.610950 -0.016874
0.007558 0.697550 0.665047
-0.682448 0.018917 -0.643518
0.009074 0.696619 0.666493
0.005687 0.655649 -0.660876
0.690500 -0.659481 -0.008410
0.008863 -0.654886 -0.668417
-0.701081 -0.678041 -0.007285
-0.683027 0.016879 -0.643849
-0.701023 -0.679553 -0.008012
0.011688 -0.654730 -0.669719
0.007266 0.654064 -0.659428
0.008519 0.695729 0.666259
-0.700390 -0.680487 -0.007319
0.018871 -0.650162 0.666399
-0.734608 0.017066 0.673324
0.010009 -0.655283 -0.668770
0.017222 -0.650931 0.665095
0.007788 0.695808 0.664155
0.685033 -0.015359 0.710347
0.018981 -0.650437 0.665633
-0.682066 0.016873 -0.644756
0.686060 -0.013985 0.711731
0.697136 0.610483 -0.020073
-0.690973 0.680979 0.015510
0.017133 -0.651754 0.666071
0.690910 -0.660817 -0.006878
-0.735029 0.016259 0.670150
0.009200 -0.655591 -0.668924
0.684479 -0.014186 0.713081
0.694393 -0.018266 -0.718203
0.685479 -0.014219 0.714928
0.018829 -0.652370 0.665807
0.020049 -0.651543 0.664921
0.004995 0.656199 -0.659921
0.010851 -0.655488 -0.668163
0.696601 0.611220 -0.018065
0.684841 -0.013488 0.711458
0.006967 0.656347 -0.660298
-0.684719 0.016838 -0.645154
0.008139 0.694597 0.664603
0.697327 0.608702 -0.018947
0.007561 0.656680 -0.661646
0.009863 -0.654152 -0.666619
-0.682867 0.018816 -0.644083
0.695621 -0.017406 -0.720376
0.695063 -0.018408 -0.719186
0.010575 -0.656474 -0.667571
0.007520 0.656127 -0.660750
-0.681665 0.017010 -0.644339
-0.699675 -0.678696 -0.008830
0.006836 0.655598 -0.660473
0.696930 0.610121 -0.017894
0.007728 0.697783 0.665677
0.011037 -0.657042 -0.666658
0.698712 0.610128 -0.018152
0.693445 -0.017308 -0.721260
-0.735913 0.013714 0.671114
0.698314 0.611464 -0.019075
-0.733782 0.016721 0.670283
0.687666 -0.660735 -0.006880
0.698408 0.609656 -0.018125
0.697017 0.609758 -0.017386
-0.734084 0.014785 0.670467
0.007271 0.696572 0.667091
0.695629 -0.019464 -0.719494
-0.735387 0.015048 0.671107
0.003858 0.655398 -0.660697
-0.701436 -0.678358 -0.010153
-0.684664 0.018681 -0.644407
-0.702143 -0.676827 -0.009073
0.689998 -0.660366 -0.007251
-0.682983 0.018315 -0.645654
0.693951 -0.017700 -0.718932
0.008507 -0.655747 -0.669946
0.018532 -0.652885 0.666069
0.684246 -0.014406 0.711958
0.690026 -0.658682 -0.010288
0.010281 -0.655379 -0.669310
0.698194 0.612227 -0.018995
0.684869 -0.014419 0.710684
0.694088 -0.018604 -0.719203
-0.681995 0.016633 -0.645720
-0.684872 0.017820 -0.645562
0.008745 0.696908 0.666551
-0.701605 -0.678597 -0.009073
-0.692925 0.681267 0.013946
-0.701894 -0.678635 -0.007576
0.685794 -0.014971 0.712751
-0.700628 -0.680636 -0.009438
0.697762 0.610469 -0.017113
0.690953 -0.659512 -0.007815
0.693860 -0.017141 -0.719098
0.685650 -0.013816 0.709785
0.006249 0.655953 -0.661398
0.018090 -0.651446 0.664932
0.006021 0.654151 -0.661129
0.006445 0.656701 -0.661532
0.010199 -0.655945 -0.666399
-0.700068 -0.680408 -0.008769
0.697367 0.610437 -0.018847
0.017768 -0.651257 0.666970
0.694518 -0.018890 -0.718839
0.005499 0.657159 -0.661228
0.006536 0.655963 -0.659231
0.007890 0.657173 -0.661593
-0.693346 0.680733 0.013427
0.689732 -0.659215 -0.006903
0.017507 -0.650374 0.664710
-0.734197 0.015085 0.670827
0.019680 -0.651693 0.665193
0.005943 0.655481 -0.659907
-0.735574 0.015009 0.669481
-0.692773 0.683024 0.014520
0.687711 -0.014771 0.710175
0.697784 0.611395 -0.018568
0.689701 -0.659405 -0.005337
-0.682654 0.017055 -0.642904
-0.683396 0.017763 -0.645101
0.011183 -0.655377 -0.668748
-0.691957 0.682944 0.016257
0.686584 -0.013567 0.711263
0.684336 -0.016575 0.712061
-0.701569 -0.678398 -0.008859
0.688470 -0.662174 -0.006132
0.008872 -0.657577 -0.669750
0.690911 -0.659787 -0.006081
0.010856 -0.656195 -0.667102
0.697309 0.610620 -0.019177
0.685713 -0.014182 0.711804
0.686456 -0.014329 0.711998
0.007637 0.696139 0.664397
-0.682899 0.018062 -0.644921
-0.701010 -0.678890 -0.009132
-0.733347 0.015881 0.668581
-0.699701 -0.679099 -0.009231
0.697785 0.611400 -0.018856
0.006491 0.696828 0.665550
0.007915 0.696124 0.664028
-0.684348 0.017510 -0.645609
-0.700332 -0.679591 -0.010229
0.018187 -0.651857 0.665361
-0.734680 0.015690 0.670396
0.008392 0.698276 0.666558
0.008942 0.695515 0.665674
0.694431 -0.017775 -0.718900
-0.701514 -0.678094 -0.010015
0.689109 -0.659168 -0.007405
0.005084 0.656919 -0.661092
0.689669 -0.662095 -0.008191
0.017818 -0.652376 0.665212
0.699082 0.610932 -0.017165
-0.700953 -0.679170 -0.009050
0.007356 0.695643 0.664531
-0.692006 0.682598 0.015064
0.695509 -0.017833 -0.718902
0.008012 -0.655731 -0.666341
0.684497 -0.016138 0.710984
-0.701466 -0.679541 -0.006215
0.689092 -0.659607 -0.009185
0.686400 -0.015030 0.712346
0.009876 0.697899 0.664823
-0.691047 0.681384 0.014045
-0.733034 0.015651 0.670432
0.692843 -0.017259 -0.720036
0.007713 0.697243 0.666469
-0.700077 -0.678019 -0.009608
-0.700191 -0.677779 -0.008857
0.686095 -0.013999 0.710203
0.019382 -0.652094 0.666125
0.697192 0.611192 -0.018950
-0.702094 -0.679657 -0.007426
0.006016 0.654510 -0.660483
0.007862 0.696526 0.665381
-0.699677 -0.679781 -0.008806
0.686577 -0.014125 0.711842
-0.684602 0.018463 -0.643445
-0.692501 0.681436 0.013918
0.018756 -0.652549 0.666431
0.010025 -0.655043 -0.665829
-0.685126 0.018142 -0.643420
0.697538 0.610205 -0.018352
-0.693618 0.683310 0.013569
0.686774 -0.014441 0.711304
-0.686399 0.018167 -0.645527
-0.700503 -0.677088 -0.008777
0.691715 -0.659357 -0.008616
-0.684649 0.018777 -0.644612
0.690534 -0.658849 -0.007674
0.689227 -0.660183 -0.007803
-0.684569 0.019098 -0.643692
-0.692636 0.681151 0.012846
-0.684457 0.017030 -0.645489
-0.693768 0.682910 0.016159
0.007281 0.656459 -0.661468
-0.685201 0.016957 -0.644965
-0.734819 0.014980 0.670114
-0.702165 -0.678112 -0.010633
