OFF
256 0 0
-0.022110 -0.656527 0.672897
0.657091 0.658248 -0.030806
0.659131 0.660051 -0.034348
0.687142 0.016712 0.644770
-0.697609 -0.667258 0.004708
-0.655165 -0.021648 -0.662242
-0.711961 0.683682 0.007432
-0.655377 -0.024152 -0.662190
0.687321 -0.011038 -0.672396
0.709610 -0.659560 0.006531
-0.697556 -0.667680 0.006450
-0.000178 0.635997 0.664662
0.659641 0.657605 -0.031750
-0.699605 -0.666090 0.005631
-0.022807 -0.658269 0.673608
0.006962 -0.674407 -0.648514
-0.702305 0.021039 0.711802
-0.022647 -0.657132 0.672524
0.658950 0.657550 -0.033587
-0.710373 0.681185 0.006258
-0.710611 0.683585 0.008611
-0.703014 0.020368 0.713338
0.687028 0.015180 0.645020
-0.023255 -0.656722 0.675476
0.690184 -0.011540 -0.674015
0.689667 -0.012421 -0.672564
0.709894 -0.663113 0.006105
-0.697144 -0.667260 0.006351
0.005787 -0.673958 -0.646863
0.688069 -0.012263 -0.671630
-0.697670 -0.667424 0.003709
-0.022153 -0.657246 0.674194
-0.654454 -0.022024 -0.661489
-0.653897 -0.025025 -0.661946
-0.713216 0.682959 0.008256
-0.711781 0.682824 0.007018
0.687267 0.017627 0.643005
0.685849 0.015791 0.642755
0.660031 0.659396 -0.032948
0.709282 -0.662081 0.004628
0.659263 0.659128 -0.030639
-0.713217 0.682952 0.008229
0.658659 0.658469 -0.032757
-0.714011 0.683157 0.009091
0.041003 0.677446 -0.697630
0.658433 0.657575 -0.031714
0.008740 -0.673961 -0.649232
0.689230 -0.012220 -0.673662
0.688689 -0.012987 -0.671787
-0.713015 0.682673 0.008266
0.687874 -0.010762 -0.672897
0.689413 -0.012382 -0.673207
0.659115 0.658771 -0.034761
0.709266 -0.662032 0.004667
-0.700870 0.021510 0.711509
0.688226 0.015355 0.644455
-0.000801 0.636338 0.666578
-0.698597 -0.666121 0.003510
-0.700289 0.020580 0.712933
-0.697815 -0.665670 0.003059
0.660433 0.657039 -0.032701
0.685541 0.017070 0.643821
0.710836 -0.659275 0.005285
0.657801 0.657287 -0.031113
0.685382 0.015727 0.643625
-0.698280 -0.666741 0.007602
-0.002304 0.634929 0.664994
0.710039 -0.661934 0.006456
0.690947 -0.012300 -0.670772
-0.715177 0.683164 0.007973
-0.001070 0.635172 0.667796
-0.001625 0.635858 0.665567
-0.655047 -0.022041 -0.661907
-0.701512 0.021742 0.710500
0.039955 0.679945 -0.699366
0.005683 -0.673663 -0.647629
0.658787 0.658734 -0.032206
-0.700479 -0.665195 0.002670
0.691100 -0.013925 -0.673631
-0.701625 0.020980 0.711181
-0.712176 0.683776 0.005639
-0.711701 0.683866 0.006914
0.659493 0.658368 -0.029946
-0.023762 -0.657608 0.674740
0.687282 0.017135 0.642873
-0.712291 0.683087 0.006679
-0.696808 -0.666746 0.005383
0.709769 -0.661703 0.005302
0.688848 -0.012039 -0.672241
-0.699237 -0.665659 0.005498
-0.024115 -0.655219 0.672093
0.658277 0.658593 -0.031307
-0.701280 0.021948 0.712756
-0.001053 0.636091 0.666701
-0.655112 -0.024020 -0.663615
-0.001732 0.635116 0.663956
-0.710702 0.684158 0.007437
0.687508 0.016495 0.644075
-0.696863 -0.664911 0.004192
0.711084 -0.661004 0.006492
-0.653669 -0.020501 -0.662700
-0.703432 0.018975 0.712102
0.007398 -0.673798 -0.646294
0.040806 0.679584 -0.697281
0.690357 -0.012359 -0.673392
0.659272 0.661036 -0.032367
-0.698031 -0.666498 0.004889
-0.002482 0.636524 0.666335
-0.700733 0.020310 0.712389
0.689289 -0.011008 -0.670788
0.689318 -0.010913 -0.672111
-0.000252 0.636679 0.667100
0.658694 0.658012 -0.031832
0.710867 -0.662676 0.004539
0.687212 0.016709 0.643085
-0.700851 0.020026 0.712495
-0.712062 0.684602 0.007744
-0.000297 0.637736 0.668720
0.709842 -0.661940 0.005454
0.691043 -0.012477 -0.672563
-0.703304 0.023243 0.711189
-0.711878 0.682688 0.008305
0.040816 0.678837 -0.697446
0.006140 -0.675628 -0.649913
-0.021186 -0.655141 0.674113
0.710642 -0.662071 0.005349
-0.023718 -0.656852 0.673558
-0.698697 -0.665859 0.005944
0.007335 -0.671373 -0.646047
-0.001756 0.635551 0.663655
0.657999 0.658846 -0.032720
0.685938 0.015737 0.645160
0.708966 -0.661529 0.005838
-0.711992 0.684256 0.006734
0.659340 0.659344 -0.033405
-0.697293 -0.667782 0.003483
0.687127 0.013984 0.644625
0.687664 0.014428 0.642443
0.007192 -0.673083 -0.645763
-0.000801 0.635546 0.666119
-0.699319 -0.663721 0.005375
-0.654161 -0.022248 -0.663375
0.687972 -0.011336 -0.672537
-0.700254 -0.667070 0.005005
-0.697183 -0.667393 0.005249
-0.701728 0.020226 0.712988
-0.699371 -0.666438 0.004999
-0.698815 -0.666623 0.003453
-0.700102 -0.665925 0.004892
-0.702540 0.020757 0.712432
0.690622 -0.012503 -0.670852
0.707178 -0.661559 0.005127
0.006450 -0.674215 -0.648340
0.006590 -0.674451 -0.648027
-0.001184 0.635887 0.665961
0.658942 0.659129 -0.033176
0.659505 0.658252 -0.031899
0.686375 0.016258 0.644561
0.040036 0.680526 -0.697302
-0.699090 -0.667421 0.004842
-0.710169 0.681734 0.007170
0.685730 0.013515 0.644742
0.690266 -0.011477 -0.673597
0.657587 0.660428 -0.030457
-0.000448 0.635824 0.664857
-0.700833 0.019242 0.711596
0.659055 0.659142 -0.033207
0.007360 -0.673932 -0.646823
-0.699779 -0.667436 0.005293
-0.656033 -0.023664 -0.662349
-0.711708 0.684103 0.008167
-0.711479 0.682472 0.006535
-0.021638 -0.656248 0.675153
-0.712022 0.684230 0.007747
0.006538 -0.674457 -0.648234
0.006546 -0.673883 -0.648758
-0.698647 -0.665509 0.004504
0.039162 0.679545 -0.699507
-0.023034 -0.655171 0.672806
-0.710687 0.684084 0.007921
0.040616 0.677059 -0.698756
0.009097 -0.674596 -0.646433
-0.021158 -0.655215 0.675381
-0.712816 0.683901 0.008311
-0.700755 0.022613 0.713224
-0.700478 0.019450 0.710763
0.658518 0.659013 -0.033264
0.708489 -0.660501 0.004580
0.689749 -0.012099 -0.673058
0.657986 0.657693 -0.032014
-0.020618 -0.656650 0.673191
-0.022786 -0.655164 0.672961
-0.699847 -0.665519 0.003964
0.685601 0.016096 0.643294
0.660131 0.659593 -0.031541
-0.021892 -0.656991 0.674220
-0.653326 -0.025394 -0.661555
0.006950 -0.673377 -0.645648
-0.712237 0.683410 0.008892
-0.701613 0.020055 0.712379
-0.020919 -0.659081 0.673985
-0.654895 -0.023385 -0.663618
0.040609 0.677799 -0.697840
-0.700297 -0.666970 0.004526
-0.700199 -0.665747 0.003924
-0.699029 0.019415 0.713260
0.659509 0.659179 -0.029498
0.689513 -0.010866 -0.672753
0.690474 -0.012356 -0.672646
0.657327 0.659283 -0.033148
-0.713289 0.680837 0.007018
-0.711937 0.682318 0.008851
-0.701641 0.019630 0.711301
0.687895 -0.012356 -0.672306
0.708826 -0.661175 0.003673
-0.698564 -0.667424 0.005492
0.708954 -0.661262 0.004557
0.006451 -0.673669 -0.646338
0.006417 -0.673987 -0.647029
0.006380 -0.673970 -0.647030
0.686842 0.015339 0.642841
-0.655020 -0.022266 -0.662700
0.006600 -0.674677 -0.647411
-0.001663 0.635910 0.665387
-0.699998 0.021226 0.712148
0.708672 -0.659963 0.003766
-0.021838 -0.655370 0.672726
0.658252 0.658393 -0.031569
0.658963 0.660240 -0.032149
-0.021243 -0.656546 0.674344
0.690872 -0.011590 -0.672196
0.658536 0.659461 -0.031576
0.038059 0.680865 -0.697601
0.657945 0.659770 -0.032838
-0.652525 -0.024179 -0.661953
-0.712495 0.683983 0.007277
0.691035 -0.011824 -0.672175
0.008459 -0.675130 -0.647163
-0.656809 -0.023095 -0.662824
-0.698260 -0.666332 0.004717
0.039417 0.678407 -0.696589
-0.653498 -0.023901 -0.663187
0.006706 -0.673068 -0.648178
-0.655258 -0.023195 -0.664189
0.686783 0.016026 0.641868
0.040314 0.678179 -0.700686
-0.698339 -0.664360 0.004818
-0.001311 0.634365 0.666814
0.688674 0.014891 0.645008
0.659594 0.658846 -0.032914
0.685812 0.015702 0.643731
-0.711359 0.683938 0.008586
0.684619 0.015833 0.642346
-0.699778 -0.665649 0.003443
-0.654040 -0.023832 -0.661178
0.005685 -0.674065 -0.647623
