OFF
256 0 0
0.461324 0.228079 0.217972
-0.479587 -0.739055 0.235331
-0.492678 0.733839 -0.215892
-0.454309 -0.213892 -0.215789
-0.450696 0.214043 0.215672
0.443480 -0.203651 -0.232649
0.445096 -0.202236 -0.233284
0.007203 -0.698842 -0.247890
0.443153 -0.200687 -0.230719
-0.453997 -0.214191 -0.217175
0.480154 -0.692571 0.213626
-0.478799 0.231434 -0.682657
-0.006891 -0.719954 0.688012
0.469966 0.229978 -0.735463
0.447540 -0.202600 -0.231730
0.444175 -0.201341 -0.230406
0.481212 -0.693346 0.211234
-0.490488 0.732603 -0.214442
0.462302 0.226632 0.217514
-0.455263 -0.230236 0.696434
0.010185 -0.697358 -0.248763
0.462383 0.689225 -0.230495
-0.456343 -0.213322 -0.217806
-0.455741 -0.216207 -0.216852
-0.480914 -0.738420 0.235656
-0.449365 0.213169 0.216502
-0.480432 0.228921 -0.683326
0.000969 0.720171 -0.692898
-0.449830 0.213209 0.217130
-0.007525 -0.718529 0.687533
0.446308 -0.202429 -0.229321
0.002100 0.721635 -0.691652
-0.456318 -0.230508 0.695501
0.460906 0.225911 0.217449
-0.490428 0.733431 -0.216334
-0.020955 0.656994 0.223484
0.014651 -0.203137 -0.683422
-0.491865 0.733548 -0.215345
-0.007401 -0.720581 0.686364
0.003922 0.214679 0.720515
0.463389 0.688816 -0.230708
-0.454212 -0.213586 -0.217462
-0.479094 0.231888 -0.682286
0.461565 0.227573 0.217508
0.009326 -0.699149 -0.248799
-0.455349 -0.229168 0.696352
0.461604 0.227764 0.218414
-0.482609 -0.740483 0.236362
0.491170 -0.212533 0.727077
-0.021711 0.656261 0.226081
-0.451431 0.214992 0.214778
-0.021320 0.657202 0.225743
0.479994 -0.692418 0.212981
-0.455913 -0.214943 -0.217102
-0.451565 0.213816 0.216037
0.481372 -0.693628 0.211252
0.014931 -0.201987 -0.683493
-0.490438 0.732111 -0.215369
-0.456351 -0.231749 0.695100
0.489340 -0.213815 0.728900
0.005087 0.213318 0.720958
0.004835 0.212894 0.720445
-0.454320 -0.214070 -0.218134
-0.450270 0.214229 0.217517
0.000551 0.720402 -0.693497
0.473028 0.230691 -0.736005
0.445486 -0.201991 -0.232274
-0.479238 -0.738661 0.234887
0.000860 0.720331 -0.693915
0.462616 0.228340 0.217147
-0.480713 0.231034 -0.683332
-0.006925 -0.719107 0.687629
0.009757 -0.700654 -0.250171
-0.490793 0.732396 -0.215065
-0.000666 0.719686 -0.692831
-0.455324 -0.214704 -0.217860
0.008786 -0.698889 -0.251082
0.013143 -0.203199 -0.685018
-0.456214 -0.230149 0.695482
-0.021931 0.656826 0.224808
-0.001153 0.719869 -0.691356
0.462828 0.688594 -0.229840
0.015076 -0.201829 -0.684418
0.007121 -0.699748 -0.249182
0.000206 0.720646 -0.694079
-0.491043 0.729421 -0.215632
-0.482425 -0.740431 0.235273
0.013438 -0.200332 -0.682848
0.003797 0.214014 0.721801
-0.449483 0.215915 0.214214
0.003260 0.214390 0.720618
0.460992 0.226056 0.218058
0.461489 0.687904 -0.229226
-0.490663 0.732787 -0.214814
0.473949 0.229893 -0.734390
-0.479661 -0.739860 0.236241
0.444589 -0.201388 -0.230429
-0.449792 0.213443 0.215401
-0.479624 -0.736489 0.236316
0.463291 0.687964 -0.230150
-0.006816 -0.719640 0.687005
0.492325 -0.213447 0.728662
-0.450772 0.214258 0.217355
0.459629 0.225307 0.218535
-0.480455 -0.740048 0.236124
0.461045 0.226305 0.217970
0.004841 0.215915 0.719815
0.012665 -0.700203 -0.251122
-0.480375 0.231590 -0.682928
-0.006999 -0.717601 0.686708
0.014629 -0.203355 -0.684198
0.005745 0.213581 0.719516
0.445290 -0.202210 -0.233221
-0.481768 -0.739587 0.237698
-0.490167 0.732485 -0.215766
-0.000394 0.720862 -0.692824
0.006234 0.212973 0.719771
0.443253 -0.202466 -0.232159
0.012552 -0.202243 -0.684195
0.445125 -0.199782 -0.231812
0.003372 0.214994 0.719017
-0.490071 0.731908 -0.214937
0.444377 -0.203862 -0.231054
0.473760 0.231470 -0.733175
-0.457104 -0.230072 0.693691
-0.021723 0.656252 0.226449
0.490502 -0.212971 0.728150
-0.000206 0.720704 -0.692574
0.003738 0.215456 0.722666
0.004445 0.216198 0.721787
-0.489816 0.732085 -0.213742
-0.490621 0.731483 -0.215395
-0.481295 -0.738158 0.235324
0.490895 -0.211979 0.729196
0.005879 0.214369 0.720031
0.481516 -0.693273 0.212617
0.010783 -0.699500 -0.251111
-0.020820 0.656345 0.224872
0.474643 0.230093 -0.734202
-0.452710 -0.212606 -0.216486
0.005431 0.214843 0.720470
0.488815 -0.212911 0.727444
-0.449837 0.214970 0.217030
0.010202 -0.699322 -0.251182
0.000335 0.721152 -0.693040
-0.000658 0.719403 -0.692887
-0.000355 0.722195 -0.693727
0.014889 -0.200187 -0.683071
0.480580 -0.693466 0.212881
0.471510 0.230792 -0.736361
0.458887 0.227200 0.217229
0.463038 0.226692 0.215490
-0.454698 -0.214266 -0.215740
0.013952 -0.204568 -0.684832
-0.481135 -0.739018 0.238508
0.492623 -0.214777 0.728847
0.461039 0.225996 0.219230
0.009839 -0.701136 -0.250721
-0.008469 -0.717456 0.686709
0.009486 -0.700117 -0.249473
-0.449590 0.213110 0.215198
-0.006497 -0.719679 0.687173
0.005728 0.214616 0.720121
-0.450761 0.215840 0.216553
-0.480571 -0.740077 0.237319
0.480352 -0.693979 0.211282
0.461087 0.226829 0.217970
0.443581 -0.202184 -0.231499
0.471244 0.230925 -0.736675
0.480570 -0.693313 0.212237
0.465028 0.227324 0.217090
0.462639 0.686794 -0.229892
0.446021 -0.201519 -0.231097
-0.450615 0.210832 0.215303
-0.478712 -0.737688 0.237336
0.004106 0.215460 0.718740
0.008412 -0.698898 -0.250067
0.001491 0.721259 -0.693311
-0.447618 0.214819 0.216033
-0.451628 0.214717 0.215136
-0.454982 -0.215036 -0.217764
0.001000 0.720257 -0.690741
0.461321 0.227122 0.219233
0.009956 -0.700184 -0.251724
0.443987 -0.201413 -0.232154
0.461208 0.228428 0.217383
-0.479468 -0.740922 0.236446
-0.455029 -0.214265 -0.217480
-0.021279 0.656938 0.226684
-0.479630 0.231106 -0.681942
0.475161 0.231566 -0.733521
-0.000455 0.720592 -0.691876
-0.480267 -0.738466 0.236790
-0.481872 0.229571 -0.681749
0.000042 0.719945 -0.693679
0.000898 0.720306 -0.693252
-0.490706 0.734416 -0.214551
0.489786 -0.214948 0.728728
0.479518 -0.694139 0.210532
-0.454411 -0.214913 -0.216484
-0.005195 -0.718086 0.688809
-0.452373 -0.215748 -0.215245
-0.021470 0.656667 0.225743
-0.457895 -0.229520 0.695448
0.479914 -0.692859 0.210095
0.463088 0.689435 -0.229638
-0.450471 0.214726 0.216945
-0.454858 -0.213746 -0.219829
0.005578 0.213878 0.720838
0.011749 -0.201626 -0.684700
0.462241 0.227674 0.217929
0.479566 -0.692620 0.212554
0.462791 0.687770 -0.232575
-0.449292 0.213720 0.215271
-0.480350 -0.738283 0.236095
-0.001305 0.718896 -0.692977
-0.008589 -0.720190 0.685498
0.490808 -0.212445 0.728684
0.005507 0.213553 0.720114
0.490141 -0.211338 0.727707
0.014042 -0.201751 -0.683980
0.460687 0.225580 0.218176
0.016264 -0.204379 -0.683921
-0.478547 -0.738674 0.237876
-0.488899 0.732101 -0.214124
0.490522 -0.213763 0.728089
0.009123 -0.698064 -0.249236
0.490113 -0.211946 0.725808
-0.455336 -0.215709 -0.217753
-0.480712 0.230656 -0.682213
0.009817 -0.698976 -0.249892
0.015314 -0.201715 -0.683974
0.462233 0.225667 0.217340
-0.480346 -0.738558 0.235822
-0.019645 0.656893 0.225602
-0.490474 0.731710 -0.215262
0.479438 -0.693418 0.210087
-0.001486 0.721140 -0.692839
-0.449385 0.213308 0.215452
-0.455211 -0.213772 -0.217430
0.463175 0.686278 -0.230528
-0.455631 -0.229420 0.695388
-0.020984 0.656731 0.225206
0.463704 0.685767 -0.227727
-0.490190 0.731220 -0.214272
0.460573 0.226072 0.218119
0.481063 -0.694031 0.213076
0.465052 0.687129 -0.231837
-0.454985 -0.230960 0.694640
0.010759 -0.698579 -0.248874
-0.450738 0.212567 0.215166
0.443027 -0.199852 -0.232575
-0.020985 0.655297 0.225091
0.471414 0.230091 -0.735513
0.473864 0.229012 -0.733458
-0.450137 0.214764 0.215488
