OFF
256 0 0
0.010792 -0.703320 -0.238247
0.491406 0.707785 -0.224661
0.011318 -0.705125 -0.238262
-0.481867 0.708709 -0.250093
-0.010108 -0.235568 -0.724487
0.434103 0.224478 0.224396
0.433271 0.225817 0.226985
-0.480782 0.709739 -0.250046
-0.461417 -0.748072 0.247389
0.013225 -0.704629 -0.238640
0.452578 -0.218562 -0.229534
-0.480843 0.710601 -0.249856
-0.008601 0.242719 0.721186
0.463932 -0.240787 0.707409
-0.441002 -0.236752 -0.202466
0.461797 0.250526 -0.704842
0.011178 -0.729988 0.684701
0.011560 -0.729196 0.685442
-0.008401 0.243500 0.723065
-0.474577 0.261514 -0.729730
0.024266 0.736369 0.262193
0.024097 0.735993 0.260523
-0.481238 0.708491 -0.250427
-0.436919 0.248574 0.223634
0.464835 -0.240662 0.707525
0.452383 -0.218951 -0.230036
0.013924 -0.705877 -0.237904
-0.460767 -0.748705 0.247849
-0.436313 0.250544 0.222826
-0.480942 0.709109 -0.249162
0.022798 0.738005 0.260113
-0.008792 0.243145 0.722106
0.451769 -0.217506 -0.230108
0.490186 0.709625 -0.224866
-0.029900 0.692605 -0.696164
-0.029047 0.691914 -0.695008
-0.481936 0.710402 -0.249724
-0.474150 0.262969 -0.729750
-0.483785 -0.262415 0.702262
0.454348 -0.218961 -0.229208
-0.441138 -0.235568 -0.204752
-0.474418 0.262202 -0.729211
0.461677 0.249242 -0.705929
0.476647 -0.697045 0.228656
0.432365 0.225692 0.225160
0.465219 -0.240604 0.706228
-0.006335 0.241893 0.721033
-0.440558 -0.235990 -0.201858
0.023803 0.737753 0.260387
0.435753 0.226038 0.226530
-0.435630 0.249019 0.226100
0.012945 -0.704036 -0.237432
0.014281 -0.704273 -0.237425
0.452864 -0.215973 -0.230030
0.012664 -0.730283 0.684497
0.491182 0.709757 -0.224898
-0.484975 -0.263671 0.701780
0.012267 -0.704463 -0.236612
-0.485162 -0.264649 0.701734
0.462697 -0.240460 0.705521
-0.481355 0.709636 -0.248499
-0.482070 0.708753 -0.248210
0.461027 0.250022 -0.706630
-0.008577 0.241359 0.720372
0.461196 0.249359 -0.704904
0.013403 -0.704574 -0.237145
-0.442388 -0.236294 -0.204561
0.462114 0.248551 -0.704665
-0.011188 -0.237131 -0.724616
-0.474992 0.260710 -0.730068
0.452683 -0.218651 -0.228904
0.023601 0.738543 0.260666
-0.009290 -0.236288 -0.725565
0.452390 -0.219109 -0.230433
-0.439986 -0.235323 -0.203777
0.475985 -0.699075 0.229277
0.013051 -0.705102 -0.238658
-0.476352 0.262275 -0.730354
0.460494 0.246807 -0.705882
0.451057 -0.218657 -0.229023
-0.483671 0.710333 -0.248743
-0.030441 0.691718 -0.694686
-0.008625 0.242083 0.721228
-0.008682 0.242973 0.720966
0.023762 0.736139 0.262039
-0.008285 0.243360 0.722033
-0.436280 0.248747 0.227832
-0.011356 -0.233943 -0.724759
-0.462506 -0.748981 0.248191
0.490753 0.707464 -0.224791
-0.008225 0.243710 0.721843
-0.438290 0.249448 0.226003
0.475263 -0.700108 0.230691
0.012898 -0.730264 0.684188
0.490269 0.710030 -0.224581
-0.482706 0.711239 -0.250679
0.435021 0.227646 0.225835
0.024662 0.737127 0.258464
-0.481280 0.708758 -0.250978
-0.011814 -0.236935 -0.724829
0.433853 0.226326 0.227064
0.451771 -0.219324 -0.230320
0.489448 0.709323 -0.223936
-0.462529 -0.747969 0.248301
-0.031177 0.693094 -0.695106
-0.439510 0.248784 0.226866
0.464983 -0.240015 0.706520
-0.462386 -0.747013 0.248060
-0.462999 -0.748650 0.248333
-0.440939 -0.236582 -0.201755
-0.485962 -0.261818 0.702132
0.010943 -0.727971 0.684857
-0.483213 -0.263660 0.703596
0.490569 0.711928 -0.224068
-0.438711 -0.235056 -0.202904
-0.438440 0.248019 0.224518
0.477974 -0.700140 0.227785
0.012461 -0.704009 -0.239202
-0.484236 -0.262650 0.702769
-0.010263 0.243035 0.722148
0.461014 0.250194 -0.707256
0.013241 -0.729831 0.683098
0.490627 0.708160 -0.224977
0.013540 -0.729275 0.684147
-0.007877 0.243852 0.723153
-0.483254 -0.263977 0.702153
0.452920 -0.218593 -0.229263
0.462631 0.249772 -0.706301
0.011055 -0.729351 0.683811
-0.439290 -0.235557 -0.204048
-0.012325 -0.237297 -0.727224
-0.028793 0.691271 -0.694500
-0.484052 -0.263168 0.702064
-0.476431 0.263320 -0.731134
0.489494 0.708884 -0.224770
0.491475 0.709237 -0.224021
0.477204 -0.699538 0.227597
0.462670 -0.239297 0.704737
0.435620 0.226486 0.225582
-0.483074 0.709700 -0.249216
-0.482656 -0.263627 0.703448
0.477824 -0.699331 0.228570
0.461219 0.248368 -0.705840
0.463484 -0.238336 0.704803
-0.484357 -0.261971 0.702408
-0.483950 -0.263207 0.700834
0.011709 -0.729082 0.684671
0.022991 0.735965 0.260977
-0.029415 0.690911 -0.695679
0.490946 0.709605 -0.224248
-0.010696 -0.236224 -0.724795
0.435353 0.225892 0.228481
-0.011825 -0.235172 -0.724373
0.462765 0.248609 -0.705510
0.464807 -0.240671 0.706036
-0.483353 0.710774 -0.250301
-0.029792 0.691012 -0.695280
0.461852 -0.239218 0.706838
-0.010958 -0.236697 -0.725900
0.011996 -0.730869 0.684868
0.477513 -0.700327 0.228593
-0.011549 -0.235856 -0.724078
0.489471 0.710187 -0.224647
-0.439631 -0.235033 -0.203845
0.461549 0.249962 -0.707964
0.452845 -0.217020 -0.230382
0.477920 -0.701487 0.228011
-0.010712 -0.235144 -0.727509
-0.486487 -0.262775 0.703351
-0.440918 -0.236256 -0.203419
0.451153 -0.218960 -0.230219
-0.010521 -0.232986 -0.725331
-0.483243 0.710944 -0.251625
-0.482148 0.708609 -0.250759
0.461895 0.248960 -0.704402
0.490228 0.709548 -0.222105
-0.479667 0.710234 -0.252741
0.012128 -0.705617 -0.237421
-0.438200 0.248220 0.226612
-0.481216 0.709114 -0.250427
-0.029911 0.692138 -0.695376
0.024506 0.737500 0.260377
0.435033 0.227494 0.225650
0.462922 0.250707 -0.703668
-0.438977 0.248281 0.224480
-0.474733 0.261271 -0.731129
0.452834 -0.216021 -0.228686
0.010080 -0.704544 -0.241662
0.465391 -0.240413 0.706157
0.478079 -0.700160 0.228451
0.476172 -0.700809 0.228174
0.451902 -0.215193 -0.227385
0.023414 0.736877 0.263083
0.013417 -0.727989 0.684965
-0.006881 0.243148 0.722182
0.452206 -0.219154 -0.228343
-0.482963 0.710026 -0.248959
-0.482492 0.709679 -0.247840
0.452692 -0.217643 -0.229741
-0.026513 0.693752 -0.695577
0.461545 0.248991 -0.706023
-0.482296 0.710062 -0.252094
-0.437640 0.249570 0.226582
0.451850 -0.216398 -0.231246
0.464931 0.249389 -0.706031
-0.438494 -0.235654 -0.203566
-0.473952 0.261173 -0.729586
-0.440601 -0.236334 -0.203815
-0.438366 0.249182 0.225618
0.462147 0.250673 -0.706438
0.477900 -0.699903 0.229056
-0.438779 -0.236287 -0.204087
-0.473425 0.259408 -0.729639
-0.475678 0.261452 -0.730525
-0.480848 0.708820 -0.250084
0.024631 0.737988 0.260668
0.488069 0.709214 -0.222096
0.489733 0.710001 -0.224530
-0.007729 0.244314 0.720547
-0.474135 0.261555 -0.732627
-0.439784 -0.235848 -0.202572
-0.437884 0.249473 0.225240
0.464774 -0.239876 0.706182
0.462213 0.250594 -0.704449
0.012082 -0.728515 0.684476
-0.474643 0.262418 -0.732051
0.465189 -0.240407 0.706591
0.011626 -0.729501 0.684825
-0.484361 -0.265001 0.703254
0.023248 0.737613 0.261364
-0.008234 0.243489 0.720469
-0.461242 -0.751182 0.248215
0.490805 0.708674 -0.223595
-0.462846 -0.748390 0.249049
-0.441010 -0.237096 -0.203201
0.463709 -0.240335 0.706946
0.451170 -0.217199 -0.230020
0.459626 0.248974 -0.708430
0.452570 -0.218114 -0.227747
0.453601 -0.217480 -0.230748
0.462325 -0.240071 0.706388
-0.479741 0.708133 -0.250699
-0.008201 0.241697 0.722526
-0.484294 -0.261245 0.703846
0.434938 0.226193 0.225659
0.013908 -0.706168 -0.236550
-0.011383 -0.234718 -0.725214
-0.439892 -0.235996 -0.204463
-0.480025 0.710269 -0.250334
0.012797 -0.729261 0.684748
0.475324 -0.701469 0.228641
0.435282 0.223616 0.225111
0.014626 -0.704567 -0.237420
-0.011271 -0.236405 -0.725298
0.013251 -0.730462 0.683013
-0.475461 0.260701 -0.731779
