OFF
256 0 0
0.368488 -0.692417 -0.355776
0.028623 0.004767 0.658328
-0.677494 0.339043 -0.297030
0.334175 0.314221 -0.656041
-0.702195 -0.006503 -0.008624
-0.323584 0.348255 0.688551
0.680217 -0.007472 -0.686445
0.692258 -0.004901 0.691404
-0.354482 -0.343874 -0.662279
-0.331359 0.692059 0.355117
0.682517 -0.696534 -0.004000
-0.649714 -0.321650 0.328489
-0.650100 -0.323024 0.329309
-0.000413 -0.687104 0.015397
0.371466 -0.692565 -0.355396
-0.011397 -0.005420 -0.673689
0.000123 -0.685469 0.016326
-0.683705 0.316429 0.351031
-0.328384 -0.325416 0.692688
-0.323614 0.347519 0.687075
-0.678724 0.338355 -0.297494
-0.016041 0.678116 -0.664260
-0.347458 0.322829 -0.656188
-0.687842 0.671842 0.022386
0.688542 -0.000322 0.023088
0.336449 0.336677 0.703180
-0.017183 0.656611 0.009109
0.332571 0.312128 -0.654546
0.691231 -0.004264 0.690846
0.679781 -0.004436 -0.685876
0.706152 0.322492 0.348490
0.356873 0.646895 0.351031
-0.652281 0.008434 0.707555
0.337484 0.337158 0.702264
0.683375 -0.695611 -0.003224
-0.000316 -0.687628 0.015226
-0.017347 -0.345376 0.360841
0.681631 -0.696289 -0.004600
0.337901 0.336997 0.703555
0.330852 -0.677124 0.350353
0.038654 0.686223 0.697649
0.358875 0.647050 0.350403
-0.000069 -0.684795 0.015517
0.346249 -0.363526 0.693457
-0.000451 -0.703983 -0.693235
0.038394 0.685747 0.695400
0.029920 0.003733 0.660412
0.356921 0.646096 0.348476
0.330063 -0.677168 0.349813
-0.349879 -0.694340 -0.350239
0.690655 -0.006926 0.692379
0.670117 0.645475 0.006347
-0.332138 0.693310 0.355395
0.036818 0.686366 0.694899
-0.349020 0.322213 -0.654143
-0.651331 0.008758 0.704707
-0.654539 0.006388 0.705466
-0.017750 0.656482 0.008132
-0.348375 0.322168 -0.655371
-0.322617 0.347146 0.686211
-0.707026 -0.704131 0.004673
-0.353900 -0.344268 -0.661533
0.690622 -0.006011 0.690196
0.679056 -0.004382 -0.686095
-0.681896 0.317282 0.351333
0.347061 -0.361736 0.694021
-0.001325 -0.684321 0.015950
0.370688 -0.692269 -0.354152
-0.000931 -0.703969 -0.693387
-0.354327 -0.342194 -0.663879
-0.648173 -0.324978 0.329186
0.683625 -0.694187 -0.004620
0.336458 0.336324 0.701712
0.355994 0.647923 0.350009
0.667453 -0.342817 -0.347258
0.667515 -0.344828 -0.349275
0.690794 0.318022 -0.343775
-0.015470 -0.344672 0.360758
0.035583 0.685614 0.695620
-0.698988 -0.025570 -0.670685
0.667805 -0.343190 -0.348144
-0.016240 0.678715 -0.667033
0.671538 0.646029 0.006930
0.355207 0.647377 0.349487
-0.678047 0.339036 -0.296219
-0.016197 -0.345252 0.360419
-0.333139 0.691669 0.353730
-0.327723 -0.325515 0.696230
0.332244 0.313806 -0.654305
-0.003647 -0.704605 -0.692335
-0.694315 -0.365889 -0.320629
0.689378 -0.002308 0.023496
0.668240 -0.343324 -0.346821
0.332742 0.312745 -0.654266
-0.678202 0.340133 -0.298133
0.327263 -0.675196 0.347641
-0.019402 0.655988 0.010046
-0.652273 0.008937 0.706122
-0.340263 -0.658702 0.354791
-0.331421 0.692306 0.356592
-0.698138 -0.027822 -0.670236
0.311159 0.670125 -0.342191
0.332691 0.313061 -0.654646
0.706036 0.320052 0.349179
0.311939 0.668703 -0.341413
0.669210 0.645090 0.004963
-0.341257 -0.659381 0.353617
-0.324289 0.346097 0.686817
0.332986 0.313258 -0.652981
0.691745 -0.004989 0.690186
-0.699115 -0.028403 -0.670984
0.311833 0.668336 -0.341707
-0.018130 0.654839 0.010859
-0.683867 0.317802 0.351260
-0.709231 -0.706439 0.004448
0.681889 -0.696081 -0.005438
-0.017584 -0.345798 0.362788
0.337137 0.337348 0.701577
0.694002 -0.005764 0.691607
0.346361 -0.362695 0.694202
-0.009336 -0.004908 -0.672548
-0.364330 0.681238 -0.328392
0.680695 -0.696111 -0.003150
-0.353165 -0.342425 -0.663950
-0.699436 -0.023925 -0.671007
0.364676 -0.344757 -0.702838
0.688831 0.320143 -0.345894
-0.329789 -0.324398 0.694881
-0.651106 0.008408 0.705701
-0.708697 -0.705974 0.003855
0.691079 0.319382 -0.346337
-0.000426 -0.686199 0.016751
0.667149 -0.343072 -0.349180
0.669190 -0.342369 -0.347560
0.705690 0.320682 0.347214
-0.709180 -0.706532 0.004524
-0.341680 -0.659096 0.355002
-0.700615 -0.028110 -0.671771
0.689278 0.319249 -0.345795
-0.688706 0.670659 0.020698
-0.330036 -0.328476 0.694066
-0.010618 -0.004306 -0.673666
0.689811 0.318107 -0.345731
0.680750 -0.003169 -0.685390
-0.328216 -0.326541 0.695480
0.667324 -0.339774 -0.348142
-0.333380 0.694090 0.356087
-0.353904 -0.344445 -0.664231
0.373448 -0.690924 -0.356517
-0.351330 -0.695556 -0.350934
-0.700688 -0.027325 -0.671738
0.327441 -0.677908 0.349720
-0.653767 0.007559 0.706576
-0.339534 -0.659761 0.356404
0.688766 -0.001827 0.021396
0.349005 -0.363293 0.692333
0.028917 0.004692 0.659498
-0.652389 0.008337 0.707682
-0.677097 0.339838 -0.297884
-0.707329 -0.706824 0.005120
-0.353748 -0.344680 -0.663039
0.365835 -0.343673 -0.701947
-0.677898 0.339336 -0.296459
0.693740 -0.005437 0.688627
0.331165 0.313130 -0.654161
-0.324056 0.347180 0.687773
0.705782 0.320986 0.348968
-0.683031 0.317748 0.351879
-0.000279 -0.703427 -0.694083
0.328234 -0.677200 0.349096
0.706926 0.320343 0.348082
-0.364289 0.682156 -0.326428
-0.016276 -0.343793 0.360605
-0.010313 -0.005318 -0.674530
-0.699102 -0.027289 -0.671491
0.310183 0.668980 -0.340163
0.671430 0.646633 0.004563
-0.010229 -0.004148 -0.672933
-0.348271 0.320320 -0.655836
-0.699729 -0.025750 -0.671286
-0.010644 -0.005087 -0.670627
-0.687630 0.671165 0.021116
0.670137 0.645151 0.008216
0.664489 -0.335288 0.356184
0.670344 0.646711 0.006024
0.667802 0.644563 0.006207
-0.340539 -0.659980 0.353597
-0.696493 -0.364966 -0.322864
-0.694218 -0.366023 -0.321665
0.370526 -0.692575 -0.354740
0.333076 0.314982 -0.654690
0.680636 -0.004958 -0.687315
-0.333649 0.690958 0.354278
0.690974 0.320520 -0.347501
0.311509 0.669807 -0.340390
-0.351400 -0.696275 -0.350047
0.365455 -0.344107 -0.703362
-0.332091 0.693367 0.354947
-0.652169 0.006994 0.705109
0.364866 -0.345153 -0.702881
0.684369 -0.696235 -0.004476
-0.000816 -0.702834 -0.692407
-0.016085 0.678647 -0.667082
0.329309 -0.675310 0.348800
0.688805 0.318618 -0.347539
0.666733 -0.342956 -0.350765
0.338800 0.335654 0.702769
-0.684850 0.317211 0.350768
0.663998 -0.334479 0.354793
-0.687170 0.671714 0.021925
0.346820 -0.362614 0.693359
-0.019367 0.655791 0.011289
-0.365697 0.682247 -0.330602
0.679455 -0.005168 -0.686140
0.688662 0.000706 0.022278
-0.694789 -0.366929 -0.323160
-0.000336 -0.687332 0.014079
-0.650320 -0.320267 0.329909
-0.648217 -0.320086 0.328662
-0.324831 0.346220 0.685660
0.311675 0.670248 -0.342611
-0.697324 -0.025577 -0.671389
0.036510 0.686489 0.696145
0.332506 0.311803 -0.653716
-0.349742 0.323467 -0.657411
-0.366127 0.682602 -0.329943
0.037328 0.684151 0.697044
-0.686310 0.671885 0.021466
-0.016005 0.677260 -0.665231
0.663072 -0.335921 0.355103
-0.681649 0.316990 0.352323
-0.347565 0.323605 -0.656048
-0.694881 -0.366588 -0.322265
-0.325956 0.347179 0.685502
-0.653270 0.008376 0.706255
0.688954 0.318357 -0.346626
0.665865 -0.341986 -0.350053
-0.347614 0.324582 -0.656601
-0.352162 -0.345374 -0.663116
-0.687580 0.670424 0.021026
0.348628 -0.364086 0.693472
-0.011897 -0.005469 -0.673760
-0.698593 -0.027190 -0.672033
0.682666 -0.697410 -0.004280
-0.015813 -0.344272 0.359909
0.690423 0.318568 -0.344112
-0.648188 -0.322926 0.330523
0.689389 0.318935 -0.346639
-0.010293 -0.004468 -0.673072
-0.708266 -0.706795 0.003210
-0.330016 -0.328884 0.692194
-0.332311 0.692627 0.355936
0.666733 -0.341479 -0.348183
0.366217 -0.344796 -0.700929
-0.000811 -0.687304 0.015173
-0.363919 0.681967 -0.329125
