OFF
256 0 0
-0.687926 -0.713402 -0.003236
-0.345728 -0.369376 0.679792
-0.001529 -0.693488 -0.684190
-0.320222 0.335013 -0.665536
0.686138 0.670221 -0.010660
0.685305 -0.367598 -0.332878
-0.344446 -0.687214 -0.327846
0.006504 0.687501 -0.675951
-0.350178 0.697732 0.350273
0.678236 -0.708065 0.003629
0.344019 -0.356158 -0.682295
0.681378 -0.706572 0.002924
0.006283 0.686802 -0.674536
0.672824 -0.333424 0.334090
0.007602 0.688360 -0.675856
0.016422 0.012867 0.693023
-0.010296 0.647049 0.024712
0.348598 -0.338965 0.708365
0.007250 0.689152 -0.674488
0.017679 0.014727 0.692159
0.686387 0.669213 -0.011933
-0.687780 -0.713770 -0.004789
-0.013519 -0.038293 -0.668606
-0.350683 0.694754 0.348816
0.345461 -0.355854 -0.684282
-0.348758 0.696342 0.352310
-0.680320 0.324846 0.340810
0.334177 0.317902 -0.683167
0.328807 -0.695646 0.352544
0.707368 0.001370 -0.001189
-0.668265 -0.022680 -0.677903
-0.688421 -0.712489 -0.003354
-0.352869 -0.370370 -0.678219
-0.688872 0.693247 -0.010042
0.341810 -0.355025 -0.681646
0.701171 0.358357 0.352911
-0.694318 -0.001199 0.720550
0.684946 -0.367625 -0.331314
0.019069 -0.342506 0.362467
-0.350268 0.696665 0.350777
-0.688206 0.693623 -0.010815
0.678986 -0.706364 0.003641
-0.319818 0.332487 -0.665644
-0.345123 -0.370064 0.680207
0.671498 -0.332128 0.334933
0.017413 0.675426 0.678992
0.348120 -0.338562 0.711517
-0.354624 -0.371445 -0.679883
0.684863 -0.368800 -0.330259
0.656053 0.328842 -0.334304
0.672358 -0.332959 0.334584
0.000113 -0.693401 -0.683191
0.001375 -0.679857 -0.003760
-0.354234 -0.371408 -0.680042
0.020856 -0.341876 0.362649
0.007640 0.687864 -0.674915
-0.711661 -0.355535 -0.325629
0.349711 -0.340023 0.708642
0.693781 -0.007927 -0.656783
0.707687 0.000750 -0.003659
-0.688230 0.693149 -0.011793
-0.008992 0.647314 0.026828
-0.345011 -0.687604 -0.327862
-0.702553 -0.018704 0.007006
0.708364 0.001381 -0.000742
-0.320507 0.334148 -0.665965
-0.678863 0.324614 0.341982
-0.685909 0.331379 -0.340242
0.001271 -0.680872 -0.001909
0.018301 0.013460 0.691529
-0.344551 -0.369242 0.678685
-0.352357 -0.372998 -0.680240
0.689489 0.003109 0.714450
0.670046 -0.330845 0.334693
0.339606 0.679463 0.313307
-0.686166 0.329569 -0.340889
0.700666 0.358306 0.351046
-0.666771 -0.019533 -0.677263
0.327268 -0.695630 0.352679
0.679970 -0.705219 0.006467
0.327861 -0.695793 0.352266
0.345196 -0.356609 -0.681775
0.326876 -0.694998 0.353372
0.700023 0.357794 0.352671
-0.345947 -0.686831 -0.328640
0.347269 -0.340589 0.707711
-0.321382 0.332530 -0.666352
-0.668885 -0.020808 -0.678954
-0.326612 0.667768 -0.305788
-0.354589 -0.372029 -0.679467
0.701533 0.357714 0.352098
0.700306 0.357841 0.352808
0.692856 -0.006926 -0.657200
-0.322590 0.333091 -0.666869
-0.344140 -0.369020 0.677823
0.342652 -0.686128 -0.346854
0.656784 0.328426 -0.335343
0.679491 -0.704582 0.002837
0.685572 -0.368651 -0.331695
-0.009943 0.646344 0.024005
-0.349168 0.696604 0.351625
-0.344910 -0.369498 0.678743
0.348748 -0.339312 0.709219
0.318834 0.703767 -0.309449
0.319537 0.705744 -0.308718
-0.691728 -0.000703 0.722544
-0.682006 0.323584 0.342609
-0.336391 -0.697804 0.327223
-0.347036 0.697072 0.353368
0.006091 0.686884 -0.676097
0.684821 -0.368186 -0.333070
0.340716 -0.685985 -0.346559
-0.348993 0.696371 0.352710
-0.346198 -0.690514 -0.328308
-0.344154 0.341491 0.696951
-0.688087 -0.715652 -0.004544
0.331916 0.318450 -0.684461
0.334571 0.319223 -0.683799
0.016897 0.675517 0.682225
0.342175 -0.685841 -0.350477
-0.686350 -0.338138 0.364236
0.687604 0.668692 -0.011023
0.007724 0.688062 -0.675456
-0.344407 0.342301 0.695580
-0.681171 0.324048 0.341649
-0.009563 0.647496 0.025350
-0.345947 -0.688929 -0.328875
0.333364 0.318988 -0.684399
0.684547 -0.368683 -0.332050
0.325933 -0.698373 0.351921
0.018677 0.674609 0.680888
-0.352560 -0.370794 -0.680472
0.342358 -0.687507 -0.348593
-0.326538 0.666565 -0.307587
0.007510 0.686827 -0.676364
0.348435 -0.340089 0.709585
-0.009123 0.646144 0.026108
0.000706 -0.680726 -0.003252
0.349229 -0.339067 0.710561
-0.688169 -0.713800 -0.004994
0.008286 0.688129 -0.674522
-0.345610 -0.368811 0.677581
0.699787 0.357321 0.355695
-0.703408 -0.019282 0.007968
-0.704675 -0.019898 0.010037
0.005734 0.687002 -0.674419
-0.348754 0.696558 0.350326
-0.325505 0.666360 -0.307878
0.345057 -0.357819 -0.680657
-0.354005 -0.372959 -0.677298
-0.338478 -0.696094 0.329373
0.707330 0.002582 -0.002792
0.342009 0.680173 0.312061
-0.355569 -0.370953 -0.678277
-0.008250 0.648932 0.023674
-0.686561 -0.716510 -0.004768
-0.326869 0.666198 -0.307944
0.019498 -0.341110 0.363631
0.325685 -0.695693 0.352660
-0.681282 0.323881 0.340530
0.018115 0.675913 0.683152
0.656909 0.328683 -0.335122
0.708016 0.001831 -0.002622
-0.345918 -0.689179 -0.328913
0.708589 0.001873 -0.002564
0.019485 0.675910 0.679360
0.344065 -0.355404 -0.681844
0.688112 0.003627 0.715113
-0.014606 -0.037548 -0.667359
0.349889 -0.341557 0.710355
-0.335365 -0.695741 0.327738
0.327189 -0.694714 0.353204
-0.666785 -0.021943 -0.678350
0.326349 -0.694491 0.352904
-0.666051 -0.022158 -0.678398
-0.704035 -0.019562 0.008723
-0.684390 0.329943 -0.341660
0.006246 0.684639 -0.675084
0.706380 0.002128 -0.002395
-0.001698 -0.693734 -0.683899
0.340688 -0.686178 -0.348674
0.685941 -0.369015 -0.331575
-0.344398 0.342978 0.698194
-0.685235 0.332242 -0.339875
-0.002063 -0.694670 -0.683831
-0.685082 0.330993 -0.339465
0.656094 0.328618 -0.335650
0.325931 -0.697268 0.352121
0.342973 -0.355744 -0.682550
0.687109 0.003007 0.713562
0.340138 0.677724 0.310486
0.007470 0.686747 -0.674627
0.019480 -0.340871 0.362588
0.017782 -0.341634 0.361900
-0.687659 -0.714456 -0.004335
0.688974 0.005090 0.715866
0.348502 -0.340249 0.710840
0.671127 -0.332024 0.335680
0.000347 -0.681595 -0.004023
0.699610 0.357346 0.352977
0.700767 0.357368 0.354764
0.670058 -0.331311 0.336445
-0.681486 0.326518 0.341046
0.325819 -0.697238 0.352324
-0.345502 -0.367941 0.677296
0.349718 -0.340664 0.709790
0.694725 -0.006659 -0.654921
0.005967 0.687149 -0.676531
-0.008539 0.648270 0.024844
0.705953 0.002034 -0.002218
0.699767 0.357324 0.354499
-0.685282 0.330753 -0.340127
0.018030 0.674547 0.681336
0.684623 -0.367593 -0.333118
-0.687014 0.692991 -0.010947
-0.690690 0.692463 -0.010434
-0.353034 -0.371239 -0.680872
-0.679224 0.324791 0.343031
0.333224 0.317971 -0.682242
-0.335226 -0.695443 0.327653
0.654569 0.328536 -0.335206
0.340938 -0.685502 -0.348836
-0.321951 0.334057 -0.666735
0.684112 -0.365541 -0.332087
-0.008806 0.647458 0.025304
0.683547 -0.367429 -0.332098
-0.009492 0.648441 0.025230
0.657555 0.330099 -0.333800
-0.320634 0.331456 -0.667841
-0.704744 -0.018770 0.010516
0.657560 0.326770 -0.335601
-0.345117 -0.690549 -0.328762
-0.008665 0.647922 0.025337
0.348567 -0.337976 0.710603
0.344152 -0.356690 -0.681830
0.345519 -0.356315 -0.682868
0.017184 0.014928 0.693002
-0.000789 -0.682838 -0.002894
-0.679099 0.324413 0.340571
-0.346318 -0.369441 0.677513
-0.687290 -0.339988 0.364588
0.018604 -0.342359 0.362709
-0.354058 -0.373878 -0.678165
-0.667110 -0.020575 -0.678211
-0.686453 -0.339462 0.367381
0.326428 -0.695300 0.351716
-0.349091 0.696579 0.351419
-0.694231 0.000623 0.721747
-0.000242 -0.695070 -0.684704
-0.008371 0.648722 0.024510
-0.000809 -0.681018 -0.002702
0.021221 -0.343461 0.362754
0.678952 -0.706648 0.006069
-0.344547 0.342678 0.696101
-0.344539 0.343242 0.697237
-0.681150 0.324029 0.340942
