OFF
256 0 0
-0.353423 0.338066 -0.686158
0.360697 0.675959 -0.351167
0.681776 -0.683891 0.007849
-0.354309 0.337668 -0.687021
-0.677365 0.331425 0.339468
0.008720 0.673187 -0.681136
-0.710198 -0.703540 0.004431
0.347564 -0.698763 0.325179
0.003885 -0.341817 0.344714
0.343526 -0.340010 0.701976
0.010056 0.673289 -0.681422
-0.709705 -0.705218 0.005102
0.679323 -0.023317 -0.674814
-0.346877 0.672491 0.346192
-0.345308 -0.708059 -0.303627
0.349392 0.674970 0.332701
0.352045 0.311387 -0.687907
0.345963 -0.341185 0.704713
0.007014 -0.694896 -0.666203
-0.011182 0.685180 0.667987
0.348419 -0.349157 -0.685998
-0.344857 0.355186 0.693002
0.347092 -0.349249 -0.686648
0.007345 -0.670108 0.003474
0.674209 -0.000187 0.049944
0.348884 0.674790 0.330870
0.678349 -0.024248 -0.676034
0.005888 -0.670222 0.003561
0.350122 0.676670 0.331343
0.335611 0.348723 0.689860
-0.673347 -0.362340 -0.333415
0.707305 0.341413 0.346585
-0.360720 -0.369926 0.697143
0.003088 0.671581 0.007349
-0.674794 -0.361892 -0.332434
0.346372 -0.684822 -0.319882
0.692031 -0.006677 0.721928
-0.696167 0.349613 -0.330348
0.691266 -0.008576 0.720605
0.692751 -0.006094 0.721496
-0.698307 0.683983 0.002283
-0.675762 -0.325071 0.332789
0.352397 0.313253 -0.687966
0.337493 0.348384 0.691415
0.343978 -0.339343 0.702638
0.346802 -0.350587 -0.687328
-0.344923 -0.713465 -0.304431
-0.710981 -0.705131 0.003030
-0.346569 0.672729 0.342950
0.677471 -0.336804 0.370564
-0.344847 0.672497 0.342849
-0.676172 -0.325256 0.335103
-0.676823 0.331882 0.339825
-0.356111 -0.379194 -0.669072
-0.690518 0.002202 0.004596
-0.345380 -0.709598 -0.306636
-0.354111 0.338972 -0.686053
-0.360957 -0.368119 0.695440
-0.694133 0.349417 -0.330435
-0.709047 -0.702952 0.005649
-0.328840 0.665168 -0.332140
0.696746 0.327294 -0.309775
-0.676188 0.330402 0.339430
-0.698726 0.685503 0.002785
0.343378 -0.340610 0.702331
0.349669 0.674374 0.333057
-0.033180 -0.008411 0.705702
0.006721 0.674208 -0.682055
-0.012161 0.685335 0.668321
-0.328959 0.664398 -0.333021
0.008470 0.672539 -0.681252
0.351960 0.313804 -0.687714
-0.354801 -0.379917 -0.669452
-0.693120 0.000682 0.003929
0.679409 -0.024502 -0.676633
0.679625 -0.024735 -0.674451
-0.709543 -0.702792 0.004367
-0.686282 -0.015920 0.690433
-0.329792 0.664529 -0.332680
-0.003093 -0.015420 -0.709857
0.682074 -0.350059 -0.302504
-0.353869 0.337705 -0.685777
-0.694830 0.348905 -0.330834
0.680998 -0.682952 0.010682
0.680456 -0.684625 0.009526
-0.673441 -0.363016 -0.332256
-0.357990 -0.367875 0.697119
0.343541 -0.685268 -0.318398
-0.003428 -0.016159 -0.710891
0.007539 0.673216 -0.679839
-0.003757 -0.014997 -0.709867
0.682624 -0.352172 -0.304712
-0.676533 -0.360816 -0.331753
0.347453 -0.349290 -0.687517
0.691815 -0.007204 0.721053
0.693860 -0.006472 0.720824
-0.360411 -0.367617 0.697856
-0.003054 -0.013452 -0.710770
-0.346243 0.672274 0.340951
-0.669577 -0.028086 -0.672924
-0.343818 -0.710185 -0.306356
0.361398 0.675498 -0.352457
0.678237 -0.024548 -0.675471
-0.676373 0.331446 0.337901
-0.346031 0.671792 0.342647
0.003096 0.671089 0.007014
-0.670171 -0.026589 -0.674479
0.350103 -0.348073 -0.685485
0.680618 -0.682801 0.011394
-0.701064 0.685687 0.004701
-0.698389 0.684762 0.003556
0.681469 -0.684256 0.008265
0.008217 0.673416 -0.681703
-0.343843 -0.712184 -0.306171
-0.677076 0.331407 0.339072
0.678317 -0.336831 0.370291
-0.002632 -0.015699 -0.710553
0.006387 -0.342524 0.346704
0.696823 0.328516 -0.310904
0.677779 -0.024151 -0.673875
-0.010953 0.686395 0.669074
0.691569 -0.006150 0.721844
0.679051 -0.024323 -0.675617
-0.353006 0.336839 -0.684595
0.005412 -0.692444 -0.665206
-0.709014 -0.704756 0.004057
0.362760 0.675701 -0.354665
-0.356104 -0.381257 -0.669420
0.691771 0.663895 0.009982
0.006687 -0.693206 -0.665356
0.681746 -0.684200 0.009343
-0.352855 0.337624 -0.684670
-0.669085 -0.028308 -0.671859
0.349214 -0.698900 0.326569
-0.685731 -0.016860 0.692306
-0.345044 0.356273 0.692600
-0.669837 -0.026580 -0.672600
0.691051 0.664173 0.010391
-0.692029 0.000891 0.004913
-0.001565 -0.014401 -0.710167
-0.003574 -0.015767 -0.709165
0.691585 -0.005169 0.721800
-0.712225 -0.701831 0.004693
0.349524 -0.350354 -0.686933
-0.698251 0.683406 0.004133
0.679431 -0.334485 0.368048
0.006886 -0.669280 0.005353
-0.339165 -0.680060 0.326371
0.682843 -0.680932 0.011355
0.361416 0.676285 -0.354012
0.342557 -0.338904 0.702644
0.006401 -0.692677 -0.665986
-0.345711 -0.709508 -0.305664
-0.343497 0.356050 0.694324
-0.358633 -0.366388 0.696976
0.343280 -0.341340 0.700702
0.344533 -0.684388 -0.321719
0.674462 -0.001255 0.051143
0.004761 -0.341935 0.344759
0.348400 -0.697310 0.325380
-0.348071 0.354725 0.693181
-0.329047 0.665864 -0.332748
-0.358690 -0.368703 0.696818
-0.677188 -0.361694 -0.332861
-0.674621 -0.360921 -0.333212
0.691569 -0.007783 0.721725
-0.674085 -0.325642 0.332003
0.005289 -0.342664 0.345188
-0.355551 -0.381317 -0.667543
0.348419 -0.348146 -0.687977
0.343727 -0.686233 -0.320810
-0.673551 -0.326394 0.332040
0.335601 0.351264 0.690378
-0.329387 0.665229 -0.332659
0.697411 0.328063 -0.310769
-0.698641 0.683812 0.002640
0.001899 0.671641 0.006838
-0.035016 -0.007531 0.705462
0.692430 -0.006136 0.721879
0.005223 -0.692264 -0.666159
0.674050 0.001233 0.049899
0.682558 -0.350685 -0.304784
0.360086 0.675738 -0.352542
0.005463 -0.693599 -0.667188
-0.340518 -0.679209 0.327534
-0.355836 -0.379720 -0.669336
0.709132 0.340703 0.348632
-0.327795 0.664638 -0.334487
0.695273 -0.005316 0.722625
0.697504 0.329041 -0.310277
0.340872 -0.341685 0.702849
0.348445 0.675224 0.332624
-0.012523 0.684580 0.668651
0.008989 -0.668003 0.005183
0.678846 -0.023538 -0.673112
-0.033479 -0.007166 0.707463
0.008433 0.672908 -0.680891
-0.341648 -0.678911 0.326361
0.348783 0.674006 0.332333
0.691034 0.662188 0.010683
-0.687210 -0.018119 0.690989
-0.711289 -0.703601 0.003866
0.346714 -0.683184 -0.319839
0.682058 -0.683548 0.010117
-0.345040 0.355416 0.693873
-0.343113 -0.711502 -0.306066
0.678359 -0.336501 0.371212
-0.034249 -0.007940 0.705886
0.349812 0.675481 0.332207
-0.669350 -0.027707 -0.674333
0.005854 -0.667405 0.003640
-0.689790 0.002412 0.004513
0.708536 0.342504 0.348717
0.336995 0.350024 0.690077
-0.697495 0.684405 0.003921
-0.692928 0.350210 -0.332026
0.336127 0.348817 0.691394
0.003034 0.672345 0.006718
-0.338865 -0.679774 0.327889
0.007076 -0.693905 -0.664557
0.336150 0.350902 0.691532
-0.348204 0.355295 0.693605
-0.330925 0.665302 -0.333512
0.006366 -0.693267 -0.664780
-0.711662 -0.703204 0.004460
0.707797 0.342471 0.347801
-0.675482 -0.325339 0.332700
0.693263 0.661573 0.010098
-0.674597 -0.364083 -0.332213
-0.354576 -0.379590 -0.669390
-0.345452 -0.710813 -0.306761
0.347729 -0.348829 -0.685694
0.362065 0.675579 -0.353242
0.679045 -0.024309 -0.674720
0.679079 -0.026216 -0.675156
0.003265 0.671061 0.007932
0.008678 0.673505 -0.681882
-0.343599 -0.709634 -0.305390
-0.360060 -0.368199 0.696285
-0.011656 0.683926 0.668440
-0.361428 -0.368071 0.697495
0.346075 -0.349007 -0.688552
-0.696332 0.351403 -0.329948
0.692836 -0.004958 0.720641
-0.700777 0.684468 0.003673
0.680660 -0.349684 -0.304577
-0.344857 -0.710920 -0.305473
0.677364 -0.000670 0.050972
-0.345357 -0.711604 -0.306619
-0.009982 0.685516 0.668858
0.362666 0.674501 -0.350964
-0.675923 -0.325555 0.333053
-0.710901 -0.704364 0.004303
-0.344118 -0.709916 -0.305422
0.680643 -0.682352 0.011221
0.676620 -0.001557 0.049469
