OFF
256 0 0
0.045619 0.019095 0.669597
-0.284645 -0.655778 -0.371075
0.402986 -0.666334 -0.350705
0.065439 0.035170 -0.701207
0.052814 0.711104 -0.019962
0.419305 0.711491 -0.330261
0.397885 0.372316 0.673609
-0.289030 -0.662915 0.337038
0.766725 0.024839 0.002256
-0.298649 0.366318 -0.696415
0.405590 -0.665410 -0.348188
-0.647421 -0.317298 -0.337548
0.064194 -0.648227 -0.709702
0.045839 0.018793 0.669305
0.063921 0.037091 -0.700898
-0.629568 0.015494 -0.691137
0.411700 0.037432 -0.324759
0.387868 -0.315612 0.690797
-0.284503 -0.656483 -0.369194
-0.604164 0.025862 0.029791
0.414401 -0.315544 -0.683970
0.405021 -0.665296 -0.347538
0.065512 0.035483 -0.701651
0.387913 0.375817 -0.681822
-0.621557 0.339735 -0.343240
0.750634 -0.303580 -0.363267
-0.288604 0.715120 -0.358976
0.072326 0.707235 0.685686
0.409060 0.715228 0.339833
-0.284086 -0.654690 -0.370952
0.388883 0.375773 -0.682844
-0.289025 -0.663349 0.336671
0.043544 0.018106 0.670956
0.747916 -0.318488 0.347349
-0.621520 0.337926 -0.343541
0.752964 -0.303493 -0.363402
-0.622971 0.338930 -0.342302
-0.623067 0.009977 0.718352
-0.297289 0.367721 -0.696673
0.061096 -0.650503 -0.711214
-0.603829 0.024004 0.031878
-0.270832 0.725918 0.351591
0.419177 0.714952 -0.330832
0.065684 0.035631 -0.700655
0.052908 -0.651748 -0.018660
0.397192 0.371419 0.675075
-0.608126 -0.311059 0.359512
0.408762 -0.016857 0.340730
-0.603127 0.024852 0.029883
-0.610180 -0.309683 0.357744
0.418422 0.711491 -0.331621
-0.628496 0.015968 -0.692898
-0.629422 0.013946 -0.691935
-0.624484 -0.670592 0.002552
-0.630072 0.015931 -0.694141
0.384513 -0.653121 0.344509
-0.297209 0.366734 -0.699737
0.747598 -0.319731 0.351420
0.388893 0.375064 -0.683504
0.738226 -0.671878 0.005509
-0.276854 -0.289773 -0.707980
-0.297407 0.367029 -0.698179
-0.608976 -0.308926 0.358417
0.058204 0.722062 -0.688549
-0.609828 -0.310646 0.359123
0.389063 0.378761 -0.683733
0.389780 0.376595 -0.684147
0.408809 0.036769 -0.325284
-0.604330 0.024830 0.029984
0.764132 0.026808 0.001063
-0.623958 -0.670195 0.002144
-0.295868 0.367367 -0.697476
0.062754 -0.668220 0.690799
0.404332 -0.665469 -0.348688
0.051785 0.709682 -0.019960
0.407012 -0.016380 0.341655
0.414636 -0.314332 -0.684085
0.388558 -0.314902 0.690401
-0.269798 -0.337933 0.697578
0.748242 -0.320484 0.348752
0.050908 -0.652126 -0.019181
-0.622738 0.341329 -0.343741
-0.289101 0.714762 -0.357041
0.749189 -0.320426 0.349351
0.408258 -0.016008 0.343000
0.737357 -0.671249 0.005103
0.073425 0.703919 0.685476
0.063101 -0.650195 -0.710113
0.063925 -0.665349 0.690825
0.065512 0.035881 -0.701818
-0.646654 -0.319650 -0.339454
0.385435 -0.316238 0.690450
0.388608 -0.313543 0.691201
-0.287628 0.713278 -0.358814
-0.269900 0.724657 0.349882
-0.278612 -0.291549 -0.708082
0.767429 0.027164 0.003033
-0.296343 0.367094 -0.697309
0.408470 -0.016101 0.339856
-0.632817 0.724087 -0.003115
-0.268220 -0.336985 0.698073
0.766048 0.025213 0.003172
-0.620709 0.011559 0.719778
-0.279297 -0.289942 -0.708361
0.070648 0.706575 0.687863
0.064445 -0.648707 -0.710648
-0.645283 -0.319881 -0.340996
-0.647950 0.381144 0.362890
-0.280809 0.377594 0.701255
-0.621251 0.009324 0.720908
0.385078 -0.653848 0.344443
-0.648013 0.384118 0.363528
0.062885 -0.647550 -0.712150
0.766281 0.024435 0.003243
0.749479 -0.319142 0.348200
0.752223 -0.304810 -0.365285
-0.284252 -0.656427 -0.369865
-0.280654 0.378417 0.700926
0.411064 0.038316 -0.325279
-0.646401 -0.317756 -0.339747
0.766702 0.025854 0.003769
-0.623799 -0.667400 0.000565
-0.622556 0.339236 -0.344549
-0.609394 -0.309641 0.359312
0.749949 -0.305630 -0.364434
-0.647221 -0.317444 -0.340907
-0.297067 0.364946 -0.698787
0.748146 -0.318353 0.348012
-0.602853 0.026734 0.030947
0.408436 0.715984 0.340396
0.752068 -0.305615 -0.365030
-0.290323 0.713443 -0.359253
-0.625012 -0.668169 0.000366
-0.289058 -0.664414 0.335321
0.409573 0.717555 0.339897
0.410108 0.037140 -0.325148
0.056348 0.720263 -0.689134
0.058675 0.722211 -0.689206
-0.271091 0.725527 0.350261
0.063413 0.036026 -0.702284
0.402791 -0.665149 -0.346611
0.072984 0.705014 0.688434
-0.269977 -0.338411 0.699020
-0.287984 0.714221 -0.358703
0.766469 0.025194 0.002160
-0.621241 0.338386 -0.344676
-0.605196 0.025052 0.031018
0.063381 0.036253 -0.701550
-0.270281 -0.338503 0.696881
-0.620690 0.010603 0.720546
0.058687 0.721000 -0.688708
-0.269687 -0.336991 0.698148
-0.296836 0.367353 -0.697213
0.070428 0.704031 0.686310
0.408380 -0.016344 0.342347
-0.633130 0.725521 -0.003182
0.385094 -0.652051 0.344856
-0.630396 0.724271 -0.003854
-0.622320 0.341949 -0.345252
0.382927 -0.653929 0.342968
0.073330 0.704908 0.688077
-0.622528 0.340647 -0.342932
0.052092 0.708917 -0.021184
0.752283 -0.305187 -0.364707
0.738537 -0.669984 0.004331
-0.279163 -0.292138 -0.708135
0.397009 0.371216 0.673806
-0.297082 0.364531 -0.698751
0.059671 0.722819 -0.688213
-0.295665 0.365217 -0.698832
0.766576 0.025602 0.004550
0.050212 -0.654297 -0.017648
0.386729 -0.653466 0.345389
-0.648980 0.381358 0.363522
-0.285758 -0.655066 -0.371271
-0.630803 0.724226 -0.004022
-0.270915 0.723672 0.351570
0.059154 0.722530 -0.688446
0.384873 -0.655200 0.345126
0.421155 0.714841 -0.330360
-0.298120 0.366693 -0.697469
-0.643542 -0.318888 -0.340436
0.748320 -0.320866 0.349193
0.387677 0.376104 -0.682852
0.063155 -0.666979 0.690232
0.062421 -0.666316 0.687882
0.052000 -0.652104 -0.018264
0.051727 0.709730 -0.020621
0.422247 0.714333 -0.329753
-0.271190 0.725222 0.351034
0.737289 -0.670040 0.005923
0.409453 0.037257 -0.324849
-0.632095 0.016231 -0.692151
-0.630886 0.724309 -0.002226
0.061352 -0.666630 0.692106
0.044605 0.019642 0.669381
-0.644913 -0.319179 -0.338477
0.389740 0.375954 -0.683943
-0.289907 0.712403 -0.362079
0.055945 0.709472 -0.021765
0.738861 -0.670367 0.004711
-0.285539 -0.654518 -0.371046
0.749522 -0.319152 0.349136
0.404178 -0.664323 -0.347269
-0.631742 0.723436 -0.005317
-0.648231 0.380482 0.364174
0.404369 -0.666035 -0.348532
0.737046 -0.671051 0.005217
-0.601060 0.024288 0.030805
0.051664 -0.653177 -0.019308
0.387547 0.374744 -0.680978
-0.628029 0.015912 -0.694340
0.752540 -0.305462 -0.362349
0.407261 -0.013878 0.342151
0.073589 0.704880 0.686772
-0.269327 -0.338063 0.697140
0.388592 0.375769 -0.682891
0.042447 0.016808 0.670271
-0.609020 -0.311374 0.357874
-0.647545 0.379091 0.364110
-0.288564 0.713565 -0.358886
-0.276910 -0.289632 -0.709947
0.064371 0.036736 -0.702161
-0.278646 -0.291217 -0.707719
0.404763 -0.664656 -0.348482
-0.297242 0.367616 -0.697848
-0.287244 0.713902 -0.359543
-0.280796 0.377975 0.700626
0.065750 -0.649148 -0.711038
-0.646225 -0.317504 -0.337831
0.386511 -0.316299 0.691154
-0.632545 0.723547 -0.003519
0.737135 -0.670150 0.005616
0.053146 0.710128 -0.018328
0.052593 0.710723 -0.020709
0.764136 0.025478 0.004182
-0.603517 0.023425 0.029519
-0.297781 0.367388 -0.695909
-0.603726 0.025839 0.031567
0.058673 0.722225 -0.688219
0.065308 0.034305 -0.703388
-0.269342 0.725714 0.350920
-0.646577 -0.318865 -0.339548
-0.646735 -0.318265 -0.338928
0.385202 -0.653688 0.344138
-0.620801 0.338720 -0.345325
0.388064 -0.316793 0.689858
-0.631661 0.725557 -0.003109
0.410532 0.038672 -0.325016
0.064682 0.033879 -0.701577
-0.626301 -0.669255 -0.001572
-0.286136 -0.657138 -0.370509
0.398003 0.373502 0.674142
0.053172 0.709897 -0.020849
0.051519 -0.653319 -0.016222
-0.296950 0.367468 -0.697209
