OFF
256 0 0
0.419691 0.374197 0.700308
-0.630058 0.047740 0.683344
0.056484 -0.665429 -0.011087
0.420954 -0.678462 0.364721
0.410371 0.030551 0.358875
0.070798 0.740750 0.015083
0.423740 -0.329184 0.712563
0.071313 -0.658504 0.707141
0.070622 0.740815 0.016596
0.784459 0.036259 0.001125
0.401106 0.360708 0.017449
0.398640 -0.655238 -0.332362
0.073168 -0.659998 0.710520
-0.315209 -0.325123 -0.720740
-0.281066 0.725540 0.327627
0.411702 0.031543 0.359154
-0.631107 0.375962 0.316045
0.042788 -0.685196 -0.703349
0.035584 0.722366 0.686290
0.749478 -0.661993 -0.009334
-0.284059 0.726854 0.325948
-0.620881 -0.640752 0.004065
0.070916 0.741329 0.017728
0.388825 0.349153 -0.707451
-0.286077 0.363370 -0.678512
0.400778 0.022877 -0.335057
-0.277589 0.702413 -0.338006
-0.298298 -0.679963 -0.353132
0.784656 0.034866 0.002879
0.043396 -0.684644 -0.703370
0.074802 -0.658391 0.709449
-0.276061 -0.652449 0.327796
0.399285 -0.656189 -0.332203
0.410314 0.029979 0.358887
-0.276889 0.701209 -0.340462
-0.630473 0.045165 0.682576
-0.620506 -0.640599 0.004250
-0.286275 0.360893 -0.678476
-0.655667 0.020211 -0.698105
-0.633914 0.033662 -0.015056
-0.643336 0.738390 0.004709
0.423848 -0.329979 0.713210
0.411760 0.706020 0.355635
-0.278185 0.703007 -0.340563
-0.275575 -0.651271 0.326800
0.399502 -0.655793 -0.330274
0.078423 0.039133 0.711303
-0.633293 0.374102 0.317027
0.410353 0.707401 0.355560
-0.287375 0.362149 -0.678051
-0.657833 0.020736 -0.697379
0.421939 0.372446 0.701986
-0.640035 -0.316758 0.360361
0.059912 0.676786 -0.664365
0.072603 -0.658061 0.710073
0.420444 0.374152 0.702018
0.057597 -0.005946 -0.717985
0.071629 -0.658233 0.707232
0.781357 -0.314410 -0.357321
-0.288414 0.363055 -0.677326
0.399981 -0.655509 -0.332475
-0.638835 -0.316002 0.362236
-0.636041 0.032820 -0.014745
0.409017 0.030572 0.358351
0.055137 -0.664291 -0.009810
0.072507 0.742311 0.015618
0.418227 -0.311871 -0.698593
0.419488 -0.678659 0.365692
-0.277003 -0.652027 0.328676
-0.640152 -0.315078 0.360686
0.042700 -0.686312 -0.701835
-0.655670 0.020286 -0.695737
-0.657491 0.019822 -0.697553
0.781146 -0.314463 -0.358836
0.056641 -0.006259 -0.714201
0.784322 0.035119 0.002670
0.750347 -0.664325 -0.010881
-0.286964 0.363328 -0.676743
0.058736 0.676050 -0.666728
-0.286381 0.364648 -0.678373
-0.631920 0.374318 0.317260
0.041645 -0.686021 -0.704434
0.747514 -0.661889 -0.011560
-0.629898 0.047674 0.683854
0.402459 0.361382 0.017751
0.036952 0.719008 0.686694
-0.653537 0.382966 -0.341205
-0.633379 0.373979 0.315962
-0.278385 0.701675 -0.341103
-0.653760 0.381944 -0.343893
-0.635144 0.032610 -0.015762
0.775650 -0.321232 0.361107
0.072436 0.741808 0.014502
-0.634798 0.373350 0.319845
-0.317051 -0.323906 -0.720094
-0.287741 0.361065 -0.678898
-0.643147 0.737264 0.004600
0.042820 -0.685191 -0.703430
-0.642465 0.738959 0.007187
0.751518 -0.660189 -0.010410
-0.635764 0.033679 -0.015725
-0.656134 0.381818 -0.342385
0.036019 0.721155 0.686922
-0.628883 0.046696 0.684856
0.389435 0.349819 -0.706319
0.072192 0.743289 0.017642
-0.633733 0.374526 0.317587
-0.642410 -0.314279 -0.369924
-0.283329 0.727179 0.327314
0.073739 -0.659475 0.707094
0.043573 -0.687089 -0.703581
0.403263 0.363451 0.018145
0.073355 -0.660060 0.708296
0.073487 -0.659727 0.710478
-0.276198 -0.649715 0.326637
0.419087 -0.680298 0.364170
0.403626 0.361467 0.017283
-0.653257 0.382828 -0.343567
-0.288471 0.363216 -0.676806
-0.285533 -0.284489 0.700920
-0.633931 0.373886 0.317277
0.418610 -0.313959 -0.697038
0.401576 0.025084 -0.334657
0.425314 -0.328524 0.715301
0.042011 -0.687015 -0.703703
-0.628760 0.047523 0.680220
0.072718 -0.659183 0.710206
-0.635724 0.034563 -0.016992
0.411596 0.705739 0.355755
0.420287 -0.680865 0.365059
-0.657323 0.019922 -0.699008
0.403640 0.688829 -0.345719
-0.283043 0.726100 0.327161
-0.286254 0.362867 -0.676679
0.422119 -0.329032 0.711167
0.043098 -0.685942 -0.702318
0.776379 -0.320308 0.363039
-0.622283 -0.639763 0.002625
0.424026 -0.328968 0.712082
-0.639679 -0.314381 0.362615
0.389248 0.348841 -0.707858
0.423191 -0.327426 0.711897
0.042868 -0.686788 -0.702206
-0.657877 0.022809 -0.696605
0.411612 0.706712 0.356259
-0.630474 0.046598 0.683410
0.076066 0.039537 0.711191
0.401592 0.689114 -0.344306
0.037550 0.718641 0.686783
-0.643780 0.738108 0.005529
0.748414 -0.663688 -0.011276
0.389762 0.348884 -0.709333
-0.629140 0.046930 0.683283
-0.643797 -0.314422 -0.368386
-0.282316 -0.284996 0.704138
0.058621 0.675960 -0.665210
0.398755 0.023827 -0.336626
0.781276 -0.315403 -0.359506
0.077798 0.039317 0.709609
0.056328 -0.664077 -0.009267
-0.643342 -0.314146 -0.369844
0.424857 -0.328455 0.713008
0.780733 -0.316115 -0.357262
0.073068 -0.658829 0.707504
0.775581 -0.321483 0.362488
0.398918 -0.656596 -0.331604
0.410150 0.705673 0.357609
0.409943 0.029128 0.360850
0.400417 0.023717 -0.336522
0.424212 -0.330326 0.714542
0.072936 -0.659897 0.707321
0.401618 0.688401 -0.344734
-0.643140 0.737648 0.005346
0.398928 -0.657476 -0.332246
0.747364 -0.662969 -0.010582
0.399311 -0.656972 -0.333954
-0.282916 0.358829 0.678751
0.045085 -0.684405 -0.702866
0.420380 -0.680350 0.366726
-0.298170 -0.678983 -0.353130
-0.287137 0.364403 -0.678790
-0.628492 0.046143 0.682513
0.076734 0.039721 0.710180
-0.276560 0.702876 -0.339433
-0.629205 0.046118 0.682411
-0.655077 0.381547 -0.344362
0.419956 -0.677201 0.366308
0.776136 -0.321166 0.362460
0.748573 -0.660855 -0.011907
0.409720 0.030147 0.360412
0.057815 -0.007028 -0.716224
-0.634585 0.033354 -0.017661
-0.656406 0.021602 -0.697446
0.774842 -0.322024 0.362141
0.404096 0.361126 0.016708
0.747922 -0.662883 -0.010237
-0.283693 0.726305 0.326179
-0.629855 0.048427 0.684815
-0.631512 0.374451 0.315876
0.059710 0.676824 -0.664456
-0.630424 0.047010 0.681733
0.419925 -0.314526 -0.697088
-0.628940 0.047030 0.682425
-0.644979 0.740927 0.005978
-0.284702 0.725482 0.325216
-0.287283 0.365020 -0.677800
-0.633908 0.374662 0.316851
0.783669 0.037542 0.000075
-0.656905 0.021333 -0.699689
0.775154 -0.322221 0.362278
-0.620684 -0.640284 0.003854
0.403830 0.688677 -0.346529
-0.628184 0.044306 0.683526
0.422952 -0.326423 0.711616
0.418682 -0.315253 -0.696500
0.055766 -0.664075 -0.010346
0.056457 -0.666855 -0.008807
0.412553 0.706846 0.356390
0.071406 0.741576 0.019434
0.399837 -0.658311 -0.332619
-0.288170 0.363062 -0.679538
-0.658104 0.017258 -0.697303
-0.656804 0.020870 -0.696381
-0.288373 0.361677 -0.679391
-0.654057 0.381714 -0.342918
0.410191 0.707552 0.356785
0.071874 0.742250 0.015549
-0.620583 -0.638540 0.002601
0.776273 -0.322178 0.362043
0.058422 0.677729 -0.665766
0.399775 0.024761 -0.334594
-0.633115 0.374046 0.316750
0.035513 0.721611 0.685782
0.059020 -0.004282 -0.716459
0.403453 0.687231 -0.344812
0.782773 -0.313609 -0.358370
0.747671 -0.662728 -0.010229
-0.282895 0.727832 0.325950
0.060402 0.676279 -0.663208
0.043682 -0.686973 -0.703266
-0.282815 0.727327 0.328590
-0.276967 0.702776 -0.341761
0.056079 -0.005369 -0.715475
-0.638357 -0.317231 0.361174
-0.300470 -0.678466 -0.353078
0.072993 0.740939 0.016242
-0.277238 -0.650367 0.327332
-0.283885 -0.282108 0.703336
0.411538 0.706007 0.355188
0.777776 -0.321640 0.362223
-0.283871 0.726298 0.326788
0.387549 0.349892 -0.705845
-0.283079 0.724907 0.326337
0.057562 -0.004053 -0.716097
0.419644 0.372886 0.701828
-0.282036 0.358824 0.679160
