OFF
256 0 0
0.404665 0.698130 0.337445
0.082412 0.015947 0.686447
0.401356 0.365684 0.668456
0.739903 -0.302195 -0.325260
-0.607566 0.031008 -0.668850
-0.288681 -0.308609 0.662347
-0.635469 -0.661059 0.001692
-0.611679 -0.341349 -0.355419
-0.622408 0.378424 -0.342436
0.394406 -0.650814 -0.347832
-0.289420 -0.309251 0.664445
0.069171 0.695080 0.691360
-0.267696 0.353206 -0.670281
0.054257 0.029459 -0.660090
0.408401 -0.302193 0.681086
-0.619690 -0.306363 0.352136
-0.620839 0.375737 -0.341585
-0.284441 0.700740 0.340750
-0.623033 0.009960 -0.046782
0.399514 0.698447 0.338256
-0.290043 -0.307849 0.662431
0.735583 -0.313205 0.344329
0.053334 0.027340 -0.659342
0.074319 -0.666885 -0.679404
0.082291 0.016370 0.686705
-0.607569 0.358618 0.323296
0.391159 0.035730 -0.315837
0.748518 0.024962 0.015056
0.378253 -0.622777 0.338217
0.070310 0.692364 0.011717
-0.274324 -0.321978 -0.667976
-0.631855 0.031996 0.694749
0.070194 0.692607 0.009851
0.406049 -0.302427 0.682879
-0.607113 0.358792 0.323304
0.408728 -0.301700 0.680697
0.375817 -0.621307 0.335744
-0.623464 0.009587 -0.049287
0.042114 0.719707 -0.689779
-0.608417 0.360625 0.322291
-0.273345 -0.653682 0.330347
-0.278143 -0.688939 -0.340971
0.402775 0.698534 0.337939
-0.274879 -0.322361 -0.666740
0.406079 -0.301673 0.681292
-0.277726 -0.690410 -0.340957
0.737160 -0.312917 0.346058
0.400581 0.367198 0.672320
-0.612103 -0.342431 -0.354798
-0.282946 0.702680 0.340883
0.053696 0.030623 -0.659721
0.390053 0.035933 -0.314412
0.075237 -0.667801 -0.680936
0.377995 -0.620994 0.337924
-0.274158 -0.322331 -0.668134
-0.287963 -0.307615 0.664163
-0.275120 0.706799 -0.340873
-0.274181 0.708933 -0.339391
0.400159 0.367261 0.670518
0.040021 0.721508 -0.691327
-0.607428 0.361528 0.323640
0.377147 -0.624140 0.340365
-0.633066 0.697300 -0.007358
0.740019 -0.302573 -0.324944
-0.631445 0.032335 0.693123
-0.275294 0.707311 -0.339528
-0.610439 0.030875 -0.666310
-0.609189 0.360660 0.323567
0.376799 -0.623854 0.337240
0.074426 -0.666136 -0.678390
0.734524 -0.313485 0.344695
-0.262232 0.358342 0.661026
-0.610887 0.032850 -0.667190
0.721246 -0.648613 0.020106
0.050447 -0.640231 0.679310
-0.632206 0.699008 -0.006530
0.051295 -0.639530 0.681384
0.064527 -0.618310 -0.022574
-0.284086 0.699445 0.342270
0.397834 0.715149 -0.349917
-0.620053 -0.306540 0.351843
-0.622805 0.376854 -0.341324
0.397637 0.715600 -0.349894
0.397850 0.716304 -0.349959
0.375170 -0.621553 0.338445
0.074178 -0.667507 -0.679907
-0.609446 0.361013 0.323314
-0.268143 0.354372 -0.670144
-0.611278 -0.341350 -0.356705
0.051698 -0.641151 0.680613
-0.631707 0.031174 0.691245
0.393175 -0.650028 -0.345057
-0.612622 -0.342612 -0.355340
0.050764 -0.642347 0.680030
0.055866 0.029916 -0.661243
-0.630917 0.030409 0.692502
0.389524 0.036646 -0.313356
0.054045 0.030552 -0.660842
0.742139 -0.304638 -0.325477
-0.631190 0.698063 -0.009095
0.069656 0.696071 0.690965
0.387092 -0.005697 0.325517
0.392425 -0.650337 -0.345892
-0.275215 -0.322464 -0.666406
-0.264905 0.358855 0.662388
-0.636947 -0.660131 0.003357
0.375961 0.373970 -0.660838
-0.635993 -0.660838 0.001597
0.398696 0.715131 -0.350924
0.043401 0.719540 -0.691313
0.054248 0.030484 -0.659407
0.722125 -0.647933 0.021950
0.407104 -0.300515 0.684108
-0.610867 -0.343062 -0.353638
-0.275413 -0.652088 0.330111
-0.289143 -0.307204 0.661484
0.070603 0.695623 0.689921
0.397957 0.367908 0.667507
0.403532 0.699344 0.337353
-0.275338 0.706395 -0.341632
-0.619328 -0.303365 0.352038
0.052560 -0.640083 0.678645
-0.284659 0.700900 0.339869
0.377179 0.375911 -0.659333
-0.275504 0.708180 -0.340073
0.403092 0.699741 0.337434
-0.278873 -0.688647 -0.338106
0.390369 0.037053 -0.314306
0.065774 -0.616788 -0.022079
0.378201 0.375623 -0.658261
0.075478 -0.667471 -0.680218
0.050972 -0.638094 0.679029
-0.638752 -0.659760 0.002452
0.401531 0.701246 0.337658
0.049476 -0.639671 0.679541
-0.261844 0.358742 0.663168
-0.610398 -0.342638 -0.354840
-0.608547 0.358763 0.323365
0.057288 0.029381 -0.660829
0.393249 -0.648558 -0.343457
0.415128 0.376217 -0.009823
0.745871 0.026850 0.012490
-0.283906 0.701638 0.341088
0.392191 0.036337 -0.315157
-0.620545 0.377888 -0.342423
0.067942 0.693618 0.012141
0.390891 -0.649135 -0.344712
0.377322 0.376401 -0.660167
-0.284378 0.699255 0.340550
0.392769 0.037931 -0.313699
0.737169 -0.313054 0.344881
-0.620774 0.011903 -0.046451
0.377773 -0.621569 0.339293
-0.262947 0.359173 0.660885
-0.278258 -0.689764 -0.340580
0.397580 -0.326097 -0.672853
-0.630868 0.031459 0.695316
-0.281377 0.700721 0.341109
0.070156 0.695378 0.692017
0.737566 -0.314796 0.345541
-0.284270 0.701762 0.341568
-0.609180 0.031394 -0.666817
0.055242 0.029664 -0.660303
-0.281734 0.701552 0.340431
-0.608023 0.359226 0.321520
-0.635285 -0.660209 0.001493
0.042989 0.720189 -0.691164
0.406963 -0.301947 0.681242
0.055083 0.030267 -0.660975
-0.620899 -0.304325 0.353223
0.043709 0.721102 -0.691570
0.740508 -0.302745 -0.323307
0.398918 0.714344 -0.350711
0.414816 0.376691 -0.009700
-0.274737 -0.654910 0.331163
0.064584 -0.618070 -0.021911
0.041741 0.721752 -0.691180
-0.623072 0.008536 -0.047648
0.408114 -0.300912 0.679849
-0.273646 -0.654913 0.330869
0.377774 0.373860 -0.661068
0.377428 -0.622036 0.336820
0.721622 -0.647178 0.020016
-0.278269 -0.689735 -0.339493
0.376280 -0.623796 0.338221
0.053465 0.028643 -0.658926
0.082040 0.017428 0.685013
-0.630730 0.699887 -0.007820
0.385132 -0.004504 0.325400
0.398984 0.367825 0.668284
0.722165 -0.648569 0.019721
-0.287430 -0.310160 0.663978
-0.618735 0.377540 -0.340370
-0.631045 0.031524 0.693931
0.414106 0.375593 -0.010059
-0.621824 -0.304855 0.352262
0.736628 -0.312118 0.345122
-0.621249 0.012262 -0.048922
-0.262971 0.358822 0.662447
0.054247 0.029418 -0.660206
-0.608625 0.032706 -0.668202
-0.288958 -0.308458 0.663151
0.747561 0.026956 0.010880
-0.638146 -0.661339 0.003812
0.737239 -0.313388 0.345096
-0.273551 -0.322116 -0.667776
-0.263054 0.358886 0.661743
0.376483 -0.621001 0.339091
-0.632142 0.029848 0.693016
0.400014 0.716074 -0.349718
0.413670 0.376072 -0.010326
0.741733 -0.304294 -0.326329
0.377608 0.374407 -0.661876
0.400847 0.699160 0.339541
-0.287682 -0.309403 0.664012
0.051482 -0.638878 0.678931
-0.632362 0.031401 0.692388
0.042454 0.721138 -0.690903
-0.274103 -0.322450 -0.667334
0.407085 -0.302897 0.683411
0.074147 -0.667753 -0.679134
0.398648 0.717713 -0.349643
0.067870 0.694716 0.691247
-0.266951 0.352173 -0.669521
0.723765 -0.647699 0.020894
-0.611289 0.028695 -0.666849
-0.619751 -0.305254 0.351530
0.064786 -0.616260 -0.021566
0.405834 -0.300276 0.681046
0.069586 0.694758 0.010378
0.407882 -0.301118 0.682946
0.377726 -0.623065 0.337770
0.375358 -0.621672 0.338124
0.392280 -0.648656 -0.346063
-0.622247 0.008284 -0.046217
-0.612235 -0.342273 -0.354226
-0.622809 0.374899 -0.342719
0.404062 0.697993 0.337740
0.402471 0.701564 0.336610
0.042213 0.720435 -0.690008
0.398671 0.715505 -0.352188
-0.620945 0.010407 -0.046124
0.065815 -0.620398 -0.021712
-0.276037 0.708508 -0.341879
0.735692 -0.313894 0.343253
0.748069 0.026765 0.013983
0.073925 -0.667470 -0.680196
0.401670 0.700818 0.336926
0.055093 0.030251 -0.660910
0.378374 0.373216 -0.659427
0.377765 -0.623197 0.339114
0.395494 -0.326728 -0.671400
-0.607648 0.359216 0.322005
0.044282 0.722330 -0.689661
-0.275415 -0.323272 -0.666067
0.055876 0.030687 -0.658628
