OFF
256 0 0
-0.000960 -0.855644 0.513519
0.685104 -0.170693 0.512778
0.344071 0.170507 0.511166
-0.001732 -0.857352 0.515157
-0.342720 -0.513107 0.515183
-0.343947 0.171433 -0.857897
-0.686355 0.171320 0.172059
-0.000139 -0.514570 -0.514363
0.343392 0.513539 0.172141
-0.342903 -0.170278 -0.514678
-0.342665 -0.515744 0.516250
-0.001490 -0.855900 0.514889
0.343750 -0.516668 0.515120
0.344866 0.856565 -0.171359
0.343339 0.517659 0.172467
-0.685205 -0.172085 -0.172078
0.343080 0.514182 -0.513958
0.000401 -0.513455 -0.514370
0.000757 -0.854402 -0.170310
0.684632 -0.173747 0.513526
-0.342505 0.515279 -0.514604
0.342023 0.514207 -0.514412
0.344005 0.172964 0.514790
-0.343737 0.856806 -0.168777
0.000896 -0.513291 0.857527
0.342393 0.858330 -0.172729
-0.685030 0.513363 -0.169845
-0.685708 0.172186 0.170664
0.342708 -0.171793 -0.514719
0.000302 -0.859024 0.514714
0.686105 0.170932 -0.515502
0.342272 0.170393 -0.857031
-0.000092 0.171645 0.858061
0.000317 -0.514731 -0.515184
0.342970 -0.513535 0.512723
-0.000958 0.171417 0.857097
-0.000787 -0.172190 -0.856975
-0.343651 -0.170674 -0.515688
0.000527 -0.856485 -0.173866
-0.000042 0.857025 -0.513848
-0.686956 -0.169784 -0.171618
0.342391 0.856188 -0.174065
-0.342666 0.513976 0.171449
-0.343487 -0.174221 -0.514109
-0.000566 -0.858382 -0.171905
0.345699 0.858768 -0.173014
0.685615 -0.170880 -0.172325
-0.343073 0.170382 -0.858516
0.342118 -0.517156 0.514992
-0.342886 0.515503 -0.515035
0.001371 0.857378 0.171732
0.343372 -0.170394 0.856634
0.686916 -0.514500 0.172174
0.001297 -0.169655 -0.857005
0.343442 0.515223 0.170803
0.687712 0.170254 0.170364
0.342752 0.516752 0.171321
-0.344214 -0.170596 0.857990
-0.343688 0.173257 0.515634
-0.687480 0.172383 0.172948
0.343369 -0.169444 0.856395
0.341755 0.170678 -0.857371
0.343143 0.170958 -0.856441
0.344251 -0.859060 0.172457
0.000894 -0.857075 -0.172296
-0.000699 -0.171689 -0.856546
0.686243 0.171214 0.170607
0.341380 -0.170664 -0.514267
0.002876 0.172265 0.856831
-0.342275 0.170182 -0.857472
-0.343799 -0.514846 0.514322
-0.686497 -0.168838 0.513839
-0.686185 -0.169076 0.513950
0.687380 -0.170679 0.514541
-0.000875 -0.513708 -0.514879
-0.686205 0.170672 -0.513445
-0.684731 0.172682 -0.514418
-0.683471 0.170844 -0.512544
-0.686361 0.512805 -0.171385
0.342964 0.514797 -0.514494
0.342942 0.171474 -0.857332
-0.000347 0.856916 -0.514162
0.342522 0.173441 0.514233
-0.001745 -0.857650 0.516175
-0.686658 -0.171095 -0.171555
-0.001054 0.859109 -0.512204
-0.685138 0.513645 -0.170812
0.685968 0.514225 -0.172391
-0.342589 0.514915 -0.514979
0.342521 -0.171560 0.857060
0.000389 -0.857117 0.514926
-0.342340 -0.515140 -0.170389
0.343563 0.514168 0.172397
-0.687108 -0.171435 -0.168800
0.342713 -0.513615 -0.170417
0.685840 -0.172400 0.513968
-0.686542 0.170910 0.171554
-0.343241 -0.858929 0.171595
-0.001221 0.856823 0.172434
-0.342210 -0.169510 0.860067
-0.001735 0.514568 -0.858176
-0.344367 0.515918 0.172177
-0.686328 0.170888 -0.513641
-0.686618 -0.172690 -0.171365
-0.344357 0.172522 -0.858055
0.343313 0.857601 -0.171103
0.340251 0.857940 -0.171914
0.343353 0.513836 0.174054
0.342035 -0.858922 0.171001
-0.342401 -0.171862 -0.514608
-0.000335 -0.171890 -0.857301
-0.686008 -0.514207 0.170286
0.343171 0.512973 0.170607
0.342597 0.171697 -0.857650
-0.342631 0.514891 0.172203
0.341457 -0.513204 -0.171287
0.686277 0.172844 0.172806
0.342738 0.172008 -0.856964
0.000245 0.171702 0.856289
-0.684839 -0.171965 0.513835
-0.000429 -0.515048 -0.515254
0.686254 -0.170627 -0.172806
-0.343129 0.515032 -0.512884
-0.687320 0.171572 -0.513215
-0.000146 -0.857673 -0.171205
0.685922 -0.512693 0.171042
0.000802 0.514684 0.513105
-0.000149 -0.856707 -0.172201
-0.344250 0.514767 0.171295
-0.001019 -0.513854 -0.512282
-0.001355 0.858634 0.170878
-0.342181 0.514674 0.173547
0.344280 -0.516644 -0.172719
-0.000754 0.513154 -0.857112
-0.341965 -0.170144 0.856193
0.343244 -0.513917 0.513791
-0.686028 0.171001 -0.514182
-0.686241 0.171054 -0.515632
-0.342231 -0.172822 0.857290
-0.686352 0.515589 -0.170374
-0.687072 -0.514048 0.172226
0.341853 -0.171818 0.857272
-0.343412 -0.169740 -0.514598
0.343309 0.170744 0.514920
-0.685838 -0.169685 -0.169883
-0.000073 0.857417 0.171119
-0.342871 0.171237 0.514105
0.342263 0.513434 0.170193
0.343627 -0.858412 0.171317
-0.343059 -0.512389 -0.172901
0.001560 0.855965 0.170010
-0.000853 0.512331 0.515426
0.341973 -0.513197 -0.170829
0.000182 0.856955 0.171377
0.344500 0.858629 -0.171700
0.000223 0.858399 0.170176
0.343055 0.515300 -0.514468
0.343176 0.172372 -0.856515
0.342657 0.514372 -0.514575
0.002205 0.172381 0.855755
-0.686443 0.173707 0.172021
-0.344346 -0.171750 -0.514926
0.000995 0.172279 0.858383
-0.001820 -0.512800 0.858072
0.685254 -0.171740 -0.171482
0.000821 0.857149 -0.514052
0.000166 0.515472 0.513559
0.000737 0.514202 -0.855919
-0.685655 -0.171066 -0.171636
0.342954 0.856717 -0.172680
-0.343513 -0.514251 0.514254
0.343328 0.860199 -0.173594
0.343203 -0.173281 0.858774
0.343819 -0.171455 -0.515155
-0.686844 0.171867 -0.513305
0.686366 -0.170896 -0.171790
-0.000353 0.857264 0.170889
-0.000088 -0.514001 -0.515411
0.341447 0.171529 0.513800
0.342940 -0.856272 0.170061
0.685652 0.173699 -0.514103
0.344299 -0.514391 -0.170183
0.684243 -0.515161 0.171687
-0.687268 0.170934 0.172493
0.343742 0.514309 -0.515450
-0.341437 0.170357 0.514181
0.341225 -0.858025 0.171061
0.001737 0.857738 -0.513823
-0.687014 0.170692 0.170737
-0.344821 0.514997 -0.513584
0.686599 -0.513828 0.171997
0.686024 0.514193 -0.171301
0.685426 0.172044 0.171960
0.343541 0.171870 -0.857264
0.343365 0.514609 -0.516353
-0.343195 0.516404 -0.514772
0.343584 0.856856 -0.171714
0.341915 0.171286 -0.855337
-0.685686 -0.171725 0.513420
0.344770 -0.513450 0.515722
0.342956 -0.171265 0.857189
-0.686920 -0.515583 0.171822
-0.000022 -0.857444 0.514652
-0.001800 -0.170821 -0.858292
-0.342007 0.170872 -0.858690
-0.001148 0.856586 0.171733
-0.684576 0.171323 0.171440
0.344110 -0.515628 0.513532
0.688963 0.171842 0.172390
-0.343399 0.515467 0.173066
-0.341941 0.514363 0.170595
0.684838 0.513827 -0.172728
-0.344101 -0.513917 -0.171641
-0.685031 0.514736 -0.172666
0.342958 -0.513205 0.514768
0.001757 -0.171659 -0.856165
-0.685554 -0.170722 -0.172751
0.686756 -0.514634 0.171667
-0.342995 0.170451 0.516628
0.343381 -0.856186 0.170953
0.685167 0.515105 -0.171671
-0.000793 0.171098 0.857863
-0.688868 0.172612 0.174039
-0.343989 -0.515847 -0.170422
-0.341439 -0.513962 -0.172219
0.342479 0.171873 0.513480
-0.342507 0.514726 -0.515155
-0.686478 0.172647 -0.515221
0.687539 0.171806 -0.515226
-0.687051 0.171218 0.170331
-0.683432 0.171100 0.172619
0.686491 0.171171 -0.513867
-0.685700 -0.516248 0.170822
0.685525 -0.172987 -0.170776
-0.000812 -0.857063 0.513923
0.343417 -0.173499 0.857552
-0.341780 0.514328 -0.514910
-0.002013 0.857644 0.171069
0.000986 0.855902 -0.513405
-0.687148 0.170922 0.171221
-0.687189 -0.516737 0.171718
-0.687029 -0.170583 0.514230
-0.343880 0.170322 0.513503
0.684447 -0.170996 0.516154
-0.342643 0.857982 -0.170474
-0.342348 -0.515918 -0.169911
-0.000937 -0.514738 -0.513389
-0.344173 0.513512 0.171624
-0.342452 0.515567 -0.514040
0.684095 0.171798 -0.514927
0.342503 0.170895 0.513439
-0.684872 0.171126 -0.515700
-0.686407 0.514655 -0.168947
-0.685627 -0.171468 0.513470
-0.343805 0.514801 -0.513932
-0.685407 -0.172539 -0.170504
