OFF
256 0 0
0.662056 0.172351 0.172348
-0.674169 0.187731 0.174118
-0.341142 0.500913 0.162708
0.004797 -0.498544 0.850116
0.009361 -0.830671 -0.155974
0.648389 -0.170858 0.508212
-0.694811 -0.525070 0.169216
0.692455 0.513904 -0.166056
0.006902 0.854162 0.173275
-0.342341 0.501729 0.163326
-0.335790 -0.517732 -0.144846
0.005613 -0.498126 0.850042
0.347358 -0.508853 0.523892
0.662863 0.172816 0.173205
-0.341855 0.502170 0.162870
0.353059 -0.515277 -0.197529
0.302106 0.156380 0.504346
0.010319 -0.841392 0.506411
-0.687921 0.512309 -0.160924
0.352479 -0.513568 -0.198110
0.671135 0.177755 -0.506199
-0.349950 0.145449 -0.842659
-0.664084 -0.175278 0.504671
-0.666326 -0.175667 0.504528
0.335651 -0.148368 0.852285
-0.329803 0.847825 -0.183050
0.311629 0.486566 0.173856
0.308556 0.485448 0.173254
0.346457 0.500410 -0.518598
-0.686990 0.511380 -0.160379
-0.000561 -0.518500 -0.516931
0.007851 0.852804 0.173031
0.336389 -0.152266 -0.499606
0.008379 -0.829897 -0.157077
-0.327424 0.848787 -0.183203
0.311257 0.486163 0.172675
0.303020 0.158444 0.505495
-0.663130 -0.175033 0.506292
-0.342456 0.502298 0.163130
0.023689 -0.163028 -0.835517
0.005815 -0.499687 0.848437
0.013936 0.524354 0.520203
-0.664258 -0.175467 0.504122
-0.350871 0.145180 -0.843064
-0.671348 0.186487 0.171507
-0.330685 -0.180015 0.823581
0.003711 0.821339 -0.496293
0.693764 0.514084 -0.165363
-0.002401 0.172949 0.861681
-0.339322 0.475860 -0.505026
-0.340874 -0.822725 0.163024
0.021392 -0.163069 -0.832880
-0.339177 0.478692 -0.505205
0.011428 -0.842239 0.506671
-0.679010 0.155973 -0.505112
-0.663722 -0.176805 0.504140
0.327835 0.164680 -0.849784
-0.333449 -0.175769 -0.504648
0.357271 -0.818415 0.174135
-0.334309 -0.177306 -0.503368
0.007789 -0.834583 -0.156742
-0.330593 -0.179743 0.827696
0.663334 0.174389 0.172860
0.005254 0.854045 0.172021
0.345242 0.502127 -0.519044
0.338175 -0.154468 -0.501779
-0.328889 0.847391 -0.183099
0.328039 0.163540 -0.849695
-0.328143 0.160397 0.506043
-0.326582 0.161710 0.506289
0.350358 0.842984 -0.161308
0.006248 -0.501485 0.849853
0.358747 -0.818646 0.173096
0.647727 -0.484810 0.144584
-0.688279 0.512036 -0.162167
-0.694296 -0.521352 0.170576
-0.340872 0.478935 -0.507580
0.013878 0.524619 0.519573
0.000208 0.171826 0.862175
0.345569 0.501116 -0.520592
-0.665047 -0.177026 0.505703
0.668706 0.179219 -0.508384
-0.327427 0.160798 0.505548
0.356835 -0.816879 0.174107
0.347392 -0.509806 0.522349
-0.341118 0.501624 0.163608
-0.672732 0.187364 0.172981
-0.327257 0.848505 -0.181394
0.011382 -0.843911 0.507374
0.006543 -0.832089 -0.156025
0.338242 -0.154770 -0.501948
0.346902 -0.508754 0.521931
0.326755 0.164168 -0.851739
-0.688430 0.511048 -0.162055
0.002070 0.820773 -0.498579
-0.001375 -0.518536 -0.519829
0.351067 -0.514280 -0.196982
0.648520 -0.170835 0.506358
0.336494 -0.153886 -0.499829
0.346227 0.502293 -0.518324
-0.002530 0.171943 0.863696
0.303752 0.158736 0.503665
0.349690 0.843800 -0.160938
-0.328526 0.848546 -0.180549
-0.339727 0.477912 -0.505943
0.017402 0.501024 -0.865437
0.303324 0.157706 0.505265
0.338156 -0.155381 -0.500234
0.010683 -0.843311 0.508321
0.650736 -0.486176 0.144247
-0.327973 0.850168 -0.182605
0.356651 -0.818297 0.172245
-0.001192 0.172224 0.862953
-0.329567 0.848760 -0.181557
0.691502 0.511336 -0.164337
0.011809 -0.842361 0.505656
0.016092 0.499338 -0.864901
-0.678100 0.157216 -0.505430
0.011550 -0.841132 0.508853
0.007192 0.853410 0.175762
-0.330230 0.847234 -0.181101
-0.678928 0.157598 -0.505304
-0.664203 -0.174672 0.504284
0.023786 -0.164011 -0.835293
0.015465 0.501520 -0.865878
-0.001435 -0.518896 -0.519208
0.349508 0.843630 -0.161628
0.012744 0.523975 0.518508
-0.342640 0.501795 0.162842
-0.673687 0.188261 0.173814
-0.336182 -0.504407 0.494275
0.328439 0.163060 -0.851656
0.350409 0.841501 -0.164336
0.309960 0.486586 0.174218
0.336520 -0.148895 0.852646
-0.334594 -0.503955 0.491454
0.327992 0.164900 -0.848644
0.310444 0.487001 0.174776
-0.335141 -0.502222 0.492874
-0.679334 0.159482 -0.504594
0.008616 -0.832445 -0.155429
-0.351790 0.143486 -0.841584
0.345495 -0.510897 0.522417
-0.672054 0.187438 0.172230
-0.673814 0.186002 0.170842
-0.678937 0.157051 -0.505343
0.327711 0.162982 -0.849958
0.005712 0.851236 0.173574
-0.342657 0.503411 0.164544
-0.328280 0.161425 0.508610
0.679338 -0.158484 -0.181510
-0.672415 0.187346 0.172490
-0.329770 -0.178685 0.825397
-0.663172 -0.175020 0.505515
0.669801 0.178851 -0.506726
0.346101 0.500778 -0.518304
-0.334664 -0.518455 -0.144674
-0.691245 -0.165691 -0.162468
-0.334353 -0.504655 0.492961
-0.695533 -0.522772 0.170070
-0.685895 0.512735 -0.161396
-0.341282 0.503168 0.163062
-0.686894 0.510503 -0.160394
0.328207 0.165730 -0.849654
0.352015 -0.514848 -0.197821
0.007331 -0.832627 -0.154992
-0.335410 -0.518912 -0.145440
0.328317 0.165058 -0.850871
0.010127 -0.842951 0.507390
-0.341495 -0.822253 0.162435
-0.335759 -0.520254 -0.143365
-0.326697 0.847784 -0.182005
-0.342716 -0.824228 0.164531
0.022690 -0.164285 -0.834274
0.678997 -0.158124 -0.180752
0.352718 -0.513171 -0.197393
0.337100 -0.147882 0.851943
-0.337764 -0.518418 -0.144405
0.303965 0.158627 0.502844
-0.326671 0.160039 0.505218
-0.679760 0.158004 -0.504273
-0.350390 0.146450 -0.840854
-0.327286 0.159426 0.505543
0.662133 0.173601 0.174250
-0.334231 -0.505690 0.493308
0.671539 0.177987 -0.505237
-0.334033 -0.518649 -0.142555
0.336170 -0.149514 0.854169
0.680044 -0.159466 -0.181097
0.679028 -0.159276 -0.181570
-0.691534 -0.165462 -0.162328
-0.670120 0.187178 0.175108
-0.003758 0.171738 0.861111
0.304679 0.159718 0.504425
0.003642 0.821483 -0.497284
-0.002969 0.173296 0.861651
0.348622 0.842552 -0.161587
0.691519 0.514642 -0.165098
-0.332320 -0.177708 -0.504262
0.011367 -0.841191 0.507876
-0.690841 -0.165248 -0.162122
-0.335226 -0.503483 0.490902
0.335891 -0.150221 0.851480
-0.001926 -0.518572 -0.518860
-0.341362 0.502094 0.161996
0.347132 -0.511004 0.521866
0.005757 -0.497416 0.849371
-0.330010 0.848171 -0.181087
-0.341762 0.503203 0.163555
0.017380 0.499568 -0.864990
0.310685 0.487351 0.173797
0.305341 0.159454 0.503481
0.347882 -0.511177 0.524683
-0.332964 -0.175670 -0.505282
0.022141 -0.165033 -0.833596
0.008115 -0.831871 -0.158297
0.011906 0.523641 0.520435
0.009094 -0.831935 -0.156495
-0.690438 -0.163874 -0.161123
0.348370 -0.513343 0.523399
0.006290 -0.498757 0.848735
-0.336683 -0.503746 0.492347
-0.330617 -0.177470 -0.505357
0.346309 -0.509722 0.523421
0.649104 -0.484194 0.142588
0.006679 -0.499304 0.849588
-0.325098 0.162381 0.505729
0.336991 -0.149334 0.853285
-0.001941 0.169821 0.861614
0.349218 0.842466 -0.162765
0.336685 -0.147987 0.851870
-0.002647 -0.520751 -0.520140
-0.327977 0.848201 -0.181942
-0.328540 0.849405 -0.182852
-0.672090 0.187427 0.172347
0.669509 0.178227 -0.507605
0.349165 0.841955 -0.160667
-0.331210 -0.176736 -0.506555
0.662163 0.174097 0.173918
-0.672416 0.187727 0.173589
0.345115 0.501381 -0.518413
0.337309 -0.148393 0.850476
0.002267 0.820078 -0.495631
0.017091 0.498433 -0.866458
0.358922 -0.817350 0.174603
0.302351 0.157658 0.505759
0.691351 0.514119 -0.166272
0.679801 -0.159023 -0.180822
0.336394 -0.154814 -0.500617
-0.672839 0.188850 0.172635
-0.689712 0.511942 -0.160991
-0.348348 0.145386 -0.840411
0.008190 -0.832800 -0.154300
-0.001124 -0.517115 -0.519204
0.355243 -0.817094 0.176574
0.016622 0.501368 -0.865192
