OFF
256 0 0
0.761103 0.054748 0.055600
-0.297571 -0.296727 0.757310
0.053570 0.761254 0.054196
-0.648652 0.054098 -0.648423
-0.299306 -0.298747 -0.652603
0.054416 0.406899 0.404412
0.406276 0.054188 0.405864
-0.650683 0.406215 0.405596
0.407349 -0.296890 0.758757
0.756809 -0.298514 -0.298279
0.054253 0.406400 0.405799
0.757938 0.054972 -0.650590
-0.649546 -0.648659 0.053048
-0.651378 0.053136 0.759175
-0.297340 -0.650054 0.405961
0.052943 0.757795 -0.649276
-0.649766 -0.297995 -0.298410
-0.298583 0.758756 -0.296689
0.052697 0.758401 -0.649837
-0.649128 -0.296863 -0.300266
-0.651193 -0.649385 0.052985
-0.649653 0.408013 0.406408
0.053869 0.054456 0.757841
0.757701 -0.651075 0.053347
-0.299576 0.757844 0.405290
0.053076 0.054457 0.759369
0.053805 -0.650534 -0.648173
0.405936 0.757520 -0.297182
-0.298188 -0.297836 -0.649512
0.759401 0.054225 0.054779
0.054054 -0.650275 -0.651605
0.757436 -0.648269 0.054072
0.405510 0.055356 0.407632
-0.650063 0.759207 0.055461
0.756890 0.053230 0.054807
-0.298444 0.758575 -0.300009
0.053648 0.053534 0.757660
-0.297708 -0.298083 -0.650234
-0.649999 -0.297946 -0.297055
0.055102 0.759001 0.053173
-0.649640 0.404918 0.405707
-0.297625 -0.651317 -0.295845
0.758907 0.054827 0.054763
0.407450 0.409082 -0.649574
0.055851 0.405028 0.405346
-0.648777 0.053018 0.052359
-0.647424 -0.650166 0.053281
-0.297991 0.407461 -0.647712
-0.298962 0.758637 -0.299688
-0.297812 -0.296592 0.757618
0.406760 -0.298623 0.757913
0.758304 0.054230 0.055861
0.405884 0.406631 0.054696
0.055317 -0.647876 -0.648735
0.405819 0.054375 0.404767
0.056454 0.757724 -0.649038
-0.647655 0.055563 0.757972
-0.298487 -0.297410 -0.650192
0.407503 -0.297907 0.757496
0.054170 -0.648636 0.054133
0.406444 -0.297685 -0.650071
0.051727 -0.649876 -0.647794
0.054662 0.052539 -0.648593
0.405288 0.054306 0.407459
0.757758 0.404408 -0.299207
-0.299500 0.406826 -0.649718
-0.649651 0.408720 -0.297600
0.054819 0.755253 -0.649951
-0.295999 -0.297603 -0.650853
-0.297068 -0.298719 0.759926
0.053562 0.054087 0.758462
-0.652073 0.406974 -0.299092
-0.648275 0.406350 0.406130
-0.299901 0.405143 0.760046
-0.649803 0.756888 0.055247
-0.650618 -0.296126 -0.297268
0.407990 -0.298576 0.759537
-0.296027 -0.296522 0.757673
-0.297828 0.759103 0.406873
-0.295738 0.757296 -0.298218
0.756397 -0.297086 -0.298053
-0.297276 -0.649544 -0.297329
-0.297838 -0.650405 0.406831
-0.648732 0.056702 -0.650166
0.405891 -0.651075 -0.299853
0.756667 -0.297729 0.406984
0.054975 0.407473 0.406345
0.407485 -0.297298 -0.650641
-0.297931 -0.650552 0.405135
-0.649626 -0.298323 -0.298081
0.758342 -0.299619 0.406330
0.053735 0.054837 0.758826
-0.649737 0.407084 0.405258
0.406896 -0.297772 -0.649315
-0.299104 -0.647657 0.407238
0.406610 -0.298199 -0.649522
0.055334 0.757020 0.055413
-0.650353 0.406800 -0.298486
-0.296235 0.758717 0.406267
0.405887 0.405879 -0.648581
0.758264 -0.296935 0.405607
0.054041 -0.649718 0.053677
0.758129 -0.297872 -0.299092
-0.649454 -0.648890 0.053326
-0.298024 0.406591 0.758026
0.054079 0.054059 0.757742
-0.649535 0.054421 0.053642
0.756692 0.055707 -0.649654
-0.649317 -0.298185 0.405984
0.055066 -0.649628 0.757386
0.405035 -0.649662 0.405095
0.758437 -0.648074 0.055980
0.053771 -0.649611 0.054070
0.759027 -0.651413 0.054228
0.054333 0.054303 -0.650307
0.053738 0.758297 -0.648441
0.406505 -0.649977 -0.296765
0.405927 -0.649870 -0.297442
0.759405 0.054368 0.054593
-0.296507 -0.298081 -0.651807
-0.297057 -0.649015 -0.297210
0.054700 0.406352 0.406753
-0.299570 -0.298135 -0.649574
0.405139 -0.650012 -0.297109
-0.649543 0.405282 -0.298429
-0.649882 -0.295271 0.407238
0.408321 0.405037 0.054556
0.402155 0.756773 -0.299179
-0.297410 -0.297938 0.759631
-0.651025 0.052428 0.756514
0.758003 0.054444 0.053831
0.055999 -0.649098 0.759564
0.405194 0.054075 0.406985
0.758832 0.406417 -0.298194
0.053384 0.757514 -0.649856
-0.648624 -0.298625 -0.297710
0.052651 -0.650318 0.757066
-0.296789 0.757537 -0.297978
-0.648590 0.407812 -0.298049
-0.297712 -0.649361 0.404948
-0.648681 -0.649146 0.054816
-0.298326 -0.296631 -0.650043
-0.649993 0.405225 -0.299655
0.405217 -0.649918 0.406226
-0.300652 0.406285 -0.649953
-0.299027 0.759406 -0.297649
0.759559 0.404879 -0.297488
0.406957 -0.650429 0.406496
0.054856 0.052866 -0.648294
0.054594 -0.647750 -0.650269
-0.648690 0.054771 -0.649371
0.054225 0.052368 0.758172
0.759069 0.054352 0.055345
-0.649212 -0.297878 -0.297711
0.053127 0.054798 0.759071
-0.649173 0.053613 0.756125
-0.297703 0.405188 -0.650290
0.404000 -0.297657 -0.649672
-0.648536 0.757350 0.054107
0.758748 -0.297873 -0.297701
-0.647466 0.052927 0.054254
-0.651151 0.053159 -0.650026
-0.650571 0.406098 -0.296129
-0.295138 -0.650356 -0.298538
0.404767 0.405865 -0.650364
-0.650158 0.052679 0.758732
0.758866 0.406479 -0.297192
0.053599 -0.650899 0.053727
0.406465 0.055329 0.406905
0.054052 -0.649905 0.758115
0.758755 0.055435 0.053932
0.054982 0.758986 0.053542
-0.297205 -0.649665 0.407186
0.053748 0.757061 0.054375
0.054875 0.757785 0.055319
-0.648831 -0.297754 0.405750
-0.649668 0.054771 0.054091
-0.649032 0.756638 0.053696
0.758113 -0.648409 0.052944
0.758870 0.404529 -0.298507
0.758653 -0.298151 -0.296701
0.406601 -0.298725 -0.648444
0.757916 -0.299899 0.406990
-0.649798 0.054859 0.757548
0.406205 -0.300044 0.754783
0.052744 0.052537 -0.649080
0.054737 -0.650664 0.758356
0.054887 0.404838 0.405760
0.053910 -0.649727 0.051800
0.053214 0.054312 -0.649826
0.406410 -0.298451 0.758467
0.054040 -0.649490 0.054131
-0.650840 -0.649154 0.055300
-0.295956 -0.297276 -0.648975
-0.297348 -0.297345 0.758694
0.758568 0.054054 0.055161
0.406090 0.757907 -0.297338
0.755914 -0.298344 0.405486
-0.297554 0.406766 0.758815
0.055895 0.055236 -0.650042
0.405530 0.405042 -0.648093
0.760172 -0.296675 0.404326
-0.650122 0.406855 0.406859
0.407092 0.407136 -0.649300
-0.297395 0.405944 -0.650354
0.406097 -0.298792 -0.650890
0.759754 0.054338 0.053082
-0.298556 -0.651006 -0.297481
0.405463 -0.297399 0.759154
0.758914 -0.297799 0.408123
0.406369 -0.297732 -0.650153
-0.648981 0.407099 0.407286
0.406124 0.758850 -0.298531
-0.298273 -0.648914 -0.298020
0.053322 0.053300 0.757873
0.054912 -0.650932 0.755722
0.055551 0.404798 0.407046
0.757885 -0.649287 0.055184
0.407018 0.757803 -0.298559
-0.296520 -0.649644 0.407528
-0.651474 0.055288 0.055904
-0.297549 -0.297829 0.757983
0.759183 0.053491 0.054225
-0.296520 0.758867 -0.297202
-0.649776 0.406147 0.405434
0.407530 -0.298391 -0.650661
0.051848 -0.649718 -0.648273
0.758647 -0.650804 0.053783
-0.650416 -0.298481 0.406537
0.758373 -0.648776 0.053903
0.052908 0.404615 0.407701
-0.295861 -0.298356 0.757609
-0.650794 0.053755 -0.649674
-0.296626 0.757725 0.407306
-0.297242 -0.648280 -0.296496
-0.651239 -0.297167 0.406714
-0.649996 -0.296833 -0.296797
-0.649378 -0.296954 0.408061
0.054598 -0.649223 0.760502
-0.297453 0.759278 0.407246
-0.297621 -0.295423 0.757409
0.406800 -0.649123 0.404759
-0.648739 -0.296780 -0.298610
0.759796 0.406674 -0.299800
-0.298256 0.758047 0.406581
-0.298368 0.758570 0.404805
0.758870 0.406562 -0.297878
0.757945 0.405009 -0.298128
-0.648636 0.758151 0.053782
0.054462 0.759158 -0.651050
0.053813 0.758053 -0.649856
-0.297547 -0.650765 0.405722
-0.298261 0.758138 0.406614
0.757560 0.054362 0.054222
0.408376 0.404735 -0.648797
-0.650583 0.054404 0.055687
