OFF
256 0 0
-0.289981 -0.304628 -0.688347
-0.301414 -0.627942 0.401433
-0.282996 -0.609206 -0.289034
-0.642855 -0.281553 0.381453
-0.637388 0.046100 0.034426
-0.628888 0.067986 0.733647
0.401165 -0.294317 -0.622391
0.400279 -0.662970 0.405404
0.740834 0.032279 0.027894
-0.288847 0.400856 -0.594024
0.057233 0.392065 0.409738
0.765609 0.041529 -0.642641
0.761293 -0.289583 0.401652
0.401125 -0.664304 0.403772
0.063800 -0.614171 -0.636611
0.370044 -0.623959 -0.278544
0.059243 0.389746 0.409133
0.766553 0.042789 -0.641509
-0.623638 0.058504 -0.630308
0.046292 -0.661649 0.737966
0.034864 0.058417 -0.622918
0.065418 -0.611660 -0.633389
-0.281581 -0.607894 -0.289537
-0.301396 -0.276645 0.729654
-0.286591 0.400630 -0.596243
-0.637448 0.048153 0.032992
0.392395 0.407291 -0.635046
0.035367 0.060568 -0.622162
0.397921 0.758249 -0.298735
-0.628784 0.734567 0.063068
0.399655 -0.665330 0.407679
0.036778 0.060632 -0.622582
-0.638217 0.047335 0.031878
-0.289037 -0.305039 -0.689168
-0.629023 0.068064 0.731211
0.047825 -0.649221 0.093127
0.770723 -0.311573 -0.295960
-0.302950 -0.276378 0.730063
-0.638521 0.046331 0.032072
0.369970 -0.624702 -0.278370
-0.290773 -0.304757 -0.687138
-0.649025 0.386102 -0.276080
0.045889 0.760588 -0.633726
0.739566 0.031099 0.029256
-0.643438 -0.617021 0.043990
0.035828 0.058562 -0.621607
-0.300440 -0.626990 0.401596
0.767430 0.041155 -0.642198
0.035380 0.057863 -0.622265
-0.637360 0.046569 0.031923
0.411164 0.042296 0.387762
-0.284269 -0.608562 -0.290197
-0.640749 -0.283513 0.383522
-0.291630 -0.302820 -0.688628
-0.283128 -0.609200 -0.289185
-0.630268 0.733191 0.062386
0.045516 -0.662944 0.735793
0.047296 -0.648068 0.094638
0.760521 -0.287793 0.401764
0.741990 0.030383 0.027935
-0.287699 0.400836 -0.593972
0.047177 0.758537 -0.634452
0.049764 -0.648998 0.093241
0.034039 0.750939 0.044393
0.375413 0.392744 0.049009
0.753072 0.393326 -0.299554
-0.623477 0.059307 -0.630711
0.034922 0.748666 0.043732
0.394276 0.406921 -0.636102
-0.300963 -0.277031 0.730996
-0.295775 0.753082 -0.277602
0.411690 0.045767 0.387361
-0.282382 -0.606570 -0.289148
-0.298492 0.754331 -0.278299
0.059159 0.064654 0.759081
-0.638140 0.047256 0.032659
0.749728 0.393205 -0.299536
0.740217 0.030250 0.029080
0.403469 -0.294813 -0.622973
-0.636924 0.385075 0.399558
-0.302519 -0.276242 0.729346
-0.297764 0.753375 -0.277409
0.390898 0.408102 -0.632645
0.064620 -0.613349 -0.635756
0.398200 0.756692 -0.300142
-0.640387 -0.282286 0.380572
0.375929 0.389095 0.047188
0.393813 0.407549 -0.635709
0.393909 0.408498 -0.633726
0.045671 -0.664127 0.736748
-0.625573 0.733145 0.062122
-0.628356 0.067042 0.732181
0.401746 -0.293672 -0.623054
0.370227 -0.627241 -0.277181
-0.286657 -0.607297 -0.289869
0.058433 0.389541 0.410203
0.033117 0.751000 0.043085
-0.627187 0.733396 0.061488
0.400565 -0.293833 -0.622839
0.376587 0.389978 0.048258
-0.627403 0.733411 0.062878
-0.640241 -0.283716 0.380237
-0.650082 0.384531 -0.276991
-0.282542 -0.607220 -0.288575
0.065244 -0.612588 -0.635619
-0.637286 0.385613 0.398582
-0.301956 -0.277066 0.728897
-0.623419 0.056162 -0.631682
0.400526 -0.664378 0.406136
0.032628 0.750841 0.043969
0.769600 -0.310865 -0.298747
0.753678 0.393525 -0.299559
0.369656 -0.626024 -0.277759
-0.302430 -0.276680 0.729799
-0.299214 0.755093 -0.278201
-0.648907 -0.291452 -0.319311
0.032359 0.749766 0.044434
-0.282095 0.716066 0.407691
0.758139 -0.626371 0.036697
0.033952 0.749094 0.043182
0.064741 -0.613099 -0.633152
-0.294558 0.394137 0.763205
-0.629030 0.731700 0.062025
0.377167 0.392374 0.046903
0.761703 -0.288704 0.403314
0.048886 -0.648003 0.093738
-0.648550 -0.290608 -0.320417
-0.301667 -0.273863 0.729359
0.390911 0.407554 -0.633373
-0.648896 -0.290241 -0.319408
-0.631013 0.069003 0.730432
-0.303187 -0.626906 0.400041
-0.637109 0.386851 0.397474
-0.298096 0.752587 -0.280402
0.375943 0.390749 0.047791
0.766645 0.041675 -0.640483
-0.630371 0.069493 0.731395
-0.302826 -0.275825 0.728356
0.035380 0.059159 -0.622515
-0.647238 0.382321 -0.278716
-0.628272 0.733265 0.061693
-0.291807 -0.302664 -0.686576
-0.284487 -0.606543 -0.288341
-0.283127 -0.607293 -0.289495
0.402260 -0.293442 -0.622731
0.401649 -0.294292 -0.624782
0.761107 -0.286184 0.403664
0.044891 -0.663006 0.735821
-0.296898 0.393177 0.764354
-0.291476 -0.304190 -0.688189
0.034354 0.750333 0.043649
-0.648037 -0.291482 -0.318514
0.739405 0.030384 0.027801
-0.298757 0.753973 -0.280008
-0.641185 -0.282981 0.381075
0.048505 0.759911 -0.634071
0.376753 0.389905 0.048095
0.045506 -0.664387 0.739740
0.376733 0.391035 0.047404
-0.301918 -0.627550 0.399490
0.044716 0.759053 -0.635234
0.047390 0.759659 -0.634466
-0.282820 -0.608445 -0.289988
0.740224 0.030725 0.029581
0.400342 -0.664092 0.404441
0.066154 -0.613199 -0.633422
0.047008 0.759413 -0.633705
-0.302694 -0.628087 0.401452
0.398582 0.757381 -0.301025
-0.295895 0.393536 0.764491
-0.633524 0.383132 0.397265
0.757196 -0.627160 0.036742
0.400567 -0.664514 0.406113
-0.648822 -0.293806 -0.320976
0.393956 0.407545 -0.635514
-0.282683 0.714375 0.408492
-0.649158 0.385790 -0.278562
-0.637191 0.045662 0.033601
0.400500 -0.661721 0.404291
0.764671 0.042520 -0.642227
-0.648179 -0.290004 -0.322429
0.402132 -0.295009 -0.620867
-0.301739 -0.275549 0.730784
0.398087 0.758277 -0.300860
0.764780 0.042079 -0.641193
0.031247 0.749539 0.044166
-0.649466 -0.292360 -0.319384
-0.648988 -0.291885 -0.321248
-0.296010 0.753364 -0.280670
-0.288803 0.400148 -0.594286
0.033789 0.749138 0.043484
-0.302505 -0.276501 0.730358
-0.296425 0.396137 0.763886
0.397959 0.757459 -0.299359
-0.282895 -0.607873 -0.289153
0.060261 0.064270 0.759819
-0.290410 -0.304464 -0.687908
-0.631851 0.069271 0.732062
-0.649336 0.384909 -0.277512
0.035812 0.056810 -0.622332
0.370361 -0.624425 -0.277917
0.047479 -0.648298 0.094119
0.758465 -0.625453 0.035978
-0.636590 0.382789 0.397543
-0.296231 0.753856 -0.278764
-0.640539 -0.283847 0.379632
0.741349 0.030652 0.028335
-0.287887 0.399611 -0.595770
0.756648 -0.626539 0.036442
-0.631239 0.067461 0.733583
-0.283965 -0.608750 -0.289556
0.368773 -0.625419 -0.277929
0.398548 -0.663247 0.406643
0.370507 -0.627439 -0.277391
-0.294282 0.395021 0.764095
0.047085 0.759968 -0.631661
0.050239 -0.648419 0.093452
0.762666 -0.288514 0.401943
0.770045 -0.311076 -0.297508
-0.280439 0.715657 0.409628
-0.623615 0.057422 -0.632801
0.402018 -0.294714 -0.622848
-0.647984 -0.292305 -0.318779
-0.298094 0.754456 -0.279022
-0.630548 0.068334 0.733597
-0.295813 0.393905 0.764646
0.036493 0.059897 -0.623186
0.401535 -0.295891 -0.624623
0.393708 -0.282707 0.739944
-0.643963 -0.617183 0.041945
0.369386 -0.625668 -0.278452
0.760759 -0.289434 0.401331
0.055409 0.389757 0.408421
0.034401 0.747991 0.043205
-0.642912 -0.617626 0.041887
-0.649894 0.386055 -0.276234
-0.647434 -0.291488 -0.320355
-0.647247 0.385676 -0.278485
0.766002 0.040945 -0.639331
0.045943 -0.663639 0.736947
0.033628 0.749824 0.042450
0.034022 0.749170 0.045120
0.056991 0.391429 0.410357
-0.642619 -0.616294 0.044573
0.397920 -0.664985 0.404823
0.048113 0.759850 -0.633768
0.394204 -0.285415 0.741069
-0.629355 0.733361 0.061205
-0.639568 0.045827 0.032923
0.756881 -0.624204 0.035234
0.046975 0.760051 -0.635480
0.062399 0.064680 0.758500
-0.303091 -0.276159 0.729016
-0.282347 0.714135 0.406162
-0.284254 -0.606659 -0.289275
0.751930 0.393354 -0.300435
