OFF
256 0 0
0.404768 0.299930 -0.649045
-0.298542 -0.404229 0.758329
-0.650291 -0.054609 -0.650644
0.760483 -0.054199 -0.650265
0.756989 -0.052870 0.054856
0.756673 -0.054997 -0.649542
-0.297898 0.649104 0.405687
0.757791 0.296524 -0.298784
0.405920 0.649822 -0.297773
-0.297219 -0.758400 0.407472
0.054009 0.649771 0.054124
0.406421 -0.756263 -0.299627
0.053345 0.650080 0.756236
0.758164 -0.054212 -0.651949
0.053193 -0.759138 0.053291
0.757505 -0.055340 -0.649305
-0.647977 0.296531 0.404376
0.758575 -0.054512 -0.648673
0.406834 -0.758499 -0.297694
-0.650788 -0.759130 0.055984
0.405641 0.297866 -0.650429
0.054373 -0.052376 0.756533
0.053426 -0.055710 -0.650532
0.406282 0.296847 -0.649615
0.759635 0.298767 0.406858
0.053877 -0.759092 0.053444
-0.649517 -0.759539 0.053593
0.054296 0.649462 -0.649686
-0.298252 0.297177 0.757048
0.055357 -0.055145 -0.649727
-0.649615 -0.406530 0.407764
0.053531 -0.406658 0.406111
-0.651789 -0.052889 0.760032
0.054277 -0.406940 0.407036
-0.298563 0.297995 0.760158
0.406363 0.297420 0.758053
-0.297244 -0.406355 0.759065
-0.650187 0.648492 0.054148
0.053497 -0.407996 0.407154
-0.296216 0.297198 -0.649947
-0.651248 -0.407307 -0.297792
0.408137 -0.405639 -0.651560
-0.297621 -0.405687 -0.650278
-0.297938 0.649804 0.406578
0.759308 -0.055576 0.055937
0.756810 -0.054963 -0.650623
-0.650391 0.296835 0.405468
0.053620 -0.054957 0.757074
0.052861 -0.053988 0.758371
0.406034 0.648610 -0.298753
-0.298280 0.296775 -0.650351
0.756368 0.297591 0.405756
0.758492 0.297801 0.407359
0.757332 -0.054555 -0.650686
-0.296372 0.297753 -0.648090
0.406212 0.649861 0.405407
0.758301 0.298039 0.405754
-0.298134 0.649543 0.406508
0.758753 -0.052949 0.052652
0.406018 0.649288 0.404430
0.053317 0.650191 0.759089
-0.649039 -0.757433 0.054698
0.053618 0.651207 -0.651795
-0.297934 0.297346 -0.651085
0.053714 -0.406434 0.405414
0.759359 0.649361 0.055299
-0.648942 0.650851 0.053288
-0.298757 0.298096 0.757312
-0.651021 0.298430 0.407077
0.404795 -0.406506 -0.650490
0.054645 -0.758869 0.056498
-0.649821 -0.055494 0.053023
0.051767 -0.054433 -0.650185
0.756349 0.298200 0.406194
-0.298401 0.648765 -0.297582
-0.297824 0.651158 -0.298344
-0.649107 -0.407175 -0.298690
0.758753 0.651137 0.055616
-0.296626 0.651233 -0.296915
0.053963 0.648593 -0.649606
0.756435 -0.053495 -0.649305
0.054145 -0.405359 0.406642
0.759040 -0.052870 0.053661
0.404526 -0.406625 -0.648450
0.053354 -0.053388 0.758801
0.757488 -0.052612 0.055756
0.758776 0.651521 0.053160
-0.650592 0.649582 0.054113
-0.298335 -0.757496 -0.296762
-0.298579 -0.407659 -0.650241
-0.298283 -0.404883 -0.648627
-0.650563 0.297528 0.405717
-0.649556 -0.054067 -0.649270
0.054625 -0.054451 -0.650933
0.406001 -0.405493 -0.648956
-0.298033 0.296829 -0.649152
-0.297193 -0.758290 0.406781
0.404223 -0.757558 -0.295904
-0.296217 -0.758444 0.406175
-0.650427 -0.406042 -0.298538
-0.296844 -0.758536 -0.298303
-0.649955 0.299194 -0.298919
0.053041 0.648718 0.760677
-0.297485 0.297469 0.758064
-0.650555 -0.407374 -0.297898
-0.649783 -0.054748 0.054948
-0.650772 -0.758628 0.054000
-0.299231 0.650779 -0.296761
-0.650024 -0.053528 -0.650335
-0.647650 -0.407275 -0.297921
0.053738 -0.054404 -0.649795
0.757099 -0.054863 0.052019
0.405394 0.649399 0.405314
0.405829 -0.405930 0.053438
0.756251 -0.053116 -0.648886
0.053863 -0.756671 0.053770
-0.296856 0.297130 0.755581
0.758097 -0.054474 -0.649095
0.405703 -0.757623 -0.297930
0.759701 -0.052691 -0.650102
0.053724 -0.054027 -0.650728
0.405423 -0.404970 -0.651247
0.406128 0.647850 0.406115
-0.648263 -0.756790 0.054958
-0.298130 0.298410 0.757762
0.054094 -0.407025 0.405896
0.053523 -0.758588 0.052477
0.054249 0.648933 0.757330
0.405211 0.298120 -0.648867
0.404859 0.648889 0.405550
0.406918 0.648818 0.406387
0.406196 0.297834 0.757795
0.404830 0.299033 0.757028
-0.648319 -0.056290 -0.650866
-0.650338 -0.054974 0.758485
-0.299055 -0.404654 -0.650078
-0.649781 0.297712 0.405691
-0.648850 0.297437 0.404668
0.404424 -0.055409 0.406089
-0.296415 0.651150 -0.297935
0.054663 0.648628 -0.649737
0.406958 -0.405946 -0.650415
-0.651640 0.649438 0.053625
0.404737 -0.406125 0.054065
-0.649692 -0.054058 0.757847
-0.649503 -0.054505 0.757113
0.406565 0.295920 0.757840
0.759106 -0.054040 0.054164
-0.296913 0.649230 -0.297232
0.755975 0.650437 0.054521
-0.297664 -0.406989 -0.650331
0.054157 0.648579 -0.649234
0.053847 -0.053163 -0.650735
-0.650579 -0.056586 0.758008
0.406893 -0.405384 0.052410
-0.650325 -0.053747 0.758103
-0.295266 0.300121 0.758269
-0.650873 -0.757710 0.054352
0.054921 -0.053902 -0.650250
-0.650018 0.297841 -0.298043
-0.297446 0.296625 0.759244
0.054952 -0.053457 -0.646299
-0.297406 -0.407173 -0.649888
0.758136 0.297150 0.405210
0.405492 -0.406438 -0.652452
0.053974 -0.054223 -0.648565
0.406572 -0.407803 -0.648778
0.053996 0.650816 0.757871
0.053955 0.651471 0.054632
-0.298839 0.298499 0.760587
0.052185 0.649473 -0.650546
-0.648895 -0.759579 0.054126
-0.296435 -0.758376 0.404319
0.054977 -0.759460 -0.649553
-0.649518 0.295654 -0.298526
0.406488 -0.405168 0.053427
0.407352 -0.405977 -0.647706
-0.296159 0.649526 -0.297657
-0.650180 -0.052764 0.756881
0.052839 -0.053752 -0.650677
-0.650750 -0.759592 0.054260
-0.649659 -0.759036 0.054250
-0.650499 -0.407189 0.406704
0.053399 -0.405455 0.404805
-0.650401 -0.757741 0.054147
-0.298211 -0.405863 -0.650307
-0.298123 -0.406264 0.758411
0.406609 -0.407033 0.054831
-0.299657 0.649139 0.407052
-0.649805 0.296877 0.404287
0.055123 -0.757613 0.054674
-0.648012 -0.404001 -0.297023
0.405040 0.298299 0.757018
0.406221 0.650196 -0.296465
-0.648745 0.296254 -0.297773
-0.649082 0.298953 0.406003
-0.649347 -0.053507 -0.648855
-0.296673 -0.758199 -0.297791
0.405062 0.650301 -0.298001
-0.650256 -0.056448 0.757494
0.055145 -0.054480 -0.648330
0.053897 -0.054038 0.756508
0.053216 0.648573 0.053464
0.406153 -0.052492 0.404923
0.407286 -0.053569 0.405123
-0.648087 -0.055192 -0.649865
0.405142 0.298720 0.759289
0.404425 -0.405530 -0.648502
-0.299087 -0.403986 -0.649516
0.407129 0.299666 -0.648706
-0.298157 0.650812 -0.297409
0.054714 -0.758745 0.053423
-0.648681 -0.054834 -0.650857
0.407513 0.647988 -0.297312
0.405838 0.298829 0.758496
0.759039 0.296363 0.405941
0.405791 0.650361 -0.296479
-0.649105 -0.757371 0.054750
0.406564 -0.759175 -0.296541
-0.296989 0.649132 0.404417
0.053982 -0.758106 0.054062
-0.650470 0.297533 -0.296967
0.757805 0.298957 -0.298934
0.757477 -0.055155 -0.651122
-0.649354 -0.053644 0.052818
0.053448 0.651100 -0.649874
0.757281 0.649201 0.053869
-0.300094 0.297561 0.758590
-0.649679 0.650263 0.055050
-0.296319 -0.758058 0.406075
0.053996 0.648022 0.757304
-0.651228 -0.759469 0.055873
0.054977 -0.757228 0.053755
0.054327 -0.404977 0.406058
0.406655 -0.758557 -0.298644
0.054265 0.650410 0.054228
0.756394 -0.055131 0.055068
0.052866 -0.053636 -0.650282
0.757472 0.297010 0.408042
-0.648061 0.296659 -0.297448
0.407522 0.649075 0.405852
0.405890 -0.403348 0.053196
-0.647802 0.650264 0.055579
-0.648850 -0.757322 0.053190
-0.298081 0.647126 -0.298069
-0.297924 -0.404512 0.757878
0.404869 -0.053668 0.406365
0.757822 -0.054375 -0.650881
0.054143 -0.407068 0.406013
0.053767 -0.758870 0.056640
0.054409 -0.407297 0.406262
0.054565 -0.406523 0.406283
-0.648781 -0.407259 0.406244
0.756608 -0.053916 -0.650093
0.406587 0.649574 -0.297755
-0.649428 -0.406266 0.406650
