OFF
256 0 0
0.365378 -0.028932 0.379037
0.363469 -0.028134 0.381142
0.384581 0.291016 -0.638594
0.753116 -0.403675 -0.300206
0.390610 -0.396775 -0.644339
0.041538 0.636524 0.043729
-0.288980 0.284778 0.749621
0.050242 -0.048960 0.748444
0.048877 -0.048808 0.748791
-0.631836 -0.042421 -0.634053
-0.621872 -0.390569 -0.284299
0.072998 0.623803 0.762020
0.038406 -0.045211 -0.608944
0.753231 0.305922 -0.286938
-0.631530 -0.043585 -0.633092
0.752054 -0.404230 -0.301110
-0.630113 -0.045203 -0.634029
0.736286 0.644881 0.072050
-0.640326 0.286288 -0.277722
-0.301251 -0.391866 0.765681
-0.654529 -0.040636 0.054792
0.754404 0.306696 -0.287594
0.751610 -0.403849 -0.297882
0.052868 -0.752670 -0.637763
-0.631228 -0.041462 -0.634526
0.391247 -0.397534 -0.645738
0.042044 0.635021 0.044315
0.054928 0.649315 -0.642791
-0.630085 -0.044522 -0.634781
0.386250 0.290825 -0.637645
0.761927 -0.049375 0.044616
0.375202 0.622395 0.392121
-0.277193 0.633947 0.380550
-0.299919 -0.390227 0.762804
-0.631855 -0.044852 -0.634616
0.074391 0.623724 0.761603
0.363672 -0.029316 0.380845
0.389881 -0.745328 -0.300897
-0.626308 -0.395072 0.390337
0.735040 0.647491 0.071614
0.391576 -0.399028 -0.644490
0.055819 0.646357 -0.642995
0.054620 0.648023 -0.641448
0.750843 -0.044376 -0.630585
0.048746 -0.049092 0.748394
0.390511 -0.397105 -0.644141
0.072740 -0.408679 0.409744
0.751245 -0.045072 -0.629806
0.748185 0.279393 0.392216
0.377740 0.624067 0.390571
0.055555 0.647532 -0.643372
-0.307873 -0.756474 0.417692
-0.288294 -0.399492 -0.665085
-0.302215 0.637679 -0.304337
0.387418 0.291349 -0.639891
0.390143 -0.741626 -0.299538
-0.304399 0.637710 -0.303183
0.072206 -0.409871 0.411347
-0.305071 0.638734 -0.303757
-0.636855 0.654749 0.044114
-0.622327 -0.391403 -0.285212
0.041524 0.633098 0.044518
0.747731 0.280106 0.389885
-0.289627 -0.401928 -0.665606
0.071253 -0.407727 0.410490
-0.622917 -0.391347 -0.283958
-0.654147 -0.072080 0.751025
0.406250 0.630280 -0.282671
-0.655097 0.303537 0.405100
-0.290859 -0.400564 -0.665400
-0.652743 -0.041363 0.051719
0.735431 0.645124 0.072292
0.375687 0.621952 0.391725
0.397618 0.283729 0.748846
0.389782 -0.395862 -0.643272
0.752938 -0.045752 -0.632784
0.389625 -0.741769 -0.300789
0.405338 0.629256 -0.283376
0.070953 -0.409388 0.408870
0.037151 -0.044655 -0.606643
-0.639717 0.286003 -0.278238
0.735775 0.647608 0.072556
0.750406 -0.046305 -0.630861
-0.655187 0.302602 0.404107
-0.653991 -0.040590 0.052000
-0.275547 0.287784 -0.637652
-0.655689 0.301817 0.403820
0.749343 0.279865 0.389962
-0.655354 -0.073393 0.751810
-0.624806 -0.393356 -0.283384
0.406694 0.628485 -0.281450
-0.638691 0.653691 0.042065
0.393641 -0.399693 -0.644906
0.436737 -0.402230 0.047697
0.392520 -0.398040 -0.645088
0.050707 -0.048772 0.748581
0.365020 -0.028313 0.379767
-0.307712 -0.757617 0.417096
-0.622400 -0.390527 -0.283674
0.406261 0.629229 -0.282521
0.753143 -0.043606 -0.630916
-0.641433 0.287213 -0.278113
-0.654364 -0.039852 0.054578
-0.291437 0.281723 0.749931
0.073651 0.623939 0.760158
0.734001 0.645312 0.073284
-0.654859 -0.041034 0.053523
0.749004 0.279003 0.390319
-0.631777 -0.044013 -0.632027
-0.639842 0.653627 0.043281
0.363394 -0.028932 0.380690
0.733137 0.645596 0.071749
-0.303591 0.638007 -0.302362
0.398327 0.285219 0.746630
0.364825 -0.029327 0.378871
-0.657297 -0.074471 0.750896
0.048002 -0.050323 0.750499
-0.640487 0.287996 -0.277279
-0.309774 -0.757546 0.419152
0.751154 -0.044740 -0.632072
0.392511 -0.396827 -0.645173
-0.632320 -0.045016 -0.633891
0.362049 -0.028661 0.379489
-0.290087 0.282164 0.750463
0.748208 0.279673 0.389301
0.387859 0.291963 -0.637542
0.376191 0.622516 0.392343
0.762499 -0.050738 0.043721
0.053970 0.647259 -0.643110
-0.638306 0.651845 0.041051
-0.630811 -0.045469 -0.634567
-0.302469 -0.390417 0.763395
0.036588 -0.044784 -0.608042
-0.653327 0.303291 0.403408
0.753121 0.307601 -0.289208
-0.655188 0.304140 0.404387
-0.275949 0.290767 -0.636662
0.073807 0.623479 0.761877
0.389299 -0.741620 -0.301722
-0.621487 -0.389589 -0.284818
-0.655489 -0.041015 0.052962
0.049491 -0.049860 0.749662
-0.628751 -0.749696 0.038003
-0.653293 -0.041916 0.052646
0.749353 0.280740 0.389999
0.405460 0.626462 -0.282912
0.055574 0.648538 -0.643518
0.735507 0.647255 0.072805
0.070725 -0.408806 0.409514
0.406865 0.629773 -0.281344
-0.640801 0.651984 0.041363
-0.653911 -0.070847 0.751355
-0.653245 0.300528 0.403714
-0.639709 0.285756 -0.278354
-0.641008 0.286886 -0.279535
0.387652 0.292587 -0.637952
0.036654 -0.045806 -0.607285
0.037929 -0.046357 -0.607362
-0.623071 -0.392303 -0.284988
0.041699 0.634744 0.043862
0.363359 -0.029285 0.379963
-0.631324 -0.044784 -0.633489
-0.308964 -0.756997 0.417527
0.036631 -0.044267 -0.607570
-0.278982 0.634588 0.380026
0.378644 0.620790 0.390947
-0.278118 0.634275 0.380185
-0.309453 -0.756518 0.418400
-0.654270 -0.040930 0.051570
0.386228 0.293025 -0.639782
-0.304541 0.637007 -0.301968
-0.641033 0.285790 -0.276738
0.070188 -0.409299 0.409481
0.397824 0.282935 0.746258
-0.305550 0.638129 -0.303175
0.364006 -0.028781 0.379291
0.733763 0.643820 0.070827
-0.276338 0.290777 -0.637295
0.397620 0.282500 0.747627
0.760961 -0.051401 0.042921
-0.639243 0.285648 -0.276833
-0.625282 -0.394044 0.391045
0.385863 0.291888 -0.638764
-0.275751 0.288853 -0.640044
0.390876 -0.400038 -0.644802
0.752707 -0.403164 -0.298525
0.751825 -0.405196 -0.299338
0.047456 -0.756058 0.053098
0.754130 0.307346 -0.288095
-0.653093 -0.041834 0.050863
-0.657733 -0.072748 0.749925
-0.640397 0.284926 -0.278657
0.074128 0.623511 0.762035
-0.628565 -0.045275 -0.634876
0.397522 0.284397 0.747453
0.749692 0.281493 0.390247
-0.280230 0.635858 0.380067
-0.629967 -0.044313 -0.634697
0.364455 -0.028325 0.379519
0.753360 -0.046971 -0.632705
-0.275761 0.289232 -0.638654
-0.635928 0.652337 0.041676
-0.624321 -0.390996 -0.284462
0.403809 0.628196 -0.281125
-0.652021 0.304116 0.404333
0.435379 -0.400947 0.047904
-0.637447 0.653218 0.040831
0.390248 -0.743227 -0.301124
0.390575 -0.398528 -0.643229
0.434988 -0.399447 0.046047
0.754444 0.306862 -0.289553
-0.304703 0.638338 -0.305614
0.760975 -0.051160 0.043058
-0.276185 0.288973 -0.637902
0.735654 0.645373 0.073085
-0.282536 -0.732530 -0.301879
-0.654951 -0.075640 0.751798
-0.302064 -0.389435 0.762339
0.391191 -0.397081 -0.644979
-0.275898 0.289089 -0.638022
0.735267 0.648722 0.070485
-0.623868 -0.391762 -0.283774
-0.276179 0.288290 -0.636948
-0.639330 0.651834 0.041410
0.038054 -0.044957 -0.607509
0.385640 0.290275 -0.639142
0.750715 -0.046682 -0.631766
-0.307727 -0.756341 0.418885
-0.639465 0.286061 -0.277891
0.054173 -0.752837 -0.637381
0.390828 -0.398025 -0.644552
-0.630481 -0.046131 -0.633614
0.387658 0.292218 -0.638913
0.056167 0.648055 -0.642992
-0.630700 -0.043901 -0.636400
0.364550 -0.027748 0.382007
0.387855 -0.739692 -0.301426
0.054117 0.646226 -0.642301
0.756002 0.306296 -0.289806
-0.624463 -0.395439 0.389679
0.041850 0.633963 0.042569
0.396068 0.284981 0.748098
-0.282388 -0.730838 -0.300858
0.051856 -0.753098 -0.637525
-0.651596 0.303457 0.404028
0.405548 0.629141 -0.280723
0.749846 -0.045972 -0.632361
0.405489 0.626492 -0.279756
0.397764 0.284837 0.750001
-0.279087 0.634711 0.380382
-0.288009 -0.398574 -0.665699
0.052169 -0.752024 -0.637826
0.363349 -0.026924 0.379966
0.072351 0.622681 0.761081
-0.627967 -0.750120 0.037515
-0.301693 -0.389831 0.763987
