OFF
256 0 0
0.616565 0.117310 0.117852
0.616979 0.777457 0.117679
0.617828 -0.211996 0.446714
0.289396 -0.873181 0.118483
0.288350 0.777149 0.447335
-0.043777 -0.542304 0.778665
-0.043144 -0.212443 -0.873744
-0.044021 -0.874274 0.448537
0.619318 -0.212777 -0.212294
0.616784 -0.212701 0.447143
-0.372062 0.118747 0.445785
0.618789 0.447367 -0.212243
-0.374818 0.447697 -0.543682
0.286653 -0.216124 -0.542434
-0.704468 -0.212599 0.446499
-0.044267 0.779178 0.118414
-0.705523 -0.213334 -0.213501
-0.376449 -0.543960 0.448705
-0.375757 -0.544097 -0.213290
0.616975 0.116838 0.118124
0.617327 0.117227 -0.542106
0.288334 -0.873027 0.119186
-0.044752 0.777733 0.118910
-0.373579 0.447400 0.119100
-0.374169 0.115867 -0.872539
-0.376421 -0.212530 0.779035
-0.043606 0.117117 0.779390
-0.043681 -0.210340 -0.874839
0.287546 0.447915 -0.543999
-0.375948 -0.541829 0.448576
-0.705140 0.448701 -0.214100
0.620483 -0.212116 0.447743
0.618126 0.778161 0.117420
0.288090 -0.543447 0.446752
-0.374289 -0.544141 -0.213883
-0.044483 -0.542739 -0.542772
0.616482 -0.542324 0.116164
-0.044591 -0.211937 -0.874490
-0.374212 -0.544259 -0.213224
-0.374003 0.118832 0.447973
-0.373712 0.116418 0.446550
0.285278 0.779981 -0.212708
-0.706446 -0.212207 -0.213538
-0.703867 -0.542139 0.116966
0.618067 0.777811 0.117859
0.616380 0.777202 0.119153
0.618179 0.117150 0.118735
0.617384 0.117958 0.778305
0.287292 0.777412 -0.211767
0.617920 -0.544435 0.119818
-0.374300 -0.544759 -0.212005
-0.704503 0.116664 0.117462
0.285886 -0.874892 0.118326
0.285336 -0.543432 0.448124
-0.043690 0.116569 0.778883
-0.043551 -0.543322 -0.544981
-0.374359 -0.545041 -0.211446
0.286197 -0.543438 -0.211796
0.286031 0.446723 -0.543886
-0.045115 0.448140 -0.873827
-0.045802 0.448139 0.447338
0.616605 -0.213559 0.446483
-0.043866 0.448118 0.447092
-0.043624 -0.541647 -0.543905
0.616324 0.447251 -0.211387
-0.374134 -0.543999 -0.214978
-0.374786 0.118392 0.447581
0.286268 -0.543042 0.447993
-0.043793 -0.874379 0.447981
0.615892 0.777957 0.116077
0.616069 0.118864 0.116402
-0.043937 -0.544058 -0.542429
0.618001 -0.213370 -0.214775
0.616962 0.446943 -0.212337
-0.044892 0.448596 -0.873374
0.286571 0.777370 -0.211774
0.617410 -0.542750 0.116865
-0.045013 0.777777 0.115740
0.617598 0.447360 0.448521
-0.046033 -0.213253 -0.874439
-0.376890 -0.873666 0.116484
-0.375158 0.447291 -0.543217
-0.044055 -0.874004 0.447376
-0.043966 -0.213140 -0.875422
0.616794 0.116051 0.116821
0.284906 0.117397 -0.874334
0.617792 -0.542707 0.117184
-0.374908 -0.212653 0.779101
-0.044085 -0.542915 -0.543204
-0.704769 -0.211646 0.448747
0.286697 -0.542057 -0.211510
0.286412 -0.210221 -0.543931
-0.372653 -0.874948 0.117613
-0.042780 0.447569 0.447982
0.285688 -0.544114 -0.212308
-0.043589 0.778853 0.115472
0.618299 -0.544548 0.116712
0.287579 0.778175 -0.212896
0.616295 0.449345 -0.214031
-0.044030 0.778697 0.118315
0.285415 -0.543917 -0.213481
-0.043430 0.447922 0.447203
-0.375930 0.447816 -0.542818
-0.705542 -0.542864 0.117200
0.285607 0.779178 -0.212057
0.615917 0.117290 0.117967
-0.044050 -0.543211 -0.542616
-0.372913 0.116894 -0.873547
-0.044759 -0.873970 -0.213535
-0.373186 -0.213898 -0.545494
-0.044969 0.118140 0.778700
-0.374828 0.446419 0.115989
0.617154 0.450449 -0.213847
0.285438 0.449184 0.779630
-0.375880 -0.543623 0.446471
-0.044007 0.447581 0.448686
0.287820 0.778655 0.447822
0.616216 0.119716 -0.542349
-0.372411 -0.543644 -0.212657
0.286964 -0.543090 0.446556
0.287093 0.777908 -0.213749
0.285769 0.447427 0.778130
0.286392 0.777001 -0.213533
-0.702576 -0.541639 0.117239
0.616132 0.117987 0.778704
0.285233 -0.212516 0.778649
0.616396 0.116131 0.778435
-0.374389 -0.540927 0.447220
-0.374900 0.448706 -0.544590
-0.043803 -0.215553 -0.874676
0.287514 -0.211719 0.777713
0.286977 -0.212331 0.779107
0.615885 -0.213399 -0.214999
-0.043645 -0.212636 -0.871913
0.617390 -0.213444 0.447664
-0.375750 -0.544420 -0.212360
-0.044548 0.778679 0.118102
0.616557 0.116960 0.117438
-0.374046 -0.213982 0.777280
0.617045 0.116824 -0.542406
-0.374674 0.448200 0.117940
-0.373550 -0.543604 0.448823
-0.703596 -0.542922 0.117067
0.285989 -0.875152 0.117154
-0.704565 0.449506 -0.213395
0.616724 0.116139 0.115212
0.288407 0.447236 0.778326
0.285991 0.778241 -0.212768
-0.042645 0.447303 -0.875053
-0.044047 -0.544775 -0.544786
-0.374770 -0.212343 0.778002
-0.043486 0.446942 -0.873512
0.287369 -0.543530 0.447180
-0.374180 -0.214413 0.778874
0.287087 -0.213398 0.778196
-0.374752 0.448233 0.117961
0.286814 -0.544777 0.447069
0.286049 -0.214244 -0.542851
0.615619 -0.213402 -0.212769
0.285831 0.448385 -0.542051
0.285420 -0.542919 -0.211687
-0.374459 0.117097 -0.872327
0.286316 -0.874211 0.116397
0.618166 0.116693 0.779347
-0.373949 0.447071 0.117125
0.616077 0.448187 0.447108
-0.705944 0.116595 0.116709
0.617086 -0.213728 0.446540
0.616627 0.119452 -0.543369
-0.375647 -0.213000 -0.543025
-0.375712 -0.543074 0.447349
0.615610 0.117119 0.780176
-0.376020 -0.874157 0.119011
0.286261 0.448623 0.776647
-0.704336 0.117852 -0.543745
0.616446 0.447930 0.447924
-0.376826 -0.541999 0.448110
0.286510 0.779530 -0.211811
-0.705804 -0.213724 0.448930
-0.043033 0.777500 -0.543127
-0.706284 -0.213307 -0.213120
-0.044547 0.117628 0.777601
0.617649 0.119407 -0.542369
0.616479 -0.543742 0.117234
-0.375929 -0.873704 0.117556
-0.705403 -0.210910 -0.213101
-0.704844 0.118217 0.115416
-0.376391 0.448490 0.119983
0.615791 -0.214035 0.447031
0.617220 0.117556 -0.542198
-0.375137 0.779400 -0.212457
0.617361 0.777749 0.116498
-0.043788 -0.874044 -0.211790
0.617601 -0.543674 0.120414
-0.373884 -0.872602 0.117108
-0.044475 0.777294 -0.544389
-0.375655 0.448812 0.117295
-0.705056 -0.214035 0.448538
0.288422 -0.543627 -0.211784
0.618271 -0.543336 0.117688
-0.376592 0.777231 -0.213390
-0.374523 -0.213491 -0.543894
0.616539 -0.214072 -0.214267
0.615893 0.778706 0.119540
0.618253 0.117932 -0.543863
0.617134 0.445739 -0.212065
0.286347 0.118592 -0.872314
-0.044656 -0.214682 -0.872535
-0.044075 -0.873971 -0.213798
0.617647 0.777012 0.117458
-0.703850 -0.213639 -0.211974
0.287252 0.448261 0.777916
0.616079 -0.213750 -0.212341
0.286848 0.448547 0.778275
-0.042647 -0.873600 0.446111
0.285796 -0.543063 0.449654
0.285257 0.779696 0.447542
0.286054 0.116968 -0.873759
0.286832 0.118580 -0.871397
-0.042570 -0.873106 0.445711
0.285375 0.777925 -0.214321
-0.044091 -0.873565 0.448565
0.614900 0.118120 0.777995
0.284460 0.117945 -0.872682
-0.375179 -0.213567 0.779830
-0.372621 -0.213997 0.778698
0.616576 0.777173 0.117321
-0.703465 0.117757 -0.542704
0.616198 0.116448 0.777867
-0.705047 -0.210766 0.447039
-0.043396 0.778636 0.116770
0.287008 0.447782 0.778378
0.615700 0.118218 0.778527
0.614888 -0.215029 0.447852
-0.043962 -0.873065 0.448692
0.286473 0.778775 -0.214527
-0.043644 0.778544 -0.544239
-0.044830 -0.873863 0.448152
-0.044939 0.446883 0.446252
-0.704305 0.116647 0.118401
-0.044308 -0.212236 -0.873244
-0.042336 -0.544728 0.778840
-0.043829 -0.211094 -0.874242
-0.372094 -0.873806 0.117512
0.286971 -0.213023 -0.542326
0.617868 0.115867 -0.544094
-0.375717 0.116460 -0.874326
0.616359 -0.212855 -0.213026
-0.374131 -0.214234 -0.543744
-0.374533 0.117473 0.447145
0.616261 0.775896 0.117205
0.617464 -0.212242 -0.214517
-0.043951 0.117826 0.776705
0.286655 -0.213699 -0.543593
-0.375075 0.118093 0.447877
-0.704243 -0.212558 0.447386
