OFF
256 0 0
0.268866 -0.534007 0.411285
-0.694412 0.111329 -0.503595
-0.377846 -0.554331 0.453572
-0.377272 -0.861305 0.123144
0.582355 0.445010 0.404643
-0.027394 0.420309 0.430694
-0.033155 0.771065 -0.530126
-0.684094 0.445087 -0.182785
-0.669279 -0.208605 -0.188253
-0.048604 -0.531589 -0.522578
-0.716809 -0.225473 0.455642
-0.041698 -0.209186 -0.878619
0.253129 -0.200852 -0.529373
-0.716777 -0.224323 0.457165
-0.031171 -0.521375 0.737721
-0.051093 -0.847116 0.429654
-0.365862 -0.196407 -0.529346
-0.029317 0.420855 0.432373
-0.042544 -0.208659 -0.878928
0.607867 -0.203043 0.435283
0.608879 0.438501 -0.213504
-0.032396 -0.521611 0.737367
-0.350328 0.422824 0.114358
-0.052284 -0.847671 0.427798
0.622767 0.774460 0.112491
0.621576 0.102121 0.097579
-0.374399 -0.207042 0.773079
0.280532 0.771483 -0.206616
-0.350593 0.419917 0.115748
-0.698364 -0.534803 0.131393
-0.351460 0.422538 0.114566
-0.042206 -0.209897 -0.876666
0.622844 0.100926 0.098136
-0.041740 -0.209001 -0.876647
-0.365369 -0.195602 -0.529510
-0.027108 0.420595 0.432375
0.564071 0.123706 0.763381
0.292558 0.441538 -0.532236
0.261358 0.755343 0.425352
0.583278 -0.197012 -0.195526
-0.343707 -0.548663 -0.186761
-0.040980 -0.866305 -0.189243
-0.694345 0.093935 0.125846
0.277484 -0.544645 -0.199470
-0.038423 -0.864370 -0.187757
0.583546 -0.197110 -0.197605
-0.378970 -0.552967 0.452731
-0.051766 -0.845274 0.429131
-0.356391 0.116651 -0.843444
-0.353270 0.754520 -0.216155
0.621400 0.101222 0.099087
0.622914 0.776772 0.113723
0.280908 0.773606 -0.207556
0.298041 -0.221080 0.730949
0.582798 -0.198655 -0.197176
-0.683179 0.444449 -0.184611
-0.026326 0.111346 0.749746
-0.025713 0.112206 0.750591
-0.037960 -0.865549 -0.189624
0.563450 0.124350 0.765764
-0.033762 0.770983 -0.531545
-0.031836 -0.520673 0.739540
0.299261 -0.221323 0.730619
-0.039042 -0.865798 -0.188858
-0.377543 -0.553477 0.452201
-0.033215 0.770991 -0.530961
-0.353248 0.753997 -0.214563
-0.671563 -0.208484 -0.189222
-0.031746 -0.520641 0.738671
-0.343091 -0.546865 -0.185797
-0.714974 -0.223930 0.456568
-0.371486 0.101002 0.431779
-0.369175 0.101155 0.428922
-0.050074 -0.845304 0.427750
0.271407 -0.535263 0.410166
-0.696622 -0.534354 0.128737
0.563935 0.124911 0.763772
0.609225 -0.200387 0.437409
0.622294 0.101639 0.099059
0.563598 0.124215 0.762465
0.563058 0.124750 0.764392
-0.715955 -0.224114 0.455809
-0.027357 0.112226 0.751230
0.254333 -0.201247 -0.530678
0.263244 0.756166 0.425234
0.609268 -0.202150 0.435012
0.270829 0.138627 -0.856231
0.581899 -0.197563 -0.196889
0.621220 0.101032 0.097748
0.268661 -0.534938 0.411316
0.584130 0.445091 0.405459
-0.026108 0.111797 0.749718
-0.033879 0.771524 -0.530116
-0.349925 0.419222 0.112278
-0.350293 0.421938 0.115746
0.282474 -0.866103 0.123042
0.621139 0.774357 0.113516
-0.040146 -0.864576 -0.187229
-0.354413 0.116243 -0.842035
-0.693310 0.111771 -0.502244
-0.354455 0.754554 -0.214729
-0.351577 0.443876 -0.534469
-0.049629 -0.846198 0.430287
0.620282 0.775018 0.112632
-0.027836 0.421869 0.432923
0.276754 -0.542932 -0.197591
0.268763 0.136468 -0.856368
0.582947 0.445740 0.407388
-0.342775 -0.547393 -0.185906
0.622146 0.103237 0.097480
-0.043895 -0.209681 -0.875460
-0.344666 -0.548373 -0.186484
-0.716888 -0.223527 0.456906
0.620565 0.101798 0.097219
0.278061 -0.545757 -0.198381
0.582020 0.444302 0.407262
-0.351869 0.445758 -0.532943
-0.040702 0.767249 0.106667
0.270316 0.448230 0.755078
-0.032672 -0.522800 0.739282
-0.033865 0.772264 -0.530380
-0.026462 0.111945 0.753504
-0.356727 0.115591 -0.842075
-0.047700 -0.530474 -0.520755
0.298095 -0.221467 0.730306
-0.366690 -0.194629 -0.529781
-0.716205 -0.224230 0.457762
0.292504 0.438927 -0.531636
-0.695263 0.093462 0.129242
-0.039954 -0.863906 -0.188884
0.299109 -0.219309 0.731051
-0.039387 -0.866443 -0.189016
-0.356401 0.114901 -0.845143
-0.045818 -0.529947 -0.521188
-0.369242 0.098532 0.430054
-0.052417 -0.847045 0.430201
-0.352827 0.445734 -0.532873
0.294392 0.440494 -0.532075
-0.351394 0.444055 -0.533370
0.253431 -0.199743 -0.529999
0.264673 0.754908 0.423448
-0.373275 -0.208719 0.774274
-0.351582 0.754754 -0.214335
0.277541 -0.543816 -0.200447
0.281728 0.772780 -0.205611
-0.698891 -0.533611 0.129267
-0.343314 -0.546211 -0.187837
0.269792 0.137330 -0.855830
0.263532 0.756664 0.425438
-0.377866 -0.860378 0.123767
0.620593 0.776435 0.112969
0.620622 0.101145 0.098183
0.622642 0.775739 0.114118
-0.353111 0.756095 -0.215184
0.298036 -0.221136 0.730703
-0.026733 0.420208 0.431032
0.264026 0.754885 0.423536
-0.682997 0.445084 -0.184477
0.595105 -0.512700 0.109936
-0.351423 0.421542 0.114917
0.270299 -0.534616 0.410718
-0.379520 -0.551975 0.453426
-0.343957 -0.547045 -0.188327
0.620468 0.102436 0.097731
0.563239 0.122806 0.765538
-0.353966 0.118292 -0.844294
-0.717823 -0.224512 0.456502
-0.673140 -0.208462 -0.189742
-0.032349 -0.518383 0.737778
0.607752 0.131601 -0.544218
-0.026705 0.111020 0.752470
-0.364720 -0.197015 -0.531411
-0.344385 -0.547106 -0.187308
-0.027302 0.110854 0.751872
-0.049592 -0.847340 0.428360
-0.041460 -0.208569 -0.876987
-0.672026 -0.208178 -0.189004
0.269459 -0.534713 0.410653
-0.026453 0.419804 0.432983
0.269041 0.137403 -0.857852
-0.696524 -0.534080 0.129522
0.268171 0.447771 0.755571
-0.024499 0.111803 0.749637
0.623146 0.773912 0.112355
-0.692789 0.093583 0.127621
0.562743 0.125576 0.763785
0.611164 -0.199899 0.437081
0.607441 0.438294 -0.215103
-0.351412 0.421492 0.112439
-0.025332 0.110206 0.750952
0.583948 0.444804 0.407257
0.269310 -0.534172 0.409649
-0.352270 0.756000 -0.214099
-0.041924 -0.208591 -0.877000
0.298513 -0.220601 0.729289
0.268641 -0.534500 0.411798
0.269380 0.448004 0.757039
-0.716595 -0.224296 0.455642
-0.379607 -0.551595 0.452989
0.621252 0.102570 0.096020
-0.027457 0.420837 0.432664
0.270160 -0.534671 0.412308
0.562394 0.124433 0.764272
0.269084 0.448928 0.755164
0.607804 0.131413 -0.545019
0.253447 -0.200148 -0.533379
0.564682 0.123745 0.764375
-0.042809 -0.209116 -0.876530
0.298598 -0.220895 0.730154
-0.671436 -0.207811 -0.188670
0.282041 0.770319 -0.207062
0.268188 0.448569 0.755945
0.622615 0.776029 0.112460
-0.693817 0.093317 0.125706
-0.349467 0.421193 0.115677
-0.697953 -0.534770 0.130349
-0.691361 0.109290 -0.502884
0.271113 0.138501 -0.855512
0.583869 0.445168 0.405714
-0.683337 0.444350 -0.183185
-0.032945 0.456535 -0.857210
-0.371724 0.099971 0.428828
-0.693442 0.094000 0.125835
0.262153 0.756017 0.425729
-0.670245 -0.208302 -0.188472
-0.683281 0.444828 -0.185326
-0.373029 -0.206968 0.772963
-0.026350 0.419655 0.431314
-0.032555 -0.520739 0.738116
-0.031878 0.771320 -0.530040
-0.031896 0.457993 -0.855560
0.280050 -0.544303 -0.201163
0.262438 0.756460 0.425363
0.594063 -0.512009 0.107799
-0.372667 0.100329 0.432279
0.283284 -0.866637 0.122946
-0.374392 -0.208108 0.771962
-0.043306 -0.208368 -0.877362
-0.377378 -0.861720 0.123048
0.563513 0.126179 0.762285
-0.026239 0.112485 0.750404
-0.342953 -0.546420 -0.187199
0.297940 -0.220709 0.729758
-0.351897 0.445155 -0.531366
-0.695892 0.093876 0.127652
0.566065 0.123724 0.765880
-0.697824 -0.532652 0.130734
-0.032989 0.456449 -0.856924
0.582455 -0.199099 -0.195484
0.283990 -0.865184 0.122124
-0.364756 -0.195216 -0.530912
-0.671374 -0.209665 -0.189488
0.254349 -0.200902 -0.529384
-0.670928 -0.210484 -0.186218
-0.050633 -0.847369 0.429226
-0.342108 -0.548172 -0.186691
