OFF
256 0 0
-0.728249 -0.201170 -0.206047
-0.698459 -0.198130 0.446903
0.610145 0.432636 0.428788
-0.382665 -0.202266 0.795400
0.621053 -0.545077 0.101585
-0.360168 -0.850676 0.127434
0.615458 0.105812 0.113800
0.637184 -0.210168 -0.210717
-0.368734 0.107710 -0.868115
0.615423 0.136618 0.764778
-0.036146 0.463487 0.445437
0.614294 0.431454 0.428207
-0.729408 -0.201110 -0.206803
0.296692 0.426648 0.784796
0.611097 0.432661 0.427594
-0.708994 0.122411 -0.533415
0.297300 0.769137 -0.201120
0.612914 0.434689 0.427574
0.301956 -0.212635 -0.540424
-0.034597 -0.874497 -0.220279
0.622178 -0.545942 0.100463
-0.361387 -0.851006 0.129696
0.635984 0.762332 0.117527
0.623600 -0.547556 0.100586
-0.378121 -0.551636 -0.222576
0.288912 0.107185 -0.876232
0.260765 -0.874346 0.108063
0.297229 0.427545 0.785359
0.261219 -0.873110 0.107194
0.619158 0.433647 -0.221890
-0.056106 -0.858440 0.439472
-0.056300 -0.857897 0.439717
0.622164 -0.543588 0.101208
0.290250 -0.194878 0.782339
-0.384155 -0.201606 0.796373
0.638676 -0.211313 -0.209730
-0.063162 0.750500 0.106424
-0.050751 -0.519368 0.774945
-0.381760 0.124707 0.450404
0.637113 -0.208588 -0.210506
-0.350636 0.414828 -0.505405
0.615762 0.134122 0.764367
-0.383892 0.123717 0.451705
0.297939 0.426080 0.782589
-0.699167 -0.196981 0.449174
-0.370858 -0.204124 -0.548163
0.637039 -0.210886 -0.209187
0.638303 -0.211808 -0.210300
-0.062260 0.752626 0.106119
-0.353781 -0.522525 0.460608
0.292978 -0.193491 0.783681
-0.035696 -0.873186 -0.222801
0.618304 -0.238957 0.426399
0.297309 0.426782 0.783633
-0.362206 -0.850060 0.129749
0.302662 -0.211563 -0.538340
0.618074 0.136068 0.766123
-0.399855 0.768121 -0.219161
-0.350857 0.413253 -0.505775
0.260340 -0.873156 0.110056
0.301421 -0.213256 -0.540487
-0.378420 -0.552098 -0.222955
-0.370188 0.106323 -0.868009
0.290422 0.439437 -0.540407
-0.710784 0.122651 -0.534625
0.290930 0.107902 -0.876692
-0.045528 -0.523545 -0.555012
0.262199 -0.873932 0.107670
-0.397543 0.442283 0.133745
-0.046758 0.769675 -0.521989
-0.706888 0.438310 -0.190777
0.632221 0.114563 -0.536914
-0.043381 -0.525899 -0.553525
-0.727169 -0.199500 -0.207272
-0.051199 -0.520078 0.774502
-0.379166 -0.552418 -0.221487
-0.707955 0.122912 0.103494
-0.707207 0.123419 0.101112
0.291883 -0.195074 0.784904
0.616058 0.134759 0.765356
0.613021 0.434821 0.426807
0.613266 0.432881 0.428447
-0.059639 -0.197362 -0.887923
-0.705680 0.437871 -0.190091
-0.710371 0.124453 0.101675
0.638014 -0.210177 -0.210686
-0.044565 0.769076 -0.521704
-0.058110 -0.199132 -0.888310
-0.704121 0.438672 -0.190456
0.635989 0.763597 0.116050
0.622989 -0.544707 0.102812
-0.383144 -0.202654 0.796766
-0.036726 0.463272 0.445215
-0.707850 0.123088 0.100221
0.633624 0.110995 -0.536755
-0.051470 -0.517600 0.775542
-0.052423 -0.516219 0.774358
-0.705785 0.439395 -0.191071
-0.397871 0.768590 -0.219888
-0.051110 0.430152 -0.858666
-0.702149 -0.536052 0.129546
-0.706449 0.122411 0.100443
0.291354 -0.196533 0.784681
0.612491 0.433496 0.429695
-0.698655 -0.194441 0.448063
0.298326 0.769282 -0.202733
0.291149 0.441568 -0.542183
-0.056151 -0.857808 0.436688
-0.361723 -0.852517 0.128863
-0.381895 -0.204896 0.796271
0.615129 0.105463 0.113120
-0.050004 0.431192 -0.861259
-0.709907 0.122832 -0.532128
-0.354178 -0.523404 0.459627
0.298056 0.776009 0.420054
-0.055371 0.131561 0.779081
-0.061710 0.753687 0.106918
0.616665 0.434955 -0.224479
0.298033 0.775990 0.420512
0.261046 -0.873991 0.106410
-0.729875 -0.199910 -0.207255
-0.049507 0.430858 -0.858773
0.613480 0.433461 0.426120
-0.400441 0.766574 -0.218172
0.274887 -0.543985 0.442961
0.291378 -0.194948 0.783581
-0.369218 -0.202528 -0.548824
-0.034635 -0.871799 -0.223506
-0.046521 0.767748 -0.521989
-0.062558 0.750595 0.107033
-0.700136 -0.195020 0.447246
-0.033262 -0.872401 -0.223265
0.296666 0.427742 0.785360
-0.044651 0.769208 -0.524692
0.272622 -0.546346 0.443355
0.636459 -0.211829 -0.210451
0.289101 0.108925 -0.875575
-0.043326 -0.524740 -0.553804
-0.698021 -0.197565 0.448365
-0.727782 -0.200505 -0.206240
0.619460 -0.236993 0.426741
-0.050094 0.431052 -0.858737
-0.351838 0.413791 -0.505165
0.299432 0.428287 0.785132
-0.062870 0.752737 0.107579
0.297969 0.428212 0.783523
-0.060453 -0.196191 -0.889040
-0.382782 -0.204314 0.796373
-0.383690 0.123212 0.451386
0.616932 0.435184 -0.221798
-0.381451 0.122997 0.450465
-0.055825 0.131698 0.777462
-0.055405 -0.858727 0.440680
0.617660 -0.236834 0.427923
-0.043575 0.769960 -0.522273
-0.033247 -0.873363 -0.221786
0.637015 -0.209487 -0.211018
-0.710228 0.122341 -0.533285
0.636626 0.761985 0.118979
0.297895 0.770224 -0.202409
-0.706198 0.437160 -0.189001
-0.706673 0.122959 0.100759
-0.701024 -0.537325 0.128798
0.623416 -0.544585 0.100568
-0.353748 -0.525061 0.457118
0.298347 0.776395 0.420558
-0.708026 0.122124 0.099509
0.300507 -0.211808 -0.539065
-0.371504 -0.200439 -0.548491
-0.034153 -0.873486 -0.223158
-0.058975 -0.197469 -0.889235
0.637226 -0.210264 -0.212977
-0.396831 0.442149 0.132103
-0.728741 -0.201887 -0.206318
-0.700500 -0.537065 0.126513
-0.711682 0.121758 -0.532863
-0.056232 -0.858712 0.441237
-0.362589 -0.852231 0.129186
0.290152 -0.194270 0.785272
0.614732 0.135511 0.764252
-0.058218 -0.198788 -0.887844
-0.057229 -0.860317 0.439436
-0.370737 -0.203075 -0.546279
-0.038249 0.463329 0.446253
0.290563 0.441367 -0.541127
0.612287 0.432925 0.427251
0.290981 -0.195169 0.783340
-0.034611 -0.872390 -0.223193
0.632698 0.112845 -0.537857
-0.363027 -0.850920 0.129047
-0.371324 0.106783 -0.868257
-0.059729 0.750821 0.108231
-0.036295 -0.871974 -0.222998
-0.058910 -0.197125 -0.889323
-0.361040 -0.850104 0.128169
-0.351851 0.414098 -0.506182
0.289284 0.439836 -0.541842
-0.048774 -0.520037 0.775340
-0.360828 -0.851358 0.127371
-0.378300 -0.552761 -0.221998
0.617757 0.135821 0.765545
-0.355206 -0.524245 0.459032
-0.398377 0.444532 0.132551
-0.705817 0.437930 -0.191240
-0.055377 0.131867 0.775376
0.298374 0.427808 0.785298
-0.361035 -0.851006 0.126985
0.617424 0.435161 -0.221546
-0.398618 0.442769 0.133766
-0.350748 0.413187 -0.505258
0.289296 0.440702 -0.540605
-0.362728 -0.853552 0.127345
-0.706644 0.122202 0.099398
0.611021 0.432913 0.425048
-0.705297 0.439304 -0.189186
0.637499 -0.211721 -0.209972
-0.382093 0.122027 0.450331
-0.354731 -0.524003 0.458795
0.618261 0.433815 -0.219595
-0.354876 -0.522533 0.460440
-0.354692 -0.522351 0.458333
0.295500 0.770691 -0.201889
-0.728013 -0.201537 -0.207221
0.623565 -0.546702 0.102474
-0.710729 0.122401 -0.531505
0.291947 0.440564 -0.541153
0.639258 -0.209067 -0.210132
0.636525 0.762112 0.118311
-0.398794 0.443679 0.134283
0.274767 -0.545761 0.442456
0.611817 0.434611 0.429933
-0.050030 -0.518772 0.775019
0.632747 0.111686 -0.538222
-0.058783 -0.198241 -0.888155
0.639237 -0.212106 -0.210173
-0.400768 0.443636 0.134491
-0.378396 -0.552243 -0.220283
-0.397494 0.441921 0.134269
-0.709435 0.121983 -0.532480
0.291952 0.438105 -0.540961
-0.050868 0.431832 -0.860877
-0.701091 -0.536560 0.128632
-0.062015 0.752035 0.106920
0.618329 0.104848 0.114633
0.619028 0.436101 -0.221297
-0.355041 -0.522776 0.459854
-0.351231 0.413390 -0.504299
-0.035115 -0.873574 -0.222114
0.610803 0.432085 0.429080
0.622928 -0.545742 0.100493
0.298193 0.776420 0.421443
0.290950 -0.194734 0.786733
-0.398969 0.444737 0.133978
-0.702074 -0.536049 0.128718
-0.054564 0.131233 0.777645
-0.398804 0.767780 -0.220114
