OFF
256 0 0
-0.363543 -0.883499 0.113346
0.641266 0.119781 0.140397
-0.037607 -0.533428 -0.544156
-0.731032 0.456537 -0.216039
-0.731148 0.455629 -0.216777
0.284023 -0.878990 0.089107
-0.059827 0.436629 -0.857234
-0.046257 -0.870810 0.432236
-0.045993 -0.868775 0.435429
-0.695874 0.106039 -0.539579
-0.711169 0.113789 0.093846
-0.056108 -0.850252 -0.219288
0.289306 0.436853 0.791458
-0.710068 0.116162 0.091793
-0.369978 -0.527968 0.442344
0.614345 0.136763 -0.546722
-0.388738 0.096571 0.449118
-0.054573 -0.847455 -0.221353
0.270147 0.759670 0.460918
0.640202 0.119803 0.137432
-0.370983 -0.527644 0.441219
-0.047684 -0.870021 0.434440
-0.730950 -0.218887 0.451938
0.280345 0.129208 -0.898740
-0.049673 -0.868302 0.435252
-0.363071 -0.524489 -0.210394
0.281530 0.455533 -0.548999
-0.695190 0.105954 -0.537426
0.279997 0.128226 -0.896366
-0.369611 -0.212506 -0.554421
-0.367697 -0.214270 0.808810
-0.046275 -0.870937 0.435805
0.606656 0.459722 -0.224208
0.616304 0.132632 0.764954
-0.370287 -0.527577 0.442246
0.642283 -0.219137 0.454903
-0.047978 0.434248 0.450332
-0.363765 -0.880813 0.114790
-0.060746 0.436687 -0.855672
0.294085 0.782999 -0.218169
0.285047 -0.220717 -0.550739
0.297727 -0.545380 -0.213320
-0.696206 0.106389 -0.538251
0.292530 0.781784 -0.218263
-0.050644 -0.532236 0.763570
-0.704736 -0.225603 -0.234066
-0.046769 -0.870442 0.433914
-0.059508 0.435675 -0.856221
0.640476 0.121555 0.138324
-0.368521 -0.525807 0.442530
0.604020 -0.525488 0.119162
0.284155 -0.221263 -0.551044
-0.057021 -0.847989 -0.221501
0.626149 0.446237 0.447079
-0.356264 0.413917 -0.500956
-0.035929 0.788297 -0.514665
-0.733094 0.456701 -0.215726
0.295846 -0.546090 -0.214325
0.603645 -0.525038 0.119236
-0.050284 -0.531217 0.764756
-0.050370 0.101654 0.786926
0.284805 -0.880449 0.090784
-0.363709 -0.523140 -0.209119
0.640051 0.118591 0.138304
-0.060403 0.437022 -0.857288
-0.732932 0.454454 -0.216003
0.603544 -0.526183 0.120819
-0.366729 -0.216478 0.810554
-0.047794 0.435119 0.451265
-0.386495 0.098219 0.450838
-0.362967 -0.881542 0.111434
-0.367465 0.119535 -0.852792
0.614394 0.138788 -0.544593
-0.733206 0.456282 -0.217379
0.269278 0.762548 0.461134
0.613310 0.138165 -0.544518
-0.388406 0.096278 0.450174
-0.046479 -0.868074 0.432263
-0.389773 0.097154 0.450994
-0.360308 0.779251 -0.196080
-0.346447 0.427032 0.101200
-0.362279 -0.522652 -0.210641
-0.044504 0.788889 0.122075
-0.055264 -0.850011 -0.221356
-0.712314 0.115406 0.093599
-0.730606 -0.218484 0.454854
0.283993 -0.544663 0.432760
0.280481 0.128736 -0.898694
0.626704 0.445782 0.444890
-0.355567 0.413614 -0.500962
-0.371035 -0.527852 0.442477
-0.356306 0.411881 -0.501848
0.603926 -0.526473 0.120078
0.280340 -0.544424 0.431124
-0.731010 0.456382 -0.216211
0.294183 0.784173 -0.216650
0.270249 0.760932 0.458333
0.605998 0.458571 -0.222899
-0.358286 0.411555 -0.503275
0.626018 0.446011 0.444857
0.289295 0.436972 0.792850
-0.365992 -0.216897 0.808721
-0.363778 -0.526463 -0.209545
0.278546 0.128110 -0.896985
-0.696583 0.105428 -0.537255
-0.359457 0.779621 -0.196638
-0.047774 -0.869973 0.434326
0.280807 0.126807 -0.898620
-0.369914 -0.527675 0.441414
-0.732376 0.456625 -0.217272
-0.710807 0.115984 0.094747
-0.699167 -0.546881 0.114671
-0.730010 -0.219271 0.453339
0.295827 -0.545620 -0.215378
-0.730981 -0.221108 0.455561
0.607376 0.458861 -0.224149
-0.052174 -0.531676 0.764002
0.640261 -0.217503 0.454005
-0.359358 0.778229 -0.194597
0.640317 0.119423 0.137077
-0.048830 -0.532596 0.762260
-0.044166 0.791011 0.120232
-0.731577 0.457064 -0.216209
-0.049721 -0.532305 0.764550
-0.704255 -0.224869 -0.233298
-0.054903 -0.848591 -0.218503
-0.047595 0.433608 0.451167
-0.051565 0.101529 0.786806
-0.364114 -0.881423 0.113080
0.290530 0.437190 0.791845
0.285941 -0.878264 0.088491
0.616625 0.133476 0.765553
-0.045947 0.433740 0.451032
-0.366284 0.117323 -0.854274
-0.370957 -0.211648 -0.555690
0.281185 0.453230 -0.549659
-0.050342 -0.530279 0.763070
-0.734661 -0.218718 0.453755
-0.732897 0.454948 -0.216883
-0.050568 -0.530751 0.762651
0.626989 0.443663 0.447392
0.291613 0.783657 -0.218518
0.281639 0.453624 -0.548122
-0.037988 -0.531472 -0.544360
-0.704954 -0.227501 -0.233565
-0.060140 0.434722 -0.856125
-0.043245 0.790516 0.121300
-0.050342 -0.199253 -0.884563
-0.370175 -0.209806 -0.553477
-0.356725 0.778227 -0.197273
0.614695 0.137094 -0.546441
-0.368404 -0.209823 -0.555394
-0.044467 0.791280 0.121284
0.281735 0.452917 -0.547489
-0.368493 0.119344 -0.853468
-0.052887 0.101269 0.786057
-0.363723 -0.882457 0.112081
0.290904 0.436578 0.794361
-0.050327 -0.531384 0.763607
-0.034906 0.789595 -0.513348
-0.050681 0.101056 0.785763
0.609386 0.783436 0.123952
-0.348313 0.426591 0.103030
0.284685 -0.221287 -0.552254
-0.711144 0.117717 0.095389
-0.363682 -0.881681 0.112568
-0.045334 0.789573 0.120384
-0.389258 0.096153 0.450515
-0.369398 -0.526460 0.442671
-0.363363 -0.524359 -0.210979
0.626105 0.446507 0.445368
-0.369947 -0.526981 0.441778
-0.050651 0.102641 0.787600
0.609604 0.781929 0.124358
-0.046857 -0.871556 0.435779
0.302170 -0.197492 0.775153
0.301856 -0.198096 0.773954
0.279994 0.451841 -0.548565
0.290390 0.435748 0.793558
-0.044948 0.788466 0.120273
0.624499 0.445657 0.445444
-0.371835 -0.528609 0.441849
-0.712777 0.115980 0.093298
-0.036005 0.790563 -0.513847
-0.362778 -0.526684 -0.208097
0.267791 0.762007 0.461206
0.291741 0.782997 -0.217320
0.629231 0.445434 0.446154
-0.051005 -0.531829 0.763231
0.281844 0.451853 -0.549338
-0.047283 0.432989 0.450920
0.642528 0.121266 0.136364
-0.368202 0.117511 -0.852998
0.289586 0.435594 0.793706
0.617073 0.132578 0.763724
-0.348587 0.426244 0.102117
-0.039387 -0.532103 -0.545323
-0.362133 0.780477 -0.195956
-0.050724 0.101687 0.787868
-0.710796 0.115364 0.095949
0.605305 -0.527213 0.120769
0.288805 0.436610 0.792814
0.281369 0.454014 -0.548363
-0.365114 0.120545 -0.852337
0.614026 0.135729 -0.547444
0.281793 -0.545361 0.432232
0.292083 0.782929 -0.217555
-0.356314 0.412118 -0.503872
0.268342 0.761852 0.459170
-0.048950 -0.530406 0.761935
-0.060741 0.434650 -0.857295
0.297727 -0.546145 -0.213999
0.618495 0.132816 0.765118
-0.732615 0.458833 -0.214823
0.284579 -0.877982 0.089869
0.284419 -0.220896 -0.551057
-0.056236 -0.848583 -0.221533
-0.037436 -0.535692 -0.544959
-0.370119 -0.527076 0.442535
-0.367743 0.117975 -0.854131
0.641888 0.117680 0.137695
-0.050527 0.102436 0.787404
0.288989 0.436792 0.793337
-0.347157 0.426605 0.101009
-0.359779 0.779736 -0.195488
-0.358948 0.780770 -0.195627
0.604318 -0.527648 0.118864
-0.048470 -0.871957 0.434473
-0.055212 -0.850127 -0.220205
-0.036869 0.787750 -0.515461
-0.045405 0.790734 0.119581
-0.362672 -0.524898 -0.209924
-0.371189 -0.211596 -0.552954
0.279281 0.129794 -0.898361
0.604856 -0.527999 0.119440
0.615196 0.138586 -0.546466
0.606379 0.459653 -0.223935
-0.049773 -0.199848 -0.882848
-0.361300 0.779210 -0.194649
0.627518 0.445914 0.446279
0.627461 0.445170 0.445486
0.301274 -0.198721 0.773994
-0.050148 -0.201524 -0.884915
-0.388731 0.098829 0.449249
-0.049864 0.101531 0.787042
0.268012 0.762351 0.460119
-0.361863 -0.881650 0.113205
0.291053 0.435357 0.793506
-0.700762 -0.545936 0.113790
-0.046653 0.435725 0.452344
0.609200 0.783572 0.125884
-0.364363 -0.881497 0.113527
0.618018 0.131717 0.763725
0.627046 0.445308 0.445237
-0.388480 0.097031 0.451793
-0.047913 0.434085 0.451222
