OFF
256 0 0
-0.318232 -0.694208 0.392774
0.646799 -0.076429 -0.570304
0.649990 -0.071432 0.071660
0.324446 0.884983 0.057403
-0.344233 0.254264 -0.570190
0.031171 0.575161 0.700202
0.638861 -0.082628 0.704234
-0.312716 0.889982 0.071314
0.650209 -0.070274 0.072331
0.644254 0.570464 0.075385
-0.010222 -0.379438 -0.905810
0.651785 -0.706726 0.076206
0.030684 0.576638 0.702548
0.650566 -0.070443 0.072273
-0.336672 -0.386843 -0.580547
0.321875 0.884466 0.055714
-0.011033 -0.380738 -0.905132
0.638725 0.232623 0.402357
0.004559 0.901470 -0.241343
-0.648233 -0.383112 0.398382
-0.014867 -0.705773 0.059029
-0.017941 -0.706265 0.060143
-0.309928 0.570136 -0.263845
0.006535 -0.053256 0.704079
-0.631066 -0.692921 0.065566
-0.310617 0.887741 0.072428
0.000084 0.240545 -0.887100
-0.335920 -0.388119 -0.581137
0.319993 -0.705811 0.388874
0.316017 -0.721906 -0.253544
-0.647109 -0.380594 -0.237460
0.645998 -0.076181 -0.570534
0.639232 -0.080552 0.705321
-0.313250 -0.375626 0.701873
0.030841 0.577104 0.701700
-0.017360 -0.706188 0.061300
-0.630522 -0.692264 0.062977
0.649457 -0.708436 0.077997
0.007322 -0.056834 0.701846
-0.311052 0.569097 -0.263825
-0.336221 -0.386967 -0.578723
0.636035 0.233083 0.401354
0.636992 0.231776 0.403689
0.649158 -0.709030 0.078286
0.001720 0.242555 -0.886718
-0.345672 0.253004 -0.570147
-0.324783 -0.057434 -0.891851
0.629622 -0.392992 -0.250347
-0.657119 -0.062212 -0.571845
-0.638119 -0.049640 0.061772
0.003995 -0.708971 0.704878
-0.325689 -0.057052 -0.890756
0.307393 -0.384517 -0.584383
-0.648207 -0.381747 0.396157
0.003707 0.914212 0.391501
-0.650579 0.249100 0.398252
0.005815 -0.054899 0.705026
-0.312381 0.569685 -0.261318
0.639925 0.232926 -0.261723
0.029608 0.575876 0.699337
-0.294735 0.567941 0.385031
0.315028 -0.721668 -0.254798
0.319305 -0.393262 0.715871
-0.325962 -0.710683 -0.257933
0.004218 0.900360 -0.242637
-0.621092 -0.069387 0.695059
-0.334558 -0.386368 -0.581475
-0.343478 0.255128 -0.570304
-0.292544 0.569220 0.382471
-0.313545 0.890660 0.073404
0.348436 0.578068 0.390211
-0.645792 0.266430 -0.248913
0.004838 0.899326 -0.240489
0.001089 0.241246 -0.885360
-0.318492 -0.695085 0.393151
0.647089 -0.076106 -0.569408
0.006777 -0.055086 0.703049
-0.648685 -0.383164 0.395930
-0.629847 -0.692398 0.066145
0.005281 -0.708499 0.705278
0.006732 -0.054508 0.703181
-0.312559 0.569534 -0.263695
0.308618 -0.384934 -0.584109
-0.326566 -0.710579 -0.260817
0.645529 0.569434 0.075333
0.651076 -0.707689 0.077856
-0.326687 -0.709108 -0.261564
-0.017838 -0.704770 0.059105
-0.639423 -0.049779 0.063735
-0.648271 -0.380673 -0.238552
0.639013 0.235620 -0.259290
-0.312295 0.888901 0.071436
-0.315165 -0.375047 0.703521
0.324677 0.887855 0.056560
-0.638251 -0.048285 0.064827
-0.638722 -0.047677 0.062884
-0.335638 -0.385916 -0.581071
-0.010335 -0.379466 -0.903837
-0.313350 -0.375206 0.701977
-0.326172 -0.710872 -0.258654
-0.631163 -0.691848 0.066478
0.003750 0.914443 0.392128
0.630173 -0.392657 -0.246755
-0.638998 -0.048021 0.063269
-0.312752 0.568768 -0.264039
0.030164 0.574557 0.699407
-0.326595 -0.711343 -0.258466
0.003117 -0.707364 0.704684
0.310409 -0.384590 -0.584221
-0.009126 -0.692362 -0.579075
-0.620019 -0.067810 0.695245
-0.305084 0.263381 0.694210
0.652043 -0.070604 0.071832
0.315097 0.582623 -0.264226
0.004398 -0.709130 0.705199
0.003561 0.914331 0.392123
-0.639987 -0.045345 0.063542
-0.010472 -0.691102 -0.579343
-0.655883 -0.064326 -0.569623
0.320249 -0.706558 0.389409
-0.011474 -0.381262 -0.905191
0.637597 0.234863 0.404769
0.638613 -0.081083 0.705461
0.642293 0.569683 0.075993
-0.345929 0.253830 -0.572863
0.647754 -0.067972 0.071603
0.004145 0.912761 0.393548
0.318648 -0.394834 0.715566
-0.647268 -0.383078 0.398845
-0.646338 0.266931 -0.250112
-0.649908 -0.383758 0.399080
0.001610 0.241326 -0.884831
-0.651012 0.248022 0.398641
-0.292398 0.569640 0.380006
-0.639722 -0.047862 0.062455
-0.323566 -0.058319 -0.886306
0.348947 0.579339 0.388697
-0.646050 0.267275 -0.250333
-0.647691 -0.379947 -0.238224
0.006237 -0.056188 0.702260
-0.630509 -0.691423 0.066214
-0.017078 -0.707140 0.059725
-0.647193 -0.383134 0.396639
-0.314103 -0.378244 0.701525
-0.346196 0.253735 -0.570925
0.311919 0.240920 -0.582603
-0.311773 0.888672 0.071822
-0.304673 0.264626 0.693449
-0.312950 0.568895 -0.261411
0.005263 0.898593 -0.242597
-0.648384 0.267002 -0.251301
-0.312117 0.888960 0.072774
0.650360 -0.070162 0.072880
-0.649212 -0.380358 -0.238424
0.627104 -0.392103 0.387566
0.627323 -0.392718 0.387939
0.310744 0.240485 -0.580717
0.646048 -0.080110 -0.568948
-0.640448 -0.047548 0.062844
0.319154 -0.706203 0.390070
-0.320331 -0.694613 0.393987
0.638859 0.233439 -0.260247
-0.640805 -0.047004 0.062917
0.349532 0.578746 0.390335
-0.316949 -0.693569 0.392745
0.326677 0.244056 0.712852
-0.324525 -0.057652 -0.890013
0.310390 0.241399 -0.581822
-0.315427 -0.374042 0.702985
0.004423 -0.706516 0.705306
-0.293810 0.568414 0.382170
0.306034 -0.384812 -0.583680
0.639422 -0.085049 0.705964
-0.310439 0.569391 -0.261391
0.329655 -0.072147 -0.929026
-0.646392 -0.379022 -0.236183
-0.632521 -0.690015 0.065809
-0.311168 0.569803 -0.263913
0.349944 0.578682 0.392537
0.639981 0.232867 -0.260591
0.643163 0.569130 0.075796
0.315280 -0.719857 -0.253699
-0.335710 -0.388506 -0.582532
0.638861 0.234382 -0.260246
0.318307 -0.393077 0.715721
0.309551 0.241198 -0.580044
-0.631201 -0.692489 0.064396
-0.009123 -0.379353 -0.904273
0.005841 -0.053487 0.702448
0.326137 0.245596 0.712937
-0.639787 -0.048720 0.062224
0.321264 -0.706882 0.388199
0.320646 -0.706079 0.387721
-0.013889 0.570915 -0.574279
0.002697 0.911504 0.392627
-0.650647 0.250152 0.397464
0.029224 0.574096 0.699309
0.316488 0.583975 -0.265480
0.007616 -0.055652 0.700623
0.329433 0.244913 0.715942
-0.638771 -0.048816 0.062921
0.629725 -0.392315 -0.248176
0.002771 0.240516 -0.886158
0.002652 0.900721 -0.243309
-0.311511 0.570515 -0.263099
-0.345895 0.254863 -0.570544
0.646074 -0.074282 -0.569347
-0.631524 -0.692757 0.065970
0.330160 -0.073697 -0.931021
0.637143 0.234196 -0.260727
0.004046 -0.707982 0.705627
0.638957 0.234602 -0.261010
0.639797 -0.082666 0.705977
0.649959 -0.707429 0.075557
-0.316882 -0.693908 0.395073
-0.325612 -0.057400 -0.888159
-0.645832 -0.379721 -0.238854
0.319348 -0.706664 0.387083
-0.651876 0.567976 0.088154
-0.007661 -0.691137 -0.579930
0.646963 -0.077028 -0.570946
0.638500 -0.083444 0.704044
0.646486 -0.076833 -0.569752
0.650830 -0.708022 0.074523
0.650115 -0.068718 0.072404
0.316255 -0.723204 -0.254934
0.635528 0.232938 0.403575
-0.326858 -0.709909 -0.259277
-0.324167 -0.056476 -0.890059
0.639492 -0.083000 0.706018
0.317723 -0.722323 -0.255897
0.645374 0.570767 0.075211
-0.311022 0.570844 -0.263138
-0.345955 0.252973 -0.569195
-0.318433 -0.694805 0.391956
0.629061 -0.393346 -0.248063
0.314351 -0.720765 -0.253504
-0.319553 -0.695593 0.392963
-0.312550 0.889597 0.073473
-0.014168 0.571728 -0.575652
0.310175 0.240649 -0.582226
-0.018426 -0.706252 0.060533
0.649792 -0.708325 0.075553
0.632226 -0.393559 -0.249353
-0.314091 -0.376572 0.700930
-0.346480 0.253145 -0.570204
0.316219 0.583677 -0.265683
0.329261 -0.071833 -0.929981
0.634530 0.232726 0.404842
0.631712 -0.394106 -0.246382
0.309115 0.241341 -0.581993
-0.345827 0.255242 -0.570252
0.646715 -0.076678 -0.567653
0.324750 0.885964 0.056922
-0.640151 -0.049202 0.065706
0.314628 0.582030 -0.263627
