OFF
256 0 0
0.284515 0.564472 0.386194
-0.005717 0.885013 -0.250370
-0.006355 0.886306 -0.250644
0.631560 -0.057284 0.707048
0.003404 -0.070616 0.703466
0.636568 -0.055573 0.061181
0.330764 -0.722845 -0.243638
0.637458 -0.042642 -0.552337
-0.320026 -0.682210 -0.250369
-0.299663 0.234980 -0.569963
-0.642391 -0.074754 0.062772
-0.319626 -0.679704 -0.251735
-0.314386 0.230354 0.693522
0.286979 0.564687 0.388284
-0.636236 -0.390176 0.373096
0.637187 -0.043303 -0.552833
0.638823 -0.371253 -0.245044
0.284411 0.564822 0.387032
-0.322688 -0.681907 -0.251183
0.008349 -0.708065 0.708847
0.642731 0.264935 0.394608
0.324723 -0.069371 -0.882994
0.021703 -0.389727 -0.893497
-0.630317 -0.367902 -0.237368
-0.013822 -0.707611 0.046768
-0.004546 0.576998 -0.592360
0.326288 -0.377811 0.680933
-0.616425 -0.728061 0.061662
0.325620 -0.070284 -0.880157
0.325500 -0.069597 -0.882168
0.649460 -0.371509 0.370856
0.021069 -0.391958 -0.893218
0.330920 -0.722440 -0.242987
-0.003397 0.575521 -0.590588
-0.316151 0.230578 0.694993
-0.002262 0.577393 -0.590394
-0.003542 0.576787 -0.591587
-0.330551 0.574265 -0.252478
-0.634914 -0.389937 0.371758
-0.306536 -0.699770 0.379488
-0.006779 0.884703 -0.250881
0.021049 -0.392718 -0.894384
0.011263 -0.707585 0.705580
0.313814 0.558321 -0.242138
-0.320247 0.896187 0.074699
0.295386 0.231906 -0.555196
-0.317870 0.552098 0.369517
0.629737 0.574870 0.093858
-0.632884 -0.067108 0.689022
0.327567 -0.067878 -0.880047
0.638405 -0.040677 -0.553254
-0.004035 0.242950 -0.877575
-0.604321 0.244023 -0.272418
0.630249 0.574720 0.095519
-0.636094 -0.390472 0.371373
0.325351 -0.065922 -0.880204
-0.301479 0.234123 -0.572783
0.314853 0.903960 0.068121
-0.634066 -0.067747 0.691470
-0.299238 0.234962 -0.571474
0.295906 -0.687943 0.362703
0.285342 0.564636 0.387971
-0.008658 -0.712744 -0.575874
-0.604061 0.242953 -0.270923
0.332270 -0.725088 -0.242307
0.010467 -0.711039 0.705185
-0.308216 -0.699290 0.379320
0.294358 -0.364371 -0.522461
0.296913 0.229938 -0.553605
-0.637660 -0.391814 0.372862
0.629742 0.575556 0.094612
-0.618821 -0.728408 0.060013
0.325005 -0.067636 -0.879535
-0.003513 0.243337 -0.875218
0.331338 -0.723380 -0.243043
0.637696 -0.690445 0.065063
-0.007796 0.884484 -0.249883
0.629016 -0.061440 0.708191
0.294829 -0.362292 -0.521381
-0.644610 0.250544 0.382946
0.002627 -0.071647 0.702389
0.638832 -0.372378 -0.244688
-0.306869 -0.701428 0.378517
-0.320480 0.894471 0.074042
0.006386 0.897823 0.381493
0.629638 0.574025 0.094818
0.004723 0.898444 0.380475
-0.321351 -0.679798 -0.251924
0.635145 -0.041621 -0.553580
-0.646914 0.564521 0.066262
-0.635554 -0.067150 0.690032
-0.644161 0.251835 0.381295
-0.307516 -0.699687 0.379071
-0.646327 0.563435 0.065325
-0.630609 -0.369205 -0.236742
0.004740 0.899009 0.381065
-0.320149 -0.681835 -0.251623
0.638485 -0.371694 -0.243392
-0.007866 0.885271 -0.250767
-0.324010 -0.074436 -0.892993
-0.634964 -0.066591 0.687446
-0.302537 0.236482 -0.570348
0.326275 -0.068681 -0.881121
-0.634632 -0.389750 0.371995
-0.325769 0.574845 -0.251086
0.296224 -0.688568 0.363114
0.315404 0.261489 0.710699
-0.302066 0.234959 -0.568998
0.294429 -0.362851 -0.524732
-0.321901 0.895027 0.074843
0.003627 -0.071190 0.703959
-0.634230 -0.066993 0.689729
-0.317801 -0.364247 -0.592649
0.331588 -0.724186 -0.242561
0.656243 0.256053 -0.232612
0.639699 -0.040721 -0.551640
-0.007505 0.559764 0.703295
-0.648307 0.564038 0.064072
0.325601 -0.067929 -0.881835
-0.321890 0.894422 0.074821
-0.309398 -0.699966 0.379002
0.021332 -0.391271 -0.895076
-0.634738 -0.068110 0.688977
-0.637413 -0.065916 0.689871
0.316189 0.558122 -0.239838
-0.628208 -0.368350 -0.237160
0.315104 0.557117 -0.239900
0.636862 -0.042778 -0.552521
0.315249 0.258694 0.710959
0.297401 0.231686 -0.553084
-0.314292 -0.367306 -0.594170
-0.006866 0.882490 -0.250715
0.637333 -0.041521 -0.552938
-0.319790 -0.680546 -0.249804
0.655394 0.255739 -0.231426
0.643748 0.266597 0.394974
0.020118 -0.391935 -0.895057
0.295487 0.231134 -0.554476
-0.643082 0.250572 0.382887
-0.619169 -0.728649 0.059115
0.333111 -0.724554 -0.242552
-0.330984 0.574853 -0.252647
0.297061 0.231235 -0.553776
0.327867 -0.375707 0.683497
-0.320712 -0.680688 -0.252618
0.004591 0.897786 0.381659
0.005289 -0.072953 0.705874
0.003799 -0.072398 0.704533
0.313250 0.903699 0.067404
0.003503 0.898320 0.380752
-0.630128 -0.368933 -0.236844
0.295938 -0.363138 -0.523806
0.294774 -0.688278 0.362564
0.642366 0.266904 0.396618
-0.315673 0.230032 0.694919
-0.303171 0.232837 -0.569670
0.287788 0.563335 0.388215
0.636749 -0.057893 0.062748
-0.644366 0.564661 0.064205
-0.630181 -0.368806 -0.237933
-0.012611 -0.708193 0.046878
0.629418 0.575084 0.093875
-0.634894 -0.391189 0.373064
0.637274 -0.056154 0.059865
0.332483 -0.722590 -0.243778
-0.002742 0.243981 -0.876817
0.287745 0.564286 0.386850
-0.636228 -0.391480 0.373811
0.628665 -0.059693 0.708453
-0.303173 -0.390485 0.710667
0.627999 0.576322 0.094161
-0.004597 0.577405 -0.590718
-0.648054 0.564557 0.064778
0.631979 0.577474 0.095147
0.325631 -0.374227 0.683036
-0.314428 -0.364318 -0.592953
0.638895 -0.371315 -0.243226
0.630299 -0.059695 0.708956
0.639468 -0.370849 -0.245326
0.021558 -0.392106 -0.894281
0.316949 0.558175 -0.239488
0.315696 0.259468 0.710703
0.638567 -0.056060 0.062674
-0.013384 -0.709151 0.047315
0.638335 -0.054824 0.062019
0.004164 -0.071150 0.706249
0.637601 -0.040746 -0.553378
0.330814 -0.722896 -0.242061
0.315963 0.260210 0.711096
0.295017 0.232298 -0.553427
-0.640597 -0.073232 0.063862
-0.003445 0.243136 -0.874266
0.637142 -0.372749 -0.246166
-0.643914 0.250482 0.380222
-0.003513 0.574604 -0.589017
0.637881 -0.055484 0.060746
0.295100 -0.362038 -0.523539
-0.605502 0.243433 -0.272958
0.296577 -0.690044 0.362874
-0.317740 -0.364883 -0.592179
-0.012490 -0.709346 0.044813
0.296176 0.232561 -0.554432
-0.316851 0.552305 0.369591
-0.009600 -0.711759 -0.577967
0.628531 0.576029 0.095077
-0.316901 -0.366557 -0.591840
0.295563 -0.363919 -0.523488
0.650268 -0.370168 0.369766
0.639991 -0.372572 -0.243889
0.639705 0.265923 0.396535
-0.003194 0.243768 -0.874737
0.629510 0.574398 0.094259
-0.603103 0.242399 -0.271288
-0.313922 -0.364415 -0.594384
0.327060 -0.068601 -0.880075
-0.647892 0.565549 0.065529
-0.003117 0.575332 -0.590852
0.656629 0.255763 -0.231744
-0.006009 0.885510 -0.248902
0.636937 -0.042090 -0.551846
-0.633257 -0.067753 0.689902
0.650035 -0.370809 0.368895
-0.321681 -0.680109 -0.250716
0.316569 0.259114 0.709369
0.630810 0.573498 0.094176
-0.014614 -0.708703 0.046517
-0.320530 0.895339 0.074405
0.638272 -0.056710 0.059004
-0.013372 -0.708103 0.046714
-0.003204 0.243495 -0.874778
-0.008358 -0.712292 -0.578035
0.298480 0.230926 -0.553263
-0.302428 -0.388003 0.710242
-0.002902 0.242570 -0.875471
-0.618340 -0.728107 0.057583
0.326076 -0.066942 -0.880209
0.639200 -0.690237 0.065785
0.296080 -0.688922 0.360441
0.637852 -0.043468 -0.552200
-0.603483 0.241895 -0.270393
0.638596 -0.689852 0.064541
-0.631251 -0.368150 -0.237856
0.005416 0.897764 0.380559
0.643225 0.266988 0.395555
-0.302556 -0.390738 0.708866
-0.650875 -0.079118 -0.572931
-0.630406 -0.368443 -0.237376
-0.320576 0.894660 0.074317
-0.308990 -0.700126 0.378819
-0.617729 -0.728352 0.058184
0.649879 -0.370533 0.370221
-0.643599 0.250994 0.380722
-0.630034 -0.367434 -0.235559
-0.005456 0.242812 -0.875571
0.654474 0.256914 -0.231294
-0.303796 -0.390365 0.710165
