OFF
256 0 0
0.247159 -0.625100 0.317418
0.271426 0.338279 0.639791
0.237995 0.302315 -0.622704
0.568025 -0.318621 0.314624
0.603658 0.676080 0.012677
0.913098 -0.339786 -0.021415
-0.069844 0.661717 0.022749
-0.077739 0.627985 0.642438
0.940952 0.013232 -0.322508
0.248293 -0.623325 0.316684
0.928069 0.340191 0.010484
-0.072831 -0.632335 -0.661930
-0.408558 0.314654 -0.644974
-0.743370 0.330954 0.304959
-0.390069 -0.643809 0.335417
0.273061 0.338520 0.640887
-0.704814 0.661886 0.001386
-0.723752 -0.324065 0.341228
-0.725079 -0.321441 0.340780
-0.402264 -0.340219 -0.666390
-0.082110 -0.006173 -0.662399
-0.400833 -0.332505 0.662701
-0.078314 0.633080 0.643524
-0.072563 -0.631508 -0.662116
-0.390187 -0.644379 0.335572
0.271432 0.655256 0.316049
-0.403879 -0.654271 -0.330796
0.600027 0.677061 0.011971
-0.734376 -0.004572 -0.649816
-0.090859 0.650485 -0.652196
0.582874 -0.000669 -0.656708
-0.721807 -0.351635 -0.308515
0.568785 0.000351 0.644998
0.578779 0.322425 0.301652
0.242987 -0.323792 -0.645347
-0.072097 -0.630859 -0.663610
-0.051974 0.023943 0.649132
-0.722571 -0.351431 -0.311436
0.582351 -0.664944 -0.005629
-0.068589 0.661889 0.023993
-0.728493 -0.323731 0.341071
0.927733 0.339662 0.012685
0.939367 0.013029 -0.322654
0.241054 -0.311309 0.645604
-0.058226 -0.647886 0.652236
-0.725329 -0.004328 0.657062
0.939062 0.013472 -0.322699
-0.079369 -0.008323 -0.660988
-0.744558 -0.666864 0.015331
-0.704354 0.659668 0.001690
0.237747 0.300680 -0.622370
-0.408189 0.653137 0.338506
-0.080516 -0.008121 -0.660639
-0.737660 0.015392 -0.009907
-0.382539 0.647055 -0.325933
0.936974 0.011957 -0.320525
-0.727850 -0.322197 0.341968
-0.406427 0.652302 0.336212
-0.741035 0.015217 -0.010000
-0.409182 0.651146 0.337788
-0.740939 0.015930 -0.010759
-0.705230 0.659680 0.001764
-0.740325 0.329161 0.304576
-0.407387 0.652965 0.338883
-0.060852 -0.646727 0.653960
-0.742650 -0.666520 0.015378
0.921166 0.004543 0.327806
-0.077829 0.631778 0.643158
-0.060607 -0.648026 0.652155
0.272692 0.338847 0.641432
-0.705299 0.658889 0.002489
0.601773 0.673837 0.009554
0.603835 0.674727 0.010819
-0.404225 -0.340178 -0.667334
-0.403160 -0.339528 -0.665972
-0.060629 -0.646523 0.653013
-0.739757 0.014308 -0.010168
0.241055 0.300460 -0.623014
0.601910 0.346174 -0.330982
0.247666 -0.624816 0.316523
0.578392 0.322192 0.302694
0.272494 0.653393 0.319884
-0.411383 0.316140 -0.643884
-0.409610 0.315578 -0.642876
-0.080943 -0.007001 -0.662761
-0.082051 -0.007123 -0.660094
0.919419 0.006588 0.327000
0.566264 -0.317494 0.313417
-0.401380 -0.654575 -0.330880
0.583303 -0.002055 -0.655442
-0.737322 0.016447 -0.009061
-0.712268 0.315192 -0.324127
0.241647 -0.312036 0.645683
-0.070496 -0.631003 -0.661659
-0.383288 0.644003 -0.325109
0.243289 -0.326249 -0.644449
-0.724303 -0.353383 -0.310616
-0.058153 -0.649555 0.651436
-0.705218 0.660440 0.001432
-0.723946 -0.324170 0.339429
0.248053 -0.623734 0.316636
-0.077530 0.630652 0.642655
-0.413967 0.314043 0.657122
-0.404715 -0.341947 -0.665544
0.220772 0.609020 -0.304996
-0.081267 -0.007071 -0.661563
0.572910 -0.319559 -0.324717
0.913873 -0.337765 -0.019918
-0.412245 0.310928 0.655072
0.273455 0.339338 0.640735
-0.072383 -0.630290 -0.664328
-0.411292 0.314465 -0.645196
-0.076839 0.631042 0.642744
-0.072328 -0.629404 -0.662672
-0.074469 -0.647077 -0.019567
0.222164 0.609467 -0.305864
-0.069848 0.659716 0.023865
0.237446 0.299170 -0.622613
-0.723648 -0.006486 0.658689
-0.402798 -0.654080 -0.330954
0.920694 0.005417 0.326038
0.271434 0.338399 0.639829
0.600741 0.675800 0.012241
0.578316 0.322835 0.302295
0.601507 0.675821 0.011460
0.603393 0.344031 -0.329281
-0.407372 0.652275 0.337207
-0.743782 -0.668122 0.016980
-0.404329 -0.653098 -0.331303
-0.402922 -0.653356 -0.331454
0.574455 -0.320080 -0.325541
-0.400289 -0.331455 0.663493
0.583011 -0.001568 -0.656949
0.581503 -0.001464 -0.658140
-0.712861 0.313954 -0.323549
-0.724252 -0.005489 0.657940
-0.739810 0.331271 0.305224
-0.082588 -0.005838 -0.660852
0.222779 0.609426 -0.304383
0.568325 -0.318315 0.313418
-0.740823 0.015432 -0.009156
0.600916 0.674770 0.010986
0.913286 -0.340106 -0.018471
-0.739756 0.016444 -0.009484
0.921566 0.006428 0.326991
-0.409603 0.313768 -0.644046
-0.742891 0.329072 0.303943
-0.403726 -0.342191 -0.665608
0.605520 0.343916 -0.329820
-0.725459 -0.325198 0.341262
0.583587 -0.001528 -0.654383
-0.068967 0.662259 0.024397
-0.705476 0.658681 0.002098
0.248030 -0.624508 0.316847
-0.726891 -0.322734 0.341079
-0.390716 -0.645086 0.336475
0.573299 -0.318746 -0.326054
0.239470 -0.312848 0.643917
-0.741854 0.331107 0.304361
0.602686 0.673520 0.011276
0.938735 0.011642 -0.320250
0.938040 0.013923 -0.320834
-0.721670 -0.352657 -0.309516
0.584000 -0.003708 -0.656202
-0.072853 -0.646851 -0.020059
0.938723 0.013279 -0.322632
0.246972 -0.624124 0.316347
0.241193 -0.323205 -0.647063
-0.742671 -0.667467 0.016138
-0.081471 -0.006724 -0.662075
0.271512 0.653316 0.319009
0.579554 0.322666 0.303719
-0.081369 -0.007559 -0.659274
0.569449 -0.001971 0.642967
0.577824 0.323366 0.304475
-0.074137 -0.632254 -0.662889
-0.402018 -0.653026 -0.329118
-0.074639 -0.645048 -0.022357
-0.410418 0.314823 -0.644961
-0.072977 -0.645602 -0.020915
0.270923 0.653138 0.317125
-0.077433 0.630388 0.642308
0.913066 -0.339699 -0.019241
0.581397 -0.665291 -0.004877
-0.078175 0.630576 0.641653
-0.404684 -0.340312 -0.667691
0.243715 -0.325726 -0.644881
0.585162 -0.002658 -0.657448
-0.411557 0.316225 -0.645413
0.241425 -0.325138 -0.645262
-0.049725 0.022323 0.649019
-0.740786 0.016520 -0.012015
0.920485 0.003532 0.327295
-0.739866 0.014997 -0.009435
-0.068825 0.660809 0.022840
-0.073793 -0.631644 -0.663790
0.567993 -0.318126 0.313607
-0.067904 0.660856 0.025133
0.583724 -0.665035 -0.005655
-0.052344 0.024284 0.648977
0.581959 -0.002767 -0.657516
0.584546 -0.665156 -0.005993
-0.058873 -0.648080 0.651085
-0.405163 -0.340382 -0.666421
0.603166 0.344620 -0.330683
0.271867 0.654307 0.317031
-0.089617 0.650500 -0.651661
0.602545 0.673894 0.012290
-0.734523 -0.006101 -0.652381
-0.071581 -0.631832 -0.662621
-0.069043 0.660146 0.024452
-0.410974 0.314593 -0.644377
0.568659 -0.316209 0.313438
-0.391147 -0.644153 0.335080
0.602264 0.345134 -0.329182
-0.703675 0.659219 0.002661
0.582541 -0.001844 -0.657954
0.241442 -0.311095 0.645438
-0.706959 0.657868 0.003177
-0.409425 0.316250 -0.643134
-0.723929 -0.005725 0.658074
0.242921 -0.323526 -0.645501
-0.704756 0.660855 0.004417
0.568031 -0.317151 0.314553
0.574514 -0.318502 -0.324759
-0.738938 0.017071 -0.011400
0.240309 -0.309818 0.643920
0.601784 0.676032 0.011868
-0.090454 0.651014 -0.652882
0.246428 -0.625167 0.316782
-0.388531 -0.645663 0.338046
-0.061059 -0.647050 0.651363
-0.739782 0.016274 -0.009531
-0.723419 -0.351619 -0.311257
0.927522 0.339810 0.012273
-0.389303 -0.644252 0.337347
0.240912 -0.309336 0.645218
-0.072897 -0.631584 -0.664926
0.240387 -0.652356 -0.316150
0.240890 -0.311921 0.646326
0.569660 0.000904 0.641860
-0.721732 -0.353281 -0.309457
0.914196 -0.337629 -0.019437
0.568660 -0.316583 0.313778
0.567302 -0.318151 0.313851
0.221595 0.608331 -0.307076
-0.078568 0.629559 0.642574
0.939320 0.014066 -0.320798
-0.725836 -0.325282 0.340751
0.913594 -0.337715 -0.020168
-0.091410 0.651205 -0.653450
-0.081938 -0.009907 -0.661144
0.569018 -0.317851 0.314427
0.223489 0.607905 -0.306746
-0.740000 0.331995 0.305056
-0.741065 0.014655 -0.009330
