OFF
256 0 0
-0.520118 0.300746 0.325235
0.129694 0.627190 -0.649659
0.126862 0.628822 -0.650470
-0.845818 -0.021514 0.324900
-0.196899 0.301827 0.649256
-0.523226 -0.347403 0.325627
0.777474 0.303099 -0.323024
-0.195972 0.302794 0.651088
-0.522196 -0.023496 0.650245
-0.846909 -0.022885 -0.325470
0.129947 -0.673525 -0.649729
0.127668 0.628047 -0.650759
0.128099 0.627301 0.649666
0.778883 0.302796 0.324373
-0.847338 0.303876 0.000369
0.453746 -0.347749 0.000698
0.126960 -0.023373 0.649412
-0.848184 -0.346721 0.000851
0.453775 -0.022490 0.325135
0.453279 -0.348051 0.650557
0.779659 -0.022716 -0.001234
0.778438 0.627857 -0.000409
0.778151 -0.023444 0.000543
0.453533 0.627622 -0.325016
-0.848333 -0.024732 0.324717
0.454748 -0.021771 -0.325918
0.130300 0.627540 -0.650475
-0.196008 -0.347635 -0.649359
-0.847561 -0.345786 -0.000148
0.453307 -0.671537 0.325656
0.454700 0.303563 0.650287
0.454897 0.302237 0.649576
0.779368 0.302413 0.325564
-0.196245 -0.674018 0.324132
-0.197146 -0.673281 -0.325035
0.453993 -0.022670 -0.325694
0.779965 0.300781 0.324755
-0.521300 0.303116 0.325949
0.128185 -0.672218 -0.649715
0.453701 -0.673444 0.325099
-0.522824 -0.022400 -0.651142
-0.521764 -0.348119 0.325246
-0.522111 -0.349063 0.325535
-0.197220 0.301046 0.651202
-0.520709 -0.021191 -0.648950
0.454038 -0.022974 0.325407
0.455320 -0.348667 -0.649913
-0.846852 -0.024515 -0.324984
0.127499 0.626867 -0.649207
-0.845911 -0.022308 0.323831
-0.847871 -0.023523 0.325059
-0.198807 0.300566 0.649301
0.454847 -0.671236 -0.325265
-0.196117 -0.345591 0.649243
0.778926 0.301539 0.325396
-0.195950 -0.672908 0.324223
-0.521033 -0.347145 0.322718
0.453957 -0.673583 0.324704
-0.521356 -0.349206 0.324179
0.453728 -0.022553 0.324557
-0.522769 -0.021635 -0.649999
0.453868 0.626476 -0.325583
0.452161 -0.346595 -0.000530
0.453292 -0.022346 -0.324451
0.452157 -0.023703 -0.323979
0.129128 0.625939 0.649126
0.778575 0.627825 -0.000315
0.781065 -0.022640 0.002376
-0.197882 0.627893 -0.323856
-0.846578 -0.348911 -0.000218
-0.520185 -0.022500 -0.648745
0.453660 0.626954 -0.323007
-0.521604 -0.023121 0.648620
-0.197189 -0.672143 -0.325422
0.127547 -0.670184 0.000293
0.455961 -0.349106 -0.649908
-0.520360 -0.671947 -0.001562
0.127426 0.628940 -0.651110
0.128039 -0.672992 -0.001128
-0.847753 -0.348053 -0.001682
0.451904 -0.022245 0.325311
-0.195558 0.302287 0.651729
-0.521416 0.628326 0.000195
-0.520954 -0.023652 -0.651145
-0.195346 0.301575 0.649591
-0.523884 -0.672536 -0.000430
0.127938 -0.023452 -0.649716
0.779004 0.303101 -0.324992
-0.197963 0.628008 -0.323276
0.127923 -0.672473 -0.652364
-0.196764 -0.673012 -0.324169
0.453179 -0.672901 -0.323196
0.454008 -0.348237 -0.649050
0.453695 0.627490 0.324486
0.779058 0.301733 0.325369
-0.521232 0.302664 -0.327775
0.128679 0.625807 0.002280
0.130559 0.629176 0.650836
-0.520597 0.303558 0.323602
0.454284 -0.021847 -0.324426
0.453646 0.629077 0.325795
-0.846437 -0.022317 -0.324669
0.128296 -0.671642 0.000342
0.452856 -0.348067 -0.001466
-0.197407 -0.347994 -0.650011
0.453448 -0.347858 -0.648868
0.453281 -0.019795 -0.326684
-0.847060 -0.023951 -0.324616
-0.521482 0.627578 0.000282
-0.846619 -0.023054 -0.325383
-0.520765 0.302594 -0.327324
-0.847427 0.302482 0.000355
-0.847410 0.302346 -0.000547
0.453112 0.303686 0.649379
-0.847448 0.301216 -0.001132
-0.197013 0.627843 -0.324592
-0.520202 -0.673869 0.000348
-0.195587 -0.672353 0.323616
-0.846878 -0.022561 -0.326930
0.127009 -0.021836 -0.652173
-0.522596 -0.672568 0.000094
-0.523033 0.301205 -0.324842
-0.523297 0.302942 0.326078
0.130232 -0.021608 -0.650207
0.454640 -0.673637 -0.324662
-0.522479 -0.672604 0.001426
-0.195359 -0.348129 0.650489
0.130514 -0.672128 -0.650473
0.128713 -0.021730 -0.649986
-0.194735 -0.672025 0.324849
-0.521721 -0.022772 -0.648389
-0.521628 -0.022301 0.649446
0.454523 -0.346793 -0.651290
-0.521179 -0.021814 0.650252
-0.520418 0.303072 -0.325309
0.454204 -0.672327 0.326157
-0.846516 0.302237 -0.001954
0.128581 0.627649 -0.649885
-0.194477 -0.674234 -0.325087
-0.521796 0.303150 0.323084
-0.520353 0.629118 0.000793
0.777403 0.303032 -0.324494
-0.846171 -0.024129 0.325694
-0.846526 -0.021015 0.325644
-0.520292 -0.347181 -0.324189
0.778298 -0.020555 0.000152
0.453772 0.628279 0.325267
-0.844875 -0.348371 -0.000736
-0.522970 0.628744 0.001945
0.778223 0.628251 0.000542
0.778826 0.301279 0.324066
-0.846314 0.300412 0.000413
0.128062 -0.022602 0.648905
-0.196920 0.628222 0.325386
0.451477 0.302714 0.649491
0.128453 -0.671397 0.648413
-0.521697 -0.348048 0.324241
0.454418 0.301934 0.650301
-0.522428 -0.346697 -0.323479
0.452170 -0.672449 0.325064
-0.196205 0.298554 0.648759
-0.520613 -0.348502 -0.324831
-0.195200 0.304050 0.650315
-0.521091 -0.672378 -0.001807
0.454474 -0.022507 0.323445
0.778339 0.626041 0.000226
0.453699 -0.023458 0.325569
0.128166 0.629228 0.648726
0.128744 0.626973 0.650283
-0.523097 -0.348191 -0.325573
-0.195874 0.303450 -0.650362
-0.520659 -0.347972 0.323841
-0.845642 -0.020895 0.327183
-0.195459 0.302107 -0.650015
0.127960 -0.672101 0.649352
0.128049 -0.672370 -0.651272
0.452515 -0.023003 0.323295
0.454088 -0.346338 -0.649444
-0.519679 -0.021489 0.649649
-0.522721 -0.347134 -0.324210
-0.195500 0.303324 0.650731
0.778762 0.301304 0.325066
-0.521255 -0.022375 0.651093
-0.522017 -0.022557 -0.649841
-0.196961 0.628863 0.323507
-0.522230 -0.346825 0.325021
-0.196537 -0.347271 0.648761
-0.521276 0.303307 -0.324530
-0.194989 -0.673828 0.325100
0.453807 -0.674138 0.326095
-0.520484 0.628598 0.000458
0.778643 0.302954 0.324855
0.127765 0.626876 0.650149
-0.521917 0.627876 -0.002020
-0.520796 -0.022509 0.651390
0.453431 -0.347810 -0.651114
-0.523555 -0.672491 -0.000051
-0.196587 -0.348575 -0.650433
-0.848351 -0.348176 0.000466
-0.520827 0.302269 0.324690
-0.522354 -0.021559 -0.650821
-0.522072 0.302883 -0.325647
0.457338 -0.024084 0.323311
0.454815 0.302500 0.650131
-0.195291 -0.346376 0.650278
0.779112 0.302269 -0.324010
-0.197735 -0.348733 -0.650152
-0.198480 0.626511 -0.324253
0.453716 0.627751 -0.326179
0.129107 -0.673020 0.651483
-0.197457 0.302501 -0.648726
0.129968 0.627447 0.651199
0.778859 -0.023523 0.001407
-0.196776 -0.671882 -0.325403
-0.522130 0.628413 0.000635
-0.196289 0.626122 -0.327594
0.127750 -0.023846 -0.649785
0.780802 0.626686 0.001805
-0.848367 -0.023588 -0.325329
-0.521253 -0.024105 0.650630
0.453065 0.303686 0.648804
-0.847279 -0.347356 -0.000461
-0.845941 -0.347644 -0.001296
-0.196016 0.627391 -0.324710
-0.846237 0.302555 -0.000485
0.127164 0.628313 0.000108
0.453975 -0.022778 -0.326183
-0.197719 -0.346211 -0.651302
-0.520711 -0.022598 -0.649298
0.454800 -0.023416 0.325333
0.129050 0.627687 -0.000616
0.130115 -0.672134 0.649907
-0.196356 0.626798 0.324881
0.129877 -0.672080 -0.650497
0.452476 0.627121 0.325176
0.453544 -0.672989 -0.323358
-0.197155 0.303516 0.648438
0.128273 -0.672489 -0.648718
0.454206 -0.674137 0.325265
-0.522528 -0.022389 0.649256
0.452318 -0.346929 0.650863
-0.520155 -0.022291 0.650760
0.454114 0.302834 0.649662
-0.523028 -0.021636 -0.650595
0.451911 -0.347231 -0.001291
-0.523181 0.302731 0.325080
0.129116 -0.673311 0.649235
-0.196090 -0.346544 -0.649672
-0.847161 -0.349212 -0.001523
-0.521021 -0.672391 -0.001318
0.454081 -0.346360 -0.649614
0.452894 0.302460 0.648407
-0.523383 0.301877 0.325065
-0.195246 -0.347537 -0.649165
-0.194722 -0.672789 0.325680
-0.522092 -0.347124 0.327271
