OFF
256 0 0
-0.861196 -0.015195 -0.295559
-0.539637 -0.340654 -0.280356
-0.896758 -0.333124 0.006512
-0.863097 -0.019482 -0.294403
-0.540369 -0.341520 -0.279622
0.116776 0.655849 0.679752
0.769056 -0.011532 -0.640197
0.440830 -0.010632 0.359190
-0.547819 -0.678076 0.013391
-0.227322 -0.672481 0.337975
-0.547602 -0.679112 0.010891
-0.537237 0.288803 -0.298133
0.445163 0.300910 -0.637885
-0.544706 -0.328630 0.293830
-0.885892 -0.015694 0.320697
0.458000 0.630804 0.365653
-0.540554 -0.003030 0.640180
-0.535418 0.643599 0.012404
0.458299 0.628445 0.364137
0.457679 0.629447 0.366238
-0.229514 0.320110 -0.642617
0.785175 0.307356 0.367762
-0.223025 -0.323650 -0.619715
-0.228197 0.320191 -0.642761
0.737715 -0.320077 -0.298923
-0.219682 -0.331434 0.644539
-0.539634 -0.341681 -0.281055
0.092881 -0.677086 0.652859
-0.199099 0.635335 -0.303626
0.425385 0.640226 -0.321138
0.756706 -0.016224 0.030525
-0.547394 -0.678503 0.012513
0.114487 0.656159 0.682224
0.441281 -0.011696 0.360602
0.102111 0.611947 -0.644848
-0.224223 0.637757 0.344673
-0.885954 0.334029 0.003129
0.412276 -0.328223 -0.631194
-0.226839 0.320425 -0.642339
0.089513 -0.695602 0.001814
-0.202757 0.325944 0.675400
0.094122 -0.677837 0.654516
0.092835 -0.678956 0.654166
0.412244 -0.678061 0.342459
-0.557601 -0.027792 -0.640569
0.421064 0.321711 0.671628
0.412403 -0.678242 0.341510
0.737660 -0.319407 -0.297800
-0.559281 -0.028586 -0.641219
-0.225664 -0.672237 0.339951
0.423683 -0.660546 -0.327172
-0.540694 -0.006294 0.639271
-0.557521 -0.028560 -0.641494
-0.863609 -0.015760 -0.293001
0.114965 0.653486 0.681656
-0.257376 -0.668055 -0.326140
0.460358 0.628686 0.364205
0.427001 0.641593 -0.321543
0.412932 -0.328178 -0.631426
0.101434 -0.006456 0.677324
0.110971 -0.674651 -0.637977
0.097945 -0.000981 -0.619259
-0.538744 -0.341480 -0.280692
-0.536446 0.285744 0.315176
0.744674 0.288489 -0.307650
0.427247 0.639690 -0.320443
0.098816 -0.002012 -0.619380
-0.534542 0.643087 0.009093
-0.886562 -0.015413 0.319255
0.113356 0.655482 0.682414
-0.258881 -0.669362 -0.325809
0.105068 0.666037 0.031726
-0.897487 -0.332722 0.008044
0.441252 -0.010820 0.360028
0.432575 -0.349704 0.665011
0.431974 -0.349981 0.664734
-0.223508 0.634556 0.342538
0.422671 0.319038 0.673210
-0.558975 -0.027157 -0.641626
-0.883522 -0.018789 0.322959
0.411981 -0.677074 0.342627
-0.537525 0.286568 0.314973
-0.203476 0.326964 0.674828
-0.545969 -0.329329 0.294890
-0.884594 -0.016611 0.322131
0.111517 -0.673283 -0.640389
-0.544502 -0.329608 0.295862
-0.228295 0.319719 -0.641200
0.112299 0.654750 0.682414
0.415008 -0.327172 -0.630508
0.767833 -0.011526 -0.640931
-0.202576 0.326160 0.672837
0.756701 -0.015835 0.033742
0.421988 -0.658693 -0.327797
0.421192 -0.660085 -0.326350
-0.543621 -0.330686 0.292838
0.426257 0.639882 -0.321193
0.094535 -0.676379 0.654438
-0.537116 0.286630 0.316236
0.459420 0.627900 0.366025
0.760725 0.618894 0.013678
0.421821 0.321876 0.670504
-0.257555 -0.667005 -0.324832
0.756629 -0.016367 0.035061
0.091861 -0.694848 0.000727
-0.536282 0.641741 0.013179
0.738233 -0.320524 -0.296841
-0.226552 -0.322979 -0.620279
0.747899 0.289298 -0.309156
-0.547769 -0.677135 0.012952
0.739869 -0.322794 -0.298723
0.095012 -0.679595 0.653569
0.110384 -0.672898 -0.636936
-0.548516 -0.679180 0.014618
0.757312 -0.017493 0.031201
0.739855 -0.321849 -0.297107
0.092046 -0.694096 0.002123
-0.897624 -0.334732 0.008573
0.091991 -0.696701 0.000931
-0.862872 -0.019523 -0.293424
0.095893 -0.679009 0.652679
-0.862383 -0.017646 -0.294685
-0.224961 -0.670964 0.336958
0.111334 -0.673024 -0.638221
0.091911 -0.697278 0.003392
0.433386 -0.351489 0.664251
-0.536507 0.290425 -0.297074
0.413826 -0.677462 0.343648
-0.222110 -0.331094 0.646727
-0.198212 0.633755 -0.304781
0.098886 -0.002407 -0.619316
0.103685 -0.008195 0.676540
0.101131 -0.008060 0.678115
-0.539069 -0.342247 -0.278625
0.101109 -0.007076 0.677685
0.747550 0.285766 -0.309582
0.756007 -0.016943 0.030173
-0.885137 0.333650 0.001876
-0.863109 -0.018814 -0.293599
0.431491 -0.353152 0.665037
-0.544536 -0.329065 0.295533
-0.885091 -0.017865 0.321337
0.438908 -0.009543 0.361033
-0.534801 0.640832 0.010431
0.758421 -0.016660 0.034136
0.755842 -0.017152 0.032451
-0.221838 -0.330759 0.645411
-0.883469 -0.018489 0.319774
0.422258 0.321023 0.670583
-0.546559 -0.677917 0.014802
0.099745 -0.008982 0.676898
0.738343 -0.320223 -0.295690
-0.257527 -0.666562 -0.323979
0.738394 -0.320437 -0.297781
-0.226323 -0.675223 0.337854
0.091922 -0.696312 0.003194
0.116258 0.655670 0.682085
-0.532800 0.640753 0.012277
0.422161 0.321151 0.672148
-0.544836 -0.330140 0.295199
0.408026 -0.325985 0.005175
0.423371 0.319605 0.672450
0.116079 0.657070 0.683929
0.104812 0.665891 0.030092
0.739334 -0.320737 -0.297960
-0.223840 -0.323171 -0.620334
0.115486 0.654956 0.682537
0.408443 -0.324794 0.003707
-0.257513 -0.669192 -0.324088
-0.227749 0.319897 -0.641759
-0.222075 -0.332419 0.646590
-0.545442 -0.327963 0.294277
-0.196774 0.634679 -0.305043
0.101462 -0.007714 0.677979
-0.218307 -0.331888 0.647522
-0.863590 -0.018771 -0.294764
-0.540629 -0.004283 0.640338
0.100476 0.611333 -0.646073
-0.227764 0.320671 -0.644536
-0.539373 -0.342081 -0.279651
-0.221194 -0.331665 0.644767
0.785624 0.306029 0.366513
-0.543049 -0.330204 0.293386
-0.197159 0.632208 -0.304237
0.768902 -0.011959 -0.639938
-0.899710 -0.334656 0.006241
0.104487 0.665337 0.028914
0.089267 -0.695395 0.001542
-0.228596 0.319585 -0.642277
-0.534137 0.641335 0.012380
-0.885211 0.332636 0.002822
-0.258951 -0.669148 -0.326086
-0.544146 -0.330007 0.295283
0.425031 0.639858 -0.322725
-0.863016 -0.017723 -0.294300
-0.221239 -0.332412 0.646540
-0.223633 0.636822 0.341021
0.109560 -0.675958 -0.637013
0.095740 -0.678973 0.652582
0.407096 -0.326531 0.005099
-0.897988 -0.332428 0.006445
-0.536166 0.642259 0.009981
-0.223533 0.638185 0.343067
-0.224556 0.637388 0.343745
0.738976 -0.321306 -0.299024
0.785917 0.306698 0.367905
0.769782 -0.011694 -0.640639
0.421401 0.317907 0.672428
-0.862497 -0.019531 -0.294665
-0.884503 -0.015728 0.321248
0.414228 -0.327440 -0.630694
-0.223180 0.637395 0.343123
0.738679 -0.321417 -0.299476
-0.257314 -0.666768 -0.325236
-0.863641 -0.018554 -0.293731
0.414302 -0.327870 -0.630525
-0.886606 -0.016899 0.320820
0.095014 -0.680337 0.652835
0.412112 -0.678661 0.339835
0.442936 0.303111 -0.637094
0.115206 0.655157 0.682762
0.412558 -0.678653 0.343957
0.413239 -0.327755 -0.631893
-0.886146 0.334182 0.002710
0.104493 0.666536 0.028603
0.422047 0.320110 0.671206
-0.256952 -0.668671 -0.325720
-0.545143 -0.329857 0.295464
-0.884404 -0.017580 0.321600
0.442266 0.299466 -0.636993
-0.538180 -0.341416 -0.281094
0.411561 -0.678385 0.342827
-0.886309 0.332517 0.003418
-0.540635 -0.004911 0.639698
0.756758 -0.014828 0.032055
0.441043 -0.010193 0.358582
0.114795 0.654403 0.683165
0.444183 0.299131 -0.636523
-0.862702 -0.017340 -0.293802
-0.198004 0.632633 -0.304505
0.439595 -0.010333 0.359897
-0.220091 -0.331329 0.645232
0.105878 0.665288 0.030079
-0.557711 -0.026958 -0.641400
0.114861 0.655066 0.683549
0.762632 0.619607 0.017488
0.459077 0.630049 0.362686
-0.223662 0.637093 0.343825
-0.225457 -0.670415 0.338153
0.755858 -0.016844 0.031148
0.101315 0.610725 -0.645626
-0.537107 0.286909 0.315128
-0.225502 -0.322895 -0.620262
0.113783 0.656117 0.683742
0.101887 -0.008182 0.676538
-0.228270 0.320149 -0.641731
