OFF
256 0 0
0.008142 -0.904847 -0.232691
0.008049 -0.903859 -0.235696
-0.661324 -0.253138 -0.249710
0.664374 0.742947 0.072848
-0.659787 -0.269691 0.390975
0.310396 0.405814 0.721126
0.005961 -0.903262 -0.234247
-0.023973 0.394260 0.399090
-0.661193 -0.252754 -0.249168
-0.001671 -0.902440 0.385655
0.655874 0.385405 -0.238230
0.009049 0.070834 0.725654
0.024459 0.714460 -0.583534
0.641794 -0.239507 -0.239471
0.657495 0.395274 0.421919
-0.024672 0.393082 0.397452
-0.345019 0.381282 0.713311
0.317649 0.700626 -0.237175
-0.652737 0.076819 -0.578378
-0.655492 0.390137 0.387433
0.646738 -0.247674 0.405221
-0.329647 -0.901322 0.057977
-0.310229 -0.235359 -0.543581
-0.332516 -0.903312 0.059472
0.325446 -0.216626 -0.545153
0.650160 0.083773 -0.556377
0.646207 -0.248505 0.406741
0.334342 -0.571514 0.377330
-0.297515 0.383877 -0.585826
-0.298054 0.384641 -0.583846
-0.643364 -0.575586 0.054924
0.318103 0.699277 -0.237930
-0.660591 -0.253207 -0.249736
0.008280 0.073188 0.724979
0.657533 0.397704 0.421204
0.324753 -0.218554 -0.546422
0.641621 -0.239654 -0.239550
-0.655396 0.096746 0.071255
0.004632 -0.565282 0.712770
-0.312869 -0.238516 -0.542806
0.333531 -0.570592 0.378661
-0.646662 0.723660 0.075387
0.650346 0.082299 -0.557086
-0.316874 0.719725 0.390379
-0.013736 0.729475 0.076031
-0.649240 0.053973 0.724543
0.008371 0.399285 -0.907552
0.324969 0.757312 0.392047
-0.650029 0.051427 0.724827
-0.656927 0.098162 0.070882
0.645232 -0.249280 0.407603
0.000436 -0.900522 0.383999
-0.646325 -0.576871 0.055536
0.007706 0.399141 -0.908567
0.662470 -0.561224 0.055620
-0.655834 0.098253 0.072980
0.335974 0.063334 -0.896691
-0.655874 0.391277 0.388399
-0.647025 0.724832 0.072776
0.655434 0.382866 -0.238409
-0.331692 -0.902976 0.057469
0.333461 0.390484 -0.566712
0.332691 -0.573120 0.378863
0.309790 0.404623 0.720112
0.003780 -0.234364 -0.852647
-0.346887 0.063853 -0.899044
-0.304859 -0.560526 0.338552
-0.655909 0.389902 -0.253049
0.316651 0.698856 -0.237425
0.325162 -0.216371 -0.544451
0.652572 0.077290 0.092105
-0.336708 0.698564 -0.264368
-0.317140 0.720043 0.391364
0.663663 -0.560294 0.053431
-0.655593 0.387955 0.388236
-0.001659 -0.902137 0.383776
0.326780 -0.217570 -0.543497
0.654068 0.077352 0.092455
-0.338008 -0.244532 0.715757
0.331994 0.389475 -0.565919
0.653658 0.383545 -0.235756
0.327107 -0.216054 -0.545365
0.310880 -0.242053 0.709521
-0.656970 0.388849 0.389156
-0.311385 -0.237624 -0.542419
-0.023796 0.393097 0.397325
-0.330455 -0.901451 0.058385
-0.644371 -0.578632 0.054930
-0.315607 -0.567103 -0.244310
-0.299487 0.385241 -0.583725
-0.646190 0.725806 0.074153
0.665794 -0.560954 0.054632
0.333250 0.389903 -0.566898
0.651118 0.082741 -0.556707
0.657220 0.397338 0.421300
0.334578 0.064004 -0.895008
-0.330794 -0.900573 0.059214
0.309795 0.404777 0.723303
-0.656521 0.388233 0.388689
-0.346391 0.064973 -0.899234
-0.338078 -0.246037 0.716891
0.665036 0.743142 0.073425
-0.314370 -0.565444 -0.244472
-0.347715 0.065582 -0.899709
0.334361 0.390055 -0.565324
0.665368 0.740552 0.075631
0.333046 0.387878 -0.565138
-0.298595 0.384875 -0.584393
-0.024918 0.393975 0.398478
0.025626 0.715272 -0.585531
0.007166 0.399632 -0.907149
-0.343756 0.381127 0.714664
-0.297728 0.381669 -0.584758
0.002305 -0.233736 -0.853487
-0.650285 0.053218 0.724046
0.637679 0.081994 0.715964
0.317691 0.697987 -0.234964
0.005155 -0.579241 -0.548993
-0.335275 0.698555 -0.262480
-0.649829 0.056032 0.723025
0.009995 0.400139 -0.908451
0.335182 0.061462 -0.897235
-0.339888 -0.246598 0.715972
-0.001534 -0.900939 0.384582
0.309408 0.405819 0.721088
-0.315229 -0.565113 -0.244035
-0.661968 -0.253369 -0.247946
-0.317218 0.718647 0.391935
-0.657940 0.388795 -0.250218
0.321727 -0.587551 -0.246749
-0.656043 0.388181 -0.250894
0.009169 0.400102 -0.906910
0.663882 -0.563013 0.055134
0.652340 0.083693 -0.555800
-0.655114 0.389036 0.389047
-0.647314 0.725425 0.072898
-0.655950 0.388868 0.387926
0.657433 0.397748 0.421866
0.662015 -0.562259 0.055402
0.319505 0.701375 -0.237911
0.654031 0.385882 -0.238278
0.331707 0.388914 -0.565540
-0.645647 0.725284 0.072446
0.004726 -0.580199 -0.546514
-0.645380 -0.576522 0.052832
0.651132 0.081822 -0.555828
0.006196 -0.903872 -0.234444
0.026339 0.713708 -0.584218
0.312015 -0.241601 0.708933
0.332399 0.061694 -0.896224
-0.643613 -0.576703 0.056327
-0.344139 0.384416 0.714439
-0.341080 0.382640 0.713664
-0.343405 0.381152 0.714140
-0.345959 0.064525 -0.898510
0.334181 0.061691 -0.899217
0.655446 0.383647 -0.237987
0.002069 -0.234950 -0.851197
-0.656281 0.389411 -0.250599
-0.659332 -0.269113 0.393194
0.657052 0.397286 0.420898
-0.652389 0.077088 -0.579873
0.649877 0.083077 -0.557016
0.003374 -0.234262 -0.852697
0.308782 0.403810 0.719377
-0.644539 -0.575613 0.056476
-0.336936 0.697924 -0.263773
0.325174 0.754911 0.392665
-0.315208 -0.567163 -0.244550
-0.337730 -0.246849 0.717030
-0.345657 0.063931 -0.899593
-0.304250 -0.560565 0.337945
0.006919 -0.904268 -0.235369
-0.336413 0.699467 -0.263036
-0.297509 0.382808 -0.586961
0.649825 0.082067 -0.555795
-0.657444 0.386265 0.388863
-0.338746 -0.247533 0.715999
-0.661681 -0.251936 -0.249241
-0.304266 -0.559907 0.339186
-0.330021 -0.902001 0.059328
-0.329421 -0.901915 0.059555
-0.017329 0.729422 0.077686
-0.330121 -0.902062 0.059430
-0.014051 0.730042 0.076762
-0.657377 0.389898 -0.253865
0.639540 -0.238087 -0.241164
-0.318296 0.719652 0.391681
0.309234 0.407872 0.720827
-0.318024 0.721189 0.390947
0.001088 -0.901130 0.384266
-0.645675 0.724990 0.072165
-0.645950 0.723605 0.073417
-0.661183 -0.251637 -0.247190
-0.316532 0.718423 0.391281
-0.337492 -0.246347 0.716086
-0.015841 0.728590 0.076374
0.326324 -0.895866 0.077482
-0.315931 -0.568102 -0.244174
-0.299095 0.383714 -0.584727
0.006125 -0.904394 -0.235648
-0.340397 -0.248033 0.714989
-0.656096 0.390155 -0.251347
0.311441 -0.241201 0.706981
-0.331846 -0.901745 0.058446
0.332601 0.389361 -0.565494
0.326332 -0.216555 -0.544378
0.001538 -0.233850 -0.850871
-0.653264 0.076301 -0.578815
0.322858 -0.587391 -0.245552
-0.661464 -0.267282 0.391575
0.007450 0.073340 0.724182
0.640272 -0.240280 -0.238670
-0.299028 0.384229 -0.583140
0.324234 -0.896888 0.077057
0.663686 -0.562519 0.053947
-0.653150 0.079040 -0.579952
-0.660355 -0.268179 0.390474
0.005338 -0.565130 0.711850
0.636095 0.081013 0.715926
-0.659438 0.387836 -0.251660
0.657813 0.398160 0.422538
0.650373 0.081347 -0.557160
0.332202 -0.571328 0.377638
0.638754 0.083111 0.716412
0.324789 0.758433 0.392480
-0.648666 0.725360 0.074377
-0.341896 0.382992 0.716508
0.644938 -0.249445 0.406945
-0.644288 -0.576100 0.055525
-0.649651 0.051042 0.725758
-0.657804 0.096700 0.071823
0.324071 -0.216849 -0.543112
0.663727 0.742730 0.073913
0.006410 -0.579872 -0.546749
0.654784 0.384042 -0.236822
-0.644580 -0.576701 0.054019
-0.655537 0.390649 0.390991
0.657565 0.396553 0.420881
-0.335520 0.697651 -0.265036
-0.654864 0.098888 0.070893
0.638890 -0.239818 -0.242279
0.008103 -0.905357 -0.235133
0.002244 -0.232609 -0.851631
-0.659732 -0.268047 0.392252
0.659877 0.397183 0.421801
0.636102 0.081407 0.716438
-0.342384 0.382375 0.714377
0.333454 0.388594 -0.567510
-0.647621 0.723191 0.073191
-0.317504 0.720270 0.390809
-0.336075 0.696606 -0.263359
-0.002155 -0.903128 0.385221
-0.017168 0.728392 0.076225
-0.002286 -0.901798 0.382855
0.310196 0.404288 0.722386
