OFF
256 0 0
0.307374 0.801520 -0.003822
-0.689275 -0.225333 -0.687730
-0.339904 0.138768 0.678894
-0.349875 -0.529761 0.681509
-0.334638 0.479231 -0.336216
-0.002954 -0.194881 0.705624
0.666253 0.460437 0.006527
0.305003 0.799992 -0.004376
0.359997 0.140636 0.703876
-0.677345 -0.516965 0.330711
0.350144 0.456269 -0.339308
0.353591 0.128925 -0.671277
0.307224 0.801005 -0.003344
-0.000998 -0.195998 0.708891
0.314722 0.423687 0.327535
0.677490 -0.533592 -0.324236
0.652648 -0.227233 -0.676201
0.665412 0.462008 0.007739
0.710986 0.157753 -0.358285
-0.334471 0.477922 -0.336375
-0.690190 -0.223746 -0.688762
-0.292087 0.466098 0.338851
0.010691 0.460123 -0.689352
-0.347874 0.151664 -0.689021
0.011321 0.461183 -0.690927
-0.675071 -0.175596 0.687955
0.676212 -0.160288 0.000948
-0.658219 0.109859 -0.353723
-0.334268 0.479825 -0.337388
-0.671633 0.144106 0.350048
-0.690091 -0.532490 -0.341801
0.333275 -0.534999 -0.012695
-0.688843 -0.224442 -0.687374
0.011677 0.460444 -0.689261
0.013735 0.461008 -0.689309
0.355007 0.129204 -0.671711
-0.657354 0.110453 -0.351661
-0.678492 0.474365 0.011819
0.672870 -0.218986 0.696288
-0.670090 0.143212 0.348241
-0.689950 -0.223363 -0.691000
0.677257 -0.532867 -0.324424
0.010814 0.459627 -0.689755
-0.291862 0.463819 0.339599
-0.348983 -0.539685 -0.675687
0.349816 0.455656 -0.339280
-0.339395 0.137035 0.678828
0.305888 0.799393 -0.004949
0.332604 -0.536186 -0.013712
0.675803 -0.533002 -0.321865
0.709790 0.158683 -0.358690
-0.291070 0.463695 0.336792
0.666494 0.460169 0.005938
-0.335466 0.836885 -0.000121
0.007674 -0.204778 -0.704733
0.336876 -0.545449 0.678738
-0.292513 0.464852 0.336474
0.680528 0.128743 0.347548
-0.291213 0.462732 0.337693
0.665879 0.461711 0.007139
0.676835 -0.533352 -0.325075
-0.676910 -0.174741 0.688673
0.006399 -0.204207 -0.705189
-0.656096 0.110110 -0.354055
0.020787 0.470131 0.694470
0.332108 -0.534597 -0.014049
-0.351536 -0.520478 -0.003555
-0.691555 -0.532094 -0.342041
0.709647 0.156706 -0.359096
0.323855 -0.562783 -0.704247
0.306120 0.801166 -0.003656
-0.670470 0.143986 0.348331
0.001976 -0.525281 0.348470
0.337059 -0.546653 0.680711
0.312750 0.424326 0.328119
0.360286 0.142859 0.702885
-0.010792 -0.570014 -0.354296
0.337540 -0.547543 0.681844
0.338641 -0.547431 0.680260
0.305223 0.799615 -0.002417
-0.679316 0.470599 0.009461
-0.333740 0.478032 -0.335976
-0.339027 0.137874 0.678060
-0.678774 0.473791 0.011513
0.012536 0.461612 -0.689382
-0.002270 0.804865 -0.332068
-0.659060 0.109345 -0.352255
0.666442 0.461645 0.007024
-0.013282 -0.569319 -0.354286
0.007794 0.832518 0.345196
0.353408 0.128795 -0.671303
-0.690053 -0.223095 -0.687946
-0.291188 0.464028 0.338795
0.002969 -0.523527 0.346558
-0.336350 0.836615 0.000568
0.667376 0.460077 0.006729
0.664834 0.460476 0.006766
-0.669901 0.143283 0.348197
-0.679781 0.472484 0.011932
0.683076 -0.543323 0.330929
0.354969 0.130161 -0.670470
0.359663 0.141262 0.704814
-0.668501 0.142699 0.348964
-0.002596 -0.195989 0.705217
-0.678449 -0.514089 0.328821
-0.658791 0.112823 -0.353141
0.355996 0.130017 -0.672114
0.009161 0.832091 0.345092
0.675729 -0.217605 0.696942
0.655130 -0.229127 -0.676822
0.333108 -0.536728 -0.012348
-0.688027 -0.202676 -0.010762
-0.003711 0.801791 -0.332592
-0.335976 0.478599 -0.336415
0.358533 0.141245 0.703453
0.305330 0.798587 -0.003351
0.350817 0.454364 -0.338266
-0.677266 -0.516250 0.330642
0.335829 -0.547279 0.681490
-0.351249 -0.530545 0.682246
0.313574 0.424368 0.325022
-0.676716 -0.175046 0.688062
-0.688214 -0.200292 -0.012513
-0.338784 0.138214 0.679216
-0.350432 -0.529070 0.680982
-0.350357 -0.529665 0.680539
0.012508 0.459188 -0.688763
0.667970 0.461862 0.007273
-0.689100 -0.201715 -0.010140
0.653900 -0.226547 -0.678500
-0.002986 -0.195369 0.707389
-0.349352 -0.540284 -0.673831
-0.658215 0.110374 -0.350460
-0.347631 0.150439 -0.690017
0.337974 -0.547163 0.680585
-0.337425 0.838026 0.000240
0.313108 0.423994 0.326303
-0.003662 -0.193868 0.707835
-0.339869 0.137270 0.679089
-0.689610 -0.532885 -0.342473
-0.689032 -0.225485 -0.689387
-0.011091 -0.569979 -0.353513
-0.012762 -0.569096 -0.352292
-0.004456 0.804689 -0.332689
-0.671226 0.143689 0.349090
-0.656729 0.111108 -0.351499
-0.349572 -0.521105 -0.004007
0.682214 -0.543151 0.330628
-0.351074 -0.541070 -0.672814
-0.676414 -0.175604 0.687495
-0.678651 0.472542 0.011512
0.667425 0.459418 0.007933
-0.344604 0.150115 -0.689435
0.012287 0.460751 -0.689353
-0.335150 0.479759 -0.336314
0.313946 0.424655 0.326723
-0.669921 0.143229 0.349312
-0.339131 0.138689 0.678155
-0.688849 -0.531933 -0.343193
0.674214 -0.159757 0.001853
-0.688997 -0.224450 -0.688835
-0.293803 0.462855 0.339242
-0.670937 0.144543 0.349198
0.338958 -0.547506 0.680799
-0.691005 -0.531332 -0.342487
0.707627 0.155459 -0.357425
0.332170 -0.536646 -0.014482
-0.689093 -0.224354 -0.687868
-0.335190 0.478004 -0.335908
0.668102 0.459667 0.007412
0.008192 -0.202167 -0.705052
0.331564 -0.537559 -0.014416
0.335926 -0.547782 0.680016
-0.691716 -0.530977 -0.341527
-0.657972 0.111144 -0.354563
0.308098 0.799897 -0.003970
0.338395 -0.547366 0.679662
0.652989 -0.229890 -0.679365
-0.002100 -0.196244 0.705933
-0.350138 -0.520939 -0.004764
0.009215 0.833905 0.343766
0.010930 0.462444 -0.689370
-0.679180 -0.516265 0.330247
-0.002459 -0.195541 0.707452
-0.336363 0.836954 0.001064
0.006858 -0.202151 -0.704539
-0.003431 0.804064 -0.333638
0.332225 -0.536017 -0.012655
0.360916 0.141499 0.704542
0.667239 0.458597 0.006402
0.013796 0.459894 -0.688817
0.667734 0.462246 0.008209
0.653161 -0.229566 -0.676757
-0.689296 -0.224618 -0.689987
0.675906 -0.531377 -0.324229
0.353649 0.130043 -0.671272
0.708674 0.155724 -0.358049
-0.335274 0.479587 -0.335027
-0.349020 -0.540327 -0.675775
0.674769 -0.160866 0.001603
-0.349050 -0.519687 -0.002497
0.009311 0.829643 0.344104
0.654783 -0.227919 -0.675803
-0.349319 -0.520165 -0.003124
-0.005155 0.805495 -0.332709
-0.335565 0.479073 -0.336253
0.006879 -0.204360 -0.703621
0.360466 0.142280 0.705994
0.333996 -0.534817 -0.013893
-0.690317 -0.533505 -0.341143
-0.350671 -0.541194 -0.675067
0.333829 -0.535401 -0.014538
0.668472 0.461025 0.007159
0.360789 0.140396 0.704297
-0.657886 0.111411 -0.352881
0.012565 0.462159 -0.690232
-0.012663 -0.569027 -0.353275
-0.349173 -0.542900 -0.674758
0.010479 -0.201017 -0.705863
-0.338281 0.137000 0.677827
-0.349040 -0.540270 -0.674047
-0.689734 -0.200724 -0.009591
0.021639 0.473041 0.693293
0.674086 -0.160915 0.001737
-0.345927 0.151327 -0.688259
0.349342 0.456399 -0.338690
-0.349615 -0.532770 0.680919
-0.001954 -0.193887 0.706486
0.013118 0.459114 -0.689724
0.652784 -0.228861 -0.678627
-0.011852 -0.566970 -0.350781
0.655648 -0.229453 -0.677145
0.655402 -0.230465 -0.678943
0.676644 -0.531410 -0.323813
-0.011928 -0.569905 -0.352628
0.674570 -0.158265 0.002081
0.682150 -0.544209 0.329350
-0.678635 -0.514434 0.329480
-0.690139 -0.202574 -0.009769
0.331470 -0.535118 -0.013038
0.322344 -0.563568 -0.702457
0.322921 -0.565018 -0.700103
0.009372 -0.203217 -0.704097
-0.679638 0.471153 0.011198
0.675332 -0.532744 -0.324175
-0.339594 0.138521 0.678764
0.323987 -0.566699 -0.701857
-0.335467 0.837962 0.000385
-0.675650 -0.176255 0.687084
0.021272 0.472007 0.694243
0.020252 0.470279 0.696531
0.353635 0.130198 -0.670577
0.681807 -0.544681 0.331344
0.683969 -0.544070 0.330951
0.009893 0.832915 0.345084
-0.013430 -0.569433 -0.354360
