OFF
256 0 0
-0.523206 -0.018276 -0.850091
-0.176874 -0.343621 -0.839053
-0.842884 0.007289 0.157950
0.483016 -0.325279 0.505519
-0.477256 0.009009 0.484373
0.841788 0.308151 0.178667
0.161671 -0.658190 -0.164933
0.853926 -0.015628 0.519132
0.152082 -0.649390 0.485990
-0.147053 0.329981 0.481891
-0.488441 -0.659206 -0.155331
-0.523166 -0.017952 -0.851222
-0.146269 -0.631847 0.152638
0.809903 0.009249 -0.168161
-0.475958 0.333034 0.148865
-0.811022 -0.004525 -0.502340
0.485790 0.637588 0.168338
0.161732 0.344603 0.822651
-0.842601 0.008819 0.158534
-0.176005 -0.343098 -0.839144
-0.182138 0.333959 -0.825101
0.828467 -0.310279 0.167458
-0.838157 0.350372 -0.187666
-0.505066 -0.349936 -0.485833
-0.843129 0.007414 0.158583
-0.177040 -0.344423 -0.839053
-0.487843 -0.659864 -0.156218
-0.482572 0.296987 -0.453792
-0.148934 -0.632830 0.153754
-0.485451 0.669883 -0.175618
0.160955 0.681389 -0.170799
0.151976 -0.647705 0.486342
0.516755 0.331136 0.508643
0.159301 -0.320876 -0.523934
-0.842296 0.006009 0.157906
0.148522 0.296038 -0.485977
-0.175726 -0.656604 -0.484673
0.828479 -0.311468 0.167639
-0.139626 0.665115 0.147233
-0.525814 -0.019037 -0.850515
0.189060 0.651606 0.502530
-0.149707 -0.632551 0.152307
-0.487519 -0.659023 -0.155056
-0.147009 0.329824 0.479333
0.484250 -0.018573 -0.515727
-0.502787 -0.349939 -0.488795
-0.483850 0.295443 -0.454907
-0.165461 0.026679 0.841765
-0.477083 0.333210 0.152386
-0.811097 -0.004060 -0.503854
-0.838022 0.349457 -0.187936
-0.147224 0.330503 0.481607
-0.178241 -0.342962 -0.839424
0.811339 0.008642 -0.166087
0.486179 0.638733 0.170226
-0.173913 -0.656453 -0.486171
-0.483522 0.668083 -0.175701
-0.488141 -0.659222 -0.153858
0.160377 0.681860 -0.170200
-0.500875 -0.336007 0.181716
0.853483 -0.018122 0.519804
0.159435 -0.319378 -0.524933
-0.486109 -0.658549 -0.154840
-0.176755 -0.343740 -0.838420
0.460062 0.300635 -0.163783
-0.808037 -0.004432 -0.502996
0.484883 -0.654802 0.168910
0.148993 0.296240 -0.486713
-0.839229 -0.332907 -0.161432
0.159577 0.345114 0.823866
0.157771 -0.320449 -0.524674
0.164713 -0.325816 0.860647
-0.500103 -0.334622 0.182755
-0.808891 -0.004262 -0.503296
-0.149034 0.331688 0.482262
-0.489804 -0.656975 -0.155584
-0.524015 -0.017392 -0.849042
0.160037 0.345364 0.821544
0.486589 -0.656180 0.170516
0.490644 -0.345332 -0.169486
-0.177752 -0.343316 -0.840590
0.159323 0.681711 -0.169301
-0.839778 -0.331995 -0.161130
0.160658 -0.319633 -0.525200
-0.524559 -0.018714 -0.851572
0.152343 -0.649540 0.488526
0.484540 -0.009148 0.843467
0.810852 0.010571 -0.165962
-0.148721 0.330494 0.481481
-0.167617 0.653868 -0.489537
-0.500554 -0.334208 0.182447
-0.475963 0.332447 0.149351
-0.836752 -0.332591 -0.163425
0.147744 0.297237 -0.483954
0.485803 -0.011276 0.841510
-0.147923 0.329643 0.479283
-0.808152 -0.002077 -0.503931
-0.477109 0.009773 0.482841
0.490748 -0.347877 -0.170413
-0.484901 0.669261 -0.175514
-0.836790 0.349860 -0.189575
-0.183670 0.335946 -0.825354
0.484566 -0.326223 0.503650
0.149824 0.296613 -0.486398
0.485938 -0.655792 0.168424
-0.147847 -0.633421 0.150697
-0.487472 -0.658673 -0.154849
-0.501793 -0.335584 0.181345
-0.475893 0.009814 0.484376
0.486370 -0.019255 -0.516281
-0.174136 -0.658856 -0.484596
0.840230 0.305847 0.178453
-0.166489 0.025953 0.840986
-0.474085 0.010545 0.481039
-0.504313 -0.350673 -0.487613
-0.174152 -0.656205 -0.486555
0.483248 -0.324379 0.504336
0.161361 -0.657668 -0.166008
-0.810086 -0.004864 -0.501832
-0.524221 -0.017868 -0.852357
-0.140405 0.666012 0.146756
0.842252 0.307327 0.177188
0.839064 0.307242 0.178276
-0.174192 -0.657334 -0.485231
0.159785 -0.319099 -0.525295
0.828647 -0.311186 0.168168
-0.837247 0.349581 -0.187550
0.173392 0.018126 -0.842742
-0.487014 -0.658646 -0.154727
0.517114 0.330287 0.509367
0.456603 0.301906 -0.163824
0.162349 -0.658315 -0.165652
0.487262 -0.655685 0.170077
0.840279 0.309337 0.176847
0.829796 -0.310091 0.167251
0.161930 -0.325761 0.859251
-0.147218 0.329441 0.479956
0.483698 -0.327122 0.505066
-0.181997 0.333047 -0.824649
-0.838465 0.348655 -0.188241
0.482567 -0.325724 0.504850
-0.139645 0.666942 0.148466
0.174875 0.017367 -0.841904
0.161968 -0.326830 0.862839
0.485017 -0.009142 0.842676
-0.140338 0.665093 0.148039
-0.504623 -0.349589 -0.486202
0.828326 -0.310622 0.167550
-0.485355 0.296890 -0.454187
0.150202 0.296882 -0.486340
-0.482896 0.295632 -0.454614
0.173174 0.017906 -0.842700
0.810320 0.009924 -0.169596
0.160224 -0.657899 -0.166144
-0.477401 0.010266 0.483054
-0.502570 -0.334556 0.179876
0.484532 -0.018696 -0.515525
0.811544 0.009751 -0.168858
0.162956 -0.325082 0.859440
0.458998 0.299518 -0.163691
-0.139357 0.667116 0.147691
-0.476306 0.332318 0.149094
-0.809806 -0.004377 -0.501848
-0.810467 -0.004933 -0.503954
0.456935 0.300719 -0.162615
0.174216 0.017665 -0.841482
-0.843373 0.006343 0.157958
0.486089 -0.019151 -0.512827
0.485123 -0.019188 -0.516126
-0.174838 -0.657556 -0.483621
0.490478 -0.344712 -0.169444
-0.485501 0.669108 -0.176714
0.482472 -0.019101 -0.514592
0.152618 -0.647675 0.488783
-0.485230 0.669023 -0.176084
-0.181899 0.333787 -0.825649
0.482852 -0.325417 0.504711
0.484407 -0.325092 0.503204
-0.177017 -0.341938 -0.837650
-0.485549 0.297976 -0.455150
-0.504417 -0.347756 -0.487137
0.484902 -0.018059 -0.514121
-0.165541 0.025606 0.842526
-0.502254 -0.350150 -0.487034
-0.838742 0.350161 -0.188205
0.160254 0.345683 0.821332
-0.810362 -0.006211 -0.501938
-0.168667 0.655765 -0.489864
0.159661 0.680761 -0.172358
-0.489581 -0.658641 -0.155297
-0.811054 -0.004991 -0.505251
-0.168427 0.027234 0.844507
-0.839908 -0.333847 -0.161879
0.150079 0.298097 -0.486076
0.161868 -0.657981 -0.166320
-0.841231 0.006708 0.158478
-0.146799 0.331679 0.482129
-0.147536 0.331297 0.481142
0.148992 0.296783 -0.485988
-0.183511 0.334730 -0.822837
-0.812916 -0.005451 -0.503996
0.811376 0.008950 -0.165918
-0.140620 0.666419 0.146484
-0.488175 -0.657294 -0.154570
0.485921 0.639999 0.167731
0.484967 -0.018365 -0.516366
-0.146862 0.330758 0.482376
0.165955 -0.327656 0.859239
0.172816 0.017589 -0.843266
-0.140321 0.667295 0.147530
-0.485363 0.669575 -0.176225
-0.838339 -0.333418 -0.163847
0.158608 0.680235 -0.170350
0.481571 -0.324815 0.504129
0.854150 -0.017175 0.521334
0.163747 -0.328120 0.860058
-0.809289 -0.004666 -0.502405
-0.123348 -0.294133 0.498428
-0.483614 0.295970 -0.455549
0.483870 -0.324133 0.502964
0.151702 -0.648689 0.490330
-0.475249 0.332140 0.149120
-0.837768 -0.333347 -0.162904
0.828767 -0.311718 0.167680
0.812197 0.008813 -0.167111
0.160233 -0.657574 -0.167067
-0.171990 -0.654871 -0.485914
-0.148301 0.330058 0.481158
0.492373 -0.344619 -0.169651
0.856178 -0.017598 0.520210
-0.808742 -0.003825 -0.502872
-0.484677 0.296745 -0.453955
0.484813 0.639329 0.169769
0.457473 0.301804 -0.164339
0.854625 -0.015309 0.518372
0.160788 0.679434 -0.171092
-0.485327 0.668661 -0.176252
0.152045 -0.648290 0.486811
0.148531 0.297849 -0.487396
0.483752 0.640047 0.169488
-0.172427 -0.656412 -0.485832
0.854769 -0.017135 0.520170
-0.173638 -0.656767 -0.485556
-0.483610 0.296605 -0.453505
-0.148111 0.330241 0.480494
-0.139909 0.666587 0.144738
0.483916 -0.325622 0.504314
0.516757 0.330607 0.507892
0.162367 -0.659027 -0.165365
0.173926 0.018265 -0.841819
0.484351 -0.326613 0.503757
0.160621 0.344766 0.823640
-0.482966 0.297104 -0.453670
0.840089 0.309192 0.178607
-0.169434 0.653586 -0.490390
0.486635 -0.654521 0.168547
