OFF
256 0 0
-0.390558 0.293714 0.405623
0.573756 0.249087 0.717246
-0.369907 -0.384002 0.380019
0.606661 0.585862 -0.255779
-0.390858 0.599447 -0.580988
-0.390727 0.599994 -0.579480
0.583015 0.265483 -0.592367
0.584532 -0.757070 -0.247854
-0.089577 -0.402227 0.732793
0.624476 0.255793 0.076120
-0.062170 0.592495 -0.265326
0.248060 -0.415124 0.410642
0.608925 0.586937 -0.255271
-0.730312 0.256477 0.049995
-0.390377 0.292706 0.406409
-0.737024 -0.068059 -0.268937
0.608022 0.597959 0.414071
-0.740451 -0.390201 0.054204
0.256559 0.609266 0.736226
-0.722590 0.605098 -0.254645
-0.373651 -0.038205 -0.577338
0.240746 -0.714919 0.056949
0.626443 0.256540 0.077041
-0.387688 -0.721603 0.054209
-0.066216 -0.372398 -0.608207
0.264345 -0.072376 -0.582417
-0.386941 -0.723041 0.053572
-0.737643 -0.067480 -0.270637
0.271696 -0.731429 -0.607329
0.271498 0.583847 0.090983
0.254232 -0.097862 0.714550
-0.398206 -0.393869 -0.270946
0.266178 -0.073354 -0.585272
-0.374130 -0.038473 -0.577997
-0.049670 0.282698 -0.609181
0.605482 0.586001 -0.255319
0.256812 0.608992 0.735924
-0.089108 -0.401542 0.732157
0.265455 -0.072975 -0.582810
0.582962 -0.383062 0.056565
-0.063213 0.591985 -0.263570
0.243666 -0.716190 0.056125
-0.372392 -0.036800 -0.578307
0.272146 0.582202 0.091630
-0.066122 0.592696 -0.263718
0.253620 -0.098732 0.712539
-0.723389 0.604627 -0.254418
0.607014 0.598620 0.415661
0.251266 -0.414827 0.410815
-0.722719 -0.072572 0.373086
0.600500 -0.400812 -0.597484
-0.090081 -0.401088 0.733470
-0.748207 0.263374 -0.609591
0.606263 0.586618 -0.255173
0.600848 -0.398771 -0.599570
0.248758 -0.413617 0.408790
-0.062813 -0.753757 -0.272274
0.243394 -0.713437 0.055184
0.259629 0.606572 0.734828
-0.397407 -0.393708 -0.270122
0.272825 0.582388 0.091263
-0.062383 -0.755132 -0.272007
-0.062581 -0.754048 -0.273007
-0.088845 -0.402562 0.731458
-0.070363 0.621510 0.420479
0.270423 0.606118 -0.611096
0.249422 -0.413097 0.412823
0.270880 0.583632 0.089505
0.251574 -0.098127 0.713350
-0.065217 0.591798 -0.266015
-0.081534 -0.752138 0.402333
0.254304 -0.098608 0.712823
0.271893 0.584868 0.091267
-0.735676 -0.068780 -0.274028
-0.050182 0.281300 -0.608454
-0.073026 0.619709 0.419398
-0.736117 -0.067655 -0.272148
0.269422 0.607669 -0.609276
-0.081859 -0.753663 0.402746
-0.399548 -0.394116 -0.271389
-0.064045 0.591558 -0.264781
-0.397265 -0.395910 -0.271837
0.609127 0.599224 0.415505
0.572222 0.250058 0.717948
0.248017 -0.413905 0.411494
-0.063314 0.592396 -0.266011
0.607519 0.599732 0.416045
0.586513 -0.756166 -0.245936
-0.081044 -0.752653 0.401289
0.596936 -0.064002 -0.267054
0.243750 -0.714152 0.056772
0.273452 0.584341 0.092332
0.273630 -0.731384 -0.608926
0.257942 0.610108 0.735897
-0.072147 0.619392 0.418938
-0.062599 -0.754047 -0.271435
-0.089987 -0.401786 0.733236
0.242262 -0.714101 0.055980
0.255733 0.610640 0.735516
-0.736720 -0.068043 -0.270214
0.271730 -0.730976 -0.609644
0.248137 -0.414847 0.411186
0.258006 0.608587 0.734577
-0.369467 -0.383513 0.380374
0.248123 -0.413608 0.410868
-0.058821 0.261974 0.714425
-0.730596 0.253883 0.051909
0.598183 -0.082568 0.409594
-0.049802 0.284102 -0.608140
-0.722128 0.608111 -0.253007
0.624756 0.255549 0.077209
0.581876 0.264526 -0.590609
0.256039 0.610609 0.737334
0.573581 0.250435 0.717440
0.254688 -0.097742 0.712481
0.585085 0.267528 -0.589791
-0.071409 0.618992 0.419625
0.272188 0.584954 0.090483
-0.065341 0.591419 -0.262941
0.586631 -0.757298 -0.247239
-0.737648 -0.067954 -0.271325
0.582571 -0.383043 0.057341
-0.064670 -0.755701 -0.271798
0.606581 0.598862 0.415555
0.273165 0.582085 0.090084
-0.049619 0.284745 -0.606943
0.572237 0.249038 0.718868
0.599230 -0.083192 0.408167
0.272321 0.584277 0.089505
0.573938 0.248138 0.715465
0.270809 0.584914 0.090898
0.272469 -0.733934 -0.608643
-0.391461 0.599766 -0.580349
0.596191 -0.064175 -0.268438
0.263662 -0.073020 -0.584955
0.598368 -0.082476 0.409713
0.585188 -0.757068 -0.248374
-0.370917 -0.383229 0.380166
-0.389660 0.598240 -0.580994
-0.738687 -0.391079 0.052310
0.258345 0.611613 0.736115
0.595083 -0.064994 -0.264230
-0.390273 0.598600 -0.578579
-0.415231 -0.055224 0.729974
0.583466 -0.383481 0.055458
-0.373339 0.600204 0.073758
0.242984 -0.713810 0.057938
0.272013 -0.734567 -0.607453
-0.390767 0.600974 -0.579505
0.242824 -0.716493 0.056328
0.583025 -0.384002 0.056912
-0.067123 -0.374016 -0.606443
-0.052930 0.283992 -0.609109
-0.397889 -0.393703 -0.270620
-0.722200 0.604631 -0.254718
-0.058784 0.261839 0.714399
0.268097 0.606267 -0.610523
-0.412331 -0.055611 0.729473
-0.048640 0.283977 -0.608266
-0.724513 -0.073880 0.370828
0.586654 -0.758030 -0.246728
-0.723704 -0.073210 0.375217
-0.388960 0.597553 -0.580791
-0.055838 0.263159 0.714276
0.584274 -0.382541 0.056506
-0.088109 -0.403701 0.731993
0.585356 0.266006 -0.590406
-0.724678 -0.073171 0.372452
-0.723269 -0.072317 0.375029
0.268456 0.608194 -0.609387
-0.080495 -0.752775 0.402174
0.266157 -0.071662 -0.585478
-0.071331 0.619819 0.419896
-0.390431 0.600521 -0.579388
0.586176 -0.757665 -0.247822
-0.067980 -0.373335 -0.604795
-0.064597 0.592472 -0.264611
0.624845 0.254948 0.079092
0.586525 -0.757340 -0.247277
-0.740013 -0.392173 0.054619
0.273429 -0.731990 -0.609200
-0.370365 -0.384196 0.382428
-0.056146 0.262044 0.713405
0.270892 0.584549 0.089455
-0.057600 0.261378 0.713875
0.607671 0.597818 0.415448
-0.748539 0.261344 -0.610179
-0.371743 -0.382383 0.380514
-0.063780 0.593702 -0.263428
0.245170 -0.713612 0.057971
0.598570 -0.083242 0.409986
-0.067932 -0.371187 -0.607540
-0.738647 -0.069614 -0.270452
-0.390235 0.597734 -0.580042
0.249687 -0.413599 0.411988
-0.388403 0.598696 -0.582503
-0.068214 -0.374681 -0.607124
0.255703 0.611141 0.736736
0.581823 -0.383363 0.056072
0.585287 -0.756598 -0.246361
-0.390370 0.291153 0.406661
0.257678 0.610579 0.737147
-0.398890 -0.392752 -0.270734
0.271888 -0.730691 -0.608419
-0.081954 -0.751158 0.401856
0.607568 0.598675 0.414147
-0.090160 -0.403655 0.731395
-0.066894 -0.374259 -0.604896
0.626463 0.256565 0.077496
0.607608 0.587771 -0.255858
0.582802 0.265896 -0.591088
-0.056973 0.263812 0.713991
0.268209 0.607112 -0.610203
-0.058101 0.263267 0.715845
0.573445 0.249929 0.717695
0.252234 -0.098071 0.713999
0.607591 0.584196 -0.254718
0.250232 -0.413977 0.411215
-0.398719 -0.395695 -0.271808
0.252620 -0.098163 0.715886
-0.388956 0.600232 -0.579611
-0.062057 -0.753871 -0.271349
-0.374618 0.601223 0.072757
0.271775 0.583903 0.088551
0.598925 -0.081321 0.409430
-0.064438 0.593191 -0.264721
-0.369462 -0.384113 0.379249
-0.396519 -0.394385 -0.271791
0.573017 0.248331 0.716109
0.266630 0.606514 -0.609190
-0.389570 0.600019 -0.580333
0.267815 0.606586 -0.609869
0.606754 0.585851 -0.254313
-0.740581 -0.391501 0.055408
0.583714 -0.381405 0.055454
-0.072251 0.618984 0.418859
0.272738 -0.730811 -0.608565
0.243091 -0.715824 0.056096
-0.724546 -0.071610 0.372642
0.271848 0.584210 0.091504
-0.737217 -0.069452 -0.271929
-0.373626 -0.039818 -0.578535
0.273384 -0.732643 -0.608079
-0.058404 0.263276 0.713315
0.624108 0.256535 0.077608
0.571809 0.248959 0.717553
0.251235 -0.098343 0.711581
-0.412900 -0.057105 0.727936
0.252053 -0.098278 0.713994
-0.390466 0.598598 -0.580940
-0.372555 -0.383410 0.380897
0.258948 0.608882 0.734641
-0.737000 -0.067444 -0.268530
0.574281 0.248284 0.716325
0.584816 0.265057 -0.590244
-0.389171 0.599635 -0.580071
