OFF
256 0 0
0.654865 -0.265359 0.336871
0.009840 -0.939987 -0.326207
-0.644222 0.085373 0.647506
-0.303771 0.709694 -0.307850
0.664073 0.410815 0.342246
0.330038 0.399681 -0.660380
0.327631 0.725585 0.330011
0.649944 0.364455 -0.317642
-0.644627 -0.243736 0.292363
0.664034 0.412393 0.344233
-0.001267 0.749309 0.640279
0.325974 0.724401 0.332087
-0.302855 0.711209 -0.307338
0.317101 -0.916773 -0.003741
0.303141 -0.279748 0.631589
0.634513 -0.248799 -0.307171
0.630888 0.056371 0.637157
-0.000548 0.748067 0.641587
-0.309924 -0.233598 -0.628874
0.636903 -0.248536 -0.308472
0.326366 0.724273 0.331650
0.330517 0.398744 -0.661645
0.664136 0.414284 0.344316
-0.339424 -0.245363 0.646926
0.302830 -0.280736 0.630819
0.329646 0.399162 -0.660365
0.630334 0.055675 0.637112
-0.001221 0.748436 0.640958
-0.659541 -0.587914 -0.010665
-0.310721 -0.233776 -0.629063
-0.012676 -0.579302 0.645424
-0.649444 0.074252 -0.009240
0.656439 -0.263128 0.336299
0.012914 0.750289 0.000244
-0.665199 0.745159 -0.009649
0.652757 0.069560 -0.653567
-0.666010 0.746437 -0.012337
0.010990 -0.940108 -0.328166
0.012759 0.750959 0.000277
0.670469 0.726604 0.004409
-0.304295 0.711814 -0.308184
-0.307038 -0.582363 0.300779
-0.649760 -0.255641 -0.313253
-0.323215 0.404784 0.650782
0.664561 0.410413 0.342262
-0.644970 0.086280 0.646028
0.332902 0.724486 -0.314757
0.311865 -0.590115 0.300441
-0.013941 -0.580333 0.645089
0.274621 -0.558156 -0.310170
-0.321957 0.407929 0.651308
-0.328804 0.750568 0.322630
-0.302825 -0.583529 0.301184
0.331530 0.400400 -0.660293
0.311271 -0.590243 0.298658
-0.339791 -0.246400 0.645270
0.652415 0.364359 -0.317785
0.656802 -0.267377 0.336531
-0.328116 0.749464 0.322926
-0.671238 0.070161 -0.639845
0.011595 0.751265 0.000982
-0.312165 -0.896097 -0.008753
0.331112 0.398928 -0.659078
0.273742 -0.558283 -0.307172
0.316741 -0.916789 -0.002456
0.654289 0.070249 -0.652780
0.693984 0.048964 0.009895
-0.647200 -0.254736 -0.315656
0.003040 0.724100 -0.625854
0.630940 0.055586 0.636367
0.662907 0.411626 0.343279
0.304231 -0.279932 0.631029
-0.302619 0.710824 -0.307786
0.325427 0.725258 0.330810
-0.006694 -0.933817 0.328008
-0.653879 0.407500 -0.318177
0.331167 0.723131 -0.316413
0.334566 -0.260141 -0.619092
-0.303405 0.712749 -0.306315
0.274738 -0.557172 -0.308968
-0.328552 0.750886 0.322880
0.317489 -0.917971 -0.002218
-0.645746 0.084837 0.645980
0.692851 0.050413 0.010132
0.014005 0.751069 0.001958
-0.673612 0.070695 -0.641949
0.308501 0.395588 0.656323
0.326664 0.725889 0.329788
-0.660299 -0.587667 -0.010372
-0.650642 -0.254953 -0.314943
-0.327386 0.750221 0.323448
-0.643709 -0.244545 0.289634
0.303215 -0.279109 0.626988
-0.328137 0.750156 0.322042
0.333116 0.722932 -0.315746
-0.339740 -0.245698 0.647237
0.656003 -0.267053 0.337299
-0.341107 -0.245778 0.646090
0.630425 0.057258 0.636343
-0.324208 0.406443 0.651809
0.015073 0.069104 -0.674345
-0.018816 -0.559244 -0.659351
-0.643142 0.086142 0.644714
0.307346 0.397399 0.654368
-0.019136 -0.556665 -0.658487
0.001693 0.724567 -0.623606
0.326170 0.724478 0.331890
-0.670255 0.408779 0.341463
-0.314614 0.410507 -0.658683
-0.657123 -0.587924 -0.010463
0.010993 -0.939874 -0.327388
-0.321495 0.406091 0.650128
0.694113 0.048302 0.011023
-0.673107 0.068637 -0.642302
-0.669973 0.070269 -0.640666
0.003745 0.723602 -0.626330
-0.671789 0.071235 -0.641986
-0.323420 0.407730 0.649566
-0.000969 0.747766 0.642420
-0.315282 -0.595020 -0.331369
-0.650817 0.405035 -0.319682
0.275458 -0.559259 -0.309290
0.011877 0.752405 0.003002
0.274864 -0.559469 -0.309107
0.669706 0.728126 0.003251
0.331055 0.722905 -0.314238
-0.016697 -0.558134 -0.660424
-0.645923 0.073247 -0.010153
-0.001980 0.060705 0.664455
0.653091 0.069112 -0.653298
0.325876 0.724373 0.331182
-0.647633 0.073782 -0.010841
-0.002010 0.746170 0.641562
-0.015548 -0.558596 -0.661490
-0.006357 -0.933002 0.326217
-0.327673 0.750301 0.324855
0.655466 -0.264933 0.334966
0.651780 0.363862 -0.317955
-0.341995 -0.246080 0.646570
-0.670075 0.410268 0.342109
0.304653 -0.280405 0.629979
0.013651 0.070531 -0.676024
0.628648 0.056257 0.636729
-0.005386 -0.930877 0.326546
-0.672406 0.069943 -0.643118
-0.644891 -0.242504 0.291322
0.630931 0.057755 0.636005
0.638133 -0.248793 -0.306942
0.307049 0.393693 0.654599
-0.327029 0.750438 0.322220
-0.013883 -0.580597 0.644056
-0.315491 -0.595190 -0.330991
-0.339949 -0.245207 0.645471
0.671357 0.725612 0.007281
-0.647615 0.073137 -0.012346
0.273724 -0.559155 -0.309170
-0.015638 -0.557759 -0.661040
-0.012631 -0.581034 0.643195
-0.672012 0.071895 -0.639555
-0.673237 0.069971 -0.642186
-0.670010 0.408451 0.341207
0.310755 -0.590909 0.298278
-0.648831 0.073029 -0.008185
0.664606 -0.571633 -0.010859
-0.012180 -0.580742 0.645800
0.316791 -0.918035 -0.001913
-0.008024 -0.933704 0.325071
-0.652135 0.405694 -0.319696
-0.650814 0.406775 -0.318629
-0.015314 -0.558557 -0.659685
-0.001132 0.748544 0.642273
-0.311998 -0.898606 -0.008525
-0.645256 -0.243467 0.292745
0.010936 -0.941166 -0.327367
-0.645269 -0.242696 0.292307
-0.012328 -0.581488 0.644387
-0.320827 0.406458 0.651224
-0.001407 0.748627 0.641551
0.317284 -0.916141 -0.001139
0.629028 0.056308 0.636258
0.670962 0.726655 0.004250
0.334844 -0.257928 -0.618050
0.318994 -0.918305 -0.001871
-0.305143 0.712230 -0.308361
0.015482 0.069212 -0.675186
-0.008799 -0.933444 0.326067
-0.305305 -0.582137 0.301721
0.661020 -0.571750 -0.010719
0.311633 -0.589222 0.300277
-0.671638 0.410367 0.343945
-0.663032 0.748159 -0.012510
-0.001085 0.748670 0.638900
-0.659073 -0.585712 -0.010345
-0.310383 -0.898014 -0.009995
-0.002936 0.058963 0.663583
-0.304058 0.711897 -0.310394
0.662714 -0.572181 -0.012226
0.309237 -0.592715 0.297950
-0.309586 -0.232971 -0.630040
0.655328 -0.264743 0.337655
0.650860 0.363042 -0.320246
0.275012 -0.557120 -0.306640
-0.321645 0.405840 0.650089
0.666986 0.410551 0.343177
0.664478 0.412565 0.343398
-0.340236 -0.244393 0.646807
-0.322747 0.406294 0.649859
-0.017258 -0.559085 -0.659052
0.330023 0.399896 -0.661995
0.649598 0.364642 -0.318752
0.325915 0.724043 0.331111
0.307030 0.395470 0.656343
0.014280 0.071944 -0.677512
0.670080 0.727472 0.005358
-0.669724 0.409435 0.343955
-0.673909 0.071534 -0.642872
-0.323958 0.404837 0.651029
-0.305910 -0.583839 0.299816
0.003785 0.724937 -0.624585
0.662855 -0.573600 -0.011509
-0.307521 -0.232730 -0.630825
0.015293 0.069548 -0.674885
0.013541 0.069877 -0.674735
-0.315804 0.408866 -0.656606
-0.671021 0.069931 -0.640651
-0.304180 0.713032 -0.307681
0.002898 0.724675 -0.624162
0.663995 -0.571147 -0.011308
-0.312601 -0.897507 -0.008430
-0.341451 -0.244166 0.648188
-0.314846 -0.596271 -0.331102
-0.644319 -0.245711 0.291220
0.273705 -0.557920 -0.307295
0.664072 -0.573129 -0.011769
0.330459 0.724129 -0.313408
-0.647094 0.075767 -0.011621
-0.643045 0.084229 0.646894
-0.642778 -0.244234 0.290109
-0.650109 -0.254223 -0.314758
0.637132 -0.249784 -0.307350
0.695221 0.050430 0.009470
-0.002592 0.062951 0.662408
-0.308510 -0.232294 -0.630643
-0.306481 -0.582764 0.299650
0.309956 -0.589817 0.297709
0.663237 -0.571657 -0.013861
0.003219 0.724533 -0.624662
-0.644673 0.084836 0.647376
0.656541 -0.265289 0.335840
0.636167 -0.247378 -0.308016
-0.006309 -0.933270 0.327073
-0.015649 -0.558367 -0.659610
0.308903 0.396476 0.655983
-0.643394 0.084854 0.647849
-0.663305 0.745229 -0.010037
-0.663831 0.748746 -0.011707
