OFF
256 0 0
-0.868507 -0.020102 0.339236
-0.862528 0.300793 0.003494
0.451131 -0.332738 -0.001864
-0.170365 -0.674704 -0.313080
0.439604 0.010017 -0.317858
0.124214 -0.045115 -0.656947
0.128304 -0.681656 0.637549
-0.504661 0.284527 -0.316334
0.804518 0.306897 0.345673
0.144629 0.643356 -0.007797
0.147201 0.645275 -0.009050
0.143480 0.645771 -0.011162
0.464785 -0.332914 0.634998
0.126329 0.659368 0.646490
0.121436 -0.701448 -0.662481
-0.529271 -0.348398 0.329239
0.126167 0.660651 0.645599
-0.206036 -0.348619 -0.641560
0.123204 -0.700638 -0.665336
0.128260 -0.679757 0.636744
-0.219646 0.616868 0.311207
0.449582 -0.331660 -0.001535
-0.218903 0.618712 0.309104
-0.206519 -0.350218 -0.640075
0.783762 -0.012042 0.004428
0.125027 0.620415 -0.653259
-0.197796 -0.686553 0.295234
-0.531726 0.641472 -0.001261
0.140630 -0.686455 0.019931
0.457302 0.293176 -0.664316
-0.529125 -0.346850 0.329430
0.782060 -0.012437 0.005485
0.126755 -0.045279 -0.657827
0.450144 0.624046 0.316896
0.141117 -0.002206 0.651823
-0.530016 -0.018593 -0.643325
0.143003 -0.685662 0.019142
-0.170153 -0.676746 -0.315150
-0.876082 -0.356936 -0.004047
0.451026 -0.333142 -0.000296
-0.222440 0.616370 0.310085
0.803615 0.308475 0.346828
0.451336 -0.361320 -0.669591
0.145829 0.643994 -0.007354
0.142273 -0.686247 0.020917
0.478788 -0.679889 0.323836
-0.530666 -0.346223 0.329577
-0.206750 0.646821 -0.329893
0.803031 0.307835 0.346413
0.453214 -0.684804 -0.313878
-0.542517 -0.665189 0.004846
0.127021 -0.679343 0.638398
0.121977 -0.700884 -0.663273
-0.172771 0.298028 -0.672353
0.465634 -0.336106 0.634612
-0.174436 0.297062 -0.671088
-0.220400 0.617179 0.311436
-0.526286 -0.343261 -0.321743
0.121893 0.619995 -0.653302
-0.211372 0.296771 0.636016
-0.505735 0.284089 -0.317992
0.452719 -0.688217 -0.313662
0.128050 -0.681034 0.637089
0.780403 0.287250 -0.327736
-0.870978 -0.021247 0.341172
0.481739 0.009795 0.337391
0.804335 0.308186 0.346864
0.466981 0.606743 -0.329732
0.451692 -0.360837 -0.667645
0.127699 0.659934 0.646051
0.465086 -0.334520 0.634659
-0.206551 0.647547 -0.329065
-0.170468 -0.673452 -0.313096
-0.212339 0.297719 0.635158
-0.199528 -0.688616 0.297921
0.450196 -0.363559 -0.666777
-0.526289 -0.342272 -0.321177
0.122931 -0.700910 -0.663943
0.476734 -0.679397 0.320480
0.144085 0.644026 -0.009049
-0.862217 0.302875 0.001169
0.129170 -0.681905 0.635703
-0.554137 -0.030160 0.660866
0.785627 -0.011898 0.003240
0.468812 0.321844 0.687412
-0.523108 0.277520 0.310223
-0.200483 -0.688264 0.296611
-0.175355 -0.333458 0.643340
-0.523135 0.276818 0.310577
-0.847919 -0.022991 -0.308593
-0.506048 0.285731 -0.317021
0.141259 -0.687674 0.020279
0.468245 0.606717 -0.329762
0.140872 -0.001994 0.652630
0.126660 -0.043311 -0.657827
-0.214745 0.297362 0.634137
0.121522 0.619134 -0.651946
0.120481 0.618888 -0.652406
-0.862951 0.300003 -0.000481
0.448757 0.626382 0.317347
0.467665 0.607423 -0.328583
0.781197 0.287042 -0.328008
0.457336 0.293504 -0.665040
-0.208279 0.647747 -0.329521
0.454697 -0.684751 -0.311382
0.468470 0.324950 0.686320
0.465249 -0.335827 0.635019
0.450943 -0.332309 -0.002529
0.482956 0.009295 0.337195
0.464508 -0.334096 0.635755
0.456535 0.291157 -0.666308
0.451913 -0.362710 -0.667753
-0.861057 0.301464 -0.000060
-0.529804 -0.349229 0.328374
0.805399 0.308517 0.346760
0.804311 0.308525 0.347584
-0.863476 0.300302 0.000902
-0.207141 -0.349217 -0.639307
-0.532195 0.642509 -0.002808
0.438295 0.011522 -0.318923
-0.531922 -0.019225 -0.642094
0.448473 0.625124 0.318140
0.464406 -0.334087 0.636514
-0.530736 0.640234 -0.000077
0.450301 -0.361188 -0.669454
-0.220445 0.616770 0.310200
-0.529397 -0.349196 0.326705
-0.171147 -0.675245 -0.314297
0.449651 0.624599 0.316646
0.142238 0.644227 -0.007094
0.122331 -0.699293 -0.663448
-0.199716 -0.687400 0.295853
-0.529467 -0.348364 0.327167
0.788580 0.616246 0.020861
0.453289 -0.331976 -0.000632
0.457955 0.293448 -0.665051
-0.553584 -0.028500 0.660418
0.481916 0.008745 0.341048
0.125105 -0.044329 -0.658165
-0.177017 -0.333916 0.641934
0.125230 -0.043673 -0.657736
-0.861052 0.300454 0.000452
-0.174448 -0.335512 0.642422
-0.555103 -0.027965 0.661152
0.144764 0.644584 -0.008838
0.127656 0.660538 0.645728
-0.521167 0.278799 0.309587
-0.863467 0.302001 0.000079
-0.204622 -0.348665 -0.639776
0.143207 -0.002791 0.651530
0.142550 0.644687 -0.008565
-0.208238 0.646277 -0.328382
0.476688 -0.681252 0.322109
-0.543812 -0.663386 0.004699
0.145914 0.645060 -0.009286
0.802864 0.307778 0.343951
-0.525611 0.278707 0.310339
-0.876917 -0.357255 -0.003384
0.452290 -0.686791 -0.312158
0.476154 -0.680964 0.321410
0.437122 0.010164 -0.319196
0.482541 0.008173 0.338265
-0.850597 -0.021129 -0.310358
-0.208528 0.645714 -0.328667
0.787348 0.614440 0.023229
0.126487 0.657808 0.646472
0.128347 -0.681007 0.637514
0.784129 -0.012269 0.004175
0.478471 -0.680382 0.320316
0.780570 0.284993 -0.328117
-0.848919 -0.021582 -0.311201
-0.523739 0.278022 0.310475
0.457683 0.294997 -0.665819
-0.531368 0.641773 -0.001415
0.787104 0.616969 0.021154
0.482373 0.009242 0.336810
0.125738 0.658913 0.645889
0.121590 -0.700529 -0.663596
-0.206884 0.646666 -0.327468
-0.543476 -0.663264 0.004260
0.120787 -0.700164 -0.662998
0.141250 -0.686741 0.019193
0.128839 -0.681838 0.639552
0.127166 0.658459 0.646814
-0.531966 0.639499 -0.001536
-0.207567 0.645142 -0.328564
-0.848481 -0.021638 -0.311014
0.451748 -0.331996 -0.001992
0.783611 -0.010540 0.002784
-0.877573 -0.360107 -0.002444
-0.531671 -0.018838 -0.642661
-0.198261 -0.688816 0.296122
0.139075 -0.001502 0.650577
0.141468 -0.686531 0.020594
0.470181 0.321789 0.688821
0.476929 -0.680661 0.324208
0.780332 0.287167 -0.328923
0.466320 -0.334175 0.636075
-0.531538 -0.019183 -0.642552
0.142221 -0.002074 0.652024
-0.556383 -0.030502 0.661862
-0.527252 -0.342256 -0.319590
-0.526597 -0.343479 -0.320402
-0.544848 -0.665778 0.004519
0.468622 0.323781 0.686480
-0.175923 -0.332869 0.642321
-0.862904 0.300147 -0.000096
0.482383 0.009621 0.337526
0.804397 0.309527 0.347311
-0.544204 -0.664213 0.004016
-0.525597 -0.340412 -0.321335
0.121418 -0.700745 -0.662425
0.477750 -0.679569 0.322993
-0.523185 0.278241 0.312849
0.144063 0.643108 -0.009952
0.475025 -0.679082 0.323360
-0.198957 -0.687815 0.297273
0.437465 0.009562 -0.318718
0.803752 0.308078 0.344905
0.122285 -0.700479 -0.662544
-0.169629 -0.675317 -0.314757
-0.523874 0.277518 0.310149
-0.523483 0.276561 0.309724
0.140704 -0.688010 0.020597
0.804386 0.308059 0.345254
0.121891 0.618090 -0.652624
0.452187 -0.362722 -0.668746
0.781595 -0.013123 0.003744
-0.555719 -0.029123 0.661568
0.448871 0.624000 0.317625
0.140374 -0.002427 0.652779
-0.529754 -0.349329 0.328864
-0.521388 0.278283 0.309544
0.804604 0.309378 0.348171
-0.874357 -0.356458 -0.001845
-0.529725 -0.347355 0.327734
-0.529893 -0.018581 -0.642063
0.452302 -0.331745 -0.002325
0.142437 -0.000850 0.650909
0.436622 0.010928 -0.320006
-0.505761 0.285650 -0.315838
-0.206450 -0.348950 -0.639945
0.482585 0.008510 0.338187
-0.553689 -0.028133 0.661215
0.482517 0.007352 0.337829
-0.860337 0.300273 -0.000690
0.123173 0.619286 -0.652752
0.123012 0.619923 -0.652307
-0.524410 -0.342501 -0.321231
0.458492 0.293725 -0.665778
0.803412 0.307878 0.345844
0.786571 0.617093 0.021709
-0.199862 -0.688905 0.297326
-0.220118 0.617779 0.308885
-0.868703 -0.019403 0.340029
-0.174356 -0.334799 0.641499
