OFF
256 0 0
-0.238355 0.683540 -0.027377
-0.202549 0.244305 0.452771
-0.707905 -0.691233 -0.007077
0.704953 -0.198911 0.001659
-0.239583 0.682548 -0.028800
0.683979 0.245900 -0.476400
0.211409 0.674537 -0.477978
-0.239125 0.683692 -0.027860
-0.226253 0.183460 -0.431235
-0.709892 -0.694470 -0.006083
0.224425 -0.266401 -0.462625
-0.679334 -0.226822 0.471315
0.705960 -0.201514 0.001389
0.689531 0.227445 0.480062
0.257295 -0.681170 0.032599
-0.220138 -0.668336 0.445194
0.257311 -0.678883 0.032128
-0.709838 -0.231215 -0.447281
0.258830 -0.681142 0.033294
-0.218413 -0.667229 0.444183
0.259562 -0.678307 0.032079
0.713573 0.702322 -0.017013
-0.709720 -0.233588 -0.444641
0.704579 -0.200842 0.001165
-0.235629 -0.681471 -0.438857
0.683085 0.244413 -0.473288
-0.724153 0.220394 -0.003536
0.682886 0.245431 -0.475784
0.684777 0.244931 -0.477604
-0.219010 -0.666634 0.443228
-0.236160 -0.681525 -0.440836
-0.678325 -0.228476 0.470397
-0.708465 -0.694654 -0.006449
0.705616 -0.199493 0.001337
0.257947 -0.679763 0.029999
-0.237243 -0.682622 -0.439010
-0.239532 0.682371 -0.029357
-0.710198 -0.695609 -0.008163
0.259141 -0.677480 0.030571
-0.725368 0.220004 -0.003449
-0.241628 0.684639 -0.027439
-0.221207 -0.667933 0.443409
0.212119 0.675654 -0.479602
-0.239481 0.682771 -0.028951
0.712571 0.700142 -0.018276
0.226344 0.686482 0.427468
0.683576 0.244344 -0.476758
-0.225772 0.181781 -0.430690
0.687173 0.224060 0.480149
-0.239575 0.683000 -0.026907
0.712080 0.703307 -0.017316
-0.709236 -0.694850 -0.006303
0.258093 -0.680414 0.032701
0.223300 -0.266102 -0.464935
-0.677258 -0.226383 0.473064
0.705538 -0.200235 0.001327
-0.220020 -0.667714 0.444539
-0.726627 0.220515 -0.004868
0.706627 -0.200553 -0.000659
-0.235595 -0.683239 -0.440780
0.211325 0.675033 -0.478422
0.227086 0.686616 0.427415
-0.200702 0.244639 0.450713
-0.678632 -0.227114 0.472855
-0.676825 -0.228372 0.469919
0.223459 -0.266386 -0.463612
0.685587 0.244489 -0.476368
-0.711868 -0.230839 -0.446654
0.684221 0.244593 -0.476528
0.683955 0.241747 -0.476287
0.258247 -0.679865 0.031736
-0.201574 0.245172 0.452354
0.230146 0.687686 0.426251
0.685095 0.245108 -0.476094
0.689306 0.226010 0.479997
0.209746 0.675792 -0.477286
0.689002 0.226395 0.481346
0.688784 0.223891 0.481005
-0.201261 0.245023 0.452500
0.213481 0.674557 -0.478353
-0.239676 0.684214 -0.027808
0.223693 -0.267321 -0.462058
0.222816 -0.266933 -0.463591
-0.238539 0.684597 -0.029140
0.224071 -0.266964 -0.463540
0.710326 0.701357 -0.017889
-0.236943 -0.682848 -0.439970
0.212136 0.674616 -0.479472
0.236830 -0.213318 0.484478
-0.219895 -0.668797 0.444232
0.684677 0.245996 -0.476852
-0.225695 0.183241 -0.431580
-0.228114 0.181722 -0.430933
-0.236287 -0.682150 -0.439757
0.687461 0.225373 0.480341
-0.676251 -0.227006 0.471305
-0.218796 -0.668857 0.444619
0.211804 0.673979 -0.480361
-0.710333 -0.695315 -0.005298
0.687061 0.225591 0.481399
0.257138 -0.678094 0.030589
0.211567 0.675309 -0.478520
0.236429 -0.214694 0.485006
0.222324 -0.264722 -0.462339
0.227164 0.687044 0.429176
-0.236586 -0.682843 -0.440136
-0.234814 -0.681093 -0.440547
0.223492 -0.266200 -0.461987
0.257812 -0.679248 0.030114
0.236425 -0.212879 0.485397
-0.679262 -0.228695 0.469441
-0.240320 0.682576 -0.028758
-0.199394 0.244316 0.452130
-0.200688 0.245291 0.452484
0.211660 0.675116 -0.476219
-0.710810 -0.233356 -0.446362
0.211371 0.676485 -0.477974
0.705796 -0.199596 0.000971
0.714054 0.701483 -0.018119
-0.239623 0.683016 -0.029727
0.686492 0.224620 0.478459
0.257538 -0.679166 0.033244
-0.709731 -0.231068 -0.446095
0.705059 -0.199655 0.002033
0.224143 0.684966 0.428068
0.713701 0.701305 -0.015645
0.706294 -0.200828 0.000671
-0.240015 0.683604 -0.028942
0.704027 -0.200869 0.001348
-0.709828 -0.693888 -0.005626
-0.679336 -0.225453 0.470474
-0.220960 -0.666955 0.443418
0.211175 0.674909 -0.476843
-0.679274 -0.227309 0.470065
0.685466 0.244996 -0.472972
0.225966 0.688095 0.425624
-0.677642 -0.227120 0.470356
-0.218662 -0.668309 0.445006
0.686446 0.224421 0.481874
0.259289 -0.680391 0.032250
-0.711407 -0.233123 -0.446412
0.683018 0.245315 -0.476619
0.705388 -0.198348 0.000627
0.227287 0.686862 0.427356
0.687760 0.225611 0.479806
-0.725166 0.218400 -0.003518
0.688609 0.224442 0.479964
-0.726306 0.221418 -0.004927
-0.677535 -0.227082 0.471114
-0.709633 -0.694545 -0.006194
-0.712571 -0.232084 -0.445250
0.258601 -0.679948 0.031982
-0.708511 -0.692269 -0.006019
-0.219387 -0.668602 0.444225
0.260699 -0.679156 0.032702
0.688243 0.225162 0.479484
0.235698 -0.212259 0.483924
-0.676592 -0.228510 0.470473
-0.678898 -0.226922 0.470639
-0.235353 -0.684526 -0.440648
-0.225793 0.181765 -0.430098
0.712708 0.700565 -0.016532
-0.725572 0.219139 -0.002897
0.259531 -0.678404 0.033454
0.257299 -0.680389 0.032182
0.223076 -0.265667 -0.463369
-0.225638 0.184097 -0.432762
0.258013 -0.678858 0.031136
-0.708603 -0.694084 -0.005898
-0.226770 0.182275 -0.431323
0.222694 -0.266949 -0.463125
-0.199638 0.244554 0.449918
0.684756 0.244496 -0.475415
-0.710331 -0.694886 -0.008356
-0.234512 -0.681870 -0.440139
0.685779 0.246022 -0.475502
0.688313 0.225015 0.480247
-0.710526 -0.696410 -0.006309
-0.727500 0.220431 -0.003001
0.685061 0.244226 -0.474736
-0.224445 0.182112 -0.431631
-0.711137 -0.232024 -0.446455
-0.239042 0.684623 -0.029117
0.711548 0.702039 -0.017373
-0.200005 0.245767 0.452374
-0.240317 0.682892 -0.030596
-0.239593 0.683233 -0.027861
0.235951 -0.213920 0.482861
0.223526 -0.265758 -0.462831
-0.711221 -0.695929 -0.006968
0.704848 -0.199811 0.003237
0.688168 0.225171 0.481341
-0.727101 0.220716 -0.002451
0.687673 0.226945 0.481946
0.235799 -0.211599 0.484032
0.234536 -0.212660 0.483673
-0.708004 -0.694285 -0.006884
0.223959 -0.265595 -0.462567
0.225275 -0.266578 -0.463776
-0.235625 -0.682918 -0.439313
0.223334 -0.266898 -0.462401
0.226408 0.686074 0.427469
0.211714 0.674122 -0.477215
-0.219508 -0.667433 0.444418
-0.220064 -0.667697 0.443356
0.210988 0.674350 -0.479878
-0.219572 -0.667840 0.442965
0.684594 0.245145 -0.475519
0.257068 -0.679297 0.030700
-0.708770 -0.230754 -0.446427
-0.218010 -0.668086 0.442759
-0.725705 0.221960 -0.002892
-0.239448 0.683939 -0.030204
-0.709669 -0.694218 -0.007138
-0.238571 0.684352 -0.027842
-0.202051 0.242914 0.450922
-0.711453 -0.695082 -0.005978
-0.709210 -0.694331 -0.006480
-0.238305 -0.682887 -0.439701
0.233770 -0.212594 0.484044
-0.710654 -0.694714 -0.007109
0.212473 0.676260 -0.478754
0.687893 0.225809 0.482589
0.713317 0.700685 -0.016780
-0.233714 -0.682012 -0.439236
0.684428 0.245231 -0.475339
0.703961 -0.199604 0.001409
-0.225565 0.180791 -0.430159
0.712457 0.699271 -0.019210
0.235972 -0.212440 0.481574
-0.225244 0.182858 -0.431040
-0.226206 0.182197 -0.429873
-0.198401 0.244455 0.450781
0.228189 0.687823 0.428734
-0.239704 0.683518 -0.027551
0.213050 0.675414 -0.478043
-0.679964 -0.227711 0.473395
-0.238454 0.684178 -0.027060
0.227710 0.686264 0.428092
-0.679065 -0.226007 0.472338
0.683728 0.245996 -0.477681
-0.710907 -0.697282 -0.008060
-0.226778 0.182794 -0.431031
-0.712156 -0.233046 -0.445235
0.212148 0.675204 -0.476450
-0.201566 0.244879 0.450119
-0.235357 -0.682105 -0.440303
0.235231 -0.214190 0.484838
-0.709630 -0.696208 -0.007771
0.211522 0.674293 -0.478458
-0.676846 -0.227270 0.471170
0.684976 0.247107 -0.475324
0.258309 -0.678227 0.031249
0.212094 0.674356 -0.479852
0.704685 -0.201025 0.001902
-0.235546 -0.682050 -0.438658
