OFF
256 0 0
0.026857 0.188951 0.708310
-0.032112 0.742888 0.217464
0.432458 0.233197 0.209229
0.432648 0.235177 0.210226
0.440208 0.728382 -0.231807
-0.458712 0.714641 -0.242895
0.462935 0.256120 -0.697111
0.441948 0.726542 -0.233151
-0.032674 0.743037 0.214298
-0.428232 0.209684 0.220420
-0.477227 -0.278750 -0.243038
-0.466061 0.219642 -0.690479
0.458510 -0.267804 0.702165
-0.033712 0.743496 0.213438
-0.469306 0.219374 -0.690364
-0.428034 0.210542 0.221234
0.482472 -0.214227 -0.214290
0.481298 -0.211174 -0.213114
-0.031363 0.744847 0.213707
0.482562 -0.212255 -0.209786
0.457896 -0.724821 0.213609
-0.444355 -0.658979 0.244122
0.017635 0.714032 -0.698901
-0.443645 -0.660599 0.243519
0.017619 0.714862 -0.697529
-0.456979 0.716114 -0.240668
0.458968 -0.726682 0.215243
0.465858 0.256224 -0.696183
-0.474166 -0.219604 0.730670
0.443060 0.724700 -0.231858
0.482076 -0.212636 -0.210674
0.463249 0.257581 -0.696333
-0.457677 0.715366 -0.243728
0.025314 0.188621 0.709085
-0.034806 0.744844 0.213452
0.002886 -0.709267 0.700783
0.007549 -0.707817 -0.251772
0.482153 -0.213535 -0.210545
0.466275 0.259366 -0.696163
-0.031388 0.742857 0.212887
-0.009561 -0.233428 -0.678651
0.017582 0.714943 -0.698687
0.002350 -0.707817 0.700566
0.460052 -0.725038 0.216683
-0.030648 0.746063 0.212016
0.019484 0.715857 -0.698701
-0.456755 0.714294 -0.243055
-0.457366 0.716206 -0.241342
0.458353 -0.266232 0.701446
0.441195 0.728107 -0.230982
-0.428856 0.210250 0.222555
0.003204 -0.707605 0.700510
0.007939 -0.707175 -0.251497
0.440024 0.726545 -0.231102
0.018312 0.713805 -0.698563
0.003353 -0.708851 0.700104
-0.457509 0.715911 -0.242647
-0.032023 0.742576 0.212976
0.007477 -0.706336 -0.251886
0.480347 -0.214261 -0.212518
0.481418 -0.212035 -0.212662
-0.010247 -0.230242 -0.679589
0.455854 -0.266178 0.702202
0.457889 -0.724876 0.214464
0.016507 0.714803 -0.697369
0.016054 0.714303 -0.698544
0.017308 0.716390 -0.699787
-0.475632 -0.219917 0.729968
-0.008564 -0.231499 -0.680237
-0.442505 -0.660295 0.243633
0.480548 -0.213920 -0.212206
0.025464 0.188450 0.707537
0.001610 -0.709407 0.699271
0.480808 -0.214424 -0.212170
0.431970 0.232843 0.209030
0.025623 0.188349 0.708568
0.026427 0.189078 0.710654
0.480887 -0.214745 -0.212746
0.457477 -0.266638 0.703511
-0.467643 0.221667 -0.691380
0.440542 0.727498 -0.230755
0.027192 0.188815 0.708199
0.459557 -0.725954 0.216334
0.464397 0.256469 -0.696658
-0.466199 0.223361 -0.689796
-0.429500 0.211258 0.217577
0.432967 0.232809 0.209906
-0.464941 0.222494 -0.690063
0.456553 -0.266657 0.702401
0.480237 -0.214017 -0.209965
0.478580 -0.213432 -0.212817
0.432945 0.235344 0.211386
0.026149 0.187954 0.708575
0.440323 0.727628 -0.230497
0.006571 -0.705978 -0.251420
0.480076 -0.214655 -0.211455
0.007600 -0.707124 -0.252256
-0.429335 0.209934 0.219243
0.478599 -0.214952 -0.214078
0.003465 -0.708785 0.701979
0.465022 0.257321 -0.696253
-0.032553 0.744631 0.213604
-0.445540 -0.661595 0.242673
0.463860 0.257057 -0.696236
-0.478440 -0.276851 -0.241098
-0.459808 0.716193 -0.241508
0.431883 0.234249 0.211724
0.457957 -0.265762 0.702567
-0.474373 -0.220041 0.731670
0.457703 -0.724290 0.216935
-0.010475 -0.232827 -0.678828
0.433701 0.234093 0.210108
0.458962 -0.266001 0.701095
0.440533 0.726417 -0.230718
0.002821 -0.706267 0.699372
-0.473013 -0.219915 0.730435
-0.430247 0.210857 0.220429
-0.475596 -0.276555 -0.242166
0.431623 0.231905 0.211932
0.019387 0.713924 -0.697650
0.440768 0.728041 -0.233264
0.006983 -0.707661 -0.250856
-0.032856 0.744746 0.215104
0.026101 0.188977 0.707430
-0.430097 0.210381 0.218181
0.482787 -0.213706 -0.213777
-0.477954 -0.276512 -0.242117
0.459415 -0.723179 0.213637
-0.444821 -0.659652 0.242984
0.003902 -0.707764 0.700932
0.016761 0.714381 -0.697632
-0.475011 -0.221130 0.730091
-0.445444 -0.660181 0.241538
0.007300 -0.706994 -0.251309
-0.465708 0.221823 -0.690768
-0.456390 0.715564 -0.240373
0.434929 0.233242 0.211964
0.458237 -0.724571 0.215739
0.458214 -0.268501 0.700675
0.018111 0.714836 -0.699203
0.433058 0.236117 0.209561
0.456601 -0.268417 0.701510
0.440757 0.727219 -0.230891
0.458023 -0.724042 0.215350
-0.031570 0.742300 0.214400
-0.469059 0.220591 -0.688821
0.432410 0.232782 0.209075
-0.428654 0.211802 0.220291
0.434058 0.233048 0.212594
-0.477724 -0.277389 -0.241488
-0.429660 0.210180 0.219428
0.016879 0.715214 -0.698975
0.024961 0.189245 0.708793
0.001517 -0.708615 0.699062
0.435636 0.233701 0.211062
-0.475468 -0.221133 0.730068
0.431809 0.234140 0.210625
-0.473127 -0.222056 0.729700
-0.468742 0.220048 -0.690201
-0.477031 -0.278157 -0.245536
0.004242 -0.709961 0.698551
0.459360 -0.267495 0.701773
0.025842 0.187880 0.708840
0.465706 0.257256 -0.697377
-0.457496 0.716504 -0.241370
-0.034063 0.742396 0.215769
-0.030949 0.744185 0.215123
-0.466351 0.221466 -0.688428
0.007695 -0.710276 -0.252290
-0.466924 0.218810 -0.688891
-0.458755 0.715622 -0.242340
0.026034 0.189328 0.708270
0.459622 -0.723375 0.213386
0.457209 -0.266609 0.701602
0.431951 0.234053 0.211098
-0.033264 0.745190 0.215145
0.466629 0.257056 -0.695152
-0.009459 -0.233654 -0.678071
0.003969 -0.709023 0.700324
0.457681 -0.723714 0.214738
0.016811 0.713112 -0.700604
-0.474591 -0.221268 0.730623
-0.444918 -0.659513 0.242613
-0.465530 0.220719 -0.689010
0.464196 0.255805 -0.696250
0.480824 -0.211764 -0.212651
-0.010370 -0.232658 -0.677609
-0.456163 0.714243 -0.243054
-0.444003 -0.660182 0.244192
0.456867 -0.268650 0.703716
0.433938 0.231426 0.211111
-0.428823 0.211025 0.220244
0.018055 0.716109 -0.697232
0.431550 0.233448 0.208606
0.025568 0.189203 0.708065
-0.473587 -0.219835 0.730196
0.434730 0.233766 0.210436
0.464589 0.256667 -0.696769
0.465409 0.257780 -0.696810
0.463096 0.258581 -0.695471
0.017428 0.716005 -0.699284
-0.033849 0.743997 0.213950
0.439889 0.726315 -0.231578
-0.458708 0.716807 -0.242718
-0.031741 0.742843 0.213684
0.456955 -0.266577 0.701278
0.018504 0.715190 -0.698269
0.024558 0.186604 0.709491
0.434519 0.233934 0.211743
0.016473 0.716248 -0.700342
-0.459526 0.716533 -0.243125
-0.458095 0.714410 -0.242343
0.441500 0.725093 -0.232855
0.441584 0.726924 -0.231820
0.006921 -0.706305 -0.251579
-0.475043 -0.278441 -0.242155
0.024919 0.188574 0.706528
-0.474210 -0.219081 0.730352
0.479242 -0.213300 -0.212639
0.465649 0.256637 -0.695678
-0.032249 0.741957 0.214834
0.025180 0.191284 0.709472
0.441396 0.726497 -0.233255
0.482606 -0.213616 -0.212027
0.457987 -0.267676 0.703130
0.481402 -0.212928 -0.213719
0.433229 0.233722 0.211692
-0.458047 0.716945 -0.241144
0.464833 0.256579 -0.695927
0.434838 0.232803 0.210409
0.457830 -0.266816 0.700845
0.025019 0.188581 0.709674
0.004516 -0.707727 0.698006
-0.032038 0.742691 0.215227
0.481772 -0.214218 -0.212506
0.024824 0.189022 0.710834
-0.465351 0.221262 -0.690579
-0.457361 0.715382 -0.243573
0.017319 0.715692 -0.697802
0.017488 0.716297 -0.698779
0.016423 0.714496 -0.698040
0.432880 0.234034 0.211138
-0.458687 0.715484 -0.242116
-0.032420 0.742690 0.212849
0.004361 -0.709257 0.698880
-0.457973 0.717059 -0.241796
0.459347 -0.724676 0.216497
0.480711 -0.212443 -0.211596
-0.445895 -0.660782 0.241363
0.441493 0.726559 -0.232072
0.432002 0.233143 0.211460
-0.476925 -0.277892 -0.241511
-0.456732 0.714942 -0.241870
0.017240 0.714738 -0.698099
0.465149 0.255565 -0.696785
0.457081 -0.265712 0.702569
