OFF
256 0 0
-0.617809 -0.742715 -0.149760
-0.619301 -0.276353 -0.601997
0.738190 0.189639 -0.602619
-0.176423 0.581475 0.706290
-0.156635 0.603220 -0.128082
0.305297 0.641061 -0.623561
0.734083 0.626949 -0.164593
0.284544 -0.268846 0.274216
-0.186284 -0.767933 0.279133
-0.163665 0.174202 -0.610346
-0.178424 0.581749 0.705402
-0.186228 -0.769275 0.279040
0.747429 0.157111 0.273159
0.738949 0.190487 -0.602345
-0.620861 -0.743633 -0.149421
-0.630865 0.161513 0.729806
0.747447 0.157433 0.274160
0.319796 0.157446 0.765076
-0.187271 -0.769932 0.280130
0.737365 0.189759 -0.603176
-0.634193 0.631811 0.286778
0.302216 -0.288280 -0.624943
0.290241 0.628563 0.306192
0.318693 0.158410 0.766387
0.303760 -0.286124 -0.625979
0.735869 0.627791 -0.164736
-0.635437 0.630164 0.285187
0.747979 0.158996 0.272937
-0.186001 -0.767696 0.280362
0.283684 -0.739404 -0.163772
-0.188699 -0.750812 -0.633761
0.772423 -0.296779 -0.160914
0.282918 -0.739127 -0.163032
-0.620925 -0.278260 -0.602832
0.732841 0.627713 -0.164984
-0.626066 -0.282386 0.279818
0.303262 -0.287809 -0.627174
-0.620518 -0.277256 -0.604540
0.746936 0.156965 0.272298
-0.620233 0.160464 -0.172315
-0.188530 -0.749621 -0.632171
-0.634183 0.631777 0.284480
-0.192059 -0.750697 -0.633152
0.303311 -0.286587 -0.628547
0.304851 0.639603 -0.623443
-0.620739 0.160161 -0.173878
0.285417 -0.270361 0.274094
0.302725 -0.288958 -0.626171
-0.620588 -0.743398 -0.150583
0.305884 0.641013 -0.624308
-0.189903 -0.750294 -0.632972
0.303696 0.638967 -0.625408
-0.634191 0.629433 0.285077
-0.620152 0.159527 -0.172894
0.739389 0.189644 -0.603884
-0.633825 0.631391 0.285254
-0.623908 -0.283019 0.280421
0.283939 -0.739436 -0.163946
0.304225 0.639985 -0.624200
0.280347 -0.740474 -0.165992
0.286226 -0.269131 0.273418
-0.620689 -0.276275 -0.602544
0.736790 0.189118 -0.602447
-0.623734 -0.283349 0.280268
-0.155237 0.602723 -0.127432
-0.624637 -0.283330 0.281130
0.739108 0.189743 -0.602177
0.734715 0.628329 -0.163483
0.302088 -0.287967 -0.626163
0.282080 -0.739366 -0.164231
0.747559 0.157346 0.272086
-0.619780 -0.742481 -0.148926
-0.153821 0.602200 -0.126822
-0.187510 -0.768133 0.281058
-0.155791 0.601725 -0.128538
-0.632747 0.629152 0.284319
0.318719 0.158381 0.765908
0.284778 -0.267554 0.272115
-0.631068 0.161746 0.733088
0.734687 0.627219 -0.164270
0.737918 0.189896 -0.602544
-0.163503 0.174130 -0.610667
0.303204 -0.288914 -0.627121
0.305159 0.639978 -0.624232
0.319445 0.156979 0.764276
-0.155039 0.601131 -0.127341
0.302651 0.639127 -0.624869
0.307472 0.640384 -0.625314
-0.633666 0.630366 0.286012
0.746501 0.157608 0.272821
-0.159112 -0.291966 0.738665
0.319633 0.156826 0.764659
0.771608 -0.296232 -0.160799
-0.162023 0.173213 -0.608026
0.734652 0.627382 -0.164438
-0.617928 -0.744112 -0.147705
-0.620005 0.159872 -0.174901
-0.620705 -0.743208 -0.148897
-0.620360 -0.277599 -0.601936
-0.621375 0.158572 -0.173864
0.292333 0.628589 0.306256
-0.623191 -0.282410 0.279230
0.735304 0.627597 -0.165318
0.750031 0.157126 0.273231
0.733352 0.625532 -0.166481
-0.190410 -0.750750 -0.632443
-0.630911 0.160782 0.731591
0.318361 0.157344 0.766903
-0.155575 0.601296 -0.126072
-0.162177 0.174566 -0.611465
0.772769 -0.297035 -0.159647
-0.619774 -0.276086 -0.603963
-0.191208 -0.748598 -0.633717
0.303608 -0.289141 -0.624658
-0.620855 -0.276638 -0.601994
0.304851 0.639454 -0.625509
-0.621477 -0.282724 0.281050
-0.157507 -0.296093 0.737983
-0.178175 0.581594 0.705594
-0.159394 -0.296413 0.740649
-0.158080 -0.295337 0.740284
-0.162911 0.172962 -0.610232
-0.154674 0.601222 -0.127244
0.285257 -0.267941 0.275845
-0.156787 0.602000 -0.127064
0.290873 0.627614 0.305476
0.303365 -0.289319 -0.626947
0.290875 0.626784 0.307279
0.737719 0.188671 -0.603531
0.318467 0.159299 0.766666
-0.621314 0.159537 -0.172602
0.318561 0.156935 0.764446
-0.623749 -0.281684 0.279479
0.281666 -0.738617 -0.164257
-0.162553 0.173200 -0.611432
-0.191169 -0.750844 -0.631950
0.283917 -0.268992 0.274268
0.737316 0.190492 -0.604001
-0.162072 0.176008 -0.611678
0.281431 -0.739358 -0.163333
0.285590 -0.267466 0.275488
-0.635955 0.629592 0.285458
-0.159688 -0.295059 0.739121
0.289970 0.629779 0.306139
0.284008 -0.266835 0.273664
0.318977 0.159173 0.765685
-0.620531 -0.276935 -0.602361
0.319569 0.159122 0.766198
-0.162786 0.172777 -0.608617
-0.619570 0.159004 -0.173530
-0.152705 0.600063 -0.125457
-0.619704 -0.742502 -0.150242
0.281735 -0.739967 -0.163925
0.734412 0.626686 -0.164806
0.734656 0.625917 -0.163081
-0.630779 0.161682 0.731278
-0.622158 0.157981 -0.174688
-0.620808 -0.277368 -0.602225
0.283778 -0.739503 -0.162778
-0.619141 -0.278566 -0.603429
-0.158130 -0.294805 0.740664
-0.634416 0.629597 0.285229
0.305946 0.639609 -0.623924
-0.155698 0.602189 -0.128744
-0.621092 -0.277971 -0.603725
-0.161987 0.174109 -0.610817
0.306076 0.639670 -0.625348
-0.155740 0.602178 -0.126767
-0.156006 0.603692 -0.127645
-0.177343 0.581769 0.705295
0.739523 0.187964 -0.603032
-0.620334 -0.277655 -0.603222
-0.158082 -0.295069 0.739477
-0.153905 0.602068 -0.127790
-0.177103 0.582964 0.705163
-0.619715 -0.742386 -0.148864
-0.163399 0.174812 -0.609525
-0.620346 -0.277174 -0.602513
0.305579 0.639020 -0.623322
-0.154395 0.602709 -0.128319
-0.163904 0.174068 -0.609919
-0.163416 0.173354 -0.610632
0.285567 -0.266700 0.273738
0.305053 -0.289732 -0.628723
-0.630188 0.161962 0.729809
-0.623899 -0.283417 0.279604
-0.154071 0.601197 -0.128124
-0.619163 0.159642 -0.173445
-0.191272 -0.748432 -0.633055
-0.631058 0.159214 0.730493
-0.618751 -0.278972 -0.602296
0.291521 0.626283 0.307011
0.738051 0.189170 -0.603826
-0.620891 -0.277925 -0.603346
0.302517 -0.288453 -0.627339
-0.177666 0.582009 0.705163
-0.619129 -0.744787 -0.148340
0.285214 -0.268560 0.272223
-0.178130 0.583226 0.706878
-0.158645 -0.293289 0.739744
0.304616 0.640732 -0.624506
-0.619321 -0.743868 -0.149522
-0.630435 0.161449 0.729790
-0.621011 -0.277876 -0.601522
0.739023 0.190822 -0.604875
0.739274 0.190090 -0.603015
0.734321 0.626974 -0.165776
0.306304 0.640611 -0.623849
-0.622089 -0.283304 0.279038
-0.621209 0.157408 -0.174606
0.746069 0.156151 0.274167
-0.176345 0.582410 0.706700
-0.161922 0.171726 -0.609504
0.285456 -0.268023 0.273915
0.747449 0.157512 0.271699
-0.163838 0.175283 -0.610563
0.318796 0.159519 0.765498
-0.623949 -0.282101 0.280927
-0.630823 0.161674 0.730594
0.302469 -0.288204 -0.626161
-0.159604 -0.294156 0.739537
0.303618 -0.289645 -0.628204
-0.635600 0.629361 0.286245
-0.177765 0.581446 0.705691
-0.185062 -0.767941 0.280258
-0.621749 -0.281619 0.280344
0.774097 -0.297060 -0.160372
-0.623613 -0.281981 0.278859
-0.162245 0.173542 -0.609367
0.286217 -0.267206 0.274001
-0.624359 -0.281578 0.281638
-0.620672 -0.744505 -0.147354
-0.618804 -0.743832 -0.150004
-0.154854 0.601950 -0.128173
0.320274 0.158220 0.765047
0.320721 0.158856 0.764959
-0.629863 0.161193 0.728600
0.285674 -0.267181 0.273644
-0.155714 0.601166 -0.126001
-0.631647 0.161028 0.731113
-0.162926 0.174695 -0.610750
-0.624240 -0.283179 0.280866
0.290371 0.627728 0.307474
0.320374 0.158854 0.766412
0.301627 -0.287684 -0.627082
0.290334 0.627441 0.306394
-0.190731 -0.749339 -0.633839
0.302555 -0.288376 -0.627339
-0.624090 -0.282058 0.280219
0.303116 -0.287893 -0.626043
0.746310 0.158352 0.273943
-0.188054 -0.750604 -0.634230
-0.163263 0.174034 -0.611153
-0.189385 -0.748772 -0.633304
-0.187070 -0.768066 0.279308
-0.155804 0.602342 -0.128326
