OFF
256 0 0
-0.636461 0.609805 0.283420
0.272041 -0.733356 -0.169282
-0.636122 0.613426 0.283714
0.730812 0.600027 -0.150471
0.745332 0.158946 0.307611
-0.152269 0.575824 -0.129005
-0.161373 0.181653 -0.592865
-0.637006 0.612258 0.282913
0.272770 -0.733205 -0.171955
0.292716 -0.252022 -0.599649
-0.124167 -0.729366 -0.619027
-0.178038 0.592392 0.729738
-0.634617 0.611696 0.281905
0.751347 0.185094 -0.607189
-0.122600 -0.730317 -0.621572
-0.634539 -0.753469 -0.174422
0.271655 -0.732935 -0.170611
-0.178093 0.593399 0.729462
-0.150011 0.578478 -0.129595
0.730515 0.597981 -0.148572
0.740418 -0.260598 -0.154989
-0.177213 -0.304694 0.724814
0.730071 0.599210 -0.150482
-0.167380 -0.729723 0.267672
0.753564 0.184724 -0.607403
-0.634077 -0.756040 -0.174281
-0.602931 0.159570 0.709516
0.752972 0.184390 -0.604618
0.271233 -0.732336 -0.171437
-0.626134 -0.333097 0.285533
-0.124587 -0.728590 -0.620335
0.741737 -0.260330 -0.154487
0.746697 0.159651 0.307384
0.292601 0.597450 0.275345
0.740791 -0.261229 -0.153787
0.244403 -0.223719 0.223242
0.746964 0.159115 0.305967
-0.167526 -0.728944 0.267461
-0.152714 0.577013 -0.130472
0.245932 -0.223615 0.224943
-0.151960 0.577465 -0.130126
0.292533 0.182788 0.747417
0.288246 -0.251891 -0.597991
-0.635683 0.612249 0.281445
0.294854 0.597295 0.277384
-0.165978 -0.730537 0.267905
0.293524 0.598674 0.274380
-0.123806 -0.729654 -0.619014
0.752022 0.185436 -0.606268
0.291386 -0.253759 -0.599355
0.244402 -0.224802 0.224781
-0.165261 -0.730084 0.266399
-0.591430 0.170244 -0.139769
-0.165512 -0.727431 0.268664
0.281727 0.592439 -0.625541
0.244737 -0.222960 0.225460
-0.178215 0.594260 0.730090
0.272680 -0.734253 -0.172136
0.281708 0.592800 -0.623693
0.284156 0.592151 -0.625747
0.745267 0.159806 0.307904
0.283323 0.592145 -0.624569
-0.626150 -0.331703 0.285157
-0.179829 0.590901 0.729364
-0.635022 0.613195 0.282733
0.728268 0.599258 -0.150058
0.245035 -0.222209 0.224924
0.272732 -0.732886 -0.170457
-0.165571 -0.729943 0.267541
0.246722 -0.223463 0.222387
-0.590631 0.168071 -0.138802
-0.624036 -0.330808 0.286640
0.745237 0.160788 0.307612
0.740445 -0.259114 -0.153251
0.752419 0.185178 -0.606368
0.244329 -0.223525 0.223446
0.245765 -0.223989 0.222511
0.729097 0.598791 -0.150749
-0.122766 -0.728430 -0.621960
-0.625013 -0.332934 0.287581
0.290886 0.180976 0.748034
-0.166894 -0.729734 0.266448
-0.636150 0.612585 0.280746
0.291800 0.181397 0.746883
0.270795 -0.731839 -0.168525
-0.160305 0.182999 -0.594715
0.290004 0.182697 0.749039
0.743670 0.161666 0.305182
-0.161959 0.181015 -0.594486
0.283074 0.591698 -0.625187
0.291890 0.600706 0.276950
-0.636057 0.611493 0.281950
-0.623980 -0.333011 0.283829
-0.167485 -0.731732 0.267336
-0.161392 0.181073 -0.593511
-0.181382 0.593318 0.730387
-0.175092 -0.305856 0.723821
0.753422 0.183541 -0.608044
-0.590475 0.169544 -0.136806
-0.150003 0.577065 -0.129800
0.282717 0.590807 -0.625142
0.741020 -0.261818 -0.153468
-0.178292 -0.303081 0.722719
-0.636951 0.611949 0.284212
0.292373 0.597742 0.276973
0.290469 0.182467 0.749400
0.284587 0.590881 -0.624936
-0.598893 -0.284226 -0.594232
-0.603722 0.157031 0.708665
-0.123583 -0.732392 -0.620957
-0.622876 -0.330238 0.285318
-0.161505 0.184710 -0.594654
0.274208 -0.734882 -0.170608
-0.634685 -0.753474 -0.174802
0.754066 0.184950 -0.607929
-0.176493 -0.306522 0.723915
0.740919 -0.259940 -0.152612
-0.160433 0.179681 -0.594399
-0.178291 0.593339 0.729786
-0.161712 0.183065 -0.592965
-0.122863 -0.730152 -0.619162
-0.165102 -0.729952 0.268329
-0.600128 -0.284149 -0.593936
-0.627001 -0.329092 0.284754
0.755904 0.184097 -0.605636
-0.164134 -0.729065 0.268378
-0.122837 -0.729347 -0.619822
0.753725 0.184248 -0.605898
-0.624664 -0.332886 0.286181
-0.600863 -0.285366 -0.593978
-0.166663 -0.728686 0.269273
-0.161834 0.183597 -0.594789
0.728351 0.599225 -0.151126
-0.176391 -0.307673 0.723126
-0.125085 -0.730350 -0.619400
-0.166254 -0.729574 0.267506
0.273842 -0.733379 -0.172193
0.246134 -0.221456 0.222119
-0.633973 -0.754078 -0.174698
-0.599408 -0.283258 -0.593604
-0.177380 0.593314 0.729763
-0.624433 -0.331147 0.285859
-0.591509 0.169199 -0.137794
-0.150825 0.579037 -0.130935
-0.176008 -0.304256 0.721493
-0.181081 0.593372 0.732600
0.755149 0.183300 -0.605388
-0.591742 0.169670 -0.140968
-0.601208 0.158524 0.709227
0.752738 0.185112 -0.607833
-0.632717 -0.754033 -0.174369
-0.166293 -0.730083 0.268095
-0.176224 -0.306468 0.723653
-0.122868 -0.730171 -0.619992
0.752797 0.184059 -0.606654
-0.624655 -0.331170 0.285636
-0.152506 0.577323 -0.131483
-0.164760 -0.729462 0.268625
-0.636283 0.611223 0.282781
-0.602683 0.157174 0.710361
-0.631720 -0.751365 -0.175490
0.272250 -0.732451 -0.170865
-0.591324 0.167102 -0.138319
-0.600260 -0.284258 -0.592811
-0.178949 0.592227 0.730854
-0.167495 -0.731845 0.267211
-0.635251 0.612443 0.281447
-0.633305 -0.752887 -0.174547
0.730817 0.598596 -0.147741
-0.623628 -0.331694 0.286527
0.243511 -0.222421 0.223476
-0.163331 0.181076 -0.594013
0.729984 0.598965 -0.149487
0.744719 0.159791 0.308032
-0.152148 0.577824 -0.129635
-0.165372 -0.730961 0.267615
-0.164913 -0.728709 0.267614
-0.165302 -0.729829 0.267609
-0.179580 0.592634 0.729220
-0.123938 -0.730025 -0.620306
0.293285 0.598136 0.274946
-0.634747 -0.754332 -0.173792
-0.178967 0.592482 0.730449
-0.635927 0.611922 0.282610
-0.633646 -0.753502 -0.175230
-0.602657 0.156213 0.708135
0.272145 -0.734391 -0.171972
0.245877 -0.223445 0.224848
-0.174701 -0.305622 0.723785
0.744065 0.160787 0.306847
-0.600628 -0.286379 -0.592845
0.292884 0.598325 0.276299
-0.162420 0.182225 -0.594315
-0.625154 -0.331592 0.285411
0.247581 -0.223657 0.223840
-0.167191 -0.729168 0.265274
-0.636238 0.613367 0.285788
-0.634120 -0.755269 -0.173850
0.740402 -0.258656 -0.153473
0.728716 0.598952 -0.148697
-0.166703 -0.729100 0.266304
-0.150795 0.577575 -0.130826
-0.175431 -0.304735 0.724839
-0.633860 -0.754521 -0.175656
-0.167231 -0.730205 0.267829
-0.599493 -0.286022 -0.591729
0.288787 0.181245 0.747330
0.285312 0.591721 -0.625614
-0.152517 0.577059 -0.131090
-0.602915 0.159343 0.709442
0.290961 -0.252551 -0.597221
-0.166406 -0.728584 0.267668
-0.602850 0.157252 0.708953
-0.151888 0.577312 -0.131316
-0.625048 -0.331680 0.284702
0.245312 -0.223285 0.225536
-0.634567 0.613029 0.282747
0.284636 0.592922 -0.625716
0.272205 -0.733030 -0.170401
-0.601458 0.157301 0.708236
0.246330 -0.222233 0.225762
-0.180056 0.592461 0.730861
-0.176698 -0.306830 0.722883
0.273020 -0.734703 -0.171611
-0.178921 0.593549 0.728881
-0.176341 -0.305676 0.722759
-0.634162 -0.753175 -0.174059
-0.635064 -0.753309 -0.174759
-0.599897 -0.286557 -0.595240
-0.177309 0.593965 0.729985
-0.601341 0.157751 0.709468
-0.164534 -0.730469 0.268130
-0.604105 0.157673 0.708847
0.289061 0.182324 0.747589
0.746832 0.158705 0.306257
-0.167269 -0.728137 0.267076
-0.123196 -0.730020 -0.621123
0.272151 -0.734250 -0.170096
-0.166142 -0.730325 0.266463
-0.151781 0.579084 -0.129927
-0.626333 -0.333213 0.283909
-0.604406 0.157895 0.709790
0.730567 0.599488 -0.150369
0.292599 0.597637 0.276662
0.272627 -0.734584 -0.171526
-0.590127 0.168200 -0.138972
-0.635137 0.611868 0.281572
-0.124684 -0.731232 -0.621040
0.274632 -0.733774 -0.172149
0.731113 0.599479 -0.149920
-0.161179 0.183382 -0.593302
0.274335 -0.733147 -0.170742
0.740425 -0.260180 -0.153995
-0.600767 -0.285791 -0.594543
0.730246 0.599539 -0.150728
-0.180171 0.593475 0.730605
