OFF
256 0 0
0.743922 -0.292547 -0.168688
0.733216 0.173234 -0.622965
-0.603867 0.604928 0.284375
-0.164153 0.144284 -0.570136
-0.168876 0.609520 -0.155849
0.706657 0.146880 0.262629
-0.157386 0.575486 0.739533
-0.156865 -0.277679 0.735195
-0.576168 -0.724283 -0.169695
0.733128 0.174164 -0.626006
0.266732 -0.724767 -0.153791
-0.571492 -0.262965 0.297345
0.265813 -0.724300 -0.154294
-0.624826 0.138954 -0.157639
0.288079 0.149899 0.744073
-0.569118 -0.261597 0.299737
0.734941 0.630793 -0.187362
-0.633291 0.178989 0.753776
0.286272 0.151042 0.745544
-0.577993 -0.724050 -0.169913
0.743346 -0.293615 -0.170202
0.705568 0.147178 0.261359
0.707523 0.147590 0.262335
-0.626005 -0.287361 -0.632826
-0.621892 0.140840 -0.158260
-0.577587 -0.725572 -0.169149
-0.624899 -0.288900 -0.630087
0.282440 0.627018 -0.600005
0.744603 -0.292612 -0.169120
-0.624617 -0.288278 -0.630192
-0.568913 -0.261614 0.298153
0.289499 -0.298250 0.268514
0.290065 -0.297232 0.271039
0.707430 0.147709 0.262903
0.284507 0.628389 -0.599516
0.744527 -0.291252 -0.169463
0.290506 -0.296562 0.267924
0.283493 0.628665 -0.599336
-0.165272 0.142127 -0.568321
-0.632243 0.179688 0.752526
-0.169918 -0.709772 -0.660903
0.278401 -0.278199 -0.583866
0.266680 -0.724454 -0.154943
-0.606388 0.602804 0.285480
0.285853 0.628859 -0.599562
-0.168851 -0.709308 -0.661593
0.288182 0.150504 0.743279
-0.571218 -0.262390 0.297399
0.287283 0.150388 0.744510
0.264144 -0.724987 -0.152417
-0.132436 -0.740870 0.307450
-0.163084 0.144215 -0.566453
-0.623206 0.139562 -0.155896
-0.634982 0.177504 0.751678
-0.570672 -0.262918 0.296464
0.278396 -0.276167 -0.581962
0.257547 0.611486 0.269172
-0.168633 -0.709826 -0.661975
-0.622488 0.139426 -0.156630
0.278676 -0.276789 -0.583403
0.709434 0.148201 0.263576
-0.623858 0.138541 -0.156318
-0.574980 -0.726370 -0.169564
-0.606461 0.603030 0.284465
0.706271 0.147778 0.263935
-0.576000 -0.725038 -0.169914
-0.631802 0.178363 0.755181
0.733417 0.173828 -0.624142
0.289122 -0.300303 0.268894
-0.155457 -0.277375 0.734990
0.286859 0.149463 0.743971
0.284775 0.627776 -0.598954
0.745858 -0.290656 -0.170208
0.743404 -0.293344 -0.171287
0.289440 -0.297334 0.270090
-0.170326 -0.710489 -0.662696
-0.570409 -0.262730 0.297304
-0.131732 -0.739255 0.306012
-0.604949 0.602870 0.284143
-0.576680 -0.725048 -0.169055
-0.158629 0.573301 0.740261
-0.635180 0.176626 0.751896
0.277601 -0.276516 -0.583404
-0.624774 0.140752 -0.156340
-0.171236 -0.707755 -0.664602
-0.575849 -0.722830 -0.170066
0.284720 0.627947 -0.599169
0.290217 -0.298681 0.270234
-0.170341 -0.708897 -0.661770
0.743986 -0.292909 -0.170980
-0.157085 -0.275765 0.734906
0.737030 0.628641 -0.185773
-0.132493 -0.739211 0.305613
0.256065 0.613615 0.271124
-0.168063 0.610822 -0.154710
0.276763 -0.276664 -0.579767
-0.130623 -0.739397 0.304413
0.286736 0.149382 0.744462
0.289151 -0.298653 0.271080
0.290042 0.149429 0.743651
-0.634133 0.179305 0.751404
0.707862 0.146621 0.262929
0.284512 0.627069 -0.600545
-0.162107 0.143251 -0.568400
-0.157246 0.574876 0.738365
0.736116 0.629398 -0.186786
0.283571 0.628489 -0.598771
0.268950 -0.723331 -0.153984
-0.569655 -0.263676 0.298417
0.267138 -0.723201 -0.154838
-0.622073 0.140411 -0.156158
-0.633477 0.177145 0.752623
0.746986 -0.290225 -0.171552
0.257531 0.613693 0.268136
0.266677 -0.724210 -0.156239
-0.635365 0.178368 0.751391
-0.161918 0.143576 -0.568671
0.744676 -0.292314 -0.171014
0.268052 -0.724374 -0.153403
0.282461 0.626477 -0.600686
0.287144 0.150892 0.745113
-0.569768 -0.261297 0.297467
0.278451 -0.276758 -0.581798
-0.169364 0.610345 -0.156496
-0.131112 -0.741785 0.305292
-0.626239 -0.289124 -0.632343
-0.163192 0.140938 -0.567286
0.277256 -0.277829 -0.582856
-0.625456 -0.289570 -0.630793
-0.156875 0.576244 0.738339
-0.623176 0.139275 -0.155920
0.268189 -0.725063 -0.153864
0.267285 -0.723084 -0.152235
0.256801 0.610791 0.269071
-0.162495 0.141927 -0.568990
0.284279 0.627764 -0.598417
0.289512 -0.297490 0.270349
-0.169930 0.609350 -0.156366
0.257702 0.613232 0.272405
0.708097 0.148080 0.264029
0.731984 0.173164 -0.626231
-0.624925 0.138701 -0.155593
-0.606323 0.603412 0.284314
0.732992 0.175477 -0.622338
-0.633041 0.177012 0.752239
0.708204 0.147870 0.262502
-0.622513 0.139948 -0.156231
0.707710 0.146642 0.262853
0.290052 -0.298394 0.267926
0.276861 -0.277009 -0.583691
0.288078 0.150306 0.745821
0.744900 -0.291896 -0.170221
0.746600 -0.292483 -0.171023
0.288583 -0.299490 0.270364
-0.158488 -0.276175 0.735543
0.736515 0.632135 -0.187022
0.284506 0.628353 -0.599160
-0.575742 -0.724231 -0.169694
0.267775 -0.724574 -0.155175
-0.633714 0.178445 0.751238
-0.570661 -0.263178 0.298490
-0.163436 0.143170 -0.568913
-0.605985 0.603926 0.285316
-0.167588 0.609202 -0.155376
-0.157281 0.574584 0.740915
0.707087 0.147121 0.261600
0.290285 -0.299354 0.269183
-0.634616 0.176000 0.752559
0.746422 -0.292452 -0.169877
-0.170276 -0.709391 -0.662805
0.257633 0.613077 0.271303
0.742935 -0.291419 -0.169533
0.255447 0.612105 0.269610
-0.633539 0.179190 0.754072
0.257165 0.609773 0.270187
0.264487 -0.723201 -0.153818
-0.571147 -0.261610 0.298971
0.258296 0.610536 0.269840
0.267387 -0.722599 -0.154392
-0.167042 0.609271 -0.154611
0.282086 0.627678 -0.598360
0.741845 -0.290766 -0.170009
0.708450 0.148253 0.263311
-0.575594 -0.724990 -0.170106
-0.605755 0.604985 0.284875
-0.605635 0.603013 0.285491
0.707954 0.147431 0.263744
-0.169769 -0.707775 -0.663308
0.284669 0.628543 -0.600350
-0.167611 0.610300 -0.155415
-0.158655 -0.277510 0.734896
-0.169357 -0.709007 -0.665070
-0.621731 0.139716 -0.157886
0.281556 0.627181 -0.599321
0.277463 -0.278506 -0.583038
-0.624435 0.138214 -0.155837
0.742690 -0.293077 -0.169691
0.278035 -0.275672 -0.580292
0.276530 -0.275754 -0.581554
-0.156901 -0.275167 0.734875
-0.168112 0.609049 -0.153776
0.732425 0.173412 -0.625091
0.280922 0.626910 -0.600110
0.278084 -0.274792 -0.582342
-0.571346 -0.261229 0.296186
-0.625954 -0.289551 -0.629479
0.279126 -0.276935 -0.582453
-0.163114 0.144204 -0.569189
0.289425 -0.297893 0.268406
-0.623712 0.139545 -0.156843
0.286143 0.150415 0.744047
-0.570238 -0.260645 0.298133
0.731654 0.174661 -0.624984
0.289213 0.149388 0.744216
0.734613 0.174267 -0.624293
-0.576096 -0.723069 -0.170181
0.258278 0.612637 0.270399
0.266302 -0.724879 -0.153687
-0.603375 0.604120 0.284390
-0.570756 -0.263103 0.299459
-0.170040 -0.708219 -0.661597
-0.625041 -0.287553 -0.631563
-0.155707 -0.275358 0.733664
0.283844 0.628467 -0.599179
-0.633899 0.178663 0.752923
-0.625220 0.140261 -0.157195
0.744784 -0.293196 -0.170026
-0.622879 0.141151 -0.157108
-0.157956 -0.276788 0.735452
0.707958 0.147923 0.260339
-0.132730 -0.739758 0.305423
0.744231 -0.292286 -0.169643
-0.161397 0.143040 -0.569337
0.741772 -0.293769 -0.170365
0.735247 0.631327 -0.184630
-0.575688 -0.724455 -0.170613
0.736543 0.629687 -0.187549
-0.156883 -0.275958 0.735959
-0.576025 -0.726259 -0.168862
-0.167432 -0.708718 -0.664342
-0.169666 -0.708793 -0.661900
-0.625490 -0.288327 -0.631350
-0.577094 -0.722117 -0.169743
-0.633917 0.176225 0.752403
0.736930 0.628487 -0.186656
-0.576713 -0.724583 -0.171195
0.706100 0.147789 0.262324
0.282051 0.628411 -0.600759
0.289225 -0.298753 0.270077
0.287968 0.151627 0.743708
0.734790 0.630921 -0.187501
-0.156686 -0.277993 0.735766
-0.157676 0.573647 0.741766
-0.632886 0.179602 0.753237
0.258972 0.611572 0.268506
0.268010 -0.722785 -0.154883
