OFF
256 0 0
-0.690654 0.011336 -0.650930
0.680303 -0.051446 -0.679482
0.003321 -0.700827 -0.710132
0.681425 -0.051064 -0.677994
-0.689569 0.014106 -0.650859
-0.689575 0.012178 -0.650735
0.681018 -0.049889 -0.678512
0.680262 -0.048309 -0.679094
0.621930 -0.647742 0.007921
0.681349 -0.049270 -0.679619
0.005674 0.719867 0.632959
-0.689463 0.013108 -0.650263
0.622920 -0.649413 0.007589
0.663832 0.001583 0.741578
-0.690060 0.012802 -0.648983
-0.672539 0.681053 -0.013919
0.034488 -0.685847 0.709836
-0.689446 0.010235 -0.651181
0.685256 0.655409 -0.028543
0.002111 -0.702746 -0.710565
0.680115 -0.049052 -0.676662
0.002915 0.722337 0.632399
-0.675816 0.681224 -0.014510
-0.694309 -0.672038 -0.007694
0.665123 -0.000372 0.741506
-0.693138 -0.671606 -0.007884
0.623351 -0.648834 0.009631
-0.649481 0.017927 0.658964
0.681676 -0.048322 -0.681360
0.003544 -0.702063 -0.711022
0.035186 -0.685417 0.707706
-0.648739 0.017761 0.659769
0.624624 -0.649713 0.009429
0.685890 0.655307 -0.024411
0.034396 -0.684540 0.706497
0.013681 0.673220 -0.660510
-0.676954 0.679744 -0.016796
0.663985 0.001686 0.741078
0.679034 -0.049894 -0.680248
-0.690462 0.012794 -0.649878
0.001944 -0.704000 -0.711383
0.034252 -0.686601 0.708943
0.034384 -0.686063 0.709326
-0.648387 0.019639 0.659480
0.034466 -0.685341 0.707360
0.622133 -0.648333 0.008629
0.624897 -0.650481 0.008862
-0.695895 -0.671898 -0.007279
0.663644 0.001220 0.740921
-0.648250 0.017300 0.661948
0.624761 -0.650991 0.007472
0.687254 0.653526 -0.026388
0.664294 0.002450 0.741479
-0.649024 0.017473 0.659949
0.004683 0.720586 0.632872
0.033791 -0.686285 0.707731
0.015185 0.674427 -0.662312
0.005071 0.720047 0.632800
0.004279 -0.701745 -0.710600
0.664384 0.003613 0.741066
0.679391 -0.048177 -0.679572
0.003303 0.721065 0.634224
-0.688829 0.012222 -0.648829
0.013694 0.673692 -0.663140
-0.675249 0.678149 -0.013074
-0.693527 -0.669354 -0.009859
0.014519 0.673558 -0.664425
-0.675121 0.677328 -0.015192
-0.689066 0.014317 -0.650075
0.012494 0.673230 -0.661455
0.682122 -0.049008 -0.678951
0.686292 0.653635 -0.025948
0.003426 0.721586 0.632858
0.004896 0.720215 0.631761
-0.695299 -0.672120 -0.007254
0.624151 -0.649812 0.008059
-0.689881 0.013050 -0.649919
0.004148 0.722437 0.631666
0.012335 0.671193 -0.661977
0.666055 0.000610 0.741151
0.003335 0.722220 0.634200
0.003779 -0.704138 -0.709263
0.033302 -0.687003 0.706657
0.013428 0.674405 -0.662345
0.682551 -0.049844 -0.679159
0.034258 -0.686854 0.709653
0.686143 0.654913 -0.026444
0.001730 -0.702256 -0.711597
-0.648034 0.020224 0.658936
-0.695855 -0.672476 -0.010412
0.034240 -0.686532 0.707637
0.003855 0.720892 0.632803
-0.695386 -0.671552 -0.007990
-0.693310 -0.670883 -0.007347
0.623745 -0.649041 0.009427
0.666024 0.002280 0.741463
0.013420 0.672173 -0.661283
0.684622 0.653790 -0.025960
0.033029 -0.686431 0.708415
0.623491 -0.648760 0.010046
0.002199 -0.702753 -0.710013
0.686345 0.656678 -0.025076
-0.690058 0.011898 -0.651401
0.624655 -0.649127 0.009006
-0.675263 0.681325 -0.016196
0.622485 -0.648704 0.010076
0.686048 0.655449 -0.026153
-0.649300 0.016646 0.660688
-0.647347 0.018684 0.661320
0.684002 0.655949 -0.025854
-0.673978 0.679366 -0.014367
-0.676128 0.679997 -0.014911
-0.695081 -0.670092 -0.008089
0.665512 0.000989 0.740456
-0.688693 0.013072 -0.650813
-0.649882 0.017887 0.660504
0.685594 0.653677 -0.025417
0.623697 -0.650766 0.009316
0.034126 -0.686387 0.710714
0.663973 0.001446 0.741598
-0.689629 0.010394 -0.649739
0.685781 0.655271 -0.027189
0.678438 -0.048235 -0.680846
0.680541 -0.047449 -0.678622
-0.674833 0.682013 -0.014540
-0.694578 -0.673171 -0.008552
-0.648336 0.019565 0.662871
0.005558 0.723039 0.632825
0.012562 0.671842 -0.661782
0.622450 -0.650149 0.010492
0.665308 0.001445 0.740708
-0.648656 0.018402 0.659058
-0.676090 0.680454 -0.015509
-0.689936 0.010396 -0.650490
0.665038 0.001605 0.742854
0.684739 0.655411 -0.025816
0.032684 -0.686082 0.710364
0.032648 -0.687443 0.708837
0.003466 -0.703928 -0.710682
-0.694991 -0.673230 -0.008007
0.003369 -0.704248 -0.710860
-0.690267 0.012815 -0.650117
0.680537 -0.050126 -0.678630
-0.695508 -0.672525 -0.008270
0.679802 -0.049388 -0.679211
-0.689714 0.010768 -0.649771
-0.649484 0.015572 0.659674
0.003533 -0.703575 -0.711227
-0.688342 0.011896 -0.648335
0.680773 -0.050231 -0.679612
0.679847 -0.048321 -0.679771
0.005342 0.721615 0.634408
-0.675064 0.679897 -0.014883
-0.689260 0.012220 -0.649671
0.622409 -0.649535 0.008759
-0.695408 -0.671529 -0.011137
0.002914 -0.703500 -0.709244
0.685851 0.654796 -0.026635
-0.690197 0.012530 -0.647981
-0.696091 -0.670682 -0.006976
0.624198 -0.648738 0.009041
0.004038 0.721513 0.634309
0.621893 -0.650926 0.007716
0.013693 0.674297 -0.661044
0.663774 0.001669 0.742464
0.005905 0.722235 0.633431
-0.694462 -0.671662 -0.007313
0.664160 0.002304 0.742126
-0.695736 -0.673767 -0.008393
-0.649734 0.018427 0.659435
0.004001 0.720344 0.632693
0.624174 -0.650697 0.007303
0.003176 0.722894 0.631428
0.003697 -0.702129 -0.710299
0.665519 0.002033 0.741808
-0.690207 0.012353 -0.651337
0.002656 -0.702359 -0.710603
0.687863 0.656257 -0.025491
-0.676533 0.680812 -0.015209
-0.694882 -0.673490 -0.009832
-0.674770 0.680936 -0.013268
-0.691171 0.012411 -0.651791
0.686491 0.653957 -0.026843
0.013631 0.673993 -0.661625
-0.648772 0.017062 0.659024
-0.688521 0.012446 -0.648485
0.013513 0.673350 -0.662840
0.681255 -0.048285 -0.682019
-0.691328 0.012827 -0.650724
0.621106 -0.649906 0.010384
0.002889 -0.702916 -0.710783
-0.688853 0.012424 -0.651232
-0.695465 -0.672761 -0.009572
0.013384 0.672229 -0.662673
-0.674614 0.679976 -0.016164
0.004933 0.722851 0.632072
-0.647977 0.018013 0.659859
-0.689608 0.013879 -0.650678
0.667062 0.002335 0.743188
0.623967 -0.651187 0.009259
0.001953 -0.703257 -0.711404
-0.675133 0.681796 -0.016411
0.012562 0.673651 -0.663417
-0.647886 0.017372 0.661436
0.685237 0.654971 -0.026264
0.000692 -0.702039 -0.709168
-0.695803 -0.671679 -0.007542
-0.649795 0.018622 0.660663
0.006267 0.721843 0.633212
0.032471 -0.684941 0.708867
-0.649104 0.016896 0.658428
0.623930 -0.651659 0.009652
0.685787 0.653373 -0.026667
0.623749 -0.649928 0.009718
-0.674103 0.680669 -0.014613
-0.694378 -0.670528 -0.006851
0.622185 -0.650397 0.008899
-0.694746 -0.671445 -0.010471
-0.650869 0.018717 0.660836
-0.688675 0.012004 -0.649126
0.013399 0.672975 -0.662232
-0.675065 0.680010 -0.014245
0.624299 -0.649097 0.008734
0.666097 0.002131 0.738514
0.013799 0.674959 -0.662264
-0.695348 -0.671333 -0.008367
0.686288 0.656390 -0.027744
0.686023 0.654463 -0.025343
-0.690215 0.012331 -0.651186
0.622150 -0.650151 0.008365
0.686482 0.655467 -0.025429
0.034593 -0.683593 0.709459
0.684838 0.654191 -0.026009
-0.675250 0.679286 -0.016100
0.623762 -0.650517 0.008755
0.003584 -0.701841 -0.711356
0.014279 0.671773 -0.660619
-0.674922 0.681246 -0.014515
0.006500 0.721210 0.632318
0.004335 0.719966 0.634585
0.680734 -0.049576 -0.677609
0.685142 0.652908 -0.028143
0.013277 0.674291 -0.662164
0.680418 -0.048468 -0.680492
0.011272 0.672892 -0.663019
0.033299 -0.685550 0.710778
0.013741 0.671368 -0.660066
0.686846 0.653343 -0.025676
0.000591 -0.702981 -0.710422
-0.690258 0.011949 -0.648967
0.035199 -0.684703 0.707414
0.012906 0.671943 -0.661132
-0.675880 0.678802 -0.015497
0.012983 0.674251 -0.659206
0.005048 0.721014 0.632124
0.679781 -0.050202 -0.678651
