OFF
256 0 0
-0.028552 0.694117 -0.697103
-0.689936 -0.013292 0.694195
0.689670 -0.721621 0.032228
0.006101 0.706212 0.692169
0.008403 -0.702112 -0.682846
-0.650228 0.628472 0.020272
0.690488 -0.719714 0.030579
0.005770 -0.702279 -0.685174
0.679610 -0.011388 -0.629350
0.008715 0.705732 0.692343
-0.647134 0.627994 0.021531
0.007311 0.706050 0.692486
-0.710408 -0.622396 -0.021276
-0.691550 -0.010947 0.693592
0.006763 -0.700991 -0.686864
-0.020353 -0.668655 0.640010
-0.696440 -0.007818 -0.716196
0.689996 -0.720036 0.030356
0.008684 0.703719 0.692378
-0.688780 -0.013486 0.693439
-0.018332 -0.669978 0.637636
-0.018509 -0.668352 0.639105
0.674208 0.686460 -0.002075
0.673753 0.686208 -0.002844
0.007064 0.707178 0.692579
-0.710636 -0.619496 -0.024918
0.007784 -0.702973 -0.686030
-0.690403 -0.013128 0.694200
-0.018197 -0.670739 0.639873
-0.695588 -0.007070 -0.715488
-0.026872 0.693113 -0.696008
0.689778 -0.721136 0.031922
-0.688493 -0.011800 0.695240
0.674408 0.686018 -0.000587
-0.712758 -0.620436 -0.022210
0.672269 0.687602 -0.001506
-0.689159 -0.015262 0.694026
0.734475 0.025724 0.676624
-0.688287 -0.014869 0.693172
0.688817 -0.720171 0.028497
-0.019884 -0.669603 0.639379
0.681462 -0.008956 -0.629384
0.689533 -0.719469 0.029932
-0.017909 -0.669891 0.636955
-0.025280 0.692432 -0.695516
0.690795 -0.718618 0.030522
0.678009 -0.010328 -0.629063
0.689428 -0.720569 0.030867
-0.712292 -0.619411 -0.024546
0.733366 0.026215 0.677699
0.733241 0.027186 0.675276
0.006017 0.703748 0.691390
-0.695776 -0.006123 -0.716739
0.006905 0.703947 0.692669
-0.646839 0.628433 0.019051
0.734206 0.024701 0.676497
0.673522 0.685722 -0.000411
0.007008 -0.701949 -0.683766
0.734720 0.027747 0.677641
-0.026277 0.694415 -0.696470
-0.710465 -0.620947 -0.022670
-0.690415 -0.014015 0.693320
0.007468 -0.701178 -0.683972
-0.648542 0.628459 0.019995
-0.711984 -0.619924 -0.023923
-0.696204 -0.007109 -0.715836
-0.649366 0.627010 0.021704
0.679438 -0.010079 -0.629467
-0.712446 -0.618793 -0.023921
0.005900 0.705607 0.694587
-0.690495 -0.012516 0.693041
-0.649476 0.627972 0.019045
0.678163 -0.009824 -0.629743
-0.710613 -0.620488 -0.025776
-0.646927 0.627770 0.020301
0.689389 -0.718731 0.031342
0.679967 -0.011908 -0.629994
-0.697139 -0.005513 -0.716887
0.690297 -0.720365 0.031322
0.679392 -0.009711 -0.629494
-0.711078 -0.620332 -0.024220
-0.020220 -0.669286 0.638332
-0.648650 0.629016 0.021034
-0.711387 -0.619454 -0.026093
-0.018970 -0.668902 0.639252
-0.648626 0.628355 0.022191
-0.648179 0.628407 0.020642
-0.689309 -0.012153 0.694191
0.007755 -0.700363 -0.684767
0.006719 0.705565 0.690681
0.006339 0.704633 0.692004
-0.695845 -0.006251 -0.718497
0.673284 0.688685 -0.001751
-0.696818 -0.006647 -0.714991
-0.711046 -0.619880 -0.024036
-0.027294 0.693644 -0.696283
0.671899 0.687502 -0.000306
0.006368 0.706334 0.693009
0.673733 0.686676 -0.001948
0.689662 -0.719130 0.029974
0.007249 0.703949 0.692688
-0.711951 -0.619614 -0.024509
0.006600 -0.702462 -0.682679
0.008897 -0.701749 -0.684759
-0.024576 0.692395 -0.698433
-0.026952 0.693551 -0.695193
0.006026 -0.699994 -0.683703
0.672979 0.687280 -0.000652
-0.713299 -0.619084 -0.024298
-0.696592 -0.005728 -0.717424
-0.711725 -0.620244 -0.025374
-0.026189 0.694263 -0.696846
-0.025199 0.695531 -0.697630
-0.691593 -0.013892 0.695283
-0.025335 0.693671 -0.696008
0.006318 0.704782 0.693614
-0.696831 -0.006645 -0.716593
-0.648047 0.626934 0.021000
-0.697116 -0.005853 -0.718119
0.689046 -0.719045 0.031653
0.007733 -0.701006 -0.685067
-0.647892 0.627288 0.021904
0.733221 0.024666 0.677987
0.732923 0.025552 0.676958
0.734123 0.028070 0.677083
0.007089 -0.702449 -0.684967
-0.690046 -0.014240 0.694953
-0.711149 -0.619811 -0.023608
0.680688 -0.009214 -0.631720
-0.688643 -0.014819 0.695105
0.732056 0.025101 0.675667
-0.018968 -0.668340 0.639037
0.008058 0.704517 0.692320
-0.689365 -0.013350 0.694882
0.680373 -0.010712 -0.628227
0.680043 -0.012119 -0.629142
0.680295 -0.009144 -0.629157
-0.689259 -0.014210 0.693209
-0.696551 -0.006952 -0.715847
-0.025981 0.694911 -0.696655
0.673005 0.686190 -0.001958
-0.696322 -0.005926 -0.715842
-0.688633 -0.014202 0.695265
-0.696729 -0.005784 -0.718054
0.008195 0.704620 0.692879
-0.708955 -0.618394 -0.024783
0.678452 -0.010680 -0.629337
-0.710349 -0.622052 -0.023246
0.733710 0.024954 0.675724
-0.689416 -0.014636 0.694701
0.690533 -0.720057 0.031510
0.682449 -0.010385 -0.630712
0.007966 0.704050 0.691839
0.679568 -0.012194 -0.629173
-0.025962 0.695383 -0.696870
0.733435 0.026395 0.675367
0.734118 0.026204 0.677192
-0.689771 -0.012961 0.693496
-0.019887 -0.669690 0.638169
0.675501 0.689145 -0.001065
-0.023937 0.694684 -0.697196
-0.017519 -0.671059 0.638942
-0.025520 0.694670 -0.699084
0.007221 -0.700620 -0.684562
-0.017628 -0.669436 0.638256
0.733538 0.025546 0.675198
-0.710297 -0.620407 -0.023378
0.006347 -0.701939 -0.684023
-0.026837 0.693082 -0.697024
0.732197 0.026703 0.677166
-0.019338 -0.671254 0.640008
0.690437 -0.719294 0.030965
0.689725 -0.719033 0.031459
0.673254 0.686765 -0.000723
0.733028 0.026963 0.678272
0.680111 -0.011845 -0.629485
0.680719 -0.010067 -0.628066
0.689297 -0.721112 0.029260
0.005965 0.706394 0.692740
-0.026960 0.695470 -0.698048
-0.026028 0.694188 -0.696369
0.690614 -0.719097 0.029519
-0.647935 0.629730 0.021838
0.689737 -0.717297 0.029643
0.006409 -0.701165 -0.683034
-0.713215 -0.621266 -0.022925
-0.027399 0.694322 -0.695214
0.679659 -0.010112 -0.630275
-0.689672 -0.013197 0.694406
0.007283 0.704184 0.692015
0.732801 0.026588 0.676200
-0.025914 0.694136 -0.696497
0.691058 -0.717854 0.032138
-0.711587 -0.620124 -0.024017
-0.708998 -0.620374 -0.023421
0.672853 0.685827 -0.001333
0.670781 0.686175 -0.001081
-0.650165 0.627087 0.022118
0.674224 0.686804 -0.001434
0.005674 0.704640 0.693663
0.733002 0.026582 0.676009
0.008614 -0.701937 -0.685289
-0.689803 -0.012191 0.693906
-0.648688 0.628805 0.020875
0.007380 -0.700259 -0.682287
-0.019535 -0.668652 0.639179
0.007784 0.705669 0.692690
-0.698623 -0.006057 -0.717815
0.680508 -0.010214 -0.629149
-0.688705 -0.014076 0.693400
0.007053 -0.701839 -0.683804
-0.711602 -0.619021 -0.025194
-0.691452 -0.013880 0.693496
0.681760 -0.012348 -0.631575
-0.025190 0.692840 -0.697800
0.734095 0.026116 0.676352
-0.695748 -0.006826 -0.718214
0.009270 -0.701626 -0.684614
0.679987 -0.010627 -0.630793
0.680185 -0.010046 -0.630917
-0.688818 -0.011212 0.692261
-0.687866 -0.011674 0.693643
-0.019537 -0.668104 0.639267
0.006952 -0.702333 -0.686793
-0.697455 -0.006962 -0.717415
-0.648994 0.629418 0.020167
0.671474 0.687428 -0.002859
-0.697743 -0.006240 -0.717116
-0.689246 -0.013309 0.693500
0.671394 0.686789 0.000693
0.732526 0.026050 0.676601
-0.019835 -0.669784 0.639434
0.689835 -0.720463 0.031329
0.007667 -0.700964 -0.683309
-0.647289 0.627604 0.023079
0.681191 -0.009885 -0.630966
-0.690517 -0.013691 0.694028
-0.712180 -0.622024 -0.023946
-0.647840 0.628210 0.021000
-0.709549 -0.620801 -0.024520
-0.688733 -0.012172 0.694580
-0.648648 0.628688 0.020579
0.007662 -0.702728 -0.683158
-0.018623 -0.669452 0.639046
-0.697269 -0.006757 -0.717590
0.672219 0.685470 -0.002463
-0.709195 -0.618719 -0.022656
0.673373 0.686066 -0.000431
0.006785 0.704601 0.691467
0.680627 -0.010306 -0.628936
-0.698128 -0.005916 -0.716672
0.733550 0.025758 0.676908
0.005527 -0.700113 -0.685766
0.007071 -0.702127 -0.685722
0.005408 0.703549 0.693306
-0.695917 -0.005631 -0.717135
