OFF
256 0 0
0.671820 -0.054593 -0.657730
-0.004398 -0.671190 -0.673144
0.669954 -0.668779 0.029100
-0.708134 0.032600 -0.673864
-0.005300 -0.669230 -0.673326
0.710693 0.643673 -0.031619
-0.628498 0.695495 -0.021379
0.672313 -0.054163 -0.660147
-0.024383 0.704316 -0.680718
-0.021797 -0.727269 0.662721
-0.024609 0.702848 -0.679558
-0.628203 0.695939 -0.022114
0.666467 -0.005791 0.700695
0.665161 -0.007234 0.702481
0.672562 -0.054763 -0.658386
-0.639877 0.029115 0.686784
-0.625992 0.693875 -0.021643
-0.625339 0.696314 -0.019870
-0.019924 -0.726586 0.662774
-0.020703 -0.727012 0.662318
-0.724163 -0.691052 -0.025004
0.667007 -0.007766 0.700398
-0.020575 -0.726139 0.660977
0.670283 -0.668650 0.030017
0.710164 0.645306 -0.031231
0.029712 0.713426 0.680284
-0.722652 -0.689378 -0.024012
-0.023220 0.706355 -0.678856
-0.020750 -0.725003 0.661389
-0.638963 0.030327 0.688783
-0.624932 0.692591 -0.022228
-0.640394 0.029986 0.686526
-0.004934 -0.670634 -0.671617
-0.019835 -0.726736 0.662409
0.672758 -0.054266 -0.661607
-0.640353 0.028654 0.689729
0.031728 0.710893 0.681017
-0.627082 0.693647 -0.021476
0.032090 0.714128 0.680395
-0.710551 0.033439 -0.674241
0.669711 -0.669870 0.027688
0.668416 -0.668617 0.028420
0.711236 0.645985 -0.031481
0.665385 -0.006046 0.702263
-0.026636 0.703925 -0.678463
-0.627586 0.694097 -0.022265
-0.639998 0.029239 0.686823
-0.004395 -0.668815 -0.673273
0.667985 -0.668185 0.027906
-0.636999 0.029329 0.687109
-0.003433 -0.668072 -0.672021
0.672692 -0.055188 -0.658435
0.708174 0.644630 -0.030152
-0.023411 -0.724523 0.663295
-0.708571 0.032012 -0.674170
-0.707778 0.031485 -0.673749
0.029910 0.713139 0.679933
-0.026923 0.702863 -0.679591
0.708305 0.645948 -0.029747
0.031025 0.712537 0.679562
-0.627041 0.692483 -0.020196
-0.026898 0.704467 -0.680154
-0.628052 0.693932 -0.019374
0.666828 -0.007278 0.701834
0.669789 -0.669729 0.028158
-0.724131 -0.690479 -0.023368
0.711436 0.644124 -0.029959
0.669276 -0.669355 0.030748
-0.625920 0.694145 -0.020861
-0.004425 -0.670252 -0.674169
-0.724428 -0.689467 -0.022672
-0.723629 -0.689543 -0.024903
-0.024698 0.702992 -0.678282
0.031584 0.713539 0.680472
-0.626512 0.693670 -0.019695
-0.628103 0.694684 -0.021263
-0.710330 0.031703 -0.675761
0.665685 -0.006162 0.702369
-0.725350 -0.689847 -0.025539
0.029888 0.713058 0.682277
0.710670 0.645150 -0.029295
-0.638119 0.029394 0.687927
0.673153 -0.054926 -0.660258
-0.639243 0.030540 0.689450
-0.022571 -0.726910 0.661877
-0.625166 0.694788 -0.021312
0.665148 -0.006378 0.702760
-0.626708 0.692729 -0.019394
-0.708706 0.032527 -0.676016
0.672618 -0.054292 -0.659495
-0.004806 -0.671387 -0.672901
-0.025765 0.704691 -0.680434
0.670135 -0.670202 0.028017
0.672414 -0.054572 -0.660393
-0.628281 0.694116 -0.018915
-0.627745 0.693368 -0.022515
0.665387 -0.006532 0.701320
-0.709345 0.032223 -0.674769
-0.005924 -0.669434 -0.670666
0.670348 -0.669648 0.029711
-0.024489 0.703683 -0.680619
-0.003875 -0.670740 -0.672639
-0.722281 -0.689704 -0.025359
-0.708723 0.031065 -0.673253
-0.026341 0.703137 -0.680269
0.028997 0.712638 0.682388
0.030542 0.713202 0.680826
-0.020475 -0.726580 0.664549
-0.639234 0.029995 0.687431
-0.639908 0.027625 0.688192
0.709721 0.643751 -0.030435
0.666807 -0.005167 0.702062
0.671434 -0.054704 -0.660855
0.671102 -0.055320 -0.659836
-0.020969 -0.725029 0.660999
-0.708165 0.031482 -0.673944
0.668272 -0.670686 0.027270
-0.629004 0.693005 -0.020434
-0.000911 -0.671707 -0.671083
0.670070 -0.670496 0.028790
-0.004825 -0.670655 -0.672106
-0.024970 0.703943 -0.677640
0.666536 -0.006263 0.704493
0.669347 -0.667846 0.027605
-0.025811 0.704425 -0.679015
-0.026625 0.704450 -0.680287
0.672576 -0.054022 -0.659540
-0.724310 -0.689324 -0.025363
-0.708783 0.032851 -0.674427
0.710372 0.646679 -0.029575
0.670446 -0.669480 0.029016
0.029949 0.713273 0.679662
0.030816 0.712725 0.680333
0.030625 0.712651 0.679733
-0.021865 -0.727427 0.661428
0.032260 0.710692 0.680677
0.032466 0.713498 0.681460
0.668999 -0.670591 0.028948
-0.723715 -0.688132 -0.026555
-0.005807 -0.671393 -0.672735
0.670596 -0.669648 0.028702
0.032088 0.713193 0.680099
0.669453 -0.669353 0.027443
-0.627635 0.694153 -0.021861
-0.021352 -0.726893 0.662808
-0.629276 0.693947 -0.022367
-0.639503 0.031954 0.686310
0.710154 0.644481 -0.030452
0.030475 0.713743 0.680302
0.671050 -0.669941 0.029450
0.668014 -0.668178 0.027483
0.666701 -0.007097 0.700298
0.671820 -0.057361 -0.660400
-0.723990 -0.688947 -0.025921
-0.626716 0.694301 -0.021686
0.033859 0.712403 0.680644
-0.628092 0.693822 -0.020664
-0.026247 0.703904 -0.679445
0.710048 0.646292 -0.030352
0.671860 -0.054194 -0.659449
0.670465 -0.670262 0.028680
-0.710238 0.032604 -0.675603
0.671907 -0.052427 -0.659305
-0.627584 0.693475 -0.021752
-0.723520 -0.690805 -0.026446
-0.626841 0.696017 -0.021855
-0.021228 -0.726517 0.663153
0.708452 0.643781 -0.031527
0.709173 0.645357 -0.029651
0.671309 -0.670816 0.029352
-0.708948 0.031784 -0.673887
0.670456 -0.668727 0.028186
-0.626052 0.694119 -0.019181
-0.020281 -0.727299 0.663592
0.671986 -0.054554 -0.658791
-0.724704 -0.689829 -0.024600
0.674075 -0.056688 -0.658997
-0.019905 -0.726306 0.662698
-0.723839 -0.689673 -0.024474
-0.628759 0.693250 -0.022475
0.671544 -0.054784 -0.658591
-0.627138 0.692750 -0.019348
0.031935 0.712414 0.680408
-0.637638 0.029231 0.688717
0.031525 0.711826 0.679282
0.672993 -0.054707 -0.658221
-0.026833 0.705000 -0.678846
-0.005397 -0.670660 -0.673003
0.667913 -0.668670 0.028847
0.671934 -0.054981 -0.661266
0.030775 0.712705 0.681033
0.711419 0.645716 -0.030031
-0.626876 0.694663 -0.021498
0.667269 -0.669859 0.028840
0.665968 -0.005355 0.702912
0.673479 -0.054522 -0.658926
-0.024593 0.703949 -0.678471
0.666444 -0.006085 0.702740
0.030525 0.711846 0.679819
-0.638767 0.027212 0.688693
0.674945 -0.054324 -0.657698
0.711361 0.645337 -0.030692
0.709772 0.646252 -0.030894
-0.628915 0.695257 -0.021690
-0.639533 0.029553 0.686503
-0.709448 0.030978 -0.673720
0.031303 0.713294 0.681697
0.673609 -0.053991 -0.658369
0.030957 0.712955 0.680638
0.671809 -0.053137 -0.659169
-0.628254 0.693717 -0.021972
-0.019672 -0.727260 0.661516
0.710869 0.644805 -0.028601
-0.637759 0.030118 0.686794
-0.627765 0.693905 -0.021453
0.709052 0.643940 -0.028077
-0.627304 0.695741 -0.021245
0.711320 0.646760 -0.030546
0.667065 -0.004518 0.705129
-0.024440 0.704878 -0.679527
-0.708220 0.031872 -0.673621
-0.723371 -0.689843 -0.024124
0.666127 -0.006117 0.702756
-0.020683 -0.725847 0.662889
-0.639564 0.029784 0.687347
0.665485 -0.003363 0.702901
-0.637919 0.028885 0.687852
-0.636547 0.029613 0.688754
0.670152 -0.670177 0.028981
0.672033 -0.055588 -0.660513
-0.626089 0.694913 -0.019991
0.711588 0.642979 -0.028605
0.030595 0.713154 0.680117
0.671274 -0.055286 -0.658162
0.710171 0.644940 -0.028368
-0.025379 0.704537 -0.680279
0.032172 0.713432 0.680945
0.670242 -0.669655 0.028924
-0.709833 0.032931 -0.674810
-0.638696 0.031337 0.688134
-0.026295 0.704223 -0.680485
0.671898 -0.053982 -0.659595
0.709777 0.644532 -0.031076
0.030057 0.714329 0.679967
-0.024317 0.704698 -0.681881
-0.004788 -0.668369 -0.671569
-0.722834 -0.690716 -0.026080
0.711108 0.645517 -0.031039
0.664560 -0.004970 0.700819
-0.709261 0.030335 -0.673901
-0.024797 0.703190 -0.681474
-0.025321 0.704157 -0.679118
-0.025509 0.704055 -0.679774
0.710269 0.645486 -0.029495
0.712039 0.646383 -0.027321
-0.004894 -0.670263 -0.672690
