OFF
256 0 0
0.229695 0.688742 0.228258
-0.689836 -0.229073 -0.689117
-0.227131 -0.687716 -0.690239
0.687643 -0.230138 -0.230053
0.688025 -0.232219 -0.231936
-0.228364 0.230202 -0.688187
-0.687274 -0.228511 -0.689578
0.229911 -0.228333 -0.689314
-0.687907 0.231614 -0.230144
0.229395 0.686503 -0.688361
0.688659 0.689155 -0.228751
0.230330 -0.687351 -0.230136
-0.688239 0.228443 0.689472
-0.228555 -0.688289 0.229140
0.689361 -0.689326 0.230222
0.229173 0.687415 -0.688356
0.689924 -0.229593 0.686503
-0.229863 -0.687411 -0.686875
0.688915 -0.688533 0.228233
-0.229128 -0.229692 0.689444
0.228842 0.689957 -0.686686
0.227788 0.686582 0.231235
0.688949 -0.229565 0.688416
0.228821 -0.688085 -0.229634
0.688853 0.229307 0.230854
-0.229596 -0.688487 -0.688474
-0.227811 0.229316 -0.687808
0.230473 0.689760 -0.689164
-0.689337 -0.227808 -0.690140
-0.686612 -0.229415 0.227085
-0.229053 -0.687649 -0.687529
0.688217 0.228396 -0.686941
-0.689038 -0.688465 -0.230383
0.690101 -0.228969 -0.228920
-0.688522 0.689570 0.229188
-0.688608 0.229196 0.687344
0.227997 0.688874 0.230675
-0.227657 0.687644 0.688163
0.227237 0.687357 -0.687201
-0.687956 0.227923 -0.230286
-0.229282 -0.687375 -0.688940
0.687906 -0.688204 0.229439
-0.689889 -0.688337 -0.231448
-0.687656 0.228562 0.689163
0.229931 -0.230700 -0.688467
-0.230812 -0.688470 0.229432
0.230491 0.231199 0.690281
0.689585 0.687915 -0.228605
0.687304 -0.230954 -0.228167
0.229143 0.229481 0.689420
-0.228824 -0.690324 -0.689245
0.689052 -0.230150 -0.228924
0.689613 -0.688021 0.227534
-0.229582 0.688076 0.689222
0.229099 0.228889 0.688850
-0.229575 0.230128 -0.687743
-0.689285 0.230136 -0.230191
0.691205 0.688456 -0.229911
0.230160 0.689260 -0.688830
0.229376 -0.688426 0.688229
0.688390 -0.687928 0.228750
0.230795 0.688462 0.228275
-0.687482 -0.228745 0.229576
0.228478 0.230314 0.687176
-0.227794 -0.229219 0.688714
-0.686991 -0.230447 -0.687213
-0.686681 0.686173 0.230096
0.687903 0.687074 -0.229565
-0.688834 0.687406 0.229481
0.687211 -0.229965 0.687636
-0.687571 -0.230829 0.229835
0.227627 0.689121 -0.688238
0.689155 0.229194 -0.687171
0.689095 0.229599 0.230693
-0.688116 0.229442 -0.229761
-0.228717 -0.687766 -0.689419
0.228300 0.688605 0.229094
-0.690316 0.690185 0.229881
0.689126 -0.231488 0.688907
0.688286 0.688420 -0.231262
-0.688435 0.689036 0.228715
-0.689307 0.229320 -0.228554
0.688280 0.686971 -0.227229
-0.689133 0.227773 -0.228671
0.688119 0.231207 -0.688601
0.688529 0.689209 -0.230268
0.687779 0.688352 -0.231022
0.227773 0.230789 0.687591
-0.687080 -0.689029 -0.229558
-0.228606 0.688987 -0.228051
-0.688671 -0.229962 0.229795
0.228940 0.229023 0.688124
-0.687619 -0.229509 0.227849
0.229193 -0.687919 0.687452
0.688365 0.689269 -0.229806
-0.230893 -0.230735 0.688420
0.228912 -0.227954 -0.689103
-0.687450 -0.229703 -0.690182
0.687010 0.228028 0.229150
0.228903 0.229390 0.686387
0.691147 0.231035 0.228709
0.229249 -0.687789 0.689141
0.226367 0.689096 0.227183
-0.230477 0.689823 -0.230201
-0.230897 0.229050 -0.688357
-0.229379 0.687340 -0.229303
-0.228093 0.228971 -0.686910
-0.687834 -0.230114 0.227678
-0.686742 -0.230606 0.230831
0.229128 0.689276 0.229382
0.228201 0.227807 0.688513
0.688583 -0.230426 0.687001
0.229002 0.687797 -0.687806
0.688826 -0.229275 0.688253
-0.229352 -0.227009 0.689636
0.688789 0.228114 0.229149
0.229187 -0.229302 -0.687896
0.229952 0.230453 0.687884
-0.686924 0.231424 0.688747
0.687258 0.688940 -0.230567
0.229336 0.686445 -0.687974
0.228700 -0.228736 -0.688595
-0.687991 0.230133 -0.229134
-0.688879 0.688354 0.229322
0.689408 0.685734 -0.230403
0.687882 0.229634 0.229176
0.231745 0.230192 0.687186
0.687959 -0.227835 0.689613
-0.228566 -0.228834 0.688608
-0.689091 0.687674 0.229221
-0.228365 -0.687638 0.228725
-0.229333 -0.229921 0.687097
0.229951 0.686821 0.230825
-0.228554 -0.229435 0.687799
-0.688690 0.228634 -0.229342
0.229605 0.687319 0.230875
-0.689772 0.229116 0.689011
0.686891 -0.229950 0.688131
-0.686106 -0.688933 -0.228690
0.687740 -0.229295 0.688676
-0.687744 0.229489 -0.228971
0.689210 -0.687474 0.228211
0.688502 -0.228270 -0.229590
0.690016 0.229887 -0.687232
0.688542 -0.229025 -0.230742
-0.229875 0.230881 -0.685830
-0.228949 0.688838 0.688366
0.230968 -0.688000 -0.228216
-0.689019 -0.688109 -0.229628
0.688052 -0.228711 -0.232432
-0.230061 0.688992 -0.230209
0.688318 0.686550 -0.230644
-0.227577 0.229979 -0.690008
-0.687173 -0.689299 -0.229946
0.229703 -0.687526 -0.230835
0.230153 0.687302 0.229729
-0.230307 0.688727 -0.229381
0.689219 0.688520 -0.229472
0.688033 -0.229610 0.689444
-0.685934 -0.229955 0.228677
0.231101 0.230011 0.686950
0.688284 0.229319 -0.689266
-0.687701 -0.688215 -0.230177
-0.229245 -0.229299 0.687583
0.688438 -0.229498 0.689091
0.690087 -0.227287 -0.229563
0.687581 -0.686407 0.229366
0.230995 0.689041 0.228622
-0.688498 -0.687823 -0.231182
-0.229465 0.690403 0.686983
-0.230048 -0.228490 0.687705
-0.230622 0.688408 -0.230587
-0.686609 -0.230244 0.228992
-0.688421 -0.230176 -0.688153
-0.231114 -0.688574 0.229586
-0.228502 0.228246 -0.689279
0.229871 0.228931 0.689587
0.688400 0.686927 -0.227518
-0.689071 0.228133 -0.231336
0.688560 0.229548 -0.690060
0.229213 0.689074 -0.686680
-0.230024 -0.687106 0.228562
0.688541 0.229029 -0.688479
0.688497 0.229980 -0.688505
0.688460 0.228889 0.229144
-0.688156 -0.229569 -0.687033
-0.689053 0.690058 0.231014
0.690309 -0.228196 -0.228212
-0.688903 0.227890 0.688631
-0.689083 -0.228826 -0.690094
-0.228656 -0.228681 0.689543
-0.687932 0.228633 0.687883
0.227864 -0.690457 0.687805
0.686433 -0.229624 -0.230094
-0.229834 0.228035 -0.688749
-0.689725 -0.686352 -0.230082
-0.229796 -0.687792 0.229450
-0.229518 -0.688455 -0.686736
0.688746 -0.687092 0.229277
-0.230421 -0.688668 0.229754
-0.687932 -0.230496 0.232707
0.688887 0.230699 0.228868
-0.227896 -0.690302 0.228370
-0.687668 0.229632 -0.229253
-0.687255 0.229468 -0.228321
-0.230158 0.686277 -0.229425
-0.688923 0.229819 -0.228947
0.229367 0.229775 0.689403
-0.688575 -0.687872 -0.229507
-0.689084 -0.687046 -0.229444
0.229310 -0.687584 0.689965
-0.230130 0.230061 -0.687534
0.687488 -0.229934 0.688952
0.230924 -0.229672 -0.688500
-0.229836 0.688650 -0.227908
0.228603 0.230920 0.689013
-0.229267 0.688819 0.688670
0.686721 -0.228542 -0.229703
0.229591 -0.230177 -0.687992
0.687972 0.229020 -0.690286
-0.689129 0.228796 -0.229505
0.688670 -0.228827 -0.228643
0.687325 0.229538 -0.687658
-0.231054 -0.229345 0.687960
0.687177 -0.229981 -0.231433
-0.230341 -0.690869 -0.688742
0.688391 -0.229157 0.688826
-0.688915 0.230064 0.687479
0.232043 0.686513 -0.687324
0.230024 0.690948 0.230495
0.686698 -0.229245 0.689738
-0.229278 0.690068 0.688913
-0.228654 0.691204 -0.229176
0.686819 0.687836 -0.229285
-0.686988 0.227955 0.687402
-0.690189 0.687822 0.229678
-0.229452 0.228123 -0.689393
-0.229551 0.229374 -0.688577
-0.688746 0.687164 0.231591
-0.229173 -0.687643 -0.688014
0.228634 -0.228744 -0.688052
-0.688773 0.229954 0.687942
0.689652 -0.228159 -0.228542
-0.689361 0.687931 0.229701
-0.687616 -0.227364 0.229374
-0.227001 -0.229552 0.689408
0.231118 -0.689296 0.688094
-0.229337 -0.688609 -0.688812
0.227147 0.688069 0.229248
-0.687116 0.230072 0.686249
0.688753 -0.228229 0.687894
-0.229281 -0.228785 0.687191
-0.686499 -0.228910 0.229212
0.687999 0.689088 -0.227971
-0.230174 0.689389 -0.227863
0.688860 0.230348 0.229365
