OFF
256 0 0
0.664786 -0.246743 0.666336
0.684572 0.203761 -0.692968
0.198302 0.229425 0.689057
0.192568 -0.663980 -0.260744
-0.188917 -0.651424 0.189710
0.657692 -0.638785 0.186048
0.665914 -0.247659 0.667017
-0.622139 -0.210028 0.200573
0.198482 0.230135 0.688989
-0.659014 0.214310 0.666963
-0.651559 0.667359 0.217088
-0.658359 0.214024 0.667499
0.682421 0.205244 -0.693023
-0.230530 0.207449 -0.681829
-0.665250 0.213686 -0.220568
-0.681292 -0.242101 -0.646114
-0.663373 0.211971 -0.220853
-0.659791 0.211431 0.667468
0.220767 0.672203 0.245886
-0.222851 0.689188 0.690143
0.198055 0.230720 0.688421
-0.680919 -0.242285 -0.647213
0.215465 -0.197754 -0.660251
0.667146 -0.246458 0.666729
-0.231123 0.210466 -0.681466
0.665640 -0.246117 0.667289
-0.681503 -0.241471 -0.645769
0.228091 0.628310 -0.662483
0.213889 -0.197671 -0.657202
0.659197 -0.203427 -0.204111
-0.682549 -0.683954 -0.206184
-0.187128 -0.650488 0.187963
-0.216878 -0.221527 0.658616
0.219447 0.672705 0.245458
0.654960 0.636321 -0.218775
-0.680536 -0.683907 -0.207427
0.215310 -0.196521 -0.660085
-0.186345 -0.650579 0.191038
-0.625274 -0.212508 0.204419
-0.219117 -0.221526 0.660718
-0.188545 -0.648996 0.189186
0.199707 0.229883 0.689567
0.662525 0.233102 0.273847
-0.664084 0.212592 -0.220110
0.219043 0.673661 0.247504
0.654973 0.635642 -0.220478
0.660948 -0.201455 -0.204937
-0.243665 -0.639024 -0.641032
0.657658 -0.639905 0.182997
0.227679 0.627628 -0.664183
-0.221887 0.691108 0.689213
0.224238 -0.650674 0.626788
-0.185206 -0.650975 0.188873
-0.203301 0.656646 -0.212792
0.198876 0.230140 0.689068
-0.216120 -0.222363 0.660053
-0.229834 0.210417 -0.683652
0.658817 -0.199482 -0.203268
0.219386 0.673095 0.245421
0.224555 -0.649917 0.625710
0.655525 0.635639 -0.218416
-0.680953 -0.683977 -0.205590
0.226691 -0.650924 0.626414
0.197394 0.229490 0.687542
-0.682040 -0.684224 -0.205945
-0.680701 -0.242533 -0.647038
-0.230275 0.207820 -0.683701
0.664647 -0.248234 0.666706
-0.681687 -0.683267 -0.204563
-0.215843 -0.220386 0.658984
0.225981 -0.648740 0.626610
0.200088 0.228998 0.687429
0.198381 0.229966 0.691229
-0.242265 -0.640598 -0.640979
0.657157 0.634164 -0.217402
-0.625015 -0.212904 0.200670
0.217120 -0.196923 -0.658419
0.663211 0.234012 0.274313
-0.218617 -0.220972 0.659498
0.213896 -0.197905 -0.658792
0.198266 0.230478 0.690626
0.662695 0.235281 0.271895
-0.657551 0.213470 0.666605
0.220105 0.672158 0.246095
-0.657707 0.214172 0.665980
-0.202385 0.655325 -0.213843
-0.218900 -0.221143 0.660647
0.659125 -0.201364 -0.204123
0.197109 0.231142 0.686832
0.657027 0.635709 -0.218399
-0.682755 -0.683996 -0.204446
-0.240424 -0.640463 -0.641302
-0.221834 0.691290 0.691684
-0.625546 -0.211009 0.201388
0.226306 0.628861 -0.665195
0.655431 0.635058 -0.219648
-0.666309 0.212357 -0.220482
0.683187 0.205739 -0.693760
0.656238 0.635068 -0.220060
0.228442 0.630127 -0.665187
0.656967 -0.640078 0.183528
-0.204208 0.654310 -0.213108
-0.229257 0.208863 -0.683661
0.198739 0.228351 0.687774
0.680251 0.204840 -0.692060
-0.681583 -0.683573 -0.205635
0.665272 -0.245228 0.665926
0.665405 -0.246499 0.664338
0.198993 0.229288 0.688070
-0.665503 0.213039 -0.221606
0.193515 -0.664775 -0.259968
-0.241032 -0.640304 -0.643855
-0.241186 -0.639389 -0.641611
0.657314 -0.639220 0.185560
-0.683275 -0.682840 -0.205774
-0.624197 -0.213335 0.199471
0.218630 -0.196776 -0.658452
0.226156 -0.651791 0.626065
0.681234 0.206018 -0.692398
0.655796 0.634676 -0.220418
0.219044 0.673012 0.246076
0.226264 -0.650919 0.627720
0.656191 0.633094 -0.220005
-0.217552 -0.221330 0.662779
-0.657720 0.213492 0.666400
0.682168 0.203092 -0.694666
-0.222096 0.689505 0.688855
-0.242689 -0.640929 -0.642677
-0.665034 0.212031 -0.219742
-0.229735 0.208791 -0.685473
-0.664798 0.214237 -0.221912
-0.682246 -0.241551 -0.645201
-0.649842 0.666348 0.217326
0.224328 -0.649266 0.625702
-0.201232 0.655542 -0.212892
0.227536 0.627844 -0.663817
0.659582 -0.639301 0.183268
-0.664894 0.215898 -0.218200
0.663216 0.233492 0.272627
-0.682526 -0.683554 -0.205706
0.655251 0.633524 -0.220793
-0.623699 -0.212913 0.199826
0.198982 0.230585 0.687515
-0.218985 -0.221551 0.659583
-0.187855 -0.651478 0.189560
0.223888 -0.650363 0.626895
0.661669 0.234048 0.274034
0.654179 0.634395 -0.219762
-0.186972 -0.651883 0.188004
-0.683122 -0.684628 -0.206381
-0.188512 -0.650420 0.186420
-0.240731 -0.640908 -0.642790
-0.666114 0.212600 -0.220204
0.665287 -0.246635 0.665389
0.199486 0.228018 0.686882
-0.216832 -0.220306 0.660650
0.663691 0.233436 0.274165
-0.218126 -0.220533 0.659290
0.657860 -0.639298 0.183924
0.214106 -0.196556 -0.658645
0.659066 -0.640052 0.185701
-0.624487 -0.210856 0.201518
0.225100 -0.649558 0.627403
-0.665104 0.213749 -0.220064
0.199830 0.230330 0.689214
0.193525 -0.660888 -0.260660
0.661081 0.235599 0.273500
-0.217363 -0.219487 0.661928
0.220528 0.672279 0.246749
-0.666463 0.214709 -0.219305
0.229872 0.627856 -0.664383
0.220197 0.670866 0.245197
-0.239839 -0.641166 -0.641158
-0.624360 -0.210886 0.199575
0.682666 0.205517 -0.693463
-0.204419 0.655088 -0.213890
-0.682554 -0.243071 -0.647548
0.665368 -0.248192 0.665188
-0.681078 -0.242302 -0.647357
0.656832 -0.640516 0.183964
-0.680414 -0.242600 -0.647910
0.664109 0.235196 0.271735
-0.651367 0.665409 0.216104
-0.229298 0.208540 -0.684232
0.227710 0.628130 -0.665349
0.658471 -0.639531 0.183062
-0.650243 0.664496 0.216541
0.656346 0.636237 -0.219966
0.660616 -0.201178 -0.200038
0.663437 0.233784 0.272851
-0.202686 0.656750 -0.212883
-0.681289 -0.684579 -0.206168
0.195019 -0.664931 -0.259850
0.214385 -0.196898 -0.658625
0.199791 0.229986 0.689072
0.659713 -0.639466 0.185106
-0.217885 -0.220044 0.661185
-0.682000 -0.683949 -0.206066
0.227281 0.627991 -0.663804
-0.651790 0.666704 0.217362
0.201324 0.230797 0.688493
-0.218852 -0.222426 0.661998
0.654573 0.635419 -0.218010
-0.202624 0.656008 -0.215017
0.219300 0.671179 0.248424
-0.665439 0.214600 -0.218599
-0.202961 0.655587 -0.212231
0.664645 0.236548 0.273553
0.657321 -0.200598 -0.203326
-0.203576 0.655645 -0.213588
0.220583 0.672948 0.245100
-0.230882 0.209337 -0.683278
-0.222157 0.690682 0.689539
-0.187536 -0.651473 0.189807
0.193547 -0.663451 -0.261967
0.665164 -0.245591 0.668108
-0.228272 0.208953 -0.684433
0.218774 0.672119 0.247030
0.193664 -0.664990 -0.258222
-0.203682 0.656579 -0.213154
0.198908 0.228185 0.688529
0.666514 -0.247662 0.666561
-0.623131 -0.211682 0.199441
0.214345 -0.198369 -0.657684
0.223404 -0.651168 0.627149
0.194591 -0.663189 -0.261827
0.213433 -0.195841 -0.656668
-0.243073 -0.639401 -0.642625
0.665822 -0.247130 0.666198
0.660578 -0.201122 -0.202295
0.219351 0.672777 0.245902
0.219257 0.671989 0.246817
0.192784 -0.665113 -0.258934
-0.186473 -0.649758 0.188450
-0.658279 0.216017 0.668117
0.663104 0.233941 0.273457
-0.216566 -0.219667 0.660554
-0.684491 -0.683339 -0.204815
-0.203572 0.656115 -0.213953
-0.681840 -0.684678 -0.205353
-0.204416 0.654714 -0.213012
-0.657959 0.215241 0.666583
-0.656695 0.212610 0.664579
0.658095 -0.201847 -0.203612
0.194256 -0.662904 -0.258666
-0.681648 -0.683681 -0.206685
-0.681048 -0.684906 -0.204702
0.193715 -0.663688 -0.260866
-0.683809 -0.683114 -0.206390
-0.681884 -0.243191 -0.646875
-0.187417 -0.649274 0.190064
-0.230256 0.207300 -0.682264
-0.187273 -0.649857 0.191015
0.658960 -0.202817 -0.202193
-0.651391 0.667090 0.216422
-0.681651 -0.683232 -0.205560
