OFF
256 0 0
-0.707629 -0.236102 -0.000130
0.234927 0.235241 0.473624
-0.237341 -0.236037 0.472381
-0.708318 0.706824 0.001645
0.707714 0.235648 0.000972
-0.235604 -0.235417 0.471278
0.235427 0.233765 0.471115
-0.706335 0.236315 -0.470282
0.235284 0.234973 -0.472479
0.707393 -0.237612 0.472626
-0.706420 0.237103 -0.470959
0.237476 0.236389 0.471202
0.237412 0.708149 0.000510
0.706984 0.235324 0.001176
-0.704385 0.233999 -0.471245
0.706231 -0.709008 0.000709
-0.237124 -0.235503 0.469036
-0.235274 -0.707561 -0.002294
0.706967 -0.235747 0.472717
-0.707963 0.237272 0.470053
-0.706496 0.236287 -0.471220
0.235875 -0.706093 -0.471408
0.705916 -0.707676 -0.000957
-0.237459 0.707938 0.471153
0.708039 -0.233560 0.470343
0.236500 0.708375 0.000739
-0.707126 0.707983 -0.001343
0.236359 -0.706432 -0.469198
-0.708968 0.706521 -0.000962
-0.705971 0.236306 0.472355
-0.705924 0.236145 -0.471288
-0.707120 0.707145 0.000154
-0.707323 0.707695 0.000447
-0.237280 0.707288 -0.473075
0.708229 -0.234923 0.473178
-0.236282 -0.707117 0.000212
0.707066 -0.235776 0.469815
-0.235606 0.708288 0.470910
-0.235993 -0.236587 -0.469644
-0.233649 0.706246 -0.471918
-0.705824 0.236550 0.471246
-0.235704 -0.235566 0.472045
-0.706660 0.707586 0.001738
0.236703 -0.708165 0.470413
-0.707596 -0.235421 -0.000366
-0.707382 -0.235789 -0.000885
-0.705824 -0.234533 0.000687
0.707984 -0.236028 -0.470954
0.706032 0.234751 -0.000601
-0.235818 -0.236442 -0.470910
0.236226 0.235970 -0.471559
-0.705251 0.236442 0.471929
0.236329 0.234509 0.471539
0.235961 0.235948 -0.471560
-0.236570 -0.235702 0.472041
-0.706502 0.236608 -0.470402
-0.709496 0.707206 0.000235
-0.707233 0.236045 -0.471844
-0.236426 -0.236281 0.473229
-0.235869 -0.236824 -0.471257
0.704991 -0.708509 0.000818
0.234538 -0.706361 0.472215
-0.707562 -0.233745 -0.001151
0.234505 -0.707296 -0.470552
0.707398 -0.234766 0.471459
0.706873 0.235246 0.000325
-0.707660 0.706665 0.000046
0.705620 0.233559 0.000107
-0.707395 0.705828 -0.000812
-0.235839 -0.235352 0.471921
-0.236370 0.708299 0.471564
-0.235810 -0.707620 0.001435
-0.234783 -0.235987 0.469699
-0.708698 0.236074 0.470898
-0.706794 0.234797 -0.471775
0.234656 0.236184 0.471952
-0.238272 0.706401 0.471201
-0.706792 0.707565 0.001228
-0.706484 0.707720 0.001434
0.706587 -0.707203 0.001069
-0.708044 -0.236171 0.000026
-0.707940 0.705480 -0.000218
0.233637 0.705936 -0.000365
-0.235665 0.705701 0.471922
-0.233385 -0.707035 -0.000489
-0.706704 0.235955 0.471946
-0.236382 0.707453 -0.471604
0.235195 0.235379 0.470922
-0.236601 0.706463 0.469718
0.236557 0.236744 0.471679
0.236386 0.707945 0.001926
0.237603 -0.705336 -0.471226
-0.708052 0.707857 0.001428
0.706730 -0.708289 0.001262
0.236467 0.234804 -0.471221
-0.706251 -0.235162 -0.000081
0.707385 0.236369 -0.000149
-0.706769 -0.235764 -0.000451
0.709552 -0.236198 -0.471850
0.236667 -0.708948 0.472676
-0.234321 0.706811 -0.472107
-0.707804 0.235797 0.473924
0.708354 0.236022 -0.000866
0.235384 0.237556 -0.471634
0.234875 0.235711 -0.470512
0.236917 0.235414 0.471432
0.235047 0.709034 -0.000589
0.707922 -0.234721 -0.470946
-0.235965 -0.237333 -0.471660
0.236227 -0.706961 0.472711
-0.706547 0.235246 0.471345
0.235861 0.235874 -0.473175
0.235830 -0.706773 -0.470031
-0.706297 0.707009 0.000188
0.234976 -0.706009 0.470943
0.707742 -0.707248 -0.001026
-0.706986 0.235453 -0.471009
-0.236772 0.707808 0.470758
-0.235802 -0.235683 -0.471196
0.235682 -0.707381 0.472515
-0.235133 -0.235502 0.471357
0.235841 0.236771 -0.470940
0.236830 -0.707216 0.469747
0.235587 0.705520 0.000461
-0.707459 -0.234673 -0.000747
-0.234396 0.705047 0.470745
-0.237312 -0.236703 0.470368
-0.707175 0.707108 0.000728
-0.705855 0.235872 -0.472348
-0.237538 -0.235357 0.470999
0.707987 -0.708136 -0.002785
-0.237626 -0.707355 -0.000504
0.707629 -0.235895 -0.472356
0.237643 -0.707277 -0.470593
0.707038 -0.236361 -0.471551
-0.234989 -0.237053 -0.468613
-0.707273 0.235666 -0.472268
0.708341 -0.235795 -0.469742
0.236058 -0.708578 0.470168
0.235142 0.705434 0.000929
0.235860 0.235215 0.471423
0.706543 -0.235846 0.473880
0.707900 -0.236243 0.470281
-0.707313 -0.236675 0.001927
-0.235108 -0.705964 0.001139
-0.235219 0.705861 0.470962
-0.235508 0.706186 -0.471123
0.233681 0.234263 -0.472518
0.235150 0.235454 -0.471411
-0.237316 -0.236535 0.472017
0.233386 0.235706 0.472155
0.234389 -0.705273 0.472249
0.235347 -0.707570 0.470847
0.708237 -0.234644 -0.470502
0.708317 -0.237308 0.471264
-0.234358 0.706781 -0.471029
0.235098 -0.707146 -0.471292
-0.708704 -0.235718 -0.002285
-0.706610 0.234168 -0.470809
0.235263 -0.708660 0.472866
0.237467 -0.705299 0.470908
-0.236477 -0.235879 -0.472008
-0.235304 -0.236421 0.471863
0.708874 0.236426 -0.000983
-0.705561 0.707123 -0.000504
-0.233442 -0.235992 -0.472038
-0.707072 0.236010 -0.470397
0.236715 0.709543 -0.000382
0.236331 -0.706479 -0.472248
0.233953 -0.706101 0.472220
0.235292 0.237323 -0.470996
-0.234906 -0.236555 0.470232
-0.235321 0.708656 -0.470435
-0.707012 0.236885 -0.473250
0.707987 0.236431 -0.000813
-0.707105 0.234231 -0.472216
0.706858 -0.235115 0.471817
0.707643 -0.237167 0.473085
0.236751 -0.707960 0.471514
-0.235181 0.704966 -0.471537
0.235338 0.237097 0.471536
0.235686 0.236003 0.471563
-0.707402 0.236856 0.471339
-0.237311 -0.235950 0.472438
-0.234824 -0.234970 0.471614
-0.707801 0.233887 0.472148
0.235865 -0.706270 -0.471883
-0.707951 0.236600 0.471739
-0.234608 -0.706961 -0.000747
0.707309 -0.237214 0.472802
-0.235968 -0.236278 -0.470015
-0.234850 -0.707755 -0.000492
-0.234970 -0.709026 0.000284
-0.707761 -0.235047 0.002226
-0.235174 0.706463 0.471817
-0.707543 0.234213 0.470451
-0.236236 -0.705439 -0.000484
0.706861 -0.237129 0.470337
0.236758 -0.707420 -0.469863
-0.709165 0.237204 -0.471956
-0.707187 0.234782 0.470998
0.235950 0.235437 0.472053
0.706735 -0.707622 0.000149
-0.234873 0.706200 0.471011
-0.236206 0.706041 -0.471117
-0.235186 -0.705784 -0.000555
0.236661 0.234077 0.471126
0.706580 -0.235267 0.471061
0.706184 -0.708793 -0.001314
-0.233507 -0.708589 -0.000624
0.236105 0.706125 -0.000703
0.706974 -0.236230 0.471360
-0.707098 0.234558 0.472489
-0.234385 -0.707052 0.000895
-0.237271 -0.707630 -0.001119
0.707733 0.234808 0.001547
0.235429 -0.704657 0.473553
0.235759 -0.708123 0.470366
0.236318 0.706497 0.001388
0.707410 -0.705989 -0.001158
0.236186 -0.706249 -0.472925
0.236600 -0.707413 0.471354
-0.707986 0.234309 0.470644
0.233808 0.706619 0.000788
0.708439 -0.235457 0.473278
-0.235596 -0.236462 -0.472024
0.707725 -0.236513 0.469151
0.236866 0.237073 -0.470883
0.237122 0.235445 -0.472002
0.236244 -0.707225 0.474019
0.235262 0.237608 -0.470266
0.707485 -0.235840 -0.472267
-0.232637 -0.238535 -0.470732
-0.707259 0.236809 -0.469280
-0.235809 0.705147 0.470530
-0.236405 0.706518 0.470898
0.707798 0.235000 -0.000543
-0.237618 -0.234836 -0.471694
0.234701 -0.709214 0.471949
0.234222 0.236268 0.472333
0.236599 -0.707643 -0.472014
-0.705576 0.707605 0.000294
0.234427 -0.708111 0.470305
0.234865 0.706586 -0.000800
0.705821 0.234765 -0.000045
-0.235647 0.707215 -0.470092
-0.234603 0.707168 0.472110
0.707540 -0.235443 -0.472004
-0.235486 0.707836 -0.472712
0.708448 -0.237912 0.470534
-0.705335 0.237381 -0.472313
-0.235738 -0.235868 0.469832
-0.237753 -0.706980 0.000746
-0.707772 0.706694 0.000544
-0.709009 -0.236035 0.001421
0.705764 0.234962 -0.000619
