OFF
256 0 0
0.209944 0.245738 0.449678
-0.685796 0.237356 -0.463954
0.263176 0.718002 0.011949
-0.221646 -0.229103 -0.435815
0.689908 -0.228849 -0.455998
0.257697 0.257051 -0.456881
0.691645 -0.231088 -0.454249
0.681008 -0.228911 0.494886
-0.689687 0.717342 0.012690
0.256554 0.255466 -0.457868
0.686435 -0.229637 -0.455681
0.681814 -0.230756 0.495175
0.211373 0.245576 0.449528
-0.702449 -0.234682 -0.010132
0.687741 0.239814 0.019234
-0.693167 0.249030 0.421433
0.264608 0.719330 0.011650
0.263315 0.720666 0.010813
-0.693411 0.248608 0.420227
-0.220389 -0.229029 -0.436295
0.688799 -0.725649 0.001505
-0.207962 0.682256 -0.454440
0.256827 0.255659 -0.456394
0.256735 0.256732 -0.455942
0.192600 -0.696742 0.456590
-0.248125 -0.741208 -0.011075
0.263809 0.719699 0.012970
0.193089 -0.696186 0.456047
0.257702 0.257512 -0.459304
-0.206691 0.682354 -0.455777
-0.240355 -0.240471 0.414830
0.191388 -0.696858 0.457088
0.682881 -0.229030 0.495996
0.262714 0.718792 0.011483
0.222064 -0.723327 -0.469840
-0.690606 0.249310 0.422265
0.221766 -0.724024 -0.468642
0.681391 -0.227624 0.494397
0.689433 -0.230474 -0.454247
0.683871 -0.229432 0.494372
0.683133 -0.230169 0.493625
0.192007 -0.697043 0.455743
0.254470 0.255334 -0.459106
-0.692259 0.249257 0.420630
0.255669 0.254518 -0.456837
-0.208153 0.680721 -0.453596
-0.222879 -0.227327 -0.437585
-0.704623 -0.234601 -0.010616
0.222012 -0.725202 -0.470336
-0.702631 -0.233470 -0.010149
0.222856 -0.726134 -0.469640
0.212402 0.244685 0.452009
0.263582 0.720892 0.012231
0.192314 -0.696145 0.456022
-0.684763 0.237869 -0.465326
0.262890 0.719710 0.012496
0.211808 0.244632 0.450807
0.193497 -0.697246 0.456782
0.191608 -0.697753 0.457089
-0.687027 0.716402 0.014092
0.686166 -0.726141 0.000154
-0.220488 -0.229055 -0.438028
0.223347 -0.724503 -0.470266
-0.245611 -0.743612 -0.008279
0.192593 -0.696518 0.455823
0.256851 0.255689 -0.456868
0.263426 0.720606 0.012616
0.689831 -0.231079 -0.455659
0.193687 -0.696986 0.455256
0.689586 -0.726404 0.000891
0.687744 -0.726207 0.001071
-0.690556 0.717003 0.012295
0.691680 -0.230662 -0.455560
-0.690471 0.715058 0.011864
-0.702108 -0.232505 -0.009214
0.222027 -0.726178 -0.469947
0.192531 -0.695866 0.455146
-0.691105 0.246983 0.418828
0.690952 -0.229556 -0.454235
0.212097 0.245393 0.450719
-0.689915 0.717024 0.011212
-0.209879 0.709706 0.475988
0.256828 0.256362 -0.457142
-0.685164 0.238189 -0.465927
-0.703806 -0.235403 -0.011233
0.222752 -0.724814 -0.468208
0.686823 0.238540 0.018994
-0.688532 0.716177 0.013421
0.257214 0.257042 -0.459058
-0.703795 -0.233295 -0.010167
0.266024 0.718457 0.011705
0.687928 -0.724981 0.000665
-0.246272 -0.743417 -0.011094
-0.206728 0.681904 -0.454696
0.683734 -0.229735 0.494151
-0.690485 0.715530 0.012289
0.687248 0.239576 0.018902
-0.221004 -0.227678 -0.438640
0.221859 -0.723814 -0.467587
0.192511 -0.696192 0.455678
-0.221516 -0.229508 -0.438573
0.223065 -0.727063 -0.469697
0.222756 -0.724735 -0.468602
0.686976 0.237211 0.019641
0.221792 -0.724395 -0.469212
-0.691192 0.247567 0.420893
-0.686103 0.237474 -0.463757
0.264154 0.718259 0.011694
-0.682794 0.237658 -0.463098
-0.208095 0.681358 -0.453972
0.684455 -0.229047 0.493030
-0.206885 0.709412 0.477305
0.255643 0.255448 -0.457106
-0.691939 0.249348 0.421814
-0.686732 0.237199 -0.462964
0.686625 0.238157 0.017780
0.210719 0.244591 0.450681
0.192605 -0.696561 0.455559
-0.701474 -0.233654 -0.009780
0.222539 -0.723657 -0.470204
-0.689442 0.717681 0.014301
0.222707 -0.725831 -0.468975
-0.244609 -0.741810 -0.010623
0.222831 -0.723574 -0.469580
0.211665 0.244326 0.450785
-0.687975 0.237662 -0.462449
-0.245522 -0.741933 -0.010692
-0.690233 0.716025 0.011731
0.222966 -0.721852 -0.469259
0.264019 0.719312 0.012607
0.687151 0.238742 0.020132
-0.684713 0.236647 -0.464717
0.688416 -0.229951 -0.456020
0.264963 0.721124 0.011252
-0.693802 0.249821 0.421251
-0.238510 -0.241703 0.413037
0.257323 0.255507 -0.456398
-0.704079 -0.233602 -0.008661
0.222047 -0.726973 -0.469740
0.689281 -0.230085 -0.453866
0.254980 0.257074 -0.458130
0.261155 0.719987 0.011828
0.686234 -0.727305 0.000285
-0.692378 0.247508 0.421676
-0.693393 0.249475 0.421440
0.263432 0.721374 0.011305
-0.692787 0.249529 0.420226
-0.239225 -0.243064 0.414128
0.192973 -0.698043 0.456774
-0.684598 0.238003 -0.461918
-0.244981 -0.741138 -0.010678
0.689798 -0.231821 -0.453484
-0.246141 -0.742142 -0.011569
-0.239186 -0.242752 0.415237
0.210703 0.244915 0.451029
0.191999 -0.698531 0.456726
-0.221383 -0.229047 -0.438210
0.687051 0.238347 0.020694
0.254760 0.256900 -0.455842
0.687521 0.238783 0.019107
-0.704251 -0.232841 -0.010419
0.213662 0.244690 0.449556
-0.238833 -0.241267 0.415331
-0.219802 -0.229267 -0.437179
0.256168 0.256152 -0.456930
-0.237590 -0.241417 0.416184
-0.685734 0.238079 -0.464620
-0.206522 0.680499 -0.454682
0.264148 0.719116 0.012981
-0.692988 0.248063 0.421001
0.686729 0.237521 0.017846
-0.209825 0.682579 -0.452861
-0.209196 0.709687 0.476896
-0.206446 0.680034 -0.454903
-0.243935 -0.742740 -0.009301
-0.207273 0.681063 -0.454043
-0.210307 0.710069 0.477794
0.213128 0.246269 0.451046
0.222323 -0.727133 -0.468191
0.255713 0.256801 -0.457787
-0.210163 0.709810 0.475428
-0.209014 0.681461 -0.453107
-0.238358 -0.240538 0.413716
-0.702852 -0.233787 -0.011987
-0.206098 0.680132 -0.453153
0.192896 -0.696466 0.455549
0.683188 -0.228272 0.492565
0.685956 0.239528 0.017634
-0.209904 0.709585 0.475808
-0.206259 0.682273 -0.455166
0.264022 0.720529 0.011382
-0.685365 0.238051 -0.465942
-0.207805 0.680554 -0.454067
0.264113 0.719627 0.011846
-0.220690 -0.227417 -0.439145
0.683595 -0.230550 0.493013
0.257530 0.255552 -0.458755
-0.220608 -0.228305 -0.438770
0.687036 -0.725155 0.001103
0.682192 -0.227489 0.492996
0.688026 -0.727270 0.002769
0.221177 -0.724489 -0.469463
0.257023 0.257018 -0.458299
0.681762 -0.228671 0.493395
0.684620 -0.225278 0.493899
-0.246163 -0.742539 -0.012116
-0.210621 0.710085 0.477801
0.220498 -0.724742 -0.468681
-0.686677 0.237559 -0.464806
-0.207246 0.681185 -0.453434
0.683311 -0.229261 0.494544
-0.224304 -0.229095 -0.437998
0.222511 -0.723608 -0.470155
0.223370 -0.723872 -0.468773
-0.244649 -0.742995 -0.010577
0.689724 -0.230821 -0.455276
-0.209439 0.710452 0.476273
-0.207947 0.710715 0.477251
0.211278 0.245453 0.450496
-0.208837 0.710521 0.476096
0.255150 0.255680 -0.458304
-0.702958 -0.234365 -0.009653
-0.689457 0.715292 0.011197
-0.222729 -0.229758 -0.437556
0.686752 0.238468 0.020078
-0.702874 -0.234230 -0.010116
-0.209809 0.709812 0.475077
0.191783 -0.695815 0.456593
-0.210777 0.709452 0.476725
-0.683886 0.238535 -0.464192
0.688515 -0.726180 0.001183
0.264520 0.719696 0.012065
0.222549 -0.724019 -0.467308
0.689330 -0.227627 -0.455252
0.688423 -0.725249 0.002389
-0.701873 -0.233593 -0.012233
-0.702600 -0.234683 -0.009682
-0.684507 0.237525 -0.465403
0.223961 -0.723478 -0.468511
-0.693076 0.250171 0.421180
-0.240166 -0.240576 0.415000
0.222670 -0.724633 -0.469380
-0.691535 0.247593 0.422959
0.221538 -0.724353 -0.468722
0.682165 -0.228969 0.493823
-0.246002 -0.741537 -0.007872
-0.238959 -0.241696 0.413190
-0.207426 0.681903 -0.454122
-0.239922 -0.241052 0.414323
0.262892 0.719483 0.012255
0.223490 -0.726424 -0.470095
-0.208478 0.709703 0.476978
-0.243959 -0.743642 -0.010002
-0.207482 0.681879 -0.455254
0.263285 0.720679 0.013950
0.255215 0.256465 -0.457753
