OFF
256 0 0
0.168647 0.168316 0.631060
0.632279 0.168329 0.170029
0.168649 -0.756919 0.631539
-0.755194 0.631445 0.168265
0.629518 0.168037 -0.756725
0.631816 -0.295284 -0.293560
0.633287 -0.294879 -0.293562
0.631331 0.631473 -0.293691
0.167701 -0.295305 -0.756083
-0.293926 -0.295137 -0.294286
0.631677 -0.756598 0.166458
0.632102 -0.293486 -0.293285
0.166047 0.170909 0.631759
0.628603 0.167741 -0.755548
-0.295517 0.170376 -0.755479
-0.294542 -0.295864 -0.293248
0.631083 0.166754 -0.756109
0.632085 0.629905 -0.293999
0.630971 0.629961 -0.293468
0.170485 -0.758681 -0.295176
-0.756910 0.632377 0.168067
0.630030 0.170480 0.168602
0.168174 -0.294856 -0.757774
-0.294750 0.630408 0.631334
0.169080 0.631171 -0.756680
0.632098 0.631334 -0.294552
-0.294110 0.167933 -0.755837
0.167839 -0.755977 -0.295365
0.168665 -0.294077 -0.757271
0.169697 0.631876 -0.756586
-0.294313 -0.757030 0.168166
0.168521 -0.294863 -0.757932
0.168810 0.167984 0.631356
0.631560 -0.294401 0.632775
-0.294657 -0.295069 -0.294239
-0.758740 0.167982 0.631400
0.168439 0.169615 0.629800
0.632350 -0.294180 -0.294232
0.632576 0.168595 -0.756956
-0.293943 0.630597 -0.293606
-0.293879 0.632124 -0.293916
-0.294481 -0.756005 0.168499
0.168324 0.631122 -0.759053
-0.295830 0.630784 -0.294430
-0.293199 0.632106 0.631732
-0.295164 -0.293794 -0.295525
0.168983 0.631487 -0.757286
-0.294692 -0.293864 0.630276
0.630466 -0.756212 0.167454
-0.756933 -0.293849 0.167346
-0.294005 0.630247 0.631551
0.632302 0.169351 0.166978
-0.295654 -0.294135 0.631426
-0.296015 0.168769 -0.756128
-0.756141 0.168613 0.632322
0.630710 0.170354 0.168824
-0.295706 -0.293877 0.627797
0.631001 0.630118 -0.294530
-0.295307 -0.756117 0.171005
-0.294872 -0.757969 0.168736
-0.294468 -0.294519 -0.295686
0.630548 -0.756890 0.169116
-0.294184 -0.293365 0.632142
0.167218 0.630806 0.168867
0.631221 -0.757477 0.168415
-0.292422 0.631204 -0.295193
0.169007 0.631270 0.167744
0.631033 -0.757759 0.168521
0.166570 0.630308 0.166504
-0.293861 -0.295114 -0.293066
0.631962 -0.295359 0.631612
-0.295922 -0.294551 0.632102
-0.294590 0.170976 -0.758734
-0.758537 0.168356 0.631427
0.630777 0.630557 -0.293407
-0.757906 0.629727 0.170447
-0.757038 0.631736 0.167219
-0.756379 0.166291 -0.293989
-0.756525 -0.294116 0.169228
-0.297183 0.170285 -0.757477
0.168938 0.632708 0.168253
0.169057 0.631411 -0.757510
0.631362 -0.294184 0.629718
0.629599 -0.758004 0.168945
0.168473 0.168745 0.630491
0.633315 0.168273 -0.756399
-0.295019 -0.293449 -0.294677
-0.758416 0.167852 -0.293592
0.169772 0.169312 0.630951
-0.294975 -0.758978 0.169962
0.167517 -0.757364 0.632220
-0.295119 -0.294626 0.630303
-0.756732 -0.294075 0.169864
-0.756860 0.169049 -0.295980
-0.758352 -0.294048 0.167377
0.167465 -0.756615 -0.293328
-0.757406 -0.295042 0.169605
-0.294568 0.168829 -0.755983
-0.293119 0.169522 -0.757732
0.629622 -0.293996 0.632111
0.630578 0.632997 -0.293919
-0.757076 -0.293785 0.168510
0.629903 -0.295377 0.631255
0.167492 -0.294884 -0.757470
0.168819 0.633646 -0.756679
0.170929 0.630666 0.169308
-0.293996 -0.294694 0.630638
-0.293897 0.166689 -0.758876
0.631601 0.633248 -0.294272
0.167942 -0.757256 0.631106
0.631569 0.170085 0.169456
0.632193 -0.756219 0.169664
-0.296232 -0.296106 0.631436
0.629344 0.167327 0.168704
-0.296004 0.168615 -0.756213
-0.293694 0.629173 0.631028
-0.294826 -0.293729 -0.295897
0.631911 0.169998 0.167228
0.168459 -0.296762 -0.757153
0.166658 0.167809 0.631612
-0.756399 0.630092 0.167400
-0.294499 0.631009 -0.295083
-0.293688 -0.757758 0.168038
0.631191 0.166775 0.167542
0.631063 -0.757769 0.168824
0.630581 0.170659 -0.756316
-0.757211 0.167013 0.631926
0.630855 -0.293668 -0.293206
0.168744 -0.758213 -0.293287
0.631918 -0.757649 0.168451
0.631503 -0.294823 -0.293240
-0.757360 0.632568 0.168627
0.631698 -0.757315 0.170186
-0.294260 -0.757805 0.166973
-0.757280 0.630071 0.166959
0.169303 0.170014 0.630322
0.168995 -0.294912 -0.756762
-0.294924 0.167213 -0.757964
0.631474 -0.294986 0.631764
-0.294392 0.630836 0.634009
0.169654 -0.296789 -0.757125
0.630318 -0.295828 0.630571
-0.295248 -0.757497 0.169105
0.167469 0.632661 -0.756661
-0.759419 0.167932 -0.295216
0.166053 0.632347 0.170082
-0.757150 -0.295190 0.170844
0.167724 0.632423 0.167228
0.167470 0.169305 0.632035
-0.293894 -0.294281 0.632763
-0.295299 0.629867 0.631987
-0.295112 0.631146 -0.293100
0.167125 -0.759590 -0.296257
0.632653 -0.756884 0.168633
-0.294983 -0.292263 0.630773
0.630457 0.630959 -0.293131
0.632907 0.166265 0.170100
-0.294399 -0.294324 -0.294337
-0.294886 0.631157 0.631390
0.167227 0.631222 -0.759913
-0.295341 -0.757632 0.167304
0.631332 -0.758440 0.168150
-0.296062 -0.294413 0.630823
-0.293482 0.630921 -0.295386
-0.756477 -0.294594 0.166331
0.168101 -0.294762 -0.757468
0.630256 0.168154 0.166720
0.631342 -0.295606 -0.296565
-0.293061 -0.295768 -0.293389
0.631336 0.632034 -0.293954
0.631689 0.166638 0.167200
-0.756829 0.167693 0.629213
-0.293967 -0.294874 -0.296252
0.167614 0.632887 0.167421
0.168544 -0.293244 -0.758282
0.167478 -0.755835 -0.292751
0.631986 -0.295379 0.631103
0.630440 0.168776 -0.758682
-0.758597 0.168256 0.629200
0.631648 -0.295028 -0.294435
0.634362 0.630702 -0.295809
0.168183 -0.757114 0.631117
0.167701 -0.755911 -0.294583
-0.294609 -0.295019 0.631284
-0.294162 -0.293437 0.631042
0.169104 -0.295086 -0.757890
0.168868 -0.295195 -0.758025
0.166390 0.167795 0.630479
0.167496 -0.755881 -0.295162
0.632124 0.630194 -0.295099
0.169138 0.166685 0.632049
0.167335 0.169506 0.629058
0.167866 -0.758316 -0.292913
-0.294110 -0.757707 0.168073
0.631472 -0.294495 -0.294978
0.631694 0.629464 -0.293715
-0.293659 0.632305 0.631907
-0.295614 -0.757116 0.167667
-0.292362 -0.293358 0.633170
0.168584 -0.295322 -0.757205
0.632736 0.168509 0.167334
0.630715 0.630248 -0.294323
-0.757421 0.167880 0.632051
-0.756826 0.167931 -0.294839
-0.295132 0.632213 0.629715
0.629131 -0.293487 0.631755
0.628684 0.168444 0.168216
-0.294464 -0.757708 0.169420
-0.758307 0.168433 -0.293783
0.630581 0.168226 -0.758249
-0.295796 0.632596 0.631218
-0.756191 -0.295177 0.167518
0.166464 0.633287 0.166004
-0.756500 0.168007 0.631704
0.631910 0.168149 0.168157
0.168377 0.629657 -0.756124
0.631717 -0.296503 -0.295520
0.631089 -0.293300 -0.294340
-0.757451 -0.295938 0.168124
-0.295322 0.167952 -0.758238
0.167341 0.630876 0.167796
-0.759193 -0.294228 0.167887
0.630574 0.630296 -0.293936
0.632145 0.631753 -0.293808
0.632170 0.168587 0.169385
-0.294564 -0.757823 0.169385
-0.294754 0.630988 -0.294693
0.169769 0.632130 0.169258
0.167784 -0.295911 -0.757746
-0.294259 -0.294031 -0.294150
-0.756943 0.170793 0.629832
-0.756127 0.630970 0.167523
0.167697 -0.297832 -0.756565
0.632445 0.631510 -0.295386
-0.295339 0.628800 -0.294585
0.168199 0.633509 0.167419
-0.757015 0.167274 0.629797
-0.294424 0.630307 -0.294223
-0.294409 -0.756418 0.169418
-0.758139 -0.293583 0.168497
-0.758241 0.168530 0.632598
-0.757843 0.167817 -0.294239
-0.758574 0.167943 -0.294479
0.167921 0.169285 0.628881
-0.293846 -0.295485 0.629348
-0.293742 0.631258 0.632452
0.629609 -0.294961 0.629763
-0.294490 -0.758581 0.168977
-0.757750 0.168323 -0.294987
-0.756460 0.165844 0.631759
0.167126 -0.755546 0.632303
-0.294060 0.631703 0.632363
-0.758011 0.632432 0.168433
0.631929 -0.296012 0.629576
0.169642 -0.756820 -0.295211
0.631656 0.168179 -0.758860
