OFF
256 0 0
0.614533 -0.297602 0.628692
-0.291865 0.628496 -0.285598
0.162531 0.173440 0.635884
0.160652 -0.763272 -0.343320
0.156980 -0.293735 -0.755047
0.176178 0.630496 0.184728
0.661233 0.627817 -0.283704
-0.741134 -0.332789 0.189473
0.174559 0.630964 0.185673
0.614023 -0.707483 0.146202
-0.293504 0.626442 0.653073
0.591785 0.152021 -0.773062
0.154037 0.641221 -0.736148
0.589734 0.155139 -0.769500
-0.294281 0.625380 0.652143
0.175941 0.631115 0.184437
0.156232 0.639795 -0.736634
-0.254102 -0.297648 0.602279
-0.291507 0.629665 -0.286258
-0.770056 0.140719 0.619837
0.154185 -0.292019 -0.753770
-0.278241 -0.250825 -0.286011
0.614127 -0.708564 0.145151
0.177766 -0.753500 0.628616
0.160773 0.171589 0.639400
-0.772103 0.139474 0.620919
-0.282783 -0.770780 0.168183
-0.739195 0.623790 0.173130
0.614351 -0.707501 0.146485
0.160131 -0.765939 -0.341630
0.159548 -0.762774 -0.341670
0.157516 0.640791 -0.736760
0.160054 -0.763755 -0.343952
0.630158 0.185843 0.145366
0.155689 0.640617 -0.736230
-0.251805 -0.298028 0.601284
0.592110 0.151074 -0.772523
-0.299172 0.167958 -0.756078
-0.771895 0.139005 0.621243
-0.739583 -0.332511 0.187180
0.159358 -0.764850 -0.341403
0.630490 -0.281290 -0.295356
-0.297826 0.167197 -0.756749
0.176777 -0.751806 0.626128
-0.739689 0.622868 0.173195
0.155249 0.638572 -0.738032
-0.770661 0.140315 0.622636
0.155889 0.640931 -0.736265
-0.740972 -0.332113 0.188998
-0.737307 -0.333877 0.187210
0.176162 -0.755141 0.627563
0.630062 0.185990 0.144847
-0.277754 -0.250556 -0.283788
-0.298706 0.166302 -0.757580
-0.739664 -0.335361 0.188948
0.160180 -0.763824 -0.343085
0.614883 -0.298896 0.630696
-0.738914 0.625306 0.173126
-0.298974 0.163952 -0.756304
0.160536 0.173783 0.635664
0.614879 -0.709321 0.145291
0.593308 0.151444 -0.771087
0.661146 0.628982 -0.283291
0.171843 0.632040 0.184485
0.153700 0.640317 -0.737126
0.629989 0.183950 0.144705
0.630388 -0.280881 -0.292781
0.593022 0.152249 -0.770404
-0.775662 0.151499 -0.262307
0.161419 -0.762065 -0.341232
0.157170 0.174147 0.637666
0.155359 0.639299 -0.737179
-0.254256 -0.298537 0.603554
-0.740364 0.624829 0.171264
0.156834 0.640260 -0.736162
-0.294726 0.626473 0.653440
0.591726 0.153083 -0.771102
-0.281818 -0.769027 0.169290
0.177608 -0.753756 0.627009
0.661128 0.629497 -0.283838
0.159504 0.172762 0.636160
0.591326 0.153512 -0.771648
-0.296459 0.624959 0.652240
-0.277431 -0.251426 -0.284660
0.174859 0.630332 0.186061
-0.771955 0.140108 0.618753
0.592301 0.152592 -0.771312
0.630471 -0.279005 -0.293401
0.614865 -0.709410 0.145126
-0.276341 -0.249507 -0.285809
0.630076 0.185583 0.143505
-0.283582 -0.769539 0.169647
0.591792 0.153842 -0.768320
-0.299328 0.168236 -0.756796
0.630472 -0.279258 -0.294435
0.614588 -0.298074 0.629971
-0.290434 0.630318 -0.285827
0.154403 0.639251 -0.737014
0.614814 -0.297491 0.630438
0.155104 0.640685 -0.737290
-0.741173 -0.331717 0.187486
0.629143 0.187503 0.147267
-0.738349 0.624263 0.170876
0.159526 -0.762041 -0.343692
0.631457 -0.278204 -0.294821
-0.295351 0.626300 0.652982
-0.292002 0.628712 -0.288386
0.177188 -0.755179 0.628409
0.160903 0.172811 0.635535
0.177515 -0.753113 0.625270
-0.775053 0.151386 -0.264661
0.662400 0.628156 -0.283682
-0.769781 0.139757 0.622004
0.160248 0.172838 0.637517
-0.283323 -0.768506 0.168894
-0.253753 -0.297026 0.601728
0.155023 -0.292613 -0.753552
-0.738586 0.623538 0.174232
-0.291074 0.630017 -0.287726
-0.283674 -0.768697 0.170112
0.630639 0.186087 0.143924
0.155787 -0.292375 -0.754408
-0.738671 0.623453 0.172873
0.592905 0.151417 -0.772264
-0.775101 0.149182 -0.264863
0.175691 0.630204 0.183804
0.660043 0.628110 -0.282848
0.154328 -0.294630 -0.753422
-0.253750 -0.297933 0.602442
0.174682 -0.753582 0.628302
-0.777037 0.149870 -0.263891
-0.775914 0.148082 -0.265135
0.630003 0.183174 0.145418
-0.769991 0.140098 0.621052
-0.298481 0.164711 -0.755895
0.592555 0.151672 -0.769902
-0.771259 0.139117 0.619804
-0.301114 0.168563 -0.754542
-0.278212 -0.249505 -0.284563
0.157650 -0.763560 -0.340929
0.629658 0.185692 0.145648
0.159023 0.172683 0.636560
0.661245 0.627164 -0.283945
-0.283472 -0.770384 0.169545
0.615313 -0.297737 0.630667
-0.253226 -0.297744 0.602597
-0.294845 0.625830 0.651852
-0.295158 0.627827 0.654223
-0.738931 -0.334266 0.187112
-0.740246 0.624033 0.172009
0.630143 0.185717 0.145030
0.155594 0.639005 -0.735515
0.154029 0.639646 -0.737719
0.175673 -0.754241 0.626922
0.159062 -0.762763 -0.343346
-0.739334 0.624104 0.171997
0.160299 0.170898 0.636652
0.159359 -0.763226 -0.341809
-0.739595 -0.332628 0.187202
-0.772718 0.139336 0.621228
0.613110 -0.707250 0.146278
0.173814 0.629748 0.184880
0.631570 0.185766 0.146498
-0.741248 0.625779 0.171213
0.173680 0.630517 0.185010
0.174377 0.630860 0.183620
0.176703 -0.752645 0.628099
-0.772528 0.138849 0.621344
-0.291223 0.629161 -0.287707
0.613508 -0.706565 0.147374
0.159946 0.173446 0.637217
-0.276784 -0.249243 -0.284966
0.153857 -0.295832 -0.752870
0.615721 -0.298344 0.629244
0.159512 0.173879 0.636103
-0.739670 0.624196 0.172067
0.661539 0.628016 -0.282352
-0.292993 0.625848 0.653411
0.629404 0.186769 0.146500
0.159724 -0.764248 -0.340903
-0.294508 0.626939 0.652736
0.154185 -0.293781 -0.755171
0.176407 -0.753609 0.628267
-0.740359 -0.335355 0.185837
0.615345 -0.296532 0.629145
-0.776047 0.149729 -0.264277
0.177833 -0.753928 0.627747
0.593892 0.153298 -0.770559
0.614387 -0.297487 0.630605
-0.292388 0.628137 -0.286980
0.631503 0.186767 0.143870
0.593832 0.153362 -0.770871
0.159677 0.172070 0.637428
0.154398 0.639130 -0.736170
-0.282069 -0.769693 0.168345
0.592030 0.152911 -0.771757
0.159709 -0.764468 -0.341757
-0.276834 -0.250633 -0.284530
0.160751 -0.762178 -0.341628
0.161476 -0.761008 -0.341311
-0.771760 0.137280 0.621254
-0.294395 0.628640 -0.286564
0.661003 0.629148 -0.284229
-0.291479 0.628398 -0.286374
-0.775769 0.151588 -0.263016
-0.294257 0.627061 0.653536
0.172636 0.630089 0.183244
0.612930 -0.706830 0.146619
0.661012 0.627679 -0.285232
0.590881 0.153451 -0.769726
-0.294152 0.626877 0.652645
0.612308 -0.707457 0.146910
0.160019 0.173806 0.636429
0.615002 -0.708449 0.146972
0.660304 0.628042 -0.284000
-0.738455 -0.334183 0.187193
-0.252715 -0.298539 0.602263
-0.300382 0.165125 -0.756115
0.160520 -0.762886 -0.342554
0.160936 -0.761520 -0.342794
0.631500 0.187970 0.146292
-0.253589 -0.298557 0.603128
0.630568 -0.279494 -0.294675
0.160313 -0.764237 -0.342044
0.156366 0.640599 -0.734368
-0.276841 -0.251193 -0.285972
-0.291886 0.628149 -0.288338
-0.777321 0.149352 -0.265581
-0.740832 -0.332656 0.186323
-0.300016 0.166534 -0.755768
0.177116 -0.753396 0.628313
0.159897 -0.763113 -0.343653
-0.282758 -0.770398 0.168752
0.175909 -0.753832 0.627282
-0.277984 -0.247722 -0.282976
0.176649 -0.753425 0.627380
0.631916 0.185333 0.145661
-0.739098 -0.333287 0.188481
-0.292430 0.628443 -0.287610
0.158122 0.172481 0.637430
0.160346 -0.763240 -0.341884
0.629918 0.187348 0.143669
0.160066 -0.762176 -0.345111
0.631726 -0.279288 -0.293450
0.631514 -0.279436 -0.291933
0.631353 -0.281255 -0.295607
0.592771 0.154771 -0.769869
-0.775308 0.151002 -0.261678
-0.772281 0.139086 0.620911
-0.294375 0.626322 0.652889
-0.283698 -0.769744 0.169939
0.159058 -0.762895 -0.342631
0.155009 0.639942 -0.735434
0.159365 -0.764634 -0.342531
0.154261 -0.294861 -0.754163
0.155708 -0.292988 -0.754939
