OFF
256 0 0
0.606166 -0.641689 -0.301293
0.197345 0.748318 0.620687
-0.278388 -0.623019 -0.277728
-0.265967 0.318563 0.585313
0.603609 -0.642621 -0.301064
0.137217 -0.624545 -0.760273
-0.299011 -0.636415 0.628171
0.663287 -0.171175 0.183842
0.197985 0.750910 0.619848
-0.752531 -0.144803 -0.263234
-0.296836 0.777655 0.158647
0.634086 0.271432 0.626709
0.609094 -0.177384 -0.749732
-0.298116 -0.637428 0.629574
-0.785113 0.291228 0.171979
0.198481 0.748826 0.617643
-0.752932 -0.144687 -0.261510
0.604391 -0.645090 -0.301199
-0.768045 -0.181362 0.616380
-0.785683 0.292827 0.171031
0.196564 0.748106 0.620529
-0.295694 0.775493 0.160076
0.180860 -0.607664 0.164307
0.606312 -0.176474 -0.750868
-0.783239 0.291714 0.173250
-0.290177 -0.150532 -0.764955
-0.766445 -0.179867 0.616520
0.636391 0.736479 0.161592
0.198443 0.748707 0.619430
0.182106 -0.608157 0.163569
-0.767893 -0.182621 0.615569
0.607717 0.283693 -0.267246
-0.786610 0.291328 0.169704
0.608205 0.284629 -0.268524
0.187040 0.311644 -0.751239
0.186276 0.311343 -0.751616
0.605825 -0.176538 -0.750103
-0.754185 -0.144215 -0.262082
0.665691 -0.173533 0.182859
0.198423 0.749854 0.620151
0.197798 0.749927 0.618402
-0.755199 -0.145426 -0.260405
-0.785519 0.289420 0.171142
-0.787526 0.291592 0.172980
0.664418 -0.172097 0.185071
0.634401 0.272770 0.626523
0.604576 -0.640375 -0.301098
-0.265667 0.318541 0.585264
-0.745047 -0.627812 0.153914
0.131558 -0.165909 0.616008
-0.767566 -0.181746 0.616687
0.197850 0.747746 0.619699
0.180329 -0.608105 0.164047
-0.785549 0.292060 0.171774
0.632131 0.271942 0.624966
0.607027 0.285832 -0.268696
0.135312 -0.625059 -0.759709
0.132399 -0.166898 0.618017
-0.294302 0.776933 0.158155
-0.279965 -0.622148 -0.276063
-0.279164 -0.622768 -0.273916
0.137088 -0.621033 -0.758589
0.634296 0.269730 0.625689
0.137066 -0.624465 -0.757919
0.604954 -0.643188 -0.301407
0.195703 0.748158 0.619129
-0.264655 0.270369 -0.270469
0.188463 0.310842 -0.752754
0.633976 0.271865 0.627442
0.197811 0.749097 0.619932
-0.297329 -0.635834 0.630140
0.131928 -0.167668 0.618279
0.155991 0.748619 -0.286075
0.135437 -0.621881 -0.757675
0.196352 0.749370 0.619799
0.181470 -0.607206 0.164269
-0.295030 0.777102 0.162086
-0.745000 -0.627042 0.152994
0.130350 -0.166211 0.617661
-0.752701 -0.147364 -0.261518
0.637478 0.733770 0.161028
0.197763 0.747681 0.617995
0.196415 0.749537 0.618269
0.136233 -0.623076 -0.758690
0.608354 0.284830 -0.268257
-0.297584 -0.634758 0.630057
-0.291903 -0.152790 -0.765191
-0.785269 0.292863 0.171891
0.635110 0.734053 0.161829
-0.744161 -0.629533 0.154928
0.129889 -0.166982 0.616711
0.137779 -0.623208 -0.759679
0.638328 0.735368 0.161739
0.634178 0.274122 0.625328
-0.294039 0.775427 0.160216
0.158421 0.749395 -0.285871
0.604987 -0.643894 -0.300180
0.665173 -0.174337 0.182399
-0.264725 0.318507 0.585433
-0.264819 0.319131 0.585587
-0.262478 0.268946 -0.269324
-0.298168 -0.635292 0.627522
0.634119 0.270389 0.627578
-0.262604 0.268673 -0.269416
-0.289561 -0.152107 -0.764307
-0.744642 -0.629054 0.151425
0.604218 -0.643782 -0.299596
0.186505 0.310299 -0.752662
0.130307 -0.166700 0.616678
0.604586 -0.642385 -0.301206
0.197312 0.748931 0.618589
0.136352 -0.624945 -0.759021
-0.745235 -0.629014 0.154008
-0.289639 -0.152297 -0.765668
0.635670 0.271391 0.625856
-0.265562 0.317765 0.584893
-0.298546 -0.635474 0.629659
0.604453 -0.642380 -0.301386
-0.290773 -0.152149 -0.768369
-0.294180 0.776069 0.159822
-0.295279 0.776380 0.160492
0.137362 -0.623117 -0.758285
-0.299502 -0.636163 0.629041
-0.290552 -0.150164 -0.764805
-0.766953 -0.179953 0.616943
0.132723 -0.165953 0.617404
-0.784833 0.291492 0.170219
-0.784039 0.290691 0.169119
0.159678 0.749567 -0.287063
0.637523 0.737065 0.161011
-0.767380 -0.180392 0.614954
0.607983 -0.175887 -0.750339
0.605434 0.285282 -0.268446
0.187351 0.311359 -0.752758
0.665223 -0.171585 0.182753
-0.766796 -0.181708 0.615717
0.178267 -0.609003 0.164386
-0.295556 0.776756 0.159038
-0.297643 -0.635393 0.630975
0.605629 -0.175638 -0.750531
-0.766756 -0.181889 0.615519
0.602919 -0.642185 -0.301151
-0.264179 0.269158 -0.269530
-0.290499 -0.150656 -0.763965
-0.280865 -0.623872 -0.274558
0.179908 -0.606979 0.163896
0.159569 0.748684 -0.286148
-0.264896 0.267510 -0.270650
0.607349 -0.177094 -0.748519
-0.294599 0.774276 0.160803
0.188353 0.310647 -0.753781
0.636978 0.735185 0.162860
0.197626 0.747613 0.618670
-0.266142 0.318358 0.586167
-0.744681 -0.628742 0.154333
0.638056 0.735620 0.162382
0.137423 -0.623003 -0.759429
-0.767631 -0.182229 0.615191
0.131329 -0.167503 0.615979
-0.751650 -0.144792 -0.260684
0.632406 0.270582 0.625393
-0.298481 -0.635831 0.628932
-0.764436 -0.180612 0.614740
-0.263656 0.266845 -0.270131
0.664458 -0.173945 0.183653
0.130291 -0.167281 0.617889
0.634412 0.272080 0.625440
0.131298 -0.167790 0.618666
-0.743115 -0.627282 0.153349
0.198182 0.746742 0.620917
0.197655 0.750054 0.618833
-0.299578 -0.635270 0.628113
0.634222 0.271820 0.626970
0.636894 0.735954 0.161351
0.608062 -0.177028 -0.748821
-0.753585 -0.144554 -0.260200
0.605480 0.284635 -0.267741
0.178598 -0.607478 0.165239
-0.289303 -0.151104 -0.763723
0.633385 0.273485 0.627399
0.186867 0.313315 -0.754727
-0.767450 -0.180154 0.614786
-0.766548 -0.181949 0.616771
0.180309 -0.610431 0.162681
0.665252 -0.172492 0.183857
0.606014 -0.643365 -0.300470
-0.281062 -0.625770 -0.275298
0.137334 -0.622937 -0.759111
-0.742024 -0.627098 0.153117
0.181952 -0.608922 0.163644
-0.279425 -0.622569 -0.275170
0.136270 -0.619004 -0.759375
0.136820 -0.622475 -0.759355
0.138023 -0.622010 -0.758273
-0.263838 0.270009 -0.269254
-0.743009 -0.627963 0.153804
-0.267342 0.317526 0.587398
0.606229 0.283407 -0.269382
0.633571 0.272239 0.625773
0.137629 -0.621137 -0.761182
0.196187 0.750221 0.619811
0.156980 0.749438 -0.287501
-0.296520 0.775715 0.159386
-0.768551 -0.180615 0.616813
-0.783976 0.292235 0.171710
0.196436 0.748264 0.620442
0.606815 -0.176946 -0.749115
-0.744425 -0.629899 0.152971
0.187298 0.311491 -0.754058
0.198249 0.751554 0.619642
0.157565 0.748083 -0.285438
0.131540 -0.166894 0.617074
0.637442 0.736438 0.163208
-0.299134 -0.635224 0.630162
-0.746109 -0.629004 0.154607
0.132435 -0.164925 0.615290
0.606945 0.283876 -0.268307
0.605161 -0.175284 -0.750001
0.638305 0.736831 0.161943
-0.766029 -0.181151 0.616100
-0.754911 -0.145171 -0.261309
-0.744536 -0.626867 0.153340
-0.767152 -0.182596 0.614485
0.185832 0.311176 -0.752725
0.130660 -0.164272 0.618485
0.186906 0.311521 -0.752347
0.137228 -0.625177 -0.758272
0.633611 0.271972 0.626775
0.603650 -0.642713 -0.301751
0.605907 -0.644585 -0.299875
0.137243 -0.622970 -0.758405
-0.294642 0.776084 0.158223
-0.298621 -0.636342 0.629356
-0.280623 -0.622666 -0.275912
-0.291129 -0.150519 -0.764766
0.664939 -0.171095 0.184050
-0.262921 0.267244 -0.270458
-0.766699 -0.180805 0.616729
0.158126 0.748431 -0.284250
0.158165 0.750959 -0.285587
0.666396 -0.172335 0.183487
-0.753534 -0.146442 -0.263356
-0.266576 0.319082 0.585558
-0.298155 -0.636230 0.628493
0.605607 -0.176432 -0.751201
0.180375 -0.605032 0.162335
0.177081 -0.607812 0.163320
-0.785880 0.291514 0.170390
-0.766251 -0.182695 0.615291
0.633647 0.272225 0.626166
-0.742759 -0.628092 0.152958
0.606250 0.283806 -0.267562
-0.744018 -0.627832 0.152640
-0.785651 0.292224 0.170031
-0.744722 -0.627008 0.152854
0.603862 -0.642019 -0.302150
