OFF
256 0 0
-0.266336 0.733806 0.168231
0.165543 -0.595387 0.130550
0.146606 0.724251 0.605757
-0.272410 -0.149551 -0.746504
-0.704653 -0.172167 -0.265691
-0.271298 -0.586850 0.608211
-0.267375 0.734751 0.171680
0.131290 -0.610692 -0.711085
0.611481 -0.606669 -0.295834
0.141465 0.745889 -0.271523
0.177462 -0.152961 0.616101
0.130682 -0.609883 -0.710803
-0.684853 0.267459 0.176634
0.153459 0.283993 -0.703377
0.613391 -0.605972 -0.294676
-0.259702 0.241858 0.587268
-0.261697 0.239567 0.585983
-0.298195 -0.585372 -0.269770
0.596323 0.736928 0.142801
-0.296713 -0.586220 -0.270051
-0.683556 0.267525 0.176125
0.143448 0.723925 0.605081
-0.753649 -0.639415 0.157695
-0.272677 -0.149680 -0.748666
0.145076 0.722754 0.606746
-0.269786 -0.585715 0.609312
-0.270824 -0.586163 0.609285
-0.267301 0.734797 0.168334
0.588247 -0.181590 -0.753538
-0.753067 -0.638053 0.156524
0.177074 -0.155035 0.614489
0.610170 -0.606946 -0.296660
-0.271160 -0.586779 0.609478
0.593794 0.739239 0.144617
0.152293 0.285902 -0.705345
-0.298354 -0.586025 -0.270917
0.610135 -0.603902 -0.296432
-0.260949 0.238858 0.586560
-0.267217 0.732660 0.168009
0.586995 0.297830 0.611278
0.610349 -0.606713 -0.293418
0.586273 -0.180130 -0.753951
0.146978 0.725572 0.604770
-0.229340 0.254095 -0.256384
-0.684348 0.267702 0.176559
0.131383 -0.608617 -0.711995
-0.272413 -0.146177 -0.745792
0.153036 0.285645 -0.704056
0.152798 0.285157 -0.705734
0.587791 0.296939 0.613436
-0.740254 -0.185790 0.593604
0.588033 -0.183119 -0.751722
-0.270070 -0.584554 0.609384
0.598234 0.287794 -0.284533
0.594619 0.737372 0.144757
0.586920 -0.182380 -0.753769
0.179215 -0.155436 0.614535
0.591704 -0.109405 0.163327
-0.741059 -0.186264 0.594495
0.144669 0.722930 0.605635
-0.753527 -0.638363 0.157135
-0.273340 -0.148083 -0.749219
0.177554 -0.154353 0.614094
-0.753562 -0.639028 0.155290
-0.267797 0.731888 0.170764
-0.270368 -0.585704 0.610675
0.166108 -0.596333 0.130301
-0.703278 -0.169313 -0.265189
-0.754057 -0.637496 0.158492
-0.739806 -0.186152 0.592579
0.599568 0.287806 -0.284422
0.152483 0.286907 -0.706121
0.588383 -0.180843 -0.751332
0.596531 0.287474 -0.284710
0.588401 -0.181714 -0.753891
0.130928 -0.607543 -0.713882
-0.741390 -0.184859 0.594432
0.587686 -0.182761 -0.752844
-0.273311 -0.146775 -0.746712
0.146784 0.724234 0.604059
0.141155 0.745550 -0.271412
-0.270510 -0.584027 0.608086
0.153835 0.286360 -0.703887
-0.266766 0.736894 0.170019
0.598685 0.290010 -0.285027
-0.272177 -0.148090 -0.747644
0.586401 -0.182457 -0.753234
-0.270850 -0.583643 0.609506
0.131529 -0.608180 -0.709696
0.178039 -0.154176 0.614966
-0.267179 0.734546 0.167899
0.144590 0.725634 0.605326
0.154048 0.284670 -0.705472
-0.267007 0.734899 0.169497
0.165659 -0.596462 0.130095
0.593219 0.738976 0.142473
-0.297209 -0.585224 -0.267086
0.590781 -0.110618 0.163568
-0.231317 0.254139 -0.255748
0.597694 0.289583 -0.286244
0.595544 0.736624 0.143101
0.155099 0.283997 -0.704778
0.144771 0.724508 0.606880
-0.703515 -0.170570 -0.264812
-0.753365 -0.639131 0.156144
-0.271829 -0.148329 -0.748055
-0.296172 -0.587293 -0.269734
0.598138 0.288820 -0.283964
0.612820 -0.607322 -0.296812
-0.741864 -0.186613 0.592145
0.610847 -0.607434 -0.295058
0.139834 0.745629 -0.271706
0.597670 0.289429 -0.284784
0.130669 -0.610040 -0.711749
0.144899 0.723888 0.604991
0.140031 0.745965 -0.271938
0.610584 -0.607550 -0.295969
0.165762 -0.595725 0.128276
-0.268295 0.733859 0.167048
-0.266809 0.732072 0.169046
-0.683141 0.266231 0.177103
0.589842 -0.107995 0.163075
0.595292 0.738135 0.143467
0.143574 0.722196 0.606911
0.589200 -0.108801 0.163112
-0.752325 -0.638343 0.156448
-0.705002 -0.170171 -0.264429
0.592338 0.738437 0.143086
-0.268450 -0.586682 0.609296
0.139791 0.747263 -0.270528
-0.270679 -0.585764 0.610212
0.178342 -0.155415 0.615158
-0.272529 -0.149595 -0.748781
0.594340 0.737099 0.142635
-0.271298 -0.586938 0.610202
0.597995 0.287721 -0.284062
0.139975 0.746446 -0.273413
0.591063 -0.108237 0.162294
-0.740121 -0.186575 0.592223
-0.751989 -0.638161 0.156377
-0.232003 0.254533 -0.256233
-0.684493 0.267075 0.178032
0.594145 0.737230 0.142691
0.588624 0.297361 0.613302
0.175891 -0.154214 0.613778
0.590697 -0.108755 0.162553
-0.273901 -0.148007 -0.748632
-0.703986 -0.171249 -0.267361
0.144513 0.723115 0.605029
0.598139 0.289636 -0.284283
-0.271430 -0.588223 0.608097
0.584961 -0.182300 -0.753242
-0.276101 -0.148143 -0.747671
0.611848 -0.608891 -0.296935
0.141966 0.745326 -0.271533
-0.267622 0.733382 0.167639
0.177623 -0.157291 0.614917
-0.270432 -0.586046 0.608841
0.592018 -0.109164 0.163991
-0.230688 0.254558 -0.254244
0.612172 -0.606215 -0.297084
0.588221 0.296346 0.613669
0.178070 -0.154408 0.614316
0.131063 -0.609524 -0.712565
0.144299 0.723539 0.605413
0.598562 0.288011 -0.285248
-0.683104 0.266405 0.177905
0.592794 0.738032 0.144036
-0.741256 -0.184067 0.592365
0.589026 0.297512 0.612461
-0.684039 0.268120 0.177272
0.590374 -0.107345 0.162131
0.131619 -0.608661 -0.710508
-0.683665 0.266900 0.178064
-0.298495 -0.586811 -0.268124
0.165397 -0.595110 0.129402
-0.753091 -0.638614 0.155101
-0.229988 0.254650 -0.253841
-0.297797 -0.585085 -0.270869
0.139891 0.747765 -0.270808
-0.271983 -0.586720 0.608254
0.594254 0.737529 0.146141
-0.706180 -0.169877 -0.266072
0.145454 0.723088 0.606757
-0.271398 -0.586472 0.609602
-0.683724 0.268426 0.177575
0.586618 0.297574 0.612839
-0.229836 0.253849 -0.254370
-0.753996 -0.639483 0.158627
0.141361 0.743762 -0.271431
-0.268099 0.734985 0.169457
0.595005 0.737228 0.142830
0.154925 0.285728 -0.704819
0.179283 -0.154503 0.616427
0.179713 -0.154530 0.614298
0.153933 0.283932 -0.704154
0.177468 -0.154126 0.614087
-0.230650 0.254224 -0.255522
-0.683664 0.266886 0.177515
-0.274081 -0.148654 -0.747983
0.592599 0.738170 0.144523
-0.706059 -0.171413 -0.264053
-0.739961 -0.186547 0.593170
-0.681854 0.266835 0.177158
-0.266293 0.735315 0.167201
0.143985 0.723346 0.605418
-0.230289 0.255077 -0.255761
0.145229 0.724968 0.604710
0.165247 -0.594734 0.130475
-0.267574 0.733522 0.169781
0.131084 -0.608883 -0.712350
-0.683493 0.267442 0.176133
0.586942 -0.181059 -0.750107
-0.739023 -0.186944 0.592253
-0.753126 -0.639856 0.156093
-0.230928 0.254423 -0.255938
-0.275054 -0.149128 -0.746306
0.594072 0.736886 0.141862
0.612018 -0.608369 -0.297225
-0.704196 -0.169765 -0.267069
0.153955 0.284348 -0.706834
-0.267385 0.733511 0.168798
0.592575 -0.111182 0.162156
-0.742099 -0.187800 0.594145
0.146073 0.724132 0.605542
-0.230134 0.254531 -0.256419
0.165182 -0.596228 0.127525
-0.274345 -0.149126 -0.748772
0.179188 -0.155253 0.613919
0.586548 -0.181549 -0.752635
0.587457 -0.182419 -0.752823
-0.703718 -0.170054 -0.265993
-0.753234 -0.640094 0.157231
-0.268506 0.733001 0.168064
0.165650 -0.594445 0.130339
0.131457 -0.610537 -0.712055
0.166794 -0.596206 0.128808
-0.274355 -0.147414 -0.748190
0.130385 -0.609878 -0.711655
-0.230650 0.252540 -0.257495
0.141325 0.747052 -0.271811
-0.228112 0.252686 -0.256003
0.609634 -0.605920 -0.295166
0.144379 0.724439 0.608285
-0.273384 -0.148202 -0.747936
0.597194 0.287703 -0.285166
-0.229739 0.253672 -0.255076
0.176433 -0.155698 0.614264
-0.228718 0.256662 -0.255418
0.597595 0.288688 -0.286804
-0.274314 -0.148258 -0.748339
0.590183 -0.109113 0.162176
-0.683267 0.266556 0.178687
0.588743 0.298916 0.613955
0.583906 -0.183253 -0.752497
-0.298484 -0.587712 -0.269796
