OFF
256 0 0
-0.745332 0.318728 0.172211
-0.295537 0.299516 0.639086
-0.744305 0.318403 0.173571
0.619771 0.284786 0.602792
-0.744090 0.318267 0.171699
0.621591 0.275622 -0.310033
0.619177 0.285741 0.603183
0.622628 0.280019 -0.308364
-0.296543 -0.171264 -0.788923
-0.293343 -0.632503 0.641340
0.163406 -0.608400 -0.747086
0.628331 0.737871 0.159345
0.673101 -0.203391 0.176428
-0.744377 0.318077 0.172111
0.631066 -0.175241 -0.739617
0.126814 0.298334 -0.745626
0.202865 0.773768 -0.271451
0.623472 0.280012 -0.308682
0.629352 0.735312 0.158954
0.672859 -0.203134 0.176753
-0.307465 -0.618736 -0.285537
0.622310 0.277521 -0.308965
0.590857 -0.647524 -0.292256
-0.282025 0.771967 0.183362
0.629066 0.734558 0.158640
0.127937 0.297545 -0.745485
-0.281158 0.299259 -0.305807
-0.280410 0.296357 -0.306767
0.160927 -0.644743 0.166864
0.631228 -0.177086 -0.741587
0.203412 0.773712 -0.273356
0.627765 0.736249 0.160228
0.628993 0.736620 0.159230
-0.293157 -0.630717 0.641056
0.164753 -0.610539 -0.748542
0.202934 0.773382 -0.271285
0.620886 0.284993 0.603639
-0.744205 0.318811 0.172622
0.630473 -0.176856 -0.741120
0.619781 0.285400 0.604408
-0.281077 0.771132 0.183071
0.674020 -0.203810 0.177792
0.202770 0.773065 -0.273435
0.167052 0.752429 0.620272
0.629329 -0.174992 -0.739417
-0.282627 0.770712 0.183715
-0.281338 0.299588 -0.305995
0.203514 0.772525 -0.273050
0.629229 -0.176719 -0.740146
0.674343 -0.201946 0.178146
-0.307236 -0.619181 -0.285309
-0.743706 0.316603 0.172765
0.163615 -0.608501 -0.747377
-0.757297 -0.168452 -0.320110
-0.292759 -0.631352 0.641360
-0.759635 -0.597736 0.168595
0.628697 -0.177049 -0.738406
-0.293751 0.298834 0.638839
-0.745315 0.318743 0.173617
-0.292688 0.297458 0.637756
-0.292732 -0.630633 0.640364
0.590942 -0.646638 -0.293576
-0.758191 -0.599088 0.168750
-0.292835 -0.632177 0.640878
0.161900 -0.644212 0.167791
-0.307117 -0.618687 -0.285889
-0.756150 -0.169671 -0.323060
-0.280330 0.772274 0.182761
0.161073 -0.645167 0.168000
0.161357 -0.643859 0.168097
-0.281842 0.771916 0.183029
0.621059 0.279661 -0.308260
-0.742915 0.318815 0.171973
-0.759257 -0.599380 0.168332
0.202084 0.772460 -0.272740
0.623135 0.277991 -0.309041
0.621682 0.276886 -0.308209
-0.291779 -0.630707 0.640897
0.161686 -0.608534 -0.747410
-0.299009 -0.168049 -0.789184
0.165103 0.753955 0.618550
0.622290 0.277910 -0.307899
-0.757339 -0.167796 -0.320461
-0.293027 0.299692 0.640397
-0.743925 0.316696 0.173888
-0.292547 -0.631056 0.640657
-0.751983 -0.170798 0.636959
-0.294032 0.299616 0.639525
-0.757953 -0.168193 -0.321627
-0.743947 0.317262 0.174401
0.589802 -0.650012 -0.293250
0.592122 -0.649680 -0.292199
-0.292845 -0.631782 0.640336
-0.308718 -0.618272 -0.287250
0.622098 0.277557 -0.307906
0.630637 -0.177847 -0.740756
-0.299795 -0.170752 -0.788433
-0.743844 0.317087 0.172638
0.588547 -0.649418 -0.292716
-0.299046 -0.168440 -0.787054
0.128202 0.296418 -0.746296
0.160415 -0.646848 0.166455
-0.290697 -0.632259 0.640811
0.164931 0.752192 0.619441
-0.293659 -0.629288 0.641849
-0.308036 -0.618387 -0.286253
0.180822 -0.172511 0.640394
0.623918 0.277009 -0.308127
0.621920 0.277340 -0.308272
0.166498 0.754355 0.620219
-0.299661 -0.168069 -0.789702
-0.752813 -0.168503 0.639169
0.159516 -0.646956 0.166903
0.159461 -0.645284 0.168023
-0.757353 -0.167774 -0.320947
-0.757941 -0.599126 0.168990
-0.757615 -0.598558 0.169226
0.674242 -0.201826 0.175513
0.618859 0.286013 0.602029
0.619900 0.285601 0.602688
0.672716 -0.203201 0.177713
-0.299525 -0.168566 -0.787930
-0.294060 -0.631638 0.642135
0.127895 0.298841 -0.747253
0.202904 0.771961 -0.272396
0.166337 0.754133 0.620205
-0.299099 -0.168974 -0.787510
-0.281646 0.770862 0.183412
0.160364 -0.644151 0.168481
0.200299 0.773400 -0.272992
-0.292265 -0.631187 0.640973
-0.281602 0.297879 -0.305685
0.621040 0.285015 0.602744
0.626485 0.735734 0.162143
0.621886 0.278115 -0.308597
0.180990 -0.170398 0.639802
0.620020 0.286899 0.600952
-0.294830 0.300300 0.639896
0.673208 -0.201953 0.177818
-0.291155 0.298492 0.639134
-0.297413 -0.168469 -0.787248
-0.281337 0.297980 -0.303845
-0.309037 -0.617738 -0.286892
0.159161 -0.642808 0.165633
0.182193 -0.172239 0.640288
0.181239 -0.172608 0.639579
0.629776 -0.175811 -0.741392
-0.759163 -0.600224 0.166429
-0.750220 -0.170639 0.636893
0.629932 -0.176512 -0.738037
-0.751474 -0.171609 0.638613
-0.308237 -0.617311 -0.285487
-0.745945 0.318145 0.173601
0.180387 -0.171111 0.638987
0.622664 0.278200 -0.308551
-0.757500 -0.166082 -0.320472
-0.755701 -0.597435 0.167604
0.629835 0.734812 0.158818
-0.750187 -0.170156 0.637311
0.126065 0.297527 -0.745117
-0.750965 -0.171154 0.639090
-0.294591 0.300197 0.640385
0.628111 0.736625 0.160019
0.160051 -0.645230 0.167081
-0.746601 0.316006 0.172697
0.630558 -0.177612 -0.740278
-0.751738 -0.170740 0.638738
0.629110 -0.177076 -0.741259
0.202143 0.772914 -0.271722
0.181822 -0.172644 0.639140
0.629309 -0.176425 -0.740619
-0.758355 -0.597266 0.167561
0.202517 0.772847 -0.272349
0.622643 0.280118 -0.307315
0.179657 -0.171742 0.639286
0.201998 0.771243 -0.271121
-0.281150 0.771013 0.183335
-0.744179 0.318703 0.173482
-0.297750 -0.169518 -0.787790
0.201897 0.772767 -0.275312
0.630101 0.736478 0.159599
0.127824 0.297469 -0.745003
0.127461 0.297003 -0.744598
0.629553 -0.176624 -0.739460
-0.745705 0.320412 0.173462
0.620017 0.283911 0.604049
-0.299565 -0.169218 -0.787106
0.202675 0.771402 -0.272398
0.622979 0.277697 -0.308150
-0.294122 0.298495 0.638825
-0.749887 -0.172079 0.638871
-0.758454 -0.598754 0.168498
-0.292817 -0.632200 0.640741
0.157817 -0.645875 0.166436
-0.752286 -0.167539 0.636389
-0.750281 -0.168706 0.635353
-0.743332 0.318852 0.172495
0.628196 0.735577 0.160489
0.166955 0.753526 0.620066
-0.293110 -0.633020 0.640847
0.128795 0.297477 -0.746839
-0.755913 -0.168772 -0.321112
0.159524 -0.644446 0.166607
0.621121 0.283303 0.603575
-0.280333 0.295076 -0.306361
-0.298854 -0.168157 -0.789136
-0.751725 -0.170205 0.637181
0.674669 -0.203612 0.178849
-0.756968 -0.599448 0.168545
0.165454 -0.608549 -0.745563
0.620793 0.284688 0.602778
0.674218 -0.200829 0.175794
-0.294146 0.299254 0.640421
0.627446 0.733702 0.158511
0.126193 0.297363 -0.745461
-0.298633 -0.169379 -0.785052
0.629204 0.736498 0.157866
0.164549 -0.607882 -0.748159
-0.308318 -0.618252 -0.287569
0.675078 -0.204208 0.177909
0.127272 0.298340 -0.745470
0.591879 -0.648614 -0.292957
0.624085 0.277864 -0.305682
0.628223 0.735214 0.159107
-0.757720 -0.598724 0.167907
0.619454 0.286360 0.601750
-0.293720 -0.630397 0.642297
-0.757140 -0.599980 0.168341
-0.293647 -0.631495 0.640906
0.159603 -0.645828 0.167584
-0.306529 -0.619259 -0.284587
-0.757166 -0.167805 -0.321364
0.160147 -0.644639 0.167961
0.178710 -0.170110 0.640324
0.675015 -0.205325 0.177792
-0.280434 0.299496 -0.306645
0.167638 0.751673 0.620319
0.629913 -0.175528 -0.739658
0.622552 0.279286 -0.309519
0.622381 0.284526 0.603108
-0.281132 0.297190 -0.306403
0.622323 0.278159 -0.308961
-0.292520 -0.633720 0.638124
0.591551 -0.648930 -0.291755
0.624302 0.277661 -0.309152
0.166668 -0.607738 -0.746994
0.201426 0.769745 -0.272144
0.675087 -0.201950 0.176460
0.200543 0.771539 -0.271460
0.165775 0.754114 0.621035
-0.298099 -0.168426 -0.787796
0.180437 -0.171355 0.641186
0.619512 0.282638 0.602207
0.623176 0.279473 -0.308431
-0.294284 0.299316 0.640851
0.179798 -0.173699 0.638339
