OFF
256 0 0
-0.470618 -0.243196 0.216511
0.027080 0.698626 0.693758
0.466714 -0.219697 0.246695
-0.020701 -0.702256 -0.714137
0.443413 0.243906 0.728653
0.028082 0.700002 0.691864
-0.020194 -0.702921 -0.714289
0.443323 0.245370 0.729153
-0.446052 0.208234 -0.223669
-0.471140 -0.243291 0.216011
0.444657 -0.678737 -0.250440
0.027510 0.699138 0.690715
-0.451716 0.222653 0.677846
-0.010788 0.247059 -0.734901
0.014109 -0.706859 0.214773
0.474268 -0.214786 -0.695882
-0.462191 -0.246181 -0.681229
-0.447095 -0.709005 -0.214675
-0.447525 -0.709086 -0.215866
0.437438 0.228782 -0.201476
-0.470443 -0.242880 0.215619
-0.020872 -0.701345 -0.714037
0.468450 -0.221879 0.245630
-0.453128 0.223566 0.676500
-0.017863 -0.217035 0.668629
-0.468878 -0.243441 0.217010
0.438413 0.227753 -0.201207
-0.004861 0.701273 -0.202998
0.444339 -0.681036 -0.249678
0.436939 0.227872 -0.201597
0.447501 -0.679490 -0.247174
-0.446987 -0.708562 -0.210511
-0.471953 0.686060 0.233785
-0.462927 -0.245158 -0.680622
-0.452762 0.224018 0.677950
-0.452595 0.224407 0.676881
0.026269 0.699482 0.693194
-0.020814 -0.699347 -0.714906
0.028572 0.699878 0.692014
-0.446720 -0.710070 -0.212523
-0.453345 0.225796 0.677400
-0.004199 0.701995 -0.203766
0.016126 -0.703380 0.214038
0.446490 -0.678538 -0.248101
0.492673 0.696996 0.233392
-0.461591 -0.245861 -0.680505
0.472255 -0.214646 -0.698753
-0.016835 -0.216512 0.671138
0.443089 0.244781 0.729076
-0.447235 -0.708034 -0.216030
0.014232 -0.702129 0.214401
-0.009737 0.245309 -0.732262
-0.450798 0.224275 0.679721
0.436552 0.227261 -0.200925
0.436327 0.227218 -0.203169
0.443839 0.244806 0.727391
0.443022 0.243536 0.728809
-0.012905 0.246655 -0.734193
0.435043 0.228783 -0.202738
0.471097 -0.215223 -0.696248
0.466996 -0.219559 0.244386
0.447448 -0.678204 -0.250491
0.443180 0.243504 0.729025
-0.467993 -0.242992 0.216957
-0.452733 0.223333 0.678180
-0.448684 -0.708793 -0.213112
-0.020884 -0.700355 -0.715080
0.437961 0.227140 -0.201385
0.028617 0.698649 0.692307
-0.463700 -0.246542 -0.679640
-0.020969 -0.700890 -0.712225
-0.016736 -0.218415 0.670950
-0.006114 0.700949 -0.203992
-0.010723 0.247367 -0.731212
-0.471098 0.686067 0.233407
0.016181 -0.704414 0.213549
-0.448330 0.208500 -0.223394
-0.445316 0.209425 -0.222752
-0.471058 -0.241806 0.214547
-0.446147 0.207366 -0.222367
-0.445071 -0.707797 -0.212872
-0.470883 0.687681 0.236262
-0.461869 -0.247565 -0.677780
-0.017135 -0.217838 0.670591
-0.017813 -0.215642 0.671208
-0.009481 0.249485 -0.731930
0.473786 -0.213548 -0.700371
0.490186 0.696027 0.233257
-0.464132 -0.246316 -0.679069
0.472847 -0.215388 -0.698989
-0.018092 -0.216917 0.669305
-0.472371 0.687197 0.234865
-0.006584 0.698451 -0.204621
0.026787 0.699776 0.692754
-0.006619 0.700446 -0.204347
-0.011031 0.248263 -0.730678
-0.445877 0.208633 -0.224718
0.443845 0.243800 0.727570
-0.471644 0.686749 0.234632
0.444956 0.245063 0.728590
0.437575 0.225369 -0.202150
0.471873 -0.212304 -0.696766
0.446871 -0.679177 -0.247380
-0.444881 0.207312 -0.224842
0.469303 -0.220345 0.243391
-0.447332 0.209813 -0.223492
-0.462686 -0.244113 -0.679077
0.445788 -0.680048 -0.248538
-0.021161 -0.700860 -0.714737
-0.469238 -0.242256 0.215268
0.473854 -0.213212 -0.697137
-0.463892 -0.246014 -0.678956
0.015467 -0.705739 0.215360
0.015342 -0.704420 0.214892
0.014565 -0.702817 0.212780
0.467948 -0.219238 0.244230
-0.461561 -0.246738 -0.678725
-0.010585 0.246808 -0.731950
-0.446534 -0.709626 -0.213726
0.444368 0.243672 0.728429
-0.010270 0.246876 -0.732010
-0.005132 0.699856 -0.204969
0.491742 0.696358 0.235067
-0.452118 0.223113 0.679136
-0.446732 0.208468 -0.223537
-0.447835 -0.710612 -0.213093
-0.461786 -0.245331 -0.679246
-0.006172 0.701447 -0.205777
-0.010613 0.246808 -0.731502
-0.452111 0.223282 0.678819
-0.469095 -0.244632 0.215834
-0.468462 -0.241853 0.214153
-0.470024 -0.243687 0.214922
-0.010536 0.248469 -0.731479
0.446662 -0.679511 -0.249478
-0.451780 0.223041 0.677675
0.030526 0.699196 0.691278
-0.469876 -0.242849 0.213842
-0.020156 -0.699968 -0.710570
0.491195 0.696202 0.236857
0.469050 -0.220358 0.242728
0.447733 -0.679049 -0.247161
0.472633 -0.212363 -0.695151
0.028721 0.700072 0.691263
-0.452106 0.225135 0.678071
-0.446568 -0.707628 -0.214213
-0.011850 0.244372 -0.731120
0.436226 0.226761 -0.202782
0.445938 -0.677903 -0.249056
0.437002 0.226769 -0.201365
-0.471180 0.687257 0.236967
0.447989 -0.679490 -0.248171
-0.468563 -0.244026 0.216018
0.467435 -0.221720 0.244237
-0.011277 0.247944 -0.733150
-0.447217 -0.709459 -0.211473
0.472765 -0.215697 -0.699107
0.443729 0.243186 0.729003
-0.447501 -0.708857 -0.214540
-0.453586 0.225299 0.677993
-0.017935 -0.217199 0.673209
-0.020461 -0.700564 -0.713095
0.014450 -0.704038 0.214208
-0.005191 0.698905 -0.204630
-0.461836 -0.247152 -0.681803
-0.448197 -0.709033 -0.212490
-0.470593 0.687524 0.235722
0.467851 -0.218821 0.243550
-0.021260 -0.701892 -0.713819
0.445703 -0.677684 -0.247061
-0.472749 0.687157 0.234269
-0.470142 0.685808 0.233240
0.490685 0.697236 0.233964
-0.469309 -0.243464 0.214390
0.443021 0.247123 0.728463
-0.462288 -0.246275 -0.678419
0.447321 -0.679769 -0.250341
0.444713 0.243399 0.728840
0.491842 0.696944 0.234617
0.027785 0.697058 0.693757
-0.017316 -0.216420 0.672001
0.029024 0.699581 0.693218
0.465997 -0.219722 0.244697
-0.017849 -0.219166 0.671310
-0.449766 -0.710871 -0.214089
0.447943 -0.676747 -0.249248
0.471785 -0.212307 -0.698113
0.490483 0.697174 0.235924
-0.003977 0.700564 -0.205564
-0.020920 -0.702047 -0.713065
-0.006380 0.699976 -0.205303
0.435871 0.225762 -0.202691
0.444189 0.244238 0.730058
-0.005368 0.699898 -0.204236
0.446931 -0.678045 -0.247045
-0.018399 -0.219821 0.670641
-0.446907 0.209893 -0.223342
0.467604 -0.220004 0.246863
-0.016917 -0.216939 0.670074
-0.462079 -0.247896 -0.678686
0.434833 0.229431 -0.202652
-0.011495 0.250386 -0.731279
0.436015 0.228089 -0.201620
-0.444204 0.210145 -0.222982
-0.469654 -0.243364 0.217541
0.015493 -0.703950 0.212825
0.490897 0.696975 0.235299
-0.007440 0.700852 -0.203479
0.029606 0.697373 0.692779
-0.444998 0.208559 -0.223891
-0.462364 -0.246135 -0.678412
-0.017018 -0.219032 0.670496
0.445949 -0.678748 -0.247861
0.446779 -0.678730 -0.250057
-0.011451 0.246471 -0.732795
0.437479 0.227534 -0.202219
-0.017923 -0.700431 -0.713783
0.016521 -0.704490 0.214400
0.472947 -0.213112 -0.698361
0.442697 0.243397 0.729387
0.444581 0.245026 0.730351
0.469328 -0.220507 0.245141
-0.020354 -0.701911 -0.711324
-0.019146 -0.215760 0.671654
0.472996 -0.212977 -0.697262
-0.462093 -0.245168 -0.680094
0.472124 -0.214554 -0.696940
0.016061 -0.703914 0.214323
0.436447 0.227456 -0.203363
0.468304 -0.220258 0.244624
0.444132 0.243829 0.728773
0.438057 0.228710 -0.201488
-0.470526 -0.243171 0.216259
0.443284 0.244343 0.728693
-0.452402 0.226503 0.678960
-0.004992 0.698959 -0.204383
-0.446949 -0.707290 -0.214062
0.015883 -0.704583 0.215301
-0.469992 -0.244423 0.214409
0.439187 0.229203 -0.201436
-0.453647 0.225048 0.678607
-0.463720 -0.247019 -0.680025
0.028256 0.699346 0.691417
-0.011548 0.247289 -0.732793
0.030091 0.699433 0.690970
0.436238 0.227989 -0.201944
-0.017891 -0.217738 0.671008
-0.445335 0.208629 -0.222505
0.436257 0.226972 -0.201867
-0.471127 0.686595 0.235140
-0.015928 -0.216400 0.671253
-0.453005 0.223866 0.677844
0.028418 0.699699 0.691771
0.448089 -0.678820 -0.249516
0.017356 -0.703234 0.211668
-0.470895 0.684039 0.234332
