OFF
256 0 0
0.688418 0.724463 0.013776
-0.690218 -0.666966 -0.020021
-0.670423 0.681173 -0.021259
-0.671777 0.681473 -0.022382
-0.648047 0.013964 -0.669630
0.680260 -0.704439 0.008726
-0.691643 -0.666753 -0.022024
0.653677 0.004904 0.672857
-0.691769 -0.668199 -0.019134
-0.035058 0.649626 0.642783
0.655628 -0.003194 -0.602077
-0.648251 0.014921 -0.670693
0.650560 0.005364 0.674042
0.651509 0.004564 0.675553
-0.646907 0.014631 -0.670332
-0.036036 0.648180 0.642455
-0.033020 0.651039 0.643039
-0.646684 0.014223 -0.670851
0.689714 0.726907 0.014959
0.687463 0.725999 0.015692
-0.691357 -0.668128 -0.021509
0.037471 -0.671350 0.634743
0.654616 -0.003413 -0.602291
-0.021385 -0.698189 -0.684452
-0.669288 0.680902 -0.020808
0.679531 -0.703421 0.007876
0.679368 -0.705407 0.008087
-0.672584 0.681498 -0.022749
-0.645717 0.014191 -0.670315
-0.034415 0.650856 0.643298
-0.669721 -0.014369 0.684561
0.688945 0.724513 0.012050
-0.648079 0.014233 -0.670610
-0.035879 0.647126 0.642156
-0.648488 0.014181 -0.668858
0.020550 0.686200 -0.660799
0.019605 0.685563 -0.660727
-0.671549 0.681419 -0.020738
0.651085 0.004026 0.674050
-0.034925 0.651081 0.642227
-0.649096 0.014154 -0.669671
-0.671969 0.680930 -0.021806
-0.668110 -0.016590 0.684860
-0.671882 0.681345 -0.023122
0.655704 -0.001273 -0.601912
-0.033818 0.649594 0.643069
0.652233 0.004297 0.673571
-0.689394 -0.666063 -0.020264
-0.667869 -0.015862 0.685694
-0.691337 -0.666548 -0.019722
0.656043 -0.001217 -0.602780
0.023081 0.685308 -0.660977
-0.668622 -0.015978 0.686223
-0.671532 0.681067 -0.023995
-0.668415 -0.015668 0.685226
-0.690186 -0.667406 -0.021285
-0.690330 -0.664321 -0.021201
0.037315 -0.670423 0.635730
-0.671711 0.680726 -0.020230
-0.689885 -0.668121 -0.022295
-0.034814 0.648417 0.643218
-0.670784 0.680315 -0.019813
0.652050 0.002727 0.673224
0.656057 -0.002213 -0.599954
0.687939 0.726253 0.013952
0.039222 -0.668907 0.634062
-0.646815 0.014398 -0.669907
-0.668357 -0.014795 0.686553
0.651241 0.003359 0.673918
0.651297 0.004563 0.673202
-0.034903 0.650196 0.642626
0.022256 0.686633 -0.659510
0.020313 0.689470 -0.660886
0.021698 0.684547 -0.658857
0.038023 -0.670792 0.633117
-0.034152 0.651315 0.643471
0.654973 -0.004044 -0.601349
0.020941 0.684813 -0.660990
-0.034359 0.650443 0.642752
0.687920 0.726933 0.014754
0.649901 0.005189 0.674795
0.037523 -0.672485 0.634825
-0.691405 -0.664591 -0.022016
0.651025 0.003633 0.674050
-0.669456 -0.015366 0.684062
0.687906 0.726361 0.014769
0.687576 0.724863 0.013207
0.021097 0.684755 -0.659910
0.651778 0.002896 0.674977
0.654685 -0.001881 -0.601592
-0.649000 0.014613 -0.670407
-0.035489 0.649540 0.643549
-0.668316 -0.014601 0.684917
-0.672303 0.680977 -0.020804
0.678413 -0.704874 0.008364
0.650731 0.003530 0.674029
0.650835 0.003230 0.675678
0.679886 -0.703852 0.006714
-0.033165 0.650674 0.643743
0.650896 0.002607 0.673702
-0.646662 0.013953 -0.670809
-0.669877 -0.016459 0.684670
-0.667602 -0.016103 0.685320
-0.035273 0.651328 0.643931
-0.647371 0.015135 -0.668887
-0.646293 0.011649 -0.670580
-0.690642 -0.666655 -0.020001
0.021838 0.686323 -0.660150
-0.691806 -0.666033 -0.020660
0.019726 0.685400 -0.661642
-0.673606 0.680982 -0.019694
-0.668691 -0.014185 0.684802
0.655432 -0.002170 -0.602427
-0.019845 -0.699379 -0.686259
-0.021373 -0.698883 -0.684443
-0.667834 -0.016681 0.684528
-0.020737 -0.701333 -0.685536
-0.036278 0.649575 0.643769
-0.691846 -0.666051 -0.021189
-0.668637 -0.016068 0.684215
-0.021473 -0.698972 -0.685748
0.680437 -0.703112 0.008358
0.689065 0.725010 0.014871
0.687181 0.726095 0.015104
-0.670976 0.681374 -0.022761
0.681683 -0.702952 0.007692
0.038136 -0.672413 0.633986
-0.647273 0.015231 -0.669841
0.656248 -0.003964 -0.602754
0.688692 0.726470 0.013593
0.022697 0.685696 -0.659199
-0.021127 -0.700131 -0.684017
-0.667863 -0.015733 0.685609
0.651546 0.002470 0.673962
-0.670560 0.679519 -0.023002
0.650942 0.006201 0.672807
0.681673 -0.704766 0.007779
-0.688558 -0.665616 -0.020632
0.681547 -0.705016 0.007316
0.038197 -0.670185 0.632078
-0.035435 0.650079 0.642220
0.038361 -0.670924 0.633833
-0.020403 -0.699604 -0.684742
-0.668291 -0.015190 0.686133
-0.689944 -0.667928 -0.021779
-0.671537 0.681336 -0.021358
-0.690748 -0.664957 -0.019119
-0.648765 0.016686 -0.671086
-0.671254 0.680115 -0.020869
-0.646839 0.013910 -0.671261
-0.034466 0.650499 0.644306
-0.032530 0.649566 0.644844
-0.646872 0.016489 -0.670459
0.650835 0.003806 0.673536
-0.667285 -0.015001 0.684069
0.687274 0.726066 0.014275
0.688955 0.727020 0.015378
0.679124 -0.704738 0.004974
-0.673612 0.680456 -0.020725
-0.671684 0.680426 -0.021954
0.650168 0.003697 0.674634
-0.671025 0.682660 -0.021845
-0.689012 -0.668095 -0.020674
0.655919 -0.000944 -0.600962
-0.667477 -0.015699 0.687172
-0.668260 -0.015320 0.684254
0.021538 0.687608 -0.660741
0.022293 0.685786 -0.660985
-0.689586 -0.664340 -0.021052
-0.671950 0.679306 -0.020568
-0.645552 0.012901 -0.670319
-0.020833 -0.699164 -0.683386
0.687232 0.723643 0.015694
0.650134 0.002818 0.672070
-0.645877 0.015298 -0.671057
0.038835 -0.672856 0.636014
0.652998 0.002981 0.674248
-0.646972 0.014413 -0.669152
0.654664 -0.004287 -0.600029
-0.022053 -0.698989 -0.685089
-0.020596 -0.699433 -0.684778
-0.669654 -0.017315 0.685578
-0.690917 -0.666318 -0.019625
-0.667304 -0.014056 0.685820
-0.020420 -0.699672 -0.684433
-0.035303 0.651613 0.643775
-0.671365 0.682234 -0.022131
-0.670551 0.680641 -0.022596
-0.689812 -0.666716 -0.020328
-0.032635 0.649302 0.643075
0.022432 0.685086 -0.660894
-0.690573 -0.667540 -0.020292
0.652362 0.003353 0.674359
-0.648165 0.014583 -0.670346
-0.691780 -0.665908 -0.019857
-0.689579 -0.666637 -0.020318
-0.669019 -0.016169 0.687292
0.687167 0.726528 0.015242
0.656962 -0.002883 -0.602648
-0.668858 -0.016098 0.685284
0.035998 -0.671130 0.634223
-0.691631 -0.667346 -0.019838
0.020275 0.683796 -0.660154
-0.689291 -0.668434 -0.021287
-0.666725 -0.015431 0.685936
-0.021075 -0.698041 -0.684827
0.036269 -0.672266 0.634492
0.018800 0.687192 -0.660954
0.020819 0.686172 -0.659735
-0.669412 -0.016120 0.683869
-0.035335 0.650355 0.644773
0.678323 -0.704843 0.008128
0.680776 -0.704256 0.007717
0.038821 -0.672740 0.635147
-0.668234 -0.016419 0.684066
-0.646783 0.015617 -0.671671
0.037489 -0.669873 0.635297
-0.647414 0.015699 -0.670915
-0.035495 0.648339 0.641943
-0.646417 0.013218 -0.670021
-0.671829 0.680759 -0.020745
0.020403 0.685208 -0.659501
-0.669683 -0.016091 0.685366
0.688036 0.724757 0.014993
0.038412 -0.671792 0.634782
-0.033688 0.650130 0.642854
-0.670623 0.680186 -0.023299
0.686420 0.724268 0.014216
0.680351 -0.703950 0.009788
-0.019526 -0.698549 -0.683956
-0.668422 -0.015789 0.686687
0.680499 -0.705160 0.009531
0.650831 0.005943 0.673562
-0.671941 0.681566 -0.021490
0.020019 0.686258 -0.661303
-0.035120 0.650383 0.643977
-0.691317 -0.666544 -0.020343
0.688502 0.725266 0.015779
-0.646715 0.014499 -0.671184
0.020319 0.684501 -0.660798
-0.669331 -0.014580 0.685204
0.681048 -0.703320 0.007291
-0.667525 -0.014982 0.685133
-0.669164 -0.015271 0.684986
-0.035623 0.649653 0.643912
0.038520 -0.672477 0.633869
-0.034588 0.649664 0.642539
-0.670321 0.680366 -0.021752
0.652085 0.002495 0.674587
0.688527 0.724931 0.016196
0.679778 -0.704378 0.009029
0.021341 0.686580 -0.658650
-0.018785 -0.700874 -0.683977
0.021446 0.684590 -0.662338
0.680124 -0.707139 0.009112
0.655468 -0.002345 -0.602119
