OFF
256 0 0
-0.632204 0.135739 -0.171631
-0.167762 0.592995 -0.164376
-0.646325 -0.724487 -0.179093
-0.615195 -0.292091 0.297562
-0.595713 0.623467 0.311377
-0.169567 0.590273 -0.163705
0.264404 -0.276008 0.297200
0.740500 0.626076 -0.174777
0.762857 0.175054 -0.603080
-0.169065 0.590723 -0.163240
-0.616774 -0.280588 -0.635189
0.748194 0.173812 0.285005
-0.616694 -0.278924 -0.635455
-0.614689 -0.292411 0.299566
0.747569 0.173786 0.286307
-0.155365 0.156873 -0.645243
0.267258 -0.721768 -0.194377
-0.616812 -0.280248 -0.634284
-0.632506 0.134277 -0.171311
-0.155946 0.158183 -0.646240
-0.617076 -0.279512 -0.634725
0.766567 -0.301942 -0.141730
0.747158 0.175150 0.284791
0.266738 -0.721659 -0.194525
0.300580 0.176232 0.749728
0.269817 -0.720736 -0.193666
0.262640 -0.276853 0.296863
-0.172087 0.590456 -0.164585
0.271728 0.606599 0.281916
0.270049 0.605969 0.283573
0.300431 0.172391 0.749156
-0.647209 -0.723092 -0.179689
0.740016 0.625907 -0.174058
0.768984 -0.302557 -0.142012
0.273370 0.618434 -0.585666
0.301643 0.172024 0.750130
0.275297 0.616659 -0.585277
0.762486 0.175236 -0.602117
0.766698 -0.302324 -0.139856
-0.147725 0.589591 0.741627
-0.156136 0.156591 -0.645654
-0.598264 0.622665 0.311515
-0.616971 -0.291532 0.297108
0.268057 -0.721501 -0.192924
0.267968 0.605023 0.280931
0.274994 0.618963 -0.586550
0.302330 0.174886 0.749519
0.762640 0.175664 -0.601320
0.740576 0.622833 -0.173699
0.298784 -0.266954 -0.620359
-0.172442 -0.745461 -0.643277
0.263949 -0.277979 0.296943
0.302223 0.174889 0.750918
-0.597482 0.623526 0.311139
0.263829 -0.277953 0.297707
-0.154068 0.158018 -0.643780
-0.155296 0.155574 -0.644028
0.300627 0.173616 0.749324
-0.152259 -0.268315 0.737552
0.299585 0.175215 0.747417
-0.169954 -0.738670 0.290168
-0.646677 -0.723254 -0.180311
-0.153411 -0.268350 0.738833
-0.617311 -0.279002 -0.633850
0.297971 -0.265704 -0.621367
0.761929 0.174264 -0.601624
-0.155107 -0.266567 0.739035
-0.619990 0.147468 0.757225
0.298825 -0.264763 -0.620826
0.268060 -0.721603 -0.191879
-0.173019 -0.746503 -0.643248
-0.615757 -0.279332 -0.637077
-0.154842 0.156593 -0.645429
0.767065 -0.302003 -0.139250
0.741587 0.625710 -0.172847
-0.169370 -0.739996 0.292513
-0.154721 0.155687 -0.645476
0.301446 0.173180 0.750865
0.763135 0.174586 -0.602555
-0.620742 0.148395 0.756011
0.300460 0.173589 0.748914
-0.168972 -0.739948 0.291880
-0.170422 0.591087 -0.164274
0.274245 0.621249 -0.586937
0.301211 0.174283 0.748770
-0.634036 0.134799 -0.169331
-0.153656 -0.266249 0.739406
-0.154461 0.155656 -0.645997
0.300972 0.173935 0.751701
-0.633281 0.135953 -0.170724
0.742534 0.623590 -0.174156
0.766409 -0.303993 -0.141488
-0.597104 0.622346 0.311028
0.268620 -0.718803 -0.194534
-0.619521 0.144885 0.758565
0.762934 0.175443 -0.600599
-0.157514 0.156442 -0.645421
0.766336 -0.305544 -0.140091
0.266874 -0.722700 -0.194904
0.762038 0.174410 -0.599817
-0.595928 0.623543 0.312151
-0.596398 0.623354 0.310010
-0.618832 0.147417 0.754855
0.739745 0.624694 -0.174541
-0.615939 -0.289607 0.298253
0.302197 0.175078 0.750534
-0.614406 -0.292971 0.297986
-0.646253 -0.725526 -0.180584
0.301432 0.175009 0.749763
-0.597655 0.622860 0.311752
0.299211 -0.266823 -0.620058
-0.615598 -0.281227 -0.635458
-0.596673 0.625000 0.311009
-0.596301 0.623023 0.310579
0.766562 -0.302024 -0.138253
0.766926 -0.302559 -0.140303
0.766674 -0.303172 -0.140706
0.764412 0.175745 -0.600845
-0.172227 -0.745965 -0.642733
0.299174 -0.264439 -0.620962
-0.155075 0.156099 -0.646469
-0.615650 -0.279895 -0.634341
0.299149 -0.266335 -0.619870
0.300789 0.174870 0.748523
0.747269 0.174254 0.287239
0.269341 0.604673 0.283359
0.747830 0.174677 0.285312
-0.615532 -0.290857 0.298291
0.739253 0.624276 -0.173804
0.762234 0.176654 -0.602002
-0.646840 -0.725511 -0.179656
-0.146368 0.590091 0.741256
0.269947 0.605188 0.281998
0.263401 -0.276401 0.296854
-0.616714 -0.280448 -0.633299
0.301543 0.175191 0.749546
0.297467 -0.264613 -0.620716
-0.170589 0.590353 -0.162980
-0.154464 -0.266533 0.739339
0.262349 -0.274380 0.296896
-0.597318 0.622235 0.311033
-0.151750 -0.265696 0.739175
-0.633732 0.134624 -0.169063
0.748214 0.173389 0.284737
-0.619646 0.147571 0.756420
0.747864 0.173172 0.285511
-0.632793 0.135653 -0.169950
-0.146240 0.587972 0.744427
0.275996 0.619777 -0.586389
-0.614154 -0.292488 0.297346
-0.616433 -0.282135 -0.633528
-0.171793 -0.746315 -0.643722
-0.598704 0.623030 0.310853
0.741502 0.626323 -0.172051
-0.171838 -0.744701 -0.641134
0.762185 0.176564 -0.601246
-0.147060 0.588689 0.743762
0.740342 0.624711 -0.173807
0.742851 0.623310 -0.172299
-0.147398 0.589356 0.742997
0.269653 0.607837 0.281355
0.274330 0.618216 -0.586193
0.299620 -0.264970 -0.620480
-0.613733 -0.292078 0.299703
-0.615449 -0.280383 -0.634985
-0.597473 0.622952 0.309977
0.761465 0.174166 -0.603661
-0.170780 -0.740084 0.291880
-0.616665 -0.278269 -0.634980
-0.597833 0.621221 0.310952
-0.614907 -0.279257 -0.635422
-0.156312 0.157305 -0.645858
0.761975 0.174568 -0.601770
0.767432 -0.301167 -0.139851
-0.154759 -0.267140 0.740006
-0.157779 0.157816 -0.646680
-0.597158 0.624624 0.312431
-0.168581 -0.739443 0.291226
0.273534 0.619496 -0.588477
-0.168571 -0.741457 0.291039
-0.597495 0.624047 0.309441
-0.168496 -0.740074 0.292365
-0.153881 -0.269248 0.738311
-0.632479 0.135898 -0.167796
-0.646484 -0.723883 -0.179545
-0.152939 -0.268003 0.737806
-0.171691 -0.748918 -0.643639
-0.146905 0.586976 0.742229
-0.597248 0.622140 0.310481
-0.167357 0.591258 -0.164164
-0.171395 0.589665 -0.164316
-0.167972 -0.738924 0.292071
-0.153025 -0.267967 0.738413
-0.152186 -0.266971 0.738077
0.268002 -0.721599 -0.193863
0.264804 -0.274871 0.297703
-0.152870 -0.266388 0.737279
-0.171980 -0.746513 -0.641261
0.748250 0.174008 0.284045
-0.618278 0.146254 0.756976
0.741853 0.624382 -0.172979
0.270406 0.607556 0.282932
0.268128 -0.720106 -0.192239
0.275748 0.619175 -0.586007
0.765484 -0.302151 -0.140602
-0.154675 -0.268745 0.740185
-0.620299 0.146955 0.756509
-0.152340 -0.268082 0.739288
-0.167583 0.589226 -0.163127
0.274366 0.619397 -0.586098
0.298455 -0.265344 -0.621933
-0.169790 -0.739862 0.292372
0.764519 0.177113 -0.601716
-0.620586 0.146052 0.754705
-0.615330 -0.279330 -0.634039
-0.633239 0.134732 -0.168399
-0.613507 -0.289635 0.299553
-0.597889 0.623786 0.311836
0.297819 -0.265980 -0.621524
0.766942 -0.304076 -0.140408
-0.148445 0.590204 0.743292
-0.169324 -0.739130 0.291963
0.271196 0.604311 0.284526
-0.646407 -0.725753 -0.179076
-0.148002 0.589423 0.742651
0.762953 0.174625 -0.603767
0.748976 0.173592 0.284188
-0.616822 -0.280828 -0.635761
0.263752 -0.275715 0.295994
0.270123 0.605501 0.283672
-0.648116 -0.724588 -0.179838
-0.170504 0.591822 -0.164204
0.274225 0.619659 -0.586469
-0.616093 -0.292212 0.299563
0.739090 0.623994 -0.172368
-0.152161 -0.268639 0.739372
-0.633602 0.133694 -0.169709
-0.147196 0.587829 0.742012
-0.153666 -0.267646 0.738220
0.742216 0.624068 -0.174121
-0.645586 -0.723649 -0.180218
-0.145750 0.589434 0.742913
0.301686 0.173122 0.750958
0.762347 0.175790 -0.600927
0.270801 0.606336 0.282297
-0.647422 -0.725197 -0.180698
0.741308 0.625383 -0.173395
-0.171691 -0.745673 -0.642223
-0.153614 -0.268471 0.738937
0.267579 -0.719686 -0.193085
-0.152400 -0.266105 0.738551
-0.154163 -0.267392 0.738875
-0.597615 0.622906 0.311220
-0.173092 -0.747403 -0.641557
0.767933 -0.303239 -0.141531
0.269318 0.607129 0.283654
