OFF
256 0 0
-0.606886 0.304511 0.287708
0.697032 -0.146713 0.274773
-0.181384 0.312566 0.756248
0.284170 0.756354 -0.184599
0.283890 0.755706 -0.186810
0.761960 0.304210 -0.153511
-0.620621 -0.656535 0.277244
-0.635940 -0.184047 0.747542
0.779714 -0.155824 -0.607583
0.293789 -0.635948 -0.615870
-0.621710 -0.657121 0.278540
-0.134438 -0.171759 -0.596804
-0.133563 -0.170377 -0.598773
0.283571 0.755498 -0.184242
0.697937 -0.148403 0.272268
0.760828 -0.623631 -0.165113
0.254846 0.301512 0.284623
0.261974 -0.614991 0.293855
0.276596 -0.152820 0.764076
-0.162503 0.730708 -0.623650
0.303411 0.288524 -0.633013
0.759208 -0.622794 -0.165741
0.294709 -0.637327 -0.615070
-0.173262 -0.659732 -0.185401
-0.179049 0.314493 0.756789
-0.176829 -0.659461 -0.185236
0.304349 0.288339 -0.635507
-0.161954 0.767320 0.295462
-0.174878 -0.660657 -0.185389
0.779526 -0.154768 -0.607829
-0.615988 -0.183044 -0.161977
0.260757 -0.616022 0.293725
0.256220 0.302008 0.286495
-0.160815 0.733028 -0.621004
-0.161838 0.767292 0.295625
-0.596363 0.281860 -0.633057
-0.200931 -0.622604 0.734539
-0.590463 0.761868 -0.155396
-0.159370 0.732025 -0.623320
0.254942 0.302213 0.286796
0.759584 0.305300 -0.152362
-0.592177 0.760642 -0.157032
-0.160651 0.731877 -0.623784
0.780063 -0.155376 -0.607781
-0.606826 0.303927 0.285973
-0.159854 0.730317 -0.621790
-0.635328 -0.183727 0.747054
-0.133893 -0.167893 -0.599818
0.696664 -0.146419 0.275163
0.777912 -0.154406 -0.607688
-0.160896 0.732920 -0.623010
-0.594942 0.282971 -0.633040
0.293168 -0.636522 -0.616707
0.696785 -0.145062 0.275463
-0.607888 0.305217 0.287308
-0.179481 0.311356 0.757593
0.698224 -0.148951 0.273440
0.698878 -0.145707 0.272298
0.284202 0.755763 -0.186064
-0.615906 -0.183824 -0.159901
-0.614691 -0.181913 -0.160347
0.697632 -0.147870 0.273910
0.284124 0.755370 -0.184049
-0.159521 0.765871 0.295847
-0.636021 -0.184780 0.749574
-0.606033 0.303882 0.288690
0.698591 -0.146730 0.273902
-0.607282 0.303199 0.287714
-0.159747 0.765866 0.296067
0.255665 0.303259 0.285521
0.303774 0.290585 -0.635213
0.277440 -0.153539 0.762236
-0.159479 0.731942 -0.621705
0.304229 0.289878 -0.634175
0.761588 0.301932 -0.154207
-0.636492 -0.184548 0.749105
0.759579 0.303654 -0.152964
-0.622571 -0.656514 0.279769
0.760263 -0.622601 -0.163290
-0.589878 0.763181 -0.155679
-0.621853 -0.657824 0.275444
-0.160381 0.767371 0.295954
0.696038 -0.147104 0.273158
-0.618873 -0.655420 0.278462
0.762247 0.302388 -0.150668
-0.159253 0.732555 -0.623241
-0.594398 0.281020 -0.634293
0.262374 -0.618171 0.294917
-0.160532 0.732359 -0.620288
0.277142 -0.152700 0.762385
-0.619530 -0.656545 0.278307
-0.622321 -0.655741 0.280110
-0.605749 0.304353 0.290687
-0.636697 -0.184760 0.749073
0.761985 0.301663 -0.152916
0.304884 0.289924 -0.632720
-0.198823 -0.622866 0.734750
-0.589060 0.762107 -0.155363
-0.636352 -0.183625 0.748527
-0.174024 -0.661760 -0.184262
-0.594644 0.281716 -0.632644
0.778741 -0.155626 -0.608522
-0.606613 0.304405 0.287253
0.261168 -0.615884 0.295327
0.699489 -0.146547 0.274086
0.698588 -0.145657 0.272668
0.283062 0.755850 -0.184425
-0.588289 0.761472 -0.157415
-0.595896 0.279852 -0.634911
0.699755 -0.145841 0.272234
-0.591893 0.760400 -0.157103
-0.179660 0.313994 0.756618
0.254251 0.301265 0.285490
0.762110 0.302668 -0.152492
0.276462 -0.154624 0.760315
-0.607481 0.303072 0.285960
0.253869 0.302281 0.283674
0.278010 -0.153213 0.761160
-0.588427 0.762497 -0.157466
0.294459 -0.636553 -0.617361
0.303128 0.291091 -0.634041
-0.161280 0.734431 -0.622266
0.761920 0.301477 -0.153931
0.294490 -0.637096 -0.616461
0.261673 -0.618524 0.295633
0.698157 -0.146527 0.273161
0.293594 -0.636628 -0.616302
0.760201 -0.622935 -0.164883
-0.637202 -0.185033 0.748883
-0.591070 0.762068 -0.156819
-0.614477 -0.181757 -0.161778
-0.174200 -0.659618 -0.182803
-0.135135 -0.169816 -0.598360
-0.605925 0.304564 0.288275
-0.637731 -0.183603 0.749517
-0.158922 0.765995 0.296538
-0.593496 0.281451 -0.634684
-0.635952 -0.184782 0.747510
0.698212 -0.147830 0.274165
-0.614317 -0.184564 -0.159602
-0.162986 0.731340 -0.623344
0.295788 -0.636220 -0.615089
-0.620217 -0.654965 0.280295
0.762783 0.304593 -0.152921
-0.182512 0.313098 0.758007
-0.620803 -0.655678 0.278525
-0.608002 0.303995 0.288097
-0.593643 0.278517 -0.634543
-0.199570 -0.620483 0.736821
0.284236 0.755969 -0.183931
-0.607212 0.303546 0.287922
0.697725 -0.145052 0.273311
0.305051 0.288231 -0.634729
0.277564 -0.155065 0.760145
0.259988 -0.616225 0.293226
0.274812 -0.155870 0.759495
0.262504 -0.615254 0.293743
-0.620756 -0.655979 0.278343
0.779920 -0.155300 -0.608272
0.304864 0.289751 -0.634957
-0.607636 0.304341 0.286533
-0.135233 -0.170373 -0.600663
-0.160604 0.765720 0.294140
-0.199573 -0.622657 0.735791
0.253981 0.301301 0.283804
-0.160603 0.731232 -0.622987
0.254834 0.303735 0.282416
-0.181330 0.312980 0.757139
-0.619282 -0.656900 0.279591
-0.594236 0.280604 -0.631826
-0.615570 -0.182697 -0.159190
-0.200256 -0.621555 0.736477
-0.590668 0.762425 -0.158071
-0.607445 0.305448 0.286406
0.294675 -0.634926 -0.617490
-0.637263 -0.184965 0.747783
-0.634437 -0.185355 0.747627
0.760917 0.303498 -0.153487
-0.607802 0.303237 0.287620
-0.589982 0.761227 -0.157325
-0.180323 0.312404 0.755506
-0.133807 -0.170318 -0.597732
0.262471 -0.615931 0.293427
-0.609259 0.305635 0.286767
0.283204 0.756063 -0.183740
-0.198936 -0.622119 0.735118
-0.198519 -0.621687 0.735537
-0.591352 0.761254 -0.157264
0.292407 -0.635735 -0.615542
-0.591320 0.763349 -0.157057
0.260136 -0.616412 0.296356
-0.613207 -0.185094 -0.161101
-0.620470 -0.655489 0.278982
0.698735 -0.146589 0.272550
-0.135263 -0.169297 -0.598546
0.759653 -0.623288 -0.165359
-0.607097 0.303707 0.288619
-0.613852 -0.183115 -0.160327
-0.595945 0.281059 -0.633789
-0.620348 -0.656789 0.277601
0.277634 -0.156590 0.760898
-0.607526 0.304628 0.285751
0.284513 0.754908 -0.184670
-0.179103 0.314300 0.755660
0.253776 0.303477 0.283659
-0.175067 -0.658890 -0.184071
-0.180164 0.315055 0.758432
-0.199593 -0.621282 0.737694
-0.179343 0.311242 0.757083
-0.200158 -0.621194 0.736545
0.277046 -0.154854 0.761434
0.762533 0.301674 -0.152596
0.255649 0.302273 0.283409
-0.593758 0.280139 -0.632657
0.762480 0.303631 -0.152993
-0.160852 0.765382 0.295422
-0.620776 -0.656054 0.280281
0.294661 -0.636880 -0.615767
0.276589 -0.152656 0.762928
0.761565 0.303377 -0.151500
-0.160651 0.730712 -0.621876
0.294806 -0.637851 -0.617829
-0.594890 0.280906 -0.631318
-0.637304 -0.184933 0.748011
-0.135048 -0.170558 -0.598756
0.760770 0.303116 -0.151987
-0.595078 0.282796 -0.634401
0.283302 0.757033 -0.184298
-0.180707 0.313327 0.756201
0.698240 -0.148976 0.273177
-0.197749 -0.622462 0.734644
0.293719 -0.636565 -0.615161
0.779731 -0.155167 -0.606892
0.254859 0.301909 0.282587
-0.620271 -0.657496 0.277456
0.698402 -0.147416 0.273705
-0.159820 0.765257 0.295051
-0.593525 0.281395 -0.634042
0.285259 0.755281 -0.184378
0.293525 -0.636384 -0.617804
-0.179363 0.313561 0.757222
0.303498 0.289937 -0.633389
0.305824 0.288966 -0.634925
-0.594748 0.281851 -0.633085
-0.133486 -0.171039 -0.597653
-0.594946 0.282943 -0.634886
-0.160034 0.733458 -0.621058
-0.606770 0.302065 0.289073
-0.590177 0.761882 -0.156716
0.253543 0.302048 0.285116
-0.590202 0.763085 -0.156957
-0.200357 -0.622309 0.736865
-0.594682 0.283357 -0.633927
-0.175534 -0.660324 -0.185429
-0.594096 0.281000 -0.632343
-0.620778 -0.656747 0.279872
