OFF
256 0 0
-0.677203 0.628373 -0.012490
-0.017308 -0.648893 0.660229
-0.017787 -0.648934 0.659814
-0.676063 0.628775 -0.013206
-0.677380 0.000738 0.687415
-0.717407 -0.026726 -0.678286
0.702342 -0.637873 0.035346
-0.674564 0.002472 0.687213
0.024475 0.671116 0.690024
0.701336 0.028562 0.681449
-0.015613 -0.648306 0.658094
-0.017440 -0.648438 0.659826
-0.023474 0.639642 -0.669910
0.701898 -0.637296 0.035942
-0.676565 0.002202 0.688877
0.023448 0.668411 0.689855
0.692150 0.678626 -0.029679
-0.017499 -0.648104 0.660589
0.007347 -0.627388 -0.666470
-0.676366 0.000813 0.687832
-0.717966 -0.026015 -0.677321
0.691490 0.679305 -0.030972
0.007024 -0.626141 -0.666883
-0.677222 0.628505 -0.012444
0.692607 0.678812 -0.031280
0.702237 -0.637959 0.037439
0.691031 0.679591 -0.028186
-0.016932 -0.645732 0.658949
0.701105 -0.637637 0.034478
-0.015858 -0.649934 0.658400
-0.708628 -0.704653 -0.026235
-0.677217 0.000985 0.687581
-0.677117 0.001027 0.688336
-0.676612 0.627550 -0.012464
-0.709776 -0.704831 -0.024554
-0.016337 -0.647584 0.658967
0.009371 -0.627796 -0.665775
0.691355 -0.003460 -0.673162
-0.715105 -0.026677 -0.676907
-0.708574 -0.704952 -0.026115
0.692621 0.677898 -0.031075
-0.020752 0.638154 -0.668831
-0.675306 0.002537 0.688051
-0.708774 -0.704992 -0.026447
-0.707306 -0.704153 -0.024820
0.691870 -0.003786 -0.673033
-0.718376 -0.026887 -0.679889
0.691132 -0.002141 -0.671640
-0.017942 -0.649135 0.660073
0.691065 -0.003016 -0.671842
-0.676832 0.627622 -0.013390
0.691024 0.679311 -0.031899
0.008708 -0.625528 -0.666857
0.009552 -0.628682 -0.663128
-0.677380 0.627470 -0.012439
-0.709200 -0.704458 -0.025688
0.691262 -0.002103 -0.671429
0.025230 0.670087 0.690506
-0.676481 -0.000084 0.688169
0.024290 0.670450 0.690089
-0.715560 -0.026794 -0.679729
0.700456 -0.635249 0.035093
-0.718038 -0.027063 -0.677334
0.702506 -0.636301 0.034608
0.024395 0.670429 0.688814
-0.017546 -0.648211 0.658633
-0.717217 -0.025946 -0.675891
0.692014 0.678753 -0.028656
-0.707323 -0.704140 -0.024422
-0.678158 0.628823 -0.013291
0.700796 -0.636965 0.035227
-0.709166 -0.704014 -0.026868
-0.677562 0.000691 0.687442
-0.022853 0.640726 -0.667835
-0.708607 -0.705099 -0.024784
0.022688 0.668159 0.689843
-0.718033 -0.027893 -0.677091
-0.707904 -0.703634 -0.025102
0.026176 0.669450 0.687949
0.691633 -0.004864 -0.672720
-0.708378 -0.702809 -0.024103
-0.021937 0.642493 -0.667022
0.007441 -0.629126 -0.666185
0.693383 -0.003556 -0.674051
0.006854 -0.627852 -0.665111
0.007803 -0.626830 -0.665140
-0.710001 -0.704007 -0.027573
-0.716208 -0.026581 -0.677526
-0.023065 0.640898 -0.669291
-0.022850 0.640065 -0.668013
-0.677548 0.001968 0.688213
-0.677248 0.629353 -0.011631
0.693603 0.680250 -0.029174
0.691063 0.679682 -0.029657
0.694061 0.681207 -0.030809
0.693065 0.678707 -0.032899
-0.023759 0.642626 -0.667571
-0.675704 0.001561 0.689051
0.692124 -0.003925 -0.672561
-0.016578 -0.650380 0.658872
-0.017071 -0.646636 0.658808
-0.016574 -0.649612 0.657211
-0.707614 -0.702983 -0.025692
0.700242 -0.637104 0.036707
0.690547 -0.003910 -0.671978
0.700690 -0.637607 0.035704
0.692334 0.680194 -0.031306
-0.677995 0.628564 -0.012712
-0.016770 -0.648855 0.659067
0.692559 -0.003647 -0.672773
0.023138 0.669997 0.689290
0.694563 -0.003389 -0.671413
-0.715673 -0.025918 -0.676771
-0.676389 0.630027 -0.011180
-0.716381 -0.026203 -0.677250
0.022801 0.671305 0.688991
0.701558 -0.635697 0.034477
-0.708811 -0.704146 -0.027199
0.023794 0.669180 0.689430
0.699820 -0.637627 0.033981
-0.677415 0.628613 -0.011674
-0.018434 -0.648633 0.659206
-0.675812 0.628552 -0.012930
0.693271 -0.000687 -0.672653
-0.717483 -0.026645 -0.677345
-0.707129 -0.705481 -0.026679
-0.015812 -0.648895 0.658331
0.701761 -0.635577 0.034736
0.693800 0.679989 -0.032330
-0.022211 0.639464 -0.668322
0.024640 0.670616 0.689422
0.700433 0.025571 0.680321
0.023855 0.670129 0.690292
0.691636 0.679952 -0.033487
0.700005 0.026621 0.682380
0.025024 0.671146 0.690467
0.701186 0.026480 0.681722
0.690487 0.680167 -0.032823
-0.677404 0.627923 -0.012838
-0.675802 0.001513 0.690160
0.703242 -0.636941 0.035892
0.690007 -0.004327 -0.673323
0.702187 -0.634825 0.035364
-0.677123 0.001896 0.689040
-0.716498 -0.025436 -0.677622
0.701671 -0.637532 0.035033
0.007460 -0.627294 -0.666153
-0.706241 -0.706014 -0.025820
-0.675721 -0.000308 0.687564
-0.716041 -0.026206 -0.677596
0.698759 0.025751 0.683082
-0.016933 -0.648374 0.659706
0.692317 0.679832 -0.030860
-0.016073 -0.647374 0.658135
-0.022284 0.638947 -0.668270
0.006267 -0.627018 -0.665405
0.691537 -0.002811 -0.672239
0.699158 0.024353 0.681163
-0.021409 0.639653 -0.669108
-0.716440 -0.026103 -0.675992
-0.676843 0.001660 0.687428
-0.677329 0.627922 -0.013819
0.691157 -0.002528 -0.671667
0.023594 0.668478 0.690273
-0.017451 -0.650265 0.658364
-0.716056 -0.026789 -0.676060
-0.716779 -0.026239 -0.677592
-0.021127 0.642515 -0.668149
-0.025131 0.641176 -0.668851
0.690656 -0.001995 -0.672728
0.698730 0.025680 0.682432
0.702530 -0.637194 0.035913
0.692097 0.681229 -0.033174
-0.717322 -0.027263 -0.677231
-0.015795 -0.648227 0.658934
-0.675261 0.629041 -0.012813
0.703022 -0.638007 0.035119
-0.016727 -0.649455 0.657552
0.692157 0.680098 -0.031766
0.700446 0.026492 0.680496
0.702509 -0.637042 0.036047
-0.716913 -0.026559 -0.679366
0.693346 0.678254 -0.031817
-0.674946 0.628254 -0.012215
-0.677171 0.627788 -0.011729
0.692181 -0.002190 -0.673965
0.023266 0.671135 0.690860
0.022827 0.669218 0.689675
-0.675689 0.003325 0.687250
-0.015515 -0.648961 0.657879
0.690206 0.678112 -0.032656
-0.708680 -0.705147 -0.025663
-0.015350 -0.648077 0.655965
-0.020486 0.641758 -0.668258
0.007563 -0.628249 -0.665447
-0.708116 -0.704882 -0.024342
0.692685 -0.003506 -0.671517
0.025248 0.670516 0.689896
-0.022277 0.641942 -0.666622
0.702000 -0.636401 0.034417
-0.710648 -0.705149 -0.025190
-0.708870 -0.705559 -0.027135
-0.023701 0.640647 -0.668444
0.693369 0.679418 -0.030107
-0.709364 -0.705644 -0.025902
-0.676993 0.000023 0.687036
0.025406 0.671073 0.689512
0.703389 -0.637358 0.033967
0.023881 0.670180 0.689442
-0.016385 -0.648150 0.658249
-0.707624 -0.705048 -0.026367
0.702062 -0.639398 0.035104
-0.014920 -0.649584 0.658980
-0.023562 0.640824 -0.669049
-0.717964 -0.025801 -0.676990
0.024418 0.670552 0.690107
0.693142 -0.002395 -0.672850
-0.016642 -0.648774 0.659873
0.693468 -0.003453 -0.672704
0.692240 0.680573 -0.031058
0.024964 0.670538 0.689851
-0.718487 -0.026384 -0.678353
0.700126 0.026502 0.681636
-0.023041 0.639849 -0.667710
0.702416 -0.634683 0.036758
-0.707317 -0.705930 -0.023623
-0.678219 0.627120 -0.012057
-0.015836 -0.647636 0.659302
0.700443 0.026997 0.681676
-0.676336 0.627477 -0.011527
0.025232 0.669058 0.693240
0.025482 0.670548 0.690749
-0.676403 0.629438 -0.012864
0.702488 -0.636187 0.036539
0.006924 -0.626800 -0.665727
0.005583 -0.627151 -0.666558
-0.676882 -0.001009 0.689489
-0.677041 0.629161 -0.012019
-0.717056 -0.026022 -0.675967
0.023854 0.670277 0.689752
-0.021870 0.639754 -0.667830
-0.717707 -0.026694 -0.675695
-0.675983 0.627975 -0.012334
-0.014194 -0.647881 0.661594
0.689924 -0.002101 -0.672695
0.701815 -0.638067 0.035571
-0.017799 -0.648842 0.659215
0.007917 -0.627671 -0.664931
0.693593 -0.000735 -0.670140
-0.022235 0.640954 -0.667895
0.023378 0.669621 0.688609
-0.020086 0.639919 -0.667642
-0.021707 0.641044 -0.670386
0.024726 0.669361 0.688864
0.008174 -0.628540 -0.664552
-0.675711 0.000367 0.688047
