OFF
256 0 0
0.221607 0.663931 -0.694773
-0.721029 0.198156 -0.254711
-0.689212 0.236391 0.675188
0.246307 0.223596 0.693643
0.259396 0.690515 0.247260
-0.252099 -0.671537 0.235486
0.245157 0.225810 0.693683
-0.722269 0.197339 -0.255231
0.701288 0.214245 -0.677824
-0.253113 -0.671209 0.234770
-0.221201 0.229222 -0.685070
-0.721918 0.196873 -0.254836
-0.722956 0.197352 -0.255257
0.669077 0.223529 0.205931
0.678328 0.668610 -0.254651
-0.701900 -0.666277 -0.201690
-0.721352 0.197388 -0.253346
-0.678068 0.626447 0.217047
0.675995 -0.207961 0.685920
0.701023 0.215458 -0.677621
0.676575 0.669660 -0.256362
-0.677883 -0.190739 0.214662
0.258997 0.690812 0.249546
0.701089 0.215143 -0.678606
-0.652737 -0.220324 -0.703860
0.668544 -0.656311 0.267604
-0.220764 0.228358 -0.686705
0.245192 -0.208993 -0.670619
-0.685327 0.236071 0.674982
0.674007 -0.243003 -0.230375
-0.676596 -0.187516 0.213112
-0.723084 0.197104 -0.254184
-0.679448 0.626433 0.219061
-0.685967 0.235280 0.675336
0.221737 0.662865 -0.696500
0.223888 0.662269 -0.695696
0.225223 -0.674674 -0.210795
-0.221274 0.228567 -0.686875
-0.721220 0.195933 -0.256642
0.242069 0.225458 0.693684
-0.684689 0.234338 0.675421
0.257454 0.691169 0.247270
0.244885 0.224772 0.692188
-0.221252 0.229378 -0.687556
0.676869 -0.242402 -0.233789
0.244874 -0.211034 -0.669688
0.216099 -0.666452 0.696076
0.675943 -0.241393 -0.232770
-0.221713 0.230215 -0.685059
-0.722604 0.197268 -0.254203
0.702390 0.214097 -0.677945
-0.227076 -0.223552 0.687414
-0.703338 -0.666753 -0.200261
0.223832 0.662756 -0.695051
-0.252838 -0.670935 0.234835
0.668711 -0.656292 0.267206
0.222141 0.664769 -0.696440
0.225541 -0.675362 -0.210442
0.675416 -0.243733 -0.231897
-0.678355 -0.187414 0.212185
0.259725 0.690513 0.248651
-0.194153 0.696010 -0.229380
-0.221126 0.228463 -0.685931
0.259236 0.691617 0.247727
-0.676223 -0.189609 0.212469
0.245058 0.223003 0.692591
-0.228048 -0.221635 0.688253
-0.686591 0.235985 0.675477
0.676540 0.667512 -0.253339
-0.680877 0.626123 0.217627
0.675269 -0.242932 -0.232029
0.218075 -0.667838 0.696951
-0.226471 -0.223383 0.685674
0.674297 -0.243676 -0.231959
0.674695 -0.243851 -0.231394
-0.220565 0.657679 0.675761
-0.220606 0.229269 -0.686035
-0.220846 0.229975 -0.686160
-0.192595 0.693047 -0.227732
0.245099 0.225866 0.695945
-0.680960 0.627250 0.217247
-0.679733 0.624658 0.218863
0.259573 0.689135 0.249703
-0.193357 0.694648 -0.227022
0.224371 -0.675466 -0.210873
-0.221798 0.656407 0.671926
0.667363 0.222624 0.203634
0.700741 0.213645 -0.679302
0.678886 0.667540 -0.255353
-0.680704 0.626737 0.217539
-0.192994 0.692717 -0.227106
-0.192406 0.694759 -0.230321
-0.221561 0.228630 -0.687063
0.217359 -0.667372 0.696237
-0.678478 -0.188757 0.211951
0.674811 0.669919 -0.254246
-0.652661 -0.221468 -0.703805
0.676936 0.668412 -0.256346
-0.686354 0.236960 0.673727
0.216572 -0.668199 0.694953
-0.221919 0.227638 -0.684177
0.701735 0.216676 -0.679444
0.222910 0.665136 -0.696146
0.224226 0.661972 -0.696041
-0.653809 -0.222916 -0.703360
-0.195092 0.694023 -0.228675
-0.244521 -0.692024 -0.678439
0.678009 -0.209022 0.686302
-0.245704 -0.688481 -0.680427
-0.653564 -0.219330 -0.705512
-0.702288 -0.666906 -0.200937
-0.679233 0.625148 0.217446
0.260688 0.688872 0.250024
-0.247722 -0.691250 -0.681132
0.216892 -0.666478 0.695921
0.226091 -0.674929 -0.211387
0.223146 0.663056 -0.695409
0.699756 0.214050 -0.678355
-0.723177 0.197202 -0.254445
-0.679528 0.627813 0.218273
0.223781 0.661906 -0.697414
-0.654632 -0.221856 -0.704200
0.675847 -0.242021 -0.233555
-0.253696 -0.672012 0.235268
-0.221115 0.657483 0.672381
0.677417 -0.207059 0.685268
-0.723824 0.195953 -0.254795
-0.254754 -0.672740 0.233879
0.677081 0.668763 -0.254246
0.678218 0.667867 -0.255318
-0.699991 -0.666583 -0.201352
-0.221165 0.228501 -0.686488
-0.247107 -0.691461 -0.679006
0.676041 -0.243624 -0.233257
-0.193429 0.693315 -0.228904
0.667812 0.223753 0.204327
-0.220729 0.228824 -0.685904
0.225004 -0.673766 -0.211255
-0.721904 0.197912 -0.253284
0.224289 -0.675073 -0.210174
-0.220902 0.228575 -0.687915
-0.245478 -0.689552 -0.678359
0.666362 0.222542 0.207166
0.244791 -0.211367 -0.670381
0.245470 -0.212557 -0.669571
0.222609 0.663617 -0.693967
0.677221 0.669579 -0.255709
-0.253042 -0.673197 0.235014
0.215801 -0.665753 0.694894
0.675740 -0.242820 -0.233845
-0.226806 -0.223484 0.687444
0.668058 -0.658343 0.267788
0.223327 -0.673362 -0.209524
0.676134 -0.210006 0.685772
-0.221622 0.658206 0.673232
0.222063 0.663547 -0.695545
-0.681309 0.627723 0.217274
0.245413 -0.210750 -0.670369
0.668874 0.222313 0.204852
0.216263 -0.665134 0.697124
-0.192003 0.694198 -0.229052
-0.253044 -0.671382 0.235564
0.699851 0.214849 -0.679282
0.247262 0.226194 0.694367
0.246150 0.224662 0.694330
-0.680171 0.626918 0.216007
0.244988 0.223812 0.691927
0.675955 -0.206553 0.682806
-0.227988 -0.224191 0.686112
0.669855 0.222948 0.203705
-0.192601 0.694246 -0.227724
0.247138 0.224289 0.693151
0.247224 0.225464 0.693872
0.259578 0.691125 0.247953
0.223983 0.664501 -0.696521
-0.702424 -0.668312 -0.203349
0.258505 0.690014 0.249945
0.673554 -0.242676 -0.232317
-0.252860 -0.672180 0.234276
-0.681608 0.627371 0.216972
0.218155 -0.667070 0.695602
0.244407 -0.210191 -0.669221
-0.686532 0.235233 0.674317
-0.246681 -0.693422 -0.678216
-0.222145 0.228636 -0.685097
0.246384 0.225989 0.694002
0.701985 0.214378 -0.679034
0.678115 0.668252 -0.256336
-0.679249 -0.187562 0.213075
-0.252050 -0.672494 0.233476
-0.653217 -0.222453 -0.703948
0.224236 0.664304 -0.694951
0.258664 0.689658 0.248154
-0.654120 -0.222617 -0.704111
-0.679337 0.626225 0.218855
-0.226672 -0.224307 0.687368
-0.220096 0.229246 -0.687247
0.667812 0.222420 0.206524
0.676187 -0.242934 -0.233808
-0.221136 0.229469 -0.686045
-0.655477 -0.221086 -0.705463
0.258102 0.690564 0.246398
-0.722910 0.196125 -0.254856
-0.686504 0.236789 0.675411
-0.219856 0.656260 0.674488
0.678267 -0.211247 0.685497
0.667643 0.225107 0.206894
0.675279 -0.209492 0.685022
0.247470 0.224519 0.693145
-0.685422 0.235998 0.675796
-0.722108 0.196598 -0.254651
0.677985 -0.208651 0.683402
0.217082 -0.667191 0.696039
-0.678622 -0.189162 0.212969
-0.676717 -0.190330 0.213192
-0.652852 -0.221889 -0.704446
0.260302 0.690905 0.248034
0.258770 0.690953 0.246816
0.676569 -0.209527 0.684149
-0.244333 -0.690683 -0.680656
-0.686071 0.236668 0.675529
0.700978 0.215072 -0.677328
-0.221578 0.656906 0.673065
-0.252836 -0.674337 0.234767
0.223468 0.664203 -0.695613
0.703102 0.215001 -0.677426
0.258624 0.689365 0.247497
0.675247 -0.243381 -0.231343
-0.680715 0.626949 0.216049
-0.252214 -0.672957 0.237424
0.222688 0.661678 -0.693372
-0.701143 -0.667171 -0.201444
0.674120 -0.243527 -0.232868
0.700694 0.215560 -0.677856
0.223116 0.662651 -0.695489
0.225836 -0.675031 -0.208794
-0.677529 -0.187494 0.212158
0.224675 0.664109 -0.696040
-0.654355 -0.221814 -0.704743
-0.724892 0.196807 -0.255945
0.245278 -0.209370 -0.673310
0.677344 0.669045 -0.255624
0.677906 0.670718 -0.254775
0.221826 0.664774 -0.694902
0.668419 -0.655888 0.268583
0.675533 -0.243093 -0.231560
0.224486 0.664342 -0.695727
0.669833 -0.656553 0.270025
-0.224752 0.229159 -0.685120
-0.193350 0.694745 -0.227553
-0.245197 -0.689352 -0.679533
-0.701091 -0.667958 -0.204740
0.221879 0.661464 -0.696733
0.224194 -0.674290 -0.210622
0.223799 -0.674794 -0.210762
0.245996 -0.210459 -0.670401
