OFF
256 0 0
0.642803 -0.634275 0.214053
-0.633926 0.218165 0.686424
-0.229428 -0.661979 0.236835
-0.678751 -0.634993 -0.219853
0.646848 0.228571 0.240912
0.223248 -0.193794 -0.626480
-0.225312 -0.653591 -0.679166
-0.664858 0.646415 0.216198
0.227638 -0.681104 0.664662
0.230467 -0.681617 0.665113
-0.229680 0.211499 -0.653968
0.188512 -0.658315 -0.217449
0.235453 0.629087 -0.669392
-0.224686 -0.654529 -0.678731
-0.675578 -0.633678 -0.219902
-0.216514 0.664806 0.654405
0.642497 -0.635104 0.214758
0.203681 0.223607 0.648309
0.647190 0.227017 0.241934
-0.644464 -0.193312 0.213142
-0.688737 0.202333 -0.240093
-0.230827 0.210528 -0.652921
0.203992 0.222504 0.645296
0.188990 -0.657165 -0.215386
0.697396 0.227737 -0.666628
0.667328 0.667858 -0.228385
0.222017 -0.193374 -0.626795
-0.214008 0.641878 -0.215355
0.228645 -0.683117 0.663903
0.646867 0.226735 0.241447
0.648821 0.227785 0.243493
-0.215411 0.665961 0.655517
-0.688233 0.202635 -0.237952
-0.644924 -0.193819 0.213963
0.647223 0.227569 0.242892
0.683939 -0.230314 -0.234991
0.668579 0.669072 -0.229402
0.646970 0.224831 0.242688
0.204100 0.222219 0.644840
0.668625 0.667717 -0.228371
0.236841 0.627459 -0.669039
0.232108 0.628435 -0.669974
0.696000 0.231244 -0.665987
0.669066 0.669013 -0.230027
0.682988 -0.232779 -0.237380
0.228355 -0.681216 0.665112
0.697500 0.228448 -0.667478
-0.226138 -0.655082 -0.678019
-0.689339 0.202244 -0.241427
-0.226789 -0.653493 -0.678201
-0.224239 -0.654055 -0.678687
-0.631489 0.217759 0.684163
-0.645324 -0.194048 0.211994
0.647404 0.225482 0.243424
-0.227683 -0.663636 0.237906
-0.226762 -0.655526 -0.679180
0.635148 -0.226675 0.691931
0.225184 -0.193286 -0.626153
0.223970 -0.193583 -0.625948
0.645571 -0.634293 0.215860
-0.214427 0.641621 -0.215084
0.649146 0.228883 0.240550
0.633085 -0.225822 0.690171
-0.228283 -0.663845 0.237708
-0.226599 -0.663170 0.238169
-0.232060 0.211068 -0.652663
-0.226951 -0.663059 0.238000
-0.227024 -0.653197 -0.679920
0.693798 0.226947 -0.664668
-0.228619 0.212477 -0.651913
0.695315 0.227177 -0.665184
-0.228208 -0.662761 0.236645
0.642315 -0.635610 0.212445
-0.647130 -0.195088 0.213063
0.233808 0.626133 -0.666709
0.204160 0.223244 0.645013
0.223112 -0.192439 -0.628202
0.642669 -0.635357 0.213761
-0.691369 -0.241725 -0.680641
-0.645265 -0.194712 0.212699
-0.229129 -0.662845 0.236875
0.648426 0.227306 0.241598
-0.228571 -0.662910 0.236829
0.190853 -0.658357 -0.218373
0.227916 -0.681064 0.664223
-0.632805 0.218064 0.684561
0.685695 -0.233407 -0.236598
0.647460 0.227686 0.242695
0.695585 0.227628 -0.667709
0.227600 -0.680539 0.662699
-0.215775 0.666850 0.655237
-0.688986 0.202706 -0.241104
0.683507 -0.231662 -0.236301
0.696033 0.227018 -0.666714
-0.227556 -0.665161 0.236780
-0.227779 0.211281 -0.653523
0.633493 -0.226197 0.692405
-0.629416 0.216006 0.683959
0.633671 -0.227232 0.691492
0.223338 -0.193686 -0.626286
-0.662966 0.649884 0.218159
-0.230176 0.210025 -0.653346
0.223807 -0.191952 -0.627078
0.234643 0.626906 -0.669196
0.666666 0.667107 -0.230188
-0.632474 0.218729 0.685554
0.646791 0.228799 0.244621
0.228604 0.682353 0.211147
-0.663258 0.647578 0.215763
0.224956 -0.194292 -0.627953
-0.688959 0.202267 -0.239985
0.202907 0.221850 0.646888
0.668853 0.667186 -0.229530
0.685365 -0.230134 -0.235469
0.642766 -0.635569 0.214921
-0.691086 -0.239267 -0.682194
0.635780 -0.226614 0.691933
0.648001 0.225858 0.242542
-0.676081 -0.634410 -0.219212
-0.691073 -0.238117 -0.680506
-0.227607 -0.663154 0.237149
0.647215 0.228850 0.242608
0.231150 -0.683154 0.664367
0.632844 -0.226688 0.690755
0.228720 -0.680094 0.664368
-0.691880 -0.237995 -0.681976
-0.632433 0.216304 0.683747
0.188646 -0.658273 -0.216076
0.186273 -0.656841 -0.216019
0.228753 0.681669 0.209655
-0.227448 -0.662702 0.237330
-0.633116 0.217096 0.684023
0.189751 -0.658020 -0.218344
-0.691046 -0.238380 -0.680887
0.667838 0.669380 -0.227645
0.188343 -0.656780 -0.215265
-0.673726 -0.633351 -0.220702
-0.646381 -0.193288 0.213729
-0.688188 0.200794 -0.239148
-0.214801 0.665818 0.654284
-0.691080 -0.240723 -0.680550
0.694356 0.228702 -0.666393
0.684428 -0.232190 -0.235304
0.642528 -0.632993 0.212973
-0.646161 -0.194584 0.213509
-0.690966 -0.240772 -0.682966
-0.675192 -0.634184 -0.220021
-0.231463 0.210529 -0.653171
-0.215540 0.665951 0.652627
0.683319 -0.231550 -0.236077
-0.645042 -0.195281 0.213886
-0.231599 0.210404 -0.652279
0.636379 -0.226611 0.691538
0.633944 -0.225272 0.692018
0.229322 -0.681956 0.665326
0.642347 -0.632918 0.212322
0.635316 -0.228240 0.691275
0.202761 0.222943 0.645870
0.230464 0.682578 0.207345
0.641700 -0.635226 0.215036
-0.173539 -0.233005 0.662105
0.229064 -0.680530 0.664438
0.229946 0.682687 0.207439
0.643819 -0.632831 0.213724
0.643655 -0.632901 0.213712
-0.227296 -0.663718 0.237145
-0.630849 0.216749 0.685391
-0.632732 0.217061 0.685006
0.632989 -0.226090 0.691675
0.229310 -0.680477 0.663316
-0.216101 0.666443 0.654896
0.234481 0.628849 -0.669253
-0.214912 0.666342 0.656509
-0.630852 0.218761 0.684463
-0.677450 -0.633852 -0.219582
-0.172518 -0.234662 0.661792
0.694947 0.227527 -0.666795
0.228847 0.682045 0.208843
-0.661996 0.647249 0.219175
-0.224771 -0.654012 -0.680005
-0.228991 0.212062 -0.653490
0.635006 -0.227076 0.690600
-0.225292 -0.654929 -0.680602
-0.171778 -0.233658 0.662691
0.203029 0.224890 0.646426
-0.174514 -0.234980 0.661594
-0.231800 0.211648 -0.652131
0.234128 0.626831 -0.667960
-0.171783 -0.232990 0.662833
0.633722 -0.226427 0.691342
0.204739 0.224534 0.646112
0.695956 0.229851 -0.667452
0.632980 -0.226981 0.689552
0.228712 -0.682105 0.664828
-0.691160 -0.239580 -0.682411
-0.692407 -0.240595 -0.679760
0.187697 -0.660068 -0.218739
0.646057 0.228440 0.243115
0.227468 -0.681584 0.663094
0.234781 0.629293 -0.668697
-0.225431 -0.656129 -0.677994
-0.691612 -0.240450 -0.681297
0.648198 0.227341 0.240235
-0.217882 0.667947 0.655687
-0.226918 -0.662124 0.237238
0.222197 -0.194003 -0.625779
-0.229119 0.213548 -0.653191
0.229657 -0.682030 0.663918
-0.214195 0.666662 0.654461
0.696942 0.227883 -0.667350
-0.644878 -0.193968 0.210996
-0.691877 -0.240374 -0.683586
-0.224623 -0.653096 -0.679454
0.642056 -0.635927 0.215425
-0.174001 -0.234059 0.663417
0.225432 -0.193549 -0.624238
0.685245 -0.230465 -0.235786
-0.645660 -0.194472 0.212748
-0.689323 0.203319 -0.240271
0.235250 0.628608 -0.668160
-0.227987 -0.663834 0.236550
-0.688697 0.200992 -0.240014
-0.227903 -0.664691 0.237944
0.633951 -0.228029 0.691974
0.682816 -0.229124 -0.236336
-0.630664 0.217110 0.684357
-0.645198 -0.193417 0.210459
0.668857 0.668499 -0.229409
0.668353 0.667233 -0.229429
0.697136 0.229303 -0.667394
-0.228891 -0.662570 0.238163
0.186449 -0.659174 -0.216221
0.696724 0.227614 -0.666197
0.644742 -0.633879 0.212568
0.204105 0.224582 0.645842
-0.211900 0.642642 -0.217516
-0.690252 -0.241546 -0.680768
-0.212765 0.641091 -0.215242
0.189209 -0.657360 -0.218103
0.647744 0.226592 0.241448
-0.229193 -0.662277 0.237576
0.668038 0.668131 -0.229463
0.235100 0.629496 -0.669431
0.632960 -0.227262 0.691146
-0.213766 0.644020 -0.215710
0.633835 -0.227781 0.690054
0.235588 0.629137 -0.669805
0.646163 0.227960 0.242947
0.694239 0.227092 -0.666464
0.189978 -0.660153 -0.216108
0.642861 -0.633011 0.214396
0.634775 -0.226202 0.691970
-0.645729 -0.193589 0.212924
-0.631955 0.218139 0.682131
-0.687355 0.203590 -0.240877
0.233324 0.629876 -0.669830
