OFF
256 0 0
-0.678872 0.216236 -0.245239
-0.677507 -0.687153 -0.236141
-0.221150 -0.195706 0.670253
0.223396 0.234987 0.686814
0.644273 0.227491 -0.675377
0.210680 -0.220071 -0.649937
-0.210609 0.203501 -0.657273
0.669156 -0.642999 0.251852
-0.643286 -0.190202 0.208460
-0.643606 -0.192018 0.210366
0.211726 -0.219105 -0.648403
0.665283 0.661185 -0.233771
-0.657044 -0.246676 -0.676826
-0.225164 0.649302 0.637548
0.667833 -0.644061 0.251570
0.658421 -0.219974 -0.201668
-0.220097 -0.199312 0.671887
0.668682 -0.644451 0.251151
0.681225 -0.223801 0.697955
0.643814 0.229456 -0.676547
-0.658485 -0.248128 -0.678352
-0.632601 0.637639 0.210292
-0.221082 0.660225 -0.230960
0.669355 -0.643328 0.253590
0.665770 0.659024 -0.232743
0.654804 0.221809 0.247163
0.265870 0.672680 0.221295
0.206414 -0.683152 0.646125
-0.264065 -0.644205 0.186481
-0.675907 -0.687499 -0.236742
-0.211894 0.203842 -0.657111
-0.219651 0.662168 -0.229935
-0.222696 -0.652968 -0.679826
0.652824 0.221791 0.247506
0.212118 -0.220769 -0.648189
-0.681154 0.216936 -0.244024
-0.657260 -0.248025 -0.678248
0.222756 0.233645 0.687606
-0.642938 -0.191854 0.209128
0.653214 0.220742 0.244818
-0.659206 -0.248595 -0.676976
-0.658531 -0.250541 -0.678030
-0.643661 -0.192390 0.210750
0.239112 -0.672769 -0.202472
0.653413 0.220673 0.246347
0.240506 -0.674231 -0.204749
0.223914 0.684097 -0.666249
0.668853 -0.642586 0.250121
-0.223778 0.648245 0.639554
0.220812 0.684839 -0.665007
-0.679103 0.215749 -0.243011
-0.642716 -0.192143 0.209754
0.209551 -0.220889 -0.648246
-0.644182 -0.189411 0.208127
0.652890 0.221005 0.245498
-0.680049 0.216436 -0.243505
0.222675 0.684946 -0.666780
0.680993 -0.224560 0.698763
-0.219956 -0.198277 0.668834
0.652617 0.221888 0.246710
-0.210295 0.204212 -0.657710
0.665868 0.661282 -0.232691
0.205280 -0.682961 0.648694
0.644637 0.227513 -0.676514
-0.632954 0.637497 0.207843
-0.221698 -0.199040 0.670332
-0.677890 0.218687 -0.243488
-0.634322 0.638462 0.208290
-0.219883 0.661772 -0.230312
0.221953 0.233905 0.687202
-0.678405 0.217453 -0.244120
-0.220302 -0.651187 -0.680309
0.267120 0.672779 0.220944
-0.680957 0.217578 -0.242409
0.668120 -0.644470 0.249772
0.656683 -0.220952 -0.200890
0.266207 0.672204 0.222005
0.659275 -0.219059 -0.201352
-0.689320 0.214709 0.684777
-0.221578 -0.652006 -0.680269
0.223122 0.234415 0.686443
0.645215 0.227001 -0.675397
-0.264059 -0.645826 0.184322
-0.642887 -0.192583 0.207344
0.657826 -0.220112 -0.201912
0.222741 0.684472 -0.665049
0.224030 0.685401 -0.665962
0.653729 0.222343 0.245016
-0.633638 0.637134 0.206705
0.652482 0.220096 0.245813
0.670488 -0.643677 0.249760
-0.632490 0.637678 0.209796
0.268765 0.673452 0.219926
-0.676061 -0.689054 -0.235198
-0.656466 -0.250052 -0.677243
0.222766 0.233912 0.687901
0.211601 -0.218339 -0.648523
0.656499 -0.220733 -0.199595
-0.631243 0.637824 0.208325
0.645312 0.227272 -0.676290
0.667794 -0.642949 0.251456
-0.220385 -0.653282 -0.680379
0.654324 0.221470 0.245639
-0.263760 -0.644127 0.185350
-0.690806 0.215621 0.687271
-0.676309 -0.685846 -0.233686
0.212282 -0.220102 -0.647250
0.209988 -0.218349 -0.648343
-0.219445 -0.198866 0.671245
0.222652 0.685296 -0.663208
0.238858 -0.671619 -0.203374
0.211141 -0.221585 -0.648052
0.222706 0.682458 -0.664577
0.652619 0.221856 0.244157
0.212552 -0.220696 -0.647916
-0.658844 -0.249433 -0.675506
-0.680278 0.218556 -0.243178
0.667298 0.661088 -0.234502
-0.632800 0.639034 0.209646
-0.690730 0.218418 0.686457
0.657507 -0.221715 -0.199450
-0.633310 0.637009 0.209404
0.266891 0.673415 0.219560
0.666899 0.661126 -0.233084
-0.219982 -0.652471 -0.679013
-0.674189 -0.687348 -0.234681
0.658081 -0.220631 -0.199403
-0.632927 0.637203 0.210314
0.658657 -0.219473 -0.202338
0.665381 0.659673 -0.233163
-0.220310 0.662415 -0.229838
-0.657021 -0.249153 -0.679446
-0.656991 -0.248780 -0.676229
0.652269 0.221585 0.247326
0.222149 0.233933 0.688765
-0.680431 0.216003 -0.242188
0.223887 0.232466 0.687190
0.222529 0.684271 -0.664900
0.652075 0.222195 0.245875
0.680986 -0.224708 0.696600
0.267040 0.673895 0.220341
0.267876 0.671120 0.219110
-0.689796 0.215686 0.687017
-0.219695 -0.197111 0.670341
-0.643959 -0.191027 0.207777
-0.212052 0.202386 -0.655858
0.221925 0.684806 -0.665439
0.645672 0.227521 -0.678070
-0.642889 -0.190446 0.206387
0.212571 -0.221578 -0.648246
0.222246 0.234793 0.686469
-0.220794 -0.652595 -0.679402
-0.265948 -0.645053 0.185079
-0.673788 -0.687106 -0.234198
0.265445 0.672186 0.221982
-0.219921 -0.198387 0.671011
0.652058 0.220921 0.244741
-0.221511 -0.653864 -0.680570
-0.222001 -0.197786 0.671056
0.212170 -0.219268 -0.648799
-0.680657 0.215768 -0.243277
0.645161 0.228602 -0.675315
-0.689339 0.215950 0.687437
-0.689790 0.214311 0.687324
-0.679072 0.217622 -0.244911
-0.675407 -0.686169 -0.232780
0.679474 -0.223906 0.697408
0.206123 -0.682077 0.649251
0.680949 -0.222251 0.696844
0.652949 0.220979 0.246481
0.222015 0.684128 -0.665910
-0.690388 0.215911 0.686517
-0.219778 0.662213 -0.231955
-0.675593 -0.687588 -0.234420
-0.219116 -0.197607 0.672058
0.657007 -0.220590 -0.198733
0.665562 0.659397 -0.233310
0.221931 0.684609 -0.665987
0.238638 -0.671488 -0.202369
0.212054 -0.219248 -0.648101
-0.218643 0.664902 -0.229892
-0.691382 0.215308 0.686773
0.652811 0.222394 0.244431
-0.209677 0.203466 -0.656926
0.213061 -0.220994 -0.647126
0.651510 0.221249 0.244237
0.651665 0.220862 0.246449
0.645848 0.227447 -0.676075
-0.682077 0.215588 -0.242684
0.668609 -0.642908 0.249994
-0.219405 -0.196470 0.669942
-0.642853 -0.191324 0.207501
0.224307 0.232509 0.685579
-0.212928 0.202937 -0.657181
-0.220374 -0.197692 0.670470
-0.264875 -0.644653 0.186115
-0.635220 0.638870 0.209301
-0.632646 0.637654 0.210204
0.266879 0.671930 0.218831
-0.222309 -0.652005 -0.680003
-0.690030 0.216247 0.687177
0.659251 -0.219654 -0.200056
-0.264041 -0.644405 0.184151
0.210305 -0.217849 -0.648654
-0.633356 0.639045 0.210519
-0.262513 -0.645392 0.184705
0.658062 -0.221633 -0.201032
0.265181 0.672357 0.220668
-0.221662 -0.196591 0.669986
0.670205 -0.642014 0.251077
-0.693327 0.217556 0.686590
0.239048 -0.672658 -0.204229
0.655552 -0.222066 -0.201653
0.225732 0.233635 0.687003
-0.220329 0.664962 -0.230173
-0.219889 -0.196031 0.670492
0.683008 -0.224466 0.698209
0.668260 -0.644074 0.251688
-0.680195 0.217757 -0.243716
-0.642550 -0.193290 0.209122
-0.635575 0.636864 0.209158
0.668829 -0.644663 0.251825
-0.262369 -0.644101 0.183806
0.222100 0.235069 0.684566
0.669764 -0.642004 0.250740
0.643967 0.227587 -0.674747
0.211565 -0.219442 -0.648937
0.679304 -0.222341 0.697819
0.667035 -0.644936 0.250321
-0.690885 0.218187 0.687446
-0.221257 -0.652281 -0.680922
0.682642 -0.223282 0.696127
-0.681952 0.216875 -0.244154
-0.221147 -0.650870 -0.679414
-0.211518 0.203424 -0.657438
0.654322 0.221655 0.247498
0.665387 0.660045 -0.232766
-0.262445 -0.643628 0.186273
-0.226157 0.649852 0.636721
-0.655601 -0.249632 -0.678024
-0.640961 -0.192495 0.208653
-0.642249 -0.191499 0.208223
0.666174 0.659783 -0.234755
-0.632150 0.637462 0.208899
0.212628 -0.219461 -0.647621
0.666581 0.660876 -0.234042
0.238003 -0.672100 -0.205042
-0.220396 -0.650933 -0.680181
-0.676215 -0.686800 -0.234881
0.658355 -0.218561 -0.198467
-0.642178 -0.189898 0.208293
-0.224556 0.648902 0.639591
-0.225550 0.649632 0.640189
0.267999 0.672940 0.219032
-0.631360 0.637965 0.208730
0.211491 -0.220012 -0.647529
