OFF
256 0 0
-0.674663 -0.689121 -0.006919
0.717413 -0.693941 -0.020695
0.717746 -0.695686 -0.018876
-0.648469 0.682953 -0.025190
0.602939 0.645492 0.019936
0.675201 0.024399 -0.662335
0.601867 0.645569 0.018142
-0.673382 -0.010978 0.669063
-0.673311 -0.688944 -0.008776
0.028267 -0.663913 0.667326
-0.004447 0.661133 -0.699837
-0.005850 0.659803 -0.699854
-0.006675 0.660395 -0.700597
-0.676356 0.019009 -0.674535
-0.677712 0.020965 -0.675200
0.663758 0.006492 0.662714
-0.647284 0.680472 -0.022497
-0.648131 0.679994 -0.024738
-0.012295 0.705876 0.710510
0.028645 -0.663311 0.667285
0.665641 0.009263 0.663605
0.604975 0.647392 0.018003
0.672509 0.023241 -0.665794
0.673397 0.020557 -0.661980
0.718193 -0.695595 -0.021888
-0.676396 0.017529 -0.674884
-0.673051 -0.688994 -0.009793
0.027545 -0.662704 0.666559
0.672234 0.023618 -0.662639
0.718027 -0.696540 -0.019941
-0.675263 -0.690935 -0.008004
0.005055 -0.684759 -0.637178
0.603369 0.648663 0.019782
-0.671388 -0.008135 0.668288
0.028544 -0.662913 0.667553
0.716508 -0.695238 -0.019739
0.604382 0.646912 0.019308
0.604404 0.645620 0.018724
0.673887 0.024255 -0.664374
-0.004697 0.661328 -0.700610
0.605180 0.646480 0.017093
0.004367 -0.685571 -0.637559
0.004109 -0.683503 -0.635978
0.004925 -0.685182 -0.637329
0.665697 0.007767 0.662416
-0.673981 -0.008912 0.667768
0.005582 -0.684096 -0.637483
-0.005675 0.659905 -0.700247
-0.673494 -0.688489 -0.007424
-0.676836 -0.009280 0.669867
-0.671448 -0.010544 0.670475
0.717225 -0.695082 -0.020187
0.027656 -0.663002 0.666486
-0.005399 0.661126 -0.700368
0.664526 0.008360 0.662622
0.604915 0.646579 0.018049
-0.012370 0.703063 0.708215
0.718004 -0.695368 -0.020190
-0.677608 0.019768 -0.673510
0.665752 0.009278 0.664166
0.603140 0.645538 0.016580
-0.677718 0.018319 -0.675273
0.671419 0.023013 -0.664945
0.602082 0.645698 0.018452
0.028502 -0.663845 0.668551
0.673902 0.023866 -0.663811
-0.011470 0.705306 0.708824
-0.006643 0.660421 -0.700882
-0.678297 0.017853 -0.674475
0.713826 -0.694213 -0.020001
-0.010838 0.706750 0.708984
-0.011194 0.705925 0.708322
0.674047 0.023727 -0.663498
-0.648062 0.680587 -0.023081
0.005469 -0.686289 -0.636869
0.028407 -0.664040 0.667828
0.664528 0.009860 0.661211
0.003172 -0.682258 -0.637421
-0.012993 0.703157 0.708497
-0.005562 0.659843 -0.698795
-0.674701 -0.009573 0.669028
-0.012222 0.704211 0.710141
0.716825 -0.695715 -0.019127
-0.676541 0.019574 -0.673181
0.003338 -0.685299 -0.638048
0.602638 0.644757 0.018216
0.007070 -0.684125 -0.637597
0.665351 0.007370 0.661739
-0.011970 0.703493 0.709259
0.673593 0.023018 -0.663999
-0.674938 -0.687067 -0.008784
0.005201 -0.683351 -0.637327
0.029053 -0.663517 0.666181
0.602365 0.645518 0.019011
0.004533 -0.684020 -0.636965
-0.676315 0.019688 -0.675857
-0.676848 0.018354 -0.673057
0.602598 0.645035 0.018082
0.672729 0.023586 -0.661572
-0.673568 -0.009654 0.669458
-0.674458 -0.687456 -0.007373
-0.677595 0.017608 -0.673485
-0.010193 0.703850 0.707704
-0.647998 0.679855 -0.024693
0.664254 0.008991 0.662926
0.716916 -0.695558 -0.021015
0.665109 0.008530 0.664194
-0.673761 -0.688385 -0.009350
0.005100 -0.685193 -0.636874
-0.011191 0.704846 0.710015
0.717730 -0.696810 -0.019234
-0.676882 0.019103 -0.676200
-0.012173 0.705786 0.709110
-0.673720 -0.010162 0.667613
0.004019 -0.685228 -0.634603
0.715841 -0.696905 -0.020299
-0.003972 0.660650 -0.701375
-0.676710 0.019029 -0.674776
0.663119 0.007328 0.662118
-0.677730 0.019259 -0.675633
-0.647938 0.681997 -0.024489
-0.675468 0.019136 -0.675935
-0.678400 0.016746 -0.675554
0.027653 -0.664146 0.667237
0.664827 0.008726 0.662015
0.604308 0.646632 0.017343
-0.673225 -0.010193 0.667700
-0.649192 0.682702 -0.025658
0.672457 0.024503 -0.662998
0.027037 -0.663382 0.668586
0.603375 0.643973 0.018540
-0.005643 0.659510 -0.699354
-0.011757 0.704885 0.711036
-0.011582 0.704478 0.709326
0.604695 0.646611 0.017802
0.663837 0.008672 0.661110
0.602914 0.647137 0.017753
-0.012655 0.703584 0.710181
-0.648662 0.679553 -0.023362
-0.676703 0.020975 -0.673908
-0.010447 0.702859 0.710056
0.003153 -0.685238 -0.634948
-0.005732 0.660664 -0.700545
-0.645372 0.680081 -0.024440
-0.679212 0.018988 -0.675658
0.005036 -0.684064 -0.636259
0.665569 0.008099 0.662641
-0.675526 -0.687648 -0.009542
0.673427 0.021484 -0.663773
0.603506 0.645035 0.016877
0.603811 0.647552 0.017673
0.670774 0.025331 -0.662947
-0.673739 -0.689293 -0.007070
-0.010892 0.704278 0.709116
-0.011663 0.705379 0.709421
0.003706 -0.686403 -0.634774
0.715821 -0.696095 -0.020329
-0.003958 0.658520 -0.700908
0.027048 -0.663353 0.668397
0.029015 -0.663221 0.667522
-0.674849 -0.686493 -0.008638
-0.673391 -0.687022 -0.007156
0.716172 -0.695896 -0.019791
0.603006 0.645953 0.018417
-0.011345 0.703666 0.710850
-0.005126 0.661914 -0.700501
-0.678513 0.018572 -0.675482
0.005452 -0.685121 -0.635447
-0.673536 -0.008323 0.668784
-0.672588 -0.010074 0.668258
0.717683 -0.696164 -0.020151
0.671542 0.023264 -0.663245
-0.647213 0.682149 -0.023449
0.026572 -0.663454 0.667918
-0.013571 0.705006 0.709629
-0.012540 0.706370 0.709722
-0.674422 -0.008746 0.668293
0.029910 -0.662920 0.667986
-0.009290 0.704816 0.710625
0.675729 0.021736 -0.664912
-0.675978 0.019360 -0.674969
0.003791 -0.684127 -0.636614
-0.645122 0.681040 -0.024233
0.672640 0.023018 -0.663091
-0.647664 0.681195 -0.024155
-0.004188 0.660647 -0.699413
-0.677366 0.017428 -0.674658
0.029124 -0.663772 0.667289
-0.011402 0.703500 0.707802
0.604589 0.645622 0.016420
-0.675215 -0.686651 -0.007996
0.674981 0.023288 -0.662934
0.004478 -0.684771 -0.636368
-0.006307 0.660117 -0.699934
-0.648379 0.679312 -0.023835
0.664611 0.007353 0.663082
0.003969 -0.684197 -0.636490
0.717292 -0.696527 -0.020762
-0.674885 -0.688235 -0.007934
0.663831 0.007360 0.662308
0.025966 -0.664049 0.668519
0.673401 0.024964 -0.663556
-0.647180 0.680466 -0.024013
0.674978 0.024080 -0.661880
0.674465 0.024297 -0.664061
0.674843 0.025245 -0.663692
-0.673403 -0.009445 0.668871
0.003807 -0.683630 -0.635330
0.664876 0.009317 0.663311
-0.012138 0.704053 0.710911
-0.006944 0.661051 -0.699064
-0.013111 0.705577 0.710178
0.005642 -0.684901 -0.634939
0.717533 -0.694944 -0.020458
-0.646995 0.680562 -0.026373
-0.010839 0.703337 0.710375
-0.646595 0.680240 -0.024712
0.673603 0.026158 -0.664897
0.603537 0.646734 0.018613
0.003760 -0.683909 -0.638005
0.663972 0.008006 0.664171
-0.005822 0.659992 -0.699012
0.603384 0.646764 0.017581
0.663733 0.008689 0.664335
0.663524 0.008586 0.661512
-0.646851 0.681712 -0.023945
-0.648663 0.682493 -0.024573
0.003857 -0.684874 -0.637773
0.673503 0.023776 -0.661722
-0.648413 0.681692 -0.024812
-0.675709 -0.688839 -0.008447
0.665255 0.008971 0.662234
0.664490 0.006944 0.663545
0.718263 -0.695709 -0.019030
-0.674328 -0.009462 0.667594
0.027818 -0.663623 0.665933
0.602513 0.645942 0.018058
-0.672673 -0.010156 0.667889
-0.674808 0.020951 -0.673167
-0.647807 0.681518 -0.024687
-0.675596 -0.689431 -0.007783
0.674334 0.024971 -0.662717
0.601487 0.645761 0.017148
-0.671929 -0.010744 0.669506
-0.673935 -0.009098 0.668523
-0.674440 -0.689154 -0.008675
0.715930 -0.696985 -0.019109
-0.674325 -0.689233 -0.007519
-0.648195 0.680697 -0.025580
-0.675194 -0.688610 -0.007972
0.603251 0.645854 0.018434
0.673327 0.023529 -0.663665
-0.012445 0.705565 0.709013
0.027801 -0.664295 0.667252
-0.005410 0.660445 -0.701508
0.004639 -0.684813 -0.634757
