OFF
256 0 0
-0.696046 -0.012388 0.650271
-0.664957 0.702193 0.014202
-0.035719 -0.678157 -0.664212
-0.666425 0.703417 0.015980
0.023139 0.665566 -0.643867
0.024380 0.666365 -0.642392
-0.697843 -0.011495 0.652067
0.668247 -0.649288 -0.043452
0.667919 -0.652510 -0.042633
0.024078 0.666776 -0.642138
-0.702749 0.018897 -0.656339
-0.665674 0.703105 0.014940
0.015852 0.712980 0.680784
-0.701910 0.019539 -0.657134
-0.696730 -0.013436 0.653743
0.666800 -0.650068 -0.041538
-0.035553 -0.677814 -0.664167
0.017220 0.712677 0.680764
0.696322 0.650730 -0.009449
0.023744 0.664782 -0.642755
0.660476 -0.015098 0.674480
-0.034763 -0.679344 -0.664767
0.658641 -0.014153 0.675892
-0.036691 -0.678340 -0.665119
0.695909 0.646871 -0.008882
-0.701598 0.018884 -0.655351
-0.701116 0.018754 -0.654868
-0.684194 -0.695620 0.020375
0.696769 0.648632 -0.008777
-0.700642 0.019581 -0.657206
0.022069 0.665576 -0.642731
-0.035520 -0.677851 -0.663060
0.667616 -0.650844 -0.041793
-0.683154 -0.695145 0.019700
0.698137 0.646952 -0.007599
-0.681625 -0.694116 0.019834
-0.666271 0.702534 0.012914
-0.701805 0.020359 -0.654452
-0.005292 -0.693890 0.663504
0.659756 -0.015793 0.674846
0.722286 -0.003676 -0.694469
0.696078 0.649216 -0.007138
0.022835 0.667038 -0.644800
-0.666223 0.702234 0.013660
-0.682659 -0.695040 0.021999
-0.695801 -0.012157 0.653013
-0.665693 0.702272 0.015509
0.024158 0.666688 -0.644282
0.659668 -0.012958 0.674567
-0.035850 -0.679091 -0.664148
-0.681345 -0.694244 0.019849
-0.695657 -0.010005 0.652392
0.661553 -0.014340 0.673908
-0.004493 -0.693606 0.665385
-0.033470 -0.677037 -0.664157
0.023516 0.665866 -0.642724
-0.680966 -0.695387 0.021599
-0.667160 0.703753 0.013630
-0.682343 -0.697197 0.021459
0.024151 0.668359 -0.642595
-0.005669 -0.696160 0.661186
-0.683084 -0.695584 0.019946
0.723557 -0.005615 -0.692121
-0.666341 0.702304 0.014736
-0.035554 -0.678588 -0.666300
0.016896 0.713276 0.679901
0.695845 0.648827 -0.009404
-0.681579 -0.694155 0.020761
0.023277 0.665888 -0.642611
0.721550 -0.004868 -0.692344
-0.703423 0.019586 -0.654847
-0.704001 0.019397 -0.654994
-0.696483 -0.011853 0.652056
-0.666054 0.700586 0.014313
-0.683888 -0.694872 0.019105
0.023142 0.666007 -0.644262
-0.701662 0.019590 -0.655279
0.666890 -0.652410 -0.041637
0.024063 0.665462 -0.643216
0.696893 0.648032 -0.007832
0.024419 0.666441 -0.642572
-0.681190 -0.695177 0.021710
-0.683316 -0.696067 0.021037
0.659966 -0.016249 0.673903
0.024002 0.665258 -0.643106
0.698708 0.647611 -0.008222
0.666851 -0.652748 -0.041885
0.668129 -0.651067 -0.040737
0.024220 0.665839 -0.643954
0.018093 0.712610 0.680135
-0.667124 0.703890 0.014565
0.666678 -0.650339 -0.043279
0.697670 0.648744 -0.008468
0.025396 0.667741 -0.643325
0.659045 -0.014799 0.675873
-0.701709 0.017842 -0.657826
0.667307 -0.651236 -0.040957
0.661101 -0.014631 0.674285
0.016974 0.713225 0.682082
-0.004620 -0.693644 0.661455
-0.004712 -0.695507 0.662551
0.660330 -0.013837 0.675104
-0.682974 -0.696728 0.020396
-0.034318 -0.677755 -0.665174
-0.701930 0.018689 -0.656717
0.666241 -0.651203 -0.041270
0.666583 -0.650813 -0.041155
-0.695227 -0.010336 0.651153
-0.003424 -0.694328 0.663260
0.697331 0.648102 -0.007581
0.695975 0.648695 -0.007122
0.660290 -0.014375 0.673910
0.722864 -0.003673 -0.690974
-0.702324 0.019599 -0.655914
-0.697225 -0.011334 0.651139
0.696536 0.650021 -0.006182
0.022694 0.666950 -0.643030
-0.034406 -0.675881 -0.664480
-0.665887 0.704179 0.014587
0.722005 -0.005535 -0.691607
0.721976 -0.005346 -0.692896
-0.003358 -0.696351 0.663234
-0.667436 0.702994 0.015118
0.722771 -0.006045 -0.691561
0.024527 0.667097 -0.645969
-0.695392 -0.010509 0.650650
-0.682509 -0.696276 0.019384
-0.701937 0.019687 -0.655709
0.721142 -0.004311 -0.691461
0.721197 -0.005683 -0.692320
-0.035410 -0.676201 -0.665068
0.659199 -0.016270 0.674652
0.722124 -0.003591 -0.692495
0.722758 -0.005510 -0.692138
0.721156 -0.004660 -0.693200
-0.703041 0.018203 -0.655865
0.721936 -0.004031 -0.692084
0.023743 0.666197 -0.642360
0.666489 -0.651291 -0.042097
-0.696728 -0.011923 0.650631
0.659869 -0.013923 0.674776
-0.003567 -0.695834 0.664520
-0.682476 -0.696832 0.020292
-0.696237 -0.013072 0.651553
0.023935 0.667381 -0.641193
0.720658 -0.004930 -0.692936
-0.667626 0.702624 0.015646
0.667180 -0.650716 -0.040261
-0.035552 -0.677942 -0.664688
0.667951 -0.649810 -0.043378
-0.664248 0.702317 0.015185
0.017243 0.714034 0.679981
-0.696917 -0.011001 0.652947
-0.703145 0.018601 -0.655121
-0.664910 0.704910 0.016122
0.720099 -0.003517 -0.692956
-0.703210 0.018728 -0.656341
-0.701523 0.018071 -0.656377
-0.666859 0.703157 0.014253
-0.666263 0.701729 0.014106
-0.003882 -0.694639 0.663677
-0.665449 0.703610 0.015444
0.022892 0.665133 -0.644220
0.657925 -0.012207 0.674826
-0.696815 -0.009794 0.650460
0.722397 -0.003712 -0.691928
-0.666733 0.703370 0.014142
-0.696062 -0.011438 0.650620
-0.681034 -0.695848 0.020769
-0.698000 -0.011925 0.651990
0.695896 0.649147 -0.009098
0.666436 -0.651616 -0.042914
0.017663 0.712854 0.680371
0.721799 -0.005802 -0.691549
-0.694108 -0.012231 0.651623
0.696280 0.649074 -0.008216
0.661734 -0.014470 0.674404
0.697638 0.650394 -0.007580
-0.666802 0.701181 0.016041
-0.695884 -0.012187 0.651980
-0.663983 0.702937 0.014435
-0.697177 -0.012365 0.651706
-0.682438 -0.696055 0.021602
0.669246 -0.652004 -0.042426
0.015872 0.713180 0.678728
0.721664 -0.003545 -0.691908
0.665744 -0.650869 -0.042864
-0.702043 0.020087 -0.656080
0.697961 0.648529 -0.007617
0.667038 -0.650409 -0.042520
-0.001476 -0.694090 0.662636
0.720636 -0.004225 -0.692183
0.660307 -0.014867 0.676238
0.661306 -0.013826 0.673462
0.658936 -0.014445 0.676293
-0.701904 0.020809 -0.655849
0.666005 -0.649781 -0.042601
-0.666652 0.703118 0.015022
0.721208 -0.004629 -0.691681
-0.665359 0.703583 0.015635
0.664940 -0.651678 -0.041494
-0.701675 0.019632 -0.654813
0.660067 -0.014093 0.674923
-0.701738 0.019794 -0.655040
0.722734 -0.002968 -0.692397
0.721324 -0.003809 -0.691101
0.667196 -0.648884 -0.042266
-0.667086 0.702447 0.015422
-0.683286 -0.695499 0.021082
-0.005091 -0.695043 0.663479
0.660163 -0.013539 0.674467
-0.697990 -0.011954 0.652097
-0.697053 -0.011866 0.651011
0.016252 0.714258 0.681119
0.720600 -0.005573 -0.692397
0.660736 -0.012092 0.673998
-0.702496 0.019414 -0.655912
0.722856 -0.005943 -0.692966
-0.664236 0.703452 0.015867
0.668055 -0.653425 -0.042933
-0.701614 0.021227 -0.657135
-0.006167 -0.695968 0.662212
-0.004318 -0.694453 0.663422
0.694808 0.648424 -0.008209
-0.695841 -0.014124 0.651838
-0.702659 0.019366 -0.656162
0.723092 -0.005436 -0.692378
0.723107 -0.004020 -0.693113
-0.682882 -0.695448 0.019179
-0.033680 -0.678865 -0.664024
-0.696419 -0.012464 0.650761
-0.702692 0.018741 -0.653549
-0.666005 0.703582 0.015247
-0.701650 0.017796 -0.653714
0.721721 -0.002871 -0.693171
0.016782 0.713499 0.680760
-0.666247 0.703412 0.015295
-0.666701 0.701172 0.015586
-0.666309 0.704627 0.014363
-0.666070 0.702717 0.013099
0.022283 0.665296 -0.643954
-0.004946 -0.696261 0.663414
0.695991 0.649250 -0.009107
-0.700429 0.019953 -0.655512
0.723252 -0.004021 -0.690654
0.660613 -0.014727 0.673618
0.697231 0.650388 -0.008106
-0.034184 -0.676459 -0.663628
-0.695980 -0.010829 0.650858
-0.704228 0.020302 -0.657230
-0.697134 -0.010980 0.651589
-0.680826 -0.695142 0.019813
-0.003593 -0.696170 0.663911
0.721693 -0.004357 -0.690914
0.023085 0.666410 -0.642372
0.666731 -0.653260 -0.042938
