OFF
256 0 0
-0.696433 -0.674339 -0.007167
-0.660612 0.722340 -0.027691
-0.695057 -0.673888 -0.009169
-0.002333 -0.711304 -0.659593
-0.658659 -0.007630 -0.688603
0.717342 -0.003186 0.697724
0.004835 0.715781 -0.695957
0.662021 0.643709 -0.002779
0.623130 -0.049444 -0.669100
-0.696088 -0.677694 -0.007573
0.717537 -0.001807 0.697555
-0.696145 -0.676514 -0.009579
0.715529 -0.002323 0.696675
-0.660183 -0.009535 -0.690498
0.001797 -0.655601 0.699191
-0.661314 -0.008808 -0.688280
0.696507 -0.684945 0.021463
-0.001108 -0.654015 0.697606
0.622484 -0.048494 -0.673514
-0.002746 -0.711867 -0.658908
-0.663000 0.723602 -0.030474
-0.662408 0.724788 -0.029527
0.003569 0.716384 -0.696791
0.002757 0.714991 -0.694519
0.017474 0.689667 0.686207
-0.662443 0.723580 -0.030577
0.019140 0.689545 0.686375
-0.659000 -0.009050 -0.687769
0.019179 0.687997 0.685857
-0.660609 0.721316 -0.030687
-0.660461 0.722066 -0.029593
0.697000 -0.684108 0.018756
0.017332 0.686680 0.687261
-0.697544 -0.677163 -0.006744
0.697620 -0.683296 0.022049
-0.696667 -0.676716 -0.009074
0.661008 0.642039 -0.003781
0.004957 0.714466 -0.695549
0.622063 -0.050725 -0.671591
0.621299 -0.047822 -0.671442
-0.696849 -0.676146 -0.009361
0.698101 -0.683804 0.023403
0.696823 -0.684685 0.022465
-0.661041 0.723305 -0.029687
-0.659821 0.723546 -0.030322
-0.700387 0.018606 0.654222
0.020739 0.687785 0.685878
-0.661935 -0.008678 -0.688021
0.019892 0.689313 0.687253
0.696362 -0.683910 0.020700
0.003648 0.715809 -0.694951
-0.001247 -0.710636 -0.659350
-0.004913 -0.710587 -0.659716
-0.662867 0.721615 -0.028977
0.717349 -0.002005 0.698220
-0.701788 0.017010 0.653708
-0.661312 -0.010026 -0.687658
0.000366 -0.653714 0.696587
0.622496 -0.050495 -0.671019
-0.661978 0.723006 -0.030185
-0.660672 0.724389 -0.029491
0.621927 -0.048824 -0.672584
0.000838 0.715195 -0.697365
-0.661356 -0.009650 -0.689554
0.624235 -0.050117 -0.672097
0.695974 -0.685723 0.020030
0.020214 0.687328 0.687081
0.623625 -0.048383 -0.672053
-0.696446 -0.676645 -0.008259
-0.002325 -0.710049 -0.660177
0.017698 0.688708 0.685419
0.717483 -0.002017 0.697251
-0.698461 0.018814 0.653894
0.695158 -0.682701 0.022053
0.000626 -0.653965 0.698473
-0.000172 -0.656033 0.698888
-0.659672 -0.008632 -0.688870
0.001102 -0.652895 0.697447
0.003582 0.714723 -0.693176
0.623071 -0.048982 -0.671742
-0.696812 -0.676161 -0.006871
0.018834 0.688039 0.685942
-0.003689 -0.709044 -0.658562
-0.659062 -0.008447 -0.689031
0.660702 0.642260 -0.005218
-0.662205 0.721802 -0.030640
0.697759 -0.683572 0.022223
-0.001892 -0.710184 -0.660507
0.660388 0.641717 -0.004324
-0.697801 0.018795 0.651392
-0.662270 0.722544 -0.028726
0.695842 -0.682384 0.022096
-0.659964 -0.009913 -0.686246
0.696401 -0.684325 0.020233
0.715753 -0.001598 0.699315
0.622262 -0.047114 -0.670495
0.019015 0.689251 0.686051
0.019984 0.687848 0.686853
0.000814 -0.654751 0.697210
-0.698784 -0.676810 -0.008870
0.659969 0.641425 -0.004431
0.003821 0.716396 -0.692362
-0.002103 -0.708224 -0.660006
0.716633 -0.001395 0.699400
0.623657 -0.049460 -0.672185
-0.694921 -0.676830 -0.006968
-0.002066 -0.708952 -0.659569
0.000140 -0.654784 0.698345
0.622107 -0.051432 -0.671979
-0.695967 -0.677765 -0.008047
-0.662733 0.722490 -0.028490
-0.659630 0.723966 -0.028834
-0.002550 -0.710652 -0.660649
-0.660434 -0.008600 -0.687264
-0.000243 -0.654815 0.698104
-0.697080 -0.677375 -0.008193
-0.695388 -0.676728 -0.008139
0.000954 -0.654319 0.697374
-0.700170 0.018650 0.654313
0.621310 -0.049952 -0.670826
-0.697502 -0.674500 -0.008093
-0.696250 -0.675991 -0.008329
0.715681 -0.003191 0.697442
0.660404 0.640092 -0.003524
-0.700749 0.018050 0.652281
0.716195 -0.002341 0.698065
0.661289 0.643391 -0.002465
0.003503 0.715638 -0.693078
0.005075 0.716189 -0.697564
-0.701303 0.015868 0.652529
0.697061 -0.684885 0.020902
0.696901 -0.683977 0.022114
0.717310 -0.003119 0.698056
-0.696129 -0.675688 -0.008819
0.000008 -0.655412 0.697299
0.019299 0.688962 0.687805
0.623309 -0.049922 -0.673638
0.019802 0.687755 0.685157
-0.662749 0.722158 -0.029968
-0.699639 0.017403 0.653884
0.623269 -0.051075 -0.673163
0.001071 -0.654447 0.699390
-0.661858 0.722272 -0.033237
-0.002960 -0.711214 -0.661010
0.020991 0.689080 0.686072
-0.660872 0.721542 -0.030511
0.623168 -0.048416 -0.670013
0.715618 -0.003148 0.699377
-0.698217 0.015625 0.653375
0.004439 0.714137 -0.695023
-0.699907 0.018278 0.651158
0.697185 -0.683159 0.020462
-0.657366 -0.009668 -0.687428
-0.660783 0.722779 -0.030541
0.696595 -0.684104 0.020036
-0.696423 -0.676291 -0.007654
0.659577 0.642730 -0.006267
-0.003570 -0.710128 -0.660466
-0.701448 0.017278 0.652724
0.696475 -0.684362 0.020120
-0.661621 0.722078 -0.029329
0.003825 0.715852 -0.695359
-0.659301 -0.010027 -0.687322
-0.658987 -0.008155 -0.688912
0.696673 -0.684635 0.020672
-0.700643 0.017475 0.651827
0.622902 -0.050674 -0.670932
0.697536 -0.683017 0.020203
0.019140 0.686646 0.684588
0.716130 -0.004028 0.697623
0.716416 -0.002871 0.697705
0.003017 0.713208 -0.694211
-0.700981 0.017620 0.653223
-0.003243 -0.710710 -0.658565
0.002243 0.714650 -0.696577
0.715444 -0.002572 0.697380
0.717367 -0.001866 0.696384
0.697028 -0.683555 0.021812
-0.002207 -0.710520 -0.660423
0.004737 0.715131 -0.694159
0.716850 -0.002898 0.695136
0.003018 0.714036 -0.693912
0.658517 0.643073 -0.004125
0.661119 0.642870 -0.003144
-0.661949 0.722546 -0.029485
0.662316 0.641882 -0.003544
-0.000156 -0.654671 0.697280
0.000525 -0.654470 0.700037
0.001745 0.713307 -0.693658
-0.701046 0.014242 0.653671
0.001122 -0.655524 0.698560
-0.661912 0.722842 -0.028860
-0.662248 0.723157 -0.031059
-0.659612 -0.010322 -0.688262
0.002117 -0.653649 0.700118
0.019006 0.688982 0.686537
0.695761 -0.685471 0.018896
-0.661633 0.724881 -0.030763
0.660411 0.641761 -0.004683
-0.661164 0.722323 -0.030677
0.019613 0.687301 0.686057
0.018248 0.689303 0.687747
0.017989 0.688312 0.687175
-0.002055 -0.709884 -0.658966
0.019552 0.687897 0.687847
0.716669 -0.002029 0.697757
-0.697034 -0.675282 -0.006832
0.622430 -0.049350 -0.669834
0.003728 0.715517 -0.692718
0.004530 0.715094 -0.695295
-0.659737 0.722271 -0.030563
-0.696629 -0.676097 -0.009397
-0.658579 -0.007483 -0.686977
0.019419 0.689274 0.685037
0.018994 0.687448 0.686281
0.715536 -0.004798 0.696111
-0.700899 0.015630 0.652293
-0.700971 0.017623 0.651979
-0.700215 0.017572 0.652462
0.658811 0.643113 -0.005766
0.621276 -0.051349 -0.671423
-0.003487 -0.709130 -0.658683
0.019338 0.688008 0.686003
0.003821 0.715802 -0.693979
0.695207 -0.684172 0.023074
-0.659283 -0.007777 -0.688727
0.004107 0.716036 -0.694726
0.019542 0.688100 0.687370
-0.698777 0.019299 0.652869
0.003008 0.716295 -0.695849
0.018621 0.687817 0.686086
0.001340 -0.652918 0.697691
-0.003010 -0.711276 -0.659264
0.021735 0.687305 0.686625
-0.003343 -0.710763 -0.658710
0.000277 -0.654304 0.698036
-0.696442 -0.676892 -0.009381
0.018462 0.687441 0.687082
0.717750 -0.002293 0.696137
-0.700127 0.018110 0.652242
-0.659695 -0.008939 -0.689118
0.018948 0.688677 0.686290
0.659791 0.642093 -0.002164
0.659408 0.641040 -0.004184
-0.696485 -0.676927 -0.006028
-0.660163 0.721246 -0.028882
0.017294 0.688116 0.685279
-0.659464 -0.008938 -0.688390
-0.658052 -0.009084 -0.688546
0.622434 -0.049017 -0.671234
0.696766 -0.684876 0.020971
-0.000211 -0.654232 0.697164
0.621291 -0.049432 -0.670432
-0.661259 0.721732 -0.029880
-0.700171 0.018974 0.654859
0.002189 0.716281 -0.694750
