OFF
256 0 0
-0.168505 0.296026 -0.757770
0.294704 -0.630348 -0.294173
-0.631346 0.294305 -0.292891
0.295057 0.293283 0.629509
0.292905 0.293250 -0.294331
0.293099 -0.169608 -0.757671
-0.631145 -0.170045 0.168012
0.292926 -0.629767 -0.293422
0.758834 -0.631212 0.167710
-0.630221 -0.166763 0.169749
-0.168960 0.293756 -0.757957
0.293699 -0.168939 -0.756466
-0.630969 -0.167150 0.169385
-0.167900 0.758239 -0.294593
-0.631596 -0.169167 -0.756977
-0.630383 0.293503 0.631650
0.292631 0.292662 -0.294285
0.757751 -0.631955 0.167968
-0.167735 0.758137 0.630036
-0.632265 0.758928 0.167028
0.292962 0.756375 0.168972
-0.169866 0.758386 -0.295670
-0.631857 -0.169564 -0.757508
0.757260 0.294200 0.166048
-0.166872 0.294949 -0.756153
0.294683 -0.630417 -0.295977
-0.168250 0.756084 0.631489
-0.630487 -0.629427 -0.295754
0.295264 0.295322 0.630067
0.294801 -0.631977 -0.291867
-0.169958 0.293541 -0.758060
0.757339 -0.167943 0.630372
-0.631987 0.293604 -0.295006
-0.168000 -0.632024 -0.758316
-0.166741 -0.631264 0.168682
-0.168732 0.294587 -0.756657
0.758002 -0.169376 0.631496
0.295606 0.294534 0.632957
0.757293 0.295021 0.168247
0.294327 -0.629490 0.632171
-0.629858 0.295041 0.629295
0.755251 -0.167394 -0.294615
0.295043 -0.168799 -0.758105
0.294917 -0.168610 -0.755852
0.758860 -0.167156 0.630219
-0.169975 0.293582 -0.756084
-0.630146 -0.167166 -0.757666
-0.629339 0.759890 0.165224
-0.631966 -0.167161 0.167876
-0.632340 0.292753 0.631411
-0.167336 -0.631849 -0.757244
-0.169360 0.293827 -0.756007
0.294990 -0.168450 -0.758630
-0.631524 -0.632285 -0.295084
-0.168821 -0.167594 0.630826
0.292907 0.757176 0.167230
0.294238 0.757517 0.168056
0.294330 0.293823 -0.294404
0.296075 -0.630482 0.630837
-0.631026 0.294990 0.630598
0.756953 -0.631088 0.168603
0.295269 -0.631653 0.630501
-0.632467 0.294518 -0.294042
0.293656 0.294610 0.632290
0.294222 -0.630103 -0.293843
-0.167931 -0.630156 0.168073
0.757634 -0.168541 0.630295
0.295648 -0.628282 -0.294109
-0.167631 0.756932 0.629545
-0.630837 0.293395 0.632045
-0.168336 -0.168826 0.632577
0.756957 -0.167008 -0.294509
0.295562 0.757266 0.168849
0.294339 -0.629457 0.630784
-0.631032 -0.632151 -0.295370
-0.631949 0.293863 -0.296398
-0.169001 -0.630237 -0.759423
-0.630712 -0.169891 -0.757512
0.292307 0.294291 0.631408
-0.169305 -0.629648 -0.756327
-0.168173 0.757905 0.630717
0.755944 -0.167984 0.630018
0.758112 -0.168775 -0.291623
-0.167165 0.296035 -0.756294
0.295301 0.294794 -0.294741
0.755700 -0.168834 -0.292891
-0.167443 0.757151 -0.292836
-0.167703 0.758202 0.629839
0.296314 -0.169145 -0.755081
0.757372 0.293734 0.168079
0.293403 0.294967 0.630108
-0.632801 -0.630776 -0.294768
0.295588 -0.166326 -0.756462
-0.629037 -0.168144 -0.756466
-0.168129 0.758624 0.632094
0.295561 -0.631247 0.633030
-0.633409 0.296184 0.631410
-0.631030 0.756099 0.166700
-0.167312 -0.168911 0.632279
0.293751 0.294301 0.629723
-0.632378 0.294514 0.630779
-0.631092 0.758133 0.167664
-0.632120 -0.166407 -0.757742
0.757586 0.295023 0.167725
-0.169602 0.757688 -0.294962
0.756812 -0.632385 0.167970
0.757580 0.293304 0.168823
-0.168596 -0.630962 0.167455
0.293838 0.294448 -0.294663
-0.632560 0.757032 0.168766
0.293273 0.294877 0.633379
-0.169105 0.294982 -0.757027
-0.170179 0.757678 -0.295271
0.293618 -0.630290 -0.296082
-0.629718 -0.631207 -0.295199
-0.169281 -0.630327 0.167830
-0.632395 -0.631535 -0.293927
0.296023 -0.631372 0.631455
0.294277 -0.631460 0.631704
0.294055 0.757241 0.167818
0.758237 -0.631671 0.169200
0.293851 0.293126 -0.293309
-0.167320 0.295910 -0.757327
-0.629545 0.294483 0.632256
-0.631248 0.755444 0.167977
0.757743 -0.169297 -0.293248
-0.168411 -0.632761 0.168919
0.756632 0.295407 0.168472
0.293604 0.294300 -0.293586
0.294670 -0.629922 0.630762
0.758886 0.297312 0.167316
-0.167335 -0.631365 0.168074
0.296053 -0.168086 -0.758490
-0.630099 0.757484 0.168554
-0.169229 -0.630884 0.167846
-0.630256 0.756591 0.167528
0.296138 0.294107 -0.293922
-0.167049 0.754261 0.629216
0.756757 0.294580 0.168682
-0.168083 0.293291 -0.756296
-0.630096 0.294820 0.630970
0.757446 0.294054 0.169027
0.296752 -0.168678 -0.754658
0.757880 -0.629395 0.167270
-0.629577 0.295604 -0.295418
0.294155 0.295325 0.630487
-0.168527 0.294549 -0.754229
-0.168865 0.757508 -0.294051
-0.631530 0.295384 -0.291810
0.756726 -0.169022 -0.295401
0.294027 -0.633032 -0.292911
-0.169354 -0.632280 -0.756980
-0.168876 -0.629598 -0.756367
-0.167522 -0.631588 -0.756911
-0.167833 0.758129 0.630300
-0.168804 0.756031 -0.293644
0.758796 0.294323 0.168517
-0.168677 -0.631289 0.169268
0.756985 -0.630819 0.168731
0.295497 -0.632528 -0.293209
-0.632891 0.295105 0.629696
0.293695 -0.631046 0.631018
0.756357 -0.166681 0.632527
0.294932 0.294584 0.629421
-0.631377 0.755823 0.167042
-0.168472 0.295750 -0.757603
-0.630697 -0.631000 -0.295581
-0.630344 -0.168385 0.167885
-0.167991 -0.631003 0.168261
0.293615 -0.631032 -0.296133
-0.169665 -0.169070 0.631529
0.757743 0.294541 0.168022
-0.630376 0.293781 0.629120
0.758096 -0.169702 0.631560
0.295077 -0.632057 -0.294447
0.291460 -0.630574 -0.294071
0.294604 0.757090 0.169557
-0.169450 -0.632099 0.168889
-0.631453 0.293140 0.629721
-0.629174 0.754058 0.169102
0.295095 -0.169365 -0.759018
0.295052 0.294504 -0.295089
0.292785 0.757546 0.168718
0.294365 0.296479 -0.293636
-0.167839 0.756339 0.631113
-0.169787 -0.631443 -0.756798
0.755867 -0.168964 -0.295301
0.293607 -0.630196 0.629151
0.758587 -0.168828 -0.296081
0.294718 0.294572 -0.293291
0.757507 0.293799 0.169239
0.758107 -0.169431 -0.294475
0.754846 0.293497 0.168050
0.757491 0.293411 0.169610
-0.168969 -0.168395 0.632892
0.294950 0.293080 0.628191
-0.168448 0.756459 -0.292861
-0.166362 0.757574 0.630608
-0.169287 0.295255 -0.757381
0.757597 -0.166797 0.631929
0.293445 0.294623 -0.296012
0.294870 0.292100 -0.294331
0.757355 -0.166471 0.632167
0.294543 -0.629714 0.630958
-0.167167 0.294287 -0.756926
-0.167925 0.757293 -0.292230
0.755171 0.294092 0.167665
0.756386 0.294251 0.167645
-0.168961 0.758841 0.629976
0.758366 -0.168359 0.630194
0.293938 0.294762 -0.294330
0.757367 -0.168479 -0.295159
-0.168230 0.757709 0.630473
-0.630822 -0.631589 -0.296029
0.294590 -0.630923 0.631745
-0.168839 -0.630892 -0.758250
0.757624 -0.631221 0.166923
0.757211 -0.631122 0.170650
-0.630523 0.295846 -0.293988
0.757751 0.294253 0.167194
-0.630201 0.294130 0.629925
0.292486 0.757358 0.167291
-0.631572 0.294460 0.632466
0.293259 0.757048 0.168497
0.756557 -0.169568 -0.293971
0.757073 -0.630943 0.169016
-0.167779 -0.631853 -0.757149
0.294109 -0.630522 -0.292905
-0.631157 -0.169658 -0.758193
0.294018 0.294216 0.630997
0.295142 0.294771 0.631545
-0.168798 -0.169628 0.631027
0.756408 -0.629624 0.166665
-0.632560 -0.167642 -0.756994
-0.168035 -0.168141 0.630457
0.294117 -0.167967 -0.758437
-0.629992 -0.167891 0.167912
-0.630593 0.294341 -0.295286
-0.628839 -0.169504 -0.755869
0.294016 -0.168653 -0.755434
0.756830 -0.167641 -0.294620
-0.168623 0.759854 0.631854
0.295115 -0.631023 -0.296079
-0.632701 0.295875 -0.294218
-0.630259 0.293515 0.631319
-0.168031 -0.169322 0.630715
0.293627 -0.168597 -0.756716
0.756532 -0.168092 -0.293135
-0.168355 -0.629901 0.167225
-0.629614 -0.168608 -0.755594
0.757956 0.294217 0.167165
0.296744 -0.631661 0.631887
0.758113 -0.168261 0.631024
-0.630489 0.294360 0.630588
-0.167645 0.756803 -0.294781
-0.629646 0.294618 0.631036
