OFF
256 0 0
0.764898 -0.625972 0.153434
-0.191311 -0.622563 -0.753614
0.295025 0.747862 0.191433
0.740840 -0.154759 -0.248237
0.300383 0.335939 0.652886
0.249579 0.283169 -0.283040
0.295032 0.751284 0.190466
-0.639958 -0.196292 -0.733189
0.759128 -0.160615 0.619860
-0.641267 -0.195365 -0.736169
0.293686 0.747624 0.191382
0.250550 0.283630 -0.282955
-0.599035 -0.186014 0.176480
-0.179844 0.771963 0.610573
0.251239 0.281893 -0.283929
0.765122 -0.624605 0.150291
-0.191895 -0.622990 -0.752515
0.300336 0.337405 0.652813
-0.609539 0.744893 0.165692
-0.190592 -0.623182 -0.752126
0.276751 -0.192410 -0.755969
-0.170978 0.288918 -0.782277
-0.160359 0.770167 -0.298751
0.293413 0.749634 0.191064
0.251548 0.280747 -0.283162
0.759051 -0.161517 0.620104
-0.666580 -0.665933 -0.287750
-0.178955 0.768770 0.608533
0.729156 0.292410 0.161756
0.251613 0.282872 -0.282644
0.732426 0.293714 0.162513
-0.179283 0.770443 0.608073
0.252532 0.281977 -0.283698
0.312064 -0.610872 -0.311570
-0.152632 -0.607290 0.159938
-0.639766 -0.196720 -0.734864
0.315030 -0.611701 -0.310600
-0.666066 -0.664233 -0.287475
0.275532 -0.193828 -0.754432
-0.638323 -0.196981 -0.733885
0.252713 0.281656 -0.284242
0.276586 -0.193435 -0.755747
0.295901 0.748742 0.189971
-0.598978 0.279519 -0.262339
-0.168711 0.291567 -0.783993
-0.599051 -0.184255 0.178563
0.312374 -0.628085 0.630230
-0.146721 -0.157617 0.616400
-0.152973 -0.608803 0.160172
-0.638028 -0.195930 -0.733290
-0.169606 0.290504 -0.782747
-0.666215 -0.662951 -0.287707
-0.639478 -0.194586 -0.733184
-0.634352 0.299679 0.584285
0.294196 0.750914 0.191087
-0.598776 -0.186227 0.173391
0.757801 -0.161002 0.622213
0.301434 0.336499 0.650109
-0.189149 -0.623798 -0.752468
-0.153285 -0.607554 0.160450
-0.608301 0.745344 0.163951
-0.180127 0.771012 0.608786
0.756427 -0.162733 0.620280
-0.608380 0.745304 0.164332
-0.151579 -0.608196 0.160638
-0.632691 0.299176 0.583974
-0.639903 -0.196429 -0.733486
-0.179814 0.770837 0.608361
0.764050 -0.625430 0.152395
0.311654 -0.611130 -0.310845
0.249900 0.282445 -0.282279
-0.609711 0.744371 0.162815
-0.610920 0.744802 0.164594
-0.665694 -0.664262 -0.289366
-0.639256 -0.195778 -0.735597
0.313655 -0.629268 0.629967
0.276802 -0.194101 -0.757149
-0.598940 0.280604 -0.263045
-0.171268 0.290415 -0.780796
0.312101 -0.628638 0.629217
0.299950 0.336939 0.653178
-0.158248 0.771066 -0.300052
0.740503 -0.155381 -0.250926
-0.178935 0.770770 0.608737
-0.158789 0.768713 -0.300186
0.310297 -0.628315 0.628916
0.275545 -0.195188 -0.757569
-0.664359 -0.665720 -0.288676
0.276635 -0.195314 -0.755138
-0.180996 0.768160 0.609287
-0.146662 -0.158776 0.616326
-0.599807 -0.187295 0.174852
-0.634154 0.296332 0.585125
-0.634082 0.299714 0.583557
0.765286 -0.624401 0.151286
-0.179730 0.769116 0.608854
-0.191584 -0.623289 -0.752165
-0.147188 -0.156801 0.617423
-0.633595 0.298286 0.584402
-0.179837 0.771758 0.609087
-0.156189 0.769777 -0.298568
0.766269 -0.624349 0.151822
-0.152429 -0.610532 0.161966
-0.153366 -0.607578 0.160230
-0.598433 -0.186702 0.176900
-0.597286 0.279966 -0.264121
0.765862 -0.623994 0.151028
-0.190863 -0.623350 -0.752855
0.738092 -0.156541 -0.248941
-0.598209 -0.185380 0.175298
0.759708 -0.162306 0.619907
-0.611054 0.743568 0.164285
0.251775 0.281888 -0.282791
-0.609708 0.743430 0.165129
-0.633400 0.297670 0.584282
0.276161 -0.195165 -0.756330
-0.632269 0.298078 0.584490
-0.191120 -0.622501 -0.754950
0.300301 0.339763 0.653869
-0.598565 0.280878 -0.264398
-0.598310 -0.186777 0.173916
0.292992 0.750071 0.190309
0.737560 -0.155837 -0.248369
-0.178834 0.770074 0.609855
0.730734 0.292677 0.162328
-0.598345 0.279341 -0.265492
0.276357 -0.194845 -0.757800
-0.639545 -0.194950 -0.733572
-0.633855 0.298011 0.583364
-0.598426 0.279600 -0.260509
-0.665041 -0.665398 -0.290047
-0.157708 0.769011 -0.299589
-0.170704 0.290943 -0.783347
-0.667602 -0.664979 -0.288293
0.251815 0.282336 -0.283539
-0.179146 0.770228 0.608689
-0.611288 0.745627 0.164541
-0.169122 0.288681 -0.781424
-0.632098 0.298508 0.584408
-0.633798 0.298196 0.584466
-0.665818 -0.665102 -0.288335
0.759672 -0.161755 0.619736
0.732323 0.294250 0.162428
0.766447 -0.624426 0.152096
0.275710 -0.194658 -0.754863
-0.169674 0.291507 -0.781395
-0.145576 -0.157731 0.616817
0.766367 -0.624402 0.152860
-0.600806 -0.185116 0.175411
-0.190546 -0.622294 -0.752475
-0.154527 -0.609250 0.160633
-0.665326 -0.664401 -0.289046
0.251920 0.281659 -0.284220
0.312973 -0.625855 0.630365
-0.598713 -0.184717 0.175772
-0.640970 -0.197637 -0.733822
0.294136 0.748775 0.192087
0.312646 -0.611039 -0.309324
0.298103 0.337086 0.653676
-0.599853 -0.184977 0.175403
-0.598419 0.280364 -0.263289
0.294556 0.750254 0.190531
-0.144982 -0.158683 0.616704
0.295949 0.748375 0.190539
0.731180 0.292556 0.162651
-0.191095 -0.623480 -0.753484
0.732568 0.291843 0.161885
-0.639177 -0.197852 -0.733970
-0.190413 -0.622631 -0.754306
-0.633660 0.297133 0.584309
0.297639 0.338354 0.653874
-0.153103 -0.607957 0.162420
0.757448 -0.160514 0.619660
0.294697 0.748098 0.190565
0.730293 0.290070 0.161794
-0.634432 0.298645 0.585724
-0.159207 0.769376 -0.300274
-0.189280 -0.622504 -0.753669
0.765444 -0.625095 0.151751
-0.639136 -0.196502 -0.731962
0.731786 0.291778 0.163476
-0.666724 -0.664600 -0.288031
-0.632670 0.299818 0.584320
-0.639295 -0.195971 -0.735981
-0.598021 0.279711 -0.261352
-0.146150 -0.157479 0.616313
-0.609585 0.742998 0.164717
-0.665862 -0.666450 -0.289775
0.311774 -0.611768 -0.310490
-0.598557 0.279688 -0.264277
0.252883 0.281847 -0.284554
-0.191644 -0.621181 -0.752732
-0.157123 0.770370 -0.298356
0.299529 0.337278 0.651339
0.739669 -0.155250 -0.249924
0.251704 0.282018 -0.282261
0.739943 -0.155403 -0.248654
0.733049 0.292486 0.164278
0.300429 0.337062 0.649778
0.739434 -0.155781 -0.247737
-0.158077 0.768498 -0.299958
-0.151745 -0.607700 0.160404
-0.156739 0.768630 -0.300989
-0.609445 0.744028 0.165419
0.276394 -0.192597 -0.756174
-0.190968 -0.622867 -0.752519
-0.610073 0.743669 0.166011
-0.153593 -0.609468 0.160840
-0.158774 0.770122 -0.300066
-0.634296 0.298480 0.583801
-0.147007 -0.157850 0.616029
-0.156129 0.768914 -0.299309
-0.599065 0.279711 -0.262095
-0.611286 0.744059 0.165272
-0.598965 0.280640 -0.262052
-0.611274 0.743682 0.166165
0.295042 0.748295 0.192537
-0.601426 -0.186181 0.175150
-0.191420 -0.622088 -0.754907
-0.169947 0.289884 -0.782854
-0.597072 0.278964 -0.262904
0.300910 0.338176 0.649055
0.740629 -0.154818 -0.250001
-0.152245 -0.609883 0.162466
-0.177891 0.771994 0.608608
0.298366 0.338899 0.653536
-0.151369 -0.609466 0.161529
0.313999 -0.610498 -0.310270
0.250667 0.280558 -0.283519
0.730184 0.291187 0.163521
0.730969 0.293595 0.164458
0.765236 -0.626096 0.152959
-0.666850 -0.665813 -0.287242
-0.171342 0.290795 -0.781998
0.759188 -0.161849 0.618800
0.298548 0.338012 0.652669
0.250925 0.283153 -0.282716
0.295264 0.749405 0.190992
-0.159304 0.767989 -0.297330
-0.151763 -0.607526 0.159846
-0.600283 -0.186997 0.174779
0.313293 -0.628304 0.628467
-0.600514 -0.186224 0.175856
0.275525 -0.193743 -0.756087
-0.600483 0.280189 -0.263632
-0.170245 0.288278 -0.781709
0.277397 -0.193624 -0.756243
0.764206 -0.624274 0.153196
0.312048 -0.609798 -0.309375
-0.153770 -0.609713 0.161093
0.299228 0.337289 0.651926
-0.190825 -0.623509 -0.751997
-0.167691 0.291049 -0.780654
-0.601260 -0.186568 0.173183
-0.179807 0.772231 0.607132
0.730744 0.293610 0.162716
