OFF
256 0 0
-0.675727 -0.019629 -0.671994
0.008754 0.642479 0.704611
0.006357 -0.630203 0.624036
0.013585 0.648841 -0.651403
0.013537 -0.661966 -0.679463
0.716536 -0.699458 -0.009408
0.643766 0.049369 0.673003
0.008215 0.642129 0.704418
-0.697528 -0.672520 0.003362
0.681101 -0.010101 -0.698303
0.644098 0.050277 0.675941
-0.670618 0.658477 0.049154
-0.696254 -0.673688 0.002343
-0.693806 0.010061 0.691079
0.015133 0.647570 -0.652181
0.010578 0.641446 0.704868
0.680719 -0.009875 -0.698700
0.715596 -0.699093 -0.009022
0.679194 -0.010780 -0.698582
0.643942 0.049449 0.675074
-0.697567 -0.673245 0.004090
-0.676863 -0.021512 -0.674239
-0.672524 0.659600 0.048840
0.011126 -0.660345 -0.680551
0.009757 0.643371 0.702347
0.009944 0.644555 0.703465
0.655208 0.682572 -0.033572
0.013711 0.648300 -0.652421
0.009652 0.641592 0.704810
0.010266 0.642691 0.704633
0.681747 -0.008010 -0.697622
0.006560 -0.628836 0.627670
0.008014 0.644262 0.704116
0.716292 -0.698831 -0.008545
0.680252 -0.009412 -0.698990
0.013288 0.646353 -0.651053
-0.670797 0.659278 0.048716
0.645339 0.049814 0.673727
0.012433 -0.660302 -0.680332
-0.691579 0.008815 0.688196
-0.697813 -0.673907 0.003350
0.012016 -0.661474 -0.682027
0.007443 -0.630531 0.627081
-0.674951 -0.019875 -0.673385
0.642801 0.050271 0.675256
0.016207 0.647737 -0.651981
-0.693154 0.012076 0.691217
-0.698394 -0.674125 0.002905
0.655468 0.681409 -0.032748
0.009826 0.641893 0.706301
0.654692 0.679987 -0.033514
-0.675196 -0.019103 -0.675668
-0.699871 -0.672929 0.004721
0.715729 -0.699367 -0.009590
-0.676979 -0.019459 -0.673409
0.014314 0.647489 -0.652099
0.005915 -0.627537 0.626612
0.012037 -0.661496 -0.678678
-0.677236 -0.019383 -0.675005
-0.676561 -0.019078 -0.673615
-0.693649 0.010968 0.690272
-0.669997 0.657655 0.050621
0.642936 0.049575 0.673987
-0.676946 -0.019025 -0.674287
0.007811 -0.630251 0.626050
0.680298 -0.010590 -0.698932
0.011768 -0.660659 -0.681463
0.009943 0.642289 0.704398
0.681798 -0.009594 -0.698723
0.012221 -0.660849 -0.680686
0.005524 -0.629802 0.627491
0.682230 -0.008390 -0.698144
0.714741 -0.699704 -0.008927
-0.692692 0.008080 0.689963
-0.697293 -0.674445 0.000328
-0.692926 0.010805 0.691394
0.010350 0.644169 0.705976
0.715458 -0.697288 -0.008720
0.006140 -0.629973 0.625603
0.006013 -0.629232 0.625879
0.713827 -0.698850 -0.006979
0.006620 -0.629874 0.625399
0.007731 0.646215 0.705191
0.012947 0.645792 -0.653907
-0.674484 -0.018205 -0.673448
0.717076 -0.698060 -0.009594
0.645118 0.048685 0.672227
-0.675737 -0.019039 -0.672910
0.655866 0.681981 -0.034637
0.715441 -0.698509 -0.008243
0.006520 -0.630440 0.626956
0.715077 -0.699753 -0.007880
-0.676591 -0.019947 -0.674022
-0.692264 0.010514 0.691141
0.644026 0.048303 0.673628
0.009555 0.642169 0.704129
-0.694426 0.010130 0.692173
0.012267 -0.662702 -0.681005
0.011943 -0.659291 -0.681204
-0.693968 0.011013 0.690869
-0.672500 0.658059 0.047772
-0.698924 -0.674566 0.002825
0.004811 -0.628962 0.625976
0.011598 -0.661001 -0.679990
-0.672261 0.658586 0.047281
0.646054 0.047794 0.672950
-0.696608 -0.673475 0.003284
0.644800 0.050937 0.672933
0.004357 -0.628840 0.625973
0.010205 0.644969 0.705066
0.715277 -0.697785 -0.007765
-0.671455 0.657665 0.047006
0.717491 -0.698821 -0.009278
0.011866 -0.662253 -0.678490
-0.698364 -0.673157 0.004225
-0.691672 0.008737 0.689445
0.654249 0.681034 -0.032642
-0.694425 0.010394 0.691726
0.645072 0.049606 0.674205
-0.675513 -0.018364 -0.672764
0.014082 0.647659 -0.652380
0.005263 -0.627562 0.625555
0.681887 -0.008282 -0.698008
0.010052 0.642568 0.705339
0.681017 -0.010313 -0.699297
-0.697355 -0.673273 0.003350
0.016064 0.647229 -0.654005
0.006265 -0.628695 0.625896
0.015190 0.647399 -0.651007
-0.699206 -0.672481 0.002770
-0.698375 -0.672007 0.002429
0.006640 -0.628274 0.625913
0.012930 -0.660494 -0.680543
0.008683 0.643055 0.704282
0.015126 0.646981 -0.650936
0.009839 0.646179 0.703932
0.011605 -0.662503 -0.679001
0.680817 -0.008271 -0.698009
0.714846 -0.697485 -0.008186
0.681994 -0.008497 -0.698484
-0.671761 0.655896 0.049279
0.014041 0.646945 -0.650744
0.013021 0.647102 -0.653226
0.653735 0.680743 -0.035330
0.007237 0.642494 0.704306
0.004541 -0.630045 0.627335
-0.674590 -0.018341 -0.674752
0.645991 0.048422 0.675108
-0.692844 0.008239 0.688933
0.011828 -0.660682 -0.681655
0.004233 -0.629092 0.625999
0.653832 0.680592 -0.034880
0.645863 0.048574 0.672638
-0.698691 -0.673103 0.002658
0.004750 -0.629883 0.626017
0.012854 -0.661837 -0.682038
0.010835 -0.659649 -0.682611
0.012928 0.646410 -0.651947
0.653499 0.681015 -0.031634
0.644797 0.050100 0.673674
0.015071 0.647735 -0.653995
-0.669840 0.658159 0.048265
0.011968 0.646953 -0.652798
0.644368 0.049404 0.674418
-0.674895 -0.017448 -0.673267
-0.677427 -0.018525 -0.673941
0.009279 0.644184 0.704080
-0.675920 -0.019607 -0.675011
0.646309 0.049001 0.674841
0.015974 0.646945 -0.651436
0.645160 0.049126 0.672069
0.682621 -0.009491 -0.698281
0.013711 0.647159 -0.650577
0.646024 0.047181 0.674164
0.014992 0.646940 -0.650822
-0.676644 -0.019260 -0.675292
-0.675302 -0.019393 -0.673580
0.655678 0.683146 -0.034296
0.013482 -0.661686 -0.681608
0.645166 0.049051 0.673254
-0.691820 0.009486 0.690990
-0.670753 0.659075 0.048039
-0.673310 0.658652 0.049328
0.655130 0.680918 -0.031032
0.013863 -0.661302 -0.680964
-0.676490 -0.020018 -0.672244
-0.693492 0.010734 0.691842
0.011649 -0.660477 -0.679937
0.654880 0.678468 -0.033870
0.679756 -0.007683 -0.697836
0.716980 -0.698910 -0.008846
0.656916 0.681810 -0.035353
0.715327 -0.697860 -0.008749
0.680165 -0.009126 -0.699372
-0.697201 -0.674104 0.001432
0.010039 0.643390 0.703427
0.682125 -0.009461 -0.698863
0.653781 0.680342 -0.033438
-0.693644 0.012294 0.690482
-0.694045 0.009294 0.691506
-0.699076 -0.672182 0.003515
-0.673476 0.656000 0.048098
0.680904 -0.010258 -0.697856
0.715582 -0.698187 -0.009425
0.680700 -0.009996 -0.699435
-0.676454 -0.019738 -0.677101
0.010446 0.642277 0.704382
-0.676279 -0.019800 -0.672806
0.009701 0.644004 0.705600
-0.677894 -0.018778 -0.672522
-0.698900 -0.672344 0.003281
0.014860 0.646989 -0.651621
-0.672355 0.659050 0.047523
0.008752 0.644870 0.705338
-0.693418 0.009734 0.691538
-0.698045 -0.673223 0.000756
0.645312 0.050156 0.674023
0.014136 0.648578 -0.651826
-0.674659 0.658888 0.047555
-0.673788 -0.020039 -0.673676
0.717884 -0.698162 -0.007792
-0.693041 0.009088 0.692261
0.643347 0.048475 0.673449
0.644219 0.048248 0.673371
0.013874 0.646969 -0.651065
0.011258 -0.662727 -0.679792
-0.671002 0.658368 0.048272
0.654850 0.682457 -0.034649
0.716139 -0.696446 -0.007974
0.007463 -0.629050 0.624098
0.007832 0.641653 0.705145
-0.671474 0.657066 0.046247
0.716221 -0.698083 -0.008315
0.654873 0.680802 -0.035526
-0.696925 -0.673197 0.001996
0.716892 -0.698249 -0.008442
-0.692504 0.008694 0.689934
-0.697307 -0.672309 0.003918
0.643705 0.048874 0.674813
-0.695109 0.009467 0.689681
-0.674346 -0.017911 -0.675119
0.655957 0.682887 -0.032091
0.012374 -0.662328 -0.680802
0.014123 0.646784 -0.652528
0.716424 -0.697733 -0.008514
-0.697701 -0.673755 0.001011
0.006233 -0.628762 0.626794
0.009028 0.643734 0.705013
-0.693337 0.010035 0.689504
-0.670922 0.659421 0.049207
-0.671534 0.657347 0.047608
0.680833 -0.009182 -0.698145
0.005424 -0.628213 0.627026
-0.676318 -0.019758 -0.673507
0.678906 -0.009475 -0.697485
0.681772 -0.008807 -0.698318
