OFF
256 0 0
-0.290714 -0.260799 -0.284572
-0.764892 0.160540 0.626963
0.581153 -0.693988 0.140266
-0.263932 -0.743799 0.153466
-0.296019 -0.273955 0.615038
0.164103 0.142568 0.617795
-0.296338 0.150944 -0.769116
0.169782 0.588398 0.161401
0.653370 0.594076 -0.285182
-0.296928 0.150600 -0.768440
0.604018 0.150406 0.177533
-0.738677 0.182961 -0.275659
0.619225 0.162994 -0.760513
-0.298065 0.150695 -0.768376
0.579202 -0.695651 0.138137
-0.292733 -0.262667 -0.285461
-0.296191 0.634028 -0.287687
0.158696 -0.304777 -0.760040
-0.293423 -0.274058 0.615850
0.592466 -0.267322 -0.303369
-0.764217 0.163052 0.623909
0.152329 -0.743864 0.629641
0.607719 0.150532 0.175671
-0.744915 -0.286576 0.176608
0.622784 -0.277468 0.642961
-0.738723 0.183998 -0.274891
-0.725899 0.615518 0.192841
-0.264359 -0.743030 0.153226
0.591967 -0.267342 -0.302107
0.156583 -0.304634 -0.761290
-0.738093 0.183443 -0.275817
-0.296631 0.148411 -0.768234
-0.296316 0.150507 -0.768558
-0.288500 -0.260751 -0.286416
-0.745466 -0.284126 0.176421
0.152559 -0.746394 0.630257
0.655184 0.596474 -0.284269
-0.295982 0.149823 -0.768610
0.157721 -0.305599 -0.759635
0.170798 0.589064 0.163311
0.176333 0.601095 -0.715850
0.618451 0.162281 -0.759751
-0.296493 -0.271957 0.616743
0.608131 0.150569 0.175143
0.606824 0.149027 0.177373
-0.739228 0.184400 -0.276706
0.591340 -0.267889 -0.303060
-0.290813 -0.262006 -0.285148
0.607361 0.149944 0.176474
-0.249985 0.611225 0.623771
0.607270 0.150141 0.175033
0.157295 -0.306564 -0.758642
0.623041 -0.276666 0.641874
-0.727394 0.617882 0.191869
0.579674 -0.694582 0.139496
0.176325 0.601379 -0.713914
0.590241 -0.267384 -0.302220
-0.297858 0.634761 -0.288337
-0.738984 0.183712 -0.275261
-0.763189 0.161372 0.624274
0.171593 0.587897 0.163877
0.152487 -0.745296 0.627387
0.171388 -0.742213 -0.315530
-0.293657 -0.274213 0.616122
0.590717 -0.269235 -0.302714
-0.294944 -0.270992 0.616722
0.591611 -0.267533 -0.304699
0.591466 -0.266037 -0.302394
0.151153 -0.743037 0.627932
0.654164 0.594935 -0.283684
0.150624 -0.746176 0.629855
0.608629 0.150300 0.175087
-0.295650 -0.272058 0.614351
-0.296265 -0.273799 0.615952
-0.745716 -0.286033 0.176654
0.622092 -0.279921 0.642168
0.152235 -0.745605 0.628661
0.592439 -0.266644 -0.302433
-0.737806 0.184179 -0.274878
-0.296249 0.633661 -0.286665
0.589469 -0.268341 -0.303430
0.607174 0.149355 0.176888
0.163873 0.142820 0.618140
-0.265435 -0.743194 0.156765
0.170771 0.589065 0.163168
0.651746 0.597014 -0.284931
-0.296254 0.635429 -0.288764
-0.290947 -0.262404 -0.286003
0.165026 0.141752 0.617352
0.156318 -0.304563 -0.759878
0.606816 0.151136 0.174220
-0.740002 0.185268 -0.274702
-0.289755 -0.262452 -0.285060
0.622991 -0.278191 0.640295
-0.725291 0.614974 0.191336
-0.745396 -0.286421 0.179228
-0.764503 0.162314 0.624771
-0.296066 -0.272190 0.615513
-0.264471 -0.744413 0.154461
0.171867 -0.740041 -0.316425
-0.296144 -0.271685 0.615600
0.163660 0.142956 0.615849
0.621246 -0.279110 0.640229
0.580332 -0.694527 0.138079
-0.296035 -0.273392 0.615930
-0.289282 -0.261388 -0.286108
-0.289763 -0.261882 -0.285735
0.591283 -0.265395 -0.301579
0.171992 -0.741632 -0.317723
0.652682 0.594671 -0.283045
0.164261 0.141938 0.619346
0.164689 0.141844 0.617146
-0.296265 0.634297 -0.287405
-0.249833 0.610770 0.625090
0.150697 -0.744296 0.628568
0.653989 0.595189 -0.285590
-0.290377 -0.262265 -0.285849
-0.262832 -0.743783 0.154746
0.151093 -0.744394 0.629430
-0.296816 0.634640 -0.287588
0.581611 -0.695779 0.137629
0.162894 0.142583 0.619681
-0.725558 0.615945 0.192146
0.177179 0.601328 -0.714110
-0.296570 0.635671 -0.286733
-0.252494 0.611644 0.625397
-0.763232 0.164042 0.626745
0.593151 -0.266826 -0.300561
-0.764792 0.162318 0.625958
0.623003 -0.278511 0.641545
0.170427 -0.742313 -0.314937
0.605904 0.152366 0.173847
0.163352 0.143225 0.617357
-0.264121 -0.742685 0.153307
-0.289589 -0.262666 -0.283195
-0.726242 0.618033 0.192594
0.618139 0.162923 -0.760328
0.591420 -0.268901 -0.303570
-0.736833 0.182996 -0.277156
0.156724 -0.306608 -0.757675
-0.744254 -0.285804 0.176111
0.609363 0.151498 0.174839
-0.737646 0.182973 -0.272215
-0.745750 -0.286002 0.175967
-0.763763 0.162297 0.624898
-0.726021 0.616382 0.192228
0.162168 0.140815 0.618244
-0.296568 -0.273103 0.616399
0.157678 -0.305973 -0.758266
-0.265174 -0.741043 0.154431
0.169312 0.588513 0.161859
0.171651 -0.743003 -0.316379
-0.745034 -0.285087 0.177026
-0.746178 -0.286900 0.175630
-0.725647 0.617226 0.193219
0.149928 -0.745717 0.629083
0.624355 -0.279063 0.641130
0.171401 0.589146 0.162548
-0.746200 -0.284816 0.176864
-0.251752 0.610432 0.625032
-0.746097 -0.286978 0.178438
-0.290107 -0.262512 -0.285895
-0.738353 0.183033 -0.277090
0.622470 -0.278747 0.641802
0.606490 0.152144 0.173379
-0.295804 0.635207 -0.287793
-0.763517 0.161719 0.623009
-0.295380 -0.272403 0.615406
0.590350 -0.266821 -0.302343
0.172343 -0.742550 -0.316304
0.590239 -0.266237 -0.303170
-0.295734 0.634887 -0.287413
0.617527 0.162573 -0.758884
-0.293920 0.151148 -0.767474
0.179345 0.599587 -0.713907
0.622962 -0.277578 0.642306
-0.292133 -0.260607 -0.285883
0.607397 0.151093 0.175803
-0.737860 0.184214 -0.275723
-0.736908 0.183468 -0.275598
-0.296581 -0.271412 0.615290
-0.765179 0.161653 0.623086
0.165348 0.143298 0.619037
0.151936 -0.746207 0.630206
0.655353 0.595032 -0.283796
-0.297076 -0.272282 0.616758
0.591432 -0.266909 -0.304781
0.177845 0.600567 -0.714135
-0.290408 -0.262153 -0.287152
-0.726326 0.615316 0.191751
0.608388 0.152122 0.175176
0.151126 -0.746053 0.628958
-0.289362 -0.264235 -0.285152
0.622459 -0.276369 0.642075
-0.725602 0.615977 0.190753
-0.739964 0.183081 -0.275409
-0.252452 0.611237 0.624819
0.177521 0.600469 -0.714010
0.590521 -0.267042 -0.304715
-0.252263 0.611971 0.624132
-0.743193 -0.287320 0.178885
-0.251306 0.610506 0.626145
0.621599 -0.279306 0.641873
0.609068 0.151655 0.176309
0.653297 0.595478 -0.284642
0.654099 0.596015 -0.283261
0.178163 0.600913 -0.713045
-0.763107 0.161815 0.625381
0.609084 0.152434 0.175161
0.607410 0.151477 0.175973
-0.738552 0.183011 -0.276045
-0.737609 0.184440 -0.273813
-0.746392 -0.287595 0.174083
-0.297394 0.150747 -0.768471
-0.296503 0.635089 -0.287724
0.170653 0.589068 0.163652
0.163242 0.140799 0.618877
0.622300 -0.281420 0.642986
0.623768 -0.277938 0.640788
-0.262543 -0.743988 0.153499
-0.294811 0.150925 -0.768522
-0.725756 0.615292 0.190783
0.172061 0.589520 0.162505
0.591608 -0.267295 -0.302654
-0.294455 0.149926 -0.766999
-0.266388 -0.742247 0.153557
0.176936 0.600433 -0.713199
0.619229 0.162230 -0.759139
-0.726292 0.614688 0.192979
-0.297181 0.632985 -0.287897
0.618461 0.162057 -0.760101
-0.292759 -0.259532 -0.286178
0.176466 0.600111 -0.713475
-0.295143 -0.273365 0.615743
0.152446 -0.744472 0.629897
0.172425 -0.741311 -0.317128
-0.295989 0.149986 -0.770053
0.163727 0.143126 0.619857
-0.765485 0.163701 0.623806
-0.745261 -0.287838 0.176197
0.623639 -0.279470 0.641581
-0.298168 -0.271738 0.616712
0.176637 0.601305 -0.713237
0.654131 0.594498 -0.284597
-0.264569 -0.743815 0.155145
-0.297536 0.634173 -0.286801
-0.296504 0.150354 -0.768584
-0.290716 -0.263218 -0.285028
0.175834 0.597961 -0.715416
0.590846 -0.267837 -0.303397
-0.297497 0.150724 -0.767534
0.592939 -0.267245 -0.301109
-0.266272 -0.744393 0.154303
-0.252028 0.610952 0.624792
0.654390 0.594547 -0.285351
-0.726544 0.616320 0.192226
