OFF
256 0 0
-0.755848 -0.168330 0.294331
0.631325 -0.632038 0.294246
0.630002 0.295037 0.295639
0.167586 0.756557 0.295046
0.630893 -0.630671 0.294168
-0.757318 -0.168551 0.294422
-0.293380 -0.169397 0.755050
-0.292817 -0.632416 -0.630614
-0.293928 0.758708 -0.168063
0.167556 -0.630886 -0.167698
0.629750 0.293812 0.293341
0.167773 -0.633246 0.757808
0.168533 0.756817 0.293865
0.631518 0.758726 -0.169664
0.630528 -0.631154 0.293289
0.631014 -0.168103 0.757243
-0.293848 0.295336 -0.631076
0.167027 -0.631796 0.756204
0.168762 0.758650 0.293566
-0.294978 0.759495 -0.167348
0.631603 0.754967 -0.169234
0.629291 -0.169351 0.756239
0.630559 0.295264 0.293577
0.167123 0.756125 0.294430
-0.294221 -0.630507 -0.630938
0.633107 0.296502 -0.630536
0.632011 0.295615 -0.630021
-0.295242 0.293720 -0.632156
0.630635 -0.167979 -0.167465
-0.756610 0.293985 -0.167602
-0.296198 -0.631583 0.292387
0.632088 0.757769 -0.168992
-0.755035 -0.629498 -0.168603
0.630808 -0.631483 0.293140
-0.292295 -0.630169 -0.632696
0.631423 -0.630981 0.294782
0.167378 0.757671 -0.631876
0.168216 0.754576 -0.631595
-0.757939 -0.168784 0.295156
-0.294631 0.294122 0.293587
0.166417 0.757764 0.294958
0.631890 0.294041 0.293707
0.630447 -0.167789 -0.167821
-0.756390 0.295522 -0.166617
0.167875 0.296410 0.757788
-0.758403 -0.167931 -0.631503
-0.295532 0.294067 -0.629911
-0.758312 0.292914 -0.167435
-0.756945 -0.168598 -0.632277
-0.757129 -0.630196 -0.168254
0.169722 0.756669 -0.630882
-0.293708 0.758287 -0.167526
-0.294097 0.293979 -0.630415
0.631224 0.758487 -0.168890
0.632159 -0.169250 -0.169025
-0.294025 0.295509 0.295653
-0.756549 0.293786 -0.168932
-0.758471 0.294053 -0.167437
-0.293208 -0.631764 -0.630003
0.168638 -0.630850 -0.168420
0.630282 0.757841 -0.166660
-0.757659 -0.169169 -0.632315
-0.757159 -0.167499 -0.631088
0.169137 0.759525 0.294235
-0.295915 0.756734 -0.168200
-0.292616 -0.168712 0.756747
0.170525 -0.630947 0.756662
0.630179 0.294618 -0.630638
-0.294557 -0.631148 -0.629480
-0.294891 0.293983 0.293216
0.629196 0.293806 -0.630716
0.630866 -0.168432 0.757638
0.628769 0.758209 -0.168462
0.168651 0.757791 -0.630647
-0.757980 -0.630700 -0.170224
0.168687 -0.631377 -0.169163
-0.758752 -0.167274 -0.632001
0.630725 -0.169368 -0.167822
0.166923 -0.631836 -0.170779
0.169950 0.756998 -0.627805
0.631069 0.295462 -0.633078
-0.755402 0.295384 -0.169480
0.630963 -0.168711 0.757141
-0.758165 -0.633332 -0.170036
0.168762 -0.630946 0.756549
0.168838 0.293280 0.758587
0.168008 0.756887 -0.632621
0.631493 -0.169365 -0.168170
-0.757705 -0.169064 -0.632346
0.630492 -0.631578 0.292046
-0.757354 0.296825 -0.168582
-0.759695 0.294388 -0.169966
-0.294580 -0.631065 -0.633329
0.169489 0.296402 0.758135
0.167172 0.758436 -0.633229
-0.294440 -0.630044 0.293908
-0.294277 -0.631328 -0.631116
0.631971 -0.166198 -0.168108
-0.294512 -0.630762 -0.631817
0.630316 0.293605 0.294391
-0.756006 -0.168406 -0.629151
-0.294646 0.293028 -0.630505
-0.758264 0.293562 -0.168297
-0.756970 0.294606 -0.167594
-0.294981 -0.630527 -0.630164
-0.293898 0.294349 -0.631932
-0.757638 -0.630968 -0.167073
0.169038 0.293643 0.757176
0.168183 0.294546 0.755472
0.168193 0.757569 -0.630214
0.168017 -0.169222 -0.631935
-0.295299 -0.167738 0.758632
0.630292 0.756349 -0.169260
0.629960 -0.169690 -0.167689
0.167516 0.296382 0.757684
-0.757188 -0.167037 0.293768
-0.294563 -0.632204 -0.630769
0.168451 0.757682 -0.632646
0.630983 -0.168124 0.756423
0.630532 -0.169238 0.758575
0.630949 0.758052 -0.168441
-0.295108 0.294689 -0.631051
0.632008 -0.629472 0.293157
-0.295421 -0.631581 0.294553
0.169772 0.757752 -0.631228
-0.754576 -0.631976 -0.167211
0.630258 0.295241 -0.631426
0.632246 0.295512 0.293841
0.632479 -0.168533 -0.168871
-0.757314 0.296557 -0.168130
-0.294242 -0.632336 -0.631003
-0.756117 -0.168951 0.293405
-0.293020 0.295378 -0.630516
0.630957 -0.630975 0.295459
-0.294923 0.295031 0.294832
0.629579 -0.167589 -0.167436
0.168186 -0.633088 -0.166736
-0.293356 0.294138 -0.630199
0.629964 0.758198 -0.167660
-0.295172 0.292872 -0.630774
-0.756711 -0.631372 -0.166814
-0.756395 0.296011 -0.167930
-0.294875 0.293080 -0.630502
0.630540 0.293175 0.295825
-0.757622 -0.167280 0.291807
0.630224 0.758456 -0.166517
0.630813 -0.631817 0.294111
-0.295522 0.292564 -0.630111
-0.759270 0.293549 -0.166489
-0.757754 -0.169397 -0.630512
0.167156 0.757449 0.294464
-0.756983 -0.166490 -0.631964
0.168684 -0.631243 -0.168078
0.169556 -0.631217 0.758682
-0.295070 0.293196 0.293879
-0.756589 -0.167892 -0.630732
0.167105 -0.167788 -0.630947
0.168461 -0.630164 -0.168804
-0.293300 0.295096 -0.631708
0.631111 0.756853 -0.166098
-0.293227 0.292257 0.293500
-0.293734 -0.631034 0.294278
0.632543 -0.631733 0.294039
0.631487 -0.630838 0.292868
0.630087 -0.167578 0.758016
0.631012 0.293217 0.294424
-0.759558 0.292247 -0.167544
0.167891 -0.167309 -0.629460
-0.758096 0.295960 -0.167479
-0.294987 -0.630791 -0.632225
-0.294686 -0.630224 -0.628447
-0.754728 -0.630909 -0.168116
0.631925 0.294500 0.295530
0.631618 0.295046 -0.631393
0.630429 0.757090 -0.169162
-0.295035 0.757368 -0.168100
0.168704 0.293668 0.757403
0.169781 0.756228 -0.630449
-0.294948 0.294396 0.293904
-0.757367 -0.631251 -0.169655
0.631027 0.294258 -0.632640
0.170720 0.293768 0.758213
-0.757246 -0.168459 0.293651
0.167916 0.757326 0.294912
0.631310 0.295889 0.295196
0.632799 -0.631605 0.294504
0.633009 -0.166916 0.756474
0.167944 0.293828 0.756887
0.167859 0.757576 0.292813
-0.294025 -0.631136 0.294994
0.632420 -0.168170 0.756935
0.633717 0.295624 0.294686
-0.296004 -0.168268 0.757703
0.630270 0.293839 -0.630697
-0.294643 0.295419 -0.629939
-0.756435 0.294013 -0.167401
0.631136 0.294622 -0.630266
0.169494 -0.629527 0.756617
-0.759483 -0.168442 -0.628748
-0.759151 -0.167421 -0.632177
0.167246 0.294158 0.757000
-0.293515 -0.631672 0.294511
0.170093 -0.168270 -0.630322
-0.295617 -0.630177 0.293719
-0.294892 0.756128 -0.167420
0.629557 -0.167559 0.757151
0.169669 -0.632748 -0.168572
-0.295570 -0.631798 -0.630354
-0.297408 -0.630595 0.294445
0.631780 0.757054 -0.168979
0.167728 0.757028 0.294200
0.168060 -0.166079 -0.632502
0.632217 0.294228 0.293517
0.168411 0.293395 0.757182
-0.293891 0.757699 -0.167589
0.171180 0.755603 -0.631418
-0.293701 0.756683 -0.166560
0.169213 0.758136 -0.630487
0.631819 -0.168363 -0.167872
0.167892 0.758257 -0.632702
-0.294530 -0.628774 0.294094
0.632373 0.293757 0.294396
-0.293154 -0.168999 0.756183
-0.295722 0.295304 -0.631449
0.629702 0.294345 0.293786
-0.756762 -0.168990 -0.632030
0.168970 -0.168712 -0.630095
0.631486 0.756510 -0.167554
0.629862 0.757361 -0.170002
0.629572 0.757478 -0.168150
-0.295850 0.293948 -0.631842
0.630422 -0.170333 -0.165053
0.167278 -0.633406 0.757371
-0.293841 -0.630909 -0.628637
-0.294818 -0.169663 0.759384
0.166235 0.757744 0.293667
-0.294023 0.293655 -0.633737
0.631007 -0.169014 -0.167219
0.168888 0.294177 0.758258
0.166860 0.758311 -0.631879
0.168402 -0.632879 -0.166360
0.168607 0.757916 0.296373
-0.294045 -0.171046 0.758951
-0.757396 -0.167516 -0.631277
-0.295186 -0.631691 -0.630642
-0.292343 0.757368 -0.169460
0.631221 -0.168076 0.755946
-0.293564 0.756988 -0.168500
-0.293707 0.755483 -0.168445
-0.295041 -0.169372 0.758036
-0.293404 -0.629120 -0.630651
-0.294013 0.295063 -0.631543
0.167445 -0.630335 0.757648
-0.757172 0.294114 -0.168639
-0.755815 0.293447 -0.167976
-0.296226 -0.632104 0.292672
