OFF
256 0 0
0.165429 0.780581 -0.585732
0.163954 0.780024 -0.582230
-0.286619 -0.153585 0.728968
-0.276449 0.288863 0.275642
-0.716386 0.265452 -0.153477
-0.287030 -0.153319 0.728355
-0.740902 -0.135102 -0.614431
0.163377 -0.634430 -0.183646
0.161084 -0.635145 -0.184713
-0.319437 -0.604638 -0.627453
0.180172 0.746758 0.262189
0.164359 0.778086 -0.584607
0.150344 -0.165042 -0.613987
0.178956 0.747473 0.260654
-0.269739 -0.590209 0.270964
-0.741629 -0.133144 -0.612002
0.579808 -0.587806 0.278674
0.610620 -0.193157 0.749613
0.610226 -0.172332 -0.185784
0.636560 0.255588 0.293549
0.186529 0.280979 0.728326
0.610662 -0.173562 -0.184821
0.162962 -0.635482 -0.184378
0.608646 -0.172505 -0.186142
0.637114 0.724008 -0.150498
-0.743831 -0.171271 0.274568
0.158922 -0.635199 -0.185970
-0.319995 -0.604946 -0.627393
-0.269775 -0.588525 0.271018
0.612396 -0.194264 0.749785
-0.276185 0.289794 0.277223
0.638428 0.722561 -0.150423
0.150864 -0.165313 -0.615429
0.160677 -0.630305 0.762168
-0.268607 0.291852 -0.595477
0.578593 -0.586596 0.278898
0.638474 0.723126 -0.148777
0.634296 0.255899 0.293083
-0.307279 0.725726 -0.162031
-0.286072 -0.153569 0.728903
-0.285416 -0.153023 0.728476
0.181713 0.746338 0.261473
0.162599 -0.634432 -0.185641
0.609854 -0.191078 0.750466
-0.744761 -0.172110 0.276120
-0.741479 -0.134687 -0.613926
0.604407 0.288352 -0.597811
0.162445 -0.634273 -0.185293
-0.268405 0.292949 -0.596873
-0.284380 -0.152667 0.730313
-0.266894 0.293839 -0.594610
0.186229 0.280322 0.727056
-0.319568 -0.605972 -0.628097
0.179575 0.746475 0.262306
-0.319630 -0.606546 -0.628443
-0.746625 -0.172261 0.275151
0.150074 -0.164438 -0.613469
0.634015 0.253387 0.292981
-0.748997 -0.613430 -0.154275
0.603930 0.292088 -0.597391
-0.271244 -0.589884 0.274673
-0.739854 -0.134358 -0.612380
0.612291 -0.174612 -0.185216
-0.744056 -0.170055 0.275946
-0.286042 -0.152949 0.727431
-0.748749 -0.615131 -0.154479
0.611366 -0.194780 0.749010
-0.307527 0.725978 -0.162866
0.638993 0.723842 -0.148451
-0.741020 -0.134479 -0.612951
-0.717139 0.266959 -0.153993
0.186011 0.280572 0.729420
0.161844 -0.633429 -0.185493
-0.319877 -0.604595 -0.627713
0.149391 -0.165276 -0.613493
-0.275041 0.289800 0.275998
-0.276094 0.290136 0.273776
0.610978 -0.194083 0.748262
-0.275471 0.289921 0.275386
0.610569 -0.174985 -0.185904
-0.744037 -0.172353 0.274576
0.634790 0.256741 0.294725
-0.746855 -0.170119 0.273095
-0.718532 0.267098 -0.153056
0.609965 -0.172241 -0.187843
0.185943 0.281383 0.727910
-0.268793 -0.589359 0.272753
-0.270776 -0.588475 0.270841
0.163079 0.781855 -0.582384
0.159620 -0.634430 -0.184468
-0.277081 0.288313 0.275007
0.611657 -0.191856 0.750165
-0.744194 -0.173041 0.276343
-0.318231 -0.603611 -0.627534
0.179356 0.746194 0.261441
-0.267458 0.291642 -0.594284
-0.266998 0.294506 -0.597687
0.609775 -0.192341 0.752199
-0.306010 0.725121 -0.164500
-0.739450 -0.135912 -0.614892
0.634960 0.255539 0.293830
-0.745629 -0.168658 0.275903
0.602938 0.289923 -0.599271
0.163945 -0.634924 -0.183945
0.603942 0.289946 -0.598330
-0.745827 -0.170899 0.275736
0.151490 -0.164408 -0.612995
0.160613 -0.635047 -0.184339
0.610553 -0.192957 0.751054
-0.749012 -0.613540 -0.153977
0.179685 0.745660 0.263636
-0.268522 0.292393 -0.596039
0.611600 -0.174461 -0.186120
0.180801 0.746877 0.262287
0.578534 -0.587763 0.279544
0.610656 -0.174034 -0.185028
-0.307017 0.725063 -0.162543
-0.267930 0.292273 -0.595639
0.611083 -0.192852 0.749081
-0.742161 -0.134551 -0.614834
-0.749543 -0.614983 -0.154366
0.185049 0.280891 0.729430
-0.275919 0.289676 0.274713
0.603895 0.288151 -0.599382
0.186860 0.279412 0.730260
-0.268825 0.292837 -0.596468
0.635550 0.257267 0.294995
0.186725 0.280475 0.729588
0.181138 0.749006 0.262588
-0.717512 0.265724 -0.152367
0.185798 0.280580 0.728393
-0.747358 -0.614169 -0.154096
-0.316952 -0.606073 -0.629341
0.604763 0.288913 -0.599851
-0.306507 0.727695 -0.160798
-0.287065 -0.151993 0.729262
-0.271395 -0.587853 0.271337
-0.719530 0.267975 -0.154131
-0.747473 -0.612586 -0.154886
-0.264888 0.293053 -0.594885
0.633394 0.254489 0.294309
0.161320 -0.634834 -0.184222
-0.320239 -0.602381 -0.629707
0.164367 0.780678 -0.584021
0.164147 0.781550 -0.583704
0.160819 -0.629844 0.763686
-0.266526 0.293340 -0.597067
0.164729 0.780636 -0.583331
-0.741275 -0.133920 -0.612714
-0.271474 -0.589832 0.272396
0.163324 -0.630401 0.760927
0.158942 -0.630270 0.760142
-0.742007 -0.134216 -0.612914
0.160321 -0.632783 -0.185144
-0.718301 0.266854 -0.152104
0.604277 0.290399 -0.597442
0.633702 0.256591 0.291779
0.612119 -0.174862 -0.186214
-0.741636 -0.135553 -0.612025
-0.266871 0.292049 -0.594900
0.186441 0.279364 0.731129
-0.272111 -0.589544 0.270801
-0.267344 0.293311 -0.595639
0.150649 -0.163781 -0.613319
-0.276535 0.289552 0.275049
-0.285837 -0.155095 0.728942
-0.744302 -0.172198 0.276435
0.185779 0.281861 0.730020
0.605621 0.288560 -0.599466
-0.318815 -0.605024 -0.627331
0.162908 0.778860 -0.581519
0.151700 -0.165516 -0.614002
0.161352 -0.631506 -0.183030
0.638656 0.721737 -0.150456
0.576914 -0.588668 0.279400
0.160712 -0.634412 -0.184542
0.611321 -0.193075 0.747953
0.159113 -0.628562 0.760635
0.609625 -0.174373 -0.186207
0.185960 0.281070 0.730595
0.185833 0.280970 0.728881
0.179492 0.747864 0.262436
-0.720041 0.267808 -0.152603
0.184185 0.282783 0.727402
0.164390 0.782136 -0.584627
0.611881 -0.193245 0.749584
-0.307341 0.724493 -0.162751
0.609922 -0.173347 -0.186671
-0.319165 -0.605814 -0.629127
-0.746092 -0.170467 0.275273
0.603873 0.289280 -0.598833
0.611741 -0.172618 -0.184671
0.603620 0.288502 -0.598035
0.180404 0.744766 0.260318
0.164616 0.780354 -0.584150
-0.275322 0.288396 0.275794
0.159994 -0.628161 0.760514
-0.276110 0.288989 0.275376
0.186069 0.279338 0.728915
-0.740254 -0.136191 -0.614891
0.578332 -0.585266 0.277910
-0.320942 -0.605883 -0.626935
-0.307703 0.725177 -0.163339
0.604256 0.288453 -0.598479
0.149917 -0.166971 -0.613561
0.160783 -0.631164 0.761532
0.160574 -0.636867 -0.185010
0.604234 0.288396 -0.600629
-0.266836 0.292380 -0.596605
-0.271003 -0.588552 0.273165
0.638933 0.725023 -0.149880
0.179003 0.747114 0.261470
0.634105 0.254533 0.292489
-0.286567 -0.152723 0.729008
-0.266255 0.294143 -0.594908
0.640191 0.721469 -0.147189
0.161033 -0.630681 0.759984
-0.320810 -0.604218 -0.626769
-0.287827 -0.153504 0.729006
0.150002 -0.164030 -0.613044
-0.270218 -0.590834 0.272878
-0.270936 -0.590391 0.272122
0.610551 -0.173854 -0.184940
0.160124 -0.634212 -0.185099
0.609702 -0.192152 0.749447
-0.306520 0.726822 -0.161409
-0.271980 -0.589837 0.272351
0.180812 0.747390 0.262572
-0.720412 0.268960 -0.153248
-0.271860 -0.588733 0.273742
0.611693 -0.194963 0.750001
0.603884 0.287119 -0.598526
0.611317 -0.192764 0.750954
-0.305969 0.726230 -0.161183
0.161999 -0.633908 -0.183875
-0.745787 -0.172562 0.275370
0.186130 0.280921 0.729031
-0.266299 0.294693 -0.594879
-0.747096 -0.613587 -0.156125
0.641364 0.721796 -0.150929
0.148026 -0.165419 -0.613684
0.639913 0.723209 -0.148226
-0.306046 0.725115 -0.163040
0.610902 -0.173444 -0.184957
0.160890 -0.628739 0.760692
-0.275890 0.290018 0.275367
-0.749552 -0.614089 -0.156776
0.609168 -0.192312 0.750157
-0.268978 -0.589448 0.270782
-0.740759 -0.134352 -0.611524
-0.738826 -0.135920 -0.610444
-0.718013 0.267046 -0.153587
-0.270820 -0.588480 0.270715
0.187608 0.279155 0.729216
0.578885 -0.587888 0.281424
-0.317189 -0.604547 -0.628998
