OFF
256 0 0
0.147895 -0.145148 -0.602704
-0.280837 0.295462 -0.601541
-0.742686 -0.615491 -0.151410
-0.280770 0.292944 -0.603475
-0.724589 -0.173971 -0.633949
0.187787 0.284583 0.774635
0.614777 0.755411 -0.182809
-0.280777 0.297317 -0.602950
-0.309667 -0.186587 0.729900
0.189820 0.283708 0.773252
0.167937 -0.627400 -0.191923
-0.280096 -0.621604 0.276051
-0.725442 -0.172412 -0.633044
0.162085 0.746214 0.284588
-0.744290 -0.613789 -0.152427
0.147984 -0.144417 -0.603640
-0.726341 -0.174337 -0.632542
0.626837 -0.170277 0.747806
-0.286408 0.758873 -0.155935
0.614311 0.757239 -0.183993
0.606343 0.257435 0.292036
0.164016 0.744944 0.286430
0.623061 -0.168955 0.746302
-0.725382 -0.172665 -0.634671
0.190193 0.282839 0.772663
-0.309624 -0.184860 0.729622
-0.279940 -0.615631 -0.616102
0.163536 -0.628355 0.728627
0.607514 -0.603460 0.301189
0.613111 0.306792 -0.614276
-0.309645 -0.186915 0.730152
-0.752313 0.270534 -0.164812
-0.312550 -0.188104 0.730966
0.626434 -0.167607 0.744708
-0.779700 -0.198038 0.285576
0.605636 -0.603336 0.302567
0.161614 0.745135 0.285544
0.168755 -0.626398 -0.192920
0.164468 -0.630630 0.728528
-0.725584 -0.173175 -0.634786
-0.282880 -0.621820 0.277577
0.648150 -0.156894 -0.179949
0.189581 0.281691 0.771121
-0.286003 0.759713 -0.154096
0.604903 -0.604007 0.301737
-0.280487 0.295047 -0.600831
0.164780 -0.630382 0.728617
-0.283668 0.757916 -0.155665
0.189494 0.283529 0.771134
-0.280362 0.295510 -0.604143
-0.741219 -0.614317 -0.150689
0.149191 -0.144985 -0.601156
0.606423 0.257690 0.292010
-0.280960 -0.616129 -0.614995
0.148893 -0.143853 -0.601046
-0.780584 -0.196788 0.286253
0.162281 -0.631387 0.728083
0.168608 -0.628833 -0.192491
0.174575 0.770683 -0.610768
0.604922 -0.604062 0.303678
0.164222 0.745167 0.285582
-0.277458 0.291957 0.288112
-0.743287 -0.615501 -0.154345
0.625040 -0.166995 0.746235
-0.280553 -0.620425 0.276817
-0.752985 0.272095 -0.165666
0.645594 -0.158498 -0.179428
0.162094 -0.631336 0.729044
0.167607 -0.626102 -0.191260
-0.744353 -0.614532 -0.153080
0.644612 -0.157480 -0.179269
-0.312413 -0.185527 0.730523
-0.306887 -0.187176 0.732348
-0.280188 -0.616950 -0.614964
-0.724338 -0.173099 -0.633915
-0.287617 0.757750 -0.155849
0.175257 0.770524 -0.612347
0.166804 -0.626162 -0.191823
-0.727769 -0.174245 -0.634804
0.167062 -0.627943 -0.194436
0.163481 0.746949 0.286183
0.160379 -0.628396 0.728052
0.164053 -0.628753 0.730124
-0.280449 -0.620576 0.276325
-0.309622 -0.187257 0.731189
-0.283692 0.759159 -0.154325
-0.285511 0.760362 -0.154969
-0.280226 -0.616576 -0.614907
-0.309107 -0.185540 0.730931
0.606074 -0.603935 0.303415
-0.280682 -0.620745 0.277391
0.611458 0.305452 -0.615403
0.175358 0.772306 -0.611824
0.163458 -0.630893 0.727967
-0.744546 -0.613577 -0.153734
-0.726021 -0.173118 -0.634073
-0.278904 0.296358 -0.603312
-0.310098 -0.186585 0.731609
0.190323 0.285029 0.770671
0.605164 0.257316 0.289925
0.645200 -0.156130 -0.180298
0.606488 0.256809 0.291370
-0.726767 -0.172676 -0.634287
-0.281611 -0.613521 -0.615750
-0.280107 0.294816 -0.601722
0.189977 0.283403 0.772173
-0.743360 -0.614225 -0.151595
0.613837 0.756388 -0.184013
0.147809 -0.144414 -0.600671
-0.285275 0.758859 -0.154878
0.191435 0.283444 0.771287
0.605503 -0.603765 0.301990
0.163288 0.746502 0.286299
0.606874 -0.603016 0.302405
-0.280945 0.295844 -0.603881
-0.309407 -0.187157 0.730098
0.606316 -0.602931 0.302339
0.607659 0.257741 0.292329
-0.311071 -0.185768 0.731425
0.163518 -0.631149 0.728724
-0.279823 -0.621018 0.275962
-0.725907 -0.173773 -0.635662
0.162891 -0.631267 0.726912
-0.286967 0.759131 -0.153707
0.164086 -0.631424 0.727995
0.167759 -0.626095 -0.191673
0.164480 -0.631879 0.728723
-0.286255 0.757942 -0.154790
-0.285990 0.757937 -0.152539
0.613297 0.305934 -0.614212
-0.280788 0.294988 -0.602825
0.147092 -0.145419 -0.601214
0.169473 -0.626894 -0.192287
0.146816 -0.145251 -0.602860
-0.781160 -0.196332 0.286444
-0.309345 -0.187127 0.730318
-0.285268 0.759383 -0.156530
0.612477 0.302705 -0.613434
-0.280342 0.294867 -0.601705
0.608029 -0.601343 0.302134
-0.281111 0.294911 -0.604263
0.607345 -0.602047 0.303293
-0.281254 -0.617002 -0.616289
-0.276461 0.292052 0.288076
-0.280750 -0.623299 0.277696
-0.279849 -0.614844 -0.616416
-0.278858 -0.620978 0.276594
-0.753181 0.270460 -0.165413
0.607468 0.255621 0.290929
0.605759 0.256482 0.292707
-0.276611 0.291186 0.287685
-0.782121 -0.196945 0.287258
0.147555 -0.144817 -0.601490
-0.280241 0.294183 -0.601413
0.175252 0.771139 -0.612650
-0.282903 -0.621682 0.277408
0.162719 -0.631560 0.728801
0.189005 0.284534 0.773330
0.610762 0.305903 -0.616584
-0.780218 -0.196238 0.286909
-0.281598 -0.615395 -0.615428
0.147851 -0.143953 -0.601334
-0.752697 0.271641 -0.163834
0.174354 0.770156 -0.610850
0.606764 0.255808 0.292982
-0.280942 -0.615726 -0.615667
0.644418 -0.156913 -0.179835
0.613706 0.755127 -0.183663
-0.725616 -0.175938 -0.635770
0.610786 0.305506 -0.615750
0.613433 0.305215 -0.615147
0.613914 0.754743 -0.183403
-0.280447 -0.616163 -0.615385
-0.308461 -0.185509 0.730617
0.162804 -0.630785 0.729345
-0.282173 -0.615981 -0.614520
0.622936 -0.168076 0.746118
0.161850 0.744490 0.285389
-0.753975 0.271932 -0.166188
0.175387 0.773060 -0.611941
0.167789 -0.628793 -0.190952
0.174431 0.770940 -0.610915
-0.281220 0.295289 -0.602623
0.626730 -0.169210 0.743632
-0.280726 0.297645 -0.604783
-0.281224 -0.616573 -0.616218
0.190455 0.285276 0.771570
-0.743032 -0.614607 -0.150589
0.169800 -0.626771 -0.193514
0.605270 -0.602243 0.302945
0.188235 0.284363 0.772723
0.615111 0.754447 -0.184574
0.608137 0.256463 0.290599
-0.725628 -0.171390 -0.635567
0.613475 0.755851 -0.182671
-0.309333 -0.187975 0.731092
-0.724737 -0.174923 -0.636454
0.614247 0.755136 -0.184597
-0.753633 0.273339 -0.165297
0.162207 -0.629776 0.728644
0.169078 -0.624557 -0.192845
0.162134 0.746712 0.287218
0.646091 -0.157508 -0.179270
0.613269 0.756095 -0.184688
0.613903 0.304827 -0.615836
0.607052 0.257688 0.291764
0.146059 -0.144368 -0.601309
-0.724740 -0.174598 -0.631866
0.606156 -0.602415 0.302814
0.625605 -0.168119 0.747191
-0.309888 -0.185923 0.731153
0.625274 -0.168945 0.744623
-0.280030 -0.616177 -0.616379
0.169473 -0.625762 -0.191146
0.614772 0.754346 -0.183774
0.625319 -0.168652 0.744454
0.190172 0.282893 0.773446
0.188457 0.282066 0.771178
-0.279442 -0.621999 0.277280
-0.779166 -0.199409 0.285484
0.169233 -0.625327 -0.193384
-0.725100 -0.173484 -0.635011
-0.275999 0.292835 0.288074
-0.780785 -0.195093 0.287354
0.606991 -0.603325 0.302601
-0.277281 0.290424 0.287111
0.624966 -0.169273 0.746452
-0.282587 -0.621436 0.274258
-0.780165 -0.196233 0.285196
0.173577 0.770740 -0.613332
-0.275863 0.292108 0.288686
-0.280022 0.296682 -0.603833
0.607944 0.256870 0.292107
0.149744 -0.145132 -0.603691
0.168592 -0.628261 -0.191585
0.605756 -0.603239 0.303147
-0.742484 -0.614342 -0.153831
0.612336 0.756390 -0.182921
0.162765 0.744911 0.285395
0.147451 -0.146493 -0.601200
0.163354 -0.631561 0.729873
0.189034 0.283141 0.772372
0.163313 0.745850 0.283785
-0.277596 0.291786 0.288142
0.162328 0.745576 0.286951
-0.275682 0.292111 0.285753
0.613721 0.755227 -0.184239
0.189668 0.282667 0.771141
-0.743883 -0.614283 -0.152878
-0.285230 0.759654 -0.155216
0.146761 -0.145205 -0.601812
0.607048 0.256672 0.291082
-0.278680 0.296372 -0.601805
-0.275976 0.290541 0.287968
-0.310542 -0.186135 0.728559
-0.741643 -0.615027 -0.153895
