OFF
256 0 0
0.597658 -0.594705 0.303172
-0.726640 -0.159356 -0.635396
0.587924 0.295010 0.280463
-0.731304 0.297687 -0.176057
-0.726473 -0.160616 -0.635910
-0.322583 -0.647743 -0.597092
-0.232993 0.259212 0.280042
0.588125 0.293310 0.281434
-0.269709 0.744664 -0.155213
-0.271004 -0.583594 0.272811
0.154614 0.306512 0.763205
0.171257 0.781773 0.286102
0.169241 -0.178383 -0.630580
0.170045 0.712273 -0.640055
0.161704 -0.623185 0.761835
0.607350 0.276608 -0.614498
0.599208 -0.597118 0.301606
0.599826 -0.167635 0.753997
-0.765669 -0.625250 -0.160347
-0.256653 -0.163566 0.758546
-0.254940 -0.163381 0.756231
-0.323044 -0.648623 -0.597173
-0.727450 -0.161831 -0.635325
-0.231923 0.259310 0.278618
-0.731268 0.300033 -0.174843
0.589283 0.294130 0.280726
-0.268112 0.744005 -0.154992
-0.738493 -0.188207 0.298400
-0.321556 -0.648531 -0.595340
0.168785 0.712686 -0.640793
0.619545 -0.185474 -0.177414
0.599794 -0.169376 0.755465
-0.232794 0.261907 0.279993
0.588307 0.293658 0.283281
0.598861 -0.166915 0.754543
-0.737419 -0.184182 0.298868
0.170903 -0.179018 -0.629832
0.588640 0.293782 0.281976
0.162232 -0.623889 0.761843
-0.731950 0.301041 -0.175941
0.598771 -0.596246 0.301143
0.169478 -0.176695 -0.631661
-0.731396 0.300940 -0.176965
0.173321 0.780395 0.285032
-0.735560 -0.186737 0.298107
0.588743 0.293828 0.282603
-0.730198 0.297990 -0.177133
-0.234078 0.259169 0.278982
-0.764923 -0.624582 -0.158261
-0.268154 0.743443 -0.155369
0.620473 -0.184667 -0.176648
0.588679 0.293903 0.282036
0.161950 -0.623583 0.763577
0.606247 0.278161 -0.614823
0.599045 -0.595518 0.302544
-0.270104 -0.584974 0.272237
-0.725910 -0.161555 -0.634730
0.597694 -0.594832 0.301165
-0.736895 -0.184958 0.296469
0.607449 0.274496 -0.613557
0.160788 -0.622517 0.759821
-0.270287 -0.583729 0.273679
0.599850 -0.165830 0.755411
-0.268902 0.745291 -0.155890
0.156982 0.307407 0.760719
-0.288188 0.307473 -0.624497
-0.726641 -0.161519 -0.634557
0.161555 -0.621433 0.760651
-0.255317 -0.161400 0.757039
0.161935 -0.623392 0.762357
-0.737684 -0.186025 0.298012
-0.287919 0.308414 -0.625001
-0.266534 0.744473 -0.154836
-0.323168 -0.650625 -0.597368
-0.731822 0.297562 -0.174924
-0.321464 -0.648748 -0.597013
0.588489 0.292151 0.282243
-0.234538 0.260203 0.277993
0.618953 -0.185543 -0.177042
0.598224 -0.596535 0.301150
0.606591 0.276639 -0.613822
-0.727746 -0.161054 -0.636409
-0.269391 0.743975 -0.155851
0.622861 -0.185695 -0.179072
0.588833 0.293524 0.280428
-0.763537 -0.623129 -0.159204
0.605421 0.277102 -0.613833
0.607411 0.276064 -0.613485
-0.270052 -0.585360 0.274173
-0.255123 -0.161645 0.758469
0.588792 0.293780 0.280840
0.619980 -0.183646 -0.178380
-0.726053 -0.160979 -0.634718
0.167487 -0.620760 -0.188017
0.620727 -0.186308 -0.177420
-0.320716 -0.648584 -0.597562
0.599464 -0.167191 0.753620
-0.725985 -0.162692 -0.634696
0.598290 -0.594716 0.300062
-0.731152 0.301262 -0.176581
0.589676 0.293418 0.282506
-0.232906 0.259811 0.280057
0.586273 0.292591 0.282977
-0.287945 0.306408 -0.620872
0.599791 -0.168389 0.756886
0.606365 0.276574 -0.614939
0.172615 0.782211 0.285883
0.591529 0.755861 -0.156399
0.588668 0.294185 0.281214
0.586080 0.294218 0.281933
0.604171 0.276869 -0.613720
-0.725718 -0.159839 -0.635863
0.587000 0.293525 0.280413
0.598169 -0.595221 0.301449
-0.269072 0.744534 -0.155469
0.606210 0.275186 -0.615119
-0.269497 0.743168 -0.155156
0.599199 -0.168025 0.756228
-0.269325 -0.582696 0.272756
0.605046 0.277544 -0.615051
0.161759 -0.621040 0.761085
-0.270756 -0.583659 0.272857
-0.732651 0.298979 -0.175180
-0.736378 -0.186599 0.297911
-0.724097 -0.162026 -0.633907
-0.322905 -0.646621 -0.596495
-0.765528 -0.624333 -0.159727
-0.725600 -0.162049 -0.635018
0.621186 -0.185381 -0.177943
0.599805 -0.168537 0.753822
-0.256013 -0.161653 0.757588
-0.268511 -0.585245 0.272503
-0.731476 0.299600 -0.173794
0.154819 0.309886 0.762401
-0.236108 0.260200 0.278518
-0.270687 -0.584213 0.271323
0.155589 0.306343 0.762011
0.159957 -0.622033 0.761398
0.597692 -0.167076 0.755478
-0.269626 0.742766 -0.155563
0.588240 0.292395 0.283616
0.599453 -0.168165 0.754562
-0.232252 0.260037 0.279258
-0.727391 -0.162727 -0.634858
0.161888 -0.624762 0.759411
0.162502 -0.623220 0.761070
-0.288134 0.308586 -0.625362
0.161764 -0.624275 0.760143
0.167887 -0.620581 -0.187901
-0.738344 -0.183830 0.298411
-0.322085 -0.646034 -0.597059
-0.725744 -0.161343 -0.634676
0.155303 0.308329 0.762444
-0.268056 0.743686 -0.154357
-0.234912 0.259014 0.279491
0.155117 0.308971 0.763105
-0.735732 -0.186700 0.295507
0.172231 0.779856 0.284691
0.155928 0.307830 0.759908
-0.735290 -0.185772 0.299013
0.174346 0.780775 0.285225
-0.255714 -0.161735 0.757435
-0.288776 0.306487 -0.623117
0.161640 -0.621655 0.761955
0.599432 -0.597372 0.301861
-0.286867 0.308068 -0.622407
-0.267574 0.742418 -0.155284
0.166668 -0.622561 -0.189491
-0.233688 0.259301 0.280071
-0.321377 -0.648967 -0.598121
0.596984 -0.595271 0.300287
-0.271328 -0.586113 0.275273
0.171525 0.782371 0.284603
0.605121 0.276899 -0.614512
-0.287426 0.306531 -0.623813
-0.235478 0.261290 0.278304
0.167189 -0.624097 -0.189125
-0.232183 0.261219 0.277282
-0.730624 0.298060 -0.175831
-0.233997 0.260269 0.278743
0.154431 0.308912 0.763299
0.162399 -0.623086 0.762918
-0.731998 0.298831 -0.177186
0.162496 -0.624646 0.761483
-0.764042 -0.625089 -0.160815
0.167019 0.711640 -0.640310
0.589439 0.755202 -0.157424
-0.255466 -0.162056 0.757640
0.167147 -0.619776 -0.188328
0.161025 -0.623042 0.761759
-0.726044 -0.161451 -0.635453
0.605016 0.275682 -0.613077
0.169189 -0.177076 -0.629498
-0.735991 -0.187237 0.297510
-0.287076 0.306124 -0.624003
0.620379 -0.185628 -0.177062
0.598380 -0.166863 0.754494
0.171908 0.780568 0.285802
0.167029 -0.621870 -0.189731
0.600054 -0.167299 0.754543
-0.286942 0.309309 -0.622977
-0.726883 -0.162053 -0.633736
0.170068 0.712068 -0.641848
0.162311 -0.622951 0.760734
0.168819 -0.178617 -0.630993
-0.257582 -0.163300 0.758147
0.604462 0.276959 -0.613670
0.599146 -0.596174 0.302401
0.171947 0.779933 0.283735
-0.731756 0.300098 -0.176045
0.160649 -0.623399 0.760894
-0.731159 0.298845 -0.175946
-0.725689 -0.161936 -0.633977
-0.287707 0.306510 -0.621955
0.600823 -0.168086 0.755959
0.606385 0.274654 -0.615611
-0.722419 -0.161979 -0.633953
0.169512 0.712447 -0.642046
0.598300 -0.595969 0.300674
-0.321672 -0.648595 -0.597166
-0.738057 -0.186102 0.298801
-0.288811 0.306071 -0.623341
-0.268701 -0.583411 0.270939
0.590061 0.294172 0.283336
-0.285788 0.307190 -0.624644
0.619918 -0.186330 -0.178229
-0.286938 0.308208 -0.622531
0.155669 0.308195 0.762394
-0.325283 -0.648514 -0.597620
0.596306 -0.166035 0.757070
-0.731703 0.297503 -0.176159
-0.739040 -0.186121 0.298912
-0.725163 -0.161734 -0.634875
-0.255963 -0.163745 0.758865
-0.271186 -0.585440 0.272967
0.170311 -0.177105 -0.633262
-0.322274 -0.648996 -0.595822
-0.271200 -0.583288 0.274354
0.590338 0.755660 -0.156541
-0.737471 -0.185012 0.299631
0.171285 0.780847 0.284241
0.154823 0.307253 0.764032
-0.288462 0.307211 -0.623700
0.168523 0.712713 -0.642221
0.598557 -0.167919 0.754345
0.597965 -0.595790 0.302930
-0.724405 -0.161283 -0.634464
-0.736683 -0.187319 0.298476
0.169942 -0.180020 -0.630599
0.161565 -0.623761 0.763479
-0.288378 0.306419 -0.624475
0.587993 0.295873 0.281398
-0.726548 -0.160966 -0.635817
-0.287954 0.307118 -0.625093
0.155607 0.307332 0.760445
-0.286903 0.306284 -0.624673
