OFF
256 0 0
-0.460841 -0.691008 0.254653
-0.461176 -0.691122 0.255129
0.455710 0.675343 -0.227161
-0.018675 -0.710111 0.702213
-0.502305 -0.212268 0.700829
0.455306 0.674474 -0.228280
0.464256 -0.712965 0.269614
-0.461954 -0.689705 0.255631
-0.013483 0.236367 0.713893
0.001604 -0.707332 -0.222551
-0.451968 0.247251 0.229067
0.478347 0.232961 0.232148
0.471844 -0.269164 -0.231488
0.006530 -0.218473 -0.736657
-0.460943 -0.692608 0.255558
0.455352 -0.209905 0.712988
-0.014974 0.722745 0.205030
-0.472774 -0.251935 -0.228707
-0.472419 -0.251690 -0.231236
-0.000043 -0.705893 -0.222983
-0.472370 -0.251782 -0.230242
-0.461262 -0.691089 0.256036
-0.453503 0.248901 0.227899
0.465066 -0.710624 0.269987
-0.015469 0.723069 0.206422
0.454423 0.672525 -0.226730
0.472137 -0.269225 -0.229006
0.452987 -0.209821 0.712704
-0.452776 0.247028 0.230750
-0.504107 -0.210597 0.702347
-0.460943 -0.690730 0.255813
0.477098 0.231422 0.230741
0.476955 0.233252 0.231308
0.007523 0.701839 -0.711690
-0.454297 0.695550 -0.252625
0.478547 0.230725 0.230313
-0.015855 0.236717 0.711803
-0.502363 -0.211358 0.701648
-0.461361 -0.688852 0.255976
0.006821 -0.218193 -0.734693
-0.440046 0.244777 -0.701406
0.453538 0.675744 -0.226750
0.493983 0.226187 -0.707111
0.005608 -0.216829 -0.736339
0.454903 -0.208745 0.711001
0.001017 -0.707289 -0.224330
-0.502886 -0.210101 0.702875
0.472297 -0.268305 -0.230161
-0.461295 -0.691568 0.255290
0.476009 0.233046 0.230887
0.009244 0.702672 -0.712689
0.476638 0.231436 0.233513
0.472227 -0.268245 -0.230747
0.466522 -0.711884 0.269934
0.477954 0.234371 0.229836
0.495429 0.224902 -0.707940
-0.014043 0.722206 0.205693
-0.473369 -0.253326 -0.231265
0.452954 0.674578 -0.228283
0.492440 0.225666 -0.705272
-0.472913 -0.250340 -0.229943
-0.013069 0.236763 0.716209
0.470821 -0.267671 -0.230820
0.007615 0.701064 -0.712591
0.007166 0.701660 -0.714798
-0.012369 0.721201 0.205837
0.476062 0.232784 0.230029
-0.439113 0.244560 -0.702031
0.000925 -0.707849 -0.222593
-0.453081 0.247307 0.228481
-0.016510 0.722284 0.204853
0.477211 0.231473 0.230268
0.465422 -0.711620 0.270735
0.466059 -0.711528 0.268847
-0.012122 0.235638 0.714343
0.476895 0.234738 0.228813
0.464841 -0.712870 0.269383
-0.438642 0.242881 -0.700738
-0.013991 0.721745 0.203894
-0.442814 0.244960 -0.701371
-0.019549 -0.713484 0.701545
0.453938 -0.208723 0.714874
-0.439528 0.245482 -0.699704
0.464989 -0.713078 0.268122
0.009644 0.701486 -0.713224
0.453736 0.674004 -0.228197
-0.451991 0.246795 0.229805
-0.015667 0.721222 0.205108
0.494382 0.223553 -0.705656
0.455971 -0.209084 0.713133
0.453594 0.673924 -0.227140
-0.017213 0.722716 0.206570
-0.440769 0.244317 -0.700088
0.455840 -0.208212 0.713876
0.007702 0.702435 -0.712517
0.470693 -0.269302 -0.232138
0.006784 -0.218915 -0.735334
0.475374 0.232867 0.230002
0.465086 -0.711764 0.269222
0.496497 0.222035 -0.706991
0.454090 -0.210290 0.712751
-0.452098 0.696776 -0.251043
-0.019643 -0.713524 0.701624
-0.015068 0.722387 0.205088
-0.011496 0.235554 0.715082
0.455842 -0.209098 0.712677
0.462683 -0.710380 0.267237
-0.015911 0.721402 0.203914
-0.453573 0.697493 -0.252288
-0.460738 -0.691616 0.256647
-0.013040 0.237059 0.715043
-0.473854 -0.250855 -0.231699
-0.012439 0.236011 0.713485
-0.014763 0.236729 0.714757
0.453829 0.672330 -0.228015
0.009743 0.700685 -0.712401
-0.439067 0.245167 -0.698574
-0.020853 -0.712950 0.701135
0.008209 0.702813 -0.713670
-0.500694 -0.210733 0.704191
0.008607 0.701609 -0.713536
-0.454042 0.695003 -0.254195
-0.473326 -0.251493 -0.232141
0.472104 -0.269510 -0.231649
0.475910 0.230729 0.231854
0.004328 -0.219561 -0.735962
-0.437787 0.245540 -0.699779
-0.011930 0.236118 0.713826
-0.454031 0.696705 -0.251401
0.455922 -0.210197 0.713941
0.000700 -0.707137 -0.223723
-0.440324 0.244556 -0.700498
0.004362 -0.219315 -0.736351
-0.501970 -0.209271 0.702526
0.006343 -0.220237 -0.736051
-0.451272 0.247732 0.230823
0.454038 -0.210731 0.711080
-0.439298 0.246936 -0.699702
-0.452893 0.695355 -0.252226
0.000433 -0.706703 -0.223860
-0.439085 0.243445 -0.700147
-0.451435 0.247819 0.228438
0.477872 0.234929 0.232493
0.006453 -0.217660 -0.734885
-0.502359 -0.210512 0.701681
-0.454341 0.698044 -0.251966
0.477948 0.234125 0.231058
-0.454253 0.696424 -0.252879
0.009356 0.702603 -0.714767
-0.452073 0.247847 0.229115
-0.473186 -0.251796 -0.231849
0.456032 -0.209630 0.713162
-0.018403 -0.713417 0.701902
-0.438681 0.245786 -0.699060
-0.451387 0.247762 0.228317
-0.453133 0.249056 0.229289
0.466420 -0.713096 0.268777
0.000273 -0.705756 -0.224683
0.463890 -0.710440 0.270654
-0.014597 0.234961 0.713209
0.476798 0.233556 0.230332
0.008064 0.701648 -0.713281
-0.438997 0.243558 -0.699946
-0.454121 0.696060 -0.253394
-0.502539 -0.210462 0.702995
-0.013528 0.235944 0.715744
-0.018224 -0.712532 0.703482
0.006762 0.702010 -0.714863
0.453238 0.673186 -0.228473
0.463868 -0.711393 0.272103
-0.013959 0.238086 0.714741
-0.019793 -0.712623 0.701589
0.453400 0.671076 -0.225879
0.463796 -0.711275 0.268707
-0.475465 -0.251611 -0.232238
-0.014451 0.234624 0.715693
-0.452052 0.248530 0.229143
0.453011 0.673404 -0.228030
0.008003 0.702021 -0.713409
-0.452928 0.245158 0.229469
0.465595 -0.712302 0.270571
0.455670 -0.210240 0.712412
0.492865 0.222986 -0.706229
-0.451874 0.248498 0.230686
0.472587 -0.266391 -0.232407
-0.011742 0.234474 0.715370
0.007634 0.700388 -0.712709
-0.000829 -0.705865 -0.224648
0.464306 -0.711489 0.268673
0.455819 -0.209095 0.713445
0.003207 -0.218527 -0.736238
-0.455407 0.698877 -0.252483
0.473558 -0.268565 -0.231443
0.453804 -0.210547 0.715776
0.476863 0.234140 0.229907
-0.019638 -0.710036 0.701162
-0.501678 -0.210618 0.702592
0.476094 0.231363 0.230211
0.478147 0.232961 0.229461
-0.452218 0.247010 0.229492
0.002171 -0.707301 -0.224292
-0.012769 0.236134 0.714355
0.477429 0.232141 0.229453
0.001887 -0.705763 -0.222246
0.471114 -0.267181 -0.230987
0.470016 -0.268518 -0.229290
0.469791 -0.269878 -0.228910
0.453813 -0.208914 0.714673
-0.439706 0.244017 -0.701720
0.475699 0.232645 0.230028
-0.018922 -0.711743 0.702370
0.465249 -0.710926 0.269871
0.475763 0.233230 0.230699
-0.012633 0.237811 0.715007
-0.439461 0.244521 -0.700681
0.465252 -0.713070 0.270886
-0.452995 0.247939 0.230159
0.003702 -0.216486 -0.736931
-0.475160 -0.250994 -0.229744
0.001724 -0.707561 -0.224189
0.476046 0.233754 0.230301
-0.015113 0.722131 0.205832
-0.501061 -0.211199 0.703234
0.001062 -0.705931 -0.224300
-0.453216 0.249473 0.229681
0.454274 -0.209706 0.712303
-0.500000 -0.212137 0.702311
-0.453781 0.696424 -0.255024
-0.013565 0.720536 0.204409
0.455243 0.675682 -0.228730
-0.473623 -0.250303 -0.230238
0.452927 -0.209074 0.713290
0.478024 0.232684 0.231387
-0.502481 -0.210912 0.703085
0.009695 0.701938 -0.712416
0.003995 -0.218238 -0.737438
-0.474748 -0.251085 -0.232067
-0.439381 0.245676 -0.699798
0.477245 0.233683 0.232528
0.453690 -0.209191 0.711555
-0.011189 0.235703 0.714381
0.471714 -0.268937 -0.231457
-0.472854 -0.251048 -0.231772
-0.013915 0.236410 0.713771
-0.460845 -0.692219 0.255575
-0.460291 -0.690982 0.254250
0.464329 -0.712189 0.268932
0.494484 0.224262 -0.705982
0.006798 -0.220264 -0.735755
0.008603 0.700633 -0.713597
0.469934 -0.267017 -0.232546
-0.438920 0.246495 -0.700942
0.470031 -0.267167 -0.230296
0.005912 -0.218036 -0.735190
-0.453175 0.248775 0.230468
0.008253 0.701343 -0.712262
