OFF
256 0 0
0.470821 0.236919 -0.236868
-0.470089 -0.235294 0.235195
0.000313 -0.707471 0.235002
-0.001905 -0.235873 0.709206
-0.471945 0.707705 0.235296
0.000601 0.706517 0.704766
0.470500 -0.705869 -0.234953
0.472285 0.235325 -0.234816
-0.000300 0.236383 -0.706710
0.000653 -0.235914 0.708418
-0.000699 -0.708280 -0.706515
-0.471396 0.235349 0.707263
-0.474199 0.236068 0.708141
-0.471318 -0.703546 -0.236386
-0.470502 0.235769 -0.235091
0.471281 -0.236008 0.237793
-0.470182 0.235112 0.706089
-0.000281 -0.235464 0.708420
-0.471663 0.234702 0.706333
0.470537 0.233633 -0.234852
-0.000617 0.705771 0.706390
-0.001454 -0.236012 0.708417
0.471700 -0.233962 -0.705261
0.473142 0.236997 -0.236748
0.470836 0.234233 0.709253
-0.473110 -0.706760 -0.235815
-0.469953 0.235780 -0.235990
-0.469958 0.234663 -0.236465
0.469733 -0.234259 0.236333
0.470412 0.706249 0.235415
0.000087 0.235873 -0.707665
0.001764 0.235648 -0.707123
-0.471871 -0.237982 -0.708365
0.471491 0.708150 0.236165
-0.000394 -0.233425 0.707729
-0.470303 0.234236 0.707395
-0.001678 0.706331 0.708571
0.471283 -0.704541 -0.234245
-0.471500 0.707302 0.236499
-0.001645 0.707152 0.706012
0.469370 0.707023 0.235395
0.471204 0.234544 0.706764
0.469318 -0.235031 -0.707038
-0.000928 0.234169 -0.707461
0.471278 -0.706243 -0.237779
0.471278 -0.236097 0.236541
0.472995 -0.235338 0.235882
-0.000105 -0.710087 0.235748
-0.471267 0.235403 -0.235031
-0.472249 0.706528 0.234938
-0.469113 0.706978 0.233617
0.471725 0.234988 0.706889
-0.000339 0.708192 -0.234959
-0.470732 -0.706026 -0.235089
0.468348 0.235581 0.706273
0.472589 0.706560 0.233956
0.471079 -0.236760 0.234985
-0.470735 0.235628 -0.236334
-0.471798 -0.236038 -0.707629
0.000014 0.706005 0.707152
-0.474169 0.236129 -0.234878
-0.471802 0.233864 0.707098
-0.472667 0.235758 -0.235925
0.471632 -0.709351 -0.236920
0.471623 -0.236759 0.234800
0.469515 -0.235314 -0.707290
0.472392 -0.707256 -0.235295
-0.473454 0.707379 0.237216
-0.001143 0.707103 -0.235528
0.470899 0.237146 -0.235386
0.470957 -0.234917 -0.708692
0.470264 -0.238198 -0.706953
-0.469807 0.705371 0.236150
0.472819 -0.235203 -0.708741
-0.001442 -0.706793 -0.706957
0.000996 0.235723 -0.707104
-0.002044 0.235180 -0.707998
0.001585 0.705965 0.707462
0.468832 -0.236737 -0.705677
-0.473501 0.235281 -0.236149
0.470113 -0.707803 -0.234359
-0.472171 -0.234586 0.233905
0.469699 -0.706042 -0.234985
-0.000607 -0.236527 0.709512
0.471632 0.236403 -0.235846
0.002088 -0.235852 0.708658
-0.000342 -0.706355 -0.707694
0.000545 0.708219 -0.235812
0.470620 -0.235756 0.236170
0.000309 -0.235135 0.707265
0.000633 -0.705650 0.235726
0.000885 -0.235113 0.706249
-0.000324 0.707952 -0.234678
0.472574 -0.236596 -0.705738
0.471519 0.235828 0.705109
-0.000659 0.705667 0.706780
0.470305 0.707253 0.234890
0.470981 0.235859 -0.235633
0.001679 -0.234141 0.707060
0.473088 -0.234846 0.234572
-0.473040 0.233546 -0.236277
-0.471680 0.706585 0.235374
0.472931 0.235478 0.705880
-0.000793 -0.706816 -0.708058
-0.472315 0.235282 0.705797
0.471819 0.234865 0.706810
-0.000416 0.705762 0.708255
-0.470312 0.236639 0.705229
0.472888 0.236661 0.707204
-0.002396 0.235217 -0.708655
-0.000249 0.705808 0.707611
-0.472897 -0.706263 -0.236311
-0.471934 0.707567 0.235892
-0.471712 -0.235347 0.235854
0.472236 0.235182 -0.234469
-0.471816 -0.234912 -0.706888
-0.471102 -0.234988 -0.708243
-0.472741 0.235400 0.706694
0.471520 0.706434 0.234717
-0.000363 -0.707702 -0.706474
-0.469508 0.235906 0.706586
0.471761 -0.236243 -0.707070
0.000084 -0.237336 0.706733
0.000775 -0.235211 0.707458
-0.470896 0.707264 0.234654
0.470899 -0.233941 0.234398
-0.470394 -0.235728 0.235715
0.472462 -0.235191 0.236335
-0.473165 0.236076 -0.235499
0.000729 0.235000 -0.707994
-0.000939 0.708146 -0.235233
-0.471694 -0.704308 -0.235272
-0.472228 0.235903 -0.236234
0.469933 -0.706105 -0.235419
-0.001360 0.707241 -0.234377
0.000965 0.705913 -0.234940
0.473157 -0.234669 -0.707496
0.470703 0.707725 0.235513
-0.472460 0.706258 0.235607
0.471370 -0.235813 -0.705419
-0.001289 -0.235364 0.706696
0.473202 0.706241 0.237166
0.471049 -0.236070 0.235480
-0.002916 0.708554 -0.234486
0.000511 0.709329 0.708275
0.472735 -0.236057 0.233355
0.473085 0.235364 0.706129
0.471331 0.235688 0.708205
-0.472511 -0.234101 0.235871
-0.471783 0.236286 -0.235199
-0.000617 0.708414 0.707461
0.000095 0.235607 -0.706667
-0.472604 0.235860 -0.236468
-0.472331 -0.234513 0.236740
0.471089 -0.236452 -0.706681
-0.471504 0.234698 0.708352
0.472434 -0.234818 -0.707925
0.472242 -0.236089 0.236239
0.000135 -0.237101 0.708007
-0.470093 0.237459 0.707062
-0.471492 0.707898 0.237341
-0.002441 -0.706864 -0.707131
-0.470531 -0.235690 -0.708667
0.471970 -0.235587 -0.706011
-0.471930 -0.236701 -0.706327
0.469764 0.707435 0.234500
-0.472702 -0.235485 0.234043
0.000119 -0.706279 -0.707395
0.470469 -0.705634 -0.235854
0.472515 -0.236163 -0.705952
-0.471141 -0.235299 -0.706038
-0.471497 0.707426 0.234270
-0.472028 -0.233167 0.235618
-0.470613 -0.706305 -0.236195
-0.471546 -0.234983 -0.707224
0.000231 -0.236212 0.708883
0.470852 0.235858 0.706165
0.000883 0.708939 -0.235455
-0.472272 0.706774 0.235775
0.472786 0.234742 0.705829
-0.000457 -0.707333 0.235483
0.000637 0.707730 -0.236027
-0.471202 0.237166 -0.236065
-0.470119 0.234311 0.707717
0.000543 -0.707310 -0.707540
-0.471789 -0.235869 -0.707267
-0.001659 0.707667 -0.234883
-0.000666 0.236392 -0.708735
-0.472726 0.234439 0.708316
-0.001722 0.707655 -0.237180
0.000577 0.234208 -0.706988
-0.470248 0.237296 -0.237315
0.469515 0.236794 0.708917
0.001531 -0.234670 0.706312
0.471004 -0.237269 0.235511
0.471103 -0.234679 -0.707498
0.470952 0.708135 0.236016
0.471425 -0.237265 0.236552
0.472693 -0.708201 -0.237133
-0.471329 0.235304 0.707121
0.470967 0.238341 -0.235790
0.000830 -0.234524 0.708951
-0.000031 -0.707031 -0.707017
0.000656 -0.707171 -0.705348
-0.470767 -0.237331 0.237256
-0.471310 -0.707533 -0.234350
-0.470994 0.236568 -0.237823
-0.472587 0.234780 -0.233464
0.000427 0.236158 -0.707621
0.471969 -0.708191 -0.235629
-0.470423 -0.235527 -0.706895
0.471280 0.707724 0.235447
-0.000446 -0.706092 0.235642
-0.469536 0.234864 0.707420
0.000971 -0.707961 -0.706703
-0.472728 -0.707026 -0.235057
0.000058 -0.234592 0.707360
-0.001469 -0.705647 -0.707314
0.000462 0.236206 -0.706946
0.471086 0.234431 -0.234313
-0.472039 0.236094 0.708545
-0.000045 -0.235967 0.707909
0.472263 0.236116 0.706181
0.472462 -0.236277 -0.706686
0.471199 -0.235000 -0.707390
-0.002414 -0.707094 -0.706616
0.469537 0.706102 0.236134
0.471430 0.235868 0.707554
0.472182 -0.707183 -0.236011
0.474142 -0.233843 0.235726
-0.000818 -0.236157 0.706736
0.000349 0.707138 0.707313
0.001228 -0.707520 -0.707470
0.471819 0.235550 -0.235919
0.472342 0.236966 0.705996
0.470014 0.235383 0.705686
-0.472264 0.707446 0.236634
-0.472531 -0.707172 -0.237835
-0.472256 0.235563 0.707494
0.472017 -0.236116 0.235216
0.002185 -0.706472 -0.706337
0.469839 -0.234914 0.235339
0.471530 -0.235734 0.236630
-0.472321 -0.706285 -0.234703
0.000236 -0.708075 -0.707485
-0.471679 0.235382 0.707077
-0.001175 -0.234942 0.708091
0.000366 -0.235754 0.706608
0.470102 -0.238521 -0.708793
0.000699 -0.706047 -0.709313
-0.472197 0.237585 -0.236863
-0.471589 0.235892 0.707496
0.471497 -0.235206 0.235406
-0.471011 0.706680 0.235007
0.470716 -0.236841 -0.707577
0.471698 0.707325 0.235797
