OFF
256 0 0
-0.687968 -0.229808 0.686764
-0.228684 0.688290 -0.688860
-0.232019 -0.688433 -0.228037
0.230407 -0.687841 -0.687640
0.229430 0.689863 0.690141
-0.228061 0.229894 0.688828
0.687503 0.687148 0.229199
-0.687498 -0.229944 0.688188
0.228761 -0.687352 -0.689532
-0.687823 -0.229246 -0.227842
-0.688709 0.228369 0.229198
0.229662 0.229726 -0.690003
-0.229404 0.688422 -0.688175
0.687707 -0.230782 -0.689060
-0.688318 -0.228126 -0.228051
0.688594 -0.230400 -0.689147
0.689157 -0.687746 -0.228850
-0.228141 -0.687517 0.687928
0.687928 -0.689023 -0.229441
0.690029 -0.229091 -0.688790
0.687684 -0.230025 0.229400
-0.689076 -0.230172 0.690116
0.688091 -0.229773 0.229384
-0.686496 0.228366 -0.688832
0.686849 -0.228919 0.230712
-0.687333 0.227770 0.230188
0.690752 -0.690452 -0.229538
-0.228950 0.687122 0.229786
0.687642 0.687330 0.230432
-0.228673 -0.686799 0.689793
-0.230874 -0.686586 0.686843
0.689203 -0.689803 -0.229584
-0.229847 0.688167 0.228985
-0.690512 -0.230822 -0.228396
-0.228145 0.228140 0.687072
-0.230521 -0.230637 -0.689295
-0.230145 -0.686454 0.688069
-0.687521 -0.688489 0.228757
-0.229624 0.689614 -0.687814
0.687873 -0.231119 0.229818
0.228397 -0.687553 -0.688057
-0.687155 -0.689305 0.230418
0.689025 -0.686333 -0.230059
0.229316 -0.229505 0.687379
0.687813 0.230493 -0.230038
0.229840 -0.689771 0.231030
0.227931 0.686790 0.686637
0.687651 -0.687453 -0.228463
-0.228743 0.227589 0.688877
-0.687381 0.229978 -0.688277
-0.229617 0.229197 0.689217
-0.687452 0.687100 -0.231184
-0.229219 0.688623 0.229057
-0.229234 -0.686824 -0.228207
0.689874 0.686754 0.229214
0.229421 0.230093 -0.686291
-0.688044 0.686474 -0.229602
-0.687155 0.230155 0.228998
-0.688878 -0.229648 0.690319
-0.229876 -0.689149 0.688606
0.230480 0.687778 0.687981
-0.230953 -0.230753 -0.690376
0.228174 0.688832 0.689817
0.229545 -0.688248 -0.687364
-0.687301 0.229245 -0.687761
0.687252 0.228568 -0.229499
0.687773 -0.228310 0.229926
0.229660 -0.688433 -0.688550
-0.229191 -0.686828 -0.227938
0.689468 0.228184 0.688074
-0.688720 0.688599 -0.229518
0.687127 -0.688312 -0.230250
0.227531 -0.227896 0.688504
-0.687600 0.689474 -0.228570
0.229316 -0.229665 0.689104
-0.686143 -0.688411 0.227912
0.688893 -0.229038 0.227790
0.229348 0.688504 -0.231406
-0.229423 0.687708 -0.687178
0.687759 0.227896 -0.230165
0.230663 -0.229098 0.688192
0.688542 -0.230246 -0.689147
0.687379 0.229608 -0.228592
-0.228589 -0.227965 -0.688988
0.227820 -0.687540 0.229089
0.229771 -0.687220 0.228961
0.686937 0.229576 0.687072
0.228980 0.230351 -0.689382
0.229782 -0.690029 0.230183
-0.230919 0.688281 0.228630
0.687805 0.229998 0.686456
0.227647 0.229592 -0.686836
-0.688990 0.688408 -0.229413
-0.229782 -0.688017 -0.230573
-0.229957 -0.229174 -0.688297
0.688391 -0.227174 0.228018
-0.688594 0.230016 0.229919
-0.230800 0.687522 0.229067
0.228651 0.688969 0.688202
0.227836 0.228328 -0.688536
0.228168 0.687276 -0.228559
0.688726 0.688363 0.228876
-0.687919 0.687542 -0.229450
0.688452 0.227417 0.688722
0.686885 -0.230595 0.229834
-0.687013 -0.688175 0.229825
-0.229594 0.230971 0.687685
0.688056 0.689118 0.229887
0.688664 0.230674 0.688292
0.228822 0.226915 -0.688664
0.687348 0.229718 0.688606
0.229635 -0.688761 -0.688762
-0.230466 0.685969 -0.687804
0.687355 0.228313 0.687426
0.688129 -0.687547 -0.228591
-0.688585 -0.689013 0.229598
0.229955 0.230133 -0.687667
-0.688661 -0.227718 0.689044
-0.686896 -0.230446 0.691097
0.229160 -0.686840 0.229682
0.228818 0.687357 -0.228557
0.228957 0.688430 -0.228977
0.688560 -0.228401 0.228885
-0.688980 0.690044 -0.231316
-0.230020 -0.688135 0.688917
0.230098 0.687641 -0.228613
0.687399 -0.230736 0.230265
0.228775 -0.686619 0.230154
0.230630 0.228837 -0.687825
-0.687665 -0.229832 0.690126
-0.227841 0.230143 0.689839
0.688080 -0.230828 0.229853
0.687346 -0.227844 0.229788
-0.688366 -0.230102 0.689525
-0.689813 0.229531 -0.688981
0.687969 0.228682 0.688443
0.228103 -0.688595 0.229744
-0.686379 -0.687364 0.230412
0.229655 -0.230216 0.689645
-0.687071 0.229859 -0.688558
-0.689178 -0.689253 0.229545
0.228288 -0.687181 0.228727
-0.687332 0.229543 0.230730
0.687901 0.687239 0.229059
0.229256 0.228191 -0.690091
0.686252 -0.686625 -0.232256
0.229356 -0.687871 -0.688248
-0.228557 0.689969 0.228383
-0.688827 -0.229393 0.689258
0.230068 -0.230080 0.688491
0.230280 0.689124 0.686806
-0.230021 -0.687894 0.687895
0.687988 -0.229514 -0.687747
-0.231200 0.688686 0.228370
0.228007 0.229415 -0.688650
-0.687763 -0.229240 0.687804
-0.688216 0.230729 0.227112
-0.688380 -0.229067 -0.229960
-0.231016 -0.230915 -0.688991
-0.688308 0.228317 0.230343
-0.228044 -0.229934 -0.686860
-0.230471 0.688769 -0.689135
0.687206 -0.229781 -0.688433
0.229564 0.688750 0.690062
-0.228499 -0.230713 -0.688887
-0.229899 -0.687885 0.688482
-0.231382 0.687838 -0.688010
0.230349 0.230224 -0.687153
-0.229159 0.687260 0.229758
0.690246 0.230924 -0.229231
-0.687872 -0.231260 0.689115
-0.230442 0.229418 0.687030
0.228435 0.688279 -0.229491
-0.229132 -0.690061 -0.229543
-0.688680 0.230198 -0.687583
0.228678 -0.228641 0.687198
-0.228807 -0.228832 -0.686390
0.229894 -0.689012 0.229714
-0.228394 -0.687735 -0.229906
-0.689251 -0.229844 0.688917
0.229027 0.228412 -0.686625
0.686884 -0.229028 0.229322
-0.229613 0.688544 -0.688049
0.688817 -0.228769 -0.689383
-0.686870 0.229797 -0.688403
-0.229811 -0.689087 0.687914
0.229680 -0.228314 0.688136
-0.230552 0.230278 0.686370
0.230259 0.230821 -0.689405
-0.229128 0.229010 0.687895
-0.230206 -0.688452 0.686486
0.689231 0.230345 -0.228903
0.230250 -0.227172 0.687391
0.687349 0.229060 -0.230201
-0.686796 -0.687899 0.229077
0.228709 0.690217 0.690107
-0.688097 0.229225 -0.687234
-0.229771 0.686818 0.229299
-0.230829 0.689402 0.229353
-0.229783 -0.690579 0.688758
0.231057 -0.229813 0.687653
0.687929 0.230063 -0.230175
0.229951 0.687936 0.688442
0.229573 0.687324 -0.229613
0.229000 0.229544 -0.686710
-0.688166 0.230143 -0.688814
0.228655 -0.688835 -0.687686
0.231925 0.229283 -0.686552
-0.686189 -0.229471 -0.230539
0.688148 0.686504 0.229345
0.230021 0.688525 -0.229511
0.688311 -0.229476 0.227447
0.687022 0.229624 -0.229312
-0.688043 -0.230419 -0.229436
0.689691 -0.229721 0.230317
-0.229405 0.689151 -0.689281
0.229626 0.687409 0.689371
-0.689963 0.228414 0.231008
0.229754 0.688589 0.687739
0.229686 -0.688683 0.228485
-0.228920 0.689323 0.227800
-0.688110 -0.227876 0.686801
-0.229857 -0.688775 0.691072
0.227332 -0.689920 0.227734
0.688357 -0.229496 0.228250
-0.688081 0.228520 0.229315
-0.227710 -0.688577 -0.228179
0.687878 0.229126 -0.229945
0.686904 -0.230012 -0.688379
0.687699 -0.228994 0.228218
-0.230138 0.231169 0.687818
0.687421 -0.690605 -0.230041
-0.688593 0.228513 0.229584
0.688153 0.228447 -0.228621
0.688865 0.687373 0.229330
0.229476 0.686684 -0.231078
-0.689318 -0.228782 0.687380
-0.229024 0.688276 -0.688760
0.689228 0.230250 0.687791
-0.690096 -0.228806 0.688697
-0.687587 -0.227024 -0.229892
0.228876 -0.687946 -0.687934
-0.686734 -0.228165 -0.230668
-0.689060 0.230247 0.230070
0.226805 0.687161 0.688983
0.688978 -0.229521 -0.684908
0.227985 0.688029 -0.228844
0.689083 0.229922 -0.228499
0.229902 -0.687487 -0.689629
0.230030 0.687169 -0.228940
0.686014 0.229942 0.689974
-0.688437 0.228889 -0.688764
-0.228403 -0.687304 -0.230074
-0.686672 -0.229176 0.687381
0.229523 0.688701 0.686550
-0.230281 -0.688547 -0.229329
