OFF
256 0 0
-0.655895 0.197607 0.224034
-0.669586 -0.251849 -0.201707
-0.659192 0.192512 -0.638537
-0.668021 0.676706 -0.229296
-0.242154 -0.680640 -0.252456
-0.234156 -0.659564 0.661268
-0.659833 0.192078 -0.636852
0.205289 -0.681178 0.224790
0.664295 -0.187050 -0.688498
-0.236248 0.236533 0.671285
0.216636 0.229394 -0.653270
0.696960 -0.248938 0.195389
0.226201 0.654515 0.650155
0.241081 -0.659072 -0.667148
-0.235205 0.232633 0.671533
-0.240380 -0.678698 -0.253098
-0.650793 -0.682179 0.225381
-0.242287 -0.678220 -0.252049
0.658648 0.229973 0.656520
0.678986 0.244447 -0.208336
-0.655047 0.198115 0.224940
0.238681 -0.657784 -0.667702
0.698469 -0.251737 0.196716
0.697542 -0.251473 0.197696
-0.224383 0.676039 -0.681827
-0.234726 0.234543 0.670272
-0.651769 -0.682580 0.222178
0.658626 0.226035 0.655102
0.232754 0.655238 -0.211998
0.202996 -0.681388 0.224433
0.662543 -0.186796 -0.688087
0.671006 -0.640678 -0.219990
0.663932 -0.188445 -0.687489
-0.200821 -0.227235 -0.633397
0.665882 -0.189049 -0.687981
-0.667317 0.676834 -0.229237
-0.697299 -0.226609 0.682014
-0.232267 0.236757 0.673968
0.234593 -0.229363 0.652366
0.205262 -0.682516 0.223240
0.670117 -0.642126 -0.220095
-0.242867 -0.678278 -0.252646
0.240850 -0.657699 -0.667864
-0.243163 0.697590 0.221502
0.232727 -0.228111 0.648750
0.232931 -0.229802 0.651754
0.226509 0.654129 0.650701
-0.241615 0.697347 0.222402
0.676986 0.243972 -0.208143
0.217585 0.227425 -0.654106
-0.654346 0.197699 0.224783
-0.652714 -0.682509 0.222005
0.234717 0.652531 -0.212446
-0.695934 -0.225686 0.682802
0.699389 -0.248367 0.195829
-0.233477 -0.659218 0.657447
0.657635 0.228022 0.656597
0.651678 0.690179 0.234779
-0.656278 0.199027 0.225471
-0.658085 0.189419 -0.638971
-0.668069 0.678078 -0.232168
-0.657623 0.192273 -0.637965
0.676041 0.242829 -0.207820
-0.659204 0.190926 -0.638308
0.220003 0.227994 -0.653293
-0.656015 0.198105 0.225850
0.699621 -0.251257 0.195963
0.242014 -0.659353 -0.667875
0.225806 0.653696 0.652194
-0.242951 0.695017 0.223141
-0.660524 0.192181 -0.638163
-0.655394 0.196854 0.225431
-0.235410 0.236625 0.669509
-0.653344 -0.679785 0.222523
0.225769 0.654919 0.648571
0.670680 -0.640151 -0.220580
0.240344 -0.660192 -0.667589
0.666616 -0.186209 -0.689439
-0.668670 -0.251958 -0.206012
0.226710 0.652525 0.650507
-0.671181 -0.251589 -0.204665
0.234049 -0.227794 0.650355
-0.202394 -0.229794 -0.633219
-0.652252 -0.682190 0.222187
0.656249 0.226884 0.654897
0.655728 0.227756 0.656420
-0.669212 -0.254233 -0.202802
0.697468 -0.249515 0.197276
-0.652718 -0.682573 0.221897
-0.223567 0.676863 -0.685683
-0.696720 -0.225911 0.679879
0.204308 -0.680321 0.223059
-0.668147 -0.252804 -0.203534
0.656635 0.227237 0.656326
0.677261 0.244377 -0.210137
0.671370 -0.640797 -0.219752
0.699742 -0.251179 0.197147
-0.656695 0.199599 0.225324
0.220458 0.227474 -0.654690
0.665731 -0.187490 -0.687162
0.657282 0.227123 0.656537
0.226087 0.654544 0.651007
0.219358 0.229383 -0.654635
0.663187 -0.186773 -0.688553
0.204493 -0.680103 0.225644
-0.234189 -0.658493 0.662094
0.239334 -0.659464 -0.666352
-0.658108 0.191283 -0.638627
-0.668688 -0.252397 -0.203746
-0.667091 -0.251653 -0.202053
0.232021 -0.229444 0.648765
-0.696287 -0.225987 0.680671
0.228025 0.653565 0.650761
-0.232452 -0.660932 0.659900
0.666247 -0.188217 -0.688338
-0.225086 0.676656 -0.684437
-0.224618 0.675965 -0.684533
0.657015 0.226961 0.656953
-0.659260 0.191763 -0.636305
0.226901 0.655115 0.649813
0.677123 0.243016 -0.208845
-0.241787 -0.677252 -0.251263
-0.667506 0.680090 -0.227014
0.657741 0.227350 0.654787
-0.667267 0.678540 -0.230014
0.232145 -0.228495 0.650360
-0.234785 0.234660 0.669634
-0.668704 0.677896 -0.230336
-0.653161 0.199382 0.225070
-0.222595 0.676471 -0.683933
0.232929 0.654072 -0.213267
0.204190 -0.681633 0.225048
-0.224543 0.676074 -0.682353
0.230982 -0.229361 0.650211
-0.242777 -0.679040 -0.251199
0.677712 0.243035 -0.207288
-0.242933 -0.678985 -0.251928
0.233484 0.652601 -0.212193
-0.234282 0.233954 0.671560
-0.652045 -0.681653 0.223391
-0.656186 0.199870 0.225299
0.658237 0.227215 0.656835
0.678334 0.242423 -0.209057
-0.233484 0.235361 0.669297
-0.698371 -0.225574 0.679536
0.653262 0.688697 0.233800
-0.659352 0.190064 -0.636670
-0.669978 -0.253359 -0.202039
-0.233967 0.234827 0.671351
0.697686 -0.249763 0.197585
0.203804 -0.681551 0.224525
0.659617 0.227537 0.654948
-0.671424 -0.253864 -0.204087
0.234415 -0.229046 0.651004
-0.240494 -0.679473 -0.250353
-0.233576 -0.658977 0.660122
-0.242039 0.697141 0.221035
-0.660408 0.190227 -0.638180
0.235917 0.655410 -0.212442
0.227838 0.653139 0.651387
0.697586 -0.251713 0.195754
-0.243038 0.697429 0.223264
-0.223174 0.676643 -0.686076
0.217349 0.226981 -0.654866
-0.693921 -0.224069 0.679052
0.652228 0.688382 0.231928
-0.226319 0.678222 -0.684057
0.203771 -0.682544 0.224287
0.698132 -0.249152 0.195680
-0.234676 0.235040 0.672672
0.204941 -0.680973 0.223775
-0.201772 -0.228457 -0.632534
0.698667 -0.250083 0.194236
-0.656216 0.196053 0.225127
-0.652303 -0.682935 0.222686
0.652465 0.687837 0.233633
0.671046 -0.640785 -0.222806
0.653078 0.690777 0.231298
0.677913 0.244744 -0.209641
-0.656822 0.198124 0.224558
-0.671185 -0.254594 -0.204618
0.652079 0.690009 0.233295
0.232455 0.652868 -0.212506
0.677004 0.244368 -0.209156
0.679422 0.243635 -0.210648
-0.669077 0.679285 -0.229140
0.676991 0.244698 -0.206229
0.233030 -0.230218 0.650548
-0.235646 0.233818 0.670186
0.651761 0.688784 0.232900
-0.242476 -0.677645 -0.250412
0.238955 -0.659670 -0.668164
0.657319 0.229170 0.655895
-0.668302 -0.252153 -0.203444
0.233386 0.653748 -0.211370
0.204015 -0.679300 0.226789
0.671599 -0.639466 -0.220890
0.233563 -0.228309 0.650701
0.220528 0.228500 -0.654515
-0.656025 0.199457 0.226254
-0.651983 -0.682336 0.222180
0.666483 -0.186204 -0.690999
0.233852 0.653365 -0.211324
-0.666350 0.678031 -0.230554
0.698273 -0.250016 0.196200
-0.241639 0.695089 0.221906
0.218392 0.227818 -0.651261
0.241041 -0.658845 -0.665716
-0.652044 -0.681683 0.221376
0.699171 -0.251327 0.195306
-0.668130 0.678972 -0.229226
-0.233208 -0.657452 0.661227
0.659656 0.228490 0.657597
-0.669213 -0.253418 -0.202919
-0.656049 0.197861 0.225405
-0.242402 -0.677541 -0.251232
0.232507 0.654588 -0.212388
-0.698906 -0.225159 0.680392
0.652336 0.691456 0.232262
-0.235265 0.236159 0.672499
0.217964 0.227398 -0.653916
-0.649877 -0.681585 0.220837
-0.667180 0.677690 -0.228273
-0.226186 0.676774 -0.684685
-0.667265 0.678942 -0.231967
0.669394 -0.642146 -0.221138
-0.234799 -0.659288 0.661059
-0.201054 -0.225497 -0.632379
-0.233660 0.236199 0.672560
-0.241855 0.695477 0.222081
-0.232957 0.237088 0.670916
0.653265 0.690489 0.232651
-0.234508 -0.658467 0.660484
-0.241063 0.697415 0.222036
0.227882 0.655382 0.652452
0.658481 0.228026 0.656928
0.664746 -0.186452 -0.688489
0.233109 0.652378 -0.213306
-0.233430 0.233763 0.670359
-0.669458 -0.252887 -0.203903
-0.659631 0.190656 -0.639337
-0.225358 0.676592 -0.683946
-0.650773 -0.682269 0.222293
0.653244 0.691045 0.232437
-0.241793 0.695294 0.222316
0.217935 0.230306 -0.653126
-0.651994 -0.682887 0.222165
-0.697284 -0.226472 0.681600
0.697633 -0.250445 0.193692
-0.202026 -0.228990 -0.633692
0.205053 -0.680179 0.224785
0.664947 -0.184781 -0.690863
0.669681 -0.641072 -0.220899
0.671402 -0.641827 -0.220922
0.697093 -0.250851 0.196147
-0.233620 -0.657997 0.661172
