OFF
256 0 0
-0.255664 -0.239450 -0.660086
0.688084 -0.220527 -0.674501
0.247888 -0.639564 0.194250
-0.666371 0.213754 0.237135
0.241420 -0.228228 0.672915
-0.692364 -0.224525 0.667018
0.687999 -0.221881 -0.673145
0.659400 0.212775 -0.211557
-0.206422 -0.694543 -0.205670
-0.219843 0.210560 0.658976
0.649055 0.657054 0.208330
0.226424 0.662384 -0.223747
-0.207598 -0.695186 -0.203144
-0.243942 0.670435 -0.673253
-0.670802 -0.675460 0.207813
-0.206806 -0.694602 -0.204470
0.222508 -0.668051 -0.628438
-0.666694 0.213916 0.236874
0.227386 0.660841 -0.223559
0.240879 -0.226847 0.669444
-0.666823 0.677157 -0.205359
0.657329 0.212374 -0.209829
-0.219600 -0.643138 0.646609
0.221492 -0.667121 -0.629296
-0.219787 -0.643759 0.645571
-0.208620 -0.693967 -0.202894
0.680755 0.237003 0.692660
-0.242698 0.671921 -0.672776
0.224097 -0.668778 -0.630916
-0.218181 -0.644169 0.647557
-0.257317 -0.237897 -0.660317
0.226362 0.708202 0.645917
0.223721 -0.667617 -0.626396
0.238530 -0.225584 0.672666
-0.255469 -0.239039 -0.659252
-0.220206 -0.644930 0.646439
-0.241097 0.671700 -0.673566
-0.256686 -0.238769 -0.659479
0.225871 0.709606 0.645685
-0.234444 0.658864 0.196554
-0.236321 0.658821 0.194808
-0.218608 0.211252 0.659931
0.229728 0.220951 -0.659827
0.687677 -0.220482 -0.672255
-0.219362 -0.643472 0.647049
0.223105 -0.665312 -0.628615
0.225176 0.711141 0.644886
0.650118 0.658275 0.208202
0.658926 0.211606 -0.210922
0.240520 -0.224824 0.671839
0.680850 0.237897 0.694214
0.673087 -0.649207 -0.219347
-0.671783 -0.678186 0.209333
0.222253 -0.667351 -0.629575
-0.219941 0.210922 0.660745
0.227751 0.222368 -0.658742
0.247317 -0.640698 0.193827
-0.235294 0.656723 0.194139
0.228463 0.662396 -0.224329
-0.675700 0.197295 -0.660337
-0.243186 0.669437 -0.673394
0.230420 0.222305 -0.660734
-0.221484 -0.643529 0.645409
0.227070 0.709009 0.644027
-0.678639 -0.241513 -0.230998
-0.678715 -0.239877 -0.231539
-0.223580 -0.644026 0.647821
0.227314 0.709002 0.644027
0.226480 0.707527 0.646105
0.240098 -0.228188 0.670923
0.691080 -0.206426 0.224075
-0.238187 0.659905 0.194828
-0.236714 0.658621 0.194364
-0.241971 0.670983 -0.671840
0.247592 -0.640815 0.194093
-0.244217 0.670897 -0.670996
-0.691472 -0.223852 0.665595
-0.667015 0.680325 -0.204580
-0.691418 -0.226113 0.668086
-0.220537 0.211996 0.658605
-0.667317 0.213165 0.236285
-0.219541 -0.646419 0.646824
-0.243566 0.669872 -0.672177
-0.668383 0.213599 0.236366
-0.693244 -0.224872 0.668001
0.681652 0.235640 0.692718
-0.256816 -0.238697 -0.658761
-0.671162 -0.678936 0.208787
0.657454 0.212773 -0.210195
-0.676977 -0.240986 -0.231483
-0.666989 0.213165 0.234186
0.689008 -0.206803 0.224874
0.225449 0.662342 -0.225684
0.229422 0.221834 -0.660728
0.227377 0.709857 0.643807
-0.668399 -0.678084 0.207821
0.225638 0.709601 0.645789
0.240717 -0.227641 0.669786
-0.218501 -0.643685 0.645337
-0.668356 0.680274 -0.206280
-0.664391 0.678266 -0.204747
-0.677831 -0.239734 -0.231491
-0.690054 -0.223868 0.666101
0.680021 0.238519 0.692076
-0.676554 0.197985 -0.659731
0.231075 0.221949 -0.660818
-0.671896 -0.679495 0.208956
0.246351 -0.640333 0.193863
0.225796 0.664770 -0.224991
-0.220135 0.211969 0.658588
0.240152 -0.226868 0.670625
-0.242860 0.671771 -0.673882
-0.676386 0.198849 -0.657932
0.239819 -0.227872 0.671745
-0.205931 -0.695366 -0.205270
-0.678431 -0.242560 -0.231367
0.249515 -0.639206 0.193318
0.688047 -0.222573 -0.673485
0.227663 0.221033 -0.661399
0.690734 -0.206113 0.225711
0.228694 0.220726 -0.660149
-0.678082 -0.239098 -0.232255
-0.235305 0.659464 0.194049
0.241164 -0.228480 0.670579
-0.677364 -0.240392 -0.231378
0.657997 0.213578 -0.209963
-0.219204 -0.642613 0.645462
-0.207095 -0.694625 -0.205213
-0.234390 0.657684 0.194682
-0.678812 -0.240126 -0.230485
0.224550 -0.666578 -0.626832
0.657374 0.212392 -0.209638
-0.242316 0.672163 -0.673129
-0.257237 -0.238725 -0.658934
0.228008 0.710462 0.646278
-0.256649 -0.238943 -0.658885
0.248443 -0.641243 0.192911
0.228270 0.661943 -0.224122
-0.670420 -0.677446 0.209216
-0.666841 0.213354 0.236413
-0.666830 0.213689 0.236787
-0.242463 0.671475 -0.673827
0.247473 -0.639789 0.193816
0.658845 0.211553 -0.209921
0.240369 -0.226453 0.671675
-0.218736 0.212024 0.657120
-0.237731 0.658686 0.195851
0.222291 -0.667607 -0.628447
-0.235202 0.655809 0.194424
0.649131 0.656067 0.207975
0.657823 0.214408 -0.211763
0.671898 -0.651269 -0.218640
-0.671850 -0.677762 0.208641
-0.258399 -0.238678 -0.659130
-0.670034 -0.678492 0.209651
-0.219378 -0.643601 0.646573
0.671222 -0.647670 -0.220286
-0.665451 0.678458 -0.204443
0.658234 0.213603 -0.212420
0.226288 0.662058 -0.225141
-0.679301 -0.240986 -0.230839
-0.235880 0.659409 0.195204
-0.692241 -0.223252 0.667181
0.671987 -0.649823 -0.220086
-0.219209 -0.645109 0.646272
-0.678427 -0.239799 -0.233292
-0.235313 0.659871 0.194855
-0.218757 0.211863 0.659698
-0.672511 -0.679146 0.210399
0.248613 -0.639521 0.194744
0.650067 0.659133 0.207285
-0.679548 -0.240206 -0.231373
0.221788 -0.666889 -0.627657
-0.669396 -0.676446 0.209217
0.228653 0.661510 -0.224715
0.686655 -0.222905 -0.672898
-0.235926 0.657923 0.194057
-0.222049 -0.644227 0.646717
-0.667459 0.678574 -0.203938
-0.676368 -0.243434 -0.231294
0.240294 -0.226026 0.671176
-0.671993 -0.676579 0.209348
-0.670584 -0.678648 0.209887
0.672343 -0.649762 -0.220056
0.649611 0.659478 0.207334
-0.220645 -0.645580 0.645385
0.246247 -0.638487 0.192979
0.222367 -0.666782 -0.628026
0.655828 0.213157 -0.210482
-0.245156 0.670011 -0.672395
0.222355 -0.666523 -0.630442
-0.257681 -0.238723 -0.658863
-0.665303 0.211220 0.238117
-0.216952 -0.644982 0.646004
-0.667286 0.213121 0.236783
-0.676754 0.198839 -0.657551
-0.243029 0.671470 -0.673587
0.671588 -0.649615 -0.220721
-0.244165 0.670633 -0.671386
-0.236344 0.658617 0.195747
-0.206470 -0.695266 -0.205637
0.671818 -0.650558 -0.219605
-0.664782 0.679454 -0.204892
0.682618 0.237489 0.693381
0.672787 -0.648310 -0.219805
0.221696 -0.667677 -0.629179
-0.671054 -0.677562 0.207841
0.691467 -0.207799 0.225941
0.688917 -0.220649 -0.674213
0.657633 0.212530 -0.212318
0.224638 0.662875 -0.224446
0.687181 -0.222771 -0.674178
0.680968 0.234207 0.692593
0.224928 -0.668329 -0.628372
-0.665273 0.213091 0.237169
0.657965 0.213311 -0.210577
0.227216 0.663410 -0.225311
-0.242299 0.672179 -0.673197
0.228663 0.663236 -0.223570
-0.242625 0.671038 -0.672336
0.670845 -0.650089 -0.220763
0.247665 -0.639631 0.191841
-0.257426 -0.239012 -0.658567
0.231196 0.222053 -0.659996
0.223419 -0.667841 -0.629010
0.224506 -0.667367 -0.628409
-0.692043 -0.224773 0.665751
-0.235609 0.656710 0.194345
0.228190 0.661956 -0.224246
0.692440 -0.206019 0.224157
0.246846 -0.639811 0.195646
0.686356 -0.221315 -0.671260
0.690639 -0.207031 0.225050
0.245257 -0.639970 0.194783
-0.219238 0.212102 0.659139
-0.218581 -0.642022 0.647780
0.649417 0.657334 0.205920
-0.677876 -0.240700 -0.231104
-0.670086 -0.678784 0.209793
-0.208081 -0.694715 -0.205403
0.240290 -0.227523 0.672924
-0.257619 -0.237370 -0.657202
-0.207682 -0.694752 -0.205968
0.244122 -0.640728 0.193891
0.228643 0.221010 -0.660474
0.671688 -0.649190 -0.217478
0.690959 -0.206455 0.225480
-0.258881 -0.238888 -0.660073
0.247420 -0.638894 0.193410
-0.665063 0.678133 -0.204411
-0.666788 0.215381 0.235923
0.669959 -0.649630 -0.218613
-0.668920 0.213756 0.236832
-0.218814 -0.643031 0.644663
-0.675713 0.195930 -0.659767
0.672245 -0.650131 -0.217993
