OFF
256 0 0
-0.706028 -0.001179 0.707041
-0.705429 -0.001332 -0.707107
-0.000651 -0.706478 0.707241
0.707262 0.706390 0.001575
-0.707025 0.705911 -0.000165
-0.706240 -0.000128 0.706761
0.708760 0.705532 0.000471
0.705455 0.707262 -0.000963
0.708435 -0.706876 0.000134
-0.707759 0.709116 -0.000389
0.707598 -0.707514 -0.000246
-0.707061 -0.705801 0.002441
0.706126 -0.705757 -0.000188
0.706309 0.000610 -0.706099
0.706331 0.000106 -0.707714
-0.707833 -0.000191 0.706419
-0.707625 0.705758 0.000538
0.707373 0.705909 -0.000589
0.000706 0.706746 0.706005
0.706974 -0.706155 -0.001192
-0.705726 -0.001823 0.705772
-0.707322 -0.001029 0.707007
0.706436 0.001346 0.706283
0.000425 0.706694 -0.707401
-0.705287 -0.708206 -0.000114
0.707313 0.000577 -0.708501
0.708396 -0.707335 -0.001675
-0.707345 -0.706727 -0.000341
-0.709000 -0.706866 0.000903
0.706588 0.707359 0.001129
-0.705932 0.707425 -0.000910
-0.708050 0.708580 0.000839
-0.705583 -0.707520 -0.000347
-0.705716 -0.000250 -0.707115
-0.707556 -0.706801 0.000043
-0.001129 0.707036 -0.706114
-0.708246 -0.000188 -0.706148
0.707186 0.707375 -0.000795
-0.707218 0.000389 0.707712
0.707443 0.002860 0.706028
-0.001975 0.705460 0.705937
-0.002843 -0.707787 -0.706185
-0.706467 0.000937 0.705908
-0.000110 0.707140 0.708382
0.708034 -0.000238 0.706607
-0.706483 -0.706982 0.001860
0.706669 0.000069 -0.706851
-0.707885 0.001822 0.708986
0.706475 -0.707932 0.000584
-0.000204 0.706994 -0.706787
-0.706368 0.704896 -0.000215
0.708049 -0.000004 0.704931
0.706836 0.000913 -0.708469
-0.708280 -0.705592 -0.000499
-0.706959 -0.706386 0.001705
-0.706646 -0.706777 -0.000174
0.707535 0.707925 -0.000411
0.000705 0.705559 -0.708822
-0.000856 0.705902 -0.707328
0.000309 0.706698 0.707284
0.707694 0.000343 -0.706915
0.707683 0.707647 -0.001665
0.000494 -0.706834 -0.706819
0.000179 0.705469 -0.705562
0.706251 0.707857 -0.000668
0.001027 0.707714 -0.706345
-0.708146 0.706354 -0.000527
-0.706662 0.000552 -0.707858
0.708062 -0.000845 -0.706055
-0.707967 -0.707458 -0.000125
-0.000190 -0.705565 0.708567
-0.000283 -0.708356 0.707392
-0.706732 0.707593 0.001570
-0.001006 -0.706652 0.707880
-0.707530 -0.000918 0.708569
-0.000378 0.707008 -0.707474
-0.001773 0.708128 -0.706854
-0.706464 -0.707832 0.001378
-0.001310 -0.707364 0.705797
0.706045 0.706778 -0.000747
0.000307 -0.706652 0.706144
0.707654 0.001601 -0.707706
-0.706356 -0.706521 -0.001877
0.706592 0.001635 -0.708067
-0.707380 0.707257 -0.000490
-0.000428 0.707141 -0.709043
-0.706858 -0.000556 -0.705891
0.708280 0.000653 -0.706840
0.000143 0.706885 -0.705848
0.705592 0.707212 0.000437
0.707880 0.000261 -0.706370
-0.000436 0.706843 -0.706513
-0.706984 -0.001069 0.706862
0.001119 -0.707861 0.707110
-0.706867 -0.001321 0.706483
-0.001446 -0.709312 -0.707558
0.001823 -0.707400 0.707575
0.000159 0.705519 0.705662
0.706622 0.706022 -0.001011
0.706876 -0.001258 -0.706156
0.000387 0.706703 0.706903
-0.705174 0.708712 0.000171
0.706860 0.000388 0.707583
0.706883 -0.706556 0.000586
0.000235 0.707082 -0.706314
0.707241 -0.001585 0.705812
0.706439 -0.707203 0.001475
0.000947 0.706797 -0.704650
0.705370 -0.706485 0.002228
-0.000819 0.706912 0.707913
0.705911 -0.706978 -0.001088
0.705062 0.706651 -0.000589
-0.706094 -0.707653 -0.001282
0.708028 0.708432 -0.000481
-0.000175 0.708286 0.707918
0.001302 0.708507 -0.708010
0.706692 0.708157 -0.000009
-0.707558 0.707713 -0.000809
0.705591 -0.706456 0.000095
0.707427 0.001359 0.707394
-0.707101 -0.000867 -0.708792
-0.706085 -0.706694 -0.000479
-0.000817 -0.707984 0.707013
-0.706558 0.708547 0.000892
0.000857 -0.707312 0.708060
0.705304 0.707001 0.000904
0.708461 0.000834 -0.707257
-0.707123 0.705701 0.000582
0.707066 -0.706252 0.000383
0.000565 -0.707023 -0.706586
0.706140 -0.000757 0.707900
0.706257 -0.706213 0.000013
0.706387 -0.000388 -0.706580
-0.707201 0.001088 0.706394
0.000039 0.708368 0.708664
-0.706607 -0.706121 0.001675
0.001082 0.707685 0.708120
-0.002379 0.707214 0.707953
-0.707046 0.707816 -0.000091
0.708681 -0.000217 0.707175
-0.708205 -0.705872 -0.001733
0.000958 0.708371 -0.706671
-0.706490 0.000403 -0.706187
0.706851 -0.706169 0.000785
0.706884 0.000993 -0.706602
0.000789 -0.707795 0.706614
0.708693 -0.000604 -0.708690
-0.707519 -0.706711 -0.001216
-0.708864 -0.707485 -0.000746
0.002169 0.707708 0.706841
-0.000000 0.706703 0.706735
0.707224 0.707223 0.001036
0.705511 -0.002019 0.706934
-0.706346 0.000303 -0.705533
-0.000010 0.706200 -0.708171
0.705878 0.707262 -0.000128
-0.706743 0.000570 -0.707577
-0.707864 -0.706881 -0.000468
-0.707166 -0.707572 0.000373
-0.000579 -0.706400 -0.705735
-0.707386 -0.000055 -0.706734
-0.706635 0.705852 0.000945
-0.707098 -0.000308 0.707831
-0.000144 0.705915 -0.706365
0.001197 -0.706764 0.705925
-0.706393 0.002037 -0.708638
0.001784 0.708027 -0.708720
-0.705278 0.705751 0.001173
-0.708900 -0.707898 0.000707
-0.705797 0.000771 0.707235
0.000639 0.709468 -0.706986
0.709026 -0.000450 -0.708060
-0.708161 0.708056 0.000242
0.707139 -0.707705 -0.000603
0.000360 0.705687 0.708126
-0.707002 0.000695 -0.706942
-0.706495 0.706133 0.000043
0.001180 -0.708168 0.707105
-0.706227 0.000399 0.706419
0.706867 -0.706090 0.000671
-0.704938 -0.001283 0.706003
-0.706857 -0.706406 -0.000948
0.706517 -0.000518 0.706538
-0.000257 0.705515 0.708256
-0.707691 -0.706943 -0.000510
-0.000848 0.706786 -0.706431
-0.705112 -0.707167 0.000653
-0.000336 -0.705750 -0.707339
-0.000357 -0.707686 -0.706374
-0.707550 -0.001150 0.706765
-0.708416 0.708105 -0.000020
0.706828 -0.001579 -0.706178
0.001348 0.708883 -0.707211
-0.709219 0.706327 -0.000303
-0.707534 -0.707040 -0.000524
0.706384 -0.000655 0.706912
-0.705990 -0.705666 -0.001042
0.706880 0.001294 -0.706655
-0.001173 -0.708161 0.707979
0.708058 -0.706757 0.000182
-0.707388 0.001758 0.706920
-0.000614 0.704953 -0.707113
-0.708519 0.707854 0.001336
0.707242 -0.000455 -0.706535
-0.000795 -0.706128 0.705568
0.706587 -0.706858 -0.001892
-0.001411 -0.706311 0.706722
0.000933 -0.706642 0.706399
-0.706575 -0.000310 0.707077
0.706505 0.000193 0.708277
-0.000724 -0.707542 0.708432
-0.706329 0.000920 0.707855
0.706517 0.000168 0.708739
-0.000620 0.706975 0.706565
-0.001130 0.708075 -0.708078
-0.000099 0.707043 0.708032
-0.001443 -0.705637 -0.706685
-0.708081 -0.000213 0.705518
-0.706663 -0.707121 0.000185
-0.707170 0.705729 0.002253
-0.706481 -0.001289 -0.707118
-0.706353 0.705589 -0.001971
-0.707473 -0.000063 -0.706638
-0.707754 0.000068 -0.706313
0.706217 -0.707521 -0.001883
0.000172 -0.707504 -0.705500
0.000412 0.706432 -0.706375
0.001763 -0.707989 0.707364
0.709014 -0.000988 0.708463
0.708887 -0.000234 0.706157
0.000126 0.706239 0.706515
-0.000091 -0.706274 -0.708088
-0.003110 -0.706862 -0.708188
0.001019 0.707597 -0.707670
-0.708134 -0.000128 0.707023
-0.706730 -0.709034 0.001075
-0.704689 -0.001658 0.704501
0.000584 -0.707339 -0.707788
0.705414 0.000312 0.706759
-0.001843 0.706579 0.706691
0.707303 -0.000206 0.706884
0.706287 -0.000456 -0.707130
-0.706168 0.706332 0.000178
0.000092 -0.706798 0.706323
-0.000480 -0.707828 -0.706159
-0.706689 -0.000638 0.707718
-0.705983 -0.707384 -0.001716
-0.707543 -0.705508 -0.000314
-0.708142 0.000281 -0.708588
0.706962 -0.001012 0.707181
-0.706522 -0.706597 -0.000543
0.001336 0.708097 -0.708142
0.706602 -0.706737 -0.001444
0.707299 0.000556 -0.705143
-0.000586 -0.706349 -0.705324
0.000404 -0.705442 -0.708000
