OFF
256 0 0
0.735274 0.677990 -0.026623
-0.017494 -0.689455 -0.654474
0.024730 0.691857 -0.667116
0.707593 0.012790 -0.670698
0.707097 0.015934 -0.671440
0.709487 -0.670876 0.014269
-0.008596 0.662955 0.681479
-0.691099 -0.708437 -0.012135
0.706931 0.013673 -0.674318
-0.036748 -0.646545 0.639854
-0.681687 0.662518 0.017872
0.708127 0.013639 -0.671771
0.710673 -0.673658 0.014199
-0.036935 -0.645279 0.639696
-0.018825 -0.691109 -0.657449
0.709150 -0.672098 0.013397
-0.037027 -0.645338 0.640153
0.708170 0.014896 -0.672322
-0.019293 -0.688528 -0.657101
0.708593 0.012589 -0.672356
-0.680411 0.661445 0.017345
-0.682737 0.660975 0.015395
-0.709161 -0.000172 0.670815
-0.692820 -0.707403 -0.011120
-0.683789 -0.040424 -0.666102
0.658731 0.043103 0.675063
-0.692035 -0.707417 -0.011048
-0.008857 0.663407 0.681162
-0.707284 0.000973 0.671595
-0.691562 -0.707899 -0.012493
-0.710477 0.002443 0.670315
-0.708546 -0.000069 0.672296
-0.683105 0.661382 0.017684
-0.017406 -0.687238 -0.656732
0.709569 -0.672877 0.013743
0.707406 0.015940 -0.671257
-0.036696 -0.644593 0.640571
-0.036141 -0.646972 0.638809
-0.008764 0.663872 0.683647
0.708297 -0.671217 0.011648
0.023781 0.694187 -0.666012
0.657607 0.042121 0.674676
-0.680843 0.661283 0.017483
0.709468 -0.672626 0.013875
-0.684500 -0.040637 -0.666616
-0.009641 0.663315 0.681652
0.657843 0.040326 0.673491
0.658727 0.042337 0.671807
-0.685921 -0.040344 -0.665129
0.707246 0.015007 -0.671538
-0.037422 -0.647559 0.638874
-0.018266 -0.689107 -0.656547
-0.685897 -0.040534 -0.666592
0.733164 0.678600 -0.027265
-0.685108 0.664112 0.017506
0.658652 0.041592 0.673249
0.659893 0.042511 0.673934
-0.681060 0.662098 0.016228
-0.694082 -0.706806 -0.011111
-0.710346 0.001898 0.671438
-0.691596 -0.707046 -0.012932
-0.019400 -0.689109 -0.656735
-0.708108 0.002450 0.671493
-0.037025 -0.644417 0.638876
-0.016265 -0.689868 -0.655335
-0.685908 -0.040940 -0.666693
-0.707363 0.001651 0.671966
0.708190 0.014596 -0.671398
0.023989 0.692491 -0.665351
0.731014 0.678852 -0.026444
-0.682079 0.662898 0.015663
0.708209 0.016475 -0.671009
-0.692635 -0.708252 -0.011700
0.658865 0.041896 0.674441
-0.686324 -0.041476 -0.666826
0.658069 0.043173 0.674723
-0.009618 0.662104 0.682704
0.021660 0.693949 -0.666919
-0.691331 -0.708539 -0.011159
0.659617 0.043185 0.674439
-0.008084 0.664650 0.682051
0.657912 0.043690 0.676488
0.708905 0.014477 -0.671240
0.658065 0.041701 0.674571
-0.008379 0.662719 0.682857
0.734992 0.677080 -0.027664
-0.685596 -0.040244 -0.667086
-0.010348 0.664221 0.682956
-0.008878 0.662433 0.683608
0.710491 -0.671827 0.013215
0.735141 0.678800 -0.026984
-0.686248 -0.038888 -0.667456
0.657646 0.043812 0.674884
0.708702 0.014970 -0.670943
-0.681095 0.662269 0.016438
0.658465 0.043366 0.675322
-0.009184 0.663327 0.681373
-0.010937 0.663065 0.682809
-0.708246 0.001887 0.672843
0.024712 0.694049 -0.664840
0.658441 0.041496 0.673869
0.023116 0.692620 -0.664958
0.706793 0.014382 -0.671899
-0.685461 -0.040434 -0.666798
-0.682232 0.661885 0.016083
0.022800 0.692428 -0.666864
-0.691239 -0.707209 -0.012040
0.733934 0.679379 -0.026097
-0.008967 0.662502 0.682212
0.733404 0.677862 -0.025792
-0.019068 -0.688266 -0.656110
-0.036602 -0.646164 0.639365
0.023360 0.691608 -0.667363
0.706981 0.015739 -0.671314
-0.011324 0.662262 0.682759
0.023625 0.692827 -0.666106
0.734098 0.677565 -0.026559
-0.035735 -0.645258 0.637726
0.024443 0.693731 -0.668054
0.657794 0.044552 0.672575
0.024697 0.694271 -0.664718
-0.011447 0.662375 0.682223
0.708338 -0.674933 0.013127
0.734065 0.677972 -0.024779
0.709529 -0.671548 0.013443
-0.011331 0.664250 0.684150
-0.008562 0.662743 0.684020
-0.691810 -0.707687 -0.012597
-0.019833 -0.689884 -0.655373
0.021590 0.694534 -0.667071
0.708833 0.014940 -0.670554
-0.692464 -0.708159 -0.011213
-0.017817 -0.688558 -0.656710
-0.708642 0.001214 0.673055
-0.691162 -0.707000 -0.011309
-0.707464 0.002619 0.671643
-0.680760 0.662138 0.017098
-0.707177 0.001403 0.671348
-0.680556 0.660484 0.017248
0.024735 0.691909 -0.666231
-0.708985 0.000692 0.671420
-0.036243 -0.644920 0.638270
-0.010201 0.663100 0.681928
0.734204 0.678135 -0.026674
0.710274 -0.672880 0.014698
-0.711676 0.001766 0.669972
-0.018259 -0.689794 -0.655423
0.735565 0.678363 -0.026785
-0.708388 0.001461 0.670979
0.658225 0.042439 0.674620
0.659514 0.042720 0.675403
0.734866 0.677372 -0.026852
-0.679028 0.661044 0.017566
-0.036116 -0.643970 0.638604
0.733566 0.679172 -0.026401
0.656166 0.043000 0.675590
0.658269 0.042136 0.674733
-0.709989 0.002735 0.672446
0.022692 0.693759 -0.665734
-0.037868 -0.643558 0.639391
-0.682174 0.661158 0.017807
-0.708307 0.001081 0.673338
0.708723 0.015069 -0.672820
-0.691350 -0.707523 -0.011537
0.733471 0.679423 -0.027230
-0.681383 0.665409 0.016302
0.022735 0.692770 -0.665973
-0.019117 -0.689001 -0.656341
-0.709652 0.000629 0.672034
0.708354 -0.674628 0.013136
0.733418 0.676277 -0.024944
0.707631 0.015388 -0.672473
-0.692533 -0.708849 -0.010676
-0.009619 0.661021 0.683475
0.706137 -0.670844 0.014548
-0.685378 -0.038899 -0.667917
-0.692405 -0.708242 -0.012906
0.732209 0.679738 -0.025729
0.024766 0.693747 -0.665752
0.707279 -0.671086 0.013314
0.658978 0.041181 0.674302
0.659321 0.042307 0.675069
-0.039227 -0.643813 0.639861
-0.019079 -0.691242 -0.656188
0.657020 0.041837 0.672511
-0.017994 -0.691085 -0.654568
-0.018367 -0.689606 -0.656954
0.733668 0.678690 -0.025727
-0.684488 -0.042426 -0.667927
-0.681267 0.662489 0.016625
-0.018285 -0.689961 -0.655915
0.707989 0.013314 -0.672045
0.025359 0.691717 -0.664391
-0.018464 -0.689368 -0.655263
-0.682559 0.661510 0.016798
-0.019017 -0.688111 -0.657043
-0.690632 -0.707626 -0.012152
-0.036554 -0.646435 0.637984
0.709201 -0.672731 0.014773
-0.680669 0.662436 0.015672
0.658885 0.042403 0.673210
-0.010058 0.664295 0.682314
-0.691439 -0.707577 -0.011475
-0.679922 0.662008 0.015555
0.735254 0.679199 -0.027099
-0.681561 0.660476 0.015536
-0.681254 0.663077 0.016263
-0.685391 -0.039425 -0.666629
0.658183 0.041520 0.672947
0.658240 0.043224 0.675624
-0.037463 -0.644641 0.638213
-0.683642 0.662570 0.017027
0.709347 -0.673055 0.014726
0.734333 0.676814 -0.026967
-0.685270 -0.040603 -0.666473
-0.012723 0.662797 0.683213
-0.679792 0.660578 0.018714
-0.684512 -0.039081 -0.664975
-0.009957 0.661735 0.681211
0.733739 0.678785 -0.027889
-0.685564 -0.040290 -0.667161
0.656772 0.040991 0.673456
-0.036886 -0.645680 0.640243
-0.009737 0.663876 0.682811
0.706913 -0.670706 0.012730
-0.037135 -0.644539 0.638912
-0.683321 0.662867 0.017122
-0.685043 -0.040815 -0.666341
-0.682033 0.662666 0.016976
0.657042 0.042044 0.671995
0.733567 0.679113 -0.026373
0.706459 0.014383 -0.672441
0.731301 0.680682 -0.025337
0.734569 0.677837 -0.023934
0.658361 0.042801 0.675881
0.709616 -0.670887 0.014150
0.733522 0.678315 -0.027393
0.707599 -0.671285 0.013629
0.734312 0.678723 -0.026265
-0.017764 -0.690886 -0.654450
0.706828 0.015523 -0.670763
0.706859 0.013709 -0.672551
-0.037757 -0.644401 0.638971
-0.010520 0.661686 0.681356
0.709818 0.015733 -0.672077
0.734859 0.679342 -0.026466
-0.690871 -0.710107 -0.012578
-0.018337 -0.688640 -0.655681
0.708189 0.014893 -0.672099
-0.681256 0.663185 0.016160
-0.037504 -0.643898 0.638042
-0.037842 -0.644592 0.639738
0.733419 0.677736 -0.025694
-0.682878 0.659601 0.016075
0.023800 0.693043 -0.665081
-0.681955 0.661000 0.017486
