OFF
256 0 0
-0.006903 -0.655550 -0.678026
-0.669706 0.630541 0.013008
0.678160 -0.001746 0.671433
-0.005923 0.680610 0.663261
-0.028221 -0.661022 0.673699
-0.680169 -0.011190 0.681630
-0.004930 0.680420 0.664117
-0.681027 -0.012205 0.680236
-0.029328 -0.661186 0.673497
-0.006982 -0.655030 -0.676451
-0.683924 -0.008897 0.678920
0.700038 0.010067 -0.663921
-0.003520 0.693808 -0.641322
-0.004967 0.691985 -0.642430
-0.029231 -0.660683 0.672227
-0.667194 0.628547 0.012013
-0.005953 0.682458 0.666428
-0.005747 0.693302 -0.642416
0.677487 -0.003046 0.673216
-0.670317 0.629011 0.013318
0.699403 0.009356 -0.664745
-0.670912 0.629313 0.010592
-0.029500 -0.660348 0.674447
-0.692130 -0.652609 -0.016694
-0.006921 0.682393 0.664487
0.678464 -0.003038 0.672699
0.707771 -0.704823 0.033036
-0.681405 -0.008451 0.679453
-0.692823 -0.649602 -0.018447
-0.692112 -0.649703 -0.017204
-0.003571 0.692542 -0.642641
-0.678123 -0.010234 -0.723452
-0.680508 -0.010349 0.681020
-0.681703 -0.009729 0.681234
-0.669279 0.627973 0.014016
-0.008053 -0.656092 -0.679575
0.678108 0.681153 -0.009268
0.679419 -0.003558 0.672463
-0.681794 -0.010581 0.679939
-0.669787 0.628734 0.011772
0.679214 0.681043 -0.009968
-0.005594 0.692090 -0.641970
-0.668180 0.628433 0.010893
-0.669557 0.629758 0.013363
-0.682260 -0.009220 0.676773
-0.003359 0.692698 -0.642371
-0.003680 0.694211 -0.642906
0.678442 0.682121 -0.008600
-0.669784 0.629699 0.013750
0.677168 -0.003624 0.673432
0.680331 0.681224 -0.007876
-0.691114 -0.650470 -0.017091
-0.682550 -0.010329 0.681300
-0.025758 -0.659938 0.670963
-0.676138 -0.011262 -0.723839
-0.675795 -0.010918 -0.724009
-0.004810 0.683375 0.665557
0.697678 0.008956 -0.662907
0.700401 0.009549 -0.664902
-0.006209 0.680767 0.664841
-0.678233 -0.009033 -0.722922
0.676227 -0.002809 0.671043
0.699096 0.008005 -0.664213
0.677772 -0.004475 0.671904
0.680418 0.683883 -0.009336
0.709791 -0.705911 0.032356
0.708145 -0.704109 0.034121
-0.691786 -0.650991 -0.017011
-0.681661 -0.008581 0.679645
0.700075 0.008496 -0.663640
0.700953 0.009602 -0.664945
0.680173 0.681905 -0.009181
-0.027953 -0.661489 0.672069
-0.669857 0.628738 0.012832
-0.029562 -0.660925 0.672887
-0.688751 -0.648964 -0.018872
-0.676174 -0.009997 -0.722542
-0.669441 0.628272 0.014924
0.676821 -0.003886 0.670730
-0.001305 0.691906 -0.641626
0.675099 -0.002212 0.672990
-0.691196 -0.649672 -0.017640
0.709722 -0.704297 0.030861
-0.681816 -0.009227 0.679570
-0.009380 -0.656885 -0.678494
-0.676023 -0.009238 -0.722694
-0.690162 -0.650641 -0.017306
0.708853 -0.703563 0.032660
0.699175 0.008961 -0.664180
0.678976 0.681281 -0.010062
0.677482 0.680966 -0.007922
-0.002997 0.694850 -0.641967
-0.681280 -0.009425 0.679717
-0.678003 -0.010798 -0.722428
-0.691297 -0.649322 -0.017436
-0.028101 -0.659787 0.673335
-0.692544 -0.648707 -0.015666
-0.007549 -0.658012 -0.678363
-0.004099 0.682094 0.665890
0.708813 -0.704730 0.029620
0.709568 -0.703947 0.030767
-0.004755 0.692821 -0.640496
-0.668566 0.628114 0.014687
-0.676832 -0.011148 -0.724372
-0.670162 0.630144 0.012360
-0.690926 -0.650861 -0.017065
0.709640 -0.702860 0.030133
-0.676125 -0.011055 -0.721809
0.679169 0.682206 -0.009023
-0.692776 -0.651173 -0.017386
-0.691440 -0.650446 -0.019133
-0.026326 -0.659927 0.671689
0.710476 -0.704796 0.030481
0.679873 0.681451 -0.009165
-0.007000 -0.658287 -0.677061
-0.691999 -0.648594 -0.016821
-0.681673 -0.009394 0.679154
0.678355 0.681459 -0.007428
-0.009313 -0.656856 -0.678597
0.675675 -0.002435 0.671799
-0.669889 0.628603 0.012848
0.700545 0.010601 -0.664628
0.698645 0.008759 -0.664149
-0.689085 -0.650153 -0.017303
0.708677 -0.703961 0.031679
-0.029286 -0.660578 0.672016
-0.681562 -0.010183 0.678883
0.707818 -0.704967 0.031091
-0.690478 -0.650757 -0.019156
-0.676448 -0.011574 -0.723654
-0.691836 -0.650532 -0.018488
-0.003873 0.691061 -0.640959
-0.674816 -0.011880 -0.723561
0.698401 0.010632 -0.663681
-0.028340 -0.659921 0.672390
0.708352 -0.704634 0.031498
0.679557 0.682167 -0.007469
-0.676087 -0.012044 -0.722481
-0.005155 0.682896 0.664482
0.676731 -0.003057 0.671503
-0.005636 0.681072 0.665617
-0.028642 -0.661035 0.673238
-0.027982 -0.660733 0.670391
0.699334 0.009391 -0.665170
-0.669467 0.628946 0.013341
-0.030012 -0.660714 0.671850
0.680776 0.682520 -0.007163
-0.028539 -0.661425 0.671202
-0.680806 -0.010081 0.679772
-0.028457 -0.662640 0.671974
-0.691798 -0.650979 -0.018143
-0.004932 0.684601 0.665395
-0.667540 0.628735 0.012934
-0.008024 -0.655802 -0.676585
-0.678213 -0.009772 -0.723918
-0.029351 -0.658478 0.671763
0.678452 0.680136 -0.008496
-0.675405 -0.011261 -0.722294
0.677866 -0.004133 0.670762
0.676632 0.683851 -0.006246
-0.693238 -0.650744 -0.017442
0.700465 0.009853 -0.666345
-0.003366 0.692415 -0.642245
-0.690627 -0.650688 -0.016518
0.680495 0.681905 -0.010123
-0.029285 -0.659682 0.672127
-0.004049 0.681237 0.665594
-0.027881 -0.660079 0.674590
-0.006775 0.682699 0.665777
-0.006143 -0.656860 -0.678737
-0.668331 0.629411 0.014110
-0.003864 0.682842 0.666811
0.680491 0.683826 -0.008606
0.680666 0.681560 -0.008873
0.698054 0.011248 -0.663655
-0.003576 0.691090 -0.641594
0.706826 -0.704042 0.029465
-0.008085 -0.654751 -0.676100
0.677068 -0.004703 0.671197
0.698143 0.010906 -0.664192
-0.682721 -0.008705 0.679075
-0.007831 0.683776 0.666402
0.700910 0.011676 -0.663470
-0.003215 0.693702 -0.642812
-0.692632 -0.648544 -0.018267
-0.691098 -0.648748 -0.017333
0.679371 0.681346 -0.009359
0.698910 0.008098 -0.663918
0.678969 0.682367 -0.008374
-0.670724 0.629535 0.012777
0.708162 -0.705321 0.031062
0.678487 0.682443 -0.009741
0.708043 -0.703467 0.033471
-0.676633 -0.009755 -0.723743
-0.691314 -0.651578 -0.016713
0.678740 0.682512 -0.010120
0.678950 -0.003302 0.671025
-0.028407 -0.660134 0.673236
-0.670624 0.628649 0.012478
0.699228 0.008575 -0.666465
-0.007743 0.682310 0.664545
-0.675030 -0.012042 -0.724580
0.679685 0.682762 -0.009028
-0.008399 -0.656368 -0.678712
-0.677559 -0.009077 -0.722818
0.679384 0.682434 -0.009670
-0.677761 -0.011698 -0.722567
-0.004644 0.691127 -0.643159
0.711027 -0.705342 0.032120
-0.668242 0.629882 0.012138
-0.691323 -0.649758 -0.018243
-0.680376 -0.009088 0.678834
-0.680475 -0.007556 0.678652
-0.670337 0.630717 0.012715
-0.002568 0.693570 -0.643075
-0.674793 -0.010330 -0.722207
-0.028993 -0.658578 0.673016
0.700715 0.009612 -0.663656
0.679425 0.681603 -0.007500
-0.027239 -0.662213 0.673305
-0.693120 -0.649652 -0.017289
-0.005925 0.681627 0.665386
0.707822 -0.705163 0.029098
-0.681232 -0.008932 0.679331
0.678500 0.682361 -0.008649
-0.027608 -0.658885 0.673472
-0.007548 -0.657150 -0.675508
0.710826 -0.706031 0.032246
-0.005995 0.681240 0.665128
0.680611 0.682258 -0.008886
-0.006312 0.683817 0.667497
-0.005710 0.683207 0.665271
0.677601 0.682356 -0.007618
-0.028238 -0.661314 0.674031
0.699026 0.009183 -0.665420
-0.006075 0.682342 0.662855
-0.004974 0.682990 0.667395
-0.028055 -0.660532 0.671973
-0.004023 0.682064 0.666002
-0.007876 -0.657229 -0.676949
-0.028022 -0.661057 0.671626
0.700943 0.009992 -0.663527
0.709483 -0.706374 0.032880
-0.670393 0.629531 0.014922
-0.682073 -0.008965 0.679356
-0.681930 -0.010487 0.678563
-0.004972 0.682473 0.665974
0.708306 -0.705597 0.032679
-0.691607 -0.649200 -0.017446
-0.681292 -0.009050 0.680986
-0.669275 0.629428 0.013987
-0.005219 0.682292 0.665311
0.678743 0.681272 -0.008015
-0.028003 -0.659026 0.671801
-0.671428 0.630527 0.012665
-0.004087 0.683837 0.666733
