OFF
256 0 0
0.700036 0.470728 -0.227844
0.223240 -0.504463 0.225143
-0.725266 -0.487397 0.247865
0.222810 0.006791 0.672009
-0.233715 -0.428324 -0.203400
0.721331 0.009829 -0.691607
0.236196 0.484305 -0.688390
-0.234231 -0.484316 0.701649
0.701744 0.470107 -0.228667
0.724954 -0.009205 0.245111
0.222419 0.005546 0.672210
-0.233011 -0.427383 -0.200791
-0.239832 0.465170 0.662728
0.700161 -0.453752 -0.235538
-0.236470 -0.483022 0.701161
0.222822 -0.503907 0.225141
0.725252 -0.010589 0.243304
-0.687048 -0.010445 0.710783
0.272028 0.474267 0.241446
-0.238500 0.465542 0.662108
0.234483 0.482441 -0.689659
-0.688523 -0.011434 0.710585
0.698726 -0.454168 -0.235608
-0.703819 -0.005934 -0.225471
0.272205 0.476939 0.242424
0.218905 -0.465342 -0.711655
-0.720501 0.467577 0.218367
0.235659 0.484852 -0.689660
0.226698 -0.504167 0.222671
0.219879 -0.461906 -0.711778
0.216517 -0.464591 -0.713382
0.722203 0.009748 -0.693145
-0.689460 -0.012118 0.711888
0.701057 -0.452821 -0.233672
-0.227195 0.008116 -0.705935
0.702307 0.471904 -0.228277
0.235123 0.483039 -0.686928
0.699777 -0.454235 -0.235624
-0.236041 -0.484126 0.703819
-0.689926 -0.011128 0.711836
0.222318 0.004754 0.672811
0.724487 -0.009406 0.245506
0.701604 -0.453814 -0.235230
0.722172 0.010352 -0.691731
0.216827 -0.462478 -0.711410
-0.226219 0.008371 -0.706444
-0.728069 -0.488147 0.248455
-0.706173 -0.007047 -0.225342
-0.234249 -0.429419 -0.202391
0.216980 -0.462321 -0.711202
-0.227372 0.009639 -0.705368
-0.236577 -0.482579 0.702558
0.214739 -0.463680 -0.712144
0.702988 0.473224 -0.228596
0.217213 -0.463625 -0.712914
0.700415 0.472545 -0.229410
-0.237425 0.465357 0.664925
0.235153 0.484260 -0.687350
-0.237324 0.464980 0.662599
0.724897 -0.008913 0.245031
0.234123 0.484537 -0.686353
0.698682 -0.453603 -0.235691
-0.704447 -0.005567 -0.224216
0.698762 -0.453618 -0.235369
0.225362 -0.502465 0.222832
-0.237180 0.464179 0.661650
0.723336 -0.007879 0.243123
0.701148 0.471025 -0.228768
-0.689042 -0.010757 0.709316
0.701298 0.469798 -0.229766
0.700114 -0.454084 -0.235238
-0.236285 -0.484857 0.701182
-0.227714 0.011255 -0.704998
-0.227919 0.009847 -0.706636
-0.718823 0.466213 0.220949
0.721883 0.009018 -0.690568
0.233634 0.485071 -0.688008
0.223998 -0.502984 0.223387
-0.234659 -0.482974 0.701088
-0.716928 0.468186 0.218078
0.222863 -0.505305 0.223720
-0.720447 0.466691 0.218739
0.700090 -0.452501 -0.236313
-0.704196 -0.006158 -0.223762
-0.247762 0.460181 -0.238673
-0.232657 -0.429846 -0.199605
0.233453 0.483252 -0.686941
-0.726172 -0.486464 0.249343
0.271741 0.474604 0.244069
0.699712 -0.451515 -0.233238
-0.706197 -0.005673 -0.225565
-0.246247 0.460271 -0.240267
0.700386 0.468867 -0.228028
-0.705754 -0.007982 -0.224895
0.701491 -0.454590 -0.235325
-0.233728 -0.485027 0.701226
0.701832 0.469187 -0.228342
-0.704325 -0.006375 -0.224191
0.701452 0.469490 -0.229349
0.702050 0.470691 -0.228762
-0.727442 -0.485229 0.248025
-0.237796 0.466393 0.664241
-0.245590 0.460458 -0.237092
-0.718699 0.466720 0.217204
-0.236094 -0.484204 0.702099
0.724436 -0.008989 0.243617
-0.227050 0.007607 -0.704639
0.224655 0.005325 0.672560
0.701484 -0.453603 -0.235675
-0.720015 0.469077 0.218089
0.724670 -0.008303 0.245751
-0.233729 -0.427946 -0.200806
0.234649 0.483684 -0.687343
0.724706 -0.009109 0.243311
-0.687173 -0.010653 0.711061
0.215440 -0.463241 -0.714234
0.224386 0.004082 0.670839
0.700522 0.469423 -0.227802
-0.718330 0.468055 0.217899
0.701248 -0.454592 -0.235297
0.218343 -0.464188 -0.711492
0.233869 0.483555 -0.688497
0.236832 0.486198 -0.688621
-0.704202 -0.005719 -0.224296
-0.246623 0.460036 -0.238933
0.225289 0.003031 0.672330
-0.248573 0.460407 -0.238287
0.216345 -0.462611 -0.711709
-0.236641 -0.484188 0.701755
0.271902 0.475876 0.242474
0.223828 0.005568 0.671129
-0.239314 0.465888 0.661487
-0.688987 -0.010648 0.710614
-0.235456 -0.484135 0.700152
-0.705939 -0.007719 -0.224036
-0.228597 0.009138 -0.706201
-0.719995 0.467576 0.220939
-0.725631 -0.488444 0.247971
0.698748 -0.454630 -0.235979
-0.236300 -0.483035 0.702168
0.723982 -0.009046 0.244687
-0.233638 -0.429737 -0.200340
-0.234979 -0.483831 0.700388
-0.248147 0.460033 -0.238109
0.702138 0.469882 -0.228789
-0.705381 -0.005607 -0.224329
0.720977 0.010326 -0.691660
0.223993 -0.504369 0.223650
-0.705421 -0.006862 -0.224488
0.272722 0.476366 0.242256
0.225603 0.004634 0.672625
-0.247769 0.459532 -0.237946
0.223950 0.004288 0.672384
-0.234032 -0.431038 -0.201508
-0.721134 0.468866 0.218702
-0.725858 -0.487690 0.247619
0.720582 0.009316 -0.692859
0.270627 0.476616 0.241606
-0.717815 0.467180 0.218733
-0.226246 0.009728 -0.706127
-0.232378 -0.428706 -0.200574
0.225107 -0.503987 0.224770
-0.720389 0.467632 0.219592
-0.688588 -0.011202 0.710701
-0.238647 0.465620 0.662297
0.217943 -0.464690 -0.711097
-0.718737 0.468246 0.217289
-0.226892 0.007233 -0.707748
0.726994 -0.007743 0.244301
0.722701 0.010218 -0.693524
-0.239509 0.466093 0.661799
-0.236439 -0.431654 -0.201491
-0.688324 -0.010385 0.710330
0.224601 0.004807 0.673677
-0.227332 0.010299 -0.704297
0.235569 0.483683 -0.689055
-0.688889 -0.011355 0.711010
-0.234796 -0.485056 0.701265
-0.238531 0.463871 0.664041
-0.718301 0.468212 0.220084
-0.717588 0.468134 0.217934
-0.704195 -0.004497 -0.225678
0.216903 -0.465265 -0.710852
0.724124 -0.008451 0.243967
-0.706282 -0.006460 -0.223491
-0.246534 0.458774 -0.237811
-0.233199 -0.429848 -0.202664
0.723695 -0.007611 0.246128
0.236017 0.484994 -0.687849
0.702436 0.471352 -0.228914
-0.238992 0.465630 0.662985
0.218258 -0.461495 -0.711486
0.216445 -0.465308 -0.710916
-0.235541 -0.483991 0.702588
-0.237894 0.464625 0.662423
0.234731 0.482855 -0.689054
0.272963 0.476157 0.242928
-0.235367 -0.430288 -0.200863
-0.724320 -0.487742 0.249841
-0.704841 -0.006810 -0.224677
-0.237654 0.465607 0.663270
0.272532 0.477250 0.241520
0.724627 -0.007601 0.243941
0.222956 0.005304 0.672697
-0.706987 -0.006452 -0.224575
0.272691 0.475525 0.242595
-0.237825 0.466123 0.663779
0.273149 0.473636 0.242724
-0.233732 -0.429812 -0.200996
-0.238460 0.465457 0.663780
0.224387 -0.503854 0.224260
0.723453 0.008831 -0.691101
0.217064 -0.462838 -0.711209
0.223660 0.005855 0.672948
-0.718497 0.468417 0.219442
-0.238607 0.464054 0.663424
0.235258 0.485486 -0.687329
0.225183 -0.503899 0.224366
0.725272 -0.010711 0.244930
-0.237933 0.465355 0.662218
-0.245745 0.459030 -0.237683
-0.726241 -0.488172 0.247368
0.234273 0.484377 -0.688808
0.270342 0.475939 0.242839
0.272380 0.475437 0.242684
0.722070 -0.008992 0.244517
0.224662 -0.502906 0.224088
-0.239222 0.464363 0.662440
0.704199 0.470970 -0.228819
-0.239303 0.465596 0.661529
-0.234157 -0.483741 0.702105
-0.239021 0.465107 0.662512
-0.727859 -0.486678 0.248139
0.223854 0.003761 0.671441
0.699951 -0.453211 -0.236368
-0.236418 -0.483059 0.702580
0.724423 -0.008634 0.243548
-0.688360 -0.012175 0.711120
0.701612 0.470460 -0.226996
0.273601 0.474934 0.243746
0.225917 -0.504980 0.224239
0.721980 0.008255 -0.691748
0.235714 0.483820 -0.688923
0.723677 -0.009066 0.244424
0.272881 0.474553 0.241196
-0.246755 0.460145 -0.237388
0.218894 -0.461849 -0.710836
0.726891 -0.010760 0.242975
-0.237446 0.466810 0.661755
0.272267 0.474771 0.242231
-0.234731 -0.484713 0.700696
-0.727029 -0.485910 0.246021
0.234448 0.483387 -0.688029
-0.237084 0.464119 0.663764
-0.233916 -0.427483 -0.201860
0.724189 -0.007199 0.245148
