OFF
256 0 0
0.002052 0.727043 -0.305004
-0.838512 0.307488 0.113106
-0.418988 -0.113181 -0.724307
0.419836 0.307399 -0.306200
-0.422520 0.724777 0.112972
0.418957 0.308248 0.533743
-0.418980 0.306172 0.532638
0.836815 -0.531908 0.113890
0.000278 -0.532030 0.112960
-0.837784 0.305638 0.112870
0.419078 -0.531692 0.533298
0.417709 -0.532002 -0.305051
0.838144 -0.532946 0.112001
-0.420401 -0.532550 -0.307475
-0.838890 -0.111923 -0.304984
-0.000944 0.728200 0.531960
0.838772 0.306716 0.113845
-0.000574 -0.113486 0.533025
0.000516 -0.531185 0.113891
0.418702 -0.530976 0.532686
0.418737 -0.531212 -0.306202
0.420328 0.724728 0.112537
-0.418075 0.306785 -0.306487
-0.421009 0.309488 -0.307304
-0.418131 -0.112646 -0.725372
0.420186 0.724853 0.113926
0.420486 -0.530819 -0.306040
-0.000249 0.726236 -0.307305
0.420776 0.304055 0.532381
0.420287 -0.112138 -0.726472
-0.418895 0.307017 -0.306335
0.838304 -0.532790 0.112636
0.840262 0.306676 0.112966
0.418803 -0.532238 -0.306154
-0.419739 -0.111630 -0.726139
-0.840306 -0.533113 0.113068
0.419847 -0.531596 0.532610
-0.000524 0.306667 -0.725926
-0.839635 -0.111812 0.532890
0.420048 -0.531982 0.532869
0.000760 0.307864 -0.725722
-0.418702 0.305487 0.531669
-0.419038 0.306653 0.532175
0.001198 -0.114563 0.533001
0.838450 -0.111072 0.532711
-0.000115 -0.533620 0.112495
0.001733 -0.113392 0.533374
0.419731 -0.531385 -0.306543
-0.419494 0.308160 0.533761
-0.838572 -0.112231 -0.306193
0.418271 -0.531588 0.531758
-0.418395 0.307409 -0.308273
-0.839047 0.306737 0.115018
-0.419200 0.307547 -0.308300
-0.838357 0.305889 0.114372
-0.840939 -0.532388 0.114608
0.000691 0.307667 -0.725193
0.837560 -0.532605 0.111777
0.417223 -0.533324 -0.305949
0.838723 -0.113003 -0.304845
0.420094 -0.533470 -0.307151
-0.838473 -0.111107 -0.305359
-0.000858 -0.531595 -0.727173
-0.002346 0.724959 0.532515
-0.419370 0.306191 -0.307325
-0.000850 0.725572 0.532596
0.837207 -0.531308 0.112561
0.000467 -0.532142 -0.725586
-0.000337 -0.534632 -0.726764
-0.418626 0.305259 0.532269
0.000059 0.727861 -0.307683
-0.000859 0.724909 0.532969
-0.000725 -0.113011 0.533940
-0.419637 0.306951 -0.308072
-0.420026 0.305659 0.532980
-0.839114 -0.533166 0.113409
0.420244 -0.111435 -0.726031
0.837563 -0.532312 0.112136
-0.000032 0.725649 -0.305050
-0.419580 0.306072 0.531537
-0.000026 0.726161 -0.306272
-0.000641 -0.112606 0.532322
0.838502 -0.112246 0.533142
-0.839418 0.308946 0.113164
0.000340 0.725827 0.533935
-0.418509 0.306378 0.531904
-0.836896 -0.111554 0.531329
-0.419111 0.306977 -0.305267
-0.418988 0.725717 0.111885
0.418748 0.726830 0.111503
0.420121 0.307102 -0.305552
0.417796 0.306460 0.532410
-0.420397 0.307525 0.533287
-0.419022 -0.531711 -0.308444
0.417820 0.307526 -0.306167
0.417526 0.725372 0.112564
-0.418684 -0.532214 -0.307551
0.840216 -0.112702 -0.305810
0.840019 -0.532409 0.112829
0.419709 0.305807 -0.306243
-0.002698 -0.531919 -0.727246
-0.000972 0.726225 -0.306427
0.839000 -0.112177 -0.307275
0.837793 0.307680 0.112578
-0.837807 -0.113841 -0.305810
0.836693 -0.110928 0.531167
0.420368 -0.113606 -0.725930
-0.419280 0.305893 -0.306944
-0.419377 0.306788 0.530788
0.418935 0.306362 -0.307471
0.838400 -0.532000 0.114190
0.000991 0.726561 -0.308198
-0.418819 0.306623 0.532930
-0.419416 0.306770 -0.305190
-0.418568 -0.532762 0.533533
-0.420191 0.306525 0.532756
0.419198 -0.533082 -0.305744
0.839902 0.305760 0.112752
-0.418496 0.725254 0.113883
-0.419527 0.305093 -0.305373
-0.000427 0.306119 -0.725253
-0.000995 -0.531939 0.112930
0.420800 -0.113307 -0.726888
-0.000582 -0.533379 0.113418
0.420592 0.726423 0.113552
-0.838709 0.309337 0.112842
0.419298 -0.530822 0.531826
-0.420915 0.306721 -0.306705
0.841212 -0.114801 -0.306791
0.838501 0.307006 0.112885
-0.000919 -0.533844 0.114582
-0.419928 0.308270 0.530887
-0.000623 0.726690 0.533094
0.001157 -0.529824 -0.724616
-0.000298 -0.113958 0.533445
0.002424 -0.533900 0.112455
-0.839151 -0.532295 0.113070
0.419018 -0.113942 -0.727811
0.000060 -0.113063 0.531538
0.000044 -0.530185 0.112735
0.419824 -0.532416 0.533172
-0.417847 0.307059 0.532408
0.420864 0.724965 0.111425
-0.419805 0.305580 -0.306049
-0.419678 0.309202 -0.306429
0.838971 -0.113469 -0.304853
0.419003 -0.532614 -0.306760
0.419962 0.305954 0.532629
-0.419458 -0.114002 -0.726993
-0.837814 -0.113320 -0.305921
-0.000108 -0.531423 0.113268
0.420822 0.305206 0.533075
0.421400 -0.110784 -0.725321
0.838739 0.305258 0.114127
0.837643 0.305408 0.113988
0.001331 -0.113652 0.532310
0.000980 0.726343 0.530956
0.417931 -0.115686 -0.725479
-0.000847 -0.531191 -0.728116
-0.420294 -0.533132 0.532265
0.417498 0.305517 0.533053
-0.000370 0.307380 -0.725731
-0.000210 0.726073 0.533755
0.418512 0.307492 0.531474
-0.419877 -0.531715 0.530570
-0.420967 -0.530784 -0.307031
0.419621 -0.533148 0.530833
-0.840237 -0.531576 0.113773
-0.419556 -0.532317 0.532990
-0.838615 -0.112626 0.531930
-0.001499 -0.531989 0.111946
0.838511 -0.531712 0.114193
-0.419738 -0.532903 0.533045
-0.000635 0.306232 -0.727292
-0.421010 -0.532426 -0.307717
0.421274 -0.534663 0.531427
-0.839187 -0.532630 0.112951
-0.420477 -0.531962 -0.306661
0.420087 -0.531969 -0.306096
0.419552 -0.533474 0.532497
0.418842 -0.534520 0.530759
0.840007 -0.114184 -0.306011
-0.000159 0.725150 0.533572
-0.838858 -0.113106 -0.306280
0.421558 -0.532609 -0.305369
-0.417730 -0.532295 0.532857
-0.419758 0.306427 0.533170
-0.837635 -0.531682 0.112900
-0.000352 -0.532364 -0.725477
0.837697 -0.114066 -0.304366
0.000164 0.724965 0.531914
0.000594 -0.533204 0.114005
-0.837622 -0.114142 -0.304842
-0.838864 -0.111850 -0.304867
-0.418847 -0.531089 0.532441
0.838137 0.307110 0.113998
-0.839858 -0.112406 0.532680
-0.418566 -0.531156 0.533436
-0.418912 -0.533095 -0.306954
0.000029 -0.112368 0.531125
0.420066 0.305657 -0.306064
-0.840252 -0.112451 0.533078
0.837738 0.307744 0.112953
0.839717 -0.111423 0.529815
-0.419369 0.725932 0.110656
0.420324 0.306064 -0.305829
-0.839091 0.306351 0.114295
0.000911 -0.530302 0.112124
0.000666 0.307150 -0.728030
-0.838640 -0.533260 0.113936
0.001968 -0.531881 0.113068
0.836783 0.306749 0.112358
0.838160 -0.111842 -0.304681
0.837057 -0.114030 -0.305553
0.418156 0.306215 -0.305552
-0.837883 0.308439 0.112627
0.419962 0.307129 -0.306327
-0.422402 -0.113313 -0.725443
0.418970 -0.531178 -0.307368
-0.839914 -0.112744 0.532069
0.839086 -0.530971 0.114399
0.838959 -0.532923 0.112996
-0.420310 0.725821 0.111972
0.000470 -0.110260 0.531542
0.000479 0.725291 -0.307880
0.837774 0.305252 0.113171
0.840044 -0.113480 0.533322
-0.000773 -0.113924 0.534014
0.420232 0.308263 0.530728
0.420504 -0.111581 -0.726739
-0.419076 -0.112298 -0.725472
0.418032 0.725330 0.114234
0.420799 0.724773 0.112527
0.420141 0.306868 0.532521
0.419912 0.307228 0.533182
0.418118 -0.531003 -0.306812
-0.839095 -0.113375 -0.306473
-0.418776 -0.532938 -0.304788
0.420341 -0.532219 0.532394
0.419338 -0.532735 0.532097
-0.839169 0.307955 0.113235
-0.000284 0.726903 0.531485
0.000286 -0.114180 0.533111
-0.420948 0.726753 0.112419
-0.000495 -0.533334 -0.726588
-0.418845 -0.532014 0.531493
-0.001419 -0.111266 0.532921
0.838070 -0.532827 0.112984
-0.417830 0.725355 0.110974
-0.418351 -0.532291 -0.305405
-0.419980 -0.532004 0.533856
0.418775 0.726224 0.112937
0.001047 -0.113929 0.531749
-0.420429 -0.532817 -0.307034
0.419213 -0.534593 -0.307201
0.419093 0.306857 0.532200
