OFF
256 0 0
0.835842 -0.134584 0.529194
-0.403567 0.291976 -0.296091
0.025216 0.720384 0.524957
0.396995 -0.531927 0.521631
-0.418897 -0.507662 -0.290915
0.001986 -0.089661 0.484968
0.394334 -0.510548 -0.294620
0.809090 -0.513423 0.117689
0.809791 -0.514749 0.117422
0.814618 -0.121733 -0.290440
-0.809660 -0.091001 -0.304815
0.809119 -0.512833 0.118811
-0.014154 -0.543915 -0.695540
-0.814349 -0.086893 0.507731
0.814883 -0.122021 -0.289634
0.807868 -0.513035 0.118304
0.814518 -0.120294 -0.290557
-0.788511 0.296646 0.118029
0.014873 0.694561 -0.291643
0.397510 -0.510054 -0.295791
-0.850873 -0.512469 0.100440
-0.417837 -0.508311 -0.290869
-0.851223 -0.513072 0.099082
-0.394670 -0.479955 0.499666
-0.788791 0.297213 0.116993
0.385886 -0.147653 -0.734725
-0.396120 -0.479241 0.501114
-0.850682 -0.512748 0.098766
-0.417749 -0.120195 -0.718692
0.000639 -0.091426 0.485464
-0.814077 -0.085211 0.507887
-0.393284 -0.479066 0.501298
-0.813585 -0.085074 0.509746
0.403424 0.698349 0.116538
-0.417631 -0.119040 -0.718998
0.404122 0.696984 0.115967
-0.787401 0.298951 0.118924
-0.788509 0.298758 0.119283
-0.012028 -0.543812 -0.696289
0.025967 0.720803 0.523144
0.821077 0.303347 0.111851
0.002984 -0.088233 0.484332
0.837696 -0.134233 0.529648
0.444538 0.292813 0.541688
0.815534 -0.120285 -0.289725
0.003388 -0.089617 0.484912
-0.815075 -0.085394 0.509514
0.396556 -0.509551 -0.297265
0.015198 0.696981 -0.293423
0.395906 -0.510273 -0.296448
0.393989 -0.531429 0.522120
0.375445 0.264610 -0.284571
0.445664 0.290999 0.541412
-0.786621 0.297944 0.120434
0.001297 -0.087674 0.486519
-0.420928 -0.119704 -0.718979
0.001610 -0.088669 0.483932
0.016079 0.695287 -0.293273
0.836635 -0.133818 0.530368
0.375459 0.265506 -0.286847
-0.399047 0.724070 0.103850
-0.391887 -0.478806 0.501091
0.397626 -0.511516 -0.296810
0.027189 0.722308 0.525486
0.392027 -0.531391 0.521225
0.814281 -0.119950 -0.289580
-0.816183 -0.085464 0.508159
0.387414 -0.146937 -0.733397
0.003965 -0.088112 0.485458
-0.404278 0.292766 -0.296960
0.821158 0.304754 0.113164
-0.787224 0.298263 0.118764
-0.852098 -0.514029 0.098751
0.385711 -0.147399 -0.735366
-0.402351 0.295830 -0.297000
0.393381 -0.530640 0.522437
0.444330 0.292109 0.542908
0.384625 -0.147822 -0.735431
-0.810429 -0.090162 -0.303275
0.404699 0.696511 0.116029
-0.402509 0.300846 0.520175
-0.401911 0.301104 0.520282
0.814249 -0.121994 -0.292056
0.394402 -0.532444 0.520039
-0.404248 0.300302 0.521884
0.015960 0.695844 -0.292243
0.835995 -0.133867 0.529432
0.813752 -0.120257 -0.292195
-0.404339 0.292854 -0.295212
-0.852820 -0.514614 0.100733
0.024189 0.719909 0.524791
-0.853190 -0.514233 0.098863
-0.010637 -0.541245 -0.695471
0.405233 0.699072 0.115898
0.813783 -0.121047 -0.290486
0.386281 -0.147267 -0.734524
-0.394430 -0.479064 0.502068
0.374685 0.266312 -0.285447
-0.026966 0.292891 -0.717007
-0.418849 -0.509161 -0.290624
0.002612 -0.089543 0.484337
-0.012233 -0.544660 -0.694840
0.014777 0.696026 -0.290444
0.394821 -0.510267 -0.295280
-0.815057 -0.083071 0.507506
0.813422 -0.120116 -0.290728
-0.028541 0.293001 -0.717163
0.015101 0.694022 -0.293529
-0.393500 -0.479615 0.502219
0.396933 -0.510012 -0.296192
0.374990 0.265129 -0.284435
0.394604 -0.532594 0.519301
0.813619 -0.121617 -0.290550
-0.787623 0.297198 0.118366
-0.404250 0.300895 0.519117
-0.417797 -0.507349 -0.292627
-0.852086 -0.514999 0.100901
-0.403181 0.293264 -0.296099
0.834575 -0.134738 0.528647
-0.397542 0.723438 0.103423
0.402859 0.696783 0.115987
0.385155 -0.146861 -0.733470
0.025013 0.719753 0.524044
-0.852994 -0.513588 0.100838
-0.850005 -0.512928 0.099490
0.442192 0.292342 0.542201
-0.404596 0.292854 -0.295626
-0.025540 0.295346 -0.717086
-0.417295 -0.119092 -0.720015
-0.395799 -0.482583 0.502493
0.810895 -0.514268 0.118504
0.024014 0.720797 0.524924
-0.404866 0.292740 -0.295175
-0.809479 -0.091330 -0.305886
0.384613 -0.145964 -0.734274
-0.396238 0.722128 0.102576
0.026093 0.721524 0.524355
0.809537 -0.513017 0.118357
-0.815027 -0.084890 0.507526
-0.398311 0.725441 0.104821
0.394225 -0.530159 0.518822
-0.852699 -0.513237 0.099979
0.014977 0.695071 -0.291666
-0.397268 0.721845 0.101520
0.385427 -0.145288 -0.735909
-0.405816 0.301173 0.520411
0.815841 -0.122678 -0.290581
-0.396550 0.724112 0.104978
-0.395299 0.723869 0.105530
0.810063 -0.513416 0.120077
0.027292 0.723759 0.526039
0.835935 -0.134926 0.529655
0.809393 -0.515035 0.117366
-0.396981 0.725802 0.101900
-0.394764 -0.479605 0.501397
-0.811032 -0.090357 -0.304763
-0.813209 -0.086151 0.508048
0.392520 -0.532123 0.521637
0.808024 -0.512574 0.117665
-0.403957 0.295095 -0.294982
-0.418717 -0.119658 -0.719354
0.394078 -0.532423 0.520456
0.016185 -0.499933 0.121800
0.810161 -0.513917 0.117753
0.015779 0.694779 -0.291804
-0.854169 -0.514841 0.102312
0.015360 -0.501510 0.122504
-0.027581 0.294032 -0.717961
0.000850 -0.088954 0.484936
-0.787843 0.297538 0.117260
0.015943 -0.501067 0.121546
0.384312 -0.147267 -0.734701
0.836713 -0.134520 0.530086
-0.403958 0.300911 0.520812
0.374559 0.263645 -0.285295
0.385280 -0.147464 -0.735145
-0.013538 -0.542973 -0.696543
0.404664 0.697322 0.116503
-0.397227 0.724157 0.102737
0.013651 0.696370 -0.293128
-0.027264 0.293286 -0.717999
-0.810584 -0.087786 -0.307074
-0.397367 0.724204 0.104004
-0.812291 -0.084822 0.508400
-0.393550 -0.479934 0.500564
-0.392642 -0.479707 0.500502
0.027497 0.720471 0.526163
0.836138 -0.134173 0.531836
-0.418633 -0.119735 -0.718897
-0.027800 0.292103 -0.716599
0.396382 -0.511965 -0.296203
0.404958 0.697725 0.116494
0.814186 -0.119945 -0.291364
0.016772 -0.499539 0.121466
0.394156 -0.532391 0.521710
-0.417193 -0.507255 -0.291194
0.820755 0.303810 0.113699
-0.811770 -0.089809 -0.305544
0.393351 -0.530941 0.520968
0.821149 0.304284 0.112136
0.394502 -0.533355 0.522161
-0.809046 -0.089709 -0.304633
-0.027500 0.292272 -0.718449
0.374685 0.266522 -0.285159
-0.788139 0.297098 0.120357
0.392799 -0.532858 0.521640
-0.029168 0.294247 -0.717943
-0.396702 0.725848 0.103879
0.393416 -0.531866 0.522440
0.403734 0.696255 0.117302
0.002116 -0.086566 0.484516
0.812930 -0.119000 -0.290631
0.374885 0.267691 -0.284984
-0.811071 -0.090626 -0.304048
-0.026712 0.292186 -0.717445
-0.394370 -0.478535 0.500912
0.002345 -0.087775 0.485247
0.384837 -0.146395 -0.734658
-0.811281 -0.090147 -0.305761
0.000363 -0.087995 0.485601
-0.421256 -0.120867 -0.719915
0.814353 -0.119183 -0.289191
0.444706 0.293610 0.543457
0.025348 0.722554 0.525092
0.025305 0.721732 0.526139
-0.392760 -0.480026 0.501495
-0.013048 -0.544451 -0.696152
0.443097 0.292414 0.542730
-0.011347 -0.544067 -0.697608
0.013613 0.694594 -0.289899
0.809725 -0.512703 0.118327
-0.851947 -0.513666 0.100472
-0.419568 -0.118558 -0.719537
0.003127 -0.088791 0.484832
0.376545 0.265047 -0.286098
-0.788723 0.296712 0.119035
0.396646 -0.510597 -0.296286
-0.403441 0.300489 0.520598
-0.788548 0.297223 0.117487
0.014586 -0.499498 0.122390
-0.393292 -0.480371 0.500948
-0.405214 0.301241 0.518939
-0.851552 -0.513083 0.098712
-0.027775 0.293902 -0.716994
0.015231 0.696331 -0.291571
0.373907 0.263063 -0.285828
0.026260 0.719353 0.526486
-0.852916 -0.513701 0.098046
0.392665 -0.534035 0.522092
0.017088 -0.499241 0.121844
0.405131 0.697597 0.115754
0.814965 -0.119466 -0.289558
0.395892 -0.509587 -0.296852
-0.809298 -0.090332 -0.306675
-0.395909 0.724148 0.104862
0.395960 -0.509737 -0.295425
