OFF
256 0 0
-0.003112 0.702041 -0.294805
0.805669 -0.101444 0.508905
-0.829378 0.322965 0.086417
0.427780 -0.140180 -0.714076
-0.845026 -0.517607 0.131593
-0.008785 0.284524 -0.721528
-0.361901 0.251026 -0.284299
-0.815808 -0.102237 0.522529
-0.362422 0.250625 -0.282423
-0.814888 -0.104282 0.523469
-0.426685 -0.504581 -0.280645
-0.404818 0.278686 0.514329
0.436845 0.715705 0.095410
0.412059 0.312607 0.516586
0.852973 0.296636 0.118716
-0.000612 0.702707 -0.292268
0.438358 0.713360 0.094370
-0.844244 -0.518363 0.131236
-0.404732 0.278151 0.516000
0.807066 -0.506990 0.098706
-0.398958 -0.114774 -0.706051
-0.829289 0.321960 0.087235
0.413122 -0.515461 -0.298348
-0.002163 0.703086 -0.292938
-0.035915 -0.524745 0.104585
0.387412 -0.496784 0.532833
0.805316 -0.507847 0.099880
-0.001485 0.702744 -0.294804
-0.400824 -0.115120 -0.707696
-0.008402 0.284721 -0.720880
-0.361872 0.250170 -0.282540
-0.423257 -0.491262 0.533389
-0.843556 -0.519683 0.129923
0.388629 -0.495788 0.530364
0.413987 -0.516716 -0.299115
-0.830897 0.321886 0.085903
-0.416102 0.727984 0.086364
-0.426862 -0.504227 -0.279075
0.406663 0.272873 -0.267490
-0.406585 0.277235 0.514800
0.387248 -0.496926 0.531002
-0.362013 0.250783 -0.285421
-0.418752 0.728043 0.087466
-0.415759 0.728625 0.086067
-0.002580 -0.546348 -0.703887
0.388399 -0.497509 0.530867
-0.362090 0.251115 -0.285146
0.413530 0.311738 0.516157
-0.000238 -0.547357 -0.704519
0.007456 0.703445 0.499698
-0.843813 -0.519792 0.129008
-0.845923 -0.517748 0.130115
-0.839452 -0.104633 -0.285976
-0.034873 -0.523759 0.105700
0.439492 0.714727 0.094960
-0.830305 0.321171 0.087213
0.805448 -0.509077 0.098847
-0.813141 -0.101632 0.522489
0.412691 -0.516439 -0.298596
0.401312 0.270562 -0.268103
0.001552 -0.548626 -0.703736
-0.008346 0.282590 -0.720774
0.413331 0.311253 0.516962
0.389004 -0.496693 0.531475
-0.001169 -0.547441 -0.705086
0.412493 0.311149 0.517756
0.008562 -0.077687 0.504654
0.413987 -0.515493 -0.298273
0.857477 0.293582 0.119220
0.853507 0.296147 0.117040
0.010382 -0.077218 0.505085
-0.363531 0.250382 -0.283592
-0.428055 -0.506500 -0.279699
-0.816332 -0.104529 0.523950
0.854804 0.294450 0.118854
0.855133 0.295230 0.117038
-0.001529 0.701749 -0.294539
-0.399193 -0.116030 -0.706270
-0.003860 0.701707 -0.294282
0.840726 -0.108352 -0.298482
0.842238 -0.111060 -0.299231
-0.417745 0.730020 0.087047
-0.008611 0.283952 -0.719507
0.437214 0.712503 0.097253
-0.814803 -0.101416 0.523501
-0.401059 -0.113190 -0.706458
0.007307 0.703773 0.498792
0.803992 -0.103402 0.507647
0.806181 -0.103214 0.509143
0.438305 0.712964 0.096771
-0.846165 -0.519505 0.131854
0.008600 0.704818 0.499867
0.389550 -0.497783 0.531681
0.411882 -0.516328 -0.297087
-0.401749 -0.114119 -0.705637
0.410411 -0.516067 -0.296641
-0.425915 -0.504844 -0.280077
0.437990 0.713315 0.096884
-0.400298 -0.112189 -0.705225
-0.827516 0.322047 0.084516
0.010051 -0.077998 0.503880
0.000404 -0.548037 -0.703646
0.389181 -0.495624 0.529448
-0.007196 0.283690 -0.719694
-0.812999 -0.104161 0.522690
-0.815129 -0.102467 0.524546
0.804669 -0.102852 0.507942
-0.427573 -0.504610 -0.280382
0.007100 -0.077313 0.504297
0.839685 -0.110316 -0.298273
0.006724 -0.077462 0.505778
-0.417934 0.729835 0.086615
0.841788 -0.110357 -0.298588
-0.362650 0.252819 -0.285538
0.437925 0.711871 0.095868
-0.812627 -0.104943 0.523507
0.437554 0.713348 0.096762
-0.035770 -0.524414 0.105866
0.806628 -0.507663 0.100409
0.414328 0.312557 0.516059
0.411154 -0.516049 -0.298554
-0.828562 0.321413 0.086259
0.803242 -0.100424 0.508405
0.427990 -0.139590 -0.715187
-0.415441 0.729231 0.088329
-0.035174 -0.524938 0.105580
0.413189 0.312305 0.517529
0.852117 0.296089 0.117487
0.412064 -0.516159 -0.297234
-0.828962 0.322161 0.086805
-0.427210 -0.505688 -0.280492
0.000552 -0.546867 -0.702784
-0.814739 -0.101614 0.520991
-0.416022 0.728252 0.088347
-0.429037 -0.505561 -0.281959
0.805305 -0.101598 0.508368
0.429509 -0.141049 -0.714239
0.802892 -0.101462 0.507465
-0.007496 0.283013 -0.721414
-0.034610 -0.525025 0.105416
-0.845702 -0.518291 0.131017
0.008740 -0.077672 0.503977
0.436232 0.712704 0.094527
-0.001832 0.702389 -0.294215
0.403143 0.273558 -0.267725
-0.034587 -0.524509 0.104212
-0.001651 0.702306 -0.294051
0.389296 -0.497259 0.531374
-0.828115 0.322990 0.087536
0.428135 -0.140270 -0.715606
0.001691 -0.545907 -0.704774
-0.843551 -0.517971 0.131222
0.008020 0.704171 0.498259
-0.814993 -0.103697 0.523183
0.805256 -0.507794 0.097143
0.805301 -0.509251 0.098098
-0.421030 -0.493268 0.533490
-0.814590 -0.103091 0.524914
0.410728 -0.517550 -0.297365
0.853231 0.294918 0.116512
0.388568 -0.496401 0.531120
0.438677 0.714474 0.095095
0.006995 0.704416 0.498741
0.010640 -0.078573 0.503712
0.841666 -0.110090 -0.297571
-0.035492 -0.523497 0.104095
-0.362038 0.250116 -0.284372
0.009881 -0.077853 0.505926
-0.838840 -0.103867 -0.285664
0.804985 -0.101580 0.507687
0.387923 -0.496347 0.529627
-0.422352 -0.494108 0.532956
0.403053 0.272081 -0.268419
0.428233 -0.139972 -0.714909
0.840887 -0.109459 -0.298577
-0.813913 -0.103447 0.523857
-0.000825 0.702812 -0.293376
-0.428103 -0.505047 -0.280493
0.008211 0.703352 0.500342
0.804914 -0.508427 0.098512
-0.842852 -0.518737 0.132002
-0.828419 0.322185 0.085827
-0.036109 -0.523566 0.104329
0.428659 -0.140200 -0.715160
0.415018 0.310222 0.516690
-0.035271 -0.525222 0.103812
-0.839252 -0.104848 -0.285131
-0.034492 -0.524096 0.105494
-0.427834 -0.505921 -0.281028
-0.839161 -0.105535 -0.287276
-0.361389 0.249816 -0.286667
0.853207 0.295533 0.117040
-0.001626 -0.546313 -0.703227
0.403133 0.271551 -0.267371
0.413813 0.312179 0.516475
0.403726 0.270964 -0.268395
-0.828953 0.320463 0.086308
0.411228 -0.515712 -0.295977
-0.838994 -0.105651 -0.284637
-0.001251 0.700956 -0.294939
0.804312 -0.509082 0.100212
-0.422835 -0.493598 0.531520
-0.416262 0.727663 0.087798
0.008913 -0.078832 0.504370
0.009202 -0.077652 0.503132
0.436739 0.713002 0.096265
-0.839161 -0.103443 -0.285451
0.404528 0.270531 -0.267295
0.804069 -0.103065 0.508502
-0.426980 -0.506550 -0.279512
-0.415514 0.727803 0.086427
-0.006572 0.284966 -0.721269
0.804123 -0.101092 0.511293
0.436313 0.713482 0.094970
0.427609 -0.139791 -0.713654
0.437653 0.712922 0.096620
0.428636 -0.142081 -0.714064
-0.362633 0.250105 -0.284560
0.403375 0.273374 -0.267123
0.437607 0.714385 0.097550
-0.845211 -0.518484 0.132250
0.855049 0.296266 0.118706
-0.405204 0.277420 0.515649
-0.003312 -0.545698 -0.704016
0.841347 -0.107974 -0.297294
-0.000506 -0.547933 -0.704371
-0.000314 0.702873 -0.293763
-0.427257 -0.504315 -0.278942
-0.426913 -0.504507 -0.280122
0.404742 0.271982 -0.268475
0.388433 -0.496131 0.532104
-0.007140 0.284470 -0.720298
-0.000750 -0.547453 -0.705588
0.437443 0.713289 0.096963
0.804394 -0.506840 0.099126
0.805692 -0.509533 0.099199
-0.422995 -0.492294 0.534720
0.008583 -0.078026 0.503714
0.403532 0.273819 -0.267548
0.009592 -0.079257 0.504953
0.438877 0.712812 0.096530
-0.362561 0.249553 -0.284266
-0.037065 -0.523879 0.104283
0.804426 -0.508878 0.098683
0.406001 0.270552 -0.268637
0.007863 -0.078036 0.504972
0.804038 -0.102327 0.506949
0.388917 -0.494879 0.531215
-0.844838 -0.518497 0.131075
-0.845745 -0.518258 0.131401
-0.007753 0.284060 -0.720037
-0.418705 0.728797 0.086368
-0.006589 0.282914 -0.720814
-0.007256 0.287016 -0.720856
0.009387 -0.078160 0.504282
0.437218 0.714040 0.097201
