OFF
256 0 0
0.000776 -0.707027 0.706774
0.705713 0.000081 0.707940
-0.708119 -0.707579 -0.000171
0.705465 -0.706640 0.000693
-0.707917 -0.001213 0.707295
0.708088 -0.706122 -0.000041
-0.000715 0.707570 -0.709002
-0.706209 0.707049 -0.000809
-0.706616 -0.000074 -0.707175
0.706892 -0.707171 0.000160
-0.708482 -0.707228 -0.001685
0.000053 -0.707660 -0.708290
-0.705941 0.001399 -0.707505
0.000595 -0.706264 0.705938
-0.000806 -0.706923 0.706762
0.706701 -0.000049 0.707071
-0.707453 0.708218 -0.000601
0.001244 -0.708626 -0.709047
0.707504 -0.000496 -0.706437
0.000505 -0.708337 0.705541
-0.708784 0.706160 -0.000511
-0.706870 0.001113 0.707069
0.706643 0.707201 -0.001322
-0.707768 0.709651 0.000484
0.000023 0.705824 -0.708959
0.707312 0.000391 0.707160
0.001226 -0.706836 0.707352
0.707281 0.708409 -0.000401
-0.708173 -0.706879 -0.000101
-0.001816 0.708076 0.706386
-0.707032 0.001418 -0.707195
0.000458 -0.707675 -0.706045
-0.707398 0.706382 0.000365
-0.707485 0.000266 -0.707055
0.706920 0.706250 -0.000335
0.001291 -0.705487 0.707888
-0.002030 0.707289 0.706628
0.000189 -0.707176 -0.707711
0.706901 -0.705792 -0.001117
0.707990 -0.707814 0.001267
0.706476 0.707187 -0.001170
0.708046 -0.706270 0.001282
-0.000459 -0.707444 -0.709967
0.000064 0.704774 -0.705270
0.000974 0.706502 -0.705523
0.001350 0.708836 0.707242
-0.705240 0.000137 0.706854
0.706678 0.001179 0.707136
-0.000250 0.706855 -0.706904
0.707017 0.707279 -0.001468
0.000386 -0.708339 -0.705561
0.705735 -0.707199 -0.000563
-0.706378 -0.000963 -0.706008
0.707386 -0.706680 0.000353
-0.707103 -0.706600 0.002755
0.707546 0.000806 0.706027
-0.707131 0.706889 0.000524
-0.705043 0.000646 -0.707032
0.706505 -0.707428 0.000253
-0.706028 -0.706783 -0.000333
-0.705784 0.001113 0.706690
-0.706723 0.001239 -0.707913
0.708940 0.707512 0.000349
0.707412 0.706408 0.000839
0.000493 0.706707 0.707327
0.707129 -0.707063 0.000714
0.705182 0.000376 0.706530
-0.706378 -0.001395 0.708117
-0.706149 -0.000180 -0.706875
0.706802 -0.706336 0.000050
0.709029 -0.706436 0.001258
0.707821 0.707596 -0.000064
0.001198 0.706789 0.707647
0.001092 -0.706487 0.708073
-0.000235 0.707367 0.708064
0.707165 0.001132 -0.705437
0.000275 -0.706766 -0.706104
-0.708930 -0.707176 -0.000348
-0.001422 -0.706947 -0.708195
0.000591 0.707922 0.708428
0.707853 0.705462 0.002221
0.707088 -0.706893 -0.000870
-0.708846 0.001949 0.706943
-0.000568 -0.708967 -0.706124
-0.707275 -0.001655 0.707990
-0.706198 0.706223 -0.000060
-0.705638 -0.000497 0.707192
0.708057 0.706339 -0.000159
0.706217 -0.000449 -0.707668
0.708227 -0.000657 -0.706601
-0.707467 0.001784 -0.707074
-0.000079 -0.704100 -0.708869
0.000993 -0.706848 0.705907
0.000125 -0.707573 -0.708514
-0.706218 0.705747 0.000720
-0.000730 0.707988 0.706196
0.707724 -0.000784 0.707561
-0.704557 0.000341 0.704666
-0.001425 -0.707806 0.709223
0.707840 0.001277 -0.707929
0.708953 0.706581 0.000180
0.707504 -0.705767 0.000722
0.707903 0.706908 0.000043
-0.000364 0.707255 0.705546
-0.000506 0.706718 0.707131
0.000235 0.706017 0.705353
0.705373 0.708856 -0.001542
0.000262 0.707490 0.707084
0.000916 0.706471 0.705430
-0.000705 -0.707410 -0.707303
0.707709 -0.708365 -0.001197
-0.706130 -0.001524 -0.705304
0.000148 -0.705144 -0.707919
0.707523 -0.000533 -0.709359
-0.000964 -0.706611 -0.706410
-0.709182 -0.001160 0.705350
-0.707018 -0.706297 -0.001890
-0.706370 -0.000271 0.707658
0.706314 -0.707754 -0.001173
-0.002932 -0.707660 -0.707146
0.000660 0.707470 -0.706654
-0.707429 0.000084 0.706435
0.705147 0.000884 -0.708499
-0.707233 0.708561 -0.001612
0.001171 -0.705669 0.706245
-0.704765 0.000041 -0.706958
0.706320 -0.000905 0.708354
0.001406 0.706484 -0.704872
-0.001082 -0.706229 0.707241
-0.000669 -0.706289 0.707851
-0.001986 0.706867 -0.708356
-0.000734 0.707594 0.708250
-0.000386 0.706350 0.708194
0.707675 -0.000279 -0.706667
0.708159 -0.001333 0.707772
0.706648 0.707097 0.001578
0.706535 -0.707399 -0.000073
-0.706402 0.000688 0.708436
-0.708939 0.707619 -0.000065
0.707764 -0.705860 -0.001408
-0.707530 0.000709 -0.705808
-0.706838 -0.708825 -0.001977
-0.706276 -0.001593 -0.707696
0.708428 0.001146 0.708191
0.000013 -0.705808 0.707927
-0.000864 0.706793 0.707471
-0.000256 0.706986 0.706250
-0.706589 0.707671 -0.000690
0.000647 0.708692 0.708036
0.001135 0.708046 -0.709103
-0.000827 0.705588 -0.707922
0.707313 0.706851 -0.000253
-0.000746 0.707346 0.705503
0.705322 0.707089 -0.000409
0.000772 -0.705769 0.707395
0.707530 -0.002031 -0.706824
0.708007 -0.000933 0.708140
-0.001122 -0.707942 -0.707302
0.707274 -0.706441 0.000664
-0.706691 0.706719 0.000671
0.706102 -0.707590 0.000832
0.706996 -0.000213 0.705594
0.000410 0.705812 0.706705
-0.000896 0.707776 -0.707383
-0.707814 0.705735 -0.001623
0.707966 -0.000192 -0.706824
-0.706959 -0.706610 0.000844
-0.706882 -0.707366 -0.001223
0.707601 -0.000824 0.706621
-0.706468 0.706856 -0.000691
0.002500 0.707016 0.706604
0.705943 -0.706108 0.000125
0.708492 -0.708240 0.001555
0.708375 0.706787 0.001046
-0.707496 0.000597 -0.708716
-0.706693 0.000196 -0.708174
-0.001348 -0.707565 0.705942
0.000154 0.707107 -0.707933
-0.000406 -0.705932 0.705885
-0.001056 0.709031 -0.706947
0.000376 0.708412 -0.708706
0.707696 -0.706390 0.000796
-0.706748 -0.706206 0.001531
-0.707026 -0.000092 -0.707174
-0.707944 -0.708102 0.000770
0.000132 0.707528 -0.707166
0.708048 -0.000084 0.708499
-0.706615 0.708388 -0.000534
0.000793 -0.707087 -0.707009
-0.000197 -0.706561 0.706140
0.707825 0.705049 0.003090
-0.001034 -0.706508 0.707402
-0.001761 0.706714 -0.707045
0.000769 -0.706398 -0.708762
0.707098 -0.000334 -0.707877
-0.706719 0.705747 -0.000716
0.707799 -0.708679 0.000339
0.708460 -0.707711 -0.000715
-0.001056 -0.706478 0.706502
-0.000971 -0.708570 0.706920
-0.707446 0.708293 0.000595
-0.705161 -0.707902 0.001678
-0.000269 0.706137 0.709478
0.707612 0.001004 -0.706322
-0.706191 -0.707037 0.000313
0.709621 0.707484 0.000526
-0.707794 -0.000362 0.708720
0.000012 -0.707103 -0.706345
0.001538 0.706813 0.704826
0.000118 -0.706693 -0.706493
-0.707087 0.000616 -0.708174
-0.707291 -0.001336 0.706163
0.000035 -0.706799 -0.706735
0.707053 -0.706934 -0.000574
-0.000372 -0.707945 -0.708223
-0.707177 0.705766 -0.001267
0.708269 0.000448 -0.706970
0.707197 0.000475 0.705818
0.707143 0.707534 -0.002189
-0.708385 -0.706757 -0.000436
-0.706319 -0.000940 -0.708095
-0.706687 0.000301 0.707486
0.708772 0.707129 0.000143
0.707033 -0.000083 -0.709120
0.707505 0.706894 -0.001319
0.000252 0.706490 0.708141
-0.001640 -0.707298 -0.707665
0.001828 0.706404 -0.707126
-0.001112 0.708773 0.707423
0.001008 -0.708095 -0.707263
0.707353 0.706009 0.000454
-0.705409 0.001137 -0.707000
0.001858 -0.706543 0.707445
-0.706190 -0.706300 -0.000617
0.000214 -0.706374 -0.707060
0.708321 -0.706936 0.001193
0.706577 0.000289 0.707052
-0.000178 0.708769 0.707872
-0.709875 -0.708049 -0.000412
-0.706119 0.706847 -0.000118
0.707797 -0.000929 -0.707862
-0.706784 0.708319 -0.000297
0.001071 0.709088 -0.706086
0.708645 -0.707630 -0.000807
-0.708299 0.000637 0.708008
-0.706171 0.000247 0.707008
0.709080 -0.708257 -0.002061
-0.001173 0.708183 0.709347
0.708957 0.705033 -0.000313
0.707337 -0.707837 -0.000824
-0.000236 0.706847 -0.707288
-0.707527 -0.706852 0.000957
0.001799 -0.705984 0.708053
0.706955 -0.000245 -0.707715
0.000726 -0.708388 0.708984
0.707057 0.707366 -0.000631
