OFF
256 0 0
-0.691294 0.670169 -0.219584
-0.666465 0.230381 -0.636203
-0.665493 0.231593 -0.635789
-0.214026 -0.662524 -0.209770
0.239109 0.217724 -0.688237
0.219388 0.667845 0.680968
0.664420 0.215801 -0.243846
0.210338 -0.217942 0.669394
0.208937 -0.218777 0.666540
0.642167 0.220886 0.673474
0.235252 0.664025 -0.204705
0.659035 -0.213475 0.197709
-0.219638 0.198228 0.683214
0.208833 -0.217325 0.666830
0.689694 0.683070 0.239257
0.237393 0.660318 -0.206137
-0.653280 0.224161 0.195553
0.217855 0.666800 0.679351
0.239355 -0.676846 0.198058
-0.691189 0.667663 -0.219131
0.655818 -0.229910 -0.676866
-0.653599 0.226898 0.197618
0.236618 0.663601 -0.205385
0.660535 -0.213463 0.196716
-0.216332 -0.660947 -0.210567
0.239781 0.219002 -0.686211
-0.235809 -0.254117 -0.668729
0.238545 -0.678243 0.198552
-0.214673 0.676808 -0.637117
0.238834 0.217379 -0.686411
-0.678526 -0.202418 0.666392
0.234421 0.660236 -0.204308
0.646173 0.222248 0.674619
-0.681937 -0.661272 0.231273
-0.221439 0.198937 0.684685
0.239103 -0.678535 0.196832
-0.245196 -0.648943 0.668347
-0.216363 -0.659716 -0.207527
0.211241 -0.219327 0.666489
-0.217200 -0.659929 -0.209032
-0.215592 0.675784 -0.638149
0.645633 0.220894 0.675918
-0.215801 0.674714 -0.637445
-0.677471 -0.201183 0.663974
0.209518 -0.218310 0.667861
0.239179 -0.677610 0.198567
0.680069 -0.674224 -0.239117
0.664351 0.214905 -0.243792
-0.651766 0.225660 0.197102
-0.220732 0.200046 0.681889
-0.667397 0.230706 -0.636579
0.212623 -0.216207 0.666846
-0.220186 0.200877 0.681485
-0.679304 -0.201892 0.665650
0.236988 0.662779 -0.206174
-0.202558 0.653887 0.194386
-0.690918 0.668404 -0.220895
0.238025 -0.676406 0.197852
0.249702 -0.668893 -0.653294
0.238349 0.661842 -0.206348
0.241315 0.218783 -0.686355
0.246591 -0.668709 -0.651401
-0.214058 0.676016 -0.638784
-0.213237 0.676108 -0.638015
-0.653321 0.225903 0.197534
-0.654031 0.226282 0.195883
-0.666589 0.230380 -0.634143
0.210677 -0.217199 0.667547
-0.690260 0.670176 -0.219146
-0.245890 -0.648529 0.668387
0.249870 -0.668038 -0.652103
0.239770 0.218323 -0.685956
-0.682277 -0.660704 0.231309
0.237697 -0.677493 0.196971
-0.679270 -0.201466 0.665026
0.661022 -0.215883 0.198332
0.238175 0.216937 -0.687970
-0.235234 -0.255234 -0.669700
-0.690457 0.667537 -0.221303
0.240121 0.220184 -0.685723
-0.213577 0.676576 -0.637750
-0.691193 0.669502 -0.220115
-0.237071 -0.252453 -0.667857
0.664066 0.211936 -0.242057
0.660700 -0.215301 0.196897
-0.679342 -0.215714 -0.215339
-0.213858 0.675952 -0.638945
-0.678175 -0.217637 -0.213355
0.688762 0.682926 0.238257
0.212339 -0.216454 0.666845
0.653664 -0.229864 -0.677294
-0.679045 -0.216257 -0.214559
-0.213917 0.676078 -0.638108
0.660470 -0.214654 0.198097
-0.205018 0.655495 0.195443
-0.688581 0.669067 -0.221326
0.655263 -0.228512 -0.676899
0.687561 0.682703 0.237946
-0.690186 0.669169 -0.221718
-0.220108 0.197742 0.680907
0.220081 0.667262 0.680747
0.209642 -0.218542 0.666154
-0.650230 0.224155 0.197576
0.236923 0.663110 -0.203547
0.645755 0.220061 0.673992
-0.666020 0.230342 -0.635843
-0.681908 -0.660009 0.231184
0.660937 -0.213960 0.198587
-0.220289 0.197544 0.682412
-0.690904 0.669309 -0.220631
-0.220990 0.198137 0.682448
0.680366 -0.673510 -0.242034
0.679086 -0.675549 -0.241580
-0.689075 0.669507 -0.220654
-0.246181 -0.649180 0.666157
-0.678558 -0.201759 0.666291
0.238109 -0.676838 0.197167
0.689008 0.684098 0.239419
0.688955 0.683036 0.239219
-0.667555 0.231945 -0.636980
-0.216645 -0.662730 -0.208710
0.687973 0.682867 0.238764
0.219555 0.667698 0.680511
0.210521 -0.216638 0.667042
0.689267 0.684165 0.238067
0.663828 0.214327 -0.242055
-0.214566 0.676455 -0.639256
0.646285 0.221372 0.673490
0.643387 0.221038 0.674957
-0.654851 0.226354 0.196110
-0.653654 0.225329 0.197251
-0.202786 0.655156 0.194582
0.644523 0.220625 0.677283
-0.221026 0.198706 0.681389
-0.652895 0.227159 0.197867
-0.690264 0.669037 -0.221528
-0.215949 0.678686 -0.637317
0.680082 -0.672992 -0.240364
0.661781 -0.216369 0.197411
-0.667491 0.230291 -0.636190
-0.220913 0.198757 0.683499
-0.237035 -0.251951 -0.669371
0.250289 -0.667360 -0.654535
-0.219572 0.200158 0.684068
0.664502 0.215658 -0.241958
-0.219426 0.198563 0.682398
0.679963 -0.674183 -0.239565
0.645182 0.220826 0.675106
0.645590 0.220257 0.676126
0.237965 0.661971 -0.205135
-0.203418 0.654076 0.192902
0.240285 -0.678456 0.197287
0.657742 -0.229263 -0.676707
-0.678542 -0.201317 0.664251
0.654931 -0.229504 -0.676454
0.688649 0.683621 0.239375
-0.681783 -0.662157 0.231295
-0.222198 0.199494 0.683837
0.653648 -0.230215 -0.677220
-0.678143 -0.213242 -0.215104
-0.679650 -0.216564 -0.214671
-0.235419 -0.254858 -0.668628
0.218905 0.668521 0.681163
0.249172 -0.669671 -0.652594
-0.665353 0.230181 -0.634038
-0.678283 -0.202943 0.664747
0.663360 0.213420 -0.242329
0.248773 -0.668229 -0.654212
0.239045 -0.677699 0.197798
0.654454 -0.227376 -0.675097
-0.221178 0.200382 0.680964
-0.653575 0.227643 0.196937
-0.237321 -0.254932 -0.668519
0.679467 -0.674511 -0.239513
-0.683546 -0.660529 0.229908
-0.216811 -0.661745 -0.207397
0.663982 0.214648 -0.244081
-0.689631 0.669915 -0.221017
0.666244 0.216419 -0.243299
-0.687928 0.668982 -0.219799
-0.245322 -0.647932 0.668381
-0.214419 -0.661277 -0.209137
0.238408 -0.678247 0.197181
-0.664617 0.232023 -0.634293
-0.683096 -0.660999 0.230309
-0.236057 -0.251733 -0.668774
-0.243241 -0.647969 0.668564
-0.667661 0.228276 -0.636935
-0.666542 0.230913 -0.637495
-0.689292 0.670344 -0.219757
0.690103 0.684412 0.240871
-0.682634 -0.661953 0.230959
-0.678722 -0.202601 0.664785
0.662505 -0.214563 0.198683
0.238331 0.662558 -0.207069
0.248185 -0.668296 -0.653432
0.239687 -0.676892 0.196814
0.240070 -0.677310 0.199106
-0.236549 -0.253661 -0.669231
-0.246459 -0.648541 0.668958
0.238590 0.217991 -0.685366
0.237358 0.662248 -0.203689
-0.215874 0.675318 -0.640003
0.239627 -0.679171 0.196388
-0.216040 -0.660497 -0.208057
0.645254 0.221564 0.675262
0.681044 -0.674070 -0.241830
-0.202497 0.654002 0.194136
0.680678 -0.673498 -0.240023
-0.244482 -0.650180 0.667509
0.661876 0.214228 -0.243225
0.645468 0.221462 0.674662
-0.220468 0.197652 0.680193
-0.653884 0.225903 0.195452
0.218398 0.667095 0.680974
-0.667146 0.232177 -0.635066
0.210539 -0.219610 0.666078
0.690747 0.686120 0.238699
-0.679020 -0.215142 -0.213348
0.645104 0.220724 0.674826
0.665681 0.213315 -0.241755
-0.666283 0.230564 -0.635865
-0.668369 0.230298 -0.634738
0.250227 -0.668144 -0.654056
-0.219621 0.201628 0.682316
0.238248 -0.679639 0.198433
0.689781 0.685512 0.240239
-0.215244 -0.660274 -0.209261
-0.246105 -0.647486 0.666004
0.238606 0.217407 -0.684969
-0.653354 0.224959 0.195515
0.220955 0.668233 0.680384
-0.214871 0.676903 -0.640256
-0.214503 -0.663570 -0.207353
-0.666936 0.229626 -0.636242
0.690109 0.685088 0.240113
-0.665675 0.230643 -0.633436
-0.666137 0.231006 -0.634832
-0.682404 -0.661608 0.230406
-0.235841 -0.252423 -0.667863
-0.245912 -0.648497 0.669245
0.250757 -0.667856 -0.655223
-0.219544 0.199395 0.681258
-0.216978 -0.661870 -0.209686
0.240027 0.218499 -0.687130
0.209861 -0.217615 0.666178
0.653535 -0.228847 -0.678975
-0.693036 0.669265 -0.222299
-0.679416 -0.201684 0.665357
-0.246272 -0.648624 0.667139
0.664390 0.213053 -0.244146
-0.678270 -0.202542 0.664128
0.250118 -0.666347 -0.653358
0.212190 -0.217393 0.667097
0.665254 0.214307 -0.243741
-0.215225 -0.661704 -0.207697
