OFF
256 0 0
-0.201999 0.682516 -0.669304
0.662997 -0.236195 -0.697472
0.685300 0.236390 -0.250295
-0.255787 0.677857 0.249336
-0.682571 -0.684865 0.229624
-0.214325 -0.225688 -0.661682
-0.682755 -0.686580 0.229332
0.223249 0.666773 0.671505
-0.201055 0.682619 -0.667479
0.673075 -0.680524 -0.236160
-0.240620 -0.655237 0.651780
-0.202035 0.680880 -0.668759
0.218996 0.251170 -0.699267
-0.216312 -0.226905 -0.658214
-0.659907 0.201927 0.239445
0.243913 -0.619704 0.196482
-0.662710 0.211337 -0.659864
0.229759 -0.207387 0.679174
0.660538 0.247232 0.653782
0.673976 -0.681200 -0.237787
0.230743 -0.208069 0.680225
0.225039 0.667777 0.671904
-0.684159 -0.685492 0.229218
0.724780 -0.217881 0.236234
0.724857 -0.219808 0.236324
-0.199846 0.681105 -0.668843
-0.241231 -0.657050 0.649993
0.672945 -0.680320 -0.237992
0.694036 0.684700 0.223479
-0.664260 0.212245 -0.660718
0.695252 0.684990 0.221644
-0.222174 0.211348 0.682352
0.226913 0.676571 -0.159231
-0.661363 0.211869 -0.660033
0.227974 0.677916 -0.160334
0.675076 -0.680812 -0.237141
-0.239313 -0.655632 0.652607
0.220020 0.252394 -0.700446
-0.658548 0.203124 0.241646
-0.223357 0.211112 0.680903
0.231507 -0.207996 0.680240
-0.217910 -0.225398 -0.660559
-0.682945 -0.686949 0.229765
0.674192 -0.682638 -0.237344
0.662497 0.248539 0.655689
0.225117 0.665322 0.672600
-0.660619 0.201522 0.239956
-0.674921 -0.236325 0.658452
0.228503 0.678411 -0.158781
-0.691809 -0.260259 -0.227070
0.675206 -0.682476 -0.239194
-0.663495 0.666665 -0.221699
-0.663842 0.665122 -0.221431
-0.220669 0.212324 0.682178
0.220612 0.249065 -0.698233
0.190470 -0.685107 -0.673128
-0.682403 -0.684773 0.229136
-0.663523 0.212763 -0.658461
0.218508 0.249930 -0.697376
0.225945 0.665725 0.672555
-0.255373 0.677556 0.247227
0.219552 0.251702 -0.698701
0.674021 -0.681780 -0.238387
-0.683567 -0.686888 0.230348
-0.256510 0.678606 0.250719
-0.265598 -0.704884 -0.221973
-0.254400 0.677445 0.249403
0.190267 -0.682849 -0.672236
0.218549 0.250158 -0.699190
-0.224178 0.211169 0.682358
0.190518 -0.684278 -0.670662
0.228420 0.677683 -0.159794
0.724803 -0.220335 0.236306
0.722791 -0.218950 0.236206
-0.661865 0.212017 -0.660560
-0.266031 -0.704627 -0.220899
0.228286 0.680499 -0.159811
0.671757 -0.682240 -0.236734
0.229849 -0.208071 0.678890
-0.202046 0.681481 -0.667807
-0.659968 0.204417 0.238471
0.229343 -0.209095 0.680617
0.692607 0.684535 0.222020
0.218406 0.249319 -0.698860
-0.200942 0.680077 -0.667526
-0.660431 0.203520 0.238217
0.725767 -0.218232 0.235726
0.227209 0.678358 -0.159554
0.661898 0.248576 0.653010
-0.266254 -0.703936 -0.220268
0.228677 0.678213 -0.160320
0.662097 0.247636 0.654701
-0.664427 0.213097 -0.659928
-0.256205 0.678753 0.251989
0.224731 0.668215 0.669490
-0.683701 -0.684750 0.229894
0.227625 0.676650 -0.160125
-0.664326 0.210090 -0.661038
-0.661438 0.203744 0.239451
0.245050 -0.619077 0.194500
0.673273 -0.681689 -0.236431
-0.690638 -0.260394 -0.228968
0.223654 0.664518 0.672603
0.694152 0.684015 0.223813
-0.672656 -0.235409 0.659416
0.661180 -0.235698 -0.698687
-0.255501 0.676571 0.248980
-0.682079 -0.685036 0.229567
-0.666436 0.665270 -0.221358
-0.690294 -0.258951 -0.228406
0.223782 0.665348 0.670581
-0.240997 -0.653857 0.652279
-0.240974 -0.655143 0.653024
0.191360 -0.684214 -0.670180
0.245727 -0.617537 0.196100
-0.216979 -0.227581 -0.660916
-0.672219 -0.235719 0.659076
-0.265981 -0.706087 -0.218328
-0.682893 -0.685291 0.230935
-0.663831 0.664749 -0.220411
0.230011 -0.209393 0.679065
0.227986 0.676901 -0.160203
-0.662509 0.202774 0.239452
0.661647 -0.236464 -0.698065
0.694645 0.684153 0.224865
0.674302 -0.681754 -0.235370
0.245363 -0.619996 0.195148
-0.666485 0.662942 -0.221529
-0.665524 0.665317 -0.221906
0.245488 -0.619255 0.195781
0.228836 0.680059 -0.159065
-0.664660 0.664717 -0.222191
-0.222667 0.211259 0.684250
-0.674616 -0.235376 0.659337
0.724629 -0.219351 0.236162
0.227287 0.677071 -0.160323
0.219225 0.251440 -0.698681
-0.217989 -0.226634 -0.660589
-0.255595 0.677663 0.251406
0.227490 0.677707 -0.159127
-0.683716 -0.685876 0.228548
-0.682657 -0.685953 0.230525
0.189730 -0.683952 -0.670794
0.219695 0.248686 -0.698238
0.220483 0.250550 -0.697384
-0.661374 0.204365 0.237991
-0.257230 0.678822 0.251864
0.218075 0.250942 -0.696777
0.723900 -0.219261 0.235097
0.674344 -0.683907 -0.238667
0.672499 -0.681009 -0.235725
0.219816 0.250005 -0.698776
0.673971 -0.682633 -0.238389
0.229476 0.678798 -0.160851
-0.254264 0.675905 0.250414
-0.674129 -0.237749 0.658970
0.672874 -0.680946 -0.238684
-0.218011 -0.226903 -0.659688
0.694059 0.685182 0.223739
0.192916 -0.682287 -0.672435
-0.213645 -0.226141 -0.662759
-0.240664 -0.655321 0.651882
0.674525 -0.681800 -0.237049
0.190312 -0.682555 -0.670341
0.694342 0.684736 0.221914
0.723561 -0.219773 0.234317
-0.683636 -0.685225 0.229828
0.695968 0.683912 0.222489
-0.255997 0.676962 0.251519
0.219142 0.250157 -0.700237
-0.215461 -0.226142 -0.660032
0.660832 0.249500 0.655178
0.218118 0.251389 -0.699022
-0.224137 0.210639 0.681525
-0.670572 -0.236659 0.659842
0.190453 -0.681578 -0.671722
0.673507 -0.681650 -0.238217
-0.667120 0.664287 -0.221026
0.244527 -0.618138 0.196866
0.694408 0.684383 0.222446
0.675175 -0.681148 -0.237903
-0.661962 0.211274 -0.659607
-0.660192 0.201022 0.237352
-0.238777 -0.656480 0.651868
0.243098 -0.619253 0.194993
-0.689226 -0.259489 -0.228535
0.694337 0.684289 0.223128
0.661227 -0.238960 -0.698530
-0.267311 -0.704723 -0.220042
-0.255032 0.678764 0.249821
-0.223810 0.210089 0.680716
-0.672644 -0.236511 0.659627
-0.267578 -0.702487 -0.220176
-0.266514 -0.705335 -0.220337
0.674890 -0.682191 -0.237817
-0.222084 0.209985 0.683860
0.683324 0.236214 -0.250477
0.227111 0.678724 -0.160060
-0.683842 -0.684314 0.230394
0.226792 0.665600 0.671613
-0.690173 -0.259809 -0.227802
0.725630 -0.218077 0.237269
0.674784 -0.682112 -0.238046
-0.265936 -0.705537 -0.220222
0.662106 -0.237023 -0.699665
-0.240029 -0.654459 0.650562
-0.662546 0.210692 -0.659759
-0.201752 0.679900 -0.666710
0.692145 0.685186 0.223967
0.190972 -0.684591 -0.670953
0.661952 -0.237786 -0.698184
-0.222225 0.211969 0.682908
0.244491 -0.620065 0.195153
-0.265467 -0.704648 -0.219589
-0.661552 0.202946 0.237879
0.230404 -0.206245 0.679215
0.661030 -0.234703 -0.698173
-0.217268 -0.224723 -0.660129
0.663334 -0.236825 -0.697571
0.229806 -0.209344 0.679901
0.673202 -0.683460 -0.237989
-0.220982 0.211363 0.682792
-0.222866 0.213816 0.682405
0.227946 0.679102 -0.158555
0.673001 -0.680019 -0.236495
-0.690208 -0.259008 -0.227190
-0.664609 0.212018 -0.660297
0.223829 0.665115 0.673010
0.220028 0.254628 -0.698924
-0.256769 0.679425 0.251100
0.694161 0.685419 0.221546
-0.221718 0.210588 0.682155
-0.691435 -0.257283 -0.230376
0.673358 -0.682379 -0.236296
-0.254717 0.679630 0.248087
0.220316 0.250020 -0.699543
0.230518 -0.207770 0.681828
0.663630 -0.235591 -0.699050
0.225200 0.667797 0.671992
0.224944 0.665601 0.670807
-0.683111 -0.685438 0.230131
-0.221256 0.212410 0.682741
0.662747 0.247331 0.655008
-0.267420 -0.705378 -0.221276
0.660857 -0.235138 -0.697680
-0.672594 -0.236079 0.659464
0.662064 -0.236155 -0.698548
0.663629 0.250011 0.655977
0.694394 0.686530 0.221881
-0.240170 -0.656449 0.651706
-0.665325 0.664858 -0.221037
0.224799 0.666999 0.673465
-0.240532 -0.656172 0.651088
0.220402 0.251364 -0.697358
-0.672076 -0.236197 0.657777
-0.255687 0.679023 0.250523
