OFF
256 0 0
-0.155300 0.724803 -0.274870
-0.604613 0.317414 0.607428
0.291306 -0.610440 0.616972
-0.652119 -0.172206 -0.737269
0.276637 0.239179 -0.273407
-0.153908 0.723902 -0.272654
0.289898 -0.613817 0.614199
-0.603203 0.318156 0.609106
-0.602532 0.316391 0.607591
-0.603448 0.317431 0.606983
0.293574 0.701421 0.168559
0.287252 0.294884 0.632765
-0.160922 -0.649691 -0.732938
0.295091 0.701615 0.168604
0.275414 0.238756 -0.272740
-0.173218 -0.611041 0.163531
-0.629299 0.274415 -0.279981
-0.610808 0.747814 0.164994
-0.114772 0.741401 0.621163
-0.169719 -0.610047 0.161540
0.277273 0.239698 -0.273089
-0.603382 0.317634 0.608157
-0.626294 -0.599850 -0.303738
-0.162486 -0.647775 -0.731929
0.295173 0.701864 0.168806
-0.168967 0.274329 -0.753932
-0.160282 -0.649670 -0.733890
0.294952 0.700614 0.168212
0.251367 -0.606073 -0.295329
-0.610618 0.747411 0.163031
-0.611052 0.746173 0.162456
0.277086 0.239269 -0.271275
-0.127012 -0.125026 0.597152
-0.169564 0.275955 -0.753766
0.251766 -0.607440 -0.292921
0.718509 -0.596467 0.169392
-0.172391 -0.610405 0.162625
-0.168506 -0.611191 0.161495
-0.160521 -0.647066 -0.732376
0.756009 -0.148861 0.609374
0.277211 0.238506 -0.271626
0.250449 -0.606096 -0.293646
-0.627202 -0.601724 -0.300327
-0.651230 -0.172546 -0.739632
0.288415 0.294886 0.635179
-0.165969 0.275404 -0.754928
0.744293 -0.147289 -0.291300
-0.161059 -0.647308 -0.733718
0.757362 -0.153157 0.609811
-0.630505 0.272345 -0.280795
-0.652471 -0.171761 -0.735841
0.290325 -0.613151 0.615410
-0.126129 -0.125281 0.596363
-0.621366 -0.139215 0.149091
0.757087 -0.150119 0.608135
0.718463 -0.594638 0.169174
0.276396 0.239672 -0.273624
-0.625686 -0.599088 -0.301942
-0.620934 -0.136897 0.148249
-0.612244 0.748709 0.163108
0.744501 -0.145008 -0.291567
0.757603 -0.151562 0.608251
0.746100 -0.145767 -0.292465
-0.651411 -0.170496 -0.737843
0.289918 0.297816 0.633258
-0.626841 -0.601396 -0.302502
0.289166 -0.611755 0.614788
-0.116354 0.741533 0.621132
0.751492 0.267944 0.174748
-0.611050 0.748582 0.161921
0.744188 -0.147355 -0.290619
0.293506 0.699290 0.170388
-0.125818 -0.126766 0.598468
-0.161811 -0.647729 -0.732977
0.751989 0.267887 0.173794
0.718156 -0.595414 0.167521
0.250471 -0.607577 -0.293460
-0.652902 -0.171257 -0.738932
-0.624994 -0.137686 0.149536
0.294537 0.699420 0.170513
-0.652306 -0.170158 -0.738237
0.751997 0.266136 0.174453
-0.623235 -0.137965 0.147423
-0.624075 -0.136535 0.147998
-0.628643 -0.602090 -0.302941
-0.652309 -0.170826 -0.738523
0.757279 -0.151816 0.609024
0.278878 0.238942 -0.274972
0.293172 0.699316 0.169640
-0.172139 -0.612102 0.160111
-0.651942 -0.171540 -0.738194
0.745318 -0.143763 -0.291681
0.252214 -0.605077 -0.293782
0.746245 -0.145944 -0.289693
0.293842 0.700573 0.170045
0.291667 -0.614756 0.616233
-0.155863 0.723937 -0.274737
-0.167471 0.276973 -0.755496
0.279665 0.238555 -0.271651
-0.626523 -0.601271 -0.301218
-0.652681 -0.169376 -0.738125
0.271512 -0.176797 -0.729287
-0.603533 0.315312 0.606035
-0.624854 -0.137206 0.149049
-0.627796 -0.602925 -0.301448
0.288516 0.295256 0.635111
0.277585 0.238137 -0.273431
-0.621504 -0.138057 0.147641
0.717846 -0.594072 0.169773
-0.126758 -0.124453 0.596450
0.252486 -0.605364 -0.294035
-0.160342 -0.647667 -0.732828
-0.172294 -0.609366 0.162348
0.718835 -0.593401 0.167593
0.288733 0.296673 0.633589
0.744854 -0.147480 -0.291073
-0.627195 -0.600971 -0.300801
0.745932 -0.145744 -0.289818
-0.609221 0.748011 0.164282
0.758363 -0.150524 0.607936
0.295352 0.700641 0.169173
-0.117553 0.740916 0.620075
0.278731 0.239126 -0.271764
-0.611433 0.748582 0.162838
0.744068 -0.146267 -0.288910
0.289108 -0.611871 0.616847
-0.126979 -0.126693 0.596052
-0.604476 0.316179 0.608756
-0.610517 0.750049 0.163973
-0.170952 -0.612142 0.162688
0.757894 -0.151077 0.611106
-0.630393 0.272954 -0.280326
-0.172027 -0.611960 0.161560
0.287957 -0.614142 0.614453
-0.115678 0.742231 0.622534
0.277746 0.239571 -0.273533
-0.155497 0.722695 -0.272995
0.757267 -0.150187 0.607844
0.293411 0.700648 0.168781
-0.610237 0.747244 0.165080
-0.630770 0.273707 -0.278169
0.288074 0.296975 0.634895
-0.171532 -0.611584 0.160387
0.749933 0.268222 0.173407
0.251441 -0.606759 -0.292954
0.745685 -0.146333 -0.290576
-0.117049 0.743309 0.618870
-0.171793 -0.612211 0.161506
-0.172805 -0.610735 0.161570
-0.621122 -0.138976 0.148365
-0.161810 -0.647599 -0.731608
0.276665 0.240593 -0.274379
0.290133 -0.611226 0.614905
0.289202 -0.613472 0.616302
-0.627188 -0.601310 -0.301170
0.290032 -0.612141 0.615569
-0.161127 -0.648489 -0.734812
0.751326 0.266908 0.175103
0.746096 -0.145507 -0.291147
0.252050 -0.605159 -0.293004
-0.172050 -0.610537 0.159643
-0.171053 -0.611874 0.162377
-0.116594 0.742269 0.622368
0.278419 0.238143 -0.272252
0.252832 -0.604415 -0.294599
-0.631160 0.273402 -0.279732
0.289304 0.294975 0.633899
0.289095 0.295195 0.632939
-0.155324 0.724391 -0.274729
0.251454 -0.605418 -0.292405
-0.626247 -0.601062 -0.300871
-0.621949 -0.137058 0.149074
0.751329 0.267721 0.174193
0.746086 -0.145805 -0.290647
0.756751 -0.151548 0.608264
0.718115 -0.594716 0.166124
0.288733 -0.613120 0.615819
0.756974 -0.149096 0.609420
0.750652 0.265737 0.174287
0.294119 0.700332 0.169502
0.271042 -0.177201 -0.729316
0.718509 -0.594118 0.168512
-0.627419 -0.601258 -0.300609
-0.627946 -0.601728 -0.301147
0.751105 0.267507 0.174814
-0.168782 0.277087 -0.755346
-0.125388 -0.125657 0.597223
-0.126280 -0.124104 0.597792
-0.157177 0.723913 -0.275111
-0.168035 0.277375 -0.753597
0.754098 0.268441 0.173493
-0.610484 0.747064 0.163293
0.278938 0.239041 -0.273028
0.253790 -0.607134 -0.291384
-0.161481 -0.646980 -0.733773
0.288158 0.295484 0.633511
-0.653005 -0.172885 -0.737949
-0.603955 0.315351 0.608278
-0.116409 0.740153 0.621375
-0.170367 -0.611597 0.161847
0.289556 -0.611411 0.614186
-0.604027 0.317390 0.606731
-0.171018 -0.608876 0.161470
0.293525 0.700044 0.168504
0.252445 -0.605572 -0.295147
-0.161458 -0.649731 -0.732930
-0.630739 0.270456 -0.280251
-0.652264 -0.170883 -0.737297
0.717536 -0.594858 0.168422
-0.157318 0.723783 -0.272469
0.289874 -0.611108 0.615703
-0.170549 -0.609583 0.160988
0.279526 0.238543 -0.272126
0.289519 -0.612455 0.616209
0.756049 -0.150901 0.608606
0.750515 0.266233 0.173816
-0.161558 -0.649745 -0.733734
0.276452 0.238391 -0.272454
-0.651877 -0.171243 -0.739337
0.251705 -0.606465 -0.294252
-0.169352 0.278093 -0.752828
0.757134 -0.149857 0.606770
-0.114678 0.742435 0.620434
-0.610594 0.747929 0.162588
0.251551 -0.606148 -0.293742
0.249516 -0.606032 -0.295658
0.758643 -0.150933 0.608537
-0.126766 -0.124767 0.596670
-0.160739 -0.649715 -0.733613
-0.622741 -0.136992 0.148707
-0.621695 -0.137592 0.147831
0.278855 0.239365 -0.271984
0.744319 -0.145482 -0.289844
-0.602394 0.315929 0.608048
0.718549 -0.594505 0.169182
-0.652094 -0.170396 -0.737747
-0.622332 -0.136046 0.147756
0.250909 -0.607593 -0.292692
0.750811 0.268845 0.174811
-0.622857 -0.138894 0.147722
0.758114 -0.151311 0.608685
-0.115442 0.743248 0.621942
0.277001 0.237314 -0.273989
0.757562 -0.152417 0.609877
0.719288 -0.595322 0.168079
-0.156478 0.725236 -0.271967
-0.610253 0.747777 0.163711
0.745621 -0.147664 -0.290096
0.717717 -0.593779 0.169491
0.288564 0.295704 0.633755
0.290312 -0.612942 0.615919
-0.621930 -0.139533 0.148480
0.252454 -0.607782 -0.294344
-0.629929 0.271399 -0.279631
0.290956 -0.610998 0.615523
-0.170862 -0.611109 0.159788
