OFF
256 0 0
-0.631263 -0.649633 -0.279775
0.740573 0.303225 0.164054
-0.629621 -0.650597 -0.281208
-0.144254 -0.632058 -0.726530
-0.177713 0.738352 0.618576
-0.616069 0.290808 0.568842
0.741707 -0.604038 0.158111
-0.601799 0.292823 -0.243618
0.759825 -0.163286 0.621255
-0.161911 -0.149402 0.596779
-0.601349 0.292472 -0.246493
0.262984 0.756816 0.142165
0.741717 0.303350 0.162491
0.759427 -0.164215 0.620404
-0.633200 -0.147622 -0.715166
0.298816 -0.153686 -0.728680
0.314382 0.303959 0.593544
0.313851 0.303509 0.595360
-0.172590 0.739375 -0.265637
0.759106 -0.164547 0.621665
0.280835 -0.627414 0.580499
-0.623726 0.766574 0.156922
-0.161411 -0.148890 0.596503
0.315829 0.302842 0.593037
-0.601071 0.291529 -0.246239
-0.616275 0.290728 0.568764
-0.173315 0.737050 -0.266697
0.304196 -0.620435 -0.291274
0.314067 0.303489 0.595721
0.302161 -0.617453 -0.291611
-0.633137 -0.146083 -0.716078
0.280740 -0.626662 0.580530
-0.161697 -0.147439 0.595735
-0.631768 -0.185255 0.145438
0.296839 -0.154097 -0.728945
-0.162593 -0.624191 0.163816
0.759629 -0.163068 0.621252
-0.632583 -0.650476 -0.282480
-0.632929 -0.147205 -0.716075
-0.163527 -0.147263 0.597335
-0.162584 -0.625505 0.162949
0.253540 0.259893 -0.246018
0.280906 -0.628849 0.580985
0.742002 0.304491 0.161957
0.304252 -0.618629 -0.292005
0.283651 -0.626777 0.579526
0.252201 0.257780 -0.245576
0.252443 0.259785 -0.244249
0.743009 -0.185964 -0.270590
-0.632136 -0.146633 -0.714251
-0.169812 0.738450 -0.266969
-0.630619 -0.185579 0.148008
-0.161699 -0.623462 0.164382
-0.615171 0.288454 0.568807
0.758716 -0.162933 0.621760
-0.630911 -0.649848 -0.282004
-0.143786 0.289933 -0.744642
0.281118 -0.627011 0.582240
0.263913 0.757839 0.143197
-0.172608 0.737824 -0.266851
0.263591 0.757514 0.143654
-0.602611 0.292349 -0.244759
0.252491 0.259753 -0.246170
-0.633031 -0.187953 0.146111
0.742826 0.304204 0.162961
0.299396 -0.152909 -0.728756
0.252537 0.258367 -0.246306
-0.631104 -0.650052 -0.280993
-0.633106 -0.186370 0.146108
0.741848 0.303531 0.163461
-0.600771 0.293465 -0.246213
0.314048 0.302065 0.592616
0.742296 -0.182714 -0.270127
-0.162791 -0.148520 0.598749
-0.631273 -0.650703 -0.280243
0.759693 -0.163849 0.620567
0.739905 0.304271 0.163328
-0.630557 -0.186883 0.146344
-0.160952 -0.147996 0.597024
-0.601329 0.293255 -0.245140
-0.145483 -0.631960 -0.726405
-0.616488 0.289434 0.570839
-0.145169 -0.632282 -0.725717
-0.620883 0.767717 0.155899
0.743880 0.303979 0.165320
-0.601736 0.293969 -0.246534
0.298679 -0.152384 -0.726829
-0.143898 -0.632334 -0.725277
0.298017 -0.152751 -0.727112
0.741545 0.303108 0.163085
0.759959 -0.162509 0.622081
0.313358 0.305584 0.593910
-0.161548 -0.622584 0.163091
-0.161262 -0.147574 0.596720
0.297639 -0.154399 -0.727437
0.304901 -0.617989 -0.290382
-0.142222 0.287763 -0.742793
0.741596 -0.603178 0.156805
0.740989 0.304646 0.163285
-0.631005 -0.146585 -0.716255
0.742732 -0.604377 0.157948
0.758835 -0.162595 0.621488
-0.143755 0.286926 -0.741297
0.742244 0.301921 0.163649
-0.161793 -0.622901 0.162226
0.742878 -0.185670 -0.269858
-0.632550 -0.186575 0.147457
0.252317 0.261081 -0.246200
0.758780 -0.162480 0.620366
0.740190 -0.604464 0.156081
-0.159719 -0.624277 0.164029
0.740490 -0.602871 0.156590
-0.629994 -0.649208 -0.282210
-0.630585 -0.650324 -0.282573
-0.171850 0.736939 -0.268495
0.741487 -0.603989 0.158867
-0.146421 -0.633699 -0.725215
0.743033 -0.185132 -0.270095
0.742397 -0.605412 0.156340
0.300642 -0.152466 -0.727003
-0.146395 -0.631986 -0.724207
-0.629901 -0.651243 -0.280295
-0.172737 0.738031 -0.267178
-0.616921 0.289240 0.569639
-0.160509 -0.624240 0.163804
0.758986 -0.160558 0.621276
0.314762 0.304471 0.594432
0.740863 0.302772 0.163216
-0.632183 -0.185768 0.147250
-0.169947 0.738578 -0.267001
-0.630695 -0.651326 -0.282109
-0.142826 0.286719 -0.743667
0.262301 0.759451 0.143799
-0.162848 -0.623442 0.164278
0.314725 0.303651 0.595328
0.252675 0.259548 -0.247711
-0.145485 -0.630765 -0.724538
-0.630722 -0.651776 -0.280185
-0.170685 0.739077 -0.268399
0.304700 -0.619881 -0.292048
0.262482 0.755903 0.142193
0.741220 0.304514 0.162841
-0.162182 -0.149731 0.596513
0.254828 0.260009 -0.245520
0.281451 -0.627662 0.581712
0.741174 0.302630 0.162910
-0.616024 0.289276 0.569977
0.280121 -0.628041 0.580300
0.279836 -0.626956 0.582404
0.304024 -0.617219 -0.291429
0.295839 -0.152400 -0.730746
-0.632864 -0.651321 -0.281727
0.297894 -0.152241 -0.729387
0.283339 -0.626792 0.581668
-0.634658 -0.188562 0.147422
-0.163113 -0.622361 0.162624
0.298519 -0.154173 -0.726300
-0.171041 0.737860 -0.266094
0.262099 0.757991 0.143984
-0.633459 -0.145217 -0.715679
-0.172854 0.737336 -0.267315
-0.615818 0.290741 0.569782
-0.634364 -0.187953 0.148183
0.264429 0.758143 0.142077
-0.178369 0.739876 0.618967
0.739193 -0.603751 0.157453
-0.162667 -0.147715 0.597475
0.742154 0.303779 0.163917
-0.622086 0.767754 0.157516
0.305707 -0.617845 -0.294294
-0.178425 0.736293 0.617541
-0.635011 -0.145856 -0.713371
-0.604262 0.292560 -0.245706
-0.601688 0.289764 -0.245488
-0.616436 0.289887 0.568692
-0.632499 -0.146316 -0.715181
0.314749 0.303349 0.594904
-0.174557 0.736321 -0.266539
0.280210 -0.628208 0.582627
0.739913 0.303461 0.163584
0.306444 -0.618819 -0.292496
0.280619 -0.627194 0.582520
-0.623021 0.767156 0.157421
-0.142666 0.288696 -0.744934
-0.631380 -0.186318 0.146963
0.254286 0.258405 -0.245299
0.742173 0.301229 0.164500
-0.621763 0.768261 0.158006
-0.171161 0.736821 -0.267053
-0.160767 -0.147110 0.597049
-0.629804 -0.650502 -0.281563
-0.143367 0.289595 -0.742219
0.759193 -0.162787 0.620339
-0.172807 0.737374 -0.267605
0.312530 0.303209 0.594575
0.281733 -0.625974 0.583023
-0.633201 -0.145019 -0.714787
-0.630749 -0.146083 -0.715572
-0.142874 0.284705 -0.744065
-0.163358 -0.624533 0.165062
0.759517 -0.162560 0.621584
0.304988 -0.620089 -0.293511
-0.178410 0.736932 0.617869
0.742143 0.304618 0.162500
-0.601273 0.293174 -0.245603
-0.145227 -0.630288 -0.727780
-0.171372 0.734457 -0.268174
-0.144856 -0.632862 -0.727064
0.759825 -0.164065 0.619626
0.741376 -0.603671 0.156233
0.316065 0.304999 0.595197
-0.621463 0.766816 0.157748
-0.161147 -0.148030 0.596195
0.743427 0.303871 0.163957
-0.633884 -0.144117 -0.716702
-0.172696 0.737411 -0.265781
0.252261 0.259109 -0.247601
0.313679 0.303965 0.592956
0.302166 -0.618579 -0.293192
-0.600271 0.292168 -0.244338
-0.147101 -0.633079 -0.724133
0.281592 -0.626914 0.579648
-0.600594 0.292536 -0.246796
0.251237 0.260903 -0.245705
0.265066 0.755431 0.143667
-0.161477 -0.623487 0.162515
-0.169758 0.736581 -0.267102
-0.172442 0.736899 -0.266030
0.252465 0.259042 -0.245107
-0.631828 -0.650039 -0.281576
-0.599773 0.292516 -0.245253
0.314707 0.305350 0.596264
-0.179402 0.738168 0.618213
-0.631238 -0.187357 0.147251
0.251387 0.260057 -0.247207
-0.172918 0.736684 -0.268235
0.253175 0.260635 -0.246206
-0.160735 -0.622875 0.165513
0.263260 0.758816 0.143423
-0.146535 -0.632137 -0.724051
0.741446 0.304690 0.164676
0.741957 -0.182314 -0.270195
0.314197 0.303917 0.594113
-0.162504 -0.622207 0.161760
-0.160870 -0.148343 0.597702
-0.145549 -0.631729 -0.726197
-0.143758 0.288078 -0.742887
-0.144904 -0.631437 -0.725203
-0.145254 -0.631620 -0.725018
0.303663 -0.619602 -0.290399
0.742371 -0.605466 0.157994
-0.178704 0.735954 0.619806
0.253216 0.258726 -0.245299
-0.634727 -0.147275 -0.715993
-0.143485 -0.632663 -0.726221
0.313652 0.304181 0.595994
