OFF
256 0 0
0.283928 -0.597900 0.623795
-0.151461 -0.610021 -0.738979
0.283565 0.742454 0.144104
0.767065 -0.168024 -0.248204
-0.152584 -0.591815 0.146160
-0.622323 -0.171786 -0.739960
-0.622690 -0.168496 -0.738218
0.292802 -0.580388 -0.263370
0.283630 0.741247 0.142860
0.294754 -0.582799 -0.264466
-0.150780 -0.592362 0.147304
-0.152385 -0.593895 0.145514
0.285132 -0.597428 0.620810
0.285771 -0.599873 0.618944
0.717029 -0.614829 0.201134
0.305528 -0.179571 -0.704792
0.282170 -0.598430 0.619758
-0.191595 0.726445 -0.297992
0.293115 -0.579233 -0.261095
0.767343 -0.168370 -0.245714
-0.619946 -0.149137 0.138643
-0.137966 0.250615 -0.741486
-0.191782 0.726208 -0.297742
0.282695 0.741170 0.144012
-0.140667 0.249691 -0.740191
0.284578 0.741677 0.145253
-0.152325 -0.590609 0.147046
-0.611683 0.282927 -0.296179
0.284939 -0.597815 0.620325
-0.150226 -0.611181 -0.740133
-0.191249 0.728014 -0.299600
-0.619018 -0.148872 0.140174
0.294806 -0.580971 -0.264505
-0.139353 0.250141 -0.742623
-0.611133 0.285053 -0.298515
-0.615737 -0.610651 -0.274996
0.715229 -0.617737 0.200572
-0.623973 0.726986 0.146862
0.283325 0.742414 0.144261
-0.622375 0.724383 0.141024
0.284288 -0.600121 0.621129
0.303287 -0.180734 -0.703341
0.739835 -0.163075 0.655330
-0.152473 -0.591327 0.148730
0.734753 0.280806 0.151583
-0.620601 -0.170492 -0.740326
-0.191604 0.726591 -0.297163
-0.151278 -0.590808 0.146458
-0.151005 -0.592210 0.147503
0.716921 -0.617286 0.202852
-0.139307 0.249108 -0.741614
-0.610156 0.283231 -0.295656
0.766671 -0.168427 -0.245363
-0.619674 -0.150162 0.140874
0.272424 0.259109 -0.269700
0.282208 0.741923 0.144071
-0.138156 0.251193 -0.742778
-0.173600 0.731019 0.589817
-0.172721 0.728239 0.589473
0.271151 0.259439 -0.268971
0.276126 0.331522 0.606565
0.305006 -0.178944 -0.706257
-0.620271 -0.149545 0.139730
0.304718 -0.179528 -0.704346
-0.619778 -0.146705 0.138888
-0.617590 -0.609730 -0.275533
0.733813 0.282267 0.149872
0.733947 0.280785 0.151494
0.739139 -0.161580 0.653904
-0.150164 -0.592246 0.146606
-0.192712 0.725264 -0.296992
-0.172513 -0.173680 0.599583
0.715466 -0.615974 0.202216
-0.621586 -0.149961 0.139355
0.303741 -0.179994 -0.706923
0.716448 -0.615442 0.202155
0.284852 -0.598788 0.622649
0.284326 0.743281 0.143205
0.292597 -0.580134 -0.263140
-0.141664 0.249999 -0.742532
-0.139524 0.249074 -0.743046
0.292792 -0.582163 -0.262002
-0.191198 0.726815 -0.298382
-0.622136 -0.171302 -0.738678
-0.139877 0.249685 -0.742095
-0.623288 -0.169622 -0.738230
-0.139259 0.250018 -0.741894
-0.617102 -0.609828 -0.275345
0.277807 0.331217 0.607914
0.272226 0.258953 -0.268987
-0.173134 0.729847 0.589885
-0.149878 -0.590925 0.144977
0.283743 -0.597647 0.620528
-0.617791 -0.149223 0.141007
0.294611 -0.579977 -0.264486
-0.617868 -0.612768 -0.276236
-0.170212 -0.174981 0.599508
-0.619860 -0.150247 0.142776
0.291751 -0.581854 -0.265759
-0.173193 0.730464 0.590396
0.277251 0.332432 0.606324
-0.625689 -0.171286 -0.739522
-0.149640 -0.610906 -0.739415
-0.611449 0.285247 -0.297116
-0.621230 -0.168455 -0.739096
0.275481 0.333588 0.608167
-0.151209 -0.591009 0.145313
-0.152745 -0.592201 0.145368
-0.150137 -0.609463 -0.741347
0.284594 -0.598129 0.621032
-0.150446 -0.611715 -0.738463
0.739840 -0.164166 0.655074
-0.173639 -0.172855 0.602000
-0.601106 0.281137 0.574769
-0.599355 0.281858 0.576730
0.277179 0.333968 0.605088
0.716583 -0.616987 0.201173
0.738197 -0.164263 0.655404
-0.620702 0.723525 0.143525
-0.616283 -0.610037 -0.275509
0.284437 -0.596977 0.621166
-0.192318 0.726564 -0.297617
0.764153 -0.166897 -0.245751
-0.138671 0.248245 -0.741418
0.736135 0.280421 0.149825
-0.151474 -0.610931 -0.741404
0.768239 -0.169164 -0.247033
-0.617229 -0.611229 -0.276365
0.292946 -0.581728 -0.264517
0.765202 -0.166843 -0.247086
0.715516 -0.615955 0.199718
-0.173009 -0.175656 0.599898
-0.172900 0.728093 0.589720
0.304941 -0.178412 -0.705759
0.766214 -0.168780 -0.246471
0.303910 -0.179345 -0.703752
0.284687 0.741557 0.142706
0.272966 0.260227 -0.269320
-0.191534 0.728280 -0.297681
0.715460 -0.616179 0.200892
-0.151089 -0.591564 0.146935
-0.616272 -0.611077 -0.272940
-0.623551 0.725836 0.143025
0.271621 0.260148 -0.268251
-0.615649 -0.609589 -0.274800
0.271776 0.257741 -0.268877
-0.617689 -0.608826 -0.275167
0.739462 -0.164463 0.651786
0.270367 0.259425 -0.267906
-0.621139 0.725228 0.145367
0.738938 -0.163971 0.655335
0.283796 0.741126 0.145375
-0.600500 0.280181 0.575177
0.270880 0.259908 -0.269974
0.275728 0.332325 0.607120
0.765498 -0.167165 -0.245994
0.737729 -0.163210 0.655152
0.716465 -0.617851 0.202339
-0.615074 -0.611520 -0.276244
-0.599730 0.281143 0.574679
0.293274 -0.581737 -0.263049
0.282753 0.740924 0.143931
0.715848 -0.617057 0.200030
-0.175406 0.729021 0.586884
0.286204 -0.597473 0.620800
-0.152271 -0.592395 0.147525
-0.615211 -0.611399 -0.275008
-0.173562 -0.174268 0.600236
0.716563 -0.618265 0.200477
-0.150824 -0.592501 0.148112
-0.618478 -0.150641 0.139910
-0.622251 0.727706 0.143149
-0.608762 0.285364 -0.298194
-0.611821 0.284474 -0.297581
0.715035 -0.617304 0.202376
0.304694 -0.178083 -0.705260
-0.138056 0.249661 -0.742120
-0.153113 -0.592315 0.146679
0.276504 0.334609 0.608645
-0.138381 0.249369 -0.741671
-0.616703 -0.610179 -0.276051
-0.622953 -0.167772 -0.739857
-0.171598 -0.173171 0.601489
0.715133 -0.617845 0.200890
0.305398 -0.180379 -0.703780
-0.175065 -0.173429 0.600793
0.278333 0.333959 0.608841
0.738108 -0.161945 0.653638
-0.191778 0.729045 -0.299645
-0.170898 -0.176363 0.599373
0.733024 0.281142 0.150136
0.734305 0.280748 0.149956
-0.172179 -0.174022 0.602154
0.304720 -0.177015 -0.703854
-0.624787 -0.168898 -0.740154
0.283037 -0.598340 0.621327
0.272285 0.258519 -0.268937
0.305631 -0.179796 -0.704189
-0.139605 0.249598 -0.739995
-0.138706 0.249556 -0.740379
0.715703 -0.616584 0.201576
0.304285 -0.178431 -0.705026
0.291855 -0.580538 -0.263451
-0.621551 -0.169458 -0.739609
-0.612554 0.287000 -0.296746
0.284876 -0.598581 0.622072
0.276977 0.331310 0.605436
-0.623385 -0.170408 -0.739314
-0.600040 0.281341 0.577810
-0.600657 0.281046 0.576269
0.293715 -0.580504 -0.264629
-0.151862 -0.592655 0.148228
0.273377 0.260319 -0.271014
-0.600764 0.279700 0.576954
-0.191159 0.728600 -0.298289
0.285365 -0.597902 0.619347
-0.621716 -0.170806 -0.740402
0.273365 0.259314 -0.269127
-0.601844 0.282161 0.576801
0.285047 0.741525 0.142654
0.283341 -0.598045 0.620650
0.295055 -0.580893 -0.263328
0.283057 0.741293 0.145423
-0.619777 -0.148187 0.139166
0.277567 0.332233 0.608019
0.284368 0.739914 0.143106
-0.174490 -0.176314 0.599931
-0.139659 0.249290 -0.739730
-0.620598 -0.149901 0.140376
0.276801 0.333944 0.605698
-0.151420 -0.591678 0.145515
-0.188972 0.727309 -0.296159
-0.191735 0.727922 -0.297214
0.276850 0.331958 0.606843
0.283004 -0.598128 0.620922
-0.619027 0.724905 0.143934
0.292801 -0.581816 -0.263008
0.734167 0.280576 0.150941
0.304109 -0.178215 -0.702930
-0.150018 -0.591491 0.147305
0.284398 -0.599422 0.620403
-0.138648 0.248873 -0.741777
0.732455 0.280808 0.149166
-0.138846 0.250114 -0.742534
0.277032 0.331809 0.607500
0.292807 -0.579822 -0.262007
-0.616874 -0.612421 -0.275496
-0.616901 -0.611446 -0.275485
-0.621557 0.728046 0.143340
-0.141725 0.249490 -0.741758
-0.151477 -0.592404 0.146569
0.291406 -0.580595 -0.264640
-0.611150 0.286714 -0.298020
0.277886 0.333588 0.607723
0.303298 -0.179430 -0.706898
0.765067 -0.167616 -0.245237
