OFF
256 0 0
0.647866 0.214401 -0.676170
-0.697597 -0.205333 0.253208
-0.239667 -0.665457 0.238731
0.665664 0.208605 0.201080
-0.217018 0.184351 -0.664111
0.647517 0.214666 -0.675905
-0.698279 -0.204530 0.253843
-0.682196 0.218045 -0.222559
0.248550 -0.678087 0.676355
-0.669304 -0.647315 -0.230015
-0.219964 0.673595 0.684851
-0.219569 -0.207986 0.667821
0.251416 -0.680037 0.678113
0.646915 0.215561 -0.676159
-0.221121 -0.208475 0.667636
-0.205305 -0.656874 -0.672586
-0.239125 -0.665807 0.240196
0.234051 0.662403 -0.676407
0.216524 0.259511 0.690473
0.234991 0.663566 0.222783
0.666387 0.209140 0.202574
-0.222017 0.672770 0.683819
0.691987 -0.243369 -0.233684
0.695385 -0.676519 0.216852
-0.687380 0.663253 0.226190
0.234925 0.662376 -0.675562
0.648779 0.213110 -0.676003
-0.240617 -0.667223 0.235969
-0.671997 0.253961 0.685930
0.233044 0.664949 -0.678756
-0.699157 -0.205477 0.255016
0.697419 -0.678808 0.217697
0.648054 0.214244 -0.674902
-0.221500 -0.207360 0.666188
0.235250 0.663185 -0.678149
0.624279 -0.215195 0.656320
-0.233741 0.655676 -0.223520
-0.669721 -0.648224 -0.231164
0.624355 -0.215765 0.656623
-0.681617 0.215590 -0.224621
-0.669641 -0.648532 -0.228542
-0.699301 -0.204932 0.252938
-0.668233 -0.647818 -0.230478
-0.232719 0.655537 -0.224626
-0.233748 0.656817 -0.224642
-0.669161 -0.648732 -0.230630
0.692301 -0.242996 -0.231778
0.234039 0.662060 -0.678239
0.233870 0.661524 -0.679021
0.664181 0.209337 0.200574
-0.220490 -0.208844 0.666276
-0.233348 0.654185 -0.224587
0.687727 0.680498 -0.235838
-0.204975 -0.657354 -0.674876
0.226535 -0.663173 -0.213170
0.249653 -0.678970 0.676883
0.215982 0.260734 0.690202
-0.220506 -0.208341 0.667029
-0.672175 0.252746 0.686688
0.249579 -0.678292 0.678365
-0.674490 0.253265 0.686588
0.685922 0.680419 -0.236300
-0.698586 -0.206244 0.252843
-0.206074 -0.656764 -0.673221
0.664829 0.209107 0.204467
0.647466 0.214340 -0.675604
0.690309 -0.242976 -0.230550
0.249585 -0.681359 0.677738
0.692471 -0.242171 -0.232080
0.689095 0.676827 -0.237571
0.648449 0.213322 -0.675786
-0.667764 -0.648315 -0.230084
0.690480 -0.241810 -0.231837
0.233216 0.661630 -0.677526
-0.670086 -0.647510 -0.228503
0.696610 -0.679176 0.217869
-0.671872 0.253102 0.685877
0.235525 0.661349 -0.679660
-0.682110 0.218765 -0.222794
0.233574 0.661332 -0.677934
-0.672101 -0.648372 -0.229055
-0.671792 -0.647263 -0.230317
0.249642 -0.681087 0.677644
-0.671725 0.254123 0.686659
0.665778 0.209325 0.201804
-0.219736 0.673118 0.686183
-0.215500 0.183136 -0.662712
0.216351 0.261977 0.688534
-0.240571 -0.663703 0.237516
-0.670769 -0.648405 -0.228142
-0.698749 -0.204278 0.251619
-0.216908 0.183558 -0.663112
0.621352 -0.215973 0.656449
-0.233350 0.656701 -0.222978
-0.672393 0.254879 0.686002
0.694146 -0.676880 0.215689
0.224421 -0.665505 -0.214115
0.694935 -0.678845 0.217597
-0.219578 -0.208175 0.667306
-0.234977 0.654914 -0.223938
-0.687554 0.664842 0.225780
-0.682719 0.216998 -0.222744
0.234401 0.661587 -0.677973
0.249411 -0.680161 0.676910
-0.221728 -0.205926 0.666180
-0.239308 -0.665482 0.238334
0.248730 -0.680409 0.679518
0.227238 -0.663120 -0.212883
0.665214 0.209856 0.202160
-0.670905 -0.647730 -0.229429
-0.220258 -0.208397 0.666310
-0.240995 -0.664923 0.238753
0.691539 -0.243187 -0.231635
0.696220 -0.679744 0.216444
0.216075 0.259500 0.688786
0.260609 -0.228144 -0.685065
-0.233273 0.653305 -0.223662
0.698409 -0.678688 0.215873
0.215623 0.261718 0.691468
0.697354 -0.678055 0.216259
0.248974 -0.679315 0.677700
-0.220833 -0.208232 0.668178
-0.221017 0.672443 0.684765
0.224572 -0.663528 -0.212512
-0.688241 0.663082 0.223773
0.696788 -0.678390 0.218207
-0.684898 0.664452 0.225834
-0.221724 0.672688 0.684648
0.664359 0.209083 0.201861
-0.231995 0.653771 -0.225122
-0.233899 0.655516 -0.223388
0.215330 0.261392 0.690276
-0.204604 -0.657547 -0.673814
0.234275 0.664643 0.225900
0.648908 0.214021 -0.676210
0.695708 -0.677312 0.217248
0.233202 0.662717 -0.678816
0.233088 0.662633 -0.678356
-0.220034 0.672229 0.682687
-0.684617 -0.242170 -0.688989
0.258277 -0.226455 -0.683671
0.231044 0.663898 0.223843
-0.242105 -0.666042 0.240490
-0.698326 -0.204653 0.251984
0.232229 0.662296 0.225836
-0.206607 -0.657150 -0.675098
-0.234510 0.654206 -0.223932
0.259784 -0.228785 -0.683660
-0.687678 0.662961 0.224902
0.226462 -0.665321 -0.214839
0.623596 -0.216067 0.658370
0.695167 -0.679108 0.215478
0.258247 -0.228727 -0.685312
0.688987 0.678988 -0.235934
0.232968 0.664338 -0.680226
-0.218614 0.671786 0.684338
-0.216722 0.183654 -0.661501
0.232492 0.664369 0.223372
0.623134 -0.214902 0.655554
0.248117 -0.682022 0.677430
-0.204628 -0.656923 -0.673396
-0.682617 0.218987 -0.224366
0.685144 0.679415 -0.235482
-0.682055 0.218285 -0.223632
0.624918 -0.216217 0.655715
0.695512 -0.678860 0.217449
-0.681705 0.216149 -0.222818
-0.216399 0.182772 -0.663217
-0.685808 0.663417 0.224125
-0.242572 -0.664367 0.239575
-0.683849 -0.243320 -0.687106
0.647880 0.215066 -0.676027
-0.205680 -0.657111 -0.673454
0.248955 -0.679945 0.678599
-0.674113 0.253844 0.685623
-0.683792 -0.244057 -0.689146
-0.698021 -0.205520 0.251164
-0.698066 -0.205024 0.250866
0.232945 0.661223 -0.677942
0.686619 0.678720 -0.235185
0.231885 0.664553 0.223860
0.625308 -0.214103 0.654876
-0.697611 -0.207093 0.251233
-0.218190 0.184941 -0.663472
0.232236 0.665379 0.223156
-0.686531 0.665734 0.224555
-0.680863 0.216399 -0.223178
0.696662 -0.678416 0.217845
0.226169 -0.662317 -0.214104
-0.672364 0.252982 0.687410
-0.681016 0.218209 -0.223003
0.665726 0.207297 0.203092
-0.233292 0.653836 -0.225435
-0.238983 -0.665952 0.239758
0.226090 -0.662038 -0.211837
-0.219795 0.672897 0.683289
-0.683394 0.218296 -0.223452
-0.684434 -0.244360 -0.688605
-0.221216 0.673577 0.685146
0.215448 0.259048 0.690125
-0.239468 -0.666209 0.240049
0.688849 0.678225 -0.235923
0.233087 0.663378 -0.679351
-0.684047 -0.243617 -0.687717
-0.682120 0.217279 -0.222225
0.215666 0.262519 0.689588
-0.680870 0.219081 -0.224292
0.688078 0.679997 -0.237279
-0.683602 0.218761 -0.222855
0.647467 0.213771 -0.674583
-0.218599 0.182112 -0.664393
0.258927 -0.227725 -0.684897
0.624323 -0.214651 0.655499
-0.686927 0.665693 0.227103
0.624753 -0.215737 0.655553
0.697798 -0.677466 0.217671
-0.683368 -0.244904 -0.687193
-0.215655 0.181340 -0.662797
-0.240575 -0.666139 0.237922
0.250373 -0.679755 0.677939
-0.685675 0.665509 0.223858
0.257726 -0.227567 -0.685298
0.645437 0.214231 -0.677631
-0.686581 0.663741 0.224947
-0.216670 0.183619 -0.664524
-0.683512 -0.242961 -0.689401
-0.683426 -0.243910 -0.688646
-0.670454 -0.647117 -0.230222
0.624324 -0.215617 0.656528
-0.221183 0.672444 0.686973
-0.674156 0.253373 0.685271
-0.220051 0.672544 0.685650
0.696572 -0.678183 0.215817
0.692895 -0.241083 -0.233809
-0.222344 -0.208203 0.668471
-0.681734 -0.244611 -0.687600
-0.699772 -0.203641 0.252760
-0.682090 0.216498 -0.222525
0.666982 0.208949 0.203791
-0.679361 0.217638 -0.222049
-0.674227 0.255148 0.686844
0.260268 -0.228888 -0.685239
0.688045 0.678785 -0.236650
0.694224 -0.677587 0.218402
0.232444 0.664148 0.226066
0.232745 0.660172 -0.677946
-0.205863 -0.656857 -0.673134
-0.220777 0.671189 0.683867
-0.696714 -0.205650 0.252569
-0.240703 -0.664257 0.239376
0.247742 -0.680218 0.676883
0.623560 -0.216268 0.657139
0.247647 -0.679147 0.679042
0.665359 0.210166 0.202088
-0.221060 0.670934 0.688871
-0.220167 0.669986 0.686100
