OFF
256 0 0
0.661259 0.218407 -0.700844
-0.197541 -0.692281 -0.646888
-0.693212 0.208374 -0.219831
-0.667933 0.652019 0.228331
-0.667801 0.651372 0.227558
0.272789 0.659663 0.219404
0.227568 0.235441 0.675837
-0.199962 -0.693598 -0.646749
-0.181461 0.207670 -0.671039
0.209215 -0.251427 -0.685316
-0.237983 -0.201152 0.654281
-0.686467 -0.230983 -0.680676
-0.695598 -0.655831 -0.237586
-0.227295 0.662424 0.679571
-0.237082 -0.201252 0.652683
-0.226065 0.662298 0.677986
-0.687439 -0.231691 -0.683137
-0.199947 0.660152 -0.192418
-0.667456 0.653361 0.228655
0.675996 0.694462 -0.242445
0.226391 0.695496 -0.676776
-0.233457 -0.667198 0.197536
-0.199583 -0.694007 -0.646670
-0.671498 0.220654 0.662623
-0.698545 -0.237339 0.222282
-0.232644 -0.666283 0.199000
-0.179974 0.209322 -0.671902
-0.696309 -0.653588 -0.238114
-0.233986 -0.666653 0.199687
0.222976 0.695788 -0.675797
-0.196923 0.659325 -0.193543
-0.693521 0.205804 -0.219983
0.229688 0.236214 0.675265
-0.688574 -0.230016 -0.680557
0.219375 -0.663668 -0.224615
-0.196398 0.658778 -0.193734
-0.667219 0.653616 0.226232
0.681401 -0.208804 0.667106
-0.233762 -0.667152 0.199297
-0.694050 0.209001 -0.219431
-0.692783 0.208736 -0.217747
-0.691257 0.207619 -0.221386
-0.696105 -0.654426 -0.236662
0.660798 0.220125 -0.702007
-0.690483 0.207405 -0.219590
-0.225313 0.661737 0.680079
-0.234250 -0.664362 0.197091
0.209272 -0.250818 -0.685334
-0.178950 0.209222 -0.672028
-0.688493 -0.231036 -0.680414
0.681127 -0.208255 0.666774
0.658569 -0.206582 -0.242753
0.208216 -0.250344 -0.687094
-0.197951 0.658814 -0.194079
-0.696981 -0.656019 -0.237656
-0.695901 -0.652667 -0.239660
0.223974 0.694607 -0.676348
0.660861 0.219664 -0.699301
0.695828 0.236256 0.260719
0.223927 0.693972 -0.676574
-0.233329 -0.666529 0.199231
0.683571 -0.210105 0.666469
-0.671202 0.219599 0.663186
0.201534 -0.671169 0.715379
0.655682 -0.662304 0.241713
-0.181876 0.207929 -0.672136
0.660084 0.218917 -0.701391
0.218888 -0.665906 -0.222490
-0.238046 -0.200710 0.652384
-0.699421 -0.236816 0.223798
0.675214 0.692451 -0.241145
-0.696457 -0.238157 0.221865
0.696971 0.234965 0.258585
-0.667397 0.652587 0.227372
-0.198612 0.658273 -0.192961
-0.692562 0.209172 -0.222726
-0.197546 -0.693428 -0.645386
-0.693617 0.206234 -0.219279
-0.696747 -0.654223 -0.237686
-0.687011 -0.230181 -0.681999
-0.237651 -0.199675 0.652875
0.659051 -0.209078 -0.241419
-0.237430 -0.198674 0.653132
0.660787 0.218616 -0.700049
0.683222 -0.209281 0.667444
-0.182262 0.208655 -0.671971
0.219731 -0.663786 -0.222012
0.662874 0.220688 -0.700061
0.225004 0.695964 -0.676316
0.209374 -0.252693 -0.684571
-0.199568 -0.690755 -0.647831
-0.180592 0.208222 -0.673075
-0.199832 -0.692199 -0.647146
0.658763 -0.204940 -0.241466
0.228073 0.235223 0.675546
-0.199612 -0.690499 -0.646934
-0.236819 -0.202237 0.653669
-0.200042 0.657686 -0.189958
0.662134 0.218314 -0.700425
-0.181751 0.210438 -0.670767
0.675086 0.693358 -0.240206
0.660489 -0.206974 -0.241005
-0.238932 -0.202337 0.654091
0.219962 -0.664763 -0.220909
0.681194 -0.209958 0.666281
0.677401 0.693179 -0.241020
0.658887 -0.208325 -0.242190
-0.198420 -0.692121 -0.646576
0.660904 -0.206513 -0.242434
0.201525 -0.671982 0.712690
0.660222 -0.207614 -0.242609
0.221440 -0.664249 -0.222679
0.229771 0.236766 0.676052
-0.237705 -0.201095 0.653312
0.199012 -0.671531 0.712564
-0.687295 -0.229362 -0.681863
0.696339 0.236002 0.259037
-0.687690 -0.228991 -0.680351
0.219759 -0.662871 -0.223307
0.681843 -0.209877 0.666483
-0.195645 0.657601 -0.191831
0.697165 0.236401 0.259283
-0.198051 0.660633 -0.194102
-0.670478 0.221572 0.664220
-0.667957 0.651522 0.228398
-0.668177 0.651272 0.227602
0.657249 -0.662456 0.244393
0.657672 -0.662095 0.243636
0.199269 -0.670675 0.712613
-0.671329 0.220587 0.662601
0.682182 -0.207972 0.666936
0.228339 0.237802 0.675277
-0.198989 0.658188 -0.192295
0.657989 -0.206250 -0.240862
0.654052 -0.661660 0.242874
0.658310 -0.205625 -0.241296
-0.179487 0.206622 -0.671762
0.219619 -0.662834 -0.222699
0.655610 -0.662691 0.244385
0.682061 -0.209446 0.667567
0.273670 0.660025 0.217491
0.224659 0.697234 -0.677074
0.207968 -0.251826 -0.686090
0.698282 0.237924 0.259237
-0.686851 -0.228480 -0.680128
0.659614 -0.205720 -0.242037
0.661306 0.219332 -0.700497
0.696416 0.234379 0.258471
0.223998 0.695228 -0.676638
0.674990 0.691876 -0.240537
0.680759 -0.209327 0.668212
0.208005 -0.250897 -0.686844
-0.179671 0.207273 -0.672950
0.696966 0.235749 0.260405
0.661042 0.218822 -0.701029
0.657859 -0.206739 -0.242007
-0.179704 0.208246 -0.672292
0.697740 0.236232 0.259263
0.207457 -0.251112 -0.686754
-0.237982 -0.201745 0.654726
0.229993 0.236713 0.675595
0.227930 0.235751 0.675585
-0.697275 -0.237330 0.222214
0.270796 0.658623 0.218553
-0.696680 -0.655941 -0.237593
0.206754 -0.252045 -0.684739
0.201566 -0.672890 0.714626
0.227867 0.236453 0.674793
-0.227866 0.660579 0.679475
0.682573 -0.209011 0.666998
0.228398 0.235745 0.677372
0.271874 0.659290 0.217191
0.220341 -0.663671 -0.224174
-0.226277 0.662567 0.680300
-0.227578 0.660297 0.678723
0.699623 0.237695 0.255714
0.200211 -0.673718 0.712965
0.677927 0.693288 -0.240884
0.660816 0.217758 -0.702563
0.210370 -0.251440 -0.685194
-0.667360 0.651571 0.226064
0.272631 0.659156 0.219257
-0.234541 -0.667164 0.200295
0.225793 0.695927 -0.677508
0.208336 -0.250636 -0.686652
-0.180520 0.208338 -0.672666
-0.181266 0.210117 -0.672285
0.224343 0.697625 -0.676617
-0.200288 -0.690634 -0.646942
-0.667447 0.652100 0.226207
-0.692101 0.206367 -0.218605
-0.692438 0.208817 -0.220552
-0.699001 -0.238279 0.221191
-0.688504 -0.231890 -0.680581
-0.696517 -0.655960 -0.238704
-0.669386 0.220248 0.662025
-0.236705 -0.201749 0.654701
-0.180195 0.209079 -0.672071
-0.671247 0.220374 0.661251
0.660124 0.218564 -0.701437
-0.234896 -0.665859 0.198327
0.200706 -0.671465 0.712170
0.698601 0.235989 0.259298
0.660621 -0.206655 -0.241737
-0.200602 -0.692337 -0.648119
0.659296 -0.208573 -0.240315
-0.668718 0.652318 0.225644
0.226907 0.236394 0.675726
0.224668 0.695059 -0.676751
-0.181195 0.207473 -0.671312
-0.233654 -0.666691 0.200195
-0.198235 -0.691953 -0.648671
0.698120 0.233478 0.257998
0.698004 0.235480 0.259248
0.229540 0.235748 0.677163
0.227310 0.236947 0.675521
0.228853 0.237061 0.676746
0.655783 -0.661584 0.241048
0.223555 0.695795 -0.675325
-0.692508 0.207519 -0.221309
0.660252 0.219065 -0.699835
0.221429 -0.663505 -0.222524
-0.668830 0.651021 0.229200
0.272647 0.659783 0.218612
-0.182167 0.209755 -0.670969
-0.179221 0.209223 -0.670526
0.676079 0.693146 -0.239894
-0.687818 -0.231011 -0.680441
-0.692272 0.208910 -0.220475
0.654383 -0.660414 0.241941
-0.696913 -0.655507 -0.238052
-0.670934 0.220643 0.662770
0.698096 0.233416 0.258566
-0.225805 0.662235 0.677940
0.207797 -0.251282 -0.685722
0.697656 0.236201 0.259949
0.223949 0.694915 -0.676814
-0.667952 0.651771 0.225641
-0.234638 -0.665285 0.199249
-0.686174 -0.230467 -0.679053
-0.671357 0.218557 0.660162
-0.688209 -0.230863 -0.680840
-0.698949 -0.237105 0.221974
0.677248 0.691797 -0.241857
0.208755 -0.249747 -0.685434
0.698923 0.238312 0.259034
0.220570 -0.664459 -0.221625
0.696157 0.234977 0.260525
-0.234308 -0.666292 0.200375
-0.696792 -0.655710 -0.238467
0.684918 -0.208527 0.666051
-0.225451 0.662541 0.680155
0.681319 -0.208453 0.668501
0.272142 0.660026 0.218788
0.697917 0.235778 0.257911
-0.181355 0.207764 -0.672104
