OFF
256 0 0
0.677454 0.254372 0.239094
-0.693793 -0.202755 0.226467
0.231124 0.675719 -0.657884
0.205467 -0.684743 -0.205660
-0.695505 -0.203821 0.229129
-0.237667 -0.677240 0.212082
0.668200 -0.258076 0.661178
-0.203390 0.227605 -0.707997
0.230483 0.675487 -0.654260
-0.670075 -0.660515 -0.245624
0.210215 -0.651353 0.653798
0.669289 -0.257448 0.662182
0.667311 -0.255847 0.661264
-0.660561 0.636117 0.223412
-0.657186 0.207603 -0.236780
-0.657467 0.636290 0.223410
-0.656099 0.208287 -0.237844
0.224492 0.690852 0.244843
0.667414 -0.257439 0.662316
-0.657110 0.636793 0.221840
-0.659737 0.637313 0.221949
0.224178 0.690338 0.245584
0.663651 -0.711904 0.235264
0.222494 0.232151 0.672335
0.209012 -0.650127 0.651155
0.220851 0.233384 0.670880
0.667240 -0.256270 0.664410
0.665331 -0.231964 -0.187017
-0.221835 0.695274 0.664691
-0.182813 0.651652 -0.188027
-0.665643 0.221381 0.680427
0.679259 0.253048 0.239499
0.667197 0.641890 -0.227550
-0.223146 0.693092 0.665340
0.210283 -0.651962 0.651513
-0.655994 0.207580 -0.237458
-0.203097 0.226134 -0.707955
-0.219634 -0.203510 0.628132
0.665773 0.643550 -0.228338
-0.657199 0.207789 -0.237188
-0.694416 -0.205445 0.226281
0.196120 -0.215292 -0.644023
-0.236562 -0.676498 0.214335
0.668366 0.644418 -0.224773
0.664223 -0.231861 -0.186133
0.210570 -0.651006 0.651969
0.667956 -0.256698 0.661491
0.230015 0.674811 -0.656815
0.666355 0.643513 -0.225932
0.225180 0.691502 0.244260
0.219438 0.233469 0.670268
-0.667364 -0.660025 -0.243595
-0.659892 0.639610 0.222020
-0.201992 0.224998 -0.707804
-0.656708 0.207844 -0.237367
-0.226133 -0.665834 -0.684201
-0.666309 0.220990 0.679364
-0.668445 -0.660865 -0.245068
-0.666001 0.222701 0.679500
0.661857 0.231867 -0.668268
-0.652679 -0.208269 -0.694341
-0.201988 0.226451 -0.708872
-0.694517 -0.201901 0.226898
0.203360 -0.683067 -0.206163
0.197960 -0.217342 -0.643812
0.221157 0.231920 0.671337
0.678380 0.252850 0.239436
-0.656827 0.205927 -0.236466
-0.204196 0.226470 -0.708383
-0.222903 0.696052 0.666854
-0.658745 0.637083 0.224130
-0.667718 -0.659228 -0.244184
-0.181849 0.651094 -0.186943
0.679274 0.253285 0.238861
0.212957 -0.650924 0.653465
0.224908 0.691322 0.244080
-0.668364 0.221204 0.679898
0.232258 0.673990 -0.654751
-0.658685 0.634103 0.221012
0.678677 0.252506 0.238642
0.204624 -0.685896 -0.206450
-0.658864 0.637240 0.222897
0.225934 0.690851 0.245040
-0.653123 -0.208267 -0.695523
-0.222020 -0.202862 0.628244
0.667391 -0.256410 0.663093
0.669313 -0.256656 0.662820
0.666994 0.641967 -0.225985
0.662232 0.231431 -0.668042
-0.220192 0.695132 0.665039
0.666318 0.643122 -0.226954
-0.182419 0.651314 -0.187050
0.664604 -0.230509 -0.185458
0.219688 0.233256 0.671522
-0.655872 0.209354 -0.236667
-0.182854 0.651854 -0.188166
0.218747 0.232093 0.670619
0.680465 0.254241 0.239567
-0.201798 0.225668 -0.708438
-0.695078 -0.204367 0.227698
0.210153 -0.651064 0.650788
0.662229 0.233586 -0.667862
0.664625 -0.711080 0.232812
0.210452 -0.652363 0.651517
-0.665440 0.222390 0.679879
0.679128 0.253772 0.239469
-0.222603 0.697223 0.666761
-0.221997 -0.202922 0.630631
0.663066 -0.228559 -0.185056
0.198274 -0.215476 -0.643223
0.665541 -0.707869 0.232987
0.209870 -0.650675 0.651657
-0.655755 0.208084 -0.236170
-0.694315 -0.203047 0.228192
-0.183462 0.652208 -0.187344
-0.183282 0.652070 -0.187524
-0.226242 -0.665934 -0.684256
-0.654879 -0.206061 -0.694410
0.223371 0.690973 0.247766
-0.655373 0.207385 -0.235183
-0.693518 -0.204000 0.228688
0.211270 -0.651071 0.651980
-0.201678 0.227971 -0.709985
0.679350 0.252542 0.238922
-0.669221 -0.660670 -0.243746
-0.238505 -0.675285 0.213932
0.224234 0.691211 0.246979
-0.669666 -0.659297 -0.244598
0.210644 -0.651945 0.650665
-0.656313 0.208028 -0.237225
0.662932 0.231845 -0.666496
0.231881 0.674750 -0.654441
-0.222716 0.693697 0.666745
0.663483 -0.709688 0.234456
0.664654 -0.229349 -0.186589
0.203605 -0.682243 -0.207420
0.210081 -0.651791 0.653212
-0.654386 -0.209442 -0.695880
0.667547 -0.257842 0.662312
0.666629 -0.255429 0.662093
-0.221582 0.695582 0.666571
-0.691693 -0.202482 0.227211
-0.659625 0.636622 0.221636
-0.660380 0.636441 0.220377
-0.667089 0.223761 0.678816
0.665759 0.643745 -0.227151
-0.668645 -0.660199 -0.245416
0.663497 -0.708197 0.235330
0.231598 0.675525 -0.656182
-0.221809 -0.203951 0.628656
0.666658 0.639978 -0.225397
-0.656740 0.206147 -0.238199
-0.226366 -0.667437 -0.685252
0.679464 0.253691 0.241421
0.663897 -0.230459 -0.185773
-0.201012 0.226532 -0.707958
0.665681 -0.709651 0.234265
-0.693680 -0.204561 0.227338
0.231480 0.674824 -0.656643
0.196956 -0.214278 -0.642367
-0.659989 0.635897 0.220722
-0.202583 0.226663 -0.708215
-0.659776 0.635171 0.221008
-0.692071 -0.203765 0.227147
0.666343 0.642919 -0.226722
-0.225103 -0.667810 -0.685602
-0.227006 -0.667562 -0.684642
-0.183698 0.653431 -0.188833
-0.654981 -0.207709 -0.696246
-0.668478 -0.661087 -0.243478
0.219811 0.231495 0.668564
-0.238404 -0.677524 0.214340
0.223619 0.690372 0.246530
-0.222044 -0.203767 0.629732
-0.180162 0.652478 -0.187153
-0.658503 0.637224 0.223660
0.230474 0.674177 -0.655783
-0.203060 0.225302 -0.708585
0.665339 -0.712115 0.234384
0.197225 -0.216431 -0.642698
-0.237779 -0.677621 0.212819
0.663693 0.231486 -0.669229
-0.237950 -0.677318 0.213235
-0.669894 -0.660021 -0.245581
-0.668099 -0.658641 -0.243669
-0.226309 -0.665362 -0.685498
-0.657529 0.208194 -0.237138
0.210155 -0.650765 0.652797
-0.237729 -0.678181 0.213474
-0.694669 -0.204790 0.226415
0.664791 -0.231223 -0.184968
-0.203343 0.226897 -0.709509
-0.694020 -0.203655 0.227449
0.230771 0.674264 -0.656117
0.666873 -0.709961 0.234465
-0.182799 0.652057 -0.189755
-0.226967 -0.669856 -0.683976
0.210421 -0.651912 0.651566
-0.238888 -0.677787 0.212997
0.666269 -0.258123 0.663671
0.219420 0.233941 0.669785
0.210943 -0.651389 0.651492
0.204633 -0.684561 -0.206750
-0.220856 -0.203217 0.628528
-0.666192 0.221597 0.680423
-0.655043 -0.209346 -0.695213
0.666979 0.642865 -0.226811
-0.656871 0.635961 0.222764
-0.223466 0.694565 0.664400
0.663019 0.231570 -0.668131
-0.220499 0.696502 0.664227
0.668617 -0.256065 0.663044
-0.226620 -0.667132 -0.683348
0.680045 0.252855 0.240165
-0.665306 0.222377 0.680767
-0.657438 0.209080 -0.236361
-0.658264 0.634528 0.222350
0.667701 0.643574 -0.227001
-0.183310 0.651345 -0.185883
-0.692500 -0.203259 0.226283
0.225137 0.691573 0.247082
-0.665998 0.223764 0.681900
-0.222035 -0.202414 0.629277
-0.222098 0.696120 0.666281
-0.694361 -0.202640 0.226861
-0.652663 -0.209646 -0.696206
0.222714 0.692083 0.243864
0.196442 -0.215351 -0.642434
-0.228127 -0.666070 -0.684346
0.231075 0.673545 -0.656958
0.223826 0.690266 0.244475
0.204547 -0.684081 -0.204814
-0.666173 0.223576 0.681141
-0.669898 -0.659897 -0.245031
-0.181240 0.652227 -0.188945
-0.659995 0.637513 0.222189
-0.658209 0.633941 0.221925
-0.225496 -0.667440 -0.682663
0.219966 0.231506 0.671113
-0.659648 0.635366 0.222077
0.661880 0.232964 -0.667463
0.666511 -0.709992 0.234940
0.223184 0.690752 0.245669
-0.222202 0.696894 0.666108
-0.669832 -0.658443 -0.244819
-0.201057 0.227097 -0.709552
0.664989 0.643528 -0.227072
-0.664468 0.222020 0.680145
0.667786 -0.255877 0.662481
0.223045 0.690838 0.246369
0.663889 0.233760 -0.668277
-0.202911 0.226351 -0.709868
-0.221891 -0.203686 0.629857
0.664267 -0.708354 0.235163
-0.182594 0.651521 -0.188239
-0.655845 0.207415 -0.235687
