OFF
256 0 0
0.115271 0.381204 -0.838415
0.095359 0.814924 -0.409224
-0.322377 -0.369535 0.417186
-0.295649 0.027225 0.849490
0.504214 0.022418 0.016469
0.527126 -0.013512 -0.819232
-0.325511 -0.429896 -0.419686
0.553632 0.833672 -0.008142
0.098417 0.829038 0.384219
-0.739833 -0.025903 -0.425599
0.115952 0.380774 -0.837306
0.497817 0.429637 0.407143
-0.295623 0.808235 -0.002482
0.077631 -0.835766 -0.392949
-0.309040 0.408722 0.386855
0.507279 -0.827608 -0.000002
0.506083 0.020552 0.017722
0.515387 0.417404 -0.418277
-0.724330 -0.427307 -0.013712
0.552067 0.832286 -0.007337
-0.320285 -0.031216 -0.819070
0.099110 -0.406815 -0.821886
-0.739244 -0.026536 -0.426894
-0.340342 0.381493 -0.416503
0.517084 -0.415372 0.402702
0.100411 -0.408216 -0.819953
0.109703 -0.831437 0.441575
-0.296138 0.027442 0.849320
0.516053 0.418940 -0.418801
-0.321683 -0.031018 -0.818167
-0.309988 0.408669 0.387661
0.514846 -0.417976 0.404186
0.514381 -0.417177 0.403542
-0.273833 -0.804590 0.038606
0.515582 -0.416125 0.405681
-0.295618 0.806173 -0.004110
0.513440 -0.417841 0.401199
-0.734051 0.006902 0.405377
-0.311371 0.408412 0.387250
-0.311797 0.410252 0.385896
0.502788 0.022588 0.017534
-0.325891 -0.428521 -0.418856
0.095672 0.814407 -0.409470
-0.292845 0.027076 0.850787
-0.295842 0.806545 -0.004209
0.487374 -0.396053 -0.409653
0.115383 0.379849 -0.836233
-0.311039 0.409608 0.386547
0.504624 0.020923 0.017147
-0.274563 -0.806837 0.039201
0.524393 -0.015691 -0.820740
0.514987 -0.415873 0.404048
-0.275342 -0.804314 0.042350
0.095508 0.813715 -0.410737
-0.323808 -0.367783 0.415479
-0.341982 0.383674 -0.416107
0.504305 0.022658 0.018913
0.524988 -0.013332 -0.817984
0.498335 0.432031 0.404065
0.100306 0.445347 0.822001
0.506040 -0.827294 -0.000865
0.514559 -0.416828 0.403807
0.117165 0.378837 -0.838649
0.115126 0.379232 -0.836706
-0.323445 -0.367851 0.417631
0.514519 0.008833 0.817886
0.514480 0.008505 0.815382
0.101826 -0.407607 -0.820378
-0.310177 0.410550 0.387387
0.095283 0.814304 -0.409524
0.515216 -0.416993 0.403988
0.098355 0.815835 -0.410865
-0.732404 0.007699 0.405996
-0.320433 -0.031238 -0.817772
0.098057 0.814449 -0.410080
0.075931 -0.837144 -0.395085
-0.275631 -0.804030 0.039779
0.102079 0.445634 0.824102
0.515650 0.420616 -0.420207
0.553812 0.832561 -0.007468
-0.723907 -0.429434 -0.012711
0.483176 -0.399689 -0.407665
0.515248 -0.416740 0.402279
0.515318 0.005868 0.815866
-0.734508 0.006610 0.404589
-0.734076 0.008803 0.405179
-0.756860 0.419770 -0.005049
-0.274868 -0.804253 0.040724
0.485905 -0.401033 -0.407956
0.098690 0.829963 0.384785
0.107341 -0.830215 0.441182
0.099929 0.444236 0.822470
0.485790 -0.398512 -0.406698
-0.324253 -0.430028 -0.418430
0.486792 -0.399349 -0.406877
0.506550 -0.826632 -0.000144
0.096656 0.816311 -0.411174
0.117257 0.380233 -0.839204
0.097924 0.815210 -0.411286
0.512078 0.008114 0.816209
0.515535 -0.417061 0.405105
0.504212 0.019353 0.017040
-0.760070 0.418517 -0.003015
-0.310838 0.410004 0.388804
0.076206 -0.836042 -0.394041
-0.739143 -0.024225 -0.424667
-0.758770 0.418376 -0.006829
-0.723213 -0.429310 -0.013252
-0.295838 0.807615 -0.002930
0.514944 0.007123 0.816907
0.513674 -0.417073 0.404082
0.515600 0.417419 -0.418306
0.514858 -0.418528 0.401529
0.077773 -0.834996 -0.392711
0.553260 0.833910 -0.007809
0.101796 0.445098 0.823101
0.099158 0.830190 0.384215
0.497622 0.430316 0.404356
0.099390 0.829578 0.384016
-0.322783 -0.369295 0.417218
-0.293224 0.027766 0.849338
-0.325482 -0.430344 -0.418809
0.516345 -0.417654 0.403849
0.075924 -0.835723 -0.393770
0.523556 -0.015964 -0.817740
0.504426 0.020371 0.016507
0.507397 -0.828908 -0.001232
-0.295683 0.805929 -0.003748
0.100611 -0.406139 -0.821955
0.506508 0.021911 0.015981
-0.274327 -0.804084 0.040560
0.100916 0.443491 0.822907
-0.309088 0.409446 0.387516
0.513345 0.007579 0.816777
0.075752 -0.835938 -0.392611
0.506082 -0.828755 0.000468
0.116578 0.380194 -0.838606
-0.340545 0.382446 -0.415140
-0.318316 -0.030332 -0.819402
-0.742468 -0.026558 -0.423497
0.523179 -0.016423 -0.818721
0.116249 0.378327 -0.836670
0.525069 -0.016490 -0.819422
0.107945 -0.830288 0.441488
-0.740999 -0.025721 -0.423968
-0.319425 -0.032785 -0.818841
0.100326 0.444169 0.822616
-0.724903 -0.429026 -0.013797
-0.319940 -0.030267 -0.818275
-0.324187 -0.430082 -0.420100
0.077882 -0.835954 -0.394505
0.514927 0.007618 0.816095
-0.756765 0.419372 -0.003897
0.501940 0.019906 0.016939
0.515067 0.419270 -0.419272
0.107266 -0.828800 0.440953
0.498302 0.430820 0.403969
0.114893 0.379875 -0.837581
0.101264 -0.405954 -0.821085
0.507214 -0.830361 -0.002532
0.503039 0.021760 0.017588
0.099660 0.830932 0.382998
-0.311047 0.409246 0.386891
0.515558 -0.417377 0.401120
0.487342 -0.399334 -0.407354
0.114611 0.380319 -0.836732
-0.276450 -0.802879 0.039600
0.107885 -0.831200 0.443337
0.100285 -0.407963 -0.821030
0.500155 0.431908 0.404199
0.506747 -0.827176 -0.002210
0.096970 0.815544 -0.411110
0.486925 -0.398575 -0.409434
0.516253 0.419386 -0.419290
-0.739851 -0.026799 -0.423696
-0.318781 -0.030512 -0.818045
-0.733487 0.005562 0.406574
0.516503 -0.417866 0.403034
0.076395 -0.836304 -0.394686
0.503266 0.021958 0.014949
-0.342260 0.381770 -0.416091
-0.341015 0.384577 -0.418172
-0.757466 0.417646 -0.003714
-0.295910 0.026256 0.847879
0.503117 0.021330 0.016751
0.099003 0.445076 0.823929
-0.321868 -0.368550 0.416233
0.504410 0.020579 0.017135
0.499747 0.430179 0.406634
-0.310650 0.409035 0.388299
0.515414 0.008223 0.817349
-0.310770 0.409652 0.387375
0.486877 -0.399720 -0.408667
0.100452 0.830844 0.384005
-0.741184 -0.025903 -0.423842
0.076154 -0.835803 -0.392587
-0.310454 0.408580 0.386472
0.100798 0.443154 0.822930
-0.295895 0.807091 -0.003542
-0.276387 -0.802598 0.039421
0.516730 0.418783 -0.418031
-0.310781 0.409185 0.390309
-0.724237 -0.428050 -0.009621
-0.323416 -0.429696 -0.419893
0.122001 -0.413742 0.823220
-0.274787 -0.804305 0.041706
0.504353 0.021250 0.017678
-0.275148 -0.805355 0.040766
0.116152 0.379282 -0.837867
-0.341201 0.382652 -0.415766
0.515228 0.006825 0.817475
-0.740131 -0.024584 -0.425297
0.552331 0.833088 -0.008173
0.099893 0.443869 0.825204
0.525706 -0.016261 -0.818039
0.522102 -0.015108 -0.819732
-0.321764 -0.368383 0.416536
-0.294433 0.027143 0.850743
0.120461 -0.416359 0.822677
0.496065 0.431500 0.405606
-0.295629 0.027050 0.849219
0.516019 -0.417202 0.401045
-0.311180 0.410999 0.386927
0.485422 -0.397835 -0.406294
0.114959 0.379819 -0.837868
-0.322755 -0.365925 0.416714
-0.325995 -0.429460 -0.418741
0.121091 -0.414727 0.824243
-0.320602 -0.031493 -0.818736
0.503231 0.020775 0.017560
0.503743 0.021825 0.018660
0.076952 -0.835971 -0.394720
-0.733220 0.006577 0.404853
0.074528 -0.836330 -0.394155
0.098796 0.814047 -0.410488
-0.311851 0.410170 0.385879
-0.322759 -0.368336 0.418172
0.115932 0.379570 -0.837257
-0.309708 0.410645 0.386824
-0.320273 -0.030085 -0.818048
0.550475 0.833183 -0.007004
0.097039 0.816493 -0.410458
0.515352 0.419613 -0.418360
-0.322745 -0.368055 0.416068
0.506738 -0.826605 -0.001204
0.095848 0.814608 -0.410610
0.517368 0.418404 -0.419139
-0.757172 0.418054 -0.003202
0.553937 0.832101 -0.007860
0.096067 0.814418 -0.408875
0.517434 0.417969 -0.418213
0.076299 -0.837875 -0.393562
-0.340467 0.384343 -0.417102
0.100370 0.831122 0.384182
-0.338751 0.381149 -0.415940
-0.294748 0.805514 -0.004431
