OFF
256 0 0
0.651549 -0.216887 0.672083
0.213949 0.231389 0.642096
-0.659439 0.221724 0.678074
-0.261522 -0.681670 -0.682829
-0.686956 -0.211714 -0.676267
0.681739 0.207076 0.227588
-0.233837 -0.233229 0.681360
0.695716 0.240156 -0.660379
0.212752 0.233570 0.643412
0.681109 0.207496 0.226941
0.231873 -0.678531 -0.214942
-0.237262 -0.234816 0.678292
0.677821 -0.665940 0.211021
-0.220940 0.670219 0.642082
0.226163 0.692918 -0.658089
-0.668480 0.219181 -0.214141
-0.687715 -0.211107 -0.676412
-0.208883 0.218908 -0.650086
0.214207 0.233019 0.642937
0.672101 0.676857 -0.213667
0.694234 -0.222961 -0.233809
0.232303 -0.678573 -0.214683
0.233771 -0.677643 -0.215797
0.682397 0.209586 0.226782
-0.659364 -0.666090 -0.237210
0.695321 0.240547 -0.661138
-0.222237 0.669986 0.642714
-0.666531 0.219134 -0.213770
0.697250 0.239086 -0.659970
0.219109 -0.673370 0.686525
-0.237721 0.694457 -0.228109
-0.220967 0.671403 0.642803
-0.688388 -0.211498 -0.677276
-0.684529 0.676937 0.214891
0.649858 -0.217611 0.670457
-0.210741 0.218907 -0.652480
0.649920 -0.216950 0.673066
-0.659392 0.221799 0.676964
0.255458 0.682157 0.232509
-0.261685 -0.681441 -0.683709
0.213823 0.231466 0.642853
-0.221443 0.671356 0.641062
-0.238622 0.692463 -0.228992
-0.208335 0.220009 -0.651570
-0.229832 -0.706167 0.222423
0.222679 -0.221462 -0.674809
-0.209667 0.218723 -0.649383
-0.228959 -0.704485 0.220104
0.233380 -0.677866 -0.215862
-0.236303 -0.234716 0.678657
-0.655472 -0.667949 -0.236530
0.670899 0.680123 -0.211595
0.255099 0.682135 0.231714
0.694692 -0.223778 -0.231765
-0.230388 -0.705193 0.223249
-0.221589 0.670672 0.642459
0.681331 0.206786 0.225215
0.679125 -0.666622 0.211333
-0.262949 -0.682122 -0.683059
-0.688493 -0.209972 -0.675767
0.226574 0.694413 -0.657095
0.220315 -0.675150 0.686333
-0.230624 -0.704396 0.221720
-0.657995 0.220630 0.675854
-0.229777 -0.705019 0.219912
-0.238907 0.693251 -0.229248
-0.229474 -0.705358 0.222098
-0.687414 0.676687 0.216774
0.222264 -0.219817 -0.676873
0.225918 0.694420 -0.656080
0.696645 0.238799 -0.661630
0.223108 -0.219876 -0.676867
-0.210197 0.219232 -0.652175
-0.687928 -0.255414 0.235164
-0.209807 0.219232 -0.649712
-0.689450 -0.254768 0.236436
-0.237278 -0.233713 0.680274
0.253979 0.682205 0.231623
0.226219 0.692493 -0.656207
0.230135 -0.678673 -0.216182
-0.209781 0.219643 -0.651136
-0.685517 0.678905 0.214935
-0.209799 0.219517 -0.652473
0.232537 -0.678480 -0.216108
0.228713 0.693299 -0.655561
0.696182 -0.224053 -0.230588
-0.220818 0.670735 0.641794
0.255005 0.683608 0.231035
-0.686953 0.677911 0.214040
0.649777 -0.219372 0.671182
0.228076 0.694059 -0.656336
0.651099 -0.218366 0.671044
-0.236241 -0.234056 0.680123
-0.689032 -0.256046 0.235261
-0.240764 0.692252 -0.231160
-0.688402 -0.211483 -0.677128
-0.210338 0.220596 -0.651465
0.670058 0.677539 -0.215090
-0.209041 0.220446 -0.652943
0.226918 0.693617 -0.658494
-0.656669 -0.664504 -0.237209
-0.666130 0.219859 -0.215981
-0.684883 0.679094 0.217503
0.214272 0.232199 0.642792
0.684393 0.206850 0.228630
0.213264 0.232885 0.642708
-0.262718 -0.680816 -0.681646
0.219743 -0.675035 0.686401
-0.223842 0.670333 0.642712
-0.659477 0.222468 0.676175
-0.236707 -0.234379 0.680093
-0.227175 -0.704668 0.221826
0.694044 -0.223967 -0.231621
0.683274 0.206619 0.226469
-0.686702 -0.211045 -0.674737
-0.236846 -0.234304 0.680515
0.231022 -0.677636 -0.213732
-0.666959 0.219466 -0.214134
-0.686498 0.677025 0.217458
-0.261497 -0.681298 -0.683640
0.255491 0.682034 0.231557
-0.237955 0.692958 -0.230552
0.255020 0.681917 0.232434
0.695525 -0.225223 -0.231349
0.213443 0.233757 0.644467
-0.236321 -0.234894 0.680205
-0.229241 -0.705096 0.221444
0.670136 0.679007 -0.212116
-0.665919 0.218266 -0.214413
-0.687076 0.677946 0.216640
-0.223239 0.669770 0.642696
-0.657487 -0.665876 -0.238473
-0.230315 -0.703519 0.223462
0.694713 -0.224363 -0.231175
0.220623 -0.674734 0.687174
-0.667081 0.220622 -0.212916
0.226361 0.693574 -0.658478
0.225080 0.693365 -0.657501
-0.228935 -0.705462 0.222007
0.694676 -0.222617 -0.231538
-0.221296 0.670553 0.642676
-0.684730 0.677353 0.216639
0.223288 -0.218621 -0.674571
-0.685893 0.676854 0.215754
0.213322 0.230943 0.643374
0.227112 0.692822 -0.657953
-0.238020 0.693525 -0.229950
0.213583 0.232135 0.641554
-0.222200 0.667580 0.643076
-0.683350 0.675479 0.215081
-0.689768 -0.254137 0.236827
-0.686427 0.678494 0.216192
0.697340 0.240300 -0.659549
0.223106 -0.221248 -0.675635
0.222826 -0.220082 -0.677270
0.678338 -0.666915 0.213224
0.649502 -0.217797 0.671256
0.214001 0.231262 0.643077
0.224650 -0.219410 -0.677025
-0.237318 -0.233426 0.681184
-0.210109 0.219797 -0.651017
-0.234401 -0.237397 0.680928
-0.658491 -0.665023 -0.236518
-0.235796 0.692010 -0.230029
-0.209243 0.217690 -0.651157
-0.262903 -0.680130 -0.681998
0.223334 -0.218912 -0.676337
-0.210176 0.218066 -0.652807
0.219477 -0.674151 0.684790
-0.686250 0.676340 0.214444
0.668330 0.679651 -0.213170
-0.688299 -0.211566 -0.675849
-0.658009 -0.666535 -0.237083
-0.222093 0.668928 0.643252
-0.222084 0.671782 0.643109
-0.262156 -0.681199 -0.684980
-0.238855 0.691553 -0.229882
-0.210205 0.218792 -0.651384
-0.238863 0.692375 -0.228941
0.694826 -0.223853 -0.231073
0.227321 0.691960 -0.656726
-0.222835 0.672082 0.643356
0.669479 0.679797 -0.212335
-0.222608 0.670870 0.639924
-0.686633 0.678205 0.216913
-0.689519 -0.211136 -0.675706
-0.208694 0.218327 -0.650339
-0.230582 -0.705627 0.221458
-0.229184 -0.704365 0.220388
0.649411 -0.218566 0.672130
-0.208077 0.218080 -0.651008
0.229013 -0.679038 -0.215245
-0.209554 0.219034 -0.651818
-0.688134 -0.257566 0.235813
-0.689655 -0.252876 0.235155
-0.666897 0.218046 -0.214104
0.226918 0.693530 -0.657589
0.670521 0.678609 -0.213101
-0.658442 0.221951 0.675901
0.226127 0.693238 -0.656606
0.226995 0.693090 -0.657106
0.214627 0.231304 0.642723
-0.237602 0.692307 -0.231089
-0.234108 -0.234248 0.680353
-0.668020 0.219612 -0.213861
0.695706 -0.224421 -0.230857
-0.686380 0.676786 0.215540
-0.689094 -0.255755 0.234858
-0.668821 0.218768 -0.214237
-0.222978 0.671602 0.642295
-0.237727 0.692404 -0.231352
-0.262880 -0.681342 -0.685259
0.671584 0.678710 -0.211675
-0.262302 -0.682108 -0.681982
-0.687737 -0.209554 -0.674889
-0.237118 -0.234745 0.679577
0.671585 0.678032 -0.213584
0.683036 0.206988 0.227367
0.671033 0.679232 -0.212601
0.682489 0.205699 0.226136
-0.689306 -0.254282 0.235798
0.682141 0.206931 0.227673
-0.223673 0.670993 0.641497
-0.686898 0.676206 0.216472
0.231939 -0.678613 -0.215259
0.226834 0.692729 -0.654892
0.233558 -0.678755 -0.214997
0.694343 -0.222364 -0.233261
0.670906 0.679079 -0.213063
0.220551 -0.675880 0.687225
0.683377 0.206622 0.226827
0.230897 -0.678360 -0.216357
0.682103 0.206254 0.226859
0.252995 0.681839 0.231533
0.222935 -0.219649 -0.675517
-0.658746 0.220148 0.675924
0.231715 -0.677202 -0.214733
0.671434 0.678853 -0.213528
-0.655899 -0.665714 -0.236521
0.669155 0.679437 -0.212916
-0.657682 0.221277 0.679169
-0.261465 -0.680406 -0.681776
-0.689773 -0.254389 0.236627
0.217635 -0.673968 0.686239
-0.687776 -0.254164 0.237129
0.254467 0.683092 0.230574
-0.658594 0.221642 0.677045
0.695353 -0.223867 -0.231142
-0.685792 0.675494 0.216346
-0.228528 -0.706754 0.222009
-0.237650 0.693417 -0.230426
-0.263362 -0.682197 -0.682737
-0.260300 -0.682660 -0.682795
0.695329 -0.221569 -0.231183
0.227847 0.694384 -0.656453
-0.685333 0.677308 0.215830
