OFF
256 0 0
-0.186748 -0.155663 -0.616634
0.284297 -0.127059 0.757959
-0.180824 -0.613614 -0.182300
-0.594446 0.266003 0.287445
0.747750 -0.169395 -0.604632
-0.627349 -0.155109 0.762346
-0.186026 -0.157381 -0.615607
-0.618891 0.748565 -0.186200
-0.148636 0.731199 -0.601368
0.266285 0.745394 -0.188154
0.747006 -0.169751 -0.604282
0.278992 -0.591752 0.269928
0.768192 -0.145925 0.295073
0.288583 0.258431 -0.573987
0.251757 0.268773 0.257776
-0.164265 -0.645967 0.695944
0.284169 -0.127109 0.758116
-0.608146 -0.169621 -0.146689
-0.626382 -0.158033 0.763178
-0.185854 -0.157093 -0.616780
-0.608171 -0.620223 0.303597
0.296713 -0.613862 -0.609008
-0.164493 -0.643668 0.698241
-0.185742 -0.158855 -0.615114
-0.146622 0.731655 -0.601846
-0.185984 -0.156157 -0.613943
0.282831 -0.128245 0.757818
0.265918 0.746704 -0.188581
0.297853 -0.614905 -0.609438
0.265058 0.744632 -0.186521
-0.161737 0.310727 0.743024
-0.596969 0.268919 0.287371
0.266093 0.744609 -0.187872
-0.608532 -0.622414 0.304162
-0.149341 0.732076 -0.601455
-0.163512 0.769988 0.276802
-0.164863 0.769235 0.279088
0.754246 0.257641 -0.152400
-0.608048 -0.618943 0.303339
-0.164309 -0.644213 0.697080
0.278799 -0.589448 0.269207
0.278442 -0.590024 0.268840
-0.596519 0.268005 0.287261
-0.625770 -0.156110 0.763741
-0.609398 -0.620329 0.305455
0.770071 -0.146929 0.296831
-0.162646 0.311546 0.740069
-0.601856 0.279635 -0.623370
-0.180697 -0.617279 -0.179085
-0.163237 0.312872 0.741701
0.731242 -0.625330 -0.169402
-0.160674 0.311338 0.742937
-0.603804 0.278293 -0.623347
-0.625471 -0.156316 0.763197
0.753634 0.256367 -0.151105
-0.620370 0.747527 -0.186430
-0.619999 0.749235 -0.185726
-0.620169 0.748955 -0.188155
-0.182912 -0.614988 -0.180238
-0.595175 0.269399 0.287850
0.264216 0.745658 -0.185963
0.265848 0.746078 -0.187657
0.769273 -0.148146 0.295327
0.279575 -0.591537 0.270865
-0.161544 0.311237 0.742642
0.754107 0.256224 -0.150067
-0.179887 -0.615145 -0.179085
-0.150273 0.731840 -0.600552
0.289250 0.257831 -0.574548
-0.183051 -0.613570 -0.180279
0.288580 0.257031 -0.573455
0.250731 0.267630 0.257533
-0.625926 -0.155604 0.762042
0.768694 -0.145493 0.295427
-0.149050 0.734262 -0.601302
-0.165480 0.769814 0.276043
-0.604478 0.278913 -0.623161
0.749661 -0.168979 -0.604982
-0.164926 0.770708 0.278089
-0.607447 -0.170805 -0.145602
0.263933 0.746413 -0.188911
-0.147821 0.732626 -0.602782
-0.150017 0.732893 -0.599894
0.750902 -0.169790 -0.605359
-0.596115 0.268344 0.286485
0.278369 -0.591210 0.269014
0.250578 0.269133 0.258142
-0.610360 -0.620296 0.304075
0.279659 -0.590267 0.270142
-0.187194 -0.157587 -0.615695
-0.161973 0.312814 0.742577
-0.186666 -0.157161 -0.616242
-0.164850 -0.645097 0.698468
-0.186329 -0.157760 -0.614415
0.768792 -0.149018 0.295981
0.278700 -0.589211 0.268291
-0.165796 -0.646133 0.696044
-0.608062 -0.622037 0.303296
0.250033 0.269277 0.256974
-0.593888 0.267887 0.288979
0.732141 -0.625829 -0.170796
-0.181952 -0.616047 -0.181563
-0.150576 0.731725 -0.602605
-0.166462 0.767452 0.278342
0.749344 -0.167839 -0.606030
-0.186447 -0.158104 -0.616614
0.277197 -0.588261 0.268313
0.284922 -0.128409 0.757921
-0.608463 -0.620362 0.304640
0.297411 -0.616170 -0.608020
0.264171 0.746615 -0.185519
-0.595925 0.267458 0.289065
0.768198 -0.147519 0.296888
0.265652 0.745672 -0.186222
0.754582 0.257754 -0.150446
0.770779 -0.147022 0.293253
-0.186034 -0.156583 -0.617739
-0.163592 0.768898 0.278287
-0.595008 0.268077 0.288114
-0.163062 0.312141 0.740882
-0.164421 -0.643405 0.696663
0.250692 0.267937 0.256783
0.749921 -0.168099 -0.605813
-0.626615 -0.154688 0.764143
-0.162793 0.313323 0.742809
-0.161124 0.310109 0.742857
0.769612 -0.148136 0.294136
0.287753 0.259208 -0.572231
-0.596587 0.268365 0.286861
-0.185340 -0.155769 -0.616595
-0.148278 0.732268 -0.600792
0.279783 -0.589691 0.268451
-0.186443 -0.157699 -0.616558
0.278309 -0.590477 0.268322
-0.625848 -0.155445 0.763857
-0.609798 -0.169472 -0.146335
-0.607021 -0.170535 -0.145346
0.265301 0.746345 -0.186799
0.748157 -0.168510 -0.607457
-0.609756 -0.169601 -0.147758
0.290188 0.257711 -0.572569
-0.164292 0.770810 0.276002
0.297311 -0.613651 -0.607429
0.286050 -0.126359 0.756903
0.284790 -0.126868 0.757697
0.768214 -0.147673 0.295426
-0.608716 -0.619132 0.304831
-0.188067 -0.157424 -0.615093
0.296339 -0.614830 -0.609020
-0.607261 -0.618170 0.304542
0.284879 -0.126965 0.757881
0.285739 -0.125953 0.758585
0.284457 -0.125911 0.757088
-0.606534 -0.171118 -0.146181
-0.147970 0.730358 -0.601895
-0.609335 -0.170980 -0.146637
0.266313 0.745905 -0.187740
-0.182615 -0.614799 -0.178307
-0.186800 -0.156817 -0.616806
-0.149748 0.729447 -0.600730
-0.149542 0.732975 -0.601490
0.286955 0.257634 -0.574985
0.296414 -0.613563 -0.608270
-0.166471 0.768206 0.277465
-0.627343 -0.155506 0.763612
0.277734 -0.591319 0.269437
0.732439 -0.627126 -0.170155
-0.620583 0.749880 -0.185337
0.732585 -0.626273 -0.171216
-0.147556 0.732161 -0.600901
-0.603365 0.277810 -0.624602
0.768835 -0.149244 0.295497
-0.626851 -0.156446 0.764200
-0.609449 -0.619975 0.302648
-0.627343 -0.156658 0.764930
-0.618836 0.749138 -0.186380
0.749390 -0.170032 -0.605944
0.285389 -0.125178 0.756408
-0.180670 -0.615647 -0.180101
0.284793 -0.127655 0.757444
-0.160023 0.312255 0.740539
-0.609921 -0.619820 0.302825
0.733156 -0.625877 -0.169700
-0.607879 -0.169721 -0.145062
0.285506 -0.126980 0.756540
0.770386 -0.146869 0.296287
0.264801 0.744382 -0.186884
-0.148100 0.732819 -0.600775
-0.626246 -0.156162 0.763266
-0.626185 -0.154751 0.762419
0.265756 0.745161 -0.186192
-0.163896 0.769669 0.277826
0.769333 -0.147511 0.296020
-0.596768 0.269253 0.288434
0.753003 0.258727 -0.151413
0.285690 -0.124593 0.757646
-0.163754 0.769868 0.277654
0.768651 -0.149266 0.296868
0.751517 -0.168030 -0.605691
-0.150246 0.732259 -0.603114
-0.608392 -0.619342 0.303882
0.767792 -0.146682 0.294868
-0.149836 0.729603 -0.602584
-0.147780 0.733141 -0.603905
0.285937 -0.126505 0.757494
0.749989 -0.167737 -0.606948
-0.147764 0.731790 -0.601660
-0.148021 0.733163 -0.602082
-0.161708 0.310969 0.742174
0.290408 0.257186 -0.572459
0.263973 0.744641 -0.186719
-0.165083 -0.644688 0.698534
-0.162196 0.311200 0.741316
-0.603118 0.278692 -0.625652
0.293580 -0.614820 -0.606028
-0.166106 -0.644741 0.699858
0.755092 0.256813 -0.152566
0.732323 -0.627915 -0.170337
-0.149043 0.732483 -0.601399
0.284026 -0.126143 0.756812
-0.180520 -0.612558 -0.179784
-0.165247 0.768221 0.276809
-0.162194 0.309767 0.743815
-0.186155 -0.158540 -0.615047
-0.148978 0.732949 -0.601892
-0.620266 0.748791 -0.186050
-0.607659 -0.170580 -0.146269
-0.181911 -0.614367 -0.181242
0.755759 0.256725 -0.152225
-0.164614 -0.646674 0.698241
0.285319 -0.126275 0.756908
-0.165564 0.768383 0.278686
0.768696 -0.145378 0.294921
-0.181331 -0.614767 -0.180895
-0.182762 -0.614236 -0.181775
-0.147911 0.731737 -0.602691
0.283156 -0.123935 0.757470
-0.181950 -0.614877 -0.179528
-0.603124 0.278299 -0.624651
-0.164648 0.768819 0.277856
-0.620954 0.748058 -0.186905
-0.162309 0.310956 0.742683
-0.188184 -0.157770 -0.615232
0.249945 0.270941 0.258487
0.289435 0.259006 -0.573465
-0.618461 0.748764 -0.186394
0.296913 -0.616816 -0.609199
-0.603958 0.277310 -0.622927
0.756226 0.258110 -0.151448
0.279801 -0.591739 0.269285
0.290660 0.256891 -0.574340
-0.603324 0.278969 -0.624667
0.252700 0.268762 0.257496
-0.182134 -0.614658 -0.179799
-0.620757 0.749416 -0.183788
-0.163373 0.311761 0.742664
