OFF
256 0 0
-0.687655 -0.227420 0.688833
-0.688600 -0.229798 0.687872
-0.228426 -0.687843 -0.228645
-0.688033 0.687115 -0.227103
0.228152 -0.688367 0.229942
0.230217 0.689117 0.689976
-0.230079 0.231385 0.688247
-0.229575 0.688096 -0.688913
0.229419 -0.687531 -0.690093
-0.229691 0.228442 0.686859
0.231136 -0.689545 0.230029
0.231499 -0.228197 0.688631
-0.229722 -0.228380 -0.688217
0.229388 0.687789 -0.229076
-0.687090 0.230584 0.229418
0.688528 -0.229561 -0.690488
-0.229721 -0.229576 -0.690354
0.687470 -0.229485 0.228322
0.229589 0.687191 -0.227480
0.687962 -0.229318 0.231756
-0.689888 -0.231778 0.688210
-0.229935 -0.688369 0.686042
-0.228073 -0.229117 -0.687463
-0.230138 0.229317 0.686833
-0.229858 -0.686555 -0.231356
-0.230495 -0.687304 0.687650
-0.229060 -0.688007 -0.228992
-0.686932 0.228912 -0.688772
0.228609 0.687777 -0.227829
0.688390 0.230342 -0.228464
-0.687814 -0.228155 -0.229119
0.686593 -0.229773 0.228917
-0.228598 0.687289 0.228359
-0.229106 0.688773 0.229514
0.229625 0.688090 0.687993
0.688503 0.688456 0.228915
0.229788 0.689323 0.686957
0.688695 0.231387 0.689798
-0.688199 0.229542 -0.687829
-0.227119 0.687005 -0.688562
0.230777 0.230522 -0.688443
-0.228976 0.688053 -0.687934
-0.686750 -0.227433 0.686684
-0.688005 0.230847 0.228829
0.230207 -0.228281 0.688292
-0.688752 -0.688263 0.229293
0.228673 -0.688343 -0.687349
0.229839 0.690293 -0.228314
0.688816 -0.686993 -0.228602
-0.230559 0.228883 0.688201
0.688694 0.229615 -0.230189
-0.228473 0.689157 0.228116
-0.227534 -0.688495 0.688279
0.229150 -0.230934 0.688415
0.689177 0.229060 -0.228613
0.688217 -0.230124 -0.687630
-0.688396 -0.229281 -0.228109
0.230650 -0.686657 0.230557
-0.228730 0.229422 0.688050
-0.229479 0.687569 -0.688780
-0.689077 -0.689114 0.227590
0.688535 -0.229744 -0.689261
0.229826 -0.229300 0.688141
0.688370 0.690988 0.231051
-0.687892 -0.688443 0.231093
-0.229634 0.688175 0.230358
-0.688137 0.689195 -0.230176
-0.689876 0.688944 -0.226876
0.688122 0.229422 0.686486
0.229829 -0.687616 0.229075
0.229317 0.687160 -0.228600
-0.230743 0.229420 0.688496
-0.687929 0.231071 -0.689590
0.687813 -0.229643 0.230160
-0.229307 0.688316 -0.687555
-0.688714 0.229900 0.229022
-0.687766 0.688924 -0.229940
-0.228830 0.230069 0.690610
-0.688334 -0.230054 0.686573
-0.687882 -0.227860 0.687785
0.227230 -0.228683 0.688953
-0.230514 -0.687519 0.685499
0.228938 0.686937 0.687453
-0.230544 0.689466 0.229293
-0.229264 -0.687739 -0.228644
0.688762 -0.690021 -0.228739
-0.229890 -0.688531 0.688119
0.688414 0.690039 0.228241
0.687906 -0.227607 -0.688299
-0.228760 -0.687100 0.688805
-0.687372 -0.686000 0.228189
-0.689128 0.687415 -0.228684
-0.230258 -0.688767 0.687651
0.688084 -0.229395 0.230121
0.229756 0.686595 -0.227691
-0.226871 -0.230232 -0.689136
0.688674 -0.229225 0.227684
-0.688996 0.229212 -0.687456
-0.229166 0.228378 0.688522
-0.228458 0.688235 0.227423
0.229378 0.688626 -0.230298
-0.230366 -0.689071 0.688259
-0.229573 -0.687860 0.690195
-0.687476 0.688798 -0.228530
-0.689218 -0.229515 0.688174
0.687695 -0.230766 0.230146
-0.228940 -0.687414 0.687088
0.688205 -0.688913 -0.229310
0.229267 -0.229251 0.687671
0.229291 -0.689306 0.228966
-0.228348 0.688855 0.228094
0.228941 0.687512 -0.229892
-0.688112 0.686641 -0.229013
0.229041 0.687095 -0.229561
0.689015 -0.229855 0.229635
-0.687348 0.686373 -0.229569
0.230270 0.229993 -0.688209
-0.688037 0.688549 -0.228554
0.688738 -0.686617 -0.229122
0.690301 0.229169 0.687805
0.228526 0.230590 -0.688256
-0.229094 0.230465 0.687546
-0.229795 -0.689775 -0.228796
0.688678 0.228001 -0.229334
0.689233 0.227841 0.688889
0.688356 -0.687954 -0.230038
0.688588 -0.229091 0.229235
0.230347 0.229621 -0.688949
0.689387 -0.688010 -0.228837
-0.687915 0.229678 0.228765
0.688677 0.229635 -0.227949
0.228643 -0.689556 0.230865
0.688675 0.229944 -0.229582
-0.229264 0.687839 -0.688649
-0.228752 -0.230000 -0.687550
-0.227801 0.228352 0.687697
-0.229646 0.690024 -0.689368
0.686927 0.228995 -0.228948
-0.229252 0.688715 0.227799
0.229318 -0.688727 0.229429
-0.229532 -0.229464 -0.688844
-0.228445 0.687017 0.230081
-0.686721 0.229772 -0.689685
-0.228283 0.688304 -0.689020
0.228598 0.687988 0.689091
-0.229588 -0.229433 -0.690108
0.229773 -0.229295 0.688389
0.689047 0.229869 -0.228293
-0.229673 0.687402 -0.686527
-0.688212 0.229204 0.228840
0.228196 -0.688282 -0.687216
0.688193 -0.689103 -0.227103
0.688727 0.229679 -0.227552
0.229031 0.688261 0.689264
0.229002 -0.687338 0.228897
0.688510 0.231517 0.688529
-0.687851 0.688016 -0.230489
-0.686989 -0.688871 0.230262
-0.229578 0.230027 0.688183
-0.687945 -0.229656 0.686967
0.689471 0.688974 0.228105
-0.688120 -0.228997 -0.229306
-0.686875 -0.688479 0.228873
-0.688452 0.228155 0.230357
-0.688642 -0.688932 0.229835
-0.230715 -0.228220 -0.686524
-0.687875 0.231609 -0.688686
0.230041 -0.687598 0.230735
0.689920 -0.229517 -0.688953
0.229661 -0.229951 0.687859
-0.687721 -0.685574 0.229192
-0.227600 0.686938 0.231041
-0.228078 0.687586 0.228599
-0.229539 0.230377 0.686547
0.688113 -0.232862 -0.687977
-0.686758 -0.689314 0.229073
-0.229290 -0.229972 -0.689334
0.689478 -0.231235 0.228690
-0.687872 0.229928 0.231035
0.688724 -0.228395 0.229636
-0.228020 0.230060 0.687329
0.687409 -0.229711 0.229919
-0.688269 0.687830 -0.230558
-0.228502 -0.688455 0.687983
0.689570 -0.229819 0.230498
0.688756 0.230353 -0.228745
0.688939 -0.229325 -0.688562
0.229839 -0.687063 0.229597
0.684902 -0.688512 -0.229324
0.687565 0.230521 -0.231460
-0.231270 0.229820 0.688978
0.689485 0.229418 0.688516
-0.687529 -0.230479 -0.229348
-0.227268 0.688370 0.229324
0.229777 -0.230554 0.685349
-0.689245 0.230073 -0.688867
-0.690798 -0.230926 0.687791
-0.231913 0.687986 -0.688839
-0.689853 -0.230531 0.687911
0.229673 -0.230387 0.686779
-0.689806 0.229187 0.230553
0.687548 -0.229212 0.229295
0.230279 0.230443 -0.688316
0.230164 0.689636 0.686473
-0.229235 -0.689681 0.687931
-0.228636 0.687750 0.228494
0.228614 0.229625 -0.687628
0.689617 -0.228668 -0.689307
-0.230056 -0.228410 -0.689532
0.688272 -0.228180 -0.687916
-0.230252 -0.230887 -0.689042
-0.686965 -0.228911 -0.228521
-0.228785 -0.686835 0.688662
0.228242 -0.687559 -0.686355
0.688422 -0.229382 -0.685757
-0.688150 -0.228463 -0.230632
0.229782 -0.687462 -0.687201
-0.688581 0.689076 -0.228654
0.688616 0.689606 0.227518
-0.228710 0.687785 -0.688825
-0.686996 0.228350 -0.687906
-0.687663 -0.229250 -0.229648
-0.229823 0.688410 0.229051
0.688704 -0.229049 -0.688287
-0.688056 0.688857 -0.230248
0.229851 0.688370 -0.228833
-0.688677 0.230775 -0.688960
-0.230516 0.228737 0.688000
0.227409 0.687573 0.688595
-0.687488 -0.229654 -0.230305
0.688893 0.229874 0.689582
-0.690437 0.229264 0.230927
-0.228106 -0.688151 -0.228958
0.227999 -0.229913 0.689028
-0.229302 -0.687885 0.689775
0.687772 0.689697 0.232032
-0.229498 0.688582 0.228238
0.229967 -0.688128 0.229341
-0.229145 0.687182 0.227856
0.228925 -0.230050 0.689833
-0.689492 -0.231592 0.690317
-0.229795 0.688462 0.229318
0.231536 -0.228023 0.688013
-0.688778 0.687239 -0.229385
-0.228086 0.231351 0.688474
-0.685965 -0.229288 0.686637
-0.229904 -0.229500 -0.687870
0.229193 0.689625 -0.230272
0.687641 -0.228904 -0.689323
0.229216 -0.229842 0.686978
-0.688429 0.229019 0.229950
-0.230905 0.231272 0.687163
0.229426 0.689577 0.687339
0.229200 -0.228390 0.687609
-0.229897 0.689357 0.227997
-0.689676 -0.230887 0.687129
