OFF
256 0 0
0.227077 0.644196 0.619385
-0.219908 0.665511 0.207116
-0.660821 0.236430 -0.652435
-0.192131 -0.652805 -0.215070
0.246634 -0.188810 0.696942
-0.661175 0.234995 -0.649347
0.654515 0.226640 -0.238883
-0.664097 0.688451 -0.194565
-0.195733 -0.649975 -0.214700
-0.213189 0.698443 -0.671205
-0.214603 0.696705 -0.670158
-0.224350 -0.665107 0.669832
-0.709251 -0.239424 -0.241587
-0.708795 -0.236778 -0.242139
0.247506 -0.189252 0.696757
0.247591 -0.186997 0.697423
-0.231889 -0.256976 -0.666044
-0.194737 -0.651559 -0.214890
-0.659499 0.237157 -0.652149
0.247564 -0.188051 0.696130
0.227794 0.644836 0.618705
-0.687169 -0.672050 0.204076
-0.658102 0.235539 -0.651728
-0.193044 -0.652353 -0.214971
-0.659392 0.233984 -0.651547
-0.236705 0.220662 0.676642
-0.677666 -0.223754 0.699699
-0.231136 -0.257778 -0.664100
0.696736 0.248305 0.672177
-0.659728 0.235710 -0.651471
0.227479 0.644727 0.618924
-0.232270 -0.258048 -0.665106
0.666731 -0.692632 -0.241178
0.235829 -0.691650 -0.680597
0.691839 -0.204362 -0.650212
-0.678322 -0.224836 0.698921
-0.231688 -0.259421 -0.665148
-0.219076 0.665303 0.207856
-0.222772 -0.666639 0.669504
-0.223108 -0.667373 0.669023
0.664812 -0.694057 -0.242043
0.669503 -0.227328 0.211095
0.695421 0.247934 0.673094
-0.221188 0.665499 0.206965
-0.710383 -0.240152 -0.241981
0.224467 -0.688907 0.231634
0.667929 0.663568 0.217047
-0.219193 0.665405 0.208662
-0.194222 -0.651283 -0.214361
-0.658914 0.234205 -0.652043
0.226137 0.646380 0.620644
0.223592 -0.686928 0.232527
0.696740 0.248754 0.674936
0.667476 -0.229339 0.211500
-0.709530 -0.239440 -0.240271
0.696269 0.247282 0.673756
0.219861 0.212861 -0.673568
0.694750 0.249226 0.673634
-0.220519 0.664966 0.208047
0.664580 -0.694116 -0.243750
0.667473 -0.228517 0.211725
0.236173 -0.690838 -0.683289
-0.214450 0.697847 -0.669641
-0.234032 0.220679 0.677789
-0.676310 -0.223375 0.699515
-0.222617 -0.666861 0.669515
0.690727 -0.203495 -0.651452
0.204311 0.697347 -0.217328
0.225877 -0.687289 0.231572
-0.711720 -0.238917 -0.240831
-0.232557 -0.257753 -0.662752
0.246283 -0.189096 0.695984
0.247318 -0.189323 0.698737
0.692378 -0.205750 -0.649162
-0.709791 -0.238651 -0.240047
0.246741 -0.189418 0.696990
-0.658670 0.235601 -0.651661
0.694946 0.249305 0.674448
-0.663997 0.692378 -0.193604
0.651333 0.227954 -0.237949
0.695078 0.248981 0.673656
0.668006 0.661931 0.216558
-0.674406 0.198503 0.230004
-0.194770 -0.648589 -0.215371
0.203733 0.699012 -0.218015
0.223519 -0.687865 0.231905
-0.224232 -0.668669 0.669800
0.204929 0.698515 -0.215358
0.666093 -0.694127 -0.241905
-0.677784 -0.224806 0.699243
-0.663156 0.691580 -0.195319
-0.214694 0.697277 -0.668609
-0.214836 0.698121 -0.670713
0.691189 -0.204287 -0.650634
-0.665324 0.691194 -0.193947
0.204274 0.696674 -0.216409
-0.678204 -0.223368 0.699299
0.234087 -0.692781 -0.681505
-0.222810 -0.668489 0.671146
-0.230481 -0.259173 -0.664621
-0.677958 -0.225323 0.700812
0.664570 0.662975 0.216183
0.691027 -0.204463 -0.649557
0.666704 -0.227801 0.211364
0.228203 0.645445 0.621687
-0.232223 -0.258486 -0.663623
0.225568 -0.687727 0.231805
-0.231609 -0.257123 -0.665322
0.224653 -0.689788 0.231456
0.218584 0.213371 -0.672536
0.205328 0.696810 -0.216588
-0.660661 0.235137 -0.651494
-0.664825 0.690266 -0.192802
-0.677097 -0.225028 0.700361
-0.710057 -0.239024 -0.242089
0.691334 -0.205344 -0.650349
0.203111 0.696201 -0.217527
0.234987 -0.692487 -0.681483
-0.193752 -0.650761 -0.215659
-0.222382 -0.668582 0.670503
0.691764 -0.203432 -0.651638
0.218571 0.212562 -0.672855
-0.222776 -0.668296 0.669290
-0.687002 -0.673057 0.205726
-0.674817 0.198752 0.229888
-0.677828 0.198086 0.228709
0.203285 0.695880 -0.216052
-0.674242 0.197501 0.231339
-0.675694 0.197912 0.229997
-0.664139 0.690078 -0.194150
-0.221122 -0.667274 0.672428
0.693879 0.249217 0.672982
0.696311 0.250251 0.673441
0.693840 0.249929 0.673522
-0.193178 -0.651679 -0.215281
0.218615 0.215470 -0.676384
-0.710532 -0.239442 -0.242910
0.205345 0.697188 -0.218276
-0.214398 0.699020 -0.670028
0.217891 0.212604 -0.672227
0.696785 0.250792 0.673082
0.235426 -0.691510 -0.683258
0.226564 0.645380 0.620534
0.229681 0.645003 0.619050
0.668015 -0.692931 -0.240604
0.668962 -0.228939 0.211108
0.668285 -0.227181 0.212982
0.693436 -0.204821 -0.652588
-0.687381 -0.670129 0.204919
0.217701 0.212888 -0.672349
-0.223330 -0.667987 0.672022
0.692122 -0.206910 -0.649499
0.225295 -0.686520 0.231882
0.665484 -0.692825 -0.245687
-0.685718 -0.670503 0.205275
0.665150 -0.693788 -0.244267
-0.223883 -0.666959 0.669646
0.225395 0.646509 0.618782
0.651052 0.226428 -0.238234
-0.222867 -0.666256 0.670508
0.666357 -0.228325 0.211034
0.234536 -0.692971 -0.683198
0.218118 0.211874 -0.673100
-0.214267 0.699446 -0.667824
-0.237040 0.220217 0.679543
0.691422 -0.203702 -0.649410
-0.234777 0.222183 0.676747
0.696675 0.249058 0.674436
0.665045 -0.694575 -0.243286
0.205006 0.696350 -0.217617
0.203663 0.697491 -0.216654
-0.195135 -0.653073 -0.214139
-0.193020 -0.650868 -0.216364
0.667406 0.663834 0.214664
-0.710198 -0.238113 -0.240562
-0.686996 -0.670606 0.204914
-0.676093 0.197973 0.230169
-0.665562 0.690163 -0.193291
0.218154 0.213716 -0.674864
-0.231975 -0.259223 -0.665062
0.227443 0.646973 0.619423
-0.236521 0.218067 0.679709
-0.219597 0.665584 0.209842
-0.687584 -0.669319 0.206004
0.665126 -0.227293 0.211768
-0.191656 -0.652062 -0.215304
-0.675411 -0.225112 0.700407
-0.230978 -0.258719 -0.665989
0.247567 -0.188167 0.695518
0.223016 -0.685754 0.230226
-0.665376 0.691236 -0.193520
0.667862 -0.227432 0.212126
0.225036 -0.687710 0.230162
0.236184 -0.692262 -0.680710
0.247362 -0.186669 0.695309
-0.194134 -0.651790 -0.216609
0.236767 -0.693562 -0.682113
0.690397 -0.204591 -0.651093
0.665418 -0.693822 -0.242505
-0.710693 -0.239080 -0.242048
-0.230329 -0.259582 -0.664547
0.224615 -0.687611 0.231082
-0.235731 0.221905 0.678251
0.248960 -0.188425 0.695843
-0.659153 0.237164 -0.651387
0.203960 0.697528 -0.217492
0.651445 0.227369 -0.238309
-0.665896 0.691916 -0.194089
-0.230502 -0.257174 -0.664380
-0.224484 -0.669281 0.670503
0.217704 0.213937 -0.673681
-0.231994 -0.257888 -0.664169
0.205436 0.697925 -0.216363
0.225947 -0.686455 0.232421
-0.218776 0.665875 0.207486
0.226365 0.645646 0.618573
0.694744 0.247798 0.674719
-0.659612 0.236508 -0.650874
-0.665786 0.691544 -0.194151
0.224379 -0.687577 0.229845
0.248217 -0.189460 0.697403
-0.664788 0.690853 -0.194806
0.695963 0.248997 0.674025
0.691844 -0.204169 -0.649014
0.650399 0.227035 -0.236866
0.204813 0.697768 -0.217335
0.664190 -0.693501 -0.243559
-0.224413 -0.667928 0.669705
0.667342 -0.227680 0.212374
0.650900 0.225859 -0.238984
0.666294 -0.693025 -0.243010
0.666613 0.661766 0.214924
-0.231285 -0.259541 -0.664197
0.665549 -0.692547 -0.241713
-0.220377 0.666466 0.208132
0.218441 0.213028 -0.673210
0.650063 0.226889 -0.238624
0.666698 -0.694343 -0.240105
0.692634 -0.203731 -0.651608
-0.215351 0.698177 -0.667815
0.691378 -0.205205 -0.651186
0.204099 0.697577 -0.217084
-0.687886 -0.671598 0.204253
0.224228 -0.686566 0.231039
0.235246 -0.692646 -0.681763
-0.193837 -0.652604 -0.214461
0.223394 -0.687639 0.232695
-0.663714 0.690282 -0.196150
-0.219838 0.666782 0.208912
0.226598 0.645555 0.618991
0.226785 0.646339 0.620199
-0.660175 0.235165 -0.650259
-0.193555 -0.650833 -0.215608
-0.659432 0.237448 -0.651848
0.688593 -0.205095 -0.648758
0.691757 -0.203409 -0.650714
