OFF
256 0 0
-0.829385 0.496408 0.010168
0.423698 0.517644 0.422440
0.000123 0.516085 0.834725
-0.392865 -0.303049 -0.367057
0.392751 0.125664 -0.825741
0.423105 0.517129 0.423965
-0.009571 -0.309315 -0.863221
-0.821982 0.082016 0.422839
-0.411918 0.083722 0.838517
-0.438252 -0.764360 0.020478
0.004247 -0.301638 0.820016
0.392671 0.540370 -0.401497
0.435936 -0.320397 0.427321
-0.412404 0.084669 0.837934
0.832376 0.549063 -0.019671
-0.412349 0.083532 0.838256
0.823352 -0.263890 -0.014136
0.023069 0.452529 0.031149
0.395273 -0.302759 -0.436481
-0.866006 -0.343292 -0.009729
-0.392938 0.111437 -0.836040
0.836450 0.115124 -0.421889
0.002716 -0.302741 0.821864
-0.000311 0.516022 0.836454
0.394218 -0.303389 -0.437117
0.002568 -0.303692 0.821935
0.405795 0.114364 0.826474
0.406879 0.114526 0.825080
-0.821464 0.080343 0.422632
-0.377130 -0.307146 0.351775
0.424443 0.515726 0.422421
-0.030630 -0.734151 -0.392371
0.823803 -0.261716 -0.014077
0.829669 0.548192 -0.019849
-0.411646 0.084501 0.839918
0.823050 0.102763 0.421499
-0.438459 -0.763611 0.020994
-0.378060 -0.307936 0.352419
-0.377687 -0.305823 0.352010
-0.427547 0.500587 0.430228
-0.000125 0.514657 0.838259
0.390743 0.123291 -0.826560
-0.827241 0.494747 0.009789
-0.427324 0.501214 0.428989
0.836033 0.115118 -0.422549
0.408540 0.113072 0.825631
0.822900 0.104201 0.422889
-0.010514 -0.308850 -0.862848
0.424459 0.514630 0.422192
0.408829 -0.723385 -0.013012
0.424221 0.516561 0.421520
0.437155 -0.321316 0.425993
-0.000324 0.515590 0.836906
-0.390553 -0.302561 -0.367574
-0.028624 -0.732895 -0.392636
0.027098 -0.719556 0.399987
-0.835699 0.073705 -0.396729
-0.829215 0.493770 0.009576
-0.439991 -0.764256 0.021865
-0.384704 0.487167 -0.408706
-0.386044 0.487767 -0.407008
-0.011869 -0.307013 -0.863675
0.004001 -0.303458 0.820212
0.437075 -0.318068 0.428085
0.833795 0.547431 -0.017404
0.394586 0.125872 -0.826493
0.393786 0.125856 -0.826056
0.002043 -0.302949 0.820456
0.396568 -0.305686 -0.436011
0.423939 0.515613 0.423547
0.825113 -0.259939 -0.014222
-0.007304 -0.309186 -0.863249
-0.835451 0.074273 -0.396237
-0.010019 -0.310419 -0.864238
-0.866318 -0.344491 -0.011275
-0.414252 0.084981 0.836871
-0.411662 0.085124 0.837609
0.436750 -0.321403 0.428148
0.002986 -0.301907 0.821534
0.001292 0.515972 0.838631
-0.394856 0.111681 -0.835614
-0.829093 0.492362 0.007859
-0.391380 -0.303586 -0.366058
0.424624 0.516770 0.421690
0.821665 0.101466 0.422778
0.391009 0.538810 -0.401785
0.408280 -0.725716 -0.014144
0.022856 0.453433 0.030282
-0.865803 -0.343255 -0.010669
0.393093 0.540982 -0.400765
0.000454 0.515153 0.835714
-0.835245 0.073958 -0.396235
-0.822354 0.080727 0.421694
0.002522 -0.302204 0.820769
-0.438986 -0.764026 0.020207
0.408217 0.112894 0.826121
-0.411469 0.082685 0.840067
0.426554 0.516923 0.420995
0.834256 0.114979 -0.423660
0.392536 0.539646 -0.403282
-0.819922 0.083734 0.422556
-0.830061 0.494821 0.008539
-0.393499 0.112350 -0.835726
0.394196 -0.305191 -0.436716
0.834089 0.115062 -0.422193
-0.390484 -0.302806 -0.368434
0.023342 0.452331 0.030698
0.438267 -0.320733 0.427900
-0.820455 0.082507 0.423458
-0.412549 0.083398 0.838120
0.834535 0.114349 -0.422964
-0.383689 0.486246 -0.406260
-0.393312 0.112826 -0.836843
0.026719 -0.719277 0.397712
0.438107 -0.321811 0.426591
-0.030231 -0.733641 -0.392266
0.833123 0.549010 -0.018289
-0.376815 -0.307069 0.352212
0.027308 -0.719401 0.400490
0.824703 -0.260885 -0.013729
-0.829111 0.494678 0.010041
-0.834744 0.072504 -0.395322
0.397302 -0.305232 -0.437154
-0.383481 0.487014 -0.405675
0.823216 -0.263279 -0.012306
0.823177 -0.261337 -0.013800
0.822631 0.105537 0.423022
0.392690 0.541991 -0.401003
-0.440546 -0.763819 0.022345
0.833866 0.114584 -0.422359
0.824679 0.102335 0.422064
-0.009200 -0.308165 -0.861294
0.438223 -0.321418 0.426386
-0.378497 -0.306725 0.353219
-0.821707 0.083962 0.422615
0.394354 0.124876 -0.825382
0.822227 0.104407 0.421152
-0.376331 -0.306546 0.352658
-0.821147 0.080210 0.423936
-0.028692 -0.733829 -0.391643
0.027558 -0.720161 0.397095
0.822204 0.102903 0.421842
0.426068 0.514961 0.422663
0.394799 -0.304389 -0.436581
0.825372 -0.263581 -0.011971
-0.010472 -0.307149 -0.862286
-0.376971 -0.306402 0.352383
-0.438022 -0.764285 0.019950
-0.029606 -0.732462 -0.392398
0.436155 -0.322323 0.425965
-0.392365 -0.301871 -0.366192
0.425312 0.515714 0.421663
-0.438493 -0.765167 0.020749
0.022619 0.451744 0.029804
-0.835431 0.073431 -0.395326
0.836470 0.115850 -0.422511
0.003249 -0.302553 0.821302
0.437747 -0.319349 0.427027
0.392882 0.540041 -0.402544
0.832441 0.547977 -0.020554
-0.410926 0.084145 0.838736
0.422941 0.516877 0.420763
-0.029298 -0.732047 -0.391368
-0.394525 0.111359 -0.838184
-0.426746 0.501560 0.428193
0.026217 -0.719730 0.399779
0.831068 0.547534 -0.019887
0.835011 0.116558 -0.422059
-0.411386 0.083591 0.839063
0.831255 0.548747 -0.016792
0.394302 -0.303960 -0.437710
0.423619 0.516973 0.421851
0.023254 0.452688 0.029641
0.822460 0.102631 0.423503
0.001181 0.515159 0.835808
-0.820653 0.083087 0.421139
0.394620 -0.305611 -0.436941
-0.866580 -0.345336 -0.012957
-0.440179 -0.764363 0.022311
-0.438651 -0.761921 0.020670
0.026713 -0.720493 0.400000
0.397731 -0.305605 -0.437759
0.407582 0.112809 0.824922
0.820636 0.104466 0.422072
0.823202 -0.263278 -0.015419
0.436784 -0.321649 0.424545
-0.010046 -0.309479 -0.863859
0.424420 0.515633 0.421115
-0.030389 -0.732801 -0.393179
-0.384670 0.489979 -0.405670
-0.001502 0.514896 0.836975
-0.376869 -0.305846 0.353547
0.002033 -0.304144 0.822004
-0.829097 0.494695 0.009781
0.822930 0.102409 0.421194
0.024878 -0.719278 0.398552
0.024249 0.453629 0.029532
-0.833991 0.074229 -0.397332
0.392108 0.123491 -0.825629
0.394265 0.124347 -0.827250
-0.029849 -0.735150 -0.393289
-0.030489 -0.732289 -0.392650
-0.008908 -0.307597 -0.861559
-0.867015 -0.344758 -0.009177
0.409325 0.112473 0.824218
-0.864834 -0.345132 -0.009089
-0.029874 -0.732284 -0.394882
-0.377772 -0.306587 0.353030
-0.390199 -0.300799 -0.366844
0.422462 0.516347 0.422582
0.026740 -0.720875 0.401842
0.437210 -0.320795 0.427582
-0.030381 -0.733546 -0.393347
-0.866371 -0.341950 -0.009009
0.824221 -0.261465 -0.013357
0.003991 -0.301266 0.820735
0.026323 -0.718487 0.399662
-0.378246 -0.308888 0.353117
0.395038 -0.304478 -0.438448
0.394880 -0.305048 -0.435557
-0.009448 0.531672 -0.848071
-0.866760 -0.343829 -0.010556
-0.426775 0.501638 0.429937
-0.439796 -0.763273 0.021280
-0.010884 0.531091 -0.846539
0.437380 -0.321895 0.427200
-0.829904 0.496688 0.008100
-0.867479 -0.342419 -0.011353
0.391347 0.125741 -0.825984
-0.009906 -0.308275 -0.863112
-0.008544 -0.308696 -0.864383
0.437215 -0.322877 0.427419
0.408902 0.112949 0.826919
0.393159 0.540352 -0.402279
0.023614 0.451654 0.030058
0.023870 0.451671 0.030873
-0.000953 0.514535 0.837087
-0.390557 -0.302678 -0.367491
0.393202 0.539344 -0.402431
0.391848 0.127078 -0.827350
0.835222 0.115393 -0.424135
-0.008769 -0.307594 -0.863792
-0.425463 0.502112 0.428933
0.407817 0.113105 0.824887
-0.391613 -0.302688 -0.367751
-0.427605 0.502802 0.428836
-0.830369 0.495132 0.007784
-0.821882 0.081889 0.424292
0.823986 -0.263827 -0.014676
0.394911 -0.306155 -0.437640
-0.821255 0.081879 0.421614
-0.393283 -0.304319 -0.366847
-0.835205 0.073398 -0.396559
0.824521 -0.259374 -0.014965
-0.413475 0.083262 0.836629
0.393797 -0.304744 -0.437208
