OFF
256 0 0
0.388559 0.096151 -0.826314
0.429886 -0.743262 0.014008
-0.405127 0.101500 0.835243
-0.861156 0.089720 0.433211
-0.002474 -0.725830 0.425478
0.431614 -0.742747 0.014289
-0.001766 0.521140 -0.809445
0.427192 -0.326794 0.417701
0.433292 0.509152 -0.402232
0.433078 0.508933 -0.401283
0.424695 0.499362 0.412022
-0.854622 0.094299 -0.440711
-0.404591 -0.280137 0.392685
-0.406664 -0.300488 -0.425502
-0.010496 -0.312759 -0.869374
-0.008598 -0.312105 -0.869910
0.425556 0.500729 0.411386
-0.826340 -0.301793 -0.016084
-0.423200 0.478991 -0.404979
-0.405320 -0.300950 -0.425583
0.424982 0.501050 0.410897
-0.406429 -0.276936 0.389638
-0.429472 0.508384 0.436014
-0.851972 0.093912 -0.440682
-0.429787 0.509458 0.433083
-0.001034 -0.725378 0.423976
-0.407178 -0.708785 -0.006392
0.004691 -0.731660 -0.400120
-0.424033 0.477235 -0.404273
0.408860 0.120949 0.841425
0.024608 0.527718 0.001910
0.432783 0.507433 -0.400731
-0.003269 0.537489 0.842177
0.401205 -0.297986 -0.407618
-0.829657 -0.302067 -0.017888
-0.008563 -0.311185 -0.868272
0.000187 0.538953 0.843002
0.424292 0.500130 0.411103
0.411862 0.120327 0.841239
0.023520 0.527422 0.000672
-0.404501 0.101889 0.834841
-0.002030 0.540297 0.842617
-0.407265 -0.708421 -0.007337
-0.853957 0.094440 -0.439568
0.388884 0.096704 -0.825787
0.855177 0.089715 -0.423610
0.430188 -0.746132 0.013099
-0.408077 -0.709455 -0.006686
-0.429534 0.510436 0.434426
0.853056 0.091451 -0.422789
-0.828699 -0.302288 -0.017216
0.388437 0.095561 -0.825247
-0.421188 0.478963 -0.404156
0.854071 0.092696 -0.423739
-0.428707 0.509913 0.434889
0.428039 -0.327112 0.416477
-0.428705 0.508350 0.435706
-0.847335 0.485227 0.004662
-0.000805 0.537987 0.841708
0.003453 -0.730482 -0.401080
0.854327 0.091927 -0.421834
-0.010186 -0.312235 -0.867848
-0.001780 -0.724320 0.427364
-0.827680 -0.304220 -0.015039
0.425202 0.500518 0.409689
-0.421788 0.477362 -0.404409
-0.002270 0.539998 0.844237
0.852326 0.091620 -0.424178
0.426330 -0.326677 0.418418
0.854708 -0.318213 -0.001855
-0.427176 0.510387 0.434334
0.022196 0.527065 0.001398
-0.403671 0.101963 0.836292
-0.418788 0.110706 -0.845085
-0.405449 0.103406 0.836468
0.426092 0.500055 0.408104
-0.829368 -0.303300 -0.016713
0.389735 0.096921 -0.824465
0.824245 0.487940 -0.012650
0.853598 0.091542 -0.423081
-0.407447 -0.709119 -0.007183
0.408901 0.122369 0.840793
0.427646 -0.326061 0.416534
-0.002784 -0.723539 0.425261
0.410291 0.123163 0.840183
0.852481 0.091338 -0.423380
-0.004609 0.517574 -0.808478
0.854135 -0.316609 -0.000397
-0.407415 -0.711004 -0.007635
-0.403938 0.102926 0.836676
0.389198 0.097174 -0.824535
-0.422536 0.476835 -0.404268
-0.418886 0.107449 -0.845471
0.423199 0.501516 0.411424
-0.007009 -0.305104 0.822997
0.424974 0.501156 0.410773
-0.005065 -0.305756 0.824094
-0.002437 0.538060 0.841227
-0.405573 -0.708128 -0.006499
-0.853344 0.094542 -0.439733
-0.419830 0.109694 -0.845397
0.430646 -0.743446 0.012141
-0.010032 -0.311167 -0.870526
-0.003679 0.519041 -0.808744
0.004159 -0.733224 -0.400407
0.399969 -0.297330 -0.408220
0.855261 -0.319858 -0.000832
-0.404928 -0.277015 0.393579
-0.011262 -0.312619 -0.870404
-0.010172 -0.310994 -0.867093
0.431377 -0.745131 0.014617
-0.004427 0.520618 -0.808143
0.389684 0.097019 -0.825388
0.387232 0.097760 -0.825851
-0.002509 0.517139 -0.807248
0.002092 -0.733196 -0.401172
-0.404657 -0.299007 -0.427058
0.001758 -0.732866 -0.401240
0.408885 0.120925 0.841529
-0.002614 -0.723930 0.425274
-0.006032 -0.305039 0.823479
0.431363 -0.744755 0.012982
0.388338 0.095408 -0.825530
0.852671 0.089059 -0.424181
-0.828417 -0.302688 -0.016675
0.388075 0.095801 -0.825727
-0.419913 0.109595 -0.844955
-0.830044 -0.304120 -0.016899
-0.007187 -0.308388 0.823126
0.387786 0.095286 -0.824374
0.854983 0.092010 -0.422257
0.431078 -0.746701 0.011922
-0.829013 -0.303493 -0.015241
-0.407398 -0.301557 -0.426313
-0.003821 0.539533 0.841275
-0.006911 -0.305376 0.823249
-0.862149 0.088893 0.432096
-0.829635 -0.303088 -0.016047
0.388116 0.094093 -0.824982
0.399221 -0.298641 -0.408767
-0.421861 0.477591 -0.405016
0.854351 -0.316768 -0.000154
0.833330 0.094291 0.409709
0.426360 -0.323985 0.416222
-0.421762 0.478672 -0.403646
0.389085 0.095956 -0.824986
-0.405936 -0.278619 0.390226
-0.846853 0.486063 0.005250
0.025650 0.526111 -0.000074
-0.403970 0.101775 0.835268
0.433300 0.508565 -0.401452
0.410129 0.122436 0.842056
-0.002037 -0.723178 0.425565
-0.854964 0.095134 -0.440759
-0.418635 0.108874 -0.843857
0.001526 -0.731483 -0.401498
0.401310 -0.298581 -0.406800
-0.406012 -0.710550 -0.006139
0.398760 -0.299186 -0.409311
-0.421795 0.107620 -0.845138
-0.860600 0.089795 0.431413
0.424452 0.500526 0.411722
0.834764 0.092370 0.410641
0.435928 0.507755 -0.401438
-0.403756 -0.299907 -0.426646
0.853926 -0.317523 -0.000583
-0.407421 -0.709433 -0.006894
-0.422593 0.479617 -0.405377
-0.007870 -0.305728 0.823620
0.411431 0.123830 0.841488
0.837246 0.094166 0.410881
-0.004153 -0.726010 0.426747
-0.418928 0.109322 -0.844498
-0.004300 0.518388 -0.807997
-0.405210 -0.277657 0.392236
-0.407336 -0.709411 -0.006677
-0.001671 0.537426 0.841821
-0.009211 -0.306166 0.823222
0.004246 -0.733478 -0.402118
0.425383 0.500840 0.410542
-0.010202 -0.313020 -0.868700
0.835234 0.093118 0.409995
-0.423196 0.477626 -0.405165
-0.406803 -0.708927 -0.005877
0.408823 0.122290 0.840313
0.424163 0.500431 0.409786
0.399367 -0.300311 -0.407849
0.400448 -0.297506 -0.407090
-0.007712 -0.304600 0.821509
-0.405461 -0.278856 0.392499
0.424247 0.501077 0.411408
-0.422398 0.478599 -0.404560
-0.404065 -0.277936 0.392317
-0.408843 -0.711267 -0.006626
-0.001839 0.539659 0.842618
-0.429227 0.508284 0.433951
-0.001461 0.537833 0.843334
0.423975 0.501850 0.410838
0.388712 0.097129 -0.825547
0.410440 0.122531 0.842124
0.853647 -0.316508 -0.001204
0.433255 0.508196 -0.403064
-0.853825 0.095046 -0.442648
-0.002230 0.538479 0.842484
0.432820 0.508895 -0.399832
0.023144 0.526126 0.000550
0.826417 0.487321 -0.009796
0.426459 -0.326312 0.418399
0.426186 -0.327272 0.418601
0.391484 0.096646 -0.822654
-0.429498 0.507905 0.436607
0.022934 0.525403 0.002675
0.390017 0.096968 -0.827765
-0.831634 -0.302069 -0.017373
-0.863152 0.089430 0.431040
0.002399 -0.733372 -0.400350
0.834312 0.094078 0.412248
0.388019 0.095864 -0.824670
0.854038 -0.316349 -0.001802
0.022626 0.525196 -0.000441
0.430210 -0.745393 0.013468
0.431922 -0.745446 0.011346
0.852600 0.090369 -0.424722
-0.422246 0.476850 -0.403858
-0.007716 -0.303345 0.822581
-0.423168 0.476533 -0.405847
0.827199 0.489127 -0.010859
-0.007690 -0.306220 0.823403
0.398654 -0.298376 -0.407093
0.854583 -0.317435 -0.000509
-0.404522 -0.277187 0.391525
0.433278 0.508104 -0.400986
0.855651 -0.316153 -0.001985
0.432357 -0.744381 0.012386
0.432667 -0.745145 0.010921
-0.429320 0.509986 0.435625
-0.003444 0.517939 -0.808540
0.399243 -0.298662 -0.408204
-0.000678 -0.725216 0.425102
0.426325 -0.325622 0.419252
-0.862482 0.087140 0.430896
0.003934 -0.732236 -0.400532
-0.001253 0.520029 -0.808754
-0.407072 -0.299824 -0.424590
0.397706 -0.299067 -0.408081
-0.010160 -0.310723 -0.870181
-0.008178 -0.305749 0.823598
-0.405990 -0.300182 -0.428041
-0.428458 0.510850 0.434700
-0.002668 0.537335 0.843678
-0.002576 0.538364 0.843648
0.851823 0.092767 -0.422839
-0.010116 -0.312392 -0.869892
-0.008714 -0.306981 0.823572
-0.861553 0.089373 0.432302
-0.429919 0.510527 0.434961
