OFF
256 0 0
-0.683635 0.683358 -0.230243
0.237523 0.665193 0.637671
-0.687145 -0.685512 0.212493
-0.651441 0.200231 0.206608
-0.687381 -0.682535 0.213028
-0.206623 -0.240112 -0.669662
-0.256879 -0.660394 0.632671
0.690128 -0.663735 -0.217200
0.680824 0.690375 0.231929
0.238230 0.664837 0.638440
0.666850 0.221237 -0.207613
-0.208779 0.217867 0.671900
0.236672 0.665662 0.638557
0.222960 0.217587 -0.643149
0.227253 -0.227651 0.655573
-0.686004 0.228406 -0.659608
0.664122 -0.190813 0.205209
-0.685094 0.225891 -0.658626
0.223657 0.218950 -0.642911
-0.652121 0.199970 0.205397
-0.228305 0.664619 0.219374
0.209221 0.663843 -0.185320
0.210834 0.664140 -0.185427
-0.652341 0.199878 0.203522
0.228824 -0.643387 0.208203
0.667281 0.220930 -0.207935
-0.686611 0.683801 -0.230655
-0.239035 -0.706014 -0.222539
-0.685404 0.228501 -0.659927
-0.206989 0.217620 0.675140
-0.701760 -0.244750 0.668490
0.665283 0.220205 -0.207153
0.673300 -0.197881 -0.677151
-0.685847 0.227348 -0.658416
-0.702310 -0.244748 0.669892
-0.667166 -0.246727 -0.204221
-0.686535 0.683605 -0.231085
-0.668104 -0.247146 -0.202912
0.689281 -0.664667 -0.217652
-0.702195 -0.242295 0.669485
0.663623 -0.193725 0.203382
0.209572 0.663327 -0.186891
-0.666867 -0.245992 -0.203298
-0.210223 0.678017 -0.649175
-0.686952 -0.683365 0.213568
0.667035 0.220746 -0.210875
0.236822 0.664234 0.639132
0.211417 0.663593 -0.187470
-0.651835 0.199464 0.205442
-0.210174 0.678580 -0.651209
0.222344 0.216952 -0.643791
-0.685956 0.681524 -0.230652
-0.211579 0.679162 -0.651337
0.208240 0.663383 -0.187039
-0.701670 -0.242376 0.668773
0.210507 0.663148 -0.186821
-0.206618 0.216791 0.673162
-0.689103 -0.682661 0.212799
-0.704068 -0.243675 0.667507
0.691256 0.227965 0.671812
0.236863 0.666376 0.638239
0.209969 0.664386 -0.186920
-0.703265 -0.243226 0.669262
-0.689544 -0.683802 0.213882
0.693215 0.229252 0.672284
-0.210961 0.682515 -0.651307
0.687771 -0.662756 -0.217203
-0.256826 -0.659847 0.631953
-0.256957 -0.660771 0.631748
0.693984 0.228012 0.672499
0.674266 -0.196428 -0.676220
0.239455 -0.657180 -0.655875
0.222223 0.218445 -0.642952
0.671525 -0.195996 -0.678670
-0.257339 -0.660628 0.631712
0.225432 -0.642910 0.209222
0.226009 -0.224224 0.653747
-0.230015 0.666683 0.218297
0.666577 0.220006 -0.208105
-0.238599 -0.707152 -0.219916
0.226907 -0.225763 0.656540
-0.257489 -0.661096 0.633076
-0.257801 -0.660730 0.629005
-0.685761 0.682559 -0.229475
0.690074 -0.666033 -0.217225
-0.684911 0.228316 -0.661166
-0.207775 0.219041 0.673815
0.673498 -0.195138 -0.678929
-0.653075 0.200047 0.206226
0.681581 0.689502 0.231969
-0.206583 -0.239873 -0.671599
0.223090 0.218902 -0.642084
-0.210492 0.680173 -0.649508
0.209838 0.661950 -0.185065
-0.685809 -0.685549 0.214533
-0.652236 0.200184 0.205108
-0.229225 0.667216 0.219941
0.672999 -0.196086 -0.677747
0.227795 -0.225788 0.656552
0.209132 0.664117 -0.187722
-0.667338 -0.245997 -0.203087
0.239188 -0.656173 -0.654725
0.209136 0.663426 -0.187406
0.665222 0.218240 -0.208309
0.664072 -0.192528 0.205381
0.209785 0.666090 -0.186258
-0.230709 0.666539 0.218075
-0.650582 0.200545 0.206398
-0.207986 0.217860 0.673642
0.223180 0.218245 -0.642531
0.691070 -0.664253 -0.219142
0.210286 0.664359 -0.187022
-0.208475 0.216447 0.674485
-0.205829 -0.243723 -0.670271
0.210793 0.663414 -0.186330
-0.238832 -0.706316 -0.221391
-0.256939 -0.659653 0.633818
0.689110 -0.663808 -0.217492
-0.704089 -0.242519 0.668733
-0.258191 -0.661155 0.633154
0.228536 -0.638853 0.207604
-0.239643 -0.709786 -0.221290
-0.229349 0.666044 0.219044
-0.685453 0.681715 -0.231103
-0.208631 0.218484 0.672592
0.228760 -0.641890 0.208959
-0.667645 -0.246935 -0.202332
-0.205528 0.217505 0.672724
0.691796 0.229600 0.671345
-0.207181 0.217442 0.672427
-0.254560 -0.660806 0.632321
-0.683043 0.228688 -0.660050
-0.651337 0.199285 0.205387
-0.650788 0.200156 0.204766
-0.685303 0.682985 -0.230025
0.674190 -0.196511 -0.677361
0.227020 -0.642632 0.210052
-0.685325 0.226822 -0.660481
-0.239430 -0.706468 -0.223661
0.208267 0.665174 -0.186129
0.690924 0.227124 0.669469
-0.687713 -0.683661 0.212614
-0.666190 -0.244794 -0.204301
0.687931 -0.663722 -0.218283
-0.687612 -0.684393 0.214762
0.221992 0.219893 -0.643020
0.684355 0.690458 0.229988
0.236969 -0.657934 -0.652814
0.690704 0.227926 0.672509
-0.206850 -0.241075 -0.670239
0.674229 -0.197665 -0.678871
0.692667 0.228304 0.670107
-0.228571 0.665423 0.218256
0.210130 0.665246 -0.185566
-0.667606 -0.245387 -0.203165
-0.667548 -0.247779 -0.202517
0.227807 -0.643868 0.211286
-0.238773 -0.705036 -0.219681
-0.256809 -0.660185 0.633391
-0.701926 -0.243188 0.668012
0.690167 -0.664779 -0.216487
0.663931 -0.191605 0.204621
-0.652340 0.199053 0.204561
-0.685896 0.684373 -0.232053
-0.686121 0.229121 -0.659636
0.225801 -0.641089 0.210255
0.666511 0.219078 -0.208585
-0.688849 -0.685205 0.213483
0.227242 -0.640764 0.209756
0.209206 0.666202 -0.185726
0.661049 -0.191497 0.205480
-0.703502 -0.244759 0.669498
-0.229176 0.664333 0.219158
0.239408 -0.657544 -0.655954
0.666598 0.220747 -0.207099
0.666866 0.222180 -0.208063
0.666794 0.220569 -0.208205
0.226676 -0.224081 0.655529
-0.684296 0.682812 -0.229638
0.238278 0.664404 0.638522
-0.240082 -0.705441 -0.221669
0.226321 -0.223862 0.655047
-0.230807 0.667131 0.219725
-0.257970 -0.661604 0.632112
0.662607 -0.192892 0.203516
0.210106 0.663615 -0.184854
-0.231011 0.667723 0.219974
-0.206665 -0.242286 -0.672440
0.208414 0.664019 -0.186578
0.239378 -0.657176 -0.654430
0.674209 -0.197614 -0.677685
0.228946 -0.639903 0.209414
-0.703184 -0.244883 0.670586
0.673779 -0.194627 -0.678546
-0.667292 -0.245856 -0.203248
0.672267 -0.194118 -0.676827
0.662909 -0.192955 0.204059
0.226938 -0.640780 0.209811
0.223436 0.217839 -0.643722
-0.666325 -0.246371 -0.203979
-0.237433 -0.705436 -0.221044
-0.207972 0.217137 0.672706
0.236214 0.664555 0.640719
0.228546 -0.225467 0.656270
0.665080 0.218843 -0.209370
-0.211331 0.679650 -0.648905
0.226894 -0.227413 0.658382
-0.258230 -0.661660 0.632487
0.236849 0.665440 0.637342
0.236472 0.662848 0.639588
-0.212713 0.678374 -0.651671
0.689245 -0.664274 -0.216396
0.208803 0.665455 -0.186968
0.238384 -0.659392 -0.653908
-0.685120 0.228944 -0.659964
-0.211539 0.679471 -0.652931
0.224944 -0.641288 0.209914
0.236373 0.666971 0.639995
-0.206527 -0.243228 -0.668475
-0.667571 -0.245848 -0.204448
-0.207877 0.217471 0.673309
-0.650463 0.202263 0.205459
-0.206626 0.217938 0.675031
-0.701654 -0.242965 0.669575
0.663328 0.218420 -0.209291
-0.204851 -0.241843 -0.670449
-0.702882 -0.244234 0.670326
-0.683376 0.226192 -0.660477
0.680200 0.691708 0.230849
-0.203735 -0.242715 -0.671951
-0.652643 0.200080 0.205440
-0.206965 -0.241892 -0.668807
-0.667441 -0.248081 -0.202187
0.208858 0.663271 -0.185661
0.689526 -0.664732 -0.216754
-0.258041 -0.659521 0.632979
0.673403 -0.195885 -0.677588
-0.701812 -0.243751 0.667702
-0.257721 -0.659253 0.630951
0.228553 -0.641821 0.209991
-0.684460 0.228427 -0.660673
0.210916 0.663509 -0.186072
0.223864 0.217563 -0.642951
-0.666410 -0.246685 -0.203711
-0.229377 0.665491 0.217373
-0.259911 -0.660750 0.631649
0.229172 -0.643492 0.208303
0.210519 0.663282 -0.185361
-0.667031 -0.247967 -0.203781
-0.652687 0.201186 0.204571
0.689706 -0.664363 -0.217221
0.663418 -0.193758 0.205331
-0.649243 0.199711 0.206323
0.690806 -0.663695 -0.219621
0.226411 -0.226501 0.654844
0.663275 -0.191403 0.205286
