OFF
256 0 0
-0.240191 0.633894 0.198977
0.227495 0.626570 -0.190104
0.667425 0.207006 -0.239389
-0.652383 -0.643479 0.197717
0.666936 0.204208 -0.239368
0.673744 0.239860 0.697883
0.221133 0.222290 -0.643938
-0.652334 -0.642117 0.194693
0.647083 -0.242952 -0.686051
0.666124 0.207658 -0.241439
0.650316 -0.198881 0.224018
-0.688415 0.653550 -0.201895
0.649372 -0.199049 0.226253
-0.676426 0.218637 -0.664791
0.674592 0.239726 0.699662
0.225345 0.627082 -0.189319
0.646335 -0.244333 -0.684473
0.226511 -0.655904 -0.668784
-0.216801 -0.229752 -0.659505
-0.219416 0.247939 0.682275
0.225236 0.625642 -0.187187
-0.215911 -0.652939 -0.215069
0.222830 0.221360 -0.641919
0.249755 0.681083 0.672217
0.226424 -0.656936 -0.667363
-0.650082 -0.643663 0.198063
-0.685687 0.653075 -0.202391
0.224369 -0.657300 -0.666169
0.222935 0.626701 -0.190342
0.223341 0.221055 -0.642372
0.226242 0.626826 -0.189852
-0.660301 -0.245370 0.635481
0.214364 -0.666756 0.209847
0.668059 -0.669194 -0.231279
0.672242 0.671201 0.232003
-0.687436 0.653933 -0.202550
-0.653144 -0.640403 0.196502
0.221179 0.220839 -0.642159
0.222150 0.223589 -0.643175
0.665887 0.206192 -0.240590
0.668378 -0.667584 -0.232224
0.224773 0.626013 -0.189599
-0.664812 0.201602 0.234359
-0.676956 0.218691 -0.664688
0.225024 0.628096 -0.189706
0.664104 0.205514 -0.239018
-0.215023 0.646139 -0.647158
0.670354 0.670894 0.233012
-0.685433 -0.212350 -0.235984
0.674729 0.239325 0.697568
-0.687666 0.654784 -0.203984
-0.664751 0.198498 0.233803
0.225175 -0.657363 -0.665687
-0.238928 0.634500 0.201079
-0.237584 0.634974 0.200584
-0.216724 0.646044 -0.649091
0.225921 0.625249 -0.189022
0.213201 -0.186353 0.647442
-0.216145 -0.228686 -0.662853
0.647590 -0.198029 0.225451
-0.659163 -0.244767 0.634176
0.211307 -0.188426 0.645840
-0.653102 -0.644431 0.195624
-0.675870 0.219145 -0.664884
0.667295 0.206763 -0.239333
-0.215590 -0.652057 -0.217479
-0.652648 -0.642693 0.197495
-0.215481 -0.230597 -0.661139
-0.213749 -0.651879 -0.216857
-0.665242 0.199462 0.232698
-0.689066 0.653300 -0.202447
-0.239990 0.633853 0.199333
0.649135 -0.197494 0.226012
-0.195882 -0.648470 0.659067
-0.654216 -0.643277 0.196243
0.213667 -0.668701 0.206730
-0.239845 0.632861 0.198407
-0.659675 -0.247035 0.634097
0.249188 0.678766 0.675308
0.214660 -0.668374 0.207602
-0.659895 -0.246930 0.634767
-0.216233 -0.228453 -0.661298
-0.238256 0.636732 0.199727
0.667009 0.205826 -0.240288
0.675370 0.240453 0.696015
-0.686305 0.653445 -0.201360
0.675183 0.239542 0.698568
-0.684175 -0.212462 -0.236980
-0.217998 -0.230123 -0.660946
0.665842 0.207925 -0.239641
0.226254 -0.657845 -0.666699
-0.215169 -0.652668 -0.216043
-0.211957 -0.653676 -0.215837
-0.218263 0.248089 0.682030
-0.215912 0.645709 -0.648115
-0.663511 0.200308 0.235502
0.212498 -0.185489 0.648513
0.250992 0.681225 0.675404
-0.688378 0.652497 -0.204032
0.667802 -0.667659 -0.230516
0.666686 -0.665667 -0.232792
-0.215710 0.644789 -0.648507
0.223804 0.222543 -0.643141
-0.219586 -0.230686 -0.659181
0.668189 0.206366 -0.239556
0.212947 -0.668117 0.208083
-0.213946 -0.651559 -0.217122
0.669873 0.672264 0.231586
0.225181 -0.656649 -0.667879
0.669198 0.671940 0.231509
0.214262 -0.666822 0.209130
-0.215157 -0.653093 -0.217015
0.214001 -0.667831 0.207061
-0.196949 -0.645782 0.657344
-0.215079 -0.227841 -0.659177
-0.215531 -0.228522 -0.659604
-0.214753 -0.229056 -0.660153
-0.214985 0.644860 -0.648150
-0.684990 -0.211741 -0.236670
-0.684024 -0.210909 -0.237640
0.226150 -0.656240 -0.667518
-0.657745 -0.243925 0.634335
-0.217765 0.642914 -0.648363
0.251495 0.679275 0.676019
-0.239149 0.634739 0.199515
0.213038 -0.186737 0.647717
0.646666 -0.246211 -0.684966
-0.215781 -0.228195 -0.660057
-0.216666 0.644190 -0.648341
0.669888 0.672605 0.230167
-0.675514 0.219209 -0.665793
0.251052 0.680312 0.673924
0.649593 -0.197286 0.225324
0.666032 -0.667776 -0.231881
0.646932 -0.244821 -0.686801
-0.687039 -0.212943 -0.236512
0.667280 0.205109 -0.239184
-0.657919 -0.246378 0.634426
-0.218215 0.249382 0.682173
0.649407 -0.197017 0.225312
-0.666232 0.199110 0.233235
-0.664798 0.198106 0.234439
0.226025 0.626614 -0.191227
-0.216686 -0.229355 -0.660874
0.250476 0.680205 0.672000
0.671775 0.670278 0.232169
0.226292 -0.655315 -0.666180
-0.215740 0.644847 -0.650127
0.221124 0.222303 -0.643003
0.226403 0.627369 -0.190114
-0.664702 0.199825 0.234405
0.224962 0.626590 -0.190667
0.666709 -0.665595 -0.233245
0.673321 0.238515 0.698275
0.226371 -0.654262 -0.668090
0.645791 -0.245291 -0.686323
-0.686820 0.654728 -0.203589
0.251833 0.679837 0.674353
0.666071 0.207235 -0.238807
-0.217574 0.251143 0.683490
-0.217581 -0.228849 -0.658824
-0.196790 -0.648355 0.657429
-0.239623 0.631446 0.198605
0.666955 -0.667722 -0.231361
-0.686700 0.654216 -0.202158
-0.218899 0.250703 0.681855
0.666088 0.206726 -0.239711
-0.663367 -0.245429 0.633102
0.649108 -0.244311 -0.685179
-0.688703 0.652820 -0.203465
0.669547 0.669972 0.231408
0.646164 -0.244998 -0.687365
-0.660658 -0.246992 0.636382
-0.215505 -0.651595 -0.216560
0.670177 0.671519 0.231205
-0.218149 0.250669 0.681967
-0.687374 0.654042 -0.204049
-0.652657 -0.642955 0.196311
0.673714 0.237838 0.698939
0.249885 0.681022 0.674306
0.671077 0.673088 0.230947
-0.216078 0.645024 -0.648961
-0.661151 -0.246017 0.635803
0.213116 -0.668646 0.207790
0.251191 0.679099 0.675117
-0.215900 0.647189 -0.649924
-0.658294 -0.247378 0.635184
-0.218042 -0.229364 -0.657910
0.226374 -0.658010 -0.666233
-0.653609 -0.644361 0.196931
-0.665078 0.200055 0.232393
0.666998 0.206458 -0.239862
-0.684866 -0.212522 -0.237067
-0.685266 -0.210785 -0.237675
-0.666333 0.200316 0.233026
-0.197713 -0.645935 0.658514
0.223340 0.222843 -0.642975
-0.217905 -0.227656 -0.660167
-0.215136 0.645290 -0.647202
0.667994 0.672158 0.231673
0.213143 -0.666704 0.207456
-0.651431 -0.642649 0.196472
0.226055 0.626480 -0.189636
-0.683277 -0.209948 -0.235154
-0.197292 -0.648220 0.659811
-0.683243 -0.212383 -0.237320
0.225388 0.627224 -0.191102
0.676820 0.240369 0.697414
-0.213879 -0.651904 -0.217311
-0.664366 0.199701 0.233631
-0.214967 -0.652158 -0.216380
-0.665108 0.199771 0.232965
0.224899 0.626922 -0.191970
0.250709 0.679367 0.673169
-0.652504 -0.642106 0.195360
0.221916 0.222554 -0.643980
0.665841 0.208002 -0.238864
-0.686239 0.653302 -0.203672
-0.218768 0.250441 0.682933
-0.654186 -0.642405 0.198188
0.666839 0.206483 -0.237283
0.225421 0.626854 -0.189790
0.648115 -0.246645 -0.687234
0.225865 0.626684 -0.189388
0.649865 -0.196462 0.224373
-0.688639 0.653509 -0.203513
0.667973 0.206282 -0.237497
-0.215445 -0.227912 -0.659489
0.667935 -0.667572 -0.232181
-0.651887 -0.642481 0.196047
-0.653176 -0.644772 0.194281
0.650087 -0.197896 0.225749
0.670079 0.671388 0.232947
0.214686 -0.668360 0.208634
0.647928 -0.197151 0.225602
0.666918 0.206227 -0.239214
-0.197582 -0.643529 0.660800
-0.219043 -0.228482 -0.658951
-0.217198 0.643314 -0.648362
0.220772 0.221944 -0.641827
0.649970 -0.198419 0.224740
0.225901 0.627713 -0.191467
0.224842 -0.655530 -0.666454
0.211766 -0.183985 0.647286
-0.677159 0.219614 -0.664716
-0.676945 0.221884 -0.663968
0.649998 -0.199043 0.225195
-0.684318 -0.213071 -0.238972
0.226302 0.626350 -0.190026
-0.238287 0.634260 0.200496
0.222190 0.221094 -0.644194
-0.663964 0.201589 0.234116
-0.215152 0.642815 -0.650548
0.225463 0.627011 -0.191594
-0.217299 0.250061 0.683023
-0.196305 -0.645755 0.658858
