OFF
256 0 0
0.421029 0.112871 0.724163
0.421078 0.532721 -0.532071
-0.418485 -0.307155 0.306951
0.839363 0.112983 0.304913
0.000240 -0.304706 0.724218
-0.419569 -0.725293 -0.110884
-0.420783 -0.305532 0.303813
0.001231 -0.725882 -0.531372
-0.838568 0.532384 -0.111894
-0.419463 -0.306589 0.306440
0.419010 -0.726807 -0.111675
-0.000210 0.111829 -0.532882
-0.419142 -0.308820 0.305190
0.000639 0.532352 0.726402
-0.840033 0.115342 0.307871
0.420737 0.531366 -0.532238
0.418502 -0.724931 -0.113466
-0.000073 0.111699 -0.529112
0.420263 -0.724472 -0.111106
-0.000953 -0.306429 0.725509
-0.000766 0.531607 -0.112791
-0.837767 0.113251 -0.533115
0.418543 0.114050 0.724349
0.840098 -0.306071 -0.113237
0.419682 -0.306015 -0.531726
-0.000466 -0.723144 -0.534072
0.839778 0.534123 -0.112743
-0.837823 0.532063 -0.113416
0.418905 0.530716 -0.531703
-0.000305 -0.724758 -0.532724
0.000748 -0.305757 0.726687
-0.001165 -0.725225 -0.533089
0.000860 -0.725723 -0.531549
-0.000355 -0.726387 -0.531163
-0.000836 0.530991 0.725314
0.838210 0.533310 -0.112435
-0.420162 0.531949 0.306341
-0.418801 -0.726597 -0.113503
0.839769 0.113164 0.306206
-0.418675 0.532911 -0.532261
-0.000991 -0.307806 0.726099
0.420173 0.531298 -0.532038
-0.839765 0.113723 0.308268
0.001219 -0.724808 -0.532081
-0.000209 -0.725872 -0.531969
-0.838749 0.111096 0.304529
0.420797 0.532510 -0.531429
-0.419241 0.113561 0.725934
-0.422635 -0.305778 -0.530539
-0.001149 0.113702 -0.532678
0.836480 0.530167 -0.112959
-0.419315 0.531697 -0.530350
0.419948 -0.725341 -0.112770
0.418140 0.531892 -0.532904
-0.000049 0.114335 -0.531176
0.002173 0.113991 -0.533188
-0.838738 0.112251 0.306590
-0.420135 -0.305562 -0.532793
0.419757 0.531175 0.307030
0.839884 -0.306252 -0.113990
-0.419402 0.531502 -0.532893
0.420583 0.113060 0.726267
0.000018 -0.728131 0.304438
-0.839870 0.112661 0.307749
0.838959 0.530916 -0.114561
-0.419709 -0.306161 -0.531642
-0.421772 0.113031 0.725920
-0.419946 0.114662 0.726300
-0.419043 0.113987 0.725863
0.838334 0.533976 -0.110573
0.000063 -0.727260 0.307309
0.838392 0.111271 -0.531465
0.839967 0.114032 0.306025
-0.000184 -0.724389 -0.531909
0.420354 0.534367 0.305375
0.419334 0.533233 0.306818
0.001087 0.112739 -0.533157
0.000963 0.113522 -0.532981
0.001778 -0.725975 -0.531507
-0.418128 0.113186 0.726952
0.418623 0.112067 0.724923
-0.417831 -0.305489 -0.533320
0.000352 -0.725232 0.304514
-0.838315 -0.308253 -0.114389
0.420537 0.530243 0.305053
-0.418859 0.531282 0.306118
0.000265 0.112967 -0.531576
0.838404 0.532971 -0.113281
-0.002073 -0.725490 -0.532111
-0.838189 -0.305992 -0.114636
0.000256 -0.306316 0.727002
-0.839305 0.530608 -0.111629
0.000705 0.532573 0.726563
0.420519 -0.726161 -0.111392
-0.419967 0.113574 0.727383
-0.420549 -0.306953 -0.533166
0.839462 -0.305673 -0.112107
-0.838232 0.110801 -0.530277
0.838507 0.113096 -0.531203
-0.420040 0.533744 0.306222
-0.420180 0.533245 -0.532559
0.841651 -0.306044 -0.111699
0.417841 0.113116 0.723249
-0.419015 0.532605 -0.532203
-0.419202 -0.306466 0.307316
-0.838845 -0.306124 -0.113474
-0.000868 -0.727672 0.306449
-0.419902 0.531898 0.306502
0.418545 0.112044 0.727316
-0.000507 0.112724 -0.532610
0.419284 0.530591 0.307465
-0.419204 0.531741 -0.533507
0.000892 -0.726558 -0.533727
0.419683 -0.725402 -0.113798
0.000989 0.532719 0.725582
-0.838316 0.532228 -0.112779
-0.000167 0.532911 -0.112712
-0.420362 0.531563 -0.535109
0.838461 0.112049 0.305511
-0.840484 0.112587 0.306634
0.420467 0.532009 -0.532435
-0.838830 0.112489 -0.532148
-0.418468 -0.305766 -0.532483
-0.838442 0.114725 -0.533120
-0.838971 0.114322 -0.532995
0.000355 0.534147 0.725645
-0.836937 -0.305253 -0.111518
0.000272 -0.725866 0.306662
0.419194 -0.306346 0.306636
0.001829 0.532074 0.724026
0.001798 0.533008 0.725532
-0.838751 0.114762 -0.530948
0.840377 0.112858 0.307701
0.417800 -0.306049 -0.530330
-0.838043 0.112562 -0.531371
-0.418861 -0.306145 -0.531040
-0.420287 -0.304217 0.305527
-0.837972 0.113063 0.307013
0.420804 -0.725901 -0.114523
-0.000390 -0.724660 -0.532954
0.419762 0.114531 0.725050
-0.419265 -0.307991 -0.530832
0.840719 0.534352 -0.113366
0.838595 0.111858 -0.532962
-0.418866 0.531818 0.307019
-0.001692 -0.307249 0.725833
-0.840004 0.532672 -0.112900
-0.419428 -0.306810 0.308760
-0.417978 0.113494 0.724538
0.838284 0.532106 -0.112312
-0.840133 -0.305502 -0.113312
-0.420177 -0.726515 -0.113986
0.838720 0.114575 0.306004
-0.000218 0.532904 -0.113935
0.839750 -0.307192 -0.112926
0.001978 0.530602 0.727299
0.417955 -0.308238 -0.532426
0.419456 0.531371 0.304366
-0.418564 0.531617 -0.532869
-0.421037 0.532292 0.306469
0.419089 0.113271 0.726046
-0.838715 0.112693 -0.532441
0.418786 -0.305256 0.308296
-0.836936 0.531938 -0.112570
-0.838714 0.112830 0.306993
-0.418534 0.533391 0.306249
0.419611 0.530267 -0.532813
-0.000894 -0.727329 -0.532195
0.839305 0.113199 0.308367
-0.001267 0.533500 0.725744
-0.419548 -0.304995 0.307316
0.837478 0.532641 -0.113212
0.840108 -0.306132 -0.111812
0.839166 -0.305803 -0.113361
0.838646 0.111483 -0.532470
0.841066 -0.307279 -0.113630
-0.419647 -0.306582 0.308230
-0.000397 -0.725560 0.306912
-0.419506 -0.305039 0.306097
-0.418950 -0.306727 0.307278
0.839482 0.532720 -0.112339
0.418054 0.532852 0.306044
0.838782 0.112989 0.306827
-0.838254 0.112159 -0.531052
-0.419993 0.531369 0.304686
-0.418619 -0.728114 -0.112296
-0.839327 0.113372 0.307048
0.000030 -0.726525 0.306170
-0.000196 0.533116 -0.112873
0.837399 0.112221 -0.531950
-0.839009 0.533535 -0.113456
0.417962 0.532545 -0.532571
0.839677 0.112127 0.306785
0.001088 0.533019 0.726576
0.418142 -0.725173 -0.113920
0.836547 0.112620 -0.531402
-0.000155 -0.726159 -0.532459
0.000986 0.531137 -0.113260
0.000047 0.531992 -0.113549
-0.420931 -0.306239 0.306062
0.419294 0.533340 -0.529500
0.001692 0.532784 -0.112565
0.000677 0.111984 -0.531943
0.839052 -0.305433 -0.111423
0.419936 -0.306709 -0.532058
0.418332 0.532530 -0.532550
0.838277 0.112199 -0.533154
-0.000184 -0.306287 0.726421
0.420060 0.111739 0.726557
-0.837281 0.534094 -0.113090
0.419383 0.111396 0.726732
0.839142 0.112538 -0.532797
-0.420772 0.531773 0.306329
-0.419198 0.111626 0.725193
-0.839150 0.113639 0.306503
0.418280 -0.725780 -0.111519
-0.001569 -0.727322 0.306334
-0.839335 0.110609 -0.533487
0.420914 0.532099 0.305176
-0.000932 0.533063 -0.115471
-0.842058 0.113350 -0.531748
-0.837044 0.113628 0.306369
0.421377 0.531164 -0.531802
-0.418333 -0.726696 -0.113776
-0.418684 0.113658 0.726517
0.419334 -0.307164 0.306068
-0.839176 0.532231 -0.112770
-0.000379 -0.306294 0.725233
0.419465 0.532863 -0.533148
-0.839209 0.112062 0.304704
0.420466 0.532633 0.306934
0.839915 0.111990 -0.534869
0.419871 -0.726844 -0.112611
-0.840032 -0.306338 -0.114293
-0.837794 0.532334 -0.113111
0.000182 -0.725955 0.304731
-0.417938 0.531633 -0.531858
0.417996 -0.306232 0.307783
0.839920 0.113049 0.308265
0.001350 0.532846 0.726370
-0.420429 0.113428 0.727692
0.419741 -0.306326 -0.532757
-0.001134 -0.727384 -0.533439
-0.839005 -0.306734 -0.112696
0.420531 -0.304897 -0.533966
0.419940 -0.727378 -0.113084
0.420312 0.531080 0.305459
-0.419726 0.112254 0.726121
-0.000442 0.534618 0.725553
0.837494 0.529982 -0.112400
-0.839649 0.531655 -0.112975
-0.418402 0.531382 -0.532033
-0.838580 0.112997 0.305992
-0.000658 0.113886 -0.534005
0.418566 0.113541 0.726315
-0.002534 -0.725783 -0.531798
