OFF
256 0 0
0.013519 -0.295948 0.712279
0.405931 -0.274609 -0.499992
-0.835608 0.526493 -0.113444
0.015175 -0.292403 0.713175
-0.391524 0.123367 0.719584
-0.387919 -0.276556 0.294830
0.008296 0.525742 0.712462
-0.370085 0.529971 0.308200
-0.818777 0.137316 0.289887
-0.370864 0.531224 0.303957
0.842133 0.126528 0.302228
-0.818085 0.138802 0.290655
0.839288 0.107721 -0.533771
-0.373100 0.530088 0.305816
0.014910 -0.293524 0.712789
0.424252 -0.276805 0.280353
0.403109 -0.700739 -0.093675
-0.372251 0.531037 0.306665
0.405612 -0.276035 -0.501392
0.402511 -0.700170 -0.094206
-0.372228 0.531017 0.307160
-0.835871 0.524893 -0.113300
-0.371713 0.530939 0.305826
0.410414 0.123713 0.704012
0.837961 0.107278 -0.532679
0.838960 0.106585 -0.533164
0.815234 0.511036 -0.109087
0.387298 0.480756 -0.513167
0.405895 -0.275485 -0.500007
-0.844072 0.096807 -0.517951
0.840821 0.127566 0.302540
-0.819738 -0.278624 -0.128656
0.425743 -0.276789 0.279520
-0.371684 0.531882 0.307251
0.408678 0.124524 0.701904
0.013451 -0.294655 0.712284
-0.422189 0.523309 -0.501778
-0.844032 0.095735 -0.517593
0.423443 -0.274237 0.281037
-0.386559 -0.275408 0.295125
0.411204 0.123427 0.703144
0.404973 -0.274765 -0.501750
-0.459696 -0.312220 -0.550133
0.023933 0.461320 -0.093561
-0.025474 0.072162 -0.533721
-0.021774 -0.724312 -0.516501
-0.425572 -0.719571 -0.103791
-0.819143 -0.279638 -0.127307
-0.024216 0.073437 -0.532968
0.410489 0.123183 0.703424
-0.024401 -0.724541 -0.518791
0.402577 0.499830 0.298230
0.006458 -0.715219 0.310595
-0.387569 -0.277084 0.295108
0.425301 -0.275611 0.281433
0.423920 -0.275296 0.280879
0.023590 0.462018 -0.093145
-0.820444 0.139661 0.287686
-0.821346 -0.280111 -0.128699
-0.391933 0.124145 0.719694
-0.424643 -0.721690 -0.104745
0.402018 0.501676 0.298260
0.007745 0.523257 0.714023
-0.820257 -0.275372 -0.128607
-0.420657 0.524809 -0.502743
-0.835854 0.524546 -0.114294
-0.835637 0.525089 -0.113750
0.818016 0.508316 -0.109501
-0.424353 0.522082 -0.500718
0.842671 -0.277184 -0.113072
0.842004 -0.277105 -0.112713
0.402674 0.499394 0.297059
0.005398 -0.715617 0.310318
-0.025219 0.071677 -0.533497
-0.845320 0.096767 -0.516263
0.007461 0.524926 0.713578
-0.023362 -0.723624 -0.515995
-0.816490 0.138566 0.288901
0.409035 0.124511 0.700772
0.402837 0.499786 0.298414
0.843706 -0.276530 -0.112755
0.406995 -0.275301 -0.502062
-0.022336 -0.721612 -0.517763
0.845838 -0.278732 -0.112245
0.842084 0.127218 0.302166
0.404357 -0.276939 -0.499750
0.840075 0.127298 0.302240
0.817935 0.510389 -0.110420
0.839651 0.106839 -0.535671
0.014300 -0.293171 0.711597
0.409846 0.124065 0.703840
0.839106 0.108261 -0.533241
0.842131 0.130905 0.299749
-0.459953 -0.312553 -0.552166
-0.022179 -0.722385 -0.517613
0.814392 0.508201 -0.108708
0.841954 0.128478 0.300428
0.005377 -0.713140 0.309888
-0.386173 -0.277272 0.296200
0.410365 0.125395 0.703589
-0.836147 0.523053 -0.112688
-0.818559 -0.277037 -0.129689
-0.426304 -0.718566 -0.106063
-0.425148 -0.720313 -0.104635
0.841205 0.129003 0.300747
0.014186 -0.291921 0.711547
0.004513 -0.713422 0.308689
0.843278 -0.277422 -0.113566
-0.023077 0.072945 -0.531705
-0.843436 0.096587 -0.517213
-0.817050 0.139704 0.288589
0.008025 0.526043 0.712116
0.006172 0.524878 0.713461
0.014546 -0.293980 0.712089
-0.387851 -0.278210 0.294411
-0.423903 -0.720502 -0.102706
0.839028 0.106080 -0.533840
-0.819485 0.139013 0.290229
0.389693 0.478216 -0.514290
-0.023703 0.071338 -0.532414
0.815680 0.507747 -0.109711
-0.834678 0.526483 -0.114274
-0.820966 -0.276738 -0.129420
-0.845248 0.095793 -0.516824
-0.391505 0.122139 0.718619
0.424194 -0.275761 0.281411
0.843589 -0.277764 -0.112033
0.009080 0.525859 0.713541
0.842867 -0.275752 -0.112296
0.004520 -0.713992 0.308631
-0.391185 0.121922 0.720325
-0.024678 -0.722404 -0.515683
0.838433 0.106826 -0.534390
-0.421933 0.524055 -0.500531
-0.460014 -0.313661 -0.552114
0.406024 -0.275001 -0.501369
-0.460537 -0.311198 -0.552033
0.841821 -0.274914 -0.112525
-0.845231 0.097444 -0.516933
0.844558 -0.276532 -0.112269
-0.021778 -0.724306 -0.516860
0.402756 0.501781 0.297316
0.410573 0.124169 0.703570
-0.821265 -0.276400 -0.129911
-0.387091 -0.278721 0.294189
-0.818889 0.136118 0.290770
-0.842059 0.095369 -0.517224
0.840735 0.129278 0.302077
-0.372148 0.530681 0.305288
-0.821163 -0.279411 -0.128337
0.841877 -0.277852 -0.111686
0.004940 -0.713534 0.308780
-0.021189 -0.724592 -0.518097
-0.843589 0.097831 -0.517308
0.015514 -0.292650 0.710486
-0.024309 -0.723428 -0.516707
0.015657 -0.295017 0.715497
-0.023900 0.072388 -0.534864
-0.843840 0.097852 -0.518810
-0.023702 -0.723899 -0.517101
0.404819 -0.277636 -0.501954
-0.425682 -0.720065 -0.105345
0.841804 0.129451 0.304588
0.013564 -0.293661 0.712695
-0.820573 -0.278403 -0.128267
-0.387300 -0.278116 0.296031
-0.424889 -0.721007 -0.106203
0.006636 0.525801 0.711284
0.405964 -0.274239 -0.502434
-0.390985 0.121708 0.720299
0.837556 0.105946 -0.535318
-0.819184 -0.278517 -0.127838
0.404773 -0.701606 -0.093705
-0.835778 0.523620 -0.115494
0.843749 -0.277297 -0.111096
0.400758 0.502132 0.296659
-0.390877 0.122641 0.720239
0.841061 0.104977 -0.535092
-0.817141 0.138674 0.290440
0.818154 0.511429 -0.107064
-0.421196 0.524055 -0.501480
-0.023926 -0.722319 -0.515447
0.843782 -0.278290 -0.111533
-0.023875 0.070518 -0.534911
0.843204 -0.276330 -0.111175
0.006159 0.523826 0.712070
-0.022035 -0.724114 -0.518146
-0.456834 -0.312286 -0.551352
-0.386620 -0.278478 0.292255
0.407469 -0.274455 -0.502602
0.024671 0.462312 -0.093078
0.004959 -0.716027 0.309471
0.842328 0.128099 0.301747
-0.460019 -0.314175 -0.550392
0.817429 0.510311 -0.108682
-0.421453 0.522928 -0.503191
0.005128 -0.714617 0.307971
0.844229 -0.277908 -0.112619
0.403172 -0.274507 -0.500724
0.400667 0.500802 0.297949
-0.816169 0.138053 0.288635
0.008412 0.525076 0.712210
0.401751 0.501495 0.295340
-0.023512 0.073336 -0.534167
-0.820723 -0.278265 -0.129373
0.407050 -0.274735 -0.501565
-0.424191 -0.720832 -0.105983
0.424626 -0.275420 0.281279
-0.023811 -0.724789 -0.516133
-0.372097 0.529000 0.304943
0.424537 -0.275791 0.281446
-0.388112 -0.276269 0.295998
0.839935 0.129102 0.303124
0.402614 -0.701293 -0.091695
-0.022518 -0.724874 -0.516235
0.025232 0.462219 -0.096082
-0.461091 -0.312588 -0.551407
0.423526 -0.273865 0.281322
-0.818645 0.138515 0.291343
-0.818363 0.139146 0.289723
0.007192 0.524258 0.712954
0.817461 0.507862 -0.108691
-0.023582 -0.723588 -0.517613
0.842270 -0.277789 -0.113278
-0.423239 0.522998 -0.502986
0.838171 0.104685 -0.534930
0.844993 -0.278673 -0.111804
0.399346 0.501272 0.297370
0.389910 0.480425 -0.513326
0.401169 -0.702324 -0.093275
-0.022279 -0.723594 -0.516523
0.816389 0.510706 -0.108225
0.843187 -0.277555 -0.112795
-0.820702 -0.279230 -0.128198
0.839597 0.128838 0.303542
0.405731 -0.275752 -0.501171
0.817755 0.509733 -0.109186
-0.844202 0.095560 -0.515574
0.389620 0.481298 -0.514297
-0.426232 -0.719891 -0.106918
0.841937 0.126516 0.302335
0.845149 -0.275957 -0.110984
-0.461077 -0.312217 -0.551210
-0.371063 0.529682 0.305688
0.838153 0.107383 -0.534312
0.015744 -0.294165 0.712495
0.003866 -0.714341 0.308334
0.840778 -0.277001 -0.114064
-0.459922 -0.312878 -0.550215
-0.024152 -0.722829 -0.516056
0.005119 -0.714575 0.307956
0.844118 -0.277335 -0.113475
0.008057 0.524532 0.712236
0.840330 0.127878 0.303344
-0.025745 0.072008 -0.534458
0.842834 -0.277929 -0.113959
