OFF
256 0 0
0.672027 -0.647768 0.221659
0.230452 -0.681651 0.674067
-0.662772 -0.207325 0.254545
0.676425 0.227519 -0.700236
0.231708 -0.681564 0.674904
0.667791 0.196643 0.208930
0.666397 0.654217 -0.237087
-0.662751 -0.209341 0.256719
-0.650091 -0.203903 -0.659054
0.230780 -0.681713 0.673798
-0.228236 0.233079 -0.688713
-0.679825 -0.668270 -0.209257
-0.228995 0.235105 -0.686142
-0.227626 0.235254 -0.686964
0.209179 0.259574 0.691251
-0.647131 -0.204378 -0.659522
0.670470 -0.648671 0.219676
0.665915 0.196167 0.209666
0.210431 0.258684 0.690886
0.665704 -0.215340 0.668990
-0.245123 0.650681 -0.243318
-0.648917 -0.202916 -0.660837
0.670306 -0.646921 0.222307
0.205410 -0.671145 -0.255721
0.664699 -0.217125 0.667214
-0.647912 -0.204699 -0.661302
-0.643713 0.655548 0.216557
-0.678676 -0.668172 -0.207824
0.220447 0.652449 0.215592
-0.680417 -0.666458 -0.207158
-0.663069 0.227877 -0.230636
0.656304 -0.243292 -0.225430
0.210116 0.257125 0.692764
0.208175 0.257060 0.691992
0.673932 0.227940 -0.702240
0.218539 0.668239 -0.678559
-0.247516 0.651952 -0.242007
0.209447 0.257281 0.692310
0.670775 -0.651313 0.220421
0.223159 0.652560 0.215354
0.671361 -0.648759 0.223325
0.230565 -0.682621 0.672408
0.219695 0.670008 -0.677015
-0.215299 -0.697573 0.215300
0.670302 -0.649593 0.222653
0.658381 -0.240849 -0.227497
-0.212707 -0.676013 -0.645425
-0.228138 0.234469 -0.687717
0.671831 -0.649062 0.223161
-0.231077 0.674904 0.680207
-0.246009 0.651609 -0.243756
0.656120 -0.240861 -0.228357
-0.230558 0.674731 0.682429
0.207863 0.258293 0.690998
-0.229252 0.674844 0.679931
0.668592 0.196532 0.208181
0.206205 -0.671481 -0.253209
0.211339 0.259602 0.692293
-0.651703 0.236702 0.697631
-0.245077 0.652390 -0.241716
-0.232641 0.676739 0.682709
-0.229713 0.234895 -0.686010
0.673182 -0.648653 0.220635
-0.663698 0.228271 -0.229971
-0.662804 0.226400 -0.232734
0.657164 -0.240380 -0.225279
0.671993 -0.649344 0.220081
-0.214801 -0.699686 0.214791
0.656065 -0.242182 -0.226418
-0.227113 0.234815 -0.688339
-0.212014 -0.231917 0.706579
-0.214412 -0.700202 0.215144
-0.649893 -0.203810 -0.659906
-0.230930 0.673541 0.681241
0.207639 0.258127 0.690654
-0.652865 0.238288 0.698483
-0.212009 -0.675869 -0.645222
-0.247779 0.649967 -0.242280
0.202565 -0.192482 -0.680966
0.208401 0.257567 0.693002
-0.231301 0.676943 0.680835
-0.662630 -0.208569 0.256684
0.208355 0.258224 0.691126
0.666880 0.654794 -0.235863
-0.664506 0.226378 -0.231492
-0.680434 -0.670035 -0.206660
0.656336 -0.242162 -0.227754
-0.677166 -0.669127 -0.208898
0.671772 -0.650109 0.220849
0.202503 -0.191449 -0.680265
0.665938 0.653653 -0.234919
-0.212117 -0.676480 -0.645831
0.655217 -0.243230 -0.226473
-0.643627 0.655660 0.217494
0.219642 0.667462 -0.677968
-0.231229 0.674621 0.681484
0.203144 -0.191944 -0.678232
0.672836 0.229010 -0.703715
-0.644544 0.654997 0.215405
0.204695 -0.671795 -0.254557
0.676052 0.227456 -0.699482
0.209980 0.259580 0.692844
-0.644461 0.655094 0.213854
-0.215318 -0.699204 0.213284
0.664668 -0.216756 0.666655
-0.231936 0.674996 0.681373
-0.212442 -0.231728 0.708298
-0.644714 0.654890 0.216736
-0.210064 -0.674848 -0.643877
0.656028 -0.242072 -0.228682
-0.233278 0.674032 0.681016
0.207948 0.256679 0.691873
0.655567 -0.240355 -0.226079
-0.648111 -0.205361 -0.662824
-0.664088 0.227829 -0.232963
-0.227625 0.234174 -0.690252
-0.678959 -0.670684 -0.207956
0.222764 0.654602 0.213420
-0.664322 0.229633 -0.231405
-0.245834 0.651670 -0.244555
0.672420 -0.648465 0.221602
-0.662778 -0.208424 0.256637
-0.677840 -0.669701 -0.208325
0.665319 -0.218741 0.668676
0.656292 -0.243681 -0.227062
-0.650227 -0.202869 -0.661987
0.202693 -0.192790 -0.679190
-0.212540 -0.699298 0.214930
0.232670 -0.682820 0.673287
0.201281 -0.192211 -0.680181
-0.648924 -0.206281 -0.660474
0.673742 0.229579 -0.701046
0.222664 0.651338 0.212224
0.670422 -0.649586 0.221249
-0.648098 -0.204780 -0.662551
0.656299 -0.240601 -0.226356
0.656065 -0.241313 -0.227402
0.653748 -0.241206 -0.224870
0.655668 -0.241132 -0.225796
-0.212325 -0.676923 -0.642386
0.666832 0.655585 -0.235801
0.657323 -0.241719 -0.225866
-0.650681 0.238890 0.699116
-0.214229 -0.698186 0.214391
-0.676917 -0.667295 -0.208428
0.668903 0.197947 0.209957
0.205347 -0.670816 -0.255422
0.668754 -0.649047 0.219388
0.221917 0.652981 0.214455
0.203393 -0.191872 -0.679133
0.230905 -0.683710 0.673892
0.231007 -0.684034 0.673658
-0.643128 0.654351 0.216997
-0.211086 -0.677472 -0.642975
-0.246213 0.651788 -0.243304
-0.228786 0.233831 -0.688270
-0.644478 0.653543 0.217378
-0.246988 0.650738 -0.243243
-0.211542 -0.677272 -0.644240
0.219298 0.669255 -0.677352
-0.680946 -0.668630 -0.207254
0.657172 -0.240139 -0.225347
0.664801 -0.218336 0.668974
-0.212007 -0.698603 0.214727
0.231277 -0.680976 0.674382
0.202888 -0.192317 -0.679943
-0.230544 0.677629 0.681009
0.230202 -0.682563 0.671418
0.231742 -0.683230 0.674677
-0.212638 -0.231002 0.707648
0.664572 0.654214 -0.235506
-0.653394 0.236812 0.697925
0.671126 -0.649040 0.221234
-0.213865 -0.696078 0.211808
0.657363 -0.241288 -0.227102
0.200663 -0.193969 -0.679635
0.222896 0.653050 0.214090
0.220457 0.667491 -0.679979
-0.648170 -0.205235 -0.661816
-0.643329 0.655089 0.216872
0.222032 0.654320 0.215018
-0.663441 0.228410 -0.231087
0.201648 -0.191291 -0.679275
-0.662111 0.228504 -0.231763
-0.663018 0.228211 -0.228792
0.671926 -0.650546 0.221446
-0.651149 0.238143 0.702768
0.656477 -0.240916 -0.226625
-0.231883 0.676904 0.682449
0.231469 -0.681940 0.675264
-0.233989 0.676887 0.681421
-0.662421 -0.209524 0.258477
-0.245076 0.650364 -0.243367
0.675631 0.228053 -0.699417
-0.214518 -0.698212 0.215588
-0.215900 -0.697875 0.213538
0.201003 -0.191555 -0.678935
-0.215216 -0.697880 0.214048
-0.679004 -0.667964 -0.208188
0.674528 0.228163 -0.700248
-0.648350 -0.204538 -0.661683
-0.648950 -0.203809 -0.660100
0.667512 0.653299 -0.235312
-0.212458 -0.231633 0.707236
0.220208 0.669236 -0.678693
-0.230986 0.233929 -0.687369
0.672285 -0.648298 0.219554
-0.214561 -0.699471 0.214856
-0.228420 0.233200 -0.689094
0.209235 0.256643 0.691057
0.203202 -0.193754 -0.680156
0.667239 -0.214755 0.669248
-0.662842 -0.206373 0.256810
-0.232847 0.675127 0.681618
0.665792 0.653336 -0.236005
0.219453 0.668017 -0.678091
0.667764 0.654772 -0.236248
0.223161 0.652953 0.215382
0.666071 0.653135 -0.235469
0.220574 0.668847 -0.679877
0.210921 0.258346 0.693089
0.200639 -0.191994 -0.680144
-0.680227 -0.670940 -0.207308
0.671557 -0.649918 0.222029
0.666841 0.654242 -0.238144
-0.664246 0.227288 -0.231344
0.658247 -0.242690 -0.225752
0.203359 -0.191232 -0.679383
-0.212695 -0.230815 0.705906
0.665856 0.655858 -0.234547
-0.663804 -0.206831 0.257190
-0.661937 0.226148 -0.231184
0.222998 0.652589 0.214679
-0.231030 0.235941 -0.687183
0.664197 -0.215545 0.668134
-0.231980 0.676071 0.681374
0.228140 -0.682739 0.673984
-0.210245 -0.230873 0.705303
0.657176 -0.241755 -0.226906
-0.661763 0.226174 -0.232958
0.670767 -0.649376 0.220955
-0.664157 -0.207557 0.256575
-0.233248 0.676583 0.681044
0.665370 -0.216264 0.668183
-0.246130 0.651890 -0.242526
-0.214370 -0.231059 0.707241
-0.211918 -0.231542 0.706710
0.656548 -0.241627 -0.227331
-0.210512 -0.680009 -0.643681
-0.648156 -0.203567 -0.661052
0.668132 0.198050 0.209602
0.675254 0.227532 -0.702877
0.220435 0.652949 0.214208
-0.231409 0.675724 0.681715
0.231949 -0.684032 0.672805
-0.226813 0.233437 -0.689617
