OFF
256 0 0
-0.765242 0.601391 -0.183534
0.166687 0.631143 -0.171415
0.642624 0.614473 0.309261
0.175278 -0.704901 -0.642694
0.672461 -0.301572 -0.634075
0.642911 0.614227 0.307645
0.176128 0.146963 -0.617073
0.602498 -0.288515 0.299963
0.174712 0.145243 -0.619177
-0.307865 0.190984 0.785524
0.632588 0.144920 0.759048
0.168170 0.631817 -0.171515
-0.767146 -0.300064 -0.141217
-0.288191 0.617680 0.275502
-0.761472 0.148543 -0.618216
0.165539 0.630935 -0.168782
0.165653 -0.280925 0.755896
-0.761185 0.146206 -0.620567
0.672881 -0.298504 -0.633026
-0.774741 0.158369 0.324528
-0.768708 -0.297874 -0.140884
0.603643 -0.289418 0.297246
0.637210 0.144365 0.758299
-0.771480 0.159246 0.322901
0.175809 0.145825 -0.618109
0.637012 0.144725 0.759799
0.671826 -0.301330 -0.633281
0.672695 -0.300459 -0.634305
-0.767758 -0.301419 -0.142479
0.626096 0.161281 -0.155220
0.167894 0.621253 0.744474
0.165855 -0.282102 0.754526
-0.774052 0.158475 0.326788
0.616790 -0.749618 -0.169868
0.629733 0.162583 -0.154233
-0.773233 0.157317 0.324297
0.604273 -0.292938 0.298452
0.178695 0.145984 -0.615811
0.635883 0.145447 0.759650
0.627271 0.160364 -0.155391
-0.763582 0.601718 -0.184092
-0.281330 -0.747576 -0.189272
0.673054 -0.300571 -0.631670
0.628182 0.162405 -0.155255
0.633713 0.144641 0.759188
0.617935 -0.750487 -0.171898
-0.765395 0.602087 -0.183750
-0.289157 0.616927 0.275956
0.175852 -0.706463 -0.643450
-0.766632 -0.297693 -0.142074
0.603183 -0.291126 0.295304
-0.774206 0.155669 0.325311
0.178044 0.146299 -0.614688
-0.281093 -0.271810 0.261245
0.176694 -0.705516 -0.641756
-0.283589 -0.750989 -0.189796
-0.283322 -0.749866 -0.190059
0.166027 0.630439 -0.168372
0.165736 0.631768 -0.169119
-0.290313 0.620052 0.276117
0.627925 0.162693 -0.157285
0.165062 -0.279148 0.754867
0.632356 0.143571 0.756895
-0.761566 0.146131 -0.620858
-0.773729 0.157857 0.327037
0.669872 -0.300253 -0.632482
0.167358 0.629208 -0.170402
0.604358 -0.289807 0.299318
-0.767176 -0.298505 -0.140593
0.618447 -0.748731 -0.169557
0.617405 -0.750960 -0.170599
0.165360 0.631232 -0.168456
-0.774598 0.157274 0.325406
-0.289394 0.618933 0.276318
0.633134 0.144259 0.759227
0.605081 -0.291493 0.298297
0.178161 -0.705836 -0.641885
0.635171 0.144871 0.759223
0.643308 0.611719 0.309656
-0.774394 0.157313 0.324196
0.625122 0.162822 -0.155898
0.615994 -0.750650 -0.170273
-0.291967 -0.267086 -0.649058
0.634182 0.142220 0.759586
-0.762710 0.145342 -0.621076
0.670665 -0.300046 -0.631484
-0.775825 0.157986 0.326694
0.627028 0.162579 -0.155060
0.634164 0.144914 0.759249
0.603773 -0.290407 0.297800
0.636173 0.144331 0.758548
0.169398 0.619766 0.740871
0.176434 -0.705821 -0.641319
-0.309108 0.189690 0.784678
-0.767587 -0.299648 -0.141817
0.603345 -0.290430 0.296862
0.633239 0.143989 0.757552
0.617933 -0.749899 -0.168584
0.634608 0.142698 0.759514
0.174759 -0.704609 -0.642051
0.617451 -0.749512 -0.170682
-0.766255 -0.300168 -0.140787
0.164186 0.630620 -0.171647
0.163772 -0.741304 0.287480
-0.764480 0.600383 -0.183449
0.176529 0.147269 -0.617457
0.164700 -0.739860 0.288801
0.163049 -0.743317 0.289628
0.164809 -0.741986 0.290094
-0.764988 0.599509 -0.183630
0.163375 -0.741850 0.289865
0.167954 0.620884 0.740798
0.163219 -0.742555 0.289856
-0.760810 0.146060 -0.622200
0.626024 0.161886 -0.156686
0.604744 -0.290072 0.298217
-0.764854 0.600421 -0.182358
0.164947 0.630682 -0.169333
0.166395 0.629950 -0.169222
0.671174 -0.298540 -0.633228
-0.761588 0.146064 -0.618328
0.604784 -0.289395 0.299190
0.604552 -0.291274 0.299049
0.626684 0.161745 -0.156072
0.179094 0.146884 -0.617981
0.616558 -0.752362 -0.169930
-0.287802 0.625087 -0.625324
-0.282146 -0.272163 0.262020
0.163559 -0.739563 0.289593
-0.289889 0.616458 0.274205
0.175024 -0.705198 -0.641720
-0.289741 0.624259 -0.624294
0.643854 0.614991 0.309655
0.671197 -0.299822 -0.632855
-0.764730 0.601563 -0.184321
0.634374 0.143855 0.758622
-0.287791 0.617948 0.276018
-0.762317 0.146330 -0.620603
0.643438 0.614502 0.308772
-0.280730 -0.272550 0.259750
0.627169 0.161426 -0.157059
0.176054 0.146525 -0.617275
0.165475 0.631206 -0.169184
-0.288785 0.623988 -0.623159
0.162562 -0.740911 0.290614
0.165272 -0.279779 0.753690
0.669161 -0.301342 -0.633327
-0.292663 -0.267320 -0.650838
-0.762237 0.146007 -0.622137
0.178489 0.147622 -0.620088
-0.288321 0.617418 0.275998
-0.309183 0.190795 0.785441
0.170057 0.620711 0.741487
0.177485 0.145191 -0.617825
0.627822 0.162359 -0.156905
0.165630 -0.741392 0.289795
0.626605 0.162344 -0.156095
0.164986 -0.281042 0.754504
0.164742 0.632092 -0.171209
-0.282636 -0.272985 0.260345
0.163804 -0.740034 0.288073
-0.761461 0.146658 -0.621879
0.176619 0.146538 -0.616147
-0.287557 0.616767 0.275411
-0.289783 0.625385 -0.624896
-0.294080 -0.268215 -0.652129
0.165790 0.631048 -0.168671
-0.288829 0.624524 -0.621274
-0.767675 -0.298716 -0.139571
-0.760276 0.145493 -0.620262
-0.765915 0.600947 -0.184688
-0.283093 -0.748965 -0.191277
0.165508 -0.280874 0.753633
-0.290500 0.617739 0.275186
0.175234 0.145717 -0.617385
0.603800 -0.289708 0.297536
0.176317 -0.704603 -0.641435
0.177321 0.146101 -0.620175
-0.288528 0.626064 -0.624756
0.164482 0.628637 -0.169334
-0.762932 0.601795 -0.183883
0.627263 0.161732 -0.156505
0.176622 0.146505 -0.617478
0.603472 -0.291628 0.296265
0.603252 -0.291154 0.299685
0.176500 0.146092 -0.617529
0.165467 -0.281189 0.753441
-0.281295 -0.273258 0.261337
0.178153 0.146314 -0.617541
0.671640 -0.298680 -0.632703
0.165806 0.629119 -0.170338
0.603656 -0.291503 0.297412
0.165812 0.630437 -0.169502
0.634427 0.143276 0.759951
-0.307756 0.190821 0.782983
0.641089 0.613273 0.309691
0.670910 -0.301286 -0.632923
0.634776 0.144359 0.759969
0.633647 0.144316 0.759878
-0.306986 0.190265 0.786091
-0.289127 0.617537 0.274741
-0.308892 0.191187 0.783781
-0.762389 0.602778 -0.182478
-0.773278 0.156691 0.325915
0.635623 0.142877 0.757843
0.166086 0.628507 -0.168400
0.167073 0.620244 0.741355
0.626193 0.162955 -0.154876
-0.768619 -0.298645 -0.142150
-0.762651 0.601254 -0.185724
-0.772354 0.157655 0.325771
-0.761968 0.146119 -0.621473
0.176069 -0.705184 -0.640924
-0.773389 0.157087 0.326948
0.626191 0.164675 -0.155414
-0.282204 -0.272052 0.258387
-0.775114 0.156116 0.324417
-0.761389 0.146812 -0.622008
0.627390 0.163651 -0.157947
0.164039 0.630752 -0.169628
0.175282 0.146031 -0.616424
-0.289950 0.618433 0.276446
0.616562 -0.749077 -0.169705
-0.765625 0.602253 -0.183881
0.627049 0.162149 -0.155299
0.643727 0.614952 0.309058
0.618328 -0.751497 -0.170266
0.177365 0.148135 -0.617252
-0.291714 0.625178 -0.624290
0.177300 -0.705446 -0.641848
0.165826 0.629712 -0.169652
0.672027 -0.300312 -0.632259
-0.288204 0.625781 -0.622537
0.176985 0.146601 -0.618628
0.616765 -0.750448 -0.168687
-0.768185 -0.296089 -0.139491
-0.294805 -0.265255 -0.650338
-0.287466 0.623560 -0.624169
0.177451 0.146230 -0.618544
-0.293823 -0.268289 -0.652538
0.167168 0.618596 0.742741
-0.762113 0.146417 -0.619483
-0.282701 -0.273382 0.260426
-0.773649 0.157271 0.326709
0.669880 -0.299826 -0.632170
-0.281557 -0.272964 0.262566
0.165064 0.632668 -0.171617
0.642044 0.614859 0.310127
-0.309407 0.189493 0.783456
-0.281668 -0.271578 0.261433
-0.280661 -0.274212 0.261574
0.164342 -0.741095 0.289702
-0.284048 -0.749233 -0.191725
-0.287915 0.619485 0.274587
-0.288416 0.624734 -0.623518
-0.282678 -0.749724 -0.189913
