OFF
256 0 0
0.139545 -0.753591 -0.618581
-0.308113 -0.756563 -0.160592
0.170021 0.627996 0.743991
-0.250094 0.624206 0.286104
-0.267889 0.175881 0.751483
0.176263 -0.273262 0.737902
-0.757029 0.626127 -0.163684
-0.291514 0.600122 -0.587910
-0.760332 0.625711 -0.165829
-0.307523 -0.756786 -0.164809
0.612766 -0.725534 -0.147190
0.147070 0.110216 -0.629190
-0.735660 0.196631 0.283308
-0.737841 0.196493 0.282665
-0.268428 0.176593 0.749951
0.613251 -0.725019 -0.148148
0.648917 -0.277337 0.280519
-0.251226 0.623605 0.284002
0.149674 0.109955 -0.629497
-0.760227 0.625870 -0.165487
0.168612 -0.751588 0.298979
0.627387 -0.270143 -0.608494
0.628265 -0.266873 -0.610216
0.613626 0.607698 0.300407
-0.268843 0.177936 0.748921
0.615230 0.607954 0.300374
0.147834 0.111242 -0.628629
0.169491 -0.750794 0.298398
-0.306533 -0.755829 -0.162869
0.613548 0.607286 0.301956
0.169731 0.626210 0.743084
-0.268117 0.175815 0.750404
0.166893 -0.751136 0.299853
-0.251963 0.623012 0.285264
0.138413 -0.753262 -0.617649
0.611608 0.608160 0.300397
-0.268728 0.175949 0.750814
0.183793 0.572167 -0.136776
-0.769544 0.153990 -0.621513
0.611101 0.146894 -0.152541
-0.252110 0.623886 0.286047
0.611237 0.148665 -0.153572
0.646528 -0.276052 0.283025
-0.256413 -0.254313 0.275119
0.176502 -0.275440 0.736709
0.625816 -0.269143 -0.610614
-0.337764 -0.295814 -0.660860
-0.292604 0.600397 -0.589375
-0.736880 -0.263217 -0.190299
-0.256399 -0.255025 0.274127
-0.251974 0.623517 0.285190
-0.757674 0.625585 -0.166514
0.168534 -0.753138 0.295654
0.138744 -0.754613 -0.620379
-0.738190 -0.263272 -0.190861
-0.339455 -0.298022 -0.661793
0.138985 -0.754242 -0.618363
-0.735934 0.196431 0.280928
0.184033 0.572384 -0.132618
0.168710 -0.751490 0.298314
0.625139 -0.269241 -0.609609
0.171155 0.626782 0.743975
0.170621 0.626722 0.744742
-0.760220 0.627298 -0.164383
-0.308505 -0.756876 -0.162955
-0.768824 0.152139 -0.620970
-0.268423 0.175628 0.749706
-0.734872 0.196249 0.281868
0.167779 -0.753218 0.297869
0.169963 0.625595 0.745977
0.648548 -0.279944 0.280347
0.626370 -0.268803 -0.609275
-0.769581 0.152407 -0.621715
-0.257395 -0.254650 0.274599
-0.251137 0.623108 0.284118
-0.335640 -0.298718 -0.660991
0.626050 -0.268150 -0.610720
-0.336430 -0.296339 -0.660185
0.612897 0.608653 0.299937
0.176045 -0.273646 0.738407
-0.734326 0.196960 0.282244
-0.252089 0.624147 0.284232
0.171006 0.625314 0.744506
0.148503 0.110181 -0.628791
-0.769196 0.151908 -0.621372
-0.267576 0.175997 0.752217
0.176863 -0.273806 0.737980
-0.290934 0.601497 -0.588634
0.170021 0.625770 0.744436
-0.308970 -0.758067 -0.163060
-0.337376 -0.298148 -0.661094
0.611446 -0.727515 -0.148409
-0.737825 -0.263334 -0.189306
-0.293388 0.601135 -0.589202
-0.758881 0.626242 -0.164402
-0.767925 0.151711 -0.619491
-0.739763 -0.264024 -0.189708
0.168625 -0.750364 0.298556
0.613558 0.608303 0.300456
0.138840 -0.753327 -0.618622
-0.257829 -0.257636 0.274721
-0.256963 -0.257377 0.274823
-0.336256 -0.296274 -0.661217
-0.292709 0.599771 -0.589673
0.149118 0.109812 -0.627249
-0.760145 0.626359 -0.164526
-0.291373 0.601552 -0.589731
-0.736361 0.195874 0.280563
0.613043 -0.725220 -0.150748
0.148668 0.112062 -0.629269
0.169896 0.626470 0.743580
0.148080 0.110054 -0.628401
0.170183 0.627314 0.742753
0.626639 -0.269830 -0.611459
0.611684 0.149937 -0.153008
-0.735870 0.196667 0.283941
0.648566 -0.278634 0.279453
0.169604 0.625344 0.743915
0.168106 -0.751162 0.298543
0.612411 -0.725903 -0.148181
-0.759915 0.627086 -0.164817
0.625399 -0.269431 -0.609026
0.617707 0.184400 0.728380
0.169411 0.624597 0.743060
0.646792 -0.277232 0.281389
0.168526 0.625530 0.744118
0.618376 0.184302 0.727208
0.610425 0.148160 -0.151883
0.608830 0.149167 -0.154307
0.184614 0.573692 -0.135472
-0.251741 0.623221 0.285570
0.186886 0.573351 -0.135206
-0.737435 -0.263902 -0.192066
-0.307852 -0.755860 -0.162037
0.177940 -0.275801 0.737035
0.170201 0.626417 0.743808
0.147765 0.111938 -0.628194
-0.757794 0.626650 -0.164868
-0.256218 -0.256347 0.274977
-0.739116 -0.265691 -0.190132
0.175867 -0.274027 0.739201
0.148487 0.110678 -0.629116
0.138372 -0.753607 -0.619317
0.611190 0.147728 -0.154267
0.138463 -0.753749 -0.619587
0.609005 0.148975 -0.152746
0.177349 -0.274845 0.739419
0.646829 -0.277687 0.280476
0.168185 -0.751144 0.298518
-0.292917 0.601968 -0.589459
0.147013 0.112320 -0.628622
0.138207 -0.755050 -0.618176
-0.758915 0.625208 -0.164611
-0.251205 0.620612 0.283796
-0.270613 0.176096 0.751206
-0.258123 -0.256572 0.275903
-0.257451 -0.257040 0.276360
0.138032 -0.752718 -0.618837
-0.292192 0.601164 -0.589419
-0.308049 -0.759215 -0.164462
0.614547 0.607673 0.300145
-0.737896 -0.264764 -0.189833
0.139089 -0.753216 -0.618298
-0.736989 0.197005 0.282790
-0.307855 -0.755761 -0.163082
0.183472 0.574285 -0.135210
0.177780 -0.273591 0.737805
0.148095 0.111605 -0.629775
0.138232 -0.754893 -0.619347
0.170839 0.625982 0.743086
-0.735718 0.197184 0.282426
0.612426 0.607515 0.300250
-0.769002 0.151105 -0.621264
-0.335569 -0.296996 -0.659471
-0.291900 0.601743 -0.588150
-0.737202 0.195723 0.281923
-0.768880 0.152228 -0.620669
-0.307809 -0.758637 -0.163509
0.617948 0.183099 0.728265
0.609744 0.146931 -0.153301
-0.268983 0.177436 0.749506
0.146830 0.111922 -0.629176
-0.767977 0.152972 -0.621046
-0.307155 -0.758812 -0.163592
0.610600 0.149206 -0.156632
0.147709 0.113087 -0.628122
-0.769736 0.155445 -0.621420
0.608297 0.147303 -0.154415
0.167927 -0.751413 0.296084
0.612435 0.148999 -0.153310
0.184349 0.572425 -0.135943
-0.338302 -0.297631 -0.660128
0.611364 -0.725623 -0.147216
0.611840 0.146102 -0.155161
0.627775 -0.268334 -0.609624
-0.253271 0.625022 0.285904
-0.737584 0.197203 0.281794
0.149228 0.111773 -0.629325
-0.256161 -0.257053 0.274927
0.183066 0.573139 -0.135556
-0.769564 0.151228 -0.621563
0.170652 0.624673 0.743379
0.148356 0.110742 -0.629996
-0.250760 0.621356 0.283510
0.613610 0.609691 0.300803
-0.292773 0.600645 -0.587465
0.137892 -0.754109 -0.620154
-0.739048 -0.263410 -0.190551
-0.768187 0.151959 -0.618992
0.614912 0.609144 0.300370
0.611373 -0.727001 -0.148237
-0.307982 -0.757857 -0.163699
0.169565 0.624448 0.742959
0.610451 0.149234 -0.153645
0.137078 -0.754678 -0.620191
-0.252007 0.623567 0.283971
0.169155 0.626272 0.742611
-0.307144 -0.758186 -0.164247
-0.768684 0.152714 -0.620803
0.169479 0.623499 0.742258
0.139114 -0.753172 -0.616942
0.148922 0.111375 -0.629570
-0.736996 -0.265795 -0.190478
-0.736110 0.197721 0.281301
-0.337173 -0.297181 -0.660249
-0.307115 -0.756106 -0.162547
0.167910 -0.749649 0.297807
-0.306318 -0.759954 -0.163277
-0.737506 0.198026 0.283841
-0.251191 0.622148 0.285269
0.628143 -0.270055 -0.609116
0.627641 -0.269414 -0.608231
0.646767 -0.275625 0.280161
0.169162 0.623209 0.745301
-0.268446 0.176230 0.748785
0.168622 -0.751256 0.297082
-0.307124 -0.757079 -0.162177
0.185926 0.572286 -0.136479
0.615222 0.608135 0.302315
0.148068 0.111541 -0.626926
-0.257821 -0.257183 0.276756
-0.266665 0.176526 0.749270
0.169495 0.623982 0.743115
0.617856 0.182653 0.726187
0.610366 0.146318 -0.155301
-0.305450 -0.756907 -0.162940
0.627563 -0.268986 -0.609693
0.166429 -0.751889 0.298213
-0.336644 -0.298544 -0.658851
-0.337983 -0.298155 -0.660072
-0.737936 0.197353 0.283537
-0.757934 0.627601 -0.165057
0.646679 -0.277610 0.279711
0.625317 -0.269162 -0.608763
-0.739642 -0.264058 -0.189333
-0.336502 -0.295866 -0.660214
