OFF
256 0 0
-0.740040 -0.328499 -0.175029
0.613502 -0.303450 -0.599000
0.161688 -0.276945 0.763437
0.141440 0.622921 -0.164331
-0.293989 0.615289 -0.601791
0.142582 0.620347 -0.164038
0.180510 -0.762016 -0.618847
0.602455 -0.717765 -0.165910
0.604455 -0.716450 -0.167401
0.619491 0.186521 0.719456
-0.738901 0.160990 0.243319
-0.745713 0.645584 -0.168131
-0.298116 0.617363 0.280480
-0.294831 0.176197 0.753084
0.163117 -0.277206 0.763639
0.180236 -0.762248 -0.617545
-0.247156 -0.252701 0.232192
0.621529 0.178983 -0.154569
-0.740544 0.161926 0.243639
-0.300042 -0.776810 -0.155397
0.155942 -0.749914 0.252968
-0.744690 0.643553 -0.168244
0.613808 -0.302322 -0.599071
-0.294662 -0.310353 -0.591181
-0.727083 0.161805 -0.594441
-0.728792 0.162179 -0.595123
-0.739459 -0.326510 -0.173726
0.180449 -0.762348 -0.619164
0.160996 -0.277789 0.763760
-0.247865 -0.252711 0.231396
-0.297179 0.619896 0.282522
0.621998 0.186483 0.719735
0.143077 0.619274 -0.164239
-0.740394 0.162806 0.243939
-0.728923 0.162294 -0.596014
0.161491 -0.278891 0.765095
-0.292732 0.176492 0.753711
0.621522 0.179575 -0.157372
0.178647 -0.761537 -0.619313
0.621882 0.178729 -0.156238
-0.295053 -0.311245 -0.591630
-0.746994 0.645687 -0.167210
-0.740466 0.162642 0.242327
-0.745999 0.644600 -0.167093
0.621794 0.185482 0.720774
-0.738823 0.162212 0.245073
-0.296780 0.617653 0.281099
-0.293355 -0.311129 -0.592857
0.633496 -0.270769 0.292288
0.603191 -0.716551 -0.164310
-0.299595 0.618946 0.282168
-0.727537 0.160786 -0.593884
0.148524 0.606961 0.749378
0.615093 -0.302042 -0.599782
-0.738928 0.161706 0.242866
-0.296209 0.621413 0.283116
0.180590 -0.760611 -0.617764
0.634266 -0.272229 0.291932
-0.293591 0.614476 -0.601948
0.156339 -0.750614 0.253032
0.179671 -0.760894 -0.620533
-0.739677 0.159888 0.244425
-0.292941 -0.311222 -0.591002
-0.725910 0.162908 -0.592781
0.652072 0.624574 0.287568
0.146305 0.608437 0.747748
0.622513 0.185628 0.721332
0.622338 0.185332 0.718541
-0.740013 0.162951 0.243762
-0.741907 0.161425 0.243910
-0.745183 0.645804 -0.167001
0.143715 0.621779 -0.164444
0.178730 -0.761495 -0.620410
-0.292983 0.613040 -0.601505
-0.745995 0.644566 -0.168700
0.162042 -0.277413 0.764610
-0.298206 0.617701 0.281761
0.621964 0.180257 -0.155755
0.652785 0.623424 0.288327
0.636235 -0.270003 0.291117
-0.747715 0.644983 -0.167457
0.634469 -0.270216 0.291597
-0.740709 0.159845 0.243415
-0.293741 0.176552 0.755511
-0.299588 -0.777056 -0.155338
-0.724520 0.162328 -0.596544
0.614991 -0.303975 -0.598630
-0.291541 0.614781 -0.601875
-0.295978 0.612684 -0.603382
-0.740445 -0.326704 -0.176417
-0.293693 0.175224 0.753142
0.148019 0.605730 0.747853
0.146296 0.608038 0.749717
0.162850 -0.275823 0.764869
-0.293652 0.614461 -0.602293
0.156869 -0.750407 0.253351
0.652300 0.624034 0.288801
0.179397 -0.760854 -0.620942
0.622739 0.185615 0.720447
-0.740066 0.161788 0.242104
-0.726215 0.162927 -0.594612
0.622003 0.180814 -0.155279
-0.295364 0.176499 0.754210
-0.293864 0.176584 0.754979
0.156636 -0.749764 0.253696
0.636695 -0.270927 0.290382
-0.294929 0.174347 0.754387
-0.291943 0.175449 0.754702
-0.294440 0.176063 0.753986
-0.296043 0.614015 -0.600789
-0.246164 -0.255307 0.231773
-0.727853 0.162467 -0.594830
-0.726602 0.162056 -0.592555
-0.739016 0.161545 0.243791
0.147706 0.607426 0.748483
-0.293328 0.176726 0.755521
-0.741805 0.161196 0.243456
-0.298673 -0.778468 -0.156274
0.653660 0.621161 0.288702
0.636185 -0.270965 0.290293
0.654892 0.624977 0.291023
-0.299647 -0.775119 -0.157354
-0.293368 0.613114 -0.603653
0.141740 0.157330 -0.591733
0.621116 0.188214 0.721318
0.612244 -0.304198 -0.599829
0.634180 -0.270544 0.290620
-0.246095 -0.255903 0.232146
-0.726503 0.163901 -0.594573
0.652543 0.622339 0.289884
0.602714 -0.717513 -0.166913
0.654628 0.623536 0.290790
-0.744597 0.644269 -0.168009
0.181274 -0.760454 -0.618062
0.163599 -0.279076 0.764167
0.143510 0.619928 -0.165884
0.156188 -0.751462 0.254769
0.180413 -0.761790 -0.617638
0.181378 -0.760955 -0.619944
0.142440 0.155589 -0.590403
-0.746134 0.644628 -0.167601
0.621097 0.184516 0.720240
-0.297382 0.617999 0.281739
-0.300500 -0.778446 -0.155119
-0.292649 0.615617 -0.602808
-0.294857 -0.312192 -0.591733
-0.299246 -0.776489 -0.156344
-0.294621 0.176767 0.756746
0.181269 -0.761500 -0.618579
0.621058 0.178238 -0.156347
-0.298021 -0.777538 -0.156290
0.147955 0.606351 0.748056
0.622602 0.183348 0.721048
-0.744946 0.643989 -0.168204
0.633080 -0.271675 0.291493
0.634432 -0.270782 0.292205
0.141650 0.157461 -0.588217
0.143379 0.619214 -0.165377
-0.299694 0.617675 0.281357
-0.724754 0.162677 -0.593780
0.180828 -0.762226 -0.618620
0.144064 0.619810 -0.164609
-0.292416 0.176910 0.754604
0.157417 -0.748735 0.253516
-0.740187 0.161741 0.243540
0.155496 -0.750501 0.254804
0.602312 -0.716679 -0.165904
0.651654 0.623067 0.289350
0.163338 -0.277900 0.763835
-0.740494 -0.325307 -0.175506
0.632013 -0.270388 0.292721
0.623487 0.183130 0.721783
0.621015 0.185486 0.719241
0.635957 -0.270619 0.289435
0.620744 0.179499 -0.154466
-0.740738 0.160638 0.244422
-0.247464 -0.254821 0.232324
-0.292855 -0.311828 -0.592964
0.162445 -0.276282 0.762720
-0.724624 0.163052 -0.593767
-0.729107 0.162575 -0.593807
-0.295297 -0.312215 -0.591951
-0.300692 -0.776876 -0.155169
0.140622 0.155829 -0.588649
-0.294387 -0.310887 -0.592123
-0.298304 0.619184 0.283783
0.143178 0.620133 -0.165234
0.622226 0.186094 0.720925
-0.745727 0.645917 -0.166175
0.145986 0.606428 0.748228
0.142259 0.620393 -0.164813
0.620236 0.179127 -0.154312
0.141926 0.621354 -0.165152
-0.298829 0.618936 0.281434
-0.298369 0.619386 0.283073
0.141646 0.619380 -0.164168
-0.741270 -0.326867 -0.174306
-0.726630 0.159966 -0.594030
-0.247674 -0.254003 0.232067
0.653726 0.623201 0.288137
-0.293128 -0.310342 -0.590871
0.157757 -0.749621 0.256766
-0.741203 -0.327055 -0.174379
-0.740731 -0.327815 -0.173235
0.621106 0.178177 -0.155561
-0.248139 -0.253506 0.232926
0.141662 0.619376 -0.165215
-0.292802 0.176667 0.753703
-0.292476 0.176411 0.753433
0.602789 -0.717033 -0.163500
0.143467 0.619591 -0.163791
-0.740160 -0.326863 -0.174159
-0.299073 -0.778747 -0.155609
-0.293379 0.175373 0.754408
0.622505 0.184075 0.720487
-0.740051 0.160684 0.243426
-0.745104 0.642568 -0.165915
0.142740 0.158305 -0.589122
0.604233 -0.716519 -0.166863
-0.299084 0.616851 0.282458
-0.298392 -0.777028 -0.154774
0.616585 -0.304152 -0.598353
0.614496 -0.303072 -0.599164
-0.297087 -0.777870 -0.154453
0.612912 -0.302062 -0.600152
-0.294675 -0.310733 -0.590646
-0.293029 -0.310456 -0.592660
0.148047 0.607135 0.750473
0.156377 -0.750600 0.254701
0.613431 -0.302494 -0.598391
-0.245820 -0.255519 0.232773
-0.247276 -0.255330 0.232060
0.141454 0.622666 -0.164291
-0.740934 0.160830 0.243140
-0.741004 0.160702 0.244076
-0.292318 0.175989 0.753643
0.620306 0.177823 -0.156413
-0.727267 0.164092 -0.593945
0.141337 0.158189 -0.588467
-0.738887 -0.325801 -0.172284
-0.299637 -0.774981 -0.156267
0.148511 0.606418 0.747510
-0.294778 0.612597 -0.600516
0.162284 -0.278539 0.762968
-0.740811 -0.327538 -0.174915
0.146506 0.606685 0.749447
-0.246883 -0.254600 0.231028
0.619589 0.178759 -0.156599
-0.298967 -0.779580 -0.156628
-0.728636 0.163019 -0.593660
0.163526 -0.277000 0.763094
0.622824 0.186389 0.719145
0.654825 0.624432 0.288651
-0.295525 0.614355 -0.599956
-0.300172 -0.777284 -0.156411
0.179526 -0.761324 -0.621212
