OFF
256 0 0
-0.282933 -0.253608 -0.602993
-0.286420 -0.732260 -0.160606
0.638132 -0.283983 0.303456
0.176985 -0.739778 0.300913
-0.304813 0.602768 -0.646540
0.635842 -0.308434 -0.592135
-0.775119 -0.271362 -0.173353
-0.725337 0.153718 0.260971
-0.281807 0.174312 0.738717
0.176258 -0.739618 0.301980
-0.722979 0.152644 0.260317
-0.301585 0.614361 0.264536
0.147675 -0.719192 -0.593710
-0.725960 0.154069 0.259296
0.176636 -0.738982 0.299987
0.148026 -0.721254 -0.592101
-0.281019 -0.280017 0.267053
-0.285543 -0.732304 -0.160685
0.637804 -0.286342 0.302597
0.190723 0.134974 -0.600724
0.633418 0.607281 0.297575
-0.723319 0.153491 0.261199
0.634811 -0.310597 -0.591448
0.144366 -0.272233 0.728924
0.144888 -0.271304 0.731265
-0.300362 0.614699 0.263793
0.636225 -0.306458 -0.593478
-0.724471 0.150172 0.260453
-0.283659 0.173319 0.738550
0.147348 0.635729 0.734786
-0.282004 -0.279758 0.265055
-0.749341 0.607120 -0.192332
0.175585 -0.738022 0.303063
-0.307002 0.601157 -0.647176
0.622392 0.174718 0.742317
0.164497 0.623827 -0.148837
0.174835 -0.739205 0.300353
0.601458 -0.767269 -0.131849
-0.762221 0.156176 -0.627082
-0.752080 0.608527 -0.189818
0.145054 0.636363 0.736438
-0.777237 -0.269080 -0.174024
0.166397 0.622422 -0.149676
-0.750933 0.609775 -0.190020
-0.724036 0.152114 0.260219
-0.285796 -0.733382 -0.160333
0.175328 -0.739246 0.301697
0.633661 0.607172 0.297680
0.601218 -0.767584 -0.130889
0.164999 0.623302 -0.148896
0.625656 0.173448 0.742652
-0.775982 -0.268554 -0.172223
0.189559 0.135009 -0.599615
0.164557 0.621965 -0.150223
0.149139 -0.719366 -0.595341
-0.775326 -0.268304 -0.173646
-0.300084 0.614059 0.264527
0.145339 -0.271669 0.731013
0.146333 0.637037 0.733587
-0.283537 -0.254926 -0.602942
0.143517 0.636329 0.735820
0.144671 -0.273089 0.732000
0.634490 0.606241 0.299241
-0.725576 0.151479 0.259719
-0.284782 -0.732742 -0.158755
-0.281032 0.171426 0.738150
0.634525 -0.307866 -0.593974
0.637609 -0.283664 0.303173
0.644501 0.149558 -0.170579
-0.282337 -0.255246 -0.603801
0.634796 0.605640 0.297964
-0.304637 0.601509 -0.644815
-0.774785 -0.269151 -0.175541
-0.282984 -0.254679 -0.600805
-0.775491 -0.269545 -0.174499
0.166237 0.622514 -0.150811
0.188615 0.134261 -0.598444
-0.306134 0.601950 -0.646863
0.167331 0.624666 -0.149983
-0.281492 0.172577 0.738564
-0.775523 -0.271307 -0.172023
0.166162 0.624484 -0.149406
0.601839 -0.765940 -0.131767
0.190549 0.135105 -0.598523
-0.750341 0.608718 -0.190666
0.625626 0.173407 0.744077
-0.283540 -0.281832 0.265144
-0.282513 0.173332 0.739100
0.647376 0.146806 -0.172903
0.145358 0.636495 0.734223
-0.282671 -0.255268 -0.603681
0.143622 -0.273682 0.729562
0.623740 0.174622 0.743100
-0.750994 0.611653 -0.188535
0.635954 -0.285754 0.302596
0.145241 0.636038 0.735667
0.636503 -0.284267 0.304277
0.190872 0.134564 -0.599003
-0.282954 -0.256466 -0.603165
-0.281986 0.170819 0.739051
0.646519 0.147753 -0.172225
0.646419 0.147112 -0.172744
-0.775070 -0.269918 -0.172845
0.167140 0.622710 -0.150035
0.149669 -0.719295 -0.593378
-0.282050 -0.282435 0.266051
0.142183 0.637473 0.735293
-0.723947 0.151253 0.259850
0.600790 -0.765268 -0.131159
-0.282389 0.171177 0.739103
0.638413 -0.284661 0.302060
0.623136 0.175318 0.744854
-0.287120 -0.733311 -0.158810
0.624875 0.174484 0.741158
-0.723755 0.152294 0.259708
-0.776052 -0.271264 -0.174365
0.149019 -0.720398 -0.593145
0.148690 -0.720035 -0.593444
-0.304362 0.601848 -0.644994
0.146466 0.636609 0.734605
-0.301465 0.616883 0.264674
-0.305018 0.600133 -0.647378
0.148270 -0.720085 -0.592758
0.634787 0.605283 0.299072
0.143232 -0.272793 0.729812
0.647248 0.148099 -0.173304
0.602488 -0.766941 -0.132788
-0.724192 0.153422 0.260505
0.645791 0.146239 -0.173626
-0.282733 -0.253724 -0.601727
0.632835 0.605226 0.300082
0.645480 0.147763 -0.172859
-0.284659 -0.732432 -0.158972
0.638778 -0.283900 0.303197
0.149772 -0.720820 -0.593868
-0.724920 0.152158 0.262288
0.633490 0.606205 0.298450
0.163394 0.621975 -0.150268
-0.748907 0.609323 -0.190036
-0.282687 0.172777 0.738996
0.191515 0.134009 -0.599659
0.145196 -0.273223 0.731210
0.164852 0.623916 -0.149894
-0.300644 0.614041 0.262584
-0.722989 0.151439 0.260754
-0.304789 0.601832 -0.645613
-0.284378 0.172044 0.740105
0.148955 -0.718216 -0.592647
-0.283776 0.171470 0.738802
0.143712 -0.273465 0.730139
0.637290 -0.308783 -0.594276
-0.725649 0.152863 0.261552
0.645848 0.148866 -0.174564
0.166760 0.623939 -0.149952
0.601568 -0.765369 -0.131967
-0.752662 0.607159 -0.190848
0.174239 -0.739311 0.300275
-0.763045 0.155451 -0.627848
0.646163 0.148901 -0.171397
-0.286086 -0.735482 -0.159676
0.176584 -0.737224 0.303064
0.635297 -0.308370 -0.593415
0.175718 -0.739722 0.302313
-0.287050 -0.734997 -0.157425
-0.763016 0.156100 -0.627402
0.637220 -0.283996 0.303724
0.634027 0.605939 0.301727
0.190428 0.134360 -0.599688
-0.777451 -0.270182 -0.173076
-0.305014 0.601493 -0.645954
-0.282862 -0.255215 -0.600143
-0.280899 -0.281147 0.264806
-0.724245 0.153672 0.261027
0.625049 0.175351 0.743839
0.625394 0.175284 0.743469
0.623213 0.175099 0.742301
0.632635 0.605010 0.298630
0.144824 -0.270478 0.731062
0.622554 0.174448 0.742979
-0.285671 -0.735544 -0.157928
-0.750560 0.606550 -0.189927
-0.776407 -0.269823 -0.171634
0.190514 0.134239 -0.598947
-0.723751 0.151394 0.261133
0.601408 -0.765735 -0.133478
0.636090 -0.308851 -0.593928
0.177055 -0.737012 0.299616
0.145375 0.636006 0.736113
-0.304109 0.601451 -0.645372
0.600268 -0.765569 -0.133059
-0.285702 -0.733986 -0.158405
-0.302071 0.614111 0.264116
0.176840 -0.739393 0.300981
0.623212 0.174265 0.742709
0.623403 0.174879 0.743386
0.144588 -0.272877 0.731646
-0.281491 0.171302 0.739100
-0.751075 0.609143 -0.188887
-0.774898 -0.266733 -0.173612
0.176304 -0.737837 0.300542
0.602635 -0.765182 -0.131968
0.144567 -0.271735 0.731814
0.632269 0.604739 0.298846
-0.723466 0.154238 0.259020
-0.776138 -0.269569 -0.173489
-0.752040 0.608954 -0.190385
0.634331 0.605785 0.299841
0.177075 -0.737712 0.302033
0.635669 0.605353 0.298714
-0.299708 0.613585 0.262437
-0.281040 -0.278094 0.266168
-0.303641 0.602509 -0.644926
-0.750914 0.608405 -0.190444
-0.725654 0.152036 0.261136
-0.281605 0.173212 0.739700
0.164822 0.625028 -0.150294
0.176007 -0.741115 0.302405
-0.750982 0.609007 -0.189946
-0.724626 0.153286 0.261042
0.634208 -0.309402 -0.594444
-0.282367 -0.280956 0.268146
0.647061 0.147752 -0.171829
-0.282054 -0.255453 -0.600802
-0.725242 0.152297 0.259549
-0.285537 -0.734619 -0.160353
-0.763714 0.157324 -0.626034
-0.750080 0.607362 -0.190060
0.165243 0.623893 -0.148149
0.624430 0.174300 0.741834
0.145186 -0.273374 0.731812
0.634280 -0.308686 -0.594271
0.176966 -0.738977 0.302685
0.645397 0.146858 -0.171132
0.175921 -0.738575 0.302221
0.146582 -0.271117 0.728859
0.637628 -0.282983 0.302198
-0.282123 -0.280612 0.265204
-0.285825 -0.733850 -0.159930
-0.777329 -0.269644 -0.174096
-0.775275 -0.269385 -0.173837
0.145859 0.636800 0.734186
-0.775508 -0.272092 -0.172751
0.176940 -0.740528 0.300397
0.623069 0.175355 0.742926
-0.749668 0.608607 -0.190264
-0.281082 0.172966 0.738456
0.600714 -0.765824 -0.130483
-0.304197 0.601763 -0.643918
0.634980 0.606846 0.299815
0.646548 0.148162 -0.171556
-0.762328 0.153993 -0.628824
0.189933 0.132345 -0.600422
-0.761761 0.157032 -0.626449
0.637118 -0.307220 -0.593212
-0.724480 0.151605 0.260662
0.647653 0.147183 -0.173756
