OFF
256 0 0
0.316218 0.171441 0.760405
0.291473 0.621915 0.300360
-0.135171 0.624460 -0.167271
0.743940 -0.297101 -0.177454
-0.190395 -0.712874 0.267496
-0.159471 0.557084 0.720542
-0.626474 0.143041 0.732899
-0.565806 0.599458 0.297530
-0.164612 -0.764388 -0.621823
-0.136879 0.624339 -0.167458
0.738989 0.202823 0.289119
0.291302 0.622275 0.301048
-0.615928 -0.751464 -0.149871
-0.581293 0.148440 -0.152583
0.286985 -0.261511 0.262666
-0.644574 -0.303755 0.285124
-0.137864 0.623475 -0.167863
-0.192571 -0.715479 0.268577
-0.164473 -0.763912 -0.622250
0.740150 0.625680 -0.160186
0.282307 0.623228 -0.600386
0.741459 0.626557 -0.161665
-0.581421 0.148793 -0.152352
0.739118 0.203246 0.288298
-0.625680 0.144831 0.730751
-0.157879 0.170755 -0.649587
-0.157053 -0.268893 0.749150
0.744425 -0.295930 -0.177509
-0.624590 0.144647 0.731213
-0.191481 -0.714831 0.270368
-0.614414 -0.748870 -0.150201
0.286368 -0.260987 0.262967
-0.627837 0.142038 0.729465
0.286064 -0.258976 0.261679
0.737651 0.204951 0.286636
-0.159170 0.558973 0.720611
0.291741 0.619148 0.299383
-0.165642 -0.764524 -0.622501
-0.581818 0.150251 -0.152269
0.255854 -0.704171 -0.168936
-0.643616 -0.302839 0.283659
-0.160367 0.173042 -0.646837
0.717335 0.136259 -0.630021
-0.644074 -0.302944 0.282716
-0.615668 -0.750488 -0.152177
0.741916 0.626360 -0.160247
-0.191418 -0.715196 0.271035
0.744419 -0.296767 -0.178744
-0.164543 -0.765437 -0.624474
-0.158871 0.171789 -0.647940
-0.189668 -0.714869 0.271183
-0.192495 -0.714318 0.268876
-0.136656 0.624889 -0.168288
0.285888 -0.259654 0.263025
0.251891 -0.290898 -0.590032
-0.136728 0.621648 -0.167959
-0.614019 -0.749435 -0.151168
0.317788 0.171020 0.759770
-0.563438 0.599258 0.299557
-0.157799 -0.270155 0.751514
0.743099 -0.296520 -0.180220
-0.624463 0.142264 0.732959
0.250831 -0.289885 -0.592194
0.713683 0.136347 -0.634335
-0.166055 -0.764393 -0.623732
0.251942 -0.290773 -0.591488
-0.565127 0.598577 0.298795
0.285944 -0.259729 0.263554
0.287126 -0.259898 0.261920
-0.582128 0.149539 -0.153383
0.286939 -0.261069 0.262658
0.316693 0.171197 0.760090
-0.159917 0.557991 0.720137
0.250107 -0.288927 -0.591321
0.716173 0.137867 -0.631318
0.290735 0.620277 0.300171
0.317054 0.171041 0.761867
-0.157908 0.171437 -0.649247
0.255947 -0.706093 -0.167643
-0.160579 0.171739 -0.649848
0.315922 0.171319 0.759916
-0.626438 0.144986 0.731087
0.736551 0.204203 0.286417
-0.157997 -0.269178 0.751061
-0.564421 0.597396 0.300070
0.737178 0.204606 0.288411
-0.643345 -0.300908 0.282947
0.743201 -0.295855 -0.177827
-0.160676 0.558424 0.722624
-0.191619 -0.713165 0.269093
0.739783 0.203986 0.287681
-0.581748 0.149497 -0.154456
-0.641852 -0.303039 0.283251
0.285214 -0.259344 0.262035
-0.190122 -0.713375 0.267779
0.249877 -0.288345 -0.592063
0.316123 0.171360 0.760738
-0.159596 0.559368 0.720136
0.290855 0.620177 0.299696
0.255395 -0.706250 -0.168707
-0.643573 -0.303231 0.284161
-0.137215 0.624101 -0.167344
0.283220 0.621113 -0.601042
-0.582531 0.149305 -0.153020
0.256141 -0.706742 -0.167443
-0.190491 -0.713874 0.268690
0.736968 0.202323 0.288889
-0.160510 -0.270871 0.749333
0.288858 0.620630 0.298921
-0.645001 -0.302318 0.284347
0.740750 0.626017 -0.161810
-0.190074 -0.716263 0.270331
0.287086 -0.259861 0.262980
-0.581264 0.149418 -0.154429
0.255218 -0.708111 -0.168508
0.283325 0.620956 -0.601887
0.715535 0.138000 -0.629336
0.256840 -0.708277 -0.168370
0.256222 -0.706172 -0.165308
-0.158497 0.172066 -0.647802
0.289569 0.621963 0.299525
-0.621693 -0.273864 -0.592422
-0.626255 0.141791 0.730493
-0.158062 0.171705 -0.649230
-0.641870 -0.303421 0.283534
0.254631 -0.705985 -0.165641
0.256586 -0.706876 -0.167431
-0.626361 0.143419 0.731169
-0.580663 0.149243 -0.152808
-0.156431 -0.270001 0.753240
-0.163512 -0.764940 -0.622331
-0.164676 -0.765290 -0.625152
-0.162484 -0.764559 -0.622282
-0.621229 -0.272688 -0.592412
-0.158466 0.557564 0.721450
0.284690 0.623028 -0.602833
-0.138718 0.624775 -0.168218
0.718004 0.138112 -0.631517
0.743831 -0.295257 -0.176777
0.289967 0.622776 0.298456
-0.159866 0.172333 -0.649196
0.735971 0.202709 0.287117
-0.135171 0.623691 -0.167424
0.282355 0.620678 -0.599904
-0.192444 -0.715935 0.268691
0.253076 -0.706567 -0.168489
0.253428 -0.288374 -0.591350
-0.644133 -0.302045 0.282941
0.715458 0.136959 -0.630739
0.257013 -0.707019 -0.167862
-0.165269 -0.765221 -0.625786
-0.619867 -0.272835 -0.592170
0.290136 0.620834 0.300240
0.282597 0.622347 -0.602178
-0.620155 -0.273089 -0.591930
0.290536 0.621890 0.299658
-0.618669 -0.275371 -0.591524
0.740874 0.628486 -0.161522
-0.164418 -0.766870 -0.623202
-0.626203 0.142620 0.731506
-0.158578 -0.268962 0.751161
0.712534 0.137455 -0.631222
0.255097 -0.705999 -0.167571
0.255026 -0.706662 -0.168144
-0.160101 0.560661 0.722580
-0.135169 0.624229 -0.166358
-0.136330 0.623749 -0.167824
-0.190055 -0.713364 0.269514
-0.157808 0.171529 -0.649497
-0.157921 -0.270259 0.750310
0.287855 -0.258896 0.263361
0.283046 0.621249 -0.602182
0.286665 -0.260048 0.261119
-0.623574 0.142121 0.732358
-0.158164 0.169876 -0.646529
-0.581501 0.148537 -0.152263
0.254421 -0.706037 -0.167809
-0.626261 0.143066 0.732286
0.741419 0.623991 -0.160883
-0.158841 0.173062 -0.648449
0.290930 0.620341 0.299984
0.317558 0.171432 0.761671
-0.618476 -0.272216 -0.592007
-0.164132 -0.763762 -0.623335
0.317964 0.171960 0.761258
-0.643630 -0.302932 0.285120
-0.160449 0.559299 0.721731
0.282936 0.622039 -0.602573
0.316022 0.172291 0.760558
-0.618600 -0.271871 -0.595319
0.716066 0.138361 -0.631117
-0.642076 -0.303396 0.281335
-0.155794 -0.270516 0.751447
0.286958 -0.259037 0.263348
0.287956 -0.260065 0.262362
-0.621420 -0.273177 -0.591807
-0.166122 -0.762879 -0.622886
0.251714 -0.289713 -0.590552
0.291309 0.621692 0.300247
-0.159184 0.558631 0.721263
0.316217 0.171537 0.760689
0.289972 0.622524 0.300330
-0.564648 0.598475 0.299014
0.255538 -0.705375 -0.166489
-0.579424 0.150796 -0.153396
-0.613323 -0.749988 -0.150873
-0.625481 0.142958 0.730964
-0.624669 0.142233 0.732960
0.742454 -0.296604 -0.179370
-0.156661 -0.271057 0.750147
-0.139124 0.623671 -0.169356
0.257042 -0.706239 -0.167660
0.741848 0.625510 -0.160183
0.315846 0.170969 0.761370
-0.579402 0.148324 -0.154238
0.255454 -0.706215 -0.167300
-0.618558 -0.272552 -0.592245
0.317114 0.169853 0.761220
0.737839 0.203313 0.286273
-0.564204 0.600554 0.297185
-0.166178 -0.764157 -0.622619
-0.158438 0.171602 -0.649083
-0.165202 -0.765429 -0.623172
0.291542 0.620270 0.301367
0.291166 0.622853 0.298632
0.282054 0.621099 -0.601810
0.255121 -0.705518 -0.168359
-0.159240 0.557909 0.720505
-0.163293 -0.765209 -0.624123
0.717899 0.137682 -0.630984
-0.191007 -0.714212 0.270093
0.715604 0.136946 -0.630267
0.739393 0.626915 -0.161863
0.744574 -0.295532 -0.178341
0.291350 0.621379 0.298495
0.291101 0.620718 0.298991
-0.136282 0.623759 -0.169121
-0.136371 0.624549 -0.166673
-0.613099 -0.750027 -0.152098
-0.621270 -0.272118 -0.593876
0.289562 0.619591 0.299981
0.742377 -0.295656 -0.179421
-0.564657 0.600016 0.299464
0.714840 0.136789 -0.630431
-0.566368 0.599499 0.299194
-0.621505 -0.273255 -0.591640
-0.581860 0.149732 -0.152263
-0.627435 0.143449 0.731784
0.739040 0.203878 0.288405
-0.564995 0.599674 0.298506
-0.134813 0.622906 -0.168463
-0.582159 0.148909 -0.153429
-0.563254 0.597282 0.297801
-0.163662 -0.763503 -0.621271
-0.192468 -0.716598 0.269103
-0.158157 0.171164 -0.648908
