OFF
256 0 0
0.274058 -0.256383 0.252573
-0.633964 0.152383 -0.143707
-0.166819 -0.274792 0.717679
0.737672 0.605175 -0.158296
0.744898 0.170070 0.294890
-0.606809 0.620143 0.289037
-0.636976 -0.730838 -0.165856
0.296985 0.611195 0.292874
-0.607758 0.618375 0.290621
-0.598012 0.191101 0.735785
0.738063 -0.285752 -0.141658
0.746285 0.171318 0.294743
-0.602961 -0.288370 -0.604258
-0.132212 0.596357 -0.132191
-0.634949 -0.731003 -0.166475
0.737167 -0.285201 -0.140696
-0.152262 0.635943 0.741040
-0.634573 -0.729755 -0.166908
0.276143 -0.285500 -0.618170
0.273916 -0.255666 0.252418
0.292801 -0.766451 -0.158690
0.275148 -0.257118 0.252816
-0.175208 0.197632 -0.597397
-0.174300 -0.750352 -0.596411
0.279904 -0.284674 -0.619006
0.275631 -0.257633 0.250748
0.280287 -0.283801 -0.617828
0.737094 0.605514 -0.159258
0.272514 -0.254385 0.251971
-0.155325 0.635934 0.740521
-0.637164 -0.309186 0.289726
-0.638833 -0.309272 0.288225
-0.598787 0.188783 0.737193
0.277099 -0.284778 -0.619226
0.743854 0.168587 0.293821
0.740876 0.149140 -0.654515
0.741581 0.150678 -0.653384
-0.604198 -0.289073 -0.603313
0.294394 -0.764428 -0.157887
-0.607839 0.620389 0.289890
-0.636462 -0.308902 0.290389
0.273479 -0.257123 0.253563
-0.167465 -0.273745 0.719812
-0.165214 -0.274260 0.721500
0.738315 0.605962 -0.159841
0.292194 -0.765127 -0.157507
-0.166774 -0.738238 0.245424
0.268148 0.159345 0.750214
-0.174872 -0.750138 -0.598266
0.292815 -0.766196 -0.158416
-0.164128 -0.273503 0.718352
-0.173684 -0.749451 -0.595454
0.273806 -0.256632 0.251378
0.292751 -0.764322 -0.159800
-0.635540 -0.309016 0.290564
0.277253 -0.284329 -0.617762
-0.129952 0.598028 -0.134573
-0.174205 -0.750592 -0.598242
-0.637678 -0.307963 0.291026
-0.164701 -0.739357 0.244780
0.737139 0.605559 -0.159190
-0.175864 0.197447 -0.598505
-0.603745 -0.290931 -0.606585
-0.604550 -0.289990 -0.605866
0.294648 0.609751 0.293048
-0.636985 -0.308125 0.289516
-0.633124 -0.730783 -0.166311
-0.637168 -0.308077 0.289739
0.738337 -0.285505 -0.139711
-0.129609 0.596330 -0.134558
-0.634543 0.151938 -0.147685
-0.634293 0.152341 -0.145630
-0.634191 0.154299 -0.146047
-0.634375 0.152458 -0.144551
-0.639194 -0.307695 0.289871
-0.167590 -0.275499 0.718530
-0.172657 -0.748882 -0.595647
0.741867 0.151656 -0.652835
0.274467 -0.256725 0.252847
0.737058 0.608750 -0.159943
-0.634105 0.151994 -0.146882
0.268024 0.160209 0.750088
-0.153327 0.635830 0.739914
0.743585 0.169262 0.295268
0.736008 -0.285171 -0.140303
-0.632806 0.152635 -0.147390
0.312212 0.594394 -0.633729
0.279282 -0.284928 -0.618576
-0.603866 -0.289860 -0.605917
0.293589 -0.766458 -0.158025
-0.177771 0.194506 -0.597126
-0.168284 -0.274357 0.716753
-0.607289 0.619265 0.291727
0.293436 -0.766586 -0.158064
0.740448 0.149859 -0.653113
-0.636140 -0.309754 0.290242
0.292968 -0.766639 -0.156667
-0.633693 0.154352 -0.145578
-0.636212 -0.731294 -0.167246
0.736867 0.605833 -0.159147
-0.167493 -0.275097 0.721078
-0.173944 -0.748351 -0.596898
0.291678 -0.763137 -0.155959
-0.632504 0.153140 -0.145598
-0.175926 0.195721 -0.597122
-0.155777 0.633828 0.741520
-0.597051 0.188779 0.736380
0.297883 0.611894 0.292465
0.275485 -0.256817 0.252719
0.293214 -0.764386 -0.156617
-0.166411 -0.274441 0.719316
-0.168737 -0.739058 0.246095
-0.607535 0.620284 0.289675
-0.637942 -0.309315 0.290300
-0.152500 0.636046 0.740885
-0.166774 -0.739722 0.245740
0.293073 -0.765450 -0.157699
-0.635126 -0.730564 -0.165291
-0.152860 0.634493 0.739239
0.312986 0.595503 -0.634807
0.268552 0.159833 0.747816
0.271913 0.159535 0.748267
-0.131565 0.599181 -0.133010
0.267369 0.158418 0.749969
-0.605367 -0.289459 -0.605853
0.293432 -0.766365 -0.158666
-0.172918 -0.748805 -0.598588
0.292273 -0.765001 -0.158408
0.742164 0.149538 -0.653716
-0.167001 -0.273135 0.719979
-0.176857 0.196716 -0.596302
0.293002 -0.765686 -0.156969
0.737356 0.606374 -0.158162
-0.174553 -0.749220 -0.597106
-0.154729 0.635095 0.739952
0.270682 0.158203 0.748006
-0.608899 0.619152 0.290213
0.311529 0.595887 -0.636186
0.293583 -0.765868 -0.157894
0.313110 0.594478 -0.636026
0.293545 -0.766296 -0.156905
0.736894 0.606960 -0.158889
0.743378 0.170044 0.295141
0.297226 0.612115 0.292636
-0.638598 -0.307727 0.288273
-0.634550 0.151587 -0.146279
-0.636341 -0.307330 0.289831
-0.166311 -0.739100 0.246827
0.270370 0.160122 0.748273
-0.635025 0.152451 -0.145838
0.312752 0.597023 -0.636369
-0.176233 0.194648 -0.596059
0.293010 -0.766024 -0.158375
0.744841 0.168019 0.295200
-0.603201 -0.288844 -0.604954
0.742345 0.171534 0.296106
-0.599582 0.191225 0.737285
0.743977 0.166942 0.294482
-0.635710 -0.730741 -0.166301
-0.603822 -0.290068 -0.606488
-0.166522 -0.274516 0.719597
0.746206 0.169990 0.293613
-0.128584 0.597403 -0.132090
0.742916 0.169272 0.296368
-0.638035 -0.308646 0.292403
-0.155230 0.635650 0.740646
-0.598540 0.191447 0.737941
-0.634552 0.152653 -0.147606
0.296430 0.611426 0.293225
-0.633348 0.152477 -0.144544
-0.633533 -0.730834 -0.168145
-0.635511 -0.729243 -0.167667
0.267825 0.157781 0.748459
0.292738 -0.766605 -0.156438
-0.175302 -0.748505 -0.598278
-0.166048 -0.740000 0.244126
-0.165921 -0.273646 0.720494
0.740749 0.150059 -0.655492
-0.635678 -0.729975 -0.165842
-0.166659 -0.740159 0.245575
0.278564 -0.283847 -0.619111
0.277300 -0.284171 -0.617643
-0.605221 -0.289155 -0.605875
0.740574 0.148436 -0.652630
0.737161 0.605097 -0.157328
-0.165729 -0.275207 0.719447
-0.638635 -0.308968 0.288276
-0.636262 -0.308522 0.288816
0.742979 0.149537 -0.653418
0.270432 0.157425 0.750482
-0.638399 -0.308650 0.290366
-0.637458 -0.309822 0.289043
-0.597695 0.189428 0.736509
-0.154206 0.635324 0.742101
-0.178143 0.195596 -0.596328
0.268687 0.158004 0.749275
-0.638443 -0.307265 0.291485
0.297588 0.612037 0.291134
0.737170 0.605590 -0.158512
-0.130470 0.598142 -0.132430
0.265841 0.159359 0.748698
-0.177631 0.194513 -0.596957
-0.606973 0.619628 0.290522
0.275066 -0.284524 -0.618375
-0.635064 -0.730016 -0.169629
-0.599922 0.190007 0.736614
0.275537 -0.284996 -0.619047
-0.166069 -0.272646 0.718208
-0.635853 -0.730709 -0.165561
0.293852 -0.764894 -0.156674
0.734290 0.605907 -0.159037
-0.633671 0.152163 -0.145246
-0.607402 0.620625 0.290504
-0.153973 0.634503 0.741446
-0.607465 0.620818 0.289824
0.313978 0.595395 -0.637043
-0.131976 0.596800 -0.134256
-0.166701 -0.738899 0.246022
-0.174009 -0.750403 -0.598179
0.296876 0.612193 0.293830
-0.636328 -0.308635 0.289829
-0.633870 0.152777 -0.145740
0.312245 0.593859 -0.634822
-0.177831 0.195332 -0.598749
-0.608226 0.619457 0.289679
0.268463 0.158099 0.749669
0.741863 0.152920 -0.654326
0.738468 -0.284103 -0.140926
0.736260 0.605872 -0.158235
-0.153878 0.634179 0.738549
-0.603697 -0.290428 -0.606204
-0.130948 0.599389 -0.132789
-0.606950 0.618517 0.288809
0.736764 0.605848 -0.157278
-0.165804 -0.739908 0.245583
-0.177509 0.194678 -0.596877
-0.177833 0.193794 -0.595552
0.738493 -0.284439 -0.141641
0.311967 0.595396 -0.635123
0.277250 -0.284980 -0.616324
-0.608088 0.620944 0.288515
-0.602636 -0.290241 -0.606608
-0.129347 0.598842 -0.131672
-0.633226 0.153190 -0.147202
-0.174312 0.195421 -0.596333
-0.637597 -0.308197 0.290423
-0.166946 -0.274880 0.718067
-0.164778 -0.276039 0.718509
-0.633150 0.152741 -0.144493
-0.633939 -0.731608 -0.165904
0.277813 -0.283560 -0.618678
-0.166379 -0.738596 0.245547
-0.599915 0.189614 0.738499
0.745039 0.171910 0.296067
0.741304 0.151977 -0.654198
0.312312 0.592565 -0.635137
