OFF
256 0 0
0.293650 -0.630782 -0.631564
-0.630125 -0.632299 0.295395
0.757722 -0.167628 -0.629150
-0.632909 -0.170331 -0.166161
0.294078 -0.168298 0.756602
0.294019 -0.167448 0.759343
-0.631811 -0.168712 -0.168742
0.294718 0.292697 -0.632037
0.297474 0.292989 0.295299
-0.169441 -0.629800 0.756955
-0.631015 0.294052 -0.631658
0.295763 -0.633172 0.294657
-0.169035 0.755956 0.294658
-0.632307 -0.168427 -0.167270
0.757676 0.292435 -0.168669
0.294364 -0.630314 0.294103
0.294276 0.293221 -0.629809
0.294430 0.293501 -0.631525
-0.632195 0.294038 0.294674
-0.170089 -0.168846 -0.631428
0.294855 0.294485 0.296388
0.295290 -0.631402 -0.630111
-0.167324 -0.167640 -0.631057
-0.169599 0.757554 0.292939
-0.169595 0.757362 0.294329
0.294340 0.294858 -0.631652
-0.630868 -0.167869 0.756817
0.293862 -0.631350 0.294210
-0.167380 -0.630925 -0.167285
0.758206 -0.169237 -0.630464
0.756660 -0.166875 -0.631662
0.293897 -0.168027 0.758522
-0.167740 -0.630812 0.758645
-0.631890 -0.631947 0.293037
0.294087 0.293824 -0.629674
0.754968 -0.169878 0.294540
-0.167154 -0.631764 0.757944
-0.168652 0.758491 0.293160
0.295191 0.294691 -0.629923
-0.630588 -0.629977 0.293529
-0.167880 -0.169360 -0.632163
-0.167508 0.293883 0.756902
0.292514 -0.631370 -0.631113
-0.632289 -0.168179 -0.168211
-0.631599 0.292954 0.292314
-0.168026 -0.630923 0.757633
0.294826 0.755423 -0.170035
0.296319 -0.169084 0.757013
0.294259 0.756925 -0.166646
-0.167314 0.755447 -0.632966
0.294913 -0.169951 0.759193
-0.631767 -0.167749 0.756600
0.292287 -0.168731 0.757984
-0.168190 0.295238 0.756891
0.294109 -0.167432 0.757204
-0.169564 0.292582 0.755995
0.294716 -0.168949 0.756399
0.292984 0.756189 -0.168353
-0.632600 -0.168584 0.757244
0.295289 -0.631676 0.295197
0.293461 0.756889 -0.169243
0.293840 -0.168009 0.755059
0.294221 -0.167644 0.757191
-0.167553 0.295609 0.758833
0.293779 -0.168175 0.757814
0.758510 -0.168791 -0.631912
0.294197 0.758057 -0.169546
-0.168109 -0.631792 -0.168514
0.757662 -0.168582 -0.632515
-0.632546 -0.167542 -0.167606
-0.168284 -0.167965 -0.631470
0.296049 -0.168639 0.757610
0.294683 -0.166771 0.758130
-0.168270 0.757072 -0.629417
-0.630444 0.758202 -0.167410
0.292400 0.757199 -0.169213
-0.168215 -0.631775 0.758555
0.759746 -0.169207 -0.631079
-0.167675 -0.168715 -0.630348
0.294920 0.758015 -0.168251
-0.167664 -0.168791 -0.632284
0.758025 -0.169194 0.295135
-0.632005 -0.631661 0.294317
0.294606 -0.631898 0.293592
0.758162 -0.166576 -0.631624
0.293632 -0.629673 -0.631336
0.295307 0.294613 0.293152
-0.632306 0.295006 0.295017
0.757379 -0.169913 -0.631521
-0.169233 0.758696 0.292392
0.755901 -0.168421 -0.631749
-0.634187 0.293739 -0.631420
0.758484 -0.631254 -0.169088
-0.168179 0.757648 -0.630805
0.294220 0.294028 -0.631877
0.293508 -0.630837 -0.632586
0.755735 0.294308 -0.168557
-0.630936 0.292336 -0.630200
-0.169563 -0.166579 -0.630213
-0.631163 0.756390 -0.167013
0.755517 -0.631599 -0.169397
0.294550 -0.631472 -0.631124
-0.631100 0.296393 -0.632232
-0.168521 0.757656 0.295035
0.758550 0.294415 -0.168223
0.294583 -0.629990 -0.631486
0.757368 -0.630812 -0.168724
-0.630792 0.294894 -0.631850
-0.631580 -0.631728 0.295518
0.294236 -0.630511 0.296590
-0.167426 0.759660 -0.631351
0.294755 0.294512 -0.631378
-0.166986 -0.631957 -0.169043
-0.169764 -0.630257 -0.169775
-0.167318 -0.631229 -0.168405
-0.630647 -0.169228 0.757277
0.756538 -0.169432 0.296678
0.296613 0.756889 -0.167057
0.294291 0.757233 -0.168098
-0.630284 0.756981 -0.170189
0.757420 -0.170176 0.293188
0.757273 -0.630709 -0.167809
0.758193 -0.169525 0.294479
0.295649 -0.167930 0.758870
0.292378 -0.630745 0.295440
0.296454 0.294659 0.292934
0.293648 0.295854 0.293240
0.295102 -0.631119 -0.631797
0.294847 -0.628739 -0.629978
-0.631388 0.293905 -0.630942
0.293822 -0.169694 0.758521
0.294566 0.294042 -0.631370
0.296320 0.756667 -0.166702
0.293521 0.293871 0.294528
-0.630855 -0.166930 0.756802
-0.170514 -0.167134 -0.631329
-0.632766 0.294495 -0.630007
-0.168318 -0.630176 0.758029
0.294609 0.292874 0.293780
-0.169703 -0.631415 -0.168377
-0.630378 0.757655 -0.167698
-0.167818 0.758123 0.294985
-0.631541 0.294747 0.292920
0.294110 -0.632318 -0.630841
0.296772 -0.631524 -0.632813
-0.168048 -0.168851 -0.631116
0.294833 0.294500 0.294093
0.758044 0.294458 -0.168803
0.292797 0.295513 0.294785
-0.629988 -0.630605 0.292869
0.756805 -0.167639 0.294375
-0.631294 0.758126 -0.167328
-0.168364 0.756531 0.295317
0.756170 -0.632056 -0.168016
0.293751 0.758750 -0.169802
-0.168118 0.756760 -0.630378
0.295100 0.296561 -0.631802
0.294332 -0.629647 -0.631296
-0.633121 -0.631112 0.295024
0.295824 -0.167224 0.756369
0.294319 0.292625 -0.630823
0.294353 -0.167206 0.757298
0.757238 -0.168473 0.293928
0.293769 0.757179 -0.168465
-0.632296 0.295305 0.295512
-0.630451 -0.168638 0.756260
-0.168358 -0.168241 -0.630150
-0.630057 0.756315 -0.170053
-0.167681 0.294230 0.757708
0.294710 0.295181 0.293733
-0.169478 -0.167188 -0.629000
-0.631129 0.756975 -0.169594
0.757178 -0.167526 -0.631775
0.295453 0.295318 -0.629582
0.294907 -0.630412 0.295286
-0.166890 0.292951 0.757404
-0.169123 0.755318 0.295265
0.294399 -0.167762 0.756838
0.295163 0.755861 -0.168894
0.292954 0.756786 -0.169023
-0.632227 -0.168371 -0.167783
0.294698 0.294718 -0.631580
0.757040 0.294555 -0.168573
-0.631658 -0.629057 0.293354
-0.169399 -0.170321 -0.631159
0.756592 -0.630660 -0.168292
-0.631019 0.758640 -0.169512
0.294079 -0.170122 0.758136
-0.631516 0.296317 -0.630587
-0.168667 0.757372 -0.629520
-0.630954 0.294688 0.295720
0.295283 0.295426 0.293621
0.758940 -0.168015 0.295146
-0.631275 0.296263 0.293251
-0.169671 -0.629720 0.757384
0.294931 -0.168482 0.758451
0.757047 -0.166761 -0.628980
-0.632205 0.756798 -0.169518
-0.632139 -0.168669 -0.168243
0.293782 0.295161 0.292697
-0.632802 0.757999 -0.166653
0.755164 -0.167278 -0.631913
0.293420 0.294154 -0.633356
0.296734 -0.167665 0.755439
-0.630421 0.755735 -0.168876
0.294446 0.294004 0.294543
0.758413 -0.630145 -0.168122
0.294482 0.295498 -0.631275
-0.629992 0.294177 -0.632536
0.293370 0.292643 0.293699
-0.630983 0.293692 0.295153
0.759139 -0.168878 0.294187
0.757970 -0.631091 -0.168029
-0.167535 0.295206 0.757602
-0.632368 -0.168630 0.757100
0.295563 0.755551 -0.169860
0.294626 -0.167996 0.757894
-0.632408 0.293327 0.294340
-0.628913 0.757213 -0.168205
-0.632566 -0.630561 0.295211
-0.629184 0.755728 -0.168187
-0.167194 -0.631239 0.756501
-0.632284 -0.168069 -0.169834
0.296067 -0.632183 0.292645
-0.631070 -0.167392 -0.168142
0.757322 -0.628661 -0.168884
-0.167285 0.756850 -0.629537
-0.631814 -0.167757 0.756930
0.293695 -0.632623 0.293684
0.758316 -0.167704 0.293075
0.295365 0.758268 -0.168046
-0.631146 -0.631984 0.294260
-0.168749 0.755671 -0.629695
-0.631038 0.295277 -0.630209
-0.630788 0.295004 0.294595
-0.630087 0.294229 -0.631404
0.293696 0.293208 0.293740
-0.166905 0.292772 0.758222
-0.631831 0.294942 -0.631223
-0.169220 0.295155 0.757210
0.294538 -0.629959 0.293680
-0.165545 0.294709 0.757372
0.757626 -0.631149 -0.170189
-0.631642 0.294925 -0.630325
-0.169245 0.759347 0.295056
-0.168945 0.757075 -0.633338
0.295939 -0.168495 0.755311
0.294960 -0.631047 -0.631878
-0.629974 0.294691 -0.629399
-0.169528 -0.169928 -0.629088
-0.630719 -0.632676 0.294649
-0.166452 -0.630157 0.758300
0.756962 -0.168634 0.294032
-0.629878 0.756790 -0.167894
-0.630703 0.294086 -0.631636
0.758530 0.294047 -0.166664
