OFF
256 0 0
-0.620316 0.281732 -0.590415
-0.594886 -0.641076 0.265165
-0.139507 0.748360 -0.608078
0.296238 -0.607255 0.331838
-0.171541 0.714438 0.264672
-0.176146 0.304317 0.747217
0.295721 -0.608211 0.332309
0.270455 -0.138025 0.753545
-0.618454 0.273858 0.254635
0.726248 -0.629415 -0.147118
0.272770 -0.137638 0.753530
-0.190374 -0.617085 0.748708
-0.620437 0.283628 -0.590738
-0.620112 0.280571 -0.590348
-0.175260 0.303953 0.747666
-0.139544 -0.610263 -0.150859
-0.139287 -0.612774 -0.152441
0.284027 -0.618596 -0.636884
-0.629156 0.750696 -0.195181
-0.140184 0.748668 -0.606878
-0.170967 0.713370 0.266136
-0.174359 0.303515 0.746741
0.297317 -0.605057 0.332903
-0.140093 -0.611473 -0.151657
0.756379 -0.145380 0.289635
-0.594077 -0.638271 0.263719
-0.629037 0.754049 -0.195726
0.281730 -0.618401 -0.638153
-0.616045 -0.182616 -0.184364
-0.138604 -0.611342 -0.152692
-0.619259 0.271177 0.255170
-0.190631 -0.617391 0.748774
0.776914 0.289255 -0.155921
0.313568 0.733341 -0.164388
-0.191255 -0.616084 0.747418
-0.630544 0.751644 -0.194821
-0.157981 -0.172216 -0.617255
-0.620868 0.282738 -0.591448
-0.618211 -0.182991 -0.182069
0.280620 -0.620205 -0.638198
-0.192552 -0.616498 0.749319
-0.620517 0.270066 0.255470
0.778146 0.290218 -0.156325
0.293973 0.301114 -0.614238
-0.189642 -0.615668 0.747899
0.756664 -0.145361 0.291255
0.754865 -0.144794 0.291292
0.313043 0.737060 -0.162928
0.755885 -0.145179 0.290048
-0.170264 0.714288 0.264616
-0.138877 -0.611758 -0.153619
0.313277 0.734107 -0.163319
0.313466 0.737017 -0.163412
-0.618470 0.270279 0.253495
0.725963 -0.630096 -0.145801
0.282263 -0.617897 -0.639040
-0.138112 -0.613092 -0.153980
0.778629 0.288173 -0.153307
-0.639346 -0.136812 0.751725
-0.137990 -0.611092 -0.154109
0.312884 0.734967 -0.165541
-0.594899 -0.640123 0.264341
0.271776 -0.137213 0.753206
0.281480 -0.616968 -0.637632
0.742480 -0.156931 -0.617151
0.280486 -0.621639 -0.638559
-0.175216 0.301919 0.747054
-0.621182 0.282342 -0.591811
0.741698 -0.157394 -0.615972
0.234416 0.259731 0.271970
-0.142828 0.745600 -0.605040
0.297398 -0.606786 0.332386
0.725071 -0.628170 -0.146635
-0.616455 -0.181773 -0.182638
0.296976 -0.608053 0.332489
0.283046 -0.617958 -0.637816
-0.621228 0.282857 -0.588410
-0.622304 0.284443 -0.591809
0.296116 -0.608988 0.330867
0.724332 -0.629029 -0.145501
-0.159960 -0.171531 -0.617047
0.776094 0.288702 -0.153378
0.271928 -0.136003 0.755303
-0.628432 0.752651 -0.195873
-0.138061 -0.612085 -0.150706
0.777805 0.289864 -0.154691
0.296585 -0.608372 0.332188
0.271164 -0.137070 0.753307
0.271192 -0.137335 0.755543
-0.139749 0.748354 -0.607193
0.295171 0.301685 -0.616578
-0.175251 0.303739 0.746978
0.233978 0.260780 0.272975
0.755608 -0.146782 0.288670
0.280363 -0.617400 -0.637670
-0.176462 0.305427 0.745179
-0.173225 0.712814 0.263266
-0.621630 0.282858 -0.592465
-0.637015 -0.136606 0.749286
-0.140736 0.747814 -0.607568
0.740914 -0.157501 -0.615228
0.726321 -0.629125 -0.146578
-0.619246 -0.183808 -0.182777
-0.638220 -0.135512 0.749773
0.754131 -0.147094 0.290667
-0.594535 -0.638765 0.263379
-0.637510 -0.136424 0.750259
0.777307 0.289144 -0.156278
0.295491 0.302095 -0.613190
0.236239 0.260875 0.274096
-0.635924 -0.137506 0.748940
0.271530 -0.138677 0.754918
0.725426 -0.629612 -0.146251
-0.171283 0.712136 0.264706
-0.620326 0.282838 -0.591423
-0.139010 -0.609240 -0.152618
0.281497 -0.620058 -0.638225
-0.140581 -0.613135 -0.153308
-0.617096 -0.183013 -0.183705
-0.618609 0.283159 -0.590295
0.233560 0.259259 0.274262
0.741433 -0.158330 -0.614752
0.739370 -0.157835 -0.616047
0.272457 -0.136257 0.755437
-0.174228 0.302656 0.749995
-0.627792 0.751851 -0.196846
0.314019 0.733236 -0.162232
-0.619198 0.282433 -0.592326
-0.619995 0.281950 -0.590800
0.283727 -0.619964 -0.639929
0.280768 -0.618734 -0.638563
0.278772 -0.619008 -0.637711
0.755289 -0.146169 0.289664
-0.628972 0.752004 -0.195309
-0.616974 -0.182405 -0.181367
0.236382 0.260293 0.272667
0.313383 0.735966 -0.164357
-0.176345 0.304023 0.745927
-0.619500 0.282452 -0.591105
-0.159761 -0.174542 -0.616266
-0.637813 -0.137131 0.750868
-0.630303 0.752384 -0.196077
-0.137710 -0.611155 -0.152997
-0.139571 0.747468 -0.607073
-0.172716 0.712236 0.264772
0.778269 0.289916 -0.155633
-0.619509 0.284721 -0.590571
0.271903 -0.137795 0.754975
-0.159293 -0.172945 -0.617505
0.753816 -0.144605 0.289584
-0.620268 0.281997 -0.590720
0.741156 -0.158358 -0.615542
-0.138956 -0.611022 -0.152603
0.272417 -0.137631 0.754613
-0.172770 0.714023 0.264515
-0.159926 -0.171929 -0.615817
-0.141919 0.747307 -0.604922
-0.175074 0.302276 0.748377
0.295056 0.301694 -0.612703
-0.138248 -0.608607 -0.151521
-0.637302 -0.138093 0.750428
-0.159584 -0.171679 -0.618200
0.296234 -0.606170 0.330223
-0.617654 0.283991 -0.588797
-0.628290 0.753061 -0.194163
-0.619786 0.281878 -0.592642
-0.159738 -0.171318 -0.617299
-0.595336 -0.640625 0.264747
0.740642 -0.158581 -0.616655
-0.631493 0.751822 -0.196090
-0.619866 0.271585 0.252647
-0.170177 0.714355 0.264357
0.742255 -0.157709 -0.614713
0.235317 0.261019 0.275702
-0.175859 0.303829 0.748254
0.279983 -0.618397 -0.638858
-0.616872 -0.183088 -0.182431
0.272879 -0.136872 0.754848
-0.637029 -0.136277 0.750249
-0.620062 0.283203 -0.590986
0.271763 -0.138566 0.754901
-0.629601 0.752820 -0.193493
-0.629407 0.752011 -0.196389
-0.637230 -0.138624 0.751383
0.297686 -0.606902 0.332537
0.298335 -0.606702 0.332511
0.742342 -0.156101 -0.613561
0.777300 0.288926 -0.155220
0.724516 -0.630008 -0.144078
-0.620221 0.283175 -0.588338
0.724548 -0.629801 -0.145018
-0.618961 0.271827 0.254678
0.725899 -0.629149 -0.145202
-0.175604 0.303889 0.747413
-0.171167 0.713962 0.264399
-0.628304 0.752996 -0.195162
-0.617625 -0.182130 -0.182554
-0.172654 0.713925 0.265734
-0.191573 -0.617753 0.749865
0.315219 0.738171 -0.162424
-0.629609 0.751614 -0.195529
0.741417 -0.157238 -0.615261
-0.137632 -0.611263 -0.152116
-0.618469 0.268121 0.251064
0.233097 0.259351 0.273498
0.777085 0.289519 -0.155466
0.726040 -0.628279 -0.147753
0.281709 -0.620749 -0.639040
0.235895 0.259653 0.272406
0.293455 0.302618 -0.613274
0.281432 -0.619390 -0.639309
0.235583 0.259440 0.274682
0.755868 -0.144379 0.290636
-0.140743 0.745897 -0.605517
-0.627582 0.750841 -0.195478
-0.595623 -0.641095 0.263550
0.742914 -0.155836 -0.616659
0.297866 -0.607387 0.330781
-0.138901 -0.610474 -0.153445
-0.619681 0.271297 0.251879
-0.172206 0.711982 0.265141
0.723475 -0.629977 -0.144836
0.297650 -0.606744 0.331924
0.234733 0.260453 0.274811
0.270650 -0.136886 0.753423
-0.176809 0.302332 0.748290
0.742950 -0.158514 -0.616354
-0.636806 -0.138684 0.748854
-0.618204 0.280715 -0.590132
-0.621622 0.282245 -0.591946
-0.175203 0.302737 0.746828
0.314200 0.735162 -0.162972
-0.636876 -0.137464 0.750088
-0.190017 -0.617189 0.748546
0.741618 -0.157761 -0.617477
-0.172065 0.713655 0.264696
-0.594909 -0.638588 0.262383
-0.139531 0.747554 -0.605554
-0.618168 0.270167 0.252660
-0.176931 0.303742 0.747136
0.294805 0.300343 -0.613452
-0.159049 -0.172011 -0.616113
-0.638620 -0.137993 0.748917
-0.619478 0.273189 0.253654
0.741267 -0.157351 -0.617236
0.723060 -0.629169 -0.143496
0.314400 0.736218 -0.162560
0.281203 -0.617985 -0.637554
-0.176061 0.304923 0.746261
0.272272 -0.137851 0.755157
-0.161749 -0.173859 -0.617382
-0.619336 0.284181 -0.590092
0.778019 0.289517 -0.154211
-0.138373 -0.612415 -0.151964
-0.617429 -0.184275 -0.181519
-0.171227 0.711791 0.265183
