OFF
256 0 0
-0.162936 0.763123 0.305481
-0.620032 0.768652 -0.161105
0.739253 0.289285 -0.117307
0.752946 -0.174416 -0.600363
-0.154445 0.744462 -0.599623
-0.169225 -0.631804 0.727228
-0.616797 -0.618200 0.265949
0.270192 0.287009 0.292721
-0.617837 -0.616124 0.263877
0.284191 0.739998 -0.157649
-0.169376 -0.633297 0.727577
-0.618809 0.767224 -0.159675
-0.604920 -0.169561 0.711615
0.270807 0.289139 0.292372
-0.162108 0.763112 0.303749
0.754313 -0.173134 -0.598004
-0.154773 0.744513 -0.599869
-0.604873 -0.170648 0.710330
-0.162055 0.763338 0.304134
0.282872 0.741684 -0.156714
-0.605955 -0.171967 -0.175009
-0.169227 -0.631250 0.729283
-0.605113 -0.170399 -0.175644
-0.616644 -0.617831 0.265567
-0.602507 -0.169667 -0.177416
0.298313 -0.610239 0.264807
0.739826 0.289241 -0.118892
0.753283 -0.172317 -0.598511
-0.163213 0.764951 0.303015
-0.603720 -0.171535 -0.176383
-0.161973 -0.642362 -0.182688
-0.145466 -0.128526 -0.596554
0.728984 -0.593922 -0.186697
-0.617314 -0.618359 0.266131
0.298938 -0.610272 0.265840
0.755175 -0.172220 -0.597189
-0.168397 -0.630816 0.725709
-0.645567 0.285361 -0.620352
0.740313 0.290366 -0.116528
-0.618564 -0.617678 0.264717
-0.605954 0.242288 0.278222
0.752661 -0.172301 -0.598086
0.281796 0.740427 -0.157960
0.258737 -0.606789 -0.651879
-0.619988 0.769693 -0.158887
0.742874 -0.182681 0.312200
0.752873 -0.174706 -0.597358
0.269429 0.290645 0.294307
-0.620270 0.768291 -0.159050
-0.161778 0.763469 0.303731
0.739243 0.288478 -0.116747
-0.621974 0.767858 -0.159402
-0.169766 -0.632036 0.726793
0.263194 -0.194056 0.756125
0.290604 0.291912 -0.615710
-0.161876 0.764754 0.305259
-0.608218 0.240513 0.277270
0.753557 -0.173776 -0.598595
-0.601363 -0.169655 0.710977
0.298471 -0.609146 0.265544
0.284369 0.738313 -0.157733
0.264332 -0.194089 0.757679
0.296336 -0.610307 0.263810
0.752133 -0.174000 -0.598459
-0.645520 0.284840 -0.621128
-0.606588 0.240060 0.276371
-0.147108 -0.128633 -0.597397
0.728446 -0.594975 -0.185645
0.743287 -0.181714 0.311845
-0.607784 0.239505 0.277998
-0.605722 0.240358 0.277018
0.271041 0.290794 0.293460
0.737483 0.290030 -0.118473
-0.164393 0.765857 0.303172
-0.606463 0.240893 0.277688
0.259792 -0.607741 -0.650790
0.290762 0.292892 -0.616305
-0.619922 0.766350 -0.160309
0.727699 -0.595334 -0.184416
0.728004 -0.595265 -0.183959
-0.645433 0.284667 -0.620040
-0.618293 -0.619131 0.265006
-0.154367 0.745706 -0.600372
0.268829 0.290560 0.292593
0.270563 0.289252 0.291853
0.742620 -0.182983 0.313666
-0.137423 0.311868 0.751467
-0.138197 0.310410 0.749674
0.282851 0.741148 -0.157235
-0.603539 -0.169745 0.711104
0.268962 0.290251 0.294104
-0.603347 -0.170875 -0.177080
0.260843 -0.606497 -0.650303
-0.154467 0.742740 -0.599192
-0.139292 0.311950 0.750872
0.282114 0.740934 -0.157204
-0.147377 -0.129546 -0.597470
-0.607539 0.241626 0.277851
0.270360 0.289975 0.293579
-0.619445 0.767911 -0.159393
-0.605450 0.239797 0.279818
-0.607922 0.240969 0.279289
-0.169723 -0.632484 0.727853
-0.155083 0.743852 -0.599315
-0.169037 -0.632663 0.728742
0.260149 -0.608208 -0.649535
0.740876 -0.183202 0.312330
-0.603587 -0.170568 -0.177663
-0.605300 -0.168261 0.709541
-0.604588 -0.170798 -0.177161
-0.619158 0.768420 -0.160144
-0.161079 -0.642305 -0.181583
0.738100 0.289221 -0.118089
-0.646303 0.284915 -0.621971
-0.154777 0.743085 -0.599527
0.283835 0.741024 -0.154294
-0.604768 0.238852 0.277714
-0.161995 0.764066 0.302292
0.741820 -0.182964 0.310891
0.754137 -0.172565 -0.597071
0.281564 0.740364 -0.156756
-0.620241 0.766953 -0.161166
0.265406 -0.193500 0.756507
0.741803 -0.182841 0.312461
0.727532 -0.595050 -0.186485
0.755204 -0.173857 -0.596959
0.295726 -0.610464 0.266289
-0.644401 0.284783 -0.620539
0.739367 0.289648 -0.118275
-0.161679 -0.639027 -0.180760
-0.644269 0.284409 -0.620029
-0.159762 -0.642171 -0.181166
0.740354 -0.182799 0.313060
0.743604 -0.182572 0.312509
-0.147093 -0.129497 -0.597543
0.269139 0.290063 0.294319
-0.646044 0.286818 -0.620391
0.259950 -0.606950 -0.649748
0.729509 -0.594309 -0.185976
0.741448 -0.182458 0.312642
-0.602314 -0.169521 0.709807
-0.604811 0.240879 0.279065
-0.644301 0.284500 -0.620813
-0.163942 0.763737 0.303938
0.298278 -0.609855 0.264403
0.266483 -0.193901 0.755587
0.285553 0.738387 -0.156140
-0.144722 -0.127199 -0.598720
-0.618730 -0.617421 0.264861
0.282790 0.739627 -0.157044
0.754644 -0.171946 -0.596958
-0.156103 0.742268 -0.598404
-0.605188 -0.169421 0.710063
-0.168061 -0.631255 0.726166
-0.163175 0.764257 0.305304
0.268078 -0.195985 0.756964
-0.155665 0.743561 -0.600304
-0.618697 0.767208 -0.159658
-0.147276 -0.129077 -0.596310
-0.603423 -0.172096 -0.176551
0.298093 -0.609344 0.266404
0.298219 -0.608825 0.267007
-0.617980 -0.617050 0.262945
0.265238 -0.195172 0.756882
0.753392 -0.174503 -0.597982
0.290558 0.292353 -0.614658
0.729500 -0.597410 -0.186465
0.270468 0.292052 0.294306
0.754237 -0.174135 -0.596877
0.738578 0.289694 -0.117672
0.727562 -0.596239 -0.187769
0.291301 0.292883 -0.616417
0.742278 -0.181209 0.312191
0.282480 0.741357 -0.159428
-0.601959 -0.168552 0.710492
0.743759 -0.183799 0.312477
0.270046 0.290854 0.292098
-0.146725 -0.128303 -0.598114
-0.156355 0.742478 -0.600162
0.270231 0.289761 0.293187
0.752954 -0.173604 -0.597545
0.271920 0.291048 0.293299
-0.154957 0.742651 -0.598229
-0.646578 0.285662 -0.620754
-0.155138 0.744819 -0.599205
-0.603472 -0.169593 0.709296
-0.143997 -0.129053 -0.598431
0.270303 0.289552 0.293299
-0.602551 -0.170987 0.711005
0.728765 -0.596368 -0.187287
-0.620853 0.767768 -0.157216
-0.145440 -0.128799 -0.597761
-0.603284 -0.169745 0.710729
0.290744 0.293826 -0.615862
-0.602973 -0.170307 0.709625
0.262325 -0.608977 -0.649117
-0.141645 0.311386 0.750692
0.284497 0.739996 -0.157560
-0.145617 -0.128280 -0.598267
-0.160598 -0.643541 -0.181314
-0.605260 -0.171028 0.710573
0.751739 -0.174859 -0.598396
0.282243 0.739774 -0.157074
-0.618538 0.768366 -0.160902
-0.620182 0.766521 -0.159068
0.264520 -0.194341 0.755269
-0.619888 0.768654 -0.160721
0.283444 0.740359 -0.159139
-0.616740 -0.618902 0.267790
0.261579 -0.608980 -0.651373
-0.159685 -0.639888 -0.182328
-0.145207 -0.129894 -0.599905
-0.619483 0.768502 -0.160946
-0.621972 0.768646 -0.159645
-0.645098 0.285511 -0.621445
-0.606376 0.239352 0.279333
-0.139150 0.311582 0.750962
-0.146811 -0.128550 -0.596556
-0.605643 -0.170267 0.709579
-0.646108 0.284811 -0.620905
-0.607857 0.241450 0.279056
0.742975 -0.182884 0.313260
0.269263 0.292445 0.292122
0.741098 -0.182869 0.311478
-0.169414 -0.632409 0.726480
0.258455 -0.608104 -0.652386
0.289534 0.294712 -0.615460
-0.161642 -0.640510 -0.182712
-0.164728 0.763569 0.303722
-0.621726 0.768260 -0.158637
0.267057 -0.194600 0.754259
-0.607429 0.241765 0.279762
0.266703 -0.194587 0.755760
-0.605948 0.239976 0.277640
-0.159926 -0.640321 -0.184117
-0.619473 0.767812 -0.160715
-0.154906 0.744004 -0.599677
-0.606597 0.239563 0.278076
0.739152 0.290507 -0.118372
-0.156319 0.742929 -0.599582
-0.604554 -0.169542 -0.177417
0.739432 0.287841 -0.118705
-0.603964 -0.170798 0.711796
-0.605091 -0.170051 0.710788
0.297316 -0.610354 0.266296
-0.160031 -0.642691 -0.180162
0.261883 -0.608094 -0.650001
0.283188 0.740270 -0.158214
-0.153970 0.743561 -0.601722
0.741706 -0.183040 0.312149
0.296570 -0.609146 0.265561
0.296119 -0.609317 0.264589
-0.156481 0.743947 -0.599536
0.753264 -0.174360 -0.597494
-0.619380 0.768010 -0.159865
-0.617963 -0.617823 0.266076
