OFF
256 0 0
-0.494049 -0.016722 0.780787
0.317194 0.432625 -0.383353
-0.081390 0.808598 -0.388910
0.287516 -0.840370 -0.027508
0.323162 0.010800 0.806018
-0.532798 0.401749 -0.394157
-0.116335 -0.425300 0.801347
-0.500426 -0.004274 -0.800101
0.286985 -0.840929 -0.023860
0.296365 -0.405816 -0.387418
-0.489261 -0.436428 0.384353
0.741395 0.432071 0.007861
-0.117807 -0.424919 0.798783
-0.488918 -0.437337 0.383124
-0.109263 -0.413957 -0.824096
-0.492874 0.844011 0.022322
0.317663 0.828912 0.004019
-0.107014 0.422610 -0.822542
-0.526750 -0.007966 0.021591
-0.115317 -0.424824 0.798822
0.287779 -0.839842 -0.025989
-0.098455 0.440963 0.819516
0.293129 0.416732 0.422030
-0.467540 0.414236 0.413704
0.317462 0.828445 0.001818
-0.492983 -0.017444 0.780220
0.316942 0.826547 0.003801
0.318906 0.828614 0.005179
0.738410 0.433142 0.009746
-0.525326 -0.399293 -0.410478
0.294523 -0.407806 -0.386850
-0.526084 -0.400785 -0.409809
-0.527239 -0.007570 0.020880
-0.082904 0.843232 0.422826
-0.084601 0.841437 0.423062
-0.116399 -0.425204 0.800512
-0.493757 0.844391 0.020446
-0.488405 -0.437657 0.383925
-0.091390 -0.826724 0.398969
0.306476 -0.412583 0.409289
-0.527958 -0.008813 0.020787
-0.487943 -0.435652 0.384514
-0.488528 -0.436638 0.385123
-0.083415 0.842545 0.423451
0.317276 0.829326 0.004044
-0.487147 -0.437165 0.383305
-0.493273 -0.016894 0.780469
-0.493139 -0.016089 0.778167
-0.107388 0.423936 -0.822329
-0.526371 -0.008291 0.020610
-0.486674 -0.437011 0.383488
-0.527596 -0.009295 0.021745
-0.090651 -0.826549 0.399333
-0.533546 0.403771 -0.393491
-0.108295 -0.416923 -0.824985
-0.109433 -0.419284 -0.824423
0.294704 0.417510 0.421239
-0.122889 -0.849786 -0.402445
0.727312 0.034666 0.370750
0.726847 0.033727 0.370651
0.286086 -0.839156 -0.022329
-0.094611 0.440814 0.816953
-0.081195 0.808128 -0.387133
-0.526185 -0.399489 -0.408146
0.318614 0.430496 -0.381902
-0.107911 0.423473 -0.822000
-0.115623 -0.421519 0.799054
-0.123599 -0.849426 -0.402920
0.317033 -0.013438 -0.832260
0.316658 -0.012104 -0.831043
-0.492869 -0.015216 0.779596
-0.095380 0.442377 0.818894
0.318010 0.431868 -0.381827
-0.527382 -0.401256 -0.412072
-0.526310 -0.399087 -0.411245
-0.107492 -0.417503 -0.823406
0.296598 -0.407296 -0.385955
0.729324 0.035178 0.372777
-0.081745 0.809393 -0.388395
-0.499365 -0.002407 -0.800537
-0.525402 -0.008880 0.021133
0.294802 -0.406387 -0.388588
-0.528319 -0.007312 0.022987
-0.493128 -0.016464 0.779511
-0.532002 0.402889 -0.394043
-0.088320 -0.826746 0.398851
0.306461 -0.412115 0.408266
0.317397 0.431046 -0.380701
0.318196 -0.012903 -0.831726
-0.089958 -0.825227 0.400006
0.309004 -0.412481 0.409307
-0.082992 0.840850 0.422437
-0.084926 0.842303 0.423411
-0.115768 -0.422685 0.799445
0.737698 0.434726 0.007472
-0.493211 -0.016648 0.778606
0.322343 0.012562 0.805667
-0.109241 0.423867 -0.820788
-0.123491 -0.849049 -0.404733
-0.467270 0.412750 0.413443
0.294516 0.417621 0.423064
-0.467012 0.412695 0.413690
-0.115522 -0.424461 0.798865
-0.492749 0.842775 0.020761
0.738922 0.433813 0.008906
0.739648 0.433202 0.009048
0.318323 0.430898 -0.380436
-0.493999 0.842995 0.021409
-0.489016 -0.437739 0.384652
-0.085198 0.841672 0.422052
0.293434 0.418645 0.422474
-0.500170 -0.003552 -0.802973
-0.494385 -0.017377 0.780427
-0.487447 -0.437611 0.382140
-0.528201 -0.008641 0.020814
0.319134 -0.014658 -0.831955
0.317446 0.430379 -0.381409
0.724450 -0.428649 -0.010380
-0.095733 0.439601 0.819033
-0.095961 0.442248 0.818996
-0.095964 0.441393 0.818777
0.719011 -0.006744 -0.386697
-0.493250 0.845071 0.022013
0.324221 0.011083 0.804110
0.721141 -0.005790 -0.386770
0.324896 0.011728 0.806087
-0.499162 -0.001879 -0.801882
-0.527047 -0.009556 0.022091
-0.084046 0.841782 0.423690
-0.084059 0.808880 -0.388050
0.294262 0.419274 0.421364
-0.088917 -0.825939 0.397949
0.740540 0.433822 0.009082
0.739312 0.434717 0.009861
0.719144 -0.007135 -0.386513
0.317024 -0.012551 -0.832656
0.319019 0.431436 -0.382850
-0.494334 0.843226 0.021551
0.295539 -0.405051 -0.386819
-0.088155 -0.826008 0.400689
0.323855 0.010967 0.804352
0.316558 0.430770 -0.382292
-0.081820 0.808599 -0.389956
-0.095991 0.441826 0.817179
0.286135 -0.839611 -0.023439
0.726168 -0.427581 -0.009148
-0.535540 -0.845166 -0.016946
-0.531269 0.403766 -0.394370
0.307665 -0.412675 0.407569
-0.108793 -0.417404 -0.824082
0.730185 0.031688 0.373460
0.722631 -0.427271 -0.007748
0.720468 -0.003610 -0.386569
-0.466879 0.413764 0.415179
-0.532973 0.403260 -0.394909
-0.089700 -0.825985 0.400372
-0.534801 -0.844557 -0.018894
-0.535942 -0.845316 -0.018633
0.307480 -0.414558 0.409873
-0.533130 0.403430 -0.395193
-0.494550 0.842374 0.020778
-0.111647 0.421846 -0.820970
-0.085644 0.841968 0.422471
0.325491 0.011094 0.805970
-0.500325 -0.003503 -0.801284
-0.533024 0.404358 -0.393599
-0.082016 0.810505 -0.389528
0.720956 -0.006273 -0.386048
-0.493372 -0.014993 0.779840
-0.487051 -0.437358 0.382686
0.316682 0.431969 -0.381061
-0.497700 -0.004752 -0.801311
-0.083392 0.842664 0.423988
-0.467747 0.413914 0.413745
0.316735 -0.013796 -0.832749
0.308159 -0.413646 0.409247
0.740873 0.434913 0.007857
0.295829 -0.408115 -0.389418
-0.110231 -0.417621 -0.826258
-0.084209 0.842967 0.423180
-0.499621 -0.003227 -0.800868
-0.109387 0.424633 -0.821181
0.322954 0.009208 0.804894
0.316329 -0.012408 -0.832105
-0.489172 -0.437561 0.383930
0.317400 -0.011809 -0.833429
-0.498027 -0.001950 -0.801696
0.318321 -0.010860 -0.832954
-0.525771 -0.009125 0.021775
0.316950 0.431100 -0.382269
-0.084891 0.841160 0.423715
0.317071 0.434224 -0.381849
0.728920 0.034522 0.370679
-0.533061 0.402846 -0.393425
0.297089 -0.406269 -0.387872
-0.085399 0.841111 0.424341
-0.085438 0.840573 0.424396
0.725426 -0.427072 -0.010038
0.293453 -0.408482 -0.387432
-0.528463 -0.007335 0.021380
-0.493975 0.843320 0.019872
0.739349 0.434047 0.011808
0.315527 0.828636 0.003456
-0.500809 -0.003820 -0.801510
-0.107863 -0.417152 -0.824779
-0.089096 -0.825166 0.401240
-0.088637 -0.825287 0.401555
-0.081410 0.809929 -0.388011
-0.531683 0.401316 -0.394666
-0.095947 0.440152 0.819226
-0.487084 -0.437582 0.384923
-0.091231 -0.823921 0.398142
-0.096953 0.440605 0.818321
0.292687 0.417802 0.422919
0.307351 -0.413328 0.410629
-0.085316 0.842471 0.423130
0.287065 -0.841589 -0.023767
-0.495468 0.841784 0.019740
-0.526518 -0.400954 -0.408241
-0.118274 -0.421313 0.798203
-0.083161 0.843442 0.423046
0.324021 0.009841 0.806144
-0.122816 -0.846985 -0.405545
-0.526390 -0.400042 -0.410121
-0.121766 -0.849066 -0.404099
-0.532382 0.403090 -0.394081
0.720947 -0.006688 -0.384175
0.316157 -0.014230 -0.833806
-0.114642 -0.423442 0.800947
-0.526185 -0.008142 0.021543
-0.118387 -0.424092 0.798470
-0.108939 0.424517 -0.820571
-0.081694 0.809955 -0.387764
-0.494070 -0.015126 0.778365
0.286756 -0.840014 -0.026807
-0.094025 0.441501 0.818929
-0.532805 0.404757 -0.394334
-0.098656 0.441165 0.818280
-0.486390 -0.439796 0.383118
-0.095092 0.440697 0.819727
-0.083435 0.808926 -0.389276
-0.526915 -0.007603 0.021106
0.305576 -0.413826 0.408675
0.739121 0.435026 0.009434
0.731153 0.032330 0.372852
0.316148 0.431466 -0.380701
-0.534420 -0.843644 -0.016425
-0.122178 -0.847939 -0.404847
-0.109565 -0.417605 -0.824620
-0.083442 0.808431 -0.388713
-0.095787 0.441715 0.817739
0.315952 0.432049 -0.380711
-0.466830 0.413225 0.413592
0.719702 -0.006752 -0.386735
-0.092851 0.440444 0.818434
0.295950 -0.406446 -0.387640
