OFF
256 0 0
0.210826 0.218013 -0.660720
-0.226161 -0.214240 -0.664646
-0.230557 -0.661384 -0.210195
0.209633 0.217353 -0.660759
0.210963 0.217265 -0.660758
-0.632064 -0.241015 0.651558
0.222478 -0.686867 -0.689592
-0.198700 0.653855 -0.662470
0.664066 -0.218079 0.267239
0.646894 0.243071 0.675678
-0.227212 0.698908 0.192050
0.211111 0.687730 0.655592
0.646554 -0.663203 -0.220974
-0.237081 0.211075 0.660411
0.213079 -0.210104 0.704569
0.663882 -0.219703 0.268950
0.208799 0.216682 -0.659739
-0.631520 -0.238430 0.650770
-0.699746 0.668078 -0.237802
0.647885 0.242118 0.675293
0.232499 0.672634 -0.229064
-0.228235 -0.212638 -0.664068
-0.225083 -0.213682 -0.662784
0.662613 -0.257239 -0.661287
-0.226955 0.699498 0.189835
0.662846 -0.218204 0.269591
0.660511 -0.258503 -0.659411
0.692492 0.660651 0.209866
0.692739 0.662260 0.211207
-0.661602 0.238318 -0.645993
-0.226076 -0.213130 -0.662195
0.648794 0.242922 0.674570
0.663899 -0.216539 0.268406
-0.215966 -0.669738 0.670269
0.693486 0.661575 0.209700
0.213331 -0.210339 0.703933
-0.655223 -0.669562 0.215754
-0.228253 -0.215878 -0.663313
0.659486 -0.258032 -0.659871
0.210796 -0.209067 0.703973
-0.646472 -0.225580 -0.228488
0.669781 0.205391 -0.244292
0.648591 -0.663854 -0.219781
0.647914 -0.659574 -0.219749
0.646749 0.243538 0.673413
0.646813 -0.660722 -0.219892
-0.228205 -0.214737 -0.664463
0.664277 -0.217533 0.270221
-0.230934 -0.659469 -0.211385
-0.700363 0.666496 -0.239115
0.670866 0.207074 -0.245186
0.236045 -0.646003 0.253873
0.235883 -0.646434 0.252406
0.210920 -0.210185 0.701914
0.692696 0.661771 0.209613
0.224248 -0.688135 -0.690387
0.659792 -0.256621 -0.660787
0.210953 0.686236 0.656413
0.672217 0.206458 -0.245244
0.646335 0.243414 0.675486
-0.236925 0.212223 0.660154
-0.658051 -0.670056 0.214277
0.211878 -0.211771 0.703090
-0.648966 -0.226452 -0.229256
0.645697 -0.664593 -0.218620
0.694229 0.662564 0.208598
0.210167 0.218067 -0.658820
-0.196525 0.653194 -0.661539
-0.218819 -0.671137 0.668517
-0.216550 -0.671276 0.670406
0.212009 -0.209732 0.702753
0.211044 0.215592 -0.660140
-0.197679 0.654031 -0.661539
-0.661120 0.238671 -0.644436
0.659961 -0.257865 -0.659442
-0.653459 -0.668646 0.214885
0.692101 0.662839 0.209754
-0.654416 -0.670598 0.215049
0.235675 -0.647892 0.252405
0.691865 0.660952 0.209227
0.672899 0.206203 -0.244320
-0.647238 -0.226459 -0.226570
-0.228948 0.700230 0.191509
0.211785 0.216385 -0.658746
-0.655019 -0.670211 0.215574
-0.215556 -0.673321 0.669960
-0.229375 -0.661503 -0.210728
0.647224 0.244255 0.677088
-0.237617 0.210358 0.658419
-0.230559 -0.661307 -0.210155
-0.661410 0.238756 -0.647169
-0.676865 0.204842 0.206613
-0.227442 -0.214547 -0.662549
-0.701204 0.667038 -0.238653
-0.676492 0.204978 0.205540
-0.227542 0.700213 0.190535
0.236160 -0.646571 0.253235
-0.652937 -0.669914 0.214252
-0.660498 0.238953 -0.646081
0.659776 -0.259059 -0.659226
-0.217478 -0.670648 0.668564
0.694289 0.661774 0.209705
0.693522 0.661862 0.209895
0.647302 0.244247 0.675115
-0.228971 0.698943 0.190827
-0.226179 0.700978 0.189520
0.661769 -0.257401 -0.661219
0.211119 0.685751 0.656614
-0.216491 -0.670479 0.669839
-0.199065 0.653935 -0.661643
0.211206 0.685899 0.654964
0.212253 0.686717 0.655951
-0.631407 -0.238770 0.651149
0.211500 0.686517 0.656758
0.233577 0.674936 -0.228202
-0.196925 0.652435 -0.663032
0.659313 -0.256944 -0.658357
-0.227907 -0.213819 -0.662843
0.223766 -0.687714 -0.689696
-0.227252 -0.214445 -0.661885
0.660951 -0.256805 -0.659355
-0.238283 0.212700 0.659652
0.660352 -0.259238 -0.659998
-0.227528 0.700449 0.190705
0.670142 0.206657 -0.243386
0.211710 0.686628 0.656069
0.665102 -0.218372 0.268011
0.236424 -0.645481 0.253100
0.649641 -0.662091 -0.221889
-0.677717 0.205423 0.205875
0.232023 0.673384 -0.228838
0.665307 -0.217033 0.269982
0.692615 0.660599 0.210343
0.232596 0.673807 -0.229059
0.234640 0.675013 -0.225816
0.236691 -0.646860 0.253507
0.670743 0.206254 -0.244030
0.211862 0.685761 0.656877
-0.654807 -0.669941 0.218194
-0.227462 0.700874 0.191708
-0.700775 0.668708 -0.236083
-0.648310 -0.225693 -0.228670
-0.699457 0.666952 -0.240572
-0.230641 -0.660415 -0.212081
0.225058 -0.687559 -0.692668
0.210944 -0.209551 0.703562
0.211344 -0.209855 0.704337
-0.648214 -0.228269 -0.228189
-0.632645 -0.238837 0.652438
-0.653395 -0.670492 0.215109
0.223237 -0.686088 -0.691552
0.212394 0.687105 0.657625
0.209444 0.218092 -0.661605
-0.661066 0.238613 -0.646195
0.659026 -0.257403 -0.661071
-0.653431 -0.669171 0.215242
-0.229978 -0.660848 -0.210799
-0.654677 -0.668017 0.215854
-0.215681 -0.671142 0.671442
-0.216271 -0.670156 0.671236
0.664018 -0.216407 0.268318
0.210333 0.216793 -0.661312
-0.654564 -0.670372 0.214066
-0.648160 -0.225182 -0.230078
0.234100 0.675116 -0.227541
0.210638 0.217088 -0.661244
-0.229357 -0.660168 -0.211282
-0.631438 -0.240012 0.651555
-0.659482 0.239420 -0.646108
0.231978 0.672780 -0.229155
0.211872 0.685678 0.656187
0.671429 0.206358 -0.243580
0.211117 -0.211569 0.702262
-0.227380 0.699881 0.190429
-0.635487 -0.239652 0.650950
0.645796 -0.662496 -0.219379
0.647224 -0.661938 -0.220642
-0.216221 -0.669875 0.670439
-0.236773 0.211917 0.661000
-0.698294 0.667193 -0.239550
-0.655280 -0.668485 0.213475
0.693576 0.660297 0.208277
-0.226308 -0.215484 -0.662614
0.224003 -0.685723 -0.691651
0.210345 0.217291 -0.660726
-0.699945 0.667640 -0.237856
-0.227120 0.698728 0.189826
0.210213 0.217363 -0.660489
-0.227131 -0.213973 -0.662541
0.658979 -0.257761 -0.660456
0.664536 -0.218465 0.269466
0.210549 -0.210339 0.702739
-0.238548 0.211263 0.660875
-0.632677 -0.238495 0.650626
0.645961 -0.662863 -0.220093
0.660587 -0.256501 -0.660559
0.236775 -0.645831 0.254515
0.663830 -0.217899 0.268942
-0.676344 0.205110 0.202362
0.662753 -0.216676 0.270331
-0.215681 -0.672151 0.671905
0.659961 -0.257804 -0.658594
-0.699832 0.667223 -0.238870
-0.226983 0.699747 0.190876
-0.228674 -0.661390 -0.210625
-0.653884 -0.668886 0.214560
0.663317 -0.257895 -0.660466
-0.647941 -0.225294 -0.230828
-0.661987 0.237938 -0.648565
0.232508 0.673837 -0.228781
-0.660417 0.238145 -0.646918
0.210709 0.218358 -0.662028
-0.197513 0.652470 -0.663282
0.660857 -0.257896 -0.659263
0.208687 0.215685 -0.660280
0.211069 0.686484 0.655479
-0.198399 0.654943 -0.661848
-0.630946 -0.239400 0.650300
0.665189 -0.218870 0.268670
0.210056 0.218988 -0.659185
0.692712 0.660471 0.208754
0.646599 0.244994 0.675224
-0.661275 0.238453 -0.647169
0.233303 0.673311 -0.226778
0.210991 0.686459 0.656702
-0.227562 0.699844 0.190389
-0.699468 0.667179 -0.239071
0.662887 -0.220993 0.267339
0.646379 -0.661497 -0.220014
-0.237280 0.212386 0.661268
0.213370 -0.208854 0.703436
0.235199 -0.645352 0.254382
-0.655280 -0.668840 0.215368
0.236723 -0.644837 0.254454
-0.699348 0.666137 -0.237810
0.663617 -0.220092 0.268770
-0.632636 -0.239251 0.650415
-0.225730 -0.212953 -0.664708
0.222844 -0.686906 -0.691419
0.659933 -0.257646 -0.659005
0.212593 0.685069 0.657630
-0.677129 0.204109 0.205008
0.693767 0.659485 0.209003
-0.237308 0.210462 0.659677
-0.239166 0.212139 0.660068
-0.676702 0.203324 0.204398
0.210083 0.216274 -0.661136
0.670438 0.206523 -0.244719
0.212856 0.685544 0.657176
0.692366 0.661356 0.209670
0.693471 0.662026 0.209673
0.231616 0.673066 -0.228063
0.208805 0.216586 -0.660386
-0.226738 0.699950 0.190893
-0.655444 -0.668374 0.215728
0.661120 -0.256927 -0.657420
