OFF
256 0 0
-0.185840 -0.587823 0.723917
-0.595275 0.277085 0.294654
-0.612834 0.269717 -0.602184
-0.142788 -0.595212 -0.174119
0.260510 0.750998 -0.180139
-0.609571 -0.593519 0.276527
0.743840 -0.603755 -0.175975
-0.615963 -0.176150 -0.182735
-0.610505 -0.155758 0.732832
0.723612 0.238797 -0.166878
-0.596781 0.277810 0.294684
0.281437 -0.142167 0.742767
-0.597625 0.280274 0.294035
-0.611879 0.272560 -0.601370
0.731473 -0.163057 0.267840
0.260078 0.748038 -0.179035
-0.597462 0.278954 0.292387
0.731071 -0.161576 0.268479
0.731486 -0.166693 0.268561
0.725287 0.240256 -0.167368
0.280841 -0.140436 0.740949
-0.166856 0.287215 0.761963
0.258270 0.749121 -0.179731
-0.598857 0.279109 0.295405
0.280891 0.303473 -0.566782
-0.166597 0.285897 0.761375
-0.616318 -0.176298 -0.184041
-0.143442 -0.592234 -0.173532
0.290566 -0.593855 -0.610259
-0.611070 -0.593470 0.276612
-0.165208 0.754546 -0.587491
-0.166382 0.285869 0.761484
-0.164517 -0.176251 -0.629304
0.260669 0.748933 -0.180007
-0.591795 0.706566 -0.142805
-0.598896 0.277452 0.295856
-0.157762 0.712778 0.289723
0.293645 -0.594113 -0.611670
0.278707 0.303486 -0.566313
-0.615568 -0.175668 -0.181334
0.743909 -0.602590 -0.176114
-0.597679 0.278971 0.295289
0.753475 -0.161674 -0.637522
-0.166916 0.287466 0.759384
-0.166649 0.285919 0.761229
-0.613854 0.271251 -0.603272
-0.187476 -0.587239 0.723001
-0.616246 -0.175915 -0.180991
-0.616349 -0.177039 -0.181397
-0.598494 0.279249 0.293824
0.262793 0.749968 -0.179225
-0.158089 0.713076 0.286432
0.261671 0.750092 -0.179405
0.280593 0.305257 -0.564885
-0.142396 -0.593266 -0.174000
0.261246 0.749732 -0.178564
0.281128 -0.141353 0.742366
-0.166298 -0.176185 -0.628462
-0.616364 -0.173309 -0.181738
-0.144059 -0.593318 -0.174537
-0.144070 -0.591104 -0.174293
-0.609856 -0.154014 0.735073
0.261813 0.750974 -0.178987
-0.592711 0.705840 -0.142792
0.291137 -0.612754 0.297567
0.269148 0.254970 0.268216
0.726010 0.239125 -0.165866
0.281080 -0.143035 0.741129
0.743185 -0.601802 -0.175011
-0.185844 -0.586863 0.723603
0.744323 -0.604691 -0.174503
0.279927 -0.142084 0.740371
0.724974 0.239009 -0.166579
0.263189 0.748259 -0.180712
-0.164869 0.754897 -0.587920
-0.186932 -0.589954 0.722462
0.260022 0.749924 -0.177291
-0.610516 -0.152886 0.733677
0.754447 -0.160937 -0.635759
-0.609876 -0.154071 0.736354
-0.616768 -0.175781 -0.182754
-0.144202 -0.592759 -0.173458
0.269648 0.254641 0.269957
-0.592200 0.707275 -0.146147
0.281099 -0.142047 0.742157
0.290144 -0.612931 0.297213
-0.164972 0.753560 -0.589074
0.282274 -0.140351 0.743272
-0.165818 0.755114 -0.589752
-0.163993 0.755443 -0.587887
-0.611665 -0.154422 0.733375
0.282647 -0.142502 0.742420
-0.593862 0.706519 -0.144380
-0.616960 -0.176381 -0.185298
-0.185228 -0.587030 0.724767
-0.616877 -0.175048 -0.182423
-0.616537 -0.175534 -0.184361
0.280660 0.303777 -0.567168
-0.612476 -0.155005 0.734190
0.745456 -0.602748 -0.175722
0.267743 0.254898 0.269982
-0.166417 0.288039 0.760900
0.259946 0.750652 -0.180440
0.289234 -0.612850 0.298660
-0.158207 0.715339 0.287563
0.289500 -0.613776 0.297112
0.292289 -0.593136 -0.610970
-0.610595 -0.156087 0.734723
-0.599222 0.279136 0.293688
-0.186230 -0.586752 0.726727
0.754829 -0.160535 -0.634830
0.290450 -0.612167 0.296384
-0.609428 -0.155087 0.734056
-0.185630 -0.587201 0.722703
-0.165722 -0.175910 -0.629558
0.291129 -0.593589 -0.610897
-0.610732 -0.594518 0.275959
-0.168151 0.286086 0.760863
0.268555 0.256114 0.269090
0.732116 -0.163450 0.268189
-0.164978 0.753736 -0.588293
-0.610881 -0.152634 0.735195
0.261039 0.749766 -0.179949
0.279385 0.303624 -0.567797
0.754274 -0.162284 -0.636147
-0.143289 -0.591802 -0.172925
-0.164158 -0.176367 -0.627100
-0.165720 -0.176086 -0.628538
-0.163972 -0.176179 -0.628189
-0.610865 -0.153824 0.733201
0.756094 -0.161626 -0.634570
-0.142536 -0.594201 -0.173324
-0.165546 0.754036 -0.588749
-0.611187 -0.156943 0.732978
-0.166960 0.286848 0.759900
-0.157985 0.713574 0.290371
-0.592308 0.705272 -0.143501
0.731375 -0.163553 0.269221
-0.164514 0.754315 -0.587445
-0.158597 0.713843 0.288471
0.281174 -0.141460 0.740215
0.290773 -0.591773 -0.614297
-0.613459 0.271171 -0.601004
0.724166 0.238835 -0.164955
0.288716 -0.612134 0.297793
0.261350 0.748298 -0.179357
0.279307 0.301455 -0.565773
0.269039 0.254480 0.268339
-0.164873 0.754461 -0.587755
-0.159301 0.713376 0.288266
-0.596037 0.276809 0.294138
-0.166803 0.286770 0.761039
0.730001 -0.163906 0.268772
0.267280 0.255525 0.270330
0.280425 0.302605 -0.566176
-0.608906 -0.594743 0.276771
-0.167467 0.288821 0.760723
0.757030 -0.161306 -0.636690
-0.607850 -0.596175 0.276601
0.291078 -0.592042 -0.612664
-0.613206 0.273620 -0.601628
-0.143618 -0.594030 -0.172199
0.724040 0.241025 -0.169615
0.744081 -0.601882 -0.175583
-0.609953 0.271970 -0.600572
-0.161640 -0.175848 -0.627103
-0.164843 -0.174550 -0.628412
0.281128 0.303862 -0.565913
0.262473 0.749802 -0.178835
0.281333 0.304302 -0.567448
0.291098 -0.591488 -0.611074
0.730855 -0.163101 0.270138
-0.599202 0.280274 0.294876
0.291077 -0.591981 -0.611529
0.724644 0.240089 -0.167031
0.262451 0.750835 -0.177899
0.743438 -0.602883 -0.174934
-0.596498 0.279007 0.296362
-0.162945 -0.175885 -0.629519
-0.164217 -0.176284 -0.627181
0.281771 0.302534 -0.565040
0.731134 -0.164792 0.268187
-0.143655 -0.593945 -0.173388
-0.608889 -0.594299 0.277822
0.290349 -0.612836 0.298728
0.281430 -0.140993 0.740531
0.725255 0.240244 -0.167547
-0.597447 0.277970 0.295226
-0.610548 -0.592339 0.277484
-0.610866 -0.153696 0.733580
0.281350 0.303166 -0.566013
-0.141737 -0.593763 -0.174682
-0.143255 -0.593800 -0.173916
-0.142625 -0.594786 -0.173515
0.261915 0.750297 -0.179105
-0.612167 -0.153658 0.734155
-0.598519 0.277486 0.295565
0.288132 -0.611823 0.297972
0.280444 0.304003 -0.564923
-0.143041 -0.595328 -0.173394
0.754518 -0.162177 -0.635601
-0.164971 -0.176808 -0.629029
0.279923 0.303885 -0.566293
-0.186425 -0.587462 0.722489
-0.615877 -0.175130 -0.182186
-0.610335 -0.595713 0.277632
0.731815 -0.164759 0.268734
-0.596773 0.278283 0.293363
0.267139 0.255242 0.270242
0.280452 0.301174 -0.565554
0.280220 0.301710 -0.566107
0.280522 0.303495 -0.565657
0.281154 -0.144014 0.740932
-0.613034 0.271954 -0.603349
0.722857 0.241455 -0.165877
0.291783 -0.593846 -0.611822
-0.143044 -0.592905 -0.173144
0.289334 -0.614908 0.296168
0.287966 -0.610983 0.298815
-0.592078 0.707763 -0.144699
-0.165480 0.753802 -0.588081
-0.186238 -0.587309 0.722828
-0.592250 0.705006 -0.145482
-0.166296 0.754183 -0.588321
0.290832 -0.591922 -0.609906
-0.615860 -0.175565 -0.183941
0.266713 0.255416 0.271025
-0.598063 0.277575 0.296154
-0.167288 0.288049 0.760050
0.291458 -0.593064 -0.611210
-0.167285 0.286943 0.760895
0.266338 0.254434 0.268743
0.725282 0.240334 -0.167011
0.732441 -0.163550 0.268628
0.728538 -0.165195 0.267835
0.722980 0.240656 -0.169217
0.281358 -0.142564 0.740345
-0.615616 -0.175668 -0.182123
0.280046 -0.142157 0.739719
0.742612 -0.603371 -0.173385
0.288922 -0.613328 0.298772
-0.610996 -0.153893 0.732933
0.281263 -0.141998 0.740640
0.280023 0.302745 -0.566599
-0.158213 0.713219 0.286771
-0.165941 0.755991 -0.588172
0.756735 -0.160508 -0.636392
0.281791 0.303479 -0.566286
0.756374 -0.161781 -0.636502
0.268518 0.254013 0.270137
-0.165301 -0.175779 -0.629139
-0.158238 0.712855 0.287683
-0.616874 -0.175253 -0.183330
-0.185242 -0.587454 0.723122
-0.610274 -0.595128 0.277010
0.281598 -0.140740 0.740542
