OFF
256 0 0
0.000499 0.532194 -0.113856
0.418458 -0.304582 0.306278
0.420341 -0.306820 -0.532051
-0.418928 0.532641 -0.533231
-0.000344 0.533487 0.725497
-0.836994 0.532422 -0.113192
0.000021 0.112911 -0.532556
0.420497 -0.724676 -0.112479
0.838220 0.112846 -0.532140
0.420400 0.530495 0.304002
0.419664 -0.725716 -0.111822
-0.839500 0.113123 -0.532554
0.419890 0.532354 0.307821
0.419783 -0.726927 -0.113483
-0.419129 0.534409 0.307488
-0.420476 0.531358 -0.532448
-0.837419 -0.307128 -0.111400
0.418848 -0.305837 -0.532634
0.000467 0.112359 -0.531993
-0.838939 0.111671 -0.532810
-0.419984 -0.726412 -0.113883
-0.420528 -0.306784 -0.532593
-0.000761 0.532961 0.725737
-0.420749 0.531788 0.306967
-0.419211 0.530641 -0.534072
0.420038 0.532295 -0.533568
-0.420002 -0.307301 0.306615
-0.839626 0.532478 -0.111920
-0.001511 0.113349 -0.531057
0.001176 -0.307128 0.725202
0.838958 0.533790 -0.112802
-0.838831 0.534578 -0.112751
0.420173 -0.306273 -0.534007
0.419031 0.532736 -0.533072
-0.000680 0.531449 -0.114077
-0.837254 0.532345 -0.112356
-0.419449 -0.725512 -0.111555
-0.001576 0.532374 0.725857
0.000889 0.531226 0.724910
-0.836772 0.112118 -0.533596
-0.419545 0.113723 0.725091
0.416675 0.532682 0.308353
0.419364 0.531299 -0.532995
0.838718 0.535021 -0.112875
-0.420961 0.111949 0.725218
0.000908 0.533464 0.727248
0.839084 0.534706 -0.113418
-0.839295 0.532212 -0.113093
-0.839459 0.111814 -0.531698
0.839050 0.533235 -0.111521
0.839168 0.110714 0.306104
0.840237 0.533739 -0.111483
0.839603 0.114559 0.305870
-0.837686 -0.306967 -0.113559
-0.838040 0.112965 -0.532234
0.000902 0.532318 -0.113985
0.001239 0.113602 -0.533234
-0.419029 0.532160 0.307003
-0.839264 0.530514 -0.113299
0.839472 -0.306411 -0.111399
-0.418280 -0.306785 -0.532351
-0.838765 0.113909 0.305817
-0.419130 -0.306924 -0.532412
-0.839987 0.114423 0.307938
0.839592 0.532535 -0.112935
-0.420284 0.113244 0.727013
-0.420307 -0.725590 -0.113825
0.000681 -0.725536 -0.531214
-0.421672 -0.304830 0.308133
0.418318 0.112823 0.725936
-0.417687 0.111409 0.726370
-0.419314 -0.726194 -0.114419
0.840339 0.113625 0.305868
-0.418522 0.533772 -0.532023
-0.418769 0.531800 0.306857
-0.418854 -0.306732 0.306137
0.838183 0.113258 0.307053
-0.420139 0.111192 0.726890
-0.418633 -0.724125 -0.113757
0.418838 -0.306271 0.305658
-0.421468 0.530802 0.306655
-0.418386 0.112831 0.727084
-0.420338 -0.307514 -0.531771
0.418927 -0.305883 0.307338
0.837918 -0.307440 -0.113098
-0.420232 -0.307184 -0.532764
0.838225 -0.307897 -0.113380
0.420380 0.531579 0.303974
0.418722 -0.725955 -0.113762
0.419924 0.532839 -0.531675
0.421051 0.531666 0.307080
0.418758 0.533051 -0.533283
0.417951 -0.306173 0.307999
0.840110 0.112637 -0.532928
0.000194 0.533241 -0.111953
0.421317 -0.307017 0.306944
0.001288 0.532511 0.727124
-0.840029 -0.306810 -0.113495
-0.418608 -0.727870 -0.111280
0.000694 0.533588 -0.112013
-0.420490 -0.725793 -0.114200
-0.418902 -0.725926 -0.111820
0.838257 -0.305303 -0.112671
0.418937 0.531256 -0.531452
-0.837358 0.112860 -0.530449
0.000667 0.532751 -0.112257
0.000450 0.531670 -0.110697
-0.419371 0.532278 -0.532743
-0.837104 0.113024 -0.532387
-0.839787 0.531709 -0.113892
0.837378 0.111630 -0.532593
-0.839610 -0.307402 -0.113275
-0.419790 -0.305714 -0.532706
-0.838788 0.113410 -0.534064
0.419543 0.531459 0.307430
-0.000109 0.113078 -0.532079
0.001153 0.114481 -0.531479
-0.419041 -0.305714 -0.532021
-0.002058 0.532194 0.724296
0.838085 -0.305640 -0.113463
0.839569 -0.305950 -0.114062
-0.839929 0.112926 -0.532728
-0.418129 -0.305383 0.307647
-0.418797 0.533316 -0.530887
-0.419656 0.533460 0.308753
-0.421327 -0.305215 -0.533416
-0.419364 0.532766 -0.532772
-0.418571 -0.305836 -0.531000
0.839081 0.531715 -0.111632
-0.837918 0.115122 -0.533721
-0.419744 -0.306795 -0.533136
0.000630 0.111998 -0.533005
0.000475 0.113606 -0.532326
-0.418312 -0.306389 -0.531668
0.419571 -0.306200 -0.532484
-0.838083 0.113631 -0.532519
-0.421826 -0.307055 0.307831
0.419778 0.531418 0.304924
0.420735 -0.727048 -0.113835
0.420240 -0.308245 0.307288
-0.418736 -0.305616 0.306964
-0.420107 0.112036 0.725744
-0.417782 0.533336 0.306166
-0.000779 0.533351 -0.111677
-0.838765 0.112326 0.305953
-0.418672 -0.306336 0.306565
-0.837307 0.112278 -0.532065
-0.000553 -0.727752 0.307385
-0.417969 -0.307113 0.306779
0.000464 -0.724648 0.306114
-0.419059 -0.305249 0.303959
0.839871 -0.306333 -0.115918
0.000566 0.114015 -0.533701
0.419640 -0.305761 -0.532110
-0.001451 -0.725457 0.305571
-0.000465 0.533472 0.726286
-0.001100 -0.307269 0.724934
0.838681 -0.306013 -0.112798
0.418328 -0.306407 -0.531040
0.840054 -0.306137 -0.113060
0.000790 0.531890 -0.114910
0.421624 0.111783 0.726562
0.001238 0.531528 0.725620
-0.839318 -0.306677 -0.113486
-0.000523 -0.308204 0.726063
-0.838690 -0.307362 -0.112067
-0.000932 -0.727131 0.307697
-0.416999 -0.309539 0.306832
0.839603 0.112521 -0.531485
0.419380 -0.305702 -0.533220
-0.838775 0.113591 0.308429
0.419584 -0.726072 -0.112267
0.837520 0.533868 -0.111960
0.420536 0.533322 -0.531127
-0.838767 0.111930 -0.531750
-0.839443 0.532509 -0.112602
-0.838761 0.112047 -0.533118
-0.839800 0.112595 -0.532347
-0.420547 0.531188 0.305876
-0.419342 -0.306745 0.309203
-0.838573 -0.306072 -0.111524
0.420484 -0.724713 -0.113091
0.000152 -0.306641 0.724052
-0.838488 -0.306240 -0.112127
-0.418936 -0.726099 -0.112833
0.837640 0.113276 -0.533017
0.418672 0.532287 -0.533534
0.000072 0.113756 -0.531690
0.419273 0.532416 0.307832
-0.418964 0.532442 -0.532118
-0.838544 -0.307761 -0.112284
0.838943 0.114597 0.307526
0.419869 0.532483 -0.533950
-0.000748 0.111208 -0.531038
0.419238 0.533373 0.309337
0.419587 -0.726081 -0.113383
0.419971 0.113285 0.727095
0.418135 0.533263 0.307179
0.000200 0.112983 -0.532144
0.000105 -0.725044 0.306874
-0.838511 0.112816 -0.532521
-0.421239 0.531529 0.306916
-0.419102 0.113208 0.726039
0.419341 0.530849 0.307706
-0.419348 0.531063 0.304731
0.000516 -0.725233 -0.532939
0.418250 -0.725911 -0.114158
-0.419732 0.110720 0.724826
0.838735 0.112910 0.307298
-0.420454 0.113507 0.726118
0.419798 0.533067 -0.530678
0.420296 0.113061 0.726907
0.420810 0.532108 0.307443
0.839008 0.532738 -0.112601
-0.419554 -0.306133 0.304365
-0.419869 -0.306461 -0.532445
0.838156 -0.305992 -0.114203
0.840033 0.112887 0.306031
0.420666 -0.307016 -0.531015
0.418815 -0.726490 -0.114157
0.001187 0.114559 -0.531560
-0.838648 0.111542 0.306883
-0.419431 -0.726762 -0.111995
-0.840699 -0.307588 -0.111839
0.001144 -0.726214 -0.533340
0.418117 -0.725200 -0.113277
-0.418399 0.114251 0.726096
-0.419126 0.530827 -0.532901
-0.839704 0.112789 -0.531402
-0.839763 -0.304687 -0.113024
0.418595 0.531829 -0.532051
-0.000712 0.113560 -0.532652
-0.001273 -0.305303 0.726307
0.839418 0.111636 -0.533383
0.419034 0.533266 0.306739
0.840588 0.533454 -0.113832
0.838949 -0.307219 -0.113655
-0.419572 -0.305272 0.305060
-0.839156 0.113801 -0.533721
-0.420957 0.531374 -0.535109
0.420209 -0.304553 -0.533861
0.839549 0.532045 -0.114362
-0.420919 0.531326 -0.532935
-0.420735 0.533147 -0.532166
0.838789 0.531179 -0.111665
0.000718 -0.725877 0.306032
-0.839881 0.113467 0.305580
-0.000723 -0.726969 0.306359
-0.000284 0.532358 0.727784
-0.839250 0.113962 0.305999
-0.419987 -0.724310 -0.112571
0.420283 -0.726791 -0.113355
0.420444 -0.306542 -0.533075
-0.001342 0.530811 -0.110454
-0.840034 -0.306838 -0.114418
0.419100 0.111895 0.726582
