OFF
256 0 0
0.408430 0.529729 0.303212
0.820968 0.100081 -0.519103
-0.382357 -0.283371 -0.515393
-0.807489 0.097306 -0.523006
0.408583 -0.700835 -0.129311
-0.001284 0.109680 -0.513834
0.003608 0.530058 -0.120573
-0.423223 0.480561 0.258007
0.811573 0.096975 0.300583
-0.822578 0.114534 0.270844
0.864061 -0.321980 -0.101012
-0.005481 0.518395 0.709964
0.813563 0.498134 -0.104199
-0.001123 0.109398 -0.515716
-0.852594 -0.309819 -0.095200
0.810917 0.094971 0.301736
-0.808692 0.096342 -0.522195
-0.421865 0.479664 0.257224
0.862028 -0.321127 -0.101292
-0.429374 0.089743 0.719849
0.861534 -0.322265 -0.102663
-0.012976 -0.710260 0.314608
-0.381843 -0.285164 -0.515775
0.405479 0.528977 0.301084
0.402325 -0.276573 -0.494769
-0.430525 0.089945 0.719187
-0.012726 -0.710666 0.315604
-0.831147 0.542316 -0.118549
-0.011510 -0.711017 0.314582
-0.421120 0.480187 0.257033
-0.832473 0.540970 -0.117911
0.002577 0.528807 -0.120356
-0.003713 0.519699 0.710116
-0.005334 -0.702632 -0.529331
-0.851817 -0.308085 -0.096098
-0.004234 -0.702551 -0.530077
0.405517 0.114039 0.708688
0.862119 -0.322042 -0.102752
-0.806815 0.096560 -0.522214
-0.831493 0.541671 -0.118909
0.003091 0.528549 -0.120667
-0.013897 -0.713410 0.315650
0.819863 0.098816 -0.518346
-0.411947 0.501567 -0.479640
-0.003604 -0.702727 -0.531264
-0.003669 -0.704597 -0.529589
-0.378073 -0.261494 0.273197
-0.832710 0.539812 -0.118758
-0.430232 0.091390 0.717855
-0.852840 -0.309403 -0.096388
-0.832637 0.538962 -0.119170
0.403362 -0.276371 -0.497343
0.406825 0.527880 0.301280
0.422072 -0.297863 0.298572
-0.808499 0.098937 -0.521985
0.425555 -0.297191 0.300563
-0.429153 0.090902 0.718237
-0.411424 0.501169 -0.481177
0.404504 0.113304 0.709559
0.814450 0.495830 -0.103972
-0.853769 -0.308674 -0.095718
0.863654 -0.322137 -0.101696
-0.003308 0.519845 0.709564
-0.012441 -0.712350 0.313215
0.408370 -0.703057 -0.129404
-0.421106 0.480048 0.255134
0.402107 -0.276839 -0.497757
0.861851 -0.321197 -0.103275
-0.378569 -0.263059 0.272075
0.863217 -0.323165 -0.102006
0.821750 0.099580 -0.520958
-0.382548 -0.285451 -0.514107
-0.808711 0.098984 -0.521265
-0.821399 0.112283 0.270394
0.403307 0.112861 0.709853
-0.005410 -0.704291 -0.529043
0.003985 0.527972 -0.120958
0.421853 -0.296778 0.300913
-0.421674 0.478022 0.258421
0.813942 0.497812 -0.104696
-0.852632 -0.306790 -0.095571
0.003343 0.528738 -0.121359
-0.002779 0.110077 -0.515176
-0.007053 0.519603 0.708444
-0.818422 0.111528 0.268812
-0.384254 -0.282164 -0.513043
-0.001831 -0.265579 0.734279
0.002471 0.529395 -0.122548
-0.422328 0.480294 0.256861
0.409896 0.529947 -0.518142
0.811623 0.098851 0.303080
-0.404941 -0.709613 -0.119060
0.404358 0.112339 0.711079
0.819172 0.097748 -0.521495
-0.429004 0.089737 0.718075
-0.852872 -0.309203 -0.096537
-0.409736 0.499703 -0.479210
0.809471 0.095416 0.300469
0.813794 0.499065 -0.102367
-0.821358 0.112661 0.270021
0.813893 0.497535 -0.104283
-0.808556 0.097484 -0.523776
-0.852334 -0.308341 -0.095763
0.410296 0.530047 -0.516759
-0.430202 0.090937 0.719173
-0.000737 -0.264324 0.732675
0.404608 0.111725 0.712855
0.408287 -0.703436 -0.128322
0.409670 0.529536 -0.515994
-0.001713 -0.265248 0.733902
-0.822504 0.115262 0.269176
0.404585 -0.277365 -0.498499
0.819163 0.097479 -0.521560
0.409024 -0.701724 -0.128514
-0.005995 0.518867 0.710274
-0.821021 0.114679 0.268968
-0.382098 -0.285233 -0.515784
-0.003594 -0.706192 -0.530383
-0.820407 0.113480 0.270053
-0.383226 -0.285612 -0.515410
0.406325 0.528338 0.302290
0.821652 0.097929 -0.522346
0.408837 -0.702316 -0.128456
0.862621 -0.322338 -0.102303
-0.005122 -0.702615 -0.528944
-0.011886 -0.710430 0.315926
-0.385639 -0.282245 -0.513849
0.408363 0.527038 0.300464
-0.851963 -0.307002 -0.098435
0.861389 -0.324310 -0.101347
-0.003450 -0.703026 -0.528009
0.002547 0.528105 -0.121420
-0.013322 -0.710766 0.316082
-0.852018 -0.309285 -0.095395
-0.408861 0.500617 -0.481208
-0.421934 0.480476 0.256086
-0.384018 -0.283863 -0.514818
0.004021 0.528471 -0.121351
-0.002853 0.109533 -0.512898
0.422814 -0.295679 0.298365
0.411382 0.528867 -0.517553
0.811170 0.095421 0.301045
-0.427505 0.088296 0.717990
-0.383415 -0.283040 -0.515416
0.408732 -0.701329 -0.129218
0.814385 0.498946 -0.104619
0.812229 0.095747 0.300372
0.408434 -0.701549 -0.127782
0.814727 0.497708 -0.104186
0.407924 0.527973 0.301758
-0.428053 0.089347 0.720181
0.815001 0.497912 -0.104496
0.861034 -0.322304 -0.102144
0.813609 0.498050 -0.104064
0.423051 -0.295986 0.298938
-0.003962 0.518657 0.708023
-0.006262 0.517942 0.710564
0.819668 0.098194 -0.522025
-0.823130 0.113410 0.271083
-0.005214 0.518755 0.708403
0.408960 0.527256 0.302255
-0.003888 -0.703029 -0.529452
-0.001386 0.108862 -0.514270
-0.833023 0.542328 -0.118944
-0.000147 -0.265361 0.733749
-0.428098 0.089259 0.717885
0.864030 -0.322351 -0.102297
-0.382161 -0.282471 -0.514201
-0.384360 -0.284249 -0.514811
-0.012439 -0.710419 0.315599
-0.852947 -0.309399 -0.096285
-0.428324 0.089679 0.718729
0.411216 0.527724 -0.517545
-0.832461 0.540319 -0.116505
-0.405405 -0.710995 -0.120613
-0.850733 -0.308819 -0.098222
-0.002364 -0.263902 0.732962
-0.428929 0.089700 0.719105
-0.379168 -0.263444 0.271483
0.816041 0.497316 -0.103155
-0.852292 -0.307510 -0.093622
0.861019 -0.320781 -0.102051
0.405620 0.113585 0.710522
0.405649 0.111426 0.710003
0.810845 0.096506 0.302326
-0.832177 0.540310 -0.118801
0.811063 0.096203 0.301340
0.810240 0.096094 0.301079
0.402829 -0.276923 -0.497460
0.407409 -0.701947 -0.126870
-0.851651 -0.308022 -0.096645
0.862936 -0.322396 -0.102627
-0.421520 0.479794 0.255818
0.821082 0.098820 -0.521350
-0.000419 0.110860 -0.515099
0.423752 -0.296987 0.297946
0.002013 -0.265246 0.732301
-0.404624 -0.710293 -0.121501
-0.410702 0.498750 -0.480266
0.402552 -0.277263 -0.497591
0.421004 -0.295457 0.299320
-0.810341 0.096191 -0.522538
-0.409158 0.501331 -0.481986
0.820970 0.098988 -0.521515
-0.411663 0.498899 -0.480342
-0.427922 0.090586 0.720308
-0.013619 -0.709839 0.314920
-0.427576 0.090408 0.719369
-0.004896 0.519985 0.708248
-0.005787 0.519171 0.710093
0.812716 0.496234 -0.105939
-0.407795 -0.710863 -0.121766
-0.430147 0.090791 0.717040
-0.831950 0.540840 -0.118623
-0.833758 0.542664 -0.118523
0.407810 0.527982 0.305297
-0.832102 0.541038 -0.117036
-0.377318 -0.263854 0.273558
0.408724 -0.703145 -0.129061
-0.429022 0.089012 0.718606
-0.428049 0.090102 0.720771
-0.408068 0.502192 -0.480398
-0.006073 -0.703572 -0.530297
-0.809091 0.096011 -0.524170
-0.420725 0.479791 0.255355
-0.809557 0.095556 -0.523896
-0.410310 0.502233 -0.480567
0.862880 -0.322557 -0.104326
-0.004154 0.518280 0.707304
0.861782 -0.321761 -0.102539
-0.004949 0.519797 0.710480
0.000575 -0.266160 0.732364
-0.005123 0.520235 0.710469
0.411257 0.528510 -0.518237
0.402988 -0.277122 -0.497125
-0.377710 -0.262910 0.274057
-0.808191 0.096559 -0.521272
-0.004906 -0.702717 -0.530937
-0.421509 0.478896 0.255988
-0.005813 0.518741 0.707884
0.402918 -0.276565 -0.495678
0.409500 0.528656 0.301507
0.402998 -0.277679 -0.496600
0.407912 -0.701819 -0.128988
0.409092 0.528945 0.302566
-0.429255 0.089561 0.718343
0.404263 0.112395 0.710375
-0.809332 0.099220 -0.522083
-0.851358 -0.308600 -0.097531
-0.379522 -0.262766 0.272646
-0.012844 -0.710111 0.316096
-0.424256 0.480130 0.257325
0.411275 0.529205 -0.516409
0.424167 -0.297516 0.299078
0.002871 0.527800 -0.121406
0.408114 -0.704836 -0.129976
