OFF
256 0 0
0.836442 0.528707 -0.107497
-0.415474 0.521698 0.313857
-0.830839 0.532774 -0.099695
-0.412192 -0.290601 -0.528160
-0.407054 0.097779 0.733451
-0.002321 -0.307051 0.711675
-0.410484 -0.292788 -0.530285
0.004461 0.536058 0.715382
0.003437 0.536722 0.711698
-0.001365 -0.306802 0.712508
-0.408674 -0.746224 -0.115793
0.836995 0.526236 -0.102970
-0.388186 -0.284188 0.260921
0.007132 -0.708349 0.300000
0.421932 0.095038 0.726535
0.451895 0.529949 -0.529358
0.452137 0.531801 -0.527931
-0.833493 -0.344594 -0.102391
0.811518 -0.274231 -0.121707
0.412266 -0.691914 -0.123552
-0.001534 -0.305746 0.711005
0.452814 0.528908 -0.528594
0.011220 0.133312 -0.517740
-0.410280 -0.289895 -0.528598
-0.830851 0.531713 -0.099513
0.823258 0.105855 0.324111
0.422463 0.519390 0.323807
0.813044 -0.272179 -0.120738
0.424915 0.518265 0.322389
-0.386657 -0.283235 0.258145
0.007252 -0.706347 0.300611
-0.410126 -0.290608 -0.527772
0.004149 0.538082 0.712404
0.000247 -0.736895 -0.573862
0.423722 0.518297 0.321909
-0.000113 -0.304921 0.711252
0.428841 -0.322199 -0.531890
-0.425795 0.526550 -0.514260
-0.854477 0.099548 -0.511125
-0.415398 0.520350 0.313055
0.423711 0.519971 0.320692
-0.407867 0.096598 0.732374
0.423229 0.520788 0.324286
-0.388026 -0.284868 0.259696
0.814387 0.108197 -0.543423
-0.862001 0.091102 0.302542
-0.859876 0.093311 0.303739
0.374884 -0.263522 0.291094
0.836764 0.528512 -0.105544
0.011590 0.133929 -0.519178
-0.856083 0.099686 -0.509600
0.837762 0.527164 -0.105631
-0.830159 0.532098 -0.098443
0.412273 -0.692134 -0.125370
0.005755 0.536399 0.713163
-0.410942 -0.290861 -0.530199
-0.410946 -0.290584 -0.528562
0.810441 -0.270454 -0.122711
0.009671 -0.708038 0.300654
0.836311 0.526663 -0.106376
-0.388317 -0.284042 0.258297
-0.002231 -0.306131 0.712686
0.011248 0.533478 -0.083358
-0.421194 0.527008 -0.514300
0.010706 0.532955 -0.081568
-0.857188 0.098259 -0.510995
-0.416836 0.522209 0.314411
-0.002426 -0.306880 0.711267
0.809594 -0.274550 -0.122095
0.010769 0.132848 -0.517749
0.835670 0.526846 -0.106822
-0.386688 -0.282296 0.259008
0.012370 0.534920 -0.082036
-0.408484 -0.744545 -0.116104
0.452806 0.532400 -0.526658
0.012502 0.534563 -0.081312
-0.831898 0.529388 -0.100789
0.006419 0.536219 0.714161
-0.833060 -0.343898 -0.102321
-0.001151 -0.305671 0.712034
0.821643 0.105861 0.325278
-0.412951 -0.289979 -0.528444
-0.407409 -0.742269 -0.115073
0.813313 0.112656 -0.542734
-0.415202 0.524493 0.313520
-0.827957 0.533588 -0.101619
0.408665 -0.691953 -0.123501
0.428583 -0.325662 -0.535978
0.006136 -0.706675 0.301450
-0.858608 0.092519 0.303230
0.816822 0.110338 -0.543455
0.452214 0.530647 -0.527726
-0.830607 0.530719 -0.100083
0.413855 -0.692391 -0.124734
0.011875 0.133497 -0.516613
0.007285 -0.708809 0.299877
0.000017 -0.734115 -0.573256
-0.832676 -0.343315 -0.101042
0.012495 0.135334 -0.518493
-0.407493 0.096635 0.732846
0.412163 -0.690622 -0.125161
0.004591 0.536882 0.713185
-0.417613 0.522829 0.312708
0.813574 -0.272592 -0.121497
0.428369 -0.321227 -0.532387
0.413110 -0.692857 -0.122472
0.373925 -0.265139 0.291658
0.373799 -0.266263 0.289781
-0.406194 0.095160 0.731029
-0.000058 -0.735075 -0.575549
0.425553 0.520579 0.324258
-0.852624 0.100201 -0.509719
-0.860089 0.093027 0.304439
0.006420 -0.706748 0.301278
0.812488 -0.272659 -0.121170
0.000463 -0.735796 -0.572913
0.823289 0.106878 0.325097
-0.855412 0.098583 -0.510495
0.007183 -0.706662 0.299436
-0.860512 0.093081 0.302867
0.454154 0.531458 -0.526878
0.004244 -0.707766 0.301567
-0.407193 -0.744437 -0.114620
-0.858846 0.089859 0.305375
-0.407904 -0.744099 -0.114673
-0.408874 -0.745053 -0.116008
0.374379 -0.266029 0.290473
0.002580 0.534499 0.713767
0.453281 0.531397 -0.529560
-0.860195 0.094453 0.305485
-0.859555 0.092883 0.304593
-0.388424 -0.284617 0.261362
-0.859338 0.093097 0.305972
0.010710 0.133685 -0.516720
0.822189 0.107559 0.325795
0.012491 0.132502 -0.516709
-0.387950 -0.283386 0.258073
0.013734 0.133521 -0.516711
0.425171 0.519893 0.323851
-0.001171 -0.735044 -0.574098
0.839419 0.527892 -0.104550
-0.854129 0.100544 -0.512289
-0.855905 0.098986 -0.508895
-0.411751 -0.291852 -0.529209
0.012364 0.535325 -0.083300
0.007186 -0.706566 0.301477
0.452396 0.532048 -0.527458
0.811699 -0.275717 -0.123054
0.012964 0.533776 -0.083635
0.453600 0.530658 -0.529816
-0.832048 0.531896 -0.101137
-0.832299 -0.342034 -0.102879
0.420607 0.095347 0.727407
0.002293 0.536272 0.714240
-0.001273 -0.308193 0.711534
-0.409995 -0.292071 -0.527761
-0.416414 0.522811 0.315435
0.837821 0.528012 -0.105881
0.006999 -0.706563 0.299885
-0.387037 -0.284439 0.259846
-0.000365 -0.734201 -0.570297
-0.001212 -0.734492 -0.573404
0.453652 0.531444 -0.527732
-0.860582 0.091479 0.306019
0.422305 0.094927 0.727174
0.013658 0.534335 -0.083100
0.013430 0.535331 -0.083238
0.816059 0.109940 -0.543672
0.011247 0.134725 -0.517430
-0.387170 -0.285624 0.257681
-0.411491 -0.291744 -0.529843
0.006037 -0.707879 0.301247
-0.834630 -0.341677 -0.102389
-0.832169 -0.342948 -0.102465
0.454187 0.531886 -0.527385
0.811821 -0.273651 -0.120465
-0.000200 -0.735438 -0.572251
-0.415224 0.522767 0.313107
0.823002 0.107005 0.324405
0.812842 -0.273751 -0.122145
0.004346 0.536076 0.712736
0.006602 -0.706705 0.302066
0.007691 -0.707627 0.299397
-0.000578 -0.306642 0.711826
-0.420453 0.527442 -0.515306
-0.388035 -0.283874 0.260091
0.837753 0.526622 -0.105775
-0.833184 -0.342550 -0.099555
0.835534 0.527584 -0.106639
-0.830865 -0.341928 -0.101444
-0.833835 -0.343494 -0.101616
-0.834533 -0.343139 -0.100646
0.413421 -0.691761 -0.123888
0.008533 -0.707772 0.301872
0.413081 -0.691110 -0.124285
-0.405941 0.096711 0.731608
0.014347 0.133680 -0.515964
-0.000834 -0.735778 -0.573323
0.005524 -0.707910 0.300238
-0.834342 -0.341626 -0.102968
0.422255 0.093702 0.728385
0.423226 0.094494 0.726709
-0.388765 -0.285833 0.259117
-0.002306 -0.306124 0.712174
0.421906 0.094947 0.727173
0.821448 0.106474 0.326085
0.420148 0.094371 0.726247
0.454406 0.532406 -0.527534
0.421545 0.097598 0.727200
0.427729 -0.324606 -0.533448
-0.423712 0.527396 -0.516820
0.821643 0.106871 0.327130
-0.408630 0.096632 0.732117
0.823752 0.106707 0.324794
0.422155 0.518163 0.324848
-0.860382 0.093980 0.304077
-0.853986 0.099997 -0.508754
0.811711 -0.271399 -0.121897
-0.832010 0.531466 -0.099352
0.428079 -0.323095 -0.533589
-0.834732 -0.342569 -0.101216
0.422960 0.519689 0.323981
0.812593 -0.274400 -0.120691
-0.858808 0.094865 0.306481
0.815610 0.111344 -0.542828
-0.855116 0.100165 -0.510352
0.426995 -0.323376 -0.533082
0.837350 0.525735 -0.104388
0.821795 0.106813 0.326246
-0.859428 0.092588 0.306397
-0.389699 -0.282772 0.258993
-0.411026 -0.291140 -0.529257
0.837949 0.527908 -0.106946
-0.831515 0.531606 -0.099831
0.011477 0.133917 -0.515617
-0.410408 -0.291434 -0.529966
0.375626 -0.266871 0.289945
0.372371 -0.266670 0.290737
-0.411531 -0.292728 -0.530112
0.454566 0.532103 -0.528586
-0.421839 0.527523 -0.514291
0.420875 0.094181 0.726459
0.412435 -0.689524 -0.125067
-0.421979 0.525286 -0.515106
-0.405570 0.096062 0.731696
-0.416468 0.523284 0.313906
-0.832281 0.531588 -0.100266
0.424429 0.519043 0.323471
-0.409642 -0.743346 -0.116289
0.428064 -0.322243 -0.532987
0.452575 0.530863 -0.526253
0.413660 -0.690784 -0.124923
-0.000849 -0.305886 0.710820
0.423012 0.091895 0.726796
0.814015 0.110799 -0.542504
-0.832686 0.532299 -0.100028
