OFF
256 0 0
-0.014248 -0.306436 0.752718
-0.014344 -0.697724 0.293209
-0.429438 -0.298495 -0.545122
0.005083 0.087122 -0.508265
-0.413283 0.528694 0.310248
-0.830951 0.115840 -0.515190
-0.399708 -0.256443 0.293424
0.379513 -0.279340 0.280044
-0.829920 0.119967 -0.514954
0.423555 -0.308470 -0.544661
0.838538 -0.292856 -0.100633
0.868194 0.095556 0.335930
0.418437 -0.728200 -0.114656
0.005640 0.088351 -0.508309
-0.412695 0.530735 0.309385
0.378164 -0.279510 0.279718
0.418644 -0.729795 -0.114705
0.429279 0.518222 0.303872
-0.013860 -0.697236 0.292465
-0.413226 0.125523 0.746289
-0.411557 0.126877 0.744352
0.407583 0.103195 0.721223
0.380446 -0.280655 0.278781
-0.427643 -0.300015 -0.545149
-0.416423 -0.692029 -0.131381
0.843083 0.500420 -0.110415
-0.850883 -0.297095 -0.119240
0.380190 -0.278284 0.278773
0.379414 -0.280539 0.278029
-0.411611 0.529559 0.308795
-0.015573 -0.695148 0.290379
0.826165 0.114326 -0.553025
0.001982 -0.709912 -0.521911
0.844239 0.500625 -0.108755
-0.015670 -0.307506 0.753733
-0.831063 0.117052 -0.516696
-0.014345 -0.696672 0.292040
-0.411807 0.530026 0.309676
0.823889 0.115535 -0.552776
-0.417530 -0.692617 -0.133524
-0.825986 0.114239 0.289542
0.418084 -0.728337 -0.116032
0.825736 0.113624 -0.554452
-0.413204 0.532694 0.308982
0.379770 -0.279827 0.280786
-0.830892 0.117159 -0.515856
-0.852891 -0.295996 -0.118082
-0.821481 0.505570 -0.123923
0.407161 0.100462 0.721511
-0.427210 -0.297900 -0.544328
0.868428 0.095636 0.337241
-0.413061 0.128925 0.745637
0.419622 -0.729609 -0.113303
-0.418797 -0.692428 -0.130956
-0.004925 0.541907 0.721655
-0.004971 0.540581 0.720065
-0.004674 0.540114 0.719478
-0.851477 -0.298296 -0.116804
0.379763 -0.280405 0.279651
-0.426832 -0.299285 -0.543514
-0.853798 -0.297590 -0.119081
0.012845 0.501787 -0.083984
-0.401235 -0.256982 0.293456
0.430700 0.518764 0.303351
-0.428823 -0.298329 -0.545573
-0.411688 0.529384 0.309383
-0.014425 -0.698525 0.292525
-0.014647 -0.306589 0.750187
0.407385 0.104609 0.719178
0.002261 -0.712239 -0.521548
-0.003859 0.541148 0.718703
-0.396607 0.520861 -0.535702
0.840892 0.500842 -0.107158
0.372930 0.495938 -0.541800
0.005872 0.088506 -0.506497
0.431350 0.519381 0.304808
0.869185 0.095536 0.336859
0.378899 -0.281742 0.280242
-0.427229 -0.298966 -0.545786
0.416686 -0.730548 -0.114580
-0.005163 0.541106 0.719669
-0.411698 0.127373 0.744456
0.843565 0.499111 -0.108406
0.372406 0.494674 -0.540643
0.839926 -0.292540 -0.099705
-0.417609 -0.690925 -0.129807
0.373879 0.495456 -0.541672
0.839996 -0.293292 -0.100061
-0.015811 -0.695152 0.293575
0.010288 0.500000 -0.085559
-0.410967 0.124934 0.745191
-0.410876 0.126487 0.747184
0.370930 0.495946 -0.540154
-0.396428 0.520319 -0.534855
0.371165 0.495241 -0.540715
-0.417225 -0.691214 -0.130128
0.827296 0.112662 -0.551429
0.825490 0.115888 -0.552520
-0.000292 -0.711403 -0.520222
-0.398442 -0.256000 0.294188
-0.014224 -0.697065 0.292807
0.423956 -0.310341 -0.543464
0.004941 0.086884 -0.508494
0.009395 0.501626 -0.085504
0.842386 0.500654 -0.108335
-0.004022 0.541132 0.719526
-0.003397 0.540290 0.719680
-0.394193 0.520251 -0.534368
0.011363 0.500652 -0.085528
-0.413604 0.530403 0.308165
0.009989 0.499240 -0.083348
-0.401375 -0.254169 0.294333
-0.014784 -0.695995 0.290848
0.840439 0.499515 -0.110059
0.824930 0.115370 -0.551748
0.825214 0.115074 -0.553890
0.868029 0.095730 0.336338
0.423138 -0.310140 -0.544370
0.418409 -0.729829 -0.112694
-0.819424 0.507596 -0.126565
-0.426554 -0.298033 -0.543145
0.406310 0.101121 0.721053
0.841070 -0.293761 -0.101419
0.407198 0.103040 0.719393
-0.427375 -0.298429 -0.545567
-0.411641 0.530054 0.309842
-0.015342 -0.305269 0.751409
-0.410762 0.529661 0.309884
-0.400648 -0.257104 0.292044
-0.426905 -0.298570 -0.543861
0.421898 -0.310668 -0.542383
-0.427618 -0.297419 -0.546384
-0.400225 -0.257210 0.293627
-0.852403 -0.299372 -0.116586
-0.429203 -0.298877 -0.541920
-0.412006 0.127928 0.746486
-0.014265 -0.698098 0.292900
-0.000019 -0.712729 -0.521458
-0.004214 0.541175 0.719814
-0.400090 -0.254012 0.293214
-0.852119 -0.297814 -0.116990
-0.413115 0.530233 0.309699
0.004892 0.089108 -0.508370
-0.818825 0.505918 -0.125185
0.010004 0.499621 -0.084827
-0.015089 -0.307963 0.750560
0.407965 0.104307 0.721044
0.838996 -0.293228 -0.100067
0.842203 -0.293760 -0.101086
-0.015058 -0.697130 0.292713
0.839641 -0.293931 -0.100311
-0.005018 0.541779 0.720745
-0.853138 -0.297524 -0.117056
0.011569 0.500061 -0.084750
0.011622 0.499165 -0.084341
0.374399 0.495148 -0.540104
0.406310 0.104303 0.722142
0.825721 0.114941 -0.553267
0.826187 0.114451 -0.550073
0.825508 0.114942 -0.551127
-0.015177 -0.306355 0.752059
0.004973 0.087874 -0.508530
-0.401043 -0.254529 0.292424
-0.829560 0.116397 -0.515559
-0.411626 0.530075 0.308539
-0.014816 -0.697011 0.293160
0.870869 0.096709 0.337991
-0.412790 0.127513 0.744783
-0.825235 0.111462 0.287997
0.379077 -0.277882 0.278634
-0.411745 0.126048 0.744910
-0.412304 0.528278 0.309939
0.825436 0.113551 -0.553034
-0.428447 -0.298167 -0.544874
0.378687 -0.280283 0.280364
-0.819489 0.507390 -0.124494
0.418012 -0.731776 -0.114357
-0.823719 0.112033 0.288510
0.009717 0.500243 -0.084517
-0.013518 -0.697890 0.291504
0.837659 -0.293709 -0.097478
-0.819144 0.505841 -0.124420
-0.850230 -0.293972 -0.119096
0.001230 -0.711121 -0.521610
0.009629 0.500359 -0.085672
0.001666 -0.712438 -0.520905
-0.000441 -0.712373 -0.520069
0.418718 -0.729891 -0.114573
-0.818965 0.504840 -0.123688
0.011752 0.501229 -0.084165
0.373131 0.494213 -0.540928
0.428980 0.521453 0.304240
0.406304 0.103275 0.719968
0.006887 0.087697 -0.507494
-0.015125 -0.698966 0.292181
0.010938 0.501685 -0.084437
0.871386 0.093420 0.337101
0.009879 0.500125 -0.085377
0.840008 0.499718 -0.108873
0.378399 -0.278552 0.278388
0.837993 -0.293262 -0.099430
0.824850 0.115898 -0.550348
-0.004339 0.541336 0.720605
-0.426895 -0.298582 -0.544469
-0.411975 0.529079 0.309754
-0.819109 0.506619 -0.126704
0.379471 -0.279035 0.279243
-0.417183 -0.690393 -0.130436
0.430099 0.519688 0.302364
0.010709 0.503078 -0.084057
0.407680 0.101004 0.720386
0.380421 -0.277850 0.278120
-0.004717 0.540742 0.721294
0.840305 -0.292236 -0.102012
0.431311 0.518878 0.302987
0.406389 0.104472 0.720156
-0.850340 -0.296430 -0.117359
-0.394809 0.520602 -0.532441
0.378874 -0.280084 0.278876
0.011041 0.501201 -0.085017
-0.853347 -0.297777 -0.118006
0.825151 0.115324 -0.551025
0.825763 0.114466 -0.552105
-0.833263 0.118885 -0.514683
-0.851616 -0.296923 -0.118705
0.408793 0.102547 0.722433
-0.418434 -0.692937 -0.130955
0.430455 0.520706 0.304150
-0.426125 -0.298720 -0.544779
-0.852911 -0.296087 -0.116455
0.374909 0.496089 -0.541462
0.001335 -0.710994 -0.521277
0.840756 -0.296260 -0.097905
-0.832959 0.114433 -0.514289
0.421290 -0.308080 -0.541632
-0.395503 0.521605 -0.535374
-0.014860 -0.304624 0.752877
0.380879 -0.281335 0.279238
0.013399 0.499700 -0.084234
-0.410514 0.127183 0.745239
-0.399270 -0.255162 0.294228
0.824676 0.114650 -0.553238
0.002982 0.087529 -0.507724
0.011404 0.499205 -0.085026
0.408127 0.103289 0.720677
0.838538 -0.294802 -0.099533
-0.417663 -0.692325 -0.131967
0.423288 -0.308749 -0.543430
-0.851501 -0.297016 -0.118640
-0.831999 0.117497 -0.515490
-0.014667 -0.695561 0.292226
0.421650 -0.309582 -0.543353
0.418713 -0.729145 -0.114593
-0.016685 -0.698528 0.291864
-0.014688 -0.309550 0.752756
-0.818389 0.504126 -0.125502
