OFF
256 0 0
0.510980 0.810467 0.117154
0.108032 0.399054 -0.727355
0.119991 0.028475 0.501724
0.513107 -0.397919 -0.284651
0.512351 0.418133 0.526878
0.101959 -0.790422 -0.291038
-0.304464 0.831890 0.094525
0.106256 0.399339 -0.727190
0.106938 0.816115 -0.271207
0.122991 0.026142 0.503164
0.109154 0.815001 -0.270430
-0.283987 -0.386106 0.487129
0.492107 -0.003468 -0.667954
0.509027 0.415277 0.528019
-0.294938 0.406362 0.465970
-0.303813 -0.004853 -0.712364
0.493501 -0.004175 -0.669669
-0.271140 -0.383284 -0.267282
0.509932 -0.397823 -0.283993
0.467662 0.016843 0.100806
0.115307 -0.404656 -0.724657
0.108516 0.399503 -0.727953
-0.722029 -0.430143 0.112337
-0.303305 0.831518 0.092687
0.511640 -0.397318 -0.283610
0.071781 0.812131 0.537511
0.109333 0.814170 -0.269217
-0.282399 -0.386558 0.487454
0.524648 -0.844306 0.121918
-0.718808 -0.431866 0.111887
0.468622 0.017457 0.098960
0.099940 -0.791181 -0.289818
-0.303821 -0.820578 0.088764
0.072461 0.812065 0.537716
0.103924 -0.813534 0.504318
0.524683 -0.843831 0.119886
0.106310 0.397430 -0.727413
-0.678116 -0.002628 -0.280201
0.494301 -0.005632 -0.671038
-0.305493 -0.007565 -0.710387
0.493249 -0.007048 -0.668546
-0.305783 0.833151 0.092485
0.100517 -0.790196 -0.290163
-0.717497 -0.430685 0.111152
0.511045 0.416172 0.527751
0.470629 0.017748 0.100928
-0.669729 0.013494 0.510712
-0.669124 0.012497 0.509511
0.100115 -0.790376 -0.289753
0.523569 -0.843224 0.118812
0.106454 0.399453 -0.727044
-0.295060 0.408110 0.468755
-0.304308 0.830175 0.094656
-0.305314 -0.823734 0.088652
-0.281986 -0.386495 0.488252
0.107770 0.397215 -0.727624
-0.684129 0.389140 0.087000
-0.270798 -0.384785 -0.268145
-0.675343 -0.004070 -0.280204
0.103891 -0.812925 0.502171
0.509942 0.809971 0.114426
-0.282771 -0.387732 0.486367
-0.676546 -0.004128 -0.278922
0.464801 0.399788 -0.282922
-0.270865 -0.383365 -0.267521
0.493766 -0.005932 -0.668251
0.105298 -0.812771 0.505615
-0.675661 -0.001945 -0.279320
0.469463 0.016213 0.102256
-0.677169 -0.002739 -0.279971
0.108993 0.399010 -0.727871
0.116517 -0.405195 -0.724208
0.510052 -0.397259 -0.284111
-0.668805 0.013034 0.510584
-0.305292 -0.006629 -0.709212
-0.304147 0.830671 0.092667
-0.295180 0.405865 0.466670
-0.296149 0.405423 0.468548
0.494055 -0.005754 -0.668127
0.102160 -0.813666 0.501308
0.072481 0.813795 0.538147
0.494012 -0.004702 -0.670429
0.099548 -0.789921 -0.289927
0.104651 0.814332 -0.269664
-0.285483 -0.389134 0.487275
-0.304371 0.831536 0.093551
-0.676969 -0.003764 -0.281012
-0.675198 -0.003329 -0.279249
0.492901 -0.005597 -0.670182
0.107042 0.813058 -0.269157
0.523573 -0.843026 0.120028
0.073098 0.815183 0.534898
-0.305532 -0.004209 -0.710581
0.108467 0.400500 -0.726719
-0.719136 -0.430556 0.113226
0.511316 0.809864 0.115966
-0.676319 -0.003359 -0.278862
0.465508 0.400537 -0.283627
0.106390 0.812284 -0.268920
0.511706 0.416679 0.527826
0.115512 -0.404855 -0.725242
0.512083 -0.397512 -0.284178
0.100374 -0.790220 -0.290652
0.105622 0.813465 -0.268429
0.097850 -0.791245 -0.293395
-0.304628 0.831358 0.093901
-0.295684 0.407088 0.466256
-0.307152 0.830999 0.093244
0.511111 -0.396460 -0.283239
0.073326 0.811332 0.534729
0.107491 0.400179 -0.726841
-0.670907 0.014059 0.510950
0.509787 0.811110 0.114219
0.073988 0.813850 0.534484
0.493614 -0.003113 -0.668380
0.107007 0.813365 -0.269883
-0.675250 -0.003100 -0.280861
-0.305658 -0.004125 -0.709887
-0.268909 -0.383934 -0.266010
0.107865 0.398183 -0.728745
-0.304105 0.831266 0.094607
0.508658 -0.397544 -0.283350
0.121627 0.028962 0.499874
0.494446 -0.006057 -0.668559
0.099108 -0.791787 -0.291875
-0.272338 -0.382608 -0.267745
-0.271069 -0.382953 -0.269156
-0.285142 -0.387361 0.486276
-0.284528 -0.388406 0.487846
0.100604 -0.791145 -0.290459
-0.685990 0.388903 0.086904
0.491552 -0.006700 -0.670076
0.510823 0.809604 0.114828
0.464981 0.397717 -0.285220
0.494570 -0.004389 -0.668447
-0.675037 -0.003232 -0.280919
-0.270539 -0.383167 -0.269802
0.098527 -0.790057 -0.291512
0.464666 0.400453 -0.284089
0.116042 -0.405291 -0.724443
0.466173 0.400547 -0.283401
0.107698 0.812945 -0.270454
-0.674834 -0.000704 -0.278930
0.115241 -0.406921 -0.723624
0.465552 0.398221 -0.284323
0.523319 -0.843288 0.118670
-0.685598 0.389273 0.086653
0.469761 0.016564 0.099101
-0.295512 0.407691 0.465716
-0.304191 -0.823178 0.088758
-0.304902 0.830995 0.093129
-0.718644 -0.430615 0.112046
-0.303217 0.831569 0.094139
-0.676348 -0.002897 -0.279245
0.463915 0.398248 -0.282750
0.097878 -0.790541 -0.290510
0.538440 -0.408642 0.524288
0.102272 -0.812930 0.502997
0.510005 0.811485 0.116509
-0.304981 -0.822357 0.089875
0.466510 0.397841 -0.283809
0.509043 0.810398 0.114901
-0.271403 -0.381596 -0.269097
-0.295940 0.407229 0.465791
0.115576 -0.404340 -0.724872
-0.304213 0.831069 0.092287
0.074258 0.813035 0.537922
-0.295416 0.407676 0.465913
0.107429 0.812770 -0.269973
-0.238427 0.355998 -0.265830
-0.677592 -0.002682 -0.280005
0.106538 0.813810 -0.271041
0.116130 -0.405941 -0.726401
-0.718724 -0.431832 0.111786
-0.295543 0.406442 0.467431
-0.683778 0.388456 0.087779
-0.304356 0.831302 0.091425
-0.305653 -0.821656 0.090646
0.525250 -0.841565 0.120085
0.122041 0.027069 0.501920
-0.236112 0.351746 -0.264390
-0.669770 0.013404 0.507579
-0.719478 -0.431312 0.111517
0.494503 -0.005619 -0.670303
-0.303047 -0.821674 0.088254
-0.302573 0.832189 0.093079
0.072217 0.814479 0.535679
-0.685665 0.387744 0.086670
-0.685487 0.388385 0.086362
0.106877 0.401958 -0.725598
-0.303290 0.832795 0.092245
-0.306891 -0.006330 -0.709812
0.493702 -0.005516 -0.670733
0.106758 0.813629 -0.269794
0.465929 0.398660 -0.283313
0.072933 0.813497 0.535034
-0.270454 -0.383202 -0.269585
0.465260 0.397387 -0.281844
0.539823 -0.408153 0.524481
-0.303201 0.833067 0.094895
-0.667420 0.015312 0.512374
0.468160 0.017153 0.102043
0.493388 -0.005413 -0.669829
0.522246 -0.844146 0.117411
0.468053 0.017454 0.098960
0.494361 -0.005755 -0.669605
0.100878 -0.792063 -0.291445
-0.678656 -0.002073 -0.280842
-0.303126 0.833356 0.093296
-0.676324 -0.004660 -0.278735
-0.305536 -0.822052 0.086310
0.512295 -0.398749 -0.282588
-0.294731 0.406676 0.465503
-0.305781 0.832164 0.091881
-0.283405 -0.384707 0.488787
0.510992 0.416326 0.529269
0.106436 0.814098 -0.270127
0.511955 0.811886 0.115864
-0.294412 0.407915 0.466419
0.539491 -0.408167 0.525000
-0.679019 -0.002417 -0.279683
0.495376 -0.005806 -0.668981
-0.236001 0.353971 -0.265524
-0.282009 -0.388689 0.486389
0.106270 0.814765 -0.271476
-0.303850 -0.820482 0.089710
-0.305578 0.833732 0.092984
0.121628 0.027717 0.500740
0.104584 -0.814469 0.502950
-0.303500 -0.821937 0.087061
0.123921 0.027670 0.502072
-0.235956 0.355046 -0.264407
0.099137 -0.789599 -0.291891
-0.306341 -0.006665 -0.710162
0.511440 -0.397226 -0.284625
-0.720845 -0.432866 0.113004
-0.237988 0.353497 -0.263347
0.464664 0.399763 -0.283680
0.524848 -0.843675 0.120547
-0.303258 -0.822381 0.089356
-0.283226 -0.386942 0.487717
0.509197 0.809632 0.116097
0.103179 -0.813741 0.505225
0.494038 -0.005924 -0.669095
-0.675887 -0.003316 -0.279492
0.122611 0.028455 0.500584
0.468654 0.016941 0.102853
0.467451 0.019495 0.097392
0.121822 0.028082 0.502248
-0.270620 -0.382234 -0.269578
0.468718 0.018457 0.099679
0.101107 -0.813547 0.502451
-0.282659 -0.385749 0.486780
-0.284829 -0.386574 0.487625
0.121680 0.027442 0.503419
-0.285071 -0.386812 0.486439
