OFF
256 0 0
-0.687790 -0.230761 0.229444
0.686339 0.229689 -0.687411
0.227999 0.688052 0.228315
-0.687415 -0.229006 -0.687738
-0.687563 0.230009 0.688433
-0.688352 -0.688046 -0.228337
0.688106 -0.228213 0.686677
0.688983 -0.230889 0.688444
-0.687442 -0.228372 -0.688418
0.228897 0.228214 0.688847
-0.689477 0.231231 0.689038
0.689303 -0.688542 0.229545
-0.228358 -0.689257 -0.687667
0.686109 0.230183 -0.687073
0.689567 0.229976 0.229749
-0.228788 0.688268 0.685986
0.690826 0.688526 -0.230238
0.688174 0.230661 -0.688590
0.687898 0.685448 -0.229731
0.228713 -0.689319 -0.229055
-0.230872 -0.228256 0.686482
0.229827 -0.688624 0.689874
-0.687378 -0.686764 -0.230853
0.229809 0.687510 0.229552
-0.229528 -0.229873 0.689747
-0.228864 0.687562 -0.229506
-0.228543 -0.230369 0.686504
-0.687157 -0.228865 -0.688424
-0.228476 -0.687316 -0.689604
-0.688197 0.689009 0.229614
0.688244 -0.230988 0.688262
0.230336 -0.688158 0.687733
-0.690189 -0.230083 0.230216
-0.688160 0.231314 0.687800
-0.228874 -0.228786 0.688317
0.228831 -0.229475 -0.687818
0.232512 0.688539 -0.688067
-0.229659 0.689546 0.687670
-0.230197 -0.687270 -0.687740
0.230314 -0.230267 -0.688940
0.229421 0.229206 0.689413
-0.229680 -0.227172 0.689227
0.687368 0.689784 -0.229414
-0.230808 -0.688692 -0.689886
0.687871 0.228824 -0.687758
0.230780 -0.688392 0.687136
0.230529 0.688087 -0.687215
-0.687569 0.686666 0.229114
-0.690217 -0.230003 0.231396
0.231426 0.690232 0.229051
-0.229576 -0.686636 -0.686968
-0.689177 0.687692 0.227812
0.688915 0.688709 -0.229455
-0.686415 0.229689 -0.229955
-0.230010 -0.229530 0.689834
0.688484 0.229115 0.227498
-0.228807 0.688424 0.689528
0.229937 0.687707 -0.687960
0.688396 0.229500 0.230170
-0.228147 0.686226 -0.229498
0.689905 0.228754 -0.688344
-0.691090 0.230510 0.689331
0.688317 -0.231131 0.688401
-0.229266 -0.688904 0.228425
-0.687383 -0.686630 -0.228566
0.689502 -0.688276 0.230492
0.688424 -0.230946 0.687244
-0.689473 0.227606 -0.230054
0.685337 -0.229268 0.688140
0.229266 -0.230383 -0.689664
-0.229422 0.688742 0.687603
-0.687641 0.688817 0.230776
-0.230214 0.228928 -0.688386
0.689048 0.230009 -0.686833
-0.688679 -0.688381 -0.229470
0.689545 -0.230810 -0.227556
-0.228325 0.229758 -0.689409
-0.231264 0.688351 -0.229243
0.228972 0.229257 0.687193
0.688297 0.229588 -0.687476
-0.689348 -0.228217 -0.689225
-0.688196 -0.226689 -0.687436
0.228512 -0.686739 0.689942
0.228899 0.688718 0.230576
0.687827 0.688899 -0.229227
-0.227777 0.688076 -0.230183
-0.688610 -0.229108 0.231132
-0.229284 -0.689009 0.228612
0.689494 0.688447 -0.229265
0.688817 -0.231278 -0.229627
-0.228968 0.228377 -0.689397
0.688144 -0.227973 0.687861
0.687026 -0.231528 -0.228109
0.229093 0.687737 0.231072
-0.229907 -0.687422 -0.688754
0.687853 -0.228956 -0.229251
0.230138 -0.686061 -0.229524
0.690150 0.229377 -0.686849
0.687003 -0.228442 0.689296
0.689181 -0.228694 0.689453
-0.229074 0.230395 -0.689236
0.229079 -0.689060 -0.230283
-0.228063 0.689388 -0.229144
0.687338 -0.230542 0.688948
0.689227 -0.229607 -0.229358
0.229978 0.687134 0.230849
-0.689200 0.689414 0.228913
0.690671 -0.228592 -0.230588
0.690231 -0.688268 0.229985
-0.687514 0.229553 -0.229713
0.230393 0.689875 0.227217
0.690017 -0.228650 -0.229741
-0.228803 -0.229485 0.687708
-0.688802 0.228916 0.689807
0.230963 0.688924 -0.687567
-0.228070 0.688467 0.689256
0.229578 -0.688763 0.687674
-0.228240 -0.229764 0.687523
-0.230063 0.689061 0.687864
-0.228670 -0.230083 0.688225
0.230585 0.230245 0.687710
-0.689181 0.227958 -0.228963
-0.688507 0.229287 0.686745
0.230891 -0.687644 -0.229444
-0.228318 -0.688360 0.228706
-0.229135 0.686364 -0.229949
-0.228983 -0.689273 0.229402
0.229302 -0.688327 0.686941
0.230236 -0.689298 -0.229389
-0.228325 -0.229182 0.689428
-0.230805 -0.687939 0.229137
-0.228400 0.686240 0.688504
0.228691 -0.688712 -0.230999
-0.228538 -0.686091 0.229195
0.227931 -0.688576 0.689990
-0.688164 -0.230654 -0.688558
0.689105 -0.230561 -0.228473
0.228746 -0.228704 -0.687768
-0.687388 -0.230971 -0.687924
0.229875 -0.229991 -0.688219
0.228867 -0.687675 -0.231265
-0.688197 -0.230140 0.228327
0.689203 0.230953 0.230558
-0.688863 -0.688057 -0.230021
-0.687581 0.690091 0.228994
-0.687320 -0.688126 -0.229901
0.689568 0.228074 0.232359
0.688878 -0.688552 0.230750
0.230833 0.687724 0.229699
0.689012 -0.229934 0.687478
0.230172 -0.687874 0.689550
0.687532 0.688474 -0.230241
0.230071 -0.687086 0.688776
-0.227981 0.229933 -0.688773
0.227718 -0.689454 -0.229822
-0.689753 -0.228565 -0.690329
-0.688414 -0.230587 -0.687914
-0.686948 0.231024 0.686204
-0.686601 -0.227215 -0.688613
0.687446 0.230841 0.228690
0.687796 -0.687468 0.229365
-0.689094 -0.230329 0.229611
-0.689221 0.229668 0.687758
-0.228225 -0.686527 -0.690481
0.687799 -0.687205 0.230847
0.688048 -0.230641 -0.230153
0.690190 -0.226927 0.688696
0.229852 -0.688584 0.688725
0.229664 -0.688278 0.689531
-0.229505 0.228620 -0.688064
0.689254 0.231003 0.227670
0.229856 0.229373 0.688129
-0.229313 -0.230054 0.687005
0.227533 -0.688504 -0.229051
0.230070 -0.688409 -0.231243
-0.230057 0.229150 -0.688296
-0.688964 -0.690753 -0.229870
-0.229319 0.688042 0.689245
0.688444 -0.687974 0.228365
-0.229493 -0.687313 0.229175
-0.686050 -0.231443 -0.687721
-0.686987 0.229420 -0.230220
0.230884 0.230295 0.687595
0.687069 0.229053 -0.688344
0.227524 0.231340 0.689949
0.228579 -0.229383 -0.687641
-0.231147 0.688969 -0.229535
0.231668 -0.688590 -0.228073
-0.229452 -0.229805 0.688819
-0.689104 0.230790 0.690267
-0.688706 0.689303 0.229855
-0.229272 -0.689743 -0.687335
0.686463 -0.228885 0.688981
0.228412 -0.687396 -0.229091
0.688640 -0.688032 0.230983
0.230248 -0.688402 0.688593
0.229957 -0.689446 0.689052
0.688258 -0.230511 -0.229918
0.230556 -0.687179 -0.230560
-0.688910 0.229114 -0.227425
0.689835 -0.689279 0.230987
0.230525 0.231154 0.687472
-0.689228 -0.230714 0.230437
-0.228325 0.688281 0.687433
-0.229553 -0.230119 0.689638
0.228625 -0.688599 -0.229936
-0.229109 0.688703 -0.230269
-0.689306 -0.230103 -0.685608
0.687064 0.226843 -0.689165
0.687837 -0.229712 -0.228581
0.688204 -0.228677 0.688988
-0.688493 -0.228972 0.229160
0.229447 0.688059 -0.690770
-0.229229 0.687787 -0.227074
0.687489 -0.228243 -0.231031
0.686564 -0.687003 0.228743
0.230875 -0.229928 -0.687566
0.688596 0.230655 0.228991
0.230063 0.686806 0.230011
0.690356 0.228771 0.227982
-0.230788 -0.229366 0.687328
0.686967 -0.689300 0.230279
0.226843 -0.689086 -0.228826
0.229986 0.687921 -0.690564
-0.685703 -0.229012 -0.689155
-0.688003 0.230216 -0.229639
0.230823 0.687093 0.227659
-0.228798 -0.687636 0.230070
0.227375 -0.687998 -0.227994
0.687777 0.228340 0.229922
0.229519 -0.689278 -0.230453
0.228639 -0.226740 -0.688923
0.229080 0.687466 0.229616
0.687866 0.688455 -0.230439
-0.229884 -0.688327 0.229806
0.689299 -0.229656 0.686987
0.690423 -0.688268 0.229243
0.227582 0.687470 0.230897
-0.688638 -0.227550 -0.688509
0.228862 -0.686939 -0.231055
0.686809 -0.228265 -0.229010
0.228685 0.687268 -0.689502
-0.687191 -0.687672 -0.228605
0.689679 -0.688994 0.229856
-0.688656 -0.230919 0.229399
-0.688207 0.688380 0.227914
-0.687702 0.229367 0.687861
0.227730 -0.227704 -0.687864
-0.689249 -0.229021 0.230529
0.229884 -0.687630 0.687291
0.689867 0.688493 -0.229497
-0.231193 -0.687909 -0.687411
0.688980 -0.228316 -0.228347
-0.229468 -0.230159 0.688575
0.687411 -0.688148 0.229030
0.228800 -0.686359 0.688901
