OFF
256 0 0
0.097717 -0.426523 0.863789
0.108389 0.416362 -0.849429
0.526757 0.405983 -0.420325
-0.724909 0.013674 -0.446587
0.106310 0.834562 -0.435157
0.539246 -0.010748 -0.842876
0.527993 0.427231 0.412453
0.513825 0.015384 0.008854
0.517237 0.011449 0.838336
0.538940 -0.010154 -0.841531
-0.306681 0.853475 -0.015627
0.509942 -0.436349 -0.406502
-0.726161 0.015943 -0.447386
0.528769 0.429017 0.411017
-0.758000 0.035302 0.394687
-0.294972 0.398336 -0.415044
0.091451 -0.858605 0.422629
0.109573 0.416481 -0.849919
-0.295756 0.398625 -0.414595
0.105186 0.408609 0.845715
0.106646 0.832978 -0.435025
0.516183 0.011725 0.837648
-0.759648 0.033597 0.395124
0.521648 -0.844662 0.033507
-0.773977 0.391464 -0.020348
0.099797 -0.407552 -0.870804
-0.293867 0.398000 -0.416182
-0.306564 0.854590 -0.015774
-0.723333 0.015969 -0.448094
-0.317400 -0.397695 0.405217
0.105606 0.832875 -0.435620
-0.294975 0.397125 -0.416063
0.511883 0.014709 0.007022
-0.763059 -0.409782 0.003243
0.109103 0.416130 -0.849648
0.515799 0.013611 0.838221
-0.294639 0.397428 -0.415792
0.090331 -0.858823 0.422082
-0.307182 0.853689 -0.015228
-0.772601 0.393163 -0.021668
-0.773500 0.392165 -0.021018
-0.724426 0.013728 -0.445809
0.094100 -0.839278 -0.397758
-0.318739 -0.394566 0.403637
-0.764786 -0.409162 0.004601
0.515830 0.015490 0.007055
0.104774 0.833792 -0.435673
0.104719 0.832975 -0.434415
-0.765416 -0.408329 0.004860
0.108411 0.416600 -0.852801
0.107168 0.833507 -0.436281
-0.772538 0.392109 -0.022546
0.513484 0.013170 0.007641
-0.764475 -0.409010 0.002975
0.107933 0.415668 -0.850273
0.096160 -0.425925 0.862877
-0.773403 0.393112 -0.022523
-0.304795 0.007193 -0.846008
0.510040 -0.392282 0.447334
0.529848 0.426884 0.412075
-0.305269 0.853759 -0.018269
0.518193 0.012046 0.838534
0.106959 0.417220 -0.850064
0.088932 -0.860227 0.422301
-0.295249 0.397822 -0.414352
0.523246 -0.843562 0.029286
-0.724679 0.013160 -0.444825
-0.326283 -0.006288 0.851075
0.096569 -0.426345 0.861762
0.102094 -0.407392 -0.872268
0.508994 -0.390703 0.446284
0.538537 -0.009715 -0.841438
-0.314911 -0.846573 0.024103
-0.760718 0.035580 0.391829
0.527321 0.404715 -0.420623
0.509416 -0.439572 -0.407091
0.106997 0.410197 0.847119
0.539296 -0.011649 -0.840685
0.524732 0.404592 -0.421192
-0.305574 0.008407 -0.846199
0.517559 0.014454 0.838958
0.515237 0.014518 0.005348
0.508512 -0.391786 0.447360
-0.761237 0.035024 0.393849
0.106082 0.411924 0.845937
0.105967 0.834293 -0.437090
0.096163 -0.425292 0.863334
0.097280 -0.424966 0.863119
0.515458 0.014769 0.839207
0.517521 0.014575 0.838213
-0.326923 -0.004423 0.851837
-0.773449 0.392512 -0.021266
-0.306246 0.853019 -0.018509
0.105413 0.833722 -0.434638
0.094950 -0.838232 -0.398262
0.526189 0.403640 -0.421126
0.539646 -0.009452 -0.842042
-0.759078 0.033843 0.395269
-0.760144 0.035556 0.395425
-0.764051 -0.409592 0.003601
0.526810 0.406072 -0.419611
0.514421 0.014150 0.006529
0.509502 -0.393718 0.447479
0.089133 -0.858104 0.423493
0.096776 -0.425225 0.860461
0.513594 0.016140 0.006099
0.108920 0.416964 -0.849070
-0.296251 0.397866 -0.418006
-0.724656 0.014428 -0.445948
-0.316420 -0.844546 0.021819
0.107519 0.832040 0.414566
-0.758483 0.034841 0.394212
-0.309220 -0.415796 -0.384453
-0.306523 0.854519 -0.017788
-0.774067 0.393683 -0.021262
-0.326489 -0.004566 0.850382
0.103788 0.834094 -0.434852
-0.325982 -0.003667 0.852189
0.518395 0.828718 -0.021639
0.106983 0.832700 -0.433605
0.537876 -0.009598 -0.843116
0.517719 0.827554 -0.022960
-0.304102 0.007894 -0.847876
0.509615 -0.391572 0.447716
-0.296161 0.397722 -0.416193
-0.304894 0.008412 -0.847665
-0.300496 0.402771 0.415210
0.526682 0.404740 -0.419968
0.096615 -0.424454 0.863928
-0.300969 0.401995 0.414165
0.513800 0.015533 0.007108
0.105332 0.832313 -0.432257
-0.772766 0.391494 -0.021900
0.091190 -0.859877 0.422981
0.521988 -0.846385 0.029958
0.509852 -0.439475 -0.406681
0.106100 0.417395 -0.848334
-0.772676 0.391827 -0.020112
-0.304681 0.851871 -0.016389
0.091039 -0.859448 0.422457
-0.309584 -0.415640 -0.385549
0.524212 0.404782 -0.417026
0.529692 0.428347 0.413285
-0.300605 0.401777 0.413841
0.525742 0.403474 -0.420424
0.094620 -0.839631 -0.398244
-0.724686 0.014523 -0.447052
0.510183 -0.437104 -0.406966
0.088955 -0.859224 0.422869
-0.301482 0.401748 0.413961
-0.760461 0.032533 0.396586
0.105214 0.831192 0.414753
0.515231 0.014552 0.008028
0.106715 0.834329 0.417048
0.107958 0.412500 0.845776
-0.296149 0.399273 -0.416380
0.515464 0.015253 0.006898
0.106199 0.409956 0.846972
0.516450 0.828519 -0.023532
-0.763495 -0.407324 0.004693
0.097489 -0.427880 0.862559
0.105543 0.832732 -0.435383
-0.304888 0.007806 -0.846338
0.095932 -0.840338 -0.396781
0.101339 -0.406039 -0.872427
0.095359 -0.840157 -0.398080
-0.327152 -0.005028 0.850794
0.516762 0.012049 0.837877
0.509558 -0.393194 0.447444
0.522262 -0.846756 0.031513
0.105567 0.834688 -0.436489
0.526603 0.406153 -0.419059
0.098569 -0.425528 0.862129
-0.726495 0.015013 -0.446452
0.511676 -0.438221 -0.405663
-0.759240 0.034432 0.395742
-0.764512 -0.407850 0.005427
0.100132 -0.407492 -0.872334
0.515213 0.014691 0.009018
-0.295074 0.399666 -0.416925
0.526476 0.428508 0.413033
-0.724771 0.013679 -0.444804
0.523356 -0.844617 0.030743
0.518176 0.829786 -0.023462
0.528116 0.405280 -0.420828
0.518198 0.012008 0.836312
-0.308476 -0.417206 -0.383991
-0.299464 0.403575 0.415656
0.539383 -0.011588 -0.840121
-0.308858 -0.417165 -0.384447
-0.314639 -0.844105 0.026795
-0.763413 -0.407222 0.005145
0.107117 0.834193 0.414366
0.510395 -0.438116 -0.407306
-0.326046 -0.004048 0.850658
0.108509 0.411388 0.848980
0.510869 -0.393399 0.447040
-0.758419 0.033765 0.394116
0.089432 -0.859145 0.422904
0.538263 -0.011618 -0.842566
-0.300722 0.401476 0.415532
0.104098 0.833975 0.417271
-0.757355 0.034454 0.394936
-0.764442 -0.409245 0.004575
-0.758349 0.037748 0.392289
-0.303733 0.008104 -0.846600
0.514764 0.012882 0.006738
0.105086 0.833341 -0.436748
0.108598 0.410784 0.847410
0.107182 0.832510 -0.434644
0.530041 0.429194 0.412975
0.509412 -0.391556 0.447176
-0.317227 -0.844651 0.025685
0.095501 -0.840029 -0.396915
0.095933 -0.840136 -0.395951
0.538343 -0.011039 -0.842308
0.091126 -0.857955 0.423518
-0.295009 0.397204 -0.415110
0.107837 0.833607 0.416787
0.530943 0.426758 0.411437
0.510732 -0.392825 0.446562
-0.306681 0.854224 -0.019116
-0.304941 0.854082 -0.016820
0.526717 0.404275 -0.421289
-0.317252 -0.395310 0.404299
-0.759528 0.032645 0.393413
-0.306127 0.854052 -0.016790
0.538758 -0.009024 -0.841203
-0.300788 0.401936 0.413895
-0.306656 0.854157 -0.017832
0.528555 0.427901 0.411957
-0.763421 -0.409309 0.004168
-0.301461 0.402677 0.414838
0.091629 -0.859071 0.422561
-0.315446 -0.396031 0.406252
0.518773 0.829130 -0.022618
0.090364 -0.858721 0.422121
0.526103 0.404807 -0.420126
0.106393 0.833707 -0.436949
0.096369 -0.426159 0.862181
-0.771933 0.394713 -0.021411
-0.304582 0.852932 -0.017315
0.522826 -0.842968 0.031392
0.513113 0.015073 0.008446
-0.309978 -0.415464 -0.386700
0.105253 0.832581 0.414993
0.105133 0.833667 0.414690
0.529119 0.428270 0.410945
0.101154 -0.406626 -0.871048
-0.302274 0.403339 0.413664
-0.773559 0.391678 -0.021403
-0.774652 0.392596 -0.021340
0.088495 -0.857187 0.423112
0.526846 0.405691 -0.419994
-0.315447 -0.845411 0.024489
0.095432 -0.839453 -0.397861
