OFF
256 0 0
0.128922 0.818096 0.410294
0.511157 -0.395724 0.444518
0.464086 -0.400884 -0.396227
0.100742 0.437811 -0.848853
0.108861 0.844671 -0.406626
-0.296010 -0.419600 -0.418753
-0.301774 -0.839248 0.000431
-0.731709 -0.015705 0.398318
-0.293616 -0.419729 -0.419170
-0.300289 -0.840811 -0.001325
-0.289134 0.400745 0.416490
0.094735 0.424682 0.838960
0.110704 0.845252 -0.408588
0.122543 -0.819476 0.399317
0.111914 -0.409462 -0.839482
-0.285643 0.401544 -0.384686
-0.728092 -0.427547 0.007749
-0.318116 0.016965 0.812309
0.078414 -0.419348 0.835751
0.127003 0.817266 0.408734
-0.728310 -0.427570 0.006494
0.120867 -0.819875 0.396844
0.080732 -0.421204 0.833390
0.128379 0.818263 0.407132
-0.730252 -0.016651 0.398890
0.483807 0.006709 -0.835241
0.109548 0.845115 -0.406674
-0.295251 -0.420066 -0.417446
0.510959 0.821222 -0.005313
0.121770 -0.820172 0.398037
-0.318284 0.016960 0.812058
0.463958 -0.401489 -0.397802
-0.293398 -0.420265 -0.420109
0.085658 -0.845399 -0.442017
0.507591 0.419675 0.433200
-0.312524 -0.383015 0.375603
0.510263 0.820899 -0.005324
0.109384 -0.409881 -0.841208
-0.286680 0.398718 0.414808
0.101742 0.437593 -0.848292
-0.321839 0.845242 -0.004424
-0.729008 -0.427677 0.009082
-0.285882 0.402346 -0.384711
-0.730545 -0.424534 0.008171
-0.321503 0.844200 -0.004187
-0.728946 -0.426288 0.007391
0.512603 -0.396470 0.443544
0.506947 -0.814845 -0.005774
0.090259 0.423994 0.838103
0.077971 -0.420734 0.835311
-0.311572 0.000464 -0.834004
-0.293208 -0.420543 -0.419978
0.094150 0.421997 0.838106
0.484198 0.009601 -0.836766
-0.729553 -0.016838 0.401170
0.467171 -0.401654 -0.397927
0.515784 0.002638 0.022925
0.508948 0.418564 0.433228
0.108612 0.844106 -0.407412
-0.728725 -0.424698 0.007446
-0.288722 0.399031 0.415307
0.102834 0.437098 -0.848410
0.092066 0.424653 0.838327
-0.295836 -0.419799 -0.419221
-0.308444 0.001968 -0.833547
0.112102 -0.410339 -0.840848
0.467574 -0.400704 -0.397922
0.515728 0.002839 0.022263
-0.318417 0.016071 0.810457
0.111048 -0.409443 -0.840986
-0.711567 -0.032566 -0.417188
-0.287543 0.400116 0.415027
0.128196 0.816734 0.406835
-0.319617 0.844028 -0.005259
-0.317714 0.016240 0.811836
0.513613 -0.396408 0.444897
-0.320760 0.842776 -0.002670
-0.300293 -0.840341 -0.001254
0.480884 0.395373 -0.409333
0.480336 0.397479 -0.408325
-0.285082 0.402143 -0.385516
0.519564 -0.006856 0.855880
0.076713 -0.419773 0.833929
0.091493 0.423980 0.839204
0.084841 -0.847159 -0.441707
-0.712986 -0.033365 -0.417371
0.128149 0.815234 0.406840
0.517680 -0.007523 0.853729
0.486460 0.008578 -0.836213
-0.713269 -0.034744 -0.417392
0.518199 -0.004996 0.855931
0.481925 0.397227 -0.409158
-0.284725 0.400838 -0.384191
-0.308683 0.000839 -0.833566
0.464638 -0.402060 -0.398518
0.510444 0.822516 -0.006083
-0.287573 0.400026 0.413863
0.083097 -0.844635 -0.441765
-0.730179 -0.015057 0.398578
0.510629 0.823216 -0.006398
0.084126 -0.847089 -0.442634
-0.728211 -0.427416 0.007018
-0.286905 0.403108 -0.385813
-0.300645 -0.837560 -0.000583
0.078523 -0.420143 0.833772
-0.296189 -0.420705 -0.419013
-0.301519 -0.839499 -0.000089
-0.323413 0.844778 -0.004335
-0.731827 -0.016425 0.399128
-0.295721 -0.421632 -0.420085
0.109568 0.844596 -0.407646
0.112541 -0.409716 -0.840049
0.077806 -0.419821 0.834893
-0.730456 -0.017861 0.396250
0.519900 -0.005256 0.853972
-0.296845 -0.420548 -0.418316
-0.318519 0.015827 0.811537
-0.730484 0.401836 0.008851
-0.711093 -0.033689 -0.418931
-0.728556 0.399880 0.009527
0.111643 -0.410312 -0.838998
-0.731348 -0.015611 0.397473
0.108524 0.843862 -0.407416
-0.312993 -0.381108 0.376037
0.509092 -0.814660 -0.005332
-0.730621 -0.017538 0.397747
-0.731087 -0.015941 0.397469
0.511909 -0.393382 0.443902
0.126632 0.818497 0.408147
0.128745 0.818506 0.406392
-0.301288 -0.842472 -0.000790
0.083575 -0.845681 -0.442404
0.111994 -0.410187 -0.838644
0.077118 -0.421915 0.835194
-0.317288 0.016770 0.811861
0.129430 0.816432 0.407603
-0.312919 -0.381233 0.373750
0.094412 0.424041 0.837832
-0.308116 0.000886 -0.837716
-0.294140 -0.419395 -0.418156
0.480267 0.396438 -0.407200
-0.728326 -0.427194 0.006599
0.514865 -0.397211 0.444486
-0.293993 -0.419487 -0.421200
0.085949 -0.846791 -0.444234
-0.300501 -0.839929 -0.001344
0.520164 -0.004311 0.855385
-0.284022 0.400122 -0.386009
0.484021 0.009627 -0.834272
-0.322550 0.843650 -0.003750
-0.287728 0.399563 0.417976
-0.729426 -0.427349 0.008015
0.110480 -0.410423 -0.840199
-0.318326 0.018772 0.812939
0.518983 -0.006852 0.854329
0.485400 0.007651 -0.836455
0.506079 0.418330 0.433209
0.109703 0.845293 -0.406162
0.093186 0.424197 0.839067
0.099881 0.437748 -0.849880
0.084687 -0.847364 -0.443341
-0.292576 -0.419816 -0.419105
0.512603 -0.398337 0.444522
-0.729209 -0.426718 0.008594
-0.730985 -0.016613 0.396732
-0.287006 0.400326 0.415866
0.509175 0.416839 0.432618
-0.308761 0.001882 -0.835506
-0.295072 -0.417561 -0.418377
0.101385 0.437569 -0.847475
0.481545 0.395227 -0.408744
0.517437 0.002331 0.021407
0.101664 0.437551 -0.847137
-0.287735 0.398625 0.416708
0.504389 0.417793 0.434602
0.110648 0.844782 -0.406739
-0.294268 -0.419780 -0.419038
0.128508 0.818183 0.407242
0.508950 0.417784 0.432863
0.511893 0.821038 -0.003738
0.077599 -0.421416 0.837134
-0.312130 -0.380911 0.375293
0.078442 -0.419585 0.835344
0.518980 -0.007321 0.854709
-0.294182 -0.420781 -0.419292
-0.293589 -0.418877 -0.419195
-0.289902 0.399237 0.415589
0.092810 0.424237 0.837920
-0.300804 -0.839308 -0.000242
-0.308819 0.001434 -0.834501
0.484786 0.008448 -0.835921
0.093191 0.424100 0.837830
-0.320511 0.015248 0.810691
0.483902 0.010104 -0.836090
0.128636 0.818608 0.408272
-0.728489 -0.425400 0.007763
-0.320514 0.844013 -0.005429
0.509178 -0.815845 -0.006976
0.110129 -0.412052 -0.839109
0.113109 -0.410614 -0.841192
-0.729812 0.403174 0.009683
0.509914 0.821153 -0.006143
0.478740 0.395220 -0.408635
0.483231 0.010882 -0.836437
0.465966 -0.401450 -0.396967
0.120500 -0.821444 0.399916
-0.323549 0.844215 -0.004247
0.101341 0.438625 -0.847826
-0.312837 -0.383089 0.374757
0.507269 0.417608 0.433234
0.482143 0.397102 -0.408134
-0.729869 0.402980 0.008316
0.509981 0.820882 -0.005699
-0.308964 0.000289 -0.835100
0.120618 -0.821407 0.396646
-0.286505 0.402642 -0.385659
-0.711311 -0.032810 -0.418266
-0.294284 -0.419196 -0.420988
0.510178 0.823047 -0.005088
-0.308327 -0.000886 -0.833244
-0.312037 -0.381020 0.374689
0.510026 -0.395743 0.445613
-0.311048 0.001519 -0.833966
0.121131 -0.820634 0.396828
0.507330 0.416725 0.433746
0.516462 0.003297 0.024674
0.485380 0.007729 -0.837016
-0.317852 0.016767 0.812233
0.127168 0.817149 0.408488
-0.730469 -0.016954 0.399373
0.484865 0.008454 -0.835710
0.518475 0.000525 0.022283
0.100750 0.437478 -0.847883
-0.319639 0.016436 0.811606
-0.285869 0.401630 -0.384785
-0.299749 -0.840433 -0.000307
0.078441 -0.420114 0.836069
0.110120 -0.409526 -0.839884
0.128021 0.816673 0.407717
0.121451 -0.819646 0.397770
0.513889 -0.396273 0.444984
-0.323897 0.844300 -0.004278
-0.287471 0.399711 0.414110
-0.309214 0.000319 -0.836625
0.109931 0.844868 -0.407683
-0.308445 -0.000926 -0.832302
0.109480 0.842956 -0.407094
-0.727985 -0.426926 0.008820
0.120954 -0.820375 0.397977
-0.730704 -0.425628 0.008134
-0.322089 0.845273 -0.003147
0.508673 -0.815308 -0.007866
0.483864 0.007618 -0.836333
0.084883 -0.846600 -0.443812
0.078883 -0.421120 0.836294
0.084954 -0.845152 -0.443234
