OFF
256 0 0
-0.001139 0.706170 -0.706190
0.001063 -0.707934 0.708679
0.706340 0.707358 -0.000307
-0.706878 -0.000071 0.708535
0.000154 -0.705851 0.709783
0.708176 -0.000220 0.706528
-0.001102 -0.708458 -0.706686
0.708210 0.706822 0.000093
-0.000291 0.707396 0.706102
0.707607 0.705762 0.000203
0.706176 -0.000288 0.705611
-0.705319 -0.000311 -0.706594
-0.707704 -0.000926 -0.707228
0.708999 -0.705508 -0.000527
-0.000630 -0.706197 0.707451
0.706471 0.708675 0.000344
0.000603 -0.706022 -0.705370
0.706518 -0.000573 0.707785
-0.708348 0.000911 -0.708209
0.000101 0.705719 -0.707784
0.001100 -0.707813 -0.707687
-0.706898 -0.000473 -0.706611
0.707430 0.707841 0.000873
-0.706585 -0.000593 0.705818
0.705333 0.704521 0.002454
-0.001768 0.707128 -0.707085
0.000183 -0.706895 0.706857
0.708767 0.704573 -0.001520
-0.000087 -0.708900 -0.709863
-0.708433 0.000868 -0.707675
-0.000231 -0.706427 -0.705920
-0.001273 -0.706129 -0.707638
0.707394 -0.707089 -0.000617
-0.707647 0.000785 0.706431
0.000145 0.706514 0.709348
0.001290 0.707082 -0.705966
-0.000857 -0.708040 -0.707323
0.707536 0.707488 -0.000179
0.708179 0.708153 0.000161
0.001493 -0.707813 0.707557
0.706096 0.001146 -0.706531
-0.000454 0.706948 0.708222
-0.000022 -0.707387 -0.708182
0.706255 -0.707062 0.001399
-0.707575 -0.001589 0.706898
-0.706754 -0.707047 0.000893
0.706769 -0.000096 -0.709739
-0.708282 -0.001604 0.705433
-0.709031 0.000674 -0.708336
0.707022 -0.705145 0.002239
0.706366 0.000323 -0.708125
0.706759 -0.708986 0.000906
0.707326 -0.706814 -0.001799
0.000351 0.706736 0.707073
-0.001640 -0.706657 -0.706715
-0.000988 0.707335 -0.707644
0.707552 0.705988 0.000598
0.707321 0.000837 -0.705315
0.707140 0.000127 0.707971
-0.705688 -0.000719 -0.708786
-0.707391 -0.003467 0.710115
-0.706495 -0.000561 -0.708027
-0.707408 0.706704 0.000644
-0.706478 0.705826 -0.000093
-0.708606 -0.001480 0.707206
0.705493 -0.705416 0.000912
0.709111 -0.708628 -0.000177
-0.001025 0.709506 -0.706737
0.000148 -0.706070 0.707918
0.707508 0.000736 0.706620
-0.000909 0.706427 -0.706513
-0.000753 0.706442 0.710077
-0.000089 -0.708297 -0.706425
-0.000110 -0.706117 0.707802
0.706057 0.708441 -0.000439
-0.707529 0.000359 -0.706959
0.707303 -0.000887 0.706237
-0.001412 0.708708 0.707246
-0.708197 0.707423 0.002050
-0.001280 0.707148 -0.706120
-0.707480 0.707218 -0.000056
0.706965 0.710234 -0.001569
0.707314 0.000019 0.706063
0.000724 -0.706748 0.706019
0.000381 -0.705302 0.707568
-0.706379 0.708467 0.000555
-0.707404 0.001294 0.706373
-0.706926 -0.001960 -0.706573
-0.000258 -0.707893 -0.708378
0.000569 0.708187 0.708709
0.707909 -0.001269 0.705111
0.705610 0.706755 0.000791
0.707849 0.707821 0.001374
-0.001653 0.708012 -0.707648
-0.001238 0.708732 -0.706219
-0.000817 0.706413 -0.706981
0.707580 0.709073 0.000661
-0.707664 0.001767 -0.706738
0.704637 0.001074 0.708541
-0.707534 -0.001062 0.707212
0.001513 0.705445 -0.708225
-0.707195 -0.000389 0.706223
0.705545 0.706910 -0.000482
0.000530 -0.708069 -0.706494
0.001661 -0.706217 -0.707130
-0.709001 0.707150 -0.000317
0.707775 -0.000009 0.705274
-0.707484 0.709294 0.000102
-0.706067 0.707774 -0.000790
-0.708011 -0.705594 -0.001203
0.000156 -0.707034 0.708838
-0.707493 -0.706497 0.001496
-0.000531 0.707673 0.707511
-0.706112 -0.000598 0.707179
0.707792 0.000440 0.706332
-0.000872 -0.707850 0.706816
-0.708522 -0.000134 0.707567
-0.709469 0.001226 0.706364
0.707326 0.707704 0.001412
-0.706267 -0.000313 -0.706861
0.002488 -0.707568 0.705733
-0.706400 0.000055 -0.707463
-0.000445 0.706431 0.706957
0.706533 -0.705807 0.000281
-0.000754 -0.706632 -0.708524
0.705762 -0.001149 -0.708136
-0.000692 0.707481 0.708018
0.705901 -0.000176 -0.706327
-0.706985 -0.708717 -0.000444
0.707054 0.000609 -0.706910
0.000796 -0.708296 0.705850
0.706614 -0.001031 -0.706666
0.000118 -0.707705 -0.707769
0.001318 -0.707491 0.707510
0.705601 0.000917 -0.707470
-0.707146 0.707509 0.000354
-0.000272 -0.706823 -0.709625
0.001011 0.706773 0.706458
-0.000187 0.707281 -0.707079
-0.000852 -0.706736 -0.707112
-0.705832 0.000614 -0.708168
-0.705637 -0.704880 -0.000203
0.000000 0.707135 -0.706744
0.705546 0.000035 0.708153
-0.705553 0.706437 -0.001865
0.706439 0.001433 0.705654
0.709424 0.000832 0.704867
-0.708797 0.706403 0.000383
0.000303 -0.708722 -0.708113
-0.707329 0.000479 0.705029
0.707580 0.706750 -0.000100
-0.000105 0.706228 -0.706016
-0.706621 0.707166 -0.000153
0.708558 -0.000025 -0.705628
0.000116 -0.707035 0.707676
-0.706756 -0.001143 0.706704
0.002498 0.707629 -0.705893
0.001213 0.707725 0.705397
0.708295 0.002398 0.706108
-0.707850 0.000323 -0.707862
-0.706874 0.707185 0.000134
-0.707379 -0.706557 -0.000687
0.707775 -0.001051 0.706346
-0.707623 0.000559 -0.705054
0.000429 -0.707261 -0.705722
0.706403 0.705194 -0.000139
-0.707293 -0.708032 0.000387
0.708108 -0.706222 -0.000570
-0.706228 0.000674 0.707502
-0.706948 0.001439 0.709024
-0.707789 0.000852 -0.706892
0.707256 0.000581 -0.707834
0.707910 -0.706297 -0.000991
0.000574 -0.708357 0.707665
0.001795 0.705899 -0.707774
-0.001359 0.705793 -0.705988
0.706739 0.706753 -0.000973
0.707168 -0.707190 0.000142
0.000779 -0.706979 -0.706652
-0.706746 0.000491 0.704893
0.707342 -0.707159 -0.001034
-0.707067 0.000383 -0.705339
0.707528 -0.706285 0.000090
-0.705042 0.000913 -0.707674
-0.000923 0.707873 0.706869
0.707112 0.705251 0.001635
0.708890 -0.000606 -0.707144
0.001619 0.708594 -0.706719
-0.707796 -0.000156 0.708426
-0.708182 -0.706514 -0.001249
-0.707755 0.706391 -0.000001
-0.000909 0.708030 0.708535
-0.707819 0.707998 -0.000455
-0.000596 -0.707276 -0.707519
0.706154 -0.705547 0.001616
-0.707631 0.707671 0.001063
-0.707738 -0.706913 -0.000615
0.708464 0.000739 0.707556
0.707050 -0.706177 -0.000024
-0.707481 -0.000154 -0.705928
-0.000233 -0.706124 0.708517
0.000097 -0.706558 0.708402
0.000273 -0.706647 0.708278
-0.706361 -0.708112 -0.001414
-0.706870 -0.001565 0.707234
0.001081 -0.707225 0.706573
-0.707286 -0.001208 0.705605
0.708019 0.001525 -0.708450
0.706632 0.707546 0.001000
-0.000481 0.707177 0.706768
0.706343 -0.000299 -0.707356
-0.706962 0.707210 -0.001716
-0.705633 0.707376 -0.000134
-0.704926 0.706243 0.001198
0.708316 0.707755 -0.001436
0.707508 -0.706760 0.002401
0.707273 0.708312 -0.001512
0.708629 0.001095 0.706903
-0.706300 0.706191 0.001361
-0.706137 -0.000681 0.708488
-0.001046 0.706175 0.707377
0.707530 -0.000747 -0.705639
-0.000184 -0.708074 0.707334
-0.707316 -0.706461 0.000140
0.000058 0.707447 -0.705583
0.705726 -0.000159 -0.707856
-0.708203 0.000180 0.709013
-0.707977 0.706624 -0.000732
0.706817 0.708586 0.000025
0.707381 0.707544 -0.000375
-0.706257 -0.708159 -0.001727
0.707307 0.000243 -0.706001
-0.708399 -0.706895 0.000623
-0.707366 -0.706693 0.000536
-0.706444 0.000328 0.707896
-0.706523 -0.000805 -0.706092
-0.707360 0.000359 -0.708593
0.000275 0.706597 -0.707020
0.706886 -0.000960 0.707577
-0.706977 0.707058 -0.000716
-0.000770 -0.709286 -0.705797
0.706423 0.709207 0.000436
0.000063 0.707239 -0.705107
-0.708052 0.706931 0.000639
0.000674 0.709310 0.708102
-0.707488 -0.001495 -0.706234
0.001140 0.707539 -0.707796
0.000730 -0.707349 0.706077
0.706483 0.706151 0.000708
0.707572 0.000008 0.707554
-0.708255 0.001023 0.708652
0.001145 0.706024 0.706215
0.001421 -0.706662 -0.704671
-0.000151 -0.706579 -0.705660
0.001553 -0.709395 -0.708209
0.706050 0.707070 0.000914
