OFF
256 0 0
-0.705223 0.026248 0.655511
-0.707923 0.026236 0.654024
-0.706672 0.026425 0.654015
0.711922 -0.014346 0.703315
0.025443 0.691072 -0.693288
0.681062 -0.006115 -0.651053
0.025914 -0.691825 -0.663043
0.668948 -0.663574 0.027552
-0.019101 -0.690019 0.653654
-0.019686 -0.689715 0.651437
0.028714 -0.687796 -0.663686
-0.627657 0.653806 0.005447
0.678050 -0.006417 -0.652065
-0.024923 0.667390 0.676391
0.028014 -0.689814 -0.663306
-0.024834 0.668006 0.676687
0.024391 0.689609 -0.693357
-0.628844 0.656069 0.006635
-0.020335 -0.689947 0.654304
-0.019474 -0.691042 0.651292
-0.701905 -0.666787 -0.030955
0.669019 -0.661749 0.027836
0.711215 -0.013474 0.703205
0.682164 -0.006258 -0.651568
-0.701780 -0.668987 -0.032816
0.712093 -0.013444 0.704539
0.025486 0.689826 -0.692910
-0.688641 0.005313 -0.694134
-0.627948 0.654722 0.006099
-0.626271 0.654566 0.006327
0.026539 -0.688613 -0.663113
-0.020399 -0.689943 0.650777
0.680350 -0.005235 -0.650875
0.680284 -0.006433 -0.651583
0.025668 0.689681 -0.695569
0.025073 0.689823 -0.692956
-0.707061 0.025623 0.655119
0.024880 0.689015 -0.692404
0.028046 -0.689715 -0.663535
0.679002 -0.006640 -0.651543
0.026874 -0.689345 -0.662192
-0.707231 0.024657 0.656303
0.669805 -0.664606 0.028132
-0.022495 0.666276 0.677065
-0.023408 0.667520 0.676829
-0.021040 -0.690237 0.652468
-0.688210 0.004101 -0.694045
-0.023922 0.665830 0.677025
0.026636 -0.689423 -0.661847
-0.702927 -0.670296 -0.032976
0.027151 -0.689384 -0.660843
-0.018881 -0.688278 0.652126
-0.686870 0.001894 -0.695187
0.027827 -0.688482 -0.663616
-0.687503 0.004205 -0.693631
0.657146 0.691969 0.012661
-0.626893 0.653449 0.007991
0.679873 -0.006856 -0.650653
-0.627795 0.654633 0.006414
-0.707596 0.025258 0.654035
-0.020527 -0.689817 0.652422
-0.019039 -0.688763 0.652233
-0.018247 -0.688964 0.652130
-0.706411 0.024197 0.655903
-0.628526 0.654010 0.005671
-0.023831 0.667065 0.676049
0.028126 -0.688792 -0.663585
0.669436 -0.663457 0.027073
-0.627248 0.654686 0.006508
-0.700592 -0.668745 -0.031578
0.709013 -0.014369 0.702470
0.655788 0.693405 0.012839
-0.702750 -0.669063 -0.033087
-0.629449 0.653939 0.007290
-0.629279 0.654224 0.006587
0.027778 -0.689159 -0.664129
0.669986 -0.664495 0.028397
0.678415 -0.006811 -0.651198
-0.626165 0.654081 0.005324
0.024652 0.689049 -0.694477
-0.687690 0.001456 -0.696958
-0.020489 -0.689221 0.651139
0.709293 -0.013619 0.705748
-0.702740 -0.668793 -0.030876
-0.687639 0.003516 -0.695582
-0.628727 0.654832 0.005327
-0.023350 0.668264 0.677069
0.679392 -0.005936 -0.652457
-0.688601 0.004455 -0.693849
-0.017001 -0.689729 0.653068
-0.689025 0.003208 -0.695369
-0.019106 -0.689877 0.653101
-0.703235 -0.669776 -0.031019
-0.688909 0.002361 -0.695269
0.024875 0.689976 -0.691583
-0.023657 0.666573 0.677451
0.679836 -0.006914 -0.652316
-0.018605 -0.690133 0.651404
-0.706368 0.025370 0.654589
-0.702382 -0.668725 -0.031366
0.671243 -0.662603 0.029146
0.027577 -0.689587 -0.662469
0.654936 0.690856 0.010520
-0.627474 0.652753 0.006554
-0.701015 -0.668773 -0.031793
-0.018429 -0.689954 0.652525
0.679717 -0.006382 -0.651334
0.655985 0.690369 0.010395
-0.024915 0.666582 0.675544
0.027810 -0.690675 -0.661514
0.681256 -0.005172 -0.651136
0.024415 0.687695 -0.692572
-0.701044 -0.669040 -0.031075
-0.701176 -0.668821 -0.032988
-0.627641 0.654397 0.005499
0.709142 -0.011818 0.703514
-0.702064 -0.668786 -0.031564
-0.706102 0.025262 0.655408
0.680545 -0.006525 -0.649322
-0.702758 -0.668459 -0.031754
-0.687685 0.004209 -0.694849
-0.707091 0.026462 0.653911
-0.024489 0.666404 0.676964
0.678558 -0.005584 -0.649196
0.025647 0.690363 -0.693508
0.679169 -0.007030 -0.651275
-0.024610 0.666638 0.676372
0.708961 -0.014766 0.704156
0.711626 -0.013563 0.702164
-0.023213 0.667554 0.678767
-0.707873 0.028036 0.654803
0.680162 -0.004749 -0.651367
-0.688123 0.003204 -0.694737
-0.707135 0.026132 0.654125
-0.687639 0.003467 -0.694525
0.025737 0.688504 -0.693997
0.709380 -0.013907 0.702704
-0.707483 0.026330 0.655752
-0.687449 0.003125 -0.695437
0.654258 0.690998 0.011274
0.029867 -0.690117 -0.664505
0.670505 -0.662780 0.029450
0.681042 -0.005733 -0.652094
0.027499 -0.689951 -0.663944
0.027752 -0.689920 -0.663888
-0.703277 -0.666523 -0.031565
-0.707728 0.025527 0.657032
-0.629046 0.653068 0.007138
-0.017906 -0.688124 0.652950
0.656853 0.691426 0.010393
0.711535 -0.015287 0.703568
-0.023740 0.667925 0.675757
0.024387 0.690931 -0.693383
-0.627420 0.654706 0.007184
-0.688222 0.003879 -0.695795
0.025783 0.689383 -0.692926
-0.687625 0.000631 -0.695602
0.671003 -0.664862 0.027039
0.025282 0.688656 -0.693314
-0.701635 -0.668360 -0.031995
-0.020103 -0.690960 0.653276
0.655535 0.689862 0.013491
-0.023992 0.668220 0.676338
-0.706983 0.026825 0.657224
-0.018664 -0.690894 0.652887
-0.703785 -0.669801 -0.031086
0.671866 -0.664230 0.028033
0.025820 0.689318 -0.694684
-0.689170 0.003711 -0.694969
-0.626548 0.653817 0.005740
0.027641 -0.688506 -0.663079
-0.700699 -0.669357 -0.031456
-0.018759 -0.688778 0.651644
0.025862 0.689311 -0.694287
0.026291 0.689120 -0.695071
-0.627765 0.654084 0.008255
-0.019092 -0.690822 0.653000
-0.019761 -0.688924 0.652548
-0.025607 0.666022 0.677270
-0.625437 0.654449 0.006481
0.709262 -0.014355 0.704920
0.680090 -0.006517 -0.650810
-0.701927 -0.669043 -0.031433
-0.708468 0.026058 0.654868
-0.706995 0.027346 0.656287
0.669268 -0.664888 0.027524
-0.019249 -0.689918 0.652591
-0.701406 -0.668069 -0.031764
-0.688289 0.003270 -0.696412
0.709410 -0.013690 0.702780
-0.628489 0.654066 0.006084
-0.687002 0.003757 -0.695048
0.670793 -0.662274 0.028148
-0.702156 -0.669808 -0.032213
0.679974 -0.005108 -0.651210
-0.700672 -0.669194 -0.031420
-0.017828 -0.689009 0.652450
0.023485 0.688498 -0.692917
-0.023652 0.668956 0.675740
0.026660 -0.690162 -0.663628
-0.023069 0.667531 0.676520
-0.707170 0.026571 0.655643
0.669645 -0.662486 0.029451
-0.687515 0.003742 -0.694242
0.657477 0.692751 0.011567
0.669765 -0.663920 0.028611
0.680283 -0.004023 -0.650931
0.679397 -0.005104 -0.650407
-0.627404 0.653161 0.007073
0.711873 -0.015195 0.703588
0.026607 0.688785 -0.693453
-0.022057 0.666940 0.676050
-0.024665 0.666740 0.677144
0.654297 0.691214 0.011264
0.025704 0.689896 -0.694504
-0.689358 0.001614 -0.693601
-0.707576 0.026478 0.653866
0.029103 -0.688390 -0.663434
0.711117 -0.014838 0.704525
-0.702595 -0.669213 -0.033075
0.679762 -0.006378 -0.651226
-0.025423 0.666826 0.675664
-0.023391 0.668032 0.675086
-0.023134 0.665864 0.676417
0.025392 0.689847 -0.693548
0.027887 -0.692056 -0.666258
0.670459 -0.663152 0.028040
-0.701513 -0.667785 -0.030561
-0.626749 0.654532 0.005542
0.027653 -0.690716 -0.660569
-0.627912 0.653682 0.005166
0.670815 -0.665377 0.027152
-0.701270 -0.670206 -0.030667
-0.707959 0.027649 0.656385
-0.702603 -0.669731 -0.032041
-0.701716 -0.671278 -0.034200
0.024423 0.690838 -0.693203
-0.704456 -0.668380 -0.030840
0.710158 -0.014561 0.705678
-0.708224 0.026312 0.653744
-0.702295 -0.668472 -0.031527
0.655656 0.691256 0.013312
-0.019097 -0.688523 0.653027
0.025100 0.689036 -0.694223
-0.686313 0.004953 -0.695087
-0.705545 0.027479 0.654251
-0.020349 -0.691165 0.653643
-0.706938 0.025106 0.655242
0.711418 -0.011427 0.704460
0.709597 -0.011938 0.704648
0.021977 0.689710 -0.693176
0.679332 -0.006611 -0.651916
0.667533 -0.664710 0.028595
-0.703749 -0.668702 -0.030964
-0.701780 -0.669095 -0.031962
0.680261 -0.006711 -0.652849
