OFF
256 0 0
0.240693 0.662670 0.225274
0.675483 0.635658 -0.211890
-0.234045 0.657302 -0.209014
-0.215798 -0.207412 0.646216
-0.680047 -0.643808 -0.254731
0.652913 -0.220478 0.650786
0.653044 0.213673 -0.655379
-0.203932 -0.676399 -0.688514
0.651158 -0.219731 0.651702
0.686059 0.227583 0.237658
-0.217436 0.220177 -0.671163
-0.217858 0.222460 -0.670600
0.656754 -0.181387 -0.198329
0.657629 -0.184085 -0.198237
-0.228076 -0.644062 0.200632
-0.657809 -0.213936 0.237417
0.239320 0.664141 0.228059
-0.251181 0.658173 0.666869
0.223433 -0.647025 -0.215034
-0.252951 0.658510 0.667783
0.659273 -0.182690 -0.197889
-0.218852 0.219481 -0.670504
-0.202373 -0.675521 -0.687981
0.226995 0.226005 0.673566
0.655453 0.215953 -0.658017
0.653096 -0.220558 0.648807
0.221343 0.639534 -0.634737
-0.675365 0.628698 0.205554
-0.678302 0.226062 0.701253
0.221737 0.637602 -0.635602
-0.673855 0.630937 0.207250
0.657657 -0.183107 -0.197309
-0.673091 0.629025 0.205895
-0.675249 0.628680 0.205678
-0.206159 -0.676217 -0.687160
-0.624774 -0.197530 -0.708130
0.658580 -0.182733 -0.199767
-0.676986 0.223018 0.700742
0.239586 0.662652 0.227945
0.654091 0.213613 -0.656507
-0.202799 -0.675780 -0.685593
-0.215906 -0.207889 0.647019
-0.236837 0.661138 -0.210979
0.686005 0.228431 0.238476
0.652370 -0.219912 0.649246
-0.677265 0.225241 0.701755
0.196791 -0.656887 0.645564
0.221617 0.638599 -0.635601
-0.673399 0.630249 0.207802
0.650466 -0.219994 0.650600
-0.679498 -0.643470 -0.256037
-0.204973 -0.675345 -0.688049
0.654076 0.214965 -0.656620
0.226762 0.224773 0.673715
-0.203229 -0.676050 -0.688657
-0.219414 0.221570 -0.669370
0.657775 -0.183603 -0.198702
0.227293 0.225448 0.673404
-0.230146 -0.643345 0.201450
0.238983 0.661106 0.228771
0.686543 0.229617 0.237532
0.675118 0.637481 -0.212083
-0.674579 0.629124 0.207029
-0.659644 -0.215778 0.237530
-0.680629 0.188071 -0.201566
0.240327 0.664673 0.226980
-0.228931 -0.642640 0.200726
-0.204074 -0.676411 -0.686319
-0.214425 -0.210939 0.646419
0.196473 -0.658775 0.644925
0.227084 0.224523 0.674017
0.652412 0.214783 -0.657217
0.676898 0.638961 -0.212515
0.686316 0.228925 0.238715
0.677824 -0.665763 0.228638
0.675539 -0.666752 0.229963
-0.234563 0.659141 -0.210687
-0.681615 -0.643905 -0.253330
0.226991 0.227258 0.674874
-0.233010 0.661169 -0.212378
0.224932 -0.646928 -0.216476
-0.231667 -0.642436 0.201303
0.657880 -0.180840 -0.197591
-0.213494 -0.207671 0.646930
-0.673425 0.630001 0.206021
-0.217175 0.222057 -0.669850
-0.677724 0.226949 0.701461
0.223731 -0.648503 -0.215776
0.676104 0.638112 -0.211674
0.650557 -0.221582 0.649329
0.656570 0.215136 -0.656462
0.225065 -0.648419 -0.217898
0.239013 0.665267 0.227610
0.676968 -0.666463 0.229015
-0.220039 0.220613 -0.670722
-0.218188 0.220067 -0.671540
0.197102 -0.658037 0.645754
-0.213293 -0.209103 0.646201
0.686304 0.228554 0.237702
-0.228522 -0.643501 0.200527
-0.623627 -0.194932 -0.708067
-0.674676 0.225914 0.701724
0.678713 -0.665937 0.227652
-0.218397 0.220921 -0.669203
-0.674469 0.629757 0.205781
-0.215974 -0.209203 0.646406
-0.676343 0.225188 0.701263
-0.623817 -0.196244 -0.709861
-0.660494 -0.216843 0.239322
-0.233695 0.657962 -0.209979
0.219788 0.638052 -0.636832
0.238939 0.662389 0.226455
-0.231917 -0.642204 0.200004
-0.674789 0.629114 0.207704
-0.675875 0.224397 0.702047
-0.674341 0.628047 0.206674
-0.675371 0.225616 0.702327
0.652099 -0.221222 0.648647
-0.657994 -0.215941 0.237059
-0.216106 -0.208530 0.647170
0.677061 -0.666276 0.229895
-0.672944 0.628141 0.206937
-0.680629 0.185703 -0.200475
0.686258 0.229589 0.236826
0.226061 0.226357 0.675717
-0.204232 -0.673994 -0.689421
0.225330 -0.649995 -0.215974
0.220670 0.637622 -0.635577
-0.252494 0.657856 0.667951
0.651515 -0.220225 0.649544
0.653298 -0.219636 0.650167
-0.234421 0.660241 -0.212078
0.239837 0.663305 0.225258
0.674373 0.637315 -0.211070
-0.217623 0.220311 -0.669856
-0.678556 -0.644450 -0.254413
-0.660145 -0.216740 0.237170
0.238557 0.665000 0.227866
-0.679244 -0.645261 -0.255473
0.221653 0.637851 -0.636091
0.226446 0.225585 0.674476
0.686082 0.228062 0.237857
-0.676928 0.224013 0.700347
-0.677340 -0.644463 -0.254365
-0.678437 -0.642381 -0.254366
0.221122 0.639358 -0.636188
0.658763 -0.184166 -0.198217
-0.678814 -0.644623 -0.257598
0.228132 0.224646 0.674456
-0.215899 -0.210637 0.645056
-0.217641 0.220854 -0.669400
0.677348 -0.667121 0.227511
-0.252180 0.656690 0.668583
0.676102 0.636774 -0.211973
0.222964 -0.648051 -0.215956
-0.661382 -0.217018 0.237436
-0.681205 0.186842 -0.200076
-0.202326 -0.676765 -0.689381
0.217710 0.638021 -0.633386
-0.233234 0.660510 -0.211303
-0.230112 -0.642631 0.201175
-0.253204 0.657744 0.669451
0.677422 -0.665743 0.228954
-0.659405 -0.215805 0.236908
0.225052 -0.647380 -0.214877
0.653727 0.215158 -0.655986
0.676930 -0.667135 0.230236
-0.235815 0.658060 -0.209559
0.221316 0.638471 -0.635223
-0.204473 -0.675677 -0.689726
0.240085 -0.229156 -0.674221
-0.674061 0.630359 0.205331
-0.214751 -0.208871 0.647226
-0.234802 0.660365 -0.210205
0.225152 -0.646430 -0.216404
0.687862 0.228269 0.237002
0.226535 -0.647998 -0.215491
-0.625221 -0.197438 -0.708903
0.685456 0.229420 0.238442
0.658314 -0.184150 -0.197357
-0.215775 -0.210177 0.645871
-0.673361 0.628851 0.208604
0.195871 -0.658666 0.645707
0.226131 -0.648914 -0.216805
-0.681810 0.185993 -0.199460
0.196664 -0.657092 0.645876
-0.675687 0.628091 0.208614
0.651041 -0.220779 0.650483
0.225130 0.225844 0.673207
-0.218151 0.222090 -0.669187
0.220785 0.637793 -0.636295
0.220669 0.639114 -0.634695
-0.676014 0.226319 0.699723
-0.681287 0.186415 -0.200144
-0.681191 0.187108 -0.198466
-0.229980 -0.641425 0.201977
0.675157 0.634589 -0.212568
0.239821 0.663160 0.226451
0.237212 0.663666 0.228381
-0.678515 -0.644840 -0.255209
-0.218066 0.219526 -0.669633
-0.204179 -0.675890 -0.688547
-0.624308 -0.196579 -0.709101
0.652159 -0.220542 0.650960
0.225767 -0.650494 -0.215156
0.655624 -0.182309 -0.196914
0.225863 0.224488 0.674915
0.657000 -0.184239 -0.197144
-0.677459 -0.644772 -0.256100
-0.206289 -0.675473 -0.688355
-0.624603 -0.195404 -0.706810
0.657701 -0.182346 -0.196899
0.678753 -0.667214 0.230470
-0.254376 0.657062 0.667637
0.195882 -0.657229 0.644025
0.224008 -0.647128 -0.215209
0.655717 0.216286 -0.656637
-0.253018 0.658675 0.667193
0.655407 0.216257 -0.656817
0.652568 -0.220866 0.650161
-0.682425 0.187780 -0.199534
0.223087 -0.646935 -0.215060
0.686729 0.229425 0.238356
-0.215829 -0.209292 0.648154
0.220883 0.639271 -0.634316
-0.217726 0.222361 -0.669495
0.651686 -0.220943 0.652017
-0.678301 -0.644807 -0.254721
-0.681340 0.188368 -0.199859
0.676517 0.637632 -0.210499
-0.676303 0.224959 0.703102
0.686943 0.230346 0.236157
-0.676744 0.226409 0.699909
-0.623513 -0.196313 -0.708765
-0.203282 -0.677390 -0.687714
-0.677194 0.224514 0.701538
-0.681057 0.186769 -0.201137
0.654534 0.214292 -0.656572
-0.254516 0.656675 0.666873
-0.624627 -0.196225 -0.707185
0.655273 0.215573 -0.657159
-0.251738 0.657282 0.667786
-0.678882 -0.643505 -0.254792
-0.216495 -0.211128 0.646895
0.238363 -0.228940 -0.673358
0.220483 0.639276 -0.636782
0.239337 -0.226266 -0.674449
-0.674459 0.630647 0.206987
0.227652 0.227219 0.672327
-0.677320 -0.644686 -0.256610
0.675327 0.634435 -0.211106
-0.205530 -0.677076 -0.688792
-0.233626 0.660450 -0.208761
0.674625 0.635207 -0.212164
-0.235021 0.659743 -0.210288
0.675643 0.636581 -0.211632
