OFF
256 0 0
-0.312298 0.155847 -0.744005
-0.261441 -0.234955 0.624602
0.628569 0.171067 0.192730
-0.314169 0.156758 -0.748839
-0.731278 -0.263102 0.157539
0.173387 -0.327416 -0.773213
0.171626 -0.324425 -0.772243
0.614333 0.150620 -0.743046
0.160510 0.599896 0.152940
0.160957 0.600420 0.152584
0.159403 0.599923 0.152131
-0.754837 0.614484 0.161662
-0.312305 -0.719074 0.173649
0.143548 -0.766791 -0.261501
0.586574 -0.294079 -0.306144
0.159388 0.599656 0.153725
-0.303195 0.605093 -0.272294
0.586884 -0.294335 -0.306486
0.627960 0.171378 0.192979
0.172334 -0.326848 -0.774206
0.157200 -0.733670 0.616861
0.141015 -0.770209 -0.261056
0.627323 0.171086 0.191547
0.158860 0.600060 0.153224
-0.302180 0.602222 -0.269222
-0.756137 0.616921 0.160000
-0.312392 -0.718196 0.172937
-0.755523 0.614450 0.161632
-0.732205 -0.265204 0.155676
-0.262295 -0.235892 0.624374
0.172529 -0.326610 -0.774102
-0.754412 0.614957 0.161249
0.623975 -0.750009 0.156398
-0.262231 -0.236282 0.623031
0.617863 0.593278 -0.295848
-0.747203 0.145077 -0.288871
0.618311 0.592879 -0.296987
-0.260364 -0.236025 0.624377
-0.311487 0.157270 -0.746895
-0.278922 0.646094 0.630369
-0.280669 -0.282793 -0.317429
0.624946 0.170604 0.192099
-0.311205 -0.717370 0.171577
-0.281055 -0.284437 -0.315323
-0.303537 0.604546 -0.270377
-0.310478 -0.716749 0.172799
0.160714 0.600828 0.154600
-0.302861 0.602626 -0.270346
-0.312006 -0.716655 0.174317
0.617117 0.593333 -0.295063
-0.748528 0.145423 -0.290038
0.623912 -0.749816 0.154896
-0.748415 0.144756 -0.289810
-0.279958 0.645116 0.630426
-0.716044 0.189117 0.623538
0.625173 0.170883 0.192186
-0.314332 0.157008 -0.748829
-0.729529 -0.265040 0.156325
-0.261309 -0.237783 0.622502
0.623813 -0.751897 0.157741
-0.283197 -0.284156 -0.314816
-0.714081 0.188571 0.621933
0.615637 0.595684 -0.295604
0.629870 -0.308708 0.632757
-0.280679 0.645788 0.631448
0.632646 -0.312492 0.631208
0.631829 -0.311166 0.633033
-0.311448 -0.717695 0.174209
0.630239 -0.309657 0.632291
0.143211 -0.768703 -0.259070
-0.261789 -0.235717 0.623336
-0.716014 0.187466 0.622500
-0.279430 0.646563 0.629755
0.587531 -0.294246 -0.305430
-0.279117 0.646879 0.630484
-0.281165 -0.284995 -0.316439
-0.311869 -0.714933 0.173743
0.160265 0.600466 0.153603
-0.302837 0.603115 -0.268207
0.615518 0.151649 -0.740984
-0.279655 0.645642 0.633084
-0.731806 -0.266154 0.155330
-0.312676 0.157792 -0.748036
0.615563 0.592690 -0.296854
-0.715335 0.189149 0.621272
0.155838 0.628571 -0.761501
0.617395 0.592551 -0.296485
-0.281479 -0.283053 -0.317178
-0.280624 -0.285043 -0.315969
-0.312037 -0.716136 0.173145
0.622537 -0.751456 0.156313
-0.259752 -0.237596 0.624351
0.142629 -0.768505 -0.259794
0.584448 -0.293842 -0.308997
0.160766 0.600316 0.152523
-0.311461 -0.715743 0.172496
-0.755644 0.614232 0.162740
0.143705 -0.768241 -0.259295
-0.312584 0.158405 -0.747248
0.212005 0.181925 0.643912
0.623717 -0.750462 0.157093
0.587233 -0.293705 -0.308255
0.155684 0.629839 -0.760346
0.158279 0.597103 0.152857
-0.311889 -0.716925 0.173762
-0.716545 0.189099 0.622304
0.616300 0.593659 -0.296402
-0.755387 0.614243 0.159818
0.161189 0.599116 0.152162
-0.749038 0.145847 -0.289136
-0.727636 -0.264557 0.155314
0.626358 0.171689 0.191857
0.585551 -0.295790 -0.307650
0.159770 0.600662 0.154463
0.630403 -0.309829 0.630585
-0.755604 0.614697 0.162667
0.586253 -0.295220 -0.306180
-0.303897 0.605025 -0.269602
0.623584 -0.751110 0.154900
0.157025 -0.732296 0.614479
0.624709 -0.751792 0.157095
-0.729756 -0.263156 0.154909
-0.730300 -0.262942 0.155776
0.155646 0.630571 -0.762335
-0.755220 0.615836 0.163503
0.173432 -0.325955 -0.772695
0.142297 -0.768119 -0.258395
0.158980 0.599177 0.152195
-0.311349 -0.715740 0.173273
0.155429 -0.731245 0.615704
0.622558 -0.752241 0.156496
0.211997 0.181532 0.642258
0.156356 -0.731280 0.615382
-0.732278 -0.265308 0.156239
-0.313514 0.158722 -0.748162
0.615826 0.593329 -0.295241
-0.747613 0.144361 -0.289133
-0.301868 0.604374 -0.269296
0.143134 -0.769567 -0.261367
0.625035 0.171346 0.192623
-0.280429 -0.283373 -0.316476
-0.729798 -0.264456 0.155260
0.630471 -0.310473 0.635270
0.587096 -0.294729 -0.307349
-0.748380 0.145887 -0.290762
-0.312551 0.158315 -0.747246
0.211669 0.180114 0.641649
0.586013 -0.295128 -0.306012
-0.281580 -0.283255 -0.315936
0.159021 0.600450 0.151431
0.209960 0.181899 0.640893
0.173845 -0.326867 -0.772960
0.616446 0.594261 -0.296060
0.141421 -0.766958 -0.260077
-0.312682 0.158403 -0.748863
-0.309530 -0.715397 0.174886
0.172265 -0.325771 -0.772135
-0.261614 -0.237326 0.621714
0.142586 -0.769390 -0.260509
0.624039 -0.752443 0.156894
0.584693 -0.294035 -0.303874
0.615793 0.150989 -0.741773
-0.281220 -0.283427 -0.316398
0.628198 0.169883 0.190411
0.155268 0.630374 -0.762546
0.160779 0.601189 0.152267
0.211372 0.180438 0.641592
0.614466 0.151638 -0.743342
-0.278288 0.644508 0.633176
-0.749874 0.146124 -0.290087
0.143600 -0.767540 -0.258763
-0.314204 0.158307 -0.746860
0.615372 0.594163 -0.295631
-0.730089 -0.265699 0.152485
0.210675 0.181035 0.642102
-0.310491 -0.716059 0.176679
-0.755487 0.615684 0.162309
0.152827 0.629168 -0.762098
-0.755026 0.616054 0.162577
-0.716555 0.187024 0.624190
0.210652 0.183411 0.641175
-0.282825 -0.283771 -0.316649
-0.729197 -0.265363 0.155658
0.211865 0.181857 0.640860
0.212131 0.183341 0.642886
0.616511 0.594707 -0.296886
0.631073 -0.311943 0.634381
0.155738 -0.734744 0.615169
0.210426 0.182401 0.639737
0.155924 0.627606 -0.762281
0.618373 0.595680 -0.296055
0.614855 0.153133 -0.741661
-0.749031 0.142385 -0.288022
-0.310909 -0.717786 0.174505
0.630005 -0.310532 0.633906
0.627681 0.170254 0.192404
0.617999 0.594989 -0.294572
0.623368 -0.750961 0.156925
0.586269 -0.296280 -0.306389
0.628491 0.170584 0.191860
0.614578 0.153243 -0.741991
-0.755469 0.614917 0.159867
0.157881 -0.732866 0.615485
0.143621 -0.766301 -0.259749
0.586175 -0.295204 -0.308044
0.617157 0.153144 -0.740783
0.622976 -0.750291 0.156607
0.172943 -0.326179 -0.774708
-0.730649 -0.265097 0.156230
0.628309 0.170775 0.192381
0.622919 -0.750144 0.158363
0.213339 0.183839 0.642258
0.617592 0.595303 -0.297246
0.623645 -0.751334 0.157621
-0.756112 0.614774 0.162086
0.155182 0.631689 -0.761822
-0.301126 0.604183 -0.271192
0.586592 -0.295553 -0.307131
0.615352 0.152608 -0.739659
-0.311438 -0.717347 0.172425
0.630605 -0.310817 0.633228
-0.262864 -0.236424 0.620982
0.622817 -0.748691 0.157605
-0.300948 0.604965 -0.270816
0.172156 -0.327431 -0.774634
-0.311055 -0.718122 0.173185
-0.747988 0.145982 -0.292128
-0.755705 0.617084 0.161213
-0.730474 -0.264012 0.155806
0.169531 -0.326911 -0.771778
0.586145 -0.293725 -0.304371
-0.279912 0.645561 0.631556
0.155500 0.627502 -0.759817
-0.748004 0.145507 -0.290264
0.624008 -0.750811 0.154572
0.617661 0.596118 -0.296695
-0.260638 -0.238672 0.622875
-0.260881 -0.236162 0.622943
0.627049 0.172008 0.190741
-0.755215 0.614625 0.162769
-0.755956 0.616102 0.160921
0.630171 -0.309402 0.634077
-0.748330 0.146913 -0.289144
0.586707 -0.295157 -0.305037
0.159488 0.600856 0.153579
0.628199 -0.310981 0.633740
0.155282 0.628753 -0.761559
-0.747945 0.144847 -0.289279
-0.752924 0.614163 0.161324
-0.749499 0.145981 -0.290052
0.625198 -0.749323 0.157367
0.212483 0.183167 0.643046
0.615897 0.595128 -0.295214
0.141302 -0.767959 -0.259988
-0.312599 0.158632 -0.746329
0.211156 0.181367 0.641744
