OFF
256 0 0
0.850120 -0.423846 0.101563
0.848578 0.424479 0.104944
0.848622 -0.425548 0.104153
0.847262 -0.425626 0.102115
0.426314 0.425203 0.527093
0.850818 -0.000157 0.527156
0.000366 0.425166 -0.747998
0.849393 0.000772 -0.323147
0.849668 -0.424785 0.102961
0.001119 0.000390 0.525889
0.850024 -0.000318 0.527963
0.000418 -0.000220 0.527175
-0.002354 0.850438 0.526887
-0.425119 -0.423500 -0.322458
-0.425445 0.848464 0.102711
-0.425701 0.850377 0.103397
0.001535 -0.847042 0.526934
-0.850022 -0.000034 0.525641
-0.423965 0.849994 0.103087
0.424033 -0.850538 0.103284
0.849663 -0.000671 -0.322194
-0.849244 -0.000401 -0.323544
-0.849347 0.000921 -0.320750
-0.000137 0.425618 -0.745474
-0.423674 0.850419 0.100532
-0.424262 -0.848790 0.101023
0.849458 0.001757 -0.320593
-0.001678 0.000084 0.527692
0.425097 -0.423892 0.526199
-0.001802 -0.848181 -0.324658
-0.848790 0.425489 0.101083
0.850815 -0.000984 0.526870
0.849587 -0.424903 0.101194
0.851012 -0.425526 0.103915
-0.850358 -0.002046 -0.322257
-0.424824 -0.849257 0.103085
0.425402 -0.849487 0.103122
0.849480 0.000274 0.527466
-0.424212 -0.424498 -0.321010
0.849679 -0.424231 0.103209
0.425946 -0.848776 0.102190
0.424961 -0.424384 -0.322667
-0.850422 -0.424356 0.102525
0.848370 -0.000839 0.528022
0.423830 -0.426888 -0.321225
-0.849302 0.424341 0.105643
-0.424133 0.849185 0.102969
-0.425633 0.424526 -0.322422
0.851015 0.424428 0.101569
-0.425957 -0.426018 -0.321659
-0.000742 0.850218 -0.323376
-0.424998 0.425547 0.527579
0.001697 0.849692 0.527030
-0.425051 0.848643 0.101265
0.000037 0.425498 -0.747182
-0.000443 -0.848090 0.527360
0.425100 -0.423797 0.526162
0.424309 0.848593 0.102128
-0.426542 -0.424319 0.529267
0.000420 0.423086 -0.747197
0.001744 -0.850776 0.528925
0.425993 0.850455 0.104178
-0.849831 0.000952 -0.321923
0.423947 0.425528 -0.322419
-0.423526 0.424425 -0.321666
0.851269 -0.424876 0.101312
0.425504 -0.425847 0.527338
-0.847399 -0.424735 0.104063
-0.424787 -0.847870 0.103282
0.851032 -0.424462 0.102451
-0.000203 0.849722 0.529391
-0.426518 -0.850114 0.102583
0.423526 0.001939 -0.747219
-0.425603 -0.425334 0.528449
0.848931 -0.000800 -0.321673
-0.422848 0.425959 0.527563
0.423778 -0.424184 0.526633
0.424904 -0.427454 -0.319791
-0.000869 0.849338 0.527157
0.425279 0.001367 -0.746521
0.426058 -0.849187 0.101257
-0.424221 0.000320 -0.746683
-0.850648 0.426413 0.098884
0.423928 0.425606 -0.323560
-0.425453 0.000149 -0.746886
0.424525 0.424351 0.527798
-0.426117 0.001182 -0.748313
0.425844 -0.848286 0.103046
0.850322 0.422732 0.101810
0.423898 -0.426576 0.527553
-0.424041 -0.422791 -0.321491
-0.424776 0.425705 -0.322170
-0.427219 -0.424358 0.527293
0.423933 0.423764 -0.323528
-0.849514 0.424471 0.101262
0.423890 -0.426403 0.526354
-0.000272 0.850775 -0.322775
0.849230 -0.000266 0.525955
0.000376 0.850071 -0.322318
-0.424036 -0.426338 0.526402
-0.001406 -0.425598 -0.747881
-0.849598 0.001435 -0.323551
0.002092 -0.849555 0.526432
-0.849667 0.000072 0.526672
-0.424663 0.851276 0.102281
0.848460 0.424772 0.103341
0.425829 0.848538 0.102270
0.424388 -0.000968 -0.747412
0.849831 0.000100 -0.321711
0.423738 -0.849253 0.102820
-0.425428 -0.424698 -0.323634
0.000656 0.423085 -0.746425
-0.424823 -0.849689 0.102586
0.851181 -0.423134 0.104800
0.851621 -0.000187 -0.324351
-0.424243 0.423563 -0.322453
-0.423665 -0.849739 0.102183
0.425473 -0.426115 0.527541
0.000960 -0.851879 -0.321236
0.000906 0.426876 -0.747444
-0.426430 -0.000081 -0.747422
-0.423938 0.423298 -0.321421
0.424934 -0.423821 -0.323301
-0.425059 0.850634 0.102540
-0.000290 0.425531 -0.748154
-0.850601 -0.425573 0.101408
-0.425270 0.000903 -0.747130
-0.426111 -0.424859 -0.323311
0.850906 0.425956 0.105262
-0.424517 0.425113 -0.322516
0.426201 -0.423373 -0.323555
0.424112 0.425447 -0.323317
-0.002015 -0.848359 0.528319
-0.001395 0.850541 -0.323703
-0.848353 0.001096 0.528155
0.849087 0.001390 0.527121
0.849311 0.423740 0.102806
0.425086 -0.425767 -0.322340
0.425934 0.000950 -0.747498
0.001530 0.849566 -0.322123
0.001398 0.424813 -0.746874
0.849634 -0.424606 0.103241
-0.001403 -0.423815 -0.745640
0.848971 -0.002747 -0.322151
-0.425463 -0.425795 -0.320747
-0.849743 0.001918 -0.322584
0.424095 0.424530 0.525814
-0.000576 -0.849605 0.527510
0.001806 -0.849013 -0.321493
-0.848778 0.000557 0.528848
-0.849918 -0.423828 0.101569
-0.424044 0.848709 0.103762
0.426704 -0.423955 0.527046
0.850117 0.425735 0.101381
-0.425482 -0.427063 0.525929
-0.422144 0.850219 0.101127
0.001895 0.849268 0.526949
-0.849915 -0.425677 0.102713
0.423254 0.425909 0.526774
0.425813 -0.850661 0.101723
0.424217 -0.850474 0.102593
-0.422775 0.424153 0.528313
-0.000956 0.000668 0.527428
-0.850604 -0.423562 0.101281
-0.000119 -0.850062 -0.322151
0.422758 -0.424832 0.526660
-0.000383 -0.849902 -0.323164
0.002569 -0.850929 0.526205
-0.849997 0.423635 0.103618
-0.852133 0.424994 0.103536
0.000024 0.000122 0.526419
0.850315 0.425153 0.101190
-0.425482 -0.425978 -0.323834
-0.423583 -0.426011 -0.321127
-0.424992 -0.850192 0.102604
-0.847229 0.426153 0.102892
-0.424121 -0.425919 0.526699
0.425381 -0.425015 -0.321778
-0.000853 -0.850388 0.526646
-0.426102 -0.850346 0.102352
0.000432 -0.847838 0.528812
-0.000683 -0.849146 0.528365
0.847591 -0.000041 0.527988
-0.423942 0.425312 -0.323440
0.850414 -0.001388 0.526861
-0.423141 0.848511 0.101591
0.425187 -0.424550 0.527059
-0.427132 0.849565 0.102247
-0.850859 0.000675 0.527061
-0.426055 0.848102 0.102270
-0.001096 -0.848670 -0.321417
-0.425975 -0.424530 0.528654
-0.425343 -0.423003 -0.320985
0.848737 0.424664 0.101702
0.848924 -0.000021 0.527256
0.850929 0.426013 0.102926
-0.000923 -0.427057 -0.747344
0.849279 0.424238 0.100693
0.425913 -0.849904 0.102300
-0.425060 0.424323 -0.323675
-0.850069 -0.426140 0.102659
-0.423777 -0.423386 -0.322563
0.425077 -0.000210 -0.746389
0.423624 -0.425234 0.527174
0.849382 0.424308 0.101467
0.849070 -0.424281 0.102515
-0.423247 0.001282 -0.749581
0.425472 0.425964 0.527511
0.423973 0.425886 0.528242
-0.424263 -0.000690 -0.746040
-0.849125 0.424569 0.104193
0.424012 -0.000305 -0.747224
-0.002771 0.849225 -0.323445
-0.424177 -0.850471 0.102584
0.850875 0.424047 0.102844
-0.000136 -0.425904 -0.748764
0.424407 -0.849732 0.102181
0.849465 0.427235 0.103671
-0.000582 0.849402 -0.324090
-0.425143 -0.426933 -0.322194
0.000356 0.847463 0.528576
0.851755 -0.001071 0.528318
-0.425159 -0.422950 -0.321927
0.423662 0.848573 0.101807
-0.423751 -0.849216 0.103503
-0.000516 0.848625 -0.320755
0.424495 -0.424857 -0.322473
-0.001385 0.850323 0.527868
0.848815 -0.426016 0.103184
0.000319 -0.000386 0.527227
0.425444 0.849573 0.102675
-0.850677 0.425076 0.102132
-0.850447 0.000402 0.526873
0.425771 -0.423502 0.526048
0.849064 -0.000764 0.526982
-0.846826 0.424114 0.103039
-0.000833 -0.849193 -0.323295
0.425621 -0.849378 0.101593
-0.000654 0.847646 0.526850
0.425628 -0.850298 0.102842
0.000466 -0.849654 -0.322423
-0.426251 0.850097 0.103462
-0.000590 0.426172 -0.747616
0.424089 0.424318 0.526311
0.851195 -0.000334 -0.321222
-0.001246 -0.850604 0.526214
-0.000301 -0.847613 0.527495
-0.424635 0.848568 0.100058
-0.424496 -0.424942 -0.319806
-0.002038 0.426432 -0.747127
0.850700 -0.424032 0.102324
-0.850840 0.001934 0.527674
-0.000028 -0.848943 0.526003
-0.424982 -0.001234 -0.748150
0.423803 0.424090 -0.323440
0.425775 0.425409 0.526521
