OFF
256 0 0
-0.414466 -0.406082 -0.330137
-0.006702 0.416242 -0.724754
-0.013145 -0.837024 -0.323886
-0.423777 0.826433 0.119820
-0.407105 -0.386617 0.513287
-0.827289 -0.411637 0.090086
-0.399165 0.381454 0.500063
0.838311 -0.443171 0.104081
0.404291 -0.842656 0.109876
0.002970 -0.819331 0.505635
0.002190 -0.821679 0.506412
0.412534 -0.417356 -0.258653
-0.015058 -0.837456 -0.322557
0.401304 -0.409136 0.493579
0.807310 -0.014808 0.493552
-0.414114 -0.406137 -0.328084
0.400343 -0.407993 0.489359
0.420202 0.429139 0.485963
0.420952 0.429445 0.488197
-0.015116 -0.836022 -0.323262
-0.009264 0.413784 -0.725237
0.400062 -0.408787 0.492765
0.420219 0.427910 0.485761
-0.009641 0.016844 0.508450
-0.389983 0.374397 -0.297316
0.839365 -0.445771 0.103286
-0.014740 -0.836742 -0.322757
-0.009807 0.017456 0.507708
0.421038 0.010536 -0.730705
0.837781 -0.444678 0.103160
-0.406379 0.010694 -0.760417
-0.433985 -0.827220 0.116578
-0.842651 -0.002522 -0.326136
-0.009781 0.414491 -0.725424
0.414315 0.414479 -0.317846
0.840398 -0.444707 0.102892
-0.014864 -0.410796 -0.747596
0.404378 -0.841175 0.110607
-0.009534 0.018703 0.506970
-0.433278 -0.825602 0.116560
-0.421825 0.826736 0.119164
0.002423 -0.821168 0.506236
0.398412 -0.408163 0.492297
0.011473 0.844558 0.531843
-0.421787 0.827009 0.119825
-0.398514 0.382115 0.501189
-0.016990 -0.410286 -0.747366
0.820471 -0.001736 -0.303334
0.013019 0.846713 0.531495
-0.843259 -0.017868 0.530842
0.001866 -0.818708 0.506103
-0.827969 0.420690 0.114740
0.399871 -0.407293 0.490582
-0.400086 0.381790 0.502955
0.011878 0.845696 0.531051
-0.421214 0.827358 0.120139
-0.841562 -0.018726 0.530261
0.003576 0.829626 -0.305258
-0.432752 -0.826452 0.114949
-0.408609 -0.388411 0.513959
-0.009037 0.414032 -0.723609
-0.420841 0.824348 0.118631
-0.013519 -0.836451 -0.324053
0.422574 0.011900 -0.728697
-0.432258 -0.828346 0.116554
0.001986 -0.819714 0.506100
-0.016820 -0.837279 -0.323636
-0.398925 0.383207 0.501253
0.839230 -0.443260 0.103882
0.821529 0.001897 -0.302569
-0.408249 0.010313 -0.757096
0.013799 0.847910 0.532263
-0.421126 0.825765 0.117583
0.414336 0.414718 -0.317733
-0.008075 0.415067 -0.724293
-0.009146 0.017343 0.507376
0.414011 -0.419070 -0.258471
-0.408378 0.010687 -0.756664
-0.843058 -0.017554 0.528842
-0.390152 0.371502 -0.298618
0.839658 -0.445046 0.105958
-0.391710 0.375431 -0.297386
0.807556 -0.014983 0.492606
0.439649 0.841411 0.091561
-0.015039 -0.836262 -0.324357
0.009906 0.847264 0.531115
0.419779 0.429704 0.487543
0.001438 -0.821417 0.503266
-0.422874 0.827735 0.121302
0.414063 0.415824 -0.319772
0.439191 0.842848 0.090163
0.439963 0.840704 0.093013
0.838898 -0.444057 0.102672
-0.828453 0.422068 0.115189
0.414091 0.414338 -0.317637
0.439887 0.843124 0.092511
-0.008620 0.413769 -0.725707
-0.015236 -0.835611 -0.320986
-0.827373 -0.415217 0.090720
0.438283 0.842069 0.092411
-0.397955 0.382920 0.502909
-0.014330 -0.835784 -0.323595
0.001877 0.831845 -0.306257
0.423616 0.009247 -0.731805
-0.827942 0.420568 0.115486
-0.015423 -0.838798 -0.324325
-0.400515 0.381723 0.499758
0.422795 0.011492 -0.731783
-0.008688 0.017320 0.507209
-0.399232 0.383735 0.499688
-0.388476 0.374280 -0.296178
-0.432138 -0.826340 0.116607
-0.009012 0.016647 0.509033
0.398358 -0.407498 0.490235
-0.408145 -0.388286 0.515810
-0.841939 -0.004047 -0.326503
-0.408650 0.011036 -0.758924
0.413271 -0.416848 -0.257418
-0.399763 0.383837 0.501208
0.438528 0.842450 0.091013
0.421361 0.010334 -0.731867
0.413684 0.414093 -0.319141
0.839680 -0.445378 0.103197
-0.014306 -0.836817 -0.323698
-0.827833 0.420648 0.113681
0.404124 -0.842277 0.111557
-0.843728 -0.003911 -0.325757
-0.014181 -0.835861 -0.322517
-0.424670 0.827743 0.120859
0.419145 0.429591 0.486250
-0.408666 -0.389387 0.514996
-0.408766 -0.388583 0.515089
0.404266 -0.841562 0.110727
-0.009983 0.414397 -0.725916
0.822083 0.000229 -0.302883
0.413511 -0.417691 -0.258376
-0.009803 0.413343 -0.725352
-0.408017 -0.389666 0.515164
0.440482 0.840513 0.091676
-0.407867 -0.388893 0.514171
0.864000 0.432065 0.115322
-0.826055 0.419783 0.114175
0.423561 0.009836 -0.731285
-0.398889 0.382598 0.501265
0.405558 -0.841953 0.109857
-0.401266 0.382046 0.500009
-0.843591 -0.017118 0.530251
-0.414157 -0.406654 -0.328361
0.412883 0.413613 -0.319164
0.411899 -0.417153 -0.258423
-0.841492 -0.006374 -0.325154
-0.408079 0.010947 -0.757082
-0.009018 0.413828 -0.724988
0.422337 0.009687 -0.730554
0.403810 -0.843349 0.111560
0.003031 0.829151 -0.305654
-0.015268 -0.836166 -0.323785
-0.012306 -0.838669 -0.323824
0.011890 0.848290 0.530936
-0.826709 0.422616 0.114654
0.822594 0.002611 -0.303859
0.413385 -0.416655 -0.258768
0.413467 -0.418415 -0.259644
0.009729 0.846063 0.532167
0.011718 0.847594 0.531299
0.807588 -0.016386 0.492509
0.808580 -0.016581 0.493784
0.411560 0.414124 -0.317999
-0.398824 0.381748 0.502178
0.820969 -0.000236 -0.302035
0.837233 -0.443975 0.101157
0.422478 0.009439 -0.729487
-0.845055 -0.016755 0.530200
0.011646 0.847010 0.530608
-0.431987 -0.825581 0.117402
-0.422648 0.827097 0.118269
-0.408327 -0.389729 0.513886
0.401113 -0.407306 0.490378
-0.016980 -0.410071 -0.746564
0.403736 -0.841518 0.110492
-0.414146 -0.404790 -0.326241
0.403433 -0.841399 0.111078
-0.018075 -0.411217 -0.745530
-0.015126 -0.836208 -0.323299
0.838294 -0.444775 0.103411
-0.408719 -0.387519 0.514113
-0.826342 -0.414943 0.090497
-0.412543 -0.406341 -0.327566
0.821506 -0.000094 -0.302661
-0.839879 -0.005037 -0.326282
-0.391433 0.373708 -0.296110
0.422137 0.011600 -0.731348
0.421660 0.010622 -0.730617
0.838116 -0.446165 0.103362
0.865955 0.429256 0.116517
0.405151 -0.842611 0.112372
-0.420744 0.827547 0.117305
0.821856 0.003053 -0.303013
0.011092 0.847297 0.531789
0.412940 -0.417537 -0.259880
-0.827424 0.420316 0.114032
-0.421448 0.824856 0.117557
0.403367 -0.841211 0.109830
-0.432539 -0.825401 0.118763
-0.413740 -0.404188 -0.327859
0.819896 0.000451 -0.302577
0.820469 0.000796 -0.302848
-0.009422 0.016752 0.507248
-0.412347 -0.405745 -0.328709
0.013151 0.846051 0.529350
-0.826603 -0.413137 0.089995
0.821438 -0.000813 -0.302562
-0.014278 -0.835442 -0.323902
0.808375 -0.015472 0.492454
0.440337 0.842144 0.091584
-0.398355 0.381680 0.500847
0.421679 0.430431 0.484341
-0.827839 0.419237 0.116220
-0.017041 -0.410415 -0.747566
0.010824 0.844732 0.531999
-0.828110 -0.413891 0.090863
0.863194 0.430715 0.115834
-0.409377 0.011300 -0.758448
-0.399768 0.382643 0.501328
0.807424 -0.014835 0.492158
-0.408357 -0.389534 0.514054
0.404564 -0.840916 0.112135
-0.009117 0.413431 -0.724027
-0.826581 -0.413844 0.089724
0.013368 0.846899 0.530346
-0.401486 0.382922 0.500675
-0.844233 -0.017189 0.530907
0.415114 0.415696 -0.318346
0.865870 0.431234 0.117006
-0.827776 -0.414156 0.088441
-0.415637 -0.404615 -0.328800
-0.410410 0.011037 -0.759212
-0.007606 0.414815 -0.725163
-0.422642 0.826580 0.117553
0.400985 -0.406101 0.492711
-0.409229 0.010458 -0.758461
-0.827520 -0.416566 0.088569
-0.421684 0.828053 0.117974
-0.009636 0.414387 -0.723647
-0.399554 0.381684 0.503671
-0.433840 -0.828120 0.117905
0.837779 -0.445526 0.103672
-0.413442 -0.404548 -0.328859
0.807464 -0.017004 0.493521
-0.422229 0.825494 0.117278
-0.825914 -0.413773 0.092467
-0.408273 -0.391112 0.514066
0.400374 -0.406067 0.489415
-0.015153 -0.836756 -0.321938
0.419734 0.428887 0.485580
-0.407691 -0.389162 0.513438
