OFF
256 0 0
-0.869043 0.420984 0.086086
-0.412547 -0.409115 0.468169
-0.867853 0.421007 0.085560
0.004906 -0.835305 -0.299287
0.405511 -0.429876 -0.321147
-0.859892 -0.009520 -0.341109
-0.416457 0.392464 -0.288223
-0.426094 0.394376 0.508186
-0.868769 0.421517 0.088182
-0.426410 0.395531 0.506870
0.018144 0.839054 -0.279402
-0.421926 -0.840362 0.084998
0.406199 -0.429668 -0.322061
-0.852306 -0.028086 0.522005
-0.421728 -0.841321 0.084428
0.004549 -0.834488 -0.300749
0.430317 0.874712 0.136897
-0.859177 -0.011217 -0.340118
0.429481 0.875704 0.137393
-0.433631 0.845583 0.088438
-0.843840 -0.430949 0.084439
0.813058 -0.009208 0.539013
-0.853493 -0.028806 0.522645
0.431186 0.874621 0.137686
-0.005374 0.835315 0.505557
-0.003279 -0.414551 -0.711508
0.407666 -0.430075 -0.322206
0.405896 -0.429493 -0.321225
0.856814 -0.417854 0.074136
-0.843812 -0.430185 0.082865
-0.867562 0.421589 0.086003
-0.852167 -0.028532 0.521095
-0.853062 -0.029052 0.522228
-0.416550 -0.390832 -0.305591
-0.002539 -0.831510 0.504471
0.003797 0.406266 -0.727906
-0.853271 -0.027283 0.522641
-0.432548 0.843408 0.088717
0.449519 0.428500 -0.305379
-0.434121 0.846516 0.087689
-0.842163 -0.429961 0.083865
0.006440 0.407698 -0.727238
0.413853 0.020683 -0.722155
0.025976 -0.019364 0.509138
-0.005599 -0.831639 0.505716
0.835126 0.003455 -0.307888
-0.859416 -0.011095 -0.338669
0.429415 0.875847 0.135759
-0.852455 -0.028738 0.520620
-0.435848 0.844513 0.087242
-0.428415 0.392389 0.508500
-0.417296 0.392334 -0.289295
0.426803 0.433197 0.508927
-0.004356 -0.831443 0.507649
0.449247 0.427777 -0.304056
0.814700 -0.009121 0.538095
-0.420146 -0.840757 0.084100
0.002979 -0.833946 -0.300038
0.410888 -0.840420 0.099425
-0.418691 0.393396 -0.289919
-0.416158 0.393287 -0.289386
-0.412327 -0.408579 0.466310
-0.420234 -0.841110 0.084679
0.835659 0.005250 -0.306492
0.413919 -0.836751 0.102917
-0.425931 0.393873 0.507641
0.833105 0.005145 -0.306557
0.004083 0.405521 -0.727047
0.426662 0.432349 0.511225
-0.005826 0.835891 0.505881
0.451218 0.428627 -0.304639
0.026183 -0.016320 0.510538
-0.868490 0.419743 0.086550
-0.417870 -0.000131 -0.739924
-0.003877 -0.834017 0.505772
0.003633 -0.834595 -0.298184
0.859807 -0.414045 0.072191
0.845784 0.430031 0.127343
-0.419308 -0.841294 0.084052
0.405838 -0.430450 -0.323731
0.847987 0.429707 0.128345
-0.867505 0.419944 0.088356
-0.433995 0.844565 0.087260
0.449137 0.430829 -0.302876
-0.001294 -0.414545 -0.714341
-0.004306 -0.832100 0.505462
-0.842172 -0.430728 0.084247
-0.006523 0.834399 0.505672
-0.428272 0.393085 0.507986
0.858088 -0.415942 0.074025
-0.418427 -0.840680 0.084633
0.026001 -0.019208 0.509334
-0.852184 -0.029742 0.521634
-0.859199 -0.010435 -0.340183
0.835059 0.005037 -0.307478
-0.002039 -0.833470 0.502662
-0.004433 -0.833528 0.505213
-0.432409 0.844540 0.088140
0.017769 0.839835 -0.280160
0.813944 -0.010414 0.537122
-0.417306 -0.390034 -0.306482
0.451413 0.429255 -0.305782
0.447406 0.429505 -0.302704
-0.860912 -0.011408 -0.338597
-0.850715 -0.028646 0.522885
-0.852389 -0.028940 0.523674
0.431340 -0.419541 0.501946
-0.417745 0.000272 -0.738347
-0.001904 -0.415193 -0.713463
0.424652 0.433581 0.509765
0.005645 0.407404 -0.731446
-0.418183 -0.389502 -0.304930
0.020579 0.837858 -0.280484
0.017348 0.838620 -0.279592
0.414912 0.018266 -0.724000
-0.852892 -0.030358 0.521868
0.004775 -0.836520 -0.299157
0.415502 0.020760 -0.723568
0.409591 -0.839025 0.099967
-0.843944 -0.431591 0.083834
0.019564 0.837839 -0.278870
-0.867349 0.420540 0.087384
-0.421287 -0.841317 0.084740
-0.841843 -0.431839 0.082999
0.832891 0.006035 -0.306419
-0.418881 0.000497 -0.739385
0.415873 0.019199 -0.723779
0.005373 0.408121 -0.728070
0.430212 0.874966 0.136142
-0.842299 -0.431412 0.086379
0.859272 -0.416348 0.073841
-0.415611 0.391560 -0.290003
-0.002925 -0.833459 0.506676
0.833669 0.005607 -0.308777
-0.415684 0.393188 -0.288795
-0.412944 -0.408404 0.467225
0.449397 0.429074 -0.302668
-0.417044 -0.390449 -0.306931
0.016805 0.839816 -0.279018
0.415533 0.021385 -0.722727
0.406093 -0.431710 -0.320935
-0.003244 -0.829733 0.505971
-0.416272 -0.390047 -0.306396
0.023749 -0.018636 0.509119
0.431265 0.875191 0.138366
0.857203 -0.415022 0.074405
0.412335 -0.839506 0.098129
-0.416627 0.392062 -0.290330
-0.853944 -0.029037 0.521721
-0.418283 0.000968 -0.739995
0.024725 -0.018501 0.509253
-0.006903 0.835902 0.506314
-0.006171 0.834403 0.507891
0.857933 -0.415863 0.073441
-0.857981 -0.009113 -0.338688
-0.417249 -0.391011 -0.306950
-0.841709 -0.431867 0.083864
-0.867467 0.421162 0.085665
-0.859612 -0.012005 -0.339493
-0.859117 -0.010722 -0.338284
0.833920 0.006509 -0.307009
0.848134 0.428201 0.127821
-0.412773 -0.410534 0.468058
-0.434558 0.843272 0.087971
0.847360 0.431894 0.128682
0.003208 0.407520 -0.727836
-0.417389 0.393536 -0.288040
0.005406 -0.833876 -0.301541
0.408300 -0.430414 -0.323522
0.847662 0.429708 0.128912
0.021123 0.839215 -0.281358
0.449843 0.429470 -0.305103
-0.416614 -0.389461 -0.306975
-0.849132 -0.029153 0.522496
-0.851768 -0.028323 0.520938
-0.417070 -0.388544 -0.305573
0.004679 -0.834016 -0.299610
0.415723 0.019794 -0.724003
0.005091 -0.832919 -0.300254
-0.843169 -0.431934 0.085716
-0.843693 -0.430289 0.085093
0.857236 -0.414808 0.073599
0.016140 0.839626 -0.279786
0.406630 -0.431708 -0.322798
0.845943 0.431410 0.128942
0.020468 0.840356 -0.281798
-0.841431 -0.432219 0.083670
-0.003278 -0.831764 0.506093
-0.860526 -0.010481 -0.339474
-0.419995 -0.841572 0.084358
-0.861575 -0.010784 -0.339413
0.003917 -0.834331 -0.299213
-0.857899 -0.012847 -0.340270
-0.417141 0.392827 -0.288860
-0.420646 -0.840305 0.083643
0.848424 0.430514 0.129144
0.833294 0.005330 -0.305366
-0.842365 -0.430841 0.083482
-0.415678 0.392864 -0.291080
-0.428987 0.393110 0.507945
-0.006152 0.834337 0.506628
0.023815 -0.018978 0.509703
0.426094 0.432905 0.508433
0.449855 0.427739 -0.303536
0.406986 -0.429801 -0.322048
0.005105 -0.835073 -0.299274
-0.434005 0.844764 0.088577
0.024621 -0.016316 0.510160
0.006250 0.408580 -0.729000
-0.412324 -0.409582 0.468050
-0.868231 0.420182 0.086505
-0.003890 -0.830459 0.505455
-0.851970 -0.029859 0.521826
0.430711 -0.421018 0.503067
0.426864 0.433249 0.508514
-0.860999 -0.012305 -0.341125
0.406241 -0.429614 -0.320729
-0.004721 0.835428 0.506494
-0.433092 0.843985 0.087780
0.004467 0.408069 -0.728243
-0.859397 -0.009850 -0.339610
0.025050 -0.019231 0.509692
-0.419820 -0.842644 0.086303
0.858132 -0.416607 0.072780
0.428628 0.876678 0.136658
-0.416089 0.392254 -0.289748
0.846780 0.431883 0.127675
0.425039 0.434791 0.508094
0.025199 -0.018733 0.507731
-0.006931 0.835752 0.505645
-0.427128 0.393909 0.508454
0.844921 0.430484 0.129238
-0.433968 0.843220 0.085893
-0.433798 0.844924 0.087608
-0.425844 0.394784 0.508073
-0.413954 -0.409776 0.467893
0.024933 -0.018247 0.510756
-0.432719 0.844522 0.086278
-0.418196 0.000603 -0.739842
0.415360 0.018564 -0.722978
0.414539 0.019734 -0.722372
-0.419869 -0.841904 0.083350
0.813789 -0.009403 0.538343
0.831551 0.006653 -0.307977
-0.417274 0.392455 -0.288951
-0.413807 -0.408812 0.465770
0.424840 0.432806 0.507501
-0.869036 0.420357 0.086203
0.848867 0.430246 0.129251
0.004782 0.408088 -0.726999
-0.007599 0.835563 0.507805
0.020441 0.838556 -0.281870
0.833226 0.004848 -0.306393
0.423819 0.432448 0.508222
0.415339 0.019774 -0.721835
0.848033 0.431703 0.127736
