OFF
256 0 0
0.164997 -0.270134 -0.721523
-0.299293 -0.272724 -0.299619
0.182895 -0.706259 0.595827
0.646554 0.194662 0.180932
-0.300922 0.154299 -0.736931
-0.723241 0.579065 0.153279
-0.302235 0.630685 0.625317
0.170983 0.591317 -0.727914
0.616263 -0.263149 0.601748
-0.283264 -0.295203 0.558347
-0.734427 0.169398 0.658601
0.156055 0.187508 0.622800
-0.735486 0.169982 0.656116
-0.735784 0.170793 0.656116
-0.300648 0.152787 -0.735761
0.156778 0.185204 0.622929
-0.735461 0.170695 0.654241
0.149430 -0.733272 -0.292397
0.150175 -0.733531 -0.292616
0.170458 0.591724 -0.727421
-0.279104 -0.724341 0.129610
-0.298606 -0.274084 -0.298990
0.647433 0.195185 0.181953
-0.725057 0.581308 0.152159
0.647529 0.193684 0.183037
0.169129 0.591780 -0.727846
-0.738502 0.144421 -0.279467
-0.283233 -0.294946 0.558393
0.148716 0.591581 0.148218
0.150210 -0.733699 -0.291789
-0.735116 0.169638 0.656660
-0.737973 0.143618 -0.280347
0.613861 -0.264381 0.601382
-0.735820 0.171563 0.656702
0.182182 -0.707327 0.595852
-0.738842 0.143216 -0.282538
-0.289333 0.605654 -0.265148
-0.734766 -0.292141 0.187828
0.614052 0.585762 -0.277018
-0.285062 -0.297011 0.559760
-0.282801 -0.296358 0.557620
-0.288818 0.606088 -0.262806
0.146764 0.594787 0.148256
0.147935 0.591564 0.149615
-0.725625 0.579881 0.153413
0.596499 -0.279087 -0.268936
-0.300534 0.152885 -0.736635
0.149268 -0.734475 -0.293675
-0.736118 -0.292962 0.186115
-0.277529 -0.726267 0.129883
-0.724520 0.582455 0.153502
0.157080 0.187662 0.623746
0.609591 -0.738833 0.136670
0.181147 -0.707683 0.595767
0.170151 0.589237 -0.728539
-0.735990 0.169321 0.656856
-0.303287 0.632072 0.622710
0.183165 -0.706335 0.596156
0.610036 -0.741160 0.135460
0.597359 -0.278286 -0.267509
-0.279104 -0.727805 0.130414
0.149332 -0.733601 -0.292497
-0.733825 -0.296981 0.187626
-0.735532 0.169506 0.656081
0.167503 0.588995 -0.729041
-0.278175 -0.727539 0.130681
0.614854 0.586597 -0.277755
0.609106 -0.739190 0.135970
0.607157 -0.738906 0.134533
0.635306 0.146355 -0.726911
-0.281916 -0.296057 0.558372
0.164889 -0.270627 -0.722301
-0.299627 0.154561 -0.737001
-0.289798 0.605362 -0.262660
-0.724817 0.582826 0.152520
-0.302890 0.630502 0.624673
-0.281967 -0.294392 0.557526
-0.735669 0.169808 0.657387
0.151146 -0.733136 -0.292634
0.169050 0.589671 -0.728879
0.648270 0.195281 0.183143
-0.739558 0.142697 -0.279896
0.635121 0.145122 -0.728073
-0.301115 0.629945 0.624598
-0.299593 0.154362 -0.736634
-0.736113 -0.295589 0.188398
0.616750 -0.263380 0.600444
0.171016 0.591838 -0.729269
-0.282803 -0.295651 0.556023
0.610777 0.586398 -0.279544
0.181620 -0.704849 0.596087
0.646329 0.195830 0.182645
-0.300976 0.155877 -0.734065
0.148182 -0.733694 -0.293949
-0.288481 0.605024 -0.262143
0.613639 -0.263581 0.603368
-0.736971 0.170092 0.655733
-0.277925 -0.724699 0.130394
0.596393 -0.279618 -0.266607
0.614619 0.586691 -0.276926
-0.289917 0.605895 -0.263990
0.148689 -0.733942 -0.291666
-0.300222 0.153918 -0.735638
0.149631 -0.734589 -0.290232
0.164654 -0.272634 -0.722457
-0.288586 0.606827 -0.262449
0.151139 -0.734042 -0.291856
0.597570 -0.279182 -0.267373
0.157153 0.186795 0.623812
0.648294 0.195624 0.181798
-0.300722 0.630811 0.623522
-0.725763 0.582617 0.153790
-0.736156 -0.293479 0.189419
-0.276326 -0.724888 0.129427
0.181657 -0.704800 0.593466
0.615053 -0.262869 0.601717
0.635566 0.146602 -0.729748
-0.283651 -0.294450 0.557390
0.608925 -0.742619 0.136629
-0.289086 0.604718 -0.264536
-0.733504 -0.295049 0.187691
-0.299385 -0.273828 -0.299718
-0.726437 0.583112 0.151071
-0.276978 -0.725781 0.129694
0.596199 -0.278445 -0.266724
-0.741025 0.142980 -0.280093
-0.735858 -0.294513 0.187497
-0.289229 0.605971 -0.265506
0.183442 -0.704562 0.595320
0.183074 -0.706711 0.595681
0.608784 -0.738302 0.135405
0.170148 0.591379 -0.727851
0.612895 -0.263246 0.601638
0.154792 0.186527 0.622536
-0.735672 0.170726 0.656776
0.615013 -0.264891 0.602245
-0.738908 0.143026 -0.279733
0.151662 -0.733503 -0.293463
0.148388 0.591587 0.149865
0.164807 -0.271186 -0.720667
0.615143 -0.264099 0.601882
0.597374 -0.279175 -0.269689
0.147372 0.592614 0.147847
-0.725264 0.580513 0.154903
-0.301815 0.152403 -0.736316
-0.302606 0.631362 0.624405
0.181443 -0.705362 0.593627
0.634446 0.146135 -0.727776
0.646538 0.194268 0.183959
-0.735926 -0.294786 0.187800
-0.738505 0.144202 -0.281294
-0.738678 0.143846 -0.279783
-0.736295 0.167774 0.655082
0.613161 0.586139 -0.275803
0.615800 -0.263112 0.602358
-0.277180 -0.726000 0.130046
0.635202 0.146371 -0.728952
-0.726117 0.580322 0.153847
0.612024 -0.739543 0.135956
-0.722897 0.579880 0.153961
0.155719 0.187238 0.624755
-0.290251 0.604763 -0.264522
-0.278206 -0.724294 0.130038
-0.288735 0.603970 -0.264409
0.148912 0.592285 0.147567
0.616106 -0.265312 0.602215
0.149497 -0.734537 -0.293491
-0.735767 0.169409 0.655757
-0.278062 -0.726838 0.129072
-0.302692 0.630483 0.624613
-0.734968 0.169363 0.656517
0.181549 -0.706206 0.594188
-0.297770 -0.274701 -0.299485
-0.299860 0.152863 -0.738424
-0.278197 -0.726841 0.129161
-0.302749 0.629267 0.621772
0.648018 0.193892 0.181782
-0.725221 0.579834 0.153543
0.615129 0.587632 -0.279403
0.150753 -0.732462 -0.291749
-0.285247 -0.294567 0.557267
0.612482 0.587107 -0.277607
-0.277987 -0.726168 0.129326
0.612342 -0.739829 0.135821
-0.724416 0.581929 0.151304
-0.276184 -0.724099 0.130400
-0.283970 -0.295380 0.556866
0.155986 0.187713 0.622795
-0.739104 0.142251 -0.279854
0.165902 -0.271401 -0.722082
-0.737774 0.144074 -0.279212
-0.723475 0.578432 0.153250
0.164694 -0.269263 -0.721074
0.148067 -0.733244 -0.292052
0.610480 -0.738933 0.136135
-0.301065 0.153702 -0.736634
0.164810 -0.271242 -0.721560
0.181349 -0.705376 0.596062
-0.734029 -0.293752 0.186279
-0.277289 -0.725494 0.129585
-0.736618 0.171118 0.655101
0.182255 -0.705543 0.596753
0.165307 -0.271632 -0.719672
-0.301683 0.151479 -0.736347
0.154524 0.185906 0.622283
-0.288921 0.606688 -0.262399
-0.299803 0.152773 -0.734706
0.646471 0.194655 0.182120
0.616344 -0.264567 0.601713
0.156741 0.187019 0.625157
0.181088 -0.706395 0.596990
0.612562 0.584749 -0.278930
-0.277748 -0.723994 0.129985
-0.735392 0.171030 0.656910
-0.736701 0.169987 0.656371
0.634206 0.146110 -0.728511
0.182978 -0.707061 0.594359
0.156197 0.187572 0.621081
-0.279101 -0.725560 0.130165
0.609434 -0.740022 0.136519
0.634712 0.148683 -0.728117
-0.299040 -0.273317 -0.299531
0.611537 -0.737707 0.136699
0.634038 0.147323 -0.727729
-0.278809 -0.726064 0.132349
-0.301869 0.629138 0.624080
-0.284460 -0.294655 0.557304
-0.300798 0.630354 0.623662
-0.725432 0.579765 0.153118
-0.735092 -0.293410 0.186750
-0.736511 0.170156 0.655235
0.646799 0.194949 0.183089
-0.733833 -0.294740 0.186523
-0.302518 0.633345 0.621569
0.156139 0.186474 0.623108
-0.737965 0.142999 -0.279851
0.632398 0.146686 -0.729513
0.597464 -0.278743 -0.268488
0.147130 0.592426 0.148161
-0.734867 0.170505 0.656157
-0.281713 -0.296017 0.559659
0.608418 -0.740679 0.135765
-0.735170 0.171114 0.656085
-0.735063 0.169875 0.655499
-0.723252 0.581276 0.154021
0.170019 0.589844 -0.728233
-0.738218 0.141903 -0.280192
-0.300244 0.154525 -0.736121
0.647759 0.193880 0.182801
0.614772 0.587736 -0.280110
0.146943 0.592406 0.149387
-0.301385 0.152746 -0.736829
0.597534 -0.280710 -0.267408
-0.724084 0.582709 0.153546
0.164811 -0.272844 -0.722097
0.156133 0.186042 0.624407
