OFF
256 0 0
-0.227040 -0.688366 -0.688749
-0.229935 -0.688848 0.229099
0.689302 -0.688697 0.229914
-0.230109 -0.690070 -0.686094
-0.690032 -0.228966 -0.689290
-0.690664 -0.229626 0.228351
0.229702 -0.229807 -0.687799
0.688269 0.230848 -0.687849
0.229633 0.689091 0.229089
0.229606 -0.688725 -0.228870
0.228740 0.689752 -0.687917
0.230015 -0.687508 0.688022
-0.227799 -0.687730 0.228734
0.229197 -0.688894 -0.229905
-0.229170 -0.688857 -0.687459
0.230806 -0.688191 -0.229930
0.229502 -0.688875 -0.227650
-0.228185 -0.686748 -0.686952
-0.229365 -0.228216 0.689176
-0.229238 -0.227733 0.689362
-0.229883 -0.687998 0.228226
-0.229160 0.229083 -0.687819
0.689158 -0.229643 -0.230336
-0.688171 0.688510 0.230308
0.226724 0.230091 0.686619
-0.689123 0.688152 0.229775
-0.230253 -0.688275 -0.688134
0.687876 -0.230410 -0.229644
-0.229524 -0.229543 0.688890
-0.229702 0.688840 -0.229025
-0.688675 -0.229908 0.229199
-0.690118 -0.230092 -0.688651
-0.229345 -0.229730 0.687552
0.688124 -0.231511 -0.228730
0.687683 0.689184 -0.230190
0.230617 0.689161 0.230328
0.228233 0.689878 0.230234
0.231197 -0.688832 -0.228904
-0.687637 -0.689976 -0.228500
-0.229108 0.687866 0.688964
-0.689970 -0.230881 0.230253
-0.228823 -0.230361 0.689327
0.688757 -0.685855 0.229430
-0.229459 0.686369 0.686635
-0.230358 0.688773 -0.227535
-0.228251 -0.689054 0.228726
0.687771 -0.228243 0.689860
-0.228649 0.689030 -0.229563
0.689444 0.230845 -0.687658
-0.688161 0.229842 -0.229543
-0.229800 -0.229235 0.689565
0.229092 0.690219 -0.687409
0.686868 0.688732 -0.229428
-0.228691 -0.229469 0.688682
0.688494 0.231389 0.228824
0.688123 -0.229657 -0.228698
0.687092 0.688250 -0.230183
0.228809 -0.230779 -0.688163
0.688962 0.228778 -0.687322
-0.227620 -0.687694 -0.689156
0.229939 -0.687729 -0.229111
-0.687432 -0.229201 -0.690215
-0.688580 -0.689015 -0.228515
-0.229087 0.688119 -0.231898
0.231307 -0.229470 -0.688260
-0.230813 -0.688576 -0.687465
-0.230043 -0.228815 0.688096
-0.686475 0.229585 0.687836
-0.229271 0.688419 -0.229198
0.688556 -0.228790 0.688519
0.230151 -0.229747 -0.687125
0.229009 -0.689809 -0.228364
0.688781 -0.229767 0.689787
0.689117 0.228792 -0.688740
-0.688958 -0.228447 -0.688570
0.689246 -0.229037 0.687779
-0.689951 -0.228134 0.228958
0.688216 0.687570 -0.230583
-0.228565 -0.230300 0.688491
0.228803 -0.688641 0.688914
-0.229386 0.686823 0.688158
0.688819 -0.688938 0.229239
0.687001 -0.228446 0.687728
0.229252 0.688109 0.230212
0.688906 0.229775 -0.688161
-0.688618 -0.228963 -0.687371
-0.231150 0.688153 0.687869
-0.687900 -0.688426 -0.229410
-0.690902 -0.228694 -0.688896
0.230646 -0.689358 0.687095
-0.687905 0.690472 0.230233
-0.688908 -0.688914 -0.227987
0.687947 -0.688703 0.230290
-0.229562 0.230735 -0.689922
-0.687609 0.687197 0.230292
-0.687990 -0.230637 0.229008
-0.687710 0.229844 0.687450
0.229567 -0.688693 0.690298
-0.689003 -0.687388 -0.228383
0.229136 -0.689511 -0.231423
-0.687721 0.229437 0.688839
-0.227146 -0.687833 0.229285
-0.689426 0.228951 0.691140
-0.688446 -0.689393 -0.228960
-0.686772 -0.688064 -0.228590
0.228402 -0.687522 0.688306
0.228447 0.685935 -0.688119
-0.232086 -0.687945 0.231156
0.230565 -0.688968 -0.229967
0.229340 0.686611 -0.686485
0.687804 -0.232123 0.688473
0.230347 -0.686749 0.687299
-0.686899 0.230616 -0.229597
-0.686871 -0.230255 -0.687936
-0.229720 0.228859 -0.688689
0.687097 -0.231572 0.688890
-0.228896 -0.688267 0.229746
-0.688190 0.688803 0.229093
0.228614 -0.688782 -0.227864
0.229789 0.228057 0.687434
-0.230612 0.229294 -0.686177
-0.687656 -0.690072 -0.229980
-0.229418 0.689400 0.688544
0.687820 -0.230522 0.687401
-0.228569 -0.229382 0.690690
-0.688891 -0.689679 -0.230197
-0.226885 0.688430 0.687748
0.689059 -0.229673 -0.229961
0.687619 -0.229093 -0.229485
0.687472 0.228563 0.228576
0.687809 -0.229113 0.690358
0.688056 0.687703 -0.230326
0.229394 0.230190 0.688262
-0.230028 -0.687759 0.226785
0.688390 0.230799 0.229926
0.229514 0.688227 0.229271
-0.688650 -0.686499 -0.229056
-0.228705 0.228837 -0.687984
-0.230119 -0.689400 -0.687649
-0.688274 -0.230092 0.229293
-0.228149 0.688171 0.686788
0.687166 0.685405 -0.230135
-0.688949 0.230546 -0.229244
0.688602 -0.227386 0.687818
-0.228843 0.688811 0.687580
-0.689941 -0.230313 0.229154
0.226178 0.688845 0.229717
-0.228002 -0.229791 0.688024
0.687556 -0.227170 0.688653
-0.688212 -0.687272 -0.231613
0.230607 -0.228888 -0.688923
-0.228885 0.686800 0.688746
-0.229313 -0.688374 -0.686177
0.688880 0.228720 0.227776
-0.229300 -0.228950 0.686534
0.228906 -0.688903 0.688061
0.687779 -0.229527 -0.228204
-0.687954 -0.229344 -0.687707
-0.229764 -0.229947 0.688719
0.688106 -0.688558 0.229477
-0.228320 0.688246 -0.229058
0.687765 -0.230496 -0.230060
-0.688447 -0.230100 -0.688302
-0.231538 -0.687688 0.229730
-0.689035 -0.229184 0.229034
0.229231 0.688545 0.229874
0.227782 0.229233 0.687808
0.690265 -0.229397 0.688404
0.228033 0.687965 -0.687800
0.228533 0.688112 0.229376
0.228100 -0.228918 -0.689700
-0.687636 -0.230795 0.228789
-0.230015 0.227887 -0.686693
0.229161 0.229611 0.688036
-0.229492 -0.228122 0.687966
-0.227324 0.229350 -0.688219
0.688044 -0.228970 -0.229558
0.689698 -0.228124 -0.229634
-0.229668 -0.686949 0.230154
-0.228192 -0.686885 0.228865
-0.689075 -0.230118 0.229606
0.687263 0.232454 0.230340
-0.686464 -0.690043 -0.230286
0.228560 0.228343 0.687099
0.689849 0.688332 -0.230485
-0.228685 0.687524 0.687916
0.229950 0.689147 -0.687187
-0.227913 0.689240 0.688313
0.230024 0.229781 0.689358
-0.230141 0.230300 -0.688805
-0.228155 -0.229037 0.687420
0.229578 -0.229614 -0.689754
0.688407 0.688858 -0.229823
0.230407 0.689225 -0.686940
0.230513 -0.231715 -0.688682
-0.231417 -0.689236 0.228624
-0.231880 -0.687606 -0.686041
-0.228809 0.687169 0.686944
0.228195 -0.689149 -0.230396
0.689773 -0.228281 -0.230716
0.228765 -0.229897 -0.688471
-0.229455 -0.229103 0.689065
0.228907 -0.687713 -0.229700
-0.228873 -0.689778 0.228301
0.230028 -0.229786 -0.688698
0.228791 -0.686367 -0.229669
-0.689342 -0.228413 0.229526
-0.689089 -0.228156 -0.687374
-0.229446 -0.688979 -0.687336
-0.228205 0.230337 -0.687721
-0.687158 -0.689160 -0.228272
0.229998 0.688870 -0.687664
-0.229561 -0.230451 0.688571
0.686685 0.229873 0.229727
0.688932 0.686636 -0.229661
0.228236 0.229743 0.688059
0.686600 0.230827 0.230058
-0.229028 -0.689759 0.228488
-0.227548 -0.227716 0.689664
-0.687713 -0.229343 -0.687828
-0.229501 -0.689433 0.230362
0.229250 -0.688693 0.689607
-0.231198 0.230607 -0.690418
-0.228085 -0.686268 0.228082
-0.687264 0.231199 -0.228912
0.231135 0.688492 -0.689002
0.688058 0.687496 -0.228644
0.689218 -0.228140 -0.229264
-0.230116 -0.687391 -0.687790
0.687720 0.229595 0.229173
0.231162 0.230446 0.687544
-0.689639 -0.687351 -0.228582
-0.229631 -0.688176 -0.686909
-0.687279 0.690448 0.229105
0.229384 -0.688160 -0.230099
-0.230441 -0.229284 0.687617
-0.229272 -0.229962 0.688578
0.686580 0.229145 -0.688728
0.228293 -0.229444 -0.688470
0.689244 0.688278 -0.231781
0.688974 0.686372 -0.228901
-0.229669 -0.689246 0.229009
-0.688195 -0.229316 0.228601
0.687906 -0.229165 0.689329
0.688932 -0.230329 -0.228795
-0.688035 -0.230276 0.230543
-0.227254 -0.687299 -0.689882
0.228664 0.688500 0.229076
0.689582 0.687519 -0.230974
0.688713 0.228909 -0.689083
-0.688216 -0.227324 0.229280
-0.688206 0.688508 0.229526
0.687065 -0.227936 0.689169
0.227886 -0.229635 -0.689375
-0.230266 0.229961 -0.689628
-0.229439 -0.228523 0.686680
