OFF
256 0 0
0.681547 0.023073 0.730190
0.696065 0.657567 -0.016837
-0.701286 0.653106 -0.026709
-0.724512 -0.012860 -0.685651
-0.699861 -0.689604 0.021379
0.695553 0.658295 -0.014809
0.710069 -0.661710 0.013012
0.698319 0.657232 -0.016148
0.011778 0.716087 0.637584
0.697300 0.656555 -0.015432
-0.722456 -0.012839 -0.687819
0.020120 0.672758 -0.699594
0.013023 0.716292 0.637821
0.694805 0.656330 -0.017025
-0.699649 -0.689485 0.022081
-0.699056 -0.687766 0.019935
0.010771 0.714376 0.636855
0.695165 0.656002 -0.015585
0.020911 0.672188 -0.698143
0.690622 -0.001673 -0.651607
-0.700214 -0.688577 0.021077
0.711556 -0.663208 0.016187
0.012711 0.716837 0.635920
-0.700132 -0.690066 0.021202
0.010084 -0.690303 -0.655193
0.011934 0.716100 0.637260
0.014649 0.718575 0.635782
-0.724853 -0.012575 -0.684792
0.696548 0.656273 -0.013957
0.011473 -0.690776 -0.654758
0.680476 0.022784 0.731757
0.012231 -0.674260 0.655284
-0.710759 0.002121 0.670223
0.710143 -0.661196 0.013539
0.009266 -0.689532 -0.657006
-0.698912 -0.689308 0.021437
0.009939 -0.689730 -0.653953
-0.711252 0.003657 0.671776
-0.699779 0.654962 -0.027799
0.682200 0.022837 0.732199
-0.698961 -0.688566 0.021782
0.690157 -0.000087 -0.651103
0.689466 -0.000006 -0.651505
-0.723426 -0.011492 -0.684533
0.682209 0.023967 0.731031
0.012250 0.717221 0.637807
0.010162 -0.690288 -0.654166
-0.700963 -0.690478 0.021883
-0.701638 0.653719 -0.028418
0.012112 0.715569 0.636569
0.010313 -0.672900 0.655160
0.691015 -0.000669 -0.649642
-0.709834 0.001337 0.670914
0.010442 -0.673773 0.654255
0.695356 0.655356 -0.015960
0.697644 0.656307 -0.014188
-0.724550 -0.014810 -0.685128
0.011468 -0.674062 0.654395
-0.723877 -0.012491 -0.684716
-0.701121 0.653065 -0.027806
0.011661 -0.673443 0.654158
0.013455 0.717600 0.636986
-0.722818 -0.012875 -0.687361
0.011585 0.714257 0.637802
0.710298 -0.661739 0.014204
0.693586 -0.001061 -0.651645
0.012519 0.717149 0.638028
0.681841 0.023791 0.732435
0.012339 0.715031 0.637178
0.695740 0.659081 -0.015990
-0.698543 -0.689827 0.019671
0.010705 -0.673190 0.656043
0.020178 0.672174 -0.697888
0.680995 0.022807 0.730666
-0.722499 -0.012790 -0.685291
-0.699018 -0.689010 0.020629
-0.723621 -0.013362 -0.684709
-0.709642 0.003067 0.671648
0.012225 -0.674068 0.653738
0.711187 -0.659725 0.014604
0.679560 0.025113 0.731030
0.009886 -0.689971 -0.655597
-0.699046 -0.686072 0.020877
0.012415 0.718010 0.638945
0.011437 -0.673359 0.655145
-0.709453 0.002982 0.671212
-0.700631 0.653302 -0.026804
-0.700724 0.653508 -0.027640
0.680793 0.025375 0.731386
-0.700727 0.653859 -0.027935
0.011199 0.714582 0.638301
0.018633 0.671367 -0.697416
0.011976 -0.674441 0.655960
0.010142 0.716133 0.638890
-0.699343 -0.688962 0.020913
0.018912 0.673530 -0.696877
0.020859 0.671760 -0.696572
-0.709984 0.003755 0.673954
-0.722861 -0.011905 -0.685895
0.011274 -0.674559 0.653733
-0.712649 0.003063 0.670531
0.012358 -0.673061 0.654898
-0.710803 0.003268 0.671935
0.692102 -0.000431 -0.648944
-0.700790 0.652690 -0.025810
0.012668 0.716775 0.638083
0.012827 -0.674003 0.656835
0.710176 -0.660185 0.014287
0.011273 -0.691333 -0.654293
0.681878 0.022847 0.732413
-0.724059 -0.012422 -0.685618
-0.722855 -0.011838 -0.685087
0.011064 -0.691260 -0.654661
0.011131 -0.673369 0.655972
-0.723619 -0.012614 -0.685501
0.021741 0.672419 -0.698283
0.012269 0.716669 0.636548
0.010596 -0.674711 0.655982
0.019895 0.670960 -0.695688
0.696214 0.659078 -0.015869
0.710486 -0.661236 0.014819
0.013313 -0.675280 0.654387
0.020045 0.671210 -0.696303
-0.701842 0.652559 -0.028304
0.712593 -0.658706 0.013041
0.696774 0.657900 -0.014795
-0.700418 -0.687507 0.019861
0.010761 -0.690980 -0.656115
0.712828 -0.659393 0.016167
-0.698929 -0.687782 0.021200
-0.723821 -0.012076 -0.685264
0.681509 0.022089 0.731551
-0.701790 0.652800 -0.028113
0.690244 -0.000202 -0.651646
-0.701228 0.652798 -0.028959
0.012715 0.715809 0.638450
-0.724166 -0.012083 -0.685078
-0.723238 -0.012965 -0.686172
0.695718 0.657380 -0.015688
0.010096 -0.690574 -0.655174
0.711527 -0.659642 0.014336
-0.711856 0.003799 0.670992
-0.711618 0.001722 0.671581
0.681322 0.022095 0.732939
0.013698 0.714922 0.636903
0.019099 0.671555 -0.698144
0.009780 -0.691135 -0.653409
-0.700901 -0.687385 0.020666
0.012781 0.715803 0.638903
-0.722323 -0.013525 -0.686644
0.691682 -0.000952 -0.650323
0.011339 -0.672553 0.656302
0.019480 0.672273 -0.697054
-0.721589 -0.015087 -0.685893
0.020494 0.672565 -0.696131
0.012354 -0.691233 -0.653663
0.011727 -0.689840 -0.654847
-0.699906 0.653864 -0.027645
0.010738 0.717550 0.637398
-0.721555 -0.013513 -0.687077
0.680880 0.024841 0.731558
-0.700414 -0.687454 0.020365
0.012208 -0.673593 0.656792
0.696606 0.657305 -0.015846
0.695925 0.657334 -0.016649
0.020754 0.671750 -0.697936
-0.722003 -0.014260 -0.685282
-0.710164 0.002681 0.671751
0.690979 -0.000395 -0.650349
0.695055 0.657445 -0.016212
0.682398 0.022631 0.732083
0.691372 0.000904 -0.650563
0.010619 -0.674484 0.655751
0.012798 0.715472 0.637846
0.711835 -0.658846 0.014051
-0.703560 0.653962 -0.027988
0.696263 0.657646 -0.016431
-0.722617 -0.013227 -0.684968
0.691137 -0.000020 -0.651540
0.691010 -0.001454 -0.652260
0.021485 0.670935 -0.696280
0.696959 0.656831 -0.014961
0.711255 -0.658597 0.014643
-0.709853 0.003049 0.672137
-0.723771 -0.012309 -0.687096
0.010698 -0.675090 0.655136
-0.712315 0.002716 0.674379
0.011227 -0.675942 0.655047
-0.698561 -0.687683 0.020559
0.013615 0.715528 0.637440
-0.701916 0.652297 -0.027332
-0.698946 -0.688201 0.022002
0.690556 -0.001995 -0.651280
-0.722701 -0.013264 -0.686649
-0.722310 -0.015399 -0.686266
0.022147 0.672362 -0.699701
-0.711409 0.001436 0.670902
0.696473 0.656837 -0.014648
0.021219 0.674460 -0.698132
0.019919 0.673367 -0.697029
0.021005 0.673818 -0.696952
0.692019 0.001388 -0.651159
-0.710696 0.000170 0.672941
0.710402 -0.659509 0.014985
0.692737 -0.000861 -0.650854
0.696521 0.656169 -0.016223
-0.700291 -0.690109 0.020011
0.695098 0.657500 -0.017103
-0.710010 0.003583 0.671052
0.691386 0.001201 -0.650759
0.011741 -0.689365 -0.653450
0.009635 -0.690981 -0.654231
0.680847 0.025927 0.729967
0.011831 0.717241 0.638295
-0.709220 0.002078 0.671114
-0.703084 0.655495 -0.026748
-0.709320 0.003553 0.672223
0.011658 0.716018 0.638349
0.011356 -0.691290 -0.653429
-0.699500 -0.690277 0.019486
-0.701329 0.653997 -0.025706
0.012036 0.718437 0.638200
-0.701485 -0.688231 0.021194
0.012007 -0.674005 0.653273
0.011100 -0.673786 0.655390
0.011559 -0.690942 -0.651308
-0.701615 0.652371 -0.025838
-0.710797 0.002606 0.673512
-0.699112 -0.688988 0.020693
-0.697966 -0.689051 0.020843
0.710995 -0.658973 0.014422
-0.709861 0.003881 0.671327
-0.723805 -0.012570 -0.684891
0.012314 0.716202 0.637461
0.693187 -0.000665 -0.652895
0.697423 0.655545 -0.017349
0.695355 0.659031 -0.014541
-0.700505 0.654482 -0.027425
0.679635 0.022997 0.731855
0.681975 0.024027 0.730691
0.022395 0.674872 -0.697780
0.011156 -0.690772 -0.652497
0.697154 0.657620 -0.016380
0.690543 -0.001700 -0.651407
-0.699472 -0.687011 0.021627
0.022358 0.674663 -0.697416
-0.698763 -0.686721 0.020593
0.012812 0.718152 0.638317
0.011635 0.716681 0.637605
0.711600 -0.660978 0.014561
0.711450 -0.659263 0.012813
0.695999 0.657978 -0.014747
-0.699974 -0.687612 0.021141
0.019457 0.672744 -0.698664
-0.723533 -0.013089 -0.683928
-0.701823 0.653046 -0.028302
