OFF
256 0 0
-0.516932 -0.841829 0.016914
0.745350 0.008201 -0.396273
-0.115847 -0.409180 0.856237
-0.514467 -0.017602 0.005325
0.755848 -0.441411 -0.002180
-0.076894 -0.855341 -0.428375
-0.484874 -0.420692 -0.420364
-0.513623 -0.019912 0.003638
0.295761 0.833454 0.002405
-0.515162 -0.843174 0.016839
0.331722 0.009305 -0.862660
0.330193 0.007015 -0.864236
-0.076487 -0.854448 -0.429116
-0.517293 -0.442707 0.418523
-0.114442 -0.440768 -0.862210
0.304736 -0.414820 -0.396510
0.284439 -0.385967 0.424485
-0.537433 0.842521 -0.025767
-0.101838 -0.845256 0.438929
-0.106224 0.430914 -0.858974
0.284047 -0.386644 0.425339
0.288265 0.400073 -0.414290
0.347601 -0.033579 0.890096
-0.515650 -0.842937 0.017405
-0.537503 0.842679 -0.025023
-0.484236 -0.421698 -0.419124
-0.075954 -0.856515 -0.429365
-0.535711 0.841263 -0.027254
0.289209 0.402373 -0.412330
0.745681 0.006749 -0.395810
0.320274 -0.842143 -0.014919
-0.507247 0.412976 -0.432423
0.347588 -0.037327 0.889270
0.752149 -0.441013 -0.002215
-0.098983 -0.847182 0.439740
-0.514306 -0.443791 0.416847
-0.114661 -0.440872 -0.862279
0.742219 0.004250 0.428195
-0.516029 -0.441873 0.418793
-0.111799 0.405777 0.843000
-0.097416 0.879962 -0.462973
0.282311 -0.387215 0.425633
-0.514625 -0.442338 0.417630
-0.111528 0.402771 0.842037
0.752256 -0.441110 -0.003349
-0.521984 0.446421 0.427719
0.744493 0.008243 -0.395252
0.310298 0.426353 0.418850
-0.076912 -0.855449 -0.429189
0.743942 0.004879 0.428189
0.753112 -0.441208 -0.003180
-0.098146 0.879363 -0.460918
-0.112272 -0.440341 -0.861408
0.296073 0.834987 0.002171
-0.513820 -0.018375 0.006255
-0.506232 0.414420 -0.432957
-0.113533 -0.439800 -0.860864
-0.099049 0.878610 -0.462117
0.332207 0.006715 -0.861993
0.296834 0.833080 0.002767
0.331606 0.006107 -0.863729
-0.515442 -0.842870 0.015626
-0.075900 -0.856124 -0.431335
0.330627 0.007545 -0.863075
0.306096 -0.414727 -0.395524
-0.515679 -0.017844 0.005327
-0.122181 0.872441 0.423636
-0.485974 -0.421063 -0.419179
-0.523360 0.447504 0.427938
0.330452 0.008306 -0.862522
0.753384 -0.440744 -0.002849
0.348080 -0.036736 0.890201
0.348920 -0.035584 0.889303
0.753346 -0.439550 -0.002537
-0.112224 0.404552 0.839860
0.295290 0.831984 0.002208
-0.515812 -0.443052 0.417034
-0.516870 -0.844596 0.017146
-0.515576 -0.019696 0.003785
0.287213 0.401927 -0.412859
0.744422 0.005385 0.429926
-0.124338 0.871234 0.425521
0.290148 0.401876 -0.414462
-0.112863 -0.409200 0.855224
-0.514356 -0.018467 0.005222
-0.096570 0.880960 -0.464288
-0.099340 -0.845693 0.438855
0.757903 0.447484 0.022540
-0.485660 -0.422716 -0.419345
-0.514823 -0.842862 0.017948
0.309133 0.425409 0.416343
-0.485540 -0.421869 -0.421098
0.349035 -0.034184 0.890910
-0.515571 -0.020125 0.005152
-0.515634 -0.019488 0.005673
-0.515508 -0.019080 0.004678
0.755465 0.448176 0.021348
0.305532 -0.414981 -0.396044
-0.074962 -0.855865 -0.428408
-0.506305 0.414629 -0.434244
-0.504139 -0.019573 -0.854751
-0.096197 0.878287 -0.462130
-0.535755 0.843825 -0.026100
-0.076675 -0.855763 -0.428950
-0.114410 -0.406601 0.854184
0.283590 -0.385412 0.424148
-0.516774 -0.843078 0.017373
0.752464 -0.441831 -0.003784
-0.515870 -0.443900 0.417394
-0.105188 0.432723 -0.858082
-0.522515 0.446437 0.427193
0.759402 0.447125 0.021285
0.743586 0.004727 0.429437
0.286450 0.404238 -0.415512
-0.485785 -0.421168 -0.420082
-0.504998 -0.017018 -0.856262
-0.504398 -0.017909 -0.856769
-0.485813 -0.419338 -0.418464
0.753686 -0.440561 -0.001791
-0.514629 -0.019781 0.005650
-0.105282 0.432652 -0.860509
0.754323 -0.439870 -0.001212
-0.515691 -0.020106 0.004647
-0.504314 -0.017670 -0.856681
-0.503338 -0.018608 -0.856491
0.330994 0.008101 -0.862750
-0.076086 -0.856264 -0.428318
-0.506374 0.413558 -0.432201
0.295684 0.833580 0.000789
-0.516289 -0.841529 0.015066
0.329938 0.008140 -0.863167
0.744642 0.009147 -0.394220
0.296748 0.832789 0.001676
-0.106614 0.431329 -0.860038
-0.504328 -0.019065 -0.859179
0.331207 0.008653 -0.862911
0.744388 0.003605 0.429865
0.321062 -0.841268 -0.013617
-0.516956 -0.441817 0.416749
0.743972 0.004407 0.428769
0.285965 0.402004 -0.413874
0.296545 0.832011 0.001810
0.322030 -0.844040 -0.015836
-0.100177 -0.845864 0.442757
-0.537190 0.844055 -0.028463
0.756770 0.447845 0.018736
-0.514975 -0.019336 0.004945
-0.097376 0.878993 -0.461401
-0.113755 0.403308 0.840068
-0.540373 -0.005880 0.819918
-0.122511 0.873746 0.424158
0.331180 0.007626 -0.863313
0.306905 -0.415577 -0.394570
0.330877 0.006839 -0.863637
-0.502576 -0.017241 -0.855559
-0.515532 -0.442409 0.416851
0.309674 0.424453 0.418453
0.284485 -0.389279 0.427312
-0.541251 -0.005899 0.820323
-0.537857 0.844944 -0.026706
-0.515419 -0.442930 0.419174
-0.513670 -0.019230 0.004699
0.306652 -0.414602 -0.394723
0.331543 0.006735 -0.863980
-0.123854 0.872029 0.423227
-0.485277 -0.421363 -0.421712
-0.505431 0.414459 -0.433648
-0.504986 -0.019106 -0.856121
-0.105707 0.430737 -0.859973
0.742665 0.003252 0.429427
-0.123261 0.872141 0.424472
-0.077008 -0.854859 -0.430777
-0.112400 -0.439781 -0.861817
0.742240 0.003585 0.428875
-0.098632 -0.845701 0.438153
-0.515588 -0.019661 0.005074
-0.515843 -0.440737 0.417383
-0.107368 0.431187 -0.860259
-0.098682 -0.844315 0.438419
-0.124469 0.871415 0.423314
0.752692 -0.440561 -0.001885
0.296720 0.833524 0.004010
0.757893 0.449977 0.022953
-0.096159 0.880462 -0.463191
-0.106877 0.431788 -0.858204
0.745664 0.006113 -0.396496
-0.519586 0.445659 0.427206
-0.099588 -0.843557 0.437002
0.307319 -0.413892 -0.393714
-0.535114 0.843631 -0.025414
0.331512 0.004825 -0.863158
0.347915 -0.033606 0.888952
0.744917 0.003860 0.429342
0.296322 0.833969 0.002994
-0.514304 -0.020169 0.004868
-0.504368 -0.018075 -0.857790
0.309813 0.424857 0.417763
0.330893 0.006198 -0.863758
0.744815 0.007553 -0.394594
0.754751 -0.441444 -0.003393
0.755335 0.447107 0.019260
-0.079004 -0.854785 -0.429856
0.757514 0.449598 0.021454
0.755803 0.448224 0.020601
0.320568 -0.842014 -0.013332
0.757179 0.447263 0.020334
-0.537066 0.844034 -0.025191
-0.124169 0.872666 0.424587
-0.522177 0.446083 0.426228
-0.100420 -0.846475 0.439160
-0.074567 -0.854119 -0.428992
0.331781 0.007004 -0.863596
-0.514185 -0.018333 0.003605
0.745894 0.009380 -0.398112
0.756153 0.449189 0.020450
-0.504292 0.415855 -0.431350
0.308970 -0.414958 -0.393085
0.745370 0.008357 -0.396239
-0.515222 -0.020653 0.004273
0.744506 0.008731 -0.395236
-0.113100 -0.440581 -0.861284
-0.125829 0.872426 0.425020
0.288769 0.401654 -0.415464
-0.107462 0.430244 -0.857610
-0.514089 -0.019104 0.004534
-0.514018 -0.019497 0.003698
-0.515345 -0.444088 0.419366
-0.521953 0.445218 0.427340
-0.484033 -0.419622 -0.418170
-0.484506 -0.422357 -0.418796
0.331454 0.007230 -0.864737
-0.107803 0.431257 -0.858917
-0.100314 -0.844463 0.439722
-0.516491 -0.443568 0.418263
0.348457 -0.033838 0.890110
0.758819 0.446759 0.021374
0.744649 0.004827 0.430937
0.330353 0.006079 -0.865635
-0.505199 0.413811 -0.433284
-0.515333 -0.020797 0.004673
-0.515076 -0.020245 0.007645
0.288907 0.402679 -0.414043
-0.106497 0.429651 -0.858842
0.296346 0.833822 0.003671
0.347470 -0.035006 0.889774
0.743710 0.003604 0.430862
0.745762 0.008292 -0.398165
0.306475 -0.415338 -0.396072
-0.486121 -0.422087 -0.420684
-0.098017 0.879279 -0.460188
0.741783 0.001996 0.429606
-0.517554 -0.842113 0.015278
0.744919 0.004624 0.430550
-0.505136 0.413132 -0.431464
-0.505673 0.415580 -0.431985
-0.113693 -0.407086 0.854959
