OFF
256 0 0
-0.090512 0.798789 -0.410340
-0.550165 0.409214 -0.399363
-0.549406 0.408828 -0.397412
0.331846 0.396301 -0.390677
-0.088866 0.827952 0.396662
0.332578 0.395394 -0.390956
0.293188 0.429260 0.389912
0.763601 0.439447 0.004575
0.736795 -0.403991 -0.004998
-0.092259 -0.844226 0.427274
-0.543504 -0.836323 0.013592
0.303814 0.872252 0.002541
0.304209 -0.024227 -0.852467
-0.120838 -0.849549 -0.416982
0.291254 0.428773 0.389663
-0.544848 -0.834569 0.013335
-0.519803 0.802729 0.001229
0.304549 -0.023549 -0.851991
0.318143 0.044597 0.805153
-0.077879 -0.390286 0.860261
0.764240 0.439746 0.005294
-0.511768 0.385227 0.387678
0.309998 -0.838068 -0.004216
-0.534111 -0.007524 -0.030521
-0.466774 -0.400399 0.412458
-0.093429 -0.844945 0.426709
0.738052 0.018376 0.405507
0.744547 -0.003913 -0.443845
0.314125 -0.383280 -0.382107
-0.087878 0.828429 0.396965
-0.088311 0.404025 -0.820673
0.311460 -0.836681 -0.000547
-0.533725 -0.448018 -0.409913
-0.116629 0.419245 0.822771
0.739483 -0.407053 -0.005613
0.317713 0.043684 0.806802
-0.121350 -0.849878 -0.414370
-0.088725 0.401985 -0.822553
-0.105774 -0.421957 -0.828189
0.737334 -0.404685 -0.003663
0.765920 0.436584 0.005936
0.739080 0.015014 0.407381
0.295380 0.429627 0.390264
-0.088871 0.800199 -0.413807
-0.533275 -0.003686 -0.029741
-0.106154 -0.421632 -0.827053
-0.088732 0.796303 -0.412960
0.315282 -0.383009 -0.383169
-0.089450 0.798935 -0.413337
0.738789 0.016994 0.408388
0.332296 0.394816 -0.390501
0.334216 0.394781 -0.389490
0.311054 -0.424934 0.430452
0.739056 0.015517 0.405052
-0.086813 0.827322 0.397582
-0.105548 -0.423604 -0.827284
0.304000 0.874249 0.003469
0.305379 -0.022779 -0.851308
0.762357 0.437709 0.005201
0.311328 -0.422558 0.429923
0.332616 0.395765 -0.389575
0.315949 -0.385134 -0.383019
0.737721 0.012921 0.406981
0.331270 0.395327 -0.388606
0.306221 -0.023243 -0.852069
-0.520185 0.041029 0.851610
0.765189 0.438076 0.003306
0.304762 0.873938 0.003453
0.739549 0.014919 0.405574
-0.077087 -0.392492 0.861722
-0.089838 0.799523 -0.413388
-0.518940 0.044273 0.852835
0.314657 -0.384026 -0.381844
0.305306 -0.023512 -0.850733
-0.514344 -0.010212 -0.821680
-0.533392 -0.447099 -0.410084
0.314966 -0.385444 -0.380787
0.304372 0.873330 0.002051
-0.115221 0.420976 0.826800
0.737687 -0.403712 -0.002873
-0.089058 0.406016 -0.821407
0.303941 -0.022107 -0.851847
-0.466608 -0.399255 0.411087
0.763533 0.438485 0.003698
-0.089441 0.406946 -0.822182
-0.532784 -0.447931 -0.411113
-0.467120 -0.400259 0.410496
0.738904 0.016961 0.404627
-0.118438 -0.850780 -0.415386
-0.080128 -0.390127 0.861254
0.310413 -0.836179 -0.003800
0.292510 0.428507 0.390427
0.310535 -0.838127 -0.002201
-0.091165 0.405745 -0.823207
0.305251 -0.023463 -0.849497
0.764341 0.437768 0.005433
-0.533979 -0.008497 -0.029985
-0.087553 0.827641 0.398577
0.306204 -0.022621 -0.850363
0.744988 -0.005627 -0.444549
0.330456 0.395085 -0.390532
-0.549641 0.408241 -0.398973
0.309469 -0.425190 0.429002
-0.464727 -0.399210 0.412169
-0.531735 -0.006487 -0.028767
-0.532500 -0.446632 -0.412464
0.737914 0.015710 0.407114
-0.517243 0.803957 0.001716
0.742171 -0.006165 -0.443370
-0.089411 0.828159 0.397468
0.319545 0.043041 0.806226
-0.511953 0.384754 0.387262
-0.090586 0.799773 -0.414640
-0.520369 0.803772 0.001037
0.310851 -0.423668 0.428673
-0.517159 0.803945 0.000957
0.763900 0.438859 0.004150
0.737104 -0.403384 -0.002932
0.315866 0.044357 0.805618
0.311513 -0.422827 0.428498
-0.088205 0.829814 0.397055
-0.542064 -0.834877 0.012935
-0.087454 0.829131 0.396440
-0.088579 0.797732 -0.412583
0.305473 0.873967 0.002587
0.302667 0.873019 0.004003
-0.114750 0.418689 0.824493
-0.532254 -0.446810 -0.412092
-0.106034 -0.420487 -0.829774
-0.517788 -0.009427 -0.824563
0.738910 -0.405991 -0.005837
-0.105936 -0.421396 -0.827196
-0.533141 -0.445874 -0.408721
-0.087521 0.827377 0.396871
-0.078863 -0.390864 0.861237
0.737025 0.018047 0.405550
-0.545282 -0.836687 0.013689
-0.116428 0.419789 0.825116
-0.087682 0.405433 -0.820829
-0.116602 0.421105 0.823608
-0.466641 -0.399910 0.412748
-0.087534 0.829162 0.397094
-0.089199 0.405339 -0.820938
-0.464862 -0.397860 0.410114
-0.520843 0.041304 0.852861
-0.511335 0.383857 0.389411
-0.116141 0.419936 0.822807
0.294101 0.429446 0.390951
-0.087091 0.827032 0.397490
0.311355 -0.423273 0.428114
-0.531839 -0.448859 -0.408344
0.305486 0.872914 0.004791
-0.078042 -0.391707 0.861554
0.764275 0.438984 0.005412
0.309069 -0.425224 0.430570
0.736295 -0.404711 -0.001825
-0.520455 0.041752 0.852216
0.309341 -0.839214 -0.003946
-0.088605 0.799222 -0.412808
0.295141 0.427982 0.391183
-0.533314 -0.004561 -0.030436
-0.544284 -0.835536 0.012865
-0.519780 0.802313 0.001949
-0.121344 -0.850014 -0.416379
-0.086872 0.403847 -0.824017
0.295517 0.430601 0.390042
-0.467896 -0.401089 0.411668
-0.533225 -0.446344 -0.409137
-0.517200 0.804546 0.001997
0.318050 0.044983 0.805722
-0.087211 0.826586 0.395834
-0.091657 -0.844066 0.426404
0.305183 0.871996 0.004176
0.306202 -0.024909 -0.850325
0.735891 0.015999 0.406388
-0.087553 0.404812 -0.821624
-0.087541 0.826757 0.397637
0.310036 -0.422097 0.430477
-0.512077 0.382964 0.388068
-0.518897 0.042204 0.853110
-0.087741 0.826378 0.398104
0.315029 -0.382759 -0.382084
-0.120544 -0.850128 -0.418042
-0.079534 -0.391803 0.859606
-0.464782 -0.397931 0.411583
-0.534619 -0.005952 -0.028216
0.316264 -0.383712 -0.382820
-0.120301 -0.851010 -0.414680
-0.117441 0.421974 0.824457
0.305270 0.872802 0.003035
0.738682 0.016869 0.406597
-0.465921 -0.399996 0.409285
0.316566 0.043315 0.805325
-0.518045 0.042397 0.853632
-0.107560 -0.420744 -0.825627
0.306457 -0.023134 -0.852484
-0.515313 -0.010279 -0.822773
-0.543982 -0.837666 0.014178
-0.534436 -0.006940 -0.029210
-0.465592 -0.399915 0.410849
-0.107725 -0.421948 -0.829236
0.309296 -0.838646 -0.003176
-0.087802 0.406627 -0.822629
0.310496 -0.421186 0.432639
-0.087614 0.829032 0.397233
0.304333 0.874085 0.004271
0.292319 0.431670 0.390853
-0.542902 -0.836100 0.012045
-0.519467 0.042703 0.853197
0.309575 -0.423567 0.431187
-0.465095 -0.401376 0.411120
0.744173 -0.005603 -0.447945
0.309807 -0.425061 0.430957
-0.121913 -0.849875 -0.415264
-0.092902 -0.844103 0.426137
0.739155 0.017649 0.407227
0.294268 0.425966 0.388543
0.311058 -0.423707 0.430868
0.745253 -0.007369 -0.444294
0.309953 -0.423582 0.429904
0.312828 -0.423074 0.431711
0.305287 -0.024089 -0.851698
-0.466255 -0.401396 0.411183
-0.088336 0.829304 0.396762
-0.119658 -0.851816 -0.416034
-0.518448 0.042225 0.852760
0.310009 -0.835857 -0.002974
-0.464324 -0.401073 0.410301
0.744797 -0.005890 -0.446141
-0.551819 0.406281 -0.399921
-0.088759 0.826903 0.396166
0.294212 0.426412 0.389080
-0.094077 -0.845558 0.426727
-0.533576 -0.005999 -0.031176
-0.520370 0.804276 0.001297
-0.466930 -0.399678 0.410918
-0.093853 -0.843825 0.428355
-0.106369 -0.420617 -0.829339
-0.520959 0.043603 0.855239
-0.533134 -0.447733 -0.409143
-0.114963 0.418564 0.824539
-0.466002 -0.401933 0.410482
-0.092194 -0.844909 0.427767
0.764075 0.438120 0.005094
-0.087426 0.827623 0.395778
0.764792 0.439729 0.004908
-0.519164 0.042833 0.852810
-0.534668 -0.005809 -0.028615
-0.531479 -0.447161 -0.409907
0.314753 -0.383815 -0.381852
-0.520404 0.041518 0.853266
-0.466519 -0.400255 0.411570
0.295058 0.429187 0.390006
0.304392 0.873327 0.004688
-0.520501 0.803576 0.000767
-0.520513 0.042516 0.853099
