OFF
256 0 0
0.724192 0.002769 -0.400541
0.716563 0.394813 0.021877
0.280937 -0.403323 0.370876
-0.103269 -0.852030 0.391599
0.299076 -0.832246 -0.006194
-0.489335 0.436184 -0.388649
-0.078195 0.404235 -0.787784
-0.102092 -0.851281 0.393980
0.697105 -0.414721 -0.008493
-0.501140 -0.400247 -0.398455
-0.090270 0.397954 0.805767
-0.498382 -0.407039 0.392570
0.289095 0.027772 -0.814439
-0.077156 0.807675 -0.382602
0.697574 -0.414557 -0.005451
0.697885 -0.414989 -0.005364
0.281948 -0.395997 -0.398656
-0.129222 -0.811147 -0.407759
-0.492042 0.814846 0.012874
0.270771 0.373661 0.392846
0.288283 0.026851 -0.816389
0.289101 0.026094 -0.813997
0.295238 -0.012752 0.798638
-0.076714 0.404242 -0.786071
0.272682 0.373914 0.392037
0.273496 0.373219 0.393397
0.298968 -0.830668 -0.004794
-0.076272 0.806512 -0.383793
-0.089609 -0.407941 0.778408
-0.509324 -0.858787 0.008405
0.282381 -0.396395 -0.395890
-0.128873 -0.810084 -0.409138
-0.113212 -0.401883 -0.837298
0.295569 -0.011729 0.800072
0.721767 0.001256 -0.401870
0.271505 0.372919 0.393576
0.323537 0.437566 -0.392345
0.714547 0.394735 0.021301
-0.509435 -0.860106 0.006648
0.721949 0.002315 -0.401074
-0.486865 0.436814 -0.387454
0.715199 0.393090 0.023143
0.714752 0.394106 0.021567
-0.113417 -0.403419 -0.837247
-0.491345 0.002315 0.812096
0.715771 0.395627 0.022289
0.281061 -0.398024 -0.396021
-0.511593 -0.858149 0.007209
-0.492896 0.002521 0.816809
0.300338 -0.831435 -0.002691
-0.493656 0.004238 0.813913
-0.491169 0.002317 0.811787
-0.089866 0.398194 0.805036
0.715651 0.394044 0.023166
-0.103861 -0.852243 0.393868
0.697235 -0.416291 -0.005769
0.271307 0.375132 0.394048
0.295531 -0.012476 0.799844
-0.089477 -0.406639 0.779541
-0.488298 0.435412 -0.388401
-0.489664 0.417305 0.388991
-0.088412 0.399124 0.803831
-0.079579 0.404964 -0.787762
-0.090338 0.397490 0.804786
-0.079260 0.406857 -0.786100
-0.487525 0.018317 -0.025742
0.295648 -0.012477 0.798970
0.715883 0.395038 0.021318
-0.499475 -0.408457 0.393550
0.294125 -0.011445 0.800986
-0.489293 0.019924 -0.025559
-0.075515 0.807642 -0.382697
-0.087908 0.399121 0.803745
-0.492570 0.002003 0.814624
0.282318 -0.404563 0.371361
-0.488685 0.436034 -0.388600
0.281637 -0.398540 -0.397098
0.716151 0.395414 0.022496
-0.074875 0.807148 -0.383313
-0.489893 0.417692 0.388466
-0.079085 0.406720 -0.787694
-0.075464 0.807477 -0.382133
-0.089261 0.398294 0.803455
0.289371 0.026040 -0.814443
0.722718 0.003223 -0.401934
-0.114170 -0.402606 -0.836373
0.279712 -0.397539 -0.398702
-0.103537 -0.854110 0.393887
-0.091650 0.398070 0.804566
0.697429 -0.415630 -0.007744
0.288876 0.026801 -0.814663
-0.489056 0.019138 -0.025521
0.310459 0.836090 0.030545
0.699166 -0.413488 -0.004804
0.272693 0.373070 0.393148
-0.488819 0.814806 0.015283
-0.102841 -0.851646 0.391734
-0.112977 -0.403279 -0.836920
-0.511900 -0.861643 0.006976
-0.497670 -0.409327 0.396865
0.721491 -0.000587 0.395017
0.280921 -0.398159 -0.396446
-0.488253 0.435814 -0.386267
-0.510354 -0.860349 0.006880
0.294801 -0.012430 0.799443
-0.485631 -0.012176 -0.771938
0.270948 0.372069 0.392179
0.288569 0.025999 -0.815192
0.714456 0.396085 0.022470
0.283582 -0.405750 0.373017
-0.089748 0.397247 0.804213
-0.131414 -0.808343 -0.409514
-0.486357 -0.012845 -0.775516
-0.512942 -0.858851 0.008404
-0.090056 0.398716 0.804487
-0.127551 -0.809341 -0.408905
-0.104846 -0.851198 0.392962
0.698081 -0.412294 -0.007955
0.723692 0.002018 -0.401027
0.271629 0.371777 0.393280
-0.489001 0.419126 0.389164
0.270810 0.373302 0.394705
0.721729 -0.003789 0.395434
-0.490478 0.002621 0.813016
-0.127743 -0.810388 -0.407988
-0.508436 -0.859167 0.005690
-0.492187 0.813168 0.013757
0.293649 -0.013059 0.798567
-0.085615 0.844696 0.416091
-0.488743 0.436124 -0.389251
-0.088288 0.397376 0.804789
-0.498813 -0.410984 0.394497
0.296860 -0.830698 -0.005296
-0.102498 -0.854711 0.392398
-0.084358 0.844213 0.418050
0.322357 0.435027 -0.390729
-0.129615 -0.808746 -0.408824
-0.085148 0.843945 0.417927
0.695417 -0.414154 -0.006235
-0.493175 0.003085 0.812000
0.723823 0.005422 -0.402437
0.722486 0.000779 0.395685
0.724070 0.000928 -0.403294
-0.085050 0.846948 0.417338
0.698808 -0.415896 -0.007126
-0.089577 0.398579 0.804475
-0.082240 0.406812 -0.788931
-0.501057 -0.401333 -0.398160
-0.486817 0.020746 -0.026120
0.715020 0.394016 0.022245
-0.102439 -0.854134 0.394940
0.295909 -0.011342 0.799609
-0.074291 0.806650 -0.383810
-0.489267 0.418176 0.387384
-0.089309 -0.404697 0.777431
-0.487672 0.019766 -0.026538
-0.085364 0.845674 0.416223
-0.493612 0.002245 0.814667
-0.492644 0.005738 0.811787
0.282506 -0.396340 -0.398521
0.281215 -0.396556 -0.397504
0.697192 -0.412888 -0.006244
0.287349 0.026232 -0.813581
0.280263 -0.397175 -0.395309
-0.490341 0.417791 0.389105
-0.089655 0.397608 0.803227
-0.089109 0.399598 0.803690
0.281737 -0.402971 0.373408
-0.490526 0.814505 0.013403
-0.090883 -0.407415 0.776733
-0.498140 -0.410996 0.394943
-0.076644 0.405352 -0.789629
-0.089316 0.398149 0.802806
-0.078782 0.403631 -0.786837
-0.510740 -0.857840 0.008875
-0.499176 -0.401346 -0.400065
-0.075213 0.805554 -0.384599
-0.491222 0.815009 0.013349
-0.075885 0.808075 -0.383190
0.322646 0.436689 -0.393101
0.713568 0.393777 0.020272
0.283480 -0.405001 0.371061
-0.489513 0.418861 0.389210
-0.501867 -0.401400 -0.399826
0.299311 -0.831426 -0.005757
-0.076928 0.806439 -0.383847
0.288055 0.027838 -0.813717
0.288036 0.029013 -0.813936
-0.499779 -0.400391 -0.400162
-0.489741 0.021401 -0.025084
-0.500069 -0.402794 -0.399521
-0.112486 -0.403843 -0.834611
-0.488894 0.418275 0.389035
-0.085841 0.844346 0.418932
0.287621 0.027258 -0.815604
0.286128 0.027074 -0.815616
-0.512134 -0.859450 0.009221
0.282234 -0.397648 -0.398635
-0.104269 -0.852080 0.391365
-0.489184 0.418858 0.388647
-0.488899 0.417858 0.388528
-0.103221 -0.851490 0.392487
-0.490412 0.815217 0.011981
0.720989 0.003395 -0.400891
-0.509753 -0.859511 0.007678
-0.490179 0.416685 0.386803
0.272116 0.373723 0.393861
-0.501450 -0.401707 -0.399520
0.282811 -0.402782 0.372069
-0.492024 0.815076 0.012847
-0.076325 0.806645 -0.381864
0.297644 -0.829859 -0.005594
-0.490434 0.815431 0.013811
-0.488372 0.018451 -0.026939
-0.491769 0.815761 0.015486
-0.075392 0.806920 -0.384319
-0.496333 -0.407334 0.394740
-0.078715 0.406766 -0.786821
0.723489 0.001427 -0.400738
-0.126873 -0.809712 -0.407731
0.271267 0.374429 0.392251
0.296135 -0.012509 0.799136
-0.511365 -0.860589 0.008165
-0.102870 -0.852406 0.393333
0.323194 0.437108 -0.394491
0.698662 -0.413638 -0.006640
-0.500388 -0.401929 -0.397724
-0.127960 -0.809687 -0.408710
0.720513 0.002053 -0.401414
0.280530 -0.397381 -0.397013
0.323954 0.435937 -0.393427
0.311059 0.834022 0.029614
-0.129170 -0.808479 -0.409461
-0.112023 -0.405078 -0.837226
-0.103021 -0.852115 0.392739
-0.491884 0.814792 0.012302
-0.128970 -0.809472 -0.405094
0.724171 0.000754 -0.400817
0.310390 0.835063 0.029387
0.280644 -0.397706 -0.397461
-0.489407 0.417405 0.387905
-0.511311 -0.858716 0.008371
-0.497376 -0.409664 0.394121
0.697559 -0.414626 -0.006437
-0.126875 -0.809184 -0.410025
-0.091094 0.397238 0.803397
0.696888 -0.414584 -0.006718
-0.500962 -0.402003 -0.401194
-0.090094 -0.405968 0.778907
0.716802 0.393364 0.023372
-0.491645 0.002424 0.813074
0.288998 0.027684 -0.815518
0.321655 0.436049 -0.393036
-0.079114 0.405006 -0.786979
0.283655 -0.397437 -0.396993
0.716608 0.395428 0.021570
