OFF
256 0 0
0.136890 0.250270 0.699845
0.149322 0.233900 -0.841962
0.154762 -0.520955 -0.074363
0.149539 0.233309 -0.843093
-0.219825 -0.516768 -0.422252
-0.232208 0.206359 -0.426195
-0.218723 -0.531631 0.356691
-0.228746 0.604265 0.690388
-0.628011 -0.544550 -0.033391
0.132520 -0.530727 -0.836980
-0.617831 -0.139597 0.285324
0.536363 0.614834 -0.042613
0.174395 0.623062 0.341125
-0.593779 0.595615 0.316897
-0.617445 -0.140964 0.286852
0.507014 0.227500 -0.414577
-0.628372 -0.545703 -0.033929
0.130923 -0.530076 -0.836419
0.148485 0.234128 -0.843403
0.505263 0.227267 -0.414754
-0.606052 0.235870 0.697759
-0.218303 -0.151774 -0.817056
0.534698 -0.129577 -0.826832
0.148775 0.234697 -0.842188
-0.217783 -0.514876 -0.422470
0.174371 0.622805 0.339590
0.156789 -0.520304 -0.075069
-0.218894 -0.530688 0.358908
0.548605 -0.531410 0.312649
0.150784 0.234633 -0.843235
0.550122 -0.529789 0.312932
0.550147 -0.527083 0.311318
-0.637524 0.218824 -0.062802
0.156057 -0.521365 -0.075950
0.547206 -0.531387 0.310071
0.537053 0.614504 -0.042077
0.506700 0.226479 -0.414448
0.149593 0.234854 -0.842934
0.155112 -0.521906 -0.073880
0.513096 0.243573 0.343674
0.159769 -0.526123 0.684365
0.173619 0.622766 0.340064
0.549841 -0.530482 0.312202
0.133613 -0.530508 -0.836880
0.537005 0.614276 -0.041777
0.130687 -0.529724 -0.837154
-0.231535 0.205643 -0.427036
-0.218721 -0.530418 0.358236
-0.217675 -0.514974 -0.424012
0.536545 0.614638 -0.041730
-0.595048 0.593815 0.317675
0.526589 -0.509833 -0.451942
-0.636052 0.220642 -0.062982
0.524380 -0.164633 0.710963
-0.605923 0.236740 0.696792
-0.245299 -0.132974 0.706466
0.155407 -0.518525 -0.072847
-0.217311 -0.151769 -0.816839
-0.217087 -0.515500 -0.424219
0.155255 -0.520468 -0.073523
0.132971 -0.529499 -0.836380
0.133959 0.250168 0.699210
-0.216628 -0.514841 -0.422799
0.525191 -0.509280 -0.449500
0.526288 -0.508653 -0.450824
-0.229530 0.605215 0.689283
-0.217715 -0.151888 -0.818003
0.526820 -0.166397 0.709454
0.176660 0.622484 0.342158
0.534633 0.615857 -0.040376
0.131888 -0.529363 -0.839574
0.527381 -0.510889 -0.451763
0.504557 0.227465 -0.412626
0.154382 -0.519524 -0.074226
0.525201 -0.165569 0.709455
0.157017 -0.520183 -0.072008
0.533599 0.616515 -0.042248
-0.219282 -0.530818 0.357634
-0.616562 -0.141147 0.287514
0.143441 0.605658 -0.412824
0.157449 -0.519775 -0.072456
-0.595258 0.592996 0.319412
0.524612 -0.165219 0.711655
0.536016 0.614244 -0.043774
-0.627936 -0.544824 -0.033327
0.546686 -0.128094 -0.030125
-0.219008 -0.530723 0.357406
0.524459 -0.162759 0.708475
-0.637001 0.219734 -0.063181
-0.218625 -0.531912 0.357112
0.512030 0.243383 0.344712
-0.606491 0.234447 0.695628
0.537243 -0.130444 -0.826000
-0.228958 0.603093 0.689573
-0.217203 -0.152692 -0.818173
0.132708 -0.530801 -0.838705
-0.217447 -0.530024 0.356750
0.534980 -0.129783 -0.824397
-0.244745 -0.133330 0.706764
0.158912 -0.526511 0.684822
0.145471 0.603293 -0.412107
0.535926 -0.132454 -0.825887
0.143813 0.605850 -0.412496
0.156701 -0.519261 -0.072844
-0.244443 -0.132548 0.707262
-0.616990 -0.142170 0.285489
0.146885 0.231741 -0.843800
0.512574 0.243733 0.346188
-0.231178 0.206049 -0.428470
-0.222968 0.582409 -0.043985
-0.634068 0.220971 -0.061134
0.550599 -0.527350 0.313791
0.145711 0.605985 -0.411819
-0.234194 0.207624 -0.426345
0.544658 -0.127532 -0.029171
0.546785 -0.129101 -0.028522
-0.217992 -0.529821 0.355754
-0.595421 0.593859 0.318540
0.157004 -0.519607 -0.072251
-0.604549 0.235450 0.695426
0.534003 -0.130570 -0.824961
-0.219033 -0.531082 0.358052
0.507113 0.226710 -0.414143
-0.217907 -0.151016 -0.816335
0.145600 0.607218 -0.413425
0.143115 0.605501 -0.412786
-0.626055 -0.187194 -0.411859
-0.233432 0.207876 -0.428253
-0.629285 -0.544952 -0.034741
0.175213 0.622719 0.341861
0.136437 0.251827 0.699427
0.549658 -0.530003 0.310694
-0.242941 -0.132448 0.707115
-0.635334 0.218340 -0.063540
0.534969 -0.130932 -0.825786
0.536283 -0.132228 -0.826462
0.523179 -0.166865 0.709962
0.550685 -0.528525 0.313014
0.132801 -0.528561 -0.838485
0.131910 -0.529774 -0.837452
0.545428 -0.126795 -0.029031
-0.224214 0.581086 -0.044427
-0.615967 -0.142017 0.287297
-0.605745 0.235553 0.695785
0.523853 -0.164651 0.708435
-0.217482 -0.153232 -0.815876
-0.626126 -0.543590 -0.036054
0.174703 0.621323 0.341228
0.506226 0.229277 -0.414907
-0.232369 0.206366 -0.426170
-0.604457 0.235936 0.695101
-0.628943 -0.544700 -0.034388
-0.594766 0.595031 0.318895
0.534904 0.613605 -0.042860
-0.217579 -0.516530 -0.423377
0.551115 -0.531123 0.311229
0.525239 -0.164519 0.709893
0.544605 -0.125739 -0.029260
0.514088 0.244149 0.344649
0.133788 0.251584 0.699111
-0.603986 0.236641 0.695668
-0.627391 -0.187924 -0.409874
-0.228375 0.603667 0.688751
0.550544 -0.531192 0.313557
0.528781 -0.508616 -0.450913
-0.216559 -0.514222 -0.424460
0.149778 0.234601 -0.841688
-0.233262 0.206114 -0.426242
-0.627144 -0.544575 -0.034262
0.535439 -0.130192 -0.824443
0.130834 -0.531198 -0.838286
-0.594439 0.594713 0.317708
-0.635485 0.221040 -0.063823
-0.593963 0.593570 0.318446
-0.634883 0.219559 -0.063729
0.552497 -0.529938 0.312049
-0.227986 0.604057 0.689899
-0.626051 -0.187459 -0.411548
-0.626167 -0.186486 -0.411465
0.132096 -0.531419 -0.836715
-0.219081 -0.529272 0.357701
0.157803 -0.526761 0.684879
0.174580 0.622456 0.341865
0.137296 0.249967 0.699579
0.173587 0.624623 0.341307
-0.243662 -0.133102 0.705667
-0.629915 -0.544973 -0.035302
0.545675 -0.127605 -0.028788
-0.231147 0.207360 -0.424665
-0.634583 0.219831 -0.061851
0.543896 -0.126481 -0.027617
0.545465 -0.127470 -0.029718
-0.244942 -0.132147 0.706720
0.527311 -0.508455 -0.450068
-0.243898 -0.131071 0.705730
0.133987 -0.530418 -0.837701
-0.231543 0.205794 -0.426603
0.155647 -0.520818 -0.073545
-0.217984 -0.150070 -0.816628
0.159817 -0.525069 0.684400
0.526789 -0.510388 -0.449741
-0.228675 0.606191 0.691227
0.513819 0.244517 0.346638
0.536671 -0.130967 -0.825996
-0.594638 0.595607 0.317546
-0.221422 0.582709 -0.042237
0.543982 -0.127216 -0.027940
0.527028 -0.510306 -0.451724
0.549247 -0.527914 0.312227
-0.216400 -0.516944 -0.422089
-0.230178 0.207365 -0.426218
0.513326 0.245560 0.343874
0.511134 0.245369 0.346258
0.512863 0.243217 0.345599
0.159108 -0.527155 0.684675
-0.626018 -0.185155 -0.411585
0.543216 -0.125554 -0.028742
-0.217575 -0.517742 -0.423627
0.523187 -0.163548 0.709462
0.135360 0.252388 0.699417
-0.627713 -0.187802 -0.412137
-0.615404 -0.142486 0.286109
0.158366 -0.526057 0.683571
0.528081 -0.508127 -0.451397
-0.617819 -0.142473 0.285936
-0.604239 0.238702 0.696269
0.156293 -0.520119 -0.072123
-0.228921 0.606281 0.690309
-0.626140 -0.544990 -0.034442
-0.217196 -0.515876 -0.422352
0.506733 0.229201 -0.412969
-0.616809 -0.141528 0.285886
-0.634933 0.219010 -0.064258
-0.635475 0.220452 -0.062119
0.135903 0.251469 0.699118
-0.605203 0.234348 0.695819
0.155967 -0.519985 -0.075099
0.533380 0.615498 -0.041126
0.132711 -0.530983 -0.838314
0.155937 -0.520815 -0.074707
-0.244336 -0.132316 0.704135
0.533753 -0.130331 -0.826882
0.133226 -0.530198 -0.836970
-0.628679 -0.544767 -0.033130
-0.231416 0.205727 -0.426629
-0.618002 -0.142499 0.285654
-0.218700 -0.151439 -0.816887
0.159061 -0.525319 0.684078
0.513995 0.242725 0.346379
-0.244263 -0.132863 0.707865
0.535985 -0.130340 -0.826079
0.529057 -0.510387 -0.453051
-0.219011 -0.531222 0.357294
0.511654 0.242860 0.345062
-0.223816 0.583588 -0.041449
-0.241827 -0.132413 0.706825
