OFF
256 0 0
-0.230616 0.687550 -0.229618
0.230523 0.227947 0.687051
-0.229384 0.688816 0.689103
-0.689543 -0.687917 -0.228041
0.690006 -0.231368 0.688778
-0.687843 -0.688766 -0.229320
-0.229897 0.688330 -0.229385
0.229265 0.688021 -0.689842
-0.686864 -0.686678 -0.231207
0.686662 0.687109 -0.227331
-0.688453 -0.230991 -0.690269
0.229893 -0.687656 -0.228838
0.230084 0.229704 0.687896
-0.228639 0.687234 0.689848
0.689584 0.228968 0.230601
-0.229316 0.686031 0.689764
0.689115 -0.229287 -0.229453
-0.228898 0.687107 -0.227504
-0.689707 -0.230202 -0.687709
0.689493 0.229232 0.229301
0.229714 -0.230613 -0.691257
0.229240 -0.687100 0.688359
0.229163 0.687527 0.230038
-0.227423 0.689160 -0.230447
0.231361 -0.689363 0.688571
0.688765 -0.229704 -0.226869
0.228831 0.689325 0.227209
0.687324 0.687520 -0.229719
0.230133 0.687975 0.228011
0.688712 -0.228029 -0.230541
-0.230621 0.688393 0.689060
0.687395 0.687890 -0.229628
-0.688085 -0.688669 -0.230521
0.230804 -0.689057 0.688625
0.688279 -0.687770 0.230058
0.688277 -0.689705 0.230597
0.689289 -0.688482 0.229479
-0.689607 -0.230066 -0.689733
-0.228692 0.688471 -0.229215
0.229958 0.687460 0.230173
0.688387 -0.228854 -0.230076
0.686906 -0.230719 -0.227883
0.687357 0.229696 -0.689271
0.230499 0.229066 0.686507
-0.229321 -0.229573 0.687945
0.228326 -0.687734 -0.229448
-0.689534 0.230434 -0.227890
-0.228125 -0.687703 0.228234
0.685656 -0.687947 0.227820
0.227841 -0.688459 0.688728
-0.229175 0.690110 0.687598
0.687537 0.228972 0.229552
-0.228954 -0.687138 0.228588
0.230067 0.686883 0.226584
0.227930 -0.688184 0.686617
0.689440 -0.229949 -0.230873
-0.230241 0.689210 -0.229589
0.226755 0.688862 0.229245
-0.688390 -0.228354 -0.686055
0.229896 0.230286 0.688389
-0.687982 0.688880 0.226637
-0.229286 0.689694 -0.228165
-0.686902 0.229064 -0.228945
0.230697 -0.228453 -0.687900
-0.229890 0.688296 0.688239
-0.229090 0.688074 -0.230245
-0.229423 -0.228755 0.687247
-0.687812 0.230408 -0.229121
-0.230199 0.688634 -0.228503
-0.230285 0.229000 -0.687945
-0.688033 -0.228389 -0.689598
0.686168 0.686090 -0.227802
-0.227371 -0.228235 0.687034
0.689151 -0.227654 -0.229570
0.228241 0.689831 0.231383
-0.689641 -0.689220 -0.230286
-0.688548 0.688864 0.230676
-0.689013 0.688760 0.229083
0.689785 0.229626 -0.688703
0.229823 -0.686914 0.688529
-0.687324 -0.230846 0.229036
0.230027 -0.688329 0.688420
-0.228767 0.687638 0.687824
0.688905 0.688970 -0.229029
-0.688190 -0.688989 -0.228834
0.227889 -0.686408 -0.228882
0.229015 0.687953 -0.687961
0.228503 0.229671 0.689366
-0.687053 -0.688849 -0.229425
-0.689728 0.228676 0.690164
-0.229010 0.688288 -0.228915
0.688234 -0.687797 0.229943
0.230260 0.687487 -0.688423
-0.687955 0.229917 -0.229584
0.228747 0.688398 -0.688007
-0.685930 0.229194 0.689573
0.228600 -0.687302 -0.228225
0.688515 -0.228602 -0.228119
0.229039 0.689277 0.229320
0.227016 0.229523 0.689243
-0.229747 -0.687292 0.229433
-0.230050 -0.229007 0.688608
0.687147 0.230520 -0.689789
-0.686283 -0.229749 -0.688568
0.686771 0.229965 0.228572
-0.229346 0.228278 -0.689050
0.230160 -0.229252 -0.687084
0.688830 -0.229039 0.687303
0.228522 0.687696 0.229220
0.229100 -0.685920 -0.229372
-0.686570 0.689803 0.229797
-0.228823 0.229128 -0.689386
-0.689102 -0.229966 0.230628
-0.227821 -0.687229 0.230467
0.687339 -0.688760 0.228359
0.687806 0.228411 -0.688480
0.230289 0.688444 -0.690172
-0.689269 0.686306 0.230038
0.227744 -0.688483 -0.229096
0.688808 -0.230287 -0.230386
0.686322 0.686861 -0.228212
0.230530 0.687001 -0.689049
0.689014 0.230360 0.229148
0.689517 0.230107 0.227798
-0.688850 -0.228896 -0.689128
-0.229336 0.229436 -0.690301
0.687819 0.230844 -0.687632
0.230444 -0.687623 0.687289
0.229482 -0.687312 0.689252
0.686348 -0.230812 -0.228645
0.230465 -0.687568 -0.228420
-0.230205 0.688493 -0.228915
0.688790 -0.230632 -0.228712
0.229125 -0.229042 -0.687759
-0.230252 0.688077 0.691103
0.688368 -0.230212 -0.229994
-0.228395 -0.688119 0.228496
-0.229994 0.228917 -0.686782
-0.686900 -0.687917 -0.229571
0.229655 -0.687062 0.687749
0.229238 -0.689808 -0.231109
-0.228093 0.689512 -0.227717
-0.686508 0.230226 0.688915
-0.686261 0.230919 0.687634
0.690008 0.689294 -0.229612
-0.686979 -0.229791 -0.688533
-0.228448 0.230025 -0.687121
-0.687430 0.229923 0.689737
-0.688647 0.230704 0.687471
0.687072 -0.686991 0.230406
0.227691 0.228867 0.688318
0.228361 -0.229765 -0.688103
-0.688124 0.229387 0.687829
-0.688784 -0.229833 0.228906
-0.230565 0.690068 -0.230096
-0.689375 0.687687 0.228909
-0.688667 0.229994 0.687898
-0.688686 -0.688412 -0.229423
0.689095 -0.229704 0.688628
0.687736 -0.688330 0.230219
0.229348 0.688240 -0.689961
0.229666 0.686555 0.230790
-0.687049 0.229309 0.688303
0.230959 -0.689718 -0.231800
0.229171 0.228801 0.689456
-0.689363 -0.229191 -0.687322
0.229052 0.687155 0.229781
-0.228909 0.689038 -0.229664
0.687312 -0.229067 0.690448
-0.689565 0.687840 0.230752
-0.687994 -0.230053 0.227889
-0.230487 -0.686316 0.228769
0.229649 0.687681 -0.686844
-0.688980 -0.688904 -0.227791
-0.228657 0.688493 -0.229390
0.229757 0.230265 0.688391
-0.229513 0.688068 0.688632
-0.230094 0.231452 -0.688576
-0.230936 -0.688899 0.228627
-0.689165 -0.229995 -0.688716
0.688929 -0.228941 0.687528
0.229970 0.687431 0.230040
0.228802 0.687606 -0.687226
0.687100 0.689714 -0.228719
-0.228950 -0.684651 0.230308
0.688733 -0.687553 0.230106
0.687688 -0.231158 0.687838
-0.687739 -0.231443 0.230077
-0.687710 0.230544 -0.230062
-0.688447 0.689197 0.228684
-0.228822 0.686838 0.687653
0.690166 0.230194 0.229479
0.229934 -0.688762 0.687789
0.229557 -0.229181 -0.688239
0.228202 -0.229060 -0.688629
0.229823 -0.688064 0.688000
0.688862 0.688237 -0.230036
-0.227635 0.689442 -0.228031
-0.687267 0.229332 0.687802
0.688518 0.230535 -0.689120
0.228498 -0.688077 0.688412
0.229168 0.230117 0.689299
0.229378 -0.688895 0.687622
-0.228295 -0.229329 0.688510
-0.686411 -0.688159 -0.227608
0.230839 0.230227 0.688425
-0.689987 -0.687516 -0.229440
0.228024 0.230000 0.687503
0.227456 -0.688759 -0.228373
0.691646 0.690195 -0.228333
-0.228809 0.687855 -0.229810
-0.229474 0.688505 0.688405
0.228596 0.689223 0.231061
0.689584 0.688145 -0.230547
-0.689026 0.229006 0.688955
-0.227409 0.688377 0.686866
-0.229069 -0.688978 -0.686952
-0.687367 0.228310 -0.231460
0.688209 -0.688143 0.228076
0.229363 0.230295 0.687668
0.687118 0.687535 -0.229958
0.228781 0.689270 -0.687537
0.689136 0.229951 0.229629
-0.228923 0.688995 0.686849
0.229222 -0.687193 -0.229095
-0.690415 0.228609 -0.231293
-0.688671 -0.230339 -0.688601
-0.688549 0.230381 -0.229227
-0.688083 0.229875 0.687650
0.689715 0.228540 -0.688303
-0.688254 -0.688737 -0.230105
0.229776 0.688367 0.231252
-0.229873 0.228979 -0.689191
0.687654 0.227203 -0.687241
-0.688162 -0.228150 -0.688224
0.230042 0.689215 0.229662
-0.689025 -0.688809 -0.230199
-0.229149 -0.687758 0.227577
-0.228949 0.229654 -0.687594
0.229631 0.230430 0.687029
-0.687672 0.688559 0.229619
-0.687292 0.230227 0.686334
0.230443 -0.688411 -0.229728
0.688932 0.686847 -0.229337
-0.230872 -0.227898 0.687233
-0.688727 -0.227684 -0.687712
-0.229167 0.230066 -0.689063
0.688809 -0.227392 -0.230112
-0.687219 0.230613 -0.229594
-0.229242 -0.689117 0.229115
-0.229887 0.686627 -0.228233
0.228116 0.228164 0.688063
-0.228203 0.689834 0.688224
0.689677 0.226934 -0.688622
-0.688815 0.229911 -0.229669
-0.228681 -0.689114 -0.689011
