OFF
256 0 0
-0.237219 -0.669392 0.208651
0.652755 -0.651849 0.223950
-0.656514 -0.222324 -0.660525
-0.698013 -0.259252 0.227897
0.651549 -0.649840 0.223614
0.656037 -0.651009 0.223781
-0.694930 0.675403 0.224986
0.685967 0.248984 -0.670076
0.686268 0.248642 -0.668359
0.223480 0.217457 0.657630
-0.649710 0.227587 -0.194735
-0.651512 0.228088 -0.193465
-0.656800 -0.223899 -0.660208
-0.226048 -0.238344 0.645188
-0.238259 -0.671145 0.208543
-0.229286 0.250067 -0.661643
0.208743 -0.682941 0.646617
-0.658206 -0.223058 -0.660189
-0.663560 0.217955 0.662703
0.230765 -0.189003 -0.663578
0.221276 0.218081 0.659923
0.209286 -0.686301 0.648008
-0.237647 0.660532 0.672419
-0.203385 0.643802 -0.194818
-0.695406 0.675045 0.226871
-0.235194 -0.669751 0.210189
0.655781 -0.650132 0.221886
0.655586 0.675007 -0.211775
-0.236673 -0.670033 0.207688
-0.650192 0.229307 -0.193099
0.221045 0.668638 0.224062
-0.229258 0.251540 -0.662340
0.658359 0.674266 -0.211766
-0.238749 -0.668283 0.210041
0.657245 0.673097 -0.211419
-0.227970 0.249946 -0.662608
-0.651182 0.227040 -0.193477
0.231950 -0.188407 -0.664022
0.689025 -0.214146 0.692591
0.706471 -0.210593 -0.219401
0.653765 -0.650564 0.224927
-0.663410 0.221031 0.660269
0.708579 -0.211359 -0.217985
-0.662713 0.219168 0.662811
-0.189935 -0.672215 -0.683378
0.215822 0.652462 -0.692430
0.657148 0.674129 -0.211797
-0.696412 -0.260173 0.227470
0.207221 -0.686777 0.651299
-0.657228 -0.222291 -0.660016
-0.228826 -0.239190 0.644341
0.666648 0.196104 0.233393
0.707961 -0.211529 -0.218940
0.221584 0.217442 0.658439
0.209185 -0.686274 0.647806
0.221050 0.672600 0.222868
-0.225872 -0.241407 0.645250
-0.223980 -0.240207 0.645268
0.687164 0.250248 -0.668921
0.208374 -0.685416 0.649053
0.230391 -0.186608 -0.664571
-0.188311 -0.671584 -0.681662
-0.650451 0.228635 -0.194175
0.211706 -0.640184 -0.232229
-0.695898 0.672613 0.225034
-0.663912 0.220207 0.660504
-0.656737 -0.222226 -0.659391
-0.189277 -0.671734 -0.684518
-0.188751 -0.671428 -0.680680
-0.227350 -0.239797 0.645496
0.689567 -0.213749 0.692958
-0.225684 -0.239622 0.644143
0.653553 -0.650466 0.223470
-0.685075 -0.686620 -0.241175
-0.683777 -0.683964 -0.242088
-0.657403 -0.223338 -0.660465
0.662757 0.196032 0.235098
0.207961 -0.686637 0.648071
0.209981 -0.684200 0.649692
-0.694297 0.675566 0.225912
-0.236863 0.659778 0.671455
0.654828 -0.651978 0.223208
0.213967 -0.640085 -0.232542
0.222506 0.218405 0.658677
0.209886 -0.685104 0.647131
0.665831 0.196775 0.235028
-0.237704 -0.670614 0.207101
-0.227766 0.251187 -0.662727
0.208614 -0.685565 0.649621
-0.650968 0.228966 -0.195591
-0.697133 -0.258937 0.228315
0.687878 0.248869 -0.667919
-0.696594 -0.259833 0.226959
0.705490 -0.212544 -0.219575
0.210733 -0.685858 0.647461
-0.187567 -0.671071 -0.682958
0.221337 0.670081 0.222268
0.231004 -0.187348 -0.663729
0.222635 0.216298 0.657057
0.209474 -0.640894 -0.231370
-0.225003 -0.237711 0.647880
-0.238599 0.661256 0.673534
0.207615 -0.686794 0.648453
-0.239444 0.659774 0.673615
0.654011 -0.651692 0.222487
0.222583 0.216783 0.659456
-0.240846 0.659379 0.672457
0.214736 0.653937 -0.692958
-0.661801 0.220929 0.661643
0.207882 -0.684402 0.647889
0.221185 0.217059 0.659719
0.209747 -0.688799 0.649098
-0.651048 0.227751 -0.194467
-0.237893 -0.669529 0.208635
0.208649 -0.684969 0.649633
-0.698410 -0.258432 0.227220
0.205751 -0.684076 0.647707
0.666619 0.196111 0.234578
-0.236486 -0.671315 0.210096
-0.189048 -0.668849 -0.683144
-0.694745 0.673928 0.223795
-0.204888 0.642857 -0.192250
0.208139 -0.685525 0.647045
-0.650841 0.231268 -0.194166
-0.697844 -0.258979 0.227520
-0.694399 0.672665 0.224177
0.658154 0.672954 -0.214406
0.213565 0.654873 -0.692256
-0.682701 -0.684122 -0.240646
0.687180 -0.213898 0.694823
0.690321 -0.214707 0.694839
0.654828 -0.649562 0.222987
-0.239544 0.659916 0.672301
-0.225405 -0.239775 0.645254
0.223169 0.216009 0.659608
-0.226943 0.249302 -0.662469
-0.656525 -0.224817 -0.659851
-0.694238 0.674184 0.226240
-0.229413 0.250126 -0.664196
0.221408 0.216744 0.657838
-0.655693 -0.223268 -0.658651
-0.238736 0.660098 0.674052
0.210893 -0.641423 -0.232108
0.212092 -0.640130 -0.230191
-0.651043 0.227818 -0.194352
-0.189555 -0.668444 -0.681818
-0.696278 0.674448 0.224357
0.656923 0.675093 -0.213859
0.215605 0.652552 -0.691028
-0.694914 -0.259022 0.227682
0.657032 0.672164 -0.212093
0.206550 -0.684239 0.648387
0.686965 0.246796 -0.669689
0.666686 0.195006 0.230537
-0.203118 0.642903 -0.193285
0.211307 -0.637974 -0.231251
0.687346 0.250210 -0.668913
-0.206324 0.645437 -0.193479
-0.237616 -0.668876 0.208675
0.688683 -0.213452 0.691581
-0.682909 -0.683322 -0.241796
0.215570 0.652789 -0.690825
-0.682578 -0.684784 -0.240575
0.657431 0.673657 -0.214442
-0.694998 0.674088 0.225347
-0.658021 -0.223001 -0.657389
0.220938 0.669922 0.221530
0.215203 0.653069 -0.691955
0.657239 0.675428 -0.210455
0.229886 -0.186707 -0.664715
-0.657358 -0.224019 -0.660442
0.213052 0.654446 -0.692417
0.212130 -0.639988 -0.231874
-0.225525 -0.239728 0.646226
0.214721 0.654359 -0.692327
0.229736 -0.187160 -0.664336
0.222918 0.217077 0.660578
0.232714 -0.189227 -0.662282
0.232251 -0.189297 -0.665032
-0.203080 0.644613 -0.192224
0.664656 0.195808 0.232454
-0.188166 -0.670244 -0.680678
-0.189000 -0.671806 -0.681567
0.209759 -0.687029 0.647912
-0.228287 0.249905 -0.662350
-0.238764 0.661352 0.673824
0.689220 -0.214958 0.692907
0.689587 -0.215798 0.692254
-0.697239 -0.258258 0.225467
0.654175 -0.652768 0.222044
0.707179 -0.212858 -0.220460
-0.190390 -0.669787 -0.682585
0.218928 0.669840 0.223694
-0.662355 0.221542 0.660989
-0.203798 0.642733 -0.195030
0.687763 -0.214320 0.693394
0.688079 0.248289 -0.667445
0.689130 -0.213458 0.693042
-0.651805 0.226264 -0.194141
-0.694880 -0.258681 0.226539
0.688553 -0.214404 0.693001
-0.697363 -0.259347 0.228428
-0.230232 0.248824 -0.661894
0.664846 0.195191 0.232879
-0.697572 -0.258600 0.229877
-0.189271 -0.672371 -0.680573
-0.650491 0.229672 -0.193605
0.656497 0.674151 -0.212033
-0.660920 0.221320 0.660423
0.654916 0.674869 -0.210241
0.210217 -0.639415 -0.232955
-0.663137 0.221077 0.661978
0.657645 0.674484 -0.211275
0.653001 -0.649962 0.222678
-0.694001 0.675183 0.224737
0.213132 -0.639943 -0.231807
-0.230154 0.250409 -0.662331
0.209075 -0.686046 0.649315
0.707404 -0.212399 -0.220509
0.666640 0.194695 0.231523
0.665538 0.197399 0.232950
-0.237439 0.661392 0.674070
0.706688 -0.211253 -0.218857
0.213788 0.654179 -0.691815
0.212931 0.653476 -0.690378
-0.662229 0.220051 0.662225
0.687548 0.249550 -0.669775
0.708927 -0.211421 -0.221088
-0.188030 -0.671140 -0.682104
-0.662285 0.220004 0.661074
-0.683344 -0.683200 -0.240658
-0.190303 -0.670316 -0.681832
0.209215 -0.684269 0.648974
0.691434 -0.212355 0.694576
-0.224523 -0.240437 0.646726
-0.663053 0.221061 0.660793
0.232003 -0.188099 -0.663018
-0.685436 -0.683648 -0.241339
0.213846 0.653207 -0.690543
-0.662411 0.220222 0.662381
-0.662512 0.220328 0.661885
-0.696972 -0.259518 0.227311
0.208076 -0.686297 0.649599
0.657783 0.674478 -0.211211
0.664542 0.194671 0.231883
0.221246 0.670757 0.222697
0.212880 -0.640811 -0.230046
-0.235084 -0.666964 0.208599
-0.694987 0.672407 0.225088
0.222210 0.218370 0.658539
0.685808 0.248820 -0.670008
-0.205574 0.642247 -0.192888
-0.650565 0.228937 -0.196032
0.221746 0.669734 0.222578
-0.696610 -0.258761 0.226624
0.687816 0.249283 -0.670179
