OFF
256 0 0
-0.679240 0.672418 -0.015474
0.669443 0.012329 -0.651385
-0.690668 -0.693076 -0.013324
-0.007944 -0.686708 0.658695
0.040373 0.682532 -0.708530
0.692160 -0.006377 0.717321
0.691971 -0.005875 0.716177
-0.674462 0.003487 -0.720134
-0.678309 0.672440 -0.019217
-0.688445 -0.692344 -0.013241
0.645962 -0.692488 0.005675
-0.006878 -0.687072 0.658058
0.004250 0.674749 0.695699
-0.007831 -0.687709 0.656993
0.040908 0.679882 -0.708181
0.043412 0.682980 -0.709350
0.692300 -0.005175 0.719478
-0.006633 -0.686942 0.657138
-0.697691 0.021782 0.716858
0.693358 -0.005531 0.717699
-0.672347 0.002878 -0.722908
-0.696629 0.020300 0.716887
0.041648 0.682285 -0.707625
-0.680135 0.668911 -0.018409
0.670111 0.011005 -0.652881
-0.675830 0.002416 -0.721866
0.041028 0.682020 -0.707978
-0.696852 0.021057 0.716721
-0.004653 -0.687495 0.657648
-0.016455 -0.675570 -0.698623
0.041822 0.679908 -0.708095
-0.672884 0.001531 -0.721424
-0.691060 -0.692645 -0.014181
-0.674406 0.003196 -0.722179
-0.674200 0.003348 -0.721359
-0.677674 0.671239 -0.017825
-0.698205 0.020805 0.716709
0.706648 0.693765 0.014228
0.669964 0.009203 -0.649643
0.644985 -0.691377 0.006478
-0.696906 0.021917 0.717672
0.705364 0.691232 0.014574
0.706668 0.689214 0.013534
-0.014206 -0.677855 -0.698119
0.669459 0.009219 -0.652226
-0.673351 0.001521 -0.722153
0.041176 0.683455 -0.709072
-0.005275 -0.688021 0.657446
-0.690014 -0.693968 -0.013468
-0.678236 0.671029 -0.016479
-0.678205 0.671347 -0.017002
0.706447 0.689070 0.013553
0.670118 0.011029 -0.651421
0.041113 0.681814 -0.707404
-0.672457 0.000748 -0.722594
0.002231 0.675881 0.695831
0.707133 0.692242 0.011887
-0.004790 -0.687270 0.658960
0.708076 0.690365 0.013021
-0.673082 0.004212 -0.720260
-0.673976 0.002852 -0.721809
-0.678273 0.670951 -0.019158
-0.691179 -0.693118 -0.017167
-0.678253 0.671750 -0.019482
-0.696190 0.020813 0.716818
-0.673505 0.002514 -0.722813
-0.680264 0.671418 -0.017813
0.692070 -0.006978 0.717624
-0.007134 -0.685837 0.658221
-0.014403 -0.674931 -0.694738
-0.679822 0.671888 -0.018718
-0.689455 -0.692816 -0.013997
0.669006 0.009788 -0.651326
-0.678580 0.672143 -0.017792
0.644229 -0.693032 0.006346
-0.004588 -0.685748 0.657539
-0.695987 0.019302 0.716638
0.693491 -0.004996 0.718966
0.706884 0.690685 0.011755
0.041505 0.683193 -0.708434
-0.697067 0.021300 0.716635
0.670420 0.011211 -0.651943
-0.678773 0.670707 -0.017376
0.042017 0.681522 -0.707208
-0.009625 -0.689352 0.658120
-0.674285 0.002847 -0.721346
0.041040 0.683338 -0.707119
0.707236 0.690776 0.013678
-0.690292 -0.693392 -0.015124
0.040995 0.680147 -0.707530
0.004229 0.675592 0.696743
0.670411 0.010986 -0.650498
0.708093 0.691650 0.012965
0.706998 0.692477 0.013260
0.644794 -0.693973 0.006403
0.670768 0.011012 -0.650073
-0.673168 0.003306 -0.722051
-0.689677 -0.691283 -0.012875
-0.673174 0.001479 -0.721520
-0.673198 0.002280 -0.723207
-0.013230 -0.675577 -0.697986
-0.007060 -0.687147 0.657545
-0.673886 0.003265 -0.722490
-0.696014 0.021103 0.715902
0.646186 -0.689625 0.007874
0.691627 -0.005870 0.719298
-0.695012 0.021392 0.718241
0.002983 0.675498 0.696587
0.644213 -0.692545 0.005680
0.042843 0.681772 -0.706563
0.644170 -0.693349 0.007095
-0.696927 0.020373 0.716916
-0.695950 0.020043 0.717748
0.004040 0.676252 0.694726
0.644628 -0.692722 0.006599
-0.005347 -0.685436 0.658470
0.041051 0.681310 -0.709564
0.001936 0.676094 0.695057
0.643900 -0.692410 0.006998
0.646205 -0.691644 0.007033
0.668532 0.009887 -0.653437
0.694324 -0.007382 0.718037
0.645206 -0.690848 0.006656
0.708050 0.690978 0.015554
-0.696605 0.019494 0.717630
0.707447 0.691366 0.013122
0.706981 0.691008 0.014347
0.693829 -0.005874 0.719968
0.671138 0.010749 -0.651872
-0.690502 -0.691290 -0.012916
-0.672276 0.001200 -0.721230
-0.689957 -0.692755 -0.012028
0.646209 -0.692265 0.005590
0.005341 0.675969 0.697717
-0.015116 -0.676041 -0.697550
0.043204 0.681491 -0.707372
0.041193 0.682408 -0.708473
-0.013181 -0.677154 -0.696846
-0.004804 -0.685104 0.655942
0.644788 -0.692268 0.006076
-0.673939 0.001845 -0.722398
-0.672186 0.004249 -0.721255
0.707173 0.690687 0.015182
-0.012399 -0.676357 -0.698900
-0.673975 0.003481 -0.720901
-0.691102 -0.693264 -0.011200
-0.674756 0.003584 -0.722340
0.691503 -0.006192 0.719791
0.705125 0.690921 0.013710
-0.013202 -0.678106 -0.697607
-0.679817 0.670141 -0.018609
-0.012981 -0.676203 -0.696213
0.691188 -0.005860 0.718004
-0.007032 -0.686437 0.660031
0.669993 0.012173 -0.652254
0.670612 0.010161 -0.653204
-0.696788 0.020533 0.716256
-0.673557 0.003959 -0.721202
0.705031 0.691079 0.013536
0.037997 0.681105 -0.708808
-0.011966 -0.677398 -0.696652
-0.013855 -0.677725 -0.698106
0.005295 0.676571 0.696389
-0.012336 -0.676700 -0.696465
0.692875 -0.005774 0.717275
0.694021 -0.007514 0.715739
-0.012710 -0.676377 -0.698087
0.042992 0.683759 -0.708748
-0.690290 -0.692871 -0.011916
0.668818 0.010149 -0.651452
0.643252 -0.692571 0.007292
-0.004005 -0.686096 0.658728
-0.012287 -0.677614 -0.697035
0.707165 0.690238 0.011311
0.671346 0.012296 -0.651406
-0.005967 -0.685043 0.656625
-0.014572 -0.677051 -0.699225
-0.697466 0.021482 0.715946
0.043373 0.682052 -0.707782
0.003395 0.674908 0.696542
0.693202 -0.006636 0.718551
0.001971 0.676326 0.696790
0.705031 0.692856 0.013069
0.003413 0.677121 0.695333
-0.672599 0.002969 -0.722291
-0.005268 -0.686621 0.658015
-0.678756 0.669455 -0.016885
0.001684 0.675465 0.694576
0.671613 0.011110 -0.652549
-0.697644 0.020638 0.716924
0.671279 0.011339 -0.651250
0.708321 0.691123 0.012358
-0.681214 0.671429 -0.019158
-0.688997 -0.694095 -0.013557
-0.013696 -0.675157 -0.697938
0.708695 0.692636 0.014443
-0.013415 -0.677633 -0.697755
-0.690730 -0.692211 -0.013193
0.001471 0.675155 0.693930
-0.673890 0.003073 -0.722473
0.692892 -0.005561 0.719514
-0.014501 -0.674026 -0.697856
0.670730 0.011517 -0.649743
-0.014185 -0.678056 -0.695526
0.002789 0.676818 0.697156
0.041578 0.684552 -0.708018
-0.677770 0.671392 -0.018076
-0.690150 -0.692638 -0.014515
-0.689253 -0.690266 -0.015260
-0.014344 -0.675381 -0.697422
-0.696618 0.022094 0.718270
0.693003 -0.006393 0.718932
-0.013590 -0.676129 -0.695937
0.670655 0.009920 -0.651143
0.003977 0.675258 0.694972
0.002971 0.677236 0.695444
-0.692158 -0.692325 -0.013012
-0.005859 -0.687337 0.658520
0.691433 -0.006221 0.716131
-0.696509 0.020769 0.716924
0.002340 0.675798 0.695611
0.693231 -0.005155 0.718887
-0.672457 0.002167 -0.721530
0.002846 0.674040 0.693889
-0.014266 -0.676477 -0.698546
-0.015083 -0.674956 -0.695865
-0.697846 0.020638 0.716869
0.693583 -0.004441 0.717644
0.706582 0.689681 0.013776
-0.004251 -0.686620 0.656833
0.645916 -0.692961 0.007036
0.040414 0.681933 -0.708068
0.646501 -0.690473 0.005809
-0.690610 -0.692759 -0.015351
0.692864 -0.006761 0.717417
-0.687159 -0.692987 -0.013128
-0.690761 -0.692967 -0.015990
0.645593 -0.691496 0.004571
0.708641 0.690927 0.012616
0.041791 0.683759 -0.707380
0.043207 0.683014 -0.707872
-0.678345 0.670172 -0.018775
-0.006319 -0.686762 0.658198
-0.005886 -0.687939 0.656743
-0.696617 0.020882 0.715003
0.707694 0.692002 0.015180
0.670580 0.009566 -0.650475
0.644827 -0.691506 0.006865
0.669533 0.014061 -0.649655
0.645999 -0.692988 0.006195
-0.672194 0.002098 -0.722446
0.706287 0.690726 0.013543
0.670582 0.012722 -0.651345
-0.015123 -0.674985 -0.696544
-0.696802 0.022404 0.715661
-0.690199 -0.690875 -0.012430
