OFF
256 0 0
0.697445 0.716379 -0.010248
-0.636921 -0.003972 0.628047
0.023574 -0.667490 0.627295
-0.674683 -0.015220 -0.649964
-0.676661 -0.012566 -0.648463
0.634788 -0.008756 0.582868
-0.014736 -0.644740 -0.637112
0.634108 0.017549 -0.569552
0.634030 -0.009780 0.581560
-0.672785 -0.644637 -0.007799
0.697298 0.715590 -0.010652
-0.012596 0.601752 -0.576173
-0.674637 -0.014189 -0.652082
0.697018 0.717596 -0.010674
-0.674054 -0.644378 -0.006222
0.023462 -0.667098 0.628523
-0.014889 -0.647325 -0.637658
0.649912 -0.674301 -0.048588
0.036395 0.675777 0.627797
0.699567 0.715530 -0.010835
0.632487 -0.008952 0.581928
-0.637779 -0.005872 0.628152
0.026018 -0.668422 0.625876
-0.674971 -0.645116 -0.008181
0.697067 0.716949 -0.010865
0.023007 -0.667686 0.627713
0.035788 0.676012 0.628800
-0.661580 0.650881 0.032288
-0.635892 -0.004964 0.626279
0.024192 -0.667936 0.628208
-0.011791 0.602271 -0.577103
-0.637283 -0.003194 0.627911
0.025466 -0.667359 0.627168
0.023394 -0.667489 0.626362
-0.675953 -0.014294 -0.650358
0.022549 -0.668682 0.627366
-0.674330 -0.645099 -0.005947
-0.636854 -0.003743 0.628703
-0.014910 -0.647383 -0.638936
-0.659935 0.649197 0.034263
0.698097 0.716599 -0.009193
0.025082 -0.668067 0.626460
-0.637452 -0.004474 0.628424
0.034036 0.675791 0.627428
-0.014439 -0.646990 -0.638938
-0.660141 0.648395 0.033611
-0.675149 -0.643284 -0.006630
0.633443 -0.008824 0.581614
0.633445 0.019294 -0.573091
0.034803 0.674594 0.627874
0.695797 0.717083 -0.010538
0.024127 -0.668975 0.626838
-0.673738 -0.015114 -0.650438
-0.676689 -0.013220 -0.649135
0.036033 0.674312 0.628815
-0.639421 -0.003791 0.629071
0.697792 0.716596 -0.010630
-0.010609 0.600301 -0.578091
0.634717 -0.009620 0.582337
0.635619 -0.011422 0.581417
-0.014948 -0.646498 -0.637575
0.697379 0.716762 -0.011081
-0.637156 -0.005967 0.628157
-0.637905 -0.002693 0.627726
-0.638727 -0.004500 0.627880
0.034457 0.673551 0.627682
0.699829 0.717273 -0.010217
-0.011297 0.602130 -0.577379
0.633663 0.016388 -0.570631
0.633761 -0.009865 0.582197
-0.009902 0.600353 -0.576638
-0.662118 0.649562 0.033960
-0.677135 -0.013174 -0.650044
0.022807 -0.669043 0.626593
0.652867 -0.673022 -0.045251
-0.661374 0.650000 0.033744
-0.014656 -0.645618 -0.638856
0.697479 0.717714 -0.010457
-0.660469 0.650879 0.032453
0.025042 -0.668887 0.625086
-0.674824 -0.644884 -0.004865
0.632668 -0.011629 0.582936
-0.012309 0.602392 -0.577362
0.034932 0.676156 0.627182
-0.637771 -0.003832 0.629316
0.698042 0.718335 -0.009319
0.634251 -0.010456 0.581259
0.632548 0.017114 -0.570917
0.025574 -0.667938 0.627968
0.632907 0.018739 -0.571886
0.035907 0.674572 0.627147
0.026296 -0.668961 0.625918
-0.678111 -0.013560 -0.648357
-0.660660 0.651672 0.033774
0.652468 -0.673237 -0.045351
0.696693 0.716412 -0.009672
-0.676903 -0.013798 -0.650691
0.035358 0.675406 0.627088
-0.661819 0.650006 0.034085
-0.677635 -0.013535 -0.647698
0.631705 0.019356 -0.569771
0.035199 0.675703 0.627115
0.022799 -0.668928 0.626985
0.632351 0.019699 -0.569584
0.695970 0.716302 -0.010289
-0.011328 0.601440 -0.578893
-0.676976 -0.013117 -0.648146
0.651967 -0.673280 -0.045315
-0.015479 -0.646585 -0.636834
0.022575 -0.668919 0.627696
-0.015360 -0.648529 -0.637270
0.023547 -0.668439 0.625638
0.632480 0.019558 -0.569606
-0.014979 -0.647178 -0.637335
-0.011619 0.601083 -0.576796
-0.015958 -0.648148 -0.638301
0.632246 -0.008756 0.581858
0.651230 -0.673696 -0.045835
-0.673581 -0.643280 -0.007353
-0.660056 0.651295 0.032361
-0.015038 -0.647689 -0.637114
-0.674924 -0.012518 -0.648810
0.034579 0.674422 0.626348
0.036663 0.675105 0.626269
0.651317 -0.673256 -0.045406
-0.676346 -0.013142 -0.649686
-0.637078 -0.005088 0.627878
-0.011398 0.601757 -0.577257
-0.675184 -0.013144 -0.647895
0.634314 0.018697 -0.570591
-0.674220 -0.643165 -0.007287
0.632962 0.018479 -0.568708
-0.675486 -0.011990 -0.651096
0.633950 -0.009968 0.579663
0.633229 0.018418 -0.571578
-0.637815 -0.004356 0.628229
-0.637809 -0.003959 0.628536
0.634455 -0.008270 0.582392
-0.673750 -0.644778 -0.007823
-0.011017 0.603365 -0.577270
0.633443 0.019098 -0.569977
-0.016915 -0.647589 -0.637070
-0.009989 0.600703 -0.578394
-0.676539 -0.014445 -0.650716
-0.660968 0.648173 0.033097
-0.015653 -0.647135 -0.638557
0.696618 0.716130 -0.009966
-0.014921 -0.648592 -0.636552
0.650746 -0.673214 -0.046175
0.023357 -0.666655 0.627718
-0.675500 -0.012490 -0.648173
-0.010717 0.601846 -0.579060
-0.660100 0.649332 0.032162
0.632093 0.017709 -0.571536
-0.639047 -0.004380 0.626704
-0.636856 -0.004173 0.629298
0.635632 -0.009250 0.583542
0.632344 0.019594 -0.570877
-0.011025 0.601431 -0.576369
0.651241 -0.675285 -0.045395
0.036192 0.674148 0.627308
-0.011460 0.602362 -0.578432
-0.637212 -0.005578 0.628406
0.650896 -0.673016 -0.044763
0.633567 -0.010137 0.583876
-0.011469 0.601332 -0.576826
-0.010527 0.600726 -0.580697
0.632448 -0.009696 0.582310
0.037032 0.676598 0.626789
0.034239 0.674666 0.629240
0.699180 0.717509 -0.010642
-0.659913 0.649986 0.033399
-0.010875 0.602397 -0.576859
0.035907 0.675253 0.627611
-0.016047 -0.647988 -0.638729
0.634076 0.019363 -0.569846
0.633029 -0.009510 0.582913
0.651081 -0.673313 -0.045414
0.652119 -0.675173 -0.046337
-0.661899 0.649425 0.033114
-0.014916 -0.645290 -0.637280
-0.660508 0.650160 0.032983
0.651921 -0.675368 -0.046576
-0.011234 0.601773 -0.577955
0.650008 -0.673831 -0.044242
0.023223 -0.667541 0.626443
-0.660697 0.649300 0.032959
0.024723 -0.669044 0.627350
0.697960 0.715590 -0.009011
-0.638079 -0.004428 0.627818
0.024434 -0.669034 0.627051
-0.012278 0.600965 -0.578719
-0.638481 -0.006598 0.628609
0.632856 0.017295 -0.570173
0.025190 -0.667736 0.625824
-0.013113 0.602927 -0.579620
0.034386 0.674398 0.627117
0.631822 0.019213 -0.568825
0.651982 -0.673465 -0.044901
-0.637220 -0.003585 0.627195
-0.677098 -0.015466 -0.648387
-0.676809 -0.012392 -0.649304
-0.015243 -0.647160 -0.638056
0.635486 -0.008905 0.582034
0.035703 0.673850 0.626782
0.651816 -0.674361 -0.044646
0.697399 0.716638 -0.010257
0.632408 0.018150 -0.571079
0.651271 -0.674528 -0.046464
0.024939 -0.668016 0.627935
0.697900 0.714398 -0.010059
0.650382 -0.675828 -0.045158
0.651831 -0.674757 -0.045610
-0.675948 -0.644827 -0.006303
-0.661249 0.651652 0.031947
-0.675673 -0.013436 -0.648449
0.652221 -0.674867 -0.045698
0.632825 -0.011241 0.583731
-0.013224 0.601465 -0.580717
0.634970 0.020369 -0.571509
-0.675625 -0.642553 -0.006855
0.024929 -0.668659 0.627758
-0.672194 -0.644457 -0.006855
0.652424 -0.675803 -0.047387
0.697645 0.716704 -0.009728
-0.638941 -0.001876 0.628081
-0.674707 -0.644554 -0.007184
0.633321 0.017228 -0.571658
0.697404 0.716542 -0.010016
0.633700 0.018227 -0.570894
0.633460 -0.009182 0.580786
-0.676486 -0.011851 -0.650101
0.634721 0.019680 -0.569921
0.633820 -0.011360 0.583450
-0.674123 -0.645268 -0.009414
0.634770 -0.011204 0.582678
-0.675330 -0.644738 -0.007642
0.025121 -0.667816 0.627100
0.632061 0.018268 -0.569886
-0.676321 -0.644017 -0.006679
-0.015325 -0.647217 -0.636036
0.034913 0.674812 0.627461
0.652586 -0.675255 -0.045940
0.699440 0.716158 -0.009828
0.632730 0.018612 -0.570447
0.036806 0.675096 0.627290
-0.674431 -0.644199 -0.007152
-0.637169 -0.005264 0.627636
-0.013935 -0.646631 -0.639410
-0.675037 -0.645543 -0.008346
0.632622 -0.010716 0.583044
-0.674925 -0.643858 -0.009338
0.632532 0.019251 -0.568588
-0.015633 -0.644877 -0.638240
-0.661540 0.651376 0.033117
0.632572 0.018662 -0.569809
