OFF
256 0 0
0.705302 -0.705494 -0.000520
-0.706872 -0.000006 -0.707182
-0.707730 -0.709620 -0.001079
-0.708950 -0.706805 -0.000946
-0.707381 0.000186 -0.705495
0.707865 0.001626 0.705876
0.000758 0.706686 0.707226
0.707148 0.707567 0.001338
0.706998 0.708050 0.001226
-0.000762 -0.707222 -0.707096
0.705520 0.707655 -0.002482
0.001342 -0.706923 0.708204
-0.707559 -0.000149 0.706555
-0.707628 0.000723 0.706497
-0.000375 -0.708852 0.707106
0.705357 0.708532 0.000316
-0.001587 0.705894 -0.708125
0.706601 0.707858 0.000038
-0.002894 0.705858 0.707889
0.707921 -0.707913 0.000206
0.708316 0.000404 -0.707941
0.001323 -0.708288 0.709536
-0.707954 -0.000832 0.707528
0.706869 0.706818 0.000431
-0.708025 0.002430 0.706725
0.000926 0.707242 0.706029
0.000686 -0.706317 -0.706035
-0.708038 0.708631 -0.001346
0.001322 -0.705961 0.707261
0.000292 -0.705377 -0.708516
0.707574 -0.707975 -0.002472
0.000162 0.708283 -0.706224
0.000265 0.706830 -0.707804
-0.707927 0.000689 -0.707142
0.708663 0.000413 0.708048
-0.001333 0.708021 -0.708770
0.707256 -0.000445 -0.707293
0.709069 0.000970 0.707850
0.000248 0.707653 0.707871
0.704834 0.000081 -0.706451
0.706694 -0.000426 -0.706112
0.706240 0.705877 0.001795
0.706421 0.001188 0.706093
0.000325 -0.706007 -0.707579
-0.706662 0.000795 0.706137
-0.000184 0.707922 -0.707407
-0.000767 -0.707971 0.706249
0.706396 -0.707699 0.000756
-0.705777 -0.000696 -0.707534
0.707135 0.000116 0.707867
-0.707163 -0.706577 -0.000929
-0.707215 -0.001812 0.707893
0.000564 -0.707680 -0.706419
-0.706488 -0.000318 -0.707151
-0.000511 0.706217 -0.706517
0.000514 -0.706768 0.706805
0.707530 -0.706995 -0.000113
0.000621 0.707220 -0.706647
-0.706672 0.000354 0.708291
-0.707691 -0.000690 -0.709491
0.706384 -0.000287 -0.706819
-0.707753 -0.707016 0.000365
0.705766 -0.001067 0.708423
-0.000456 -0.709327 0.706452
-0.707753 0.707770 -0.003120
0.000999 -0.707337 0.706711
0.000057 -0.705593 0.707542
-0.705006 0.706791 -0.001391
0.707308 0.001228 0.706653
0.707507 -0.706727 -0.001375
0.708019 0.706156 0.002021
0.706338 0.000779 0.707565
-0.707740 0.000749 0.707769
-0.708409 0.707859 0.000052
-0.000695 -0.706629 -0.706625
-0.708092 -0.708135 0.001232
0.707256 -0.706935 -0.000625
0.000794 -0.706216 0.705436
-0.705228 0.001260 0.707271
0.704999 -0.000662 -0.704912
-0.707003 0.001871 0.706634
0.000240 -0.706113 0.707582
-0.000846 -0.706073 -0.707926
-0.000501 0.706620 -0.706859
-0.001079 0.709599 -0.706529
-0.001134 0.705882 -0.706820
-0.000414 0.706063 0.706328
-0.708048 -0.708762 -0.000556
0.707169 -0.001626 0.707474
0.707345 -0.000581 0.708909
-0.707611 0.707457 -0.000032
-0.000973 -0.709055 0.708433
-0.708109 0.000145 -0.708179
0.000321 0.707382 -0.707888
0.706941 -0.707157 0.000106
-0.707253 0.707055 0.001096
0.706297 0.000139 0.708724
-0.000164 -0.704193 -0.708625
-0.706877 0.000085 -0.707287
-0.707413 -0.000656 0.706582
-0.000873 0.705771 0.707690
-0.000089 0.707201 -0.704668
-0.002052 0.707327 -0.706350
-0.706964 0.707190 0.000190
0.706701 0.001505 -0.706768
0.001065 0.706874 0.705812
0.000589 0.707941 -0.707372
-0.000913 0.708504 -0.706433
0.707115 0.707613 0.001852
0.000280 -0.706799 -0.706780
0.000184 -0.708230 -0.707426
0.705994 -0.706885 0.000607
-0.000457 0.709720 -0.707314
0.705877 -0.000016 0.706100
0.708882 -0.001916 0.705996
-0.000899 -0.706558 -0.708648
0.706664 0.706983 -0.000445
-0.001101 0.707213 -0.708664
-0.705428 -0.000110 -0.707737
-0.000806 -0.706500 0.706388
-0.707826 -0.000449 -0.706811
0.707561 -0.708057 0.000923
0.000744 -0.705890 -0.706684
-0.706648 -0.000068 -0.708282
-0.706966 0.707497 0.000867
0.002073 0.705477 0.707287
-0.706000 -0.002209 0.706441
-0.000203 -0.706226 -0.706405
-0.707819 0.000772 0.708807
0.708077 0.000259 -0.706562
0.706147 0.707303 0.001092
0.002052 -0.707224 -0.707585
0.001406 0.706282 0.705868
0.707187 -0.707583 -0.000945
-0.708342 0.708061 -0.001070
-0.705803 -0.000049 0.705275
-0.709240 0.001074 0.706270
0.708206 -0.000229 0.705815
0.000351 0.705631 0.707658
0.707021 -0.000546 0.708144
-0.001414 -0.706712 0.706447
0.000548 -0.707248 -0.707748
0.000467 -0.706182 -0.707199
0.000276 0.705387 0.707086
0.707884 -0.001411 -0.707583
-0.707677 0.000061 0.706914
-0.000300 0.707623 -0.706746
-0.706860 -0.709262 -0.000262
-0.706916 0.707778 0.001650
0.000598 -0.707258 0.707314
0.000194 -0.706966 -0.706448
-0.708515 0.002558 -0.705755
-0.001469 -0.706510 0.705389
0.706656 -0.706941 0.001197
0.706028 -0.707249 0.000251
-0.708234 0.706731 0.000019
-0.707774 -0.001273 0.707259
0.708768 0.707420 0.001041
-0.705767 0.000827 0.707619
0.000576 0.707854 0.704825
-0.707285 -0.706554 0.000189
-0.707017 -0.001042 0.708056
0.707798 0.001951 0.706645
-0.000536 -0.706859 -0.706219
0.707284 -0.707888 -0.001903
0.000690 -0.707793 0.706374
0.000367 0.707532 -0.707004
0.000004 0.707107 -0.707517
0.706549 0.706949 0.000480
0.709365 -0.705345 -0.000256
-0.707273 0.000301 -0.707376
-0.001692 -0.708132 0.707613
-0.706719 0.707523 -0.001840
-0.708732 -0.000473 -0.708331
-0.000910 -0.707579 0.707621
0.708346 0.707033 -0.000742
-0.705728 -0.000455 0.706246
-0.000195 -0.705160 0.707551
-0.000394 -0.707339 -0.706628
0.709022 0.706863 0.002217
-0.001374 -0.706235 0.708703
0.000054 -0.710210 -0.706547
0.706562 -0.707909 -0.001926
0.001096 -0.706855 -0.706510
0.705826 -0.707638 0.000102
0.709110 -0.707366 0.000890
-0.707394 0.708170 0.001299
0.706944 0.708802 0.000468
-0.000031 -0.707821 0.706240
-0.706452 0.000260 -0.706789
-0.707479 0.707034 -0.000181
0.708318 -0.001716 0.706833
-0.000642 0.707001 -0.708981
-0.708138 -0.000732 0.708026
0.707239 0.001692 0.705803
-0.708650 -0.001388 -0.707644
-0.705670 -0.001115 0.709476
0.706970 -0.000730 -0.708165
-0.001460 0.707534 -0.706507
0.705365 -0.706811 -0.000063
0.000420 -0.707895 0.707769
0.000023 -0.707998 -0.707771
0.707457 -0.706152 0.000842
0.706227 -0.707225 -0.001402
-0.000048 -0.707929 -0.705562
0.706706 0.706280 0.000187
0.000077 0.706129 -0.705488
-0.705808 0.000875 0.705944
-0.705825 -0.002162 0.707414
0.708003 -0.706832 -0.000095
0.000367 -0.707333 -0.708249
-0.708204 -0.001273 0.707186
-0.000787 -0.707294 0.709014
0.706167 -0.000973 -0.709014
0.706722 0.706632 -0.000869
0.708866 0.708251 -0.000230
0.706917 -0.000169 0.707086
-0.705866 0.001492 0.708493
0.708899 0.705424 -0.000829
0.000057 0.707831 -0.706826
0.706505 -0.001595 -0.708273
-0.707446 0.706337 0.000845
-0.707768 -0.707389 -0.001138
0.000127 -0.706999 0.708629
-0.001673 0.705747 0.708290
-0.706165 -0.706195 -0.001009
0.707327 0.705246 0.000393
0.706280 0.707430 -0.000254
0.001122 0.707985 -0.706337
-0.001623 0.706371 0.706945
-0.000064 0.709036 0.706434
-0.707158 -0.706690 -0.001122
-0.707799 -0.706109 0.001523
0.000181 -0.705351 0.707619
-0.707742 0.706601 -0.002152
-0.707386 0.001401 0.707409
-0.000109 -0.707488 0.706687
-0.705491 0.000551 -0.708403
0.706441 0.706832 0.000062
-0.707143 0.001066 0.707022
0.707128 -0.000715 -0.705558
-0.000022 -0.707445 0.709674
0.001449 -0.708683 0.707344
-0.708442 0.706518 0.000044
-0.000523 0.708036 -0.707958
0.000113 -0.707455 -0.706079
0.706315 0.706913 0.000464
0.001133 0.708126 0.706853
-0.000256 0.705482 -0.706814
-0.707303 -0.000648 -0.707358
-0.001098 -0.706566 -0.707152
0.001663 0.707137 0.708324
-0.706056 0.707626 -0.002156
-0.706515 -0.705747 0.000186
-0.707195 -0.000488 -0.705904
-0.708287 0.708318 -0.001183
