OFF
256 0 0
0.685229 -0.219020 -0.600553
0.335718 0.504069 0.516697
0.338571 0.505861 0.517933
-0.431403 -0.224128 0.520028
-0.409394 -0.209100 -0.207099
0.704155 -0.619708 -0.228197
-0.431382 -0.223287 0.517373
-0.035182 -0.593889 0.540310
-0.804871 0.164210 -0.205409
-0.834126 0.532478 0.143732
-0.424108 0.534906 0.508980
-0.407431 -0.207176 -0.206417
-0.804327 0.164749 -0.208122
0.702762 0.132852 0.524189
0.300307 0.129425 -0.597876
-0.834346 0.532568 0.143675
0.703226 0.137243 -0.238820
0.323538 -0.221624 0.552036
-0.805624 0.166099 -0.205558
-0.408396 -0.210028 -0.207205
-0.419411 0.503253 -0.214514
0.299662 0.128051 -0.597022
-0.428343 0.158909 -0.620135
-0.422131 0.534215 0.508335
-0.045668 -0.637018 -0.239064
-0.053357 0.547027 0.134926
0.705186 -0.622130 -0.228072
-0.799104 -0.231745 0.129500
-0.039649 0.539152 -0.591175
0.338448 0.504311 0.517024
-0.811738 0.138828 0.491419
-0.429244 -0.223882 0.518615
-0.433256 -0.587602 0.156501
-0.798816 -0.229526 0.130070
-0.799431 -0.231623 0.130421
-0.812480 0.137976 0.490736
-0.051616 0.546250 0.137371
-0.069537 0.161533 0.498003
-0.051370 0.549439 0.135132
-0.432416 -0.585350 0.154939
0.326963 -0.597362 -0.591993
-0.061025 -0.227498 -0.596412
-0.804061 0.165489 -0.206153
0.686057 -0.217289 -0.600498
0.300156 0.129917 -0.598453
-0.813384 0.137686 0.489198
-0.046031 -0.635452 -0.239377
0.684821 -0.219976 -0.600603
0.327734 -0.599660 -0.593684
0.323226 -0.221431 0.550252
0.300918 -0.613976 0.153329
-0.043182 0.539111 -0.591572
0.683960 -0.220524 -0.599807
0.320815 0.533630 -0.227515
0.300688 0.130102 -0.598983
-0.041100 0.543127 -0.589419
0.704322 0.136194 -0.234308
0.683786 -0.219240 -0.599089
-0.812383 0.138057 0.491169
0.301011 0.129205 -0.598276
-0.410007 -0.210734 -0.203956
0.302554 -0.613666 0.153860
-0.811161 0.140222 0.489732
-0.035083 -0.593910 0.541381
-0.041462 0.540322 -0.589519
0.302054 0.128594 -0.598170
0.703147 0.132587 0.524809
0.302023 -0.614023 0.153224
0.689817 -0.228181 0.140367
0.323109 0.533205 -0.228516
0.327653 -0.598063 -0.590967
0.704262 -0.620115 -0.227751
-0.421909 0.535027 0.510149
0.701821 0.135193 -0.236509
-0.060979 -0.226112 -0.595135
0.684531 -0.220509 -0.598309
0.701309 0.132049 0.523147
-0.039363 0.541728 -0.591694
0.304284 -0.613438 0.154860
-0.419874 0.504475 -0.214428
0.322280 -0.221766 0.551410
-0.036933 -0.594501 0.540433
0.688088 -0.227973 0.141481
-0.051595 0.547016 0.136022
-0.427566 0.159103 -0.620368
-0.034853 -0.594761 0.539207
0.321500 0.533363 -0.228043
-0.423209 0.534012 0.508727
-0.433656 -0.586297 0.158776
-0.813150 0.138763 0.491299
-0.060856 -0.227139 -0.594574
0.326794 -0.601628 -0.591144
-0.812218 0.139588 0.491637
0.328640 -0.599122 -0.593200
0.701641 0.130976 0.524367
-0.431914 -0.222991 0.520681
-0.046263 -0.634733 -0.240928
-0.835103 0.532438 0.142092
-0.036609 -0.593719 0.539174
-0.422572 0.534796 0.508485
-0.835108 0.531825 0.145350
0.690349 -0.228230 0.140659
-0.433865 -0.586766 0.155910
0.327305 -0.599493 -0.592103
0.302064 0.129676 -0.599866
0.703921 0.136605 -0.235854
0.699873 0.489271 0.149605
0.326586 -0.598603 -0.592058
-0.061914 -0.227528 -0.594209
0.703184 0.136348 -0.236392
0.689299 -0.228468 0.141523
-0.424538 0.534592 0.508693
-0.408225 -0.209245 -0.207053
0.704498 0.136692 -0.236563
-0.422323 0.534607 0.509831
0.685023 -0.219237 -0.601567
0.699169 0.488564 0.150609
0.702214 0.131529 0.523354
-0.423520 0.536441 0.509286
0.322384 -0.221410 0.551392
0.683543 -0.219290 -0.599934
0.300579 -0.614999 0.154702
-0.432283 -0.224406 0.520094
-0.059775 -0.227056 -0.596494
-0.799704 -0.232542 0.128944
-0.051736 0.547108 0.136084
0.300023 0.129150 -0.598616
0.300037 0.128993 -0.597728
-0.034195 -0.593562 0.540134
0.705074 -0.622599 -0.227917
-0.800291 -0.231939 0.130592
-0.408420 -0.209055 -0.207706
-0.799684 -0.234388 0.131621
0.698457 0.489445 0.150007
-0.421976 0.534770 0.507636
-0.835485 0.533780 0.143181
-0.805726 0.164858 -0.206415
0.704845 -0.620874 -0.228643
0.301569 0.126522 -0.598795
-0.420773 0.504013 -0.214943
0.302032 0.129908 -0.597900
-0.036348 -0.594582 0.541100
0.327380 -0.599976 -0.592752
-0.813891 0.137847 0.491225
0.299986 0.129530 -0.598906
-0.050608 0.547150 0.135409
0.338105 0.504559 0.515866
0.706405 -0.619441 -0.227921
-0.419518 0.504106 -0.213827
-0.432990 -0.586950 0.155680
-0.813711 0.138689 0.490217
-0.430269 -0.585485 0.153549
0.702779 0.131240 0.523835
-0.427969 0.160439 -0.620362
0.321130 0.532058 -0.228384
-0.812533 0.137429 0.491896
-0.810074 0.138810 0.489374
0.703380 -0.619326 -0.228469
-0.432955 -0.588391 0.155449
-0.069790 0.162694 0.496493
0.300174 0.130818 -0.598108
0.704849 -0.620116 -0.226616
-0.047006 -0.634409 -0.240259
-0.420343 0.502770 -0.214368
-0.046103 -0.635967 -0.240720
0.702213 0.136380 -0.236138
-0.408422 -0.208966 -0.208037
0.325921 -0.599114 -0.592020
-0.422522 0.534809 0.508918
-0.813298 0.137569 0.490202
-0.432087 -0.586510 0.156270
0.300940 0.128790 -0.596970
0.322400 0.532727 -0.226484
-0.051740 0.545946 0.136143
0.301056 0.128871 -0.597934
-0.036562 -0.594334 0.541370
-0.070922 0.161862 0.496681
-0.799711 -0.234462 0.128688
0.683784 -0.218369 -0.600968
-0.420208 0.504012 -0.214411
-0.419341 0.504189 -0.214489
-0.433637 -0.586318 0.156705
-0.804049 0.163303 -0.207663
-0.036678 -0.591939 0.540702
0.323817 -0.220793 0.549726
-0.835302 0.531810 0.144766
-0.420119 0.503661 -0.215786
-0.804935 0.166054 -0.207037
0.303275 -0.613681 0.153463
-0.410562 -0.209879 -0.205777
-0.034574 -0.594603 0.540532
-0.032789 -0.593990 0.540386
-0.804623 0.166015 -0.207228
0.327599 -0.596789 -0.594240
-0.046139 -0.633513 -0.239182
-0.060649 -0.225644 -0.595107
-0.431241 -0.224139 0.519599
-0.801651 -0.231962 0.129378
-0.836223 0.532215 0.143131
0.702039 -0.621528 -0.226460
0.689069 -0.228741 0.140375
0.300667 0.127633 -0.598776
-0.835732 0.531228 0.142709
-0.042133 0.542639 -0.590447
-0.419721 0.502885 -0.214436
0.691566 -0.225740 0.140604
0.321686 0.532531 -0.226832
0.684428 -0.217658 -0.599456
0.701999 0.136862 -0.235726
-0.431318 -0.223684 0.519493
-0.424176 0.535026 0.509386
-0.835120 0.532830 0.145064
-0.804832 0.166032 -0.204899
0.322329 -0.223235 0.549949
0.327506 -0.595834 -0.592129
0.698118 0.490804 0.151078
-0.067316 0.161819 0.497650
-0.803532 0.165951 -0.207916
-0.068094 0.162366 0.495645
0.702710 0.134860 -0.238496
-0.041767 0.542756 -0.590478
-0.045150 -0.635984 -0.241091
-0.041572 0.542582 -0.589184
-0.800244 -0.229044 0.129059
-0.420235 0.504262 -0.214668
-0.813516 0.136917 0.491517
0.322317 -0.221940 0.550169
-0.431728 -0.587006 0.156544
-0.041919 0.541829 -0.590350
0.302878 -0.613372 0.153480
-0.800599 -0.232178 0.130487
-0.433095 -0.587852 0.157319
0.691106 -0.228296 0.141489
0.302274 -0.614148 0.154421
0.682792 -0.221233 -0.600075
0.699528 0.488353 0.149860
-0.045479 -0.635641 -0.239918
-0.420099 0.506041 -0.215354
-0.813002 0.137619 0.492288
0.697739 0.488419 0.150973
0.320944 0.533868 -0.226640
-0.047573 -0.634156 -0.239650
0.702183 0.136239 -0.237618
0.337971 0.504070 0.516634
-0.068624 0.162365 0.494639
-0.802797 0.165310 -0.206558
0.301314 0.130329 -0.598389
-0.061914 -0.225586 -0.594001
-0.044642 -0.636336 -0.240190
0.327870 -0.598822 -0.590424
0.687971 -0.220301 -0.599144
0.705885 -0.619234 -0.226466
-0.060433 -0.225660 -0.595566
0.685783 -0.220400 -0.601137
-0.431425 -0.223441 0.519791
0.337845 0.503503 0.516389
