OFF
256 0 0
-0.476684 -0.631460 0.146936
-0.836970 0.123775 0.530016
-0.854842 -0.265219 0.144835
-0.478109 -0.630563 0.146291
0.342966 0.564852 -0.249725
-0.405281 0.533542 -0.234016
0.694681 0.544390 0.147935
-0.479134 -0.631789 0.146400
0.350445 -0.611081 0.136971
-0.854635 -0.263493 0.145644
-0.084052 -0.596691 -0.237414
-0.083487 -0.596683 -0.235904
0.318922 -0.621734 -0.605583
-0.437307 0.499976 0.538406
-0.854575 -0.263671 0.145789
-0.092333 -0.245087 -0.633872
0.698068 0.544000 0.145719
-0.053138 0.543817 -0.618065
-0.025247 0.533223 0.165112
-0.012286 0.166049 0.559429
-0.784206 0.538745 0.163390
0.335976 0.574458 0.565307
-0.823712 0.137879 -0.224836
-0.823943 0.137839 -0.221295
0.718235 -0.249188 -0.616647
-0.054828 0.544404 -0.619163
0.713138 -0.212897 0.153035
0.319229 -0.622179 -0.605524
-0.083922 -0.599192 -0.236887
-0.437835 0.498017 0.537782
0.342645 -0.229186 0.535678
-0.787093 0.540541 0.163067
-0.027731 0.534286 0.164907
-0.435810 0.162221 -0.649940
0.342023 0.565248 -0.250117
0.348575 -0.609926 0.135072
0.342380 -0.228669 0.534964
-0.822821 0.140395 -0.223756
0.728528 -0.637703 -0.204308
0.344005 0.565242 -0.249730
-0.406834 0.531690 -0.236900
-0.028099 0.532394 0.165098
-0.436681 0.164053 -0.648711
-0.427212 -0.211865 0.508639
-0.026626 0.536330 0.163929
-0.480137 -0.633140 0.145908
-0.436976 0.163049 -0.649098
0.341701 0.566693 -0.248027
0.328894 0.134500 -0.656843
0.712458 -0.213374 0.151389
-0.012858 0.162367 0.558627
-0.083440 -0.599248 -0.237132
-0.092144 -0.244322 -0.634344
-0.854566 -0.264214 0.144293
-0.824180 0.137479 -0.226598
0.329371 0.134369 -0.655266
-0.054831 0.546063 -0.618849
-0.025629 0.534550 0.164766
-0.068493 -0.621795 0.539225
-0.435956 0.165243 -0.649610
-0.448160 -0.231295 -0.210302
-0.405433 0.531080 -0.237142
-0.478803 -0.631178 0.147341
-0.084520 -0.598025 -0.235184
-0.785546 0.538576 0.163365
0.341030 0.565196 -0.250262
-0.426724 -0.209662 0.509572
-0.052877 0.546089 -0.617801
-0.026866 0.533467 0.166458
-0.478579 -0.631832 0.147461
-0.822913 0.137992 -0.223981
-0.067872 -0.622467 0.539649
0.329456 0.132813 -0.654828
-0.785399 0.539575 0.163506
-0.823701 0.139601 -0.224983
-0.085407 -0.596922 -0.237780
-0.477491 -0.630104 0.146150
0.350951 -0.610601 0.135778
0.729773 -0.638218 -0.202618
-0.085415 -0.597335 -0.236746
-0.084401 -0.597440 -0.235743
-0.091350 -0.244815 -0.633161
0.719114 -0.248822 -0.619273
-0.052341 0.543263 -0.616987
-0.825184 0.138846 -0.222928
0.717599 -0.247428 -0.619313
-0.436044 0.164099 -0.650209
0.342739 -0.230099 0.534350
-0.426214 -0.208235 0.509622
-0.823037 0.138174 -0.223720
-0.436660 0.164278 -0.648265
-0.479713 -0.630506 0.147976
0.695852 0.543763 0.148114
-0.082374 -0.600508 -0.238554
-0.449485 -0.234393 -0.210408
-0.013582 0.164874 0.560437
0.694897 0.544632 0.147312
-0.010663 0.164001 0.558925
0.329596 0.134109 -0.655058
-0.856033 -0.264248 0.144585
-0.054651 0.545307 -0.618568
-0.012637 0.164952 0.555525
-0.449228 -0.232346 -0.211868
-0.426275 -0.208887 0.508425
-0.011918 0.164692 0.557153
-0.067683 -0.621250 0.538337
0.341924 -0.229117 0.536110
-0.402948 0.532314 -0.237323
-0.054835 0.547105 -0.619174
-0.053262 0.543012 -0.617832
0.315784 -0.621486 -0.603710
0.712586 -0.212478 0.154488
-0.403640 0.532996 -0.239118
-0.090625 -0.245287 -0.633990
0.348659 -0.609651 0.135002
0.348376 -0.609364 0.136347
0.728716 -0.638520 -0.204800
-0.083408 -0.597676 -0.236895
-0.448419 -0.232652 -0.211414
0.337029 0.575151 0.566028
0.714164 -0.211937 0.153409
-0.402445 0.532758 -0.236111
0.341801 -0.230724 0.535845
-0.824137 0.137337 -0.225331
-0.447713 -0.232449 -0.210401
0.317971 -0.622064 -0.608310
0.714563 -0.212121 0.153350
0.718479 -0.246822 -0.617987
0.698192 0.140173 -0.241321
-0.082130 -0.596602 -0.236006
0.701344 0.164859 0.551847
0.730417 -0.638521 -0.201160
-0.436487 0.163002 -0.650422
0.695669 0.545341 0.146573
-0.093284 -0.244162 -0.633846
0.340925 0.565339 -0.251426
0.348589 -0.610943 0.135381
-0.405447 0.531135 -0.236251
-0.092027 -0.245104 -0.632862
0.701812 0.162186 0.549497
0.718796 -0.247877 -0.617688
0.349179 -0.609057 0.136410
-0.404587 0.531543 -0.236482
0.702462 0.164437 0.547400
0.329420 0.135463 -0.656603
-0.404517 0.532051 -0.237953
0.698389 0.139483 -0.240520
-0.438736 0.498590 0.540989
0.336147 0.574511 0.567017
-0.082406 -0.598599 -0.237164
0.713603 -0.212024 0.152669
0.342061 0.564823 -0.250508
-0.428279 -0.209976 0.509532
0.318092 -0.622176 -0.606644
-0.084205 -0.598266 -0.238486
0.350547 -0.611574 0.135219
0.342679 -0.229452 0.535238
-0.026685 0.533825 0.165848
-0.784520 0.541429 0.163798
0.341016 0.564683 -0.249822
0.340501 -0.230328 0.534481
0.348557 -0.610807 0.136502
-0.839011 0.121888 0.531961
-0.428210 -0.208155 0.508313
0.336719 0.573542 0.566329
-0.435887 0.163367 -0.650202
0.695639 0.543648 0.148822
0.342585 0.566827 -0.251410
-0.084472 -0.599590 -0.236035
-0.012021 0.161829 0.557588
0.328581 0.132847 -0.655585
0.729284 -0.637936 -0.202837
0.335650 0.574994 0.564402
0.695842 0.544662 0.146509
0.337398 0.575803 0.566932
0.335500 0.574422 0.565283
0.334602 0.574859 0.565321
0.328707 0.134375 -0.654226
-0.012360 0.163844 0.558252
-0.447552 -0.234126 -0.212078
0.728584 -0.637127 -0.200633
0.730531 -0.639430 -0.202608
0.341810 0.564778 -0.251071
-0.012251 0.163481 0.558331
-0.012544 0.161837 0.557406
-0.092043 -0.244891 -0.633468
-0.438401 0.499861 0.541281
-0.052197 0.545838 -0.618963
0.336272 0.573870 0.564760
-0.438101 0.163088 -0.650070
-0.428269 -0.209262 0.510006
0.714438 -0.213353 0.151753
0.317420 -0.622342 -0.607102
-0.085001 -0.597286 -0.236905
0.349508 -0.611834 0.135270
-0.083667 -0.597430 -0.236085
-0.479947 -0.632506 0.146518
0.347777 -0.611226 0.135668
0.343563 -0.231056 0.534002
-0.403461 0.533247 -0.236539
-0.066880 -0.622675 0.541015
0.700734 0.163334 0.547945
-0.446579 -0.234110 -0.208858
-0.066512 -0.620627 0.540413
0.695428 0.544858 0.148009
-0.083681 -0.598603 -0.236985
-0.437011 0.163689 -0.650387
0.318317 -0.621911 -0.606816
-0.835912 0.122736 0.532530
0.330015 0.133262 -0.652821
-0.027794 0.531630 0.165559
0.698082 0.137420 -0.240595
-0.403694 0.533461 -0.234548
0.334705 0.573711 0.565864
-0.837269 0.122576 0.532413
-0.438586 0.499223 0.540986
-0.066583 -0.622629 0.539333
0.342522 -0.229875 0.536040
-0.838596 0.123135 0.531522
-0.080887 -0.598231 -0.236419
-0.012422 0.163605 0.558783
0.328666 0.134006 -0.653727
0.699638 0.141236 -0.239592
0.318517 -0.622720 -0.605191
-0.012077 0.163714 0.559514
0.718825 -0.247160 -0.617301
-0.825623 0.139926 -0.224881
-0.093325 -0.244553 -0.633207
-0.438074 0.498478 0.540133
0.349929 -0.609471 0.133989
-0.405204 0.533292 -0.237063
0.342544 -0.228787 0.535718
0.719807 -0.249545 -0.617801
0.696310 0.140426 -0.239295
-0.093606 -0.244961 -0.633779
0.341435 -0.229530 0.536395
0.728280 -0.637546 -0.201761
-0.822664 0.136490 -0.223894
0.330071 0.136450 -0.655552
-0.404328 0.532962 -0.235370
-0.083595 -0.597573 -0.236931
-0.438590 0.499300 0.540515
-0.434447 0.163221 -0.651159
-0.478433 -0.631152 0.146168
0.340682 0.567403 -0.250219
-0.449231 -0.231609 -0.211945
0.729271 -0.637006 -0.204692
-0.091041 -0.243492 -0.633476
0.694047 0.544009 0.146407
-0.083166 -0.596530 -0.238324
0.342981 -0.231116 0.534248
0.333309 0.574727 0.566203
-0.784901 0.540336 0.164227
-0.027406 0.533395 0.164850
-0.053769 0.544735 -0.617674
-0.837911 0.124040 0.530737
