OFF
256 0 0
0.230615 -0.677645 -0.250491
-0.636055 0.679101 0.228714
-0.657099 0.242314 -0.238819
-0.198413 -0.223741 0.697562
0.226981 0.702246 0.222688
0.213663 0.248202 0.688950
-0.260767 -0.702560 -0.659401
0.662926 -0.655929 0.232882
0.662340 -0.655197 0.233936
-0.228233 0.680122 0.693702
0.217186 0.632384 -0.693251
-0.198239 -0.223762 0.699832
-0.658236 -0.217282 -0.691422
-0.198121 -0.224795 0.697326
-0.668548 -0.247689 0.234273
0.211652 0.247700 0.690793
0.212330 0.248672 0.690874
0.661756 -0.230446 -0.229390
-0.260622 -0.698961 -0.659966
-0.636229 0.679811 0.228132
0.650634 0.672487 -0.210916
-0.225300 0.682212 0.696750
0.649906 0.674514 -0.210574
0.230263 -0.678401 -0.249653
0.660243 -0.655900 0.233334
-0.693185 -0.679422 -0.228252
0.227127 -0.674951 0.684113
0.229556 0.702109 0.224615
-0.636149 0.680452 0.226876
-0.228786 0.234220 -0.677438
0.662761 0.210636 -0.672881
-0.228092 0.681265 0.694907
-0.260289 -0.699452 -0.660284
0.658632 -0.223513 0.681210
-0.657854 -0.215771 -0.692099
0.660085 -0.229789 -0.228406
0.229979 -0.677689 -0.250354
0.662076 -0.656011 0.233178
-0.693790 -0.679486 -0.227465
0.662365 -0.656120 0.231437
0.660106 -0.654913 0.234095
-0.658342 -0.217572 -0.691388
-0.657374 0.240436 -0.236474
-0.648171 0.178891 0.662839
0.648987 0.673258 -0.212129
-0.669350 -0.249701 0.233625
0.211104 0.247129 0.690733
-0.212861 -0.647517 0.202376
0.659158 -0.230025 -0.228019
-0.226072 0.680436 0.694084
0.226783 0.701864 0.223037
-0.659821 0.239860 -0.237997
-0.668998 -0.249184 0.232459
-0.207122 0.693472 -0.227262
-0.259816 -0.701197 -0.660557
0.658777 -0.227460 -0.228228
0.658437 -0.229640 -0.228778
0.661099 -0.226320 0.680162
0.659127 -0.229101 -0.228118
-0.636661 0.679916 0.227923
-0.208959 0.693925 -0.226318
-0.230248 0.235227 -0.677492
-0.636422 0.679840 0.228255
0.657557 -0.230189 -0.227107
0.657798 -0.228998 -0.228332
-0.198206 -0.224963 0.699801
0.212707 0.248079 0.690205
0.217803 0.631657 -0.693211
-0.671166 -0.247761 0.233656
-0.228450 0.234924 -0.675049
-0.658988 0.241128 -0.237827
-0.658857 -0.217464 -0.692940
-0.210858 0.691630 -0.227086
-0.211205 -0.645411 0.201751
-0.230407 0.233677 -0.675856
-0.229063 0.233142 -0.676955
0.660498 -0.229544 -0.227209
-0.659778 0.238894 -0.239886
-0.230542 0.235142 -0.675606
0.650485 0.673288 -0.210510
0.651033 0.672600 -0.211368
-0.692318 -0.678948 -0.227079
-0.226123 0.682570 0.695384
0.226150 0.702351 0.223027
0.661637 0.212848 -0.670377
0.661551 -0.223549 0.682656
0.662825 -0.656514 0.233549
-0.670170 -0.248877 0.234825
-0.691929 -0.678923 -0.225275
0.650221 0.672077 -0.209808
-0.229906 0.236198 -0.675997
0.229834 -0.241746 -0.697397
0.228732 0.702361 0.223522
-0.649038 0.179072 0.663835
0.216230 0.632152 -0.693087
0.213465 0.249942 0.691327
0.212696 0.248140 0.691609
0.223261 -0.677595 0.684171
0.662550 -0.656111 0.234512
-0.228572 0.235354 -0.676162
-0.659063 -0.216383 -0.691628
-0.647256 0.177347 0.660949
-0.658856 -0.218856 -0.691257
-0.198590 -0.225275 0.696498
-0.637415 0.678761 0.227626
-0.209351 0.692626 -0.226483
0.211825 0.247630 0.690356
0.648836 0.674258 -0.211879
0.231535 -0.241365 -0.694870
-0.645862 0.177421 0.662358
0.218174 0.633171 -0.693350
0.649016 0.676516 -0.212476
0.230177 -0.242183 -0.697306
-0.669812 -0.249065 0.234986
-0.209021 0.691292 -0.226535
0.227035 0.701789 0.221816
0.229597 0.699775 0.221985
-0.208348 0.692762 -0.225534
0.661911 -0.653869 0.233415
0.218278 0.633564 -0.692211
-0.669875 -0.247985 0.232632
0.230957 -0.675916 -0.251367
0.662593 0.212158 -0.671280
0.222893 -0.677249 0.684188
-0.648302 0.177838 0.663657
-0.225134 0.681684 0.695361
0.665801 0.246754 0.240694
-0.260126 -0.701183 -0.662325
0.211403 0.246913 0.689725
0.660423 -0.228582 -0.228336
-0.226253 0.682135 0.696044
-0.648576 0.177047 0.662451
0.662734 -0.656065 0.232042
-0.199473 -0.223596 0.697764
0.213408 0.247154 0.690302
-0.227165 0.683765 0.695886
-0.658003 -0.217055 -0.693152
0.663320 0.211064 -0.671934
-0.646880 0.177704 0.662535
-0.260387 -0.701638 -0.659033
0.227925 -0.679100 -0.249454
-0.693634 -0.679065 -0.224770
0.664361 0.246977 0.239859
-0.197832 -0.225880 0.696499
0.662269 0.212718 -0.670767
0.657743 -0.224625 0.682616
-0.227682 0.236090 -0.677134
-0.208882 0.692794 -0.225504
0.230144 -0.242535 -0.696403
0.229979 -0.241835 -0.697010
-0.197495 -0.225872 0.695918
-0.668561 -0.248063 0.235417
0.660327 -0.228005 -0.227787
0.229418 -0.243330 -0.697077
-0.226906 0.682688 0.694926
-0.199975 -0.224206 0.696796
0.662111 -0.654931 0.232505
0.230022 -0.676694 -0.248126
0.218424 0.632670 -0.692473
0.230400 -0.240385 -0.696940
-0.226219 0.682740 0.695332
0.660046 -0.229457 -0.228742
0.658914 -0.229348 -0.226784
-0.224446 0.682231 0.696155
-0.660147 -0.216447 -0.691717
0.229334 -0.240582 -0.695403
-0.211326 -0.645446 0.201198
0.230417 -0.240795 -0.697229
0.649790 0.673035 -0.211555
-0.659200 0.239639 -0.237949
0.650173 0.673513 -0.213709
0.660117 -0.228659 -0.229197
0.229061 -0.677074 -0.249899
0.659619 -0.225424 0.679998
0.662285 0.213638 -0.672933
0.661742 0.212522 -0.672186
-0.656812 -0.217869 -0.691818
-0.668810 -0.249536 0.237812
-0.659675 0.239173 -0.237682
-0.211342 0.691402 -0.226447
-0.658684 -0.217057 -0.690969
-0.635095 0.680673 0.226384
0.223880 -0.677584 0.684418
-0.648058 0.176525 0.663494
-0.197355 -0.221705 0.697000
-0.211614 -0.646938 0.201948
0.229047 -0.242370 -0.695966
0.231523 -0.243542 -0.698288
-0.669744 -0.247107 0.235201
-0.230636 0.233086 -0.676130
0.660523 -0.228420 -0.228806
0.662537 0.212500 -0.672528
-0.646014 0.176290 0.661749
-0.198356 -0.225790 0.697864
0.228970 -0.677261 -0.248249
0.230457 -0.678562 -0.248662
-0.646385 0.178829 0.662390
0.650678 0.674478 -0.212525
-0.637446 0.680582 0.227501
-0.637350 0.679419 0.227420
-0.658410 0.239740 -0.239795
-0.647478 0.179106 0.662310
0.651774 0.671911 -0.210165
-0.649212 0.178021 0.660375
0.660852 -0.657725 0.233991
0.664313 0.213105 -0.672615
-0.226365 0.681194 0.695026
0.212930 0.247005 0.692485
0.661491 -0.225184 0.680600
0.663372 0.245914 0.239648
-0.228012 0.234172 -0.676698
-0.261812 -0.700979 -0.660352
0.230073 -0.241907 -0.696088
-0.659152 -0.217397 -0.692465
-0.198468 -0.223913 0.697277
0.229192 -0.679478 -0.249283
-0.659828 0.239270 -0.238120
0.650101 0.673300 -0.212276
0.662417 -0.656632 0.232094
-0.636439 0.678957 0.227007
0.663285 0.210897 -0.671806
0.648014 0.675581 -0.210454
-0.228593 0.235483 -0.676800
0.663747 0.247640 0.240274
0.229605 -0.243501 -0.696135
-0.635728 0.679925 0.227873
0.662230 0.247815 0.239862
-0.228018 0.682314 0.693992
-0.225293 0.683185 0.694597
0.663800 0.212469 -0.672581
0.659121 -0.227400 -0.229442
0.213553 0.246311 0.692026
0.660938 -0.226179 0.680349
-0.691701 -0.679046 -0.224611
-0.659740 -0.216969 -0.692166
0.659690 -0.229128 -0.229281
-0.211776 -0.644897 0.200555
0.663108 0.247490 0.237077
-0.208763 0.690701 -0.226602
-0.636988 0.680708 0.229176
0.658414 -0.230539 -0.230329
-0.210790 -0.644001 0.202136
-0.692752 -0.678369 -0.226890
0.223829 -0.677411 0.683187
-0.230693 0.234477 -0.674488
0.231948 -0.677933 -0.249523
-0.226227 0.680764 0.696933
0.658455 -0.229746 -0.229776
0.664225 0.212037 -0.672440
0.661070 -0.230028 -0.228791
0.663237 0.247054 0.238026
-0.649357 0.178606 0.660641
-0.636699 0.678222 0.229202
0.663872 0.246761 0.240600
0.229849 -0.677696 -0.248477
0.212892 0.248335 0.689677
