OFF
256 0 0
-0.322118 0.001332 0.850435
0.101764 -0.424690 0.848491
-0.323643 -0.424415 0.424212
0.525721 0.849587 0.000905
0.526867 0.000594 -0.851764
-0.322009 0.849912 0.000267
0.527876 -0.849911 -0.000591
-0.323628 0.850300 0.001027
0.103049 -0.423590 -0.850666
-0.748020 0.000345 -0.425242
0.102768 0.423893 -0.848648
-0.322685 0.425154 0.424399
-0.322461 0.850389 -0.001648
-0.322143 -0.425508 -0.422237
-0.322100 -0.425019 0.424065
0.526353 0.000344 0.846793
0.103540 0.425715 -0.848695
0.102347 -0.424336 0.848423
-0.747672 0.001244 0.424355
-0.747214 0.425487 -0.000346
0.526935 0.001713 -0.849273
-0.322822 0.848714 -0.000225
-0.321499 -0.424734 -0.425765
0.528295 0.848214 -0.000742
0.101945 0.850696 -0.423657
-0.746890 0.000412 0.425703
0.526885 -0.850802 0.001654
0.529017 0.424509 -0.425039
-0.747472 0.424332 -0.000120
-0.747792 0.425521 -0.000969
-0.323322 0.848698 0.000589
0.101536 -0.852318 0.425684
0.527747 0.423724 -0.424145
-0.322106 -0.850758 0.000682
-0.747297 0.424390 -0.000495
-0.321307 -0.425187 0.425083
0.103060 -0.849511 -0.423871
0.102470 0.426006 -0.849262
0.104342 0.849631 0.424648
-0.319709 0.850422 0.000260
-0.746540 -0.423801 0.000352
0.103803 0.425083 0.850148
0.102298 -0.424811 -0.850174
0.101938 -0.424765 0.850423
-0.323533 -0.425261 -0.426768
-0.321772 0.426381 -0.423438
-0.745798 0.000788 0.422669
0.527289 -0.851024 -0.000040
-0.747929 -0.424126 0.000452
0.526343 -0.000239 0.850398
-0.321694 0.851020 -0.000705
-0.322284 -0.001271 0.851561
0.525611 0.000042 0.000334
0.528018 -0.425244 -0.423824
0.527229 0.849856 0.003344
0.102036 0.849757 -0.425054
-0.321865 -0.424950 -0.425038
0.527340 0.425211 -0.424359
0.103919 -0.849849 -0.423564
0.528619 0.425353 0.425269
0.527770 -0.850160 -0.001542
-0.321602 0.001442 0.849788
0.526329 -0.425856 -0.424775
-0.747799 -0.000104 0.425499
0.528839 -0.850298 -0.001760
0.102887 0.851044 -0.425148
-0.746699 -0.425777 0.000757
-0.748043 -0.000065 -0.424533
0.102618 0.849985 -0.426052
0.526835 0.850986 0.001621
-0.323022 0.426174 -0.423938
-0.323126 0.850174 -0.000657
0.528273 -0.425689 0.424212
-0.321899 -0.849087 0.000037
-0.321557 0.850233 0.001162
-0.322877 -0.424815 -0.422334
-0.321424 0.000308 -0.850350
0.526968 0.424739 -0.424409
0.102406 -0.848040 -0.425141
0.104347 0.423991 0.850228
0.526375 0.425240 -0.423606
0.102181 0.426227 0.848873
0.525170 -0.000025 -0.000479
0.103510 0.850360 -0.424594
-0.747433 -0.000123 0.424914
-0.321671 0.001049 -0.848942
-0.321167 -0.424565 -0.425348
-0.322858 -0.425560 0.426728
0.529461 -0.425505 0.425655
-0.748802 -0.426301 0.002999
0.526762 -0.850024 0.000440
-0.321779 0.425356 0.424573
-0.320718 -0.425063 -0.425248
0.102086 -0.425330 -0.848279
0.104485 0.426437 0.850978
-0.321650 -0.001046 0.849319
-0.747302 -0.425249 0.000607
0.529171 0.850344 -0.000633
-0.747153 -0.425152 -0.000216
0.102217 -0.848985 0.425074
0.100451 0.424958 0.848522
-0.747568 -0.000681 -0.425941
-0.748063 0.001665 0.426697
-0.321232 0.000800 0.850822
0.528964 -0.000301 0.848211
-0.323945 0.848791 -0.000205
0.103119 0.850665 0.425483
-0.320418 -0.848702 0.000234
-0.321940 -0.425077 -0.424927
0.525962 -0.001431 0.000230
0.527831 -0.849675 0.002009
0.103093 -0.847763 -0.424683
0.103125 0.423718 0.849546
0.102495 0.425816 0.848654
0.528426 -0.423796 0.425043
0.527086 -0.849512 -0.002155
-0.748341 -0.425723 0.000537
-0.321891 0.425406 0.425315
0.104246 0.849219 -0.425349
-0.321797 0.425567 -0.424056
0.528223 0.423920 -0.425716
0.526631 0.849942 0.000134
-0.320899 0.848060 -0.000425
-0.322338 0.424775 0.423564
-0.322410 0.424870 0.423883
0.526221 -0.424106 -0.424211
0.527936 -0.424384 -0.425663
-0.322371 0.000304 -0.848905
-0.745417 0.423939 0.000412
0.527536 -0.848361 -0.000877
0.527893 -0.000149 0.849057
-0.746217 0.425716 -0.000108
0.525549 -0.425441 0.426324
-0.746135 0.001283 0.425804
0.525703 -0.000338 0.849133
0.101256 -0.422759 0.850013
0.102379 -0.849459 -0.425171
0.103418 -0.847684 -0.425983
0.526585 0.425526 -0.427080
0.101725 0.848855 -0.425903
-0.747923 -0.000730 -0.424729
0.525146 -0.000990 0.000454
-0.746913 -0.000772 -0.423482
0.526663 0.000204 0.850223
-0.747537 0.423489 0.000358
-0.322715 -0.849899 0.000692
-0.323216 0.425550 -0.425988
-0.322143 -0.424248 0.426551
0.525298 0.850014 -0.001684
0.528508 0.424540 -0.423812
0.527238 0.424459 0.425332
0.102094 0.849894 0.424828
0.102511 -0.426832 -0.850041
-0.323019 0.849762 -0.000758
-0.322176 0.424838 -0.424720
-0.747904 -0.425399 -0.000155
-0.323353 0.425148 -0.423841
-0.321328 -0.423362 -0.424767
-0.321672 -0.426175 0.424098
0.101689 0.850521 0.424182
0.527825 0.424480 0.426064
0.529010 0.850148 0.000559
0.101744 -0.424538 0.849733
-0.322297 -0.424234 -0.425663
0.102942 -0.424773 -0.848539
-0.322971 0.425625 -0.423132
-0.747369 0.424224 0.000348
0.527482 -0.000694 0.849583
0.103619 -0.851038 -0.424723
-0.748949 -0.425842 0.000425
0.526158 0.424366 -0.424328
0.101662 0.425855 0.849011
0.527892 0.849385 0.000480
-0.320538 0.848975 0.000847
0.103222 0.425951 0.850031
0.102391 0.847992 -0.424669
0.103162 -0.850864 -0.425585
0.527713 0.426087 -0.425088
-0.321169 -0.848322 -0.001014
0.101808 0.848828 -0.424965
-0.747433 -0.001494 0.423671
0.528478 -0.849538 -0.000418
0.100697 -0.848809 0.425116
-0.322894 -0.424402 0.425380
0.101412 -0.849429 -0.424880
-0.320912 -0.848934 -0.000723
0.103242 -0.850313 -0.425049
-0.322327 -0.426804 0.424538
-0.322974 0.423178 -0.425673
0.101892 0.850517 0.424125
0.525743 0.423604 0.424646
0.527239 -0.423495 -0.424362
0.525809 0.427305 0.425066
0.527833 0.424931 0.425942
-0.322489 0.423399 0.424235
0.526522 -0.423445 0.425251
-0.322923 0.424043 0.423372
-0.321958 -0.425831 0.424959
0.102659 0.424847 0.849334
0.101901 -0.425021 -0.850948
-0.325074 -0.423505 0.424567
-0.321017 -0.000996 0.847318
-0.323105 -0.849961 0.001840
-0.321566 -0.424121 -0.424829
0.101079 -0.425806 0.849177
0.103962 -0.848668 -0.424571
0.528367 -0.425408 0.423636
0.102272 0.425232 -0.849868
0.102413 0.849183 0.425450
0.529742 -0.000718 -0.847739
0.526371 0.000052 -0.000110
-0.747119 -0.000917 -0.424987
0.528032 0.423266 0.423911
-0.321599 -0.848384 -0.000146
-0.322999 -0.850985 -0.001207
0.101222 -0.424126 -0.849253
-0.746263 0.000593 0.423904
0.527358 0.000892 0.848763
0.102052 -0.424426 -0.849877
-0.746952 0.000811 0.424718
0.527217 0.424812 -0.424760
-0.746983 -0.425048 -0.001684
0.525993 0.000944 0.000162
0.102829 0.849430 -0.423169
0.526558 0.000484 0.849232
-0.745587 0.000638 0.425771
0.526023 -0.850054 -0.001477
0.103097 0.425015 0.849870
0.102700 -0.850527 -0.425447
0.527245 0.423372 -0.426558
0.527360 0.001712 0.849125
-0.746915 0.425849 0.001819
0.103068 0.849298 -0.424469
0.527410 0.850346 0.000475
-0.320949 -0.850312 -0.000023
0.101018 -0.425645 -0.848459
-0.747688 -0.424596 -0.000828
-0.747483 -0.001326 0.424998
0.525945 -0.001130 -0.848729
-0.322714 -0.426160 -0.424709
-0.321559 -0.425223 -0.425695
-0.321372 0.000300 -0.847552
0.526726 0.000299 0.000267
-0.745688 -0.423820 -0.000355
0.529278 -0.000337 0.849058
0.528326 -0.423202 -0.426856
0.525907 0.424518 -0.424732
0.525742 0.848434 -0.000260
0.101849 -0.850006 -0.424371
-0.321728 0.424782 0.423269
0.526412 0.424807 -0.424905
0.102651 -0.848701 -0.424906
0.102231 0.424182 -0.851434
-0.323215 0.424525 0.424895
0.526611 -0.000205 0.851582
0.526940 -0.424863 -0.424876
