OFF
256 0 0
-0.679551 0.671304 -0.017450
-0.678285 0.669108 -0.016537
-0.691144 -0.690777 -0.012197
-0.673344 0.002664 -0.721203
0.003965 0.675047 0.696106
0.692273 -0.006759 0.719663
0.692451 -0.004404 0.718082
0.001614 0.675424 0.694565
-0.677724 0.671788 -0.019051
0.670758 0.011582 -0.649901
0.694114 -0.006945 0.717269
-0.014241 -0.675698 -0.697650
-0.678295 0.671037 -0.018868
0.669602 0.010679 -0.652569
-0.689925 -0.694769 -0.011921
0.669588 0.012021 -0.651253
0.645694 -0.693385 0.005868
-0.679326 0.670653 -0.017050
-0.006504 -0.686047 0.658979
0.645097 -0.693329 0.005847
-0.678132 0.670036 -0.018080
-0.677569 0.672479 -0.017014
-0.671542 0.002483 -0.721014
0.668687 0.009535 -0.650867
-0.005770 -0.685984 0.658082
-0.006340 -0.687465 0.658395
-0.013391 -0.676324 -0.696484
-0.011710 -0.678254 -0.696103
-0.689468 -0.694141 -0.012073
0.040496 0.682253 -0.708745
0.692829 -0.003487 0.717996
0.003212 0.676805 0.696577
-0.697596 0.021676 0.717866
0.671094 0.011278 -0.652052
-0.674065 0.002190 -0.721509
-0.680653 0.669948 -0.019716
0.041470 0.681385 -0.708145
-0.013367 -0.677056 -0.696850
-0.673169 0.002542 -0.721364
-0.675123 0.003079 -0.723731
-0.679356 0.671223 -0.017273
0.691974 -0.006122 0.719815
-0.680540 0.670082 -0.018881
0.707748 0.689658 0.012926
-0.005642 -0.686950 0.657121
-0.690842 -0.692585 -0.013429
0.041979 0.680111 -0.706480
-0.681207 0.672137 -0.016792
-0.690406 -0.692636 -0.013661
0.671052 0.009028 -0.651522
0.706642 0.689448 0.012918
-0.690662 -0.693173 -0.012228
-0.675488 0.002854 -0.719686
-0.679814 0.671598 -0.018224
-0.673486 0.000892 -0.720781
0.692882 -0.005924 0.717701
-0.012346 -0.674267 -0.698216
-0.673504 0.002639 -0.720245
-0.678395 0.672175 -0.019226
-0.690392 -0.692548 -0.013159
0.002163 0.677863 0.694732
0.646320 -0.693260 0.004509
0.692003 -0.004908 0.721554
0.671041 0.011143 -0.651746
-0.678518 0.669337 -0.017798
-0.673549 0.003465 -0.720531
0.041401 0.680301 -0.710067
-0.005721 -0.685626 0.659626
0.670077 0.011541 -0.652930
0.645638 -0.693058 0.006651
0.643687 -0.693132 0.004881
0.707886 0.691796 0.014947
0.707442 0.690253 0.014450
0.042629 0.682416 -0.709029
0.670005 0.011259 -0.649608
-0.680501 0.670199 -0.016512
-0.007125 -0.684903 0.657287
0.692123 -0.004298 0.719287
0.041494 0.681913 -0.709449
0.705761 0.689988 0.015333
-0.679614 0.670951 -0.016809
-0.006459 -0.688397 0.656984
0.004997 0.675690 0.695536
-0.688418 -0.692604 -0.014298
-0.012858 -0.678908 -0.697461
0.707054 0.690620 0.013914
-0.679395 0.672915 -0.017173
-0.678382 0.670210 -0.016336
-0.006612 -0.686701 0.658844
0.669324 0.011773 -0.650440
0.671561 0.010735 -0.651141
0.644477 -0.689800 0.004896
-0.690987 -0.692913 -0.013307
-0.672262 0.002120 -0.720455
0.692378 -0.004995 0.716952
-0.007256 -0.687155 0.658486
-0.008218 -0.685642 0.659081
0.671547 0.009389 -0.651479
-0.697558 0.019587 0.717005
-0.673534 0.002623 -0.722382
-0.697802 0.021779 0.715199
-0.013895 -0.675665 -0.696964
0.707936 0.693534 0.013609
-0.690498 -0.692972 -0.012610
0.670082 0.010529 -0.651512
0.002291 0.675704 0.696697
0.643626 -0.693125 0.007372
-0.696859 0.020357 0.716479
0.005098 0.675160 0.694056
0.692004 -0.007153 0.718332
0.644642 -0.691401 0.006939
0.645641 -0.693717 0.005854
-0.691080 -0.692095 -0.014605
0.002904 0.675672 0.695056
0.041783 0.682176 -0.706187
0.003607 0.675901 0.695285
-0.679560 0.669383 -0.018733
0.042380 0.680846 -0.710233
-0.678556 0.670010 -0.018028
0.692591 -0.005443 0.719828
0.042155 0.681555 -0.708519
-0.014437 -0.677517 -0.697063
0.706379 0.691894 0.014757
0.041195 0.682651 -0.708054
-0.672988 0.001689 -0.722070
0.647134 -0.691491 0.006624
-0.014087 -0.676003 -0.695907
0.040499 0.682535 -0.709430
-0.674448 0.004947 -0.721675
-0.673718 0.001774 -0.722533
0.002082 0.676731 0.694864
-0.678242 0.671341 -0.017196
0.707235 0.690342 0.013812
-0.690360 -0.691914 -0.012030
-0.671917 0.002375 -0.722554
-0.697657 0.020835 0.718975
0.707814 0.693974 0.012521
0.669915 0.010494 -0.649703
0.692715 -0.008492 0.718854
0.001667 0.675573 0.697965
0.707394 0.690329 0.014807
-0.012081 -0.676355 -0.696706
0.691609 -0.006788 0.717087
-0.013541 -0.676325 -0.696831
0.040443 0.682616 -0.707088
-0.688834 -0.691164 -0.015015
-0.689813 -0.690550 -0.012412
0.646776 -0.693352 0.008853
0.695035 -0.005245 0.717702
-0.672513 0.002866 -0.720648
-0.690343 -0.691642 -0.012548
-0.697777 0.018672 0.718291
-0.673033 0.003622 -0.721923
0.040865 0.683069 -0.709030
0.692703 -0.006456 0.719316
0.645458 -0.693235 0.007977
0.644640 -0.691300 0.007441
-0.677077 0.670585 -0.017873
0.643252 -0.690768 0.004561
0.002609 0.676437 0.695040
-0.014167 -0.676915 -0.695359
0.040328 0.681148 -0.708129
-0.672528 0.001916 -0.720974
0.708548 0.690990 0.012487
0.645381 -0.690203 0.007485
0.042548 0.682858 -0.705345
0.706157 0.691293 0.013535
-0.673312 0.003749 -0.720891
0.041499 0.680953 -0.710217
0.668440 0.009719 -0.649084
0.693560 -0.005654 0.719246
-0.004269 -0.686500 0.658298
0.002370 0.676738 0.696717
-0.014646 -0.677387 -0.697747
0.707691 0.688564 0.013097
-0.005471 -0.687768 0.659727
-0.698593 0.021916 0.715841
-0.014080 -0.676560 -0.698820
0.707788 0.691745 0.015023
0.708146 0.691970 0.013786
0.003878 0.675968 0.694323
-0.690161 -0.692909 -0.012951
0.001777 0.675911 0.695302
0.644904 -0.692401 0.006137
-0.674957 0.002156 -0.721498
-0.690395 -0.691921 -0.012132
-0.689347 -0.693332 -0.013546
-0.672647 0.003021 -0.722463
0.002823 0.677063 0.695739
0.671014 0.009953 -0.649259
0.040746 0.683143 -0.708433
-0.672003 0.002873 -0.721411
0.692982 -0.007394 0.718845
0.041596 0.682442 -0.708530
-0.675465 0.002286 -0.723738
0.707840 0.691125 0.015157
0.002001 0.675142 0.695660
0.643740 -0.690531 0.005830
0.692025 -0.005915 0.719561
-0.679757 0.670928 -0.019192
0.042809 0.681648 -0.707695
-0.679440 0.671940 -0.018243
0.644101 -0.691581 0.004329
-0.696070 0.021925 0.715913
-0.674568 0.001031 -0.720113
-0.006297 -0.685205 0.658752
0.645062 -0.692340 0.005079
-0.698095 0.022164 0.717487
-0.672481 0.002948 -0.721899
-0.678755 0.670958 -0.018181
0.670449 0.010217 -0.651355
-0.678154 0.670343 -0.015005
-0.678454 0.672287 -0.018447
0.692329 -0.003241 0.717757
0.645357 -0.692232 0.006297
-0.690510 -0.693723 -0.011688
0.001951 0.676105 0.695363
0.707453 0.690977 0.015236
-0.007884 -0.688478 0.656090
0.001572 0.676322 0.695714
0.706624 0.690180 0.014517
-0.006056 -0.685880 0.659466
0.668702 0.012077 -0.651440
-0.675074 0.001100 -0.722389
0.644964 -0.690744 0.005289
-0.673716 -0.000169 -0.722800
-0.014136 -0.677371 -0.696877
0.708275 0.690657 0.014171
0.644344 -0.690820 0.006316
0.643903 -0.690325 0.006327
-0.695946 0.019484 0.717181
-0.012434 -0.675529 -0.695848
-0.005513 -0.684797 0.658985
0.695162 -0.006375 0.717639
0.643549 -0.693290 0.005666
-0.005652 -0.688616 0.658391
0.670267 0.011802 -0.653109
-0.013564 -0.678572 -0.698741
0.669746 0.010705 -0.652225
-0.679670 0.672055 -0.018607
0.707243 0.689460 0.013747
-0.698775 0.023161 0.718587
-0.006223 -0.684829 0.657703
-0.013681 -0.679284 -0.696911
-0.674531 0.002364 -0.721458
0.692894 -0.003964 0.717721
-0.013671 -0.675359 -0.695822
-0.690836 -0.694039 -0.010542
-0.696275 0.019816 0.716352
-0.673578 0.002797 -0.722815
-0.689966 -0.693922 -0.011148
0.042149 0.681063 -0.708623
0.646856 -0.693470 0.006471
-0.695988 0.019503 0.717146
-0.005836 -0.687438 0.658095
-0.696628 0.019897 0.717350
