OFF
256 0 0
0.530244 0.841032 0.014899
0.451505 -0.396172 -0.425981
0.114649 0.401809 0.856307
0.085255 -0.416531 0.877616
0.507155 0.000827 -0.862042
0.101198 -0.458739 -0.864375
-0.746805 0.422076 0.006645
-0.299529 0.418174 -0.419048
0.086433 -0.417844 0.877011
0.513105 0.396271 -0.410925
-0.310768 0.877876 0.017879
-0.312457 0.875827 0.018134
0.512824 0.397637 -0.410920
0.089132 -0.845917 -0.439819
0.483524 -0.842790 -0.019623
-0.747698 0.424204 0.005024
-0.319700 0.447257 0.405952
0.520773 0.428111 0.416892
-0.730977 -0.022004 0.424601
-0.767303 -0.477383 -0.013392
0.086208 -0.846739 -0.440871
-0.298144 0.418612 -0.417888
0.524023 -0.416445 0.438653
0.114386 0.405058 0.858088
0.513181 0.399655 -0.412745
0.522979 -0.414674 0.438312
0.138543 0.441589 -0.854156
0.100005 -0.457312 -0.866361
0.127913 0.861569 0.425838
-0.299057 0.418194 -0.418711
-0.320973 0.446912 0.406560
-0.282537 -0.391509 -0.407847
0.452597 -0.396261 -0.423680
0.484254 -0.843662 -0.019982
0.523275 -0.415862 0.439039
0.100567 -0.458797 -0.863981
-0.315899 -0.008938 0.847124
-0.746856 0.423926 0.007430
-0.324243 -0.852810 -0.014574
0.511068 0.397191 -0.412718
0.452407 -0.394863 -0.424680
-0.297700 0.417661 -0.417645
0.452304 -0.395670 -0.425086
0.139690 0.441839 -0.854574
-0.321724 0.445800 0.406676
0.113855 0.401935 0.856192
-0.320745 -0.414905 0.366341
-0.296414 0.418591 -0.417934
0.483293 -0.842721 -0.019946
0.123305 0.862302 0.426890
0.538824 -0.021705 0.012051
0.526872 0.007221 0.845413
0.512435 0.396745 -0.411318
-0.282122 -0.392971 -0.407983
0.527810 0.005221 0.846545
0.527367 0.007583 0.845089
0.539272 -0.024191 0.011973
0.085946 -0.846746 -0.438568
0.531150 0.841780 0.013940
0.124180 0.859022 0.427029
-0.298773 0.417138 -0.417619
0.104972 0.841412 -0.425756
0.484617 -0.840902 -0.019731
-0.282946 -0.392467 -0.407421
0.124441 0.862355 0.428497
0.450430 -0.396770 -0.423606
0.120201 -0.833504 0.439661
0.514328 0.397114 -0.411900
-0.322781 -0.416561 0.365244
-0.323061 -0.416790 0.366659
0.100887 -0.457891 -0.865486
-0.311383 0.875165 0.016190
0.521601 -0.415771 0.438675
-0.767385 -0.478013 -0.012175
0.086992 -0.847346 -0.438485
-0.734317 -0.020248 0.425197
0.522959 -0.415989 0.439680
0.484159 -0.843523 -0.020009
0.451256 -0.397443 -0.425264
-0.770076 -0.476902 -0.011691
-0.323425 -0.851590 -0.016176
-0.318986 0.447081 0.406414
0.508416 0.000849 -0.861873
-0.314668 -0.008056 0.848286
-0.313410 0.010886 -0.831366
-0.296276 0.418318 -0.417660
0.539101 -0.020620 0.010801
-0.312246 0.877038 0.017345
0.105208 0.842932 -0.423791
-0.280725 -0.390631 -0.406148
0.538397 -0.022730 0.011137
0.083954 -0.417718 0.878799
0.511338 0.397729 -0.413483
0.102149 -0.457586 -0.866088
-0.733508 -0.022076 0.425161
-0.310622 0.876827 0.015679
0.507157 0.000734 -0.860183
-0.319886 0.445852 0.406469
-0.747690 0.422734 0.006470
-0.322169 -0.415138 0.366221
0.085667 -0.416756 0.878389
0.086231 -0.418413 0.877864
0.522989 0.427871 0.418143
-0.316089 -0.008555 0.847901
0.084741 -0.417420 0.879168
0.510154 0.397642 -0.412346
-0.322988 -0.415689 0.364546
0.103184 0.838764 -0.425792
0.138387 0.441764 -0.855122
-0.734511 -0.021219 0.424176
0.508748 0.002329 -0.861574
0.483182 -0.840975 -0.019807
0.521955 0.426655 0.417984
0.099877 -0.456880 -0.863669
0.101488 -0.455985 -0.863643
0.086641 -0.845076 -0.439513
0.119021 -0.834971 0.440042
-0.280059 -0.390695 -0.405077
0.449555 -0.398563 -0.425851
0.452764 -0.397384 -0.424763
-0.312026 0.875823 0.017025
0.531696 0.006613 0.845942
0.082764 -0.419891 0.878559
0.521911 0.427235 0.418195
0.125799 0.860370 0.427164
0.484187 -0.842166 -0.019554
0.124800 0.863048 0.428725
0.087624 -0.846795 -0.438966
0.521068 0.427617 0.418370
0.114644 0.405085 0.857397
0.527088 0.007683 0.845052
0.105970 0.842130 -0.426174
-0.735100 -0.021449 0.425892
0.114120 0.403415 0.859191
0.539612 -0.022976 0.012781
-0.313821 0.011647 -0.832732
0.539240 -0.023405 0.013381
0.527923 0.006874 0.846448
-0.316058 -0.007227 0.845157
0.105006 0.839356 -0.425271
0.119696 -0.833497 0.439807
0.452114 -0.395436 -0.423252
-0.768331 -0.476944 -0.011704
0.530724 0.839305 0.014093
-0.322537 -0.413783 0.366483
-0.298598 0.419633 -0.418061
-0.309781 0.875309 0.016273
0.507800 0.001131 -0.861193
0.522026 -0.415472 0.438089
0.107799 0.841094 -0.425847
-0.311517 0.874418 0.016551
-0.747548 0.422712 0.005387
-0.313588 0.013489 -0.832623
0.113357 0.403045 0.858315
0.138444 0.442316 -0.854606
-0.321649 -0.416230 0.364634
0.084762 -0.417476 0.879925
0.105775 0.840951 -0.423454
-0.312614 0.011435 -0.830817
0.508777 0.002222 -0.860990
0.105849 0.842287 -0.425702
0.522675 -0.418478 0.438715
-0.315536 -0.008531 0.846283
0.512528 0.396753 -0.412511
0.527990 0.005234 0.845260
0.125401 0.860947 0.428111
-0.284090 -0.392458 -0.406300
0.086933 -0.846057 -0.441015
0.521533 0.427741 0.415978
0.117742 -0.831449 0.442197
-0.734464 -0.023184 0.424232
0.524358 -0.415648 0.438214
-0.320478 0.447773 0.407977
-0.320790 -0.415002 0.365680
-0.751232 0.422564 0.007599
0.523432 0.426920 0.417917
0.107897 0.841338 -0.424302
-0.768244 -0.477044 -0.013486
0.450877 -0.396618 -0.424132
0.086723 -0.846802 -0.439673
-0.282528 -0.390802 -0.405460
0.113853 0.401004 0.859329
-0.748335 0.422294 0.005013
0.088910 -0.847682 -0.442046
0.540996 -0.022559 0.009983
0.513185 0.395992 -0.411531
0.527731 0.004790 0.845139
0.088716 -0.847208 -0.439738
-0.325573 -0.852278 -0.014519
0.137988 0.444777 -0.854060
-0.313371 0.013470 -0.833042
0.528685 0.005946 0.845971
-0.281283 -0.393470 -0.406760
-0.738962 0.001983 -0.408845
-0.310449 0.874993 0.017574
0.119941 -0.833867 0.440676
-0.312473 0.012220 -0.833072
0.526783 0.005914 0.845951
0.101022 -0.459032 -0.865989
-0.319224 0.444492 0.406191
-0.316011 -0.009539 0.846925
0.522643 -0.417403 0.438265
-0.280502 -0.391623 -0.405474
-0.320304 0.446428 0.406797
0.483913 -0.842343 -0.019867
-0.768862 -0.476650 -0.013587
0.539015 -0.021641 0.012405
0.526790 0.006973 0.845718
0.507015 0.004128 -0.863092
-0.320153 0.445362 0.407145
0.102887 -0.458520 -0.864021
0.513611 0.397641 -0.412147
0.138578 0.445022 -0.853084
0.513146 0.395178 -0.411908
0.087810 -0.846576 -0.439695
0.523002 0.427745 0.417779
-0.313091 0.013058 -0.832575
-0.746886 0.423297 0.006471
0.101140 -0.458284 -0.866129
-0.313480 0.011764 -0.834322
-0.296994 0.419876 -0.418940
-0.323363 -0.415827 0.365074
-0.298892 0.418258 -0.417815
0.451566 -0.397913 -0.426482
-0.747296 0.421291 0.007221
0.523705 0.429246 0.415876
0.100552 -0.457212 -0.865379
0.118405 -0.833811 0.442065
-0.297449 0.417245 -0.417636
0.523952 -0.416420 0.436889
0.123343 0.859971 0.426375
0.137023 0.442344 -0.854409
0.507586 0.001386 -0.861064
-0.282979 -0.391734 -0.407879
0.088909 -0.846752 -0.440296
-0.738745 0.002599 -0.410112
0.120572 -0.834253 0.440752
-0.312323 0.875400 0.014363
-0.281039 -0.390928 -0.404887
0.118624 -0.834173 0.442059
-0.733706 -0.021975 0.425488
-0.311541 0.011734 -0.834508
0.124923 0.860520 0.426863
0.528524 0.841819 0.015593
0.523205 -0.415382 0.437269
0.138225 0.442332 -0.853728
0.120337 -0.833713 0.440240
-0.748679 0.421893 0.006545
-0.767180 -0.472998 -0.013892
-0.297044 0.418773 -0.418169
0.116619 0.402483 0.856813
0.137355 0.441197 -0.852797
0.484426 -0.841867 -0.018629
0.504305 0.004132 -0.863040
0.509536 0.004255 -0.860423
0.124097 0.860980 0.427037
