OFF
256 0 0
0.089897 -0.429015 -0.861654
-0.297796 -0.849332 0.015898
0.089719 0.414524 -0.848820
-0.298958 -0.426300 -0.417356
-0.741461 -0.418510 -0.015717
0.099367 0.442879 0.845414
0.511016 0.439566 0.406615
0.090722 -0.428780 -0.863858
0.081349 -0.423501 0.867166
-0.300792 -0.426838 -0.418095
-0.300643 -0.427613 -0.416965
0.526515 0.850274 -0.034528
-0.738529 0.003184 0.438163
-0.731040 0.382876 0.014471
0.099605 0.442408 0.845951
0.090324 -0.428606 -0.863618
0.524224 0.849836 -0.035405
0.520818 -0.023504 -0.838684
-0.288166 -0.403874 0.418294
-0.736761 0.005646 0.436663
-0.283567 0.000644 -0.827331
-0.739982 -0.419960 -0.016877
0.114967 -0.856490 -0.407223
0.511956 0.438699 0.405647
-0.289452 -0.402621 0.416693
-0.300937 -0.427366 -0.418674
0.449267 0.022416 -0.013156
0.528643 0.009870 0.849540
0.099757 0.443065 0.846826
-0.301520 -0.427420 -0.416252
-0.728909 0.384296 0.014534
-0.325905 0.837285 -0.005115
0.118683 -0.859296 0.421237
-0.285010 0.000604 -0.827952
-0.723105 -0.015724 -0.397751
0.100079 0.441920 0.845976
-0.315262 0.021951 0.849099
0.088956 0.413128 -0.848642
0.536908 -0.826655 0.021678
-0.316443 0.020426 0.847974
-0.300128 -0.425366 -0.419687
-0.737856 0.002945 0.438386
0.527051 -0.437636 -0.408462
0.117442 0.840266 0.398989
-0.317505 0.020207 0.847775
-0.741509 -0.416321 -0.015240
0.090408 0.844611 -0.425925
-0.286150 -0.000512 -0.828962
-0.289037 -0.403828 0.415662
-0.283905 0.000037 -0.826982
0.097813 0.442947 0.846792
0.449849 0.023707 -0.014226
0.451061 0.020255 -0.011744
0.089748 0.844955 -0.426278
0.080917 -0.421532 0.867357
-0.315453 0.020814 0.848937
-0.296912 0.435134 0.426127
0.116338 0.841693 0.402672
0.089687 0.844767 -0.426611
-0.300818 -0.426549 -0.416921
0.517602 -0.022405 -0.838683
-0.298676 -0.427557 -0.418010
0.494389 0.395614 -0.427788
-0.289930 -0.403919 0.418210
0.535001 -0.828676 0.020487
0.525066 0.851522 -0.031968
-0.315044 0.020112 0.851023
0.097818 0.442597 0.846408
-0.338875 0.426357 -0.448467
-0.297548 0.434261 0.426919
-0.742362 -0.417036 -0.017108
-0.739859 -0.416175 -0.015554
-0.297955 -0.425904 -0.418264
0.519519 -0.021276 -0.839395
-0.289659 -0.403597 0.416101
-0.736984 0.003442 0.437253
-0.325130 0.837356 -0.007144
-0.339397 0.424752 -0.447290
0.524441 0.850356 -0.034393
-0.314960 0.019716 0.846831
0.527370 -0.438159 -0.408766
-0.296486 0.434789 0.426503
-0.290233 -0.404254 0.416135
0.524329 0.849189 -0.035083
0.491115 0.397130 -0.426254
0.524581 0.851150 -0.034135
0.090498 -0.427542 -0.860925
0.092720 -0.430690 -0.863505
-0.724007 -0.014149 -0.400228
0.527808 0.008301 0.850914
-0.315269 0.021718 0.847059
-0.289547 -0.402975 0.416878
0.097368 0.441071 0.845322
0.097304 0.442371 0.844226
-0.340573 0.425065 -0.446914
-0.291168 -0.406188 0.417015
-0.298607 -0.428058 -0.417467
0.090722 0.413469 -0.848811
-0.340761 0.424092 -0.449202
0.114611 -0.855274 -0.408671
0.114811 -0.854517 -0.407530
-0.740546 -0.417924 -0.016036
-0.298456 -0.426550 -0.416851
0.536491 -0.828212 0.020969
0.113269 -0.855319 -0.408688
-0.729792 0.383928 0.014634
0.090264 0.413466 -0.849939
-0.297120 0.435268 0.425291
0.088294 0.415082 -0.849719
0.093620 -0.430313 -0.863335
0.537035 -0.828378 0.020833
-0.741852 -0.414967 -0.017145
-0.737702 0.004356 0.438560
-0.298222 0.437277 0.426186
0.513458 0.441127 0.404785
-0.737954 0.003758 0.435738
0.529624 0.009170 0.848653
0.519444 -0.023618 -0.839259
-0.298323 -0.849075 0.015296
0.079192 -0.422969 0.867611
-0.731687 0.385028 0.015032
0.099178 0.443272 0.844763
-0.316894 0.021613 0.848646
0.118608 -0.859751 0.423238
0.113433 -0.854640 -0.407320
0.519846 -0.022137 -0.840467
-0.340215 0.425157 -0.449798
0.527450 -0.436901 -0.410774
0.525307 0.851333 -0.034019
-0.340386 0.425690 -0.446918
0.091854 -0.428968 -0.862040
0.528331 0.008396 0.850242
-0.317241 0.020121 0.849083
0.524988 0.849202 -0.033538
0.081594 -0.423146 0.867427
0.535845 -0.826903 0.020643
-0.317282 0.020941 0.848859
0.092046 -0.430501 -0.862199
0.519819 -0.021912 -0.838878
0.535335 -0.827160 0.020367
0.098661 0.444646 0.846431
-0.299818 -0.852294 0.016812
0.118259 -0.859905 0.423054
0.490676 -0.396328 0.410830
-0.290202 -0.402787 0.417423
0.117947 0.840009 0.400933
0.525544 0.851178 -0.035510
-0.724276 -0.016317 -0.400000
0.098696 0.443265 0.846207
0.099208 0.442270 0.845437
0.528872 -0.439398 -0.411250
0.090351 0.414505 -0.849852
0.526475 0.007312 0.848240
0.448097 0.021077 -0.014163
0.519156 -0.021601 -0.839750
-0.742638 -0.416270 -0.016968
0.079298 -0.422247 0.865304
0.519121 -0.024715 -0.838744
-0.284342 -0.000494 -0.826930
0.519180 -0.022328 -0.840678
0.512262 0.439424 0.407185
0.521332 -0.022066 -0.838744
-0.288849 -0.403172 0.416787
0.511967 0.438930 0.405424
0.093447 -0.430548 -0.862024
-0.324871 0.836995 -0.006308
0.116538 0.840566 0.400856
-0.324075 0.836463 -0.003237
0.079450 -0.422149 0.866273
0.513672 0.439181 0.407189
-0.729953 0.384226 0.013091
-0.324818 0.837644 -0.002974
-0.325193 0.836829 -0.005447
-0.299552 -0.850458 0.017434
0.088388 0.844769 -0.427641
0.526695 -0.437172 -0.410505
-0.326195 0.837266 -0.001533
-0.284549 -0.000006 -0.827604
0.512937 0.441382 0.406678
-0.740434 -0.418493 -0.017961
0.087927 0.844278 -0.426451
0.449740 0.020986 -0.014955
-0.324815 0.836503 -0.004855
-0.727765 0.383703 0.014154
-0.290757 -0.403885 0.419057
-0.729401 0.384699 0.015436
0.523288 0.848487 -0.035457
-0.741741 -0.416573 -0.017337
-0.341805 0.426928 -0.447629
-0.297237 0.435775 0.426996
0.097068 0.445514 0.846912
-0.284936 0.002517 -0.827571
-0.289156 -0.403284 0.415861
0.521146 -0.023666 -0.837594
0.097962 0.443511 0.845877
-0.297679 -0.426073 -0.416633
-0.729976 0.384273 0.011010
0.114734 -0.856872 -0.407891
0.448546 0.021787 -0.012202
0.494458 0.398574 -0.426907
-0.316362 0.021384 0.849435
0.448004 0.021821 -0.012261
-0.739282 0.002533 0.439901
-0.298017 -0.850122 0.015515
0.528787 0.006554 0.849075
0.534301 -0.829529 0.021310
0.534927 -0.828137 0.018513
-0.730324 0.383160 0.013355
-0.300318 -0.427334 -0.416895
-0.297446 0.436632 0.428814
0.511933 0.438697 0.406069
0.114334 -0.856380 -0.406484
0.097793 0.444588 0.843737
0.511950 0.441144 0.405926
-0.300285 -0.850518 0.015963
0.535328 -0.830483 0.019351
0.489247 -0.398575 0.412616
0.527650 -0.438134 -0.408536
-0.298808 -0.426815 -0.418253
-0.722154 -0.013633 -0.399979
-0.340233 0.423910 -0.448257
0.116531 0.840519 0.402124
-0.299621 -0.425594 -0.419179
0.098678 0.443077 0.846657
-0.723406 -0.013480 -0.399442
-0.339491 0.426640 -0.446237
0.091838 -0.429763 -0.861788
-0.298409 -0.849660 0.015049
-0.737679 0.004830 0.437844
0.528324 -0.438005 -0.409093
0.527443 -0.437425 -0.409661
0.536166 -0.830154 0.021194
-0.285648 -0.000678 -0.828403
-0.736467 0.005512 0.436616
0.114163 -0.855805 -0.407803
0.491082 -0.396584 0.412226
-0.324027 0.837017 -0.004606
-0.290112 -0.403343 0.416331
-0.739876 -0.416533 -0.015764
0.081138 -0.422306 0.866970
0.088900 0.414965 -0.849238
0.536651 -0.827549 0.018990
0.489472 -0.399061 0.412258
0.090051 0.414844 -0.848766
0.119064 -0.858997 0.422041
-0.742194 -0.416669 -0.015605
-0.739804 -0.417747 -0.017574
-0.300253 -0.425274 -0.421846
0.098398 0.441630 0.845979
0.114172 -0.855371 -0.405792
0.493684 0.396657 -0.426932
-0.290608 -0.405577 0.417276
-0.284937 -0.000419 -0.827374
0.527943 0.006336 0.848685
0.114012 -0.855470 -0.406267
-0.298327 -0.427191 -0.418989
