OFF
256 0 0
0.150575 0.536892 0.717413
-0.236880 0.155112 -0.828914
0.538028 0.151744 0.717111
-0.234763 0.151022 0.718592
0.537347 0.538612 -0.444580
0.541200 0.539256 0.332184
0.540434 0.151886 0.718210
-0.235100 -0.621003 -0.056036
0.150006 -0.234775 -0.828650
0.150579 -0.620475 0.332863
0.538094 0.155107 0.718334
-0.234961 0.538197 0.332100
-0.233787 -0.620332 0.718733
-0.622259 0.539079 -0.055137
0.152655 -0.234507 -0.828149
0.538306 -0.234539 -0.442472
0.151902 -0.234980 -0.828619
0.152340 -0.232431 0.718893
0.152450 -0.622494 -0.444178
-0.623333 0.537921 -0.052736
-0.233220 -0.621166 0.719779
-0.234590 -0.622994 0.719506
0.151885 -0.233197 0.718481
-0.233841 0.536989 0.330896
0.152260 0.537435 -0.827822
0.536981 -0.621364 -0.055675
0.150817 -0.234166 0.719510
0.151559 0.536953 -0.055449
-0.620714 0.151544 -0.443781
-0.234245 -0.234287 -0.442422
0.150261 -0.621891 0.331407
0.538830 0.151696 0.718653
0.539175 0.539312 0.333080
0.538209 -0.238391 0.330234
-0.235419 0.539463 -0.442760
0.537967 0.150846 0.719979
0.151075 -0.235156 0.718942
0.151568 -0.622554 0.330741
0.539318 0.538857 -0.440899
0.540594 0.538116 0.331299
0.152861 -0.622808 -0.441688
0.152150 -0.234650 -0.829180
-0.233762 -0.235047 -0.442069
0.151055 -0.621739 -0.441202
-0.235497 -0.236245 -0.440770
0.152318 0.537418 -0.055969
0.151070 -0.619654 0.330569
-0.621894 -0.623191 0.333076
0.540111 0.151332 -0.830351
0.539144 0.151384 -0.055267
0.539068 -0.235246 0.332837
0.539618 0.539421 0.332826
-0.622117 -0.236213 0.718639
0.538838 -0.233856 -0.442331
0.539369 0.152138 0.718332
0.539000 -0.622071 -0.055103
-0.621754 0.538709 -0.054472
0.149571 -0.618011 0.330877
-0.623183 0.152752 -0.440576
-0.621538 0.151147 0.330590
0.153390 -0.235277 0.716807
0.152228 0.538802 -0.055873
0.152304 0.539872 0.717227
0.538304 0.152165 0.718413
-0.233445 0.540091 -0.443098
0.539972 -0.236118 0.331380
0.152258 -0.235313 0.718954
-0.233953 -0.621782 0.718052
0.150356 -0.621090 -0.441735
0.538528 -0.621781 -0.054338
0.538279 0.152936 -0.052623
0.151588 0.540032 -0.826581
-0.235510 0.539079 -0.441822
0.536878 -0.621162 -0.055962
0.539293 -0.621954 -0.055771
-0.623191 0.151584 -0.442586
-0.235342 -0.622393 -0.054141
-0.622130 0.149863 0.329862
-0.235254 0.149913 -0.827006
-0.236246 0.151693 -0.828665
0.151971 0.538382 -0.828829
0.150955 -0.621333 -0.441482
-0.621704 -0.235843 0.718227
0.538491 -0.234644 0.329724
0.539389 0.539320 -0.442556
0.153145 0.536896 0.718745
0.152122 0.538507 -0.828568
-0.235593 0.539098 -0.441405
-0.235076 0.540177 0.331377
-0.621735 0.537731 -0.055435
-0.235057 0.151528 -0.829132
0.538460 0.150731 -0.827958
-0.622922 0.152136 0.331730
-0.619989 -0.234994 -0.054850
0.540455 0.537746 -0.442081
-0.234122 0.151112 0.717365
0.540639 0.539713 0.332974
0.536440 -0.236541 -0.440861
-0.234715 0.151236 0.717716
0.536214 -0.233562 0.332136
-0.235251 -0.234270 -0.441474
0.152757 0.537756 -0.054003
-0.235067 0.152294 -0.827509
0.152576 -0.233459 -0.827463
-0.622326 0.151518 -0.442448
0.538867 0.537266 0.330959
-0.236193 -0.620968 0.718313
0.537994 0.152585 -0.055529
0.152829 -0.233746 -0.828446
0.151914 -0.234798 0.717524
-0.234890 -0.621599 0.718397
0.538294 0.150736 0.716588
0.539175 0.150693 0.719106
-0.236128 -0.234073 -0.441648
0.538478 -0.622353 -0.055189
0.153113 0.538815 0.718334
0.538225 0.151887 -0.055353
0.154155 0.539864 0.718024
-0.623240 -0.235947 -0.054666
-0.234119 0.537402 -0.440511
0.538418 0.150736 -0.057038
-0.235502 -0.620826 -0.054919
0.154249 -0.621388 -0.441561
-0.236085 0.539877 0.330632
-0.236206 0.536123 -0.442587
-0.234197 0.537997 -0.441953
0.538303 0.153296 -0.829492
0.150972 0.537405 -0.054296
0.152954 0.537715 0.717708
-0.622121 -0.235857 0.716402
-0.619647 -0.236205 0.718654
-0.236207 -0.621784 -0.055542
0.539195 -0.622925 -0.055273
-0.622182 -0.234507 0.717326
-0.623969 0.151538 0.330901
-0.235310 0.152533 -0.827425
0.540253 0.150775 -0.053387
0.151923 0.537254 -0.829682
0.539377 0.152048 -0.054928
-0.621198 -0.235012 -0.054526
0.151952 -0.621634 0.332162
-0.235321 -0.235333 -0.440927
-0.234764 0.538682 -0.441825
0.538015 -0.622328 -0.055835
0.151620 -0.621743 -0.442957
0.538828 0.151097 -0.054072
-0.622143 0.152134 0.331281
0.150812 0.537827 -0.053411
0.540088 0.152120 0.717435
0.538085 -0.622645 -0.054239
-0.234254 0.538598 0.333199
-0.233188 -0.620832 0.718155
-0.235117 0.539909 -0.443690
-0.232772 -0.234169 -0.442978
0.152481 0.539663 -0.826394
0.151978 -0.621999 -0.442259
0.539332 0.150916 0.719758
0.152610 0.538702 0.719442
0.151358 -0.233418 0.718096
-0.621205 -0.234035 0.719694
0.152515 -0.233103 -0.830251
0.538892 -0.621328 -0.056702
0.539769 -0.236100 0.333569
-0.620779 0.152667 0.330588
-0.620900 -0.235391 -0.054625
-0.234307 0.152559 -0.830292
-0.233953 0.539161 -0.443387
0.539031 -0.233661 0.331685
-0.620846 -0.235259 -0.055449
0.150950 -0.621609 0.330449
0.151101 0.537600 -0.829150
-0.235587 -0.622338 -0.054106
0.151148 0.538676 0.716879
-0.620195 0.537827 -0.057201
0.151171 0.538249 -0.055109
0.537988 0.151786 0.718045
0.151137 0.538032 0.719193
-0.233927 -0.622321 -0.055297
0.537505 0.151204 0.717807
-0.621093 0.150931 -0.440755
-0.235521 -0.620808 0.717772
0.153244 -0.234493 -0.830644
-0.623211 0.154276 -0.441872
-0.233807 0.538395 -0.442062
-0.621294 -0.233947 0.718533
-0.235465 0.152276 0.718995
-0.235180 0.538827 -0.442487
-0.622255 -0.618343 0.332665
0.151673 -0.621684 0.331643
0.151352 0.538363 -0.054941
0.153021 0.538985 0.717135
-0.234205 -0.621574 -0.054218
0.538202 0.152544 0.717623
0.152968 0.537757 0.718379
0.152650 -0.235281 0.718419
0.540552 -0.621506 -0.055103
0.539186 0.154073 -0.828038
0.538577 0.153086 -0.829533
0.152267 -0.621370 0.330961
0.537735 -0.233802 -0.442792
-0.235969 0.539359 0.332350
0.537994 0.538588 0.332312
0.150749 0.539004 -0.827319
-0.235143 0.152955 -0.828305
-0.622787 -0.234669 -0.053488
0.538762 0.151905 0.718683
0.538161 0.541678 -0.441321
0.538720 0.151707 0.717810
0.150734 -0.233059 -0.827988
-0.620348 0.151181 -0.443045
0.540142 0.151526 -0.827712
0.150882 0.537529 -0.055944
0.537895 0.151769 -0.827063
-0.620748 -0.235372 -0.055074
0.152937 0.540487 0.719349
-0.621884 -0.621957 0.330446
0.539430 0.539306 0.332207
0.539104 0.540783 -0.441418
0.149782 -0.621853 -0.441604
-0.623701 0.153010 -0.440736
-0.234965 0.538976 0.330429
-0.235388 -0.233398 -0.441919
0.539301 0.153176 -0.829730
0.538249 0.538913 0.331996
0.152088 -0.620943 -0.443378
0.539567 0.537910 0.331222
-0.621974 -0.234634 -0.055985
-0.622236 0.151335 -0.440826
-0.621826 0.151798 0.331806
0.537600 0.152613 0.717725
0.538782 -0.620699 -0.054605
0.152101 -0.235731 -0.828918
0.152690 -0.621751 -0.441337
-0.621546 -0.235037 0.718349
-0.235560 -0.234757 -0.441573
0.151395 -0.234141 0.717718
-0.234815 0.150933 -0.830125
0.537841 -0.235639 0.330734
0.538937 0.151550 -0.053841
-0.622007 -0.233918 -0.055459
0.152622 -0.235165 0.718185
0.535579 -0.621091 -0.055812
0.538211 0.538404 -0.442973
-0.234275 -0.621402 -0.054066
-0.621632 -0.620733 0.332143
0.153282 -0.236078 -0.829100
0.539189 -0.621030 -0.056705
-0.235890 -0.235380 -0.441285
-0.623928 -0.620352 0.332536
0.152165 0.538002 -0.828841
-0.620727 0.538133 -0.054395
-0.621264 -0.233053 0.719273
-0.236545 -0.622424 0.719939
-0.234810 0.539051 0.330481
-0.233800 0.153577 -0.829590
-0.622136 0.539320 -0.054007
