OFF
256 0 0
0.150847 -0.223610 -0.806219
0.546878 -0.619658 -0.050807
-0.245039 0.549711 -0.427731
0.546797 -0.621430 -0.052533
0.540418 0.147935 -0.830269
0.542434 0.533991 -0.430826
-0.590073 -0.216113 -0.044586
-0.210859 0.152888 0.695260
0.535724 -0.235202 -0.434131
-0.229718 0.160139 -0.791345
-0.599949 0.111600 0.329193
-0.606336 -0.233151 0.729338
-0.605364 -0.234108 0.729752
-0.612734 0.537911 -0.034900
-0.244283 -0.615203 -0.067478
-0.611651 -0.610578 0.318479
0.142798 -0.605085 -0.429746
0.538188 0.525785 0.301343
-0.244169 -0.615091 -0.066646
-0.589694 -0.216072 -0.043733
0.522430 0.160861 0.699843
0.133095 0.501437 -0.055076
-0.231000 0.160542 -0.791724
-0.229886 -0.585939 0.728291
-0.245373 -0.613947 -0.067468
-0.229005 -0.586871 0.727619
-0.607373 -0.234806 0.731166
-0.606731 -0.234290 0.730359
0.134282 0.500886 -0.056362
0.536742 0.524091 0.301059
0.511509 -0.215277 0.315824
-0.613246 0.537458 -0.036918
0.538244 0.524289 0.299805
0.538803 0.147782 -0.828559
0.142996 -0.215359 0.688633
0.140937 -0.604885 -0.428079
-0.612723 0.539681 -0.034384
0.139972 -0.626645 0.311458
-0.599984 0.110883 0.330422
0.511977 -0.214524 0.315666
-0.245870 -0.615706 -0.067937
0.540693 0.146543 -0.829374
0.547260 -0.621027 -0.051780
-0.228866 -0.585708 0.725835
-0.214723 -0.223719 -0.429760
0.477073 0.133135 -0.078096
-0.243276 0.551966 -0.427909
0.169736 0.518915 0.684323
-0.224860 0.516530 0.312957
0.510829 -0.215219 0.316372
-0.606391 -0.233980 0.731017
0.541165 0.534918 -0.430509
-0.230903 0.159943 -0.790918
0.171127 0.517388 0.684660
-0.228448 -0.585388 0.728170
-0.613655 -0.608257 0.320246
0.540400 0.533044 -0.431462
-0.232973 0.159119 -0.793678
-0.243816 -0.614142 -0.066089
-0.613180 -0.610660 0.318248
-0.618571 0.147351 -0.411883
0.522221 0.161866 0.698305
-0.613457 0.537292 -0.035172
0.522769 0.162398 0.698505
-0.229965 -0.585045 0.728321
-0.612727 -0.609797 0.318249
-0.246329 -0.615678 -0.065964
-0.606783 -0.232350 0.730532
-0.214118 0.149188 0.694404
0.541363 0.533679 -0.430710
-0.231671 0.159704 -0.791815
0.140628 -0.605948 -0.430234
0.174198 0.519030 0.682495
-0.590162 -0.215840 -0.044612
0.537835 -0.237028 -0.434979
-0.246603 -0.616714 -0.068455
0.132861 0.501351 -0.056821
-0.245355 -0.616388 -0.066788
-0.229984 0.159123 -0.791417
0.139535 -0.605274 -0.430180
0.132527 0.500916 -0.055171
0.149330 -0.223997 -0.804263
-0.617785 0.145878 -0.410101
-0.604893 -0.234401 0.729960
0.512281 -0.215296 0.317089
-0.588153 -0.216761 -0.043975
0.173163 0.516558 0.684804
0.538676 -0.236683 -0.435122
-0.613198 0.536870 -0.037034
-0.215804 -0.225092 -0.429116
-0.597512 0.112456 0.328352
0.477544 0.130270 -0.078224
0.538694 0.147089 -0.829138
0.173141 0.518385 0.684309
0.510837 -0.214519 0.316557
-0.588467 -0.215980 -0.043195
-0.600088 0.111321 0.330167
0.134828 0.501260 -0.055225
-0.229274 -0.585538 0.727495
-0.613015 -0.610063 0.318552
0.536654 0.525976 0.300456
0.479032 0.134099 -0.076950
-0.608159 -0.232984 0.731318
0.171669 0.517263 0.684018
0.172671 0.516462 0.682723
-0.230168 0.158909 -0.793098
-0.243664 0.551357 -0.426607
-0.605085 -0.235654 0.730294
0.541885 0.535415 -0.431209
-0.222535 0.516243 0.312681
-0.617273 0.144919 -0.411558
-0.589330 -0.216599 -0.044964
0.546876 -0.621077 -0.052147
0.511938 -0.215948 0.317408
-0.211563 0.150165 0.694270
-0.243561 0.550179 -0.427801
-0.244163 0.549722 -0.425316
-0.246616 -0.615051 -0.067473
-0.228437 -0.583068 0.728619
0.171277 0.518778 0.682286
0.539146 0.147686 -0.828789
-0.230514 -0.587867 0.728829
-0.589177 -0.214739 -0.043622
0.538772 0.146909 -0.827676
0.538182 -0.235670 -0.435485
0.540662 0.532232 -0.430611
0.144669 0.537171 -0.794036
-0.244587 0.550729 -0.427163
-0.245794 -0.614675 -0.066719
0.540662 0.533312 -0.428829
0.539690 0.148232 -0.829113
0.138752 -0.627734 0.312270
-0.598001 0.110017 0.327252
0.546423 -0.619224 -0.052449
-0.619550 0.145883 -0.410771
0.143796 -0.216588 0.691165
-0.614314 -0.609961 0.319585
-0.245807 -0.613335 -0.065669
0.139258 -0.627920 0.312996
-0.611189 0.538487 -0.035576
0.171666 0.518327 0.683584
0.511190 -0.216046 0.314911
0.138066 -0.625994 0.312517
0.150562 -0.223921 -0.805049
-0.224856 0.516192 0.310958
0.135368 0.502162 -0.054760
0.521039 0.161140 0.700004
-0.230954 0.159455 -0.790686
-0.591283 -0.215779 -0.044073
0.140599 -0.604549 -0.430252
-0.613580 -0.609899 0.318113
0.133665 0.502762 -0.053836
0.148747 -0.223111 -0.805920
0.523287 0.160247 0.698783
-0.617342 0.145068 -0.409552
-0.598769 0.111691 0.328862
0.132170 0.501865 -0.055600
0.547657 -0.618367 -0.049889
0.523099 0.159307 0.699307
-0.213995 -0.224167 -0.429292
0.548573 -0.620111 -0.051854
-0.589523 -0.218169 -0.042918
-0.213228 -0.222731 -0.427951
-0.227798 -0.584791 0.730425
0.535920 -0.236453 -0.435492
0.476015 0.131153 -0.078990
-0.614117 0.538405 -0.036678
-0.612338 0.536966 -0.035908
-0.229364 0.158386 -0.789952
0.150910 -0.224675 -0.804805
0.145034 -0.216970 0.689718
0.143799 -0.215571 0.691390
-0.612619 -0.611748 0.315569
-0.618929 0.145496 -0.411488
-0.612760 -0.609936 0.317532
0.523516 0.161021 0.698450
-0.214964 -0.223897 -0.428619
0.541811 0.535665 -0.429789
-0.599331 0.110766 0.329093
-0.223572 0.516940 0.312495
0.150192 -0.224378 -0.805285
0.144425 0.538232 -0.796889
-0.615160 -0.610764 0.319180
-0.244091 0.550990 -0.425803
-0.600990 0.111360 0.328727
0.144343 -0.217687 0.691536
-0.230928 0.159563 -0.791774
0.525881 0.159735 0.697784
-0.228733 -0.585817 0.726880
-0.229934 0.158984 -0.792588
-0.606678 -0.234525 0.731382
-0.607382 -0.234749 0.730901
0.539194 0.147444 -0.829471
-0.244687 0.550617 -0.425063
0.540270 0.148138 -0.828602
-0.589058 -0.216151 -0.043513
0.140923 -0.604390 -0.430481
0.539229 -0.238142 -0.435753
0.171586 0.517821 0.685385
0.541053 0.534917 -0.430854
-0.229062 -0.585897 0.729599
0.144708 0.537998 -0.796563
-0.618499 0.145126 -0.409390
0.522894 0.162312 0.698242
0.141377 -0.605420 -0.429673
0.537719 0.525870 0.301450
-0.619130 0.144551 -0.409892
0.173046 0.516436 0.683866
0.523311 0.161023 0.698187
0.539124 -0.235431 -0.435079
-0.607241 -0.234063 0.730178
-0.587515 -0.217266 -0.043061
0.538848 -0.237149 -0.436830
0.148597 -0.222606 -0.804735
0.170991 0.517962 0.683497
0.547357 -0.617829 -0.050719
0.539361 0.147766 -0.828536
-0.215440 -0.224590 -0.428640
-0.212290 0.151353 0.695440
0.150342 -0.224141 -0.804014
-0.214273 -0.223758 -0.430082
0.143600 -0.218278 0.690984
0.521957 0.160067 0.697986
-0.224946 0.516020 0.309768
0.523960 0.159171 0.699510
0.522672 0.160363 0.698596
-0.606587 -0.233749 0.730609
-0.589291 -0.216122 -0.043589
-0.618468 0.147190 -0.413069
-0.210997 0.150597 0.695212
0.475498 0.133331 -0.078353
-0.613534 -0.609465 0.318310
0.511202 -0.214573 0.315317
0.478463 0.132917 -0.076772
-0.212604 0.151878 0.693869
0.511526 -0.216279 0.315692
0.142568 -0.216696 0.690896
0.539079 0.146932 -0.827751
-0.599221 0.112828 0.327732
-0.211531 0.150045 0.693237
-0.612334 0.538209 -0.037302
-0.216058 -0.224959 -0.429066
0.142482 -0.216286 0.690285
0.542218 0.533146 -0.430637
0.151612 -0.223661 -0.803568
0.546532 -0.620127 -0.051422
-0.229583 -0.586949 0.728999
0.140854 -0.216053 0.688817
-0.245320 -0.614940 -0.067013
-0.216311 -0.223924 -0.428684
0.134594 0.501050 -0.056748
0.537065 -0.235181 -0.435654
0.539295 0.148523 -0.829212
0.539023 0.526329 0.300535
0.136710 -0.624517 0.311069
-0.614246 -0.608890 0.318889
