OFF
256 0 0
0.631873 0.017875 -0.570860
-0.011466 0.602262 -0.577213
-0.637905 -0.004121 0.628770
-0.659625 0.649016 0.035526
-0.661450 0.649235 0.033103
0.632033 -0.010988 0.583258
-0.010330 0.602125 -0.578207
0.697724 0.714736 -0.011672
0.634091 -0.009796 0.583504
0.022624 -0.668536 0.626330
0.035625 0.673642 0.627093
-0.012681 0.602418 -0.579674
0.652950 -0.675231 -0.046821
0.025486 -0.669256 0.628159
0.653029 -0.674447 -0.046162
0.035612 0.674177 0.627657
0.634118 -0.009712 0.581818
-0.014809 -0.649156 -0.636028
0.652069 -0.674261 -0.046215
-0.011362 0.601689 -0.577958
0.632624 0.018018 -0.571772
0.035843 0.675687 0.626229
0.697529 0.716964 -0.009813
-0.636963 -0.005595 0.628212
-0.674653 -0.012797 -0.650580
0.026011 -0.667915 0.626542
0.026726 -0.668255 0.627752
-0.636786 -0.004055 0.629105
0.632455 0.018800 -0.571095
0.034581 0.676087 0.626351
0.036794 0.676778 0.627172
0.633554 -0.009074 0.582270
0.034160 0.675454 0.625291
0.025246 -0.667757 0.626514
-0.639069 -0.003983 0.629856
-0.675298 -0.013751 -0.649936
-0.660292 0.650694 0.031526
0.696438 0.715453 -0.009900
0.633899 -0.008235 0.582699
0.025193 -0.667100 0.625897
0.698945 0.717089 -0.010262
-0.638717 -0.003706 0.627599
-0.636554 -0.005840 0.629393
0.697712 0.716267 -0.009547
-0.637385 -0.005071 0.627980
-0.661779 0.649560 0.032245
-0.636368 -0.006401 0.628573
0.034369 0.675516 0.626841
-0.674876 -0.012743 -0.648337
-0.638195 -0.004189 0.628085
0.697308 0.717402 -0.009178
0.697670 0.714751 -0.010846
0.635104 -0.012472 0.581765
-0.674164 -0.644392 -0.007129
0.634958 0.019763 -0.571475
0.635248 0.019052 -0.571825
-0.010265 0.602561 -0.575664
0.024170 -0.667706 0.627122
-0.638925 -0.004820 0.627719
0.033948 0.676294 0.627948
-0.637373 -0.005651 0.628515
-0.676260 -0.013663 -0.650900
0.632686 -0.011271 0.582891
0.634775 -0.010399 0.582734
-0.636928 -0.004705 0.627307
0.632892 -0.010805 0.582756
0.650718 -0.672223 -0.042488
-0.017927 -0.647054 -0.639119
0.631884 0.018775 -0.569567
0.022440 -0.667637 0.626201
0.034840 0.674977 0.626630
-0.014686 -0.647736 -0.637391
0.697317 0.717454 -0.010323
-0.011056 0.600622 -0.577156
0.035354 0.675254 0.627074
0.036328 0.675898 0.626934
0.633655 0.019360 -0.570925
0.025281 -0.668619 0.626138
0.633136 0.018949 -0.569915
-0.010015 0.602090 -0.577173
0.632778 0.018194 -0.569421
-0.016014 -0.647986 -0.637438
-0.661941 0.648852 0.032519
0.633471 -0.011258 0.582830
0.698240 0.716475 -0.009381
-0.015317 -0.645097 -0.639019
-0.673963 -0.643942 -0.008656
-0.016798 -0.646150 -0.636832
0.653004 -0.673850 -0.046254
-0.661373 0.650259 0.033046
0.697656 0.716408 -0.009241
0.633317 -0.012385 0.582306
-0.637979 -0.004566 0.629498
-0.673176 -0.643411 -0.007854
-0.677717 -0.015510 -0.648020
-0.014478 -0.647676 -0.635825
-0.009602 0.601993 -0.578162
0.651791 -0.676059 -0.045649
0.698852 0.718127 -0.008432
-0.661142 0.649993 0.032229
-0.638734 -0.004382 0.628903
-0.010870 0.601266 -0.576645
-0.675279 -0.643737 -0.005775
-0.659855 0.650459 0.033654
-0.635641 -0.003834 0.627656
-0.011292 0.601627 -0.578722
-0.674812 -0.013191 -0.649053
0.696995 0.715737 -0.009880
0.632572 0.019517 -0.571006
0.037267 0.675955 0.627507
0.024110 -0.667035 0.626174
0.034273 0.674917 0.627562
0.632508 0.019235 -0.569422
-0.011994 0.601051 -0.576643
0.024953 -0.669273 0.626503
-0.659636 0.648612 0.033090
0.633524 -0.010168 0.584651
0.697556 0.717525 -0.009751
0.023950 -0.668099 0.626589
0.632445 0.016498 -0.569154
-0.674713 -0.014585 -0.650349
0.651073 -0.674438 -0.044864
-0.010137 0.600780 -0.577860
0.635936 -0.012186 0.582402
0.036387 0.676092 0.626529
-0.660954 0.650855 0.032156
0.698714 0.716023 -0.009308
-0.659437 0.648694 0.034248
-0.674208 -0.644186 -0.004932
0.633763 0.017808 -0.570525
0.634021 -0.009919 0.581240
-0.011786 0.602386 -0.578411
-0.637847 -0.004891 0.629802
0.633094 0.018388 -0.571271
0.026258 -0.668638 0.627225
-0.675103 -0.644669 -0.007703
-0.675492 -0.645457 -0.007414
-0.675726 -0.013512 -0.649936
-0.660604 0.648605 0.033483
0.632244 0.020304 -0.570057
0.653119 -0.673840 -0.044425
-0.674326 -0.644216 -0.007980
-0.013342 0.601829 -0.577966
-0.676247 -0.014772 -0.651165
-0.637098 -0.005318 0.628279
0.652145 -0.673540 -0.044970
-0.015482 -0.647369 -0.638226
0.024445 -0.667871 0.626325
-0.659539 0.651111 0.032447
0.695933 0.716951 -0.009746
0.023788 -0.669175 0.626384
0.024345 -0.668524 0.626513
0.652364 -0.672939 -0.045172
-0.016009 -0.646112 -0.638207
-0.010158 0.600296 -0.576922
0.025672 -0.667645 0.626139
-0.638852 -0.004786 0.628889
0.633616 -0.009462 0.580587
0.633441 0.018844 -0.569492
0.634043 -0.009170 0.582707
-0.661088 0.648423 0.033793
0.034596 0.674242 0.626332
-0.673509 -0.645186 -0.008111
-0.659877 0.647952 0.032833
0.634137 -0.009422 0.584266
0.631841 -0.010368 0.582464
0.652196 -0.675335 -0.045670
0.024304 -0.668242 0.627219
-0.673450 -0.642963 -0.005913
-0.660441 0.650161 0.034389
0.631005 0.016715 -0.570809
-0.675758 -0.643198 -0.006407
-0.676629 -0.015001 -0.648756
0.698053 0.714953 -0.009240
0.649391 -0.673720 -0.044699
0.034821 0.675232 0.628702
-0.636554 -0.004968 0.629833
0.632247 0.019986 -0.570264
-0.011816 0.601681 -0.577604
-0.674955 -0.643839 -0.008544
-0.011824 0.601193 -0.576877
-0.659613 0.648349 0.033662
0.695895 0.716173 -0.008977
-0.675289 -0.644723 -0.006627
-0.014187 -0.647705 -0.638112
-0.676274 -0.012900 -0.651013
0.034399 0.676479 0.626198
0.651733 -0.674144 -0.044347
-0.011863 0.601797 -0.578695
-0.009710 0.601339 -0.577847
-0.677092 -0.014227 -0.649503
0.632951 0.017203 -0.570408
0.632838 0.019632 -0.570732
-0.012223 0.599658 -0.579530
-0.673953 -0.641812 -0.006891
0.633303 -0.010851 0.583518
0.632911 0.016922 -0.568758
0.024625 -0.667969 0.628663
0.634246 0.018922 -0.572432
-0.636070 -0.004147 0.627104
0.034858 0.674255 0.626985
-0.661635 0.649323 0.035251
0.650152 -0.673865 -0.044201
-0.675822 -0.644091 -0.006949
0.635289 -0.010989 0.582292
0.698693 0.716521 -0.009584
-0.676546 -0.013590 -0.650332
-0.674083 -0.643655 -0.006237
0.633521 0.019290 -0.570677
-0.014396 -0.646552 -0.638663
0.634057 -0.008154 0.581748
-0.638166 -0.001600 0.627948
-0.638794 -0.005996 0.627254
-0.010829 0.603205 -0.577757
-0.660740 0.650454 0.034128
-0.010913 0.602217 -0.579247
0.025106 -0.666104 0.629188
0.696870 0.717273 -0.009489
0.024381 -0.668562 0.624950
0.651812 -0.674493 -0.044672
-0.010211 0.601172 -0.577809
-0.638029 -0.003464 0.627200
-0.014849 -0.647692 -0.638879
0.633328 -0.012215 0.582358
-0.012273 0.601451 -0.577061
-0.676157 -0.013427 -0.648881
0.035171 0.675873 0.626797
0.696734 0.716132 -0.009189
-0.638040 -0.005392 0.627857
-0.674202 -0.644671 -0.007707
0.650817 -0.674679 -0.045270
-0.676985 -0.012095 -0.649349
0.632593 0.017954 -0.570148
0.631877 0.019230 -0.571268
-0.011907 0.601611 -0.578321
0.697865 0.718282 -0.009835
0.652519 -0.675017 -0.043843
-0.012369 0.601605 -0.578341
0.024316 -0.668412 0.627511
-0.016093 -0.645673 -0.639168
0.696984 0.716516 -0.010177
-0.678775 -0.013325 -0.651070
0.633909 -0.012798 0.581052
0.632811 -0.009859 0.582946
-0.011243 0.603409 -0.575358
0.650513 -0.674232 -0.044280
0.633283 -0.011578 0.583543
-0.012206 0.601994 -0.578017
-0.661680 0.650194 0.032441
-0.015018 -0.646442 -0.638510
-0.676070 -0.014146 -0.649312
0.635004 0.019360 -0.571316
0.633290 0.019063 -0.571521
0.696893 0.717734 -0.010211
-0.637124 -0.004568 0.628487
0.025364 -0.667798 0.628663
