OFF
256 0 0
0.172748 -0.231311 0.715734
-0.253857 -0.246807 -0.446250
-0.253686 -0.600944 -0.059748
-0.252834 -0.246353 -0.446926
0.525075 0.136446 -0.835090
0.174445 -0.231608 0.713939
0.173810 -0.229803 0.716013
-0.597878 0.561413 -0.068315
-0.231648 0.152049 0.704542
0.135947 -0.246652 -0.838764
0.173598 -0.231821 0.712917
-0.609428 0.152161 0.301337
0.573354 -0.240191 0.348597
0.147896 -0.624430 0.358533
-0.222120 0.128810 -0.837188
0.497407 0.530315 -0.436901
0.152380 -0.605400 -0.421261
-0.221621 0.128402 -0.837182
0.152017 -0.605184 -0.423044
0.149045 -0.627099 0.358510
0.136679 -0.246508 -0.839250
-0.213182 0.531325 -0.438588
0.518505 0.123215 -0.046847
0.530314 0.536575 0.308673
-0.609447 0.151816 0.300123
-0.613072 -0.595300 0.338940
0.573290 -0.241727 0.348957
0.557737 -0.248465 -0.476654
0.534383 -0.597850 -0.046890
0.173468 -0.232259 0.716704
-0.641876 0.147989 -0.443919
-0.626610 -0.226864 0.736726
-0.610681 0.152525 0.299402
0.150411 -0.625683 0.357651
0.557279 0.144550 0.735827
-0.640308 -0.232088 -0.061031
0.165906 0.526334 0.711306
0.558187 0.146191 0.735803
0.166642 0.527707 0.709641
-0.253996 -0.247391 -0.447010
-0.640873 0.148514 -0.444631
-0.251798 -0.604530 -0.059279
-0.639955 0.149233 -0.444441
0.152852 -0.604570 -0.423781
0.150999 -0.606588 -0.424745
0.146824 -0.624911 0.357581
0.519656 0.125122 -0.049588
0.496319 0.526512 -0.436627
0.152664 0.528913 -0.835752
0.167125 0.525569 0.709104
0.534273 -0.596296 -0.048300
-0.232569 0.148527 0.703638
-0.642429 -0.231865 -0.060772
-0.229669 0.149635 0.705816
0.133560 -0.245223 -0.839617
0.154195 -0.606855 -0.421909
0.573943 -0.239150 0.349841
0.164977 0.526310 0.710777
0.528570 0.537690 0.311873
0.173885 -0.230759 0.715166
0.166470 0.525475 0.709717
-0.640483 -0.234076 -0.060481
-0.212163 0.530243 -0.435549
0.147797 -0.626980 0.358972
0.526625 0.135343 -0.836608
-0.252860 -0.246677 -0.444688
0.557683 0.147296 0.736276
-0.254623 -0.247315 -0.445304
0.149176 -0.625911 0.358321
-0.228392 0.563899 0.329090
-0.212071 0.530472 -0.436413
-0.240954 -0.616588 0.743970
-0.625495 -0.226422 0.735356
0.496520 0.527366 -0.438743
0.172304 -0.232056 0.715531
0.148255 -0.625479 0.358362
0.555765 -0.248178 -0.476381
0.573718 -0.239306 0.348774
-0.240113 -0.615559 0.743989
0.147068 -0.626340 0.357250
0.154021 0.528721 -0.835427
0.135453 -0.247211 -0.839009
0.527019 0.134862 -0.835434
0.556631 -0.246446 -0.477398
0.572394 -0.239555 0.350498
0.173246 -0.231360 0.715037
0.525384 0.135421 -0.833945
0.535438 -0.596630 -0.050242
0.530250 0.538549 0.309027
0.150047 -0.623989 0.358318
0.151363 0.530798 -0.835027
-0.640805 0.147874 -0.445589
-0.609689 0.151281 0.297969
0.521300 0.125965 -0.046881
0.495762 0.526483 -0.438078
-0.254745 -0.246461 -0.445587
0.573043 -0.240304 0.349203
-0.240656 -0.615086 0.743247
-0.254821 -0.247575 -0.445429
-0.611208 -0.595333 0.338057
-0.223203 0.127923 -0.838568
-0.612454 -0.594279 0.336935
-0.240692 -0.616779 0.743970
-0.222297 0.129208 -0.837065
-0.610765 0.153107 0.299212
-0.212740 0.531477 -0.437597
0.525158 0.134164 -0.836056
0.559497 -0.246719 -0.475604
-0.225924 0.563382 0.331063
0.525481 0.136393 -0.835594
0.172646 -0.231983 0.715572
0.155536 0.528184 -0.834054
0.154085 0.530971 -0.832446
-0.625597 -0.226503 0.737736
-0.610352 -0.596586 0.339751
0.153520 0.530199 -0.833579
0.557967 -0.247640 -0.476619
0.557096 0.144647 0.736443
-0.610661 0.150619 0.297156
0.535734 -0.598596 -0.049584
-0.611508 0.150812 0.298965
0.143635 0.553997 -0.037726
0.535784 -0.597643 -0.047989
-0.214803 0.528231 -0.436915
-0.597762 0.562056 -0.068742
0.149970 -0.607483 -0.421322
0.152928 0.528158 -0.835677
0.165210 0.524107 0.709593
0.534231 -0.597347 -0.049056
-0.253565 -0.602811 -0.058847
0.559529 0.145541 0.736116
-0.230556 0.149832 0.702893
0.136282 -0.247120 -0.840101
-0.626577 -0.225082 0.737453
-0.213798 0.529646 -0.437076
0.558175 -0.245202 -0.478208
0.151879 -0.605835 -0.423414
-0.610117 0.150522 0.299085
0.134758 -0.245090 -0.837772
-0.223807 0.127184 -0.837702
-0.230406 0.150538 0.703150
-0.229859 0.149275 0.703077
0.151239 0.530638 -0.834409
-0.254505 -0.247603 -0.445561
0.518950 0.125631 -0.045976
-0.612075 -0.594556 0.337393
0.172768 -0.229934 0.715915
0.496612 0.528642 -0.438180
-0.213452 0.530031 -0.436217
-0.611204 -0.597274 0.337021
0.154072 0.529666 -0.832670
0.138331 -0.247823 -0.838798
0.497458 0.527529 -0.437696
0.556848 0.146679 0.735195
0.524335 0.137219 -0.834196
-0.240426 -0.615413 0.747199
0.529235 0.536892 0.310291
0.173790 -0.231967 0.715981
-0.641690 -0.233919 -0.060664
-0.597623 0.563462 -0.069173
0.525189 0.135665 -0.833748
0.174804 -0.231726 0.715935
-0.225460 0.562238 0.329361
0.174328 -0.232022 0.713784
-0.610621 -0.598537 0.336823
-0.624976 -0.226949 0.738497
0.495882 0.527391 -0.438972
0.152850 0.528886 -0.835027
-0.626314 -0.225640 0.738444
-0.223121 0.127284 -0.836067
-0.597603 0.561837 -0.070425
0.145598 0.555282 -0.035515
-0.252735 -0.246468 -0.447267
-0.241683 -0.614118 0.744696
0.135027 -0.246401 -0.838881
-0.228419 0.562803 0.331924
-0.213231 0.529971 -0.437856
-0.252652 -0.246759 -0.446285
-0.226743 0.563774 0.330013
-0.228793 0.562522 0.331550
0.151157 -0.607353 -0.421925
0.535531 -0.597305 -0.048127
-0.253318 -0.602993 -0.059162
-0.212374 0.529742 -0.435144
-0.231011 0.151527 0.704174
-0.222848 0.127644 -0.838335
0.529255 0.537777 0.310581
0.497264 0.527476 -0.439783
-0.611956 -0.597456 0.338540
0.534019 -0.597748 -0.048611
0.527819 0.538387 0.311089
0.146725 -0.626031 0.358952
-0.255160 -0.600380 -0.059766
-0.254752 -0.247934 -0.446237
-0.226913 0.562722 0.330469
-0.641086 -0.232155 -0.059242
0.151769 -0.606821 -0.422289
-0.222479 0.126814 -0.837048
0.494790 0.526912 -0.436232
-0.611977 -0.595043 0.336393
0.135105 -0.247074 -0.838520
-0.252376 -0.602729 -0.059004
0.556192 -0.244588 -0.478522
-0.612109 -0.596303 0.335618
-0.609190 0.151705 0.298741
0.148862 -0.626451 0.358365
-0.253135 -0.601936 -0.061483
0.174809 -0.231751 0.715194
0.526490 0.135368 -0.833505
0.557696 -0.247993 -0.476169
0.558343 0.144824 0.736215
-0.639832 -0.231645 -0.061593
0.495990 0.527671 -0.437906
0.149880 -0.625048 0.358371
0.574026 -0.238282 0.347698
-0.639241 0.148041 -0.444585
0.558235 0.145922 0.736766
-0.253489 -0.248469 -0.447779
-0.241216 -0.613956 0.744713
0.526849 0.136093 -0.834628
-0.639337 0.147344 -0.442287
0.147837 -0.626390 0.358820
-0.231165 0.150505 0.703442
0.496619 0.526243 -0.439724
-0.625867 -0.225983 0.737318
-0.213056 0.528798 -0.434506
-0.256078 -0.246646 -0.447447
-0.222978 0.128471 -0.835965
-0.255193 -0.245774 -0.448196
-0.225986 0.562825 0.331191
-0.231011 0.149236 0.703253
-0.221123 0.128215 -0.836993
-0.228002 0.563417 0.330072
-0.231751 0.150471 0.703719
-0.223329 0.127371 -0.836330
0.556782 -0.246154 -0.477951
-0.626044 -0.225467 0.737122
0.136924 -0.247787 -0.838811
0.557640 0.144671 0.735292
-0.610792 0.151091 0.300440
0.528192 0.538945 0.310843
0.497056 0.527552 -0.437680
0.166229 0.524418 0.709465
-0.223202 0.130168 -0.836853
-0.610252 0.151292 0.298602
0.136215 -0.245462 -0.839451
0.529035 0.535418 0.310398
0.535705 -0.597871 -0.049433
-0.227663 0.563990 0.330661
-0.625963 -0.225401 0.736816
0.152441 -0.606705 -0.421889
-0.252435 -0.603909 -0.057972
0.153442 -0.605265 -0.422959
0.166555 0.527615 0.709512
0.175020 -0.232388 0.714763
-0.240918 -0.614995 0.743237
