OFF
256 0 0
0.232107 -0.717576 0.621574
-0.153104 -0.332326 0.621681
-0.539773 0.440786 0.234665
0.236694 0.441330 -0.537743
0.233326 0.055494 0.622034
-0.539300 0.829236 -0.152983
0.619749 0.439501 -0.149886
0.236091 0.828735 -0.151408
0.234768 -0.717265 -0.153328
-0.152624 -0.720335 0.234921
0.621444 0.055941 -0.538865
-0.151985 0.052840 -0.539641
0.620430 -0.718135 0.234745
0.234138 -0.716645 0.620023
0.621693 -0.331199 0.622255
-0.538811 -0.331984 0.231863
0.620429 -0.331853 -0.150189
0.621049 0.442737 -0.152082
-0.537874 0.055652 -0.150690
-0.538389 0.442551 -0.539905
0.620910 0.440077 -0.151662
0.233820 -0.719409 0.619569
0.621175 -0.330978 -0.150726
0.621831 -0.718969 0.234393
0.621694 0.055394 -0.539563
-0.538225 0.056555 -0.151677
-0.539873 0.828152 -0.152253
-0.538911 0.441972 0.236190
0.234611 -0.331645 -0.539487
0.621758 0.055925 0.233621
-0.539439 0.828695 -0.152113
0.234887 0.828764 -0.152219
0.235161 -0.717969 0.621173
0.622415 0.441193 -0.150725
-0.538132 0.054466 0.621744
-0.152116 -0.331617 0.620889
-0.537281 -0.332139 -0.540021
-0.539652 -0.329476 -0.537839
0.620668 -0.332446 0.622434
0.621706 -0.331521 0.622985
0.235129 -0.331422 -0.537747
-0.537969 -0.330057 0.236027
0.234957 0.440585 0.234806
-0.152287 0.827839 0.233324
0.620368 -0.720091 0.235640
-0.154477 0.441949 0.622975
-0.538099 0.828618 -0.153563
0.621885 -0.330942 -0.151602
0.621603 0.442257 -0.152231
-0.151086 -0.331717 0.621992
0.620198 -0.330839 0.622690
-0.152351 -0.331385 0.623008
-0.152674 -0.330307 0.622298
0.623204 0.440691 -0.151451
0.236442 0.441723 -0.539667
0.232665 0.441943 -0.539221
0.233614 0.829766 -0.151744
0.621509 -0.332216 -0.151973
-0.538664 0.053578 0.621765
-0.537305 -0.718882 -0.151625
0.235671 -0.718588 -0.151528
-0.151128 0.828023 0.235664
-0.150119 0.056886 -0.539187
-0.536999 0.054924 0.620400
-0.152655 -0.331299 0.622540
0.235370 0.056192 0.618923
0.235688 -0.718814 -0.150251
0.236008 0.829346 -0.152603
0.620876 0.056274 0.235223
0.620638 -0.331826 -0.149935
0.621095 0.440201 -0.152213
-0.153265 0.827611 -0.538234
-0.151920 -0.719254 0.234166
0.234069 -0.718677 -0.151372
0.620131 0.055311 0.235549
0.620751 0.442272 -0.152736
-0.537040 0.442651 -0.538397
0.621660 -0.330026 0.621133
-0.536699 -0.331245 -0.540080
-0.538717 0.441745 0.235473
-0.150748 -0.330461 0.621358
0.621272 0.056119 -0.540499
-0.152415 -0.718531 0.233898
-0.152224 0.054498 -0.538609
-0.539939 -0.331276 -0.538590
-0.539920 -0.330698 0.235831
-0.540103 -0.716126 -0.152438
-0.152964 -0.331213 0.621256
0.621449 0.053540 0.233800
-0.149490 0.054862 -0.538991
-0.539750 0.441457 0.234631
0.620987 -0.330689 -0.152081
-0.539273 -0.717962 -0.151875
0.622530 0.055137 0.236116
0.232442 0.828405 -0.153986
0.236137 0.443793 -0.538217
-0.151506 -0.719102 -0.539113
0.620888 0.055188 0.236561
0.621821 0.055189 0.233844
-0.151556 -0.717008 0.233585
-0.539370 0.442727 -0.537580
-0.538041 0.054591 -0.152248
0.233620 -0.720091 0.623163
0.233671 0.055279 0.621846
-0.152069 -0.718452 0.235063
-0.151132 -0.330948 0.622728
-0.150977 -0.717364 -0.538235
0.234812 0.828045 -0.151091
0.234428 -0.330787 -0.538553
0.621587 -0.332181 -0.153277
0.620331 0.440818 -0.153773
-0.539845 -0.332763 -0.537669
-0.538891 0.441529 -0.540327
-0.537777 0.439529 0.236408
-0.539455 0.056260 0.622641
-0.538132 0.442246 0.234558
-0.153142 -0.332759 0.620991
0.235040 -0.718772 -0.152082
0.235117 -0.716593 -0.150418
0.232987 -0.331931 -0.537562
0.621315 -0.332748 -0.151270
0.235639 0.442287 0.234646
-0.151153 0.442145 0.622457
0.233213 -0.719011 -0.151564
0.236818 0.442524 0.231938
-0.154564 -0.716949 0.235967
-0.540638 0.827879 -0.151907
0.621905 0.441590 -0.150932
0.623336 -0.331493 0.620429
0.621836 -0.718219 0.235167
-0.539198 0.055255 -0.151461
0.234851 0.056078 0.620511
0.236366 0.055351 0.622623
0.235809 0.055180 0.620059
-0.153409 0.829497 0.235078
-0.151148 0.444265 0.621675
-0.152281 0.829416 0.235138
-0.538678 -0.718614 -0.152434
-0.152343 -0.718149 0.234083
-0.152126 -0.329955 0.620661
-0.539328 -0.330688 -0.537118
0.235308 0.443174 0.235413
0.621170 0.054918 -0.537973
0.619130 0.442008 -0.150363
0.233802 0.441583 -0.540912
0.234558 0.440612 -0.537538
-0.538604 -0.331953 -0.538366
-0.536721 0.441308 -0.539560
0.622176 0.054891 -0.539294
0.621838 -0.718510 0.235488
-0.538878 -0.329961 -0.538398
0.233774 -0.717070 0.623275
-0.538381 0.055897 -0.152556
0.622534 -0.332365 0.621394
-0.538977 0.442295 0.236374
0.232673 0.826209 -0.152988
-0.538437 0.055344 0.621748
-0.154152 -0.332380 0.622461
0.235709 0.442608 -0.538595
-0.538646 0.053301 0.621643
0.621753 0.443085 -0.150989
-0.537521 0.055735 0.622310
-0.152505 -0.330307 0.621827
-0.539178 -0.330953 0.235007
0.235780 0.827819 -0.151519
-0.151131 -0.719997 -0.537864
-0.538529 0.439511 0.237340
0.623213 -0.717942 0.236073
-0.538933 0.055224 0.621352
0.234695 -0.332170 -0.537455
0.234207 0.441952 0.235522
-0.150056 0.828743 0.234462
0.622482 0.443286 -0.150960
0.234009 0.055845 0.621095
-0.153604 0.441394 0.620885
-0.152089 -0.719325 -0.540406
0.235663 0.830239 -0.152867
-0.152562 0.827563 0.233600
0.620589 -0.718572 0.236826
-0.152299 0.830556 0.233905
0.235317 0.828679 -0.150527
0.234712 0.441913 0.236225
0.622486 -0.721029 0.234587
-0.152836 -0.331925 0.622351
0.234818 0.442928 -0.538835
0.234737 -0.719370 -0.151747
-0.151430 0.829257 -0.537498
0.234250 0.443082 -0.539272
-0.151603 -0.332982 0.621240
0.621404 0.056104 0.234808
0.232323 -0.330294 -0.539386
-0.151867 -0.717313 -0.539104
0.234191 0.828379 -0.150631
0.234466 -0.333398 -0.539736
-0.537867 0.827855 -0.151254
0.233706 -0.716654 0.621533
0.235868 -0.718509 -0.153168
0.235818 -0.718027 -0.151536
-0.539079 0.056828 0.620798
0.622609 -0.331820 -0.152579
0.621512 -0.331730 0.621491
-0.153155 0.828132 -0.540417
0.623433 0.444006 -0.152318
-0.153486 -0.719137 0.235880
-0.152315 0.829736 0.235620
-0.538002 0.054812 -0.152724
-0.152595 -0.331297 0.621119
-0.537902 -0.332458 -0.538994
0.621080 -0.719204 0.236415
0.234260 -0.718769 -0.152180
-0.538294 0.441718 -0.539487
-0.537994 0.828985 -0.153994
0.236481 -0.717199 0.620409
0.233991 -0.331852 -0.538280
-0.153607 0.828020 -0.539885
-0.540042 -0.331616 0.235609
-0.152417 0.828772 -0.539408
-0.153418 0.443480 0.622175
0.234802 -0.332128 -0.538234
-0.153502 0.828738 0.234843
0.235768 0.441076 -0.537316
-0.151995 0.054978 -0.537049
0.235497 0.827290 -0.152633
-0.152602 0.830342 -0.538056
-0.536731 0.054053 0.622475
-0.540883 0.444352 -0.538646
-0.538640 0.441905 0.234766
0.234126 -0.331631 -0.538839
-0.150987 0.827980 -0.537539
-0.539064 0.054719 -0.152059
-0.150199 -0.719086 -0.537496
-0.538035 0.440449 -0.540024
-0.539818 0.055874 -0.152804
-0.539079 0.054608 0.621059
-0.152019 -0.331953 0.622059
0.234864 -0.331389 -0.538471
-0.151010 -0.330889 0.620752
0.621341 -0.331008 0.620600
0.235278 -0.717296 0.622833
0.619898 0.056687 -0.538213
0.235128 0.056450 0.620626
-0.538050 0.441441 0.236124
0.622523 -0.331122 -0.150625
-0.539752 0.827452 -0.152379
-0.153346 0.055186 -0.536639
-0.152053 -0.719218 0.232633
-0.540005 0.054813 0.624573
0.621483 0.441844 -0.152947
-0.539112 0.054270 0.621085
-0.151539 -0.717949 0.233764
-0.152314 -0.717974 0.235126
0.622014 0.056743 0.235122
-0.539488 0.439784 -0.537812
-0.539255 0.440660 0.233690
-0.150973 0.055858 -0.537551
-0.538100 -0.332445 -0.537227
