OFF
256 0 0
-0.522626 0.391264 0.220662
0.615586 -0.693754 0.231696
-0.543113 -0.326644 0.233195
0.626937 0.059516 -0.526787
0.616271 0.022001 0.206789
0.221908 0.424809 -0.547588
0.247214 -0.686374 0.628502
-0.534356 0.047263 -0.144448
0.224814 0.795495 -0.128938
0.221868 0.424484 -0.547971
-0.534482 0.049953 -0.146138
-0.531695 -0.708352 -0.158886
-0.152938 0.819719 -0.519763
-0.133356 0.044433 -0.525066
-0.134619 0.041492 -0.523408
-0.145346 0.411618 0.612805
0.224698 0.796282 -0.126268
0.626599 0.059464 -0.528840
-0.541665 -0.325634 0.231993
0.625568 0.059212 -0.525590
-0.145964 0.412940 0.614230
-0.527300 -0.317339 -0.523035
0.220715 0.426133 -0.548715
-0.152865 0.818184 -0.519289
-0.530992 -0.709765 -0.158541
-0.534512 0.048006 -0.144623
-0.527884 0.436633 -0.506258
-0.528093 0.438440 -0.509683
-0.132908 0.041470 -0.524652
0.252902 0.048791 0.586380
0.232160 -0.680068 -0.135951
0.610050 -0.327464 -0.173615
-0.151616 0.819297 -0.518619
0.629117 0.059392 -0.526289
-0.541083 -0.326911 0.231290
-0.526858 -0.315567 -0.524176
-0.543403 -0.325315 0.234761
0.610439 -0.326464 -0.174144
0.220667 0.425199 -0.547495
-0.146390 0.413165 0.613725
-0.525607 0.391821 0.221137
-0.528633 -0.315581 -0.523688
-0.529810 0.438314 -0.508808
-0.541015 0.055821 0.615452
0.615198 0.021552 0.206608
0.253187 0.047427 0.587343
0.212161 0.435114 0.252964
0.627235 0.058965 -0.526409
0.211960 0.436124 0.252073
-0.141764 -0.681313 0.206341
0.254357 0.048855 0.587179
-0.526984 -0.320417 -0.524540
-0.147097 -0.680060 -0.533984
-0.529585 -0.317942 -0.524238
0.614428 0.020236 0.206601
-0.132738 0.043994 -0.523935
-0.144332 -0.680506 -0.536307
-0.535067 0.048187 -0.144265
0.646950 -0.317752 0.604480
-0.162618 0.813034 0.243704
-0.523169 0.390478 0.219937
0.252373 0.049356 0.586322
0.231573 -0.681692 -0.134238
-0.143939 -0.683632 -0.536720
0.220813 0.425484 -0.548592
0.646029 -0.319343 0.603225
0.226140 0.796720 -0.126757
0.224542 0.796585 -0.127838
-0.143997 -0.680381 0.207645
-0.544029 -0.327038 0.234063
0.220576 0.424100 -0.546503
-0.527227 -0.317740 -0.524640
0.251696 0.048571 0.586157
0.579398 0.417719 -0.148003
-0.532501 0.046464 -0.144727
-0.146376 0.412600 0.613176
-0.152468 0.819360 -0.518068
-0.153019 0.821230 -0.518802
-0.539210 0.055667 0.614771
-0.560599 0.814031 -0.138463
-0.143888 -0.680904 0.207896
-0.145589 -0.680570 0.207674
-0.527282 0.436649 -0.508693
0.237216 -0.316706 -0.530274
-0.532113 0.046509 -0.145076
-0.542289 -0.324961 0.232297
-0.142800 -0.682143 0.207965
-0.145123 0.412192 0.615224
0.237023 -0.315394 -0.527895
-0.146352 -0.681049 -0.537009
-0.528131 0.435576 -0.508217
0.209919 0.436733 0.252028
0.610182 -0.326612 -0.173491
-0.561166 0.815115 -0.139098
-0.531999 0.048954 -0.144711
0.618769 0.021614 0.207132
0.254266 0.048469 0.586822
0.221242 0.424324 -0.546224
-0.529732 0.437396 -0.508684
0.247231 -0.687173 0.627078
0.628047 0.058928 -0.525325
0.578403 0.419084 -0.148076
-0.149793 -0.301295 0.597411
-0.524428 0.391195 0.220962
-0.135932 0.043175 -0.524711
-0.145029 -0.681514 0.208151
-0.135012 0.043195 -0.523533
-0.534684 0.049987 -0.145454
0.611192 -0.326884 -0.172022
-0.542722 -0.325329 0.232005
0.615096 -0.691692 0.231540
0.225685 0.795423 -0.126987
-0.527040 0.436166 -0.510911
-0.151329 -0.299709 0.597124
0.611804 -0.327420 -0.171228
0.211500 0.436150 0.253969
-0.527724 -0.315926 -0.523510
0.646863 -0.316735 0.605542
0.628027 0.058173 -0.527600
0.626212 0.059693 -0.527619
0.626282 0.058404 -0.526273
0.610181 -0.328086 -0.172941
0.617644 0.021993 0.206812
0.627631 0.059816 -0.526037
0.617261 0.021658 0.207082
0.616120 0.021931 0.207228
-0.535125 0.048595 -0.145323
0.253778 0.049711 0.587542
0.627684 0.059892 -0.526265
-0.531662 -0.710244 -0.159470
0.615973 -0.691978 0.232534
-0.541245 0.056418 0.616948
-0.532691 0.048432 -0.143006
-0.541865 0.056772 0.614111
-0.522647 0.391485 0.221806
-0.144648 -0.680998 0.207916
-0.526517 -0.318630 -0.526338
-0.526733 -0.318184 -0.524060
-0.144732 0.412348 0.615090
-0.145517 0.412516 0.613916
-0.136185 0.043552 -0.524343
-0.135760 0.042530 -0.523691
-0.542588 0.055011 0.613866
0.610883 -0.327889 -0.171291
-0.532429 -0.711464 -0.160337
0.579810 0.417892 -0.146325
-0.134966 0.043987 -0.523307
-0.147033 -0.680862 -0.535812
-0.524175 0.390581 0.220578
0.237757 -0.315254 -0.531232
0.255062 0.047564 0.588676
0.616594 -0.692950 0.233107
0.252613 0.047570 0.587342
-0.148025 0.413821 0.615152
-0.152286 0.818648 -0.518447
-0.134330 0.041758 -0.524418
-0.152070 0.819212 -0.519328
-0.150678 -0.301881 0.596306
0.211434 0.434762 0.254487
0.225272 0.796192 -0.126711
-0.542312 0.055387 0.615824
-0.531568 -0.708424 -0.159657
-0.135582 0.043459 -0.524895
0.617057 0.019551 0.204050
-0.528596 0.437146 -0.509378
0.226578 0.794222 -0.127272
-0.142865 -0.680638 0.207748
-0.145261 0.412168 0.614582
0.610384 -0.325751 -0.174277
0.236562 -0.318239 -0.529591
0.648046 -0.318865 0.605833
-0.146218 -0.680412 -0.536465
0.236458 -0.317168 -0.529828
-0.135192 0.043238 -0.523514
0.618658 0.021565 0.207017
0.254534 0.049674 0.587855
0.233481 -0.680375 -0.135741
0.237299 -0.316014 -0.528484
0.617211 0.022035 0.205474
0.611551 -0.326285 -0.173427
0.211859 0.436233 0.253605
0.251641 0.049719 0.587748
-0.148879 -0.300659 0.597434
0.614308 -0.692688 0.230515
0.626539 0.057575 -0.525153
0.579059 0.418376 -0.148136
-0.530599 -0.708997 -0.160966
-0.145340 -0.680169 -0.535299
-0.524067 0.391159 0.221697
0.615904 0.020455 0.207149
0.237464 -0.317042 -0.529210
-0.541363 0.055230 0.614389
-0.543678 -0.327357 0.234169
0.254117 0.048123 0.587649
0.229846 -0.681334 -0.135813
-0.561910 0.814530 -0.139432
-0.541185 0.056421 0.615020
-0.527168 -0.317840 -0.524047
-0.527580 0.436195 -0.508539
-0.534037 0.047633 -0.144385
0.230600 -0.680809 -0.135588
0.254041 0.049188 0.587421
-0.560147 0.815223 -0.138972
-0.543485 -0.327335 0.231695
-0.541327 0.055671 0.615187
-0.143708 -0.680182 0.209850
-0.530235 -0.709646 -0.158803
0.616149 0.020820 0.207847
0.648677 -0.318823 0.606682
-0.533834 0.048716 -0.143431
-0.529456 -0.707845 -0.158742
-0.526308 0.435337 -0.509454
0.247139 -0.687158 0.628427
-0.523588 0.390682 0.220957
-0.528711 -0.318398 -0.524083
0.229994 -0.679264 -0.135873
-0.134786 0.043601 -0.525726
-0.144090 -0.682000 0.207990
-0.147647 -0.680456 -0.535814
0.210332 0.435507 0.252012
-0.145551 -0.680230 -0.535507
-0.540170 0.053862 0.615608
0.231672 -0.678534 -0.135859
-0.147688 -0.681226 -0.537206
-0.528551 -0.316811 -0.523363
0.232418 -0.680750 -0.136041
0.236853 -0.316312 -0.530383
-0.137244 0.044154 -0.525321
-0.542603 0.054336 0.615171
0.255848 0.048624 0.586755
0.246071 -0.686924 0.630430
-0.135635 0.042902 -0.523400
-0.142301 -0.680793 0.208527
-0.150294 -0.299586 0.597888
0.579556 0.417810 -0.148237
-0.533614 0.049156 -0.142689
0.617123 -0.692605 0.231411
0.209450 0.435841 0.251772
-0.137507 0.042238 -0.523048
0.615824 -0.694810 0.231115
-0.523614 0.389505 0.221079
-0.530752 -0.707975 -0.160005
-0.541041 0.056996 0.614625
-0.145469 0.412154 0.612940
-0.541400 0.055769 0.614750
-0.145596 0.410971 0.614644
0.223450 0.424528 -0.550370
0.609832 -0.328251 -0.174475
0.237297 -0.316795 -0.530721
0.230199 -0.680538 -0.136828
-0.143238 -0.681387 0.208354
0.226228 0.795312 -0.129668
-0.529224 -0.709378 -0.159930
0.252496 0.049007 0.587221
0.211637 0.434504 0.252502
-0.146923 -0.681706 -0.536419
