OFF
256 0 0
-0.516425 0.026053 0.619537
-0.534811 0.031464 -0.133343
0.207443 0.814491 -0.160141
0.611674 -0.303546 0.589219
-0.134553 -0.716496 0.227441
-0.509551 -0.302987 0.237157
0.624343 0.439721 -0.150045
-0.137189 0.064427 -0.489775
0.225732 -0.311346 -0.504244
-0.533058 0.031407 -0.132214
0.224196 -0.310801 -0.503064
-0.520606 0.833949 -0.145239
-0.178712 0.795384 0.223280
0.613202 -0.305932 0.586299
0.613288 -0.304939 0.586845
-0.510753 0.440572 -0.519084
-0.540308 0.449761 0.237945
-0.508993 0.441570 -0.519282
-0.162128 -0.696490 -0.508712
-0.179004 0.796314 0.223149
-0.513163 -0.695974 -0.138057
0.225902 -0.312630 -0.501845
-0.140725 0.066401 -0.489931
-0.155133 0.415172 0.588993
-0.542966 0.448143 0.236736
-0.517525 0.027542 0.619193
-0.137361 0.063959 -0.491266
-0.138759 -0.342073 0.594033
-0.535553 0.029719 -0.133323
-0.517844 0.026029 0.620374
0.213314 0.445495 -0.518181
-0.160016 0.822691 -0.548409
0.231491 0.437332 0.216696
-0.139363 0.065279 -0.488881
-0.510192 0.443118 -0.517077
0.232616 0.437670 0.217909
-0.159166 0.822165 -0.548662
-0.511440 0.442812 -0.518302
-0.524166 0.833761 -0.143947
-0.179552 0.794659 0.221671
0.208669 0.813828 -0.159949
0.619935 0.439583 -0.150672
0.616611 0.045461 -0.540125
-0.155015 0.415549 0.586662
-0.155209 0.414121 0.587851
0.215085 0.447242 -0.519077
-0.520782 -0.315139 -0.489415
0.226605 -0.314375 -0.502800
0.233043 0.438557 0.218395
-0.135958 -0.715904 0.225733
0.215718 0.445459 -0.520517
0.224092 0.069387 0.592239
0.222644 0.067650 0.593473
-0.508132 -0.302395 0.238175
0.237718 -0.709854 0.610597
-0.520728 -0.315367 -0.489825
-0.535052 0.031035 -0.132078
-0.177660 0.795442 0.224975
-0.178789 0.795705 0.221762
0.232037 0.438788 0.216115
-0.510969 0.441281 -0.518995
-0.162454 -0.695305 -0.506652
0.226668 -0.312266 -0.503907
0.219881 -0.717105 -0.163710
-0.542028 0.449093 0.237964
-0.542419 0.451107 0.237880
-0.541785 0.450637 0.238885
0.205999 0.812841 -0.159806
0.213173 0.447197 -0.519748
-0.159344 0.821483 -0.547987
-0.141506 0.064682 -0.492520
0.613660 -0.304112 0.585122
0.613874 -0.715564 0.238281
0.584392 0.036405 0.194652
0.622777 0.438362 -0.150844
0.623545 0.437175 -0.149721
0.212327 0.447032 -0.519091
-0.521814 -0.315196 -0.490447
-0.540930 0.448983 0.237601
-0.510495 0.441573 -0.519020
0.626614 -0.341329 -0.160072
0.206215 0.813645 -0.159696
0.618246 0.047533 -0.540930
0.215640 0.447644 -0.518379
-0.508878 -0.299806 0.236526
0.221767 0.068826 0.592166
-0.155042 0.414875 0.587486
0.205559 0.814046 -0.161397
-0.510596 -0.301410 0.238151
0.208280 0.813708 -0.159896
-0.523337 0.834851 -0.145548
-0.179074 0.795354 0.222685
-0.156557 0.414323 0.586577
-0.158387 0.818453 -0.547708
0.618821 0.044736 -0.539980
-0.521833 -0.316385 -0.491324
0.230915 0.436747 0.218420
-0.162840 -0.694434 -0.508496
0.620116 0.045856 -0.539247
-0.509075 -0.301549 0.236901
-0.533064 0.031506 -0.131243
0.237860 -0.709029 0.607279
-0.139380 0.065626 -0.492956
0.617004 0.045483 -0.539228
0.613003 -0.305794 0.588357
-0.162832 -0.696745 -0.507956
0.618616 0.047851 -0.540407
0.224336 -0.309853 -0.503204
-0.515555 0.026588 0.618964
0.219614 -0.717616 -0.161656
-0.542422 0.450332 0.237311
-0.177262 0.796143 0.223666
-0.532978 0.030911 -0.130512
-0.178959 0.796154 0.224593
0.226168 -0.311673 -0.503259
0.220336 -0.719665 -0.161302
0.626978 -0.339979 -0.161773
-0.162594 -0.694809 -0.508182
-0.519911 0.026471 0.619740
0.232792 0.437374 0.217239
-0.521168 -0.315251 -0.489032
-0.136664 -0.717278 0.224640
0.618513 0.044721 -0.537316
-0.136356 0.065552 -0.489659
-0.519862 -0.317461 -0.490310
-0.160877 -0.697503 -0.508660
-0.519265 0.026887 0.622367
0.617121 0.045908 -0.541199
-0.540994 0.450009 0.238965
0.232255 0.438883 0.219321
-0.520923 0.833864 -0.144104
0.622512 0.439812 -0.151014
0.618963 0.045733 -0.539053
-0.154589 0.414632 0.588034
-0.535544 0.032232 -0.131863
-0.511261 0.440573 -0.518649
-0.509058 0.441434 -0.518064
0.611215 -0.304468 0.587367
-0.533576 0.030649 -0.131064
-0.508710 -0.301173 0.235948
-0.163325 -0.695144 -0.507971
0.207348 0.814623 -0.160454
-0.510064 -0.300851 0.237220
0.627822 -0.340808 -0.158608
-0.137467 0.066538 -0.490326
-0.542199 0.449758 0.239265
-0.139039 -0.343120 0.593572
-0.140012 0.065566 -0.491600
0.208172 0.813655 -0.159217
-0.159957 0.819815 -0.551107
-0.136227 -0.715587 0.225272
-0.159219 0.823095 -0.548711
0.220818 -0.718894 -0.161564
-0.508571 0.441194 -0.518552
0.226346 -0.312878 -0.500718
0.218552 -0.719936 -0.162471
-0.134385 -0.718489 0.227164
0.612061 -0.305168 0.585794
0.238609 -0.709610 0.608243
-0.518429 0.028473 0.620936
0.621928 0.439615 -0.151491
0.233124 0.436819 0.217433
-0.511406 -0.694654 -0.138810
-0.155477 0.412773 0.587224
0.238503 -0.708112 0.609870
-0.157573 0.821141 -0.547273
0.619718 0.046769 -0.539580
-0.162718 -0.693976 -0.508532
-0.139587 0.063646 -0.490593
0.237382 -0.706903 0.608906
-0.537135 0.033591 -0.130794
0.618575 0.044497 -0.540636
0.213522 0.448243 -0.518668
0.222136 0.067342 0.592589
0.221582 0.067912 0.593588
-0.162908 -0.694954 -0.509273
0.207230 0.814646 -0.160241
-0.134157 -0.717601 0.224555
-0.133529 -0.718058 0.226656
0.225711 -0.312404 -0.504902
0.224667 -0.311596 -0.501737
0.619338 0.045623 -0.539458
-0.512825 -0.695544 -0.139317
0.615221 -0.716419 0.240043
0.219911 -0.720056 -0.161082
-0.510852 0.441202 -0.520769
0.618099 0.046091 -0.539883
-0.177585 0.795731 0.221607
-0.154282 0.414408 0.586871
0.627340 -0.340852 -0.161172
0.238325 -0.707317 0.607734
-0.521774 -0.314555 -0.490126
-0.521617 0.833784 -0.144065
-0.178854 0.796511 0.224032
0.237376 -0.707835 0.608393
-0.508007 -0.300982 0.237802
-0.136854 0.064341 -0.489045
0.226130 -0.313141 -0.503712
0.221109 0.067730 0.595115
-0.509013 -0.300790 0.237959
0.621785 0.439690 -0.149317
-0.509935 0.440913 -0.519409
0.213373 0.445903 -0.519717
-0.512803 -0.694837 -0.138993
0.221792 -0.718440 -0.163808
-0.134839 -0.716508 0.225561
0.214916 0.446319 -0.519239
-0.512014 -0.694132 -0.138790
0.585110 0.035010 0.194273
-0.164334 -0.694035 -0.508679
-0.542636 0.450290 0.238293
0.584852 0.035691 0.193817
0.219329 -0.718241 -0.163300
-0.508555 -0.303350 0.238199
-0.512428 -0.694798 -0.138521
-0.138604 -0.344029 0.592385
-0.540823 0.449303 0.239669
0.613017 -0.715006 0.237961
0.612762 -0.302751 0.587392
-0.509644 0.440575 -0.520112
0.621557 0.439831 -0.148716
-0.179056 0.796364 0.222582
0.627875 -0.339119 -0.159586
0.627230 -0.340194 -0.159074
0.212224 0.448729 -0.519614
0.222367 0.067336 0.592197
-0.142232 0.064455 -0.490557
-0.137806 -0.343122 0.591821
-0.513667 -0.694872 -0.137610
-0.512612 -0.694758 -0.136821
-0.509436 0.442310 -0.517973
-0.512047 -0.696254 -0.138156
-0.178329 0.795360 0.221767
0.628476 -0.340584 -0.158290
-0.138584 0.065654 -0.492206
-0.541746 0.450962 0.237666
-0.178339 0.796771 0.223513
-0.138740 -0.343556 0.593643
0.238080 -0.707303 0.608726
-0.540808 0.450358 0.238886
-0.535801 0.033031 -0.132007
-0.158107 0.822292 -0.548027
-0.158479 0.820047 -0.548209
-0.159610 0.821406 -0.548115
0.611263 -0.304118 0.588212
-0.155455 0.414950 0.586128
0.220894 -0.720555 -0.162691
-0.137216 -0.344556 0.594412
0.213568 0.446868 -0.519473
-0.136541 -0.342689 0.592316
0.233992 0.437718 0.218784
-0.178648 0.796960 0.224373
0.208417 0.813410 -0.161474
0.584720 0.036509 0.196085
0.583327 0.034157 0.193937
-0.156964 0.819735 -0.548733
