OFF
256 0 0
-0.126285 0.790070 -0.518618
-0.128194 -0.712922 -0.515158
-0.140772 0.431048 0.601843
-0.527920 0.834867 -0.154504
-0.523293 0.039292 -0.139456
0.592452 -0.689747 0.237627
0.595625 0.014104 0.236248
-0.492332 0.447572 0.193466
0.226034 0.847934 -0.137447
-0.145267 0.034381 -0.519048
0.228556 0.405046 -0.507256
-0.140461 0.430577 0.603980
0.226684 0.846826 -0.137079
-0.136139 -0.299864 0.599471
-0.556365 -0.320606 -0.550541
-0.530228 -0.693258 -0.152412
0.227341 0.406199 -0.504726
-0.128767 0.790726 -0.516133
-0.150288 -0.692485 0.214766
-0.134510 -0.298861 0.601023
-0.522894 0.076851 0.573963
-0.522047 0.040935 -0.142144
0.229061 -0.707567 -0.148176
-0.526228 0.836488 -0.155829
0.229927 -0.706621 -0.149504
-0.543607 -0.317168 0.248617
0.222055 -0.333868 -0.532088
0.571762 0.422073 -0.141795
0.228008 0.406206 -0.507463
-0.130059 -0.711328 -0.514420
0.616523 -0.341917 -0.166899
-0.135716 -0.298760 0.601462
0.247025 0.054753 0.629783
-0.541387 -0.317371 0.248911
-0.523368 0.076936 0.575473
-0.128807 -0.714090 -0.515715
0.594919 0.013926 0.234769
0.220816 -0.336929 -0.533052
0.247293 0.056012 0.629215
-0.139452 0.432136 0.603350
0.229583 0.404670 -0.506086
0.205762 -0.689030 0.625186
-0.543529 -0.316923 0.249233
-0.543022 -0.317819 0.249158
-0.130283 0.821391 0.214753
-0.149684 -0.692411 0.213801
0.573660 0.422408 -0.140042
0.247436 0.052652 0.631971
-0.134798 -0.300030 0.599896
0.226917 0.846029 -0.136928
-0.529893 -0.695261 -0.153570
-0.128776 -0.711313 -0.515829
-0.531499 -0.696106 -0.153175
0.572513 0.420995 -0.142090
-0.128550 0.791123 -0.517697
-0.146394 0.035873 -0.519043
-0.521443 0.041603 -0.141897
0.230746 0.449160 0.247558
0.228928 0.449099 0.243783
0.635055 -0.342027 0.616519
-0.538789 0.429426 -0.522832
-0.523988 0.075260 0.575484
0.634688 -0.342069 0.613845
0.225898 0.846591 -0.137320
0.634885 -0.340536 0.615430
0.206069 -0.691113 0.624244
0.208047 -0.689310 0.625993
-0.526428 0.834617 -0.157153
0.593750 0.043435 -0.523586
0.635406 -0.340922 0.615663
0.633543 -0.341545 0.615437
-0.541759 -0.317215 0.248941
-0.128827 0.790634 -0.518251
0.229961 0.404338 -0.507219
-0.530100 -0.694962 -0.152028
-0.521843 0.078280 0.575539
-0.144566 0.034605 -0.521104
-0.152387 -0.693131 0.214926
-0.530931 -0.694429 -0.152922
0.206844 -0.689506 0.625103
0.595509 0.012992 0.237943
0.572900 0.423934 -0.143410
0.206318 -0.689393 0.625074
-0.539275 0.429003 -0.524313
0.227987 0.404157 -0.507512
-0.125522 0.791095 -0.517604
0.220425 -0.335877 -0.532432
-0.130025 0.819728 0.214321
0.231025 0.405616 -0.505468
-0.147352 0.033291 -0.518692
-0.150622 -0.693199 0.213986
0.229812 0.448893 0.245275
0.229044 0.448764 0.244403
0.594032 -0.689139 0.235915
-0.151537 -0.692001 0.211933
-0.132289 0.818605 0.215772
0.573751 0.421584 -0.141696
-0.542804 -0.318590 0.249227
-0.540248 0.429616 -0.523028
0.247603 0.053203 0.630533
-0.139873 0.431794 0.604630
0.248590 0.054537 0.630963
-0.151079 -0.692111 0.214990
-0.145993 0.034765 -0.520128
0.595221 -0.689847 0.237541
0.636232 -0.338962 0.614896
-0.554371 -0.319955 -0.549157
-0.528149 0.834195 -0.155602
-0.149839 -0.693177 0.213488
0.594536 -0.687406 0.237484
-0.129587 0.791068 -0.515505
-0.492410 0.446350 0.193042
-0.556993 -0.319596 -0.548087
-0.126751 -0.712522 -0.517088
0.221618 -0.335418 -0.532275
0.229544 -0.707893 -0.147073
-0.556742 -0.319695 -0.550294
-0.524727 0.041442 -0.141623
-0.554870 -0.318221 -0.548765
0.596446 0.013681 0.235565
0.206111 -0.691601 0.622782
0.248597 0.054906 0.632507
-0.526184 0.834709 -0.155372
-0.129647 -0.713291 -0.517673
0.226273 0.847849 -0.136829
0.228952 0.447284 0.245762
-0.527377 0.833429 -0.155730
-0.532289 -0.695236 -0.152868
-0.130326 0.790774 -0.515787
0.570608 0.423856 -0.142485
-0.150763 -0.692196 0.213928
0.616984 -0.344111 -0.166782
0.571193 0.421198 -0.141227
-0.129220 0.789945 -0.517479
-0.148866 -0.693059 0.213640
0.593028 0.043667 -0.525286
0.227258 0.407542 -0.506005
0.594277 -0.690262 0.237621
0.230322 -0.707539 -0.148801
0.636777 -0.342256 0.614459
0.593528 -0.688732 0.235467
-0.543165 -0.317498 0.248711
-0.493084 0.444419 0.192573
0.228040 0.404869 -0.507600
-0.139443 0.433455 0.604923
-0.523409 0.077417 0.574762
-0.522484 0.041690 -0.140625
-0.526742 0.836086 -0.154956
-0.127080 0.790981 -0.516937
0.204655 -0.689515 0.623410
-0.538415 0.428862 -0.524004
0.620179 -0.342631 -0.165201
-0.140004 0.431648 0.603404
0.573756 0.421621 -0.142930
-0.135582 -0.298248 0.598718
0.244653 0.054570 0.630712
0.594393 0.014979 0.236941
0.571399 0.422354 -0.139571
-0.555158 -0.318124 -0.550113
-0.523923 0.076133 0.575754
0.230640 -0.708969 -0.149361
-0.491834 0.446615 0.193783
0.205920 -0.689263 0.625264
0.633101 -0.341985 0.615367
0.618119 -0.341514 -0.167199
-0.151772 -0.691291 0.214219
-0.521978 0.041710 -0.140134
-0.151359 -0.691808 0.213983
-0.136288 -0.300209 0.599426
-0.491782 0.446184 0.193132
-0.530920 -0.693821 -0.153177
0.592989 0.045019 -0.524947
-0.146267 0.033890 -0.521219
0.230055 0.450279 0.244711
-0.523285 0.041296 -0.139960
0.229951 0.448522 0.244929
-0.128667 0.791670 -0.515881
0.569932 0.424257 -0.140192
-0.522375 0.041519 -0.140813
0.572476 0.423063 -0.140594
0.226685 0.847865 -0.138597
0.228154 0.404638 -0.508622
0.231049 0.450554 0.242779
-0.127795 0.789442 -0.515986
-0.556230 -0.318964 -0.551084
-0.542230 0.428368 -0.523389
0.207325 -0.689904 0.621175
-0.492022 0.449534 0.191651
0.594502 -0.686548 0.235487
0.594729 -0.689794 0.236401
0.230990 0.449484 0.243925
0.573138 0.420360 -0.140232
-0.130657 0.820213 0.215094
-0.129780 0.821115 0.213861
-0.131684 0.819051 0.216508
0.575038 0.423062 -0.141766
-0.526575 0.838771 -0.156598
-0.140833 0.434343 0.604924
-0.136295 -0.299506 0.599150
0.228695 -0.707199 -0.147848
-0.149070 -0.694139 0.212247
-0.523478 0.040870 -0.141384
0.593212 -0.688840 0.236970
0.228622 0.448885 0.242855
0.591878 0.046112 -0.525368
0.617856 -0.342553 -0.167894
-0.139248 0.431257 0.603177
-0.146155 0.035537 -0.521764
-0.140587 0.432727 0.604423
-0.140435 0.433114 0.603727
-0.128513 0.790781 -0.518457
-0.129927 0.818467 0.214380
-0.147413 0.034168 -0.520643
0.204651 -0.690022 0.626231
-0.146212 0.035161 -0.519481
0.228849 0.406226 -0.505339
-0.542161 -0.318667 0.249338
-0.146597 0.037731 -0.517684
-0.141374 0.434016 0.604385
-0.145611 0.036582 -0.517774
0.248245 0.054892 0.629380
-0.127205 0.790589 -0.516782
0.245961 0.056065 0.629247
-0.150949 -0.693022 0.212923
-0.522314 0.075542 0.576010
-0.526785 0.834627 -0.156775
0.229466 0.448821 0.245037
0.617873 -0.343894 -0.165722
-0.491410 0.448162 0.192267
-0.127871 -0.712187 -0.516413
0.635422 -0.340205 0.615581
-0.151897 -0.692647 0.212553
-0.522809 0.075976 0.576421
0.226553 0.848049 -0.136231
-0.490722 0.445404 0.192552
-0.139672 0.431388 0.602073
0.221226 -0.334347 -0.532224
0.228773 -0.707160 -0.148140
0.636107 -0.342447 0.614717
-0.141064 0.431919 0.604445
0.593488 0.014663 0.236971
0.616934 -0.343536 -0.166154
-0.139469 0.433646 0.602533
0.636328 -0.340527 0.615524
-0.557931 -0.319895 -0.550975
-0.142481 0.432367 0.602542
0.230088 -0.705951 -0.148096
0.229272 0.405321 -0.504535
-0.129285 0.789667 -0.517186
-0.532293 -0.695150 -0.152580
-0.531187 -0.694671 -0.152455
-0.130603 0.819388 0.213480
-0.541745 0.427599 -0.524953
-0.543816 -0.318704 0.248064
0.634757 -0.341677 0.615757
-0.521921 0.077068 0.575420
