OFF
256 0 0
-0.004556 -0.705194 0.220380
0.515747 0.704675 0.216399
-0.483897 -0.241530 -0.722610
0.012777 0.701060 -0.210419
-0.473288 0.243369 0.698673
-0.496065 0.217473 -0.232042
-0.008198 0.700938 0.713461
-0.505951 -0.696066 -0.253562
0.454760 0.261677 0.711927
-0.483536 -0.242097 -0.720505
0.514553 0.704451 0.219485
0.028980 0.234706 -0.739354
-0.008673 0.699506 0.712427
0.514804 0.704328 0.218497
-0.492529 0.217309 -0.232631
-0.003891 -0.217058 0.703151
-0.008097 0.700481 0.713391
0.457176 0.261671 0.711763
0.482950 -0.226523 0.248499
0.462965 -0.691823 -0.217776
-0.481116 -0.241918 -0.720026
0.030934 -0.733214 -0.671794
-0.007530 0.700187 0.716496
-0.505569 -0.697281 -0.255351
0.012784 0.699068 -0.212202
0.481237 -0.226517 0.247541
-0.493737 0.216576 -0.232214
-0.006049 -0.218714 0.705189
-0.009201 0.698600 0.714895
0.480972 -0.227098 0.248438
-0.009567 0.699781 0.713809
-0.487970 -0.246012 0.227818
0.514675 0.704239 0.219477
-0.483470 -0.242015 -0.719877
0.463758 -0.692998 -0.220411
-0.494797 0.217971 -0.233441
0.521950 0.249252 -0.238978
-0.479724 0.695906 0.251222
-0.494323 0.217356 -0.232273
-0.507120 -0.698788 -0.256849
0.013345 0.701707 -0.211602
0.523246 0.250014 -0.237893
0.027833 0.233874 -0.737602
-0.489396 -0.244596 0.229178
0.513167 0.704194 0.218755
0.439433 -0.245616 -0.708119
-0.008670 0.699063 0.712782
0.455467 0.261545 0.714440
-0.494214 0.215808 -0.232689
-0.008574 0.698136 0.714428
0.027772 0.236319 -0.738079
-0.008184 -0.218461 0.702702
0.014021 0.699690 -0.212217
0.464771 -0.692903 -0.219794
-0.483874 -0.241897 -0.720738
-0.474410 0.241096 0.696103
0.010363 0.700630 -0.211272
0.480311 -0.225534 0.248759
-0.481360 0.695132 0.251958
0.028696 0.234210 -0.740132
0.438499 -0.245658 -0.706265
-0.483086 -0.241282 -0.719578
0.032264 -0.732383 -0.670367
-0.489949 -0.245998 0.225972
-0.480377 0.694289 0.251764
0.464620 -0.694640 -0.217720
-0.484131 -0.241186 -0.720757
-0.483387 -0.240353 -0.721764
0.011357 0.701596 -0.210062
0.522007 0.247458 -0.237885
0.031438 -0.732362 -0.670649
-0.480630 -0.241389 -0.722283
0.031241 -0.731762 -0.672952
-0.009070 0.700547 0.714561
-0.007025 -0.706971 0.221797
0.512295 0.704141 0.219598
0.031743 -0.732661 -0.670993
0.515345 0.704441 0.219097
-0.009399 0.700005 0.715812
0.439033 -0.248154 -0.707580
-0.005619 -0.705703 0.221886
-0.473817 0.240901 0.698136
0.012909 0.702511 -0.211664
0.438897 -0.245529 -0.709098
-0.008354 0.700761 0.713954
-0.496079 0.217633 -0.232232
-0.475938 0.242498 0.700100
0.480072 -0.227566 0.248514
0.454426 0.261202 0.713478
0.011849 0.699674 -0.212088
-0.482080 -0.241515 -0.721607
-0.487349 -0.245533 0.226995
0.520698 0.250248 -0.240457
-0.488778 -0.246561 0.227258
0.455790 0.258788 0.713289
0.516773 0.704321 0.218806
0.514673 0.704127 0.216257
-0.493777 0.216972 -0.232254
-0.003979 -0.217011 0.704023
-0.005868 -0.706839 0.222413
-0.006054 -0.216686 0.704004
0.012503 0.702630 -0.210208
-0.002980 -0.704716 0.223166
-0.481732 -0.243434 -0.721170
0.032854 -0.732715 -0.672452
-0.494431 0.218477 -0.230115
-0.506486 -0.697526 -0.253461
-0.010391 0.698809 0.714217
-0.488657 -0.245217 0.228216
0.455142 0.259459 0.713227
-0.006261 -0.217274 0.702074
-0.480178 0.697081 0.253684
-0.494689 0.216345 -0.233081
0.013488 0.701322 -0.212871
0.515006 0.703479 0.217183
0.520331 0.249619 -0.240408
-0.493570 0.219022 -0.232298
-0.488344 -0.244650 0.227336
0.480810 -0.225690 0.248271
-0.006003 -0.217238 0.702809
0.478536 -0.227215 0.246766
0.455471 0.258492 0.713134
-0.479765 0.697108 0.250235
-0.006567 -0.218448 0.702976
-0.489666 -0.246344 0.228159
0.032654 -0.733399 -0.669120
0.515444 0.704954 0.220126
-0.484250 -0.242598 -0.720965
-0.476403 0.243861 0.698908
-0.481027 0.696083 0.252399
0.029836 0.234928 -0.738337
-0.494320 0.218743 -0.232638
-0.006630 -0.217899 0.703181
0.456723 0.261494 0.713459
-0.506930 -0.697089 -0.254621
-0.493060 0.218990 -0.232966
-0.479659 0.696196 0.250725
0.455192 0.261817 0.712606
-0.494783 0.219376 -0.230748
0.514138 0.704500 0.216628
0.480324 -0.227384 0.248486
-0.488490 -0.244464 0.228438
-0.007464 -0.219501 0.702156
0.481153 -0.227872 0.249738
-0.492989 0.216085 -0.232874
0.012363 0.701198 -0.212700
-0.007426 -0.706094 0.220883
0.028459 0.234311 -0.738531
-0.474913 0.242750 0.700670
0.482110 -0.225369 0.247650
0.478598 -0.225733 0.249099
0.456008 0.260200 0.713465
-0.487577 -0.245264 0.227941
-0.493711 0.219336 -0.232296
0.480457 -0.227184 0.248782
0.514641 0.704139 0.217243
-0.480485 0.696421 0.250713
0.012393 0.700363 -0.209833
-0.008304 0.698956 0.712989
-0.007940 -0.705036 0.223067
0.028338 0.233875 -0.739470
-0.492924 0.217719 -0.231875
-0.507858 -0.698136 -0.254982
0.012210 0.701268 -0.210924
-0.495434 0.217515 -0.232816
-0.494301 0.216823 -0.232482
-0.489010 -0.243702 0.229325
-0.506173 -0.697296 -0.254736
0.439279 -0.245001 -0.708546
0.027480 0.233318 -0.738544
0.463638 -0.691705 -0.218864
0.454932 0.261177 0.713594
0.463344 -0.692159 -0.219550
-0.495429 0.217462 -0.233454
0.514727 0.704330 0.218540
0.454591 0.260907 0.714642
0.457142 0.260446 0.714304
0.029628 -0.733155 -0.670986
-0.009039 0.700675 0.712945
0.463147 -0.692945 -0.221034
-0.008612 -0.217268 0.701977
-0.493574 0.216558 -0.233915
0.440416 -0.246570 -0.709154
-0.493615 0.218431 -0.231485
-0.494262 0.217648 -0.232859
0.437140 -0.247561 -0.709110
0.456466 0.260306 0.714243
0.462257 -0.692983 -0.222097
0.012373 0.701194 -0.212808
0.522828 0.248822 -0.238920
0.029454 0.234190 -0.738700
-0.508120 -0.696612 -0.254299
-0.480761 0.695402 0.253256
0.439514 -0.246403 -0.707161
-0.007278 -0.707564 0.222579
-0.474996 0.243262 0.699941
0.014720 0.700116 -0.213795
0.457214 0.262251 0.712868
-0.009220 0.699612 0.714182
-0.495620 0.216836 -0.232444
0.522015 0.249447 -0.239758
-0.492627 0.217560 -0.232613
-0.005004 -0.706167 0.221868
-0.006487 -0.707453 0.220666
-0.006665 -0.216889 0.703822
0.479863 -0.226312 0.248701
0.439713 -0.247912 -0.709274
-0.005565 -0.705091 0.223266
0.026408 0.234887 -0.738298
-0.484293 -0.243116 -0.720941
0.521920 0.249707 -0.238815
-0.493389 0.216764 -0.232034
-0.475392 0.241662 0.697368
-0.480770 0.696193 0.251499
-0.507229 -0.699112 -0.253468
0.456641 0.260378 0.714184
0.464565 -0.691973 -0.219617
-0.006417 -0.216212 0.702970
0.027554 0.233857 -0.740323
0.480160 -0.227814 0.247682
-0.491943 0.219121 -0.231946
0.481075 -0.226670 0.247467
0.522314 0.249414 -0.239143
0.011574 0.701716 -0.210831
-0.475419 0.242231 0.699229
-0.479240 0.696545 0.252274
-0.479296 0.696745 0.250316
0.027428 0.234492 -0.739067
0.481986 -0.226197 0.248698
0.438424 -0.247868 -0.708072
-0.008759 0.698374 0.714999
-0.474088 0.241796 0.700115
-0.006583 -0.217521 0.703457
-0.489656 -0.244794 0.228778
-0.474117 0.243273 0.698918
-0.481384 0.695091 0.251834
0.439076 -0.247971 -0.708811
-0.008448 0.698913 0.712822
0.030842 -0.733129 -0.670934
0.029819 0.236468 -0.740835
-0.004894 -0.217397 0.703409
-0.007194 -0.216875 0.703295
0.030163 -0.732274 -0.670814
-0.507951 -0.697919 -0.255947
0.438054 -0.246892 -0.709460
0.521075 0.248030 -0.239506
0.479144 -0.226628 0.250984
0.437115 -0.246900 -0.708659
-0.009322 0.701902 0.712377
-0.482703 -0.242434 -0.722073
-0.493725 0.215035 -0.231450
-0.505560 -0.698734 -0.254304
-0.475767 0.243819 0.697076
0.520699 0.250187 -0.239534
-0.490371 -0.247063 0.227094
0.457616 0.260973 0.713418
