OFF
256 0 0
0.648119 0.023004 -0.652596
-0.706430 -0.698014 -0.023559
0.024516 0.683184 0.727547
-0.025153 -0.675385 0.622404
-0.024200 -0.674386 0.621150
0.645597 0.022714 -0.651124
0.047731 -0.677564 -0.687130
0.695076 -0.015854 0.686653
-0.000338 0.667806 -0.740593
0.001271 0.669720 -0.740549
0.646067 0.022141 -0.651866
-0.707102 -0.699242 -0.023802
0.645492 0.023886 -0.651934
-0.723897 0.008962 0.689249
0.689180 -0.689001 0.028618
0.645738 0.023189 -0.649073
0.688877 -0.689027 0.027093
0.677302 0.721085 0.007886
0.678784 0.722525 0.007177
-0.654684 0.003330 -0.685154
-0.655214 0.003332 -0.685155
-0.708158 -0.702245 -0.024556
0.000896 0.668731 -0.739458
0.643870 0.023349 -0.649811
0.646220 0.022689 -0.650703
-0.704278 -0.700185 -0.023225
-0.722477 0.010895 0.691779
0.689933 -0.688910 0.029092
0.693115 -0.014797 0.685417
-0.670122 0.651998 0.022074
0.689923 -0.688510 0.029966
-0.000947 0.668258 -0.739846
0.695029 -0.014913 0.689707
0.048893 -0.678726 -0.685963
0.048160 -0.678636 -0.684844
-0.022652 -0.675794 0.622060
-0.707016 -0.699149 -0.022678
-0.707618 -0.701489 -0.024222
0.645308 0.024008 -0.651007
-0.654482 0.002831 -0.683907
-0.670214 0.650166 0.021866
0.645369 0.023375 -0.650467
0.679620 0.720892 0.010317
0.003107 0.668021 -0.739498
-0.654191 0.003121 -0.684835
0.024397 0.683594 0.727555
0.000191 0.668587 -0.740412
0.678347 0.719851 0.009540
0.024978 0.684519 0.725873
-0.723560 0.007293 0.688625
0.679036 0.720301 0.011672
-0.002306 0.669012 -0.739666
0.047772 -0.677020 -0.687203
-0.651730 0.003468 -0.686152
0.000439 0.666396 -0.742735
0.644903 0.023318 -0.650747
-0.722683 0.009363 0.689349
0.691974 -0.016148 0.689369
-0.024334 -0.674951 0.621606
-0.725441 0.009455 0.690509
-0.022559 -0.675172 0.621882
0.644571 0.021099 -0.651750
0.680278 0.721222 0.009560
0.024925 0.682263 0.727733
-0.723172 0.009930 0.689471
0.646895 0.022371 -0.650645
-0.672204 0.649494 0.021906
0.678233 0.722518 0.007952
-0.024649 -0.674443 0.622349
0.644674 0.023294 -0.651497
0.680168 0.720126 0.008899
-0.705907 -0.701291 -0.024920
-0.669434 0.651713 0.021345
0.678917 0.721995 0.009056
0.692898 -0.015588 0.687795
0.693867 -0.016884 0.687834
0.688203 -0.689755 0.028446
-0.653733 0.002615 -0.686056
-0.722306 0.008999 0.687716
0.646104 0.024302 -0.651961
0.645620 0.022679 -0.653258
0.691640 -0.015644 0.688227
-0.725365 0.009775 0.690179
0.689690 -0.690349 0.028246
0.645309 0.023239 -0.651937
0.689208 -0.688158 0.029761
-0.725409 0.009117 0.688555
-0.706891 -0.700167 -0.022218
0.000896 0.666915 -0.741200
0.048109 -0.679009 -0.685779
-0.707812 -0.702596 -0.024370
0.023132 0.684011 0.726706
0.025141 0.685634 0.727628
-0.707388 -0.701528 -0.023887
-0.024039 -0.675455 0.621736
-0.023420 -0.675598 0.621873
0.678699 0.719874 0.009829
-0.723581 0.009518 0.687363
0.693374 -0.015253 0.687691
0.692909 -0.015651 0.689231
0.048635 -0.680471 -0.686781
-0.000611 0.666705 -0.740096
0.695082 -0.014575 0.687630
-0.668334 0.651178 0.022410
-0.655537 0.002385 -0.682972
0.047464 -0.680026 -0.685929
-0.000482 0.666262 -0.739922
0.644847 0.024055 -0.651133
-0.725251 0.008320 0.690139
-0.653140 0.002398 -0.682747
-0.668915 0.649977 0.021577
-0.025104 -0.676374 0.621284
0.024286 0.684885 0.725715
-0.023261 -0.673196 0.622171
0.048769 -0.679069 -0.685820
0.022362 0.683267 0.727356
0.678689 0.721554 0.008271
0.693992 -0.016384 0.689089
-0.667847 0.648430 0.021467
-0.654623 0.004117 -0.685353
-0.670184 0.650494 0.022484
0.024780 0.684110 0.725357
-0.001738 0.668230 -0.740461
0.644947 0.023186 -0.649520
-0.024550 -0.672950 0.623082
-0.724972 0.008401 0.689755
0.688137 -0.689704 0.028937
0.679286 0.720821 0.007900
-0.724046 0.008076 0.689328
-0.670974 0.649662 0.024825
0.677018 0.720572 0.007221
0.679457 0.723082 0.009302
0.694189 -0.014596 0.686959
-0.023648 -0.674817 0.621593
0.023649 0.684199 0.727795
-0.653367 0.002396 -0.685294
-0.671245 0.650268 0.022818
-0.723521 0.007809 0.691474
0.688037 -0.687658 0.028498
0.001578 0.667158 -0.739265
0.678570 0.721400 0.008245
-0.724094 0.009755 0.692305
0.688473 -0.690291 0.029075
-0.707855 -0.700264 -0.023495
0.646020 0.020308 -0.651923
0.646513 0.024374 -0.651004
-0.724317 0.008391 0.689069
0.693715 -0.015425 0.691123
-0.023861 -0.675374 0.621718
0.693113 -0.014042 0.688022
0.693706 -0.014138 0.688945
-0.725661 0.010233 0.689066
-0.670786 0.650293 0.022828
-0.725032 0.008421 0.689817
-0.023598 -0.672824 0.620193
0.693739 -0.015247 0.687908
-0.670747 0.649724 0.021408
0.000870 0.667274 -0.740461
-0.724751 0.009413 0.691134
-0.652878 0.001486 -0.685363
0.692059 -0.017536 0.689071
-0.024206 -0.676200 0.619857
0.025863 0.684202 0.728024
-0.723833 0.009368 0.690435
0.688219 -0.687297 0.028673
0.645606 0.022672 -0.649121
-0.001063 0.667524 -0.741427
-0.024768 -0.674007 0.621095
0.679320 0.721859 0.009403
0.024323 0.683298 0.726316
0.645768 0.022866 -0.651269
-0.000137 0.667386 -0.739330
-0.001610 0.669115 -0.743061
-0.023386 -0.675145 0.621145
-0.024410 -0.675303 0.620909
-0.023837 -0.673258 0.620692
-0.709475 -0.700056 -0.025478
0.046489 -0.679228 -0.686572
0.681059 0.720112 0.008384
0.688216 -0.688916 0.029257
0.025269 0.683758 0.726081
-0.723687 0.008623 0.690914
0.001323 0.667742 -0.739924
-0.670593 0.650483 0.021892
-0.022960 -0.675549 0.621450
0.024448 0.685401 0.727311
0.024245 0.684982 0.727721
0.688650 -0.687764 0.028594
0.680171 0.719687 0.009161
0.646349 0.024782 -0.652751
0.023849 0.683433 0.726053
-0.653710 0.004529 -0.685074
0.048096 -0.678786 -0.685348
0.024818 0.685274 0.727216
0.678849 0.722009 0.008821
0.689153 -0.688627 0.029120
0.001590 0.668088 -0.740783
0.046458 -0.679658 -0.684341
-0.669498 0.648786 0.022526
-0.024541 -0.674951 0.623232
-0.652766 0.002059 -0.683718
-0.024937 -0.674310 0.620825
-0.654143 0.002600 -0.685458
-0.706723 -0.700597 -0.022620
-0.653887 0.002839 -0.683185
-0.726470 0.011296 0.689002
0.690103 -0.688763 0.028421
0.679111 0.722229 0.008708
-0.706991 -0.700325 -0.023687
-0.707233 -0.699423 -0.023187
0.692033 -0.016490 0.688069
0.048796 -0.678106 -0.685572
0.689845 -0.689259 0.029373
0.646633 0.022221 -0.651666
-0.000245 0.667484 -0.740762
-0.707267 -0.699657 -0.023945
0.693416 -0.013921 0.687976
-0.725094 0.008684 0.690177
0.002867 0.665816 -0.741065
-0.000481 0.667789 -0.739370
-0.652279 0.003170 -0.684597
0.025576 0.685633 0.726839
0.024598 0.683920 0.727170
0.025735 0.684829 0.727121
0.645644 0.021725 -0.652037
-0.023908 -0.672974 0.623275
0.680955 0.721311 0.008196
0.047259 -0.678970 -0.685661
0.645115 0.024563 -0.652644
0.678315 0.718694 0.009387
0.046793 -0.678924 -0.685243
0.000644 0.665211 -0.740676
-0.024625 -0.675840 0.621260
-0.668551 0.650958 0.021913
0.679145 0.722084 0.008952
-0.707942 -0.701484 -0.023479
0.693701 -0.015894 0.687796
-0.025376 -0.672872 0.621693
0.678097 0.721675 0.009879
0.688703 -0.689207 0.029021
0.692071 -0.016471 0.688555
0.047731 -0.678949 -0.685245
-0.672371 0.649724 0.023387
0.691297 -0.688242 0.030462
0.694476 -0.014865 0.686992
-0.706144 -0.700517 -0.024377
-0.672075 0.650258 0.022556
0.693655 -0.016358 0.687816
0.678737 0.720584 0.010285
-0.724021 0.008723 0.689993
-0.725115 0.008239 0.688581
0.023872 0.683555 0.726290
0.048707 -0.676387 -0.686982
0.688218 -0.687242 0.027189
-0.708934 -0.700538 -0.022665
0.693622 -0.015455 0.689322
