OFF
256 0 0
0.662086 -0.025684 0.715874
0.691239 -0.001242 -0.723273
0.662675 -0.023050 0.714998
-0.011436 0.705003 0.705399
-0.704507 0.023893 -0.700501
-0.013760 -0.695637 -0.656783
0.660207 0.650716 0.023117
-0.704971 0.026114 -0.700967
0.034571 0.690132 -0.722024
-0.009781 -0.715357 0.676841
-0.702563 0.025909 -0.700189
0.689782 -0.002826 -0.723685
-0.660473 0.724918 0.006269
0.663737 -0.026174 0.717504
0.660919 0.651316 0.025407
0.689428 -0.003447 -0.722735
-0.014644 -0.694314 -0.657962
-0.703420 0.025981 -0.701779
-0.697539 -0.698380 -0.003036
0.659520 0.651670 0.022842
0.663354 -0.027293 0.716758
0.661978 0.650508 0.025757
-0.705574 0.025379 -0.700698
-0.698327 -0.698554 -0.003608
0.661659 0.650183 0.025820
0.661921 -0.025453 0.717039
-0.659701 0.724690 0.005964
-0.659409 0.725048 0.006959
0.689417 -0.001936 -0.724163
0.691212 -0.002300 -0.723548
0.033820 0.690633 -0.721130
-0.704059 0.024168 -0.702060
-0.007973 -0.718219 0.677002
-0.653108 0.030225 0.663562
-0.009575 0.708310 0.705123
0.697936 -0.689719 0.012556
-0.697491 -0.699329 -0.002201
-0.704363 0.023604 -0.701310
-0.696070 -0.698340 -0.002093
-0.660882 0.724198 0.007379
0.035538 0.691660 -0.722736
0.036784 0.690058 -0.721083
-0.694569 -0.697641 -0.003124
0.699119 -0.688142 0.012786
-0.696002 -0.697767 -0.002036
0.661898 -0.025570 0.716529
-0.696892 -0.697508 -0.002357
-0.014365 -0.696289 -0.655757
-0.653020 0.030951 0.661958
-0.704163 0.026972 -0.700498
-0.654284 0.029000 0.663389
0.689925 -0.003299 -0.722946
-0.703770 0.023841 -0.699936
0.661717 0.648499 0.024084
-0.705316 0.022407 -0.701977
-0.007965 -0.716501 0.677174
0.034615 0.690327 -0.722303
-0.006258 -0.716798 0.676192
-0.703113 0.024118 -0.699951
-0.652723 0.030473 0.661893
-0.696190 -0.698901 -0.003044
0.663772 -0.024589 0.716096
-0.659625 0.723238 0.007340
0.689645 -0.003915 -0.725497
-0.706509 0.025084 -0.701809
-0.010432 -0.718631 0.679165
0.661410 0.651317 0.024498
0.036094 0.692654 -0.721948
-0.009564 -0.716091 0.678646
0.698420 -0.688237 0.012863
-0.704567 0.024311 -0.700494
-0.697396 -0.699748 -0.001666
0.699020 -0.688158 0.012825
-0.659659 0.725169 0.007557
-0.654690 0.030001 0.663168
-0.659598 0.724418 0.006773
0.697303 -0.687543 0.013627
-0.695738 -0.698187 -0.002269
0.661462 0.650333 0.024689
0.690766 -0.003929 -0.722782
-0.704070 0.024171 -0.700301
-0.660896 0.724242 0.007145
-0.011986 0.708078 0.703522
0.034134 0.690682 -0.721683
-0.010297 0.706197 0.705481
0.700035 -0.691420 0.014600
-0.652720 0.031713 0.663653
0.662803 -0.024910 0.715928
0.690587 -0.004574 -0.723625
-0.653278 0.031490 0.663109
-0.008991 0.708552 0.706786
0.661043 0.651610 0.024541
0.034654 0.690045 -0.719631
-0.014400 -0.694654 -0.657320
-0.010272 0.708554 0.703559
0.699983 -0.689008 0.013630
-0.660041 0.724757 0.007716
0.664874 -0.025841 0.716897
0.661649 0.652237 0.023958
-0.009454 0.708283 0.704732
0.689094 -0.003477 -0.723692
-0.016179 -0.694457 -0.656798
0.698146 -0.689546 0.012831
0.035959 0.690271 -0.722088
0.034387 0.689115 -0.724043
0.661871 -0.026707 0.716528
-0.010169 0.708730 0.705330
-0.013784 -0.694963 -0.656899
0.688142 -0.002873 -0.724320
0.690918 -0.001976 -0.723841
0.035604 0.690614 -0.721855
-0.706038 0.024511 -0.699718
0.661317 0.652542 0.026507
0.698033 -0.690268 0.016050
-0.009606 0.708070 0.704343
-0.013749 -0.696490 -0.656563
-0.653160 0.030500 0.664066
0.698904 -0.687953 0.012164
-0.705722 0.025403 -0.700867
0.034192 0.689566 -0.722983
-0.696415 -0.698321 -0.003167
-0.011012 0.707650 0.705327
0.660401 -0.025737 0.718379
-0.653561 0.028010 0.661169
-0.013490 -0.693911 -0.658018
0.690675 -0.002550 -0.724272
-0.015079 -0.694694 -0.658031
0.689353 -0.003921 -0.724389
0.699555 -0.689487 0.013813
-0.697854 -0.697876 -0.004295
-0.008395 -0.718219 0.678151
0.687905 -0.003294 -0.724166
-0.704958 0.025602 -0.701384
-0.651606 0.030139 0.663627
0.661769 0.652231 0.024381
-0.007694 -0.717677 0.677577
-0.009724 0.707929 0.705403
-0.007536 -0.717531 0.677387
-0.697345 -0.698423 -0.001709
-0.695575 -0.697944 -0.002163
0.689311 -0.003071 -0.721527
0.661866 -0.025337 0.717307
0.689893 -0.002303 -0.725130
0.662889 -0.025494 0.716611
0.690273 -0.002465 -0.723626
-0.010528 0.706640 0.703375
0.691038 -0.003989 -0.726100
-0.013749 -0.694311 -0.658273
-0.697538 -0.697377 -0.003712
0.697836 -0.689944 0.013280
-0.695957 -0.698804 -0.001974
-0.651878 0.031247 0.663443
0.035078 0.690003 -0.722979
-0.660056 0.724817 0.007605
-0.008352 -0.718292 0.678715
-0.009280 0.706278 0.704740
-0.697328 -0.699560 -0.000914
-0.702656 0.023965 -0.702716
-0.652496 0.029919 0.662414
-0.008782 -0.716741 0.675888
0.662590 0.650916 0.023892
-0.655694 0.031828 0.663803
0.690106 -0.002958 -0.723536
-0.010251 0.707919 0.706253
-0.654775 0.030557 0.665064
0.661050 -0.024826 0.717937
-0.660455 0.725878 0.006842
-0.012602 -0.692700 -0.658177
-0.698184 -0.698325 -0.002128
-0.704712 0.022463 -0.700401
0.036401 0.692033 -0.721874
-0.007430 -0.716065 0.677182
0.698084 -0.688869 0.014623
-0.696728 -0.699229 -0.001977
-0.015416 -0.696755 -0.658408
-0.705032 0.025113 -0.700804
-0.010285 0.707833 0.701762
-0.705005 0.024172 -0.701562
-0.658252 0.723566 0.005943
-0.705036 0.024154 -0.701646
0.698460 -0.690339 0.012973
0.690026 -0.003064 -0.723555
0.034767 0.691037 -0.721387
0.690476 -0.002200 -0.723919
0.688325 -0.002763 -0.723217
0.662148 -0.027222 0.718321
0.662222 0.650590 0.024209
-0.653757 0.031591 0.663245
-0.659035 0.723056 0.007401
-0.010502 0.708898 0.703026
-0.658215 0.723677 0.005729
-0.696999 -0.698656 -0.002340
-0.659206 0.724891 0.008294
-0.008448 -0.716275 0.676859
0.662408 -0.025967 0.715160
-0.014892 -0.695363 -0.657074
-0.015369 -0.694687 -0.655920
0.661181 -0.026956 0.715041
0.699493 -0.688912 0.015387
-0.651847 0.029925 0.662453
-0.653060 0.032049 0.662375
-0.654450 0.033367 0.663132
-0.010814 0.706542 0.706784
-0.010352 0.708221 0.705112
-0.704992 0.025932 -0.699911
-0.008414 -0.716514 0.677394
-0.696805 -0.699782 -0.001193
0.663322 -0.027061 0.716258
-0.012890 -0.693604 -0.655655
-0.015053 -0.695216 -0.656318
0.661339 -0.026680 0.716543
0.662134 0.650528 0.023960
0.660419 0.652543 0.023134
0.661569 0.652858 0.023738
-0.007720 -0.716601 0.678668
-0.657898 0.724440 0.007792
-0.655795 0.031263 0.664064
0.698547 -0.689817 0.013937
-0.014117 -0.695685 -0.656935
0.691381 -0.002689 -0.725104
0.699683 -0.689788 0.012636
-0.014177 -0.694094 -0.656359
-0.008778 -0.718744 0.679104
-0.008256 -0.716744 0.676672
-0.653916 0.031167 0.662547
0.662215 -0.026838 0.717265
-0.659904 0.723335 0.007045
-0.695617 -0.698552 -0.001457
0.697788 -0.689157 0.013803
0.661744 -0.025643 0.716840
-0.010018 0.705544 0.705019
-0.008791 0.706768 0.705465
-0.659662 0.722843 0.005461
-0.705065 0.024696 -0.700377
0.661585 -0.027631 0.716891
-0.014038 -0.693217 -0.657524
0.661513 -0.024638 0.715911
-0.697212 -0.698117 -0.003462
-0.015421 -0.695711 -0.655711
-0.010120 0.706572 0.705752
-0.658752 0.724805 0.006312
-0.014470 -0.695036 -0.657325
0.035596 0.690875 -0.721683
0.692170 -0.002049 -0.724930
0.660587 0.650257 0.024614
-0.008208 -0.715458 0.677186
0.697522 -0.687909 0.013620
-0.659391 0.724605 0.006208
-0.011586 0.706109 0.705799
-0.008611 0.707598 0.706039
0.662225 -0.025159 0.715521
0.038452 0.689784 -0.723535
0.661332 0.649956 0.023791
-0.009420 0.707182 0.704854
0.699302 -0.688406 0.014366
0.690796 -0.002694 -0.724170
