OFF
256 0 0
0.039677 0.679940 -0.698358
-0.655541 -0.023785 -0.662164
0.709215 -0.659979 0.004580
-0.701990 0.018515 0.712638
0.658959 0.659430 -0.032551
0.040575 0.677931 -0.697945
0.040554 0.679045 -0.698389
-0.697499 -0.666616 0.006644
0.689898 -0.011246 -0.673556
-0.023399 -0.655983 0.674382
0.710149 -0.663008 0.006027
0.658935 0.659111 -0.032132
0.685440 0.014422 0.645109
-0.698373 -0.667479 0.004211
-0.654461 -0.022626 -0.662774
0.710646 -0.661868 0.005869
-0.000331 0.635462 0.665693
-0.712173 0.681734 0.006337
0.005718 -0.675110 -0.647400
-0.023769 -0.657129 0.672789
-0.652906 -0.020707 -0.661519
-0.697668 -0.667903 0.004521
0.710743 -0.661450 0.006351
0.039485 0.677959 -0.696892
0.688937 -0.012816 -0.670952
-0.699688 -0.666029 0.005040
-0.022075 -0.656923 0.673245
0.007235 -0.673814 -0.647485
0.707226 -0.662062 0.005261
-0.697808 -0.665695 0.004697
-0.712283 0.681900 0.008157
-0.000876 0.635786 0.665652
-0.001194 0.634621 0.665806
-0.700539 0.019703 0.711876
-0.698921 -0.666881 0.005303
0.688238 0.016723 0.643459
-0.001398 0.636958 0.665367
-0.700985 0.020386 0.713529
-0.710298 0.684405 0.006671
-0.655588 -0.022495 -0.662955
-0.001241 0.636922 0.665014
0.709628 -0.662091 0.005892
0.688130 -0.011018 -0.671892
0.685135 0.015647 0.645703
-0.697468 -0.665042 0.005173
-0.711866 0.683812 0.007038
-0.022741 -0.656555 0.673174
-0.698467 0.019702 0.713573
-0.711855 0.680051 0.008719
0.040175 0.678894 -0.698351
-0.001533 0.636860 0.666894
0.039010 0.678596 -0.699258
-0.702596 0.018281 0.711479
0.686512 0.016506 0.644160
-0.024352 -0.656220 0.676104
-0.023613 -0.656024 0.672446
-0.653986 -0.022029 -0.662124
-0.022442 -0.657621 0.673037
0.689096 -0.011391 -0.672852
-0.701485 0.018415 0.711467
0.040055 0.679065 -0.698038
0.686067 0.014553 0.643732
-0.701886 0.020662 0.711944
-0.701352 0.022049 0.712987
-0.652950 -0.023198 -0.663781
-0.712247 0.683335 0.006906
0.688881 -0.011883 -0.672171
-0.022692 -0.657754 0.674026
-0.023837 -0.658624 0.673926
-0.022831 -0.655388 0.673783
-0.021680 -0.656510 0.676682
-0.003340 0.636930 0.668064
-0.000783 0.635314 0.669287
-0.699029 -0.665915 0.004140
-0.020531 -0.657189 0.673164
-0.000902 0.635306 0.664704
0.657592 0.660488 -0.034190
-0.653174 -0.023919 -0.663672
-0.712241 0.683221 0.006352
0.709210 -0.661709 0.004710
0.041561 0.678449 -0.696036
-0.699880 -0.666423 0.003298
-0.700920 -0.666984 0.004806
-0.022854 -0.656285 0.675074
0.039274 0.676377 -0.697755
0.687560 -0.013053 -0.672021
-0.714332 0.684467 0.004654
0.688899 -0.012048 -0.673632
0.040539 0.677333 -0.698820
0.710131 -0.658260 0.005462
0.658209 0.656958 -0.033108
-0.702859 0.019353 0.712824
-0.698671 -0.666120 0.003899
0.657287 0.658704 -0.032124
0.688121 0.013788 0.645698
0.709906 -0.662787 0.005773
-0.022024 -0.656384 0.674625
-0.653110 -0.022764 -0.663093
-0.004089 0.635457 0.666345
0.684800 0.015832 0.643769
-0.700204 0.019045 0.713048
0.690747 -0.011800 -0.672894
-0.712301 0.684464 0.008434
-0.700139 -0.667048 0.003968
0.690100 -0.011278 -0.672074
0.006092 -0.674199 -0.647337
-0.699372 -0.667072 0.004233
0.007202 -0.673191 -0.648895
0.038961 0.678820 -0.697572
-0.701510 0.021242 0.711549
0.659356 0.660369 -0.032971
0.710067 -0.661755 0.004923
-0.001971 0.636601 0.666335
-0.712062 0.682586 0.009301
0.688432 -0.012656 -0.673135
-0.021628 -0.654548 0.672334
-0.698250 -0.667218 0.002897
0.685957 0.015235 0.643356
0.686484 0.016444 0.643317
0.036298 0.678045 -0.695018
-0.656373 -0.022123 -0.663099
-0.654843 -0.022309 -0.661929
0.709838 -0.661693 0.004948
0.688767 -0.010254 -0.673579
0.711212 -0.662110 0.005703
0.659506 0.659504 -0.032974
0.658935 0.658502 -0.032115
-0.653543 -0.023455 -0.662579
-0.710329 0.682067 0.006354
-0.702101 0.021015 0.712260
-0.699882 -0.666898 0.002192
-0.698884 -0.664803 0.002733
-0.699303 -0.666146 0.005620
0.687583 0.015436 0.642734
-0.000417 0.634833 0.666325
-0.699395 0.020865 0.710883
0.007730 -0.675890 -0.648063
-0.697538 -0.665729 0.003831
0.708860 -0.661382 0.004155
0.660195 0.659029 -0.031836
0.709973 -0.660277 0.004792
0.690507 -0.010211 -0.672742
0.691570 -0.012239 -0.671518
-0.654424 -0.022940 -0.663814
-0.653998 -0.023440 -0.663447
-0.700898 0.020535 0.710936
0.006283 -0.674601 -0.647574
-0.699657 -0.665013 0.004344
0.006392 -0.674800 -0.648362
-0.002161 0.636597 0.665907
-0.698318 -0.667098 0.005383
-0.657013 -0.022559 -0.663599
-0.698071 -0.667556 0.003279
-0.023397 -0.657232 0.675417
0.712151 -0.660293 0.003782
0.040799 0.678238 -0.697636
-0.653017 -0.023130 -0.661626
0.710532 -0.661175 0.003872
0.039603 0.679622 -0.699788
0.000063 0.635736 0.665930
0.659019 0.658246 -0.032414
0.690198 -0.012618 -0.672055
0.689985 -0.012406 -0.672255
-0.698133 -0.667112 0.005469
0.000203 0.637075 0.666147
-0.653289 -0.023364 -0.660469
0.000309 0.636698 0.666244
0.660929 0.658151 -0.032563
0.684709 0.015924 0.643697
0.004680 -0.675001 -0.647729
-0.710635 0.682554 0.007995
0.690421 -0.012015 -0.673696
0.008314 -0.672898 -0.646538
0.709643 -0.661709 0.004408
-0.701380 0.020513 0.712599
0.687626 -0.012771 -0.672592
0.660320 0.657641 -0.032643
0.686912 0.015837 0.643225
0.685676 0.014046 0.643096
-0.653256 -0.023871 -0.663806
0.709213 -0.660392 0.003268
0.710108 -0.660906 0.006469
-0.698970 -0.666106 0.003158
-0.654381 -0.025046 -0.663053
0.710505 -0.660379 0.005460
-0.022644 -0.657506 0.673357
0.659256 0.657258 -0.032497
0.689787 -0.011230 -0.672077
0.006454 -0.672428 -0.646288
0.686556 0.015150 0.643974
0.007712 -0.673783 -0.649920
0.009581 -0.674237 -0.648494
-0.711943 0.682701 0.007957
0.710407 -0.661401 0.005031
0.038426 0.679893 -0.697372
0.007583 -0.673759 -0.646578
0.709865 -0.662177 0.004039
-0.711168 0.684294 0.007060
-0.021108 -0.656858 0.673667
-0.699662 -0.667125 0.003414
-0.697777 -0.665959 0.005735
-0.020506 -0.658981 0.673586
0.688497 -0.012357 -0.673602
-0.699188 -0.668031 0.004436
0.658452 0.659555 -0.030697
0.688254 -0.012273 -0.672765
0.710699 -0.661904 0.005626
0.007236 -0.674324 -0.647668
0.660469 0.660052 -0.032005
0.687574 0.016711 0.642167
-0.002003 0.635017 0.666440
0.686678 0.016448 0.643708
-0.023211 -0.657744 0.674731
-0.701775 0.021297 0.710175
0.685951 0.014375 0.643883
0.688252 -0.013183 -0.672133
-0.024014 -0.655538 0.673904
-0.002809 0.634904 0.665638
-0.001375 0.636100 0.665878
0.685539 0.016879 0.645064
0.685159 0.016703 0.643712
0.007148 -0.674694 -0.648873
-0.700584 -0.667494 0.003920
-0.654536 -0.023251 -0.661603
0.660400 0.659621 -0.030476
0.039230 0.678741 -0.698444
0.008379 -0.672922 -0.647643
0.039960 0.677662 -0.699780
-0.654730 -0.023017 -0.661582
-0.711071 0.684984 0.007207
0.690755 -0.011397 -0.672651
-0.022507 -0.656947 0.673085
0.690495 -0.011682 -0.671551
-0.699911 0.019923 0.711089
0.005686 -0.674063 -0.649460
-0.711999 0.683716 0.007626
-0.652867 -0.022920 -0.662447
-0.653917 -0.022867 -0.663559
-0.700543 0.020767 0.713180
-0.697595 -0.666561 0.004704
0.004047 -0.674478 -0.646285
0.686829 0.016180 0.643399
-0.698254 -0.665292 0.003857
0.709304 -0.660629 0.004297
0.660045 0.657885 -0.032687
0.688512 -0.012107 -0.673426
-0.701148 0.019984 0.712394
-0.712648 0.680638 0.008045
0.687523 0.014846 0.645774
0.685984 0.015015 0.643210
0.708780 -0.660597 0.005112
0.685946 0.014732 0.643633
0.008174 -0.672747 -0.647981
-0.001426 0.635740 0.664392
0.006304 -0.673963 -0.648921
0.708940 -0.661513 0.005731
