OFF
256 0 0
-0.643470 0.665535 0.024757
-0.671827 -0.695427 -0.000404
-0.671299 -0.698267 -0.000099
-0.681923 0.010849 -0.681850
0.692710 0.008495 0.698743
-0.018067 -0.680601 -0.674220
-0.017422 -0.681423 -0.673051
-0.645553 0.666958 0.024025
0.035965 0.653892 0.707563
-0.707921 -0.029785 0.650874
0.643873 -0.698131 -0.006426
-0.706532 -0.029184 0.651332
0.035836 0.653159 0.708103
0.692173 0.722827 -0.019522
-0.011444 0.704641 -0.695206
0.035701 0.654009 0.707817
-0.680713 0.011260 -0.682419
-0.682692 0.010566 -0.683955
-0.017201 -0.679288 -0.673135
-0.682442 0.012568 -0.683274
-0.706199 -0.029242 0.651328
-0.017392 -0.703634 0.703361
0.691808 0.008213 0.698162
0.692589 0.042705 -0.701890
-0.705623 -0.027340 0.650995
-0.644209 0.666210 0.025187
0.692402 0.009103 0.698531
-0.017716 -0.705952 0.704842
-0.012733 0.703273 -0.695332
0.691299 0.042639 -0.704034
0.692169 0.009087 0.698611
-0.011745 0.704927 -0.695176
-0.011188 0.705212 -0.695602
-0.673186 -0.696301 -0.001102
-0.706458 -0.028889 0.650728
0.691994 0.722361 -0.019407
-0.673895 -0.698242 -0.000635
0.689364 0.724437 -0.020588
0.033819 0.653954 0.706666
-0.707534 -0.028420 0.653537
-0.708050 -0.029178 0.648868
-0.018531 -0.705136 0.703838
-0.644892 0.663689 0.023252
0.693078 0.008944 0.698867
-0.009539 0.705269 -0.696199
0.691578 0.040790 -0.701226
0.690080 0.042330 -0.703083
-0.643945 0.666222 0.024597
-0.644660 0.665899 0.027112
0.034680 0.652912 0.706263
-0.016846 -0.680956 -0.674314
-0.681542 0.010775 -0.683304
-0.017518 -0.704851 0.701987
-0.016367 -0.680089 -0.672709
0.033407 0.652276 0.707427
-0.016680 -0.678845 -0.673888
-0.679882 0.010479 -0.684505
-0.706449 -0.029150 0.651011
0.688879 0.723640 -0.019718
-0.672995 -0.697621 -0.001837
0.693318 0.009812 0.697639
-0.642864 0.665831 0.022548
-0.017022 -0.680518 -0.673738
0.689983 0.721722 -0.019117
-0.017734 -0.680232 -0.674092
-0.643623 0.667483 0.023085
-0.643976 0.665591 0.022566
-0.017075 -0.706358 0.703456
0.690281 0.722218 -0.019411
-0.016472 -0.680785 -0.675323
-0.681048 0.010069 -0.683799
0.034150 0.654128 0.706459
0.690028 0.724268 -0.018610
-0.015535 -0.705790 0.705579
-0.681883 0.009795 -0.684881
0.691413 0.724670 -0.019227
0.643191 -0.696834 -0.006903
0.690080 0.722408 -0.018525
0.642474 -0.696161 -0.007369
-0.682977 0.011702 -0.683730
0.645104 -0.696687 -0.006408
0.691704 0.008234 0.700215
0.690965 0.009761 0.698191
0.690819 0.041977 -0.702437
-0.643900 0.666460 0.022403
0.689517 0.042019 -0.703053
0.690130 0.723464 -0.019090
-0.681470 0.011022 -0.684956
-0.681874 0.010090 -0.682264
0.033742 0.653380 0.706777
0.691236 0.009553 0.698381
-0.016081 -0.680150 -0.673966
0.034459 0.653244 0.707767
-0.644234 0.664989 0.023659
-0.010192 0.705320 -0.695916
-0.016831 -0.707324 0.703368
-0.016350 -0.706040 0.702864
-0.672685 -0.697037 -0.002230
-0.643760 0.666001 0.023205
0.034907 0.653163 0.707613
0.032561 0.653055 0.707700
-0.012924 0.705873 -0.694957
0.033907 0.651669 0.708280
-0.011852 0.705378 -0.696690
0.035309 0.655794 0.706759
0.642898 -0.698309 -0.005390
-0.642592 0.666280 0.023617
-0.707903 -0.027197 0.650536
-0.016770 -0.705446 0.703103
-0.018475 -0.680216 -0.674338
0.035604 0.652730 0.706034
-0.018764 -0.706013 0.703666
-0.016874 -0.704301 0.703453
0.034421 0.655639 0.706636
0.644315 -0.698387 -0.008166
0.692604 0.009807 0.697803
0.036140 0.652715 0.706513
-0.019784 -0.704495 0.702468
0.034328 0.652457 0.707664
-0.018317 -0.704427 0.702062
0.691585 0.723760 -0.021521
-0.680966 0.011724 -0.684841
-0.682176 0.010604 -0.683664
-0.017193 -0.681939 -0.675233
-0.672410 -0.695665 -0.001696
-0.672465 -0.698728 0.000409
-0.672134 -0.696529 -0.001169
-0.680431 0.011603 -0.683948
-0.672311 -0.697773 -0.003105
0.690423 0.722870 -0.019355
0.643936 -0.696555 -0.006923
0.693369 0.008814 0.696028
-0.016782 -0.707132 0.701655
-0.673732 -0.697023 -0.001931
-0.708479 -0.028034 0.650696
0.690553 0.721879 -0.020294
0.036095 0.653388 0.708094
0.033210 0.652250 0.706875
-0.011622 0.703470 -0.694877
-0.682835 0.010374 -0.684097
-0.018496 -0.681580 -0.673634
-0.011141 0.704776 -0.695797
-0.011323 0.707263 -0.694087
-0.682397 0.011379 -0.683040
-0.706480 -0.027388 0.651613
-0.018045 -0.704893 0.701569
-0.671967 -0.697581 -0.002325
0.695015 0.011113 0.697080
-0.010664 0.706361 -0.696403
0.692490 0.008993 0.699167
-0.009461 0.705971 -0.696004
-0.018464 -0.704641 0.701030
0.690995 0.722756 -0.017048
-0.684236 0.012652 -0.683579
-0.018064 -0.705195 0.702354
0.691760 0.007950 0.700114
-0.671588 -0.696528 -0.000254
-0.707779 -0.028661 0.652421
-0.017278 -0.681146 -0.675305
-0.010487 0.703345 -0.696244
0.036453 0.652977 0.704709
0.690380 0.041010 -0.702332
-0.644315 0.665216 0.021858
0.036440 0.653867 0.708094
0.691710 0.722811 -0.018172
-0.011788 0.705139 -0.694923
-0.019622 -0.679668 -0.674899
-0.016879 -0.702911 0.701660
0.642048 -0.698297 -0.005914
0.691128 0.041295 -0.700405
0.034019 0.652773 0.707453
-0.014860 -0.703817 0.704600
0.691895 0.010853 0.699464
-0.671868 -0.696011 -0.003043
-0.643746 0.665253 0.022898
-0.709281 -0.029887 0.651536
-0.019158 -0.679529 -0.674554
0.693116 0.009534 0.697589
-0.672366 -0.696743 -0.002232
-0.707584 -0.029799 0.651755
-0.643600 0.666268 0.023248
-0.017824 -0.704788 0.703653
-0.672231 -0.696286 -0.002927
-0.015669 -0.705359 0.702887
-0.682220 0.011772 -0.682031
-0.680890 0.011031 -0.682615
0.642476 -0.696822 -0.008860
-0.682008 0.012769 -0.683737
0.034212 0.653913 0.705093
-0.009519 0.703892 -0.696817
0.692367 0.042809 -0.703978
-0.017322 -0.705522 0.703021
-0.674596 -0.697408 -0.001957
-0.673311 -0.697973 -0.001133
0.692888 0.723242 -0.016534
-0.015925 -0.680851 -0.675965
0.690308 0.722589 -0.018929
-0.671867 -0.696969 -0.001420
-0.018978 -0.680049 -0.674193
-0.017874 -0.705265 0.701752
-0.018399 -0.681915 -0.674857
-0.683284 0.010359 -0.682741
-0.017239 -0.681668 -0.675283
0.691743 0.010195 0.698992
-0.011139 0.704596 -0.694952
-0.017470 -0.683667 -0.673891
-0.019381 -0.679601 -0.673869
-0.705696 -0.027123 0.651619
0.034081 0.653572 0.708602
0.693523 0.010802 0.698157
0.034195 0.652154 0.706518
-0.683432 0.010754 -0.684859
-0.673097 -0.697143 -0.001575
-0.018221 -0.704818 0.700615
0.643442 -0.696820 -0.006795
-0.017645 -0.681144 -0.674035
0.691514 0.042696 -0.702233
-0.709517 -0.030446 0.651719
-0.644115 0.665575 0.022752
-0.673218 -0.695889 -0.001179
-0.705454 -0.029657 0.652425
-0.708160 -0.028811 0.653895
-0.018290 -0.680680 -0.673465
-0.707237 -0.030931 0.651787
-0.681723 0.010735 -0.686125
-0.671508 -0.696424 -0.002518
-0.674437 -0.696554 -0.002375
-0.673638 -0.696278 -0.002784
-0.672670 -0.699177 -0.000532
0.690159 0.722341 -0.018546
-0.644426 0.666845 0.023901
-0.643229 0.666266 0.022230
-0.707080 -0.027217 0.651875
-0.019018 -0.680464 -0.674356
0.642587 -0.695368 -0.005953
-0.017555 -0.682314 -0.674992
-0.672230 -0.695568 -0.003080
-0.681196 0.010193 -0.683298
0.690322 0.723288 -0.020377
0.688627 0.042031 -0.703064
0.644205 -0.697414 -0.008734
-0.017186 -0.679835 -0.673600
-0.643946 0.665758 0.024042
-0.682247 0.012611 -0.682700
-0.672207 -0.696972 -0.001804
0.691312 0.724232 -0.019295
0.691666 0.009984 0.698462
0.642038 -0.697428 -0.005098
-0.011353 0.703443 -0.694425
0.643514 -0.696555 -0.005888
0.690335 0.041933 -0.702978
0.033415 0.653503 0.707461
-0.016228 -0.680320 -0.674208
-0.018658 -0.682157 -0.674348
0.034999 0.652075 0.707432
-0.010697 0.703876 -0.694707
