OFF
256 0 0
-0.631524 0.294794 0.632388
-0.630072 0.755635 0.169644
0.294241 0.756594 0.168024
0.295377 0.757555 0.169559
-0.632786 -0.632151 -0.293675
-0.168371 -0.631284 0.167247
-0.628922 -0.169410 -0.756618
-0.168946 -0.630797 0.168850
-0.630120 -0.170040 -0.755512
-0.167631 0.295927 -0.758440
-0.631512 -0.631337 -0.294629
0.295509 0.295466 0.630732
-0.632600 -0.168358 0.168554
-0.631571 -0.631303 -0.293756
0.293874 -0.630964 -0.295054
0.755575 0.294963 0.168322
0.758542 -0.169040 0.631198
0.757156 -0.168704 0.631238
0.296481 0.758088 0.168057
0.757938 0.295381 0.168114
0.759011 -0.167784 -0.295696
0.755628 -0.167823 -0.295368
-0.168094 -0.629875 0.168613
0.294906 -0.167996 -0.757932
0.294705 -0.632195 0.632646
-0.632215 0.295614 0.631078
-0.631529 0.757767 0.167198
-0.628738 -0.167387 -0.758453
-0.169560 0.757873 -0.294816
-0.168387 -0.631011 0.168334
-0.630465 0.293332 0.632220
0.759112 -0.167420 -0.294301
0.294789 0.294476 0.631070
-0.631895 -0.168747 -0.757333
-0.631752 0.758095 0.167400
-0.168890 -0.167419 0.629650
0.294537 -0.630569 0.631566
-0.169130 -0.631578 0.168018
0.756106 0.294517 0.167428
0.756493 0.294568 0.168584
-0.168434 0.755714 0.631552
-0.167338 0.295017 -0.757156
0.756839 -0.631191 0.168417
-0.632171 -0.630747 -0.294500
0.755524 0.294958 0.167976
0.294724 -0.631500 0.629597
-0.630558 -0.631222 -0.292881
-0.630243 -0.168293 -0.757318
0.296468 -0.632108 -0.292544
-0.630544 -0.168703 -0.759300
-0.631377 0.755417 0.167493
-0.168647 0.757817 0.631264
-0.169047 0.759657 0.632229
-0.629508 -0.168306 -0.757726
0.757600 -0.168302 0.631369
-0.631423 0.294955 0.631508
0.756973 -0.168932 0.631129
-0.170021 -0.168435 0.630672
-0.167236 -0.629809 -0.757721
-0.169571 0.295292 -0.756929
0.756813 -0.166435 -0.294036
-0.631174 -0.166017 0.168400
-0.632112 -0.631523 -0.293549
-0.168086 0.296035 -0.757993
-0.168943 -0.631749 -0.756460
-0.630978 -0.167326 0.170645
-0.632355 -0.167655 -0.757226
0.296104 -0.629868 -0.294802
-0.168006 -0.630045 -0.757787
0.295377 -0.631578 0.631536
-0.631334 -0.630086 -0.294269
0.756362 -0.630807 0.167603
0.293409 0.294745 -0.293399
-0.631608 0.293528 0.630118
-0.631004 0.294538 0.630229
0.295399 0.296133 0.632072
-0.630464 -0.630800 -0.295166
0.293654 -0.633677 -0.294821
0.295562 -0.168909 -0.759448
-0.167897 -0.630513 -0.757551
0.294644 -0.630885 0.630867
-0.169155 0.294104 -0.757514
-0.168294 -0.631247 0.168472
0.294516 -0.167307 -0.758217
0.755581 -0.629652 0.169354
0.295052 -0.168273 -0.755957
-0.168257 0.757465 -0.296378
0.293475 0.757446 0.168665
0.756777 -0.168409 0.631328
-0.630336 -0.166092 0.169343
-0.168693 -0.632291 0.167784
0.294121 0.759593 0.168734
0.296402 -0.167815 -0.758186
-0.167567 0.756425 -0.294532
0.293720 0.292528 -0.293173
-0.169097 0.758737 -0.293428
-0.631348 0.757885 0.168371
-0.168170 -0.630791 0.167648
-0.630799 0.296847 -0.294992
-0.168432 -0.168462 0.630732
0.294114 -0.633751 -0.295947
0.295550 -0.631190 0.633128
0.294395 0.294838 -0.294826
-0.629351 -0.167867 -0.759007
0.296167 0.295505 -0.294158
-0.631032 0.292869 -0.294250
-0.167564 -0.632015 -0.756482
0.756943 0.295472 0.169574
0.294119 0.294248 0.629339
0.293144 0.758651 0.168430
-0.630970 -0.165886 -0.756084
0.294866 0.293960 -0.295612
-0.165696 0.754658 -0.294481
-0.630781 0.756923 0.167825
-0.167605 0.297224 -0.756360
-0.631669 0.293360 0.631113
0.758116 -0.168930 0.628768
-0.631571 -0.168112 -0.758587
-0.630879 -0.168862 0.168629
-0.167660 -0.631540 -0.757128
-0.629579 -0.167163 -0.757053
0.756952 -0.169042 0.631947
0.294807 -0.166321 -0.756922
0.294452 0.293384 0.630217
-0.168150 0.294092 -0.756478
0.294393 0.293975 -0.295332
-0.632374 -0.167234 -0.757280
0.757863 -0.631242 0.168116
-0.631247 -0.167470 -0.758398
-0.167824 0.755921 0.629949
0.296632 0.756990 0.168011
-0.168359 -0.166388 0.632177
0.757154 -0.168344 0.630925
-0.169647 0.756573 0.632391
-0.631507 0.756007 0.167962
0.757507 -0.168492 -0.294932
0.757971 -0.631374 0.166090
0.757166 -0.167594 0.632645
-0.631324 -0.631777 -0.294129
0.757734 -0.167634 -0.294300
0.294682 0.758531 0.167776
0.294527 0.756745 0.169498
-0.630781 -0.167790 0.166949
0.295550 -0.631605 -0.294331
-0.166442 -0.166929 0.630419
-0.167696 -0.167363 0.630643
-0.631009 -0.168368 0.166638
-0.167048 0.294902 -0.757957
0.294684 -0.630330 -0.294506
-0.631156 -0.165712 -0.757085
0.293888 -0.168055 -0.756758
-0.168292 -0.168059 0.630522
-0.632239 -0.168960 -0.757166
-0.168639 0.295373 -0.758029
0.757063 -0.165736 -0.293955
-0.168473 -0.631177 -0.757912
0.756300 -0.168182 -0.293749
-0.629521 -0.169749 0.168807
-0.630340 -0.631284 -0.294039
0.755492 -0.168104 -0.295520
-0.169006 0.757514 0.631193
0.757432 -0.168502 0.630699
0.756187 -0.169120 0.630912
-0.632424 -0.166974 0.167266
-0.167933 0.292824 -0.756314
0.757946 -0.631974 0.169367
-0.631436 -0.633275 -0.293639
-0.629463 -0.629764 -0.293819
0.294390 -0.632305 0.631191
0.757768 -0.170347 -0.293747
-0.630762 0.757345 0.168468
0.293157 0.294898 -0.296472
-0.631484 0.755972 0.165742
0.295307 -0.629350 -0.294522
0.295136 -0.631958 0.631376
0.294480 0.294990 -0.294729
0.293468 -0.630694 0.630019
-0.630919 -0.631580 -0.293442
-0.169048 -0.630724 0.168124
0.295114 -0.168648 -0.755449
-0.168076 0.294658 -0.756122
0.293750 0.293517 -0.293814
0.756509 -0.632458 0.167619
-0.170017 -0.631868 -0.756110
0.757877 0.295440 0.168089
-0.166945 0.758571 -0.295488
-0.167720 0.294224 -0.756355
-0.631669 -0.168710 0.167782
0.757570 -0.630612 0.168833
0.756588 -0.629592 0.169076
0.294114 -0.168776 -0.756286
0.292870 0.758186 0.168185
0.294788 -0.630579 -0.293980
0.294462 0.755486 0.168523
0.294839 0.294046 0.632018
-0.166612 0.294146 -0.757079
-0.630590 0.294785 -0.296869
-0.631748 0.295105 -0.294621
0.294938 0.292213 0.631702
0.294914 0.758227 0.168151
0.758631 0.295107 0.167640
-0.630210 0.294414 0.630403
-0.631114 -0.167591 -0.757701
-0.629613 0.754909 0.168941
0.294160 0.756857 0.170949
-0.632903 -0.168951 0.168957
0.295495 0.294882 0.630924
-0.169421 0.756731 0.632253
-0.628916 0.293265 0.631267
0.757387 -0.166765 -0.295199
0.295915 0.295179 -0.292934
-0.166033 0.756521 -0.292677
0.756624 -0.631002 0.169745
0.293513 0.755644 0.168411
0.294331 0.293827 -0.294082
0.757366 -0.169262 0.629516
0.292423 -0.631111 -0.294835
0.294938 -0.168105 -0.757527
-0.167662 -0.631506 -0.756484
0.294708 0.294022 -0.294172
-0.631099 0.757848 0.167362
0.296393 0.295151 0.629871
0.294680 0.756156 0.168040
0.755056 0.292915 0.170087
0.294128 0.293053 -0.296059
0.294943 0.293786 -0.295857
-0.168186 -0.631818 0.167988
0.294711 -0.166962 -0.758574
-0.630499 0.294323 0.632679
0.756785 -0.169138 -0.294738
-0.168978 -0.629737 -0.757423
-0.631114 -0.632178 -0.295140
0.293446 -0.632555 -0.293145
0.758053 -0.166958 -0.295414
0.293951 0.293115 -0.294291
-0.167952 0.292418 -0.757443
0.758229 0.296425 0.169950
0.295153 0.294883 -0.293514
-0.631689 -0.167100 -0.758010
-0.167080 0.756773 -0.294190
-0.630577 0.294832 -0.293285
-0.629360 0.293899 -0.295557
-0.630041 -0.630395 -0.294704
-0.630044 -0.170468 -0.756745
-0.168609 0.758128 -0.295582
-0.166005 0.294184 -0.756612
-0.631871 0.295586 0.631275
-0.630508 0.294060 -0.294188
-0.168278 0.291580 -0.756012
0.757728 -0.631378 0.169138
0.757809 -0.166905 0.630146
-0.168099 0.757236 0.630313
0.294412 0.294428 0.632651
0.294181 0.292469 0.629860
0.757609 -0.167763 -0.292679
-0.167751 -0.167569 0.632231
