OFF
256 0 0
0.287131 0.775925 0.144384
0.749629 -0.634782 0.183727
0.286105 -0.602304 0.570914
0.710078 -0.173178 -0.251511
-0.193626 -0.593432 0.155647
-0.610556 -0.157640 -0.718052
-0.618557 0.262742 0.608493
-0.168474 -0.141932 0.586510
-0.610671 0.279830 -0.270717
-0.609519 -0.160837 -0.716942
0.276736 0.263939 0.566387
-0.618331 0.262752 0.608987
0.717721 0.293533 0.173752
-0.583666 -0.152820 0.135941
0.285495 -0.603113 0.569515
-0.610597 0.278554 -0.270139
0.289510 0.771261 0.143196
0.275374 0.264802 0.566703
0.274937 0.263478 0.567826
0.275778 0.262770 0.566791
0.274929 0.262392 0.565722
0.711325 -0.173791 -0.252911
0.751947 -0.634785 0.185182
-0.153696 0.723081 -0.264330
-0.611158 0.278916 -0.272576
-0.611282 0.707441 0.164181
-0.582994 -0.154606 0.136387
-0.610352 -0.617042 -0.274036
0.285799 -0.154637 -0.731849
0.289788 0.277304 -0.268869
0.288570 0.278989 -0.271893
-0.609335 0.708663 0.166219
0.284902 -0.601820 0.569302
-0.147527 0.262972 -0.716498
0.287025 -0.601018 0.569992
-0.171886 0.734852 0.594812
-0.582881 -0.155821 0.135816
0.275637 0.262272 0.566613
-0.153490 0.725118 -0.266816
0.274544 0.263850 0.564762
-0.172092 0.734863 0.594112
-0.611242 -0.616451 -0.274123
-0.194385 -0.592657 0.155013
-0.584420 -0.153838 0.135859
-0.195346 -0.591352 0.154687
-0.156443 -0.586591 -0.700076
-0.618155 0.264480 0.609487
-0.608884 -0.159520 -0.718457
-0.609812 -0.616757 -0.274371
0.709685 -0.174620 -0.251809
-0.171638 0.736209 0.594266
-0.192268 -0.593001 0.154545
-0.609142 -0.158474 -0.717953
0.290369 0.278306 -0.269953
-0.611206 -0.617024 -0.273830
0.287459 -0.602030 -0.287468
0.287707 0.774094 0.146228
-0.607655 -0.617492 -0.272782
0.716575 0.293866 0.172025
-0.148944 0.261855 -0.717231
-0.173109 0.734100 0.594639
-0.169076 -0.144335 0.587410
-0.149319 0.261075 -0.718658
-0.171362 0.734920 0.595356
-0.608650 0.279913 -0.269574
-0.611168 -0.617396 -0.273601
0.283550 -0.601571 0.569917
-0.158943 -0.587990 -0.702452
0.288397 0.773528 0.144726
-0.611692 -0.616544 -0.274584
-0.193880 -0.592407 0.155007
-0.617022 0.262646 0.608113
-0.619364 0.263211 0.608483
-0.155824 -0.586617 -0.699709
-0.609780 0.708577 0.165053
0.288479 0.774259 0.145084
0.288870 0.280924 -0.270843
-0.193681 -0.592055 0.155641
-0.170302 -0.141558 0.586734
-0.609630 0.707637 0.165418
0.717050 0.293345 0.170218
0.274776 0.263217 0.568597
-0.147937 0.260104 -0.717593
-0.608696 0.709321 0.165205
0.287992 0.772530 0.144699
0.287001 -0.157259 -0.729142
-0.609992 0.707142 0.166968
0.291124 -0.603280 -0.285941
0.289332 0.280513 -0.269079
-0.618623 0.264953 0.610382
0.716899 0.293991 0.170851
-0.617850 0.261724 0.606387
0.283529 -0.600759 0.570643
-0.580809 -0.154586 0.134201
-0.154977 -0.584472 -0.699823
0.287015 0.774760 0.143886
-0.153924 0.722825 -0.264272
-0.611281 -0.157065 -0.716753
-0.171028 0.735818 0.595353
0.746114 -0.163874 0.597614
0.715521 0.293538 0.172910
0.746856 -0.162892 0.597563
0.288560 0.280211 -0.270699
-0.170286 -0.141942 0.587142
-0.611236 0.706993 0.164450
0.284661 -0.600271 0.570350
0.289873 -0.601261 -0.285659
-0.147692 0.261816 -0.717277
0.288387 -0.604612 -0.286400
0.275070 0.263425 0.565924
-0.194610 -0.594922 0.154718
0.276338 0.262094 0.568666
-0.608444 -0.157513 -0.717438
-0.191917 -0.591721 0.155146
0.288306 0.773867 0.144517
-0.609461 0.278012 -0.270609
-0.147075 0.261345 -0.717497
0.275867 0.265369 0.566768
-0.156325 -0.586688 -0.698721
0.711662 -0.173977 -0.251757
-0.170334 0.734355 0.593239
-0.148890 0.262826 -0.716369
-0.610909 -0.159534 -0.716988
-0.156941 -0.588346 -0.701295
-0.610103 -0.158584 -0.716736
-0.611086 -0.157744 -0.717919
-0.156093 0.725332 -0.264943
-0.609084 -0.159485 -0.718523
0.288111 -0.154663 -0.729227
-0.610866 -0.159716 -0.715271
0.288453 0.773684 0.145153
0.745518 -0.161640 0.595795
0.746123 -0.162490 0.597785
0.709164 -0.172295 -0.254241
-0.584668 -0.153551 0.136470
-0.169327 -0.141685 0.587122
0.283459 -0.602203 0.569756
-0.618781 0.261110 0.608860
-0.149648 0.261289 -0.716241
0.748585 -0.633344 0.183508
0.717163 0.293036 0.171840
-0.148671 0.261827 -0.716170
0.283897 -0.602287 0.570518
0.715337 0.294095 0.171426
0.289378 0.279001 -0.269276
-0.147482 0.262287 -0.717431
0.275123 0.263848 0.567202
-0.610351 -0.616545 -0.272824
0.715612 0.292248 0.171748
-0.149579 0.261250 -0.716986
0.286144 0.774094 0.145908
0.290071 0.279474 -0.271113
-0.610294 -0.617366 -0.272387
-0.610657 0.707487 0.163505
-0.156828 -0.586933 -0.700658
-0.148443 0.261877 -0.716387
0.748786 -0.634978 0.184724
-0.155423 0.725077 -0.264490
0.709685 -0.173478 -0.253725
-0.609981 -0.615023 -0.273925
-0.147817 0.261700 -0.718238
-0.191311 -0.592538 0.155349
-0.611709 -0.158609 -0.718810
-0.148781 0.261542 -0.716941
-0.173470 0.735887 0.593930
0.285821 -0.602908 0.569725
-0.148685 0.261875 -0.717812
0.276107 0.263200 0.567591
-0.608563 -0.617783 -0.273505
-0.193957 -0.593147 0.154417
-0.169526 -0.141580 0.586069
0.290093 0.280102 -0.268159
0.274328 0.264958 0.566355
-0.583309 -0.153789 0.136972
-0.617611 0.263580 0.609058
-0.611184 0.279786 -0.271307
0.276594 0.264351 0.566749
-0.147731 0.261464 -0.717757
-0.173755 0.735513 0.594150
-0.155317 0.725095 -0.266880
-0.584472 -0.154898 0.135160
0.715062 0.293221 0.170212
-0.610438 -0.160350 -0.717572
-0.610857 -0.616823 -0.273460
0.286401 -0.602077 0.570332
-0.609906 0.707987 0.165044
-0.171826 0.736919 0.594124
-0.155727 -0.587460 -0.699349
-0.149184 0.261213 -0.718476
-0.611020 0.278919 -0.269819
0.290524 0.278380 -0.268220
-0.610029 -0.620011 -0.273954
-0.156272 -0.586212 -0.702015
0.289005 0.772833 0.143102
-0.611124 -0.617603 -0.274018
0.289350 -0.603354 -0.284012
-0.155337 0.726136 -0.266847
-0.620074 0.263187 0.608497
-0.148175 0.260540 -0.716931
0.750748 -0.636236 0.186208
-0.152169 0.723915 -0.266592
0.273927 0.263986 0.566584
-0.608698 -0.157522 -0.716694
-0.610673 0.279045 -0.268650
-0.152928 0.725635 -0.265788
0.708015 -0.173475 -0.251806
-0.157006 -0.586141 -0.700004
0.747007 -0.161211 0.598225
-0.610908 0.278678 -0.269947
0.288138 0.774709 0.145963
-0.610378 -0.617609 -0.274481
0.286018 -0.602633 0.569711
-0.612916 0.279948 -0.270841
0.745840 -0.162843 0.596326
0.716223 0.293301 0.171488
0.288475 0.774879 0.145379
0.284079 -0.599704 0.571088
0.275638 0.263702 0.567058
-0.582048 -0.153634 0.134865
0.274425 0.263495 0.565411
0.748895 -0.635914 0.185390
0.286127 -0.600069 0.571564
0.284696 -0.600420 0.569880
0.717672 0.294737 0.174518
0.749247 -0.634519 0.182542
0.746078 -0.163321 0.594932
0.745256 -0.164111 0.596724
-0.617311 0.263320 0.608574
-0.618656 0.261689 0.607678
0.292410 0.277644 -0.270204
-0.611484 0.709277 0.164075
0.285133 -0.153689 -0.729585
0.751909 -0.636442 0.184661
-0.151418 0.262140 -0.715397
0.717878 0.294921 0.171909
-0.153417 0.725399 -0.266740
-0.152850 0.724311 -0.265746
0.287346 0.773612 0.143054
-0.610993 0.709340 0.165020
0.287509 -0.156522 -0.730247
-0.158342 -0.586219 -0.701276
-0.171799 -0.142852 0.587197
-0.611744 -0.616203 -0.274772
-0.609360 0.707776 0.165642
-0.153898 0.723357 -0.265347
-0.611157 -0.158989 -0.718729
-0.152603 0.724866 -0.266689
-0.616995 0.264095 0.608205
-0.619164 0.263783 0.609648
0.745895 -0.163974 0.598610
0.286389 -0.600491 0.566859
-0.151431 0.724627 -0.266765
-0.193164 -0.593871 0.153990
-0.173388 0.734960 0.594734
-0.584857 -0.155232 0.135292
-0.155267 -0.586405 -0.702051
