OFF
256 0 0
0.296920 -0.616346 0.614175
0.257060 0.785048 0.170005
-0.647378 0.282550 0.619942
-0.647705 0.285896 0.619080
0.312227 0.258417 0.632243
-0.627561 -0.166462 -0.731045
-0.628538 -0.167833 -0.731805
-0.614427 0.770670 0.167987
-0.592315 0.278840 -0.254439
-0.155478 -0.142058 0.619218
0.295803 -0.615619 0.611982
-0.177539 0.730310 0.595616
-0.155243 -0.143051 0.619675
0.297616 -0.614927 0.612410
-0.154543 -0.140022 0.618698
-0.170960 -0.619260 -0.752036
0.748352 -0.637338 0.151232
0.293506 -0.633396 -0.282443
0.313977 0.259656 0.629627
-0.629721 -0.186947 0.150700
0.312042 0.260707 0.630752
0.313703 0.258412 0.630907
0.764104 -0.146643 -0.274148
0.750338 -0.185902 0.609413
0.258328 0.291367 -0.261521
-0.608650 -0.626471 -0.303986
-0.628506 -0.167541 -0.732498
-0.168391 -0.618918 -0.750075
-0.138587 -0.598635 0.171848
0.313380 0.256211 0.632148
-0.154431 -0.142524 0.618619
0.294755 -0.633866 -0.281697
0.292681 -0.177705 -0.725160
0.295477 -0.614235 0.612654
0.259053 0.782873 0.169403
0.314601 0.256787 0.630736
-0.594035 0.279360 -0.254401
-0.155508 -0.137704 0.618281
0.293961 -0.634683 -0.280561
-0.186717 0.254911 -0.739635
-0.594461 0.278667 -0.252498
0.256343 0.291609 -0.261698
-0.186760 0.257033 -0.736910
0.725556 0.281104 0.142729
-0.147846 0.794326 -0.316065
-0.626752 -0.167134 -0.732250
0.256679 0.292903 -0.260090
-0.607702 -0.626622 -0.305071
-0.172160 -0.618346 -0.750287
0.763719 -0.148096 -0.276306
0.749092 -0.635527 0.150862
-0.178073 0.731242 0.592856
-0.171144 -0.619333 -0.747520
-0.593892 0.276901 -0.250613
-0.614701 0.771853 0.166687
0.311482 0.257637 0.631775
-0.613206 0.772069 0.166993
-0.594119 0.277292 -0.253208
-0.607702 -0.625575 -0.302995
0.292886 -0.633690 -0.282435
0.312808 0.258813 0.633056
0.749116 -0.635644 0.151830
-0.156960 -0.141269 0.618952
0.293457 -0.634000 -0.282684
0.295650 -0.614169 0.613315
0.748623 -0.184939 0.608149
0.291197 -0.180068 -0.723666
-0.630270 -0.185192 0.151368
0.291594 -0.180020 -0.725220
-0.177804 0.731585 0.593493
-0.169477 -0.618526 -0.751961
0.258634 0.293752 -0.258697
0.289584 -0.178542 -0.723792
-0.592787 0.279027 -0.254627
0.259583 0.291869 -0.260278
0.259738 0.292585 -0.260030
-0.148048 0.795073 -0.316550
0.289037 -0.178866 -0.725817
0.748810 -0.183872 0.607819
-0.626469 -0.167646 -0.730341
0.257314 0.292967 -0.260661
0.313777 0.258228 0.630425
0.294430 -0.613130 0.611248
0.257304 0.293408 -0.260609
-0.170189 -0.619985 -0.751542
0.293709 -0.632523 -0.281876
-0.593322 0.278809 -0.250457
0.747160 -0.185223 0.607862
0.313191 0.259140 0.632270
-0.593538 0.278839 -0.252583
0.747167 -0.183184 0.608899
-0.648254 0.284794 0.617733
-0.625135 -0.166411 -0.732000
0.313364 0.259173 0.632765
0.314150 0.256814 0.630248
-0.149535 0.794258 -0.314726
0.293204 -0.633526 -0.281248
-0.593097 0.278011 -0.252404
-0.155159 -0.140459 0.617832
-0.607761 -0.626813 -0.305761
0.296223 -0.614425 0.610252
0.748489 -0.636382 0.150935
-0.627938 -0.167795 -0.729533
-0.645883 0.284931 0.619656
0.296516 -0.614410 0.613105
0.313017 0.258280 0.632269
-0.596438 0.279184 -0.252560
0.295913 -0.614525 0.612267
-0.627068 -0.167375 -0.733076
-0.648184 0.283801 0.620104
-0.186672 0.256993 -0.739070
0.724698 0.280215 0.143171
-0.612157 0.773075 0.166209
-0.626732 -0.167590 -0.732549
-0.627995 -0.166603 -0.733692
0.259199 0.783289 0.169009
-0.608032 -0.625068 -0.303995
0.749219 -0.185667 0.608884
-0.187223 0.256895 -0.739388
0.725732 0.280468 0.142096
-0.138605 -0.600781 0.172370
0.257392 0.783231 0.169646
-0.630944 -0.185423 0.149638
-0.607046 -0.626361 -0.304591
-0.186788 0.256648 -0.738850
0.725428 0.282961 0.141927
0.291403 -0.178806 -0.723260
-0.170340 -0.621599 -0.751339
-0.593155 0.276682 -0.252117
-0.172703 -0.620553 -0.748996
0.725255 0.282544 0.142307
0.748153 -0.638513 0.152859
-0.646873 0.285672 0.621422
-0.154813 -0.138872 0.618726
-0.187958 0.256714 -0.735842
-0.153830 -0.140427 0.619917
-0.169588 -0.620199 -0.749329
-0.139173 -0.599646 0.169137
0.312738 0.258590 0.631197
-0.630297 -0.185178 0.151505
-0.150290 0.795410 -0.313936
0.749169 -0.637821 0.151574
0.747859 -0.184233 0.609047
0.748485 -0.184645 0.608890
0.296974 -0.613137 0.612333
0.296972 -0.615003 0.611108
0.749014 -0.184779 0.608079
-0.630612 -0.184910 0.150887
-0.138102 -0.599754 0.169899
-0.592781 0.279690 -0.251804
-0.647817 0.283589 0.617875
-0.169055 -0.618561 -0.749726
-0.179103 0.731470 0.595259
-0.150801 0.794427 -0.316685
-0.593919 0.277287 -0.253702
-0.155350 -0.140968 0.619166
-0.606469 -0.627946 -0.303193
-0.167958 -0.619309 -0.749952
-0.137892 -0.598989 0.173422
-0.138385 -0.599863 0.172677
-0.606279 -0.626752 -0.305505
-0.185541 0.255865 -0.740167
-0.613339 0.772381 0.167296
0.724049 0.281604 0.142050
0.748453 -0.185855 0.609666
-0.149621 0.793508 -0.315895
0.292204 -0.177137 -0.724337
0.725624 0.282717 0.143450
-0.607266 -0.626374 -0.304205
-0.615175 0.773639 0.166063
-0.178802 0.732853 0.594056
0.313269 0.259155 0.633112
0.311757 0.259081 0.630983
-0.648097 0.284755 0.620425
-0.177073 0.731116 0.594228
0.292523 -0.178130 -0.723244
-0.138009 -0.597870 0.171648
0.750951 -0.636927 0.152973
0.295478 -0.615227 0.611919
0.293659 -0.634739 -0.282789
0.256883 0.293700 -0.259660
0.763580 -0.147578 -0.275971
-0.627189 -0.167464 -0.730836
0.297926 -0.614865 0.612213
-0.646035 0.285139 0.619779
-0.648270 0.283970 0.617922
-0.647397 0.285834 0.619407
-0.626382 -0.167904 -0.732118
0.298210 -0.614046 0.612479
-0.613807 0.771925 0.165356
-0.631551 -0.185742 0.150501
-0.608886 -0.626584 -0.304398
-0.593342 0.277830 -0.253878
0.294027 -0.635154 -0.281473
0.765376 -0.148010 -0.274417
-0.155314 -0.141188 0.618563
0.748594 -0.186897 0.608844
0.748805 -0.639012 0.150869
0.291107 -0.177779 -0.724712
0.255944 0.292821 -0.259439
0.748776 -0.185181 0.609620
-0.648379 0.283568 0.619813
-0.612833 0.771723 0.166594
-0.135893 -0.600299 0.169935
-0.648504 0.286998 0.618630
-0.626694 -0.166408 -0.732177
0.762219 -0.146333 -0.273935
-0.185703 0.255774 -0.737050
-0.633127 -0.186412 0.151105
-0.171151 -0.618628 -0.751449
0.762410 -0.148089 -0.273964
0.293699 -0.634641 -0.282085
-0.187811 0.254498 -0.737904
0.762388 -0.148298 -0.275332
-0.626704 -0.168742 -0.731599
-0.613764 0.771609 0.168411
0.289222 -0.178853 -0.724727
-0.648996 0.284531 0.618452
-0.154840 -0.140580 0.617702
-0.608246 -0.624788 -0.303793
-0.608469 -0.627111 -0.305087
-0.632137 -0.185524 0.150682
-0.137365 -0.600377 0.170597
0.292957 -0.631554 -0.280614
0.259605 0.782830 0.166843
-0.615256 0.771118 0.167492
0.315028 0.257579 0.630970
-0.611857 0.773474 0.167805
0.258680 0.781964 0.168475
-0.149733 0.794908 -0.314778
-0.608985 -0.625999 -0.305872
-0.648066 0.283650 0.618304
-0.186052 0.256542 -0.737967
0.724490 0.281669 0.142366
-0.149423 0.794819 -0.316867
-0.153889 -0.141251 0.616291
-0.632123 -0.186050 0.150673
-0.626696 -0.166471 -0.732804
-0.610766 0.771479 0.166993
-0.171437 -0.619888 -0.748792
0.764148 -0.148012 -0.274720
-0.593441 0.278419 -0.252308
-0.629770 -0.184538 0.150796
-0.627700 -0.167910 -0.731876
-0.171306 -0.618837 -0.749349
-0.632283 -0.185985 0.149536
-0.594250 0.277222 -0.252811
0.260194 0.783507 0.168085
-0.647746 0.284264 0.619995
-0.629402 -0.185844 0.150421
0.297583 -0.613839 0.612087
0.296946 -0.616821 0.611590
-0.138265 -0.597549 0.172802
-0.153931 -0.139733 0.618048
0.314169 0.258679 0.631857
0.748647 -0.637303 0.150184
