OFF
256 0 0
0.293562 0.631162 -0.631520
-0.630025 0.168794 0.757119
0.296059 -0.757041 -0.166929
-0.629315 0.630678 0.296199
0.756526 0.169885 -0.631564
-0.169090 -0.757049 -0.631533
-0.630297 0.168811 0.757204
-0.631319 -0.756930 -0.169364
0.295569 -0.756918 -0.168293
-0.166934 0.632650 0.758062
0.294400 0.633126 -0.631235
0.293995 -0.296431 0.293976
-0.165834 0.170122 -0.631018
-0.166852 0.169031 -0.631121
-0.166672 0.629386 0.757484
0.294709 0.167967 0.759265
-0.628956 0.168917 0.758280
-0.632430 -0.757363 -0.167219
0.757087 0.167851 0.294988
-0.169000 -0.294550 0.757027
0.757852 0.168695 0.294689
0.757972 0.167793 -0.630716
0.295368 -0.756538 -0.168053
0.756611 0.630814 -0.167801
-0.631437 -0.295192 0.294354
-0.629952 0.168604 0.757540
0.295157 -0.293886 -0.632005
0.294208 0.630108 0.292944
0.294750 -0.293596 0.293979
0.755520 -0.293960 -0.168869
-0.631953 0.168652 -0.168335
-0.630522 -0.295018 0.294376
0.293038 -0.756731 -0.167998
-0.169458 -0.757106 -0.630155
0.295129 -0.293929 0.295157
0.294727 -0.756539 -0.168291
-0.167539 0.628857 -0.168414
-0.630697 0.167918 0.757112
0.296531 0.631172 -0.632404
0.294658 -0.757459 -0.168367
-0.631533 -0.293913 -0.629704
0.295647 0.629802 -0.629112
0.757334 0.168336 0.295922
-0.168035 0.632008 -0.168092
0.757633 0.630383 -0.168530
0.294570 -0.295647 -0.630497
-0.167834 -0.757037 0.293558
-0.169293 -0.295612 0.757964
0.294709 -0.294344 0.294954
0.294791 -0.296002 -0.632026
0.756755 -0.292800 -0.167064
-0.168543 -0.757600 -0.630338
0.758223 0.631168 -0.167283
0.294996 0.169546 0.756472
-0.632189 0.167050 -0.170244
0.757565 -0.293649 -0.169040
-0.631999 0.167368 0.758552
0.294416 -0.757610 -0.166245
-0.632538 -0.294283 0.295529
-0.630528 -0.295358 0.296045
-0.168486 0.167877 -0.631065
0.293788 -0.293688 -0.629737
-0.168593 -0.757202 0.296324
-0.629440 0.167048 -0.167372
0.758487 -0.293761 -0.167774
-0.630458 0.168522 0.757002
-0.630887 0.630839 0.293382
0.294026 0.631930 -0.630709
0.294412 -0.295588 0.294429
0.757830 0.631473 -0.168560
0.294943 0.167318 0.756616
0.757855 0.630990 -0.169443
-0.629725 0.167155 -0.168053
-0.166410 -0.293107 0.756226
-0.168393 0.632400 -0.167888
-0.168541 -0.295868 0.756151
-0.169366 -0.756898 -0.631968
0.294887 -0.295536 -0.631388
-0.632043 0.631861 0.294479
0.293785 -0.294278 -0.630252
0.295233 -0.294933 0.292025
0.295052 -0.294017 -0.629587
-0.630626 -0.757251 -0.169278
-0.169083 -0.756834 -0.631496
0.293085 -0.756889 -0.168871
0.292394 -0.294861 0.293634
-0.629846 0.169176 -0.169510
-0.630549 -0.756717 -0.170606
-0.630347 -0.293894 0.294883
0.292840 -0.293777 -0.631485
0.293959 -0.294970 0.296156
0.293889 -0.294442 0.295981
0.757472 0.168584 0.294012
-0.630822 -0.294514 -0.630440
-0.167498 -0.294895 0.755157
0.756263 0.169424 -0.631648
0.757735 0.167525 -0.630687
0.295049 -0.294626 0.292498
0.757724 0.630796 -0.168023
0.756559 0.167134 -0.630663
-0.631416 0.631798 0.295000
-0.631014 0.631970 0.294665
0.295102 0.631350 0.293506
-0.632072 0.166743 0.759377
-0.170757 -0.756997 -0.630376
-0.631415 0.630470 0.295334
-0.630973 -0.295438 0.294120
-0.168061 0.631944 0.757974
-0.167576 -0.757391 0.294780
0.757258 -0.296143 -0.168538
-0.630853 0.168876 -0.168310
0.755681 0.169429 -0.630227
0.755813 -0.295200 -0.168552
0.757561 0.169583 -0.632262
-0.167168 -0.294874 0.756548
-0.632493 0.630314 0.294296
0.295225 0.167469 0.758274
-0.167971 -0.294676 0.757737
0.755671 0.166699 -0.631524
-0.169633 0.630004 -0.166476
-0.170365 -0.294305 0.756910
0.295006 -0.296019 -0.629969
-0.168984 -0.757254 0.295944
0.295900 0.630718 0.294172
-0.167407 -0.755990 -0.631632
-0.632489 -0.293156 0.295107
0.294775 0.167879 0.757772
-0.630510 -0.294547 -0.630699
-0.631296 0.629930 0.294875
-0.167845 -0.294122 0.755842
0.757087 -0.295227 -0.168609
-0.167712 -0.295147 0.757442
-0.168379 0.629217 -0.168887
-0.630872 -0.757605 -0.167051
0.756810 0.169333 -0.630280
0.296943 0.168360 0.757239
0.756634 0.168228 -0.630916
-0.168075 -0.755281 -0.630545
0.756355 0.170330 -0.631525
0.293797 0.631485 -0.632669
0.757539 -0.293559 -0.167433
-0.630750 0.168774 -0.168868
0.757730 0.169162 0.295459
-0.631797 0.632163 0.295826
-0.630291 0.168976 -0.168393
-0.170927 -0.755737 -0.632072
0.293909 0.167706 0.757103
-0.166367 0.629865 -0.167520
-0.632178 0.168306 -0.168481
0.293836 -0.758617 -0.168433
-0.170635 0.171392 -0.632257
-0.630337 -0.294169 -0.629405
0.757934 0.168944 0.293835
0.294939 -0.295943 0.293563
-0.168609 -0.755303 0.295484
-0.168446 0.631367 -0.169660
-0.167927 0.632576 -0.168434
0.293950 0.168215 0.756958
0.756821 0.629802 -0.167705
-0.632535 0.168747 0.756863
-0.631526 -0.755563 -0.167161
-0.167292 -0.758504 0.294469
0.295412 -0.294577 -0.632347
-0.631315 -0.757626 -0.167299
-0.169674 0.630993 0.756012
-0.631559 -0.757472 -0.169274
-0.631166 -0.756123 -0.169697
0.755943 -0.294693 -0.168727
0.293279 -0.759236 -0.168489
-0.632077 0.167823 -0.168042
0.758929 0.168739 -0.631399
0.295561 -0.756136 -0.166071
0.295465 0.631017 -0.631696
-0.169578 -0.757524 0.293813
-0.168974 0.630773 0.756758
0.758688 0.167960 0.293875
-0.630700 -0.295712 0.294544
-0.167416 -0.294379 0.755882
0.294450 0.632198 0.293470
0.294022 -0.294580 -0.632466
-0.629952 -0.295917 0.294586
0.757176 0.168747 -0.631518
-0.630764 0.168045 -0.169022
-0.169207 -0.757061 0.296071
0.758347 -0.292786 -0.168486
-0.632657 -0.293223 0.295578
0.293828 0.632343 -0.631862
0.292333 -0.293996 0.294323
0.294524 0.629134 -0.630638
-0.168367 -0.756145 -0.629970
-0.632517 0.167743 -0.167890
-0.630016 -0.756883 -0.167782
-0.631500 -0.293703 0.296897
-0.166822 -0.292995 0.756293
0.756755 -0.295181 -0.168167
0.295006 0.168730 0.758338
0.293789 -0.757201 -0.167879
0.757290 0.632713 -0.167761
-0.631533 -0.294686 -0.630615
-0.632435 -0.294686 0.294753
0.757779 0.169858 0.294670
-0.633654 -0.294653 -0.629607
0.294424 0.630619 -0.629936
0.295264 0.631337 -0.631088
-0.628997 -0.295919 0.295186
-0.169739 -0.755912 -0.631328
0.295139 0.168151 0.757744
-0.166954 0.632140 0.758097
-0.168196 -0.757382 0.293200
-0.168411 -0.295556 0.757627
-0.630659 0.632159 0.294108
-0.632449 -0.294846 0.294538
-0.631658 0.168812 0.756483
-0.166984 0.168275 -0.629301
0.295274 -0.757658 -0.169222
-0.631545 0.167759 0.755851
-0.168795 -0.757420 0.293263
-0.169135 0.168064 -0.629654
-0.168298 -0.756990 0.296048
-0.630374 -0.757087 -0.168257
-0.629433 0.168426 0.757470
-0.629989 -0.757578 -0.167815
-0.631334 -0.293654 0.294407
0.757552 0.630926 -0.169112
0.294403 0.630999 0.294548
0.756968 0.632845 -0.167581
0.293052 -0.757232 -0.167984
-0.628093 -0.294294 0.293677
0.294084 0.631585 -0.631937
-0.167978 0.168095 -0.630634
-0.166802 -0.758805 -0.628754
0.295207 0.632635 -0.632493
-0.167992 -0.759157 -0.631729
0.292755 0.632651 0.296515
0.756586 0.630281 -0.168843
-0.630783 -0.294317 0.294024
0.758135 0.170789 0.294406
0.295517 -0.757453 -0.168245
-0.168110 -0.293612 0.757557
-0.168269 0.169142 -0.632306
-0.630145 -0.293100 -0.631729
-0.166973 0.630556 0.757850
-0.632741 -0.294564 0.293183
0.293353 0.168150 0.756919
-0.169169 0.631739 -0.168471
0.757864 0.168352 0.293716
-0.630588 0.168875 0.755766
0.756911 0.168678 -0.631560
-0.167610 0.169874 -0.632810
-0.632530 -0.756029 -0.169206
-0.169615 0.168894 -0.631071
0.757694 0.630786 -0.168194
0.293863 -0.296543 -0.630460
-0.632125 -0.295387 0.294302
0.758886 0.630949 -0.168458
0.756990 0.629100 -0.168612
