OFF
256 0 0
-0.152977 -0.724893 0.289371
-0.598605 -0.743043 -0.158618
0.716055 -0.294896 -0.146856
-0.598388 -0.743484 -0.155055
0.715966 -0.296573 -0.147281
0.297640 -0.289052 -0.641902
0.294179 0.607155 -0.602259
-0.595686 -0.305799 0.264850
0.730646 0.162466 -0.595330
-0.159203 0.163840 -0.598902
-0.585842 -0.300023 -0.616621
0.745062 0.166445 0.296606
-0.585989 -0.299404 -0.616345
-0.182500 0.623686 0.737263
-0.612631 0.188381 0.734196
0.294742 0.610886 -0.599691
0.716637 -0.294189 -0.147140
-0.590969 0.141665 -0.168243
-0.584018 -0.301912 -0.617421
0.744457 0.168391 0.294913
-0.598916 -0.744574 -0.155751
0.260970 -0.247260 0.288971
0.716459 -0.296313 -0.147486
0.730874 0.162166 -0.594953
-0.178890 -0.289660 0.736358
-0.177034 0.645888 -0.197994
-0.596397 -0.305263 0.267116
-0.615674 0.190150 0.731978
-0.182226 0.625879 0.733684
-0.590112 0.140167 -0.168045
0.744446 0.169493 0.295207
-0.181097 0.624094 0.735984
0.716859 -0.294585 -0.148568
-0.584119 -0.298561 -0.617109
-0.180886 -0.292195 0.736833
0.297732 -0.289119 -0.642863
0.270077 0.184479 0.732956
-0.181254 0.622395 0.736843
0.773384 0.614540 -0.153348
-0.177976 0.645045 -0.198382
-0.154322 -0.726155 0.287698
-0.177011 0.645350 -0.198277
0.746098 0.166606 0.295573
0.290622 -0.733183 -0.135791
0.297315 -0.288166 -0.642731
0.746762 0.168971 0.293948
0.732713 0.159707 -0.597325
-0.616974 0.596096 0.264518
-0.173053 -0.744205 -0.597744
-0.158486 0.163767 -0.599162
0.290129 -0.731883 -0.136781
-0.593316 0.142667 -0.168280
-0.171371 -0.742550 -0.598150
0.718331 -0.296009 -0.145372
-0.178107 -0.290586 0.738495
-0.613819 0.188404 0.733672
-0.179850 -0.290217 0.737191
-0.618671 0.594518 0.263953
-0.181954 0.624693 0.735123
0.289679 -0.731815 -0.137294
0.714559 -0.295795 -0.146516
-0.155320 -0.725601 0.286833
0.294544 0.610808 -0.602010
0.269967 0.183603 0.732517
-0.160240 0.163353 -0.599856
0.247922 0.575353 0.270427
0.262399 -0.249509 0.288099
-0.598728 -0.742875 -0.157130
-0.598410 -0.740222 -0.157310
0.248294 0.574717 0.271671
-0.596704 -0.305786 0.265495
0.718257 -0.293608 -0.147643
-0.618800 0.594267 0.264400
-0.172842 -0.743547 -0.597869
-0.613875 0.188774 0.732430
-0.616932 0.593821 0.265676
-0.599135 -0.743728 -0.155491
-0.155800 -0.727029 0.285348
-0.597113 -0.305383 0.267049
0.772964 0.613732 -0.152364
0.249681 0.573802 0.270749
-0.615254 0.190421 0.732494
-0.584867 -0.302132 -0.615743
-0.159680 0.163584 -0.600205
-0.178651 0.646798 -0.198122
0.272319 0.185199 0.732954
0.260889 -0.248263 0.289732
-0.157474 0.166296 -0.598941
0.295989 -0.289704 -0.643645
-0.179073 0.646258 -0.201036
0.773905 0.615049 -0.153420
-0.583566 -0.299236 -0.616061
0.289390 -0.730929 -0.136956
0.299592 -0.290724 -0.642181
0.773713 0.614425 -0.151664
-0.172492 -0.742571 -0.597334
-0.157203 0.164099 -0.600180
-0.615705 0.596196 0.265749
0.731385 0.161628 -0.596462
0.260103 -0.247740 0.290602
-0.155907 -0.727326 0.287093
-0.585178 -0.300642 -0.615833
0.717042 -0.294240 -0.146502
0.773067 0.615215 -0.152783
-0.598928 -0.742130 -0.156871
0.270684 0.183440 0.730776
-0.593838 -0.305172 0.267107
0.298060 -0.290989 -0.642236
-0.153544 -0.725071 0.286322
-0.158710 0.162457 -0.596688
-0.619406 0.594327 0.265357
-0.178803 -0.291302 0.737766
0.292182 0.609309 -0.600672
0.730439 0.161396 -0.596583
-0.179631 -0.290302 0.738960
-0.618731 0.593795 0.265854
0.772251 0.616078 -0.153157
0.775536 0.614565 -0.151859
-0.596706 -0.304097 0.266368
0.289915 -0.731434 -0.136977
-0.590449 0.142641 -0.168947
-0.617391 0.594297 0.264169
0.248735 0.575335 0.272017
-0.617055 0.189499 0.732286
-0.176572 0.644691 -0.199269
-0.598482 -0.741903 -0.155856
-0.590464 0.143587 -0.170636
0.248227 0.576535 0.269222
0.715237 -0.295788 -0.146624
-0.154643 -0.724941 0.286569
0.774492 0.614857 -0.153362
-0.154074 -0.725866 0.288129
-0.159925 0.164198 -0.598264
0.290311 -0.731663 -0.136395
-0.155982 -0.725908 0.287197
-0.175167 -0.742606 -0.597368
-0.594619 -0.305102 0.265953
-0.614975 0.190979 0.731916
0.293155 0.609941 -0.602018
-0.595849 -0.305299 0.266068
0.248349 0.574660 0.272054
0.294550 0.610682 -0.602454
0.249234 0.576312 0.273009
-0.159338 0.163798 -0.597843
-0.170897 -0.743375 -0.598059
-0.615218 0.192867 0.733835
0.297195 -0.289358 -0.642807
-0.596580 -0.307432 0.266104
0.294161 0.608365 -0.601447
-0.596727 -0.305785 0.266962
0.729592 0.162083 -0.594657
0.260636 -0.247177 0.290908
-0.589728 0.142890 -0.167378
0.718074 -0.296397 -0.147130
-0.177197 0.645788 -0.200721
0.729546 0.160791 -0.596951
-0.178231 0.644729 -0.198911
-0.595716 -0.307016 0.266490
-0.599065 -0.743267 -0.157667
0.732722 0.161673 -0.595649
0.261957 -0.248249 0.290303
0.261881 -0.246786 0.290671
-0.616585 0.593068 0.262934
0.271306 0.183013 0.734536
-0.172778 -0.741393 -0.598192
-0.614603 0.189302 0.733201
-0.590308 0.143379 -0.169347
-0.615552 0.188566 0.733923
-0.154270 -0.723915 0.287367
-0.179842 -0.289666 0.736375
-0.617847 0.595202 0.263929
-0.179479 -0.290241 0.737259
0.249208 0.573519 0.272069
-0.182582 0.622282 0.733765
0.248109 0.576052 0.271745
-0.598609 -0.743437 -0.156665
-0.160542 0.164878 -0.601137
0.745685 0.166379 0.294301
-0.616790 0.595029 0.265750
0.774485 0.614797 -0.152587
-0.172555 -0.743957 -0.598311
-0.178690 0.645753 -0.196812
-0.178338 -0.290557 0.738836
-0.614843 0.188683 0.733233
0.745229 0.166515 0.294133
-0.591073 0.143432 -0.167343
0.716285 -0.296106 -0.147393
0.746601 0.167745 0.295792
0.293648 0.609700 -0.601384
-0.160204 0.163661 -0.600523
-0.617791 0.595372 0.265508
-0.616109 0.594869 0.265085
0.262488 -0.248286 0.290262
0.289884 -0.732705 -0.135873
-0.181300 0.623047 0.734299
-0.183416 0.623806 0.734737
0.773456 0.613840 -0.152097
-0.618478 0.592862 0.264227
0.248662 0.575553 0.271577
-0.589243 0.143432 -0.166625
0.262427 -0.250001 0.290249
-0.178412 0.644927 -0.198664
0.297679 -0.290284 -0.644240
0.248763 0.574950 0.269484
0.293286 0.608652 -0.601393
0.717890 -0.294828 -0.147885
-0.595244 -0.305304 0.265942
0.295108 0.607936 -0.600927
-0.586288 -0.299406 -0.614772
-0.590865 0.142819 -0.168963
-0.159667 0.162903 -0.599423
0.288255 -0.732633 -0.136824
0.716296 -0.295819 -0.147449
-0.590308 0.142697 -0.168069
-0.178551 0.646673 -0.197105
-0.598180 -0.743767 -0.155692
-0.590173 0.144818 -0.168310
-0.173585 -0.741587 -0.597962
-0.159875 0.163778 -0.599319
0.261086 -0.247482 0.291514
-0.177575 0.645478 -0.200073
-0.178093 -0.291691 0.736862
-0.615467 0.189128 0.733163
-0.596474 -0.305744 0.266650
-0.590004 0.143343 -0.167537
0.270487 0.183107 0.731252
-0.613652 0.189966 0.731902
0.774601 0.616867 -0.154022
0.262195 -0.248640 0.288843
-0.159021 0.163847 -0.599172
0.774990 0.612827 -0.153139
0.745752 0.168172 0.294765
0.271657 0.180899 0.732336
-0.172219 -0.742272 -0.597942
0.773353 0.613385 -0.152574
-0.590121 0.142446 -0.168461
-0.614572 0.190960 0.733658
0.746443 0.166554 0.294942
0.298643 -0.289312 -0.644189
0.262315 -0.248446 0.290016
-0.600924 -0.741222 -0.157060
0.731603 0.163082 -0.597084
-0.180997 -0.290909 0.737266
0.270390 0.183707 0.731239
-0.599757 -0.740444 -0.156384
-0.596348 -0.305197 0.265087
-0.615998 0.594986 0.263181
0.296216 -0.289537 -0.643593
0.271462 0.183553 0.733434
-0.589035 0.145328 -0.168710
0.773551 0.614106 -0.152428
-0.154492 -0.727075 0.287741
-0.182085 0.624130 0.737074
-0.583947 -0.301142 -0.616669
-0.617354 0.593703 0.265391
0.293266 0.608880 -0.600577
