OFF
256 0 0
0.470139 0.237120 -0.706984
0.472274 -0.235528 -0.236915
0.000233 -0.706286 0.707465
0.471440 -0.707448 0.236280
0.471176 -0.708941 0.236455
-0.000198 0.706652 0.237778
-0.000653 0.235603 0.706525
-0.469038 0.706175 -0.234764
0.471974 0.235476 0.237023
0.471985 -0.706233 0.235775
0.471313 -0.707416 0.236658
-0.472305 0.235454 0.236068
0.000916 -0.234458 -0.708507
0.469654 -0.707992 0.236100
0.472277 0.234499 0.236303
0.471536 0.236526 0.234965
0.471457 -0.237668 0.706310
-0.000370 0.706384 -0.707264
-0.000569 -0.707085 0.706440
-0.470202 0.234697 0.235428
-0.470493 -0.706966 0.234828
0.471265 -0.706623 0.235563
0.000416 0.234601 0.705854
-0.470562 -0.234341 -0.237274
0.471614 -0.707967 0.235892
0.471788 -0.235517 0.708043
0.471072 -0.708671 0.236626
0.001313 0.234562 0.707857
-0.471084 -0.234945 0.708556
0.470906 0.706973 -0.235352
-0.471389 0.236319 0.236261
-0.000479 -0.706955 -0.233957
0.471346 0.707721 -0.235178
0.000966 -0.236216 -0.709322
0.000187 0.705515 -0.705648
0.002638 0.706451 -0.707660
0.470634 -0.236151 -0.236199
-0.470506 0.706378 -0.237067
-0.000633 0.235482 0.707483
-0.470195 0.235067 -0.707185
-0.472118 -0.707837 0.236251
-0.000222 -0.704837 -0.237174
-0.473232 -0.707358 0.233945
0.470468 -0.708742 0.234998
-0.001006 0.235618 0.707813
-0.000676 -0.707053 0.707424
-0.001037 0.705513 0.235822
0.471924 -0.236340 -0.236820
-0.472072 0.706630 -0.235827
-0.471408 -0.234161 -0.236480
0.472301 -0.235445 0.706659
0.472062 0.707709 -0.237176
0.471641 0.235606 0.236056
-0.471163 0.235876 0.236889
0.469273 -0.706889 0.234944
-0.472034 -0.708054 0.235821
0.470648 -0.707734 0.236351
-0.472050 -0.237072 0.706040
0.472091 0.706294 -0.234668
0.000028 -0.235126 -0.706705
0.471972 0.234020 0.236246
0.000350 0.236546 0.707649
-0.000006 0.706384 0.236247
-0.000575 0.707020 -0.707079
0.471360 0.707495 -0.234726
0.472786 0.236255 -0.707772
-0.472123 0.237698 -0.707634
0.000972 -0.706940 -0.236016
0.471379 -0.235054 0.706522
0.471368 0.706625 -0.235089
0.470614 0.705281 -0.236381
0.471730 -0.235457 0.705804
0.001197 -0.237804 -0.706508
0.470656 0.236524 0.235398
-0.471456 0.236039 0.235024
0.471424 0.235701 0.236808
-0.001050 -0.708670 -0.235172
-0.471862 -0.236982 -0.235684
0.471897 0.235130 -0.706403
-0.000417 -0.707110 -0.234619
-0.470794 -0.707318 0.236062
0.472138 0.236701 -0.706737
-0.470704 -0.235088 0.707687
0.000125 -0.708520 0.708113
0.471328 0.234429 -0.707266
0.001071 0.234958 0.707142
-0.470298 -0.236439 0.706829
0.000819 0.234893 0.707646
0.472905 0.236123 0.235042
0.470516 -0.233898 -0.236652
-0.471314 -0.707120 0.235565
-0.470522 0.236202 0.236774
-0.472899 -0.706182 0.235229
0.472535 -0.235574 -0.237259
0.000771 -0.708297 0.706351
0.470309 0.707068 -0.234665
0.471282 0.705943 -0.235165
-0.472814 -0.708245 0.236816
0.472738 -0.707565 0.236786
-0.001002 0.706578 -0.707440
0.000041 0.706589 -0.707896
-0.472470 -0.235689 -0.233618
-0.002046 -0.706411 -0.235139
0.001171 -0.236327 -0.707447
0.470185 -0.235198 -0.236941
0.000765 -0.705236 0.708652
-0.471862 -0.235703 0.709295
-0.001164 0.704729 0.235182
-0.472399 -0.706825 0.234726
-0.471393 0.235457 -0.708588
0.470320 -0.708369 0.234372
-0.000670 0.705844 -0.706756
-0.001526 -0.235115 -0.707728
0.472403 -0.236148 0.707060
-0.471591 -0.707473 0.234034
0.472488 0.237446 -0.709234
0.472378 0.234909 0.236813
0.469352 -0.705618 0.235178
0.000644 0.236057 0.707356
-0.001767 0.709370 -0.706841
-0.473019 0.707547 -0.235578
-0.471725 0.707415 -0.236765
0.000005 0.235659 0.706396
0.000381 -0.706313 -0.237095
-0.471749 0.235181 -0.705723
0.471597 -0.235190 0.707599
0.469913 0.237358 0.234088
-0.000083 -0.705527 -0.234506
-0.469665 0.236277 -0.707248
0.000390 -0.706316 -0.235197
0.472297 0.705619 -0.234122
0.471602 -0.707804 0.236613
-0.472716 -0.707511 0.235308
0.471281 0.235736 -0.705387
0.472510 -0.236559 -0.234091
-0.472877 -0.705276 0.237307
-0.471557 -0.705939 0.234820
0.471051 -0.235634 0.708230
0.469837 0.706558 -0.236248
0.471721 0.236035 -0.707527
0.000319 -0.235843 -0.705684
-0.000332 -0.706394 -0.235251
-0.471277 -0.705728 0.234027
-0.471349 0.236313 0.235409
0.472658 0.235201 0.236514
0.471910 -0.233555 0.707519
-0.471518 -0.707677 0.234681
0.471552 -0.235137 -0.235964
0.469760 -0.237074 -0.235539
0.472756 -0.232859 -0.235876
0.000479 0.235255 0.708321
0.471312 0.235725 0.233954
0.000646 0.234774 0.707273
0.473516 -0.237483 0.706745
-0.472735 -0.237226 -0.235970
0.471643 -0.235242 -0.236546
-0.470618 0.705014 -0.236143
0.472179 -0.708799 0.236393
0.470541 0.236423 -0.706987
-0.472207 -0.707406 0.236271
0.470671 0.234431 -0.708762
-0.471263 -0.706524 0.235751
0.000229 -0.237073 -0.706725
-0.471430 0.236539 -0.707011
-0.470775 0.706575 -0.236299
-0.471644 0.707265 -0.237091
-0.471352 -0.236536 -0.235765
0.470419 -0.707460 0.236857
-0.471215 -0.235435 0.707388
-0.470460 0.707875 -0.237106
0.000118 -0.706226 -0.235270
-0.472695 -0.236261 0.707957
-0.001346 -0.707483 -0.236388
-0.000045 0.706363 0.235569
-0.472357 0.236532 -0.707995
0.471308 0.234357 -0.708635
-0.000775 -0.706373 -0.236506
-0.472474 0.236171 -0.708252
-0.470775 -0.707164 0.236152
0.470151 -0.707383 0.235067
-0.471268 0.709014 -0.235668
-0.472138 0.236304 -0.708657
0.000677 0.708107 0.234631
-0.000564 -0.708041 -0.237890
0.000261 0.707430 -0.705583
-0.471245 -0.707824 0.234728
0.469998 0.708793 -0.235974
0.471486 0.705887 -0.236896
0.471512 -0.234169 -0.237820
-0.002306 0.706745 -0.707080
-0.000632 -0.234737 -0.705633
0.470440 0.706050 -0.237498
-0.000102 -0.707342 0.707466
0.469095 -0.706210 0.236306
-0.000883 0.707306 -0.706337
-0.470988 -0.235077 0.706577
0.000641 -0.707868 -0.235296
-0.471318 0.235498 -0.706370
0.000578 0.707000 -0.706787
-0.470262 -0.234071 0.706975
-0.471582 0.707236 -0.235629
-0.000445 0.235435 0.705686
-0.471123 -0.706468 0.235425
0.470932 0.234953 -0.705824
0.471332 -0.234509 -0.235057
0.471492 0.234922 0.234734
0.475042 0.235450 -0.706836
-0.001459 0.707877 0.234210
-0.471756 0.235961 -0.708026
0.000397 -0.238068 -0.708490
-0.471123 0.235099 0.236879
-0.000978 0.705608 0.236286
-0.000102 0.237253 0.707580
-0.000251 0.707931 0.238413
-0.000131 -0.705836 0.708142
0.001578 -0.707186 -0.237002
0.001574 -0.706819 0.705807
0.470771 -0.237108 0.705606
0.471381 -0.235975 0.708288
-0.000138 0.706973 0.235820
0.001174 0.237183 0.706769
-0.000459 0.705986 0.235664
-0.000279 0.706535 -0.707132
0.472504 0.708146 -0.235862
0.000738 -0.707185 0.706473
0.470694 0.234746 0.236217
-0.470809 -0.237620 -0.237883
-0.001801 -0.707909 0.705717
-0.469476 -0.236037 0.706075
0.469617 -0.707462 0.237251
0.469278 0.237401 -0.705809
0.472145 0.235370 0.235943
-0.470041 -0.236078 -0.235354
-0.000735 0.708219 -0.708068
0.472829 -0.707207 0.236272
-0.473354 -0.706248 0.237150
0.471588 -0.236496 0.707412
0.471184 0.234906 0.234926
0.471945 -0.235670 0.707765
-0.471273 0.705961 -0.234646
0.472019 0.235322 -0.704390
0.471503 0.235809 0.235616
-0.472759 -0.707315 0.234948
-0.470479 -0.707927 0.236095
-0.471269 -0.234314 0.706476
0.471684 0.704112 -0.236156
0.469252 0.235710 0.236070
-0.471139 0.234375 -0.707001
-0.471748 -0.236197 0.708144
-0.000407 -0.707884 0.707372
0.469861 0.236517 -0.706168
-0.000105 0.708082 -0.707145
-0.471720 0.234179 0.236396
0.000401 -0.707499 -0.234875
-0.471742 0.236895 0.234948
-0.000804 -0.706349 0.708304
