OFF
256 0 0
-0.217999 0.677641 0.702454
-0.671283 0.681717 0.277036
-0.652416 -0.213076 -0.657351
-0.654845 -0.681067 -0.242762
-0.647898 0.258947 -0.216402
-0.242668 -0.254605 0.671369
-0.651967 -0.212410 -0.658473
-0.656704 -0.193998 0.205778
-0.654322 -0.195364 0.204461
0.213927 -0.216688 -0.653006
0.217693 -0.689493 0.651187
0.211369 -0.217585 -0.654409
0.664408 -0.240592 0.675889
-0.217868 0.677080 0.701155
-0.218789 0.234347 -0.672138
-0.237078 -0.663664 0.202411
-0.243330 -0.254208 0.674222
0.663822 -0.242783 0.674651
-0.238843 -0.663709 0.198919
0.226971 0.654395 0.248740
0.663145 0.652683 -0.227558
0.670073 -0.659352 0.199855
-0.652758 -0.213671 -0.657575
-0.209932 0.665388 -0.214017
-0.656043 -0.195644 0.206155
0.699560 0.212493 0.232780
-0.653763 -0.680390 -0.243356
-0.219148 0.237294 -0.671906
0.216929 -0.687925 0.651151
-0.653798 -0.680953 -0.243930
-0.229526 -0.650047 -0.698107
0.701521 0.212704 0.233751
0.664998 -0.242731 0.675798
-0.651034 0.260350 -0.215694
0.213367 -0.215273 -0.652760
-0.208791 0.664353 -0.210710
0.702282 0.213466 0.232538
0.215815 -0.215730 -0.653733
-0.238302 -0.665309 0.198895
-0.652741 -0.214772 -0.659157
0.644180 -0.227354 -0.194730
-0.220553 0.234350 -0.671596
-0.219044 0.235190 -0.671555
-0.654108 -0.214146 -0.659805
-0.220085 0.677819 0.701038
0.668732 -0.661829 0.199233
-0.231121 -0.649102 -0.698093
0.202379 -0.664622 -0.272176
0.216283 -0.687114 0.651920
0.216987 -0.688718 0.651633
0.668438 -0.658905 0.199432
0.663563 -0.240968 0.675947
-0.216815 0.678770 0.700829
-0.221175 0.235791 -0.670899
-0.237916 -0.661229 0.200328
0.665101 -0.243134 0.674735
0.662848 0.651514 -0.227526
0.664480 -0.241023 0.677096
0.662230 -0.241061 0.674344
-0.649448 0.258923 -0.217641
0.219712 0.199172 0.643666
-0.655202 0.237337 0.683879
0.662661 0.653633 -0.228478
0.653225 0.220771 -0.666347
0.644434 -0.225311 -0.196257
0.221937 0.200010 0.643944
-0.220362 0.678100 0.699662
0.213250 -0.215776 -0.654256
-0.221457 0.233585 -0.671010
-0.209084 0.666745 -0.211765
-0.231706 -0.649955 -0.697110
0.641831 -0.224825 -0.196862
-0.654490 0.236430 0.684733
-0.231811 -0.651421 -0.697425
0.645988 -0.225250 -0.197437
-0.210397 0.667064 -0.212044
-0.656638 -0.195991 0.205457
0.202398 -0.663615 -0.272118
-0.208011 0.667701 -0.210084
0.701232 0.213919 0.231288
-0.238319 -0.665700 0.201692
-0.669927 0.681447 0.276999
0.215145 -0.688381 0.651243
0.219567 0.201016 0.642459
-0.222584 0.235753 -0.672145
-0.669027 0.683096 0.274419
-0.219126 0.235596 -0.672176
0.644510 -0.227379 -0.194749
0.670681 -0.660499 0.199426
-0.219793 0.678788 0.699790
0.652728 0.221640 -0.664396
0.700773 0.214083 0.235616
0.214247 -0.215760 -0.654327
0.668525 -0.660528 0.197164
-0.244477 -0.252037 0.672376
0.224324 0.654266 -0.680328
-0.219524 0.678517 0.700681
-0.244412 -0.253291 0.673134
0.229513 0.653118 0.247998
-0.655151 0.236435 0.684022
-0.652886 -0.682225 -0.242525
0.669547 -0.659464 0.200130
0.215032 -0.687392 0.653807
-0.650445 0.259827 -0.217712
0.214249 -0.216947 -0.654853
-0.655704 0.237350 0.682743
-0.656221 -0.193827 0.206483
-0.654859 -0.680918 -0.243151
-0.236746 -0.663913 0.201034
0.661363 -0.239634 0.673957
0.221302 0.200479 0.643489
-0.230810 -0.649293 -0.697632
-0.655975 0.237266 0.684417
-0.654719 -0.193305 0.205795
0.227276 0.655886 0.250098
0.218294 0.198128 0.644881
0.653107 0.218901 -0.664241
0.227804 0.654671 0.248674
0.223824 0.653648 -0.678980
-0.653625 -0.680522 -0.244459
0.670650 -0.661312 0.199389
0.655058 0.219117 -0.663633
0.646486 -0.226050 -0.197010
0.703325 0.214567 0.234701
0.653732 0.221836 -0.664357
-0.656485 -0.195105 0.205900
0.225991 0.654702 -0.678722
0.660757 0.652755 -0.226835
-0.210673 0.665736 -0.211709
-0.242497 -0.253146 0.671174
-0.237056 -0.664909 0.201240
0.226668 0.653865 0.247703
-0.653845 -0.213147 -0.659956
0.228929 0.655776 0.248424
-0.222073 0.235617 -0.672817
0.213498 -0.215233 -0.653137
0.225255 0.653524 -0.680581
-0.243496 -0.253815 0.672135
0.668696 -0.661253 0.200114
0.201716 -0.664396 -0.272166
0.664217 0.653415 -0.225957
0.663315 0.653119 -0.227900
-0.655319 -0.683396 -0.243415
0.662316 0.651792 -0.227826
-0.653317 -0.213010 -0.656106
-0.669304 0.681556 0.274941
-0.657453 -0.195429 0.205478
-0.237227 -0.665157 0.200704
0.226658 0.656091 0.247956
0.662121 0.651677 -0.226695
0.700610 0.212902 0.233230
-0.219742 0.676961 0.702603
0.661187 0.652158 -0.227367
0.230155 0.654559 0.247903
-0.652223 -0.213850 -0.658406
-0.653514 -0.215326 -0.658412
-0.231932 -0.650428 -0.697973
-0.218414 0.236121 -0.672481
-0.650275 0.258864 -0.214909
-0.652070 -0.216140 -0.658876
-0.654042 -0.681747 -0.241741
-0.237350 -0.664418 0.200384
-0.232285 -0.651726 -0.697301
0.229298 0.656024 0.247749
-0.658734 -0.193196 0.205959
0.224585 0.652789 -0.680014
-0.657186 -0.193608 0.203251
-0.221691 0.235524 -0.670823
-0.243222 -0.254355 0.672125
-0.650901 0.258091 -0.217835
0.224710 0.654151 -0.679654
0.701577 0.213658 0.234449
0.203066 -0.662990 -0.272022
0.663975 0.653418 -0.228699
0.218415 -0.687463 0.652204
0.225870 0.655314 -0.678310
-0.650852 0.259183 -0.215850
0.662973 0.653352 -0.228239
0.212130 -0.215457 -0.654697
0.201531 -0.663867 -0.270808
0.217231 -0.689329 0.652444
-0.210338 0.665458 -0.209120
-0.656407 -0.193384 0.204883
0.217626 -0.687024 0.653427
-0.231197 -0.651618 -0.698877
0.226694 0.656522 0.248367
0.226749 0.652802 -0.679422
0.202352 -0.663983 -0.272607
0.221976 0.201963 0.643686
-0.222172 0.236609 -0.671843
0.663743 0.652343 -0.227782
0.652820 0.219616 -0.663560
-0.654883 -0.682377 -0.243536
0.670705 -0.661155 0.198748
0.663615 0.651555 -0.225498
-0.654020 -0.680631 -0.243829
0.228841 0.654129 0.248726
-0.222026 0.235258 -0.670635
0.226948 0.654047 0.249371
-0.221405 0.235585 -0.669442
-0.649349 0.260130 -0.217261
-0.231940 -0.649811 -0.697072
-0.671723 0.683242 0.276007
0.703132 0.212767 0.233698
0.203989 -0.663747 -0.269956
-0.218865 0.678767 0.701109
-0.651797 0.260226 -0.215637
0.215243 -0.216111 -0.654177
0.654611 0.220539 -0.663088
-0.242883 -0.255438 0.670532
-0.651093 -0.214990 -0.659170
0.662779 0.651926 -0.227159
0.701284 0.213373 0.233645
0.661653 -0.242883 0.675243
-0.650759 0.260631 -0.216039
0.699998 0.213688 0.235029
-0.217088 0.236521 -0.671173
-0.232690 -0.649485 -0.697338
0.701436 0.214578 0.232615
0.227951 0.654111 0.248347
0.224869 0.654472 -0.680063
0.224161 0.652988 -0.678821
-0.219141 0.235993 -0.673227
0.224626 0.655002 -0.681448
0.661633 0.652278 -0.227025
0.662360 -0.240418 0.673338
-0.231437 -0.650513 -0.696034
-0.209083 0.665606 -0.210494
-0.655329 0.236907 0.685052
0.661753 0.651509 -0.228429
0.662740 -0.242719 0.675437
0.228571 0.653524 0.247754
-0.242794 -0.253597 0.672152
-0.656304 0.238103 0.684375
-0.649928 0.257746 -0.217290
0.216565 -0.687695 0.652153
0.227224 0.654343 0.247394
0.226862 0.654646 0.249054
0.221786 0.201178 0.643499
-0.209313 0.665111 -0.212876
0.203913 -0.663257 -0.270444
0.201459 -0.664821 -0.271539
-0.237858 -0.663257 0.200005
-0.670052 0.681755 0.276660
-0.654344 -0.680462 -0.245374
-0.670768 0.682532 0.275857
-0.239525 -0.664868 0.202394
0.225639 0.651562 -0.678698
-0.671112 0.681138 0.275466
0.662640 0.652263 -0.227674
0.201049 -0.663149 -0.271372
0.652800 0.220532 -0.665838
0.701046 0.212661 0.236835
0.642846 -0.226808 -0.194675
-0.219428 0.679509 0.701675
0.228562 0.653865 0.246979
