OFF
256 0 0
0.661503 -0.176940 0.630285
0.651232 -0.217941 -0.197366
-0.233919 -0.683267 0.186821
0.202304 0.217245 0.682852
-0.219178 0.699619 0.683666
-0.238425 -0.686953 -0.653152
0.223244 -0.686941 -0.202673
0.653502 -0.220005 -0.199235
-0.675015 0.684946 0.230411
-0.675034 0.684387 0.231699
-0.673860 0.683799 0.230467
0.201023 0.219945 0.684355
-0.690149 -0.252687 0.223363
0.671072 -0.679812 0.213989
-0.234565 -0.682687 0.188054
0.661674 0.212335 -0.711157
-0.688198 -0.251997 0.222949
-0.691672 0.205389 -0.202244
0.201838 0.217395 0.685405
0.217202 -0.240178 -0.682165
0.251882 0.654499 -0.697985
-0.686997 -0.669049 -0.230221
0.654148 -0.218812 -0.197511
-0.652293 -0.226555 -0.661836
-0.686513 -0.668013 -0.227751
0.218083 -0.658921 0.658626
-0.222150 0.258186 -0.659658
0.232326 0.667449 0.231948
0.252823 0.654389 -0.697526
-0.235251 -0.682434 0.187414
-0.235810 -0.686067 -0.653742
0.218863 -0.660282 0.657578
-0.202777 0.657427 -0.190671
0.224067 -0.687198 -0.202072
-0.219090 -0.223030 0.646556
-0.692020 -0.254512 0.222740
0.673222 -0.677322 0.213828
-0.652638 -0.223594 -0.660384
-0.217132 0.698947 0.682132
-0.641433 0.236404 0.667182
-0.688828 -0.253104 0.225457
0.218833 -0.238415 -0.680586
0.253632 0.654133 -0.696091
0.231961 0.668158 0.229945
0.251046 0.654378 -0.697493
-0.653443 -0.224052 -0.662334
0.669980 -0.679502 0.213317
0.223336 -0.687111 -0.203116
0.224054 -0.686782 -0.201206
-0.686048 -0.667887 -0.229978
-0.237139 -0.687590 -0.653114
-0.685950 -0.667170 -0.228924
-0.690732 -0.252187 0.224377
0.251243 0.655591 -0.695880
0.662376 0.211701 -0.707610
0.233235 0.667275 0.232405
-0.654705 -0.223596 -0.662614
-0.644948 0.237083 0.667544
-0.223237 0.258328 -0.658455
0.658972 -0.175981 0.628598
-0.217749 0.698223 0.681443
0.673136 -0.680166 0.215062
-0.689739 0.204645 -0.202091
0.660501 -0.176219 0.629656
-0.643121 0.237384 0.668803
-0.236732 -0.688048 -0.653377
0.671985 -0.682419 0.214217
0.662070 0.213198 -0.709730
-0.690452 -0.253816 0.223162
-0.690171 -0.251652 0.224128
-0.691403 -0.251621 0.223737
0.233411 0.668255 0.231104
0.250027 0.654426 -0.697398
-0.642109 0.237090 0.667821
-0.235395 -0.688031 -0.652838
0.217713 -0.238963 -0.682403
0.202187 0.217147 0.687438
-0.690158 0.206354 -0.202811
0.233559 0.667927 0.231066
-0.237808 -0.686884 -0.653017
-0.675686 0.685161 0.233468
0.223285 -0.688042 -0.203250
-0.219575 0.699137 0.681454
0.682843 0.661187 -0.215461
0.199613 0.217619 0.684710
-0.675795 0.685454 0.234458
0.216868 -0.239384 -0.682566
-0.690061 -0.253350 0.223399
0.219019 -0.659539 0.656268
-0.690413 -0.252586 0.223569
0.225586 -0.687330 -0.201177
0.681393 0.656928 -0.217925
0.682882 0.659871 -0.217238
-0.237925 -0.686497 -0.653226
0.673625 -0.677874 0.214233
0.697126 0.249128 0.242041
0.698650 0.247951 0.242282
-0.219354 0.697544 0.682916
0.253065 0.653118 -0.698276
-0.674400 0.683827 0.231596
-0.235082 -0.681924 0.185957
-0.687838 -0.668416 -0.228198
-0.216788 0.697208 0.680555
0.218283 -0.239505 -0.681015
0.654683 -0.220242 -0.197719
0.696945 0.249529 0.241281
0.232664 0.666877 0.229969
-0.691504 -0.254239 0.223075
-0.233120 -0.681397 0.186144
0.657911 -0.217658 -0.197650
0.230754 0.664933 0.230538
0.698679 0.250180 0.240496
0.696597 0.248883 0.243450
0.218670 -0.659655 0.655336
-0.217760 0.699226 0.680641
0.251021 0.652267 -0.695852
-0.690880 0.206451 -0.201083
-0.219386 -0.222630 0.646982
0.200973 0.217764 0.685847
0.216210 -0.240045 -0.682282
0.217156 -0.240221 -0.682677
0.200545 0.215660 0.686179
0.201950 0.214750 0.685608
0.217878 -0.238394 -0.682335
0.696983 0.248848 0.243561
-0.688792 -0.667895 -0.227637
-0.691998 0.203954 -0.201884
-0.691456 -0.253150 0.223740
0.661247 0.212702 -0.709721
0.654212 -0.219609 -0.196429
0.699517 0.248070 0.243602
-0.643368 0.235740 0.667812
-0.654887 -0.223520 -0.661000
0.232416 0.666151 0.231665
-0.233722 -0.682813 0.185091
-0.201526 0.659796 -0.191821
0.231192 0.667432 0.232308
0.219266 -0.659684 0.657008
0.670762 -0.679689 0.214629
0.669772 -0.680970 0.213612
-0.236888 -0.687872 -0.650620
0.217628 -0.239924 -0.682878
-0.675503 0.685848 0.232297
-0.692587 -0.253100 0.222066
0.659765 -0.177892 0.627065
-0.233401 -0.683031 0.185580
0.231849 0.666574 0.231373
-0.219885 -0.222922 0.649386
-0.691078 0.205582 -0.200597
-0.687872 -0.665911 -0.227538
0.661407 0.212789 -0.709244
-0.203107 0.658277 -0.193112
0.232003 0.666872 0.232868
0.698917 0.250296 0.239952
0.217536 -0.240256 -0.682934
0.698859 0.249165 0.242496
-0.223463 0.258848 -0.659241
-0.690467 0.206676 -0.201772
-0.218154 0.697585 0.682403
0.200216 0.216385 0.687063
0.663046 0.212835 -0.708420
0.661122 -0.176852 0.628916
-0.221940 0.260006 -0.658957
0.698632 0.248522 0.240635
0.217254 -0.239482 -0.681736
0.252916 0.656133 -0.695556
-0.218060 0.699302 0.681418
0.660730 -0.177573 0.627700
0.682467 0.659276 -0.217638
0.663287 0.211881 -0.711283
-0.676179 0.685877 0.233881
-0.673009 0.685286 0.232763
-0.218802 -0.222282 0.648904
0.232419 0.667675 0.231060
-0.236108 -0.685779 -0.651985
0.224304 -0.685385 -0.201311
0.251621 0.654875 -0.698054
-0.643143 0.236019 0.669397
-0.218162 -0.220573 0.647368
-0.640447 0.236653 0.670072
-0.237783 -0.686439 -0.652548
0.659175 -0.178398 0.628856
0.654141 -0.220125 -0.199660
0.700004 0.248401 0.244200
-0.692160 -0.254320 0.224402
0.217593 -0.239428 -0.682334
-0.223617 0.260599 -0.658128
-0.642221 0.237477 0.669777
0.203651 0.218486 0.686446
0.661285 0.212524 -0.709838
-0.239385 -0.686566 -0.653675
-0.687724 -0.668223 -0.227968
-0.202228 0.658575 -0.192789
0.217976 -0.239016 -0.680929
-0.223471 0.257601 -0.657884
-0.220381 -0.222210 0.648896
0.661813 -0.176704 0.629808
-0.654150 -0.226037 -0.662094
0.698504 0.248759 0.242318
0.252196 0.653645 -0.697405
-0.217260 -0.222011 0.648405
-0.693217 0.204670 -0.201498
-0.689272 -0.254341 0.225951
0.251313 0.654153 -0.697017
-0.674079 0.682780 0.233814
-0.201880 0.657943 -0.192157
-0.218194 -0.223868 0.649146
0.671063 -0.680963 0.213703
-0.674022 0.684306 0.234472
-0.203521 0.659678 -0.191109
-0.218775 0.699228 0.683049
0.233405 0.667891 0.232787
0.671481 -0.679534 0.214497
0.252017 0.653614 -0.697611
0.216965 -0.240687 -0.682019
0.682736 0.658715 -0.217056
0.655819 -0.220653 -0.198055
0.682985 0.658137 -0.215361
-0.655372 -0.223604 -0.661451
0.682466 0.660508 -0.217801
0.662519 0.213617 -0.710477
-0.218299 -0.223410 0.648353
-0.691634 -0.253341 0.223028
0.660419 0.212639 -0.707364
-0.654191 -0.224914 -0.661379
0.219474 -0.659825 0.658889
0.218754 -0.658834 0.656044
0.250491 0.653967 -0.695685
-0.689187 -0.252315 0.223365
-0.654118 -0.227040 -0.661772
-0.675600 0.685301 0.233034
0.234375 0.666721 0.230403
-0.218861 0.698201 0.680339
0.220307 -0.660452 0.656506
0.251165 0.653456 -0.694996
-0.234513 -0.682780 0.186478
-0.217157 -0.225171 0.648113
-0.689811 0.203175 -0.201369
-0.643470 0.235571 0.669043
-0.217429 -0.223403 0.647622
0.684156 0.658984 -0.218053
-0.201210 0.657707 -0.191783
-0.237246 -0.686773 -0.652868
0.659765 -0.176282 0.629159
0.252762 0.654276 -0.696014
0.656595 -0.219452 -0.198108
0.659368 -0.176349 0.629769
0.201169 0.215730 0.684897
0.218638 -0.239620 -0.682771
-0.687553 -0.667340 -0.227709
-0.688851 -0.665913 -0.228369
-0.675617 0.684057 0.234844
-0.204154 0.657535 -0.191299
-0.237953 -0.687496 -0.654126
-0.688479 -0.668254 -0.228645
0.219252 -0.239080 -0.681400
