OFF
256 0 0
-0.676151 -0.246767 0.220691
-0.695413 -0.674971 -0.237926
0.220467 -0.684070 0.660147
0.226454 -0.194640 -0.635934
-0.694166 -0.676653 -0.237496
0.223431 -0.194429 -0.635395
0.225077 -0.192119 -0.634918
-0.230524 -0.700949 0.222691
-0.231271 -0.700529 0.223381
0.225083 -0.195589 -0.634274
0.644431 -0.218376 0.689713
-0.667917 0.683701 0.232384
-0.697054 -0.673694 -0.239270
-0.231708 -0.699902 0.222155
-0.676923 -0.249338 0.220055
-0.661148 -0.243559 -0.679280
0.668201 0.263959 0.195114
-0.242753 0.206425 -0.683907
-0.676290 0.218323 0.654628
-0.230090 -0.701699 0.223649
0.224673 -0.193536 -0.634466
0.675617 -0.662391 0.243206
-0.201679 -0.248784 0.677708
-0.678026 0.217061 0.654953
-0.666148 0.683298 0.231736
0.236629 -0.674432 -0.204283
-0.659364 -0.243919 -0.679496
0.682977 0.679430 -0.242770
0.225353 -0.194500 -0.634770
-0.679466 0.217263 0.655403
0.200159 0.686112 0.194530
-0.242580 0.208363 -0.683672
-0.676105 -0.247820 0.220374
-0.228865 0.655989 -0.234277
-0.241637 0.206019 -0.683537
-0.666949 0.683861 0.231785
0.691297 0.215094 -0.676794
-0.659606 -0.245056 -0.680860
0.221376 -0.682301 0.660163
-0.661023 -0.242426 -0.680528
0.205695 0.686404 -0.698864
0.692247 -0.212067 -0.212995
-0.230422 0.657446 -0.235844
-0.228404 0.658594 -0.235274
0.694086 -0.210985 -0.211813
-0.666033 0.219527 -0.228913
-0.201395 -0.249868 0.677914
-0.696511 -0.674004 -0.236204
-0.664056 0.219614 -0.225683
0.683834 0.678810 -0.241860
-0.219752 0.634513 0.687365
0.205776 0.685831 -0.698215
-0.227532 0.658388 -0.234654
-0.202519 -0.247723 0.678850
-0.660563 -0.243383 -0.678557
-0.228821 0.658324 -0.235263
-0.243362 0.206223 -0.682023
0.202286 0.687410 0.195105
0.239269 0.259083 0.685645
-0.232617 -0.700816 0.223451
-0.664985 0.221774 -0.226930
-0.229370 0.658063 -0.232360
-0.677206 0.217063 0.654083
0.685365 0.679137 -0.240245
0.221849 -0.682872 0.659629
-0.221129 0.633048 0.686653
-0.679851 0.217359 0.654960
0.221253 -0.683020 0.659817
0.235374 -0.676241 -0.202616
0.675152 -0.659613 0.242372
-0.220600 0.632970 0.686551
0.238789 0.260610 0.685145
-0.244550 0.207144 -0.682388
-0.677145 0.216109 0.654222
-0.660824 -0.244610 -0.681608
-0.695166 -0.675317 -0.238638
0.239152 0.261063 0.687106
-0.677115 0.219338 0.655816
-0.675259 0.217249 0.655107
-0.658068 -0.246128 -0.679321
0.238133 -0.675877 -0.203511
-0.695343 -0.674764 -0.237850
-0.243448 0.207290 -0.684917
0.237145 0.263153 0.687624
0.667696 0.261362 0.196861
0.678605 -0.660635 0.244792
-0.677806 0.216139 0.654611
-0.229370 -0.700920 0.222094
-0.659622 -0.243940 -0.679705
-0.666666 0.683406 0.231303
-0.229103 0.657481 -0.235454
0.199783 0.687198 0.194895
0.236679 -0.675772 -0.203547
0.237465 0.258757 0.684428
-0.696548 -0.674944 -0.238989
0.643915 -0.219499 0.689495
-0.230978 0.656576 -0.234744
-0.665564 0.681809 0.233133
-0.678004 0.216143 0.653472
0.220833 -0.682498 0.659878
-0.228789 0.658563 -0.233866
-0.231574 -0.701383 0.224705
-0.657734 -0.242290 -0.679547
0.202430 0.687705 0.194834
0.682037 0.679952 -0.242401
0.205728 0.683309 -0.699165
-0.216147 -0.647941 -0.635316
-0.243373 0.206000 -0.682367
0.645023 -0.219698 0.691626
-0.216130 -0.649408 -0.636273
0.200464 0.686022 0.193041
-0.230464 0.657445 -0.235962
0.667539 0.264409 0.197167
-0.243065 0.207704 -0.682947
0.692013 -0.212880 -0.212236
-0.223848 0.631428 0.686604
0.205326 0.684999 -0.699447
0.238839 0.261246 0.685838
0.237606 0.260413 0.685569
0.199662 0.686817 0.195297
-0.663951 0.220273 -0.226641
0.674774 -0.660276 0.243975
0.202479 0.686569 0.195657
0.199239 0.686999 0.193769
-0.215243 -0.648644 -0.636150
-0.232170 -0.700061 0.224968
-0.665755 0.220215 -0.227283
-0.232235 -0.699660 0.221840
-0.658502 -0.244052 -0.679325
-0.696466 -0.674097 -0.238470
0.667063 0.261948 0.196114
0.205374 0.686022 -0.698919
0.642350 -0.219539 0.690209
-0.230690 -0.700326 0.224410
0.684663 0.680041 -0.242343
-0.677898 0.216224 0.656511
-0.201768 -0.247817 0.678567
-0.218759 -0.648628 -0.636506
0.202565 0.685125 0.193573
0.683757 0.680470 -0.239814
-0.222130 0.632938 0.686331
0.674398 -0.660086 0.243896
0.668376 0.261515 0.195366
0.200620 0.685160 0.194430
-0.660876 -0.244623 -0.679787
0.207204 0.684778 -0.698058
-0.242763 0.207361 -0.682670
-0.230303 -0.700307 0.224379
-0.244177 0.208791 -0.683926
0.682943 0.678950 -0.242838
0.683219 0.680898 -0.243024
-0.676540 -0.247083 0.217965
-0.231015 -0.702045 0.222400
0.221568 -0.680924 0.659988
-0.218505 -0.648562 -0.637340
-0.676626 -0.247463 0.221020
0.691422 0.214175 -0.678784
0.684024 0.677175 -0.240806
-0.241735 0.206273 -0.681953
-0.677484 -0.246861 0.218613
0.677167 -0.661374 0.242706
-0.221071 0.634145 0.686786
-0.658855 -0.242974 -0.680280
-0.676678 0.217116 0.654404
-0.675588 -0.249653 0.219588
-0.220147 0.633158 0.685915
-0.678386 0.218645 0.656027
-0.241941 0.207852 -0.682572
-0.677670 0.215750 0.654795
-0.228155 0.657856 -0.235453
0.684677 0.678927 -0.239545
0.694077 -0.211765 -0.211969
-0.666092 0.220418 -0.225923
-0.216858 -0.649030 -0.638445
-0.666294 0.220851 -0.228057
0.206662 0.685595 -0.700580
0.644849 -0.218940 0.689581
0.237061 -0.674583 -0.204191
0.221049 -0.683330 0.660310
-0.201743 -0.247737 0.677557
-0.667239 0.682811 0.232154
-0.674901 -0.247042 0.219351
-0.666532 0.684835 0.231448
-0.677567 0.218869 0.656118
-0.220527 0.631781 0.684712
-0.660967 -0.244823 -0.678304
-0.662403 -0.243148 -0.680717
-0.220365 0.632942 0.687245
-0.678511 0.217207 0.656297
0.676782 -0.661933 0.242930
-0.231032 -0.701112 0.222095
0.204475 0.685623 -0.700068
0.235969 0.259757 0.685785
0.676185 -0.659050 0.242816
-0.667079 0.683110 0.234820
0.668680 0.262428 0.196037
0.643173 -0.220884 0.690206
-0.202103 -0.248115 0.678870
-0.232576 -0.701121 0.224467
0.684421 0.680895 -0.241729
-0.216050 -0.649555 -0.637952
-0.217508 -0.649030 -0.635596
0.205883 0.683505 -0.699771
-0.219368 0.631281 0.686420
0.691292 0.214523 -0.675647
-0.218709 -0.648850 -0.636199
-0.677515 -0.246908 0.218329
0.238198 -0.676289 -0.205124
0.684190 0.681875 -0.240161
-0.216730 -0.649374 -0.635902
0.221123 -0.682505 0.660940
0.199913 0.686736 0.195484
0.205262 0.684822 -0.697840
-0.202401 -0.247306 0.677442
-0.661572 -0.241495 -0.679348
0.199922 0.686228 0.194883
0.222510 -0.683079 0.660463
0.222324 -0.682774 0.660268
0.237008 -0.675661 -0.204413
-0.243043 0.207215 -0.683298
-0.243569 0.206637 -0.684196
0.668965 0.261995 0.197412
-0.243424 0.209207 -0.682228
0.225843 -0.194182 -0.635633
-0.232591 -0.700724 0.223509
0.220859 -0.682295 0.660812
-0.229503 -0.699434 0.222464
-0.697664 -0.674974 -0.239312
-0.230076 0.657226 -0.234013
0.237455 -0.676119 -0.204328
0.692153 0.213472 -0.677274
-0.231080 -0.700771 0.223713
0.204728 0.683201 -0.699341
0.226379 -0.193283 -0.636100
-0.676955 -0.247093 0.218378
0.223130 -0.194232 -0.635813
-0.242172 0.209081 -0.682286
-0.667320 0.682604 0.232048
0.682781 0.681475 -0.242188
0.201093 0.686514 0.195939
-0.665820 0.682033 0.233588
0.205650 0.685680 -0.699254
-0.222476 0.632329 0.687719
0.642928 -0.217773 0.689979
0.691025 0.214599 -0.675004
-0.665441 0.220101 -0.227245
-0.666584 0.682799 0.232010
0.691655 -0.210684 -0.213021
-0.232671 -0.702995 0.223614
-0.201852 -0.247569 0.677980
-0.658519 -0.244803 -0.681253
0.644114 -0.220119 0.689819
0.684418 0.680358 -0.239810
0.691538 0.213172 -0.677580
-0.242903 0.207473 -0.683139
-0.228856 0.657084 -0.237003
