OFF
256 0 0
-0.005708 -0.684950 0.216003
-0.462699 0.668463 0.240402
-0.457917 0.216158 0.683429
-0.446218 -0.233294 0.202870
0.453220 -0.673220 -0.252128
-0.448766 -0.232362 0.203212
-0.457192 0.224755 -0.240271
0.434458 0.218317 0.692395
0.001172 0.684494 -0.211438
-0.447679 -0.232145 0.202300
0.434802 0.216441 0.691250
0.475423 -0.233446 0.217339
0.476297 -0.233796 0.217203
0.009752 0.253929 -0.688659
0.451116 -0.239943 -0.681606
0.448952 -0.238539 -0.683738
-0.449032 -0.232736 0.202594
-0.004909 -0.684684 0.217425
0.448994 -0.238961 -0.682327
-0.448683 -0.233663 0.201416
0.437650 0.229311 -0.217234
0.005635 0.255329 -0.687771
0.010037 -0.222280 0.682261
0.003873 -0.706942 -0.676266
-0.003849 -0.687963 0.215600
-0.456409 0.223294 -0.239044
-0.442091 -0.230983 -0.670632
-0.448729 -0.234095 0.202411
-0.458320 0.217966 0.683295
0.000976 0.684517 -0.211918
0.474447 -0.234720 0.217265
0.431494 0.218770 0.691203
0.004258 -0.708571 -0.675168
-0.447461 -0.235165 0.201950
0.007874 0.254332 -0.687287
0.474683 -0.234555 0.215492
-0.002787 -0.686350 0.217181
0.450900 -0.238624 -0.681742
-0.461905 0.665670 0.240126
0.450805 -0.239706 -0.681616
0.433039 0.216327 0.691902
0.451176 -0.673397 -0.251895
0.452881 -0.674342 -0.252983
0.449711 -0.236357 -0.683086
-0.453360 -0.688495 -0.249299
-0.004475 -0.685194 0.215978
0.475653 -0.234593 0.214987
0.001031 0.685205 -0.211781
-0.459695 0.216057 0.683150
0.010797 0.711492 0.703975
-0.460220 0.219072 0.683707
0.449426 -0.238443 -0.682812
-0.460662 0.667430 0.239925
0.004621 -0.707960 -0.675217
-0.448849 -0.232988 0.204742
0.447500 0.708905 0.251005
-0.458139 0.216710 0.682175
0.473963 -0.235456 0.217139
-0.459686 0.217230 0.682486
0.446245 0.709579 0.250922
0.451235 -0.239117 -0.683030
-0.460090 0.216469 0.681969
-0.462383 0.665539 0.239929
-0.003469 -0.683554 0.217344
0.450912 -0.673165 -0.251370
0.449100 -0.239461 -0.680697
0.476284 -0.234463 0.217311
0.451153 -0.672829 -0.253777
0.475415 -0.234237 0.218096
0.009824 0.712638 0.703069
0.001707 0.683514 -0.211123
0.006705 0.255327 -0.689228
-0.458283 0.218016 0.682200
-0.450113 -0.235031 0.203060
-0.003641 -0.685912 0.216531
-0.452881 -0.688997 -0.248348
-0.450804 -0.232588 0.202034
0.010697 0.711359 0.703916
0.012975 0.710429 0.703528
-0.441377 -0.228838 -0.670248
-0.455200 -0.688041 -0.248058
0.009116 0.711684 0.702363
0.437545 0.227964 -0.216908
0.002117 0.682162 -0.212157
0.435599 0.228952 -0.218621
0.447246 -0.239693 -0.682008
-0.447937 -0.233664 0.203109
0.475463 -0.234049 0.216801
-0.459670 0.666203 0.240335
-0.443802 -0.231204 -0.669940
0.476329 -0.233595 0.215460
-0.003878 -0.685269 0.217770
0.009706 0.710006 0.702574
0.009043 0.709248 0.703650
-0.460893 0.665837 0.240833
0.002876 -0.706267 -0.675754
-0.459625 0.217745 0.683751
-0.004690 -0.683370 0.216998
0.432364 0.216812 0.690849
0.009493 -0.221419 0.684083
0.475379 -0.233538 0.217666
-0.448708 -0.231960 0.201495
0.476358 -0.232378 0.218358
0.448740 0.709333 0.250255
-0.004653 -0.686145 0.215324
0.436380 0.228955 -0.218169
0.006507 0.256277 -0.688709
-0.452843 -0.686563 -0.249485
0.451517 -0.673588 -0.251729
0.432534 0.217132 0.689551
-0.459661 0.216597 0.683899
0.007895 -0.222526 0.682474
-0.462629 0.666593 0.240332
-0.005024 -0.683296 0.216372
0.008239 0.711810 0.703146
0.445738 0.710223 0.251714
0.447953 0.710088 0.252243
-0.452683 -0.687038 -0.249172
0.473371 -0.234794 0.215331
-0.004349 -0.684545 0.216140
0.002816 0.684528 -0.211324
0.447512 0.710455 0.252602
0.438213 0.226838 -0.218230
0.001973 0.682575 -0.213852
-0.453146 -0.689224 -0.247215
0.446876 0.710100 0.253054
-0.441246 -0.232545 -0.669757
0.008152 -0.221294 0.682831
-0.462780 0.666077 0.240233
-0.456685 0.225168 -0.240266
0.452064 -0.240703 -0.681661
0.008011 -0.223127 0.683516
-0.448285 -0.231764 0.201865
0.434377 0.216787 0.690010
0.450263 -0.673865 -0.251464
0.448305 0.709835 0.250841
0.436451 0.227660 -0.216469
0.435753 0.229059 -0.218095
-0.455014 0.223837 -0.239067
0.433312 0.216205 0.689777
0.451818 -0.672772 -0.251966
0.000709 0.682907 -0.214254
0.452252 -0.674733 -0.250790
0.011818 0.710656 0.702817
0.010178 0.710331 0.702808
0.011543 0.710705 0.705197
0.006576 0.254067 -0.689646
0.436124 0.228421 -0.218653
0.449537 -0.238419 -0.682254
-0.440084 -0.230018 -0.670639
0.452271 -0.672964 -0.251758
0.452428 -0.673981 -0.251543
-0.006111 -0.683913 0.215920
0.452239 -0.674179 -0.252787
0.000642 0.682871 -0.212580
-0.442625 -0.231084 -0.669661
0.009477 0.712191 0.703048
0.449904 -0.239568 -0.682807
-0.003935 -0.686177 0.217504
0.006535 0.253895 -0.687610
-0.448587 -0.232598 0.202344
-0.453148 -0.690732 -0.247424
-0.454522 -0.687962 -0.249204
-0.442845 -0.230937 -0.671918
-0.453893 -0.686805 -0.247473
0.446208 0.712952 0.251615
0.000740 0.684181 -0.211149
-0.000914 0.684440 -0.209932
-0.459268 0.217049 0.682038
0.006743 0.254968 -0.689614
0.004243 -0.707941 -0.674476
-0.003192 -0.684250 0.217050
0.448460 0.709701 0.250277
-0.440979 -0.230302 -0.670600
0.434476 0.216297 0.690944
-0.441136 -0.231096 -0.669829
0.011364 0.710865 0.702343
0.004096 -0.705470 -0.675326
0.475671 -0.233099 0.216956
-0.458323 0.216372 0.683663
0.448277 0.710990 0.251423
-0.453954 -0.688570 -0.248526
0.449408 -0.240172 -0.683332
0.446517 0.710066 0.251996
0.451722 -0.674465 -0.252382
0.433296 0.217203 0.691256
-0.003015 -0.686097 0.216750
0.000995 0.684473 -0.211998
-0.006332 -0.684999 0.217231
-0.454417 -0.688297 -0.249158
0.477427 -0.233174 0.215820
0.006997 -0.222386 0.683912
-0.447809 -0.231773 0.202275
0.009325 0.709666 0.702427
-0.003882 -0.685566 0.218471
-0.443449 -0.233094 -0.669890
0.432968 0.217907 0.689748
0.002436 0.682851 -0.211391
0.007565 0.254894 -0.690124
-0.454215 -0.688415 -0.248569
-0.448376 -0.232625 0.202033
-0.448618 -0.234579 0.201138
0.003457 -0.705773 -0.675082
-0.458277 0.217157 0.682339
0.007289 0.254787 -0.688918
0.000796 0.684086 -0.212126
0.450763 -0.238393 -0.683128
-0.004075 -0.684232 0.215060
0.007450 -0.221554 0.682608
-0.461085 0.666168 0.240142
-0.442288 -0.230215 -0.669663
0.432731 0.215733 0.692335
-0.454353 -0.688315 -0.248677
0.451809 -0.675896 -0.249400
0.449306 -0.238546 -0.682425
-0.447287 -0.233465 0.203262
0.435550 0.227356 -0.217912
0.448478 0.711236 0.252025
0.011324 0.710722 0.704125
-0.459792 0.215385 0.682587
0.431933 0.218109 0.691284
0.452963 -0.672946 -0.253162
0.010167 0.711420 0.704532
0.002205 0.683149 -0.212074
0.434980 0.227764 -0.218474
-0.449097 -0.233230 0.202261
-0.002599 -0.683368 0.215178
0.002207 0.683420 -0.212633
0.437290 0.228293 -0.217119
-0.455176 0.225290 -0.240152
-0.459536 0.217678 0.683079
-0.004596 -0.685443 0.215064
0.449995 -0.239910 -0.683015
-0.005735 -0.683313 0.216469
0.475704 -0.233785 0.216962
0.436812 0.228664 -0.218133
-0.002751 -0.685933 0.215661
0.451866 -0.675053 -0.251115
0.004347 -0.706665 -0.674248
0.000768 0.684681 -0.211272
-0.449089 -0.231165 0.205098
0.006944 -0.708810 -0.674267
-0.458523 0.218337 0.682853
-0.446943 -0.233352 0.203452
0.446819 0.712067 0.252085
-0.457285 0.223933 -0.241009
0.436673 0.227498 -0.217796
0.436556 0.229708 -0.216086
0.451585 -0.671762 -0.251044
-0.441394 -0.229983 -0.670296
-0.457475 0.226425 -0.240503
0.446987 0.709816 0.250048
-0.440504 -0.230511 -0.671758
-0.448771 -0.234067 0.202691
0.004009 -0.707817 -0.676241
-0.003504 -0.684473 0.216875
