OFF
256 0 0
0.752286 -0.157384 0.270758
-0.191469 0.744205 0.285547
-0.587390 -0.602388 0.297340
0.753252 -0.154331 0.270964
0.286339 0.268115 -0.565758
0.752989 -0.154677 0.268261
-0.161619 0.313151 0.739936
0.271238 -0.159819 0.729811
0.728638 -0.159863 -0.620051
0.290265 0.263940 0.259301
0.767358 0.302465 -0.174311
-0.166685 -0.615761 -0.190941
0.286599 0.270100 -0.567020
0.271903 -0.159669 0.730689
-0.649605 0.743734 -0.160059
0.287441 0.268304 -0.566214
0.769242 0.301955 -0.174035
-0.163263 0.310443 0.740829
-0.165967 -0.617674 -0.191754
-0.602063 -0.165730 0.733641
-0.146845 -0.632937 0.740191
-0.601263 -0.169003 0.734716
0.767099 0.302192 -0.174192
-0.175057 -0.154928 -0.605545
-0.651381 0.742503 -0.161065
0.286429 0.268129 -0.567289
0.302444 -0.624809 -0.591391
-0.649694 0.743971 -0.160241
-0.161995 0.312216 0.742059
-0.649952 0.743170 -0.160883
0.743420 -0.597077 -0.174706
-0.589960 -0.603359 0.295186
0.271537 -0.157375 0.729738
-0.166432 -0.614203 -0.191097
-0.192899 0.744810 0.287402
-0.615712 -0.181821 -0.183728
0.302953 -0.627155 -0.589413
0.753131 -0.157076 0.270389
-0.613300 0.248665 0.292512
0.290958 0.266220 0.260377
-0.165194 -0.615125 -0.191349
-0.191695 0.741501 0.285276
0.752382 -0.156369 0.270873
-0.612512 -0.181654 -0.182719
-0.614701 -0.180880 -0.183291
-0.148883 -0.631436 0.738751
-0.631488 0.287788 -0.624754
0.302032 -0.627611 -0.590996
-0.148060 -0.630301 0.739722
-0.191851 0.744099 0.283319
0.299263 -0.626884 -0.590635
0.304748 0.742453 -0.136102
-0.587761 -0.604840 0.299418
-0.611807 0.248313 0.288897
-0.630471 0.288836 -0.622903
-0.162998 0.312467 0.740512
0.751249 -0.155457 0.269281
-0.588326 -0.605463 0.298683
-0.191427 0.743081 0.285632
-0.632000 0.285987 -0.623933
-0.162702 0.311866 0.743273
-0.599674 -0.168322 0.734240
-0.147867 -0.629913 0.740366
-0.631587 0.287682 -0.623637
-0.588263 -0.603598 0.297300
-0.178357 0.731881 -0.589514
0.303042 -0.625919 -0.590363
-0.613262 -0.181596 -0.182992
0.751151 -0.154829 0.270274
-0.191588 0.743538 0.285963
-0.615322 -0.181996 -0.182948
-0.649604 0.742052 -0.161017
0.753849 -0.153883 0.269653
-0.599770 -0.168177 0.734526
0.272799 -0.159303 0.729364
0.301221 -0.625213 -0.589681
-0.650639 0.739606 -0.160023
-0.614043 0.248575 0.291840
-0.164695 -0.614199 -0.191764
0.769028 0.301636 -0.174798
0.767444 0.301107 -0.174809
0.304391 -0.625025 -0.588845
0.303464 -0.626199 -0.592201
-0.612226 -0.181624 -0.182866
-0.150616 -0.632070 0.739368
-0.163041 0.312531 0.740504
-0.178535 0.730362 -0.588220
-0.190742 0.744345 0.284998
0.744035 -0.596141 -0.175541
-0.192106 0.744113 0.284510
-0.178451 0.728912 -0.587624
0.767015 0.303104 -0.173490
0.769581 0.303195 -0.175525
-0.147013 -0.629492 0.739839
0.727649 -0.161548 -0.620603
0.752509 -0.155764 0.272177
0.271636 -0.160348 0.728487
0.286000 0.268123 -0.567574
0.744022 -0.597594 -0.176031
-0.148351 -0.630230 0.739568
0.287298 0.267220 -0.567988
-0.165900 -0.616807 -0.191358
-0.147859 -0.632157 0.740364
-0.166072 -0.615233 -0.192449
-0.192858 0.744472 0.285407
-0.615561 0.248312 0.292016
-0.176139 -0.156295 -0.604725
-0.177907 0.730591 -0.589651
0.271516 -0.589343 0.269032
0.742320 -0.594618 -0.176533
-0.174974 -0.152539 -0.603231
-0.614911 0.247804 0.291302
0.272411 -0.159857 0.729728
0.729803 -0.160789 -0.619314
0.751613 -0.154450 0.270242
0.769654 0.302604 -0.173933
0.767260 0.302704 -0.174954
-0.176629 0.729586 -0.587517
0.770001 0.301859 -0.176852
0.287176 0.267626 -0.567069
0.766447 0.302568 -0.173536
0.767514 0.301687 -0.174232
0.727381 -0.160797 -0.619557
0.286596 0.268685 -0.567647
0.727760 -0.162341 -0.620684
0.302705 -0.627492 -0.589505
-0.178240 0.730744 -0.587451
0.304180 0.741593 -0.137452
0.770289 0.302854 -0.175844
-0.601017 -0.167126 0.733688
-0.176859 -0.154598 -0.603719
0.769306 0.302022 -0.175263
-0.177191 -0.153794 -0.606068
-0.176637 -0.154216 -0.604490
-0.613918 -0.181383 -0.183941
0.271524 -0.586660 0.267438
0.291297 0.263136 0.259887
0.269996 -0.156930 0.729374
0.269984 -0.586605 0.269301
-0.614180 -0.182491 -0.182292
-0.651547 0.743027 -0.161719
-0.162217 0.312978 0.740622
-0.612997 0.248548 0.290732
-0.177038 -0.154271 -0.605924
-0.175752 -0.152278 -0.605332
0.291745 0.263131 0.259500
0.271592 -0.158726 0.728311
-0.649682 0.745172 -0.161837
0.767832 0.302008 -0.174941
0.272702 -0.159125 0.728979
-0.177058 -0.155853 -0.604714
-0.601005 -0.165855 0.733042
-0.174734 -0.154025 -0.604192
0.270533 -0.158089 0.727880
0.304150 0.742601 -0.138547
-0.631542 0.287221 -0.624172
-0.588714 -0.603605 0.298931
0.303052 -0.626707 -0.590902
-0.632653 0.288531 -0.623901
-0.587013 -0.603166 0.298645
-0.588999 -0.604424 0.296903
-0.190950 0.744790 0.285142
-0.148538 -0.632226 0.739136
-0.651014 0.741763 -0.161273
-0.176401 -0.153895 -0.603543
-0.178272 0.732109 -0.588878
-0.179631 0.730438 -0.588160
-0.177679 0.732209 -0.587128
0.750681 -0.154709 0.270671
0.741758 -0.595103 -0.177270
0.287232 0.269209 -0.567707
0.305855 0.740862 -0.135850
-0.146967 -0.630838 0.741417
0.742521 -0.594863 -0.176447
-0.161911 0.314173 0.741460
0.304146 -0.627005 -0.590160
-0.613461 -0.181730 -0.182881
-0.190854 0.740664 0.287048
-0.177396 -0.153898 -0.605263
-0.162955 0.312447 0.741943
0.307159 0.741491 -0.135846
-0.165112 -0.616763 -0.192009
-0.166608 -0.617346 -0.191947
-0.614276 -0.180768 -0.183365
-0.630828 0.287275 -0.623353
0.271619 -0.158427 0.728166
-0.612166 0.248423 0.291573
0.753145 -0.155515 0.270734
-0.175567 -0.153973 -0.607427
0.287684 0.268881 -0.568636
-0.612900 0.247637 0.292154
-0.600592 -0.167210 0.732966
0.287051 0.269148 -0.566685
0.272176 -0.587152 0.267997
-0.649687 0.743161 -0.158806
0.272632 -0.587867 0.269926
0.291648 0.264543 0.260675
0.273874 -0.589295 0.268796
0.289836 0.263082 0.259924
-0.163711 0.310419 0.741690
-0.179892 0.729288 -0.587038
-0.163420 0.312710 0.742093
0.767902 0.302580 -0.174706
-0.615338 -0.182889 -0.181760
-0.166619 -0.614781 -0.190417
-0.193262 0.742198 0.285223
-0.175415 -0.154215 -0.604306
0.289819 0.263457 0.260076
0.303487 -0.626068 -0.592111
0.728185 -0.162765 -0.620942
0.306307 0.742309 -0.136156
0.752269 -0.155125 0.269540
0.285924 0.267242 -0.568446
-0.600895 -0.167471 0.732509
-0.164909 -0.616100 -0.190872
-0.178750 0.731023 -0.587487
-0.147107 -0.633562 0.738762
-0.588064 -0.604066 0.296050
-0.167122 -0.615954 -0.192647
0.304187 -0.627185 -0.590702
-0.165019 -0.616969 -0.189914
0.729713 -0.162491 -0.619176
-0.167020 -0.616030 -0.191229
0.727065 -0.161838 -0.619741
0.727752 -0.161284 -0.620412
-0.629419 0.287804 -0.624174
0.752331 -0.154197 0.270050
0.740985 -0.593930 -0.177090
0.286527 0.268326 -0.568727
0.271306 -0.587853 0.270024
0.272269 -0.160407 0.728662
-0.165738 -0.615013 -0.190846
-0.165557 -0.615757 -0.190593
-0.163300 0.313002 0.740155
0.742854 -0.598376 -0.177158
-0.165798 -0.615895 -0.191939
0.273188 -0.588315 0.268168
0.287489 0.269410 -0.565760
-0.163340 0.312607 0.740747
-0.614682 0.248483 0.291022
0.727027 -0.161092 -0.618008
-0.633143 0.286256 -0.625314
-0.176815 -0.154551 -0.605724
-0.175073 -0.155372 -0.604101
-0.175633 -0.153869 -0.604634
-0.190933 0.743252 0.285219
-0.147078 -0.631550 0.738998
0.272152 -0.158971 0.729327
0.271314 -0.158384 0.727960
-0.615501 0.247876 0.291715
0.286702 0.269582 -0.566338
-0.601021 -0.165623 0.733083
-0.177987 0.730999 -0.587807
-0.162221 0.313270 0.742661
-0.601257 -0.166028 0.733809
-0.600820 -0.167389 0.734334
